<?xml version="1.0" encoding="UTF-8"?>
<svg xmlns="http://www.w3.org/2000/svg" xmlns:xlink="http://www.w3.org/1999/xlink" width="32px" height="32px" viewBox="0 0 32 32" version="1.1">
<g id="surface1">
<path style=" stroke:none;fill-rule:nonzero;fill:rgb(33.333334%,34.117648%,32.549021%);fill-opacity:1;" d="M 26.964844 7.988281 C 26.414062 7.996094 25.976562 8.449219 25.980469 9 L 25.980469 12.015625 L 21.992188 12.015625 L 21.992188 9.015625 C 22 8.449219 21.542969 7.992188 20.980469 8 C 20.425781 8.003906 19.984375 8.460938 19.992188 9.015625 L 19.992188 12.015625 L 16.992188 12.015625 C 15.640625 11.996094 15.640625 14.03125 16.992188 14.015625 L 19.992188 14.015625 L 19.992188 18.015625 L 16.992188 18.015625 C 15.640625 17.996094 15.640625 20.03125 16.992188 20.015625 L 19.992188 20.015625 L 19.992188 22.960938 C 19.972656 24.3125 22.011719 24.3125 21.992188 22.960938 L 21.992188 20.015625 L 25.980469 20.015625 L 25.980469 22.988281 C 25.960938 24.339844 28 24.339844 27.980469 22.988281 L 27.980469 20.015625 L 30.992188 20.015625 C 32.34375 20.035156 32.34375 17.996094 30.992188 18.015625 L 27.980469 18.015625 L 27.980469 14.015625 L 31.003906 14.015625 C 32.355469 14.03125 32.355469 11.996094 31.003906 12.015625 L 27.980469 12.015625 L 27.980469 9 C 27.988281 8.433594 27.527344 7.976562 26.964844 7.988281 Z M 1.167969 8.015625 C 0.515625 8.003906 -0.0195312 8.53125 -0.0195312 9.1875 L -0.0195312 22.84375 C -0.0195312 23.792969 1.050781 24.347656 1.828125 23.800781 L 11.484375 16.972656 C 12.144531 16.503906 12.144531 15.523438 11.484375 15.058594 L 1.828125 8.230469 C 1.636719 8.09375 1.40625 8.015625 1.167969 8.015625 Z M 21.992188 14.015625 L 25.980469 14.015625 L 25.980469 18.015625 L 21.992188 18.015625 Z M 21.992188 14.015625 "/>
</g>
</svg>
