<?xml version="1.0" encoding="UTF-8"?>
<svg xmlns="http://www.w3.org/2000/svg" xmlns:xlink="http://www.w3.org/1999/xlink" width="32px" height="32px" viewBox="0 0 32 32" version="1.1">
<defs>
<filter id="alpha" filterUnits="objectBoundingBox" x="0%" y="0%" width="100%" height="100%">
  <feColorMatrix type="matrix" in="SourceGraphic" values="0 0 0 0 1 0 0 0 0 1 0 0 0 0 1 0 0 0 1 0"/>
</filter>
<mask id="mask0">
  <g filter="url(#alpha)">
<rect x="0" y="0" width="32" height="32" style="fill:rgb(0%,0%,0%);fill-opacity:0.35;stroke:none;"/>
  </g>
</mask>
<clipPath id="clip1">
  <rect x="0" y="0" width="32" height="32"/>
</clipPath>
<g id="surface5" clip-path="url(#clip1)">
<path style=" stroke:none;fill-rule:nonzero;fill:rgb(33.333334%,34.117648%,32.549021%);fill-opacity:1;" d="M 16 14 L 16 18 L 22 18 L 22 14 Z M 10 20 L 10 24 L 18 24 L 18 20 Z M 10 20 "/>
</g>
</defs>
<g id="surface1">
<path style=" stroke:none;fill-rule:nonzero;fill:rgb(33.333334%,34.117648%,32.549021%);fill-opacity:1;" d="M 26 0 C 25.382812 0 24.894531 0.179688 24.5 0.5625 L 20 4.328125 L 20 7.558594 C 21.449219 8.796875 22.46875 9.898438 24.5 11.4375 C 24.894531 11.820312 25.382812 12 26 12 L 28 12 L 28 10 C 28 9.550781 27.742188 8.941406 27.375 8.5625 L 26.632812 8 L 32 8 L 32 4 L 26.632812 4 L 27.375 3.4375 C 27.742188 3.058594 28 2.515625 28 2 L 28 0 Z M 4 2 L 4 30 L 28 30 L 28 16 L 24 16 L 24 26 L 8 26 L 8 6 L 16 6 L 16 2 Z M 10 8 L 10 12 L 18 12 L 18 8 Z M 10 14 L 10 18 L 14 18 L 14 14 Z M 20 20 L 20 24 L 22 24 L 22 20 Z M 20 20 "/>
<use xlink:href="#surface5" mask="url(#mask0)"/>
</g>
</svg>
