<?xml version="1.0" encoding="UTF-8"?>
<svg xmlns="http://www.w3.org/2000/svg" xmlns:xlink="http://www.w3.org/1999/xlink" width="32px" height="32px" viewBox="0 0 32 32" version="1.1">
<g id="surface1">
<path style=" stroke:none;fill-rule:nonzero;fill:rgb(33.333334%,34.117648%,32.549021%);fill-opacity:1;" d="M 2 2 L 2 30 L 30 30 L 30 2 Z M 10 6 L 20 6 C 23.3125 6 26 8.6875 26 12 L 26 26 L 12 26 C 8.6875 26 6 23.3125 6 20 C 6 16.6875 8.6875 14 12 14 L 22 14 L 22 12 C 22 10.894531 21.105469 10 20 10 L 10 10 Z M 12 18 C 10.894531 18 10 18.894531 10 20 C 10 21.105469 10.894531 22 12 22 L 22 22 L 22 18 Z M 12 18 "/>
</g>
</svg>
