<?xml version="1.0" encoding="UTF-8"?>
<svg xmlns="http://www.w3.org/2000/svg" xmlns:xlink="http://www.w3.org/1999/xlink" width="32px" height="32px" viewBox="0 0 32 32" version="1.1">
<g id="surface1">
<path style=" stroke:none;fill-rule:nonzero;fill:rgb(33.333334%,34.117648%,32.549021%);fill-opacity:1;" d="M 7 2 L 6 6 L 2 7 L 6 8 L 7 12 L 8 8 L 12 7 L 8 6 Z M 19 2 C 18.449219 2 18 2.449219 18 3 C 18 3.550781 18.449219 4 19 4 C 19.550781 4 20 3.550781 20 3 C 20 2.449219 19.550781 2 19 2 Z M 16 4 L 12 14 L 4 14 L 9.578125 19.148438 L 6 28 L 16 24 L 16 22 L 22 22 L 22 16 L 25.832031 16 L 28 14 L 20 14 Z M 27 4 C 26.449219 4 26 4.449219 26 5 C 26 5.550781 26.449219 6 27 6 C 27.550781 6 28 5.550781 28 5 C 28 4.449219 27.550781 4 27 4 Z M 21 8 C 20.449219 8 20 8.449219 20 9 C 20 9.550781 20.449219 10 21 10 C 21.550781 10 22 9.550781 22 9 C 22 8.449219 21.550781 8 21 8 Z M 24 18 L 24 20 C 27.121094 23.246094 22.867188 26.996094 20 24 L 18 24 L 18 26 C 19.601562 27.542969 21.269531 28 22.800781 28 L 26 28 L 30 32 L 32 32 L 32 30 L 28 26 L 28 22.800781 C 28 21.035156 27.570312 19.601562 26 18 Z M 24 18 "/>
</g>
</svg>
