<?xml version="1.0" encoding="UTF-8"?>
<svg xmlns="http://www.w3.org/2000/svg" xmlns:xlink="http://www.w3.org/1999/xlink" width="32px" height="32px" viewBox="0 0 32 32" version="1.1">
<defs>
<filter id="alpha" filterUnits="objectBoundingBox" x="0%" y="0%" width="100%" height="100%">
  <feColorMatrix type="matrix" in="SourceGraphic" values="0 0 0 0 1 0 0 0 0 1 0 0 0 0 1 0 0 0 1 0"/>
</filter>
<mask id="mask0">
  <g filter="url(#alpha)">
<rect x="0" y="0" width="32" height="32" style="fill:rgb(0%,0%,0%);fill-opacity:0.35;stroke:none;"/>
  </g>
</mask>
<clipPath id="clip1">
  <rect x="0" y="0" width="32" height="32"/>
</clipPath>
<g id="surface5" clip-path="url(#clip1)">
<path style=" stroke:none;fill-rule:nonzero;fill:rgb(33.333334%,34.117648%,32.549021%);fill-opacity:1;" d="M 2 27.039062 L 30 16 L 30 30 L 2 30 Z M 2 27.039062 "/>
</g>
</defs>
<g id="surface1">
<path style=" stroke:none;fill-rule:nonzero;fill:rgb(33.333334%,34.117648%,32.549021%);fill-opacity:1;" d="M 10 2 L 10 4 C 10 4.53125 10.1875 5.0625 10.601562 5.4375 L 11.125 6 L 10 6 C 5.601562 6 2 9.601562 2 14 C 2 18.398438 5.601562 22 10 22 L 10 18 C 7.789062 18 6 16.210938 6 14 C 6 11.800781 7.800781 10 10 10 L 11.125 10 L 10.601562 10.601562 C 10.199219 10.9375 10 11.46875 10 12 L 10 14 L 12 14 C 12.53125 14 13.0625 13.800781 13.4375 13.4375 L 18 8.875 L 18 7.125 L 17.4375 6.601562 L 13.4375 2.601562 C 13.0625 2.1875 12.53125 2 12 2 Z M 27 2 L 16 30 L 30 30 L 30 2 Z M 27 2 "/>
<use xlink:href="#surface5" mask="url(#mask0)"/>
</g>
</svg>
