<?xml version="1.0" encoding="UTF-8"?>
<svg xmlns="http://www.w3.org/2000/svg" xmlns:xlink="http://www.w3.org/1999/xlink" width="32px" height="32px" viewBox="0 0 32 32" version="1.1">
<g id="surface1">
<path style=" stroke:none;fill-rule:nonzero;fill:rgb(33.333334%,34.117648%,32.549021%);fill-opacity:1;" d="M 14 2 L 14 30 L 18 30 L 18 2 Z M 2 6 L 2 10 L 12 10 L 12 6 Z M 20 6 L 20 10 L 30 10 L 30 6 Z M 6 14 L 6 18 L 12 18 L 12 14 Z M 20 14 L 20 18 L 26 18 L 26 14 Z M 4 22 L 4 26 L 12 26 L 12 22 Z M 20 22 L 20 26 L 28 26 L 28 22 Z M 20 22 "/>
</g>
</svg>
