<?xml version="1.0" encoding="UTF-8"?>
<svg xmlns="http://www.w3.org/2000/svg" xmlns:xlink="http://www.w3.org/1999/xlink" width="32px" height="32px" viewBox="0 0 32 32" version="1.1">
<g id="surface1">
<path style=" stroke:none;fill-rule:nonzero;fill:rgb(33.333334%,34.117648%,32.549021%);fill-opacity:1;" d="M 4 2 C 2.894531 2 2 2.894531 2 4 L 2 12 L 4 12 L 4 10 L 8 10 L 8 12 L 10 12 L 10 4 C 10 2.894531 9.105469 2 8 2 Z M 4 4 L 8 4 L 8 8 L 4 8 Z M 14 4 L 14 8 L 30 8 L 30 4 Z M 14 10 L 14 14 L 22 14 L 22 10 Z M 2 18 L 2 28 L 8 28 C 9.105469 28 10 27.105469 10 26 L 10 24 C 10 22.894531 9.105469 22 8 22 L 8 20 C 8 18.894531 7.105469 18 6 18 Z M 4 20 L 6 20 L 6 22 L 4 22 Z M 14 20 L 14 24 L 30 24 L 30 20 Z M 4 24 L 8 24 L 8 26 L 4 26 Z M 14 26 L 14 30 L 22 30 L 22 26 Z M 14 26 "/>
</g>
</svg>
