<?xml version="1.0" encoding="UTF-8"?>
<svg xmlns="http://www.w3.org/2000/svg" xmlns:xlink="http://www.w3.org/1999/xlink" width="32px" height="32px" viewBox="0 0 32 32" version="1.1">
<g id="surface1">
<path style=" stroke:none;fill-rule:nonzero;fill:rgb(33.333334%,34.117648%,32.549021%);fill-opacity:1;" d="M 16 0 C 13.789062 0 12 1.789062 12 4 C 12 5.425781 12.761719 6.746094 14 7.460938 L 14 12 L 10 12 L 10 16 L 14 16 L 14 25.800781 C 10.207031 25.214844 6.949219 23 5.238281 19.839844 L 2 22 L 2 22.199219 C 4.800781 27 10.164062 29.988281 16 30 C 21.835938 29.988281 27.199219 27 30 22.199219 L 30 22 L 26.761719 19.800781 C 25.066406 22.980469 21.808594 25.222656 18 25.820312 L 18 16 L 22 16 L 22 12 L 18 12 L 18 7.460938 C 19.238281 6.746094 20 5.425781 20 4 C 20 1.789062 18.210938 0 16 0 Z M 16 0 "/>
</g>
</svg>
