<?xml version="1.0" encoding="UTF-8"?>
<svg xmlns="http://www.w3.org/2000/svg" xmlns:xlink="http://www.w3.org/1999/xlink" width="32px" height="32px" viewBox="0 0 32 32" version="1.1">
<g id="surface1">
<path style=" stroke:none;fill-rule:nonzero;fill:rgb(33.333334%,34.117648%,32.549021%);fill-opacity:1;" d="M 9 2 L 8 6 L 4 7 L 8 8 L 9 12 L 10 8 L 14 7 L 10 6 Z M 17 2 C 16.449219 2 16 2.449219 16 3 C 16 3.550781 16.449219 4 17 4 C 17.550781 4 18 3.550781 18 3 C 18 2.449219 17.550781 2 17 2 Z M 25 4 C 24.449219 4 24 4.449219 24 5 C 24 5.550781 24.449219 6 25 6 C 25.550781 6 26 5.550781 26 5 C 26 4.449219 25.550781 4 25 4 Z M 19 8 C 18.449219 8 18 8.449219 18 9 C 18 9.550781 18.449219 10 19 10 C 19.550781 10 20 9.550781 20 9 C 20 8.449219 19.550781 8 19 8 Z M 14 12 C 12.890625 12 12 12.890625 12 14 L 12 21.207031 C 11.953125 21.226562 11.902344 21.25 11.855469 21.269531 C 11.5625 20.527344 10.847656 20 10 20 C 8.890625 20 8 20.890625 8 22 L 8 26 C 8 29.3125 12.476562 32 18 32 C 23.523438 32 28 29.3125 28 26 L 28 22 C 28 20.890625 27.109375 20 26 20 C 25.148438 20 24.433594 20.527344 24.144531 21.273438 C 24.097656 21.25 24.046875 21.230469 24 21.207031 L 24 20 C 24 18.890625 23.109375 18 22 18 C 20.890625 18 20 18.890625 20 20 L 20 18 C 20 16.890625 19.109375 16 18 16 C 16.890625 16 16 16.890625 16 18 L 16 14 C 16 12.890625 15.109375 12 14 12 Z M 14 12 "/>
</g>
</svg>
