<?xml version="1.0" encoding="UTF-8"?>
<svg xmlns="http://www.w3.org/2000/svg" xmlns:xlink="http://www.w3.org/1999/xlink" width="32px" height="32px" viewBox="0 0 32 32" version="1.1">
<g id="surface1">
<path style=" stroke:none;fill-rule:nonzero;fill:rgb(33.333334%,34.117648%,32.549021%);fill-opacity:1;" d="M 7 2 L 6 6 L 2 7 L 6 8 L 7 12 L 8 8 L 12 7 L 8 6 Z M 15 2 C 14.449219 2 14 2.449219 14 3 C 14 3.550781 14.449219 4 15 4 C 15.550781 4 16 3.550781 16 3 C 16 2.449219 15.550781 2 15 2 Z M 23 4 C 22.449219 4 22 4.449219 22 5 C 22 5.550781 22.449219 6 23 6 C 23.550781 6 24 5.550781 24 5 C 24 4.449219 23.550781 4 23 4 Z M 17 8 C 16.449219 8 16 8.449219 16 9 C 16 9.550781 16.449219 10 17 10 C 17.550781 10 18 9.550781 18 9 C 18 8.449219 17.550781 8 17 8 Z M 12 12 C 10.890625 12 10 12.890625 10 14 L 10 21.207031 C 9.953125 21.226562 9.902344 21.25 9.855469 21.269531 C 9.5625 20.527344 8.847656 20 8 20 C 6.890625 20 6 20.890625 6 22 L 6 26 C 6 29.3125 10.476562 32 16 32 C 18.839844 31.996094 21.542969 31.269531 23.4375 30 L 22.800781 30 C 20.871094 30 18.570312 29.328125 16.601562 27.441406 L 16 26.851562 L 16 22 L 22 22 L 22 20 C 22 18.890625 21.109375 18 20 18 C 18.890625 18 18 18.890625 18 20 L 18 18 C 18 16.890625 17.109375 16 16 16 C 14.890625 16 14 16.890625 14 18 L 14 14 C 14 12.890625 13.109375 12 12 12 Z M 24 18 L 24 20 C 27.121094 23.246094 22.867188 26.996094 20 24 L 18 24 L 18 26 C 19.601562 27.542969 21.269531 28 22.800781 28 L 26 28 L 30 32 L 32 32 L 32 30 L 28 26 L 28 22.800781 C 28 21.035156 27.570312 19.601562 26 18 Z M 24 18 "/>
</g>
</svg>
