<?xml version="1.0" encoding="UTF-8"?>
<svg xmlns="http://www.w3.org/2000/svg" xmlns:xlink="http://www.w3.org/1999/xlink" width="32px" height="32px" viewBox="0 0 32 32" version="1.1">
<g id="surface1">
<path style=" stroke:none;fill-rule:nonzero;fill:rgb(90.196079%,0.784314%,70.588237%);fill-opacity:1;" d="M 16 4 C 12.464844 4 8.941406 5.160156 6.320312 7.300781 C 3.699219 9.441406 2 12.648438 2 16 C 2 19.351562 3.699219 22.558594 6.320312 24.699219 C 8.941406 26.839844 12.464844 28 16 28 C 19.535156 28 23.058594 26.839844 25.679688 24.699219 C 28.300781 22.558594 30 19.351562 30 16 L 28.25 16 C 28.25 21.523438 22.765625 26 16 26 C 9.234375 26 3.75 21.523438 3.75 16 C 3.75 10.476562 9.234375 6 16 6 Z M 16 4 "/>
</g>
</svg>
