<?xml version="1.0" encoding="UTF-8"?>
<svg xmlns="http://www.w3.org/2000/svg" xmlns:xlink="http://www.w3.org/1999/xlink" width="32px" height="32px" viewBox="0 0 32 32" version="1.1">
<g id="surface1">
<path style=" stroke:none;fill-rule:nonzero;fill:rgb(90.196079%,0.784314%,70.588237%);fill-opacity:1;" d="M 5.714844 2 C 4.769531 2 4 2.789062 4 3.75 L 4 24.75 C 4 25.714844 4.769531 26.5 5.714844 26.5 L 19.429688 26.5 L 19.429688 28.25 C 19.429688 29.808594 21.277344 30.585938 22.355469 29.484375 L 27.496094 24.238281 C 27.824219 23.902344 28.007812 23.445312 28 22.972656 C 27.992188 22.519531 27.8125 22.082031 27.496094 21.761719 L 22.355469 16.511719 C 21.277344 15.414062 19.429688 16.191406 19.429688 17.75 L 19.429688 19.5 L 10.855469 19.5 L 10.855469 3.75 C 10.855469 2.789062 10.085938 2 9.144531 2 Z M 5.714844 2 "/>
<path style=" stroke:none;fill-rule:nonzero;fill:rgb(94.117647%,89.019608%,92.54902%);fill-opacity:1;" d="M 5.960938 4.003906 L 5.960938 24.5 L 19.429688 24.5 C 20.511719 24.5 21.386719 25.394531 21.386719 26.5 L 21.386719 27.644531 L 25.941406 23 L 21.386719 18.351562 L 21.386719 19.5 C 21.386719 20.605469 20.511719 21.5 19.429688 21.5 L 10.855469 21.5 C 9.773438 21.5 8.898438 20.605469 8.898438 19.5 L 8.898438 4.003906 Z M 5.960938 4.003906 "/>
</g>
</svg>
