<?xml version="1.0" encoding="UTF-8"?>
<svg xmlns="http://www.w3.org/2000/svg" xmlns:xlink="http://www.w3.org/1999/xlink" width="32px" height="32px" viewBox="0 0 32 32" version="1.1">
<g id="surface1">
<path style=" stroke:none;fill-rule:nonzero;fill:rgb(90.196079%,0.784314%,70.588237%);fill-opacity:1;" d="M 2 15.972656 C 2.007812 15.523438 2.191406 15.085938 2.511719 14.761719 L 7.761719 9.511719 C 8.261719 9.015625 9.015625 8.863281 9.671875 9.136719 C 10.328125 9.402344 10.75 10.039062 10.75 10.75 L 10.75 12.5 L 14.25 12.5 L 14.25 9 C 14.25 8.035156 15.035156 7.25 16 7.25 L 28.25 7.25 C 29.214844 7.25 30 8.035156 30 9 L 30 23 C 30 23.964844 29.214844 24.75 28.25 24.75 L 16 24.75 C 15.035156 24.75 14.25 23.964844 14.25 23 L 14.25 19.5 L 10.75 19.5 L 10.75 21.25 C 10.75 21.960938 10.328125 22.597656 9.671875 22.863281 C 9.015625 23.136719 8.261719 22.984375 7.761719 22.488281 L 2.511719 17.238281 C 2.179688 16.902344 1.992188 16.445312 2 15.972656 Z M 2 15.972656 "/>
<path style=" stroke:none;fill-rule:nonzero;fill:rgb(94.117647%,89.019608%,92.54902%);fill-opacity:1;" d="M 28 9.25 L 16.25 9.25 L 16.25 12.5 C 16.25 13.605469 15.355469 14.5 14.25 14.5 L 10.75 14.5 C 9.644531 14.5 8.75 13.605469 8.75 12.5 L 8.75 11.351562 L 4.101562 16 L 8.75 20.648438 L 8.75 19.5 C 8.75 18.394531 9.644531 17.5 10.75 17.5 L 14.25 17.5 C 15.355469 17.5 16.25 18.394531 16.25 19.5 L 16.25 22.75 L 28 22.75 Z M 28 9.25 "/>
</g>
</svg>
