<?xml version="1.0" encoding="UTF-8"?>
<svg xmlns="http://www.w3.org/2000/svg" xmlns:xlink="http://www.w3.org/1999/xlink" width="32px" height="32px" viewBox="0 0 32 32" version="1.1">
<g id="surface1">
<path style="fill-rule:nonzero;fill:rgb(94.117647%,89.019608%,92.54902%);fill-opacity:1;stroke-width:1;stroke-linecap:butt;stroke-linejoin:round;stroke:rgb(90.196079%,0.784314%,70.588237%);stroke-opacity:1;stroke-miterlimit:4;" d="M 4.285156 1.5 L 1.5 4.285156 L 4.285156 7.072266 L 4.285156 5.214844 L 6.142578 5.214844 C 6.890625 5.220703 6.996094 6.142578 7.072266 6.142578 L 7.072266 14.5 L 8.927734 14.5 L 8.927734 6.142578 C 9.003906 6.142578 9.109375 5.220703 9.857422 5.214844 L 11.714844 5.214844 L 11.714844 7.072266 L 14.5 4.285156 L 11.714844 1.5 L 11.714844 3.357422 L 9.941406 3.357422 C 9.912109 3.353516 9.886719 3.353516 9.857422 3.357422 C 9.015625 3.498047 8.419922 3.84375 8 4.246094 C 7.580078 3.84375 6.984375 3.498047 6.142578 3.357422 C 6.113281 3.353516 6.087891 3.353516 6.058594 3.357422 L 4.285156 3.357422 Z M 4.285156 1.5 " transform="matrix(2,0,0,2,0,0)"/>
</g>
</svg>
