<?xml version="1.0" encoding="UTF-8"?>
<svg xmlns="http://www.w3.org/2000/svg" xmlns:xlink="http://www.w3.org/1999/xlink" width="32px" height="32px" viewBox="0 0 32 32" version="1.1">
<g id="surface1">
<path style="fill-rule:evenodd;fill:rgb(94.117647%,89.019608%,92.54902%);fill-opacity:1;stroke-width:1;stroke-linecap:butt;stroke-linejoin:miter;stroke:rgb(90.196079%,0.784314%,70.588237%);stroke-opacity:1;stroke-miterlimit:4;" d="M 9.416016 2.5 C 9.269531 2.509766 9.128906 2.646484 9.130859 2.787109 L 9.130859 5.898438 L 5.253906 5.898438 L 5.253906 10.039062 L 6.208984 10.039062 L 6.208984 5.902344 L 8.117188 5.902344 L 8.117188 10.039062 L 9.130859 10.039062 L 9.130859 13.271484 C 9.130859 13.464844 9.376953 13.599609 9.53125 13.433594 L 14.445312 8.107422 C 14.511719 8.029297 14.515625 7.908203 14.447266 7.835938 L 9.605469 2.582031 C 9.548828 2.521484 9.482422 2.496094 9.416016 2.5 Z M 1.675781 5.898438 C 1.574219 5.898438 1.496094 5.978516 1.496094 6.083984 L 1.496094 9.853516 C 1.496094 9.955078 1.574219 10.039062 1.675781 10.039062 L 2.390625 10.039062 L 2.390625 5.898438 Z M 1.675781 5.898438 " transform="matrix(2,0,0,2,0,0)"/>
</g>
</svg>
