<?xml version="1.0" encoding="UTF-8"?>
<svg xmlns="http://www.w3.org/2000/svg" xmlns:xlink="http://www.w3.org/1999/xlink" width="32px" height="32px" viewBox="0 0 32 32" version="1.1">
<g id="surface1">
<path style=" stroke:none;fill-rule:nonzero;fill:rgb(33.333334%,34.117648%,32.549021%);fill-opacity:1;" d="M 0 6 L 0 26 L 32 26 L 32 6 Z M 2 8 L 30 8 L 30 24 L 2 24 Z M 14 10 L 14 22 L 18 22 C 20.210938 22 22 20.210938 22 18 C 22 15.789062 20.210938 14 18 14 L 16 14 L 16 10 Z M 22 10 L 22 12 L 24 12 L 24 20 L 22 20 L 22 22 L 28 22 L 28 20 L 26 20 L 26 12 L 28 12 L 28 10 Z M 6 12 L 6 14 L 10 14 L 10 16 L 7 16 C 5.34375 16 4 17.34375 4 19 C 4 20.65625 5.34375 22 7 22 L 12 22 L 12 14 C 12 12.894531 11.105469 12 10 12 Z M 16 16 L 18 16 C 19.105469 16 20 16.894531 20 18 C 20 19.105469 19.105469 20 18 20 L 16 20 Z M 7 18 L 10 18 L 10 20 L 7 20 C 6.449219 20 6 19.550781 6 19 C 6 18.449219 6.449219 18 7 18 Z M 7 18 "/>
</g>
</svg>
