<?xml version="1.0" encoding="UTF-8"?>
<svg xmlns="http://www.w3.org/2000/svg" xmlns:xlink="http://www.w3.org/1999/xlink" width="32px" height="32px" viewBox="0 0 32 32" version="1.1">
<g id="surface1">
<path style=" stroke:none;fill-rule:nonzero;fill:rgb(33.333334%,34.117648%,32.549021%);fill-opacity:1;" d="M 8.03125 3.757812 L 7.175781 7.175781 L 3.757812 8.03125 L 3.757812 9.96875 L 7.175781 10.824219 L 8.03125 14.242188 L 9.96875 14.242188 L 10.824219 10.824219 L 14.242188 9.96875 L 14.242188 8.03125 L 10.824219 7.175781 L 9.96875 3.757812 Z M 16 4 C 14.722656 4.003906 13.453125 4.210938 12.242188 4.613281 L 12.472656 5.527344 L 16.242188 6.46875 L 16.242188 8.011719 C 20.5625 8.140625 23.996094 11.679688 24 16 C 23.996094 16.609375 23.925781 17.214844 23.785156 17.808594 L 26.957031 20.859375 C 27.640625 19.332031 27.996094 17.675781 28 16 C 28 9.371094 22.628906 4 16 4 Z M 14.863281 12 L 12 15.292969 L 26 29.414062 L 29.414062 26 Z M 4.617188 12.246094 C 4.214844 13.457031 4.003906 14.722656 4 16 L 6.410156 16 L 5.527344 12.472656 Z M 10 20 C 9.382812 20 8.894531 20.179688 8.5 20.5625 C 5.667969 22.707031 4.832031 24 2 26 L 8.5 31.4375 C 8.894531 31.820312 9.382812 32 10 32 L 12 32 L 12 30 C 12 29.484375 11.742188 28.941406 11.375 28.5625 L 10.632812 28 L 16 28 C 17.648438 27.996094 19.277344 27.65625 20.785156 26.996094 L 17.636719 23.820312 C 17.097656 23.9375 16.550781 23.996094 16 24 L 10.632812 24 L 11.375 23.4375 C 11.742188 23.058594 12 22.515625 12 22 L 12 20 Z M 10 20 "/>
</g>
</svg>
