<?xml version="1.0" encoding="UTF-8"?>
<svg xmlns="http://www.w3.org/2000/svg" xmlns:xlink="http://www.w3.org/1999/xlink" width="32px" height="32px" viewBox="0 0 32 32" version="1.1">
<g id="surface1">
<path style=" stroke:none;fill-rule:nonzero;fill:rgb(33.333334%,34.117648%,32.549021%);fill-opacity:1;" d="M 0 2 L 0 30 L 24 30 L 24 28.828125 L 20 24.828125 L 20 26 L 4 26 L 4 6 L 14 6 L 14 6.265625 C 14.46875 6.539062 14.808594 6.988281 14.941406 7.515625 L 15.648438 10.351562 L 18.484375 11.058594 C 19.007812 11.191406 19.457031 11.53125 19.726562 12 L 20 12 L 20 15.171875 L 24 19.171875 L 24 10 L 16 2 Z M 6 8 L 6 12 L 6.265625 12 C 6.539062 11.53125 6.988281 11.191406 7.515625 11.058594 L 10.351562 10.351562 L 10.9375 8 Z M 9 18 C 7.34375 18 6 19.34375 6 21 C 6 22.65625 7.34375 24 9 24 C 10.65625 24 12 22.65625 12 21 C 12 19.34375 10.65625 18 9 18 Z M 9 18 "/>
<path style=" stroke:none;fill-rule:nonzero;fill:rgb(33.333334%,34.117648%,32.549021%);fill-opacity:1;" d="M 13 8 L 12 12 L 8 13 L 12 14 L 13 18 L 14 14 L 18 13 L 14 12 Z M 18 16 L 16 18 L 30 32 L 32 30 Z M 18 16 "/>
</g>
</svg>
