<?xml version="1.0" encoding="UTF-8"?>
<svg xmlns="http://www.w3.org/2000/svg" xmlns:xlink="http://www.w3.org/1999/xlink" width="32px" height="32px" viewBox="0 0 32 32" version="1.1">
<g id="surface1">
<path style=" stroke:none;fill-rule:nonzero;fill:rgb(33.333334%,34.117648%,32.549021%);fill-opacity:1;" d="M 2 0 L 2 30 L 25.171875 30 L 20 24.828125 L 20 26 L 14 26 L 14 22 L 17.171875 22 L 15.171875 20 L 14 20 L 14 18.828125 L 13.65625 18.484375 L 12 18.484375 L 12 20 L 6 20 L 6 16 L 10.4375 16 L 10.351562 15.648438 L 7.515625 14.941406 L 7.515625 14 L 6 14 L 6 10 L 10.4375 10 L 10.9375 8 L 6 8 L 6 4 L 12 4 L 12 7.515625 L 14 7.515625 L 14 4 L 20 4 L 20 8 L 15.0625 8 L 15.5625 10 L 20 10 L 20 14 L 18.828125 14 L 22 17.171875 L 22 16 L 28 16 L 28 20 L 24.828125 20 L 26.828125 22 L 28 22 L 28 23.171875 L 32 27.171875 L 32 0 Z M 22 4 L 28 4 L 28 8 L 22 8 Z M 13 8 L 12 12 L 8 13 L 12 14 L 13 18 L 14 14 L 18 13 L 14 12 Z M 22 10 L 28 10 L 28 14 L 22 14 Z M 18 16 L 16 18 L 30 32 L 32 30 Z M 6 22 L 12 22 L 12 26 L 6 26 Z M 6 22 "/>
</g>
</svg>
