<?xml version="1.0" encoding="UTF-8"?>
<svg xmlns="http://www.w3.org/2000/svg" xmlns:xlink="http://www.w3.org/1999/xlink" width="32px" height="32px" viewBox="0 0 32 32" version="1.1">
<g id="surface1">
<path style=" stroke:none;fill-rule:nonzero;fill:rgb(33.333334%,34.117648%,32.549021%);fill-opacity:1;" d="M 4 2 L 4 30 L 25.171875 30 L 21.171875 26 L 8 26 L 8 15.0625 L 7.515625 14.941406 L 7.515625 11.058594 L 8 10.9375 L 8 6 L 18 6 L 18 10.9375 L 18.484375 11.058594 L 18.484375 12 L 24 12 L 24 19.171875 L 28 23.171875 L 28 10 L 20 2 Z M 4 2 "/>
<path style=" stroke:none;fill-rule:nonzero;fill:rgb(33.333334%,34.117648%,32.549021%);fill-opacity:1;" d="M 13 8 L 12 12 L 8 13 L 12 14 L 13 18 L 14 14 L 18 13 L 14 12 Z M 18 16 L 16 18 L 30 32 L 32 30 Z M 18 16 "/>
</g>
</svg>
