<?xml version="1.0" encoding="UTF-8"?>
<svg xmlns="http://www.w3.org/2000/svg" xmlns:xlink="http://www.w3.org/1999/xlink" width="32px" height="32px" viewBox="0 0 32 32" version="1.1">
<g id="surface1">
<path style=" stroke:none;fill-rule:nonzero;fill:rgb(33.333334%,34.117648%,32.549021%);fill-opacity:1;" d="M 2 2 L 2 24.988281 C 2.378906 22 3.796875 20.058594 6 18.289062 L 6 10 L 30 10 L 30 2 Z M 17 12 C 16.25 12 15.601562 12.304688 15.035156 12.800781 L 5.601562 21.351562 L 5.601562 21.359375 C 4.585938 22.300781 4.007812 23.617188 4 25 C 4 27.761719 6.238281 30 9 30 C 11.761719 30 14 27.761719 14 25 C 14 23.917969 13.648438 22.867188 13 22 L 17.003906 22 C 16.351562 22.863281 16 23.917969 16 25 C 16 27.761719 18.238281 30 21 30 C 23.761719 30 26 27.761719 26 25 C 26.003906 22.621094 24.332031 20.570312 22 20.09375 L 28.261719 14.316406 C 28.5625 14 28.726562 14 29 14 L 30 14 L 30 15 C 30 15.550781 30.449219 16 31 16 C 31.550781 16 32 15.550781 32 15 L 32 14 C 32 12.597656 31.683594 12 30 12 L 29 12 C 28.25 12 27.570312 12.304688 27 12.800781 L 19.066406 20 L 10.03125 20 L 16.261719 14.316406 C 16.5625 14 16.726562 14 17 14 L 18 14 L 18 15 C 18 15.550781 18.449219 16 19 16 C 19.550781 16 20 15.550781 20 15 L 20 14 C 20 12.597656 19.683594 12 18 12 Z M 27.214844 18 L 26 19.121094 L 26 20.601562 C 27.171875 21.773438 28.003906 23.230469 28 25.003906 C 28 26.957031 27.179688 28.726562 25.871094 30 L 30 30 L 30 18 Z M 9 22 C 10.65625 22 12 23.34375 12 25 C 12 26.65625 10.65625 28 9 28 C 7.34375 28 6 26.65625 6 25 C 6 23.34375 7.34375 22 9 22 Z M 21 22 C 22.65625 22 24 23.34375 24 25 C 24 26.65625 22.65625 28 21 28 C 19.34375 28 18 26.65625 18 25 C 18 23.34375 19.34375 22 21 22 Z M 2 25 L 2 30 L 4.128906 30 C 2.820312 28.726562 2 26.953125 2 25 Z M 2 25 "/>
</g>
</svg>
