<?xml version="1.0" encoding="UTF-8"?>
<svg xmlns="http://www.w3.org/2000/svg" xmlns:xlink="http://www.w3.org/1999/xlink" width="32px" height="32px" viewBox="0 0 32 32" version="1.1">
<g id="surface1">
<path style=" stroke:none;fill-rule:nonzero;fill:rgb(33.333334%,34.117648%,32.549021%);fill-opacity:1;" d="M 2 0 C 0.890625 0 0 0.890625 0 2 L 0 18 C 0 19.109375 0.890625 20 2 20 L 30 20 C 31.109375 20 32 19.109375 32 18 L 32 2 C 32 0.890625 31.109375 0 30 0 Z M 18 4 L 20 4 L 20 8 L 24 8 C 26.210938 8 28 9.789062 28 12 C 28 14.210938 26.210938 16 24 16 L 19 16 C 18.445312 16 18 15.554688 18 15 Z M 6 6 L 13 6 C 13.554688 6 14 6.445312 14 7 L 14 15 C 14 15.75 13.566406 16 13 16 L 7 16 C 5.34375 16 4 14.65625 4 13 C 4 11.34375 5.34375 10 7 10 L 12 10 L 12 8 L 6 8 Z M 20 10 L 20 14 L 24 14 C 25.105469 14 26 13.105469 26 12 C 26 10.894531 25.105469 10 24 10 Z M 7 12 C 6.449219 12 6 12.449219 6 13 C 6 13.550781 6.449219 14 7 14 L 12 14 L 12 12 Z M 7 12 "/>
</g>
</svg>
