<?xml version="1.0" encoding="UTF-8"?>
<svg xmlns="http://www.w3.org/2000/svg" xmlns:xlink="http://www.w3.org/1999/xlink" width="32px" height="32px" viewBox="0 0 32 32" version="1.1">
<g id="surface1">
<path style=" stroke:none;fill-rule:nonzero;fill:rgb(33.333334%,34.117648%,32.549021%);fill-opacity:1;" d="M 22 2 L 22 14 C 22 15.105469 21.105469 16 20 16 C 18.894531 16 18 15.105469 18 14 L 18 2 Z M 16 4.734375 L 16 14 C 16 16.183594 17.816406 18 20 18 C 22.183594 18 24 16.183594 24 14 L 24 11.335938 L 29.609375 18.863281 C 30.253906 19.730469 30.089844 20.96875 29.238281 21.632812 L 19.601562 29.585938 C 18.75 30.25 17.539062 30.089844 16.894531 29.222656 L 6.394531 15.125 C 6.140625 14.785156 6.046875 14.394531 6.035156 14 L 6 14 L 6.003906 20 C 6.003906 21.109375 5.113281 22 4.003906 22 C 2.894531 22 2.003906 21.109375 2.003906 20 L 2 14 C 2 12.511719 2.46875 11.859375 4 11.128906 L 12.824219 7.355469 Z M 6.769531 12.359375 C 6.589844 12.5 6.457031 12.671875 6.34375 12.855469 C 6.460938 12.675781 6.589844 12.5 6.769531 12.359375 Z M 6.226562 13.054688 C 6.179688 13.15625 6.148438 13.261719 6.121094 13.367188 C 6.152344 13.261719 6.175781 13.152344 6.226562 13.054688 Z M 6.226562 13.054688 "/>
</g>
</svg>
