<?xml version="1.0" encoding="UTF-8"?>
<svg xmlns="http://www.w3.org/2000/svg" xmlns:xlink="http://www.w3.org/1999/xlink" width="32px" height="32px" viewBox="0 0 32 32" version="1.1">
<g id="surface1">
<path style=" stroke:none;fill-rule:nonzero;fill:rgb(33.333334%,34.117648%,32.549021%);fill-opacity:1;" d="M 22 4 C 18.6875 4 16 6.6875 16 10 L 16 12 L 20 12 L 20 10 C 20 8.894531 20.894531 8 22 8 C 23.105469 8 24 8.894531 24 10 C 24 14.589844 18.625 21.136719 16 24.601562 L 16 28 L 28 28 L 28 24 L 20.847656 24 C 23.539062 21.246094 28 15.59375 28 10 C 28 6 25.3125 4 22 4 Z M 2 14 L 2 18 L 12 18 L 12 14 Z M 2 14 "/>
</g>
</svg>
