<?xml version="1.0" encoding="UTF-8"?>
<svg xmlns="http://www.w3.org/2000/svg" xmlns:xlink="http://www.w3.org/1999/xlink" width="32px" height="32px" viewBox="0 0 32 32" version="1.1">
<defs>
<linearGradient id="linear0" gradientUnits="userSpaceOnUse" x1="63.999992" y1="121.896683" x2="63.999992" y2="6.103257" gradientTransform="matrix(0.25,0,0,0.25,0.00000180222,0)">
<stop offset="0" style="stop-color:rgb(100%,100%,100%);stop-opacity:1;"/>
<stop offset="0.506438" style="stop-color:rgb(100%,100%,100%);stop-opacity:1;"/>
<stop offset="0.822961" style="stop-color:rgb(94.509804%,94.509804%,94.509804%);stop-opacity:1;"/>
<stop offset="0.90625" style="stop-color:rgb(91.764706%,91.764706%,91.764706%);stop-opacity:1;"/>
<stop offset="1" style="stop-color:rgb(87.450981%,87.450981%,87.450981%);stop-opacity:1;"/>
</linearGradient>
</defs>
<g id="surface1">
<path style=" stroke:none;fill-rule:nonzero;fill:rgb(90.196079%,0.784314%,70.588237%);fill-opacity:1;" d="M 16 2 C 8.269531 2 2 8.269531 2.003906 16 C 2 23.730469 8.269531 30 16 30 C 23.730469 30 30 23.730469 30 16 C 30 8.269531 23.730469 2 16 2 Z M 16 12 C 16.402344 12 16.800781 12.0625 17.183594 12.179688 C 17.4375 12.257812 17.683594 12.363281 17.917969 12.492188 C 18.152344 12.617188 18.371094 12.769531 18.578125 12.941406 C 18.679688 13.027344 18.777344 13.117188 18.867188 13.214844 C 19.054688 13.40625 19.222656 13.613281 19.367188 13.839844 C 19.652344 14.289062 19.851562 14.792969 19.941406 15.320312 C 19.980469 15.542969 20 15.773438 20 16 C 20 16.402344 19.9375 16.800781 19.820312 17.179688 C 19.742188 17.4375 19.636719 17.683594 19.507812 17.917969 C 19.382812 18.152344 19.230469 18.371094 19.058594 18.578125 C 18.972656 18.679688 18.882812 18.777344 18.785156 18.867188 C 18.59375 19.054688 18.386719 19.222656 18.160156 19.367188 C 17.710938 19.652344 17.207031 19.851562 16.679688 19.941406 C 16.457031 19.980469 16.226562 20 16 20 C 15.597656 20 15.199219 19.9375 14.820312 19.820312 C 14.5625 19.742188 14.316406 19.636719 14.082031 19.507812 C 13.847656 19.382812 13.628906 19.230469 13.425781 19.058594 C 13.320312 18.972656 13.222656 18.882812 13.132812 18.785156 C 12.945312 18.59375 12.777344 18.386719 12.636719 18.160156 C 12.347656 17.710938 12.148438 17.207031 12.058594 16.679688 C 12.019531 16.457031 12 16.226562 12 16 C 12 15.867188 12.007812 15.734375 12.019531 15.601562 C 12.046875 15.335938 12.101562 15.074219 12.179688 14.820312 C 12.257812 14.5625 12.363281 14.316406 12.492188 14.082031 C 12.617188 13.847656 12.769531 13.628906 12.941406 13.421875 C 13.027344 13.320312 13.117188 13.222656 13.214844 13.132812 C 13.40625 12.945312 13.613281 12.777344 13.839844 12.632812 C 14.289062 12.347656 14.792969 12.148438 15.320312 12.058594 C 15.542969 12.019531 15.773438 12 16 12 Z M 16 12 "/>
<path style=" stroke:none;fill-rule:nonzero;fill:url(#linear0);" d="M 16 4 C 9.375 4 4 9.375 4 16 C 4 22.625 9.375 28 16 28 C 22.625 28 28 22.625 28 16 C 28 9.375 22.625 4 16 4 Z M 16 10.011719 C 19.308594 10.011719 21.988281 12.691406 21.988281 16 C 21.988281 19.308594 19.308594 21.988281 16 21.988281 C 12.691406 21.988281 10.011719 19.308594 10.011719 16 C 10.011719 12.691406 12.691406 10.011719 16 10.011719 Z M 16 10.011719 "/>
</g>
</svg>
