<?xml version="1.0" encoding="UTF-8"?>
<svg xmlns="http://www.w3.org/2000/svg" xmlns:xlink="http://www.w3.org/1999/xlink" width="32px" height="32px" viewBox="0 0 32 32" version="1.1">
<g id="surface1">
<path style=" stroke:none;fill-rule:nonzero;fill:rgb(33.333334%,34.117648%,32.549021%);fill-opacity:1;" d="M 0 0 L 0 4 L 12 4 C 13.105469 4 14 4.894531 14 6 L 14 9.125 L 13.398438 8.5625 C 13.0625 8.1875 12.53125 8 12 8 L 10 8 L 10 10 C 10 10.53125 10.199219 11.0625 10.5625 11.398438 L 14.5625 15.398438 L 15.125 16 L 16.875 16 L 17.398438 15.398438 L 21.398438 11.398438 C 21.800781 11.0625 22 10.53125 22 10 L 22 8 L 20 8 C 19.46875 8 18.9375 8.1875 18.5625 8.5625 L 18 9.125 L 18 4 C 18 1.789062 16.210938 0 14 0 Z M 20 2 L 20 6 L 22 6 C 22.828125 6 23.539062 6.503906 23.84375 7.222656 C 23.945312 7.460938 24 7.722656 24 8 L 24 12 C 24 14.011719 25.011719 15.890625 26.691406 17 C 25.011719 18.109375 24 19.988281 24 22 L 24 26 C 24 27.105469 23.105469 28 22 28 L 20 28 L 20 32 L 22 32 C 22.414062 32 22.820312 31.957031 23.210938 31.878906 C 25.945312 31.320312 28 28.898438 28 26 L 28 22 C 28 21.722656 28.054688 21.460938 28.15625 21.222656 C 28.460938 20.503906 29.171875 20 30 20 L 32 20 L 32 14 L 30 14 C 28.894531 14 28 13.105469 28 12 L 28 8 C 28 4.6875 25.3125 2 22 2 Z M 4 8 L 4 12 C 4 13.105469 3.105469 14 2 14 L 0 14 L 0 20 L 2 20 C 3.105469 20 4 20.894531 4 22 L 4 26 C 4 29.3125 6.6875 32 10 32 L 12 32 L 12 28 L 10 28 C 8.894531 28 8 27.105469 8 26 L 8 22 C 8 21.496094 7.9375 21.003906 7.816406 20.527344 C 7.453125 19.101562 6.566406 17.832031 5.308594 17 C 6.988281 15.890625 8 14.011719 8 12 L 8 8 Z M 4 8 "/>
</g>
</svg>
