<?xml version="1.0" encoding="UTF-8"?>
<svg xmlns="http://www.w3.org/2000/svg" xmlns:xlink="http://www.w3.org/1999/xlink" width="32px" height="32px" viewBox="0 0 32 32" version="1.1">
<defs>
<filter id="alpha" filterUnits="objectBoundingBox" x="0%" y="0%" width="100%" height="100%">
  <feColorMatrix type="matrix" in="SourceGraphic" values="0 0 0 0 1 0 0 0 0 1 0 0 0 0 1 0 0 0 1 0"/>
</filter>
<mask id="mask0">
  <g filter="url(#alpha)">
<rect x="0" y="0" width="32" height="32" style="fill:rgb(0%,0%,0%);fill-opacity:0.35;stroke:none;"/>
  </g>
</mask>
<clipPath id="clip1">
  <rect x="0" y="0" width="32" height="32"/>
</clipPath>
<g id="surface5" clip-path="url(#clip1)">
<path style=" stroke:none;fill-rule:nonzero;fill:rgb(33.333334%,34.117648%,32.549021%);fill-opacity:1;" d="M 11.65625 6 L 20.34375 6 L 26 11.65625 L 26 20.34375 L 20.34375 26 L 11.65625 26 L 6 20.34375 L 6 11.65625 Z M 11.65625 6 "/>
</g>
</defs>
<g id="surface1">
<path style=" stroke:none;fill-rule:nonzero;fill:rgb(33.333334%,34.117648%,32.549021%);fill-opacity:1;" d="M 10 2 L 2 10 L 2 22 L 10 30 L 22 30 L 30 22 L 30 10 L 22 2 Z M 11.65625 6 L 20.34375 6 L 26 11.65625 L 26 20.34375 L 20.34375 26 L 11.65625 26 L 6 20.34375 L 6 11.65625 Z M 11.65625 6 "/>
<use xlink:href="#surface5" mask="url(#mask0)"/>
</g>
</svg>
