<?xml version="1.0" encoding="UTF-8"?>
<svg xmlns="http://www.w3.org/2000/svg" xmlns:xlink="http://www.w3.org/1999/xlink" width="32px" height="32px" viewBox="0 0 32 32" version="1.1">
<defs>
<filter id="alpha" filterUnits="objectBoundingBox" x="0%" y="0%" width="100%" height="100%">
  <feColorMatrix type="matrix" in="SourceGraphic" values="0 0 0 0 1 0 0 0 0 1 0 0 0 0 1 0 0 0 1 0"/>
</filter>
<mask id="mask0">
  <g filter="url(#alpha)">
<rect x="0" y="0" width="32" height="32" style="fill:rgb(0%,0%,0%);fill-opacity:0.35;stroke:none;"/>
  </g>
</mask>
<clipPath id="clip1">
  <rect x="0" y="0" width="32" height="32"/>
</clipPath>
<g id="surface5" clip-path="url(#clip1)">
<path style=" stroke:none;fill-rule:nonzero;fill:rgb(33.333334%,34.117648%,32.549021%);fill-opacity:1;" d="M 16 4 C 9.371094 4 4 9.371094 4 16 C 4 22.628906 9.371094 28 16 28 C 22.628906 28 28 22.628906 28 16 C 28 9.371094 22.628906 4 16 4 Z M 16 4 "/>
</g>
</defs>
<g id="surface1">
<use xlink:href="#surface5" mask="url(#mask0)"/>
<path style=" stroke:none;fill-rule:nonzero;fill:rgb(33.333334%,34.117648%,32.549021%);fill-opacity:1;" d="M 16 2 C 8.269531 2 2 8.269531 2 16 C 2 23.730469 8.269531 30 16 30 C 23.730469 30 30 23.730469 30 16 C 30 8.269531 23.730469 2 16 2 Z M 16 6 C 21.570312 6 26 10.429688 26 16 C 26 21.570312 21.570312 26 16 26 C 10.429688 26 6 21.570312 6 16 C 6 10.429688 10.429688 6 16 6 Z M 16 10 C 12.6875 10 10 12.6875 10 16 C 10 19.3125 12.6875 22 16 22 C 19.3125 22 22 19.3125 22 16 C 22 12.6875 19.3125 10 16 10 Z M 16 14 C 17.152344 14 18 14.847656 18 16 C 18 17.152344 17.152344 18 16 18 C 14.847656 18 14 17.152344 14 16 C 14 14.847656 14.847656 14 16 14 Z M 16 14 "/>
</g>
</svg>
