<?xml version="1.0" encoding="UTF-8"?>
<svg xmlns="http://www.w3.org/2000/svg" xmlns:xlink="http://www.w3.org/1999/xlink" width="32px" height="32px" viewBox="0 0 32 32" version="1.1">
<defs>
<linearGradient id="linear0" gradientUnits="userSpaceOnUse" x1="67.661018" y1="128" x2="68.474579" y2="1.084746" gradientTransform="matrix(0.25,0,0,0.25,0,0)">
<stop offset="0" style="stop-color:rgb(100%,100%,100%);stop-opacity:1;"/>
<stop offset="0.464286" style="stop-color:rgb(100%,100%,100%);stop-opacity:1;"/>
<stop offset="0.78125" style="stop-color:rgb(94.509804%,94.509804%,94.509804%);stop-opacity:1;"/>
<stop offset="0.90625" style="stop-color:rgb(91.764706%,91.764706%,91.764706%);stop-opacity:1;"/>
<stop offset="1" style="stop-color:rgb(87.450981%,87.450981%,87.450981%);stop-opacity:1;"/>
</linearGradient>
</defs>
<g id="surface1">
<path style=" stroke:none;fill-rule:nonzero;fill:rgb(90.196079%,0.784314%,70.588237%);fill-opacity:1;" d="M 14 2.007812 C 12.898438 2.007812 12.007812 2.898438 12.007812 4 L 12.007812 12.007812 L 4 12.007812 C 2.898438 12.007812 2.007812 12.898438 2.007812 14 L 2.007812 18 C 2.007812 19.101562 2.898438 19.992188 4 19.992188 L 12.007812 19.992188 L 12.007812 28 C 12.007812 29.101562 12.898438 29.992188 14 29.992188 L 18 29.992188 C 19.101562 29.992188 19.992188 29.101562 19.992188 28 L 19.992188 19.992188 L 28 19.992188 C 29.101562 19.992188 29.992188 19.101562 29.992188 18 L 29.992188 14 C 29.992188 12.898438 29.101562 12.007812 28 12.007812 L 19.992188 12.007812 L 19.992188 4 C 19.992188 2.898438 19.101562 2.007812 18 2.007812 Z M 14 2.007812 "/>
<path style=" stroke:none;fill-rule:nonzero;fill:url(#linear0);" d="M 14 4 L 14 14 L 4 14 L 4 18 L 14 18 L 14 28 L 18 28 L 18 18 L 28 18 L 28 14 L 18 14 L 18 4 Z M 14 4 "/>
</g>
</svg>
