<?xml version="1.0" encoding="UTF-8"?>
<svg xmlns="http://www.w3.org/2000/svg" xmlns:xlink="http://www.w3.org/1999/xlink" width="32px" height="32px" viewBox="0 0 32 32" version="1.1">
<defs>
<linearGradient id="linear0" gradientUnits="userSpaceOnUse" x1="16.933332" y1="295.385162" x2="16.933332" y2="264.748138" gradientTransform="matrix(0.944882,0,0,0.944882,0.00000180222,-248.629904)">
<stop offset="0" style="stop-color:rgb(100%,100%,100%);stop-opacity:1;"/>
<stop offset="0.506438" style="stop-color:rgb(100%,100%,100%);stop-opacity:1;"/>
<stop offset="0.822961" style="stop-color:rgb(94.509804%,94.509804%,94.509804%);stop-opacity:1;"/>
<stop offset="0.90625" style="stop-color:rgb(91.764706%,91.764706%,91.764706%);stop-opacity:1;"/>
<stop offset="1" style="stop-color:rgb(87.450981%,87.450981%,87.450981%);stop-opacity:1;"/>
</linearGradient>
</defs>
<g id="surface1">
<path style=" stroke:none;fill-rule:nonzero;fill:rgb(90.196079%,0.784314%,70.588237%);fill-opacity:1;" d="M 29.996094 16 C 29.996094 23.730469 23.730469 29.996094 16 29.996094 C 8.269531 29.996094 2.003906 23.730469 2.003906 16 C 2.003906 8.269531 8.269531 2.003906 16 2.003906 C 23.730469 2.003906 29.996094 8.269531 29.996094 16 Z M 29.996094 16 "/>
<path style=" stroke:none;fill-rule:nonzero;fill:url(#linear0);" d="M 28 16 C 28 22.625 22.625 28 16 28 C 9.375 28 4 22.625 4 16 C 4 9.375 9.375 4 16 4 C 22.625 4 28 9.375 28 16 Z M 28 16 "/>
</g>
</svg>
