<?xml version="1.0" encoding="UTF-8"?>
<svg xmlns="http://www.w3.org/2000/svg" xmlns:xlink="http://www.w3.org/1999/xlink" width="32px" height="32px" viewBox="0 0 32 32" version="1.1">
<defs>
<linearGradient id="linear0" gradientUnits="userSpaceOnUse" x1="7.869126" y1="26" x2="165.982788" y2="28.474874" gradientTransform="matrix(0.25,0,0,0.25,0.0017079,-0.00170788)">
<stop offset="0" style="stop-color:rgb(100%,100%,100%);stop-opacity:1;"/>
<stop offset="0.397158" style="stop-color:rgb(100%,100%,100%);stop-opacity:1;"/>
<stop offset="0.799705" style="stop-color:rgb(94.509804%,94.509804%,94.509804%);stop-opacity:1;"/>
<stop offset="0.902344" style="stop-color:rgb(91.764706%,91.764706%,91.764706%);stop-opacity:1;"/>
<stop offset="1" style="stop-color:rgb(87.450981%,87.450981%,87.450981%);stop-opacity:1;"/>
</linearGradient>
<linearGradient id="linear1" gradientUnits="userSpaceOnUse" x1="120.345108" y1="55.898434" x2="66.313881" y2="55.655792" gradientTransform="matrix(0.25,0,0,0.25,0.001708,-0.00170789)">
<stop offset="0" style="stop-color:rgb(100%,100%,100%);stop-opacity:1;"/>
<stop offset="0.397158" style="stop-color:rgb(100%,100%,100%);stop-opacity:1;"/>
<stop offset="0.799705" style="stop-color:rgb(94.509804%,94.509804%,94.509804%);stop-opacity:1;"/>
<stop offset="0.902344" style="stop-color:rgb(91.764706%,91.764706%,91.764706%);stop-opacity:1;"/>
<stop offset="1" style="stop-color:rgb(87.450981%,87.450981%,87.450981%);stop-opacity:1;"/>
</linearGradient>
<linearGradient id="linear2" gradientUnits="userSpaceOnUse" x1="8" y1="83.612244" x2="99.324768" y2="85.117722" gradientTransform="matrix(0.25,0,0,0.25,0.00170792,-0.0017079)">
<stop offset="0" style="stop-color:rgb(100%,100%,100%);stop-opacity:1;"/>
<stop offset="0.397158" style="stop-color:rgb(100%,100%,100%);stop-opacity:1;"/>
<stop offset="0.799705" style="stop-color:rgb(94.509804%,94.509804%,94.509804%);stop-opacity:1;"/>
<stop offset="0.902344" style="stop-color:rgb(91.764706%,91.764706%,91.764706%);stop-opacity:1;"/>
<stop offset="1" style="stop-color:rgb(87.450981%,87.450981%,87.450981%);stop-opacity:1;"/>
</linearGradient>
</defs>
<g id="surface1">
<path style=" stroke:none;fill-rule:nonzero;fill:rgb(90.196079%,0.784314%,70.588237%);fill-opacity:1;" d="M 12.5 2 C 12.058594 2 11.632812 2.167969 11.308594 2.472656 L 2 10 L 2.054688 12.046875 C 2.054688 12.046875 4.027344 12.496094 5.011719 12.496094 L 19.5 12.496094 C 19.964844 12.496094 20.410156 12.3125 20.738281 11.984375 L 27.738281 4.984375 C 28.835938 3.882812 28.058594 2 26.5 2 Z M 12.5 2 "/>
<path style=" stroke:none;fill-rule:nonzero;fill:url(#linear0);" d="M 12.5 4 L 28 4 L 20 10 L 5.011719 10 Z M 12.5 4 "/>
<path style=" stroke:none;fill-rule:nonzero;fill:rgb(90.196079%,0.784314%,70.588237%);fill-opacity:1;" d="M 26.5 2 C 26.175781 2.007812 27.460938 3.214844 27.542969 3.871094 C 27.570312 4.117188 28.085938 3.914062 28 4 L 20.019531 11.265625 C 19.691406 11.59375 19.507812 12.035156 19.507812 12.5 L 19.507812 28.246094 C 19.507812 29.039062 19.148438 29.632812 19.773438 29.875 C 20.371094 30.105469 21.945312 30.015625 22.484375 29.480469 L 29.484375 22.480469 C 29.808594 22.152344 29.992188 21.710938 29.992188 21.246094 L 29.992188 5.5 L 30 2 Z M 26.5 2 "/>
<path style=" stroke:none;fill-rule:nonzero;fill:url(#linear1);" d="M 28 7 L 22 12 L 22 27 L 28 21 Z M 28 7 "/>
<path style=" stroke:none;fill-rule:nonzero;fill:rgb(90.196079%,0.784314%,70.588237%);fill-opacity:1;" d="M 3.753906 10.746094 C 2.785156 10.746094 2 10.03125 2 11 L 2 28.246094 C 2 29.214844 2.785156 30 3.753906 30 L 19.5 30 C 20.46875 30 21.253906 29.214844 21.253906 28.246094 L 21.253906 12.5 C 21.253906 11.53125 20.46875 10.746094 19.5 10.746094 Z M 3.753906 10.746094 "/>
<path style=" stroke:none;fill-rule:nonzero;fill:url(#linear2);" d="M 4 12 L 20 12 L 20 28 L 4 28 Z M 4 12 "/>
</g>
</svg>
