<?xml version="1.0" encoding="UTF-8"?>
<svg xmlns="http://www.w3.org/2000/svg" xmlns:xlink="http://www.w3.org/1999/xlink" width="32px" height="32px" viewBox="0 0 32 32" version="1.1">
<g id="surface1">
<path style=" stroke:none;fill-rule:nonzero;fill:rgb(33.333334%,34.117648%,32.549021%);fill-opacity:1;" d="M 4 0 C 1.789062 0 -0.0429688 1.792969 0 4 L 0 12 L 4 12 L 4 6 C 4 4.894531 4.894531 4 6 4 L 22 4 C 23.105469 4 24 4.894531 24 6 L 24 9.125 L 23.4375 8.5625 C 23.0625 8.1875 22.53125 8 22 8 L 20 8 L 20 10 C 20 10.53125 20.1875 11.0625 20.5625 11.4375 L 25.125 16 L 26.875 16 L 31.4375 11.4375 C 31.8125 11.0625 32 10.53125 32 10 L 32 8 L 30 8 C 29.46875 8 28.9375 8.1875 28.5625 8.5625 L 28 9.125 L 28 4 C 28 1.789062 26.210938 0 24 0 Z M 6.367188 6 C 6.144531 6.628906 6 7.296875 6 8 L 6 14 L 2 14 L 2 20 L 4 20 C 5.105469 20 6 20.894531 6 22 L 6 26 C 6 29.3125 8.6875 32 12 32 L 14 32 L 14 28 L 12 28 C 10.894531 28 10 27.105469 10 26 L 10 22 C 10 21.496094 9.9375 21.003906 9.816406 20.527344 C 9.453125 19.097656 8.566406 17.832031 7.308594 17 C 8.988281 15.890625 10 14.011719 10 12 L 10 8 C 10 6.894531 10.894531 6 12 6 Z M 21.539062 18 C 20.5625 19.085938 20 20.503906 20 22 L 20 26 C 20 27.105469 19.105469 28 18 28 L 16 28 L 16 32 L 18 32 C 21.3125 32 24 29.3125 24 26 L 24 22 C 24 20.894531 24.894531 20 26 20 L 28 20 L 28 18 Z M 21.539062 18 "/>
</g>
</svg>
