<?xml version="1.0" encoding="UTF-8"?>
<svg xmlns="http://www.w3.org/2000/svg" xmlns:xlink="http://www.w3.org/1999/xlink" width="32px" height="32px" viewBox="0 0 32 32" version="1.1">
<defs>
<filter id="alpha" filterUnits="objectBoundingBox" x="0%" y="0%" width="100%" height="100%">
  <feColorMatrix type="matrix" in="SourceGraphic" values="0 0 0 0 1 0 0 0 0 1 0 0 0 0 1 0 0 0 1 0"/>
</filter>
<mask id="mask0">
  <g filter="url(#alpha)">
<rect x="0" y="0" width="32" height="32" style="fill:rgb(0%,0%,0%);fill-opacity:0.35;stroke:none;"/>
  </g>
</mask>
<clipPath id="clip1">
  <rect x="0" y="0" width="32" height="32"/>
</clipPath>
<g id="surface5" clip-path="url(#clip1)">
<path style=" stroke:none;fill-rule:nonzero;fill:rgb(33.333334%,34.117648%,32.549021%);fill-opacity:1;" d="M 14 6.199219 C 9.34375 7.152344 6 11.246094 6 16 C 6 21.523438 10.476562 26 16 26 C 20.753906 26 24.847656 22.65625 25.800781 18 L 14 18 Z M 14 6.199219 "/>
</g>
</defs>
<g id="surface1">
<use xlink:href="#surface5" mask="url(#mask0)"/>
<path style=" stroke:none;fill-rule:nonzero;fill:rgb(33.333334%,34.117648%,32.549021%);fill-opacity:1;" d="M 16 2 C 8.269531 2 2 8.269531 2 16 C 2 23.730469 8.269531 30 16 30 C 23.730469 30 30 23.730469 30 16 C 29.980469 15.328125 29.914062 14.660156 29.800781 14 L 18 14 L 18 2.15625 C 17.339844 2.054688 16.667969 2.003906 16 2 Z M 14 6.199219 L 14 18 L 25.800781 18 C 24.847656 22.65625 20.753906 26 16 26 C 10.476562 26 6 21.523438 6 16 C 6 11.246094 9.34375 7.152344 14 6.199219 Z M 14 6.199219 "/>
</g>
</svg>
