<?xml version="1.0" encoding="UTF-8"?>
<svg xmlns="http://www.w3.org/2000/svg" xmlns:xlink="http://www.w3.org/1999/xlink" width="32px" height="32px" viewBox="0 0 32 32" version="1.1">
<g id="surface1">
<path style=" stroke:none;fill-rule:nonzero;fill:rgb(33.333334%,34.117648%,32.549021%);fill-opacity:1;" d="M 18 0 C 15.789062 0 14 1.789062 14 4 L 14 16 L 18 16 L 18 6 C 18 4.894531 18.894531 4 20 4 L 26 4 C 27.105469 4 28 4.894531 28 6 L 28 9.125 L 27.4375 8.5625 C 27.0625 8.1875 26.53125 8 26 8 L 24 8 L 24 10 C 24 10.53125 24.1875 11.0625 24.5625 11.4375 L 29.125 16 L 30.875 16 L 32 14.875 L 32 4 C 32 1.789062 30.210938 0 28 0 Z M 10 2 C 6.6875 2 4 4.6875 4 8 L 4 12 C 4 13.105469 3.105469 14 2 14 L 0 14 L 0 20 L 2 20 C 3.105469 20 4 20.894531 4 22 L 4 26 C 4 29.3125 6.6875 32 10 32 L 12 32 L 12 28 L 10 28 C 8.894531 28 8 27.105469 8 26 L 8 22 C 8 21.496094 7.9375 21.003906 7.816406 20.527344 C 7.453125 19.097656 6.566406 17.832031 5.308594 17 C 6.988281 15.890625 8 14.011719 8 12 L 8 8 C 8 6.894531 8.894531 6 10 6 L 12 6 L 12 2 Z M 20 8 L 20 12 C 20 14.011719 21.011719 15.890625 22.691406 17 C 21.011719 18.109375 20 19.988281 20 22 L 20 26 C 20 27.105469 19.105469 28 18 28 L 16 28 L 16 32 L 18 32 C 21.3125 32 24 29.3125 24 26 L 24 22 C 24 20.894531 24.894531 20 26 20 L 28 20 L 28 17.703125 L 23.148438 12.851562 C 22.339844 12.042969 22 11 22 10 L 22 8 Z M 20 8 "/>
</g>
</svg>
