<?xml version="1.0" encoding="UTF-8"?>
<svg xmlns="http://www.w3.org/2000/svg" xmlns:xlink="http://www.w3.org/1999/xlink" width="32px" height="32px" viewBox="0 0 32 32" version="1.1">
<defs>
<filter id="alpha" filterUnits="objectBoundingBox" x="0%" y="0%" width="100%" height="100%">
  <feColorMatrix type="matrix" in="SourceGraphic" values="0 0 0 0 1 0 0 0 0 1 0 0 0 0 1 0 0 0 1 0"/>
</filter>
<mask id="mask0">
  <g filter="url(#alpha)">
<rect x="0" y="0" width="32" height="32" style="fill:rgb(0%,0%,0%);fill-opacity:0.35;stroke:none;"/>
  </g>
</mask>
<clipPath id="clip1">
  <rect x="0" y="0" width="32" height="32"/>
</clipPath>
<g id="surface5" clip-path="url(#clip1)">
<path style=" stroke:none;fill-rule:nonzero;fill:rgb(33.333334%,34.117648%,32.549021%);fill-opacity:1;" d="M 8 10 C 6.890625 10 6 10.890625 6 12 L 6 20 C 6 21.109375 6.890625 22 8 22 L 24 22 C 25.109375 22 26 21.109375 26 20 L 26 12 C 26 10.890625 25.109375 10 24 10 Z M 8 10 "/>
</g>
</defs>
<g id="surface1">
<path style=" stroke:none;fill-rule:nonzero;fill:rgb(33.333334%,34.117648%,32.549021%);fill-opacity:1;" d="M 8 6 C 4.675781 6 2 8.675781 2 12 L 2 20 C 2 23.324219 4.675781 26 8 26 L 24 26 C 27.324219 26 30 23.324219 30 20 L 30 12 C 30 8.675781 27.324219 6 24 6 Z M 8 10 L 24 10 C 25.109375 10 26 10.890625 26 12 L 26 20 C 26 21.109375 25.109375 22 24 22 L 8 22 C 6.890625 22 6 21.109375 6 20 L 6 12 C 6 10.890625 6.890625 10 8 10 Z M 8 10 "/>
<use xlink:href="#surface5" mask="url(#mask0)"/>
</g>
</svg>
