<?xml version="1.0" encoding="UTF-8"?>
<svg xmlns="http://www.w3.org/2000/svg" xmlns:xlink="http://www.w3.org/1999/xlink" width="32px" height="32px" viewBox="0 0 32 32" version="1.1">
<defs>
<filter id="alpha" filterUnits="objectBoundingBox" x="0%" y="0%" width="100%" height="100%">
  <feColorMatrix type="matrix" in="SourceGraphic" values="0 0 0 0 1 0 0 0 0 1 0 0 0 0 1 0 0 0 1 0"/>
</filter>
<mask id="mask0">
  <g filter="url(#alpha)">
<rect x="0" y="0" width="32" height="32" style="fill:rgb(0%,0%,0%);fill-opacity:0.35;stroke:none;"/>
  </g>
</mask>
<clipPath id="clip1">
  <rect x="0" y="0" width="32" height="32"/>
</clipPath>
<g id="surface5" clip-path="url(#clip1)">
<path style=" stroke:none;fill-rule:nonzero;fill:rgb(33.333334%,34.117648%,32.549021%);fill-opacity:1;" d="M 8 6 C 6.890625 6 6 6.890625 6 8 L 6 24 C 6 25.109375 6.890625 26 8 26 L 24 26 C 25.109375 26 26 25.109375 26 24 L 26 8 C 26 6.890625 25.109375 6 24 6 Z M 8 6 "/>
</g>
</defs>
<g id="surface1">
<path style=" stroke:none;fill-rule:nonzero;fill:rgb(33.333334%,34.117648%,32.549021%);fill-opacity:1;" d="M 8 2 C 4.675781 2 2 4.675781 2 8 L 2 24 C 2 27.324219 4.675781 30 8 30 L 24 30 C 27.324219 30 30 27.324219 30 24 L 30 8 C 30 4.675781 27.324219 2 24 2 Z M 8 6 L 24 6 C 25.109375 6 26 6.890625 26 8 L 26 24 C 26 25.109375 25.109375 26 24 26 L 8 26 C 6.890625 26 6 25.109375 6 24 L 6 8 C 6 6.890625 6.890625 6 8 6 Z M 8 6 "/>
<use xlink:href="#surface5" mask="url(#mask0)"/>
</g>
</svg>
