<?xml version="1.0" encoding="UTF-8"?>
<svg xmlns="http://www.w3.org/2000/svg" xmlns:xlink="http://www.w3.org/1999/xlink" width="32px" height="32px" viewBox="0 0 32 32" version="1.1">
<defs>
<filter id="alpha" filterUnits="objectBoundingBox" x="0%" y="0%" width="100%" height="100%">
  <feColorMatrix type="matrix" in="SourceGraphic" values="0 0 0 0 1 0 0 0 0 1 0 0 0 0 1 0 0 0 1 0"/>
</filter>
<mask id="mask0">
  <g filter="url(#alpha)">
<rect x="0" y="0" width="32" height="32" style="fill:rgb(0%,0%,0%);fill-opacity:0.35;stroke:none;"/>
  </g>
</mask>
<clipPath id="clip1">
  <rect x="0" y="0" width="32" height="32"/>
</clipPath>
<g id="surface5" clip-path="url(#clip1)">
<path style=" stroke:none;fill-rule:nonzero;fill:rgb(33.333334%,34.117648%,32.549021%);fill-opacity:1;" d="M 8 22 L 4 28 L 24 28 L 28 22 Z M 8 22 "/>
</g>
</defs>
<g id="surface1">
<path style=" stroke:none;fill-rule:nonzero;fill:rgb(33.333334%,34.117648%,32.549021%);fill-opacity:1;" d="M 8 2 L 2 8 L 24 8 L 30 2 Z M 16 10 L 10 14 L 14 14 L 14 20 L 18 20 L 18 14 L 22 14 Z M 0 18 L 0 20 L 2 20 L 2 18 Z M 4 18 L 4 20 L 6 20 L 6 18 Z M 8 18 L 8 20 L 10 20 L 10 18 Z M 22 18 L 22 20 L 24 20 L 24 18 Z M 26 18 L 26 20 L 28 20 L 28 18 Z M 30 18 L 30 20 L 32 20 L 32 18 Z M 0 22 L 0 24 L 2 24 L 2 22 Z M 30 22 L 30 24 L 32 24 L 32 22 Z M 0 26 L 0 28 L 2 28 L 2 26 Z M 30 26 L 30 28 L 32 28 L 32 26 Z M 0 30 L 0 32 L 2 32 L 2 30 Z M 4 30 L 4 32 L 6 32 L 6 30 Z M 8 30 L 8 32 L 10 32 L 10 30 Z M 12 30 L 12 32 L 14 32 L 14 30 Z M 18 30 L 18 32 L 20 32 L 20 30 Z M 22 30 L 22 32 L 24 32 L 24 30 Z M 26 30 L 26 32 L 28 32 L 28 30 Z M 30 30 L 30 32 L 32 32 L 32 30 Z M 30 30 "/>
<use xlink:href="#surface5" mask="url(#mask0)"/>
</g>
</svg>
