<?xml version="1.0" encoding="UTF-8"?>
<svg xmlns="http://www.w3.org/2000/svg" xmlns:xlink="http://www.w3.org/1999/xlink" width="32px" height="32px" viewBox="0 0 32 32" version="1.1">
<g id="surface1">
<path style=" stroke:none;fill-rule:nonzero;fill:rgb(33.333334%,34.117648%,32.549021%);fill-opacity:1;" d="M 2 2 L 2 10 L 4 10 L 4 22 L 2 22 L 2 30 L 10 30 L 10 26.199219 L 22.480469 20 L 30 20 L 30 12 L 22.480469 12 L 10 5.765625 L 10 2 Z M 4 4 L 8 4 L 8 8 L 4 8 Z M 8 10 L 9.539062 10 L 21.539062 16 L 9.539062 22 L 8 22 Z M 24 14 L 28 14 L 28 18 L 24 18 Z M 4 24 L 8 24 L 8 28 L 4 28 Z M 4 24 "/>
</g>
</svg>
