<?xml version="1.0" encoding="UTF-8"?>
<svg xmlns="http://www.w3.org/2000/svg" xmlns:xlink="http://www.w3.org/1999/xlink" width="32px" height="32px" viewBox="0 0 32 32" version="1.1">
<defs>
<filter id="alpha" filterUnits="objectBoundingBox" x="0%" y="0%" width="100%" height="100%">
  <feColorMatrix type="matrix" in="SourceGraphic" values="0 0 0 0 1 0 0 0 0 1 0 0 0 0 1 0 0 0 1 0"/>
</filter>
<mask id="mask0">
  <g filter="url(#alpha)">
<rect x="0" y="0" width="32" height="32" style="fill:rgb(0%,0%,0%);fill-opacity:0.35;stroke:none;"/>
  </g>
</mask>
<clipPath id="clip1">
  <rect x="0" y="0" width="32" height="32"/>
</clipPath>
<g id="surface5" clip-path="url(#clip1)">
<path style=" stroke:none;fill-rule:nonzero;fill:rgb(33.333334%,34.117648%,32.549021%);fill-opacity:1;" d="M 2 8 C 2.015625 15.941406 7.125 22.664062 14 23.800781 L 14 20 L 16 20 C 10.476562 20 6 14.628906 6 8 Z M 16 20 L 18 20 L 18 23.800781 C 24.875 22.664062 29.984375 15.941406 30 8 L 26 8 C 26 14.628906 21.523438 20 16 20 Z M 16 20 "/>
</g>
</defs>
<g id="surface1">
<path style=" stroke:none;fill-rule:nonzero;fill:rgb(33.333334%,34.117648%,32.549021%);fill-opacity:1;" d="M 4 18 C 1.789062 18 0 19.789062 0 22 C 0 24.210938 1.789062 26 4 26 C 5.425781 26 6.746094 25.238281 7.460938 24 L 12 24 L 12 26 L 20 26 L 20 24 L 24.539062 24 C 25.253906 25.238281 26.574219 26 28 26 C 30.210938 26 32 24.210938 32 22 C 32 19.789062 30.210938 18 28 18 C 26.574219 18 25.253906 18.761719 24.539062 20 L 20 20 L 20 18 L 12 18 L 12 20 L 7.460938 20 C 6.746094 18.761719 5.425781 18 4 18 Z M 4 20 C 5.105469 20 6 20.894531 6 22 C 6 23.105469 5.105469 24 4 24 C 2.894531 24 2 23.105469 2 22 C 2 20.894531 2.894531 20 4 20 Z M 14 20 L 18 20 L 18 24 L 14 24 Z M 28 20 C 29.105469 20 30 20.894531 30 22 C 30 23.105469 29.105469 24 28 24 C 26.894531 24 26 23.105469 26 22 C 26 20.894531 26.894531 20 28 20 Z M 28 20 "/>
<use xlink:href="#surface5" mask="url(#mask0)"/>
</g>
</svg>
