<?xml version="1.0" encoding="UTF-8"?>
<svg xmlns="http://www.w3.org/2000/svg" xmlns:xlink="http://www.w3.org/1999/xlink" width="32px" height="32px" viewBox="0 0 32 32" version="1.1">
<g id="surface1">
<path style=" stroke:none;fill-rule:nonzero;fill:rgb(33.333334%,34.117648%,32.549021%);fill-opacity:1;" d="M 4 2 C 1.800781 2 0 3.800781 0 6 C 0 8.199219 1.800781 10 4 10 C 5.40625 10 6.695312 9.199219 7.398438 8 L 12.800781 8 C 6 12.398438 2 20 2 28 L 2 30 L 6 30 L 6 28 C 6.003906 18.226562 13.070312 9.886719 22.710938 8.277344 C 23.457031 9.355469 24.6875 10 26 10 C 28.199219 10 30 8.199219 30 6 C 30 3.800781 28.199219 2 26 2 C 24.601562 2 23.304688 2.800781 22.601562 4 L 7.398438 4 C 6.695312 2.78125 5.40625 2.023438 4 2 Z M 4 4 C 5.105469 4 6 4.894531 6 6 C 6 7.105469 5.105469 8 4 8 C 2.894531 8 2 7.105469 2 6 C 2 4.894531 2.894531 4 4 4 Z M 26 4 C 27.105469 4 28 4.894531 28 6 C 28 7.105469 27.105469 8 26 8 C 24.894531 8 24 7.105469 24 6 L 24 5.800781 C 24.101562 4.773438 24.96875 3.996094 26 4 Z M 20 20 L 20 22 L 23 25 L 20 28 L 20 30 L 22 30 L 25 27 L 28 30 L 30 30 L 30 28 L 27 25 L 30 22 L 30 20 L 28 20 L 25 23 L 22 20 Z M 20 20 "/>
</g>
</svg>
