<?xml version="1.0" encoding="UTF-8"?>
<svg xmlns="http://www.w3.org/2000/svg" xmlns:xlink="http://www.w3.org/1999/xlink" width="32px" height="32px" viewBox="0 0 32 32" version="1.1">
<defs>
<filter id="alpha" filterUnits="objectBoundingBox" x="0%" y="0%" width="100%" height="100%">
  <feColorMatrix type="matrix" in="SourceGraphic" values="0 0 0 0 1 0 0 0 0 1 0 0 0 0 1 0 0 0 1 0"/>
</filter>
<mask id="mask0">
  <g filter="url(#alpha)">
<rect x="0" y="0" width="32" height="32" style="fill:rgb(0%,0%,0%);fill-opacity:0.35;stroke:none;"/>
  </g>
</mask>
<clipPath id="clip1">
  <rect x="0" y="0" width="32" height="32"/>
</clipPath>
<g id="surface5" clip-path="url(#clip1)">
<path style=" stroke:none;fill-rule:nonzero;fill:rgb(33.333334%,34.117648%,32.549021%);fill-opacity:1;" d="M 5.445312 18 L 2 30 L 30 30 L 30 6 L 27.800781 8.601562 L 22.800781 7.800781 L 20 8 L 14.878906 8 Z M 5.445312 18 "/>
</g>
</defs>
<g id="surface1">
<use xlink:href="#surface5" mask="url(#mask0)"/>
<path style=" stroke:none;fill-rule:nonzero;fill:rgb(33.333334%,34.117648%,32.549021%);fill-opacity:1;" d="M 4 2 C 1.789062 2 0 3.789062 0 6 C 0 8.210938 1.789062 10 4 10 C 5.40625 9.976562 6.695312 9.21875 7.398438 8 L 12.800781 8 C 6.070312 12.429688 2.015625 19.941406 2 28 L 2 30 L 6 30 L 6 28 C 5.964844 18.195312 13.046875 9.808594 22.71875 8.199219 C 23.449219 9.304688 24.675781 9.980469 26 10 C 28.210938 10 30 8.210938 30 6 C 30 3.789062 28.210938 2 26 2 C 24.59375 2.023438 23.304688 2.78125 22.601562 4 L 7.398438 4 C 6.695312 2.78125 5.40625 2.023438 4 2 Z M 4 4 C 5.105469 4 6 4.894531 6 6 C 6 7.105469 5.105469 8 4 8 C 2.894531 8 2 7.105469 2 6 C 2 4.894531 2.894531 4 4 4 Z M 26 4 C 27.105469 4 28 4.894531 28 6 C 28 7.105469 27.105469 8 26 8 C 24.894531 8 24 7.105469 24 6 C 23.996094 5.933594 23.996094 5.867188 24 5.800781 C 24.101562 4.773438 24.96875 3.996094 26 4 Z M 26 4 "/>
</g>
</svg>
