<?xml version="1.0" encoding="UTF-8"?>
<svg xmlns="http://www.w3.org/2000/svg" xmlns:xlink="http://www.w3.org/1999/xlink" width="32px" height="32px" viewBox="0 0 32 32" version="1.1">
<g id="surface1">
<path style=" stroke:none;fill-rule:nonzero;fill:rgb(63.921571%,24.313726%,1.176471%);fill-opacity:1;" d="M 2 22 L 2 30 L 10 30 L 10 22 Z M 2 22 "/>
<path style=" stroke:none;fill-rule:nonzero;fill:rgb(33.333334%,34.117648%,32.549021%);fill-opacity:1;" d="M 18 0 L 12 6 L 20 14 L 32 2 L 32 0 Z M 10 8 C 8.5625 10.617188 7.839844 13.277344 8 16 L 4 20 L 8 20 L 10 18 C 13.359375 17.984375 15.703125 17.015625 18 16 Z M 10 8 "/>
<path style=" stroke:none;fill-rule:nonzero;fill:rgb(9.411765%,63.921571%,1.176471%);fill-opacity:1;" d="M 12 22 L 12 30 L 20 30 L 20 22 Z M 12 22 "/>
<path style=" stroke:none;fill-rule:nonzero;fill:rgb(1.176471%,41.176471%,63.921571%);fill-opacity:1;" d="M 22 22 L 22 30 L 30 30 L 30 22 Z M 22 22 "/>
</g>
</svg>
