<?xml version="1.0" encoding="UTF-8"?>
<svg xmlns="http://www.w3.org/2000/svg" xmlns:xlink="http://www.w3.org/1999/xlink" width="32px" height="32px" viewBox="0 0 32 32" version="1.1">
<g id="surface1">
<path style=" stroke:none;fill-rule:nonzero;fill:rgb(33.333334%,34.117648%,32.549021%);fill-opacity:1;" d="M 2 2 L 2 8 L 30 8 L 30 2 Z M 2 14 L 2 18 L 30 18 L 30 14 Z M 2 22 L 2 24 L 30 24 L 30 22 Z M 2 28 L 2 30 L 6 30 L 6 28 Z M 8 28 L 8 30 L 12 30 L 12 28 Z M 14 28 L 14 30 L 18 30 L 18 28 Z M 20 28 L 20 30 L 24 30 L 24 28 Z M 26 28 L 26 30 L 30 30 L 30 28 Z M 26 28 "/>
</g>
</svg>
