<?xml version="1.0" encoding="UTF-8"?>
<svg xmlns="http://www.w3.org/2000/svg" xmlns:xlink="http://www.w3.org/1999/xlink" width="32px" height="32px" viewBox="0 0 32 32" version="1.1">
<defs>
<filter id="alpha" filterUnits="objectBoundingBox" x="0%" y="0%" width="100%" height="100%">
  <feColorMatrix type="matrix" in="SourceGraphic" values="0 0 0 0 1 0 0 0 0 1 0 0 0 0 1 0 0 0 1 0"/>
</filter>
<mask id="mask0">
  <g filter="url(#alpha)">
<rect x="0" y="0" width="32" height="32" style="fill:rgb(0%,0%,0%);fill-opacity:0.35;stroke:none;"/>
  </g>
</mask>
<clipPath id="clip1">
  <rect x="0" y="0" width="32" height="32"/>
</clipPath>
<g id="surface5" clip-path="url(#clip1)">
<path style=" stroke:none;fill-rule:nonzero;fill:rgb(33.333334%,34.117648%,32.549021%);fill-opacity:1;" d="M 16 4 C 22.628906 4 28 7.582031 28 12 C 28 16.417969 22.628906 20 16 20 L 14.53125 19.929688 L 8 26.585938 L 8 17.949219 C 5.460938 16.433594 4.003906 14.273438 4 12 C 4 7.582031 9.371094 4 16 4 Z M 16 4 "/>
</g>
</defs>
<g id="surface1">
<use xlink:href="#surface5" mask="url(#mask0)"/>
<path style=" stroke:none;fill-rule:nonzero;fill:rgb(33.333334%,34.117648%,32.549021%);fill-opacity:1;" d="M 16 2 C 12.324219 2 8.96875 2.972656 6.40625 4.679688 C 3.800781 6.398438 2 9 2 12 C 2.007812 14.699219 3.675781 17.007812 6 18.761719 L 6 31.480469 L 15.332031 21.96875 L 15.953125 22 L 16 22 C 19.679688 22 23.03125 21.027344 25.59375 19.320312 C 28.15625 17.613281 30 15.019531 30 12 C 30 8.980469 28.15625 6.398438 25.59375 4.679688 C 23.03125 2.972656 19.675781 2 16 2 Z M 16 6 C 18.953125 6 21.59375 6.800781 23.375 8 C 25.15625 9.195312 26 10.601562 26 12 C 26 13.398438 25.15625 14.804688 23.375 16 C 21.601562 17.179688 18.957031 18 16.003906 18 L 13.730469 17.890625 L 10 21.691406 L 10 16.8125 L 9.023438 16.230469 C 6.917969 14.972656 6.003906 13.421875 6 12 C 6 10.601562 6.839844 9.195312 8.625 8 C 10.398438 6.800781 13.046875 6 16 6 Z M 16 6 "/>
</g>
</svg>
