<?xml version="1.0" encoding="UTF-8"?>
<svg xmlns="http://www.w3.org/2000/svg" xmlns:xlink="http://www.w3.org/1999/xlink" width="32px" height="32px" viewBox="0 0 32 32" version="1.1">
<defs>
<filter id="alpha" filterUnits="objectBoundingBox" x="0%" y="0%" width="100%" height="100%">
  <feColorMatrix type="matrix" in="SourceGraphic" values="0 0 0 0 1 0 0 0 0 1 0 0 0 0 1 0 0 0 1 0"/>
</filter>
<mask id="mask0">
  <g filter="url(#alpha)">
<rect x="0" y="0" width="32" height="32" style="fill:rgb(0%,0%,0%);fill-opacity:0.35;stroke:none;"/>
  </g>
</mask>
<clipPath id="clip1">
  <rect x="0" y="0" width="32" height="32"/>
</clipPath>
<g id="surface5" clip-path="url(#clip1)">
<path style=" stroke:none;fill-rule:nonzero;fill:rgb(33.333334%,34.117648%,32.549021%);fill-opacity:1;" d="M 21 4 C 19.289062 4.027344 17.0625 5.105469 16 6 C 13.226562 7.726562 9.097656 5.960938 8 6 C 7.113281 6 6 6.476562 6.015625 8 C 6 9.34375 4 9.429688 4 11 C 4 14.867188 7.582031 18 12 18 C 13.113281 17.996094 14.214844 17.789062 15.230469 17.394531 L 17.035156 16.4375 L 18.796875 17.585938 C 19.480469 17.855469 20.234375 18 21 18 C 23.761719 18 26 16.210938 26 14 C 26 12.894531 26.894531 12 28 12 C 29.105469 12 30 11.105469 30 10 C 30 8.894531 29.105469 8 28 8 C 26.894531 8 26 7.105469 26 6 C 25.53125 4.621094 22.597656 3.894531 21 4 Z M 21 4 "/>
</g>
</defs>
<g id="surface1">
<path style=" stroke:none;fill-rule:nonzero;fill:rgb(33.333334%,34.117648%,32.549021%);fill-opacity:1;" d="M 21 2 C 19.078125 2 17.308594 2.582031 16.003906 3.542969 C 15.535156 3.835938 15.097656 4.148438 14.714844 4.46875 L 14.941406 4.300781 C 14.191406 4.765625 12.972656 4.84375 11.660156 4.652344 C 11.003906 4.558594 10.355469 4.40625 9.765625 4.273438 C 9.09375 4.09375 8.582031 4.082031 8 4 C 5.789062 4 4.015625 5.207031 4.015625 7.417969 C 4.015625 7.535156 3.945312 7.652344 3.851562 7.773438 C 3.417969 8.054688 3.019531 8.5625 2.714844 8.855469 C 2.371094 9.304688 2.273438 9.839844 2.074219 10.320312 C 1.882812 11.175781 2.101562 12.015625 2.207031 12.820312 C 2.453125 14.078125 3.085938 15.027344 3.726562 16.054688 C 3.90625 16.292969 4.132812 16.496094 4.335938 16.71875 C 5.984375 18.472656 7.925781 19.257812 10.011719 19.820312 C 10.65625 19.9375 11.324219 20 12 20 C 12.003906 20 12.007812 20 12.011719 20 C 13.777344 20.027344 15.324219 19.5 16.890625 18.847656 C 18.128906 19.65625 19.574219 19.855469 20.984375 20 C 20.988281 20 20.996094 20 21 20 C 21.460938 20 21.90625 19.960938 22.34375 19.886719 C 22.347656 19.886719 22.351562 19.882812 22.355469 19.882812 C 23.273438 19.746094 24.066406 19.351562 24.875 18.996094 C 24.960938 18.949219 25.03125 18.886719 25.113281 18.835938 C 26.46875 18 27.5 16.761719 27.855469 15.222656 C 27.949219 14.828125 28 14.417969 28 14 C 28.273438 14 28.542969 13.972656 28.804688 13.917969 C 30.367188 13.597656 31.597656 12.367188 31.917969 10.804688 L 31.917969 10.800781 C 31.972656 10.542969 32 10.273438 32 10 C 32 9.726562 31.972656 9.457031 31.917969 9.195312 C 31.597656 7.632812 30.367188 6.402344 28.804688 6.082031 L 28.800781 6.082031 C 28.542969 6.027344 28.273438 6 28 6 C 27.804688 4.097656 25.941406 3.226562 24.574219 2.550781 C 23.835938 2.296875 23.097656 2.15625 22.371094 2.078125 C 21.90625 2.007812 21.445312 1.96875 21 2 Z M 23.273438 6.332031 C 23.730469 6.488281 23.976562 6.710938 24.078125 6.769531 C 24.441406 8.597656 26.078125 10 28 10 C 25.816406 10 24 11.816406 24 14 C 24 14.855469 22.898438 16 21.003906 16 C 20.523438 16 20.058594 15.898438 19.640625 15.746094 L 17.140625 14.117188 L 14.460938 15.539062 C 13.691406 15.832031 12.855469 15.996094 12 16 C 8.59375 16 6.15625 13.703125 6.0625 11.132812 C 6.449219 10.863281 6.902344 10.394531 7.214844 10.117188 C 7.613281 9.652344 8.007812 8.855469 8.015625 8.023438 L 8.015625 8.019531 C 8.097656 8.042969 8.46875 8.082031 8.878906 8.175781 C 9.457031 8.308594 10.222656 8.484375 11.082031 8.609375 C 12.804688 8.859375 15.035156 8.960938 17.058594 7.699219 C 17.140625 7.65625 17.210938 7.585938 17.285156 7.53125 C 19.664062 5.988281 20.886719 5.886719 23.273438 6.332031 Z M 8.015625 8 L 8.039062 8 C 8.105469 7.996094 8.039062 8 8.015625 8.011719 Z M 11 22 C 8.238281 22 6 23.34375 6 25 C 6 26.65625 8.238281 28 11 28 C 13.761719 28 16 26.65625 16 25 C 16 23.34375 13.761719 22 11 22 Z M 3 28 C 1.34375 28 0 28.894531 0 30 C 0 31.105469 1.34375 32 3 32 C 4.65625 32 6 31.105469 6 30 C 6 28.894531 4.65625 28 3 28 Z M 3 28 "/>
<use xlink:href="#surface5" mask="url(#mask0)"/>
</g>
</svg>
