<?xml version="1.0" encoding="UTF-8"?>
<svg xmlns="http://www.w3.org/2000/svg" xmlns:xlink="http://www.w3.org/1999/xlink" width="32px" height="32px" viewBox="0 0 32 32" version="1.1">
<defs>
<filter id="alpha" filterUnits="objectBoundingBox" x="0%" y="0%" width="100%" height="100%">
  <feColorMatrix type="matrix" in="SourceGraphic" values="0 0 0 0 1 0 0 0 0 1 0 0 0 0 1 0 0 0 1 0"/>
</filter>
<mask id="mask0">
  <g filter="url(#alpha)">
<rect x="0" y="0" width="32" height="32" style="fill:rgb(0%,0%,0%);fill-opacity:0.35;stroke:none;"/>
  </g>
</mask>
<clipPath id="clip1">
  <rect x="0" y="0" width="32" height="32"/>
</clipPath>
<g id="surface5" clip-path="url(#clip1)">
<path style=" stroke:none;fill-rule:nonzero;fill:rgb(33.333334%,34.117648%,32.549021%);fill-opacity:1;" d="M 2 2 C 2 9.050781 7.21875 16.527344 14 17.792969 L 14 14 L 16 14 C 10.476562 14 6 7.523438 6 2 Z M 18 14.207031 L 18 18 L 16 18 C 21.523438 18 26 24.476562 26 30 L 30 30 C 30 22.949219 24.78125 15.472656 18 14.207031 Z M 18 14.207031 "/>
</g>
</defs>
<g id="surface1">
<use xlink:href="#surface5" mask="url(#mask0)"/>
<path style=" stroke:none;fill-rule:nonzero;fill:rgb(33.333334%,34.117648%,32.549021%);fill-opacity:1;" d="M 12 12 L 12 20 L 20 20 L 20 12 Z M 0 16 L 0 20 C 0 24.417969 3.582031 28 8 28 L 9.125 28 L 8.5625 28.5625 C 8.1875 28.9375 8 29.46875 8 30 L 8 32 L 10 32 C 10.53125 32 11.058594 31.800781 11.4375 31.4375 L 16 26.875 L 16 25.125 L 11.4375 20.5625 C 11.0625 20.199219 10.53125 20 10 20 L 8 20 L 8 22 C 8 22.53125 8.1875 23.0625 8.5625 23.4375 L 9.125 24 L 8 24 C 5.789062 24 4 22.210938 4 20 L 4 16 Z M 14 14 L 18 14 L 18 18 L 14 18 Z M 14 14 "/>
</g>
</svg>
