<?xml version="1.0" encoding="UTF-8"?>
<svg xmlns="http://www.w3.org/2000/svg" xmlns:xlink="http://www.w3.org/1999/xlink" width="32px" height="32px" viewBox="0 0 32 32" version="1.1">
<g id="surface1">
<path style=" stroke:none;fill-rule:nonzero;fill:rgb(33.333334%,34.117648%,32.549021%);fill-opacity:1;" d="M 0 4 L 0 8 L 32 8 L 32 4 Z M 4 10 L 4 20 L 6 20 L 6 16 L 8 16 L 10 20 L 12 20 L 12 18.847656 L 9.878906 16 C 11.1875 15.601562 12 14.367188 12 13 C 12 11.34375 10.65625 10 9 10 Z M 14 10 L 14 20 L 20 20 L 20 18 L 16 18 L 16 16 L 20 16 L 20 14 L 16 14 L 16 12 L 20 12 L 20 10 Z M 26 10 C 23.789062 10 22 11.789062 22 14 L 22 16 C 22 18.210938 23.789062 20 26 20 L 28 20 L 28 18 L 26 18 C 24.894531 18 24 17.105469 24 16 L 24 14 C 24 12.894531 24.894531 12 26 12 L 28 12 L 28 10 Z M 6 12 L 9 12 C 9.601562 12.121094 10 12.527344 10 13 C 10 13.480469 9.601562 13.902344 9 14 L 6 14 Z M 0 22 L 0 26 L 32 26 L 32 22 Z M 0 22 "/>
</g>
</svg>
