<?xml version="1.0" encoding="UTF-8"?>
<svg xmlns="http://www.w3.org/2000/svg" xmlns:xlink="http://www.w3.org/1999/xlink" width="32px" height="32px" viewBox="0 0 32 32" version="1.1">
<g id="surface1">
<path style=" stroke:none;fill-rule:nonzero;fill:rgb(33.333334%,34.117648%,32.549021%);fill-opacity:1;" d="M 24 0 L 24 5.125 L 23.4375 4.5625 C 23.0625 4.1875 22.53125 4 22 4 L 20 4 L 20 6 C 20 6.53125 20.1875 7.0625 20.5625 7.4375 L 25.125 12 L 26.875 12 L 31.4375 7.4375 C 31.8125 7.0625 32 6.53125 32 6 L 32 4 L 30 4 C 29.46875 4 28.9375 4.1875 28.5625 4.5625 L 28 5.125 L 28 0 Z M 16 12 L 16 26 L 22 26 C 24.210938 26 26 24.210938 26 22 C 26 19.789062 24.210938 18 22 18 L 18 18 L 18 12 Z M 4 16 L 4 18 L 10 18 L 10 20 L 5 20 C 3.34375 20 2 21.34375 2 23 C 2 24.65625 3.34375 26 5 26 L 12 26 L 12 18 C 12 16.894531 11.105469 16 10 16 Z M 18 20 L 22 20 C 23.105469 20 24 20.894531 24 22 C 24 23.105469 23.105469 24 22 24 L 18 24 Z M 5 22 L 10 22 L 10 24 L 5 24 C 4.449219 24 4 23.550781 4 23 C 4 22.449219 4.449219 22 5 22 Z M 5 22 "/>
</g>
</svg>
