<?xml version="1.0" encoding="UTF-8"?>
<svg xmlns="http://www.w3.org/2000/svg" xmlns:xlink="http://www.w3.org/1999/xlink" width="32px" height="32px" viewBox="0 0 32 32" version="1.1">
<g id="surface1">
<path style=" stroke:none;fill-rule:nonzero;fill:rgb(33.333334%,34.117648%,32.549021%);fill-opacity:1;" d="M 12 0 C 7.601562 0 4 3.601562 4 8 L 4 9.199219 L 3.398438 8.601562 C 3 8.199219 2.601562 8 2 8 L 0 8 L 0 10 C 0 10.601562 0.199219 11 0.601562 11.398438 L 4.601562 15.398438 L 5.199219 16 L 6.875 16 L 7.398438 15.398438 L 11.398438 11.398438 C 11.800781 11 12 10.601562 12 10 L 12 8 L 10 8 C 9.398438 8 9 8.199219 8.601562 8.601562 L 8 9.199219 L 8 8 C 8 5.800781 9.800781 4 12 4 C 14.199219 4 16 5.800781 16 8 L 20 8 C 20 3.601562 16.398438 0 12 0 Z M 22 6 L 22 10 L 28 10 L 28 26 L 24 24 L 20 26 L 14 18 L 8 24 L 8 18 L 4 18 L 4 30 L 32 30 L 32 6 Z M 22 12 C 19.800781 12 18 13.800781 18 16 C 18 18.199219 19.800781 20 22 20 C 24.199219 20 26 18.199219 26 16 C 26 13.800781 24.199219 12 22 12 Z M 22 12 "/>
</g>
</svg>
