<?xml version="1.0" encoding="UTF-8"?>
<svg xmlns="http://www.w3.org/2000/svg" xmlns:xlink="http://www.w3.org/1999/xlink" width="32px" height="32px" viewBox="0 0 32 32" version="1.1">
<g id="surface1">
<path style=" stroke:none;fill-rule:nonzero;fill:rgb(33.333334%,34.117648%,32.549021%);fill-opacity:1;" d="M 25.125 0 L 24.601562 0.5625 L 20.5625 4.5625 C 20.1875 4.9375 20 5.46875 20 6 L 20 8 L 22 8 C 22.53125 8 23.0625 7.8125 23.4375 7.4375 L 24 6.875 L 24 12 L 28 12 L 28 6.875 L 28.5625 7.4375 C 28.9375 7.800781 29.46875 8 30 8 L 32 8 L 32 6 C 32 5.46875 31.8125 4.9375 31.4375 4.5625 L 26.875 0 Z M 14 10 L 14 26 L 21 26 C 23.761719 26 26 23.761719 26 21 C 26 19.601562 24.875 17.300781 23.121094 16.476562 C 23.664062 15.800781 24 15 24 14 C 24 11.800781 22.210938 10 20 10 Z M 16 12 L 20 12 C 21.105469 12 22 12.894531 22 14 C 22 15.105469 21.105469 16 20 16 L 16 16 Z M 4 16 L 4 18 L 10 18 L 10 20 L 5 20 C 3.34375 20 2 21.34375 2 23 C 2 24.65625 3.34375 26 5 26 L 12 26 L 12 18 C 12 16.894531 11.105469 16 10 16 Z M 16 18 L 21 18 C 22.65625 18 24 19.34375 24 21 C 24 22.65625 22.65625 24 21 24 L 16 24 Z M 5 22 L 10 22 L 10 24 L 5 24 C 4.449219 24 4 23.550781 4 23 C 4 22.449219 4.449219 22 5 22 Z M 5 22 "/>
</g>
</svg>
