<?xml version="1.0" encoding="UTF-8"?>
<svg xmlns="http://www.w3.org/2000/svg" xmlns:xlink="http://www.w3.org/1999/xlink" width="32px" height="32px" viewBox="0 0 32 32" version="1.1">
<g id="surface1">
<path style=" stroke:none;fill-rule:nonzero;fill:rgb(33.333334%,34.117648%,32.549021%);fill-opacity:1;" d="M 16 0 C 8.269531 0 2 3.582031 2 8 L 2 24 C 2 28.417969 8.269531 32 16 32 C 16.097656 31.996094 16.191406 31.996094 16.289062 31.992188 L 13.148438 28.851562 C 12.808594 28.511719 12.570312 28.125 12.386719 27.722656 C 8.542969 27.125 6.007812 25.648438 6 24 L 6 21.601562 C 7.660156 22.570312 9.726562 23.277344 12 23.664062 L 12 22 L 16 22 L 16 20 C 10.476562 20 6 18.210938 6 16 L 6 13.601562 C 8.632812 15.136719 12.238281 16 16 16 C 16.671875 15.996094 17.34375 15.964844 18.007812 15.90625 C 18.027344 14.9375 18.367188 13.929688 19.148438 13.148438 L 20.789062 11.507812 C 19.320312 11.828125 17.675781 12 16 12 C 10.476562 12 6 10.210938 6 8 C 6 5.789062 10.476562 4 16 4 C 21.523438 4 26 5.789062 26 8 L 27.703125 8 L 30 10.296875 L 30 8 C 30 3.582031 23.730469 0 16 0 Z M 25.125 10 L 20.5625 14.5625 C 20.1875 14.9375 20 15.46875 20 16 L 20 18 L 22 18 C 22.53125 18 23.0625 17.8125 23.4375 17.4375 L 24 16.875 L 24 22 L 28 22 L 28 16.875 L 28.5625 17.4375 C 28.9375 17.8125 29.46875 18 30 18 L 32 18 L 32 16 C 32 15.46875 31.8125 14.9375 31.4375 14.5625 L 26.875 10 Z M 18 20 L 18 25.125 L 17.4375 24.5625 C 17.0625 24.1875 16.53125 24 16 24 L 14 24 L 14 26 C 14 26.53125 14.1875 27.0625 14.5625 27.4375 L 19.125 32 L 20.875 32 L 25.4375 27.4375 C 25.8125 27.0625 26 26.53125 26 26 L 26 24 L 24 24 C 23.46875 24 22.9375 24.1875 22.5625 24.5625 L 22 25.125 L 22 20 Z M 18 20 "/>
</g>
</svg>
