<?xml version="1.0" encoding="UTF-8"?>
<svg xmlns="http://www.w3.org/2000/svg" xmlns:xlink="http://www.w3.org/1999/xlink" width="32px" height="32px" viewBox="0 0 32 32" version="1.1">
<defs>
<filter id="alpha" filterUnits="objectBoundingBox" x="0%" y="0%" width="100%" height="100%">
  <feColorMatrix type="matrix" in="SourceGraphic" values="0 0 0 0 1 0 0 0 0 1 0 0 0 0 1 0 0 0 1 0"/>
</filter>
<mask id="mask0">
  <g filter="url(#alpha)">
<rect x="0" y="0" width="32" height="32" style="fill:rgb(0%,0%,0%);fill-opacity:0.35;stroke:none;"/>
  </g>
</mask>
<clipPath id="clip1">
  <rect x="0" y="0" width="32" height="32"/>
</clipPath>
<g id="surface5" clip-path="url(#clip1)">
<path style=" stroke:none;fill-rule:nonzero;fill:rgb(33.333334%,34.117648%,32.549021%);fill-opacity:1;" d="M 14.617188 6.273438 L 25.726562 17.382812 C 25.035156 22.253906 21.078125 26 16 26 C 10.429688 26 6 21.570312 6 16 C 6 10.921875 9.746094 6.964844 14.617188 6.273438 Z M 14.617188 6.273438 "/>
</g>
</defs>
<g id="surface1">
<path style=" stroke:none;fill-rule:nonzero;fill:rgb(33.333334%,34.117648%,32.549021%);fill-opacity:1;" d="M 16 2 C 8.269531 2 2 8.269531 2 16 C 2 23.730469 8.269531 30 16 30 C 23.730469 30 30 23.730469 30 16 Z M 14.617188 6.273438 L 25.726562 17.382812 C 25.035156 22.253906 21.078125 26 16 26 C 10.429688 26 6 21.570312 6 16 C 6 10.921875 9.746094 6.964844 14.617188 6.273438 Z M 14.617188 6.273438 "/>
<use xlink:href="#surface5" mask="url(#mask0)"/>
</g>
</svg>
