<?xml version="1.0" encoding="UTF-8"?>
<svg xmlns="http://www.w3.org/2000/svg" xmlns:xlink="http://www.w3.org/1999/xlink" width="32px" height="32px" viewBox="0 0 32 32" version="1.1">
<g id="surface1">
<path style=" stroke:none;fill-rule:nonzero;fill:rgb(33.333334%,34.117648%,32.549021%);fill-opacity:1;" d="M 4 2 C 2.890625 2 2 2.890625 2 4 L 2 12 C 2 13.109375 2.890625 14 4 14 L 12 14 C 13.109375 14 14 13.109375 14 12 L 14 4 C 14 2.890625 13.109375 2 12 2 Z M 22 2 L 22 4 C 22 4.53125 22.1875 5.0625 22.5625 5.4375 L 23.125 6 L 16 6 L 16 10 L 23.125 10 L 22.5625 10.5625 C 22.1875 10.9375 22 11.46875 22 12 L 22 14 L 24 14 C 24.53125 14 25.0625 13.8125 25.4375 13.4375 L 30 8.875 L 30 7.125 L 25.4375 2.5625 C 25.0625 2.1875 24.53125 2 24 2 Z M 6 6 L 10 6 L 10 10 L 6 10 Z M 29 14 C 28.261719 14 27.601562 14.300781 27 14.800781 L 19.101562 22 L 22 22 L 28.261719 16.320312 C 28.5625 16 28.738281 16 29 16 L 30 16 L 30 17 C 30 17.558594 30.441406 18 31 18 C 31.558594 18 32 17.558594 32 17 L 32 16 C 32 14.601562 31.683594 14 30 14 Z M 6 16 L 6 23.125 L 5.4375 22.5625 C 5.0625 22.1875 4.53125 22 4 22 L 2 22 L 2 24 C 2 24.53125 2.1875 25.0625 2.5625 25.4375 L 7.125 30 L 8.875 30 L 13.4375 25.4375 C 13.8125 25.0625 14 24.53125 14 24 L 14 22 L 12 22 C 11.46875 22 10.9375 22.1875 10.5625 22.5625 L 10 23.125 L 10 16 Z M 16 22 L 16 24 L 19 27 L 16 30 L 16 32 L 18 32 L 21 29 L 24 32 L 26 32 L 26 30 L 23 27 L 26 24 L 26 22 L 24 22 L 21 25 L 18 22 Z M 16 22 "/>
</g>
</svg>
