<?xml version="1.0" encoding="UTF-8"?>
<svg xmlns="http://www.w3.org/2000/svg" xmlns:xlink="http://www.w3.org/1999/xlink" width="32px" height="32px" viewBox="0 0 32 32" version="1.1">
<g id="surface1">
<path style=" stroke:none;fill-rule:nonzero;fill:rgb(33.333334%,34.117648%,32.549021%);fill-opacity:1;" d="M 16 2 C 8.269531 2 2 8.269531 2 16 C 2 23.730469 8.269531 30 16 30 C 23.730469 30 30 23.730469 30 16 C 30 8.269531 23.730469 2 16 2 Z M 10 10 L 12.828125 10 L 16 13.171875 L 19.171875 10 L 22 10 L 22 12.828125 L 18.828125 16 L 22 19.171875 L 22 22 L 19.171875 22 L 16 18.828125 L 12.828125 22 L 10 22 L 10 19.171875 L 13.171875 16 L 10 12.828125 Z M 10 10 "/>
</g>
</svg>
