<?xml version="1.0" encoding="UTF-8"?>
<svg xmlns="http://www.w3.org/2000/svg" xmlns:xlink="http://www.w3.org/1999/xlink" width="32px" height="32px" viewBox="0 0 32 32" version="1.1">
<g id="surface1">
<path style="fill-rule:evenodd;fill:rgb(33.333334%,34.117648%,32.549021%);fill-opacity:1;stroke-width:0.401908;stroke-linecap:butt;stroke-linejoin:miter;stroke:rgb(33.333334%,34.117648%,32.549021%);stroke-opacity:1;stroke-miterlimit:4;" d="M 6.691405 0.201196 C 4.322265 0.232446 1.148437 1.037133 1.201171 3.615258 C 1.257812 6.365258 4.632812 5.279321 4.761718 6.501977 C 4.968749 8.476587 0.654296 14.486352 7.210937 15.664087 C 11.58789 16.451196 16.234374 13.750024 15.767577 8.300805 C 15.347655 3.400415 11.253905 0.326196 7.160155 0.201196 Z M 5.671874 1.802758 C 6.787108 1.802758 7.689452 2.429712 7.689452 3.203149 C 7.689452 3.976587 6.787108 4.601587 5.671874 4.601587 C 4.55664 4.601587 3.65039 3.976587 3.65039 3.203149 C 3.65039 2.429712 4.55664 1.802758 5.671874 1.802758 Z M 12.476562 4.988305 C 13.298827 4.988305 13.976562 5.66604 13.976562 6.488305 C 13.976562 7.312524 13.30078 7.988305 12.476562 7.988305 C 11.652343 7.988305 10.976562 7.312524 10.976562 6.488305 C 10.976562 5.66604 11.654296 4.988305 12.476562 4.988305 Z M 11.499999 9.000024 C 12.328124 9.000024 12.999999 9.671899 12.999999 10.500024 C 12.999999 11.328149 12.328124 12.000024 11.499999 12.000024 C 10.671874 12.000024 9.999999 11.328149 9.999999 10.500024 C 9.999999 9.671899 10.671874 9.000024 11.499999 9.000024 Z M 6.513671 11.042993 C 7.341796 11.042993 8.013671 11.714868 8.013671 12.542993 C 8.013671 13.371118 7.341796 14.042993 6.513671 14.042993 C 5.685546 14.042993 5.013671 13.371118 5.013671 12.542993 C 5.013671 11.714868 5.685546 11.042993 6.513671 11.042993 Z M 6.513671 11.042993 " transform="matrix(2,0,0,2,0.000002,-0.000048)"/>
</g>
</svg>
