<?xml version="1.0" encoding="UTF-8"?>
<svg xmlns="http://www.w3.org/2000/svg" xmlns:xlink="http://www.w3.org/1999/xlink" width="32px" height="32px" viewBox="0 0 32 32" version="1.1">
<defs>
<clipPath id="clip1">
  <path d="M 7 4 L 21 4 L 21 17 L 7 17 Z M 7 4 "/>
</clipPath>
<clipPath id="clip2">
  <path d="M 27.382812 25.15625 C 27.515625 25.4375 27.585938 25.726562 27.585938 26.015625 C 27.585938 26.527344 27.375 26.960938 26.960938 27.3125 C 26.554688 27.65625 26.089844 27.828125 25.570312 27.828125 C 25.214844 27.828125 24.882812 27.734375 24.570312 27.546875 C 24.257812 27.359375 24.011719 27.070312 23.835938 26.671875 L 21.851562 22.234375 L 10.195312 22.234375 L 8.210938 26.671875 C 8.03125 27.070312 7.789062 27.359375 7.476562 27.546875 C 7.171875 27.734375 6.835938 27.828125 6.460938 27.828125 C 5.949219 27.828125 5.484375 27.65625 5.070312 27.3125 C 4.652344 26.960938 4.445312 26.527344 4.445312 26.015625 C 4.445312 25.726562 4.507812 25.4375 4.632812 25.15625 L 13.773438 5.515625 C 13.96875 5.078125 14.273438 4.746094 14.679688 4.515625 C 15.09375 4.277344 15.53125 4.15625 15.992188 4.15625 C 16.460938 4.15625 16.898438 4.277344 17.304688 4.515625 C 17.710938 4.746094 18.011719 5.078125 18.210938 5.515625 Z M 11.664062 18.921875 L 20.398438 18.921875 L 16.023438 9.09375 Z M 3.710938 -5.769531 "/>
</clipPath>
<clipPath id="clip3">
  <path d="M 11 4 L 28 4 L 28 17 L 11 17 Z M 11 4 "/>
</clipPath>
<clipPath id="clip4">
  <path d="M 27.382812 25.15625 C 27.515625 25.4375 27.585938 25.726562 27.585938 26.015625 C 27.585938 26.527344 27.375 26.960938 26.960938 27.3125 C 26.554688 27.65625 26.089844 27.828125 25.570312 27.828125 C 25.214844 27.828125 24.882812 27.734375 24.570312 27.546875 C 24.257812 27.359375 24.011719 27.070312 23.835938 26.671875 L 21.851562 22.234375 L 10.195312 22.234375 L 8.210938 26.671875 C 8.03125 27.070312 7.789062 27.359375 7.476562 27.546875 C 7.171875 27.734375 6.835938 27.828125 6.460938 27.828125 C 5.949219 27.828125 5.484375 27.65625 5.070312 27.3125 C 4.652344 26.960938 4.445312 26.527344 4.445312 26.015625 C 4.445312 25.726562 4.507812 25.4375 4.632812 25.15625 L 13.773438 5.515625 C 13.96875 5.078125 14.273438 4.746094 14.679688 4.515625 C 15.09375 4.277344 15.53125 4.15625 15.992188 4.15625 C 16.460938 4.15625 16.898438 4.277344 17.304688 4.515625 C 17.710938 4.746094 18.011719 5.078125 18.210938 5.515625 Z M 11.664062 18.921875 L 20.398438 18.921875 L 16.023438 9.09375 Z M 3.710938 -5.769531 "/>
</clipPath>
<clipPath id="clip5">
  <path d="M 14 4 L 28 4 L 28 17 L 14 17 Z M 14 4 "/>
</clipPath>
<clipPath id="clip6">
  <path d="M 27.382812 25.15625 C 27.515625 25.4375 27.585938 25.726562 27.585938 26.015625 C 27.585938 26.527344 27.375 26.960938 26.960938 27.3125 C 26.554688 27.65625 26.089844 27.828125 25.570312 27.828125 C 25.214844 27.828125 24.882812 27.734375 24.570312 27.546875 C 24.257812 27.359375 24.011719 27.070312 23.835938 26.671875 L 21.851562 22.234375 L 10.195312 22.234375 L 8.210938 26.671875 C 8.03125 27.070312 7.789062 27.359375 7.476562 27.546875 C 7.171875 27.734375 6.835938 27.828125 6.460938 27.828125 C 5.949219 27.828125 5.484375 27.65625 5.070312 27.3125 C 4.652344 26.960938 4.445312 26.527344 4.445312 26.015625 C 4.445312 25.726562 4.507812 25.4375 4.632812 25.15625 L 13.773438 5.515625 C 13.96875 5.078125 14.273438 4.746094 14.679688 4.515625 C 15.09375 4.277344 15.53125 4.15625 15.992188 4.15625 C 16.460938 4.15625 16.898438 4.277344 17.304688 4.515625 C 17.710938 4.746094 18.011719 5.078125 18.210938 5.515625 Z M 11.664062 18.921875 L 20.398438 18.921875 L 16.023438 9.09375 Z M 3.710938 -5.769531 "/>
</clipPath>
<clipPath id="clip7">
  <path d="M 16 8 L 28 8 L 28 22 L 16 22 Z M 16 8 "/>
</clipPath>
<clipPath id="clip8">
  <path d="M 27.382812 25.15625 C 27.515625 25.4375 27.585938 25.726562 27.585938 26.015625 C 27.585938 26.527344 27.375 26.960938 26.960938 27.3125 C 26.554688 27.65625 26.089844 27.828125 25.570312 27.828125 C 25.214844 27.828125 24.882812 27.734375 24.570312 27.546875 C 24.257812 27.359375 24.011719 27.070312 23.835938 26.671875 L 21.851562 22.234375 L 10.195312 22.234375 L 8.210938 26.671875 C 8.03125 27.070312 7.789062 27.359375 7.476562 27.546875 C 7.171875 27.734375 6.835938 27.828125 6.460938 27.828125 C 5.949219 27.828125 5.484375 27.65625 5.070312 27.3125 C 4.652344 26.960938 4.445312 26.527344 4.445312 26.015625 C 4.445312 25.726562 4.507812 25.4375 4.632812 25.15625 L 13.773438 5.515625 C 13.96875 5.078125 14.273438 4.746094 14.679688 4.515625 C 15.09375 4.277344 15.53125 4.15625 15.992188 4.15625 C 16.460938 4.15625 16.898438 4.277344 17.304688 4.515625 C 17.710938 4.746094 18.011719 5.078125 18.210938 5.515625 Z M 11.664062 18.921875 L 20.398438 18.921875 L 16.023438 9.09375 Z M 3.710938 -5.769531 "/>
</clipPath>
<clipPath id="clip9">
  <path d="M 16 12 L 28 12 L 28 28 L 16 28 Z M 16 12 "/>
</clipPath>
<clipPath id="clip10">
  <path d="M 27.382812 25.15625 C 27.515625 25.4375 27.585938 25.726562 27.585938 26.015625 C 27.585938 26.527344 27.375 26.960938 26.960938 27.3125 C 26.554688 27.65625 26.089844 27.828125 25.570312 27.828125 C 25.214844 27.828125 24.882812 27.734375 24.570312 27.546875 C 24.257812 27.359375 24.011719 27.070312 23.835938 26.671875 L 21.851562 22.234375 L 10.195312 22.234375 L 8.210938 26.671875 C 8.03125 27.070312 7.789062 27.359375 7.476562 27.546875 C 7.171875 27.734375 6.835938 27.828125 6.460938 27.828125 C 5.949219 27.828125 5.484375 27.65625 5.070312 27.3125 C 4.652344 26.960938 4.445312 26.527344 4.445312 26.015625 C 4.445312 25.726562 4.507812 25.4375 4.632812 25.15625 L 13.773438 5.515625 C 13.96875 5.078125 14.273438 4.746094 14.679688 4.515625 C 15.09375 4.277344 15.53125 4.15625 15.992188 4.15625 C 16.460938 4.15625 16.898438 4.277344 17.304688 4.515625 C 17.710938 4.746094 18.011719 5.078125 18.210938 5.515625 Z M 11.664062 18.921875 L 20.398438 18.921875 L 16.023438 9.09375 Z M 3.710938 -5.769531 "/>
</clipPath>
<clipPath id="clip11">
  <path d="M 16 15 L 28 15 L 28 28 L 16 28 Z M 16 15 "/>
</clipPath>
<clipPath id="clip12">
  <path d="M 27.382812 25.15625 C 27.515625 25.4375 27.585938 25.726562 27.585938 26.015625 C 27.585938 26.527344 27.375 26.960938 26.960938 27.3125 C 26.554688 27.65625 26.089844 27.828125 25.570312 27.828125 C 25.214844 27.828125 24.882812 27.734375 24.570312 27.546875 C 24.257812 27.359375 24.011719 27.070312 23.835938 26.671875 L 21.851562 22.234375 L 10.195312 22.234375 L 8.210938 26.671875 C 8.03125 27.070312 7.789062 27.359375 7.476562 27.546875 C 7.171875 27.734375 6.835938 27.828125 6.460938 27.828125 C 5.949219 27.828125 5.484375 27.65625 5.070312 27.3125 C 4.652344 26.960938 4.445312 26.527344 4.445312 26.015625 C 4.445312 25.726562 4.507812 25.4375 4.632812 25.15625 L 13.773438 5.515625 C 13.96875 5.078125 14.273438 4.746094 14.679688 4.515625 C 15.09375 4.277344 15.53125 4.15625 15.992188 4.15625 C 16.460938 4.15625 16.898438 4.277344 17.304688 4.515625 C 17.710938 4.746094 18.011719 5.078125 18.210938 5.515625 Z M 11.664062 18.921875 L 20.398438 18.921875 L 16.023438 9.09375 Z M 3.710938 -5.769531 "/>
</clipPath>
<clipPath id="clip13">
  <path d="M 11 17 L 25 17 L 25 28 L 11 28 Z M 11 17 "/>
</clipPath>
<clipPath id="clip14">
  <path d="M 27.382812 25.15625 C 27.515625 25.4375 27.585938 25.726562 27.585938 26.015625 C 27.585938 26.527344 27.375 26.960938 26.960938 27.3125 C 26.554688 27.65625 26.089844 27.828125 25.570312 27.828125 C 25.214844 27.828125 24.882812 27.734375 24.570312 27.546875 C 24.257812 27.359375 24.011719 27.070312 23.835938 26.671875 L 21.851562 22.234375 L 10.195312 22.234375 L 8.210938 26.671875 C 8.03125 27.070312 7.789062 27.359375 7.476562 27.546875 C 7.171875 27.734375 6.835938 27.828125 6.460938 27.828125 C 5.949219 27.828125 5.484375 27.65625 5.070312 27.3125 C 4.652344 26.960938 4.445312 26.527344 4.445312 26.015625 C 4.445312 25.726562 4.507812 25.4375 4.632812 25.15625 L 13.773438 5.515625 C 13.96875 5.078125 14.273438 4.746094 14.679688 4.515625 C 15.09375 4.277344 15.53125 4.15625 15.992188 4.15625 C 16.460938 4.15625 16.898438 4.277344 17.304688 4.515625 C 17.710938 4.746094 18.011719 5.078125 18.210938 5.515625 Z M 11.664062 18.921875 L 20.398438 18.921875 L 16.023438 9.09375 Z M 3.710938 -5.769531 "/>
</clipPath>
<clipPath id="clip15">
  <path d="M 4 17 L 21 17 L 21 28 L 4 28 Z M 4 17 "/>
</clipPath>
<clipPath id="clip16">
  <path d="M 27.382812 25.15625 C 27.515625 25.4375 27.585938 25.726562 27.585938 26.015625 C 27.585938 26.527344 27.375 26.960938 26.960938 27.3125 C 26.554688 27.65625 26.089844 27.828125 25.570312 27.828125 C 25.214844 27.828125 24.882812 27.734375 24.570312 27.546875 C 24.257812 27.359375 24.011719 27.070312 23.835938 26.671875 L 21.851562 22.234375 L 10.195312 22.234375 L 8.210938 26.671875 C 8.03125 27.070312 7.789062 27.359375 7.476562 27.546875 C 7.171875 27.734375 6.835938 27.828125 6.460938 27.828125 C 5.949219 27.828125 5.484375 27.65625 5.070312 27.3125 C 4.652344 26.960938 4.445312 26.527344 4.445312 26.015625 C 4.445312 25.726562 4.507812 25.4375 4.632812 25.15625 L 13.773438 5.515625 C 13.96875 5.078125 14.273438 4.746094 14.679688 4.515625 C 15.09375 4.277344 15.53125 4.15625 15.992188 4.15625 C 16.460938 4.15625 16.898438 4.277344 17.304688 4.515625 C 17.710938 4.746094 18.011719 5.078125 18.210938 5.515625 Z M 11.664062 18.921875 L 20.398438 18.921875 L 16.023438 9.09375 Z M 3.710938 -5.769531 "/>
</clipPath>
<clipPath id="clip17">
  <path d="M 4 17 L 18 17 L 18 28 L 4 28 Z M 4 17 "/>
</clipPath>
<clipPath id="clip18">
  <path d="M 27.382812 25.15625 C 27.515625 25.4375 27.585938 25.726562 27.585938 26.015625 C 27.585938 26.527344 27.375 26.960938 26.960938 27.3125 C 26.554688 27.65625 26.089844 27.828125 25.570312 27.828125 C 25.214844 27.828125 24.882812 27.734375 24.570312 27.546875 C 24.257812 27.359375 24.011719 27.070312 23.835938 26.671875 L 21.851562 22.234375 L 10.195312 22.234375 L 8.210938 26.671875 C 8.03125 27.070312 7.789062 27.359375 7.476562 27.546875 C 7.171875 27.734375 6.835938 27.828125 6.460938 27.828125 C 5.949219 27.828125 5.484375 27.65625 5.070312 27.3125 C 4.652344 26.960938 4.445312 26.527344 4.445312 26.015625 C 4.445312 25.726562 4.507812 25.4375 4.632812 25.15625 L 13.773438 5.515625 C 13.96875 5.078125 14.273438 4.746094 14.679688 4.515625 C 15.09375 4.277344 15.53125 4.15625 15.992188 4.15625 C 16.460938 4.15625 16.898438 4.277344 17.304688 4.515625 C 17.710938 4.746094 18.011719 5.078125 18.210938 5.515625 Z M 11.664062 18.921875 L 20.398438 18.921875 L 16.023438 9.09375 Z M 3.710938 -5.769531 "/>
</clipPath>
<clipPath id="clip19">
  <path d="M 4 12 L 16 12 L 16 26 L 4 26 Z M 4 12 "/>
</clipPath>
<clipPath id="clip20">
  <path d="M 27.382812 25.15625 C 27.515625 25.4375 27.585938 25.726562 27.585938 26.015625 C 27.585938 26.527344 27.375 26.960938 26.960938 27.3125 C 26.554688 27.65625 26.089844 27.828125 25.570312 27.828125 C 25.214844 27.828125 24.882812 27.734375 24.570312 27.546875 C 24.257812 27.359375 24.011719 27.070312 23.835938 26.671875 L 21.851562 22.234375 L 10.195312 22.234375 L 8.210938 26.671875 C 8.03125 27.070312 7.789062 27.359375 7.476562 27.546875 C 7.171875 27.734375 6.835938 27.828125 6.460938 27.828125 C 5.949219 27.828125 5.484375 27.65625 5.070312 27.3125 C 4.652344 26.960938 4.445312 26.527344 4.445312 26.015625 C 4.445312 25.726562 4.507812 25.4375 4.632812 25.15625 L 13.773438 5.515625 C 13.96875 5.078125 14.273438 4.746094 14.679688 4.515625 C 15.09375 4.277344 15.53125 4.15625 15.992188 4.15625 C 16.460938 4.15625 16.898438 4.277344 17.304688 4.515625 C 17.710938 4.746094 18.011719 5.078125 18.210938 5.515625 Z M 11.664062 18.921875 L 20.398438 18.921875 L 16.023438 9.09375 Z M 3.710938 -5.769531 "/>
</clipPath>
<clipPath id="clip21">
  <path d="M 4 5 L 16 5 L 16 22 L 4 22 Z M 4 5 "/>
</clipPath>
<clipPath id="clip22">
  <path d="M 27.382812 25.15625 C 27.515625 25.4375 27.585938 25.726562 27.585938 26.015625 C 27.585938 26.527344 27.375 26.960938 26.960938 27.3125 C 26.554688 27.65625 26.089844 27.828125 25.570312 27.828125 C 25.214844 27.828125 24.882812 27.734375 24.570312 27.546875 C 24.257812 27.359375 24.011719 27.070312 23.835938 26.671875 L 21.851562 22.234375 L 10.195312 22.234375 L 8.210938 26.671875 C 8.03125 27.070312 7.789062 27.359375 7.476562 27.546875 C 7.171875 27.734375 6.835938 27.828125 6.460938 27.828125 C 5.949219 27.828125 5.484375 27.65625 5.070312 27.3125 C 4.652344 26.960938 4.445312 26.527344 4.445312 26.015625 C 4.445312 25.726562 4.507812 25.4375 4.632812 25.15625 L 13.773438 5.515625 C 13.96875 5.078125 14.273438 4.746094 14.679688 4.515625 C 15.09375 4.277344 15.53125 4.15625 15.992188 4.15625 C 16.460938 4.15625 16.898438 4.277344 17.304688 4.515625 C 17.710938 4.746094 18.011719 5.078125 18.210938 5.515625 Z M 11.664062 18.921875 L 20.398438 18.921875 L 16.023438 9.09375 Z M 3.710938 -5.769531 "/>
</clipPath>
<clipPath id="clip23">
  <path d="M 4 4 L 16 4 L 16 19 L 4 19 Z M 4 4 "/>
</clipPath>
<clipPath id="clip24">
  <path d="M 27.382812 25.15625 C 27.515625 25.4375 27.585938 25.726562 27.585938 26.015625 C 27.585938 26.527344 27.375 26.960938 26.960938 27.3125 C 26.554688 27.65625 26.089844 27.828125 25.570312 27.828125 C 25.214844 27.828125 24.882812 27.734375 24.570312 27.546875 C 24.257812 27.359375 24.011719 27.070312 23.835938 26.671875 L 21.851562 22.234375 L 10.195312 22.234375 L 8.210938 26.671875 C 8.03125 27.070312 7.789062 27.359375 7.476562 27.546875 C 7.171875 27.734375 6.835938 27.828125 6.460938 27.828125 C 5.949219 27.828125 5.484375 27.65625 5.070312 27.3125 C 4.652344 26.960938 4.445312 26.527344 4.445312 26.015625 C 4.445312 25.726562 4.507812 25.4375 4.632812 25.15625 L 13.773438 5.515625 C 13.96875 5.078125 14.273438 4.746094 14.679688 4.515625 C 15.09375 4.277344 15.53125 4.15625 15.992188 4.15625 C 16.460938 4.15625 16.898438 4.277344 17.304688 4.515625 C 17.710938 4.746094 18.011719 5.078125 18.210938 5.515625 Z M 11.664062 18.921875 L 20.398438 18.921875 L 16.023438 9.09375 Z M 3.710938 -5.769531 "/>
</clipPath>
</defs>
<g id="surface1">
<path style="fill-rule:nonzero;fill:rgb(94.117647%,89.019608%,92.54902%);fill-opacity:1;stroke-width:0.264583;stroke-linecap:round;stroke-linejoin:round;stroke:rgb(90.196079%,0.784314%,70.588237%);stroke-opacity:1;stroke-miterlimit:4;" d="M 0.396875 0.888318 C 0.396875 0.642338 0.642338 0.396875 0.888318 0.396875 L 3.345015 0.396875 C 3.590995 0.396875 3.836458 0.642338 3.836458 0.888318 L 3.836458 3.345016 C 3.836458 3.590995 3.590995 3.836459 3.345015 3.836459 L 0.888318 3.836459 C 0.642338 3.836459 0.396875 3.590995 0.396875 3.345016 Z M 0.396875 0.888318 " transform="matrix(7.559055,0,0,7.559055,0.00000180222,0)"/>
<g clip-path="url(#clip1)" clip-rule="nonzero">
<g clip-path="url(#clip2)" clip-rule="nonzero">
<path style=" stroke:none;fill-rule:nonzero;fill:rgb(100%,40.000001%,0%);fill-opacity:1;" d="M 16 0.273438 C 11.382812 0.273438 7.636719 4.019531 7.636719 8.636719 C 7.636719 13.253906 11.382812 17 16 17 C 12 14.691406 10.632812 9.578125 12.941406 5.578125 C 14.433594 2.992188 17.195312 1.398438 20.179688 1.402344 C 18.910156 0.664062 17.46875 0.277344 16 0.273438 Z M 16 0.273438 "/>
</g>
</g>
<g clip-path="url(#clip3)" clip-rule="nonzero">
<g clip-path="url(#clip4)" clip-rule="nonzero">
<path style=" stroke:none;fill-rule:nonzero;fill:rgb(100%,60.000002%,0%);fill-opacity:1;" d="M 19.789062 1.402344 C 16.945312 1.535156 14.363281 3.109375 12.941406 5.578125 C 10.632812 9.578125 12 14.691406 16 17 C 13.691406 13 15.0625 7.886719 19.058594 5.578125 C 21.648438 4.085938 24.835938 4.089844 27.421875 5.589844 C 26.691406 4.3125 25.636719 3.253906 24.363281 2.515625 C 22.976562 1.714844 21.390625 1.328125 19.789062 1.402344 Z M 19.789062 1.402344 "/>
</g>
</g>
<g clip-path="url(#clip5)" clip-rule="nonzero">
<g clip-path="url(#clip6)" clip-rule="nonzero">
<path style=" stroke:none;fill-rule:nonzero;fill:rgb(100%,80.000001%,0%);fill-opacity:1;" d="M 23.046875 4.457031 C 21.644531 4.488281 20.273438 4.875 19.058594 5.578125 C 15.0625 7.886719 13.691406 13 16 17 C 16.003906 12.382812 19.75 8.640625 24.367188 8.640625 C 27.355469 8.648438 30.109375 10.246094 31.597656 12.835938 C 31.601562 11.363281 31.21875 9.914062 30.484375 8.636719 C 28.953125 5.988281 26.101562 4.382812 23.046875 4.457031 Z M 23.046875 4.457031 "/>
</g>
</g>
<g clip-path="url(#clip7)" clip-rule="nonzero">
<g clip-path="url(#clip8)" clip-rule="nonzero">
<path style=" stroke:none;fill-rule:nonzero;fill:rgb(40.000001%,60.000002%,0%);fill-opacity:1;" d="M 24.367188 8.640625 C 19.75 8.640625 16.003906 12.382812 16 17 C 18.402344 13.054688 23.550781 11.808594 27.492188 14.210938 C 29.980469 15.730469 31.496094 18.4375 31.496094 21.351562 C 32.296875 20.042969 32.722656 18.542969 32.726562 17.011719 C 32.730469 12.390625 28.988281 8.644531 24.367188 8.640625 Z M 24.367188 8.640625 "/>
</g>
</g>
<g clip-path="url(#clip9)" clip-rule="nonzero">
<g clip-path="url(#clip10)" clip-rule="nonzero">
<path style=" stroke:none;fill-rule:nonzero;fill:rgb(0%,80.000001%,0%);fill-opacity:1;" d="M 22.949219 12.992188 C 20.101562 13.058594 17.484375 14.570312 16 17 C 19.945312 14.597656 25.089844 15.84375 27.492188 19.789062 C 29.121094 22.457031 29.121094 25.8125 27.5 28.484375 C 28.632812 27.792969 29.585938 26.839844 30.28125 25.707031 C 32.683594 21.761719 31.4375 16.617188 27.492188 14.210938 C 26.125 13.378906 24.546875 12.957031 22.949219 12.992188 Z M 22.949219 12.992188 "/>
</g>
</g>
<g clip-path="url(#clip11)" clip-rule="nonzero">
<g clip-path="url(#clip12)" clip-rule="nonzero">
<path style=" stroke:none;fill-rule:nonzero;fill:rgb(60.000002%,80.000001%,20%);fill-opacity:1;" d="M 19.957031 15.785156 C 18.558594 15.851562 17.195312 16.269531 16 17 C 20.617188 16.996094 24.367188 20.738281 24.367188 25.359375 C 24.367188 28.273438 22.851562 30.976562 20.359375 32.496094 C 21.894531 32.496094 23.394531 32.078125 24.707031 31.28125 C 28.648438 28.878906 29.898438 23.730469 27.492188 19.789062 C 25.902344 17.175781 23.011719 15.640625 19.957031 15.785156 Z M 19.957031 15.785156 "/>
</g>
</g>
<g clip-path="url(#clip13)" clip-rule="nonzero">
<g clip-path="url(#clip14)" clip-rule="nonzero">
<path style=" stroke:none;fill-rule:nonzero;fill:rgb(40.000001%,60.000002%,100%);fill-opacity:1;" d="M 16 17 C 20 19.308594 21.367188 24.421875 19.058594 28.421875 C 17.566406 31.007812 14.804688 32.601562 11.820312 32.597656 C 13.09375 33.339844 14.542969 33.726562 16.015625 33.726562 C 20.632812 33.71875 24.371094 29.972656 24.367188 25.359375 C 24.367188 20.738281 20.617188 16.996094 16 17 Z M 16 17 "/>
</g>
</g>
<g clip-path="url(#clip15)" clip-rule="nonzero">
<g clip-path="url(#clip16)" clip-rule="nonzero">
<path style=" stroke:none;fill-rule:nonzero;fill:rgb(20%,40.000001%,80.000001%);fill-opacity:1;" d="M 16 17 C 18.308594 21 16.9375 26.113281 12.941406 28.421875 C 10.351562 29.914062 7.164062 29.910156 4.578125 28.410156 C 5.308594 29.6875 6.363281 30.746094 7.636719 31.484375 C 11.636719 33.792969 16.75 32.421875 19.058594 28.421875 C 21.367188 24.421875 20 19.308594 16 17 Z M 16 17 "/>
</g>
</g>
<g clip-path="url(#clip17)" clip-rule="nonzero">
<g clip-path="url(#clip18)" clip-rule="nonzero">
<path style=" stroke:none;fill-rule:nonzero;fill:rgb(0%,20%,60.000002%);fill-opacity:1;" d="M 16 17 C 15.996094 21.617188 12.25 25.359375 7.632812 25.359375 C 4.644531 25.351562 1.890625 23.753906 0.402344 21.164062 C 0.398438 22.636719 0.78125 24.085938 1.515625 25.363281 C 3.828125 29.363281 8.941406 30.730469 12.941406 28.421875 C 16.9375 26.113281 18.308594 21 16 17 Z M 16 17 "/>
</g>
</g>
<g clip-path="url(#clip19)" clip-rule="nonzero">
<g clip-path="url(#clip20)" clip-rule="nonzero">
<path style=" stroke:none;fill-rule:nonzero;fill:rgb(17.254902%,0%,34.901962%);fill-opacity:1;" d="M 0.402344 12.820312 C -0.335938 14.089844 -0.722656 15.53125 -0.726562 17 C -0.726562 21.617188 3.019531 25.363281 7.636719 25.363281 C 12.253906 25.363281 16 21.617188 16 17 C 13.691406 21 8.578125 22.367188 4.578125 20.058594 C 1.992188 18.566406 0.398438 15.804688 0.402344 12.820312 Z M 0.402344 12.820312 "/>
</g>
</g>
<g clip-path="url(#clip21)" clip-rule="nonzero">
<g clip-path="url(#clip22)" clip-rule="nonzero">
<path style=" stroke:none;fill-rule:nonzero;fill:rgb(45.09804%,0%,33.333334%);fill-opacity:1;" d="M 4.589844 5.578125 C 3.3125 6.308594 2.253906 7.363281 1.515625 8.636719 C -0.792969 12.636719 0.578125 17.75 4.578125 20.058594 C 8.578125 22.367188 13.691406 21 16 17 C 12 19.308594 6.886719 17.9375 4.578125 13.941406 C 3.085938 11.351562 3.089844 8.164062 4.585938 5.578125 Z M 4.589844 5.578125 "/>
</g>
</g>
<g clip-path="url(#clip23)" clip-rule="nonzero">
<g clip-path="url(#clip24)" clip-rule="nonzero">
<path style=" stroke:none;fill-rule:nonzero;fill:rgb(80.000001%,0%,0%);fill-opacity:1;" d="M 11.621094 1.394531 C 10.222656 1.429688 8.851562 1.816406 7.636719 2.515625 C 3.636719 4.828125 2.269531 9.941406 4.578125 13.941406 C 6.886719 17.9375 12 19.308594 16 17 C 11.382812 17 7.636719 13.253906 7.636719 8.636719 C 7.640625 5.648438 9.238281 2.890625 11.828125 1.402344 C 11.761719 1.398438 11.691406 1.394531 11.621094 1.394531 Z M 11.621094 1.394531 "/>
</g>
</g>
</g>
</svg>
