<?xml version="1.0" encoding="UTF-8"?>
<svg xmlns="http://www.w3.org/2000/svg" xmlns:xlink="http://www.w3.org/1999/xlink" width="32px" height="32px" viewBox="0 0 32 32" version="1.1">
<g id="surface1">
<path style=" stroke:none;fill-rule:nonzero;fill:rgb(33.333334%,34.117648%,32.549021%);fill-opacity:1;" d="M 2 2 C 0.890625 2 0 2.890625 0 4 L 0 30 L 6 24 L 32 24 L 32 20 L 4 20 L 4 6 L 32 6 L 32 2 Z M 6 8 L 6 18 L 8 18 L 8 14 L 10 14 L 12 18 L 14 18 L 14 16.847656 L 11.800781 14 C 13.199219 13.601562 14.058594 12.367188 14 11 C 14 9.34375 12.65625 8 11 8 Z M 16 8 L 16 18 L 22 18 L 22 16 L 18 16 L 18 14 L 22 14 L 22 12 L 18 12 L 18 10 L 22 10 L 22 8 Z M 28 8 C 25.789062 8 24 9.789062 24 12 L 24 14 C 24 16.210938 25.789062 18 28 18 L 30 18 L 30 16 L 28 16 C 26.894531 16 26 15.105469 26 14 L 26 12 C 26 10.894531 26.894531 10 28 10 L 30 10 L 30 8 Z M 8 10 L 11 10 C 11.828125 10 12 10.527344 12 11 C 12 11.480469 11.59375 11.902344 11 12 L 8 12 Z M 8 10 "/>
</g>
</svg>
