<?xml version="1.0" encoding="UTF-8"?>
<svg xmlns="http://www.w3.org/2000/svg" xmlns:xlink="http://www.w3.org/1999/xlink" width="32px" height="32px" viewBox="0 0 32 32" version="1.1">
<g id="surface1">
<path style=" stroke:none;fill-rule:nonzero;fill:rgb(33.333334%,34.117648%,32.549021%);fill-opacity:1;" d="M 30 16 C 30 8.269531 23.730469 2 16 2 C 8.269531 2 2 8.269531 2 16 C 2 23.730469 8.269531 30 16 30 C 23.730469 30 30 23.730469 30 16 Z M 26 16 C 26 21.523438 21.523438 26 16 26 C 10.476562 26 6 21.523438 6 16 C 6 10.476562 10.476562 6 16 6 C 21.523438 6 26 10.476562 26 16 Z M 24 12 L 8 12 L 16 22 Z M 24 12 "/>
</g>
</svg>
