<?xml version="1.0" encoding="UTF-8"?>
<svg xmlns="http://www.w3.org/2000/svg" xmlns:xlink="http://www.w3.org/1999/xlink" width="32px" height="32px" viewBox="0 0 32 32" version="1.1">
<g id="surface1">
<path style=" stroke:none;fill-rule:nonzero;fill:rgb(33.333334%,34.117648%,32.549021%);fill-opacity:1;" d="M 24 0 L 24 5.125 L 23.4375 4.5625 C 23.0625 4.1875 22.53125 4 22 4 L 20 4 L 20 6 C 20 6.53125 20.1875 7.0625 20.5625 7.4375 L 25.125 12 L 26.875 12 L 31.4375 7.4375 C 31.8125 7.0625 32 6.53125 32 6 L 32 4 L 30 4 C 29.46875 4 28.9375 4.1875 28.5625 4.5625 L 28 5.125 L 28 0 Z M 0 2 L 0 30 L 32 30 L 32 12.53125 L 28.53125 16 L 28 16 L 28 22 L 24 20 L 20 22 L 10 14 L 4 20 L 4 6 L 16 6 L 16 2 Z M 18.226562 10.757812 C 18.09375 11.152344 18 11.5625 18 12 C 18 14.210938 19.789062 16 22 16 C 22.441406 16 22.851562 15.910156 23.246094 15.777344 Z M 18.226562 10.757812 "/>
</g>
</svg>
