<?xml version="1.0" encoding="UTF-8"?>
<svg xmlns="http://www.w3.org/2000/svg" xmlns:xlink="http://www.w3.org/1999/xlink" width="32px" height="32px" viewBox="0 0 32 32" version="1.1">
<defs>
<filter id="alpha" filterUnits="objectBoundingBox" x="0%" y="0%" width="100%" height="100%">
  <feColorMatrix type="matrix" in="SourceGraphic" values="0 0 0 0 1 0 0 0 0 1 0 0 0 0 1 0 0 0 1 0"/>
</filter>
<mask id="mask0">
  <g filter="url(#alpha)">
<rect x="0" y="0" width="32" height="32" style="fill:rgb(0%,0%,0%);fill-opacity:0.35;stroke:none;"/>
  </g>
</mask>
<clipPath id="clip1">
  <rect x="0" y="0" width="32" height="32"/>
</clipPath>
<g id="surface5" clip-path="url(#clip1)">
<path style=" stroke:none;fill-rule:nonzero;fill:rgb(33.333334%,34.117648%,32.549021%);fill-opacity:1;" d="M 15.996094 6.933594 L 27.753906 23.585938 L 27.773438 23.613281 C 28.035156 23.972656 28 24.058594 28 24 C 28 24.046875 27.691406 24.996094 25.523438 26.078125 C 23.355469 27.160156 19.878906 28 16 28 C 12.121094 28 8.644531 27.160156 6.476562 26.078125 C 4.308594 24.996094 4 24.046875 4 24 C 4 23.992188 4.003906 23.914062 4.125 23.71875 C 4.128906 23.710938 4.125 23.714844 4.128906 23.707031 Z M 15.996094 6.933594 "/>
</g>
</defs>
<g id="surface1">
<path style=" stroke:none;fill-rule:nonzero;fill:rgb(33.333334%,34.117648%,32.549021%);fill-opacity:1;" d="M 16 0 L 0.75 21.5625 C 0.265625 22.328125 0 23.15625 0 24 C 0 28.417969 7.164062 32 16 32 C 24.835938 32 32 28.417969 32 24 C 32 23.035156 31.628906 22.109375 31 21.25 Z M 15.996094 6.933594 L 27.753906 23.585938 L 27.773438 23.613281 C 28.035156 23.972656 28 24.058594 28 24 C 28 24.046875 27.691406 24.996094 25.523438 26.078125 C 23.355469 27.160156 19.878906 28 16 28 C 12.121094 28 8.644531 27.160156 6.476562 26.078125 C 4.308594 24.996094 4 24.046875 4 24 C 4 23.992188 4.003906 23.914062 4.125 23.71875 C 4.128906 23.710938 4.125 23.714844 4.128906 23.707031 Z M 15.996094 6.933594 "/>
<use xlink:href="#surface5" mask="url(#mask0)"/>
</g>
</svg>
