<?xml version="1.0" encoding="UTF-8"?>
<svg xmlns="http://www.w3.org/2000/svg" xmlns:xlink="http://www.w3.org/1999/xlink" width="32px" height="32px" viewBox="0 0 32 32" version="1.1">
<g id="surface1">
<path style="fill-rule:nonzero;fill:rgb(94.117647%,89.019608%,92.54902%);fill-opacity:1;stroke-width:1;stroke-linecap:round;stroke-linejoin:round;stroke:rgb(90.196079%,0.784314%,70.588237%);stroke-opacity:1;stroke-miterlimit:4;" d="M 8.367188 9.796875 L 9.859375 11.242188 C 9.4375 12.169922 9.646484 13.261719 10.378906 13.970703 C 10.947266 14.517578 11.748047 14.75 12.521484 14.595703 C 12.017578 13.820312 11.328125 12.917969 11.908203 12.472656 C 12.988281 11.646484 13.173828 12.796875 14 13.640625 C 14.699219 12.669922 14.578125 11.333984 13.71875 10.503906 C 12.984375 9.796875 11.884766 9.630859 10.972656 10.085938 L 9.486328 8.634766 Z M 7.330078 6.576172 L 5.839844 5.140625 C 6.261719 4.212891 6.052734 3.121094 5.320312 2.412109 C 4.751953 1.867188 3.951172 1.632812 3.177734 1.787109 C 3.683594 2.5625 4.371094 3.464844 3.791016 3.910156 C 2.710938 4.736328 2.527344 3.585938 1.699219 2.742188 C 1 3.712891 1.121094 5.048828 1.980469 5.878906 C 2.714844 6.585938 3.814453 6.751953 4.726562 6.296875 L 6.175781 7.738281 Z M 7.330078 6.576172 " transform="matrix(2,0,0,2,0,0)"/>
<path style="fill-rule:nonzero;fill:rgb(95.294118%,71.764708%,85.09804%);fill-opacity:1;stroke-width:1;stroke-linecap:round;stroke-linejoin:round;stroke:rgb(61.56863%,22.745098%,60.784316%);stroke-opacity:1;stroke-miterlimit:4;" d="M 9.5 4.5 C 12.351562 1.693359 13.064453 0.992188 14.115234 2.0625 C 15.167969 3.130859 14.455078 3.832031 11.603516 6.638672 Z M 9.5 4.5 " transform="matrix(2,0,0,2,0,0)"/>
<path style="fill-rule:nonzero;fill:rgb(95.294118%,71.764708%,85.09804%);fill-opacity:1;stroke-width:1;stroke-linecap:butt;stroke-linejoin:miter;stroke:rgb(61.56863%,22.745098%,60.784316%);stroke-opacity:1;stroke-miterlimit:4;" d="M 10.552734 5.568359 L 14.115234 2.0625 " transform="matrix(2,0,0,2,0,0)"/>
<path style="fill-rule:nonzero;fill:rgb(95.294118%,71.764708%,85.09804%);fill-opacity:1;stroke-width:1;stroke-linecap:butt;stroke-linejoin:round;stroke:rgb(61.56863%,22.745098%,60.784316%);stroke-opacity:1;stroke-miterlimit:4;" d="M 9.5 4.5 L 11.603516 6.638672 L 10.535156 7.689453 L 8.431641 5.552734 Z M 9.5 4.5 " transform="matrix(2,0,0,2,0,0)"/>
<path style=" stroke:none;fill-rule:nonzero;fill:rgb(61.56863%,22.745098%,60.784316%);fill-opacity:1;" d="M 18.265625 12.53125 L 6.859375 23.753906 L 4.023438 25.144531 L 2.226562 29.023438 L 2.925781 29.734375 L 6.828125 27.996094 L 8.265625 25.179688 L 19.667969 13.957031 Z M 18.265625 12.53125 "/>
</g>
</svg>
