<?xml version="1.0" encoding="UTF-8"?>
<svg xmlns="http://www.w3.org/2000/svg" xmlns:xlink="http://www.w3.org/1999/xlink" width="32px" height="32px" viewBox="0 0 32 32" version="1.1">
<defs>
<filter id="alpha" filterUnits="objectBoundingBox" x="0%" y="0%" width="100%" height="100%">
  <feColorMatrix type="matrix" in="SourceGraphic" values="0 0 0 0 1 0 0 0 0 1 0 0 0 0 1 0 0 0 1 0"/>
</filter>
<mask id="mask0">
  <g filter="url(#alpha)">
<rect x="0" y="0" width="32" height="32" style="fill:rgb(0%,0%,0%);fill-opacity:0.35;stroke:none;"/>
  </g>
</mask>
<clipPath id="clip1">
  <rect x="0" y="0" width="32" height="32"/>
</clipPath>
<g id="surface5" clip-path="url(#clip1)">
<path style=" stroke:none;fill-rule:nonzero;fill:rgb(33.333334%,34.117648%,32.549021%);fill-opacity:1;" d="M 26 22 C 24.894531 22 24 22.894531 24 24 C 24 25.105469 24.894531 26 26 26 C 27.105469 26 28 25.105469 28 24 C 28 22.894531 27.105469 22 26 22 Z M 26 22 "/>
</g>
</defs>
<g id="surface1">
<path style=" stroke:none;fill-rule:nonzero;fill:rgb(33.333334%,34.117648%,32.549021%);fill-opacity:1;" d="M 6 6 L 6 10 L 14 10 L 14 26 L 20.351562 26 C 21.199219 28.394531 23.460938 29.996094 26 30 C 29.3125 30 32 27.3125 32 24 C 32 20.6875 29.3125 18 26 18 C 23.457031 18 21.195312 19.605469 20.347656 22 L 18 22 L 18 6 Z M 26 22 C 27.105469 22 28 22.894531 28 24 C 28 25.105469 27.105469 26 26 26 C 24.894531 26 24 25.105469 24 24 C 24 22.894531 24.894531 22 26 22 Z M 26 22 "/>
<use xlink:href="#surface5" mask="url(#mask0)"/>
</g>
</svg>
