<?xml version="1.0" encoding="UTF-8"?>
<svg xmlns="http://www.w3.org/2000/svg" xmlns:xlink="http://www.w3.org/1999/xlink" width="32px" height="32px" viewBox="0 0 32 32" version="1.1">
<defs>
<filter id="alpha" filterUnits="objectBoundingBox" x="0%" y="0%" width="100%" height="100%">
  <feColorMatrix type="matrix" in="SourceGraphic" values="0 0 0 0 1 0 0 0 0 1 0 0 0 0 1 0 0 0 1 0"/>
</filter>
<mask id="mask0">
  <g filter="url(#alpha)">
<rect x="0" y="0" width="32" height="32" style="fill:rgb(0%,0%,0%);fill-opacity:0.35;stroke:none;"/>
  </g>
</mask>
<clipPath id="clip1">
  <rect x="0" y="0" width="32" height="32"/>
</clipPath>
<g id="surface5" clip-path="url(#clip1)">
<path style=" stroke:none;fill-rule:nonzero;fill:rgb(33.333334%,34.117648%,32.549021%);fill-opacity:1;" d="M 8 6 C 6.894531 6 6 6.894531 6 8 C 6 9.105469 6.894531 10 8 10 C 9.105469 10 10 9.105469 10 8 C 10 6.894531 9.105469 6 8 6 Z M 8 6 "/>
</g>
</defs>
<g id="surface1">
<path style=" stroke:none;fill-rule:nonzero;fill:rgb(33.333334%,34.117648%,32.549021%);fill-opacity:1;" d="M 8 2 C 4.6875 2 2 4.6875 2 8 C 2 11.3125 4.6875 14 8 14 C 8.894531 14 9.777344 13.796875 10.582031 13.410156 L 23.171875 26 L 18 26 L 16 28 L 18 30 L 30 30 L 30 18 L 28 16 L 26 18 L 26 23.171875 L 13.410156 10.582031 C 13.796875 9.777344 14 8.894531 14 8 C 14 4.6875 11.3125 2 8 2 Z M 8 6 C 9.105469 6 10 6.894531 10 8 C 10 9.105469 9.105469 10 8 10 C 6.894531 10 6 9.105469 6 8 C 6 6.894531 6.894531 6 8 6 Z M 8 6 "/>
<use xlink:href="#surface5" mask="url(#mask0)"/>
</g>
</svg>
