<?xml version="1.0" encoding="UTF-8"?>
<svg xmlns="http://www.w3.org/2000/svg" xmlns:xlink="http://www.w3.org/1999/xlink" width="32px" height="32px" viewBox="0 0 32 32" version="1.1">
<defs>
<filter id="alpha" filterUnits="objectBoundingBox" x="0%" y="0%" width="100%" height="100%">
  <feColorMatrix type="matrix" in="SourceGraphic" values="0 0 0 0 1 0 0 0 0 1 0 0 0 0 1 0 0 0 1 0"/>
</filter>
<mask id="mask0">
  <g filter="url(#alpha)">
<rect x="0" y="0" width="32" height="32" style="fill:rgb(0%,0%,0%);fill-opacity:0.35;stroke:none;"/>
  </g>
</mask>
<clipPath id="clip1">
  <rect x="0" y="0" width="32" height="32"/>
</clipPath>
<g id="surface5" clip-path="url(#clip1)">
<path style=" stroke:none;fill-rule:nonzero;fill:rgb(33.333334%,34.117648%,32.549021%);fill-opacity:1;" d="M 6 6 L 12 26 L 26 26 L 26 6 Z M 6 6 "/>
</g>
</defs>
<g id="surface1">
<path style=" stroke:none;fill-rule:nonzero;fill:rgb(33.333334%,34.117648%,32.549021%);fill-opacity:1;" d="M 6 2 C 3.789062 2 2 3.789062 2 6 C 2.054688 7.855469 3.378906 9.429688 5.199219 9.800781 L 9.199219 23.199219 C 8.445312 23.9375 8.015625 24.945312 8 26 C 8 28.210938 9.789062 30 12 30 C 13.40625 29.976562 14.695312 29.21875 15.398438 28 L 22.601562 28 C 23.304688 29.21875 24.59375 29.976562 26 30 C 28.210938 30 30 28.210938 30 26 C 29.976562 24.59375 29.21875 23.304688 28 22.601562 L 28 9.398438 C 29.21875 8.695312 29.976562 7.40625 30 6 C 30 3.789062 28.210938 2 26 2 C 24.59375 2.023438 23.304688 2.78125 22.601562 4 L 9.398438 4 C 8.695312 2.78125 7.40625 2.023438 6 2 Z M 9.398438 8 L 22.601562 8 C 22.941406 8.578125 23.421875 9.058594 24 9.398438 L 24 22.601562 C 23.421875 22.941406 22.941406 23.421875 22.601562 24 L 15.398438 24 C 14.859375 22.992188 13.914062 22.265625 12.800781 22 L 9 8.800781 C 9.164062 8.550781 9.296875 8.28125 9.398438 8 Z M 9.398438 8 "/>
<use xlink:href="#surface5" mask="url(#mask0)"/>
</g>
</svg>
