<?xml version="1.0" encoding="UTF-8"?>
<svg xmlns="http://www.w3.org/2000/svg" xmlns:xlink="http://www.w3.org/1999/xlink" width="32px" height="32px" viewBox="0 0 32 32" version="1.1">
<defs>
<filter id="alpha" filterUnits="objectBoundingBox" x="0%" y="0%" width="100%" height="100%">
  <feColorMatrix type="matrix" in="SourceGraphic" values="0 0 0 0 1 0 0 0 0 1 0 0 0 0 1 0 0 0 1 0"/>
</filter>
<mask id="mask0">
  <g filter="url(#alpha)">
<rect x="0" y="0" width="32" height="32" style="fill:rgb(0%,0%,0%);fill-opacity:0.35;stroke:none;"/>
  </g>
</mask>
<clipPath id="clip1">
  <rect x="0" y="0" width="32" height="32"/>
</clipPath>
<g id="surface5" clip-path="url(#clip1)">
<path style=" stroke:none;fill-rule:nonzero;fill:rgb(33.333334%,34.117648%,32.549021%);fill-opacity:1;" d="M 6 6 C 4.894531 6 4 6.894531 4 8 C 4 9.105469 4.894531 10 6 10 C 7.105469 10 8 9.105469 8 8 C 8 6.894531 7.105469 6 6 6 Z M 26 24 C 24.894531 24 24 24.894531 24 26 C 24 27.105469 24.894531 28 26 28 C 27.105469 28 28 27.105469 28 26 C 28 24.894531 27.105469 24 26 24 Z M 26 24 "/>
</g>
</defs>
<g id="surface1">
<path style=" stroke:none;fill-rule:nonzero;fill:rgb(33.333334%,34.117648%,32.549021%);fill-opacity:1;" d="M 6 2 C 2.6875 2 0 4.6875 0 8 C 0 11.3125 2.6875 14 6 14 C 8.542969 14 10.804688 12.394531 11.652344 10 C 11.773438 10 11.878906 10 12 10 C 15.152344 10.003906 18.496094 9.996094 21.148438 10 C 15.367188 14 10.570312 18 6.855469 22.035156 C 6.097656 22.777344 5.402344 23.417969 5.289062 24.757812 C 5.234375 25.425781 5.507812 26.242188 5.945312 26.734375 C 6.382812 27.226562 6.84375 27.496094 7.296875 27.621094 C 8.675781 28 10.980469 28.03125 13.773438 28 C 15.054688 27.984375 17.984375 27.996094 20.351562 28 C 21.199219 30.394531 23.460938 31.996094 26 32 C 29.3125 32 32 29.3125 32 26 C 32 22.6875 29.3125 20 26 20 C 23.457031 20 21.195312 21.605469 20.347656 24 C 17.179688 24.003906 13.160156 24.011719 10.925781 24 C 14 19.410156 20 16 25.160156 11.980469 C 25.925781 11.253906 26.574219 10.65625 26.792969 9.425781 C 26.902344 8.8125 26.75 7.988281 26.355469 7.433594 C 25.960938 6.878906 25.472656 6.582031 25.039062 6.410156 C 24 6 21.585938 5.96875 19.070312 6 C 17.109375 6.023438 14.5625 6.007812 12 6 C 11.871094 6 11.777344 6 11.648438 6 C 10.800781 3.605469 8.539062 2.003906 6 2 Z M 6 6 C 7.105469 6 8 6.894531 8 8 C 8 9.105469 7.105469 10 6 10 C 4.894531 10 4 9.105469 4 8 C 4 6.894531 4.894531 6 6 6 Z M 26 24 C 27.105469 24 28 24.894531 28 26 C 28 27.105469 27.105469 28 26 28 C 24.894531 28 24 27.105469 24 26 C 24 24.894531 24.894531 24 26 24 Z M 26 24 "/>
<use xlink:href="#surface5" mask="url(#mask0)"/>
</g>
</svg>
