<?xml version="1.0" encoding="UTF-8"?>
<svg xmlns="http://www.w3.org/2000/svg" xmlns:xlink="http://www.w3.org/1999/xlink" width="32px" height="32px" viewBox="0 0 32 32" version="1.1">
<defs>
<filter id="alpha" filterUnits="objectBoundingBox" x="0%" y="0%" width="100%" height="100%">
  <feColorMatrix type="matrix" in="SourceGraphic" values="0 0 0 0 1 0 0 0 0 1 0 0 0 0 1 0 0 0 1 0"/>
</filter>
<mask id="mask0">
  <g filter="url(#alpha)">
<rect x="0" y="0" width="32" height="32" style="fill:rgb(0%,0%,0%);fill-opacity:0.35;stroke:none;"/>
  </g>
</mask>
<clipPath id="clip1">
  <rect x="0" y="0" width="32" height="32"/>
</clipPath>
<g id="surface5" clip-path="url(#clip1)">
<path style=" stroke:none;fill-rule:nonzero;fill:rgb(33.333334%,34.117648%,32.549021%);fill-opacity:1;" d="M 6 6 C 4.894531 6 4 6.894531 4 8 C 4 9.105469 4.894531 10 6 10 C 7.105469 10 8 9.105469 8 8 C 8 6.894531 7.105469 6 6 6 Z M 6 6 "/>
</g>
</defs>
<g id="surface1">
<path style=" stroke:none;fill-rule:nonzero;fill:rgb(33.333334%,34.117648%,32.549021%);fill-opacity:1;" d="M 6 2 C 2.6875 2 0 4.6875 0 8 C 0 11.3125 2.6875 14 6 14 C 8.542969 14 10.804688 12.394531 11.652344 10 C 11.773438 10 11.878906 10 12 10 C 15.152344 10.003906 18.496094 9.996094 21.148438 10 C 19.886719 11.035156 18.238281 12.246094 14.941406 14.304688 C 10.902344 16.828125 8.375 18.554688 6.855469 20.035156 C 6.097656 20.777344 5.402344 21.417969 5.289062 22.757812 C 5.234375 23.425781 5.507812 24.242188 5.945312 24.734375 C 6.382812 25.226562 6.84375 25.496094 7.296875 25.621094 C 8.675781 26 10.980469 26.03125 13.773438 26 C 15.472656 25.980469 17.839844 25.992188 20 26 C 21.265625 26.003906 22.246094 26 23.644531 26 L 20.625 28.5625 C 20.257812 28.941406 20 29.484375 20 30 L 20 32 L 22 32 C 22.617188 32 23.105469 31.820312 23.5 31.4375 C 26.332031 29.292969 29.167969 26.144531 32 24 L 23.5 16.5625 C 23.105469 16.179688 22.617188 16 22 16 L 20 16 L 20 18 C 20 18.515625 20.257812 19.058594 20.625 19.4375 L 23.644531 22 C 22.414062 21.992188 21.253906 22 20 22 C 16.882812 22.003906 13.671875 22.015625 10.925781 22 C 12.164062 20.976562 13.78125 19.742188 17.058594 17.695312 C 21.097656 15.171875 23.628906 13.4375 25.160156 11.980469 C 25.925781 11.253906 26.574219 10.65625 26.792969 9.425781 C 26.902344 8.8125 26.75 7.988281 26.355469 7.433594 C 25.960938 6.878906 25.472656 6.582031 25.039062 6.410156 C 24 6 21.585938 5.96875 19.070312 6 C 17.109375 6.023438 14.5625 6.007812 12 6 C 11.871094 6 11.777344 6 11.648438 6 C 10.800781 3.605469 8.539062 2.003906 6 2 Z M 6 6 C 7.105469 6 8 6.894531 8 8 C 8 9.105469 7.105469 10 6 10 C 4.894531 10 4 9.105469 4 8 C 4 6.894531 4.894531 6 6 6 Z M 6 6 "/>
<use xlink:href="#surface5" mask="url(#mask0)"/>
</g>
</svg>
