<?xml version="1.0" encoding="UTF-8"?>
<svg xmlns="http://www.w3.org/2000/svg" xmlns:xlink="http://www.w3.org/1999/xlink" width="32px" height="32px" viewBox="0 0 32 32" version="1.1">
<defs>
<filter id="alpha" filterUnits="objectBoundingBox" x="0%" y="0%" width="100%" height="100%">
  <feColorMatrix type="matrix" in="SourceGraphic" values="0 0 0 0 1 0 0 0 0 1 0 0 0 0 1 0 0 0 1 0"/>
</filter>
<mask id="mask0">
  <g filter="url(#alpha)">
<rect x="0" y="0" width="32" height="32" style="fill:rgb(0%,0%,0%);fill-opacity:0.35;stroke:none;"/>
  </g>
</mask>
<clipPath id="clip1">
  <rect x="0" y="0" width="32" height="32"/>
</clipPath>
<g id="surface5" clip-path="url(#clip1)">
<path style=" stroke:none;fill-rule:nonzero;fill:rgb(33.333334%,34.117648%,32.549021%);fill-opacity:1;" d="M 6 6 C 4.894531 6 4 6.894531 4 8 C 4 9.105469 4.894531 10 6 10 C 7.105469 10 8 9.105469 8 8 C 8 6.894531 7.105469 6 6 6 Z M 6 6 "/>
</g>
</defs>
<g id="surface1">
<path style=" stroke:none;fill-rule:nonzero;fill:rgb(33.333334%,34.117648%,32.549021%);fill-opacity:1;" d="M 6 2 C 2.6875 2 0 4.6875 0 8 C 0 11.3125 2.6875 14 6 14 C 8.542969 14 10.804688 12.394531 11.652344 10 L 14 10 L 14 26 L 23.644531 26 L 20.625 28.5625 C 20.257812 28.941406 20 29.484375 20 30 L 20 32 L 22 32 C 22.617188 32 23.105469 31.820312 23.5 31.4375 C 26.332031 29.292969 29.167969 26.144531 32 24 L 23.5 16.5625 C 23.105469 16.179688 22.617188 16 22 16 L 20 16 L 20 18 C 20 18.515625 20.257812 19.058594 20.625 19.4375 L 23.644531 22 L 18 22 L 18 6 L 11.648438 6 C 10.800781 3.605469 8.539062 2.003906 6 2 Z M 6 6 C 7.105469 6 8 6.894531 8 8 C 8 9.105469 7.105469 10 6 10 C 4.894531 10 4 9.105469 4 8 C 4 6.894531 4.894531 6 6 6 Z M 6 6 "/>
<use xlink:href="#surface5" mask="url(#mask0)"/>
</g>
</svg>
