<?xml version="1.0" encoding="UTF-8"?>
<svg xmlns="http://www.w3.org/2000/svg" xmlns:xlink="http://www.w3.org/1999/xlink" width="32px" height="32px" viewBox="0 0 32 32" version="1.1">
<g id="surface1">
<path style=" stroke:none;fill-rule:nonzero;fill:rgb(33.333334%,34.117648%,32.549021%);fill-opacity:1;" d="M 2 4 C 0.890625 4 0 4.890625 0 6 L 0 22 C 0 23.109375 0.890625 24 2 24 L 16 24 L 16 22 L 20.855469 22 L 21.445312 22.617188 C 22.25 23.457031 22.585938 23.152344 22.875 22.882812 C 23.164062 22.613281 23.539062 22.40625 22.558594 21.386719 L 22 20.804688 L 22 20 L 19 20 C 18.445312 20 18 19.554688 18 19 L 18 9 C 18 8.445312 18.445312 8 19 8 C 19.554688 8 20 8.445312 20 9 L 20 12 L 24 12 C 26.210938 12 28 13.789062 28 16 C 28 16.375 27.945312 16.75 27.839844 17.113281 C 29.359375 18.890625 30 20.894531 30 22.800781 L 30 24 C 31.109375 24 32 23.109375 32 22 L 32 6 C 32 4.890625 31.109375 4 30 4 Z M 7 10 L 13 10 C 13.554688 10 14 10.445312 14 11 L 14 19 C 14 19.414062 13.75 19.769531 13.390625 20 L 7 20 C 5.34375 20 4 18.65625 4 17 C 4 15.34375 5.34375 14 7 14 L 12 14 L 12 12 L 7 12 C 6.445312 12 6 11.554688 6 11 C 6 10.445312 6.445312 10 7 10 Z M 20 14 L 20 18 L 22 18 L 22 16 L 26 16 C 26 14.894531 25.105469 14 24 14 Z M 7 16 C 6.449219 16 6 16.449219 6 17 C 6 17.550781 6.449219 18 7 18 L 12 18 L 12 16 Z M 7 16 "/>
<path style=" stroke:none;fill-rule:nonzero;fill:rgb(33.333334%,34.117648%,32.549021%);fill-opacity:1;" d="M 24 18 L 24 20 C 27.121094 23.246094 22.867188 26.996094 20 24 L 18 24 L 18 26 C 19.601562 27.542969 21.269531 28 22.800781 28 L 26 28 L 30 32 L 32 32 L 32 30 L 28 26 L 28 22.800781 C 28 21.035156 27.570312 19.601562 26 18 Z M 24 18 "/>
</g>
</svg>
