<?xml version="1.0" encoding="UTF-8"?>
<svg xmlns="http://www.w3.org/2000/svg" xmlns:xlink="http://www.w3.org/1999/xlink" width="32px" height="32px" viewBox="0 0 32 32" version="1.1">
<g id="surface1">
<path style=" stroke:none;fill-rule:nonzero;fill:rgb(33.333334%,34.117648%,32.549021%);fill-opacity:1;" d="M 22 2 C 17.582031 2 14 5.582031 14 10 C 14 14.417969 17.582031 18 22 18 C 26.417969 18 30 14.417969 30 10 C 30 5.582031 26.417969 2 22 2 Z M 22 6 C 24.210938 6 26 7.789062 26 10 C 26 12.210938 24.210938 14 22 14 C 19.789062 14 18 12.210938 18 10 C 18 7.789062 19.789062 6 22 6 Z M 10 14 L 2 22 L 2 27.191406 L 10.296875 19.359375 L 19.5 26.722656 L 24 24.472656 L 30 28 L 30 24 L 24 20 L 20 22 Z M 10 14 "/>
</g>
</svg>
