<?xml version="1.0" encoding="UTF-8"?>
<svg xmlns="http://www.w3.org/2000/svg" xmlns:xlink="http://www.w3.org/1999/xlink" width="32px" height="32px" viewBox="0 0 32 32" version="1.1">
<g id="surface1">
<path style=" stroke:none;fill-rule:nonzero;fill:rgb(33.333334%,34.117648%,32.549021%);fill-opacity:1;" d="M 10 0 L 2 8 L 2 12 L 20 12 L 20 30 L 24 30 L 32 22 L 32 0 Z M 11.65625 4 L 25.171875 4 L 21.171875 8 L 7.65625 8 Z M 28 6.828125 L 28 20.34375 L 24 24.34375 L 24 10.828125 Z M 0 16 L 0 18 C 0 22.417969 3.582031 26 8 26 L 11.644531 26 L 8.625 28.5625 C 8.257812 28.941406 8 29.484375 8 30 L 8 32 L 10 32 C 10.617188 32 11.105469 31.820312 11.5 31.4375 L 18 25.75 L 18 22.339844 C 15.832031 20.421875 13.667969 18.203125 11.5 16.5625 C 11.105469 16.179688 10.617188 16 10 16 L 8 16 L 8 18 C 8 18.515625 8.257812 19.058594 8.625 19.4375 L 11.644531 22 L 8 22 C 5.789062 22 4 20.210938 4 18 L 4 16 Z M 0 16 "/>
</g>
</svg>
