<?xml version="1.0" encoding="UTF-8"?>
<svg xmlns="http://www.w3.org/2000/svg" xmlns:xlink="http://www.w3.org/1999/xlink" width="32px" height="32px" viewBox="0 0 32 32" version="1.1">
<g id="surface1">
<path style=" stroke:none;fill-rule:nonzero;fill:rgb(33.333334%,34.117648%,32.549021%);fill-opacity:1;" d="M 12 4 C 8.6875 4 6 6.6875 6 10 L 6 12 L 2 14 L 2 16 L 6 16 L 6 22 C 6 23.105469 5.105469 24 4 24 C 2.894531 24 2 23.105469 2 22 L 0 22 L 0 26.441406 C 1.0625 27.398438 2.457031 28 4 28 C 7.3125 28 10 25.3125 10 22 L 10 16 L 14 14 L 14 12 L 10 12 L 10 10 C 10 8.925781 10.742188 8 12 8 C 13.105469 8 14 8.894531 14 10 L 16 10 L 16 5.558594 C 14.9375 4.601562 13.542969 4 12 4 Z M 18 6 L 18 10 L 26 10 C 27.105469 10 28 10.894531 28 12 L 28 14 L 20 14 C 16.6875 14 14 16.6875 14 20 C 14 23.3125 16.6875 26 20 26 L 32 26 L 32 12 C 32 8.6875 29.3125 6 26 6 Z M 20 18 L 28 18 L 28 22 L 20 22 C 18.894531 22 18 21.105469 18 20 C 18 18.894531 18.894531 18 20 18 Z M 20 18 "/>
</g>
</svg>
