<?xml version="1.0" encoding="UTF-8"?>
<svg xmlns="http://www.w3.org/2000/svg" xmlns:xlink="http://www.w3.org/1999/xlink" width="32px" height="32px" viewBox="0 0 32 32" version="1.1">
<g id="surface1">
<path style=" stroke:none;fill-rule:nonzero;fill:rgb(33.333334%,34.117648%,32.549021%);fill-opacity:1;" d="M 12 0 C 7.601562 0 4 3.601562 4 8 L 4 9.199219 L 3.398438 8.601562 C 3 8.199219 2.601562 8 2 8 L 0 8 L 0 10 C 0 10.601562 0.199219 11 0.601562 11.398438 L 4.601562 15.398438 L 5.199219 16 L 6.875 16 L 7.398438 15.398438 L 11.398438 11.398438 C 11.800781 11 12 10.601562 12 10 L 12 8 L 10 8 C 9.398438 8 9 8.199219 8.601562 8.601562 L 8 9.199219 L 8 8 C 8 5.800781 9.800781 4 12 4 C 14.199219 4 16 5.800781 16 8 L 20 8 C 20 3.601562 16.398438 0 12 0 Z M 26 2 C 24.59375 2.023438 23.304688 2.78125 22.601562 4 L 22 4 L 22 8 L 22.601562 8 C 22.941406 8.578125 23.421875 9.058594 24 9.398438 L 24 22.601562 C 23.421875 22.941406 22.941406 23.421875 22.601562 24 L 15.398438 24 C 14.859375 22.992188 13.914062 22.265625 12.800781 22 L 11.601562 18 L 7.601562 18 L 9.199219 23.199219 C 8.445312 23.9375 8.015625 24.945312 8 26 C 8 28.210938 9.789062 30 12 30 C 13.40625 29.976562 14.695312 29.21875 15.398438 28 L 22.601562 28 C 23.304688 29.21875 24.59375 29.976562 26 30 C 28.210938 30 30 28.210938 30 26 C 29.976562 24.59375 29.21875 23.304688 28 22.601562 L 28 9.398438 C 29.21875 8.695312 29.976562 7.40625 30 6 C 30 3.789062 28.210938 2 26 2 Z M 26 2 "/>
</g>
</svg>
