<?xml version="1.0" encoding="UTF-8"?>
<svg xmlns="http://www.w3.org/2000/svg" xmlns:xlink="http://www.w3.org/1999/xlink" width="32px" height="32px" viewBox="0 0 32 32" version="1.1">
<g id="surface1">
<path style="fill-rule:nonzero;fill:rgb(95.294118%,71.764708%,85.09804%);fill-opacity:1;stroke-width:0.25056;stroke-linecap:round;stroke-linejoin:round;stroke:rgb(61.56863%,23.137255%,60.784316%);stroke-opacity:0.905882;stroke-miterlimit:4;" d="M -23.956339 0.157571 L -16.473917 0.157571 C -16.32548 0.157571 -16.204386 0.286477 -16.204386 0.446634 L -16.204386 7.884134 C -16.204386 8.04429 -16.32548 8.173196 -16.473917 8.173196 L -23.956339 8.173196 C -24.104776 8.173196 -24.22587 8.04429 -24.22587 7.884134 L -24.22587 0.446634 C -24.22587 0.286477 -24.104776 0.157571 -23.956339 0.157571 Z M -23.956339 0.157571 " transform="matrix(0.000000000000000122,-2,2,0.000000000000000122,-0.0651423,-32.158772)"/>
<path style="fill-rule:nonzero;fill:rgb(94.117647%,89.019608%,92.54902%);fill-opacity:0.905882;stroke-width:0.25056;stroke-linecap:round;stroke-linejoin:round;stroke:rgb(90.588236%,0.392157%,70.588237%);stroke-opacity:0.905882;stroke-miterlimit:4;" d="M 14.876321 19.936808 C 14.380227 19.95048 13.970071 20.32548 13.911477 20.817667 C 13.923196 20.706339 13.692727 21.278605 13.198587 21.841105 C 12.704446 22.401651 12.009134 23.057901 11.272806 23.671183 C 10.536477 24.284464 9.753274 24.858683 9.089212 25.274698 C 8.423196 25.690714 7.784524 25.921183 7.774759 25.923136 C 7.270852 25.98173 6.889993 26.409464 6.889993 26.917276 L 6.889993 30.952433 C 6.889993 31.22587 7.003274 31.489542 7.202493 31.678995 C 7.403665 31.868448 7.671243 31.968058 7.946634 31.952433 C 12.227884 31.720011 15.663431 28.284464 15.897806 23.999308 C 15.899759 23.98173 15.899759 23.964151 15.899759 23.946573 L 15.907571 20.938761 C 15.907571 20.66923 15.798196 20.409464 15.604837 20.220011 C 15.409524 20.030558 15.147806 19.928995 14.876321 19.936808 Z M 14.876321 19.936808 " transform="matrix(2,0,0,2,-0.0651423,-32.158772)"/>
<path style="fill-rule:evenodd;fill:rgb(90.196079%,0.784314%,70.588237%);fill-opacity:0.905882;stroke-width:0.250088;stroke-linecap:round;stroke-linejoin:round;stroke:rgb(64.313728%,28.627452%,63.529414%);stroke-opacity:0.988235;stroke-miterlimit:4;" d="M 7.124368 30.272745 L 3.343118 31.282511 L 3.100931 30.620401 L 4.620462 29.665323 C 0.364602 27.690714 0.255227 24.79423 1.276712 22.442667 L 2.20054 22.905558 C 1.507181 24.796183 1.288431 27.014933 5.042337 28.755167 L 4.778665 26.999308 L 5.448587 26.733683 Z M 7.124368 30.272745 " transform="matrix(2,0,0,2,-0.0651423,-32.158772)"/>
</g>
</svg>
