<?xml version="1.0" encoding="UTF-8"?>
<svg xmlns="http://www.w3.org/2000/svg" xmlns:xlink="http://www.w3.org/1999/xlink" width="32px" height="32px" viewBox="0 0 32 32" version="1.1">
<g id="surface1">
<path style="fill-rule:nonzero;fill:rgb(94.117647%,89.019608%,92.54902%);fill-opacity:1;stroke-width:0.25;stroke-linecap:round;stroke-linejoin:round;stroke:rgb(61.960787%,22.745098%,61.176473%);stroke-opacity:1;stroke-miterlimit:4;" d="M -15.611897 32.947151 L -0.670457 32.947151 C -0.373582 32.947151 -0.1353 33.204964 -0.1353 33.521371 L -0.1353 48.380778 C -0.1353 48.697185 -0.373582 48.954998 -0.670457 48.954998 L -15.611897 48.954998 C -15.904866 48.954998 -16.147054 48.697185 -16.147054 48.380778 L -16.147054 33.521371 C -16.147054 33.204964 -15.904866 32.947151 -15.611897 32.947151 Z M -15.611897 32.947151 " transform="matrix(0.000000000000000061,-0.999998,0.999998,0.000000000000000061,-32.822078,-0.0102997)"/>
<path style="fill-rule:evenodd;fill:rgb(90.196079%,0.392157%,70.588237%);fill-opacity:1;stroke-width:0.25;stroke-linecap:round;stroke-linejoin:round;stroke:rgb(61.960787%,22.745098%,61.176473%);stroke-opacity:1;stroke-miterlimit:4;" d="M 46.67765 28.358018 L 39.130758 30.373648 L 38.646382 29.053332 L 41.677639 27.143172 C 33.181526 23.205663 32.958869 17.420494 35.001843 12.729078 L 36.845597 13.654861 C 35.462781 17.424401 35.02528 21.854098 42.52139 25.326762 L 41.994046 21.822848 L 43.333892 21.291597 Z M 46.67765 28.358018 " transform="matrix(0.999998,0,0,0.999998,-32.822078,-0.0102997)"/>
<path style="fill-rule:nonzero;fill:rgb(95.294118%,71.764708%,85.09804%);fill-opacity:1;stroke-width:0.25;stroke-linecap:round;stroke-linejoin:round;stroke:rgb(61.960787%,22.745098%,61.176473%);stroke-opacity:1;stroke-miterlimit:4;" d="M 54.638605 13.893143 L 54.638605 13.897049 C 53.736259 13.91658 52.958913 14.541582 52.740163 15.42049 C 52.189381 17.674401 50.470627 19.393155 48.197184 19.990812 C 47.349526 20.217375 46.747962 20.963471 46.7089 21.834567 L 46.704993 21.83066 L 46.704993 21.900973 C 46.704993 21.908785 46.704993 21.920504 46.704993 21.928317 L 46.704993 29.885366 C 46.704993 30.432242 46.931556 30.959587 47.329995 31.338494 C 47.728433 31.713495 48.263591 31.912714 48.814373 31.881464 C 52.904226 31.658807 56.892516 29.881459 59.79096 26.983015 C 62.689404 24.084572 64.470658 20.096281 64.693314 16.006429 C 64.724564 15.455646 64.525345 14.920489 64.150344 14.52205 C 63.771437 14.119706 63.244092 13.897049 62.697216 13.897049 L 54.68548 13.897049 Z M 54.638605 13.893143 " transform="matrix(0.999998,0,0,0.999998,-32.822078,-0.0102997)"/>
</g>
</svg>
