<?xml version="1.0" encoding="UTF-8"?>
<svg xmlns="http://www.w3.org/2000/svg" xmlns:xlink="http://www.w3.org/1999/xlink" width="32px" height="32px" viewBox="0 0 32 32" version="1.1">
<defs>
<filter id="alpha" filterUnits="objectBoundingBox" x="0%" y="0%" width="100%" height="100%">
  <feColorMatrix type="matrix" in="SourceGraphic" values="0 0 0 0 1 0 0 0 0 1 0 0 0 0 1 0 0 0 1 0"/>
</filter>
<mask id="mask0">
  <g filter="url(#alpha)">
<rect x="0" y="0" width="32" height="32" style="fill:rgb(0%,0%,0%);fill-opacity:0.75;stroke:none;"/>
  </g>
</mask>
<clipPath id="clip1">
  <rect x="0" y="0" width="32" height="32"/>
</clipPath>
<g id="surface5" clip-path="url(#clip1)">
<path style=" stroke:none;fill-rule:nonzero;fill:rgb(94.117647%,89.019608%,92.54902%);fill-opacity:1;" d="M 6 6.992188 L 6 23.007812 C 6 23.554688 6.445312 24 6.992188 24 L 23.007812 24 C 23.554688 24 24 23.554688 24 23.007812 L 24 6.992188 C 24 6.445312 23.554688 6 23.007812 6 L 6.992188 6 C 6.445312 6 6 6.445312 6 6.992188 Z M 6 6.992188 "/>
</g>
</defs>
<g id="surface1">
<path style=" stroke:none;fill-rule:nonzero;fill:rgb(61.56863%,22.745098%,60.784316%);fill-opacity:0.091954;" d="M 2.039062 6 L 23.960938 6 C 23.984375 6 24 6.019531 24 6.046875 L 24 29.953125 C 24 29.980469 23.984375 30 23.960938 30 L 2.039062 30 C 2.015625 30 2 29.980469 2 29.953125 L 2 6.046875 C 2 6.019531 2.015625 6 2.039062 6 Z M 2.039062 6 "/>
<use xlink:href="#surface5" mask="url(#mask0)"/>
<path style=" stroke:none;fill-rule:evenodd;fill:rgb(61.56863%,22.745098%,60.784316%);fill-opacity:1;" d="M 8 8.300781 L 8 21.699219 C 8 21.867188 8.160156 22 8.359375 22 L 21.640625 22 C 21.839844 22 22 21.867188 22 21.699219 L 22 8.300781 C 22 8.132812 21.839844 8 21.640625 8 L 8.359375 8 C 8.160156 8 8 8.132812 8 8.300781 Z M 8 8.300781 "/>
<path style=" stroke:none;fill-rule:nonzero;fill:rgb(61.56863%,22.745098%,60.784316%);fill-opacity:1;" d="M 24 16.03125 L 24 18 L 22 18 L 22 16.03125 Z M 24 16.03125 "/>
<path style=" stroke:none;fill-rule:evenodd;fill:rgb(90.196079%,0.784314%,70.588237%);fill-opacity:1;" d="M 0.0507812 32 L 3.949219 32 C 3.976562 32 4 31.972656 4 31.9375 L 4 28.0625 C 4 28.027344 3.976562 28 3.949219 28 L 0.0507812 28 C 0.0234375 28 0 28.027344 0 28.0625 L 0 31.9375 C 0 31.972656 0.0234375 32 0.0507812 32 Z M 0.0507812 32 "/>
<path style=" stroke:none;fill-rule:nonzero;fill:rgb(90.196079%,0.784314%,70.588237%);fill-opacity:1;" d="M 22.050781 32 L 25.949219 32 C 25.976562 32 26 31.972656 26 31.9375 L 26 28.0625 C 26 28.027344 25.976562 28 25.949219 28 L 22.050781 28 C 22.023438 28 22 28.027344 22 28.0625 L 22 31.9375 C 22 31.972656 22.023438 32 22.050781 32 Z M 22.050781 32 "/>
<path style=" stroke:none;fill-rule:nonzero;fill:rgb(90.196079%,0.784314%,70.588237%);fill-opacity:1;" d="M 0.0507812 8 L 3.949219 8 C 3.976562 8 4 7.972656 4 7.9375 L 4 4.0625 C 4 4.027344 3.976562 4 3.949219 4 L 0.0507812 4 C 0.0234375 4 0 4.027344 0 4.0625 L 0 7.9375 C 0 7.972656 0.0234375 8 0.0507812 8 Z M 0.0507812 8 "/>
<path style=" stroke:none;fill-rule:nonzero;fill:rgb(61.56863%,22.745098%,60.784316%);fill-opacity:1;" d="M 24 20.03125 L 24 22 L 22 22 L 22 20.03125 Z M 24 20.03125 "/>
<path style=" stroke:none;fill-rule:nonzero;fill:rgb(61.56863%,22.745098%,60.784316%);fill-opacity:1;" d="M 24.039062 24.03125 L 24.039062 26 L 22.039062 26 L 22.039062 24.03125 Z M 24.039062 24.03125 "/>
<path style=" stroke:none;fill-rule:nonzero;fill:rgb(61.56863%,22.745098%,60.784316%);fill-opacity:1;" d="M 20 28.03125 L 20 30 L 18 30 L 18 28.03125 Z M 20 28.03125 "/>
<path style=" stroke:none;fill-rule:nonzero;fill:rgb(61.56863%,22.745098%,60.784316%);fill-opacity:1;" d="M 16 28.03125 L 16 30 L 14 30 L 14 28.03125 Z M 16 28.03125 "/>
<path style=" stroke:none;fill-rule:nonzero;fill:rgb(61.56863%,22.745098%,60.784316%);fill-opacity:1;" d="M 12 28.03125 L 12 30 L 10 30 L 10 28.03125 Z M 12 28.03125 "/>
<path style=" stroke:none;fill-rule:nonzero;fill:rgb(61.56863%,22.745098%,60.784316%);fill-opacity:1;" d="M 8 28.03125 L 8 30 L 6 30 L 6 28.03125 Z M 8 28.03125 "/>
<path style=" stroke:none;fill-rule:nonzero;fill:rgb(61.56863%,22.745098%,60.784316%);fill-opacity:1;" d="M 20 6 L 20 7.96875 L 18 7.96875 L 18 6 Z M 20 6 "/>
<path style=" stroke:none;fill-rule:nonzero;fill:rgb(61.56863%,22.745098%,60.784316%);fill-opacity:1;" d="M 16 6 L 16 7.96875 L 14 7.96875 L 14 6 Z M 16 6 "/>
<path style=" stroke:none;fill-rule:nonzero;fill:rgb(61.56863%,22.745098%,60.784316%);fill-opacity:1;" d="M 12 6 L 12 7.96875 L 10 7.96875 L 10 6 Z M 12 6 "/>
<path style=" stroke:none;fill-rule:nonzero;fill:rgb(61.56863%,22.745098%,60.784316%);fill-opacity:1;" d="M 8 6 L 8 7.96875 L 6 7.96875 L 6 6 Z M 8 6 "/>
<path style=" stroke:none;fill-rule:nonzero;fill:rgb(61.56863%,22.745098%,60.784316%);fill-opacity:1;" d="M 3.96875 26 L 2 26 L 2 24 L 3.96875 24 Z M 3.96875 26 "/>
<path style=" stroke:none;fill-rule:nonzero;fill:rgb(61.56863%,22.745098%,60.784316%);fill-opacity:1;" d="M 3.96875 22 L 2 22 L 2 20 L 3.96875 20 Z M 3.96875 22 "/>
<path style=" stroke:none;fill-rule:nonzero;fill:rgb(61.56863%,22.745098%,60.784316%);fill-opacity:1;" d="M 3.96875 18 L 2 18 L 2 16 L 3.96875 16 Z M 3.96875 18 "/>
<path style=" stroke:none;fill-rule:nonzero;fill:rgb(61.56863%,22.745098%,60.784316%);fill-opacity:1;" d="M 3.96875 14 L 2 14 L 2 12 L 3.96875 12 Z M 3.96875 14 "/>
<path style="fill-rule:nonzero;fill:rgb(95.294118%,71.764708%,85.09804%);fill-opacity:1;stroke-width:0.25;stroke-linecap:round;stroke-linejoin:round;stroke:rgb(90.196079%,0.784314%,70.588237%);stroke-opacity:1;stroke-miterlimit:4;" d="M 19.507252 13.353571 L 28.647877 9.089899 L 29.095142 8.486383 L 25.757252 6.255915 L 24.93108 6.488337 L 20.001392 12.195368 Z M 19.507252 13.353571 " transform="matrix(2,0,0,2,-34.471535,-0.414173)"/>
<path style=" stroke:none;fill-rule:nonzero;fill:rgb(94.117647%,89.019608%,92.54902%);fill-opacity:0.772549;" d="M 23.527344 15.640625 L 5.757812 24.140625 L 5.039062 25.8125 L 23.273438 17.285156 L 24.175781 16.078125 Z M 23.527344 15.640625 "/>
<path style="fill-rule:nonzero;fill:rgb(94.117647%,89.019608%,92.54902%);fill-opacity:1;stroke-width:0.25;stroke-linecap:butt;stroke-linejoin:miter;stroke:rgb(90.196079%,0.784314%,70.588237%);stroke-opacity:1;stroke-miterlimit:4;" d="M 12.563072 23.182762 L 16.378141 23.183645 C 16.634268 23.18318 16.841519 23.391168 16.841984 23.647295 L 16.841579 27.192458 C 16.842044 27.448585 16.634056 27.655837 16.379401 27.655018 L 12.562861 27.655419 C 12.308206 27.6546 12.099482 27.447896 12.100301 27.193241 L 12.099422 23.646606 C 12.100241 23.391951 12.306945 23.183227 12.563072 23.182762 Z M 12.563072 23.182762 " transform="matrix(1.314339,-1.507486,1.507486,1.314339,-34.471535,-0.414173)"/>
<path style=" stroke:none;fill-rule:nonzero;fill:rgb(90.196079%,0.784314%,70.588237%);fill-opacity:1;" d="M 35.148438 3.992188 L 27.75 -2.230469 L 17.648438 9.773438 L 25.046875 16 Z M 35.148438 3.992188 "/>
<path style=" stroke:none;fill-rule:nonzero;fill:rgb(61.56863%,22.745098%,60.784316%);fill-opacity:1;" d="M 4 8.03125 L 4 10 L 2 10 L 2 8.03125 Z M 4 8.03125 "/>
</g>
</svg>
