<?xml version="1.0" encoding="UTF-8"?>
<svg xmlns="http://www.w3.org/2000/svg" xmlns:xlink="http://www.w3.org/1999/xlink" width="32px" height="32px" viewBox="0 0 32 32" version="1.1">
<g id="surface1">
<path style="fill-rule:nonzero;fill:rgb(94.117647%,89.019608%,92.54902%);fill-opacity:1;stroke-width:1.265793;stroke-linecap:butt;stroke-linejoin:miter;stroke:rgb(95.294118%,71.764708%,85.09804%);stroke-opacity:1;stroke-miterlimit:4;" d="M 61.736298 0.902893 L 66.263699 0.902893 L 66.263699 120.702526 L 61.736298 120.702526 Z M 61.736298 0.902893 " transform="matrix(0.279548,0,0,0.249864,-1.891057,0.00877475)"/>
<path style="fill-rule:nonzero;fill:rgb(94.117647%,89.019608%,92.54902%);fill-opacity:1;stroke-width:1.2;stroke-linecap:butt;stroke-linejoin:miter;stroke:rgb(95.294118%,71.764708%,85.09804%);stroke-opacity:1;stroke-miterlimit:4;" d="M -65.477911 120.439393 L -61.397632 120.43643 C -60.349633 120.431653 -59.507386 121.272033 -59.502613 122.319468 L -59.511962 126.3999 C -59.50726 127.431702 -60.355784 128.279788 -61.38981 128.2845 L -65.470089 128.287463 C -66.518159 128.276606 -67.360406 127.436226 -67.365108 126.404425 L -67.355758 122.323993 C -67.360532 121.276558 -66.512008 120.428472 -65.477911 120.439393 Z M -65.477911 120.439393 " transform="matrix(-0.279545,0.00113879,0.00127408,0.249861,-1.891057,0.00877475)"/>
<path style="fill-rule:nonzero;fill:rgb(94.117647%,89.019608%,92.54902%);fill-opacity:1;stroke-width:1.438834;stroke-linecap:butt;stroke-linejoin:miter;stroke:rgb(95.294118%,71.764708%,85.09804%);stroke-opacity:1;stroke-miterlimit:4;" d="M 118.60303 13.671307 L 122.947915 13.678974 L 122.948893 44.436847 L 118.595449 44.440226 Z M 118.60303 13.671307 " transform="matrix(0.171209,0.19752,-0.220985,0.153029,-1.894077,0.00877475)"/>
<path style="fill-rule:nonzero;fill:rgb(94.117647%,89.019608%,92.54902%);fill-opacity:1;stroke-width:1.2;stroke-linecap:butt;stroke-linejoin:miter;stroke:rgb(95.294118%,71.764708%,85.09804%);stroke-opacity:1;stroke-miterlimit:4;" d="M 115.404651 49.537128 L 119.484141 49.543832 C 120.53255 49.542877 121.37262 50.386001 121.374262 51.417419 L 121.376103 55.501422 C 121.368442 56.543267 120.531059 57.387918 119.482651 57.388873 L 115.414826 57.392577 C 114.366418 57.393532 113.526347 56.550408 113.522343 55.498155 L 113.532167 51.42456 C 113.518859 50.382734 114.367908 49.548491 115.404651 49.537128 Z M 115.404651 49.537128 " transform="matrix(0.186104,0.186446,-0.208596,0.166343,-1.894077,0.00877475)"/>
<path style="fill-rule:nonzero;fill:rgb(94.117647%,89.019608%,92.54902%);fill-opacity:1;stroke-width:1.438834;stroke-linecap:butt;stroke-linejoin:miter;stroke:rgb(95.294118%,71.764708%,85.09804%);stroke-opacity:1;stroke-miterlimit:4;" d="M 40.203007 114.865183 L 44.547893 114.87285 L 44.548871 145.630723 L 40.195427 145.634102 Z M 40.203007 114.865183 " transform="matrix(-0.171209,0.19752,0.220985,0.153029,-1.891057,0.00877475)"/>
<path style="fill-rule:nonzero;fill:rgb(94.117647%,89.019608%,92.54902%);fill-opacity:1;stroke-width:1.2;stroke-linecap:butt;stroke-linejoin:miter;stroke:rgb(95.294118%,71.764708%,85.09804%);stroke-opacity:1;stroke-miterlimit:4;" d="M 30.183576 145.057446 L 34.263066 145.064149 C 35.311474 145.063195 36.151544 145.906318 36.153186 146.937736 L 36.155028 151.021739 C 36.147367 152.063584 35.309984 152.908235 34.261575 152.90919 L 30.193751 152.912895 C 29.145342 152.913849 28.305272 152.070726 28.301267 151.018473 L 28.311091 146.944878 C 28.297784 145.903052 29.146833 145.068809 30.183576 145.057446 Z M 30.183576 145.057446 " transform="matrix(-0.186104,0.186446,0.208596,0.166343,-1.891057,0.00877475)"/>
<path style=" stroke:none;fill-rule:nonzero;fill:rgb(95.294118%,71.764708%,85.09804%);fill-opacity:1;" d="M 0 0 L 32 0 L 32 25 L 0 25 Z M 0 0 "/>
<path style=" stroke:none;fill-rule:nonzero;fill:rgb(94.117647%,89.019608%,92.54902%);fill-opacity:1;" d="M 1 6 L 31 6 L 31 24 L 1 24 Z M 1 6 "/>
<path style=" stroke:none;fill-rule:nonzero;fill:rgb(90.196079%,0.784314%,70.588237%);fill-opacity:1;" d="M 1 5 L 31.210938 5 L 31.210938 1.238281 L 1 1.238281 Z M 1 5 "/>
<path style=" stroke:none;fill-rule:nonzero;fill:rgb(95.294118%,71.764708%,85.09804%);fill-opacity:1;" d="M 8.664062 14.746094 C 8.664062 18.996094 12.121094 22.453125 16.371094 22.453125 C 20.621094 22.453125 24.082031 18.996094 24.082031 14.746094 C 24.082031 10.492188 20.621094 7.035156 16.371094 7.035156 C 12.121094 7.035156 8.664062 10.492188 8.664062 14.746094 Z M 8.664062 14.746094 "/>
<path style=" stroke:none;fill-rule:nonzero;fill:rgb(90.196079%,0.784314%,70.588237%);fill-opacity:1;" d="M 14 10 L 21.117188 14.746094 L 14 19.488281 Z M 14 10 "/>
<path style=" stroke:none;fill-rule:nonzero;fill:rgb(61.56863%,22.745098%,60.784316%);fill-opacity:1;" d="M 15.246094 31.367188 C 14.261719 32.082031 10.675781 29.628906 9.457031 29.628906 C 8.242188 29.632812 4.667969 32.105469 3.679688 31.390625 C 2.695312 30.679688 3.921875 26.507812 3.542969 25.351562 C 3.167969 24.195312 -0.289062 21.558594 0.0820312 20.402344 C 0.457031 19.246094 4.800781 19.125 5.785156 18.40625 C 6.765625 17.6875 8.207031 13.585938 9.421875 13.585938 C 10.640625 13.582031 12.097656 17.675781 13.082031 18.390625 C 14.070312 19.101562 18.414062 19.203125 18.792969 20.359375 C 19.171875 21.515625 15.726562 24.167969 15.355469 25.328125 C 14.980469 26.484375 16.226562 30.648438 15.246094 31.367188 Z M 15.246094 31.367188 "/>
<path style=" stroke:none;fill-rule:nonzero;fill:rgb(61.56863%,22.745098%,60.784316%);fill-opacity:1;" d="M 12 12.121094 L 23.847656 12.121094 L 23.847656 14 L 12 14 Z M 12 12.121094 "/>
<path style=" stroke:none;fill-rule:nonzero;fill:rgb(61.56863%,22.745098%,60.784316%);fill-opacity:1;" d="M 16.039062 16.171875 L 26.726562 16.171875 L 26.726562 18.054688 L 16.039062 18.054688 Z M 16.039062 16.171875 "/>
<path style=" stroke:none;fill-rule:nonzero;fill:rgb(61.56863%,22.745098%,60.784316%);fill-opacity:1;" d="M 19.183594 21.84375 L 26.867188 21.84375 L 26.867188 23.722656 L 19.183594 23.722656 Z M 19.183594 21.84375 "/>
<path style=" stroke:none;fill-rule:nonzero;fill:rgb(61.56863%,22.745098%,60.784316%);fill-opacity:1;" d="M 17.417969 25.871094 L 25.097656 25.871094 L 25.097656 27.75 L 17.417969 27.75 Z M 17.417969 25.871094 "/>
<path style=" stroke:none;fill-rule:nonzero;fill:rgb(61.56863%,22.745098%,60.784316%);fill-opacity:1;" d="M 16.742188 29.660156 L 24.421875 29.660156 L 24.421875 31.539062 L 16.742188 31.539062 Z M 16.742188 29.660156 "/>
</g>
</svg>
