<?xml version="1.0" encoding="UTF-8"?>
<svg xmlns="http://www.w3.org/2000/svg" xmlns:xlink="http://www.w3.org/1999/xlink" width="32px" height="32px" viewBox="0 0 32 32" version="1.1">
<g id="surface1">
<path style="fill-rule:evenodd;fill:rgb(95.294118%,71.764708%,85.09804%);fill-opacity:1;stroke-width:0.128163;stroke-linecap:butt;stroke-linejoin:round;stroke:rgb(90.196079%,0.784314%,70.588237%);stroke-opacity:1;stroke-miterlimit:4;" d="M 1.554141 2.678188 L 2.711693 0.363889 L 2.711693 1.058229 L 1.785952 2.909968 Z M 1.554141 2.678188 " transform="matrix(7.80203,0,0,7.803053,0.300324,-0.339447)"/>
<path style="fill-rule:evenodd;fill:rgb(95.294118%,71.764708%,85.09804%);fill-opacity:1;stroke-width:0.128163;stroke-linecap:butt;stroke-linejoin:round;stroke:rgb(90.196079%,0.784314%,70.588237%);stroke-opacity:1;stroke-miterlimit:4;" d="M 2.480383 2.678188 L 1.322831 0.363889 L 1.322831 1.058229 L 2.248572 2.909968 Z M 2.480383 2.678188 " transform="matrix(7.80203,0,0,7.803053,0.300324,-0.339447)"/>
<path style="fill-rule:evenodd;fill:rgb(94.117647%,89.019608%,92.54902%);fill-opacity:0.915842;stroke-width:0.256327;stroke-linecap:round;stroke-linejoin:round;stroke:rgb(90.196079%,0.784314%,70.588237%);stroke-opacity:1;stroke-miterlimit:4;" d="M 3.167804 3.215337 C 3.167804 3.506189 2.939498 3.741974 2.658121 3.741974 C 2.376243 3.741974 2.148438 3.506189 2.148438 3.215337 C 2.148438 2.924986 2.376243 2.689201 2.658121 2.689201 C 2.939498 2.689201 3.167804 2.924986 3.167804 3.215337 Z M 3.167804 3.215337 " transform="matrix(7.80203,0,0,7.803053,0.300324,-0.339447)"/>
<path style="fill-rule:evenodd;fill:rgb(94.117647%,89.019608%,92.54902%);fill-opacity:0.920792;stroke-width:0.256327;stroke-linecap:round;stroke-linejoin:round;stroke:rgb(90.196079%,0.784314%,70.588237%);stroke-opacity:1;stroke-miterlimit:4;" d="M 1.876073 3.233359 C 1.876073 3.524211 1.648267 3.759996 1.36639 3.759996 C 1.085013 3.759996 0.856707 3.524211 0.856707 3.233359 C 0.856707 2.942507 1.085013 2.707223 1.36639 2.707223 C 1.648267 2.707223 1.876073 2.942507 1.876073 3.233359 Z M 1.876073 3.233359 " transform="matrix(7.80203,0,0,7.803053,0.300324,-0.339447)"/>
<path style="fill-rule:evenodd;fill:rgb(61.56863%,22.745098%,60.784316%);fill-opacity:0.920792;stroke-width:0.264583;stroke-linecap:round;stroke-linejoin:round;stroke:rgb(61.56863%,22.745098%,60.784316%);stroke-opacity:1;stroke-miterlimit:4;" d="M 2.156974 2.092896 C 2.156974 2.113566 2.140438 2.130103 2.120284 2.130103 C 2.099613 2.130103 2.083077 2.113566 2.083077 2.092896 C 2.083077 2.072742 2.099613 2.056205 2.120284 2.056205 C 2.140438 2.056205 2.156974 2.072742 2.156974 2.092896 Z M 2.156974 2.092896 " transform="matrix(7.559055,0,0,7.559055,0.00000180222,0)"/>
</g>
</svg>
