<?xml version="1.0" encoding="UTF-8"?>
<svg xmlns="http://www.w3.org/2000/svg" xmlns:xlink="http://www.w3.org/1999/xlink" width="32px" height="32px" viewBox="0 0 32 32" version="1.1">
<defs>
<clipPath id="clip1">
  <path d="M 2 2 L 30 2 L 30 30 L 2 30 Z M 2 2 "/>
</clipPath>
<clipPath id="clip2">
  <path d="M 15.980469 2.007812 C 8.28125 2.011719 2.042969 3.351562 2.046875 5 L 2.046875 26.753906 L 2.246094 27.246094 C 3.382812 28.6875 9.195312 29.738281 16.007812 29.738281 C 22.808594 29.734375 28.609375 28.683594 29.742188 27.246094 L 29.953125 26.75 L 29.953125 5 L 16 5 L 29.953125 4.992188 C 29.9375 3.34375 23.683594 2.007812 15.980469 2.007812 Z M 2.109375 5.257812 C 2.132812 5.3125 2.164062 5.363281 2.199219 5.417969 C 2.164062 5.363281 2.132812 5.3125 2.109375 5.257812 Z M 29.882812 5.300781 C 29.742188 5.601562 29.390625 5.890625 28.859375 6.160156 C 29.398438 5.886719 29.742188 5.597656 29.882812 5.300781 Z M 2.292969 5.550781 C 2.347656 5.609375 2.410156 5.667969 2.484375 5.726562 C 2.414062 5.667969 2.34375 5.609375 2.292969 5.550781 Z M 2.609375 5.832031 C 2.695312 5.894531 2.792969 5.957031 2.902344 6.019531 C 2.796875 5.957031 2.695312 5.894531 2.609375 5.832031 Z M 3.054688 6.109375 C 3.121094 6.140625 3.1875 6.175781 3.257812 6.207031 C 3.191406 6.175781 3.117188 6.144531 3.054688 6.109375 Z M 4.382812 6.652344 C 4.4375 6.667969 4.492188 6.6875 4.550781 6.703125 C 4.496094 6.683594 4.4375 6.667969 4.382812 6.652344 Z M 25.9375 7.09375 C 25.902344 7.101562 25.867188 7.109375 25.832031 7.117188 C 25.867188 7.109375 25.902344 7.101562 25.9375 7.09375 Z M 6.085938 7.101562 C 6.152344 7.113281 6.21875 7.125 6.285156 7.140625 C 6.222656 7.125 6.152344 7.113281 6.085938 7.101562 Z M 24.027344 7.4375 C 23.902344 7.457031 23.785156 7.476562 23.65625 7.496094 C 23.78125 7.476562 23.90625 7.457031 24.027344 7.4375 Z M 21.632812 7.730469 C 21.523438 7.742188 21.417969 7.75 21.304688 7.761719 C 21.414062 7.75 21.523438 7.742188 21.632812 7.730469 Z M 18.941406 7.917969 C 18.871094 7.921875 18.800781 7.925781 18.726562 7.929688 C 18.796875 7.925781 18.871094 7.921875 18.941406 7.917969 Z M 18.941406 7.917969 "/>
</clipPath>
</defs>
<g id="surface1">
<path style=" stroke:none;fill-rule:nonzero;fill:rgb(95.294118%,71.764708%,85.09804%);fill-opacity:1;" d="M 2.046875 5 Z M 2.046875 5 L 2.046875 26.753906 L 2.246094 27.246094 C 3.378906 28.6875 9.195312 29.738281 16.007812 29.738281 C 22.808594 29.738281 28.609375 28.683594 29.742188 27.246094 L 29.953125 26.75 L 29.953125 5 C 29.953125 6.648438 23.710938 7.988281 16.007812 7.988281 C 8.304688 7.988281 2.054688 6.652344 2.046875 5 Z M 2.046875 5 "/>
<path style=" stroke:none;fill-rule:nonzero;fill:rgb(90.196079%,0.784314%,70.588237%);fill-opacity:1;" d="M 29.953125 5 C 29.953125 6.648438 23.710938 7.988281 16.007812 7.988281 C 8.304688 7.988281 2.054688 6.652344 2.046875 5 C 2.039062 3.351562 8.277344 2.011719 15.980469 2.007812 C 23.683594 2.007812 29.9375 3.34375 29.953125 4.992188 L 16 5 Z M 29.953125 5 "/>
<g clip-path="url(#clip1)" clip-rule="nonzero">
<g clip-path="url(#clip2)" clip-rule="nonzero">
<path style="fill:none;stroke-width:0.359439;stroke-linecap:butt;stroke-linejoin:miter;stroke:rgb(61.56863%,22.745098%,60.784316%);stroke-opacity:1;stroke-miterlimit:4;" d="M 12.021775 2.091078 C 6.529102 2.091078 2.075432 3.040221 2.010845 4.214013 C 2.010845 4.205588 2.005229 4.197164 2.005229 4.18874 L 2.005229 19.877678 L 2.148443 20.2315 C 2.965604 21.267695 7.144079 22.023078 12.041432 22.023078 C 16.93036 22.023078 21.10041 21.264887 21.914764 20.2315 L 22.066402 19.87487 L 22.066402 4.18874 L 22.060786 4.211205 C 21.990583 3.034605 17.522872 2.08827 12.021775 2.091078 Z M 22.05517 4.23367 L 22.05517 4.239286 Z M 22.05517 4.23367 " transform="matrix(1.391058,0,0,1.391058,-0.742514,-0.826779)"/>
</g>
</g>
</g>
</svg>
