<?xml version="1.0" encoding="UTF-8"?>
<svg xmlns="http://www.w3.org/2000/svg" xmlns:xlink="http://www.w3.org/1999/xlink" width="32px" height="32px" viewBox="0 0 32 32" version="1.1">
<defs>
<filter id="alpha" filterUnits="objectBoundingBox" x="0%" y="0%" width="100%" height="100%">
  <feColorMatrix type="matrix" in="SourceGraphic" values="0 0 0 0 1 0 0 0 0 1 0 0 0 0 1 0 0 0 1 0"/>
</filter>
<mask id="mask0">
  <g filter="url(#alpha)">
<rect x="0" y="0" width="32" height="32" style="fill:rgb(0%,0%,0%);fill-opacity:0.42;stroke:none;"/>
  </g>
</mask>
<linearGradient id="linear0" gradientUnits="userSpaceOnUse" x1="94.42218" y1="30.355696" x2="100.78125" y2="35.359375" gradientTransform="matrix(0.208574,0,0,0.224375,2.703437,1.617194)">
<stop offset="0" style="stop-color:rgb(0%,0%,0%);stop-opacity:1;"/>
<stop offset="1" style="stop-color:rgb(0%,0%,0%);stop-opacity:0;"/>
</linearGradient>
<clipPath id="clip1">
  <rect x="0" y="0" width="32" height="32"/>
</clipPath>
<g id="surface5" clip-path="url(#clip1)">
<path style=" stroke:none;fill-rule:nonzero;fill:url(#linear0);" d="M 25.691406 4.816406 C 23.007812 8.601562 19.863281 12.144531 18.03125 15.933594 L 18.320312 15.921875 L 27.242188 4.378906 C 26.671875 4.621094 26.160156 4.757812 25.691406 4.816406 Z M 25.691406 4.816406 "/>
</g>
<mask id="mask1">
  <g filter="url(#alpha)">
<rect x="0" y="0" width="32" height="32" style="fill:rgb(0%,0%,0%);fill-opacity:0.11;stroke:none;"/>
  </g>
</mask>
<radialGradient id="radial0" gradientUnits="userSpaceOnUse" cx="63.462833" cy="66.417244" fx="63.462833" fy="66.417244" r="13.788582" gradientTransform="matrix(0.225533,0,0,0.0360007,1.642393,13.797103)">
<stop offset="0" style="stop-color:rgb(0%,0%,0%);stop-opacity:1;"/>
<stop offset="1" style="stop-color:rgb(0%,0%,0%);stop-opacity:0;"/>
</radialGradient>
<clipPath id="clip2">
  <rect x="0" y="0" width="32" height="32"/>
</clipPath>
<g id="surface8" clip-path="url(#clip2)">
<path style=" stroke:none;fill-rule:nonzero;fill:url(#radial0);" d="M 13.511719 15.753906 C 13.511719 15.757812 13.507812 15.761719 13.507812 15.769531 C 13.507812 16.074219 14.660156 16.574219 16.085938 16.574219 C 17.507812 16.574219 18.667969 16.074219 18.667969 15.769531 C 18.667969 15.761719 18.664062 15.757812 18.664062 15.753906 C 18.09375 15.878906 17.152344 15.960938 16.085938 15.960938 C 15.019531 15.960938 14.082031 15.878906 13.511719 15.753906 Z M 13.511719 15.753906 "/>
</g>
<mask id="mask2">
  <g filter="url(#alpha)">
<rect x="0" y="0" width="32" height="32" style="fill:rgb(0%,0%,0%);fill-opacity:0.11;stroke:none;"/>
  </g>
</mask>
<radialGradient id="radial1" gradientUnits="userSpaceOnUse" cx="63.462833" cy="66.417244" fx="63.462833" fy="66.417244" r="13.788582" gradientTransform="matrix(0.225533,0,0,0.0360007,1.642393,13.797103)">
<stop offset="0" style="stop-color:rgb(0%,0%,0%);stop-opacity:1;"/>
<stop offset="1" style="stop-color:rgb(0%,0%,0%);stop-opacity:0;"/>
</radialGradient>
<clipPath id="clip3">
  <rect x="0" y="0" width="32" height="32"/>
</clipPath>
<g id="surface11" clip-path="url(#clip3)">
<path style=" stroke:none;fill-rule:nonzero;fill:url(#radial1);" d="M 13.511719 15.753906 C 13.511719 15.757812 13.507812 15.761719 13.507812 15.769531 C 13.507812 16.074219 14.660156 16.371094 16.085938 16.371094 C 17.507812 16.371094 18.667969 16.074219 18.667969 15.769531 C 18.667969 15.761719 18.664062 15.757812 18.664062 15.753906 C 18.09375 15.878906 17.136719 16.09375 16.070312 16.09375 C 15 16.09375 14.082031 15.878906 13.511719 15.753906 Z M 13.511719 15.753906 "/>
</g>
<mask id="mask3">
  <g filter="url(#alpha)">
<rect x="0" y="0" width="32" height="32" style="fill:rgb(0%,0%,0%);fill-opacity:0.11;stroke:none;"/>
  </g>
</mask>
<radialGradient id="radial2" gradientUnits="userSpaceOnUse" cx="63.462833" cy="66.417244" fx="63.462833" fy="66.417244" r="13.788582" gradientTransform="matrix(0.225533,0,0,0.0630217,1.642393,12.00241)">
<stop offset="0" style="stop-color:rgb(0%,0%,0%);stop-opacity:1;"/>
<stop offset="1" style="stop-color:rgb(0%,0%,0%);stop-opacity:0;"/>
</radialGradient>
<clipPath id="clip4">
  <rect x="0" y="0" width="32" height="32"/>
</clipPath>
<g id="surface14" clip-path="url(#clip4)">
<path style=" stroke:none;fill-rule:nonzero;fill:url(#radial2);" d="M 13.511719 15.753906 C 13.511719 15.757812 13.507812 15.761719 13.507812 15.769531 C 13.507812 16.074219 14.667969 16.800781 16.09375 16.800781 C 17.515625 16.800781 18.667969 16.074219 18.667969 15.769531 C 18.667969 15.761719 18.664062 15.757812 18.664062 15.753906 C 18.09375 15.878906 17.085938 16.152344 16.019531 16.152344 C 14.953125 16.152344 14.082031 15.878906 13.511719 15.753906 Z M 13.511719 15.753906 "/>
</g>
</defs>
<g id="surface1">
<use xlink:href="#surface5" mask="url(#mask0)"/>
<path style="fill-rule:nonzero;fill:rgb(95.294118%,71.764708%,85.09804%);fill-opacity:1;stroke-width:2;stroke-linecap:round;stroke-linejoin:round;stroke:rgb(61.56863%,22.745098%,60.784316%);stroke-opacity:1;stroke-miterlimit:4;" d="M 64.078125 1 C 37.59375 1 16.09375 6.234375 16.09375 12.25 C 16.09375 24.625 53.390625 62.78125 53.390625 62.78125 C 53.546875 63 53.734375 63.375 53.71875 63.796875 L 53.71875 118.25 C 53.71875 119.59375 55.578125 120.4375 62.890625 120.4375 C 70.046875 120.4375 74.4375 119.796875 74.4375 118.25 C 74.4375 118.25 74.4375 118.234375 74.4375 118.21875 L 74.375 63.796875 C 74.375 63.546875 74.40625 63.265625 74.53125 63.046875 C 74.53125 63.046875 111.90625 24.28125 111.90625 11.78125 C 111.90625 7.515625 90.5625 1 64.078125 1 Z M 64.078125 1 " transform="matrix(0.25,0,0,0.25,0,0)"/>
<path style=" stroke:none;fill-rule:nonzero;fill:rgb(90.196079%,0.784314%,70.588237%);fill-opacity:1;" d="M 16.019531 4.046875 C 11.671875 4.046875 8.070312 4.578125 7.5 5.261719 C 9.371094 5.703125 12.488281 6 16.019531 6 C 19.546875 6 22.660156 5.710938 24.535156 5.269531 C 23.972656 4.582031 20.375 4.046875 16.019531 4.046875 Z M 16.019531 4.046875 "/>
<use xlink:href="#surface8" mask="url(#mask1)"/>
<use xlink:href="#surface11" mask="url(#mask2)"/>
<path style="fill:none;stroke-width:0.137008;stroke-linecap:round;stroke-linejoin:round;stroke:rgb(61.56863%,22.745098%,60.784316%);stroke-opacity:1;stroke-miterlimit:4;" d="M 79.338987 112.839491 C 79.338987 113.657402 74.284734 114.321705 68.052395 114.321705 C 61.820056 114.321705 56.76952 113.657402 56.76952 112.839491 C 56.76952 112.021581 61.820056 111.357278 68.052395 111.357278 C 74.284734 111.357278 79.338987 112.021581 79.338987 112.839491 Z M 79.338987 112.839491 " transform="matrix(1.051095,0,0,1.958114,-55.525635,-217.819778)"/>
<use xlink:href="#surface14" mask="url(#mask3)"/>
<path style=" stroke:none;fill-rule:nonzero;fill:rgb(61.56863%,22.745098%,60.784316%);fill-opacity:1;" d="M 23.324219 4.519531 C 21.847656 4.542969 21.222656 5.121094 21.148438 5.820312 C 21.066406 6.609375 22.558594 7.175781 23.457031 6.894531 C 25.597656 6.222656 28.882812 7.75 29.289062 9.070312 C 29.4375 9.558594 29.328125 10 28.988281 10.460938 C 28.550781 10.992188 27.878906 11.550781 26.972656 12.15625 C 25.085938 13.417969 22.222656 14.628906 18.890625 15.414062 C 15.558594 16.199219 12.421875 16.402344 10.113281 16.128906 C 7.804688 15.855469 6.445312 15.351562 6.160156 14.316406 C 6.113281 14.140625 6.117188 13.917969 6.113281 13.707031 C 6.113281 13.625 6.097656 13.550781 6.105469 13.464844 C 6.113281 13.371094 6.140625 13.265625 6.15625 13.167969 C 6.179688 13.03125 6.21875 12.890625 6.261719 12.746094 C 6.304688 12.605469 6.320312 12.472656 6.382812 12.328125 C 6.398438 12.296875 6.417969 12.265625 6.433594 12.234375 C 6.585938 11.914062 6.78125 11.59375 7.050781 11.28125 C 7.117188 11.203125 7.203125 11.125 7.277344 11.046875 C 7.371094 10.953125 7.453125 10.859375 7.558594 10.765625 C 7.742188 10.605469 7.945312 10.445312 8.171875 10.292969 C 10.058594 9.03125 13.265625 7.5 16.597656 6.714844 C 17.453125 6.703125 17.222656 6.265625 16.558594 6.417969 C 13.582031 7.121094 10.828125 8.027344 8.664062 9.136719 C 8.664062 9.132812 8.660156 9.128906 8.660156 9.125 C 8.105469 9.402344 7.585938 9.695312 7.121094 10.007812 C 6.609375 10.351562 6.160156 10.710938 5.753906 11.070312 C 5.679688 11.136719 5.601562 11.199219 5.53125 11.265625 C 5.164062 11.609375 4.859375 11.953125 4.605469 12.304688 C 4.496094 12.453125 4.398438 12.601562 4.3125 12.75 C 4.289062 12.789062 4.257812 12.824219 4.238281 12.863281 C 4.234375 12.871094 4.238281 12.875 4.234375 12.882812 C 4.230469 12.886719 4.230469 12.894531 4.226562 12.898438 L 4.21875 12.898438 C 4.214844 12.90625 4.214844 12.914062 4.210938 12.921875 C 4.058594 13.21875 3.957031 13.515625 3.902344 13.808594 C 3.882812 13.917969 3.867188 14.023438 3.859375 14.132812 C 3.855469 14.183594 3.847656 14.238281 3.847656 14.289062 C 3.851562 14.476562 3.871094 14.660156 3.921875 14.839844 C 4.347656 16.390625 6.4375 17.347656 9.226562 17.675781 C 12.015625 18.003906 15.617188 17.953125 19.347656 17.074219 C 20.289062 16.851562 21.199219 16.585938 22.066406 16.289062 C 22.324219 16.203125 22.554688 16.09375 22.804688 16 C 23.378906 15.785156 23.960938 15.578125 24.492188 15.339844 C 26.117188 14.628906 27.5625 13.832031 28.722656 13.058594 C 31.003906 11.535156 31.835938 10.046875 31.410156 8.5 C 30.984375 6.953125 29.386719 5.695312 26.589844 5.027344 C 25.105469 4.671875 23.929688 4.511719 23.324219 4.519531 Z M 23.324219 4.519531 "/>
<path style="fill-rule:nonzero;fill:rgb(61.56863%,22.745098%,60.784316%);fill-opacity:1;stroke-width:0.104569;stroke-linecap:butt;stroke-linejoin:miter;stroke:rgb(61.56863%,22.745098%,60.784316%);stroke-opacity:1;stroke-miterlimit:4;" d="M 8.667969 3.046875 C 8.6875 3.117188 8.488281 3.171875 8.455078 3.240234 C 8.421875 3.308594 8.517578 3.458984 8.445312 3.5 C 8.373047 3.539062 8.257812 3.398438 8.171875 3.394531 C 8.087891 3.392578 7.943359 3.523438 7.878906 3.478516 C 7.816406 3.433594 7.943359 3.289062 7.923828 3.220703 C 7.904297 3.150391 7.720703 3.080078 7.753906 3.011719 C 7.787109 2.943359 7.980469 2.996094 8.052734 2.957031 C 8.126953 2.916016 8.15625 2.742188 8.240234 2.744141 C 8.326172 2.748047 8.318359 2.923828 8.382812 2.96875 C 8.445312 3.013672 8.648438 2.976562 8.667969 3.046875 Z M 8.667969 3.046875 " transform="matrix(2,0,0,2,0,0)"/>
<path style=" stroke:none;fill-rule:nonzero;fill:rgb(90.196079%,0.784314%,70.588237%);fill-opacity:1;" d="M 27.066406 24.824219 C 26.695312 24.804688 26.695312 23.898438 26.40625 23.664062 C 26.113281 23.429688 25.230469 23.617188 25.132812 23.253906 C 25.035156 22.894531 25.898438 22.613281 26.03125 22.265625 C 26.164062 21.917969 25.714844 21.132812 26.027344 20.929688 C 26.339844 20.726562 26.875 21.460938 27.246094 21.480469 C 27.621094 21.5 28.226562 20.828125 28.515625 21.0625 C 28.804688 21.296875 28.273438 22.03125 28.371094 22.390625 C 28.464844 22.75 29.292969 23.121094 29.160156 23.46875 C 29.023438 23.820312 28.164062 23.539062 27.851562 23.742188 C 27.535156 23.945312 27.441406 24.84375 27.066406 24.824219 Z M 27.066406 24.824219 "/>
<path style="fill-rule:evenodd;fill:rgb(94.117647%,89.019608%,92.54902%);fill-opacity:1;stroke-width:2.185187;stroke-linecap:butt;stroke-linejoin:miter;stroke:rgb(61.56863%,22.745098%,60.784316%);stroke-opacity:1;stroke-miterlimit:4;" d="M 21.847609 101.992876 C 22.128831 103.029392 22.769784 104.327457 24.018822 105.55156 C 26.550231 108.034534 29.103365 108.205674 29.721445 107.591301 C 30.111911 107.211664 29.727106 107.60595 30.041489 107.28685 C 30.041489 107.28685 30.057838 107.277673 30.057838 107.277673 C 30.513064 106.808201 125.261943 10.656557 125.690133 10.22009 C 126.362285 9.539709 126.264484 6.867133 123.733075 4.384159 C 121.245687 1.912127 118.437903 2.008726 117.906594 2.538735 C 117.484066 2.989851 22.729526 99.126847 22.2743 99.596318 C 22.263612 99.620145 22.2743 99.596318 22.257951 99.605496 C 21.927218 99.933773 22.312023 99.539488 21.921557 99.919125 C 21.677595 100.163038 21.582736 100.947182 21.847609 101.992876 Z M 21.847609 101.992876 " transform="matrix(-0.12301,0.196334,-0.219124,-0.0758801,42.915485,7.621673)"/>
<path style=" stroke:none;fill-rule:nonzero;fill:rgb(61.56863%,22.745098%,60.784316%);fill-opacity:1;" d="M 20.28125 9.945312 C 20.25 9.605469 19.140625 6.601562 18.964844 6.347656 L 16.835938 7.117188 L 18.152344 10.710938 Z M 18.375 10.632812 L 17.0625 7.035156 L 16.3125 7.300781 C 16.332031 7.59375 17.417969 10.605469 17.625 10.898438 Z M 18.375 10.632812 "/>
<path style=" stroke:none;fill-rule:nonzero;fill:rgb(94.117647%,89.019608%,92.54902%);fill-opacity:1;" d="M 16.773438 7.988281 C 16.769531 7.976562 16.761719 7.964844 16.75 7.960938 C 16.738281 7.953125 16.726562 7.953125 16.714844 7.957031 C 16.703125 7.960938 16.691406 7.96875 16.6875 7.980469 C 16.683594 7.992188 16.683594 8.003906 16.691406 8.019531 C 16.695312 8.035156 16.703125 8.042969 16.714844 8.050781 C 16.722656 8.054688 16.734375 8.054688 16.75 8.050781 C 16.761719 8.046875 16.769531 8.039062 16.777344 8.027344 C 16.78125 8.019531 16.78125 8.003906 16.773438 7.988281 M 16.796875 7.980469 C 16.808594 8.011719 16.8125 8.039062 16.804688 8.058594 C 16.800781 8.082031 16.789062 8.09375 16.765625 8.101562 C 16.746094 8.109375 16.726562 8.105469 16.710938 8.09375 C 16.691406 8.078125 16.675781 8.058594 16.667969 8.027344 C 16.65625 7.996094 16.652344 7.972656 16.65625 7.949219 C 16.664062 7.929688 16.675781 7.914062 16.695312 7.90625 C 16.71875 7.898438 16.738281 7.902344 16.753906 7.917969 C 16.773438 7.929688 16.785156 7.953125 16.796875 7.980469 M 16.816406 8.234375 L 16.777344 8.324219 L 16.757812 8.273438 L 16.785156 8.214844 L 16.726562 8.183594 L 16.707031 8.132812 L 16.796875 8.175781 L 16.835938 8.089844 L 16.851562 8.140625 L 16.828125 8.199219 L 16.882812 8.226562 L 16.902344 8.277344 L 16.816406 8.234375 M 16.902344 8.28125 L 16.921875 8.335938 L 16.894531 8.394531 L 16.953125 8.421875 L 16.972656 8.476562 L 16.875 8.429688 L 16.820312 8.445312 L 16.804688 8.398438 L 16.855469 8.378906 L 16.902344 8.28125 M 16.925781 8.707031 C 16.917969 8.695312 16.910156 8.683594 16.902344 8.671875 C 16.898438 8.660156 16.890625 8.648438 16.886719 8.632812 C 16.875 8.601562 16.871094 8.574219 16.875 8.550781 C 16.882812 8.527344 16.894531 8.515625 16.914062 8.507812 C 16.933594 8.5 16.953125 8.503906 16.972656 8.519531 C 16.992188 8.535156 17.007812 8.558594 17.019531 8.589844 C 17.023438 8.601562 17.027344 8.613281 17.027344 8.625 C 17.03125 8.640625 17.035156 8.652344 17.035156 8.660156 L 17.007812 8.671875 C 17.007812 8.660156 17.007812 8.648438 17.003906 8.636719 C 17.003906 8.625 17 8.613281 16.996094 8.605469 C 16.988281 8.585938 16.980469 8.570312 16.96875 8.5625 C 16.957031 8.554688 16.945312 8.554688 16.933594 8.558594 C 16.917969 8.5625 16.910156 8.570312 16.90625 8.582031 C 16.902344 8.597656 16.90625 8.613281 16.914062 8.632812 C 16.914062 8.636719 16.914062 8.640625 16.917969 8.644531 C 16.917969 8.648438 16.921875 8.652344 16.925781 8.65625 L 16.949219 8.648438 L 16.9375 8.617188 L 16.960938 8.609375 L 16.988281 8.6875 L 16.925781 8.707031 M 17.058594 8.710938 L 17.105469 8.839844 L 17.082031 8.851562 L 17.050781 8.765625 L 17.027344 8.773438 L 17.058594 8.851562 L 17.03125 8.863281 L 17.003906 8.785156 L 16.976562 8.792969 L 17.007812 8.878906 L 16.980469 8.886719 L 16.933594 8.753906 L 17.058594 8.710938 M 17.125 8.886719 L 17.144531 8.941406 L 17.082031 9.039062 L 17.167969 9.011719 L 17.1875 9.058594 L 17.058594 9.101562 L 17.039062 9.046875 L 17.101562 8.945312 L 17.015625 8.976562 L 16.996094 8.929688 L 17.125 8.886719 M 17.234375 9.195312 L 17.253906 9.25 L 17.195312 9.347656 L 17.28125 9.316406 L 17.296875 9.363281 L 17.171875 9.410156 L 17.152344 9.355469 L 17.210938 9.253906 L 17.125 9.285156 L 17.109375 9.238281 L 17.234375 9.195312 M 17.335938 9.460938 C 17.339844 9.476562 17.34375 9.492188 17.339844 9.507812 C 17.339844 9.519531 17.332031 9.527344 17.320312 9.53125 C 17.308594 9.535156 17.300781 9.53125 17.289062 9.523438 C 17.28125 9.515625 17.273438 9.503906 17.265625 9.484375 C 17.257812 9.464844 17.257812 9.453125 17.257812 9.4375 C 17.261719 9.425781 17.269531 9.417969 17.277344 9.414062 C 17.289062 9.410156 17.300781 9.414062 17.308594 9.421875 C 17.320312 9.429688 17.328125 9.441406 17.335938 9.460938 M 17.234375 9.4375 L 17.273438 9.539062 L 17.257812 9.546875 L 17.21875 9.441406 L 17.234375 9.4375 M 17.320312 9.464844 C 17.316406 9.457031 17.3125 9.453125 17.308594 9.449219 C 17.304688 9.449219 17.296875 9.449219 17.292969 9.449219 C 17.285156 9.453125 17.28125 9.457031 17.277344 9.460938 C 17.277344 9.464844 17.277344 9.472656 17.28125 9.480469 C 17.28125 9.488281 17.285156 9.492188 17.289062 9.496094 C 17.296875 9.496094 17.300781 9.496094 17.308594 9.496094 C 17.3125 9.492188 17.320312 9.488281 17.320312 9.484375 C 17.324219 9.480469 17.324219 9.472656 17.320312 9.464844 M 17.378906 9.765625 C 17.378906 9.78125 17.378906 9.789062 17.375 9.800781 C 17.375 9.808594 17.367188 9.8125 17.359375 9.816406 C 17.347656 9.820312 17.335938 9.816406 17.324219 9.804688 C 17.3125 9.792969 17.300781 9.773438 17.289062 9.746094 C 17.285156 9.734375 17.285156 9.726562 17.28125 9.714844 C 17.277344 9.707031 17.277344 9.695312 17.273438 9.683594 L 17.300781 9.675781 C 17.300781 9.6875 17.300781 9.695312 17.304688 9.707031 C 17.304688 9.714844 17.308594 9.722656 17.3125 9.734375 C 17.316406 9.746094 17.320312 9.753906 17.324219 9.761719 C 17.332031 9.765625 17.335938 9.769531 17.34375 9.765625 C 17.347656 9.765625 17.351562 9.761719 17.351562 9.75 C 17.351562 9.742188 17.351562 9.734375 17.34375 9.71875 L 17.339844 9.699219 L 17.359375 9.691406 L 17.367188 9.710938 C 17.371094 9.726562 17.375 9.734375 17.378906 9.738281 C 17.386719 9.742188 17.390625 9.746094 17.394531 9.742188 C 17.398438 9.742188 17.402344 9.738281 17.402344 9.730469 C 17.402344 9.722656 17.402344 9.714844 17.398438 9.703125 C 17.394531 9.695312 17.390625 9.6875 17.386719 9.679688 C 17.382812 9.675781 17.378906 9.667969 17.375 9.660156 L 17.398438 9.652344 C 17.402344 9.660156 17.40625 9.667969 17.414062 9.679688 C 17.417969 9.6875 17.421875 9.695312 17.425781 9.707031 C 17.433594 9.730469 17.4375 9.75 17.4375 9.765625 C 17.433594 9.777344 17.429688 9.785156 17.417969 9.789062 C 17.410156 9.792969 17.402344 9.792969 17.398438 9.789062 C 17.390625 9.785156 17.382812 9.777344 17.378906 9.765625 "/>
<path style=" stroke:none;fill-rule:nonzero;fill:rgb(90.196079%,0.784314%,70.588237%);fill-opacity:1;" d="M 13.382812 12.625 C 13.167969 12.859375 12.53125 12.445312 12.210938 12.523438 C 11.890625 12.605469 11.539062 13.273438 11.234375 13.167969 C 10.929688 13.066406 11.199219 12.375 11.027344 12.128906 C 10.855469 11.878906 10.0625 11.816406 10.089844 11.519531 C 10.117188 11.21875 10.917969 11.207031 11.132812 10.972656 C 11.347656 10.738281 11.207031 10.035156 11.527344 9.953125 C 11.851562 9.871094 12.074219 10.554688 12.378906 10.65625 C 12.6875 10.761719 13.390625 10.390625 13.5625 10.636719 C 13.734375 10.882812 13.074219 11.320312 13.046875 11.617188 C 13.019531 11.914062 13.597656 12.390625 13.382812 12.625 Z M 13.382812 12.625 "/>
<path style=" stroke:none;fill-rule:nonzero;fill:rgb(90.196079%,0.784314%,70.588237%);fill-opacity:1;" d="M 8.484375 7.542969 C 8.367188 7.648438 8.074219 7.414062 7.910156 7.441406 C 7.746094 7.46875 7.539062 7.785156 7.390625 7.722656 C 7.246094 7.65625 7.417969 7.324219 7.34375 7.191406 C 7.273438 7.0625 6.882812 6.996094 6.910156 6.847656 C 6.941406 6.699219 7.339844 6.726562 7.457031 6.621094 C 7.578125 6.511719 7.542969 6.152344 7.707031 6.125 C 7.871094 6.101562 7.945312 6.453125 8.09375 6.515625 C 8.238281 6.582031 8.609375 6.425781 8.679688 6.554688 C 8.753906 6.6875 8.402344 6.875 8.371094 7.023438 C 8.34375 7.171875 8.605469 7.433594 8.484375 7.542969 Z M 8.484375 7.542969 "/>
<path style=" stroke:none;fill-rule:nonzero;fill:rgb(90.196079%,0.784314%,70.588237%);fill-opacity:1;" d="M 9.445312 18.285156 C 9.214844 18.050781 9.84375 17.492188 9.816406 17.171875 C 9.789062 16.851562 9.082031 16.4375 9.269531 16.15625 C 9.457031 15.878906 10.214844 16.222656 10.542969 16.085938 C 10.871094 15.953125 11.121094 15.195312 11.46875 15.257812 C 11.816406 15.320312 11.652344 16.09375 11.882812 16.328125 C 12.113281 16.5625 12.976562 16.511719 13.003906 16.832031 C 13.03125 17.148438 12.171875 17.28125 11.984375 17.5625 C 11.796875 17.84375 12.082031 18.566406 11.75 18.699219 C 11.421875 18.835938 11.054688 18.148438 10.707031 18.085938 C 10.363281 18.023438 9.671875 18.519531 9.445312 18.285156 Z M 9.445312 18.285156 "/>
</g>
</svg>
