<?xml version="1.0" encoding="UTF-8"?>
<svg xmlns="http://www.w3.org/2000/svg" xmlns:xlink="http://www.w3.org/1999/xlink" width="32px" height="32px" viewBox="0 0 32 32" version="1.1">
<g id="surface1">
<path style=" stroke:none;fill-rule:nonzero;fill:rgb(94.117647%,89.019608%,92.54902%);fill-opacity:1;" d="M 2 6 L 30 6 L 30 32.121094 L 2 32.121094 Z M 2 6 "/>
<path style=" stroke:none;fill-rule:nonzero;fill:rgb(61.56863%,22.745098%,60.784316%);fill-opacity:1;" d="M 0 6 L 0 32 L 32 32 L 32 6 Z M 2 7.175781 L 10 7.175781 L 10 12 L 2 12 Z M 12 7.175781 L 20 7.175781 L 20 12 L 12 12 Z M 22 7.175781 L 30 7.175781 L 30 12 L 22 12 Z M 2 13 L 10 13 L 10 18 L 2 18 Z M 12 13 L 20 13 L 20 18 L 12 18 Z M 22 13 L 30 13 L 30 18 L 22 18 Z M 2 19 L 10 19 L 10 24 L 2 24 Z M 12 19 L 20 19 L 20 24 L 12 24 Z M 22 19 L 30 19 L 30 24 L 22 24 Z M 2 25 L 10 25 L 10 31.027344 L 2 31.027344 Z M 12 25 L 20 25 L 20 31.027344 L 12 31.027344 Z M 22 25 L 30 25 L 30 31.027344 L 22 31.027344 Z M 22 25 "/>
<path style="fill-rule:nonzero;fill:rgb(95.294118%,71.764708%,85.09804%);fill-opacity:1;stroke-width:2;stroke-linecap:butt;stroke-linejoin:miter;stroke:rgb(90.196079%,0.784314%,70.588237%);stroke-opacity:1;stroke-miterlimit:4;" d="M 92.5 48.375007 L 54.203125 89.359382 C 54.109375 89.453132 53.984375 89.515632 53.84375 89.515632 C 53.71875 89.515632 53.578125 89.453132 53.484375 89.359382 L 43.921875 79.781257 C 43.75 79.609382 43.734375 79.343757 43.875 79.140632 L 62.390625 56.000007 L 9.5 56.000007 C 9.234375 56.000007 9.015625 55.781257 9.015625 55.515632 L 9.015625 40.484382 C 9.015625 40.218757 9.234375 40.000007 9.5 40.000007 L 62.390625 40.000007 L 43.875 16.859382 C 43.734375 16.656257 43.75 16.390632 43.921875 16.218757 L 53.484375 6.640632 C 53.578125 6.546882 53.71875 6.484382 53.84375 6.484382 C 53.984375 6.484382 54.109375 6.546882 54.203125 6.640632 L 92.5 47.703132 C 92.765625 47.890632 92.5 48.171882 92.5 48.375007 Z M 92.5 48.375007 " transform="matrix(0,0.25,-0.25,0,28.000002,0)"/>
</g>
</svg>
