<?xml version="1.0" encoding="UTF-8"?>
<svg xmlns="http://www.w3.org/2000/svg" xmlns:xlink="http://www.w3.org/1999/xlink" width="32px" height="32px" viewBox="0 0 32 32" version="1.1">
<g id="surface1">
<path style=" stroke:none;fill-rule:nonzero;fill:rgb(33.333334%,34.117648%,32.549021%);fill-opacity:1;" d="M 6.191406 0.0078125 C 4.070312 1.117188 3.382812 3.523438 4.605469 5.441406 L 13.445312 20 L 12.714844 20.992188 C 11.445312 19.191406 9.355469 18 7 18 C 3.15625 18 0 21.15625 0 24.996094 C 0 28.835938 3.15625 31.996094 7 31.996094 C 9.453125 31.996094 11.617188 30.699219 12.867188 28.769531 L 16 23.933594 L 19.15625 28.902344 L 19.183594 28.863281 C 20.445312 30.746094 22.585938 31.996094 25 31.996094 C 28.84375 31.996094 32 28.835938 32 24.996094 C 32 21.15625 28.84375 18 25 18 C 22.632812 18 20.53125 19.203125 19.261719 21.019531 L 18.554688 20 L 27.398438 5.441406 C 28.621094 3.523438 27.929688 1.117188 25.808594 0.0078125 L 16 16 Z M 7 22 C 8.582031 22 9.828125 23.171875 9.972656 24.707031 L 9.953125 24.734375 L 9.976562 24.773438 C 9.980469 24.847656 10 24.917969 10 24.996094 C 10 26.675781 8.679688 27.996094 7 27.996094 C 5.320312 27.996094 4 26.675781 4 24.996094 C 4 23.316406 5.320312 22 7 22 Z M 25 22 C 26.679688 22 28 23.316406 28 24.996094 C 28 26.675781 26.679688 27.996094 25 27.996094 C 23.320312 27.996094 22 26.675781 22 24.996094 C 22 23.316406 23.320312 22 25 22 Z M 25 22 "/>
</g>
</svg>
