<?xml version="1.0" encoding="UTF-8"?>
<svg xmlns="http://www.w3.org/2000/svg" xmlns:xlink="http://www.w3.org/1999/xlink" width="32px" height="32px" viewBox="0 0 32 32" version="1.1">
<g id="surface1">
<path style=" stroke:none;fill-rule:nonzero;fill:rgb(94.117647%,89.019608%,92.54902%);fill-opacity:1;" d="M 2 2 L 9.9375 2 L 9.9375 28.121094 L 2 28.121094 Z M 2 2 "/>
<path style=" stroke:none;fill-rule:nonzero;fill:rgb(61.56863%,22.745098%,60.784316%);fill-opacity:1;" d="M 0 2 L 0 28 L 12.007812 28 L 12.007812 27.027344 L 12 27.027344 L 12 21 L 12.007812 21 L 12.007812 20 L 12 20 L 12 15.050781 L 12.007812 15.050781 L 12.007812 14 L 12 14 L 12 9 L 12.007812 9 L 12.007812 8.976562 L 32 8.976562 L 32 2 Z M 2 3.175781 L 10 3.175781 L 10 8 L 2 8 Z M 12 3.175781 L 20 3.175781 L 20 8 L 12 8 Z M 22 3.175781 L 30 3.175781 L 30 8 L 22 8 Z M 2 9 L 10 9 L 10 14 L 2 14 Z M 2 15.050781 L 10 15.050781 L 10 20 L 2 20 Z M 2 21 L 10 21 L 10 27.027344 L 2 27.027344 Z M 2 21 "/>
<path style=" stroke:none;fill-rule:nonzero;fill:rgb(95.294118%,71.764708%,85.09804%);fill-opacity:1;" d="M 2 3.136719 L 30 3.136719 L 30 8 L 2 8 Z M 2 3.136719 "/>
<path style=" stroke:none;fill-rule:nonzero;fill:rgb(61.56863%,22.745098%,60.784316%);fill-opacity:0.831373;" d="M 0 2 L 0 9 L 12.007812 9 L 12.007812 8.976562 L 32 8.976562 L 32 2 Z M 2 3.175781 L 10 3.175781 L 10 8 L 2 8 Z M 12 3.175781 L 20 3.175781 L 20 8 L 12 8 Z M 22 3.175781 L 30 3.175781 L 30 8 L 22 8 Z M 22 3.175781 "/>
<path style="fill-rule:nonzero;fill:rgb(90.196079%,0.784314%,70.588237%);fill-opacity:1;stroke-width:10;stroke-linecap:round;stroke-linejoin:round;stroke:rgb(85.09804%,4.313726%,69.01961%);stroke-opacity:1;stroke-miterlimit:4;" d="M 103.00151 39.587114 L 83.00334 63.582032 L 99.004761 59.758428 C 103.318941 96.306309 83.869062 91.804557 67.001919 91.761271 L 70.825522 75.75985 L 46.830605 95.758019 L 70.825522 115.756189 L 67.001919 99.754767 C 96.277738 103.333083 111.038292 91.501554 106.998258 59.758428 L 122.999679 63.582032 Z M 103.00151 39.587114 " transform="matrix(0.270728,0,0,0.270728,-2.674445,-3.21343)"/>
<path style=" stroke:none;fill-rule:evenodd;fill:rgb(95.294118%,71.764708%,85.09804%);fill-opacity:1;" d="M 25.210938 7.503906 L 19.796875 14 L 24.128906 12.964844 C 25.296875 22.859375 20.03125 21.640625 15.464844 21.628906 L 16.5 17.296875 L 10.003906 22.710938 L 16.5 28.125 L 15.464844 23.792969 C 23.390625 24.761719 27.386719 21.558594 26.292969 12.964844 L 30.625 14 Z M 25.210938 7.503906 "/>
</g>
</svg>
