<?xml version="1.0" encoding="UTF-8"?>
<svg xmlns="http://www.w3.org/2000/svg" xmlns:xlink="http://www.w3.org/1999/xlink" width="32px" height="32px" viewBox="0 0 32 32" version="1.1">
<g id="surface1">
<path style=" stroke:none;fill-rule:nonzero;fill:rgb(61.56863%,22.745098%,60.784316%);fill-opacity:1;" d="M 2 2 L 30 2 L 30 27.976562 L 2 27.976562 Z M 2 2 "/>
<path style=" stroke:none;fill-rule:nonzero;fill:rgb(95.294118%,71.764708%,85.09804%);fill-opacity:1;" d="M 0 2 L 0 28 L 32 28 L 32 2 Z M 2 3.175781 L 30 3.175781 L 30 8 L 2 8 Z M 2 9 L 30 9 L 30 14 L 2 14 Z M 2 15 L 30 15 L 30 20 L 2 20 Z M 2 21 L 30 21 L 30 27.027344 L 2 27.027344 Z M 2 21 "/>
<path style=" stroke:none;fill-rule:nonzero;fill:rgb(94.117647%,89.019608%,92.54902%);fill-opacity:1;" d="M 10 3 L 10 27.027344 L 2 27.027344 L 2 3 Z M 10 3 "/>
<path style=" stroke:none;fill-rule:nonzero;fill:rgb(90.196079%,0.784314%,70.588237%);fill-opacity:1;" d="M 0.0507812 2 C 0.0234375 2 0 2.027344 0 2.0625 L 0 27.9375 C 0 27.972656 0.0234375 28 0.0507812 28 L 11.949219 28 C 11.976562 28 12 27.972656 12 27.9375 L 12 2.0625 C 12 2.027344 11.976562 2 11.949219 2 Z M 2 3.175781 L 10 3.175781 L 10 8 L 2 8 Z M 2 9 L 10 9 L 10 14 L 2 14 Z M 2 15 L 10 15 L 10 20 L 2 20 Z M 2 21 L 10 21 L 10 27.027344 L 2 27.027344 Z M 2 21 "/>
</g>
</svg>
