<?xml version="1.0" encoding="UTF-8"?>
<svg xmlns="http://www.w3.org/2000/svg" xmlns:xlink="http://www.w3.org/1999/xlink" width="32px" height="32px" viewBox="0 0 32 32" version="1.1">
<defs>
<filter id="alpha" filterUnits="objectBoundingBox" x="0%" y="0%" width="100%" height="100%">
  <feColorMatrix type="matrix" in="SourceGraphic" values="0 0 0 0 1 0 0 0 0 1 0 0 0 0 1 0 0 0 1 0"/>
</filter>
<mask id="mask0">
  <g filter="url(#alpha)">
<rect x="0" y="0" width="32" height="32" style="fill:rgb(0%,0%,0%);fill-opacity:0.95;stroke:none;"/>
  </g>
</mask>
<clipPath id="clip1">
  <rect x="0" y="0" width="32" height="32"/>
</clipPath>
<g id="surface5" clip-path="url(#clip1)">
<path style=" stroke:none;fill-rule:nonzero;fill:rgb(61.56863%,22.745098%,60.784316%);fill-opacity:1;" d="M 21.070312 10 C 16.128906 9.96875 11.773438 13.234375 10.421875 17.988281 C 8.988281 23.03125 11.308594 28.382812 15.96875 30.78125 C 20.632812 33.179688 26.339844 31.953125 29.605469 27.851562 L 23.34375 22.875 C 22.453125 23.988281 20.898438 24.320312 19.628906 23.667969 C 18.355469 23.015625 17.722656 21.554688 18.113281 20.179688 C 18.503906 18.804688 19.8125 17.894531 21.238281 18.007812 C 21.734375 18.050781 22.210938 18.214844 22.625 18.484375 L 20.800781 20.308594 C 20.519531 20.589844 20.433594 21.015625 20.585938 21.382812 C 20.738281 21.753906 21.097656 21.992188 21.496094 21.992188 L 31.003906 21.992188 C 31.265625 21.992188 31.519531 21.890625 31.707031 21.703125 C 31.890625 21.515625 31.992188 21.261719 31.992188 21 L 31.992188 11.492188 C 31.992188 11.222656 31.886719 10.96875 31.691406 10.78125 C 31.5 10.59375 31.242188 10.496094 30.972656 10.503906 C 30.722656 10.515625 30.484375 10.621094 30.308594 10.800781 L 28.3125 12.796875 C 26.523438 11.199219 24.265625 10.230469 21.875 10.035156 C 21.605469 10.011719 21.339844 10 21.070312 10 Z M 21.070312 10 "/>
</g>
<mask id="mask1">
  <g filter="url(#alpha)">
<rect x="0" y="0" width="32" height="32" style="fill:rgb(0%,0%,0%);fill-opacity:0.95;stroke:none;"/>
  </g>
</mask>
<linearGradient id="linear0" gradientUnits="userSpaceOnUse" x1="17" y1="8" x2="17" y2="17" gradientTransform="matrix(0.157912,0,0,0.156831,54.723252,14.731447)">
<stop offset="0" style="stop-color:rgb(0%,0%,54.901963%);stop-opacity:1;"/>
<stop offset="0.3553" style="stop-color:rgb(10.980392%,10.980392%,67.450982%);stop-opacity:1;"/>
<stop offset="0.6194" style="stop-color:rgb(3.137255%,3.137255%,58.431375%);stop-opacity:1;"/>
<stop offset="0.7574" style="stop-color:rgb(0%,0%,54.901963%);stop-opacity:1;"/>
<stop offset="1" style="stop-color:rgb(0%,0%,30.19608%);stop-opacity:1;"/>
</linearGradient>
<clipPath id="clip2">
  <rect x="0" y="0" width="32" height="32"/>
</clipPath>
<g id="surface8" clip-path="url(#clip2)">
<path style=" stroke:none;fill-rule:nonzero;fill:url(#linear0);" d="M 21.058594 12 C 17.015625 11.972656 13.449219 14.648438 12.34375 18.535156 C 11.167969 22.660156 13.070312 27.042969 16.882812 29.003906 C 20.699219 30.964844 25.367188 29.960938 28.039062 26.605469 L 24.910156 24.113281 C 23.425781 25.976562 20.832031 26.535156 18.714844 25.445312 C 16.597656 24.355469 15.539062 21.925781 16.191406 19.632812 C 16.84375 17.339844 19.023438 15.824219 21.398438 16.015625 C 23.121094 16.15625 24.597656 17.164062 25.386719 18.613281 L 24 20 L 30 20 L 30 14 L 28.28125 15.71875 C 26.777344 13.644531 24.414062 12.242188 21.714844 12.027344 C 21.496094 12.011719 21.277344 12 21.058594 12 Z M 21.058594 12 "/>
</g>
<mask id="mask2">
  <g filter="url(#alpha)">
<rect x="0" y="0" width="32" height="32" style="fill:rgb(0%,0%,0%);fill-opacity:0.95;stroke:none;"/>
  </g>
</mask>
<radialGradient id="radial0" gradientUnits="userSpaceOnUse" cx="10.000115" cy="14.246079" fx="10.000115" fy="14.246079" r="4.500402" gradientTransform="matrix(2,-0.0000001,0.00000016,3.666339,-0.000230198,-23.730956)">
<stop offset="0" style="stop-color:rgb(34.117648%,34.117648%,100%);stop-opacity:1;"/>
<stop offset="0.3553" style="stop-color:rgb(13.333334%,24.705882%,81.960785%);stop-opacity:1;"/>
<stop offset="0.6194" style="stop-color:rgb(5.882353%,10.196079%,94.901961%);stop-opacity:1;"/>
<stop offset="0.7574" style="stop-color:rgb(0%,0%,81.176472%);stop-opacity:1;"/>
<stop offset="1" style="stop-color:rgb(0%,0%,55.686277%);stop-opacity:1;"/>
</radialGradient>
<clipPath id="clip3">
  <rect x="0" y="0" width="32" height="32"/>
</clipPath>
<g id="surface11" clip-path="url(#clip3)">
<path style=" stroke:none;fill-rule:nonzero;fill:url(#radial0);" d="M 21.058594 12 C 17.015625 11.972656 13.449219 14.648438 12.34375 18.535156 C 11.167969 22.660156 13.070312 27.042969 16.882812 29.003906 C 20.699219 30.964844 25.367188 29.960938 28.039062 26.605469 L 24.910156 24.113281 C 23.425781 25.976562 20.832031 26.535156 18.714844 25.445312 C 16.597656 24.355469 15.539062 21.925781 16.191406 19.632812 C 16.84375 17.339844 19.023438 15.824219 21.398438 16.015625 C 23.121094 16.15625 24.597656 17.164062 25.386719 18.613281 L 24 20 L 30 20 L 30 14 L 28.28125 15.71875 C 26.777344 13.644531 24.414062 12.242188 21.714844 12.027344 C 21.496094 12.011719 21.277344 12 21.058594 12 Z M 21.058594 12 "/>
</g>
<mask id="mask3">
  <g filter="url(#alpha)">
<rect x="0" y="0" width="32" height="32" style="fill:rgb(0%,0%,0%);fill-opacity:0.42;stroke:none;"/>
  </g>
</mask>
<radialGradient id="radial1" gradientUnits="userSpaceOnUse" cx="6" cy="9.999972" fx="6" fy="9.999972" r="4.500402" gradientTransform="matrix(0.88881,0,0,1.999889,6.667143,0.001166)">
<stop offset="0" style="stop-color:rgb(0%,0%,0%);stop-opacity:1;"/>
<stop offset="1" style="stop-color:rgb(0%,0%,0%);stop-opacity:0;"/>
</radialGradient>
<clipPath id="clip4">
  <rect x="0" y="0" width="32" height="32"/>
</clipPath>
<g id="surface14" clip-path="url(#clip4)">
<path style=" stroke:none;fill-rule:nonzero;fill:url(#radial1);" d="M 21.058594 12 C 17.015625 11.972656 13.449219 14.648438 12.34375 18.535156 C 11.167969 22.660156 13.070312 27.042969 16.882812 29.003906 C 20.699219 30.964844 25.367188 29.960938 28.039062 26.605469 L 24.910156 24.113281 C 23.425781 25.976562 20.832031 26.535156 18.714844 25.445312 C 16.597656 24.355469 15.539062 21.925781 16.191406 19.632812 C 16.84375 17.339844 19.023438 15.824219 21.398438 16.015625 C 23.121094 16.15625 24.597656 17.164062 25.386719 18.613281 L 24 20 L 30 20 L 30 14 L 28.28125 15.71875 C 26.777344 13.644531 24.414062 12.242188 21.714844 12.027344 C 21.496094 12.011719 21.277344 12 21.058594 12 Z M 21.058594 12 "/>
</g>
<mask id="mask4">
  <g filter="url(#alpha)">
<rect x="0" y="0" width="32" height="32" style="fill:rgb(0%,0%,0%);fill-opacity:0.798;stroke:none;"/>
  </g>
</mask>
<radialGradient id="radial2" gradientUnits="userSpaceOnUse" cx="10.499598" cy="10.500055" fx="10.499598" fy="10.500055" r="4.500402" gradientTransform="matrix(2,0,0,1.999889,0.00000180222,0.001166)">
<stop offset="0" style="stop-color:rgb(0%,0%,0%);stop-opacity:1;"/>
<stop offset="1" style="stop-color:rgb(0%,0%,0%);stop-opacity:0;"/>
</radialGradient>
<clipPath id="clip5">
  <rect x="0" y="0" width="32" height="32"/>
</clipPath>
<g id="surface17" clip-path="url(#clip5)">
<path style=" stroke:none;fill-rule:nonzero;fill:url(#radial2);" d="M 21.058594 12 C 17.015625 11.972656 13.449219 14.648438 12.34375 18.535156 C 11.167969 22.660156 13.070312 27.042969 16.882812 29.003906 C 20.699219 30.964844 25.367188 29.960938 28.039062 26.605469 L 24.910156 24.113281 C 23.425781 25.976562 20.832031 26.535156 18.714844 25.445312 C 16.597656 24.355469 15.539062 21.925781 16.191406 19.632812 C 16.84375 17.339844 19.023438 15.824219 21.398438 16.015625 C 23.121094 16.15625 24.597656 17.164062 25.386719 18.613281 L 24 20 L 30 20 L 30 14 L 28.28125 15.71875 C 26.777344 13.644531 24.414062 12.242188 21.714844 12.027344 C 21.496094 12.011719 21.277344 12 21.058594 12 Z M 21.058594 12 "/>
</g>
<mask id="mask5">
  <g filter="url(#alpha)">
<rect x="0" y="0" width="32" height="32" style="fill:rgb(0%,0%,0%);fill-opacity:0.95;stroke:none;"/>
  </g>
</mask>
<radialGradient id="radial3" gradientUnits="userSpaceOnUse" cx="13" cy="9.999972" fx="13" fy="9.999972" r="4.500402" gradientTransform="matrix(1.405331,0.00000012,-0.0000001,1.333214,7.730694,6.667893)">
<stop offset="0" style="stop-color:rgb(0%,0%,100%);stop-opacity:1;"/>
<stop offset="1" style="stop-color:rgb(0%,0%,30.19608%);stop-opacity:0;"/>
</radialGradient>
<clipPath id="clip6">
  <rect x="0" y="0" width="32" height="32"/>
</clipPath>
<g id="surface20" clip-path="url(#clip6)">
<path style=" stroke:none;fill-rule:nonzero;fill:url(#radial3);" d="M 21.058594 12 C 17.015625 11.972656 13.449219 14.648438 12.34375 18.535156 C 11.167969 22.660156 13.070312 27.042969 16.882812 29.003906 C 20.699219 30.964844 25.367188 29.960938 28.039062 26.605469 L 24.910156 24.113281 C 23.425781 25.976562 20.832031 26.535156 18.714844 25.445312 C 16.597656 24.355469 15.539062 21.925781 16.191406 19.632812 C 16.84375 17.339844 19.023438 15.824219 21.398438 16.015625 C 23.121094 16.15625 24.597656 17.164062 25.386719 18.613281 L 24 20 L 30 20 L 30 14 L 28.28125 15.71875 C 26.777344 13.644531 24.414062 12.242188 21.714844 12.027344 C 21.496094 12.011719 21.277344 12 21.058594 12 Z M 21.058594 12 "/>
</g>
<mask id="mask6">
  <g filter="url(#alpha)">
<rect x="0" y="0" width="32" height="32" style="fill:rgb(0%,0%,0%);fill-opacity:0.95;stroke:none;"/>
  </g>
</mask>
<clipPath id="clip7">
  <rect x="0" y="0" width="32" height="32"/>
</clipPath>
<g id="surface23" clip-path="url(#clip7)">
<path style=" stroke:none;fill-rule:nonzero;fill:rgb(94.117647%,89.019608%,92.54902%);fill-opacity:1;" d="M 21.058594 12 C 17.015625 11.972656 13.449219 14.648438 12.34375 18.535156 C 11.167969 22.660156 13.070312 27.042969 16.882812 29.003906 C 20.699219 30.964844 25.367188 29.960938 28.039062 26.605469 L 24.910156 24.113281 C 23.425781 25.976562 20.832031 26.535156 18.714844 25.445312 C 16.597656 24.355469 15.539062 21.925781 16.191406 19.632812 C 16.84375 17.339844 19.023438 15.824219 21.398438 16.015625 C 23.121094 16.15625 24.597656 17.164062 25.386719 18.613281 L 24 20 L 30 20 L 30 14 L 28.28125 15.71875 C 26.777344 13.644531 24.414062 12.242188 21.714844 12.027344 C 21.496094 12.011719 21.277344 12 21.058594 12 Z M 21.058594 12 "/>
</g>
</defs>
<g id="surface1">
<path style=" stroke:none;fill-rule:nonzero;fill:rgb(90.196079%,0.784314%,70.588237%);fill-opacity:1;" d="M 4 2 L 4 30 L 19.292969 30 C 19.425781 30 19.554688 29.945312 19.648438 29.851562 L 27.851562 21.648438 C 27.945312 21.554688 28 21.425781 28 21.292969 L 28 2 Z M 4 2 "/>
<path style=" stroke:none;fill-rule:nonzero;fill:rgb(94.117647%,89.019608%,92.54902%);fill-opacity:1;" d="M 6.167969 4 C 6.035156 4 5.925781 4.109375 5.925781 4.246094 L 6 27.753906 C 6 27.890625 6.109375 28 6.246094 28 L 19.222656 28 C 19.289062 28 19.351562 27.972656 19.394531 27.929688 L 25.929688 21.371094 C 25.972656 21.324219 26 21.261719 26 21.195312 L 26 4.246094 C 26 4.109375 25.890625 4 25.753906 4 Z M 6.167969 4 "/>
<path style=" stroke:none;fill-rule:nonzero;fill:rgb(90.196079%,0.784314%,70.588237%);fill-opacity:1;" d="M 19.648438 29.851562 C 19.648438 29.851562 22.625 27.375 24 26 C 25.375 24.625 27.851562 21.648438 27.851562 21.648438 C 27.851562 21.648438 22.5625 22 20 22 C 20 24.5625 19.648438 29.851562 19.648438 29.851562 Z M 19.648438 29.851562 "/>
<path style=" stroke:none;fill-rule:nonzero;fill:rgb(94.117647%,89.019608%,92.54902%);fill-opacity:1;" d="M 2 10 L 20 10 L 20 31 L 2 31 Z M 2 10 "/>
<path style="fill-rule:nonzero;fill:rgb(95.294118%,71.764708%,85.09804%);fill-opacity:1;stroke-width:0.0661458;stroke-linecap:round;stroke-linejoin:round;stroke:rgb(90.196079%,0.784314%,70.588237%);stroke-opacity:1;stroke-miterlimit:4;" d="M 0.0330727 1.156519 L 0.0330727 4.199227 L 2.94349 4.199227 L 2.94349 1.156519 Z M 0.297656 1.292428 L 1.355989 1.292428 L 1.355989 2.086178 L 0.297656 2.086178 Z M 1.620573 1.292428 L 2.678906 1.292428 L 2.678906 2.086178 L 1.620573 2.086178 Z M 0.297656 2.218469 L 1.355989 2.218469 L 1.355989 3.140894 L 0.297656 3.140894 Z M 1.620573 2.218469 L 2.678906 2.218469 L 2.678906 3.140894 L 1.620573 3.140894 Z M 0.297656 3.273185 L 1.355989 3.273185 L 1.355989 4.070553 L 0.297656 4.070553 Z M 1.620573 3.273185 L 2.678906 3.273185 L 2.678906 4.070553 L 1.620573 4.070553 Z M 1.620573 3.273185 " transform="matrix(7.559055,0,0,7.559055,0.00000180222,0)"/>
<use xlink:href="#surface5" mask="url(#mask0)"/>
<use xlink:href="#surface8" mask="url(#mask1)"/>
<use xlink:href="#surface11" mask="url(#mask2)"/>
<use xlink:href="#surface14" mask="url(#mask3)"/>
<use xlink:href="#surface17" mask="url(#mask4)"/>
<use xlink:href="#surface20" mask="url(#mask5)"/>
<use xlink:href="#surface23" mask="url(#mask6)"/>
</g>
</svg>
