<?xml version="1.0" encoding="UTF-8"?>
<svg xmlns="http://www.w3.org/2000/svg" xmlns:xlink="http://www.w3.org/1999/xlink" width="32px" height="32px" viewBox="0 0 32 32" version="1.1">
<g id="surface1">
<path style="fill-rule:nonzero;fill:rgb(95.294118%,71.764708%,85.09804%);fill-opacity:1;stroke-width:0.25;stroke-linecap:round;stroke-linejoin:round;stroke:rgb(61.56863%,22.745098%,60.784316%);stroke-opacity:1;stroke-miterlimit:4;" d="M 8.009766 0.125 C 4.699219 0.125 2.011719 0.779297 2.011719 1.53125 C 2.011719 3.078125 6.673828 7.847656 6.673828 7.847656 C 6.693359 7.875 6.716797 7.921875 6.714844 7.974609 L 6.714844 14.78125 C 6.714844 14.949219 6.947266 15.054688 7.861328 15.054688 C 8.755859 15.054688 9.304688 14.974609 9.304688 14.78125 C 9.304688 14.78125 9.304688 14.779297 9.304688 14.777344 L 9.296875 7.974609 C 9.296875 7.943359 9.300781 7.908203 9.316406 7.880859 C 9.316406 7.880859 13.988281 3.035156 13.988281 1.472656 C 13.988281 0.939453 11.320312 0.125 8.009766 0.125 Z M 8.009766 0.125 " transform="matrix(2,0,0,2,0,0)"/>
<path style=" stroke:none;fill-rule:nonzero;fill:rgb(90.196079%,0.784314%,70.588237%);fill-opacity:1;" d="M 16.019531 4.046875 C 11.671875 4.046875 8.070312 4.578125 7.5 5.261719 C 9.371094 5.703125 12.488281 6 16.019531 6 C 19.546875 6 22.660156 5.710938 24.535156 5.269531 C 23.972656 4.582031 20.375 4.046875 16.019531 4.046875 Z M 16.019531 4.046875 "/>
<path style="fill:none;stroke-width:0.0982779;stroke-linecap:round;stroke-linejoin:round;stroke:rgb(61.56863%,22.745098%,60.784316%);stroke-opacity:1;stroke-miterlimit:4;" d="M 13.933594 1.566406 C 13.933594 2.367188 11.277344 3.017578 8.001953 3.017578 C 4.726562 3.017578 2.072266 2.367188 2.072266 1.566406 C 2.072266 0.765625 4.726562 0.115234 8.001953 0.115234 C 11.277344 0.115234 13.933594 0.765625 13.933594 1.566406 Z M 13.933594 1.566406 " transform="matrix(2,0,0,2,0,0)"/>
<path style=" stroke:none;fill-rule:nonzero;fill:rgb(90.196079%,0.784314%,70.588237%);fill-opacity:1;" d="M 16.136719 14.007812 C 14.9375 14.007812 13.972656 14.972656 13.972656 16.171875 L 13.972656 29.882812 C 13.972656 31.082031 14.9375 32.046875 16.136719 32.046875 L 29.855469 32.046875 C 31.054688 32.046875 32.019531 31.082031 32.019531 29.882812 L 32.019531 16.171875 C 32.019531 14.972656 31.054688 14.007812 29.855469 14.007812 Z M 16.136719 14.007812 "/>
<path style=" stroke:none;fill-rule:nonzero;fill:rgb(94.117647%,89.019608%,92.54902%);fill-opacity:1;" d="M 17.210938 16.019531 C 16.527344 16.019531 16 16.546875 16 17.230469 L 16 28.921875 C 16 29.601562 16.527344 30.132812 17.210938 30.132812 L 28.910156 30.132812 C 29.589844 30.132812 30.121094 29.601562 30.121094 28.921875 L 30.121094 17.230469 C 30.121094 16.546875 29.589844 16.019531 28.910156 16.019531 Z M 17.210938 16.019531 "/>
<path style=" stroke:none;fill-rule:nonzero;fill:rgb(61.56863%,22.745098%,60.784316%);fill-opacity:1;" d="M 22.554688 18.023438 L 23.488281 18.023438 C 23.789062 18.023438 24.03125 18.265625 24.03125 18.566406 L 24.03125 23.554688 C 24.03125 23.855469 23.789062 24.097656 23.488281 24.097656 L 22.554688 24.097656 C 22.253906 24.097656 22.011719 23.855469 22.011719 23.554688 L 22.011719 18.566406 C 22.011719 18.265625 22.253906 18.023438 22.554688 18.023438 Z M 22.554688 18.023438 "/>
<path style=" stroke:none;fill-rule:nonzero;fill:rgb(61.56863%,22.745098%,60.784316%);fill-opacity:1;" d="M 23.046875 26.011719 L 23.050781 26.011719 C 23.765625 26.011719 24.347656 26.59375 24.347656 27.308594 C 24.347656 28.027344 23.765625 28.609375 23.050781 28.609375 L 23.046875 28.609375 C 22.328125 28.609375 21.746094 28.027344 21.746094 27.308594 C 21.746094 26.59375 22.328125 26.011719 23.046875 26.011719 Z M 23.046875 26.011719 "/>
</g>
</svg>
