<?xml version="1.0" encoding="UTF-8"?>
<svg xmlns="http://www.w3.org/2000/svg" xmlns:xlink="http://www.w3.org/1999/xlink" width="32px" height="32px" viewBox="0 0 32 32" version="1.1">
<g id="surface1">
<path style=" stroke:none;fill-rule:nonzero;fill:rgb(95.294118%,71.764708%,85.09804%);fill-opacity:1;" d="M 2 2 L 30 2 L 30 28.121094 L 2 28.121094 Z M 2 2 "/>
<path style=" stroke:none;fill-rule:nonzero;fill:rgb(61.56863%,22.745098%,60.784316%);fill-opacity:1;" d="M 0 2 L 0 28 L 32 28 L 32 2 Z M 2 3.175781 L 8 3.175781 L 8 8 L 2 8 Z M 10 3.175781 L 22 3.175781 L 22 8 L 10 8 Z M 24 3.175781 L 30 3.175781 L 30 8 L 24 8 Z M 2 9 L 8 9 L 8 14 L 2 14 Z M 10 9 L 22 9 L 22 14 L 10 14 Z M 24 9 L 30 9 L 30 14 L 24 14 Z M 2 15 L 8 15 L 8 20 L 2 20 Z M 10 15 L 22 15 L 22 20 L 10 20 Z M 24 15 L 30 15 L 30 20 L 24 20 Z M 2 21 L 8 21 L 8 27.027344 L 2 27.027344 Z M 10 21 L 22 21 L 22 27.027344 L 10 27.027344 Z M 24 21 L 30 21 L 30 27.027344 L 24 27.027344 Z M 24 21 "/>
<path style=" stroke:none;fill-rule:nonzero;fill:rgb(94.117647%,89.019608%,92.54902%);fill-opacity:1;" d="M 10 21 L 16 21 L 16 27 L 10 27 Z M 10 21 "/>
<path style=" stroke:none;fill-rule:nonzero;fill:rgb(94.117647%,89.019608%,92.54902%);fill-opacity:1;" d="M 10 15 L 14 15 L 14 20 L 10 20 Z M 10 15 "/>
<path style=" stroke:none;fill-rule:nonzero;fill:rgb(94.117647%,89.019608%,92.54902%);fill-opacity:1;" d="M 10 9 L 12 9 L 12 14 L 10 14 Z M 10 9 "/>
<path style=" stroke:none;fill-rule:nonzero;fill:rgb(94.117647%,89.019608%,92.54902%);fill-opacity:1;" d="M 10 3 L 16 3.175781 L 16 8.175781 L 10 8 Z M 10 3 "/>
<path style=" stroke:none;fill-rule:nonzero;fill:rgb(90.196079%,0.784314%,70.588237%);fill-opacity:1;" d="M 8 20 L 8 28 L 18 28 L 18 20 Z M 10 21 L 16 21 L 16 27 L 10 27 Z M 10 21 "/>
<path style=" stroke:none;fill-rule:nonzero;fill:rgb(90.196079%,0.784314%,70.588237%);fill-opacity:1;" d="M 8 14 L 8 21 L 16 21 L 16 14 Z M 10 15 L 14 15 L 14 20 L 10 20 Z M 10 15 "/>
<path style=" stroke:none;fill-rule:nonzero;fill:rgb(90.196079%,0.784314%,70.588237%);fill-opacity:1;" d="M 8 8 L 8 15 L 14 15 L 14 8 Z M 10 9 L 12 9 L 12 14 L 10 14 Z M 10 9 "/>
<path style=" stroke:none;fill-rule:nonzero;fill:rgb(90.196079%,0.784314%,70.588237%);fill-opacity:1;" d="M 8 2 L 8 9 L 18 9 L 18 2 Z M 10 3.175781 L 16 3.175781 L 16 8 L 10 8 Z M 10 3.175781 "/>
<path style=" stroke:none;fill-rule:nonzero;fill:rgb(90.196079%,0.784314%,70.588237%);fill-opacity:1;" d="M 21 5.5 C 21 6.328125 20.328125 7 19.5 7 C 18.671875 7 18 6.328125 18 5.5 C 18 4.671875 18.671875 4 19.5 4 C 20.328125 4 21 4.671875 21 5.5 Z M 21 5.5 "/>
<path style=" stroke:none;fill-rule:nonzero;fill:rgb(90.196079%,0.784314%,70.588237%);fill-opacity:1;" d="M 21 11.5 C 21 12.328125 20.328125 13 19.5 13 C 18.671875 13 18 12.328125 18 11.5 C 18 10.671875 18.671875 10 19.5 10 C 20.328125 10 21 10.671875 21 11.5 Z M 21 11.5 "/>
<path style=" stroke:none;fill-rule:nonzero;fill:rgb(90.196079%,0.784314%,70.588237%);fill-opacity:1;" d="M 21 17.5 C 21 18.328125 20.328125 19 19.5 19 C 18.671875 19 18 18.328125 18 17.5 C 18 16.671875 18.671875 16 19.5 16 C 20.328125 16 21 16.671875 21 17.5 Z M 21 17.5 "/>
<path style=" stroke:none;fill-rule:nonzero;fill:rgb(90.196079%,0.784314%,70.588237%);fill-opacity:1;" d="M 21 23.5 C 21 24.328125 20.328125 25 19.5 25 C 18.671875 25 18 24.328125 18 23.5 C 18 22.671875 18.671875 22 19.5 22 C 20.328125 22 21 22.671875 21 23.5 Z M 21 23.5 "/>
</g>
</svg>
