<?xml version="1.0" encoding="UTF-8"?>
<svg xmlns="http://www.w3.org/2000/svg" xmlns:xlink="http://www.w3.org/1999/xlink" width="32px" height="32px" viewBox="0 0 32 32" version="1.1">
<defs>
<filter id="alpha" filterUnits="objectBoundingBox" x="0%" y="0%" width="100%" height="100%">
  <feColorMatrix type="matrix" in="SourceGraphic" values="0 0 0 0 1 0 0 0 0 1 0 0 0 0 1 0 0 0 1 0"/>
</filter>
<mask id="mask0">
  <g filter="url(#alpha)">
<rect x="0" y="0" width="32" height="32" style="fill:rgb(0%,0%,0%);fill-opacity:0.78;stroke:none;"/>
  </g>
</mask>
<clipPath id="clip1">
  <rect x="0" y="0" width="32" height="32"/>
</clipPath>
<g id="surface5" clip-path="url(#clip1)">
<path style=" stroke:none;fill-rule:nonzero;fill:rgb(95.294118%,71.764708%,85.09804%);fill-opacity:1;" d="M 2.070312 1 L 29.929688 1 C 29.96875 1 30 1.027344 30 1.0625 L 30 5.9375 C 30 5.972656 29.96875 6 29.929688 6 L 2.070312 6 C 2.03125 6 2 5.972656 2 5.9375 L 2 1.0625 C 2 1.027344 2.03125 1 2.070312 1 Z M 2.070312 1 "/>
</g>
<clipPath id="clip2">
  <path d="M 10 10 L 32 10 L 32 32 L 10 32 Z M 10 10 "/>
</clipPath>
<clipPath id="clip3">
  <path d="M 21.070312 10.003906 C 16.128906 9.972656 11.773438 13.238281 10.421875 17.992188 C 8.988281 23.03125 11.308594 28.386719 15.96875 30.785156 C 19.121094 32.40625 22.738281 32.335938 25.769531 30.875 L 21.3125 23.988281 C 20.734375 24.046875 20.148438 23.9375 19.628906 23.671875 C 18.355469 23.015625 17.722656 21.558594 18.113281 20.183594 C 18.503906 18.804688 19.8125 17.894531 21.238281 18.011719 C 21.734375 18.050781 22.210938 18.214844 22.625 18.488281 L 20.800781 20.3125 C 20.519531 20.59375 20.433594 21.015625 20.585938 21.386719 C 20.738281 21.753906 21.097656 21.996094 21.496094 21.996094 L 31.003906 21.996094 C 31.265625 21.996094 31.519531 21.890625 31.707031 21.703125 C 31.890625 21.519531 31.992188 21.265625 31.992188 21.003906 L 31.992188 11.496094 C 31.992188 11.226562 31.886719 10.96875 31.691406 10.78125 C 31.5 10.597656 31.242188 10.496094 30.972656 10.507812 C 30.722656 10.515625 30.484375 10.621094 30.308594 10.804688 L 28.3125 12.800781 C 26.523438 11.203125 24.265625 10.230469 21.875 10.039062 C 21.605469 10.015625 21.339844 10.007812 21.070312 10 Z M 21.070312 10.003906 "/>
</clipPath>
<mask id="mask1">
  <g filter="url(#alpha)">
<rect x="0" y="0" width="32" height="32" style="fill:rgb(0%,0%,0%);fill-opacity:0.95;stroke:none;"/>
  </g>
</mask>
<clipPath id="clip4">
  <rect x="0" y="0" width="32" height="32"/>
</clipPath>
<g id="surface8" clip-path="url(#clip4)">
<path style=" stroke:none;fill-rule:nonzero;fill:rgb(90.196079%,0.784314%,70.588237%);fill-opacity:1;" d="M 21.070312 10 C 16.128906 9.96875 11.773438 13.234375 10.421875 17.988281 C 8.988281 23.03125 11.308594 28.382812 15.96875 30.78125 C 20.632812 33.179688 26.339844 31.953125 29.605469 27.851562 L 23.34375 22.875 C 22.453125 23.988281 20.898438 24.320312 19.628906 23.667969 C 18.355469 23.015625 17.722656 21.554688 18.113281 20.179688 C 18.503906 18.804688 19.8125 17.894531 21.238281 18.007812 C 21.734375 18.050781 22.210938 18.214844 22.625 18.484375 L 20.800781 20.308594 C 20.519531 20.589844 20.433594 21.015625 20.585938 21.382812 C 20.738281 21.753906 21.097656 21.992188 21.496094 21.992188 L 31.003906 21.992188 C 31.265625 21.992188 31.519531 21.890625 31.707031 21.703125 C 31.890625 21.515625 31.992188 21.261719 31.992188 21 L 31.992188 11.492188 C 31.992188 11.222656 31.886719 10.96875 31.691406 10.78125 C 31.5 10.59375 31.242188 10.496094 30.972656 10.503906 C 30.722656 10.515625 30.484375 10.621094 30.308594 10.800781 L 28.3125 12.796875 C 26.523438 11.199219 24.265625 10.230469 21.875 10.035156 C 21.605469 10.011719 21.339844 10 21.070312 10 Z M 21.070312 10 "/>
</g>
<mask id="mask2">
  <g filter="url(#alpha)">
<rect x="0" y="0" width="32" height="32" style="fill:rgb(0%,0%,0%);fill-opacity:0.95;stroke:none;"/>
  </g>
</mask>
<linearGradient id="linear0" gradientUnits="userSpaceOnUse" x1="17" y1="8" x2="17" y2="17" gradientTransform="matrix(0.157912,0,0,0.156831,54.72325,14.731418)">
<stop offset="0" style="stop-color:rgb(0%,0%,54.901963%);stop-opacity:1;"/>
<stop offset="0.3553" style="stop-color:rgb(10.980392%,10.980392%,67.450982%);stop-opacity:1;"/>
<stop offset="0.6194" style="stop-color:rgb(3.137255%,3.137255%,58.431375%);stop-opacity:1;"/>
<stop offset="0.7574" style="stop-color:rgb(0%,0%,54.901963%);stop-opacity:1;"/>
<stop offset="1" style="stop-color:rgb(0%,0%,30.19608%);stop-opacity:1;"/>
</linearGradient>
<clipPath id="clip5">
  <rect x="0" y="0" width="32" height="32"/>
</clipPath>
<g id="surface11" clip-path="url(#clip5)">
<path style=" stroke:none;fill-rule:nonzero;fill:url(#linear0);" d="M 21.058594 12 C 17.015625 11.972656 13.449219 14.648438 12.34375 18.535156 C 11.167969 22.660156 13.070312 27.042969 16.882812 29.003906 C 20.699219 30.964844 25.367188 29.960938 28.039062 26.605469 L 24.910156 24.113281 C 23.425781 25.976562 20.832031 26.535156 18.714844 25.445312 C 16.597656 24.355469 15.539062 21.925781 16.191406 19.632812 C 16.84375 17.339844 19.023438 15.824219 21.398438 16.015625 C 23.121094 16.15625 24.597656 17.164062 25.386719 18.613281 L 24 20 L 30 20 L 30 14 L 28.28125 15.71875 C 26.777344 13.644531 24.414062 12.242188 21.714844 12.027344 C 21.496094 12.011719 21.277344 12 21.058594 12 Z M 21.058594 12 "/>
</g>
<mask id="mask3">
  <g filter="url(#alpha)">
<rect x="0" y="0" width="32" height="32" style="fill:rgb(0%,0%,0%);fill-opacity:0.95;stroke:none;"/>
  </g>
</mask>
<radialGradient id="radial0" gradientUnits="userSpaceOnUse" cx="10.000115" cy="14.246079" fx="10.000115" fy="14.246079" r="4.500402" gradientTransform="matrix(2,-0.0000001,0.00000016,3.666339,-0.000231143,-23.730985)">
<stop offset="0" style="stop-color:rgb(34.117648%,34.117648%,100%);stop-opacity:1;"/>
<stop offset="0.3553" style="stop-color:rgb(13.333334%,24.705882%,81.960785%);stop-opacity:1;"/>
<stop offset="0.6194" style="stop-color:rgb(5.882353%,10.196079%,94.901961%);stop-opacity:1;"/>
<stop offset="0.7574" style="stop-color:rgb(0%,0%,81.176472%);stop-opacity:1;"/>
<stop offset="1" style="stop-color:rgb(0%,0%,55.686277%);stop-opacity:1;"/>
</radialGradient>
<clipPath id="clip6">
  <rect x="0" y="0" width="32" height="32"/>
</clipPath>
<g id="surface14" clip-path="url(#clip6)">
<path style=" stroke:none;fill-rule:nonzero;fill:url(#radial0);" d="M 21.058594 12 C 17.015625 11.972656 13.449219 14.648438 12.34375 18.535156 C 11.167969 22.660156 13.070312 27.042969 16.882812 29.003906 C 20.699219 30.964844 25.367188 29.960938 28.039062 26.605469 L 24.910156 24.113281 C 23.425781 25.976562 20.832031 26.535156 18.714844 25.445312 C 16.597656 24.355469 15.539062 21.925781 16.191406 19.632812 C 16.84375 17.339844 19.023438 15.824219 21.398438 16.015625 C 23.121094 16.15625 24.597656 17.164062 25.386719 18.613281 L 24 20 L 30 20 L 30 14 L 28.28125 15.71875 C 26.777344 13.644531 24.414062 12.242188 21.714844 12.027344 C 21.496094 12.011719 21.277344 12 21.058594 12 Z M 21.058594 12 "/>
</g>
<mask id="mask4">
  <g filter="url(#alpha)">
<rect x="0" y="0" width="32" height="32" style="fill:rgb(0%,0%,0%);fill-opacity:0.42;stroke:none;"/>
  </g>
</mask>
<radialGradient id="radial1" gradientUnits="userSpaceOnUse" cx="6" cy="9.999972" fx="6" fy="9.999972" r="4.500402" gradientTransform="matrix(0.888809,0,0,1.999889,6.667142,0.00113716)">
<stop offset="0" style="stop-color:rgb(0%,0%,0%);stop-opacity:1;"/>
<stop offset="1" style="stop-color:rgb(0%,0%,0%);stop-opacity:0;"/>
</radialGradient>
<clipPath id="clip7">
  <rect x="0" y="0" width="32" height="32"/>
</clipPath>
<g id="surface17" clip-path="url(#clip7)">
<path style=" stroke:none;fill-rule:nonzero;fill:url(#radial1);" d="M 21.058594 12 C 17.015625 11.972656 13.449219 14.648438 12.34375 18.535156 C 11.167969 22.660156 13.070312 27.042969 16.882812 29.003906 C 20.699219 30.964844 25.367188 29.960938 28.039062 26.605469 L 24.910156 24.113281 C 23.425781 25.976562 20.832031 26.535156 18.714844 25.445312 C 16.597656 24.355469 15.539062 21.925781 16.191406 19.632812 C 16.84375 17.339844 19.023438 15.824219 21.398438 16.015625 C 23.121094 16.15625 24.597656 17.164062 25.386719 18.613281 L 24 20 L 30 20 L 30 14 L 28.28125 15.71875 C 26.777344 13.644531 24.414062 12.242188 21.714844 12.027344 C 21.496094 12.011719 21.277344 12 21.058594 12 Z M 21.058594 12 "/>
</g>
<mask id="mask5">
  <g filter="url(#alpha)">
<rect x="0" y="0" width="32" height="32" style="fill:rgb(0%,0%,0%);fill-opacity:0.798;stroke:none;"/>
  </g>
</mask>
<radialGradient id="radial2" gradientUnits="userSpaceOnUse" cx="10.499598" cy="10.500055" fx="10.499598" fy="10.500055" r="4.500402" gradientTransform="matrix(2,0,0,1.999889,0.000000857337,0.00113716)">
<stop offset="0" style="stop-color:rgb(0%,0%,0%);stop-opacity:1;"/>
<stop offset="1" style="stop-color:rgb(0%,0%,0%);stop-opacity:0;"/>
</radialGradient>
<clipPath id="clip8">
  <rect x="0" y="0" width="32" height="32"/>
</clipPath>
<g id="surface20" clip-path="url(#clip8)">
<path style=" stroke:none;fill-rule:nonzero;fill:url(#radial2);" d="M 21.058594 12 C 17.015625 11.972656 13.449219 14.648438 12.34375 18.535156 C 11.167969 22.660156 13.070312 27.042969 16.882812 29.003906 C 20.699219 30.964844 25.367188 29.960938 28.039062 26.605469 L 24.910156 24.113281 C 23.425781 25.976562 20.832031 26.535156 18.714844 25.445312 C 16.597656 24.355469 15.539062 21.925781 16.191406 19.632812 C 16.84375 17.339844 19.023438 15.824219 21.398438 16.015625 C 23.121094 16.15625 24.597656 17.164062 25.386719 18.613281 L 24 20 L 30 20 L 30 14 L 28.28125 15.71875 C 26.777344 13.644531 24.414062 12.242188 21.714844 12.027344 C 21.496094 12.011719 21.277344 12 21.058594 12 Z M 21.058594 12 "/>
</g>
<mask id="mask6">
  <g filter="url(#alpha)">
<rect x="0" y="0" width="32" height="32" style="fill:rgb(0%,0%,0%);fill-opacity:0.95;stroke:none;"/>
  </g>
</mask>
<clipPath id="clip9">
  <rect x="0" y="0" width="32" height="32"/>
</clipPath>
<g id="surface23" clip-path="url(#clip9)">
<path style=" stroke:none;fill-rule:nonzero;fill:rgb(95.294118%,71.764708%,85.09804%);fill-opacity:1;" d="M 21.058594 12 C 17.015625 11.972656 13.449219 14.648438 12.34375 18.535156 C 11.167969 22.660156 13.070312 27.042969 16.882812 29.003906 C 20.699219 30.964844 25.367188 29.960938 28.039062 26.605469 L 24.910156 24.113281 C 23.425781 25.976562 20.832031 26.535156 18.714844 25.445312 C 16.597656 24.355469 15.539062 21.925781 16.191406 19.632812 C 16.84375 17.339844 19.023438 15.824219 21.398438 16.015625 C 23.121094 16.15625 24.597656 17.164062 25.386719 18.613281 L 24 20 L 30 20 L 30 14 L 28.28125 15.71875 C 26.777344 13.644531 24.414062 12.242188 21.714844 12.027344 C 21.496094 12.011719 21.277344 12 21.058594 12 Z M 21.058594 12 "/>
</g>
</defs>
<g id="surface1">
<path style=" stroke:none;fill-rule:nonzero;fill:rgb(61.56863%,22.745098%,60.784316%);fill-opacity:1;" d="M 0 0 L 0 26 L 12 26 L 12 7 L 32 7 L 32 0 Z M 2 1.175781 L 10 1.175781 L 10 6 L 2 6 Z M 12 1.175781 L 20 1.175781 L 20 6 L 12 6 Z M 22 1.175781 L 30 1.175781 L 30 6 L 22 6 Z M 2 7 L 10 7 L 10 18 L 2 18 Z M 2 19 L 10 19 L 10 25.027344 L 2 25.027344 Z M 2 19 "/>
<use xlink:href="#surface5" mask="url(#mask0)"/>
<path style=" stroke:none;fill-rule:nonzero;fill:rgb(61.56863%,22.745098%,60.784316%);fill-opacity:1;" d="M 0.0507812 0 C 0.0234375 0 0 0.0273438 0 0.0625 L 0 7 L 12 7 L 12 6.9375 C 12 6.972656 12.023438 7 12.050781 7 L 31.949219 7 C 31.976562 7 32 6.972656 32 6.9375 L 32 0.0625 C 32 0.0273438 31.976562 0 31.949219 0 L 12.050781 0 C 12.023438 0 12 0.0273438 12 0.0625 C 12 0.0273438 11.976562 0 11.949219 0 Z M 2 1.175781 L 10 1.175781 L 10 6 L 2 6 Z M 12 1.175781 L 20 1.175781 L 20 6 L 12 6 Z M 22 1.175781 L 30 1.175781 L 30 6 L 22 6 Z M 22 1.175781 "/>
<path style=" stroke:none;fill-rule:nonzero;fill:rgb(61.56863%,22.745098%,60.784316%);fill-opacity:1;" d="M 2 12 L 10 12 L 10 13 L 2 13 Z M 2 12 "/>
<g clip-path="url(#clip2)" clip-rule="nonzero">
<g clip-path="url(#clip3)" clip-rule="nonzero">
<use xlink:href="#surface8" mask="url(#mask1)"/>
<use xlink:href="#surface11" mask="url(#mask2)"/>
<use xlink:href="#surface14" mask="url(#mask3)"/>
<use xlink:href="#surface17" mask="url(#mask4)"/>
<use xlink:href="#surface20" mask="url(#mask5)"/>
<use xlink:href="#surface23" mask="url(#mask6)"/>
</g>
</g>
</g>
</svg>
