<?xml version="1.0" encoding="UTF-8"?>
<svg xmlns="http://www.w3.org/2000/svg" xmlns:xlink="http://www.w3.org/1999/xlink" width="32px" height="32px" viewBox="0 0 32 32" version="1.1">
<g id="surface1">
<path style=" stroke:none;fill-rule:nonzero;fill:rgb(33.333334%,34.117648%,32.549021%);fill-opacity:1;" d="M 2 2 L 2 4 C 2 4.449219 2.257812 5.058594 2.625 5.4375 L 3.367188 6 L 6 8 L 3.367188 10 L 2.625 10.5625 C 2.257812 10.941406 2 11.484375 2 12 L 2 14 L 4 14 C 4.617188 14 5.105469 13.820312 5.5 13.4375 L 10 9.671875 L 10 6.441406 C 8.550781 5.203125 7.53125 4.101562 5.5 2.5625 C 5.105469 2.179688 4.617188 2 4 2 Z M 5 16 C 3.34375 16 2 17.34375 2 19 C 2 20.199219 2.546875 20.984375 3.351562 21.492188 L 7.8125 24.421875 C 7.933594 24.589844 8 24.792969 8 25 C 8 25.550781 7.550781 26 7 26 L 2 26 L 2 28 L 7 28 C 8.65625 28 10 26.65625 10 25 C 10 23.773438 9.359375 22.941406 8.566406 22.453125 L 4.207031 19.605469 C 4.074219 19.433594 4 19.21875 4 19 C 4 18.449219 4.449219 18 5 18 L 10 18 L 10 16 Z M 16 16 C 13.789062 16 12 17.789062 12 20 L 12 24 C 12 26.210938 13.789062 28 16 28 L 18 28 C 18.566406 27.996094 19.125 27.875 19.640625 27.640625 L 20 28 L 22 28 L 22 26 L 21.644531 25.644531 C 21.878906 25.128906 22 24.566406 22 24 L 22 20 C 22 17.789062 20.210938 16 18 16 Z M 24 16 L 24 28 L 30 28 L 30 26 L 26 26 L 26 16 Z M 16 18 L 18 18 C 19.105469 18 20 18.894531 20 20 L 20 24 L 18 22 L 16 24 L 18 26 L 16 26 C 14.894531 26 14 25.105469 14 24 L 14 20 C 14 18.894531 14.894531 18 16 18 Z M 16 18 "/>
</g>
</svg>
