<?xml version="1.0" encoding="UTF-8"?>
<svg xmlns="http://www.w3.org/2000/svg" xmlns:xlink="http://www.w3.org/1999/xlink" width="32px" height="32px" viewBox="0 0 32 32" version="1.1">
<defs>
<filter id="alpha" filterUnits="objectBoundingBox" x="0%" y="0%" width="100%" height="100%">
  <feColorMatrix type="matrix" in="SourceGraphic" values="0 0 0 0 1 0 0 0 0 1 0 0 0 0 1 0 0 0 1 0"/>
</filter>
<mask id="mask0">
  <g filter="url(#alpha)">
<rect x="0" y="0" width="32" height="32" style="fill:rgb(0%,0%,0%);fill-opacity:0.25;stroke:none;"/>
  </g>
</mask>
<clipPath id="clip1">
  <rect x="0" y="0" width="32" height="32"/>
</clipPath>
<g id="surface5" clip-path="url(#clip1)">
<path style=" stroke:none;fill-rule:nonzero;fill:rgb(90.196079%,0.784314%,70.588237%);fill-opacity:1;" d="M 9 10 C 8 10 8 10.765625 8 11 L 8 20 C 8 21.109375 8.890625 22 10 22 L 10 12 L 17.765625 12 C 17.792969 12.136719 17.8125 12.1875 17.839844 12.339844 C 18.003906 13.296875 18.835938 14 19.808594 14 L 30 14 L 30 22 C 31.109375 22 32 21.109375 32 20 L 32 14 C 32 12.890625 31.109375 12 30 12 L 19.808594 12 C 19.640625 11.027344 19.453125 10 19 10 Z M 9 10 "/>
</g>
</defs>
<g id="surface1">
<path style="fill-rule:nonzero;fill:rgb(94.117647%,89.019608%,92.54902%);fill-opacity:1;stroke-width:0.994845;stroke-linecap:round;stroke-linejoin:round;stroke:rgb(61.56863%,22.745098%,60.784316%);stroke-opacity:1;stroke-miterlimit:4;" d="M 8.0625 16.5 L 119.484375 16.5 L 119.484375 112 L 8.0625 112 Z M 8.0625 16.5 " transform="matrix(0.25,0,0,0.25,0,-2)"/>
<path style=" stroke:none;fill-rule:nonzero;fill:rgb(61.56863%,22.745098%,60.784316%);fill-opacity:0.16763;" d="M 4.003906 6.105469 L 27.882812 6.105469 L 27.882812 12.074219 L 4.003906 12.074219 Z M 4.003906 6.105469 "/>
<path style=" stroke:none;fill-rule:nonzero;fill:rgb(100%,100%,100%);fill-opacity:1;" d="M 5.996094 8.09375 L 25.890625 8.09375 L 25.890625 12.074219 L 5.996094 12.074219 Z M 5.996094 8.09375 "/>
<path style=" stroke:none;fill-rule:nonzero;fill:rgb(61.56863%,22.745098%,60.784316%);fill-opacity:0.375;" d="M 5.996094 24.011719 L 25.890625 24.011719 L 25.890625 16.050781 L 5.996094 16.050781 Z M 5.996094 24.011719 "/>
<path style=" stroke:none;fill-rule:nonzero;fill:rgb(100%,100%,100%);fill-opacity:1;" d="M 5.996094 16.050781 L 25.890625 16.050781 L 25.890625 22.019531 L 5.996094 22.019531 Z M 5.996094 16.050781 "/>
<path style=" stroke:none;fill-rule:nonzero;fill:rgb(0%,0%,0%);fill-opacity:1;" d="M 11.195312 20.847656 C 10.773438 20.378906 10.566406 19.777344 10.566406 19.039062 C 10.566406 18.304688 10.773438 17.703125 11.195312 17.234375 C 11.621094 16.765625 12.175781 16.53125 12.863281 16.53125 C 13.554688 16.53125 14.113281 16.765625 14.539062 17.234375 C 14.964844 17.699219 15.175781 18.3125 15.175781 19.074219 C 15.175781 19.78125 14.96875 20.375 14.546875 20.847656 C 14.128906 21.316406 13.570312 21.550781 12.871094 21.550781 C 12.175781 21.550781 11.617188 21.316406 11.195312 20.847656 Z M 12.871094 17.371094 C 12.472656 17.371094 12.152344 17.523438 11.910156 17.832031 C 11.671875 18.132812 11.550781 18.535156 11.550781 19.039062 C 11.550781 19.542969 11.671875 19.949219 11.910156 20.253906 C 12.152344 20.558594 12.472656 20.710938 12.871094 20.710938 C 13.265625 20.710938 13.582031 20.558594 13.824219 20.253906 C 14.070312 19.953125 14.191406 19.558594 14.191406 19.066406 C 14.191406 18.550781 14.070312 18.136719 13.832031 17.832031 C 13.59375 17.523438 13.273438 17.371094 12.871094 17.371094 Z M 12.871094 17.371094 "/>
<path style=" stroke:none;fill-rule:nonzero;fill:rgb(0%,0%,0%);fill-opacity:1;" d="M 18.195312 19.796875 L 18.195312 21.398438 L 17.210938 21.398438 L 17.210938 16.609375 L 18.195312 16.609375 L 18.195312 18.710938 L 20.070312 16.609375 L 21.230469 16.609375 L 19.320312 18.671875 L 21.433594 21.398438 L 20.257812 21.398438 L 18.6875 19.285156 Z M 18.195312 19.796875 "/>
<path style=" stroke:none;fill-rule:nonzero;fill:rgb(95.294118%,71.764708%,85.09804%);fill-opacity:1;" d="M 9 10 C 8 10 8 10.765625 8 11 L 8 20 C 8 21.109375 8.890625 22 10 22 L 30 22 C 31.109375 22 32 21.109375 32 20 L 32 14 C 32 12.890625 31.109375 12 30 12 L 19.808594 12 C 19.640625 11.027344 19.453125 10 19 10 Z M 9 10 "/>
<path style=" stroke:none;fill-rule:nonzero;fill:rgb(98.823529%,97.647059%,91.37255%);fill-opacity:1;" d="M 10 12 L 16 12 L 16 14 L 10 14 Z M 10 12 "/>
<use xlink:href="#surface5" mask="url(#mask0)"/>
<path style=" stroke:none;fill-rule:nonzero;fill:rgb(90.196079%,0.784314%,70.588237%);fill-opacity:1;" d="M 14 12 L 16 12 L 16 14 L 14 14 Z M 14 12 "/>
<path style=" stroke:none;fill-rule:nonzero;fill:rgb(95.294118%,71.764708%,85.09804%);fill-opacity:1;" d="M 10 20 L 15 20 L 17 18 L 30 18 C 31.109375 18 32 18.890625 32 20 L 32 28 C 32 29.109375 31.109375 30 30 30 L 10 30 C 8.890625 30 8 29.109375 8 28 L 8 22 C 8 20.890625 9.136719 19.308594 10 20 Z M 10 20 "/>
<path style=" stroke:none;fill-rule:nonzero;fill:rgb(61.56863%,22.745098%,60.784316%);fill-opacity:1;" d="M 17 18 L 15 20 L 10 20 C 8.890625 20 8 20.890625 8 22 L 8 24 C 8 22.890625 9.136719 21.308594 10 22 L 15 22 L 17 20 L 30 20 C 31.109375 20 32 20.890625 32 22 L 32 20 C 32 18.890625 31.109375 18 30 18 Z M 17 18 "/>
<path style=" stroke:none;fill-rule:nonzero;fill:rgb(61.56863%,22.745098%,60.784316%);fill-opacity:1;" d="M 8 24 L 32 24 L 32 26 L 8 26 Z M 8 24 "/>
<path style=" stroke:none;fill-rule:nonzero;fill:rgb(90.196079%,0.784314%,70.588237%);fill-opacity:1;" d="M 8 26 L 32 26 L 32 27 L 8 27 Z M 8 26 "/>
</g>
</svg>
