<?xml version="1.0" encoding="UTF-8"?>
<svg xmlns="http://www.w3.org/2000/svg" xmlns:xlink="http://www.w3.org/1999/xlink" width="32px" height="32px" viewBox="0 0 32 32" version="1.1">
<g id="surface1">
<path style=" stroke:none;fill-rule:nonzero;fill:rgb(95.294118%,71.764708%,85.09804%);fill-opacity:1;" d="M 2 4 L 30 4 L 30 28 L 2 28 Z M 2 4 "/>
<path style=" stroke:none;fill-rule:nonzero;fill:rgb(90.196079%,0.784314%,70.588237%);fill-opacity:0.16763;" d="M 4 8 L 28 8 L 28 14 L 4 14 Z M 4 8 "/>
<path style=" stroke:none;fill-rule:nonzero;fill:rgb(94.117647%,89.019608%,92.54902%);fill-opacity:1;" d="M 6 10 L 26 10 L 26 14 L 6 14 Z M 6 10 "/>
<path style=" stroke:none;fill-rule:nonzero;fill:rgb(90.196079%,0.784314%,70.588237%);fill-opacity:0.375;" d="M 6 26 L 26 26 L 26 18 L 6 18 Z M 6 26 "/>
<path style=" stroke:none;fill-rule:nonzero;fill:rgb(94.117647%,89.019608%,92.54902%);fill-opacity:1;" d="M 6 18 L 26 18 L 26 24 L 6 24 Z M 6 18 "/>
<path style=" stroke:none;fill-rule:nonzero;fill:rgb(61.56863%,22.745098%,60.784316%);fill-opacity:1;" d="M 11.195312 22.847656 C 10.773438 22.378906 10.566406 21.777344 10.566406 21.039062 C 10.566406 20.304688 10.773438 19.703125 11.195312 19.234375 C 11.621094 18.765625 12.175781 18.53125 12.863281 18.53125 C 13.554688 18.53125 14.113281 18.765625 14.539062 19.234375 C 14.964844 19.699219 15.175781 20.3125 15.175781 21.074219 C 15.175781 21.78125 14.96875 22.375 14.546875 22.847656 C 14.128906 23.316406 13.570312 23.550781 12.871094 23.550781 C 12.175781 23.550781 11.617188 23.316406 11.195312 22.847656 Z M 12.871094 19.371094 C 12.472656 19.371094 12.152344 19.523438 11.910156 19.832031 C 11.671875 20.132812 11.550781 20.535156 11.550781 21.039062 C 11.550781 21.542969 11.671875 21.949219 11.910156 22.253906 C 12.152344 22.558594 12.472656 22.710938 12.871094 22.710938 C 13.265625 22.710938 13.582031 22.558594 13.824219 22.253906 C 14.070312 21.953125 14.191406 21.558594 14.191406 21.066406 C 14.191406 20.550781 14.070312 20.136719 13.832031 19.832031 C 13.59375 19.523438 13.273438 19.371094 12.871094 19.371094 Z M 12.871094 19.371094 "/>
<path style=" stroke:none;fill-rule:nonzero;fill:rgb(61.56863%,22.745098%,60.784316%);fill-opacity:1;" d="M 18.195312 21.796875 L 18.195312 23.398438 L 17.210938 23.398438 L 17.210938 18.609375 L 18.195312 18.609375 L 18.195312 20.710938 L 20.070312 18.609375 L 21.230469 18.609375 L 19.320312 20.671875 L 21.433594 23.398438 L 20.257812 23.398438 L 18.6875 21.285156 Z M 18.195312 21.796875 "/>
<path style=" stroke:none;fill-rule:evenodd;fill:rgb(90.196079%,0.784314%,70.588237%);fill-opacity:1;" d="M 28.0625 0.0820312 C 28.242188 -0.117188 29.410156 -0.0234375 30.652344 1.105469 C 31.910156 2.246094 32.160156 3.347656 31.9375 3.597656 C 31.792969 3.761719 31.648438 3.925781 31.503906 4.089844 C 30.210938 2.917969 28.921875 1.742188 27.628906 0.570312 C 27.773438 0.40625 27.917969 0.246094 28.0625 0.0820312 Z M 28.0625 0.0820312 "/>
<path style=" stroke:none;fill-rule:evenodd;fill:rgb(90.196079%,0.784314%,70.588237%);fill-opacity:1;" d="M 12.410156 22 L 18.273438 19.269531 L 18.300781 19.238281 L 14.457031 15.683594 L 14.421875 15.726562 Z M 12.410156 22 "/>
<path style=" stroke:none;fill-rule:nonzero;fill:rgb(95.294118%,71.764708%,85.09804%);fill-opacity:1;" d="M 16.222656 17.640625 C 16.699219 18.074219 17.019531 18.078125 17.191406 18.234375 C 17.21875 18.257812 17.242188 18.289062 17.261719 18.320312 L 30.183594 3.476562 L 28.308594 1.769531 L 15.359375 16.640625 C 15.421875 16.65625 15.480469 16.679688 15.535156 16.726562 C 15.691406 16.867188 15.742188 17.203125 16.222656 17.640625 Z M 16.222656 17.640625 "/>
<path style=" stroke:none;fill-rule:nonzero;fill:rgb(61.56863%,22.745098%,60.784316%);fill-opacity:0.976471;" d="M 30.117188 3.414062 L 17.203125 18.246094 C 17.359375 18.398438 17.351562 18.644531 17.640625 18.90625 C 17.949219 19.1875 18.089844 19.066406 18.292969 19.25 L 31.210938 4.410156 Z M 30.117188 3.414062 "/>
<path style=" stroke:none;fill-rule:nonzero;fill:rgb(61.56863%,22.745098%,60.784316%);fill-opacity:1;" d="M 14.871094 16.40625 C 15.171875 16.675781 15.375 16.582031 15.535156 16.726562 L 28.449219 1.898438 L 27.339844 0.890625 L 14.421875 15.726562 C 14.425781 15.730469 14.433594 15.738281 14.4375 15.742188 C 14.5625 15.855469 14.570312 16.132812 14.871094 16.40625 Z M 14.871094 16.40625 "/>
<path style=" stroke:none;fill-rule:nonzero;fill:rgb(61.56863%,22.745098%,60.784316%);fill-opacity:1;" d="M 28.054688 0.0976562 L 31.929688 3.613281 L 31.113281 4.53125 L 27.234375 1.019531 Z M 28.054688 0.0976562 "/>
<path style=" stroke:none;fill-rule:evenodd;fill:rgb(95.294118%,71.764708%,85.09804%);fill-opacity:1;" d="M 14.933594 20.835938 C 14.386719 20.613281 13.640625 19.699219 13.257812 19.367188 L 12.410156 22 Z M 14.933594 20.835938 "/>
<path style=" stroke:none;fill-rule:nonzero;fill:rgb(95.294118%,71.764708%,85.09804%);fill-opacity:1;" d="M 29.101562 1.039062 L 28.296875 1.96875 L 30.175781 3.671875 L 30.976562 2.746094 Z M 29.101562 1.039062 "/>
</g>
</svg>
