<?xml version="1.0" encoding="UTF-8"?>
<svg xmlns="http://www.w3.org/2000/svg" xmlns:xlink="http://www.w3.org/1999/xlink" width="32px" height="32px" viewBox="0 0 32 32" version="1.1">
<g id="surface1">
<path style="fill-rule:nonzero;fill:rgb(94.117647%,89.019608%,92.54902%);fill-opacity:1;stroke-width:1.982781;stroke-linecap:round;stroke-linejoin:round;stroke:rgb(61.56863%,22.745098%,60.784316%);stroke-opacity:1;stroke-miterlimit:4;" d="M 7.984375 15.984375 L 119.03125 15.984375 L 119.03125 111.171875 L 7.984375 111.171875 Z M 7.984375 15.984375 " transform="matrix(0.25,0,0,0.25,0,-0.0234375)"/>
<path style=" stroke:none;fill-rule:nonzero;fill:rgb(61.56863%,22.745098%,60.784316%);fill-opacity:0.16763;" d="M 3.878906 7.976562 L 27.878906 7.976562 L 27.878906 13.976562 L 3.878906 13.976562 Z M 3.878906 7.976562 "/>
<path style=" stroke:none;fill-rule:nonzero;fill:rgb(100%,100%,100%);fill-opacity:1;" d="M 5.878906 9.976562 L 25.878906 9.976562 L 25.878906 13.976562 L 5.878906 13.976562 Z M 5.878906 9.976562 "/>
<path style=" stroke:none;fill-rule:nonzero;fill:rgb(90.196079%,0.784314%,70.588237%);fill-opacity:0.375;" d="M 5.878906 25.976562 L 25.878906 25.976562 L 25.878906 17.976562 L 5.878906 17.976562 Z M 5.878906 25.976562 "/>
<path style=" stroke:none;fill-rule:nonzero;fill:rgb(95.294118%,71.764708%,85.09804%);fill-opacity:1;" d="M 5.878906 17.976562 L 25.878906 17.976562 L 25.878906 23.976562 L 5.878906 23.976562 Z M 5.878906 17.976562 "/>
<path style=" stroke:none;fill-rule:nonzero;fill:rgb(61.56863%,22.745098%,60.784316%);fill-opacity:1;" d="M 11.074219 22.824219 C 10.652344 22.355469 10.441406 21.753906 10.441406 21.015625 C 10.441406 20.28125 10.652344 19.679688 11.074219 19.210938 C 11.496094 18.742188 12.054688 18.507812 12.742188 18.507812 C 13.433594 18.507812 13.992188 18.742188 14.417969 19.210938 C 14.84375 19.675781 15.054688 20.289062 15.054688 21.050781 C 15.054688 21.757812 14.84375 22.351562 14.421875 22.824219 C 14.007812 23.292969 13.449219 23.527344 12.75 23.527344 C 12.050781 23.527344 11.492188 23.292969 11.074219 22.824219 Z M 12.75 19.347656 C 12.351562 19.347656 12.03125 19.5 11.789062 19.808594 C 11.546875 20.109375 11.425781 20.511719 11.425781 21.015625 C 11.425781 21.519531 11.546875 21.925781 11.789062 22.230469 C 12.03125 22.535156 12.351562 22.6875 12.75 22.6875 C 13.140625 22.6875 13.460938 22.535156 13.699219 22.230469 C 13.945312 21.929688 14.070312 21.535156 14.070312 21.042969 C 14.070312 20.527344 13.949219 20.113281 13.707031 19.808594 C 13.472656 19.5 13.152344 19.347656 12.75 19.347656 Z M 12.75 19.347656 "/>
<path style=" stroke:none;fill-rule:nonzero;fill:rgb(61.56863%,22.745098%,60.784316%);fill-opacity:1;" d="M 18.074219 21.773438 L 18.074219 23.375 L 17.085938 23.375 L 17.085938 18.585938 L 18.074219 18.585938 L 18.074219 20.6875 L 19.945312 18.585938 L 21.109375 18.585938 L 19.195312 20.648438 L 21.3125 23.375 L 20.136719 23.375 L 18.566406 21.261719 Z M 18.074219 21.773438 "/>
<path style="fill-rule:nonzero;fill:rgb(95.294118%,71.764708%,85.09804%);fill-opacity:1;stroke-width:1.93801;stroke-linecap:round;stroke-linejoin:round;stroke:rgb(61.56863%,22.745098%,60.784316%);stroke-opacity:1;stroke-miterlimit:4;" d="M 119.359375 1.078125 L 104 16.421875 L 88.640625 1.078125 L 80.984375 8.734375 L 96.328125 24.09375 L 80.984375 39.4375 L 88.640625 47.109375 L 104 31.75 L 119.359375 47.109375 L 127.015625 39.4375 L 111.671875 24.09375 L 127.015625 8.734375 Z M 119.359375 1.078125 " transform="matrix(0.25,0,0,0.25,0,-0.0234375)"/>
</g>
</svg>
