<?xml version="1.0" encoding="UTF-8"?>
<svg xmlns="http://www.w3.org/2000/svg" xmlns:xlink="http://www.w3.org/1999/xlink" width="32px" height="32px" viewBox="0 0 32 32" version="1.1">
<defs>
<radialGradient id="radial0" gradientUnits="userSpaceOnUse" cx="949.332092" cy="517.870239" fx="941.931152" fy="440.161255" r="119.397293" gradientTransform="matrix(0.0939079,0.00344921,-0.00286535,0.0527594,-71.796122,-11.963457)">
<stop offset="0" style="stop-color:rgb(100%,100%,100%);stop-opacity:1;"/>
<stop offset="1" style="stop-color:rgb(100%,100%,100%);stop-opacity:0;"/>
</radialGradient>
<radialGradient id="radial1" gradientUnits="userSpaceOnUse" cx="949.332092" cy="517.870239" fx="941.931152" fy="440.161255" r="119.397293" gradientTransform="matrix(0.0939079,0.00344921,-0.00286535,0.0527594,-71.796122,-16.052655)">
<stop offset="0" style="stop-color:rgb(100%,100%,100%);stop-opacity:1;"/>
<stop offset="1" style="stop-color:rgb(100%,100%,100%);stop-opacity:0;"/>
</radialGradient>
<radialGradient id="radial2" gradientUnits="userSpaceOnUse" cx="949.332092" cy="517.870239" fx="941.931152" fy="440.161255" r="119.397293" gradientTransform="matrix(0.0939079,0.00344921,-0.00286535,0.0527594,-71.796122,-19.943591)">
<stop offset="0" style="stop-color:rgb(100%,100%,100%);stop-opacity:1;"/>
<stop offset="1" style="stop-color:rgb(100%,100%,100%);stop-opacity:0;"/>
</radialGradient>
<linearGradient id="linear0" gradientUnits="userSpaceOnUse" x1="9.610824" y1="58.780281" x2="2.222648" y2="105.911423" gradientTransform="matrix(0.24783,0,0,0.24783,0.813648,0.548112)">
<stop offset="0" style="stop-color:rgb(100%,91.764706%,0%);stop-opacity:1;"/>
<stop offset="1" style="stop-color:rgb(100%,80.000001%,0%);stop-opacity:1;"/>
</linearGradient>
</defs>
<g id="surface1">
<path style=" stroke:none;fill-rule:nonzero;fill:rgb(95.294118%,71.764708%,85.09804%);fill-opacity:1;" d="M 29.75 20.640625 C 29.75 24.367188 23.535156 27.390625 15.871094 27.390625 C 8.203125 27.390625 1.992188 24.367188 1.992188 20.640625 C 1.992188 16.910156 8.203125 13.886719 15.871094 13.886719 C 23.535156 13.886719 29.75 16.910156 29.75 20.640625 Z M 29.75 20.640625 "/>
<path style="fill-rule:nonzero;fill:rgb(94.117647%,89.019608%,92.54902%);fill-opacity:1;stroke-width:9.147706;stroke-linecap:round;stroke-linejoin:round;stroke:rgb(90.196079%,0.784314%,70.588237%);stroke-opacity:1;stroke-miterlimit:4;" d="M 639.23103 523.633514 C 639.23103 593.42364 526.080814 649.986526 386.545476 649.986526 C 247.792446 649.986526 135.068943 594.008269 133.93104 524.729694 L 134.926705 575.007816 C 134.926705 644.724862 247.152375 701.360828 386.616595 701.360828 C 526.080814 701.360828 638.235365 644.724862 638.235365 575.007816 Z M 639.23103 523.633514 " transform="matrix(0.0549256,0,0,0.0534527,-5.364056,-7.352892)"/>
<path style=" stroke:none;fill-rule:nonzero;fill:url(#radial0);" d="M 25.738281 18.632812 C 26.441406 20.792969 22.246094 22.679688 15.898438 22.679688 C 9.242188 22.679688 5.121094 20.730469 6.054688 18.632812 C 7.277344 15.898438 11.683594 14.585938 15.898438 14.585938 C 19.957031 14.585938 24.945312 16.203125 25.738281 18.632812 Z M 25.738281 18.632812 "/>
<path style=" stroke:none;fill-rule:nonzero;fill:rgb(95.294118%,71.764708%,85.09804%);fill-opacity:1;" d="M 29.75 16.550781 C 29.75 20.277344 23.535156 23.300781 15.871094 23.300781 C 8.203125 23.300781 1.992188 20.277344 1.992188 16.550781 C 1.992188 12.820312 8.203125 9.796875 15.871094 9.796875 C 23.535156 9.796875 29.75 12.820312 29.75 16.550781 Z M 29.75 16.550781 "/>
<path style="fill-rule:nonzero;fill:rgb(94.117647%,89.019608%,92.54902%);fill-opacity:1;stroke-width:9.147706;stroke-linecap:round;stroke-linejoin:round;stroke:rgb(90.196079%,0.784314%,70.588237%);stroke-opacity:1;stroke-miterlimit:4;" d="M 639.23103 523.694527 C 639.23103 593.411573 526.080814 649.97446 386.545476 649.97446 C 247.792446 649.97446 135.068943 593.996202 133.93104 524.717628 L 134.926705 574.995749 C 134.926705 644.712796 247.152375 701.348761 386.616595 701.348761 C 526.080814 701.348761 638.235365 644.712796 638.235365 574.995749 Z M 639.23103 523.694527 " transform="matrix(0.0549256,0,0,0.0534527,-5.364056,-11.442091)"/>
<path style=" stroke:none;fill-rule:nonzero;fill:url(#radial1);" d="M 25.738281 14.542969 C 26.441406 16.703125 22.246094 18.589844 15.898438 18.589844 C 9.242188 18.589844 5.121094 16.640625 6.054688 14.542969 C 7.277344 11.808594 11.683594 10.496094 15.898438 10.496094 C 19.957031 10.496094 24.945312 12.113281 25.738281 14.542969 Z M 25.738281 14.542969 "/>
<path style=" stroke:none;fill-rule:nonzero;fill:rgb(95.294118%,71.764708%,85.09804%);fill-opacity:1;" d="M 29.75 12.660156 C 29.75 16.386719 23.535156 19.410156 15.871094 19.410156 C 8.203125 19.410156 1.992188 16.386719 1.992188 12.660156 C 1.992188 8.929688 8.203125 5.90625 15.871094 5.90625 C 23.535156 5.90625 29.75 8.929688 29.75 12.660156 Z M 29.75 12.660156 "/>
<path style="fill-rule:nonzero;fill:rgb(94.117647%,89.019608%,92.54902%);fill-opacity:1;stroke-width:9.147706;stroke-linecap:round;stroke-linejoin:round;stroke:rgb(90.196079%,0.784314%,70.588237%);stroke-opacity:1;stroke-miterlimit:4;" d="M 639.23103 523.627252 C 639.23103 593.417377 526.080814 649.980264 386.545476 649.980264 C 247.792446 649.980264 135.068943 594.002006 133.93104 524.723432 L 134.926705 575.001553 C 134.926705 644.7186 247.152375 701.354565 386.616595 701.354565 C 526.080814 701.354565 638.235365 644.7186 638.235365 575.001553 Z M 639.23103 523.627252 " transform="matrix(0.0549256,0,0,0.0534527,-5.364056,-15.333026)"/>
<path style=" stroke:none;fill-rule:nonzero;fill:url(#radial2);" d="M 25.738281 10.652344 C 26.441406 12.8125 22.246094 14.699219 15.898438 14.699219 C 9.242188 14.699219 5.121094 12.75 6.054688 10.652344 C 7.277344 7.917969 11.683594 6.605469 15.898438 6.605469 C 19.957031 6.605469 24.945312 8.222656 25.738281 10.652344 Z M 25.738281 10.652344 "/>
<path style="fill-rule:nonzero;fill:rgb(95.294118%,71.764708%,85.09804%);fill-opacity:1;stroke-width:8.953146;stroke-linecap:butt;stroke-linejoin:miter;stroke:rgb(90.196079%,0.784314%,70.588237%);stroke-opacity:1;stroke-miterlimit:4;" d="M 594.240717 637.225481 C 594.240717 707.018619 481.090501 763.581162 341.555163 763.581162 C 201.948705 763.581162 88.869608 707.018619 88.869608 637.225481 C 88.869608 567.502346 201.948705 510.939803 341.555163 510.939803 C 481.090501 510.939803 594.240717 567.502346 594.240717 637.225481 Z M 594.240717 637.225481 " transform="matrix(0.0549256,0,0,0.0558011,-2.889029,-27.190671)"/>
<path style="fill-rule:nonzero;fill:rgb(94.117647%,89.019608%,92.54902%);fill-opacity:1;stroke-width:2;stroke-linecap:round;stroke-linejoin:round;stroke:rgb(90.196079%,0.784314%,70.588237%);stroke-opacity:1;stroke-miterlimit:4;" d="M 119.991058 32.436229 C 119.991058 48.15074 94.91404 60.886271 63.989396 60.886271 C 33.238132 60.886271 8.255685 48.276834 8.003496 32.688418 L 8.224161 44.005387 C 8.224161 59.704136 33.096276 72.45543 64.005158 72.45543 C 94.91404 72.45543 119.770393 59.704136 119.770393 44.005387 Z M 119.991058 32.436229 " transform="matrix(0.24783,0,0,0.24783,0.008679,0.277727)"/>
<path style=" stroke:none;fill-rule:nonzero;fill:rgb(61.56863%,22.745098%,60.784316%);fill-opacity:1;" d="M 1.988281 8.761719 C 1.609375 8.761719 1 9.105469 1 9.480469 L 1 31.042969 C 1 31.421875 1.613281 32 1.992188 32 L 23.027344 32 C 23.636719 32 23.945312 30.964844 23.519531 30.53125 L 2.484375 8.96875 C 2.351562 8.835938 2.175781 8.761719 1.988281 8.761719 Z M 4.964844 18.121094 L 14.570312 27.042969 L 4.929688 27.140625 Z M 4.964844 18.121094 "/>
<path style=" stroke:none;fill-rule:nonzero;fill:rgb(61.56863%,22.745098%,60.784316%);fill-opacity:1;" d="M 1.988281 8.761719 C 1.609375 8.761719 1 9.070312 1 9.449219 L 1 31.007812 C 1 31.386719 1.613281 32 1.992188 32 L 23.027344 32 C 23.636719 32 23.945312 30.964844 23.519531 30.53125 L 2.484375 8.96875 C 2.351562 8.835938 2.175781 8.761719 1.988281 8.761719 Z M 3.652344 17.035156 L 15.800781 28.304688 L 3.628906 28.339844 Z M 3.652344 17.035156 "/>
<path style=" stroke:none;fill-rule:evenodd;fill:url(#linear0);" d="M 1.992188 9.621094 L 1.992188 31.007812 L 2.15625 31.007812 L 4 27.042969 L 3.933594 27.042969 L 3.957031 18.863281 C 3.222656 17.519531 2.996094 12.292969 1.992188 9.621094 Z M 1.992188 9.621094 "/>
<path style=" stroke:none;fill-rule:nonzero;fill:rgb(100%,100%,100%);fill-opacity:1;" d="M 1.992188 9.449219 L 1.992188 31.007812 L 2.542969 31.007812 L 2.625 10.191406 Z M 3.972656 15.335938 L 3.972656 16.140625 L 16.253906 28.035156 L 3.972656 28.035156 L 3.972656 28.679688 L 17.851562 28.675781 Z M 3.972656 15.335938 "/>
<path style=" stroke:none;fill-rule:nonzero;fill:rgb(95.294118%,71.764708%,85.09804%);fill-opacity:1;" d="M 1.992188 9.449219 L 1.992188 31.007812 L 23.027344 31.007812 Z M 3.972656 16.140625 L 16.253906 28.035156 L 3.933594 28.035156 Z M 3.972656 16.140625 "/>
</g>
</svg>
