<?xml version="1.0" encoding="UTF-8"?>
<svg xmlns="http://www.w3.org/2000/svg" xmlns:xlink="http://www.w3.org/1999/xlink" width="32px" height="32px" viewBox="0 0 32 32" version="1.1">
<g id="surface1">
<path style=" stroke:none;fill-rule:nonzero;fill:rgb(95.294118%,71.764708%,85.09804%);fill-opacity:1;" d="M 2 4 L 30 4 L 30 28 L 2 28 Z M 2 4 "/>
<path style=" stroke:none;fill-rule:nonzero;fill:rgb(94.117647%,89.019608%,92.54902%);fill-opacity:1;" d="M 2 10 L 30 10 L 30 28 L 2 28 Z M 2 10 "/>
<path style=" stroke:none;fill-rule:nonzero;fill:rgb(95.294118%,71.764708%,85.09804%);fill-opacity:1;" d="M 4 16 L 14 16 L 14 18 L 4 18 Z M 4 16 "/>
<path style=" stroke:none;fill-rule:nonzero;fill:rgb(95.294118%,71.764708%,85.09804%);fill-opacity:1;" d="M 4 12 L 14 12 L 14 14 L 4 14 Z M 4 12 "/>
<path style=" stroke:none;fill-rule:nonzero;fill:rgb(79.215688%,79.215688%,80.000001%);fill-opacity:1;" d="M 18 12 L 28 12 L 28 14 L 18 14 Z M 18 12 "/>
<path style=" stroke:none;fill-rule:nonzero;fill:rgb(95.294118%,71.764708%,85.09804%);fill-opacity:1;" d="M 18 16 L 28 16 L 28 18 L 18 18 Z M 18 16 "/>
<path style=" stroke:none;fill-rule:nonzero;fill:rgb(95.294118%,71.764708%,85.09804%);fill-opacity:1;" d="M 4 20 L 14 20 L 14 22 L 4 22 Z M 4 20 "/>
<path style=" stroke:none;fill-rule:nonzero;fill:rgb(95.294118%,71.764708%,85.09804%);fill-opacity:1;" d="M 18 20 L 28 20 L 28 22 L 18 22 Z M 18 20 "/>
<path style=" stroke:none;fill-rule:nonzero;fill:rgb(95.294118%,71.764708%,85.09804%);fill-opacity:1;" d="M 4 24 L 14 24 L 14 26 L 4 26 Z M 4 24 "/>
<path style=" stroke:none;fill-rule:nonzero;fill:rgb(95.294118%,71.764708%,85.09804%);fill-opacity:1;" d="M 18 24 L 28 24 L 28 26 L 18 26 Z M 18 24 "/>
<path style=" stroke:none;fill-rule:nonzero;fill:rgb(90.196079%,0.784314%,70.588237%);fill-opacity:1;" d="M 14.105469 11.640625 C 12.84375 6.941406 15.632812 2.109375 20.332031 0.851562 C 25.03125 -0.40625 29.863281 2.382812 31.121094 7.082031 C 32.378906 11.78125 29.59375 16.609375 24.890625 17.871094 C 20.191406 19.128906 15.363281 16.339844 14.105469 11.640625 Z M 14.105469 11.640625 "/>
<path style=" stroke:none;fill-rule:evenodd;fill:rgb(94.117647%,89.019608%,92.54902%);fill-opacity:1;" d="M 21.105469 1.984375 L 21.105469 7.722656 L 15.367188 7.722656 L 15.367188 10.738281 L 21.105469 10.738281 L 21.105469 16.476562 L 24.121094 16.476562 L 24.121094 10.738281 L 29.859375 10.738281 L 29.859375 7.722656 L 24.121094 7.722656 L 24.121094 1.984375 Z M 21.105469 1.984375 "/>
</g>
</svg>
