<?xml version="1.0" encoding="UTF-8"?>
<svg xmlns="http://www.w3.org/2000/svg" xmlns:xlink="http://www.w3.org/1999/xlink" width="32px" height="32px" viewBox="0 0 32 32" version="1.1">
<defs>
<radialGradient id="radial0" gradientUnits="userSpaceOnUse" cx="949.332092" cy="517.870239" fx="941.931152" fy="440.161255" r="119.397293" gradientTransform="matrix(0.0947301,0.00347941,-0.00289044,0.0532213,-72.433449,-12.348355)">
<stop offset="0" style="stop-color:rgb(100%,100%,100%);stop-opacity:1;"/>
<stop offset="1" style="stop-color:rgb(100%,100%,100%);stop-opacity:0;"/>
</radialGradient>
<radialGradient id="radial1" gradientUnits="userSpaceOnUse" cx="949.332092" cy="517.870239" fx="941.931152" fy="440.161255" r="119.397293" gradientTransform="matrix(0.0947301,0.00347941,-0.00289044,0.0532213,-72.433449,-16.473354)">
<stop offset="0" style="stop-color:rgb(100%,100%,100%);stop-opacity:1;"/>
<stop offset="1" style="stop-color:rgb(100%,100%,100%);stop-opacity:0;"/>
</radialGradient>
<radialGradient id="radial2" gradientUnits="userSpaceOnUse" cx="949.332092" cy="517.870239" fx="941.931152" fy="440.161255" r="119.397293" gradientTransform="matrix(0.0947301,0.00347941,-0.00289044,0.0532213,-72.433449,-20.398355)">
<stop offset="0" style="stop-color:rgb(100%,100%,100%);stop-opacity:1;"/>
<stop offset="1" style="stop-color:rgb(100%,100%,100%);stop-opacity:0;"/>
</radialGradient>
</defs>
<g id="surface1">
<path style=" stroke:none;fill-rule:nonzero;fill:rgb(94.117647%,89.019608%,92.54902%);fill-opacity:1;" d="M 30 20.539062 C 30 24.300781 23.730469 27.351562 16 27.351562 C 8.269531 27.351562 2 24.300781 2 20.539062 C 2 16.777344 8.269531 13.726562 16 13.726562 C 23.730469 13.726562 30 16.777344 30 20.539062 Z M 30 20.539062 "/>
<path style="fill-rule:nonzero;fill:rgb(95.294118%,71.764708%,85.09804%);fill-opacity:1;stroke-width:9.147706;stroke-linecap:round;stroke-linejoin:round;stroke:rgb(90.196079%,0.784314%,70.588237%);stroke-opacity:1;stroke-miterlimit:4;" d="M 639.271376 523.667433 C 639.271376 593.431407 526.045663 650.010497 386.593321 650.010497 C 247.845996 650.010497 135.113794 594.010963 133.915266 524.7541 L 134.902289 575.030525 C 134.902289 644.722055 247.140979 701.373589 386.593321 701.373589 C 526.116165 701.373589 638.284353 644.722055 638.284353 575.030525 Z M 639.271376 523.667433 " transform="matrix(0.0554065,0,0,0.0539206,-5.419773,-7.697425)"/>
<path style=" stroke:none;fill-rule:nonzero;fill:url(#radial0);" d="M 25.957031 18.515625 C 26.664062 20.691406 22.429688 22.597656 16.027344 22.597656 C 9.316406 22.597656 5.15625 20.632812 6.101562 18.515625 C 7.332031 15.757812 11.777344 14.433594 16.027344 14.433594 C 20.125 14.433594 25.15625 16.0625 25.957031 18.515625 Z M 25.957031 18.515625 "/>
<path style=" stroke:none;fill-rule:nonzero;fill:rgb(94.117647%,89.019608%,92.54902%);fill-opacity:1;" d="M 30 16.414062 C 30 20.175781 23.730469 23.226562 16 23.226562 C 8.269531 23.226562 2 20.175781 2 16.414062 C 2 12.652344 8.269531 9.601562 16 9.601562 C 23.730469 9.601562 30 12.652344 30 16.414062 Z M 30 16.414062 "/>
<path style="fill-rule:nonzero;fill:rgb(95.294118%,71.764708%,85.09804%);fill-opacity:1;stroke-width:9.147706;stroke-linecap:round;stroke-linejoin:round;stroke:rgb(90.196079%,0.784314%,70.588237%);stroke-opacity:1;stroke-miterlimit:4;" d="M 639.271376 523.667425 C 639.271376 593.431398 526.045663 650.010488 386.593321 650.010488 C 247.845996 650.010488 135.113794 594.010954 133.915266 524.754091 L 134.902289 575.030516 C 134.902289 644.722046 247.140979 701.37358 386.593321 701.37358 C 526.116165 701.37358 638.284353 644.722046 638.284353 575.030516 Z M 639.271376 523.667425 " transform="matrix(0.0554065,0,0,0.0539206,-5.419773,-11.822425)"/>
<path style=" stroke:none;fill-rule:nonzero;fill:url(#radial1);" d="M 25.957031 14.390625 C 26.664062 16.566406 22.429688 18.472656 16.027344 18.472656 C 9.316406 18.472656 5.15625 16.507812 6.101562 14.390625 C 7.332031 11.632812 11.777344 10.308594 16.027344 10.308594 C 20.125 10.308594 25.15625 11.9375 25.957031 14.390625 Z M 25.957031 14.390625 "/>
<path style=" stroke:none;fill-rule:nonzero;fill:rgb(94.117647%,89.019608%,92.54902%);fill-opacity:1;" d="M 30 12.488281 C 30 16.25 23.730469 19.300781 16 19.300781 C 8.269531 19.300781 2 16.25 2 12.488281 C 2 8.726562 8.269531 5.675781 16 5.675781 C 23.730469 5.675781 30 8.726562 30 12.488281 Z M 30 12.488281 "/>
<path style="fill-rule:nonzero;fill:rgb(95.294118%,71.764708%,85.09804%);fill-opacity:1;stroke-width:9.147706;stroke-linecap:round;stroke-linejoin:round;stroke:rgb(90.196079%,0.784314%,70.588237%);stroke-opacity:1;stroke-miterlimit:4;" d="M 639.271376 523.652939 C 639.271376 593.416913 526.045663 649.996003 386.593321 649.996003 C 247.845996 649.996003 135.113794 593.996468 133.915266 524.739605 L 134.902289 575.016031 C 134.902289 644.707561 247.140979 701.359095 386.593321 701.359095 C 526.116165 701.359095 638.284353 644.707561 638.284353 575.016031 Z M 639.271376 523.652939 " transform="matrix(0.0554065,0,0,0.0539206,-5.419773,-15.747425)"/>
<path style=" stroke:none;fill-rule:nonzero;fill:url(#radial2);" d="M 25.957031 10.464844 C 26.664062 12.644531 22.429688 14.546875 16.027344 14.546875 C 9.316406 14.546875 5.15625 12.582031 6.101562 10.464844 C 7.332031 7.707031 11.777344 6.382812 16.027344 6.382812 C 20.125 6.382812 25.15625 8.015625 25.957031 10.464844 Z M 25.957031 10.464844 "/>
<path style="fill-rule:nonzero;fill:rgb(94.117647%,89.019608%,92.54902%);fill-opacity:1;stroke-width:8.953146;stroke-linecap:round;stroke-linejoin:round;stroke:rgb(90.196079%,0.784314%,70.588237%);stroke-opacity:1;stroke-miterlimit:4;" d="M 594.209944 637.223228 C 594.209944 707.035193 481.054733 763.592601 341.531889 763.592601 C 202.009045 763.592601 88.853834 707.035193 88.853834 637.223228 C 88.853834 567.480658 202.009045 510.92325 341.531889 510.92325 C 481.054733 510.92325 594.209944 567.480658 594.209944 637.223228 Z M 594.209944 637.223228 " transform="matrix(0.0554065,0,0,0.0562896,-2.923078,-27.708883)"/>
<path style="fill-rule:nonzero;fill:rgb(95.294118%,71.764708%,85.09804%);fill-opacity:1;stroke-width:2;stroke-linecap:round;stroke-linejoin:round;stroke:rgb(90.196079%,0.784314%,70.588237%);stroke-opacity:1;stroke-miterlimit:4;" d="M 120 32.4375 C 120 48.140625 94.90625 60.890625 64 60.890625 C 33.25 60.890625 8.265625 48.28125 8 32.6875 L 8.21875 44 C 8.21875 59.703125 33.09375 72.453125 64 72.453125 C 94.921875 72.453125 119.78125 59.703125 119.78125 44 Z M 120 32.4375 " transform="matrix(0.25,0,0,0.25,0,0)"/>
<path style=" stroke:none;fill-rule:nonzero;fill:rgb(61.56863%,22.745098%,60.784316%);fill-opacity:0.988971;" d="M 16.652344 15.6875 C 15.5625 15.6875 14.507812 15.863281 13.539062 16.285156 C 12.941406 16.542969 12.402344 16.917969 11.90625 17.34375 C 11.6875 17.066406 11.410156 16.847656 11.09375 16.695312 C 10.78125 16.546875 10.46875 16.414062 10.15625 16.296875 C 9.832031 16.171875 9.5 16.066406 9.171875 15.980469 C 8.835938 15.890625 8.492188 15.824219 8.148438 15.777344 C 7.789062 15.726562 7.425781 15.703125 7.0625 15.703125 C 6.328125 15.703125 5.605469 15.800781 4.910156 16.027344 C 4.90625 16.027344 4.90625 16.027344 4.902344 16.027344 C 4.214844 16.253906 3.558594 16.613281 3.007812 17.109375 C 2.449219 17.605469 2.007812 18.238281 1.722656 18.914062 C 1.722656 18.917969 1.71875 18.921875 1.71875 18.925781 C 1.425781 19.628906 1.300781 20.378906 1.300781 21.121094 C 1.300781 21.882812 1.433594 22.660156 1.777344 23.390625 C 1.777344 23.394531 1.78125 23.398438 1.78125 23.402344 C 1.957031 23.765625 2.183594 24.101562 2.429688 24.425781 C 1.660156 24.816406 1.171875 25.605469 1.171875 26.46875 L 1.171875 28.632812 C 1.171875 29.484375 1.644531 30.265625 2.398438 30.660156 C 3.007812 30.976562 3.65625 31.210938 4.328125 31.363281 C 4.996094 31.511719 5.679688 31.582031 6.371094 31.582031 C 7.164062 31.582031 7.9375 31.484375 8.679688 31.246094 C 9.390625 31.019531 10.074219 30.667969 10.660156 30.164062 C 10.921875 29.941406 11.152344 29.675781 11.363281 29.402344 C 11.96875 30.070312 12.699219 30.625 13.523438 30.984375 C 14.226562 31.289062 14.976562 31.429688 15.746094 31.503906 L 16.148438 32 L 24.167969 32 C 24.1875 31.8125 24.183594 31.621094 24.15625 31.433594 L 30.175781 31.433594 C 30.894531 31.433594 31.566406 31.097656 32 30.523438 L 32 25.84375 C 31.570312 25.269531 30.894531 24.929688 30.175781 24.929688 L 28.460938 24.929688 L 28.460938 18.148438 C 28.460938 16.882812 27.4375 15.859375 26.171875 15.859375 L 23.84375 15.859375 C 22.796875 15.859375 21.882812 16.570312 21.625 17.585938 C 21.074219 17.050781 20.457031 16.589844 19.753906 16.285156 C 18.789062 15.863281 17.738281 15.6875 16.652344 15.6875 Z M 22.132812 18.066406 L 22.148438 18.085938 C 22.144531 18.082031 22.140625 18.082031 22.136719 18.078125 C 22.132812 18.074219 22.136719 18.070312 22.132812 18.066406 Z M 16.625 22.199219 C 16.605469 22.203125 16.664062 22.199219 16.65625 22.203125 C 16.683594 22.257812 16.730469 22.335938 16.773438 22.542969 C 16.777344 22.554688 16.777344 22.5625 16.78125 22.574219 C 16.839844 22.832031 16.875 23.1875 16.875 23.632812 C 16.875 24.078125 16.835938 24.4375 16.777344 24.703125 C 16.777344 24.710938 16.773438 24.714844 16.773438 24.722656 C 16.730469 24.925781 16.6875 25.003906 16.65625 25.058594 C 16.640625 25.0625 16.691406 25.050781 16.636719 25.050781 C 16.589844 25.050781 16.640625 25.058594 16.625 25.058594 C 16.589844 24.996094 16.542969 24.90625 16.496094 24.699219 C 16.4375 24.433594 16.398438 24.074219 16.398438 23.632812 C 16.398438 23.1875 16.4375 22.832031 16.496094 22.574219 C 16.542969 22.347656 16.59375 22.257812 16.625 22.199219 Z M 11.125 22.554688 L 11.15625 22.589844 C 11.152344 22.585938 11.148438 22.585938 11.144531 22.582031 C 11.136719 22.574219 11.132812 22.5625 11.125 22.554688 Z M 17.242188 31.53125 L 17.164062 31.542969 C 17.066406 31.558594 16.972656 31.566406 16.886719 31.566406 C 16.996094 31.5625 17.097656 31.5625 17.242188 31.53125 Z M 17.242188 31.53125 "/>
<path style=" stroke:none;fill-rule:nonzero;fill:rgb(95.294118%,71.764708%,85.09804%);fill-opacity:1;" d="M 10.164062 26.089844 C 10.164062 26.582031 10.078125 27.027344 9.90625 27.421875 C 9.742188 27.8125 9.496094 28.148438 9.167969 28.429688 C 8.847656 28.707031 8.453125 28.917969 7.980469 29.070312 C 7.515625 29.21875 6.980469 29.292969 6.371094 29.292969 C 5.839844 29.292969 5.328125 29.238281 4.832031 29.128906 C 4.339844 29.019531 3.882812 28.851562 3.460938 28.632812 L 3.460938 26.464844 C 3.703125 26.582031 3.945312 26.695312 4.191406 26.804688 C 4.4375 26.910156 4.683594 27.003906 4.9375 27.089844 C 5.191406 27.175781 5.445312 27.242188 5.695312 27.292969 C 5.949219 27.34375 6.203125 27.371094 6.453125 27.371094 C 6.710938 27.371094 6.929688 27.339844 7.109375 27.285156 C 7.292969 27.226562 7.441406 27.144531 7.554688 27.046875 C 7.667969 26.941406 7.75 26.816406 7.800781 26.675781 C 7.855469 26.53125 7.882812 26.375 7.882812 26.203125 C 7.882812 25.996094 7.839844 25.816406 7.75 25.660156 C 7.664062 25.5 7.539062 25.355469 7.378906 25.21875 C 7.222656 25.078125 7.035156 24.941406 6.808594 24.8125 C 6.585938 24.683594 6.339844 24.542969 6.0625 24.398438 C 5.832031 24.277344 5.574219 24.132812 5.289062 23.960938 C 5.003906 23.792969 4.734375 23.582031 4.476562 23.332031 C 4.226562 23.074219 4.015625 22.769531 3.84375 22.414062 C 3.675781 22.050781 3.589844 21.621094 3.589844 21.121094 C 3.589844 20.628906 3.667969 20.191406 3.832031 19.804688 C 3.996094 19.414062 4.230469 19.085938 4.53125 18.816406 C 4.832031 18.546875 5.195312 18.34375 5.621094 18.203125 C 6.050781 18.0625 6.53125 17.992188 7.0625 17.992188 C 7.328125 17.992188 7.589844 18.007812 7.839844 18.042969 C 8.09375 18.078125 8.34375 18.128906 8.589844 18.195312 C 8.839844 18.257812 9.09375 18.339844 9.34375 18.433594 C 9.59375 18.53125 9.851562 18.640625 10.117188 18.765625 L 9.367188 20.578125 C 9.140625 20.472656 8.929688 20.378906 8.734375 20.300781 C 8.539062 20.21875 8.347656 20.152344 8.160156 20.097656 C 7.976562 20.042969 7.792969 20 7.613281 19.976562 C 7.4375 19.945312 7.257812 19.929688 7.078125 19.929688 C 6.6875 19.929688 6.386719 20.035156 6.175781 20.246094 C 5.972656 20.453125 5.867188 20.730469 5.867188 21.074219 C 5.867188 21.261719 5.898438 21.425781 5.957031 21.570312 C 6.023438 21.710938 6.125 21.84375 6.257812 21.96875 C 6.398438 22.09375 6.578125 22.222656 6.792969 22.351562 C 7.015625 22.484375 7.28125 22.632812 7.589844 22.796875 C 7.964844 22.996094 8.3125 23.203125 8.628906 23.414062 C 8.945312 23.617188 9.214844 23.847656 9.441406 24.105469 C 9.671875 24.355469 9.847656 24.640625 9.972656 24.960938 C 10.101562 25.285156 10.164062 25.660156 10.164062 26.089844 Z M 10.164062 26.089844 "/>
<path style=" stroke:none;fill-rule:nonzero;fill:rgb(95.294118%,71.764708%,85.09804%);fill-opacity:1;" d="M 21.570312 23.632812 C 21.570312 24.226562 21.519531 24.789062 21.421875 25.316406 C 21.324219 25.835938 21.175781 26.3125 20.976562 26.746094 C 20.78125 27.175781 20.535156 27.558594 20.234375 27.894531 C 19.9375 28.230469 19.585938 28.511719 19.179688 28.730469 L 21.894531 31.761719 L 18.902344 31.761719 L 16.886719 29.28125 C 16.851562 29.28125 16.816406 29.28125 16.789062 29.285156 C 16.761719 29.292969 16.734375 29.292969 16.707031 29.292969 C 16.679688 29.292969 16.65625 29.292969 16.636719 29.292969 C 15.796875 29.292969 15.0625 29.160156 14.441406 28.886719 C 13.824219 28.617188 13.3125 28.234375 12.90625 27.738281 C 12.507812 27.242188 12.207031 26.644531 12.003906 25.949219 C 11.808594 25.246094 11.710938 24.46875 11.710938 23.617188 C 11.710938 22.765625 11.808594 21.992188 12.003906 21.300781 C 12.207031 20.601562 12.507812 20.007812 12.914062 19.519531 C 13.320312 19.027344 13.832031 18.648438 14.449219 18.382812 C 15.070312 18.113281 15.804688 17.976562 16.652344 17.976562 C 17.496094 17.976562 18.222656 18.113281 18.839844 18.382812 C 19.457031 18.648438 19.964844 19.027344 20.367188 19.523438 C 20.773438 20.015625 21.074219 20.609375 21.269531 21.308594 C 21.472656 22 21.570312 22.773438 21.570312 23.632812 Z M 14.109375 23.632812 C 14.109375 24.207031 14.160156 24.726562 14.261719 25.1875 C 14.363281 25.644531 14.515625 26.03125 14.71875 26.355469 C 14.929688 26.667969 15.195312 26.914062 15.507812 27.082031 C 15.824219 27.253906 16.203125 27.339844 16.636719 27.339844 C 17.082031 27.339844 17.464844 27.253906 17.78125 27.082031 C 18.101562 26.914062 18.363281 26.667969 18.5625 26.355469 C 18.769531 26.03125 18.917969 25.644531 19.015625 25.1875 C 19.113281 24.726562 19.164062 24.207031 19.164062 23.632812 C 19.164062 23.054688 19.113281 22.539062 19.015625 22.082031 C 18.917969 21.621094 18.769531 21.230469 18.5625 20.910156 C 18.363281 20.589844 18.105469 20.34375 17.789062 20.171875 C 17.472656 20 17.09375 19.917969 16.652344 19.917969 C 16.214844 19.917969 15.839844 20 15.515625 20.171875 C 15.195312 20.34375 14.929688 20.589844 14.71875 20.910156 C 14.515625 21.230469 14.363281 21.621094 14.261719 22.082031 C 14.160156 22.539062 14.109375 23.054688 14.109375 23.632812 Z M 14.109375 23.632812 "/>
<path style=" stroke:none;fill-rule:nonzero;fill:rgb(95.294118%,71.764708%,85.09804%);fill-opacity:1;" d="M 23.84375 29.144531 L 23.84375 18.148438 L 26.171875 18.148438 L 26.171875 27.21875 L 30.175781 27.21875 L 30.175781 29.144531 Z M 23.84375 29.144531 "/>
<path style=" stroke:none;fill-rule:nonzero;fill:rgb(90.196079%,0.784314%,70.588237%);fill-opacity:1;" d="M 14.105469 11.640625 C 12.84375 6.941406 15.632812 2.109375 20.332031 0.851562 C 25.03125 -0.40625 29.863281 2.382812 31.121094 7.082031 C 32.378906 11.78125 29.59375 16.609375 24.890625 17.871094 C 20.191406 19.128906 15.363281 16.339844 14.105469 11.640625 Z M 14.105469 11.640625 "/>
<path style=" stroke:none;fill-rule:evenodd;fill:rgb(94.117647%,89.019608%,92.54902%);fill-opacity:1;" d="M 21.105469 1.984375 L 21.105469 7.722656 L 15.367188 7.722656 L 15.367188 10.738281 L 21.105469 10.738281 L 21.105469 16.476562 L 24.121094 16.476562 L 24.121094 10.738281 L 29.859375 10.738281 L 29.859375 7.722656 L 24.121094 7.722656 L 24.121094 1.984375 Z M 21.105469 1.984375 "/>
</g>
</svg>
