<?xml version="1.0" encoding="UTF-8"?>
<svg xmlns="http://www.w3.org/2000/svg" xmlns:xlink="http://www.w3.org/1999/xlink" width="32px" height="32px" viewBox="0 0 32 32" version="1.1">
<g id="surface1">
<path style=" stroke:none;fill-rule:nonzero;fill:rgb(33.333334%,34.117648%,32.549021%);fill-opacity:1;" d="M 9.625 2 C 8.707031 2.175781 7.984375 3.066406 8 4 L 8 18 L 12 18 L 12 6 L 20 6 L 20 12 L 26 12 L 26 18 L 30 18 L 30 11.125 C 30.011719 10.597656 29.804688 10.066406 29.4375 9.6875 L 22.3125 2.5625 C 21.933594 2.195312 21.402344 1.988281 20.875 2 L 10 2 C 9.9375 1.996094 9.875 1.996094 9.8125 2 C 9.75 1.996094 9.6875 1.996094 9.625 2 Z M 1.0625 10 C 0.484375 10 0 10.484375 0 11.0625 L 0 30.9375 C 0 31.535156 0.464844 32 1.0625 32 L 28.6875 32 C 29.285156 32 29.75 31.535156 29.75 30.9375 L 32 21.105469 C 32 20.527344 31.515625 20.042969 30.9375 20.042969 L 7.75 20.042969 L 6 27 C 6 27.554688 5.554688 28 5 28 C 4.445312 28 4 27.554688 4 27 L 4 17.007812 C 4 16.453125 4.445312 16.007812 5 16.007812 L 6 16.007812 L 6 10 Z M 1.0625 10 "/>
</g>
</svg>
