<?xml version="1.0" encoding="UTF-8"?>
<svg xmlns="http://www.w3.org/2000/svg" xmlns:xlink="http://www.w3.org/1999/xlink" width="32px" height="32px" viewBox="0 0 32 32" version="1.1">
<defs>
<filter id="alpha" filterUnits="objectBoundingBox" x="0%" y="0%" width="100%" height="100%">
  <feColorMatrix type="matrix" in="SourceGraphic" values="0 0 0 0 1 0 0 0 0 1 0 0 0 0 1 0 0 0 1 0"/>
</filter>
<mask id="mask0">
  <g filter="url(#alpha)">
<rect x="0" y="0" width="32" height="32" style="fill:rgb(0%,0%,0%);fill-opacity:0.93;stroke:none;"/>
  </g>
</mask>
<clipPath id="clip1">
  <rect x="0" y="0" width="32" height="32"/>
</clipPath>
<g id="surface5" clip-path="url(#clip1)">
<path style=" stroke:none;fill-rule:nonzero;fill:rgb(90.196079%,0.784314%,70.588237%);fill-opacity:1;" d="M 23.339844 4.519531 C 21.863281 4.542969 21.238281 5.121094 21.164062 5.820312 C 21.082031 6.609375 22.574219 7.179688 23.476562 6.894531 C 25.617188 6.222656 28.902344 7.75 29.304688 9.070312 C 29.621094 10.097656 28.875 10.894531 26.992188 12.15625 C 25.105469 13.417969 22.242188 14.625 18.910156 15.414062 C 15.578125 16.199219 12.4375 16.402344 10.128906 16.128906 C 7.820312 15.855469 6.460938 15.351562 6.175781 14.316406 C 6.0625 13.890625 6.070312 13.351562 6.242188 12.773438 L 4.238281 12.898438 C 3.886719 13.5625 3.765625 14.214844 3.9375 14.839844 C 4.363281 16.390625 6.453125 17.34375 9.242188 17.675781 C 12.03125 18.003906 15.636719 17.953125 19.367188 17.074219 C 23.097656 16.195312 26.460938 14.585938 28.738281 13.058594 C 31.019531 11.535156 31.851562 10.046875 31.429688 8.5 C 31.003906 6.949219 29.402344 5.695312 26.605469 5.027344 C 25.125 4.671875 23.945312 4.511719 23.339844 4.519531 Z M 23.339844 4.519531 "/>
</g>
</defs>
<g id="surface1">
<path style=" stroke:none;fill-rule:nonzero;fill:rgb(95.294118%,71.764708%,85.09804%);fill-opacity:1;" d="M 2 4 L 30 4 L 30 28 L 2 28 Z M 2 4 "/>
<path style=" stroke:none;fill-rule:nonzero;fill:rgb(94.117647%,89.019608%,92.54902%);fill-opacity:1;" d="M 2 12 L 30 12 L 30 28 L 2 28 Z M 2 12 "/>
<path style=" stroke:none;fill-rule:nonzero;fill:rgb(95.294118%,71.764708%,85.09804%);fill-opacity:1;" d="M 2 22 L 30 22 L 30 24 L 2 24 Z M 2 22 "/>
<path style=" stroke:none;fill-rule:nonzero;fill:rgb(95.294118%,71.764708%,85.09804%);fill-opacity:1;" d="M 2 16 L 30 16 L 30 18 L 2 18 Z M 2 16 "/>
<path style=" stroke:none;fill-rule:nonzero;fill:rgb(95.294118%,71.764708%,85.09804%);fill-opacity:1;" d="M 10 12 L 12 12 L 12 28 L 10 28 Z M 10 12 "/>
<path style=" stroke:none;fill-rule:nonzero;fill:rgb(95.294118%,71.764708%,85.09804%);fill-opacity:1;" d="M 20 12 L 22 12 L 22 28 L 20 28 Z M 20 12 "/>
<path style=" stroke:none;fill-rule:nonzero;fill:rgb(90.196079%,0.784314%,70.588237%);fill-opacity:1;" d="M 25.855469 5.800781 C 25.789062 5.925781 25.714844 6.050781 25.621094 6.171875 C 25.640625 6.171875 25.660156 6.175781 25.679688 6.179688 C 27.984375 6.453125 29.246094 7.777344 29.527344 8.8125 C 29.8125 9.847656 28.875 10.894531 26.992188 12.15625 C 25.105469 13.417969 22.242188 14.625 18.910156 15.414062 C 15.578125 16.199219 12.4375 16.402344 10.128906 16.128906 C 7.820312 15.855469 6.460938 15.351562 6.175781 14.316406 C 5.894531 13.28125 6.304688 11.554688 8.191406 10.292969 C 10.078125 9.03125 13.285156 7.5 16.617188 6.714844 C 17.472656 6.703125 17.242188 6.265625 16.578125 6.417969 C 12.847656 7.296875 9.417969 8.484375 7.136719 10.007812 C 4.859375 11.535156 3.511719 13.292969 3.9375 14.839844 C 4.363281 16.390625 6.453125 17.34375 9.242188 17.675781 C 12.03125 18.003906 15.636719 17.953125 19.367188 17.074219 C 23.097656 16.195312 26.289062 14.644531 28.566406 13.121094 C 30.847656 11.59375 31.039062 9.902344 30.613281 8.351562 C 30.195312 6.828125 28.605469 5.855469 25.855469 5.800781 Z M 25.855469 5.800781 "/>
<path style=" stroke:none;fill-rule:nonzero;fill:rgb(61.56863%,22.745098%,60.784316%);fill-opacity:1;" d="M 17.355469 6.09375 C 17.394531 6.234375 16.996094 6.34375 16.929688 6.480469 C 16.863281 6.617188 17.054688 6.917969 16.910156 7 C 16.761719 7.078125 16.53125 6.796875 16.363281 6.789062 C 16.195312 6.785156 15.90625 7.046875 15.777344 6.957031 C 15.648438 6.867188 15.902344 6.578125 15.867188 6.441406 C 15.828125 6.300781 15.457031 6.160156 15.523438 6.023438 C 15.589844 5.886719 15.980469 5.992188 16.125 5.914062 C 16.269531 5.832031 16.328125 5.484375 16.5 5.488281 C 16.667969 5.496094 16.652344 5.847656 16.78125 5.9375 C 16.910156 6.027344 17.316406 5.953125 17.355469 6.09375 Z M 17.355469 6.09375 "/>
<path style=" stroke:none;fill-rule:nonzero;fill:rgb(61.56863%,22.745098%,60.784316%);fill-opacity:1;" d="M 27.085938 24.824219 C 26.710938 24.804688 26.714844 23.898438 26.421875 23.664062 C 26.132812 23.429688 25.246094 23.617188 25.148438 23.253906 C 25.054688 22.894531 25.914062 22.613281 26.050781 22.265625 C 26.183594 21.917969 25.734375 21.132812 26.046875 20.929688 C 26.359375 20.726562 26.890625 21.460938 27.265625 21.480469 C 27.636719 21.5 28.246094 20.828125 28.535156 21.0625 C 28.824219 21.296875 28.292969 22.03125 28.386719 22.390625 C 28.484375 22.75 29.3125 23.121094 29.175781 23.46875 C 29.042969 23.820312 28.179688 23.539062 27.867188 23.742188 C 27.554688 23.945312 27.457031 24.84375 27.085938 24.824219 Z M 27.085938 24.824219 "/>
<path style=" stroke:none;fill-rule:evenodd;fill:rgb(61.56863%,22.745098%,60.784316%);fill-opacity:1;" d="M 27.871094 30.789062 C 27.925781 30.933594 27.59375 31.496094 26.738281 31.800781 C 25.878906 32.109375 25.277344 31.925781 25.207031 31.742188 C 25.164062 31.621094 15.675781 5.511719 15.628906 5.390625 C 16.519531 5.074219 17.40625 4.753906 18.292969 4.4375 C 18.335938 4.554688 27.824219 30.667969 27.871094 30.789062 Z M 27.871094 30.789062 "/>
<path style=" stroke:none;fill-rule:nonzero;fill:rgb(90.196079%,0.784314%,70.588237%);fill-opacity:1;" d="M 20.296875 9.945312 C 20.269531 9.605469 19.160156 6.601562 18.984375 6.347656 L 16.855469 7.117188 L 18.167969 10.710938 Z M 18.394531 10.632812 L 17.078125 7.035156 L 16.328125 7.300781 C 16.347656 7.59375 17.4375 10.605469 17.644531 10.898438 Z M 18.394531 10.632812 "/>
<path style=" stroke:none;fill-rule:nonzero;fill:rgb(94.117647%,89.019608%,92.54902%);fill-opacity:1;" d="M 16.792969 7.988281 C 16.785156 7.976562 16.777344 7.964844 16.769531 7.960938 C 16.757812 7.953125 16.746094 7.953125 16.734375 7.957031 C 16.71875 7.960938 16.710938 7.96875 16.707031 7.980469 C 16.703125 7.992188 16.703125 8.003906 16.707031 8.019531 C 16.714844 8.035156 16.722656 8.042969 16.730469 8.050781 C 16.742188 8.054688 16.753906 8.054688 16.765625 8.050781 C 16.78125 8.046875 16.789062 8.039062 16.792969 8.027344 C 16.796875 8.019531 16.796875 8.003906 16.792969 7.988281 M 16.816406 7.980469 C 16.828125 8.011719 16.828125 8.039062 16.824219 8.058594 C 16.820312 8.082031 16.804688 8.09375 16.785156 8.101562 C 16.765625 8.109375 16.746094 8.105469 16.726562 8.09375 C 16.710938 8.078125 16.695312 8.058594 16.683594 8.027344 C 16.671875 7.996094 16.671875 7.972656 16.675781 7.949219 C 16.679688 7.929688 16.695312 7.914062 16.714844 7.90625 C 16.734375 7.898438 16.753906 7.902344 16.773438 7.917969 C 16.789062 7.929688 16.804688 7.953125 16.816406 7.980469 M 16.835938 8.234375 L 16.792969 8.324219 L 16.777344 8.273438 L 16.804688 8.214844 L 16.742188 8.183594 L 16.726562 8.132812 L 16.8125 8.175781 L 16.851562 8.089844 L 16.871094 8.140625 L 16.847656 8.199219 L 16.902344 8.226562 L 16.921875 8.277344 L 16.835938 8.234375 M 16.921875 8.28125 L 16.941406 8.335938 L 16.914062 8.394531 L 16.972656 8.421875 L 16.992188 8.476562 L 16.894531 8.429688 L 16.839844 8.445312 L 16.820312 8.398438 L 16.875 8.378906 L 16.921875 8.28125 M 16.945312 8.707031 C 16.9375 8.695312 16.929688 8.683594 16.921875 8.671875 C 16.914062 8.660156 16.910156 8.648438 16.902344 8.632812 C 16.894531 8.601562 16.890625 8.574219 16.894531 8.550781 C 16.898438 8.527344 16.914062 8.515625 16.933594 8.507812 C 16.953125 8.5 16.972656 8.503906 16.992188 8.519531 C 17.007812 8.535156 17.023438 8.558594 17.035156 8.589844 C 17.042969 8.601562 17.042969 8.613281 17.046875 8.625 C 17.050781 8.640625 17.050781 8.652344 17.050781 8.660156 L 17.027344 8.671875 C 17.027344 8.660156 17.023438 8.648438 17.023438 8.636719 C 17.023438 8.625 17.019531 8.613281 17.015625 8.605469 C 17.007812 8.585938 17 8.570312 16.988281 8.5625 C 16.976562 8.554688 16.964844 8.554688 16.949219 8.558594 C 16.9375 8.5625 16.929688 8.570312 16.925781 8.582031 C 16.921875 8.597656 16.921875 8.613281 16.929688 8.632812 C 16.933594 8.636719 16.933594 8.640625 16.9375 8.644531 C 16.9375 8.648438 16.941406 8.652344 16.941406 8.65625 L 16.96875 8.648438 L 16.957031 8.617188 L 16.976562 8.609375 L 17.003906 8.6875 L 16.945312 8.707031 M 17.078125 8.710938 L 17.125 8.839844 L 17.101562 8.851562 L 17.070312 8.765625 L 17.046875 8.773438 L 17.074219 8.851562 L 17.050781 8.863281 L 17.023438 8.785156 L 16.992188 8.792969 L 17.023438 8.878906 L 17 8.886719 L 16.949219 8.753906 L 17.078125 8.710938 M 17.140625 8.886719 L 17.160156 8.941406 L 17.101562 9.039062 L 17.1875 9.011719 L 17.203125 9.058594 L 17.078125 9.101562 L 17.058594 9.046875 L 17.117188 8.945312 L 17.03125 8.976562 L 17.015625 8.929688 L 17.140625 8.886719 M 17.253906 9.195312 L 17.273438 9.25 L 17.210938 9.347656 L 17.296875 9.316406 L 17.316406 9.363281 L 17.1875 9.410156 L 17.167969 9.355469 L 17.230469 9.253906 L 17.144531 9.285156 L 17.128906 9.238281 L 17.253906 9.195312 M 17.351562 9.460938 C 17.359375 9.476562 17.363281 9.492188 17.359375 9.507812 C 17.355469 9.519531 17.351562 9.527344 17.339844 9.53125 C 17.328125 9.535156 17.316406 9.53125 17.308594 9.523438 C 17.296875 9.515625 17.289062 9.503906 17.28125 9.484375 C 17.277344 9.464844 17.273438 9.453125 17.277344 9.4375 C 17.28125 9.425781 17.285156 9.417969 17.296875 9.414062 C 17.308594 9.410156 17.316406 9.414062 17.328125 9.421875 C 17.339844 9.429688 17.347656 9.441406 17.351562 9.460938 M 17.253906 9.4375 L 17.292969 9.539062 L 17.273438 9.546875 L 17.238281 9.441406 L 17.253906 9.4375 M 17.339844 9.464844 C 17.335938 9.457031 17.332031 9.453125 17.328125 9.449219 C 17.320312 9.449219 17.316406 9.449219 17.308594 9.449219 C 17.304688 9.453125 17.300781 9.457031 17.296875 9.460938 C 17.292969 9.464844 17.296875 9.472656 17.296875 9.480469 C 17.300781 9.488281 17.304688 9.492188 17.308594 9.496094 C 17.3125 9.496094 17.320312 9.496094 17.324219 9.496094 C 17.332031 9.492188 17.335938 9.488281 17.339844 9.484375 C 17.339844 9.480469 17.339844 9.472656 17.339844 9.464844 M 17.394531 9.765625 C 17.398438 9.78125 17.398438 9.789062 17.394531 9.800781 C 17.390625 9.808594 17.386719 9.8125 17.378906 9.816406 C 17.363281 9.820312 17.351562 9.816406 17.339844 9.804688 C 17.328125 9.792969 17.316406 9.773438 17.308594 9.746094 C 17.304688 9.734375 17.300781 9.726562 17.300781 9.714844 C 17.296875 9.707031 17.292969 9.695312 17.292969 9.683594 L 17.320312 9.675781 C 17.320312 9.6875 17.320312 9.695312 17.320312 9.707031 C 17.324219 9.714844 17.324219 9.722656 17.328125 9.734375 C 17.332031 9.746094 17.339844 9.753906 17.34375 9.761719 C 17.351562 9.765625 17.355469 9.769531 17.359375 9.765625 C 17.367188 9.765625 17.371094 9.761719 17.371094 9.75 C 17.371094 9.742188 17.367188 9.734375 17.363281 9.71875 L 17.355469 9.699219 L 17.378906 9.691406 L 17.382812 9.710938 C 17.390625 9.726562 17.394531 9.734375 17.398438 9.738281 C 17.402344 9.742188 17.40625 9.746094 17.414062 9.742188 C 17.417969 9.742188 17.421875 9.738281 17.421875 9.730469 C 17.421875 9.722656 17.421875 9.714844 17.417969 9.703125 C 17.414062 9.695312 17.410156 9.6875 17.40625 9.679688 C 17.402344 9.675781 17.398438 9.667969 17.390625 9.660156 L 17.414062 9.652344 C 17.421875 9.660156 17.425781 9.667969 17.429688 9.679688 C 17.433594 9.6875 17.4375 9.695312 17.441406 9.707031 C 17.449219 9.730469 17.453125 9.75 17.453125 9.765625 C 17.453125 9.777344 17.445312 9.785156 17.4375 9.789062 C 17.429688 9.792969 17.421875 9.792969 17.414062 9.789062 C 17.40625 9.785156 17.402344 9.777344 17.394531 9.765625 "/>
<path style=" stroke:none;fill-rule:evenodd;fill:rgb(61.56863%,22.745098%,60.784316%);fill-opacity:1;" d="M 18.265625 4.347656 C 18.214844 4.214844 17.613281 4.027344 16.761719 4.332031 C 15.898438 4.640625 15.542969 5.136719 15.601562 5.304688 C 15.640625 5.414062 15.59375 5.285156 15.632812 5.394531 C 16.519531 5.078125 17.40625 4.757812 18.292969 4.441406 C 18.253906 4.332031 18.300781 4.457031 18.265625 4.347656 "/>
<use xlink:href="#surface5" mask="url(#mask0)"/>
<path style=" stroke:none;fill-rule:nonzero;fill:rgb(61.56863%,22.745098%,60.784316%);fill-opacity:1;" d="M 13.402344 12.625 C 13.183594 12.859375 12.550781 12.445312 12.230469 12.523438 C 11.90625 12.605469 11.558594 13.273438 11.253906 13.167969 C 10.949219 13.066406 11.21875 12.375 11.046875 12.128906 C 10.875 11.878906 10.078125 11.816406 10.105469 11.519531 C 10.132812 11.21875 10.9375 11.207031 11.152344 10.972656 C 11.367188 10.738281 11.226562 10.035156 11.546875 9.953125 C 11.867188 9.871094 12.09375 10.554688 12.398438 10.65625 C 12.703125 10.761719 13.410156 10.390625 13.582031 10.636719 C 13.753906 10.882812 13.089844 11.320312 13.0625 11.617188 C 13.039062 11.914062 13.617188 12.390625 13.402344 12.625 Z M 13.402344 12.625 "/>
<path style=" stroke:none;fill-rule:nonzero;fill:rgb(61.56863%,22.745098%,60.784316%);fill-opacity:1;" d="M 8.503906 7.542969 C 8.382812 7.648438 8.089844 7.414062 7.925781 7.441406 C 7.765625 7.46875 7.554688 7.785156 7.410156 7.722656 C 7.265625 7.65625 7.433594 7.324219 7.363281 7.191406 C 7.289062 7.0625 6.898438 6.996094 6.929688 6.847656 C 6.957031 6.699219 7.355469 6.726562 7.476562 6.621094 C 7.59375 6.511719 7.5625 6.152344 7.726562 6.125 C 7.890625 6.101562 7.964844 6.453125 8.109375 6.515625 C 8.257812 6.582031 8.625 6.425781 8.699219 6.554688 C 8.769531 6.6875 8.417969 6.875 8.390625 7.023438 C 8.359375 7.171875 8.621094 7.433594 8.503906 7.542969 Z M 8.503906 7.542969 "/>
<path style=" stroke:none;fill-rule:nonzero;fill:rgb(61.56863%,22.745098%,60.784316%);fill-opacity:1;" d="M 9.460938 18.285156 C 9.230469 18.050781 9.859375 17.492188 9.835938 17.171875 C 9.808594 16.851562 9.097656 16.4375 9.285156 16.15625 C 9.472656 15.878906 10.230469 16.222656 10.5625 16.085938 C 10.890625 15.953125 11.140625 15.195312 11.488281 15.257812 C 11.832031 15.320312 11.671875 16.09375 11.902344 16.328125 C 12.132812 16.5625 12.996094 16.511719 13.019531 16.832031 C 13.046875 17.148438 12.191406 17.28125 12.003906 17.5625 C 11.816406 17.84375 12.097656 18.566406 11.769531 18.699219 C 11.441406 18.835938 11.070312 18.148438 10.726562 18.085938 C 10.378906 18.023438 9.691406 18.519531 9.460938 18.285156 Z M 9.460938 18.285156 "/>
</g>
</svg>
