<?xml version="1.0" encoding="UTF-8"?>
<svg xmlns="http://www.w3.org/2000/svg" xmlns:xlink="http://www.w3.org/1999/xlink" width="32px" height="32px" viewBox="0 0 32 32" version="1.1">
<g id="surface1">
<path style=" stroke:none;fill-rule:nonzero;fill:rgb(95.294118%,71.764708%,85.09804%);fill-opacity:1;" d="M 2 4 L 30 4 L 30 28 L 2 28 Z M 2 4 "/>
<path style=" stroke:none;fill-rule:nonzero;fill:rgb(94.117647%,89.019608%,92.54902%);fill-opacity:1;" d="M 2 10 L 30 10 L 30 28 L 2 28 Z M 2 10 "/>
<path style=" stroke:none;fill-rule:nonzero;fill:rgb(95.294118%,71.764708%,85.09804%);fill-opacity:1;" d="M 4 16 L 14 16 L 14 18 L 4 18 Z M 4 16 "/>
<path style=" stroke:none;fill-rule:nonzero;fill:rgb(95.294118%,71.764708%,85.09804%);fill-opacity:1;" d="M 4 12 L 14 12 L 14 14 L 4 14 Z M 4 12 "/>
<path style=" stroke:none;fill-rule:nonzero;fill:rgb(95.294118%,71.764708%,85.09804%);fill-opacity:1;" d="M 18 12 L 28 12 L 28 14 L 18 14 Z M 18 12 "/>
<path style=" stroke:none;fill-rule:nonzero;fill:rgb(95.294118%,71.764708%,85.09804%);fill-opacity:1;" d="M 18 16 L 28 16 L 28 18 L 18 18 Z M 18 16 "/>
<path style=" stroke:none;fill-rule:nonzero;fill:rgb(95.294118%,71.764708%,85.09804%);fill-opacity:1;" d="M 4 20 L 14 20 L 14 22 L 4 22 Z M 4 20 "/>
<path style=" stroke:none;fill-rule:nonzero;fill:rgb(95.294118%,71.764708%,85.09804%);fill-opacity:1;" d="M 18 20 L 28 20 L 28 22 L 18 22 Z M 18 20 "/>
<path style=" stroke:none;fill-rule:nonzero;fill:rgb(95.294118%,71.764708%,85.09804%);fill-opacity:1;" d="M 4 24 L 14 24 L 14 26 L 4 26 Z M 4 24 "/>
<path style=" stroke:none;fill-rule:nonzero;fill:rgb(95.294118%,71.764708%,85.09804%);fill-opacity:1;" d="M 18 24 L 28 24 L 28 26 L 18 26 Z M 18 24 "/>
<path style=" stroke:none;fill-rule:evenodd;fill:rgb(61.56863%,22.745098%,60.784316%);fill-opacity:1;" d="M 28.0625 0.0820312 C 28.242188 -0.117188 29.410156 -0.0234375 30.652344 1.105469 C 31.910156 2.246094 32.160156 3.347656 31.9375 3.597656 C 31.792969 3.761719 31.648438 3.925781 31.503906 4.089844 C 30.210938 2.917969 28.921875 1.742188 27.628906 0.570312 C 27.773438 0.40625 27.917969 0.246094 28.0625 0.0820312 Z M 28.0625 0.0820312 "/>
<path style=" stroke:none;fill-rule:evenodd;fill:rgb(95.294118%,71.764708%,85.09804%);fill-opacity:1;" d="M 12.410156 22 L 18.273438 19.269531 L 18.300781 19.238281 L 14.457031 15.683594 L 14.421875 15.726562 Z M 12.410156 22 "/>
<path style=" stroke:none;fill-rule:nonzero;fill:rgb(61.56863%,22.745098%,60.784316%);fill-opacity:1;" d="M 16.222656 17.640625 C 16.699219 18.074219 17.019531 18.078125 17.191406 18.234375 C 17.21875 18.257812 17.242188 18.289062 17.261719 18.320312 L 30.183594 3.476562 L 28.308594 1.769531 L 15.359375 16.640625 C 15.421875 16.65625 15.480469 16.679688 15.535156 16.726562 C 15.691406 16.867188 15.742188 17.203125 16.222656 17.640625 Z M 16.222656 17.640625 "/>
<path style=" stroke:none;fill-rule:nonzero;fill:rgb(90.196079%,0.784314%,70.588237%);fill-opacity:1;" d="M 30.117188 3.414062 L 17.203125 18.246094 C 17.359375 18.398438 17.351562 18.644531 17.640625 18.90625 C 17.949219 19.1875 18.089844 19.066406 18.292969 19.25 L 31.210938 4.410156 Z M 30.117188 3.414062 "/>
<path style=" stroke:none;fill-rule:nonzero;fill:rgb(90.196079%,0.784314%,70.588237%);fill-opacity:1;" d="M 14.871094 16.40625 C 15.171875 16.675781 15.375 16.582031 15.535156 16.726562 L 28.449219 1.898438 L 27.339844 0.890625 L 14.421875 15.726562 C 14.425781 15.730469 14.433594 15.738281 14.4375 15.742188 C 14.5625 15.855469 14.570312 16.132812 14.871094 16.40625 Z M 14.871094 16.40625 "/>
<path style=" stroke:none;fill-rule:nonzero;fill:rgb(61.56863%,22.745098%,60.784316%);fill-opacity:1;" d="M 28.054688 0.0976562 L 31.929688 3.613281 L 31.113281 4.53125 L 27.234375 1.019531 Z M 28.054688 0.0976562 "/>
<path style=" stroke:none;fill-rule:evenodd;fill:rgb(61.56863%,22.745098%,60.784316%);fill-opacity:1;" d="M 14.933594 20.835938 C 14.386719 20.613281 13.640625 19.699219 13.257812 19.367188 L 12.410156 22 Z M 14.933594 20.835938 "/>
<path style=" stroke:none;fill-rule:nonzero;fill:rgb(90.196079%,0.784314%,70.588237%);fill-opacity:1;" d="M 29.101562 1.039062 L 28.296875 1.96875 L 30.175781 3.671875 L 30.976562 2.746094 Z M 29.101562 1.039062 "/>
</g>
</svg>
