<?xml version="1.0" encoding="UTF-8"?>
<svg xmlns="http://www.w3.org/2000/svg" xmlns:xlink="http://www.w3.org/1999/xlink" width="32px" height="32px" viewBox="0 0 32 32" version="1.1">
<defs>
<linearGradient id="linear0" gradientUnits="userSpaceOnUse" x1="98.40847" y1="30.758501" x2="115.255234" y2="77.140503" gradientTransform="matrix(0.25,0,0,0.25,-0.000000983314,0.00000080718)">
<stop offset="0" style="stop-color:rgb(100%,100%,100%);stop-opacity:0.683453;"/>
<stop offset="1" style="stop-color:rgb(100%,100%,100%);stop-opacity:0;"/>
</linearGradient>
</defs>
<g id="surface1">
<path style=" stroke:none;fill-rule:nonzero;fill:rgb(95.294118%,71.764708%,85.09804%);fill-opacity:1;" d="M 2 4 L 30 4 L 30 28 L 2 28 Z M 2 4 "/>
<path style=" stroke:none;fill-rule:nonzero;fill:rgb(94.117647%,89.019608%,92.54902%);fill-opacity:1;" d="M 2 10 L 30 10 L 30 28 L 2 28 Z M 2 10 "/>
<path style=" stroke:none;fill-rule:nonzero;fill:rgb(95.294118%,71.764708%,85.09804%);fill-opacity:1;" d="M 4 16 L 14 16 L 14 18 L 4 18 Z M 4 16 "/>
<path style=" stroke:none;fill-rule:nonzero;fill:rgb(95.294118%,71.764708%,85.09804%);fill-opacity:1;" d="M 4 12 L 14 12 L 14 14 L 4 14 Z M 4 12 "/>
<path style=" stroke:none;fill-rule:nonzero;fill:rgb(79.215688%,79.215688%,80.000001%);fill-opacity:1;" d="M 18 12 L 28 12 L 28 14 L 18 14 Z M 18 12 "/>
<path style=" stroke:none;fill-rule:nonzero;fill:rgb(79.215688%,79.215688%,80.000001%);fill-opacity:1;" d="M 18 16 L 28 16 L 28 18 L 18 18 Z M 18 16 "/>
<path style=" stroke:none;fill-rule:nonzero;fill:rgb(95.294118%,71.764708%,85.09804%);fill-opacity:1;" d="M 4 20 L 14 20 L 14 22 L 4 22 Z M 4 20 "/>
<path style=" stroke:none;fill-rule:nonzero;fill:rgb(79.215688%,79.215688%,80.000001%);fill-opacity:1;" d="M 18 20 L 28 20 L 28 22 L 18 22 Z M 18 20 "/>
<path style=" stroke:none;fill-rule:nonzero;fill:rgb(95.294118%,71.764708%,85.09804%);fill-opacity:1;" d="M 4 24 L 14 24 L 14 26 L 4 26 Z M 4 24 "/>
<path style=" stroke:none;fill-rule:nonzero;fill:rgb(79.215688%,79.215688%,80.000001%);fill-opacity:1;" d="M 18 24 L 28 24 L 28 26 L 18 26 Z M 18 24 "/>
<path style=" stroke:none;fill-rule:nonzero;fill:rgb(61.56863%,22.745098%,60.784316%);fill-opacity:1;" d="M 16 10 L 31.9375 10 L 31.9375 32 L 16 32 Z M 16 10 "/>
<path style=" stroke:none;fill-rule:nonzero;fill:rgb(94.117647%,89.019608%,92.54902%);fill-opacity:1;" d="M 18 12 L 30 12 L 30 30 L 18 30 Z M 18 12 "/>
<path style=" stroke:none;fill-rule:evenodd;fill:url(#linear0);" d="M 18 12 L 18 24 C 21.699219 19.695312 26.511719 18.191406 30 17.640625 L 30 12 Z M 18 12 "/>
<path style=" stroke:none;fill-rule:nonzero;fill:rgb(95.294118%,71.764708%,85.09804%);fill-opacity:1;" d="M 20 15 L 28 15 L 28 28 L 20 28 Z M 20 15 "/>
<path style=" stroke:none;fill-rule:nonzero;fill:rgb(90.196079%,0.784314%,70.588237%);fill-opacity:1;" d="M 21 16 L 27 16 L 27 27 L 21 27 Z M 21 16 "/>
<path style=" stroke:none;fill-rule:nonzero;fill:rgb(95.294118%,71.764708%,85.09804%);fill-opacity:1;" d="M 22 17 L 26 17 L 26 21 L 22 21 Z M 22 17 "/>
<path style=" stroke:none;fill-rule:nonzero;fill:rgb(61.56863%,22.745098%,60.784316%);fill-opacity:1;" d="M 22 29 L 26 29 L 26 21 L 22 21 Z M 22 29 "/>
</g>
</svg>
