<?xml version="1.0" encoding="UTF-8"?>
<svg xmlns="http://www.w3.org/2000/svg" xmlns:xlink="http://www.w3.org/1999/xlink" width="32px" height="32px" viewBox="0 0 32 32" version="1.1">
<defs>
<filter id="alpha" filterUnits="objectBoundingBox" x="0%" y="0%" width="100%" height="100%">
  <feColorMatrix type="matrix" in="SourceGraphic" values="0 0 0 0 1 0 0 0 0 1 0 0 0 0 1 0 0 0 1 0"/>
</filter>
<mask id="mask0">
  <g filter="url(#alpha)">
<rect x="0" y="0" width="32" height="32" style="fill:rgb(0%,0%,0%);fill-opacity:0.6;stroke:none;"/>
  </g>
</mask>
<clipPath id="clip1">
  <rect x="0" y="0" width="32" height="32"/>
</clipPath>
<g id="surface5" clip-path="url(#clip1)">
<path style="fill:none;stroke-width:4.612318;stroke-linecap:round;stroke-linejoin:round;stroke:rgb(61.56863%,22.745098%,60.784316%);stroke-opacity:1;stroke-miterlimit:4;" d="M 124.972811 244.873674 L 152.229379 244.873674 C 152.991937 244.873674 153.60785 245.60414 153.60785 246.508922 L 153.60785 264.496655 C 153.60785 265.401437 152.991937 266.131903 152.229379 266.131903 L 124.972811 266.131903 C 124.210253 266.131903 123.594341 265.401437 123.594341 264.496655 L 123.594341 246.508922 C 123.594341 245.60414 124.210253 244.873674 124.972811 244.873674 Z M 124.972811 244.873674 " transform="matrix(0.39956,0,0,0.47059,-31.379406,-95.238962)"/>
</g>
<mask id="mask1">
  <g filter="url(#alpha)">
<rect x="0" y="0" width="32" height="32" style="fill:rgb(0%,0%,0%);fill-opacity:0.6;stroke:none;"/>
  </g>
</mask>
<clipPath id="clip2">
  <rect x="0" y="0" width="32" height="32"/>
</clipPath>
<g id="surface8" clip-path="url(#clip2)">
<path style="fill:none;stroke-width:4.612318;stroke-linecap:round;stroke-linejoin:round;stroke:rgb(61.56863%,22.745098%,60.784316%);stroke-opacity:1;stroke-miterlimit:4;" d="M 124.972808 244.873659 L 152.229376 244.873659 C 152.991934 244.873659 153.607846 245.604125 153.607846 246.508907 L 153.607846 264.49664 C 153.607846 265.401422 152.991934 266.131888 152.229376 266.131888 L 124.972808 266.131888 C 124.21025 266.131888 123.594337 265.401422 123.594337 264.49664 L 123.594337 246.508907 C 123.594337 245.604125 124.21025 244.873659 124.972808 244.873659 Z M 124.972808 244.873659 " transform="matrix(0.39956,0,0,0.47059,-47.379405,-107.238955)"/>
</g>
<mask id="mask2">
  <g filter="url(#alpha)">
<rect x="0" y="0" width="32" height="32" style="fill:rgb(0%,0%,0%);fill-opacity:0.6;stroke:none;"/>
  </g>
</mask>
<clipPath id="clip3">
  <rect x="0" y="0" width="32" height="32"/>
</clipPath>
<g id="surface11" clip-path="url(#clip3)">
<path style="fill:none;stroke-width:4.612318;stroke-linecap:round;stroke-linejoin:round;stroke:rgb(61.56863%,22.745098%,60.784316%);stroke-opacity:1;stroke-miterlimit:4;" d="M 124.972811 244.873735 L 152.229379 244.873735 C 152.991937 244.873735 153.60785 245.604201 153.60785 246.508984 L 153.60785 264.496716 C 153.60785 265.401498 152.991937 266.131965 152.229379 266.131965 L 124.972811 266.131965 C 124.210253 266.131965 123.594341 265.401498 123.594341 264.496716 L 123.594341 246.508984 C 123.594341 245.604201 124.210253 244.873735 124.972811 244.873735 Z M 124.972811 244.873735 " transform="matrix(0.39956,0,0,0.47059,-31.379406,-113.238991)"/>
</g>
</defs>
<g id="surface1">
<path style=" stroke:none;fill-rule:nonzero;fill:rgb(90.196079%,0.784314%,70.588237%);fill-opacity:1;" d="M 8 8 L 8 2 L 18 2 L 18 4 L 10 4 L 10 8 Z M 8 8 "/>
<path style=" stroke:none;fill-rule:nonzero;fill:rgb(90.196079%,0.784314%,70.588237%);fill-opacity:1;" d="M 8 18 L 8 26 L 30 26 L 30 24 L 10 24 L 10 18 Z M 8 18 "/>
<use xlink:href="#surface5" mask="url(#mask0)"/>
<path style=" stroke:none;fill-rule:nonzero;fill:rgb(94.117647%,89.019608%,92.54902%);fill-opacity:1;" d="M 18.554688 19.996094 L 29.449219 19.996094 C 29.753906 19.996094 30 20.339844 30 20.765625 L 30 29.230469 L 18 29.230469 L 18 20.765625 C 18 20.339844 18.246094 19.996094 18.554688 19.996094 Z M 18.554688 19.996094 "/>
<path style=" stroke:none;fill-rule:nonzero;fill:rgb(95.294118%,71.764708%,85.09804%);fill-opacity:1;" d="M 18.550781 19.996094 C 18.242188 19.996094 18 20.335938 18 20.761719 L 18 29.234375 C 18 29.660156 18.242188 30 18.550781 30 L 29.449219 30 C 29.757812 30 30 29.660156 30 29.234375 L 30 20.761719 C 30 20.335938 29.757812 19.996094 29.449219 19.996094 Z M 18.925781 21.144531 L 29.078125 21.144531 C 29.367188 21.144531 29.601562 21.464844 29.601562 21.863281 L 29.601562 28.808594 C 29.601562 29.207031 29.367188 29.53125 29.074219 29.53125 L 18.925781 29.53125 C 18.632812 29.53125 18.398438 29.207031 18.398438 28.808594 L 18.398438 21.863281 C 18.398438 21.464844 18.632812 21.144531 18.925781 21.144531 Z M 18.925781 21.144531 "/>
<path style=" stroke:none;fill-rule:nonzero;fill:rgb(95.294118%,71.764708%,85.09804%);fill-opacity:1;" d="M 18 26 L 30 26 L 30 30 L 18 30 Z M 18 26 "/>
<use xlink:href="#surface8" mask="url(#mask1)"/>
<path style=" stroke:none;fill-rule:nonzero;fill:rgb(94.117647%,89.019608%,92.54902%);fill-opacity:1;" d="M 2.554688 7.996094 L 13.449219 7.996094 C 13.753906 7.996094 14 8.339844 14 8.765625 L 14 17.230469 L 2 17.230469 L 2 8.765625 C 2 8.339844 2.246094 7.996094 2.554688 7.996094 Z M 2.554688 7.996094 "/>
<path style=" stroke:none;fill-rule:nonzero;fill:rgb(95.294118%,71.764708%,85.09804%);fill-opacity:1;" d="M 2.550781 7.996094 C 2.242188 7.996094 2 8.335938 2 8.761719 L 2 17.234375 C 2 17.660156 2.242188 18 2.550781 18 L 13.449219 18 C 13.757812 18 14 17.660156 14 17.234375 L 14 8.761719 C 14 8.335938 13.757812 7.996094 13.449219 7.996094 Z M 2.925781 9.144531 L 13.078125 9.144531 C 13.367188 9.144531 13.601562 9.464844 13.601562 9.863281 L 13.601562 16.808594 C 13.601562 17.207031 13.367188 17.53125 13.074219 17.53125 L 2.925781 17.53125 C 2.632812 17.53125 2.398438 17.207031 2.398438 16.808594 L 2.398438 9.863281 C 2.398438 9.464844 2.632812 9.144531 2.925781 9.144531 Z M 2.925781 9.144531 "/>
<path style=" stroke:none;fill-rule:nonzero;fill:rgb(95.294118%,71.764708%,85.09804%);fill-opacity:1;" d="M 2 14 L 14 14 L 14 18 L 2 18 Z M 2 14 "/>
<use xlink:href="#surface11" mask="url(#mask2)"/>
<path style=" stroke:none;fill-rule:nonzero;fill:rgb(94.117647%,89.019608%,92.54902%);fill-opacity:1;" d="M 18.554688 1.996094 L 29.449219 1.996094 C 29.753906 1.996094 30 2.339844 30 2.765625 L 30 11.230469 L 18 11.230469 L 18 2.765625 C 18 2.339844 18.246094 1.996094 18.554688 1.996094 Z M 18.554688 1.996094 "/>
<path style=" stroke:none;fill-rule:nonzero;fill:rgb(95.294118%,71.764708%,85.09804%);fill-opacity:1;" d="M 18.550781 1.996094 C 18.242188 1.996094 18 2.335938 18 2.761719 L 18 11.234375 C 18 11.660156 18.242188 12 18.550781 12 L 29.449219 12 C 29.757812 12 30 11.660156 30 11.234375 L 30 2.761719 C 30 2.335938 29.757812 1.996094 29.449219 1.996094 Z M 18.925781 3.144531 L 29.078125 3.144531 C 29.367188 3.144531 29.601562 3.464844 29.601562 3.863281 L 29.601562 10.808594 C 29.601562 11.207031 29.367188 11.53125 29.074219 11.53125 L 18.925781 11.53125 C 18.632812 11.53125 18.398438 11.207031 18.398438 10.808594 L 18.398438 3.863281 C 18.398438 3.464844 18.632812 3.144531 18.925781 3.144531 Z M 18.925781 3.144531 "/>
<path style=" stroke:none;fill-rule:nonzero;fill:rgb(95.294118%,71.764708%,85.09804%);fill-opacity:1;" d="M 18 8 L 30 8 L 30 12 L 18 12 Z M 18 8 "/>
</g>
</svg>
