<?xml version="1.0" encoding="UTF-8"?>
<svg xmlns="http://www.w3.org/2000/svg" xmlns:xlink="http://www.w3.org/1999/xlink" width="32px" height="32px" viewBox="0 0 32 32" version="1.1">
<g id="surface1">
<path style=" stroke:none;fill-rule:nonzero;fill:rgb(95.294118%,71.764708%,85.09804%);fill-opacity:1;" d="M 2 4 L 30 4 L 30 28 L 2 28 Z M 2 4 "/>
<path style=" stroke:none;fill-rule:nonzero;fill:rgb(94.117647%,89.019608%,92.54902%);fill-opacity:1;" d="M 2 12 L 30 12 L 30 28 L 2 28 Z M 2 12 "/>
<path style=" stroke:none;fill-rule:nonzero;fill:rgb(95.294118%,71.764708%,85.09804%);fill-opacity:1;" d="M 2 22 L 30 22 L 30 24 L 2 24 Z M 2 22 "/>
<path style=" stroke:none;fill-rule:nonzero;fill:rgb(95.294118%,71.764708%,85.09804%);fill-opacity:1;" d="M 2 16 L 30 16 L 30 18 L 2 18 Z M 2 16 "/>
<path style=" stroke:none;fill-rule:nonzero;fill:rgb(95.294118%,71.764708%,85.09804%);fill-opacity:1;" d="M 10 12 L 12 12 L 12 28 L 10 28 Z M 10 12 "/>
<path style=" stroke:none;fill-rule:nonzero;fill:rgb(95.294118%,71.764708%,85.09804%);fill-opacity:1;" d="M 20 12 L 22 12 L 22 28 L 20 28 Z M 20 12 "/>
<path style=" stroke:none;fill-rule:nonzero;fill:rgb(90.196079%,0.784314%,70.588237%);fill-opacity:1;" d="M 2 12 L 22 12 L 22 24.238281 L 2 24.238281 Z M 2 12 "/>
<path style=" stroke:none;fill-rule:nonzero;fill:rgb(100%,100%,100%);fill-opacity:1;" d="M 8.835938 20.445312 L 5.910156 20.445312 L 5.386719 22.019531 L 3.75 22.019531 L 6.523438 14.21875 L 8.300781 14.21875 L 10.996094 22.019531 L 9.347656 22.019531 Z M 8.394531 19.109375 L 7.378906 16.058594 L 6.363281 19.109375 Z M 8.394531 19.109375 "/>
<path style=" stroke:none;fill-rule:nonzero;fill:rgb(100%,100%,100%);fill-opacity:1;" d="M 20.25 19.773438 C 20.25 20.03125 20.207031 20.277344 20.121094 20.523438 C 20.035156 20.765625 19.898438 21.003906 19.703125 21.238281 C 19.519531 21.472656 19.238281 21.664062 18.859375 21.804688 C 18.480469 21.949219 18.03125 22.019531 17.511719 22.019531 L 14 22.019531 L 14 14.21875 L 17.476562 14.21875 C 17.964844 14.21875 18.378906 14.289062 18.730469 14.429688 C 19.085938 14.574219 19.351562 14.757812 19.523438 14.988281 C 19.699219 15.207031 19.828125 15.425781 19.90625 15.640625 C 19.988281 15.855469 20.027344 16.066406 20.027344 16.273438 C 20.027344 16.609375 19.945312 16.898438 19.78125 17.140625 C 19.617188 17.382812 19.339844 17.628906 18.957031 17.878906 C 19.820312 18.382812 20.25 19.015625 20.25 19.773438 Z M 15.605469 15.554688 L 15.605469 17.320312 L 17.347656 17.320312 C 18.105469 17.320312 18.484375 17.027344 18.484375 16.445312 C 18.484375 15.851562 18.105469 15.554688 17.347656 15.554688 Z M 15.605469 18.660156 L 15.605469 20.683594 L 17.519531 20.683594 C 18.3125 20.683594 18.707031 20.347656 18.707031 19.675781 C 18.707031 19 18.3125 18.660156 17.519531 18.660156 Z M 15.605469 18.660156 "/>
<path style=" stroke:none;fill-rule:nonzero;fill:rgb(61.56863%,22.745098%,60.784316%);fill-opacity:1;" d="M 20 10 L 30 10 L 30 12 L 20 12 Z M 20 10 "/>
<path style=" stroke:none;fill-rule:nonzero;fill:rgb(61.56863%,22.745098%,60.784316%);fill-opacity:1;" d="M 20 28 L 30 28 L 30 30 L 20 30 Z M 20 28 "/>
<path style=" stroke:none;fill-rule:nonzero;fill:rgb(61.56863%,22.745098%,60.784316%);fill-opacity:1;" d="M 26 12 L 26 28 L 24 28 L 24 12 Z M 26 12 "/>
</g>
</svg>
