<?xml version="1.0" encoding="UTF-8"?>
<svg xmlns="http://www.w3.org/2000/svg" xmlns:xlink="http://www.w3.org/1999/xlink" width="32px" height="32px" viewBox="0 0 32 32" version="1.1">
<g id="surface1">
<path style=" stroke:none;fill-rule:nonzero;fill:rgb(95.294118%,71.764708%,85.09804%);fill-opacity:1;" d="M 16 4 L 30 4 L 30 30 L 16 30 Z M 16 4 "/>
<path style=" stroke:none;fill-rule:nonzero;fill:rgb(94.117647%,89.019608%,92.54902%);fill-opacity:1;" d="M 16 10 L 30 10 L 30 30 L 16 30 Z M 16 10 "/>
<path style=" stroke:none;fill-rule:nonzero;fill:rgb(90.196079%,0.784314%,70.588237%);fill-opacity:1;" d="M 30 6 C 30 7.105469 29.105469 8 28 8 C 26.894531 8 26 7.105469 26 6 C 26 4.894531 26.894531 4 28 4 C 29.105469 4 30 4.894531 30 6 Z M 30 6 "/>
<path style=" stroke:none;fill-rule:nonzero;fill:rgb(90.196079%,0.784314%,70.588237%);fill-opacity:1;" d="M 24 6 C 24 7.105469 23.105469 8 22 8 C 20.894531 8 20 7.105469 20 6 C 20 4.894531 20.894531 4 22 4 C 23.105469 4 24 4.894531 24 6 Z M 24 6 "/>
<path style=" stroke:none;fill-rule:nonzero;fill:rgb(61.56863%,22.745098%,60.784316%);fill-opacity:1;" d="M 1.042969 12 L 20.957031 12 C 21.53125 12 22 12.46875 22 13.042969 L 22 22.957031 C 22 23.53125 21.53125 24 20.957031 24 L 1.042969 24 C 0.46875 24 0 23.53125 0 22.957031 L 0 13.042969 C 0 12.46875 0.46875 12 1.042969 12 Z M 1.042969 12 "/>
<path style=" stroke:none;fill-rule:nonzero;fill:rgb(95.294118%,71.764708%,85.09804%);fill-opacity:1;" d="M 3.042969 14 L 18.957031 14 C 19.53125 14 20 14.46875 20 15.042969 L 20 20.957031 C 20 21.53125 19.53125 22 18.957031 22 L 3.042969 22 C 2.46875 22 2 21.53125 2 20.957031 L 2 15.042969 C 2 14.46875 2.46875 14 3.042969 14 Z M 3.042969 14 "/>
<path style=" stroke:none;fill-rule:nonzero;fill:rgb(90.196079%,0.784314%,70.588237%);fill-opacity:1;" d="M 4.597656 16 L 17.402344 16 C 17.730469 16 18 16.269531 18 16.597656 L 18 19.402344 C 18 19.730469 17.730469 20 17.402344 20 L 4.597656 20 C 4.269531 20 4 19.730469 4 19.402344 L 4 16.597656 C 4 16.269531 4.269531 16 4.597656 16 Z M 4.597656 16 "/>
</g>
</svg>
