<?xml version="1.0" encoding="UTF-8"?>
<svg xmlns="http://www.w3.org/2000/svg" xmlns:xlink="http://www.w3.org/1999/xlink" width="32px" height="32px" viewBox="0 0 32 32" version="1.1">
<g id="surface1">
<path style=" stroke:none;fill-rule:nonzero;fill:rgb(61.56863%,22.745098%,60.784316%);fill-opacity:1;" d="M 30.351562 29.265625 L 30.351562 30 L 19.757812 30 L 19.757812 29.265625 C 20.867188 29.242188 21.628906 29.136719 22.042969 28.957031 C 22.460938 28.777344 22.667969 28.445312 22.667969 27.957031 C 22.667969 27.339844 22.40625 26.476562 21.878906 25.371094 L 20.175781 21.667969 L 9.289062 21.667969 L 7.378906 26.179688 C 7.160156 26.722656 7.046875 27.222656 7.046875 27.683594 C 7.046875 28.738281 7.988281 29.265625 9.871094 29.265625 L 9.871094 30 L 1.648438 30 L 1.648438 29.265625 C 2.671875 29.214844 3.460938 28.855469 4.015625 28.1875 C 4.597656 27.492188 5.523438 25.742188 6.796875 22.941406 L 15.4375 4 L 16.269531 4 L 26.613281 25.910156 C 27.277344 27.324219 27.832031 28.226562 28.277344 28.609375 C 28.71875 28.996094 29.410156 29.214844 30.351562 29.265625 Z M 9.996094 20.085938 L 19.59375 20.085938 L 14.773438 9.476562 Z M 9.996094 20.085938 "/>
</g>
</svg>
