<?xml version="1.0" encoding="UTF-8"?>
<svg xmlns="http://www.w3.org/2000/svg" xmlns:xlink="http://www.w3.org/1999/xlink" width="32px" height="32px" viewBox="0 0 32 32" version="1.1">
<g id="surface1">
<path style="fill:none;stroke-width:2.116667;stroke-linecap:round;stroke-linejoin:miter;stroke:rgb(90.196079%,0.784314%,70.588237%);stroke-opacity:1;stroke-miterlimit:4;" d="M -15.874999 270.541604 L -30.691667 270.541604 " transform="matrix(-0.944882,0,0,0.944882,0.00000180222,-248.629847)"/>
<path style="fill:none;stroke-width:2.116667;stroke-linecap:round;stroke-linejoin:miter;stroke:rgb(90.196079%,0.784314%,70.588237%);stroke-opacity:1;stroke-miterlimit:4;" d="M -15.874999 274.774938 L -26.458333 274.774938 " transform="matrix(-0.944882,0,0,0.944882,0.00000180222,-248.629847)"/>
<path style="fill:none;stroke-width:2.116667;stroke-linecap:round;stroke-linejoin:miter;stroke:rgb(90.196079%,0.784314%,70.588237%);stroke-opacity:1;stroke-miterlimit:4;" d="M -15.874999 270.541601 L -30.691666 270.541601 " transform="matrix(-0.944882,0,0,0.944882,0.00000203844,-234.629844)"/>
<path style="fill:none;stroke-width:2.116667;stroke-linecap:round;stroke-linejoin:miter;stroke:rgb(90.196079%,0.784314%,70.588237%);stroke-opacity:1;stroke-miterlimit:4;" d="M -15.874999 274.774935 L -26.458333 274.774935 " transform="matrix(-0.944882,0,0,0.944882,0.00000203844,-234.629844)"/>
<path style="fill-rule:nonzero;fill:rgb(90.196079%,0.784314%,70.588237%);fill-opacity:1;stroke-width:5.884334;stroke-linecap:round;stroke-linejoin:round;stroke:rgb(61.56863%,22.745098%,60.784316%);stroke-opacity:1;stroke-miterlimit:4;" d="M 8.104731 -272.992562 C 8.104731 -272.182276 7.443273 -271.524952 6.632986 -271.524952 C 5.818566 -271.524952 5.161241 -272.182276 5.161241 -272.992562 C 5.161241 -273.806983 5.818566 -274.464307 6.632986 -274.464307 C 7.443273 -274.464307 8.104731 -273.806983 8.104731 -272.992562 Z M 8.104731 -272.992562 " transform="matrix(0.944882,0,0,-0.944882,0.205268,-248.777744)"/>
<path style="fill-rule:nonzero;fill:rgb(95.294118%,71.764708%,85.09804%);fill-opacity:1;stroke-width:1;stroke-linecap:butt;stroke-linejoin:miter;stroke:rgb(61.56863%,22.745098%,60.784316%);stroke-opacity:1;stroke-miterlimit:4;" d="M 8.104731 272.992562 C 8.104731 273.806983 7.443273 274.464307 6.632986 274.464307 C 5.818566 274.464307 5.161241 273.806983 5.161241 272.992562 C 5.161241 272.182276 5.818566 271.524952 6.632986 271.524952 C 7.443273 271.524952 8.104731 272.182276 8.104731 272.992562 Z M 8.104731 272.992562 " transform="matrix(0.944882,0,0,0.944882,0.205268,-248.777744)"/>
<path style="fill-rule:nonzero;fill:rgb(95.294118%,71.764708%,85.09804%);fill-opacity:1;stroke-width:5.88383;stroke-linecap:round;stroke-linejoin:round;stroke:rgb(61.56863%,22.745098%,60.784316%);stroke-opacity:1;stroke-miterlimit:4;" d="M 8.101974 -272.992549 C 8.101974 -272.182263 7.444649 -271.524938 6.630229 -271.524938 C 5.819942 -271.524938 5.162618 -272.182263 5.162618 -272.992549 C 5.162618 -273.80697 5.819942 -274.464294 6.630229 -274.464294 C 7.444649 -274.464294 8.101974 -273.80697 8.101974 -272.992549 Z M 8.101974 -272.992549 " transform="matrix(0.944882,0,0,-0.944882,0.219592,-234.777731)"/>
<path style="fill-rule:nonzero;fill:rgb(95.294118%,71.764708%,85.09804%);fill-opacity:1;stroke-width:1;stroke-linecap:butt;stroke-linejoin:miter;stroke:rgb(61.56863%,22.745098%,60.784316%);stroke-opacity:1;stroke-miterlimit:4;" d="M 8.101974 272.992549 C 8.101974 273.80697 7.444649 274.464294 6.630229 274.464294 C 5.819942 274.464294 5.162618 273.80697 5.162618 272.992549 C 5.162618 272.182263 5.819942 271.524938 6.630229 271.524938 C 7.444649 271.524938 8.101974 272.182263 8.101974 272.992549 Z M 8.101974 272.992549 " transform="matrix(0.944882,0,0,0.944882,0.219592,-234.777731)"/>
</g>
</svg>
