<?xml version="1.0" encoding="UTF-8"?>
<svg xmlns="http://www.w3.org/2000/svg" xmlns:xlink="http://www.w3.org/1999/xlink" width="32px" height="32px" viewBox="0 0 32 32" version="1.1">
<defs>
<filter id="alpha" filterUnits="objectBoundingBox" x="0%" y="0%" width="100%" height="100%">
  <feColorMatrix type="matrix" in="SourceGraphic" values="0 0 0 0 1 0 0 0 0 1 0 0 0 0 1 0 0 0 1 0"/>
</filter>
<mask id="mask0">
  <g filter="url(#alpha)">
<rect x="0" y="0" width="32" height="32" style="fill:rgb(0%,0%,0%);fill-opacity:0.764706;stroke:none;"/>
  </g>
</mask>
<clipPath id="clip1">
  <rect x="0" y="0" width="32" height="32"/>
</clipPath>
<g id="surface5" clip-path="url(#clip1)">
<path style=" stroke:none;fill-rule:nonzero;fill:rgb(100%,100%,100%);fill-opacity:1;" d="M 2 28 L 30 28 L 30 32 L 2 32 Z M 2 28 "/>
</g>
</defs>
<g id="surface1">
<use xlink:href="#surface5" mask="url(#mask0)"/>
<path style=" stroke:none;fill-rule:nonzero;fill:rgb(100%,100%,99.215686%);fill-opacity:1;" d="M 2 0 L 30 0 L 30 28 L 2 28 Z M 2 0 "/>
<path style=" stroke:none;fill-rule:nonzero;fill:rgb(94.117647%,89.019608%,92.54902%);fill-opacity:1;" d="M 2 28 L 0 28 L 0 32 L 2 32 Z M 2 28 "/>
<path style=" stroke:none;fill-rule:nonzero;fill:rgb(94.117647%,89.019608%,92.54902%);fill-opacity:1;" d="M 12.050781 12.90625 L 29.949219 12.90625 C 29.976562 12.90625 30 12.976562 30 13.0625 L 30 27.84375 C 30 27.929688 29.976562 28 29.949219 28 L 12.050781 28 C 12.023438 28 12 27.929688 12 27.84375 L 12 13.0625 C 12 12.976562 12.023438 12.90625 12.050781 12.90625 Z M 12.050781 12.90625 "/>
<path style=" stroke:none;fill-rule:nonzero;fill:rgb(94.117647%,89.019608%,92.54902%);fill-opacity:1;" d="M 12.050781 32 L 29.949219 32 C 29.976562 32 30 31.976562 30 31.949219 L 30 27.050781 C 30 27.023438 29.976562 27 29.949219 27 L 12.050781 27 C 12.023438 27 12 27.023438 12 27.050781 L 12 31.949219 C 12 31.976562 12.023438 32 12.050781 32 Z M 12.050781 32 "/>
<path style=" stroke:none;fill-rule:nonzero;fill:rgb(95.294118%,71.764708%,85.09804%);fill-opacity:1;" d="M 22 27 L 20 27 L 20 32 L 22 32 Z M 22 27 "/>
<path style=" stroke:none;fill-rule:nonzero;fill:rgb(95.294118%,71.764708%,85.09804%);fill-opacity:1;" d="M 30 27 L 32 27 L 32 32 L 30 32 Z M 30 27 "/>
<path style=" stroke:none;fill-rule:nonzero;fill:rgb(95.294118%,71.764708%,85.09804%);fill-opacity:1;" d="M 12 27 L 10 27 L 10 32 L 12 32 Z M 12 27 "/>
<path style=" stroke:none;fill-rule:nonzero;fill:rgb(94.117647%,89.019608%,92.54902%);fill-opacity:1;" d="M 0 0 L 0 21 L 0.0507812 21 C 0.0234375 21 0 21.027344 0 21.0625 L 0 27.9375 C 0 27.972656 0.0234375 28 0.0507812 28 L 1.949219 28 C 1.976562 28 2 27.972656 2 27.9375 L 2 27.957031 C 2 27.980469 2.023438 28 2.050781 28 L 9.949219 28 C 9.976562 28 10 27.980469 10 27.957031 L 10 26.660156 C 10 26.636719 9.976562 26.617188 9.949219 26.617188 L 2.050781 26.617188 C 2.023438 26.617188 2 26.636719 2 26.660156 L 2 21.0625 C 2 21.027344 1.976562 21 1.949219 21 L 10 21 L 12 20 L 32 20 L 32 0 Z M 2 1 L 10 1 L 10 6 L 2 6 Z M 12 1 L 20 1 L 20 6 L 12 6 Z M 22 1 L 30 1 L 30 6 L 22 6 Z M 2 7 L 10 7 L 10 12 L 2 12 Z M 12 7 L 20 7 L 20 12 L 12 12 Z M 22 7 L 30 7 L 30 12 L 22 12 Z M 2 13 L 10 13 L 10 19.578125 L 2 19.578125 Z M 12 13 L 20 13 L 20 19.578125 L 12 19.578125 Z M 22 13 L 30 13 L 30 19.578125 L 22 19.578125 Z M 22 13 "/>
<path style=" stroke:none;fill-rule:nonzero;fill:rgb(95.294118%,71.764708%,85.09804%);fill-opacity:1;" d="M 10.050781 12 C 10.023438 12 10 12.027344 10 12.0625 L 10 18.855469 C 10 18.890625 10.023438 18.917969 10.050781 18.917969 L 12 18.917969 L 12 13 L 20 13 L 20 18.917969 L 22 18.917969 L 22 13 L 30 13 L 30 18.917969 L 31.945312 18.917969 C 31.972656 18.917969 31.996094 18.890625 31.996094 18.855469 L 31.996094 12.0625 C 31.996094 12.027344 31.972656 12 31.945312 12 Z M 10.035156 19 C 10.015625 19 10 19.027344 10 19.0625 L 10 27.9375 C 10 27.972656 10.015625 28.003906 10.035156 28 L 31.964844 28 C 31.984375 28 32 27.972656 32 27.9375 L 32 19.0625 C 32 19.027344 31.984375 19 31.964844 19 Z M 12 21 L 20 21 L 20 26.578125 L 12 26.578125 Z M 22 21 L 30 21 L 30 26.578125 L 22 26.578125 Z M 22 21 "/>
<path style=" stroke:none;fill-rule:nonzero;fill:rgb(90.196079%,0.784314%,70.588237%);fill-opacity:1;" d="M 4.191406 3.96875 L 21.960938 3.96875 C 21.980469 3.96875 22 4 22 4.039062 L 22 9.847656 C 22 9.886719 21.980469 9.917969 21.960938 9.917969 L 4.191406 9.917969 C 4.167969 9.917969 4.148438 9.886719 4.148438 9.847656 L 4.148438 4.039062 C 4.148438 4 4.167969 3.96875 4.191406 3.96875 Z M 4.191406 3.96875 "/>
<path style=" stroke:none;fill-rule:nonzero;fill:rgb(95.294118%,71.764708%,85.09804%);fill-opacity:1;" d="M 6.167969 5.949219 L 19.984375 5.949219 C 20 5.949219 20.015625 5.976562 20.015625 6.007812 L 20.015625 9.859375 C 20.015625 9.890625 20 9.917969 19.984375 9.917969 L 6.167969 9.917969 C 6.148438 9.917969 6.132812 9.890625 6.132812 9.859375 L 6.132812 6.007812 C 6.132812 5.976562 6.148438 5.949219 6.167969 5.949219 Z M 6.167969 5.949219 "/>
<path style=" stroke:none;fill-rule:nonzero;fill:rgb(61.56863%,22.745098%,60.784316%);fill-opacity:0.996078;" d="M 8.15625 0 L 17.992188 0 C 18.015625 0 18.03125 0.0273438 18.03125 0.0625 L 18.03125 11.835938 C 18.03125 11.871094 18.015625 11.902344 17.992188 11.902344 L 8.15625 11.902344 C 8.132812 11.902344 8.117188 11.871094 8.117188 11.835938 L 8.117188 0.0625 C 8.117188 0.0273438 8.132812 0 8.15625 0 Z M 8.15625 0 "/>
<path style=" stroke:none;fill-rule:nonzero;fill:rgb(11.372549%,11.372549%,11.372549%);fill-opacity:1;" d="M 2.964844 13.636719 L 22.660156 13.636719 C 23.550781 13.636719 24.273438 12.914062 24.273438 12.023438 L 24.273438 10.558594 C 24.273438 9.671875 23.550781 8.949219 22.660156 8.949219 L 2.964844 8.949219 C 2.074219 8.949219 1.355469 9.671875 1.355469 10.558594 L 1.355469 12.023438 C 1.355469 12.914062 2.074219 13.636719 2.964844 13.636719 Z M 2.964844 13.636719 "/>
<path style=" stroke:none;fill-rule:nonzero;fill:rgb(61.56863%,22.745098%,60.784316%);fill-opacity:1;" d="M 0.230469 7.933594 L 25.917969 7.933594 C 25.945312 7.933594 25.96875 7.96875 25.96875 8.011719 L 25.96875 20.59375 C 25.96875 20.632812 25.945312 20.667969 25.917969 20.667969 L 0.230469 20.667969 C 0.203125 20.667969 0.183594 20.632812 0.183594 20.59375 L 0.183594 8.011719 C 0.183594 7.96875 0.203125 7.933594 0.230469 7.933594 Z M 0.230469 7.933594 "/>
<path style=" stroke:none;fill-rule:nonzero;fill:rgb(95.294118%,71.764708%,85.09804%);fill-opacity:1;" d="M 2.835938 14.027344 L 23.363281 14.027344 C 24.21875 14.027344 24.910156 13.691406 24.910156 13.28125 L 24.910156 8.765625 C 24.910156 8.355469 24.21875 8.023438 23.363281 8.023438 L 2.835938 8.023438 C 1.980469 8.023438 1.289062 8.355469 1.289062 8.765625 L 1.289062 13.28125 C 1.289062 13.691406 1.980469 14.027344 2.835938 14.027344 Z M 2.835938 14.027344 "/>
<path style=" stroke:none;fill-rule:nonzero;fill:rgb(94.117647%,89.019608%,92.54902%);fill-opacity:1;" d="M 1.335938 11.902344 L 24.910156 11.902344 C 24.9375 11.902344 24.957031 11.925781 24.957031 11.957031 L 24.957031 19.625 C 24.957031 19.65625 24.9375 19.679688 24.910156 19.679688 L 1.335938 19.679688 C 1.308594 19.679688 1.289062 19.65625 1.289062 19.625 L 1.289062 11.957031 C 1.289062 11.925781 1.308594 11.902344 1.335938 11.902344 Z M 1.335938 11.902344 "/>
<path style=" stroke:none;fill-rule:nonzero;fill:rgb(61.56863%,22.745098%,60.784316%);fill-opacity:1;" d="M 3.144531 8.855469 L 22.796875 8.855469 C 22.820312 8.855469 22.84375 8.886719 22.84375 8.925781 L 22.84375 12.734375 C 22.84375 12.773438 22.820312 12.804688 22.796875 12.804688 L 3.144531 12.804688 C 3.121094 12.804688 3.097656 12.773438 3.097656 12.734375 L 3.097656 8.925781 C 3.097656 8.886719 3.121094 8.855469 3.144531 8.855469 Z M 3.144531 8.855469 "/>
<path style=" stroke:none;fill-rule:nonzero;fill:rgb(94.117647%,89.019608%,92.54902%);fill-opacity:1;" d="M 10.136719 1.984375 L 16.015625 1.984375 C 16.035156 1.984375 16.050781 2.007812 16.050781 2.039062 L 16.050781 9.859375 C 16.050781 9.890625 16.035156 9.917969 16.015625 9.917969 L 10.136719 9.917969 C 10.113281 9.917969 10.097656 9.890625 10.097656 9.859375 L 10.097656 2.039062 C 10.097656 2.007812 10.113281 1.984375 10.136719 1.984375 Z M 10.136719 1.984375 "/>
<path style="fill-rule:nonzero;fill:rgb(61.56863%,22.745098%,60.784316%);fill-opacity:1;stroke-width:3;stroke-linecap:square;stroke-linejoin:round;stroke:rgb(90.196079%,0.784314%,70.588237%);stroke-opacity:1;stroke-miterlimit:4;" d="M 19.884618 39.034132 L 107.493285 39.034132 C 107.609632 39.034132 107.687196 39.18926 107.687196 39.38317 L 108.191362 61.353206 C 108.191362 61.547116 108.055625 61.605289 107.997452 61.702244 L 100.551297 71.688624 L 100.919727 77.699843 L 27.46651 77.699843 L 27.83494 71.688624 L 20.369394 61.702244 C 20.311221 61.605289 20.194875 61.547116 20.194875 61.353206 L 19.690708 39.38317 C 19.690708 39.18926 19.768272 39.034132 19.884618 39.034132 Z M 19.884618 39.034132 " transform="matrix(0.201446,0,0,0.201446,0.181818,0.00000175)"/>
<path style=" stroke:none;fill-rule:evenodd;fill:rgb(90.196079%,0.784314%,70.588237%);fill-opacity:1;" d="M 4.148438 17.851562 L 4.148438 25.785156 L 22 25.785156 L 22 17.851562 Z M 4.148438 17.851562 "/>
<path style=" stroke:none;fill-rule:evenodd;fill:rgb(94.117647%,89.019608%,92.54902%);fill-opacity:1;" d="M 6.132812 19.835938 L 6.132812 23.800781 L 20.015625 23.800781 L 20.015625 19.835938 Z M 6.132812 19.835938 "/>
<path style=" stroke:none;fill-rule:nonzero;fill:rgb(61.56863%,22.745098%,60.784316%);fill-opacity:1;" d="M 4.191406 15.867188 L 21.957031 15.867188 C 21.980469 15.867188 22 15.890625 22 15.921875 L 22 19.78125 C 22 19.8125 21.980469 19.835938 21.957031 19.835938 L 4.191406 19.835938 C 4.167969 19.835938 4.148438 19.8125 4.148438 19.78125 L 4.148438 15.921875 C 4.148438 15.890625 4.167969 15.867188 4.191406 15.867188 Z M 4.191406 15.867188 "/>
<path style=" stroke:none;fill-rule:nonzero;fill:rgb(95.294118%,71.764708%,85.09804%);fill-opacity:1;" d="M 10.699219 13.699219 L 15.449219 13.699219 C 15.472656 13.699219 15.492188 13.714844 15.492188 13.730469 L 15.492188 15.277344 C 15.492188 15.292969 15.472656 15.308594 15.449219 15.308594 L 10.699219 15.308594 C 10.675781 15.308594 10.65625 15.292969 10.65625 15.277344 L 10.65625 13.730469 C 10.65625 13.714844 10.675781 13.699219 10.699219 13.699219 Z M 10.699219 13.699219 "/>
<path style=" stroke:none;fill-rule:nonzero;fill:rgb(95.294118%,71.764708%,85.09804%);fill-opacity:1;" d="M 6.1875 7.933594 L 19.960938 7.933594 C 19.992188 7.933594 20.015625 7.992188 20.015625 8.0625 L 20.015625 11.773438 C 20.015625 11.84375 19.992188 11.902344 19.960938 11.902344 L 6.1875 11.902344 C 6.15625 11.902344 6.132812 11.84375 6.132812 11.773438 L 6.132812 8.0625 C 6.132812 7.992188 6.15625 7.933594 6.1875 7.933594 Z M 6.1875 7.933594 "/>
<path style=" stroke:none;fill-rule:nonzero;fill:rgb(94.117647%,89.019608%,92.54902%);fill-opacity:1;" d="M 8.167969 7.933594 L 17.855469 7.933594 C 17.886719 7.933594 17.910156 7.980469 17.910156 8.039062 L 17.910156 11.175781 C 17.910156 11.234375 17.886719 11.28125 17.855469 11.28125 L 8.167969 11.28125 C 8.140625 11.28125 8.117188 11.234375 8.117188 11.175781 L 8.117188 8.039062 C 8.117188 7.980469 8.140625 7.933594 8.167969 7.933594 Z M 8.167969 7.933594 "/>
<path style=" stroke:none;fill-rule:nonzero;fill:rgb(95.294118%,71.764708%,85.09804%);fill-opacity:1;" d="M 10.152344 7.933594 L 15.996094 7.933594 C 16.027344 7.933594 16.050781 7.957031 16.050781 7.988281 L 16.050781 9.863281 C 16.050781 9.894531 16.027344 9.917969 15.996094 9.917969 L 10.152344 9.917969 C 10.121094 9.917969 10.097656 9.894531 10.097656 9.863281 L 10.097656 7.988281 C 10.097656 7.957031 10.121094 7.933594 10.152344 7.933594 Z M 10.152344 7.933594 "/>
<path style=" stroke:none;fill-rule:evenodd;fill:rgb(95.294118%,71.764708%,85.09804%);fill-opacity:1;" d="M 5.824219 17.664062 L 5.824219 16.117188 L 20.328125 16.117188 L 20.328125 17.664062 Z M 5.824219 17.664062 "/>
</g>
</svg>
