<?xml version="1.0" encoding="UTF-8"?>
<svg xmlns="http://www.w3.org/2000/svg" xmlns:xlink="http://www.w3.org/1999/xlink" width="32px" height="32px" viewBox="0 0 32 32" version="1.1">
<defs>
<filter id="alpha" filterUnits="objectBoundingBox" x="0%" y="0%" width="100%" height="100%">
  <feColorMatrix type="matrix" in="SourceGraphic" values="0 0 0 0 1 0 0 0 0 1 0 0 0 0 1 0 0 0 1 0"/>
</filter>
<mask id="mask0">
  <g filter="url(#alpha)">
<rect x="0" y="0" width="32" height="32" style="fill:rgb(0%,0%,0%);fill-opacity:0.380531;stroke:none;"/>
  </g>
</mask>
<clipPath id="clip1">
  <rect x="0" y="0" width="32" height="32"/>
</clipPath>
<g id="surface5" clip-path="url(#clip1)">
<path style=" stroke:none;fill-rule:nonzero;fill:rgb(61.56863%,22.745098%,60.784316%);fill-opacity:1;" d="M 14 8.003906 L 18 8.003906 L 18 4.003906 L 14 4.003906 Z M 14 8.003906 "/>
</g>
<mask id="mask1">
  <g filter="url(#alpha)">
<rect x="0" y="0" width="32" height="32" style="fill:rgb(0%,0%,0%);fill-opacity:0.367257;stroke:none;"/>
  </g>
</mask>
<clipPath id="clip2">
  <rect x="0" y="0" width="32" height="32"/>
</clipPath>
<g id="surface8" clip-path="url(#clip2)">
<path style=" stroke:none;fill-rule:evenodd;fill:rgb(90.196079%,0.784314%,70.588237%);fill-opacity:0.508571;" d="M 24 10.015625 L 24 12.015625 L 8 12.015625 L 8 10.015625 Z M 24 10.015625 "/>
</g>
<mask id="mask2">
  <g filter="url(#alpha)">
<rect x="0" y="0" width="32" height="32" style="fill:rgb(0%,0%,0%);fill-opacity:0.367257;stroke:none;"/>
  </g>
</mask>
<clipPath id="clip3">
  <rect x="0" y="0" width="32" height="32"/>
</clipPath>
<g id="surface11" clip-path="url(#clip3)">
<path style=" stroke:none;fill-rule:evenodd;fill:rgb(29.803923%,60.392159%,76.47059%);fill-opacity:0.508571;" d="M 24 14.003906 L 24 16.003906 L 8 16.003906 L 8 14.003906 Z M 24 14.003906 "/>
</g>
<mask id="mask3">
  <g filter="url(#alpha)">
<rect x="0" y="0" width="32" height="32" style="fill:rgb(0%,0%,0%);fill-opacity:0.367257;stroke:none;"/>
  </g>
</mask>
<clipPath id="clip4">
  <rect x="0" y="0" width="32" height="32"/>
</clipPath>
<g id="surface14" clip-path="url(#clip4)">
<path style=" stroke:none;fill-rule:evenodd;fill:rgb(29.803923%,60.392159%,76.47059%);fill-opacity:0.508571;" d="M 24 18.003906 L 24 20.003906 L 8 20.003906 L 8 18.003906 Z M 24 18.003906 "/>
</g>
<mask id="mask4">
  <g filter="url(#alpha)">
<rect x="0" y="0" width="32" height="32" style="fill:rgb(0%,0%,0%);fill-opacity:0.367257;stroke:none;"/>
  </g>
</mask>
<clipPath id="clip5">
  <rect x="0" y="0" width="32" height="32"/>
</clipPath>
<g id="surface17" clip-path="url(#clip5)">
<path style=" stroke:none;fill-rule:evenodd;fill:rgb(29.803923%,60.392159%,76.47059%);fill-opacity:0.508571;" d="M 24 22.003906 L 24 24.003906 L 8 24.003906 L 8 22.003906 Z M 24 22.003906 "/>
</g>
<mask id="mask5">
  <g filter="url(#alpha)">
<rect x="0" y="0" width="32" height="32" style="fill:rgb(0%,0%,0%);fill-opacity:0.367257;stroke:none;"/>
  </g>
</mask>
<clipPath id="clip6">
  <rect x="0" y="0" width="32" height="32"/>
</clipPath>
<g id="surface20" clip-path="url(#clip6)">
<path style=" stroke:none;fill-rule:evenodd;fill:rgb(29.803923%,60.392159%,76.47059%);fill-opacity:0.508571;" d="M 24 26.003906 L 24 28.003906 L 8 28.003906 L 8 26.003906 Z M 24 26.003906 "/>
</g>
<mask id="mask6">
  <g filter="url(#alpha)">
<rect x="0" y="0" width="32" height="32" style="fill:rgb(0%,0%,0%);fill-opacity:0.380531;stroke:none;"/>
  </g>
</mask>
<clipPath id="clip7">
  <rect x="0" y="0" width="32" height="32"/>
</clipPath>
<g id="surface23" clip-path="url(#clip7)">
<path style=" stroke:none;fill-rule:nonzero;fill:rgb(61.56863%,22.745098%,60.784316%);fill-opacity:1;" d="M 14 12.003906 L 18 12.003906 L 18 8.003906 L 14 8.003906 Z M 14 12.003906 "/>
</g>
<mask id="mask7">
  <g filter="url(#alpha)">
<rect x="0" y="0" width="32" height="32" style="fill:rgb(0%,0%,0%);fill-opacity:0.367257;stroke:none;"/>
  </g>
</mask>
<clipPath id="clip8">
  <rect x="0" y="0" width="32" height="32"/>
</clipPath>
<g id="surface26" clip-path="url(#clip8)">
<path style=" stroke:none;fill-rule:evenodd;fill:rgb(90.196079%,0.784314%,70.588237%);fill-opacity:0.508571;" d="M 24 14.015625 L 24 16.015625 L 8 16.015625 L 8 14.015625 Z M 24 14.015625 "/>
</g>
<mask id="mask8">
  <g filter="url(#alpha)">
<rect x="0" y="0" width="32" height="32" style="fill:rgb(0%,0%,0%);fill-opacity:0.367257;stroke:none;"/>
  </g>
</mask>
<clipPath id="clip9">
  <rect x="0" y="0" width="32" height="32"/>
</clipPath>
<g id="surface29" clip-path="url(#clip9)">
<path style=" stroke:none;fill-rule:evenodd;fill:rgb(90.196079%,0.784314%,70.588237%);fill-opacity:0.508571;" d="M 24 18.003906 L 24 20.003906 L 8 20.003906 L 8 18.003906 Z M 24 18.003906 "/>
</g>
<mask id="mask9">
  <g filter="url(#alpha)">
<rect x="0" y="0" width="32" height="32" style="fill:rgb(0%,0%,0%);fill-opacity:0.367257;stroke:none;"/>
  </g>
</mask>
<clipPath id="clip10">
  <rect x="0" y="0" width="32" height="32"/>
</clipPath>
<g id="surface32" clip-path="url(#clip10)">
<path style=" stroke:none;fill-rule:evenodd;fill:rgb(90.196079%,0.784314%,70.588237%);fill-opacity:0.508571;" d="M 24 22.003906 L 24 24.003906 L 8 24.003906 L 8 22.003906 Z M 24 22.003906 "/>
</g>
</defs>
<g id="surface1">
<path style=" stroke:none;fill-rule:evenodd;fill:rgb(94.117647%,89.019608%,92.54902%);fill-opacity:1;" d="M 3 19.753906 L 7 6.003906 L 25 6.003906 L 29 19.753906 L 29 20.667969 L 28 28.003906 L 4 28.003906 L 3 20.667969 Z M 3 19.753906 "/>
<path style=" stroke:none;fill-rule:evenodd;fill:rgb(95.294118%,71.764708%,85.09804%);fill-opacity:1;" d="M 3 20.003906 L 7 6.003906 L 25 6.003906 L 29 20.003906 L 28 20.003906 L 24.5 7.003906 L 7.5 7.003906 L 4 20.003906 Z M 3 20.003906 "/>
<path style=" stroke:none;fill-rule:nonzero;fill:rgb(90.196079%,0.784314%,70.588237%);fill-opacity:1;" d="M 16 2.136719 L 13.613281 2.148438 C 13.21875 2.148438 12.691406 2.28125 11.964844 3.003906 C 9.878906 5.074219 8.414062 6.492188 6.707031 8.230469 C 6.132812 8.816406 6 9.292969 6 9.828125 L 6 30.003906 L 15.941406 30.003906 L 15.941406 30.011719 L 26 30.003906 L 26 9.828125 C 26 9.292969 25.867188 8.816406 25.292969 8.230469 C 23.585938 6.492188 22.121094 5.074219 20.035156 3.003906 C 19.308594 2.28125 18.78125 2.148438 18.386719 2.148438 L 16 2.144531 Z M 16 2.136719 "/>
<path style=" stroke:none;fill-rule:nonzero;fill:rgb(94.117647%,89.019608%,92.54902%);fill-opacity:1;" d="M 14.085938 3.570312 C 13.691406 3.589844 13.386719 3.75 13.109375 3.941406 C 12.863281 4.011719 10.113281 7.105469 7.964844 9.269531 C 7.644531 9.589844 7.449219 10.199219 7.449219 10.421875 L 7.449219 28.429688 C 7.449219 28.492188 7.488281 28.546875 7.566406 28.546875 L 15.941406 28.546875 L 15.941406 28.554688 L 24.375 28.554688 C 24.453125 28.554688 24.492188 28.5 24.492188 28.4375 L 24.492188 10.429688 C 24.492188 10.207031 24.296875 9.601562 23.976562 9.277344 C 21.828125 7.113281 19.078125 4.019531 18.832031 3.949219 C 18.554688 3.761719 18.246094 3.597656 17.851562 3.578125 L 17.636719 3.578125 C 17.566406 3.582031 17.457031 3.582031 17.453125 3.582031 L 16 3.582031 L 16 3.574219 L 14.488281 3.574219 C 14.480469 3.574219 14.375 3.570312 14.304688 3.570312 Z M 14.085938 3.570312 "/>
<use xlink:href="#surface5" mask="url(#mask0)"/>
<use xlink:href="#surface8" mask="url(#mask1)"/>
<use xlink:href="#surface11" mask="url(#mask2)"/>
<use xlink:href="#surface14" mask="url(#mask3)"/>
<use xlink:href="#surface17" mask="url(#mask4)"/>
<use xlink:href="#surface20" mask="url(#mask5)"/>
<path style=" stroke:none;fill-rule:nonzero;fill:rgb(61.56863%,22.745098%,60.784316%);fill-opacity:1;" d="M 16 6.136719 L 13.613281 6.148438 C 13.21875 6.148438 12.691406 6.28125 11.964844 7.003906 C 9.878906 9.074219 8.414062 10.492188 6.707031 12.230469 C 6.132812 12.816406 6 13.292969 6 13.828125 L 6 28.003906 L 26 28.003906 L 26 13.828125 C 26 13.292969 25.867188 12.816406 25.292969 12.230469 C 23.585938 10.492188 22.121094 9.074219 20.035156 7.003906 C 19.308594 6.28125 18.78125 6.148438 18.386719 6.148438 L 16 6.144531 Z M 16 6.136719 "/>
<path style=" stroke:none;fill-rule:nonzero;fill:rgb(94.117647%,89.019608%,92.54902%);fill-opacity:1;" d="M 14.085938 7.570312 C 13.691406 7.589844 13.386719 7.75 13.109375 7.941406 C 12.863281 8.011719 10.113281 11.105469 7.964844 13.269531 C 7.644531 13.589844 7.449219 14.199219 7.449219 14.421875 L 7.449219 28.003906 L 24.492188 28.003906 L 24.492188 14.429688 C 24.492188 14.207031 24.296875 13.601562 23.976562 13.277344 C 21.828125 11.113281 19.078125 8.019531 18.832031 7.949219 C 18.554688 7.761719 18.246094 7.597656 17.851562 7.578125 L 17.636719 7.578125 C 17.566406 7.582031 17.457031 7.582031 17.453125 7.582031 L 16 7.582031 L 16 7.574219 L 14.488281 7.574219 C 14.480469 7.574219 14.375 7.570312 14.304688 7.570312 Z M 14.085938 7.570312 "/>
<use xlink:href="#surface23" mask="url(#mask6)"/>
<use xlink:href="#surface26" mask="url(#mask7)"/>
<use xlink:href="#surface29" mask="url(#mask8)"/>
<use xlink:href="#surface32" mask="url(#mask9)"/>
<path style=" stroke:none;fill-rule:evenodd;fill:rgb(95.294118%,71.764708%,85.09804%);fill-opacity:1;" d="M 2.984375 21.117188 L 2.984375 22.117188 L 15.984375 29.117188 L 28.984375 22.117188 L 28.984375 21.117188 L 24.984375 21.117188 L 20.984375 25.117188 L 10.984375 25.117188 L 6.984375 21.117188 Z M 2.984375 21.117188 "/>
<path style=" stroke:none;fill-rule:evenodd;fill:rgb(90.196079%,0.784314%,70.588237%);fill-opacity:1;" d="M 2.984375 22.117188 L 3.984375 30.117188 L 27.984375 30.117188 L 28.984375 22.117188 L 24.984375 22.117188 L 20.984375 26.117188 L 10.984375 26.117188 L 6.984375 22.117188 Z M 2.984375 22.117188 "/>
<path style=" stroke:none;fill-rule:evenodd;fill:rgb(90.196079%,0.784314%,70.588237%);fill-opacity:1;" d="M 6.984375 22.117188 L 6.984375 21.117188 L 10.984375 25.117188 L 10.984375 26.117188 Z M 6.984375 22.117188 "/>
<path style=" stroke:none;fill-rule:evenodd;fill:rgb(61.56863%,22.745098%,60.784316%);fill-opacity:1;" d="M 2.984375 22.117188 L 3.234375 24.117188 L 6.984375 24.117188 L 10.984375 28.117188 L 20.984375 28.117188 L 24.984375 24.117188 L 28.734375 24.117188 L 28.984375 22.117188 L 24.984375 22.117188 L 20.984375 26.117188 L 10.984375 26.117188 L 6.984375 22.117188 Z M 2.984375 22.117188 "/>
</g>
</svg>
