<?xml version="1.0" encoding="UTF-8"?>
<svg xmlns="http://www.w3.org/2000/svg" xmlns:xlink="http://www.w3.org/1999/xlink" width="32px" height="32px" viewBox="0 0 32 32" version="1.1">
<g id="surface1">
<path style=" stroke:none;fill-rule:nonzero;fill:rgb(33.333334%,34.117648%,32.549021%);fill-opacity:1;" d="M 1.167969 8.015625 C 0.515625 8.007812 -0.0195312 8.535156 -0.0195312 9.1875 L -0.0195312 22.84375 C -0.0195312 23.792969 1.050781 24.347656 1.828125 23.800781 L 11.484375 16.972656 C 12.144531 16.503906 12.144531 15.527344 11.484375 15.058594 L 1.828125 8.230469 C 1.636719 8.09375 1.40625 8.019531 1.167969 8.015625 Z M 20.375 18 C 19.050781 18 18 19.097656 18 20.4375 L 18 29.5625 C 18 30.902344 19.050781 32 20.375 32 L 30 32 C 31.324219 32 32 30.902344 32 29.5625 L 32 20.4375 C 32 19.097656 31.324219 18 30 18 Z M 20 20 L 22 20 L 25 23 L 28 20 L 30 20 L 30 22 L 27 25 L 30 28 L 30 30 L 28 30 L 25 27 L 22 30 L 20 30 L 20 28 L 23 25 L 20 22 Z M 20 20 "/>
</g>
</svg>
