<?xml version="1.0" encoding="UTF-8"?>
<svg xmlns="http://www.w3.org/2000/svg" xmlns:xlink="http://www.w3.org/1999/xlink" width="32px" height="32px" viewBox="0 0 32 32" version="1.1">
<g id="surface1">
<path style=" stroke:none;fill-rule:nonzero;fill:rgb(33.333334%,34.117648%,32.549021%);fill-opacity:1;" d="M 4 4 C 2.890625 4 2 4.890625 2 6 L 2 30 L 6 26 L 6 30 L 12 24 L 14 24 L 14 20 L 6 20 L 6 8 L 26 8 L 26 14 L 30 14 L 30 6 C 30 4.890625 29.109375 4 28 4 Z M 24 16 C 19.601562 16 16 19.601562 16 24 C 16 28.398438 19.601562 32 24 32 C 28.398438 32 32 28.398438 32 24 C 32 19.601562 28.398438 16 24 16 Z M 18 22 L 30 22 L 30 26 L 18 26 Z M 18 22 "/>
</g>
</svg>
