<?xml version="1.0" encoding="UTF-8"?>
<svg xmlns="http://www.w3.org/2000/svg" xmlns:xlink="http://www.w3.org/1999/xlink" width="32px" height="32px" viewBox="0 0 32 32" version="1.1">
<defs>
<filter id="alpha" filterUnits="objectBoundingBox" x="0%" y="0%" width="100%" height="100%">
  <feColorMatrix type="matrix" in="SourceGraphic" values="0 0 0 0 1 0 0 0 0 1 0 0 0 0 1 0 0 0 1 0"/>
</filter>
<mask id="mask0">
  <g filter="url(#alpha)">
<rect x="0" y="0" width="32" height="32" style="fill:rgb(0%,0%,0%);fill-opacity:0.35;stroke:none;"/>
  </g>
</mask>
<clipPath id="clip1">
  <rect x="0" y="0" width="32" height="32"/>
</clipPath>
<g id="surface5" clip-path="url(#clip1)">
<path style=" stroke:none;fill-rule:nonzero;fill:rgb(33.333334%,34.117648%,32.549021%);fill-opacity:1;" d="M 4 10 L 4 22 L 28 22 L 28 10 Z M 4 10 "/>
</g>
</defs>
<g id="surface1">
<use xlink:href="#surface5" mask="url(#mask0)"/>
<path style=" stroke:none;fill-rule:nonzero;fill:rgb(33.333334%,34.117648%,32.549021%);fill-opacity:1;" d="M 2 2 L 2 30 L 30 30 L 30 2 Z M 4 4 L 10 4 L 10 8 L 4 8 Z M 12 4 L 20 4 L 20 8 L 12 8 Z M 22 4 L 28 4 L 28 8 L 22 8 Z M 4 10 L 28 10 L 28 22 L 4 22 Z M 10 14 L 10 18 L 22 18 L 22 14 Z M 4 24 L 10 24 L 10 28 L 4 28 Z M 12 24 L 20 24 L 20 28 L 12 28 Z M 22 24 L 28 24 L 28 28 L 22 28 Z M 22 24 "/>
</g>
</svg>
