<?xml version="1.0" encoding="UTF-8"?>
<svg xmlns="http://www.w3.org/2000/svg" xmlns:xlink="http://www.w3.org/1999/xlink" width="32px" height="32px" viewBox="0 0 32 32" version="1.1">
<g id="surface1">
<path style=" stroke:none;fill-rule:nonzero;fill:rgb(33.333334%,34.117648%,32.549021%);fill-opacity:1;" d="M 2 6 L 2 26 L 14.199219 26 C 14.066406 25.339844 14 24.671875 14 24 C 14 20.851562 15.480469 17.886719 18 16 C 19.730469 14.703125 21.835938 14 24 14 L 6 14 L 6 10 L 26 10 L 26 14 L 24 14 C 26.164062 14 28.269531 14.703125 30 16 L 30 6 Z M 6 16 L 14 16 L 14 22 L 6 22 Z M 24 16 C 19.601562 16 16 19.601562 16 24 C 16 28.398438 19.601562 32 24 32 C 28.398438 32 32 28.398438 32 24 C 32 19.601562 28.398438 16 24 16 Z M 18 22 L 30 22 L 30 26 L 18 26 Z M 18 22 "/>
</g>
</svg>
