<?xml version="1.0" encoding="UTF-8"?>
<svg xmlns="http://www.w3.org/2000/svg" xmlns:xlink="http://www.w3.org/1999/xlink" width="32px" height="32px" viewBox="0 0 32 32" version="1.1">
<defs>
<filter id="alpha" filterUnits="objectBoundingBox" x="0%" y="0%" width="100%" height="100%">
  <feColorMatrix type="matrix" in="SourceGraphic" values="0 0 0 0 1 0 0 0 0 1 0 0 0 0 1 0 0 0 1 0"/>
</filter>
<mask id="mask0">
  <g filter="url(#alpha)">
<rect x="0" y="0" width="32" height="32" style="fill:rgb(0%,0%,0%);fill-opacity:0.35;stroke:none;"/>
  </g>
</mask>
<clipPath id="clip1">
  <rect x="0" y="0" width="32" height="32"/>
</clipPath>
<g id="surface5" clip-path="url(#clip1)">
<path style=" stroke:none;fill-rule:nonzero;fill:rgb(33.333334%,34.117648%,32.549021%);fill-opacity:1;" d="M 4 4 L 14 4 L 14 14 L 4 14 Z M 4 4 "/>
</g>
</defs>
<g id="surface1">
<path style=" stroke:none;fill-rule:nonzero;fill:rgb(33.333334%,34.117648%,32.549021%);fill-opacity:1;" d="M 0 0 L 0 18 L 2 18 L 2 32 L 16 32 L 16 28 L 14 28 L 14 24 L 16 24 L 16 22 L 14 22 L 14 18 L 16 18 C 16 16.890625 16.890625 16 18 16 L 18 12 L 20 12 L 20 16 L 22 16 L 22 12 L 28 12 L 28 16 L 32 16 L 32 2 L 18 2 L 18 0 Z M 4 4 L 14 4 L 14 14 L 4 14 Z M 18 6 L 20 6 L 20 10 L 18 10 Z M 22 6 L 28 6 L 28 10 L 22 10 Z M 6 18 L 12 18 L 12 22 L 6 22 Z M 20.375 18 C 19.050781 18 18 19.097656 18 20.4375 L 18 29.5625 C 18 30.902344 19.050781 32 20.375 32 L 30 32 C 31.324219 32 32 30.902344 32 29.5625 L 32 20.4375 C 32 19.097656 31.324219 18 30 18 Z M 20 20 L 22 20 L 25 23 L 28 20 L 30 20 L 30 22 L 27 25 L 30 28 L 30 30 L 28 30 L 25 27 L 22 30 L 20 30 L 20 28 L 23 25 L 20 22 Z M 6 24 L 12 24 L 12 28 L 6 28 Z M 6 24 "/>
<use xlink:href="#surface5" mask="url(#mask0)"/>
</g>
</svg>
