<?xml version="1.0" encoding="UTF-8"?>
<svg xmlns="http://www.w3.org/2000/svg" xmlns:xlink="http://www.w3.org/1999/xlink" width="32px" height="32px" viewBox="0 0 32 32" version="1.1">
<g id="surface1">
<path style=" stroke:none;fill-rule:nonzero;fill:rgb(33.333334%,34.117648%,32.549021%);fill-opacity:1;" d="M 4 4 C 2.890625 4 2 4.890625 2 6 L 2 30 L 6 26 L 6 30 L 12 24 L 16 24 L 16 20 L 6 20 L 6 8 L 26 8 L 26 14 L 30 14 L 30 6 C 30 4.890625 29.109375 4 28 4 Z M 24 16 C 21.789062 16 20 17.789062 20 20 C 20 22.210938 21.789062 24 24 24 C 26.210938 24 28 22.210938 28 20 C 28 17.789062 26.210938 16 24 16 Z M 24 24 C 19.582031 24 16 27.582031 16 32 L 20 32 C 20 29.789062 21.789062 28 24 28 C 26.210938 28 28 29.789062 28 32 L 32 32 C 32 27.582031 28.417969 24 24 24 Z M 24 24 "/>
</g>
</svg>
