<?xml version="1.0" encoding="UTF-8"?>
<svg xmlns="http://www.w3.org/2000/svg" xmlns:xlink="http://www.w3.org/1999/xlink" width="32px" height="32px" viewBox="0 0 32 32" version="1.1">
<g id="surface1">
<path style=" stroke:none;fill-rule:nonzero;fill:rgb(33.333334%,34.117648%,32.549021%);fill-opacity:1;" d="M 2 2 L 2 6 L 4 6 L 4 24 L 10 24 L 6 28 L 6 30 L 10 30 L 16 24 L 22 30 L 26 30 L 26 28 L 22 24 L 28 24 L 28 6 L 30 6 L 30 2 Z M 8 6 L 24 6 L 24 20 L 8 20 Z M 10 8 L 10 12 L 22 12 L 22 8 Z M 10 14 L 10 18 L 16 18 L 16 14 Z M 18 14 L 18 18 L 22 18 L 22 14 Z M 18 14 "/>
</g>
</svg>
