<?xml version="1.0" encoding="UTF-8"?>
<svg xmlns="http://www.w3.org/2000/svg" xmlns:xlink="http://www.w3.org/1999/xlink" width="32px" height="32px" viewBox="0 0 32 32" version="1.1">
<g id="surface1">
<path style=" stroke:none;fill-rule:nonzero;fill:rgb(33.333334%,34.117648%,32.549021%);fill-opacity:1;" d="M 2 2 L 2 6 L 3.632812 6 L 5.527344 5.527344 L 6.089844 3.273438 L 6.40625 2 Z M 11.589844 2 L 12.472656 5.527344 L 14.367188 6 L 24 6 L 24 18.015625 L 28 21.863281 L 28 6 L 30 6 L 30 2 Z M 8.03125 3.757812 L 7.175781 7.175781 L 3.757812 8.03125 L 3.757812 9.96875 L 7.175781 10.824219 L 8.03125 14.242188 L 9.96875 14.242188 L 10.824219 10.824219 L 14.242188 9.96875 L 14.242188 8.03125 L 10.824219 7.175781 L 9.96875 3.757812 Z M 14.863281 12 L 12 15.292969 L 26 29.414062 L 29.414062 26 Z M 4 12.089844 L 4 24 L 10 24 L 6 28 L 6 30 L 10 30 L 16 24 L 22 30 L 23.761719 30 L 13.851562 20 L 8 20 L 8 16.242188 L 6.46875 16.242188 L 5.527344 12.472656 Z M 4 12.089844 "/>
</g>
</svg>
