<?xml version="1.0" encoding="UTF-8"?>
<svg xmlns="http://www.w3.org/2000/svg" xmlns:xlink="http://www.w3.org/1999/xlink" width="32px" height="32px" viewBox="0 0 32 32" version="1.1">
<g id="surface1">
<path style=" stroke:none;fill-rule:nonzero;fill:rgb(33.333334%,34.117648%,32.549021%);fill-opacity:1;" d="M 12 0 L 12 17.199219 L 9.398438 14.601562 L 6.601562 17.398438 L 9.199219 20 L 6 23.199219 L 3.398438 20.601562 L 0.601562 23.398438 L 3.199219 26 L 0 29.199219 L 2.800781 32 L 14.800781 20 L 18 20 L 18 24 L 22 24 L 22 20 L 26 20 L 26 24 L 30 24 L 30 20 L 32 20 L 32 16 L 16 16 L 16 14 L 20 14 L 20 10 L 16 10 L 16 6 L 20 6 L 20 2 L 16 2 L 16 0 Z M 12 0 "/>
</g>
</svg>
