<?xml version="1.0" encoding="UTF-8"?>
<svg xmlns="http://www.w3.org/2000/svg" xmlns:xlink="http://www.w3.org/1999/xlink" width="32px" height="32px" viewBox="0 0 32 32" version="1.1">
<defs>
<filter id="alpha" filterUnits="objectBoundingBox" x="0%" y="0%" width="100%" height="100%">
  <feColorMatrix type="matrix" in="SourceGraphic" values="0 0 0 0 1 0 0 0 0 1 0 0 0 0 1 0 0 0 1 0"/>
</filter>
<mask id="mask0">
  <g filter="url(#alpha)">
<rect x="0" y="0" width="32" height="32" style="fill:rgb(0%,0%,0%);fill-opacity:0.35;stroke:none;"/>
  </g>
</mask>
<clipPath id="clip1">
  <rect x="0" y="0" width="32" height="32"/>
</clipPath>
<g id="surface5" clip-path="url(#clip1)">
<path style=" stroke:none;fill-rule:nonzero;fill:rgb(33.333334%,34.117648%,32.549021%);fill-opacity:1;" d="M 12.824219 7.355469 L 6.769531 12.359375 C 6.25 12.765625 6.015625 13.382812 6.035156 14 L 6 14 L 6 20 C 6 21.109375 5.109375 22 4 22 C 2.890625 22 2 21.109375 2 20 L 2 14 C 2 12.511719 2.46875 11.800781 4 11.128906 Z M 12.824219 7.355469 "/>
</g>
</defs>
<g id="surface1">
<path style=" stroke:none;fill-rule:nonzero;fill:rgb(33.333334%,34.117648%,32.549021%);fill-opacity:1;" d="M 2 2 C 0.890625 2 0 2.890625 0 4 L 0 14 C 0 13.046875 0.199219 12 0.785156 11.132812 C 1.394531 10.261719 2.234375 9.753906 3.136719 9.324219 L 3.175781 9.304688 L 4 8.953125 L 4 6 L 10.90625 6 L 11.773438 5.628906 L 14.726562 3.191406 L 16 2.140625 L 16 2 Z M 0 14 L 0 28 C 0 29.109375 0.890625 30 2 30 L 14.976562 30 L 12 26 L 4 26 L 4 24 C 1.800781 24 0 22.199219 0 20 Z M 18 2 L 18 14 C 18 15.105469 18.894531 16 20 16 C 21.105469 16 22 15.105469 22 14 L 22 2 Z M 24 2 L 24 6 L 28 6 L 28 13.355469 L 31.214844 17.667969 C 32.5 19.394531 32.171875 21.882812 30.46875 23.210938 L 22.238281 30 L 30 30 C 31.109375 30 32 29.109375 32 28 L 32 4 C 32 2.890625 31.109375 2 30 2 Z M 16 4.734375 L 6.769531 12.359375 C 5.917969 13.023438 5.75 14.257812 6.394531 15.125 L 16.894531 29.226562 C 17.539062 30.09375 18.75 30.253906 19.601562 29.589844 L 29.238281 21.636719 C 30.089844 20.96875 30.253906 19.734375 29.609375 18.867188 L 24 11.335938 L 24 14 C 24 16.183594 22.183594 18 20 18 C 17.816406 18 16 16.183594 16 14 Z M 16 4.734375 "/>
<use xlink:href="#surface5" mask="url(#mask0)"/>
</g>
</svg>
