<?xml version="1.0" encoding="UTF-8"?>
<svg xmlns="http://www.w3.org/2000/svg" xmlns:xlink="http://www.w3.org/1999/xlink" width="32px" height="32px" viewBox="0 0 32 32" version="1.1">
<g id="surface1">
<path style=" stroke:none;fill-rule:nonzero;fill:rgb(33.333334%,34.117648%,32.549021%);fill-opacity:1;" d="M 0 2 L 0 16 L 14 16 L 14 2 Z M 16 2 L 16 16 L 30 16 L 30 2 Z M 4 6 L 10 6 L 10 12 L 4 12 Z M 20 6 L 26 6 L 26 12 L 20 12 Z M 0 18 L 0 32 L 14 32 L 14 18 Z M 16 18 L 16 32 L 30 32 L 30 18 Z M 4 22 L 10 22 L 10 28 L 4 28 Z M 20 22 L 26 22 L 26 28 L 20 28 Z M 20 22 "/>
</g>
</svg>
