<?xml version="1.0" encoding="UTF-8"?>
<svg xmlns="http://www.w3.org/2000/svg" xmlns:xlink="http://www.w3.org/1999/xlink" width="32px" height="32px" viewBox="0 0 32 32" version="1.1">
<g id="surface1">
<path style=" stroke:none;fill-rule:nonzero;fill:rgb(33.333334%,34.117648%,32.549021%);fill-opacity:1;" d="M 2 2 L 2 6 L 4 6 L 4 24 L 10 24 L 6 28 L 6 30 L 10 30 L 14.199219 25.800781 C 14.078125 25.207031 14.011719 24.605469 14 24 C 13.988281 22.625 14.261719 21.265625 14.800781 20 L 8 20 L 8 6 L 24 6 L 24 14 C 25.375 13.988281 26.734375 14.261719 28 14.800781 L 28 6 L 30 6 L 30 2 Z M 10 8 L 10 12 L 22 12 L 22 8 Z M 10 14 L 10 18 L 16 18 L 16 14 Z M 18 14 L 18 16 C 19.183594 15.113281 20.550781 14.496094 22 14.199219 L 22 14 Z M 24 16 C 19.582031 16 16 19.582031 16 24 C 16 28.417969 19.582031 32 24 32 C 28.417969 32 32 28.417969 32 24 C 32 19.582031 28.417969 16 24 16 Z M 24 18 C 27.3125 18 30 20.6875 30 24 C 30 27.3125 27.3125 30 24 30 C 20.6875 30 18 27.3125 18 24 C 18 20.6875 20.6875 18 24 18 Z M 22 20 L 22 26 L 26 26 L 26 24 L 24 24 L 24 20 Z M 22 20 "/>
</g>
</svg>
