<?xml version="1.0" encoding="UTF-8"?>
<svg xmlns="http://www.w3.org/2000/svg" xmlns:xlink="http://www.w3.org/1999/xlink" width="32px" height="32px" viewBox="0 0 32 32" version="1.1">
<defs>
<filter id="alpha" filterUnits="objectBoundingBox" x="0%" y="0%" width="100%" height="100%">
  <feColorMatrix type="matrix" in="SourceGraphic" values="0 0 0 0 1 0 0 0 0 1 0 0 0 0 1 0 0 0 1 0"/>
</filter>
<mask id="mask0">
  <g filter="url(#alpha)">
<rect x="0" y="0" width="32" height="32" style="fill:rgb(0%,0%,0%);fill-opacity:0.35;stroke:none;"/>
  </g>
</mask>
<clipPath id="clip1">
  <rect x="0" y="0" width="32" height="32"/>
</clipPath>
<g id="surface5" clip-path="url(#clip1)">
<path style=" stroke:none;fill-rule:nonzero;fill:rgb(33.333334%,34.117648%,32.549021%);fill-opacity:1;" d="M 14 4 L 14 12 L 6 12 L 6 28 L 18 28 L 18 20 L 26 20 L 26 4 Z M 14 4 "/>
</g>
</defs>
<g id="surface1">
<use xlink:href="#surface5" mask="url(#mask0)"/>
<path style=" stroke:none;fill-rule:nonzero;fill:rgb(33.333334%,34.117648%,32.549021%);fill-opacity:1;" d="M 12 0 C 10.890625 0 10 0.890625 10 2 L 10 8 L 4 8 C 2.890625 8 2 8.890625 2 10 L 2 30 C 2 31.109375 2.890625 32 4 32 L 20 32 C 21.109375 32 22 31.109375 22 30 L 22 24 L 28 24 C 29.109375 24 30 23.109375 30 22 L 30 2 C 30 0.890625 29.109375 0 28 0 Z M 14 4 L 26 4 L 26 20 L 22 20 L 22 10 C 22 8.890625 21.109375 8 20 8 L 14 8 Z M 6 12 L 18 12 L 18 28 L 6 28 Z M 6 12 "/>
</g>
</svg>
