<?xml version="1.0" encoding="UTF-8"?>
<svg xmlns="http://www.w3.org/2000/svg" xmlns:xlink="http://www.w3.org/1999/xlink" width="32px" height="32px" viewBox="0 0 32 32" version="1.1">
<g id="surface1">
<path style=" stroke:none;fill-rule:nonzero;fill:rgb(33.333334%,34.117648%,32.549021%);fill-opacity:1;" d="M 2 6 L 2 26 L 2.105469 26 C 2.742188 23.371094 4.050781 22.058594 6 20.289062 L 6 16 L 10.734375 16 L 12.941406 14 L 6 14 L 6 10 L 26 10 L 26 13.0625 C 27.226562 12.128906 28.46875 12.039062 30 12 L 30 6 Z M 17 14 C 16.25 14 15.601562 14.304688 15.035156 14.800781 L 5.601562 23.351562 L 5.601562 23.359375 C 4.585938 24.300781 4.007812 25.617188 4 27 C 4 29.761719 6.238281 32 9 32 C 11.761719 32 14 29.761719 14 27 C 14 25.917969 13.648438 24.867188 13 24 L 17.003906 24 C 16.351562 24.863281 16 25.917969 16 27 C 16 29.761719 18.238281 32 21 32 C 23.761719 32 26 29.761719 26 27 C 26.003906 24.621094 24.332031 22.570312 22 22.09375 L 28.261719 16.316406 C 28.5625 16 28.726562 16 29 16 L 30 16 L 30 17 C 30 17.550781 30.449219 18 31 18 C 31.550781 18 32 17.550781 32 17 L 32 16 C 32 14.597656 31.683594 14 30 14 L 29 14 C 28.25 14 27.570312 14.304688 27 14.800781 L 19.066406 22 L 10.03125 22 L 16.261719 16.316406 C 16.5625 16 16.726562 16 17 16 L 18 16 L 18 17 C 18 17.550781 18.449219 18 19 18 C 19.550781 18 20 17.550781 20 17 L 20 16 C 20 14.597656 19.683594 14 18 14 Z M 21.667969 14 C 21.972656 14.695312 22 15.398438 22 16 L 22.703125 16 L 24.90625 14 Z M 28.691406 18.644531 C 27.785156 19.476562 26.894531 20.308594 26 21.140625 L 26 22.585938 C 26.972656 23.492188 27.472656 24.863281 27.898438 26 L 30 26 L 30 19.757812 C 29.738281 19.640625 29.5 19.484375 29.285156 19.292969 L 29.28125 19.292969 C 29.066406 19.101562 28.863281 18.886719 28.691406 18.644531 Z M 9 24 C 10.65625 24 12 25.34375 12 27 C 12 28.65625 10.65625 30 9 30 C 7.34375 30 6 28.65625 6 27 C 6 25.34375 7.34375 24 9 24 Z M 21 24 C 22.65625 24 24 25.34375 24 27 C 24 28.65625 22.65625 30 21 30 C 19.34375 30 18 28.65625 18 27 C 18 25.34375 19.34375 24 21 24 Z M 21 24 "/>
</g>
</svg>
