<?xml version="1.0" encoding="UTF-8"?>
<svg xmlns="http://www.w3.org/2000/svg" xmlns:xlink="http://www.w3.org/1999/xlink" width="32px" height="32px" viewBox="0 0 32 32" version="1.1">
<g id="surface1">
<path style=" stroke:none;fill-rule:nonzero;fill:rgb(33.333334%,34.117648%,32.549021%);fill-opacity:1;" d="M 2 0 L 2 32 L 26 32 L 26 24 L 22 24 L 22 28 L 16 28 L 16 4 L 22 4 L 22 8 L 26 8 L 26 0 Z M 6 4 L 12 4 L 12 10 L 6 10 Z M 24 10 L 24 12 C 24 12.515625 24.257812 13.058594 24.625 13.4375 L 25.367188 14 L 20 14 L 20 18 L 25.367188 18 L 24.625 18.5625 C 24.257812 18.941406 24 19.550781 24 20 L 24 22 L 26 22 C 26.617188 22 27.105469 21.820312 27.5 21.4375 C 29.53125 19.898438 30.550781 18.796875 32 17.558594 L 32 14.328125 L 27.5 10.5625 C 27.105469 10.179688 26.617188 10 26 10 Z M 6 12 L 12 12 L 12 20 L 6 20 Z M 6 22 L 12 22 L 12 28 L 6 28 Z M 6 22 "/>
</g>
</svg>
