<?xml version="1.0" encoding="UTF-8"?>
<svg xmlns="http://www.w3.org/2000/svg" xmlns:xlink="http://www.w3.org/1999/xlink" width="32px" height="32px" viewBox="0 0 32 32" version="1.1">
<g id="surface1">
<path style=" stroke:none;fill-rule:nonzero;fill:rgb(33.333334%,34.117648%,32.549021%);fill-opacity:1;" d="M 0 2 L 0 26 L 8 26 L 8 22 L 4 22 L 4 16 L 28 16 L 28 22 L 24 22 L 24 26 L 32 26 L 32 2 Z M 4 6 L 10 6 L 10 12 L 4 12 Z M 12 6 L 20 6 L 20 12 L 12 12 Z M 22 6 L 28 6 L 28 12 L 22 12 Z M 14 20 L 14 25.367188 L 13.4375 24.625 C 13.058594 24.257812 12.449219 24 12 24 L 10 24 L 10 26 C 10 26.617188 10.179688 27.105469 10.5625 27.5 C 12.101562 29.53125 13.203125 30.550781 14.441406 32 L 17.671875 32 L 21.4375 27.5 C 21.820312 27.105469 22 26.617188 22 26 L 22 24 L 20 24 C 19.484375 24 18.941406 24.257812 18.5625 24.625 L 18 25.367188 L 18 20 Z M 14 20 "/>
</g>
</svg>
