<?xml version="1.0" encoding="UTF-8"?>
<svg xmlns="http://www.w3.org/2000/svg" xmlns:xlink="http://www.w3.org/1999/xlink" width="32px" height="32px" viewBox="0 0 32 32" version="1.1">
<g id="surface1">
<path style=" stroke:none;fill-rule:nonzero;fill:rgb(33.333334%,34.117648%,32.549021%);fill-opacity:1;" d="M 4 6 C 4 8.199219 2.199219 10 0 10 L 0 22 C 2.199219 22 4 23.800781 4 26 L 28 26 C 28 23.800781 29.800781 22 32 22 L 32 10 C 29.800781 10 28 8.199219 28 6 Z M 6 10 L 26 10 L 26 12 L 28 12 L 28 20 L 26 20 L 26 22 L 6 22 L 6 20 L 4 20 L 4 12 L 6 12 Z M 16 12 C 13.800781 12 12 13.800781 12 16 C 12 18.199219 13.800781 20 16 20 C 18.199219 20 20 18.199219 20 16 C 20 13.800781 18.199219 12 16 12 Z M 16 12 "/>
</g>
</svg>
