<?xml version="1.0" encoding="UTF-8"?>
<svg xmlns="http://www.w3.org/2000/svg" xmlns:xlink="http://www.w3.org/1999/xlink" width="32px" height="32px" viewBox="0 0 32 32" version="1.1">
<g id="surface1">
<path style=" stroke:none;fill-rule:nonzero;fill:rgb(33.333334%,34.117648%,32.549021%);fill-opacity:1;" d="M 16 2 C 14.894531 2 14 2.894531 14 4 C 14 5.105469 14.894531 6 16 6 C 17.105469 6 18 5.105469 18 4 C 18 2.894531 17.105469 2 16 2 Z M 16 10 C 14.894531 10 14 10.894531 14 12 C 14 13.105469 14.894531 14 16 14 C 17.105469 14 18 13.105469 18 12 C 18 10.894531 17.105469 10 16 10 Z M 4 14 L 4 16 C 4 16.617188 4.179688 17.105469 4.5625 17.5 C 6.707031 20.332031 13.855469 27.167969 16 30 L 27.4375 17.5 C 27.820312 17.105469 28 16.617188 28 16 L 28 14 L 26 14 C 25.484375 14 24.941406 14.257812 24.5625 14.625 L 16 24 L 7.4375 14.625 C 7.058594 14.257812 5.484375 14 6 14 Z M 4 14 "/>
</g>
</svg>
