<?xml version="1.0" encoding="UTF-8"?>
<svg xmlns="http://www.w3.org/2000/svg" xmlns:xlink="http://www.w3.org/1999/xlink" width="32px" height="32px" viewBox="0 0 32 32" version="1.1">
<g id="surface1">
<path style="fill-rule:nonzero;fill:rgb(94.117647%,89.019608%,92.54902%);fill-opacity:1;stroke-width:1;stroke-linecap:butt;stroke-linejoin:miter;stroke:rgb(90.196079%,0.784314%,70.588237%);stroke-opacity:1;stroke-miterlimit:4;" d="M 7.683594 2 C 4.835938 2 2.492188 4.117188 2.099609 6.857422 C 2.082031 6.978516 2.117188 7.099609 2.197266 7.193359 C 2.277344 7.285156 2.392578 7.337891 2.515625 7.337891 L 7.224609 7.337891 C 7.375 7.337891 7.513672 7.255859 7.587891 7.125 L 9.96875 3.003906 C 10.029297 2.898438 10.041016 2.771484 10.001953 2.65625 C 9.960938 2.541016 9.873047 2.449219 9.759766 2.404297 C 9.119141 2.150391 8.419922 2 7.683594 2 Z M 7.683594 2 " transform="matrix(2,0,0,2,0,0)"/>
<path style="fill-rule:nonzero;fill:rgb(95.294118%,71.764708%,85.09804%);fill-opacity:1;stroke-width:1;stroke-linecap:butt;stroke-linejoin:miter;stroke:rgb(90.196079%,0.784314%,70.588237%);stroke-opacity:1;stroke-miterlimit:4;" d="M 11.457031 3.464844 C 11.306641 3.46875 11.169922 3.550781 11.09375 3.681641 L 8.740234 7.761719 C 8.642578 7.929688 8.669922 8.142578 8.806641 8.28125 L 12.09375 11.568359 C 12.181641 11.65625 12.304688 11.701172 12.427734 11.693359 C 12.552734 11.683594 12.667969 11.621094 12.742188 11.521484 C 13.462891 10.558594 13.904297 9.363281 13.904297 8.064453 C 13.904297 6.242188 13.054688 4.619141 11.736328 3.558594 C 11.658203 3.494141 11.558594 3.460938 11.457031 3.464844 Z M 11.457031 3.464844 " transform="matrix(2,0,0,2,0,0)"/>
<path style="fill-rule:nonzero;fill:rgb(95.294118%,71.764708%,85.09804%);fill-opacity:1;stroke-width:1;stroke-linecap:butt;stroke-linejoin:miter;stroke:rgb(90.196079%,0.784314%,70.588237%);stroke-opacity:1;stroke-miterlimit:4;" d="M 2.724609 8.847656 C 2.603516 8.847656 2.490234 8.900391 2.410156 8.992188 C 2.332031 9.083984 2.298828 9.205078 2.316406 9.324219 C 2.738281 11.96875 5.015625 14 7.777344 14 C 8.998047 14 10.119141 13.589844 11.03125 12.925781 C 11.128906 12.853516 11.191406 12.744141 11.199219 12.623047 C 11.208984 12.503906 11.166016 12.384766 11.080078 12.300781 L 7.748047 8.96875 C 7.669922 8.890625 7.564453 8.847656 7.455078 8.847656 Z M 2.724609 8.847656 " transform="matrix(2,0,0,2,0,0)"/>
</g>
</svg>
