<?xml version="1.0" encoding="UTF-8"?>
<svg xmlns="http://www.w3.org/2000/svg" xmlns:xlink="http://www.w3.org/1999/xlink" width="32px" height="32px" viewBox="0 0 32 32" version="1.1">
<g id="surface1">
<path style=" stroke:none;fill-rule:nonzero;fill:rgb(33.333334%,34.117648%,32.549021%);fill-opacity:1;" d="M 2 2 L 2 10 L 16 10 L 16 2 Z M 2 12 L 2 24 C 2 25.109375 2.890625 26 4 26 L 9.125 26 L 8.601562 26.601562 C 8.199219 26.9375 8 27.46875 8 28 L 8 30 L 10 30 C 10.53125 30 11.0625 29.800781 11.398438 29.398438 L 15.398438 25.398438 L 16 24.875 L 16 23.125 L 15.398438 22.601562 L 11.398438 18.601562 C 11.0625 18.199219 10.53125 18 10 18 L 8 18 L 8 20 C 8 20.53125 8.199219 21.0625 8.601562 21.398438 L 9.125 22 L 6 22 L 6 12 Z M 18 18 L 18 30 L 30 30 L 30 18 Z M 22 22 L 26 22 L 26 26 L 22 26 Z M 22 22 "/>
</g>
</svg>
