<?xml version="1.0" encoding="UTF-8"?>
<svg xmlns="http://www.w3.org/2000/svg" xmlns:xlink="http://www.w3.org/1999/xlink" width="32px" height="32px" viewBox="0 0 32 32" version="1.1">
<g id="surface1">
<path style=" stroke:none;fill-rule:nonzero;fill:rgb(33.333334%,34.117648%,32.549021%);fill-opacity:1;" d="M 2 2 L 2 30 L 12 30 L 12 26 L 6 26 L 6 8 L 30 8 L 30 2 Z M 25.125 10 L 20.5625 14.5625 C 20.1875 14.9375 20 15.46875 20 16 L 20 18 L 22 18 C 22.53125 18 23.0625 17.8125 23.4375 17.4375 L 24 16.875 L 24 22 L 28 22 L 28 16.875 L 28.5625 17.4375 C 28.9375 17.8125 29.46875 18 30 18 L 32 18 L 32 16 C 32 15.46875 31.8125 14.9375 31.4375 14.5625 L 26.875 10 Z M 18 20 L 18 25.125 L 17.4375 24.5625 C 17.0625 24.1875 16.53125 24 16 24 L 14 24 L 14 26 C 14 26.53125 14.1875 27.0625 14.5625 27.4375 L 19.125 32 L 20.875 32 L 25.4375 27.4375 C 25.8125 27.0625 26 26.53125 26 26 L 26 24 L 24 24 C 23.46875 24 22.9375 24.1875 22.5625 24.5625 L 22 25.125 L 22 20 Z M 18 20 "/>
</g>
</svg>
