<?xml version="1.0" encoding="UTF-8"?>
<svg xmlns="http://www.w3.org/2000/svg" xmlns:xlink="http://www.w3.org/1999/xlink" width="32px" height="32px" viewBox="0 0 32 32" version="1.1">
<g id="surface1">
<path style=" stroke:none;fill-rule:nonzero;fill:rgb(33.333334%,34.117648%,32.549021%);fill-opacity:1;" d="M 0 0 L 0 16 L 20 16 L 20 10 L 24 10 L 24 12.199219 C 23.800781 12 23.597656 12 23.398438 12 L 22 12 L 22 13.199219 C 22 13.570312 22.121094 13.863281 22.375 14.101562 L 26 18 C 27.429688 16.300781 28.195312 15.800781 29.625 14 C 29.800781 13.800781 30 13.601562 30 13.199219 L 30 12 L 28.667969 12 C 28.398438 12 28.199219 12 28 12.199219 L 28 8 C 28 6.894531 27.105469 6 26 6 L 20 6 L 20 0 Z M 26 18 L 10 18 L 10 32 L 30 32 L 30 18 Z M 4 4 L 16 4 L 16 12 L 4 12 Z M 14 22 L 26 22 L 26 28 L 14 28 Z M 14 22 "/>
</g>
</svg>
