<?xml version="1.0" encoding="UTF-8"?>
<svg xmlns="http://www.w3.org/2000/svg" xmlns:xlink="http://www.w3.org/1999/xlink" width="32px" height="32px" viewBox="0 0 32 32" version="1.1">
<g id="surface1">
<path style=" stroke:none;fill-rule:nonzero;fill:rgb(33.333334%,34.117648%,32.549021%);fill-opacity:1;" d="M 26 2 C 26 4.328125 24 6 22 6 L 22 10 L 26 10 L 26 18 L 30 18 L 30 2 Z M 14 4 C 10.6875 4 8 6.6875 8 10 L 8 14 L 6 14 L 6 18 L 8 18 L 8 28 L 12 28 L 12 18 L 16 18 L 16 14 L 12 14 L 12 10 C 12 8.894531 12.894531 8 14 8 L 18 8 L 18 4 Z M 14 4 "/>
</g>
</svg>
