<?xml version="1.0" encoding="UTF-8"?>
<svg xmlns="http://www.w3.org/2000/svg" xmlns:xlink="http://www.w3.org/1999/xlink" width="32px" height="32px" viewBox="0 0 32 32" version="1.1">
<g id="surface1">
<path style=" stroke:none;fill-rule:nonzero;fill:rgb(33.333334%,34.117648%,32.549021%);fill-opacity:1;" d="M 2 0 C 0.890625 0 0 0.890625 0 2 L 0 6 C 0 7.109375 0.890625 8 2 8 L 4 8 L 4 6 C 4 4.894531 4.894531 4 6 4 L 10 4 L 10 19.066406 L 10.070312 19.101562 L 16 13.171875 L 16 4 L 20 4 C 21.105469 4 22 4.894531 22 6 L 22 7.171875 L 26 3.171875 L 26 2 C 26 0.890625 25.109375 0 24 0 Z M 28 4 L 26 6 L 30 10 L 32 8 C 31.742188 5.285156 30.148438 4.285156 28 4 Z M 24 8 L 10 22 L 10 26 L 14 26 L 28 12 Z M 0 16 L 0 32 L 30 32 L 17.496094 25.332031 C 16.605469 26.222656 15.71875 27.109375 14.828125 28 L 4 28 L 4 22 L 8 24.398438 L 8 21.171875 L 8.589844 20.582031 Z M 0 16 "/>
</g>
</svg>
