<?xml version="1.0" encoding="UTF-8"?>
<svg xmlns="http://www.w3.org/2000/svg" xmlns:xlink="http://www.w3.org/1999/xlink" width="32px" height="32px" viewBox="0 0 32 32" version="1.1">
<g id="surface1">
<path style=" stroke:none;fill-rule:nonzero;fill:rgb(33.333334%,34.117648%,32.549021%);fill-opacity:1;" d="M 12 1.800781 L 11.199219 5.199219 L 7.800781 6 L 7.800781 7.96875 L 11.175781 8.824219 L 12.03125 12.242188 L 13.96875 12.242188 L 14.824219 8.824219 L 18.242188 8 L 18.242188 6 L 14.824219 5.175781 L 13.96875 1.757812 L 12.03125 1.757812 Z M 6 9.601562 L 6 12 L 9.910156 12 L 9.527344 10.472656 L 6 9.589844 Z M 18.648438 10 L 16 12.40625 L 29.59375 26 L 32 26 L 32 23.542969 Z M 8 16 C 4.6875 16 2 18.6875 2 22 C 2 25.3125 4.6875 28 8 28 L 22 28 L 22 21.234375 L 16.761719 16 Z M 8 20 L 18 20 L 18 24 L 8 24 C 6.894531 24 6 23.105469 6 22 C 6 20.894531 6.894531 20 8 20 Z M 8 20 "/>
</g>
</svg>
