<?xml version="1.0" encoding="UTF-8"?>
<svg xmlns="http://www.w3.org/2000/svg" xmlns:xlink="http://www.w3.org/1999/xlink" width="32px" height="32px" viewBox="0 0 32 32" version="1.1">
<defs>
<filter id="alpha" filterUnits="objectBoundingBox" x="0%" y="0%" width="100%" height="100%">
  <feColorMatrix type="matrix" in="SourceGraphic" values="0 0 0 0 1 0 0 0 0 1 0 0 0 0 1 0 0 0 1 0"/>
</filter>
<mask id="mask0">
  <g filter="url(#alpha)">
<rect x="0" y="0" width="32" height="32" style="fill:rgb(0%,0%,0%);fill-opacity:0.35;stroke:none;"/>
  </g>
</mask>
<clipPath id="clip1">
  <rect x="0" y="0" width="32" height="32"/>
</clipPath>
<g id="surface5" clip-path="url(#clip1)">
<path style=" stroke:none;fill-rule:nonzero;fill:rgb(33.333334%,34.117648%,32.549021%);fill-opacity:1;" d="M 14.894531 8.167969 L 27.546875 17.660156 C 27.125 18.9375 26.390625 20.179688 24.914062 21.285156 C 22.800781 22.871094 19.609375 24 16 24 C 12.390625 24 9.199219 22.871094 7.085938 21.285156 C 4.972656 19.699219 4 17.871094 4 16 C 4 14.128906 4.972656 12.300781 7.085938 10.714844 C 8.96875 9.304688 11.773438 8.382812 14.894531 8.167969 Z M 14.894531 8.167969 "/>
</g>
</defs>
<g id="surface1">
<path style=" stroke:none;fill-rule:nonzero;fill:rgb(33.333334%,34.117648%,32.549021%);fill-opacity:1;" d="M 16 4 C 7.164062 4 0 9.371094 0 16 C 0 22.628906 7.164062 28 16 28 C 24.835938 28 32 22.628906 32 16 Z M 14.894531 8.167969 L 27.546875 17.660156 C 27.125 18.9375 26.390625 20.179688 24.914062 21.285156 C 22.800781 22.871094 19.609375 24 16 24 C 12.390625 24 9.199219 22.871094 7.085938 21.285156 C 4.972656 19.699219 4 17.871094 4 16 C 4 14.128906 4.972656 12.300781 7.085938 10.714844 C 8.96875 9.304688 11.773438 8.382812 14.894531 8.167969 Z M 14.894531 8.167969 "/>
<use xlink:href="#surface5" mask="url(#mask0)"/>
</g>
</svg>
