<?xml version="1.0" encoding="UTF-8"?>
<svg xmlns="http://www.w3.org/2000/svg" xmlns:xlink="http://www.w3.org/1999/xlink" width="32px" height="32px" viewBox="0 0 32 32" version="1.1">
<g id="surface1">
<path style=" stroke:none;fill-rule:nonzero;fill:rgb(33.333334%,34.117648%,32.549021%);fill-opacity:1;" d="M 16 2 C 8.269531 2 2 8.269531 2 16 C 2 23.730469 8.269531 30 16 30 C 23.730469 30 30 23.730469 30 16 C 30 8.269531 23.730469 2 16 2 Z M 11 8 C 12.65625 8 14 9.789062 14 12 C 14 14.210938 12.65625 16 11 16 C 9.34375 16 8 14.210938 8 12 C 8 9.789062 9.34375 8 11 8 Z M 21 8 C 22.65625 8 24 9.789062 24 12 C 24 14.210938 22.65625 16 21 16 C 19.34375 16 18 14.210938 18 12 C 18 9.789062 19.34375 8 21 8 Z M 6 18 L 10 18 L 10 19 C 10 20.65625 12.6875 22 16 22 C 19.3125 22 22 20.65625 22 19 L 22 18 L 26 18 L 26 19 C 26 22.867188 21.523438 26 16 26 C 10.476562 26 6 22.867188 6 19 Z M 6 18 "/>
</g>
</svg>
