<?xml version="1.0" encoding="UTF-8"?>
<svg xmlns="http://www.w3.org/2000/svg" xmlns:xlink="http://www.w3.org/1999/xlink" width="32px" height="32px" viewBox="0 0 32 32" version="1.1">
<g id="surface1">
<path style=" stroke:none;fill-rule:nonzero;fill:rgb(33.333334%,34.117648%,32.549021%);fill-opacity:1;" d="M 2 2 L 2 6 L 6 6 L 6 2 Z M 18 2 L 18 6 L 22 6 L 22 2 Z M 13 6 C 9.132812 6 6 9.132812 6 13 C 6 16.867188 9.132812 20 13 20 C 16.867188 20 20 16.867188 20 13 C 20 9.132812 16.867188 6 13 6 Z M 26 6 L 26 10 L 30 10 L 30 6 Z M 21.933594 12 C 21.972656 12.332031 22 12.664062 22 13 C 21.996094 14.78125 21.460938 16.523438 20.46875 18 L 26 18 L 26 12 Z M 2 20 L 2 24 L 6 24 L 6 20 Z M 24 20 L 24 22 C 24 22.53125 24.1875 23.0625 24.5625 23.4375 L 25.125 24 L 16 24 L 16 28 L 25.125 28 L 24.5625 28.5625 C 24.1875 28.9375 24 29.46875 24 30 L 24 32 L 26 32 C 26.53125 32 27.0625 31.8125 27.4375 31.4375 L 32 26.875 L 32 25.125 L 27.4375 20.5625 C 27.0625 20.1875 26.53125 20 26 20 Z M 10 26 L 10 30 L 14 30 L 14 26 Z M 10 26 "/>
</g>
</svg>
