<?xml version="1.0" encoding="UTF-8"?>
<svg xmlns="http://www.w3.org/2000/svg" xmlns:xlink="http://www.w3.org/1999/xlink" width="32px" height="32px" viewBox="0 0 32 32" version="1.1">
<defs>
<filter id="alpha" filterUnits="objectBoundingBox" x="0%" y="0%" width="100%" height="100%">
  <feColorMatrix type="matrix" in="SourceGraphic" values="0 0 0 0 1 0 0 0 0 1 0 0 0 0 1 0 0 0 1 0"/>
</filter>
<mask id="mask0">
  <g filter="url(#alpha)">
<rect x="0" y="0" width="32" height="32" style="fill:rgb(0%,0%,0%);fill-opacity:0.35;stroke:none;"/>
  </g>
</mask>
<clipPath id="clip1">
  <rect x="0" y="0" width="32" height="32"/>
</clipPath>
<g id="surface5" clip-path="url(#clip1)">
<path style=" stroke:none;fill-rule:nonzero;fill:rgb(33.333334%,34.117648%,32.549021%);fill-opacity:1;" d="M 4 12 L 4 20 L 26 20 L 26 12 Z M 4 12 "/>
</g>
</defs>
<g id="surface1">
<use xlink:href="#surface5" mask="url(#mask0)"/>
<path style=" stroke:none;fill-rule:nonzero;fill:rgb(33.333334%,34.117648%,32.549021%);fill-opacity:1;" d="M 2 2 L 2 8 L 0 8 L 0 24 L 2 24 L 2 30 L 28 30 L 28 24 L 30 23.945312 L 30 8 L 28 8 L 28 2 Z M 4 4 L 10 4 L 10 8 L 4 8 Z M 12 4 L 18 4 L 18 8 L 12 8 Z M 20 4 L 26 4 L 26 8 L 20 8 Z M 4 12 L 8 12 L 8 20 L 4 20 Z M 12 12 L 18 12 L 18 20 L 12 20 Z M 22 12 L 26 12 L 26 20 L 22 20 Z M 4 24 L 10 24 L 10 28 L 4 28 Z M 12 24 L 18 24 L 18 28 L 12 28 Z M 20 24 L 26 24 L 26 28 L 20 28 Z M 20 24 "/>
</g>
</svg>
