<?xml version="1.0" encoding="UTF-8"?>
<svg xmlns="http://www.w3.org/2000/svg" xmlns:xlink="http://www.w3.org/1999/xlink" width="32px" height="32px" viewBox="0 0 32 32" version="1.1">
<g id="surface1">
<path style=" stroke:none;fill-rule:nonzero;fill:rgb(33.333334%,34.117648%,32.549021%);fill-opacity:1;" d="M 18 0 L 18 28 L 32 28 L 32 0 Z M 2 4 L 2 32 L 16 32 L 16 4 Z M 22 4 L 28 4 L 28 24 L 22 24 L 22 20 L 26 20 L 26 16 L 22 16 L 22 12 L 26 12 L 26 8 L 22 8 Z M 6 8 L 12 8 L 12 28 L 6 28 L 6 24 L 10 24 L 10 20 L 6 20 L 6 16 L 10 16 L 10 12 L 6 12 Z M 6 8 "/>
</g>
</svg>
