<?xml version="1.0" encoding="UTF-8"?>
<svg xmlns="http://www.w3.org/2000/svg" xmlns:xlink="http://www.w3.org/1999/xlink" width="32px" height="32px" viewBox="0 0 32 32" version="1.1">
<g id="surface1">
<path style=" stroke:none;fill-rule:nonzero;fill:rgb(33.333334%,34.117648%,32.549021%);fill-opacity:1;" d="M 0 16 L 28 16 L 28 30 L 0 30 Z M 4 0 L 32 0 L 32 14 L 4 14 Z M 4 20 L 4 26 L 24 26 L 24 20 L 20 20 L 20 24 L 16 24 L 16 20 L 12 20 L 12 24 L 8 24 L 8 20 Z M 8 4 L 8 10 L 28 10 L 28 4 L 24 4 L 24 8 L 20 8 L 20 4 L 16 4 L 16 8 L 12 8 L 12 4 Z M 8 4 "/>
</g>
</svg>
