<?xml version="1.0" encoding="UTF-8"?>
<svg xmlns="http://www.w3.org/2000/svg" xmlns:xlink="http://www.w3.org/1999/xlink" width="32px" height="32px" viewBox="0 0 32 32" version="1.1">
<g id="surface1">
<path style=" stroke:none;fill-rule:nonzero;fill:rgb(33.333334%,34.117648%,32.549021%);fill-opacity:1;" d="M 20 2 C 13.660156 2 8.308594 6.21875 6.585938 12 L 2 12 L 2 16 L 6 16 C 6 16.679688 6.066406 17.34375 6.199219 18 L 2 18 L 2 22 L 7.367188 22 C 9.601562 26.726562 14.417969 30 20 30 C 23.222656 29.996094 26.300781 28.882812 28.75 26.914062 L 25.980469 24 C 24.253906 25.292969 22.15625 26 20 26 C 16.738281 26 13.871094 24.414062 12.046875 22 L 18 22 L 18 18 L 10.199219 18 C 10.066406 17.355469 10 16.683594 10 16 L 20 16 L 20 12 L 10.84375 12 C 12.386719 8.472656 15.902344 6 20 6 C 22.15625 6.003906 24.253906 6.707031 25.980469 8 L 28.429688 4.828125 C 26.03125 3.019531 23.082031 2 20 2 Z M 20 2 "/>
</g>
</svg>
