<?xml version="1.0" encoding="UTF-8"?>
<svg xmlns="http://www.w3.org/2000/svg" xmlns:xlink="http://www.w3.org/1999/xlink" width="32px" height="32px" viewBox="0 0 32 32" version="1.1">
<g id="surface1">
<path style=" stroke:none;fill-rule:nonzero;fill:rgb(33.333334%,34.117648%,32.549021%);fill-opacity:1;" d="M 2 2 L 2 30 L 20 30 L 20 29.507812 C 18.847656 29.113281 17.679688 28.46875 16.613281 27.441406 L 16 26.851562 L 16 26 L 6 26 L 6 6 L 16 6 L 16 12 L 26 12 L 26 10 L 18 2 Z M 22 14 L 22 16 L 26.828125 16 L 27.398438 16.601562 C 28.800781 18 29.515625 19.507812 29.800781 21.054688 L 30 20.875 L 30 19.125 L 25.4375 14.5625 C 25.0625 14.1875 24.53125 14 24 14 Z M 12 18 L 12 22 L 22 22 L 22 18 Z M 24 18 L 24 20 C 27.121094 23.199219 22.867188 27 20 24 L 18 24 L 18 26 C 19.601562 27.539062 21.28125 28 22.800781 28 L 26 28 L 30 32 L 32 32 L 32 30 L 28 26 L 28 22.800781 C 28 21 27.601562 19.601562 26 18 Z M 24 18 "/>
</g>
</svg>
