<?xml version="1.0" encoding="UTF-8"?>
<svg xmlns="http://www.w3.org/2000/svg" xmlns:xlink="http://www.w3.org/1999/xlink" width="32px" height="32px" viewBox="0 0 32 32" version="1.1">
<g id="surface1">
<path style=" stroke:none;fill-rule:nonzero;fill:rgb(33.333334%,34.117648%,32.549021%);fill-opacity:1;" d="M 18 2 L 18 24 L 22 20 L 26 27.253906 L 30 26 L 26 18 L 32 18 Z M 9 6 C 5.132812 6 2 9.132812 2 13 L 6 13 C 6 11.34375 7.34375 10 9 10 C 10.65625 10 12 11.34375 12 13 C 12 14.65625 10.65625 16 9 16 L 8 16 L 8 24 L 12 24 L 12 19.316406 C 14.441406 18.160156 15.996094 15.699219 16 13 C 16 9.132812 12.867188 6 9 6 Z M 10 26 C 8.894531 26 8 26.894531 8 28 C 8 29.105469 8.894531 30 10 30 C 11.105469 30 12 29.105469 12 28 C 12 26.894531 11.105469 26 10 26 Z M 10 26 "/>
</g>
</svg>
