<?xml version="1.0" encoding="UTF-8"?>
<svg xmlns="http://www.w3.org/2000/svg" xmlns:xlink="http://www.w3.org/1999/xlink" width="32px" height="32px" viewBox="0 0 32 32" version="1.1">
<defs>
<filter id="alpha" filterUnits="objectBoundingBox" x="0%" y="0%" width="100%" height="100%">
  <feColorMatrix type="matrix" in="SourceGraphic" values="0 0 0 0 1 0 0 0 0 1 0 0 0 0 1 0 0 0 1 0"/>
</filter>
<mask id="mask0">
  <g filter="url(#alpha)">
<rect x="0" y="0" width="32" height="32" style="fill:rgb(0%,0%,0%);fill-opacity:0.35;stroke:none;"/>
  </g>
</mask>
<clipPath id="clip1">
  <rect x="0" y="0" width="32" height="32"/>
</clipPath>
<g id="surface5" clip-path="url(#clip1)">
<path style=" stroke:none;fill-rule:nonzero;fill:rgb(9.411765%,63.921571%,1.176471%);fill-opacity:1;" d="M 6 4 L 6 26 L 28 26 L 28 4 Z M 6 4 "/>
</g>
</defs>
<g id="surface1">
<use xlink:href="#surface5" mask="url(#mask0)"/>
<path style=" stroke:none;fill-rule:nonzero;fill:rgb(9.411765%,63.921571%,1.176471%);fill-opacity:1;" d="M 10 0 L 2 8 L 2 30 L 24 30 L 32 22 L 32 0 Z M 11.65625 4 L 25.171875 4 L 21.171875 8 L 7.65625 8 Z M 28 6.828125 L 28 20.34375 L 24 24.34375 L 24 10.828125 Z M 6 12 L 20 12 L 20 26 L 6 26 Z M 6 12 "/>
</g>
</svg>
