<?xml version="1.0" encoding="UTF-8"?>
<svg xmlns="http://www.w3.org/2000/svg" xmlns:xlink="http://www.w3.org/1999/xlink" width="32px" height="32px" viewBox="0 0 32 32" version="1.1">
<defs>
<filter id="alpha" filterUnits="objectBoundingBox" x="0%" y="0%" width="100%" height="100%">
  <feColorMatrix type="matrix" in="SourceGraphic" values="0 0 0 0 1 0 0 0 0 1 0 0 0 0 1 0 0 0 1 0"/>
</filter>
<mask id="mask0">
  <g filter="url(#alpha)">
<rect x="0" y="0" width="32" height="32" style="fill:rgb(0%,0%,0%);fill-opacity:0.35;stroke:none;"/>
  </g>
</mask>
<clipPath id="clip1">
  <rect x="0" y="0" width="32" height="32"/>
</clipPath>
<g id="surface5" clip-path="url(#clip1)">
<path style=" stroke:none;fill-rule:nonzero;fill:rgb(33.333334%,34.117648%,32.549021%);fill-opacity:1;" d="M 10 0 L 4 8 L 28 8 L 22 0 Z M 10 0 "/>
</g>
</defs>
<g id="surface1">
<path style=" stroke:none;fill-rule:nonzero;fill:rgb(33.333334%,34.117648%,32.549021%);fill-opacity:1;" d="M 4 8 L 4 18 L 13.644531 18 L 10.625 15.4375 C 10.257812 15.058594 10 14.515625 10 14 L 10 12 L 12 12 C 12.617188 12 13.105469 12.179688 13.5 12.5625 L 22 20 C 19.167969 22.144531 16.332031 25.292969 13.5 27.4375 C 13.105469 27.820312 12.617188 28 12 28 L 10 28 L 10 26 C 10 25.484375 10.257812 24.941406 10.625 24.5625 L 13.644531 22 L 4 22 L 4 32 L 28 32 L 28 8 Z M 4 8 "/>
<use xlink:href="#surface5" mask="url(#mask0)"/>
</g>
</svg>
