<?xml version="1.0" encoding="UTF-8"?>
<svg xmlns="http://www.w3.org/2000/svg" xmlns:xlink="http://www.w3.org/1999/xlink" width="32px" height="32px" viewBox="0 0 32 32" version="1.1">
<g id="surface1">
<path style=" stroke:none;fill-rule:nonzero;fill:rgb(33.333334%,34.117648%,32.549021%);fill-opacity:1;" d="M 18 2 C 10.269531 2 4 8.269531 4 16 L 0 16 L 6 22 L 12 16 L 8 16 C 8 10.476562 12.476562 6 18 6 C 23.523438 6 28 10.476562 28 16 C 28 21.523438 23.523438 26 18 26 L 18 30 C 25.730469 30 32 23.730469 32 16 C 32 8.269531 25.730469 2 18 2 Z M 18 12 C 15.789062 12 14 13.789062 14 16 C 14 18.210938 15.789062 20 18 20 C 20.210938 20 22 18.210938 22 16 C 22 13.789062 20.210938 12 18 12 Z M 18 12 "/>
</g>
</svg>
