<?xml version="1.0" encoding="UTF-8"?>
<svg xmlns="http://www.w3.org/2000/svg" xmlns:xlink="http://www.w3.org/1999/xlink" width="32px" height="32px" viewBox="0 0 32 32" version="1.1">
<g id="surface1">
<path style=" stroke:none;fill-rule:nonzero;fill:rgb(33.333334%,34.117648%,32.549021%);fill-opacity:1;" d="M 16 0 L 13.085938 4.371094 C 14.039062 4.128906 15.015625 4.003906 16 4 C 16.984375 4.003906 17.964844 4.128906 18.917969 4.375 Z M 4.6875 4.6875 L 5.71875 9.800781 C 6.726562 8.128906 8.128906 6.726562 9.800781 5.71875 Z M 27.3125 4.6875 L 22.199219 5.71875 C 23.871094 6.726562 25.273438 8.128906 26.28125 9.800781 Z M 16 6 C 10.476562 6 6 10.476562 6 16 C 6 21.523438 10.476562 26 16 26 C 21.523438 26 26 21.523438 26 16 C 26 10.476562 21.523438 6 16 6 Z M 16 10 C 19.3125 10 22 12.6875 22 16 C 22 19.3125 19.3125 22 16 22 C 12.6875 22 10 19.3125 10 16 C 10 12.6875 12.6875 10 16 10 Z M 4.375 13.082031 L 0 16 L 4.371094 18.914062 C 4.128906 17.960938 4.003906 16.984375 4 16 C 4.003906 15.015625 4.128906 14.035156 4.375 13.082031 Z M 27.628906 13.085938 C 27.871094 14.039062 27.996094 15.015625 28 16 C 27.996094 16.984375 27.871094 17.964844 27.625 18.917969 L 32 16 Z M 5.71875 22.199219 L 4.6875 27.3125 L 9.800781 26.28125 C 8.128906 25.273438 6.726562 23.871094 5.71875 22.199219 Z M 26.28125 22.199219 C 25.273438 23.871094 23.871094 25.273438 22.199219 26.28125 L 27.3125 27.3125 Z M 13.082031 27.625 L 16 32 L 18.914062 27.628906 C 17.960938 27.871094 16.984375 27.996094 16 28 C 15.015625 27.996094 14.035156 27.871094 13.082031 27.625 Z M 13.082031 27.625 "/>
</g>
</svg>
