<?xml version="1.0" encoding="UTF-8"?>
<svg xmlns="http://www.w3.org/2000/svg" xmlns:xlink="http://www.w3.org/1999/xlink" width="32px" height="32px" viewBox="0 0 32 32" version="1.1">
<g id="surface1">
<path style="fill-rule:nonzero;fill:rgb(94.117647%,89.019608%,92.54902%);fill-opacity:1;stroke-width:1;stroke-linecap:round;stroke-linejoin:round;stroke:rgb(90.196079%,0.784314%,70.588237%);stroke-opacity:1;stroke-miterlimit:4;" d="M 3.5 1.634766 L 12.5 1.634766 C 13.052734 1.634766 13.5 2.082031 13.5 2.634766 L 13.5 13.634766 C 13.5 14.1875 13.052734 14.634766 12.5 14.634766 L 3.5 14.634766 C 2.947266 14.634766 2.5 14.1875 2.5 13.634766 L 2.5 2.634766 C 2.5 2.082031 2.947266 1.634766 3.5 1.634766 Z M 3.5 1.634766 " transform="matrix(2,0,0,2,0,0)"/>
<path style=" stroke:none;fill-rule:nonzero;fill:rgb(90.196079%,0.784314%,70.588237%);fill-opacity:1;" d="M 10 16 L 22 16 C 22.550781 16 23 16.449219 23 17 C 23 17.550781 22.550781 18 22 18 L 10 18 C 9.449219 18 9 17.550781 9 17 C 9 16.449219 9.449219 16 10 16 Z M 10 16 "/>
<path style=" stroke:none;fill-rule:nonzero;fill:rgb(61.56863%,22.745098%,60.784316%);fill-opacity:1;" d="M 10 12 L 22 12 C 22.550781 12 23 12.449219 23 13 C 23 13.550781 22.550781 14 22 14 L 10 14 C 9.449219 14 9 13.550781 9 13 C 9 12.449219 9.449219 12 10 12 Z M 10 12 "/>
<path style=" stroke:none;fill-rule:nonzero;fill:rgb(90.196079%,0.784314%,70.588237%);fill-opacity:1;" d="M 10 20 L 22 20 C 22.550781 20 23 20.449219 23 21 C 23 21.550781 22.550781 22 22 22 L 10 22 C 9.449219 22 9 21.550781 9 21 C 9 20.449219 9.449219 20 10 20 Z M 10 20 "/>
<path style="fill-rule:nonzero;fill:rgb(61.56863%,22.745098%,60.784316%);fill-opacity:1;stroke-width:0.25;stroke-linecap:butt;stroke-linejoin:miter;stroke:rgb(61.56863%,22.745098%,60.784316%);stroke-opacity:1;stroke-miterlimit:4;" d="M 6.9375 3.634766 C 6.96875 3.298828 7.210938 3.054688 7.513672 3.054688 C 7.716797 3.054688 7.902344 3.162109 8.005859 3.332031 C 8.109375 3.160156 8.287109 3.054688 8.486328 3.054688 C 8.789062 3.054688 9.03125 3.298828 9.0625 3.634766 C 9.064453 3.650391 9.074219 3.728516 9.044922 3.855469 C 9 4.039062 8.898438 4.207031 8.75 4.337891 L 8.005859 5 L 7.25 4.337891 C 7.101562 4.207031 7 4.039062 6.955078 3.855469 C 6.923828 3.728516 6.935547 3.650391 6.9375 3.634766 Z M 7.035156 3.835938 C 7.076172 4.003906 7.169922 4.158203 7.304688 4.279297 L 8.005859 4.892578 L 8.693359 4.279297 C 8.830078 4.158203 8.923828 4.003906 8.964844 3.835938 C 8.994141 3.716797 8.982422 3.648438 8.982422 3.648438 L 8.980469 3.642578 C 8.955078 3.349609 8.746094 3.134766 8.486328 3.134766 C 8.292969 3.134766 8.125 3.251953 8.042969 3.4375 L 8.005859 3.525391 L 7.96875 3.4375 C 7.888672 3.253906 7.710938 3.134766 7.513672 3.134766 C 7.253906 3.134766 7.044922 3.349609 7.017578 3.646484 C 7.017578 3.648438 7.005859 3.716797 7.035156 3.835938 Z M 7.035156 3.835938 " transform="matrix(2,0,0,2,0,0)"/>
<path style=" stroke:none;fill-rule:nonzero;fill:rgb(61.56863%,22.745098%,60.784316%);fill-opacity:1;" d="M 10 24 L 22 24 C 22.550781 24 23 24.449219 23 25 C 23 25.550781 22.550781 26 22 26 L 10 26 C 9.449219 26 9 25.550781 9 25 C 9 24.449219 9.449219 24 10 24 Z M 10 24 "/>
</g>
</svg>
