<?xml version="1.0" encoding="UTF-8"?>
<svg xmlns="http://www.w3.org/2000/svg" xmlns:xlink="http://www.w3.org/1999/xlink" width="32px" height="32px" viewBox="0 0 32 32" version="1.1">
<g id="surface1">
<path style=" stroke:none;fill-rule:nonzero;fill:rgb(33.333334%,34.117648%,32.549021%);fill-opacity:1;" d="M 26 4 L 26 6 C 26 6.515625 25.742188 7.058594 25.375 7.4375 L 16 16 L 25.375 24.5625 C 25.742188 24.941406 26 26.515625 26 26 L 26 28 L 24 28 C 23.382812 28 22.894531 27.820312 22.5 27.4375 C 19.667969 25.292969 12.832031 18.144531 10 16 L 22.5 4.5625 C 22.894531 4.179688 23.382812 4 24 4 Z M 8 4 L 8 28 L 4 28 L 4 4 Z M 26 14 C 27.105469 14 28 14.894531 28 16 C 28 17.105469 27.105469 18 26 18 C 24.894531 18 24 17.105469 24 16 C 24 14.894531 24.894531 14 26 14 Z M 26 14 "/>
</g>
</svg>
