<?xml version="1.0" encoding="UTF-8"?>
<svg xmlns="http://www.w3.org/2000/svg" xmlns:xlink="http://www.w3.org/1999/xlink" width="32px" height="32px" viewBox="0 0 32 32" version="1.1">
<defs>
<filter id="alpha" filterUnits="objectBoundingBox" x="0%" y="0%" width="100%" height="100%">
  <feColorMatrix type="matrix" in="SourceGraphic" values="0 0 0 0 1 0 0 0 0 1 0 0 0 0 1 0 0 0 1 0"/>
</filter>
<mask id="mask0">
  <g filter="url(#alpha)">
<rect x="0" y="0" width="32" height="32" style="fill:rgb(0%,0%,0%);fill-opacity:0.35;stroke:none;"/>
  </g>
</mask>
<clipPath id="clip1">
  <rect x="0" y="0" width="32" height="32"/>
</clipPath>
<g id="surface5" clip-path="url(#clip1)">
<path style=" stroke:none;fill-rule:nonzero;fill:rgb(33.333334%,34.117648%,32.549021%);fill-opacity:1;" d="M 16 2 C 15.765625 2 15.527344 2.003906 15.292969 2.015625 C 15.289062 2.015625 15.285156 2.015625 15.28125 2.015625 C 12.121094 2.246094 9.980469 3.082031 7.625 4.730469 C 6.566406 5.703125 6.003906 6.839844 6 8 C 6 11.3125 10.476562 14 16 14 C 21.523438 14 26 11.3125 26 8 C 26 6.855469 25.449219 5.734375 24.421875 4.769531 L 24.414062 4.757812 L 23.476562 4.027344 C 21.582031 2.742188 18.859375 2.003906 16 2 Z M 6 12.410156 L 6 24 C 6 27.3125 10.476562 30 16 30 C 21.523438 30 26 27.3125 26 24 L 26 12.414062 C 23.78125 14.652344 20.023438 16 16 16 C 11.972656 15.996094 8.21875 14.648438 6 12.410156 Z M 6 12.410156 "/>
</g>
</defs>
<g id="surface1">
<use xlink:href="#surface5" mask="url(#mask0)"/>
<path style=" stroke:none;fill-rule:nonzero;fill:rgb(33.333334%,34.117648%,32.549021%);fill-opacity:1;" d="M 16 0 C 15.734375 0 15.46875 0.00390625 15.207031 0.015625 L 15.195312 0.015625 L 15.132812 0.0195312 C 11.691406 0.273438 9.039062 1.296875 6.476562 3.09375 L 6.367188 3.167969 L 6.269531 3.257812 C 4.996094 4.429688 4.117188 5.964844 4 7.625 C 4 7.625 4.027344 7.890625 4 7.996094 L 4 24 C 4 26.558594 5.703125 28.640625 7.898438 29.957031 C 10.09375 31.273438 12.914062 32 16 32 C 19.085938 32 21.90625 31.273438 24.101562 29.957031 C 26.296875 28.640625 28 26.558594 28 24 L 28 7.996094 C 28 7.996094 28.027344 7.753906 28 7.636719 C 27.886719 5.996094 27.03125 4.472656 25.789062 3.308594 L 26.085938 3.660156 L 25.898438 3.378906 L 24.652344 2.410156 L 24.601562 2.371094 C 22.265625 0.785156 19.207031 0.00390625 16.003906 0 Z M 15.996094 4 L 16 4 C 18.511719 4.003906 20.890625 4.695312 22.34375 5.679688 L 22.929688 6.136719 L 22.886719 6.070312 L 23.054688 6.230469 C 23.777344 6.90625 24 7.492188 24 8 C 24 8.757812 23.46875 9.671875 22.042969 10.527344 C 20.617188 11.382812 18.4375 12 16 12 C 13.5625 12 11.382812 11.382812 9.957031 10.527344 C 8.535156 9.671875 8 8.757812 8 8.003906 L 8 8 C 8.003906 7.503906 8.265625 6.929688 8.941406 6.277344 C 11 4.863281 12.628906 4.222656 15.414062 4.015625 C 15.609375 4.007812 15.800781 4 15.996094 4 Z M 8 15.929688 C 10.378906 17.148438 13.039062 17.996094 16 18 C 18.957031 18 21.621094 17.152344 24 15.933594 L 24 24 C 24 24.757812 23.46875 25.671875 22.042969 26.527344 C 20.617188 27.382812 18.4375 28 16 28 C 13.5625 28 11.382812 27.382812 9.957031 26.527344 C 8.53125 25.671875 8 24.757812 8 24 Z M 8 15.929688 "/>
</g>
</svg>
