<?xml version="1.0" encoding="UTF-8"?>
<svg xmlns="http://www.w3.org/2000/svg" xmlns:xlink="http://www.w3.org/1999/xlink" width="32px" height="32px" viewBox="0 0 32 32" version="1.1">
<defs>
<filter id="alpha" filterUnits="objectBoundingBox" x="0%" y="0%" width="100%" height="100%">
  <feColorMatrix type="matrix" in="SourceGraphic" values="0 0 0 0 1 0 0 0 0 1 0 0 0 0 1 0 0 0 1 0"/>
</filter>
<mask id="mask0">
  <g filter="url(#alpha)">
<rect x="0" y="0" width="32" height="32" style="fill:rgb(0%,0%,0%);fill-opacity:0.35;stroke:none;"/>
  </g>
</mask>
<clipPath id="clip1">
  <rect x="0" y="0" width="32" height="32"/>
</clipPath>
<g id="surface5" clip-path="url(#clip1)">
<path style=" stroke:none;fill-rule:nonzero;fill:rgb(33.333334%,34.117648%,32.549021%);fill-opacity:1;" d="M 8 6 C 4.6875 6 2 10.476562 2 16 C 2 21.523438 4.6875 26 8 26 L 24 26 C 27.3125 26 30 21.523438 30 16 C 30 10.476562 27.3125 6 24 6 Z M 8 6 "/>
</g>
</defs>
<g id="surface1">
<use xlink:href="#surface5" mask="url(#mask0)"/>
<path style=" stroke:none;fill-rule:nonzero;fill:rgb(33.333334%,34.117648%,32.549021%);fill-opacity:1;" d="M 8 4 C 5.441406 4 3.359375 5.703125 2.042969 7.898438 C 0.726562 10.09375 0 12.914062 0 16 C 0 19.085938 0.726562 21.90625 2.042969 24.101562 C 3.359375 26.296875 5.441406 28 8 28 L 24 28 C 26.558594 28 28.640625 26.296875 29.957031 24.101562 C 31.273438 21.90625 32 19.085938 32 16 C 32 12.914062 31.273438 10.09375 29.957031 7.898438 C 28.640625 5.703125 26.558594 4 24 4 Z M 8 8 L 24 8 C 24.757812 8 25.671875 8.53125 26.527344 9.957031 C 27.382812 11.382812 28 13.5625 28 16 C 28 18.4375 27.382812 20.617188 26.527344 22.042969 C 25.671875 23.46875 24.757812 24 24 24 L 8 24 C 7.242188 24 6.328125 23.46875 5.472656 22.042969 C 4.617188 20.617188 4 18.4375 4 16 C 4 13.5625 4.617188 11.382812 5.472656 9.957031 C 6.328125 8.53125 7.242188 8 8 8 Z M 8 8 "/>
</g>
</svg>
