<?xml version="1.0" encoding="UTF-8"?>
<svg xmlns="http://www.w3.org/2000/svg" xmlns:xlink="http://www.w3.org/1999/xlink" width="32px" height="32px" viewBox="0 0 32 32" version="1.1">
<defs>
<filter id="alpha" filterUnits="objectBoundingBox" x="0%" y="0%" width="100%" height="100%">
  <feColorMatrix type="matrix" in="SourceGraphic" values="0 0 0 0 1 0 0 0 0 1 0 0 0 0 1 0 0 0 1 0"/>
</filter>
<mask id="mask0">
  <g filter="url(#alpha)">
<rect x="0" y="0" width="32" height="32" style="fill:rgb(0%,0%,0%);fill-opacity:0.35;stroke:none;"/>
  </g>
</mask>
<clipPath id="clip1">
  <rect x="0" y="0" width="32" height="32"/>
</clipPath>
<g id="surface5" clip-path="url(#clip1)">
<path style=" stroke:none;fill-rule:nonzero;fill:rgb(33.333334%,34.117648%,32.549021%);fill-opacity:1;" d="M 16 8 C 9.371094 8 4 11.582031 4 16 C 4 20.417969 9.371094 24 16 24 C 22.628906 24 28 20.417969 28 16 C 28 11.582031 22.628906 8 16 8 Z M 16 8 "/>
</g>
</defs>
<g id="surface1">
<path style=" stroke:none;fill-rule:nonzero;fill:rgb(33.333334%,34.117648%,32.549021%);fill-opacity:1;" d="M 16 6 C 8.269531 6 2 10.476562 2 16 C 2 21.523438 8.269531 26 16 26 L 30 26 L 30 24 L 26.054688 22.945312 C 28.601562 21.097656 29.996094 18.613281 30 16 C 30 10.476562 23.730469 6 16 6 Z M 16 10 C 21.523438 10 26 12.6875 26 16 C 26 19.3125 21.523438 22 16 22 C 10.476562 22 6 19.3125 6 16 C 6 12.6875 10.476562 10 16 10 Z M 16 10 "/>
<use xlink:href="#surface5" mask="url(#mask0)"/>
</g>
</svg>
