<?xml version="1.0" encoding="UTF-8"?>
<svg xmlns="http://www.w3.org/2000/svg" xmlns:xlink="http://www.w3.org/1999/xlink" width="32px" height="32px" viewBox="0 0 32 32" version="1.1">
<defs>
<filter id="alpha" filterUnits="objectBoundingBox" x="0%" y="0%" width="100%" height="100%">
  <feColorMatrix type="matrix" in="SourceGraphic" values="0 0 0 0 1 0 0 0 0 1 0 0 0 0 1 0 0 0 1 0"/>
</filter>
<mask id="mask0">
  <g filter="url(#alpha)">
<rect x="0" y="0" width="32" height="32" style="fill:rgb(0%,0%,0%);fill-opacity:0.35;stroke:none;"/>
  </g>
</mask>
<clipPath id="clip1">
  <rect x="0" y="0" width="32" height="32"/>
</clipPath>
<g id="surface5" clip-path="url(#clip1)">
<path style=" stroke:none;fill-rule:nonzero;fill:rgb(33.333334%,34.117648%,32.549021%);fill-opacity:1;" d="M 10 6 C 6.6875 6 4 10.476562 4 16 C 4 21.523438 6.6875 26 10 26 L 25.589844 26 C 23.351562 23.78125 22.003906 20.027344 22 16 C 22 11.976562 23.347656 8.21875 25.585938 6 Z M 10 6 "/>
</g>
</defs>
<g id="surface1">
<use xlink:href="#surface5" mask="url(#mask0)"/>
<path style=" stroke:none;fill-rule:nonzero;fill:rgb(33.333334%,34.117648%,32.549021%);fill-opacity:1;" d="M 10 4 C 7.441406 4 5.359375 5.703125 4.042969 7.898438 C 2.726562 10.09375 2 12.914062 2 16 C 2 19.085938 2.726562 21.90625 4.042969 24.101562 C 5.359375 26.296875 7.441406 28 10 28 L 30.449219 28 L 26.996094 24.578125 C 25.273438 22.871094 24.003906 19.578125 24 16 C 24 12.421875 25.273438 9.125 26.996094 7.417969 L 30.441406 4 Z M 10 8 L 22.066406 8 C 20.847656 10.378906 20 13.042969 20 16 C 20.003906 18.960938 20.851562 21.621094 22.070312 24 L 10 24 C 9.242188 24 8.328125 23.46875 7.472656 22.042969 C 6.617188 20.617188 6 18.4375 6 16 C 6 13.5625 6.617188 11.382812 7.472656 9.957031 C 8.328125 8.53125 9.242188 8 10 8 Z M 10 8 "/>
</g>
</svg>
