<?xml version="1.0" encoding="UTF-8"?>
<svg xmlns="http://www.w3.org/2000/svg" xmlns:xlink="http://www.w3.org/1999/xlink" width="32px" height="32px" viewBox="0 0 32 32" version="1.1">
<defs>
<filter id="alpha" filterUnits="objectBoundingBox" x="0%" y="0%" width="100%" height="100%">
  <feColorMatrix type="matrix" in="SourceGraphic" values="0 0 0 0 1 0 0 0 0 1 0 0 0 0 1 0 0 0 1 0"/>
</filter>
<mask id="mask0">
  <g filter="url(#alpha)">
<rect x="0" y="0" width="32" height="32" style="fill:rgb(0%,0%,0%);fill-opacity:0.35;stroke:none;"/>
  </g>
</mask>
<clipPath id="clip1">
  <rect x="0" y="0" width="32" height="32"/>
</clipPath>
<g id="surface5" clip-path="url(#clip1)">
<path style=" stroke:none;fill-rule:nonzero;fill:rgb(33.333334%,34.117648%,32.549021%);fill-opacity:1;" d="M 9.601562 6 L 4.398438 16 L 9.601562 26 L 22 26 C 25.3125 26 28 21.523438 28 16 C 28 10.476562 25.3125 6 22 6 Z M 9.601562 6 "/>
</g>
</defs>
<g id="surface1">
<use xlink:href="#surface5" mask="url(#mask0)"/>
<path style=" stroke:none;fill-rule:nonzero;fill:rgb(33.333334%,34.117648%,32.549021%);fill-opacity:1;" d="M 8.386719 4 L 7.824219 5.078125 L 2.144531 16 L 8.386719 28 L 22 28 C 24.558594 28 26.640625 26.296875 27.957031 24.101562 C 29.273438 21.90625 30 19.085938 30 16 C 30 12.914062 29.273438 10.09375 27.957031 7.898438 C 26.640625 5.703125 24.558594 4 22 4 Z M 10.8125 8 L 22 8 C 22.757812 8 23.671875 8.53125 24.527344 9.957031 C 25.382812 11.382812 26 13.5625 26 16 C 26 18.4375 25.382812 20.617188 24.527344 22.042969 C 23.671875 23.46875 22.757812 24 22 24 L 10.8125 24 L 6.652344 16 Z M 10.8125 8 "/>
</g>
</svg>
