<?xml version="1.0" encoding="UTF-8"?>
<svg xmlns="http://www.w3.org/2000/svg" xmlns:xlink="http://www.w3.org/1999/xlink" width="32px" height="32px" viewBox="0 0 32 32" version="1.1">
<defs>
<filter id="alpha" filterUnits="objectBoundingBox" x="0%" y="0%" width="100%" height="100%">
  <feColorMatrix type="matrix" in="SourceGraphic" values="0 0 0 0 1 0 0 0 0 1 0 0 0 0 1 0 0 0 1 0"/>
</filter>
<mask id="mask0">
  <g filter="url(#alpha)">
<rect x="0" y="0" width="32" height="32" style="fill:rgb(0%,0%,0%);fill-opacity:0.35;stroke:none;"/>
  </g>
</mask>
<clipPath id="clip1">
  <rect x="0" y="0" width="32" height="32"/>
</clipPath>
<g id="surface5" clip-path="url(#clip1)">
<path style=" stroke:none;fill-rule:nonzero;fill:rgb(33.333334%,34.117648%,32.549021%);fill-opacity:1;" d="M 6 18 L 6 23.101562 C 5.726562 24.96875 7.015625 26 10 26 C 11.699219 26 12.703125 25.3125 14.4375 24.28125 C 15.777344 23.484375 15.691406 22.71875 18 22.339844 L 18 18 Z M 6 18 "/>
</g>
</defs>
<g id="surface1">
<path style=" stroke:none;fill-rule:nonzero;fill:rgb(33.333334%,34.117648%,32.549021%);fill-opacity:1;" d="M 10 2 L 10 6 L 28 6 L 28 16 L 30 16 L 30 2 Z M 6 8 L 6 12 L 24 12 L 24 22 L 26 22 L 26 8 Z M 2 14 L 2 26 C 2 26 5.433594 30 10 30 C 14.566406 30 16 26 22 26 L 22 14 Z M 6 18 L 18 18 L 18 22.339844 C 15.691406 22.71875 15.777344 23.484375 14.4375 24.28125 C 12.703125 25.3125 11.699219 26 10 26 C 9.628906 26 9.261719 25.964844 8.910156 25.902344 C 6.445312 25.457031 6 24 6 23.101562 Z M 6 18 "/>
<use xlink:href="#surface5" mask="url(#mask0)"/>
</g>
</svg>
