<?xml version="1.0" encoding="UTF-8"?>
<svg xmlns="http://www.w3.org/2000/svg" xmlns:xlink="http://www.w3.org/1999/xlink" width="32px" height="32px" viewBox="0 0 32 32" version="1.1">
<defs>
<filter id="alpha" filterUnits="objectBoundingBox" x="0%" y="0%" width="100%" height="100%">
  <feColorMatrix type="matrix" in="SourceGraphic" values="0 0 0 0 1 0 0 0 0 1 0 0 0 0 1 0 0 0 1 0"/>
</filter>
<mask id="mask0">
  <g filter="url(#alpha)">
<rect x="0" y="0" width="32" height="32" style="fill:rgb(0%,0%,0%);fill-opacity:0.35;stroke:none;"/>
  </g>
</mask>
<clipPath id="clip1">
  <rect x="0" y="0" width="32" height="32"/>
</clipPath>
<g id="surface5" clip-path="url(#clip1)">
<path style=" stroke:none;fill-rule:nonzero;fill:rgb(33.333334%,34.117648%,32.549021%);fill-opacity:1;" d="M 24.484375 7.515625 C 19.800781 2.828125 12.199219 2.828125 7.515625 7.515625 C 2.828125 12.199219 2.828125 19.800781 7.515625 24.484375 C 12.199219 29.171875 19.800781 29.171875 24.484375 24.484375 C 29.171875 19.800781 29.171875 12.199219 24.484375 7.515625 Z M 24.484375 7.515625 "/>
</g>
</defs>
<g id="surface1">
<path style=" stroke:none;fill-rule:nonzero;fill:rgb(33.333334%,34.117648%,32.549021%);fill-opacity:1;" d="M 25.898438 6.101562 C 20.433594 0.632812 11.566406 0.632812 6.101562 6.101562 C 0.632812 11.566406 0.632812 20.433594 6.101562 25.898438 C 11.566406 31.367188 20.433594 31.367188 25.898438 25.898438 C 31.367188 20.433594 31.367188 11.566406 25.898438 6.101562 Z M 22.949219 6.222656 L 16 13.171875 L 9.054688 6.226562 C 13.214844 3.273438 18.789062 3.269531 22.949219 6.222656 Z M 25.773438 9.054688 C 28.726562 13.214844 28.730469 18.789062 25.777344 22.949219 L 18.828125 16 Z M 6.222656 9.050781 L 13.171875 16 L 6.226562 22.945312 C 3.273438 18.785156 3.269531 13.210938 6.222656 9.050781 Z M 16 18.828125 L 22.945312 25.773438 C 18.785156 28.726562 13.210938 28.730469 9.050781 25.777344 Z M 16 18.828125 "/>
<use xlink:href="#surface5" mask="url(#mask0)"/>
</g>
</svg>
