<?xml version="1.0" encoding="UTF-8"?>
<svg xmlns="http://www.w3.org/2000/svg" xmlns:xlink="http://www.w3.org/1999/xlink" width="32px" height="32px" viewBox="0 0 32 32" version="1.1">
<defs>
<filter id="alpha" filterUnits="objectBoundingBox" x="0%" y="0%" width="100%" height="100%">
  <feColorMatrix type="matrix" in="SourceGraphic" values="0 0 0 0 1 0 0 0 0 1 0 0 0 0 1 0 0 0 1 0"/>
</filter>
<mask id="mask0">
  <g filter="url(#alpha)">
<rect x="0" y="0" width="32" height="32" style="fill:rgb(0%,0%,0%);fill-opacity:0.35;stroke:none;"/>
  </g>
</mask>
<clipPath id="clip1">
  <rect x="0" y="0" width="32" height="32"/>
</clipPath>
<g id="surface5" clip-path="url(#clip1)">
<path style=" stroke:none;fill-rule:nonzero;fill:rgb(33.333334%,34.117648%,32.549021%);fill-opacity:1;" d="M 2 6 L 28 6 L 28 22.070312 C 26.535156 20.8125 24.402344 20 22 20 C 18.613281 20.003906 15.746094 21.605469 14.617188 24 C 13.9375 25.234375 11.3125 28 8 28 C 4.6875 28 2 26.210938 2 24 Z M 2 6 "/>
</g>
</defs>
<g id="surface1">
<use xlink:href="#surface5" mask="url(#mask0)"/>
<path style=" stroke:none;fill-rule:nonzero;fill:rgb(33.333334%,34.117648%,32.549021%);fill-opacity:1;" d="M 0 4 L 0 24 C 0 25.914062 1.171875 27.507812 2.648438 28.492188 C 4.125 29.476562 5.984375 30 8 30 C 10.214844 30 12.082031 29.09375 13.476562 28.074219 C 14.871094 27.054688 15.808594 25.980469 16.367188 24.964844 L 16.398438 24.910156 L 16.425781 24.851562 C 17.144531 23.324219 19.242188 22 22 22 C 23.953125 22 25.636719 22.679688 26.699219 23.589844 L 30 26.421875 L 30 4 Z M 4 8 L 26 8 L 26 18.671875 C 24.769531 18.238281 23.421875 18 22 18 C 17.984375 18.003906 14.347656 19.882812 12.808594 23.148438 L 12.867188 23.035156 C 12.746094 23.253906 12.027344 24.175781 11.113281 24.847656 C 10.199219 25.519531 9.101562 26 8 26 C 6.703125 26 5.5625 25.628906 4.867188 25.164062 C 4.171875 24.699219 4 24.292969 4 24 Z M 4 8 "/>
</g>
</svg>
