<?xml version="1.0" encoding="UTF-8"?>
<svg xmlns="http://www.w3.org/2000/svg" xmlns:xlink="http://www.w3.org/1999/xlink" width="32px" height="32px" viewBox="0 0 32 32" version="1.1">
<defs>
<filter id="alpha" filterUnits="objectBoundingBox" x="0%" y="0%" width="100%" height="100%">
  <feColorMatrix type="matrix" in="SourceGraphic" values="0 0 0 0 1 0 0 0 0 1 0 0 0 0 1 0 0 0 1 0"/>
</filter>
<mask id="mask0">
  <g filter="url(#alpha)">
<rect x="0" y="0" width="32" height="32" style="fill:rgb(0%,0%,0%);fill-opacity:0.35;stroke:none;"/>
  </g>
</mask>
<clipPath id="clip1">
  <rect x="0" y="0" width="32" height="32"/>
</clipPath>
<g id="surface5" clip-path="url(#clip1)">
<path style=" stroke:none;fill-rule:nonzero;fill:rgb(33.333334%,34.117648%,32.549021%);fill-opacity:1;" d="M 25.160156 5.851562 C 26.828125 5.746094 28.308594 6.167969 30 6.9375 L 30 20.78125 C 28.402344 20.136719 26.808594 19.742188 25.035156 19.855469 C 22.355469 20.023438 19.410156 21.265625 15.4375 23.976562 C 11.777344 26.476562 8.753906 26.339844 6.226562 25.453125 C 4.464844 24.835938 3.128906 23.894531 2 23.042969 L 2 9.515625 C 2.976562 10.171875 4.128906 10.835938 5.5625 11.339844 C 8.542969 12.382812 12.429688 12.449219 16.5625 9.625 C 20.386719 7.015625 23.007812 5.988281 25.160156 5.851562 Z M 25.160156 5.851562 "/>
</g>
</defs>
<g id="surface1">
<use xlink:href="#surface5" mask="url(#mask0)"/>
<path style=" stroke:none;fill-rule:nonzero;fill:rgb(33.333334%,34.117648%,32.549021%);fill-opacity:1;" d="M 25.035156 3.855469 C 22.351562 4.023438 19.40625 5.257812 15.433594 7.972656 C 11.792969 10.457031 8.714844 10.328125 6.222656 9.453125 C 4.992188 9.023438 4.007812 8.457031 3.113281 7.855469 L 0 5.761719 L 0 24.039062 L 0.796875 24.640625 C 1.96875 25.523438 3.503906 26.617188 5.566406 27.339844 C 8.503906 28.371094 12.453125 28.4375 16.566406 25.628906 C 20.390625 23.015625 23 21.988281 25.160156 21.851562 C 26.566406 21.761719 27.820312 22.058594 29.25 22.636719 L 32 23.746094 L 32 5.648438 L 30.828125 5.117188 C 28.988281 4.28125 27.113281 3.726562 25.035156 3.855469 Z M 25.285156 7.847656 C 26.164062 7.792969 27.074219 8.164062 28 8.484375 L 28 18.421875 C 26.976562 18.203125 26.042969 17.789062 24.910156 17.859375 C 21.707031 18.0625 18.425781 19.511719 14.308594 22.324219 C 11.097656 24.515625 9.003906 24.308594 6.886719 23.566406 C 5.742188 23.164062 4.878906 22.523438 4 21.902344 L 4 12.765625 C 4.335938 12.910156 4.535156 13.097656 4.902344 13.226562 C 8.371094 14.441406 13.0625 14.4375 17.691406 11.277344 C 21.367188 8.769531 23.660156 7.949219 25.285156 7.847656 Z M 25.285156 7.847656 "/>
</g>
</svg>
