<?xml version="1.0" encoding="UTF-8"?>
<svg xmlns="http://www.w3.org/2000/svg" xmlns:xlink="http://www.w3.org/1999/xlink" width="32px" height="32px" viewBox="0 0 32 32" version="1.1">
<g id="surface1">
<path style=" stroke:none;fill-rule:nonzero;fill:rgb(90.196079%,0.784314%,70.588237%);fill-opacity:1;" d="M 13.960938 4 C 13.675781 4 13.394531 4.074219 13.144531 4.21875 L 2.921875 10.058594 C 2.355469 10.378906 2 11.011719 2 11.699219 L 2 20.550781 C 2 21.242188 2.355469 21.875 2.921875 22.195312 L 13.144531 28.035156 C 13.394531 28.179688 13.675781 28.253906 13.960938 28.253906 L 18.039062 28.253906 C 18.324219 28.253906 18.605469 28.179688 18.855469 28.035156 L 29.078125 22.195312 C 29.644531 21.875 30 21.242188 30 20.550781 L 30 11.699219 C 30 11.011719 29.644531 10.378906 29.078125 10.058594 L 18.855469 4.21875 C 18.605469 4.074219 18.324219 4 18.039062 4 Z M 13.960938 4 "/>
<path style=" stroke:none;fill-rule:nonzero;fill:rgb(94.117647%,89.019608%,92.54902%);fill-opacity:1;" d="M 14.039062 6.253906 L 4.203125 11.871094 L 4.203125 20.382812 L 14.039062 26 L 17.960938 26 L 27.796875 20.382812 L 27.796875 11.871094 L 17.960938 6.253906 Z M 14.039062 6.253906 "/>
</g>
</svg>
