<?xml version="1.0" encoding="UTF-8"?>
<svg xmlns="http://www.w3.org/2000/svg" xmlns:xlink="http://www.w3.org/1999/xlink" width="32px" height="32px" viewBox="0 0 32 32" version="1.1">
<g id="surface1">
<path style=" stroke:none;fill-rule:nonzero;fill:rgb(90.196079%,0.784314%,70.588237%);fill-opacity:1;" d="M 28.171875 3.976562 C 27.945312 3.984375 27.726562 4.039062 27.519531 4.144531 C 19.167969 8.390625 11.746094 11.515625 3.148438 15.351562 C 2.480469 15.652344 2.039062 16.390625 2.039062 17.210938 L 2.039062 26.03125 C 2.039062 26.691406 2.328125 27.3125 2.804688 27.683594 C 3.28125 28.054688 3.886719 28.128906 4.421875 27.882812 L 28.867188 16.640625 C 29.527344 16.335938 29.960938 15.601562 29.960938 14.789062 L 29.960938 5.96875 C 29.960938 5.429688 29.769531 4.914062 29.433594 4.539062 C 29.097656 4.164062 28.640625 3.960938 28.171875 3.976562 Z M 28.171875 3.976562 "/>
<path style=" stroke:none;fill-rule:nonzero;fill:rgb(94.117647%,89.019608%,92.54902%);fill-opacity:1;" d="M 27.996094 14.816406 L 4.003906 25.804688 L 4.003906 17.183594 C 12.421875 13.441406 19.738281 10.375 27.996094 6.195312 Z M 27.996094 14.816406 "/>
</g>
</svg>
