<?xml version="1.0" encoding="UTF-8"?>
<svg xmlns="http://www.w3.org/2000/svg" xmlns:xlink="http://www.w3.org/1999/xlink" width="32px" height="32px" viewBox="0 0 32 32" version="1.1">
<g id="surface1">
<path style=" stroke:none;fill-rule:nonzero;fill:rgb(90.196079%,0.784314%,70.588237%);fill-opacity:1;" d="M 16 2.253906 C 8.289062 2.253906 2.039062 8.507812 2.039062 16.21875 L 7.273438 16.21875 C 7.273438 11.398438 11.179688 7.492188 16 7.492188 C 20.820312 7.492188 24.726562 11.398438 24.726562 16.21875 L 29.960938 16.21875 C 29.960938 8.507812 23.710938 2.253906 16 2.253906 Z M 16 2.253906 "/>
<path style=" stroke:none;fill-rule:nonzero;fill:rgb(94.117647%,89.019608%,92.54902%);fill-opacity:1;" d="M 16 4 C 9.929688 4.007812 4.789062 8.464844 3.921875 14.472656 L 5.6875 14.472656 C 6.535156 9.4375 10.894531 5.75 16 5.746094 C 21.109375 5.746094 25.472656 9.433594 26.324219 14.472656 L 28.078125 14.472656 C 27.210938 8.46875 22.066406 4.007812 16 4 Z M 16 4 "/>
<path style=" stroke:none;fill-rule:nonzero;fill:rgb(90.196079%,0.784314%,70.588237%);fill-opacity:1;" d="M 7.546875 16.210938 C 6.609375 16.210938 5.847656 17.085938 5.847656 18.167969 L 5.847656 20.117188 C 5.847656 21.199219 6.609375 22.078125 7.546875 22.078125 L 24.453125 22.078125 C 25.390625 22.078125 26.152344 21.199219 26.152344 20.117188 L 26.152344 18.167969 C 26.152344 17.085938 25.390625 16.210938 24.453125 16.210938 Z M 7.546875 16.210938 "/>
<path style=" stroke:none;fill-rule:nonzero;fill:rgb(94.117647%,89.019608%,92.54902%);fill-opacity:1;" d="M 8 18 L 24 18 L 24 19.949219 L 8 19.949219 Z M 8 18 "/>
</g>
</svg>
