<?xml version="1.0" encoding="UTF-8"?>
<svg xmlns="http://www.w3.org/2000/svg" xmlns:xlink="http://www.w3.org/1999/xlink" width="32px" height="32px" viewBox="0 0 32 32" version="1.1">
<g id="surface1">
<path style=" stroke:none;fill-rule:nonzero;fill:rgb(33.333334%,34.117648%,32.549021%);fill-opacity:1;" d="M 2 2 L 2 6 L 30 6 L 30 2 Z M 4 8 L 4 24 L 11 24 C 13.761719 24 16 21.761719 16 19 C 16 17.0625 14.875 15.300781 13.121094 14.476562 C 13.664062 13.792969 14 12.941406 14 12 C 14 9.789062 12.210938 8 10 8 Z M 18 8 L 18 24 L 24 24 C 26.210938 24 28 22.210938 28 20 C 28 17.789062 26.210938 16 24 16 L 20 16 L 20 8 Z M 6 10 L 10 10 C 11.105469 10 12 10.894531 12 12 C 12 13.105469 11.105469 14 10 14 L 6 14 Z M 6 16 L 11 16 C 12.65625 16 14 17.34375 14 19 C 14 20.65625 12.65625 22 11 22 L 6 22 Z M 20 18 L 24 18 C 25.105469 18 26 18.894531 26 20 C 26 21.105469 25.105469 22 24 22 L 20 22 Z M 2 26 L 2 30 L 30 30 L 30 26 Z M 2 26 "/>
</g>
</svg>
