<?xml version="1.0" encoding="UTF-8"?>
<svg xmlns="http://www.w3.org/2000/svg" xmlns:xlink="http://www.w3.org/1999/xlink" width="32px" height="32px" viewBox="0 0 32 32" version="1.1">
<g id="surface1">
<path style=" stroke:none;fill-rule:nonzero;fill:rgb(33.333334%,34.117648%,32.549021%);fill-opacity:1;" d="M 10 2 L 10 6 L 20 6 C 21.105469 6 22 6.894531 22 8 L 22 10 L 12 10 C 8.6875 10 6 12.6875 6 16 C 6 19.3125 8.6875 22 12 22 L 22 22 L 22 18 L 12 18 C 10.894531 18 10 17.105469 10 16 C 10 14.894531 10.894531 14 12 14 L 22 14 L 22 16 L 26 16 L 26 8 C 26 4.6875 23.3125 2 20 2 Z M 24 18 L 24 20 C 27.121094 23.246094 22.867188 26.996094 20 24 L 18 24 L 18 26 C 19.601562 27.542969 21.269531 28 22.800781 28 L 26 28 L 30 32 L 32 32 L 32 30 L 28 26 L 28 22.800781 C 28 21.035156 27.570312 19.601562 26 18 Z M 24 18 "/>
</g>
</svg>
