<?xml version="1.0" encoding="UTF-8"?>
<svg xmlns="http://www.w3.org/2000/svg" xmlns:xlink="http://www.w3.org/1999/xlink" width="32px" height="32px" viewBox="0 0 32 32" version="1.1">
<g id="surface1">
<path style=" stroke:none;fill-rule:nonzero;fill:rgb(33.333334%,34.117648%,32.549021%);fill-opacity:1;" d="M 16.257812 32 C 8.308594 32 1.203125 28 0 22 L 8.054688 18 C 8.726562 20.546875 11.308594 24 16.257812 24 C 21.207031 24 24.460938 20.929688 24.460938 18 L 32 22 C 29.949219 27.980469 23.402344 32 16.257812 32 Z M 16.257812 32 "/>
<path style=" stroke:none;fill-rule:nonzero;fill:rgb(33.333334%,34.117648%,32.549021%);fill-opacity:1;" d="M 16.257812 2 C 8.308594 2 1.203125 6 0 12 L 8.054688 16 C 8.726562 13.453125 11.308594 10 16.257812 10 C 21.207031 10 24.460938 13.070312 24.460938 16 L 32 12 C 29.949219 6.019531 23.402344 2 16.257812 2 Z M 16.257812 2 "/>
</g>
</svg>
