<?xml version="1.0" encoding="UTF-8"?>
<svg xmlns="http://www.w3.org/2000/svg" xmlns:xlink="http://www.w3.org/1999/xlink" width="32px" height="32px" viewBox="0 0 32 32" version="1.1">
<g id="surface1">
<path style=" stroke:none;fill-rule:nonzero;fill:rgb(33.333334%,34.117648%,32.549021%);fill-opacity:1;" d="M 0 0 L 0 6 L 6 6 L 6 0 Z M 26 0 L 26 6 L 32 6 L 32 0 Z M 10 6 L 10 10 L 18 10 C 19.105469 10 20 10.894531 20 12 L 20 14 L 12 14 C 8.6875 14 6 16.6875 6 20 C 6 23.3125 8.6875 26 12 26 L 24 26 L 24 12 C 24 8.6875 21.3125 6 18 6 Z M 12 18 L 20 18 L 20 22 L 12 22 C 10.894531 22 10 21.105469 10 20 C 10 18.894531 10.894531 18 12 18 Z M 0 26 L 0 32 L 6 32 L 6 26 Z M 26 26 L 26 32 L 32 32 L 32 26 Z M 26 26 "/>
</g>
</svg>
