<?xml version="1.0" encoding="UTF-8"?>
<svg xmlns="http://www.w3.org/2000/svg" xmlns:xlink="http://www.w3.org/1999/xlink" width="32px" height="32px" viewBox="0 0 32 32" version="1.1">
<g id="surface1">
<path style="fill-rule:nonzero;fill:rgb(90.196079%,0.784314%,70.588237%);fill-opacity:1;stroke-width:0.246526;stroke-linecap:round;stroke-linejoin:round;stroke:rgb(90.980393%,12.54902%,73.333335%);stroke-opacity:1;stroke-miterlimit:4;" d="M -15 12.124694 C -14.910156 12.126647 -14.822266 12.144225 -14.738281 12.173522 L -2.689453 16.478209 C -2.349609 16.599303 -2.125 16.919616 -2.125 17.278991 L -2.125 25.027038 C -2.125 25.359069 -2.318359 25.65985 -2.619141 25.800475 C -2.921875 25.939147 -3.277344 25.888366 -3.529297 25.673522 L -15.578125 15.343444 C -15.767578 15.181334 -15.875 14.945006 -15.875 14.696959 L -15.875 12.974303 C -15.875 12.745788 -15.783203 12.525084 -15.617188 12.364928 C -15.453125 12.204772 -15.230469 12.118834 -15 12.124694 Z M -15 12.124694 " transform="matrix(2,0,0,2,34,-21.999388)"/>
<path style=" stroke:none;fill-rule:nonzero;fill:rgb(94.117647%,89.019608%,92.54902%);fill-opacity:1;" d="M 28 12.59375 L 4 4.273438 L 4 7.601562 L 28 27.574219 Z M 28 12.59375 "/>
</g>
</svg>
