<?xml version="1.0" encoding="UTF-8"?>
<svg xmlns="http://www.w3.org/2000/svg" xmlns:xlink="http://www.w3.org/1999/xlink" width="32px" height="32px" viewBox="0 0 32 32" version="1.1">
<defs>
<filter id="alpha" filterUnits="objectBoundingBox" x="0%" y="0%" width="100%" height="100%">
  <feColorMatrix type="matrix" in="SourceGraphic" values="0 0 0 0 1 0 0 0 0 1 0 0 0 0 1 0 0 0 1 0"/>
</filter>
<mask id="mask0">
  <g filter="url(#alpha)">
<rect x="0" y="0" width="32" height="32" style="fill:rgb(0%,0%,0%);fill-opacity:0.35;stroke:none;"/>
  </g>
</mask>
<clipPath id="clip1">
  <rect x="0" y="0" width="32" height="32"/>
</clipPath>
<g id="surface5" clip-path="url(#clip1)">
<path style=" stroke:none;fill-rule:nonzero;fill:rgb(33.333334%,34.117648%,32.549021%);fill-opacity:1;" d="M 20 8 L 12 2 L 8 6 L 16 12 L 16 20 L 8 25.015625 L 8 30 L 16 26 L 20 22 Z M 20 8 "/>
</g>
</defs>
<g id="surface1">
<path style=" stroke:none;fill-rule:nonzero;fill:rgb(33.333334%,34.117648%,32.549021%);fill-opacity:1;" d="M 24 16 C 24 7.164062 16.835938 0 8 0 L 6 0 L 6 10 L 8 10 C 11.3125 10 14 12.6875 14 16 C 14 19.3125 11.3125 22 8 22 L 6 22 L 6 32 L 8 32 C 16.835938 32 24 24.835938 24 16 Z M 20 16 C 20 21.964844 15.667969 26.628906 10 27.601562 L 10 25.589844 C 14.503906 24.625 18 20.769531 18 16 C 18 11.230469 14.503906 7.375 10 6.410156 L 10 4.398438 C 15.667969 5.371094 20 10.035156 20 16 Z M 20 16 "/>
<use xlink:href="#surface5" mask="url(#mask0)"/>
</g>
</svg>
