<?xml version="1.0" encoding="UTF-8"?>
<svg xmlns="http://www.w3.org/2000/svg" xmlns:xlink="http://www.w3.org/1999/xlink" width="32px" height="32px" viewBox="0 0 32 32" version="1.1">
<defs>
<filter id="alpha" filterUnits="objectBoundingBox" x="0%" y="0%" width="100%" height="100%">
  <feColorMatrix type="matrix" in="SourceGraphic" values="0 0 0 0 1 0 0 0 0 1 0 0 0 0 1 0 0 0 1 0"/>
</filter>
<mask id="mask0">
  <g filter="url(#alpha)">
<rect x="0" y="0" width="32" height="32" style="fill:rgb(0%,0%,0%);fill-opacity:0.35;stroke:none;"/>
  </g>
</mask>
<clipPath id="clip1">
  <rect x="0" y="0" width="32" height="32"/>
</clipPath>
<g id="surface5" clip-path="url(#clip1)">
<path style=" stroke:none;fill-rule:nonzero;fill:rgb(33.333334%,34.117648%,32.549021%);fill-opacity:1;" d="M 8 22 L 2 14 L 6 10 L 12 18 L 20 18 L 25.015625 10 L 30 10 L 26 18 L 22 22 Z M 8 22 "/>
</g>
</defs>
<g id="surface1">
<path style=" stroke:none;fill-rule:nonzero;fill:rgb(33.333334%,34.117648%,32.549021%);fill-opacity:1;" d="M 16 26 C 7.164062 26 0 18.835938 0 10 L 0 8 L 10 8 L 10 10 C 10 13.3125 12.6875 16 16 16 C 19.3125 16 22 13.3125 22 10 L 22 8 L 32 8 L 32 10 C 32 18.835938 24.835938 26 16 26 Z M 16 22 C 21.964844 22 26.628906 17.667969 27.601562 12 L 25.589844 12 C 24.625 16.503906 20.769531 20 16 20 C 11.230469 20 7.375 16.503906 6.410156 12 L 4.398438 12 C 5.371094 17.667969 10.035156 22 16 22 Z M 16 22 "/>
<use xlink:href="#surface5" mask="url(#mask0)"/>
</g>
</svg>
