<?xml version="1.0" encoding="UTF-8"?>
<svg xmlns="http://www.w3.org/2000/svg" xmlns:xlink="http://www.w3.org/1999/xlink" width="32px" height="32px" viewBox="0 0 32 32" version="1.1">
<g id="surface1">
<path style=" stroke:none;fill-rule:nonzero;fill:rgb(90.196079%,0.784314%,70.588237%);fill-opacity:1;" d="M 10.601562 6.050781 C 7.082031 5.996094 5.078125 7.089844 2.984375 8.6875 C 2.519531 9.046875 2.035156 9.519531 2.035156 10.125 L 2.035156 21.890625 C 2.039062 23.46875 4.234375 24.113281 5.214844 22.820312 C 6.632812 20.953125 7.722656 20.664062 9.273438 20.828125 C 10.824219 20.992188 12.882812 21.949219 15.0625 23.25 L 15.035156 23.234375 C 18.289062 25.253906 21.070312 26.179688 23.601562 26.039062 C 26.132812 25.902344 28.175781 24.59375 29.617188 22.886719 C 29.855469 22.601562 29.984375 22.25 29.984375 21.890625 L 29.984375 10.125 C 29.984375 8.625 27.964844 7.933594 26.910156 9.074219 C 25.46875 10.628906 24.144531 11.265625 22.691406 11.292969 C 21.242188 11.316406 19.402344 10.667969 17.144531 8.894531 L 17.238281 8.972656 C 15.027344 6.964844 12.714844 6.082031 10.601562 6.050781 Z M 10.601562 6.050781 "/>
<path style=" stroke:none;fill-rule:nonzero;fill:rgb(94.117647%,89.019608%,92.54902%);fill-opacity:1;" d="M 4.027344 10.148438 L 4.027344 21.984375 C 7.328125 17.523438 11.589844 19.285156 16 21.984375 C 22.011719 25.820312 25.542969 24.945312 27.972656 21.984375 L 27.972656 10.148438 C 24.738281 13.734375 20.808594 14.023438 16 10.148438 C 10.789062 4.902344 3.835938 9.855469 4.027344 10.148438 Z M 4.027344 10.148438 "/>
</g>
</svg>
