<?xml version="1.0" encoding="UTF-8"?>
<svg xmlns="http://www.w3.org/2000/svg" xmlns:xlink="http://www.w3.org/1999/xlink" width="32px" height="32px" viewBox="0 0 32 32" version="1.1">
<g id="surface1">
<path style=" stroke:none;fill-rule:nonzero;fill:rgb(90.196079%,0.784314%,70.588237%);fill-opacity:1;" d="M 3.800781 3.976562 C 4.027344 3.984375 4.25 4.039062 4.453125 4.144531 C 12.808594 8.390625 20.230469 11.515625 28.824219 15.351562 C 29.492188 15.652344 29.933594 16.390625 29.933594 17.210938 L 29.933594 26.03125 C 29.933594 26.691406 29.648438 27.3125 29.171875 27.683594 C 28.691406 28.054688 28.085938 28.128906 27.550781 27.882812 L 3.105469 16.640625 C 2.445312 16.335938 2.015625 15.601562 2.015625 14.789062 L 2.015625 5.96875 C 2.015625 5.429688 2.203125 4.914062 2.542969 4.539062 C 2.878906 4.164062 3.332031 3.960938 3.800781 3.976562 Z M 3.800781 3.976562 "/>
<path style=" stroke:none;fill-rule:nonzero;fill:rgb(94.117647%,89.019608%,92.54902%);fill-opacity:1;" d="M 4 14.816406 L 27.992188 25.804688 L 27.992188 17.183594 C 19.570312 13.441406 12.257812 10.375 4 6.195312 Z M 4 14.816406 "/>
</g>
</svg>
