<?xml version="1.0" encoding="UTF-8"?>
<svg xmlns="http://www.w3.org/2000/svg" xmlns:xlink="http://www.w3.org/1999/xlink" width="32px" height="32px" viewBox="0 0 32 32" version="1.1">
<defs>
<filter id="alpha" filterUnits="objectBoundingBox" x="0%" y="0%" width="100%" height="100%">
  <feColorMatrix type="matrix" in="SourceGraphic" values="0 0 0 0 1 0 0 0 0 1 0 0 0 0 1 0 0 0 1 0"/>
</filter>
<mask id="mask0">
  <g filter="url(#alpha)">
<rect x="0" y="0" width="32" height="32" style="fill:rgb(0%,0%,0%);fill-opacity:0.35;stroke:none;"/>
  </g>
</mask>
<clipPath id="clip1">
  <rect x="0" y="0" width="32" height="32"/>
</clipPath>
<g id="surface5" clip-path="url(#clip1)">
<path style=" stroke:none;fill-rule:nonzero;fill:rgb(33.333334%,34.117648%,32.549021%);fill-opacity:1;" d="M 8 12 L 2 20 L 6 24 L 12 16 L 20 16 L 25.015625 24 L 30 24 L 26 16 L 22 12 Z M 8 12 "/>
</g>
</defs>
<g id="surface1">
<path style=" stroke:none;fill-rule:nonzero;fill:rgb(33.333334%,34.117648%,32.549021%);fill-opacity:1;" d="M 16 8 C 7.164062 8 0 15.164062 0 24 L 0 26 L 10 26 L 10 24 C 10 20.6875 12.6875 18 16 18 C 19.3125 18 22 20.6875 22 24 L 22 26 L 32 26 L 32 24 C 32 15.164062 24.835938 8 16 8 Z M 16 12 C 21.964844 12 26.628906 16.332031 27.601562 22 L 25.589844 22 C 24.625 17.496094 20.769531 14 16 14 C 11.230469 14 7.375 17.496094 6.410156 22 L 4.398438 22 C 5.371094 16.332031 10.035156 12 16 12 Z M 16 12 "/>
<use xlink:href="#surface5" mask="url(#mask0)"/>
</g>
</svg>
