<?xml version="1.0" encoding="UTF-8"?>
<svg xmlns="http://www.w3.org/2000/svg" xmlns:xlink="http://www.w3.org/1999/xlink" width="32px" height="32px" viewBox="0 0 32 32" version="1.1">
<g id="surface1">
<path style="fill-rule:nonzero;fill:rgb(94.117647%,89.019608%,92.54902%);fill-opacity:1;stroke-width:1;stroke-linecap:round;stroke-linejoin:round;stroke:rgb(90.196079%,0.784314%,70.588237%);stroke-opacity:1;stroke-miterlimit:4;" d="M 3.480469 1.5 L 12.519531 1.5 C 13.060547 1.5 13.5 1.939453 13.5 2.482422 L 13.5 13.517578 C 13.5 14.060547 13.060547 14.5 12.519531 14.5 L 3.480469 14.5 C 2.939453 14.5 2.5 14.060547 2.5 13.517578 L 2.5 2.482422 C 2.5 1.939453 2.939453 1.5 3.480469 1.5 Z M 3.480469 1.5 " transform="matrix(2,0,0,2,0,0)"/>
<path style="fill-rule:nonzero;fill:rgb(61.960787%,22.745098%,61.176473%);fill-opacity:1;stroke-width:0.218037;stroke-linecap:round;stroke-linejoin:round;stroke:rgb(61.960787%,22.745098%,61.176473%);stroke-opacity:1;stroke-miterlimit:4;" d="M 4.109375 3.109375 L 11.890625 3.109375 L 11.890625 3.890625 L 4.109375 3.890625 Z M 4.109375 3.109375 " transform="matrix(2,0,0,2,0,0)"/>
<path style="fill-rule:nonzero;fill:rgb(92.54902%,0.392157%,69.803923%);fill-opacity:1;stroke-width:0.215396;stroke-linecap:round;stroke-linejoin:round;stroke:rgb(92.54902%,0.392157%,69.803923%);stroke-opacity:1;stroke-miterlimit:4;" d="M 8.107422 13.107422 L 11.892578 13.107422 L 11.892578 13.892578 L 8.107422 13.892578 Z M 8.107422 13.107422 " transform="matrix(2,0,0,2,0,0)"/>
<path style="fill-rule:nonzero;fill:rgb(94.117647%,89.019608%,92.54902%);fill-opacity:1;stroke-width:0.218037;stroke-linecap:round;stroke-linejoin:round;stroke:rgb(61.960787%,22.745098%,61.176473%);stroke-opacity:1;stroke-miterlimit:4;" d="M 4.109375 5.109375 L 11.890625 5.109375 L 11.890625 5.890625 L 4.109375 5.890625 Z M 4.109375 5.109375 " transform="matrix(2,0,0,2,0,0)"/>
<path style="fill-rule:nonzero;fill:rgb(94.117647%,89.019608%,92.54902%);fill-opacity:1;stroke-width:0.218037;stroke-linecap:round;stroke-linejoin:round;stroke:rgb(61.960787%,22.745098%,61.176473%);stroke-opacity:1;stroke-miterlimit:4;" d="M 4.109375 7.109375 L 11.890625 7.109375 L 11.890625 7.890625 L 4.109375 7.890625 Z M 4.109375 7.109375 " transform="matrix(2,0,0,2,0,0)"/>
<path style="fill-rule:nonzero;fill:rgb(94.117647%,89.019608%,92.54902%);fill-opacity:1;stroke-width:0.218037;stroke-linecap:round;stroke-linejoin:round;stroke:rgb(61.960787%,22.745098%,61.176473%);stroke-opacity:1;stroke-miterlimit:4;" d="M 4.109375 9.109375 L 11.890625 9.109375 L 11.890625 9.890625 L 4.109375 9.890625 Z M 4.109375 9.109375 " transform="matrix(2,0,0,2,0,0)"/>
<path style="fill-rule:nonzero;fill:rgb(94.117647%,89.019608%,92.54902%);fill-opacity:1;stroke-width:0.218037;stroke-linecap:round;stroke-linejoin:round;stroke:rgb(61.960787%,22.745098%,61.176473%);stroke-opacity:1;stroke-miterlimit:4;" d="M 4.109375 11.109375 L 11.890625 11.109375 L 11.890625 11.890625 L 4.109375 11.890625 Z M 4.109375 11.109375 " transform="matrix(2,0,0,2,0,0)"/>
</g>
</svg>
