<?xml version="1.0" encoding="UTF-8"?>
<svg xmlns="http://www.w3.org/2000/svg" xmlns:xlink="http://www.w3.org/1999/xlink" width="32px" height="32px" viewBox="0 0 32 32" version="1.1">
<g id="surface1">
<path style="fill-rule:nonzero;fill:rgb(94.117647%,89.019608%,92.54902%);fill-opacity:1;stroke-width:1;stroke-linecap:round;stroke-linejoin:round;stroke:rgb(90.196079%,0.784314%,70.588237%);stroke-opacity:1;stroke-miterlimit:4;" d="M 3.625 1.5 L 12.625 1.5 C 13.177734 1.5 13.625 1.947266 13.625 2.5 L 13.625 13.5 C 13.625 14.052734 13.177734 14.5 12.625 14.5 L 3.625 14.5 C 3.072266 14.5 2.625 14.052734 2.625 13.5 L 2.625 2.5 C 2.625 1.947266 3.072266 1.5 3.625 1.5 Z M 3.625 1.5 " transform="matrix(2,0,0,2,0,0)"/>
<path style=" stroke:none;fill-rule:nonzero;fill:rgb(90.196079%,0.784314%,70.588237%);fill-opacity:1;" d="M 11.25 15 L 23.25 15 C 23.800781 15 24.25 15.449219 24.25 16 C 24.25 16.550781 23.800781 17 23.25 17 L 11.25 17 C 10.699219 17 10.25 16.550781 10.25 16 C 10.25 15.449219 10.699219 15 11.25 15 Z M 11.25 15 "/>
<path style=" stroke:none;fill-rule:nonzero;fill:rgb(95.294118%,71.764708%,85.09804%);fill-opacity:1;" d="M 11.25 11 L 23.25 11 C 23.800781 11 24.25 11.449219 24.25 12 C 24.25 12.550781 23.800781 13 23.25 13 L 11.25 13 C 10.699219 13 10.25 12.550781 10.25 12 C 10.25 11.449219 10.699219 11 11.25 11 Z M 11.25 11 "/>
<path style=" stroke:none;fill-rule:nonzero;fill:rgb(61.56863%,22.745098%,60.784316%);fill-opacity:1;" d="M 11.25 23 L 21.25 23 C 21.800781 23 22.25 23.449219 22.25 24 C 22.25 24.550781 21.800781 25 21.25 25 L 11.25 25 C 10.699219 25 10.25 24.550781 10.25 24 C 10.25 23.449219 10.699219 23 11.25 23 Z M 11.25 23 "/>
<path style=" stroke:none;fill-rule:nonzero;fill:rgb(90.196079%,0.784314%,70.588237%);fill-opacity:1;" d="M 11.25 19 L 23.25 19 C 23.800781 19 24.25 19.449219 24.25 20 C 24.25 20.550781 23.800781 21 23.25 21 L 11.25 21 C 10.699219 21 10.25 20.550781 10.25 20 C 10.25 19.449219 10.699219 19 11.25 19 Z M 11.25 19 "/>
<path style="fill:none;stroke-width:1.076923;stroke-linecap:round;stroke-linejoin:round;stroke:rgb(61.56863%,22.745098%,60.784316%);stroke-opacity:1;stroke-miterlimit:4;" d="M 4.692074 6.848847 L 1.999766 6.848847 L 1.999766 14.000289 L 4.999165 14.000289 " transform="matrix(1.857143,0,0,1.857143,-1.463852,-0.719286)"/>
<path style="fill:none;stroke-width:1.076923;stroke-linecap:round;stroke-linejoin:round;stroke:rgb(61.56863%,22.745098%,60.784316%);stroke-opacity:1;stroke-miterlimit:4;" d="M 3.499466 11.999988 L 5.499766 14.000289 L 3.499466 16.00059 " transform="matrix(1.857143,0,0,1.857143,-1.463852,-0.719286)"/>
<path style="fill-rule:nonzero;fill:rgb(61.56863%,22.745098%,60.784316%);fill-opacity:1;stroke-width:0.25;stroke-linecap:butt;stroke-linejoin:miter;stroke:rgb(61.56863%,22.745098%,60.784316%);stroke-opacity:1;stroke-miterlimit:4;" d="M 9.5 3.5 C 9.53125 3.164062 9.773438 2.919922 10.076172 2.919922 C 10.279297 2.919922 10.464844 3.027344 10.568359 3.197266 C 10.671875 3.025391 10.849609 2.919922 11.048828 2.919922 C 11.351562 2.919922 11.59375 3.164062 11.625 3.5 C 11.626953 3.515625 11.638672 3.59375 11.607422 3.720703 C 11.5625 3.904297 11.460938 4.072266 11.3125 4.203125 L 10.568359 4.865234 L 9.8125 4.203125 C 9.664062 4.072266 9.5625 3.904297 9.517578 3.720703 C 9.488281 3.59375 9.498047 3.515625 9.5 3.5 Z M 9.597656 3.701172 C 9.638672 3.869141 9.732422 4.023438 9.869141 4.144531 L 10.568359 4.757812 L 11.255859 4.144531 C 11.392578 4.023438 11.486328 3.869141 11.527344 3.701172 C 11.556641 3.582031 11.544922 3.513672 11.544922 3.513672 L 11.542969 3.507812 C 11.517578 3.214844 11.308594 3 11.048828 3 C 10.855469 3 10.6875 3.117188 10.607422 3.302734 L 10.568359 3.390625 L 10.53125 3.302734 C 10.451172 3.119141 10.273438 3 10.076172 3 C 9.816406 3 9.607422 3.214844 9.580078 3.511719 C 9.580078 3.513672 9.568359 3.582031 9.597656 3.701172 Z M 9.597656 3.701172 " transform="matrix(2,0,0,2,0,0)"/>
<path style="fill-rule:evenodd;fill:rgb(94.117647%,89.019608%,92.54902%);fill-opacity:1;stroke-width:3.20664;stroke-linecap:round;stroke-linejoin:round;stroke:rgb(94.117647%,89.019608%,92.54902%);stroke-opacity:1;stroke-miterlimit:4;" d="M 15.941732 8.508902 L 20.077255 8.508902 C 21.391694 8.508902 22.458126 9.59704 22.458126 10.938234 L 22.458126 20.070374 C 22.458126 21.411568 21.391694 22.499707 20.077255 22.499707 L 15.941732 22.499707 C 14.627293 22.499707 13.560862 21.411568 13.560862 20.070374 L 13.560862 10.938234 C 13.560862 9.59704 14.627293 8.508902 15.941732 8.508902 Z M 15.941732 8.508902 " transform="matrix(1.260043,0,0,1.234907,-0.118522,0.300891)"/>
<path style="fill-rule:evenodd;fill:rgb(94.117647%,89.019608%,92.54902%);fill-opacity:1;stroke-width:3.20664;stroke-linecap:round;stroke-linejoin:round;stroke:rgb(94.117647%,89.019608%,92.54902%);stroke-opacity:1;stroke-miterlimit:4;" d="M 17.88239 11.501283 L 18.117997 11.501283 C 19.435536 11.501283 20.498868 12.586258 20.498868 13.930615 L 20.498868 18.071236 C 20.498868 19.41243 19.435536 20.500568 18.117997 20.500568 L 17.88239 20.500568 C 16.564851 20.500568 15.501519 19.41243 15.501519 18.071236 L 15.501519 13.930615 C 15.501519 12.586258 16.564851 11.501283 17.88239 11.501283 Z M 17.88239 11.501283 " transform="matrix(1.260043,0,0,1.234907,-0.118522,0.300891)"/>
<path style="fill-rule:evenodd;fill:rgb(94.117647%,89.019608%,92.54902%);fill-opacity:1;stroke-width:3.20664;stroke-linecap:round;stroke-linejoin:round;stroke:rgb(94.117647%,89.019608%,92.54902%);stroke-opacity:1;stroke-miterlimit:4;" d="M 18.421806 14.186834 C 18.421806 14.411421 18.2358 14.594886 18.006394 14.598049 C 17.776987 14.598049 17.587881 14.417747 17.587881 14.189997 C 17.584781 13.96541 17.767687 13.778782 17.997093 13.775619 C 18.2265 13.772456 18.415606 13.949595 18.421806 14.177344 L 18.003294 14.186834 Z M 18.421806 14.186834 " transform="matrix(1.260043,0,0,1.234907,-0.118522,0.300891)"/>
<path style="fill:none;stroke-width:3.20664;stroke-linecap:round;stroke-linejoin:round;stroke:rgb(94.117647%,89.019608%,92.54902%);stroke-opacity:1;stroke-miterlimit:4;" d="M 17.947492 16.900854 L 17.947492 19.425083 " transform="matrix(1.260043,0,0,1.234907,-0.118522,0.300891)"/>
<path style="fill-rule:evenodd;fill:rgb(94.117647%,89.019608%,92.54902%);fill-opacity:1;stroke-width:1.60332;stroke-linecap:round;stroke-linejoin:round;stroke:rgb(90.196079%,0.784314%,70.588237%);stroke-opacity:1;stroke-miterlimit:4;" d="M 15.941732 8.508902 L 20.077255 8.508902 C 21.391694 8.508902 22.458126 9.59704 22.458126 10.938234 L 22.458126 20.070374 C 22.458126 21.411568 21.391694 22.499707 20.077255 22.499707 L 15.941732 22.499707 C 14.627293 22.499707 13.560862 21.411568 13.560862 20.070374 L 13.560862 10.938234 C 13.560862 9.59704 14.627293 8.508902 15.941732 8.508902 Z M 15.941732 8.508902 " transform="matrix(1.260043,0,0,1.234907,-0.118522,0.300891)"/>
<path style="fill-rule:evenodd;fill:rgb(95.294118%,71.764708%,85.09804%);fill-opacity:1;stroke-width:1.60332;stroke-linecap:round;stroke-linejoin:round;stroke:rgb(90.196079%,0.784314%,70.588237%);stroke-opacity:1;stroke-miterlimit:4;" d="M 17.88239 11.501283 L 18.117997 11.501283 C 19.435536 11.501283 20.498868 12.586258 20.498868 13.930615 L 20.498868 18.071236 C 20.498868 19.41243 19.435536 20.500568 18.117997 20.500568 L 17.88239 20.500568 C 16.564851 20.500568 15.501519 19.41243 15.501519 18.071236 L 15.501519 13.930615 C 15.501519 12.586258 16.564851 11.501283 17.88239 11.501283 Z M 17.88239 11.501283 " transform="matrix(1.260043,0,0,1.234907,-0.118522,0.300891)"/>
<path style="fill:none;stroke-width:1.60332;stroke-linecap:round;stroke-linejoin:round;stroke:rgb(61.56863%,22.745098%,60.784316%);stroke-opacity:1;stroke-miterlimit:4;" d="M 18.421806 14.186834 C 18.421806 14.411421 18.2358 14.594886 18.006394 14.598049 C 17.776987 14.598049 17.587881 14.417747 17.587881 14.189997 C 17.584781 13.96541 17.767687 13.778782 17.997093 13.775619 C 18.2265 13.772456 18.415606 13.949595 18.421806 14.177344 L 18.003294 14.186834 Z M 18.421806 14.186834 " transform="matrix(1.260043,0,0,1.234907,-0.118522,0.300891)"/>
<path style="fill:none;stroke-width:1.60332;stroke-linecap:round;stroke-linejoin:round;stroke:rgb(90.196079%,0.784314%,70.588237%);stroke-opacity:1;stroke-miterlimit:4;" d="M 17.947492 16.900854 L 17.947492 19.425083 " transform="matrix(1.260043,0,0,1.234907,-0.118522,0.300891)"/>
</g>
</svg>
