<?xml version="1.0" encoding="UTF-8"?>
<svg xmlns="http://www.w3.org/2000/svg" xmlns:xlink="http://www.w3.org/1999/xlink" width="32px" height="32px" viewBox="0 0 32 32" version="1.1">
<g id="surface1">
<path style="fill:none;stroke-width:1;stroke-linecap:round;stroke-linejoin:round;stroke:rgb(61.56863%,22.745098%,60.784316%);stroke-opacity:1;stroke-miterlimit:4;" d="M 6 11 L 13 11 " transform="matrix(2,0,0,2,0,0)"/>
<path style="fill-rule:nonzero;fill:rgb(95.294118%,71.764708%,85.09804%);fill-opacity:1;stroke-width:1.174316;stroke-linecap:round;stroke-linejoin:round;stroke:rgb(90.196079%,0.784314%,70.588237%);stroke-opacity:1;stroke-miterlimit:4;" d="M 8.00939 0.946042 C 4.697545 0.946042 2.01062 1.60009 2.01062 2.350784 C 2.01062 3.899372 6.67529 8.668752 6.67529 8.668752 C 6.694014 8.695723 6.717419 8.740675 6.715079 8.794617 L 6.715079 15.602559 C 6.715079 15.771128 6.946791 15.874517 7.861937 15.874517 C 8.756018 15.874517 9.303702 15.793604 9.303702 15.602559 C 9.303702 15.602559 9.303702 15.600311 9.303702 15.598064 L 9.29668 8.794617 C 9.29668 8.763151 9.301361 8.727189 9.315404 8.702466 C 9.315404 8.702466 13.989437 3.85442 13.989437 2.292347 C 13.989437 1.761916 11.321236 0.946042 8.00939 0.946042 Z M 8.00939 0.946042 " transform="matrix(1.668962,0,0,1.737975,2.648259,1.383147)"/>
<path style=" stroke:none;fill-rule:nonzero;fill:rgb(61.56863%,22.745098%,60.784316%);fill-opacity:1;" d="M 16.015625 6.328125 C 12.386719 6.328125 9.382812 6.785156 8.90625 7.382812 C 10.46875 7.765625 13.070312 8.023438 16.015625 8.023438 C 18.960938 8.023438 21.558594 7.769531 23.121094 7.386719 C 22.652344 6.789062 19.648438 6.328125 16.015625 6.328125 Z M 16.015625 6.328125 "/>
<path style="fill:none;stroke-width:1.174316;stroke-linecap:round;stroke-linejoin:round;stroke:rgb(90.196079%,0.784314%,70.588237%);stroke-opacity:1;stroke-miterlimit:4;" d="M 13.930923 2.386746 C 13.930923 3.175649 11.276766 3.816211 8.002369 3.816211 C 4.727971 3.816211 2.073814 3.175649 2.073814 2.386746 C 2.073814 1.595595 4.727971 0.95728 8.002369 0.95728 C 11.276766 0.95728 13.930923 1.595595 13.930923 2.386746 Z M 13.930923 2.386746 " transform="matrix(1.668962,0,0,1.737975,2.648259,1.383147)"/>
<path style="fill-rule:nonzero;fill:rgb(90.196079%,0.784314%,70.588237%);fill-opacity:1;stroke-width:0.25;stroke-linecap:round;stroke-linejoin:round;stroke:rgb(94.117647%,89.019608%,92.54902%);stroke-opacity:1;stroke-miterlimit:4;" d="M 5.304688 6.203125 C 5.058594 6.205078 4.902344 6.216797 4.658203 6.25 C 4.585938 6.261719 4.527344 6.308594 4.527344 6.382812 L 4.482422 7.087891 C 4.476562 7.160156 4.425781 7.207031 4.373047 7.224609 C 4.371094 7.224609 4.369141 7.226562 4.369141 7.226562 C 4.060547 7.308594 3.767578 7.429688 3.498047 7.585938 C 3.449219 7.607422 3.386719 7.607422 3.333984 7.5625 L 2.802734 7.095703 C 2.751953 7.044922 2.677734 7.052734 2.619141 7.095703 C 2.421875 7.244141 2.300781 7.345703 2.126953 7.519531 C 1.955078 7.693359 1.851562 7.814453 1.703125 8.009766 C 1.660156 8.068359 1.652344 8.144531 1.703125 8.195312 L 2.171875 8.726562 C 2.207031 8.769531 2.226562 8.824219 2.207031 8.863281 L 2.201172 8.873047 C 2.033203 9.158203 1.902344 9.466797 1.818359 9.794922 C 1.818359 9.796875 1.816406 9.798828 1.816406 9.798828 C 1.792969 9.837891 1.751953 9.869141 1.697266 9.875 L 0.990234 9.919922 C 0.917969 9.919922 0.871094 9.978516 0.859375 10.050781 C 0.826172 10.292969 0.814453 10.451172 0.8125 10.695312 C 0.814453 10.941406 0.826172 11.097656 0.859375 11.341797 C 0.871094 11.414062 0.917969 11.472656 0.990234 11.472656 L 1.697266 11.517578 C 1.761719 11.523438 1.804688 11.564453 1.826172 11.613281 C 1.908203 11.923828 2.033203 12.216797 2.189453 12.488281 C 2.21875 12.537109 2.21875 12.609375 2.171875 12.666016 L 1.703125 13.197266 C 1.652344 13.248047 1.660156 13.322266 1.703125 13.380859 C 1.851562 13.578125 1.955078 13.699219 2.126953 13.873047 C 2.300781 14.044922 2.421875 14.148438 2.619141 14.296875 C 2.677734 14.339844 2.751953 14.347656 2.802734 14.296875 L 3.333984 13.828125 C 3.390625 13.78125 3.462891 13.78125 3.511719 13.808594 L 3.519531 13.802734 C 3.783203 13.953125 4.068359 14.072266 4.369141 14.154297 L 4.369141 14.166016 C 4.423828 14.181641 4.476562 14.230469 4.482422 14.302734 L 4.527344 15.009766 C 4.527344 15.082031 4.585938 15.128906 4.658203 15.140625 C 4.902344 15.173828 5.058594 15.185547 5.304688 15.1875 C 5.548828 15.185547 5.707031 15.173828 5.949219 15.140625 C 6.021484 15.128906 6.080078 15.082031 6.080078 15.009766 L 6.125 14.302734 C 6.132812 14.230469 6.185547 14.181641 6.240234 14.166016 L 6.240234 14.154297 C 6.541016 14.072266 6.824219 13.953125 7.089844 13.802734 L 7.095703 13.808594 C 7.146484 13.78125 7.216797 13.78125 7.273438 13.828125 L 7.804688 14.296875 C 7.855469 14.347656 7.931641 14.339844 7.990234 14.296875 C 8.185547 14.148438 8.306641 14.044922 8.480469 13.873047 C 8.654297 13.699219 8.755859 13.578125 8.904297 13.380859 C 8.947266 13.322266 8.955078 13.248047 8.904297 13.197266 L 8.4375 12.666016 C 8.388672 12.609375 8.390625 12.537109 8.417969 12.488281 C 8.576172 12.216797 8.701172 11.923828 8.783203 11.613281 C 8.802734 11.564453 8.845703 11.523438 8.912109 11.517578 L 9.617188 11.472656 C 9.691406 11.472656 9.738281 11.414062 9.75 11.341797 C 9.783203 11.097656 9.794922 10.941406 9.794922 10.695312 C 9.794922 10.451172 9.783203 10.292969 9.75 10.050781 C 9.738281 9.978516 9.691406 9.919922 9.617188 9.919922 L 8.912109 9.875 C 8.855469 9.869141 8.816406 9.837891 8.792969 9.798828 C 8.791016 9.798828 8.791016 9.796875 8.789062 9.794922 C 8.705078 9.466797 8.554688 9.167969 8.40625 8.873047 L 8.402344 8.863281 C 8.380859 8.824219 8.400391 8.769531 8.4375 8.726562 L 8.904297 8.195312 C 8.955078 8.144531 8.947266 8.068359 8.904297 8.009766 C 8.755859 7.814453 8.654297 7.693359 8.480469 7.519531 C 8.306641 7.345703 8.185547 7.244141 7.990234 7.095703 C 7.931641 7.052734 7.855469 7.044922 7.804688 7.095703 L 7.273438 7.5625 C 7.222656 7.607422 7.158203 7.607422 7.109375 7.585938 C 6.839844 7.429688 6.548828 7.308594 6.240234 7.226562 C 6.238281 7.226562 6.236328 7.224609 6.234375 7.224609 C 6.181641 7.207031 6.132812 7.160156 6.125 7.087891 L 6.080078 6.382812 C 6.080078 6.308594 6.021484 6.261719 5.949219 6.25 C 5.707031 6.216797 5.548828 6.205078 5.304688 6.203125 Z M 5.304688 9.498047 C 5.964844 9.498047 6.501953 10.035156 6.501953 10.695312 C 6.501953 11.357422 5.964844 11.892578 5.304688 11.892578 C 4.642578 11.892578 4.105469 11.357422 4.105469 10.695312 C 4.105469 10.035156 4.642578 9.498047 5.304688 9.498047 Z M 5.304688 9.498047 " transform="matrix(2,0,0,2,0,0)"/>
<path style=" stroke:none;fill-rule:nonzero;fill:rgb(95.294118%,71.764708%,85.09804%);fill-opacity:1;" d="M 15.609375 21.390625 C 15.609375 24.152344 13.371094 26.390625 10.609375 26.390625 C 7.847656 26.390625 5.609375 24.152344 5.609375 21.390625 C 5.609375 18.628906 7.847656 16.390625 10.609375 16.390625 C 13.371094 16.390625 15.609375 18.628906 15.609375 21.390625 Z M 15.609375 21.390625 "/>
<path style=" stroke:none;fill-rule:nonzero;fill:rgb(90.196079%,0.784314%,70.588237%);fill-opacity:1;" d="M 13.609375 21.390625 C 13.609375 23.046875 12.265625 24.390625 10.609375 24.390625 C 8.953125 24.390625 7.609375 23.046875 7.609375 21.390625 C 7.609375 19.734375 8.953125 18.390625 10.609375 18.390625 C 12.265625 18.390625 13.609375 19.734375 13.609375 21.390625 Z M 13.609375 21.390625 "/>
<path style="fill:none;stroke-width:1;stroke-linecap:round;stroke-linejoin:round;stroke:rgb(61.56863%,22.745098%,60.784316%);stroke-opacity:1;stroke-miterlimit:4;" d="M 12 9 L 14 11 L 12 13 " transform="matrix(2,0,0,2,0,0)"/>
</g>
</svg>
