<?xml version="1.0" encoding="UTF-8"?>
<svg xmlns="http://www.w3.org/2000/svg" xmlns:xlink="http://www.w3.org/1999/xlink" width="32px" height="32px" viewBox="0 0 32 32" version="1.1">
<g id="surface1">
<path style=" stroke:none;fill-rule:nonzero;fill:rgb(61.960787%,22.745098%,61.176473%);fill-opacity:1;" d="M 10 2 L 12 2 L 12 4 L 10 4 Z M 10 2 "/>
<path style=" stroke:none;fill-rule:nonzero;fill:rgb(61.960787%,22.745098%,61.176473%);fill-opacity:1;" d="M 2 8 L 4 8 L 4 10 L 2 10 Z M 2 8 "/>
<path style=" stroke:none;fill-rule:nonzero;fill:rgb(61.960787%,22.745098%,61.176473%);fill-opacity:1;" d="M 2 28 L 4 28 L 4 30 L 2 30 Z M 2 28 "/>
<path style=" stroke:none;fill-rule:nonzero;fill:rgb(61.960787%,22.745098%,61.176473%);fill-opacity:1;" d="M 22 28 L 24 28 L 24 30 L 22 30 Z M 22 28 "/>
<path style=" stroke:none;fill-rule:nonzero;fill:rgb(61.960787%,22.745098%,61.176473%);fill-opacity:1;" d="M 28 20 L 30 20 L 30 22 L 28 22 Z M 28 20 "/>
<path style=" stroke:none;fill-rule:nonzero;fill:rgb(61.960787%,22.745098%,61.176473%);fill-opacity:1;" d="M 28 2 L 30 2 L 30 4 L 28 4 Z M 28 2 "/>
<path style=" stroke:none;fill-rule:nonzero;fill:rgb(90.196079%,0.784314%,70.588237%);fill-opacity:1;" d="M 4 12.667969 L 4 27.320312 C 4 27.695312 4.355469 28 4.792969 28 L 19.285156 28 C 19.71875 28 20.074219 27.695312 20.074219 27.320312 L 20.074219 12.667969 C 20.074219 12.292969 19.71875 11.988281 19.285156 11.988281 L 4.792969 11.988281 C 4.355469 11.988281 4 12.292969 4 12.667969 Z M 4 12.667969 "/>
<path style=" stroke:none;fill-rule:evenodd;fill:rgb(94.117647%,89.019608%,92.54902%);fill-opacity:1;" d="M 6.054688 14.355469 L 6.054688 25.566406 C 6.054688 25.742188 6.226562 25.882812 6.4375 25.882812 L 17.707031 25.882812 C 17.917969 25.882812 18.085938 25.742188 18.085938 25.566406 L 18.085938 14.355469 C 18.085938 14.179688 17.917969 14.039062 17.707031 14.039062 L 6.4375 14.039062 C 6.226562 14.039062 6.054688 14.179688 6.054688 14.355469 Z M 6.054688 14.355469 "/>
<path style=" stroke:none;fill-rule:nonzero;fill:rgb(90.196079%,0.784314%,70.588237%);fill-opacity:1;" d="M 28.914062 12.402344 C 28.914062 17.046875 25.132812 20.8125 20.472656 20.8125 C 15.808594 20.8125 12.027344 17.046875 12.027344 12.402344 C 12.027344 7.757812 15.808594 3.992188 20.472656 3.992188 C 25.132812 3.992188 28.914062 7.757812 28.914062 12.402344 Z M 28.914062 12.402344 "/>
<path style=" stroke:none;fill-rule:nonzero;fill:rgb(94.117647%,89.019608%,92.54902%);fill-opacity:1;" d="M 26.820312 12.503906 C 26.820312 16.128906 23.949219 19.0625 20.40625 19.0625 C 16.859375 19.0625 13.988281 16.128906 13.988281 12.503906 C 13.988281 8.882812 16.859375 5.945312 20.40625 5.945312 C 23.949219 5.945312 26.820312 8.882812 26.820312 12.503906 Z M 26.820312 12.503906 "/>
</g>
</svg>
