<?xml version="1.0" encoding="UTF-8"?>
<svg xmlns="http://www.w3.org/2000/svg" xmlns:xlink="http://www.w3.org/1999/xlink" width="32px" height="32px" viewBox="0 0 32 32" version="1.1">
<g id="surface1">
<path style=" stroke:none;fill-rule:nonzero;fill:rgb(90.196079%,0.784314%,70.588237%);fill-opacity:1;" d="M 2 2 L 30 2 L 30 26.25 L 2 26.25 Z M 2 2 "/>
<path style=" stroke:none;fill-rule:nonzero;fill:rgb(94.117647%,89.019608%,92.54902%);fill-opacity:1;" d="M 4.058594 4 L 10.796875 4 C 10.828125 4 10.855469 4.027344 10.855469 4.058594 L 10.855469 7.273438 C 10.855469 7.304688 10.828125 7.332031 10.796875 7.332031 L 4.058594 7.332031 C 4.027344 7.332031 4 7.304688 4 7.273438 L 4 4.058594 C 4 4.027344 4.027344 4 4.058594 4 Z M 4.058594 4 "/>
<path style=" stroke:none;fill-rule:nonzero;fill:rgb(94.117647%,89.019608%,92.54902%);fill-opacity:1;" d="M 12.632812 4 L 19.367188 4 C 19.402344 4 19.429688 4.027344 19.429688 4.058594 L 19.429688 7.273438 C 19.429688 7.304688 19.402344 7.332031 19.367188 7.332031 L 12.632812 7.332031 C 12.597656 7.332031 12.570312 7.304688 12.570312 7.273438 L 12.570312 4.058594 C 12.570312 4.027344 12.597656 4 12.632812 4 Z M 12.632812 4 "/>
<path style=" stroke:none;fill-rule:nonzero;fill:rgb(94.117647%,89.019608%,92.54902%);fill-opacity:1;" d="M 21.203125 4 L 27.941406 4 C 27.972656 4 28 4.027344 28 4.058594 L 28 7.273438 C 28 7.304688 27.972656 7.332031 27.941406 7.332031 L 21.203125 7.332031 C 21.171875 7.332031 21.144531 7.304688 21.144531 7.273438 L 21.144531 4.058594 C 21.144531 4.027344 21.171875 4 21.203125 4 Z M 21.203125 4 "/>
<path style=" stroke:none;fill-rule:nonzero;fill:rgb(94.117647%,89.019608%,92.54902%);fill-opacity:1;" d="M 4.058594 20.667969 L 10.796875 20.667969 C 10.828125 20.667969 10.855469 20.695312 10.855469 20.726562 L 10.855469 23.941406 C 10.855469 23.972656 10.828125 24 10.796875 24 L 4.058594 24 C 4.027344 24 4 23.972656 4 23.941406 L 4 20.726562 C 4 20.695312 4.027344 20.667969 4.058594 20.667969 Z M 4.058594 20.667969 "/>
<path style=" stroke:none;fill-rule:nonzero;fill:rgb(94.117647%,89.019608%,92.54902%);fill-opacity:1;" d="M 12.632812 20.667969 L 19.367188 20.667969 C 19.402344 20.667969 19.429688 20.695312 19.429688 20.726562 L 19.429688 23.941406 C 19.429688 23.972656 19.402344 24 19.367188 24 L 12.632812 24 C 12.597656 24 12.570312 23.972656 12.570312 23.941406 L 12.570312 20.726562 C 12.570312 20.695312 12.597656 20.667969 12.632812 20.667969 Z M 12.632812 20.667969 "/>
<path style=" stroke:none;fill-rule:nonzero;fill:rgb(94.117647%,89.019608%,92.54902%);fill-opacity:1;" d="M 21.203125 20.667969 L 27.941406 20.667969 C 27.972656 20.667969 28 20.695312 28 20.726562 L 28 23.941406 C 28 23.972656 27.972656 24 27.941406 24 L 21.203125 24 C 21.171875 24 21.144531 23.972656 21.144531 23.941406 L 21.144531 20.726562 C 21.144531 20.695312 21.171875 20.667969 21.203125 20.667969 Z M 21.203125 20.667969 "/>
<path style=" stroke:none;fill-rule:nonzero;fill:rgb(94.117647%,89.019608%,92.54902%);fill-opacity:1;" d="M 4.058594 9 L 10.796875 9 C 10.828125 9 10.855469 9.027344 10.855469 9.058594 L 10.855469 18.941406 C 10.855469 18.972656 10.828125 19 10.796875 19 L 4.058594 19 C 4.027344 19 4 18.972656 4 18.941406 L 4 9.058594 C 4 9.027344 4.027344 9 4.058594 9 Z M 4.058594 9 "/>
<path style=" stroke:none;fill-rule:nonzero;fill:rgb(94.117647%,89.019608%,92.54902%);fill-opacity:1;" d="M 12.632812 9 L 19.367188 9 C 19.402344 9 19.429688 9.027344 19.429688 9.058594 L 19.429688 18.941406 C 19.429688 18.972656 19.402344 19 19.367188 19 L 12.632812 19 C 12.597656 19 12.570312 18.972656 12.570312 18.941406 L 12.570312 9.058594 C 12.570312 9.027344 12.597656 9 12.632812 9 Z M 12.632812 9 "/>
<path style=" stroke:none;fill-rule:nonzero;fill:rgb(94.117647%,89.019608%,92.54902%);fill-opacity:1;" d="M 21.203125 9 L 27.941406 9 C 27.972656 9 28 9.027344 28 9.058594 L 28 18.941406 C 28 18.972656 27.972656 19 27.941406 19 L 21.203125 19 C 21.171875 19 21.144531 18.972656 21.144531 18.941406 L 21.144531 9.058594 C 21.144531 9.027344 21.171875 9 21.203125 9 Z M 21.203125 9 "/>
<path style="fill-rule:nonzero;fill:rgb(61.960787%,22.745098%,61.176473%);fill-opacity:1;stroke-width:0.25;stroke-linecap:round;stroke-linejoin:round;stroke:rgb(94.117647%,89.019608%,92.54902%);stroke-opacity:1;stroke-miterlimit:4;" d="M 3 -12 L 10 -12 C 10.552734 -12 11 -11.552734 11 -11 L 11 -5 C 11 -4.447266 10.552734 -4 10 -4 L 3 -4 C 2.447266 -4 2 -4.447266 2 -5 L 2 -11 C 2 -11.552734 2.447266 -12 3 -12 Z M 3 -12 " transform="matrix(0,2,-2,0,0,0)"/>
<path style=" stroke:none;fill-rule:nonzero;fill:rgb(90.196079%,0.392157%,70.588237%);fill-opacity:1;" d="M 12 6.894531 L 20 6.894531 L 20 19 L 12 19 Z M 12 6.894531 "/>
<path style=" stroke:none;fill-rule:nonzero;fill:rgb(95.294118%,71.764708%,85.09804%);fill-opacity:1;" d="M 10 6 L 10 20 L 22 20 L 22 6 Z M 12 7 L 20 7 L 20 19 L 12 19 Z M 12 7 "/>
<path style="fill-rule:evenodd;fill:rgb(94.117647%,89.019608%,92.54902%);fill-opacity:1;stroke-width:3.20664;stroke-linecap:round;stroke-linejoin:round;stroke:rgb(94.117647%,89.019608%,92.54902%);stroke-opacity:1;stroke-miterlimit:4;" d="M 15.943661 8.509194 L 20.076083 8.509194 C 21.390523 8.509194 22.456954 9.597332 22.456954 10.938527 L 22.456954 20.070666 C 22.456954 21.41186 21.390523 22.499999 20.076083 22.499999 L 15.943661 22.499999 C 14.626122 22.499999 13.56279 21.41186 13.56279 20.070666 L 13.56279 10.938527 C 13.56279 9.597332 14.626122 8.509194 15.943661 8.509194 Z M 15.943661 8.509194 " transform="matrix(1.260043,0,0,1.234907,-0.296733,0.214593)"/>
<path style="fill-rule:evenodd;fill:rgb(94.117647%,89.019608%,92.54902%);fill-opacity:1;stroke-width:3.20664;stroke-linecap:round;stroke-linejoin:round;stroke:rgb(94.117647%,89.019608%,92.54902%);stroke-opacity:1;stroke-miterlimit:4;" d="M 17.881218 11.501575 L 18.119925 11.501575 C 19.434364 11.501575 20.500796 12.58655 20.500796 13.930908 L 20.500796 18.071528 C 20.500796 19.412722 19.434364 20.500861 18.119925 20.500861 L 17.881218 20.500861 C 16.566779 20.500861 15.500348 19.412722 15.500348 18.071528 L 15.500348 13.930908 C 15.500348 12.58655 16.566779 11.501575 17.881218 11.501575 Z M 17.881218 11.501575 " transform="matrix(1.260043,0,0,1.234907,-0.296733,0.214593)"/>
<path style="fill-rule:evenodd;fill:rgb(94.117647%,89.019608%,92.54902%);fill-opacity:1;stroke-width:3.20664;stroke-linecap:round;stroke-linejoin:round;stroke:rgb(94.117647%,89.019608%,92.54902%);stroke-opacity:1;stroke-miterlimit:4;" d="M 18.420634 14.187126 C 18.420634 14.411713 18.234629 14.595178 18.005222 14.598342 C 17.775815 14.598342 17.58981 14.418039 17.58671 14.19029 C 17.583609 13.965703 17.766515 13.779074 17.995922 13.775911 C 18.225328 13.772748 18.414434 13.949887 18.420634 14.177637 L 18.005222 14.187126 Z M 18.420634 14.187126 " transform="matrix(1.260043,0,0,1.234907,-0.296733,0.214593)"/>
<path style="fill:none;stroke-width:3.20664;stroke-linecap:round;stroke-linejoin:round;stroke:rgb(94.117647%,89.019608%,92.54902%);stroke-opacity:1;stroke-miterlimit:4;" d="M 17.94942 16.901146 L 17.94942 19.425375 " transform="matrix(1.260043,0,0,1.234907,-0.296733,0.214593)"/>
<path style="fill-rule:evenodd;fill:rgb(94.117647%,89.019608%,92.54902%);fill-opacity:1;stroke-width:1.60332;stroke-linecap:round;stroke-linejoin:round;stroke:rgb(90.196079%,0.784314%,70.588237%);stroke-opacity:1;stroke-miterlimit:4;" d="M 15.943661 8.509194 L 20.076083 8.509194 C 21.390523 8.509194 22.456954 9.597332 22.456954 10.938527 L 22.456954 20.070666 C 22.456954 21.41186 21.390523 22.499999 20.076083 22.499999 L 15.943661 22.499999 C 14.626122 22.499999 13.56279 21.41186 13.56279 20.070666 L 13.56279 10.938527 C 13.56279 9.597332 14.626122 8.509194 15.943661 8.509194 Z M 15.943661 8.509194 " transform="matrix(1.260043,0,0,1.234907,-0.296733,0.214593)"/>
<path style="fill-rule:evenodd;fill:rgb(95.294118%,71.764708%,85.09804%);fill-opacity:1;stroke-width:1.60332;stroke-linecap:round;stroke-linejoin:round;stroke:rgb(90.196079%,0.784314%,70.588237%);stroke-opacity:1;stroke-miterlimit:4;" d="M 17.881218 11.501575 L 18.119925 11.501575 C 19.434364 11.501575 20.500796 12.58655 20.500796 13.930908 L 20.500796 18.071528 C 20.500796 19.412722 19.434364 20.500861 18.119925 20.500861 L 17.881218 20.500861 C 16.566779 20.500861 15.500348 19.412722 15.500348 18.071528 L 15.500348 13.930908 C 15.500348 12.58655 16.566779 11.501575 17.881218 11.501575 Z M 17.881218 11.501575 " transform="matrix(1.260043,0,0,1.234907,-0.296733,0.214593)"/>
<path style="fill:none;stroke-width:1.60332;stroke-linecap:round;stroke-linejoin:round;stroke:rgb(61.56863%,22.745098%,60.784316%);stroke-opacity:1;stroke-miterlimit:4;" d="M 18.420634 14.187126 C 18.420634 14.411713 18.234629 14.595178 18.005222 14.598342 C 17.775815 14.598342 17.58981 14.418039 17.58671 14.19029 C 17.583609 13.965703 17.766515 13.779074 17.995922 13.775911 C 18.225328 13.772748 18.414434 13.949887 18.420634 14.177637 L 18.005222 14.187126 Z M 18.420634 14.187126 " transform="matrix(1.260043,0,0,1.234907,-0.296733,0.214593)"/>
<path style="fill:none;stroke-width:1.60332;stroke-linecap:round;stroke-linejoin:round;stroke:rgb(90.196079%,0.784314%,70.588237%);stroke-opacity:1;stroke-miterlimit:4;" d="M 17.94942 16.901146 L 17.94942 19.425375 " transform="matrix(1.260043,0,0,1.234907,-0.296733,0.214593)"/>
</g>
</svg>
