<?xml version="1.0" encoding="UTF-8"?>
<svg xmlns="http://www.w3.org/2000/svg" xmlns:xlink="http://www.w3.org/1999/xlink" width="32px" height="32px" viewBox="0 0 32 32" version="1.1">
<g id="surface1">
<path style="fill-rule:nonzero;fill:rgb(95.294118%,71.764708%,85.09804%);fill-opacity:1;stroke-width:1;stroke-linecap:round;stroke-linejoin:round;stroke:rgb(90.196079%,0.784314%,70.588237%);stroke-opacity:1;stroke-miterlimit:4;" d="M 7.999487 1.340153 C 5.104955 1.340153 2.757299 1.912418 2.757299 2.568668 C 2.757299 3.922184 6.833471 8.090153 6.833471 8.090153 C 6.849096 8.115543 6.87058 8.154606 6.868627 8.201481 L 6.868627 14.152653 C 6.868627 14.299137 7.071752 14.390934 7.87058 14.390934 C 8.65183 14.390934 9.132299 14.320622 9.132299 14.152653 C 9.132299 14.152653 9.132299 14.1507 9.132299 14.148747 L 9.12644 8.201481 C 9.12644 8.174137 9.130346 8.142887 9.142065 8.11945 C 9.142065 8.11945 13.226049 3.883122 13.226049 2.517887 C 13.226049 2.053043 10.894018 1.340153 7.999487 1.340153 Z M 7.999487 1.340153 " transform="matrix(2,0,0,2,0.0166516,0.268913)"/>
<path style=" stroke:none;fill-rule:nonzero;fill:rgb(61.56863%,22.745098%,60.784316%);fill-opacity:1;" d="M 16.015625 6.269531 C 12.214844 6.269531 9.070312 6.730469 8.570312 7.332031 C 10.207031 7.71875 12.929688 7.976562 16.015625 7.976562 C 19.101562 7.976562 21.820312 7.722656 23.460938 7.335938 C 22.96875 6.734375 19.824219 6.269531 16.015625 6.269531 Z M 16.015625 6.269531 "/>
<path style="fill:none;stroke-width:1;stroke-linecap:round;stroke-linejoin:round;stroke:rgb(90.196079%,0.784314%,70.588237%);stroke-opacity:1;stroke-miterlimit:4;" d="M 13.175268 2.599918 C 13.175268 3.291325 10.854955 3.849918 7.993627 3.849918 C 5.132299 3.849918 2.811987 3.291325 2.811987 2.599918 C 2.811987 1.908512 5.132299 1.349918 7.993627 1.349918 C 10.854955 1.349918 13.175268 1.908512 13.175268 2.599918 Z M 13.175268 2.599918 " transform="matrix(2,0,0,2,0.0166516,0.268913)"/>
<path style=" stroke:none;fill-rule:nonzero;fill:rgb(61.56863%,22.745098%,60.784316%);fill-opacity:1;" d="M 16 14 L 28 14 C 29.105469 14 30 14.894531 30 16 L 30 28 C 30 29.105469 29.105469 30 28 30 L 16 30 C 14.894531 30 14 29.105469 14 28 L 14 16 C 14 14.894531 14.894531 14 16 14 Z M 16 14 "/>
<path style=" stroke:none;fill-rule:nonzero;fill:rgb(94.117647%,89.019608%,92.54902%);fill-opacity:1;" d="M 18 16 L 26 16 C 27.105469 16 28 16.894531 28 18 L 28 26 C 28 27.105469 27.105469 28 26 28 L 18 28 C 16.894531 28 16 27.105469 16 26 L 16 18 C 16 16.894531 16.894531 16 18 16 Z M 18 16 "/>
<path style="fill:none;stroke-width:1;stroke-linecap:round;stroke-linejoin:round;stroke:rgb(90.196079%,0.784314%,70.588237%);stroke-opacity:1;stroke-miterlimit:4;" d="M 9 11.099609 L 10.095703 12.697266 L 13 9.5 " transform="matrix(2,0,0,2,0,0)"/>
</g>
</svg>
