<?xml version="1.0" encoding="UTF-8"?>
<svg xmlns="http://www.w3.org/2000/svg" xmlns:xlink="http://www.w3.org/1999/xlink" width="32px" height="32px" viewBox="0 0 32 32" version="1.1">
<g id="surface1">
<path style="fill-rule:nonzero;fill:rgb(94.117647%,89.019608%,92.54902%);fill-opacity:1;stroke-width:0.0742585;stroke-linecap:round;stroke-linejoin:round;stroke:rgb(90.196079%,0.784314%,70.588237%);stroke-opacity:1;stroke-miterlimit:4;" d="M 1.734139 1.344941 L 3.852126 1.344531 C 3.98668 1.344531 4.095799 1.447907 4.095799 1.575077 L 4.095799 3.984733 C 4.095799 4.111902 3.98668 4.214458 3.852126 4.214458 L 1.734139 4.214868 C 1.599586 4.214868 1.490466 4.111492 1.490466 3.984322 L 1.490466 1.574666 C 1.490466 1.447497 1.599586 1.344941 1.734139 1.344941 Z M 1.734139 1.344941 " transform="matrix(4.761118,4.761118,-4.761118,4.761118,14.361823,-12.089551)"/>
<path style="fill-rule:nonzero;fill:rgb(94.117647%,89.019608%,92.54902%);fill-opacity:1;stroke-width:0.280662;stroke-linecap:round;stroke-linejoin:round;stroke:rgb(90.196079%,0.784314%,70.588237%);stroke-opacity:1;stroke-miterlimit:4;" d="M 1.817005 1.448317 L 3.752852 1.448728 C 3.875919 1.448728 3.975604 1.543489 3.975604 1.660813 L 3.975193 3.882177 C 3.975193 3.999501 3.875509 4.094263 3.752852 4.094673 L 1.817005 4.094263 C 1.693938 4.094263 1.594253 3.999501 1.594253 3.882177 L 1.594253 1.660403 C 1.594253 1.5439 1.693938 1.448317 1.817005 1.448317 Z M 1.817005 1.448317 " transform="matrix(4.761118,4.761118,-4.761118,4.761118,14.361823,-12.089551)"/>
<path style="fill-rule:nonzero;fill:rgb(94.117647%,89.019608%,92.54902%);fill-opacity:1;stroke-width:0.0742585;stroke-linecap:round;stroke-linejoin:round;stroke:rgb(90.196079%,0.784314%,70.588237%);stroke-opacity:1;stroke-miterlimit:4;" d="M 2.1378 2.102214 C 2.146825 2.097292 2.15585 2.091549 2.164465 2.085395 C 2.180463 2.074319 2.196872 2.063653 2.212871 2.052577 C 2.231331 2.03986 2.251022 2.028374 2.270302 2.016478 C 2.288352 2.004991 2.306812 1.994736 2.325272 1.985301 C 2.342092 1.975865 2.358911 1.968892 2.377781 1.964789 C 2.396241 1.961097 2.413881 1.964789 2.4307 1.972584 C 2.445878 1.980378 2.458185 1.991864 2.468441 2.005402 C 2.478696 2.018939 2.48608 2.034528 2.493464 2.049296 C 2.499207 2.062423 2.50454 2.07596 2.509463 2.089087 C 2.513155 2.100163 2.518488 2.109599 2.523821 2.119034 C 2.528743 2.127238 2.535307 2.134622 2.543101 2.139955 C 2.551716 2.145288 2.561151 2.146519 2.570586 2.146929 C 2.584534 2.146108 2.597251 2.140776 2.609558 2.135853 C 2.627197 2.127238 2.644016 2.116162 2.660425 2.105496 C 2.679296 2.09319 2.697756 2.079652 2.716216 2.066115 C 2.733445 2.052988 2.751905 2.041091 2.770365 2.029195 C 2.785954 2.02017 2.801542 2.010324 2.817131 2.000479 C 2.829848 1.992685 2.842975 1.98448 2.856512 1.977506 C 2.87087 1.969712 2.886459 1.967251 2.902047 1.967251 C 2.917636 1.967251 2.931173 1.973404 2.94389 1.982019 C 2.956607 1.990634 2.966042 2.00253 2.975067 2.014837 C 2.983272 2.027143 2.989425 2.040681 2.995989 2.053808 C 3.000501 2.064884 3.005014 2.07514 3.009936 2.085806 C 3.014039 2.095651 3.017731 2.104266 3.024294 2.11247 C 3.029627 2.119444 3.03537 2.124367 3.043575 2.126007 C 3.054651 2.128879 3.065317 2.126418 3.075572 2.123546 C 3.08952 2.118623 3.101826 2.111239 3.114133 2.103855 C 3.127671 2.095241 3.139977 2.084575 3.152284 2.073089 C 3.164591 2.061602 3.176487 2.049706 3.188384 2.037809 C 3.198639 2.027554 3.208485 2.016888 3.21874 2.006632 C 3.227765 1.997607 3.23679 1.988582 3.245815 1.979557 C 3.25402 1.972173 3.263045 1.964789 3.27248 1.958636 C 3.282735 1.951662 3.294632 1.948791 3.306939 1.94797 C 3.320066 1.94715 3.331962 1.950842 3.343448 1.956585 C 3.354114 1.962328 3.362319 1.970533 3.369703 1.980378 C 3.376677 1.988993 3.381599 1.998838 3.386522 2.008683 C 3.390214 2.018119 3.394316 2.027143 3.398829 2.036579 C 3.40211 2.046424 3.406213 2.055449 3.411135 2.064474 C 3.414417 2.071858 3.418519 2.079242 3.423442 2.086626 C 3.426724 2.091549 3.430416 2.096882 3.435749 2.100574 C 3.441902 2.105086 3.448876 2.108778 3.45585 2.11165 C 3.463644 2.113701 3.470618 2.114111 3.478412 2.113701 C 3.487437 2.11288 3.496052 2.110009 3.504256 2.105907 C 3.514512 2.100574 3.523537 2.09401 3.532152 2.086216 C 3.542407 2.077601 3.551842 2.068166 3.560867 2.058321 C 3.569072 2.048475 3.578507 2.03986 3.587122 2.030425 C 3.594916 2.021811 3.6023 2.012786 3.610094 2.004991 C 3.617888 1.997197 3.624452 1.988993 3.632246 1.982019 C 3.63963 1.976276 3.647424 1.970122 3.654809 1.964379 C 3.659731 1.961097 3.663833 1.957816 3.668346 1.954124 C 3.697472 1.930741 3.714291 1.951662 3.684755 1.975455 C 3.680653 1.978737 3.67614 1.982429 3.671628 1.986121 C 3.664654 1.991454 3.65686 1.996787 3.650296 2.00253 C 3.642912 2.009094 3.636759 2.016888 3.629785 2.023862 C 3.621991 2.031656 3.615017 2.040271 3.607223 2.048885 C 3.598608 2.058321 3.589583 2.067345 3.580968 2.076781 C 3.571533 2.087857 3.561277 2.098112 3.550612 2.107137 C 3.539946 2.116162 3.528459 2.124367 3.516153 2.13011 C 3.505077 2.135443 3.49318 2.139955 3.480874 2.140776 C 3.468567 2.141596 3.45626 2.140776 3.444774 2.135853 C 3.436159 2.132161 3.427544 2.127648 3.41934 2.121905 C 3.411546 2.115752 3.405392 2.108778 3.400059 2.100163 C 3.395547 2.092369 3.391034 2.084575 3.386932 2.07637 C 3.38201 2.067345 3.377087 2.0575 3.373805 2.047655 C 3.369703 2.03863 3.365601 2.029605 3.361909 2.02017 C 3.357806 2.011965 3.353704 2.003761 3.348371 1.996787 C 3.343448 1.990223 3.338116 1.98489 3.331552 1.980788 C 3.324578 1.977096 3.316784 1.975045 3.308579 1.975045 C 3.300785 1.975455 3.293811 1.976686 3.287248 1.981609 C 3.279043 1.986531 3.272069 1.992685 3.264685 1.999248 C 3.256071 2.007863 3.247456 2.017298 3.238021 2.025913 C 3.228175 2.036579 3.21833 2.047244 3.208075 2.0575 C 3.196178 2.070217 3.183871 2.082524 3.171565 2.09401 C 3.158027 2.106727 3.14408 2.118213 3.128491 2.128059 C 3.114133 2.136673 3.099775 2.145288 3.083366 2.150211 C 3.067778 2.154313 3.051779 2.157185 3.03578 2.152672 C 3.022243 2.14816 3.011577 2.140776 3.003373 2.129289 C 2.995578 2.119854 2.989835 2.109188 2.985323 2.098112 C 2.9804 2.087446 2.975888 2.07637 2.970965 2.065705 C 2.965222 2.053398 2.959069 2.042322 2.952505 2.030835 C 2.945531 2.0214 2.937737 2.011965 2.928712 2.004581 C 2.920918 1.999248 2.912303 1.994736 2.902047 1.995146 C 2.890561 1.995146 2.879895 1.996787 2.86964 2.00212 C 2.856923 2.009094 2.844616 2.016478 2.831899 2.024272 C 2.816721 2.034528 2.801132 2.044373 2.785544 2.054218 C 2.767904 2.065294 2.750264 2.077191 2.733445 2.089908 C 2.714985 2.103445 2.696115 2.117393 2.676424 2.129699 C 2.658785 2.141596 2.640735 2.153082 2.620634 2.161697 C 2.604635 2.168671 2.587816 2.174824 2.569766 2.174824 C 2.554177 2.174004 2.539409 2.170722 2.526282 2.161697 C 2.516027 2.153903 2.507002 2.144057 2.500028 2.132981 C 2.493874 2.121905 2.488131 2.111239 2.483619 2.099343 C 2.478696 2.087036 2.473773 2.073909 2.46803 2.061602 C 2.461877 2.048065 2.454903 2.034528 2.446288 2.022631 C 2.438904 2.012786 2.4307 2.003761 2.419214 1.998018 C 2.407727 1.992274 2.396241 1.989813 2.383524 1.992685 C 2.367525 1.995556 2.353168 2.00253 2.33922 2.010735 C 2.32117 2.02058 2.30312 2.030425 2.285891 2.041091 C 2.26661 2.052988 2.24733 2.064064 2.22928 2.07637 C 2.212871 2.087857 2.196462 2.098522 2.179643 2.108778 C 2.169387 2.115752 2.159132 2.121905 2.147645 2.126828 C 2.113597 2.140365 2.103751 2.115752 2.1378 2.102214 Z M 2.1378 2.102214 " transform="matrix(4.761118,4.761118,-4.761118,4.761118,14.361823,-12.089551)"/>
<path style="fill-rule:nonzero;fill:rgb(94.117647%,89.019608%,92.54902%);fill-opacity:1;stroke-width:0.0742585;stroke-linecap:round;stroke-linejoin:round;stroke:rgb(90.196079%,0.784314%,70.588237%);stroke-opacity:1;stroke-miterlimit:4;" d="M 2.1378 2.482902 C 2.147235 2.477569 2.15544 2.471826 2.164465 2.466083 C 2.180463 2.455007 2.196872 2.444341 2.212871 2.433265 C 2.231331 2.420548 2.250612 2.408652 2.269892 2.396755 C 2.288352 2.385679 2.306812 2.375424 2.325683 2.365578 C 2.342092 2.356553 2.359321 2.349169 2.377781 2.345477 C 2.396241 2.341785 2.413881 2.345477 2.43111 2.352861 C 2.446288 2.360656 2.458185 2.372552 2.468851 2.385679 C 2.478696 2.399627 2.48649 2.414805 2.493464 2.429984 C 2.499207 2.443111 2.50454 2.456648 2.509463 2.469775 C 2.512745 2.480441 2.518078 2.489876 2.523821 2.499722 C 2.528743 2.507926 2.534897 2.5149 2.543101 2.520643 C 2.551306 2.525566 2.561151 2.527207 2.570997 2.527207 C 2.584534 2.526796 2.597251 2.521463 2.609558 2.51572 C 2.627197 2.507926 2.644016 2.49685 2.660425 2.486184 C 2.679296 2.473877 2.697756 2.46034 2.715806 2.446392 C 2.733445 2.433676 2.751495 2.421369 2.770365 2.409883 C 2.785954 2.400858 2.801132 2.390602 2.816721 2.380757 C 2.829438 2.372962 2.842975 2.365168 2.856512 2.358194 C 2.87087 2.3504 2.886459 2.347939 2.902047 2.347939 C 2.917636 2.347939 2.931173 2.354092 2.94389 2.362707 C 2.956607 2.371321 2.966453 2.382808 2.975067 2.395525 C 2.983272 2.407831 2.989835 2.420959 2.995989 2.434496 C 3.000911 2.445162 3.005014 2.455828 3.009936 2.466493 C 3.014449 2.475929 3.017731 2.484954 3.024704 2.492748 C 3.029217 2.499722 3.03496 2.504644 3.043575 2.506695 C 3.05424 2.509157 3.065317 2.507106 3.075982 2.503824 C 3.08952 2.499311 3.101826 2.491927 3.114133 2.484543 C 3.127671 2.475929 3.140388 2.464853 3.152284 2.453777 C 3.164181 2.44188 3.176487 2.430394 3.188384 2.418497 C 3.198229 2.407831 3.208075 2.397166 3.21833 2.38691 C 3.227355 2.377885 3.23679 2.36927 3.245815 2.360245 C 3.25402 2.352861 3.263045 2.345477 3.27248 2.339324 C 3.283146 2.33194 3.294632 2.329479 3.307349 2.328248 C 3.320066 2.327838 3.331962 2.33153 3.343038 2.336863 C 3.353704 2.342606 3.362319 2.35122 3.369703 2.361066 C 3.376677 2.369681 3.38201 2.379116 3.386522 2.389371 C 3.390214 2.398806 3.394316 2.407831 3.398418 2.416856 C 3.40211 2.426291 3.406623 2.435727 3.410725 2.444752 C 3.414417 2.452546 3.41893 2.45952 3.423032 2.466904 C 3.426724 2.472237 3.430416 2.477569 3.435749 2.481262 C 3.442312 2.485364 3.448876 2.488646 3.45585 2.492338 C 3.463644 2.494389 3.470618 2.494799 3.478412 2.494389 C 3.487437 2.493568 3.496052 2.490697 3.503846 2.486184 C 3.514512 2.481262 3.523537 2.474698 3.532152 2.466904 C 3.542407 2.458289 3.551432 2.448444 3.560457 2.438598 C 3.569072 2.429163 3.578507 2.420548 3.586711 2.410703 C 3.594506 2.402088 3.6023 2.393474 3.610094 2.384859 C 3.617888 2.377885 3.624452 2.369681 3.632246 2.362707 C 3.63963 2.356964 3.647424 2.35081 3.654809 2.345067 C 3.659321 2.341375 3.663833 2.338504 3.668346 2.334812 C 3.697882 2.311019 3.714291 2.33235 3.685165 2.355733 C 3.680653 2.359425 3.67614 2.363117 3.671628 2.365989 C 3.664654 2.372142 3.65727 2.377065 3.650296 2.383218 C 3.642502 2.389371 3.636759 2.397576 3.629375 2.404139 C 3.621991 2.412344 3.615017 2.420959 3.607633 2.429163 C 3.599018 2.438598 3.589583 2.448033 3.580968 2.457469 C 3.571533 2.468545 3.561688 2.47839 3.550612 2.487825 C 3.539946 2.49685 3.528459 2.505055 3.516153 2.510798 C 3.505077 2.516131 3.49318 2.520643 3.480463 2.521053 C 3.468567 2.522284 3.45667 2.521053 3.444774 2.516541 C 3.435749 2.512439 3.427544 2.508336 3.41934 2.502593 C 3.411956 2.49603 3.404982 2.489056 3.400059 2.480851 C 3.395547 2.473057 3.391034 2.465263 3.386932 2.457058 C 3.381599 2.447623 3.377087 2.438188 3.373805 2.428343 C 3.369703 2.419318 3.36519 2.409883 3.361498 2.400447 C 3.358217 2.392243 3.353704 2.384449 3.348371 2.377475 C 3.343448 2.370911 3.338526 2.365168 3.331552 2.361476 C 3.324168 2.357374 3.316784 2.355733 3.308579 2.355733 C 3.300785 2.356143 3.293811 2.357374 3.287248 2.362297 C 3.279043 2.367219 3.272069 2.373373 3.265096 2.379526 C 3.256071 2.388551 3.247046 2.397576 3.238021 2.406601 C 3.228175 2.417267 3.21833 2.427932 3.208075 2.438188 C 3.195768 2.450495 3.184282 2.462801 3.171565 2.474698 C 3.158437 2.487005 3.14408 2.498901 3.128901 2.508336 C 3.114133 2.517361 3.099775 2.525976 3.083366 2.530899 C 3.067778 2.535001 3.052189 2.537462 3.036191 2.53295 C 3.022243 2.528848 3.011577 2.521463 3.003373 2.509977 C 2.995578 2.500542 2.989835 2.489876 2.985733 2.47839 C 2.97999 2.467724 2.975477 2.456648 2.970555 2.445982 C 2.965222 2.434086 2.959479 2.422599 2.952505 2.411523 C 2.945941 2.401678 2.938147 2.392243 2.928712 2.385269 C 2.920507 2.379526 2.912303 2.375424 2.902458 2.375424 C 2.890971 2.375424 2.879485 2.377065 2.86964 2.382808 C 2.856923 2.389782 2.844616 2.397166 2.831899 2.40496 C 2.816721 2.415215 2.801542 2.424651 2.785954 2.434496 C 2.767904 2.445982 2.750264 2.457879 2.733035 2.470185 C 2.714985 2.484133 2.696115 2.498081 2.676424 2.510387 C 2.658785 2.522284 2.640735 2.53377 2.620634 2.542385 C 2.604635 2.549359 2.587406 2.555102 2.570176 2.555102 C 2.554588 2.554281 2.539409 2.55141 2.526282 2.542385 C 2.515616 2.53418 2.507002 2.524745 2.500438 2.513259 C 2.493874 2.502593 2.488131 2.491927 2.483619 2.480031 C 2.478696 2.466904 2.473773 2.454597 2.46762 2.44188 C 2.461877 2.428753 2.454903 2.415215 2.446699 2.402909 C 2.438904 2.393474 2.43029 2.384038 2.418803 2.378295 C 2.407727 2.372962 2.396241 2.370501 2.383934 2.372962 C 2.367525 2.376244 2.353168 2.383218 2.33881 2.391012 C 2.32076 2.400858 2.30312 2.411113 2.285891 2.421779 C 2.267021 2.433265 2.24774 2.444341 2.22928 2.457058 C 2.213281 2.468134 2.196462 2.47921 2.179643 2.489466 C 2.169387 2.49644 2.159132 2.502593 2.147645 2.506695 C 2.113187 2.520643 2.103751 2.49644 2.1378 2.482902 Z M 2.1378 2.482902 " transform="matrix(4.761118,4.761118,-4.761118,4.761118,14.361823,-12.089551)"/>
<path style="fill-rule:nonzero;fill:rgb(94.117647%,89.019608%,92.54902%);fill-opacity:1;stroke-width:0.0742585;stroke-linecap:round;stroke-linejoin:round;stroke:rgb(90.196079%,0.784314%,70.588237%);stroke-opacity:1;stroke-miterlimit:4;" d="M 2.1378 2.812723 C 2.147235 2.80739 2.15544 2.801646 2.164465 2.795903 C 2.180463 2.784827 2.196872 2.774161 2.212871 2.763085 C 2.231741 2.749958 2.250612 2.738472 2.270302 2.726165 C 2.288352 2.715499 2.306812 2.705244 2.325683 2.695398 C 2.342092 2.686374 2.359321 2.67899 2.377781 2.675297 C 2.396241 2.671605 2.413881 2.675297 2.43111 2.682682 C 2.446288 2.690476 2.458185 2.702372 2.468851 2.715499 C 2.478696 2.729447 2.48649 2.744625 2.493464 2.759804 C 2.499207 2.772931 2.50454 2.786468 2.509463 2.799595 C 2.512745 2.810261 2.518078 2.819696 2.523821 2.829542 C 2.529154 2.837336 2.534897 2.84472 2.543101 2.850463 C 2.551306 2.855386 2.561151 2.857027 2.570997 2.857027 C 2.584534 2.856617 2.597251 2.851284 2.609558 2.84554 C 2.627607 2.837336 2.644016 2.82667 2.660425 2.816004 C 2.679296 2.803698 2.697756 2.79016 2.715806 2.776213 C 2.733445 2.763496 2.751495 2.751189 2.770365 2.739703 C 2.785954 2.730678 2.801132 2.720422 2.816721 2.710577 C 2.829438 2.702783 2.842975 2.694988 2.856512 2.688014 C 2.87087 2.68022 2.886459 2.677759 2.902047 2.677759 C 2.917636 2.677759 2.931173 2.683912 2.9443 2.692117 C 2.956607 2.701142 2.966453 2.712628 2.975067 2.725345 C 2.983272 2.737652 2.989835 2.750779 2.995989 2.764316 C 3.000501 2.774572 3.005014 2.785648 3.009936 2.796314 C 3.014449 2.805749 3.017731 2.814774 3.024704 2.822568 C 3.029627 2.829132 3.03496 2.834464 3.043575 2.836516 C 3.05424 2.838977 3.065317 2.836926 3.075982 2.833644 C 3.08952 2.829132 3.101826 2.821747 3.114133 2.814363 C 3.127671 2.805749 3.140388 2.794673 3.152284 2.783597 C 3.164181 2.7717 3.176077 2.759804 3.188384 2.748317 C 3.198229 2.737652 3.208075 2.726986 3.21833 2.71673 C 3.227355 2.707705 3.23679 2.69909 3.245815 2.690066 C 3.25402 2.682682 3.263045 2.675297 3.27248 2.669144 C 3.283146 2.66176 3.294632 2.659299 3.307349 2.658068 C 3.320066 2.657658 3.331962 2.66135 3.343038 2.666683 C 3.353704 2.672426 3.362319 2.681041 3.369703 2.690886 C 3.376677 2.699501 3.38201 2.708936 3.386522 2.719191 C 3.390214 2.728627 3.394316 2.737652 3.398418 2.746676 C 3.40211 2.756112 3.406623 2.765547 3.410725 2.774572 C 3.414417 2.782366 3.41893 2.78934 3.423032 2.796724 C 3.426724 2.802057 3.430416 2.80739 3.435749 2.811082 C 3.442312 2.815184 3.448876 2.818466 3.45585 2.822158 C 3.463234 2.823799 3.470618 2.824619 3.478412 2.824209 C 3.487437 2.823388 3.496052 2.820517 3.503846 2.816004 C 3.514512 2.811082 3.523537 2.804518 3.532152 2.796724 C 3.542407 2.788109 3.551432 2.778264 3.560457 2.768418 C 3.569072 2.758983 3.578507 2.750368 3.586711 2.740523 C 3.594506 2.731908 3.6023 2.723294 3.610094 2.714679 C 3.617888 2.707705 3.624452 2.699501 3.632246 2.692527 C 3.64004 2.686374 3.647424 2.68063 3.654809 2.674887 C 3.659321 2.671195 3.663833 2.668324 3.668346 2.664632 C 3.697882 2.640839 3.714291 2.66217 3.684755 2.685143 C 3.680242 2.688835 3.67573 2.692527 3.671628 2.695809 C 3.664654 2.701962 3.65727 2.706885 3.650296 2.713038 C 3.642502 2.719191 3.636759 2.727396 3.629375 2.73396 C 3.621991 2.742164 3.615017 2.750779 3.607633 2.758983 C 3.599018 2.768418 3.589583 2.777854 3.580968 2.787289 C 3.571943 2.797954 3.561688 2.80821 3.550612 2.817645 C 3.539946 2.82667 3.528459 2.834875 3.516153 2.840618 C 3.505077 2.845951 3.49318 2.850463 3.480463 2.850873 C 3.468567 2.852104 3.45667 2.850873 3.444774 2.846361 C 3.435749 2.842259 3.427134 2.837746 3.41934 2.832413 C 3.411956 2.82585 3.404982 2.818876 3.400059 2.810671 C 3.395547 2.802877 3.391034 2.795083 3.386932 2.786878 C 3.381599 2.777443 3.377087 2.768008 3.373805 2.758163 C 3.369293 2.748728 3.36519 2.739703 3.361498 2.730268 C 3.358217 2.722063 3.353704 2.714269 3.347961 2.706885 C 3.343448 2.700731 3.338526 2.694988 3.331142 2.690886 C 3.324168 2.687194 3.316784 2.685553 3.308579 2.685553 C 3.300785 2.685963 3.293811 2.687194 3.287248 2.692117 C 3.279043 2.697039 3.271659 2.702783 3.265096 2.709346 C 3.256071 2.718371 3.247046 2.727396 3.238021 2.736421 C 3.227765 2.746676 3.21833 2.757753 3.208075 2.768008 C 3.195768 2.780315 3.184282 2.792622 3.171565 2.804518 C 3.158437 2.816825 3.14408 2.828721 3.128901 2.838156 C 3.114133 2.847181 3.099775 2.855796 3.083366 2.860719 C 3.067778 2.864821 3.051779 2.866872 3.036191 2.86277 C 3.022653 2.858257 3.011577 2.851284 3.003373 2.839797 C 2.995578 2.830362 2.989835 2.819696 2.985733 2.80821 C 2.97999 2.797544 2.975477 2.786468 2.970555 2.775802 C 2.965222 2.763906 2.959069 2.752009 2.952505 2.741344 C 2.945941 2.731498 2.938147 2.722063 2.928712 2.715089 C 2.920507 2.709346 2.912303 2.705244 2.902458 2.705244 C 2.890971 2.705244 2.879485 2.706885 2.86964 2.712628 C 2.856923 2.719602 2.844616 2.726986 2.832309 2.73437 C 2.817131 2.744625 2.801542 2.754471 2.785954 2.764316 C 2.767904 2.775802 2.750675 2.787289 2.733035 2.800006 C 2.714985 2.813953 2.696115 2.827901 2.676424 2.840208 C 2.658785 2.852104 2.640735 2.86359 2.620634 2.872205 C 2.604635 2.879179 2.587406 2.884922 2.570176 2.884922 C 2.554588 2.884102 2.538999 2.88082 2.526282 2.872205 C 2.515616 2.864001 2.507002 2.854565 2.500438 2.843079 C 2.493874 2.832413 2.488131 2.821747 2.483619 2.809851 C 2.478696 2.796724 2.473773 2.784417 2.46762 2.7717 C 2.461467 2.758163 2.454903 2.745036 2.446699 2.732729 C 2.438904 2.723294 2.43029 2.713859 2.418803 2.708115 C 2.407727 2.702783 2.396241 2.700321 2.383934 2.702783 C 2.367525 2.706064 2.353168 2.713038 2.33881 2.720832 C 2.32076 2.730678 2.30312 2.740933 2.285891 2.751599 C 2.267021 2.763085 2.24774 2.774161 2.22928 2.786878 C 2.213281 2.797954 2.196462 2.809031 2.179643 2.819286 C 2.169797 2.82585 2.159132 2.832413 2.147645 2.836516 C 2.113187 2.850463 2.103751 2.82626 2.1378 2.812723 Z M 2.1378 2.812723 " transform="matrix(4.761118,4.761118,-4.761118,4.761118,14.361823,-12.089551)"/>
<path style="fill-rule:nonzero;fill:rgb(94.117647%,89.019608%,92.54902%);fill-opacity:1;stroke-width:0.0742585;stroke-linecap:round;stroke-linejoin:round;stroke:rgb(90.196079%,0.784314%,70.588237%);stroke-opacity:1;stroke-miterlimit:4;" d="M 1.725734 1.336479 L 3.843842 1.336479 C 3.978435 1.336479 4.087503 1.439744 4.087503 1.566796 L 4.087503 3.976136 C 4.087503 4.103187 3.978435 4.206453 3.843842 4.206453 L 1.725734 4.206453 C 1.591141 4.206453 1.482074 4.103187 1.482074 3.976136 L 1.482074 1.566796 C 1.482074 1.439744 1.591141 1.336479 1.725734 1.336479 Z M 1.725734 1.336479 " transform="matrix(6.733237,0,0,6.733237,2.477877,1.676954)"/>
<path style="fill-rule:nonzero;fill:rgb(94.117647%,89.019608%,92.54902%);fill-opacity:1;stroke-width:0.280662;stroke-linecap:round;stroke-linejoin:round;stroke:rgb(90.196079%,0.784314%,70.588237%);stroke-opacity:1;stroke-miterlimit:4;" d="M 1.816817 1.448446 L 3.752759 1.448446 C 3.87575 1.448446 3.975535 1.54359 3.975535 1.660779 L 3.975535 3.882152 C 3.975535 3.999342 3.87575 4.094485 3.752759 4.094485 L 1.816817 4.094485 C 1.693827 4.094485 1.594042 3.999342 1.594042 3.882152 L 1.594042 1.660779 C 1.594042 1.54359 1.693827 1.448446 1.816817 1.448446 Z M 1.816817 1.448446 " transform="matrix(6.733237,0,0,6.733237,2.477877,1.676954)"/>
<path style="fill-rule:nonzero;fill:rgb(94.117647%,89.019608%,92.54902%);fill-opacity:1;stroke-width:0.0742585;stroke-linecap:round;stroke-linejoin:round;stroke:rgb(90.196079%,0.784314%,70.588237%);stroke-opacity:1;stroke-miterlimit:4;" d="M 2.138217 2.102269 C 2.146919 2.097048 2.155622 2.091246 2.164324 2.085445 C 2.180568 2.074422 2.196812 2.06398 2.212476 2.052377 C 2.23162 2.039614 2.250765 2.028011 2.27049 2.016408 C 2.288475 2.005385 2.307039 1.994943 2.325604 1.98508 C 2.341848 1.976378 2.359252 1.968836 2.377817 1.964775 C 2.396381 1.961294 2.413786 1.964775 2.43061 1.972317 C 2.446274 1.980439 2.458457 1.992042 2.4689 2.005385 C 2.478762 2.018728 2.486304 2.034392 2.493266 2.049476 C 2.499067 2.062239 2.504288 2.076163 2.50951 2.089506 C 2.512991 2.099949 2.518212 2.109811 2.524013 2.119093 C 2.528654 2.127215 2.535036 2.134177 2.543158 2.139979 C 2.55128 2.1452 2.561143 2.14636 2.571005 2.14694 C 2.584348 2.14636 2.597111 2.141139 2.609294 2.135337 C 2.627279 2.127215 2.644103 2.116773 2.660347 2.10517 C 2.679492 2.092987 2.697476 2.079644 2.716041 2.0663 C 2.733445 2.052957 2.75143 2.040774 2.769995 2.029171 C 2.785658 2.019889 2.801322 2.010026 2.816986 2.000744 C 2.829749 1.992622 2.843093 1.98508 2.856436 1.977538 C 2.87094 1.969416 2.886023 1.967676 2.902267 1.967096 C 2.917931 1.967676 2.931275 1.973477 2.944038 1.981599 C 2.956221 1.990882 2.966083 2.002484 2.975366 2.014667 C 2.983488 2.027431 2.989869 2.040774 2.995671 2.054117 C 3.000312 2.06456 3.004953 2.075583 3.010174 2.086025 C 3.014235 2.095308 3.017716 2.10459 3.024678 2.112132 C 3.029319 2.119093 3.035121 2.124315 3.043823 2.126055 C 3.054265 2.128956 3.065288 2.126635 3.075731 2.123154 C 3.089654 2.119093 3.101837 2.111552 3.11402 2.10401 C 3.127944 2.095308 3.140127 2.084285 3.15231 2.073262 C 3.164493 2.061659 3.176096 2.050056 3.188279 2.037873 C 3.198141 2.027431 3.208004 2.016988 3.218446 2.006545 C 3.227728 1.997263 3.236431 1.988561 3.245713 1.979859 C 3.253835 1.971737 3.263117 1.964775 3.2724 1.958974 C 3.282842 1.951432 3.294445 1.948531 3.307208 1.947951 C 3.319971 1.947371 3.332154 1.950852 3.343177 1.956073 C 3.3542 1.961874 3.362322 1.970576 3.369864 1.980439 C 3.376826 1.989141 3.382047 1.999004 3.386688 2.008866 C 3.390169 2.018148 3.39423 2.027431 3.398291 2.036713 C 3.401772 2.045995 3.406413 2.055278 3.411054 2.06456 C 3.414535 2.072102 3.418596 2.079063 3.423237 2.086605 C 3.426718 2.091827 3.430199 2.097048 3.43542 2.100529 C 3.441802 2.10517 3.448764 2.108651 3.455725 2.111552 C 3.463267 2.113872 3.470809 2.114452 3.478351 2.113872 C 3.487633 2.113292 3.496335 2.109811 3.503877 2.10575 C 3.51432 2.100529 3.523602 2.094147 3.532304 2.086605 C 3.542167 2.077903 3.551449 2.068041 3.560731 2.058178 C 3.568853 2.048896 3.578136 2.039614 3.586838 2.030331 C 3.59438 2.021629 3.601922 2.012927 3.610044 2.004805 C 3.617586 1.997263 3.624547 1.989141 3.632089 1.982179 C 3.639631 1.976378 3.647173 1.970576 3.654715 1.964775 C 3.659356 1.961294 3.663997 1.957813 3.668058 1.954332 C 3.697645 1.930546 3.71447 1.951432 3.684882 1.975218 C 3.680241 1.978698 3.67618 1.982179 3.671539 1.98566 C 3.664577 1.991462 3.657035 1.996683 3.650074 2.002484 C 3.642532 2.008866 3.63673 2.016988 3.629769 2.02337 C 3.621647 2.031492 3.614685 2.040194 3.607143 2.048896 C 3.599021 2.058178 3.589739 2.067461 3.581036 2.076743 C 3.571754 2.087766 3.561312 2.098208 3.550289 2.107491 C 3.539846 2.116193 3.528823 2.124315 3.51606 2.130116 C 3.505038 2.135918 3.493435 2.139979 3.480671 2.140559 C 3.468488 2.141719 3.456305 2.140559 3.444702 2.135918 C 3.436 2.131857 3.427298 2.127796 3.419176 2.121994 C 3.411634 2.115613 3.405253 2.108651 3.400031 2.100529 C 3.39539 2.092407 3.390749 2.084865 3.386688 2.076743 C 3.382047 2.06688 3.377406 2.057598 3.373925 2.047736 C 3.369864 2.038453 3.365223 2.029171 3.361742 2.019889 C 3.358261 2.011767 3.35362 2.003645 3.348399 1.996683 C 3.343757 1.990301 3.338536 1.9845 3.331574 1.980439 C 3.324032 1.976958 3.316491 1.975218 3.308369 1.975218 C 3.300827 1.975218 3.293865 1.976958 3.286903 1.981599 C 3.278781 1.98682 3.271819 1.992622 3.264858 1.999004 C 3.256156 2.008286 3.247453 2.016988 3.238171 2.02627 C 3.228309 2.036713 3.218446 2.047156 3.208004 2.057598 C 3.195821 2.069781 3.184218 2.082544 3.171454 2.094147 C 3.158111 2.10633 3.144188 2.118513 3.128524 2.127796 C 3.1146 2.137078 3.099517 2.1452 3.083273 2.150421 C 3.067609 2.154482 3.051945 2.156803 3.035701 2.152162 C 3.022357 2.148101 3.011915 2.141139 3.003213 2.129536 C 2.995671 2.119674 2.989869 2.109231 2.985228 2.098208 C 2.980007 2.087185 2.975366 2.076163 2.970724 2.06572 C 2.964923 2.053537 2.959122 2.041934 2.95216 2.030911 C 2.945778 2.021049 2.938236 2.011767 2.928954 2.004805 C 2.920832 1.999004 2.91213 1.994943 2.902267 1.994943 C 2.890665 1.994943 2.879642 1.996683 2.869779 2.002484 C 2.857016 2.008866 2.844253 2.016408 2.83207 2.02453 C 2.816986 2.034392 2.801322 2.044255 2.785658 2.054117 C 2.767674 2.06514 2.75027 2.076743 2.733445 2.089506 C 2.714881 2.10343 2.696316 2.117353 2.676591 2.129536 C 2.658607 2.141719 2.640622 2.153322 2.620897 2.162024 C 2.604653 2.168406 2.587829 2.174787 2.569845 2.174787 C 2.554181 2.173627 2.539097 2.170726 2.526334 2.162024 C 2.515891 2.153902 2.507189 2.14404 2.500227 2.133017 C 2.493846 2.121994 2.488044 2.110971 2.483983 2.099369 C 2.478762 2.086605 2.473541 2.073842 2.467739 2.061659 C 2.461358 2.048316 2.454976 2.034972 2.446854 2.022789 C 2.438732 2.012927 2.43061 2.003645 2.419007 1.997843 C 2.407984 1.992622 2.396381 1.989721 2.383618 1.992622 C 2.367954 1.995523 2.353451 2.003065 2.338947 2.010606 C 2.320963 2.020469 2.302978 2.030331 2.285574 2.041354 C 2.267009 2.052957 2.247865 2.06398 2.2293 2.076743 C 2.213056 2.087766 2.196232 2.098208 2.179407 2.109231 C 2.169545 2.115613 2.159102 2.121994 2.1475 2.126635 C 2.113271 2.139979 2.103989 2.116193 2.138217 2.102269 Z M 2.138217 2.102269 " transform="matrix(6.733237,0,0,6.733237,2.477877,1.676954)"/>
<path style="fill-rule:nonzero;fill:rgb(94.117647%,89.019608%,92.54902%);fill-opacity:1;stroke-width:0.0742585;stroke-linecap:round;stroke-linejoin:round;stroke:rgb(90.196079%,0.784314%,70.588237%);stroke-opacity:1;stroke-miterlimit:4;" d="M 2.138217 2.482844 C 2.146919 2.477623 2.155622 2.471821 2.164324 2.46602 C 2.180568 2.454997 2.196812 2.444554 2.212476 2.432952 C 2.23162 2.420188 2.250765 2.408586 2.27049 2.396983 C 2.288475 2.38596 2.307039 2.375517 2.325604 2.365655 C 2.341848 2.356373 2.359252 2.349411 2.377817 2.34535 C 2.396381 2.341869 2.413786 2.34535 2.43061 2.352892 C 2.446274 2.361014 2.458457 2.372617 2.4689 2.38596 C 2.478762 2.399303 2.486304 2.414967 2.493266 2.430051 C 2.499067 2.442814 2.504288 2.456737 2.50951 2.470081 C 2.512991 2.480523 2.518212 2.489806 2.524013 2.499668 C 2.528654 2.50779 2.535036 2.514752 2.543158 2.520553 C 2.55128 2.525775 2.561143 2.526935 2.571005 2.527515 C 2.584348 2.526935 2.597111 2.521714 2.609294 2.515912 C 2.627279 2.50779 2.644103 2.496767 2.660347 2.485745 C 2.679492 2.473562 2.697476 2.460218 2.716041 2.446875 C 2.733445 2.433532 2.75143 2.421349 2.769995 2.409746 C 2.785658 2.400463 2.801322 2.390601 2.816986 2.380739 C 2.829749 2.373197 2.843093 2.365075 2.856436 2.358113 C 2.87094 2.349991 2.886023 2.34767 2.902267 2.34767 C 2.917931 2.34825 2.931275 2.354052 2.944038 2.362174 C 2.956221 2.370876 2.966083 2.383059 2.975366 2.395242 C 2.983488 2.407425 2.989869 2.421349 2.995671 2.434692 C 3.000312 2.445135 3.004953 2.456157 3.010174 2.4666 C 3.014235 2.475882 3.017716 2.485165 3.024678 2.492706 C 3.029319 2.499668 3.035121 2.504889 3.043823 2.50663 C 3.054265 2.509531 3.065288 2.50721 3.075731 2.503729 C 3.089654 2.499668 3.101837 2.492126 3.11402 2.484584 C 3.127944 2.475882 3.140127 2.46486 3.15231 2.453837 C 3.164493 2.442234 3.176096 2.430051 3.188279 2.418448 C 3.198141 2.408005 3.208004 2.397563 3.218446 2.38712 C 3.227728 2.377838 3.236431 2.369136 3.245713 2.360434 C 3.253835 2.352311 3.263117 2.34535 3.2724 2.338968 C 3.282842 2.332006 3.294445 2.329106 3.307208 2.328526 C 3.319971 2.327945 3.332154 2.331426 3.343177 2.336648 C 3.3542 2.342449 3.362322 2.351151 3.369864 2.360434 C 3.376826 2.369716 3.382047 2.378998 3.386688 2.389441 C 3.390169 2.398723 3.39423 2.408005 3.398291 2.417288 C 3.401772 2.42657 3.406413 2.435852 3.411054 2.445135 C 3.414535 2.452676 3.418596 2.459638 3.423237 2.46718 C 3.426718 2.472401 3.430199 2.477623 3.43542 2.481104 C 3.441802 2.485165 3.448764 2.489226 3.455725 2.492126 C 3.463267 2.494447 3.470809 2.495027 3.478351 2.494447 C 3.487633 2.493867 3.496335 2.490386 3.503877 2.486325 C 3.51432 2.481104 3.523602 2.474142 3.532304 2.4666 C 3.542167 2.458478 3.551449 2.448615 3.560731 2.438753 C 3.568853 2.428891 3.578136 2.420188 3.586838 2.410906 C 3.59438 2.402204 3.601922 2.393502 3.610044 2.38538 C 3.617586 2.377838 3.624547 2.369716 3.632089 2.362754 C 3.639631 2.356953 3.647173 2.351151 3.654715 2.34535 C 3.659356 2.341869 3.663997 2.338388 3.668058 2.334907 C 3.697645 2.311121 3.71447 2.332006 3.684882 2.355792 C 3.680241 2.359273 3.67618 2.362754 3.671539 2.366235 C 3.664577 2.372036 3.657035 2.377258 3.650074 2.383059 C 3.642532 2.389441 3.63673 2.397563 3.629769 2.403944 C 3.621647 2.412066 3.614685 2.420769 3.607143 2.429471 C 3.599021 2.438753 3.589739 2.447455 3.581036 2.457318 C 3.571754 2.46834 3.561312 2.478203 3.550289 2.487485 C 3.539846 2.496767 3.528823 2.504889 3.51606 2.510691 C 3.505038 2.516492 3.493435 2.520553 3.480671 2.521134 C 3.468488 2.522294 3.456305 2.521134 3.444702 2.516492 C 3.436 2.512431 3.427298 2.50837 3.419176 2.502569 C 3.411634 2.496187 3.405253 2.489226 3.400031 2.480523 C 3.39539 2.472982 3.390749 2.46544 3.386688 2.457318 C 3.382047 2.447455 3.377406 2.438173 3.373925 2.42831 C 3.369864 2.419028 3.365223 2.409746 3.361742 2.400463 C 3.358261 2.392341 3.35362 2.384219 3.348399 2.377258 C 3.343757 2.370876 3.338536 2.365075 3.331574 2.361014 C 3.324032 2.357533 3.316491 2.355792 3.308369 2.355792 C 3.300827 2.355792 3.293865 2.357533 3.286903 2.362174 C 3.278781 2.367395 3.271819 2.373197 3.264858 2.379578 C 3.256156 2.388861 3.247453 2.397563 3.238171 2.406265 C 3.228309 2.416708 3.218446 2.42773 3.208004 2.438173 C 3.195821 2.450356 3.184218 2.463119 3.171454 2.474722 C 3.158111 2.486905 3.144188 2.499088 3.128524 2.50837 C 3.1146 2.517653 3.099517 2.525775 3.083273 2.530996 C 3.067609 2.535057 3.051945 2.537378 3.035701 2.532736 C 3.022357 2.528675 3.011915 2.521134 3.003213 2.510111 C 2.995671 2.500248 2.989869 2.489806 2.985228 2.478203 C 2.980007 2.46776 2.975366 2.456737 2.970724 2.446295 C 2.964923 2.434112 2.959122 2.422509 2.95216 2.411486 C 2.945778 2.401624 2.938236 2.392341 2.928954 2.38538 C 2.920832 2.379578 2.91213 2.375517 2.902267 2.375517 C 2.890665 2.375517 2.879642 2.377258 2.869779 2.383059 C 2.857016 2.389441 2.844253 2.396983 2.83207 2.404524 C 2.816986 2.414967 2.801322 2.42483 2.785658 2.434692 C 2.767674 2.445715 2.75027 2.457318 2.733445 2.470081 C 2.714881 2.484004 2.696316 2.497928 2.676591 2.510111 C 2.658607 2.522294 2.640622 2.533897 2.620897 2.542019 C 2.604653 2.54898 2.587829 2.555362 2.569845 2.555362 C 2.554181 2.554202 2.539097 2.551301 2.526334 2.542599 C 2.515891 2.534477 2.507189 2.524614 2.500227 2.513592 C 2.493846 2.502569 2.488044 2.491546 2.483983 2.479943 C 2.478762 2.46718 2.473541 2.454417 2.467739 2.441654 C 2.461358 2.42831 2.454976 2.415547 2.446854 2.403364 C 2.438732 2.392922 2.43061 2.384219 2.419007 2.378418 C 2.407984 2.372617 2.396381 2.370296 2.383618 2.373197 C 2.367954 2.376097 2.353451 2.383059 2.338947 2.391181 C 2.320963 2.401044 2.302978 2.410906 2.285574 2.421929 C 2.267009 2.433532 2.247865 2.444554 2.2293 2.457318 C 2.213056 2.46834 2.196232 2.478783 2.179407 2.489806 C 2.169545 2.496187 2.159102 2.502569 2.1475 2.50721 C 2.113271 2.520553 2.103989 2.496767 2.138217 2.482844 Z M 2.138217 2.482844 " transform="matrix(6.733237,0,0,6.733237,2.477877,1.676954)"/>
<path style="fill-rule:nonzero;fill:rgb(94.117647%,89.019608%,92.54902%);fill-opacity:1;stroke-width:0.0742585;stroke-linecap:round;stroke-linejoin:round;stroke:rgb(90.196079%,0.784314%,70.588237%);stroke-opacity:1;stroke-miterlimit:4;" d="M 2.138217 2.812366 C 2.146919 2.807145 2.155622 2.801923 2.164324 2.796122 C 2.180568 2.784519 2.196812 2.774077 2.212476 2.763054 C 2.23162 2.750291 2.250765 2.738688 2.27049 2.726505 C 2.288475 2.715482 2.307039 2.705619 2.325604 2.695757 C 2.341848 2.686475 2.359252 2.678933 2.377817 2.674872 C 2.396381 2.671391 2.413786 2.674872 2.43061 2.682994 C 2.446274 2.690536 2.458457 2.702139 2.4689 2.715482 C 2.478762 2.729405 2.486304 2.744489 2.493266 2.759573 C 2.499067 2.772916 2.504288 2.78626 2.50951 2.799603 C 2.512991 2.810045 2.518212 2.819908 2.524013 2.82919 C 2.528654 2.837312 2.535036 2.844854 2.543158 2.850656 C 2.55128 2.855297 2.561143 2.857037 2.571005 2.857037 C 2.584348 2.856457 2.597111 2.851236 2.609294 2.846014 C 2.627279 2.837312 2.644103 2.82687 2.660347 2.815847 C 2.679492 2.803664 2.697476 2.78974 2.716041 2.776397 C 2.733445 2.763634 2.75143 2.751451 2.769995 2.739848 C 2.785658 2.730566 2.801322 2.720703 2.816986 2.710841 C 2.829749 2.702719 2.843093 2.695177 2.856436 2.688215 C 2.87094 2.680093 2.886023 2.677773 2.902267 2.677773 C 2.917931 2.677773 2.931275 2.684154 2.944038 2.692276 C 2.956221 2.700978 2.966083 2.712581 2.975366 2.725344 C 2.983488 2.737527 2.989869 2.750871 2.995671 2.764214 C 3.000312 2.775237 3.004953 2.785679 3.010174 2.796122 C 3.014235 2.805984 3.017716 2.814687 3.024678 2.822809 C 3.029319 2.82919 3.035121 2.834412 3.043823 2.836732 C 3.054265 2.839053 3.065288 2.836732 3.075731 2.833831 C 3.089654 2.82919 3.101837 2.821648 3.11402 2.814106 C 3.127944 2.805404 3.140127 2.794962 3.15231 2.783359 C 3.164493 2.771756 3.176096 2.760153 3.188279 2.74797 C 3.198141 2.738108 3.208004 2.727085 3.218446 2.716642 C 3.227728 2.70794 3.236431 2.699238 3.245713 2.689956 C 3.253835 2.682414 3.263117 2.674872 3.2724 2.66907 C 3.282842 2.662109 3.294445 2.659208 3.307208 2.658048 C 3.319971 2.657467 3.332154 2.660948 3.343177 2.66675 C 3.3542 2.672551 3.362322 2.681253 3.369864 2.690536 C 3.376826 2.699238 3.382047 2.7091 3.386688 2.718963 C 3.390169 2.728825 3.39423 2.737527 3.398291 2.74681 C 3.401772 2.756672 3.406413 2.765374 3.411054 2.774657 C 3.414535 2.782199 3.418596 2.78974 3.423237 2.796702 C 3.426718 2.801923 3.430199 2.807145 3.43542 2.810626 C 3.441802 2.815267 3.448764 2.818748 3.455725 2.821648 C 3.463267 2.823969 3.470809 2.824549 3.478351 2.823969 C 3.487633 2.823389 3.496335 2.819908 3.503877 2.815847 C 3.51432 2.811206 3.523602 2.804244 3.532304 2.796702 C 3.542167 2.788 3.551449 2.778718 3.560731 2.768855 C 3.568853 2.758993 3.578136 2.750291 3.586838 2.740428 C 3.59438 2.732306 3.601922 2.723024 3.610044 2.714902 C 3.617586 2.70736 3.624547 2.699818 3.632089 2.692276 C 3.639631 2.686475 3.647173 2.680673 3.654715 2.674872 C 3.659356 2.671391 3.663997 2.66791 3.668058 2.664429 C 3.697645 2.641223 3.71447 2.662109 3.684882 2.685314 C 3.680241 2.688795 3.67618 2.692856 3.671539 2.696337 C 3.664577 2.701558 3.657035 2.70736 3.650074 2.713161 C 3.642532 2.719543 3.63673 2.727085 3.629769 2.734047 C 3.621647 2.742169 3.614685 2.750871 3.607143 2.758993 C 3.599021 2.768855 3.589739 2.777557 3.581036 2.78742 C 3.571754 2.797862 3.561312 2.808305 3.550289 2.817587 C 3.539846 2.82629 3.528823 2.834992 3.51606 2.840793 C 3.505038 2.846014 3.493435 2.850075 3.480671 2.851236 C 3.468488 2.851816 3.456305 2.850656 3.444702 2.846595 C 3.436 2.842534 3.427298 2.837892 3.419176 2.832091 C 3.411634 2.82629 3.405253 2.818748 3.400031 2.810626 C 3.39539 2.803084 3.390749 2.794962 3.386688 2.78684 C 3.382047 2.777557 3.377406 2.767695 3.373925 2.757832 C 3.369864 2.74855 3.365223 2.739848 3.361742 2.730566 C 3.358261 2.721864 3.35362 2.714322 3.348399 2.70678 C 3.343757 2.700978 3.338536 2.695177 3.331574 2.691116 C 3.324032 2.687635 3.316491 2.685314 3.308369 2.685314 C 3.300827 2.685895 3.293865 2.687055 3.286903 2.691696 C 3.278781 2.696917 3.271819 2.702719 3.264858 2.70968 C 3.256156 2.718383 3.247453 2.727665 3.238171 2.736367 C 3.228309 2.74681 3.218446 2.757832 3.208004 2.768275 C 3.195821 2.780458 3.184218 2.792641 3.171454 2.804244 C 3.158111 2.817007 3.144188 2.82861 3.128524 2.838473 C 3.1146 2.847175 3.099517 2.855297 3.083273 2.860518 C 3.067609 2.864579 3.051945 2.86748 3.035701 2.862839 C 3.022357 2.858197 3.011915 2.851236 3.003213 2.839633 C 2.995671 2.830351 2.989869 2.819908 2.985228 2.808305 C 2.980007 2.797862 2.975366 2.78684 2.970724 2.775817 C 2.964923 2.764214 2.959122 2.752611 2.95216 2.741008 C 2.945778 2.731726 2.938236 2.722444 2.928954 2.714902 C 2.920832 2.70968 2.91213 2.705619 2.902267 2.705039 C 2.890665 2.705039 2.879642 2.70678 2.869779 2.712581 C 2.857016 2.719543 2.844253 2.727085 2.83207 2.734627 C 2.816986 2.744489 2.801322 2.754352 2.785658 2.764214 C 2.767674 2.775817 2.75027 2.78742 2.733445 2.800183 C 2.714881 2.814106 2.696316 2.82745 2.676591 2.840213 C 2.658607 2.851816 2.640622 2.863419 2.620897 2.872121 C 2.604653 2.879083 2.587829 2.884884 2.569845 2.884884 C 2.554181 2.884304 2.539097 2.880823 2.526334 2.872121 C 2.515891 2.863999 2.507189 2.854136 2.500227 2.843114 C 2.493846 2.832671 2.488044 2.821648 2.483983 2.810045 C 2.478762 2.797282 2.473541 2.783939 2.467739 2.771756 C 2.461358 2.758413 2.454976 2.745069 2.446854 2.732886 C 2.438732 2.723024 2.43061 2.713741 2.419007 2.70794 C 2.407984 2.702719 2.396381 2.700398 2.383618 2.702719 C 2.367954 2.7062 2.353451 2.713161 2.338947 2.720703 C 2.320963 2.730566 2.302978 2.741008 2.285574 2.751451 C 2.267009 2.763054 2.247865 2.774077 2.2293 2.78684 C 2.213056 2.797862 2.196232 2.808885 2.179407 2.819328 C 2.169545 2.825709 2.159102 2.832091 2.1475 2.836732 C 2.113271 2.850656 2.103989 2.82629 2.138217 2.812366 Z M 2.138217 2.812366 " transform="matrix(6.733237,0,0,6.733237,2.477877,1.676954)"/>
</g>
</svg>
