<?xml version="1.0" encoding="UTF-8"?>
<svg xmlns="http://www.w3.org/2000/svg" xmlns:xlink="http://www.w3.org/1999/xlink" width="32px" height="32px" viewBox="0 0 32 32" version="1.1">
<g id="surface1">
<path style=" stroke:none;fill-rule:nonzero;fill:rgb(33.333334%,34.117648%,32.549021%);fill-opacity:1;" d="M 12 2 C 9.398438 2 7.199219 3.601562 6.398438 6 L 2 6 L 2 10 L 6.398438 10 C 7.199219 12.398438 9.398438 14 12 14 C 14 14 16.800781 12.398438 17.601562 10 L 30 10 L 30 6 L 17.601562 6 C 16.800781 3.601562 14.601562 2 12 2 Z M 12 6 C 13.101562 6 14 6.898438 14 8 C 14 9.101562 13.101562 10 12 10 C 10.898438 10 10 9.101562 10 8 C 10 6.898438 10.898438 6 12 6 Z M 20 18 C 17.398438 18 15.199219 19.601562 14.398438 22 L 2 22 L 2 26 L 14.398438 26 C 15.199219 28.398438 17.398438 30 20 30 C 22.539062 30 24.800781 28.398438 25.601562 26 L 30 26 L 30 22 L 25.601562 22 C 24.800781 19.601562 22.601562 18 20 18 Z M 20 18 "/>
</g>
</svg>
