<?xml version="1.0" encoding="UTF-8"?>
<svg xmlns="http://www.w3.org/2000/svg" xmlns:xlink="http://www.w3.org/1999/xlink" width="32px" height="32px" viewBox="0 0 32 32" version="1.1">
<g id="surface1">
<path style=" stroke:none;fill-rule:nonzero;fill:rgb(61.960787%,22.745098%,61.176473%);fill-opacity:1;" d="M 10 2 L 12 2 L 12 4 L 10 4 Z M 10 2 "/>
<path style=" stroke:none;fill-rule:nonzero;fill:rgb(61.960787%,22.745098%,61.176473%);fill-opacity:1;" d="M 2 8 L 4 8 L 4 10 L 2 10 Z M 2 8 "/>
<path style=" stroke:none;fill-rule:nonzero;fill:rgb(61.960787%,22.745098%,61.176473%);fill-opacity:1;" d="M 2 28 L 4 28 L 4 30 L 2 30 Z M 2 28 "/>
<path style=" stroke:none;fill-rule:nonzero;fill:rgb(61.960787%,22.745098%,61.176473%);fill-opacity:1;" d="M 22 28 L 24 28 L 24 30 L 22 30 Z M 22 28 "/>
<path style=" stroke:none;fill-rule:nonzero;fill:rgb(61.960787%,22.745098%,61.176473%);fill-opacity:1;" d="M 28 20 L 30 20 L 30 22 L 28 22 Z M 28 20 "/>
<path style=" stroke:none;fill-rule:nonzero;fill:rgb(90.196079%,0.784314%,70.588237%);fill-opacity:1;" d="M 4 12.679688 L 4 27.320312 C 4 27.695312 4.355469 28 4.792969 28 L 19.207031 28 C 19.644531 28 20 27.695312 20 27.320312 L 20 12.679688 C 20 12.304688 19.644531 12 19.207031 12 L 4.792969 12 C 4.355469 12 4 12.304688 4 12.679688 Z M 4 12.679688 "/>
<path style=" stroke:none;fill-rule:evenodd;fill:rgb(94.117647%,89.019608%,92.54902%);fill-opacity:1;" d="M 6 14.316406 L 6 25.683594 C 6 25.859375 6.171875 26 6.382812 26 L 17.617188 26 C 17.828125 26 18 25.859375 18 25.683594 L 18 14.316406 C 18 14.140625 17.828125 14 17.617188 14 L 6.382812 14 C 6.171875 14 6 14.140625 6 14.316406 Z M 6 14.316406 "/>
<path style=" stroke:none;fill-rule:nonzero;fill:rgb(90.196079%,0.784314%,70.588237%);fill-opacity:1;" d="M 29.890625 11 C 29.890625 15.910156 25.910156 19.890625 21 19.890625 C 16.089844 19.890625 12.109375 15.910156 12.109375 11 C 12.109375 6.089844 16.089844 2.109375 21 2.109375 C 25.910156 2.109375 29.890625 6.089844 29.890625 11 Z M 29.890625 11 "/>
<path style=" stroke:none;fill-rule:nonzero;fill:rgb(94.117647%,89.019608%,92.54902%);fill-opacity:1;" d="M 28.203125 11 C 28.203125 14.902344 24.976562 18.0625 21 18.0625 C 17.027344 18.0625 13.800781 14.902344 13.800781 11 C 13.800781 7.097656 17.027344 3.9375 21 3.9375 C 24.976562 3.9375 28.203125 7.097656 28.203125 11 Z M 28.203125 11 "/>
<path style=" stroke:none;fill-rule:nonzero;fill:rgb(61.960787%,22.745098%,61.176473%);fill-opacity:1;" d="M 28 2 L 30 2 L 30 4 L 28 4 Z M 28 2 "/>
<path style=" stroke:none;fill-rule:nonzero;fill:rgb(61.960787%,22.745098%,61.176473%);fill-opacity:1;" d="M 10 20 L 12 20 L 12 22 L 10 22 Z M 10 20 "/>
</g>
</svg>
