<?xml version="1.0" encoding="UTF-8"?>
<svg xmlns="http://www.w3.org/2000/svg" xmlns:xlink="http://www.w3.org/1999/xlink" width="32px" height="32px" viewBox="0 0 32 32" version="1.1">
<g id="surface1">
<path style="fill-rule:nonzero;fill:rgb(95.294118%,71.764708%,85.09804%);fill-opacity:1;stroke-width:1.174316;stroke-linecap:round;stroke-linejoin:round;stroke:rgb(90.196079%,0.784314%,70.588237%);stroke-opacity:1;stroke-miterlimit:4;" d="M 8.00939 0.946042 C 4.697545 0.946042 2.01062 1.60009 2.01062 2.350784 C 2.01062 3.899372 6.67529 8.668752 6.67529 8.668752 C 6.694014 8.695723 6.717419 8.740675 6.715079 8.794617 L 6.715079 15.602559 C 6.715079 15.771128 6.946791 15.874517 7.861937 15.874517 C 8.756018 15.874517 9.303702 15.793604 9.303702 15.602559 C 9.303702 15.602559 9.303702 15.600311 9.303702 15.598064 L 9.29668 8.794617 C 9.29668 8.763151 9.301361 8.727189 9.315404 8.702466 C 9.315404 8.702466 13.989437 3.85442 13.989437 2.292347 C 13.989437 1.761916 11.321236 0.946042 8.00939 0.946042 Z M 8.00939 0.946042 " transform="matrix(1.668962,0,0,1.737975,2.648259,1.383147)"/>
<path style=" stroke:none;fill-rule:nonzero;fill:rgb(61.56863%,22.745098%,60.784316%);fill-opacity:1;" d="M 16.015625 6.328125 C 12.386719 6.328125 9.382812 6.785156 8.90625 7.382812 C 10.46875 7.765625 13.070312 8.023438 16.015625 8.023438 C 18.960938 8.023438 21.558594 7.769531 23.121094 7.386719 C 22.652344 6.789062 19.648438 6.328125 16.015625 6.328125 Z M 16.015625 6.328125 "/>
<path style="fill:none;stroke-width:1.174316;stroke-linecap:round;stroke-linejoin:round;stroke:rgb(90.196079%,0.784314%,70.588237%);stroke-opacity:1;stroke-miterlimit:4;" d="M 13.930923 2.386746 C 13.930923 3.175649 11.276766 3.816211 8.002369 3.816211 C 4.727971 3.816211 2.073814 3.175649 2.073814 2.386746 C 2.073814 1.595595 4.727971 0.95728 8.002369 0.95728 C 11.276766 0.95728 13.930923 1.595595 13.930923 2.386746 Z M 13.930923 2.386746 " transform="matrix(1.668962,0,0,1.737975,2.648259,1.383147)"/>
<path style="fill-rule:nonzero;fill:rgb(95.294118%,71.764708%,85.09804%);fill-opacity:1;stroke-width:1;stroke-linecap:butt;stroke-linejoin:miter;stroke:rgb(61.56863%,22.745098%,60.784316%);stroke-opacity:1;stroke-miterlimit:4;" d="M 14.5 10 C 14.5 12.484375 12.484375 14.5 10 14.5 C 7.515625 14.5 5.5 12.484375 5.5 10 C 5.5 7.515625 7.515625 5.5 10 5.5 C 12.484375 5.5 14.5 7.515625 14.5 10 Z M 14.5 10 " transform="matrix(2,0,0,2,0,0)"/>
<path style="fill-rule:nonzero;fill:rgb(94.117647%,89.019608%,92.54902%);fill-opacity:1;stroke-width:0.308681;stroke-linecap:butt;stroke-linejoin:miter;stroke:rgb(90.196079%,0.784314%,70.588237%);stroke-opacity:1;stroke-miterlimit:4;" d="M 5.429816 3.175 C 5.429816 4.420574 4.420575 5.429815 3.175 5.429815 C 1.929426 5.429815 0.920185 4.420574 0.920185 3.175 C 0.920185 1.929426 1.929426 0.920185 3.175 0.920185 C 4.420575 0.920185 5.429816 1.929426 5.429816 3.175 Z M 5.429816 3.175 " transform="matrix(3.239595,0,0,3.239595,9.714286,9.714287)"/>
<path style="fill-rule:nonzero;fill:rgb(61.56863%,22.745098%,60.784316%);fill-opacity:1;stroke-width:0.267106;stroke-linecap:butt;stroke-linejoin:round;stroke:rgb(90.196079%,0.784314%,70.588237%);stroke-opacity:1;stroke-miterlimit:4;" d="M 1.811991 4.365761 L 2.738517 3.003101 L 3.174652 3.439235 Z M 1.811991 4.365761 " transform="matrix(3.743826,0,0,3.743826,8.931064,7.940508)"/>
<path style="fill-rule:nonzero;fill:rgb(61.56863%,22.745098%,60.784316%);fill-opacity:1;stroke-width:0.267106;stroke-linecap:butt;stroke-linejoin:round;stroke:rgb(90.196079%,0.784314%,70.588237%);stroke-opacity:1;stroke-miterlimit:4;" d="M 4.101177 2.076575 L 2.738517 3.003101 L 3.174652 3.439235 Z M 4.101177 2.076575 " transform="matrix(3.743826,0,0,3.743826,8.931064,7.940508)"/>
<path style="fill-rule:nonzero;fill:rgb(94.117647%,89.019608%,92.54902%);fill-opacity:1;stroke-width:0.267106;stroke-linecap:butt;stroke-linejoin:miter;stroke:rgb(90.196079%,0.784314%,70.588237%);stroke-opacity:1;stroke-miterlimit:4;" d="M 3.530145 3.112619 C 3.530145 3.374508 3.317294 3.587359 3.055405 3.587359 C 2.793515 3.587359 2.580665 3.374508 2.580665 3.112619 C 2.580665 2.850729 2.793515 2.637879 3.055405 2.637879 C 3.317294 2.637879 3.530145 2.850729 3.530145 3.112619 Z M 3.530145 3.112619 " transform="matrix(3.743826,0,0,3.743826,8.561097,8.346898)"/>
<path style="fill-rule:nonzero;fill:rgb(95.294118%,71.764708%,85.09804%);fill-opacity:1;stroke-width:0.267106;stroke-linecap:butt;stroke-linejoin:miter;stroke:rgb(90.196079%,0.784314%,70.588237%);stroke-opacity:1;stroke-miterlimit:4;" d="M 3.309991 3.112619 C 3.309991 3.253476 3.196262 3.367205 3.055405 3.367205 C 2.914548 3.367205 2.800819 3.253476 2.800819 3.112619 C 2.800819 2.971762 2.914548 2.858033 3.055405 2.858033 C 3.196262 2.858033 3.309991 2.971762 3.309991 3.112619 Z M 3.309991 3.112619 " transform="matrix(3.743826,0,0,3.743826,8.561097,8.346898)"/>
<path style="fill:none;stroke-width:1;stroke-linecap:round;stroke-linejoin:round;stroke:rgb(61.56863%,22.745098%,60.784316%);stroke-opacity:1;stroke-miterlimit:4;" d="M 10 7 L 10 7.857422 " transform="matrix(2,0,0,2,0,0)"/>
<path style="fill:none;stroke-width:1;stroke-linecap:round;stroke-linejoin:round;stroke:rgb(61.56863%,22.745098%,60.784316%);stroke-opacity:1;stroke-miterlimit:4;" d="M 10 12.142578 L 10 13 " transform="matrix(2,0,0,2,0,0)"/>
<path style="fill:none;stroke-width:1;stroke-linecap:round;stroke-linejoin:round;stroke:rgb(61.56863%,22.745098%,60.784316%);stroke-opacity:1;stroke-miterlimit:4;" d="M 7.857422 10 L 7 10 " transform="matrix(2,0,0,2,0,0)"/>
<path style="fill:none;stroke-width:1;stroke-linecap:round;stroke-linejoin:round;stroke:rgb(61.56863%,22.745098%,60.784316%);stroke-opacity:1;stroke-miterlimit:4;" d="M 13 10 L 12.142578 10 " transform="matrix(2,0,0,2,0,0)"/>
</g>
</svg>
