<?xml version="1.0" encoding="UTF-8"?>
<svg xmlns="http://www.w3.org/2000/svg" xmlns:xlink="http://www.w3.org/1999/xlink" width="32px" height="32px" viewBox="0 0 32 32" version="1.1">
<g id="surface1">
<path style=" stroke:none;fill-rule:nonzero;fill:rgb(90.196079%,0.784314%,70.588237%);fill-opacity:1;" d="M 2 2.679688 L 2 21.320312 C 2 21.695312 2.355469 22 2.792969 22 L 21.207031 22 C 21.644531 22 22 21.695312 22 21.320312 L 22 2.679688 C 22 2.304688 21.644531 2 21.207031 2 L 2.792969 2 C 2.355469 2 2 2.304688 2 2.679688 Z M 2 2.679688 "/>
<path style=" stroke:none;fill-rule:evenodd;fill:rgb(94.117647%,89.019608%,92.54902%);fill-opacity:1;" d="M 4 5 L 4 19 C 4 19.550781 4.449219 20 5 20 L 19 20 C 19.550781 20 20 19.550781 20 19 L 20 5 C 20 4.449219 19.550781 4 19 4 L 5 4 C 4.449219 4 4 4.449219 4 5 Z M 4 5 "/>
<path style=" stroke:none;fill-rule:nonzero;fill:rgb(90.196079%,0.784314%,70.588237%);fill-opacity:1;" d="M 10 10.679688 L 10 29.320312 C 10 29.695312 10.355469 30 10.792969 30 L 29.207031 30 C 29.644531 30 30 29.695312 30 29.320312 L 30 10.679688 C 30 10.304688 29.644531 10 29.207031 10 L 10.792969 10 C 10.355469 10 10 10.304688 10 10.679688 Z M 10 10.679688 "/>
<path style=" stroke:none;fill-rule:evenodd;fill:rgb(95.294118%,71.764708%,85.09804%);fill-opacity:1;" d="M 12 13 L 12 27 C 12 27.550781 12.449219 28 13 28 L 27 28 C 27.550781 28 28 27.550781 28 27 L 28 13 C 28 12.449219 27.550781 12 27 12 L 13 12 C 12.449219 12 12 12.449219 12 13 Z M 12 13 "/>
</g>
</svg>
