<?xml version="1.0" encoding="UTF-8"?>
<svg xmlns="http://www.w3.org/2000/svg" xmlns:xlink="http://www.w3.org/1999/xlink" width="32px" height="32px" viewBox="0 0 32 32" version="1.1">
<g id="surface1">
<path style=" stroke:none;fill-rule:nonzero;fill:rgb(61.960787%,22.745098%,61.176473%);fill-opacity:1;" d="M 2 3.019531 L 2 28.980469 C 2 29.542969 2.566406 30 3.265625 30 L 28.734375 30 C 29.433594 30 30 29.542969 30 28.980469 L 30 3.019531 C 30 2.457031 29.433594 2 28.734375 2 L 3.265625 2 C 2.566406 2 2 2.457031 2 3.019531 Z M 2 3.019531 "/>
<path style=" stroke:none;fill-rule:evenodd;fill:rgb(94.117647%,89.019608%,92.54902%);fill-opacity:1;" d="M 4 5.625 L 4 26.375 C 4 27.273438 4.785156 28 5.75 28 L 26.25 28 C 27.214844 28 28 27.273438 28 26.375 L 28 5.625 C 28 4.726562 27.214844 4 26.25 4 L 5.75 4 C 4.785156 4 4 4.726562 4 5.625 Z M 4 5.625 "/>
<path style="fill-rule:evenodd;fill:rgb(94.117647%,89.019608%,92.54902%);fill-opacity:1;stroke-width:3.20664;stroke-linecap:round;stroke-linejoin:round;stroke:rgb(94.117647%,89.019608%,92.54902%);stroke-opacity:1;stroke-miterlimit:4;" d="M 15.943661 8.509195 L 20.076084 8.509195 C 21.390523 8.509195 22.456955 9.597333 22.456955 10.938528 L 22.456955 20.070668 C 22.456955 21.411862 21.390523 22.500001 20.076084 22.500001 L 15.943661 22.500001 C 14.626122 22.500001 13.56279 21.411862 13.56279 20.070668 L 13.56279 10.938528 C 13.56279 9.597333 14.626122 8.509195 15.943661 8.509195 Z M 15.943661 8.509195 " transform="matrix(1.260043,0,0,1.234907,-0.29673,0.214592)"/>
<path style="fill-rule:evenodd;fill:rgb(94.117647%,89.019608%,92.54902%);fill-opacity:1;stroke-width:3.20664;stroke-linecap:round;stroke-linejoin:round;stroke:rgb(94.117647%,89.019608%,92.54902%);stroke-opacity:1;stroke-miterlimit:4;" d="M 17.881219 11.501576 L 18.119926 11.501576 C 19.434365 11.501576 20.500797 12.586552 20.500797 13.930909 L 20.500797 18.071529 C 20.500797 19.412724 19.434365 20.500862 18.119926 20.500862 L 17.881219 20.500862 C 16.566779 20.500862 15.500348 19.412724 15.500348 18.071529 L 15.500348 13.930909 C 15.500348 12.586552 16.566779 11.501576 17.881219 11.501576 Z M 17.881219 11.501576 " transform="matrix(1.260043,0,0,1.234907,-0.29673,0.214592)"/>
<path style="fill-rule:evenodd;fill:rgb(94.117647%,89.019608%,92.54902%);fill-opacity:1;stroke-width:3.20664;stroke-linecap:round;stroke-linejoin:round;stroke:rgb(94.117647%,89.019608%,92.54902%);stroke-opacity:1;stroke-miterlimit:4;" d="M 18.420635 14.187128 C 18.420635 14.411714 18.234629 14.59518 18.005222 14.598343 C 17.775816 14.598343 17.58981 14.418041 17.58671 14.190291 C 17.58361 13.965704 17.766515 13.779076 17.995922 13.775912 C 18.225329 13.772749 18.414435 13.949888 18.420635 14.177638 L 18.005222 14.187128 Z M 18.420635 14.187128 " transform="matrix(1.260043,0,0,1.234907,-0.29673,0.214592)"/>
<path style="fill:none;stroke-width:3.20664;stroke-linecap:round;stroke-linejoin:round;stroke:rgb(94.117647%,89.019608%,92.54902%);stroke-opacity:1;stroke-miterlimit:4;" d="M 17.949421 16.901148 L 17.949421 19.425376 " transform="matrix(1.260043,0,0,1.234907,-0.29673,0.214592)"/>
<path style="fill-rule:evenodd;fill:rgb(94.117647%,89.019608%,92.54902%);fill-opacity:1;stroke-width:1.60332;stroke-linecap:round;stroke-linejoin:round;stroke:rgb(90.196079%,0.784314%,70.588237%);stroke-opacity:1;stroke-miterlimit:4;" d="M 15.943661 8.509195 L 20.076084 8.509195 C 21.390523 8.509195 22.456955 9.597333 22.456955 10.938528 L 22.456955 20.070668 C 22.456955 21.411862 21.390523 22.500001 20.076084 22.500001 L 15.943661 22.500001 C 14.626122 22.500001 13.56279 21.411862 13.56279 20.070668 L 13.56279 10.938528 C 13.56279 9.597333 14.626122 8.509195 15.943661 8.509195 Z M 15.943661 8.509195 " transform="matrix(1.260043,0,0,1.234907,-0.29673,0.214592)"/>
<path style="fill-rule:evenodd;fill:rgb(95.294118%,71.764708%,85.09804%);fill-opacity:1;stroke-width:1.60332;stroke-linecap:round;stroke-linejoin:round;stroke:rgb(90.196079%,0.784314%,70.588237%);stroke-opacity:1;stroke-miterlimit:4;" d="M 17.881219 11.501576 L 18.119926 11.501576 C 19.434365 11.501576 20.500797 12.586552 20.500797 13.930909 L 20.500797 18.071529 C 20.500797 19.412724 19.434365 20.500862 18.119926 20.500862 L 17.881219 20.500862 C 16.566779 20.500862 15.500348 19.412724 15.500348 18.071529 L 15.500348 13.930909 C 15.500348 12.586552 16.566779 11.501576 17.881219 11.501576 Z M 17.881219 11.501576 " transform="matrix(1.260043,0,0,1.234907,-0.29673,0.214592)"/>
<path style="fill:none;stroke-width:1.60332;stroke-linecap:round;stroke-linejoin:round;stroke:rgb(61.56863%,22.745098%,60.784316%);stroke-opacity:1;stroke-miterlimit:4;" d="M 18.420635 14.187128 C 18.420635 14.411714 18.234629 14.59518 18.005222 14.598343 C 17.775816 14.598343 17.58981 14.418041 17.58671 14.190291 C 17.58361 13.965704 17.766515 13.779076 17.995922 13.775912 C 18.225329 13.772749 18.414435 13.949888 18.420635 14.177638 L 18.005222 14.187128 Z M 18.420635 14.187128 " transform="matrix(1.260043,0,0,1.234907,-0.29673,0.214592)"/>
<path style="fill:none;stroke-width:1.60332;stroke-linecap:round;stroke-linejoin:round;stroke:rgb(90.196079%,0.784314%,70.588237%);stroke-opacity:1;stroke-miterlimit:4;" d="M 17.949421 16.901148 L 17.949421 19.425376 " transform="matrix(1.260043,0,0,1.234907,-0.29673,0.214592)"/>
</g>
</svg>
