<?xml version="1.0" encoding="UTF-8"?>
<svg xmlns="http://www.w3.org/2000/svg" xmlns:xlink="http://www.w3.org/1999/xlink" width="32px" height="32px" viewBox="0 0 32 32" version="1.1">
<g id="surface1">
<path style="fill-rule:nonzero;fill:rgb(94.117647%,89.019608%,92.54902%);fill-opacity:1;stroke-width:0.264583;stroke-linecap:butt;stroke-linejoin:miter;stroke:rgb(90.196079%,0.784314%,70.588237%);stroke-opacity:1;stroke-miterlimit:4;" d="M 1.898592 1.101225 C 1.773018 1.324984 1.115177 2.495972 0.989603 2.719731 C 0.86403 2.94349 1.139465 3.335714 1.60507 3.594613 C 2.070675 3.854029 2.550749 3.882967 2.676322 3.658692 C 2.802413 3.434933 3.459737 2.263945 3.585311 2.040186 C 3.711401 1.816427 3.435449 1.424203 2.969845 1.165304 C 2.50424 0.905888 2.024683 0.877466 1.898592 1.101225 Z M 1.898592 1.101225 " transform="matrix(7.559055,0,0,7.559055,0.00000180222,0)"/>
<path style="fill-rule:nonzero;fill:rgb(94.117647%,89.019608%,92.54902%);fill-opacity:1;stroke-width:0.264583;stroke-linecap:round;stroke-linejoin:round;stroke:rgb(90.196079%,0.784314%,70.588237%);stroke-opacity:1;stroke-miterlimit:4;" d="M 2.145605 0.948779 C 2.186947 0.944645 2.231388 0.943095 2.278414 0.946196 C 2.467033 0.957564 2.691825 1.011825 2.920235 1.139465 C 3.066479 1.221114 3.24683 1.331702 3.348116 1.429887 C 3.250448 1.338936 3.077331 1.2361 2.940906 1.160136 C 2.712496 1.032495 2.487703 0.978235 2.299084 0.966866 C 2.110465 0.955497 1.962154 1.002523 1.905827 1.11156 C 1.8526 1.214913 1.893941 1.362191 2.002462 1.516703 C 2.040185 1.570447 2.082043 1.620056 2.136304 1.673283 C 2.073258 1.613338 2.024166 1.556494 1.981791 1.496033 C 1.873271 1.34152 1.827279 1.200444 1.887223 1.09399 C 1.932182 1.013892 2.022615 0.962215 2.145605 0.948779 Z M 3.343465 1.42627 C 3.405994 1.486214 3.459737 1.547192 3.502629 1.608171 C 3.616833 1.770951 3.656624 1.931665 3.590995 2.048454 C 3.525366 2.165759 3.416329 2.207101 3.217891 2.195215 C 3.018937 2.183329 2.778125 2.109432 2.541964 1.977657 C 2.383834 1.88929 2.247925 1.786454 2.140954 1.679484 C 2.244824 1.77922 2.373498 1.874304 2.521293 1.956987 C 2.757971 2.088762 2.99775 2.163176 3.196187 2.175061 C 3.395142 2.186947 3.503662 2.145089 3.569808 2.027783 C 3.635437 1.910478 3.595646 1.750281 3.481441 1.5875 C 3.443717 1.533757 3.396692 1.479496 3.343465 1.42627 Z M 3.343465 1.42627 " transform="matrix(7.559055,0,0,7.559055,0.00000180222,0)"/>
<path style=" stroke:none;fill-rule:evenodd;fill:rgb(95.294118%,71.764708%,85.09804%);fill-opacity:1;" d="M 26 30 C 25.085938 30.011719 24.316406 29.863281 24.128906 29.871094 C 22.882812 29.914062 19.90625 29.074219 21.097656 28.042969 C 22.398438 26.914062 25.976562 26.945312 27.371094 28.03125 C 28.890625 29.21875 26.914062 29.988281 26 30 Z M 26 30 "/>
<path style=" stroke:none;fill-rule:nonzero;fill:rgb(90.196079%,0.392157%,70.588237%);fill-opacity:1;" d="M 19.515625 18.808594 L 14.695312 26.9375 C 11.816406 25.644531 8.425781 22.621094 7.875 20.613281 L 12.566406 12.339844 C 13.148438 15.285156 16.671875 17.449219 19.515625 18.808594 Z M 19.515625 18.808594 "/>
<path style=" stroke:none;fill-rule:nonzero;fill:rgb(95.294118%,71.764708%,85.09804%);fill-opacity:1;" d="M 27.183594 13.734375 C 27.238281 14.1875 27.179688 14.605469 26.984375 14.964844 C 26.066406 16.652344 22.65625 16.234375 19.160156 14.445312 C 18.222656 13.96875 18.203125 13.167969 18 13 C 19.457031 12.085938 26.644531 11.484375 27.183594 13.734375 Z M 27.183594 13.734375 "/>
<path style=" stroke:none;fill-rule:evenodd;fill:rgb(95.294118%,71.764708%,85.09804%);fill-opacity:1;" d="M 24 16 C 25.113281 15.972656 25.523438 16.867188 25.59375 17.738281 C 25.808594 20.335938 25.363281 22.15625 25.511719 24.234375 C 25.539062 24.65625 26.292969 25.082031 26.378906 24.140625 C 26.582031 21.960938 26.234375 20.433594 26.480469 17.421875 C 26.5625 16.425781 26.867188 15.472656 27.132812 14.332031 "/>
<path style=" stroke:none;fill-rule:nonzero;fill:rgb(61.56863%,22.745098%,60.784316%);fill-opacity:1;" d="M 4 1.917969 L 28 1.917969 C 29.105469 1.917969 30 2.382812 30 2.957031 C 30 3.535156 29.105469 4 28 4 L 4 4 C 2.894531 4 2 3.535156 2 2.957031 C 2 2.382812 2.894531 1.917969 4 1.917969 Z M 4 1.917969 "/>
<path style=" stroke:none;fill-rule:nonzero;fill:rgb(61.56863%,22.745098%,60.784316%);fill-opacity:1;" d="M 4 4 L 4 28 C 4 29.105469 3.550781 30 3 30 C 2.449219 30 2 29.105469 2 28 L 2 4 C 2 2.894531 2.449219 2 3 2 C 3.550781 2 4 2.894531 4 4 Z M 4 4 "/>
</g>
</svg>
