<?xml version="1.0" encoding="UTF-8"?>
<svg xmlns="http://www.w3.org/2000/svg" xmlns:xlink="http://www.w3.org/1999/xlink" width="32px" height="32px" viewBox="0 0 32 32" version="1.1">
<g id="surface1">
<path style="fill-rule:evenodd;fill:rgb(95.294118%,71.764708%,85.09804%);fill-opacity:1;stroke-width:0.468988;stroke-linecap:round;stroke-linejoin:round;stroke:rgb(61.56863%,22.745098%,60.784316%);stroke-opacity:1;stroke-miterlimit:4;" d="M 3.934899 12.208334 C 0.137198 10.455126 0.575042 9.660046 3.451255 7.359075 C 4.71166 6.349653 0.712441 4.334471 2.220163 3.328713 C 5.343694 1.245748 21.443159 5.816546 9.397872 8.925421 " transform="matrix(2.132252,0,0,2.132252,0.00823964,0)"/>
<path style="fill-rule:nonzero;fill:rgb(95.294118%,71.764708%,85.09804%);fill-opacity:1;stroke-width:0.302876;stroke-linecap:butt;stroke-linejoin:miter;stroke:rgb(61.56863%,22.745098%,60.784316%);stroke-opacity:1;stroke-miterlimit:4;" d="M 13.901002 1.91142 L 12.698108 3.509808 L 14.297997 4.710558 L 15.498907 3.11217 L 15.000678 2.111218 Z M 13.901002 1.91142 " transform="matrix(1.96791,0,0,1.994196,-6.305139,1.62966)"/>
<path style="fill-rule:nonzero;fill:rgb(95.294118%,71.764708%,85.09804%);fill-opacity:1;stroke-width:0.201917;stroke-linecap:butt;stroke-linejoin:miter;stroke:rgb(61.56863%,22.745098%,60.784316%);stroke-opacity:1;stroke-miterlimit:4;" d="M 7.793237 11.707424 L 8.194202 9.507681 L 8.894898 9.407782 L 8.785724 9.952331 L 9.301818 9.713356 L 9.186689 10.252028 L 9.702782 10.015013 L 9.794091 10.708431 L 7.793237 11.707424 " transform="matrix(1.96791,0,0,1.994196,-6.305139,1.62966)"/>
<path style="fill-rule:nonzero;fill:rgb(61.56863%,22.745098%,60.784316%);fill-opacity:1;stroke-width:0.100959;stroke-linecap:butt;stroke-linejoin:miter;stroke:rgb(61.56863%,22.745098%,60.784316%);stroke-opacity:1;stroke-miterlimit:4;" d="M 8.134653 10.592861 L 8.676551 11.041428 L 7.793237 11.715259 Z M 8.134653 10.592861 " transform="matrix(1.96791,0,0,1.994196,-6.305139,1.62966)"/>
<path style="fill-rule:nonzero;fill:rgb(90.196079%,0.784314%,70.588237%);fill-opacity:1;stroke-width:0.100959;stroke-linecap:butt;stroke-linejoin:miter;stroke:rgb(61.56863%,22.745098%,60.784316%);stroke-opacity:1;stroke-miterlimit:4;" d="M 12.698108 3.509808 L 14.297997 4.710558 L 9.794091 10.708431 L 9.702782 10.015013 L 9.186689 10.252028 L 9.228374 9.795626 L 8.785724 9.952331 L 8.839319 9.482216 L 8.194202 9.507681 Z M 12.698108 3.509808 " transform="matrix(1.96791,0,0,1.994196,-6.305139,1.62966)"/>
<path style="fill:none;stroke-width:0.70671;stroke-linecap:butt;stroke-linejoin:round;stroke:rgb(61.56863%,22.745098%,60.784316%);stroke-opacity:1;stroke-miterlimit:4;" d="M 13.599286 2.311017 L 8.194202 9.507681 L 7.493506 12.107021 L 9.794091 10.708431 L 15.199176 3.511767 C 15.997135 2.479474 14.432976 1.235631 13.599286 2.311017 Z M 13.599286 2.311017 " transform="matrix(1.96791,0,0,1.994196,-6.305139,1.62966)"/>
</g>
</svg>
