<?xml version="1.0" encoding="UTF-8"?>
<svg xmlns="http://www.w3.org/2000/svg" xmlns:xlink="http://www.w3.org/1999/xlink" width="32px" height="32px" viewBox="0 0 32 32" version="1.1">
<g id="surface1">
<path style="fill-rule:evenodd;fill:rgb(94.117647%,89.019608%,92.54902%);fill-opacity:1;stroke-width:0.264583;stroke-linecap:round;stroke-linejoin:round;stroke:rgb(95.294118%,71.764708%,85.09804%);stroke-opacity:1;stroke-miterlimit:4;" d="M -5.953125 -0.396875 L -2.778125 -0.396875 L -2.778125 2.778125 L -5.953125 2.778125 Z M -5.953125 -0.396875 " transform="matrix(7.559055,0,0,7.559055,47.999998,6)"/>
<path style="fill-rule:evenodd;fill:rgb(90.196079%,0.784314%,70.588237%);fill-opacity:1;stroke-width:0.264583;stroke-linecap:round;stroke-linejoin:round;stroke:rgb(95.294118%,71.764708%,85.09804%);stroke-opacity:1;stroke-miterlimit:4;" d="M -5.953125 -0.396875 L -2.778125 -0.396875 L -2.778125 0.396875 L -5.953125 0.396875 Z M -5.953125 -0.396875 " transform="matrix(7.559055,0,0,7.559055,47.999998,6)"/>
<path style="fill-rule:evenodd;fill:rgb(90.196079%,0.784314%,70.588237%);fill-opacity:1;stroke-width:0.264583;stroke-linecap:round;stroke-linejoin:round;stroke:rgb(95.294118%,71.764708%,85.09804%);stroke-opacity:1;stroke-miterlimit:4;" d="M -5.953125 -0.396875 L -5.159375 -0.396875 L -5.159375 2.778125 L -5.953125 2.778125 Z M -5.953125 -0.396875 " transform="matrix(7.559055,0,0,7.559055,47.999998,6)"/>
<path style="fill:none;stroke-width:0.264583;stroke-linecap:round;stroke-linejoin:round;stroke:rgb(95.294118%,71.764708%,85.09804%);stroke-opacity:1;stroke-miterlimit:4;" d="M -5.953125 0.396875 L -2.778125 0.396875 L -2.778125 1.984375 L -5.953125 1.984375 Z M -5.953125 0.396875 " transform="matrix(7.559055,0,0,7.559055,47.999998,6)"/>
<path style="fill:none;stroke-width:0.264583;stroke-linecap:round;stroke-linejoin:round;stroke:rgb(95.294118%,71.764708%,85.09804%);stroke-opacity:1;stroke-miterlimit:4;" d="M -5.159375 -0.396875 L -3.571875 -0.396875 L -3.571875 2.778125 L -5.159375 2.778125 Z M -5.159375 -0.396875 " transform="matrix(7.559055,0,0,7.559055,47.999998,6)"/>
<path style="fill:none;stroke-width:0.264583;stroke-linecap:butt;stroke-linejoin:miter;stroke:rgb(95.294118%,71.764708%,85.09804%);stroke-opacity:1;stroke-miterlimit:4;" d="M -4.365625 -0.396875 C -4.365625 2.910417 -4.365625 2.910417 -4.365625 2.910417 " transform="matrix(7.559055,0,0,7.559055,47.999998,6)"/>
<path style="fill:none;stroke-width:0.264583;stroke-linecap:butt;stroke-linejoin:miter;stroke:rgb(95.294118%,71.764708%,85.09804%);stroke-opacity:1;stroke-miterlimit:4;" d="M -2.645833 1.190625 C -5.820833 1.190625 -5.820833 1.190625 -5.820833 1.190625 " transform="matrix(7.559055,0,0,7.559055,47.999998,6)"/>
<path style="fill-rule:evenodd;fill:rgb(90.196079%,0.784314%,70.588237%);fill-opacity:1;stroke-width:0.264583;stroke-linecap:round;stroke-linejoin:miter;stroke:rgb(61.56863%,22.745098%,60.784316%);stroke-opacity:1;stroke-miterlimit:4;" d="M -5.159375 0.396875 L -4.365625 0.396875 L -4.365625 1.190625 L -5.159375 1.190625 Z M -5.159375 0.396875 " transform="matrix(7.559055,0,0,7.559055,47.999998,6)"/>
</g>
</svg>
