<?xml version="1.0" encoding="UTF-8"?>
<svg xmlns="http://www.w3.org/2000/svg" xmlns:xlink="http://www.w3.org/1999/xlink" width="32px" height="32px" viewBox="0 0 32 32" version="1.1">
<g id="surface1">
<path style="fill-rule:nonzero;fill:rgb(95.294118%,71.764708%,85.09804%);fill-opacity:1;stroke-width:1;stroke-linecap:round;stroke-linejoin:round;stroke:rgb(90.196079%,0.784314%,70.588237%);stroke-opacity:1;stroke-miterlimit:4;" d="M 2.439453 2.5 L 13.560547 2.5 C 14.080078 2.5 14.5 2.919922 14.5 3.439453 L 14.5 5.056641 C 14.5 5.576172 14.080078 5.996094 13.560547 5.996094 L 2.439453 5.996094 C 1.919922 5.996094 1.5 5.576172 1.5 5.056641 L 1.5 3.439453 C 1.5 2.919922 1.919922 2.5 2.439453 2.5 Z M 2.439453 2.5 " transform="matrix(2,0,0,2,0,0)"/>
<path style="fill-rule:nonzero;fill:rgb(95.294118%,71.764708%,85.09804%);fill-opacity:1;stroke-width:1;stroke-linecap:round;stroke-linejoin:round;stroke:rgb(90.196079%,0.784314%,70.588237%);stroke-opacity:1;stroke-miterlimit:4;" d="M 1.501953 4.5 L 14.498047 4.5 L 14.498047 13.5 L 1.501953 13.5 Z M 1.501953 4.5 " transform="matrix(2,0,0,2,0,0)"/>
<path style="fill-rule:evenodd;fill:rgb(94.117647%,89.019608%,92.54902%);fill-opacity:1;stroke-width:0.5;stroke-linecap:round;stroke-linejoin:round;stroke:rgb(61.56863%,22.745098%,60.784316%);stroke-opacity:1;stroke-miterlimit:4;" d="M 13 5.738281 L 12.101562 8.433594 L 11.416016 7.746094 L 10.230469 8.931641 L 9.808594 8.507812 L 10.992188 7.324219 L 10.306641 6.636719 Z M 13 5.738281 " transform="matrix(2,0,0,2,0,0)"/>
<path style="fill-rule:evenodd;fill:rgb(94.117647%,89.019608%,92.54902%);fill-opacity:1;stroke-width:0.5;stroke-linecap:round;stroke-linejoin:round;stroke:rgb(61.56863%,22.745098%,60.784316%);stroke-opacity:1;stroke-miterlimit:4;" d="M 3 5.738281 L 3.898438 8.433594 L 4.583984 7.746094 L 5.769531 8.931641 L 6.191406 8.507812 L 5.007812 7.324219 L 5.693359 6.636719 Z M 3 5.738281 " transform="matrix(2,0,0,2,0,0)"/>
<path style="fill-rule:evenodd;fill:rgb(94.117647%,89.019608%,92.54902%);fill-opacity:1;stroke-width:0.5;stroke-linecap:round;stroke-linejoin:round;stroke:rgb(61.56863%,22.745098%,60.784316%);stroke-opacity:1;stroke-miterlimit:4;" d="M 3 12.761719 L 3.898438 10.066406 L 4.583984 10.753906 L 5.769531 9.568359 L 6.191406 9.992188 L 5.007812 11.175781 L 5.693359 11.863281 Z M 3 12.761719 " transform="matrix(2,0,0,2,0,0)"/>
<path style="fill-rule:evenodd;fill:rgb(94.117647%,89.019608%,92.54902%);fill-opacity:1;stroke-width:0.5;stroke-linecap:round;stroke-linejoin:round;stroke:rgb(61.56863%,22.745098%,60.784316%);stroke-opacity:1;stroke-miterlimit:4;" d="M 13 12.761719 L 12.101562 10.066406 L 11.416016 10.753906 L 10.230469 9.568359 L 9.808594 9.992188 L 10.992188 11.175781 L 10.306641 11.863281 Z M 13 12.761719 " transform="matrix(2,0,0,2,0,0)"/>
</g>
</svg>
