<?xml version="1.0" encoding="UTF-8"?>
<svg xmlns="http://www.w3.org/2000/svg" xmlns:xlink="http://www.w3.org/1999/xlink" width="32px" height="32px" viewBox="0 0 32 32" version="1.1">
<defs>
<clipPath id="clip1">
  <path d="M 3 3 L 14 3 L 14 11 L 3 11 Z M 3 3 "/>
</clipPath>
<clipPath id="clip2">
  <path d="M 1.847656 10.570312 L 28.890625 10.570312 C 28.992188 10.570312 29.074219 10.480469 29.074219 10.367188 L 29.074219 -0.371094 C 29.074219 -0.484375 28.992188 -0.574219 28.890625 -0.574219 L 1.847656 -0.574219 C 1.746094 -0.574219 1.660156 -0.484375 1.660156 -0.371094 L 1.660156 10.367188 C 1.660156 10.480469 1.746094 10.570312 1.847656 10.570312 Z M 1.847656 10.570312 "/>
</clipPath>
<clipPath id="clip3">
  <path d="M 2 2 L 15 2 L 15 11 L 2 11 Z M 2 2 "/>
</clipPath>
<clipPath id="clip4">
  <path d="M 1.847656 10.570312 L 28.890625 10.570312 C 28.992188 10.570312 29.074219 10.480469 29.074219 10.367188 L 29.074219 -0.371094 C 29.074219 -0.484375 28.992188 -0.574219 28.890625 -0.574219 L 1.847656 -0.574219 C 1.746094 -0.574219 1.660156 -0.484375 1.660156 -0.371094 L 1.660156 10.367188 C 1.660156 10.480469 1.746094 10.570312 1.847656 10.570312 Z M 1.847656 10.570312 "/>
</clipPath>
</defs>
<g id="surface1">
<path style="fill-rule:evenodd;fill:rgb(95.294118%,71.764708%,85.09804%);fill-opacity:1;stroke-width:1;stroke-linecap:round;stroke-linejoin:round;stroke:rgb(90.196079%,0.784314%,70.588237%);stroke-opacity:1;stroke-miterlimit:4;" d="M 3.472656 3.5 L 12.566406 3.5 C 13.634766 3.5 14.5 4.486328 14.5 5.701172 L 14.5 12.228516 C 14.5 13.445312 13.634766 14.429688 12.566406 14.429688 L 3.472656 14.429688 C 2.404297 14.429688 1.537109 13.445312 1.537109 12.228516 L 1.537109 5.701172 C 1.537109 4.486328 2.404297 3.5 3.472656 3.5 Z M 3.472656 3.5 " transform="matrix(2,0,0,2,0,0)"/>
<g clip-path="url(#clip1)" clip-rule="nonzero">
<g clip-path="url(#clip2)" clip-rule="nonzero">
<path style=" stroke:none;fill-rule:evenodd;fill:rgb(95.294118%,71.764708%,85.09804%);fill-opacity:1;" d="M 6.011719 3.132812 L 10.546875 3.132812 C 12.164062 3.132812 13.472656 4.644531 13.472656 6.507812 L 13.472656 9.613281 C 13.472656 11.480469 12.164062 12.992188 10.546875 12.992188 L 6.011719 12.992188 C 4.394531 12.992188 3.082031 11.480469 3.082031 9.613281 L 3.082031 6.507812 C 3.082031 4.644531 4.394531 3.132812 6.011719 3.132812 Z M 6.011719 3.132812 "/>
</g>
</g>
<g clip-path="url(#clip3)" clip-rule="nonzero">
<g clip-path="url(#clip4)" clip-rule="nonzero">
<path style="fill:none;stroke-width:1.475344;stroke-linecap:round;stroke-linejoin:round;stroke:rgb(90.196079%,0.784314%,70.588237%);stroke-opacity:1;stroke-miterlimit:4;" d="M 4.314944 2.214899 L 7.806935 2.214899 C 9.052142 2.214899 10.059736 3.283256 10.059736 4.600069 L 10.059736 6.794756 C 10.059736 8.114329 9.052142 9.182687 7.806935 9.182687 L 4.314944 9.182687 C 3.069737 9.182687 2.059135 8.114329 2.059135 6.794756 L 2.059135 4.600069 C 2.059135 3.283256 3.069737 2.214899 4.314944 2.214899 Z M 4.314944 2.214899 " transform="matrix(1.29873,0,0,1.414994,0.40777,-0.00125476)"/>
</g>
</g>
<path style=" stroke:none;fill-rule:evenodd;fill:rgb(95.294118%,71.764708%,85.09804%);fill-opacity:1;" d="M 11.074219 8.03125 L 16.648438 8.03125 L 16.648438 12.132812 L 11.074219 12.132812 Z M 11.074219 8.03125 "/>
<path style="fill-rule:evenodd;fill:rgb(95.294118%,71.764708%,85.09804%);fill-opacity:1;stroke-width:1;stroke-linecap:round;stroke-linejoin:round;stroke:rgb(90.196079%,0.784314%,70.588237%);stroke-opacity:1;stroke-miterlimit:4;" d="M 3.5 6.798828 L 12.525391 6.798828 C 13.59375 6.798828 14.460938 7.785156 14.460938 9 L 14.460938 12.314453 C 14.460938 13.529297 13.59375 14.515625 12.525391 14.515625 L 3.5 14.515625 C 2.431641 14.515625 1.566406 13.529297 1.566406 12.314453 L 1.566406 9 C 1.566406 7.785156 2.431641 6.798828 3.5 6.798828 Z M 3.5 6.798828 " transform="matrix(2,0,0,2,0,0)"/>
<path style="fill:none;stroke-width:1;stroke-linecap:butt;stroke-linejoin:miter;stroke:rgb(61.56863%,22.745098%,60.784316%);stroke-opacity:1;stroke-miterlimit:4;" d="M 1.865234 11.460938 L 14.191406 11.460938 " transform="matrix(2,0,0,2,0,0)"/>
<path style="fill:none;stroke-width:1;stroke-linecap:butt;stroke-linejoin:miter;stroke:rgb(61.56863%,22.745098%,60.784316%);stroke-opacity:1;stroke-miterlimit:4;" d="M 1.847656 12.664062 L 14.191406 12.664062 " transform="matrix(2,0,0,2,0,0)"/>
<path style="fill-rule:nonzero;fill:rgb(94.117647%,89.019608%,92.54902%);fill-opacity:1;stroke-width:0.244399;stroke-linecap:round;stroke-linejoin:round;stroke:rgb(61.56863%,22.745098%,60.784316%);stroke-opacity:1;stroke-miterlimit:4;" d="M 3.568359 6.960938 L 10.814453 6.960938 C 11.298828 6.960938 11.691406 7.353516 11.691406 7.837891 L 11.691406 13.550781 C 11.691406 14.037109 11.298828 14.429688 10.814453 14.429688 L 3.568359 14.429688 C 3.083984 14.429688 2.691406 14.037109 2.691406 13.550781 L 2.691406 7.837891 C 2.691406 7.353516 3.083984 6.960938 3.568359 6.960938 Z M 3.568359 6.960938 " transform="matrix(2,0,0,2,0,0)"/>
<path style="fill:none;stroke-width:0.5;stroke-linecap:butt;stroke-linejoin:miter;stroke:rgb(61.56863%,22.745098%,60.784316%);stroke-opacity:1;stroke-miterlimit:4;" d="M 5.691406 10.960938 C 6.515625 11.953125 7.025391 12.951172 7.191406 13.960938 C 7.191406 13.960938 7.691406 12.460938 8.691406 12.460938 " transform="matrix(2,0,0,2,0,0)"/>
<path style="fill-rule:nonzero;fill:rgb(90.196079%,0.784314%,70.588237%);fill-opacity:1;stroke-width:2.392385;stroke-linecap:butt;stroke-linejoin:miter;stroke:rgb(90.196079%,0.784314%,70.588237%);stroke-opacity:1;stroke-miterlimit:4;" d="M -1.068458 15.473077 C -2.792424 16.168012 -3.2461 14.087779 -3.2461 14.087779 C -3.2461 14.087779 -4.163002 16.346318 -5.681621 15.011311 C -7.195465 13.680876 -4.970067 12.611042 -4.970067 12.611042 C -4.970067 12.611042 -7.534527 12.414449 -6.646278 10.695399 C -5.753254 8.976349 -4.029287 10.594816 -4.029287 10.594816 C -4.029287 10.594816 -4.736066 8.267698 -2.630056 8.487151 C -0.524047 8.711176 -1.722705 10.827985 -1.722705 10.827985 C -1.722705 10.827985 0.454937 9.707859 0.817877 11.440625 C 1.176042 13.177963 -1.240377 12.985941 -1.240377 12.985941 C -1.240377 12.985941 0.655509 14.778142 -1.068458 15.473077 Z M -1.068458 15.473077 " transform="matrix(0.817972,0,0,0.854396,13.303656,8.322827)"/>
<path style="fill-rule:nonzero;fill:rgb(95.294118%,71.764708%,85.09804%);fill-opacity:1;stroke-width:2.392385;stroke-linecap:butt;stroke-linejoin:miter;stroke:rgb(95.294118%,71.764708%,85.09804%);stroke-opacity:1;stroke-miterlimit:4;" d="M -1.913727 13.964337 C -2.878384 14.352952 -3.136263 13.191679 -3.136263 13.191679 C -3.136263 13.191679 -3.647245 14.453534 -4.497289 13.708308 C -5.347334 12.963081 -4.10092 12.364157 -4.10092 12.364157 C -4.10092 12.364157 -5.53358 12.249859 -5.036924 11.289751 C -4.535493 10.329643 -3.570836 11.234888 -3.570836 11.234888 C -3.570836 11.234888 -3.967205 9.931885 -2.787649 10.055327 C -1.608093 10.178769 -2.281443 11.362902 -2.281443 11.362902 C -2.281443 11.362902 -1.058907 10.736546 -0.858334 11.705798 C -0.657762 12.679621 -2.009237 12.574466 -2.009237 12.574466 C -2.009237 12.574466 -0.949069 13.575722 -1.913727 13.964337 Z M -1.913727 13.964337 " transform="matrix(0.817972,0,0,0.854396,13.303656,8.322827)"/>
<path style=" stroke:none;fill-rule:nonzero;fill:rgb(61.56863%,22.745098%,60.784316%);fill-opacity:1;" d="M 11.828125 18.613281 C 11.828125 19.171875 11.394531 19.628906 10.859375 19.628906 C 10.324219 19.628906 9.886719 19.171875 9.886719 18.613281 C 9.886719 18.054688 10.324219 17.601562 10.859375 17.601562 C 11.394531 17.601562 11.828125 18.054688 11.828125 18.613281 Z M 11.828125 18.613281 "/>
<path style="fill-rule:nonzero;fill:rgb(90.196079%,0.784314%,70.588237%);fill-opacity:1;stroke-width:2.392385;stroke-linecap:butt;stroke-linejoin:miter;stroke:rgb(90.196079%,0.784314%,70.588237%);stroke-opacity:1;stroke-miterlimit:4;" d="M -1.071419 15.475926 C -2.795386 16.170861 -3.249061 14.090627 -3.249061 14.090627 C -3.249061 14.090627 -4.165963 16.344594 -5.679807 15.01416 C -7.198426 13.679153 -4.968253 12.613891 -4.968253 12.613891 C -4.968253 12.613891 -7.537489 12.412725 -6.644464 10.693675 C -5.756215 8.979197 -4.027473 10.597665 -4.027473 10.597665 C -4.027473 10.597665 -4.734252 8.270547 -2.628242 8.49 C -0.522233 8.709453 -1.720891 10.826262 -1.720891 10.826262 C -1.720891 10.826262 0.456751 9.706136 0.814916 11.443474 C 1.177856 13.176239 -1.238563 12.984218 -1.238563 12.984218 C -1.238563 12.984218 0.657323 14.780991 -1.071419 15.475926 Z M -1.071419 15.475926 " transform="matrix(0.817972,0,0,0.854396,20.677172,12.867269)"/>
<path style="fill-rule:nonzero;fill:rgb(95.294118%,71.764708%,85.09804%);fill-opacity:1;stroke-width:2.392385;stroke-linecap:butt;stroke-linejoin:miter;stroke:rgb(95.294118%,71.764708%,85.09804%);stroke-opacity:1;stroke-miterlimit:4;" d="M -1.911913 13.967185 C -2.881345 14.3558 -3.134449 13.189955 -3.134449 13.189955 C -3.134449 13.189955 -3.64543 14.451811 -4.495475 13.706584 C -5.34552 12.961358 -4.099106 12.362434 -4.099106 12.362434 C -4.099106 12.362434 -5.536541 12.252707 -5.03511 11.288028 C -4.538455 10.32792 -3.569022 11.233164 -3.569022 11.233164 C -3.569022 11.233164 -3.965391 9.930161 -2.785835 10.053604 C -1.611054 10.177046 -2.279628 11.365751 -2.279628 11.365751 C -2.279628 11.365751 -1.061868 10.734823 -0.85652 11.708646 C -0.655948 12.677898 -2.007423 12.572743 -2.007423 12.572743 C -2.007423 12.572743 -0.947255 13.57857 -1.911913 13.967185 Z M -1.911913 13.967185 " transform="matrix(0.817972,0,0,0.854396,20.677172,12.867269)"/>
<path style=" stroke:none;fill-rule:nonzero;fill:rgb(61.56863%,22.745098%,60.784316%);fill-opacity:1;" d="M 19.203125 23.15625 C 19.203125 23.71875 18.769531 24.171875 18.230469 24.171875 C 17.695312 24.171875 17.261719 23.71875 17.261719 23.15625 C 17.261719 22.597656 17.695312 22.144531 18.230469 22.144531 C 18.769531 22.144531 19.203125 22.597656 19.203125 23.15625 Z M 19.203125 23.15625 "/>
</g>
</svg>
