<?xml version="1.0" encoding="UTF-8"?>
<svg xmlns="http://www.w3.org/2000/svg" xmlns:xlink="http://www.w3.org/1999/xlink" width="32px" height="32px" viewBox="0 0 32 32" version="1.1">
<g id="surface1">
<path style=" stroke:none;fill-rule:nonzero;fill:rgb(90.196079%,0.784314%,70.588237%);fill-opacity:1;" d="M 4.953125 28 L 27.046875 28 C 27.574219 28 28 27.503906 28 26.890625 L 28 5.109375 C 28 4.496094 27.574219 4 27.046875 4 L 4.953125 4 C 4.425781 4 4 4.496094 4 5.109375 L 4 26.890625 C 4 27.503906 4.425781 28 4.953125 28 Z M 4.953125 28 "/>
<path style=" stroke:none;fill-rule:evenodd;fill:rgb(94.117647%,89.019608%,92.54902%);fill-opacity:1;" d="M 7.5 26 L 24.5 26 C 25.328125 26 26 25.328125 26 24.5 L 26 7.5 C 26 6.671875 25.328125 6 24.5 6 L 7.5 6 C 6.671875 6 6 6.671875 6 7.5 L 6 24.5 C 6 25.328125 6.671875 26 7.5 26 Z M 7.5 26 "/>
<path style=" stroke:none;fill-rule:nonzero;fill:rgb(90.196079%,0.784314%,70.588237%);fill-opacity:1;" d="M 15.671875 14.6875 C 15.339844 14.6875 15.066406 14.890625 15 15.164062 C 14.992188 15.203125 14.984375 15.242188 14.984375 15.285156 L 14.984375 23 L 14 23 C 13.585938 23 13.25 23.292969 13.25 23.652344 L 13.25 27.128906 C 13.25 27.488281 13.585938 27.78125 14 27.78125 L 18 27.78125 C 18.414062 27.78125 18.75 27.488281 18.75 27.128906 L 18.75 23.652344 C 18.75 23.292969 18.414062 23 18 23 L 17.015625 23 L 17.011719 21.21875 L 17.015625 19.066406 L 17.007812 19.066406 L 17 15.164062 L 16.96875 15.160156 C 16.902344 14.890625 16.628906 14.6875 16.296875 14.6875 Z M 15.671875 14.6875 "/>
<path style="fill:none;stroke-width:1;stroke-linecap:round;stroke-linejoin:miter;stroke:rgb(61.56863%,22.745098%,60.784316%);stroke-opacity:1;stroke-miterlimit:4;" d="M 5.5 5.5 L 10.5 10.5 " transform="matrix(2,0,0,2,0,0)"/>
<path style="fill:none;stroke-width:1;stroke-linecap:round;stroke-linejoin:miter;stroke:rgb(61.56863%,22.745098%,60.784316%);stroke-opacity:1;stroke-miterlimit:4;" d="M 10.5 5.5 L 5.5 10.5 " transform="matrix(2,0,0,2,0,0)"/>
</g>
</svg>
