<?xml version="1.0" encoding="UTF-8"?>
<svg xmlns="http://www.w3.org/2000/svg" xmlns:xlink="http://www.w3.org/1999/xlink" width="32px" height="32px" viewBox="0 0 32 32" version="1.1">
<g id="surface1">
<path style=" stroke:none;fill-rule:nonzero;fill:rgb(90.196079%,0.784314%,70.588237%);fill-opacity:1;" d="M 2 2.953125 L 2 29.046875 C 2 29.574219 2.496094 30 3.109375 30 L 28.890625 30 C 29.503906 30 30 29.574219 30 29.046875 L 30 2.953125 C 30 2.425781 29.503906 2 28.890625 2 L 3.109375 2 C 2.496094 2 2 2.425781 2 2.953125 Z M 2 2.953125 "/>
<path style=" stroke:none;fill-rule:evenodd;fill:rgb(94.117647%,89.019608%,92.54902%);fill-opacity:1;" d="M 4 5.5 L 4 26.5 C 4 27.328125 4.671875 28 5.5 28 L 26.5 28 C 27.328125 28 28 27.328125 28 26.5 L 28 5.5 C 28 4.671875 27.328125 4 26.5 4 L 5.5 4 C 4.671875 4 4 4.671875 4 5.5 Z M 4 5.5 "/>
<path style=" stroke:none;fill-rule:nonzero;fill:rgb(61.56863%,22.745098%,60.784316%);fill-opacity:1;" d="M 20.242188 10.34375 L 16 14.585938 L 11.757812 10.34375 C 9.789062 9.351562 9.480469 9.980469 10.34375 11.757812 L 14.585938 16 L 10.34375 20.242188 C 9.109375 22.761719 10.527344 22.097656 11.757812 21.65625 L 16 17.414062 L 20.242188 21.65625 L 21.65625 20.242188 L 17.414062 16 L 21.65625 11.757812 Z M 20.242188 10.34375 "/>
<path style="fill-rule:evenodd;fill:rgb(94.117647%,89.019608%,92.54902%);fill-opacity:1;stroke-width:3.20664;stroke-linecap:round;stroke-linejoin:round;stroke:rgb(94.117647%,89.019608%,92.54902%);stroke-opacity:1;stroke-miterlimit:4;" d="M 15.942325 8.509136 L 20.074748 8.509136 C 21.392287 8.509136 22.455618 9.597274 22.455618 10.938468 L 22.455618 20.070608 C 22.455618 21.411802 21.392287 22.499941 20.074748 22.499941 L 15.942325 22.499941 C 14.627886 22.499941 13.561454 21.411802 13.561454 20.070608 L 13.561454 10.938468 C 13.561454 9.597274 14.627886 8.509136 15.942325 8.509136 Z M 15.942325 8.509136 " transform="matrix(1.260043,0,0,1.234907,-0.615362,0.128727)"/>
<path style="fill-rule:evenodd;fill:rgb(94.117647%,89.019608%,92.54902%);fill-opacity:1;stroke-width:3.20664;stroke-linecap:round;stroke-linejoin:round;stroke:rgb(94.117647%,89.019608%,92.54902%);stroke-opacity:1;stroke-miterlimit:4;" d="M 17.879882 11.501517 L 18.118589 11.501517 C 19.433028 11.501517 20.49946 12.586492 20.49946 13.93085 L 20.49946 18.07147 C 20.49946 19.412664 19.433028 20.500803 18.118589 20.500803 L 17.879882 20.500803 C 16.565443 20.500803 15.499012 19.412664 15.499012 18.07147 L 15.499012 13.93085 C 15.499012 12.586492 16.565443 11.501517 17.879882 11.501517 Z M 17.879882 11.501517 " transform="matrix(1.260043,0,0,1.234907,-0.615362,0.128727)"/>
<path style="fill-rule:evenodd;fill:rgb(94.117647%,89.019608%,92.54902%);fill-opacity:1;stroke-width:3.20664;stroke-linecap:round;stroke-linejoin:round;stroke:rgb(94.117647%,89.019608%,92.54902%);stroke-opacity:1;stroke-miterlimit:4;" d="M 18.419298 14.187068 C 18.419298 14.411655 18.236393 14.59512 18.006986 14.598283 C 17.777579 14.598283 17.588474 14.417981 17.585374 14.190231 C 17.585374 13.965645 17.768279 13.779016 17.997686 13.775853 C 18.227093 13.77269 18.416198 13.949829 18.419298 14.177579 L 18.003886 14.187068 Z M 18.419298 14.187068 " transform="matrix(1.260043,0,0,1.234907,-0.615362,0.128727)"/>
<path style="fill:none;stroke-width:3.20664;stroke-linecap:round;stroke-linejoin:round;stroke:rgb(94.117647%,89.019608%,92.54902%);stroke-opacity:1;stroke-miterlimit:4;" d="M 17.948084 16.901088 L 17.948084 19.425317 " transform="matrix(1.260043,0,0,1.234907,-0.615362,0.128727)"/>
<path style="fill-rule:evenodd;fill:rgb(94.117647%,89.019608%,92.54902%);fill-opacity:1;stroke-width:1.60332;stroke-linecap:round;stroke-linejoin:round;stroke:rgb(90.196079%,0.784314%,70.588237%);stroke-opacity:1;stroke-miterlimit:4;" d="M 15.942325 8.509136 L 20.074748 8.509136 C 21.392287 8.509136 22.455618 9.597274 22.455618 10.938468 L 22.455618 20.070608 C 22.455618 21.411802 21.392287 22.499941 20.074748 22.499941 L 15.942325 22.499941 C 14.627886 22.499941 13.561454 21.411802 13.561454 20.070608 L 13.561454 10.938468 C 13.561454 9.597274 14.627886 8.509136 15.942325 8.509136 Z M 15.942325 8.509136 " transform="matrix(1.260043,0,0,1.234907,-0.615362,0.128727)"/>
<path style="fill-rule:evenodd;fill:rgb(95.294118%,71.764708%,85.09804%);fill-opacity:1;stroke-width:1.60332;stroke-linecap:round;stroke-linejoin:round;stroke:rgb(90.196079%,0.784314%,70.588237%);stroke-opacity:1;stroke-miterlimit:4;" d="M 17.879882 11.501517 L 18.118589 11.501517 C 19.433028 11.501517 20.49946 12.586492 20.49946 13.93085 L 20.49946 18.07147 C 20.49946 19.412664 19.433028 20.500803 18.118589 20.500803 L 17.879882 20.500803 C 16.565443 20.500803 15.499012 19.412664 15.499012 18.07147 L 15.499012 13.93085 C 15.499012 12.586492 16.565443 11.501517 17.879882 11.501517 Z M 17.879882 11.501517 " transform="matrix(1.260043,0,0,1.234907,-0.615362,0.128727)"/>
<path style="fill:none;stroke-width:1.60332;stroke-linecap:round;stroke-linejoin:round;stroke:rgb(61.56863%,22.745098%,60.784316%);stroke-opacity:1;stroke-miterlimit:4;" d="M 18.419298 14.187068 C 18.419298 14.411655 18.236393 14.59512 18.006986 14.598283 C 17.777579 14.598283 17.588474 14.417981 17.585374 14.190231 C 17.585374 13.965645 17.768279 13.779016 17.997686 13.775853 C 18.227093 13.77269 18.416198 13.949829 18.419298 14.177579 L 18.003886 14.187068 Z M 18.419298 14.187068 " transform="matrix(1.260043,0,0,1.234907,-0.615362,0.128727)"/>
<path style="fill:none;stroke-width:1.60332;stroke-linecap:round;stroke-linejoin:round;stroke:rgb(90.196079%,0.784314%,70.588237%);stroke-opacity:1;stroke-miterlimit:4;" d="M 17.948084 16.901088 L 17.948084 19.425317 " transform="matrix(1.260043,0,0,1.234907,-0.615362,0.128727)"/>
</g>
</svg>
