<?xml version="1.0" encoding="UTF-8"?>
<svg xmlns="http://www.w3.org/2000/svg" xmlns:xlink="http://www.w3.org/1999/xlink" width="32px" height="32px" viewBox="0 0 32 32" version="1.1">
<g id="surface1">
<path style=" stroke:none;fill-rule:nonzero;fill:rgb(90.196079%,0.784314%,70.588237%);fill-opacity:1;" d="M 4.953125 4 L 27.046875 4 C 27.574219 4 28 4.496094 28 5.109375 L 28 26.890625 C 28 27.503906 27.574219 28 27.046875 28 L 4.953125 28 C 4.425781 28 4 27.503906 4 26.890625 L 4 5.109375 C 4 4.496094 4.425781 4 4.953125 4 Z M 4.953125 4 "/>
<path style=" stroke:none;fill-rule:evenodd;fill:rgb(94.117647%,89.019608%,92.54902%);fill-opacity:1;" d="M 7.5 6 L 24.5 6 C 25.328125 6 26 6.671875 26 7.5 L 26 24.5 C 26 25.328125 25.328125 26 24.5 26 L 7.5 26 C 6.671875 26 6 25.328125 6 24.5 L 6 7.5 C 6 6.671875 6.671875 6 7.5 6 Z M 7.5 6 "/>
<path style=" stroke:none;fill-rule:nonzero;fill:rgb(90.196079%,0.784314%,70.588237%);fill-opacity:1;" d="M 20.757812 18.992188 C 20.757812 18.492188 20.320312 18.09375 19.777344 18.09375 L 9.960938 18.09375 L 9.960938 9.097656 C 9.960938 9.097656 9.960938 9.09375 9.960938 9.09375 L 10.941406 9.09375 C 11.351562 9.09375 11.679688 8.792969 11.679688 8.417969 L 11.679688 4.820312 C 11.679688 4.449219 11.351562 4.144531 10.941406 4.144531 L 7.015625 4.144531 C 6.609375 4.144531 6.28125 4.449219 6.28125 4.820312 L 6.28125 8.417969 C 6.28125 8.792969 6.609375 9.09375 7.015625 9.09375 L 7.996094 9.09375 C 7.996094 9.09375 7.996094 9.097656 7.996094 9.097656 L 7.996094 18.992188 C 7.996094 19.117188 8.023438 19.234375 8.074219 19.34375 C 8.222656 19.667969 8.570312 19.890625 8.980469 19.890625 L 19.777344 19.890625 C 20.320312 19.890625 20.757812 19.488281 20.757812 18.992188 Z M 20.757812 18.992188 "/>
<path style="fill:none;stroke-width:1.220553;stroke-linecap:round;stroke-linejoin:miter;stroke:rgb(61.56863%,22.745098%,60.784316%);stroke-opacity:1;stroke-miterlimit:4;" d="M 5.499136 5.499958 L 10.500777 10.50076 " transform="matrix(1.652583,0,0,-1.624739,5.877066,31.885217)"/>
<path style="fill:none;stroke-width:1.220553;stroke-linecap:round;stroke-linejoin:miter;stroke:rgb(61.56863%,22.745098%,60.784316%);stroke-opacity:1;stroke-miterlimit:4;" d="M 10.500777 5.499958 L 5.499136 10.50076 " transform="matrix(1.652583,0,0,-1.624739,5.877066,31.885217)"/>
</g>
</svg>
