<?xml version="1.0" encoding="UTF-8"?>
<svg xmlns="http://www.w3.org/2000/svg" xmlns:xlink="http://www.w3.org/1999/xlink" width="32px" height="32px" viewBox="0 0 32 32" version="1.1">
<g id="surface1">
<path style=" stroke:none;fill-rule:nonzero;fill:rgb(90.196079%,0.784314%,70.588237%);fill-opacity:1;" d="M 4 27.046875 L 4 4.953125 C 4 4.425781 4.496094 4 5.109375 4 L 26.890625 4 C 27.503906 4 28 4.425781 28 4.953125 L 28 27.046875 C 28 27.574219 27.503906 28 26.890625 28 L 5.109375 28 C 4.496094 28 4 27.574219 4 27.046875 Z M 4 27.046875 "/>
<path style=" stroke:none;fill-rule:evenodd;fill:rgb(94.117647%,89.019608%,92.54902%);fill-opacity:1;" d="M 6 24.5 L 6 7.5 C 6 6.671875 6.671875 6 7.5 6 L 24.5 6 C 25.328125 6 26 6.671875 26 7.5 L 26 24.5 C 26 25.328125 25.328125 26 24.5 26 L 7.5 26 C 6.671875 26 6 25.328125 6 24.5 Z M 6 24.5 "/>
<path style=" stroke:none;fill-rule:nonzero;fill:rgb(90.196079%,0.784314%,70.588237%);fill-opacity:1;" d="M 18.992188 11.242188 C 18.492188 11.242188 18.09375 11.679688 18.09375 12.222656 L 18.09375 22.039062 L 9.097656 22.039062 C 9.097656 22.039062 9.09375 22.039062 9.09375 22.039062 L 9.09375 21.058594 C 9.09375 20.648438 8.792969 20.320312 8.417969 20.320312 L 4.820312 20.320312 C 4.449219 20.320312 4.144531 20.648438 4.144531 21.058594 L 4.144531 24.984375 C 4.144531 25.390625 4.449219 25.71875 4.820312 25.71875 L 8.417969 25.71875 C 8.792969 25.71875 9.09375 25.390625 9.09375 24.984375 L 9.09375 24.003906 C 9.09375 24.003906 9.097656 24.003906 9.097656 24.003906 L 18.992188 24.003906 C 19.117188 24.003906 19.234375 23.976562 19.34375 23.925781 C 19.667969 23.777344 19.890625 23.429688 19.890625 23.019531 L 19.890625 12.222656 C 19.890625 11.679688 19.488281 11.242188 18.992188 11.242188 Z M 18.992188 11.242188 "/>
<path style="fill:none;stroke-width:1.220553;stroke-linecap:round;stroke-linejoin:miter;stroke:rgb(61.56863%,22.745098%,60.784316%);stroke-opacity:1;stroke-miterlimit:4;" d="M 5.499136 5.499959 L 10.500776 10.500761 " transform="matrix(0,-1.652583,-1.624739,0,31.885218,26.122933)"/>
<path style="fill:none;stroke-width:1.220553;stroke-linecap:round;stroke-linejoin:miter;stroke:rgb(61.56863%,22.745098%,60.784316%);stroke-opacity:1;stroke-miterlimit:4;" d="M 10.500776 5.499959 L 5.499136 10.500761 " transform="matrix(0,-1.652583,-1.624739,0,31.885218,26.122933)"/>
</g>
</svg>
