<?xml version="1.0" encoding="UTF-8"?>
<svg xmlns="http://www.w3.org/2000/svg" xmlns:xlink="http://www.w3.org/1999/xlink" width="32px" height="32px" viewBox="0 0 32 32" version="1.1">
<g id="surface1">
<path style=" stroke:none;fill-rule:nonzero;fill:rgb(90.196079%,0.784314%,70.588237%);fill-opacity:1;" d="M 28 27.046875 L 28 4.953125 C 28 4.425781 27.503906 4 26.890625 4 L 5.109375 4 C 4.496094 4 4 4.425781 4 4.953125 L 4 27.046875 C 4 27.574219 4.496094 28 5.109375 28 L 26.890625 28 C 27.503906 28 28 27.574219 28 27.046875 Z M 28 27.046875 "/>
<path style=" stroke:none;fill-rule:evenodd;fill:rgb(94.117647%,89.019608%,92.54902%);fill-opacity:1;" d="M 26 24.5 L 26 7.5 C 26 6.671875 25.328125 6 24.5 6 L 7.5 6 C 6.671875 6 6 6.671875 6 7.5 L 6 24.5 C 6 25.328125 6.671875 26 7.5 26 L 24.5 26 C 25.328125 26 26 25.328125 26 24.5 Z M 26 24.5 "/>
<path style=" stroke:none;fill-rule:nonzero;fill:rgb(90.196079%,0.784314%,70.588237%);fill-opacity:1;" d="M 13.007812 11.242188 C 13.507812 11.242188 13.90625 11.679688 13.90625 12.222656 L 13.90625 22.039062 L 22.902344 22.039062 C 22.902344 22.039062 22.90625 22.039062 22.90625 22.039062 L 22.90625 21.058594 C 22.90625 20.648438 23.207031 20.320312 23.582031 20.320312 L 27.179688 20.320312 C 27.550781 20.320312 27.855469 20.648438 27.855469 21.058594 L 27.855469 24.984375 C 27.855469 25.390625 27.550781 25.71875 27.179688 25.71875 L 23.582031 25.71875 C 23.207031 25.71875 22.90625 25.390625 22.90625 24.984375 L 22.90625 24.003906 C 22.90625 24.003906 22.902344 24.003906 22.902344 24.003906 L 13.007812 24.003906 C 12.882812 24.003906 12.765625 23.976562 12.65625 23.925781 C 12.332031 23.777344 12.109375 23.429688 12.109375 23.019531 L 12.109375 12.222656 C 12.109375 11.679688 12.511719 11.242188 13.007812 11.242188 Z M 13.007812 11.242188 "/>
<path style="fill:none;stroke-width:1.220553;stroke-linecap:round;stroke-linejoin:miter;stroke:rgb(61.56863%,22.745098%,60.784316%);stroke-opacity:1;stroke-miterlimit:4;" d="M 5.499137 5.499959 L 10.500778 10.500762 " transform="matrix(0.000000000000000101,-1.652583,1.624739,0.000000000000000099,0.114781,26.122935)"/>
<path style="fill:none;stroke-width:1.220553;stroke-linecap:round;stroke-linejoin:miter;stroke:rgb(61.56863%,22.745098%,60.784316%);stroke-opacity:1;stroke-miterlimit:4;" d="M 10.500778 5.499959 L 5.499137 10.500762 " transform="matrix(0.000000000000000101,-1.652583,1.624739,0.000000000000000099,0.114781,26.122935)"/>
</g>
</svg>
