<?xml version="1.0" encoding="UTF-8"?>
<svg xmlns="http://www.w3.org/2000/svg" xmlns:xlink="http://www.w3.org/1999/xlink" width="32px" height="32px" viewBox="0 0 32 32" version="1.1">
<g id="surface1">
<path style=" stroke:none;fill-rule:nonzero;fill:rgb(90.196079%,0.784314%,70.588237%);fill-opacity:1;" d="M 4 4.953125 L 4 27.046875 C 4 27.574219 4.496094 28 5.109375 28 L 26.890625 28 C 27.503906 28 28 27.574219 28 27.046875 L 28 4.953125 C 28 4.425781 27.503906 4 26.890625 4 L 5.109375 4 C 4.496094 4 4 4.425781 4 4.953125 Z M 4 4.953125 "/>
<path style=" stroke:none;fill-rule:evenodd;fill:rgb(94.117647%,89.019608%,92.54902%);fill-opacity:1;" d="M 6 7.5 L 6 24.5 C 6 25.328125 6.671875 26 7.5 26 L 24.5 26 C 25.328125 26 26 25.328125 26 24.5 L 26 7.5 C 26 6.671875 25.328125 6 24.5 6 L 7.5 6 C 6.671875 6 6 6.671875 6 7.5 Z M 6 7.5 "/>
<path style=" stroke:none;fill-rule:nonzero;fill:rgb(90.196079%,0.784314%,70.588237%);fill-opacity:1;" d="M 17.3125 15.671875 C 17.3125 15.339844 17.109375 15.066406 16.835938 15 C 16.796875 14.992188 16.757812 14.984375 16.714844 14.984375 L 9 14.984375 L 9 14 C 9 13.585938 8.707031 13.25 8.347656 13.25 L 4.871094 13.25 C 4.511719 13.25 4.21875 13.585938 4.21875 14 L 4.21875 18 C 4.21875 18.414062 4.511719 18.75 4.871094 18.75 L 8.347656 18.75 C 8.707031 18.75 9 18.414062 9 18 L 9 17.015625 L 10.78125 17.011719 L 12.933594 17.015625 L 12.933594 17.007812 L 16.835938 17 L 16.839844 16.96875 C 17.109375 16.902344 17.3125 16.628906 17.3125 16.296875 Z M 17.3125 15.671875 "/>
<path style="fill:none;stroke-width:1;stroke-linecap:round;stroke-linejoin:miter;stroke:rgb(61.56863%,22.745098%,60.784316%);stroke-opacity:1;stroke-miterlimit:4;" d="M 5.5 5.5 L 10.5 10.5 " transform="matrix(0.000000000000000122,2,-2,0.000000000000000122,32,0)"/>
<path style="fill:none;stroke-width:1;stroke-linecap:round;stroke-linejoin:miter;stroke:rgb(61.56863%,22.745098%,60.784316%);stroke-opacity:1;stroke-miterlimit:4;" d="M 10.5 5.5 L 5.5 10.5 " transform="matrix(0.000000000000000122,2,-2,0.000000000000000122,32,0)"/>
</g>
</svg>
