<?xml version="1.0" encoding="UTF-8"?>
<svg xmlns="http://www.w3.org/2000/svg" xmlns:xlink="http://www.w3.org/1999/xlink" width="32px" height="32px" viewBox="0 0 32 32" version="1.1">
<g id="surface1">
<path style="fill-rule:evenodd;fill:rgb(94.117647%,89.019608%,92.54902%);fill-opacity:1;stroke-width:1;stroke-linecap:round;stroke-linejoin:round;stroke:rgb(90.196079%,0.784314%,70.588237%);stroke-opacity:1;stroke-miterlimit:4;" d="M 3.5 1.5 L 12.5 1.5 C 13.052734 1.5 13.5 1.947266 13.5 2.5 L 13.5 13.5 C 13.5 14.052734 13.052734 14.5 12.5 14.5 L 3.5 14.5 C 2.947266 14.5 2.5 14.052734 2.5 13.5 L 2.5 2.5 C 2.5 1.947266 2.947266 1.5 3.5 1.5 Z M 3.5 1.5 " transform="matrix(2,0,0,2,0,0)"/>
<path style="fill-rule:nonzero;fill:rgb(61.56863%,22.745098%,60.784316%);fill-opacity:1;stroke-width:0.327852;stroke-linecap:round;stroke-linejoin:round;stroke:rgb(61.56863%,22.745098%,60.784316%);stroke-opacity:1;stroke-miterlimit:4;" d="M 4.660017 8.408032 C 3.740494 8.408032 2.995142 9.153383 2.995142 10.072907 C 2.995142 10.99243 3.740494 11.740343 4.660017 11.740343 C 5.57954 11.740343 6.324892 10.99243 6.324892 10.072907 C 6.324892 9.153383 5.57954 8.408032 4.660017 8.408032 Z M 4.660017 8.408032 " transform="matrix(1.525077,0,0,1.525077,0.299364,1.329446)"/>
<path style="fill:none;stroke-width:1;stroke-linecap:round;stroke-linejoin:round;stroke:rgb(61.56863%,22.745098%,60.784316%);stroke-opacity:1;stroke-miterlimit:4;" d="M 1.5 7 C 1.5 7 6.724609 0.5 11 8.5 " transform="matrix(2,0,0,2,0,0)"/>
<path style="fill:none;stroke-width:1;stroke-linecap:round;stroke-linejoin:round;stroke:rgb(61.56863%,22.745098%,60.784316%);stroke-opacity:1;stroke-miterlimit:4;" d="M 11.5 4.5 L 11.5 9 L 7.132812 8.849609 " transform="matrix(2,0,0,2,0,0)"/>
</g>
</svg>
