<?xml version="1.0" encoding="UTF-8"?>
<svg xmlns="http://www.w3.org/2000/svg" xmlns:xlink="http://www.w3.org/1999/xlink" width="32px" height="32px" viewBox="0 0 32 32" version="1.1">
<g id="surface1">
<path style=" stroke:none;fill-rule:nonzero;fill:rgb(61.56863%,22.745098%,60.784316%);fill-opacity:1;" d="M 23.945312 16 L 23.945312 18 L 22 18 L 22 16 Z M 23.945312 16 "/>
<path style=" stroke:none;fill-rule:nonzero;fill:rgb(61.56863%,22.745098%,60.784316%);fill-opacity:1;" d="M 2.050781 29.96875 L 5.917969 29.96875 C 5.945312 29.96875 5.96875 29.941406 5.96875 29.90625 L 5.96875 26.0625 C 5.96875 26.027344 5.945312 26 5.917969 26 L 2.050781 26 C 2.023438 26 2 26.027344 2 26.0625 L 2 29.90625 C 2 29.941406 2.023438 29.96875 2.050781 29.96875 Z M 2.050781 29.96875 "/>
<path style=" stroke:none;fill-rule:nonzero;fill:rgb(61.56863%,22.745098%,60.784316%);fill-opacity:1;" d="M 24.050781 30 L 27.949219 30 C 27.976562 30 28 29.972656 28 29.9375 L 28 26.0625 C 28 26.027344 27.976562 26 27.949219 26 L 24.050781 26 C 24.023438 26 24 26.027344 24 26.0625 L 24 29.9375 C 24 29.972656 24.023438 30 24.050781 30 Z M 24.050781 30 "/>
<path style=" stroke:none;fill-rule:nonzero;fill:rgb(61.56863%,22.745098%,60.784316%);fill-opacity:1;" d="M 2.050781 8 L 5.949219 8 C 5.976562 8 6 7.972656 6 7.9375 L 6 4.0625 C 6 4.027344 5.976562 4 5.949219 4 L 2.050781 4 C 2.023438 4 2 4.027344 2 4.0625 L 2 7.9375 C 2 7.972656 2.023438 8 2.050781 8 Z M 2.050781 8 "/>
<path style=" stroke:none;fill-rule:nonzero;fill:rgb(61.56863%,22.745098%,60.784316%);fill-opacity:1;" d="M 28 18 L 28 20 L 26 20 L 26 18 Z M 28 18 "/>
<path style=" stroke:none;fill-rule:nonzero;fill:rgb(61.56863%,22.745098%,60.784316%);fill-opacity:1;" d="M 28 22 L 28 24.214844 L 26 24.214844 L 26 22 Z M 28 22 "/>
<path style=" stroke:none;fill-rule:nonzero;fill:rgb(61.56863%,22.745098%,60.784316%);fill-opacity:1;" d="M 22 26 L 22 28 L 20 28 L 20 26 Z M 22 26 "/>
<path style=" stroke:none;fill-rule:nonzero;fill:rgb(61.56863%,22.745098%,60.784316%);fill-opacity:1;" d="M 18 26 L 18 28 L 16 28 L 16 26 Z M 18 26 "/>
<path style=" stroke:none;fill-rule:nonzero;fill:rgb(61.56863%,22.745098%,60.784316%);fill-opacity:1;" d="M 14 26 L 14 28 L 12 28 L 12 26 Z M 14 26 "/>
<path style=" stroke:none;fill-rule:nonzero;fill:rgb(61.56863%,22.745098%,60.784316%);fill-opacity:1;" d="M 10 26 L 10 28 L 8 28 L 8 26 Z M 10 26 "/>
<path style=" stroke:none;fill-rule:nonzero;fill:rgb(61.56863%,22.745098%,60.784316%);fill-opacity:1;" d="M 18 6 L 18 8 L 16 8 L 16 6 Z M 18 6 "/>
<path style=" stroke:none;fill-rule:nonzero;fill:rgb(61.56863%,22.745098%,60.784316%);fill-opacity:1;" d="M 14 6 L 14 8 L 12 8 L 12 6 Z M 14 6 "/>
<path style=" stroke:none;fill-rule:nonzero;fill:rgb(61.56863%,22.745098%,60.784316%);fill-opacity:1;" d="M 10 6 L 10 8 L 8 8 L 8 6 Z M 10 6 "/>
<path style=" stroke:none;fill-rule:nonzero;fill:rgb(61.56863%,22.745098%,60.784316%);fill-opacity:1;" d="M 22 6 L 22 8 L 20 8 L 20 6 Z M 22 6 "/>
<path style=" stroke:none;fill-rule:nonzero;fill:rgb(61.56863%,22.745098%,60.784316%);fill-opacity:1;" d="M 6 24.246094 L 4 24.246094 L 4 22 L 6 22 Z M 6 24.246094 "/>
<path style=" stroke:none;fill-rule:nonzero;fill:rgb(61.56863%,22.745098%,60.784316%);fill-opacity:1;" d="M 6 20 L 4 20 L 4 18 L 6 18 Z M 6 20 "/>
<path style=" stroke:none;fill-rule:nonzero;fill:rgb(61.56863%,22.745098%,60.784316%);fill-opacity:1;" d="M 6 16 L 4 16 L 4 14 L 6 14 Z M 6 16 "/>
<path style=" stroke:none;fill-rule:nonzero;fill:rgb(61.56863%,22.745098%,60.784316%);fill-opacity:1;" d="M 6 12 L 4 12 L 4 10 L 6 10 Z M 6 12 "/>
<path style="fill-rule:evenodd;fill:rgb(95.294118%,71.764708%,85.09804%);fill-opacity:1;stroke-width:1.513222;stroke-linecap:round;stroke-linejoin:round;stroke:rgb(90.196079%,0.784314%,70.588237%);stroke-opacity:1;stroke-miterlimit:4;" d="M 7.461505 7.254558 L 7.481252 13.142995 L 10.75629 14.818893 L 10.7591 7.354842 Z M 7.461505 7.254558 " transform="matrix(0.898943,0.96889,-0.968891,0.898943,19.047966,-3.496904)"/>
<path style="fill-rule:nonzero;fill:rgb(94.117647%,89.019608%,92.54902%);fill-opacity:1;stroke-width:1.513222;stroke-linecap:round;stroke-linejoin:round;stroke:rgb(90.196079%,0.784314%,70.588237%);stroke-opacity:1;stroke-miterlimit:4;" d="M 6.941307 0.232542 C 6.684043 0.231719 6.474201 0.436162 6.475545 0.695436 L 6.445889 6.828317 L 6.445802 6.993535 C 6.445802 6.993535 7.629301 7.881947 9.09136 7.887844 C 10.555585 7.895752 11.746093 7.01673 11.746093 7.01673 L 11.74618 6.851512 L 11.773826 0.720798 C 11.776658 0.461367 11.570205 0.253692 11.310775 0.250859 Z M 6.941307 0.232542 " transform="matrix(0.898943,0.96889,-0.968891,0.898943,19.047966,-3.496904)"/>
</g>
</svg>
