<?xml version="1.0" encoding="UTF-8"?>
<svg xmlns="http://www.w3.org/2000/svg" xmlns:xlink="http://www.w3.org/1999/xlink" width="32px" height="32px" viewBox="0 0 32 32" version="1.1">
<g id="surface1">
<path style=" stroke:none;fill-rule:nonzero;fill:rgb(90.196079%,0.784314%,70.588237%);fill-opacity:1;" d="M 2 2 L 30 2 L 30 30 L 2 30 Z M 2 2 "/>
<path style=" stroke:none;fill-rule:nonzero;fill:rgb(94.117647%,89.019608%,92.54902%);fill-opacity:1;" d="M 4 4 L 28 4 L 28 28 L 4 28 Z M 4 4 "/>
<path style=" stroke:none;fill-rule:evenodd;fill:rgb(95.294118%,71.764708%,85.09804%);fill-opacity:1;" d="M 28 4 C 27.054688 5.257812 4 28 4 28 L 4 4 Z M 28 4 "/>
<path style=" stroke:none;fill-rule:nonzero;fill:rgb(95.294118%,71.764708%,85.09804%);fill-opacity:1;" d="M 21.503906 10.613281 C 18.085938 14.039062 13.929688 18.164062 10.53125 21.527344 C 11.980469 22.960938 13.933594 23.765625 15.972656 23.769531 C 20.25 23.769531 23.714844 20.304688 23.714844 16.027344 C 23.714844 14.003906 22.921875 12.0625 21.503906 10.613281 Z M 21.503906 10.613281 "/>
<path style=" stroke:none;fill-rule:nonzero;fill:rgb(94.117647%,89.019608%,92.54902%);fill-opacity:1;" d="M 15.972656 8.285156 C 11.695312 8.285156 8.230469 11.75 8.230469 16.027344 C 8.234375 18.09375 9.0625 20.074219 10.53125 21.527344 C 13.929688 18.164062 18.085938 14.039062 21.503906 10.613281 C 20.050781 9.125 18.054688 8.285156 15.972656 8.285156 Z M 15.972656 8.285156 "/>
</g>
</svg>
