<?xml version="1.0" encoding="UTF-8"?>
<svg xmlns="http://www.w3.org/2000/svg" xmlns:xlink="http://www.w3.org/1999/xlink" width="32px" height="32px" viewBox="0 0 32 32" version="1.1">
<g id="surface1">
<path style=" stroke:none;fill-rule:nonzero;fill:rgb(90.196079%,0.784314%,70.588237%);fill-opacity:1;" d="M 4 4 L 28 4 C 29.105469 4 30 4.894531 30 6 L 30 24 C 30 25.105469 29.105469 26 28 26 L 4 26 C 2.894531 26 2 25.105469 2 24 L 2 6 C 2 4.894531 2.894531 4 4 4 Z M 4 4 "/>
<path style=" stroke:none;fill-rule:nonzero;fill:rgb(94.117647%,89.019608%,92.54902%);fill-opacity:1;" d="M 6 6 L 26 6 C 27.105469 6 28 6.894531 28 8 L 28 22 C 28 23.105469 27.105469 24 26 24 L 6 24 C 4.894531 24 4 23.105469 4 22 L 4 8 C 4 6.894531 4.894531 6 6 6 Z M 6 6 "/>
<path style=" stroke:none;fill-rule:nonzero;fill:rgb(90.196079%,0.784314%,70.588237%);fill-opacity:1;" d="M 9.183594 10.335938 C 8.5 10.390625 7.839844 10.710938 7.359375 11.273438 L 4 15.214844 L 4 22 C 4 23.109375 4.890625 24 6 24 L 26 24 C 26.121094 24 26.226562 23.953125 26.339844 23.933594 L 11.136719 10.972656 C 10.574219 10.492188 9.867188 10.28125 9.183594 10.335938 Z M 9.183594 10.335938 "/>
<path style=" stroke:none;fill-rule:nonzero;fill:rgb(95.294118%,71.764708%,85.09804%);fill-opacity:1;" d="M 23.4375 13.15625 C 22.921875 13.15625 22.40625 13.351562 22.007812 13.746094 L 11.96875 23.722656 C 11.886719 23.804688 11.851562 23.910156 11.785156 24 L 26 24 C 27.109375 24 28 23.109375 28 22 L 28 16.90625 L 24.867188 13.753906 C 24.472656 13.355469 23.953125 13.15625 23.4375 13.15625 Z M 23.4375 13.15625 "/>
<path style=" stroke:none;fill-rule:nonzero;fill:rgb(61.56863%,22.745098%,60.784316%);fill-opacity:1;" d="M 19.152344 10.9375 C 19.152344 11.765625 18.480469 12.4375 17.652344 12.4375 C 16.820312 12.4375 16.152344 11.765625 16.152344 10.9375 C 16.152344 10.109375 16.820312 9.4375 17.652344 9.4375 C 18.480469 9.4375 19.152344 10.109375 19.152344 10.9375 Z M 19.152344 10.9375 "/>
<path style="fill-rule:evenodd;fill:rgb(94.117647%,89.019608%,92.54902%);fill-opacity:1;stroke-width:3.20664;stroke-linecap:round;stroke-linejoin:round;stroke:rgb(94.117647%,89.019608%,92.54902%);stroke-opacity:1;stroke-miterlimit:4;" d="M 15.943661 8.509194 L 20.076083 8.509194 C 21.390523 8.509194 22.456954 9.597332 22.456954 10.938527 L 22.456954 20.070666 C 22.456954 21.41186 21.390523 22.499999 20.076083 22.499999 L 15.943661 22.499999 C 14.626122 22.499999 13.56279 21.41186 13.56279 20.070666 L 13.56279 10.938527 C 13.56279 9.597332 14.626122 8.509194 15.943661 8.509194 Z M 15.943661 8.509194 " transform="matrix(1.260043,0,0,1.234907,-0.296733,0.214593)"/>
<path style="fill-rule:evenodd;fill:rgb(94.117647%,89.019608%,92.54902%);fill-opacity:1;stroke-width:3.20664;stroke-linecap:round;stroke-linejoin:round;stroke:rgb(94.117647%,89.019608%,92.54902%);stroke-opacity:1;stroke-miterlimit:4;" d="M 17.881218 11.501575 L 18.119925 11.501575 C 19.434364 11.501575 20.500796 12.58655 20.500796 13.930908 L 20.500796 18.071528 C 20.500796 19.412722 19.434364 20.500861 18.119925 20.500861 L 17.881218 20.500861 C 16.566779 20.500861 15.500348 19.412722 15.500348 18.071528 L 15.500348 13.930908 C 15.500348 12.58655 16.566779 11.501575 17.881218 11.501575 Z M 17.881218 11.501575 " transform="matrix(1.260043,0,0,1.234907,-0.296733,0.214593)"/>
<path style="fill-rule:evenodd;fill:rgb(94.117647%,89.019608%,92.54902%);fill-opacity:1;stroke-width:3.20664;stroke-linecap:round;stroke-linejoin:round;stroke:rgb(94.117647%,89.019608%,92.54902%);stroke-opacity:1;stroke-miterlimit:4;" d="M 18.420634 14.187126 C 18.420634 14.411713 18.234629 14.595178 18.005222 14.598342 C 17.775815 14.598342 17.58981 14.418039 17.58671 14.19029 C 17.583609 13.965703 17.766515 13.779074 17.995922 13.775911 C 18.225328 13.772748 18.414434 13.949887 18.420634 14.177637 L 18.005222 14.187126 Z M 18.420634 14.187126 " transform="matrix(1.260043,0,0,1.234907,-0.296733,0.214593)"/>
<path style="fill:none;stroke-width:3.20664;stroke-linecap:round;stroke-linejoin:round;stroke:rgb(94.117647%,89.019608%,92.54902%);stroke-opacity:1;stroke-miterlimit:4;" d="M 17.94942 16.901146 L 17.94942 19.425375 " transform="matrix(1.260043,0,0,1.234907,-0.296733,0.214593)"/>
<path style="fill-rule:evenodd;fill:rgb(94.117647%,89.019608%,92.54902%);fill-opacity:1;stroke-width:1.60332;stroke-linecap:round;stroke-linejoin:round;stroke:rgb(90.196079%,0.784314%,70.588237%);stroke-opacity:1;stroke-miterlimit:4;" d="M 15.943661 8.509194 L 20.076083 8.509194 C 21.390523 8.509194 22.456954 9.597332 22.456954 10.938527 L 22.456954 20.070666 C 22.456954 21.41186 21.390523 22.499999 20.076083 22.499999 L 15.943661 22.499999 C 14.626122 22.499999 13.56279 21.41186 13.56279 20.070666 L 13.56279 10.938527 C 13.56279 9.597332 14.626122 8.509194 15.943661 8.509194 Z M 15.943661 8.509194 " transform="matrix(1.260043,0,0,1.234907,-0.296733,0.214593)"/>
<path style="fill-rule:evenodd;fill:rgb(95.294118%,71.764708%,85.09804%);fill-opacity:1;stroke-width:1.60332;stroke-linecap:round;stroke-linejoin:round;stroke:rgb(90.196079%,0.784314%,70.588237%);stroke-opacity:1;stroke-miterlimit:4;" d="M 17.881218 11.501575 L 18.119925 11.501575 C 19.434364 11.501575 20.500796 12.58655 20.500796 13.930908 L 20.500796 18.071528 C 20.500796 19.412722 19.434364 20.500861 18.119925 20.500861 L 17.881218 20.500861 C 16.566779 20.500861 15.500348 19.412722 15.500348 18.071528 L 15.500348 13.930908 C 15.500348 12.58655 16.566779 11.501575 17.881218 11.501575 Z M 17.881218 11.501575 " transform="matrix(1.260043,0,0,1.234907,-0.296733,0.214593)"/>
<path style="fill:none;stroke-width:1.60332;stroke-linecap:round;stroke-linejoin:round;stroke:rgb(61.56863%,22.745098%,60.784316%);stroke-opacity:1;stroke-miterlimit:4;" d="M 18.420634 14.187126 C 18.420634 14.411713 18.234629 14.595178 18.005222 14.598342 C 17.775815 14.598342 17.58981 14.418039 17.58671 14.19029 C 17.583609 13.965703 17.766515 13.779074 17.995922 13.775911 C 18.225328 13.772748 18.414434 13.949887 18.420634 14.177637 L 18.005222 14.187126 Z M 18.420634 14.187126 " transform="matrix(1.260043,0,0,1.234907,-0.296733,0.214593)"/>
<path style="fill:none;stroke-width:1.60332;stroke-linecap:round;stroke-linejoin:round;stroke:rgb(90.196079%,0.784314%,70.588237%);stroke-opacity:1;stroke-miterlimit:4;" d="M 17.94942 16.901146 L 17.94942 19.425375 " transform="matrix(1.260043,0,0,1.234907,-0.296733,0.214593)"/>
</g>
</svg>
