<?xml version="1.0" encoding="UTF-8"?>
<svg xmlns="http://www.w3.org/2000/svg" xmlns:xlink="http://www.w3.org/1999/xlink" width="32px" height="32px" viewBox="0 0 32 32" version="1.1">
<g id="surface1">
<path style=" stroke:none;fill-rule:nonzero;fill:rgb(90.196079%,0.784314%,70.588237%);fill-opacity:1;" d="M 6 4 L 26 4 C 27.105469 4 28 4.894531 28 6 L 28 26 C 28 27.105469 27.105469 28 26 28 L 6 28 C 4.894531 28 4 27.105469 4 26 L 4 6 C 4 4.894531 4.894531 4 6 4 Z M 6 4 "/>
<path style=" stroke:none;fill-rule:nonzero;fill:rgb(94.117647%,89.019608%,92.54902%);fill-opacity:1;" d="M 6 6 L 26 6 L 26 26 L 6 26 Z M 6 6 "/>
<path style=" stroke:none;fill-rule:evenodd;fill:rgb(90.196079%,0.784314%,70.588237%);fill-opacity:1;" d="M 26 8 C 21.835938 19.617188 15.003906 23.078125 8 26 L 6 26 L 6 24 C 16.949219 20.371094 21.6875 13.769531 24 6 L 26 6 Z M 26 8 "/>
</g>
</svg>
