<?xml version="1.0" encoding="UTF-8"?>
<svg xmlns="http://www.w3.org/2000/svg" xmlns:xlink="http://www.w3.org/1999/xlink" width="32px" height="32px" viewBox="0 0 32 32" version="1.1">
<g id="surface1">
<path style=" stroke:none;fill-rule:nonzero;fill:rgb(90.196079%,0.784314%,70.588237%);fill-opacity:1;" d="M 4.164062 3.984375 L 27.800781 3.984375 C 29.007812 3.984375 29.984375 4.960938 29.984375 6.167969 L 29.984375 25.804688 C 29.984375 27.007812 29.007812 27.984375 27.800781 27.984375 L 4.164062 27.984375 C 2.960938 27.984375 1.984375 27.007812 1.984375 25.804688 L 1.984375 6.167969 C 1.984375 4.960938 2.960938 3.984375 4.164062 3.984375 Z M 4.164062 3.984375 "/>
<path style=" stroke:none;fill-rule:nonzero;fill:rgb(94.117647%,89.019608%,92.54902%);fill-opacity:1;" d="M 5.984375 5.984375 L 25.984375 5.984375 C 27.089844 5.984375 27.984375 6.878906 27.984375 7.984375 L 27.984375 23.984375 C 27.984375 25.089844 27.089844 25.984375 25.984375 25.984375 L 5.984375 25.984375 C 4.878906 25.984375 3.984375 25.089844 3.984375 23.984375 L 3.984375 7.984375 C 3.984375 6.878906 4.878906 5.984375 5.984375 5.984375 Z M 5.984375 5.984375 "/>
<path style=" stroke:none;fill-rule:nonzero;fill:rgb(90.196079%,0.784314%,70.588237%);fill-opacity:1;" d="M 9.167969 12.320312 C 8.484375 12.375 7.824219 12.695312 7.34375 13.257812 L 3.984375 17.199219 L 3.984375 23.984375 C 3.984375 25.09375 4.875 25.984375 5.984375 25.984375 L 25.984375 25.984375 C 26.105469 25.984375 26.210938 25.9375 26.324219 25.917969 L 11.121094 12.957031 C 10.554688 12.476562 9.851562 12.265625 9.167969 12.320312 Z M 9.167969 12.320312 "/>
<path style=" stroke:none;fill-rule:nonzero;fill:rgb(61.56863%,22.745098%,60.784316%);fill-opacity:1;" d="M 12.910156 19.765625 C 12.332031 19.746094 11.746094 19.949219 11.289062 20.378906 L 5.421875 25.871094 C 5.601562 25.925781 5.785156 25.984375 5.984375 25.984375 L 19.640625 25.984375 L 14.488281 20.484375 C 14.058594 20.027344 13.488281 19.785156 12.910156 19.765625 Z M 12.910156 19.765625 "/>
<path style=" stroke:none;fill-rule:nonzero;fill:rgb(61.56863%,22.745098%,60.784316%);fill-opacity:1;" d="M 23.421875 15.140625 C 22.90625 15.140625 22.390625 15.335938 21.992188 15.730469 L 11.953125 25.707031 C 11.871094 25.789062 11.835938 25.894531 11.769531 25.984375 L 25.984375 25.984375 C 27.09375 25.984375 27.984375 25.09375 27.984375 23.984375 L 27.984375 18.890625 L 24.851562 15.738281 C 24.457031 15.339844 23.9375 15.144531 23.421875 15.140625 Z M 23.421875 15.140625 "/>
<path style=" stroke:none;fill-rule:nonzero;fill:rgb(95.294118%,71.764708%,85.09804%);fill-opacity:1;" d="M 18.171875 18.875 C 17.59375 18.855469 17.007812 19.054688 16.550781 19.480469 L 9.578125 25.984375 L 25.707031 25.984375 L 19.75 19.59375 C 19.320312 19.136719 18.75 18.894531 18.171875 18.875 Z M 18.171875 18.875 "/>
<path style=" stroke:none;fill-rule:nonzero;fill:rgb(61.56863%,22.745098%,60.784316%);fill-opacity:1;" d="M 19.132812 10.527344 C 19.132812 11.355469 18.460938 12.027344 17.632812 12.027344 C 16.804688 12.027344 16.132812 11.355469 16.132812 10.527344 C 16.132812 9.699219 16.804688 9.027344 17.632812 9.027344 C 18.460938 9.027344 19.132812 9.699219 19.132812 10.527344 Z M 19.132812 10.527344 "/>
<path style=" stroke:none;fill-rule:nonzero;fill:rgb(95.294118%,71.764708%,85.09804%);fill-opacity:1;" d="M 5.910156 21.109375 C 5.332031 21.089844 4.75 21.292969 4.292969 21.722656 L 3.984375 22.011719 L 3.984375 23.984375 C 3.984375 25.09375 4.875 25.984375 5.984375 25.984375 L 11.382812 25.984375 L 7.488281 21.828125 C 7.058594 21.371094 6.488281 21.128906 5.910156 21.109375 Z M 5.910156 21.109375 "/>
<path style=" stroke:none;fill-rule:nonzero;fill:rgb(90.196079%,0.784314%,70.588237%);fill-opacity:1;" d="M 24.800781 20.726562 C 24.222656 20.707031 23.636719 20.90625 23.179688 21.335938 L 18.21875 25.984375 L 25.984375 25.984375 C 27.09375 25.984375 27.984375 25.09375 27.984375 23.984375 L 27.984375 23.15625 L 26.378906 21.441406 C 25.949219 20.984375 25.378906 20.746094 24.800781 20.726562 Z M 24.800781 20.726562 "/>
<path style=" stroke:none;fill-rule:nonzero;fill:rgb(95.294118%,71.764708%,85.09804%);fill-opacity:1;" d="M 18.773438 13.917969 L 20.722656 13.207031 L 26.394531 28.820312 L 24.441406 29.527344 Z M 18.773438 13.917969 "/>
<path style=" stroke:none;fill-rule:nonzero;fill:rgb(90.196079%,0.784314%,70.588237%);fill-opacity:1;" d="M 26.394531 28.820312 C 26.492188 29.089844 26.132812 29.464844 25.59375 29.660156 C 25.054688 29.855469 24.539062 29.796875 24.441406 29.527344 C 24.34375 29.257812 24.703125 28.878906 25.238281 28.683594 C 25.777344 28.488281 26.296875 28.550781 26.394531 28.820312 Z M 26.394531 28.820312 "/>
<path style=" stroke:none;fill-rule:nonzero;fill:rgb(90.196079%,0.784314%,70.588237%);fill-opacity:1;" d="M 20.722656 13.207031 C 20.820312 13.476562 20.464844 13.855469 19.925781 14.050781 C 19.386719 14.246094 18.871094 14.183594 18.773438 13.917969 C 18.675781 13.648438 19.03125 13.269531 19.570312 13.074219 C 20.109375 12.878906 20.625 12.9375 20.722656 13.207031 Z M 20.722656 13.207031 "/>
<path style="fill-rule:evenodd;fill:rgb(95.294118%,71.764708%,85.09804%);fill-opacity:1;stroke-width:0.25;stroke-linecap:round;stroke-linejoin:round;stroke:rgb(90.196079%,0.784314%,70.588237%);stroke-opacity:1;stroke-miterlimit:4;" d="M 11.5 6.5 L 12.308594 6.449219 L 12.269531 6.869141 L 11.5 6.5 " transform="matrix(2,0,0,2,0,0)"/>
<path style="fill-rule:evenodd;fill:rgb(95.294118%,71.764708%,85.09804%);fill-opacity:1;stroke-width:0.25;stroke-linecap:round;stroke-linejoin:round;stroke:rgb(90.196079%,0.784314%,70.588237%);stroke-opacity:1;stroke-miterlimit:4;" d="M 10.173828 4.900391 L 10.101562 4.09375 L 10.521484 4.123047 L 10.173828 4.900391 " transform="matrix(2,0,0,2,0,0)"/>
<path style="fill-rule:evenodd;fill:rgb(95.294118%,71.764708%,85.09804%);fill-opacity:1;stroke-width:0.25;stroke-linecap:round;stroke-linejoin:round;stroke:rgb(90.196079%,0.784314%,70.588237%);stroke-opacity:1;stroke-miterlimit:4;" d="M 8.105469 5.095703 L 7.412109 4.677734 L 7.683594 4.355469 L 8.105469 5.095703 " transform="matrix(2,0,0,2,0,0)"/>
<path style="fill-rule:evenodd;fill:rgb(95.294118%,71.764708%,85.09804%);fill-opacity:1;stroke-width:0.25;stroke-linecap:round;stroke-linejoin:round;stroke:rgb(90.196079%,0.784314%,70.588237%);stroke-opacity:1;stroke-miterlimit:4;" d="M 7.865234 6.755859 L 7.144531 7.125 L 7.013672 6.724609 L 7.865234 6.755859 " transform="matrix(2,0,0,2,0,0)"/>
<path style="fill-rule:evenodd;fill:rgb(95.294118%,71.764708%,85.09804%);fill-opacity:1;stroke-width:0.25;stroke-linecap:round;stroke-linejoin:round;stroke:rgb(90.196079%,0.784314%,70.588237%);stroke-opacity:1;stroke-miterlimit:4;" d="M 8.544922 8 L 8.488281 8.808594 L 8.078125 8.712891 L 8.544922 8 " transform="matrix(2,0,0,2,0,0)"/>
</g>
</svg>
