<?xml version="1.0" encoding="UTF-8"?>
<svg xmlns="http://www.w3.org/2000/svg" xmlns:xlink="http://www.w3.org/1999/xlink" width="32px" height="32px" viewBox="0 0 32 32" version="1.1">
<g id="surface1">
<path style="fill-rule:nonzero;fill:rgb(61.56863%,22.745098%,60.784316%);fill-opacity:1;stroke-width:1.249674;stroke-linecap:butt;stroke-linejoin:miter;stroke:rgb(90.196079%,0.784314%,70.588237%);stroke-opacity:1;stroke-miterlimit:4;" d="M 2.665909 3.986284 C 1.745739 3.986284 1.001304 4.432944 0.998863 4.986999 L 0.998863 11.001054 C 1.001304 11.552668 1.745739 11.999329 2.665909 11.999329 L 6 11.999329 L 6 3.986284 Z M 2.665909 3.986284 " transform="matrix(1.600418,0,0,1.600418,3.397495,3.620281)"/>
<path style="fill-rule:nonzero;fill:rgb(94.117647%,89.019608%,92.54902%);fill-opacity:1;stroke-width:1.249674;stroke-linecap:butt;stroke-linejoin:miter;stroke:rgb(90.196079%,0.784314%,70.588237%);stroke-opacity:1;stroke-miterlimit:4;" d="M 11.584479 -0.204517 C 11.196397 -0.197195 10.830282 -0.0946824 10.554475 0.0859345 L 6 3.600642 C 5.71443 3.786141 5.55578 4.042421 5.55578 4.306024 L 5.55578 11.293947 C 5.55578 11.55755 5.71443 11.81139 6 11.999329 L 10.554475 15.499392 C 10.874216 15.709298 11.247653 15.821574 11.628413 15.792284 C 12.914699 15.819133 13.146572 16.065651 13.146572 14.79401 L 13.146572 0.793758 C 13.307663 -0.524258 12.731641 -0.206958 11.584479 -0.204517 Z M 11.584479 -0.204517 " transform="matrix(1.600418,0,0,1.600418,3.397495,3.620281)"/>
<path style="fill-rule:evenodd;fill:rgb(94.117647%,89.019608%,92.54902%);fill-opacity:1;stroke-width:0.687508;stroke-linecap:round;stroke-linejoin:round;stroke:rgb(61.56863%,22.745098%,60.784316%);stroke-opacity:1;stroke-miterlimit:4;" d="M 9.958121 7.199488 C 9.958121 8.430825 8.960429 9.427174 7.730434 9.427174 C 6.50044 9.427174 5.502748 8.430825 5.502748 7.199488 C 5.502748 5.969493 6.50044 4.973144 7.730434 4.973144 C 8.960429 4.973144 9.958121 5.969493 9.958121 7.199488 Z M 9.958121 7.199488 " transform="matrix(2.909058,0,0,2.909058,0.000000000000001776,1.454711)"/>
<path style="fill-rule:nonzero;fill:rgb(90.196079%,0.784314%,70.588237%);fill-opacity:1;stroke-width:0.687508;stroke-linecap:round;stroke-linejoin:round;stroke:rgb(90.196079%,0.784314%,70.588237%);stroke-opacity:1;stroke-miterlimit:4;" d="M 8.420628 7.89371 L 7.040241 6.506609 " transform="matrix(2.909058,0,0,2.909058,0.000000000000001776,1.454711)"/>
<path style="fill-rule:nonzero;fill:rgb(90.196079%,0.784314%,70.588237%);fill-opacity:1;stroke-width:0.687508;stroke-linecap:round;stroke-linejoin:round;stroke:rgb(90.196079%,0.784314%,70.588237%);stroke-opacity:1;stroke-miterlimit:4;" d="M 7.040241 7.891024 L 8.420628 6.509294 " transform="matrix(2.909058,0,0,2.909058,0.000000000000001776,1.454711)"/>
</g>
</svg>
