<?xml version="1.0" encoding="UTF-8"?>
<svg xmlns="http://www.w3.org/2000/svg" xmlns:xlink="http://www.w3.org/1999/xlink" width="32px" height="32px" viewBox="0 0 32 32" version="1.1">
<g id="surface1">
<path style=" stroke:none;fill-rule:nonzero;fill:rgb(90.196079%,0.784314%,70.588237%);fill-opacity:1;" d="M 4 4 L 28 4 C 29.105469 4 30 4.894531 30 6 L 30 26 C 30 27.105469 29.105469 28 28 28 L 4 28 C 2.894531 28 2 27.105469 2 26 L 2 6 C 2 4.894531 2.894531 4 4 4 Z M 4 4 "/>
<path style=" stroke:none;fill-rule:nonzero;fill:rgb(94.117647%,89.019608%,92.54902%);fill-opacity:1;" d="M 6 6 L 26 6 C 27.105469 6 28 6.894531 28 8 L 28 24 C 28 25.105469 27.105469 26 26 26 L 6 26 C 4.894531 26 4 25.105469 4 24 L 4 8 C 4 6.894531 4.894531 6 6 6 Z M 6 6 "/>
<path style=" stroke:none;fill-rule:nonzero;fill:rgb(61.56863%,22.745098%,60.784316%);fill-opacity:1;" d="M 11.136719 6.269531 C 8.679688 6.277344 6.253906 6.816406 4.027344 7.855469 C 4.023438 7.90625 4 7.949219 4 8 L 4 24 C 4 25.109375 4.890625 26 6 26 L 26 26 C 27.109375 26 28 25.109375 28 24 L 28 21.808594 C 27.277344 13.03125 19.945312 6.277344 11.136719 6.269531 Z M 11.136719 6.269531 "/>
<path style=" stroke:none;fill-rule:nonzero;fill:rgb(95.294118%,71.764708%,85.09804%);fill-opacity:1;" d="M 11.136719 10.609375 C 8.585938 10.613281 6.097656 11.394531 4 12.84375 L 4 24 C 4 25.109375 4.890625 26 6 26 L 23.402344 26 C 23.617188 25.082031 23.726562 24.144531 23.730469 23.203125 C 23.730469 16.246094 18.09375 10.609375 11.136719 10.609375 Z M 11.136719 10.609375 "/>
<path style=" stroke:none;fill-rule:nonzero;fill:rgb(95.294118%,71.764708%,85.09804%);fill-opacity:1;" d="M 28 9.839844 C 24.371094 10.675781 21.800781 13.90625 21.796875 17.628906 C 21.800781 21.160156 24.117188 24.269531 27.5 25.285156 C 27.800781 24.9375 28 24.496094 28 24 Z M 28 9.839844 "/>
<path style=" stroke:none;fill-rule:nonzero;fill:rgb(94.117647%,89.019608%,92.54902%);fill-opacity:1;" d="M 27.320312 16 C 21.46875 16.007812 16.480469 20.230469 15.503906 26 L 26 26 C 27.109375 26 28 25.109375 28 24 L 28 16.035156 C 27.773438 16.015625 27.546875 16.003906 27.320312 16 Z M 27.320312 16 "/>
</g>
</svg>
