<?xml version="1.0" encoding="UTF-8"?>
<svg xmlns="http://www.w3.org/2000/svg" xmlns:xlink="http://www.w3.org/1999/xlink" width="32px" height="32px" viewBox="0 0 32 32" version="1.1">
<g id="surface1">
<path style=" stroke:none;fill-rule:nonzero;fill:rgb(95.294118%,71.764708%,85.09804%);fill-opacity:1;" d="M 22.207031 22.316406 L 26.117188 26.613281 L 21.996094 22.519531 L 25.761719 26.941406 L 21.777344 22.714844 L 25.394531 27.261719 L 21.554688 22.902344 L 25.019531 27.566406 L 21.324219 23.082031 L 24.632812 27.859375 L 21.085938 23.257812 L 24.238281 28.136719 L 20.84375 23.421875 L 23.832031 28.402344 L 20.597656 23.578125 L 23.417969 28.65625 L 20.34375 23.726562 L 22.996094 28.894531 L 20.085938 23.867188 L 22.566406 29.121094 L 19.824219 24 L 22.128906 29.332031 L 19.558594 24.121094 L 21.6875 29.527344 L 19.289062 24.234375 L 21.238281 29.710938 L 19.015625 24.339844 L 20.78125 29.875 L 18.742188 24.4375 L 20.320312 30.027344 L 18.460938 24.523438 L 19.855469 30.164062 L 18.179688 24.601562 L 19.386719 30.285156 L 17.894531 24.667969 L 18.914062 30.386719 L 17.605469 24.726562 L 18.4375 30.476562 L 17.316406 24.777344 L 17.957031 30.550781 L 17.027344 24.816406 L 17.476562 30.609375 L 16.738281 24.847656 L 16.992188 30.648438 L 16.445312 24.867188 L 16.507812 30.675781 L 16.152344 24.875 L 16.023438 30.683594 L 15.859375 24.878906 L 15.539062 30.679688 L 15.566406 24.867188 L 15.054688 30.65625 L 15.273438 24.851562 L 14.570312 30.617188 L 14.984375 24.824219 L 14.089844 30.5625 L 14.691406 24.785156 L 13.609375 30.492188 L 14.402344 24.738281 L 13.132812 30.40625 L 14.117188 24.679688 L 12.660156 30.304688 L 13.832031 24.613281 L 12.1875 30.1875 L 13.546875 24.539062 L 11.722656 30.054688 L 13.269531 24.453125 L 11.261719 29.90625 L 12.992188 24.359375 L 10.804688 29.742188 L 12.714844 24.257812 L 10.355469 29.5625 L 12.445312 24.144531 L 9.910156 29.371094 L 12.179688 24.023438 L 9.472656 29.164062 L 11.917969 23.894531 L 9.039062 28.941406 L 11.660156 23.753906 L 8.617188 28.703125 L 11.40625 23.605469 L 8.203125 28.453125 L 11.15625 23.453125 L 7.796875 28.1875 L 10.914062 23.289062 L 7.398438 27.914062 L 10.675781 23.117188 L 7.007812 27.621094 L 10.445312 22.9375 L 6.628906 27.320312 L 10.21875 22.75 L 6.261719 27.003906 L 10 22.558594 L 5.902344 26.675781 L 9.789062 22.355469 L 5.558594 26.335938 L 9.582031 22.148438 L 5.222656 25.988281 L 9.382812 21.933594 L 4.898438 25.625 L 9.191406 21.710938 L 4.585938 25.253906 L 9.007812 21.484375 L 4.289062 24.875 L 8.832031 21.25 L 4 24.480469 L 8.660156 21.011719 L 3.730469 24.082031 L 8.5 20.765625 L 3.46875 23.671875 L 8.347656 20.515625 L 3.222656 23.253906 L 8.203125 20.261719 L 2.992188 22.828125 L 8.066406 20.003906 L 2.773438 22.394531 L 7.941406 19.738281 L 2.570312 21.957031 L 7.820312 19.472656 L 2.378906 21.507812 L 7.710938 19.199219 L 2.207031 21.054688 L 7.613281 18.925781 L 2.046875 20.597656 L 7.519531 18.648438 L 1.902344 20.136719 L 7.4375 18.367188 L 1.777344 19.667969 L 7.367188 18.082031 L 1.664062 19.195312 L 7.300781 17.796875 L 1.566406 18.722656 L 7.25 17.507812 L 1.484375 18.242188 L 7.203125 17.21875 L 1.417969 17.761719 L 7.167969 16.929688 L 1.371094 17.28125 L 7.144531 16.636719 L 1.335938 16.796875 L 7.128906 16.34375 L 1.320312 16.3125 L 7.121094 16.050781 L 1.316406 15.828125 L 7.125 15.757812 L 1.332031 15.34375 L 7.140625 15.464844 L 1.363281 14.859375 L 7.164062 15.175781 L 1.410156 14.375 L 7.195312 14.882812 L 1.472656 13.894531 L 7.238281 14.59375 L 1.550781 13.417969 L 7.289062 14.304688 L 1.644531 12.941406 L 7.351562 14.019531 L 1.753906 12.46875 L 7.421875 13.734375 L 1.878906 12 L 7.503906 13.453125 L 2.019531 11.535156 L 7.59375 13.175781 L 2.175781 11.078125 L 7.691406 12.898438 L 2.347656 10.625 L 7.800781 12.625 L 2.53125 10.175781 L 7.917969 12.359375 L 2.734375 9.734375 L 8.042969 12.09375 L 2.949219 9.300781 L 8.175781 11.832031 L 3.175781 8.875 L 8.320312 11.578125 L 3.421875 8.453125 L 8.46875 11.328125 L 3.679688 8.042969 L 8.628906 11.082031 L 3.949219 7.640625 L 8.796875 10.839844 L 4.230469 7.246094 L 8.972656 10.605469 L 4.527344 6.863281 L 9.15625 10.378906 L 4.839844 6.492188 L 9.347656 10.15625 L 5.160156 6.128906 L 9.542969 9.9375 L 5.492188 5.773438 L 9.75 9.730469 L 5.835938 5.433594 L 9.960938 9.527344 L 6.191406 5.105469 L 10.179688 9.332031 L 6.558594 4.785156 L 10.402344 9.144531 L 6.9375 4.480469 L 10.632812 8.964844 L 7.320312 4.1875 L 10.867188 8.789062 L 7.71875 3.910156 L 11.109375 8.625 L 8.125 3.644531 L 11.359375 8.46875 L 8.535156 3.390625 L 11.609375 8.320312 L 8.957031 3.152344 L 11.867188 8.179688 L 9.386719 2.925781 L 12.128906 8.046875 L 9.824219 2.714844 L 12.394531 7.925781 L 10.269531 2.519531 L 12.664062 7.8125 L 10.71875 2.335938 L 12.9375 7.707031 L 11.171875 2.171875 L 13.214844 7.609375 L 11.632812 2.019531 L 13.496094 7.523438 L 12.097656 1.882812 L 13.777344 7.445312 L 12.570312 1.761719 L 14.0625 7.378906 L 13.042969 1.660156 L 14.347656 7.320312 L 13.519531 1.570312 L 14.636719 7.269531 L 13.996094 1.496094 L 14.925781 7.230469 L 14.480469 1.4375 L 15.21875 7.199219 L 14.960938 1.398438 L 15.511719 7.179688 L 15.445312 1.371094 L 15.804688 7.171875 L 15.929688 1.363281 L 16.097656 7.167969 L 16.417969 1.367188 L 16.390625 7.179688 L 16.902344 1.390625 L 16.679688 7.195312 L 17.382812 1.429688 L 16.972656 7.222656 L 17.867188 1.484375 L 17.261719 7.261719 L 18.34375 1.554688 L 17.550781 7.308594 L 18.824219 1.640625 L 17.839844 7.367188 L 19.296875 1.742188 L 18.125 7.433594 L 19.765625 1.859375 L 18.40625 7.507812 L 20.234375 1.992188 L 18.6875 7.59375 L 20.695312 2.140625 L 18.964844 7.6875 L 21.152344 2.304688 L 19.238281 7.789062 L 21.601562 2.484375 L 19.507812 7.902344 L 22.046875 2.675781 L 19.777344 8.023438 L 22.484375 2.882812 L 20.039062 8.152344 L 22.914062 3.105469 L 20.296875 8.292969 L 23.339844 3.34375 L 20.550781 8.441406 L 23.753906 3.59375 L 20.796875 8.59375 L 24.160156 3.855469 L 21.039062 8.757812 L 24.558594 4.132812 L 21.277344 8.929688 L 24.945312 4.425781 L 21.507812 9.109375 L 25.324219 4.726562 L 21.734375 9.296875 L 25.695312 5.042969 L 21.953125 9.488281 L 26.050781 5.371094 L 22.167969 9.691406 L 26.398438 5.707031 L 22.375 9.898438 L 26.734375 6.058594 L 22.570312 10.113281 L 27.058594 6.421875 L 22.765625 10.335938 L 27.367188 6.792969 L 22.949219 10.5625 L 27.667969 7.171875 L 23.125 10.796875 L 27.953125 7.566406 L 23.292969 11.035156 L 28.226562 7.964844 L 23.453125 11.28125 L 28.488281 8.375 L 23.609375 11.53125 L 28.734375 8.792969 L 23.753906 11.785156 L 28.964844 9.21875 L 23.886719 12.042969 L 29.183594 9.652344 L 24.015625 12.308594 L 29.386719 10.089844 L 24.132812 12.574219 L 29.574219 10.539062 L 24.242188 12.847656 L 29.75 10.992188 L 24.34375 13.121094 L 29.90625 11.449219 L 24.433594 13.398438 L 30.050781 11.910156 L 24.515625 13.679688 L 30.179688 12.378906 L 24.589844 13.964844 L 30.292969 12.851562 L 24.652344 14.25 L 30.390625 13.324219 L 24.707031 14.539062 L 30.46875 13.804688 L 24.75 14.828125 L 30.535156 14.285156 L 24.785156 15.117188 L 30.585938 14.765625 L 24.8125 15.410156 L 30.621094 15.25 L 24.828125 15.703125 L 30.636719 15.734375 L 24.832031 15.996094 L 30.636719 16.21875 L 24.828125 16.289062 L 30.625 16.703125 L 24.816406 16.582031 L 30.59375 17.1875 L 24.792969 16.871094 L 30.546875 17.671875 L 24.757812 17.164062 L 30.484375 18.152344 L 24.714844 17.453125 L 30.40625 18.628906 L 24.664062 17.742188 L 30.3125 19.105469 L 24.601562 18.027344 L 30.203125 19.578125 L 24.53125 18.3125 L 30.078125 20.046875 L 24.453125 18.59375 L 29.9375 20.511719 L 24.363281 18.871094 L 29.78125 20.96875 L 24.261719 19.148438 L 29.609375 21.421875 L 24.15625 19.417969 L 29.421875 21.871094 L 24.039062 19.6875 L 29.222656 22.3125 L 23.914062 19.953125 L 29.007812 22.746094 L 23.777344 20.214844 L 28.777344 23.171875 L 23.636719 20.46875 L 28.535156 23.59375 L 23.484375 20.71875 L 28.277344 24.003906 L 23.324219 20.964844 L 28.007812 24.40625 L 23.15625 21.207031 L 27.722656 24.800781 L 22.984375 21.441406 L 27.425781 25.183594 L 22.800781 21.667969 L 27.117188 25.554688 L 22.609375 21.890625 L 26.796875 25.917969 L 22.410156 22.105469 L 26.464844 26.273438 Z M 22.207031 22.316406 "/>
<path style=" stroke:none;fill-rule:nonzero;fill:rgb(61.56863%,22.745098%,60.784316%);fill-opacity:1;" d="M 20.671875 23.53125 L 23.542969 28.582031 L 20.421875 23.683594 L 23.121094 28.828125 L 20.164062 23.824219 L 22.695312 29.054688 L 19.902344 23.960938 L 22.261719 29.269531 L 19.640625 24.085938 L 21.820312 29.472656 L 19.371094 24.203125 L 21.371094 29.65625 L 19.097656 24.308594 L 20.917969 29.828125 L 18.824219 24.410156 L 20.457031 29.984375 L 18.542969 24.5 L 19.996094 30.125 L 18.261719 24.578125 L 19.527344 30.25 L 17.976562 24.648438 L 19.054688 30.359375 L 17.691406 24.710938 L 18.578125 30.453125 L 17.402344 24.761719 L 18.101562 30.53125 L 17.113281 24.804688 L 17.617188 30.59375 L 16.824219 24.839844 L 17.136719 30.640625 L 16.53125 24.859375 L 16.652344 30.667969 L 16.238281 24.875 L 16.167969 30.683594 L 15.945312 24.878906 L 15.683594 30.683594 L 15.652344 24.871094 L 15.199219 30.664062 L 15.359375 24.855469 L 14.714844 30.628906 L 15.070312 24.832031 L 14.230469 30.582031 L 14.777344 24.796875 L 13.753906 30.515625 L 14.488281 24.753906 L 13.273438 30.433594 L 14.199219 24.699219 L 12.800781 30.335938 L 13.914062 24.636719 L 12.328125 30.222656 L 13.632812 24.5625 L 11.859375 30.09375 L 13.351562 24.480469 L 11.398438 29.953125 L 13.074219 24.386719 L 10.9375 29.792969 L 12.796875 24.289062 L 10.488281 29.617188 L 12.527344 24.179688 L 10.039062 29.429688 L 12.257812 24.058594 L 9.601562 29.226562 L 11.996094 23.933594 L 9.167969 29.007812 L 11.734375 23.796875 L 8.742188 28.773438 L 11.480469 23.652344 L 8.324219 28.527344 L 11.230469 23.5 L 7.914062 28.269531 L 10.984375 23.335938 L 7.515625 27.996094 L 10.746094 23.167969 L 7.121094 27.710938 L 10.515625 22.992188 L 6.742188 27.410156 L 10.285156 22.808594 L 6.371094 27.097656 L 10.066406 22.617188 L 6.007812 26.773438 L 9.851562 22.417969 L 5.660156 26.4375 L 9.640625 22.210938 L 5.320312 26.09375 L 9.441406 21.996094 L 4.992188 25.734375 L 9.246094 21.777344 L 4.679688 25.367188 L 9.0625 21.550781 L 4.375 24.988281 L 8.882812 21.320312 L 4.085938 24.597656 L 8.710938 21.082031 L 3.808594 24.199219 L 8.546875 20.839844 L 3.542969 23.792969 L 8.390625 20.589844 L 3.292969 23.378906 L 8.246094 20.339844 L 3.058594 22.957031 L 8.105469 20.082031 L 2.835938 22.523438 L 7.976562 19.816406 L 2.628906 22.085938 L 7.855469 19.550781 L 2.433594 21.640625 L 7.742188 19.28125 L 2.257812 21.191406 L 7.640625 19.007812 L 2.09375 20.734375 L 7.546875 18.730469 L 1.945312 20.273438 L 7.460938 18.449219 L 1.8125 19.804688 L 7.386719 18.167969 L 1.695312 19.335938 L 7.320312 17.882812 L 1.59375 18.863281 L 7.261719 17.59375 L 1.507812 18.386719 L 7.214844 17.304688 L 1.4375 17.90625 L 7.179688 17.015625 L 1.382812 17.421875 L 7.148438 16.722656 L 1.34375 16.941406 L 7.132812 16.429688 L 1.320312 16.457031 L 7.125 16.136719 L 1.316406 15.972656 L 7.125 15.84375 L 1.324219 15.484375 L 7.136719 15.550781 L 1.351562 15 L 7.15625 15.261719 L 1.394531 14.519531 L 7.1875 14.96875 L 1.449219 14.039062 L 7.226562 14.679688 L 1.523438 13.558594 L 7.273438 14.390625 L 1.613281 13.082031 L 7.332031 14.105469 L 1.71875 12.609375 L 7.402344 13.820312 L 1.839844 12.140625 L 7.480469 13.535156 L 1.976562 11.671875 L 7.566406 13.257812 L 2.128906 11.214844 L 7.660156 12.980469 L 2.292969 10.757812 L 7.765625 12.707031 L 2.476562 10.308594 L 7.882812 12.4375 L 2.671875 9.863281 L 8.003906 12.171875 L 2.882812 9.429688 L 8.136719 11.910156 L 3.109375 9 L 8.277344 11.652344 L 3.347656 8.578125 L 8.425781 11.402344 L 3.601562 8.164062 L 8.582031 11.152344 L 3.867188 7.757812 L 8.746094 10.910156 L 4.148438 7.363281 L 8.921875 10.675781 L 4.441406 6.976562 L 9.101562 10.445312 L 4.746094 6.601562 L 9.289062 10.21875 L 5.0625 6.234375 L 9.484375 10.003906 L 5.390625 5.878906 L 9.6875 9.792969 L 5.734375 5.535156 L 9.894531 9.585938 L 6.085938 5.199219 L 10.113281 9.390625 L 6.449219 4.878906 L 10.335938 9.199219 L 6.824219 4.570312 L 10.5625 9.015625 L 7.207031 4.273438 L 10.796875 8.839844 L 7.601562 3.992188 L 11.039062 8.671875 L 8.003906 3.71875 L 11.285156 8.515625 L 8.414062 3.464844 L 11.535156 8.363281 L 8.832031 3.21875 L 11.792969 8.21875 L 9.261719 2.992188 L 12.050781 8.085938 L 9.695312 2.777344 L 12.316406 7.960938 L 10.136719 2.574219 L 12.585938 7.84375 L 10.585938 2.390625 L 12.855469 7.738281 L 11.039062 2.21875 L 13.132812 7.636719 L 11.496094 2.0625 L 13.410156 7.546875 L 11.960938 1.921875 L 13.691406 7.46875 L 12.429688 1.796875 L 13.976562 7.398438 L 12.902344 1.6875 L 14.261719 7.335938 L 13.378906 1.59375 L 14.550781 7.285156 L 13.855469 1.515625 L 14.839844 7.242188 L 14.335938 1.453125 L 15.132812 7.207031 L 14.820312 1.40625 L 15.425781 7.1875 L 15.304688 1.375 L 15.714844 7.171875 L 15.789062 1.363281 L 16.007812 7.167969 L 16.273438 1.363281 L 16.300781 7.175781 L 16.757812 1.382812 L 16.59375 7.191406 L 17.242188 1.414062 L 16.886719 7.214844 L 17.722656 1.464844 L 17.175781 7.25 L 18.203125 1.53125 L 17.464844 7.292969 L 18.679688 1.613281 L 17.753906 7.347656 L 19.15625 1.710938 L 18.039062 7.410156 L 19.628906 1.824219 L 18.324219 7.484375 L 20.09375 1.953125 L 18.605469 7.566406 L 20.558594 2.09375 L 18.882812 7.660156 L 21.015625 2.253906 L 19.15625 7.757812 L 21.46875 2.429688 L 19.429688 7.867188 L 21.914062 2.617188 L 19.695312 7.988281 L 22.355469 2.820312 L 19.960938 8.113281 L 22.789062 3.039062 L 20.21875 8.25 L 23.214844 3.269531 L 20.476562 8.394531 L 23.632812 3.519531 L 20.722656 8.546875 L 24.039062 3.777344 L 20.96875 8.710938 L 24.441406 4.050781 L 21.207031 8.878906 L 24.832031 4.335938 L 21.441406 9.054688 L 25.214844 4.636719 L 21.667969 9.238281 L 25.585938 4.949219 L 21.890625 9.429688 L 25.945312 5.273438 L 22.105469 9.628906 L 26.296875 5.605469 L 22.3125 9.835938 L 26.636719 5.953125 L 22.515625 10.050781 L 26.960938 6.3125 L 22.707031 10.269531 L 27.277344 6.679688 L 22.894531 10.496094 L 27.582031 7.058594 L 23.074219 10.726562 L 27.871094 7.449219 L 23.246094 10.964844 L 28.148438 7.84375 L 23.40625 11.207031 L 28.410156 8.253906 L 23.5625 11.453125 L 28.660156 8.667969 L 23.710938 11.707031 L 28.898438 9.089844 L 23.847656 11.964844 L 29.121094 9.523438 L 23.980469 12.230469 L 29.328125 9.960938 L 24.101562 12.496094 L 29.519531 10.40625 L 24.210938 12.765625 L 29.699219 10.855469 L 24.316406 13.039062 L 29.863281 11.3125 L 24.410156 13.316406 L 30.011719 11.773438 L 24.492188 13.597656 L 30.144531 12.238281 L 24.570312 13.878906 L 30.261719 12.710938 L 24.636719 14.164062 L 30.363281 13.183594 L 24.691406 14.453125 L 30.449219 13.660156 L 24.738281 14.742188 L 30.519531 14.140625 L 24.777344 15.03125 L 30.574219 14.625 L 24.804688 15.324219 L 30.609375 15.105469 L 24.824219 15.617188 L 30.632812 15.589844 L 24.832031 15.910156 L 30.640625 16.074219 L 24.832031 16.203125 L 30.628906 16.558594 L 24.820312 16.492188 L 30.605469 17.042969 L 24.800781 16.785156 L 30.5625 17.527344 L 24.769531 17.078125 L 30.503906 18.007812 L 24.730469 17.367188 L 30.429688 18.488281 L 24.679688 17.65625 L 30.339844 18.964844 L 24.621094 17.941406 L 30.238281 19.4375 L 24.554688 18.226562 L 30.117188 19.90625 L 24.476562 18.511719 L 29.980469 20.375 L 24.390625 18.789062 L 29.828125 20.832031 L 24.292969 19.066406 L 29.660156 21.289062 L 24.1875 19.339844 L 29.480469 21.738281 L 24.074219 19.609375 L 29.285156 22.183594 L 23.949219 19.875 L 29.074219 22.617188 L 23.820312 20.136719 L 28.847656 23.046875 L 23.679688 20.394531 L 28.609375 23.46875 L 23.53125 20.644531 L 28.355469 23.882812 L 23.375 20.894531 L 28.089844 24.289062 L 23.207031 21.136719 L 27.808594 24.683594 L 23.035156 21.371094 L 27.515625 25.070312 L 22.855469 21.601562 L 27.210938 25.445312 L 22.667969 21.824219 L 26.890625 25.8125 L 22.472656 22.042969 L 26.5625 26.167969 L 22.269531 22.253906 L 26.222656 26.511719 L 22.058594 22.460938 L 25.871094 26.847656 L 21.84375 22.65625 L 25.507812 27.167969 L 21.621094 22.847656 L 25.132812 27.476562 L 21.390625 23.03125 L 24.75 27.773438 L 21.15625 23.207031 L 24.355469 28.054688 L 20.917969 23.375 L 23.953125 28.328125 Z M 20.671875 23.53125 "/>
<path style=" stroke:none;fill-rule:nonzero;fill:rgb(90.196079%,0.784314%,70.588237%);fill-opacity:1;" d="M 21.320312 23.085938 L 24.625 27.863281 L 21.082031 23.257812 L 24.230469 28.140625 L 20.839844 23.421875 L 23.824219 28.410156 L 20.59375 23.582031 L 23.410156 28.660156 L 20.339844 23.730469 L 22.988281 28.898438 L 20.082031 23.867188 L 22.558594 29.125 L 19.820312 24 L 22.125 29.335938 L 19.554688 24.125 L 21.679688 29.53125 L 19.285156 24.238281 L 21.230469 29.710938 L 19.011719 24.34375 L 20.773438 29.878906 L 18.734375 24.4375 L 20.3125 30.03125 L 18.457031 24.523438 L 19.847656 30.164062 L 18.175781 24.601562 L 19.378906 30.285156 L 17.890625 24.667969 L 18.90625 30.390625 L 17.601562 24.726562 L 18.429688 30.480469 L 17.3125 24.777344 L 17.949219 30.550781 L 17.023438 24.816406 L 17.46875 30.609375 L 16.730469 24.847656 L 16.984375 30.652344 L 16.441406 24.867188 L 16.5 30.675781 L 16.148438 24.875 L 16.015625 30.683594 L 15.855469 24.878906 L 15.53125 30.679688 L 15.5625 24.867188 L 15.046875 30.65625 L 15.269531 24.851562 L 14.5625 30.617188 L 14.976562 24.820312 L 14.082031 30.5625 L 14.6875 24.785156 L 13.601562 30.492188 L 14.398438 24.738281 L 13.125 30.40625 L 14.113281 24.679688 L 12.652344 30.304688 L 13.828125 24.613281 L 12.179688 30.183594 L 13.542969 24.539062 L 11.714844 30.050781 L 13.261719 24.453125 L 11.253906 29.902344 L 12.984375 24.359375 L 10.796875 29.738281 L 12.710938 24.253906 L 10.347656 29.5625 L 12.441406 24.140625 L 9.902344 29.367188 L 12.175781 24.019531 L 9.464844 29.160156 L 11.914062 23.890625 L 9.03125 28.9375 L 11.65625 23.75 L 8.609375 28.699219 L 11.402344 23.605469 L 8.195312 28.449219 L 11.152344 23.449219 L 7.789062 28.183594 L 10.910156 23.285156 L 7.390625 27.90625 L 10.671875 23.113281 L 7.003906 27.617188 L 10.441406 22.933594 L 6.625 27.3125 L 10.214844 22.746094 L 6.253906 27 L 9.996094 22.554688 L 5.898438 26.671875 L 9.785156 22.351562 L 5.550781 26.332031 L 9.578125 22.144531 L 5.214844 25.980469 L 9.378906 21.929688 L 4.894531 25.621094 L 9.1875 21.707031 L 4.582031 25.25 L 9.003906 21.480469 L 4.28125 24.867188 L 8.828125 21.246094 L 3.996094 24.476562 L 8.660156 21.007812 L 3.722656 24.074219 L 8.496094 20.761719 L 3.464844 23.664062 L 8.34375 20.511719 L 3.21875 23.246094 L 8.199219 20.257812 L 2.988281 22.820312 L 8.066406 20 L 2.769531 22.386719 L 7.9375 19.734375 L 2.566406 21.949219 L 7.820312 19.46875 L 2.378906 21.5 L 7.710938 19.195312 L 2.203125 21.046875 L 7.609375 18.921875 L 2.046875 20.589844 L 7.519531 18.640625 L 1.902344 20.128906 L 7.4375 18.359375 L 1.773438 19.660156 L 7.363281 18.078125 L 1.660156 19.1875 L 7.300781 17.792969 L 1.566406 18.710938 L 7.246094 17.503906 L 1.484375 18.234375 L 7.203125 17.214844 L 1.417969 17.753906 L 7.167969 16.921875 L 1.367188 17.273438 L 7.144531 16.632812 L 1.335938 16.789062 L 7.128906 16.339844 L 1.320312 16.304688 L 7.121094 16.046875 L 1.316406 15.820312 L 7.125 15.753906 L 1.332031 15.335938 L 7.140625 15.460938 L 1.363281 14.851562 L 7.164062 15.167969 L 1.410156 14.367188 L 7.195312 14.878906 L 1.472656 13.886719 L 7.238281 14.589844 L 1.550781 13.410156 L 7.292969 14.300781 L 1.644531 12.933594 L 7.355469 14.015625 L 1.753906 12.460938 L 7.425781 13.730469 L 1.878906 11.992188 L 7.503906 13.449219 L 2.023438 11.527344 L 7.59375 13.167969 L 2.179688 11.070312 L 7.695312 12.894531 L 2.347656 10.617188 L 7.800781 12.621094 L 2.535156 10.167969 L 7.917969 12.355469 L 2.738281 9.726562 L 8.042969 12.089844 L 2.953125 9.292969 L 8.179688 11.828125 L 3.179688 8.867188 L 8.320312 11.574219 L 3.425781 8.445312 L 8.472656 11.324219 L 3.683594 8.035156 L 8.632812 11.078125 L 3.953125 7.632812 L 8.800781 10.835938 L 4.238281 7.242188 L 8.976562 10.601562 L 4.535156 6.859375 L 9.160156 10.375 L 4.84375 6.484375 L 9.347656 10.152344 L 5.164062 6.121094 L 9.546875 9.9375 L 5.5 5.769531 L 9.75 9.726562 L 5.84375 5.429688 L 9.964844 9.523438 L 6.199219 5.097656 L 10.179688 9.328125 L 6.566406 4.78125 L 10.40625 9.140625 L 6.941406 4.476562 L 10.636719 8.960938 L 7.328125 4.183594 L 10.875 8.789062 L 7.726562 3.90625 L 11.113281 8.621094 L 8.128906 3.636719 L 11.363281 8.464844 L 8.542969 3.386719 L 11.613281 8.316406 L 8.964844 3.148438 L 11.871094 8.175781 L 9.394531 2.921875 L 12.132812 8.046875 L 9.832031 2.710938 L 12.398438 7.921875 L 10.277344 2.515625 L 12.667969 7.808594 L 10.726562 2.335938 L 12.941406 7.703125 L 11.179688 2.167969 L 13.21875 7.609375 L 11.640625 2.015625 L 13.5 7.523438 L 12.105469 1.882812 L 13.78125 7.445312 L 12.578125 1.761719 L 14.066406 7.378906 L 13.050781 1.65625 L 14.351562 7.320312 L 13.527344 1.566406 L 14.640625 7.269531 L 14.007812 1.496094 L 14.933594 7.230469 L 14.488281 1.4375 L 15.222656 7.199219 L 14.96875 1.394531 L 15.515625 7.179688 L 15.453125 1.371094 L 15.808594 7.167969 L 15.941406 1.363281 L 16.101562 7.167969 L 16.425781 1.367188 L 16.394531 7.179688 L 16.910156 1.390625 L 16.6875 7.195312 L 17.390625 1.429688 L 16.976562 7.226562 L 17.875 1.484375 L 17.269531 7.261719 L 18.351562 1.554688 L 17.558594 7.308594 L 18.832031 1.640625 L 17.84375 7.367188 L 19.304688 1.742188 L 18.128906 7.433594 L 19.773438 1.863281 L 18.410156 7.507812 L 20.242188 1.996094 L 18.691406 7.59375 L 20.703125 2.144531 L 18.96875 7.6875 L 21.160156 2.308594 L 19.242188 7.792969 L 21.609375 2.484375 L 19.511719 7.90625 L 22.054688 2.679688 L 19.78125 8.027344 L 22.492188 2.886719 L 20.042969 8.15625 L 22.921875 3.109375 L 20.300781 8.296875 L 23.34375 3.347656 L 20.554688 8.441406 L 23.761719 3.597656 L 20.800781 8.597656 L 24.167969 3.863281 L 21.042969 8.761719 L 24.566406 4.140625 L 21.28125 8.933594 L 24.953125 4.429688 L 21.511719 9.113281 L 25.332031 4.734375 L 21.738281 9.296875 L 25.699219 5.046875 L 21.957031 9.492188 L 26.058594 5.375 L 22.171875 9.695312 L 26.402344 5.714844 L 22.375 9.902344 L 26.738281 6.066406 L 22.574219 10.117188 L 27.0625 6.425781 L 22.765625 10.339844 L 27.375 6.796875 L 22.953125 10.566406 L 27.671875 7.179688 L 23.128906 10.800781 L 27.957031 7.570312 L 23.296875 11.039062 L 28.230469 7.972656 L 23.457031 11.285156 L 28.492188 8.382812 L 23.609375 11.535156 L 28.738281 8.800781 L 23.753906 11.789062 L 28.96875 9.226562 L 23.890625 12.046875 L 29.1875 9.660156 L 24.015625 12.3125 L 29.390625 10.097656 L 24.136719 12.578125 L 29.578125 10.546875 L 24.246094 12.851562 L 29.75 11 L 24.34375 13.125 L 29.910156 11.457031 L 24.4375 13.40625 L 30.054688 11.917969 L 24.519531 13.6875 L 30.179688 12.386719 L 24.589844 13.96875 L 30.292969 12.859375 L 24.65625 14.253906 L 30.390625 13.332031 L 24.707031 14.542969 L 30.472656 13.8125 L 24.753906 14.832031 L 30.535156 14.292969 L 24.785156 15.125 L 30.585938 14.773438 L 24.8125 15.414062 L 30.621094 15.257812 L 24.828125 15.707031 L 30.636719 15.742188 L 24.832031 16 L 30.636719 16.226562 L 24.828125 16.292969 L 30.625 16.710938 L 24.816406 16.585938 L 30.59375 17.195312 L 24.792969 16.878906 L 30.546875 17.679688 L 24.757812 17.167969 L 30.484375 18.160156 L 24.714844 17.457031 L 30.40625 18.636719 L 24.664062 17.746094 L 30.308594 19.113281 L 24.601562 18.03125 L 30.199219 19.585938 L 24.53125 18.316406 L 30.074219 20.054688 L 24.449219 18.597656 L 29.933594 20.519531 L 24.359375 18.875 L 29.777344 20.976562 L 24.261719 19.152344 L 29.605469 21.429688 L 24.152344 19.425781 L 29.421875 21.878906 L 24.035156 19.691406 L 29.21875 22.320312 L 23.910156 19.957031 L 29.003906 22.753906 L 23.777344 20.21875 L 28.773438 23.179688 L 23.632812 20.472656 L 28.53125 23.601562 L 23.480469 20.722656 L 28.273438 24.011719 L 23.324219 20.96875 L 28.003906 24.414062 L 23.15625 21.210938 L 27.71875 24.804688 L 22.980469 21.445312 L 27.421875 25.1875 L 22.796875 21.671875 L 27.113281 25.5625 L 22.605469 21.894531 L 26.789062 25.925781 L 22.410156 22.109375 L 26.457031 26.277344 L 22.203125 22.320312 L 26.113281 26.617188 L 21.992188 22.523438 L 25.757812 26.949219 L 21.773438 22.71875 L 25.390625 27.265625 L 21.550781 22.90625 L 25.011719 27.570312 Z M 21.320312 23.085938 "/>
<path style=" stroke:none;fill-rule:nonzero;fill:rgb(90.196079%,0.784314%,70.588237%);fill-opacity:1;" d="M 25.476562 16.023438 C 25.476562 21.269531 21.222656 25.523438 15.976562 25.523438 C 10.730469 25.523438 6.476562 21.269531 6.476562 16.023438 C 6.476562 10.773438 10.730469 6.523438 15.976562 6.523438 C 21.222656 6.523438 25.476562 10.773438 25.476562 16.023438 Z M 25.476562 16.023438 "/>
</g>
</svg>
