<?xml version="1.0" encoding="UTF-8"?>
<svg xmlns="http://www.w3.org/2000/svg" xmlns:xlink="http://www.w3.org/1999/xlink" width="32px" height="32px" viewBox="0 0 32 32" version="1.1">
<g id="surface1">
<path style=" stroke:none;fill-rule:nonzero;fill:rgb(95.294118%,71.764708%,85.09804%);fill-opacity:1;" d="M 4 2 L 28 2 C 29.105469 2 30 2.894531 30 4 L 30 28 C 30 29.105469 29.105469 30 28 30 L 4 30 C 2.894531 30 2 29.105469 2 28 L 2 4 C 2 2.894531 2.894531 2 4 2 Z M 4 2 "/>
<path style=" stroke:none;fill-rule:nonzero;fill:rgb(94.117647%,89.019608%,92.54902%);fill-opacity:1;" d="M 5 5 L 5 27 L 27 27 L 27 5 Z M 5 5 "/>
<path style=" stroke:none;fill-rule:nonzero;fill:rgb(95.294118%,71.764708%,85.09804%);fill-opacity:1;" d="M 11 9 L 21 9 C 22.105469 9 23 9.894531 23 11 L 23 21 C 23 22.105469 22.105469 23 21 23 L 11 23 C 9.894531 23 9 22.105469 9 21 L 9 11 C 9 9.894531 9.894531 9 11 9 Z M 11 9 "/>
<path style=" stroke:none;fill-rule:evenodd;fill:rgb(90.196079%,0.784314%,70.588237%);fill-opacity:1;" d="M 29.414062 2.585938 L 28 4 L 28 28 L 4 28 L 2.585938 29.414062 C 2.949219 29.777344 3.445312 30 4 30 L 28 30 C 29.109375 30 30 29.109375 30 28 L 30 4 C 30 3.445312 29.777344 2.949219 29.414062 2.585938 Z M 29.414062 2.585938 "/>
<path style=" stroke:none;fill-rule:evenodd;fill:rgb(90.196079%,0.784314%,70.588237%);fill-opacity:1;" d="M 22.414062 9.585938 L 21 11 L 21 21 L 11 21 L 9.585938 22.414062 C 9.949219 22.777344 10.445312 23 11 23 L 21 23 C 22.109375 23 23 22.109375 23 21 L 23 11 C 23 10.445312 22.777344 9.949219 22.414062 9.585938 Z M 22.414062 9.585938 "/>
</g>
</svg>
