<?xml version="1.0" encoding="UTF-8"?>
<svg xmlns="http://www.w3.org/2000/svg" xmlns:xlink="http://www.w3.org/1999/xlink" width="32px" height="32px" viewBox="0 0 32 32" version="1.1">
<defs>
<filter id="alpha" filterUnits="objectBoundingBox" x="0%" y="0%" width="100%" height="100%">
  <feColorMatrix type="matrix" in="SourceGraphic" values="0 0 0 0 1 0 0 0 0 1 0 0 0 0 1 0 0 0 1 0"/>
</filter>
<mask id="mask0">
  <g filter="url(#alpha)">
<rect x="0" y="0" width="32" height="32" style="fill:rgb(0%,0%,0%);fill-opacity:0.77;stroke:none;"/>
  </g>
</mask>
<clipPath id="clip1">
  <rect x="0" y="0" width="32" height="32"/>
</clipPath>
<g id="surface5" clip-path="url(#clip1)">
<path style=" stroke:none;fill-rule:nonzero;fill:rgb(90.196079%,0.784314%,70.588237%);fill-opacity:1;" d="M 19.355469 21.375 C 19.355469 26.195312 15.449219 30.101562 10.625 30.101562 C 5.804688 30.101562 1.898438 26.195312 1.898438 21.375 C 1.898438 16.550781 5.804688 12.644531 10.625 12.644531 C 15.449219 12.644531 19.355469 16.550781 19.355469 21.375 Z M 19.355469 21.375 "/>
</g>
<mask id="mask1">
  <g filter="url(#alpha)">
<rect x="0" y="0" width="32" height="32" style="fill:rgb(0%,0%,0%);fill-opacity:0.77;stroke:none;"/>
  </g>
</mask>
<clipPath id="clip2">
  <rect x="0" y="0" width="32" height="32"/>
</clipPath>
<g id="surface8" clip-path="url(#clip2)">
<path style=" stroke:none;fill-rule:nonzero;fill:rgb(95.294118%,71.764708%,85.09804%);fill-opacity:1;" d="M 29.832031 21.375 C 29.832031 26.195312 25.921875 30.101562 21.101562 30.101562 C 16.28125 30.101562 12.375 26.195312 12.375 21.375 C 12.375 16.550781 16.28125 12.644531 21.101562 12.644531 C 25.921875 12.644531 29.832031 16.550781 29.832031 21.375 Z M 29.832031 21.375 "/>
</g>
<mask id="mask2">
  <g filter="url(#alpha)">
<rect x="0" y="0" width="32" height="32" style="fill:rgb(0%,0%,0%);fill-opacity:0.77;stroke:none;"/>
  </g>
</mask>
<clipPath id="clip3">
  <rect x="0" y="0" width="32" height="32"/>
</clipPath>
<g id="surface11" clip-path="url(#clip3)">
<path style=" stroke:none;fill-rule:nonzero;fill:rgb(61.56863%,22.745098%,60.784316%);fill-opacity:1;" d="M 24.59375 10.898438 C 24.59375 15.71875 20.683594 19.625 15.863281 19.625 C 11.042969 19.625 7.136719 15.71875 7.136719 10.898438 C 7.136719 6.078125 11.042969 2.167969 15.863281 2.167969 C 20.683594 2.167969 24.59375 6.078125 24.59375 10.898438 Z M 24.59375 10.898438 "/>
</g>
</defs>
<g id="surface1">
<use xlink:href="#surface5" mask="url(#mask0)"/>
<use xlink:href="#surface8" mask="url(#mask1)"/>
<use xlink:href="#surface11" mask="url(#mask2)"/>
</g>
</svg>
