<?xml version="1.0" encoding="UTF-8"?>
<svg xmlns="http://www.w3.org/2000/svg" xmlns:xlink="http://www.w3.org/1999/xlink" width="32px" height="32px" viewBox="0 0 32 32" version="1.1">
<g id="surface1">
<path style=" stroke:none;fill-rule:evenodd;fill:rgb(90.196079%,0.784314%,70.588237%);fill-opacity:1;" d="M 8.117188 21.179688 L 8.117188 22.117188 L 9.058594 22.117188 L 10 23.058594 L 10.941406 23.058594 L 10.941406 21.179688 L 9.058594 20.238281 Z M 8.117188 21.179688 "/>
<path style=" stroke:none;fill-rule:evenodd;fill:rgb(90.196079%,0.784314%,70.588237%);fill-opacity:1;" d="M 9.058594 22.117188 L 9.058594 23.058594 L 8.117188 23.058594 L 8.117188 25.882812 L 9.058594 24.941406 C 9.058594 24.941406 10 24 10 24 L 10 23.058594 Z M 9.058594 22.117188 "/>
<path style=" stroke:none;fill-rule:evenodd;fill:rgb(90.196079%,0.784314%,70.588237%);fill-opacity:1;" d="M 10.941406 22.117188 L 11.882812 23.058594 L 12.820312 22.117188 L 14.390625 20.550781 L 11.253906 19.296875 L 10.941406 21.179688 Z M 10.941406 22.117188 "/>
<path style=" stroke:none;fill-rule:evenodd;fill:rgb(90.196079%,0.784314%,70.588237%);fill-opacity:1;" d="M 8.121094 24 L 7.179688 24.941406 L 7.179688 25.882812 L 5.296875 26.820312 C 5.296875 27.761719 6.238281 27.761719 6.238281 27.761719 L 6.847656 28.375 L 7.34375 28.375 L 8.121094 26.820312 Z M 8.121094 24 "/>
<path style=" stroke:none;fill-rule:evenodd;fill:rgb(90.196079%,0.784314%,70.588237%);fill-opacity:1;" d="M 8.117188 25.882812 L 10 25.882812 L 10.941406 24.941406 L 10 24 Z M 8.117188 25.882812 "/>
<path style=" stroke:none;fill-rule:evenodd;fill:rgb(90.196079%,0.784314%,70.588237%);fill-opacity:1;" d="M 11.882812 24.941406 L 11.882812 26.820312 L 12.820312 26.820312 L 12.820312 24.941406 Z M 11.882812 24.941406 "/>
<path style=" stroke:none;fill-rule:evenodd;fill:rgb(90.196079%,0.784314%,70.588237%);fill-opacity:1;" d="M 11.027344 24.984375 L 9.835938 25.992188 L 8.171875 25.933594 L 8.113281 26.589844 L 7.464844 28.375 L 11.984375 28.375 L 12.867188 27.183594 L 11.738281 26.828125 Z M 11.027344 24.984375 "/>
<path style=" stroke:none;fill-rule:evenodd;fill:rgb(90.196079%,0.784314%,70.588237%);fill-opacity:0.859649;" d="M 14.765625 27.183594 L 13.636719 27.359375 L 12.566406 27.65625 L 13.171875 28.375 L 17.484375 28.375 L 17.140625 27.714844 L 15.953125 27.417969 Z M 14.765625 27.183594 "/>
<path style=" stroke:none;fill-rule:evenodd;fill:rgb(90.196079%,0.784314%,70.588237%);fill-opacity:1;" d="M 13.636719 27.0625 L 13.875 25.519531 L 13.519531 25.164062 L 13.757812 23.976562 L 14.46875 22.667969 L 13.757812 22.726562 C 13.757812 22.726562 12.804688 22.90625 13.222656 22.726562 C 13.636719 22.550781 13.992188 20.945312 13.992188 20.945312 C 13.992188 20.945312 13.519531 20.589844 13.519531 21.242188 C 13.519531 21.898438 13.519531 23.203125 13.222656 23.5 C 12.925781 23.796875 12.570312 25.164062 12.570312 25.164062 C 12.570312 25.164062 13.222656 26.410156 13.222656 26.707031 C 13.222656 27.003906 13.042969 27.714844 13.042969 27.714844 Z M 13.636719 27.0625 "/>
<path style=" stroke:none;fill-rule:evenodd;fill:rgb(90.196079%,0.784314%,70.588237%);fill-opacity:1;" d="M 5.027344 26.351562 L 5.144531 25.222656 L 4.730469 24.6875 C 4.730469 24.6875 4.3125 23.558594 4.609375 23.324219 C 4.90625 23.085938 5.5625 22.132812 5.976562 21.957031 C 6.390625 21.777344 6.867188 21.957031 6.75 21.539062 C 6.628906 21.125 5.738281 20.828125 6.214844 20.175781 C 6.691406 19.523438 7.882812 16.730469 8.117188 16.789062 C 8.878906 16.453125 10.234375 18.542969 8.707031 19.699219 L 9.363281 20.054688 L 8.234375 21.242188 L 8.351562 22.195312 C 8.351562 22.195312 9.300781 22.253906 9.183594 22.550781 C 9.066406 22.847656 8.886719 23.023438 8.886719 23.023438 L 7.9375 23.085938 L 6.988281 22.550781 L 6.75 23.382812 C 6.75 23.382812 7.402344 23.441406 6.867188 23.738281 C 6.332031 24.035156 5.5 23.796875 5.621094 24.152344 C 5.738281 24.511719 7.285156 25.339844 7.046875 25.460938 C 6.808594 25.578125 5.976562 25.996094 5.976562 25.996094 Z M 5.027344 26.351562 "/>
<path style=" stroke:none;fill-rule:evenodd;fill:rgb(90.196079%,0.784314%,70.588237%);fill-opacity:1;" d="M 4.550781 27.480469 C 4.433594 27.957031 3.898438 27.65625 4.433594 28.191406 C 4.5 28.261719 4.535156 28.3125 4.585938 28.375 L 5.261719 28.375 C 5.335938 28.230469 5.441406 28.011719 5.441406 28.011719 Z M 4.550781 27.480469 "/>
<path style=" stroke:none;fill-rule:evenodd;fill:rgb(90.196079%,0.784314%,70.588237%);fill-opacity:1;" d="M 2.652344 25.402344 L 2.828125 26.589844 L 3.363281 25.933594 L 3.246094 25.519531 Z M 2.652344 25.402344 "/>
<path style=" stroke:none;fill-rule:evenodd;fill:rgb(90.196079%,0.784314%,70.588237%);fill-opacity:1;" d="M 12.570312 24.6875 C 12.332031 24.867188 11.617188 24.511719 11.675781 24.984375 C 11.738281 25.460938 11.972656 27.003906 11.972656 27.003906 L 10.90625 25.28125 L 9.957031 24.035156 L 10.191406 23.023438 L 11.144531 23.441406 L 10.964844 24.390625 L 11.558594 25.339844 Z M 12.570312 24.6875 "/>
<path style=" stroke:none;fill-rule:evenodd;fill:rgb(90.196079%,0.784314%,70.588237%);fill-opacity:1;" d="M 11.5 24.09375 L 12.273438 24.035156 L 12.746094 23.027344 L 12.804688 22.429688 C 12.804688 22.429688 12.210938 23.085938 11.972656 22.964844 C 11.738281 22.847656 11.144531 22.253906 11.144531 22.253906 L 11.082031 23.441406 Z M 11.5 24.09375 "/>
<path style=" stroke:none;fill-rule:evenodd;fill:rgb(90.196079%,0.784314%,70.588237%);fill-opacity:1;" d="M 6.691406 25.890625 L 6.882812 25.503906 C 6.882812 25.503906 7.238281 25.488281 7.164062 25.402344 C 7.089844 25.3125 6.527344 24.894531 6.527344 24.894531 C 6.527344 24.894531 6.230469 24.539062 6.257812 24.421875 C 6.289062 24.300781 6.75 23.871094 6.75 23.871094 L 7.148438 23.589844 C 7.148438 23.589844 6.792969 23.472656 6.808594 23.261719 C 6.824219 23.054688 6.914062 22.535156 7 22.59375 C 7.089844 22.652344 7.90625 22.921875 7.90625 22.921875 C 7.90625 22.921875 8.113281 22.714844 8.113281 23.039062 C 8.113281 23.367188 8.351562 23.605469 8.292969 23.707031 C 8.234375 23.8125 8.070312 24.199219 7.832031 24.316406 C 7.59375 24.4375 7.222656 24.984375 7.222656 24.984375 C 7.222656 24.984375 7.210938 25.460938 7.179688 25.519531 C 7.148438 25.578125 7.074219 25.890625 7.074219 25.890625 L 6.496094 26.277344 Z M 6.691406 25.890625 "/>
<path style=" stroke:none;fill-rule:evenodd;fill:rgb(90.196079%,0.784314%,70.588237%);fill-opacity:1;" d="M 8.433594 19.296875 L 8.433594 20.238281 L 10 21.179688 C 11.03125 20.175781 10.070312 20.734375 10.3125 21.179688 L 11.253906 21.179688 L 11.253906 19.296875 L 9.371094 18.355469 Z M 8.433594 19.296875 "/>
<path style="fill-rule:nonzero;fill:rgb(95.294118%,71.764708%,85.09804%);fill-opacity:1;stroke-width:0.264583;stroke-linecap:butt;stroke-linejoin:miter;stroke:rgb(90.196079%,0.784314%,70.588237%);stroke-opacity:1;stroke-miterlimit:4;" d="M 2.910417 0.396875 L 1.615405 1.982308 L 2.457731 2.689758 L 3.836458 1.058333 L 3.836458 0.396875 Z M 2.910417 0.396875 " transform="matrix(7.559055,0,0,7.559055,0.00000180222,0)"/>
<path style="fill-rule:nonzero;fill:rgb(61.56863%,22.745098%,60.784316%);fill-opacity:1;stroke-width:0.264583;stroke-linecap:round;stroke-linejoin:round;stroke:rgb(90.196079%,0.784314%,70.588237%);stroke-opacity:1;stroke-miterlimit:4;" d="M 3.616882 0.625076 C 3.616917 0.776925 3.370763 0.900088 3.067064 0.900158 C 2.763365 0.900227 2.516917 0.777256 2.516883 0.625406 C 2.517244 0.473224 2.763002 0.350393 3.066701 0.350324 C 3.370733 0.35065 3.616848 0.473226 3.616882 0.625076 Z M 3.616882 0.625076 " transform="matrix(5.786896,4.863245,-4.863245,5.786896,0.00000180222,0)"/>
</g>
</svg>
