<?xml version="1.0" encoding="UTF-8"?>
<svg xmlns="http://www.w3.org/2000/svg" xmlns:xlink="http://www.w3.org/1999/xlink" width="32px" height="32px" viewBox="0 0 32 32" version="1.1">
<g id="surface1">
<path style=" stroke:none;fill-rule:nonzero;fill:rgb(90.196079%,0.784314%,70.588237%);fill-opacity:1;" d="M 8 12 L 10 12 C 11.105469 12 12 12.894531 12 14 L 12 18 C 12 19.105469 11.105469 20 10 20 L 8 20 C 6.894531 20 6 19.105469 6 18 L 6 14 C 6 12.894531 6.894531 12 8 12 Z M 8 12 "/>
<path style="fill-rule:nonzero;fill:rgb(95.294118%,71.764708%,85.09804%);fill-opacity:1;stroke-width:1;stroke-linecap:round;stroke-linejoin:round;stroke:rgb(90.196079%,0.784314%,70.588237%);stroke-opacity:1;stroke-miterlimit:4;" d="M -6.517578 1.5 L -3.482422 1.5 C -2.939453 1.5 -2.5 1.939453 -2.5 2.482422 L -2.5 13.517578 C -2.5 14.060547 -2.939453 14.5 -3.482422 14.5 L -6.517578 14.5 C -7.060547 14.5 -7.5 14.060547 -7.5 13.517578 L -7.5 2.482422 C -7.5 1.939453 -7.060547 1.5 -6.517578 1.5 Z M -6.517578 1.5 " transform="matrix(2,0,0,2,32,0)"/>
<path style=" stroke:none;fill-rule:nonzero;fill:rgb(94.117647%,89.019608%,92.54902%);fill-opacity:1;" d="M 18 4 L 26 4 L 26 28 L 18 28 Z M 18 4 "/>
<path style=" stroke:none;fill-rule:nonzero;fill:rgb(95.294118%,71.764708%,85.09804%);fill-opacity:1;" d="M 8.199219 14 L 9.800781 14 C 9.910156 14 10 14.089844 10 14.199219 L 10 17.800781 C 10 17.910156 9.910156 18 9.800781 18 L 8.199219 18 C 8.089844 18 8 17.910156 8 17.800781 L 8 14.199219 C 8 14.089844 8.089844 14 8.199219 14 Z M 8.199219 14 "/>
<path style="fill:none;stroke-width:1;stroke-linecap:round;stroke-linejoin:round;stroke:rgb(90.196079%,0.784314%,70.588237%);stroke-opacity:1;stroke-miterlimit:4;" d="M 10 11.5 L 14.5 11.5 " transform="matrix(0.000000000000000122,2,-2,0.000000000000000122,32,0)"/>
<path style="fill:none;stroke-width:1;stroke-linecap:round;stroke-linejoin:round;stroke:rgb(90.196079%,0.784314%,70.588237%);stroke-opacity:1;stroke-miterlimit:4;" d="M 12.5 9.5 L 14.5 11.5 L 12.5 13.5 " transform="matrix(0.000000000000000122,2,-2,0.000000000000000122,32,0)"/>
<path style="fill:none;stroke-width:1;stroke-linecap:round;stroke-linejoin:round;stroke:rgb(90.196079%,0.784314%,70.588237%);stroke-opacity:1;stroke-miterlimit:4;" d="M 6 11.5 L 1.5 11.5 " transform="matrix(0.000000000000000122,2,-2,0.000000000000000122,32,0)"/>
<path style="fill:none;stroke-width:1;stroke-linecap:round;stroke-linejoin:round;stroke:rgb(90.196079%,0.784314%,70.588237%);stroke-opacity:1;stroke-miterlimit:4;" d="M 3.5 9.5 L 1.5 11.5 L 3.5 13.5 " transform="matrix(0.000000000000000122,2,-2,0.000000000000000122,32,0)"/>
</g>
</svg>
