<?xml version="1.0" encoding="UTF-8"?>
<svg xmlns="http://www.w3.org/2000/svg" xmlns:xlink="http://www.w3.org/1999/xlink" width="32px" height="32px" viewBox="0 0 32 32" version="1.1">
<g id="surface1">
<path style=" stroke:none;fill-rule:nonzero;fill:rgb(61.56863%,22.745098%,60.784316%);fill-opacity:1;" d="M 23.992188 2.019531 L 27.992188 2.019531 C 29.097656 2.019531 29.992188 2.917969 29.992188 4.019531 L 29.992188 28.019531 C 29.992188 29.125 29.097656 30.019531 27.992188 30.019531 L 23.992188 30.019531 C 22.886719 30.019531 21.992188 29.125 21.992188 28.019531 L 21.992188 4.019531 C 21.992188 2.917969 22.886719 2.019531 23.992188 2.019531 Z M 23.992188 2.019531 "/>
<path style=" stroke:none;fill-rule:nonzero;fill:rgb(90.196079%,0.784314%,70.588237%);fill-opacity:1;" d="M 7 2 C 7.550781 2 8 2.449219 8 3 L 8 7 C 8 7.550781 7.550781 8 7 8 C 6.449219 8 6 7.550781 6 7 L 6 3 C 6 2.449219 6.449219 2 7 2 Z M 7 2 "/>
<path style=" stroke:none;fill-rule:nonzero;fill:rgb(90.196079%,0.784314%,70.588237%);fill-opacity:1;" d="M 6 3 C 6 2.449219 6.449219 2 7 2 L 19 2 C 19.550781 2 20 2.449219 20 3 C 20 3.550781 19.550781 4 19 4 L 7 4 C 6.449219 4 6 3.550781 6 3 Z M 6 3 "/>
<path style=" stroke:none;fill-rule:nonzero;fill:rgb(90.196079%,0.784314%,70.588237%);fill-opacity:1;" d="M 7 30 C 7.550781 30 8 29.550781 8 29 L 8 25 C 8 24.449219 7.550781 24 7 24 C 6.449219 24 6 24.449219 6 25 L 6 29 C 6 29.550781 6.449219 30 7 30 Z M 7 30 "/>
<path style=" stroke:none;fill-rule:nonzero;fill:rgb(90.196079%,0.784314%,70.588237%);fill-opacity:1;" d="M 6 29 C 6 29.550781 6.449219 30 7 30 L 19 30 C 19.550781 30 20 29.550781 20 29 C 20 28.445312 19.550781 28 19 28 L 7 28 C 6.449219 28 6 28.445312 6 29 Z M 6 29 "/>
<path style=" stroke:none;fill-rule:nonzero;fill:rgb(94.117647%,89.019608%,92.54902%);fill-opacity:1;" d="M 25 4 L 27 4 C 27.550781 4 28 4.449219 28 5 L 28 7 C 28 7.550781 27.550781 8 27 8 L 25 8 C 24.449219 8 24 7.550781 24 7 L 24 5 C 24 4.449219 24.449219 4 25 4 Z M 25 4 "/>
<path style=" stroke:none;fill-rule:nonzero;fill:rgb(94.117647%,89.019608%,92.54902%);fill-opacity:1;" d="M 25 10 L 27 10 C 27.550781 10 28 10.449219 28 11 L 28 13 C 28 13.550781 27.550781 14 27 14 L 25 14 C 24.449219 14 24 13.550781 24 13 L 24 11 C 24 10.449219 24.449219 10 25 10 Z M 25 10 "/>
<path style=" stroke:none;fill-rule:nonzero;fill:rgb(94.117647%,89.019608%,92.54902%);fill-opacity:1;" d="M 25 18 L 27 18 C 27.550781 18 28 18.449219 28 19 L 28 21 C 28 21.550781 27.550781 22 27 22 L 25 22 C 24.449219 22 24 21.550781 24 21 L 24 19 C 24 18.449219 24.449219 18 25 18 Z M 25 18 "/>
<path style=" stroke:none;fill-rule:nonzero;fill:rgb(94.117647%,89.019608%,92.54902%);fill-opacity:1;" d="M 25 24 L 27 24 C 27.550781 24 28 24.449219 28 25 L 28 27 C 28 27.550781 27.550781 28 27 28 L 25 28 C 24.449219 28 24 27.550781 24 27 L 24 25 C 24 24.449219 24.449219 24 25 24 Z M 25 24 "/>
<path style="fill:none;stroke-width:0.264583;stroke-linecap:round;stroke-linejoin:miter;stroke:rgb(61.56863%,22.745098%,60.784316%);stroke-opacity:1;stroke-miterlimit:4;" d="M 0.926041 1.5875 L 0.926041 2.645833 " transform="matrix(7.559055,0,0,7.559055,0.00000180222,0)"/>
<path style="fill:none;stroke-width:0.264583;stroke-linecap:round;stroke-linejoin:miter;stroke:rgb(61.56863%,22.745098%,60.784316%);stroke-opacity:1;stroke-miterlimit:4;" d="M 0.396875 2.116667 L 1.455208 2.116667 " transform="matrix(7.559055,0,0,7.559055,0.00000180222,0)"/>
</g>
</svg>
