<?xml version="1.0" encoding="UTF-8"?>
<svg xmlns="http://www.w3.org/2000/svg" xmlns:xlink="http://www.w3.org/1999/xlink" width="32px" height="32px" viewBox="0 0 32 32" version="1.1">
<g id="surface1">
<path style=" stroke:none;fill-rule:nonzero;fill:rgb(33.333334%,34.117648%,32.549021%);fill-opacity:1;" d="M 16 2 C 8.269531 2 2 8.269531 2 16 C 2 23.730469 8.269531 30 16 30 C 23.730469 30 30 23.730469 30 16 C 30 8.269531 23.730469 2 16 2 Z M 16 6 C 19.3125 6 22 8.6875 22 12 C 21.996094 14.539062 20.394531 16.800781 18 17.648438 L 18 22 L 14 22 L 14 14 L 16 14 C 17.105469 14 18 13.105469 18 12 C 18 10.894531 17.105469 10 16 10 C 14.894531 10 14 10.894531 14 12 L 10 12 C 10 8.6875 12.6875 6 16 6 Z M 14 24 L 18 24 L 18 28 L 14 28 Z M 14 24 "/>
</g>
</svg>
