<?xml version="1.0" encoding="UTF-8"?>
<svg xmlns="http://www.w3.org/2000/svg" xmlns:xlink="http://www.w3.org/1999/xlink" width="32px" height="32px" viewBox="0 0 32 32" version="1.1">
<g id="surface1">
<path style=" stroke:none;fill-rule:nonzero;fill:rgb(95.294118%,71.764708%,85.09804%);fill-opacity:1;" d="M 6 2 L 26 2 C 27.105469 2 28 2.894531 28 4 L 28 28 C 28 29.105469 27.105469 30 26 30 L 6 30 C 4.894531 30 4 29.105469 4 28 L 4 4 C 4 2.894531 4.894531 2 6 2 Z M 6 2 "/>
<path style=" stroke:none;fill-rule:nonzero;fill:rgb(94.117647%,89.019608%,92.54902%);fill-opacity:1;" d="M 8 4 L 24 4 C 25.105469 4 26 4.894531 26 6 L 26 26 C 26 27.105469 25.105469 28 24 28 L 8 28 C 6.894531 28 6 27.105469 6 26 L 6 6 C 6 4.894531 6.894531 4 8 4 Z M 8 4 "/>
<path style=" stroke:none;fill-rule:nonzero;fill:rgb(61.56863%,22.745098%,60.784316%);fill-opacity:1;" d="M 12 2 L 14.097656 2 L 14.097656 30 L 12 30 Z M 12 2 "/>
<path style=" stroke:none;fill-rule:nonzero;fill:rgb(61.56863%,22.745098%,60.784316%);fill-opacity:1;" d="M 4 20 L 26 20 L 26 22.246094 L 4 22.246094 Z M 4 20 "/>
<path style=" stroke:none;fill-rule:evenodd;fill:rgb(90.196079%,0.784314%,70.588237%);fill-opacity:1;" d="M 17 7 L 20 10 L 20 4 Z M 17 7 "/>
<path style=" stroke:none;fill-rule:evenodd;fill:rgb(90.196079%,0.784314%,70.588237%);fill-opacity:1;" d="M 9 7 L 6 10 L 6 4 Z M 9 7 "/>
<path style=" stroke:none;fill-rule:nonzero;fill:rgb(61.56863%,22.745098%,60.784316%);fill-opacity:1;" d="M 22 2 C 20.429688 2 18.867188 2.628906 17.757812 3.703125 C 16.648438 4.78125 16 6.296875 16 7.816406 L 16 18 L 20.5 18 L 20.5 7.816406 C 20.5 7.015625 21.171875 6.363281 22 6.363281 C 22.828125 6.363281 23.5 7.015625 23.5 7.816406 L 23.5 18 L 28 18 L 28 7.816406 C 28 6.296875 27.351562 4.78125 26.242188 3.703125 C 25.132812 2.628906 23.570312 2 22 2 Z M 22 2 "/>
<path style=" stroke:none;fill-rule:nonzero;fill:rgb(95.294118%,71.764708%,85.09804%);fill-opacity:1;" d="M 22 3.453125 C 19.515625 3.453125 17.5 5.410156 17.5 7.816406 L 17.5 16.546875 L 19 16.546875 L 19 7.816406 C 19 6.210938 20.34375 4.910156 22 4.910156 C 23.65625 4.910156 25 6.210938 25 7.816406 L 25 16.546875 L 26.5 16.546875 L 26.5 7.816406 C 26.5 5.410156 24.484375 3.453125 22 3.453125 Z M 22 3.453125 "/>
<path style=" stroke:none;fill-rule:nonzero;fill:rgb(90.196079%,0.784314%,70.588237%);fill-opacity:1;" d="M 16 12.183594 L 16 18 L 20.5 18 L 20.5 12.183594 Z M 23.5 12.183594 L 23.5 18 L 28 18 L 28 12.183594 Z M 23.5 12.183594 "/>
<path style=" stroke:none;fill-rule:nonzero;fill:rgb(94.117647%,89.019608%,92.54902%);fill-opacity:1;" d="M 17.5 12.183594 L 17.5 16.546875 L 19 16.546875 L 19 12.183594 Z M 25 12.183594 L 25 16.546875 L 26.5 16.546875 L 26.5 12.183594 Z M 25 12.183594 "/>
</g>
</svg>
