<?xml version="1.0" encoding="UTF-8"?>
<svg xmlns="http://www.w3.org/2000/svg" xmlns:xlink="http://www.w3.org/1999/xlink" width="32px" height="32px" viewBox="0 0 32 32" version="1.1">
<g id="surface1">
<path style=" stroke:none;fill-rule:nonzero;fill:rgb(90.196079%,0.784314%,70.588237%);fill-opacity:1;" d="M 30 16.929688 L 30 17.070312 C 30 17.585938 29.550781 18 29 18 L 3 18 C 2.449219 18 2 17.585938 2 17.070312 L 2 16.929688 C 2 16.414062 2.449219 16 3 16 L 29 16 C 29.550781 16 30 16.414062 30 16.929688 Z M 30 16.929688 "/>
<path style=" stroke:none;fill-rule:nonzero;fill:rgb(95.294118%,71.764708%,85.09804%);fill-opacity:1;" d="M 2.824219 14 L 7.175781 14 C 7.628906 14 8 13.59375 8 13.09375 L 8 12.90625 C 8 12.40625 7.628906 12 7.175781 12 L 2.824219 12 C 2.371094 12 2 12.40625 2 12.90625 L 2 13.09375 C 2 13.59375 2.371094 14 2.824219 14 Z M 2.824219 14 "/>
<path style=" stroke:none;fill-rule:nonzero;fill:rgb(95.294118%,71.764708%,85.09804%);fill-opacity:1;" d="M 9.824219 14 L 14.175781 14 C 14.628906 14 15 13.59375 15 13.09375 L 15 12.90625 C 15 12.40625 14.628906 12 14.175781 12 L 9.824219 12 C 9.371094 12 9 12.40625 9 12.90625 L 9 13.09375 C 9 13.59375 9.371094 14 9.824219 14 Z M 9.824219 14 "/>
<path style=" stroke:none;fill-rule:nonzero;fill:rgb(95.294118%,71.764708%,85.09804%);fill-opacity:1;" d="M 17.824219 14 L 22.175781 14 C 22.628906 14 23 13.59375 23 13.09375 L 23 12.90625 C 23 12.40625 22.628906 12 22.175781 12 L 17.824219 12 C 17.371094 12 17 12.40625 17 12.90625 L 17 13.09375 C 17 13.59375 17.371094 14 17.824219 14 Z M 17.824219 14 "/>
<path style=" stroke:none;fill-rule:nonzero;fill:rgb(95.294118%,71.764708%,85.09804%);fill-opacity:1;" d="M 24.824219 14 L 29.175781 14 C 29.628906 14 30 13.59375 30 13.09375 L 30 12.90625 C 30 12.40625 29.628906 12 29.175781 12 L 24.824219 12 C 24.371094 12 24 12.40625 24 12.90625 L 24 13.09375 C 24 13.59375 24.371094 14 24.824219 14 Z M 24.824219 14 "/>
<path style=" stroke:none;fill-rule:nonzero;fill:rgb(95.294118%,71.764708%,85.09804%);fill-opacity:1;" d="M 2.824219 10 L 9.175781 10 C 9.628906 10 10 9.59375 10 9.09375 L 10 8.90625 C 10 8.40625 9.628906 8 9.175781 8 L 2.824219 8 C 2.371094 8 2 8.40625 2 8.90625 L 2 9.09375 C 2 9.59375 2.371094 10 2.824219 10 Z M 2.824219 10 "/>
<path style=" stroke:none;fill-rule:nonzero;fill:rgb(95.294118%,71.764708%,85.09804%);fill-opacity:1;" d="M 11.824219 10 L 18.175781 10 C 18.628906 10 19 9.59375 19 9.09375 L 19 8.90625 C 19 8.40625 18.628906 8 18.175781 8 L 11.824219 8 C 11.371094 8 11 8.40625 11 8.90625 L 11 9.09375 C 11 9.59375 11.371094 10 11.824219 10 Z M 11.824219 10 "/>
<path style=" stroke:none;fill-rule:nonzero;fill:rgb(95.294118%,71.764708%,85.09804%);fill-opacity:1;" d="M 20.824219 10 L 29.175781 10 C 29.628906 10 30 9.59375 30 9.09375 L 30 8.90625 C 30 8.40625 29.628906 8 29.175781 8 L 20.824219 8 C 20.371094 8 20 8.40625 20 8.90625 L 20 9.09375 C 20 9.59375 20.371094 10 20.824219 10 Z M 20.824219 10 "/>
<path style=" stroke:none;fill-rule:nonzero;fill:rgb(95.294118%,71.764708%,85.09804%);fill-opacity:1;" d="M 2.824219 6 L 9.175781 6 C 9.628906 6 10 5.59375 10 5.09375 L 10 4.90625 C 10 4.40625 9.628906 4 9.175781 4 L 2.824219 4 C 2.371094 4 2 4.40625 2 4.90625 L 2 5.09375 C 2 5.59375 2.371094 6 2.824219 6 Z M 2.824219 6 "/>
<path style=" stroke:none;fill-rule:nonzero;fill:rgb(95.294118%,71.764708%,85.09804%);fill-opacity:1;" d="M 11.824219 6 L 18.175781 6 C 18.628906 6 19 5.59375 19 5.09375 L 19 4.90625 C 19 4.40625 18.628906 4 18.175781 4 L 11.824219 4 C 11.371094 4 11 4.40625 11 4.90625 L 11 5.09375 C 11 5.59375 11.371094 6 11.824219 6 Z M 11.824219 6 "/>
<path style=" stroke:none;fill-rule:nonzero;fill:rgb(95.294118%,71.764708%,85.09804%);fill-opacity:1;" d="M 20.824219 6 L 29.175781 6 C 29.628906 6 30 5.59375 30 5.09375 L 30 4.90625 C 30 4.40625 29.628906 4 29.175781 4 L 20.824219 4 C 20.371094 4 20 4.40625 20 4.90625 L 20 5.09375 C 20 5.59375 20.371094 6 20.824219 6 Z M 20.824219 6 "/>
<path style=" stroke:none;fill-rule:nonzero;fill:rgb(95.294118%,71.764708%,85.09804%);fill-opacity:1;" d="M 2.824219 20 L 7.175781 20 C 7.628906 20 8 20.40625 8 20.90625 L 8 21.09375 C 8 21.59375 7.628906 22 7.175781 22 L 2.824219 22 C 2.371094 22 2 21.59375 2 21.09375 L 2 20.90625 C 2 20.40625 2.371094 20 2.824219 20 Z M 2.824219 20 "/>
<path style=" stroke:none;fill-rule:nonzero;fill:rgb(95.294118%,71.764708%,85.09804%);fill-opacity:1;" d="M 9.824219 20 L 14.175781 20 C 14.628906 20 15 20.40625 15 20.90625 L 15 21.09375 C 15 21.59375 14.628906 22 14.175781 22 L 9.824219 22 C 9.371094 22 9 21.59375 9 21.09375 L 9 20.90625 C 9 20.40625 9.371094 20 9.824219 20 Z M 9.824219 20 "/>
<path style=" stroke:none;fill-rule:nonzero;fill:rgb(95.294118%,71.764708%,85.09804%);fill-opacity:1;" d="M 17.824219 20 L 22.175781 20 C 22.628906 20 23 20.40625 23 20.90625 L 23 21.09375 C 23 21.59375 22.628906 22 22.175781 22 L 17.824219 22 C 17.371094 22 17 21.59375 17 21.09375 L 17 20.90625 C 17 20.40625 17.371094 20 17.824219 20 Z M 17.824219 20 "/>
<path style=" stroke:none;fill-rule:nonzero;fill:rgb(95.294118%,71.764708%,85.09804%);fill-opacity:1;" d="M 24.824219 20 L 29.175781 20 C 29.628906 20 30 20.40625 30 20.90625 L 30 21.09375 C 30 21.59375 29.628906 22 29.175781 22 L 24.824219 22 C 24.371094 22 24 21.59375 24 21.09375 L 24 20.90625 C 24 20.40625 24.371094 20 24.824219 20 Z M 24.824219 20 "/>
<path style=" stroke:none;fill-rule:nonzero;fill:rgb(95.294118%,71.764708%,85.09804%);fill-opacity:1;" d="M 2.824219 24 L 9.175781 24 C 9.628906 24 10 24.40625 10 24.90625 L 10 25.09375 C 10 25.59375 9.628906 26 9.175781 26 L 2.824219 26 C 2.371094 26 2 25.59375 2 25.09375 L 2 24.90625 C 2 24.40625 2.371094 24 2.824219 24 Z M 2.824219 24 "/>
<path style=" stroke:none;fill-rule:nonzero;fill:rgb(95.294118%,71.764708%,85.09804%);fill-opacity:1;" d="M 11.824219 24 L 18.175781 24 C 18.628906 24 19 24.40625 19 24.90625 L 19 25.09375 C 19 25.59375 18.628906 26 18.175781 26 L 11.824219 26 C 11.371094 26 11 25.59375 11 25.09375 L 11 24.90625 C 11 24.40625 11.371094 24 11.824219 24 Z M 11.824219 24 "/>
<path style=" stroke:none;fill-rule:nonzero;fill:rgb(95.294118%,71.764708%,85.09804%);fill-opacity:1;" d="M 20.824219 24 L 29.175781 24 C 29.628906 24 30 24.40625 30 24.90625 L 30 25.09375 C 30 25.59375 29.628906 26 29.175781 26 L 20.824219 26 C 20.371094 26 20 25.59375 20 25.09375 L 20 24.90625 C 20 24.40625 20.371094 24 20.824219 24 Z M 20.824219 24 "/>
<path style=" stroke:none;fill-rule:nonzero;fill:rgb(95.294118%,71.764708%,85.09804%);fill-opacity:1;" d="M 2.824219 28 L 9.175781 28 C 9.628906 28 10 28.40625 10 28.90625 L 10 29.09375 C 10 29.59375 9.628906 30 9.175781 30 L 2.824219 30 C 2.371094 30 2 29.59375 2 29.09375 L 2 28.90625 C 2 28.40625 2.371094 28 2.824219 28 Z M 2.824219 28 "/>
<path style=" stroke:none;fill-rule:nonzero;fill:rgb(95.294118%,71.764708%,85.09804%);fill-opacity:1;" d="M 11.824219 28 L 18.175781 28 C 18.628906 28 19 28.40625 19 28.90625 L 19 29.09375 C 19 29.59375 18.628906 30 18.175781 30 L 11.824219 30 C 11.371094 30 11 29.59375 11 29.09375 L 11 28.90625 C 11 28.40625 11.371094 28 11.824219 28 Z M 11.824219 28 "/>
<path style=" stroke:none;fill-rule:nonzero;fill:rgb(95.294118%,71.764708%,85.09804%);fill-opacity:1;" d="M 20.824219 28 L 29.175781 28 C 29.628906 28 30 28.40625 30 28.90625 L 30 29.09375 C 30 29.59375 29.628906 30 29.175781 30 L 20.824219 30 C 20.371094 30 20 29.59375 20 29.09375 L 20 28.90625 C 20 28.40625 20.371094 28 20.824219 28 Z M 20.824219 28 "/>
</g>
</svg>
