<?xml version="1.0" encoding="UTF-8"?>
<svg xmlns="http://www.w3.org/2000/svg" xmlns:xlink="http://www.w3.org/1999/xlink" width="32px" height="32px" viewBox="0 0 32 32" version="1.1">
<defs>
<filter id="alpha" filterUnits="objectBoundingBox" x="0%" y="0%" width="100%" height="100%">
  <feColorMatrix type="matrix" in="SourceGraphic" values="0 0 0 0 1 0 0 0 0 1 0 0 0 0 1 0 0 0 1 0"/>
</filter>
<mask id="mask0">
  <g filter="url(#alpha)">
<rect x="0" y="0" width="32" height="32" style="fill:rgb(0%,0%,0%);fill-opacity:0.465;stroke:none;"/>
  </g>
</mask>
<clipPath id="clip1">
  <rect x="0" y="0" width="32" height="32"/>
</clipPath>
<g id="surface5" clip-path="url(#clip1)">
<path style=" stroke:none;fill-rule:nonzero;fill:rgb(0%,0%,0%);fill-opacity:1;" d="M 3.546875 1.804688 C 2.664062 1.804688 1.949219 2.605469 1.949219 3.59375 L 1.949219 28.40625 C 1.949219 29.394531 2.664062 30.195312 3.546875 30.195312 L 10 30.195312 C 9.46875 29.9375 8.953125 29.6875 8.417969 29.429688 C 9.09375 28.011719 21.929688 3.308594 22.644531 1.804688 Z M 3.546875 1.804688 "/>
</g>
</defs>
<g id="surface1">
<path style="fill-rule:nonzero;fill:rgb(95.294118%,71.764708%,85.09804%);fill-opacity:1;stroke-width:1;stroke-linecap:round;stroke-linejoin:round;stroke:rgb(90.196079%,0.784314%,70.588237%);stroke-opacity:1;stroke-miterlimit:4;" d="M -13.630859 1.5 L -2.369141 1.5 C -1.888672 1.5 -1.5 1.943359 -1.5 2.492188 L -1.5 13.507812 C -1.5 14.056641 -1.888672 14.5 -2.369141 14.5 L -13.630859 14.5 C -14.111328 14.5 -14.5 14.056641 -14.5 13.507812 L -14.5 2.492188 C -14.5 1.943359 -14.111328 1.5 -13.630859 1.5 Z M -13.630859 1.5 " transform="matrix(-2,0,0,2,0,0)"/>
<path style=" stroke:none;fill-rule:nonzero;fill:rgb(61.960787%,22.745098%,61.176473%);fill-opacity:1;" d="M 27.675781 10.355469 C 27.542969 10.277344 27.410156 10.195312 27.277344 10.109375 C 27.035156 9.941406 26.785156 9.785156 26.542969 9.617188 C 26.261719 9.425781 25.964844 9.253906 25.671875 9.074219 C 25.398438 8.910156 25.117188 8.761719 24.835938 8.613281 C 24.582031 8.480469 24.324219 8.371094 24.042969 8.3125 C 23.761719 8.257812 23.496094 8.308594 23.238281 8.425781 C 23.007812 8.539062 22.824219 8.714844 22.664062 8.914062 C 22.511719 9.117188 22.402344 9.34375 22.292969 9.570312 C 22.199219 9.765625 22.125 9.964844 22.046875 10.164062 C 21.992188 10.320312 21.914062 10.464844 21.832031 10.605469 C 21.753906 10.726562 21.65625 10.832031 21.539062 10.917969 C 21.410156 10.996094 21.265625 11.015625 21.117188 11.019531 C 20.910156 11.011719 20.71875 10.933594 20.53125 10.851562 C 20.257812 10.726562 20.007812 10.566406 19.761719 10.402344 C 19.472656 10.21875 19.195312 10.019531 18.917969 9.816406 C 18.652344 9.625 18.378906 9.445312 18.097656 9.273438 C 17.859375 9.132812 17.625 8.984375 17.390625 8.839844 C 17.191406 8.722656 16.992188 8.609375 16.789062 8.503906 C 16.574219 8.382812 16.339844 8.347656 16.09375 8.347656 C 15.859375 8.351562 15.65625 8.441406 15.464844 8.5625 C 15.273438 8.695312 15.125 8.871094 14.992188 9.054688 C 14.867188 9.238281 14.769531 9.4375 14.675781 9.636719 C 14.605469 9.796875 14.539062 9.957031 14.460938 10.113281 C 14.398438 10.253906 14.339844 10.386719 14.242188 10.503906 C 14.164062 10.605469 14.082031 10.683594 13.953125 10.710938 C 13.789062 10.75 13.625 10.71875 13.464844 10.671875 C 13.257812 10.605469 13.070312 10.492188 12.886719 10.382812 C 12.675781 10.25 12.488281 10.089844 12.308594 9.925781 C 12.125 9.75 11.945312 9.574219 11.761719 9.398438 C 11.605469 9.242188 11.457031 9.082031 11.300781 8.929688 C 11.164062 8.796875 11.027344 8.664062 10.890625 8.535156 C 10.765625 8.417969 10.628906 8.3125 10.484375 8.21875 C 10.324219 8.113281 10.148438 8.070312 9.957031 8.058594 C 9.765625 8.050781 9.582031 8.101562 9.410156 8.183594 C 9.246094 8.269531 9.121094 8.398438 9.011719 8.539062 C 8.90625 8.671875 8.828125 8.816406 8.757812 8.964844 C 8.699219 9.105469 8.636719 9.242188 8.574219 9.378906 C 8.519531 9.519531 8.453125 9.65625 8.386719 9.792969 C 8.332031 9.90625 8.265625 10.011719 8.203125 10.121094 C 8.144531 10.199219 8.09375 10.277344 8.011719 10.332031 C 7.914062 10.394531 7.8125 10.449219 7.707031 10.492188 C 7.589844 10.527344 7.480469 10.535156 7.363281 10.523438 C 7.226562 10.515625 7.097656 10.46875 6.976562 10.40625 C 6.820312 10.332031 6.679688 10.230469 6.546875 10.117188 C 6.394531 9.992188 6.253906 9.847656 6.121094 9.699219 C 5.992188 9.558594 5.847656 9.425781 5.71875 9.285156 C 5.601562 9.15625 5.488281 9.027344 5.367188 8.902344 C 5.253906 8.792969 5.152344 8.675781 5.03125 8.570312 C 4.917969 8.480469 4.800781 8.394531 4.6875 8.308594 C 4.621094 8.253906 4.554688 8.203125 4.488281 8.152344 C 4.039062 7.804688 3.785156 8.113281 4.234375 8.464844 C 4.300781 8.515625 4.367188 8.570312 4.433594 8.621094 C 4.542969 8.707031 4.652344 8.785156 4.761719 8.875 C 4.875 8.96875 4.964844 9.085938 5.070312 9.1875 C 5.191406 9.304688 5.296875 9.433594 5.410156 9.558594 C 5.539062 9.703125 5.679688 9.835938 5.804688 9.980469 C 5.953125 10.136719 6.105469 10.289062 6.273438 10.429688 C 6.429688 10.5625 6.601562 10.683594 6.792969 10.773438 C 6.960938 10.851562 7.140625 10.914062 7.328125 10.925781 C 7.515625 10.941406 7.699219 10.925781 7.875 10.859375 C 8.007812 10.796875 8.136719 10.734375 8.257812 10.648438 C 8.371094 10.554688 8.472656 10.449219 8.550781 10.324219 C 8.621094 10.210938 8.691406 10.09375 8.753906 9.972656 C 8.824219 9.832031 8.898438 9.691406 8.949219 9.542969 C 9.011719 9.40625 9.074219 9.269531 9.132812 9.132812 C 9.1875 9.011719 9.25 8.890625 9.335938 8.785156 C 9.40625 8.691406 9.488281 8.605469 9.589844 8.546875 C 9.699219 8.492188 9.8125 8.464844 9.9375 8.460938 C 10.054688 8.46875 10.164062 8.488281 10.265625 8.5625 C 10.386719 8.636719 10.496094 8.726562 10.597656 8.824219 C 10.734375 8.957031 10.867188 9.089844 11.003906 9.222656 C 11.15625 9.375 11.304688 9.539062 11.460938 9.695312 C 11.644531 9.875 11.824219 10.058594 12.015625 10.234375 C 12.21875 10.417969 12.429688 10.59375 12.660156 10.738281 C 12.882812 10.871094 13.105469 10.996094 13.351562 11.070312 C 13.585938 11.132812 13.828125 11.167969 14.070312 11.101562 C 14.273438 11.039062 14.433594 10.929688 14.5625 10.761719 C 14.679688 10.617188 14.761719 10.460938 14.832031 10.292969 C 14.914062 10.132812 14.984375 9.96875 15.058594 9.808594 C 15.140625 9.632812 15.234375 9.460938 15.335938 9.292969 C 15.4375 9.148438 15.550781 9.011719 15.695312 8.90625 C 15.816406 8.824219 15.941406 8.761719 16.09375 8.757812 C 16.269531 8.757812 16.433594 8.78125 16.589844 8.867188 C 16.78125 8.96875 16.972656 9.082031 17.15625 9.195312 C 17.390625 9.34375 17.625 9.492188 17.863281 9.636719 C 18.132812 9.804688 18.398438 9.980469 18.652344 10.167969 C 18.933594 10.375 19.21875 10.578125 19.511719 10.765625 C 19.785156 10.941406 20.058594 11.113281 20.359375 11.242188 C 20.605469 11.34375 20.859375 11.433594 21.132812 11.429688 C 21.367188 11.421875 21.597656 11.375 21.796875 11.242188 C 21.949219 11.121094 22.082031 10.976562 22.1875 10.8125 C 22.285156 10.652344 22.371094 10.488281 22.4375 10.3125 C 22.511719 10.125 22.589844 9.933594 22.675781 9.746094 C 22.773438 9.550781 22.871094 9.351562 23 9.171875 C 23.117188 9.023438 23.246094 8.890625 23.417969 8.800781 C 23.589844 8.71875 23.765625 8.683594 23.957031 8.722656 C 24.195312 8.769531 24.414062 8.875 24.628906 8.992188 C 24.902344 9.136719 25.171875 9.289062 25.4375 9.449219 C 25.722656 9.621094 26.015625 9.789062 26.292969 9.972656 C 26.539062 10.140625 26.792969 10.296875 27.042969 10.457031 C 27.199219 10.554688 27.359375 10.648438 27.53125 10.714844 C 28.046875 10.917969 28.195312 10.558594 27.675781 10.355469 Z M 27.675781 10.355469 "/>
<path style=" stroke:none;fill-rule:nonzero;fill:rgb(61.960787%,22.745098%,61.176473%);fill-opacity:1;" d="M 27.675781 16.019531 C 27.542969 15.941406 27.410156 15.855469 27.277344 15.769531 C 27.035156 15.601562 26.785156 15.445312 26.542969 15.277344 C 26.261719 15.085938 25.964844 14.914062 25.671875 14.738281 C 25.398438 14.574219 25.117188 14.421875 24.835938 14.277344 C 24.582031 14.140625 24.324219 14.03125 24.042969 13.972656 C 23.761719 13.917969 23.496094 13.96875 23.238281 14.085938 C 23.007812 14.203125 22.824219 14.378906 22.664062 14.578125 C 22.511719 14.777344 22.402344 15.003906 22.292969 15.230469 C 22.199219 15.425781 22.125 15.625 22.046875 15.828125 C 21.992188 15.980469 21.914062 16.125 21.832031 16.269531 C 21.753906 16.386719 21.65625 16.496094 21.539062 16.582031 C 21.410156 16.65625 21.265625 16.675781 21.117188 16.679688 C 20.910156 16.671875 20.71875 16.59375 20.53125 16.511719 C 20.257812 16.390625 20.007812 16.230469 19.761719 16.0625 C 19.472656 15.882812 19.195312 15.679688 18.917969 15.480469 C 18.652344 15.289062 18.378906 15.105469 18.097656 14.933594 C 17.859375 14.792969 17.625 14.648438 17.390625 14.503906 C 17.191406 14.382812 16.992188 14.269531 16.789062 14.164062 C 16.574219 14.042969 16.339844 14.011719 16.09375 14.007812 C 15.859375 14.011719 15.65625 14.101562 15.464844 14.226562 C 15.273438 14.355469 15.125 14.53125 14.992188 14.714844 C 14.867188 14.898438 14.769531 15.097656 14.675781 15.296875 C 14.605469 15.457031 14.539062 15.617188 14.460938 15.773438 C 14.398438 15.914062 14.339844 16.046875 14.242188 16.167969 C 14.164062 16.269531 14.082031 16.34375 13.953125 16.371094 C 13.789062 16.410156 13.625 16.378906 13.464844 16.332031 C 13.257812 16.265625 13.070312 16.15625 12.886719 16.042969 C 12.675781 15.910156 12.488281 15.75 12.308594 15.585938 C 12.125 15.414062 11.945312 15.234375 11.761719 15.058594 C 11.605469 14.90625 11.457031 14.746094 11.300781 14.59375 C 11.164062 14.457031 11.027344 14.328125 10.890625 14.195312 C 10.765625 14.078125 10.628906 13.972656 10.484375 13.882812 C 10.324219 13.773438 10.148438 13.730469 9.957031 13.71875 C 9.765625 13.714844 9.582031 13.765625 9.410156 13.847656 C 9.246094 13.929688 9.121094 14.058594 9.011719 14.199219 C 8.90625 14.332031 8.828125 14.476562 8.757812 14.628906 C 8.699219 14.765625 8.636719 14.902344 8.574219 15.039062 C 8.519531 15.179688 8.453125 15.316406 8.386719 15.453125 C 8.332031 15.566406 8.265625 15.675781 8.203125 15.785156 C 8.144531 15.859375 8.09375 15.941406 8.011719 15.992188 C 7.914062 16.054688 7.8125 16.109375 7.707031 16.15625 C 7.589844 16.1875 7.480469 16.195312 7.363281 16.1875 C 7.226562 16.179688 7.097656 16.128906 6.976562 16.070312 C 6.820312 15.992188 6.679688 15.894531 6.546875 15.78125 C 6.394531 15.652344 6.253906 15.507812 6.121094 15.363281 C 5.992188 15.21875 5.847656 15.089844 5.71875 14.945312 C 5.601562 14.820312 5.488281 14.6875 5.367188 14.566406 C 5.253906 14.457031 5.152344 14.335938 5.03125 14.230469 C 4.917969 14.140625 4.800781 14.054688 4.6875 13.96875 C 4.621094 13.917969 4.554688 13.867188 4.488281 13.816406 C 4.039062 13.464844 3.785156 13.777344 4.234375 14.125 C 4.300781 14.179688 4.367188 14.230469 4.433594 14.285156 C 4.542969 14.367188 4.652344 14.449219 4.761719 14.535156 C 4.875 14.628906 4.964844 14.746094 5.070312 14.847656 C 5.191406 14.964844 5.296875 15.097656 5.410156 15.21875 C 5.539062 15.363281 5.679688 15.496094 5.804688 15.640625 C 5.953125 15.800781 6.105469 15.953125 6.273438 16.089844 C 6.429688 16.222656 6.601562 16.347656 6.792969 16.433594 C 6.960938 16.515625 7.140625 16.578125 7.328125 16.589844 C 7.515625 16.601562 7.699219 16.585938 7.875 16.519531 C 8.007812 16.460938 8.136719 16.394531 8.257812 16.308594 C 8.371094 16.21875 8.472656 16.109375 8.550781 15.988281 C 8.621094 15.871094 8.691406 15.753906 8.753906 15.632812 C 8.824219 15.496094 8.898438 15.351562 8.949219 15.203125 C 9.011719 15.066406 9.074219 14.933594 9.132812 14.792969 C 9.1875 14.671875 9.25 14.550781 9.335938 14.445312 C 9.40625 14.355469 9.488281 14.265625 9.589844 14.207031 C 9.699219 14.152344 9.8125 14.125 9.9375 14.125 C 10.054688 14.128906 10.164062 14.152344 10.265625 14.222656 C 10.386719 14.296875 10.496094 14.386719 10.597656 14.484375 C 10.734375 14.617188 10.867188 14.75 11.003906 14.882812 C 11.15625 15.039062 11.304688 15.199219 11.460938 15.355469 C 11.644531 15.539062 11.824219 15.722656 12.015625 15.898438 C 12.21875 16.082031 12.429688 16.257812 12.660156 16.402344 C 12.882812 16.53125 13.105469 16.65625 13.351562 16.730469 C 13.585938 16.796875 13.828125 16.832031 14.070312 16.761719 C 14.273438 16.699219 14.433594 16.589844 14.5625 16.421875 C 14.679688 16.28125 14.761719 16.121094 14.832031 15.953125 C 14.914062 15.792969 14.984375 15.632812 15.058594 15.472656 C 15.140625 15.292969 15.234375 15.121094 15.335938 14.953125 C 15.4375 14.8125 15.550781 14.671875 15.695312 14.566406 C 15.816406 14.484375 15.941406 14.421875 16.09375 14.421875 C 16.269531 14.417969 16.433594 14.445312 16.589844 14.527344 C 16.78125 14.632812 16.972656 14.742188 17.15625 14.855469 C 17.390625 15.007812 17.625 15.152344 17.863281 15.300781 C 18.132812 15.46875 18.398438 15.640625 18.652344 15.828125 C 18.933594 16.035156 19.21875 16.242188 19.511719 16.425781 C 19.785156 16.601562 20.058594 16.773438 20.359375 16.902344 C 20.605469 17.003906 20.859375 17.09375 21.132812 17.09375 C 21.367188 17.082031 21.597656 17.035156 21.796875 16.902344 C 21.949219 16.78125 22.082031 16.640625 22.1875 16.472656 C 22.285156 16.3125 22.371094 16.152344 22.4375 15.976562 C 22.511719 15.785156 22.589844 15.59375 22.675781 15.410156 C 22.773438 15.210938 22.871094 15.011719 23 14.832031 C 23.117188 14.683594 23.246094 14.550781 23.417969 14.460938 C 23.589844 14.382812 23.765625 14.347656 23.957031 14.382812 C 24.195312 14.433594 24.414062 14.539062 24.628906 14.652344 C 24.902344 14.800781 25.171875 14.949219 25.4375 15.109375 C 25.722656 15.285156 26.015625 15.449219 26.292969 15.636719 C 26.539062 15.800781 26.792969 15.960938 27.042969 16.117188 C 27.199219 16.214844 27.359375 16.3125 27.53125 16.378906 C 28.046875 16.582031 28.195312 16.222656 27.675781 16.019531 Z M 27.675781 16.019531 "/>
<path style=" stroke:none;fill-rule:nonzero;fill:rgb(61.960787%,22.745098%,61.176473%);fill-opacity:1;" d="M 27.675781 20.925781 C 27.542969 20.847656 27.410156 20.761719 27.277344 20.675781 C 27.035156 20.511719 26.785156 20.351562 26.542969 20.183594 C 26.261719 19.996094 25.964844 19.820312 25.671875 19.644531 C 25.398438 19.480469 25.117188 19.328125 24.835938 19.183594 C 24.582031 19.046875 24.324219 18.9375 24.042969 18.878906 C 23.761719 18.824219 23.496094 18.878906 23.238281 18.992188 C 23.007812 19.109375 22.824219 19.285156 22.664062 19.484375 C 22.511719 19.683594 22.402344 19.910156 22.292969 20.136719 C 22.199219 20.332031 22.125 20.53125 22.046875 20.734375 C 21.992188 20.886719 21.914062 21.03125 21.832031 21.175781 C 21.753906 21.292969 21.65625 21.402344 21.539062 21.488281 C 21.410156 21.5625 21.265625 21.582031 21.117188 21.589844 C 20.910156 21.578125 20.71875 21.5 20.53125 21.417969 C 20.257812 21.296875 20.007812 21.136719 19.761719 20.96875 C 19.472656 20.789062 19.195312 20.585938 18.917969 20.386719 C 18.652344 20.195312 18.378906 20.011719 18.097656 19.839844 C 17.859375 19.699219 17.625 19.554688 17.390625 19.410156 C 17.191406 19.289062 16.992188 19.175781 16.789062 19.070312 C 16.574219 18.949219 16.339844 18.917969 16.09375 18.917969 C 15.859375 18.917969 15.65625 19.007812 15.464844 19.132812 C 15.273438 19.261719 15.125 19.4375 14.992188 19.625 C 14.867188 19.804688 14.769531 20.003906 14.675781 20.203125 C 14.605469 20.363281 14.539062 20.523438 14.460938 20.683594 C 14.398438 20.820312 14.339844 20.957031 14.242188 21.074219 C 14.164062 21.175781 14.082031 21.25 13.953125 21.28125 C 13.789062 21.316406 13.625 21.285156 13.464844 21.238281 C 13.257812 21.171875 13.070312 21.0625 12.886719 20.949219 C 12.675781 20.816406 12.488281 20.65625 12.308594 20.492188 C 12.125 20.320312 11.945312 20.144531 11.761719 19.964844 C 11.605469 19.8125 11.457031 19.652344 11.300781 19.5 C 11.164062 19.363281 11.027344 19.234375 10.890625 19.101562 C 10.765625 18.984375 10.628906 18.878906 10.484375 18.789062 C 10.324219 18.683594 10.148438 18.636719 9.957031 18.628906 C 9.765625 18.621094 9.582031 18.671875 9.410156 18.753906 C 9.246094 18.839844 9.121094 18.964844 9.011719 19.109375 C 8.90625 19.238281 8.828125 19.382812 8.757812 19.535156 C 8.699219 19.671875 8.636719 19.808594 8.574219 19.945312 C 8.519531 20.089844 8.453125 20.222656 8.386719 20.359375 C 8.332031 20.472656 8.265625 20.582031 8.203125 20.691406 C 8.144531 20.765625 8.09375 20.847656 8.011719 20.898438 C 7.914062 20.964844 7.8125 21.015625 7.707031 21.0625 C 7.589844 21.09375 7.480469 21.101562 7.363281 21.09375 C 7.226562 21.085938 7.097656 21.035156 6.976562 20.976562 C 6.820312 20.902344 6.679688 20.800781 6.546875 20.6875 C 6.394531 20.558594 6.253906 20.417969 6.121094 20.269531 C 5.992188 20.125 5.847656 19.996094 5.71875 19.855469 C 5.601562 19.726562 5.488281 19.59375 5.367188 19.472656 C 5.253906 19.363281 5.152344 19.242188 5.03125 19.136719 C 4.917969 19.046875 4.800781 18.964844 4.6875 18.875 C 4.621094 18.824219 4.554688 18.773438 4.488281 18.722656 C 4.039062 18.371094 3.785156 18.683594 4.234375 19.035156 C 4.300781 19.085938 4.367188 19.140625 4.433594 19.191406 C 4.542969 19.273438 4.652344 19.355469 4.761719 19.441406 C 4.875 19.535156 4.964844 19.65625 5.070312 19.753906 C 5.191406 19.875 5.296875 20.003906 5.410156 20.125 C 5.539062 20.269531 5.679688 20.402344 5.804688 20.546875 C 5.953125 20.707031 6.105469 20.859375 6.273438 20.996094 C 6.429688 21.132812 6.601562 21.253906 6.792969 21.339844 C 6.960938 21.421875 7.140625 21.484375 7.328125 21.496094 C 7.515625 21.511719 7.699219 21.492188 7.875 21.425781 C 8.007812 21.367188 8.136719 21.300781 8.257812 21.214844 C 8.371094 21.125 8.472656 21.019531 8.550781 20.894531 C 8.621094 20.777344 8.691406 20.664062 8.753906 20.542969 C 8.824219 20.402344 8.898438 20.257812 8.949219 20.109375 C 9.011719 19.972656 9.074219 19.839844 9.132812 19.699219 C 9.1875 19.578125 9.25 19.460938 9.335938 19.355469 C 9.40625 19.261719 9.488281 19.175781 9.589844 19.113281 C 9.699219 19.0625 9.8125 19.03125 9.9375 19.03125 C 10.054688 19.035156 10.164062 19.058594 10.265625 19.128906 C 10.386719 19.203125 10.496094 19.292969 10.597656 19.390625 C 10.734375 19.523438 10.867188 19.65625 11.003906 19.789062 C 11.15625 19.945312 11.304688 20.105469 11.460938 20.261719 C 11.644531 20.445312 11.824219 20.628906 12.015625 20.804688 C 12.21875 20.988281 12.429688 21.164062 12.660156 21.308594 C 12.882812 21.4375 13.105469 21.5625 13.351562 21.636719 C 13.585938 21.703125 13.828125 21.738281 14.070312 21.671875 C 14.273438 21.605469 14.433594 21.5 14.5625 21.328125 C 14.679688 21.1875 14.761719 21.027344 14.832031 20.859375 C 14.914062 20.703125 14.984375 20.539062 15.058594 20.378906 C 15.140625 20.203125 15.234375 20.027344 15.335938 19.859375 C 15.4375 19.71875 15.550781 19.582031 15.695312 19.472656 C 15.816406 19.390625 15.941406 19.328125 16.09375 19.328125 C 16.269531 19.328125 16.433594 19.351562 16.589844 19.4375 C 16.78125 19.539062 16.972656 19.648438 17.15625 19.761719 C 17.390625 19.914062 17.625 20.0625 17.863281 20.207031 C 18.132812 20.375 18.398438 20.546875 18.652344 20.734375 C 18.933594 20.945312 19.21875 21.148438 19.511719 21.332031 C 19.785156 21.507812 20.058594 21.683594 20.359375 21.808594 C 20.605469 21.910156 20.859375 22 21.132812 22 C 21.367188 21.988281 21.597656 21.941406 21.796875 21.808594 C 21.949219 21.691406 22.082031 21.546875 22.1875 21.378906 C 22.285156 21.21875 22.371094 21.058594 22.4375 20.882812 C 22.511719 20.691406 22.589844 20.503906 22.675781 20.316406 C 22.773438 20.117188 22.871094 19.917969 23 19.738281 C 23.117188 19.589844 23.246094 19.457031 23.417969 19.371094 C 23.589844 19.289062 23.765625 19.253906 23.957031 19.289062 C 24.195312 19.339844 24.414062 19.445312 24.628906 19.558594 C 24.902344 19.707031 25.171875 19.855469 25.4375 20.015625 C 25.722656 20.191406 26.015625 20.355469 26.292969 20.542969 C 26.539062 20.707031 26.792969 20.867188 27.042969 21.023438 C 27.199219 21.121094 27.359375 21.21875 27.53125 21.285156 C 28.046875 21.488281 28.195312 21.128906 27.675781 20.925781 Z M 27.675781 20.925781 "/>
<use xlink:href="#surface5" mask="url(#mask0)"/>
<path style=" stroke:none;fill-rule:nonzero;fill:rgb(33.333334%,33.333334%,33.333334%);fill-opacity:1;" d="M 7.328125 30.894531 C 8.089844 31.269531 8.773438 31.609375 9.566406 32 C 10.351562 30.320312 24.390625 2.691406 25.132812 1.105469 C 24.371094 0.730469 23.6875 0.390625 22.894531 0 C 22.109375 1.679688 8.070312 29.308594 7.328125 30.894531 Z M 7.328125 30.894531 "/>
</g>
</svg>
