<?xml version="1.0" encoding="UTF-8"?>
<svg xmlns="http://www.w3.org/2000/svg" xmlns:xlink="http://www.w3.org/1999/xlink" width="32px" height="32px" viewBox="0 0 32 32" version="1.1">
<g id="surface1">
<path style=" stroke:none;fill-rule:nonzero;fill:rgb(61.56863%,22.745098%,60.784316%);fill-opacity:1;" d="M 3 13 L 11 13 C 11.550781 13 12 13.449219 12 14 L 12 18 C 12 18.550781 11.550781 19 11 19 L 3 19 C 2.449219 19 2 18.550781 2 18 L 2 14 C 2 13.449219 2.449219 13 3 13 Z M 3 13 "/>
<path style=" stroke:none;fill-rule:nonzero;fill:rgb(90.196079%,0.784314%,70.588237%);fill-opacity:1;" d="M 15 28 L 27 28 C 27.550781 28 28 28.449219 28 29 C 28 29.550781 27.550781 30 27 30 L 15 30 C 14.449219 30 14 29.550781 14 29 C 14 28.449219 14.449219 28 15 28 Z M 15 28 "/>
<path style=" stroke:none;fill-rule:nonzero;fill:rgb(90.196079%,0.784314%,70.588237%);fill-opacity:1;" d="M 15 4 L 27 4 C 27.550781 4 28 4.449219 28 5 C 28 5.550781 27.550781 6 27 6 L 15 6 C 14.449219 6 14 5.550781 14 5 C 14 4.449219 14.449219 4 15 4 Z M 15 4 "/>
<path style=" stroke:none;fill-rule:nonzero;fill:rgb(90.196079%,0.784314%,70.588237%);fill-opacity:1;" d="M 15 10 L 27 10 C 27.550781 10 28 10.449219 28 11 C 28 11.550781 27.550781 12 27 12 L 15 12 C 14.449219 12 14 11.550781 14 11 C 14 10.449219 14.449219 10 15 10 Z M 15 10 "/>
<path style=" stroke:none;fill-rule:nonzero;fill:rgb(90.196079%,0.784314%,70.588237%);fill-opacity:1;" d="M 15 16 L 27 16 C 27.550781 16 28 16.449219 28 17 C 28 17.550781 27.550781 18 27 18 L 15 18 C 14.449219 18 14 17.550781 14 17 C 14 16.449219 14.449219 16 15 16 Z M 15 16 "/>
<path style=" stroke:none;fill-rule:nonzero;fill:rgb(90.196079%,0.784314%,70.588237%);fill-opacity:1;" d="M 21 22 L 27 22 C 27.550781 22 28 22.449219 28 23 C 28 23.550781 27.550781 24 27 24 L 21 24 C 20.449219 24 20 23.550781 20 23 C 20 22.449219 20.449219 22 21 22 Z M 21 22 "/>
<path style=" stroke:none;fill-rule:nonzero;fill:rgb(94.117647%,89.019608%,92.54902%);fill-opacity:1;" d="M 4.265625 15 L 9.734375 15 C 9.882812 15 10 15.117188 10 15.265625 L 10 16.734375 C 10 16.882812 9.882812 17 9.734375 17 L 4.265625 17 C 4.117188 17 4 16.882812 4 16.734375 L 4 15.265625 C 4 15.117188 4.117188 15 4.265625 15 Z M 4.265625 15 "/>
</g>
</svg>
