<?xml version="1.0" encoding="UTF-8"?>
<svg xmlns="http://www.w3.org/2000/svg" xmlns:xlink="http://www.w3.org/1999/xlink" width="32px" height="32px" viewBox="0 0 32 32" version="1.1">
<defs>
<filter id="alpha" filterUnits="objectBoundingBox" x="0%" y="0%" width="100%" height="100%">
  <feColorMatrix type="matrix" in="SourceGraphic" values="0 0 0 0 1 0 0 0 0 1 0 0 0 0 1 0 0 0 1 0"/>
</filter>
<mask id="mask0">
  <g filter="url(#alpha)">
<rect x="0" y="0" width="32" height="32" style="fill:rgb(0%,0%,0%);fill-opacity:0.57;stroke:none;"/>
  </g>
</mask>
<clipPath id="clip1">
  <rect x="0" y="0" width="32" height="32"/>
</clipPath>
<g id="surface5" clip-path="url(#clip1)">
<path style=" stroke:none;fill-rule:nonzero;fill:rgb(32.156864%,32.156864%,32.156864%);fill-opacity:1;" d="M 4.414062 4.101562 C 3.113281 4.105469 2.0625 5.140625 2.0625 6.425781 L 2.0625 25.554688 C 2.0625 26.839844 3.113281 27.882812 4.414062 27.878906 L 11.453125 27.847656 C 13.8125 21.128906 17.453125 12.085938 20.21875 4.070312 Z M 4.414062 4.101562 "/>
</g>
</defs>
<g id="surface1">
<path style="fill-rule:nonzero;fill:rgb(94.117647%,89.019608%,92.54902%);fill-opacity:1;stroke-width:1;stroke-linecap:round;stroke-linejoin:round;stroke:rgb(90.196079%,0.784314%,70.588237%);stroke-opacity:1;stroke-miterlimit:4;" d="M 2.5 2.5 C 1.990234 2.5 1.580078 2.908203 1.580078 3.414062 L 1.580078 12.558594 C 1.580078 13.064453 1.990234 13.472656 2.5 13.472656 L 13.541016 13.472656 C 14.050781 13.472656 14.460938 13.064453 14.460938 12.558594 L 14.460938 3.414062 C 14.460938 2.908203 14.050781 2.5 13.541016 2.5 C 13.541016 3.005859 13.130859 3.414062 12.621094 3.414062 L 11.701172 3.414062 C 11.191406 3.414062 10.78125 3.005859 10.78125 2.5 Z M 2.5 2.5 " transform="matrix(2,0,0,2,0,0)"/>
<path style="fill-rule:nonzero;fill:rgb(95.294118%,71.764708%,85.09804%);fill-opacity:1;stroke-width:0.25;stroke-linecap:round;stroke-linejoin:round;stroke:rgb(61.56863%,22.745098%,60.784316%);stroke-opacity:1;stroke-miterlimit:4;" d="M 3.5 5 L 12.5 5 C 13.052734 5 13.5 5.447266 13.5 6 L 13.5 11.5 C 13.5 12.052734 13.052734 12.5 12.5 12.5 L 3.5 12.5 C 2.947266 12.5 2.5 12.052734 2.5 11.5 L 2.5 6 C 2.5 5.447266 2.947266 5 3.5 5 Z M 3.5 5 " transform="matrix(2,0,0,2,0,0)"/>
<use xlink:href="#surface5" mask="url(#mask0)"/>
<path style=" stroke:none;fill-rule:nonzero;fill:rgb(33.333334%,33.333334%,33.333334%);fill-opacity:1;" d="M 9.832031 31.257812 C 10.628906 31.507812 11.34375 31.734375 12.175781 32 C 12.707031 30.308594 22.503906 2.339844 23 0.742188 C 22.203125 0.492188 21.488281 0.265625 20.65625 0 C 20.125 1.691406 10.328125 29.664062 9.832031 31.257812 Z M 9.832031 31.257812 "/>
</g>
</svg>
