<?xml version="1.0" encoding="UTF-8"?>
<svg xmlns="http://www.w3.org/2000/svg" xmlns:xlink="http://www.w3.org/1999/xlink" width="32px" height="32px" viewBox="0 0 32 32" version="1.1">
<defs>
<filter id="alpha" filterUnits="objectBoundingBox" x="0%" y="0%" width="100%" height="100%">
  <feColorMatrix type="matrix" in="SourceGraphic" values="0 0 0 0 1 0 0 0 0 1 0 0 0 0 1 0 0 0 1 0"/>
</filter>
<mask id="mask0">
  <g filter="url(#alpha)">
<rect x="0" y="0" width="32" height="32" style="fill:rgb(0%,0%,0%);fill-opacity:0.57;stroke:none;"/>
  </g>
</mask>
<clipPath id="clip1">
  <rect x="0" y="0" width="32" height="32"/>
</clipPath>
<g id="surface5" clip-path="url(#clip1)">
<path style=" stroke:none;fill-rule:nonzero;fill:rgb(32.156864%,32.156864%,32.156864%);fill-opacity:1;" d="M 2 1.949219 L 2 26 L 11.140625 26 L 22.464844 4.335938 L 23.324219 1.972656 Z M 2 1.949219 "/>
</g>
</defs>
<g id="surface1">
<path style=" stroke:none;fill-rule:nonzero;fill:rgb(61.56863%,22.745098%,60.784316%);fill-opacity:1;" d="M 2 3.625 L 30 3.625 L 30 26.375 L 2 26.375 Z M 2 3.625 "/>
<path style=" stroke:none;fill-rule:nonzero;fill:rgb(94.117647%,89.019608%,92.54902%);fill-opacity:1;" d="M 2 1.992188 L 30 1.992188 L 30 21.992188 L 2 21.992188 Z M 2 1.992188 "/>
<path style=" stroke:none;fill-rule:nonzero;fill:rgb(95.294118%,71.764708%,85.09804%);fill-opacity:1;" d="M 2.277344 1.992188 L 2.277344 21.992188 L 29.867188 21.992188 L 29.867188 1.992188 Z M 4 2.992188 L 10.898438 2.992188 L 10.898438 7.992188 L 4 7.992188 Z M 12.621094 2.992188 L 19.519531 2.992188 L 19.519531 7.992188 L 12.621094 7.992188 Z M 21.246094 2.992188 L 28.140625 2.992188 L 28.140625 7.992188 L 21.246094 7.992188 Z M 4 8.992188 L 10.898438 8.992188 L 10.898438 13.992188 L 4 13.992188 Z M 12.621094 8.992188 L 19.519531 8.992188 L 19.519531 13.992188 L 12.621094 13.992188 Z M 21.246094 8.992188 L 28.140625 8.992188 L 28.140625 13.992188 L 21.246094 13.992188 Z M 4 14.992188 L 10.898438 14.992188 L 10.898438 21.570312 L 4 21.570312 Z M 12.621094 14.992188 L 19.519531 14.992188 L 19.519531 21.570312 L 12.621094 21.570312 Z M 21.246094 14.992188 L 28.140625 14.992188 L 28.140625 21.570312 L 21.246094 21.570312 Z M 21.246094 14.992188 "/>
<path style=" stroke:none;fill-rule:nonzero;fill:rgb(94.117647%,89.019608%,92.54902%);fill-opacity:1;" d="M 12 1.992188 L 20 1.992188 L 20 21.992188 L 12 21.992188 Z M 12 1.992188 "/>
<path style=" stroke:none;fill-rule:nonzero;fill:rgb(90.196079%,0.784314%,70.588237%);fill-opacity:1;" d="M 10 1.992188 L 10 21.992188 L 22 21.992188 L 22 1.992188 Z M 12 2.992188 L 20 2.992188 L 20 7.992188 L 12 7.992188 Z M 12 8.992188 L 20 8.992188 L 20 13.992188 L 12 13.992188 Z M 12 14.992188 L 20 14.992188 L 20 21.570312 L 12 21.570312 Z M 12 14.992188 "/>
<use xlink:href="#surface5" mask="url(#mask0)"/>
<path style=" stroke:none;fill-rule:nonzero;fill:rgb(33.333334%,33.333334%,33.333334%);fill-opacity:1;" d="M 6.792969 30.894531 C 7.542969 31.269531 8.21875 31.609375 9.003906 32 C 9.777344 30.320312 23.652344 2.691406 24.382812 1.105469 C 23.632812 0.730469 22.957031 0.390625 22.171875 0 C 21.394531 1.679688 7.523438 29.308594 6.792969 30.894531 Z M 6.792969 30.894531 "/>
</g>
</svg>
