<?xml version="1.0" encoding="UTF-8"?>
<svg xmlns="http://www.w3.org/2000/svg" xmlns:xlink="http://www.w3.org/1999/xlink" width="32px" height="32px" viewBox="0 0 32 32" version="1.1">
<defs>
<filter id="alpha" filterUnits="objectBoundingBox" x="0%" y="0%" width="100%" height="100%">
  <feColorMatrix type="matrix" in="SourceGraphic" values="0 0 0 0 1 0 0 0 0 1 0 0 0 0 1 0 0 0 1 0"/>
</filter>
<mask id="mask0">
  <g filter="url(#alpha)">
<rect x="0" y="0" width="32" height="32" style="fill:rgb(0%,0%,0%);fill-opacity:0.891386;stroke:none;"/>
  </g>
</mask>
<clipPath id="clip1">
  <rect x="0" y="0" width="32" height="32"/>
</clipPath>
<g id="surface5" clip-path="url(#clip1)">
<path style="fill-rule:nonzero;fill:rgb(95.294118%,71.764708%,85.09804%);fill-opacity:1;stroke-width:0.66752;stroke-linecap:round;stroke-linejoin:round;stroke:rgb(90.196079%,0.784314%,70.588237%);stroke-opacity:1;stroke-miterlimit:4;" d="M 6.726562 12.191406 L 9.791016 7.201172 L 12.837891 12.201172 Z M 6.726562 12.191406 " transform="matrix(2,0,0,2,0,0)"/>
</g>
</defs>
<g id="surface1">
<path style=" stroke:none;fill-rule:nonzero;fill:rgb(94.117647%,89.019608%,92.54902%);fill-opacity:1;" d="M 4.753906 4 L 4.753906 4.007812 L 4.089844 4.007812 C 3.191406 4.007812 2 4.746094 2 5.664062 L 2 26.335938 C 2 27.253906 3.191406 27.992188 4.089844 27.992188 L 4.753906 27.992188 L 4.753906 28 L 27.246094 28 L 27.246094 27.992188 L 27.910156 27.992188 C 28.808594 27.992188 30 27.253906 30 26.335938 L 30 5.664062 C 30 4.746094 28.808594 4.007812 27.910156 4.007812 L 27.246094 4.007812 L 27.246094 4 Z M 4.753906 4 "/>
<path style=" stroke:none;fill-rule:nonzero;fill:rgb(90.196079%,0.784314%,70.588237%);fill-opacity:1;" d="M 20.191406 7.363281 C 24.0625 7.363281 27.199219 10.332031 27.199219 13.996094 C 27.199219 17.660156 24.0625 20.628906 20.191406 20.628906 C 16.320312 20.628906 13.183594 17.660156 13.183594 13.996094 C 13.183594 10.332031 16.320312 7.363281 20.191406 7.363281 Z M 20.191406 7.363281 "/>
<path style=" stroke:none;fill-rule:evenodd;fill:rgb(95.294118%,71.764708%,85.09804%);fill-opacity:1;" d="M 20.191406 8.875 C 23.179688 8.875 25.601562 11.15625 25.601562 13.972656 C 25.601562 16.789062 23.179688 19.070312 20.191406 19.070312 C 17.203125 19.070312 14.78125 16.789062 14.78125 13.972656 C 14.78125 11.15625 17.203125 8.875 20.191406 8.875 Z M 20.191406 8.875 "/>
<path style=" stroke:none;fill-rule:nonzero;fill:rgb(90.196079%,0.784314%,70.588237%);fill-opacity:1;" d="M 6.300781 10 L 17.296875 10 C 17.464844 10 17.601562 10.125 17.601562 10.273438 L 17.601562 21.757812 C 17.601562 21.910156 17.464844 22.03125 17.296875 22.03125 L 6.300781 22.03125 C 6.136719 22.03125 6 21.910156 6 21.757812 L 6 10.273438 C 6 10.125 6.136719 10 6.300781 10 Z M 6.300781 10 "/>
<path style=" stroke:none;fill-rule:evenodd;fill:rgb(95.294118%,71.764708%,85.09804%);fill-opacity:1;" d="M 8.183594 12 L 15.816406 12 C 15.917969 12 16 12.082031 16 12.183594 L 16 19.816406 C 16 19.917969 15.917969 20 15.816406 20 L 8.183594 20 C 8.082031 20 8 19.917969 8 19.816406 L 8 12.183594 C 8 12.082031 8.082031 12 8.183594 12 Z M 8.183594 12 "/>
<use xlink:href="#surface5" mask="url(#mask0)"/>
<path style=" stroke:none;fill-rule:nonzero;fill:rgb(90.196079%,0.784314%,70.588237%);fill-opacity:1;" d="M 4.753906 4 L 4.753906 4.007812 L 4.089844 4.007812 C 3.191406 4.007812 2 4.746094 2 5.664062 L 2 26.335938 C 2 27.253906 3.191406 27.992188 4.089844 27.992188 L 4.753906 27.992188 L 4.753906 28 L 27.246094 28 L 27.246094 27.992188 L 27.910156 27.992188 C 28.808594 27.992188 30 27.253906 30 26.335938 L 30 5.664062 C 30 4.746094 28.808594 4.007812 27.910156 4.007812 L 27.246094 4.007812 L 27.246094 4 Z M 5.9375 6 L 25.9375 6 L 25.9375 6.007812 L 26.523438 6.007812 C 27.324219 6.007812 27.976562 6.277344 27.976562 7.082031 L 28 24.675781 C 28 25.480469 27.410156 26 26.609375 26 L 26.019531 26 L 26.019531 26.007812 L 6.023438 26.007812 L 6.023438 26 L 5.433594 26 C 4.636719 26 4 25.355469 4 24.550781 L 3.976562 6.957031 C 3.976562 6.152344 4.554688 5.921875 5.351562 6.007812 L 5.9375 6.007812 Z M 5.9375 6 "/>
</g>
</svg>
