<?xml version="1.0" encoding="UTF-8"?>
<svg xmlns="http://www.w3.org/2000/svg" xmlns:xlink="http://www.w3.org/1999/xlink" width="32px" height="32px" viewBox="0 0 32 32" version="1.1">
<g id="surface1">
<path style=" stroke:none;fill-rule:nonzero;fill:rgb(90.196079%,0.784314%,70.588237%);fill-opacity:1;" d="M 4.183594 4 L 27.816406 4 C 29.023438 4 30 4.976562 30 6.183594 L 30 25.816406 C 30 27.023438 29.023438 28 27.816406 28 L 4.183594 28 C 2.976562 28 2 27.023438 2 25.816406 L 2 6.183594 C 2 4.976562 2.976562 4 4.183594 4 Z M 4.183594 4 "/>
<path style=" stroke:none;fill-rule:nonzero;fill:rgb(94.117647%,89.019608%,92.54902%);fill-opacity:1;" d="M 6 6 L 26 6 C 27.105469 6 28 6.894531 28 8 L 28 24 C 28 25.105469 27.105469 26 26 26 L 6 26 C 4.894531 26 4 25.105469 4 24 L 4 8 C 4 6.894531 4.894531 6 6 6 Z M 6 6 "/>
<path style=" stroke:none;fill-rule:nonzero;fill:rgb(90.196079%,0.784314%,70.588237%);fill-opacity:1;" d="M 9.183594 12.335938 C 8.5 12.390625 7.839844 12.710938 7.359375 13.273438 L 4 17.214844 L 4 24 C 4 25.109375 4.890625 26 6 26 L 26 26 C 26.121094 26 26.226562 25.953125 26.339844 25.933594 L 11.136719 12.972656 C 10.574219 12.492188 9.867188 12.28125 9.183594 12.335938 Z M 9.183594 12.335938 "/>
<path style=" stroke:none;fill-rule:nonzero;fill:rgb(61.56863%,22.745098%,60.784316%);fill-opacity:1;" d="M 12.925781 19.78125 C 12.347656 19.761719 11.761719 19.964844 11.304688 20.394531 L 5.4375 25.886719 C 5.617188 25.941406 5.800781 26 6 26 L 19.65625 26 L 14.503906 20.5 C 14.074219 20.042969 13.503906 19.800781 12.925781 19.78125 Z M 12.925781 19.78125 "/>
<path style=" stroke:none;fill-rule:nonzero;fill:rgb(61.56863%,22.745098%,60.784316%);fill-opacity:1;" d="M 23.4375 15.15625 C 22.921875 15.15625 22.40625 15.351562 22.007812 15.746094 L 11.96875 25.722656 C 11.886719 25.804688 11.851562 25.910156 11.785156 26 L 26 26 C 27.109375 26 28 25.109375 28 24 L 28 18.90625 L 24.867188 15.753906 C 24.472656 15.355469 23.953125 15.15625 23.4375 15.15625 Z M 23.4375 15.15625 "/>
<path style=" stroke:none;fill-rule:nonzero;fill:rgb(95.294118%,71.764708%,85.09804%);fill-opacity:1;" d="M 18.1875 18.890625 C 17.609375 18.871094 17.023438 19.070312 16.566406 19.496094 L 9.59375 26 L 25.722656 26 L 19.765625 19.609375 C 19.339844 19.152344 18.765625 18.910156 18.1875 18.890625 Z M 18.1875 18.890625 "/>
<path style=" stroke:none;fill-rule:nonzero;fill:rgb(61.56863%,22.745098%,60.784316%);fill-opacity:1;" d="M 19.152344 10.542969 C 19.152344 11.371094 18.480469 12.042969 17.652344 12.042969 C 16.820312 12.042969 16.152344 11.371094 16.152344 10.542969 C 16.152344 9.710938 16.820312 9.042969 17.652344 9.042969 C 18.480469 9.042969 19.152344 9.710938 19.152344 10.542969 Z M 19.152344 10.542969 "/>
<path style=" stroke:none;fill-rule:nonzero;fill:rgb(95.294118%,71.764708%,85.09804%);fill-opacity:1;" d="M 5.925781 21.125 C 5.347656 21.105469 4.765625 21.308594 4.308594 21.738281 L 4 22.027344 L 4 24 C 4 25.109375 4.890625 26 6 26 L 11.398438 26 L 7.503906 21.84375 C 7.074219 21.386719 6.503906 21.144531 5.925781 21.125 Z M 5.925781 21.125 "/>
<path style=" stroke:none;fill-rule:nonzero;fill:rgb(90.196079%,0.784314%,70.588237%);fill-opacity:1;" d="M 24.816406 20.742188 C 24.238281 20.722656 23.652344 20.921875 23.195312 21.351562 L 18.234375 26 L 26 26 C 27.109375 26 28 25.109375 28 24 L 28 23.171875 L 26.394531 21.457031 C 25.964844 21 25.394531 20.761719 24.816406 20.742188 Z M 24.816406 20.742188 "/>
<path style="fill-rule:nonzero;fill:rgb(95.294118%,71.764708%,85.09804%);fill-opacity:1;stroke-width:0.388796;stroke-linecap:butt;stroke-linejoin:miter;stroke:rgb(61.56863%,22.745098%,60.784316%);stroke-opacity:1;stroke-miterlimit:4;" d="M 13.900392 1.911022 L 12.700251 3.510233 L 14.297891 4.712157 L 15.500581 3.112945 L 15.001159 2.112181 Z M 13.900392 1.911022 " transform="matrix(1.533023,0,0,1.5535,5.12398,8.441383)"/>
<path style="fill-rule:nonzero;fill:rgb(95.294118%,71.764708%,85.09804%);fill-opacity:1;stroke-width:0.259197;stroke-linecap:butt;stroke-linejoin:miter;stroke:rgb(61.56863%,22.745098%,60.784316%);stroke-opacity:1;stroke-miterlimit:4;" d="M 7.792666 11.707449 L 8.195261 9.507276 L 8.895981 9.406697 L 8.786414 9.95234 L 9.301124 9.713464 L 9.186461 10.251563 L 9.703719 10.015202 L 9.79545 10.709199 L 7.792666 11.707449 " transform="matrix(1.533023,0,0,1.5535,5.12398,8.441383)"/>
<path style="fill-rule:nonzero;fill:rgb(61.56863%,22.745098%,60.784316%);fill-opacity:1;stroke-width:0.129599;stroke-linecap:butt;stroke-linejoin:miter;stroke:rgb(61.56863%,22.745098%,60.784316%);stroke-opacity:1;stroke-miterlimit:4;" d="M 8.134108 10.593533 L 8.676847 11.041111 L 7.795214 11.714993 Z M 8.134108 10.593533 " transform="matrix(1.533023,0,0,1.5535,5.12398,8.441383)"/>
<path style="fill-rule:nonzero;fill:rgb(90.196079%,0.784314%,70.588237%);fill-opacity:1;stroke-width:0.129599;stroke-linecap:butt;stroke-linejoin:miter;stroke:rgb(61.56863%,22.745098%,60.784316%);stroke-opacity:1;stroke-miterlimit:4;" d="M 12.700251 3.510233 L 14.297891 4.712157 L 9.79545 10.709199 L 9.703719 10.015202 L 9.186461 10.251563 L 9.229778 9.796442 L 8.786414 9.95234 L 8.839923 9.482131 L 8.195261 9.507276 Z M 12.700251 3.510233 " transform="matrix(1.533023,0,0,1.5535,5.12398,8.441383)"/>
<path style="fill:none;stroke-width:0.90719;stroke-linecap:butt;stroke-linejoin:round;stroke:rgb(61.56863%,22.745098%,60.784316%);stroke-opacity:1;stroke-miterlimit:4;" d="M 13.59972 2.310825 L 8.195261 9.507276 L 7.494542 12.107252 L 9.79545 10.709199 L 15.199908 3.512748 C 15.997454 2.479295 14.432939 1.234626 13.59972 2.310825 Z M 13.59972 2.310825 " transform="matrix(1.533023,0,0,1.5535,5.12398,8.441383)"/>
</g>
</svg>
