<?xml version="1.0" encoding="UTF-8"?>
<svg xmlns="http://www.w3.org/2000/svg" xmlns:xlink="http://www.w3.org/1999/xlink" width="32px" height="32px" viewBox="0 0 32 32" version="1.1">
<g id="surface1">
<path style="fill-rule:nonzero;fill:rgb(95.294118%,71.764708%,85.09804%);fill-opacity:1;stroke-width:1.060069;stroke-linecap:butt;stroke-linejoin:miter;stroke:rgb(90.196079%,0.784314%,70.588237%);stroke-opacity:1;stroke-miterlimit:4;" d="M 1.86869 0.999999 L 14.13131 0.999999 C 14.610878 0.999999 15 1.466711 15 2.043477 L 15 4.955842 C 15 5.532608 14.610878 5.99932 14.13131 5.99932 L 1.86869 5.99932 C 1.389123 5.99932 1 5.532608 1 4.955842 L 1 2.043477 C 1 1.466711 1.389123 0.999999 1.86869 0.999999 Z M 1.86869 0.999999 " transform="matrix(1.857143,0,0,1.916667,1.142857,1.083335)"/>
<path style="fill-rule:nonzero;fill:rgb(95.294118%,71.764708%,85.09804%);fill-opacity:1;stroke-width:1.060069;stroke-linecap:round;stroke-linejoin:round;stroke:rgb(90.196079%,0.784314%,70.588237%);stroke-opacity:1;stroke-miterlimit:4;" d="M 1 5.173912 L 15 5.173912 L 15 13.521739 L 1 13.521739 Z M 1 5.173912 " transform="matrix(1.857143,0,0,1.916667,1.142857,1.083335)"/>
<path style=" stroke:none;fill-rule:nonzero;fill:rgb(61.56863%,22.745098%,60.784316%);fill-opacity:1;" d="M 14.855469 13.964844 L 26 13.964844 L 26 16 L 14.855469 16 Z M 14.855469 13.964844 "/>
<path style=" stroke:none;fill-rule:nonzero;fill:rgb(61.56863%,22.745098%,60.784316%);fill-opacity:1;" d="M 14.855469 22.101562 L 26 22.101562 L 26 24.132812 L 14.855469 24.132812 Z M 14.855469 22.101562 "/>
<path style=" stroke:none;fill-rule:nonzero;fill:rgb(61.56863%,22.745098%,60.784316%);fill-opacity:1;" d="M 7.429688 13.964844 L 11.144531 13.964844 L 11.144531 16 L 7.429688 16 Z M 7.429688 13.964844 "/>
<path style=" stroke:none;fill-rule:nonzero;fill:rgb(61.56863%,22.745098%,60.784316%);fill-opacity:1;" d="M 6 22.101562 L 10 22.101562 L 10 24.132812 L 6 24.132812 Z M 6 22.101562 "/>
<path style=" stroke:none;fill-rule:nonzero;fill:rgb(61.56863%,22.745098%,60.784316%);fill-opacity:1;" d="M 14.855469 18.035156 L 26 18.035156 L 26 20.066406 L 14.855469 20.066406 Z M 14.855469 18.035156 "/>
<path style=" stroke:none;fill-rule:nonzero;fill:rgb(61.56863%,22.745098%,60.784316%);fill-opacity:1;" d="M 6 17.964844 L 9.714844 17.964844 L 9.714844 20 L 6 20 Z M 6 17.964844 "/>
<path style="fill-rule:nonzero;fill:rgb(94.117647%,89.019608%,92.54902%);fill-opacity:1;stroke-width:2.000003;stroke-linecap:butt;stroke-linejoin:miter;stroke:rgb(94.117647%,89.019608%,92.54902%);stroke-opacity:1;stroke-miterlimit:4;" d="M 1.46506 -12.257057 C 1.465401 -10.385228 -0.0458075 -8.867711 -1.909212 -8.86598 C -3.772114 -8.866135 -5.282664 -10.384456 -5.283005 -12.256286 C -5.283346 -14.128115 -3.772138 -15.645632 -1.908733 -15.647363 C -0.0458311 -15.647208 1.464719 -14.128887 1.46506 -12.257057 Z M 1.46506 -12.257057 " transform="matrix(-1.931168,0.520183,-0.515103,-1.932529,1,-12)"/>
<path style="fill-rule:nonzero;fill:rgb(94.117647%,89.019608%,92.54902%);fill-opacity:1;stroke-width:1.000002;stroke-linecap:butt;stroke-linejoin:miter;stroke:rgb(90.196079%,0.784314%,70.588237%);stroke-opacity:1;stroke-miterlimit:4;" d="M 1.46506 -12.257057 C 1.465401 -10.385228 -0.0458075 -8.867711 -1.909212 -8.86598 C -3.772114 -8.866135 -5.282664 -10.384456 -5.283005 -12.256286 C -5.283346 -14.128115 -3.772138 -15.645632 -1.908733 -15.647363 C -0.0458311 -15.647208 1.464719 -14.128887 1.46506 -12.257057 Z M 1.46506 -12.257057 " transform="matrix(-1.931168,0.520183,-0.515103,-1.932529,1,-12)"/>
<path style="fill:none;stroke-width:1.625429;stroke-linecap:round;stroke-linejoin:miter;stroke:rgb(90.196079%,0.784314%,70.588237%);stroke-opacity:1;stroke-miterlimit:4;" d="M 13.49556 7.169935 L 20.492622 7.169935 " transform="matrix(1.230427,0,0,1.230462,-9.90999,1.872977)"/>
<path style="fill:none;stroke-width:1.625429;stroke-linecap:round;stroke-linejoin:miter;stroke:rgb(90.196079%,0.784314%,70.588237%);stroke-opacity:1;stroke-miterlimit:4;" d="M 16.994091 10.668366 L 16.994091 3.66833 " transform="matrix(1.230427,0,0,1.230462,-9.90999,1.872977)"/>
</g>
</svg>
