<?xml version="1.0" encoding="UTF-8"?>
<svg xmlns="http://www.w3.org/2000/svg" xmlns:xlink="http://www.w3.org/1999/xlink" width="32px" height="32px" viewBox="0 0 32 32" version="1.1">
<g id="surface1">
<path style="fill-rule:nonzero;fill:rgb(94.117647%,89.019608%,92.54902%);fill-opacity:1;stroke-width:1;stroke-linecap:round;stroke-linejoin:round;stroke:rgb(90.196079%,0.784314%,70.588237%);stroke-opacity:1;stroke-miterlimit:4;" d="M 2.476562 2.5 C 1.960938 2.5 1.548828 2.908203 1.548828 3.416016 L 1.548828 12.583984 C 1.548828 13.091797 1.960938 13.5 2.476562 13.5 L 13.611328 13.5 C 14.125 13.5 14.539062 13.091797 14.539062 12.583984 L 14.539062 3.416016 C 14.539062 2.908203 14.125 2.5 13.611328 2.5 C 13.611328 3.007812 13.197266 3.416016 12.683594 3.416016 L 11.755859 3.416016 C 11.242188 3.416016 10.828125 3.007812 10.828125 2.5 Z M 2.476562 2.5 " transform="matrix(2,0,0,2,0,0)"/>
<path style="fill-rule:nonzero;fill:rgb(95.294118%,71.764708%,85.09804%);fill-opacity:1;stroke-width:0.5;stroke-linecap:round;stroke-linejoin:round;stroke:rgb(61.56863%,22.745098%,60.784316%);stroke-opacity:1;stroke-miterlimit:4;" d="M 4.240234 6.263672 L 11.736328 6.263672 C 12.289062 6.263672 12.736328 6.710938 12.736328 7.263672 L 12.736328 10.759766 C 12.736328 11.3125 12.289062 11.759766 11.736328 11.759766 L 4.240234 11.759766 C 3.6875 11.759766 3.240234 11.3125 3.240234 10.759766 L 3.240234 7.263672 C 3.240234 6.710938 3.6875 6.263672 4.240234 6.263672 Z M 4.240234 6.263672 " transform="matrix(2,0,0,2,0,0)"/>
<path style="fill:none;stroke-width:1;stroke-linecap:round;stroke-linejoin:round;stroke:rgb(61.56863%,22.745098%,60.784316%);stroke-opacity:1;stroke-miterlimit:4;" d="M 1.5 8 L 11 8 " transform="matrix(2,0,0,2,0,0)"/>
<path style="fill:none;stroke-width:1;stroke-linecap:round;stroke-linejoin:round;stroke:rgb(61.56863%,22.745098%,60.784316%);stroke-opacity:1;stroke-miterlimit:4;" d="M 6.5 3 L 11 8 L 6.5 13 " transform="matrix(2,0,0,2,0,0)"/>
</g>
</svg>
