<?xml version="1.0" encoding="UTF-8"?>
<svg xmlns="http://www.w3.org/2000/svg" xmlns:xlink="http://www.w3.org/1999/xlink" width="32px" height="32px" viewBox="0 0 32 32" version="1.1">
<defs>
<clipPath id="clip1">
  <path d="M 3 16 L 13 16 L 13 24 L 3 24 Z M 3 16 "/>
</clipPath>
<clipPath id="clip2">
  <path d="M 1.398438 16 L 14.285156 16 C 15.285156 16 16.09375 16.8125 16.09375 17.816406 L 16.09375 22.457031 C 16.09375 23.460938 15.285156 24.273438 14.285156 24.273438 L 1.398438 24.273438 C 0.398438 24.273438 -0.414062 23.460938 -0.414062 22.457031 L -0.414062 17.816406 C -0.414062 16.8125 0.398438 16 1.398438 16 Z M 1.398438 16 "/>
</clipPath>
<clipPath id="clip3">
  <path d="M 2 16 L 14 16 L 14 25 L 2 25 Z M 2 16 "/>
</clipPath>
<clipPath id="clip4">
  <path d="M 1.398438 16 L 14.285156 16 C 15.285156 16 16.09375 16.8125 16.09375 17.816406 L 16.09375 22.457031 C 16.09375 23.460938 15.285156 24.273438 14.285156 24.273438 L 1.398438 24.273438 C 0.398438 24.273438 -0.414062 23.460938 -0.414062 22.457031 L -0.414062 17.816406 C -0.414062 16.8125 0.398438 16 1.398438 16 Z M 1.398438 16 "/>
</clipPath>
<clipPath id="clip5">
  <path d="M 3 8 L 13 8 L 13 16 L 3 16 Z M 3 8 "/>
</clipPath>
<clipPath id="clip6">
  <path d="M 1.398438 16 L 14.285156 16 C 15.285156 16 16.09375 15.1875 16.09375 14.183594 L 16.09375 9.542969 C 16.09375 8.539062 15.285156 7.726562 14.285156 7.726562 L 1.398438 7.726562 C 0.398438 7.726562 -0.414062 8.539062 -0.414062 9.542969 L -0.414062 14.183594 C -0.414062 15.1875 0.398438 16 1.398438 16 Z M 1.398438 16 "/>
</clipPath>
<clipPath id="clip7">
  <path d="M 2 7 L 14 7 L 14 16 L 2 16 Z M 2 7 "/>
</clipPath>
<clipPath id="clip8">
  <path d="M 1.398438 16 L 14.285156 16 C 15.285156 16 16.09375 15.1875 16.09375 14.183594 L 16.09375 9.542969 C 16.09375 8.539062 15.285156 7.726562 14.285156 7.726562 L 1.398438 7.726562 C 0.398438 7.726562 -0.414062 8.539062 -0.414062 9.542969 L -0.414062 14.183594 C -0.414062 15.1875 0.398438 16 1.398438 16 Z M 1.398438 16 "/>
</clipPath>
</defs>
<g id="surface1">
<path style=" stroke:none;fill-rule:nonzero;fill:rgb(90.196079%,0.784314%,70.588237%);fill-opacity:1;" d="M 3.152344 2 L 27 2 C 27.550781 2 28 2.449219 28 3 L 28 3.152344 C 28 3.707031 27.550781 4.152344 27 4.152344 L 3.152344 4.152344 C 2.601562 4.152344 2.152344 3.707031 2.152344 3.152344 L 2.152344 3 C 2.152344 2.449219 2.601562 2 3.152344 2 Z M 3.152344 2 "/>
<g clip-path="url(#clip1)" clip-rule="nonzero">
<g clip-path="url(#clip2)" clip-rule="nonzero">
<path style=" stroke:none;fill-rule:evenodd;fill:rgb(95.294118%,71.764708%,85.09804%);fill-opacity:1;" d="M 3 8.984375 L 13 16 L 3 23.015625 Z M 3 8.984375 "/>
</g>
</g>
<g clip-path="url(#clip3)" clip-rule="nonzero">
<g clip-path="url(#clip4)" clip-rule="nonzero">
<path style="fill:none;stroke-width:0.264288;stroke-linecap:butt;stroke-linejoin:round;stroke:rgb(61.56863%,22.745098%,60.784316%);stroke-opacity:1;stroke-miterlimit:4;" d="M 13.092695 279.631964 L 14.415601 280.558007 L 13.092695 281.48405 Z M 13.092695 279.631964 " transform="matrix(7.559115,0,0,7.575914,-95.969187,-2109.483263)"/>
</g>
</g>
<g clip-path="url(#clip5)" clip-rule="nonzero">
<g clip-path="url(#clip6)" clip-rule="nonzero">
<path style=" stroke:none;fill-rule:evenodd;fill:rgb(95.294118%,71.764708%,85.09804%);fill-opacity:1;" d="M 3 23.015625 L 13 16 L 3 8.984375 Z M 3 23.015625 "/>
</g>
</g>
<g clip-path="url(#clip7)" clip-rule="nonzero">
<g clip-path="url(#clip8)" clip-rule="nonzero">
<path style="fill:none;stroke-width:0.264288;stroke-linecap:butt;stroke-linejoin:round;stroke:rgb(61.56863%,22.745098%,60.784316%);stroke-opacity:1;stroke-miterlimit:4;" d="M 13.092695 279.631977 L 14.415601 280.558021 L 13.092695 281.484064 Z M 13.092695 279.631977 " transform="matrix(7.559115,0,0,-7.575914,-95.969187,2141.483368)"/>
</g>
</g>
<path style=" stroke:none;fill-rule:nonzero;fill:rgb(90.196079%,0.784314%,70.588237%);fill-opacity:1;" d="M 21 6.921875 L 27 6.921875 C 27.550781 6.921875 28 7.371094 28 7.921875 L 28 8.078125 C 28 8.628906 27.550781 9.078125 27 9.078125 L 21 9.078125 C 20.449219 9.078125 20 8.628906 20 8.078125 L 20 7.921875 C 20 7.371094 20.449219 6.921875 21 6.921875 Z M 21 6.921875 "/>
<path style=" stroke:none;fill-rule:nonzero;fill:rgb(90.196079%,0.784314%,70.588237%);fill-opacity:1;" d="M 21 10.921875 L 27 10.921875 C 27.550781 10.921875 28 11.371094 28 11.921875 L 28 12.078125 C 28 12.628906 27.550781 13.078125 27 13.078125 L 21 13.078125 C 20.449219 13.078125 20 12.628906 20 12.078125 L 20 11.921875 C 20 11.371094 20.449219 10.921875 21 10.921875 Z M 21 10.921875 "/>
<path style=" stroke:none;fill-rule:nonzero;fill:rgb(90.196079%,0.784314%,70.588237%);fill-opacity:1;" d="M 21 14.769531 L 27 14.769531 C 27.550781 14.769531 28 15.21875 28 15.769531 L 28 15.921875 C 28 16.476562 27.550781 16.921875 27 16.921875 L 21 16.921875 C 20.449219 16.921875 20 16.476562 20 15.921875 L 20 15.769531 C 20 15.21875 20.449219 14.769531 21 14.769531 Z M 21 14.769531 "/>
<path style=" stroke:none;fill-rule:nonzero;fill:rgb(90.196079%,0.784314%,70.588237%);fill-opacity:1;" d="M 21 18.921875 L 27 18.921875 C 27.550781 18.921875 28 19.371094 28 19.921875 L 28 20.078125 C 28 20.628906 27.550781 21.078125 27 21.078125 L 21 21.078125 C 20.449219 21.078125 20 20.628906 20 20.078125 L 20 19.921875 C 20 19.371094 20.449219 18.921875 21 18.921875 Z M 21 18.921875 "/>
<path style=" stroke:none;fill-rule:nonzero;fill:rgb(90.196079%,0.784314%,70.588237%);fill-opacity:1;" d="M 21 22.921875 L 27 22.921875 C 27.550781 22.921875 28 23.371094 28 23.921875 L 28 24.078125 C 28 24.628906 27.550781 25.078125 27 25.078125 L 21 25.078125 C 20.449219 25.078125 20 24.628906 20 24.078125 L 20 23.921875 C 20 23.371094 20.449219 22.921875 21 22.921875 Z M 21 22.921875 "/>
<path style=" stroke:none;fill-rule:nonzero;fill:rgb(90.196079%,0.784314%,70.588237%);fill-opacity:1;" d="M 3.152344 27.847656 L 27 27.847656 C 27.550781 27.847656 28 28.292969 28 28.847656 L 28 29 C 28 29.550781 27.550781 30 27 30 L 3.152344 30 C 2.601562 30 2.152344 29.550781 2.152344 29 L 2.152344 28.847656 C 2.152344 28.292969 2.601562 27.847656 3.152344 27.847656 Z M 3.152344 27.847656 "/>
</g>
</svg>
