<?xml version="1.0" encoding="UTF-8"?>
<svg xmlns="http://www.w3.org/2000/svg" xmlns:xlink="http://www.w3.org/1999/xlink" width="32px" height="32px" viewBox="0 0 32 32" version="1.1">
<g id="surface1">
<path style=" stroke:none;fill-rule:evenodd;fill:rgb(95.294118%,71.764708%,85.09804%);fill-opacity:1;" d="M 2 22 L 30 22 L 30 28 L 2 28 Z M 2 22 "/>
<path style=" stroke:none;fill-rule:nonzero;fill:rgb(61.56863%,22.745098%,60.784316%);fill-opacity:1;" d="M 1.902344 8 L 1.902344 30 L 30 30 L 30 8 Z M 4 10 L 9 10 L 9 14 L 4 14 Z M 11 10 L 16 10 L 16 14 L 11 14 Z M 18 10 L 30 10 L 30 14 L 18 14 Z M 3 16 L 9 16 L 9 22 L 3 22 Z M 11 16 L 16 16 L 16 22 L 11 22 Z M 18 16 L 30 16 L 30 22 L 18 22 Z M 3 24 L 9.585938 24 L 9.585938 28 L 3 28 Z M 10.683594 24 L 16 24 L 16 28 L 10.683594 28 Z M 18 24 L 30 24 L 30 28 L 18 28 Z M 3 30 L 9.585938 30 Z M 10.683594 30 L 16.609375 30 Z M 17.707031 30 L 30 30 Z M 17.707031 30 "/>
<path style=" stroke:none;fill-rule:nonzero;fill:rgb(90.196079%,0.784314%,70.588237%);fill-opacity:1;" d="M 2 14 L 30 14 L 30 16 L 3.75 16 L 3.75 28 L 30 28 L 30 30 L 2 30 Z M 2 14 "/>
<path style=" stroke:none;fill-rule:nonzero;fill:rgb(90.196079%,0.784314%,70.588237%);fill-opacity:1;" d="M 2 14 L 30 14 L 30 16 L 4 16 L 4 22 L 30 22 L 30 24 L 2 24 Z M 2 14 "/>
<path style="fill-rule:nonzero;fill:rgb(94.117647%,89.019608%,92.54902%);fill-opacity:1;stroke-width:2.414248;stroke-linecap:butt;stroke-linejoin:miter;stroke:rgb(94.117647%,89.019608%,92.54902%);stroke-opacity:1;stroke-miterlimit:4;" d="M -6.045837 -7.633233 C -6.047319 -5.759984 -7.556206 -4.241254 -9.421395 -4.243183 C -11.284913 -4.242223 -12.794352 -5.761 -12.795755 -7.632586 C -12.79488 -9.503559 -11.283715 -11.021677 -9.420197 -11.022637 C -7.557286 -11.021321 -6.04724 -9.50482 -6.045837 -7.633233 Z M -6.045837 -7.633233 " transform="matrix(-0.430986,1.599597,1.601154,0.426663,30.62022,27.978504)"/>
<path style="fill-rule:nonzero;fill:rgb(94.117647%,89.019608%,92.54902%);fill-opacity:1;stroke-width:1.207124;stroke-linecap:butt;stroke-linejoin:miter;stroke:rgb(90.196079%,0.784314%,70.588237%);stroke-opacity:1;stroke-miterlimit:4;" d="M -6.045837 -7.633233 C -6.047319 -5.759984 -7.556206 -4.241254 -9.421395 -4.243183 C -11.284913 -4.242223 -12.794352 -5.761 -12.795755 -7.632586 C -12.79488 -9.503559 -11.283715 -11.021677 -9.420197 -11.022637 C -7.557286 -11.021321 -6.04724 -9.50482 -6.045837 -7.633233 Z M -6.045837 -7.633233 " transform="matrix(-0.430986,1.599597,1.601154,0.426663,30.62022,27.978504)"/>
<path style="fill:none;stroke-width:1.96209;stroke-linecap:round;stroke-linejoin:miter;stroke:rgb(90.196079%,0.784314%,70.588237%);stroke-opacity:1;stroke-miterlimit:4;" d="M 13.495129 7.167336 L 20.49378 7.167336 " transform="matrix(0,-1.01917,-1.019472,0,29.767838,26.972577)"/>
<path style="fill:none;stroke-width:1.96209;stroke-linecap:round;stroke-linejoin:miter;stroke:rgb(90.196079%,0.784314%,70.588237%);stroke-opacity:1;stroke-miterlimit:4;" d="M 16.994455 10.669453 L 16.994455 3.669049 " transform="matrix(0,-1.01917,-1.019472,0,29.767838,26.972577)"/>
<path style="fill:none;stroke-width:2.231433;stroke-linecap:round;stroke-linejoin:round;stroke:rgb(94.117647%,89.019608%,92.54902%);stroke-opacity:1;stroke-miterlimit:4;" d="M -15 -5.5002 L -15 -1 " transform="matrix(-1.779757,0.000000000000000109,0.000000000000000111,1.805475,-18.696356,13.805476)"/>
<path style="fill-rule:nonzero;fill:rgb(94.117647%,89.019608%,92.54902%);fill-opacity:1;stroke-width:2.231433;stroke-linecap:round;stroke-linejoin:round;stroke:rgb(94.117647%,89.019608%,92.54902%);stroke-opacity:1;stroke-miterlimit:4;" d="M -16.999482 -1.999564 L -15 -0.000436568 L -13.000517 -1.999564 " transform="matrix(-1.779757,0.000000000000000109,0.000000000000000111,1.805475,-18.696356,13.805476)"/>
<path style="fill:none;stroke-width:1.115717;stroke-linecap:round;stroke-linejoin:round;stroke:rgb(61.56863%,22.745098%,60.784316%);stroke-opacity:1;stroke-miterlimit:4;" d="M -15.000001 -5.5002 L -15.000001 -1 " transform="matrix(-1.779757,0.000000000000000109,0.000000000000000111,1.805475,-18.696358,13.805476)"/>
<path style="fill:none;stroke-width:1.115717;stroke-linecap:round;stroke-linejoin:round;stroke:rgb(61.56863%,22.745098%,60.784316%);stroke-opacity:1;stroke-miterlimit:4;" d="M -16.999483 -1.999564 L -15.000001 -0.000436568 L -13.000518 -1.999564 " transform="matrix(-1.779757,0.000000000000000109,0.000000000000000111,1.805475,-18.696358,13.805476)"/>
</g>
</svg>
