<?xml version="1.0" encoding="UTF-8"?>
<svg xmlns="http://www.w3.org/2000/svg" xmlns:xlink="http://www.w3.org/1999/xlink" width="32px" height="32px" viewBox="0 0 32 32" version="1.1">
<g id="surface1">
<path style="fill-rule:evenodd;fill:rgb(94.117647%,89.019608%,92.54902%);fill-opacity:1;stroke-width:1;stroke-linecap:round;stroke-linejoin:round;stroke:rgb(90.196079%,0.784314%,70.588237%);stroke-opacity:1;stroke-miterlimit:4;" d="M 3 1.5 L 13 1.5 C 13.275391 1.5 13.5 1.724609 13.5 2 L 13.5 14 C 13.5 14.275391 13.275391 14.5 13 14.5 L 3 14.5 C 2.724609 14.5 2.5 14.275391 2.5 14 L 2.5 2 C 2.5 1.724609 2.724609 1.5 3 1.5 Z M 3 1.5 " transform="matrix(2,0,0,2,0,0)"/>
<path style=" stroke:none;fill-rule:nonzero;fill:rgb(61.56863%,22.745098%,60.784316%);fill-opacity:1;" d="M 8 8 L 10 8 L 10 10 L 8 10 Z M 8 8 "/>
<path style=" stroke:none;fill-rule:nonzero;fill:rgb(61.56863%,22.745098%,60.784316%);fill-opacity:1;" d="M 8 12 L 10 12 L 10 14 L 8 14 Z M 8 12 "/>
<path style=" stroke:none;fill-rule:nonzero;fill:rgb(61.56863%,22.745098%,60.784316%);fill-opacity:1;" d="M 8 16 L 10 16 L 10 18 L 8 18 Z M 8 16 "/>
<path style=" stroke:none;fill-rule:nonzero;fill:rgb(61.56863%,22.745098%,60.784316%);fill-opacity:1;" d="M 8 20 L 10 20 L 10 22 L 8 22 Z M 8 20 "/>
<path style=" stroke:none;fill-rule:nonzero;fill:rgb(61.56863%,22.745098%,60.784316%);fill-opacity:1;" d="M 8 24 L 10 24 L 10 26 L 8 26 Z M 8 24 "/>
<path style="fill-rule:evenodd;fill:rgb(95.294118%,71.764708%,85.09804%);fill-opacity:1;stroke-width:1;stroke-linecap:butt;stroke-linejoin:miter;stroke:rgb(90.196079%,0.392157%,70.588237%);stroke-opacity:1;stroke-miterlimit:4;" d="M 7.892578 9.71875 C 8.074219 8.458984 8.074219 8.458984 9.166016 8.308594 L 9.166016 7.345703 C 8.074219 7.201172 7.515625 3.578125 7.515625 3.578125 L 7.412109 3.578125 C 7.412109 3.578125 6.814453 7.201172 5.724609 7.330078 L 5.724609 8.332031 C 6.814453 8.458984 6.814453 8.458984 6.966797 9.71875 Z M 7.892578 9.71875 " transform="matrix(2,0,0,2,0,0)"/>
<path style="fill-rule:nonzero;fill:rgb(94.117647%,89.019608%,92.54902%);fill-opacity:1;stroke-width:1;stroke-linecap:round;stroke-linejoin:round;stroke:rgb(61.960787%,22.745098%,61.176473%);stroke-opacity:1;stroke-miterlimit:4;" d="M 9 14.5 C 9.183594 14.5 9.332031 14.353516 9.332031 14.167969 L 9.332031 9.683594 C 9.332031 9.683594 8.486328 9.054688 7.445312 9.054688 C 6.402344 9.054688 5.556641 9.683594 5.556641 9.683594 L 5.556641 14.167969 C 5.556641 14.353516 5.705078 14.5 5.888672 14.5 Z M 9 14.5 " transform="matrix(2,0,0,2,0,0)"/>
<path style="fill:none;stroke-width:0.25;stroke-linecap:butt;stroke-linejoin:miter;stroke:rgb(90.196079%,0.392157%,70.588237%);stroke-opacity:1;stroke-miterlimit:4;" d="M 7.482422 3.853516 L 7.466797 7.517578 " transform="matrix(2,0,0,2,0,0)"/>
<path style="fill:none;stroke-width:0.25;stroke-linecap:round;stroke-linejoin:round;stroke:rgb(90.196079%,0.392157%,70.588237%);stroke-opacity:1;stroke-miterlimit:4;" d="M -7.222656 -7.775391 C -7.222656 -7.638672 -7.332031 -7.529297 -7.46875 -7.529297 C -7.603516 -7.529297 -7.712891 -7.638672 -7.712891 -7.775391 C -7.712891 -7.910156 -7.603516 -8.019531 -7.46875 -8.019531 C -7.332031 -8.019531 -7.222656 -7.910156 -7.222656 -7.775391 Z M -7.222656 -7.775391 " transform="matrix(-2,0,0,-2,0,0)"/>
</g>
</svg>
