<?xml version="1.0" encoding="UTF-8"?>
<svg xmlns="http://www.w3.org/2000/svg" xmlns:xlink="http://www.w3.org/1999/xlink" width="32px" height="32px" viewBox="0 0 32 32" version="1.1">
<g id="surface1">
<path style="fill-rule:evenodd;fill:rgb(94.117647%,89.019608%,92.54902%);fill-opacity:1;stroke-width:1;stroke-linecap:round;stroke-linejoin:round;stroke:rgb(90.196079%,0.784314%,70.588237%);stroke-opacity:1;stroke-miterlimit:4;" d="M 3.5 1.5 L 12.5 1.5 C 13.052734 1.5 13.5 1.947266 13.5 2.5 L 13.5 13.5 C 13.5 14.052734 13.052734 14.5 12.5 14.5 L 3.5 14.5 C 2.947266 14.5 2.5 14.052734 2.5 13.5 L 2.5 2.5 C 2.5 1.947266 2.947266 1.5 3.5 1.5 Z M 3.5 1.5 " transform="matrix(2,0,0,2,0,0)"/>
<path style=" stroke:none;fill-rule:nonzero;fill:rgb(95.294118%,71.764708%,85.09804%);fill-opacity:1;" d="M 8 6 L 10 6 L 10 8 L 8 8 Z M 8 6 "/>
<path style=" stroke:none;fill-rule:nonzero;fill:rgb(61.56863%,22.745098%,60.784316%);fill-opacity:1;" d="M 8 14 L 10 14 L 10 16 L 8 16 Z M 8 14 "/>
<path style=" stroke:none;fill-rule:nonzero;fill:rgb(95.294118%,71.764708%,85.09804%);fill-opacity:1;" d="M 8 22 L 10 22 L 10 24 L 8 24 Z M 8 22 "/>
<path style=" stroke:none;fill-rule:nonzero;fill:rgb(95.294118%,71.764708%,85.09804%);fill-opacity:1;" d="M 13 6 L 23 6 C 23.550781 6 24 6.449219 24 7 C 24 7.550781 23.550781 8 23 8 L 13 8 C 12.449219 8 12 7.550781 12 7 C 12 6.449219 12.449219 6 13 6 Z M 13 6 "/>
<path style=" stroke:none;fill-rule:nonzero;fill:rgb(95.294118%,71.764708%,85.09804%);fill-opacity:1;" d="M 13 10 L 21 10 C 21.550781 10 22 10.449219 22 11 C 22 11.550781 21.550781 12 21 12 L 13 12 C 12.449219 12 12 11.550781 12 11 C 12 10.449219 12.449219 10 13 10 Z M 13 10 "/>
<path style=" stroke:none;fill-rule:nonzero;fill:rgb(61.56863%,22.745098%,60.784316%);fill-opacity:1;" d="M 13 14 L 23 14 C 23.550781 14 24 14.449219 24 15 C 24 15.550781 23.550781 16 23 16 L 13 16 C 12.449219 16 12 15.550781 12 15 C 12 14.449219 12.449219 14 13 14 Z M 13 14 "/>
<path style=" stroke:none;fill-rule:nonzero;fill:rgb(61.56863%,22.745098%,60.784316%);fill-opacity:1;" d="M 13 18 L 21 18 C 21.550781 18 22 18.449219 22 19 C 22 19.550781 21.550781 20 21 20 L 13 20 C 12.449219 20 12 19.550781 12 19 C 12 18.449219 12.449219 18 13 18 Z M 13 18 "/>
<path style=" stroke:none;fill-rule:nonzero;fill:rgb(95.294118%,71.764708%,85.09804%);fill-opacity:1;" d="M 13 22 L 23 22 C 23.550781 22 24 22.449219 24 23 C 24 23.550781 23.550781 24 23 24 L 13 24 C 12.449219 24 12 23.550781 12 23 C 12 22.449219 12.449219 22 13 22 Z M 13 22 "/>
</g>
</svg>
