<?xml version="1.0" encoding="UTF-8"?>
<svg xmlns="http://www.w3.org/2000/svg" xmlns:xlink="http://www.w3.org/1999/xlink" width="32px" height="32px" viewBox="0 0 32 32" version="1.1">
<g id="surface1">
<path style=" stroke:none;fill-rule:nonzero;fill:rgb(94.117647%,89.019608%,92.54902%);fill-opacity:1;" d="M 24 18 L 28 18 C 29.105469 18 30 17.105469 30 16 L 30 10 C 30 8.894531 29.105469 8 28 8 L 24 8 C 22.894531 8 22 8.894531 22 10 L 22 16 C 22 17.105469 22.894531 18 24 18 Z M 24 18 "/>
<path style=" stroke:none;fill-rule:nonzero;fill:rgb(94.117647%,89.019608%,92.54902%);fill-opacity:1;" d="M 23 20 L 27 20 C 28.105469 20 29 20.894531 29 22 L 29 28 C 29 29.105469 28.105469 30 27 30 L 23 30 C 21.894531 30 21 29.105469 21 28 L 21 22 C 21 20.894531 21.894531 20 23 20 Z M 23 20 "/>
<path style=" stroke:none;fill-rule:nonzero;fill:rgb(90.196079%,0.784314%,70.588237%);fill-opacity:1;" d="M 4.023438 2 L 4.023438 30 L 19.316406 30 L 27.875 30.023438 C 27.96875 29.929688 28.023438 29.800781 28.023438 29.667969 L 28.023438 2 Z M 4.023438 2 "/>
<path style=" stroke:none;fill-rule:nonzero;fill:rgb(61.56863%,22.745098%,60.784316%);fill-opacity:1;" d="M 2 28.074219 L 2 24 L 6.007812 24 L 6.007812 28.074219 Z M 2 28.074219 "/>
<path style=" stroke:none;fill-rule:nonzero;fill:rgb(61.56863%,22.745098%,60.784316%);fill-opacity:1;" d="M 2 18.074219 L 2 14 L 6.007812 14 L 6.007812 18.074219 Z M 2 18.074219 "/>
<path style=" stroke:none;fill-rule:nonzero;fill:rgb(61.56863%,22.745098%,60.784316%);fill-opacity:1;" d="M 2 8.074219 L 2 4 L 6.007812 4 L 6.007812 8.074219 Z M 2 8.074219 "/>
<path style=" stroke:none;fill-rule:nonzero;fill:rgb(95.294118%,71.764708%,85.09804%);fill-opacity:1;" d="M 7 13 C 6.449219 13 6 13.449219 6 14 L 6 27.636719 C 6 28.1875 6.449219 28.636719 7 28.636719 C 8.46875 28.636719 9.5625 28.601562 11 28.601562 C 11.550781 28.601562 12 28.15625 12 27.601562 L 12 26 L 24 26 L 24 27.601562 C 24 28.15625 24.449219 28.601562 25 28.601562 C 26.4375 28.601562 27.53125 28.636719 29 28.636719 C 29.550781 28.636719 30 28.1875 30 27.636719 L 30 14 C 30 13.449219 29.550781 13 29 13 L 25 13 C 24.449219 13 24 13.449219 24 14 L 24 16 L 12 16 L 12 14 C 12 13.449219 11.550781 13 11 13 Z M 7 13 "/>
<path style=" stroke:none;fill-rule:nonzero;fill:rgb(90.196079%,0.784314%,70.588237%);fill-opacity:1;" d="M 7 14 L 7 27.636719 C 8.453125 27.636719 9.546875 27.601562 11 27.601562 L 11 26 L 9 26 L 9 16 L 11 16 L 11 14 Z M 7 14 "/>
<path style=" stroke:none;fill-rule:nonzero;fill:rgb(90.196079%,0.784314%,70.588237%);fill-opacity:1;" d="M 29 14 L 29 27.636719 C 27.546875 27.636719 26.453125 27.601562 25 27.601562 L 25 26 L 27 26 L 27 16 L 25 16 L 25 14 Z M 29 14 "/>
<path style=" stroke:none;fill-rule:nonzero;fill:rgb(61.56863%,22.745098%,60.784316%);fill-opacity:1;" d="M 11 18 L 25 18 L 25 24 L 11 24 Z M 11 18 "/>
</g>
</svg>
