<?xml version="1.0" encoding="UTF-8"?>
<svg xmlns="http://www.w3.org/2000/svg" xmlns:xlink="http://www.w3.org/1999/xlink" width="32px" height="32px" viewBox="0 0 32 32" version="1.1">
<g id="surface1">
<path style="fill-rule:nonzero;fill:rgb(95.294118%,71.764708%,85.09804%);fill-opacity:1;stroke-width:0.129053;stroke-linecap:round;stroke-linejoin:round;stroke:rgb(90.196079%,0.784314%,70.588237%);stroke-opacity:1;stroke-miterlimit:4;" d="M -2.851266 1.40863 L -2.713277 1.408829 C -2.62878 1.408653 -2.559879 1.477367 -2.559709 1.562198 L -2.559809 4.165975 C -2.560006 4.250452 -2.628728 4.319321 -2.713592 4.319144 L -2.851215 4.319299 C -2.936079 4.319121 -3.004613 4.250761 -3.004782 4.16593 L -3.004683 1.562153 C -3.004486 1.477677 -2.935764 1.408807 -2.851266 1.40863 Z M -2.851266 1.40863 " transform="matrix(5.4433,5.51243,-5.628636,5.330508,51.866935,13.20869)"/>
<path style=" stroke:none;fill-rule:nonzero;fill:rgb(95.294118%,71.764708%,85.09804%);fill-opacity:1;" d="M 11.847656 18.46875 L 15.023438 21.585938 C 15.257812 21.8125 15.285156 22.160156 15.082031 22.359375 C 14.878906 22.558594 14.527344 22.53125 14.292969 22.300781 L 11.113281 19.1875 C 10.878906 18.957031 10.851562 18.609375 11.054688 18.414062 C 11.257812 18.214844 11.613281 18.238281 11.847656 18.46875 Z M 11.847656 18.46875 "/>
<path style=" stroke:none;fill-rule:nonzero;fill:rgb(90.196079%,0.784314%,70.588237%);fill-opacity:1;" d="M 12.558594 17.730469 L 15.777344 20.886719 C 16 21.105469 16.015625 21.445312 15.8125 21.640625 C 15.613281 21.839844 15.265625 21.824219 15.042969 21.605469 L 11.824219 18.449219 C 11.601562 18.230469 11.585938 17.894531 11.789062 17.695312 C 11.988281 17.496094 12.335938 17.511719 12.558594 17.730469 Z M 12.558594 17.730469 "/>
<path style="fill-rule:evenodd;fill:rgb(61.56863%,22.745098%,60.784316%);fill-opacity:1;stroke-width:0.129053;stroke-linecap:round;stroke-linejoin:round;stroke:rgb(90.196079%,0.784314%,70.588237%);stroke-opacity:1;stroke-miterlimit:4;" d="M -3.439876 5.482206 C -2.513457 5.159146 -3.590458 4.70759 -3.175249 4.23334 L -2.525093 4.233343 C -2.26073 4.365699 -2.381335 5.688702 -3.439876 5.482206 Z M -3.439876 5.482206 " transform="matrix(5.533556,5.425359,-5.533556,5.425359,51.866935,13.20869)"/>
<path style=" stroke:none;fill-rule:nonzero;fill:rgb(90.196079%,0.784314%,70.588237%);fill-opacity:1;" d="M 26.945312 5.035156 L 29.15625 7.015625 C 29.378906 7.214844 29.433594 7.484375 29.285156 7.621094 C 29.132812 7.757812 28.828125 7.707031 28.609375 7.507812 L 26.398438 5.523438 C 26.175781 5.324219 26.117188 5.054688 26.269531 4.917969 C 26.421875 4.78125 26.722656 4.835938 26.945312 5.035156 Z M 26.945312 5.035156 "/>
</g>
</svg>
