<?xml version="1.0" encoding="UTF-8"?>
<svg xmlns="http://www.w3.org/2000/svg" xmlns:xlink="http://www.w3.org/1999/xlink" width="32px" height="32px" viewBox="0 0 32 32" version="1.1">
<g id="surface1">
<path style=" stroke:none;fill-rule:nonzero;fill:rgb(33.333334%,34.117648%,32.549021%);fill-opacity:1;" d="M 2 2 L 2 6 L 6 6 L 6 2 Z M 11.085938 2 C 10.484375 2 10 2.484375 10 3.085938 L 10 4.914062 C 10 5.515625 10.484375 6 11.085938 6 L 28.914062 6 C 29.515625 6 30 5.515625 30 4.914062 L 30 3.085938 C 30 2.484375 29.515625 2 28.914062 2 Z M 23.125 8 L 18.5625 12.5625 C 18.1875 12.9375 18 13.46875 18 14 L 18 16 L 20 16 C 20.53125 16 21.0625 15.8125 21.4375 15.4375 L 22 14.875 L 22 18 C 22 18.007812 22 18.019531 22 18.027344 C 21.992188 19.078125 21.578125 20.082031 20.832031 20.828125 C 20.082031 21.578125 19.0625 22 18 22 L 14.875 22 L 15.4375 21.4375 C 15.8125 21.0625 16 20.53125 16 20 L 16 18 L 14 18 C 13.46875 18 12.9375 18.1875 12.5625 18.5625 L 8 23.125 L 8 24.875 L 12.5625 29.4375 C 12.9375 29.8125 13.46875 30 14 30 L 16 30 L 16 28 C 16 27.46875 15.8125 26.9375 15.4375 26.5625 L 14.875 26 L 18 26 C 20.121094 26 22.160156 25.160156 23.660156 23.660156 C 25.066406 22.253906 25.867188 20.371094 25.964844 18.394531 C 25.984375 18.28125 25.996094 18.167969 26 18.054688 C 26 18.035156 26.003906 18.019531 26.003906 18 L 26.003906 16 L 26 16 L 26 14.875 L 26.5625 15.4375 C 26.9375 15.8125 27.46875 16 28 16 L 30 16 L 30 14 C 30 13.46875 29.8125 12.9375 29.4375 12.5625 L 24.875 8 Z M 3.03125 10 C 2.460938 10 2 10.460938 2 11.03125 L 2 28.96875 C 2 29.539062 2.460938 30 3.03125 30 L 4.96875 30 C 5.539062 30 6 29.539062 6 28.96875 L 6 11.03125 C 6 10.460938 5.539062 10 4.96875 10 Z M 3.03125 10 "/>
</g>
</svg>
