<?xml version="1.0" encoding="UTF-8"?>
<svg xmlns="http://www.w3.org/2000/svg" xmlns:xlink="http://www.w3.org/1999/xlink" width="32px" height="32px" viewBox="0 0 32 32" version="1.1">
<g id="surface1">
<path style=" stroke:none;fill-rule:nonzero;fill:rgb(33.333334%,34.117648%,32.549021%);fill-opacity:1;" d="M 4 2 L 4 12 L 8 12 L 8 6 L 18 6 L 18 12 L 28 12 L 28 10 L 20 2 Z M 4 14 L 4 16 L 2 16 L 2 18 L 4 18 L 4 22 L 2 22 L 2 24 L 4 24 L 4 26 L 6 26 L 6 24 L 10 24 L 10 26 L 12 26 L 12 24 L 14 24 L 14 22 L 12 22 L 12 18 L 14 18 L 14 16 L 12 16 L 12 14 L 10 14 L 10 16 L 6 16 L 6 14 Z M 20 14 L 20 16 L 18 16 L 18 18 L 20 18 L 20 22 L 18 22 L 18 24 L 20 24 L 20 26 L 22 26 L 22 24 L 26 24 L 26 26 L 28 26 L 28 24 L 30 24 L 30 22 L 28 22 L 28 18 L 30 18 L 30 16 L 28 16 L 28 14 L 26 14 L 26 16 L 22 16 L 22 14 Z M 6 18 L 10 18 L 10 22 L 6 22 Z M 22 18 L 26 18 L 26 22 L 22 22 Z M 4 28 L 4 32 L 28 32 L 28 28 Z M 4 28 "/>
</g>
</svg>
