<?xml version="1.0" encoding="UTF-8"?>
<svg xmlns="http://www.w3.org/2000/svg" xmlns:xlink="http://www.w3.org/1999/xlink" width="32px" height="32px" viewBox="0 0 32 32" version="1.1">
<defs>
<filter id="alpha" filterUnits="objectBoundingBox" x="0%" y="0%" width="100%" height="100%">
  <feColorMatrix type="matrix" in="SourceGraphic" values="0 0 0 0 1 0 0 0 0 1 0 0 0 0 1 0 0 0 1 0"/>
</filter>
<mask id="mask0">
  <g filter="url(#alpha)">
<rect x="0" y="0" width="32" height="32" style="fill:rgb(0%,0%,0%);fill-opacity:0.75;stroke:none;"/>
  </g>
</mask>
<clipPath id="clip1">
  <rect x="0" y="0" width="32" height="32"/>
</clipPath>
<g id="surface5" clip-path="url(#clip1)">
<path style=" stroke:none;fill-rule:nonzero;fill:rgb(90.196079%,0.784314%,70.588237%);fill-opacity:1;" d="M 21.429688 6.507812 C 22.25 7.289062 22.902344 8.308594 23.363281 9.585938 C 23.878906 11.015625 24.121094 12.660156 24.121094 14.507812 C 24.121094 15.097656 24.101562 15.660156 24.054688 16.199219 C 24.671875 15.996094 25.269531 15.773438 25.839844 15.535156 C 25.898438 15.0625 25.933594 14.566406 25.933594 14.046875 C 25.933594 11.269531 25.058594 9.21875 23.246094 7.59375 C 23.246094 7.59375 23.242188 7.589844 23.242188 7.589844 C 22.710938 7.109375 22.042969 6.847656 21.429688 6.507812 Z M 10.777344 6.519531 C 10.101562 6.898438 9.382812 7.203125 8.8125 7.75 C 6.945312 9.53125 6.066406 11.59375 6.066406 14.191406 C 6.066406 15.105469 6.179688 15.960938 6.402344 16.765625 C 6.953125 16.902344 7.515625 17.027344 8.089844 17.132812 C 7.945312 16.246094 7.878906 15.289062 7.878906 14.261719 C 7.878906 11.449219 8.589844 9.019531 10.050781 7.121094 C 10.050781 7.117188 10.054688 7.117188 10.054688 7.113281 C 10.257812 6.855469 10.554688 6.746094 10.777344 6.519531 Z M 10.777344 6.519531 "/>
</g>
</defs>
<g id="surface1">
<path style=" stroke:none;fill-rule:nonzero;fill:rgb(90.196079%,0.784314%,70.588237%);fill-opacity:1;" d="M 3.992188 22.566406 L 4.824219 22.566406 C 4.871094 23.421875 5.113281 24.058594 5.550781 24.484375 C 5.992188 24.910156 6.671875 25.125 7.597656 25.125 L 12.136719 25.125 L 12.101562 23.597656 C 11.339844 23.433594 10.554688 23.125 9.746094 22.675781 C 8.960938 22.226562 8.199219 21.632812 7.457031 20.898438 C 6.742188 20.140625 6.152344 19.183594 5.691406 18.023438 C 5.230469 16.839844 5 15.5625 5 14.1875 C 5 11.324219 6.027344 8.910156 8.082031 6.945312 C 10.136719 4.980469 12.816406 4 16.121094 4 C 19.308594 4 21.917969 4.921875 23.953125 6.769531 C 25.984375 8.589844 27 11.019531 27 14.046875 C 27 16.4375 26.378906 18.472656 25.128906 20.152344 C 23.90625 21.8125 22.207031 22.957031 20.035156 23.597656 L 19.863281 25.125 L 24.507812 25.125 C 26.238281 25.125 27.128906 24.273438 27.175781 22.566406 L 28.007812 22.566406 L 27.796875 28 L 18.375 28 L 18.824219 22.78125 C 21.640625 21.859375 23.050781 19.101562 23.050781 14.507812 C 23.050781 12.757812 22.820312 11.242188 22.359375 9.964844 C 21.894531 8.6875 21.285156 7.726562 20.523438 7.089844 C 19.78125 6.449219 19.042969 5.988281 18.304688 5.703125 C 17.566406 5.421875 16.8125 5.277344 16.050781 5.277344 C 13.925781 5.277344 12.207031 6.117188 10.890625 7.796875 C 9.59375 9.480469 8.949219 11.632812 8.949219 14.261719 C 8.949219 18.851562 10.390625 21.691406 13.28125 22.78125 L 13.625 28 L 4.203125 28 Z M 3.992188 22.566406 "/>
<use xlink:href="#surface5" mask="url(#mask0)"/>
<path style="fill-rule:evenodd;fill:rgb(95.294118%,71.764708%,85.09804%);fill-opacity:1;stroke-width:1.141441;stroke-linecap:round;stroke-linejoin:round;stroke:rgb(61.56863%,22.745098%,60.784316%);stroke-opacity:1;stroke-miterlimit:4;" d="M 15.292112 11.443568 C 15.292112 13.432172 13.680273 15.044011 11.691669 15.044011 C 9.700836 15.044011 8.088997 13.432172 8.088997 11.443568 C 8.088997 9.454964 9.700836 7.840895 11.691669 7.840895 C 13.680273 7.840895 15.292112 9.454964 15.292112 11.443568 Z M 15.292112 11.443568 " transform="matrix(1.752171,0,0,1.752171,2.18216,2.566095)"/>
<path style="fill:none;stroke-width:1.930378;stroke-linecap:round;stroke-linejoin:miter;stroke:rgb(90.196079%,0.784314%,70.588237%);stroke-opacity:1;stroke-miterlimit:4;" d="M 11.5344 8.456792 L 11.5344 14.16498 " transform="matrix(1.036067,0,0,1.036067,10.717563,10.898357)"/>
<path style="fill:none;stroke-width:1.930378;stroke-linecap:round;stroke-linejoin:miter;stroke:rgb(90.196079%,0.784314%,70.588237%);stroke-opacity:1;stroke-miterlimit:4;" d="M 8.680306 11.310886 L 14.388494 11.310886 " transform="matrix(1.036067,0,0,1.036067,10.717563,10.898357)"/>
</g>
</svg>
