<?xml version="1.0" encoding="UTF-8"?>
<svg xmlns="http://www.w3.org/2000/svg" xmlns:xlink="http://www.w3.org/1999/xlink" width="32px" height="32px" viewBox="0 0 32 32" version="1.1">
<defs>
<filter id="alpha" filterUnits="objectBoundingBox" x="0%" y="0%" width="100%" height="100%">
  <feColorMatrix type="matrix" in="SourceGraphic" values="0 0 0 0 1 0 0 0 0 1 0 0 0 0 1 0 0 0 1 0"/>
</filter>
<mask id="mask0">
  <g filter="url(#alpha)">
<rect x="0" y="0" width="32" height="32" style="fill:rgb(0%,0%,0%);fill-opacity:0.99;stroke:none;"/>
  </g>
</mask>
<clipPath id="clip1">
  <rect x="0" y="0" width="32" height="32"/>
</clipPath>
<g id="surface5" clip-path="url(#clip1)">
<path style=" stroke:none;fill-rule:nonzero;fill:rgb(90.196079%,0.784314%,70.588237%);fill-opacity:1;" d="M 28 26 L 4 26 L 4 6 L 28 6 Z M 28 26 "/>
</g>
<mask id="mask1">
  <g filter="url(#alpha)">
<rect x="0" y="0" width="32" height="32" style="fill:rgb(0%,0%,0%);fill-opacity:0.99;stroke:none;"/>
  </g>
</mask>
<clipPath id="clip2">
  <rect x="0" y="0" width="32" height="32"/>
</clipPath>
<g id="surface8" clip-path="url(#clip2)">
<path style=" stroke:none;fill-rule:nonzero;fill:rgb(94.117647%,89.019608%,92.54902%);fill-opacity:1;" d="M 26 23 L 6 23 L 6 9 L 26 9 Z M 26 23 "/>
</g>
</defs>
<g id="surface1">
<use xlink:href="#surface5" mask="url(#mask0)"/>
<use xlink:href="#surface8" mask="url(#mask1)"/>
<path style=" stroke:none;fill-rule:nonzero;fill:rgb(95.294118%,71.764708%,85.09804%);fill-opacity:1;" d="M 25.964844 24 L 25 24 L 25 8 L 25.964844 8 Z M 25.964844 24 "/>
<path style=" stroke:none;fill-rule:nonzero;fill:rgb(95.294118%,71.764708%,85.09804%);fill-opacity:1;" d="M 6.910156 24 L 6 24 L 6 8 L 6.910156 8 Z M 6.910156 24 "/>
<path style=" stroke:none;fill-rule:nonzero;fill:rgb(95.294118%,71.764708%,85.09804%);fill-opacity:1;" d="M 25 22.898438 L 25 24 L 6.910156 24 L 6.910156 22.898438 Z M 25 22.898438 "/>
<path style=" stroke:none;fill-rule:nonzero;fill:rgb(95.294118%,71.764708%,85.09804%);fill-opacity:1;" d="M 25 8 L 25 9 L 6.910156 9 L 6.910156 8 Z M 25 8 "/>
<path style=" stroke:none;fill-rule:nonzero;fill:rgb(90.196079%,0.784314%,70.588237%);fill-opacity:1;" d="M 4.910156 2 L 27.089844 2 C 28.699219 2 30 3.117188 30 4.492188 L 30 9.507812 C 30 10.882812 28.699219 12 27.089844 12 L 4.910156 12 C 3.300781 12 2 10.882812 2 9.507812 L 2 4.492188 C 2 3.117188 3.300781 2 4.910156 2 Z M 4.910156 2 "/>
<path style=" stroke:none;fill-rule:nonzero;fill:rgb(94.117647%,89.019608%,92.54902%);fill-opacity:1;" d="M 4 4 L 28 4 L 28 10 L 4 10 Z M 4 4 "/>
<path style=" stroke:none;fill-rule:nonzero;fill:rgb(61.56863%,22.745098%,60.784316%);fill-opacity:1;" d="M 8.035156 6.0625 L 23.964844 6.0625 C 23.984375 6.0625 24 6.101562 24 6.152344 L 24 7.90625 C 24 7.957031 23.984375 8 23.964844 8 L 8.035156 8 C 8.015625 8 8 7.957031 8 7.90625 L 8 6.152344 C 8 6.101562 8.015625 6.0625 8.035156 6.0625 Z M 8.035156 6.0625 "/>
</g>
</svg>
