<?xml version="1.0" encoding="UTF-8"?>
<svg xmlns="http://www.w3.org/2000/svg" xmlns:xlink="http://www.w3.org/1999/xlink" width="32px" height="32px" viewBox="0 0 32 32" version="1.1">
<defs>
<clipPath id="clip1">
  <path d="M 10 12 L 26 12 L 26 26 L 10 26 Z M 10 12 "/>
</clipPath>
<clipPath id="clip2">
  <path d="M 4.183594 0 L 25.683594 0 C 25.820312 0 25.933594 0.113281 25.933594 0.25 L 25.933594 25.75 C 25.933594 25.886719 25.820312 26 25.683594 26 L 4.183594 26 C 4.042969 26 3.933594 25.886719 3.933594 25.75 L 3.933594 0.25 C 3.933594 0.113281 4.042969 0 4.183594 0 Z M 4.183594 0 "/>
</clipPath>
</defs>
<g id="surface1">
<path style="fill-rule:evenodd;fill:rgb(94.117647%,89.019608%,92.54902%);fill-opacity:1;stroke-width:1;stroke-linecap:round;stroke-linejoin:round;stroke:rgb(90.196079%,0.784314%,70.588237%);stroke-opacity:1;stroke-miterlimit:4;" d="M 3.000696 2 L 12.000696 2 C 12.551477 2 13.000696 2.447265 13.000696 3 L 13.000696 14 C 13.000696 14.552734 12.551477 15 12.000696 15 L 3.000696 15 C 2.447961 15 2.000696 14.552734 2.000696 14 L 2.000696 3 C 2.000696 2.447265 2.447961 2 3.000696 2 Z M 3.000696 2 " transform="matrix(2,0,0,2,0.932202,-0.999999)"/>
<g clip-path="url(#clip1)" clip-rule="nonzero">
<g clip-path="url(#clip2)" clip-rule="nonzero">
<path style=" stroke:none;fill-rule:nonzero;fill:rgb(61.56863%,22.745098%,60.784316%);fill-opacity:1;" d="M 36.335938 19.671875 C 36.316406 18.378906 35.847656 17.0625 34.785156 16.96875 C 33.976562 16.894531 30.804688 18.152344 30.03125 17.648438 C 28.867188 16.886719 29.515625 12.484375 29.515625 12.484375 L 29.375 12.480469 L 29.421875 12.4375 L 23.472656 12.460938 L 17.796875 12.4375 L 16.933594 12.484375 C 16.933594 13.695312 17.578125 16.78125 16.414062 17.648438 C 15.675781 18.199219 12.96875 16.894531 12.164062 16.96875 C 11.097656 17.0625 10.632812 18.378906 10.613281 19.671875 C 10.59375 20.96875 10.835938 21.78125 11.648438 22.214844 C 12.5 22.671875 15.898438 20.941406 16.5 21.636719 C 17.328125 22.59375 16.941406 25.152344 16.933594 27 L 23.472656 26.988281 L 29.515625 27 C 29.503906 25.152344 29.121094 22.59375 29.949219 21.636719 C 30.550781 20.941406 34.445312 22.671875 35.300781 22.214844 C 36.109375 21.78125 36.351562 20.96875 36.335938 19.671875 Z M 36.335938 19.671875 "/>
</g>
</g>
<path style="fill-rule:evenodd;fill:rgb(94.117647%,89.019608%,92.54902%);fill-opacity:1;stroke-width:3.20664;stroke-linecap:round;stroke-linejoin:round;stroke:rgb(94.117647%,89.019608%,92.54902%);stroke-opacity:1;stroke-miterlimit:4;" d="M 15.943337 8.509673 L 20.07576 8.509673 C 21.390199 8.509673 22.45663 9.597811 22.45663 10.939005 L 22.45663 20.071145 C 22.45663 21.412339 21.390199 22.500478 20.07576 22.500478 L 15.943337 22.500478 C 14.625798 22.500478 13.562466 21.412339 13.562466 20.071145 L 13.562466 10.939005 C 13.562466 9.597811 14.625798 8.509673 15.943337 8.509673 Z M 15.943337 8.509673 " transform="matrix(1.260043,0,0,1.234907,-0.288512,0.413221)"/>
<path style="fill-rule:evenodd;fill:rgb(94.117647%,89.019608%,92.54902%);fill-opacity:1;stroke-width:3.20664;stroke-linecap:round;stroke-linejoin:round;stroke:rgb(94.117647%,89.019608%,92.54902%);stroke-opacity:1;stroke-miterlimit:4;" d="M 17.880894 11.498891 L 18.119601 11.498891 C 19.43404 11.498891 20.500472 12.587029 20.500472 13.928223 L 20.500472 18.072007 C 20.500472 19.413201 19.43404 20.501339 18.119601 20.501339 L 17.880894 20.501339 C 16.566455 20.501339 15.500024 19.413201 15.500024 18.072007 L 15.500024 13.928223 C 15.500024 12.587029 16.566455 11.498891 17.880894 11.498891 Z M 17.880894 11.498891 " transform="matrix(1.260043,0,0,1.234907,-0.288512,0.413221)"/>
<path style="fill-rule:evenodd;fill:rgb(94.117647%,89.019608%,92.54902%);fill-opacity:1;stroke-width:3.20664;stroke-linecap:round;stroke-linejoin:round;stroke:rgb(94.117647%,89.019608%,92.54902%);stroke-opacity:1;stroke-miterlimit:4;" d="M 18.42031 14.187605 C 18.42031 14.412192 18.234305 14.595657 18.004898 14.59882 C 17.775491 14.59882 17.589486 14.418518 17.586386 14.190768 C 17.583285 13.966182 17.766191 13.779553 17.995598 13.77639 C 18.225005 13.770063 18.41411 13.950366 18.42031 14.178115 L 18.004898 14.187605 Z M 18.42031 14.187605 " transform="matrix(1.260043,0,0,1.234907,-0.288512,0.413221)"/>
<path style="fill:none;stroke-width:3.20664;stroke-linecap:round;stroke-linejoin:round;stroke:rgb(94.117647%,89.019608%,92.54902%);stroke-opacity:1;stroke-miterlimit:4;" d="M 17.949096 16.901625 L 17.949096 19.42269 " transform="matrix(1.260043,0,0,1.234907,-0.288512,0.413221)"/>
<path style="fill-rule:evenodd;fill:rgb(94.117647%,89.019608%,92.54902%);fill-opacity:1;stroke-width:1.60332;stroke-linecap:round;stroke-linejoin:round;stroke:rgb(90.196079%,0.784314%,70.588237%);stroke-opacity:1;stroke-miterlimit:4;" d="M 15.943337 8.509673 L 20.07576 8.509673 C 21.390199 8.509673 22.45663 9.597811 22.45663 10.939005 L 22.45663 20.071145 C 22.45663 21.412339 21.390199 22.500478 20.07576 22.500478 L 15.943337 22.500478 C 14.625798 22.500478 13.562466 21.412339 13.562466 20.071145 L 13.562466 10.939005 C 13.562466 9.597811 14.625798 8.509673 15.943337 8.509673 Z M 15.943337 8.509673 " transform="matrix(1.260043,0,0,1.234907,-0.288512,0.413221)"/>
<path style="fill-rule:evenodd;fill:rgb(95.294118%,71.764708%,85.09804%);fill-opacity:1;stroke-width:1.60332;stroke-linecap:round;stroke-linejoin:round;stroke:rgb(90.196079%,0.784314%,70.588237%);stroke-opacity:1;stroke-miterlimit:4;" d="M 17.880894 11.498891 L 18.119601 11.498891 C 19.43404 11.498891 20.500472 12.587029 20.500472 13.928223 L 20.500472 18.072007 C 20.500472 19.413201 19.43404 20.501339 18.119601 20.501339 L 17.880894 20.501339 C 16.566455 20.501339 15.500024 19.413201 15.500024 18.072007 L 15.500024 13.928223 C 15.500024 12.587029 16.566455 11.498891 17.880894 11.498891 Z M 17.880894 11.498891 " transform="matrix(1.260043,0,0,1.234907,-0.288512,0.413221)"/>
<path style="fill:none;stroke-width:1.60332;stroke-linecap:round;stroke-linejoin:round;stroke:rgb(61.56863%,22.745098%,60.784316%);stroke-opacity:1;stroke-miterlimit:4;" d="M 18.42031 14.187605 C 18.42031 14.412192 18.234305 14.595657 18.004898 14.59882 C 17.775491 14.59882 17.589486 14.418518 17.586386 14.190768 C 17.583285 13.966182 17.766191 13.779553 17.995598 13.77639 C 18.225005 13.770063 18.41411 13.950366 18.42031 14.178115 L 18.004898 14.187605 Z M 18.42031 14.187605 " transform="matrix(1.260043,0,0,1.234907,-0.288512,0.413221)"/>
<path style="fill:none;stroke-width:1.60332;stroke-linecap:round;stroke-linejoin:round;stroke:rgb(90.196079%,0.784314%,70.588237%);stroke-opacity:1;stroke-miterlimit:4;" d="M 17.949096 16.901625 L 17.949096 19.42269 " transform="matrix(1.260043,0,0,1.234907,-0.288512,0.413221)"/>
</g>
</svg>
