<?xml version="1.0" encoding="UTF-8"?>
<svg xmlns="http://www.w3.org/2000/svg" xmlns:xlink="http://www.w3.org/1999/xlink" width="32px" height="32px" viewBox="0 0 32 32" version="1.1">
<defs>
<filter id="alpha" filterUnits="objectBoundingBox" x="0%" y="0%" width="100%" height="100%">
  <feColorMatrix type="matrix" in="SourceGraphic" values="0 0 0 0 1 0 0 0 0 1 0 0 0 0 1 0 0 0 1 0"/>
</filter>
<mask id="mask0">
  <g filter="url(#alpha)">
<rect x="0" y="0" width="32" height="32" style="fill:rgb(0%,0%,0%);fill-opacity:0.75;stroke:none;"/>
  </g>
</mask>
<linearGradient id="linear0" gradientUnits="userSpaceOnUse" x1="16" y1="16.000004" x2="88" y2="72" gradientTransform="matrix(0.249938,0,0,0.25,0.00796403,5.99996)">
<stop offset="0" style="stop-color:rgb(99.607843%,99.607843%,99.607843%);stop-opacity:1;"/>
<stop offset="1" style="stop-color:rgb(99.607843%,99.607843%,99.607843%);stop-opacity:0;"/>
</linearGradient>
<clipPath id="clip1">
  <rect x="0" y="0" width="32" height="32"/>
</clipPath>
<g id="surface5" clip-path="url(#clip1)">
<path style=" stroke:none;fill-rule:nonzero;fill:url(#linear0);" d="M 2.003906 18.367188 C 2.011719 18.359375 1.984375 18.367188 2.003906 18.367188 Z M 22.949219 18.367188 C 22.96875 18.367188 22.980469 18.375 22.992188 18.378906 L 23.003906 18.367188 Z M 3.460938 19.261719 L 6.960938 24.632812 L 25.628906 24.632812 L 22.128906 19.261719 Z M 3.460938 19.261719 "/>
<path style=" stroke:none;fill-rule:evenodd;fill:rgb(95.294118%,71.764708%,85.09804%);fill-opacity:1;" d="M 22.949219 18.367188 L 22.992188 18.378906 L 23.003906 18.367188 Z M 3.460938 19.261719 L 9.878906 29.105469 L 28.546875 29.105469 L 22.128906 19.261719 Z M 3.460938 19.261719 "/>
</g>
</defs>
<g id="surface1">
<use xlink:href="#surface5" mask="url(#mask0)"/>
<path style=" stroke:none;fill-rule:nonzero;fill:rgb(90.196079%,0.784314%,70.588237%);fill-opacity:1;" d="M 2.054688 18.367188 C 2.027344 18.367188 2.003906 18.378906 2.003906 18.394531 L 2.003906 19.238281 C 2.003906 19.242188 2.007812 19.246094 2.015625 19.25 L 2.003906 19.261719 L 9.003906 30 L 9.015625 29.988281 C 9.023438 29.996094 9.039062 30 9.054688 30 L 29.949219 30 C 29.980469 30 30.003906 29.988281 30.003906 29.972656 L 30.003906 29.132812 C 30.003906 29.125 29.996094 29.121094 29.992188 29.117188 L 30.003906 29.105469 L 23.003906 18.367188 L 22.992188 18.378906 C 22.980469 18.375 22.96875 18.367188 22.949219 18.367188 Z M 3.460938 19.261719 L 22.128906 19.261719 L 28.546875 29.105469 L 9.878906 29.105469 Z M 3.460938 19.261719 "/>
<path style=" stroke:none;fill-rule:nonzero;fill:rgb(90.196079%,0.784314%,70.588237%);fill-opacity:1;" d="M 2 12 L 2 12.867188 L 2.011719 12.882812 L 2 12.894531 L 9 23.632812 L 9.011719 23.621094 L 9.054688 23.632812 L 29.945312 23.632812 L 30 23.605469 L 30 22.761719 L 29.988281 22.75 L 30 22.738281 L 23 12 L 22.988281 12.011719 L 22.945312 12 Z M 3.457031 12.894531 L 22.125 12.894531 L 28.542969 22.738281 L 9.875 22.738281 Z M 3.457031 12.894531 "/>
<path style=" stroke:none;fill-rule:evenodd;fill:rgb(95.294118%,71.764708%,85.09804%);fill-opacity:1;" d="M 22.945312 12 C 22.964844 12 22.980469 12.003906 22.988281 12.011719 L 23 12 Z M 3.457031 12.894531 L 9.875 22.738281 L 28.542969 22.738281 L 22.125 12.894531 Z M 3.457031 12.894531 "/>
<path style="fill-rule:nonzero;fill:rgb(94.117647%,89.019608%,92.54902%);fill-opacity:1;stroke-width:0.881944;stroke-linecap:round;stroke-linejoin:round;stroke:rgb(94.117647%,89.019608%,92.54902%);stroke-opacity:1;stroke-miterlimit:4;" d="M 6.415801 2.249332 C 6.415801 2.906484 5.882673 3.439612 5.225521 3.439612 C 4.568369 3.439612 4.03524 2.906484 4.03524 2.249332 C 4.03524 1.591318 4.568369 1.05819 5.225521 1.05819 C 5.882673 1.05819 6.415801 1.591318 6.415801 2.249332 Z M 6.415801 2.249332 " transform="matrix(4.535433,0,0,4.535433,-13.7,-0.979037)"/>
<path style="fill:none;stroke-width:0.881944;stroke-linecap:round;stroke-linejoin:miter;stroke:rgb(94.117647%,89.019608%,92.54902%);stroke-opacity:1;stroke-miterlimit:4;" d="M 0.462676 1.190998 L 2.050865 1.190998 " transform="matrix(4.535433,0,0,4.535433,4.300001,3.820963)"/>
<path style="fill:none;stroke-width:0.881944;stroke-linecap:round;stroke-linejoin:miter;stroke:rgb(94.117647%,89.019608%,92.54902%);stroke-opacity:1;stroke-miterlimit:4;" d="M 1.256771 0.396904 L 1.256771 1.984232 " transform="matrix(4.535433,0,0,4.535433,4.300001,3.820963)"/>
<path style="fill-rule:nonzero;fill:rgb(94.117647%,89.019608%,92.54902%);fill-opacity:1;stroke-width:0.440972;stroke-linecap:round;stroke-linejoin:round;stroke:rgb(90.196079%,0.784314%,70.588237%);stroke-opacity:1;stroke-miterlimit:4;" d="M 6.415801 2.249332 C 6.415801 2.906484 5.882673 3.439612 5.225521 3.439612 C 4.568369 3.439612 4.03524 2.906484 4.03524 2.249332 C 4.03524 1.591318 4.568369 1.05819 5.225521 1.05819 C 5.882673 1.05819 6.415801 1.591318 6.415801 2.249332 Z M 6.415801 2.249332 " transform="matrix(4.535433,0,0,4.535433,-13.7,-0.979037)"/>
<path style="fill:none;stroke-width:0.577701;stroke-linecap:round;stroke-linejoin:miter;stroke:rgb(61.56863%,22.745098%,60.784316%);stroke-opacity:1;stroke-miterlimit:4;" d="M 0.462576 1.191109 L 2.050964 1.191109 " transform="matrix(3.423282,0,0,3.501148,5.69772,5.052409)"/>
<path style="fill:none;stroke-width:0.577701;stroke-linecap:round;stroke-linejoin:miter;stroke:rgb(61.56863%,22.745098%,60.784316%);stroke-opacity:1;stroke-miterlimit:4;" d="M 1.25677 0.396726 L 1.25677 1.984375 " transform="matrix(3.423282,0,0,3.501148,5.69772,5.052409)"/>
</g>
</svg>
