<?xml version="1.0" encoding="UTF-8"?>
<svg xmlns="http://www.w3.org/2000/svg" xmlns:xlink="http://www.w3.org/1999/xlink" width="32px" height="32px" viewBox="0 0 32 32" version="1.1">
<g id="surface1">
<path style="fill-rule:nonzero;fill:rgb(94.117647%,89.019608%,92.54902%);fill-opacity:1;stroke-width:1;stroke-linecap:round;stroke-linejoin:round;stroke:rgb(90.196079%,0.784314%,70.588237%);stroke-opacity:1;stroke-miterlimit:4;" d="M 4.5 1.5 L 13.5 1.5 C 14.052734 1.5 14.5 1.947266 14.5 2.5 L 14.5 13.5 C 14.5 14.052734 14.052734 14.5 13.5 14.5 L 4.5 14.5 C 3.947266 14.5 3.5 14.052734 3.5 13.5 L 3.5 2.5 C 3.5 1.947266 3.947266 1.5 4.5 1.5 Z M 4.5 1.5 " transform="matrix(2,0,0,2,0,0)"/>
<path style=" stroke:none;fill-rule:nonzero;fill:rgb(90.196079%,0.784314%,70.588237%);fill-opacity:1;" d="M 13 15 L 25 15 C 25.550781 15 26 15.449219 26 16 C 26 16.550781 25.550781 17 25 17 L 13 17 C 12.449219 17 12 16.550781 12 16 C 12 15.449219 12.449219 15 13 15 Z M 13 15 "/>
<path style=" stroke:none;fill-rule:nonzero;fill:rgb(95.294118%,71.764708%,85.09804%);fill-opacity:1;" d="M 13 11 L 25 11 C 25.550781 11 26 11.449219 26 12 C 26 12.550781 25.550781 13 25 13 L 13 13 C 12.449219 13 12 12.550781 12 12 C 12 11.449219 12.449219 11 13 11 Z M 13 11 "/>
<path style=" stroke:none;fill-rule:nonzero;fill:rgb(61.56863%,22.745098%,60.784316%);fill-opacity:1;" d="M 13 23 L 23 23 C 23.550781 23 24 23.449219 24 24 C 24 24.550781 23.550781 25 23 25 L 13 25 C 12.449219 25 12 24.550781 12 24 C 12 23.449219 12.449219 23 13 23 Z M 13 23 "/>
<path style=" stroke:none;fill-rule:nonzero;fill:rgb(90.196079%,0.784314%,70.588237%);fill-opacity:1;" d="M 13 19 L 25 19 C 25.550781 19 26 19.449219 26 20 C 26 20.550781 25.550781 21 25 21 L 13 21 C 12.449219 21 12 20.550781 12 20 C 12 19.449219 12.449219 19 13 19 Z M 13 19 "/>
<path style="fill:none;stroke-width:1.076923;stroke-linecap:round;stroke-linejoin:round;stroke:rgb(61.56863%,22.745098%,60.784316%);stroke-opacity:1;stroke-miterlimit:4;" d="M 4.692308 6.848846 L 2 6.848846 L 2 14.000289 L 4.999399 14.000289 " transform="matrix(1.857143,0,0,1.857143,0.285714,-0.719286)"/>
<path style="fill:none;stroke-width:1.076923;stroke-linecap:round;stroke-linejoin:round;stroke:rgb(61.56863%,22.745098%,60.784316%);stroke-opacity:1;stroke-miterlimit:4;" d="M 3.4997 11.999988 L 5.5 14.000289 L 3.4997 16.00059 " transform="matrix(1.857143,0,0,1.857143,0.285714,-0.719286)"/>
<path style="fill-rule:nonzero;fill:rgb(61.56863%,22.745098%,60.784316%);fill-opacity:1;stroke-width:0.25;stroke-linecap:butt;stroke-linejoin:miter;stroke:rgb(61.56863%,22.745098%,60.784316%);stroke-opacity:1;stroke-miterlimit:4;" d="M 10.375 3.5 C 10.40625 3.164062 10.648438 2.919922 10.951172 2.919922 C 11.154297 2.919922 11.339844 3.027344 11.443359 3.197266 C 11.546875 3.025391 11.724609 2.919922 11.923828 2.919922 C 12.226562 2.919922 12.46875 3.164062 12.5 3.5 C 12.501953 3.515625 12.511719 3.59375 12.482422 3.720703 C 12.4375 3.904297 12.335938 4.072266 12.1875 4.203125 L 11.443359 4.865234 L 10.6875 4.203125 C 10.539062 4.072266 10.4375 3.904297 10.392578 3.720703 C 10.361328 3.59375 10.373047 3.515625 10.375 3.5 Z M 10.472656 3.701172 C 10.513672 3.869141 10.607422 4.023438 10.742188 4.144531 L 11.443359 4.757812 L 12.130859 4.144531 C 12.267578 4.023438 12.361328 3.869141 12.402344 3.701172 C 12.431641 3.582031 12.419922 3.513672 12.419922 3.513672 L 12.417969 3.507812 C 12.392578 3.214844 12.183594 3 11.923828 3 C 11.730469 3 11.5625 3.117188 11.480469 3.302734 L 11.443359 3.390625 L 11.40625 3.302734 C 11.326172 3.119141 11.148438 3 10.951172 3 C 10.691406 3 10.482422 3.214844 10.455078 3.511719 C 10.455078 3.513672 10.443359 3.582031 10.472656 3.701172 Z M 10.472656 3.701172 " transform="matrix(2,0,0,2,0,0)"/>
</g>
</svg>
