<?xml version="1.0" encoding="UTF-8"?>
<svg xmlns="http://www.w3.org/2000/svg" xmlns:xlink="http://www.w3.org/1999/xlink" width="32px" height="32px" viewBox="0 0 32 32" version="1.1">
<defs>
<filter id="alpha" filterUnits="objectBoundingBox" x="0%" y="0%" width="100%" height="100%">
  <feColorMatrix type="matrix" in="SourceGraphic" values="0 0 0 0 1 0 0 0 0 1 0 0 0 0 1 0 0 0 1 0"/>
</filter>
<mask id="mask0">
  <g filter="url(#alpha)">
<rect x="0" y="0" width="32" height="32" style="fill:rgb(0%,0%,0%);fill-opacity:0.35;stroke:none;"/>
  </g>
</mask>
<clipPath id="clip1">
  <rect x="0" y="0" width="32" height="32"/>
</clipPath>
<g id="surface5" clip-path="url(#clip1)">
<path style=" stroke:none;fill-rule:nonzero;fill:rgb(33.333334%,34.117648%,32.549021%);fill-opacity:1;" d="M 4 8 L 4 24 L 28 24 L 28 8 Z M 4 8 "/>
</g>
</defs>
<g id="surface1">
<path style=" stroke:none;fill-rule:nonzero;fill:rgb(33.333334%,34.117648%,32.549021%);fill-opacity:1;" d="M 2 6 L 2 26 L 30 26 L 30 6 Z M 4 8 L 10 8 L 10 12 L 4 12 Z M 12 8 L 20 8 L 20 12 L 12 12 Z M 22 8 L 28 8 L 28 12 L 22 12 Z M 4 14 L 10 14 L 10 18 L 4 18 Z M 12 14 L 20 14 L 20 18 L 12 18 Z M 22 14 L 28 14 L 28 18 L 22 18 Z M 4 20 L 10 20 L 10 24 L 4 24 Z M 12 20 L 20 20 L 20 24 L 12 24 Z M 22 20 L 28 20 L 28 24 L 22 24 Z M 22 20 "/>
<use xlink:href="#surface5" mask="url(#mask0)"/>
</g>
</svg>
