<?xml version="1.0" encoding="UTF-8"?>
<svg xmlns="http://www.w3.org/2000/svg" xmlns:xlink="http://www.w3.org/1999/xlink" width="32px" height="32px" viewBox="0 0 32 32" version="1.1">
<g id="surface1">
<path style=" stroke:none;fill-rule:nonzero;fill:rgb(33.333334%,34.117648%,32.549021%);fill-opacity:1;" d="M 2 1 L 2 28.6875 C 2 30.507812 8.269531 32 16 32 C 23.730469 32 30 30.507812 30 28.6875 L 30 1 C 30 2.820312 23.730469 4 16 4 C 8.269531 4 2 2.820312 2 1 Z M 6 10 L 9 10 C 10.679688 10 12 11.363281 12 13 L 12 20 L 7 20 C 6.089844 20 5.261719 19.640625 4.75 19.0625 C 4.238281 18.484375 4.007812 17.722656 4 17 C 3.992188 16.277344 4.234375 15.523438 4.75 14.9375 C 5.265625 14.351562 6.078125 14 7 14 L 10 14 L 10 13 C 10 12.617188 9.429688 12 9 12 L 6 12 Z M 14 14 L 18 14 C 18.910156 14 19.738281 14.359375 20.25 14.9375 C 20.761719 15.515625 20.992188 16.277344 21 17 C 21.007812 17.722656 20.765625 18.476562 20.25 19.0625 C 19.734375 19.648438 18.921875 20 18 20 L 16 20 L 16 24 L 14 24 Z M 22 14 L 26 14 C 26.910156 14 27.738281 14.359375 28.25 14.9375 C 28.761719 15.515625 28.992188 16.277344 29 17 C 29.007812 17.722656 28.765625 18.476562 28.25 19.0625 C 27.734375 19.648438 26.921875 20 26 20 L 24 20 L 24 24 L 22 24 Z M 7 16 C 6.574219 16 6.394531 16.148438 6.25 16.3125 C 6.105469 16.476562 5.996094 16.722656 6 17 C 6.003906 17.277344 6.097656 17.515625 6.25 17.6875 C 6.402344 17.859375 6.601562 18 7 18 L 10 18 L 10 16 Z M 16 16 L 16 18 L 18 18 C 18.425781 18 18.605469 17.851562 18.75 17.6875 C 18.894531 17.523438 19.003906 17.277344 19 17 C 18.996094 16.722656 18.902344 16.484375 18.75 16.3125 C 18.597656 16.140625 18.398438 16 18 16 Z M 24 16 L 24 18 L 26 18 C 26.425781 18 26.605469 17.851562 26.75 17.6875 C 26.894531 17.523438 27.003906 17.277344 27 17 C 26.996094 16.722656 26.902344 16.484375 26.75 16.3125 C 26.597656 16.140625 26.398438 16 26 16 Z M 24 16 "/>
</g>
</svg>
