<?xml version="1.0" encoding="UTF-8"?>
<svg xmlns="http://www.w3.org/2000/svg" xmlns:xlink="http://www.w3.org/1999/xlink" width="32px" height="32px" viewBox="0 0 32 32" version="1.1">
<defs>
<clipPath id="clip1">
  <path d="M 6 2 L 29 2 L 29 9 L 6 9 Z M 6 2 "/>
</clipPath>
<clipPath id="clip2">
  <path d="M 5 2 L 30 2 L 30 10 L 5 10 Z M 5 2 "/>
</clipPath>
<clipPath id="clip3">
  <path d="M 6 22 L 28 22 L 28 30 L 6 30 Z M 6 22 "/>
</clipPath>
<clipPath id="clip4">
  <path d="M 5 21 L 29 21 L 29 30 L 5 30 Z M 5 21 "/>
</clipPath>
<clipPath id="clip5">
  <path d="M 16 22 L 27 22 L 27 30 L 16 30 Z M 16 22 "/>
</clipPath>
<clipPath id="clip6">
  <path d="M 25 15 L 30 15 L 30 17 L 25 17 Z M 25 15 "/>
</clipPath>
<clipPath id="clip7">
  <path d="M 14 9 L 30 9 L 30 30 L 14 30 Z M 14 9 "/>
</clipPath>
</defs>
<g id="surface1">
<path style=" stroke:none;fill-rule:nonzero;fill:rgb(61.56863%,22.745098%,60.784316%);fill-opacity:1;" d="M 8 16 C 6.429688 17.019531 3.570312 19.480469 2 20.5 L 2 11.5 C 3.570312 12.519531 6.429688 14.980469 8 16 Z M 8 16 "/>
<g clip-path="url(#clip1)" clip-rule="nonzero">
<path style=" stroke:none;fill-rule:nonzero;fill:rgb(94.117647%,89.019608%,92.54902%);fill-opacity:1;" d="M 8.113281 -16.730469 L 26.113281 -16.730469 C 27.21875 -16.730469 28.113281 -15.835938 28.113281 -14.730469 L 28.113281 7 C 28.113281 8.105469 27.21875 9 26.113281 9 L 8.113281 9 C 7.007812 9 6.113281 8.105469 6.113281 7 L 6.113281 -14.730469 C 6.113281 -15.835938 7.007812 -16.730469 8.113281 -16.730469 Z M 8.113281 -16.730469 "/>
</g>
<g clip-path="url(#clip2)" clip-rule="nonzero">
<path style="fill:none;stroke-width:1;stroke-linecap:round;stroke-linejoin:round;stroke:rgb(90.196079%,0.784314%,70.588237%);stroke-opacity:1;stroke-miterlimit:4;" d="M 4.056641 -8.365234 L 13.056641 -8.365234 C 13.609375 -8.365234 14.056641 -7.917969 14.056641 -7.365234 L 14.056641 3.5 C 14.056641 4.052734 13.609375 4.5 13.056641 4.5 L 4.056641 4.5 C 3.503906 4.5 3.056641 4.052734 3.056641 3.5 L 3.056641 -7.365234 C 3.056641 -7.917969 3.503906 -8.365234 4.056641 -8.365234 Z M 4.056641 -8.365234 " transform="matrix(2,0,0,2,0,0)"/>
</g>
<path style=" stroke:none;fill-rule:nonzero;fill:rgb(61.56863%,22.745098%,60.784316%);fill-opacity:1;" d="M 12.113281 3.269531 L 22.113281 3.269531 C 22.664062 3.269531 23.113281 3.71875 23.113281 4.269531 C 23.113281 4.820312 22.664062 5.269531 22.113281 5.269531 L 12.113281 5.269531 C 11.558594 5.269531 11.113281 4.820312 11.113281 4.269531 C 11.113281 3.71875 11.558594 3.269531 12.113281 3.269531 Z M 12.113281 3.269531 "/>
<g clip-path="url(#clip3)" clip-rule="nonzero">
<path style=" stroke:none;fill-rule:nonzero;fill:rgb(94.117647%,89.019608%,92.54902%);fill-opacity:1;" d="M 8 22 L 26 22 C 27.105469 22 28 22.894531 28 24 L 28 46 C 28 47.105469 27.105469 48 26 48 L 8 48 C 6.894531 48 6 47.105469 6 46 L 6 24 C 6 22.894531 6.894531 22 8 22 Z M 8 22 "/>
</g>
<g clip-path="url(#clip4)" clip-rule="nonzero">
<path style="fill:none;stroke-width:1;stroke-linecap:round;stroke-linejoin:round;stroke:rgb(90.196079%,0.784314%,70.588237%);stroke-opacity:1;stroke-miterlimit:4;" d="M 4 11 L 13 11 C 13.552734 11 14 11.447266 14 12 L 14 23 C 14 23.552734 13.552734 24 13 24 L 4 24 C 3.447266 24 3 23.552734 3 23 L 3 12 C 3 11.447266 3.447266 11 4 11 Z M 4 11 " transform="matrix(2,0,0,2,0,0)"/>
</g>
<path style=" stroke:none;fill-rule:nonzero;fill:rgb(61.56863%,22.745098%,60.784316%);fill-opacity:1;" d="M 19.75 26 C 19.8125 25.328125 20.296875 24.839844 20.902344 24.839844 C 21.308594 24.839844 21.679688 25.054688 21.886719 25.394531 C 22.09375 25.050781 22.449219 24.839844 22.847656 24.839844 C 23.453125 24.839844 23.9375 25.328125 24 26 C 24.003906 26.03125 24.023438 26.1875 23.964844 26.441406 C 23.875 26.808594 23.671875 27.144531 23.375 27.40625 L 21.886719 28.730469 L 20.375 27.40625 C 20.078125 27.144531 19.875 26.808594 19.785156 26.441406 C 19.722656 26.1875 19.746094 26.03125 19.75 26 Z M 19.945312 26.402344 C 20.027344 26.738281 20.214844 27.046875 20.484375 27.289062 L 21.886719 28.515625 L 23.261719 27.289062 C 23.535156 27.046875 23.722656 26.738281 23.804688 26.402344 C 23.863281 26.164062 23.839844 26.027344 23.839844 26.027344 L 23.835938 26.015625 C 23.785156 25.429688 23.367188 25 22.847656 25 C 22.460938 25 22.125 25.234375 21.960938 25.605469 L 21.886719 25.78125 L 21.8125 25.605469 C 21.652344 25.238281 21.296875 25 20.902344 25 C 20.382812 25 19.964844 25.429688 19.910156 26.023438 C 19.910156 26.027344 19.886719 26.164062 19.945312 26.402344 Z M 19.945312 26.402344 "/>
<g clip-path="url(#clip5)" clip-rule="nonzero">
<path style="fill:none;stroke-width:0.25;stroke-linecap:butt;stroke-linejoin:miter;stroke:rgb(61.56863%,22.745098%,60.784316%);stroke-opacity:1;stroke-miterlimit:4;" d="M 9.875 13 C 9.90625 12.664062 10.148438 12.419922 10.451172 12.419922 C 10.654297 12.419922 10.839844 12.527344 10.943359 12.697266 C 11.046875 12.525391 11.224609 12.419922 11.423828 12.419922 C 11.726562 12.419922 11.96875 12.664062 12 13 C 12.001953 13.015625 12.011719 13.09375 11.982422 13.220703 C 11.9375 13.404297 11.835938 13.572266 11.6875 13.703125 L 10.943359 14.365234 L 10.1875 13.703125 C 10.039062 13.572266 9.9375 13.404297 9.892578 13.220703 C 9.861328 13.09375 9.873047 13.015625 9.875 13 Z M 9.972656 13.201172 C 10.013672 13.369141 10.107422 13.523438 10.242188 13.644531 L 10.943359 14.257812 L 11.630859 13.644531 C 11.767578 13.523438 11.861328 13.369141 11.902344 13.201172 C 11.931641 13.082031 11.919922 13.013672 11.919922 13.013672 L 11.917969 13.007812 C 11.892578 12.714844 11.683594 12.5 11.423828 12.5 C 11.230469 12.5 11.0625 12.617188 10.980469 12.802734 L 10.943359 12.890625 L 10.90625 12.802734 C 10.826172 12.619141 10.648438 12.5 10.451172 12.5 C 10.191406 12.5 9.982422 12.714844 9.955078 13.011719 C 9.955078 13.013672 9.943359 13.082031 9.972656 13.201172 Z M 9.972656 13.201172 " transform="matrix(2,0,0,2,0,0)"/>
</g>
<path style="fill:none;stroke-width:1;stroke-linecap:round;stroke-linejoin:miter;stroke:rgb(61.56863%,22.745098%,60.784316%);stroke-opacity:1;stroke-miterlimit:4;" d="M 5 8 L 7 8 " transform="matrix(2,0,0,2,0,0)"/>
<path style="fill:none;stroke-width:1;stroke-linecap:round;stroke-linejoin:miter;stroke:rgb(61.56863%,22.745098%,60.784316%);stroke-opacity:1;stroke-miterlimit:4;" d="M 9 8 L 11 8 " transform="matrix(2,0,0,2,0,0)"/>
<g clip-path="url(#clip6)" clip-rule="nonzero">
<path style="fill:none;stroke-width:1;stroke-linecap:round;stroke-linejoin:miter;stroke:rgb(61.56863%,22.745098%,60.784316%);stroke-opacity:1;stroke-miterlimit:4;" d="M 13 8 L 15 8 " transform="matrix(2,0,0,2,0,0)"/>
</g>
<path style=" stroke:none;fill-rule:evenodd;fill:rgb(94.117647%,89.019608%,92.54902%);fill-opacity:1;" d="M 19.878906 11.003906 L 25.085938 11.003906 C 26.742188 11.003906 28.085938 12.34375 28.085938 14.003906 L 28.085938 25.277344 C 28.085938 26.933594 26.742188 28.277344 25.085938 28.277344 L 19.878906 28.277344 C 18.21875 28.277344 16.878906 26.933594 16.878906 25.277344 L 16.878906 14.003906 C 16.878906 12.34375 18.21875 11.003906 19.878906 11.003906 Z M 19.878906 11.003906 "/>
<g clip-path="url(#clip7)" clip-rule="nonzero">
<path style="fill:none;stroke-width:3.20664;stroke-linecap:round;stroke-linejoin:round;stroke:rgb(94.117647%,89.019608%,92.54902%);stroke-opacity:1;stroke-miterlimit:4;" d="M 15.943585 8.511709 L 20.076008 8.511709 C 21.390447 8.511709 22.456878 9.596685 22.456878 10.941042 L 22.456878 20.070018 C 22.456878 21.411213 21.390447 22.499351 20.076008 22.499351 L 15.943585 22.499351 C 14.626046 22.499351 13.562714 21.411213 13.562714 20.070018 L 13.562714 10.941042 C 13.562714 9.596685 14.626046 8.511709 15.943585 8.511709 Z M 15.943585 8.511709 " transform="matrix(1.260043,0,0,1.234907,-0.2107,0.492737)"/>
</g>
<path style="fill-rule:evenodd;fill:rgb(94.117647%,89.019608%,92.54902%);fill-opacity:1;stroke-width:3.20664;stroke-linecap:round;stroke-linejoin:round;stroke:rgb(94.117647%,89.019608%,92.54902%);stroke-opacity:1;stroke-miterlimit:4;" d="M 17.881142 11.500927 L 18.119849 11.500927 C 19.434289 11.500927 20.50072 12.589066 20.50072 13.93026 L 20.50072 18.07088 C 20.50072 19.412074 19.434289 20.500213 18.119849 20.500213 L 17.881142 20.500213 C 16.566703 20.500213 15.500272 19.412074 15.500272 18.07088 L 15.500272 13.93026 C 15.500272 12.589066 16.566703 11.500927 17.881142 11.500927 Z M 17.881142 11.500927 " transform="matrix(1.260043,0,0,1.234907,-0.2107,0.492737)"/>
<path style="fill-rule:evenodd;fill:rgb(94.117647%,89.019608%,92.54902%);fill-opacity:1;stroke-width:3.20664;stroke-linecap:round;stroke-linejoin:round;stroke:rgb(94.117647%,89.019608%,92.54902%);stroke-opacity:1;stroke-miterlimit:4;" d="M 18.420558 14.186478 C 18.420558 14.414228 18.234553 14.597694 18.005146 14.597694 C 17.775739 14.597694 17.589734 14.417392 17.586634 14.189642 C 17.583534 13.965055 17.766439 13.778426 17.995846 13.775263 C 18.225253 13.7721 18.414358 13.949239 18.420558 14.176989 L 18.005146 14.186478 Z M 18.420558 14.186478 " transform="matrix(1.260043,0,0,1.234907,-0.2107,0.492737)"/>
<path style="fill:none;stroke-width:3.20664;stroke-linecap:round;stroke-linejoin:round;stroke:rgb(94.117647%,89.019608%,92.54902%);stroke-opacity:1;stroke-miterlimit:4;" d="M 17.949344 16.900499 L 17.949344 19.424727 " transform="matrix(1.260043,0,0,1.234907,-0.2107,0.492737)"/>
<path style="fill-rule:evenodd;fill:rgb(94.117647%,89.019608%,92.54902%);fill-opacity:1;stroke-width:1.60332;stroke-linecap:round;stroke-linejoin:round;stroke:rgb(90.196079%,0.784314%,70.588237%);stroke-opacity:1;stroke-miterlimit:4;" d="M 15.943585 8.511709 L 20.076008 8.511709 C 21.390447 8.511709 22.456878 9.596685 22.456878 10.941042 L 22.456878 20.070018 C 22.456878 21.411213 21.390447 22.499351 20.076008 22.499351 L 15.943585 22.499351 C 14.626046 22.499351 13.562714 21.411213 13.562714 20.070018 L 13.562714 10.941042 C 13.562714 9.596685 14.626046 8.511709 15.943585 8.511709 Z M 15.943585 8.511709 " transform="matrix(1.260043,0,0,1.234907,-0.2107,0.492737)"/>
<path style="fill-rule:evenodd;fill:rgb(95.294118%,71.764708%,85.09804%);fill-opacity:1;stroke-width:1.60332;stroke-linecap:round;stroke-linejoin:round;stroke:rgb(90.196079%,0.784314%,70.588237%);stroke-opacity:1;stroke-miterlimit:4;" d="M 17.881142 11.500927 L 18.119849 11.500927 C 19.434289 11.500927 20.50072 12.589066 20.50072 13.93026 L 20.50072 18.07088 C 20.50072 19.412074 19.434289 20.500213 18.119849 20.500213 L 17.881142 20.500213 C 16.566703 20.500213 15.500272 19.412074 15.500272 18.07088 L 15.500272 13.93026 C 15.500272 12.589066 16.566703 11.500927 17.881142 11.500927 Z M 17.881142 11.500927 " transform="matrix(1.260043,0,0,1.234907,-0.2107,0.492737)"/>
<path style="fill:none;stroke-width:1.60332;stroke-linecap:round;stroke-linejoin:round;stroke:rgb(61.56863%,22.745098%,60.784316%);stroke-opacity:1;stroke-miterlimit:4;" d="M 18.420558 14.186478 C 18.420558 14.414228 18.234553 14.597694 18.005146 14.597694 C 17.775739 14.597694 17.589734 14.417392 17.586634 14.189642 C 17.583534 13.965055 17.766439 13.778426 17.995846 13.775263 C 18.225253 13.7721 18.414358 13.949239 18.420558 14.176989 L 18.005146 14.186478 Z M 18.420558 14.186478 " transform="matrix(1.260043,0,0,1.234907,-0.2107,0.492737)"/>
<path style="fill:none;stroke-width:1.60332;stroke-linecap:round;stroke-linejoin:round;stroke:rgb(90.196079%,0.784314%,70.588237%);stroke-opacity:1;stroke-miterlimit:4;" d="M 17.949344 16.900499 L 17.949344 19.424727 " transform="matrix(1.260043,0,0,1.234907,-0.2107,0.492737)"/>
</g>
</svg>
