<?xml version="1.0" encoding="UTF-8"?>
<svg xmlns="http://www.w3.org/2000/svg" xmlns:xlink="http://www.w3.org/1999/xlink" width="32px" height="32px" viewBox="0 0 32 32" version="1.1">
<g id="surface1">
<path style="fill-rule:evenodd;fill:rgb(94.117647%,89.019608%,92.54902%);fill-opacity:1;stroke-width:1;stroke-linecap:round;stroke-linejoin:round;stroke:rgb(90.196079%,0.784314%,70.588237%);stroke-opacity:1;stroke-miterlimit:4;" d="M 3.5 1.5 L 12.5 1.5 C 13.052734 1.5 13.5 1.947266 13.5 2.5 L 13.5 13.5 C 13.5 14.052734 13.052734 14.5 12.5 14.5 L 3.5 14.5 C 2.947266 14.5 2.5 14.052734 2.5 13.5 L 2.5 2.5 C 2.5 1.947266 2.947266 1.5 3.5 1.5 Z M 3.5 1.5 " transform="matrix(2,0,0,2,0,0)"/>
<path style=" stroke:none;fill-rule:nonzero;fill:rgb(90.196079%,0.784314%,70.588237%);fill-opacity:1;" d="M 9 8 L 15 8 C 15.550781 8 16 8.449219 16 9 C 16 9.550781 15.550781 10 15 10 L 9 10 C 8.449219 10 8 9.550781 8 9 C 8 8.449219 8.449219 8 9 8 Z M 9 8 "/>
<path style=" stroke:none;fill-rule:nonzero;fill:rgb(90.196079%,0.784314%,70.588237%);fill-opacity:1;" d="M 9 16 L 15 16 C 15.550781 16 16 16.449219 16 17 C 16 17.550781 15.550781 18 15 18 L 9 18 C 8.449219 18 8 17.550781 8 17 C 8 16.449219 8.449219 16 9 16 Z M 9 16 "/>
<path style=" stroke:none;fill-rule:nonzero;fill:rgb(90.196079%,0.784314%,70.588237%);fill-opacity:1;" d="M 9 24 L 15 24 C 15.550781 24 16 24.449219 16 25 C 16 25.550781 15.550781 26 15 26 L 9 26 C 8.449219 26 8 25.550781 8 25 C 8 24.449219 8.449219 24 9 24 Z M 9 24 "/>
<path style="fill-rule:nonzero;fill:rgb(61.56863%,22.745098%,60.784316%);fill-opacity:1;stroke-width:0.25;stroke-linecap:butt;stroke-linejoin:miter;stroke:rgb(61.56863%,22.745098%,60.784316%);stroke-opacity:1;stroke-miterlimit:4;" d="M 9.78125 4.351562 C 9.816406 3.960938 10.091797 3.675781 10.439453 3.675781 C 10.669922 3.675781 10.880859 3.800781 11 4 C 11.117188 3.798828 11.320312 3.675781 11.546875 3.675781 C 11.894531 3.675781 12.169922 3.960938 12.207031 4.351562 C 12.208984 4.369141 12.220703 4.460938 12.185547 4.609375 C 12.134766 4.822266 12.017578 5.017578 11.847656 5.171875 L 11 5.941406 L 10.138672 5.171875 C 9.96875 5.017578 9.851562 4.822266 9.800781 4.609375 C 9.765625 4.460938 9.777344 4.369141 9.78125 4.351562 Z M 9.892578 4.587891 C 9.9375 4.783203 10.044922 4.960938 10.201172 5.101562 L 11 5.816406 L 11.785156 5.101562 C 11.941406 4.960938 12.048828 4.783203 12.09375 4.587891 C 12.126953 4.447266 12.113281 4.367188 12.113281 4.367188 L 12.113281 4.361328 C 12.082031 4.019531 11.845703 3.769531 11.546875 3.769531 C 11.328125 3.769531 11.134766 3.904297 11.042969 4.123047 L 11 4.224609 L 10.957031 4.123047 C 10.867188 3.908203 10.664062 3.769531 10.439453 3.769531 C 10.142578 3.769531 9.904297 4.019531 9.873047 4.367188 C 9.873047 4.367188 9.859375 4.447266 9.892578 4.587891 Z M 9.892578 4.587891 " transform="matrix(2,0,0,2,0,0)"/>
<path style="fill-rule:nonzero;fill:rgb(61.56863%,22.745098%,60.784316%);fill-opacity:1;stroke-width:0.25;stroke-linecap:butt;stroke-linejoin:miter;stroke:rgb(61.56863%,22.745098%,60.784316%);stroke-opacity:1;stroke-miterlimit:4;" d="M 9.78125 8.351562 C 9.816406 7.960938 10.091797 7.675781 10.439453 7.675781 C 10.669922 7.675781 10.880859 7.800781 11 8 C 11.117188 7.798828 11.320312 7.675781 11.546875 7.675781 C 11.894531 7.675781 12.169922 7.960938 12.207031 8.351562 C 12.208984 8.369141 12.220703 8.460938 12.185547 8.609375 C 12.134766 8.822266 12.017578 9.017578 11.847656 9.171875 L 11 9.941406 L 10.138672 9.171875 C 9.96875 9.017578 9.851562 8.822266 9.800781 8.609375 C 9.765625 8.460938 9.777344 8.369141 9.78125 8.351562 Z M 9.892578 8.587891 C 9.9375 8.783203 10.044922 8.960938 10.201172 9.101562 L 11 9.816406 L 11.785156 9.101562 C 11.941406 8.960938 12.048828 8.783203 12.09375 8.587891 C 12.126953 8.447266 12.113281 8.367188 12.113281 8.367188 L 12.113281 8.361328 C 12.082031 8.019531 11.845703 7.769531 11.546875 7.769531 C 11.328125 7.769531 11.134766 7.904297 11.042969 8.123047 L 11 8.224609 L 10.957031 8.123047 C 10.867188 7.908203 10.664062 7.769531 10.439453 7.769531 C 10.142578 7.769531 9.904297 8.019531 9.873047 8.367188 C 9.873047 8.367188 9.859375 8.447266 9.892578 8.587891 Z M 9.892578 8.587891 " transform="matrix(2,0,0,2,0,0)"/>
</g>
</svg>
