<?xml version="1.0" encoding="UTF-8"?>
<svg xmlns="http://www.w3.org/2000/svg" xmlns:xlink="http://www.w3.org/1999/xlink" width="32px" height="32px" viewBox="0 0 32 32" version="1.1">
<defs>
<filter id="alpha" filterUnits="objectBoundingBox" x="0%" y="0%" width="100%" height="100%">
  <feColorMatrix type="matrix" in="SourceGraphic" values="0 0 0 0 1 0 0 0 0 1 0 0 0 0 1 0 0 0 1 0"/>
</filter>
<mask id="mask0">
  <g filter="url(#alpha)">
<rect x="0" y="0" width="32" height="32" style="fill:rgb(0%,0%,0%);fill-opacity:0.628019;stroke:none;"/>
  </g>
</mask>
<clipPath id="clip1">
  <rect x="0" y="0" width="32" height="32"/>
</clipPath>
<g id="surface5" clip-path="url(#clip1)">
<path style=" stroke:none;fill-rule:nonzero;fill:rgb(95.294118%,71.764708%,85.09804%);fill-opacity:1;" d="M 4 4 L 28 4 L 27.902344 28.144531 L 4 28 Z M 4 4 "/>
</g>
</defs>
<g id="surface1">
<path style=" stroke:none;fill-rule:nonzero;fill:rgb(90.196079%,0.784314%,70.588237%);fill-opacity:1;" d="M 2.914062 2 C 2.367188 2 1.941406 2.488281 1.941406 3.078125 L 1.945312 28.933594 C 1.945312 29.523438 2.347656 30.003906 2.898438 30.003906 L 29.019531 30.003906 C 29.570312 30.003906 30.011719 29.527344 30.011719 28.9375 L 30.011719 2.933594 C 30.011719 2.34375 29.589844 2 29.039062 2 Z M 4 4 L 28 4 L 28 28 L 4 28 Z M 4 4 "/>
<use xlink:href="#surface5" mask="url(#mask0)"/>
</g>
</svg>
