<?xml version="1.0" encoding="UTF-8"?>
<svg xmlns="http://www.w3.org/2000/svg" xmlns:xlink="http://www.w3.org/1999/xlink" width="32px" height="32px" viewBox="0 0 32 32" version="1.1">
<defs>
<linearGradient id="linear0" gradientUnits="userSpaceOnUse" x1="64" y1="100" x2="64" y2="28" gradientTransform="matrix(0.142857,-0.000000000000000014,-0.000000000000000007,0.125,-20.810118,-8.081458)">
<stop offset="0" style="stop-color:rgb(78.431374%,78.431374%,78.431374%);stop-opacity:1;"/>
<stop offset="1" style="stop-color:rgb(89.411765%,89.411765%,89.411765%);stop-opacity:1;"/>
</linearGradient>
</defs>
<g id="surface1">
<path style="fill:none;stroke-width:1;stroke-linecap:round;stroke-linejoin:round;stroke:url(#linear0);stroke-miterlimit:4;" d="M -11.333043 -5.395809 C -10.293098 -5.39719 -9.450647 -4.129369 -9.450647 -2.568763 L -9.450647 3.071519 C -9.450647 4.634888 -10.294479 5.901327 -11.333042 5.901327 C -12.374367 5.901327 -13.215438 4.634888 -13.216819 3.0729 L -13.216819 -2.567381 C -13.216819 -4.13075 -12.372987 -5.39719 -11.333043 -5.395809 Z M -11.333043 -5.395809 " transform="matrix(-1.414214,-1.414214,-1.414214,1.414214,-0.1152,-0.384797)"/>
<path style="fill-rule:nonzero;fill:rgb(94.117647%,89.019608%,92.54902%);fill-opacity:1;stroke-width:1.5;stroke-linecap:round;stroke-linejoin:round;stroke:rgb(90.196079%,0.784314%,70.588237%);stroke-opacity:1;stroke-miterlimit:4;" d="M -11.449052 -5.395809 L -11.218414 -5.39719 C -10.241999 -5.395809 -9.450647 -4.129369 -9.450647 -2.568763 L -9.450647 3.071519 C -9.450647 4.634888 -10.241998 5.901327 -11.218414 5.899946 L -11.449052 5.901327 C -12.424086 5.901327 -13.215438 4.634888 -13.216819 3.0729 L -13.216819 -2.567381 C -13.216819 -4.13075 -12.425467 -5.39719 -11.449052 -5.395809 Z M -11.449052 -5.395809 " transform="matrix(-1.414214,-1.414214,-1.414214,1.414214,-0.1152,-0.384797)"/>
<path style="fill-rule:nonzero;fill:rgb(95.294118%,71.764708%,85.09804%);fill-opacity:1;stroke-width:18.025743;stroke-linecap:round;stroke-linejoin:round;stroke:rgb(61.56863%,22.745098%,60.784316%);stroke-opacity:1;stroke-miterlimit:4;" d="M 65.639023 -15.543202 L 66.360971 -15.543202 C 67.257183 -15.543202 68.004027 -14.796359 68.004027 -13.900147 L 68.004029 30.362765 C 68.004029 31.258977 67.269633 31.993373 66.360974 32.005821 L 65.639025 32.005821 C 64.730366 31.993373 63.99597 31.258978 63.99597 30.362766 L 63.995968 -13.900147 C 63.995968 -14.796359 64.742811 -15.543202 65.639023 -15.543202 Z M 65.639023 -15.543202 " transform="matrix(-0.15691,-0.15691,-0.15691,0.15691,35.770713,16.941462)"/>
<path style=" stroke:none;fill-rule:nonzero;fill:rgb(95.294118%,71.764708%,85.09804%);fill-opacity:1;" d="M 28.378906 3.894531 L 28.105469 3.621094 C 27.835938 3.351562 27.296875 3.445312 26.90625 3.835938 L 20.714844 10.03125 C 20.324219 10.421875 20.226562 10.957031 20.5 11.230469 L 20.769531 11.5 C 21.042969 11.773438 21.578125 11.675781 21.96875 11.285156 L 28.164062 5.09375 C 28.554688 4.703125 28.648438 4.164062 28.378906 3.894531 Z M 28.378906 3.894531 "/>
<path style="fill-rule:nonzero;fill:rgb(95.294118%,71.764708%,85.09804%);fill-opacity:1;stroke-width:18.025743;stroke-linecap:round;stroke-linejoin:round;stroke:rgb(61.56863%,22.745098%,60.784316%);stroke-opacity:1;stroke-miterlimit:4;" d="M 65.639021 -15.543196 L 66.360969 -15.543196 C 67.257181 -15.543196 68.004025 -14.796353 68.004025 -13.900141 L 68.004027 30.362772 C 68.004027 31.258984 67.269631 31.99338 66.360972 32.005827 L 65.639023 32.005827 C 64.730364 31.99338 63.995968 31.258984 63.995968 30.362772 L 63.995966 -13.90014 C 63.995966 -14.796352 64.742809 -15.543196 65.639021 -15.543196 Z M 65.639021 -15.543196 " transform="matrix(0.15691,0.15691,0.15691,-0.15691,-3.770714,15.058539)"/>
<path style=" stroke:none;fill-rule:nonzero;fill:rgb(95.294118%,71.764708%,85.09804%);fill-opacity:1;" d="M 3.621094 28.105469 L 3.894531 28.378906 C 4.164062 28.648438 4.703125 28.554688 5.09375 28.164062 L 11.285156 21.96875 C 11.675781 21.578125 11.773438 21.042969 11.5 20.769531 L 11.230469 20.5 C 10.957031 20.226562 10.421875 20.324219 10.03125 20.714844 L 3.835938 26.90625 C 3.445312 27.296875 3.351562 27.835938 3.621094 28.105469 Z M 3.621094 28.105469 "/>
</g>
</svg>
