<?xml version="1.0" encoding="UTF-8"?>
<svg xmlns="http://www.w3.org/2000/svg" xmlns:xlink="http://www.w3.org/1999/xlink" width="32px" height="32px" viewBox="0 0 32 32" version="1.1">
<g id="surface1">
<path style=" stroke:none;fill-rule:nonzero;fill:rgb(95.294118%,71.764708%,85.09804%);fill-opacity:1;" d="M 13.675781 32 L 30.335938 32 C 31.257812 32 32 31.257812 32 30.335938 L 32 16.535156 L 24.050781 8.675781 L 13.675781 8.675781 C 12.753906 8.675781 12.011719 9.417969 12.011719 10.34375 L 12.011719 30.335938 C 12.011719 31.257812 12.753906 32 13.675781 32 Z M 13.675781 32 "/>
<path style=" stroke:none;fill-rule:nonzero;fill:rgb(94.117647%,89.019608%,92.54902%);fill-opacity:1;" d="M 13.695312 30.335938 L 13.695312 10.34375 L 24.523438 10.34375 L 24.523438 16.171875 L 30.355469 16.171875 L 30.355469 30.335938 Z M 13.695312 30.335938 "/>
<path style=" stroke:none;fill-rule:nonzero;fill:rgb(90.196079%,0.784314%,70.588237%);fill-opacity:1;" d="M 25.335938 17.007812 C 24.414062 17.007812 23.671875 16.261719 23.671875 15.339844 L 23.671875 8.675781 L 24.558594 8.675781 C 27.324219 10.5 30.492188 13.515625 32 16.199219 L 32 17.007812 Z M 25.335938 17.007812 "/>
<path style=" stroke:none;fill-rule:nonzero;fill:rgb(95.294118%,71.764708%,85.09804%);fill-opacity:1;" d="M 1.570312 0 L 17.277344 0 C 18.148438 0 18.847656 0.699219 18.847656 1.570312 L 18.847656 14.578125 L 11.351562 21.992188 L 1.570312 21.992188 C 0.699219 21.992188 0 21.289062 0 20.417969 L 0 1.570312 C 0 0.699219 0.699219 0 1.570312 0 Z M 1.570312 0 "/>
<path style=" stroke:none;fill-rule:nonzero;fill:rgb(94.117647%,89.019608%,92.54902%);fill-opacity:1;" d="M 1.589844 1.570312 L 1.589844 20.417969 L 11.796875 20.417969 L 11.796875 14.921875 L 17.296875 14.921875 L 17.296875 1.570312 Z M 1.589844 1.570312 "/>
<path style="fill-rule:nonzero;fill:rgb(90.196079%,0.784314%,70.588237%);fill-opacity:1;stroke-width:1;stroke-linecap:butt;stroke-linejoin:miter;stroke:rgb(61.56863%,22.745098%,60.784316%);stroke-opacity:1;stroke-miterlimit:4;" d="M 9.670392 3.999609 L 11.65896 3.999609 C 12.17025 3.999609 12.64251 4.719633 12.660074 5.000618 L 12.660074 9.000748 L 11.904847 9.000748 C 11.719456 9.000748 11.539919 9.111971 11.456005 9.27783 C 11.374042 9.443689 11.391606 9.656379 11.502841 9.804676 L 13.243569 11.804741 C 13.335289 11.929623 13.489456 12.003772 13.645576 12.003772 C 13.799743 12.003772 13.953911 11.929623 14.047582 11.804741 L 15.819534 9.804676 C 15.881982 9.722722 15.917109 9.621256 15.921012 9.519789 C 15.930769 9.250512 15.686833 8.998796 15.417528 9.000748 L 14.672059 9.000748 L 14.672059 5.00452 C 14.672059 3.626914 13.036711 1.999544 11.65896 1.999544 L 9.697713 1.999544 Z M 9.670392 3.999609 " transform="matrix(2.001677,0,0,2.001888,-1.329654,-0.0380201)"/>
<path style=" stroke:none;fill-rule:nonzero;fill:rgb(61.56863%,22.745098%,60.784316%);fill-opacity:1;" d="M 18.015625 25.996094 L 28.023438 25.996094 L 28.023438 27.996094 L 18.015625 27.996094 Z M 18.015625 25.996094 "/>
<path style=" stroke:none;fill-rule:nonzero;fill:rgb(61.56863%,22.745098%,60.784316%);fill-opacity:1;" d="M 4.003906 1.972656 L 16.011719 1.972656 L 16.011719 3.972656 L 4.003906 3.972656 Z M 4.003906 1.972656 "/>
<path style=" stroke:none;fill-rule:nonzero;fill:rgb(61.56863%,22.745098%,60.784316%);fill-opacity:1;" d="M 4.003906 5.976562 L 16.011719 5.976562 L 16.011719 7.976562 L 4.003906 7.976562 Z M 4.003906 5.976562 "/>
<path style=" stroke:none;fill-rule:nonzero;fill:rgb(61.56863%,22.745098%,60.784316%);fill-opacity:1;" d="M 4.003906 9.980469 L 16.011719 9.980469 L 16.011719 11.980469 L 4.003906 11.980469 Z M 4.003906 9.980469 "/>
<path style=" stroke:none;fill-rule:nonzero;fill:rgb(61.56863%,22.745098%,60.784316%);fill-opacity:1;" d="M 4.003906 13.984375 L 16.011719 13.984375 L 16.011719 15.984375 L 4.003906 15.984375 Z M 4.003906 13.984375 "/>
<path style=" stroke:none;fill-rule:nonzero;fill:rgb(61.56863%,22.745098%,60.784316%);fill-opacity:1;" d="M 4.003906 17.988281 L 12.011719 17.988281 L 12.011719 19.988281 L 4.003906 19.988281 Z M 4.003906 17.988281 "/>
<path style=" stroke:none;fill-rule:nonzero;fill:rgb(90.196079%,0.784314%,70.588237%);fill-opacity:1;" d="M 12.566406 14.136719 C 11.695312 14.136719 10.996094 14.835938 10.996094 15.707031 L 10.996094 21.992188 L 11.832031 21.992188 C 14.4375 20.269531 17.425781 17.425781 18.847656 14.898438 L 18.847656 14.136719 Z M 12.566406 14.136719 "/>
<path style=" stroke:none;fill-rule:nonzero;fill:rgb(90.196079%,0.784314%,70.588237%);fill-opacity:1;" d="M 6.003906 1.972656 L 16.011719 1.972656 L 16.011719 3.972656 L 6.003906 3.972656 Z M 6.003906 1.972656 "/>
</g>
</svg>
