<?xml version="1.0" encoding="UTF-8"?>
<svg xmlns="http://www.w3.org/2000/svg" xmlns:xlink="http://www.w3.org/1999/xlink" width="32px" height="32px" viewBox="0 0 32 32" version="1.1">
<g id="surface1">
<path style=" stroke:none;fill-rule:nonzero;fill:rgb(33.333334%,34.117648%,32.549021%);fill-opacity:1;" d="M 18 2 L 18 16 L 24 16 C 26.210938 16 28 14.210938 28 12 C 28 9.789062 26.210938 8 24 8 L 20 8 L 20 2 Z M 6 6 L 6 8 L 12 8 L 12 10 L 7 10 C 5.34375 10 4 11.34375 4 13 C 4 14.65625 5.34375 16 7 16 L 14 16 L 14 8 C 14 6.894531 13.105469 6 12 6 Z M 20 10 L 24 10 C 25.105469 10 26 10.894531 26 12 C 26 13.105469 25.105469 14 24 14 L 20 14 Z M 7 12 L 12 12 L 12 14 L 7 14 C 6.449219 14 6 13.550781 6 13 C 6 12.449219 6.449219 12 7 12 Z M 8 18 C 7.46875 18 6.9375 18.1875 6.5625 18.5625 L 2 23.125 L 2 24.875 L 6.5625 29.4375 C 6.9375 29.8125 7.46875 30 8 30 L 10 30 L 10 28 C 10 27.46875 9.8125 26.9375 9.4375 26.5625 L 8.875 26 L 30 26 L 30 22 L 8.875 22 L 9.4375 21.4375 C 9.8125 21.0625 10 20.53125 10 20 L 10 18 Z M 8 18 "/>
</g>
</svg>
