<?xml version="1.0" encoding="UTF-8"?>
<svg xmlns="http://www.w3.org/2000/svg" xmlns:xlink="http://www.w3.org/1999/xlink" width="32px" height="32px" viewBox="0 0 32 32" version="1.1">
<g id="surface1">
<path style=" stroke:none;fill-rule:nonzero;fill:rgb(90.196079%,0.784314%,70.588237%);fill-opacity:1;" d="M 4.183594 4 L 27.816406 4 C 29.023438 4 30 4.976562 30 6.183594 L 30 25.816406 C 30 27.023438 29.023438 28 27.816406 28 L 4.183594 28 C 2.976562 28 2 27.023438 2 25.816406 L 2 6.183594 C 2 4.976562 2.976562 4 4.183594 4 Z M 4.183594 4 "/>
<path style=" stroke:none;fill-rule:nonzero;fill:rgb(94.117647%,89.019608%,92.54902%);fill-opacity:1;" d="M 6 6 L 26 6 C 27.105469 6 28 6.894531 28 8 L 28 24 C 28 25.105469 27.105469 26 26 26 L 6 26 C 4.894531 26 4 25.105469 4 24 L 4 8 C 4 6.894531 4.894531 6 6 6 Z M 6 6 "/>
<path style="fill:none;stroke-width:0.5;stroke-linecap:butt;stroke-linejoin:miter;stroke:rgb(61.56863%,22.745098%,60.784316%);stroke-opacity:1;stroke-miterlimit:4;" d="M 9.439453 8.087891 C 8.392578 9.347656 7.746094 10.615234 7.535156 11.896484 C 7.535156 11.896484 6.900391 9.992188 5.632812 9.992188 " transform="matrix(2,0,0,2,0,0)"/>
<path style="fill-rule:nonzero;fill:rgb(90.196079%,0.784314%,70.588237%);fill-opacity:1;stroke-width:1.885043;stroke-linecap:butt;stroke-linejoin:miter;stroke:rgb(90.196079%,0.784314%,70.588237%);stroke-opacity:1;stroke-miterlimit:4;" d="M -1.069157 15.475655 C -2.796284 16.167314 -3.247821 14.088736 -3.247821 14.088736 C -3.247821 14.088736 -4.165946 16.347434 -5.682356 15.01455 C -7.195004 13.681666 -4.971186 12.611756 -4.971186 12.611756 C -4.971186 12.611756 -7.537419 12.413625 -6.645634 10.695285 C -5.75385 8.976945 -4.026722 10.59802 -4.026722 10.59802 C -4.026722 10.59802 -4.734129 8.267274 -2.630721 8.490622 C -0.52355 8.710368 -1.720122 10.828573 -1.720122 10.828573 C -1.720122 10.828573 0.458542 9.70823 0.816009 11.440979 C 1.177238 13.177331 -1.238483 12.986404 -1.238483 12.986404 C -1.238483 12.986404 0.657971 14.780394 -1.069157 15.475655 Z M -1.069157 15.475655 " transform="matrix(-1.038122,0,0,1.08435,16.440866,-1.081804)"/>
<path style="fill-rule:nonzero;fill:rgb(95.294118%,71.764708%,85.09804%);fill-opacity:1;stroke-width:1.885043;stroke-linecap:butt;stroke-linejoin:miter;stroke:rgb(95.294118%,71.764708%,85.09804%);stroke-opacity:1;stroke-miterlimit:4;" d="M -1.915788 13.966254 C -2.879066 14.355312 -3.134937 13.191741 -3.134937 13.191741 C -3.134937 13.191741 -3.646678 14.452577 -4.497072 13.706882 C -5.347467 12.961188 -4.098215 12.363191 -4.098215 12.363191 C -4.098215 12.363191 -5.535607 12.251517 -5.035154 11.289679 C -4.538463 10.327841 -3.571422 11.235643 -3.571422 11.235643 C -3.571422 11.235643 -3.966517 9.931578 -2.788759 10.054059 C -1.607238 10.176541 -2.28078 11.361727 -2.28078 11.361727 C -2.28078 11.361727 -1.057868 10.734911 -0.85844 11.707556 C -0.655248 12.680201 -2.009858 12.57213 -2.009858 12.57213 C -2.009858 12.57213 -0.948747 13.577196 -1.915788 13.966254 Z M -1.915788 13.966254 " transform="matrix(-1.038122,0,0,1.08435,16.440866,-1.081804)"/>
<path style=" stroke:none;fill-rule:nonzero;fill:rgb(61.56863%,22.745098%,60.784316%);fill-opacity:1;" d="M 18.3125 11.980469 C 18.3125 12.6875 18.863281 13.265625 19.542969 13.265625 C 20.222656 13.265625 20.777344 12.6875 20.777344 11.980469 C 20.777344 11.269531 20.222656 10.691406 19.542969 10.691406 C 18.863281 10.691406 18.3125 11.269531 18.3125 11.980469 Z M 18.3125 11.980469 "/>
<path style="fill-rule:nonzero;fill:rgb(90.196079%,0.784314%,70.588237%);fill-opacity:1;stroke-width:1.885043;stroke-linecap:butt;stroke-linejoin:miter;stroke:rgb(90.196079%,0.784314%,70.588237%);stroke-opacity:1;stroke-miterlimit:4;" d="M -1.067864 15.473892 C -2.794991 16.169153 -3.246528 14.090574 -3.246528 14.090574 C -3.246528 14.090574 -4.164653 16.34567 -5.681063 15.012786 C -7.197474 13.679902 -4.969893 12.613595 -4.969893 12.613595 C -4.969893 12.613595 -7.536126 12.415463 -6.644341 10.697124 C -5.752556 8.978784 -4.029192 10.596257 -4.029192 10.596257 C -4.029192 10.596257 -4.732836 8.269113 -2.629428 8.488859 C -0.522257 8.708605 -1.722592 10.82681 -1.722592 10.82681 C -1.722592 10.82681 0.456073 9.706467 0.817302 11.442818 C 1.178531 13.17917 -1.240953 12.984641 -1.240953 12.984641 C -1.240953 12.984641 0.655501 14.778631 -1.067864 15.473892 Z M -1.067864 15.473892 " transform="matrix(-1.038122,0,0,1.08435,7.082834,4.685733)"/>
<path style="fill-rule:nonzero;fill:rgb(95.294118%,71.764708%,85.09804%);fill-opacity:1;stroke-width:1.885043;stroke-linecap:butt;stroke-linejoin:miter;stroke:rgb(95.294118%,71.764708%,85.09804%);stroke-opacity:1;stroke-miterlimit:4;" d="M -1.914495 13.964491 C -2.881536 14.353549 -3.133644 13.189977 -3.133644 13.189977 C -3.133644 13.189977 -3.649148 14.454416 -4.495779 13.708721 C -5.346174 12.959424 -4.100685 12.36503 -4.100685 12.36503 C -4.100685 12.36503 -5.534314 12.253356 -5.037623 11.287916 C -4.53717 10.326078 -3.570129 11.23388 -3.570129 11.23388 C -3.570129 11.23388 -3.965224 9.929815 -2.787466 10.052296 C -1.609708 10.17838 -2.279487 11.363566 -2.279487 11.363566 C -2.279487 11.363566 -1.060338 10.73675 -0.857147 11.705793 C -0.657718 12.678438 -2.008565 12.573969 -2.008565 12.573969 C -2.008565 12.573969 -0.947454 13.575433 -1.914495 13.964491 Z M -1.914495 13.964491 " transform="matrix(-1.038122,0,0,1.08435,7.082834,4.685733)"/>
<path style=" stroke:none;fill-rule:nonzero;fill:rgb(61.56863%,22.745098%,60.784316%);fill-opacity:1;" d="M 8.953125 17.746094 C 8.953125 18.457031 9.503906 19.03125 10.1875 19.03125 C 10.867188 19.03125 11.417969 18.457031 11.417969 17.746094 C 11.417969 17.035156 10.867188 16.460938 10.1875 16.460938 C 9.503906 16.460938 8.953125 17.035156 8.953125 17.746094 Z M 8.953125 17.746094 "/>
<path style="fill-rule:evenodd;fill:rgb(95.294118%,71.764708%,85.09804%);fill-opacity:1;stroke-width:1.141441;stroke-linecap:round;stroke-linejoin:round;stroke:rgb(61.56863%,22.745098%,60.784316%);stroke-opacity:1;stroke-miterlimit:4;" d="M 15.291383 11.442875 C 15.291383 13.431479 13.679544 15.045548 11.69094 15.045548 C 9.702336 15.045548 8.090497 13.431479 8.090497 11.442875 C 8.090497 9.454271 9.702336 7.842432 11.69094 7.842432 C 13.679544 7.842432 15.291383 9.454271 15.291383 11.442875 Z M 15.291383 11.442875 " transform="matrix(1.752172,0,0,1.752172,1.515467,2.993089)"/>
<path style="fill:none;stroke-width:1.930378;stroke-linecap:round;stroke-linejoin:miter;stroke:rgb(90.196079%,0.784314%,70.588237%);stroke-opacity:1;stroke-miterlimit:4;" d="M 11.533167 8.455621 L 11.533167 14.163809 " transform="matrix(1.036067,0,0,1.036067,10.050871,11.325351)"/>
<path style="fill:none;stroke-width:1.930378;stroke-linecap:round;stroke-linejoin:miter;stroke:rgb(90.196079%,0.784314%,70.588237%);stroke-opacity:1;stroke-miterlimit:4;" d="M 8.679073 11.309715 L 14.387261 11.309715 " transform="matrix(1.036067,0,0,1.036067,10.050871,11.325351)"/>
</g>
</svg>
