<?xml version="1.0" encoding="UTF-8"?>
<svg xmlns="http://www.w3.org/2000/svg" xmlns:xlink="http://www.w3.org/1999/xlink" width="32px" height="32px" viewBox="0 0 32 32" version="1.1">
<defs>
<filter id="alpha" filterUnits="objectBoundingBox" x="0%" y="0%" width="100%" height="100%">
  <feColorMatrix type="matrix" in="SourceGraphic" values="0 0 0 0 1 0 0 0 0 1 0 0 0 0 1 0 0 0 1 0"/>
</filter>
<mask id="mask0">
  <g filter="url(#alpha)">
<rect x="0" y="0" width="32" height="32" style="fill:rgb(0%,0%,0%);fill-opacity:0.35;stroke:none;"/>
  </g>
</mask>
<clipPath id="clip1">
  <rect x="0" y="0" width="32" height="32"/>
</clipPath>
<g id="surface5" clip-path="url(#clip1)">
<path style=" stroke:none;fill-rule:nonzero;fill:rgb(33.333334%,34.117648%,32.549021%);fill-opacity:1;" d="M 10 4 L 10 12 L 8 12 L 8 20 L 10 20 L 10 28 L 22 28 L 22 20 L 24 20 L 24 12 L 22 12 L 22 4 Z M 10 4 "/>
</g>
</defs>
<g id="surface1">
<use xlink:href="#surface5" mask="url(#mask0)"/>
<path style=" stroke:none;fill-rule:nonzero;fill:rgb(33.333334%,34.117648%,32.549021%);fill-opacity:1;" d="M 2 2 L 2 30 L 30 30 L 30 2 Z M 4 4 L 8 4 L 8 10 L 4 10 Z M 10 4 L 22 4 L 22 12 L 28 12 L 28 20 L 22 20 L 22 28 L 10 28 L 10 20 L 4 20 L 4 12 L 10 12 Z M 24 4 L 28 4 L 28 10 L 24 10 Z M 14 10 L 14 14 L 10 14 L 10 18 L 14 18 L 14 22 L 18 22 L 18 18 L 22 18 L 22 14 L 18 14 L 18 10 Z M 4 22 L 8 22 L 8 28 L 4 28 Z M 24 22 L 28 22 L 28 28 L 24 28 Z M 24 22 "/>
</g>
</svg>
