<?xml version="1.0" encoding="UTF-8"?>
<svg xmlns="http://www.w3.org/2000/svg" xmlns:xlink="http://www.w3.org/1999/xlink" width="32px" height="32px" viewBox="0 0 32 32" version="1.1">
<g id="surface1">
<path style=" stroke:none;fill-rule:nonzero;fill:rgb(94.117647%,89.019608%,92.54902%);fill-opacity:1;" d="M 2 4 L 30 4 L 30 26 L 2 26 Z M 2 4 "/>
<path style=" stroke:none;fill-rule:evenodd;fill:rgb(95.294118%,71.764708%,85.09804%);fill-opacity:1;" d="M 2 12 L 30 12 L 30 18 L 2 18 Z M 2 12 "/>
<path style=" stroke:none;fill-rule:nonzero;fill:rgb(61.56863%,22.745098%,60.784316%);fill-opacity:1;" d="M 1.902344 4 L 1.902344 26 L 30 26 L 30 4 Z M 4 6 L 9 6 L 9 10 L 4 10 Z M 11 6 L 16 6 L 16 10 L 11 10 Z M 18 6 L 30 6 L 30 10 L 18 10 Z M 3 12 L 9 12 L 9 18 L 3 18 Z M 11 12 L 16 12 L 16 18 L 11 18 Z M 18 12 L 30 12 L 30 18 L 18 18 Z M 3 20 L 9.585938 20 L 9.585938 24 L 3 24 Z M 10.683594 20 L 16 20 L 16 24 L 10.683594 24 Z M 18 20 L 30 20 L 30 24 L 18 24 Z M 3 26 L 9.585938 26 Z M 10.683594 26 L 16.609375 26 Z M 17.707031 26 L 30 26 Z M 17.707031 26 "/>
<path style=" stroke:none;fill-rule:nonzero;fill:rgb(90.196079%,0.784314%,70.588237%);fill-opacity:1;" d="M 2 10 L 30 10 L 30 12 L 3.75 12 L 3.75 24 L 30 24 L 30 26 L 2 26 Z M 2 10 "/>
<path style=" stroke:none;fill-rule:nonzero;fill:rgb(90.196079%,0.784314%,70.588237%);fill-opacity:1;" d="M 2 10 L 30 10 L 30 12 L 4 12 L 4 18 L 30 18 L 30 20 L 2 20 Z M 2 10 "/>
<path style="fill-rule:nonzero;fill:rgb(94.117647%,89.019608%,92.54902%);fill-opacity:1;stroke-width:2.000003;stroke-linecap:butt;stroke-linejoin:miter;stroke:rgb(94.117647%,89.019608%,92.54902%);stroke-opacity:1;stroke-miterlimit:4;" d="M -6.046653 -7.632158 C -6.046312 -5.760328 -7.55752 -4.242812 -9.420422 -4.242966 C -11.283324 -4.243121 -12.794377 -5.759557 -12.794718 -7.631386 C -12.794555 -9.505101 -11.283347 -11.022618 -9.420446 -11.022463 C -7.557544 -11.022308 -6.046994 -9.503987 -6.046653 -7.632158 Z M -6.046653 -7.632158 " transform="matrix(-1.931168,0.520183,-0.515103,-1.932529,-0.932672,0.978029)"/>
<path style="fill-rule:nonzero;fill:rgb(94.117647%,89.019608%,92.54902%);fill-opacity:1;stroke-width:1.000002;stroke-linecap:butt;stroke-linejoin:miter;stroke:rgb(90.196079%,0.784314%,70.588237%);stroke-opacity:1;stroke-miterlimit:4;" d="M -6.046653 -7.632158 C -6.046312 -5.760328 -7.55752 -4.242812 -9.420422 -4.242966 C -11.283324 -4.243121 -12.794377 -5.759557 -12.794718 -7.631386 C -12.794555 -9.505101 -11.283347 -11.022618 -9.420446 -11.022463 C -7.557544 -11.022308 -6.046994 -9.503987 -6.046653 -7.632158 Z M -6.046653 -7.632158 " transform="matrix(-1.931168,0.520183,-0.515103,-1.932529,-0.932672,0.978029)"/>
<path style="fill:none;stroke-width:1.625429;stroke-linecap:round;stroke-linejoin:miter;stroke:rgb(90.196079%,0.784314%,70.588237%);stroke-opacity:1;stroke-miterlimit:4;" d="M 13.495274 7.169098 L 20.49551 7.169098 " transform="matrix(1.230427,0,0,1.230462,0.281768,2.00682)"/>
<path style="fill:none;stroke-width:1.625429;stroke-linecap:round;stroke-linejoin:miter;stroke:rgb(90.196079%,0.784314%,70.588237%);stroke-opacity:1;stroke-miterlimit:4;" d="M 16.993805 10.667529 L 16.993805 3.667493 " transform="matrix(1.230427,0,0,1.230462,0.281768,2.00682)"/>
<path style="fill:none;stroke-width:2.231433;stroke-linecap:round;stroke-linejoin:round;stroke:rgb(94.117647%,89.019608%,92.54902%);stroke-opacity:1;stroke-miterlimit:4;" d="M -14.999999 -5.5002 L -14.999999 -1 " transform="matrix(-1.779757,0,0,-1.805475,-17.696356,17.194525)"/>
<path style="fill-rule:nonzero;fill:rgb(94.117647%,89.019608%,92.54902%);fill-opacity:1;stroke-width:2.231433;stroke-linecap:round;stroke-linejoin:round;stroke:rgb(94.117647%,89.019608%,92.54902%);stroke-opacity:1;stroke-miterlimit:4;" d="M -16.999482 -1.999564 L -14.999999 -0.000436303 L -13.000516 -1.999564 " transform="matrix(-1.779757,0,0,-1.805475,-17.696356,17.194525)"/>
<path style="fill:none;stroke-width:1.115717;stroke-linecap:round;stroke-linejoin:round;stroke:rgb(61.56863%,22.745098%,60.784316%);stroke-opacity:1;stroke-miterlimit:4;" d="M -15 -5.5002 L -15 -1 " transform="matrix(-1.779757,0,0,-1.805475,-17.696358,17.194525)"/>
<path style="fill:none;stroke-width:1.115717;stroke-linecap:round;stroke-linejoin:round;stroke:rgb(61.56863%,22.745098%,60.784316%);stroke-opacity:1;stroke-miterlimit:4;" d="M -16.999483 -1.999564 L -15 -0.000436303 L -13.000518 -1.999564 " transform="matrix(-1.779757,0,0,-1.805475,-17.696358,17.194525)"/>
</g>
</svg>
