<?xml version="1.0" encoding="UTF-8"?>
<svg xmlns="http://www.w3.org/2000/svg" xmlns:xlink="http://www.w3.org/1999/xlink" width="32px" height="32px" viewBox="0 0 32 32" version="1.1">
<g id="surface1">
<path style=" stroke:none;fill-rule:nonzero;fill:rgb(95.294118%,71.764708%,85.09804%);fill-opacity:1;" d="M 2 4 L 30 4 L 30 30 L 2 30 Z M 2 4 "/>
<path style=" stroke:none;fill-rule:nonzero;fill:rgb(94.117647%,89.019608%,92.54902%);fill-opacity:1;" d="M 4 6 L 10 6 L 10 11.976562 L 4 11.976562 Z M 4 6 "/>
<path style=" stroke:none;fill-rule:nonzero;fill:rgb(94.117647%,89.019608%,92.54902%);fill-opacity:1;" d="M 4 13.976562 L 10.023438 13.976562 L 10.023438 20 L 4 20 Z M 4 13.976562 "/>
<path style=" stroke:none;fill-rule:nonzero;fill:rgb(94.117647%,89.019608%,92.54902%);fill-opacity:1;" d="M 4 22 L 10.023438 22 L 10.023438 28 L 4 28 Z M 4 22 "/>
<path style=" stroke:none;fill-rule:nonzero;fill:rgb(94.117647%,89.019608%,92.54902%);fill-opacity:1;" d="M 12 6 L 20 6 L 20 11.976562 L 12 11.976562 Z M 12 6 "/>
<path style=" stroke:none;fill-rule:nonzero;fill:rgb(61.56863%,22.745098%,60.784316%);fill-opacity:1;" d="M 12 22 L 20.023438 22 L 20.023438 28 L 12 28 Z M 12 22 "/>
<path style=" stroke:none;fill-rule:nonzero;fill:rgb(94.117647%,89.019608%,92.54902%);fill-opacity:1;" d="M 22 6 L 28 6 L 28 11.976562 L 22 11.976562 Z M 22 6 "/>
<path style=" stroke:none;fill-rule:nonzero;fill:rgb(94.117647%,89.019608%,92.54902%);fill-opacity:1;" d="M 22 13.976562 L 28 13.976562 L 28 20 L 22 20 Z M 22 13.976562 "/>
<path style=" stroke:none;fill-rule:nonzero;fill:rgb(94.117647%,89.019608%,92.54902%);fill-opacity:1;" d="M 22.023438 22 L 28 22 L 28 28 L 22.023438 28 Z M 22.023438 22 "/>
<path style=" stroke:none;fill-rule:nonzero;fill:rgb(95.294118%,71.764708%,85.09804%);fill-opacity:1;" d="M 10.023438 13 L 22.023438 13 L 22.023438 15 L 10.023438 15 Z M 10.023438 13 "/>
<path style=" stroke:none;fill-rule:nonzero;fill:rgb(95.294118%,71.764708%,85.09804%);fill-opacity:1;" d="M 10.023438 15 L 12.023438 15 L 12.023438 23 L 10.023438 23 Z M 10.023438 15 "/>
<path style=" stroke:none;fill-rule:nonzero;fill:rgb(95.294118%,71.764708%,85.09804%);fill-opacity:1;" d="M 20.023438 15 L 22.023438 15 L 22.023438 21 L 20.023438 21 Z M 20.023438 15 "/>
<path style=" stroke:none;fill-rule:nonzero;fill:rgb(90.196079%,0.784314%,70.588237%);fill-opacity:1;" d="M 11 3.976562 L 29 3.976562 C 29.550781 3.976562 30 4.421875 30 4.976562 C 30 5.527344 29.550781 5.976562 29 5.976562 L 11 5.976562 C 10.449219 5.976562 10 5.527344 10 4.976562 C 10 4.421875 10.449219 3.976562 11 3.976562 Z M 11 3.976562 "/>
<path style=" stroke:none;fill-rule:nonzero;fill:rgb(90.196079%,0.784314%,70.588237%);fill-opacity:1;" d="M 11 3.976562 C 11.550781 3.976562 12 4.421875 12 4.976562 L 12 28 C 12 28.550781 11.550781 29 11 29 C 10.449219 29 10 28.550781 10 28 L 10 4.976562 C 10 4.421875 10.449219 3.976562 11 3.976562 Z M 11 3.976562 "/>
<path style=" stroke:none;fill-rule:nonzero;fill:rgb(94.117647%,89.019608%,92.54902%);fill-opacity:1;" d="M 12 13.976562 L 20.023438 13.976562 L 20.023438 20 L 12 20 Z M 12 13.976562 "/>
<path style=" stroke:none;fill-rule:nonzero;fill:rgb(90.196079%,0.784314%,70.588237%);fill-opacity:1;" d="M 28 28.976562 L 28 4.976562 C 28 4.421875 28.449219 3.976562 29 3.976562 C 29.550781 3.976562 30 4.421875 30 4.976562 L 30 28.976562 C 30 29.527344 29.550781 29.976562 29 29.976562 C 28.449219 29.976562 28 29.527344 28 28.976562 Z M 28 28.976562 "/>
<path style=" stroke:none;fill-rule:nonzero;fill:rgb(90.196079%,0.784314%,70.588237%);fill-opacity:1;" d="M 21 3.976562 C 21.550781 3.976562 22 4.421875 22 4.976562 L 22 28 C 22 28.550781 21.550781 29 21 29 C 20.449219 29 20 28.550781 20 28 L 20 4.976562 C 20 4.421875 20.449219 3.976562 21 3.976562 Z M 21 3.976562 "/>
<path style=" stroke:none;fill-rule:nonzero;fill:rgb(90.196079%,0.784314%,70.588237%);fill-opacity:1;" d="M 11 28 L 29 28 C 29.550781 28 30 28.441406 30 28.988281 C 30 29.53125 29.550781 29.976562 29 29.976562 L 11 29.976562 C 10.449219 29.976562 10 29.53125 10 28.988281 C 10 28.441406 10.449219 28 11 28 Z M 11 28 "/>
<path style=" stroke:none;fill-rule:nonzero;fill:rgb(61.56863%,22.745098%,60.784316%);fill-opacity:1;" d="M 11.976562 13.976562 L 20 13.976562 L 20 19.976562 L 11.976562 19.976562 Z M 11.976562 13.976562 "/>
<path style=" stroke:none;fill-rule:nonzero;fill:rgb(61.56863%,22.745098%,60.784316%);fill-opacity:1;" d="M 11.976562 5.976562 L 20 5.976562 L 20 11.976562 L 11.976562 11.976562 Z M 11.976562 5.976562 "/>
<path style="fill-rule:nonzero;fill:rgb(94.117647%,89.019608%,92.54902%);fill-opacity:1;stroke-width:2.414248;stroke-linecap:butt;stroke-linejoin:miter;stroke:rgb(94.117647%,89.019608%,92.54902%);stroke-opacity:1;stroke-miterlimit:4;" d="M -6.046989 -7.632024 C -6.045586 -5.760438 -7.556751 -4.242321 -9.420269 -4.24136 C -11.28318 -4.242676 -12.795504 -5.759791 -12.794022 -7.63304 C -12.795425 -9.504626 -11.28426 -11.022744 -9.421349 -11.021428 C -7.557831 -11.022388 -6.045507 -9.505274 -6.046989 -7.632024 Z M -6.046989 -7.632024 " transform="matrix(-1.599597,0.430986,-0.426663,-1.601154,3.813137,1.745494)"/>
<path style="fill-rule:nonzero;fill:rgb(94.117647%,89.019608%,92.54902%);fill-opacity:1;stroke-width:1.207124;stroke-linecap:butt;stroke-linejoin:miter;stroke:rgb(90.196079%,0.784314%,70.588237%);stroke-opacity:1;stroke-miterlimit:4;" d="M -6.046989 -7.632024 C -6.045586 -5.760438 -7.556751 -4.242321 -9.420269 -4.24136 C -11.28318 -4.242676 -12.795504 -5.759791 -12.794022 -7.63304 C -12.795425 -9.504626 -11.28426 -11.022744 -9.421349 -11.021428 C -7.557831 -11.022388 -6.045507 -9.505274 -6.046989 -7.632024 Z M -6.046989 -7.632024 " transform="matrix(-1.599597,0.430986,-0.426663,-1.601154,3.813137,1.745494)"/>
<path style="fill:none;stroke-width:1.96209;stroke-linecap:round;stroke-linejoin:miter;stroke:rgb(90.196079%,0.784314%,70.588237%);stroke-opacity:1;stroke-miterlimit:4;" d="M 13.492599 7.168781 L 20.495083 7.168781 " transform="matrix(1.01917,0,0,1.019472,4.819064,2.597876)"/>
<path style="fill:none;stroke-width:1.96209;stroke-linecap:round;stroke-linejoin:miter;stroke:rgb(90.196079%,0.784314%,70.588237%);stroke-opacity:1;stroke-miterlimit:4;" d="M 16.995757 10.667067 L 16.995757 3.666663 " transform="matrix(1.01917,0,0,1.019472,4.819064,2.597876)"/>
<path style="fill:none;stroke-width:3.34715;stroke-linecap:round;stroke-linejoin:round;stroke:rgb(94.117647%,89.019608%,92.54902%);stroke-opacity:1;stroke-miterlimit:4;" d="M -15.000849 -5.499208 L -15.000849 -0.999008 " transform="matrix(0.000000000000000111,1.779757,-1.805475,0.000000000000000109,17.18069,51.502556)"/>
<path style="fill:none;stroke-width:3.34715;stroke-linecap:round;stroke-linejoin:round;stroke:rgb(94.117647%,89.019608%,92.54902%);stroke-opacity:1;stroke-miterlimit:4;" d="M -17.000332 -2.000736 L -15.000849 0.000555415 L -12.999172 -2.000736 " transform="matrix(0.000000000000000111,1.779757,-1.805475,0.000000000000000109,17.18069,51.502556)"/>
<path style="fill:none;stroke-width:2.231433;stroke-linecap:round;stroke-linejoin:round;stroke:rgb(61.56863%,22.745098%,60.784316%);stroke-opacity:1;stroke-miterlimit:4;" d="M -15.000849 -5.499209 L -15.000849 -0.999009 " transform="matrix(0,1.779757,-1.805475,0,17.180689,51.502556)"/>
<path style="fill:none;stroke-width:2.231433;stroke-linecap:round;stroke-linejoin:round;stroke:rgb(61.56863%,22.745098%,60.784316%);stroke-opacity:1;stroke-miterlimit:4;" d="M -17.000332 -2.000736 L -15.000849 0.000554623 L -12.999172 -2.000736 " transform="matrix(0,1.779757,-1.805475,0,17.180689,51.502556)"/>
</g>
</svg>
