<?xml version="1.0" encoding="UTF-8"?>
<svg xmlns="http://www.w3.org/2000/svg" xmlns:xlink="http://www.w3.org/1999/xlink" width="32px" height="32px" viewBox="0 0 32 32" version="1.1">
<defs>
<filter id="alpha" filterUnits="objectBoundingBox" x="0%" y="0%" width="100%" height="100%">
  <feColorMatrix type="matrix" in="SourceGraphic" values="0 0 0 0 1 0 0 0 0 1 0 0 0 0 1 0 0 0 1 0"/>
</filter>
<mask id="mask0">
  <g filter="url(#alpha)">
<rect x="0" y="0" width="32" height="32" style="fill:rgb(0%,0%,0%);fill-opacity:0.35;stroke:none;"/>
  </g>
</mask>
<clipPath id="clip1">
  <rect x="0" y="0" width="32" height="32"/>
</clipPath>
<g id="surface5" clip-path="url(#clip1)">
<path style=" stroke:none;fill-rule:nonzero;fill:rgb(33.333334%,34.117648%,32.549021%);fill-opacity:1;" d="M 2 20 L 2 28 L 6 24 Z M 12 20 C 9.789062 20 8 21.789062 8 24 C 8 26.210938 9.789062 28 12 28 C 14.210938 28 16 26.210938 16 24 C 16 21.789062 14.210938 20 12 20 Z M 18 22 L 18 26 L 30 26 L 30 22 Z M 18 22 "/>
</g>
</defs>
<g id="surface1">
<path style=" stroke:none;fill-rule:nonzero;fill:rgb(33.333334%,34.117648%,32.549021%);fill-opacity:1;" d="M 8 2 L 8 6 L 30 6 L 30 2 Z M 12 10 C 9.789062 10 8 11.789062 8 14 C 8 16.210938 9.789062 18 12 18 C 14.210938 18 16 16.210938 16 14 C 16 11.789062 14.210938 10 12 10 Z M 18 12 L 18 16 L 30 16 L 30 12 Z M 18 12 "/>
<use xlink:href="#surface5" mask="url(#mask0)"/>
</g>
</svg>
