<?xml version="1.0" encoding="UTF-8"?>
<svg xmlns="http://www.w3.org/2000/svg" xmlns:xlink="http://www.w3.org/1999/xlink" width="32px" height="32px" viewBox="0 0 32 32" version="1.1">
<g id="surface1">
<path style="fill-rule:evenodd;fill:rgb(94.117647%,89.019608%,92.54902%);fill-opacity:1;stroke-width:1;stroke-linecap:round;stroke-linejoin:round;stroke:rgb(90.196079%,0.784314%,70.588237%);stroke-opacity:1;stroke-miterlimit:4;" d="M 2.447266 1.5 L 11.472656 1.5 C 12.023438 1.5 12.472656 1.947266 12.472656 2.5 L 12.472656 13.5 C 12.472656 14.052734 12.023438 14.5 11.472656 14.5 L 2.447266 14.5 C 1.894531 14.5 1.447266 14.052734 1.447266 13.5 L 1.447266 2.5 C 1.447266 1.947266 1.894531 1.5 2.447266 1.5 Z M 2.447266 1.5 " transform="matrix(2,0,0,2,0,0)"/>
<path style="fill-rule:nonzero;fill:rgb(94.117647%,89.019608%,92.54902%);fill-opacity:1;stroke-width:2.000003;stroke-linecap:butt;stroke-linejoin:miter;stroke:rgb(94.117647%,89.019608%,92.54902%);stroke-opacity:1;stroke-miterlimit:4;" d="M -6.045273 -7.632616 C -6.046819 -5.761295 -7.556643 -4.241384 -9.421432 -4.242047 C -11.284334 -4.242202 -12.794884 -5.760523 -12.795225 -7.632353 C -12.795566 -9.504182 -11.284357 -11.021699 -9.421456 -11.021544 C -7.556164 -11.022767 -6.045613 -9.504446 -6.045273 -7.632616 Z M -6.045273 -7.632616 " transform="matrix(-1.931168,0.520183,-0.515103,-1.932529,-0.988837,0.0506437)"/>
<path style="fill-rule:nonzero;fill:rgb(94.117647%,89.019608%,92.54902%);fill-opacity:1;stroke-width:1.000002;stroke-linecap:butt;stroke-linejoin:miter;stroke:rgb(90.196079%,0.784314%,70.588237%);stroke-opacity:1;stroke-miterlimit:4;" d="M -6.045273 -7.632616 C -6.046819 -5.761295 -7.556643 -4.241384 -9.421432 -4.242047 C -11.284334 -4.242202 -12.794884 -5.760523 -12.795225 -7.632353 C -12.795566 -9.504182 -11.284357 -11.021699 -9.421456 -11.021544 C -7.556164 -11.022767 -6.045613 -9.504446 -6.045273 -7.632616 Z M -6.045273 -7.632616 " transform="matrix(-1.931168,0.520183,-0.515103,-1.932529,-0.988837,0.0506437)"/>
<path style="fill:none;stroke-width:1.625429;stroke-linecap:round;stroke-linejoin:miter;stroke:rgb(90.196079%,0.784314%,70.588237%);stroke-opacity:1;stroke-miterlimit:4;" d="M 13.493299 7.167227 L 20.493536 7.167227 " transform="matrix(1.230427,0,0,1.230462,0.225603,1.079434)"/>
<path style="fill:none;stroke-width:1.625429;stroke-linecap:round;stroke-linejoin:miter;stroke:rgb(90.196079%,0.784314%,70.588237%);stroke-opacity:1;stroke-miterlimit:4;" d="M 16.995005 10.668833 L 16.995005 3.668796 " transform="matrix(1.230427,0,0,1.230462,0.225603,1.079434)"/>
</g>
</svg>
