<?xml version="1.0" encoding="UTF-8"?>
<svg xmlns="http://www.w3.org/2000/svg" xmlns:xlink="http://www.w3.org/1999/xlink" width="32px" height="32px" viewBox="0 0 32 32" version="1.1">
<defs>
<filter id="alpha" filterUnits="objectBoundingBox" x="0%" y="0%" width="100%" height="100%">
  <feColorMatrix type="matrix" in="SourceGraphic" values="0 0 0 0 1 0 0 0 0 1 0 0 0 0 1 0 0 0 1 0"/>
</filter>
<mask id="mask0">
  <g filter="url(#alpha)">
<rect x="0" y="0" width="32" height="32" style="fill:rgb(0%,0%,0%);fill-opacity:0.340824;stroke:none;"/>
  </g>
</mask>
<clipPath id="clip1">
  <rect x="0" y="0" width="32" height="32"/>
</clipPath>
<g id="surface5" clip-path="url(#clip1)">
<path style=" stroke:none;fill-rule:nonzero;fill:rgb(94.117647%,89.019608%,92.54902%);fill-opacity:1;" d="M 4 6 L 28 6 L 28 30 L 4 30 Z M 4 6 "/>
</g>
</defs>
<g id="surface1">
<use xlink:href="#surface5" mask="url(#mask0)"/>
<path style=" stroke:none;fill-rule:nonzero;fill:rgb(61.56863%,22.745098%,60.784316%);fill-opacity:1;" d="M 2.71875 4 C 2.320312 4 2 4.28125 2 4.632812 L 2 29.210938 C 2 29.5625 2.320312 29.847656 2.71875 29.847656 L 29.28125 29.847656 C 29.679688 29.847656 30 29.5625 30 29.210938 L 30 4.632812 C 30 4.28125 29.679688 4 29.28125 4 Z M 4 5.847656 L 28 5.847656 L 28 28 L 4 28 Z M 4 5.847656 "/>
<path style=" stroke:none;fill-rule:nonzero;fill:rgb(95.294118%,71.764708%,85.09804%);fill-opacity:1;" d="M 6 14 L 25 14 L 25 16 L 6 16 Z M 6 14 "/>
<path style=" stroke:none;fill-rule:nonzero;fill:rgb(95.294118%,71.764708%,85.09804%);fill-opacity:1;" d="M 6 18 L 20 18 L 20 20 L 6 20 Z M 6 18 "/>
<path style=" stroke:none;fill-rule:nonzero;fill:rgb(95.294118%,71.764708%,85.09804%);fill-opacity:1;" d="M 6 22 L 26 22 L 26 24 L 6 24 Z M 6 22 "/>
<path style=" stroke:none;fill-rule:nonzero;fill:rgb(90.196079%,0.784314%,70.588237%);fill-opacity:1;" d="M 2.742188 2 L 25.257812 2 C 25.667969 2 26 2.371094 26 2.828125 L 26 13.171875 C 26 13.628906 25.667969 14 25.257812 14 L 2.742188 14 C 2.332031 14 2 13.628906 2 13.171875 L 2 2.828125 C 2 2.371094 2.332031 2 2.742188 2 Z M 2.742188 2 "/>
<path style=" stroke:none;fill-rule:nonzero;fill:rgb(95.294118%,71.764708%,85.09804%);fill-opacity:1;" d="M 4.714844 4 L 23.285156 4 C 23.679688 4 24 4.410156 24 4.917969 L 24 11.082031 C 24 11.589844 23.679688 12 23.285156 12 L 4.714844 12 C 4.320312 12 4 11.589844 4 11.082031 L 4 4.917969 C 4 4.410156 4.320312 4 4.714844 4 Z M 4.714844 4 "/>
<path style=" stroke:none;fill-rule:nonzero;fill:rgb(90.196079%,0.784314%,70.588237%);fill-opacity:1;" d="M 6.714844 4 L 7.285156 4 C 7.679688 4 8 4.207031 8 4.460938 L 8 7.539062 C 8 7.792969 7.679688 8 7.285156 8 L 6.714844 8 C 6.320312 8 6 7.792969 6 7.539062 L 6 4.460938 C 6 4.207031 6.320312 4 6.714844 4 Z M 6.714844 4 "/>
<path style=" stroke:none;fill-rule:nonzero;fill:rgb(95.294118%,71.764708%,85.09804%);fill-opacity:1;" d="M 6 26 L 24 26 L 24 28 L 6 28 Z M 6 26 "/>
<path style="fill:none;stroke-width:1;stroke-linecap:round;stroke-linejoin:round;stroke:rgb(61.56863%,22.745098%,60.784316%);stroke-opacity:1;stroke-miterlimit:4;" d="M 4.5 3.5 L 4.5 8 " transform="matrix(2,0,0,2,0,0)"/>
<path style="fill:none;stroke-width:1;stroke-linecap:round;stroke-linejoin:round;stroke:rgb(61.56863%,22.745098%,60.784316%);stroke-opacity:1;stroke-miterlimit:4;" d="M 2.5 6.5 L 4.5 9 L 6.5 6.5 " transform="matrix(2,0,0,2,0,0)"/>
</g>
</svg>
