<?xml version="1.0" encoding="UTF-8"?>
<svg xmlns="http://www.w3.org/2000/svg" xmlns:xlink="http://www.w3.org/1999/xlink" width="32px" height="32px" viewBox="0 0 32 32" version="1.1">
<g id="surface1">
<path style="fill-rule:nonzero;fill:rgb(95.294118%,71.764708%,85.09804%);fill-opacity:1;stroke-width:1.211257;stroke-linecap:butt;stroke-linejoin:round;stroke:rgb(90.196079%,0.784314%,70.588237%);stroke-opacity:1;stroke-miterlimit:4;" d="M 0.124031 11.025345 L 0.124031 15.870374 L 3.757802 12.409301 Z M 0.124031 11.025345 " transform="matrix(1.651177,0,0,1.651177,2.795203,2.795203)"/>
<path style="fill-rule:nonzero;fill:rgb(94.117647%,89.019608%,92.54902%);fill-opacity:1;stroke-width:1.211257;stroke-linecap:round;stroke-linejoin:round;stroke:rgb(90.196079%,0.784314%,70.588237%);stroke-opacity:1;stroke-miterlimit:4;" d="M -14.817621 1.335288 L -1.176784 1.335288 C -0.594813 1.335288 -0.124031 1.87231 -0.124031 2.537082 L -0.124031 12.052075 C -0.124031 12.716847 -0.594813 13.253869 -1.176784 13.253869 L -14.817621 13.253869 C -15.399592 13.253869 -15.870374 12.716847 -15.870374 12.052075 L -15.870374 2.537082 C -15.870374 1.87231 -15.399592 1.335288 -14.817621 1.335288 Z M -14.817621 1.335288 " transform="matrix(-1.651177,0,0,1.651177,2.795203,2.795203)"/>
<path style="fill-rule:evenodd;fill:rgb(95.294118%,71.764708%,85.09804%);fill-opacity:1;stroke-width:1.141441;stroke-linecap:round;stroke-linejoin:round;stroke:rgb(61.56863%,22.745098%,60.784316%);stroke-opacity:1;stroke-miterlimit:4;" d="M 15.293116 11.444175 C 15.293116 13.432779 13.679047 15.044618 11.690443 15.044618 C 9.701839 15.044618 8.09 13.432779 8.09 11.444175 C 8.09 9.453342 9.701839 7.841502 11.690443 7.841502 C 13.679047 7.841502 15.293116 9.453342 15.293116 11.444175 Z M 15.293116 11.444175 " transform="matrix(1.752172,0,0,1.752172,2.22337,2.518156)"/>
<path style="fill:none;stroke-width:1.930378;stroke-linecap:round;stroke-linejoin:miter;stroke:rgb(90.196079%,0.784314%,70.588237%);stroke-opacity:1;stroke-miterlimit:4;" d="M 11.532327 8.457819 L 11.532327 14.162236 " transform="matrix(1.036067,0,0,1.036067,10.758773,10.850418)"/>
<path style="fill:none;stroke-width:1.930378;stroke-linecap:round;stroke-linejoin:miter;stroke:rgb(90.196079%,0.784314%,70.588237%);stroke-opacity:1;stroke-miterlimit:4;" d="M 8.678233 11.311913 L 14.386421 11.311913 " transform="matrix(1.036067,0,0,1.036067,10.758773,10.850418)"/>
</g>
</svg>
