<?xml version="1.0" encoding="UTF-8"?>
<svg xmlns="http://www.w3.org/2000/svg" xmlns:xlink="http://www.w3.org/1999/xlink" width="32px" height="32px" viewBox="0 0 32 32" version="1.1">
<g id="surface1">
<path style="fill-rule:nonzero;fill:rgb(94.117647%,89.019608%,92.54902%);fill-opacity:1;stroke-width:1;stroke-linecap:round;stroke-linejoin:round;stroke:rgb(90.196079%,0.784314%,70.588237%);stroke-opacity:1;stroke-miterlimit:4;" d="M 3.416016 2 L 12.583984 2 C 13.091797 2 13.5 2.398438 13.5 2.892578 L 13.5 10.287109 L 9.125 14.5 L 3.416016 14.5 C 2.908203 14.5 2.5 14.101562 2.5 13.607422 L 2.5 2.892578 C 2.5 2.398438 2.908203 2 3.416016 2 Z M 3.416016 2 " transform="matrix(2,0,0,2,0,0)"/>
<path style="fill-rule:evenodd;fill:rgb(95.294118%,71.764708%,85.09804%);fill-opacity:1;stroke-width:1.141441;stroke-linecap:round;stroke-linejoin:round;stroke:rgb(61.56863%,22.745098%,60.784316%);stroke-opacity:1;stroke-miterlimit:4;" d="M 15.293116 11.444175 C 15.293116 13.432779 13.679047 15.044618 11.690443 15.044618 C 9.70184 15.044618 8.09 13.432779 8.09 11.444175 C 8.09 9.453341 9.70184 7.841502 11.690443 7.841502 C 13.679047 7.841502 15.293116 9.453341 15.293116 11.444175 Z M 15.293116 11.444175 " transform="matrix(1.752172,0,0,1.752172,2.223369,3.518156)"/>
<path style="fill:none;stroke-width:1.930378;stroke-linecap:round;stroke-linejoin:miter;stroke:rgb(90.196079%,0.784314%,70.588237%);stroke-opacity:1;stroke-miterlimit:4;" d="M 11.532327 8.457819 L 11.532327 14.162236 " transform="matrix(1.036067,0,0,1.036067,10.758773,11.850418)"/>
<path style="fill:none;stroke-width:1.930378;stroke-linecap:round;stroke-linejoin:miter;stroke:rgb(90.196079%,0.784314%,70.588237%);stroke-opacity:1;stroke-miterlimit:4;" d="M 8.678233 11.311913 L 14.386421 11.311913 " transform="matrix(1.036067,0,0,1.036067,10.758773,11.850418)"/>
<path style="fill-rule:nonzero;fill:rgb(61.56863%,22.745098%,60.784316%);fill-opacity:1;stroke-width:0.25;stroke-linecap:round;stroke-linejoin:round;stroke:rgb(90.196079%,0.784314%,70.588237%);stroke-opacity:1;stroke-miterlimit:4;" d="M 4 1.140625 L 6 1.140625 L 6 12 L 5 11.089844 L 4 12 Z M 4 1.140625 " transform="matrix(2,0,0,2,0,0)"/>
</g>
</svg>
