<?xml version="1.0" encoding="UTF-8"?>
<svg xmlns="http://www.w3.org/2000/svg" xmlns:xlink="http://www.w3.org/1999/xlink" width="32px" height="32px" viewBox="0 0 32 32" version="1.1">
<g id="surface1">
<path style=" stroke:none;fill-rule:nonzero;fill:rgb(33.333334%,34.117648%,32.549021%);fill-opacity:1;" d="M 2.304688 6.019531 C 1.039062 6.019531 0.0195312 6.910156 0.0195312 8.015625 L 0.0195312 22 C 0.0195312 23.109375 1.039062 24 2.304688 24 L 29.714844 24 C 30.980469 24 32 23.109375 32 22 L 32 8.015625 C 32 6.910156 30.980469 6.019531 29.714844 6.019531 Z M 22.039062 10.035156 L 23.984375 10.035156 L 23.984375 14.007812 L 22.039062 14.007812 Z M 10.007812 10.035156 L 11.992188 10.035156 L 14.003906 12.046875 L 14.003906 18.003906 L 13.019531 18.988281 L 12.035156 19.96875 L 10.003906 19.96875 L 8.039062 18.003906 L 8.039062 12 L 9.023438 11.019531 Z M 18.023438 10.035156 L 20.007812 10.035156 L 20.007812 14.007812 L 21.996094 14.007812 L 21.996094 15.996094 L 20.007812 15.996094 L 20.007812 19.96875 L 18.023438 19.96875 Z M 9.984375 11.980469 L 9.984375 18.027344 L 12.015625 18.027344 L 12.015625 11.980469 Z M 22.039062 16.039062 L 23.984375 16.039062 L 23.984375 19.96875 L 22.039062 19.96875 Z M 22.039062 16.039062 "/>
</g>
</svg>
