<?xml version="1.0" encoding="UTF-8"?>
<svg xmlns="http://www.w3.org/2000/svg" xmlns:xlink="http://www.w3.org/1999/xlink" width="32px" height="32px" viewBox="0 0 32 32" version="1.1">
<g id="surface1">
<path style="fill-rule:nonzero;fill:rgb(61.56863%,22.745098%,60.784316%);fill-opacity:1;stroke-width:0.25;stroke-linecap:butt;stroke-linejoin:miter;stroke:rgb(61.56863%,22.745098%,60.784316%);stroke-opacity:1;stroke-miterlimit:4;" d="M 4.837891 4.818359 C 4.873047 4.427734 5.150391 4.144531 5.496094 4.144531 C 5.726562 4.144531 5.9375 4.267578 6.056641 4.466797 C 6.175781 4.265625 6.376953 4.144531 6.605469 4.144531 C 6.951172 4.144531 7.228516 4.427734 7.263672 4.818359 C 7.265625 4.835938 7.277344 4.927734 7.242188 5.076172 C 7.191406 5.291016 7.076172 5.484375 6.90625 5.638672 L 6.056641 6.410156 L 5.195312 5.638672 C 5.025391 5.484375 4.908203 5.291016 4.857422 5.076172 C 4.822266 4.927734 4.833984 4.835938 4.837891 4.820312 Z M 4.949219 5.054688 C 4.996094 5.25 5.101562 5.427734 5.257812 5.568359 L 6.056641 6.283203 L 6.841797 5.570312 C 6.998047 5.427734 7.105469 5.25 7.150391 5.054688 C 7.183594 4.914062 7.169922 4.833984 7.169922 4.833984 L 7.169922 4.830078 C 7.138672 4.486328 6.902344 4.238281 6.605469 4.238281 C 6.384766 4.238281 6.191406 4.373047 6.099609 4.589844 L 6.056641 4.691406 L 6.013672 4.589844 C 5.923828 4.375 5.720703 4.238281 5.496094 4.238281 C 5.199219 4.238281 4.960938 4.486328 4.929688 4.833984 C 4.929688 4.833984 4.916016 4.914062 4.949219 5.054688 Z M 4.949219 5.054688 " transform="matrix(2,0,0,2,0,0)"/>
<path style="fill-rule:evenodd;fill:rgb(94.117647%,89.019608%,92.54902%);fill-opacity:1;stroke-width:1;stroke-linecap:round;stroke-linejoin:round;stroke:rgb(90.196079%,0.784314%,70.588237%);stroke-opacity:1;stroke-miterlimit:4;" d="M 3.572266 2.191406 L 12.5 2.191406 C 13.052734 2.191406 13.5 2.638672 13.5 3.191406 L 13.5 13.464844 C 13.5 14.017578 13.052734 14.464844 12.5 14.464844 L 3.572266 14.464844 C 3.019531 14.464844 2.572266 14.017578 2.572266 13.464844 L 2.572266 3.191406 C 2.572266 2.638672 3.019531 2.191406 3.572266 2.191406 Z M 3.572266 2.191406 " transform="matrix(2,0,0,2,0,0)"/>
<path style=" stroke:none;fill-rule:nonzero;fill:rgb(90.196079%,0.784314%,70.588237%);fill-opacity:1;" d="M 4.910156 2 L 27.089844 2 C 28.699219 2 30 3.117188 30 4.492188 L 30 9.507812 C 30 10.882812 28.699219 12 27.089844 12 L 4.910156 12 C 3.300781 12 2 10.882812 2 9.507812 L 2 4.492188 C 2 3.117188 3.300781 2 4.910156 2 Z M 4.910156 2 "/>
<path style=" stroke:none;fill-rule:nonzero;fill:rgb(94.117647%,89.019608%,92.54902%);fill-opacity:1;" d="M 4 4 L 28 4 L 28 10 L 4 10 Z M 4 4 "/>
<path style=" stroke:none;fill-rule:nonzero;fill:rgb(61.56863%,22.745098%,60.784316%);fill-opacity:1;" d="M 6.035156 6.109375 L 25.964844 6.109375 C 25.984375 6.109375 26 6.152344 26 6.203125 L 26 7.90625 C 26 7.957031 25.984375 8 25.964844 8 L 6.035156 8 C 6.015625 8 6 7.957031 6 7.90625 L 6 6.203125 C 6 6.152344 6.015625 6.109375 6.035156 6.109375 Z M 6.035156 6.109375 "/>
<path style="fill:none;stroke-width:1;stroke-linecap:round;stroke-linejoin:miter;stroke:rgb(90.196079%,0.784314%,70.588237%);stroke-opacity:1;stroke-miterlimit:4;" d="M 4.5 7.5 L 11.589844 7.5 " transform="matrix(2,0,0,2,0,0)"/>
<path style="fill:none;stroke-width:1;stroke-linecap:round;stroke-linejoin:miter;stroke:rgb(90.196079%,0.784314%,70.588237%);stroke-opacity:1;stroke-miterlimit:4;" d="M 4.5 9.5 L 11.589844 9.5 " transform="matrix(2,0,0,2,0,0)"/>
<path style="fill:none;stroke-width:1;stroke-linecap:round;stroke-linejoin:miter;stroke:rgb(90.196079%,0.784314%,70.588237%);stroke-opacity:1;stroke-miterlimit:4;" d="M 4.5 11.5 L 11.589844 11.5 " transform="matrix(2,0,0,2,0,0)"/>
</g>
</svg>
