<?xml version="1.0" encoding="UTF-8"?>
<svg xmlns="http://www.w3.org/2000/svg" xmlns:xlink="http://www.w3.org/1999/xlink" width="32px" height="32px" viewBox="0 0 32 32" version="1.1">
<g id="surface1">
<path style="fill-rule:nonzero;fill:rgb(94.117647%,89.019608%,92.54902%);fill-opacity:1;stroke-width:1;stroke-linecap:round;stroke-linejoin:round;stroke:rgb(90.196079%,0.784314%,70.588237%);stroke-opacity:1;stroke-miterlimit:4;" d="M 3.5 1.5 L 12.5 1.5 C 13.052734 1.5 13.5 1.947266 13.5 2.5 L 13.5 13.5 C 13.5 14.052734 13.052734 14.5 12.5 14.5 L 3.5 14.5 C 2.947266 14.5 2.5 14.052734 2.5 13.5 L 2.5 2.5 C 2.5 1.947266 2.947266 1.5 3.5 1.5 Z M 3.5 1.5 " transform="matrix(2,0,0,2,0,0)"/>
<path style=" stroke:none;fill-rule:nonzero;fill:rgb(61.56863%,22.745098%,60.784316%);fill-opacity:1;" d="M 7 6 L 11 6 C 11.550781 6 12 6.449219 12 7 C 12 7.550781 11.550781 8 11 8 L 7 8 C 6.449219 8 6 7.550781 6 7 C 6 6.449219 6.449219 6 7 6 Z M 7 6 "/>
<path style=" stroke:none;fill-rule:nonzero;fill:rgb(90.196079%,0.784314%,70.588237%);fill-opacity:1;" d="M 12 22 L 12 24 L 6 24 L 6 22 Z M 12 22 "/>
<path style=" stroke:none;fill-rule:nonzero;fill:rgb(61.56863%,22.745098%,60.784316%);fill-opacity:1;" d="M 7 10 L 11 10 C 11.550781 10 12 10.449219 12 11 C 12 11.550781 11.550781 12 11 12 L 7 12 C 6.449219 12 6 11.550781 6 11 C 6 10.449219 6.449219 10 7 10 Z M 7 10 "/>
<path style=" stroke:none;fill-rule:nonzero;fill:rgb(61.56863%,22.745098%,60.784316%);fill-opacity:1;" d="M 7 14 L 11 14 C 11.550781 14 12 14.449219 12 15 C 12 15.550781 11.550781 16 11 16 L 7 16 C 6.449219 16 6 15.550781 6 15 C 6 14.449219 6.449219 14 7 14 Z M 7 14 "/>
<path style=" stroke:none;fill-rule:nonzero;fill:rgb(61.56863%,22.745098%,60.784316%);fill-opacity:1;" d="M 7 18 L 11 18 C 11.550781 18 12 18.449219 12 19 C 12 19.550781 11.550781 20 11 20 L 7 20 C 6.449219 20 6 19.550781 6 19 C 6 18.449219 6.449219 18 7 18 Z M 7 18 "/>
<path style=" stroke:none;fill-rule:nonzero;fill:rgb(61.56863%,22.745098%,60.784316%);fill-opacity:1;" d="M 19 6 L 25 6 C 25.550781 6 26 6.449219 26 7 C 26 7.550781 25.550781 8 25 8 L 19 8 C 18.449219 8 18 7.550781 18 7 C 18 6.449219 18.449219 6 19 6 Z M 19 6 "/>
<path style=" stroke:none;fill-rule:nonzero;fill:rgb(61.56863%,22.745098%,60.784316%);fill-opacity:1;" d="M 19 10 L 25 10 C 25.550781 10 26 10.449219 26 11 C 26 11.550781 25.550781 12 25 12 L 19 12 C 18.449219 12 18 11.550781 18 11 C 18 10.449219 18.449219 10 19 10 Z M 19 10 "/>
<path style=" stroke:none;fill-rule:nonzero;fill:rgb(61.56863%,22.745098%,60.784316%);fill-opacity:1;" d="M 19 14 L 25 14 C 25.550781 14 26 14.449219 26 15 C 26 15.550781 25.550781 16 25 16 L 19 16 C 18.449219 16 18 15.550781 18 15 C 18 14.449219 18.449219 14 19 14 Z M 19 14 "/>
<path style=" stroke:none;fill-rule:nonzero;fill:rgb(61.56863%,22.745098%,60.784316%);fill-opacity:1;" d="M 19 18 L 25 18 C 25.550781 18 26 18.449219 26 19 C 26 19.550781 25.550781 20 25 20 L 19 20 C 18.449219 20 18 19.550781 18 19 C 18 18.449219 18.449219 18 19 18 Z M 19 18 "/>
<path style=" stroke:none;fill-rule:nonzero;fill:rgb(61.56863%,22.745098%,60.784316%);fill-opacity:1;" d="M 19 22 L 25 22 C 25.550781 22 26 22.449219 26 23 C 26 23.550781 25.550781 24 25 24 L 19 24 C 18.449219 24 18 23.550781 18 23 C 18 22.449219 18.449219 22 19 22 Z M 19 22 "/>
<path style=" stroke:none;fill-rule:nonzero;fill:rgb(61.56863%,22.745098%,60.784316%);fill-opacity:1;" d="M 19 26 L 25 26 C 25.550781 26 26 26.449219 26 27 C 26 27.550781 25.550781 28 25 28 L 19 28 C 18.449219 28 18 27.550781 18 27 C 18 26.449219 18.449219 26 19 26 Z M 19 26 "/>
<path style=" stroke:none;fill-rule:nonzero;fill:rgb(90.196079%,0.784314%,70.588237%);fill-opacity:1;" d="M 18 4 L 18 6 L 14 6 L 14 26 L 10 26 L 10 24 L 8 24 L 8 28 L 16 28 L 16 8 L 18 8 L 18 10 L 24 6.953125 Z M 18 4 "/>
</g>
</svg>
