<?xml version="1.0" encoding="UTF-8"?>
<svg xmlns="http://www.w3.org/2000/svg" xmlns:xlink="http://www.w3.org/1999/xlink" width="32px" height="32px" viewBox="0 0 32 32" version="1.1">
<defs>
<filter id="alpha" filterUnits="objectBoundingBox" x="0%" y="0%" width="100%" height="100%">
  <feColorMatrix type="matrix" in="SourceGraphic" values="0 0 0 0 1 0 0 0 0 1 0 0 0 0 1 0 0 0 1 0"/>
</filter>
<mask id="mask0">
  <g filter="url(#alpha)">
<rect x="0" y="0" width="32" height="32" style="fill:rgb(0%,0%,0%);fill-opacity:0.99;stroke:none;"/>
  </g>
</mask>
<clipPath id="clip1">
  <rect x="0" y="0" width="32" height="32"/>
</clipPath>
<g id="surface5" clip-path="url(#clip1)">
<path style=" stroke:none;fill-rule:nonzero;fill:rgb(90.196079%,0.784314%,70.588237%);fill-opacity:1;" d="M 30 28 L 30 30 L 5 30 L 5 28 Z M 30 28 "/>
</g>
<mask id="mask1">
  <g filter="url(#alpha)">
<rect x="0" y="0" width="32" height="32" style="fill:rgb(0%,0%,0%);fill-opacity:0.99;stroke:none;"/>
  </g>
</mask>
<clipPath id="clip2">
  <rect x="0" y="0" width="32" height="32"/>
</clipPath>
<g id="surface8" clip-path="url(#clip2)">
<path style=" stroke:none;fill-rule:nonzero;fill:rgb(90.196079%,0.784314%,70.588237%);fill-opacity:1;" d="M 1.761719 2 L 4 2 L 4 26 L 1.761719 26 Z M 1.761719 2 "/>
</g>
<mask id="mask2">
  <g filter="url(#alpha)">
<rect x="0" y="0" width="32" height="32" style="fill:rgb(0%,0%,0%);fill-opacity:0.99;stroke:none;"/>
  </g>
</mask>
<clipPath id="clip3">
  <rect x="0" y="0" width="32" height="32"/>
</clipPath>
<g id="surface11" clip-path="url(#clip3)">
<path style=" stroke:none;fill-rule:nonzero;fill:rgb(90.196079%,0.784314%,70.588237%);fill-opacity:1;" d="M 30 1.898438 L 30 4 L 10 4 L 10 1.898438 Z M 30 1.898438 "/>
</g>
</defs>
<g id="surface1">
<use xlink:href="#surface5" mask="url(#mask0)"/>
<path style=" stroke:none;fill-rule:nonzero;fill:rgb(95.294118%,71.764708%,85.09804%);fill-opacity:1;" d="M 6 2 L 6 26 L 8 26 L 8 2 Z M 6 2 "/>
<path style=" stroke:none;fill-rule:nonzero;fill:rgb(95.294118%,71.764708%,85.09804%);fill-opacity:1;" d="M 30 26 L 8 26 L 8 24 L 30 24 Z M 30 26 "/>
<path style=" stroke:none;fill-rule:nonzero;fill:rgb(61.56863%,22.745098%,60.784316%);fill-opacity:1;" d="M 11.589844 10 L 16.410156 10 C 17.289062 10 18 10.710938 18 11.589844 L 18 22.410156 C 18 23.289062 17.289062 24 16.410156 24 L 11.589844 24 C 10.710938 24 10 23.289062 10 22.410156 L 10 11.589844 C 10 10.710938 10.710938 10 11.589844 10 Z M 11.589844 10 "/>
<path style=" stroke:none;fill-rule:nonzero;fill:rgb(94.117647%,89.019608%,92.54902%);fill-opacity:1;" d="M 12.441406 12 L 15.558594 12 C 15.800781 12 16 12.199219 16 12.441406 L 16 21.558594 C 16 21.800781 15.800781 22 15.558594 22 L 12.441406 22 C 12.199219 22 12 21.800781 12 21.558594 L 12 12.441406 C 12 12.199219 12.199219 12 12.441406 12 Z M 12.441406 12 "/>
<path style=" stroke:none;fill-rule:nonzero;fill:rgb(61.56863%,22.745098%,60.784316%);fill-opacity:1;" d="M 21.589844 6 L 26.410156 6 C 27.289062 6 28 6.710938 28 7.589844 L 28 22.410156 C 28 23.289062 27.289062 24 26.410156 24 L 21.589844 24 C 20.710938 24 20 23.289062 20 22.410156 L 20 7.589844 C 20 6.710938 20.710938 6 21.589844 6 Z M 21.589844 6 "/>
<path style=" stroke:none;fill-rule:nonzero;fill:rgb(94.117647%,89.019608%,92.54902%);fill-opacity:1;" d="M 22.441406 8 L 25.558594 8 C 25.800781 8 26 8.199219 26 8.441406 L 26 21.558594 C 26 21.800781 25.800781 22 25.558594 22 L 22.441406 22 C 22.199219 22 22 21.800781 22 21.558594 L 22 8.441406 C 22 8.199219 22.199219 8 22.441406 8 Z M 22.441406 8 "/>
<use xlink:href="#surface8" mask="url(#mask1)"/>
<use xlink:href="#surface11" mask="url(#mask2)"/>
</g>
</svg>
