<?xml version="1.0" encoding="UTF-8"?>
<svg xmlns="http://www.w3.org/2000/svg" xmlns:xlink="http://www.w3.org/1999/xlink" width="32px" height="32px" viewBox="0 0 32 32" version="1.1">
<g id="surface1">
<path style="fill-rule:nonzero;fill:rgb(95.294118%,71.764708%,85.09804%);fill-opacity:1;stroke-width:1;stroke-linecap:round;stroke-linejoin:round;stroke:rgb(90.196079%,0.784314%,70.588237%);stroke-opacity:1;stroke-miterlimit:4;" d="M 6.712891 1.523438 C 5.037109 1.525391 3.609375 2.783203 3.330078 4.5 L 3.275391 4.5 C 2.958984 4.5 2.703125 4.765625 2.703125 5.095703 L 2.703125 5.689453 C 2.703125 6.019531 2.958984 6.285156 3.275391 6.285156 L 3.474609 6.285156 C 3.822266 7.300781 4.589844 8.097656 5.566406 8.457031 L 5.566406 9.261719 L 3.849609 9.261719 C 2.580078 9.261719 1.556641 10.324219 1.556641 11.642578 L 1.556641 12.833984 L 11.867188 12.833984 L 11.867188 11.642578 C 11.867188 10.324219 10.845703 9.261719 9.576172 9.261719 L 7.857422 9.261719 L 7.857422 8.458984 C 8.833984 8.099609 9.601562 7.300781 9.947266 6.285156 L 10.150391 6.285156 C 10.466797 6.285156 10.722656 6.019531 10.722656 5.689453 L 10.722656 5.095703 C 10.722656 4.765625 10.466797 4.5 10.150391 4.5 L 10.103516 4.5 C 9.822266 2.78125 8.390625 1.521484 6.712891 1.523438 Z M 6.712891 1.523438 " transform="matrix(2,0,0,2,0,0)"/>
<path style=" stroke:none;fill-rule:nonzero;fill:rgb(90.196079%,0.784314%,70.588237%);fill-opacity:1;" d="M 14.175781 22.203125 C 14.175781 26.453125 17.710938 29.898438 22.070312 29.898438 C 26.429688 29.898438 29.964844 26.453125 29.964844 22.203125 C 29.964844 17.953125 26.429688 14.507812 22.070312 14.507812 C 17.710938 14.507812 14.175781 17.953125 14.175781 22.203125 Z M 14.175781 22.203125 "/>
<path style=" stroke:none;fill-rule:nonzero;fill:rgb(95.294118%,71.764708%,85.09804%);fill-opacity:1;" d="M 15.722656 22.1875 C 15.722656 25.601562 18.566406 28.371094 22.070312 28.371094 C 25.574219 28.371094 28.417969 25.601562 28.417969 22.1875 C 28.417969 18.769531 25.574219 16.003906 22.070312 16.003906 C 18.566406 16.003906 15.722656 18.769531 15.722656 22.1875 Z M 15.722656 22.1875 "/>
<path style=" stroke:none;fill-rule:nonzero;fill:rgb(61.56863%,22.745098%,60.784316%);fill-opacity:1;" d="M 21.121094 17.582031 L 22.878906 17.582031 L 22.878906 22.859375 L 21.121094 22.859375 Z M 21.121094 17.582031 "/>
<path style=" stroke:none;fill-rule:nonzero;fill:rgb(61.56863%,22.745098%,60.784316%);fill-opacity:1;" d="M 21.980469 24.4375 C 22.667969 24.4375 23.226562 24.980469 23.226562 25.652344 C 23.226562 26.320312 22.667969 26.863281 21.980469 26.863281 C 21.292969 26.863281 20.734375 26.320312 20.734375 25.652344 C 20.734375 24.980469 21.292969 24.4375 21.980469 24.4375 Z M 21.980469 24.4375 "/>
</g>
</svg>
