<?xml version="1.0" encoding="UTF-8"?>
<svg xmlns="http://www.w3.org/2000/svg" xmlns:xlink="http://www.w3.org/1999/xlink" width="32px" height="32px" viewBox="0 0 32 32" version="1.1">
<g id="surface1">
<path style=" stroke:none;fill-rule:nonzero;fill:rgb(90.196079%,0.784314%,70.588237%);fill-opacity:1;" d="M 4 2 L 28 2 C 29.105469 2 30 2.894531 30 4 L 30 28 C 30 29.105469 29.105469 30 28 30 L 4 30 C 2.894531 30 2 29.105469 2 28 L 2 4 C 2 2.894531 2.894531 2 4 2 Z M 4 2 "/>
<path style="fill-rule:nonzero;fill:rgb(94.117647%,89.019608%,92.54902%);fill-opacity:1;stroke-width:1;stroke-linecap:butt;stroke-linejoin:round;stroke:rgb(94.117647%,89.019608%,92.54902%);stroke-opacity:1;stroke-miterlimit:4;" d="M 11.917969 13 L 3.804688 13 L 8.808594 7.982422 L 3.804688 3 L 11.818359 3 L 12.152344 5.675781 L 11.904297 5.675781 C 11.851562 5.392578 11.748047 5.117188 11.591797 4.851562 C 11.439453 4.587891 11.25 4.355469 11.023438 4.15625 C 10.796875 3.953125 10.541016 3.791016 10.257812 3.667969 C 9.972656 3.544922 9.679688 3.482422 9.376953 3.482422 L 6.615234 3.482422 C 6.511719 3.482422 6.429688 3.505859 6.367188 3.552734 C 6.310547 3.595703 6.283203 3.650391 6.283203 3.716797 C 6.283203 3.792969 6.320312 3.869141 6.396484 3.943359 L 10.101562 7.634766 L 6.048828 11.693359 L 10.697266 11.693359 C 11.019531 11.693359 11.285156 11.576172 11.498047 11.339844 C 11.710938 11.097656 11.851562 10.75 11.917969 10.296875 L 12.195312 10.296875 Z M 11.917969 13 " transform="matrix(2,0,0,2,0,0)"/>
</g>
</svg>
