<?xml version="1.0" encoding="UTF-8"?>
<svg xmlns="http://www.w3.org/2000/svg" xmlns:xlink="http://www.w3.org/1999/xlink" width="32px" height="32px" viewBox="0 0 32 32" version="1.1">
<g id="surface1">
<path style=" stroke:none;fill-rule:nonzero;fill:rgb(95.294118%,71.764708%,85.09804%);fill-opacity:1;" d="M 4 30.023438 L 4 2.023438 L 30 2.023438 L 30 30.023438 Z M 4 30.023438 "/>
<path style=" stroke:none;fill-rule:nonzero;fill:rgb(94.117647%,89.019608%,92.54902%);fill-opacity:1;" d="M 6 28.023438 L 6 22.023438 L 11.976562 22.023438 L 11.976562 28.023438 Z M 6 28.023438 "/>
<path style=" stroke:none;fill-rule:nonzero;fill:rgb(94.117647%,89.019608%,92.54902%);fill-opacity:1;" d="M 13.976562 28.023438 L 13.976562 22 L 20 22 L 20 28.023438 Z M 13.976562 28.023438 "/>
<path style=" stroke:none;fill-rule:nonzero;fill:rgb(94.117647%,89.019608%,92.54902%);fill-opacity:1;" d="M 22 28.023438 L 22 22 L 28 22 L 28 28.023438 Z M 22 28.023438 "/>
<path style=" stroke:none;fill-rule:nonzero;fill:rgb(94.117647%,89.019608%,92.54902%);fill-opacity:1;" d="M 6 20.023438 L 6 12.023438 L 11.976562 12.023438 L 11.976562 20.023438 Z M 6 20.023438 "/>
<path style=" stroke:none;fill-rule:nonzero;fill:rgb(61.56863%,22.745098%,60.784316%);fill-opacity:1;" d="M 22 20.023438 L 22 12 L 28 12 L 28 20.023438 Z M 22 20.023438 "/>
<path style=" stroke:none;fill-rule:nonzero;fill:rgb(94.117647%,89.019608%,92.54902%);fill-opacity:1;" d="M 6 10.023438 L 6 4.023438 L 11.976562 4.023438 L 11.976562 10.023438 Z M 6 10.023438 "/>
<path style=" stroke:none;fill-rule:nonzero;fill:rgb(94.117647%,89.019608%,92.54902%);fill-opacity:1;" d="M 13.976562 10.023438 L 13.976562 4.023438 L 20 4.023438 L 20 10.023438 Z M 13.976562 10.023438 "/>
<path style=" stroke:none;fill-rule:nonzero;fill:rgb(94.117647%,89.019608%,92.54902%);fill-opacity:1;" d="M 22 10 L 22 4.023438 L 28 4.023438 L 28 10 Z M 22 10 "/>
<path style=" stroke:none;fill-rule:nonzero;fill:rgb(95.294118%,71.764708%,85.09804%);fill-opacity:1;" d="M 13 22 L 13 10 L 15 10 L 15 22 Z M 13 22 "/>
<path style=" stroke:none;fill-rule:nonzero;fill:rgb(95.294118%,71.764708%,85.09804%);fill-opacity:1;" d="M 15 22 L 15 20 L 23 20 L 23 22 Z M 15 22 "/>
<path style=" stroke:none;fill-rule:nonzero;fill:rgb(95.294118%,71.764708%,85.09804%);fill-opacity:1;" d="M 15 12 L 15 10 L 21 10 L 21 12 Z M 15 12 "/>
<path style=" stroke:none;fill-rule:nonzero;fill:rgb(90.196079%,0.784314%,70.588237%);fill-opacity:1;" d="M 11.976562 20.023438 L 11.976562 11.023438 C 11.976562 10.472656 12.421875 10.023438 12.976562 10.023438 C 13.527344 10.023438 13.976562 10.472656 13.976562 11.023438 L 13.976562 20.023438 C 13.976562 20.578125 13.527344 21.023438 12.976562 21.023438 C 12.421875 21.023438 11.976562 20.578125 11.976562 20.023438 Z M 11.976562 20.023438 "/>
<path style=" stroke:none;fill-rule:nonzero;fill:rgb(90.196079%,0.784314%,70.588237%);fill-opacity:1;" d="M 11.976562 11.023438 C 11.976562 10.472656 12.421875 10.023438 12.976562 10.023438 L 28 10.023438 C 28.550781 10.023438 29 10.472656 29 11.023438 C 29 11.578125 28.550781 12.023438 28 12.023438 L 12.976562 12.023438 C 12.421875 12.023438 11.976562 11.578125 11.976562 11.023438 Z M 11.976562 11.023438 "/>
<path style=" stroke:none;fill-rule:nonzero;fill:rgb(94.117647%,89.019608%,92.54902%);fill-opacity:1;" d="M 13.976562 20.023438 L 13.976562 12 L 20 12 L 20 20.023438 Z M 13.976562 20.023438 "/>
<path style=" stroke:none;fill-rule:nonzero;fill:rgb(90.196079%,0.784314%,70.588237%);fill-opacity:1;" d="M 20 20.023438 L 20 11.023438 C 20 10.472656 20.449219 10.023438 21 10.023438 C 21.550781 10.023438 22 10.472656 22 11.023438 L 22 20.023438 C 22 20.578125 21.550781 21.023438 21 21.023438 C 20.449219 21.023438 20 20.578125 20 20.023438 Z M 20 20.023438 "/>
<path style=" stroke:none;fill-rule:nonzero;fill:rgb(90.196079%,0.784314%,70.588237%);fill-opacity:1;" d="M 19.976562 21.023438 C 19.976562 20.472656 20.421875 20.023438 20.976562 20.023438 L 28 20.023438 C 28.550781 20.023438 29 20.472656 29 21.023438 C 29 21.578125 28.550781 22.023438 28 22.023438 L 20.976562 22.023438 C 20.421875 22.023438 19.976562 21.578125 19.976562 21.023438 Z M 19.976562 21.023438 "/>
<path style=" stroke:none;fill-rule:nonzero;fill:rgb(90.196079%,0.784314%,70.588237%);fill-opacity:1;" d="M 28 21.023438 L 28 11.023438 C 28 10.472656 28.457031 10.023438 29.023438 10.023438 L 29.125 10.023438 C 29.691406 10.023438 30.152344 10.472656 30.152344 11.023438 L 30.152344 21.023438 C 30.152344 21.578125 29.691406 22.023438 29.125 22.023438 L 29.023438 22.023438 C 28.457031 22.023438 28 21.578125 28 21.023438 Z M 28 21.023438 "/>
<path style="fill:none;stroke-width:2;stroke-linecap:round;stroke-linejoin:round;stroke:rgb(61.56863%,22.745098%,60.784316%);stroke-opacity:1;stroke-miterlimit:4;" d="M -12.644569 3.493652 L -12.644569 7.993652 " transform="matrix(0.000000000000000122,-2,2,0.000000000000000122,-3.053711,-1.414138)"/>
<path style="fill:none;stroke-width:2;stroke-linecap:round;stroke-linejoin:round;stroke:rgb(61.56863%,22.745098%,60.784316%);stroke-opacity:1;stroke-miterlimit:4;" d="M -14.595741 7.644043 L -12.595741 9.644043 L -10.595741 7.644043 " transform="matrix(0.000000000000000122,-2,2,0.000000000000000122,-3.053711,-1.414138)"/>
<path style="fill-rule:nonzero;fill:rgb(94.117647%,89.019608%,92.54902%);fill-opacity:1;stroke-width:2.000003;stroke-linecap:butt;stroke-linejoin:miter;stroke:rgb(94.117647%,89.019608%,92.54902%);stroke-opacity:1;stroke-miterlimit:4;" d="M -6.047019 -7.632892 C -6.046678 -5.761062 -7.555999 -4.243037 -9.421291 -4.241814 C -11.284193 -4.241969 -12.794743 -5.76029 -12.795084 -7.63212 C -12.795425 -9.503949 -11.284216 -11.021466 -9.420812 -11.023197 C -7.556023 -11.022534 -6.045472 -9.504213 -6.047019 -7.632892 Z M -6.047019 -7.632892 " transform="matrix(-1.931168,0.520183,-0.515103,-1.932529,-0.91032,1.054926)"/>
<path style="fill-rule:nonzero;fill:rgb(94.117647%,89.019608%,92.54902%);fill-opacity:1;stroke-width:1.000002;stroke-linecap:butt;stroke-linejoin:miter;stroke:rgb(90.196079%,0.784314%,70.588237%);stroke-opacity:1;stroke-miterlimit:4;" d="M -6.047019 -7.632892 C -6.046678 -5.761062 -7.555999 -4.243037 -9.421291 -4.241814 C -11.284193 -4.241969 -12.794743 -5.76029 -12.795084 -7.63212 C -12.795425 -9.503949 -11.284216 -11.021466 -9.420812 -11.023197 C -7.556023 -11.022534 -6.045472 -9.504213 -6.047019 -7.632892 Z M -6.047019 -7.632892 " transform="matrix(-1.931168,0.520183,-0.515103,-1.932529,-0.91032,1.054926)"/>
<path style="fill:none;stroke-width:1.625429;stroke-linecap:round;stroke-linejoin:miter;stroke:rgb(90.196079%,0.784314%,70.588237%);stroke-opacity:1;stroke-miterlimit:4;" d="M 13.492981 7.166921 L 20.493217 7.166921 " transform="matrix(1.230427,0,0,1.230462,0.30412,2.083717)"/>
<path style="fill:none;stroke-width:1.625429;stroke-linecap:round;stroke-linejoin:miter;stroke:rgb(90.196079%,0.784314%,70.588237%);stroke-opacity:1;stroke-miterlimit:4;" d="M 16.994686 10.668527 L 16.994686 3.66849 " transform="matrix(1.230427,0,0,1.230462,0.30412,2.083717)"/>
</g>
</svg>
