<?xml version="1.0" encoding="UTF-8"?>
<svg xmlns="http://www.w3.org/2000/svg" xmlns:xlink="http://www.w3.org/1999/xlink" width="32px" height="32px" viewBox="0 0 32 32" version="1.1">
<g id="surface1">
<path style=" stroke:none;fill-rule:nonzero;fill:rgb(61.56863%,22.745098%,60.784316%);fill-opacity:1;" d="M 22 6 L 28 6 C 29.105469 6 30 6.894531 30 8 L 30 14 C 30 15.105469 29.105469 16 28 16 L 22 16 C 20.894531 16 20 15.105469 20 14 L 20 8 C 20 6.894531 20.894531 6 22 6 Z M 22 6 "/>
<path style=" stroke:none;fill-rule:nonzero;fill:rgb(90.196079%,0.784314%,70.588237%);fill-opacity:1;" d="M 4 2 L 12 2 C 13.105469 2 14 2.894531 14 4 L 14 12.25 C 14 13.355469 13.105469 14.25 12 14.25 L 4 14.25 C 2.894531 14.25 2 13.355469 2 12.25 L 2 4 C 2 2.894531 2.894531 2 4 2 Z M 4 2 "/>
<path style=" stroke:none;fill-rule:nonzero;fill:rgb(95.294118%,71.764708%,85.09804%);fill-opacity:1;" d="M 6 4 L 10 4 C 11.105469 4 12 4.894531 12 6 L 12 10 C 12 11.105469 11.105469 12 10 12 L 6 12 C 4.894531 12 4 11.105469 4 10 L 4 6 C 4 4.894531 4.894531 4 6 4 Z M 6 4 "/>
<path style=" stroke:none;fill-rule:nonzero;fill:rgb(95.294118%,71.764708%,85.09804%);fill-opacity:1;" d="M 24 8 L 26 8 C 27.105469 8 28 8.894531 28 10 L 28 12 C 28 13.105469 27.105469 14 26 14 L 24 14 C 22.894531 14 22 13.105469 22 12 L 22 10 C 22 8.894531 22.894531 8 24 8 Z M 24 8 "/>
<path style=" stroke:none;fill-rule:nonzero;fill:rgb(90.196079%,0.784314%,70.588237%);fill-opacity:1;" d="M 22 20 L 28 20 C 29.105469 20 30 20.894531 30 22 L 30 28 C 30 29.105469 29.105469 30 28 30 L 22 30 C 20.894531 30 20 29.105469 20 28 L 20 22 C 20 20.894531 20.894531 20 22 20 Z M 22 20 "/>
<path style=" stroke:none;fill-rule:nonzero;fill:rgb(95.294118%,71.764708%,85.09804%);fill-opacity:1;" d="M 24 22 L 26 22 C 27.105469 22 28 22.894531 28 24 L 28 26 C 28 27.105469 27.105469 28 26 28 L 24 28 C 22.894531 28 22 27.105469 22 26 L 22 24 C 22 22.894531 22.894531 22 24 22 Z M 24 22 "/>
<path style=" stroke:none;fill-rule:nonzero;fill:rgb(90.196079%,0.784314%,70.588237%);fill-opacity:1;" d="M 14 7 L 18 7 L 18 9 L 14 9 Z M 14 7 "/>
<path style=" stroke:none;fill-rule:nonzero;fill:rgb(90.196079%,0.784314%,70.588237%);fill-opacity:1;" d="M 16 9 L 18 9 L 18 26 L 16 26 Z M 16 9 "/>
<path style=" stroke:none;fill-rule:nonzero;fill:rgb(90.196079%,0.784314%,70.588237%);fill-opacity:1;" d="M 17.75 24 L 20 24 L 20 26 L 17.75 26 Z M 17.75 24 "/>
<path style=" stroke:none;fill-rule:nonzero;fill:rgb(90.196079%,0.784314%,70.588237%);fill-opacity:1;" d="M 17.75 9 L 20 9 L 20 11 L 17.75 11 Z M 17.75 9 "/>
</g>
</svg>
