<?xml version="1.0" encoding="UTF-8"?>
<svg xmlns="http://www.w3.org/2000/svg" xmlns:xlink="http://www.w3.org/1999/xlink" width="32px" height="32px" viewBox="0 0 32 32" version="1.1">
<g id="surface1">
<path style=" stroke:none;fill-rule:nonzero;fill:rgb(33.333334%,34.117648%,32.549021%);fill-opacity:1;" d="M 6 4 C 4.890625 4 4 4.890625 4 6 L 4 26 C 4 27.109375 4.890625 28 6 28 L 26 28 C 27.109375 28 28 27.109375 28 26 L 28 6 C 28 4.890625 27.109375 4 26 4 Z M 12 10 L 20 10 L 20 12 L 14 12 L 14 14 L 20 14 L 20 22 L 12 22 L 12 20 L 18 20 L 18 16 L 12 16 Z M 12 10 "/>
</g>
</svg>
