<?xml version="1.0" encoding="UTF-8"?>
<svg xmlns="http://www.w3.org/2000/svg" xmlns:xlink="http://www.w3.org/1999/xlink" width="32px" height="32px" viewBox="0 0 32 32" version="1.1">
<defs>
<filter id="alpha" filterUnits="objectBoundingBox" x="0%" y="0%" width="100%" height="100%">
  <feColorMatrix type="matrix" in="SourceGraphic" values="0 0 0 0 1 0 0 0 0 1 0 0 0 0 1 0 0 0 1 0"/>
</filter>
<mask id="mask0">
  <g filter="url(#alpha)">
<rect x="0" y="0" width="32" height="32" style="fill:rgb(0%,0%,0%);fill-opacity:0.867256;stroke:none;"/>
  </g>
</mask>
<clipPath id="clip1">
  <rect x="0" y="0" width="32" height="32"/>
</clipPath>
<g id="surface5" clip-path="url(#clip1)">
<path style=" stroke:none;fill-rule:nonzero;fill:rgb(95.294118%,71.764708%,85.09804%);fill-opacity:1;" d="M 24.578125 11.535156 C 24.578125 12.976562 21.613281 14.140625 17.960938 14.140625 C 14.308594 14.140625 11.34375 12.976562 11.34375 11.535156 C 11.34375 10.097656 14.308594 8.929688 17.960938 8.929688 C 21.613281 8.929688 24.578125 10.097656 24.578125 11.535156 Z M 24.578125 11.535156 "/>
</g>
<mask id="mask1">
  <g filter="url(#alpha)">
<rect x="0" y="0" width="32" height="32" style="fill:rgb(0%,0%,0%);fill-opacity:0.685393;stroke:none;"/>
  </g>
</mask>
<clipPath id="clip2">
  <rect x="0" y="0" width="32" height="32"/>
</clipPath>
<g id="surface8" clip-path="url(#clip2)">
<path style=" stroke:none;fill-rule:nonzero;fill:rgb(61.56863%,22.745098%,60.784316%);fill-opacity:1;" d="M 17.960938 7.921875 C 13.675781 7.921875 10.1875 9.679688 10.039062 11.882812 C 10.695312 10.8125 12.265625 9.9375 14.316406 9.453125 C 15.339844 9.066406 16.597656 8.832031 17.960938 8.832031 C 19.324219 8.832031 20.582031 9.066406 21.605469 9.453125 C 23.65625 9.9375 25.222656 10.8125 25.882812 11.882812 C 25.734375 9.679688 22.246094 7.921875 17.960938 7.921875 Z M 17.960938 7.921875 "/>
</g>
<mask id="mask2">
  <g filter="url(#alpha)">
<rect x="0" y="0" width="32" height="32" style="fill:rgb(0%,0%,0%);fill-opacity:0.685393;stroke:none;"/>
  </g>
</mask>
<clipPath id="clip3">
  <rect x="0" y="0" width="32" height="32"/>
</clipPath>
<g id="surface11" clip-path="url(#clip3)">
<path style=" stroke:none;fill-rule:nonzero;fill:rgb(61.56863%,22.745098%,60.784316%);fill-opacity:1;" d="M 17.960938 24.785156 C 13.675781 24.785156 10.1875 23.027344 10.039062 20.824219 C 10.695312 21.894531 12.265625 22.769531 14.316406 23.253906 C 15.339844 23.644531 16.597656 23.875 17.960938 23.875 C 19.324219 23.875 20.582031 23.644531 21.605469 23.253906 C 23.65625 22.769531 25.222656 21.894531 25.882812 20.824219 C 25.734375 23.027344 22.246094 24.785156 17.960938 24.785156 Z M 17.960938 24.785156 "/>
</g>
</defs>
<g id="surface1">
<path style="fill-rule:evenodd;fill:rgb(94.117647%,89.019608%,92.54902%);fill-opacity:1;stroke-width:1;stroke-linecap:round;stroke-linejoin:round;stroke:rgb(90.196079%,0.784314%,70.588237%);stroke-opacity:1;stroke-miterlimit:4;" d="M 3.5 1.5 L 12.5 1.5 C 13.052734 1.5 13.5 1.947266 13.5 2.5 L 13.5 13.5 C 13.5 14.052734 13.052734 14.5 12.5 14.5 L 3.5 14.5 C 2.947266 14.5 2.5 14.052734 2.5 13.5 L 2.5 2.5 C 2.5 1.947266 2.947266 1.5 3.5 1.5 Z M 3.5 1.5 " transform="matrix(2,0,0,2,0,0)"/>
<path style=" stroke:none;fill-rule:nonzero;fill:rgb(61.56863%,22.745098%,60.784316%);fill-opacity:1;" d="M 18.015625 8.046875 C 13.609375 8.046875 10.03125 9.761719 10.03125 11.875 C 10.03125 11.933594 10.035156 11.988281 10.039062 12.046875 L 10 12.046875 L 10 20.789062 L 10.039062 20.789062 C 10.035156 20.847656 10.03125 20.902344 10.03125 20.960938 C 10.03125 23.074219 13.609375 24.789062 18.015625 24.789062 C 22.421875 24.789062 26 23.074219 26 20.960938 C 26 20.902344 25.996094 20.847656 25.992188 20.789062 L 26 20.789062 L 26 12.046875 L 25.992188 12.046875 C 25.996094 11.988281 26 11.933594 26 11.875 C 26 9.761719 22.421875 8.046875 18.015625 8.046875 Z M 18.015625 8.046875 "/>
<use xlink:href="#surface5" mask="url(#mask0)"/>
<path style=" stroke:none;fill-rule:nonzero;fill:rgb(94.117647%,89.019608%,92.54902%);fill-opacity:1;" d="M 11.859375 14.429688 C 11.53125 14.738281 11.34375 15.074219 11.34375 15.429688 C 11.34375 16.867188 14.308594 18.039062 17.960938 18.039062 C 21.613281 18.039062 24.578125 16.867188 24.578125 15.429688 C 24.578125 15.074219 24.390625 14.738281 24.0625 14.429688 C 23.0625 15.371094 20.710938 16.039062 17.960938 16.039062 C 15.210938 16.039062 12.859375 15.371094 11.859375 14.429688 Z M 11.859375 14.429688 "/>
<path style=" stroke:none;fill-rule:nonzero;fill:rgb(94.117647%,89.019608%,92.54902%);fill-opacity:1;" d="M 11.859375 18.429688 C 11.53125 18.738281 11.34375 19.074219 11.34375 19.429688 C 11.34375 20.867188 14.308594 22.039062 17.960938 22.039062 C 21.613281 22.039062 24.578125 20.867188 24.578125 19.429688 C 24.578125 19.074219 24.390625 18.738281 24.0625 18.429688 C 23.0625 19.371094 20.710938 20.039062 17.960938 20.039062 C 15.210938 20.039062 12.859375 19.371094 11.859375 18.429688 Z M 11.859375 18.429688 "/>
<use xlink:href="#surface8" mask="url(#mask1)"/>
<use xlink:href="#surface11" mask="url(#mask2)"/>
<path style=" stroke:none;fill-rule:nonzero;fill:rgb(61.56863%,22.745098%,60.784316%);fill-opacity:1;" d="M 6 6 L 8 6 L 8 8 L 6 8 Z M 6 6 "/>
<path style=" stroke:none;fill-rule:nonzero;fill:rgb(61.56863%,22.745098%,60.784316%);fill-opacity:1;" d="M 6 10 L 8 10 L 8 12 L 6 12 Z M 6 10 "/>
<path style=" stroke:none;fill-rule:nonzero;fill:rgb(61.56863%,22.745098%,60.784316%);fill-opacity:1;" d="M 6 14 L 8 14 L 8 16 L 6 16 Z M 6 14 "/>
<path style=" stroke:none;fill-rule:nonzero;fill:rgb(61.56863%,22.745098%,60.784316%);fill-opacity:1;" d="M 6 18 L 8 18 L 8 20 L 6 20 Z M 6 18 "/>
<path style=" stroke:none;fill-rule:nonzero;fill:rgb(61.56863%,22.745098%,60.784316%);fill-opacity:1;" d="M 6 22 L 8 22 L 8 24 L 6 24 Z M 6 22 "/>
<path style=" stroke:none;fill-rule:nonzero;fill:rgb(61.56863%,22.745098%,60.784316%);fill-opacity:1;" d="M 6 26 L 8 26 L 8 28 L 6 28 Z M 6 26 "/>
</g>
</svg>
