<?xml version="1.0" encoding="UTF-8"?>
<svg xmlns="http://www.w3.org/2000/svg" xmlns:xlink="http://www.w3.org/1999/xlink" width="32px" height="32px" viewBox="0 0 32 32" version="1.1">
<g id="surface1">
<path style="fill-rule:evenodd;fill:rgb(95.294118%,71.764708%,85.09804%);fill-opacity:1;stroke-width:0.264583;stroke-linecap:round;stroke-linejoin:round;stroke:rgb(90.196079%,0.784314%,70.588237%);stroke-opacity:1;stroke-miterlimit:4;" d="M 0.537951 0.935343 L 3.710885 0.935343 C 3.784265 0.935343 3.843176 0.994771 3.843176 1.067635 L 3.843176 3.187919 C 3.843176 3.260783 3.784265 3.320211 3.710885 3.320211 L 0.537951 3.320211 C 0.465088 3.320211 0.40566 3.260783 0.40566 3.187919 L 0.40566 1.067635 C 0.40566 0.994771 0.465088 0.935343 0.537951 0.935343 Z M 0.537951 0.935343 " transform="matrix(7.559055,0,0,7.559055,0.00000180222,0)"/>
<path style=" stroke:none;fill-rule:evenodd;fill:rgb(94.117647%,89.019608%,92.54902%);fill-opacity:0.955446;" d="M 5 9 L 28 9 L 28 24 L 5 24 Z M 5 9 "/>
<path style=" stroke:none;fill-rule:nonzero;fill:rgb(61.56863%,22.745098%,60.784316%);fill-opacity:1;" d="M 28 24 L 27 24 L 27 8 L 28 8 Z M 28 24 "/>
<path style=" stroke:none;fill-rule:nonzero;fill:rgb(61.56863%,22.745098%,60.784316%);fill-opacity:1;" d="M 5 24 L 4 24 L 4 8 L 5 8 Z M 5 24 "/>
<path style=" stroke:none;fill-rule:nonzero;fill:rgb(61.56863%,22.745098%,60.784316%);fill-opacity:1;" d="M 27 23 L 27 24 L 5 24 L 5 23 Z M 27 23 "/>
<path style=" stroke:none;fill-rule:nonzero;fill:rgb(61.56863%,22.745098%,60.784316%);fill-opacity:1;" d="M 27 8 L 27 9 L 5 9 L 5 8 Z M 27 8 "/>
<path style=" stroke:none;fill-rule:nonzero;fill:rgb(61.56863%,22.745098%,60.784316%);fill-opacity:1;" d="M 27 13 L 27 14 L 5 14 L 5 13 Z M 27 13 "/>
<path style="fill-rule:nonzero;fill:rgb(94.117647%,89.019608%,92.54902%);fill-opacity:1;stroke-width:0.881944;stroke-linecap:round;stroke-linejoin:round;stroke:rgb(94.117647%,89.019608%,92.54902%);stroke-opacity:1;stroke-miterlimit:4;" d="M 6.416508 2.249132 C 6.416508 2.906284 5.883379 3.439413 5.225366 3.439413 C 4.568214 3.439413 4.035086 2.906284 4.035086 2.249132 C 4.035086 1.591119 4.568214 1.05799 5.225366 1.05799 C 5.883379 1.05799 6.416508 1.591119 6.416508 2.249132 Z M 6.416508 2.249132 " transform="matrix(4.535433,0,0,4.535433,-14.316485,-0.708601)"/>
<path style="fill:none;stroke-width:0.881944;stroke-linecap:round;stroke-linejoin:miter;stroke:rgb(94.117647%,89.019608%,92.54902%);stroke-opacity:1;stroke-miterlimit:4;" d="M 0.463383 1.190799 L 2.05071 1.190799 " transform="matrix(4.535433,0,0,4.535433,3.683516,4.091399)"/>
<path style="fill:none;stroke-width:0.881944;stroke-linecap:round;stroke-linejoin:miter;stroke:rgb(94.117647%,89.019608%,92.54902%);stroke-opacity:1;stroke-miterlimit:4;" d="M 1.256616 0.396704 L 1.256616 1.984032 " transform="matrix(4.535433,0,0,4.535433,3.683516,4.091399)"/>
<path style="fill-rule:nonzero;fill:rgb(94.117647%,89.019608%,92.54902%);fill-opacity:1;stroke-width:0.440972;stroke-linecap:round;stroke-linejoin:round;stroke:rgb(90.196079%,0.784314%,70.588237%);stroke-opacity:1;stroke-miterlimit:4;" d="M 6.416508 2.249132 C 6.416508 2.906284 5.883379 3.439413 5.225366 3.439413 C 4.568214 3.439413 4.035086 2.906284 4.035086 2.249132 C 4.035086 1.591119 4.568214 1.05799 5.225366 1.05799 C 5.883379 1.05799 6.416508 1.591119 6.416508 2.249132 Z M 6.416508 2.249132 " transform="matrix(4.535433,0,0,4.535433,-14.316485,-0.708601)"/>
<path style="fill:none;stroke-width:0.577701;stroke-linecap:round;stroke-linejoin:miter;stroke:rgb(61.56863%,22.745098%,60.784316%);stroke-opacity:1;stroke-miterlimit:4;" d="M 0.463512 1.19085 L 2.050759 1.19085 " transform="matrix(3.423282,0,0,3.501148,5.081235,5.322845)"/>
<path style="fill:none;stroke-width:0.577701;stroke-linecap:round;stroke-linejoin:miter;stroke:rgb(61.56863%,22.745098%,60.784316%);stroke-opacity:1;stroke-miterlimit:4;" d="M 1.256565 0.396468 L 1.256565 1.984117 " transform="matrix(3.423282,0,0,3.501148,5.081235,5.322845)"/>
</g>
</svg>
