<?xml version="1.0" encoding="UTF-8"?>
<svg xmlns="http://www.w3.org/2000/svg" xmlns:xlink="http://www.w3.org/1999/xlink" width="32px" height="32px" viewBox="0 0 32 32" version="1.1">
<g id="surface1">
<path style=" stroke:none;fill-rule:nonzero;fill:rgb(90.196079%,0.784314%,70.588237%);fill-opacity:1;" d="M 30 4 L 30 28 C 30 29.105469 29.105469 30 28 30 L 4 30 C 2.894531 30 2 29.105469 2 28 L 2 4 C 2 2.894531 2.894531 2 4 2 L 28 2 C 29.105469 2 30 2.894531 30 4 Z M 30 4 "/>
<path style=" stroke:none;fill-rule:nonzero;fill:rgb(61.56863%,22.745098%,60.784316%);fill-opacity:1;" d="M 20 5 L 20 27 L 18 27 L 18 5 Z M 20 5 "/>
<path style=" stroke:none;fill-rule:nonzero;fill:rgb(94.117647%,89.019608%,92.54902%);fill-opacity:1;" d="M 28 4 L 28 28 L 27 28 L 27 4 Z M 28 4 "/>
<path style=" stroke:none;fill-rule:nonzero;fill:rgb(94.117647%,89.019608%,92.54902%);fill-opacity:1;" d="M 27 27 L 27 28 L 4 28 L 4 27 Z M 27 27 "/>
<path style=" stroke:none;fill-rule:nonzero;fill:rgb(94.117647%,89.019608%,92.54902%);fill-opacity:1;" d="M 5 4 L 5 27 L 4 27 L 4 4 Z M 5 4 "/>
<path style=" stroke:none;fill-rule:nonzero;fill:rgb(94.117647%,89.019608%,92.54902%);fill-opacity:1;" d="M 27 4 L 27 5 L 5 5 L 5 4 Z M 27 4 "/>
<path style=" stroke:none;fill-rule:nonzero;fill:rgb(94.117647%,89.019608%,92.54902%);fill-opacity:1;" d="M 23 5 L 23 27 L 22 27 L 22 5 Z M 23 5 "/>
<path style=" stroke:none;fill-rule:nonzero;fill:rgb(94.117647%,89.019608%,92.54902%);fill-opacity:1;" d="M 16 5 L 16 27 L 15 27 L 15 5 Z M 16 5 "/>
<path style=" stroke:none;fill-rule:nonzero;fill:rgb(94.117647%,89.019608%,92.54902%);fill-opacity:1;" d="M 11 5 L 11 27 L 10 27 L 10 5 Z M 11 5 "/>
<path style=" stroke:none;fill-rule:nonzero;fill:rgb(94.117647%,89.019608%,92.54902%);fill-opacity:1;" d="M 27 8 L 27 9 L 5 9 L 5 8 Z M 27 8 "/>
<path style=" stroke:none;fill-rule:nonzero;fill:rgb(61.56863%,22.745098%,60.784316%);fill-opacity:1;" d="M 19.011719 10 C 17.652344 7.90625 14.375 4.09375 13.011719 2 L 25.011719 2 C 23.652344 4.09375 20.375 7.90625 19.011719 10 Z M 19.011719 10 "/>
<path style=" stroke:none;fill-rule:nonzero;fill:rgb(94.117647%,89.019608%,92.54902%);fill-opacity:1;" d="M 21 4 L 17.027344 4 C 17.710938 4.875 18.335938 5.691406 19.011719 6.582031 C 19.691406 5.691406 20.3125 4.875 21 4 Z M 21 4 "/>
<path style=" stroke:none;fill-rule:nonzero;fill:rgb(94.117647%,89.019608%,92.54902%);fill-opacity:1;" d="M 27 12 L 27 13 L 5 13 L 5 12 Z M 27 12 "/>
<path style=" stroke:none;fill-rule:nonzero;fill:rgb(94.117647%,89.019608%,92.54902%);fill-opacity:1;" d="M 27 16 L 27 17 L 5 17 L 5 16 Z M 27 16 "/>
<path style=" stroke:none;fill-rule:nonzero;fill:rgb(94.117647%,89.019608%,92.54902%);fill-opacity:1;" d="M 27 20 L 27 21 L 5 21 L 5 20 Z M 27 20 "/>
<path style=" stroke:none;fill-rule:nonzero;fill:rgb(94.117647%,89.019608%,92.54902%);fill-opacity:1;" d="M 27 24 L 27 25 L 5 25 L 5 24 Z M 27 24 "/>
</g>
</svg>
