<?xml version="1.0" encoding="UTF-8"?>
<svg xmlns="http://www.w3.org/2000/svg" xmlns:xlink="http://www.w3.org/1999/xlink" width="32px" height="32px" viewBox="0 0 32 32" version="1.1">
<g id="surface1">
<path style=" stroke:none;fill-rule:nonzero;fill:rgb(90.196079%,0.784314%,70.588237%);fill-opacity:1;" d="M 2.679688 10 C 2.304688 10 2 10.351562 2 10.792969 L 2 12 L 6 12 L 6 10 Z M 8 10 L 8 12 L 10 12 L 10 10 Z M 12 10 L 12 12 L 12.460938 12 C 12.417969 11.667969 12.394531 11.335938 12.390625 11 C 12.394531 10.664062 12.414062 10.332031 12.457031 10 Z M 2 14 L 2 16 L 4 16 L 4 14 Z M 12 14 L 12 15.886719 C 12.023438 15.921875 12.046875 15.960938 12.070312 16 L 14 16 L 14 15.992188 C 13.558594 15.378906 13.203125 14.707031 12.9375 14 Z M 2 18 L 2 20 L 4 20 L 4 18 Z M 13.546875 18 C 13.691406 18.15625 13.84375 18.3125 14 18.460938 L 14 18 Z M 16 18 L 16 19.917969 C 16.046875 19.945312 16.09375 19.972656 16.140625 20 L 18 20 L 18 19.058594 C 17.289062 18.792969 16.617188 18.4375 16 18 Z M 22 19.542969 C 21.667969 19.582031 21.335938 19.605469 21.003906 19.609375 C 20.667969 19.609375 20.332031 19.585938 20 19.546875 L 20 20 L 22 20 Z M 2 22 L 2 24 L 4 24 L 4 22 Z M 20 22 L 20 24 L 22 24 L 22 22 Z M 2 26 L 2 29.207031 C 2 29.648438 2.304688 30 2.679688 30 L 6 30 L 6 28 L 4.316406 28 C 4.140625 28 4 27.832031 4 27.617188 L 4 26 Z M 20 26 L 20 30 L 21.320312 30 C 21.695312 30 22 29.648438 22 29.207031 L 22 26 Z M 8 28 L 8 30 L 10 30 L 10 28 Z M 12 28 L 12 30 L 14 30 L 14 28 Z M 16 28 L 16 30 L 18 30 L 18 28 Z M 16 28 "/>
<path style=" stroke:none;fill-rule:nonzero;fill:rgb(61.56863%,22.745098%,60.784316%);fill-opacity:1;" d="M 10.332031 9.925781 C 10.296875 10.273438 10.273438 10.617188 10.273438 10.964844 C 10.273438 11.308594 10.289062 11.65625 10.324219 12 C 10.820312 17.039062 14.796875 21.023438 19.816406 21.519531 C 20.160156 21.554688 20.503906 21.578125 20.847656 21.578125 C 21.195312 21.578125 21.539062 21.5625 21.878906 21.527344 L 21.878906 10.632812 C 21.878906 10.242188 21.515625 9.925781 21.0625 9.925781 Z M 12.035156 12 L 19.421875 12 C 19.640625 12 19.816406 12.144531 19.816406 12.328125 L 19.816406 19.824219 C 19.816406 19.835938 18.375 19.609375 18 19.40625 C 14.753906 18.296875 12.433594 15.417969 12.035156 12 Z M 12.035156 12 "/>
<path style=" stroke:none;fill-rule:nonzero;fill:rgb(95.294118%,71.764708%,85.09804%);fill-opacity:1;" d="M 11.964844 12 C 12.496094 16.199219 15.800781 19.503906 20 20.027344 L 20 12.339844 C 20 12.152344 19.816406 12 19.589844 12 Z M 11.964844 12 "/>
<path style=" stroke:none;fill-rule:nonzero;fill:rgb(90.196079%,0.784314%,70.588237%);fill-opacity:1;" d="M 19.3125 1.917969 C 18.699219 1.980469 18.09375 2.101562 17.503906 2.277344 L 18.109375 3.734375 C 18.503906 3.621094 18.90625 3.539062 19.3125 3.488281 Z M 21.234375 1.929688 L 21.234375 3.445312 C 21.648438 3.496094 22.058594 3.578125 22.457031 3.691406 L 23.046875 2.273438 C 22.453125 2.101562 21.847656 1.988281 21.234375 1.929688 Z M 24.828125 2.992188 L 24.242188 4.40625 C 24.617188 4.605469 24.976562 4.824219 25.3125 5.078125 L 26.390625 4 C 25.902344 3.617188 25.378906 3.277344 24.828125 2.992188 Z M 15.71875 2.996094 C 15.171875 3.285156 14.652344 3.621094 14.164062 4.007812 L 15.289062 5.132812 C 15.617188 4.882812 15.964844 4.65625 16.328125 4.457031 Z M 27.773438 5.335938 L 26.675781 6.4375 C 26.777344 6.5625 26.875 6.691406 26.972656 6.820312 L 27.007812 6.789062 C 27.164062 7.007812 27.308594 7.234375 27.441406 7.464844 L 28.851562 6.882812 C 28.542969 6.335938 28.179688 5.816406 27.773438 5.335938 Z M 12.78125 5.34375 C 12.375 5.824219 12.015625 6.339844 11.707031 6.886719 L 13.175781 7.496094 C 13.214844 7.425781 13.25 7.355469 13.292969 7.289062 C 13.300781 7.273438 13.3125 7.253906 13.324219 7.234375 C 13.496094 6.960938 13.683594 6.699219 13.886719 6.449219 Z M 29.625 8.644531 L 28.214844 9.226562 C 28.34375 9.648438 28.4375 10.078125 28.5 10.515625 L 30.046875 10.515625 C 29.96875 9.878906 29.828125 9.253906 29.625 8.644531 Z M 10.929688 8.644531 C 10.726562 9.253906 10.582031 9.878906 10.503906 10.515625 L 12.097656 10.515625 C 12.160156 10.085938 12.261719 9.664062 12.390625 9.25 Z M 28.535156 12.4375 C 28.492188 12.882812 28.417969 13.324219 28.300781 13.761719 L 29.765625 14.367188 C 29.941406 13.738281 30.054688 13.089844 30.101562 12.4375 Z M 27.597656 15.550781 C 27.53125 15.675781 27.464844 15.796875 27.394531 15.917969 C 27.285156 16.101562 27.167969 16.28125 27.042969 16.457031 C 27.027344 16.480469 27.015625 16.5 27 16.519531 C 26.957031 16.582031 26.910156 16.644531 26.863281 16.703125 L 27.996094 17.835938 C 28.410156 17.316406 28.769531 16.753906 29.066406 16.160156 Z M 25.53125 18.09375 C 25.421875 18.1875 25.304688 18.28125 25.1875 18.367188 L 25.207031 18.390625 C 24.945312 18.578125 24.671875 18.746094 24.390625 18.902344 L 24.996094 20.363281 C 25.589844 20.039062 26.144531 19.65625 26.65625 19.21875 Z M 22.617188 19.648438 C 22.164062 19.785156 21.703125 19.882812 21.234375 19.941406 L 21.234375 21.523438 C 21.910156 21.457031 22.578125 21.320312 23.226562 21.113281 Z M 22.617188 19.648438 "/>
</g>
</svg>
