<?xml version="1.0" encoding="UTF-8"?>
<svg xmlns="http://www.w3.org/2000/svg" xmlns:xlink="http://www.w3.org/1999/xlink" width="32px" height="32px" viewBox="0 0 32 32" version="1.1">
<defs>
<linearGradient id="linear0" gradientUnits="userSpaceOnUse" x1="7.5" y1="7.5" x2="112.5" y2="112.5" gradientTransform="matrix(0.25,0,0,0.25,0,0)">
<stop offset="0" style="stop-color:rgb(90.196079%,0.784314%,70.588237%);stop-opacity:1;"/>
<stop offset="1" style="stop-color:rgb(94.117647%,89.019608%,92.54902%);stop-opacity:0.0247525;"/>
</linearGradient>
</defs>
<g id="surface1">
<path style=" stroke:none;fill-rule:nonzero;fill:rgb(94.117647%,89.019608%,92.54902%);fill-opacity:1;" d="M 20.667969 2 L 30 2 L 30 11.332031 L 20.667969 11.332031 Z M 20.667969 2 "/>
<path style=" stroke:none;fill-rule:nonzero;fill:rgb(95.294118%,71.764708%,85.09804%);fill-opacity:1;" d="M 11.332031 2 L 20.667969 2 L 20.667969 11.332031 L 11.332031 11.332031 Z M 11.332031 2 "/>
<path style=" stroke:none;fill-rule:nonzero;fill:rgb(95.294118%,71.764708%,85.09804%);fill-opacity:1;" d="M 11.332031 20.667969 L 20.667969 20.667969 L 20.667969 30 L 11.332031 30 Z M 11.332031 20.667969 "/>
<path style=" stroke:none;fill-rule:nonzero;fill:rgb(95.294118%,71.764708%,85.09804%);fill-opacity:1;" d="M 20.667969 11.332031 L 30 11.332031 L 30 20.667969 L 20.667969 20.667969 Z M 20.667969 11.332031 "/>
<path style=" stroke:none;fill-rule:nonzero;fill:rgb(95.294118%,71.764708%,85.09804%);fill-opacity:1;" d="M 2 11.332031 L 11.332031 11.332031 L 11.332031 20.667969 L 2 20.667969 Z M 2 11.332031 "/>
<path style=" stroke:none;fill-rule:nonzero;fill:rgb(94.117647%,89.019608%,92.54902%);fill-opacity:1;" d="M 2 2 L 11.332031 2 L 11.332031 11.332031 L 2 11.332031 Z M 2 2 "/>
<path style=" stroke:none;fill-rule:nonzero;fill:rgb(94.117647%,89.019608%,92.54902%);fill-opacity:1;" d="M 2 20.667969 L 11.332031 20.667969 L 11.332031 30 L 2 30 Z M 2 20.667969 "/>
<path style=" stroke:none;fill-rule:nonzero;fill:rgb(94.117647%,89.019608%,92.54902%);fill-opacity:1;" d="M 20.667969 20.667969 L 30 20.667969 L 30 30 L 20.667969 30 Z M 20.667969 20.667969 "/>
<path style=" stroke:none;fill-rule:nonzero;fill:rgb(94.117647%,89.019608%,92.54902%);fill-opacity:1;" d="M 11.332031 11.332031 L 20.667969 11.332031 L 20.667969 20.667969 L 11.332031 20.667969 Z M 11.332031 11.332031 "/>
<path style=" stroke:none;fill-rule:nonzero;fill:url(#linear0);" d="M 2 2 L 30 2 L 30 30 L 2 30 Z M 2 2 "/>
<path style=" stroke:none;fill-rule:nonzero;fill:rgb(90.196079%,0.784314%,70.588237%);fill-opacity:1;" d="M 5.054688 6.375 L 6.375 5.054688 L 28.8125 27.492188 L 27.492188 28.8125 Z M 5.054688 6.375 "/>
<path style=" stroke:none;fill-rule:nonzero;fill:rgb(90.196079%,0.784314%,70.588237%);fill-opacity:1;" d="M 22 22 L 30 22 L 30 30 L 22 30 Z M 22 22 "/>
<path style=" stroke:none;fill-rule:nonzero;fill:rgb(94.117647%,89.019608%,92.54902%);fill-opacity:1;" d="M 24 24 L 28.132812 24 L 28.132812 28.132812 L 24 28.132812 Z M 24 24 "/>
<path style=" stroke:none;fill-rule:nonzero;fill:rgb(90.196079%,0.784314%,70.588237%);fill-opacity:1;" d="M 2 2 L 10 2 L 10 10 L 2 10 Z M 2 2 "/>
<path style=" stroke:none;fill-rule:nonzero;fill:rgb(94.117647%,89.019608%,92.54902%);fill-opacity:1;" d="M 4 4 L 8 4 L 8 8 L 4 8 Z M 4 4 "/>
</g>
</svg>
