<?xml version="1.0" encoding="UTF-8"?>
<svg xmlns="http://www.w3.org/2000/svg" xmlns:xlink="http://www.w3.org/1999/xlink" width="32px" height="32px" viewBox="0 0 32 32" version="1.1">
<defs>
<filter id="alpha" filterUnits="objectBoundingBox" x="0%" y="0%" width="100%" height="100%">
  <feColorMatrix type="matrix" in="SourceGraphic" values="0 0 0 0 1 0 0 0 0 1 0 0 0 0 1 0 0 0 1 0"/>
</filter>
<mask id="mask0">
  <g filter="url(#alpha)">
<rect x="0" y="0" width="32" height="32" style="fill:rgb(0%,0%,0%);fill-opacity:0.99;stroke:none;"/>
  </g>
</mask>
<clipPath id="clip1">
  <rect x="0" y="0" width="32" height="32"/>
</clipPath>
<g id="surface5" clip-path="url(#clip1)">
<path style=" stroke:none;fill-rule:nonzero;fill:rgb(94.117647%,89.019608%,92.54902%);fill-opacity:1;" d="M 29 29 L 11 29 L 11 7 L 29 7 Z M 29 29 "/>
</g>
<mask id="mask1">
  <g filter="url(#alpha)">
<rect x="0" y="0" width="32" height="32" style="fill:rgb(0%,0%,0%);fill-opacity:0.78;stroke:none;"/>
  </g>
</mask>
<clipPath id="clip2">
  <rect x="0" y="0" width="32" height="32"/>
</clipPath>
<g id="surface8" clip-path="url(#clip2)">
<path style=" stroke:none;fill-rule:nonzero;fill:rgb(95.294118%,71.764708%,85.09804%);fill-opacity:1;" d="M 19 7 L 19 18 L 11 18 L 11 19 L 19 19 L 19 24 L 11.214844 24 L 11.214844 25 L 19 25 L 19 29 L 20 29 L 20 25 L 29 25 L 29 24 L 20 24 L 20 19 L 29 19 L 29 18 L 20 18 L 20 7 Z M 19 7 "/>
</g>
<mask id="mask2">
  <g filter="url(#alpha)">
<rect x="0" y="0" width="32" height="32" style="fill:rgb(0%,0%,0%);fill-opacity:0.99;stroke:none;"/>
  </g>
</mask>
<clipPath id="clip3">
  <rect x="0" y="0" width="32" height="32"/>
</clipPath>
<g id="surface11" clip-path="url(#clip3)">
<path style=" stroke:none;fill-rule:nonzero;fill:rgb(94.117647%,89.019608%,92.54902%);fill-opacity:1;" d="M 21 24 L 3 24 L 3 2 L 21 2 Z M 21 24 "/>
</g>
</defs>
<g id="surface1">
<path style=" stroke:none;fill-rule:nonzero;fill:rgb(95.294118%,71.764708%,85.09804%);fill-opacity:1;" d="M 10 7 L 30 7 L 30 30 L 10 30 Z M 10 7 "/>
<use xlink:href="#surface5" mask="url(#mask0)"/>
<use xlink:href="#surface8" mask="url(#mask1)"/>
<path style=" stroke:none;fill-rule:nonzero;fill:rgb(79.215688%,79.215688%,79.215688%);fill-opacity:1;" d="M 29 12 L 29 13 L 11 13 L 11 12 Z M 29 12 "/>
<path style=" stroke:none;fill-rule:nonzero;fill:rgb(90.196079%,0.784314%,70.588237%);fill-opacity:1;" d="M 10 7 L 30 7 L 30 13 L 10 13 Z M 10 7 "/>
<path style=" stroke:none;fill-rule:nonzero;fill:rgb(95.294118%,71.764708%,85.09804%);fill-opacity:1;" d="M 2 2 L 22 2 L 22 25 L 2 25 Z M 2 2 "/>
<use xlink:href="#surface11" mask="url(#mask2)"/>
<path style=" stroke:none;fill-rule:nonzero;fill:rgb(95.294118%,71.764708%,85.09804%);fill-opacity:1;" d="M 11 2 L 11 7 L 3 7 L 3 8 L 11 8 L 11 13 L 3 13 L 3 14 L 11 14 L 11 19 L 3.054688 19 L 3.054688 20 L 11 20 L 11 24 L 12 24 L 12 20 L 21 20 L 21 19 L 12 19 L 12 14 L 21 14 L 21 13 L 12 13 L 12 8 L 21 8 L 21 7 L 12 7 L 12 2 Z M 11 2 "/>
<path style=" stroke:none;fill-rule:nonzero;fill:rgb(90.196079%,0.784314%,70.588237%);fill-opacity:1;" d="M 2 2 L 22 2 L 22 7.101562 L 2 7.101562 Z M 2 2 "/>
<path style=" stroke:none;fill-rule:evenodd;fill:rgb(61.56863%,22.745098%,60.784316%);fill-opacity:1;" d="M 15.949219 6.636719 C 15.621094 6.644531 15.296875 6.746094 15.023438 6.9375 L 6.085938 13.210938 C 5.699219 13.484375 5.441406 13.921875 5.441406 14.414062 C 5.441406 14.902344 5.699219 15.34375 6.085938 15.613281 L 15.023438 21.886719 C 15.511719 22.230469 16.132812 22.28125 16.667969 22.054688 C 17.195312 21.832031 17.617188 21.308594 17.617188 20.691406 L 17.617188 8.132812 C 17.617188 7.699219 17.410156 7.296875 17.089844 7.023438 C 16.757812 6.742188 16.351562 6.625 15.949219 6.636719 Z M 12 12.824219 L 12 16 L 9.742188 14.414062 Z M 12 12.824219 "/>
<path style=" stroke:none;fill-rule:evenodd;fill:rgb(95.294118%,71.764708%,85.09804%);fill-opacity:1;" d="M 7.53125 14.414062 L 15.527344 9.039062 L 15.476562 19.636719 Z M 7.53125 14.414062 "/>
</g>
</svg>
