<?xml version="1.0" encoding="UTF-8"?>
<svg xmlns="http://www.w3.org/2000/svg" xmlns:xlink="http://www.w3.org/1999/xlink" width="32px" height="32px" viewBox="0 0 32 32" version="1.1">
<defs>
<filter id="alpha" filterUnits="objectBoundingBox" x="0%" y="0%" width="100%" height="100%">
  <feColorMatrix type="matrix" in="SourceGraphic" values="0 0 0 0 1 0 0 0 0 1 0 0 0 0 1 0 0 0 1 0"/>
</filter>
<mask id="mask0">
  <g filter="url(#alpha)">
<rect x="0" y="0" width="32" height="32" style="fill:rgb(0%,0%,0%);fill-opacity:0.356557;stroke:none;"/>
  </g>
</mask>
<clipPath id="clip1">
  <rect x="0" y="0" width="32" height="32"/>
</clipPath>
<g id="surface5" clip-path="url(#clip1)">
<path style="fill:none;stroke-width:0.827365;stroke-linecap:butt;stroke-linejoin:miter;stroke:rgb(90.196079%,0.784314%,70.588237%);stroke-opacity:1;stroke-miterlimit:4;" d="M 9.080078 8.058594 L 4.976562 12.162109 " transform="matrix(2,0,0,2,0,0)"/>
</g>
</defs>
<g id="surface1">
<path style="fill-rule:nonzero;fill:rgb(94.117647%,89.019608%,92.54902%);fill-opacity:1;stroke-width:1;stroke-linecap:butt;stroke-linejoin:miter;stroke:rgb(90.196079%,0.784314%,70.588237%);stroke-opacity:1;stroke-miterlimit:4;" d="M 8.099609 4.050781 C 7.798828 4.023438 7.490234 4.123047 7.257812 4.355469 L 1.919922 9.689453 C 1.505859 10.103516 1.505859 10.771484 1.919922 11.185547 L 4.894531 14.160156 C 5.308594 14.574219 5.974609 14.574219 6.388672 14.160156 L 11.724609 8.820312 C 11.970703 8.576172 12.033203 8.242188 12.033203 7.923828 L 12.027344 5.095703 C 12.027344 4.509766 11.554688 4.037109 10.96875 4.037109 C 10.96875 4.037109 8.148438 4.046875 8.099609 4.050781 Z M 10.945312 4.554688 C 11.306641 4.539062 11.552734 4.800781 11.552734 5.103516 C 11.552734 5.408203 11.306641 5.652344 11.003906 5.652344 C 10.699219 5.652344 10.451172 5.408203 10.451172 5.103516 C 10.451172 4.820312 10.666016 4.568359 10.945312 4.554688 Z M 10.945312 4.554688 " transform="matrix(2,0,0,2,0,0)"/>
<path style=" stroke:none;fill-rule:nonzero;fill:rgb(95.294118%,71.764708%,85.09804%);fill-opacity:1;" d="M 6.382812 19.617188 L 13.921875 12.078125 C 14.683594 11.316406 15.921875 11.316406 16.6875 12.078125 L 20.082031 15.472656 C 20.84375 16.238281 20.84375 17.476562 20.082031 18.238281 L 12.542969 25.777344 C 11.78125 26.542969 10.542969 26.542969 9.777344 25.777344 L 6.382812 22.382812 C 5.621094 21.621094 5.621094 20.378906 6.382812 19.617188 Z M 6.382812 19.617188 "/>
<use xlink:href="#surface5" mask="url(#mask0)"/>
<path style=" stroke:none;fill-rule:nonzero;fill:rgb(90.196079%,0.784314%,70.588237%);fill-opacity:1;" d="M 23.117188 10.171875 C 23.636719 9.980469 23.957031 9.542969 24 9 C 23.515625 8.550781 23.183594 7.832031 23.183594 6.988281 C 23.183594 6.070312 23.691406 5.214844 24.246094 4.527344 C 24.804688 3.839844 25.601562 3.457031 26.191406 3.320312 C 26.78125 3.183594 27.679688 3.289062 28.234375 3.71875 C 28.792969 4.148438 29.125 4.824219 29.125 5.742188 C 29.125 6.660156 28.605469 7.554688 28.050781 8.242188 C 27.492188 8.929688 26.511719 9.398438 25.925781 9.535156 C 25.691406 9.585938 25.4375 9.613281 25.195312 9.585938 L 25.195312 10.53125 C 25.425781 10.511719 25.675781 10.476562 25.925781 10.417969 C 27.3125 10.097656 28.445312 9.285156 29.183594 8.371094 C 29.921875 7.460938 30.34375 6.394531 30.34375 5.332031 C 30.34375 4.269531 29.921875 3.398438 29.183594 2.828125 C 28.613281 2.386719 27.808594 2.109375 26.832031 2.152344 C 26.542969 2.167969 26.238281 2.210938 25.925781 2.285156 C 24.535156 2.605469 23.398438 3.425781 22.660156 4.335938 C 21.921875 5.246094 21.503906 6.304688 21.503906 7.371094 C 21.503906 8.433594 21.921875 9.3125 22.660156 9.882812 C 22.796875 9.988281 22.953125 10.085938 23.117188 10.171875 Z M 23.117188 10.171875 "/>
</g>
</svg>
