<?xml version="1.0" encoding="UTF-8"?>
<svg xmlns="http://www.w3.org/2000/svg" xmlns:xlink="http://www.w3.org/1999/xlink" width="32px" height="32px" viewBox="0 0 32 32" version="1.1">
<g id="surface1">
<path style="fill-rule:nonzero;fill:rgb(94.117647%,89.019608%,92.54902%);fill-opacity:1;stroke-width:1;stroke-linecap:round;stroke-linejoin:round;stroke:rgb(90.196079%,0.784314%,70.588237%);stroke-opacity:1;stroke-miterlimit:4;" d="M 2.356377 1.760528 C 1.887627 1.760528 1.510674 2.127715 1.510674 2.584747 L 1.510674 10.8367 C 1.510674 11.293731 1.887627 11.660918 2.356377 11.660918 L 12.497002 11.660918 C 12.963799 11.660918 13.340752 11.293731 13.340752 10.8367 L 13.340752 2.584747 C 13.340752 2.127715 12.963799 1.760528 12.497002 1.760528 C 12.497002 2.217559 12.120049 2.584747 11.651299 2.584747 L 10.805596 2.584747 C 10.338799 2.584747 9.961846 2.217559 9.961846 1.760528 Z M 2.356377 1.760528 " transform="matrix(2,0,0,2,2.205215,5.560976)"/>
<path style="fill-rule:nonzero;fill:rgb(95.294118%,71.764708%,85.09804%);fill-opacity:1;stroke-width:0.5;stroke-linecap:round;stroke-linejoin:round;stroke:rgb(61.56863%,22.745098%,60.784316%);stroke-opacity:1;stroke-miterlimit:4;" d="M 3.805596 4.520293 L 11.116143 4.520293 C 11.58294 4.520293 11.961846 4.8992 11.961846 5.365997 L 11.961846 9.436309 C 11.961846 9.903106 11.58294 10.280059 11.116143 10.280059 L 3.805596 10.280059 C 3.340752 10.280059 2.961846 9.903106 2.961846 9.436309 L 2.961846 5.365997 C 2.961846 4.8992 3.340752 4.520293 3.805596 4.520293 Z M 3.805596 4.520293 " transform="matrix(2,0,0,2,2.205215,5.560976)"/>
<path style="fill-rule:nonzero;fill:rgb(94.117647%,89.019608%,92.54902%);fill-opacity:1;stroke-width:1;stroke-linecap:round;stroke-linejoin:round;stroke:rgb(90.196079%,0.784314%,70.588237%);stroke-opacity:1;stroke-miterlimit:4;" d="M 2.355469 1.521484 C 1.888672 1.521484 1.511719 1.898438 1.511719 2.365234 L 1.511719 10.816406 C 1.511719 11.283203 1.888672 11.660156 2.355469 11.660156 L 12.496094 11.660156 C 12.964844 11.660156 13.341797 11.283203 13.341797 10.816406 L 13.341797 2.365234 C 13.341797 1.898438 12.964844 1.521484 12.496094 1.521484 C 12.496094 1.988281 12.119141 2.365234 11.652344 2.365234 L 10.806641 2.365234 C 10.337891 2.365234 9.960938 1.988281 9.960938 1.521484 Z M 2.355469 1.521484 " transform="matrix(2,0,0,2,0,0)"/>
<path style="fill-rule:nonzero;fill:rgb(95.294118%,71.764708%,85.09804%);fill-opacity:1;stroke-width:0.5;stroke-linecap:round;stroke-linejoin:round;stroke:rgb(61.56863%,22.745098%,60.784316%);stroke-opacity:1;stroke-miterlimit:4;" d="M 3.806641 4.521484 L 11.117188 4.521484 C 11.583984 4.521484 11.960938 4.898438 11.960938 5.365234 L 11.960938 9.435547 C 11.960938 9.902344 11.583984 10.28125 11.117188 10.28125 L 3.806641 10.28125 C 3.339844 10.28125 2.960938 9.902344 2.960938 9.435547 L 2.960938 5.365234 C 2.960938 4.898438 3.339844 4.521484 3.806641 4.521484 Z M 3.806641 4.521484 " transform="matrix(2,0,0,2,0,0)"/>
<path style=" stroke:none;fill-rule:evenodd;fill:rgb(61.56863%,22.745098%,60.784316%);fill-opacity:1;" d="M 5.648438 2.027344 C 5.253906 2.015625 4.847656 2.140625 4.515625 2.433594 C 4.191406 2.722656 3.992188 3.128906 3.992188 3.582031 L 3.992188 16.511719 C 3.992188 17.148438 4.425781 17.691406 4.9375 17.917969 C 5.464844 18.148438 6.085938 18.09375 6.5625 17.746094 L 9.992188 13.738281 L 9.992188 16.511719 C 9.992188 17.148438 10.425781 17.691406 10.9375 17.917969 C 11.464844 18.148438 12.085938 18.09375 12.5625 17.746094 L 21.398438 11.285156 C 21.789062 10.996094 22.03125 10.53125 22.03125 10.042969 C 22.03125 9.550781 21.789062 9.085938 21.398438 8.800781 L 12.5625 2.339844 C 12.304688 2.148438 11.976562 2.035156 11.648438 2.027344 C 11.253906 2.015625 10.847656 2.140625 10.515625 2.433594 C 10.191406 2.722656 9.992188 3.128906 9.992188 3.582031 L 9.992188 6.597656 L 6.5625 2.339844 C 6.304688 2.148438 5.976562 2.035156 5.648438 2.027344 Z M 25.820312 2.027344 C 24.824219 2.027344 23.992188 2.855469 23.992188 3.855469 L 23.992188 16.230469 C 23.992188 17.226562 24.824219 18.058594 25.820312 18.058594 L 28.195312 18.058594 C 29.191406 18.058594 30.023438 17.226562 30.023438 16.230469 L 30.023438 3.855469 C 30.023438 2.855469 29.191406 2.027344 28.195312 2.027344 Z M 9.554688 8.425781 L 9.992188 8.746094 L 9.992188 11.339844 L 9.554688 11.660156 Z M 15.554688 8.425781 L 17.765625 10.042969 L 15.554688 11.660156 L 15.554688 11.097656 C 15.835938 10.8125 16.03125 10.449219 16.03125 10.042969 C 16.03125 9.632812 15.835938 9.269531 15.554688 8.988281 Z M 15.554688 8.425781 "/>
<path style=" stroke:none;fill-rule:evenodd;fill:rgb(94.117647%,89.019608%,92.54902%);fill-opacity:1;" d="M 6.039062 4.511719 L 6.039062 15.574219 L 12.039062 11.371094 L 12.039062 15.574219 L 19.9375 10.042969 L 12.039062 4.511719 L 12.039062 8.714844 Z M 6.039062 4.511719 "/>
<path style=" stroke:none;fill-rule:nonzero;fill:rgb(94.117647%,89.019608%,92.54902%);fill-opacity:1;" d="M 25.996094 4.050781 L 28.023438 4.050781 L 28.023438 16.03125 L 25.996094 16.03125 Z M 25.996094 4.050781 "/>
</g>
</svg>
