<?xml version="1.0" encoding="UTF-8"?>
<svg xmlns="http://www.w3.org/2000/svg" xmlns:xlink="http://www.w3.org/1999/xlink" width="24px" height="24px" viewBox="0 0 24 24" version="1.1">
<g id="surface1">
<path style="fill-rule:nonzero;fill:rgb(94.117647%,89.019608%,92.54902%);fill-opacity:1;stroke-width:1;stroke-linecap:butt;stroke-linejoin:round;stroke:rgb(90.196079%,0.784314%,70.588237%);stroke-opacity:1;stroke-miterlimit:4;" d="M 8 14.5 L 10.765625 13.570312 L 8.921875 13.570312 L 8.921875 10.786458 L 10.765625 10.786458 L 10.765625 5.213542 L 8.921875 5.213542 L 8.921875 2.429688 L 10.765625 2.429688 L 8 1.5 L 5.234375 2.429688 L 7.078125 2.429688 L 7.078125 5.213542 L 5.234375 5.213542 L 5.234375 10.786458 L 7.078125 10.786458 L 7.078125 13.570312 L 5.234375 13.570312 Z M 8 14.5 " transform="matrix(1.5,0,0,1.5,0,0)"/>
<path style="fill-rule:nonzero;fill:rgb(94.117647%,89.019608%,92.54902%);fill-opacity:1;stroke-width:1;stroke-linecap:butt;stroke-linejoin:round;stroke:rgb(90.196079%,0.784314%,70.588237%);stroke-opacity:1;stroke-miterlimit:4;" d="M 14.5 8 L 13.570312 5.234375 L 13.570312 7.078125 L 10.786458 7.078125 L 10.786458 5.234375 L 5.213542 5.234375 L 5.213542 7.078125 L 2.429688 7.078125 L 2.429688 5.234375 L 1.5 8 L 2.429688 10.765625 L 2.429688 8.921875 L 5.213542 8.921875 L 5.213542 10.765625 L 10.786458 10.765625 L 10.786458 8.921875 L 13.570312 8.921875 L 13.570312 10.765625 Z M 14.5 8 " transform="matrix(1.5,0,0,1.5,0,0)"/>
</g>
</svg>
