<?xml version="1.0" encoding="UTF-8"?>
<svg xmlns="http://www.w3.org/2000/svg" xmlns:xlink="http://www.w3.org/1999/xlink" width="24px" height="24px" viewBox="0 0 24 24" version="1.1">
<defs>
<filter id="alpha" filterUnits="objectBoundingBox" x="0%" y="0%" width="100%" height="100%">
  <feColorMatrix type="matrix" in="SourceGraphic" values="0 0 0 0 1 0 0 0 0 1 0 0 0 0 1 0 0 0 1 0"/>
</filter>
<mask id="mask0">
  <g filter="url(#alpha)">
<rect x="0" y="0" width="24" height="24" style="fill:rgb(0%,0%,0%);fill-opacity:0.35;stroke:none;"/>
  </g>
</mask>
<clipPath id="clip1">
  <rect x="0" y="0" width="24" height="24"/>
</clipPath>
<g id="surface5" clip-path="url(#clip1)">
<path style=" stroke:none;fill-rule:nonzero;fill:rgb(33.333334%,34.117648%,32.549021%);fill-opacity:1;" d="M 1.5 1.5 L 1.5 22.5 L 22.5 22.5 L 22.5 1.5 Z M 7.5 4.5 L 15 4.5 C 17.484375 4.5 19.5 6.515625 19.5 9 L 19.5 19.5 L 9 19.5 C 6.515625 19.5 4.5 17.484375 4.5 15 C 4.5 12.515625 6.515625 10.5 9 10.5 L 16.5 10.5 L 16.5 9 C 16.5 8.171875 15.828125 7.5 15 7.5 L 7.5 7.5 Z M 9 13.5 C 8.171875 13.5 7.5 14.171875 7.5 15 C 7.5 15.828125 8.171875 16.5 9 16.5 L 16.5 16.5 L 16.5 13.5 Z M 9 13.5 "/>
</g>
</defs>
<g id="surface1">
<use xlink:href="#surface5" mask="url(#mask0)"/>
</g>
</svg>
