<?xml version="1.0" encoding="UTF-8"?>
<svg xmlns="http://www.w3.org/2000/svg" xmlns:xlink="http://www.w3.org/1999/xlink" width="24px" height="24px" viewBox="0 0 24 24" version="1.1">
<g id="surface1">
<path style=" stroke:none;fill-rule:nonzero;fill:rgb(33.333334%,34.117648%,32.549021%);fill-opacity:1;" d="M 20.222656 5.988281 C 19.8125 5.996094 19.480469 6.335938 19.484375 6.75 L 19.484375 9.011719 L 16.496094 9.011719 L 16.496094 6.761719 C 16.5 6.339844 16.15625 5.992188 15.734375 6 C 15.320312 6.003906 14.988281 6.34375 14.996094 6.761719 L 14.996094 9.011719 L 12.746094 9.011719 C 11.730469 8.996094 11.730469 10.523438 12.746094 10.511719 L 14.996094 10.511719 L 14.996094 13.511719 L 12.746094 13.511719 C 11.730469 13.496094 11.730469 15.023438 12.746094 15.011719 L 14.996094 15.011719 L 14.996094 17.21875 C 14.980469 18.234375 16.507812 18.234375 16.496094 17.21875 L 16.496094 15.011719 L 19.484375 15.011719 L 19.484375 17.238281 C 19.472656 18.253906 21 18.253906 20.984375 17.238281 L 20.984375 15.011719 L 23.246094 15.011719 C 24.257812 15.023438 24.257812 13.496094 23.246094 13.511719 L 20.984375 13.511719 L 20.984375 10.511719 L 23.253906 10.511719 C 24.269531 10.523438 24.269531 8.996094 23.253906 9.011719 L 20.984375 9.011719 L 20.984375 6.75 C 20.992188 6.328125 20.644531 5.984375 20.222656 5.988281 Z M 0.875 6.011719 C 0.386719 6.003906 -0.015625 6.398438 -0.015625 6.890625 L -0.015625 17.132812 C -0.0117188 17.84375 0.789062 18.261719 1.371094 17.847656 L 8.613281 12.726562 C 9.109375 12.378906 9.109375 11.644531 8.613281 11.292969 L 1.371094 6.171875 C 1.226562 6.070312 1.054688 6.011719 0.875 6.011719 Z M 16.496094 10.511719 L 19.484375 10.511719 L 19.484375 13.511719 L 16.496094 13.511719 Z M 16.496094 10.511719 "/>
</g>
</svg>
