<?xml version="1.0" encoding="UTF-8"?>
<svg xmlns="http://www.w3.org/2000/svg" xmlns:xlink="http://www.w3.org/1999/xlink" width="24px" height="24px" viewBox="0 0 24 24" version="1.1">
<g id="surface1">
<path style="fill-rule:nonzero;fill:rgb(94.117647%,89.019608%,92.54902%);fill-opacity:1;stroke-width:1;stroke-linecap:butt;stroke-linejoin:round;stroke:rgb(90.196079%,0.784314%,70.588237%);stroke-opacity:1;stroke-miterlimit:4;" d="M 4.286458 1.5 L 1.5 4.286458 L 4.286458 7.070312 L 4.286458 5.213542 L 6.143229 5.213542 C 6.890625 5.221354 6.994792 6.143229 7.070312 6.143229 L 7.070312 14.5 L 8.929688 14.5 L 8.929688 6.143229 C 9.005208 6.143229 9.109375 5.221354 9.856771 5.213542 L 11.713542 5.213542 L 11.713542 7.070312 L 14.5 4.286458 L 11.713542 1.5 L 11.713542 3.356771 L 9.940104 3.356771 C 9.911458 3.354167 9.885417 3.354167 9.856771 3.356771 C 9.015625 3.497396 8.421875 3.84375 8 4.244792 C 7.578125 3.84375 6.984375 3.497396 6.143229 3.356771 C 6.114583 3.354167 6.088542 3.354167 6.059896 3.356771 L 4.286458 3.356771 Z M 4.286458 1.5 " transform="matrix(1.5,0,0,1.5,0,0)"/>
</g>
</svg>
