<?xml version="1.0" encoding="UTF-8"?>
<svg xmlns="http://www.w3.org/2000/svg" xmlns:xlink="http://www.w3.org/1999/xlink" width="24px" height="24px" viewBox="0 0 24 24" version="1.1">
<g id="surface1">
<path style=" stroke:none;fill-rule:nonzero;fill:rgb(33.333334%,34.117648%,32.549021%);fill-opacity:1;" d="M 5.25 1.5 L 4.5 4.5 L 1.5 5.25 L 4.5 6 L 5.25 9 L 6 6 L 9 5.25 L 6 4.5 Z M 14.25 1.5 C 13.835938 1.5 13.5 1.835938 13.5 2.25 C 13.5 2.664062 13.835938 3 14.25 3 C 14.664062 3 15 2.664062 15 2.25 C 15 1.835938 14.664062 1.5 14.25 1.5 Z M 12 3 L 9 10.5 L 3 10.5 L 7.183594 14.363281 L 4.5 21 L 12 18 L 12 16.5 L 16.5 16.5 L 16.5 12 L 19.375 12 L 21 10.5 L 15 10.5 Z M 20.25 3 C 19.835938 3 19.5 3.335938 19.5 3.75 C 19.5 4.164062 19.835938 4.5 20.25 4.5 C 20.664062 4.5 21 4.164062 21 3.75 C 21 3.335938 20.664062 3 20.25 3 Z M 15.75 6 C 15.335938 6 15 6.335938 15 6.75 C 15 7.164062 15.335938 7.5 15.75 7.5 C 16.164062 7.5 16.5 7.164062 16.5 6.75 C 16.5 6.335938 16.164062 6 15.75 6 Z M 18 13.5 L 18 15 C 20.339844 17.4375 17.148438 20.246094 15 18 L 13.5 18 L 13.5 19.5 C 14.699219 20.65625 15.953125 21 17.101562 21 L 19.5 21 L 22.5 24 L 24 24 L 24 22.5 L 21 19.5 L 21 17.101562 C 21 15.777344 20.679688 14.699219 19.5 13.5 Z M 18 13.5 "/>
</g>
</svg>
