<?xml version="1.0" encoding="UTF-8"?>
<svg xmlns="http://www.w3.org/2000/svg" xmlns:xlink="http://www.w3.org/1999/xlink" width="24px" height="24px" viewBox="0 0 24 24" version="1.1">
<g id="surface1">
<path style="fill-rule:evenodd;fill:rgb(94.117647%,89.019608%,92.54902%);fill-opacity:1;stroke-width:1;stroke-linecap:butt;stroke-linejoin:miter;stroke:rgb(90.196079%,0.784314%,70.588237%);stroke-opacity:1;stroke-miterlimit:4;" d="M 9.414062 2.5 C 9.270833 2.507812 9.127604 2.645833 9.132812 2.789062 L 9.132812 5.898438 L 5.255208 5.898438 L 5.255208 10.039062 L 6.208333 10.039062 L 6.208333 5.901042 L 8.117188 5.901042 L 8.117188 10.039062 L 9.132812 10.039062 L 9.132812 13.270833 C 9.132812 13.466146 9.377604 13.598958 9.53125 13.432292 L 14.445312 8.106771 C 14.510417 8.028646 14.515625 7.908854 14.447917 7.835938 L 9.604167 2.580729 C 9.549479 2.520833 9.481771 2.497396 9.414062 2.5 Z M 1.674479 5.898438 C 1.575521 5.898438 1.497396 5.979167 1.497396 6.083333 L 1.497396 9.854167 C 1.497396 9.955729 1.575521 10.039062 1.674479 10.039062 L 2.390625 10.039062 L 2.390625 5.898438 Z M 1.674479 5.898438 " transform="matrix(1.5,0,0,1.5,0,0)"/>
</g>
</svg>
