<?xml version="1.0" encoding="UTF-8"?>
<svg xmlns="http://www.w3.org/2000/svg" xmlns:xlink="http://www.w3.org/1999/xlink" width="24px" height="24px" viewBox="0 0 24 24" version="1.1">
<g id="surface1">
<path style=" stroke:none;fill-rule:nonzero;fill:rgb(33.333334%,34.117648%,32.549021%);fill-opacity:1;" d="M 0 1.5 L 0 22.5 L 18 22.5 L 18 21.621094 L 15 18.621094 L 15 19.5 L 3 19.5 L 3 4.5 L 10.5 4.5 L 10.5 4.699219 C 10.851562 4.902344 11.109375 5.242188 11.207031 5.636719 L 11.738281 7.761719 L 13.863281 8.292969 C 14.257812 8.394531 14.59375 8.648438 14.792969 9 L 15 9 L 15 11.378906 L 18 14.378906 L 18 7.5 L 12 1.5 Z M 4.5 6 L 4.5 9 L 4.699219 9 C 4.902344 8.648438 5.242188 8.390625 5.636719 8.292969 L 7.761719 7.761719 L 8.203125 6 Z M 6.75 13.5 C 5.507812 13.5 4.5 14.507812 4.5 15.75 C 4.5 16.992188 5.507812 18 6.75 18 C 7.992188 18 9 16.992188 9 15.75 C 9 14.507812 7.992188 13.5 6.75 13.5 Z M 6.75 13.5 "/>
<path style=" stroke:none;fill-rule:nonzero;fill:rgb(33.333334%,34.117648%,32.549021%);fill-opacity:1;" d="M 9.75 6 L 9 9 L 6 9.75 L 9 10.5 L 9.75 13.5 L 10.5 10.5 L 13.5 9.75 L 10.5 9 Z M 13.5 12 L 12 13.5 L 22.5 24 L 24 22.5 Z M 13.5 12 "/>
</g>
</svg>
