<?xml version="1.0" encoding="UTF-8"?>
<svg xmlns="http://www.w3.org/2000/svg" xmlns:xlink="http://www.w3.org/1999/xlink" width="24px" height="24px" viewBox="0 0 24 24" version="1.1">
<g id="surface1">
<path style=" stroke:none;fill-rule:nonzero;fill:rgb(90.196079%,0.784314%,70.588237%);fill-opacity:1;" d="M 12 3 C 9.347656 3 6.707031 3.871094 4.742188 5.476562 C 2.773438 7.078125 1.5 9.488281 1.5 12 C 1.5 14.511719 2.773438 16.921875 4.742188 18.523438 C 6.707031 20.128906 9.347656 21 12 21 C 14.652344 21 17.292969 20.128906 19.261719 18.523438 C 21.226562 16.921875 22.5 14.511719 22.5 12 L 21.1875 12 C 21.1875 16.140625 17.074219 19.5 12 19.5 C 6.925781 19.5 2.8125 16.140625 2.8125 12 C 2.8125 7.859375 6.925781 4.5 12 4.5 Z M 12 3 "/>
</g>
</svg>
