<?xml version="1.0" encoding="UTF-8"?>
<svg xmlns="http://www.w3.org/2000/svg" xmlns:xlink="http://www.w3.org/1999/xlink" width="24px" height="24px" viewBox="0 0 24 24" version="1.1">
<g id="surface1">
<path style=" stroke:none;fill-rule:nonzero;fill:rgb(33.333334%,34.117648%,32.549021%);fill-opacity:1;" d="M 3 1.5 L 3 4.5 L 21 4.5 L 21 1.5 Z M 12 6 L 7.921875 10.875 C 7.636719 11.171875 7.5 11.535156 7.5 12 L 7.5 13.5 L 9 13.5 C 9.386719 13.5 9.792969 13.304688 10.078125 13.03125 L 10.5 12.472656 L 10.5 21 L 13.5 21 L 13.5 12.472656 L 13.921875 13.03125 C 14.207031 13.304688 14.613281 13.5 15 13.5 L 16.5 13.5 L 16.5 12 C 16.5 11.535156 16.363281 11.171875 16.078125 10.875 C 14.46875 8.75 13.5 8.125 12 6 Z M 12 6 "/>
</g>
</svg>
