<?xml version="1.0" encoding="UTF-8"?>
<svg xmlns="http://www.w3.org/2000/svg" xmlns:xlink="http://www.w3.org/1999/xlink" width="24px" height="24px" viewBox="0 0 24 24" version="1.1">
<g id="surface1">
<path style=" stroke:none;fill-rule:nonzero;fill:rgb(90.196079%,0.784314%,70.588237%);fill-opacity:1;" d="M 1.5 11.980469 C 1.503906 11.640625 1.644531 11.3125 1.882812 11.070312 L 5.820312 7.132812 C 6.195312 6.761719 6.761719 6.648438 7.253906 6.851562 C 7.746094 7.050781 8.0625 7.53125 8.0625 8.0625 L 8.0625 9.375 L 10.6875 9.375 L 10.6875 6.75 C 10.6875 6.027344 11.277344 5.4375 12 5.4375 L 21.1875 5.4375 C 21.910156 5.4375 22.5 6.027344 22.5 6.75 L 22.5 17.25 C 22.5 17.972656 21.910156 18.5625 21.1875 18.5625 L 12 18.5625 C 11.277344 18.5625 10.6875 17.972656 10.6875 17.25 L 10.6875 14.625 L 8.0625 14.625 L 8.0625 15.9375 C 8.0625 16.46875 7.746094 16.949219 7.253906 17.148438 C 6.761719 17.351562 6.195312 17.238281 5.820312 16.867188 L 1.882812 12.929688 C 1.632812 12.675781 1.496094 12.332031 1.5 11.980469 Z M 1.5 11.980469 "/>
<path style=" stroke:none;fill-rule:nonzero;fill:rgb(94.117647%,89.019608%,92.54902%);fill-opacity:1;" d="M 21 6.9375 L 12.1875 6.9375 L 12.1875 9.375 C 12.1875 10.203125 11.515625 10.875 10.6875 10.875 L 8.0625 10.875 C 7.234375 10.875 6.5625 10.203125 6.5625 9.375 L 6.5625 8.511719 L 3.074219 12 L 6.5625 15.488281 L 6.5625 14.625 C 6.5625 13.796875 7.234375 13.125 8.0625 13.125 L 10.6875 13.125 C 11.515625 13.125 12.1875 13.796875 12.1875 14.625 L 12.1875 17.0625 L 21 17.0625 Z M 21 6.9375 "/>
</g>
</svg>
