<?xml version="1.0" encoding="UTF-8"?>
<svg xmlns="http://www.w3.org/2000/svg" xmlns:xlink="http://www.w3.org/1999/xlink" width="24px" height="24px" viewBox="0 0 24 24" version="1.1">
<defs>
<linearGradient id="linear0" gradientUnits="userSpaceOnUse" x1="8" y1="16" x2="7.985352" y2="0.000244" gradientTransform="matrix(1.5,0,0,1.5,0,0)">
<stop offset="0" style="stop-color:rgb(100%,100%,100%);stop-opacity:1;"/>
<stop offset="0.397158" style="stop-color:rgb(100%,100%,100%);stop-opacity:1;"/>
<stop offset="0.799705" style="stop-color:rgb(94.509804%,94.509804%,94.509804%);stop-opacity:1;"/>
<stop offset="0.902344" style="stop-color:rgb(91.764706%,91.764706%,91.764706%);stop-opacity:1;"/>
<stop offset="1" style="stop-color:rgb(87.450981%,87.450981%,87.450981%);stop-opacity:1;"/>
</linearGradient>
</defs>
<g id="surface1">
<path style=" stroke:none;fill-rule:nonzero;fill:url(#linear0);" d="M 12 1.5 L 7.5 3 L 10.5 3 L 10.5 7.5 L 7.5 7.5 L 7.5 16.5 L 10.5 16.5 L 10.5 21 L 7.5 21 L 12 22.5 L 16.5 21 L 13.5 21 L 13.5 16.5 L 16.5 16.5 L 16.5 7.5 L 13.5 7.5 L 13.5 3 L 16.5 3 Z M 12 1.5 "/>
<path style="fill-rule:nonzero;fill:rgb(94.117647%,89.019608%,92.54902%);fill-opacity:1;stroke-width:1;stroke-linecap:butt;stroke-linejoin:round;stroke:rgb(90.196079%,0.784314%,70.588237%);stroke-opacity:1;stroke-miterlimit:4;" d="M 8 1.5 L 5.234375 2.429688 L 7.078125 2.429688 L 7.078125 5.213542 L 5.234375 5.213542 L 5.234375 10.786458 L 7.078125 10.786458 L 7.078125 13.570312 L 5.234375 13.570312 L 8 14.5 L 10.765625 13.570312 L 8.921875 13.570312 L 8.921875 10.786458 L 10.765625 10.786458 L 10.765625 5.213542 L 8.921875 5.213542 L 8.921875 2.429688 L 10.765625 2.429688 Z M 8 1.5 " transform="matrix(1.5,0,0,1.5,0,0)"/>
</g>
</svg>
