<?xml version="1.0" encoding="UTF-8"?>
<svg xmlns="http://www.w3.org/2000/svg" xmlns:xlink="http://www.w3.org/1999/xlink" width="24px" height="24px" viewBox="0 0 24 24" version="1.1">
<g id="surface1">
<path style=" stroke:none;fill-rule:nonzero;fill:rgb(33.333334%,34.117648%,32.549021%);fill-opacity:1;" d="M 1.5 0 L 1.5 22.5 L 18.878906 22.5 L 15 18.621094 L 15 19.5 L 10.5 19.5 L 10.5 16.5 L 12.878906 16.5 L 11.378906 15 L 10.5 15 L 10.5 14.121094 L 10.242188 13.863281 L 9 13.863281 L 9 15 L 4.5 15 L 4.5 12 L 7.828125 12 L 7.761719 11.738281 L 5.636719 11.207031 L 5.636719 10.5 L 4.5 10.5 L 4.5 7.5 L 7.828125 7.5 L 8.203125 6 L 4.5 6 L 4.5 3 L 9 3 L 9 5.636719 L 10.5 5.636719 L 10.5 3 L 15 3 L 15 6 L 11.296875 6 L 11.671875 7.5 L 15 7.5 L 15 10.5 L 14.121094 10.5 L 16.5 12.878906 L 16.5 12 L 21 12 L 21 15 L 18.621094 15 L 20.121094 16.5 L 21 16.5 L 21 17.378906 L 24 20.378906 L 24 0 Z M 16.5 3 L 21 3 L 21 6 L 16.5 6 Z M 9.75 6 L 9 9 L 6 9.75 L 9 10.5 L 9.75 13.5 L 10.5 10.5 L 13.5 9.75 L 10.5 9 Z M 16.5 7.5 L 21 7.5 L 21 10.5 L 16.5 10.5 Z M 13.5 12 L 12 13.5 L 22.5 24 L 24 22.5 Z M 4.5 16.5 L 9 16.5 L 9 19.5 L 4.5 19.5 Z M 4.5 16.5 "/>
</g>
</svg>
