<?xml version="1.0" encoding="UTF-8"?>
<svg xmlns="http://www.w3.org/2000/svg" xmlns:xlink="http://www.w3.org/1999/xlink" width="24px" height="24px" viewBox="0 0 24 24" version="1.1">
<g id="surface1">
<path style=" stroke:none;fill-rule:nonzero;fill:rgb(33.333334%,34.117648%,32.549021%);fill-opacity:1;" d="M 11.25 6 C 10.6875 6 10.199219 6.226562 9.777344 6.601562 L 2.699219 13.011719 L 2.699219 13.019531 C 1.941406 13.726562 1.503906 14.714844 1.5 15.75 C 1.5 17.820312 3.179688 19.5 5.25 19.5 C 7.320312 19.5 9 17.820312 9 15.75 C 9 14.9375 8.738281 14.148438 8.25 13.5 L 11.253906 13.5 C 10.765625 14.148438 10.5 14.9375 10.5 15.75 C 10.5 17.820312 12.179688 19.5 14.25 19.5 C 16.320312 19.5 18 17.820312 18 15.75 C 18.003906 13.964844 16.746094 12.425781 15 12.070312 L 19.695312 7.738281 C 19.921875 7.5 20.046875 7.5 20.25 7.5 L 21 7.5 L 21 8.25 C 21 8.664062 21.335938 9 21.75 9 C 22.164062 9 22.5 8.664062 22.5 8.25 L 22.5 7.5 C 22.5 6.449219 22.265625 6 21 6 L 20.25 6 C 19.6875 6 19.179688 6.226562 18.75 6.601562 L 12.800781 12 L 6.023438 12 L 10.695312 7.738281 C 10.921875 7.5 11.046875 7.5 11.25 7.5 L 12 7.5 L 12 8.25 C 12 8.664062 12.335938 9 12.75 9 C 13.164062 9 13.5 8.664062 13.5 8.25 L 13.5 7.5 C 13.5 6.449219 13.265625 6 12 6 Z M 5.25 13.5 C 6.492188 13.5 7.5 14.507812 7.5 15.75 C 7.5 16.992188 6.492188 18 5.25 18 C 4.007812 18 3 16.992188 3 15.75 C 3 14.507812 4.007812 13.5 5.25 13.5 Z M 14.25 13.5 C 15.492188 13.5 16.5 14.507812 16.5 15.75 C 16.5 16.992188 15.492188 18 14.25 18 C 13.007812 18 12 16.992188 12 15.75 C 12 14.507812 13.007812 13.5 14.25 13.5 Z M 14.25 13.5 "/>
</g>
</svg>
