<?xml version="1.0" encoding="UTF-8"?>
<svg xmlns="http://www.w3.org/2000/svg" xmlns:xlink="http://www.w3.org/1999/xlink" width="24px" height="24px" viewBox="0 0 24 24" version="1.1">
<g id="surface1">
<path style=" stroke:none;fill-rule:nonzero;fill:rgb(33.333334%,34.117648%,32.549021%);fill-opacity:1;" d="M 12 0 C 10.34375 0 9 1.34375 9 3 C 9 4.070312 9.574219 5.058594 10.5 5.59375 L 10.5 9 L 7.5 9 L 7.5 12 L 10.5 12 L 10.5 19.351562 C 7.65625 18.910156 5.210938 17.25 3.929688 14.878906 L 1.5 16.5 L 1.5 16.648438 C 3.601562 20.25 7.625 22.492188 12 22.5 C 16.375 22.492188 20.398438 20.25 22.5 16.648438 L 22.5 16.5 L 20.070312 14.851562 C 18.800781 17.238281 16.355469 18.917969 13.5 19.363281 L 13.5 12 L 16.5 12 L 16.5 9 L 13.5 9 L 13.5 5.59375 C 14.425781 5.058594 15 4.070312 15 3 C 15 1.34375 13.65625 0 12 0 Z M 12 0 "/>
</g>
</svg>
