<?xml version="1.0" encoding="UTF-8"?>
<svg xmlns="http://www.w3.org/2000/svg" xmlns:xlink="http://www.w3.org/1999/xlink" width="24px" height="24px" viewBox="0 0 24 24" version="1.1">
<g id="surface1">
<path style=" stroke:none;fill-rule:nonzero;fill:rgb(90.196079%,0.784314%,70.588237%);fill-opacity:1;" d="M 11.980469 22.5 C 11.640625 22.496094 11.3125 22.355469 11.070312 22.117188 L 7.132812 18.179688 C 6.761719 17.804688 6.648438 17.238281 6.851562 16.746094 C 7.050781 16.253906 7.53125 15.9375 8.0625 15.9375 L 9.375 15.9375 L 9.375 13.3125 L 6.75 13.3125 C 6.027344 13.3125 5.4375 12.722656 5.4375 12 L 5.4375 2.8125 C 5.4375 2.089844 6.027344 1.5 6.75 1.5 L 17.25 1.5 C 17.972656 1.5 18.5625 2.089844 18.5625 2.8125 L 18.5625 12 C 18.5625 12.722656 17.972656 13.3125 17.25 13.3125 L 14.625 13.3125 L 14.625 15.9375 L 15.9375 15.9375 C 16.46875 15.9375 16.949219 16.253906 17.148438 16.746094 C 17.351562 17.238281 17.238281 17.804688 16.867188 18.179688 L 12.929688 22.117188 C 12.675781 22.367188 12.332031 22.503906 11.980469 22.5 Z M 11.980469 22.5 "/>
<path style=" stroke:none;fill-rule:nonzero;fill:rgb(94.117647%,89.019608%,92.54902%);fill-opacity:1;" d="M 6.9375 3 L 6.9375 11.8125 L 9.375 11.8125 C 10.203125 11.8125 10.875 12.484375 10.875 13.3125 L 10.875 15.9375 C 10.875 16.765625 10.203125 17.4375 9.375 17.4375 L 8.511719 17.4375 L 12 20.925781 L 15.488281 17.4375 L 14.625 17.4375 C 13.796875 17.4375 13.125 16.765625 13.125 15.9375 L 13.125 13.3125 C 13.125 12.484375 13.796875 11.8125 14.625 11.8125 L 17.0625 11.8125 L 17.0625 3 Z M 6.9375 3 "/>
</g>
</svg>
