<?xml version="1.0" encoding="UTF-8"?>
<svg xmlns="http://www.w3.org/2000/svg" xmlns:xlink="http://www.w3.org/1999/xlink" width="24px" height="24px" viewBox="0 0 24 24" version="1.1">
<g id="surface1">
<path style=" stroke:none;fill-rule:nonzero;fill:rgb(33.333334%,34.117648%,32.549021%);fill-opacity:1;" d="M 0 4.5 L 0 19.5 L 24 19.5 L 24 4.5 Z M 1.5 6 L 22.5 6 L 22.5 18 L 1.5 18 Z M 10.5 7.5 L 10.5 16.5 L 13.5 16.5 C 15.15625 16.5 16.5 15.15625 16.5 13.5 C 16.5 11.84375 15.15625 10.5 13.5 10.5 L 12 10.5 L 12 7.5 Z M 16.5 7.5 L 16.5 9 L 18 9 L 18 15 L 16.5 15 L 16.5 16.5 L 21 16.5 L 21 15 L 19.5 15 L 19.5 9 L 21 9 L 21 7.5 Z M 4.5 9 L 4.5 10.5 L 7.5 10.5 L 7.5 12 L 5.25 12 C 4.007812 12 3 13.007812 3 14.25 C 3 15.492188 4.007812 16.5 5.25 16.5 L 9 16.5 L 9 10.5 C 9 9.671875 8.328125 9 7.5 9 Z M 12 12 L 13.5 12 C 14.328125 12 15 12.671875 15 13.5 C 15 14.328125 14.328125 15 13.5 15 L 12 15 Z M 5.25 13.5 L 7.5 13.5 L 7.5 15 L 5.25 15 C 4.835938 15 4.5 14.664062 4.5 14.25 C 4.5 13.835938 4.835938 13.5 5.25 13.5 Z M 5.25 13.5 "/>
</g>
</svg>
