<?xml version="1.0" encoding="UTF-8"?>
<svg xmlns="http://www.w3.org/2000/svg" xmlns:xlink="http://www.w3.org/1999/xlink" width="24px" height="24px" viewBox="0 0 24 24" version="1.1">
<g id="surface1">
<path style=" stroke:none;fill-rule:nonzero;fill:rgb(33.333334%,34.117648%,32.549021%);fill-opacity:1;" d="M 10.5 0 L 10.5 4.027344 L 10.078125 3.46875 C 9.792969 3.195312 9.386719 3 9 3 L 7.5 3 L 7.5 4.5 C 7.5 4.964844 7.636719 5.328125 7.921875 5.625 L 12 10.5 C 13.5 8.375 14.46875 7.75 16.078125 5.625 C 16.363281 5.328125 16.5 4.964844 16.5 4.5 L 16.5 3 L 15 3 C 14.664062 3 14.207031 3.195312 13.921875 3.46875 L 13.5 4.027344 L 13.5 0 Z M 12 10.5 L 3 10.5 L 3 13.5 L 21 13.5 L 21 10.5 Z M 12 13.5 L 7.921875 18.375 C 7.636719 18.671875 7.5 19.035156 7.5 19.5 L 7.5 21 L 9 21 C 9.386719 21 9.792969 20.804688 10.078125 20.53125 L 10.5 19.972656 L 10.5 24 L 13.5 24 L 13.5 19.972656 L 13.921875 20.53125 C 14.207031 20.804688 14.613281 21 15 21 L 16.5 21 L 16.5 19.5 C 16.5 19.035156 16.363281 18.671875 16.078125 18.375 C 14.46875 16.25 13.5 15.625 12 13.5 Z M 12 13.5 "/>
</g>
</svg>
