<?xml version="1.0" encoding="UTF-8"?>
<svg xmlns="http://www.w3.org/2000/svg" xmlns:xlink="http://www.w3.org/1999/xlink" width="24px" height="24px" viewBox="0 0 24 24" version="1.1">
<g id="surface1">
<path style=" stroke:none;fill-rule:nonzero;fill:rgb(33.333334%,34.117648%,32.549021%);fill-opacity:1;" d="M 3 1.5 L 3 3 L 6 3 L 6 4.5 L 3 4.5 C 2.171875 4.5 1.5 5.171875 1.5 6 L 1.5 7.5 C 1.5 8.328125 2.171875 9 3 9 L 7.5 9 L 7.5 3 C 7.5 2.171875 6.828125 1.5 6 1.5 Z M 10.5 3 L 10.5 6 L 22.5 6 L 22.5 3 Z M 3 6 L 6 6 L 6 7.5 L 3 7.5 Z M 10.5 7.5 L 10.5 10.5 L 16.5 10.5 L 16.5 7.5 Z M 1.5 13.5 L 1.5 21 L 6 21 C 6.828125 21 7.5 20.328125 7.5 19.5 L 7.5 18 C 7.5 17.171875 6.828125 16.5 6 16.5 L 3 16.5 L 3 13.5 Z M 10.5 15 L 10.5 18 L 22.5 18 L 22.5 15 Z M 3 18 L 6 18 L 6 19.5 L 3 19.5 Z M 10.5 19.5 L 10.5 22.5 L 16.5 22.5 L 16.5 19.5 Z M 10.5 19.5 "/>
</g>
</svg>
