<?xml version="1.0" encoding="UTF-8"?>
<svg xmlns="http://www.w3.org/2000/svg" xmlns:xlink="http://www.w3.org/1999/xlink" width="24px" height="24px" viewBox="0 0 24 24" version="1.1">
<g id="surface1">
<path style=" stroke:none;fill-rule:nonzero;fill:rgb(33.333334%,34.117648%,32.549021%);fill-opacity:1;" d="M 1.5 1.5 L 1.5 18.742188 C 1.785156 16.5 2.847656 15.042969 4.5 13.714844 L 4.5 7.5 L 22.5 7.5 L 22.5 1.5 Z M 12.75 9 C 12.1875 9 11.699219 9.226562 11.277344 9.601562 L 4.199219 16.011719 L 4.199219 16.019531 C 3.441406 16.722656 3.003906 17.714844 3 18.75 C 3 20.820312 4.679688 22.5 6.75 22.5 C 8.820312 22.5 10.5 20.820312 10.5 18.75 C 10.5 17.9375 10.238281 17.148438 9.75 16.5 L 12.753906 16.5 C 12.265625 17.148438 12 17.9375 12 18.75 C 12 20.820312 13.679688 22.5 15.75 22.5 C 17.820312 22.5 19.5 20.820312 19.5 18.75 C 19.503906 16.964844 18.246094 15.425781 16.5 15.070312 L 21.195312 10.738281 C 21.421875 10.5 21.546875 10.5 21.75 10.5 L 22.5 10.5 L 22.5 11.25 C 22.5 11.664062 22.835938 12 23.25 12 C 23.664062 12 24 11.664062 24 11.25 L 24 10.5 C 24 9.449219 23.765625 9 22.5 9 L 21.75 9 C 21.1875 9 20.679688 9.226562 20.25 9.601562 L 14.300781 15 L 7.523438 15 L 12.195312 10.738281 C 12.421875 10.5 12.546875 10.5 12.75 10.5 L 13.5 10.5 L 13.5 11.25 C 13.5 11.664062 13.835938 12 14.25 12 C 14.664062 12 15 11.664062 15 11.25 L 15 10.5 C 15 9.449219 14.765625 9 13.5 9 Z M 20.410156 13.5 L 19.5 14.339844 L 19.5 15.449219 C 20.378906 16.332031 21 17.421875 21 18.753906 C 21 20.21875 20.382812 21.542969 19.402344 22.5 L 22.5 22.5 L 22.5 13.5 Z M 6.75 16.5 C 7.992188 16.5 9 17.507812 9 18.75 C 9 19.992188 7.992188 21 6.75 21 C 5.507812 21 4.5 19.992188 4.5 18.75 C 4.5 17.507812 5.507812 16.5 6.75 16.5 Z M 15.75 16.5 C 16.992188 16.5 18 17.507812 18 18.75 C 18 19.992188 16.992188 21 15.75 21 C 14.507812 21 13.5 19.992188 13.5 18.75 C 13.5 17.507812 14.507812 16.5 15.75 16.5 Z M 1.5 18.75 L 1.5 22.5 L 3.097656 22.5 C 2.117188 21.542969 1.5 20.214844 1.5 18.75 Z M 1.5 18.75 "/>
</g>
</svg>
