<?xml version="1.0" encoding="UTF-8"?>
<svg xmlns="http://www.w3.org/2000/svg" xmlns:xlink="http://www.w3.org/1999/xlink" width="24px" height="24px" viewBox="0 0 24 24" version="1.1">
<g id="surface1">
<path style=" stroke:none;fill-rule:nonzero;fill:rgb(90.196079%,0.784314%,70.588237%);fill-opacity:1;" d="M 4.285156 1.5 C 3.578125 1.5 3 2.089844 3 2.8125 L 3 18.5625 C 3 19.285156 3.578125 19.875 4.285156 19.875 L 14.570312 19.875 L 14.570312 21.1875 C 14.570312 22.355469 15.957031 22.941406 16.765625 22.113281 L 20.625 18.175781 C 20.871094 17.925781 21.003906 17.582031 21 17.230469 C 20.996094 16.890625 20.859375 16.5625 20.625 16.320312 L 16.765625 12.382812 C 15.957031 11.558594 14.570312 12.144531 14.570312 13.3125 L 14.570312 14.625 L 8.144531 14.625 L 8.144531 2.8125 C 8.144531 2.089844 7.566406 1.5 6.855469 1.5 Z M 4.285156 1.5 "/>
<path style=" stroke:none;fill-rule:nonzero;fill:rgb(94.117647%,89.019608%,92.54902%);fill-opacity:1;" d="M 4.46875 3.003906 L 4.46875 18.375 L 14.570312 18.375 C 15.382812 18.375 16.039062 19.046875 16.039062 19.875 L 16.039062 20.734375 L 19.457031 17.25 L 16.039062 13.765625 L 16.039062 14.625 C 16.039062 15.453125 15.382812 16.125 14.570312 16.125 L 8.144531 16.125 C 7.332031 16.125 6.671875 15.453125 6.671875 14.625 L 6.671875 3.003906 Z M 4.46875 3.003906 "/>
</g>
</svg>
