<?xml version="1.0" encoding="UTF-8"?>
<svg xmlns="http://www.w3.org/2000/svg" xmlns:xlink="http://www.w3.org/1999/xlink" width="24px" height="24px" viewBox="0 0 24 24" version="1.1">
<g id="surface1">
<path style=" stroke:none;fill-rule:nonzero;fill:rgb(33.333334%,34.117648%,32.549021%);fill-opacity:1;" d="M 6.023438 2.816406 L 5.382812 5.382812 L 2.816406 6.023438 L 2.816406 7.476562 L 5.382812 8.117188 L 6.023438 10.683594 L 7.476562 10.683594 L 8.117188 8.117188 L 10.683594 7.476562 L 10.683594 6.023438 L 8.117188 5.382812 L 7.476562 2.816406 Z M 12 3 C 11.042969 3.003906 10.089844 3.15625 9.183594 3.460938 L 9.355469 4.144531 L 12.183594 4.851562 L 12.183594 6.007812 C 15.421875 6.105469 17.996094 8.757812 18 12 C 18 12.457031 17.945312 12.910156 17.839844 13.355469 L 20.21875 15.644531 C 20.730469 14.496094 20.996094 13.257812 21 12 C 21 7.03125 16.96875 3 12 3 Z M 11.148438 9 L 9 11.46875 L 19.5 22.058594 L 22.058594 19.5 Z M 3.464844 9.183594 C 3.160156 10.09375 3.003906 11.042969 3 12 L 4.808594 12 L 4.144531 9.355469 Z M 7.5 15 C 7.035156 15 6.671875 15.136719 6.375 15.421875 C 4.25 17.03125 3.625 18 1.5 19.5 L 6.375 23.578125 C 6.671875 23.863281 7.035156 24 7.5 24 L 9 24 L 9 22.5 C 9 22.113281 8.804688 21.707031 8.53125 21.421875 L 7.972656 21 L 12 21 C 13.234375 20.996094 14.457031 20.742188 15.589844 20.246094 L 13.226562 17.863281 C 12.824219 17.953125 12.414062 17.996094 12 18 L 7.972656 18 L 8.53125 17.578125 C 8.804688 17.292969 9 16.886719 9 16.5 L 9 15 Z M 7.5 15 "/>
</g>
</svg>
