<?xml version="1.0" encoding="UTF-8"?>
<svg xmlns="http://www.w3.org/2000/svg" xmlns:xlink="http://www.w3.org/1999/xlink" width="24px" height="24px" viewBox="0 0 24 24" version="1.1">
<g id="surface1">
<path style=" stroke:none;fill-rule:nonzero;fill:rgb(33.333334%,34.117648%,32.549021%);fill-opacity:1;" d="M 3 22.5 L 3 19.5 L 21 19.5 L 21 22.5 Z M 12 18 L 7.921875 13.125 C 7.636719 12.828125 7.5 12.464844 7.5 12 L 7.5 10.5 L 9 10.5 C 9.386719 10.5 9.792969 10.695312 10.078125 10.96875 L 10.5 11.527344 L 10.5 3 L 13.5 3 L 13.5 11.527344 L 13.921875 10.96875 C 14.207031 10.695312 14.613281 10.5 15 10.5 L 16.5 10.5 L 16.5 12 C 16.5 12.464844 16.363281 12.828125 16.078125 13.125 C 14.46875 15.25 13.5 15.875 12 18 Z M 12 18 "/>
</g>
</svg>
