<?xml version="1.0" encoding="UTF-8"?>
<svg xmlns="http://www.w3.org/2000/svg" xmlns:xlink="http://www.w3.org/1999/xlink" width="24px" height="24px" viewBox="0 0 24 24" version="1.1">
<g id="surface1">
<path style=" stroke:none;fill-rule:nonzero;fill:rgb(33.333334%,34.117648%,32.549021%);fill-opacity:1;" d="M 0 1.5 L 0 21 L 4.5 21 C 7.800781 21 10.5 18.300781 10.5 15 C 10.5 11.699219 7.800781 9 4.5 9 L 3 9 L 3 1.5 Z M 15 6 L 15 9 L 19.5 9 C 20.324219 9 21 9.675781 21 10.5 L 21 12 L 16.5 12 C 14.011719 12 12 14.011719 12 16.5 C 12 18.988281 14.011719 21 16.5 21 L 24 21 L 24 10.5 C 24 8.011719 21.988281 6 19.5 6 Z M 3 12 L 4.5 12 C 6.148438 12 7.5 13.351562 7.5 15 C 7.5 16.648438 6.148438 18 4.5 18 L 3 18 Z M 16.5 15 L 21 15 L 21 18 L 16.5 18 C 15.675781 18 15 17.324219 15 16.5 C 15 15.675781 15.675781 15 16.5 15 Z M 16.5 15 "/>
</g>
</svg>
