<?xml version="1.0" encoding="UTF-8"?>
<svg xmlns="http://www.w3.org/2000/svg" xmlns:xlink="http://www.w3.org/1999/xlink" width="24px" height="24px" viewBox="0 0 24 24" version="1.1">
<g id="surface1">
<path style=" stroke:none;fill-rule:nonzero;fill:rgb(33.333334%,34.117648%,32.549021%);fill-opacity:1;" d="M 5.25 0 C 2.351562 0 0 2.351562 0 5.25 C 0 8.148438 2.351562 10.5 5.25 10.5 L 7.5 10.5 L 7.5 13.5 L 5.25 13.5 C 2.351562 13.5 0 15.851562 0 18.75 C 0 21.648438 2.351562 24 5.25 24 C 8.148438 24 10.5 21.648438 10.5 18.75 L 10.5 16.5 L 13.5 16.5 L 13.5 18.75 C 13.5 21.648438 15.851562 24 18.75 24 C 21.648438 24 24 21.648438 24 18.75 C 24 15.851562 21.648438 13.5 18.75 13.5 L 16.5 13.5 L 16.5 10.5 L 18.75 10.5 C 21.648438 10.5 24 8.148438 24 5.25 C 24 2.351562 21.648438 0 18.75 0 C 15.851562 0 13.5 2.351562 13.5 5.25 L 13.5 7.5 L 10.5 7.5 L 10.5 5.25 C 10.5 2.351562 8.148438 0 5.25 0 Z M 5.25 3 C 6.492188 3 7.5 4.007812 7.5 5.25 L 7.5 7.5 L 5.25 7.5 C 4.007812 7.5 3 6.492188 3 5.25 C 3 4.007812 4.007812 3 5.25 3 Z M 18.75 3 C 19.992188 3 21 4.007812 21 5.25 C 21 6.492188 19.992188 7.5 18.75 7.5 L 16.5 7.5 L 16.5 5.25 C 16.5 4.007812 17.507812 3 18.75 3 Z M 10.5 10.5 L 13.5 10.5 L 13.5 13.5 L 10.5 13.5 Z M 5.25 16.5 L 7.5 16.5 L 7.5 18.75 C 7.5 19.992188 6.492188 21 5.25 21 C 4.007812 21 3 19.992188 3 18.75 C 3 17.507812 4.007812 16.5 5.25 16.5 Z M 16.5 16.5 L 18.75 16.5 C 19.992188 16.5 21 17.507812 21 18.75 C 21 19.992188 19.992188 21 18.75 21 C 17.507812 21 16.5 19.992188 16.5 18.75 Z M 16.5 16.5 "/>
</g>
</svg>
