<?xml version="1.0" encoding="UTF-8"?>
<svg xmlns="http://www.w3.org/2000/svg" xmlns:xlink="http://www.w3.org/1999/xlink" width="24px" height="24px" viewBox="0 0 24 24" version="1.1">
<defs>
<linearGradient id="linear0" gradientUnits="userSpaceOnUse" x1="63.999996" y1="121.896683" x2="63.999996" y2="6.103257" gradientTransform="matrix(0.1875,0,0,0.1875,-0.000180037,0.000181446)">
<stop offset="0" style="stop-color:rgb(100%,100%,100%);stop-opacity:1;"/>
<stop offset="0.506438" style="stop-color:rgb(100%,100%,100%);stop-opacity:1;"/>
<stop offset="0.822961" style="stop-color:rgb(94.509804%,94.509804%,94.509804%);stop-opacity:1;"/>
<stop offset="0.90625" style="stop-color:rgb(91.764706%,91.764706%,91.764706%);stop-opacity:1;"/>
<stop offset="1" style="stop-color:rgb(87.450981%,87.450981%,87.450981%);stop-opacity:1;"/>
</linearGradient>
</defs>
<g id="surface1">
<path style=" stroke:none;fill-rule:nonzero;fill:rgb(90.196079%,0.784314%,70.588237%);fill-opacity:1;" d="M 12 4.5 C 9.347656 4.5 6.707031 5.226562 4.742188 6.5625 C 2.777344 7.902344 1.5 9.90625 1.5 12 C 1.5 14.09375 2.777344 16.097656 4.742188 17.4375 C 6.707031 18.773438 9.347656 19.5 12 19.5 C 14.652344 19.5 17.292969 18.773438 19.257812 17.4375 C 21.222656 16.097656 22.5 14.09375 22.5 12 C 22.5 11.578125 22.597656 10.910156 22.5 10.5 L 13.5 10.5 L 13.5 4.5 C 13.066406 4.460938 12.4375 4.5 12 4.5 Z M 12 4.5 "/>
<path style=" stroke:none;fill-rule:nonzero;fill:url(#linear0);" d="M 12 6 C 6.925781 6 3.101562 8.691406 3.101562 12.144531 C 3.101562 15.59375 6.925781 18.035156 12 18.035156 C 17.074219 18.035156 21 15.453125 21 12 L 12 12 Z M 12 6 "/>
</g>
</svg>
