<?xml version="1.0" encoding="UTF-8"?>
<svg xmlns="http://www.w3.org/2000/svg" xmlns:xlink="http://www.w3.org/1999/xlink" width="24px" height="24px" viewBox="0 0 24 24" version="1.1">
<g id="surface1">
<path style=" stroke:none;fill-rule:nonzero;fill:rgb(33.333334%,34.117648%,32.549021%);fill-opacity:1;" d="M 1.5 0 C 0.667969 0 0 0.667969 0 1.5 L 0 13.5 C 0 14.332031 0.667969 15 1.5 15 L 22.5 15 C 23.332031 15 24 14.332031 24 13.5 L 24 1.5 C 24 0.667969 23.332031 0 22.5 0 Z M 13.5 3 L 15 3 L 15 6 L 18 6 C 19.65625 6 21 7.34375 21 9 C 21 10.65625 19.65625 12 18 12 L 14.25 12 C 13.835938 12 13.5 11.664062 13.5 11.25 Z M 4.5 4.5 L 9.75 4.5 C 10.164062 4.5 10.5 4.835938 10.5 5.25 L 10.5 11.25 C 10.5 11.8125 10.175781 12 9.75 12 L 5.25 12 C 4.007812 12 3 10.992188 3 9.75 C 3 8.507812 4.007812 7.5 5.25 7.5 L 9 7.5 L 9 6 L 4.5 6 Z M 15 7.5 L 15 10.5 L 18 10.5 C 18.828125 10.5 19.5 9.828125 19.5 9 C 19.5 8.171875 18.828125 7.5 18 7.5 Z M 5.25 9 C 4.835938 9 4.5 9.335938 4.5 9.75 C 4.5 10.164062 4.835938 10.5 5.25 10.5 L 9 10.5 L 9 9 Z M 5.25 9 "/>
</g>
</svg>
