<?xml version="1.0" encoding="UTF-8"?>
<svg xmlns="http://www.w3.org/2000/svg" xmlns:xlink="http://www.w3.org/1999/xlink" width="24px" height="24px" viewBox="0 0 24 24" version="1.1">
<defs>
<linearGradient id="linear0" gradientUnits="userSpaceOnUse" x1="7.869126" y1="26" x2="165.982788" y2="28.474874" gradientTransform="matrix(0.1875,0,0,0.1875,0.00128092,-0.00128091)">
<stop offset="0" style="stop-color:rgb(100%,100%,100%);stop-opacity:1;"/>
<stop offset="0.397158" style="stop-color:rgb(100%,100%,100%);stop-opacity:1;"/>
<stop offset="0.799705" style="stop-color:rgb(94.509804%,94.509804%,94.509804%);stop-opacity:1;"/>
<stop offset="0.902344" style="stop-color:rgb(91.764706%,91.764706%,91.764706%);stop-opacity:1;"/>
<stop offset="1" style="stop-color:rgb(87.450981%,87.450981%,87.450981%);stop-opacity:1;"/>
</linearGradient>
<linearGradient id="linear1" gradientUnits="userSpaceOnUse" x1="120.345108" y1="55.898434" x2="66.313881" y2="55.655792" gradientTransform="matrix(0.1875,0,0,0.1875,0.001281,-0.00128092)">
<stop offset="0" style="stop-color:rgb(100%,100%,100%);stop-opacity:1;"/>
<stop offset="0.397158" style="stop-color:rgb(100%,100%,100%);stop-opacity:1;"/>
<stop offset="0.799705" style="stop-color:rgb(94.509804%,94.509804%,94.509804%);stop-opacity:1;"/>
<stop offset="0.902344" style="stop-color:rgb(91.764706%,91.764706%,91.764706%);stop-opacity:1;"/>
<stop offset="1" style="stop-color:rgb(87.450981%,87.450981%,87.450981%);stop-opacity:1;"/>
</linearGradient>
<linearGradient id="linear2" gradientUnits="userSpaceOnUse" x1="8" y1="83.612244" x2="99.324768" y2="85.117722" gradientTransform="matrix(0.1875,0,0,0.1875,0.00128094,-0.00128092)">
<stop offset="0" style="stop-color:rgb(100%,100%,100%);stop-opacity:1;"/>
<stop offset="0.397158" style="stop-color:rgb(100%,100%,100%);stop-opacity:1;"/>
<stop offset="0.799705" style="stop-color:rgb(94.509804%,94.509804%,94.509804%);stop-opacity:1;"/>
<stop offset="0.902344" style="stop-color:rgb(91.764706%,91.764706%,91.764706%);stop-opacity:1;"/>
<stop offset="1" style="stop-color:rgb(87.450981%,87.450981%,87.450981%);stop-opacity:1;"/>
</linearGradient>
</defs>
<g id="surface1">
<path style=" stroke:none;fill-rule:nonzero;fill:rgb(90.196079%,0.784314%,70.588237%);fill-opacity:1;" d="M 9.375 1.5 C 9.042969 1.5 8.722656 1.628906 8.480469 1.855469 L 1.5 7.5 L 1.539062 9.035156 C 1.539062 9.035156 3.019531 9.371094 3.757812 9.375 L 14.625 9.375 C 14.972656 9.375 15.308594 9.234375 15.554688 8.988281 L 20.800781 3.738281 C 21.628906 2.914062 21.042969 1.5 19.875 1.5 Z M 9.375 1.5 "/>
<path style=" stroke:none;fill-rule:nonzero;fill:url(#linear0);" d="M 9.375 3 L 21 3 L 15 7.5 L 3.757812 7.5 Z M 9.375 3 "/>
<path style=" stroke:none;fill-rule:nonzero;fill:rgb(90.196079%,0.784314%,70.588237%);fill-opacity:1;" d="M 19.875 1.5 C 19.632812 1.507812 20.597656 2.414062 20.65625 2.902344 C 20.679688 3.089844 21.0625 2.9375 21 3 L 15.011719 8.449219 C 14.769531 8.695312 14.628906 9.027344 14.628906 9.375 L 14.628906 21.183594 C 14.628906 21.78125 14.359375 22.222656 14.828125 22.40625 C 15.277344 22.578125 16.460938 22.511719 16.863281 22.109375 L 22.113281 16.859375 C 22.359375 16.617188 22.496094 16.28125 22.496094 15.9375 L 22.496094 4.125 L 22.5 1.5 Z M 19.875 1.5 "/>
<path style=" stroke:none;fill-rule:nonzero;fill:url(#linear1);" d="M 21 5.25 L 16.5 9 L 16.5 20.25 L 21 15.75 Z M 21 5.25 "/>
<path style=" stroke:none;fill-rule:nonzero;fill:rgb(90.196079%,0.784314%,70.588237%);fill-opacity:1;" d="M 2.816406 8.058594 C 2.089844 8.058594 1.5 7.523438 1.5 8.25 L 1.5 21.183594 C 1.5 21.910156 2.089844 22.5 2.816406 22.5 L 14.625 22.5 C 15.351562 22.5 15.941406 21.910156 15.941406 21.183594 L 15.941406 9.375 C 15.941406 8.648438 15.351562 8.058594 14.625 8.058594 Z M 2.816406 8.058594 "/>
<path style=" stroke:none;fill-rule:nonzero;fill:url(#linear2);" d="M 3 9 L 15 9 L 15 21 L 3 21 Z M 3 9 "/>
</g>
</svg>
