<?xml version="1.0" encoding="UTF-8"?>
<svg xmlns="http://www.w3.org/2000/svg" xmlns:xlink="http://www.w3.org/1999/xlink" width="24px" height="24px" viewBox="0 0 24 24" version="1.1">
<g id="surface1">
<path style=" stroke:none;fill-rule:nonzero;fill:rgb(33.333334%,34.117648%,32.549021%);fill-opacity:1;" d="M 3 1.5 C 1.351562 1.5 0 2.851562 0 4.5 C 0 6.148438 1.351562 7.5 3 7.5 C 4.054688 7.5 5.023438 6.898438 5.550781 6 L 9.601562 6 C 4.5 9.300781 1.5 15 1.5 21 L 1.5 22.5 L 4.5 22.5 L 4.5 21 C 4.5 13.667969 9.800781 7.414062 17.035156 6.207031 C 17.59375 7.015625 18.515625 7.5 19.5 7.5 C 21.148438 7.5 22.5 6.148438 22.5 4.5 C 22.5 2.851562 21.148438 1.5 19.5 1.5 C 18.449219 1.5 17.476562 2.101562 16.949219 3 L 5.550781 3 C 5.023438 2.085938 4.054688 1.515625 3 1.5 Z M 3 3 C 3.828125 3 4.5 3.671875 4.5 4.5 C 4.5 5.328125 3.828125 6 3 6 C 2.171875 6 1.5 5.328125 1.5 4.5 C 1.5 3.671875 2.171875 3 3 3 Z M 19.5 3 C 20.328125 3 21 3.671875 21 4.5 C 21 5.328125 20.328125 6 19.5 6 C 18.671875 6 18 5.328125 18 4.5 L 18 4.351562 C 18.078125 3.582031 18.726562 2.996094 19.5 3 Z M 15 15 L 15 16.5 L 17.25 18.75 L 15 21 L 15 22.5 L 16.5 22.5 L 18.75 20.25 L 21 22.5 L 22.5 22.5 L 22.5 21 L 20.25 18.75 L 22.5 16.5 L 22.5 15 L 21 15 L 18.75 17.25 L 16.5 15 Z M 15 15 "/>
</g>
</svg>
