<?xml version="1.0" encoding="UTF-8"?>
<svg xmlns="http://www.w3.org/2000/svg" xmlns:xlink="http://www.w3.org/1999/xlink" width="24px" height="24px" viewBox="0 0 24 24" version="1.1">
<defs>
<filter id="alpha" filterUnits="objectBoundingBox" x="0%" y="0%" width="100%" height="100%">
  <feColorMatrix type="matrix" in="SourceGraphic" values="0 0 0 0 1 0 0 0 0 1 0 0 0 0 1 0 0 0 1 0"/>
</filter>
<mask id="mask0">
  <g filter="url(#alpha)">
<rect x="0" y="0" width="24" height="24" style="fill:rgb(0%,0%,0%);fill-opacity:0.35;stroke:none;"/>
  </g>
</mask>
<clipPath id="clip1">
  <rect x="0" y="0" width="24" height="24"/>
</clipPath>
<g id="surface5" clip-path="url(#clip1)">
<path style=" stroke:none;fill-rule:nonzero;fill:rgb(33.333334%,34.117648%,32.549021%);fill-opacity:1;" d="M 1.5 6 C 1.511719 11.953125 5.34375 17 10.5 17.851562 L 10.5 15 L 12 15 C 7.859375 15 4.5 10.96875 4.5 6 Z M 12 15 L 13.5 15 L 13.5 17.851562 C 18.65625 17 22.488281 11.953125 22.5 6 L 19.5 6 C 19.5 10.96875 16.140625 15 12 15 Z M 12 15 "/>
</g>
</defs>
<g id="surface1">
<path style=" stroke:none;fill-rule:nonzero;fill:rgb(33.333334%,34.117648%,32.549021%);fill-opacity:1;" d="M 3 13.5 C 1.34375 13.5 0 14.84375 0 16.5 C 0 18.15625 1.34375 19.5 3 19.5 C 4.070312 19.5 5.058594 18.925781 5.59375 18 L 9 18 L 9 19.5 L 15 19.5 L 15 18 L 18.40625 18 C 18.941406 18.925781 19.929688 19.5 21 19.5 C 22.65625 19.5 24 18.15625 24 16.5 C 24 14.84375 22.65625 13.5 21 13.5 C 19.929688 13.5 18.941406 14.074219 18.40625 15 L 15 15 L 15 13.5 L 9 13.5 L 9 15 L 5.59375 15 C 5.058594 14.074219 4.070312 13.5 3 13.5 Z M 3 15 C 3.828125 15 4.5 15.671875 4.5 16.5 C 4.5 17.328125 3.828125 18 3 18 C 2.171875 18 1.5 17.328125 1.5 16.5 C 1.5 15.671875 2.171875 15 3 15 Z M 10.5 15 L 13.5 15 L 13.5 18 L 10.5 18 Z M 21 15 C 21.828125 15 22.5 15.671875 22.5 16.5 C 22.5 17.328125 21.828125 18 21 18 C 20.171875 18 19.5 17.328125 19.5 16.5 C 19.5 15.671875 20.171875 15 21 15 Z M 21 15 "/>
<use xlink:href="#surface5" mask="url(#mask0)"/>
</g>
</svg>
