<?xml version="1.0" encoding="UTF-8"?>
<svg xmlns="http://www.w3.org/2000/svg" xmlns:xlink="http://www.w3.org/1999/xlink" width="24px" height="24px" viewBox="0 0 24 24" version="1.1">
<defs>
<filter id="alpha" filterUnits="objectBoundingBox" x="0%" y="0%" width="100%" height="100%">
  <feColorMatrix type="matrix" in="SourceGraphic" values="0 0 0 0 1 0 0 0 0 1 0 0 0 0 1 0 0 0 1 0"/>
</filter>
<mask id="mask0">
  <g filter="url(#alpha)">
<rect x="0" y="0" width="24" height="24" style="fill:rgb(0%,0%,0%);fill-opacity:0.35;stroke:none;"/>
  </g>
</mask>
<clipPath id="clip1">
  <rect x="0" y="0" width="24" height="24"/>
</clipPath>
<g id="surface5" clip-path="url(#clip1)">
<path style=" stroke:none;fill-rule:nonzero;fill:rgb(33.333334%,34.117648%,32.549021%);fill-opacity:1;" d="M 4.085938 13.5 L 1.5 22.5 L 22.5 22.5 L 22.5 4.5 L 20.851562 6.449219 L 17.101562 5.851562 L 15 6 L 11.160156 6 Z M 4.085938 13.5 "/>
</g>
</defs>
<g id="surface1">
<use xlink:href="#surface5" mask="url(#mask0)"/>
<path style=" stroke:none;fill-rule:nonzero;fill:rgb(33.333334%,34.117648%,32.549021%);fill-opacity:1;" d="M 3 1.5 C 1.34375 1.5 0 2.84375 0 4.5 C 0 6.15625 1.34375 7.5 3 7.5 C 4.054688 7.484375 5.023438 6.914062 5.550781 6 L 9.601562 6 C 4.554688 9.324219 1.511719 14.957031 1.5 21 L 1.5 22.5 L 4.5 22.5 L 4.5 21 C 4.472656 13.644531 9.785156 7.355469 17.039062 6.148438 C 17.585938 6.980469 18.507812 7.484375 19.5 7.5 C 21.15625 7.5 22.5 6.15625 22.5 4.5 C 22.5 2.84375 21.15625 1.5 19.5 1.5 C 18.445312 1.515625 17.476562 2.085938 16.949219 3 L 5.550781 3 C 5.023438 2.085938 4.054688 1.515625 3 1.5 Z M 3 3 C 3.828125 3 4.5 3.671875 4.5 4.5 C 4.5 5.328125 3.828125 6 3 6 C 2.171875 6 1.5 5.328125 1.5 4.5 C 1.5 3.671875 2.171875 3 3 3 Z M 19.5 3 C 20.328125 3 21 3.671875 21 4.5 C 21 5.328125 20.328125 6 19.5 6 C 18.671875 6 18 5.328125 18 4.5 C 17.996094 4.449219 17.996094 4.398438 18 4.351562 C 18.078125 3.582031 18.726562 2.996094 19.5 3 Z M 19.5 3 "/>
</g>
</svg>
