<?xml version="1.0" encoding="UTF-8"?>
<svg xmlns="http://www.w3.org/2000/svg" xmlns:xlink="http://www.w3.org/1999/xlink" width="24px" height="24px" viewBox="0 0 24 24" version="1.1">
<g id="surface1">
<path style=" stroke:none;fill-rule:nonzero;fill:rgb(33.333334%,34.117648%,32.549021%);fill-opacity:1;" d="M 1.5 1.5 L 1.5 7.5 L 3 7.5 L 3 16.5 L 1.5 16.5 L 1.5 22.5 L 7.5 22.5 L 7.5 19.648438 L 16.859375 15 L 22.5 15 L 22.5 9 L 16.859375 9 L 7.5 4.324219 L 7.5 1.5 Z M 3 3 L 6 3 L 6 6 L 3 6 Z M 6 7.5 L 7.15625 7.5 L 16.15625 12 L 7.15625 16.5 L 6 16.5 Z M 18 10.5 L 21 10.5 L 21 13.5 L 18 13.5 Z M 3 18 L 6 18 L 6 21 L 3 21 Z M 3 18 "/>
</g>
</svg>
