<?xml version="1.0" encoding="UTF-8"?>
<svg xmlns="http://www.w3.org/2000/svg" xmlns:xlink="http://www.w3.org/1999/xlink" width="24px" height="24px" viewBox="0 0 24 24" version="1.1">
<g id="surface1">
<path style=" stroke:none;fill-rule:nonzero;fill:rgb(33.333334%,34.117648%,32.549021%);fill-opacity:1;" d="M 16.5 1.5 L 16.5 10.5 C 16.5 11.328125 15.828125 12 15 12 C 14.171875 12 13.5 11.328125 13.5 10.5 L 13.5 1.5 Z M 12 3.550781 L 12 10.5 C 12 12.140625 13.359375 13.5 15 13.5 C 16.640625 13.5 18 12.140625 18 10.5 L 18 8.503906 L 22.207031 14.148438 C 22.691406 14.796875 22.570312 15.726562 21.929688 16.222656 L 14.699219 22.191406 C 14.0625 22.6875 13.15625 22.566406 12.671875 21.917969 L 4.796875 11.34375 C 4.605469 11.089844 4.535156 10.796875 4.527344 10.5 L 4.5 10.5 L 4.503906 15 C 4.503906 15.832031 3.832031 16.5 3.003906 16.5 C 2.171875 16.5 1.503906 15.832031 1.503906 15 L 1.5 10.5 C 1.5 9.382812 1.851562 8.894531 3 8.347656 L 9.617188 5.515625 Z M 5.078125 9.269531 C 4.941406 9.375 4.84375 9.503906 4.757812 9.640625 C 4.847656 9.503906 4.941406 9.375 5.078125 9.269531 Z M 4.667969 9.792969 C 4.636719 9.867188 4.613281 9.945312 4.589844 10.027344 C 4.613281 9.945312 4.632812 9.867188 4.667969 9.792969 Z M 4.667969 9.792969 "/>
</g>
</svg>
