<?xml version="1.0" encoding="UTF-8"?>
<svg xmlns="http://www.w3.org/2000/svg" xmlns:xlink="http://www.w3.org/1999/xlink" width="24px" height="24px" viewBox="0 0 24 24" version="1.1">
<defs>
<filter id="alpha" filterUnits="objectBoundingBox" x="0%" y="0%" width="100%" height="100%">
  <feColorMatrix type="matrix" in="SourceGraphic" values="0 0 0 0 1 0 0 0 0 1 0 0 0 0 1 0 0 0 1 0"/>
</filter>
<mask id="mask0">
  <g filter="url(#alpha)">
<rect x="0" y="0" width="24" height="24" style="fill:rgb(0%,0%,0%);fill-opacity:0.35;stroke:none;"/>
  </g>
</mask>
<clipPath id="clip1">
  <rect x="0" y="0" width="24" height="24"/>
</clipPath>
<g id="surface5" clip-path="url(#clip1)">
<path style=" stroke:none;fill-rule:nonzero;fill:rgb(33.333334%,34.117648%,32.549021%);fill-opacity:1;" d="M 12 3 C 7.03125 3 3 7.03125 3 12 C 3 16.96875 7.03125 21 12 21 C 16.96875 21 21 16.96875 21 12 C 21 7.03125 16.96875 3 12 3 Z M 12 3 "/>
</g>
</defs>
<g id="surface1">
<use xlink:href="#surface5" mask="url(#mask0)"/>
<path style=" stroke:none;fill-rule:nonzero;fill:rgb(33.333334%,34.117648%,32.549021%);fill-opacity:1;" d="M 12 1.5 C 6.199219 1.5 1.5 6.199219 1.5 12 C 1.5 17.800781 6.199219 22.5 12 22.5 C 17.800781 22.5 22.5 17.800781 22.5 12 C 22.5 6.199219 17.800781 1.5 12 1.5 Z M 12 4.5 C 16.175781 4.5 19.5 7.824219 19.5 12 C 19.5 16.175781 16.175781 19.5 12 19.5 C 7.824219 19.5 4.5 16.175781 4.5 12 C 4.5 7.824219 7.824219 4.5 12 4.5 Z M 12 7.5 C 9.515625 7.5 7.5 9.515625 7.5 12 C 7.5 14.484375 9.515625 16.5 12 16.5 C 14.484375 16.5 16.5 14.484375 16.5 12 C 16.5 9.515625 14.484375 7.5 12 7.5 Z M 12 10.5 C 12.863281 10.5 13.5 11.136719 13.5 12 C 13.5 12.863281 12.863281 13.5 12 13.5 C 11.136719 13.5 10.5 12.863281 10.5 12 C 10.5 11.136719 11.136719 10.5 12 10.5 Z M 12 10.5 "/>
</g>
</svg>
