<?xml version="1.0" encoding="UTF-8"?>
<svg xmlns="http://www.w3.org/2000/svg" xmlns:xlink="http://www.w3.org/1999/xlink" width="24px" height="24px" viewBox="0 0 24 24" version="1.1">
<g id="surface1">
<path style=" stroke:none;fill-rule:nonzero;fill:rgb(63.921571%,24.313726%,1.176471%);fill-opacity:1;" d="M 1.5 16.5 L 1.5 22.5 L 7.5 22.5 L 7.5 16.5 Z M 1.5 16.5 "/>
<path style=" stroke:none;fill-rule:nonzero;fill:rgb(33.333334%,34.117648%,32.549021%);fill-opacity:1;" d="M 13.5 0 L 9 4.5 L 15 10.5 L 24 1.5 L 24 0 Z M 7.5 6 C 6.421875 7.960938 5.878906 9.960938 6 12 L 3 15 L 6 15 L 7.5 13.5 C 10.019531 13.488281 11.777344 12.761719 13.5 12 Z M 7.5 6 "/>
<path style=" stroke:none;fill-rule:nonzero;fill:rgb(9.411765%,63.921571%,1.176471%);fill-opacity:1;" d="M 9 16.5 L 9 22.5 L 15 22.5 L 15 16.5 Z M 9 16.5 "/>
<path style=" stroke:none;fill-rule:nonzero;fill:rgb(1.176471%,41.176471%,63.921571%);fill-opacity:1;" d="M 16.5 16.5 L 16.5 22.5 L 22.5 22.5 L 22.5 16.5 Z M 16.5 16.5 "/>
</g>
</svg>
