<?xml version="1.0" encoding="UTF-8"?>
<svg xmlns="http://www.w3.org/2000/svg" xmlns:xlink="http://www.w3.org/1999/xlink" width="24px" height="24px" viewBox="0 0 24 24" version="1.1">
<defs>
<filter id="alpha" filterUnits="objectBoundingBox" x="0%" y="0%" width="100%" height="100%">
  <feColorMatrix type="matrix" in="SourceGraphic" values="0 0 0 0 1 0 0 0 0 1 0 0 0 0 1 0 0 0 1 0"/>
</filter>
<mask id="mask0">
  <g filter="url(#alpha)">
<rect x="0" y="0" width="24" height="24" style="fill:rgb(0%,0%,0%);fill-opacity:0.35;stroke:none;"/>
  </g>
</mask>
<clipPath id="clip1">
  <rect x="0" y="0" width="24" height="24"/>
</clipPath>
<g id="surface5" clip-path="url(#clip1)">
<path style=" stroke:none;fill-rule:nonzero;fill:rgb(33.333334%,34.117648%,32.549021%);fill-opacity:1;" d="M 6 7.5 C 5.167969 7.5 4.5 8.167969 4.5 9 L 4.5 15 C 4.5 15.832031 5.167969 16.5 6 16.5 L 18 16.5 C 18.832031 16.5 19.5 15.832031 19.5 15 L 19.5 9 C 19.5 8.167969 18.832031 7.5 18 7.5 Z M 6 7.5 "/>
</g>
</defs>
<g id="surface1">
<path style=" stroke:none;fill-rule:nonzero;fill:rgb(33.333334%,34.117648%,32.549021%);fill-opacity:1;" d="M 6 4.5 C 3.507812 4.5 1.5 6.507812 1.5 9 L 1.5 15 C 1.5 17.492188 3.507812 19.5 6 19.5 L 18 19.5 C 20.492188 19.5 22.5 17.492188 22.5 15 L 22.5 9 C 22.5 6.507812 20.492188 4.5 18 4.5 Z M 6 7.5 L 18 7.5 C 18.832031 7.5 19.5 8.167969 19.5 9 L 19.5 15 C 19.5 15.832031 18.832031 16.5 18 16.5 L 6 16.5 C 5.167969 16.5 4.5 15.832031 4.5 15 L 4.5 9 C 4.5 8.167969 5.167969 7.5 6 7.5 Z M 6 7.5 "/>
<use xlink:href="#surface5" mask="url(#mask0)"/>
</g>
</svg>
