<?xml version="1.0" encoding="UTF-8"?>
<svg xmlns="http://www.w3.org/2000/svg" xmlns:xlink="http://www.w3.org/1999/xlink" width="24px" height="24px" viewBox="0 0 24 24" version="1.1">
<defs>
<filter id="alpha" filterUnits="objectBoundingBox" x="0%" y="0%" width="100%" height="100%">
  <feColorMatrix type="matrix" in="SourceGraphic" values="0 0 0 0 1 0 0 0 0 1 0 0 0 0 1 0 0 0 1 0"/>
</filter>
<mask id="mask0">
  <g filter="url(#alpha)">
<rect x="0" y="0" width="24" height="24" style="fill:rgb(0%,0%,0%);fill-opacity:0.35;stroke:none;"/>
  </g>
</mask>
<clipPath id="clip1">
  <rect x="0" y="0" width="24" height="24"/>
</clipPath>
<g id="surface5" clip-path="url(#clip1)">
<path style=" stroke:none;fill-rule:nonzero;fill:rgb(33.333334%,34.117648%,32.549021%);fill-opacity:1;" d="M 6 12 L 1.5 16.5 L 9 16.5 L 9 12 Z M 15 12 L 15 16.5 L 18 16.5 L 22.5 12 Z M 6 18 L 1.5 22.5 L 18 22.5 L 22.5 18 L 15 18 L 15 21 L 9 21 L 9 18 Z M 6 18 "/>
</g>
</defs>
<g id="surface1">
<path style=" stroke:none;fill-rule:nonzero;fill:rgb(33.333334%,34.117648%,32.549021%);fill-opacity:1;" d="M 6 1.5 L 1.5 6 L 18 6 L 22.5 1.5 Z M 12 6 L 7.5 9 L 10.5 9 L 10.5 19.5 L 13.5 19.5 L 13.5 9 L 16.5 9 Z M 12 6 "/>
<use xlink:href="#surface5" mask="url(#mask0)"/>
</g>
</svg>
