<?xml version="1.0" encoding="UTF-8"?>
<svg xmlns="http://www.w3.org/2000/svg" xmlns:xlink="http://www.w3.org/1999/xlink" width="24px" height="24px" viewBox="0 0 24 24" version="1.1">
<g id="surface1">
<path style=" stroke:none;fill-rule:nonzero;fill:rgb(33.333334%,34.117648%,32.549021%);fill-opacity:1;" d="M 0 0 L 0 3 L 9 3 C 9.828125 3 10.5 3.671875 10.5 4.5 L 10.5 6.84375 L 10.050781 6.421875 C 9.796875 6.140625 9.398438 6 9 6 L 7.5 6 L 7.5 7.5 C 7.5 7.898438 7.648438 8.296875 7.921875 8.550781 L 10.921875 11.550781 L 11.34375 12 L 12.65625 12 L 13.050781 11.550781 L 16.050781 8.550781 C 16.351562 8.296875 16.5 7.898438 16.5 7.5 L 16.5 6 L 15 6 C 14.601562 6 14.203125 6.140625 13.921875 6.421875 L 13.5 6.84375 L 13.5 3 C 13.5 1.34375 12.15625 0 10.5 0 Z M 15 1.5 L 15 4.5 L 16.5 4.5 C 17.121094 4.5 17.65625 4.878906 17.882812 5.417969 C 17.957031 5.597656 18 5.792969 18 6 L 18 9 C 18 10.507812 18.757812 11.917969 20.019531 12.75 C 18.757812 13.582031 18 14.992188 18 16.5 L 18 19.5 C 18 20.328125 17.328125 21 16.5 21 L 15 21 L 15 24 L 16.5 24 C 16.8125 24 17.117188 23.96875 17.410156 23.910156 C 19.457031 23.488281 21 21.675781 21 19.5 L 21 16.5 C 21 16.292969 21.042969 16.09375 21.117188 15.917969 C 21.34375 15.378906 21.878906 15 22.5 15 L 24 15 L 24 10.5 L 22.5 10.5 C 21.671875 10.5 21 9.828125 21 9 L 21 6 C 21 3.515625 18.984375 1.5 16.5 1.5 Z M 3 6 L 3 9 C 3 9.828125 2.328125 10.5 1.5 10.5 L 0 10.5 L 0 15 L 1.5 15 C 2.328125 15 3 15.671875 3 16.5 L 3 19.5 C 3 21.984375 5.015625 24 7.5 24 L 9 24 L 9 21 L 7.5 21 C 6.671875 21 6 20.328125 6 19.5 L 6 16.5 C 6 16.121094 5.953125 15.753906 5.863281 15.394531 C 5.589844 14.324219 4.925781 13.375 3.980469 12.75 C 5.242188 11.917969 6 10.507812 6 9 L 6 6 Z M 3 6 "/>
</g>
</svg>
