<?xml version="1.0" encoding="UTF-8"?>
<svg xmlns="http://www.w3.org/2000/svg" xmlns:xlink="http://www.w3.org/1999/xlink" width="24px" height="24px" viewBox="0 0 24 24" version="1.1">
<defs>
<filter id="alpha" filterUnits="objectBoundingBox" x="0%" y="0%" width="100%" height="100%">
  <feColorMatrix type="matrix" in="SourceGraphic" values="0 0 0 0 1 0 0 0 0 1 0 0 0 0 1 0 0 0 1 0"/>
</filter>
<mask id="mask0">
  <g filter="url(#alpha)">
<rect x="0" y="0" width="24" height="24" style="fill:rgb(0%,0%,0%);fill-opacity:0.35;stroke:none;"/>
  </g>
</mask>
<clipPath id="clip1">
  <rect x="0" y="0" width="24" height="24"/>
</clipPath>
<g id="surface5" clip-path="url(#clip1)">
<path style=" stroke:none;fill-rule:nonzero;fill:rgb(33.333334%,34.117648%,32.549021%);fill-opacity:1;" d="M 18 9 L 21 4.5 L 6 4.5 L 3 9 Z M 18 9 "/>
</g>
</defs>
<g id="surface1">
<path style=" stroke:none;fill-rule:nonzero;fill:rgb(33.333334%,34.117648%,32.549021%);fill-opacity:1;" d="M 1.5 24 L 6 19.5 L 22.5 19.5 L 18 24 Z M 12 18 L 7.5 15 L 10.5 15 L 10.5 10.5 L 13.5 10.5 L 13.5 15 L 16.5 15 Z M 0 12 L 0 10.5 L 1.5 10.5 L 1.5 12 Z M 3 12 L 3 10.5 L 4.5 10.5 L 4.5 12 Z M 6 12 L 6 10.5 L 7.5 10.5 L 7.5 12 Z M 16.5 12 L 16.5 10.5 L 18 10.5 L 18 12 Z M 19.5 12 L 19.5 10.5 L 21 10.5 L 21 12 Z M 22.5 12 L 22.5 10.5 L 24 10.5 L 24 12 Z M 0 9 L 0 7.5 L 1.5 7.5 L 1.5 9 Z M 22.5 9 L 22.5 7.5 L 24 7.5 L 24 9 Z M 0 6 L 0 4.5 L 1.5 4.5 L 1.5 6 Z M 22.5 6 L 22.5 4.5 L 24 4.5 L 24 6 Z M 0 3 L 0 1.5 L 1.5 1.5 L 1.5 3 Z M 3 3 L 3 1.5 L 4.5 1.5 L 4.5 3 Z M 6 3 L 6 1.5 L 7.5 1.5 L 7.5 3 Z M 9 3 L 9 1.5 L 10.5 1.5 L 10.5 3 Z M 13.5 3 L 13.5 1.5 L 15 1.5 L 15 3 Z M 16.5 3 L 16.5 1.5 L 18 1.5 L 18 3 Z M 19.5 3 L 19.5 1.5 L 21 1.5 L 21 3 Z M 22.5 3 L 22.5 1.5 L 24 1.5 L 24 3 Z M 22.5 3 "/>
<use xlink:href="#surface5" mask="url(#mask0)"/>
</g>
</svg>
