<?xml version="1.0" encoding="UTF-8"?>
<svg xmlns="http://www.w3.org/2000/svg" xmlns:xlink="http://www.w3.org/1999/xlink" width="24px" height="24px" viewBox="0 0 24 24" version="1.1">
<g id="surface1">
<path style=" stroke:none;fill-rule:nonzero;fill:rgb(33.333334%,34.117648%,32.549021%);fill-opacity:1;" d="M 21 0 L 19.5 1.5 L 22.5 4.5 L 24 3 C 23.851562 0.960938 22.648438 0.148438 21 0 Z M 12 1.5 C 6.148438 1.5 1.5 6.148438 1.5 12 C 1.5 17.851562 6.148438 22.5 12 22.5 C 17.851562 22.5 22.5 17.789062 22.5 12 C 22.5 10.351562 22.15625 9 21.523438 7.5 L 19.199219 9.945312 C 19.351562 10.648438 19.5 11.25 19.5 12 C 19.5 16.199219 16.199219 19.5 12 19.5 C 10.351562 19.5 8.851562 18.898438 7.5 18 L 6 18 L 6 16.5 C 5.101562 15.148438 4.5 13.648438 4.5 12 C 4.5 7.800781 7.800781 4.5 12 4.5 C 12.75 4.5 13.351562 4.648438 14.101562 4.800781 L 16.351562 2.476562 C 15 1.859375 13.5 1.5 12 1.5 Z M 18 3 L 7.5 13.5 L 7.5 16.5 L 10.5 16.5 L 21 6 Z M 18 3 "/>
</g>
</svg>
