<?xml version="1.0" encoding="UTF-8"?>
<svg xmlns="http://www.w3.org/2000/svg" xmlns:xlink="http://www.w3.org/1999/xlink" width="24px" height="24px" viewBox="0 0 24 24" version="1.1">
<defs>
<filter id="alpha" filterUnits="objectBoundingBox" x="0%" y="0%" width="100%" height="100%">
  <feColorMatrix type="matrix" in="SourceGraphic" values="0 0 0 0 1 0 0 0 0 1 0 0 0 0 1 0 0 0 1 0"/>
</filter>
<mask id="mask0">
  <g filter="url(#alpha)">
<rect x="0" y="0" width="24" height="24" style="fill:rgb(0%,0%,0%);fill-opacity:0.35;stroke:none;"/>
  </g>
</mask>
<clipPath id="clip1">
  <rect x="0" y="0" width="24" height="24"/>
</clipPath>
<g id="surface5" clip-path="url(#clip1)">
<path style=" stroke:none;fill-rule:nonzero;fill:rgb(33.333334%,34.117648%,32.549021%);fill-opacity:1;" d="M 6 10.5 L 6 21 L 18 21 L 18 10.5 Z M 6 10.5 "/>
</g>
</defs>
<g id="surface1">
<use xlink:href="#surface5" mask="url(#mask0)"/>
<path style=" stroke:none;fill-rule:nonzero;fill:rgb(33.333334%,34.117648%,32.549021%);fill-opacity:1;" d="M 12 0 C 7.03125 0 3 2.6875 3 6 L 3 18 C 3 21.3125 7.03125 24 12 24 C 16.96875 24 21 21.3125 21 18 L 21 6 C 21 2.6875 16.96875 0 12 0 Z M 12 3 C 15.3125 3 18 4.34375 18 6 C 18 7.65625 15.3125 9 12 9 C 8.6875 9 6 7.65625 6 6 C 6 4.34375 8.6875 3 12 3 Z M 6 10.5 C 7.65625 11.472656 9.792969 12.007812 12 12 C 14.207031 12.007812 16.34375 11.472656 18 10.5 L 18 18 C 18 18.449219 17.742188 19.050781 16.699219 19.746094 C 15.65625 20.445312 13.949219 21 12 21 C 10.050781 21 8.34375 20.445312 7.300781 19.746094 C 6.257812 19.050781 6 18.449219 6 18 L 6 10.460938 Z M 6 10.5 "/>
</g>
</svg>
