<?xml version="1.0" encoding="UTF-8"?>
<svg xmlns="http://www.w3.org/2000/svg" xmlns:xlink="http://www.w3.org/1999/xlink" width="24px" height="24px" viewBox="0 0 24 24" version="1.1">
<g id="surface1">
<path style=" stroke:none;fill-rule:nonzero;fill:rgb(33.333334%,34.117648%,32.549021%);fill-opacity:1;" d="M 1.5 1.5 L 9 12 L 9 13.5 L 15 13.5 L 15 12 L 22.5 1.5 L 19.5 1.5 L 14.699219 7.5 L 9.300781 7.5 L 4.5 1.5 Z M 1.5 9 C 1.507812 14.296875 4.558594 18.960938 9 20.476562 L 9 22.5 L 15 22.5 L 15 20.476562 C 19.441406 18.960938 22.492188 14.296875 22.5 9 L 19.5 9 C 19.5 12.578125 17.734375 15.820312 15 17.25 L 15 16.5 L 9 16.5 L 9 17.242188 C 6.269531 15.8125 4.503906 12.574219 4.5 9 Z M 10.5 9 L 13.5 9 L 13.5 12 L 10.5 12 Z M 10.5 18 L 13.5 18 L 13.5 21 L 10.5 21 Z M 10.5 18 "/>
</g>
</svg>
