<?xml version="1.0" encoding="UTF-8"?>
<svg xmlns="http://www.w3.org/2000/svg" xmlns:xlink="http://www.w3.org/1999/xlink" width="24px" height="24px" viewBox="0 0 24 24" version="1.1">
<g id="surface1">
<path style=" stroke:none;fill-rule:nonzero;fill:rgb(33.333334%,34.117648%,32.549021%);fill-opacity:1;" d="M 3 0 C 1.34375 0 -0.03125 1.34375 0 3 L 0 9 L 3 9 L 3 4.5 C 3 3.671875 3.671875 3 4.5 3 L 16.5 3 C 17.328125 3 18 3.671875 18 4.5 L 18 6.84375 L 17.578125 6.421875 C 17.296875 6.140625 16.898438 6 16.5 6 L 15 6 L 15 7.5 C 15 7.898438 15.140625 8.296875 15.421875 8.578125 L 18.84375 12 L 20.15625 12 L 23.578125 8.578125 C 23.859375 8.296875 24 7.898438 24 7.5 L 24 6 L 22.5 6 C 22.101562 6 21.703125 6.140625 21.421875 6.421875 L 21 6.84375 L 21 3 C 21 1.34375 19.65625 0 18 0 Z M 4.777344 4.5 C 4.609375 4.972656 4.5 5.472656 4.5 6 L 4.5 10.5 L 1.5 10.5 L 1.5 15 L 3 15 C 3.828125 15 4.5 15.671875 4.5 16.5 L 4.5 19.5 C 4.5 21.984375 6.515625 24 9 24 L 10.5 24 L 10.5 21 L 9 21 C 8.171875 21 7.5 20.328125 7.5 19.5 L 7.5 16.5 C 7.5 16.121094 7.453125 15.753906 7.363281 15.394531 C 7.089844 14.324219 6.425781 13.375 5.480469 12.75 C 6.742188 11.917969 7.5 10.507812 7.5 9 L 7.5 6 C 7.5 5.171875 8.171875 4.5 9 4.5 Z M 16.152344 13.5 C 15.421875 14.316406 15 15.378906 15 16.5 L 15 19.5 C 15 20.328125 14.328125 21 13.5 21 L 12 21 L 12 24 L 13.5 24 C 15.984375 24 18 21.984375 18 19.5 L 18 16.5 C 18 15.671875 18.671875 15 19.5 15 L 21 15 L 21 13.5 Z M 16.152344 13.5 "/>
</g>
</svg>
