<?xml version="1.0" encoding="UTF-8"?>
<svg xmlns="http://www.w3.org/2000/svg" xmlns:xlink="http://www.w3.org/1999/xlink" width="24px" height="24px" viewBox="0 0 24 24" version="1.1">
<g id="surface1">
<path style=" stroke:none;fill-rule:nonzero;fill:rgb(33.333334%,34.117648%,32.549021%);fill-opacity:1;" d="M 13.5 0 C 11.84375 0 10.5 1.34375 10.5 3 L 10.5 12 L 13.5 12 L 13.5 4.5 C 13.5 3.671875 14.171875 3 15 3 L 19.5 3 C 20.328125 3 21 3.671875 21 4.5 L 21 6.84375 L 20.578125 6.421875 C 20.296875 6.140625 19.898438 6 19.5 6 L 18 6 L 18 7.5 C 18 7.898438 18.140625 8.296875 18.421875 8.578125 L 21.84375 12 L 23.15625 12 L 24 11.15625 L 24 3 C 24 1.34375 22.65625 0 21 0 Z M 7.5 1.5 C 5.015625 1.5 3 3.515625 3 6 L 3 9 C 3 9.828125 2.328125 10.5 1.5 10.5 L 0 10.5 L 0 15 L 1.5 15 C 2.328125 15 3 15.671875 3 16.5 L 3 19.5 C 3 21.984375 5.015625 24 7.5 24 L 9 24 L 9 21 L 7.5 21 C 6.671875 21 6 20.328125 6 19.5 L 6 16.5 C 6 16.121094 5.953125 15.753906 5.863281 15.394531 C 5.589844 14.324219 4.925781 13.375 3.980469 12.75 C 5.242188 11.917969 6 10.507812 6 9 L 6 6 C 6 5.171875 6.671875 4.5 7.5 4.5 L 9 4.5 L 9 1.5 Z M 15 6 L 15 9 C 15 10.507812 15.757812 11.917969 17.019531 12.75 C 15.757812 13.582031 15 14.992188 15 16.5 L 15 19.5 C 15 20.328125 14.328125 21 13.5 21 L 12 21 L 12 24 L 13.5 24 C 15.984375 24 18 21.984375 18 19.5 L 18 16.5 C 18 15.671875 18.671875 15 19.5 15 L 21 15 L 21 13.277344 L 20.363281 12.636719 L 17.363281 9.636719 C 16.753906 9.03125 16.5 8.25 16.5 7.5 L 16.5 6 Z M 15 6 "/>
</g>
</svg>
