<?xml version="1.0" encoding="UTF-8"?>
<svg xmlns="http://www.w3.org/2000/svg" xmlns:xlink="http://www.w3.org/1999/xlink" width="24px" height="24px" viewBox="0 0 24 24" version="1.1">
<defs>
<filter id="alpha" filterUnits="objectBoundingBox" x="0%" y="0%" width="100%" height="100%">
  <feColorMatrix type="matrix" in="SourceGraphic" values="0 0 0 0 1 0 0 0 0 1 0 0 0 0 1 0 0 0 1 0"/>
</filter>
<mask id="mask0">
  <g filter="url(#alpha)">
<rect x="0" y="0" width="24" height="24" style="fill:rgb(0%,0%,0%);fill-opacity:0.35;stroke:none;"/>
  </g>
</mask>
<clipPath id="clip1">
  <rect x="0" y="0" width="24" height="24"/>
</clipPath>
<g id="surface5" clip-path="url(#clip1)">
<path style=" stroke:none;fill-rule:nonzero;fill:rgb(33.333334%,34.117648%,32.549021%);fill-opacity:1;" d="M 10.964844 4.707031 L 19.292969 13.035156 C 18.777344 16.691406 15.808594 19.5 12 19.5 C 7.824219 19.5 4.5 16.175781 4.5 12 C 4.5 8.191406 7.308594 5.222656 10.964844 4.707031 Z M 10.964844 4.707031 "/>
</g>
</defs>
<g id="surface1">
<path style=" stroke:none;fill-rule:nonzero;fill:rgb(33.333334%,34.117648%,32.549021%);fill-opacity:1;" d="M 12 1.5 C 6.199219 1.5 1.5 6.199219 1.5 12 C 1.5 17.800781 6.199219 22.5 12 22.5 C 17.800781 22.5 22.5 17.800781 22.5 12 Z M 10.964844 4.707031 L 19.292969 13.035156 C 18.777344 16.691406 15.808594 19.5 12 19.5 C 7.824219 19.5 4.5 16.175781 4.5 12 C 4.5 8.191406 7.308594 5.222656 10.964844 4.707031 Z M 10.964844 4.707031 "/>
<use xlink:href="#surface5" mask="url(#mask0)"/>
</g>
</svg>
