<?xml version="1.0" encoding="UTF-8"?>
<svg xmlns="http://www.w3.org/2000/svg" xmlns:xlink="http://www.w3.org/1999/xlink" width="24px" height="24px" viewBox="0 0 24 24" version="1.1">
<g id="surface1">
<path style=" stroke:none;fill-rule:nonzero;fill:rgb(90.196079%,0.784314%,70.588237%);fill-opacity:1;" d="M 12.046875 1.628906 C 9.40625 1.628906 6.777344 2.339844 4.804688 3.667969 C 2.828125 5 1.492188 7.042969 1.492188 9.234375 C 1.496094 11.648438 3.117188 13.820312 5.433594 15.171875 L 2.953125 20.371094 C 2.675781 20.953125 2.820312 21.65625 3.300781 22.066406 C 3.785156 22.472656 4.472656 22.476562 4.957031 22.070312 L 11.25 16.789062 C 11.515625 16.804688 11.777344 16.839844 12.042969 16.839844 C 12.042969 16.839844 12.046875 16.839844 12.046875 16.839844 C 14.6875 16.839844 17.316406 16.128906 19.289062 14.796875 C 21.265625 13.46875 22.601562 11.425781 22.601562 9.234375 C 22.601562 7.042969 21.265625 5 19.289062 3.667969 C 17.316406 2.339844 14.6875 1.628906 12.046875 1.628906 Z M 12.046875 1.628906 "/>
<path style=" stroke:none;fill-rule:nonzero;fill:rgb(94.117647%,89.019608%,92.54902%);fill-opacity:1;" d="M 11.90625 3 C 6.921875 3 2.882812 5.789062 2.882812 9.230469 C 2.882812 11.269531 4.328125 13.175781 6.75 14.339844 L 6.75 15.460938 L 4.171875 21 L 10.617188 15.460938 L 10.335938 15.359375 C 10.855469 15.425781 11.378906 15.460938 11.90625 15.460938 C 16.890625 15.460938 20.933594 12.671875 20.933594 9.230469 C 20.933594 5.789062 16.890625 3 11.90625 3 Z M 11.90625 3 "/>
</g>
</svg>
