<?xml version="1.0" encoding="UTF-8"?>
<svg xmlns="http://www.w3.org/2000/svg" xmlns:xlink="http://www.w3.org/1999/xlink" width="24px" height="24px" viewBox="0 0 24 24" version="1.1">
<defs>
<filter id="alpha" filterUnits="objectBoundingBox" x="0%" y="0%" width="100%" height="100%">
  <feColorMatrix type="matrix" in="SourceGraphic" values="0 0 0 0 1 0 0 0 0 1 0 0 0 0 1 0 0 0 1 0"/>
</filter>
<mask id="mask0">
  <g filter="url(#alpha)">
<rect x="0" y="0" width="24" height="24" style="fill:rgb(0%,0%,0%);fill-opacity:0.99;stroke:none;"/>
  </g>
</mask>
<clipPath id="clip1">
  <rect x="0" y="0" width="24" height="24"/>
</clipPath>
<g id="surface5" clip-path="url(#clip1)">
<path style=" stroke:none;fill-rule:nonzero;fill:rgb(90.196079%,0.784314%,70.588237%);fill-opacity:0.992157;" d="M 6.75 12.683594 C 5.738281 12.683594 4.199219 13.265625 3.652344 14.023438 C 3.101562 14.785156 2.816406 15.0625 2.816406 16.089844 L 2.816406 16.773438 C 2.816406 17.800781 3.105469 18.761719 3.652344 19.519531 C 4.203125 20.28125 5.738281 20.863281 6.753906 20.863281 L 6.75 19.5 L 6.753906 19.5 C 5.664062 19.5 4.128906 18.285156 4.128906 16.773438 L 4.128906 16.089844 C 4.128906 14.578125 5.660156 14.046875 6.75 14.046875 Z M 6.75 12.683594 "/>
</g>
<mask id="mask1">
  <g filter="url(#alpha)">
<rect x="0" y="0" width="24" height="24" style="fill:rgb(0%,0%,0%);fill-opacity:0.99;stroke:none;"/>
  </g>
</mask>
<clipPath id="clip2">
  <rect x="0" y="0" width="24" height="24"/>
</clipPath>
<g id="surface8" clip-path="url(#clip2)">
<path style=" stroke:none;fill-rule:nonzero;fill:rgb(90.196079%,0.784314%,70.588237%);fill-opacity:1;" d="M 4.125 4.5 L 17.25 4.5 L 17.25 5.863281 L 4.125 5.863281 Z M 4.125 4.5 "/>
</g>
<mask id="mask2">
  <g filter="url(#alpha)">
<rect x="0" y="0" width="24" height="24" style="fill:rgb(0%,0%,0%);fill-opacity:0.99;stroke:none;"/>
  </g>
</mask>
<clipPath id="clip3">
  <rect x="0" y="0" width="24" height="24"/>
</clipPath>
<g id="surface11" clip-path="url(#clip3)">
<path style=" stroke:none;fill-rule:nonzero;fill:rgb(90.196079%,0.784314%,70.588237%);fill-opacity:1;" d="M 17.25 12.683594 L 6.746094 12.683594 L 6.75 14.046875 L 17.253906 14.046875 Z M 17.25 12.683594 "/>
</g>
<mask id="mask3">
  <g filter="url(#alpha)">
<rect x="0" y="0" width="24" height="24" style="fill:rgb(0%,0%,0%);fill-opacity:0.99;stroke:none;"/>
  </g>
</mask>
<clipPath id="clip4">
  <rect x="0" y="0" width="24" height="24"/>
</clipPath>
<g id="surface14" clip-path="url(#clip4)">
<path style=" stroke:none;fill-rule:nonzero;fill:rgb(90.196079%,0.784314%,70.588237%);fill-opacity:1;" d="M 6.75 19.5 L 18.5625 19.5 L 18.5625 20.863281 L 6.75 20.863281 Z M 6.75 19.5 "/>
</g>
<mask id="mask4">
  <g filter="url(#alpha)">
<rect x="0" y="0" width="24" height="24" style="fill:rgb(0%,0%,0%);fill-opacity:0.99;stroke:none;"/>
  </g>
</mask>
<clipPath id="clip5">
  <rect x="0" y="0" width="24" height="24"/>
</clipPath>
<g id="surface17" clip-path="url(#clip5)">
<path style=" stroke:none;fill-rule:nonzero;fill:rgb(90.196079%,0.784314%,70.588237%);fill-opacity:0.992157;" d="M 17.25 4.5 L 17.25 5.863281 C 18.339844 5.863281 19.875 7.078125 19.875 8.589844 L 19.875 9.273438 C 19.875 10.78125 18.339844 12.679688 17.25 12.683594 L 17.253906 14.046875 C 18.265625 14.042969 19.800781 13.460938 20.347656 12.703125 C 20.898438 11.941406 21.1875 10.300781 21.1875 9.273438 L 21.1875 8.589844 C 21.1875 7.5625 20.898438 6.601562 20.347656 5.84375 C 19.800781 5.082031 18.265625 4.5 17.25 4.5 Z M 17.25 4.5 "/>
</g>
<mask id="mask5">
  <g filter="url(#alpha)">
<rect x="0" y="0" width="24" height="24" style="fill:rgb(0%,0%,0%);fill-opacity:0.99;stroke:none;"/>
  </g>
</mask>
<clipPath id="clip6">
  <rect x="0" y="0" width="24" height="24"/>
</clipPath>
<g id="surface20" clip-path="url(#clip6)">
<path style=" stroke:none;fill-rule:nonzero;fill:rgb(61.56863%,22.745098%,60.784316%);fill-opacity:1;" d="M 8.066406 4.78125 C 8.066406 6.597656 6.597656 8.066406 4.78125 8.066406 C 2.96875 8.066406 1.5 6.597656 1.5 4.78125 C 1.5 2.96875 2.96875 1.5 4.78125 1.5 C 6.597656 1.5 8.066406 2.96875 8.066406 4.78125 Z M 8.066406 4.78125 "/>
</g>
</defs>
<g id="surface1">
<use xlink:href="#surface5" mask="url(#mask0)"/>
<use xlink:href="#surface8" mask="url(#mask1)"/>
<use xlink:href="#surface11" mask="url(#mask2)"/>
<use xlink:href="#surface14" mask="url(#mask3)"/>
<use xlink:href="#surface17" mask="url(#mask4)"/>
<use xlink:href="#surface20" mask="url(#mask5)"/>
<path style=" stroke:none;fill-rule:nonzero;fill:rgb(61.56863%,22.745098%,60.784316%);fill-opacity:1;" d="M 22.5 17.25 L 17.25 17.25 L 17.25 22.5 L 22.5 22.5 Z M 22.5 17.25 "/>
</g>
</svg>
