<?xml version="1.0" encoding="UTF-8"?>
<svg xmlns="http://www.w3.org/2000/svg" xmlns:xlink="http://www.w3.org/1999/xlink" width="24px" height="24px" viewBox="0 0 24 24" version="1.1">
<g id="surface1">
<path style=" stroke:none;fill-rule:nonzero;fill:rgb(94.117647%,89.019608%,92.54902%);fill-opacity:1;" d="M 9 3 L 21 3 L 21 15 L 9 15 Z M 9 3 "/>
<path style=" stroke:none;fill-rule:nonzero;fill:rgb(90.196079%,0.784314%,70.588237%);fill-opacity:1;" d="M 8.441406 3 C 7.925781 3 7.503906 3.421875 7.503906 3.9375 L 7.503906 17.070312 C 7.503906 17.589844 7.925781 18.007812 8.441406 18.007812 L 21.558594 18.007812 C 22.074219 18.007812 22.496094 17.589844 22.496094 17.070312 L 22.496094 3.9375 C 22.496094 3.421875 22.074219 3 21.558594 3 Z M 8.441406 3 "/>
<path style=" stroke:none;fill-rule:nonzero;fill:rgb(94.117647%,89.019608%,92.54902%);fill-opacity:1;" d="M 9.003906 4.5 L 21.003906 4.5 L 21.003906 16.5 L 9.003906 16.5 Z M 9.003906 4.5 "/>
<path style=" stroke:none;fill-rule:nonzero;fill:rgb(90.196079%,0.784314%,70.588237%);fill-opacity:1;" d="M 7.503906 7.5 L 1.503906 21 L 3.003906 21 L 9.003906 7.5 Z M 7.503906 7.5 "/>
</g>
</svg>
