<?xml version="1.0" encoding="UTF-8"?>
<svg xmlns="http://www.w3.org/2000/svg" xmlns:xlink="http://www.w3.org/1999/xlink" width="24px" height="24px" viewBox="0 0 24 24" version="1.1">
<defs>
<filter id="alpha" filterUnits="objectBoundingBox" x="0%" y="0%" width="100%" height="100%">
  <feColorMatrix type="matrix" in="SourceGraphic" values="0 0 0 0 1 0 0 0 0 1 0 0 0 0 1 0 0 0 1 0"/>
</filter>
<mask id="mask0">
  <g filter="url(#alpha)">
<rect x="0" y="0" width="24" height="24" style="fill:rgb(0%,0%,0%);fill-opacity:0.497908;stroke:none;"/>
  </g>
</mask>
<clipPath id="clip1">
  <rect x="0" y="0" width="24" height="24"/>
</clipPath>
<g id="surface5" clip-path="url(#clip1)">
<path style=" stroke:none;fill-rule:nonzero;fill:rgb(90.196079%,0.784314%,70.588237%);fill-opacity:1;" d="M 4.757812 4.609375 L 6.21875 4.609375 L 6.21875 6.070312 L 4.757812 6.070312 Z M 4.757812 4.609375 "/>
</g>
<mask id="mask1">
  <g filter="url(#alpha)">
<rect x="0" y="0" width="24" height="24" style="fill:rgb(0%,0%,0%);fill-opacity:0.497908;stroke:none;"/>
  </g>
</mask>
<clipPath id="clip2">
  <rect x="0" y="0" width="24" height="24"/>
</clipPath>
<g id="surface8" clip-path="url(#clip2)">
<path style=" stroke:none;fill-rule:nonzero;fill:rgb(90.196079%,0.784314%,70.588237%);fill-opacity:1;" d="M 17.925781 4.609375 L 19.390625 4.609375 L 19.390625 6.070312 L 17.925781 6.070312 Z M 17.925781 4.609375 "/>
</g>
<mask id="mask2">
  <g filter="url(#alpha)">
<rect x="0" y="0" width="24" height="24" style="fill:rgb(0%,0%,0%);fill-opacity:0.740586;stroke:none;"/>
  </g>
</mask>
<clipPath id="clip3">
  <rect x="0" y="0" width="24" height="24"/>
</clipPath>
<g id="surface11" clip-path="url(#clip3)">
<path style=" stroke:none;fill-rule:nonzero;fill:rgb(90.196079%,0.784314%,70.588237%);fill-opacity:1;" d="M 4.757812 13.386719 L 6.21875 13.386719 L 6.21875 14.851562 L 4.757812 14.851562 Z M 4.757812 13.386719 "/>
</g>
<mask id="mask3">
  <g filter="url(#alpha)">
<rect x="0" y="0" width="24" height="24" style="fill:rgb(0%,0%,0%);fill-opacity:0.456067;stroke:none;"/>
  </g>
</mask>
<clipPath id="clip4">
  <rect x="0" y="0" width="24" height="24"/>
</clipPath>
<g id="surface14" clip-path="url(#clip4)">
<path style=" stroke:none;fill-rule:nonzero;fill:rgb(90.196079%,0.784314%,70.588237%);fill-opacity:0.672489;" d="M 15.054688 9.730469 C 15.054688 11.753906 13.71875 13.390625 12.074219 13.390625 C 10.425781 13.390625 9.089844 11.753906 9.089844 9.730469 C 9.089844 7.710938 10.425781 6.070312 12.074219 6.070312 C 13.71875 6.070312 15.054688 7.710938 15.054688 9.730469 Z M 15.054688 9.730469 "/>
</g>
<clipPath id="clip5">
  <path d="M 9 11 L 21 11 L 21 17 L 9 17 Z M 9 11 "/>
</clipPath>
<clipPath id="clip6">
  <path d="M 15 11.441406 C 11.898438 11.441406 9.386719 12.59375 9.386719 14.019531 C 9.386719 14.1875 9.421875 14.351562 9.488281 14.511719 C 9.492188 14.523438 9.496094 14.53125 9.5 14.542969 C 9.5 14.542969 9.503906 14.546875 9.503906 14.546875 C 10.136719 15.675781 12.355469 16.507812 15 16.507812 C 17.644531 16.507812 19.863281 15.675781 20.492188 14.546875 C 20.5 14.535156 20.503906 14.523438 20.511719 14.511719 C 20.578125 14.351562 20.617188 14.1875 20.617188 14.019531 C 20.617188 12.59375 18.101562 11.441406 15 11.441406 Z M 15 11.441406 "/>
</clipPath>
</defs>
<g id="surface1">
<path style="fill-rule:nonzero;fill:rgb(94.117647%,89.019608%,92.54902%);fill-opacity:1;stroke-width:0.25;stroke-linecap:round;stroke-linejoin:round;stroke:rgb(80.392158%,61.56863%,79.215688%);stroke-opacity:1;stroke-miterlimit:4;" d="M 1.000928 1.000953 L 15.000814 1.000953 L 15.000814 10.998965 L 1.000928 10.998965 Z M 1.000928 1.000953 " transform="matrix(1.463182,0,0,1.463182,0.367492,0.219017)"/>
<path style=" stroke:none;fill-rule:nonzero;fill:rgb(61.56863%,22.745098%,60.784316%);fill-opacity:0.415686;" d="M 4.195312 3.160156 C 3.695312 3.160156 3.304688 3.574219 3.304688 4.085938 L 3.34375 13.925781 C 3.34375 14.4375 3.730469 14.851562 4.230469 14.851562 L 20.121094 14.851562 L 19.96875 14.851562 C 19.46875 14.851562 20.875 14.4375 20.875 13.925781 L 20.835938 4.085938 C 20.835938 3.574219 20.433594 3.160156 19.933594 3.160156 Z M 8.414062 4.609375 L 15.730469 4.609375 C 15.730469 5.925781 18.101562 8.265625 19.390625 8.265625 L 19.390625 9.730469 C 17.195312 9.730469 15.730469 11.925781 15.730469 13.386719 L 8.414062 13.386719 C 8.410156 12.222656 6.953125 9.730469 4.757812 9.730469 L 4.757812 8.265625 C 6.953125 8.265625 8.359375 5.601562 8.414062 4.609375 Z M 8.414062 4.609375 "/>
<use xlink:href="#surface5" mask="url(#mask0)"/>
<use xlink:href="#surface8" mask="url(#mask1)"/>
<use xlink:href="#surface11" mask="url(#mask2)"/>
<use xlink:href="#surface14" mask="url(#mask3)"/>
<path style="fill-rule:nonzero;fill:rgb(95.294118%,71.764708%,85.09804%);fill-opacity:1;stroke-width:0.25;stroke-linecap:round;stroke-linejoin:round;stroke:rgb(61.56863%,22.745098%,60.784316%);stroke-opacity:1;stroke-miterlimit:4;" d="M 4.938472 11.85447 L 4.938472 12.429869 C 4.938472 13.803402 7.163171 14.914425 9.904933 14.914425 C 12.649346 14.914425 14.874045 13.803402 14.874045 12.429869 L 14.874045 11.85447 Z M 4.938472 11.85447 " transform="matrix(1.473163,0,0,1.473163,0.408419,0.391901)"/>
<path style="fill-rule:nonzero;fill:rgb(95.294118%,71.764708%,85.09804%);fill-opacity:1;stroke-width:0.25;stroke-linecap:round;stroke-linejoin:round;stroke:rgb(61.56863%,22.745098%,60.784316%);stroke-opacity:1;stroke-miterlimit:4;" d="M 4.938472 10.854814 L 4.938472 11.430213 C 4.938472 12.801094 7.163171 13.914769 9.904933 13.914769 C 12.649346 13.914769 14.874045 12.801094 14.874045 11.430213 L 14.874045 10.854814 Z M 4.938472 10.854814 " transform="matrix(1.473163,0,0,1.473163,0.408419,0.391901)"/>
<path style="fill-rule:nonzero;fill:rgb(95.294118%,71.764708%,85.09804%);fill-opacity:1;stroke-width:0.25;stroke-linecap:round;stroke-linejoin:round;stroke:rgb(61.56863%,22.745098%,60.784316%);stroke-opacity:1;stroke-miterlimit:4;" d="M 4.938472 9.855158 L 4.938472 10.430557 C 4.938472 11.801438 7.163171 12.915113 9.904933 12.915113 C 12.649346 12.915113 14.874045 11.801438 14.874045 10.430557 L 14.874045 9.855158 Z M 4.938472 9.855158 " transform="matrix(1.473163,0,0,1.473163,0.408419,0.391901)"/>
<path style="fill-rule:nonzero;fill:rgb(87.450981%,16.470589%,72.549021%);fill-opacity:1;stroke-width:0.25;stroke-linecap:butt;stroke-linejoin:miter;stroke:rgb(61.56863%,22.745098%,60.784316%);stroke-opacity:1;stroke-miterlimit:4;" d="M 14.874045 9.483933 C 14.874045 10.857466 12.649346 11.968489 9.904933 11.968489 C 7.160519 11.968489 4.93582 10.857466 4.93582 9.483933 C 4.93582 8.113052 7.160519 6.999377 9.904933 6.999377 C 12.649346 6.999377 14.874045 8.113052 14.874045 9.483933 Z M 14.874045 9.483933 " transform="matrix(1.473163,0,0,1.473163,0.408419,0.391901)"/>
<g clip-path="url(#clip5)" clip-rule="nonzero">
<g clip-path="url(#clip6)" clip-rule="nonzero">
<path style="fill-rule:nonzero;fill:rgb(61.56863%,22.745098%,60.784316%);fill-opacity:1;stroke-width:1.832986;stroke-linecap:butt;stroke-linejoin:miter;stroke:rgb(94.117647%,89.019608%,92.54902%);stroke-opacity:1;stroke-miterlimit:4;" d="M -39.022683 905.898788 C -54.459187 905.898788 -67.368303 911.945076 -67.368303 919.041202 C -67.368303 919.877184 -67.19333 920.693724 -66.862826 921.490823 C -66.843384 921.549147 -66.823943 921.58803 -66.804501 921.646355 C -66.78506 921.646355 -66.78506 921.665796 -66.765618 921.665796 C -63.635547 927.284372 -52.184538 931.717021 -39.022683 931.717021 C -25.860828 931.717021 -14.507027 927.284372 -11.376955 921.665796 C -11.338072 921.607472 -11.318631 921.549147 -11.279748 921.490823 C -10.968685 920.693724 -10.754829 919.877184 -10.754829 919.041202 C -10.754829 911.945076 -23.586179 905.898788 -39.022683 905.898788 Z M -39.022683 905.898788 " transform="matrix(0.200924,0,0,0.200924,22.84059,-170.637811)"/>
</g>
</g>
</g>
</svg>
