<?xml version="1.0" encoding="UTF-8"?>
<svg xmlns="http://www.w3.org/2000/svg" xmlns:xlink="http://www.w3.org/1999/xlink" width="24px" height="24px" viewBox="0 0 24 24" version="1.1">
<g id="surface1">
<path style=" stroke:none;fill-rule:nonzero;fill:rgb(33.333334%,34.117648%,32.549021%);fill-opacity:1;" d="M 12 1.5 C 6.199219 1.5 1.5 6.199219 1.5 12 C 1.5 17.800781 6.199219 22.5 12 22.5 C 17.800781 22.5 22.5 17.800781 22.5 12 C 22.5 6.199219 17.800781 1.5 12 1.5 Z M 7.5 7.5 L 9.621094 7.5 L 12 9.878906 L 14.378906 7.5 L 16.5 7.5 L 16.5 9.621094 L 14.121094 12 L 16.5 14.378906 L 16.5 16.5 L 14.378906 16.5 L 12 14.121094 L 9.621094 16.5 L 7.5 16.5 L 7.5 14.378906 L 9.878906 12 L 7.5 9.621094 Z M 7.5 7.5 "/>
</g>
</svg>
