<?xml version="1.0" encoding="UTF-8"?>
<svg xmlns="http://www.w3.org/2000/svg" xmlns:xlink="http://www.w3.org/1999/xlink" width="24px" height="24px" viewBox="0 0 24 24" version="1.1">
<defs>
<filter id="alpha" filterUnits="objectBoundingBox" x="0%" y="0%" width="100%" height="100%">
  <feColorMatrix type="matrix" in="SourceGraphic" values="0 0 0 0 1 0 0 0 0 1 0 0 0 0 1 0 0 0 1 0"/>
</filter>
<mask id="mask0">
  <g filter="url(#alpha)">
<rect x="0" y="0" width="24" height="24" style="fill:rgb(0%,0%,0%);fill-opacity:0.35;stroke:none;"/>
  </g>
</mask>
<clipPath id="clip1">
  <rect x="0" y="0" width="24" height="24"/>
</clipPath>
<g id="surface5" clip-path="url(#clip1)">
<path style=" stroke:none;fill-rule:nonzero;fill:rgb(33.333334%,34.117648%,32.549021%);fill-opacity:1;" d="M 4.5 4.5 C 3.671875 4.5 3 5.171875 3 6 C 3 6.828125 3.671875 7.5 4.5 7.5 C 5.328125 7.5 6 6.828125 6 6 C 6 5.171875 5.328125 4.5 4.5 4.5 Z M 19.5 18 C 18.671875 18 18 18.671875 18 19.5 C 18 20.328125 18.671875 21 19.5 21 C 20.328125 21 21 20.328125 21 19.5 C 21 18.671875 20.328125 18 19.5 18 Z M 19.5 18 "/>
</g>
</defs>
<g id="surface1">
<path style=" stroke:none;fill-rule:nonzero;fill:rgb(33.333334%,34.117648%,32.549021%);fill-opacity:1;" d="M 4.5 1.5 C 2.015625 1.5 0 3.515625 0 6 C 0 8.484375 2.015625 10.5 4.5 10.5 C 6.40625 10.5 8.105469 9.296875 8.738281 7.5 C 8.828125 7.5 8.910156 7.5 9 7.5 C 11.363281 7.503906 13.871094 7.496094 15.863281 7.5 C 11.523438 10.5 7.929688 13.5 5.140625 16.527344 C 4.570312 17.082031 4.050781 17.5625 3.964844 18.566406 C 3.925781 19.070312 4.132812 19.683594 4.457031 20.050781 C 4.785156 20.417969 5.132812 20.621094 5.472656 20.714844 C 6.507812 21 8.238281 21.023438 10.332031 21 C 11.289062 20.988281 13.488281 20.996094 15.261719 21 C 15.898438 22.796875 17.59375 23.996094 19.5 24 C 21.984375 24 24 21.984375 24 19.5 C 24 17.015625 21.984375 15 19.5 15 C 17.59375 15 15.894531 16.203125 15.261719 18 C 12.882812 18.003906 9.871094 18.011719 8.195312 18 C 10.5 14.554688 15 12 18.871094 8.984375 C 19.445312 8.441406 19.929688 7.992188 20.09375 7.070312 C 20.175781 6.609375 20.0625 5.992188 19.765625 5.574219 C 19.46875 5.160156 19.105469 4.9375 18.777344 4.808594 C 18 4.5 16.1875 4.476562 14.300781 4.5 C 12.832031 4.519531 10.921875 4.503906 9 4.5 C 8.90625 4.5 8.832031 4.5 8.738281 4.5 C 8.101562 2.703125 6.40625 1.503906 4.5 1.5 Z M 4.5 4.5 C 5.328125 4.5 6 5.171875 6 6 C 6 6.828125 5.328125 7.5 4.5 7.5 C 3.671875 7.5 3 6.828125 3 6 C 3 5.171875 3.671875 4.5 4.5 4.5 Z M 19.5 18 C 20.328125 18 21 18.671875 21 19.5 C 21 20.328125 20.328125 21 19.5 21 C 18.671875 21 18 20.328125 18 19.5 C 18 18.671875 18.671875 18 19.5 18 Z M 19.5 18 "/>
<use xlink:href="#surface5" mask="url(#mask0)"/>
</g>
</svg>
