<?xml version="1.0" encoding="UTF-8"?>
<svg xmlns="http://www.w3.org/2000/svg" xmlns:xlink="http://www.w3.org/1999/xlink" width="24px" height="24px" viewBox="0 0 24 24" version="1.1">
<defs>
<filter id="alpha" filterUnits="objectBoundingBox" x="0%" y="0%" width="100%" height="100%">
  <feColorMatrix type="matrix" in="SourceGraphic" values="0 0 0 0 1 0 0 0 0 1 0 0 0 0 1 0 0 0 1 0"/>
</filter>
<mask id="mask0">
  <g filter="url(#alpha)">
<rect x="0" y="0" width="24" height="24" style="fill:rgb(0%,0%,0%);fill-opacity:0.75;stroke:none;"/>
  </g>
</mask>
<clipPath id="clip1">
  <rect x="0" y="0" width="24" height="24"/>
</clipPath>
<g id="surface5" clip-path="url(#clip1)">
<path style=" stroke:none;fill-rule:nonzero;fill:rgb(90.196079%,0.784314%,70.588237%);fill-opacity:1;" d="M 1.5 2.011719 L 1.5 15.988281 C 1.5 16.273438 1.765625 16.5 2.09375 16.5 L 15.90625 16.5 C 16.234375 16.5 16.5 16.273438 16.5 15.988281 L 16.5 2.011719 C 16.5 1.726562 16.234375 1.5 15.90625 1.5 L 2.09375 1.5 C 1.765625 1.5 1.5 1.726562 1.5 2.011719 Z M 1.5 2.011719 "/>
</g>
<mask id="mask1">
  <g filter="url(#alpha)">
<rect x="0" y="0" width="24" height="24" style="fill:rgb(0%,0%,0%);fill-opacity:0.75;stroke:none;"/>
  </g>
</mask>
<clipPath id="clip2">
  <rect x="0" y="0" width="24" height="24"/>
</clipPath>
<g id="surface8" clip-path="url(#clip2)">
<path style=" stroke:none;fill-rule:nonzero;fill:rgb(90.196079%,0.784314%,70.588237%);fill-opacity:1;" d="M 7.5 8.011719 L 7.5 21.988281 C 7.5 22.273438 7.765625 22.5 8.09375 22.5 L 21.90625 22.5 C 22.234375 22.5 22.5 22.273438 22.5 21.988281 L 22.5 8.011719 C 22.5 7.726562 22.234375 7.5 21.90625 7.5 L 8.09375 7.5 C 7.765625 7.5 7.5 7.726562 7.5 8.011719 Z M 7.5 8.011719 "/>
</g>
</defs>
<g id="surface1">
<use xlink:href="#surface5" mask="url(#mask0)"/>
<path style=" stroke:none;fill-rule:evenodd;fill:rgb(95.294118%,71.764708%,85.09804%);fill-opacity:1;" d="M 3 3.238281 L 3 14.761719 C 3 14.894531 3.128906 15 3.285156 15 L 14.714844 15 C 14.871094 15 15 14.894531 15 14.761719 L 15 3.238281 C 15 3.105469 14.871094 3 14.714844 3 L 3.285156 3 C 3.128906 3 3 3.105469 3 3.238281 Z M 3 3.238281 "/>
<path style=" stroke:none;fill-rule:evenodd;fill:rgb(95.294118%,71.764708%,85.09804%);fill-opacity:1;" d="M 15 6.929688 C 11.96875 9.671875 6.976562 12.136719 3 13.738281 L 3 6.75 C 6.808594 6.359375 11.960938 5.800781 15 4.117188 Z M 15 6.929688 "/>
<use xlink:href="#surface8" mask="url(#mask1)"/>
<path style=" stroke:none;fill-rule:evenodd;fill:rgb(94.117647%,89.019608%,92.54902%);fill-opacity:1;" d="M 9 9.238281 L 9 20.761719 C 9 20.894531 9.128906 21 9.285156 21 L 20.714844 21 C 20.871094 21 21 20.894531 21 20.761719 L 21 9.238281 C 21 9.105469 20.871094 9 20.714844 9 L 9.285156 9 C 9.128906 9 9 9.105469 9 9.238281 Z M 9 9.238281 "/>
<path style=" stroke:none;fill-rule:evenodd;fill:rgb(94.117647%,89.019608%,92.54902%);fill-opacity:1;" d="M 21 12.929688 C 17.96875 15.671875 12.976562 18.136719 9 19.738281 L 9 12.75 C 12.808594 12.359375 17.960938 11.800781 21 10.117188 Z M 21 12.929688 "/>
</g>
</svg>
