<?xml version="1.0" encoding="UTF-8"?>
<svg xmlns="http://www.w3.org/2000/svg" xmlns:xlink="http://www.w3.org/1999/xlink" width="24px" height="24px" viewBox="0 0 24 24" version="1.1">
<g id="surface1">
<path style=" stroke:none;fill-rule:nonzero;fill:rgb(33.333334%,34.117648%,32.549021%);fill-opacity:1;" d="M 9 0 C 5.699219 0 3 2.699219 3 6 L 3 6.898438 L 2.550781 6.449219 C 2.25 6.148438 1.949219 6 1.5 6 L 0 6 L 0 7.5 C 0 7.949219 0.148438 8.25 0.449219 8.550781 L 3.898438 12 L 5.15625 12 L 5.550781 11.550781 L 8.550781 8.550781 C 8.851562 8.25 9 7.949219 9 7.5 L 9 6 L 7.5 6 C 7.050781 6 6.75 6.148438 6.449219 6.449219 L 6 6.898438 L 6 6 C 6 4.351562 7.351562 3 9 3 C 10.648438 3 12 4.351562 12 6 L 15 6 C 15 2.699219 12.300781 0 9 0 Z M 19.5 1.5 C 18.445312 1.515625 17.476562 2.085938 16.949219 3 L 16.5 3 L 16.5 6 L 16.949219 6 C 17.207031 6.433594 17.566406 6.792969 18 7.050781 L 18 16.949219 C 17.566406 17.207031 17.207031 17.566406 16.949219 18 L 11.550781 18 C 11.144531 17.246094 10.433594 16.699219 9.601562 16.5 L 8.699219 13.5 L 5.699219 13.5 L 6.898438 17.398438 C 6.335938 17.953125 6.011719 18.707031 6 19.5 C 6 21.15625 7.34375 22.5 9 22.5 C 10.054688 22.484375 11.023438 21.914062 11.550781 21 L 16.949219 21 C 17.476562 21.914062 18.445312 22.484375 19.5 22.5 C 21.15625 22.5 22.5 21.15625 22.5 19.5 C 22.484375 18.445312 21.914062 17.476562 21 16.949219 L 21 7.050781 C 21.914062 6.523438 22.484375 5.554688 22.5 4.5 C 22.5 2.84375 21.15625 1.5 19.5 1.5 Z M 19.5 1.5 "/>
</g>
</svg>
