<?xml version="1.0" encoding="UTF-8"?>
<svg xmlns="http://www.w3.org/2000/svg" xmlns:xlink="http://www.w3.org/1999/xlink" width="24px" height="24px" viewBox="0 0 24 24" version="1.1">
<g id="surface1">
<path style=" stroke:none;fill-rule:nonzero;fill:rgb(33.333334%,34.117648%,32.549021%);fill-opacity:1;" d="M 18.84375 0 L 18.449219 0.421875 L 15.421875 3.421875 C 15.140625 3.703125 15 4.101562 15 4.5 L 15 6 L 16.5 6 C 16.898438 6 17.296875 5.859375 17.578125 5.578125 L 18 5.15625 L 18 9 L 21 9 L 21 5.15625 L 21.421875 5.578125 C 21.703125 5.851562 22.101562 6 22.5 6 L 24 6 L 24 4.5 C 24 4.101562 23.859375 3.703125 23.578125 3.421875 L 20.15625 0 Z M 10.5 7.5 L 10.5 19.5 L 15.75 19.5 C 17.820312 19.5 19.5 17.820312 19.5 15.75 C 19.5 14.699219 18.65625 12.972656 17.339844 12.355469 C 17.746094 11.851562 18 11.25 18 10.5 C 18 8.851562 16.65625 7.5 15 7.5 Z M 12 9 L 15 9 C 15.828125 9 16.5 9.671875 16.5 10.5 C 16.5 11.328125 15.828125 12 15 12 L 12 12 Z M 3 12 L 3 13.5 L 7.5 13.5 L 7.5 15 L 3.75 15 C 2.507812 15 1.5 16.007812 1.5 17.25 C 1.5 18.492188 2.507812 19.5 3.75 19.5 L 9 19.5 L 9 13.5 C 9 12.671875 8.328125 12 7.5 12 Z M 12 13.5 L 15.75 13.5 C 16.992188 13.5 18 14.507812 18 15.75 C 18 16.992188 16.992188 18 15.75 18 L 12 18 Z M 3.75 16.5 L 7.5 16.5 L 7.5 18 L 3.75 18 C 3.335938 18 3 17.664062 3 17.25 C 3 16.835938 3.335938 16.5 3.75 16.5 Z M 3.75 16.5 "/>
</g>
</svg>
