<?xml version="1.0" encoding="UTF-8"?>
<svg xmlns="http://www.w3.org/2000/svg" xmlns:xlink="http://www.w3.org/1999/xlink" width="24px" height="24px" viewBox="0 0 24 24" version="1.1">
<g id="surface1">
<path style=" stroke:none;fill-rule:nonzero;fill:rgb(33.333334%,34.117648%,32.549021%);fill-opacity:1;" d="M 18 0 L 18 3.84375 L 17.578125 3.421875 C 17.296875 3.140625 16.898438 3 16.5 3 L 15 3 L 15 4.5 C 15 4.898438 15.140625 5.296875 15.421875 5.578125 L 18.84375 9 L 20.15625 9 L 23.578125 5.578125 C 23.859375 5.296875 24 4.898438 24 4.5 L 24 3 L 22.5 3 C 22.101562 3 21.703125 3.140625 21.421875 3.421875 L 21 3.84375 L 21 0 Z M 12 9 L 12 19.5 L 16.5 19.5 C 18.15625 19.5 19.5 18.15625 19.5 16.5 C 19.5 14.84375 18.15625 13.5 16.5 13.5 L 13.5 13.5 L 13.5 9 Z M 3 12 L 3 13.5 L 7.5 13.5 L 7.5 15 L 3.75 15 C 2.507812 15 1.5 16.007812 1.5 17.25 C 1.5 18.492188 2.507812 19.5 3.75 19.5 L 9 19.5 L 9 13.5 C 9 12.671875 8.328125 12 7.5 12 Z M 13.5 15 L 16.5 15 C 17.328125 15 18 15.671875 18 16.5 C 18 17.328125 17.328125 18 16.5 18 L 13.5 18 Z M 3.75 16.5 L 7.5 16.5 L 7.5 18 L 3.75 18 C 3.335938 18 3 17.664062 3 17.25 C 3 16.835938 3.335938 16.5 3.75 16.5 Z M 3.75 16.5 "/>
</g>
</svg>
