<?xml version="1.0" encoding="UTF-8"?>
<svg xmlns="http://www.w3.org/2000/svg" xmlns:xlink="http://www.w3.org/1999/xlink" width="24px" height="24px" viewBox="0 0 24 24" version="1.1">
<g id="surface1">
<path style="fill-rule:nonzero;fill:rgb(94.117647%,89.019608%,92.54902%);fill-opacity:1;stroke-width:1.265793;stroke-linecap:butt;stroke-linejoin:miter;stroke:rgb(61.56863%,22.745098%,60.784316%);stroke-opacity:1;stroke-miterlimit:4;" d="M 61.745613 0.902893 L 66.254383 0.902893 L 66.254383 120.697315 L 61.745613 120.697315 Z M 61.745613 0.902893 " transform="matrix(0.209661,0,0,0.187398,-1.418293,0.00658106)"/>
<path style="fill-rule:nonzero;fill:rgb(95.294118%,71.764708%,85.09804%);fill-opacity:1;stroke-width:1.2;stroke-linecap:butt;stroke-linejoin:miter;stroke:rgb(61.56863%,22.745098%,60.784316%);stroke-opacity:1;stroke-miterlimit:4;" d="M -65.482593 120.434203 L -61.402289 120.436451 C -60.358948 120.431696 -59.516654 121.282498 -59.511904 122.324721 L -59.51201 126.389478 C -59.50726 127.431702 -60.360395 128.290231 -61.3852 128.274057 L -65.465503 128.271809 C -66.508844 128.276564 -67.351043 127.446606 -67.355793 126.404383 L -67.355782 122.318781 C -67.360532 121.276558 -66.507302 120.438873 -65.482593 120.434203 Z M -65.482593 120.434203 " transform="matrix(-0.209659,0.00085409,0.000955557,0.187396,-1.418293,0.00658106)"/>
<path style="fill-rule:nonzero;fill:rgb(94.117647%,89.019608%,92.54902%);fill-opacity:1;stroke-width:1.438834;stroke-linecap:butt;stroke-linejoin:miter;stroke:rgb(61.56863%,22.745098%,60.784316%);stroke-opacity:1;stroke-miterlimit:4;" d="M 118.59891 13.668115 L 122.949501 13.668418 L 122.954598 44.429483 L 118.592597 44.443908 Z M 118.59891 13.668115 " transform="matrix(0.128406,0.14814,-0.165739,0.114772,-1.420557,0.00658106)"/>
<path style="fill-rule:nonzero;fill:rgb(95.294118%,71.764708%,85.09804%);fill-opacity:1;stroke-width:1.2;stroke-linecap:butt;stroke-linejoin:miter;stroke:rgb(61.56863%,22.745098%,60.784316%);stroke-opacity:1;stroke-miterlimit:4;" d="M 115.404651 49.537128 L 119.486455 49.533411 C 120.536438 49.546346 121.373407 50.392946 121.37815 51.420888 L 121.366013 55.504904 C 121.38631 56.546723 120.530271 57.380973 119.495842 57.381915 L 115.414038 57.385632 C 114.379609 57.386574 113.530236 56.553877 113.522343 55.498155 L 113.522077 51.428042 C 113.529737 50.386197 114.370222 49.53807 115.404651 49.537128 Z M 115.404651 49.537128 " transform="matrix(0.139578,0.139834,-0.156447,0.124757,-1.420557,0.00658106)"/>
<path style="fill-rule:nonzero;fill:rgb(94.117647%,89.019608%,92.54902%);fill-opacity:1;stroke-width:1.438834;stroke-linecap:butt;stroke-linejoin:miter;stroke:rgb(61.56863%,22.745098%,60.784316%);stroke-opacity:1;stroke-miterlimit:4;" d="M 40.198888 114.861991 L 44.549479 114.862295 L 44.554576 145.623359 L 40.192575 145.637784 Z M 40.198888 114.861991 " transform="matrix(-0.128406,0.14814,0.165739,0.114772,-1.418293,0.00658106)"/>
<path style="fill-rule:nonzero;fill:rgb(95.294118%,71.764708%,85.09804%);fill-opacity:1;stroke-width:1.2;stroke-linecap:butt;stroke-linejoin:miter;stroke:rgb(61.56863%,22.745098%,60.784316%);stroke-opacity:1;stroke-miterlimit:4;" d="M 30.183576 145.057446 L 34.265379 145.053729 C 35.315363 145.066664 36.152332 145.913263 36.157075 146.941205 L 36.144937 151.025221 C 36.165234 152.067041 35.309196 152.90129 34.274766 152.902232 L 30.192963 152.90595 C 29.158533 152.906892 28.309161 152.074195 28.301267 151.018473 L 28.301001 146.94836 C 28.308662 145.906515 29.149146 145.058388 30.183576 145.057446 Z M 30.183576 145.057446 " transform="matrix(-0.139578,0.139834,0.156447,0.124757,-1.418293,0.00658106)"/>
<path style=" stroke:none;fill-rule:nonzero;fill:rgb(90.196079%,0.784314%,70.588237%);fill-opacity:1;" d="M 0 0 L 24 0 L 24 18.75 L 0 18.75 Z M 0 0 "/>
<path style=" stroke:none;fill-rule:nonzero;fill:rgb(94.117647%,89.019608%,92.54902%);fill-opacity:1;" d="M 0.75 4.5 L 23.25 4.5 L 23.25 18 L 0.75 18 Z M 0.75 4.5 "/>
<path style=" stroke:none;fill-rule:nonzero;fill:rgb(94.117647%,89.019608%,92.54902%);fill-opacity:1;" d="M 0.75 3.75 L 23.410156 3.75 L 23.410156 0.925781 L 0.75 0.925781 Z M 0.75 3.75 "/>
<path style=" stroke:none;fill-rule:nonzero;fill:rgb(95.294118%,71.764708%,85.09804%);fill-opacity:1;" d="M 3.589844 6 L 20.410156 6 C 20.734375 6 21 6.207031 21 6.457031 L 21 16.042969 C 21 16.292969 20.734375 16.5 20.410156 16.5 L 3.589844 16.5 C 3.265625 16.5 3 16.292969 3 16.042969 L 3 6.457031 C 3 6.207031 3.265625 6 3.589844 6 Z M 3.589844 6 "/>
<path style=" stroke:none;fill-rule:evenodd;fill:rgb(61.56863%,22.745098%,60.784316%);fill-opacity:1;" d="M 12.671875 14.847656 C 12.671875 17.449219 17.078125 17.777344 18.183594 17.777344 C 19.289062 17.777344 23.703125 17.449219 23.703125 14.847656 C 23.203125 10.476562 20.945312 6.222656 18.183594 6.222656 C 15.398438 6.222656 13.140625 11.144531 12.671875 14.847656 Z M 12.671875 14.847656 "/>
<path style=" stroke:none;fill-rule:nonzero;fill:rgb(61.56863%,22.745098%,60.784316%);fill-opacity:1;" d="M 21.863281 3.679688 C 21.863281 5.710938 20.214844 7.359375 18.183594 7.359375 C 16.152344 7.359375 14.503906 5.710938 14.503906 3.679688 C 14.503906 1.648438 16.152344 0 18.183594 0 C 20.214844 0 21.863281 1.648438 21.863281 3.679688 Z M 21.863281 3.679688 "/>
</g>
</svg>
