<?xml version="1.0" encoding="UTF-8"?>
<svg xmlns="http://www.w3.org/2000/svg" xmlns:xlink="http://www.w3.org/1999/xlink" width="24px" height="24px" viewBox="0 0 24 24" version="1.1">
<defs>
<filter id="alpha" filterUnits="objectBoundingBox" x="0%" y="0%" width="100%" height="100%">
  <feColorMatrix type="matrix" in="SourceGraphic" values="0 0 0 0 1 0 0 0 0 1 0 0 0 0 1 0 0 0 1 0"/>
</filter>
<mask id="mask0">
  <g filter="url(#alpha)">
<rect x="0" y="0" width="24" height="24" style="fill:rgb(0%,0%,0%);fill-opacity:0.35;stroke:none;"/>
  </g>
</mask>
<clipPath id="clip1">
  <rect x="0" y="0" width="24" height="24"/>
</clipPath>
<g id="surface5" clip-path="url(#clip1)">
<path style=" stroke:none;fill-rule:nonzero;fill:rgb(33.333334%,34.117648%,32.549021%);fill-opacity:1;" d="M 6 4.5 C 5.171875 4.5 4.5 5.171875 4.5 6 C 4.5 6.828125 5.171875 7.5 6 7.5 C 6.828125 7.5 7.5 6.828125 7.5 6 C 7.5 5.171875 6.828125 4.5 6 4.5 Z M 6 4.5 "/>
</g>
</defs>
<g id="surface1">
<path style=" stroke:none;fill-rule:nonzero;fill:rgb(33.333334%,34.117648%,32.549021%);fill-opacity:1;" d="M 6 1.5 C 3.515625 1.5 1.5 3.515625 1.5 6 C 1.5 8.484375 3.515625 10.5 6 10.5 C 6.671875 10.5 7.332031 10.347656 7.9375 10.058594 L 17.378906 19.5 L 13.5 19.5 L 12 21 L 13.5 22.5 L 22.5 22.5 L 22.5 13.5 L 21 12 L 19.5 13.5 L 19.5 17.378906 L 10.058594 7.9375 C 10.347656 7.332031 10.5 6.671875 10.5 6 C 10.5 3.515625 8.484375 1.5 6 1.5 Z M 6 4.5 C 6.828125 4.5 7.5 5.171875 7.5 6 C 7.5 6.828125 6.828125 7.5 6 7.5 C 5.171875 7.5 4.5 6.828125 4.5 6 C 4.5 5.171875 5.171875 4.5 6 4.5 Z M 6 4.5 "/>
<use xlink:href="#surface5" mask="url(#mask0)"/>
</g>
</svg>
