<?xml version="1.0" encoding="UTF-8"?>
<svg xmlns="http://www.w3.org/2000/svg" xmlns:xlink="http://www.w3.org/1999/xlink" width="24px" height="24px" viewBox="0 0 24 24" version="1.1">
<defs>
<clipPath id="clip1">
  <path d="M 1 1 L 23 1 L 23 23 L 1 23 Z M 1 1 "/>
</clipPath>
<clipPath id="clip2">
  <path d="M 11.984375 1.507812 C 6.210938 1.507812 1.53125 2.511719 1.535156 3.75 L 1.535156 20.0625 L 1.683594 20.433594 C 2.535156 21.515625 6.898438 22.304688 12.003906 22.304688 C 17.105469 22.300781 21.457031 21.511719 22.304688 20.433594 L 22.464844 20.0625 L 22.464844 3.75 L 12 3.75 L 22.464844 3.746094 C 22.453125 2.507812 17.761719 1.503906 11.984375 1.507812 Z M 1.582031 3.945312 C 1.601562 3.984375 1.621094 4.023438 1.648438 4.0625 C 1.625 4.023438 1.597656 3.984375 1.582031 3.945312 Z M 22.410156 3.976562 C 22.304688 4.203125 22.042969 4.417969 21.644531 4.621094 C 22.046875 4.414062 22.308594 4.195312 22.410156 3.976562 Z M 1.71875 4.164062 C 1.761719 4.207031 1.808594 4.25 1.863281 4.292969 C 1.808594 4.25 1.757812 4.207031 1.71875 4.164062 Z M 1.957031 4.375 C 2.023438 4.421875 2.09375 4.46875 2.175781 4.515625 C 2.097656 4.46875 2.019531 4.421875 1.957031 4.375 Z M 2.292969 4.582031 C 2.339844 4.605469 2.390625 4.632812 2.445312 4.65625 C 2.394531 4.632812 2.339844 4.605469 2.292969 4.582031 Z M 3.289062 4.988281 C 3.328125 5.003906 3.371094 5.015625 3.414062 5.027344 C 3.371094 5.015625 3.328125 5.003906 3.289062 4.988281 Z M 19.453125 5.320312 C 19.425781 5.324219 19.402344 5.332031 19.375 5.339844 C 19.398438 5.332031 19.425781 5.324219 19.453125 5.320312 Z M 4.566406 5.324219 C 4.613281 5.335938 4.664062 5.34375 4.714844 5.355469 C 4.664062 5.34375 4.613281 5.335938 4.566406 5.324219 Z M 18.019531 5.578125 C 17.925781 5.59375 17.839844 5.609375 17.742188 5.621094 C 17.835938 5.605469 17.929688 5.59375 18.019531 5.578125 Z M 16.222656 5.796875 C 16.140625 5.804688 16.0625 5.8125 15.980469 5.820312 C 16.0625 5.8125 16.140625 5.804688 16.222656 5.796875 Z M 14.207031 5.9375 C 14.152344 5.941406 14.097656 5.945312 14.046875 5.949219 C 14.097656 5.945312 14.152344 5.941406 14.207031 5.9375 Z M 14.207031 5.9375 "/>
</clipPath>
</defs>
<g id="surface1">
<path style=" stroke:none;fill-rule:nonzero;fill:rgb(95.294118%,71.764708%,85.09804%);fill-opacity:1;" d="M 1.535156 3.75 Z M 1.535156 3.75 L 1.535156 20.0625 L 1.683594 20.4375 C 2.535156 21.515625 6.898438 22.304688 12.003906 22.304688 C 17.105469 22.304688 21.457031 21.511719 22.304688 20.4375 L 22.464844 20.0625 L 22.464844 3.75 C 22.464844 4.988281 17.78125 5.992188 12.003906 5.992188 C 6.226562 5.992188 1.542969 4.988281 1.535156 3.75 Z M 1.535156 3.75 "/>
<path style=" stroke:none;fill-rule:nonzero;fill:rgb(90.196079%,0.784314%,70.588237%);fill-opacity:1;" d="M 22.464844 3.75 C 22.464844 4.988281 17.78125 5.992188 12.003906 5.992188 C 6.226562 5.992188 1.539062 4.988281 1.535156 3.75 C 1.53125 2.511719 6.207031 1.507812 11.984375 1.507812 C 17.761719 1.503906 22.453125 2.507812 22.464844 3.746094 L 12 3.75 Z M 22.464844 3.75 "/>
<g clip-path="url(#clip1)" clip-rule="nonzero">
<g clip-path="url(#clip2)" clip-rule="nonzero">
<path style="fill:none;stroke-width:0.359439;stroke-linecap:butt;stroke-linejoin:miter;stroke:rgb(61.56863%,22.745098%,60.784316%);stroke-opacity:1;stroke-miterlimit:4;" d="M 12.020839 2.08827 C 6.528166 2.092014 2.076368 3.039285 2.012717 4.211205 C 2.012717 4.203716 2.005229 4.196228 2.005229 4.18874 L 2.005229 19.876742 L 2.147507 20.232436 C 2.963732 21.265823 7.145951 22.022142 12.03956 22.022142 C 16.929424 22.022142 21.10041 21.265823 21.912892 20.232436 L 22.066402 19.876742 L 22.066402 4.18874 L 22.058914 4.211205 C 21.991519 3.035541 17.521 2.08827 12.020839 2.08827 Z M 22.05517 4.23367 L 22.05517 4.237414 Z M 22.05517 4.23367 " transform="matrix(1.043293,0,0,1.043293,-0.556886,-0.620084)"/>
</g>
</g>
</g>
</svg>
