<?xml version="1.0" encoding="UTF-8"?>
<svg xmlns="http://www.w3.org/2000/svg" xmlns:xlink="http://www.w3.org/1999/xlink" width="24px" height="24px" viewBox="0 0 24 24" version="1.1">
<g id="surface1">
<path style=" stroke:none;fill-rule:nonzero;fill:rgb(33.333334%,34.117648%,32.549021%);fill-opacity:1;" d="M 3 1.5 L 3 6 L 21 6 L 21 1.5 Z M 3 7.5 L 3 16.5 L 9 16.5 L 9 13.5 L 6 13.5 L 6 10.5 L 9 10.5 C 9 9.667969 9.667969 9 10.5 9 L 21 9 L 21 7.5 Z M 12 10.5 C 11.167969 10.5 10.5 11.167969 10.5 12 L 10.5 21 C 10.5 21.832031 11.167969 22.5 12 22.5 L 21 22.5 C 21.832031 22.5 22.5 21.832031 22.5 21 L 22.5 12 C 22.5 11.167969 21.832031 10.5 21 10.5 Z M 12 12 L 21 12 L 21 21 L 12 21 Z M 15 21 L 15.660156 19.5 L 19.5 19.5 L 19.5 18 L 16.304688 18 L 16.949219 16.5 L 19.5 16.5 L 19.5 15 L 17.609375 15 L 18 14.101562 L 17.398438 13.863281 L 16.5 13.5 L 15.839844 15 L 13.5 15 L 13.5 16.5 L 15.195312 16.5 L 14.550781 18 L 13.5 18 L 13.5 19.5 L 13.890625 19.5 L 15 20.398438 Z M 3 18 L 3 22.5 L 9 22.5 L 9 18 Z M 3 18 "/>
</g>
</svg>
