<?xml version="1.0" encoding="UTF-8"?>
<svg xmlns="http://www.w3.org/2000/svg" xmlns:xlink="http://www.w3.org/1999/xlink" width="24px" height="24px" viewBox="0 0 24 24" version="1.1">
<g id="surface1">
<path style=" stroke:none;fill-rule:nonzero;fill:rgb(33.333334%,34.117648%,32.549021%);fill-opacity:1;" d="M 7.5 0 C 7.035156 0 6.671875 0.136719 6.375 0.421875 C 4.25 2.03125 2.125 4.390625 0 6 L 6.375 11.578125 C 6.671875 11.863281 7.035156 12 7.5 12 L 9 12 L 9 10.5 C 9 10.113281 8.804688 9.707031 8.53125 9.421875 L 6.265625 7.5 C 9.476562 7.503906 12.875 7.496094 15.863281 7.5 C 14.914062 8.277344 13.679688 9.183594 11.207031 10.730469 C 8.175781 12.621094 6.28125 13.914062 5.140625 15.027344 C 4.570312 15.582031 4.050781 16.0625 3.964844 17.066406 C 3.925781 17.570312 4.132812 18.183594 4.457031 18.550781 C 4.785156 18.917969 5.132812 19.121094 5.472656 19.214844 C 6.507812 19.5 8.238281 19.523438 10.332031 19.5 C 12.480469 19.488281 17.53125 19.5 19.5 19.5 L 19.5 16.5 C 16.703125 16.5 10.816406 16.515625 8.195312 16.5 C 9.121094 15.734375 10.335938 14.808594 12.792969 13.269531 C 15.824219 11.378906 17.722656 10.078125 18.871094 8.984375 C 19.445312 8.441406 19.929688 7.992188 20.09375 7.070312 C 20.175781 6.609375 20.0625 5.992188 19.765625 5.574219 C 19.46875 5.160156 19.105469 4.9375 18.777344 4.808594 C 18 4.5 16.1875 4.476562 14.300781 4.5 C 11.371094 4.515625 9.160156 4.5 6.265625 4.5 L 8.53125 2.578125 C 8.804688 2.292969 9 1.886719 9 1.5 L 9 0 Z M 7.5 0 "/>
</g>
</svg>
