<?xml version="1.0" encoding="UTF-8"?>
<svg xmlns="http://www.w3.org/2000/svg" xmlns:xlink="http://www.w3.org/1999/xlink" width="24px" height="24px" viewBox="0 0 24 24" version="1.1">
<defs>
<filter id="alpha" filterUnits="objectBoundingBox" x="0%" y="0%" width="100%" height="100%">
  <feColorMatrix type="matrix" in="SourceGraphic" values="0 0 0 0 1 0 0 0 0 1 0 0 0 0 1 0 0 0 1 0"/>
</filter>
<mask id="mask0">
  <g filter="url(#alpha)">
<rect x="0" y="0" width="24" height="24" style="fill:rgb(0%,0%,0%);fill-opacity:0.35;stroke:none;"/>
  </g>
</mask>
<clipPath id="clip1">
  <rect x="0" y="0" width="24" height="24"/>
</clipPath>
<g id="surface5" clip-path="url(#clip1)">
<path style=" stroke:none;fill-rule:nonzero;fill:rgb(33.333334%,34.117648%,32.549021%);fill-opacity:1;" d="M 11.097656 1.5 L 1.5 17.460938 L 1.5 18 C 1.5 20.484375 6.199219 22.5 12 22.5 C 17.800781 22.5 22.5 20.484375 22.5 18 L 22.5 17.460938 L 12.902344 1.5 Z M 11.097656 1.5 "/>
</g>
</defs>
<g id="surface1">
<use xlink:href="#surface5" mask="url(#mask0)"/>
<path style=" stroke:none;fill-rule:nonzero;fill:rgb(33.333334%,34.117648%,32.549021%);fill-opacity:1;" d="M 10.5 1.5 L 10.5 6 L 13.5 6 L 13.5 1.5 Z M 10.5 7.5 L 10.5 12 L 13.5 12 L 13.5 7.5 Z M 10.5 13.5 L 10.5 18 L 13.5 18 L 13.5 13.5 Z M 10.5 19.5 L 10.5 24 L 13.5 24 L 13.5 19.5 Z M 10.5 19.5 "/>
</g>
</svg>
