<?xml version="1.0" encoding="UTF-8"?>
<svg xmlns="http://www.w3.org/2000/svg" xmlns:xlink="http://www.w3.org/1999/xlink" width="24px" height="24px" viewBox="0 0 24 24" version="1.1">
<defs>
<filter id="alpha" filterUnits="objectBoundingBox" x="0%" y="0%" width="100%" height="100%">
  <feColorMatrix type="matrix" in="SourceGraphic" values="0 0 0 0 1 0 0 0 0 1 0 0 0 0 1 0 0 0 1 0"/>
</filter>
<mask id="mask0">
  <g filter="url(#alpha)">
<rect x="0" y="0" width="24" height="24" style="fill:rgb(0%,0%,0%);fill-opacity:0.35;stroke:none;"/>
  </g>
</mask>
<clipPath id="clip1">
  <rect x="0" y="0" width="24" height="24"/>
</clipPath>
<g id="surface5" clip-path="url(#clip1)">
<path style=" stroke:none;fill-rule:nonzero;fill:rgb(33.333334%,34.117648%,32.549021%);fill-opacity:1;" d="M 19.5 16.5 C 18.671875 16.5 18 17.171875 18 18 C 18 18.828125 18.671875 19.5 19.5 19.5 C 20.328125 19.5 21 18.828125 21 18 C 21 17.171875 20.328125 16.5 19.5 16.5 Z M 19.5 16.5 "/>
</g>
</defs>
<g id="surface1">
<use xlink:href="#surface5" mask="url(#mask0)"/>
<path style=" stroke:none;fill-rule:nonzero;fill:rgb(33.333334%,34.117648%,32.549021%);fill-opacity:1;" d="M 4.15625 1.722656 C 3.085938 2.792969 2.625 3.539062 2.136719 3.957031 C 2.140625 3.957031 2.144531 3.953125 2.148438 3.953125 L 15.347656 16.28125 C 15.117188 16.824219 15 17.410156 15 18 C 15 20.484375 17.015625 22.5 19.5 22.5 C 21.984375 22.5 24 20.484375 24 18 C 24 15.515625 21.984375 13.5 19.5 13.5 C 18.75 13.5 18.011719 13.6875 17.351562 14.046875 Z M 19.5 16.5 C 20.328125 16.5 21 17.171875 21 18 C 21 18.828125 20.328125 19.5 19.5 19.5 C 18.671875 19.5 18 18.828125 18 18 C 18 17.171875 18.671875 16.5 19.5 16.5 Z M 19.5 16.5 "/>
</g>
</svg>
