<?xml version="1.0" encoding="UTF-8"?>
<svg xmlns="http://www.w3.org/2000/svg" xmlns:xlink="http://www.w3.org/1999/xlink" width="24px" height="24px" viewBox="0 0 24 24" version="1.1">
<g id="surface1">
<path style="fill-rule:evenodd;fill:rgb(95.294118%,71.764708%,85.09804%);fill-opacity:1;stroke-width:0.128163;stroke-linecap:butt;stroke-linejoin:round;stroke:rgb(90.196079%,0.784314%,70.588237%);stroke-opacity:1;stroke-miterlimit:4;" d="M 1.554308 2.678688 L 2.71186 0.363889 L 2.71186 1.058062 L 1.785952 2.909634 Z M 1.554308 2.678688 " transform="matrix(5.851522,0,0,5.85229,0.225243,-0.254585)"/>
<path style="fill-rule:evenodd;fill:rgb(95.294118%,71.764708%,85.09804%);fill-opacity:1;stroke-width:0.128163;stroke-linecap:butt;stroke-linejoin:round;stroke:rgb(90.196079%,0.784314%,70.588237%);stroke-opacity:1;stroke-miterlimit:4;" d="M 2.480216 2.678688 L 1.322664 0.363889 L 1.322664 1.058062 L 2.248572 2.909634 Z M 2.480216 2.678688 " transform="matrix(5.851522,0,0,5.85229,0.225243,-0.254585)"/>
<path style="fill-rule:evenodd;fill:rgb(94.117647%,89.019608%,92.54902%);fill-opacity:0.915842;stroke-width:0.256327;stroke-linecap:round;stroke-linejoin:round;stroke:rgb(90.196079%,0.784314%,70.588237%);stroke-opacity:1;stroke-miterlimit:4;" d="M 3.167804 3.215337 C 3.167804 3.506356 2.939498 3.741974 2.657787 3.741974 C 2.376744 3.741974 2.148438 3.506356 2.148438 3.215337 C 2.148438 2.924986 2.376744 2.689368 2.657787 2.689368 C 2.939498 2.689368 3.167804 2.924986 3.167804 3.215337 Z M 3.167804 3.215337 " transform="matrix(5.851522,0,0,5.85229,0.225243,-0.254585)"/>
<path style="fill-rule:evenodd;fill:rgb(94.117647%,89.019608%,92.54902%);fill-opacity:0.920792;stroke-width:0.256327;stroke-linecap:round;stroke-linejoin:round;stroke:rgb(90.196079%,0.784314%,70.588237%);stroke-opacity:1;stroke-miterlimit:4;" d="M 1.876073 3.233359 C 1.876073 3.524377 1.647767 3.759996 1.366723 3.759996 C 1.085013 3.759996 0.856707 3.524377 0.856707 3.233359 C 0.856707 2.943008 1.085013 2.706722 1.366723 2.706722 C 1.647767 2.706722 1.876073 2.943008 1.876073 3.233359 Z M 1.876073 3.233359 " transform="matrix(5.851522,0,0,5.85229,0.225243,-0.254585)"/>
<path style="fill-rule:evenodd;fill:rgb(61.56863%,22.745098%,60.784316%);fill-opacity:0.920792;stroke-width:0.264583;stroke-linecap:round;stroke-linejoin:round;stroke:rgb(61.56863%,22.745098%,60.784316%);stroke-opacity:1;stroke-miterlimit:4;" d="M 2.157319 2.09324 C 2.157319 2.113222 2.140782 2.130447 2.120112 2.130447 C 2.099441 2.130447 2.082905 2.113222 2.082905 2.09324 C 2.082905 2.07257 2.099441 2.056033 2.120112 2.056033 C 2.140782 2.056033 2.157319 2.07257 2.157319 2.09324 Z M 2.157319 2.09324 " transform="matrix(5.669291,0,0,5.669291,0.00000135166,0)"/>
</g>
</svg>
