<?xml version="1.0" encoding="UTF-8"?>
<svg xmlns="http://www.w3.org/2000/svg" xmlns:xlink="http://www.w3.org/1999/xlink" width="24px" height="24px" viewBox="0 0 24 24" version="1.1">
<defs>
<filter id="alpha" filterUnits="objectBoundingBox" x="0%" y="0%" width="100%" height="100%">
  <feColorMatrix type="matrix" in="SourceGraphic" values="0 0 0 0 1 0 0 0 0 1 0 0 0 0 1 0 0 0 1 0"/>
</filter>
<mask id="mask0">
  <g filter="url(#alpha)">
<rect x="0" y="0" width="24" height="24" style="fill:rgb(0%,0%,0%);fill-opacity:0.35;stroke:none;"/>
  </g>
</mask>
<clipPath id="clip1">
  <rect x="0" y="0" width="24" height="24"/>
</clipPath>
<g id="surface5" clip-path="url(#clip1)">
<path style=" stroke:none;fill-rule:nonzero;fill:rgb(33.333334%,34.117648%,32.549021%);fill-opacity:1;" d="M 13.542969 1.5 L 6 15.183594 L 6 15.640625 C 6 17.773438 9.695312 19.5 14.25 19.5 C 14.507812 19.5 14.75 19.476562 15 19.464844 C 15.25 19.476562 15.492188 19.5 15.75 19.5 C 20.304688 19.5 24 17.773438 24 15.640625 L 24 15.183594 L 16.457031 1.5 L 15.042969 1.5 L 15 1.574219 L 14.957031 1.5 Z M 13.542969 1.5 "/>
</g>
</defs>
<g id="surface1">
<use xlink:href="#surface5" mask="url(#mask0)"/>
<path style=" stroke:none;fill-rule:nonzero;fill:rgb(33.333334%,34.117648%,32.549021%);fill-opacity:1;" d="M 13.5 0 L 13.5 4.5 L 16.5 4.5 L 16.5 0 Z M 13.5 6 L 13.5 10.5 L 16.5 10.5 L 16.5 6 Z M 0 12 L 0 13.5 C 0 16.800781 2.6875 19.5 6 19.5 L 8.734375 19.5 L 6.46875 21.421875 C 6.195312 21.707031 6 22.113281 6 22.5 L 6 24 L 7.5 24 C 7.964844 24 8.328125 23.863281 8.625 23.578125 L 13.5 19.3125 L 13.5 16.753906 C 11.851562 15.316406 10.25 13.648438 8.625 12.421875 C 8.328125 12.148438 7.964844 12 7.5 12 L 6 12 L 6 13.5 C 6 13.886719 6.195312 14.292969 6.46875 14.578125 L 8.734375 16.5 L 6 16.5 C 4.351562 16.5 3 15.148438 3 13.5 L 3 12 Z M 13.5 12 L 13.5 15 L 16.5 15 L 16.5 12 Z M 13.5 12 "/>
</g>
</svg>
