<?xml version="1.0" encoding="UTF-8"?>
<svg xmlns="http://www.w3.org/2000/svg" xmlns:xlink="http://www.w3.org/1999/xlink" width="24px" height="24px" viewBox="0 0 24 24" version="1.1">
<g id="surface1">
<path style=" stroke:none;fill-rule:nonzero;fill:rgb(33.333334%,34.117648%,32.549021%);fill-opacity:1;" d="M 12 0 C 6.199219 0 1.5 2.6875 1.5 6 L 1.5 18 C 1.5 21.3125 6.199219 24 12 24 C 12.074219 24 12.144531 23.996094 12.214844 23.996094 L 9.863281 21.636719 C 9.605469 21.382812 9.429688 21.09375 9.289062 20.792969 C 6.40625 20.34375 4.503906 19.238281 4.5 18 L 4.5 16.199219 C 5.746094 16.925781 7.296875 17.457031 9 17.746094 L 9 16.5 L 12 16.5 L 12 15 C 7.859375 15 4.5 13.65625 4.5 12 L 4.5 10.199219 C 6.476562 11.351562 9.179688 12 12 12 C 12.503906 11.996094 13.007812 11.972656 13.503906 11.929688 C 13.519531 11.203125 13.773438 10.449219 14.363281 9.863281 L 15.589844 8.628906 C 14.492188 8.871094 13.253906 9 12 9 C 7.859375 9 4.5 7.65625 4.5 6 C 4.5 4.34375 7.859375 3 12 3 C 16.140625 3 19.5 4.34375 19.5 6 L 20.777344 6 L 22.5 7.722656 L 22.5 6 C 22.5 2.6875 17.800781 0 12 0 Z M 18.84375 7.5 L 15.421875 10.921875 C 15.140625 11.203125 15 11.601562 15 12 L 15 13.5 L 16.5 13.5 C 16.898438 13.5 17.296875 13.359375 17.578125 13.078125 L 18 12.65625 L 18 16.5 L 21 16.5 L 21 12.65625 L 21.421875 13.078125 C 21.703125 13.359375 22.101562 13.5 22.5 13.5 L 24 13.5 L 24 12 C 24 11.601562 23.859375 11.203125 23.578125 10.921875 L 20.15625 7.5 Z M 13.5 15 L 13.5 18.84375 L 13.078125 18.421875 C 12.796875 18.140625 12.398438 18 12 18 L 10.5 18 L 10.5 19.5 C 10.5 19.898438 10.640625 20.296875 10.921875 20.578125 L 14.34375 24 L 15.65625 24 L 19.078125 20.578125 C 19.359375 20.296875 19.5 19.898438 19.5 19.5 L 19.5 18 L 18 18 C 17.601562 18 17.203125 18.140625 16.921875 18.421875 L 16.5 18.84375 L 16.5 15 Z M 13.5 15 "/>
</g>
</svg>
