<?xml version="1.0" encoding="UTF-8"?>
<svg xmlns="http://www.w3.org/2000/svg" xmlns:xlink="http://www.w3.org/1999/xlink" width="24px" height="24px" viewBox="0 0 24 24" version="1.1">
<g id="surface1">
<path style=" stroke:none;fill-rule:nonzero;fill:rgb(33.333334%,34.117648%,32.549021%);fill-opacity:1;" d="M 1.5 1.5 C 0.667969 1.5 0 2.167969 0 3 L 0 22.5 L 4.5 18 L 24 18 L 24 15 L 3 15 L 3 4.5 L 24 4.5 L 24 1.5 Z M 4.5 6 L 4.5 13.5 L 6 13.5 L 6 10.5 L 7.5 10.5 L 9 13.5 L 10.5 13.5 L 10.5 12.636719 L 8.851562 10.5 C 9.898438 10.199219 10.542969 9.273438 10.5 8.25 C 10.5 7.007812 9.492188 6 8.25 6 Z M 12 6 L 12 13.5 L 16.5 13.5 L 16.5 12 L 13.5 12 L 13.5 10.5 L 16.5 10.5 L 16.5 9 L 13.5 9 L 13.5 7.5 L 16.5 7.5 L 16.5 6 Z M 21 6 C 19.34375 6 18 7.34375 18 9 L 18 10.5 C 18 12.15625 19.34375 13.5 21 13.5 L 22.5 13.5 L 22.5 12 L 21 12 C 20.171875 12 19.5 11.328125 19.5 10.5 L 19.5 9 C 19.5 8.171875 20.171875 7.5 21 7.5 L 22.5 7.5 L 22.5 6 Z M 6 7.5 L 8.25 7.5 C 8.871094 7.5 9 7.894531 9 8.25 C 9 8.609375 8.695312 8.925781 8.25 9 L 6 9 Z M 6 7.5 "/>
</g>
</svg>
