<?xml version="1.0" encoding="UTF-8"?>
<svg xmlns="http://www.w3.org/2000/svg" xmlns:xlink="http://www.w3.org/1999/xlink" width="24px" height="24px" viewBox="0 0 24 24" version="1.1">
<defs>
<filter id="alpha" filterUnits="objectBoundingBox" x="0%" y="0%" width="100%" height="100%">
  <feColorMatrix type="matrix" in="SourceGraphic" values="0 0 0 0 1 0 0 0 0 1 0 0 0 0 1 0 0 0 1 0"/>
</filter>
<mask id="mask0">
  <g filter="url(#alpha)">
<rect x="0" y="0" width="24" height="24" style="fill:rgb(0%,0%,0%);fill-opacity:0.35;stroke:none;"/>
  </g>
</mask>
<clipPath id="clip1">
  <rect x="0" y="0" width="24" height="24"/>
</clipPath>
<g id="surface5" clip-path="url(#clip1)">
<path style=" stroke:none;fill-rule:nonzero;fill:rgb(33.333334%,34.117648%,32.549021%);fill-opacity:1;" d="M 4.5 4.5 L 9 19.5 L 19.5 19.5 L 19.5 4.5 Z M 4.5 4.5 "/>
</g>
</defs>
<g id="surface1">
<path style=" stroke:none;fill-rule:nonzero;fill:rgb(33.333334%,34.117648%,32.549021%);fill-opacity:1;" d="M 4.5 1.5 C 2.84375 1.5 1.5 2.84375 1.5 4.5 C 1.542969 5.890625 2.535156 7.070312 3.898438 7.351562 L 6.898438 17.398438 C 6.335938 17.953125 6.011719 18.707031 6 19.5 C 6 21.15625 7.34375 22.5 9 22.5 C 10.054688 22.484375 11.023438 21.914062 11.550781 21 L 16.949219 21 C 17.476562 21.914062 18.445312 22.484375 19.5 22.5 C 21.15625 22.5 22.5 21.15625 22.5 19.5 C 22.484375 18.445312 21.914062 17.476562 21 16.949219 L 21 7.050781 C 21.914062 6.523438 22.484375 5.554688 22.5 4.5 C 22.5 2.84375 21.15625 1.5 19.5 1.5 C 18.445312 1.515625 17.476562 2.085938 16.949219 3 L 7.050781 3 C 6.523438 2.085938 5.554688 1.515625 4.5 1.5 Z M 7.050781 6 L 16.949219 6 C 17.207031 6.433594 17.566406 6.792969 18 7.050781 L 18 16.949219 C 17.566406 17.207031 17.207031 17.566406 16.949219 18 L 11.550781 18 C 11.144531 17.246094 10.433594 16.699219 9.601562 16.5 L 6.75 6.601562 C 6.871094 6.410156 6.972656 6.210938 7.050781 6 Z M 7.050781 6 "/>
<use xlink:href="#surface5" mask="url(#mask0)"/>
</g>
</svg>
