<?xml version="1.0" encoding="UTF-8"?>
<svg xmlns="http://www.w3.org/2000/svg" xmlns:xlink="http://www.w3.org/1999/xlink" width="24px" height="24px" viewBox="0 0 24 24" version="1.1">
<defs>
<filter id="alpha" filterUnits="objectBoundingBox" x="0%" y="0%" width="100%" height="100%">
  <feColorMatrix type="matrix" in="SourceGraphic" values="0 0 0 0 1 0 0 0 0 1 0 0 0 0 1 0 0 0 1 0"/>
</filter>
<mask id="mask0">
  <g filter="url(#alpha)">
<rect x="0" y="0" width="24" height="24" style="fill:rgb(0%,0%,0%);fill-opacity:0.35;stroke:none;"/>
  </g>
</mask>
<clipPath id="clip1">
  <rect x="0" y="0" width="24" height="24"/>
</clipPath>
<g id="surface5" clip-path="url(#clip1)">
<path style=" stroke:none;fill-rule:nonzero;fill:rgb(33.333334%,34.117648%,32.549021%);fill-opacity:1;" d="M 7.5 4.5 L 7.5 7.5 L 12.261719 7.5 L 14.992188 4.773438 C 14.523438 4.605469 14.023438 4.5 13.5 4.5 Z M 9 10.5 C 6.515625 10.5 4.5 12.515625 4.5 15 C 4.5 15.082031 4.519531 15.160156 4.523438 15.238281 L 9.261719 10.5 Z M 9 10.5 "/>
</g>
</defs>
<g id="surface1">
<use xlink:href="#surface5" mask="url(#mask0)"/>
<path style=" stroke:none;fill-rule:nonzero;fill:rgb(33.333334%,34.117648%,32.549021%);fill-opacity:1;" d="M 18.894531 2.984375 L 21.015625 5.105469 L 5.105469 21.015625 L 2.984375 18.894531 Z M 18.894531 2.984375 "/>
<path style=" stroke:none;fill-rule:nonzero;fill:rgb(33.333334%,34.117648%,32.549021%);fill-opacity:1;" d="M 18 10.238281 L 14.738281 13.5 L 15 13.5 L 15 16.5 L 11.738281 16.5 L 8.761719 19.476562 C 8.84375 19.480469 8.917969 19.5 9 19.5 L 18 19.5 Z M 18 10.238281 "/>
</g>
</svg>
