<?xml version="1.0" encoding="UTF-8"?>
<svg xmlns="http://www.w3.org/2000/svg" xmlns:xlink="http://www.w3.org/1999/xlink" width="24px" height="24px" viewBox="0 0 24 24" version="1.1">
<g id="surface1">
<path style=" stroke:none;fill-rule:nonzero;fill:rgb(33.333334%,34.117648%,32.549021%);fill-opacity:1;" d="M 9 3 C 6.515625 3 4.5 5.015625 4.5 7.5 L 4.5 9 L 1.5 10.5 L 1.5 12 L 4.5 12 L 4.5 16.5 C 4.5 17.328125 3.828125 18 3 18 C 2.171875 18 1.5 17.328125 1.5 16.5 L 0 16.5 L 0 19.832031 C 0.796875 20.550781 1.84375 21 3 21 C 5.484375 21 7.5 18.984375 7.5 16.5 L 7.5 12 L 10.5 10.5 L 10.5 9 L 7.5 9 L 7.5 7.5 C 7.5 6.695312 8.054688 6 9 6 C 9.828125 6 10.5 6.671875 10.5 7.5 L 12 7.5 L 12 4.167969 C 11.203125 3.449219 10.15625 3 9 3 Z M 13.5 4.5 L 13.5 7.5 L 19.5 7.5 C 20.328125 7.5 21 8.171875 21 9 L 21 10.5 L 15 10.5 C 12.515625 10.5 10.5 12.515625 10.5 15 C 10.5 17.484375 12.515625 19.5 15 19.5 L 24 19.5 L 24 9 C 24 6.515625 21.984375 4.5 19.5 4.5 Z M 15 13.5 L 21 13.5 L 21 16.5 L 15 16.5 C 14.171875 16.5 13.5 15.828125 13.5 15 C 13.5 14.171875 14.171875 13.5 15 13.5 Z M 15 13.5 "/>
</g>
</svg>
