<?xml version="1.0" encoding="UTF-8"?>
<svg xmlns="http://www.w3.org/2000/svg" xmlns:xlink="http://www.w3.org/1999/xlink" width="24px" height="24px" viewBox="0 0 24 24" version="1.1">
<g id="surface1">
<path style=" stroke:none;fill-rule:nonzero;fill:rgb(33.333334%,34.117648%,32.549021%);fill-opacity:1;" d="M 3 1.5 C 2.167969 1.5 1.5 2.167969 1.5 3 L 1.5 9 C 1.5 9.832031 2.167969 10.5 3 10.5 L 9 10.5 C 9.832031 10.5 10.5 9.832031 10.5 9 L 10.5 3 C 10.5 2.167969 9.832031 1.5 9 1.5 Z M 16.5 1.5 L 16.5 3 C 16.5 3.398438 16.640625 3.796875 16.921875 4.078125 L 17.34375 4.5 L 12 4.5 L 12 7.5 L 17.34375 7.5 L 16.921875 7.921875 C 16.640625 8.203125 16.5 8.601562 16.5 9 L 16.5 10.5 L 18 10.5 C 18.398438 10.5 18.796875 10.359375 19.078125 10.078125 L 22.5 6.65625 L 22.5 5.34375 L 19.078125 1.921875 C 18.796875 1.640625 18.398438 1.5 18 1.5 Z M 4.5 4.5 L 7.5 4.5 L 7.5 7.5 L 4.5 7.5 Z M 21.75 10.5 C 21.195312 10.5 20.699219 10.726562 20.25 11.101562 L 14.324219 16.5 L 16.5 16.5 L 21.195312 12.238281 C 21.421875 12 21.554688 12 21.75 12 L 22.5 12 L 22.5 12.75 C 22.5 13.171875 22.828125 13.5 23.25 13.5 C 23.671875 13.5 24 13.171875 24 12.75 L 24 12 C 24 10.949219 23.765625 10.5 22.5 10.5 Z M 4.5 12 L 4.5 17.34375 L 4.078125 16.921875 C 3.796875 16.640625 3.398438 16.5 3 16.5 L 1.5 16.5 L 1.5 18 C 1.5 18.398438 1.640625 18.796875 1.921875 19.078125 L 5.34375 22.5 L 6.65625 22.5 L 10.078125 19.078125 C 10.359375 18.796875 10.5 18.398438 10.5 18 L 10.5 16.5 L 9 16.5 C 8.601562 16.5 8.203125 16.640625 7.921875 16.921875 L 7.5 17.34375 L 7.5 12 Z M 12 16.5 L 12 18 L 14.25 20.25 L 12 22.5 L 12 24 L 13.5 24 L 15.75 21.75 L 18 24 L 19.5 24 L 19.5 22.5 L 17.25 20.25 L 19.5 18 L 19.5 16.5 L 18 16.5 L 15.75 18.75 L 13.5 16.5 Z M 12 16.5 "/>
</g>
</svg>
