<?xml version="1.0" encoding="UTF-8"?>
<svg xmlns="http://www.w3.org/2000/svg" xmlns:xlink="http://www.w3.org/1999/xlink" width="24px" height="24px" viewBox="0 0 24 24" version="1.1">
<g id="surface1">
<path style=" stroke:none;fill-rule:nonzero;fill:rgb(33.333334%,34.117648%,32.549021%);fill-opacity:1;" d="M 7.5 0 L 1.5 6 L 1.5 9 L 15 9 L 15 22.5 L 18 22.5 L 24 16.5 L 24 0 Z M 8.742188 3 L 18.878906 3 L 15.878906 6 L 5.742188 6 Z M 21 5.121094 L 21 15.257812 L 18 18.257812 L 18 8.121094 Z M 0 12 L 0 13.5 C 0 16.8125 2.6875 19.5 6 19.5 L 8.734375 19.5 L 6.46875 21.421875 C 6.195312 21.707031 6 22.113281 6 22.5 L 6 24 L 7.5 24 C 7.964844 24 8.328125 23.863281 8.625 23.578125 L 13.5 19.3125 L 13.5 16.753906 C 11.875 15.316406 10.25 13.652344 8.625 12.421875 C 8.328125 12.136719 7.964844 12 7.5 12 L 6 12 L 6 13.5 C 6 13.886719 6.195312 14.292969 6.46875 14.578125 L 8.734375 16.5 L 6 16.5 C 4.34375 16.5 3 15.15625 3 13.5 L 3 12 Z M 0 12 "/>
</g>
</svg>
