<?xml version="1.0" encoding="UTF-8"?>
<svg xmlns="http://www.w3.org/2000/svg" xmlns:xlink="http://www.w3.org/1999/xlink" width="24px" height="24px" viewBox="0 0 24 24" version="1.1">
<defs>
<filter id="alpha" filterUnits="objectBoundingBox" x="0%" y="0%" width="100%" height="100%">
  <feColorMatrix type="matrix" in="SourceGraphic" values="0 0 0 0 1 0 0 0 0 1 0 0 0 0 1 0 0 0 1 0"/>
</filter>
<mask id="mask0">
  <g filter="url(#alpha)">
<rect x="0" y="0" width="24" height="24" style="fill:rgb(0%,0%,0%);fill-opacity:0.35;stroke:none;"/>
  </g>
</mask>
<clipPath id="clip1">
  <rect x="0" y="0" width="24" height="24"/>
</clipPath>
<g id="surface5" clip-path="url(#clip1)">
<path style=" stroke:none;fill-rule:nonzero;fill:rgb(33.333334%,34.117648%,32.549021%);fill-opacity:1;" d="M 11.996094 5.199219 L 20.816406 17.691406 L 20.832031 17.710938 C 21.027344 17.980469 21 18.042969 21 18 C 21 18.035156 20.769531 18.746094 19.144531 19.558594 C 17.515625 20.371094 14.910156 21 12 21 C 9.089844 21 6.484375 20.371094 4.855469 19.558594 C 3.230469 18.746094 3 18.035156 3 18 C 3 17.996094 3.003906 17.9375 3.09375 17.789062 C 3.097656 17.785156 3.09375 17.785156 3.097656 17.78125 Z M 11.996094 5.199219 "/>
</g>
</defs>
<g id="surface1">
<path style=" stroke:none;fill-rule:nonzero;fill:rgb(33.333334%,34.117648%,32.549021%);fill-opacity:1;" d="M 12 0 L 0.5625 16.171875 C 0.199219 16.746094 0 17.367188 0 18 C 0 21.3125 5.371094 24 12 24 C 18.628906 24 24 21.3125 24 18 C 24 17.273438 23.722656 16.582031 23.25 15.9375 Z M 11.996094 5.199219 L 20.816406 17.691406 L 20.832031 17.710938 C 21.027344 17.980469 21 18.042969 21 18 C 21 18.035156 20.769531 18.746094 19.144531 19.558594 C 17.515625 20.371094 14.910156 21 12 21 C 9.089844 21 6.484375 20.371094 4.855469 19.558594 C 3.230469 18.746094 3 18.035156 3 18 C 3 17.996094 3.003906 17.9375 3.09375 17.789062 C 3.097656 17.785156 3.09375 17.785156 3.097656 17.78125 Z M 11.996094 5.199219 "/>
<use xlink:href="#surface5" mask="url(#mask0)"/>
</g>
</svg>
