<?xml version="1.0" encoding="UTF-8"?>
<svg xmlns="http://www.w3.org/2000/svg" xmlns:xlink="http://www.w3.org/1999/xlink" width="24px" height="24px" viewBox="0 0 24 24" version="1.1">
<g id="surface1">
<path style="fill-rule:nonzero;fill:rgb(94.117647%,89.019608%,92.54902%);fill-opacity:1;stroke-width:1;stroke-linecap:round;stroke-linejoin:round;stroke:rgb(90.196079%,0.784314%,70.588237%);stroke-opacity:1;stroke-miterlimit:4;" d="M 8.367188 9.796875 L 9.859375 11.242188 C 9.4375 12.169271 9.645833 13.263021 10.380208 13.96875 C 10.947917 14.515625 11.747396 14.75 12.520833 14.59375 C 12.015625 13.820312 11.328125 12.916667 11.908854 12.473958 C 12.989583 11.645833 13.171875 12.796875 14 13.640625 C 14.697917 12.669271 14.578125 11.333333 13.71875 10.502604 C 12.984375 9.796875 11.885417 9.630208 10.973958 10.085938 L 9.486979 8.635417 Z M 7.328125 6.575521 L 5.838542 5.140625 C 6.260417 4.213542 6.054688 3.119792 5.320312 2.414062 C 4.752604 1.867188 3.950521 1.632812 3.177083 1.789062 C 3.682292 2.5625 4.372396 3.466146 3.791667 3.908854 C 2.710938 4.736979 2.526042 3.585938 1.700521 2.742188 C 1 3.713542 1.119792 5.049479 1.981771 5.880208 C 2.716146 6.585938 3.815104 6.752604 4.726562 6.296875 L 6.174479 7.739583 Z M 7.328125 6.575521 " transform="matrix(1.5,0,0,1.5,0,0)"/>
<path style="fill-rule:nonzero;fill:rgb(95.294118%,71.764708%,85.09804%);fill-opacity:1;stroke-width:1;stroke-linecap:round;stroke-linejoin:round;stroke:rgb(61.56863%,22.745098%,60.784316%);stroke-opacity:1;stroke-miterlimit:4;" d="M 9.5 4.5 C 12.351562 1.695312 13.0625 0.992188 14.114583 2.0625 C 15.166667 3.130208 14.455729 3.833333 11.604167 6.638021 Z M 9.5 4.5 " transform="matrix(1.5,0,0,1.5,0,0)"/>
<path style="fill-rule:nonzero;fill:rgb(95.294118%,71.764708%,85.09804%);fill-opacity:1;stroke-width:1;stroke-linecap:butt;stroke-linejoin:miter;stroke:rgb(61.56863%,22.745098%,60.784316%);stroke-opacity:1;stroke-miterlimit:4;" d="M 10.552083 5.570312 L 14.114583 2.0625 " transform="matrix(1.5,0,0,1.5,0,0)"/>
<path style="fill-rule:nonzero;fill:rgb(95.294118%,71.764708%,85.09804%);fill-opacity:1;stroke-width:1;stroke-linecap:butt;stroke-linejoin:round;stroke:rgb(61.56863%,22.745098%,60.784316%);stroke-opacity:1;stroke-miterlimit:4;" d="M 9.5 4.5 L 11.604167 6.638021 L 10.536458 7.690104 L 8.429688 5.552083 Z M 9.5 4.5 " transform="matrix(1.5,0,0,1.5,0,0)"/>
<path style=" stroke:none;fill-rule:nonzero;fill:rgb(61.56863%,22.745098%,60.784316%);fill-opacity:1;" d="M 13.699219 9.398438 L 5.144531 17.816406 L 3.015625 18.859375 L 1.667969 21.765625 L 2.195312 22.300781 L 5.121094 20.996094 L 6.199219 18.882812 L 14.75 10.464844 Z M 13.699219 9.398438 "/>
</g>
</svg>
