<?xml version="1.0" encoding="UTF-8"?>
<svg xmlns="http://www.w3.org/2000/svg" xmlns:xlink="http://www.w3.org/1999/xlink" width="24px" height="24px" viewBox="0 0 24 24" version="1.1">
<g id="surface1">
<path style=" stroke:none;fill-rule:nonzero;fill:rgb(90.196079%,0.784314%,70.588237%);fill-opacity:1;" d="M 15.742188 1.445312 C 15.308594 1.445312 14.882812 1.53125 14.484375 1.6875 C 14.21875 1.605469 13.945312 1.550781 13.660156 1.550781 C 12.914062 1.550781 12.261719 1.855469 11.738281 2.308594 C 11.238281 2.253906 10.734375 2.300781 10.246094 2.441406 C 10.042969 2.5 9.859375 2.59375 9.671875 2.683594 C 9.292969 2.554688 8.898438 2.472656 8.492188 2.449219 C 7.578125 2.398438 6.683594 2.628906 5.96875 3.183594 C 5.5 3.546875 5.140625 4.085938 4.945312 4.683594 C 4.394531 5.210938 4.054688 5.941406 3.984375 6.703125 C 3.742188 6.824219 3.511719 6.96875 3.300781 7.148438 C 2.570312 7.777344 2.132812 8.832031 2.265625 9.855469 C 2.335938 10.375 2.527344 10.835938 2.789062 11.25 C 2.246094 12.4375 2.261719 13.863281 3.101562 14.925781 C 3.550781 15.496094 4.136719 15.890625 4.78125 16.148438 C 4.785156 16.152344 4.789062 16.15625 4.789062 16.160156 C 4.398438 16.710938 4.226562 17.472656 4.335938 18.191406 C 4.238281 18.289062 4.140625 18.390625 4.054688 18.507812 C 3.652344 19.066406 3.53125 19.972656 3.839844 20.65625 C 4.457031 22.015625 5.6875 22.289062 6.84375 22.054688 C 7.421875 21.9375 7.988281 21.648438 8.394531 21.089844 C 8.464844 20.992188 8.511719 20.875 8.566406 20.761719 C 8.640625 20.75 8.714844 20.757812 8.792969 20.742188 C 9.636719 20.574219 10.40625 20.15625 10.925781 19.4375 C 11.058594 19.253906 11.167969 19.042969 11.25 18.816406 C 11.476562 18.863281 11.703125 18.925781 11.941406 18.925781 C 13.164062 18.925781 14.25 18.277344 14.878906 17.3125 C 14.972656 17.320312 15.066406 17.34375 15.160156 17.34375 C 16.804688 17.34375 18.199219 16.175781 18.570312 14.636719 C 18.941406 14.484375 19.300781 14.292969 19.625 14.050781 C 21.453125 12.675781 22.101562 10.066406 20.707031 8.199219 C 20.941406 7.105469 20.765625 5.945312 20.066406 5.015625 C 19.808594 4.675781 19.5 4.390625 19.152344 4.15625 C 18.785156 2.617188 17.390625 1.445312 15.746094 1.445312 Z M 15.742188 1.445312 "/>
<path style=" stroke:none;fill-rule:nonzero;fill:rgb(94.117647%,89.019608%,92.54902%);fill-opacity:1;" d="M 15.746094 3.082031 C 15.300781 3.082031 14.875 3.242188 14.535156 3.527344 C 14.277344 3.308594 13.972656 3.1875 13.660156 3.1875 C 13.089844 3.1875 12.570312 3.574219 12.304688 4.1875 C 11.859375 3.914062 11.265625 3.851562 10.699219 4.015625 C 10.351562 4.113281 10.039062 4.292969 9.792969 4.53125 C 9.375 4.265625 8.886719 4.109375 8.402344 4.082031 C 7.257812 4.019531 6.394531 4.6875 6.414062 5.621094 C 5.8125 5.917969 5.5 6.480469 5.582031 7.109375 C 5.617188 7.394531 5.738281 7.679688 5.925781 7.945312 C 5.90625 7.941406 5.886719 7.941406 5.867188 7.9375 C 4.640625 7.871094 3.757812 8.636719 3.890625 9.644531 C 3.964844 10.191406 4.332031 10.726562 4.894531 11.101562 C 3.921875 11.898438 3.714844 13.058594 4.386719 13.914062 C 4.734375 14.347656 5.273438 14.660156 5.917969 14.792969 C 5.984375 15.007812 6.089844 15.210938 6.234375 15.394531 C 6.628906 15.890625 7.277344 16.222656 8.035156 16.316406 L 7.984375 16.40625 C 7.734375 16.386719 7.488281 16.402344 7.253906 16.449219 C 6.230469 16.652344 5.675781 17.421875 6.015625 18.164062 C 6.113281 18.382812 6.285156 18.585938 6.515625 18.753906 C 6.472656 18.894531 6.433594 19.019531 6.390625 19.140625 C 6.238281 19.117188 6.078125 19.117188 5.929688 19.148438 C 5.433594 19.246094 5.167969 19.621094 5.328125 19.980469 C 5.492188 20.339844 6.023438 20.550781 6.519531 20.449219 C 7.015625 20.351562 7.28125 19.980469 7.121094 19.621094 C 7.085938 19.550781 7.039062 19.484375 6.980469 19.421875 L 7.261719 19.09375 C 7.652344 19.199219 8.078125 19.214844 8.472656 19.136719 C 9.492188 18.929688 10.046875 18.164062 9.710938 17.421875 C 9.617188 17.214844 9.460938 17.027344 9.257812 16.871094 L 10.175781 16.03125 C 10.4375 16.785156 11.144531 17.289062 11.941406 17.289062 C 12.976562 17.289062 13.816406 16.449219 13.816406 15.414062 C 13.816406 15.3125 13.808594 15.207031 13.792969 15.105469 C 14.144531 15.488281 14.644531 15.707031 15.164062 15.707031 C 16.199219 15.707031 17.039062 14.867188 17.039062 13.832031 C 17.039062 13.667969 17.015625 13.503906 16.976562 13.347656 C 17.5625 13.324219 18.148438 13.109375 18.644531 12.742188 C 19.855469 11.828125 20.191406 10.230469 19.390625 9.167969 C 19.238281 8.964844 19.042969 8.789062 18.824219 8.652344 C 19.335938 7.761719 19.308594 6.734375 18.757812 6 C 18.476562 5.625 18.074219 5.351562 17.601562 5.21875 C 17.613281 5.132812 17.621094 5.042969 17.621094 4.957031 C 17.621094 3.921875 16.78125 3.082031 15.746094 3.082031 Z M 15.746094 3.082031 "/>
</g>
</svg>
