<?xml version="1.0" encoding="UTF-8"?>
<svg xmlns="http://www.w3.org/2000/svg" xmlns:xlink="http://www.w3.org/1999/xlink" width="24px" height="24px" viewBox="0 0 24 24" version="1.1">
<defs>
<linearGradient id="linear0" gradientUnits="userSpaceOnUse" x1="78.668526" y1="202.666656" x2="78.668526" y2="-32.003304" gradientTransform="matrix(0.1875,0,0,0.1875,0,0.00119401)">
<stop offset="0" style="stop-color:rgb(100%,100%,100%);stop-opacity:1;"/>
<stop offset="0.59375" style="stop-color:rgb(100%,100%,100%);stop-opacity:1;"/>
<stop offset="0.84375" style="stop-color:rgb(94.509804%,94.509804%,94.509804%);stop-opacity:1;"/>
<stop offset="0.90625" style="stop-color:rgb(91.764706%,91.764706%,91.764706%);stop-opacity:1;"/>
<stop offset="1" style="stop-color:rgb(87.450981%,87.450981%,87.450981%);stop-opacity:1;"/>
</linearGradient>
</defs>
<g id="surface1">
<path style=" stroke:none;fill-rule:nonzero;fill:rgb(90.196079%,0.784314%,70.588237%);fill-opacity:1;" d="M 3 1.5 C 2.171875 1.5 1.5 2.113281 1.5 2.863281 L 1.5 15.136719 C 1.5 15.890625 2.171875 16.5 3 16.5 L 3.574219 16.5 L 1.660156 19.980469 C 1.34375 20.554688 1.511719 21.25 2.058594 21.652344 C 2.605469 22.050781 3.386719 22.054688 3.9375 21.65625 L 11.027344 16.5 L 21 16.5 C 21.828125 16.5 22.5 15.890625 22.5 15.136719 L 22.5 2.863281 C 22.5 2.113281 21.828125 1.5 21 1.5 Z M 3 1.5 "/>
<path style=" stroke:none;fill-rule:nonzero;fill:url(#linear0);" d="M 3 3 L 3 15 L 6 15 L 3 20.332031 L 10.5 15 L 21 15 L 21 3 Z M 3 3 "/>
</g>
</svg>
