<?xml version="1.0" encoding="UTF-8"?>
<svg xmlns="http://www.w3.org/2000/svg" xmlns:xlink="http://www.w3.org/1999/xlink" width="24px" height="24px" viewBox="0 0 24 24" version="1.1">
<g id="surface1">
<path style=" stroke:none;fill-rule:nonzero;fill:rgb(33.333334%,34.117648%,32.549021%);fill-opacity:1;" d="M 7.5 0 C 7.035156 0 6.671875 0.136719 6.375 0.421875 C 4.25 2.03125 2.125 4.390625 0 6 L 6.375 11.578125 C 6.671875 11.863281 7.035156 12 7.5 12 L 9 12 L 9 10.5 C 9 10.113281 8.804688 9.707031 8.53125 9.421875 L 6.265625 7.5 L 10.5 7.5 L 10.5 19.5 L 17.734375 19.5 L 15.46875 21.421875 C 15.195312 21.707031 15 22.113281 15 22.5 L 15 24 L 16.5 24 C 16.964844 24 17.328125 23.863281 17.625 23.578125 C 19.75 21.96875 21.875 19.609375 24 18 L 17.625 12.421875 C 17.328125 12.136719 16.964844 12 16.5 12 L 15 12 L 15 13.5 C 15 13.886719 15.195312 14.292969 15.46875 14.578125 L 17.734375 16.5 L 13.5 16.5 L 13.5 4.5 L 6.265625 4.5 L 8.53125 2.578125 C 8.804688 2.292969 9 1.886719 9 1.5 L 9 0 Z M 7.5 0 "/>
</g>
</svg>
