<?xml version="1.0" encoding="UTF-8"?>
<svg xmlns="http://www.w3.org/2000/svg" xmlns:xlink="http://www.w3.org/1999/xlink" width="24px" height="24px" viewBox="0 0 24 24" version="1.1">
<g id="surface1">
<path style=" stroke:none;fill-rule:nonzero;fill:rgb(33.333334%,34.117648%,32.549021%);fill-opacity:1;" d="M 9 0 C 5.699219 0 3 2.699219 3 6 L 3 6.898438 L 2.550781 6.449219 C 2.25 6.148438 1.949219 6 1.5 6 L 0 6 L 0 7.5 C 0 7.949219 0.148438 8.25 0.449219 8.550781 L 3.898438 12 L 5.15625 12 L 5.550781 11.550781 L 8.550781 8.550781 C 8.851562 8.25 9 7.949219 9 7.5 L 9 6 L 7.5 6 C 7.050781 6 6.75 6.148438 6.449219 6.449219 L 6 6.898438 L 6 6 C 6 4.351562 7.351562 3 9 3 C 10.648438 3 12 4.351562 12 6 L 15 6 C 15 2.699219 12.300781 0 9 0 Z M 16.5 4.5 L 16.5 7.5 L 21 7.5 L 21 19.5 L 18 18 L 15 19.5 L 10.5 13.5 L 6 18 L 6 13.5 L 3 13.5 L 3 22.5 L 24 22.5 L 24 4.5 Z M 16.5 9 C 14.851562 9 13.5 10.351562 13.5 12 C 13.5 13.648438 14.851562 15 16.5 15 C 18.148438 15 19.5 13.648438 19.5 12 C 19.5 10.351562 18.148438 9 16.5 9 Z M 16.5 9 "/>
</g>
</svg>
