<?xml version="1.0" encoding="UTF-8"?>
<svg xmlns="http://www.w3.org/2000/svg" xmlns:xlink="http://www.w3.org/1999/xlink" width="24px" height="24px" viewBox="0 0 24 24" version="1.1">
<defs>
<filter id="alpha" filterUnits="objectBoundingBox" x="0%" y="0%" width="100%" height="100%">
  <feColorMatrix type="matrix" in="SourceGraphic" values="0 0 0 0 1 0 0 0 0 1 0 0 0 0 1 0 0 0 1 0"/>
</filter>
<mask id="mask0">
  <g filter="url(#alpha)">
<rect x="0" y="0" width="24" height="24" style="fill:rgb(0%,0%,0%);fill-opacity:0.75;stroke:none;"/>
  </g>
</mask>
<clipPath id="clip1">
  <rect x="0" y="0" width="24" height="24"/>
</clipPath>
<g id="surface5" clip-path="url(#clip1)">
<path style=" stroke:none;fill-rule:nonzero;fill:rgb(94.117647%,89.019608%,92.54902%);fill-opacity:1;" d="M 4.5 5.242188 L 4.5 17.257812 C 4.5 17.667969 4.832031 18 5.242188 18 L 17.257812 18 C 17.667969 18 18 17.667969 18 17.257812 L 18 5.242188 C 18 4.832031 17.667969 4.5 17.257812 4.5 L 5.242188 4.5 C 4.832031 4.5 4.5 4.832031 4.5 5.242188 Z M 4.5 5.242188 "/>
</g>
</defs>
<g id="surface1">
<path style=" stroke:none;fill-rule:nonzero;fill:rgb(61.56863%,22.745098%,60.784316%);fill-opacity:0.091954;" d="M 1.527344 4.5 L 17.972656 4.5 C 17.988281 4.5 18 4.515625 18 4.535156 L 18 22.464844 C 18 22.484375 17.988281 22.5 17.972656 22.5 L 1.527344 22.5 C 1.511719 22.5 1.5 22.484375 1.5 22.464844 L 1.5 4.535156 C 1.5 4.515625 1.511719 4.5 1.527344 4.5 Z M 1.527344 4.5 "/>
<use xlink:href="#surface5" mask="url(#mask0)"/>
<path style=" stroke:none;fill-rule:evenodd;fill:rgb(61.56863%,22.745098%,60.784316%);fill-opacity:1;" d="M 6 6.226562 L 6 16.273438 C 6 16.398438 6.121094 16.5 6.269531 16.5 L 16.230469 16.5 C 16.378906 16.5 16.5 16.398438 16.5 16.273438 L 16.5 6.226562 C 16.5 6.101562 16.378906 6 16.230469 6 L 6.269531 6 C 6.121094 6 6 6.101562 6 6.226562 Z M 6 6.226562 "/>
<path style=" stroke:none;fill-rule:nonzero;fill:rgb(61.56863%,22.745098%,60.784316%);fill-opacity:1;" d="M 18 12.023438 L 18 13.5 L 16.5 13.5 L 16.5 12.023438 Z M 18 12.023438 "/>
<path style=" stroke:none;fill-rule:evenodd;fill:rgb(90.196079%,0.784314%,70.588237%);fill-opacity:1;" d="M 0.0390625 24 L 2.960938 24 C 2.984375 24 3 23.980469 3 23.953125 L 3 21.046875 C 3 21.019531 2.984375 21 2.960938 21 L 0.0390625 21 C 0.015625 21 0 21.019531 0 21.046875 L 0 23.953125 C 0 23.980469 0.015625 24 0.0390625 24 Z M 0.0390625 24 "/>
<path style=" stroke:none;fill-rule:nonzero;fill:rgb(90.196079%,0.784314%,70.588237%);fill-opacity:1;" d="M 16.539062 24 L 19.460938 24 C 19.484375 24 19.5 23.980469 19.5 23.953125 L 19.5 21.046875 C 19.5 21.019531 19.484375 21 19.460938 21 L 16.539062 21 C 16.515625 21 16.5 21.019531 16.5 21.046875 L 16.5 23.953125 C 16.5 23.980469 16.515625 24 16.539062 24 Z M 16.539062 24 "/>
<path style=" stroke:none;fill-rule:nonzero;fill:rgb(90.196079%,0.784314%,70.588237%);fill-opacity:1;" d="M 0.0390625 6 L 2.960938 6 C 2.984375 6 3 5.980469 3 5.953125 L 3 3.046875 C 3 3.019531 2.984375 3 2.960938 3 L 0.0390625 3 C 0.015625 3 0 3.019531 0 3.046875 L 0 5.953125 C 0 5.980469 0.015625 6 0.0390625 6 Z M 0.0390625 6 "/>
<path style=" stroke:none;fill-rule:nonzero;fill:rgb(61.56863%,22.745098%,60.784316%);fill-opacity:1;" d="M 18 15.023438 L 18 16.5 L 16.5 16.5 L 16.5 15.023438 Z M 18 15.023438 "/>
<path style=" stroke:none;fill-rule:nonzero;fill:rgb(61.56863%,22.745098%,60.784316%);fill-opacity:1;" d="M 18.03125 18.023438 L 18.03125 19.5 L 16.53125 19.5 L 16.53125 18.023438 Z M 18.03125 18.023438 "/>
<path style=" stroke:none;fill-rule:nonzero;fill:rgb(61.56863%,22.745098%,60.784316%);fill-opacity:1;" d="M 15 21.023438 L 15 22.5 L 13.5 22.5 L 13.5 21.023438 Z M 15 21.023438 "/>
<path style=" stroke:none;fill-rule:nonzero;fill:rgb(61.56863%,22.745098%,60.784316%);fill-opacity:1;" d="M 12 21.023438 L 12 22.5 L 10.5 22.5 L 10.5 21.023438 Z M 12 21.023438 "/>
<path style=" stroke:none;fill-rule:nonzero;fill:rgb(61.56863%,22.745098%,60.784316%);fill-opacity:1;" d="M 9 21.023438 L 9 22.5 L 7.5 22.5 L 7.5 21.023438 Z M 9 21.023438 "/>
<path style=" stroke:none;fill-rule:nonzero;fill:rgb(61.56863%,22.745098%,60.784316%);fill-opacity:1;" d="M 6 21.023438 L 6 22.5 L 4.5 22.5 L 4.5 21.023438 Z M 6 21.023438 "/>
<path style=" stroke:none;fill-rule:nonzero;fill:rgb(61.56863%,22.745098%,60.784316%);fill-opacity:1;" d="M 15 4.5 L 15 5.976562 L 13.5 5.976562 L 13.5 4.5 Z M 15 4.5 "/>
<path style=" stroke:none;fill-rule:nonzero;fill:rgb(61.56863%,22.745098%,60.784316%);fill-opacity:1;" d="M 12 4.5 L 12 5.976562 L 10.5 5.976562 L 10.5 4.5 Z M 12 4.5 "/>
<path style=" stroke:none;fill-rule:nonzero;fill:rgb(61.56863%,22.745098%,60.784316%);fill-opacity:1;" d="M 9 4.5 L 9 5.976562 L 7.5 5.976562 L 7.5 4.5 Z M 9 4.5 "/>
<path style=" stroke:none;fill-rule:nonzero;fill:rgb(61.56863%,22.745098%,60.784316%);fill-opacity:1;" d="M 6 4.5 L 6 5.976562 L 4.5 5.976562 L 4.5 4.5 Z M 6 4.5 "/>
<path style=" stroke:none;fill-rule:nonzero;fill:rgb(61.56863%,22.745098%,60.784316%);fill-opacity:1;" d="M 2.976562 19.5 L 1.5 19.5 L 1.5 18 L 2.976562 18 Z M 2.976562 19.5 "/>
<path style=" stroke:none;fill-rule:nonzero;fill:rgb(61.56863%,22.745098%,60.784316%);fill-opacity:1;" d="M 2.976562 16.5 L 1.5 16.5 L 1.5 15 L 2.976562 15 Z M 2.976562 16.5 "/>
<path style=" stroke:none;fill-rule:nonzero;fill:rgb(61.56863%,22.745098%,60.784316%);fill-opacity:1;" d="M 2.976562 13.5 L 1.5 13.5 L 1.5 12 L 2.976562 12 Z M 2.976562 13.5 "/>
<path style=" stroke:none;fill-rule:nonzero;fill:rgb(61.56863%,22.745098%,60.784316%);fill-opacity:1;" d="M 2.976562 10.5 L 1.5 10.5 L 1.5 9 L 2.976562 9 Z M 2.976562 10.5 "/>
<path style="fill-rule:nonzero;fill:rgb(95.294118%,71.764708%,85.09804%);fill-opacity:1;stroke-width:0.25;stroke-linecap:round;stroke-linejoin:round;stroke:rgb(90.196079%,0.784314%,70.588237%);stroke-opacity:1;stroke-miterlimit:4;" d="M 19.506601 13.355524 L 28.647226 9.089899 L 29.095142 8.485732 L 25.756601 6.253962 L 24.93108 6.488337 L 20.001392 12.194066 Z M 19.506601 13.355524 " transform="matrix(1.5,0,0,1.5,-25.853651,-0.31063)"/>
<path style=" stroke:none;fill-rule:nonzero;fill:rgb(94.117647%,89.019608%,92.54902%);fill-opacity:0.772549;" d="M 17.644531 11.730469 L 4.316406 18.105469 L 3.78125 19.359375 L 17.457031 12.964844 L 18.132812 12.058594 Z M 17.644531 11.730469 "/>
<path style="fill-rule:nonzero;fill:rgb(94.117647%,89.019608%,92.54902%);fill-opacity:1;stroke-width:0.25;stroke-linecap:butt;stroke-linejoin:miter;stroke:rgb(90.196079%,0.784314%,70.588237%);stroke-opacity:1;stroke-miterlimit:4;" d="M 12.562518 23.184108 L 16.37955 23.18328 C 16.634331 23.182262 16.841457 23.392087 16.842475 23.646868 L 16.841579 27.192458 C 16.842598 27.447239 16.634484 27.656328 16.377992 27.655383 L 12.562924 27.6545 C 12.308143 27.655518 12.100765 27.449368 12.10171 27.192876 L 12.100894 23.645322 C 12.099876 23.390541 12.307738 23.185127 12.562518 23.184108 Z M 12.562518 23.184108 " transform="matrix(0.985754,-1.130614,1.130614,0.985754,-25.853651,-0.31063)"/>
<path style=" stroke:none;fill-rule:nonzero;fill:rgb(90.196079%,0.784314%,70.588237%);fill-opacity:1;" d="M 26.363281 2.996094 L 20.8125 -1.671875 L 13.238281 7.332031 L 18.785156 12 Z M 26.363281 2.996094 "/>
<path style=" stroke:none;fill-rule:nonzero;fill:rgb(61.56863%,22.745098%,60.784316%);fill-opacity:1;" d="M 3 6.023438 L 3 7.5 L 1.5 7.5 L 1.5 6.023438 Z M 3 6.023438 "/>
</g>
</svg>
