<?xml version="1.0" encoding="UTF-8"?>
<svg xmlns="http://www.w3.org/2000/svg" xmlns:xlink="http://www.w3.org/1999/xlink" width="24px" height="24px" viewBox="0 0 24 24" version="1.1">
<defs>
<filter id="alpha" filterUnits="objectBoundingBox" x="0%" y="0%" width="100%" height="100%">
  <feColorMatrix type="matrix" in="SourceGraphic" values="0 0 0 0 1 0 0 0 0 1 0 0 0 0 1 0 0 0 1 0"/>
</filter>
<mask id="mask0">
  <g filter="url(#alpha)">
<rect x="0" y="0" width="24" height="24" style="fill:rgb(0%,0%,0%);fill-opacity:0.35;stroke:none;"/>
  </g>
</mask>
<clipPath id="clip1">
  <rect x="0" y="0" width="24" height="24"/>
</clipPath>
<g id="surface5" clip-path="url(#clip1)">
<path style=" stroke:none;fill-rule:nonzero;fill:rgb(33.333334%,34.117648%,32.549021%);fill-opacity:1;" d="M 16.5 1.5 L 16.5 3 C 16.5 3.398438 16.640625 3.796875 16.921875 4.078125 L 17.34375 4.5 L 12 4.5 L 12 7.5 L 17.34375 7.5 L 16.921875 7.921875 C 16.640625 8.203125 16.5 8.601562 16.5 9 L 16.5 10.5 L 18 10.5 C 18.398438 10.5 18.796875 10.359375 19.078125 10.078125 L 22.5 6.65625 L 22.5 5.34375 L 19.078125 1.921875 C 18.796875 1.640625 18.398438 1.5 18 1.5 Z M 16.5 1.5 "/>
</g>
</defs>
<g id="surface1">
<path style=" stroke:none;fill-rule:nonzero;fill:rgb(33.333334%,34.117648%,32.549021%);fill-opacity:1;" d="M 3 1.5 C 2.167969 1.5 1.5 2.167969 1.5 3 L 1.5 9 C 1.5 9.832031 2.167969 10.5 3 10.5 L 9 10.5 C 9.832031 10.5 10.5 9.832031 10.5 9 L 10.5 3 C 10.5 2.167969 9.832031 1.5 9 1.5 Z M 4.5 4.5 L 7.5 4.5 L 7.5 7.5 L 4.5 7.5 Z M 3 13.5 C 2.167969 13.5 1.5 14.167969 1.5 15 L 1.5 21 C 1.5 21.832031 2.167969 22.5 3 22.5 L 9 22.5 C 9.832031 22.5 10.5 21.832031 10.5 21 L 10.5 15 C 10.5 14.167969 9.832031 13.5 9 13.5 Z M 15 15 L 15 16.5 L 17.25 18.75 L 15 21 L 15 22.5 L 16.5 22.5 L 18.75 20.25 L 21 22.5 L 22.5 22.5 L 22.5 21 L 20.25 18.75 L 22.5 16.5 L 22.5 15 L 21 15 L 18.75 17.25 L 16.5 15 Z M 4.5 16.5 L 7.5 16.5 L 7.5 19.5 L 4.5 19.5 Z M 4.5 16.5 "/>
<use xlink:href="#surface5" mask="url(#mask0)"/>
</g>
</svg>
