<?xml version="1.0" encoding="UTF-8"?>
<svg xmlns="http://www.w3.org/2000/svg" xmlns:xlink="http://www.w3.org/1999/xlink" width="24px" height="24px" viewBox="0 0 24 24" version="1.1">
<defs>
<filter id="alpha" filterUnits="objectBoundingBox" x="0%" y="0%" width="100%" height="100%">
  <feColorMatrix type="matrix" in="SourceGraphic" values="0 0 0 0 1 0 0 0 0 1 0 0 0 0 1 0 0 0 1 0"/>
</filter>
<mask id="mask0">
  <g filter="url(#alpha)">
<rect x="0" y="0" width="24" height="24" style="fill:rgb(0%,0%,0%);fill-opacity:0.35;stroke:none;"/>
  </g>
</mask>
<clipPath id="clip1">
  <rect x="0" y="0" width="24" height="24"/>
</clipPath>
<g id="surface5" clip-path="url(#clip1)">
<path style=" stroke:none;fill-rule:nonzero;fill:rgb(33.333334%,34.117648%,32.549021%);fill-opacity:1;" d="M 4.5 4.5 C 3.671875 4.5 3 5.171875 3 6 C 3 6.828125 3.671875 7.5 4.5 7.5 C 5.328125 7.5 6 6.828125 6 6 C 6 5.171875 5.328125 4.5 4.5 4.5 Z M 4.5 4.5 "/>
</g>
</defs>
<g id="surface1">
<path style=" stroke:none;fill-rule:nonzero;fill:rgb(33.333334%,34.117648%,32.549021%);fill-opacity:1;" d="M 4.5 1.5 C 2.015625 1.5 0 3.515625 0 6 C 0 8.484375 2.015625 10.5 4.5 10.5 C 6.40625 10.5 8.105469 9.296875 8.738281 7.5 C 8.828125 7.5 8.910156 7.5 9 7.5 C 11.363281 7.503906 13.871094 7.496094 15.863281 7.5 C 14.914062 8.277344 13.679688 9.183594 11.207031 10.730469 C 8.175781 12.621094 6.28125 13.914062 5.140625 15.027344 C 4.570312 15.582031 4.050781 16.0625 3.964844 17.066406 C 3.925781 17.570312 4.132812 18.183594 4.457031 18.550781 C 4.785156 18.917969 5.132812 19.121094 5.472656 19.214844 C 6.507812 19.5 8.238281 19.523438 10.332031 19.5 C 11.605469 19.484375 13.378906 19.496094 15 19.5 C 15.949219 19.503906 16.683594 19.5 17.734375 19.5 L 15.46875 21.421875 C 15.195312 21.707031 15 22.113281 15 22.5 L 15 24 L 16.5 24 C 16.964844 24 17.328125 23.863281 17.625 23.578125 C 19.75 21.96875 21.875 19.609375 24 18 L 17.625 12.421875 C 17.328125 12.136719 16.964844 12 16.5 12 L 15 12 L 15 13.5 C 15 13.886719 15.195312 14.292969 15.46875 14.578125 L 17.734375 16.5 C 16.808594 16.492188 15.941406 16.5 15 16.5 C 12.660156 16.503906 10.253906 16.511719 8.195312 16.5 C 9.121094 15.734375 10.335938 14.808594 12.792969 13.269531 C 15.824219 11.378906 17.722656 10.078125 18.871094 8.984375 C 19.445312 8.441406 19.929688 7.992188 20.09375 7.070312 C 20.175781 6.609375 20.0625 5.992188 19.765625 5.574219 C 19.46875 5.160156 19.105469 4.9375 18.777344 4.808594 C 18 4.5 16.1875 4.476562 14.300781 4.5 C 12.832031 4.519531 10.921875 4.503906 9 4.5 C 8.90625 4.5 8.832031 4.5 8.738281 4.5 C 8.101562 2.703125 6.40625 1.503906 4.5 1.5 Z M 4.5 4.5 C 5.328125 4.5 6 5.171875 6 6 C 6 6.828125 5.328125 7.5 4.5 7.5 C 3.671875 7.5 3 6.828125 3 6 C 3 5.171875 3.671875 4.5 4.5 4.5 Z M 4.5 4.5 "/>
<use xlink:href="#surface5" mask="url(#mask0)"/>
</g>
</svg>
