<?xml version="1.0" encoding="UTF-8"?>
<svg xmlns="http://www.w3.org/2000/svg" xmlns:xlink="http://www.w3.org/1999/xlink" width="24px" height="24px" viewBox="0 0 24 24" version="1.1">
<defs>
<filter id="alpha" filterUnits="objectBoundingBox" x="0%" y="0%" width="100%" height="100%">
  <feColorMatrix type="matrix" in="SourceGraphic" values="0 0 0 0 1 0 0 0 0 1 0 0 0 0 1 0 0 0 1 0"/>
</filter>
<mask id="mask0">
  <g filter="url(#alpha)">
<rect x="0" y="0" width="24" height="24" style="fill:rgb(0%,0%,0%);fill-opacity:0.35;stroke:none;"/>
  </g>
</mask>
<clipPath id="clip1">
  <rect x="0" y="0" width="24" height="24"/>
</clipPath>
<g id="surface5" clip-path="url(#clip1)">
<path style=" stroke:none;fill-rule:nonzero;fill:rgb(33.333334%,34.117648%,32.549021%);fill-opacity:1;" d="M 12 3 C 16.96875 3 21 5.6875 21 9 C 21 12.3125 16.96875 15 12 15 L 10.898438 14.949219 L 6 19.941406 L 6 13.460938 C 4.09375 12.324219 3.003906 10.703125 3 9 C 3 5.6875 7.03125 3 12 3 Z M 12 3 "/>
</g>
</defs>
<g id="surface1">
<use xlink:href="#surface5" mask="url(#mask0)"/>
<path style=" stroke:none;fill-rule:nonzero;fill:rgb(33.333334%,34.117648%,32.549021%);fill-opacity:1;" d="M 12 1.5 C 9.246094 1.5 6.726562 2.230469 4.804688 3.511719 C 2.851562 4.800781 1.5 6.75 1.5 9 C 1.503906 11.023438 2.757812 12.753906 4.5 14.070312 L 4.5 23.609375 L 11.5 16.476562 L 11.964844 16.5 L 12 16.5 C 14.761719 16.5 17.273438 15.769531 19.195312 14.488281 C 21.117188 13.210938 22.5 11.265625 22.5 9 C 22.5 6.734375 21.117188 4.800781 19.195312 3.511719 C 17.273438 2.230469 14.753906 1.5 12 1.5 Z M 12 4.5 C 14.214844 4.5 16.195312 5.101562 17.53125 6 C 18.867188 6.894531 19.5 7.949219 19.5 9 C 19.5 10.050781 18.867188 11.105469 17.53125 12 C 16.199219 12.882812 14.214844 13.5 12.003906 13.5 L 10.296875 13.417969 L 7.5 16.269531 L 7.5 12.609375 L 6.769531 12.171875 C 5.1875 11.230469 4.503906 10.066406 4.5 9 C 4.5 7.949219 5.128906 6.894531 6.46875 6 C 7.800781 5.101562 9.785156 4.5 12 4.5 Z M 12 4.5 "/>
</g>
</svg>
