<?xml version="1.0" encoding="UTF-8"?>
<svg xmlns="http://www.w3.org/2000/svg" xmlns:xlink="http://www.w3.org/1999/xlink" width="24px" height="24px" viewBox="0 0 24 24" version="1.1">
<g id="surface1">
<path style=" stroke:none;fill-rule:nonzero;fill:rgb(33.333334%,34.117648%,32.549021%);fill-opacity:1;" d="M 3 1.5 L 3 22.5 L 7.5 22.5 L 7.5 19.5 L 6 19.5 L 6 4.5 L 13.5 4.5 L 13.5 9 L 18 9 L 18 10.5 L 21 10.5 L 21 7.5 L 15 1.5 Z M 15 12 C 14.535156 12 14.171875 12.136719 13.875 12.421875 C 12.25 13.652344 10.625 15.316406 9 16.753906 L 9 19.3125 L 13.875 23.578125 C 14.171875 23.863281 14.535156 24 15 24 L 16.5 24 L 16.5 22.5 C 16.5 22.113281 16.304688 21.707031 16.03125 21.421875 L 13.765625 19.5 L 18 19.5 C 21.3125 19.5 24 16.8125 24 13.5 L 24 12 L 21 12 L 21 13.5 C 21 15.15625 19.65625 16.5 18 16.5 L 13.765625 16.5 L 16.03125 14.578125 C 16.304688 14.292969 16.5 13.886719 16.5 13.5 L 16.5 12 Z M 15 12 "/>
</g>
</svg>
