<?xml version="1.0" encoding="UTF-8"?>
<svg xmlns="http://www.w3.org/2000/svg" xmlns:xlink="http://www.w3.org/1999/xlink" width="24px" height="24px" viewBox="0 0 24 24" version="1.1">
<g id="surface1">
<path style=" stroke:none;fill-rule:nonzero;fill:rgb(33.333334%,34.117648%,32.549021%);fill-opacity:1;" d="M 3 1.5 L 3 9 L 21 9 L 21 1.5 L 18 1.5 L 18 6 L 6 6 L 6 1.5 Z M 1.5 10.5 L 1.5 13.5 L 6 13.5 L 6 10.5 Z M 7.5 10.5 L 7.5 13.5 L 12 13.5 L 12 10.5 Z M 13.5 10.5 L 13.5 12 L 18 12 L 18 10.5 Z M 19.5 10.5 L 19.5 12 L 24 12 L 24 10.5 Z M 15.28125 13.5 C 14.289062 13.5 13.5 14.324219 13.5 15.328125 L 13.5 22.171875 C 13.5 23.175781 14.289062 24 15.28125 24 L 22.5 24 C 23.492188 24 24 23.175781 24 22.171875 L 24 15.328125 C 24 14.324219 23.492188 13.5 22.5 13.5 Z M 3 15 L 3 22.5 L 6 22.5 L 6 18 L 12 18 L 12 15 Z M 15 15 L 16.5 15 L 18.75 17.25 L 21 15 L 22.5 15 L 22.5 16.5 L 20.25 18.75 L 22.5 21 L 22.5 22.5 L 21 22.5 L 18.75 20.25 L 16.5 22.5 L 15 22.5 L 15 21 L 17.25 18.75 L 15 16.5 Z M 15 15 "/>
</g>
</svg>
