<?xml version="1.0" encoding="UTF-8"?>
<svg xmlns="http://www.w3.org/2000/svg" xmlns:xlink="http://www.w3.org/1999/xlink" width="24px" height="24px" viewBox="0 0 24 24" version="1.1">
<defs>
<radialGradient id="radial0" gradientUnits="userSpaceOnUse" cx="949.332092" cy="517.870239" fx="941.931152" fy="440.161255" r="119.397293" gradientTransform="matrix(0.0704309,0.00258691,-0.00214901,0.0395696,-53.847092,-8.972592)">
<stop offset="0" style="stop-color:rgb(100%,100%,100%);stop-opacity:1;"/>
<stop offset="1" style="stop-color:rgb(100%,100%,100%);stop-opacity:0;"/>
</radialGradient>
<radialGradient id="radial1" gradientUnits="userSpaceOnUse" cx="949.332092" cy="517.870239" fx="941.931152" fy="440.161255" r="119.397293" gradientTransform="matrix(0.0704309,0.00258691,-0.00214901,0.0395696,-53.847092,-12.039492)">
<stop offset="0" style="stop-color:rgb(100%,100%,100%);stop-opacity:1;"/>
<stop offset="1" style="stop-color:rgb(100%,100%,100%);stop-opacity:0;"/>
</radialGradient>
<radialGradient id="radial2" gradientUnits="userSpaceOnUse" cx="949.332092" cy="517.870239" fx="941.931152" fy="440.161255" r="119.397293" gradientTransform="matrix(0.0704309,0.00258691,-0.00214901,0.0395696,-53.847092,-14.957693)">
<stop offset="0" style="stop-color:rgb(100%,100%,100%);stop-opacity:1;"/>
<stop offset="1" style="stop-color:rgb(100%,100%,100%);stop-opacity:0;"/>
</radialGradient>
<linearGradient id="linear0" gradientUnits="userSpaceOnUse" x1="9.610824" y1="58.780281" x2="2.222648" y2="105.911423" gradientTransform="matrix(0.185873,0,0,0.185873,0.610236,0.411084)">
<stop offset="0" style="stop-color:rgb(100%,91.764706%,0%);stop-opacity:1;"/>
<stop offset="1" style="stop-color:rgb(100%,80.000001%,0%);stop-opacity:1;"/>
</linearGradient>
</defs>
<g id="surface1">
<path style=" stroke:none;fill-rule:nonzero;fill:rgb(95.294118%,71.764708%,85.09804%);fill-opacity:1;" d="M 22.3125 15.480469 C 22.3125 18.277344 17.652344 20.542969 11.902344 20.542969 C 6.152344 20.542969 1.492188 18.277344 1.492188 15.480469 C 1.492188 12.683594 6.152344 10.414062 11.902344 10.414062 C 17.652344 10.414062 22.3125 12.683594 22.3125 15.480469 Z M 22.3125 15.480469 "/>
<path style="fill-rule:nonzero;fill:rgb(94.117647%,89.019608%,92.54902%);fill-opacity:1;stroke-width:9.147706;stroke-linecap:round;stroke-linejoin:round;stroke:rgb(90.196079%,0.784314%,70.588237%);stroke-opacity:1;stroke-miterlimit:4;" d="M 639.302149 523.706593 C 639.302149 593.37492 526.080814 649.986526 386.592888 649.986526 C 247.863564 649.986526 135.116356 593.95955 133.883628 524.778413 L 134.926705 574.959097 C 134.926705 644.724862 247.104963 701.336468 386.592888 701.336468 C 526.080814 701.336468 638.259071 644.724862 638.259071 574.959097 Z M 639.302149 523.706593 " transform="matrix(0.0411942,0,0,0.0400895,-4.023042,-5.514669)"/>
<path style=" stroke:none;fill-rule:nonzero;fill:url(#radial0);" d="M 19.304688 13.976562 C 19.832031 15.59375 16.683594 17.011719 11.921875 17.011719 C 6.933594 17.011719 3.839844 15.546875 4.542969 13.976562 C 5.457031 11.921875 8.761719 10.941406 11.921875 10.941406 C 14.96875 10.941406 18.710938 12.152344 19.304688 13.976562 Z M 19.304688 13.976562 "/>
<path style=" stroke:none;fill-rule:nonzero;fill:rgb(95.294118%,71.764708%,85.09804%);fill-opacity:1;" d="M 22.3125 12.414062 C 22.3125 15.210938 17.652344 17.476562 11.902344 17.476562 C 6.152344 17.476562 1.492188 15.210938 1.492188 12.414062 C 1.492188 9.613281 6.152344 7.347656 11.902344 7.347656 C 17.652344 7.347656 22.3125 9.613281 22.3125 12.414062 Z M 22.3125 12.414062 "/>
<path style="fill-rule:nonzero;fill:rgb(94.117647%,89.019608%,92.54902%);fill-opacity:1;stroke-width:9.147706;stroke-linecap:round;stroke-linejoin:round;stroke:rgb(90.196079%,0.784314%,70.588237%);stroke-opacity:1;stroke-miterlimit:4;" d="M 639.302149 523.621448 C 639.302149 593.387214 526.080814 649.998819 386.592888 649.998819 C 247.863564 649.998819 135.116356 593.971843 133.883628 524.790707 L 134.926705 574.97139 C 134.926705 644.737156 247.104963 701.348761 386.592888 701.348761 C 526.080814 701.348761 638.259071 644.737156 638.259071 574.97139 Z M 639.302149 523.621448 " transform="matrix(0.0411942,0,0,0.0400895,-4.023042,-8.581568)"/>
<path style=" stroke:none;fill-rule:nonzero;fill:url(#radial1);" d="M 19.304688 10.910156 C 19.832031 12.527344 16.683594 13.941406 11.921875 13.941406 C 6.933594 13.941406 3.839844 12.480469 4.542969 10.910156 C 5.457031 8.855469 8.761719 7.875 11.921875 7.875 C 14.96875 7.875 18.710938 9.085938 19.304688 10.910156 Z M 19.304688 10.910156 "/>
<path style=" stroke:none;fill-rule:nonzero;fill:rgb(95.294118%,71.764708%,85.09804%);fill-opacity:1;" d="M 22.3125 9.492188 C 22.3125 12.292969 17.652344 14.558594 11.902344 14.558594 C 6.152344 14.558594 1.492188 12.292969 1.492188 9.492188 C 1.492188 6.695312 6.152344 4.429688 11.902344 4.429688 C 17.652344 4.429688 22.3125 6.695312 22.3125 9.492188 Z M 22.3125 9.492188 "/>
<path style="fill-rule:nonzero;fill:rgb(94.117647%,89.019608%,92.54902%);fill-opacity:1;stroke-width:9.147706;stroke-linecap:round;stroke-linejoin:round;stroke:rgb(90.196079%,0.784314%,70.588237%);stroke-opacity:1;stroke-miterlimit:4;" d="M 639.302149 523.627252 C 639.302149 593.393017 526.080814 650.004623 386.592888 650.004623 C 247.863564 650.004623 135.116356 593.977647 133.883628 524.79651 L 134.926705 574.977194 C 134.926705 644.742959 247.104963 701.354565 386.592888 701.354565 C 526.080814 701.354565 638.259071 644.742959 638.259071 574.977194 Z M 639.302149 523.627252 " transform="matrix(0.0411942,0,0,0.0400895,-4.023042,-11.49977)"/>
<path style=" stroke:none;fill-rule:nonzero;fill:url(#radial2);" d="M 19.304688 7.988281 C 19.832031 9.609375 16.683594 11.023438 11.921875 11.023438 C 6.933594 11.023438 3.839844 9.5625 4.542969 7.988281 C 5.457031 5.9375 8.761719 4.953125 11.921875 4.953125 C 14.96875 4.953125 18.710938 6.167969 19.304688 7.988281 Z M 19.304688 7.988281 "/>
<path style="fill-rule:nonzero;fill:rgb(95.294118%,71.764708%,85.09804%);fill-opacity:1;stroke-width:8.953146;stroke-linecap:butt;stroke-linejoin:miter;stroke:rgb(90.196079%,0.784314%,70.588237%);stroke-opacity:1;stroke-miterlimit:4;" d="M 594.240717 637.27215 C 594.240717 706.995285 481.114207 763.557828 341.531456 763.557828 C 201.948705 763.557828 88.822196 706.995285 88.822196 637.27215 C 88.822196 567.455677 201.948705 510.893134 341.531456 510.893134 C 481.114207 510.893134 594.240717 567.455677 594.240717 637.27215 Z M 594.240717 637.27215 " transform="matrix(0.0411942,0,0,0.0418508,-2.166772,-20.393004)"/>
<path style="fill-rule:nonzero;fill:rgb(94.117647%,89.019608%,92.54902%);fill-opacity:1;stroke-width:2;stroke-linecap:round;stroke-linejoin:round;stroke:rgb(90.196079%,0.784314%,70.588237%);stroke-opacity:1;stroke-miterlimit:4;" d="M 120.00682 32.441483 C 120.00682 48.140232 94.91404 60.896779 63.999904 60.896779 C 33.253894 60.896779 8.266193 48.287342 7.992988 32.693672 L 8.224161 44.000134 C 8.224161 59.698883 33.085768 72.45543 63.999904 72.45543 C 94.91404 72.45543 119.775647 59.698883 119.775647 44.000134 Z M 120.00682 32.441483 " transform="matrix(0.185873,0,0,0.185873,0.00650925,0.208295)"/>
<path style=" stroke:none;fill-rule:nonzero;fill:rgb(61.56863%,22.745098%,60.784316%);fill-opacity:1;" d="M 1.492188 6.570312 C 1.207031 6.574219 0.75 6.828125 0.75 7.113281 L 0.75 23.28125 C 0.75 23.566406 1.210938 24 1.492188 24 L 17.273438 24 C 17.726562 24 17.957031 23.222656 17.640625 22.898438 L 1.863281 6.726562 C 1.765625 6.628906 1.632812 6.570312 1.492188 6.570312 Z M 3.722656 13.589844 L 10.925781 20.28125 L 3.695312 20.355469 Z M 3.722656 13.589844 "/>
<path style=" stroke:none;fill-rule:nonzero;fill:rgb(61.56863%,22.745098%,60.784316%);fill-opacity:1;" d="M 1.492188 6.570312 C 1.207031 6.574219 0.75 6.800781 0.75 7.085938 L 0.75 23.257812 C 0.75 23.539062 1.210938 24 1.492188 24 L 17.273438 24 C 17.726562 24 17.957031 23.222656 17.640625 22.898438 L 1.863281 6.726562 C 1.765625 6.628906 1.632812 6.570312 1.492188 6.570312 Z M 2.738281 12.777344 L 11.851562 21.226562 L 2.722656 21.253906 Z M 2.738281 12.777344 "/>
<path style=" stroke:none;fill-rule:evenodd;fill:url(#linear0);" d="M 1.492188 7.214844 L 1.492188 23.257812 L 1.617188 23.257812 L 3 20.28125 L 2.949219 20.28125 L 2.96875 14.148438 C 2.417969 13.140625 2.246094 9.21875 1.492188 7.214844 Z M 1.492188 7.214844 "/>
<path style=" stroke:none;fill-rule:nonzero;fill:rgb(100%,100%,100%);fill-opacity:1;" d="M 1.492188 7.085938 L 1.492188 23.257812 L 1.90625 23.257812 L 1.96875 7.644531 Z M 2.980469 11.5 L 2.980469 12.105469 L 12.191406 21.027344 L 2.980469 21.027344 L 2.980469 21.507812 L 13.390625 21.507812 Z M 2.980469 11.5 "/>
<path style=" stroke:none;fill-rule:nonzero;fill:rgb(95.294118%,71.764708%,85.09804%);fill-opacity:1;" d="M 1.492188 7.085938 L 1.492188 23.257812 L 17.273438 23.257812 Z M 2.980469 12.105469 L 12.191406 21.027344 L 2.949219 21.027344 Z M 2.980469 12.105469 "/>
</g>
</svg>
