<?xml version="1.0" encoding="UTF-8" standalone="no"?>
<svg
   xmlns:dc="http://purl.org/dc/elements/1.1/"
   xmlns:cc="http://creativecommons.org/ns#"
   xmlns:rdf="http://www.w3.org/1999/02/22-rdf-syntax-ns#"
   xmlns:svg="http://www.w3.org/2000/svg"
   xmlns="http://www.w3.org/2000/svg"
   xmlns:sodipodi="http://sodipodi.sourceforge.net/DTD/sodipodi-0.dtd"
   xmlns:inkscape="http://www.inkscape.org/namespaces/inkscape"
   height="32"
   width="32"
   version="1.1"
   id="svg39"
   sodipodi:docname="lc_dbviewforms.svg"
   inkscape:version="0.92.3 (2405546, 2018-03-11)"
   inkscape:export-filename="D:\RZKDNSWR\PORTFOLIO\PROJECT LIBRELADIES\ICON SC PNG\sc_dbviewforms.png"
   inkscape:export-xdpi="96"
   inkscape:export-ydpi="96">
  <metadata
     id="metadata45">
    <rdf:RDF>
      <cc:Work
         rdf:about="">
        <dc:format>image/svg+xml</dc:format>
        <dc:type
           rdf:resource="http://purl.org/dc/dcmitype/StillImage" />
        <dc:title></dc:title>
      </cc:Work>
    </rdf:RDF>
  </metadata>
  <defs
     id="defs43" />
  <sodipodi:namedview
     pagecolor="#ffffff"
     bordercolor="#666666"
     borderopacity="1"
     objecttolerance="10"
     gridtolerance="10"
     guidetolerance="10"
     inkscape:pageopacity="0"
     inkscape:pageshadow="2"
     inkscape:window-width="1366"
     inkscape:window-height="705"
     id="namedview41"
     showgrid="true"
     inkscape:zoom="14.75"
     inkscape:cx="15.726739"
     inkscape:cy="17.416413"
     inkscape:window-x="-8"
     inkscape:window-y="-8"
     inkscape:window-maximized="1"
     inkscape:current-layer="svg39">
    <inkscape:grid
       type="xygrid"
       id="grid47" />
  </sodipodi:namedview>
  <linearGradient
     id="a"
     gradientTransform="matrix(0.1133598,0,0,0.1691546,0.642795,-76.95463)"
     gradientUnits="userSpaceOnUse"
     x1="417.76013"
     x2="417.76013"
     y1="691.40674"
     y2="549.52472">
    <stop
       offset="0"
       stop-color="#cbcbcd"
       id="stop2" />
    <stop
       offset=".5"
       stop-color="#e0e0e2"
       id="stop4" />
    <stop
       offset="1"
       stop-color="#fff"
       id="stop6" />
  </linearGradient>
  <filter
     id="b">
    <feGaussianBlur
       stdDeviation="2.4"
       id="feGaussianBlur9" />
  </filter>
  <linearGradient
     id="c"
     gradientTransform="matrix(1.25,0,0,1,-145.53581,-244.8761)"
     gradientUnits="userSpaceOnUse"
     x1="167.62865"
     x2="167.62865"
     y1="340.8761"
     y2="308.8761">
    <stop
       offset="0"
       stop-color="#cbcbcd"
       id="stop12" />
    <stop
       offset=".66545075"
       stop-color="#e0e0e2"
       id="stop14" />
    <stop
       offset="1"
       stop-color="#fff"
       id="stop16" />
  </linearGradient>
  <g
     transform="matrix(0.24837662,0,0,0.24837662,0.1948056,0.42306899)"
     id="g37">
    <rect
       height="96"
       rx="1e-006"
       width="112"
       x="7.9999971"
       y="15.999999"
       id="rect21"
       style="fill:#f3b7d9" />
    <rect
       height="24.000002"
       rx="2e-006"
       ry="1e-006"
       width="96"
       x="15.999997"
       y="31.999998"
       id="rect23"
       style="fill:#e602b4;fill-opacity:0.16763" />
    <rect
       height="16.000002"
       rx="2e-006"
       ry="0"
       width="80"
       x="23.999996"
       y="40"
       id="rect25"
       style="fill:#f0e3ec" />
    <rect
       height="32.000004"
       rx="2e-006"
       ry="1e-006"
       transform="scale(1,-1)"
       width="80"
       x="23.999996"
       y="-104"
       id="rect27"
       style="fill:#9d3a9b;fill-opacity:0.375" />
    <rect
       height="24.000002"
       rx="2e-006"
       ry="1e-006"
       width="80"
       x="23.999996"
       y="72"
       id="rect29"
       style="fill:#f0e3ec" />
    <g
       transform="translate(-79.62865,-236.8761)"
       id="g35"
       style="stroke-width:0.65700603">
      <path
         d="m 124.41114,328.26396 q -2.5229,-2.81199 -2.5229,-7.22707 0,-4.41508 2.5229,-7.22706 2.54918,-2.81198 6.67518,-2.81198 4.15228,0 6.70146,2.81198 2.54918,2.7857 2.54918,7.35846 0,4.2574 -2.5229,7.09567 -2.49662,2.81198 -6.70146,2.81198 -4.17856,0 -6.70146,-2.81198 z m 6.70146,-13.90225 q -2.3915,0 -3.83691,1.83962 -1.44542,1.81334 -1.44542,4.83556 0,3.02223 1.44542,4.86185 1.44541,1.81333 3.83691,1.81333 2.36522,0 3.81063,-1.81333 1.4717,-1.81334 1.4717,-4.75673 0,-3.10106 -1.44542,-4.94068 -1.41913,-1.83962 -3.83691,-1.83962 z"
         id="path31"
         inkscape:connector-curvature="0"
         style="fill:#e602b4" />
      <path
         d="m 152.41291,324.05912 v 6.41238 h -3.94203 v -19.15829 h 3.94203 v 8.40967 l 7.48987,-8.40967 h 4.6516 l -7.64755,8.25199 8.46224,10.9063 h -4.70416 l -6.28098,-8.46224 z"
         id="path33"
         inkscape:connector-curvature="0"
         style="fill:#e602b4" />
    </g>
  </g>
</svg>
