<?xml version="1.0" encoding="UTF-8"?>
<svg xmlns="http://www.w3.org/2000/svg" xmlns:xlink="http://www.w3.org/1999/xlink" width="24px" height="24px" viewBox="0 0 24 24" version="1.1">
<g id="surface1">
<path style="fill:none;stroke-width:16;stroke-linecap:round;stroke-linejoin:round;stroke:rgb(90.196079%,0.784314%,70.588237%);stroke-opacity:1;stroke-miterlimit:4;" d="M 108.000237 120 L 76.000237 88 L 100.000237 88 L 100.000237 8 L 116.000237 8 L 116.000237 88 L 140.000237 88 Z M 108.000237 120 " transform="matrix(0,0.1875,0.1875,0,0,-12.750044)"/>
<path style=" stroke:none;fill-rule:evenodd;fill:rgb(95.294118%,71.764708%,85.09804%);fill-opacity:1;" d="M 22.125 7.5 L 16.5 1.5 L 16.5 6 L 1.5 6 L 1.5 9 L 16.5 9 L 16.5 13.5 Z M 22.125 7.5 "/>
<path style="fill:none;stroke-width:16;stroke-linecap:round;stroke-linejoin:round;stroke:rgb(61.56863%,22.745098%,60.784316%);stroke-opacity:1;stroke-miterlimit:4;" d="M 104.00024 72 L 84.00024 48 L 100.00024 48 L 100.00024 8 L 108.00024 8 L 108.00024 48 L 124.00024 48 Z M 104.00024 72 " transform="matrix(0,0.1875,0.1875,0,0,-0.750045)"/>
<path style=" stroke:none;fill-rule:evenodd;fill:rgb(94.117647%,89.019608%,92.54902%);fill-opacity:1;" d="M 13.125 18.75 L 9 15 L 9 18 L 1.5 18 L 1.5 19.5 L 9 19.5 L 9 22.5 Z M 13.125 18.75 "/>
</g>
</svg>
