<?xml version="1.0" encoding="UTF-8"?>
<svg xmlns="http://www.w3.org/2000/svg" xmlns:xlink="http://www.w3.org/1999/xlink" width="24px" height="24px" viewBox="0 0 24 24" version="1.1">
<g id="surface1">
<path style=" stroke:none;fill-rule:nonzero;fill:rgb(33.333334%,34.117648%,32.549021%);fill-opacity:1;" d="M 1.5 1.5 L 1.5 7.5 L 12 7.5 L 12 1.5 Z M 1.5 9 L 1.5 18 C 1.5 18.832031 2.167969 19.5 3 19.5 L 6.84375 19.5 L 6.449219 19.949219 C 6.148438 20.203125 6 20.601562 6 21 L 6 22.5 L 7.5 22.5 C 7.898438 22.5 8.296875 22.351562 8.550781 22.050781 L 11.550781 19.050781 L 12 18.65625 L 12 17.34375 L 11.550781 16.949219 L 8.550781 13.949219 C 8.296875 13.648438 7.898438 13.5 7.5 13.5 L 6 13.5 L 6 15 C 6 15.398438 6.148438 15.796875 6.449219 16.050781 L 6.84375 16.5 L 4.5 16.5 L 4.5 9 Z M 13.5 13.5 L 13.5 22.5 L 22.5 22.5 L 22.5 13.5 Z M 16.5 16.5 L 19.5 16.5 L 19.5 19.5 L 16.5 19.5 Z M 16.5 16.5 "/>
</g>
</svg>
