<?xml version="1.0" encoding="UTF-8"?>
<svg xmlns="http://www.w3.org/2000/svg" xmlns:xlink="http://www.w3.org/1999/xlink" width="24px" height="24px" viewBox="0 0 24 24" version="1.1">
<g id="surface1">
<path style=" stroke:none;fill-rule:nonzero;fill:rgb(33.333334%,34.117648%,32.549021%);fill-opacity:1;" d="M 3 3 C 2.167969 3 1.5 3.667969 1.5 4.5 L 1.5 22.5 L 4.5 19.5 L 4.5 22.5 L 9 18 L 12 18 L 12 15 L 4.5 15 L 4.5 6 L 19.5 6 L 19.5 10.5 L 22.5 10.5 L 22.5 4.5 C 22.5 3.667969 21.832031 3 21 3 Z M 18 12 C 16.34375 12 15 13.34375 15 15 C 15 16.65625 16.34375 18 18 18 C 19.65625 18 21 16.65625 21 15 C 21 13.34375 19.65625 12 18 12 Z M 18 18 C 14.6875 18 12 20.6875 12 24 L 15 24 C 15 22.34375 16.34375 21 18 21 C 19.65625 21 21 22.34375 21 24 L 24 24 C 24 20.6875 21.3125 18 18 18 Z M 18 18 "/>
</g>
</svg>
