<?xml version="1.0" encoding="UTF-8"?>
<svg xmlns="http://www.w3.org/2000/svg" xmlns:xlink="http://www.w3.org/1999/xlink" width="24px" height="24px" viewBox="0 0 24 24" version="1.1">
<g id="surface1">
<path style=" stroke:none;fill-rule:nonzero;fill:rgb(33.333334%,34.117648%,32.549021%);fill-opacity:1;" d="M 1.5 1.5 L 1.5 4.5 L 2.722656 4.5 L 4.144531 4.144531 L 4.566406 2.457031 L 4.804688 1.5 Z M 8.691406 1.5 L 9.355469 4.144531 L 10.777344 4.5 L 18 4.5 L 18 13.511719 L 21 16.398438 L 21 4.5 L 22.5 4.5 L 22.5 1.5 Z M 6.023438 2.816406 L 5.382812 5.382812 L 2.816406 6.023438 L 2.816406 7.476562 L 5.382812 8.117188 L 6.023438 10.683594 L 7.476562 10.683594 L 8.117188 8.117188 L 10.683594 7.476562 L 10.683594 6.023438 L 8.117188 5.382812 L 7.476562 2.816406 Z M 11.148438 9 L 9 11.46875 L 19.5 22.058594 L 22.058594 19.5 Z M 3 9.066406 L 3 18 L 7.5 18 L 4.5 21 L 4.5 22.5 L 7.5 22.5 L 12 18 L 16.5 22.5 L 17.820312 22.5 L 10.386719 15 L 6 15 L 6 12.183594 L 4.851562 12.183594 L 4.144531 9.355469 Z M 3 9.066406 "/>
</g>
</svg>
