<?xml version="1.0" encoding="UTF-8"?>
<svg xmlns="http://www.w3.org/2000/svg" xmlns:xlink="http://www.w3.org/1999/xlink" width="24px" height="24px" viewBox="0 0 24 24" version="1.1">
<g id="surface1">
<path style=" stroke:none;fill-rule:nonzero;fill:rgb(33.333334%,34.117648%,32.549021%);fill-opacity:1;" d="M 4.644531 0.0078125 C 3.054688 0.835938 2.535156 2.640625 3.453125 4.082031 L 10.082031 15 L 9.535156 15.746094 C 8.582031 14.394531 7.015625 13.5 5.25 13.5 C 2.367188 13.5 0 15.867188 0 18.746094 C 0 21.628906 2.367188 23.996094 5.25 23.996094 C 7.089844 23.996094 8.710938 23.027344 9.652344 21.578125 L 12 17.949219 L 14.367188 21.675781 L 14.386719 21.648438 C 15.332031 23.058594 16.9375 23.996094 18.75 23.996094 C 21.632812 23.996094 24 21.628906 24 18.746094 C 24 15.867188 21.632812 13.5 18.75 13.5 C 16.972656 13.5 15.398438 14.402344 14.445312 15.765625 L 13.917969 15 L 20.550781 4.082031 C 21.46875 2.640625 20.945312 0.835938 19.355469 0.00390625 L 12 12 Z M 5.25 16.5 C 6.4375 16.5 7.371094 17.378906 7.480469 18.53125 L 7.464844 18.550781 L 7.480469 18.582031 C 7.488281 18.636719 7.5 18.691406 7.5 18.746094 C 7.5 20.007812 6.511719 20.996094 5.25 20.996094 C 3.988281 20.996094 3 20.007812 3 18.746094 C 3 17.488281 3.988281 16.5 5.25 16.5 Z M 18.75 16.5 C 20.011719 16.5 21 17.488281 21 18.746094 C 21 20.007812 20.011719 20.996094 18.75 20.996094 C 17.488281 20.996094 16.5 20.007812 16.5 18.746094 C 16.5 17.488281 17.488281 16.5 18.75 16.5 Z M 18.75 16.5 "/>
</g>
</svg>
