<?xml version="1.0" encoding="UTF-8" standalone="no"?>
<svg
   xmlns:dc="http://purl.org/dc/elements/1.1/"
   xmlns:cc="http://creativecommons.org/ns#"
   xmlns:rdf="http://www.w3.org/1999/02/22-rdf-syntax-ns#"
   xmlns:svg="http://www.w3.org/2000/svg"
   xmlns="http://www.w3.org/2000/svg"
   xmlns:sodipodi="http://sodipodi.sourceforge.net/DTD/sodipodi-0.dtd"
   xmlns:inkscape="http://www.inkscape.org/namespaces/inkscape"
   height="32"
   width="32"
   version="1.1"
   id="svg102"
   sodipodi:docname="lc_dbreportrename.svg"
   inkscape:version="0.92.3 (2405546, 2018-03-11)"
   inkscape:export-filename="D:\RZKDNSWR\PORTFOLIO\PROJECT LIBRELADIES\ICON SC PNG\sc_dbreportrename.png"
   inkscape:export-xdpi="96"
   inkscape:export-ydpi="96">
  <metadata
     id="metadata108">
    <rdf:RDF>
      <cc:Work
         rdf:about="">
        <dc:format>image/svg+xml</dc:format>
        <dc:type
           rdf:resource="http://purl.org/dc/dcmitype/StillImage" />
        <dc:title></dc:title>
      </cc:Work>
    </rdf:RDF>
  </metadata>
  <defs
     id="defs106" />
  <sodipodi:namedview
     pagecolor="#ffffff"
     bordercolor="#666666"
     borderopacity="1"
     objecttolerance="10"
     gridtolerance="10"
     guidetolerance="10"
     inkscape:pageopacity="0"
     inkscape:pageshadow="2"
     inkscape:window-width="1366"
     inkscape:window-height="705"
     id="namedview104"
     showgrid="true"
     inkscape:zoom="14.75"
     inkscape:cx="11.627119"
     inkscape:cy="17.145794"
     inkscape:window-x="-8"
     inkscape:window-y="-8"
     inkscape:window-maximized="1"
     inkscape:current-layer="svg102">
    <inkscape:grid
       type="xygrid"
       id="grid110" />
  </sodipodi:namedview>
  <filter
     id="a">
    <feGaussianBlur
       stdDeviation="1.0394514"
       id="feGaussianBlur2" />
  </filter>
  <filter
     id="b">
    <feGaussianBlur
       stdDeviation=".50063244"
       id="feGaussianBlur5" />
  </filter>
  <radialGradient
     id="c"
     cx="181.62865"
     cy="349.18079"
     gradientUnits="userSpaceOnUse"
     r="139.5585">
    <stop
       offset="0"
       stop-color="#ecf2f5"
       id="stop8" />
    <stop
       offset=".2435"
       stop-color="#fafcfd"
       id="stop10" />
    <stop
       offset=".2722"
       stop-color="#fff"
       id="stop12" />
  </radialGradient>
  <radialGradient
     id="d"
     cx="102"
     cy="112.3047"
     gradientTransform="matrix(0.9787234,0,0,0.9818182,80.990354,238.03974)"
     gradientUnits="userSpaceOnUse"
     r="139.55859">
    <stop
       offset="0"
       stop-color="#ececec"
       id="stop15" />
    <stop
       offset=".2363"
       stop-color="#fafafa"
       id="stop17" />
    <stop
       offset=".2722"
       stop-color="#fff"
       id="stop19" />
    <stop
       offset=".5313"
       stop-color="#fafafa"
       id="stop21" />
    <stop
       offset=".8449"
       stop-color="#ebecec"
       id="stop23" />
    <stop
       offset="1"
       stop-color="#e1e2e3"
       id="stop25" />
  </radialGradient>
  <g
     id="g146"
     transform="matrix(1.9979693,0,0,1.9979693,0.03045654,0.00203172)">
    <g
       id="g84"
       transform="matrix(0.125,0,0,0.125,-9.953581,-29.609513)">
      <path
         style="fill:#f3b7d9"
         inkscape:connector-curvature="0"
         id="path34"
         d="m 95.62865,244.8761 v 112 h 61.17187 34.82813 V 322.04797 279.70423 244.8761 h -34.82813 z" />
      <path
         style="fill:#f0e3ec"
         inkscape:connector-curvature="0"
         id="path36"
         d="m 104.30834,252.8761 c -0.53928,0 -0.98047,0.44144 -0.98047,0.98242 l 0.15039,47.01758 -0.15039,47.01758 c 0,0.54098 0.44119,0.98242 0.98047,0.98242 h 0.29883 51.91406 26.1289 c 0.54025,0 0.97852,-0.44144 0.97852,-0.98242 v -26.23047 -41.57422 -26.23047 c 0,-0.54098 -0.43827,-0.98242 -0.97852,-0.98242 h -26.1289 -51.91406 z" />
      <path
         style="opacity:0.36725703;fill:#e602b4;fill-opacity:0.50857101;fill-rule:evenodd"
         inkscape:connector-curvature="0"
         id="path38"
         d="m 119.62865,332.8761 h 48 v 8 h -48 z" />
      <path
         style="opacity:0.36725703;fill:#4c9ac3;fill-opacity:0.50857101;fill-rule:evenodd"
         inkscape:connector-curvature="0"
         id="path40"
         d="m 119.62865,316.8761 h 48 v 8 h -48 z" />
      <g
         style="fill:#2d2d2d"
         id="g56">
        <path
           style="opacity:0.38053104;fill:#9d3a9b"
           inkscape:connector-curvature="0"
           id="path42"
           d="m 103.62865,252.8761 h 8 v 8 h -8 z" />
        <path
           style="opacity:0.38053104;fill:#9d3a9b"
           inkscape:connector-curvature="0"
           id="path44"
           d="m 103.62865,268.8761 h 8 v 8 h -8 z" />
        <path
           style="opacity:0.38053104"
           inkscape:connector-curvature="0"
           id="path46"
           d="m 103.62865,284.8761 h 8 v 8 h -8 z" />
        <path
           style="opacity:0.38053104"
           inkscape:connector-curvature="0"
           id="path48"
           d="m 103.62865,300.8761 h 8 v 8 h -8 z" />
        <path
           style="opacity:0.38053104"
           inkscape:connector-curvature="0"
           id="path50"
           d="m 103.62865,316.8761 h 8 v 8 h -8 z" />
        <path
           style="opacity:0.38053104;fill:#9d3a9b"
           inkscape:connector-curvature="0"
           id="path52"
           d="m 103.62865,332.8761 h 8 v 8 h -8 z" />
        <path
           style="opacity:0.38053104;fill:#e602b4;fill-opacity:0.33155099"
           inkscape:connector-curvature="0"
           id="path54"
           d="m 103.62865,348.8761 h 8 v 8 h -8 z" />
      </g>
      <g
         style="fill:#4c9ac3;fill-opacity:0.50857101;fill-rule:evenodd"
         id="g66">
        <path
           style="opacity:0.36725703;fill:#e602b4"
           inkscape:connector-curvature="0"
           id="path58"
           d="m 119.62865,252.8761 h 48 v 8 h -48 z" />
        <path
           style="opacity:0.36725703;fill:#e602b4"
           inkscape:connector-curvature="0"
           id="path60"
           d="m 119.62865,268.8761 h 48 v 8 h -48 z" />
        <path
           style="opacity:0.36725703"
           inkscape:connector-curvature="0"
           id="path62"
           d="m 119.62865,284.8761 h 48 v 8 h -48 z" />
        <path
           style="opacity:0.36725703"
           inkscape:connector-curvature="0"
           id="path64"
           d="m 119.62865,300.8761 h 48 v 8 h -48 z" />
      </g>
      <g
         style="fill:#2d2d2d"
         id="g82">
        <path
           style="opacity:0.38053104;fill:#9d3a9b"
           inkscape:connector-curvature="0"
           id="path68"
           d="m 175.62865,252.8761 h 8 v 8 h -8 z" />
        <path
           style="opacity:0.38053104;fill:#9d3a9b"
           inkscape:connector-curvature="0"
           id="path70"
           d="m 175.62865,268.8761 h 8 v 8 h -8 z" />
        <path
           style="opacity:0.38053104"
           inkscape:connector-curvature="0"
           id="path72"
           d="m 175.62865,284.8761 h 8 v 8 h -8 z" />
        <path
           style="opacity:0.38053104"
           inkscape:connector-curvature="0"
           id="path74"
           d="m 175.62865,300.8761 h 8 v 8 h -8 z" />
        <path
           style="opacity:0.38053104"
           inkscape:connector-curvature="0"
           id="path76"
           d="m 175.62865,316.8761 h 8 v 8 h -8 z" />
        <path
           style="opacity:0.38053104"
           inkscape:connector-curvature="0"
           id="path78"
           d="m 175.62865,332.8761 h 8 v 8 h -8 z" />
        <path
           style="opacity:0.38053104;fill-opacity:0.33155099"
           inkscape:connector-curvature="0"
           id="path80"
           d="m 175.62865,348.8761 h 8 v 8 h -8 z" />
      </g>
    </g>
    <path
       style="fill:#e602b4;stroke-width:0.199588"
       id="path86"
       d="m 1,6 h 10 v 6.118644 H 1 Z"
       inkscape:connector-curvature="0" />
    <g
       style="fill:#ffffff;stroke-width:1.07042098"
       id="g92"
       transform="scale(0.125)">
      <path
         inkscape:connector-curvature="0"
         id="path88"
         d="M 35.336439,81.787234 H 23.647447 l -2.098024,6.294072 H 14.99845 l 11.089556,-31.21346 h 7.107592 l 10.789838,31.21346 h -6.59379 z m -1.75549,-5.352102 -4.067597,-12.202793 -4.067598,12.202793 z" />
      <path
         inkscape:connector-curvature="0"
         id="path90"
         d="m 81.00155,79.089775 q 0,1.541405 -0.513802,2.997177 -0.513802,1.455772 -1.669856,2.868727 -1.113237,1.412955 -3.382529,2.269291 -2.269291,0.856336 -5.394919,0.856336 H 55.996528 v -31.21346 h 13.915466 q 2.911543,0 5.009567,0.856336 2.140841,0.856337 3.168445,2.226475 1.07042,1.327321 1.541405,2.611826 0.470985,1.284504 0.470985,2.526192 0,2.012391 -0.984786,3.468162 -0.984787,1.455772 -3.296895,2.954361 5.180835,3.039994 5.180835,7.578577 z M 62.41905,62.219948 v 7.064775 h 6.979142 q 4.538583,0 4.538583,-3.510979 0,-3.553796 -4.538583,-3.553796 z m 0,12.416878 v 8.092378 h 7.664211 q 4.752667,0 4.752667,-4.024781 0,-4.067597 -4.752667,-4.067597 z" />
    </g>
    <g
       style="stroke-width:0.25"
       id="g100">
      <path
         style="fill:#9d3a9b"
         inkscape:connector-curvature="0"
         id="path94"
         d="m 10,5 h 5 v 1 h -5 z" />
      <path
         style="fill:#9d3a9b"
         inkscape:connector-curvature="0"
         id="path96"
         d="m 10,14.000008 h 5 v 0.999995 h -5 z" />
      <path
         style="fill:#9d3a9b"
         inkscape:connector-curvature="0"
         id="path98"
         d="m 13,6 v 8 H 12 V 6 Z" />
    </g>
  </g>
</svg>
