<?xml version="1.0" encoding="UTF-8"?>
<svg xmlns="http://www.w3.org/2000/svg" xmlns:xlink="http://www.w3.org/1999/xlink" width="24px" height="24px" viewBox="0 0 24 24" version="1.1">
<defs>
<filter id="alpha" filterUnits="objectBoundingBox" x="0%" y="0%" width="100%" height="100%">
  <feColorMatrix type="matrix" in="SourceGraphic" values="0 0 0 0 1 0 0 0 0 1 0 0 0 0 1 0 0 0 1 0"/>
</filter>
<mask id="mask0">
  <g filter="url(#alpha)">
<rect x="0" y="0" width="24" height="24" style="fill:rgb(0%,0%,0%);fill-opacity:0.35;stroke:none;"/>
  </g>
</mask>
<clipPath id="clip1">
  <rect x="0" y="0" width="24" height="24"/>
</clipPath>
<g id="surface5" clip-path="url(#clip1)">
<path style=" stroke:none;fill-rule:nonzero;fill:rgb(33.333334%,34.117648%,32.549021%);fill-opacity:1;" d="M 3 3 L 10.5 3 L 10.5 10.5 L 3 10.5 Z M 3 3 "/>
</g>
</defs>
<g id="surface1">
<path style=" stroke:none;fill-rule:nonzero;fill:rgb(33.333334%,34.117648%,32.549021%);fill-opacity:1;" d="M 0 0 L 0 13.5 L 1.5 13.5 L 1.5 24 L 12 24 L 12 21 L 10.5 21 L 10.5 18 L 12 18 L 12 16.5 L 10.5 16.5 L 10.5 13.5 L 12 13.5 C 12 12.667969 12.667969 12 13.5 12 L 13.5 9 L 15 9 L 15 12 L 16.5 12 L 16.5 9 L 21 9 L 21 12 L 24 12 L 24 1.5 L 13.5 1.5 L 13.5 0 Z M 3 3 L 10.5 3 L 10.5 10.5 L 3 10.5 Z M 13.5 4.5 L 15 4.5 L 15 7.5 L 13.5 7.5 Z M 16.5 4.5 L 21 4.5 L 21 7.5 L 16.5 7.5 Z M 4.5 13.5 L 9 13.5 L 9 16.5 L 4.5 16.5 Z M 15.28125 13.5 C 14.289062 13.5 13.5 14.324219 13.5 15.328125 L 13.5 22.171875 C 13.5 23.175781 14.289062 24 15.28125 24 L 22.5 24 C 23.492188 24 24 23.175781 24 22.171875 L 24 15.328125 C 24 14.324219 23.492188 13.5 22.5 13.5 Z M 15 15 L 16.5 15 L 18.75 17.25 L 21 15 L 22.5 15 L 22.5 16.5 L 20.25 18.75 L 22.5 21 L 22.5 22.5 L 21 22.5 L 18.75 20.25 L 16.5 22.5 L 15 22.5 L 15 21 L 17.25 18.75 L 15 16.5 Z M 4.5 18 L 9 18 L 9 21 L 4.5 21 Z M 4.5 18 "/>
<use xlink:href="#surface5" mask="url(#mask0)"/>
</g>
</svg>
