<?xml version="1.0" encoding="UTF-8"?>
<svg xmlns="http://www.w3.org/2000/svg" xmlns:xlink="http://www.w3.org/1999/xlink" width="24px" height="24px" viewBox="0 0 24 24" version="1.1">
<g id="surface1">
<path style=" stroke:none;fill-rule:nonzero;fill:rgb(33.333334%,34.117648%,32.549021%);fill-opacity:1;" d="M 7.5 7.5 L 7.5 9.601562 L 9.898438 12 L 7.5 14.398438 L 7.5 16.5 L 9.601562 16.5 L 12 14.101562 L 14.398438 16.5 L 16.5 16.5 L 16.5 14.398438 L 14.101562 12 L 16.5 9.601562 L 16.5 7.5 L 14.398438 7.5 L 12 9.898438 L 9.601562 7.5 Z M 7.5 7.5 "/>
<path style=" stroke:none;fill-rule:nonzero;fill:rgb(33.333334%,34.117648%,32.549021%);fill-opacity:1;" d="M 12 1.5 C 6.199219 1.5 1.5 6.199219 1.5 12 C 1.5 17.800781 6.199219 22.5 12 22.5 C 17.800781 22.5 22.5 17.800781 22.5 12 C 22.5 6.199219 17.800781 1.5 12 1.5 Z M 12 3 C 16.96875 3 21 7.03125 21 12 C 21 16.96875 16.96875 21 12 21 C 7.03125 21 3 16.96875 3 12 C 3 7.03125 7.03125 3 12 3 Z M 12 3 "/>
</g>
</svg>
