<?xml version="1.0" encoding="UTF-8"?>
<svg xmlns="http://www.w3.org/2000/svg" xmlns:xlink="http://www.w3.org/1999/xlink" width="24px" height="24px" viewBox="0 0 24 24" version="1.1">
<g id="surface1">
<path style=" stroke:none;fill-rule:nonzero;fill:rgb(33.333334%,34.117648%,32.549021%);fill-opacity:1;" d="M 12 0 C 6.199219 0 1.5 2.6875 1.5 6 L 1.5 18 C 1.527344 19.058594 2.046875 20.09375 3 21 L 3 10.5 C 3 9.667969 3.667969 9 4.5 9 L 12 9 C 7.859375 9 4.5 7.65625 4.5 6 C 4.5 4.34375 7.859375 3 12 3 C 16.140625 3 19.5 4.34375 19.5 6 C 19.5 7.65625 16.140625 9 12 9 L 22.5 9 L 22.5 6 C 22.5 2.6875 17.800781 0 12 0 Z M 6 10.5 C 5.167969 10.5 4.5 11.167969 4.5 12 L 4.5 22.5 C 4.5 23.332031 5.167969 24 6 24 L 22.5 24 C 23.332031 24 24 23.332031 24 22.5 L 24 12 C 24 11.167969 23.332031 10.5 22.5 10.5 Z M 15 12 L 16.5 12 L 16.5 15 L 19.5 15 C 21.15625 15 22.5 16.679688 22.5 18.75 C 22.5 20.820312 21.15625 22.5 19.5 22.5 L 15 22.5 Z M 7.5 15 L 12 15 C 12.828125 15 13.5 15.671875 13.5 16.5 L 13.5 22.5 L 8.25 22.5 C 7.007812 22.5 6 21.492188 6 20.25 C 6 19.007812 7.007812 18 8.25 18 L 12 18 L 12 16.5 L 7.5 16.5 Z M 16.5 16.5 L 16.5 21 L 19.5 21 C 20.328125 21 21 19.992188 21 18.75 C 21 17.507812 20.328125 16.5 19.5 16.5 Z M 8.25 19.5 C 7.835938 19.5 7.5 19.835938 7.5 20.25 C 7.5 20.664062 7.835938 21 8.25 21 L 12 21 L 12 19.5 Z M 8.25 19.5 "/>
</g>
</svg>
