<?xml version="1.0" encoding="UTF-8"?>
<svg xmlns="http://www.w3.org/2000/svg" xmlns:xlink="http://www.w3.org/1999/xlink" width="24px" height="24px" viewBox="0 0 24 24" version="1.1">
<g id="surface1">
<path style=" stroke:none;fill-rule:nonzero;fill:rgb(33.333334%,34.117648%,32.549021%);fill-opacity:1;" d="M 3 1.5 C 2.167969 1.5 1.5 2.167969 1.5 3 L 1.5 6 C 1.5 6.832031 2.167969 7.5 3 7.5 L 4.5 7.5 L 4.5 6 C 4.5 5.171875 5.324219 4.5 6 4.5 L 9 4.5 L 9 14.300781 L 13.5 16.699219 L 13.5 4.5 L 16.5 4.5 C 17.328125 4.5 18 5.171875 18 6 L 18 7.5 L 19.5 7.5 C 20.128906 7.5 21 6.921875 21 6 L 21 3 C 21 2.167969 20.332031 1.5 19.5 1.5 Z M 0 12 L 0 24 L 22.5 24 Z M 3 16.5 L 10.5 21 L 3 21 Z M 3 16.5 "/>
</g>
</svg>
