<?xml version="1.0" encoding="UTF-8"?>
<svg xmlns="http://www.w3.org/2000/svg" xmlns:xlink="http://www.w3.org/1999/xlink" width="24px" height="24px" viewBox="0 0 24 24" version="1.1">
<g id="surface1">
<path style="fill:none;stroke-width:2.116667;stroke-linecap:round;stroke-linejoin:miter;stroke:rgb(90.196079%,0.784314%,70.588237%);stroke-opacity:1;stroke-miterlimit:4;" d="M -15.874999 270.541604 L -30.691667 270.541604 " transform="matrix(-0.708661,0,0,0.708661,0.00000135166,-186.472385)"/>
<path style="fill:none;stroke-width:2.116667;stroke-linecap:round;stroke-linejoin:miter;stroke:rgb(90.196079%,0.784314%,70.588237%);stroke-opacity:1;stroke-miterlimit:4;" d="M -15.874999 274.774938 L -26.458333 274.774938 " transform="matrix(-0.708661,0,0,0.708661,0.00000135166,-186.472385)"/>
<path style="fill:none;stroke-width:2.116667;stroke-linecap:round;stroke-linejoin:miter;stroke:rgb(90.196079%,0.784314%,70.588237%);stroke-opacity:1;stroke-miterlimit:4;" d="M -15.874999 270.541601 L -30.691666 270.541601 " transform="matrix(-0.708661,0,0,0.708661,0.00000152883,-175.972383)"/>
<path style="fill:none;stroke-width:2.116667;stroke-linecap:round;stroke-linejoin:miter;stroke:rgb(90.196079%,0.784314%,70.588237%);stroke-opacity:1;stroke-miterlimit:4;" d="M -15.874999 274.774935 L -26.458333 274.774935 " transform="matrix(-0.708661,0,0,0.708661,0.00000152883,-175.972383)"/>
<path style="fill-rule:nonzero;fill:rgb(90.196079%,0.784314%,70.588237%);fill-opacity:1;stroke-width:5.884334;stroke-linecap:round;stroke-linejoin:round;stroke:rgb(61.56863%,22.745098%,60.784316%);stroke-opacity:1;stroke-miterlimit:4;" d="M 8.100597 -272.996697 C 8.100597 -272.180898 7.444651 -271.524952 6.634364 -271.524952 C 5.818566 -271.524952 5.16262 -272.180898 5.16262 -272.996697 C 5.16262 -273.806983 5.818566 -274.462929 6.634364 -274.462929 C 7.444651 -274.462929 8.100597 -273.806983 8.100597 -272.996697 Z M 8.100597 -272.996697 " transform="matrix(0.708661,0,0,-0.708661,0.153951,-186.583308)"/>
<path style="fill-rule:nonzero;fill:rgb(95.294118%,71.764708%,85.09804%);fill-opacity:1;stroke-width:1;stroke-linecap:butt;stroke-linejoin:miter;stroke:rgb(61.56863%,22.745098%,60.784316%);stroke-opacity:1;stroke-miterlimit:4;" d="M 8.100597 272.996697 C 8.100597 273.806983 7.444651 274.462929 6.634364 274.462929 C 5.818566 274.462929 5.16262 273.806983 5.16262 272.996697 C 5.16262 272.180898 5.818566 271.524952 6.634364 271.524952 C 7.444651 271.524952 8.100597 272.180898 8.100597 272.996697 Z M 8.100597 272.996697 " transform="matrix(0.708661,0,0,0.708661,0.153951,-186.583308)"/>
<path style="fill-rule:nonzero;fill:rgb(95.294118%,71.764708%,85.09804%);fill-opacity:1;stroke-width:5.88383;stroke-linecap:round;stroke-linejoin:round;stroke:rgb(61.56863%,22.745098%,60.784316%);stroke-opacity:1;stroke-miterlimit:4;" d="M 8.101974 -272.996683 C 8.101974 -272.180885 7.446027 -271.524938 6.630229 -271.524938 C 5.819942 -271.524938 5.158484 -272.180885 5.158484 -272.996683 C 5.158484 -273.80697 5.819942 -274.462916 6.630229 -274.462916 C 7.446027 -274.462916 8.101974 -273.80697 8.101974 -272.996683 Z M 8.101974 -272.996683 " transform="matrix(0.708661,0,0,-0.708661,0.164694,-176.083299)"/>
<path style="fill-rule:nonzero;fill:rgb(95.294118%,71.764708%,85.09804%);fill-opacity:1;stroke-width:1;stroke-linecap:butt;stroke-linejoin:miter;stroke:rgb(61.56863%,22.745098%,60.784316%);stroke-opacity:1;stroke-miterlimit:4;" d="M 8.101974 272.996683 C 8.101974 273.80697 7.446027 274.462916 6.630229 274.462916 C 5.819942 274.462916 5.158484 273.80697 5.158484 272.996683 C 5.158484 272.180885 5.819942 271.524938 6.630229 271.524938 C 7.446027 271.524938 8.101974 272.180885 8.101974 272.996683 Z M 8.101974 272.996683 " transform="matrix(0.708661,0,0,0.708661,0.164694,-176.083299)"/>
</g>
</svg>
