<?xml version="1.0" encoding="UTF-8"?>
<svg xmlns="http://www.w3.org/2000/svg" xmlns:xlink="http://www.w3.org/1999/xlink" width="24px" height="24px" viewBox="0 0 24 24" version="1.1">
<g id="surface1">
<path style=" stroke:none;fill-rule:nonzero;fill:rgb(95.294118%,71.764708%,85.09804%);fill-opacity:1;" d="M 1.5 3 L 22.5 3 L 22.5 21 L 1.5 21 Z M 1.5 3 "/>
<path style=" stroke:none;fill-rule:nonzero;fill:rgb(90.196079%,0.784314%,70.588237%);fill-opacity:0.16763;" d="M 3 6 L 21 6 L 21 10.5 L 3 10.5 Z M 3 6 "/>
<path style=" stroke:none;fill-rule:nonzero;fill:rgb(94.117647%,89.019608%,92.54902%);fill-opacity:1;" d="M 4.5 7.5 L 19.5 7.5 L 19.5 10.5 L 4.5 10.5 Z M 4.5 7.5 "/>
<path style=" stroke:none;fill-rule:nonzero;fill:rgb(90.196079%,0.784314%,70.588237%);fill-opacity:0.375;" d="M 4.5 19.5 L 19.5 19.5 L 19.5 13.5 L 4.5 13.5 Z M 4.5 19.5 "/>
<path style=" stroke:none;fill-rule:nonzero;fill:rgb(94.117647%,89.019608%,92.54902%);fill-opacity:1;" d="M 4.5 13.5 L 19.5 13.5 L 19.5 18 L 4.5 18 Z M 4.5 13.5 "/>
<path style=" stroke:none;fill-rule:nonzero;fill:rgb(61.56863%,22.745098%,60.784316%);fill-opacity:1;" d="M 8.398438 17.136719 C 8.082031 16.785156 7.921875 16.332031 7.921875 15.78125 C 7.921875 15.226562 8.082031 14.777344 8.398438 14.425781 C 8.714844 14.074219 9.132812 13.898438 9.648438 13.898438 C 10.167969 13.898438 10.585938 14.074219 10.90625 14.425781 C 11.222656 14.773438 11.382812 15.234375 11.382812 15.804688 C 11.382812 16.335938 11.226562 16.78125 10.910156 17.136719 C 10.597656 17.488281 10.179688 17.664062 9.652344 17.664062 C 9.132812 17.664062 8.710938 17.488281 8.398438 17.136719 Z M 9.652344 14.527344 C 9.355469 14.527344 9.113281 14.644531 8.933594 14.875 C 8.753906 15.101562 8.664062 15.402344 8.664062 15.78125 C 8.664062 16.15625 8.753906 16.460938 8.933594 16.691406 C 9.113281 16.917969 9.355469 17.03125 9.652344 17.03125 C 9.949219 17.03125 10.1875 16.917969 10.367188 16.691406 C 10.550781 16.464844 10.644531 16.167969 10.644531 15.800781 C 10.644531 15.414062 10.554688 15.101562 10.371094 14.875 C 10.195312 14.644531 9.957031 14.527344 9.652344 14.527344 Z M 9.652344 14.527344 "/>
<path style=" stroke:none;fill-rule:nonzero;fill:rgb(61.56863%,22.745098%,60.784316%);fill-opacity:1;" d="M 13.648438 16.347656 L 13.648438 17.550781 L 12.90625 17.550781 L 12.90625 13.957031 L 13.648438 13.957031 L 13.648438 15.535156 L 15.050781 13.957031 L 15.921875 13.957031 L 14.488281 15.503906 L 16.078125 17.550781 L 15.195312 17.550781 L 14.015625 15.960938 Z M 13.648438 16.347656 "/>
<path style=" stroke:none;fill-rule:evenodd;fill:rgb(90.196079%,0.784314%,70.588237%);fill-opacity:1;" d="M 21.046875 0.0625 C 21.179688 -0.0898438 22.058594 -0.0195312 22.988281 0.828125 C 23.929688 1.683594 24.121094 2.511719 23.953125 2.699219 C 23.84375 2.820312 23.738281 2.945312 23.628906 3.066406 C 22.660156 2.1875 21.691406 1.308594 20.722656 0.429688 C 20.828125 0.304688 20.9375 0.183594 21.046875 0.0625 Z M 21.046875 0.0625 "/>
<path style=" stroke:none;fill-rule:evenodd;fill:rgb(90.196079%,0.784314%,70.588237%);fill-opacity:1;" d="M 9.308594 16.5 L 13.703125 14.453125 L 13.726562 14.429688 L 10.84375 11.761719 L 10.816406 11.792969 Z M 9.308594 16.5 "/>
<path style=" stroke:none;fill-rule:nonzero;fill:rgb(95.294118%,71.764708%,85.09804%);fill-opacity:1;" d="M 12.167969 13.230469 C 12.523438 13.558594 12.765625 13.558594 12.890625 13.675781 C 12.914062 13.695312 12.929688 13.714844 12.945312 13.738281 L 22.636719 2.609375 L 21.230469 1.328125 L 11.519531 12.480469 C 11.566406 12.492188 11.609375 12.507812 11.652344 12.546875 C 11.769531 12.652344 11.804688 12.902344 12.167969 13.230469 Z M 12.167969 13.230469 "/>
<path style=" stroke:none;fill-rule:nonzero;fill:rgb(61.56863%,22.745098%,60.784316%);fill-opacity:0.976471;" d="M 22.585938 2.5625 L 12.902344 13.683594 C 13.019531 13.800781 13.015625 13.984375 13.230469 14.179688 C 13.460938 14.390625 13.566406 14.300781 13.71875 14.4375 L 23.40625 3.308594 Z M 22.585938 2.5625 "/>
<path style=" stroke:none;fill-rule:nonzero;fill:rgb(61.56863%,22.745098%,60.784316%);fill-opacity:1;" d="M 11.152344 12.304688 C 11.378906 12.503906 11.53125 12.4375 11.652344 12.546875 L 21.335938 1.421875 L 20.503906 0.667969 L 10.816406 11.792969 C 10.820312 11.796875 10.824219 11.804688 10.828125 11.808594 C 10.921875 11.890625 10.929688 12.101562 11.152344 12.304688 Z M 11.152344 12.304688 "/>
<path style=" stroke:none;fill-rule:nonzero;fill:rgb(61.56863%,22.745098%,60.784316%);fill-opacity:1;" d="M 21.039062 0.0742188 L 23.949219 2.710938 L 23.332031 3.398438 L 20.425781 0.761719 Z M 21.039062 0.0742188 "/>
<path style=" stroke:none;fill-rule:evenodd;fill:rgb(95.294118%,71.764708%,85.09804%);fill-opacity:1;" d="M 11.203125 15.628906 C 10.789062 15.457031 10.230469 14.773438 9.945312 14.523438 L 9.308594 16.5 Z M 11.203125 15.628906 "/>
<path style=" stroke:none;fill-rule:nonzero;fill:rgb(95.294118%,71.764708%,85.09804%);fill-opacity:1;" d="M 21.824219 0.777344 L 21.222656 1.476562 L 22.632812 2.753906 L 23.234375 2.0625 Z M 21.824219 0.777344 "/>
</g>
</svg>
