<?xml version="1.0" encoding="UTF-8"?>
<svg xmlns="http://www.w3.org/2000/svg" xmlns:xlink="http://www.w3.org/1999/xlink" width="24px" height="24px" viewBox="0 0 24 24" version="1.1">
<g id="surface1">
<path style=" stroke:none;fill-rule:nonzero;fill:rgb(33.333334%,34.117648%,32.549021%);fill-opacity:1;" d="M 1.5 1.5 L 1.5 4.5 L 3 4.5 L 3 18 L 7.5 18 L 4.5 21 L 4.5 22.5 L 7.5 22.5 L 10.5 19.5 L 10.5 15 L 6 15 L 6 4.5 L 18 4.5 L 18 9.878906 L 21 12.878906 L 21 4.5 L 22.5 4.5 L 22.5 1.5 Z M 7.5 6 L 7.5 9 L 16.5 9 L 16.5 6 Z M 7.5 10.5 L 7.5 13.5 L 10.5 13.5 L 10.5 10.5 Z M 13.5 10.5 L 13.5 11.378906 L 15.621094 13.5 L 16.5 13.5 L 16.5 10.5 Z M 12 12 L 12 24 L 18 18 Z M 18 18 L 18 24 L 24 18 L 18 12 Z M 18 18 "/>
</g>
</svg>
