<?xml version="1.0" encoding="UTF-8"?>
<svg xmlns="http://www.w3.org/2000/svg" xmlns:xlink="http://www.w3.org/1999/xlink" width="24px" height="24px" viewBox="0 0 24 24" version="1.1">
<defs>
<filter id="alpha" filterUnits="objectBoundingBox" x="0%" y="0%" width="100%" height="100%">
  <feColorMatrix type="matrix" in="SourceGraphic" values="0 0 0 0 1 0 0 0 0 1 0 0 0 0 1 0 0 0 1 0"/>
</filter>
<mask id="mask0">
  <g filter="url(#alpha)">
<rect x="0" y="0" width="24" height="24" style="fill:rgb(0%,0%,0%);fill-opacity:0.25;stroke:none;"/>
  </g>
</mask>
<clipPath id="clip1">
  <rect x="0" y="0" width="24" height="24"/>
</clipPath>
<g id="surface5" clip-path="url(#clip1)">
<path style=" stroke:none;fill-rule:nonzero;fill:rgb(94.117647%,89.019608%,92.54902%);fill-opacity:1;" d="M 6.75 7.5 C 6 7.5 6 8.074219 6 8.25 L 6 15 C 6 15.832031 6.667969 16.5 7.5 16.5 L 7.5 9 L 13.324219 9 C 13.34375 9.101562 13.359375 9.140625 13.378906 9.253906 C 13.503906 9.972656 14.128906 10.5 14.855469 10.5 L 22.5 10.5 L 22.5 16.5 C 23.332031 16.5 24 15.832031 24 15 L 24 10.5 C 24 9.667969 23.332031 9 22.5 9 L 14.855469 9 C 14.730469 8.269531 14.589844 7.5 14.25 7.5 Z M 6.75 7.5 "/>
</g>
</defs>
<g id="surface1">
<path style=" stroke:none;fill-rule:nonzero;fill:rgb(95.294118%,71.764708%,85.09804%);fill-opacity:1;" d="M 1.5 1.5 L 22.5 1.5 L 22.5 19.5 L 1.5 19.5 Z M 1.5 1.5 "/>
<path style=" stroke:none;fill-rule:nonzero;fill:rgb(94.117647%,89.019608%,92.54902%);fill-opacity:1;" d="M 1.5 7.5 L 22.5 7.5 L 22.5 19.5 L 1.5 19.5 Z M 1.5 7.5 "/>
<path style=" stroke:none;fill-rule:nonzero;fill:rgb(79.215688%,79.215688%,80.000001%);fill-opacity:1;" d="M 1.5 15 L 22.5 15 L 22.5 16.5 L 1.5 16.5 Z M 1.5 15 "/>
<path style=" stroke:none;fill-rule:nonzero;fill:rgb(79.215688%,79.215688%,80.000001%);fill-opacity:1;" d="M 1.5 10.5 L 22.5 10.5 L 22.5 12 L 1.5 12 Z M 1.5 10.5 "/>
<path style=" stroke:none;fill-rule:nonzero;fill:rgb(79.215688%,79.215688%,80.000001%);fill-opacity:1;" d="M 7.5 7.5 L 9 7.5 L 9 19.5 L 7.5 19.5 Z M 7.5 7.5 "/>
<path style=" stroke:none;fill-rule:nonzero;fill:rgb(79.215688%,79.215688%,80.000001%);fill-opacity:1;" d="M 15 7.5 L 16.5 7.5 L 16.5 19.5 L 15 19.5 Z M 15 7.5 "/>
<path style=" stroke:none;fill-rule:nonzero;fill:rgb(61.56863%,22.745098%,60.784316%);fill-opacity:1;" d="M 6.75 7.5 C 6 7.5 6 8.074219 6 8.25 L 6 15 C 6 15.832031 6.667969 16.5 7.5 16.5 L 22.5 16.5 C 23.332031 16.5 24 15.832031 24 15 L 24 10.5 C 24 9.667969 23.332031 9 22.5 9 L 14.855469 9 C 14.730469 8.269531 14.589844 7.5 14.25 7.5 Z M 6.75 7.5 "/>
<path style=" stroke:none;fill-rule:nonzero;fill:rgb(98.823529%,97.647059%,91.37255%);fill-opacity:1;" d="M 7.5 9 L 12 9 L 12 10.5 L 7.5 10.5 Z M 7.5 9 "/>
<use xlink:href="#surface5" mask="url(#mask0)"/>
<path style=" stroke:none;fill-rule:nonzero;fill:rgb(90.196079%,0.784314%,70.588237%);fill-opacity:1;" d="M 10.5 9 L 12 9 L 12 10.5 L 10.5 10.5 Z M 10.5 9 "/>
<path style=" stroke:none;fill-rule:nonzero;fill:rgb(95.294118%,71.764708%,85.09804%);fill-opacity:1;" d="M 7.5 15 L 11.25 15 L 12.75 13.5 L 22.5 13.5 C 23.332031 13.5 24 14.167969 24 15 L 24 21 C 24 21.832031 23.332031 22.5 22.5 22.5 L 7.5 22.5 C 6.667969 22.5 6 21.832031 6 21 L 6 16.5 C 6 15.667969 6.851562 14.480469 7.5 15 Z M 7.5 15 "/>
<path style=" stroke:none;fill-rule:nonzero;fill:rgb(90.196079%,0.784314%,70.588237%);fill-opacity:1;" d="M 12.75 13.5 L 11.25 15 L 7.5 15 C 6.667969 15 6 15.667969 6 16.5 L 6 18 C 6 17.167969 6.851562 15.980469 7.5 16.5 L 11.25 16.5 L 12.75 15 L 22.5 15 C 23.332031 15 24 15.667969 24 16.5 L 24 15 C 24 14.167969 23.332031 13.5 22.5 13.5 Z M 12.75 13.5 "/>
<path style=" stroke:none;fill-rule:nonzero;fill:rgb(21.960784%,36.470589%,64.313728%);fill-opacity:1;" d="M 6 18 L 24 18 L 24 19.5 L 6 19.5 Z M 6 18 "/>
<path style=" stroke:none;fill-rule:nonzero;fill:rgb(61.56863%,22.745098%,60.784316%);fill-opacity:1;" d="M 6 18 L 24 18 L 24 19.5 L 6 19.5 Z M 6 18 "/>
<path style=" stroke:none;fill-rule:nonzero;fill:rgb(90.196079%,0.784314%,70.588237%);fill-opacity:1;" d="M 6 19.5 L 24 19.5 L 24 20.25 L 6 20.25 Z M 6 19.5 "/>
</g>
</svg>
