<?xml version="1.0" encoding="UTF-8" standalone="no"?>
<svg
   xmlns:dc="http://purl.org/dc/elements/1.1/"
   xmlns:cc="http://creativecommons.org/ns#"
   xmlns:rdf="http://www.w3.org/1999/02/22-rdf-syntax-ns#"
   xmlns:svg="http://www.w3.org/2000/svg"
   xmlns="http://www.w3.org/2000/svg"
   xmlns:sodipodi="http://sodipodi.sourceforge.net/DTD/sodipodi-0.dtd"
   xmlns:inkscape="http://www.inkscape.org/namespaces/inkscape"
   height="32"
   width="32"
   version="1.1"
   id="svg65"
   sodipodi:docname="lc_dbclearquery.svg"
   inkscape:version="0.92.3 (2405546, 2018-03-11)">
  <metadata
     id="metadata71">
    <rdf:RDF>
      <cc:Work
         rdf:about="">
        <dc:format>image/svg+xml</dc:format>
        <dc:type
           rdf:resource="http://purl.org/dc/dcmitype/StillImage" />
        <dc:title></dc:title>
      </cc:Work>
    </rdf:RDF>
  </metadata>
  <defs
     id="defs69" />
  <sodipodi:namedview
     pagecolor="#ffffff"
     bordercolor="#666666"
     borderopacity="1"
     objecttolerance="10"
     gridtolerance="10"
     guidetolerance="10"
     inkscape:pageopacity="0"
     inkscape:pageshadow="2"
     inkscape:window-width="1366"
     inkscape:window-height="705"
     id="namedview67"
     showgrid="true"
     inkscape:zoom="16"
     inkscape:cx="17.76158"
     inkscape:cy="17.143508"
     inkscape:window-x="-8"
     inkscape:window-y="-8"
     inkscape:window-maximized="1"
     inkscape:current-layer="svg65"
     inkscape:snap-global="false">
    <inkscape:grid
       type="xygrid"
       id="grid878" />
  </sodipodi:namedview>
  <filter
     id="a">
    <feGaussianBlur
       stdDeviation="2.4"
       id="feGaussianBlur2" />
  </filter>
  <linearGradient
     id="b"
     gradientTransform="matrix(0.1133598,0,0,0.1691546,0.642795,-76.95463)"
     gradientUnits="userSpaceOnUse"
     x1="399.77466"
     x2="399.77466"
     y1="681.00012"
     y2="549.33234">
    <stop
       offset="0"
       stop-color="#cbcbcd"
       id="stop5" />
    <stop
       offset=".5"
       stop-color="#e0e0e2"
       id="stop7" />
    <stop
       offset="1"
       stop-color="#fff"
       id="stop9" />
  </linearGradient>
  <linearGradient
     id="c"
     gradientUnits="userSpaceOnUse"
     x1="-228.6404"
     x2="-311.9765"
     y1="149.28616"
     y2="65.950043"
     gradientTransform="matrix(0.07324148,0,0,0.07324148,30.160779,-5.021778)">
    <stop
       offset="0"
       stop-color="#bf0303"
       id="stop12" />
    <stop
       offset="1"
       stop-color="#fe9494"
       id="stop14" />
  </linearGradient>
  <g
     id="g909"
     transform="matrix(2.0054412,0,0,2.0054412,-0.0166304,-0.06316888)">
    <g
       id="g43"
       transform="scale(0.125)">
      <path
         style="fill:#9d3a9b"
         inkscape:connector-curvature="0"
         id="path19"
         d="M 7.999997,16 H 120 v 96 H 7.999997 Z" />
      <path
         style="fill:#ffffff;fill-opacity:0.756881"
         inkscape:connector-curvature="0"
         id="path21"
         d="m 78.20266,37.61897 v -2.7448 z" />
      <path
         style="fill:#f0e3ec"
         inkscape:connector-curvature="0"
         id="path23"
         d="m 8,40 h 112 v 72 H 8 Z" />
      <g
         style="fill:#cacacc"
         id="g41">
        <path
           style="fill:#f3b7d9"
           inkscape:connector-curvature="0"
           id="path25"
           d="M 15.999997,64 H 56 v 8 H 15.999997 Z" />
        <path
           style="fill:#f3b7d9"
           inkscape:connector-curvature="0"
           id="path27"
           d="M 15.999997,48 H 56 v 8 H 15.999997 Z" />
        <path
           style="fill:#f3b7d9"
           inkscape:connector-curvature="0"
           id="path29"
           d="m 72,48 h 40 v 8 H 72 Z" />
        <path
           style="fill:#f3b7d9"
           inkscape:connector-curvature="0"
           id="path31"
           d="m 72,64 h 40 v 8 H 72 Z" />
        <path
           style="fill:#f3b7d9"
           inkscape:connector-curvature="0"
           id="path33"
           d="M 15.999997,80 H 56 v 8 H 15.999997 Z" />
        <path
           style="fill:#f3b7d9"
           inkscape:connector-curvature="0"
           id="path35"
           d="m 72,80 h 40 v 8 H 72 Z" />
        <path
           style="fill:#f3b7d9"
           inkscape:connector-curvature="0"
           id="path37"
           d="M 15.999997,96 H 56 v 8 H 15.999997 Z" />
        <path
           style="fill:#f3b7d9"
           inkscape:connector-curvature="0"
           id="path39"
           d="m 72,96 h 40 v 8 H 72 Z" />
      </g>
    </g>
    <path
       style="fill:#f0e3ec;fill-rule:evenodd;stroke:#e602b4;stroke-width:0.21972445;stroke-opacity:1"
       inkscape:connector-curvature="0"
       id="path45"
       d="M 9.519389,9.0000009 6.7444451,6.225054 8.4080741,4.5614258 11.694654,7.8781011 10.60326,8.9694929 Z" />
    <path
       style="opacity:1;fill:#e602b4;fill-rule:evenodd;stroke:#e602b4;stroke-width:0.21972445;stroke-linecap:round;stroke-linejoin:round;stroke-opacity:1"
       inkscape:connector-curvature="0"
       id="path47"
       d="m 11.878812,7.7875204 -3.3651164,-3.365112 3.3651164,-3.365111 3.365109,3.365111 z" />
    <path
       style="opacity:1;fill:#f0e3ec;fill-rule:evenodd;stroke:#9d3a9b;stroke-width:0.21972445;stroke-opacity:1"
       inkscape:connector-curvature="0"
       id="path49"
       d="M 10.737043,6.7059437 9.5952745,5.5641756 13.020581,2.1388734 14.162342,3.2806411 Z" />
    <path
       d="m 11.005041,5.5447711 -0.229912,-0.2272603 0.236226,-0.2334938 0.02438,0.02411 -0.176234,0.1742005 0.07378,0.072938 0.147676,-0.1459681 0.02408,0.023802 -0.147677,0.1459673 0.08327,0.082305 0.18853,-0.1863424 0.02438,0.024107 z M 11.322689,5.2308105 11.092755,5.0035517 11.220723,4.8770636 c 0.04056,-0.040091 0.07648,-0.06596 0.107731,-0.077609 0.03144,-0.011834 0.05642,-0.00859 0.07497,0.00973 0.03064,0.030301 0.02394,0.079941 -0.02016,0.1489131 l 0.248765,-0.033063 -0.0737,0.072844 -0.217498,0.022741 -0.05598,0.055338 0.09725,0.096124 -0.05941,0.058726 m -0.06223,-0.1789575 0.01942,-0.0192 c 0.07541,-0.074536 0.09701,-0.1277244 0.0648,-0.159561 -0.02371,-0.023441 -0.06719,-0.00392 -0.130407,0.058573 l -0.03771,0.037269 z M 11.819184,4.566235 11.64807,4.539415 11.67493,4.7088153 Z m 0.151339,0.024233 -0.109687,-0.0175 -0.179097,0.1770261 0.01713,0.108976 -0.05569,0.055056 -0.06226,-0.3929918 0.05942,-0.058727 0.395021,0.06407 z m 0.214268,-0.2004253 c -0.02838,0.028047 -0.06803,0.060575 -0.118945,0.097589 l -0.0323,-0.031938 c 0.05962,-0.035181 0.10475,-0.067924 0.135409,-0.098229 0.02361,-0.023341 0.0392,-0.045395 0.04675,-0.066168 0.0077,-0.020958 0.0062,-0.03686 -0.0048,-0.047715 -0.009,-0.0089 -0.02144,-0.011774 -0.03728,-0.00861 -0.01564,0.00298 -0.04001,0.013148 -0.0731,0.030506 l -0.03831,0.019736 c -0.04718,0.02452 -0.08311,0.039257 -0.107804,0.044215 -0.02459,0.00467 -0.04348,5.127e-4 -0.05663,-0.012505 -0.01772,-0.017505 -0.02045,-0.043558 -0.0082,-0.078157 0.01211,-0.034703 0.03645,-0.070125 0.07301,-0.1062646 0.03257,-0.032185 0.06989,-0.063241 0.111971,-0.09317 l 0.02983,0.029483 c -0.0541,0.034624 -0.09209,0.062763 -0.113986,0.084409 -0.02076,0.020516 -0.03489,0.040424 -0.0424,0.059727 -0.0075,0.019301 -0.0067,0.033454 0.0024,0.042463 0.0077,0.00758 0.0194,0.00939 0.03521,0.00543 0.01579,-0.00396 0.04093,-0.014873 0.0754,-0.032761 l 0.0396,-0.020715 c 0.04785,-0.024982 0.08402,-0.03966 0.108551,-0.044035 0.02451,-0.00437 0.04381,3.662e-4 0.0579,0.01432 0.01999,0.01976 0.02243,0.049086 0.0073,0.087976 -0.01493,0.038706 -0.04476,0.080176 -0.0895,0.1244079 m 0.226756,-0.2355057 -0.22992,-0.2272596 0.236226,-0.2334931 0.02438,0.024108 -0.176234,0.1742027 0.07378,0.072938 0.147684,-0.1459688 0.02408,0.023802 -0.147669,0.1459688 0.08327,0.082306 0.188523,-0.1863432 0.02438,0.024107 z M 12.729226,3.8405802 12.499307,3.61332 12.627274,3.4868334 c 0.04056,-0.040092 0.07646,-0.065959 0.107716,-0.077609 0.03146,-0.011834 0.05643,-0.00859 0.07498,0.00974 0.03064,0.030299 0.02393,0.079939 -0.02016,0.1489124 l 0.248765,-0.033063 -0.0737,0.072844 -0.217505,0.022739 -0.05599,0.055339 0.09726,0.096124 -0.05941,0.058726 M 12.667,3.6616227 l 0.01942,-0.0192 c 0.07539,-0.074536 0.09701,-0.1277229 0.06479,-0.1595602 -0.02371,-0.023441 -0.06718,-0.00392 -0.130406,0.058573 l -0.0377,0.03727 z"
       id="path53"
       inkscape:connector-curvature="0"
       style="fill:#9d3a9b;stroke:#9d3a9b;stroke-width:0.07324148;stroke-opacity:1" />
    <path
       style="fill:#f0e3ec;fill-rule:evenodd;stroke:#e602b4;stroke-width:0.21972445;stroke-linejoin:round;stroke-opacity:1"
       inkscape:connector-curvature="0"
       id="path55"
       d="M 12.839066,0.13936929 15.874999,3.1903526 15.873754,3.7910924 15.21844,4.4360745 11.871671,1.0742558 12.839052,0.13936929 Z" />
  </g>
</svg>
