<?xml version="1.0" encoding="UTF-8"?>
<svg xmlns="http://www.w3.org/2000/svg" xmlns:xlink="http://www.w3.org/1999/xlink" width="24px" height="24px" viewBox="0 0 24 24" version="1.1">
<g id="surface1">
<path style="fill-rule:nonzero;fill:rgb(95.294118%,71.764708%,85.09804%);fill-opacity:1;stroke-width:0.25;stroke-linecap:round;stroke-linejoin:round;stroke:rgb(61.56863%,22.745098%,60.784316%);stroke-opacity:1;stroke-miterlimit:4;" d="M 8.010417 0.125 C 4.697917 0.125 2.010417 0.78125 2.010417 1.53125 C 2.010417 3.078125 6.674479 7.846354 6.674479 7.846354 C 6.692708 7.875 6.716146 7.921875 6.716146 7.973958 L 6.716146 14.78125 C 6.716146 14.950521 6.947917 15.054688 7.861979 15.054688 C 8.755208 15.054688 9.304688 14.973958 9.304688 14.78125 C 9.304688 14.78125 9.304688 14.778646 9.304688 14.778646 L 9.296875 7.973958 C 9.296875 7.942708 9.302083 7.90625 9.315104 7.880208 C 9.315104 7.880208 13.989583 3.033854 13.989583 1.471354 C 13.989583 0.940104 11.320312 0.125 8.010417 0.125 Z M 8.010417 0.125 " transform="matrix(1.5,0,0,1.5,0,0)"/>
<path style=" stroke:none;fill-rule:nonzero;fill:rgb(90.196079%,0.784314%,70.588237%);fill-opacity:1;" d="M 12.015625 3.035156 C 8.753906 3.035156 6.054688 3.433594 5.625 3.945312 C 7.027344 4.277344 9.367188 4.5 12.015625 4.5 C 14.660156 4.5 16.996094 4.28125 18.402344 3.953125 C 17.980469 3.4375 15.28125 3.035156 12.015625 3.035156 Z M 12.015625 3.035156 "/>
<path style="fill:none;stroke-width:0.0982779;stroke-linecap:round;stroke-linejoin:round;stroke:rgb(61.56863%,22.745098%,60.784316%);stroke-opacity:1;stroke-miterlimit:4;" d="M 13.932292 1.565104 C 13.932292 2.367188 11.278646 3.015625 8.002604 3.015625 C 4.726562 3.015625 2.070312 2.367188 2.070312 1.565104 C 2.070312 0.765625 4.726562 0.114583 8.002604 0.114583 C 11.278646 0.114583 13.932292 0.765625 13.932292 1.565104 Z M 13.932292 1.565104 " transform="matrix(1.5,0,0,1.5,0,0)"/>
<path style=" stroke:none;fill-rule:nonzero;fill:rgb(90.196079%,0.784314%,70.588237%);fill-opacity:1;" d="M 12.101562 10.507812 C 11.203125 10.507812 10.480469 11.230469 10.480469 12.128906 L 10.480469 22.414062 C 10.480469 23.3125 11.203125 24.035156 12.101562 24.035156 L 22.390625 24.035156 C 23.292969 24.035156 24.015625 23.3125 24.015625 22.414062 L 24.015625 12.128906 C 24.015625 11.230469 23.292969 10.507812 22.390625 10.507812 Z M 12.101562 10.507812 "/>
<path style=" stroke:none;fill-rule:nonzero;fill:rgb(94.117647%,89.019608%,92.54902%);fill-opacity:1;" d="M 12.910156 12.011719 C 12.398438 12.011719 12 12.410156 12 12.921875 L 12 21.691406 C 12 22.203125 12.398438 22.601562 12.910156 22.601562 L 21.679688 22.601562 C 22.191406 22.601562 22.589844 22.203125 22.589844 21.691406 L 22.589844 12.921875 C 22.589844 12.410156 22.191406 12.011719 21.679688 12.011719 Z M 12.910156 12.011719 "/>
<path style=" stroke:none;fill-rule:nonzero;fill:rgb(61.56863%,22.745098%,60.784316%);fill-opacity:1;" d="M 16.914062 13.519531 L 17.617188 13.519531 C 17.839844 13.519531 18.023438 13.699219 18.023438 13.925781 L 18.023438 17.667969 C 18.023438 17.890625 17.839844 18.074219 17.617188 18.074219 L 16.914062 18.074219 C 16.691406 18.074219 16.507812 17.890625 16.507812 17.667969 L 16.507812 13.925781 C 16.507812 13.699219 16.691406 13.519531 16.914062 13.519531 Z M 16.914062 13.519531 "/>
<path style=" stroke:none;fill-rule:nonzero;fill:rgb(61.56863%,22.745098%,60.784316%);fill-opacity:1;" d="M 17.285156 19.507812 C 17.824219 19.507812 18.261719 19.945312 18.261719 20.484375 C 18.261719 21.019531 17.824219 21.457031 17.285156 21.457031 C 16.746094 21.457031 16.308594 21.019531 16.308594 20.484375 C 16.308594 19.945312 16.746094 19.507812 17.285156 19.507812 Z M 17.285156 19.507812 "/>
</g>
</svg>
