<?xml version="1.0" encoding="UTF-8"?>
<svg xmlns="http://www.w3.org/2000/svg" xmlns:xlink="http://www.w3.org/1999/xlink" width="24px" height="24px" viewBox="0 0 24 24" version="1.1">
<g id="surface1">
<path style=" stroke:none;fill-rule:nonzero;fill:rgb(33.333334%,34.117648%,32.549021%);fill-opacity:1;" d="M 6.75 1.5 L 6 4.5 L 3 5.25 L 6 6 L 6.75 9 L 7.5 6 L 10.5 5.25 L 7.5 4.5 Z M 12.75 1.5 C 12.335938 1.5 12 1.835938 12 2.25 C 12 2.664062 12.335938 3 12.75 3 C 13.164062 3 13.5 2.664062 13.5 2.25 C 13.5 1.835938 13.164062 1.5 12.75 1.5 Z M 18.75 3 C 18.335938 3 18 3.335938 18 3.75 C 18 4.164062 18.335938 4.5 18.75 4.5 C 19.164062 4.5 19.5 4.164062 19.5 3.75 C 19.5 3.335938 19.164062 3 18.75 3 Z M 14.25 6 C 13.835938 6 13.5 6.335938 13.5 6.75 C 13.5 7.164062 13.835938 7.5 14.25 7.5 C 14.664062 7.5 15 7.164062 15 6.75 C 15 6.335938 14.664062 6 14.25 6 Z M 10.5 9 C 9.667969 9 9 9.667969 9 10.5 L 9 15.90625 C 8.964844 15.921875 8.925781 15.9375 8.890625 15.953125 C 8.671875 15.394531 8.136719 15 7.5 15 C 6.667969 15 6 15.667969 6 16.5 L 6 19.5 C 6 21.984375 9.359375 24 13.5 24 C 17.640625 24 21 21.984375 21 19.5 L 21 16.5 C 21 15.667969 20.332031 15 19.5 15 C 18.863281 15 18.324219 15.394531 18.109375 15.957031 C 18.074219 15.9375 18.035156 15.921875 18 15.90625 L 18 15 C 18 14.167969 17.332031 13.5 16.5 13.5 C 15.667969 13.5 15 14.167969 15 15 L 15 13.5 C 15 12.667969 14.332031 12 13.5 12 C 12.667969 12 12 12.667969 12 13.5 L 12 10.5 C 12 9.667969 11.332031 9 10.5 9 Z M 10.5 9 "/>
</g>
</svg>
