<?xml version="1.0" encoding="UTF-8"?>
<svg xmlns="http://www.w3.org/2000/svg" xmlns:xlink="http://www.w3.org/1999/xlink" width="24px" height="24px" viewBox="0 0 24 24" version="1.1">
<g id="surface1">
<path style=" stroke:none;fill-rule:nonzero;fill:rgb(33.333334%,34.117648%,32.549021%);fill-opacity:1;" d="M 1.5 1.5 L 1.5 4.5 L 3 4.5 L 3 18 L 7.5 18 L 4.5 21 L 4.5 22.5 L 7.5 22.5 L 10.648438 19.351562 C 10.558594 18.90625 10.507812 18.453125 10.5 18 C 10.492188 16.96875 10.695312 15.949219 11.101562 15 L 6 15 L 6 4.5 L 18 4.5 L 18 10.5 C 19.03125 10.492188 20.050781 10.695312 21 11.101562 L 21 4.5 L 22.5 4.5 L 22.5 1.5 Z M 7.5 6 L 7.5 9 L 16.5 9 L 16.5 6 Z M 7.5 10.5 L 7.5 13.5 L 12 13.5 L 12 10.5 Z M 13.5 10.5 L 13.5 12 C 14.386719 11.332031 15.414062 10.871094 16.5 10.648438 L 16.5 10.5 Z M 18 12 C 14.6875 12 12 14.6875 12 18 C 12 21.3125 14.6875 24 18 24 C 21.3125 24 24 21.3125 24 18 C 24 14.6875 21.3125 12 18 12 Z M 18 13.5 C 20.484375 13.5 22.5 15.515625 22.5 18 C 22.5 20.484375 20.484375 22.5 18 22.5 C 15.515625 22.5 13.5 20.484375 13.5 18 C 13.5 15.515625 15.515625 13.5 18 13.5 Z M 16.5 15 L 16.5 19.5 L 19.5 19.5 L 19.5 18 L 18 18 L 18 15 Z M 16.5 15 "/>
</g>
</svg>
