<?xml version="1.0" encoding="UTF-8"?>
<svg xmlns="http://www.w3.org/2000/svg" xmlns:xlink="http://www.w3.org/1999/xlink" width="24px" height="24px" viewBox="0 0 24 24" version="1.1">
<g id="surface1">
<path style=" stroke:none;fill-rule:nonzero;fill:rgb(95.294118%,71.764708%,85.09804%);fill-opacity:1;" d="M 1.5 3 L 22.5 3 L 22.5 21 L 1.5 21 Z M 1.5 3 "/>
<path style=" stroke:none;fill-rule:nonzero;fill:rgb(94.117647%,89.019608%,92.54902%);fill-opacity:1;" d="M 1.5 9 L 22.5 9 L 22.5 21 L 1.5 21 Z M 1.5 9 "/>
<path style=" stroke:none;fill-rule:nonzero;fill:rgb(95.294118%,71.764708%,85.09804%);fill-opacity:1;" d="M 1.5 16.5 L 22.5 16.5 L 22.5 18 L 1.5 18 Z M 1.5 16.5 "/>
<path style=" stroke:none;fill-rule:nonzero;fill:rgb(95.294118%,71.764708%,85.09804%);fill-opacity:1;" d="M 1.5 12 L 22.5 12 L 22.5 13.5 L 1.5 13.5 Z M 1.5 12 "/>
<path style=" stroke:none;fill-rule:nonzero;fill:rgb(95.294118%,71.764708%,85.09804%);fill-opacity:1;" d="M 7.5 9 L 9 9 L 9 21 L 7.5 21 Z M 7.5 9 "/>
<path style=" stroke:none;fill-rule:nonzero;fill:rgb(95.294118%,71.764708%,85.09804%);fill-opacity:1;" d="M 15 9 L 16.5 9 L 16.5 21 L 15 21 Z M 15 9 "/>
<path style=" stroke:none;fill-rule:nonzero;fill:rgb(61.56863%,22.745098%,60.784316%);fill-opacity:1;" d="M 0.78125 0 L 15.71875 0 C 16.148438 0 16.5 0.351562 16.5 0.78125 L 16.5 8.21875 C 16.5 8.648438 16.148438 9 15.71875 9 L 0.78125 9 C 0.351562 9 0 8.648438 0 8.21875 L 0 0.78125 C 0 0.351562 0.351562 0 0.78125 0 Z M 0.78125 0 "/>
<path style=" stroke:none;fill-rule:nonzero;fill:rgb(94.117647%,89.019608%,92.54902%);fill-opacity:1;" d="M 2.28125 1.5 L 14.21875 1.5 C 14.648438 1.5 15 1.851562 15 2.28125 L 15 6.71875 C 15 7.148438 14.648438 7.5 14.21875 7.5 L 2.28125 7.5 C 1.851562 7.5 1.5 7.148438 1.5 6.71875 L 1.5 2.28125 C 1.5 1.851562 1.851562 1.5 2.28125 1.5 Z M 2.28125 1.5 "/>
<path style=" stroke:none;fill-rule:nonzero;fill:rgb(90.196079%,0.784314%,70.588237%);fill-opacity:1;" d="M 3.449219 3 L 13.050781 3 C 13.300781 3 13.5 3.199219 13.5 3.449219 L 13.5 5.550781 C 13.5 5.800781 13.300781 6 13.050781 6 L 3.449219 6 C 3.199219 6 3 5.800781 3 5.550781 L 3 3.449219 C 3 3.199219 3.199219 3 3.449219 3 Z M 3.449219 3 "/>
</g>
</svg>
