<?xml version="1.0" encoding="UTF-8"?>
<svg xmlns="http://www.w3.org/2000/svg" xmlns:xlink="http://www.w3.org/1999/xlink" width="24px" height="24px" viewBox="0 0 24 24" version="1.1">
<defs>
<filter id="alpha" filterUnits="objectBoundingBox" x="0%" y="0%" width="100%" height="100%">
  <feColorMatrix type="matrix" in="SourceGraphic" values="0 0 0 0 1 0 0 0 0 1 0 0 0 0 1 0 0 0 1 0"/>
</filter>
<mask id="mask0">
  <g filter="url(#alpha)">
<rect x="0" y="0" width="24" height="24" style="fill:rgb(0%,0%,0%);fill-opacity:0.35;stroke:none;"/>
  </g>
</mask>
<clipPath id="clip1">
  <rect x="0" y="0" width="24" height="24"/>
</clipPath>
<g id="surface5" clip-path="url(#clip1)">
<path style=" stroke:none;fill-rule:nonzero;fill:rgb(33.333334%,34.117648%,32.549021%);fill-opacity:1;" d="M 9.617188 5.515625 L 5.078125 9.269531 C 4.6875 9.574219 4.511719 10.039062 4.527344 10.5 L 4.5 10.5 L 4.5 15 C 4.5 15.832031 3.832031 16.5 3 16.5 C 2.167969 16.5 1.5 15.832031 1.5 15 L 1.5 10.5 C 1.5 9.382812 1.851562 8.851562 3 8.347656 Z M 9.617188 5.515625 "/>
</g>
</defs>
<g id="surface1">
<path style=" stroke:none;fill-rule:nonzero;fill:rgb(33.333334%,34.117648%,32.549021%);fill-opacity:1;" d="M 1.5 1.5 C 0.667969 1.5 0 2.167969 0 3 L 0 10.5 C 0 9.785156 0.148438 9 0.589844 8.347656 C 1.046875 7.699219 1.675781 7.316406 2.351562 6.992188 L 2.382812 6.980469 L 3 6.714844 L 3 4.5 L 8.179688 4.5 L 8.832031 4.222656 L 11.042969 2.394531 L 12 1.605469 L 12 1.5 Z M 0 10.5 L 0 21 C 0 21.832031 0.667969 22.5 1.5 22.5 L 11.230469 22.5 L 9 19.5 L 3 19.5 L 3 18 C 1.351562 18 0 16.648438 0 15 Z M 13.5 1.5 L 13.5 10.5 C 13.5 11.328125 14.171875 12 15 12 C 15.828125 12 16.5 11.328125 16.5 10.5 L 16.5 1.5 Z M 18 1.5 L 18 4.5 L 21 4.5 L 21 10.015625 L 23.410156 13.25 C 24.375 14.546875 24.128906 16.414062 22.851562 17.410156 L 16.679688 22.5 L 22.5 22.5 C 23.332031 22.5 24 21.832031 24 21 L 24 3 C 24 2.167969 23.332031 1.5 22.5 1.5 Z M 12 3.550781 L 5.078125 9.269531 C 4.4375 9.769531 4.3125 10.691406 4.796875 11.34375 L 12.671875 21.917969 C 13.15625 22.570312 14.0625 22.691406 14.699219 22.191406 L 21.929688 16.226562 C 22.570312 15.726562 22.691406 14.800781 22.207031 14.148438 L 18 8.503906 L 18 10.5 C 18 12.140625 16.640625 13.5 15 13.5 C 13.359375 13.5 12 12.140625 12 10.5 Z M 12 3.550781 "/>
<use xlink:href="#surface5" mask="url(#mask0)"/>
</g>
</svg>
