<?xml version="1.0" encoding="UTF-8"?>
<svg xmlns="http://www.w3.org/2000/svg" xmlns:xlink="http://www.w3.org/1999/xlink" width="24px" height="24px" viewBox="0 0 24 24" version="1.1">
<g id="surface1">
<path style=" stroke:none;fill-rule:nonzero;fill:rgb(33.333334%,34.117648%,32.549021%);fill-opacity:1;" d="M 12 1.5 C 11.171875 1.5 10.5 2.171875 10.5 3 C 10.5 3.828125 11.171875 4.5 12 4.5 C 12.828125 4.5 13.5 3.828125 13.5 3 C 13.5 2.171875 12.828125 1.5 12 1.5 Z M 12 7.5 C 11.171875 7.5 10.5 8.171875 10.5 9 C 10.5 9.828125 11.171875 10.5 12 10.5 C 12.828125 10.5 13.5 9.828125 13.5 9 C 13.5 8.171875 12.828125 7.5 12 7.5 Z M 3 10.5 L 3 12 C 3 12.464844 3.136719 12.828125 3.421875 13.125 C 5.03125 15.25 10.390625 20.375 12 22.5 L 20.578125 13.125 C 20.863281 12.828125 21 12.464844 21 12 L 21 10.5 L 19.5 10.5 C 19.113281 10.5 18.707031 10.695312 18.421875 10.96875 L 12 18 L 5.578125 10.96875 C 5.292969 10.695312 4.113281 10.5 4.5 10.5 Z M 3 10.5 "/>
</g>
</svg>
