<?xml version="1.0" encoding="UTF-8"?>
<svg xmlns="http://www.w3.org/2000/svg" xmlns:xlink="http://www.w3.org/1999/xlink" width="24px" height="24px" viewBox="0 0 24 24" version="1.1">
<g id="surface1">
<path style=" stroke:none;fill-rule:nonzero;fill:rgb(33.333334%,34.117648%,32.549021%);fill-opacity:1;" d="M 1.5 4.5 L 1.5 19.5 L 10.648438 19.5 C 10.550781 19.007812 10.5 18.503906 10.5 18 L 3 18 L 3 6 L 21 6 L 21 11.101562 C 21.535156 11.339844 22.035156 11.640625 22.5 12 L 22.5 4.5 Z M 4.5 7.5 L 4.5 10.5 L 19.5 10.5 L 19.5 7.5 Z M 18 12 C 14.699219 12 12 14.699219 12 18 C 12 21.300781 14.699219 24 18 24 C 21.300781 24 24 21.300781 24 18 C 24 14.699219 21.300781 12 18 12 Z M 4.5 13.5 L 4.5 16.5 L 10.5 16.5 L 10.5 13.5 Z M 13.5 16.5 L 22.5 16.5 L 22.5 19.5 L 13.5 19.5 Z M 13.5 16.5 "/>
</g>
</svg>
