<?xml version="1.0" encoding="UTF-8"?>
<svg xmlns="http://www.w3.org/2000/svg" xmlns:xlink="http://www.w3.org/1999/xlink" width="24px" height="24px" viewBox="0 0 24 24" version="1.1">
<g id="surface1">
<path style="fill-rule:nonzero;fill:rgb(94.117647%,89.019608%,92.54902%);fill-opacity:1;stroke-width:0.529167;stroke-linecap:round;stroke-linejoin:round;stroke:rgb(61.56863%,22.745098%,60.784316%);stroke-opacity:1;stroke-miterlimit:4;" d="M 16.955381 263.397945 C 9.943922 263.397945 4.25538 264.787008 4.25538 266.374508 C 4.25538 269.648727 14.127647 279.741479 14.127647 279.741479 C 14.166232 279.802113 14.215841 279.901332 14.215841 280.011575 L 14.215841 294.420343 C 14.215841 294.778633 14.706423 294.999119 16.641188 294.999119 C 18.531857 294.999119 19.694921 294.828242 19.694921 294.420343 C 19.694921 294.420343 19.694921 294.414831 19.694921 294.414831 L 19.678385 280.011575 C 19.678385 279.945429 19.689409 279.868259 19.71697 279.813137 C 19.71697 279.813137 29.611285 269.55502 29.611285 266.247728 C 29.611285 265.123249 23.961328 263.397945 16.955381 263.397945 Z M 16.955381 263.397945 " transform="matrix(0.708661,0,0,0.708661,0.00000135166,-186.47245)"/>
<path style=" stroke:none;fill-rule:nonzero;fill:rgb(90.196079%,0.784314%,70.588237%);fill-opacity:1;" d="M 12.015625 3.035156 C 8.753906 3.035156 6.054688 3.433594 5.625 3.945312 C 7.027344 4.277344 9.367188 4.5 12.015625 4.5 C 14.660156 4.5 16.996094 4.28125 18.402344 3.953125 C 17.980469 3.4375 15.28125 3.035156 12.015625 3.035156 Z M 12.015625 3.035156 "/>
<path style="fill:none;stroke-width:0.529167;stroke-linecap:round;stroke-linejoin:round;stroke:rgb(61.56863%,22.745098%,60.784316%);stroke-opacity:1;stroke-miterlimit:4;" d="M 29.484505 266.446166 C 29.484505 268.12186 23.867621 269.47785 16.938845 269.47785 C 10.010068 269.47785 4.393184 268.12186 4.393184 266.446166 C 4.393184 264.775983 10.010068 263.419994 16.938845 263.419994 C 23.867621 263.419994 29.484505 264.775983 29.484505 266.446166 Z M 29.484505 266.446166 " transform="matrix(0.708661,0,0,0.708661,0.00000135166,-186.47245)"/>
<path style=" stroke:none;fill-rule:nonzero;fill:rgb(90.196079%,0.784314%,70.588237%);fill-opacity:1;" d="M 3.742188 15.664062 L 1.789062 15.664062 L 1.789062 14.882812 C 2.636719 14.773438 3.1875 14.625 3.445312 14.433594 C 3.703125 14.242188 3.925781 13.808594 4.117188 13.125 L 4.839844 13.125 L 4.839844 21.949219 L 3.742188 21.949219 Z M 3.742188 15.664062 "/>
<path style=" stroke:none;fill-rule:nonzero;fill:rgb(90.196079%,0.784314%,70.588237%);fill-opacity:1;" d="M 8.839844 16.1875 C 8.898438 14.148438 9.867188 13.125 11.75 13.125 C 12.589844 13.125 13.269531 13.367188 13.792969 13.847656 C 14.316406 14.328125 14.574219 14.953125 14.574219 15.714844 C 14.574219 16.808594 13.953125 17.699219 12.710938 18.378906 L 11.464844 19.050781 C 10.925781 19.339844 10.539062 19.621094 10.308594 19.894531 C 10.074219 20.171875 9.929688 20.492188 9.871094 20.867188 L 14.515625 20.867188 L 14.515625 21.949219 L 8.640625 21.949219 C 8.691406 20.980469 8.882812 20.234375 9.226562 19.710938 C 9.566406 19.179688 10.195312 18.652344 11.117188 18.128906 L 12.261719 17.480469 C 13.058594 17.027344 13.457031 16.445312 13.457031 15.738281 C 13.457031 15.265625 13.289062 14.875 12.957031 14.558594 C 12.625 14.242188 12.210938 14.085938 11.714844 14.085938 C 10.609375 14.085938 10.015625 14.785156 9.933594 16.1875 Z M 8.839844 16.1875 "/>
<path style=" stroke:none;fill-rule:nonzero;fill:rgb(90.196079%,0.784314%,70.588237%);fill-opacity:1;" d="M 19.273438 14.085938 C 18.640625 14.085938 18.207031 14.257812 17.964844 14.609375 C 17.734375 14.949219 17.609375 15.402344 17.59375 15.976562 L 16.496094 15.976562 C 16.539062 14.078125 17.460938 13.125 19.261719 13.125 C 20.097656 13.125 20.753906 13.34375 21.226562 13.773438 C 21.707031 14.207031 21.949219 14.796875 21.949219 15.554688 C 21.949219 16.449219 21.539062 17.058594 20.714844 17.382812 C 21.246094 17.566406 21.628906 17.824219 21.863281 18.152344 C 22.09375 18.476562 22.210938 18.921875 22.210938 19.484375 C 22.210938 20.324219 21.9375 20.992188 21.386719 21.488281 C 20.847656 21.988281 20.128906 22.234375 19.222656 22.234375 C 17.414062 22.234375 16.445312 21.285156 16.3125 19.386719 L 17.40625 19.386719 C 17.449219 20.023438 17.617188 20.496094 17.917969 20.804688 C 18.214844 21.113281 18.664062 21.265625 19.261719 21.265625 C 19.832031 21.265625 20.28125 21.113281 20.605469 20.804688 C 20.929688 20.488281 21.089844 20.054688 21.089844 19.5 C 21.089844 18.429688 20.480469 17.894531 19.261719 17.894531 L 18.800781 17.90625 L 18.664062 17.90625 L 18.664062 16.972656 C 19.453125 16.957031 20.007812 16.855469 20.332031 16.671875 C 20.664062 16.492188 20.828125 16.128906 20.828125 15.589844 C 20.828125 15.125 20.6875 14.761719 20.40625 14.496094 C 20.132812 14.222656 19.753906 14.085938 19.273438 14.085938 Z M 19.273438 14.085938 "/>
</g>
</svg>
