<?xml version="1.0" encoding="UTF-8"?>
<svg xmlns="http://www.w3.org/2000/svg" xmlns:xlink="http://www.w3.org/1999/xlink" width="24px" height="24px" viewBox="0 0 24 24" version="1.1">
<g id="surface1">
<path style=" stroke:none;fill-rule:nonzero;fill:rgb(95.294118%,71.764708%,85.09804%);fill-opacity:1;" d="M 12 3 L 22.5 3 L 22.5 22.5 L 12 22.5 Z M 12 3 "/>
<path style=" stroke:none;fill-rule:nonzero;fill:rgb(94.117647%,89.019608%,92.54902%);fill-opacity:1;" d="M 12 7.5 L 22.5 7.5 L 22.5 22.5 L 12 22.5 Z M 12 7.5 "/>
<path style=" stroke:none;fill-rule:nonzero;fill:rgb(90.196079%,0.784314%,70.588237%);fill-opacity:1;" d="M 22.5 4.5 C 22.5 5.328125 21.828125 6 21 6 C 20.171875 6 19.5 5.328125 19.5 4.5 C 19.5 3.671875 20.171875 3 21 3 C 21.828125 3 22.5 3.671875 22.5 4.5 Z M 22.5 4.5 "/>
<path style=" stroke:none;fill-rule:nonzero;fill:rgb(90.196079%,0.784314%,70.588237%);fill-opacity:1;" d="M 18 4.5 C 18 5.328125 17.328125 6 16.5 6 C 15.671875 6 15 5.328125 15 4.5 C 15 3.671875 15.671875 3 16.5 3 C 17.328125 3 18 3.671875 18 4.5 Z M 18 4.5 "/>
<path style=" stroke:none;fill-rule:nonzero;fill:rgb(61.56863%,22.745098%,60.784316%);fill-opacity:1;" d="M 0.78125 9 L 15.71875 9 C 16.148438 9 16.5 9.351562 16.5 9.78125 L 16.5 17.21875 C 16.5 17.648438 16.148438 18 15.71875 18 L 0.78125 18 C 0.351562 18 0 17.648438 0 17.21875 L 0 9.78125 C 0 9.351562 0.351562 9 0.78125 9 Z M 0.78125 9 "/>
<path style=" stroke:none;fill-rule:nonzero;fill:rgb(95.294118%,71.764708%,85.09804%);fill-opacity:1;" d="M 2.28125 10.5 L 14.21875 10.5 C 14.648438 10.5 15 10.851562 15 11.28125 L 15 15.71875 C 15 16.148438 14.648438 16.5 14.21875 16.5 L 2.28125 16.5 C 1.851562 16.5 1.5 16.148438 1.5 15.71875 L 1.5 11.28125 C 1.5 10.851562 1.851562 10.5 2.28125 10.5 Z M 2.28125 10.5 "/>
<path style=" stroke:none;fill-rule:nonzero;fill:rgb(90.196079%,0.784314%,70.588237%);fill-opacity:1;" d="M 3.449219 12 L 13.050781 12 C 13.300781 12 13.5 12.199219 13.5 12.449219 L 13.5 14.550781 C 13.5 14.800781 13.300781 15 13.050781 15 L 3.449219 15 C 3.199219 15 3 14.800781 3 14.550781 L 3 12.449219 C 3 12.199219 3.199219 12 3.449219 12 Z M 3.449219 12 "/>
</g>
</svg>
