<?xml version="1.0" encoding="UTF-8"?>
<svg xmlns="http://www.w3.org/2000/svg" xmlns:xlink="http://www.w3.org/1999/xlink" width="24px" height="24px" viewBox="0 0 24 24" version="1.1">
<g id="surface1">
<path style=" stroke:none;fill-rule:nonzero;fill:rgb(61.56863%,22.745098%,60.784316%);fill-opacity:1;" d="M 1.5 3 L 22.5 3 L 22.5 21 L 1.5 21 Z M 1.5 3 "/>
<path style=" stroke:none;fill-rule:nonzero;fill:rgb(94.117647%,89.019608%,92.54902%);fill-opacity:1;" d="M 1.5 7.5 L 22.5 7.5 L 22.5 21 L 1.5 21 Z M 1.5 7.5 "/>
<path style=" stroke:none;fill-rule:nonzero;fill:rgb(95.294118%,71.764708%,85.09804%);fill-opacity:1;" d="M 3 12 L 10.5 12 L 10.5 13.5 L 3 13.5 Z M 3 12 "/>
<path style=" stroke:none;fill-rule:nonzero;fill:rgb(95.294118%,71.764708%,85.09804%);fill-opacity:1;" d="M 3 9 L 10.5 9 L 10.5 10.5 L 3 10.5 Z M 3 9 "/>
<path style=" stroke:none;fill-rule:nonzero;fill:rgb(95.294118%,71.764708%,85.09804%);fill-opacity:1;" d="M 13.5 9 L 21 9 L 21 10.5 L 13.5 10.5 Z M 13.5 9 "/>
<path style=" stroke:none;fill-rule:nonzero;fill:rgb(95.294118%,71.764708%,85.09804%);fill-opacity:1;" d="M 13.5 12 L 21 12 L 21 13.5 L 13.5 13.5 Z M 13.5 12 "/>
<path style=" stroke:none;fill-rule:nonzero;fill:rgb(95.294118%,71.764708%,85.09804%);fill-opacity:1;" d="M 3 15 L 10.5 15 L 10.5 16.5 L 3 16.5 Z M 3 15 "/>
<path style=" stroke:none;fill-rule:nonzero;fill:rgb(95.294118%,71.764708%,85.09804%);fill-opacity:1;" d="M 13.5 15 L 21 15 L 21 16.5 L 13.5 16.5 Z M 13.5 15 "/>
<path style=" stroke:none;fill-rule:nonzero;fill:rgb(95.294118%,71.764708%,85.09804%);fill-opacity:1;" d="M 3 18 L 10.5 18 L 10.5 19.5 L 3 19.5 Z M 3 18 "/>
<path style=" stroke:none;fill-rule:nonzero;fill:rgb(95.294118%,71.764708%,85.09804%);fill-opacity:1;" d="M 13.5 18 L 21 18 L 21 19.5 L 13.5 19.5 Z M 13.5 18 "/>
<path style="fill-rule:evenodd;fill:rgb(94.117647%,89.019608%,92.54902%);fill-opacity:1;stroke-width:0.219724;stroke-linecap:butt;stroke-linejoin:miter;stroke:rgb(90.196079%,0.784314%,70.588237%);stroke-opacity:1;stroke-miterlimit:4;" d="M 9.518229 9 L 6.744792 6.223958 L 8.408854 4.5625 L 11.695312 7.877604 L 10.604167 8.96875 Z M 9.518229 9 " transform="matrix(1.5,0,0,1.5,0,0)"/>
<path style="fill-rule:evenodd;fill:rgb(90.196079%,0.784314%,70.588237%);fill-opacity:1;stroke-width:0.219724;stroke-linecap:round;stroke-linejoin:round;stroke:rgb(90.196079%,0.784314%,70.588237%);stroke-opacity:1;stroke-miterlimit:4;" d="M 11.877604 7.786458 L 8.513021 4.421875 L 11.877604 1.057292 L 15.244792 4.421875 Z M 11.877604 7.786458 " transform="matrix(1.5,0,0,1.5,0,0)"/>
<path style="fill-rule:evenodd;fill:rgb(94.117647%,89.019608%,92.54902%);fill-opacity:1;stroke-width:0.219724;stroke-linecap:butt;stroke-linejoin:miter;stroke:rgb(61.56863%,22.745098%,60.784316%);stroke-opacity:1;stroke-miterlimit:4;" d="M 10.736979 6.705729 L 9.596354 5.565104 L 13.020833 2.138021 L 14.161458 3.28125 Z M 10.736979 6.705729 " transform="matrix(1.5,0,0,1.5,0,0)"/>
<path style="fill-rule:nonzero;fill:rgb(61.56863%,22.745098%,60.784316%);fill-opacity:1;stroke-width:0.0732415;stroke-linecap:butt;stroke-linejoin:miter;stroke:rgb(61.56863%,22.745098%,60.784316%);stroke-opacity:1;stroke-miterlimit:4;" d="M 11.005208 5.544271 L 10.776042 5.317708 L 11.010417 5.083333 L 11.036458 5.109375 L 10.859375 5.28125 L 10.932292 5.354167 L 11.080729 5.208333 L 11.104167 5.234375 L 10.958333 5.380208 L 11.041667 5.460938 L 11.229167 5.276042 L 11.252604 5.299479 Z M 11.322917 5.231771 L 11.09375 5.002604 L 11.221354 4.877604 C 11.260417 4.835938 11.296875 4.809896 11.328125 4.799479 C 11.359375 4.786458 11.385417 4.791667 11.403646 4.809896 C 11.434896 4.838542 11.427083 4.888021 11.382812 4.958333 L 11.632812 4.924479 L 11.557292 4.997396 L 11.341146 5.020833 L 11.283854 5.075521 L 11.382812 5.171875 L 11.322917 5.231771 M 11.260417 5.052083 L 11.278646 5.033854 C 11.354167 4.958333 11.377604 4.903646 11.34375 4.872396 C 11.320312 4.848958 11.278646 4.869792 11.213542 4.932292 L 11.177083 4.96875 Z M 11.820312 4.565104 L 11.648438 4.539062 L 11.674479 4.708333 Z M 11.971354 4.591146 L 11.861979 4.572917 L 11.682292 4.75 L 11.697917 4.859375 L 11.643229 4.914062 L 11.580729 4.520833 L 11.640625 4.463542 L 12.036458 4.526042 Z M 12.184896 4.390625 C 12.15625 4.419271 12.117188 4.450521 12.065104 4.486979 L 12.033854 4.455729 C 12.09375 4.419271 12.138021 4.388021 12.169271 4.356771 C 12.192708 4.333333 12.208333 4.3125 12.216146 4.291667 C 12.223958 4.270833 12.221354 4.255208 12.210938 4.244792 C 12.203125 4.234375 12.190104 4.231771 12.174479 4.234375 C 12.158854 4.236979 12.132812 4.247396 12.101562 4.265625 L 12.0625 4.286458 C 12.015625 4.309896 11.979167 4.325521 11.953125 4.330729 C 11.929688 4.333333 11.911458 4.330729 11.898438 4.317708 C 11.880208 4.299479 11.877604 4.273438 11.890625 4.239583 C 11.901042 4.203125 11.927083 4.169271 11.963542 4.132812 C 11.994792 4.101562 12.03125 4.070312 12.075521 4.039062 L 12.104167 4.067708 C 12.049479 4.104167 12.013021 4.132812 11.989583 4.153646 C 11.96875 4.174479 11.955729 4.192708 11.947917 4.213542 C 11.940104 4.231771 11.940104 4.247396 11.950521 4.255208 C 11.958333 4.263021 11.96875 4.265625 11.984375 4.260417 C 12.002604 4.257812 12.026042 4.244792 12.059896 4.229167 L 12.101562 4.208333 C 12.148438 4.182292 12.184896 4.166667 12.208333 4.164062 C 12.234375 4.158854 12.252604 4.164062 12.268229 4.177083 C 12.286458 4.197917 12.289062 4.226562 12.273438 4.265625 C 12.260417 4.304688 12.229167 4.346354 12.184896 4.390625 M 12.411458 4.153646 L 12.182292 3.927083 L 12.416667 3.692708 L 12.442708 3.71875 L 12.265625 3.893229 L 12.341146 3.966146 L 12.486979 3.820312 L 12.510417 3.84375 L 12.364583 3.989583 L 12.447917 4.070312 L 12.635417 3.885417 L 12.658854 3.908854 Z M 12.729167 3.841146 L 12.5 3.614583 L 12.627604 3.486979 C 12.666667 3.447917 12.703125 3.421875 12.734375 3.408854 C 12.765625 3.398438 12.791667 3.401042 12.809896 3.419271 C 12.841146 3.450521 12.833333 3.5 12.789062 3.567708 L 13.039062 3.533854 L 12.966146 3.606771 L 12.747396 3.630208 L 12.690104 3.684896 L 12.789062 3.78125 L 12.729167 3.841146 M 12.666667 3.661458 L 12.6875 3.643229 C 12.763021 3.567708 12.783854 3.515625 12.75 3.481771 C 12.726562 3.458333 12.684896 3.479167 12.619792 3.541667 L 12.583333 3.578125 Z M 12.666667 3.661458 " transform="matrix(1.5,0,0,1.5,0,0)"/>
<path style="fill-rule:evenodd;fill:rgb(94.117647%,89.019608%,92.54902%);fill-opacity:1;stroke-width:0.219724;stroke-linecap:butt;stroke-linejoin:round;stroke:rgb(90.196079%,0.784314%,70.588237%);stroke-opacity:1;stroke-miterlimit:4;" d="M 12.838542 0.140625 L 15.875 3.190104 L 15.875 3.791667 L 15.21875 4.434896 L 11.872396 1.075521 Z M 12.838542 0.140625 " transform="matrix(1.5,0,0,1.5,0,0)"/>
</g>
</svg>
