<?xml version="1.0" encoding="UTF-8"?>
<svg xmlns="http://www.w3.org/2000/svg" xmlns:xlink="http://www.w3.org/1999/xlink" width="24px" height="24px" viewBox="0 0 24 24" version="1.1">
<defs>
<filter id="alpha" filterUnits="objectBoundingBox" x="0%" y="0%" width="100%" height="100%">
  <feColorMatrix type="matrix" in="SourceGraphic" values="0 0 0 0 1 0 0 0 0 1 0 0 0 0 1 0 0 0 1 0"/>
</filter>
<mask id="mask0">
  <g filter="url(#alpha)">
<rect x="0" y="0" width="24" height="24" style="fill:rgb(0%,0%,0%);fill-opacity:0.78;stroke:none;"/>
  </g>
</mask>
<clipPath id="clip1">
  <rect x="0" y="0" width="24" height="24"/>
</clipPath>
<g id="surface5" clip-path="url(#clip1)">
<path style=" stroke:none;fill-rule:nonzero;fill:rgb(95.294118%,71.764708%,85.09804%);fill-opacity:1;" d="M 1.554688 0.75 L 22.445312 0.75 C 22.476562 0.75 22.5 0.769531 22.5 0.796875 L 22.5 4.453125 C 22.5 4.480469 22.476562 4.5 22.445312 4.5 L 1.554688 4.5 C 1.523438 4.5 1.5 4.480469 1.5 4.453125 L 1.5 0.796875 C 1.5 0.769531 1.523438 0.75 1.554688 0.75 Z M 1.554688 0.75 "/>
</g>
<clipPath id="clip2">
  <path d="M 7 7 L 24 7 L 24 24 L 7 24 Z M 7 7 "/>
</clipPath>
<clipPath id="clip3">
  <path d="M 15.800781 7.503906 C 12.097656 7.480469 8.832031 9.929688 7.816406 13.492188 C 6.738281 17.273438 8.480469 21.289062 11.976562 23.089844 C 14.339844 24.304688 17.054688 24.25 19.328125 23.15625 L 15.984375 17.992188 C 15.550781 18.035156 15.109375 17.953125 14.722656 17.753906 C 13.769531 17.261719 13.292969 16.167969 13.585938 15.136719 C 13.878906 14.105469 14.859375 13.421875 15.929688 13.507812 C 16.300781 13.539062 16.65625 13.660156 16.96875 13.863281 L 15.601562 15.234375 C 15.386719 15.445312 15.324219 15.761719 15.4375 16.039062 C 15.554688 16.316406 15.824219 16.496094 16.121094 16.496094 L 23.253906 16.496094 C 23.449219 16.496094 23.640625 16.417969 23.777344 16.277344 C 23.917969 16.136719 23.996094 15.949219 23.992188 15.75 L 23.992188 8.621094 C 23.996094 8.417969 23.914062 8.226562 23.769531 8.085938 C 23.625 7.949219 23.429688 7.871094 23.230469 7.878906 C 23.042969 7.886719 22.863281 7.96875 22.730469 8.101562 L 21.234375 9.597656 C 19.894531 8.402344 18.199219 7.675781 16.40625 7.527344 C 16.207031 7.511719 16.003906 7.503906 15.800781 7.5 Z M 15.800781 7.503906 "/>
</clipPath>
<mask id="mask1">
  <g filter="url(#alpha)">
<rect x="0" y="0" width="24" height="24" style="fill:rgb(0%,0%,0%);fill-opacity:0.95;stroke:none;"/>
  </g>
</mask>
<clipPath id="clip4">
  <rect x="0" y="0" width="24" height="24"/>
</clipPath>
<g id="surface8" clip-path="url(#clip4)">
<path style=" stroke:none;fill-rule:nonzero;fill:rgb(90.196079%,0.784314%,70.588237%);fill-opacity:1;" d="M 15.800781 7.5 C 12.097656 7.476562 8.832031 9.925781 7.816406 13.492188 C 6.738281 17.273438 8.480469 21.289062 11.976562 23.085938 C 15.472656 24.886719 19.753906 23.964844 22.203125 20.886719 L 17.507812 17.15625 C 16.839844 17.992188 15.671875 18.242188 14.722656 17.75 C 13.769531 17.261719 13.292969 16.167969 13.585938 15.132812 C 13.878906 14.101562 14.859375 13.421875 15.929688 13.503906 C 16.300781 13.539062 16.65625 13.660156 16.96875 13.863281 L 15.601562 15.230469 C 15.386719 15.441406 15.324219 15.761719 15.4375 16.039062 C 15.554688 16.3125 15.824219 16.496094 16.121094 16.492188 L 23.253906 16.492188 C 23.449219 16.496094 23.640625 16.417969 23.777344 16.277344 C 23.917969 16.136719 23.996094 15.949219 23.992188 15.75 L 23.992188 8.617188 C 23.996094 8.417969 23.914062 8.226562 23.769531 8.085938 C 23.625 7.945312 23.429688 7.871094 23.230469 7.878906 C 23.042969 7.886719 22.863281 7.964844 22.730469 8.101562 L 21.234375 9.597656 C 19.894531 8.398438 18.199219 7.671875 16.40625 7.527344 C 16.207031 7.511719 16.003906 7.5 15.800781 7.5 Z M 15.800781 7.5 "/>
</g>
<mask id="mask2">
  <g filter="url(#alpha)">
<rect x="0" y="0" width="24" height="24" style="fill:rgb(0%,0%,0%);fill-opacity:0.95;stroke:none;"/>
  </g>
</mask>
<linearGradient id="linear0" gradientUnits="userSpaceOnUse" x1="17" y1="8" x2="17" y2="17" gradientTransform="matrix(0.118434,0,0,0.117623,41.042437,11.048563)">
<stop offset="0" style="stop-color:rgb(0%,0%,54.901963%);stop-opacity:1;"/>
<stop offset="0.3553" style="stop-color:rgb(10.980392%,10.980392%,67.450982%);stop-opacity:1;"/>
<stop offset="0.6194" style="stop-color:rgb(3.137255%,3.137255%,58.431375%);stop-opacity:1;"/>
<stop offset="0.7574" style="stop-color:rgb(0%,0%,54.901963%);stop-opacity:1;"/>
<stop offset="1" style="stop-color:rgb(0%,0%,30.19608%);stop-opacity:1;"/>
</linearGradient>
<clipPath id="clip5">
  <rect x="0" y="0" width="24" height="24"/>
</clipPath>
<g id="surface11" clip-path="url(#clip5)">
<path style=" stroke:none;fill-rule:nonzero;fill:url(#linear0);" d="M 15.792969 9 C 12.761719 8.980469 10.089844 10.984375 9.257812 13.902344 C 8.375 16.996094 9.800781 20.28125 12.660156 21.753906 C 15.523438 23.222656 19.023438 22.472656 21.027344 19.953125 L 18.683594 18.085938 C 17.570312 19.480469 15.625 19.898438 14.035156 19.082031 C 12.449219 18.265625 11.65625 16.441406 12.144531 14.722656 C 12.632812 13.003906 14.265625 11.871094 16.046875 12.011719 C 17.339844 12.117188 18.449219 12.875 19.039062 13.960938 L 18 15 L 22.5 15 L 22.5 10.5 L 21.210938 11.789062 C 20.082031 10.234375 18.308594 9.183594 16.285156 9.019531 C 16.121094 9.007812 15.957031 9 15.792969 9 Z M 15.792969 9 "/>
</g>
<mask id="mask3">
  <g filter="url(#alpha)">
<rect x="0" y="0" width="24" height="24" style="fill:rgb(0%,0%,0%);fill-opacity:0.95;stroke:none;"/>
  </g>
</mask>
<radialGradient id="radial0" gradientUnits="userSpaceOnUse" cx="10.000115" cy="14.246079" fx="10.000115" fy="14.246079" r="4.500402" gradientTransform="matrix(1.5,-0.000000075,0.00000012,2.749754,-0.000173357,-17.798239)">
<stop offset="0" style="stop-color:rgb(34.117648%,34.117648%,100%);stop-opacity:1;"/>
<stop offset="0.3553" style="stop-color:rgb(13.333334%,24.705882%,81.960785%);stop-opacity:1;"/>
<stop offset="0.6194" style="stop-color:rgb(5.882353%,10.196079%,94.901961%);stop-opacity:1;"/>
<stop offset="0.7574" style="stop-color:rgb(0%,0%,81.176472%);stop-opacity:1;"/>
<stop offset="1" style="stop-color:rgb(0%,0%,55.686277%);stop-opacity:1;"/>
</radialGradient>
<clipPath id="clip6">
  <rect x="0" y="0" width="24" height="24"/>
</clipPath>
<g id="surface14" clip-path="url(#clip6)">
<path style=" stroke:none;fill-rule:nonzero;fill:url(#radial0);" d="M 15.792969 9 C 12.761719 8.980469 10.089844 10.984375 9.257812 13.902344 C 8.375 16.996094 9.800781 20.28125 12.660156 21.753906 C 15.523438 23.222656 19.023438 22.472656 21.027344 19.953125 L 18.683594 18.085938 C 17.570312 19.480469 15.625 19.898438 14.035156 19.082031 C 12.449219 18.265625 11.65625 16.441406 12.144531 14.722656 C 12.632812 13.003906 14.265625 11.871094 16.046875 12.011719 C 17.339844 12.117188 18.449219 12.875 19.039062 13.960938 L 18 15 L 22.5 15 L 22.5 10.5 L 21.210938 11.789062 C 20.082031 10.234375 18.308594 9.183594 16.285156 9.019531 C 16.121094 9.007812 15.957031 9 15.792969 9 Z M 15.792969 9 "/>
</g>
<mask id="mask4">
  <g filter="url(#alpha)">
<rect x="0" y="0" width="24" height="24" style="fill:rgb(0%,0%,0%);fill-opacity:0.42;stroke:none;"/>
  </g>
</mask>
<radialGradient id="radial1" gradientUnits="userSpaceOnUse" cx="6" cy="9.999972" fx="6" fy="9.999972" r="4.500402" gradientTransform="matrix(0.666607,0,0,1.499917,5.000357,0.000852873)">
<stop offset="0" style="stop-color:rgb(0%,0%,0%);stop-opacity:1;"/>
<stop offset="1" style="stop-color:rgb(0%,0%,0%);stop-opacity:0;"/>
</radialGradient>
<clipPath id="clip7">
  <rect x="0" y="0" width="24" height="24"/>
</clipPath>
<g id="surface17" clip-path="url(#clip7)">
<path style=" stroke:none;fill-rule:nonzero;fill:url(#radial1);" d="M 15.792969 9 C 12.761719 8.980469 10.089844 10.984375 9.257812 13.902344 C 8.375 16.996094 9.800781 20.28125 12.660156 21.753906 C 15.523438 23.222656 19.023438 22.472656 21.027344 19.953125 L 18.683594 18.085938 C 17.570312 19.480469 15.625 19.898438 14.035156 19.082031 C 12.449219 18.265625 11.65625 16.441406 12.144531 14.722656 C 12.632812 13.003906 14.265625 11.871094 16.046875 12.011719 C 17.339844 12.117188 18.449219 12.875 19.039062 13.960938 L 18 15 L 22.5 15 L 22.5 10.5 L 21.210938 11.789062 C 20.082031 10.234375 18.308594 9.183594 16.285156 9.019531 C 16.121094 9.007812 15.957031 9 15.792969 9 Z M 15.792969 9 "/>
</g>
<mask id="mask5">
  <g filter="url(#alpha)">
<rect x="0" y="0" width="24" height="24" style="fill:rgb(0%,0%,0%);fill-opacity:0.798;stroke:none;"/>
  </g>
</mask>
<radialGradient id="radial2" gradientUnits="userSpaceOnUse" cx="10.499598" cy="10.500055" fx="10.499598" fy="10.500055" r="4.500402" gradientTransform="matrix(1.5,0,0,1.499917,0.000000643003,0.000852873)">
<stop offset="0" style="stop-color:rgb(0%,0%,0%);stop-opacity:1;"/>
<stop offset="1" style="stop-color:rgb(0%,0%,0%);stop-opacity:0;"/>
</radialGradient>
<clipPath id="clip8">
  <rect x="0" y="0" width="24" height="24"/>
</clipPath>
<g id="surface20" clip-path="url(#clip8)">
<path style=" stroke:none;fill-rule:nonzero;fill:url(#radial2);" d="M 15.792969 9 C 12.761719 8.980469 10.089844 10.984375 9.257812 13.902344 C 8.375 16.996094 9.800781 20.28125 12.660156 21.753906 C 15.523438 23.222656 19.023438 22.472656 21.027344 19.953125 L 18.683594 18.085938 C 17.570312 19.480469 15.625 19.898438 14.035156 19.082031 C 12.449219 18.265625 11.65625 16.441406 12.144531 14.722656 C 12.632812 13.003906 14.265625 11.871094 16.046875 12.011719 C 17.339844 12.117188 18.449219 12.875 19.039062 13.960938 L 18 15 L 22.5 15 L 22.5 10.5 L 21.210938 11.789062 C 20.082031 10.234375 18.308594 9.183594 16.285156 9.019531 C 16.121094 9.007812 15.957031 9 15.792969 9 Z M 15.792969 9 "/>
</g>
<mask id="mask6">
  <g filter="url(#alpha)">
<rect x="0" y="0" width="24" height="24" style="fill:rgb(0%,0%,0%);fill-opacity:0.95;stroke:none;"/>
  </g>
</mask>
<clipPath id="clip9">
  <rect x="0" y="0" width="24" height="24"/>
</clipPath>
<g id="surface23" clip-path="url(#clip9)">
<path style=" stroke:none;fill-rule:nonzero;fill:rgb(95.294118%,71.764708%,85.09804%);fill-opacity:1;" d="M 15.792969 9 C 12.761719 8.980469 10.089844 10.984375 9.257812 13.902344 C 8.375 16.996094 9.800781 20.28125 12.660156 21.753906 C 15.523438 23.222656 19.023438 22.472656 21.027344 19.953125 L 18.683594 18.085938 C 17.570312 19.480469 15.625 19.898438 14.035156 19.082031 C 12.449219 18.265625 11.65625 16.441406 12.144531 14.722656 C 12.632812 13.003906 14.265625 11.871094 16.046875 12.011719 C 17.339844 12.117188 18.449219 12.875 19.039062 13.960938 L 18 15 L 22.5 15 L 22.5 10.5 L 21.210938 11.789062 C 20.082031 10.234375 18.308594 9.183594 16.285156 9.019531 C 16.121094 9.007812 15.957031 9 15.792969 9 Z M 15.792969 9 "/>
</g>
</defs>
<g id="surface1">
<path style=" stroke:none;fill-rule:nonzero;fill:rgb(61.56863%,22.745098%,60.784316%);fill-opacity:1;" d="M 0 0 L 0 19.5 L 9 19.5 L 9 5.25 L 24 5.25 L 24 0 Z M 1.5 0.882812 L 7.5 0.882812 L 7.5 4.5 L 1.5 4.5 Z M 9 0.882812 L 15 0.882812 L 15 4.5 L 9 4.5 Z M 16.5 0.882812 L 22.5 0.882812 L 22.5 4.5 L 16.5 4.5 Z M 1.5 5.25 L 7.5 5.25 L 7.5 13.5 L 1.5 13.5 Z M 1.5 14.25 L 7.5 14.25 L 7.5 18.769531 L 1.5 18.769531 Z M 1.5 14.25 "/>
<use xlink:href="#surface5" mask="url(#mask0)"/>
<path style=" stroke:none;fill-rule:nonzero;fill:rgb(61.56863%,22.745098%,60.784316%);fill-opacity:1;" d="M 0.0390625 0 C 0.015625 0 0 0.0195312 0 0.046875 L 0 5.25 L 9 5.25 L 9 5.203125 C 9 5.230469 9.015625 5.25 9.039062 5.25 L 23.960938 5.25 C 23.984375 5.25 24 5.230469 24 5.203125 L 24 0.046875 C 24 0.0195312 23.984375 0 23.960938 0 L 9.039062 0 C 9.015625 0 9 0.0195312 9 0.046875 C 9 0.0195312 8.984375 0 8.960938 0 Z M 1.5 0.882812 L 7.5 0.882812 L 7.5 4.5 L 1.5 4.5 Z M 9 0.882812 L 15 0.882812 L 15 4.5 L 9 4.5 Z M 16.5 0.882812 L 22.5 0.882812 L 22.5 4.5 L 16.5 4.5 Z M 16.5 0.882812 "/>
<path style=" stroke:none;fill-rule:nonzero;fill:rgb(61.56863%,22.745098%,60.784316%);fill-opacity:1;" d="M 1.5 9 L 7.5 9 L 7.5 9.75 L 1.5 9.75 Z M 1.5 9 "/>
<g clip-path="url(#clip2)" clip-rule="nonzero">
<g clip-path="url(#clip3)" clip-rule="nonzero">
<use xlink:href="#surface8" mask="url(#mask1)"/>
<use xlink:href="#surface11" mask="url(#mask2)"/>
<use xlink:href="#surface14" mask="url(#mask3)"/>
<use xlink:href="#surface17" mask="url(#mask4)"/>
<use xlink:href="#surface20" mask="url(#mask5)"/>
<use xlink:href="#surface23" mask="url(#mask6)"/>
</g>
</g>
</g>
</svg>
