<?xml version="1.0" encoding="UTF-8"?>
<svg xmlns="http://www.w3.org/2000/svg" xmlns:xlink="http://www.w3.org/1999/xlink" width="24px" height="24px" viewBox="0 0 24 24" version="1.1">
<g id="surface1">
<path style=" stroke:none;fill-rule:nonzero;fill:rgb(33.333334%,34.117648%,32.549021%);fill-opacity:1;" d="M 0 0 L 0 12 L 15 12 L 15 7.5 L 18 7.5 L 18 9.148438 C 17.851562 9 17.699219 9 17.550781 9 L 16.5 9 L 16.5 9.898438 C 16.5 10.175781 16.589844 10.398438 16.78125 10.574219 L 19.5 13.5 C 20.574219 12.226562 21.144531 11.851562 22.21875 10.5 C 22.351562 10.351562 22.5 10.199219 22.5 9.898438 L 22.5 9 L 21.5 9 C 21.300781 9 21.148438 9 21 9.148438 L 21 6 C 21 5.171875 20.328125 4.5 19.5 4.5 L 15 4.5 L 15 0 Z M 19.5 13.5 L 7.5 13.5 L 7.5 24 L 22.5 24 L 22.5 13.5 Z M 3 3 L 12 3 L 12 9 L 3 9 Z M 10.5 16.5 L 19.5 16.5 L 19.5 21 L 10.5 21 Z M 10.5 16.5 "/>
</g>
</svg>
