<?xml version="1.0" encoding="UTF-8"?>
<svg xmlns="http://www.w3.org/2000/svg" xmlns:xlink="http://www.w3.org/1999/xlink" width="24px" height="24px" viewBox="0 0 24 24" version="1.1">
<g id="surface1">
<path style=" stroke:none;fill-rule:nonzero;fill:rgb(95.294118%,71.764708%,85.09804%);fill-opacity:1;" d="M 1.5 3 L 22.5 3 L 22.5 21 L 1.5 21 Z M 1.5 3 "/>
<path style=" stroke:none;fill-rule:nonzero;fill:rgb(94.117647%,89.019608%,92.54902%);fill-opacity:1;" d="M 1.5 7.5 L 22.5 7.5 L 22.5 21 L 1.5 21 Z M 1.5 7.5 "/>
<path style=" stroke:none;fill-rule:nonzero;fill:rgb(79.215688%,79.215688%,80.000001%);fill-opacity:1;" d="M 3 12 L 10.5 12 L 10.5 13.5 L 3 13.5 Z M 3 12 "/>
<path style=" stroke:none;fill-rule:nonzero;fill:rgb(79.215688%,79.215688%,80.000001%);fill-opacity:1;" d="M 3 9 L 10.5 9 L 10.5 10.5 L 3 10.5 Z M 3 9 "/>
<path style=" stroke:none;fill-rule:nonzero;fill:rgb(95.294118%,71.764708%,85.09804%);fill-opacity:1;" d="M 13.5 9 L 21 9 L 21 10.5 L 13.5 10.5 Z M 13.5 9 "/>
<path style=" stroke:none;fill-rule:nonzero;fill:rgb(95.294118%,71.764708%,85.09804%);fill-opacity:1;" d="M 13.5 12 L 21 12 L 21 13.5 L 13.5 13.5 Z M 13.5 12 "/>
<path style=" stroke:none;fill-rule:nonzero;fill:rgb(79.215688%,79.215688%,80.000001%);fill-opacity:1;" d="M 3 15 L 10.5 15 L 10.5 16.5 L 3 16.5 Z M 3 15 "/>
<path style=" stroke:none;fill-rule:nonzero;fill:rgb(95.294118%,71.764708%,85.09804%);fill-opacity:1;" d="M 13.5 15 L 21 15 L 21 16.5 L 13.5 16.5 Z M 13.5 15 "/>
<path style=" stroke:none;fill-rule:nonzero;fill:rgb(95.294118%,71.764708%,85.09804%);fill-opacity:1;" d="M 3 18 L 10.5 18 L 10.5 19.5 L 3 19.5 Z M 3 18 "/>
<path style=" stroke:none;fill-rule:nonzero;fill:rgb(95.294118%,71.764708%,85.09804%);fill-opacity:1;" d="M 13.5 18 L 21 18 L 21 19.5 L 13.5 19.5 Z M 13.5 18 "/>
<path style=" stroke:none;fill-rule:nonzero;fill:rgb(90.196079%,0.784314%,70.588237%);fill-opacity:1;" d="M 1.5 9 L 16.5 9 L 16.5 18.179688 L 1.5 18.179688 Z M 1.5 9 "/>
<path style=" stroke:none;fill-rule:nonzero;fill:rgb(94.117647%,89.019608%,92.54902%);fill-opacity:1;" d="M 6.625 15.335938 L 4.433594 15.335938 L 4.039062 16.515625 L 2.8125 16.515625 L 4.890625 10.664062 L 6.222656 10.664062 L 8.246094 16.515625 L 7.011719 16.515625 Z M 6.296875 14.332031 L 5.535156 12.042969 L 4.769531 14.332031 Z M 6.296875 14.332031 "/>
<path style=" stroke:none;fill-rule:nonzero;fill:rgb(94.117647%,89.019608%,92.54902%);fill-opacity:1;" d="M 15.1875 14.828125 C 15.1875 15.023438 15.15625 15.210938 15.089844 15.390625 C 15.027344 15.574219 14.921875 15.753906 14.777344 15.929688 C 14.640625 16.105469 14.429688 16.246094 14.144531 16.355469 C 13.859375 16.460938 13.523438 16.515625 13.132812 16.515625 L 10.5 16.515625 L 10.5 10.664062 L 13.109375 10.664062 C 13.472656 10.664062 13.785156 10.714844 14.046875 10.824219 C 14.316406 10.929688 14.511719 11.070312 14.640625 11.242188 C 14.777344 11.40625 14.871094 11.570312 14.929688 11.730469 C 14.988281 11.890625 15.019531 12.050781 15.019531 12.203125 C 15.019531 12.457031 14.957031 12.671875 14.835938 12.855469 C 14.710938 13.035156 14.503906 13.222656 14.214844 13.410156 C 14.863281 13.789062 15.1875 14.261719 15.1875 14.828125 Z M 11.703125 11.667969 L 11.703125 12.992188 L 13.011719 12.992188 C 13.578125 12.992188 13.863281 12.769531 13.863281 12.332031 C 13.863281 11.886719 13.578125 11.667969 13.011719 11.667969 Z M 11.703125 13.996094 L 11.703125 15.511719 L 13.140625 15.511719 C 13.734375 15.511719 14.03125 15.261719 14.03125 14.757812 C 14.03125 14.25 13.734375 13.996094 13.140625 13.996094 Z M 11.703125 13.996094 "/>
<path style=" stroke:none;fill-rule:nonzero;fill:rgb(61.56863%,22.745098%,60.784316%);fill-opacity:1;" d="M 15 7.5 L 22.5 7.5 L 22.5 9 L 15 9 Z M 15 7.5 "/>
<path style=" stroke:none;fill-rule:nonzero;fill:rgb(61.56863%,22.745098%,60.784316%);fill-opacity:1;" d="M 15 21 L 22.5 21 L 22.5 22.5 L 15 22.5 Z M 15 21 "/>
<path style=" stroke:none;fill-rule:nonzero;fill:rgb(61.56863%,22.745098%,60.784316%);fill-opacity:1;" d="M 19.5 9 L 19.5 21 L 18 21 L 18 9 Z M 19.5 9 "/>
</g>
</svg>
