<?xml version="1.0" encoding="UTF-8"?>
<svg xmlns="http://www.w3.org/2000/svg" xmlns:xlink="http://www.w3.org/1999/xlink" width="24px" height="24px" viewBox="0 0 24 24" version="1.1">
<g id="surface1">
<path style=" stroke:none;fill-rule:nonzero;fill:rgb(33.333334%,34.117648%,32.549021%);fill-opacity:1;" d="M 6 1.5 C 5.535156 1.5 5.171875 1.636719 4.875 1.921875 L 1.5 4.746094 L 1.5 7.167969 C 2.585938 8.097656 3.351562 8.921875 4.875 10.078125 C 5.171875 10.363281 5.535156 10.5 6 10.5 L 7.5 10.5 L 7.5 9 C 7.5 8.664062 7.304688 8.207031 7.03125 7.921875 L 6.472656 7.5 L 17.527344 7.5 L 16.96875 7.921875 C 16.695312 8.207031 16.5 8.664062 16.5 9 L 16.5 10.5 L 18 10.5 C 18.464844 10.5 18.828125 10.363281 19.125 10.078125 C 20.648438 8.921875 21.414062 8.097656 22.5 7.167969 L 22.5 4.746094 L 19.125 1.921875 C 18.828125 1.636719 18.464844 1.5 18 1.5 L 16.5 1.5 L 16.5 3 C 16.5 3.386719 16.695312 3.792969 16.96875 4.078125 L 17.527344 4.5 L 6.472656 4.5 L 7.03125 4.078125 C 7.304688 3.792969 7.5 3.386719 7.5 3 L 7.5 1.5 Z M 1.5 12 L 1.5 22.5 L 4.5 22.5 L 4.5 12 Z M 19.5 12 L 19.5 22.5 L 22.5 22.5 L 22.5 12 Z M 19.5 12 "/>
</g>
</svg>
