<?xml version="1.0" encoding="UTF-8"?>
<svg xmlns="http://www.w3.org/2000/svg" xmlns:xlink="http://www.w3.org/1999/xlink" width="24px" height="24px" viewBox="0 0 24 24" version="1.1">
<g id="surface1">
<path style=" stroke:none;fill-rule:nonzero;fill:rgb(95.294118%,71.764708%,85.09804%);fill-opacity:1;" d="M 1.5 3 L 22.5 3 L 22.5 21 L 1.5 21 Z M 1.5 3 "/>
<path style=" stroke:none;fill-rule:nonzero;fill:rgb(94.117647%,89.019608%,92.54902%);fill-opacity:1;" d="M 1.5 7.5 L 22.5 7.5 L 22.5 21 L 1.5 21 Z M 1.5 7.5 "/>
<path style=" stroke:none;fill-rule:nonzero;fill:rgb(95.294118%,71.764708%,85.09804%);fill-opacity:1;" d="M 3 12 L 10.5 12 L 10.5 13.5 L 3 13.5 Z M 3 12 "/>
<path style=" stroke:none;fill-rule:nonzero;fill:rgb(95.294118%,71.764708%,85.09804%);fill-opacity:1;" d="M 3 9 L 10.5 9 L 10.5 10.5 L 3 10.5 Z M 3 9 "/>
<path style=" stroke:none;fill-rule:nonzero;fill:rgb(95.294118%,71.764708%,85.09804%);fill-opacity:1;" d="M 13.5 9 L 21 9 L 21 10.5 L 13.5 10.5 Z M 13.5 9 "/>
<path style=" stroke:none;fill-rule:nonzero;fill:rgb(95.294118%,71.764708%,85.09804%);fill-opacity:1;" d="M 13.5 12 L 21 12 L 21 13.5 L 13.5 13.5 Z M 13.5 12 "/>
<path style=" stroke:none;fill-rule:nonzero;fill:rgb(95.294118%,71.764708%,85.09804%);fill-opacity:1;" d="M 3 15 L 10.5 15 L 10.5 16.5 L 3 16.5 Z M 3 15 "/>
<path style=" stroke:none;fill-rule:nonzero;fill:rgb(95.294118%,71.764708%,85.09804%);fill-opacity:1;" d="M 13.5 15 L 21 15 L 21 16.5 L 13.5 16.5 Z M 13.5 15 "/>
<path style=" stroke:none;fill-rule:nonzero;fill:rgb(95.294118%,71.764708%,85.09804%);fill-opacity:1;" d="M 3 18 L 10.5 18 L 10.5 19.5 L 3 19.5 Z M 3 18 "/>
<path style=" stroke:none;fill-rule:nonzero;fill:rgb(95.294118%,71.764708%,85.09804%);fill-opacity:1;" d="M 13.5 18 L 21 18 L 21 19.5 L 13.5 19.5 Z M 13.5 18 "/>
<path style="fill-rule:nonzero;fill:rgb(94.117647%,89.019608%,92.54902%);fill-opacity:1;stroke-width:1.93806;stroke-linecap:round;stroke-linejoin:round;stroke:rgb(90.196079%,0.784314%,70.588237%);stroke-opacity:1;stroke-miterlimit:4;" d="M 119.333333 0.958333 L 103.979167 16.3125 L 88.625 0.958333 L 80.958333 8.625 L 96.3125 23.979167 L 80.958333 39.333333 L 88.625 46.979167 L 103.979167 31.645833 L 119.333333 46.979167 L 127 39.333333 L 111.645833 23.979167 L 127 8.625 Z M 119.333333 0.958333 " transform="matrix(0.1875,0,0,0.1875,0,0)"/>
</g>
</svg>
