<?xml version="1.0" encoding="UTF-8"?>
<svg xmlns="http://www.w3.org/2000/svg" xmlns:xlink="http://www.w3.org/1999/xlink" width="24px" height="24px" viewBox="0 0 24 24" version="1.1">
<g id="surface1">
<path style=" stroke:none;fill-rule:nonzero;fill:rgb(94.117647%,89.019608%,92.54902%);fill-opacity:1;" d="M 1.5 1.5 L 7.453125 1.5 L 7.453125 21.089844 L 1.5 21.089844 Z M 1.5 1.5 "/>
<path style=" stroke:none;fill-rule:nonzero;fill:rgb(61.56863%,22.745098%,60.784316%);fill-opacity:1;" d="M 0 1.5 L 0 21 L 9.007812 21 L 9.007812 20.269531 L 9 20.269531 L 9 15.75 L 9.007812 15.75 L 9.007812 15 L 9 15 L 9 11.289062 L 9.007812 11.289062 L 9.007812 10.5 L 9 10.5 L 9 6.75 L 9.007812 6.75 L 9.007812 6.730469 L 24 6.730469 L 24 1.5 Z M 1.5 2.382812 L 7.5 2.382812 L 7.5 6 L 1.5 6 Z M 9 2.382812 L 15 2.382812 L 15 6 L 9 6 Z M 16.5 2.382812 L 22.5 2.382812 L 22.5 6 L 16.5 6 Z M 1.5 6.75 L 7.5 6.75 L 7.5 10.5 L 1.5 10.5 Z M 1.5 11.289062 L 7.5 11.289062 L 7.5 15 L 1.5 15 Z M 1.5 15.75 L 7.5 15.75 L 7.5 20.269531 L 1.5 20.269531 Z M 1.5 15.75 "/>
<path style=" stroke:none;fill-rule:nonzero;fill:rgb(95.294118%,71.764708%,85.09804%);fill-opacity:1;" d="M 1.5 2.351562 L 22.5 2.351562 L 22.5 6 L 1.5 6 Z M 1.5 2.351562 "/>
<path style=" stroke:none;fill-rule:nonzero;fill:rgb(61.56863%,22.745098%,60.784316%);fill-opacity:0.831373;" d="M 0 1.5 L 0 6.75 L 9.007812 6.75 L 9.007812 6.730469 L 24 6.730469 L 24 1.5 Z M 1.5 2.382812 L 7.5 2.382812 L 7.5 6 L 1.5 6 Z M 9 2.382812 L 15 2.382812 L 15 6 L 9 6 Z M 16.5 2.382812 L 22.5 2.382812 L 22.5 6 L 16.5 6 Z M 16.5 2.382812 "/>
<path style="fill-rule:nonzero;fill:rgb(90.196079%,0.784314%,70.588237%);fill-opacity:1;stroke-width:10;stroke-linecap:round;stroke-linejoin:round;stroke:rgb(85.09804%,4.313726%,69.01961%);stroke-opacity:1;stroke-miterlimit:4;" d="M 102.99189 39.572686 L 83.00334 63.582032 L 99.009571 59.753619 C 103.318941 96.306309 83.869062 91.804557 66.997109 91.76608 L 70.825522 75.75985 L 46.816176 95.7484 L 70.825522 115.756189 L 66.997109 99.749958 C 96.277738 103.328274 111.033482 91.496745 106.993448 59.753619 L 122.999679 63.582032 Z M 102.99189 39.572686 " transform="matrix(0.203046,0,0,0.203046,-2.005834,-2.410073)"/>
<path style=" stroke:none;fill-rule:evenodd;fill:rgb(95.294118%,71.764708%,85.09804%);fill-opacity:1;" d="M 18.90625 5.625 L 14.847656 10.5 L 18.097656 9.722656 C 18.972656 17.144531 15.023438 16.230469 11.597656 16.222656 L 12.375 12.972656 L 7.5 17.03125 L 12.375 21.09375 L 11.597656 17.84375 C 17.542969 18.570312 20.539062 16.167969 19.71875 9.722656 L 22.96875 10.5 Z M 18.90625 5.625 "/>
</g>
</svg>
