<?xml version="1.0" encoding="UTF-8"?>
<svg xmlns="http://www.w3.org/2000/svg" xmlns:xlink="http://www.w3.org/1999/xlink" width="24px" height="24px" viewBox="0 0 24 24" version="1.1">
<g id="surface1">
<path style=" stroke:none;fill-rule:nonzero;fill:rgb(94.117647%,89.019608%,92.54902%);fill-opacity:1;" d="M 1.5 1.5 L 22.5 1.5 L 22.5 21.089844 L 1.5 21.089844 Z M 1.5 1.5 "/>
<path style=" stroke:none;fill-rule:nonzero;fill:rgb(90.196079%,0.784314%,70.588237%);fill-opacity:1;" d="M 0 1.5 L 0 21 L 24 21 L 24 1.5 Z M 1.5 2.382812 L 7.5 2.382812 L 7.5 6 L 1.5 6 Z M 9 2.382812 L 15 2.382812 L 15 6 L 9 6 Z M 16.5 2.382812 L 22.5 2.382812 L 22.5 6 L 16.5 6 Z M 1.5 6.75 L 7.5 6.75 L 7.5 10.5 L 1.5 10.5 Z M 9 6.75 L 15 6.75 L 15 10.5 L 9 10.5 Z M 16.5 6.75 L 22.5 6.75 L 22.5 10.5 L 16.5 10.5 Z M 1.5 11.25 L 7.5 11.25 L 7.5 15 L 1.5 15 Z M 9 11.25 L 15 11.25 L 15 15 L 9 15 Z M 16.5 11.25 L 22.5 11.25 L 22.5 15 L 16.5 15 Z M 1.5 15.75 L 7.5 15.75 L 7.5 20.269531 L 1.5 20.269531 Z M 9 15.75 L 15 15.75 L 15 20.269531 L 9 20.269531 Z M 16.5 15.75 L 22.5 15.75 L 22.5 20.269531 L 16.5 20.269531 Z M 16.5 15.75 "/>
<path style=" stroke:none;fill-rule:nonzero;fill:rgb(95.294118%,71.764708%,85.09804%);fill-opacity:1;" d="M 22.5 6 L 1.5 6 L 1.5 2.382812 L 22.5 2.382812 Z M 22.5 6 "/>
<path style=" stroke:none;fill-rule:nonzero;fill:rgb(61.56863%,22.745098%,60.784316%);fill-opacity:1;" d="M 0.0390625 1.5 C 0.015625 1.5 0 1.519531 0 1.546875 L 0 6.75 L 9 6.75 L 9 6.703125 C 9 6.730469 9.015625 6.75 9.039062 6.75 L 23.960938 6.75 C 23.984375 6.75 24 6.730469 24 6.703125 L 24 1.546875 C 24 1.519531 23.984375 1.5 23.960938 1.5 L 9.039062 1.5 C 9.015625 1.5 9 1.519531 9 1.546875 C 9 1.519531 8.984375 1.5 8.960938 1.5 Z M 1.5 2.382812 L 7.5 2.382812 L 7.5 6 L 1.5 6 Z M 9 2.382812 L 15 2.382812 L 15 6 L 9 6 Z M 16.5 2.382812 L 22.5 2.382812 L 22.5 6 L 16.5 6 Z M 16.5 2.382812 "/>
</g>
</svg>
