<?xml version="1.0" encoding="UTF-8"?>
<svg xmlns="http://www.w3.org/2000/svg" xmlns:xlink="http://www.w3.org/1999/xlink" width="24px" height="24px" viewBox="0 0 24 24" version="1.1">
<g id="surface1">
<path style="fill-rule:nonzero;fill:rgb(94.117647%,89.019608%,92.54902%);fill-opacity:1;stroke-width:1.982781;stroke-linecap:round;stroke-linejoin:round;stroke:rgb(61.56863%,22.745098%,60.784316%);stroke-opacity:1;stroke-miterlimit:4;" d="M 8 15.989583 L 119.020833 15.989583 L 119.020833 111.15625 L 8 111.15625 Z M 8 15.989583 " transform="matrix(0.1875,0,0,0.1875,0,-0.0175781)"/>
<path style=" stroke:none;fill-rule:nonzero;fill:rgb(61.56863%,22.745098%,60.784316%);fill-opacity:0.16763;" d="M 2.90625 5.980469 L 20.90625 5.980469 L 20.90625 10.480469 L 2.90625 10.484375 Z M 2.90625 5.980469 "/>
<path style=" stroke:none;fill-rule:nonzero;fill:rgb(100%,100%,100%);fill-opacity:1;" d="M 4.40625 7.484375 L 19.40625 7.484375 L 19.40625 10.484375 L 4.40625 10.484375 Z M 4.40625 7.484375 "/>
<path style=" stroke:none;fill-rule:nonzero;fill:rgb(90.196079%,0.784314%,70.588237%);fill-opacity:0.375;" d="M 4.40625 19.484375 L 19.40625 19.484375 L 19.40625 13.480469 L 4.40625 13.480469 Z M 4.40625 19.484375 "/>
<path style=" stroke:none;fill-rule:nonzero;fill:rgb(95.294118%,71.764708%,85.09804%);fill-opacity:1;" d="M 4.40625 13.484375 L 19.40625 13.484375 L 19.40625 17.984375 L 4.40625 17.984375 Z M 4.40625 13.484375 "/>
<path style=" stroke:none;fill-rule:nonzero;fill:rgb(61.56863%,22.745098%,60.784316%);fill-opacity:1;" d="M 8.304688 17.117188 C 7.988281 16.765625 7.832031 16.316406 7.832031 15.761719 C 7.832031 15.210938 7.988281 14.757812 8.304688 14.40625 C 8.625 14.054688 9.039062 13.878906 9.554688 13.878906 C 10.074219 13.878906 10.496094 14.054688 10.8125 14.40625 C 11.132812 14.753906 11.289062 15.214844 11.289062 15.789062 C 11.289062 16.320312 11.132812 16.761719 10.816406 17.117188 C 10.503906 17.46875 10.085938 17.644531 9.5625 17.644531 C 9.039062 17.644531 8.621094 17.46875 8.304688 17.117188 Z M 9.5625 14.511719 C 9.261719 14.511719 9.023438 14.625 8.84375 14.855469 C 8.660156 15.082031 8.570312 15.386719 8.570312 15.761719 C 8.570312 16.140625 8.660156 16.445312 8.84375 16.675781 C 9.023438 16.902344 9.261719 17.015625 9.5625 17.015625 C 9.855469 17.015625 10.09375 16.902344 10.277344 16.675781 C 10.460938 16.449219 10.550781 16.148438 10.550781 15.78125 C 10.550781 15.394531 10.460938 15.085938 10.28125 14.855469 C 10.101562 14.625 9.863281 14.511719 9.5625 14.511719 Z M 9.5625 14.511719 "/>
<path style=" stroke:none;fill-rule:nonzero;fill:rgb(61.56863%,22.745098%,60.784316%);fill-opacity:1;" d="M 13.554688 16.328125 L 13.554688 17.53125 L 12.816406 17.53125 L 12.816406 13.9375 L 13.554688 13.9375 L 13.554688 15.515625 L 14.960938 13.9375 L 15.832031 13.9375 L 14.398438 15.488281 L 15.984375 17.53125 L 15.101562 17.53125 L 13.925781 15.945312 Z M 13.554688 16.328125 "/>
<path style="fill-rule:nonzero;fill:rgb(95.294118%,71.764708%,85.09804%);fill-opacity:1;stroke-width:1.93801;stroke-linecap:round;stroke-linejoin:round;stroke:rgb(61.56863%,22.745098%,60.784316%);stroke-opacity:1;stroke-miterlimit:4;" d="M 119.354167 1.072917 L 104 16.427083 L 88.645833 1.072917 L 80.979167 8.739583 L 96.333333 24.09375 L 80.979167 39.447917 L 88.645833 47.114583 L 104 31.760417 L 119.354167 47.114583 L 127.020833 39.447917 L 111.666667 24.09375 L 127.020833 8.739583 Z M 119.354167 1.072917 " transform="matrix(0.1875,0,0,0.1875,0,-0.0175781)"/>
</g>
</svg>
