<?xml version="1.0" encoding="UTF-8"?>
<svg xmlns="http://www.w3.org/2000/svg" xmlns:xlink="http://www.w3.org/1999/xlink" width="24px" height="24px" viewBox="0 0 24 24" version="1.1">
<g id="surface1">
<path style=" stroke:none;fill-rule:nonzero;fill:rgb(94.117647%,89.019608%,92.54902%);fill-opacity:1;" d="M 1.5 4.5 L 22.5 4.5 L 22.5 24.089844 L 1.5 24.089844 Z M 1.5 4.5 "/>
<path style=" stroke:none;fill-rule:nonzero;fill:rgb(61.56863%,22.745098%,60.784316%);fill-opacity:1;" d="M 0 4.5 L 0 24 L 24 24 L 24 4.5 Z M 1.5 5.382812 L 7.5 5.382812 L 7.5 9 L 1.5 9 Z M 9 5.382812 L 15 5.382812 L 15 9 L 9 9 Z M 16.5 5.382812 L 22.5 5.382812 L 22.5 9 L 16.5 9 Z M 1.5 9.75 L 7.5 9.75 L 7.5 13.5 L 1.5 13.5 Z M 9 9.75 L 15 9.75 L 15 13.5 L 9 13.5 Z M 16.5 9.75 L 22.5 9.75 L 22.5 13.5 L 16.5 13.5 Z M 1.5 14.25 L 7.5 14.25 L 7.5 18 L 1.5 18 Z M 9 14.25 L 15 14.25 L 15 18 L 9 18 Z M 16.5 14.25 L 22.5 14.25 L 22.5 18 L 16.5 18 Z M 1.5 18.75 L 7.5 18.75 L 7.5 23.269531 L 1.5 23.269531 Z M 9 18.75 L 15 18.75 L 15 23.269531 L 9 23.269531 Z M 16.5 18.75 L 22.5 18.75 L 22.5 23.269531 L 16.5 23.269531 Z M 16.5 18.75 "/>
<path style="fill-rule:nonzero;fill:rgb(95.294118%,71.764708%,85.09804%);fill-opacity:1;stroke-width:2;stroke-linecap:butt;stroke-linejoin:miter;stroke:rgb(90.196079%,0.784314%,70.588237%);stroke-opacity:1;stroke-miterlimit:4;" d="M 92.5 48.375007 L 54.208333 89.354174 C 54.104167 89.458341 53.979167 89.500007 53.854167 89.500007 C 53.708333 89.500007 53.583333 89.458341 53.5 89.354174 L 43.916667 79.791674 C 43.75 79.604174 43.729167 79.333341 43.875 79.145841 L 62.395833 56.000007 L 9.5 56.000007 C 9.229167 56.000007 9.020833 55.791674 9.020833 55.520841 L 9.020833 40.479174 C 9.020833 40.208341 9.229167 40.000007 9.5 40.000007 L 62.395833 40.000007 L 43.875 16.854174 C 43.729167 16.666674 43.75 16.395841 43.916667 16.208341 L 53.5 6.645841 C 53.583333 6.541674 53.708333 6.500007 53.854167 6.500007 C 53.979167 6.500007 54.104167 6.541674 54.208333 6.645841 L 92.5 47.687507 C 92.770833 47.895841 92.5 48.166674 92.5 48.375007 Z M 92.5 48.375007 " transform="matrix(0,0.1875,-0.1875,0,21.000001,0)"/>
</g>
</svg>
