<?xml version="1.0" encoding="UTF-8"?>
<svg xmlns="http://www.w3.org/2000/svg" xmlns:xlink="http://www.w3.org/1999/xlink" width="24px" height="24px" viewBox="0 0 24 24" version="1.1">
<g id="surface1">
<path style=" stroke:none;fill-rule:nonzero;fill:rgb(61.56863%,22.745098%,60.784316%);fill-opacity:1;" d="M 1.5 3 L 22.5 3 L 22.5 21 L 1.5 21 Z M 1.5 3 "/>
<path style=" stroke:none;fill-rule:nonzero;fill:rgb(94.117647%,89.019608%,92.54902%);fill-opacity:1;" d="M 1.5 9 L 22.5 9 L 22.5 21 L 1.5 21 Z M 1.5 9 "/>
<path style=" stroke:none;fill-rule:nonzero;fill:rgb(95.294118%,71.764708%,85.09804%);fill-opacity:1;" d="M 1.5 16.5 L 22.5 16.5 L 22.5 18 L 1.5 18 Z M 1.5 16.5 "/>
<path style=" stroke:none;fill-rule:nonzero;fill:rgb(95.294118%,71.764708%,85.09804%);fill-opacity:1;" d="M 1.5 12 L 22.5 12 L 22.5 13.5 L 1.5 13.5 Z M 1.5 12 "/>
<path style=" stroke:none;fill-rule:nonzero;fill:rgb(95.294118%,71.764708%,85.09804%);fill-opacity:1;" d="M 7.5 9 L 9 9 L 9 21 L 7.5 21 Z M 7.5 9 "/>
<path style=" stroke:none;fill-rule:nonzero;fill:rgb(95.294118%,71.764708%,85.09804%);fill-opacity:1;" d="M 15 9 L 16.5 9 L 16.5 21 L 15 21 Z M 15 9 "/>
<path style=" stroke:none;fill-rule:nonzero;fill:rgb(90.196079%,0.784314%,70.588237%);fill-opacity:1;" d="M 10.578125 8.730469 C 9.632812 5.207031 11.726562 1.582031 15.25 0.640625 C 18.773438 -0.304688 22.398438 1.785156 23.339844 5.3125 C 24.285156 8.835938 22.195312 12.457031 18.667969 13.402344 C 15.144531 14.347656 11.523438 12.253906 10.578125 8.730469 Z M 10.578125 8.730469 "/>
<path style=" stroke:none;fill-rule:evenodd;fill:rgb(94.117647%,89.019608%,92.54902%);fill-opacity:1;" d="M 15.828125 1.488281 L 15.828125 5.792969 L 11.523438 5.792969 L 11.523438 8.054688 L 15.828125 8.054688 L 15.828125 12.359375 L 18.089844 12.359375 L 18.089844 8.054688 L 22.394531 8.054688 L 22.394531 5.792969 L 18.089844 5.792969 L 18.089844 1.488281 Z M 15.828125 1.488281 "/>
</g>
</svg>
