<?xml version="1.0" encoding="UTF-8"?>
<svg xmlns="http://www.w3.org/2000/svg" xmlns:xlink="http://www.w3.org/1999/xlink" width="24px" height="24px" viewBox="0 0 24 24" version="1.1">
<g id="surface1">
<path style=" stroke:none;fill-rule:nonzero;fill:rgb(95.294118%,71.764708%,85.09804%);fill-opacity:1;" d="M 1.5 1.5 L 22.5 1.5 L 22.5 21.089844 L 1.5 21.089844 Z M 1.5 1.5 "/>
<path style=" stroke:none;fill-rule:nonzero;fill:rgb(61.56863%,22.745098%,60.784316%);fill-opacity:1;" d="M 0 1.5 L 0 21 L 24 21 L 24 1.5 Z M 1.5 2.382812 L 6 2.382812 L 6 6 L 1.5 6 Z M 7.5 2.382812 L 16.5 2.382812 L 16.5 6 L 7.5 6 Z M 18 2.382812 L 22.5 2.382812 L 22.5 6 L 18 6 Z M 1.5 6.75 L 6 6.75 L 6 10.5 L 1.5 10.5 Z M 7.5 6.75 L 16.5 6.75 L 16.5 10.5 L 7.5 10.5 Z M 18 6.75 L 22.5 6.75 L 22.5 10.5 L 18 10.5 Z M 1.5 11.25 L 6 11.25 L 6 15 L 1.5 15 Z M 7.5 11.25 L 16.5 11.25 L 16.5 15 L 7.5 15 Z M 18 11.25 L 22.5 11.25 L 22.5 15 L 18 15 Z M 1.5 15.75 L 6 15.75 L 6 20.269531 L 1.5 20.269531 Z M 7.5 15.75 L 16.5 15.75 L 16.5 20.269531 L 7.5 20.269531 Z M 18 15.75 L 22.5 15.75 L 22.5 20.269531 L 18 20.269531 Z M 18 15.75 "/>
<path style=" stroke:none;fill-rule:nonzero;fill:rgb(94.117647%,89.019608%,92.54902%);fill-opacity:1;" d="M 7.5 15.75 L 12 15.75 L 12 20.25 L 7.5 20.25 Z M 7.5 15.75 "/>
<path style=" stroke:none;fill-rule:nonzero;fill:rgb(94.117647%,89.019608%,92.54902%);fill-opacity:1;" d="M 7.5 11.25 L 10.5 11.25 L 10.5 15 L 7.5 15 Z M 7.5 11.25 "/>
<path style=" stroke:none;fill-rule:nonzero;fill:rgb(94.117647%,89.019608%,92.54902%);fill-opacity:1;" d="M 7.5 6.75 L 9 6.75 L 9 10.5 L 7.5 10.5 Z M 7.5 6.75 "/>
<path style=" stroke:none;fill-rule:nonzero;fill:rgb(94.117647%,89.019608%,92.54902%);fill-opacity:1;" d="M 7.5 2.25 L 12 2.382812 L 12 6.132812 L 7.5 6 Z M 7.5 2.25 "/>
<path style=" stroke:none;fill-rule:nonzero;fill:rgb(90.196079%,0.784314%,70.588237%);fill-opacity:1;" d="M 6 15 L 6 21 L 13.5 21 L 13.5 15 Z M 7.5 15.75 L 12 15.75 L 12 20.25 L 7.5 20.25 Z M 7.5 15.75 "/>
<path style=" stroke:none;fill-rule:nonzero;fill:rgb(90.196079%,0.784314%,70.588237%);fill-opacity:1;" d="M 6 10.5 L 6 15.75 L 12 15.75 L 12 10.5 Z M 7.5 11.25 L 10.5 11.25 L 10.5 15 L 7.5 15 Z M 7.5 11.25 "/>
<path style=" stroke:none;fill-rule:nonzero;fill:rgb(90.196079%,0.784314%,70.588237%);fill-opacity:1;" d="M 6 6 L 6 11.25 L 10.5 11.25 L 10.5 6 Z M 7.5 6.75 L 9 6.75 L 9 10.5 L 7.5 10.5 Z M 7.5 6.75 "/>
<path style=" stroke:none;fill-rule:nonzero;fill:rgb(90.196079%,0.784314%,70.588237%);fill-opacity:1;" d="M 6 1.5 L 6 6.75 L 13.5 6.75 L 13.5 1.5 Z M 7.5 2.382812 L 12 2.382812 L 12 6 L 7.5 6 Z M 7.5 2.382812 "/>
<path style=" stroke:none;fill-rule:nonzero;fill:rgb(90.196079%,0.784314%,70.588237%);fill-opacity:1;" d="M 15.75 4.125 C 15.75 4.746094 15.246094 5.25 14.625 5.25 C 14.003906 5.25 13.5 4.746094 13.5 4.125 C 13.5 3.503906 14.003906 3 14.625 3 C 15.246094 3 15.75 3.503906 15.75 4.125 Z M 15.75 4.125 "/>
<path style=" stroke:none;fill-rule:nonzero;fill:rgb(90.196079%,0.784314%,70.588237%);fill-opacity:1;" d="M 15.75 8.625 C 15.75 9.246094 15.246094 9.75 14.625 9.75 C 14.003906 9.75 13.5 9.246094 13.5 8.625 C 13.5 8.003906 14.003906 7.5 14.625 7.5 C 15.246094 7.5 15.75 8.003906 15.75 8.625 Z M 15.75 8.625 "/>
<path style=" stroke:none;fill-rule:nonzero;fill:rgb(90.196079%,0.784314%,70.588237%);fill-opacity:1;" d="M 15.75 13.125 C 15.75 13.746094 15.246094 14.25 14.625 14.25 C 14.003906 14.25 13.5 13.746094 13.5 13.125 C 13.5 12.503906 14.003906 12 14.625 12 C 15.246094 12 15.75 12.503906 15.75 13.125 Z M 15.75 13.125 "/>
<path style=" stroke:none;fill-rule:nonzero;fill:rgb(90.196079%,0.784314%,70.588237%);fill-opacity:1;" d="M 15.75 17.625 C 15.75 18.246094 15.246094 18.75 14.625 18.75 C 14.003906 18.75 13.5 18.246094 13.5 17.625 C 13.5 17.003906 14.003906 16.5 14.625 16.5 C 15.246094 16.5 15.75 17.003906 15.75 17.625 Z M 15.75 17.625 "/>
</g>
</svg>
