<?xml version="1.0" encoding="UTF-8"?>
<svg xmlns="http://www.w3.org/2000/svg" xmlns:xlink="http://www.w3.org/1999/xlink" width="24px" height="24px" viewBox="0 0 24 24" version="1.1">
<g id="surface1">
<path style=" stroke:none;fill-rule:nonzero;fill:rgb(61.56863%,22.745098%,60.784316%);fill-opacity:1;" d="M 1.5 1.5 L 22.5 1.5 L 22.5 20.984375 L 1.5 20.984375 Z M 1.5 1.5 "/>
<path style=" stroke:none;fill-rule:nonzero;fill:rgb(95.294118%,71.764708%,85.09804%);fill-opacity:1;" d="M 0 1.5 L 0 21 L 24 21 L 24 1.5 Z M 1.5 2.382812 L 22.5 2.382812 L 22.5 6 L 1.5 6 Z M 1.5 6.75 L 22.5 6.75 L 22.5 10.5 L 1.5 10.5 Z M 1.5 11.25 L 22.5 11.25 L 22.5 15 L 1.5 15 Z M 1.5 15.75 L 22.5 15.75 L 22.5 20.269531 L 1.5 20.269531 Z M 1.5 15.75 "/>
<path style=" stroke:none;fill-rule:nonzero;fill:rgb(94.117647%,89.019608%,92.54902%);fill-opacity:1;" d="M 7.5 2.25 L 7.5 20.269531 L 1.5 20.269531 L 1.5 2.25 Z M 7.5 2.25 "/>
<path style=" stroke:none;fill-rule:nonzero;fill:rgb(90.196079%,0.784314%,70.588237%);fill-opacity:1;" d="M 0.0390625 1.5 C 0.015625 1.5 0 1.519531 0 1.546875 L 0 20.953125 C 0 20.980469 0.015625 21 0.0390625 21 L 8.960938 21 C 8.984375 21 9 20.980469 9 20.953125 L 9 1.546875 C 9 1.519531 8.984375 1.5 8.960938 1.5 Z M 1.5 2.382812 L 7.5 2.382812 L 7.5 6 L 1.5 6 Z M 1.5 6.75 L 7.5 6.75 L 7.5 10.5 L 1.5 10.5 Z M 1.5 11.25 L 7.5 11.25 L 7.5 15 L 1.5 15 Z M 1.5 15.75 L 7.5 15.75 L 7.5 20.269531 L 1.5 20.269531 Z M 1.5 15.75 "/>
</g>
</svg>
