<?xml version="1.0" encoding="UTF-8"?>
<svg xmlns="http://www.w3.org/2000/svg" xmlns:xlink="http://www.w3.org/1999/xlink" width="24px" height="24px" viewBox="0 0 24 24" version="1.1">
<defs>
<filter id="alpha" filterUnits="objectBoundingBox" x="0%" y="0%" width="100%" height="100%">
  <feColorMatrix type="matrix" in="SourceGraphic" values="0 0 0 0 1 0 0 0 0 1 0 0 0 0 1 0 0 0 1 0"/>
</filter>
<mask id="mask0">
  <g filter="url(#alpha)">
<rect x="0" y="0" width="24" height="24" style="fill:rgb(0%,0%,0%);fill-opacity:0.35;stroke:none;"/>
  </g>
</mask>
<clipPath id="clip1">
  <rect x="0" y="0" width="24" height="24"/>
</clipPath>
<g id="surface5" clip-path="url(#clip1)">
<path style=" stroke:none;fill-rule:nonzero;fill:rgb(33.333334%,34.117648%,32.549021%);fill-opacity:1;" d="M 10.5 3 L 10.5 9 L 4.5 9 L 4.5 21 L 13.5 21 L 13.5 15 L 19.5 15 L 19.5 3 Z M 10.5 3 "/>
</g>
</defs>
<g id="surface1">
<use xlink:href="#surface5" mask="url(#mask0)"/>
<path style=" stroke:none;fill-rule:nonzero;fill:rgb(33.333334%,34.117648%,32.549021%);fill-opacity:1;" d="M 9 0 C 8.167969 0 7.5 0.667969 7.5 1.5 L 7.5 6 L 3 6 C 2.167969 6 1.5 6.667969 1.5 7.5 L 1.5 22.5 C 1.5 23.332031 2.167969 24 3 24 L 15 24 C 15.832031 24 16.5 23.332031 16.5 22.5 L 16.5 18 L 21 18 C 21.832031 18 22.5 17.332031 22.5 16.5 L 22.5 1.5 C 22.5 0.667969 21.832031 0 21 0 Z M 10.5 3 L 19.5 3 L 19.5 15 L 16.5 15 L 16.5 7.5 C 16.5 6.667969 15.832031 6 15 6 L 10.5 6 Z M 4.5 9 L 13.5 9 L 13.5 21 L 4.5 21 Z M 4.5 9 "/>
</g>
</svg>
