<?xml version="1.0" encoding="UTF-8"?>
<svg xmlns="http://www.w3.org/2000/svg" xmlns:xlink="http://www.w3.org/1999/xlink" width="24px" height="24px" viewBox="0 0 24 24" version="1.1">
<g id="surface1">
<path style=" stroke:none;fill-rule:nonzero;fill:rgb(95.294118%,71.764708%,85.09804%);fill-opacity:1;" d="M 1.5 3 L 22.5 3 L 22.5 21 L 1.5 21 Z M 1.5 3 "/>
<path style=" stroke:none;fill-rule:nonzero;fill:rgb(61.56863%,22.745098%,60.784316%);fill-opacity:0.16763;" d="M 3 6 L 21 6 L 21 10.5 L 3 10.5 Z M 3 6 "/>
<path style=" stroke:none;fill-rule:nonzero;fill:rgb(94.117647%,89.019608%,92.54902%);fill-opacity:1;" d="M 4.5 7.5 L 19.5 7.5 L 19.5 10.5 L 4.5 10.5 Z M 4.5 7.5 "/>
<path style=" stroke:none;fill-rule:nonzero;fill:rgb(61.56863%,22.745098%,60.784316%);fill-opacity:0.375;" d="M 4.5 19.5 L 19.5 19.5 L 19.5 13.5 L 4.5 13.5 Z M 4.5 19.5 "/>
<path style=" stroke:none;fill-rule:nonzero;fill:rgb(94.117647%,89.019608%,92.54902%);fill-opacity:1;" d="M 4.5 13.5 L 19.5 13.5 L 19.5 18 L 4.5 18 Z M 4.5 13.5 "/>
<path style=" stroke:none;fill-rule:nonzero;fill:rgb(61.56863%,22.745098%,60.784316%);fill-opacity:1;" d="M 8.398438 17.136719 C 8.082031 16.785156 7.921875 16.332031 7.921875 15.78125 C 7.921875 15.226562 8.082031 14.777344 8.398438 14.425781 C 8.714844 14.074219 9.132812 13.898438 9.648438 13.898438 C 10.167969 13.898438 10.585938 14.074219 10.90625 14.425781 C 11.222656 14.773438 11.382812 15.234375 11.382812 15.804688 C 11.382812 16.335938 11.226562 16.78125 10.910156 17.136719 C 10.597656 17.488281 10.179688 17.664062 9.652344 17.664062 C 9.132812 17.664062 8.710938 17.488281 8.398438 17.136719 Z M 9.652344 14.527344 C 9.355469 14.527344 9.113281 14.644531 8.933594 14.875 C 8.753906 15.101562 8.664062 15.402344 8.664062 15.78125 C 8.664062 16.15625 8.753906 16.460938 8.933594 16.691406 C 9.113281 16.917969 9.355469 17.03125 9.652344 17.03125 C 9.949219 17.03125 10.1875 16.917969 10.367188 16.691406 C 10.550781 16.464844 10.644531 16.167969 10.644531 15.800781 C 10.644531 15.414062 10.554688 15.101562 10.371094 14.875 C 10.195312 14.644531 9.957031 14.527344 9.652344 14.527344 Z M 9.652344 14.527344 "/>
<path style=" stroke:none;fill-rule:nonzero;fill:rgb(61.56863%,22.745098%,60.784316%);fill-opacity:1;" d="M 13.648438 16.347656 L 13.648438 17.550781 L 12.90625 17.550781 L 12.90625 13.957031 L 13.648438 13.957031 L 13.648438 15.535156 L 15.050781 13.957031 L 15.921875 13.957031 L 14.488281 15.503906 L 16.078125 17.550781 L 15.195312 17.550781 L 14.015625 15.960938 Z M 13.648438 16.347656 "/>
<path style=" stroke:none;fill-rule:nonzero;fill:rgb(90.196079%,0.784314%,70.588237%);fill-opacity:1;" d="M 10.578125 8.730469 C 9.632812 5.207031 11.726562 1.582031 15.25 0.640625 C 18.773438 -0.304688 22.398438 1.785156 23.339844 5.3125 C 24.285156 8.835938 22.195312 12.457031 18.667969 13.402344 C 15.144531 14.347656 11.523438 12.253906 10.578125 8.730469 Z M 10.578125 8.730469 "/>
<path style=" stroke:none;fill-rule:evenodd;fill:rgb(94.117647%,89.019608%,92.54902%);fill-opacity:1;" d="M 15.828125 1.488281 L 15.828125 5.792969 L 11.523438 5.792969 L 11.523438 8.054688 L 15.828125 8.054688 L 15.828125 12.359375 L 18.089844 12.359375 L 18.089844 8.054688 L 22.394531 8.054688 L 22.394531 5.792969 L 18.089844 5.792969 L 18.089844 1.488281 Z M 15.828125 1.488281 "/>
</g>
</svg>
