<?xml version="1.0" encoding="UTF-8"?>
<svg xmlns="http://www.w3.org/2000/svg" xmlns:xlink="http://www.w3.org/1999/xlink" width="24px" height="24px" viewBox="0 0 24 24" version="1.1">
<defs>
<filter id="alpha" filterUnits="objectBoundingBox" x="0%" y="0%" width="100%" height="100%">
  <feColorMatrix type="matrix" in="SourceGraphic" values="0 0 0 0 1 0 0 0 0 1 0 0 0 0 1 0 0 0 1 0"/>
</filter>
<mask id="mask0">
  <g filter="url(#alpha)">
<rect x="0" y="0" width="24" height="24" style="fill:rgb(0%,0%,0%);fill-opacity:0.380531;stroke:none;"/>
  </g>
</mask>
<clipPath id="clip1">
  <rect x="0" y="0" width="24" height="24"/>
</clipPath>
<g id="surface5" clip-path="url(#clip1)">
<path style=" stroke:none;fill-rule:nonzero;fill:rgb(61.56863%,22.745098%,60.784316%);fill-opacity:1;" d="M 10.5 6.003906 L 13.5 6.003906 L 13.5 3.003906 L 10.5 3.003906 Z M 10.5 6.003906 "/>
</g>
<mask id="mask1">
  <g filter="url(#alpha)">
<rect x="0" y="0" width="24" height="24" style="fill:rgb(0%,0%,0%);fill-opacity:0.367257;stroke:none;"/>
  </g>
</mask>
<clipPath id="clip2">
  <rect x="0" y="0" width="24" height="24"/>
</clipPath>
<g id="surface8" clip-path="url(#clip2)">
<path style=" stroke:none;fill-rule:evenodd;fill:rgb(90.196079%,0.784314%,70.588237%);fill-opacity:0.508571;" d="M 18 7.511719 L 18 9.011719 L 6 9.011719 L 6 7.511719 Z M 18 7.511719 "/>
</g>
<mask id="mask2">
  <g filter="url(#alpha)">
<rect x="0" y="0" width="24" height="24" style="fill:rgb(0%,0%,0%);fill-opacity:0.367257;stroke:none;"/>
  </g>
</mask>
<clipPath id="clip3">
  <rect x="0" y="0" width="24" height="24"/>
</clipPath>
<g id="surface11" clip-path="url(#clip3)">
<path style=" stroke:none;fill-rule:evenodd;fill:rgb(29.803923%,60.392159%,76.47059%);fill-opacity:0.508571;" d="M 18 10.503906 L 18 12.003906 L 6 12.003906 L 6 10.503906 Z M 18 10.503906 "/>
</g>
<mask id="mask3">
  <g filter="url(#alpha)">
<rect x="0" y="0" width="24" height="24" style="fill:rgb(0%,0%,0%);fill-opacity:0.367257;stroke:none;"/>
  </g>
</mask>
<clipPath id="clip4">
  <rect x="0" y="0" width="24" height="24"/>
</clipPath>
<g id="surface14" clip-path="url(#clip4)">
<path style=" stroke:none;fill-rule:evenodd;fill:rgb(29.803923%,60.392159%,76.47059%);fill-opacity:0.508571;" d="M 18 13.503906 L 18 15.003906 L 6 15.003906 L 6 13.503906 Z M 18 13.503906 "/>
</g>
<mask id="mask4">
  <g filter="url(#alpha)">
<rect x="0" y="0" width="24" height="24" style="fill:rgb(0%,0%,0%);fill-opacity:0.367257;stroke:none;"/>
  </g>
</mask>
<clipPath id="clip5">
  <rect x="0" y="0" width="24" height="24"/>
</clipPath>
<g id="surface17" clip-path="url(#clip5)">
<path style=" stroke:none;fill-rule:evenodd;fill:rgb(29.803923%,60.392159%,76.47059%);fill-opacity:0.508571;" d="M 18 16.503906 L 18 18.003906 L 6 18.003906 L 6 16.503906 Z M 18 16.503906 "/>
</g>
<mask id="mask5">
  <g filter="url(#alpha)">
<rect x="0" y="0" width="24" height="24" style="fill:rgb(0%,0%,0%);fill-opacity:0.367257;stroke:none;"/>
  </g>
</mask>
<clipPath id="clip6">
  <rect x="0" y="0" width="24" height="24"/>
</clipPath>
<g id="surface20" clip-path="url(#clip6)">
<path style=" stroke:none;fill-rule:evenodd;fill:rgb(29.803923%,60.392159%,76.47059%);fill-opacity:0.508571;" d="M 18 19.503906 L 18 21.003906 L 6 21.003906 L 6 19.503906 Z M 18 19.503906 "/>
</g>
<mask id="mask6">
  <g filter="url(#alpha)">
<rect x="0" y="0" width="24" height="24" style="fill:rgb(0%,0%,0%);fill-opacity:0.380531;stroke:none;"/>
  </g>
</mask>
<clipPath id="clip7">
  <rect x="0" y="0" width="24" height="24"/>
</clipPath>
<g id="surface23" clip-path="url(#clip7)">
<path style=" stroke:none;fill-rule:nonzero;fill:rgb(61.56863%,22.745098%,60.784316%);fill-opacity:1;" d="M 10.5 9.003906 L 13.5 9.003906 L 13.5 6.003906 L 10.5 6.003906 Z M 10.5 9.003906 "/>
</g>
<mask id="mask7">
  <g filter="url(#alpha)">
<rect x="0" y="0" width="24" height="24" style="fill:rgb(0%,0%,0%);fill-opacity:0.367257;stroke:none;"/>
  </g>
</mask>
<clipPath id="clip8">
  <rect x="0" y="0" width="24" height="24"/>
</clipPath>
<g id="surface26" clip-path="url(#clip8)">
<path style=" stroke:none;fill-rule:evenodd;fill:rgb(90.196079%,0.784314%,70.588237%);fill-opacity:0.508571;" d="M 18 10.511719 L 18 12.011719 L 6 12.011719 L 6 10.511719 Z M 18 10.511719 "/>
</g>
<mask id="mask8">
  <g filter="url(#alpha)">
<rect x="0" y="0" width="24" height="24" style="fill:rgb(0%,0%,0%);fill-opacity:0.367257;stroke:none;"/>
  </g>
</mask>
<clipPath id="clip9">
  <rect x="0" y="0" width="24" height="24"/>
</clipPath>
<g id="surface29" clip-path="url(#clip9)">
<path style=" stroke:none;fill-rule:evenodd;fill:rgb(90.196079%,0.784314%,70.588237%);fill-opacity:0.508571;" d="M 18 13.503906 L 18 15.003906 L 6 15.003906 L 6 13.503906 Z M 18 13.503906 "/>
</g>
<mask id="mask9">
  <g filter="url(#alpha)">
<rect x="0" y="0" width="24" height="24" style="fill:rgb(0%,0%,0%);fill-opacity:0.367257;stroke:none;"/>
  </g>
</mask>
<clipPath id="clip10">
  <rect x="0" y="0" width="24" height="24"/>
</clipPath>
<g id="surface32" clip-path="url(#clip10)">
<path style=" stroke:none;fill-rule:evenodd;fill:rgb(90.196079%,0.784314%,70.588237%);fill-opacity:0.508571;" d="M 18 16.503906 L 18 18.003906 L 6 18.003906 L 6 16.503906 Z M 18 16.503906 "/>
</g>
</defs>
<g id="surface1">
<path style=" stroke:none;fill-rule:evenodd;fill:rgb(94.117647%,89.019608%,92.54902%);fill-opacity:1;" d="M 2.25 14.816406 L 5.25 4.503906 L 18.75 4.503906 L 21.75 14.816406 L 21.75 15.503906 L 21 21.003906 L 3 21.003906 L 2.25 15.503906 Z M 2.25 14.816406 "/>
<path style=" stroke:none;fill-rule:evenodd;fill:rgb(95.294118%,71.764708%,85.09804%);fill-opacity:1;" d="M 2.25 15.003906 L 5.25 4.503906 L 18.75 4.503906 L 21.75 15.003906 L 21 15.003906 L 18.375 5.253906 L 5.625 5.253906 L 3 15.003906 Z M 2.25 15.003906 "/>
<path style=" stroke:none;fill-rule:nonzero;fill:rgb(90.196079%,0.784314%,70.588237%);fill-opacity:1;" d="M 12 1.601562 L 10.210938 1.609375 C 9.914062 1.609375 9.519531 1.710938 8.976562 2.25 C 7.410156 3.804688 6.3125 4.867188 5.027344 6.171875 C 4.597656 6.613281 4.5 6.96875 4.5 7.371094 L 4.5 22.503906 L 11.957031 22.503906 L 11.957031 22.507812 L 19.5 22.503906 L 19.5 7.371094 C 19.5 6.96875 19.402344 6.613281 18.972656 6.171875 C 17.6875 4.867188 16.589844 3.804688 15.023438 2.25 C 14.480469 1.710938 14.085938 1.609375 13.789062 1.609375 L 12 1.609375 Z M 12 1.601562 "/>
<path style=" stroke:none;fill-rule:nonzero;fill:rgb(94.117647%,89.019608%,92.54902%);fill-opacity:1;" d="M 10.566406 2.675781 C 10.269531 2.691406 10.039062 2.8125 9.832031 2.957031 C 9.644531 3.007812 7.582031 5.328125 5.972656 6.953125 C 5.734375 7.195312 5.585938 7.648438 5.585938 7.816406 L 5.585938 21.324219 C 5.585938 21.371094 5.617188 21.410156 5.675781 21.410156 L 11.957031 21.410156 L 11.957031 21.417969 L 18.28125 21.417969 C 18.339844 21.417969 18.367188 21.375 18.367188 21.328125 L 18.367188 7.820312 C 18.367188 7.65625 18.222656 7.199219 17.980469 6.957031 C 16.371094 5.335938 14.308594 3.015625 14.125 2.960938 C 13.914062 2.820312 13.6875 2.699219 13.390625 2.683594 L 13.226562 2.683594 C 13.175781 2.683594 13.09375 2.6875 13.089844 2.6875 L 12 2.6875 L 12 2.679688 L 10.867188 2.679688 C 10.859375 2.679688 10.78125 2.679688 10.726562 2.675781 Z M 10.566406 2.675781 "/>
<use xlink:href="#surface5" mask="url(#mask0)"/>
<use xlink:href="#surface8" mask="url(#mask1)"/>
<use xlink:href="#surface11" mask="url(#mask2)"/>
<use xlink:href="#surface14" mask="url(#mask3)"/>
<use xlink:href="#surface17" mask="url(#mask4)"/>
<use xlink:href="#surface20" mask="url(#mask5)"/>
<path style=" stroke:none;fill-rule:nonzero;fill:rgb(61.56863%,22.745098%,60.784316%);fill-opacity:1;" d="M 12 4.601562 L 10.210938 4.609375 C 9.914062 4.609375 9.519531 4.710938 8.976562 5.25 C 7.410156 6.804688 6.3125 7.867188 5.027344 9.171875 C 4.597656 9.613281 4.5 9.96875 4.5 10.371094 L 4.5 21.003906 L 19.5 21.003906 L 19.5 10.371094 C 19.5 9.96875 19.402344 9.613281 18.972656 9.171875 C 17.6875 7.867188 16.589844 6.804688 15.023438 5.25 C 14.480469 4.710938 14.085938 4.609375 13.789062 4.609375 L 12 4.609375 Z M 12 4.601562 "/>
<path style=" stroke:none;fill-rule:nonzero;fill:rgb(94.117647%,89.019608%,92.54902%);fill-opacity:1;" d="M 10.566406 5.675781 C 10.269531 5.691406 10.039062 5.8125 9.832031 5.957031 C 9.644531 6.007812 7.582031 8.328125 5.972656 9.953125 C 5.734375 10.195312 5.585938 10.648438 5.585938 10.816406 L 5.585938 21.003906 L 18.367188 21.003906 L 18.367188 10.820312 C 18.367188 10.65625 18.222656 10.199219 17.980469 9.957031 C 16.371094 8.335938 14.308594 6.015625 14.125 5.960938 C 13.914062 5.820312 13.6875 5.699219 13.390625 5.683594 L 13.226562 5.683594 C 13.175781 5.683594 13.09375 5.6875 13.089844 5.6875 L 12 5.6875 L 12 5.679688 L 10.867188 5.679688 C 10.859375 5.679688 10.78125 5.679688 10.726562 5.675781 Z M 10.566406 5.675781 "/>
<use xlink:href="#surface23" mask="url(#mask6)"/>
<use xlink:href="#surface26" mask="url(#mask7)"/>
<use xlink:href="#surface29" mask="url(#mask8)"/>
<use xlink:href="#surface32" mask="url(#mask9)"/>
<path style=" stroke:none;fill-rule:evenodd;fill:rgb(95.294118%,71.764708%,85.09804%);fill-opacity:1;" d="M 2.238281 15.835938 L 2.238281 16.585938 L 11.988281 21.835938 L 21.738281 16.585938 L 21.738281 15.835938 L 18.738281 15.835938 L 15.738281 18.835938 L 8.238281 18.835938 L 5.238281 15.835938 Z M 2.238281 15.835938 "/>
<path style=" stroke:none;fill-rule:evenodd;fill:rgb(90.196079%,0.784314%,70.588237%);fill-opacity:1;" d="M 2.238281 16.585938 L 2.988281 22.585938 L 20.988281 22.585938 L 21.738281 16.585938 L 18.738281 16.585938 L 15.738281 19.585938 L 8.238281 19.585938 L 5.238281 16.585938 Z M 2.238281 16.585938 "/>
<path style=" stroke:none;fill-rule:evenodd;fill:rgb(90.196079%,0.784314%,70.588237%);fill-opacity:1;" d="M 5.238281 16.585938 L 5.238281 15.835938 L 8.238281 18.835938 L 8.238281 19.585938 Z M 5.238281 16.585938 "/>
<path style=" stroke:none;fill-rule:evenodd;fill:rgb(61.56863%,22.745098%,60.784316%);fill-opacity:1;" d="M 2.238281 16.585938 L 2.425781 18.085938 L 5.238281 18.085938 L 8.238281 21.085938 L 15.738281 21.085938 L 18.738281 18.085938 L 21.550781 18.085938 L 21.738281 16.585938 L 18.738281 16.585938 L 15.738281 19.585938 L 8.238281 19.585938 L 5.238281 16.585938 Z M 2.238281 16.585938 "/>
</g>
</svg>
