<?xml version="1.0" encoding="UTF-8"?>
<svg xmlns="http://www.w3.org/2000/svg" xmlns:xlink="http://www.w3.org/1999/xlink" width="24px" height="24px" viewBox="0 0 24 24" version="1.1">
<g id="surface1">
<path style=" stroke:none;fill-rule:nonzero;fill:rgb(33.333334%,34.117648%,32.549021%);fill-opacity:1;" d="M 3 4.5 C 3 6.148438 1.648438 7.5 0 7.5 L 0 16.5 C 1.648438 16.5 3 17.851562 3 19.5 L 21 19.5 C 21 17.851562 22.351562 16.5 24 16.5 L 24 7.5 C 22.351562 7.5 21 6.148438 21 4.5 Z M 4.5 7.5 L 19.5 7.5 L 19.5 9 L 21 9 L 21 15 L 19.5 15 L 19.5 16.5 L 4.5 16.5 L 4.5 15 L 3 15 L 3 9 L 4.5 9 Z M 12 9 C 10.351562 9 9 10.351562 9 12 C 9 13.648438 10.351562 15 12 15 C 13.648438 15 15 13.648438 15 12 C 15 10.351562 13.648438 9 12 9 Z M 12 9 "/>
</g>
</svg>
