<?xml version="1.0" encoding="UTF-8"?>
<svg xmlns="http://www.w3.org/2000/svg" xmlns:xlink="http://www.w3.org/1999/xlink" width="24px" height="24px" viewBox="0 0 24 24" version="1.1">
<g id="surface1">
<path style=" stroke:none;fill-rule:nonzero;fill:rgb(61.56863%,22.745098%,60.784316%);fill-opacity:1;" d="M 22.765625 21.949219 L 22.765625 22.5 L 14.820312 22.5 L 14.820312 21.949219 C 15.652344 21.929688 16.222656 21.855469 16.535156 21.71875 C 16.84375 21.582031 17 21.332031 17 20.964844 C 17 20.503906 16.804688 19.859375 16.410156 19.027344 L 15.132812 16.25 L 6.96875 16.25 L 5.535156 19.636719 C 5.367188 20.039062 5.285156 20.417969 5.285156 20.765625 C 5.285156 21.554688 5.992188 21.949219 7.40625 21.949219 L 7.40625 22.5 L 1.234375 22.5 L 1.234375 21.949219 C 2.003906 21.910156 2.59375 21.640625 3.011719 21.140625 C 3.449219 20.621094 4.144531 19.308594 5.097656 17.207031 L 11.578125 3 L 12.203125 3 L 19.960938 19.433594 C 20.460938 20.492188 20.875 21.167969 21.207031 21.457031 C 21.539062 21.746094 22.058594 21.910156 22.765625 21.949219 Z M 7.496094 15.066406 L 14.695312 15.066406 L 11.082031 7.109375 Z M 7.496094 15.066406 "/>
</g>
</svg>
