<?xml version="1.0" encoding="UTF-8"?>
<svg xmlns="http://www.w3.org/2000/svg" xmlns:xlink="http://www.w3.org/1999/xlink" width="24px" height="24px" viewBox="0 0 24 24" version="1.1">
<g id="surface1">
<path style=" stroke:none;fill-rule:nonzero;fill:rgb(33.333334%,34.117648%,32.549021%);fill-opacity:1;" d="M 0.875 6.011719 C 0.386719 6.003906 -0.015625 6.402344 -0.015625 6.890625 L -0.015625 17.132812 C -0.015625 17.84375 0.789062 18.261719 1.371094 17.851562 L 8.613281 12.730469 C 9.109375 12.378906 9.109375 11.644531 8.613281 11.292969 L 1.371094 6.171875 C 1.226562 6.070312 1.054688 6.015625 0.875 6.011719 Z M 15.28125 13.5 C 14.289062 13.5 13.5 14.324219 13.5 15.328125 L 13.5 22.171875 C 13.5 23.175781 14.289062 24 15.28125 24 L 22.5 24 C 23.492188 24 24 23.175781 24 22.171875 L 24 15.328125 C 24 14.324219 23.492188 13.5 22.5 13.5 Z M 15 15 L 16.5 15 L 18.75 17.25 L 21 15 L 22.5 15 L 22.5 16.5 L 20.25 18.75 L 22.5 21 L 22.5 22.5 L 21 22.5 L 18.75 20.25 L 16.5 22.5 L 15 22.5 L 15 21 L 17.25 18.75 L 15 16.5 Z M 15 15 "/>
</g>
</svg>
