<?xml version="1.0" encoding="UTF-8"?>
<svg xmlns="http://www.w3.org/2000/svg" xmlns:xlink="http://www.w3.org/1999/xlink" width="24px" height="24px" viewBox="0 0 24 24" version="1.1">
<g id="surface1">
<path style=" stroke:none;fill-rule:nonzero;fill:rgb(33.333334%,34.117648%,32.549021%);fill-opacity:1;" d="M 1.5 0 L 1.5 24 L 19.5 24 L 19.5 18 L 16.5 18 L 16.5 21 L 12 21 L 12 3 L 16.5 3 L 16.5 6 L 19.5 6 L 19.5 0 Z M 4.5 3 L 9 3 L 9 7.5 L 4.5 7.5 Z M 18 7.5 L 18 9 C 18 9.386719 18.195312 9.792969 18.46875 10.078125 L 19.027344 10.5 L 15 10.5 L 15 13.5 L 19.027344 13.5 L 18.46875 13.921875 C 18.195312 14.207031 18 14.664062 18 15 L 18 16.5 L 19.5 16.5 C 19.964844 16.5 20.328125 16.363281 20.625 16.078125 C 22.148438 14.921875 22.914062 14.097656 24 13.167969 L 24 10.746094 L 20.625 7.921875 C 20.328125 7.636719 19.964844 7.5 19.5 7.5 Z M 4.5 9 L 9 9 L 9 15 L 4.5 15 Z M 4.5 16.5 L 9 16.5 L 9 21 L 4.5 21 Z M 4.5 16.5 "/>
</g>
</svg>
