<?xml version="1.0" encoding="UTF-8"?>
<svg xmlns="http://www.w3.org/2000/svg" xmlns:xlink="http://www.w3.org/1999/xlink" width="24px" height="24px" viewBox="0 0 24 24" version="1.1">
<defs>
<filter id="alpha" filterUnits="objectBoundingBox" x="0%" y="0%" width="100%" height="100%">
  <feColorMatrix type="matrix" in="SourceGraphic" values="0 0 0 0 1 0 0 0 0 1 0 0 0 0 1 0 0 0 1 0"/>
</filter>
<mask id="mask0">
  <g filter="url(#alpha)">
<rect x="0" y="0" width="24" height="24" style="fill:rgb(0%,0%,0%);fill-opacity:0.367257;stroke:none;"/>
  </g>
</mask>
<clipPath id="clip1">
  <rect x="0" y="0" width="24" height="24"/>
</clipPath>
<g id="surface5" clip-path="url(#clip1)">
<path style=" stroke:none;fill-rule:evenodd;fill:rgb(90.196079%,0.784314%,70.588237%);fill-opacity:0.508571;" d="M 7.5 18 L 16.5 18 L 16.5 19.5 L 7.5 19.5 Z M 7.5 18 "/>
</g>
<mask id="mask1">
  <g filter="url(#alpha)">
<rect x="0" y="0" width="24" height="24" style="fill:rgb(0%,0%,0%);fill-opacity:0.367257;stroke:none;"/>
  </g>
</mask>
<clipPath id="clip2">
  <rect x="0" y="0" width="24" height="24"/>
</clipPath>
<g id="surface8" clip-path="url(#clip2)">
<path style=" stroke:none;fill-rule:evenodd;fill:rgb(90.196079%,0.784314%,70.588237%);fill-opacity:0.508571;" d="M 7.5 15 L 16.5 15 L 16.5 16.5 L 7.5 16.5 Z M 7.5 15 "/>
</g>
<mask id="mask2">
  <g filter="url(#alpha)">
<rect x="0" y="0" width="24" height="24" style="fill:rgb(0%,0%,0%);fill-opacity:0.380531;stroke:none;"/>
  </g>
</mask>
<clipPath id="clip3">
  <rect x="0" y="0" width="24" height="24"/>
</clipPath>
<g id="surface11" clip-path="url(#clip3)">
<path style=" stroke:none;fill-rule:nonzero;fill:rgb(61.56863%,22.745098%,60.784316%);fill-opacity:1;" d="M 4.5 3 L 6 3 L 6 4.5 L 4.5 4.5 Z M 4.5 3 "/>
</g>
<mask id="mask3">
  <g filter="url(#alpha)">
<rect x="0" y="0" width="24" height="24" style="fill:rgb(0%,0%,0%);fill-opacity:0.380531;stroke:none;"/>
  </g>
</mask>
<clipPath id="clip4">
  <rect x="0" y="0" width="24" height="24"/>
</clipPath>
<g id="surface14" clip-path="url(#clip4)">
<path style=" stroke:none;fill-rule:nonzero;fill:rgb(61.56863%,22.745098%,60.784316%);fill-opacity:1;" d="M 4.5 6 L 6 6 L 6 7.5 L 4.5 7.5 Z M 4.5 6 "/>
</g>
<mask id="mask4">
  <g filter="url(#alpha)">
<rect x="0" y="0" width="24" height="24" style="fill:rgb(0%,0%,0%);fill-opacity:0.380531;stroke:none;"/>
  </g>
</mask>
<clipPath id="clip5">
  <rect x="0" y="0" width="24" height="24"/>
</clipPath>
<g id="surface17" clip-path="url(#clip5)">
<path style=" stroke:none;fill-rule:nonzero;fill:rgb(61.56863%,22.745098%,60.784316%);fill-opacity:1;" d="M 4.5 9 L 6 9 L 6 10.5 L 4.5 10.5 Z M 4.5 9 "/>
</g>
<mask id="mask5">
  <g filter="url(#alpha)">
<rect x="0" y="0" width="24" height="24" style="fill:rgb(0%,0%,0%);fill-opacity:0.380531;stroke:none;"/>
  </g>
</mask>
<clipPath id="clip6">
  <rect x="0" y="0" width="24" height="24"/>
</clipPath>
<g id="surface20" clip-path="url(#clip6)">
<path style=" stroke:none;fill-rule:nonzero;fill:rgb(61.56863%,22.745098%,60.784316%);fill-opacity:1;" d="M 4.5 12 L 6 12 L 6 13.5 L 4.5 13.5 Z M 4.5 12 "/>
</g>
<mask id="mask6">
  <g filter="url(#alpha)">
<rect x="0" y="0" width="24" height="24" style="fill:rgb(0%,0%,0%);fill-opacity:0.380531;stroke:none;"/>
  </g>
</mask>
<clipPath id="clip7">
  <rect x="0" y="0" width="24" height="24"/>
</clipPath>
<g id="surface23" clip-path="url(#clip7)">
<path style=" stroke:none;fill-rule:nonzero;fill:rgb(61.56863%,22.745098%,60.784316%);fill-opacity:1;" d="M 4.5 15 L 6 15 L 6 16.5 L 4.5 16.5 Z M 4.5 15 "/>
</g>
<mask id="mask7">
  <g filter="url(#alpha)">
<rect x="0" y="0" width="24" height="24" style="fill:rgb(0%,0%,0%);fill-opacity:0.380531;stroke:none;"/>
  </g>
</mask>
<clipPath id="clip8">
  <rect x="0" y="0" width="24" height="24"/>
</clipPath>
<g id="surface26" clip-path="url(#clip8)">
<path style=" stroke:none;fill-rule:nonzero;fill:rgb(61.56863%,22.745098%,60.784316%);fill-opacity:1;" d="M 4.5 18 L 6 18 L 6 19.5 L 4.5 19.5 Z M 4.5 18 "/>
</g>
<mask id="mask8">
  <g filter="url(#alpha)">
<rect x="0" y="0" width="24" height="24" style="fill:rgb(0%,0%,0%);fill-opacity:0.380531;stroke:none;"/>
  </g>
</mask>
<clipPath id="clip9">
  <rect x="0" y="0" width="24" height="24"/>
</clipPath>
<g id="surface29" clip-path="url(#clip9)">
<path style=" stroke:none;fill-rule:nonzero;fill:rgb(90.196079%,0.784314%,70.588237%);fill-opacity:0.331551;" d="M 4.5 21 L 6 21 L 6 22.5 L 4.5 22.5 Z M 4.5 21 "/>
</g>
<mask id="mask9">
  <g filter="url(#alpha)">
<rect x="0" y="0" width="24" height="24" style="fill:rgb(0%,0%,0%);fill-opacity:0.367257;stroke:none;"/>
  </g>
</mask>
<clipPath id="clip10">
  <rect x="0" y="0" width="24" height="24"/>
</clipPath>
<g id="surface32" clip-path="url(#clip10)">
<path style=" stroke:none;fill-rule:evenodd;fill:rgb(90.196079%,0.784314%,70.588237%);fill-opacity:0.508571;" d="M 7.5 3 L 16.5 3 L 16.5 4.5 L 7.5 4.5 Z M 7.5 3 "/>
</g>
<mask id="mask10">
  <g filter="url(#alpha)">
<rect x="0" y="0" width="24" height="24" style="fill:rgb(0%,0%,0%);fill-opacity:0.367257;stroke:none;"/>
  </g>
</mask>
<clipPath id="clip11">
  <rect x="0" y="0" width="24" height="24"/>
</clipPath>
<g id="surface35" clip-path="url(#clip11)">
<path style=" stroke:none;fill-rule:evenodd;fill:rgb(90.196079%,0.784314%,70.588237%);fill-opacity:0.508571;" d="M 7.5 6 L 16.5 6 L 16.5 7.5 L 7.5 7.5 Z M 7.5 6 "/>
</g>
<mask id="mask11">
  <g filter="url(#alpha)">
<rect x="0" y="0" width="24" height="24" style="fill:rgb(0%,0%,0%);fill-opacity:0.367257;stroke:none;"/>
  </g>
</mask>
<clipPath id="clip12">
  <rect x="0" y="0" width="24" height="24"/>
</clipPath>
<g id="surface38" clip-path="url(#clip12)">
<path style=" stroke:none;fill-rule:evenodd;fill:rgb(90.196079%,0.784314%,70.588237%);fill-opacity:0.508571;" d="M 7.5 9 L 16.5 9 L 16.5 10.5 L 7.5 10.5 Z M 7.5 9 "/>
</g>
<mask id="mask12">
  <g filter="url(#alpha)">
<rect x="0" y="0" width="24" height="24" style="fill:rgb(0%,0%,0%);fill-opacity:0.367257;stroke:none;"/>
  </g>
</mask>
<clipPath id="clip13">
  <rect x="0" y="0" width="24" height="24"/>
</clipPath>
<g id="surface41" clip-path="url(#clip13)">
<path style=" stroke:none;fill-rule:evenodd;fill:rgb(90.196079%,0.784314%,70.588237%);fill-opacity:0.508571;" d="M 7.5 12 L 16.5 12 L 16.5 13.5 L 7.5 13.5 Z M 7.5 12 "/>
</g>
<mask id="mask13">
  <g filter="url(#alpha)">
<rect x="0" y="0" width="24" height="24" style="fill:rgb(0%,0%,0%);fill-opacity:0.380531;stroke:none;"/>
  </g>
</mask>
<clipPath id="clip14">
  <rect x="0" y="0" width="24" height="24"/>
</clipPath>
<g id="surface44" clip-path="url(#clip14)">
<path style=" stroke:none;fill-rule:nonzero;fill:rgb(61.56863%,22.745098%,60.784316%);fill-opacity:1;" d="M 18 3 L 19.5 3 L 19.5 4.5 L 18 4.5 Z M 18 3 "/>
</g>
<mask id="mask14">
  <g filter="url(#alpha)">
<rect x="0" y="0" width="24" height="24" style="fill:rgb(0%,0%,0%);fill-opacity:0.380531;stroke:none;"/>
  </g>
</mask>
<clipPath id="clip15">
  <rect x="0" y="0" width="24" height="24"/>
</clipPath>
<g id="surface47" clip-path="url(#clip15)">
<path style=" stroke:none;fill-rule:nonzero;fill:rgb(61.56863%,22.745098%,60.784316%);fill-opacity:1;" d="M 18 6 L 19.5 6 L 19.5 7.5 L 18 7.5 Z M 18 6 "/>
</g>
<mask id="mask15">
  <g filter="url(#alpha)">
<rect x="0" y="0" width="24" height="24" style="fill:rgb(0%,0%,0%);fill-opacity:0.380531;stroke:none;"/>
  </g>
</mask>
<clipPath id="clip16">
  <rect x="0" y="0" width="24" height="24"/>
</clipPath>
<g id="surface50" clip-path="url(#clip16)">
<path style=" stroke:none;fill-rule:nonzero;fill:rgb(61.56863%,22.745098%,60.784316%);fill-opacity:1;" d="M 18 9 L 19.5 9 L 19.5 10.5 L 18 10.5 Z M 18 9 "/>
</g>
<mask id="mask16">
  <g filter="url(#alpha)">
<rect x="0" y="0" width="24" height="24" style="fill:rgb(0%,0%,0%);fill-opacity:0.380531;stroke:none;"/>
  </g>
</mask>
<clipPath id="clip17">
  <rect x="0" y="0" width="24" height="24"/>
</clipPath>
<g id="surface53" clip-path="url(#clip17)">
<path style=" stroke:none;fill-rule:nonzero;fill:rgb(61.56863%,22.745098%,60.784316%);fill-opacity:1;" d="M 18 12 L 19.5 12 L 19.5 13.5 L 18 13.5 Z M 18 12 "/>
</g>
<mask id="mask17">
  <g filter="url(#alpha)">
<rect x="0" y="0" width="24" height="24" style="fill:rgb(0%,0%,0%);fill-opacity:0.380531;stroke:none;"/>
  </g>
</mask>
<clipPath id="clip18">
  <rect x="0" y="0" width="24" height="24"/>
</clipPath>
<g id="surface56" clip-path="url(#clip18)">
<path style=" stroke:none;fill-rule:nonzero;fill:rgb(61.56863%,22.745098%,60.784316%);fill-opacity:1;" d="M 18 15 L 19.5 15 L 19.5 16.5 L 18 16.5 Z M 18 15 "/>
</g>
<mask id="mask18">
  <g filter="url(#alpha)">
<rect x="0" y="0" width="24" height="24" style="fill:rgb(0%,0%,0%);fill-opacity:0.380531;stroke:none;"/>
  </g>
</mask>
<clipPath id="clip19">
  <rect x="0" y="0" width="24" height="24"/>
</clipPath>
<g id="surface59" clip-path="url(#clip19)">
<path style=" stroke:none;fill-rule:nonzero;fill:rgb(61.56863%,22.745098%,60.784316%);fill-opacity:1;" d="M 18 18 L 19.5 18 L 19.5 19.5 L 18 19.5 Z M 18 18 "/>
</g>
<mask id="mask19">
  <g filter="url(#alpha)">
<rect x="0" y="0" width="24" height="24" style="fill:rgb(0%,0%,0%);fill-opacity:0.380531;stroke:none;"/>
  </g>
</mask>
<clipPath id="clip20">
  <rect x="0" y="0" width="24" height="24"/>
</clipPath>
<g id="surface62" clip-path="url(#clip20)">
<path style=" stroke:none;fill-rule:nonzero;fill:rgb(90.196079%,0.784314%,70.588237%);fill-opacity:0.331551;" d="M 18 21 L 19.5 21 L 19.5 22.5 L 18 22.5 Z M 18 21 "/>
</g>
<mask id="mask20">
  <g filter="url(#alpha)">
<rect x="0" y="0" width="24" height="24" style="fill:rgb(0%,0%,0%);fill-opacity:0.93;stroke:none;"/>
  </g>
</mask>
<clipPath id="clip21">
  <rect x="0" y="0" width="24" height="24"/>
</clipPath>
<g id="surface65" clip-path="url(#clip21)">
<path style=" stroke:none;fill-rule:nonzero;fill:rgb(90.196079%,0.784314%,70.588237%);fill-opacity:1;" d="M 17.492188 3.390625 C 16.382812 3.40625 15.914062 3.839844 15.859375 4.367188 C 15.796875 4.957031 16.917969 5.382812 17.59375 5.171875 C 19.199219 4.667969 21.664062 5.8125 21.964844 6.804688 C 22.203125 7.574219 21.644531 8.171875 20.230469 9.117188 C 18.8125 10.0625 16.667969 10.96875 14.167969 11.558594 C 11.667969 12.148438 9.3125 12.300781 7.582031 12.097656 C 5.851562 11.894531 4.832031 11.511719 4.621094 10.738281 C 4.53125 10.417969 4.539062 10.011719 4.667969 9.582031 L 3.164062 9.671875 C 2.902344 10.171875 2.8125 10.664062 2.941406 11.128906 C 3.257812 12.292969 4.828125 13.007812 6.917969 13.257812 C 9.011719 13.503906 11.714844 13.464844 14.511719 12.804688 C 17.308594 12.144531 19.832031 10.9375 21.539062 9.796875 C 23.25 8.652344 23.875 7.535156 23.558594 6.375 C 23.238281 5.214844 22.039062 4.273438 19.941406 3.769531 C 18.828125 3.503906 17.945312 3.382812 17.492188 3.390625 Z M 17.492188 3.390625 "/>
</g>
</defs>
<g id="surface1">
<path style=" stroke:none;fill-rule:nonzero;fill:rgb(94.117647%,89.019608%,92.54902%);fill-opacity:1;" d="M 3 1.5 L 3 22.5 L 21 22.5 L 21 1.5 Z M 3 1.5 "/>
<path style=" stroke:none;fill-rule:nonzero;fill:rgb(95.294118%,71.764708%,85.09804%);fill-opacity:1;" d="M 4.628906 3 C 4.527344 3 4.445312 3.082031 4.445312 3.183594 L 4.472656 12 L 4.445312 20.816406 C 4.445312 20.917969 4.527344 21 4.628906 21 L 19.316406 21 C 19.417969 21 19.5 20.917969 19.5 20.816406 L 19.5 3.183594 C 19.5 3.082031 19.417969 3 19.316406 3 Z M 4.628906 3 "/>
<use xlink:href="#surface5" mask="url(#mask0)"/>
<use xlink:href="#surface8" mask="url(#mask1)"/>
<use xlink:href="#surface11" mask="url(#mask2)"/>
<use xlink:href="#surface14" mask="url(#mask3)"/>
<use xlink:href="#surface17" mask="url(#mask4)"/>
<use xlink:href="#surface20" mask="url(#mask5)"/>
<use xlink:href="#surface23" mask="url(#mask6)"/>
<use xlink:href="#surface26" mask="url(#mask7)"/>
<use xlink:href="#surface29" mask="url(#mask8)"/>
<use xlink:href="#surface32" mask="url(#mask9)"/>
<use xlink:href="#surface35" mask="url(#mask10)"/>
<use xlink:href="#surface38" mask="url(#mask11)"/>
<use xlink:href="#surface41" mask="url(#mask12)"/>
<use xlink:href="#surface44" mask="url(#mask13)"/>
<use xlink:href="#surface47" mask="url(#mask14)"/>
<use xlink:href="#surface50" mask="url(#mask15)"/>
<use xlink:href="#surface53" mask="url(#mask16)"/>
<use xlink:href="#surface56" mask="url(#mask17)"/>
<use xlink:href="#surface59" mask="url(#mask18)"/>
<use xlink:href="#surface62" mask="url(#mask19)"/>
<path style=" stroke:none;fill-rule:nonzero;fill:rgb(90.196079%,0.784314%,70.588237%);fill-opacity:1;" d="M 19.378906 4.347656 C 19.328125 4.445312 19.273438 4.539062 19.203125 4.628906 C 19.214844 4.628906 19.230469 4.632812 19.246094 4.632812 C 20.976562 4.839844 21.921875 5.832031 22.132812 6.609375 C 22.347656 7.386719 21.644531 8.171875 20.230469 9.117188 C 18.8125 10.0625 16.667969 10.96875 14.167969 11.558594 C 11.667969 12.148438 9.3125 12.300781 7.582031 12.097656 C 5.851562 11.894531 4.832031 11.511719 4.621094 10.738281 C 4.40625 9.960938 4.714844 8.667969 6.128906 7.71875 C 7.542969 6.773438 9.949219 5.625 12.449219 5.035156 C 13.089844 5.027344 12.917969 4.699219 12.417969 4.8125 C 9.621094 5.472656 7.050781 6.363281 5.339844 7.507812 C 3.628906 8.648438 2.621094 9.96875 2.941406 11.128906 C 3.257812 12.292969 4.828125 13.007812 6.917969 13.257812 C 9.011719 13.503906 11.714844 13.464844 14.511719 12.804688 C 17.308594 12.144531 19.703125 10.984375 21.410156 9.839844 C 23.121094 8.695312 23.265625 7.425781 22.945312 6.265625 C 22.632812 5.121094 21.441406 4.390625 19.378906 4.347656 Z M 19.378906 4.347656 "/>
<path style=" stroke:none;fill-rule:nonzero;fill:rgb(61.56863%,22.745098%,60.784316%);fill-opacity:1;" d="M 13.003906 4.570312 C 13.03125 4.675781 12.734375 4.757812 12.683594 4.859375 C 12.632812 4.960938 12.777344 5.191406 12.667969 5.25 C 12.558594 5.308594 12.386719 5.097656 12.257812 5.09375 C 12.132812 5.089844 11.914062 5.285156 11.820312 5.21875 C 11.722656 5.148438 11.914062 4.933594 11.886719 4.832031 C 11.859375 4.726562 11.578125 4.621094 11.628906 4.519531 C 11.679688 4.414062 11.972656 4.496094 12.082031 4.433594 C 12.191406 4.375 12.234375 4.113281 12.359375 4.117188 C 12.488281 4.121094 12.476562 4.386719 12.574219 4.453125 C 12.667969 4.523438 12.972656 4.464844 13.003906 4.570312 Z M 13.003906 4.570312 "/>
<path style=" stroke:none;fill-rule:nonzero;fill:rgb(61.56863%,22.745098%,60.784316%);fill-opacity:1;" d="M 20.300781 18.617188 C 20.019531 18.605469 20.019531 17.925781 19.804688 17.75 C 19.585938 17.570312 18.921875 17.710938 18.847656 17.441406 C 18.777344 17.171875 19.421875 16.960938 19.523438 16.699219 C 19.625 16.4375 19.285156 15.847656 19.519531 15.695312 C 19.753906 15.542969 20.15625 16.09375 20.433594 16.109375 C 20.714844 16.125 21.167969 15.621094 21.386719 15.796875 C 21.605469 15.972656 21.207031 16.523438 21.277344 16.792969 C 21.351562 17.0625 21.96875 17.339844 21.871094 17.601562 C 21.769531 17.863281 21.121094 17.652344 20.886719 17.804688 C 20.652344 17.957031 20.582031 18.632812 20.300781 18.617188 Z M 20.300781 18.617188 "/>
<path style=" stroke:none;fill-rule:evenodd;fill:rgb(61.56863%,22.745098%,60.784316%);fill-opacity:1;" d="M 20.890625 23.089844 C 20.929688 23.199219 20.683594 23.621094 20.042969 23.851562 C 19.394531 24.082031 18.945312 23.945312 18.894531 23.804688 C 18.859375 23.71875 11.742188 4.132812 11.710938 4.042969 C 12.375 3.804688 13.039062 3.566406 13.707031 3.328125 C 13.738281 3.417969 20.855469 23 20.890625 23.089844 Z M 20.890625 23.089844 "/>
<path style=" stroke:none;fill-rule:nonzero;fill:rgb(90.196079%,0.784314%,70.588237%);fill-opacity:1;" d="M 15.210938 7.457031 C 15.1875 7.203125 14.355469 4.953125 14.222656 4.761719 L 12.625 5.335938 L 13.613281 8.035156 Z M 13.78125 7.972656 L 12.796875 5.277344 L 12.234375 5.476562 C 12.25 5.695312 13.066406 7.953125 13.21875 8.175781 Z M 13.78125 7.972656 "/>
<path style=" stroke:none;fill-rule:nonzero;fill:rgb(60.000002%,60.000002%,60.000002%);fill-opacity:1;" d="M 12.582031 5.992188 C 12.578125 5.980469 12.570312 5.972656 12.5625 5.96875 C 12.554688 5.964844 12.546875 5.964844 12.535156 5.96875 C 12.527344 5.972656 12.519531 5.976562 12.515625 5.984375 C 12.511719 5.992188 12.511719 6.003906 12.515625 6.015625 C 12.523438 6.027344 12.527344 6.035156 12.535156 6.039062 C 12.542969 6.042969 12.550781 6.042969 12.5625 6.039062 C 12.570312 6.035156 12.578125 6.03125 12.582031 6.019531 C 12.585938 6.011719 12.585938 6.003906 12.582031 5.992188 M 12.597656 5.984375 C 12.605469 6.007812 12.609375 6.027344 12.605469 6.042969 C 12.601562 6.0625 12.589844 6.070312 12.574219 6.078125 C 12.558594 6.082031 12.546875 6.078125 12.53125 6.070312 C 12.519531 6.058594 12.507812 6.042969 12.5 6.019531 C 12.492188 5.996094 12.488281 5.976562 12.492188 5.960938 C 12.496094 5.945312 12.507812 5.9375 12.523438 5.929688 C 12.539062 5.925781 12.550781 5.925781 12.566406 5.9375 C 12.578125 5.945312 12.589844 5.964844 12.597656 5.984375 M 12.613281 6.175781 L 12.582031 6.242188 L 12.570312 6.203125 L 12.589844 6.160156 L 12.542969 6.136719 L 12.53125 6.101562 L 12.597656 6.132812 L 12.625 6.070312 L 12.640625 6.105469 L 12.621094 6.148438 L 12.664062 6.167969 L 12.675781 6.207031 L 12.613281 6.175781 M 12.679688 6.210938 L 12.691406 6.25 L 12.671875 6.296875 L 12.714844 6.316406 L 12.730469 6.355469 L 12.65625 6.320312 L 12.617188 6.335938 L 12.601562 6.296875 L 12.644531 6.285156 L 12.679688 6.210938 M 12.695312 6.53125 C 12.6875 6.523438 12.683594 6.511719 12.679688 6.503906 C 12.671875 6.496094 12.667969 6.484375 12.664062 6.476562 C 12.65625 6.449219 12.652344 6.429688 12.65625 6.414062 C 12.660156 6.398438 12.671875 6.386719 12.6875 6.378906 C 12.703125 6.375 12.714844 6.378906 12.730469 6.390625 C 12.742188 6.398438 12.753906 6.417969 12.765625 6.441406 C 12.765625 6.453125 12.769531 6.460938 12.773438 6.46875 C 12.773438 6.480469 12.773438 6.488281 12.777344 6.496094 L 12.757812 6.503906 C 12.757812 6.496094 12.753906 6.484375 12.753906 6.476562 C 12.753906 6.46875 12.75 6.460938 12.746094 6.453125 C 12.742188 6.4375 12.734375 6.429688 12.726562 6.421875 C 12.71875 6.414062 12.710938 6.414062 12.699219 6.417969 C 12.691406 6.421875 12.683594 6.429688 12.679688 6.4375 C 12.679688 6.449219 12.679688 6.460938 12.683594 6.472656 C 12.683594 6.476562 12.6875 6.480469 12.6875 6.484375 C 12.691406 6.488281 12.691406 6.488281 12.691406 6.492188 L 12.710938 6.484375 L 12.703125 6.464844 L 12.71875 6.457031 L 12.742188 6.515625 L 12.695312 6.53125 M 12.792969 6.53125 L 12.832031 6.628906 L 12.8125 6.636719 L 12.789062 6.574219 L 12.773438 6.582031 L 12.792969 6.640625 L 12.773438 6.644531 L 12.753906 6.585938 L 12.730469 6.59375 L 12.753906 6.660156 L 12.734375 6.667969 L 12.699219 6.566406 L 12.792969 6.53125 M 12.84375 6.664062 L 12.859375 6.707031 L 12.8125 6.78125 L 12.875 6.757812 L 12.890625 6.792969 L 12.792969 6.824219 L 12.78125 6.785156 L 12.824219 6.710938 L 12.761719 6.734375 L 12.746094 6.699219 L 12.84375 6.664062 M 12.925781 6.894531 L 12.941406 6.9375 L 12.894531 7.011719 L 12.960938 6.988281 L 12.972656 7.023438 L 12.878906 7.054688 L 12.863281 7.015625 L 12.910156 6.941406 L 12.84375 6.964844 L 12.832031 6.929688 L 12.925781 6.894531 M 13 7.09375 C 13.007812 7.109375 13.007812 7.121094 13.003906 7.128906 C 13.003906 7.140625 13 7.144531 12.992188 7.148438 C 12.984375 7.152344 12.976562 7.148438 12.96875 7.144531 C 12.960938 7.136719 12.953125 7.128906 12.949219 7.113281 C 12.945312 7.101562 12.941406 7.089844 12.945312 7.078125 C 12.945312 7.070312 12.949219 7.0625 12.957031 7.0625 C 12.96875 7.058594 12.976562 7.058594 12.980469 7.066406 C 12.988281 7.070312 12.996094 7.082031 13 7.09375 M 12.925781 7.078125 L 12.953125 7.15625 L 12.941406 7.160156 L 12.914062 7.082031 L 12.925781 7.078125 M 12.992188 7.097656 C 12.988281 7.09375 12.984375 7.089844 12.980469 7.089844 C 12.976562 7.085938 12.972656 7.085938 12.96875 7.085938 C 12.964844 7.089844 12.960938 7.09375 12.960938 7.097656 C 12.957031 7.101562 12.957031 7.105469 12.960938 7.109375 C 12.960938 7.113281 12.964844 7.117188 12.96875 7.121094 C 12.972656 7.121094 12.976562 7.121094 12.980469 7.121094 C 12.984375 7.121094 12.988281 7.117188 12.992188 7.113281 C 12.992188 7.109375 12.992188 7.105469 12.992188 7.097656 M 13.03125 7.324219 C 13.035156 7.335938 13.035156 7.34375 13.03125 7.347656 C 13.03125 7.355469 13.027344 7.359375 13.019531 7.363281 C 13.011719 7.367188 13 7.363281 12.992188 7.355469 C 12.984375 7.34375 12.976562 7.328125 12.96875 7.308594 C 12.964844 7.300781 12.960938 7.292969 12.960938 7.285156 C 12.957031 7.277344 12.957031 7.269531 12.957031 7.261719 L 12.976562 7.257812 C 12.976562 7.265625 12.976562 7.273438 12.976562 7.277344 C 12.980469 7.285156 12.980469 7.292969 12.984375 7.300781 C 12.988281 7.308594 12.992188 7.316406 12.996094 7.320312 C 13 7.324219 13.003906 7.328125 13.007812 7.324219 C 13.011719 7.324219 13.015625 7.320312 13.015625 7.3125 C 13.015625 7.308594 13.011719 7.300781 13.007812 7.289062 L 13.003906 7.273438 L 13.019531 7.269531 L 13.023438 7.285156 C 13.027344 7.292969 13.03125 7.300781 13.035156 7.304688 C 13.039062 7.308594 13.042969 7.308594 13.046875 7.308594 C 13.050781 7.304688 13.050781 7.304688 13.050781 7.296875 C 13.054688 7.292969 13.050781 7.285156 13.046875 7.277344 C 13.046875 7.273438 13.042969 7.265625 13.039062 7.261719 C 13.039062 7.253906 13.035156 7.25 13.03125 7.246094 L 13.046875 7.238281 C 13.050781 7.246094 13.054688 7.25 13.058594 7.257812 C 13.0625 7.265625 13.066406 7.273438 13.066406 7.28125 C 13.074219 7.296875 13.078125 7.3125 13.078125 7.324219 C 13.074219 7.332031 13.070312 7.339844 13.0625 7.34375 C 13.058594 7.34375 13.050781 7.34375 13.046875 7.339844 C 13.042969 7.339844 13.039062 7.332031 13.03125 7.324219 "/>
<path style=" stroke:none;fill-rule:evenodd;fill:rgb(61.56863%,22.745098%,60.784316%);fill-opacity:1;" d="M 13.683594 3.261719 C 13.648438 3.160156 13.195312 3.019531 12.554688 3.25 C 11.910156 3.480469 11.644531 3.851562 11.6875 3.976562 C 11.71875 4.058594 11.679688 3.964844 11.710938 4.046875 C 12.375 3.808594 13.042969 3.570312 13.707031 3.332031 C 13.675781 3.246094 13.714844 3.34375 13.683594 3.261719 "/>
<use xlink:href="#surface65" mask="url(#mask20)"/>
<path style=" stroke:none;fill-rule:nonzero;fill:rgb(61.56863%,22.745098%,60.784316%);fill-opacity:1;" d="M 10.039062 9.46875 C 9.875 9.644531 9.398438 9.332031 9.15625 9.394531 C 8.917969 9.457031 8.65625 9.953125 8.425781 9.875 C 8.199219 9.800781 8.398438 9.28125 8.269531 9.097656 C 8.140625 8.910156 7.546875 8.863281 7.566406 8.636719 C 7.585938 8.414062 8.1875 8.40625 8.351562 8.230469 C 8.511719 8.054688 8.40625 7.527344 8.644531 7.464844 C 8.886719 7.402344 9.058594 7.917969 9.285156 7.992188 C 9.515625 8.070312 10.042969 7.792969 10.171875 7.976562 C 10.300781 8.164062 9.804688 8.488281 9.785156 8.710938 C 9.765625 8.9375 10.199219 9.292969 10.039062 9.46875 Z M 10.039062 9.46875 "/>
<path style=" stroke:none;fill-rule:nonzero;fill:rgb(61.56863%,22.745098%,60.784316%);fill-opacity:1;" d="M 6.363281 5.65625 C 6.273438 5.738281 6.054688 5.5625 5.933594 5.582031 C 5.808594 5.601562 5.652344 5.839844 5.542969 5.792969 C 5.433594 5.742188 5.5625 5.492188 5.507812 5.394531 C 5.453125 5.296875 5.160156 5.246094 5.183594 5.136719 C 5.207031 5.023438 5.503906 5.046875 5.59375 4.964844 C 5.683594 4.882812 5.65625 4.617188 5.78125 4.59375 C 5.902344 4.574219 5.960938 4.839844 6.070312 4.886719 C 6.179688 4.933594 6.457031 4.820312 6.511719 4.917969 C 6.5625 5.015625 6.300781 5.15625 6.277344 5.269531 C 6.257812 5.378906 6.453125 5.574219 6.363281 5.65625 Z M 6.363281 5.65625 "/>
<path style=" stroke:none;fill-rule:nonzero;fill:rgb(61.56863%,22.745098%,60.784316%);fill-opacity:1;" d="M 7.082031 13.714844 C 6.910156 13.535156 7.382812 13.117188 7.363281 12.878906 C 7.34375 12.640625 6.8125 12.328125 6.953125 12.117188 C 7.09375 11.910156 7.660156 12.164062 7.90625 12.066406 C 8.15625 11.964844 8.34375 11.398438 8.601562 11.445312 C 8.859375 11.492188 8.738281 12.070312 8.914062 12.246094 C 9.085938 12.421875 9.734375 12.382812 9.753906 12.621094 C 9.773438 12.863281 9.128906 12.960938 8.988281 13.171875 C 8.847656 13.382812 9.0625 13.925781 8.8125 14.023438 C 8.566406 14.125 8.289062 13.609375 8.03125 13.5625 C 7.769531 13.515625 7.253906 13.890625 7.082031 13.714844 Z M 7.082031 13.714844 "/>
</g>
</svg>
