<?xml version="1.0" encoding="UTF-8"?>
<svg xmlns="http://www.w3.org/2000/svg" xmlns:xlink="http://www.w3.org/1999/xlink" width="24px" height="24px" viewBox="0 0 24 24" version="1.1">
<defs>
<filter id="alpha" filterUnits="objectBoundingBox" x="0%" y="0%" width="100%" height="100%">
  <feColorMatrix type="matrix" in="SourceGraphic" values="0 0 0 0 1 0 0 0 0 1 0 0 0 0 1 0 0 0 1 0"/>
</filter>
<mask id="mask0">
  <g filter="url(#alpha)">
<rect x="0" y="0" width="24" height="24" style="fill:rgb(0%,0%,0%);fill-opacity:0.98;stroke:none;"/>
  </g>
</mask>
<clipPath id="clip1">
  <rect x="0" y="0" width="24" height="24"/>
</clipPath>
<g id="surface5" clip-path="url(#clip1)">
<path style="fill-rule:nonzero;fill:rgb(90.196079%,0.784314%,70.588237%);fill-opacity:1;stroke-width:0.69943;stroke-linecap:round;stroke-linejoin:round;stroke:rgb(61.56863%,22.745098%,60.784316%);stroke-opacity:1;stroke-miterlimit:4;" d="M 30.395589 286.218072 L 24.340861 286.218072 L 24.340861 280.163632 L 21.532343 280.163632 L 21.532343 286.218072 L 15.477615 286.218072 L 15.477615 289.023077 L 21.532343 289.023077 L 21.532343 295.077517 L 24.340861 295.077517 L 24.340861 289.023077 L 30.395589 289.023077 Z M 30.395589 286.218072 " transform="matrix(0.53548,0,0,0.536151,-8.100458,-143.885779)"/>
</g>
<mask id="mask1">
  <g filter="url(#alpha)">
<rect x="0" y="0" width="24" height="24" style="fill:rgb(0%,0%,0%);fill-opacity:0.98;stroke:none;"/>
  </g>
</mask>
<clipPath id="clip2">
  <rect x="0" y="0" width="24" height="24"/>
</clipPath>
<g id="surface8" clip-path="url(#clip2)">
<path style="fill-rule:nonzero;fill:rgb(90.196079%,0.784314%,70.588237%);fill-opacity:1;stroke-width:0.69943;stroke-linecap:round;stroke-linejoin:round;stroke:rgb(61.56863%,22.745098%,60.784316%);stroke-opacity:1;stroke-miterlimit:4;" d="M 30.227475 286.215567 L 24.172747 286.215567 L 24.172747 280.161127 L 21.364229 280.161127 L 21.364229 286.215567 L 15.309501 286.215567 L 15.309501 289.027858 L 21.364229 289.027858 L 21.364229 295.082298 L 24.172747 295.082298 L 24.172747 289.027858 L 30.227475 289.027858 Z M 30.227475 286.215567 " transform="matrix(0.53548,0,0,0.536151,-8.010436,-134.396155)"/>
</g>
<mask id="mask2">
  <g filter="url(#alpha)">
<rect x="0" y="0" width="24" height="24" style="fill:rgb(0%,0%,0%);fill-opacity:0.98;stroke:none;"/>
  </g>
</mask>
<clipPath id="clip3">
  <rect x="0" y="0" width="24" height="24"/>
</clipPath>
<g id="surface11" clip-path="url(#clip3)">
<path style="fill:none;stroke-width:0.0648175;stroke-linecap:round;stroke-linejoin:round;stroke:rgb(61.56863%,22.745098%,60.784316%);stroke-opacity:1;stroke-miterlimit:4;" d="M 1.625341 0.0323839 L 4.2055 0.0323839 L 4.2055 4.200261 L 1.625341 4.200261 Z M 1.625341 0.0323839 " transform="matrix(5.662199,0,0,5.669291,0.000120588,0)"/>
</g>
</defs>
<g id="surface1">
<path style=" stroke:none;fill-rule:nonzero;fill:rgb(95.294118%,71.764708%,85.09804%);fill-opacity:1;" d="M 16.511719 6 L 16.511719 12 L 24 12 L 24 6 Z M 18.007812 7.5 L 22.503906 7.5 L 22.503906 10.5 L 18.007812 10.5 Z M 18.007812 7.5 "/>
<path style=" stroke:none;fill-rule:nonzero;fill:rgb(94.117647%,89.019608%,92.54902%);fill-opacity:1;" d="M 18.007812 7.5 L 22.503906 7.5 L 22.503906 10.5 L 18.007812 10.5 Z M 18.007812 7.5 "/>
<path style=" stroke:none;fill-rule:nonzero;fill:rgb(94.117647%,89.019608%,92.54902%);fill-opacity:1;" d="M 18.007812 1.5 L 22.503906 1.5 L 22.503906 4.5 L 18.007812 4.5 Z M 18.007812 1.5 "/>
<path style=" stroke:none;fill-rule:nonzero;fill:rgb(95.294118%,71.764708%,85.09804%);fill-opacity:1;" d="M 16.511719 0 L 16.511719 6 L 24 6 L 24 0 Z M 18.007812 1.5 L 22.503906 1.5 L 22.503906 4.5 L 18.007812 4.5 Z M 18.007812 1.5 "/>
<path style=" stroke:none;fill-rule:nonzero;fill:rgb(94.117647%,89.019608%,92.54902%);fill-opacity:1;" d="M 18.007812 13.5 L 22.503906 13.5 L 22.503906 16.5 L 18.007812 16.5 Z M 18.007812 13.5 "/>
<path style=" stroke:none;fill-rule:nonzero;fill:rgb(95.294118%,71.764708%,85.09804%);fill-opacity:1;" d="M 16.511719 12.007812 L 16.511719 18.007812 L 24 18.007812 L 24 12.007812 Z M 18.007812 13.507812 L 22.503906 13.507812 L 22.503906 16.507812 L 18.007812 16.507812 Z M 18.007812 13.507812 "/>
<path style=" stroke:none;fill-rule:nonzero;fill:rgb(94.117647%,89.019608%,92.54902%);fill-opacity:1;" d="M 18.007812 19.492188 L 22.503906 19.492188 L 22.503906 22.492188 L 18.007812 22.492188 Z M 18.007812 19.492188 "/>
<path style=" stroke:none;fill-rule:nonzero;fill:rgb(95.294118%,71.764708%,85.09804%);fill-opacity:1;" d="M 16.511719 18 L 16.511719 24 L 24 24 L 24 18 Z M 18.007812 19.5 L 22.503906 19.5 L 22.503906 22.5 L 18.007812 22.5 Z M 18.007812 19.5 "/>
<path style=" stroke:none;fill-rule:nonzero;fill:rgb(61.56863%,22.745098%,60.784316%);fill-opacity:1;" d="M 9.019531 1.5 L 3.027344 1.5 L 3.027344 3 L 9.019531 3 Z M 9.019531 1.5 "/>
<use xlink:href="#surface5" mask="url(#mask0)"/>
<path style=" stroke:none;fill-rule:nonzero;fill:rgb(61.56863%,22.745098%,60.784316%);fill-opacity:1;" d="M 4.527344 6 L 4.527344 3 L 3.027344 3 L 3.027344 6 Z M 4.527344 6 "/>
<path style=" stroke:none;fill-rule:nonzero;fill:rgb(95.294118%,71.764708%,85.09804%);fill-opacity:1;" d="M 9.019531 6 L 9.019531 12 L 16.511719 12 L 16.511719 6 Z M 10.519531 7.5 L 15.011719 7.5 L 15.011719 10.5 L 10.519531 10.5 Z M 10.519531 7.5 "/>
<path style=" stroke:none;fill-rule:nonzero;fill:rgb(94.117647%,89.019608%,92.54902%);fill-opacity:1;" d="M 10.519531 7.496094 L 15.011719 7.496094 L 15.011719 10.5 L 10.519531 10.5 Z M 10.519531 7.496094 "/>
<path style=" stroke:none;fill-rule:nonzero;fill:rgb(94.117647%,89.019608%,92.54902%);fill-opacity:1;" d="M 10.519531 1.5 L 15.011719 1.5 L 15.011719 4.5 L 10.519531 4.5 Z M 10.519531 1.5 "/>
<path style=" stroke:none;fill-rule:nonzero;fill:rgb(95.294118%,71.764708%,85.09804%);fill-opacity:1;" d="M 9.019531 0 L 9.019531 6 L 16.511719 6 L 16.511719 0 Z M 10.519531 1.5 L 15.011719 1.5 L 15.011719 4.5 L 10.519531 4.5 Z M 10.519531 1.5 "/>
<path style=" stroke:none;fill-rule:nonzero;fill:rgb(94.117647%,89.019608%,92.54902%);fill-opacity:1;" d="M 10.519531 13.5 L 15.011719 13.5 L 15.011719 16.5 L 10.519531 16.5 Z M 10.519531 13.5 "/>
<path style=" stroke:none;fill-rule:nonzero;fill:rgb(95.294118%,71.764708%,85.09804%);fill-opacity:1;" d="M 9.019531 12.007812 L 9.019531 18.007812 L 16.511719 18.007812 L 16.511719 12.007812 Z M 10.519531 13.507812 L 15.011719 13.507812 L 15.011719 16.507812 L 10.519531 16.507812 Z M 10.519531 13.507812 "/>
<path style=" stroke:none;fill-rule:nonzero;fill:rgb(94.117647%,89.019608%,92.54902%);fill-opacity:1;" d="M 10.519531 19.492188 L 15.011719 19.492188 L 15.011719 22.492188 L 10.519531 22.492188 Z M 10.519531 19.492188 "/>
<path style=" stroke:none;fill-rule:nonzero;fill:rgb(95.294118%,71.764708%,85.09804%);fill-opacity:1;" d="M 9.019531 18 L 9.019531 24 L 16.511719 24 L 16.511719 18 Z M 10.519531 19.5 L 15.011719 19.5 L 15.011719 22.5 L 10.519531 22.5 Z M 10.519531 19.5 "/>
<use xlink:href="#surface8" mask="url(#mask1)"/>
<path style=" stroke:none;fill-rule:nonzero;fill:rgb(61.56863%,22.745098%,60.784316%);fill-opacity:1;" d="M 12.015625 3 L 13.515625 3 L 13.515625 4.5 L 12.015625 4.5 Z M 12.015625 3 "/>
<path style=" stroke:none;fill-rule:nonzero;fill:rgb(90.196079%,0.784314%,70.588237%);fill-opacity:1;" d="M 12.015625 9 L 13.515625 9 L 13.515625 10.5 L 12.015625 10.5 Z M 12.015625 9 "/>
<path style=" stroke:none;fill-rule:nonzero;fill:rgb(90.196079%,0.784314%,70.588237%);fill-opacity:1;" d="M 19.507812 9 L 21.003906 9 L 21.003906 10.5 L 19.507812 10.5 Z M 19.507812 9 "/>
<path style=" stroke:none;fill-rule:nonzero;fill:rgb(61.56863%,22.745098%,60.784316%);fill-opacity:1;" d="M 12.015625 15 L 13.515625 15 L 13.515625 16.5 L 12.015625 16.5 Z M 12.015625 15 "/>
<path style=" stroke:none;fill-rule:nonzero;fill:rgb(90.196079%,0.784314%,70.588237%);fill-opacity:1;" d="M 12.015625 21 L 13.515625 21 L 13.515625 22.5 L 12.015625 22.5 Z M 12.015625 21 "/>
<path style=" stroke:none;fill-rule:nonzero;fill:rgb(90.196079%,0.784314%,70.588237%);fill-opacity:1;" d="M 19.507812 21 L 21.003906 21 L 21.003906 22.5 L 19.507812 22.5 Z M 19.507812 21 "/>
<use xlink:href="#surface11" mask="url(#mask2)"/>
</g>
</svg>
