<?xml version="1.0" encoding="UTF-8"?>
<svg xmlns="http://www.w3.org/2000/svg" xmlns:xlink="http://www.w3.org/1999/xlink" width="24px" height="24px" viewBox="0 0 24 24" version="1.1">
<defs>
<filter id="alpha" filterUnits="objectBoundingBox" x="0%" y="0%" width="100%" height="100%">
  <feColorMatrix type="matrix" in="SourceGraphic" values="0 0 0 0 1 0 0 0 0 1 0 0 0 0 1 0 0 0 1 0"/>
</filter>
<mask id="mask0">
  <g filter="url(#alpha)">
<rect x="0" y="0" width="24" height="24" style="fill:rgb(0%,0%,0%);fill-opacity:0.6;stroke:none;"/>
  </g>
</mask>
<clipPath id="clip1">
  <rect x="0" y="0" width="24" height="24"/>
</clipPath>
<g id="surface5" clip-path="url(#clip1)">
<path style="fill:none;stroke-width:4.612318;stroke-linecap:round;stroke-linejoin:round;stroke:rgb(61.56863%,22.745098%,60.784316%);stroke-opacity:1;stroke-miterlimit:4;" d="M 124.979329 244.870907 L 152.235897 244.870907 C 152.991937 244.870907 153.617626 245.601373 153.617626 246.508922 L 153.617626 264.504956 C 153.617626 265.401437 152.991937 266.131903 152.222862 266.131903 L 124.979329 266.131903 C 124.210253 266.131903 123.584564 265.401437 123.584564 264.504956 L 123.584564 246.508922 C 123.584564 245.601373 124.210253 244.870907 124.979329 244.870907 Z M 124.979329 244.870907 " transform="matrix(0.29967,0,0,0.352942,-23.534555,-71.429222)"/>
</g>
<mask id="mask1">
  <g filter="url(#alpha)">
<rect x="0" y="0" width="24" height="24" style="fill:rgb(0%,0%,0%);fill-opacity:0.6;stroke:none;"/>
  </g>
</mask>
<clipPath id="clip2">
  <rect x="0" y="0" width="24" height="24"/>
</clipPath>
<g id="surface8" clip-path="url(#clip2)">
<path style="fill:none;stroke-width:4.612318;stroke-linecap:round;stroke-linejoin:round;stroke:rgb(61.56863%,22.745098%,60.784316%);stroke-opacity:1;stroke-miterlimit:4;" d="M 124.979326 244.870892 L 152.235893 244.870892 C 152.991934 244.870892 153.617623 245.601358 153.617623 246.508907 L 153.617623 264.50494 C 153.617623 265.401422 152.991934 266.131888 152.222858 266.131888 L 124.979326 266.131888 C 124.21025 266.131888 123.584561 265.401422 123.584561 264.50494 L 123.584561 246.508907 C 123.584561 245.601358 124.21025 244.870892 124.979326 244.870892 Z M 124.979326 244.870892 " transform="matrix(0.29967,0,0,0.352942,-35.534554,-80.429216)"/>
</g>
<mask id="mask2">
  <g filter="url(#alpha)">
<rect x="0" y="0" width="24" height="24" style="fill:rgb(0%,0%,0%);fill-opacity:0.6;stroke:none;"/>
  </g>
</mask>
<clipPath id="clip3">
  <rect x="0" y="0" width="24" height="24"/>
</clipPath>
<g id="surface11" clip-path="url(#clip3)">
<path style="fill:none;stroke-width:4.612318;stroke-linecap:round;stroke-linejoin:round;stroke:rgb(61.56863%,22.745098%,60.784316%);stroke-opacity:1;stroke-miterlimit:4;" d="M 124.979329 244.870968 L 152.235897 244.870968 C 152.991937 244.870968 153.617626 245.601434 153.617626 246.508984 L 153.617626 264.505017 C 153.617626 265.401498 152.991937 266.131965 152.222862 266.131965 L 124.979329 266.131965 C 124.210253 266.131965 123.584564 265.401498 123.584564 264.505017 L 123.584564 246.508984 C 123.584564 245.601434 124.210253 244.870968 124.979329 244.870968 Z M 124.979329 244.870968 " transform="matrix(0.29967,0,0,0.352942,-23.534555,-84.929243)"/>
</g>
</defs>
<g id="surface1">
<path style=" stroke:none;fill-rule:nonzero;fill:rgb(90.196079%,0.784314%,70.588237%);fill-opacity:1;" d="M 6 6 L 6 1.5 L 13.5 1.5 L 13.5 3 L 7.5 3 L 7.5 6 Z M 6 6 "/>
<path style=" stroke:none;fill-rule:nonzero;fill:rgb(90.196079%,0.784314%,70.588237%);fill-opacity:1;" d="M 6 13.5 L 6 19.5 L 22.5 19.5 L 22.5 18 L 7.5 18 L 7.5 13.5 Z M 6 13.5 "/>
<use xlink:href="#surface5" mask="url(#mask0)"/>
<path style=" stroke:none;fill-rule:nonzero;fill:rgb(94.117647%,89.019608%,92.54902%);fill-opacity:1;" d="M 13.914062 14.996094 L 22.085938 14.996094 C 22.316406 14.996094 22.5 15.253906 22.5 15.574219 L 22.5 21.925781 L 13.5 21.925781 L 13.5 15.574219 C 13.5 15.253906 13.683594 14.996094 13.914062 14.996094 Z M 13.914062 14.996094 "/>
<path style=" stroke:none;fill-rule:nonzero;fill:rgb(95.294118%,71.764708%,85.09804%);fill-opacity:1;" d="M 13.914062 14.996094 C 13.683594 14.996094 13.5 15.253906 13.5 15.570312 L 13.5 21.925781 C 13.5 22.246094 13.683594 22.5 13.910156 22.5 L 22.089844 22.5 C 22.316406 22.5 22.5 22.246094 22.5 21.925781 L 22.5 15.570312 C 22.5 15.253906 22.316406 14.996094 22.089844 14.996094 Z M 14.191406 15.859375 L 21.808594 15.859375 C 22.023438 15.859375 22.199219 16.097656 22.199219 16.398438 L 22.199219 21.605469 C 22.199219 21.90625 22.023438 22.148438 21.808594 22.148438 L 14.191406 22.148438 C 13.976562 22.148438 13.800781 21.90625 13.800781 21.605469 L 13.800781 16.398438 C 13.800781 16.097656 13.976562 15.859375 14.191406 15.859375 Z M 14.191406 15.859375 "/>
<path style=" stroke:none;fill-rule:nonzero;fill:rgb(95.294118%,71.764708%,85.09804%);fill-opacity:1;" d="M 13.5 19.5 L 22.5 19.5 L 22.5 22.5 L 13.5 22.5 Z M 13.5 19.5 "/>
<use xlink:href="#surface8" mask="url(#mask1)"/>
<path style=" stroke:none;fill-rule:nonzero;fill:rgb(94.117647%,89.019608%,92.54902%);fill-opacity:1;" d="M 1.914062 5.996094 L 10.085938 5.996094 C 10.316406 5.996094 10.5 6.253906 10.5 6.574219 L 10.5 12.925781 L 1.5 12.925781 L 1.5 6.574219 C 1.5 6.253906 1.683594 5.996094 1.914062 5.996094 Z M 1.914062 5.996094 "/>
<path style=" stroke:none;fill-rule:nonzero;fill:rgb(95.294118%,71.764708%,85.09804%);fill-opacity:1;" d="M 1.914062 5.996094 C 1.683594 5.996094 1.5 6.253906 1.5 6.570312 L 1.5 12.925781 C 1.5 13.246094 1.683594 13.5 1.910156 13.5 L 10.089844 13.5 C 10.316406 13.5 10.5 13.246094 10.5 12.925781 L 10.5 6.570312 C 10.5 6.253906 10.316406 5.996094 10.089844 5.996094 Z M 2.191406 6.859375 L 9.808594 6.859375 C 10.023438 6.859375 10.199219 7.097656 10.199219 7.398438 L 10.199219 12.605469 C 10.199219 12.90625 10.023438 13.148438 9.808594 13.148438 L 2.191406 13.148438 C 1.976562 13.148438 1.800781 12.90625 1.800781 12.605469 L 1.800781 7.398438 C 1.800781 7.097656 1.976562 6.859375 2.191406 6.859375 Z M 2.191406 6.859375 "/>
<path style=" stroke:none;fill-rule:nonzero;fill:rgb(95.294118%,71.764708%,85.09804%);fill-opacity:1;" d="M 1.5 10.5 L 10.5 10.5 L 10.5 13.5 L 1.5 13.5 Z M 1.5 10.5 "/>
<use xlink:href="#surface11" mask="url(#mask2)"/>
<path style=" stroke:none;fill-rule:nonzero;fill:rgb(94.117647%,89.019608%,92.54902%);fill-opacity:1;" d="M 13.914062 1.496094 L 22.085938 1.496094 C 22.316406 1.496094 22.5 1.753906 22.5 2.074219 L 22.5 8.421875 L 13.5 8.421875 L 13.5 2.074219 C 13.5 1.753906 13.683594 1.496094 13.914062 1.496094 Z M 13.914062 1.496094 "/>
<path style=" stroke:none;fill-rule:nonzero;fill:rgb(95.294118%,71.764708%,85.09804%);fill-opacity:1;" d="M 13.914062 1.496094 C 13.683594 1.496094 13.5 1.753906 13.5 2.070312 L 13.5 8.425781 C 13.5 8.746094 13.683594 9 13.910156 9 L 22.089844 9 C 22.316406 9 22.5 8.746094 22.5 8.425781 L 22.5 2.070312 C 22.5 1.753906 22.316406 1.496094 22.089844 1.496094 Z M 14.191406 2.359375 L 21.808594 2.359375 C 22.023438 2.359375 22.199219 2.597656 22.199219 2.898438 L 22.199219 8.105469 C 22.199219 8.40625 22.023438 8.648438 21.808594 8.648438 L 14.191406 8.648438 C 13.976562 8.648438 13.800781 8.40625 13.800781 8.105469 L 13.800781 2.898438 C 13.800781 2.597656 13.976562 2.359375 14.191406 2.359375 Z M 14.191406 2.359375 "/>
<path style=" stroke:none;fill-rule:nonzero;fill:rgb(95.294118%,71.764708%,85.09804%);fill-opacity:1;" d="M 13.5 6 L 22.5 6 L 22.5 9 L 13.5 9 Z M 13.5 6 "/>
</g>
</svg>
