<?xml version="1.0" encoding="UTF-8"?>
<svg xmlns="http://www.w3.org/2000/svg" xmlns:xlink="http://www.w3.org/1999/xlink" width="24px" height="24px" viewBox="0 0 24 24" version="1.1">
<defs>
<linearGradient id="linear0" gradientUnits="userSpaceOnUse" x1="98.40847" y1="30.758501" x2="115.255234" y2="77.140503" gradientTransform="matrix(0.1875,0,0,0.1875,-0.000000737486,0.000000605385)">
<stop offset="0" style="stop-color:rgb(100%,100%,100%);stop-opacity:0.683453;"/>
<stop offset="1" style="stop-color:rgb(100%,100%,100%);stop-opacity:0;"/>
</linearGradient>
</defs>
<g id="surface1">
<path style=" stroke:none;fill-rule:nonzero;fill:rgb(95.294118%,71.764708%,85.09804%);fill-opacity:1;" d="M 1.5 3 L 22.5 3 L 22.5 21 L 1.5 21 Z M 1.5 3 "/>
<path style=" stroke:none;fill-rule:nonzero;fill:rgb(94.117647%,89.019608%,92.54902%);fill-opacity:1;" d="M 1.5 7.5 L 22.5 7.5 L 22.5 21 L 1.5 21 Z M 1.5 7.5 "/>
<path style=" stroke:none;fill-rule:nonzero;fill:rgb(95.294118%,71.764708%,85.09804%);fill-opacity:1;" d="M 3 12 L 10.5 12 L 10.5 13.5 L 3 13.5 Z M 3 12 "/>
<path style=" stroke:none;fill-rule:nonzero;fill:rgb(95.294118%,71.764708%,85.09804%);fill-opacity:1;" d="M 3 9 L 10.5 9 L 10.5 10.5 L 3 10.5 Z M 3 9 "/>
<path style=" stroke:none;fill-rule:nonzero;fill:rgb(79.215688%,79.215688%,80.000001%);fill-opacity:1;" d="M 13.5 9 L 21 9 L 21 10.5 L 13.5 10.5 Z M 13.5 9 "/>
<path style=" stroke:none;fill-rule:nonzero;fill:rgb(79.215688%,79.215688%,80.000001%);fill-opacity:1;" d="M 13.5 12 L 21 12 L 21 13.5 L 13.5 13.5 Z M 13.5 12 "/>
<path style=" stroke:none;fill-rule:nonzero;fill:rgb(95.294118%,71.764708%,85.09804%);fill-opacity:1;" d="M 3 15 L 10.5 15 L 10.5 16.5 L 3 16.5 Z M 3 15 "/>
<path style=" stroke:none;fill-rule:nonzero;fill:rgb(79.215688%,79.215688%,80.000001%);fill-opacity:1;" d="M 13.5 15 L 21 15 L 21 16.5 L 13.5 16.5 Z M 13.5 15 "/>
<path style=" stroke:none;fill-rule:nonzero;fill:rgb(95.294118%,71.764708%,85.09804%);fill-opacity:1;" d="M 3 18 L 10.5 18 L 10.5 19.5 L 3 19.5 Z M 3 18 "/>
<path style=" stroke:none;fill-rule:nonzero;fill:rgb(79.215688%,79.215688%,80.000001%);fill-opacity:1;" d="M 13.5 18 L 21 18 L 21 19.5 L 13.5 19.5 Z M 13.5 18 "/>
<path style=" stroke:none;fill-rule:nonzero;fill:rgb(61.56863%,22.745098%,60.784316%);fill-opacity:1;" d="M 12 7.5 L 23.953125 7.5 L 23.953125 24 L 12 24 Z M 12 7.5 "/>
<path style=" stroke:none;fill-rule:nonzero;fill:rgb(94.117647%,89.019608%,92.54902%);fill-opacity:1;" d="M 13.5 9 L 22.5 9 L 22.5 22.5 L 13.5 22.5 Z M 13.5 9 "/>
<path style=" stroke:none;fill-rule:evenodd;fill:url(#linear0);" d="M 13.5 9 L 13.5 18 C 16.273438 14.769531 19.882812 13.644531 22.5 13.230469 L 22.5 9 Z M 13.5 9 "/>
<path style=" stroke:none;fill-rule:nonzero;fill:rgb(95.294118%,71.764708%,85.09804%);fill-opacity:1;" d="M 15 11.25 L 21 11.25 L 21 21 L 15 21 Z M 15 11.25 "/>
<path style=" stroke:none;fill-rule:nonzero;fill:rgb(90.196079%,0.784314%,70.588237%);fill-opacity:1;" d="M 15.75 12 L 20.25 12 L 20.25 20.25 L 15.75 20.25 Z M 15.75 12 "/>
<path style=" stroke:none;fill-rule:nonzero;fill:rgb(95.294118%,71.764708%,85.09804%);fill-opacity:1;" d="M 16.5 12.75 L 19.5 12.75 L 19.5 15.75 L 16.5 15.75 Z M 16.5 12.75 "/>
<path style=" stroke:none;fill-rule:nonzero;fill:rgb(61.56863%,22.745098%,60.784316%);fill-opacity:1;" d="M 16.5 21.75 L 19.5 21.75 L 19.5 15.75 L 16.5 15.75 Z M 16.5 21.75 "/>
</g>
</svg>
