<?xml version="1.0" encoding="UTF-8" standalone="no"?>
<svg
   xmlns:dc="http://purl.org/dc/elements/1.1/"
   xmlns:cc="http://creativecommons.org/ns#"
   xmlns:rdf="http://www.w3.org/1999/02/22-rdf-syntax-ns#"
   xmlns:svg="http://www.w3.org/2000/svg"
   xmlns="http://www.w3.org/2000/svg"
   xmlns:xlink="http://www.w3.org/1999/xlink"
   xmlns:sodipodi="http://sodipodi.sourceforge.net/DTD/sodipodi-0.dtd"
   xmlns:inkscape="http://www.inkscape.org/namespaces/inkscape"
   height="32"
   width="32"
   version="1.1"
   id="svg176"
   sodipodi:docname="lc_dbnewformautopilot.svg"
   inkscape:version="0.92.3 (2405546, 2018-03-11)">
  <metadata
     id="metadata182">
    <rdf:RDF>
      <cc:Work
         rdf:about="">
        <dc:format>image/svg+xml</dc:format>
        <dc:type
           rdf:resource="http://purl.org/dc/dcmitype/StillImage" />
        <dc:title></dc:title>
      </cc:Work>
    </rdf:RDF>
  </metadata>
  <defs
     id="defs180" />
  <sodipodi:namedview
     pagecolor="#ffffff"
     bordercolor="#666666"
     borderopacity="1"
     objecttolerance="10"
     gridtolerance="10"
     guidetolerance="10"
     inkscape:pageopacity="0"
     inkscape:pageshadow="2"
     inkscape:window-width="1366"
     inkscape:window-height="705"
     id="namedview178"
     showgrid="true"
     inkscape:zoom="14.75"
     inkscape:cx="12.901231"
     inkscape:cy="14.775388"
     inkscape:window-x="-8"
     inkscape:window-y="-8"
     inkscape:window-maximized="1"
     inkscape:current-layer="svg176">
    <inkscape:grid
       type="xygrid"
       id="grid989" />
  </sodipodi:namedview>
  <linearGradient
     id="a"
     gradientTransform="matrix(0.99823,-0.06168429,0.02721908,0.849126,7.509698,12.850212)"
     gradientUnits="userSpaceOnUse"
     spreadMethod="reflect"
     x1="55.743965"
     x2="121.51667"
     y1="46.374126"
     y2="11.318704">
    <stop
       offset="0"
       stop-color="#ff5900"
       id="stop2" />
    <stop
       offset="1"
       stop-color="#ff0"
       id="stop4" />
  </linearGradient>
  <radialGradient
     id="b"
     cx="49.009884"
     cy="8.4953117"
     fx="47.370888"
     fy="6.7701702"
     gradientTransform="matrix(0.769753,1.181802,-7.650992,7.762471,62.39291,-29.03898)"
     gradientUnits="userSpaceOnUse"
     r="3.97504">
    <stop
       offset="0"
       stop-color="#fff"
       id="stop7" />
    <stop
       offset="1"
       stop-color="#aeaeae"
       id="stop9" />
  </radialGradient>
  <linearGradient
     id="c"
     gradientTransform="matrix(0.981227,0.967355,-1.189872,1.227494,77.89405,-44.83244)"
     gradientUnits="userSpaceOnUse"
     x1="48.498562"
     x2="48.732723"
     xlink:href="#d"
     y1="0.81150502"
     y2="2.3657269" />
  <linearGradient
     id="d">
    <stop
       offset="0"
       stop-color="#fff"
       id="stop13" />
    <stop
       offset="1"
       stop-color="#fff"
       stop-opacity="0"
       id="stop15" />
  </linearGradient>
  <radialGradient
     id="e"
     cx="49.011971"
     cy="2.6743081"
     gradientTransform="matrix(0.913761,0,0,0.207981,43.52233,-82.64466)"
     gradientUnits="userSpaceOnUse"
     r="1.724619"
     xlink:href="#d" />
  <radialGradient
     id="f"
     cx="49.011971"
     cy="2.6743081"
     gradientTransform="matrix(3.15491,0,0,0.208011,-61.469,-82.65113)"
     gradientUnits="userSpaceOnUse"
     r="1.724619"
     xlink:href="#g" />
  <linearGradient
     id="g">
    <stop
       offset="0"
       stop-color="#fff"
       id="stop20" />
    <stop
       offset="1"
       stop-color="#252525"
       stop-opacity="0"
       id="stop22" />
  </linearGradient>
  <radialGradient
     id="h"
     cx="49.011971"
     cy="2.6743081"
     gradientTransform="matrix(0.906625,0,0,0.207981,-140.6272,-82.64466)"
     gradientUnits="userSpaceOnUse"
     r="1.724619"
     xlink:href="#i" />
  <linearGradient
     id="i">
    <stop
       offset="0"
       stop-color="#fff"
       stop-opacity=".55036"
       id="stop26" />
    <stop
       offset="1"
       stop-opacity="0"
       id="stop28" />
  </linearGradient>
  <radialGradient
     id="j"
     cx="34.677639"
     cy="7.4622769"
     fx="11.254922"
     fy="18.452005"
     gradientTransform="matrix(1.135556,0.00325649,-1.156e-5,0.02608447,-4.700669,7.1547)"
     gradientUnits="userSpaceOnUse"
     r="47.595196"
     xlink:href="#d" />
  <linearGradient
     id="k"
     gradientTransform="matrix(1.37789,1.263e-4,0.01423919,1.378513,65.76164,-93.88427)"
     gradientUnits="userSpaceOnUse"
     x1="48.498562"
     x2="48.732723"
     xlink:href="#d"
     y1="0.81150502"
     y2="2.3657269" />
  <radialGradient
     id="l"
     cx="49.011971"
     cy="2.6743081"
     gradientTransform="matrix(0.913761,0,0,0.167717,85.52731,-90.69359)"
     gradientUnits="userSpaceOnUse"
     r="1.724619"
     xlink:href="#d" />
  <radialGradient
     id="m"
     cx="49.011971"
     cy="2.6743081"
     gradientTransform="matrix(3.15491,0,0,0.167755,-19.14379,-90.70726)"
     gradientUnits="userSpaceOnUse"
     r="1.724619"
     xlink:href="#g" />
  <radialGradient
     id="n"
     cx="49.011971"
     cy="2.6743081"
     gradientTransform="matrix(0.906625,0,0,0.167717,-182.6324,-90.69359)"
     gradientUnits="userSpaceOnUse"
     r="1.724619"
     xlink:href="#i" />
  <radialGradient
     id="o"
     cx="67.497665"
     cy="36.571056"
     fx="51.110146"
     fy="38.92115"
     gradientTransform="matrix(1.143352,-0.288983,0.145436,0.486936,-6.906086,43.29656)"
     gradientUnits="userSpaceOnUse"
     r="59.66724">
    <stop
       offset="0"
       stop-opacity="0"
       id="stop36" />
    <stop
       offset=".87912089"
       stop-opacity="0"
       id="stop38" />
    <stop
       offset="1"
       id="stop40" />
  </radialGradient>
  <radialGradient
     id="p"
     cx="10.502676"
     cy="43.419136"
     gradientTransform="matrix(1.182169,-0.07305034,0.0190782,0.595163,5.960047,24.89229)"
     gradientUnits="userSpaceOnUse"
     r="29.231159"
     spreadMethod="reflect"
     xlink:href="#d" />
  <linearGradient
     id="q"
     gradientTransform="matrix(0.99823,-0.06168429,0.02721908,0.849126,7.509698,12.850212)"
     gradientUnits="userSpaceOnUse"
     x1="92.518745"
     x2="95.046997"
     xlink:href="#d"
     y1="5.8790212"
     y2="19.529158" />
  <linearGradient
     id="r"
     gradientTransform="matrix(-12.72707,0.492126,-0.05364729,3.971548,275.61158,-231.94983)"
     gradientUnits="userSpaceOnUse"
     spreadMethod="pad"
     x1="18.704878"
     x2="13.317425"
     xlink:href="#d"
     y1="74.448128"
     y2="64.212517" />
  <radialGradient
     id="s"
     cx="123.62269"
     cy="35.345421"
     fx="125.26403"
     fy="34.200359"
     gradientTransform="matrix(0.64563816,0,0,1.3102233,48.801686,-4.037653)"
     gradientUnits="userSpaceOnUse"
     r="3.2466559"
     xlink:href="#d" />
  <radialGradient
     id="t"
     cx="123.62269"
     cy="35.345421"
     fx="125.26403"
     fy="34.200359"
     gradientTransform="matrix(0.64563816,0,0,1.3102233,-92.924101,9.164842)"
     gradientUnits="userSpaceOnUse"
     r="3.2466559"
     xlink:href="#d" />
  <linearGradient
     id="u"
     gradientUnits="userSpaceOnUse"
     x1="154.5867"
     x2="61.973328"
     xlink:href="#d"
     y1="48.224529"
     y2="28.799097" />
  <radialGradient
     id="v"
     cx="103.12353"
     cy="24.956741"
     fx="101.56755"
     fy="22.07275"
     gradientTransform="matrix(1.015732,0.401466,-0.180613,0.456961,10.559896,-23.83122)"
     gradientUnits="userSpaceOnUse"
     r="12.241624">
    <stop
       offset="0"
       id="stop49" />
    <stop
       offset="1"
       stop-opacity="0"
       id="stop51" />
  </radialGradient>
  <radialGradient
     id="w"
     cx="80.292313"
     cy="39.653671"
     gradientTransform="matrix(10.43391,-2.24727,0.122988,0.315112,-762.94462,214.34307)"
     gradientUnits="userSpaceOnUse"
     r="9.0409994">
    <stop
       offset="0"
       stop-color="#ff5f00"
       id="stop54" />
    <stop
       offset="1"
       stop-color="#ff5f00"
       stop-opacity="0"
       id="stop56" />
  </radialGradient>
  <linearGradient
     id="x"
     gradientTransform="matrix(0.1133598,0,0,0.1691546,0.642795,-76.95463)"
     gradientUnits="userSpaceOnUse"
     x1="417.76013"
     x2="417.76013"
     y1="691.40674"
     y2="549.52472">
    <stop
       offset="0"
       stop-color="#cbcbcd"
       id="stop59" />
    <stop
       offset=".5"
       stop-color="#e0e0e2"
       id="stop61" />
    <stop
       offset="1"
       stop-color="#fff"
       id="stop63" />
  </linearGradient>
  <filter
     id="y">
    <feGaussianBlur
       stdDeviation="2.4"
       id="feGaussianBlur66" />
  </filter>
  <linearGradient
     id="z"
     gradientTransform="matrix(1.25,0,0,1,-145.53581,-244.8761)"
     gradientUnits="userSpaceOnUse"
     x1="167.62865"
     x2="167.62865"
     y1="340.8761"
     y2="308.8761">
    <stop
       offset="0"
       stop-color="#cbcbcd"
       id="stop69" />
    <stop
       offset=".66545075"
       stop-color="#e0e0e2"
       id="stop71" />
    <stop
       offset="1"
       stop-color="#fff"
       id="stop73" />
  </linearGradient>
  <g
     id="g1036"
     transform="matrix(2.0714285,0,0,2.0714285,-1.0714282,-2.1428568)">
    <g
       id="g94"
       transform="scale(0.125)">
      <rect
         style="fill:#f3b7d9"
         id="rect78"
         y="15.999999"
         x="7.9999971"
         width="112"
         rx="1e-006"
         height="96" />
      <rect
         style="fill:#9d3a9b;fill-opacity:0.16763"
         id="rect80"
         y="31.999998"
         x="15.999997"
         width="96"
         ry="1e-006"
         rx="2e-006"
         height="24.000002" />
      <rect
         style="fill:#f0e3ec"
         id="rect82"
         y="40"
         x="23.999996"
         width="80"
         ry="0"
         rx="2e-006"
         height="16.000002" />
      <rect
         style="fill:#9d3a9b;fill-opacity:0.375"
         id="rect84"
         y="-104"
         x="23.999996"
         width="80"
         transform="scale(1,-1)"
         ry="1e-006"
         rx="2e-006"
         height="32.000004" />
      <rect
         style="fill:#f0e3ec"
         id="rect86"
         y="72"
         x="23.999996"
         width="80"
         ry="1e-006"
         rx="2e-006"
         height="24.000002" />
      <g
         style="stroke-width:0.65700603"
         id="g92"
         transform="translate(-79.62865,-236.8761)">
        <path
           style="fill:#9d3a9b"
           inkscape:connector-curvature="0"
           id="path88"
           d="m 124.41114,328.26396 q -2.5229,-2.81199 -2.5229,-7.22707 0,-4.41508 2.5229,-7.22706 2.54918,-2.81198 6.67518,-2.81198 4.15228,0 6.70146,2.81198 2.54918,2.7857 2.54918,7.35846 0,4.2574 -2.5229,7.09567 -2.49662,2.81198 -6.70146,2.81198 -4.17856,0 -6.70146,-2.81198 z m 6.70146,-13.90225 q -2.3915,0 -3.83691,1.83962 -1.44542,1.81334 -1.44542,4.83556 0,3.02223 1.44542,4.86185 1.44541,1.81333 3.83691,1.81333 2.36522,0 3.81063,-1.81333 1.4717,-1.81334 1.4717,-4.75673 0,-3.10106 -1.44542,-4.94068 -1.41913,-1.83962 -3.83691,-1.83962 z" />
        <path
           style="fill:#9d3a9b"
           inkscape:connector-curvature="0"
           id="path90"
           d="m 152.41291,324.05912 v 6.41238 h -3.94203 v -19.15829 h 3.94203 v 8.40967 l 7.48987,-8.40967 h 4.6516 l -7.64755,8.25199 8.46224,10.9063 h -4.70416 l -6.28098,-8.46224 z" />
      </g>
    </g>
    <path
       d="m 12.928661,2.8997374 c -0.03446,0.062813 -0.0707,0.1258655 -0.118191,0.1852976 0.0093,0.00107 0.01925,0.00318 0.02851,0.00427 1.153804,0.1363802 1.783414,0.7998584 1.925462,1.3170395 0.142047,0.5171811 -0.32617,1.0406851 -1.269306,1.6713325 C 12.552,6.7083263 11.120386,7.3134122 9.4545577,7.7060623 7.7887298,8.0987125 6.2185321,8.2011952 5.0647264,8.064815 3.9109205,7.9284348 3.2306278,7.6753633 3.0885803,7.1581823 2.9465328,6.6410012 3.1520508,5.7777422 4.0951874,5.1470947 5.0383239,4.5164473 6.6420914,3.7498809 8.3079196,3.3572308 8.7358177,3.3520022 8.6215884,3.1324526 8.2889546,3.2081635 6.4237547,3.6478074 4.7091308,4.2424245 3.5692698,5.0046156 2.4294088,5.7668069 1.7564702,6.6460218 1.9691677,7.4204334 2.1818654,8.194845 3.2268669,8.6725492 4.6213399,8.8373758 6.0158126,9.0022031 7.8181382,8.9762872 9.6833386,8.5366434 11.548539,8.0969998 13.143891,7.3221047 14.283754,6.5599133 c 1.139858,-0.762191 1.235749,-1.608765 1.023052,-2.3831767 -0.20924,-0.76182 -1.004559,-1.2499321 -2.378145,-1.2769992 z"
       id="path96"
       inkscape:connector-curvature="0"
       style="fill:#e602b4;stroke-width:0.11346761" />
    <path
       d="M 7.4039622,1.8644945 V 1.5473856 Z"
       id="path98"
       inkscape:connector-curvature="0"
       style="fill:#ffffff;fill-opacity:0.756881;stroke-width:0.11346761" />
    <path
       d="M 8.6773537,3.0465496 C 8.6963008,3.1164359 8.4978302,3.1723037 8.4644227,3.2402079 8.4310151,3.308112 8.527348,3.4598492 8.4543462,3.499834 8.3813446,3.5398188 8.2661758,3.3983985 8.1814641,3.3951911 8.0967524,3.3919834 7.9529301,3.5235982 7.8888654,3.4784237 7.8248007,3.4332493 7.952093,3.289979 7.9331459,3.2200927 7.9141987,3.1502062 7.7289787,3.0798113 7.7623863,3.0119071 c 0.033408,-0.067904 0.2272473,-0.01503 0.3002491,-0.055014 0.073002,-0.039985 0.1023517,-0.2151058 0.1870634,-0.2118985 0.084712,0.00321 0.077219,0.1791559 0.1412836,0.2243304 0.064065,0.045174 0.2674241,0.00734 0.2863713,0.077225 z"
       id="path100"
       inkscape:connector-curvature="0"
       style="fill:#9d3a9b;stroke-width:0.10456901" />
    <path
       d="M 17.496375,3.2479449 V 2.930836 Z"
       id="path102"
       inkscape:connector-curvature="0"
       style="fill:#ffffff;fill-opacity:0.756881;stroke-width:0.11346761" />
    <path
       d="m 13.542815,12.412642 c -0.186406,-0.01 -0.186334,-0.462928 -0.331289,-0.580547 -0.144955,-0.11762 -0.588201,-0.02425 -0.636337,-0.204606 -0.04814,-0.180359 0.382689,-0.320268 0.449759,-0.494474 0.06707,-0.174207 -0.158704,-0.566906 -0.002,-0.66842 0.156657,-0.101514 0.422851,0.264992 0.609257,0.274946 0.186406,0.01 0.490116,-0.32612 0.635071,-0.2085 0.144956,0.11762 -0.121354,0.484041 -0.07322,0.6644 0.04814,0.180359 0.461613,0.365352 0.394544,0.539559 -0.06707,0.174207 -0.497852,0.03416 -0.654508,0.135676 -0.156656,0.101514 -0.204824,0.55192 -0.391231,0.541966 z"
       id="path104"
       inkscape:connector-curvature="0"
       style="fill:#9d3a9b;stroke-width:0.02896901" />
    <path
       d="m 11.673886,2.3657119 c -0.738894,0.01146 -0.962673,0.2473435 -0.999089,0.5971608 -0.04105,0.3942702 0.613241,0.6263917 1.062642,0.4849581 1.070468,-0.3368936 2.630808,0.1973256 2.961006,1.0853623 C 14.886167,5.038054 14.440433,5.5144756 13.497297,6.1451229 12.554161,6.7757702 11.122857,7.390491 9.4570284,7.7831411 7.7912006,8.1757912 6.221003,8.2782738 5.0671973,8.1418938 3.9133911,8.0055134 3.1400143,7.6809627 2.9979668,7.1637817 2.9397277,6.9517386 2.8882398,6.6846234 2.9733553,6.3960055 L 3.1763643,5.5480926 C 2.8555827,5.8482285 2.397764,6.1714821 2.2661454,6.4397067 2.091312,6.7714421 1.940047,7.1047109 2.0258012,7.4169339 2.2384988,8.1913454 3.2268669,8.6725492 4.6213399,8.8373758 6.0158126,9.0022031 7.8181382,8.9762872 9.6833386,8.5366434 11.548539,8.0969998 13.229531,7.2922591 14.369393,6.5300675 15.509252,5.7678766 15.881444,5.0269974 15.668745,4.2525858 15.456047,3.4781742 14.705062,2.9544667 13.30639,2.6200618 12.565146,2.442839 11.976363,2.3610209 11.673886,2.3657119 Z"
       style="opacity:0.36885304;fill:none;stroke:#000000;stroke-width:0.31370729;stroke-linecap:round;stroke-linejoin:round;stroke-dashoffset:4;stroke-opacity:0.044898"
       id="path106"
       inkscape:connector-curvature="0" />
    <g
       transform="matrix(-0.06150512,0.09816707,-0.10956205,-0.03794005,21.466774,3.8108344)"
       id="g138">
      <path
         d="m 118.78907,2.0588973 c 0.53184,-0.547895 3.35709,-0.6241909 5.87615,1.8593065 2.54375,2.5078422 2.63975,5.1933474 1.97354,5.8796153 C 126.20515,10.244528 30.668446,107.18002 30.234832,107.62671 27.618242,105.04707 25.001673,102.46745 22.385097,99.887812 22.818716,99.441109 118.35543,2.5056202 118.78907,2.0588973 Z"
         id="path110"
         inkscape:connector-curvature="0"
         style="fill:#9d3a9b;fill-rule:evenodd" />
      <path
         d="M 42.529815,79.422833 C 41.154594,80.330809 30.189224,91.548774 29.382098,92.806737 l 6.297737,6.180851 13.147692,-13.383895 z m 5.636697,5.524761 -13.147697,13.383884 2.203352,2.187022 C 38.416108,99.757068 49.437991,88.600492 50.36985,87.134608 Z"
         id="path112"
         inkscape:connector-curvature="0"
         style="fill:#e602b4" />
      <path
         d="m 39.4289,97.1653 c -0.05449,0.05527 -0.08604,0.108899 -0.09468,0.160888 -0.0086,0.052 0.0065,0.09754 0.0453,0.13663 0.03867,0.03893 0.08372,0.05393 0.135138,0.045 0.05142,-0.0089 0.104373,-0.04102 0.158857,-0.09629 0.0548,-0.05558 0.08651,-0.10937 0.09515,-0.161365 0.0086,-0.052 -0.0064,-0.09745 -0.04506,-0.136379 -0.03884,-0.03909 -0.08396,-0.05417 -0.135385,-0.04525 -0.05142,0.0089 -0.104526,0.04118 -0.159321,0.09676 m -0.06887,-0.06933 c 0.111446,-0.113044 0.215692,-0.184537 0.312744,-0.214473 0.09705,-0.02994 0.175443,-0.01484 0.235176,0.04529 0.05957,0.05996 0.07473,0.139035 0.04548,0.237216 -0.02925,0.09818 -0.0996,0.203796 -0.211049,0.316844 -0.111135,0.112729 -0.215381,0.184222 -0.312744,0.214475 -0.09705,0.02993 -0.175359,0.01492 -0.234931,-0.04504 -0.05973,-0.06013 -0.07497,-0.139284 -0.04572,-0.237463 0.02956,-0.0985 0.09991,-0.20411 0.211047,-0.316846 m 1.031296,-0.667986 0.428626,-0.05466 -0.186208,0.188884 -0.287944,0.03767 -0.03478,0.289695 -0.187133,0.189821 0.05244,-0.433319 -0.411684,0.05294 0.18667,-0.189353 0.270571,-0.03451 0.03265,-0.273067 0.1876,-0.190294 -0.05081,0.416197 m 0.07031,-0.435981 0.195492,-0.198301 0.289196,-0.02797 0.02656,-0.292333 0.195956,-0.198771 -0.05095,0.482687 0.155263,0.156284 -0.178779,0.181349 -0.15526,-0.15629 -0.477483,0.05334 m 1.748121,-1.083825 c -0.03306,0.05681 -0.0707,0.112452 -0.112926,0.166922 -0.04222,0.05447 -0.08888,0.107615 -0.139954,0.159425 -0.11547,0.11713 -0.22406,0.192692 -0.325775,0.226696 -0.101877,0.03384 -0.182191,0.02119 -0.240939,-0.03795 -0.05941,-0.0598 -0.07178,-0.141698 -0.03712,-0.245695 0.03466,-0.104004 0.11174,-0.216606 0.231231,-0.337817 0.04613,-0.04679 0.09255,-0.08922 0.139254,-0.127286 0.04702,-0.03838 0.09378,-0.07201 0.140289,-0.100905 l 0.07627,0.07678 c -0.05038,0.02749 -0.09764,0.05781 -0.14179,0.09095 -0.04384,0.03282 -0.08495,0.06871 -0.123335,0.107648 -0.0712,0.07222 -0.115533,0.138644 -0.133003,0.199263 -0.01732,0.06014 -0.0063,0.110011 0.03301,0.149595 0.039,0.03926 0.08769,0.05073 0.146067,0.03442 0.05837,-0.01631 0.121768,-0.05917 0.190185,-0.128569 0.01857,-0.01884 0.03518,-0.03684 0.04981,-0.05402 0.01478,-0.01765 0.0272,-0.03424 0.03726,-0.04977 l -0.07158,-0.07206 -0.109125,0.110694 -0.06368,-0.0641 0.278612,-0.282614 0.17723,0.178399 m -0.184179,-0.502587 0.482463,-0.489396 0.07183,0.0723 -0.303687,0.308052 0.06862,0.06907 0.285578,-0.289681 0.07183,0.0723 -0.285578,0.289681 0.08442,0.08498 0.313903,-0.318412 0.07183,0.0723 -0.492681,0.49976 -0.368527,-0.370961 m 0.650096,-0.659438 0.199671,-0.202541 0.504906,-0.0013 -0.252761,-0.254428 0.169488,-0.171924 0.368529,0.370961 -0.199673,0.202542 -0.504906,0.0013 0.252762,0.254432 -0.169489,0.171922 -0.368527,-0.37096 m 1.125593,-1.141765 0.199671,-0.202539 0.504905,-0.0013 -0.252761,-0.254426 0.169489,-0.171926 0.368528,0.37096 -0.199671,0.202542 -0.504908,0.0013 0.252763,0.254432 -0.169489,0.171923 -0.368527,-0.37096 m 0.969405,-0.996805 c 0.06594,-0.06688 0.127078,-0.110447 0.183422,-0.130686 0.05665,-0.02055 0.100611,-0.01509 0.131878,0.01638 0.03126,0.03147 0.03691,0.07563 0.01693,0.132475 -0.01997,0.05685 -0.06309,0.118869 -0.129334,0.186068 -0.06625,0.0672 -0.127616,0.111159 -0.184105,0.131875 -0.05618,0.0204 -0.0999,0.01487 -0.131166,-0.0166 -0.03127,-0.03147 -0.03699,-0.07571 -0.01718,-0.132726 0.02012,-0.05732 0.06331,-0.119583 0.129552,-0.186785 m 0.04244,0.429361 0.382163,-0.387653 0.04937,0.04969 -0.382163,0.387655 -0.04937,-0.04969 m -4.81e-4,-0.387122 c -0.026,0.02638 -0.04094,0.05201 -0.04481,0.07689 -0.0036,0.02457 0.0042,0.04646 0.02329,0.06567 0.01909,0.01922 0.0407,0.02689 0.06483,0.02303 0.02444,-0.0042 0.04967,-0.01945 0.07567,-0.04583 0.0257,-0.02606 0.04041,-0.05129 0.04414,-0.07569 0.004,-0.02472 -0.0035,-0.04668 -0.02258,-0.06589 -0.01909,-0.01921 -0.04094,-0.02682 -0.06555,-0.02281 -0.0243,0.0037 -0.04929,0.01858 -0.07499,0.04464 m 1.174679,-0.919683 c 0.05316,-0.04095 0.0998,-0.06564 0.139906,-0.07407 0.04025,-0.0089 0.07264,-0.001 0.09716,0.02367 0.03653,0.03677 0.03803,0.09146 0.0045,0.164054 -0.0337,0.07243 -0.101015,0.159833 -0.201934,0.262202 -0.0356,0.03611 -0.07292,0.07081 -0.111956,0.104087 -0.03856,0.03313 -0.07838,0.06437 -0.119445,0.09373 l -0.07331,-0.0738 c 0.04232,-0.02497 0.08219,-0.05178 0.119613,-0.08042 0.03757,-0.02913 0.07229,-0.05986 0.104179,-0.0922 0.04736,-0.04805 0.07922,-0.08917 0.09558,-0.123389 0.01666,-0.03453 0.01685,-0.05999 5.55e-4,-0.07639 -0.01678,-0.01689 -0.04246,-0.01646 -0.07702,0.0013 -0.03442,0.01729 -0.07685,0.05152 -0.127313,0.102705 l -0.07151,0.07254 -0.06121,-0.06162 0.07522,-0.07631 c 0.04489,-0.04553 0.07462,-0.08317 0.08919,-0.112923 0.01441,-0.02991 0.01396,-0.05257 -0.0013,-0.06798 -0.01416,-0.01425 -0.03578,-0.01443 -0.06487,-5.47e-4 -0.02909,0.01388 -0.06314,0.04061 -0.10215,0.08017 -0.02879,0.02921 -0.05616,0.06046 -0.08212,0.09377 -0.02595,0.03331 -0.05011,0.06812 -0.07246,0.104429 l -0.06961,-0.07007 c 0.03002,-0.0411 0.06106,-0.08056 0.09309,-0.118379 0.03204,-0.03782 0.06478,-0.07368 0.09821,-0.107601 0.09009,-0.09137 0.165313,-0.151727 0.22569,-0.181043 0.06052,-0.02979 0.106578,-0.02879 0.138173,0.003 0.02156,0.0217 0.02857,0.05034 0.02103,0.08592 -0.0077,0.03541 -0.02965,0.07713 -0.06585,0.125157"
         id="path122"
         inkscape:connector-curvature="0"
         style="fill:#f0e3ec" />
      <g
         transform="matrix(0.712202,0.701974,0.870513,-0.883197,9.637176,-69.26202)"
         id="g136">
        <path
           d="m 127.80368,-90.294455 c -0.006,-0.563594 1.95277,-2.067585 5.4902,-2.067265 3.5721,3.32e-4 5.52563,1.362339 5.5329,2.068292 0.005,0.459498 0.01,-0.08101 0.0143,0.378492 -3.67438,-3.28e-4 -7.34874,-6.64e-4 -11.02311,-9.99e-4 -0.005,-0.459504 -0.01,0.081 -0.0143,-0.37852"
           id="path126"
           inkscape:connector-curvature="0"
           style="fill:#9d3a9b;fill-rule:evenodd" />
      </g>
    </g>
    <path
       d="m 11.670488,2.2597287 c -0.738893,0.01146 -1.051741,0.301117 -1.088158,0.6509344 -0.04104,0.39427 0.705708,0.6786013 1.155109,0.5371677 1.070468,-0.3368936 2.713245,0.4273041 2.915701,1.0881619 0.157286,0.5134181 -0.214868,0.911039 -1.158004,1.5416864 C 12.552,6.7083263 11.120386,7.3134122 9.4545577,7.7060623 7.7887298,8.0987125 6.2185321,8.2011952 5.0647264,8.064815 3.9109205,7.9284348 3.2306278,7.6753633 3.0885803,7.1581823 3.0303411,6.9461392 3.0354869,6.6755243 3.1206023,6.3869065 L 2.1188985,6.4488056 C 1.9440651,6.7805411 1.8834136,7.1082106 1.9691677,7.4204334 2.1818654,8.194845 3.2268669,8.6725492 4.6213399,8.8373758 6.0158126,9.0022031 7.8181382,8.9762872 9.6833386,8.5366434 11.548539,8.0969998 13.229531,7.2922591 14.369393,6.5300675 15.509252,5.7678766 15.92675,5.0241977 15.714053,4.249786 15.501353,3.4753745 14.701665,2.8484834 13.302994,2.5140784 12.561749,2.3368558 11.972966,2.2550376 11.670488,2.2597287 Z"
       id="path144"
       inkscape:connector-curvature="0"
       style="opacity:0.93000034;fill:#e602b4;stroke-width:0.11346761" />
    <g
       transform="matrix(0.11346761,0,0,0.11346761,0.679987,0.625398)"
       id="g154"
       style="fill-rule:evenodd" />
    <g
       transform="matrix(0.11326677,-0.00739877,0.00308848,0.10184909,3.2446607,-0.24021122)"
       id="g166"
       style="fill:#eb7331">
      <path
         d="m 28.699643,66.421154 c -0.981394,1.079533 -3.723873,-1.159259 -5.152371,-0.862747 -1.428499,0.296512 -3.053401,3.441837 -4.383366,2.84207 -1.329965,-0.599767 -0.04822,-3.899844 -0.771649,-5.166799 -0.72343,-1.266956 -4.216935,-1.840371 -4.057504,-3.290581 0.15943,-1.45021 3.694072,-1.250977 4.675466,-2.33051 0.981394,-1.079534 0.447192,-4.57925 1.87569,-4.875762 1.428498,-0.296512 2.331281,3.126699 3.661246,3.726466 1.329964,0.599767 4.493315,-0.989762 5.216744,0.277194 0.72343,1.266955 -2.253261,3.183382 -2.412691,4.633592 -0.159431,1.45021 2.329829,3.967544 1.348435,5.047077 z"
         id="path160"
         inkscape:connector-curvature="0"
         style="fill:#9d3a9b" />
      <path
         d="M 7.8018446,39.950608 C 7.2620779,40.441305 6.0034111,39.196675 5.2783062,39.27639 4.5532013,39.356105 3.5949876,40.844451 2.9615099,40.482736 2.3280323,40.121021 3.1227963,38.539346 2.8229128,37.874364 2.5230293,37.209381 0.8114243,36.75799 0.95968028,36.043741 1.1079363,35.329492 2.8577942,35.596593 3.3975609,35.105896 c 0.5397668,-0.490697 0.4401504,-2.258018 1.1652553,-2.337733 0.7251049,-0.07972 1.0118125,1.667037 1.6452902,2.028752 0.6334777,0.361715 2.2835164,-0.279158 2.5833999,0.385824 0.2998835,0.664983 -1.2727794,1.477434 -1.4210354,2.191683 -0.148256,0.714249 0.9711404,2.085489 0.4313737,2.576186 z"
         id="path162"
         inkscape:connector-curvature="0"
         style="fill:#9d3a9b" />
      <path
         d="m 10.588219,92.891701 c -0.9813944,-1.226743 1.864575,-3.763067 1.791672,-5.332372 -0.0729,-1.569305 -3.1417619,-3.830851 -2.278328,-5.143297 0.863434,-1.312446 4.155075,0.610465 5.625044,0.05619 1.469969,-0.554277 2.672499,-4.171791 4.187524,-3.756185 1.515026,0.415607 0.703403,4.140356 1.684797,5.367098 0.981394,1.226743 4.793456,1.252543 4.86636,2.821848 0.0729,1.569304 -3.720349,1.948415 -4.583783,3.26086 -0.863434,1.312446 0.290021,4.945906 -1.179948,5.500183 -1.469969,0.554277 -3.002705,-2.936169 -4.51773,-3.351775 -1.515026,-0.415607 -4.614214,1.804194 -5.595608,0.577452 z"
         id="path164"
         inkscape:connector-curvature="0"
         style="fill:#9d3a9b" />
    </g>
  </g>
</svg>
