<?xml version="1.0" encoding="UTF-8"?>
<svg xmlns="http://www.w3.org/2000/svg" xmlns:xlink="http://www.w3.org/1999/xlink" width="24px" height="24px" viewBox="0 0 24 24" version="1.1">
<g id="surface1">
<path style="fill-rule:nonzero;fill:rgb(94.117647%,89.019608%,92.54902%);fill-opacity:1;stroke-width:1.375;stroke-linecap:butt;stroke-linejoin:miter;stroke:rgb(61.56863%,22.745098%,60.784316%);stroke-opacity:1;stroke-miterlimit:4;" d="M 5.640072 2.135508 L 82.024187 2.135508 L 82.024187 78.691498 L 5.640072 78.691498 Z M 5.640072 2.135508 " transform="matrix(0.272727,0,0,0.272727,-0.0538265,1.105089)"/>
<path style="fill-rule:nonzero;fill:rgb(95.294118%,71.764708%,85.09804%);fill-opacity:1;stroke-width:1.369175;stroke-linecap:butt;stroke-linejoin:miter;stroke:rgb(61.56863%,22.745098%,60.784316%);stroke-opacity:1;stroke-miterlimit:4;" d="M 5.640072 2.135508 L 82.024187 2.135508 L 82.024187 23.920664 L 5.640072 23.920664 Z M 5.640072 2.135508 " transform="matrix(0.272727,0,0,0.272727,-0.0538265,1.105089)"/>
<path style=" stroke:none;fill-rule:nonzero;fill:rgb(90.196079%,0.784314%,70.588237%);fill-opacity:1;" d="M 14.984375 0.0585938 L 19.445312 0.0585938 L 19.445312 4.515625 L 14.984375 4.515625 Z M 14.984375 0.0585938 "/>
<path style=" stroke:none;fill-rule:nonzero;fill:rgb(90.196079%,0.784314%,70.588237%);fill-opacity:1;" d="M 4.464844 0.0585938 L 8.925781 0.0585938 L 8.925781 4.515625 L 4.464844 4.515625 Z M 4.464844 0.0585938 "/>
<path style=" stroke:none;fill-rule:nonzero;fill:rgb(61.56863%,22.745098%,60.784316%);fill-opacity:1;" d="M 8.988281 19.652344 L 7.394531 19.691406 L 7.355469 12.039062 L 5.832031 12.039062 L 5.988281 10.546875 L 7.460938 10.496094 L 8.910156 10.496094 Z M 18 18.085938 L 16.523438 18.125 L 16.523438 19.613281 L 14.773438 19.613281 L 14.773438 18.125 L 11.910156 18.125 L 11.910156 16.480469 L 14.960938 10.539062 L 16.484375 10.5 L 16.484375 16.460938 L 18 16.5 Z M 15.003906 16.5 L 15.003906 13.488281 L 13.25 16.539062 "/>
</g>
</svg>
