<?xml version="1.0" encoding="UTF-8"?>
<svg xmlns="http://www.w3.org/2000/svg" xmlns:xlink="http://www.w3.org/1999/xlink" width="24px" height="24px" viewBox="0 0 24 24" version="1.1">
<defs>
<filter id="alpha" filterUnits="objectBoundingBox" x="0%" y="0%" width="100%" height="100%">
  <feColorMatrix type="matrix" in="SourceGraphic" values="0 0 0 0 1 0 0 0 0 1 0 0 0 0 1 0 0 0 1 0"/>
</filter>
<mask id="mask0">
  <g filter="url(#alpha)">
<rect x="0" y="0" width="24" height="24" style="fill:rgb(0%,0%,0%);fill-opacity:0.95;stroke:none;"/>
  </g>
</mask>
<clipPath id="clip1">
  <rect x="0" y="0" width="24" height="24"/>
</clipPath>
<g id="surface5" clip-path="url(#clip1)">
<path style=" stroke:none;fill-rule:nonzero;fill:rgb(61.56863%,22.745098%,60.784316%);fill-opacity:1;" d="M 15.804688 7.5 C 12.097656 7.476562 8.832031 9.925781 7.816406 13.492188 C 6.738281 17.273438 8.480469 21.289062 11.976562 23.085938 C 15.472656 24.886719 19.753906 23.964844 22.203125 20.886719 L 17.507812 17.15625 C 16.839844 17.992188 15.671875 18.242188 14.722656 17.75 C 13.769531 17.261719 13.292969 16.167969 13.585938 15.132812 C 13.878906 14.101562 14.859375 13.421875 15.929688 13.503906 C 16.300781 13.539062 16.65625 13.660156 16.96875 13.863281 L 15.601562 15.230469 C 15.386719 15.441406 15.324219 15.761719 15.4375 16.039062 C 15.554688 16.3125 15.824219 16.496094 16.121094 16.492188 L 23.253906 16.492188 C 23.449219 16.496094 23.640625 16.417969 23.777344 16.277344 C 23.917969 16.136719 23.996094 15.949219 23.992188 15.75 L 23.992188 8.617188 C 23.996094 8.417969 23.914062 8.226562 23.769531 8.085938 C 23.625 7.945312 23.429688 7.871094 23.230469 7.878906 C 23.042969 7.886719 22.863281 7.964844 22.730469 8.101562 L 21.234375 9.597656 C 19.894531 8.398438 18.199219 7.671875 16.40625 7.527344 C 16.207031 7.511719 16.003906 7.5 15.804688 7.5 Z M 15.804688 7.5 "/>
</g>
<mask id="mask1">
  <g filter="url(#alpha)">
<rect x="0" y="0" width="24" height="24" style="fill:rgb(0%,0%,0%);fill-opacity:0.95;stroke:none;"/>
  </g>
</mask>
<linearGradient id="linear0" gradientUnits="userSpaceOnUse" x1="17" y1="8" x2="17" y2="17" gradientTransform="matrix(0.118434,0,0,0.117623,41.042439,11.048585)">
<stop offset="0" style="stop-color:rgb(0%,0%,54.901963%);stop-opacity:1;"/>
<stop offset="0.3553" style="stop-color:rgb(10.980392%,10.980392%,67.450982%);stop-opacity:1;"/>
<stop offset="0.6194" style="stop-color:rgb(3.137255%,3.137255%,58.431375%);stop-opacity:1;"/>
<stop offset="0.7574" style="stop-color:rgb(0%,0%,54.901963%);stop-opacity:1;"/>
<stop offset="1" style="stop-color:rgb(0%,0%,30.19608%);stop-opacity:1;"/>
</linearGradient>
<clipPath id="clip2">
  <rect x="0" y="0" width="24" height="24"/>
</clipPath>
<g id="surface8" clip-path="url(#clip2)">
<path style=" stroke:none;fill-rule:nonzero;fill:url(#linear0);" d="M 15.792969 9 C 12.761719 8.980469 10.089844 10.984375 9.257812 13.902344 C 8.375 16.996094 9.800781 20.28125 12.664062 21.753906 C 15.523438 23.222656 19.023438 22.472656 21.027344 19.953125 L 18.683594 18.085938 C 17.570312 19.480469 15.625 19.898438 14.035156 19.082031 C 12.449219 18.265625 11.65625 16.441406 12.144531 14.722656 C 12.632812 13.003906 14.265625 11.871094 16.050781 12.011719 C 17.339844 12.117188 18.449219 12.875 19.039062 13.960938 L 18 15 L 22.5 15 L 22.5 10.5 L 21.210938 11.789062 C 20.082031 10.234375 18.308594 9.183594 16.285156 9.019531 C 16.121094 9.007812 15.957031 9 15.792969 9 Z M 15.792969 9 "/>
</g>
<mask id="mask2">
  <g filter="url(#alpha)">
<rect x="0" y="0" width="24" height="24" style="fill:rgb(0%,0%,0%);fill-opacity:0.95;stroke:none;"/>
  </g>
</mask>
<radialGradient id="radial0" gradientUnits="userSpaceOnUse" cx="10.000115" cy="14.246079" fx="10.000115" fy="14.246079" r="4.500402" gradientTransform="matrix(1.5,-0.000000075,0.00000012,2.749754,-0.000172648,-17.798217)">
<stop offset="0" style="stop-color:rgb(34.117648%,34.117648%,100%);stop-opacity:1;"/>
<stop offset="0.3553" style="stop-color:rgb(13.333334%,24.705882%,81.960785%);stop-opacity:1;"/>
<stop offset="0.6194" style="stop-color:rgb(5.882353%,10.196079%,94.901961%);stop-opacity:1;"/>
<stop offset="0.7574" style="stop-color:rgb(0%,0%,81.176472%);stop-opacity:1;"/>
<stop offset="1" style="stop-color:rgb(0%,0%,55.686277%);stop-opacity:1;"/>
</radialGradient>
<clipPath id="clip3">
  <rect x="0" y="0" width="24" height="24"/>
</clipPath>
<g id="surface11" clip-path="url(#clip3)">
<path style=" stroke:none;fill-rule:nonzero;fill:url(#radial0);" d="M 15.792969 9 C 12.761719 8.980469 10.089844 10.984375 9.257812 13.902344 C 8.375 16.996094 9.800781 20.28125 12.664062 21.753906 C 15.523438 23.222656 19.023438 22.472656 21.027344 19.953125 L 18.683594 18.085938 C 17.570312 19.480469 15.625 19.898438 14.035156 19.082031 C 12.449219 18.265625 11.65625 16.441406 12.144531 14.722656 C 12.632812 13.003906 14.265625 11.871094 16.050781 12.011719 C 17.339844 12.117188 18.449219 12.875 19.039062 13.960938 L 18 15 L 22.5 15 L 22.5 10.5 L 21.210938 11.789062 C 20.082031 10.234375 18.308594 9.183594 16.285156 9.019531 C 16.121094 9.007812 15.957031 9 15.792969 9 Z M 15.792969 9 "/>
</g>
<mask id="mask3">
  <g filter="url(#alpha)">
<rect x="0" y="0" width="24" height="24" style="fill:rgb(0%,0%,0%);fill-opacity:0.42;stroke:none;"/>
  </g>
</mask>
<radialGradient id="radial1" gradientUnits="userSpaceOnUse" cx="6" cy="9.999972" fx="6" fy="9.999972" r="4.500402" gradientTransform="matrix(0.666607,0,0,1.499917,5.000357,0.0008745)">
<stop offset="0" style="stop-color:rgb(0%,0%,0%);stop-opacity:1;"/>
<stop offset="1" style="stop-color:rgb(0%,0%,0%);stop-opacity:0;"/>
</radialGradient>
<clipPath id="clip4">
  <rect x="0" y="0" width="24" height="24"/>
</clipPath>
<g id="surface14" clip-path="url(#clip4)">
<path style=" stroke:none;fill-rule:nonzero;fill:url(#radial1);" d="M 15.792969 9 C 12.761719 8.980469 10.089844 10.984375 9.257812 13.902344 C 8.375 16.996094 9.800781 20.28125 12.664062 21.753906 C 15.523438 23.222656 19.023438 22.472656 21.027344 19.953125 L 18.683594 18.085938 C 17.570312 19.480469 15.625 19.898438 14.035156 19.082031 C 12.449219 18.265625 11.65625 16.441406 12.144531 14.722656 C 12.632812 13.003906 14.265625 11.871094 16.050781 12.011719 C 17.339844 12.117188 18.449219 12.875 19.039062 13.960938 L 18 15 L 22.5 15 L 22.5 10.5 L 21.210938 11.789062 C 20.082031 10.234375 18.308594 9.183594 16.285156 9.019531 C 16.121094 9.007812 15.957031 9 15.792969 9 Z M 15.792969 9 "/>
</g>
<mask id="mask4">
  <g filter="url(#alpha)">
<rect x="0" y="0" width="24" height="24" style="fill:rgb(0%,0%,0%);fill-opacity:0.798;stroke:none;"/>
  </g>
</mask>
<radialGradient id="radial2" gradientUnits="userSpaceOnUse" cx="10.499598" cy="10.500055" fx="10.499598" fy="10.500055" r="4.500402" gradientTransform="matrix(1.5,0,0,1.499917,0.00000135166,0.0008745)">
<stop offset="0" style="stop-color:rgb(0%,0%,0%);stop-opacity:1;"/>
<stop offset="1" style="stop-color:rgb(0%,0%,0%);stop-opacity:0;"/>
</radialGradient>
<clipPath id="clip5">
  <rect x="0" y="0" width="24" height="24"/>
</clipPath>
<g id="surface17" clip-path="url(#clip5)">
<path style=" stroke:none;fill-rule:nonzero;fill:url(#radial2);" d="M 15.792969 9 C 12.761719 8.980469 10.089844 10.984375 9.257812 13.902344 C 8.375 16.996094 9.800781 20.28125 12.664062 21.753906 C 15.523438 23.222656 19.023438 22.472656 21.027344 19.953125 L 18.683594 18.085938 C 17.570312 19.480469 15.625 19.898438 14.035156 19.082031 C 12.449219 18.265625 11.65625 16.441406 12.144531 14.722656 C 12.632812 13.003906 14.265625 11.871094 16.050781 12.011719 C 17.339844 12.117188 18.449219 12.875 19.039062 13.960938 L 18 15 L 22.5 15 L 22.5 10.5 L 21.210938 11.789062 C 20.082031 10.234375 18.308594 9.183594 16.285156 9.019531 C 16.121094 9.007812 15.957031 9 15.792969 9 Z M 15.792969 9 "/>
</g>
<mask id="mask5">
  <g filter="url(#alpha)">
<rect x="0" y="0" width="24" height="24" style="fill:rgb(0%,0%,0%);fill-opacity:0.95;stroke:none;"/>
  </g>
</mask>
<radialGradient id="radial3" gradientUnits="userSpaceOnUse" cx="13" cy="9.999972" fx="13" fy="9.999972" r="4.500402" gradientTransform="matrix(1.053999,0.00000009,-0.000000075,0.999911,5.79802,5.00092)">
<stop offset="0" style="stop-color:rgb(0%,0%,100%);stop-opacity:1;"/>
<stop offset="1" style="stop-color:rgb(0%,0%,30.19608%);stop-opacity:0;"/>
</radialGradient>
<clipPath id="clip6">
  <rect x="0" y="0" width="24" height="24"/>
</clipPath>
<g id="surface20" clip-path="url(#clip6)">
<path style=" stroke:none;fill-rule:nonzero;fill:url(#radial3);" d="M 15.792969 9 C 12.761719 8.980469 10.089844 10.984375 9.257812 13.902344 C 8.375 16.996094 9.800781 20.28125 12.664062 21.753906 C 15.523438 23.222656 19.023438 22.472656 21.027344 19.953125 L 18.683594 18.085938 C 17.570312 19.480469 15.625 19.898438 14.035156 19.082031 C 12.449219 18.265625 11.65625 16.441406 12.144531 14.722656 C 12.632812 13.003906 14.265625 11.871094 16.050781 12.011719 C 17.339844 12.117188 18.449219 12.875 19.039062 13.960938 L 18 15 L 22.5 15 L 22.5 10.5 L 21.210938 11.789062 C 20.082031 10.234375 18.308594 9.183594 16.285156 9.019531 C 16.121094 9.007812 15.957031 9 15.792969 9 Z M 15.792969 9 "/>
</g>
<mask id="mask6">
  <g filter="url(#alpha)">
<rect x="0" y="0" width="24" height="24" style="fill:rgb(0%,0%,0%);fill-opacity:0.95;stroke:none;"/>
  </g>
</mask>
<clipPath id="clip7">
  <rect x="0" y="0" width="24" height="24"/>
</clipPath>
<g id="surface23" clip-path="url(#clip7)">
<path style=" stroke:none;fill-rule:nonzero;fill:rgb(94.117647%,89.019608%,92.54902%);fill-opacity:1;" d="M 15.792969 9 C 12.761719 8.980469 10.089844 10.984375 9.257812 13.902344 C 8.375 16.996094 9.800781 20.28125 12.664062 21.753906 C 15.523438 23.222656 19.023438 22.472656 21.027344 19.953125 L 18.683594 18.085938 C 17.570312 19.480469 15.625 19.898438 14.035156 19.082031 C 12.449219 18.265625 11.65625 16.441406 12.144531 14.722656 C 12.632812 13.003906 14.265625 11.871094 16.050781 12.011719 C 17.339844 12.117188 18.449219 12.875 19.039062 13.960938 L 18 15 L 22.5 15 L 22.5 10.5 L 21.210938 11.789062 C 20.082031 10.234375 18.308594 9.183594 16.285156 9.019531 C 16.121094 9.007812 15.957031 9 15.792969 9 Z M 15.792969 9 "/>
</g>
</defs>
<g id="surface1">
<path style=" stroke:none;fill-rule:nonzero;fill:rgb(90.196079%,0.784314%,70.588237%);fill-opacity:1;" d="M 3 1.5 L 3 22.5 L 14.46875 22.5 C 14.570312 22.5 14.664062 22.460938 14.734375 22.390625 L 20.890625 16.234375 C 20.960938 16.164062 21 16.070312 21 15.96875 L 21 1.5 Z M 3 1.5 "/>
<path style=" stroke:none;fill-rule:nonzero;fill:rgb(94.117647%,89.019608%,92.54902%);fill-opacity:1;" d="M 4.628906 3 C 4.527344 3 4.445312 3.082031 4.445312 3.183594 L 4.5 20.816406 C 4.5 20.917969 4.582031 21 4.683594 21 L 14.417969 21 C 14.464844 21 14.511719 20.980469 14.546875 20.945312 L 19.445312 16.027344 C 19.480469 15.992188 19.5 15.945312 19.5 15.898438 L 19.5 3.183594 C 19.5 3.082031 19.417969 3 19.316406 3 Z M 4.628906 3 "/>
<path style=" stroke:none;fill-rule:nonzero;fill:rgb(90.196079%,0.784314%,70.588237%);fill-opacity:1;" d="M 14.734375 22.390625 C 14.734375 22.390625 16.96875 20.53125 18 19.5 C 19.03125 18.46875 20.890625 16.234375 20.890625 16.234375 C 20.890625 16.234375 16.921875 16.5 15 16.5 C 15 18.421875 14.734375 22.390625 14.734375 22.390625 Z M 14.734375 22.390625 "/>
<path style=" stroke:none;fill-rule:nonzero;fill:rgb(94.117647%,89.019608%,92.54902%);fill-opacity:1;" d="M 1.5 7.5 L 15 7.5 L 15 23.25 L 1.5 23.25 Z M 1.5 7.5 "/>
<path style="fill-rule:nonzero;fill:rgb(95.294118%,71.764708%,85.09804%);fill-opacity:1;stroke-width:0.0661458;stroke-linecap:round;stroke-linejoin:round;stroke:rgb(90.196079%,0.784314%,70.588237%);stroke-opacity:1;stroke-miterlimit:4;" d="M 0.0330727 1.156174 L 0.0330727 4.198883 L 2.94349 4.198883 L 2.94349 1.156174 Z M 0.297656 1.2926 L 1.355989 1.2926 L 1.355989 2.08635 L 0.297656 2.08635 Z M 1.620573 1.2926 L 2.678906 1.2926 L 2.678906 2.08635 L 1.620573 2.08635 Z M 0.297656 2.218642 L 1.355989 2.218642 L 1.355989 3.140549 L 0.297656 3.140549 Z M 1.620573 2.218642 L 2.678906 2.218642 L 2.678906 3.140549 L 1.620573 3.140549 Z M 0.297656 3.272841 L 1.355989 3.272841 L 1.355989 4.070725 L 0.297656 4.070725 Z M 1.620573 3.272841 L 2.678906 3.272841 L 2.678906 4.070725 L 1.620573 4.070725 Z M 1.620573 3.272841 " transform="matrix(5.669291,0,0,5.669291,0.00000135166,0)"/>
<use xlink:href="#surface5" mask="url(#mask0)"/>
<use xlink:href="#surface8" mask="url(#mask1)"/>
<use xlink:href="#surface11" mask="url(#mask2)"/>
<use xlink:href="#surface14" mask="url(#mask3)"/>
<use xlink:href="#surface17" mask="url(#mask4)"/>
<use xlink:href="#surface20" mask="url(#mask5)"/>
<use xlink:href="#surface23" mask="url(#mask6)"/>
</g>
</svg>
