<?xml version="1.0" encoding="UTF-8"?>
<svg xmlns="http://www.w3.org/2000/svg" xmlns:xlink="http://www.w3.org/1999/xlink" width="24px" height="24px" viewBox="0 0 24 24" version="1.1">
<g id="surface1">
<path style=" stroke:none;fill-rule:nonzero;fill:rgb(33.333334%,34.117648%,32.549021%);fill-opacity:1;" d="M 0 1.5 L 0 19.5 L 6 19.5 L 6 16.5 L 3 16.5 L 3 12 L 21 12 L 21 16.5 L 18 16.5 L 18 19.5 L 24 19.5 L 24 1.5 Z M 3 4.5 L 7.5 4.5 L 7.5 9 L 3 9 Z M 9 4.5 L 15 4.5 L 15 9 L 9 9 Z M 16.5 4.5 L 21 4.5 L 21 9 L 16.5 9 Z M 10.5 15 L 10.5 19.027344 L 10.078125 18.46875 C 9.792969 18.195312 9.335938 18 9 18 L 7.5 18 L 7.5 19.5 C 7.5 19.964844 7.636719 20.328125 7.921875 20.625 C 9.078125 22.148438 9.902344 22.914062 10.832031 24 L 13.253906 24 L 16.078125 20.625 C 16.363281 20.328125 16.5 19.964844 16.5 19.5 L 16.5 18 L 15 18 C 14.613281 18 14.207031 18.195312 13.921875 18.46875 L 13.5 19.027344 L 13.5 15 Z M 10.5 15 "/>
</g>
</svg>
