<?xml version="1.0" encoding="UTF-8"?>
<svg xmlns="http://www.w3.org/2000/svg" xmlns:xlink="http://www.w3.org/1999/xlink" width="24px" height="24px" viewBox="0 0 24 24" version="1.1">
<g id="surface1">
<path style=" stroke:none;fill-rule:nonzero;fill:rgb(33.333334%,34.117648%,32.549021%);fill-opacity:1;" d="M 3 3 C 2.167969 3 1.5 3.667969 1.5 4.5 L 1.5 22.5 L 6 18 L 6 15.878906 L 6.878906 15 L 4.5 15 L 4.5 6 L 15.878906 6 L 18.878906 3 Z M 21 3 L 19.5 4.5 L 22.5 7.5 L 24 6 C 23.804688 3.964844 22.613281 3.214844 21 3 Z M 18 6 L 7.5 16.5 L 7.5 19.5 L 10.5 19.5 L 21 9 Z M 22.5 9.625 C 21.5 10.625 20.5 11.625 19.5 12.625 L 19.5 15 L 17.121094 15 C 16.121094 16 15.121094 17 14.121094 18 L 21 18 C 21.832031 18 22.5 17.332031 22.5 16.5 Z M 22.5 9.625 "/>
</g>
</svg>
