<?xml version="1.0" encoding="UTF-8"?>
<svg xmlns="http://www.w3.org/2000/svg" xmlns:xlink="http://www.w3.org/1999/xlink" width="24px" height="24px" viewBox="0 0 24 24" version="1.1">
<defs>
<filter id="alpha" filterUnits="objectBoundingBox" x="0%" y="0%" width="100%" height="100%">
  <feColorMatrix type="matrix" in="SourceGraphic" values="0 0 0 0 1 0 0 0 0 1 0 0 0 0 1 0 0 0 1 0"/>
</filter>
<mask id="mask0">
  <g filter="url(#alpha)">
<rect x="0" y="0" width="24" height="24" style="fill:rgb(0%,0%,0%);fill-opacity:0.35;stroke:none;"/>
  </g>
</mask>
<clipPath id="clip1">
  <rect x="0" y="0" width="24" height="24"/>
</clipPath>
<g id="surface5" clip-path="url(#clip1)">
<path style=" stroke:none;fill-rule:nonzero;fill:rgb(33.333334%,34.117648%,32.549021%);fill-opacity:1;" d="M 3 3 L 3 13.5 L 6 13.5 L 6 12.886719 L 13.5 5.386719 L 13.5 3 Z M 3 3 "/>
</g>
</defs>
<g id="surface1">
<use xlink:href="#surface5" mask="url(#mask0)"/>
<path style=" stroke:none;fill-rule:nonzero;fill:rgb(33.333334%,34.117648%,32.549021%);fill-opacity:1;" d="M 0 0 L 0 16.5 L 1.5 16.5 L 1.5 22.5 L 9 22.5 L 9 18 L 7.5 18 L 7.5 21 L 3 21 L 3 16.5 L 6 16.5 L 6 13.5 L 3 13.5 L 3 9 L 7.5 9 L 7.5 11.386719 L 9 9.886719 L 9 9 L 9.886719 9 L 11.386719 7.5 L 9 7.5 L 9 3 L 13.5 3 L 13.5 5.386719 L 16.949219 1.949219 L 17.386719 1.5 L 16.5 1.5 L 16.5 0 Z M 21 0 L 19.5 1.5 L 22.5 4.5 L 24 3 C 23.851562 0.960938 22.648438 0.148438 21 0 Z M 3 3 L 7.5 3 L 7.5 7.5 L 3 7.5 Z M 18 3 L 7.5 13.5 L 7.5 16.5 L 10.5 16.5 L 21 6 Z M 22.5 6.601562 L 20.101562 9 L 21 9 L 21 10.5 L 22.5 10.5 Z M 17.101562 12 L 15.601562 13.5 L 21 13.5 L 21 12 Z M 14.101562 15 L 11.101562 18 L 10.5 18 L 10.5 19.5 C 10.5 20.332031 11.167969 21 12 21 L 12 18 L 22.5 18 L 22.5 21 C 23.332031 21 24 20.332031 24 19.5 L 24 16.5 C 24 15.667969 23.332031 15 22.5 15 Z M 13.5 19.5 L 13.5 24 L 21 24 L 21 19.5 Z M 13.5 19.5 "/>
</g>
</svg>
