<?xml version="1.0" encoding="UTF-8"?>
<svg xmlns="http://www.w3.org/2000/svg" xmlns:xlink="http://www.w3.org/1999/xlink" width="24px" height="24px" viewBox="0 0 24 24" version="1.1">
<g id="surface1">
<path style=" stroke:none;fill-rule:nonzero;fill:rgb(33.333334%,34.117648%,32.549021%);fill-opacity:1;" d="M 1.5 1.5 L 1.5 4.5 L 4.5 4.5 L 4.5 1.5 Z M 13.5 1.5 L 13.5 4.5 L 16.5 4.5 L 16.5 1.5 Z M 9.75 4.5 C 6.851562 4.5 4.5 6.851562 4.5 9.75 C 4.5 12.648438 6.851562 15 9.75 15 C 12.648438 15 15 12.648438 15 9.75 C 15 6.851562 12.648438 4.5 9.75 4.5 Z M 19.5 4.5 L 19.5 7.5 L 22.5 7.5 L 22.5 4.5 Z M 16.449219 9 C 16.480469 9.25 16.5 9.5 16.5 9.75 C 16.496094 11.085938 16.097656 12.390625 15.351562 13.5 L 19.5 13.5 L 19.5 9 Z M 1.5 15 L 1.5 18 L 4.5 18 L 4.5 15 Z M 18 15 L 18 16.5 C 18 16.898438 18.140625 17.296875 18.421875 17.578125 L 18.84375 18 L 12 18 L 12 21 L 18.84375 21 L 18.421875 21.421875 C 18.140625 21.703125 18 22.101562 18 22.5 L 18 24 L 19.5 24 C 19.898438 24 20.296875 23.859375 20.578125 23.578125 L 24 20.15625 L 24 18.84375 L 20.578125 15.421875 C 20.296875 15.140625 19.898438 15 19.5 15 Z M 7.5 19.5 L 7.5 22.5 L 10.5 22.5 L 10.5 19.5 Z M 7.5 19.5 "/>
</g>
</svg>
