<?xml version="1.0" encoding="UTF-8"?>
<svg xmlns="http://www.w3.org/2000/svg" xmlns:xlink="http://www.w3.org/1999/xlink" width="24px" height="24px" viewBox="0 0 24 24" version="1.1">
<g id="surface1">
<path style=" stroke:none;fill-rule:nonzero;fill:rgb(33.333334%,34.117648%,32.549021%);fill-opacity:1;" d="M 1.5 0 C 0.667969 0 0 0.667969 0 1.5 L 0 4.5 C 0 5.332031 0.667969 6 1.5 6 L 3 6 L 3 4.5 C 3 3.671875 3.671875 3 4.5 3 L 7.5 3 L 7.5 14.300781 L 7.550781 14.324219 L 12 9.878906 L 12 3 L 15 3 C 15.828125 3 16.5 3.671875 16.5 4.5 L 16.5 5.378906 L 19.5 2.378906 L 19.5 1.5 C 19.5 0.667969 18.832031 0 18 0 Z M 21 3 L 19.5 4.5 L 22.5 7.5 L 24 6 C 23.804688 3.964844 22.613281 3.214844 21 3 Z M 18 6 L 7.5 16.5 L 7.5 19.5 L 10.5 19.5 L 21 9 Z M 0 12 L 0 24 L 22.5 24 L 13.121094 19 C 12.457031 19.667969 11.789062 20.332031 11.121094 21 L 3 21 L 3 16.5 L 6 18.300781 L 6 15.878906 L 6.441406 15.4375 Z M 0 12 "/>
</g>
</svg>
