<?xml version="1.0" encoding="UTF-8"?>
<svg xmlns="http://www.w3.org/2000/svg" xmlns:xlink="http://www.w3.org/1999/xlink" width="24px" height="24px" viewBox="0 0 24 24" version="1.1">
<g id="surface1">
<path style=" stroke:none;fill-rule:nonzero;fill:rgb(33.333334%,34.117648%,32.549021%);fill-opacity:1;" d="M 1.5 1.5 L 1.5 22.5 L 15 22.5 L 15 19.5 L 4.5 19.5 L 4.5 4.5 L 12 4.5 L 12 9 L 19.5 9 L 19.5 7.5 L 13.5 1.5 Z M 16.5 10.5 L 16.5 12 C 16.5 12.398438 16.640625 12.796875 16.921875 13.078125 L 17.34375 13.5 L 9 13.5 L 9 16.5 L 17.34375 16.5 L 16.921875 16.921875 C 16.640625 17.203125 16.5 17.601562 16.5 18 L 16.5 19.5 L 18 19.5 C 18.398438 19.5 18.796875 19.359375 19.078125 19.078125 L 22.5 15.65625 L 22.5 14.34375 L 19.078125 10.921875 C 18.796875 10.640625 18.398438 10.5 18 10.5 Z M 16.5 10.5 "/>
</g>
</svg>
