<?xml version="1.0" encoding="UTF-8"?>
<svg xmlns="http://www.w3.org/2000/svg" xmlns:xlink="http://www.w3.org/1999/xlink" width="24px" height="24px" viewBox="0 0 24 24" version="1.1">
<g id="surface1">
<path style=" stroke:none;fill-rule:nonzero;fill:rgb(33.333334%,34.117648%,32.549021%);fill-opacity:1;" d="M 15 1.5 C 10.242188 1.5 6.230469 4.664062 4.941406 9 L 1.5 9 L 1.5 12 L 4.5 12 C 4.5 12.511719 4.550781 13.007812 4.648438 13.5 L 1.5 13.5 L 1.5 16.5 L 5.527344 16.5 C 7.199219 20.042969 10.8125 22.5 15 22.5 C 17.417969 22.496094 19.722656 21.664062 21.5625 20.183594 L 19.484375 18 C 18.191406 18.96875 16.617188 19.5 15 19.5 C 12.554688 19.5 10.40625 18.3125 9.035156 16.5 L 13.5 16.5 L 13.5 13.5 L 7.648438 13.5 C 7.550781 13.015625 7.5 12.511719 7.5 12 L 15 12 L 15 9 L 8.132812 9 C 9.292969 6.355469 11.925781 4.5 15 4.5 C 16.617188 4.503906 18.191406 5.03125 19.484375 6 L 21.324219 3.621094 C 19.523438 2.261719 17.3125 1.5 15 1.5 Z M 15 1.5 "/>
</g>
</svg>
