<?xml version="1.0" encoding="UTF-8"?>
<svg xmlns="http://www.w3.org/2000/svg" xmlns:xlink="http://www.w3.org/1999/xlink" width="24px" height="24px" viewBox="0 0 24 24" version="1.1">
<g id="surface1">
<path style=" stroke:none;fill-rule:nonzero;fill:rgb(33.333334%,34.117648%,32.549021%);fill-opacity:1;" d="M 13.5 1.5 C 7.699219 1.5 3 6.199219 3 12 L 0 12 L 4.5 16.5 L 9 12 L 6 12 C 6 7.859375 9.359375 4.5 13.5 4.5 C 17.640625 4.5 21 7.859375 21 12 C 21 16.140625 17.640625 19.5 13.5 19.5 L 13.5 22.5 C 19.300781 22.5 24 17.800781 24 12 C 24 6.199219 19.300781 1.5 13.5 1.5 Z M 13.5 9 C 11.84375 9 10.5 10.34375 10.5 12 C 10.5 13.65625 11.84375 15 13.5 15 C 15.15625 15 16.5 13.65625 16.5 12 C 16.5 10.34375 15.15625 9 13.5 9 Z M 13.5 9 "/>
</g>
</svg>
