<?xml version="1.0" encoding="UTF-8"?>
<svg xmlns="http://www.w3.org/2000/svg" xmlns:xlink="http://www.w3.org/1999/xlink" width="24px" height="24px" viewBox="0 0 24 24" version="1.1">
<g id="surface1">
<path style=" stroke:none;fill-rule:nonzero;fill:rgb(33.333334%,34.117648%,32.549021%);fill-opacity:1;" d="M 22.5 13.5 C 22.5 7.699219 17.800781 3 12 3 L 12 0 L 7.5 4.5 L 12 9 L 12 6 C 16.140625 6 19.5 9.359375 19.5 13.5 C 19.5 17.640625 16.140625 21 12 21 C 7.859375 21 4.5 17.640625 4.5 13.5 L 1.5 13.5 C 1.5 19.300781 6.199219 24 12 24 C 17.800781 24 22.5 19.300781 22.5 13.5 Z M 15 13.5 C 15 11.84375 13.65625 10.5 12 10.5 C 10.34375 10.5 9 11.84375 9 13.5 C 9 15.15625 10.34375 16.5 12 16.5 C 13.65625 16.5 15 15.15625 15 13.5 Z M 15 13.5 "/>
</g>
</svg>
