<?xml version="1.0" encoding="UTF-8"?>
<svg xmlns="http://www.w3.org/2000/svg" xmlns:xlink="http://www.w3.org/1999/xlink" width="24px" height="24px" viewBox="0 0 24 24" version="1.1">
<g id="surface1">
<path style=" stroke:none;fill-rule:nonzero;fill:rgb(33.333334%,34.117648%,32.549021%);fill-opacity:1;" d="M 9 1.351562 L 8.398438 3.898438 L 5.851562 4.5 L 5.851562 5.976562 L 8.382812 6.617188 L 9.023438 9.183594 L 10.476562 9.183594 L 11.117188 6.617188 L 13.683594 6 L 13.683594 4.5 L 11.117188 3.882812 L 10.476562 1.320312 L 9.023438 1.320312 Z M 4.5 7.199219 L 4.5 9 L 7.433594 9 L 7.144531 7.855469 L 4.5 7.191406 Z M 13.988281 7.5 L 12 9.304688 L 22.195312 19.5 L 24 19.5 L 24 17.65625 Z M 6 12 C 3.515625 12 1.5 14.015625 1.5 16.5 C 1.5 18.984375 3.515625 21 6 21 L 16.5 21 L 16.5 15.925781 L 12.570312 12 Z M 6 15 L 13.5 15 L 13.5 18 L 6 18 C 5.171875 18 4.5 17.328125 4.5 16.5 C 4.5 15.671875 5.171875 15 6 15 Z M 6 15 "/>
</g>
</svg>
