<?xml version="1.0" encoding="UTF-8"?>
<svg xmlns="http://www.w3.org/2000/svg" xmlns:xlink="http://www.w3.org/1999/xlink" width="24px" height="24px" viewBox="0 0 24 24" version="1.1">
<g id="surface1">
<path style=" stroke:none;fill-rule:nonzero;fill:rgb(33.333334%,34.117648%,32.549021%);fill-opacity:1;" d="M 1.5 1.5 L 1.5 22.5 L 15 22.5 L 15 22.128906 C 14.136719 21.835938 13.261719 21.351562 12.460938 20.582031 L 12 20.136719 L 12 19.5 L 4.5 19.5 L 4.5 4.5 L 12 4.5 L 12 9 L 19.5 9 L 19.5 7.5 L 13.5 1.5 Z M 16.5 10.5 L 16.5 12 L 20.121094 12 L 20.550781 12.449219 C 21.601562 13.5 22.136719 14.632812 22.351562 15.792969 L 22.5 15.65625 L 22.5 14.34375 L 19.078125 10.921875 C 18.796875 10.640625 18.398438 10.5 18 10.5 Z M 9 13.5 L 9 16.5 L 16.5 16.5 L 16.5 13.5 Z M 18 13.5 L 18 15 C 20.339844 17.398438 17.148438 20.25 15 18 L 13.5 18 L 13.5 19.5 C 14.699219 20.65625 15.960938 21 17.101562 21 L 19.5 21 L 22.5 24 L 24 24 L 24 22.5 L 21 19.5 L 21 17.101562 C 21 15.75 20.699219 14.699219 19.5 13.5 Z M 18 13.5 "/>
</g>
</svg>
