<?xml version="1.0" encoding="UTF-8"?>
<svg xmlns="http://www.w3.org/2000/svg" xmlns:xlink="http://www.w3.org/1999/xlink" width="24px" height="24px" viewBox="0 0 24 24" version="1.1">
<g id="surface1">
<path style=" stroke:none;fill-rule:nonzero;fill:rgb(33.333334%,34.117648%,32.549021%);fill-opacity:1;" d="M 12 0 L 9.816406 3.277344 C 10.527344 3.097656 11.261719 3.003906 12 3 C 12.738281 3.003906 13.472656 3.097656 14.1875 3.28125 Z M 3.515625 3.515625 L 4.289062 7.351562 C 5.046875 6.097656 6.097656 5.046875 7.351562 4.289062 Z M 20.484375 3.515625 L 16.648438 4.289062 C 17.902344 5.046875 18.953125 6.097656 19.710938 7.351562 Z M 12 4.5 C 7.859375 4.5 4.5 7.859375 4.5 12 C 4.5 16.140625 7.859375 19.5 12 19.5 C 16.140625 19.5 19.5 16.140625 19.5 12 C 19.5 7.859375 16.140625 4.5 12 4.5 Z M 12 7.5 C 14.484375 7.5 16.5 9.515625 16.5 12 C 16.5 14.484375 14.484375 16.5 12 16.5 C 9.515625 16.5 7.5 14.484375 7.5 12 C 7.5 9.515625 9.515625 7.5 12 7.5 Z M 3.28125 9.8125 L 0 12 L 3.277344 14.183594 C 3.097656 13.472656 3.003906 12.738281 3 12 C 3.003906 11.261719 3.097656 10.527344 3.28125 9.8125 Z M 20.722656 9.816406 C 20.902344 10.527344 20.996094 11.261719 21 12 C 20.996094 12.738281 20.902344 13.472656 20.71875 14.1875 L 24 12 Z M 4.289062 16.648438 L 3.515625 20.484375 L 7.351562 19.710938 C 6.097656 18.953125 5.046875 17.902344 4.289062 16.648438 Z M 19.710938 16.648438 C 18.953125 17.902344 17.902344 18.953125 16.648438 19.710938 L 20.484375 20.484375 Z M 9.8125 20.71875 L 12 24 L 14.183594 20.722656 C 13.472656 20.902344 12.738281 20.996094 12 21 C 11.261719 20.996094 10.527344 20.902344 9.8125 20.71875 Z M 9.8125 20.71875 "/>
</g>
</svg>
