<?xml version="1.0" encoding="UTF-8"?>
<svg xmlns="http://www.w3.org/2000/svg" xmlns:xlink="http://www.w3.org/1999/xlink" width="24px" height="24px" viewBox="0 0 24 24" version="1.1">
<g id="surface1">
<path style=" stroke:none;fill-rule:nonzero;fill:rgb(33.333334%,34.117648%,32.549021%);fill-opacity:1;" d="M 10.5 22.5 C 16.300781 22.5 21 17.800781 21 12 L 24 12 L 19.5 7.5 L 15 12 L 18 12 C 18 16.140625 14.640625 19.5 10.5 19.5 C 6.359375 19.5 3 16.140625 3 12 C 3 7.859375 6.359375 4.5 10.5 4.5 L 10.5 1.5 C 4.699219 1.5 0 6.199219 0 12 C 0 17.800781 4.699219 22.5 10.5 22.5 Z M 10.5 15 C 12.15625 15 13.5 13.65625 13.5 12 C 13.5 10.34375 12.15625 9 10.5 9 C 8.84375 9 7.5 10.34375 7.5 12 C 7.5 13.65625 8.84375 15 10.5 15 Z M 10.5 15 "/>
</g>
</svg>
