<?xml version="1.0" encoding="UTF-8"?>
<svg xmlns="http://www.w3.org/2000/svg" xmlns:xlink="http://www.w3.org/1999/xlink" width="24px" height="24px" viewBox="0 0 24 24" version="1.1">
<g id="surface1">
<path style=" stroke:none;fill-rule:nonzero;fill:rgb(33.333334%,34.117648%,32.549021%);fill-opacity:1;" d="M 19.5 1.5 C 19.5 3.246094 18 4.5 16.5 4.5 L 16.5 7.5 L 19.5 7.5 L 19.5 13.5 L 22.5 13.5 L 22.5 1.5 Z M 10.5 3 C 8.015625 3 6 5.015625 6 7.5 L 6 10.5 L 4.5 10.5 L 4.5 13.5 L 6 13.5 L 6 21 L 9 21 L 9 13.5 L 12 13.5 L 12 10.5 L 9 10.5 L 9 7.5 C 9 6.671875 9.671875 6 10.5 6 L 13.5 6 L 13.5 3 Z M 10.5 3 "/>
</g>
</svg>
