<?xml version="1.0" encoding="UTF-8"?>
<svg xmlns="http://www.w3.org/2000/svg" xmlns:xlink="http://www.w3.org/1999/xlink" width="24px" height="24px" viewBox="0 0 24 24" version="1.1">
<g id="surface1">
<path style=" stroke:none;fill-rule:nonzero;fill:rgb(33.333334%,34.117648%,32.549021%);fill-opacity:1;" d="M 13.5 0 L 13.5 21 L 24 21 L 24 0 Z M 1.5 3 L 1.5 24 L 12 24 L 12 3 Z M 16.5 3 L 21 3 L 21 18 L 16.5 18 L 16.5 15 L 19.5 15 L 19.5 12 L 16.5 12 L 16.5 9 L 19.5 9 L 19.5 6 L 16.5 6 Z M 4.5 6 L 9 6 L 9 21 L 4.5 21 L 4.5 18 L 7.5 18 L 7.5 15 L 4.5 15 L 4.5 12 L 7.5 12 L 7.5 9 L 4.5 9 Z M 4.5 6 "/>
</g>
</svg>
