<?xml version="1.0" encoding="UTF-8"?>
<svg xmlns="http://www.w3.org/2000/svg" xmlns:xlink="http://www.w3.org/1999/xlink" width="24px" height="24px" viewBox="0 0 24 24" version="1.1">
<g id="surface1">
<path style=" stroke:none;fill-rule:nonzero;fill:rgb(33.333334%,34.117648%,32.549021%);fill-opacity:1;" d="M 13.5 1.5 L 13.5 18 L 16.5 15 L 19.5 20.441406 L 22.5 19.5 L 19.5 13.5 L 24 13.5 Z M 6.75 4.5 C 3.851562 4.5 1.5 6.851562 1.5 9.75 L 4.5 9.75 C 4.5 8.507812 5.507812 7.5 6.75 7.5 C 7.992188 7.5 9 8.507812 9 9.75 C 9 10.992188 7.992188 12 6.75 12 L 6 12 L 6 18 L 9 18 L 9 14.488281 C 10.832031 13.621094 11.996094 11.777344 12 9.75 C 12 6.851562 9.648438 4.5 6.75 4.5 Z M 7.5 19.5 C 6.671875 19.5 6 20.171875 6 21 C 6 21.828125 6.671875 22.5 7.5 22.5 C 8.328125 22.5 9 21.828125 9 21 C 9 20.171875 8.328125 19.5 7.5 19.5 Z M 7.5 19.5 "/>
</g>
</svg>
