<?xml version="1.0" encoding="UTF-8"?>
<svg xmlns="http://www.w3.org/2000/svg" xmlns:xlink="http://www.w3.org/1999/xlink" width="24px" height="24px" viewBox="0 0 24 24" version="1.1">
<g id="surface1">
<path style=" stroke:none;fill-rule:nonzero;fill:rgb(33.333334%,34.117648%,32.549021%);fill-opacity:1;" d="M 19.5 3 L 19.5 4.5 C 19.5 4.886719 19.304688 5.292969 19.03125 5.578125 L 12 12 L 19.03125 18.421875 C 19.304688 18.707031 19.5 19.886719 19.5 19.5 L 19.5 21 L 18 21 C 17.535156 21 17.171875 20.863281 16.875 20.578125 C 14.75 18.96875 9.625 13.609375 7.5 12 L 16.875 3.421875 C 17.171875 3.136719 17.535156 3 18 3 Z M 6 3 L 6 21 L 3 21 L 3 3 Z M 19.5 10.5 C 20.328125 10.5 21 11.171875 21 12 C 21 12.828125 20.328125 13.5 19.5 13.5 C 18.671875 13.5 18 12.828125 18 12 C 18 11.171875 18.671875 10.5 19.5 10.5 Z M 19.5 10.5 "/>
</g>
</svg>
