<?xml version="1.0" encoding="UTF-8"?>
<svg xmlns="http://www.w3.org/2000/svg" xmlns:xlink="http://www.w3.org/1999/xlink" width="24px" height="24px" viewBox="0 0 24 24" version="1.1">
<g id="surface1">
<path style="fill-rule:nonzero;fill:rgb(90.196079%,0.784314%,70.588237%);fill-opacity:1;stroke-width:0.246219;stroke-linecap:round;stroke-linejoin:round;stroke:rgb(90.196079%,0.392157%,70.588237%);stroke-opacity:1;stroke-miterlimit:4;" d="M 13.749738 1.356933 C 13.984113 1.346516 14.210676 1.432453 14.379947 1.593912 C 14.549217 1.75537 14.645572 1.979328 14.645572 2.213703 L 14.645572 14.250162 C 14.645572 14.528808 14.510155 14.791828 14.280988 14.953287 C 14.051822 15.112141 13.760155 15.153808 13.497134 15.057453 L 1.460676 10.760578 C 1.11953 10.638183 0.890363 10.315266 0.890363 9.950683 L 0.890363 6.513183 C 0.890363 6.148599 1.11953 5.825683 1.460676 5.703287 L 13.497134 1.403808 C 13.580467 1.375162 13.663801 1.359537 13.749738 1.356933 Z M 13.749738 1.356933 " transform="matrix(1.5,0,0,1.5,0.348049,-0.347899)"/>
<path style="fill-rule:nonzero;fill:rgb(94.117647%,89.019608%,92.54902%);fill-opacity:1;stroke-width:0.237;stroke-linecap:butt;stroke-linejoin:miter;stroke:rgb(90.196079%,0.784314%,70.588237%);stroke-opacity:1;stroke-miterlimit:4;" d="M 13.767967 2.427245 L 1.767967 6.573078 L 1.767967 9.890787 L 13.767967 14.03662 Z M 13.767967 2.427245 " transform="matrix(1.5,0,0,1.5,0.348049,-0.347899)"/>
</g>
</svg>
