<?xml version="1.0" encoding="UTF-8"?>
<svg xmlns="http://www.w3.org/2000/svg" xmlns:xlink="http://www.w3.org/1999/xlink" width="24px" height="24px" viewBox="0 0 24 24" version="1.1">
<g id="surface1">
<path style=" stroke:none;fill-rule:nonzero;fill:rgb(90.196079%,0.784314%,70.588237%);fill-opacity:1;" d="M 10.46875 3 C 10.257812 3 10.046875 3.054688 9.859375 3.164062 L 2.191406 7.542969 C 1.765625 7.785156 1.5 8.257812 1.5 8.777344 L 1.5 15.414062 C 1.5 15.929688 1.765625 16.40625 2.191406 16.648438 L 9.859375 21.027344 C 10.046875 21.132812 10.257812 21.191406 10.46875 21.191406 L 13.53125 21.191406 C 13.742188 21.191406 13.953125 21.132812 14.140625 21.027344 L 21.808594 16.648438 C 22.234375 16.40625 22.5 15.929688 22.5 15.414062 L 22.5 8.777344 C 22.5 8.257812 22.234375 7.785156 21.808594 7.542969 L 14.140625 3.164062 C 13.953125 3.054688 13.742188 3 13.53125 3 Z M 10.46875 3 "/>
<path style=" stroke:none;fill-rule:nonzero;fill:rgb(94.117647%,89.019608%,92.54902%);fill-opacity:1;" d="M 10.527344 4.691406 L 3.152344 8.902344 L 3.152344 15.289062 L 10.527344 19.5 L 13.472656 19.5 L 20.847656 15.289062 L 20.847656 8.902344 L 13.472656 4.691406 Z M 10.527344 4.691406 "/>
</g>
</svg>
