<?xml version="1.0" encoding="UTF-8"?>
<svg xmlns="http://www.w3.org/2000/svg" xmlns:xlink="http://www.w3.org/1999/xlink" width="24px" height="24px" viewBox="0 0 24 24" version="1.1">
<g id="surface1">
<path style=" stroke:none;fill-rule:nonzero;fill:rgb(33.333334%,34.117648%,32.549021%);fill-opacity:1;" d="M 7.5 1.5 L 7.5 4.5 L 15 4.5 C 15.828125 4.5 16.5 5.171875 16.5 6 L 16.5 7.5 L 9 7.5 C 6.515625 7.5 4.5 9.515625 4.5 12 C 4.5 14.484375 6.515625 16.5 9 16.5 L 16.5 16.5 L 16.5 13.5 L 9 13.5 C 8.171875 13.5 7.5 12.828125 7.5 12 C 7.5 11.171875 8.171875 10.5 9 10.5 L 16.5 10.5 L 16.5 12 L 19.5 12 L 19.5 6 C 19.5 3.515625 17.484375 1.5 15 1.5 Z M 18 13.5 L 18 15 C 20.339844 17.4375 17.148438 20.246094 15 18 L 13.5 18 L 13.5 19.5 C 14.699219 20.65625 15.953125 21 17.101562 21 L 19.5 21 L 22.5 24 L 24 24 L 24 22.5 L 21 19.5 L 21 17.101562 C 21 15.777344 20.679688 14.699219 19.5 13.5 Z M 18 13.5 "/>
</g>
</svg>
