<?xml version="1.0" encoding="UTF-8"?>
<svg xmlns="http://www.w3.org/2000/svg" xmlns:xlink="http://www.w3.org/1999/xlink" width="24px" height="24px" viewBox="0 0 24 24" version="1.1">
<g id="surface1">
<path style=" stroke:none;fill-rule:nonzero;fill:rgb(90.196079%,0.784314%,70.588237%);fill-opacity:1;" d="M 6.75 3.019531 C 6.402344 3.019531 6.066406 3.179688 5.820312 3.464844 L 1.910156 7.964844 C 1.664062 8.25 1.527344 8.632812 1.527344 9.035156 L 1.527344 15.039062 C 1.527344 15.4375 1.664062 15.824219 1.910156 16.109375 L 5.820312 20.609375 C 6.066406 20.894531 6.402344 21.054688 6.75 21.054688 L 17.175781 21.054688 C 17.523438 21.054688 17.859375 20.894531 18.105469 20.609375 L 22.011719 16.109375 C 22.257812 15.824219 22.398438 15.4375 22.398438 15.039062 L 22.398438 9.035156 C 22.398438 8.632812 22.257812 8.25 22.011719 7.964844 L 18.105469 3.464844 C 17.859375 3.179688 17.523438 3.019531 17.175781 3.019531 Z M 6.75 3.019531 "/>
<path style=" stroke:none;fill-rule:nonzero;fill:rgb(94.117647%,89.019608%,92.54902%);fill-opacity:1;" d="M 6.855469 4.5 L 3 9 L 3 15 L 6.855469 19.5 L 17.144531 19.5 L 21 15 L 21 9 L 17.144531 4.5 Z M 6.855469 4.5 "/>
</g>
</svg>
