<?xml version="1.0" encoding="UTF-8"?>
<svg xmlns="http://www.w3.org/2000/svg" xmlns:xlink="http://www.w3.org/1999/xlink" width="24px" height="24px" viewBox="0 0 24 24" version="1.1">
<g id="surface1">
<path style="fill-rule:nonzero;fill:rgb(90.196079%,0.784314%,70.588237%);fill-opacity:1;stroke-width:0.246526;stroke-linecap:round;stroke-linejoin:round;stroke:rgb(90.980393%,12.54902%,73.333335%);stroke-opacity:1;stroke-miterlimit:4;" d="M 2 1.125 C 2.088542 1.127604 2.177083 1.143229 2.260417 1.174479 L 14.3125 5.479167 C 14.648438 5.598958 14.875 5.919271 14.875 6.278646 L 14.875 14.026042 C 14.875 14.359375 14.682292 14.661458 14.380208 14.799479 C 14.078125 14.9375 13.723958 14.888021 13.471354 14.671875 L 1.421875 4.34375 C 1.231771 4.182292 1.125 3.945312 1.125 3.697917 L 1.125 1.973958 C 1.125 1.744792 1.21875 1.526042 1.382812 1.364583 C 1.546875 1.205729 1.770833 1.117188 2 1.125 Z M 2 1.125 " transform="matrix(1.5,0,0,1.5,0,0)"/>
<path style=" stroke:none;fill-rule:nonzero;fill:rgb(94.117647%,89.019608%,92.54902%);fill-opacity:1;" d="M 21 9.445312 L 3 3.203125 L 3 5.699219 L 21 20.679688 Z M 21 9.445312 "/>
</g>
</svg>
