<?xml version="1.0" encoding="UTF-8"?>
<svg xmlns="http://www.w3.org/2000/svg" xmlns:xlink="http://www.w3.org/1999/xlink" width="24px" height="24px" viewBox="0 0 24 24" version="1.1">
<g id="surface1">
<path style="fill-rule:nonzero;fill:rgb(95.294118%,71.764708%,85.09804%);fill-opacity:1;stroke-width:1;stroke-linecap:round;stroke-linejoin:round;stroke:rgb(90.196079%,0.784314%,70.588237%);stroke-opacity:1;stroke-miterlimit:4;" d="M 7.999487 1.339502 C 5.106258 1.339502 2.757299 1.912418 2.757299 2.568668 C 2.757299 3.922835 6.83282 8.092106 6.83282 8.092106 C 6.851049 8.115543 6.869278 8.154606 6.869278 8.201481 L 6.869278 14.152002 C 6.869278 14.300439 7.072403 14.391585 7.869278 14.391585 C 8.653133 14.391585 9.132299 14.321273 9.132299 14.152002 C 9.132299 14.152002 9.132299 14.149398 9.132299 14.149398 L 9.127091 8.201481 C 9.127091 8.175439 9.129695 8.144189 9.142716 8.120752 C 9.142716 8.120752 13.226049 3.883773 13.226049 2.519189 C 13.226049 2.053043 10.89532 1.339502 7.999487 1.339502 Z M 7.999487 1.339502 " transform="matrix(1.5,0,0,1.5,0.0124887,0.201685)"/>
<path style=" stroke:none;fill-rule:nonzero;fill:rgb(61.56863%,22.745098%,60.784316%);fill-opacity:1;" d="M 12.011719 4.703125 C 9.164062 4.703125 6.800781 5.046875 6.425781 5.5 C 7.65625 5.789062 9.699219 5.980469 12.011719 5.980469 C 14.324219 5.980469 16.367188 5.792969 17.59375 5.503906 C 17.226562 5.050781 14.867188 4.703125 12.011719 4.703125 Z M 12.011719 4.703125 "/>
<path style="fill:none;stroke-width:1;stroke-linecap:round;stroke-linejoin:round;stroke:rgb(90.196079%,0.784314%,70.588237%);stroke-opacity:1;stroke-miterlimit:4;" d="M 13.173966 2.599918 C 13.173966 3.290023 10.856258 3.849918 7.994278 3.849918 C 5.132299 3.849918 2.811987 3.290023 2.811987 2.599918 C 2.811987 1.909814 5.132299 1.349918 7.994278 1.349918 C 10.856258 1.349918 13.173966 1.909814 13.173966 2.599918 Z M 13.173966 2.599918 " transform="matrix(1.5,0,0,1.5,0.0124887,0.201685)"/>
<path style=" stroke:none;fill-rule:nonzero;fill:rgb(61.56863%,22.745098%,60.784316%);fill-opacity:1;" d="M 12 10.5 L 21 10.5 C 21.828125 10.5 22.5 11.171875 22.5 12 L 22.5 21 C 22.5 21.828125 21.828125 22.5 21 22.5 L 12 22.5 C 11.171875 22.5 10.5 21.828125 10.5 21 L 10.5 12 C 10.5 11.171875 11.171875 10.5 12 10.5 Z M 12 10.5 "/>
<path style=" stroke:none;fill-rule:nonzero;fill:rgb(94.117647%,89.019608%,92.54902%);fill-opacity:1;" d="M 13.5 12 L 19.5 12 C 20.328125 12 21 12.671875 21 13.5 L 21 19.5 C 21 20.328125 20.328125 21 19.5 21 L 13.5 21 C 12.671875 21 12 20.328125 12 19.5 L 12 13.5 C 12 12.671875 12.671875 12 13.5 12 Z M 13.5 12 "/>
<path style="fill:none;stroke-width:1;stroke-linecap:round;stroke-linejoin:round;stroke:rgb(90.196079%,0.784314%,70.588237%);stroke-opacity:1;stroke-miterlimit:4;" d="M 9 11.098958 L 10.096354 12.697917 L 13 9.5 " transform="matrix(1.5,0,0,1.5,0,0)"/>
</g>
</svg>
