<?xml version="1.0" encoding="UTF-8"?>
<svg xmlns="http://www.w3.org/2000/svg" xmlns:xlink="http://www.w3.org/1999/xlink" width="24px" height="24px" viewBox="0 0 24 24" version="1.1">
<g id="surface1">
<path style=" stroke:none;fill-rule:nonzero;fill:rgb(90.196079%,0.784314%,70.588237%);fill-opacity:1;" d="M 7.953125 4.539062 C 5.308594 4.496094 3.808594 5.316406 2.238281 6.515625 C 1.886719 6.785156 1.527344 7.140625 1.527344 7.59375 L 1.527344 16.417969 C 1.527344 17.601562 3.175781 18.082031 3.910156 17.117188 C 4.976562 15.714844 5.792969 15.5 6.957031 15.621094 C 8.121094 15.746094 9.660156 16.464844 11.296875 17.4375 L 11.277344 17.425781 C 13.714844 18.941406 15.800781 19.636719 17.699219 19.53125 C 19.597656 19.425781 21.132812 18.445312 22.214844 17.164062 C 22.390625 16.949219 22.488281 16.6875 22.488281 16.417969 L 22.488281 7.59375 C 22.488281 6.46875 20.976562 5.953125 20.183594 6.804688 C 19.101562 7.96875 18.109375 8.449219 17.019531 8.46875 C 15.929688 8.488281 14.550781 8 12.859375 6.671875 L 12.925781 6.730469 C 11.269531 5.222656 9.535156 4.5625 7.953125 4.539062 Z M 7.953125 4.539062 "/>
<path style=" stroke:none;fill-rule:nonzero;fill:rgb(94.117647%,89.019608%,92.54902%);fill-opacity:1;" d="M 3.019531 7.609375 L 3.019531 16.488281 C 5.496094 13.144531 8.691406 14.464844 12 16.488281 C 16.511719 19.367188 19.15625 18.707031 20.980469 16.488281 L 20.980469 7.609375 C 18.554688 10.300781 15.605469 10.519531 12 7.609375 C 8.089844 3.675781 2.878906 7.394531 3.019531 7.609375 Z M 3.019531 7.609375 "/>
</g>
</svg>
