<?xml version="1.0" encoding="UTF-8"?>
<svg xmlns="http://www.w3.org/2000/svg" xmlns:xlink="http://www.w3.org/1999/xlink" width="24px" height="24px" viewBox="0 0 24 24" version="1.1">
<g id="surface1">
<path style=" stroke:none;fill-rule:nonzero;fill:rgb(61.960787%,22.745098%,61.176473%);fill-opacity:1;" d="M 1.5 2.265625 L 1.5 21.734375 C 1.5 22.15625 1.925781 22.5 2.449219 22.5 L 21.550781 22.5 C 22.074219 22.5 22.5 22.15625 22.5 21.734375 L 22.5 2.265625 C 22.5 1.84375 22.074219 1.5 21.550781 1.5 L 2.449219 1.5 C 1.925781 1.5 1.5 1.84375 1.5 2.265625 Z M 1.5 2.265625 "/>
<path style=" stroke:none;fill-rule:evenodd;fill:rgb(94.117647%,89.019608%,92.54902%);fill-opacity:1;" d="M 3 4.21875 L 3 19.78125 C 3 20.453125 3.585938 21 4.3125 21 L 19.6875 21 C 20.414062 21 21 20.453125 21 19.78125 L 21 4.21875 C 21 3.546875 20.414062 3 19.6875 3 L 4.3125 3 C 3.585938 3 3 3.546875 3 4.21875 Z M 3 4.21875 "/>
<path style="fill-rule:evenodd;fill:rgb(94.117647%,89.019608%,92.54902%);fill-opacity:1;stroke-width:3.20664;stroke-linecap:round;stroke-linejoin:round;stroke:rgb(94.117647%,89.019608%,92.54902%);stroke-opacity:1;stroke-miterlimit:4;" d="M 15.942627 8.510249 L 20.076084 8.510249 C 21.390523 8.510249 22.456955 9.598388 22.456955 10.939582 L 22.456955 20.070668 C 22.456955 21.411862 21.390523 22.500001 20.076084 22.500001 L 15.942627 22.500001 C 14.628188 22.500001 13.561756 21.411862 13.561756 20.070668 L 13.561756 10.939582 C 13.561756 9.598388 14.628188 8.510249 15.942627 8.510249 Z M 15.942627 8.510249 " transform="matrix(0.945032,0,0,0.92618,-0.222548,0.160944)"/>
<path style="fill-rule:evenodd;fill:rgb(94.117647%,89.019608%,92.54902%);fill-opacity:1;stroke-width:3.20664;stroke-linecap:round;stroke-linejoin:round;stroke:rgb(94.117647%,89.019608%,92.54902%);stroke-opacity:1;stroke-miterlimit:4;" d="M 17.881219 11.500522 L 18.120959 11.500522 C 19.435398 11.500522 20.50183 12.58866 20.50183 13.929854 L 20.50183 18.071529 C 20.50183 19.412724 19.435398 20.500862 18.120959 20.500862 L 17.881219 20.500862 C 16.566779 20.500862 15.500348 19.412724 15.500348 18.071529 L 15.500348 13.929854 C 15.500348 12.58866 16.566779 11.500522 17.881219 11.500522 Z M 17.881219 11.500522 " transform="matrix(0.945032,0,0,0.92618,-0.222548,0.160944)"/>
<path style="fill-rule:evenodd;fill:rgb(94.117647%,89.019608%,92.54902%);fill-opacity:1;stroke-width:3.20664;stroke-linecap:round;stroke-linejoin:round;stroke:rgb(94.117647%,89.019608%,92.54902%);stroke-opacity:1;stroke-miterlimit:4;" d="M 18.422701 14.187128 C 18.422701 14.41066 18.236696 14.596234 18.005222 14.596234 C 17.777882 14.600452 17.587743 14.419095 17.587743 14.191345 C 17.58361 13.963595 17.765482 13.778021 17.996955 13.773804 C 18.224296 13.769586 18.414435 13.950942 18.418568 14.178692 L 18.005222 14.187128 Z M 18.422701 14.187128 " transform="matrix(0.945032,0,0,0.92618,-0.222548,0.160944)"/>
<path style="fill:none;stroke-width:3.20664;stroke-linecap:round;stroke-linejoin:round;stroke:rgb(94.117647%,89.019608%,92.54902%);stroke-opacity:1;stroke-miterlimit:4;" d="M 17.947354 16.899039 L 17.947354 19.425376 " transform="matrix(0.945032,0,0,0.92618,-0.222548,0.160944)"/>
<path style="fill-rule:evenodd;fill:rgb(94.117647%,89.019608%,92.54902%);fill-opacity:1;stroke-width:1.60332;stroke-linecap:round;stroke-linejoin:round;stroke:rgb(90.196079%,0.784314%,70.588237%);stroke-opacity:1;stroke-miterlimit:4;" d="M 15.942627 8.510249 L 20.076084 8.510249 C 21.390523 8.510249 22.456955 9.598388 22.456955 10.939582 L 22.456955 20.070668 C 22.456955 21.411862 21.390523 22.500001 20.076084 22.500001 L 15.942627 22.500001 C 14.628188 22.500001 13.561756 21.411862 13.561756 20.070668 L 13.561756 10.939582 C 13.561756 9.598388 14.628188 8.510249 15.942627 8.510249 Z M 15.942627 8.510249 " transform="matrix(0.945032,0,0,0.92618,-0.222548,0.160944)"/>
<path style="fill-rule:evenodd;fill:rgb(95.294118%,71.764708%,85.09804%);fill-opacity:1;stroke-width:1.60332;stroke-linecap:round;stroke-linejoin:round;stroke:rgb(90.196079%,0.784314%,70.588237%);stroke-opacity:1;stroke-miterlimit:4;" d="M 17.881219 11.500522 L 18.120959 11.500522 C 19.435398 11.500522 20.50183 12.58866 20.50183 13.929854 L 20.50183 18.071529 C 20.50183 19.412724 19.435398 20.500862 18.120959 20.500862 L 17.881219 20.500862 C 16.566779 20.500862 15.500348 19.412724 15.500348 18.071529 L 15.500348 13.929854 C 15.500348 12.58866 16.566779 11.500522 17.881219 11.500522 Z M 17.881219 11.500522 " transform="matrix(0.945032,0,0,0.92618,-0.222548,0.160944)"/>
<path style="fill:none;stroke-width:1.60332;stroke-linecap:round;stroke-linejoin:round;stroke:rgb(61.56863%,22.745098%,60.784316%);stroke-opacity:1;stroke-miterlimit:4;" d="M 18.422701 14.187128 C 18.422701 14.41066 18.236696 14.596234 18.005222 14.596234 C 17.777882 14.600452 17.587743 14.419095 17.587743 14.191345 C 17.58361 13.963595 17.765482 13.778021 17.996955 13.773804 C 18.224296 13.769586 18.414435 13.950942 18.418568 14.178692 L 18.005222 14.187128 Z M 18.422701 14.187128 " transform="matrix(0.945032,0,0,0.92618,-0.222548,0.160944)"/>
<path style="fill:none;stroke-width:1.60332;stroke-linecap:round;stroke-linejoin:round;stroke:rgb(90.196079%,0.784314%,70.588237%);stroke-opacity:1;stroke-miterlimit:4;" d="M 17.947354 16.899039 L 17.947354 19.425376 " transform="matrix(0.945032,0,0,0.92618,-0.222548,0.160944)"/>
</g>
</svg>
