<?xml version="1.0" encoding="UTF-8"?>
<svg xmlns="http://www.w3.org/2000/svg" xmlns:xlink="http://www.w3.org/1999/xlink" width="24px" height="24px" viewBox="0 0 24 24" version="1.1">
<defs>
<filter id="alpha" filterUnits="objectBoundingBox" x="0%" y="0%" width="100%" height="100%">
  <feColorMatrix type="matrix" in="SourceGraphic" values="0 0 0 0 1 0 0 0 0 1 0 0 0 0 1 0 0 0 1 0"/>
</filter>
<mask id="mask0">
  <g filter="url(#alpha)">
<rect x="0" y="0" width="24" height="24" style="fill:rgb(0%,0%,0%);fill-opacity:0.35;stroke:none;"/>
  </g>
</mask>
<clipPath id="clip1">
  <rect x="0" y="0" width="24" height="24"/>
</clipPath>
<g id="surface5" clip-path="url(#clip1)">
<path style=" stroke:none;fill-rule:nonzero;fill:rgb(33.333334%,34.117648%,32.549021%);fill-opacity:1;" d="M 6 4.5 C 3.515625 4.5 1.5 7.859375 1.5 12 C 1.5 16.140625 3.515625 19.5 6 19.5 L 14.691406 19.5 C 13.011719 17.835938 12 15.019531 12 12 C 12.003906 8.980469 13.011719 6.164062 14.691406 4.5 Z M 18 4.5 C 15.515625 4.5 13.5 7.859375 13.5 12 C 13.5 16.140625 15.515625 19.5 18 19.5 C 20.484375 19.5 22.5 16.140625 22.5 12 C 22.5 7.859375 20.484375 4.5 18 4.5 Z M 18 4.5 "/>
</g>
</defs>
<g id="surface1">
<use xlink:href="#surface5" mask="url(#mask0)"/>
<path style=" stroke:none;fill-rule:nonzero;fill:rgb(33.333334%,34.117648%,32.549021%);fill-opacity:1;" d="M 6 3 C 4.082031 3 2.519531 4.277344 1.53125 5.925781 C 0.542969 7.570312 0 9.6875 0 12 C 0 14.3125 0.542969 16.429688 1.53125 18.074219 C 2.519531 19.722656 4.082031 21 6 21 L 18.332031 21 L 18.25 20.917969 C 20.042969 20.800781 21.527344 19.644531 22.46875 18.074219 C 23.457031 16.429688 24 14.3125 24 12 C 24 9.6875 23.457031 7.570312 22.46875 5.925781 C 21.527344 4.359375 20.042969 3.199219 18.253906 3.082031 L 18.335938 3 Z M 6 6 L 12.050781 6 C 11.136719 7.785156 10.5 9.78125 10.5 12 C 10.5 14.21875 11.136719 16.214844 12.050781 18 L 6 18 C 5.433594 18 4.746094 17.601562 4.105469 16.53125 C 3.464844 15.464844 3 13.828125 3 12 C 3 10.171875 3.464844 8.535156 4.105469 7.46875 C 4.746094 6.398438 5.433594 6 6 6 Z M 18 6 C 18.566406 6 19.253906 6.398438 19.894531 7.46875 C 20.535156 8.535156 21 10.171875 21 12 C 21 13.828125 20.535156 15.464844 19.894531 16.53125 C 19.253906 17.601562 18.566406 18 18 18 C 17.433594 18 16.746094 17.601562 16.105469 16.53125 C 15.464844 15.464844 15 13.828125 15 12 C 15 10.171875 15.464844 8.535156 16.105469 7.46875 C 16.746094 6.398438 17.433594 6 18 6 Z M 18 6 "/>
</g>
</svg>
