<?xml version="1.0" encoding="UTF-8"?>
<svg xmlns="http://www.w3.org/2000/svg" xmlns:xlink="http://www.w3.org/1999/xlink" width="24px" height="24px" viewBox="0 0 24 24" version="1.1">
<defs>
<filter id="alpha" filterUnits="objectBoundingBox" x="0%" y="0%" width="100%" height="100%">
  <feColorMatrix type="matrix" in="SourceGraphic" values="0 0 0 0 1 0 0 0 0 1 0 0 0 0 1 0 0 0 1 0"/>
</filter>
<mask id="mask0">
  <g filter="url(#alpha)">
<rect x="0" y="0" width="24" height="24" style="fill:rgb(0%,0%,0%);fill-opacity:0.35;stroke:none;"/>
  </g>
</mask>
<clipPath id="clip1">
  <rect x="0" y="0" width="24" height="24"/>
</clipPath>
<g id="surface5" clip-path="url(#clip1)">
<path style=" stroke:none;fill-rule:nonzero;fill:rgb(33.333334%,34.117648%,32.549021%);fill-opacity:1;" d="M 12 1.5 C 11.824219 1.5 11.644531 1.503906 11.46875 1.511719 C 11.464844 1.511719 11.464844 1.511719 11.460938 1.511719 C 9.089844 1.6875 7.484375 2.308594 5.71875 3.546875 C 4.925781 4.277344 4.503906 5.128906 4.5 6 C 4.5 8.484375 7.859375 10.5 12 10.5 C 16.140625 10.5 19.5 8.484375 19.5 6 C 19.5 5.140625 19.089844 4.300781 18.316406 3.578125 L 18.308594 3.566406 L 17.605469 3.019531 C 16.1875 2.054688 14.144531 1.503906 12 1.5 Z M 4.5 9.308594 L 4.5 18 C 4.5 20.484375 7.859375 22.5 12 22.5 C 16.140625 22.5 19.5 20.484375 19.5 18 L 19.5 9.308594 C 17.835938 10.988281 15.019531 12 12 12 C 8.980469 11.996094 6.164062 10.988281 4.5 9.308594 Z M 4.5 9.308594 "/>
</g>
</defs>
<g id="surface1">
<use xlink:href="#surface5" mask="url(#mask0)"/>
<path style=" stroke:none;fill-rule:nonzero;fill:rgb(33.333334%,34.117648%,32.549021%);fill-opacity:1;" d="M 12 0 C 11.800781 0 11.601562 0.00390625 11.40625 0.0117188 L 11.394531 0.0117188 L 11.347656 0.015625 C 8.769531 0.203125 6.777344 0.972656 4.855469 2.320312 L 4.777344 2.375 L 4.703125 2.441406 C 3.746094 3.320312 3.089844 4.472656 3 5.71875 C 3 5.71875 3.019531 5.917969 3 5.996094 L 3 18 C 3 19.917969 4.277344 21.480469 5.925781 22.46875 C 7.570312 23.457031 9.6875 24 12 24 C 14.3125 24 16.429688 23.457031 18.074219 22.46875 C 19.722656 21.480469 21 19.917969 21 18 L 21 5.996094 C 21 5.996094 21.019531 5.816406 21 5.726562 C 20.914062 4.496094 20.273438 3.355469 19.339844 2.480469 L 19.5625 2.746094 L 19.421875 2.535156 L 18.488281 1.808594 L 18.449219 1.777344 C 16.699219 0.589844 14.40625 0.00390625 12.003906 0 Z M 11.996094 3 L 12 3 C 13.886719 3.003906 15.667969 3.523438 16.757812 4.261719 L 17.199219 4.601562 L 17.164062 4.554688 L 17.292969 4.671875 C 17.832031 5.179688 18 5.617188 18 6 C 18 6.566406 17.601562 7.253906 16.53125 7.894531 C 15.464844 8.535156 13.828125 9 12 9 C 10.171875 9 8.535156 8.535156 7.46875 7.894531 C 6.398438 7.253906 6 6.570312 6 6.003906 L 6 6 C 6 5.628906 6.199219 5.195312 6.707031 4.707031 C 8.25 3.648438 9.472656 3.167969 11.558594 3.011719 C 11.707031 3.003906 11.851562 3 11.996094 3 Z M 6 11.949219 C 7.785156 12.863281 9.78125 13.5 12 13.5 C 14.21875 13.5 16.214844 12.863281 18 11.949219 L 18 18 C 18 18.566406 17.601562 19.253906 16.53125 19.894531 C 15.464844 20.535156 13.828125 21 12 21 C 10.171875 21 8.535156 20.535156 7.46875 19.894531 C 6.398438 19.253906 6 18.566406 6 18 Z M 6 11.949219 "/>
</g>
</svg>
