<?xml version="1.0" encoding="UTF-8"?>
<svg xmlns="http://www.w3.org/2000/svg" xmlns:xlink="http://www.w3.org/1999/xlink" width="24px" height="24px" viewBox="0 0 24 24" version="1.1">
<g id="surface1">
<path style="fill-rule:nonzero;fill:rgb(90.196079%,0.784314%,70.588237%);fill-opacity:1;stroke-width:0.246526;stroke-linecap:round;stroke-linejoin:round;stroke:rgb(90.980393%,12.54902%,73.333335%);stroke-opacity:1;stroke-miterlimit:4;" d="M -15 12.124694 C -14.911458 12.127298 -14.822917 12.142923 -14.739583 12.174173 L -2.6875 16.478861 C -2.351562 16.598652 -2.125 16.918965 -2.125 17.27834 L -2.125 25.025736 C -2.125 25.359069 -2.317708 25.661152 -2.619792 25.799173 C -2.921875 25.937194 -3.276042 25.887715 -3.528646 25.671569 L -15.578125 15.343444 C -15.768229 15.181986 -15.875 14.945006 -15.875 14.697611 L -15.875 12.976256 C -15.875 12.744486 -15.78125 12.525736 -15.617188 12.364277 C -15.453125 12.205423 -15.229167 12.116881 -15 12.124694 Z M -15 12.124694 " transform="matrix(1.5,0,0,1.5,25.5,-16.499541)"/>
<path style=" stroke:none;fill-rule:nonzero;fill:rgb(94.117647%,89.019608%,92.54902%);fill-opacity:1;" d="M 21 9.445312 L 3 3.203125 L 3 5.699219 L 21 20.683594 Z M 21 9.445312 "/>
</g>
</svg>
