<?xml version="1.0" encoding="UTF-8"?>
<svg xmlns="http://www.w3.org/2000/svg" xmlns:xlink="http://www.w3.org/1999/xlink" width="24px" height="24px" viewBox="0 0 24 24" version="1.1">
<defs>
<filter id="alpha" filterUnits="objectBoundingBox" x="0%" y="0%" width="100%" height="100%">
  <feColorMatrix type="matrix" in="SourceGraphic" values="0 0 0 0 1 0 0 0 0 1 0 0 0 0 1 0 0 0 1 0"/>
</filter>
<mask id="mask0">
  <g filter="url(#alpha)">
<rect x="0" y="0" width="24" height="24" style="fill:rgb(0%,0%,0%);fill-opacity:0.35;stroke:none;"/>
  </g>
</mask>
<clipPath id="clip1">
  <rect x="0" y="0" width="24" height="24"/>
</clipPath>
<g id="surface5" clip-path="url(#clip1)">
<path style=" stroke:none;fill-rule:nonzero;fill:rgb(33.333334%,34.117648%,32.549021%);fill-opacity:1;" d="M 7.5 4.5 C 5.015625 4.5 3 7.859375 3 12 C 3 16.140625 5.015625 19.5 7.5 19.5 L 19.191406 19.5 C 17.511719 17.835938 16.503906 15.019531 16.5 12 C 16.5 8.980469 17.511719 6.164062 19.191406 4.5 Z M 7.5 4.5 "/>
</g>
</defs>
<g id="surface1">
<use xlink:href="#surface5" mask="url(#mask0)"/>
<path style=" stroke:none;fill-rule:nonzero;fill:rgb(33.333334%,34.117648%,32.549021%);fill-opacity:1;" d="M 7.5 3 C 5.582031 3 4.019531 4.277344 3.03125 5.925781 C 2.042969 7.570312 1.5 9.6875 1.5 12 C 1.5 14.3125 2.042969 16.429688 3.03125 18.074219 C 4.019531 19.722656 5.582031 21 7.5 21 L 22.835938 21 L 20.246094 18.433594 C 18.953125 17.152344 18 14.683594 18 12 C 18 9.316406 18.957031 6.84375 20.246094 5.5625 L 22.832031 3 Z M 7.5 6 L 16.550781 6 C 15.636719 7.785156 15 9.78125 15 12 C 15 14.21875 15.636719 16.214844 16.550781 18 L 7.5 18 C 6.933594 18 6.246094 17.601562 5.605469 16.53125 C 4.964844 15.464844 4.5 13.828125 4.5 12 C 4.5 10.171875 4.964844 8.535156 5.605469 7.46875 C 6.246094 6.398438 6.933594 6 7.5 6 Z M 7.5 6 "/>
</g>
</svg>
