<?xml version="1.0" encoding="UTF-8"?>
<svg xmlns="http://www.w3.org/2000/svg" xmlns:xlink="http://www.w3.org/1999/xlink" width="24px" height="24px" viewBox="0 0 24 24" version="1.1">
<defs>
<filter id="alpha" filterUnits="objectBoundingBox" x="0%" y="0%" width="100%" height="100%">
  <feColorMatrix type="matrix" in="SourceGraphic" values="0 0 0 0 1 0 0 0 0 1 0 0 0 0 1 0 0 0 1 0"/>
</filter>
<mask id="mask0">
  <g filter="url(#alpha)">
<rect x="0" y="0" width="24" height="24" style="fill:rgb(0%,0%,0%);fill-opacity:0.35;stroke:none;"/>
  </g>
</mask>
<clipPath id="clip1">
  <rect x="0" y="0" width="24" height="24"/>
</clipPath>
<g id="surface5" clip-path="url(#clip1)">
<path style=" stroke:none;fill-rule:nonzero;fill:rgb(33.333334%,34.117648%,32.549021%);fill-opacity:1;" d="M 4.5 13.5 L 4.5 17.328125 C 4.292969 18.726562 5.261719 19.5 7.5 19.5 C 8.773438 19.5 9.527344 18.984375 10.828125 18.210938 C 11.832031 17.613281 11.765625 17.039062 13.5 16.753906 L 13.5 13.5 Z M 4.5 13.5 "/>
</g>
</defs>
<g id="surface1">
<path style=" stroke:none;fill-rule:nonzero;fill:rgb(33.333334%,34.117648%,32.549021%);fill-opacity:1;" d="M 7.5 1.5 L 7.5 4.5 L 21 4.5 L 21 12 L 22.5 12 L 22.5 1.5 Z M 4.5 6 L 4.5 9 L 18 9 L 18 16.5 L 19.5 16.5 L 19.5 6 Z M 1.5 10.5 L 1.5 19.5 C 1.5 19.5 4.074219 22.5 7.5 22.5 C 10.925781 22.5 12 19.5 16.5 19.5 L 16.5 10.5 Z M 4.5 13.5 L 13.5 13.5 L 13.5 16.753906 C 11.765625 17.039062 11.832031 17.613281 10.828125 18.210938 C 9.527344 18.984375 8.773438 19.5 7.5 19.5 C 7.21875 19.5 6.945312 19.472656 6.683594 19.425781 C 4.832031 19.09375 4.5 18 4.5 17.328125 Z M 4.5 13.5 "/>
<use xlink:href="#surface5" mask="url(#mask0)"/>
</g>
</svg>
