<?xml version="1.0" encoding="UTF-8"?>
<svg xmlns="http://www.w3.org/2000/svg" xmlns:xlink="http://www.w3.org/1999/xlink" width="24px" height="24px" viewBox="0 0 24 24" version="1.1">
<g id="surface1">
<path style="fill-rule:nonzero;fill:rgb(90.196079%,0.784314%,70.588237%);fill-opacity:1;stroke-width:0.246219;stroke-linecap:round;stroke-linejoin:round;stroke:rgb(90.196079%,0.392157%,70.588237%);stroke-opacity:1;stroke-miterlimit:4;" d="M 2.018229 1.125 C 1.783854 1.114583 1.557292 1.200521 1.388021 1.361979 C 1.21875 1.523438 1.122396 1.747396 1.122396 1.981771 L 1.122396 14.018229 C 1.122396 14.296875 1.257812 14.559896 1.486979 14.721354 C 1.716146 14.880208 2.007812 14.921875 2.270833 14.825521 L 14.307292 10.528646 C 14.648438 10.40625 14.877604 10.083333 14.877604 9.71875 L 14.877604 6.28125 C 14.877604 5.916667 14.648438 5.59375 14.307292 5.471354 L 2.270833 1.171875 C 2.1875 1.143229 2.104167 1.127604 2.018229 1.125 Z M 2.018229 1.125 " transform="matrix(1.5,0,0,1.5,0,0)"/>
<path style="fill-rule:nonzero;fill:rgb(94.117647%,89.019608%,92.54902%);fill-opacity:1;stroke-width:0.237;stroke-linecap:butt;stroke-linejoin:miter;stroke:rgb(90.196079%,0.784314%,70.588237%);stroke-opacity:1;stroke-miterlimit:4;" d="M 2 2.195312 L 14 6.341146 L 14 9.658854 L 2 13.804688 Z M 2 2.195312 " transform="matrix(1.5,0,0,1.5,0,0)"/>
</g>
</svg>
