<?xml version="1.0" encoding="UTF-8"?>
<svg xmlns="http://www.w3.org/2000/svg" xmlns:xlink="http://www.w3.org/1999/xlink" width="24px" height="24px" viewBox="0 0 24 24" version="1.1">
<g id="surface1">
<path style=" stroke:none;fill-rule:nonzero;fill:rgb(61.960787%,22.745098%,61.176473%);fill-opacity:1;" d="M 7.5 1.5 L 9 1.5 L 9 3 L 7.5 3 Z M 7.5 1.5 "/>
<path style=" stroke:none;fill-rule:nonzero;fill:rgb(61.960787%,22.745098%,61.176473%);fill-opacity:1;" d="M 1.5 6 L 3 6 L 3 7.5 L 1.5 7.5 Z M 1.5 6 "/>
<path style=" stroke:none;fill-rule:nonzero;fill:rgb(61.960787%,22.745098%,61.176473%);fill-opacity:1;" d="M 1.5 21 L 3 21 L 3 22.5 L 1.5 22.5 Z M 1.5 21 "/>
<path style=" stroke:none;fill-rule:nonzero;fill:rgb(61.960787%,22.745098%,61.176473%);fill-opacity:1;" d="M 16.5 21 L 18 21 L 18 22.5 L 16.5 22.5 Z M 16.5 21 "/>
<path style=" stroke:none;fill-rule:nonzero;fill:rgb(61.960787%,22.745098%,61.176473%);fill-opacity:1;" d="M 21 15 L 22.5 15 L 22.5 16.5 L 21 16.5 Z M 21 15 "/>
<path style=" stroke:none;fill-rule:nonzero;fill:rgb(61.960787%,22.745098%,61.176473%);fill-opacity:1;" d="M 21 1.5 L 22.5 1.5 L 22.5 3 L 21 3 Z M 21 1.5 "/>
<path style=" stroke:none;fill-rule:nonzero;fill:rgb(90.196079%,0.784314%,70.588237%);fill-opacity:1;" d="M 3 9.503906 L 3 20.488281 C 3 20.773438 3.265625 21 3.59375 21 L 14.460938 21 C 14.789062 21 15.054688 20.773438 15.054688 20.488281 L 15.054688 9.503906 C 15.054688 9.21875 14.789062 8.992188 14.460938 8.992188 L 3.59375 8.992188 C 3.265625 8.992188 3 9.21875 3 9.503906 Z M 3 9.503906 "/>
<path style=" stroke:none;fill-rule:evenodd;fill:rgb(94.117647%,89.019608%,92.54902%);fill-opacity:1;" d="M 4.542969 10.765625 L 4.542969 19.175781 C 4.542969 19.304688 4.667969 19.414062 4.828125 19.414062 L 13.28125 19.414062 C 13.4375 19.414062 13.566406 19.304688 13.566406 19.175781 L 13.566406 10.765625 C 13.566406 10.636719 13.4375 10.527344 13.28125 10.527344 L 4.828125 10.527344 C 4.667969 10.527344 4.542969 10.636719 4.542969 10.765625 Z M 4.542969 10.765625 "/>
<path style=" stroke:none;fill-rule:nonzero;fill:rgb(90.196079%,0.784314%,70.588237%);fill-opacity:1;" d="M 21.6875 9.300781 C 21.6875 12.785156 18.851562 15.609375 15.351562 15.609375 C 11.855469 15.609375 9.019531 12.785156 9.019531 9.300781 C 9.019531 5.820312 11.855469 2.996094 15.351562 2.996094 C 18.851562 2.996094 21.6875 5.820312 21.6875 9.300781 Z M 21.6875 9.300781 "/>
<path style=" stroke:none;fill-rule:nonzero;fill:rgb(94.117647%,89.019608%,92.54902%);fill-opacity:1;" d="M 20.117188 9.378906 C 20.117188 12.097656 17.960938 14.296875 15.304688 14.296875 C 12.644531 14.296875 10.492188 12.097656 10.492188 9.378906 C 10.492188 6.660156 12.644531 4.460938 15.304688 4.460938 C 17.960938 4.460938 20.117188 6.660156 20.117188 9.378906 Z M 20.117188 9.378906 "/>
</g>
</svg>
