<?xml version="1.0" encoding="UTF-8" standalone="no"?>
<svg
   xmlns:dc="http://purl.org/dc/elements/1.1/"
   xmlns:cc="http://creativecommons.org/ns#"
   xmlns:rdf="http://www.w3.org/1999/02/22-rdf-syntax-ns#"
   xmlns:svg="http://www.w3.org/2000/svg"
   xmlns="http://www.w3.org/2000/svg"
   xmlns:xlink="http://www.w3.org/1999/xlink"
   xmlns:sodipodi="http://sodipodi.sourceforge.net/DTD/sodipodi-0.dtd"
   xmlns:inkscape="http://www.inkscape.org/namespaces/inkscape"
   height="24"
   width="24"
   id="svg2"
   version="1.1"
   inkscape:version="0.91 r13725"
   sodipodi:docname="lc_formfilter.svg"
   inkscape:export-filename="/home/tamara/Desktop/IKON/5_258 (tamara)/sc (222)/Tanggal 13/lc_formfilter.png"
   inkscape:export-xdpi="90"
   inkscape:export-ydpi="90">
  <metadata
     id="metadata121">
    <rdf:RDF>
      <cc:Work
         rdf:about="">
        <dc:format>image/svg+xml</dc:format>
        <dc:type
           rdf:resource="http://purl.org/dc/dcmitype/StillImage" />
        <dc:title></dc:title>
      </cc:Work>
    </rdf:RDF>
  </metadata>
  <defs
     id="defs119" />
  <sodipodi:namedview
     pagecolor="#ffffff"
     bordercolor="#666666"
     borderopacity="1"
     objecttolerance="10"
     gridtolerance="10"
     guidetolerance="10"
     inkscape:pageopacity="0"
     inkscape:pageshadow="2"
     inkscape:window-width="1366"
     inkscape:window-height="718"
     id="namedview117"
     showgrid="true"
     inkscape:zoom="14.75"
     inkscape:cx="17.055304"
     inkscape:cy="12.487013"
     inkscape:window-x="0"
     inkscape:window-y="0"
     inkscape:window-maximized="1"
     inkscape:current-layer="svg2">
    <inkscape:grid
       type="xygrid"
       id="grid4249" />
  </sodipodi:namedview>
  <filter
     id="a">
    <feGaussianBlur
       stdDeviation="2.4"
       id="feGaussianBlur5" />
  </filter>
  <linearGradient
     id="b"
     gradientTransform="matrix(0.02999311,0,0,0.04475549,0.170072,-20.360914)"
     gradientUnits="userSpaceOnUse"
     x1="417.76013"
     x2="417.76013"
     y1="691.40674"
     y2="549.52472">
    <stop
       offset="0"
       stop-color="#cbcbcd"
       id="stop8" />
    <stop
       offset=".5"
       stop-color="#e0e0e2"
       id="stop10" />
    <stop
       offset="1"
       stop-color="#fff"
       id="stop12" />
  </linearGradient>
  <linearGradient
     id="c"
     gradientTransform="matrix(0.33072918,0,0,0.26458334,-38.506352,-64.790137)"
     gradientUnits="userSpaceOnUse"
     x1="167.62865"
     x2="167.62865"
     y1="340.8761"
     y2="308.8761">
    <stop
       offset="0"
       stop-color="#cbcbcd"
       id="stop15" />
    <stop
       offset=".66545075"
       stop-color="#e0e0e2"
       id="stop17" />
    <stop
       offset="1"
       stop-color="#fff"
       id="stop19" />
  </linearGradient>
  <linearGradient
     id="d">
    <stop
       offset="0"
       id="stop22" />
    <stop
       offset="1"
       stop-opacity="0"
       id="stop24" />
  </linearGradient>
  <linearGradient
     id="e">
    <stop
       offset="0"
       stop-color="#fff"
       id="stop27" />
    <stop
       offset="1"
       stop-color="#fff"
       stop-opacity="0"
       id="stop29" />
  </linearGradient>
  <linearGradient
     id="f">
    <stop
       offset="0"
       stop-color="#fff"
       stop-opacity=".537906"
       id="stop32" />
    <stop
       offset=".21464799"
       stop-color="#fff"
       id="stop34" />
    <stop
       offset=".66342056"
       stop-color="#fff"
       stop-opacity=".415162"
       id="stop36" />
    <stop
       offset="1"
       stop-color="#fff"
       stop-opacity="0"
       id="stop38" />
  </linearGradient>
  <radialGradient
     id="g"
     cx="63.816387"
     cy="120.57538"
     gradientTransform="matrix(1,0,0,0.289157,0,85.71021)"
     gradientUnits="userSpaceOnUse"
     r="14.672465">
    <stop
       offset="0"
       id="stop41" />
    <stop
       offset=".5714286"
       id="stop43" />
    <stop
       offset="1"
       stop-opacity="0"
       id="stop45" />
  </radialGradient>
  <linearGradient
     id="h"
     gradientTransform="matrix(0.9384891,0,0,0.9797769,5.360263,0.417599)"
     gradientUnits="userSpaceOnUse"
     x1="48.648247"
     x2="63.212357"
     xlink:href="#d"
     y1="123.09119"
     y2="60.341194" />
  <linearGradient
     id="i"
     gradientTransform="matrix(0.8342942,0,0,1.0210988,10.813747,-1.416993)"
     gradientUnits="userSpaceOnUse"
     x1="55.875"
     x2="70.71875"
     xlink:href="#f"
     y1="91.296875"
     y2="91.296875" />
  <radialGradient
     id="j"
     cx="63.462833"
     cy="66.417244"
     gradientTransform="matrix(0.9021317,0,0,0.2520869,6.569572,48.009639)"
     gradientUnits="userSpaceOnUse"
     r="13.788582"
     xlink:href="#d" />
  <radialGradient
     id="k"
     cx="52.715279"
     cy="41.561275"
     gradientTransform="matrix(1.6417463,-0.8079979,1.3565327,2.8660381,-96.448304,-51.781803)"
     gradientUnits="userSpaceOnUse"
     r="15.995545"
     xlink:href="#f" />
  <radialGradient
     id="l"
     cx="63.462833"
     cy="66.417244"
     gradientTransform="matrix(0.9021317,0,0,0.1440028,6.569572,55.188411)"
     gradientUnits="userSpaceOnUse"
     r="13.788582"
     xlink:href="#d" />
  <radialGradient
     id="m"
     cx="51.78791"
     cy="41.299831"
     gradientTransform="matrix(1.6417463,-0.8125119,1.3565327,2.88205,-96.448304,-52.421999)"
     gradientUnits="userSpaceOnUse"
     r="15.995545"
     xlink:href="#f" />
  <linearGradient
     id="n"
     gradientTransform="matrix(0.8342942,0,0,0.8975001,10.813747,6.468777)"
     gradientUnits="userSpaceOnUse"
     x1="94.42218"
     x2="100.78125"
     xlink:href="#d"
     y1="30.355696"
     y2="35.359375" />
  <radialGradient
     id="o"
     cx="57.214077"
     cy="124.00706"
     fx="49.233025"
     fy="124.00705"
     gradientTransform="matrix(0.556928,-3e-8,0,0.138799,37.13478,97.17706)"
     gradientUnits="userSpaceOnUse"
     r="11.383312"
     xlink:href="#e" />
  <linearGradient
     id="p"
     gradientTransform="matrix(0.8342942,0,0,1.0210978,10.813748,-1.416992)"
     gradientUnits="userSpaceOnUse"
     spreadMethod="reflect"
     x1="28.940924"
     x2="121.36113"
     y1="64.378441"
     y2="52.6054">
    <stop
       offset="0"
       stop-color="#e7e7e7"
       id="stop56" />
    <stop
       offset="1"
       stop-color="#f8f8f8"
       id="stop58" />
  </linearGradient>
  <linearGradient
     id="q"
     gradientTransform="matrix(0.8342942,0,0,0.6237166,16.067197,11.056213)"
     gradientUnits="userSpaceOnUse"
     x1="27.080584"
     x2="59.768688"
     xlink:href="#e"
     y1="-14.285192"
     y2="17.40625" />
  <g
     id="g4371"
     transform="matrix(1.5136296,0,0,1.5136296,22.257806,1.1880187)">
    <path
       inkscape:connector-curvature="0"
       id="path4300"
       style="fill:#f3b7d9;stroke:#9d3a9b;stroke-width:0.1651659;stroke-linecap:round;stroke-linejoin:round;stroke-miterlimit:4;stroke-dasharray:none;stroke-dashoffset:4"
       d="m -6.642081,0.05902134 c -3.3111037,0 -5.998268,0.65513155 -5.998268,1.40578296 0,1.5472515 4.6631068,6.316807 4.6631068,6.316807 0.01928,0.027613 0.042234,0.073327 0.040589,0.1266173 l 0,6.8079754 c 0,0.16787 0.2322875,0.272259 1.1459513,0.272259 0.8941337,0 1.4431925,-0.08046 1.4431925,-0.272259 0,-0.0011 9e-5,-0.0032 0,-0.0042 l -0.00689,-6.8037243 c 0,-0.031251 0.00424,-0.066745 0.018779,-0.093364 0,0 4.6722512,-4.8460128 4.6722512,-6.4083753 0,-0.53214466 -2.66761,-1.34746915 -5.9787125,-1.34746916 z" />
    <path
       style="fill:#e602b4"
       inkscape:connector-curvature="0"
       id="path4302"
       d="m -6.6423327,1.9576832 c -2.1735877,0 -3.9734483,0.2646535 -4.2602203,0.6075773 0.9366999,0.220824 2.4945217,0.3687608 4.2602203,0.3687608 1.7637698,0 3.3203653,-0.1448321 4.2574048,-0.3652486 C -2.6661674,2.224906 -4.4646491,1.9576832 -6.6423327,1.9576832 Z" />
    <ellipse
       id="ellipse4312"
       style="fill:none;stroke:#9d3a9b;stroke-width:0.1651659;stroke-linecap:round;stroke-linejoin:round;stroke-miterlimit:4;stroke-dasharray:none;stroke-dashoffset:4"
       ry="1.4301572"
       rx="5.9275298"
       cy="1.4999995"
       cx="-6.6494918" />
  </g>
  <rect
     style="opacity:1;fill:#f3b7d9;fill-opacity:1;fill-rule:nonzero;stroke:#e601b4;stroke-width:0.25165313;stroke-linecap:round;stroke-linejoin:round;stroke-miterlimit:4;stroke-dasharray:none;stroke-dashoffset:0;stroke-opacity:1"
     id="rect4269"
     width="16.748346"
     height="13.748346"
     x="7.1258264"
     y="10.125827"
     rx="0.87417221"
     ry="0.87417316" />
  <g
     id="g4289"
     transform="matrix(1.0833333,0,0,1.1666665,6.8333338,6.8333342)">
    <rect
       height="3.0000002"
       rx="2.5e-07"
       ry="1.25e-07"
       width="12"
       x="1.9999996"
       y="3.9999998"
       id="rect77"
       style="fill:#9e3a9c;fill-opacity:1" />
    <rect
       height="1.714286"
       rx="2.4230769e-07"
       ry="0"
       width="9.6923084"
       x="2.9230766"
       y="5.2857141"
       id="rect79"
       style="fill:#f0e3ec;fill-opacity:1" />
  </g>
  <rect
     style="fill:#9e3a9c;fill-opacity:1"
     id="rect81"
     y="-22.5"
     x="9"
     width="13"
     transform="scale(1,-1)"
     ry="1.5624998e-07"
     rx="3.25e-07"
     height="5" />
  <rect
     style="fill:#f0e3ec;fill-opacity:1"
     id="rect83"
     y="17.5"
     x="9"
     width="13"
     ry="1.4583333e-07"
     rx="3.2499997e-07"
     height="3.5" />
  <g
     style="stroke-width:0.65700603"
     id="g85"
     transform="matrix(0.1441737,0,0,0.1441737,6.272883,7.1162269)">
    <path
       inkscape:connector-curvature="0"
       id="path87-3"
       d="m 44.782489,91.387859 q -2.522902,-2.811985 -2.522902,-7.227064 0,-4.415079 2.522902,-7.227064 2.549183,-2.811985 6.675179,-2.811985 4.152277,0 6.701459,2.811985 2.549183,2.785705 2.549183,7.358465 0,4.257398 -2.522903,7.095663 -2.496622,2.811984 -6.701459,2.811984 -4.178556,0 -6.701459,-2.811984 z m 6.701459,-13.902243 q -2.391501,0 -3.836913,1.839616 -1.445413,1.813336 -1.445413,4.835563 0,3.022226 1.445413,4.861843 1.445412,1.813336 3.836913,1.813336 2.365221,0 3.810634,-1.813336 1.471693,-1.813336 1.471693,-4.756722 0,-3.101068 -1.445413,-4.940684 -1.419132,-1.839616 -3.836914,-1.839616 z"
       style="fill:#e601b4;fill-opacity:1" />
    <path
       inkscape:connector-curvature="0"
       id="path89-6"
       d="m 72.784262,87.183021 0,6.412377 -3.942034,0 0,-19.158289 3.942034,0 0,8.409674 7.489866,-8.409674 4.651601,0 -7.647547,8.251993 8.462234,10.906296 -4.704161,0 -6.280975,-8.462235 z"
       style="fill:#e601b4;fill-opacity:1" />
  </g>
</svg>
