<?xml version="1.0" encoding="UTF-8"?>
<svg xmlns="http://www.w3.org/2000/svg" xmlns:xlink="http://www.w3.org/1999/xlink" width="24px" height="24px" viewBox="0 0 24 24" version="1.1">
<g id="surface1">
<path style=" stroke:none;fill-rule:nonzero;fill:rgb(90.196079%,0.784314%,70.588237%);fill-opacity:1;" d="M 1.5 2.113281 L 1.5 18.886719 C 1.5 19.226562 1.820312 19.5 2.210938 19.5 L 18.789062 19.5 C 19.179688 19.5 19.5 19.226562 19.5 18.886719 L 19.5 2.113281 C 19.5 1.773438 19.179688 1.5 18.789062 1.5 L 2.210938 1.5 C 1.820312 1.5 1.5 1.773438 1.5 2.113281 Z M 1.5 2.113281 "/>
<path style=" stroke:none;fill-rule:evenodd;fill:rgb(94.117647%,89.019608%,92.54902%);fill-opacity:1;" d="M 3 3.296875 L 3 17.703125 C 3 17.867188 3.160156 18 3.355469 18 L 17.644531 18 C 17.839844 18 18 17.867188 18 17.703125 L 18 3.296875 C 18 3.132812 17.839844 3 17.644531 3 L 3.355469 3 C 3.160156 3 3 3.132812 3 3.296875 Z M 3 3.296875 "/>
<path style="fill-rule:evenodd;fill:rgb(94.117647%,89.019608%,92.54902%);fill-opacity:1;stroke-width:3.20664;stroke-linecap:round;stroke-linejoin:round;stroke:rgb(94.117647%,89.019608%,92.54902%);stroke-opacity:1;stroke-miterlimit:4;" d="M 15.942627 8.510248 L 20.076083 8.510248 C 21.390523 8.510248 22.456954 9.598387 22.456954 10.939581 L 22.456954 20.070666 C 22.456954 21.41186 21.390523 22.499999 20.076083 22.499999 L 15.942627 22.499999 C 14.628188 22.499999 13.561757 21.41186 13.561757 20.070666 L 13.561757 10.939581 C 13.561757 9.598387 14.628188 8.510248 15.942627 8.510248 Z M 15.942627 8.510248 " transform="matrix(0.945032,0,0,0.92618,-0.22255,0.160945)"/>
<path style="fill-rule:evenodd;fill:rgb(94.117647%,89.019608%,92.54902%);fill-opacity:1;stroke-width:3.20664;stroke-linecap:round;stroke-linejoin:round;stroke:rgb(94.117647%,89.019608%,92.54902%);stroke-opacity:1;stroke-miterlimit:4;" d="M 17.881218 11.500521 L 18.120959 11.500521 C 19.435398 11.500521 20.501829 12.588659 20.501829 13.929853 L 20.501829 18.071528 C 20.501829 19.412722 19.435398 20.500861 18.120959 20.500861 L 17.881218 20.500861 C 16.566779 20.500861 15.500348 19.412722 15.500348 18.071528 L 15.500348 13.929853 C 15.500348 12.588659 16.566779 11.500521 17.881218 11.500521 Z M 17.881218 11.500521 " transform="matrix(0.945032,0,0,0.92618,-0.22255,0.160945)"/>
<path style="fill-rule:evenodd;fill:rgb(94.117647%,89.019608%,92.54902%);fill-opacity:1;stroke-width:3.20664;stroke-linecap:round;stroke-linejoin:round;stroke:rgb(94.117647%,89.019608%,92.54902%);stroke-opacity:1;stroke-miterlimit:4;" d="M 18.422701 14.187126 C 18.422701 14.410659 18.236695 14.596233 18.005222 14.596233 C 17.777882 14.60045 17.587743 14.419094 17.587743 14.191344 C 17.583609 13.963594 17.765481 13.77802 17.996955 13.773802 C 18.224295 13.769585 18.414434 13.950941 18.418568 14.178691 L 18.005222 14.187126 Z M 18.422701 14.187126 " transform="matrix(0.945032,0,0,0.92618,-0.22255,0.160945)"/>
<path style="fill:none;stroke-width:3.20664;stroke-linecap:round;stroke-linejoin:round;stroke:rgb(94.117647%,89.019608%,92.54902%);stroke-opacity:1;stroke-miterlimit:4;" d="M 17.947354 16.899038 L 17.947354 19.425375 " transform="matrix(0.945032,0,0,0.92618,-0.22255,0.160945)"/>
<path style="fill-rule:evenodd;fill:rgb(94.117647%,89.019608%,92.54902%);fill-opacity:1;stroke-width:1.60332;stroke-linecap:round;stroke-linejoin:round;stroke:rgb(90.196079%,0.784314%,70.588237%);stroke-opacity:1;stroke-miterlimit:4;" d="M 15.942627 8.510248 L 20.076083 8.510248 C 21.390523 8.510248 22.456954 9.598387 22.456954 10.939581 L 22.456954 20.070666 C 22.456954 21.41186 21.390523 22.499999 20.076083 22.499999 L 15.942627 22.499999 C 14.628188 22.499999 13.561757 21.41186 13.561757 20.070666 L 13.561757 10.939581 C 13.561757 9.598387 14.628188 8.510248 15.942627 8.510248 Z M 15.942627 8.510248 " transform="matrix(0.945032,0,0,0.92618,-0.22255,0.160945)"/>
<path style="fill-rule:evenodd;fill:rgb(95.294118%,71.764708%,85.09804%);fill-opacity:1;stroke-width:1.60332;stroke-linecap:round;stroke-linejoin:round;stroke:rgb(90.196079%,0.784314%,70.588237%);stroke-opacity:1;stroke-miterlimit:4;" d="M 17.881218 11.500521 L 18.120959 11.500521 C 19.435398 11.500521 20.501829 12.588659 20.501829 13.929853 L 20.501829 18.071528 C 20.501829 19.412722 19.435398 20.500861 18.120959 20.500861 L 17.881218 20.500861 C 16.566779 20.500861 15.500348 19.412722 15.500348 18.071528 L 15.500348 13.929853 C 15.500348 12.588659 16.566779 11.500521 17.881218 11.500521 Z M 17.881218 11.500521 " transform="matrix(0.945032,0,0,0.92618,-0.22255,0.160945)"/>
<path style="fill:none;stroke-width:1.60332;stroke-linecap:round;stroke-linejoin:round;stroke:rgb(61.56863%,22.745098%,60.784316%);stroke-opacity:1;stroke-miterlimit:4;" d="M 18.422701 14.187126 C 18.422701 14.410659 18.236695 14.596233 18.005222 14.596233 C 17.777882 14.60045 17.587743 14.419094 17.587743 14.191344 C 17.583609 13.963594 17.765481 13.77802 17.996955 13.773802 C 18.224295 13.769585 18.414434 13.950941 18.418568 14.178691 L 18.005222 14.187126 Z M 18.422701 14.187126 " transform="matrix(0.945032,0,0,0.92618,-0.22255,0.160945)"/>
<path style="fill:none;stroke-width:1.60332;stroke-linecap:round;stroke-linejoin:round;stroke:rgb(90.196079%,0.784314%,70.588237%);stroke-opacity:1;stroke-miterlimit:4;" d="M 17.947354 16.899038 L 17.947354 19.425375 " transform="matrix(0.945032,0,0,0.92618,-0.22255,0.160945)"/>
</g>
</svg>
