<?xml version="1.0" encoding="UTF-8"?>
<svg xmlns="http://www.w3.org/2000/svg" xmlns:xlink="http://www.w3.org/1999/xlink" width="24px" height="24px" viewBox="0 0 24 24" version="1.1">
<g id="surface1">
<path style=" stroke:none;fill-rule:nonzero;fill:rgb(90.196079%,0.784314%,70.588237%);fill-opacity:1;" d="M 1.5 2.011719 L 1.5 15.988281 C 1.5 16.273438 1.765625 16.5 2.09375 16.5 L 15.90625 16.5 C 16.234375 16.5 16.5 16.273438 16.5 15.988281 L 16.5 2.011719 C 16.5 1.726562 16.234375 1.5 15.90625 1.5 L 2.09375 1.5 C 1.765625 1.5 1.5 1.726562 1.5 2.011719 Z M 1.5 2.011719 "/>
<path style=" stroke:none;fill-rule:evenodd;fill:rgb(94.117647%,89.019608%,92.54902%);fill-opacity:1;" d="M 3 3.75 L 3 14.25 C 3 14.664062 3.335938 15 3.75 15 L 14.25 15 C 14.664062 15 15 14.664062 15 14.25 L 15 3.75 C 15 3.335938 14.664062 3 14.25 3 L 3.75 3 C 3.335938 3 3 3.335938 3 3.75 Z M 3 3.75 "/>
<path style=" stroke:none;fill-rule:nonzero;fill:rgb(90.196079%,0.784314%,70.588237%);fill-opacity:1;" d="M 7.5 8.011719 L 7.5 21.988281 C 7.5 22.273438 7.765625 22.5 8.09375 22.5 L 21.90625 22.5 C 22.234375 22.5 22.5 22.273438 22.5 21.988281 L 22.5 8.011719 C 22.5 7.726562 22.234375 7.5 21.90625 7.5 L 8.09375 7.5 C 7.765625 7.5 7.5 7.726562 7.5 8.011719 Z M 7.5 8.011719 "/>
<path style=" stroke:none;fill-rule:evenodd;fill:rgb(95.294118%,71.764708%,85.09804%);fill-opacity:1;" d="M 9 9.75 L 9 20.25 C 9 20.664062 9.335938 21 9.75 21 L 20.25 21 C 20.664062 21 21 20.664062 21 20.25 L 21 9.75 C 21 9.335938 20.664062 9 20.25 9 L 9.75 9 C 9.335938 9 9 9.335938 9 9.75 Z M 9 9.75 "/>
</g>
</svg>
