<?xml version="1.0" encoding="UTF-8"?>
<svg xmlns="http://www.w3.org/2000/svg" xmlns:xlink="http://www.w3.org/1999/xlink" width="24px" height="24px" viewBox="0 0 24 24" version="1.1">
<defs>
<filter id="alpha" filterUnits="objectBoundingBox" x="0%" y="0%" width="100%" height="100%">
  <feColorMatrix type="matrix" in="SourceGraphic" values="0 0 0 0 1 0 0 0 0 1 0 0 0 0 1 0 0 0 1 0"/>
</filter>
<mask id="mask0">
  <g filter="url(#alpha)">
<rect x="0" y="0" width="24" height="24" style="fill:rgb(0%,0%,0%);fill-opacity:0.35;stroke:none;"/>
  </g>
</mask>
<clipPath id="clip1">
  <rect x="0" y="0" width="24" height="24"/>
</clipPath>
<g id="surface5" clip-path="url(#clip1)">
<path style=" stroke:none;fill-rule:nonzero;fill:rgb(33.333334%,34.117648%,32.549021%);fill-opacity:1;" d="M 6 9 L 1.5 15 L 4.5 18 L 9 12 L 15 12 L 18.761719 18 L 22.5 18 L 19.5 12 L 16.5 9 Z M 6 9 "/>
</g>
</defs>
<g id="surface1">
<path style=" stroke:none;fill-rule:nonzero;fill:rgb(33.333334%,34.117648%,32.549021%);fill-opacity:1;" d="M 12 6 C 5.371094 6 0 11.371094 0 18 L 0 19.5 L 7.5 19.5 L 7.5 18 C 7.5 15.515625 9.515625 13.5 12 13.5 C 14.484375 13.5 16.5 15.515625 16.5 18 L 16.5 19.5 L 24 19.5 L 24 18 C 24 11.371094 18.628906 6 12 6 Z M 12 9 C 16.472656 9 19.972656 12.25 20.699219 16.5 L 19.191406 16.5 C 18.46875 13.125 15.574219 10.5 12 10.5 C 8.425781 10.5 5.53125 13.125 4.808594 16.5 L 3.300781 16.5 C 4.027344 12.25 7.527344 9 12 9 Z M 12 9 "/>
<use xlink:href="#surface5" mask="url(#mask0)"/>
</g>
</svg>
