<?xml version="1.0" encoding="UTF-8"?>
<svg xmlns="http://www.w3.org/2000/svg" xmlns:xlink="http://www.w3.org/1999/xlink" width="24px" height="24px" viewBox="0 0 24 24" version="1.1">
<g id="surface1">
<path style=" stroke:none;fill-rule:nonzero;fill:rgb(33.333334%,34.117648%,32.549021%);fill-opacity:1;" d="M 9 1.5 C 7.050781 1.5 5.398438 2.699219 4.800781 4.5 L 1.5 4.5 L 1.5 7.5 L 4.800781 7.5 C 5.398438 9.300781 7.050781 10.5 9 10.5 C 10.5 10.5 12.601562 9.300781 13.199219 7.5 L 22.5 7.5 L 22.5 4.5 L 13.199219 4.5 C 12.601562 2.699219 10.949219 1.5 9 1.5 Z M 9 4.5 C 9.824219 4.5 10.5 5.175781 10.5 6 C 10.5 6.824219 9.824219 7.5 9 7.5 C 8.175781 7.5 7.5 6.824219 7.5 6 C 7.5 5.175781 8.175781 4.5 9 4.5 Z M 15 13.5 C 13.050781 13.5 11.398438 14.699219 10.800781 16.5 L 1.5 16.5 L 1.5 19.5 L 10.800781 19.5 C 11.398438 21.300781 13.050781 22.5 15 22.5 C 16.90625 22.5 18.601562 21.300781 19.199219 19.5 L 22.5 19.5 L 22.5 16.5 L 19.199219 16.5 C 18.601562 14.699219 16.949219 13.5 15 13.5 Z M 15 13.5 "/>
</g>
</svg>
