<?xml version="1.0" encoding="UTF-8"?>
<svg xmlns="http://www.w3.org/2000/svg" xmlns:xlink="http://www.w3.org/1999/xlink" width="24px" height="24px" viewBox="0 0 24 24" version="1.1">
<g id="surface1">
<path style=" stroke:none;fill-rule:nonzero;fill:rgb(90.196079%,0.784314%,70.588237%);fill-opacity:1;" d="M 21.128906 2.980469 C 20.960938 2.988281 20.792969 3.03125 20.640625 3.109375 C 14.375 6.292969 8.808594 8.636719 2.359375 11.515625 C 1.859375 11.738281 1.53125 12.292969 1.53125 12.910156 L 1.53125 19.523438 C 1.53125 20.019531 1.746094 20.484375 2.101562 20.761719 C 2.460938 21.039062 2.914062 21.097656 3.316406 20.910156 L 21.652344 12.480469 C 22.144531 12.253906 22.46875 11.703125 22.46875 11.089844 L 22.46875 4.476562 C 22.46875 4.074219 22.328125 3.683594 22.074219 3.402344 C 21.820312 3.121094 21.480469 2.96875 21.128906 2.980469 Z M 21.128906 2.980469 "/>
<path style=" stroke:none;fill-rule:nonzero;fill:rgb(94.117647%,89.019608%,92.54902%);fill-opacity:1;" d="M 20.996094 11.113281 L 3.003906 19.351562 L 3.003906 12.886719 C 9.316406 10.082031 14.804688 7.78125 20.996094 4.648438 Z M 20.996094 11.113281 "/>
</g>
</svg>
