<?xml version="1.0" encoding="UTF-8"?>
<svg xmlns="http://www.w3.org/2000/svg" xmlns:xlink="http://www.w3.org/1999/xlink" width="24px" height="24px" viewBox="0 0 24 24" version="1.1">
<g id="surface1">
<path style="fill-rule:nonzero;fill:rgb(95.294118%,71.764708%,85.09804%);fill-opacity:1;stroke-width:1;stroke-linecap:round;stroke-linejoin:round;stroke:rgb(90.196079%,0.784314%,70.588237%);stroke-opacity:1;stroke-miterlimit:4;" d="M 2.440104 2.5 L 13.559896 2.5 C 14.078125 2.5 14.5 2.921875 14.5 3.440104 L 14.5 5.057292 C 14.5 5.575521 14.078125 5.997396 13.559896 5.997396 L 2.440104 5.997396 C 1.921875 5.997396 1.5 5.575521 1.5 5.057292 L 1.5 3.440104 C 1.5 2.921875 1.921875 2.5 2.440104 2.5 Z M 2.440104 2.5 " transform="matrix(1.5,0,0,1.5,0,0)"/>
<path style="fill-rule:nonzero;fill:rgb(95.294118%,71.764708%,85.09804%);fill-opacity:1;stroke-width:1;stroke-linecap:round;stroke-linejoin:round;stroke:rgb(90.196079%,0.784314%,70.588237%);stroke-opacity:1;stroke-miterlimit:4;" d="M 1.502604 4.5 L 14.497396 4.5 L 14.497396 13.5 L 1.502604 13.5 Z M 1.502604 4.5 " transform="matrix(1.5,0,0,1.5,0,0)"/>
<path style="fill-rule:evenodd;fill:rgb(94.117647%,89.019608%,92.54902%);fill-opacity:1;stroke-width:0.5;stroke-linecap:round;stroke-linejoin:round;stroke:rgb(61.56863%,22.745098%,60.784316%);stroke-opacity:1;stroke-miterlimit:4;" d="M 13 5.739583 L 12.101562 8.432292 L 11.416667 7.747396 L 10.231771 8.932292 L 9.807292 8.507812 L 10.992188 7.322917 L 10.304688 6.638021 Z M 13 5.739583 " transform="matrix(1.5,0,0,1.5,0,0)"/>
<path style="fill-rule:evenodd;fill:rgb(94.117647%,89.019608%,92.54902%);fill-opacity:1;stroke-width:0.5;stroke-linecap:round;stroke-linejoin:round;stroke:rgb(61.56863%,22.745098%,60.784316%);stroke-opacity:1;stroke-miterlimit:4;" d="M 3 5.739583 L 3.898438 8.432292 L 4.583333 7.747396 L 5.768229 8.932292 L 6.192708 8.507812 L 5.007812 7.322917 L 5.695312 6.638021 Z M 3 5.739583 " transform="matrix(1.5,0,0,1.5,0,0)"/>
<path style="fill-rule:evenodd;fill:rgb(94.117647%,89.019608%,92.54902%);fill-opacity:1;stroke-width:0.5;stroke-linecap:round;stroke-linejoin:round;stroke:rgb(61.56863%,22.745098%,60.784316%);stroke-opacity:1;stroke-miterlimit:4;" d="M 3 12.760417 L 3.898438 10.067708 L 4.583333 10.752604 L 5.768229 9.567708 L 6.192708 9.992188 L 5.007812 11.177083 L 5.695312 11.861979 Z M 3 12.760417 " transform="matrix(1.5,0,0,1.5,0,0)"/>
<path style="fill-rule:evenodd;fill:rgb(94.117647%,89.019608%,92.54902%);fill-opacity:1;stroke-width:0.5;stroke-linecap:round;stroke-linejoin:round;stroke:rgb(61.56863%,22.745098%,60.784316%);stroke-opacity:1;stroke-miterlimit:4;" d="M 13 12.760417 L 12.101562 10.067708 L 11.416667 10.752604 L 10.231771 9.567708 L 9.807292 9.992188 L 10.992188 11.177083 L 10.304688 11.861979 Z M 13 12.760417 " transform="matrix(1.5,0,0,1.5,0,0)"/>
</g>
</svg>
