<?xml version="1.0" encoding="UTF-8"?>
<svg xmlns="http://www.w3.org/2000/svg" xmlns:xlink="http://www.w3.org/1999/xlink" width="24px" height="24px" viewBox="0 0 24 24" version="1.1">
<defs>
<filter id="alpha" filterUnits="objectBoundingBox" x="0%" y="0%" width="100%" height="100%">
  <feColorMatrix type="matrix" in="SourceGraphic" values="0 0 0 0 1 0 0 0 0 1 0 0 0 0 1 0 0 0 1 0"/>
</filter>
<mask id="mask0">
  <g filter="url(#alpha)">
<rect x="0" y="0" width="24" height="24" style="fill:rgb(0%,0%,0%);fill-opacity:0.35;stroke:none;"/>
  </g>
</mask>
<clipPath id="clip1">
  <rect x="0" y="0" width="24" height="24"/>
</clipPath>
<g id="surface5" clip-path="url(#clip1)">
<path style=" stroke:none;fill-rule:nonzero;fill:rgb(33.333334%,34.117648%,32.549021%);fill-opacity:1;" d="M 15 6 L 9 1.5 L 6 4.5 L 12 9 L 12 15 L 6 18.761719 L 6 22.5 L 12 19.5 L 15 16.5 Z M 15 6 "/>
</g>
</defs>
<g id="surface1">
<path style=" stroke:none;fill-rule:nonzero;fill:rgb(33.333334%,34.117648%,32.549021%);fill-opacity:1;" d="M 18 12 C 18 5.371094 12.628906 0 6 0 L 4.5 0 L 4.5 7.5 L 6 7.5 C 8.484375 7.5 10.5 9.515625 10.5 12 C 10.5 14.484375 8.484375 16.5 6 16.5 L 4.5 16.5 L 4.5 24 L 6 24 C 12.628906 24 18 18.628906 18 12 Z M 15 12 C 15 16.472656 11.75 19.972656 7.5 20.699219 L 7.5 19.191406 C 10.875 18.46875 13.5 15.574219 13.5 12 C 13.5 8.425781 10.875 5.53125 7.5 4.808594 L 7.5 3.300781 C 11.75 4.027344 15 7.527344 15 12 Z M 15 12 "/>
<use xlink:href="#surface5" mask="url(#mask0)"/>
</g>
</svg>
