<?xml version="1.0" encoding="UTF-8"?>
<svg xmlns="http://www.w3.org/2000/svg" xmlns:xlink="http://www.w3.org/1999/xlink" width="24px" height="24px" viewBox="0 0 24 24" version="1.1">
<g id="surface1">
<path style=" stroke:none;fill-rule:nonzero;fill:rgb(33.333334%,34.117648%,32.549021%);fill-opacity:1;" d="M 0 0 L 0 4.5 L 4.5 4.5 L 4.5 0 Z M 19.5 0 L 19.5 4.5 L 24 4.5 L 24 0 Z M 7.5 4.5 L 7.5 7.5 L 13.5 7.5 C 14.328125 7.5 15 8.171875 15 9 L 15 10.5 L 9 10.5 C 6.515625 10.5 4.5 12.515625 4.5 15 C 4.5 17.484375 6.515625 19.5 9 19.5 L 18 19.5 L 18 9 C 18 6.515625 15.984375 4.5 13.5 4.5 Z M 9 13.5 L 15 13.5 L 15 16.5 L 9 16.5 C 8.171875 16.5 7.5 15.828125 7.5 15 C 7.5 14.171875 8.171875 13.5 9 13.5 Z M 0 19.5 L 0 24 L 4.5 24 L 4.5 19.5 Z M 19.5 19.5 L 19.5 24 L 24 24 L 24 19.5 Z M 19.5 19.5 "/>
</g>
</svg>
