<?xml version="1.0" encoding="UTF-8"?>
<svg xmlns="http://www.w3.org/2000/svg" xmlns:xlink="http://www.w3.org/1999/xlink" width="24px" height="24px" viewBox="0 0 24 24" version="1.1">
<g id="surface1">
<path style=" stroke:none;fill-rule:nonzero;fill:rgb(90.196079%,0.784314%,70.588237%);fill-opacity:1;" d="M 2.851562 2.980469 C 3.019531 2.988281 3.1875 3.03125 3.339844 3.109375 C 9.605469 6.292969 15.171875 8.636719 21.621094 11.515625 C 22.121094 11.738281 22.449219 12.292969 22.449219 12.910156 L 22.449219 19.523438 C 22.449219 20.019531 22.234375 20.484375 21.878906 20.761719 C 21.519531 21.039062 21.066406 21.097656 20.664062 20.910156 L 2.328125 12.480469 C 1.835938 12.253906 1.511719 11.703125 1.511719 11.089844 L 1.511719 4.476562 C 1.511719 4.074219 1.652344 3.683594 1.90625 3.402344 C 2.160156 3.121094 2.5 2.96875 2.851562 2.980469 Z M 2.851562 2.980469 "/>
<path style=" stroke:none;fill-rule:nonzero;fill:rgb(94.117647%,89.019608%,92.54902%);fill-opacity:1;" d="M 3 11.109375 L 20.992188 19.351562 L 20.992188 12.886719 C 14.679688 10.082031 9.191406 7.78125 3 4.648438 Z M 3 11.109375 "/>
</g>
</svg>
