<?xml version="1.0" encoding="UTF-8"?>
<svg xmlns="http://www.w3.org/2000/svg" xmlns:xlink="http://www.w3.org/1999/xlink" width="24px" height="24px" viewBox="0 0 24 24" version="1.1">
<g id="surface1">
<path style="fill-rule:nonzero;fill:rgb(94.117647%,89.019608%,92.54902%);fill-opacity:1;stroke-width:0.264583;stroke-linecap:butt;stroke-linejoin:miter;stroke:rgb(90.196079%,0.784314%,70.588237%);stroke-opacity:1;stroke-miterlimit:4;" d="M 1.898937 1.101053 C 1.772846 1.324984 1.115522 2.495627 0.989431 2.719559 C 0.86403 2.94349 1.139637 3.335542 1.605414 3.594613 C 2.071191 3.854373 2.550749 3.882623 2.67615 3.658692 C 2.802241 3.43476 3.459565 2.264117 3.585655 2.040186 C 3.711057 1.816254 3.435449 1.424203 2.969672 1.165131 C 2.504584 0.90606 2.024338 0.877121 1.898937 1.101053 Z M 1.898937 1.101053 " transform="matrix(5.669291,0,0,5.669291,0.00000135166,0)"/>
<path style="fill-rule:nonzero;fill:rgb(94.117647%,89.019608%,92.54902%);fill-opacity:1;stroke-width:0.264583;stroke-linecap:round;stroke-linejoin:round;stroke:rgb(90.196079%,0.784314%,70.588237%);stroke-opacity:1;stroke-miterlimit:4;" d="M 2.145605 0.948779 C 2.186947 0.944645 2.231044 0.943267 2.278586 0.946023 C 2.467377 0.957737 2.691998 1.012169 2.920063 1.139638 C 3.066824 1.220942 3.246658 1.331874 3.347944 1.429715 C 3.250792 1.338764 3.077159 1.2361 2.940733 1.160308 C 2.712668 1.03284 2.487359 0.978407 2.299257 0.966694 C 2.110465 0.95567 1.962326 1.002523 1.905827 1.111388 C 1.852772 1.214741 1.894113 1.362191 2.002289 1.516531 C 2.040185 1.570275 2.082216 1.619884 2.136648 1.673627 C 2.073258 1.613683 2.024338 1.556494 1.981619 1.495861 C 1.873443 1.34152 1.827279 1.20096 1.887223 1.094162 C 1.932009 1.013547 2.02296 0.96256 2.145605 0.948779 Z M 3.34381 1.42627 C 3.405821 1.486214 3.459565 1.547537 3.502973 1.608171 C 3.616661 1.770779 3.656624 1.931321 3.591168 2.048454 C 3.525022 2.165587 3.416157 2.206928 3.217719 2.195215 C 3.019282 2.183502 2.778125 2.109088 2.541791 1.977485 C 2.384006 1.88929 2.248269 1.786627 2.140782 1.67914 C 2.244824 1.779047 2.373671 1.874132 2.521121 1.956814 C 2.757454 2.088417 2.997922 2.16352 3.19636 2.175233 C 3.394797 2.186947 3.503662 2.144917 3.569808 2.027783 C 3.635265 1.91065 3.595302 1.750109 3.481613 1.5875 C 3.443717 1.533757 3.396864 1.479324 3.34381 1.42627 Z M 3.34381 1.42627 " transform="matrix(5.669291,0,0,5.669291,0.00000135166,0)"/>
<path style=" stroke:none;fill-rule:evenodd;fill:rgb(95.294118%,71.764708%,85.09804%);fill-opacity:1;" d="M 19.5 22.5 C 18.816406 22.507812 18.238281 22.398438 18.097656 22.402344 C 17.164062 22.4375 14.929688 21.804688 15.820312 21.03125 C 16.796875 20.1875 19.484375 20.207031 20.527344 21.023438 C 21.667969 21.914062 20.183594 22.492188 19.5 22.5 Z M 19.5 22.5 "/>
<path style=" stroke:none;fill-rule:nonzero;fill:rgb(90.196079%,0.392157%,70.588237%);fill-opacity:1;" d="M 14.636719 14.105469 L 11.023438 20.203125 C 8.859375 19.234375 6.320312 16.964844 5.90625 15.460938 L 9.425781 9.253906 C 9.859375 11.464844 12.503906 13.085938 14.636719 14.105469 Z M 14.636719 14.105469 "/>
<path style=" stroke:none;fill-rule:nonzero;fill:rgb(95.294118%,71.764708%,85.09804%);fill-opacity:1;" d="M 20.386719 10.300781 C 20.429688 10.640625 20.386719 10.953125 20.238281 11.222656 C 19.550781 12.488281 16.992188 12.175781 14.371094 10.835938 C 13.667969 10.476562 13.652344 9.878906 13.5 9.75 C 14.59375 9.0625 19.984375 8.613281 20.386719 10.300781 Z M 20.386719 10.300781 "/>
<path style=" stroke:none;fill-rule:evenodd;fill:rgb(95.294118%,71.764708%,85.09804%);fill-opacity:1;" d="M 18 12 C 18.835938 11.980469 19.140625 12.648438 19.195312 13.300781 C 19.355469 15.25 19.019531 16.617188 19.132812 18.175781 C 19.15625 18.492188 19.71875 18.8125 19.785156 18.105469 C 19.9375 16.472656 19.675781 15.324219 19.859375 13.066406 C 19.921875 12.320312 20.148438 11.601562 20.351562 10.75 "/>
<path style=" stroke:none;fill-rule:nonzero;fill:rgb(61.56863%,22.745098%,60.784316%);fill-opacity:1;" d="M 3 1.4375 L 21 1.4375 C 21.828125 1.4375 22.5 1.789062 22.5 2.21875 C 22.5 2.648438 21.828125 3 21 3 L 3 3 C 2.171875 3 1.5 2.648438 1.5 2.21875 C 1.5 1.789062 2.171875 1.4375 3 1.4375 Z M 3 1.4375 "/>
<path style=" stroke:none;fill-rule:nonzero;fill:rgb(61.56863%,22.745098%,60.784316%);fill-opacity:1;" d="M 3 3 L 3 21 C 3 21.828125 2.664062 22.5 2.25 22.5 C 1.835938 22.5 1.5 21.828125 1.5 21 L 1.5 3 C 1.5 2.171875 1.835938 1.5 2.25 1.5 C 2.664062 1.5 3 2.171875 3 3 Z M 3 3 "/>
</g>
</svg>
