<?xml version="1.0" encoding="UTF-8"?>
<svg xmlns="http://www.w3.org/2000/svg" xmlns:xlink="http://www.w3.org/1999/xlink" width="24px" height="24px" viewBox="0 0 24 24" version="1.1">
<defs>
<filter id="alpha" filterUnits="objectBoundingBox" x="0%" y="0%" width="100%" height="100%">
  <feColorMatrix type="matrix" in="SourceGraphic" values="0 0 0 0 1 0 0 0 0 1 0 0 0 0 1 0 0 0 1 0"/>
</filter>
<mask id="mask0">
  <g filter="url(#alpha)">
<rect x="0" y="0" width="24" height="24" style="fill:rgb(0%,0%,0%);fill-opacity:0.35;stroke:none;"/>
  </g>
</mask>
<clipPath id="clip1">
  <rect x="0" y="0" width="24" height="24"/>
</clipPath>
<g id="surface5" clip-path="url(#clip1)">
<path style=" stroke:none;fill-rule:nonzero;fill:rgb(33.333334%,34.117648%,32.549021%);fill-opacity:1;" d="M 1.5 4.5 L 21 4.5 L 21 16.550781 C 19.898438 15.609375 18.304688 15 16.5 15 C 13.960938 15 11.808594 16.203125 10.964844 18 C 10.453125 18.925781 8.484375 21 6 21 C 3.515625 21 1.5 19.65625 1.5 18 Z M 1.5 4.5 "/>
</g>
</defs>
<g id="surface1">
<use xlink:href="#surface5" mask="url(#mask0)"/>
<path style=" stroke:none;fill-rule:nonzero;fill:rgb(33.333334%,34.117648%,32.549021%);fill-opacity:1;" d="M 0 3 L 0 18 C 0 19.4375 0.878906 20.632812 1.988281 21.371094 C 3.09375 22.105469 4.488281 22.5 6 22.5 C 7.660156 22.5 9.0625 21.820312 10.105469 21.054688 C 11.152344 20.289062 11.855469 19.484375 12.277344 18.722656 L 12.300781 18.683594 L 12.320312 18.640625 C 12.859375 17.496094 14.433594 16.5 16.5 16.5 C 17.964844 16.5 19.226562 17.007812 20.023438 17.691406 L 22.5 19.816406 L 22.5 3 Z M 3 6 L 19.5 6 L 19.5 14.003906 C 18.578125 13.679688 17.566406 13.5 16.5 13.5 C 13.488281 13.503906 10.761719 14.914062 9.605469 17.363281 L 9.652344 17.277344 C 9.558594 17.441406 9.023438 18.132812 8.335938 18.636719 C 7.648438 19.136719 6.824219 19.5 6 19.5 C 5.027344 19.5 4.171875 19.21875 3.652344 18.871094 C 3.128906 18.527344 3 18.21875 3 18 Z M 3 6 "/>
</g>
</svg>
