<?xml version="1.0" encoding="UTF-8"?>
<svg xmlns="http://www.w3.org/2000/svg" xmlns:xlink="http://www.w3.org/1999/xlink" width="24px" height="24px" viewBox="0 0 24 24" version="1.1">
<g id="surface1">
<path style="fill-rule:nonzero;fill:rgb(94.117647%,89.019608%,92.54902%);fill-opacity:1;stroke-width:0.0742585;stroke-linecap:round;stroke-linejoin:round;stroke:rgb(90.196079%,0.784314%,70.588237%);stroke-opacity:1;stroke-miterlimit:4;" d="M 1.733729 1.344804 L 3.851579 1.344804 C 3.986133 1.344804 4.095526 1.447634 4.096073 1.575077 L 4.095526 3.984459 C 4.096073 4.111902 3.98668 4.214732 3.852126 4.214732 L 1.734276 4.214732 C 1.599723 4.214732 1.49033 4.111902 1.490877 3.984459 L 1.49033 1.575077 C 1.49033 1.448181 1.599176 1.344804 1.733729 1.344804 Z M 1.733729 1.344804 " transform="matrix(3.570838,3.570838,-3.570838,3.570838,10.771368,-9.067164)"/>
<path style="fill-rule:nonzero;fill:rgb(94.117647%,89.019608%,92.54902%);fill-opacity:1;stroke-width:0.280662;stroke-linecap:round;stroke-linejoin:round;stroke:rgb(90.196079%,0.784314%,70.588237%);stroke-opacity:1;stroke-miterlimit:4;" d="M 1.816868 1.448728 L 3.752579 1.448181 C 3.875646 1.448728 3.97574 1.543353 3.975193 1.66095 L 3.97574 3.882177 C 3.97574 3.999227 3.876193 4.094399 3.752579 4.094399 L 1.817415 4.094399 C 1.693801 4.094399 1.594253 3.999227 1.594253 3.882177 L 1.594253 1.660403 C 1.594253 1.543353 1.694348 1.448728 1.816868 1.448728 Z M 1.816868 1.448728 " transform="matrix(3.570838,3.570838,-3.570838,3.570838,10.771368,-9.067164)"/>
<path style="fill-rule:nonzero;fill:rgb(94.117647%,89.019608%,92.54902%);fill-opacity:1;stroke-width:0.0742585;stroke-linecap:round;stroke-linejoin:round;stroke:rgb(90.196079%,0.784314%,70.588237%);stroke-opacity:1;stroke-miterlimit:4;" d="M 2.137937 2.102351 C 2.146688 2.096882 2.15544 2.091412 2.164191 2.085942 C 2.180053 2.074456 2.197009 2.064064 2.212871 2.052577 C 2.231468 2.03945 2.250612 2.027964 2.270302 2.015931 C 2.288352 2.005538 2.306402 1.995146 2.325546 1.984754 C 2.341955 1.976002 2.358911 1.968892 2.377508 1.964516 C 2.396104 1.961234 2.413607 1.964516 2.430563 1.97272 C 2.445878 1.980378 2.458458 1.991864 2.468851 2.005538 C 2.478696 2.018666 2.486354 2.033981 2.493464 2.049843 C 2.499481 2.062423 2.504404 2.076097 2.509326 2.089771 C 2.513155 2.100163 2.518078 2.109462 2.523547 2.119307 C 2.529017 2.126965 2.535034 2.134075 2.543238 2.140092 C 2.551443 2.145015 2.560741 2.146655 2.571133 2.147202 C 2.584807 2.146655 2.596841 2.141186 2.609968 2.135716 C 2.627471 2.126965 2.644427 2.116572 2.660289 2.105086 C 2.679432 2.0936 2.697482 2.079926 2.715532 2.066252 C 2.733582 2.053671 2.751632 2.041091 2.770229 2.029058 C 2.786091 2.019759 2.801406 2.009914 2.816721 2.000069 C 2.829848 1.992411 2.842975 1.984754 2.856649 1.977643 C 2.87087 1.969986 2.886185 1.967798 2.902047 1.967251 C 2.917909 1.967798 2.931037 1.973267 2.944164 1.982019 C 2.956197 1.99077 2.966589 2.002257 2.974794 2.014837 C 2.982998 2.027417 2.989562 2.040544 2.995578 2.054218 C 3.000501 2.064611 3.004877 2.07555 3.0098 2.085942 C 3.014175 2.095788 3.018004 2.103992 3.024021 2.112197 C 3.02949 2.11876 3.03496 2.12423 3.043711 2.126418 C 3.054651 2.128606 3.06559 2.126418 3.075435 2.123136 C 3.089657 2.11876 3.10169 2.111103 3.11427 2.103992 C 3.127397 2.095241 3.140524 2.084301 3.152558 2.073362 C 3.164044 2.061876 3.176077 2.049843 3.18811 2.037809 C 3.198503 2.027417 3.208348 2.016478 3.21874 2.006085 C 3.227492 1.997334 3.236243 1.988582 3.246089 1.979831 C 3.253746 1.972173 3.263045 1.965063 3.272343 1.959046 C 3.283282 1.951389 3.294769 1.948654 3.307349 1.948107 C 3.319929 1.94756 3.331962 1.950842 3.342901 1.956311 C 3.353841 1.961781 3.362592 1.970533 3.369703 1.979831 C 3.376813 1.989129 3.381736 1.998428 3.386659 2.00882 C 3.390487 2.018119 3.394316 2.027417 3.398145 2.036715 C 3.401974 2.046014 3.406896 2.055312 3.410725 2.064611 C 3.414554 2.071721 3.41893 2.079379 3.422758 2.086489 C 3.426587 2.091412 3.430416 2.097429 3.435886 2.10071 C 3.441902 2.104539 3.449013 2.108368 3.455576 2.11165 C 3.463234 2.113837 3.470344 2.114384 3.478549 2.113837 C 3.487847 2.113291 3.496052 2.109462 3.504256 2.105633 C 3.514649 2.10071 3.5234 2.094147 3.532152 2.086489 C 3.541997 2.077738 3.551842 2.067892 3.560594 2.058047 C 3.568798 2.048749 3.578644 2.039997 3.586848 2.030699 C 3.594506 2.021947 3.602163 2.013196 3.609821 2.004444 C 3.618025 1.997334 3.624042 1.989129 3.632246 1.982019 C 3.639904 1.976549 3.647014 1.970533 3.655219 1.964516 C 3.659594 1.961234 3.66397 1.957952 3.667799 1.954124 C 3.697882 1.930604 3.714291 1.951389 3.684755 1.975455 C 3.680379 1.978737 3.676003 1.982019 3.671628 1.985301 C 3.664517 1.991317 3.65686 1.996787 3.650296 2.002257 C 3.642639 2.00882 3.636622 2.017025 3.630058 2.023588 C 3.621854 2.031793 3.61529 2.040544 3.607086 2.048749 C 3.598881 2.058047 3.589583 2.067345 3.581378 2.076644 C 3.571533 2.087583 3.561141 2.097976 3.550748 2.107274 C 3.539809 2.116025 3.528323 2.12423 3.515743 2.130246 C 3.504803 2.135716 3.493317 2.139545 3.48019 2.140639 C 3.468157 2.141733 3.456123 2.140639 3.444637 2.135716 C 3.435886 2.132434 3.427134 2.128059 3.419477 2.121495 C 3.411819 2.116025 3.405256 2.108368 3.400333 2.100163 C 3.394863 2.092506 3.390487 2.084848 3.386659 2.076644 C 3.381736 2.067345 3.37736 2.0575 3.374079 2.047655 C 3.369703 2.038903 3.365327 2.029058 3.361498 2.019759 C 3.358217 2.012102 3.353841 2.00335 3.348371 1.996787 C 3.343448 1.99077 3.338526 1.984754 3.331415 1.980925 C 3.324305 1.977096 3.316647 1.974908 3.30899 1.974908 C 3.300785 1.975455 3.293675 1.977096 3.287111 1.981472 C 3.278907 1.986395 3.271796 1.992411 3.264685 1.999522 C 3.255934 2.008273 3.247183 2.017025 3.238431 2.025776 C 3.228039 2.036168 3.218193 2.047108 3.208348 2.058047 C 3.196315 2.07008 3.183735 2.08266 3.171154 2.094147 C 3.158027 2.10618 3.143806 2.118213 3.128491 2.128059 C 3.11427 2.13681 3.099502 2.145015 3.083093 2.150484 C 3.067778 2.15486 3.051916 2.156501 3.036054 2.152672 C 3.02238 2.147749 3.011987 2.140639 3.003236 2.129699 C 2.995578 2.119854 2.990109 2.108915 2.985733 2.097976 C 2.980263 2.087036 2.975888 2.076097 2.970965 2.065705 C 2.965495 2.053671 2.959479 2.042185 2.952368 2.030699 C 2.945805 2.020853 2.938147 2.012102 2.928849 2.004991 C 2.920644 1.998975 2.91244 1.995146 2.902594 1.995146 C 2.890561 1.995146 2.879622 1.99624 2.869229 2.002257 C 2.856649 2.009367 2.844069 2.016478 2.832036 2.024135 C 2.816721 2.033981 2.800859 2.044373 2.785544 2.054218 C 2.768041 2.065158 2.750538 2.077191 2.733582 2.089771 C 2.714985 2.103992 2.696388 2.117119 2.676698 2.130246 C 2.658648 2.141733 2.640598 2.153219 2.620907 2.16197 C 2.604498 2.168534 2.587542 2.174551 2.570039 2.174551 C 2.554177 2.174004 2.538862 2.170722 2.525735 2.16197 C 2.51589 2.153219 2.507138 2.144468 2.500028 2.132981 C 2.493464 2.122042 2.487995 2.111103 2.484166 2.099616 C 2.478696 2.086489 2.473773 2.073909 2.467757 2.061329 C 2.46174 2.047655 2.455177 2.034528 2.446425 2.022494 C 2.438768 2.012649 2.430016 2.003897 2.419077 1.997334 C 2.407591 1.992411 2.396104 1.989676 2.383524 1.992411 C 2.367662 1.99624 2.353441 2.002804 2.33922 2.010461 C 2.32117 2.020853 2.30312 2.030152 2.285617 2.041091 C 2.267021 2.053124 2.24733 2.064064 2.22928 2.076644 C 2.212871 2.087583 2.196462 2.098522 2.179506 2.108915 C 2.169661 2.115478 2.158721 2.122042 2.147782 2.126418 C 2.113323 2.140092 2.103478 2.116025 2.137937 2.102351 Z M 2.137937 2.102351 " transform="matrix(3.570838,3.570838,-3.570838,3.570838,10.771368,-9.067164)"/>
<path style="fill-rule:nonzero;fill:rgb(94.117647%,89.019608%,92.54902%);fill-opacity:1;stroke-width:0.0742585;stroke-linecap:round;stroke-linejoin:round;stroke:rgb(90.196079%,0.784314%,70.588237%);stroke-opacity:1;stroke-miterlimit:4;" d="M 2.137937 2.483039 C 2.146688 2.477569 2.15544 2.4721 2.164738 2.466083 C 2.180053 2.455144 2.196462 2.444205 2.212871 2.433265 C 2.231468 2.420138 2.250612 2.408652 2.270302 2.396619 C 2.288352 2.386226 2.306949 2.375287 2.325546 2.365442 C 2.341955 2.35669 2.358911 2.34958 2.377508 2.345204 C 2.396104 2.341922 2.413607 2.345204 2.43111 2.352861 C 2.446425 2.360519 2.458458 2.372552 2.468851 2.386226 C 2.478696 2.399353 2.486354 2.414668 2.492917 2.429984 C 2.499481 2.443111 2.504404 2.456785 2.509873 2.469912 C 2.513155 2.480851 2.518078 2.49015 2.524094 2.499448 C 2.529017 2.507653 2.535034 2.514763 2.543238 2.52078 C 2.551443 2.525702 2.561288 2.526796 2.570586 2.527343 C 2.58426 2.526796 2.597388 2.521327 2.609421 2.515857 C 2.627471 2.507653 2.64388 2.496713 2.660289 2.485774 C 2.679432 2.473194 2.698029 2.460067 2.716079 2.446392 C 2.733035 2.433812 2.751632 2.421779 2.770229 2.409746 C 2.786091 2.400447 2.801406 2.390602 2.816721 2.380757 C 2.829848 2.373099 2.842975 2.365442 2.856649 2.358331 C 2.870323 2.350127 2.886732 2.347939 2.902047 2.347939 C 2.917362 2.347939 2.931037 2.353955 2.943617 2.36216 C 2.956744 2.370911 2.966589 2.382944 2.974794 2.395525 C 2.983545 2.407558 2.989562 2.421232 2.996125 2.434359 C 3.000501 2.445299 3.004877 2.456238 3.0098 2.46663 C 3.013628 2.475929 3.018004 2.48468 3.024021 2.492885 C 3.02949 2.499448 3.03496 2.504918 3.043711 2.507106 C 3.054651 2.509293 3.06559 2.507106 3.075435 2.503824 C 3.089657 2.499448 3.10169 2.491791 3.11427 2.48468 C 3.127944 2.475382 3.140524 2.464989 3.152011 2.453503 C 3.164591 2.442017 3.176077 2.43053 3.18811 2.418497 C 3.198503 2.408105 3.208348 2.397166 3.21874 2.386773 C 3.227492 2.378022 3.236243 2.36927 3.245542 2.359972 C 3.254293 2.352314 3.262498 2.345204 3.27289 2.339187 C 3.283282 2.332077 3.294769 2.329342 3.306802 2.328248 C 3.319929 2.328248 3.331962 2.33153 3.342901 2.336999 C 3.353841 2.342469 3.362592 2.35122 3.369703 2.360519 C 3.376266 2.36927 3.381736 2.379116 3.386659 2.389508 C 3.390487 2.398806 3.394316 2.408105 3.398692 2.416856 C 3.401974 2.426702 3.406349 2.435453 3.411272 2.444752 C 3.414554 2.452409 3.41893 2.460067 3.422758 2.467177 C 3.426587 2.4721 3.429869 2.477569 3.435886 2.481398 C 3.441902 2.485227 3.449013 2.489056 3.455576 2.492338 C 3.463234 2.494525 3.470891 2.494525 3.478549 2.494525 C 3.4873 2.493431 3.496052 2.49015 3.504256 2.486321 C 3.514649 2.481398 3.523947 2.474288 3.532152 2.467177 C 3.541997 2.458426 3.551842 2.44858 3.560594 2.438735 C 3.568798 2.429437 3.578097 2.420138 3.587395 2.41084 C 3.594506 2.402635 3.602163 2.393884 3.609821 2.385132 C 3.617478 2.377475 3.624042 2.369817 3.632246 2.362707 C 3.639357 2.35669 3.647561 2.350674 3.655219 2.345204 C 3.659594 2.341922 3.663423 2.338093 3.667799 2.334812 C 3.697882 2.311292 3.714291 2.332077 3.684755 2.356143 C 3.680379 2.359425 3.676003 2.362707 3.671628 2.365989 C 3.664517 2.372005 3.65686 2.377475 3.650296 2.382944 C 3.642639 2.389508 3.636622 2.397713 3.630058 2.404276 C 3.621854 2.412481 3.614743 2.420685 3.607633 2.42889 C 3.598881 2.438735 3.589583 2.448033 3.581378 2.457332 C 3.571533 2.468271 3.561141 2.478663 3.550201 2.487415 C 3.539809 2.496713 3.528323 2.504918 3.515743 2.510934 C 3.504803 2.516404 3.493317 2.520233 3.480737 2.52078 C 3.468157 2.522421 3.456123 2.521327 3.444637 2.516404 C 3.436433 2.512575 3.427681 2.5082 3.419477 2.502183 C 3.411819 2.496713 3.405256 2.489056 3.400333 2.480851 C 3.39541 2.472647 3.391034 2.464989 3.386659 2.457332 C 3.382283 2.447486 3.37736 2.438188 3.373532 2.427796 C 3.369703 2.418497 3.365327 2.409746 3.361498 2.400447 C 3.35767 2.392243 3.353841 2.384038 3.348371 2.377475 C 3.343448 2.371458 3.338526 2.365442 3.331415 2.361613 C 3.324305 2.357784 3.316647 2.355596 3.30899 2.355596 C 3.300785 2.356143 3.293675 2.357784 3.287111 2.36216 C 3.278907 2.367082 3.271796 2.373099 3.265232 2.379663 C 3.255934 2.388961 3.247183 2.397713 3.238431 2.406464 C 3.228039 2.416856 3.218193 2.427796 3.207801 2.438188 C 3.196315 2.450768 3.184282 2.462801 3.171154 2.474835 C 3.158027 2.486868 3.143806 2.498901 3.128491 2.508747 C 3.11427 2.517498 3.099502 2.525702 3.08364 2.530625 C 3.067778 2.535548 3.051916 2.537189 3.036054 2.53336 C 3.02238 2.528437 3.011987 2.521327 3.003236 2.510387 C 2.995578 2.500542 2.990109 2.489603 2.985733 2.478663 C 2.980263 2.467724 2.975888 2.456785 2.970418 2.445846 C 2.965495 2.434359 2.958932 2.422326 2.952368 2.411387 C 2.945805 2.401541 2.938147 2.39279 2.928849 2.385679 C 2.920644 2.379663 2.91244 2.375834 2.902047 2.375287 C 2.891108 2.375287 2.879622 2.376928 2.869229 2.382944 C 2.857196 2.389508 2.844069 2.397166 2.832036 2.404823 C 2.816721 2.414668 2.801406 2.424514 2.785544 2.434906 C 2.768041 2.445846 2.749991 2.457332 2.733582 2.470459 C 2.714438 2.484133 2.696388 2.497807 2.676698 2.50984 C 2.658648 2.522421 2.640598 2.533907 2.620907 2.542658 C 2.604498 2.549222 2.587542 2.555239 2.570039 2.555239 C 2.554177 2.554692 2.539409 2.550863 2.526282 2.542111 C 2.51589 2.533907 2.506591 2.524609 2.500028 2.513669 C 2.493464 2.50273 2.487995 2.491791 2.483619 2.479757 C 2.478696 2.467177 2.473773 2.454597 2.467757 2.442017 C 2.46174 2.428343 2.455177 2.415215 2.446425 2.403182 C 2.438768 2.393337 2.430563 2.384038 2.419077 2.378022 C 2.407591 2.373099 2.396104 2.370364 2.383524 2.373099 C 2.367662 2.375834 2.353441 2.383491 2.33922 2.391149 C 2.320623 2.400994 2.30312 2.41084 2.285617 2.421779 C 2.267021 2.433812 2.24733 2.444752 2.22928 2.457332 C 2.212871 2.468271 2.196462 2.47921 2.179506 2.489603 C 2.169661 2.496166 2.158721 2.50273 2.147782 2.507106 C 2.113323 2.52078 2.103478 2.496713 2.137937 2.483039 Z M 2.137937 2.483039 " transform="matrix(3.570838,3.570838,-3.570838,3.570838,10.771368,-9.067164)"/>
<path style="fill-rule:nonzero;fill:rgb(94.117647%,89.019608%,92.54902%);fill-opacity:1;stroke-width:0.0742585;stroke-linecap:round;stroke-linejoin:round;stroke:rgb(90.196079%,0.784314%,70.588237%);stroke-opacity:1;stroke-miterlimit:4;" d="M 2.137937 2.812312 C 2.147235 2.80739 2.155987 2.80192 2.164191 2.795903 C 2.1806 2.784964 2.197009 2.774025 2.212871 2.762538 C 2.231468 2.750505 2.251159 2.738472 2.270302 2.726986 C 2.288352 2.715499 2.306949 2.705654 2.325546 2.695809 C 2.342502 2.68651 2.359458 2.6794 2.378055 2.675024 C 2.396651 2.671742 2.414154 2.675024 2.430563 2.682682 C 2.445878 2.690339 2.457911 2.702372 2.468851 2.715499 C 2.478696 2.729721 2.485807 2.744489 2.493464 2.759804 C 2.498934 2.772931 2.504404 2.786058 2.509326 2.799732 C 2.513155 2.810124 2.518625 2.81997 2.523547 2.829268 C 2.52847 2.837473 2.535581 2.844583 2.542691 2.8506 C 2.551443 2.854976 2.561288 2.857163 2.571133 2.857163 C 2.584807 2.856617 2.597388 2.851694 2.609421 2.846224 C 2.627471 2.83802 2.64388 2.82708 2.660289 2.816141 C 2.679432 2.803561 2.697482 2.789887 2.716079 2.77676 C 2.733582 2.763632 2.751632 2.751052 2.770229 2.740113 C 2.785544 2.730268 2.801406 2.720969 2.816721 2.711124 C 2.829848 2.702372 2.842975 2.694715 2.856649 2.687604 C 2.87087 2.679947 2.886185 2.677759 2.902594 2.677759 C 2.917909 2.677759 2.931583 2.683775 2.944164 2.69198 C 2.956197 2.700731 2.966042 2.712765 2.975341 2.725345 C 2.982998 2.737378 2.989562 2.750505 2.995578 2.764179 C 3.000501 2.774572 3.004877 2.785511 3.010347 2.79645 C 3.014175 2.805749 3.018004 2.815047 3.024568 2.822705 C 3.02949 2.829815 3.03496 2.834191 3.043711 2.836379 C 3.054104 2.839114 3.065043 2.836926 3.075982 2.833644 C 3.08911 2.829268 3.10169 2.822158 3.113723 2.8145 C 3.127944 2.805749 3.139977 2.794809 3.152011 2.78387 C 3.164044 2.771837 3.176077 2.759804 3.18811 2.74777 C 3.197956 2.737925 3.207801 2.726986 3.21874 2.71714 C 3.227492 2.707295 3.23679 2.69909 3.245542 2.690339 C 3.253746 2.682135 3.263045 2.675024 3.272343 2.669007 C 3.282735 2.661897 3.294769 2.658615 3.307349 2.658068 C 3.319929 2.657521 3.331962 2.660803 3.343448 2.66682 C 3.354388 2.672289 3.362045 2.681041 3.369703 2.690886 C 3.376813 2.69909 3.381736 2.709483 3.386112 2.719328 C 3.389941 2.728627 3.394316 2.737378 3.398692 2.747223 C 3.401974 2.755975 3.406349 2.76582 3.410725 2.774572 C 3.414554 2.782776 3.41893 2.78934 3.423305 2.796997 C 3.427134 2.80192 3.430416 2.80739 3.435886 2.810671 C 3.441902 2.815594 3.448466 2.818876 3.455576 2.821611 C 3.463234 2.823799 3.470891 2.824893 3.478549 2.823799 C 3.487847 2.823252 3.496052 2.820517 3.503709 2.816141 C 3.514102 2.811218 3.5234 2.804108 3.532152 2.79645 C 3.542544 2.788246 3.551295 2.7784 3.560047 2.768555 C 3.568798 2.75871 3.578644 2.749958 3.586848 2.74066 C 3.594506 2.731908 3.602163 2.723157 3.610368 2.714952 C 3.617478 2.707842 3.624589 2.699637 3.632793 2.692527 C 3.639904 2.68651 3.647561 2.681041 3.654672 2.675024 C 3.659594 2.671195 3.66397 2.667913 3.668346 2.664632 C 3.697335 2.641112 3.714838 2.661897 3.684755 2.685416 C 3.680379 2.688698 3.67655 2.692527 3.671628 2.696356 C 3.664517 2.701278 3.657407 2.707295 3.650296 2.713312 C 3.643185 2.719328 3.636622 2.726986 3.629511 2.734096 C 3.621854 2.741754 3.614743 2.751052 3.607633 2.759257 C 3.598881 2.769102 3.589583 2.777307 3.580831 2.787152 C 3.571533 2.797544 3.561141 2.807937 3.550201 2.817782 C 3.540356 2.826533 3.52887 2.834738 3.51629 2.840755 C 3.504803 2.845677 3.493317 2.8506 3.480737 2.851147 C 3.468157 2.851694 3.456123 2.8506 3.444637 2.846771 C 3.435886 2.842395 3.427134 2.83802 3.419477 2.83255 C 3.411819 2.825986 3.405803 2.818876 3.399786 2.810671 C 3.39541 2.803014 3.390487 2.794809 3.386659 2.786605 C 3.381736 2.777307 3.376813 2.768008 3.373532 2.758163 C 3.369703 2.748864 3.365874 2.739566 3.362045 2.730268 C 3.358217 2.722063 3.353841 2.714406 3.348371 2.706748 C 3.343448 2.700731 3.338526 2.694715 3.331415 2.690886 C 3.324305 2.687057 3.317194 2.685416 3.308443 2.685416 C 3.300785 2.685416 3.293675 2.687057 3.286564 2.69198 C 3.279453 2.696903 3.271796 2.703466 3.264685 2.709483 C 3.255934 2.718234 3.247183 2.726986 3.237884 2.736284 C 3.228039 2.747223 3.21874 2.757616 3.208348 2.768008 C 3.195768 2.780588 3.183735 2.792622 3.171701 2.804655 C 3.158027 2.817235 3.144353 2.828721 3.129038 2.838567 C 3.11427 2.846771 3.100049 2.855523 3.083093 2.860445 C 3.067778 2.864821 3.051916 2.867556 3.036054 2.862633 C 3.02238 2.858804 3.01144 2.851147 3.003236 2.839661 C 2.995578 2.829815 2.990109 2.81997 2.985186 2.808484 C 2.980263 2.798091 2.975341 2.786605 2.970965 2.775666 C 2.964948 2.764179 2.959479 2.752146 2.952368 2.74066 C 2.945258 2.731361 2.938147 2.722063 2.928849 2.714952 C 2.920644 2.71003 2.91244 2.705107 2.902594 2.705107 C 2.890561 2.705107 2.880169 2.706748 2.869776 2.712765 C 2.856649 2.719328 2.844616 2.726986 2.832036 2.734096 C 2.816721 2.745036 2.801406 2.754881 2.785544 2.764179 C 2.767494 2.775666 2.750538 2.787152 2.733582 2.799732 C 2.714985 2.813953 2.695841 2.827627 2.676698 2.840208 C 2.658648 2.851694 2.640598 2.86318 2.620907 2.871932 C 2.604498 2.878495 2.588089 2.885059 2.570039 2.884512 C 2.554177 2.883965 2.539409 2.88123 2.526282 2.872479 C 2.51589 2.864274 2.507138 2.854429 2.500028 2.842942 C 2.494011 2.83255 2.487995 2.821064 2.484166 2.809577 C 2.478696 2.797544 2.473773 2.78387 2.468304 2.771837 C 2.46174 2.75871 2.45463 2.745036 2.446972 2.733002 C 2.438768 2.72261 2.430016 2.713859 2.419077 2.708389 C 2.407591 2.702372 2.396104 2.700731 2.383524 2.702372 C 2.367662 2.706201 2.353441 2.712765 2.338673 2.720969 C 2.32117 2.730814 2.30312 2.741207 2.286164 2.751599 C 2.267021 2.763085 2.247877 2.774572 2.22928 2.786605 C 2.213418 2.798091 2.196462 2.808484 2.180053 2.819423 C 2.169114 2.825986 2.159268 2.83255 2.147235 2.836926 C 2.11387 2.8506 2.104025 2.826533 2.137937 2.812312 Z M 2.137937 2.812312 " transform="matrix(3.570838,3.570838,-3.570838,3.570838,10.771368,-9.067164)"/>
<path style="fill-rule:nonzero;fill:rgb(94.117647%,89.019608%,92.54902%);fill-opacity:1;stroke-width:0.0742585;stroke-linecap:round;stroke-linejoin:round;stroke:rgb(90.196079%,0.784314%,70.588237%);stroke-opacity:1;stroke-miterlimit:4;" d="M 1.725928 1.336672 L 3.843842 1.336672 C 3.978435 1.336672 4.087503 1.439551 4.087503 1.566409 L 4.087503 3.975942 C 4.087503 4.103574 3.978435 4.206453 3.843842 4.206453 L 1.725928 4.206453 C 1.591334 4.206453 1.482267 4.103574 1.482267 3.975942 L 1.482267 1.566409 C 1.482267 1.439551 1.591334 1.336672 1.725928 1.336672 Z M 1.725928 1.336672 " transform="matrix(5.049928,0,0,5.049928,1.858408,1.257716)"/>
<path style="fill-rule:nonzero;fill:rgb(94.117647%,89.019608%,92.54902%);fill-opacity:1;stroke-width:0.280662;stroke-linecap:round;stroke-linejoin:round;stroke:rgb(90.196079%,0.784314%,70.588237%);stroke-opacity:1;stroke-miterlimit:4;" d="M 1.817204 1.448833 L 3.752566 1.448833 C 3.875556 1.448833 3.975341 1.543203 3.975341 1.660779 L 3.975341 3.882346 C 3.975341 3.999148 3.875556 4.094292 3.752566 4.094292 L 1.817204 4.094292 C 1.694213 4.094292 1.594428 3.999148 1.594428 3.882346 L 1.594428 1.660779 C 1.594428 1.543203 1.694213 1.448833 1.817204 1.448833 Z M 1.817204 1.448833 " transform="matrix(5.049928,0,0,5.049928,1.858408,1.257716)"/>
<path style="fill-rule:nonzero;fill:rgb(94.117647%,89.019608%,92.54902%);fill-opacity:1;stroke-width:0.0742585;stroke-linecap:round;stroke-linejoin:round;stroke:rgb(90.196079%,0.784314%,70.588237%);stroke-opacity:1;stroke-miterlimit:4;" d="M 2.138217 2.102463 C 2.146726 2.097048 2.156008 2.091633 2.164517 2.085445 C 2.179988 2.074616 2.197005 2.063786 2.212476 2.052957 C 2.231814 2.039807 2.251152 2.028204 2.27049 2.016601 C 2.288281 2.004998 2.306846 1.994943 2.32541 1.984887 C 2.342428 1.976378 2.359446 1.968643 2.37801 1.964775 C 2.396575 1.960907 2.413592 1.964775 2.43061 1.97251 C 2.446081 1.980246 2.458457 1.991848 2.468513 2.005772 C 2.478569 2.018922 2.486304 2.034392 2.493266 2.049089 C 2.499454 2.062239 2.504095 2.076163 2.50951 2.089313 C 2.513377 2.100142 2.518018 2.109424 2.523433 2.11948 C 2.528848 2.127215 2.535036 2.134177 2.542771 2.140365 C 2.55128 2.145007 2.561336 2.146554 2.570618 2.146554 C 2.584542 2.146554 2.596918 2.141139 2.609294 2.135724 C 2.627859 2.127215 2.644103 2.116386 2.660347 2.105557 C 2.679685 2.09318 2.697476 2.079257 2.716041 2.066107 C 2.733832 2.052957 2.751623 2.041354 2.770188 2.029751 C 2.785658 2.019695 2.801129 2.010413 2.816599 2.000357 C 2.829749 1.992622 2.842899 1.984887 2.856823 1.977925 C 2.870746 1.969416 2.886217 1.967096 2.902461 1.967096 C 2.917931 1.967096 2.931081 1.973284 2.944231 1.981793 C 2.956608 1.990301 2.96589 2.002678 2.975172 2.015054 C 2.982908 2.027431 2.989869 2.040581 2.996057 2.05373 C 3.000699 2.06456 3.00534 2.075389 3.009981 2.086219 C 3.013849 2.095501 3.017716 2.10401 3.024678 2.112518 C 3.029319 2.11948 3.035507 2.124121 3.043243 2.126442 C 3.054845 2.128762 3.064901 2.126442 3.075731 2.123348 C 3.089654 2.118707 3.102031 2.111745 3.113633 2.10401 C 3.127557 2.095501 3.139933 2.084672 3.15231 2.073069 C 3.163913 2.061466 3.176289 2.049863 3.187892 2.03826 C 3.198721 2.027431 3.208004 2.016601 3.218833 2.006545 C 3.227342 1.997263 3.236624 1.988754 3.245906 1.979472 C 3.254415 1.971737 3.262924 1.964775 3.272206 1.958587 C 3.283036 1.951625 3.294638 1.948531 3.307015 1.947757 C 3.320165 1.947757 3.331768 1.950852 3.343371 1.956266 C 3.3542 1.962454 3.361935 1.970963 3.36967 1.980246 C 3.376632 1.988754 3.382047 1.99881 3.386688 2.008866 C 3.389782 2.018148 3.394423 2.027431 3.398291 2.036713 C 3.402159 2.045995 3.4068 2.055278 3.410667 2.06456 C 3.414535 2.072295 3.419176 2.079257 3.423044 2.086219 C 3.426911 2.091633 3.430006 2.097048 3.43542 2.100916 C 3.442382 2.104783 3.44857 2.108651 3.455532 2.111745 C 3.463267 2.114066 3.471002 2.114066 3.478738 2.113292 C 3.487246 2.113292 3.495755 2.110198 3.504264 2.105557 C 3.51432 2.100916 3.523602 2.093954 3.532111 2.086219 C 3.542167 2.07771 3.551449 2.068427 3.560731 2.058372 C 3.56924 2.048316 3.578522 2.039807 3.587031 2.030525 C 3.594767 2.022016 3.601728 2.012734 3.610237 2.004998 C 3.617972 1.997263 3.624161 1.989528 3.632669 1.982566 C 3.639631 1.976378 3.647366 1.97019 3.655102 1.964775 C 3.659743 1.960907 3.66361 1.957813 3.668251 1.953946 C 3.697645 1.93074 3.714663 1.951625 3.684496 1.974831 C 3.680628 1.978698 3.675987 1.982566 3.671346 1.98566 C 3.664384 1.991075 3.657422 1.99649 3.65046 2.002678 C 3.642725 2.008866 3.636537 2.016601 3.629575 2.023563 C 3.62184 2.031298 3.614878 2.040581 3.607143 2.048316 C 3.598634 2.058372 3.589352 2.06688 3.580843 2.076936 C 3.571561 2.087766 3.561505 2.097821 3.550676 2.107104 C 3.539846 2.116386 3.529017 2.124121 3.515867 2.13031 C 3.505038 2.135724 3.493435 2.139592 3.481058 2.140365 C 3.468682 2.141912 3.456305 2.140365 3.444702 2.135724 C 3.436194 2.131857 3.426911 2.127989 3.419176 2.121801 C 3.411441 2.115613 3.405253 2.108651 3.399838 2.100142 C 3.395197 2.092407 3.390556 2.084672 3.386688 2.076163 C 3.382047 2.06688 3.377406 2.057598 3.373538 2.047542 C 3.36967 2.03826 3.365803 2.028978 3.361935 2.019695 C 3.358068 2.01196 3.3542 2.003451 3.348012 1.99649 C 3.343371 1.990301 3.337956 1.984887 3.331768 1.981019 C 3.324032 1.977151 3.317071 1.974831 3.308562 1.974831 C 3.300827 1.975604 3.293865 1.977151 3.286903 1.981793 C 3.279168 1.986434 3.271433 1.992622 3.265244 1.999584 C 3.255962 2.008092 3.247453 2.017375 3.238171 2.025884 C 3.228115 2.036713 3.218059 2.047542 3.208004 2.057598 C 3.195627 2.069975 3.184024 2.082351 3.171648 2.093954 C 3.158498 2.10633 3.144574 2.118707 3.129104 2.127989 C 3.114407 2.136498 3.09971 2.145007 3.083466 2.150421 C 3.067995 2.154289 3.051751 2.156609 3.036281 2.152742 C 3.022357 2.148101 3.011528 2.141139 3.003019 2.129536 C 2.995284 2.120254 2.989869 2.109424 2.985228 2.097821 C 2.980587 2.086992 2.975946 2.076163 2.970531 2.065333 C 2.965116 2.05373 2.958928 2.042128 2.951966 2.030525 C 2.945778 2.021242 2.938043 2.01196 2.928761 2.004998 C 2.920252 1.999584 2.912517 1.994943 2.902461 1.994943 C 2.890858 1.994943 2.880029 1.99649 2.869973 2.001904 C 2.856823 2.008866 2.844446 2.016601 2.83207 2.024336 C 2.816599 2.034392 2.801129 2.044448 2.785658 2.05373 C 2.767867 2.065333 2.750076 2.076936 2.733059 2.089313 C 2.715268 2.103236 2.695929 2.11716 2.676591 2.129536 C 2.6588 2.141912 2.640236 2.153515 2.620897 2.162024 C 2.604653 2.168212 2.587636 2.174401 2.569845 2.174401 C 2.554374 2.173627 2.538904 2.170533 2.525754 2.162024 C 2.515698 2.153515 2.507189 2.144233 2.500227 2.13263 C 2.494039 2.122574 2.487851 2.110971 2.483983 2.099369 C 2.478569 2.086992 2.473927 2.073842 2.467739 2.061466 C 2.461551 2.048316 2.455363 2.034392 2.446854 2.022789 C 2.439119 2.012734 2.43061 2.003451 2.419007 1.998037 C 2.407404 1.992622 2.395801 1.990301 2.383425 1.992622 C 2.367954 1.995716 2.353257 2.002678 2.339334 2.010413 C 2.320769 2.020469 2.302978 2.030525 2.285961 2.041354 C 2.266623 2.052957 2.247284 2.063786 2.229493 2.076936 C 2.213249 2.087766 2.196232 2.098595 2.179988 2.109424 C 2.169158 2.115613 2.159102 2.121801 2.1475 2.126442 C 2.113464 2.140365 2.104182 2.116386 2.138217 2.102463 Z M 2.138217 2.102463 " transform="matrix(5.049928,0,0,5.049928,1.858408,1.257716)"/>
<path style="fill-rule:nonzero;fill:rgb(94.117647%,89.019608%,92.54902%);fill-opacity:1;stroke-width:0.0742585;stroke-linecap:round;stroke-linejoin:round;stroke:rgb(90.196079%,0.784314%,70.588237%);stroke-opacity:1;stroke-miterlimit:4;" d="M 2.138217 2.483037 C 2.146726 2.477623 2.156008 2.472208 2.164517 2.46602 C 2.179988 2.45519 2.197005 2.444361 2.212476 2.432758 C 2.231814 2.420382 2.251152 2.408779 2.27049 2.396402 C 2.288281 2.385573 2.306846 2.375517 2.32541 2.365461 C 2.342428 2.356953 2.359446 2.349217 2.37801 2.34535 C 2.396575 2.341482 2.413592 2.34535 2.43061 2.353085 C 2.446081 2.36082 2.458457 2.372423 2.468513 2.385573 C 2.478569 2.399497 2.486304 2.414967 2.493266 2.429664 C 2.499454 2.442814 2.504095 2.456737 2.50951 2.469887 C 2.513377 2.480717 2.518018 2.489999 2.523433 2.499281 C 2.528848 2.50779 2.535036 2.514752 2.542771 2.52094 C 2.55128 2.525581 2.561336 2.527128 2.570618 2.527128 C 2.584542 2.527128 2.596918 2.521714 2.609294 2.516299 C 2.627859 2.50779 2.644103 2.496961 2.660347 2.486131 C 2.679685 2.473755 2.697476 2.459832 2.716041 2.446682 C 2.733832 2.433532 2.751623 2.421155 2.770188 2.410326 C 2.785658 2.40027 2.801129 2.390988 2.816599 2.380932 C 2.829749 2.373197 2.842899 2.365461 2.856823 2.3585 C 2.870746 2.349991 2.886217 2.34767 2.902461 2.34767 C 2.917931 2.34767 2.931081 2.353859 2.944231 2.362367 C 2.956608 2.370876 2.96589 2.383253 2.975172 2.395629 C 2.982908 2.408005 2.989869 2.421155 2.996057 2.434305 C 3.000699 2.445135 3.00534 2.455964 3.009981 2.466793 C 3.013849 2.476076 3.017716 2.484584 3.024678 2.493093 C 3.029319 2.500055 3.035507 2.504696 3.043243 2.507017 C 3.054845 2.509337 3.064901 2.507017 3.075731 2.503923 C 3.089654 2.499281 3.102031 2.49232 3.113633 2.484584 C 3.127557 2.475302 3.139933 2.465246 3.15231 2.453643 C 3.163913 2.442041 3.176289 2.430438 3.187892 2.418061 C 3.198721 2.408005 3.208004 2.397176 3.218833 2.38712 C 3.227342 2.377838 3.236624 2.369329 3.245906 2.360047 C 3.254415 2.352311 3.262924 2.34535 3.272206 2.339162 C 3.283036 2.3322 3.294638 2.329106 3.307015 2.328332 C 3.320165 2.328332 3.331768 2.331426 3.343371 2.336841 C 3.3542 2.342256 3.361935 2.351538 3.36967 2.36082 C 3.376632 2.369329 3.382047 2.379385 3.386688 2.389441 C 3.389782 2.398723 3.394423 2.408005 3.398291 2.417288 C 3.402159 2.42657 3.4068 2.435852 3.410667 2.445135 C 3.414535 2.45287 3.419176 2.459832 3.423044 2.466793 C 3.426911 2.472208 3.430006 2.477623 3.43542 2.480717 C 3.442382 2.485358 3.44857 2.489226 3.455532 2.49232 C 3.463267 2.49464 3.471002 2.49464 3.478738 2.493867 C 3.487246 2.493867 3.495755 2.489999 3.504264 2.486131 C 3.51432 2.48149 3.523602 2.474529 3.532111 2.466793 C 3.542167 2.458285 3.551449 2.449002 3.560731 2.438946 C 3.56924 2.428891 3.578522 2.420382 3.587031 2.411099 C 3.594767 2.402591 3.601728 2.393308 3.610237 2.3848 C 3.617972 2.377838 3.624161 2.370103 3.632669 2.362367 C 3.639631 2.356953 3.647366 2.350764 3.655102 2.34535 C 3.659743 2.341482 3.66361 2.338388 3.668251 2.33452 C 3.697645 2.311315 3.714663 2.3322 3.684496 2.355406 C 3.680628 2.359273 3.675987 2.363141 3.671346 2.366235 C 3.664384 2.37165 3.657422 2.377064 3.65046 2.383253 C 3.642725 2.389441 3.636537 2.397176 3.629575 2.404138 C 3.62184 2.411873 3.614878 2.421155 3.607143 2.428891 C 3.598634 2.438946 3.589352 2.447455 3.580843 2.457511 C 3.571561 2.46834 3.561505 2.478396 3.550676 2.487679 C 3.539846 2.496961 3.529017 2.504696 3.515867 2.510884 C 3.505038 2.516299 3.493435 2.520167 3.481058 2.52094 C 3.468682 2.522487 3.456305 2.52094 3.444702 2.516299 C 3.436194 2.512431 3.426911 2.508564 3.419176 2.502376 C 3.411441 2.496187 3.405253 2.489226 3.399838 2.480717 C 3.395197 2.472982 3.390556 2.465246 3.386688 2.456737 C 3.382047 2.447455 3.377406 2.438173 3.373538 2.428117 C 3.36967 2.418835 3.365803 2.409552 3.361935 2.40027 C 3.358068 2.392535 3.3542 2.384026 3.348012 2.377064 C 3.343371 2.370876 3.337956 2.365461 3.331768 2.36082 C 3.324032 2.357726 3.317071 2.355406 3.308562 2.355406 C 3.300827 2.356179 3.293865 2.356953 3.286903 2.362367 C 3.279168 2.367008 3.271433 2.373197 3.265244 2.379385 C 3.255962 2.388667 3.247453 2.39795 3.238171 2.406458 C 3.228115 2.417288 3.218059 2.428117 3.208004 2.438173 C 3.195627 2.450549 3.184024 2.462926 3.171648 2.474529 C 3.158498 2.486905 3.144574 2.498508 3.129104 2.508564 C 3.114407 2.517073 3.09971 2.525581 3.083466 2.530996 C 3.067995 2.534864 3.051751 2.537184 3.036281 2.533317 C 3.022357 2.528675 3.011528 2.521714 3.003019 2.510111 C 2.995284 2.500055 2.989869 2.489999 2.985228 2.478396 C 2.980587 2.467567 2.975946 2.456737 2.970531 2.445908 C 2.965116 2.434305 2.958928 2.422702 2.951966 2.411099 C 2.945778 2.401817 2.938043 2.392535 2.928761 2.385573 C 2.920252 2.379385 2.912517 2.375517 2.902461 2.375517 C 2.890858 2.375517 2.880029 2.377064 2.869973 2.382479 C 2.856823 2.389441 2.844446 2.397176 2.83207 2.404911 C 2.816599 2.414967 2.801129 2.425023 2.785658 2.434305 C 2.767867 2.445908 2.750076 2.457511 2.733059 2.469887 C 2.715268 2.483811 2.695929 2.497734 2.676591 2.510111 C 2.6588 2.521714 2.640236 2.53409 2.620897 2.542599 C 2.604653 2.548787 2.587636 2.554975 2.569845 2.554975 C 2.554374 2.554202 2.538904 2.551108 2.525754 2.542599 C 2.515698 2.53409 2.507189 2.524808 2.500227 2.513205 C 2.494039 2.502376 2.487851 2.491546 2.483983 2.479943 C 2.478569 2.467567 2.473927 2.454417 2.467739 2.442041 C 2.461551 2.428891 2.455363 2.414967 2.446854 2.403364 C 2.439119 2.393308 2.43061 2.384026 2.419007 2.378611 C 2.407404 2.373197 2.395801 2.370876 2.383425 2.373197 C 2.367954 2.376291 2.353257 2.383253 2.339334 2.390988 C 2.320769 2.401044 2.302978 2.411099 2.285961 2.421929 C 2.266623 2.433532 2.247284 2.444361 2.229493 2.457511 C 2.213249 2.46834 2.196232 2.47917 2.179988 2.489226 C 2.169158 2.496187 2.159102 2.502376 2.1475 2.507017 C 2.113464 2.52094 2.104182 2.496187 2.138217 2.483037 Z M 2.138217 2.483037 " transform="matrix(5.049928,0,0,5.049928,1.858408,1.257716)"/>
<path style="fill-rule:nonzero;fill:rgb(94.117647%,89.019608%,92.54902%);fill-opacity:1;stroke-width:0.0742585;stroke-linecap:round;stroke-linejoin:round;stroke:rgb(90.196079%,0.784314%,70.588237%);stroke-opacity:1;stroke-miterlimit:4;" d="M 2.138217 2.812559 C 2.146726 2.807145 2.156008 2.80173 2.164517 2.795542 C 2.179988 2.784712 2.197005 2.773883 2.212476 2.763054 C 2.231814 2.749904 2.251152 2.738301 2.27049 2.726698 C 2.288281 2.715869 2.306846 2.705039 2.32541 2.695757 C 2.342428 2.686475 2.359446 2.679513 2.37801 2.674872 C 2.396575 2.671778 2.413592 2.674872 2.43061 2.682607 C 2.446081 2.690342 2.458457 2.702719 2.468513 2.715869 C 2.478569 2.729019 2.486304 2.744489 2.493266 2.75996 C 2.499454 2.77311 2.504095 2.78626 2.50951 2.799409 C 2.513377 2.810239 2.518018 2.819521 2.523433 2.829577 C 2.528848 2.837312 2.535036 2.845048 2.542771 2.850462 C 2.55128 2.855877 2.561336 2.85665 2.570618 2.857424 C 2.584542 2.85665 2.596918 2.851236 2.609294 2.845821 C 2.627859 2.837312 2.644103 2.826483 2.660347 2.815654 C 2.679685 2.803277 2.697476 2.790127 2.716041 2.776204 C 2.733832 2.763827 2.751623 2.751451 2.770188 2.739848 C 2.785658 2.730566 2.801129 2.72051 2.816599 2.710454 C 2.829749 2.702719 2.842899 2.694983 2.856823 2.688022 C 2.870746 2.680286 2.886217 2.677966 2.902461 2.677966 C 2.917931 2.677966 2.931081 2.684154 2.944231 2.691889 C 2.956608 2.701172 2.96589 2.712775 2.975172 2.725151 C 2.982908 2.737527 2.989869 2.750677 2.996057 2.764601 C 3.000699 2.774657 3.00534 2.785486 3.009981 2.796315 C 3.013849 2.805598 3.017716 2.81488 3.024678 2.822615 C 3.029319 2.829577 3.035507 2.834218 3.043243 2.836539 C 3.054845 2.838859 3.064901 2.836539 3.075731 2.833445 C 3.089654 2.829577 3.102031 2.821842 3.113633 2.814106 C 3.127557 2.805598 3.139933 2.794768 3.15231 2.783939 C 3.163913 2.772336 3.176289 2.75996 3.187892 2.748357 C 3.198721 2.737527 3.208004 2.726698 3.218833 2.716642 C 3.227342 2.708133 3.236624 2.698851 3.245906 2.690342 C 3.254415 2.682607 3.262924 2.674872 3.272206 2.668684 C 3.283036 2.661722 3.294638 2.658628 3.307015 2.657854 C 3.320165 2.657854 3.331768 2.660948 3.343371 2.666363 C 3.3542 2.672551 3.361935 2.68106 3.36967 2.690342 C 3.376632 2.699625 3.382047 2.708907 3.386688 2.718963 C 3.389782 2.728245 3.394423 2.737527 3.398291 2.74681 C 3.402159 2.756092 3.4068 2.765374 3.410667 2.774657 C 3.414535 2.782392 3.419176 2.789354 3.423044 2.797089 C 3.426911 2.80173 3.430006 2.807145 3.43542 2.811012 C 3.442382 2.81488 3.44857 2.818748 3.455532 2.821842 C 3.463267 2.824162 3.471002 2.824936 3.478738 2.824162 C 3.487246 2.823389 3.495755 2.820295 3.504264 2.816427 C 3.51432 2.811012 3.523602 2.804051 3.532111 2.796315 C 3.542167 2.787807 3.551449 2.778524 3.560731 2.768468 C 3.56924 2.759186 3.578522 2.749904 3.587031 2.740622 C 3.594767 2.732113 3.601728 2.723604 3.610237 2.715095 C 3.617972 2.70736 3.624161 2.699625 3.632669 2.692663 C 3.639631 2.686475 3.647366 2.68106 3.655102 2.674872 C 3.659743 2.671778 3.66361 2.66791 3.668251 2.664816 C 3.697645 2.640837 3.714663 2.661722 3.684496 2.685701 C 3.680628 2.688795 3.675987 2.692663 3.671346 2.695757 C 3.664384 2.701945 3.657422 2.70736 3.65046 2.712775 C 3.642725 2.718963 3.636537 2.727472 3.629575 2.73366 C 3.62184 2.742169 3.614878 2.750677 3.607143 2.759186 C 3.598634 2.768468 3.589352 2.777751 3.580843 2.787033 C 3.571561 2.797862 3.561505 2.807918 3.550676 2.817201 C 3.539846 2.826483 3.529017 2.834992 3.515867 2.840406 C 3.505038 2.845821 3.493435 2.850462 3.481058 2.851236 C 3.468682 2.852009 3.456305 2.850462 3.444702 2.846595 C 3.436194 2.841953 3.426911 2.838086 3.419176 2.831898 C 3.411441 2.825709 3.405253 2.818748 3.399838 2.810239 C 3.395197 2.802504 3.390556 2.794768 3.386688 2.787033 C 3.382047 2.777751 3.377406 2.767695 3.373538 2.757639 C 3.36967 2.748357 3.365803 2.739848 3.361935 2.730566 C 3.358068 2.722057 3.3542 2.714322 3.348012 2.70736 C 3.343371 2.700398 3.337956 2.694983 3.331768 2.691116 C 3.324032 2.687248 3.317071 2.685701 3.308562 2.685701 C 3.300827 2.685701 3.293865 2.687248 3.286903 2.691889 C 3.279168 2.697304 3.271433 2.702719 3.265244 2.70968 C 3.255962 2.718189 3.247453 2.727472 3.238171 2.73598 C 3.228115 2.74681 3.218059 2.757639 3.208004 2.768468 C 3.195627 2.780071 3.184024 2.792448 3.171648 2.804824 C 3.158498 2.817201 3.144574 2.828803 3.129104 2.838086 C 3.114407 2.847368 3.09971 2.855877 3.083466 2.860518 C 3.067995 2.865159 3.051751 2.86748 3.036281 2.862839 C 3.022357 2.858197 3.011528 2.851236 3.003019 2.839633 C 2.995284 2.830351 2.989869 2.819521 2.985228 2.807918 C 2.980587 2.797862 2.975946 2.787033 2.970531 2.776204 C 2.965116 2.763827 2.958928 2.752224 2.951966 2.741395 C 2.945778 2.731339 2.938043 2.722057 2.928761 2.715095 C 2.920252 2.70968 2.912517 2.705039 2.902461 2.705039 C 2.890858 2.705039 2.880029 2.706586 2.869973 2.712775 C 2.856823 2.719736 2.844446 2.726698 2.83207 2.734433 C 2.816599 2.744489 2.801129 2.754545 2.785658 2.764601 C 2.767867 2.77543 2.750076 2.787033 2.733059 2.800183 C 2.715268 2.814106 2.695929 2.82803 2.676591 2.840406 C 2.6588 2.852009 2.640236 2.863612 2.620897 2.872121 C 2.604653 2.879083 2.587636 2.885271 2.569845 2.885271 C 2.554374 2.884497 2.538904 2.88063 2.525754 2.872121 C 2.515698 2.864386 2.507189 2.85433 2.500227 2.8435 C 2.494039 2.832671 2.487851 2.821842 2.483983 2.809465 C 2.478569 2.797089 2.473927 2.783939 2.467739 2.771563 C 2.461551 2.758413 2.455363 2.745263 2.446854 2.732886 C 2.439119 2.72283 2.43061 2.714322 2.419007 2.708133 C 2.407404 2.702719 2.395801 2.700398 2.383425 2.702719 C 2.367954 2.705813 2.353257 2.712775 2.339334 2.72051 C 2.320769 2.730566 2.302978 2.740622 2.285961 2.751451 C 2.266623 2.763054 2.247284 2.774657 2.229493 2.787033 C 2.213249 2.797862 2.196232 2.808692 2.179988 2.819521 C 2.169158 2.825709 2.159102 2.832671 2.1475 2.836539 C 2.113464 2.850462 2.104182 2.826483 2.138217 2.812559 Z M 2.138217 2.812559 " transform="matrix(5.049928,0,0,5.049928,1.858408,1.257716)"/>
</g>
</svg>
