<?xml version="1.0" encoding="UTF-8"?>
<svg xmlns="http://www.w3.org/2000/svg" xmlns:xlink="http://www.w3.org/1999/xlink" width="24px" height="24px" viewBox="0 0 24 24" version="1.1">
<defs>
<filter id="alpha" filterUnits="objectBoundingBox" x="0%" y="0%" width="100%" height="100%">
  <feColorMatrix type="matrix" in="SourceGraphic" values="0 0 0 0 1 0 0 0 0 1 0 0 0 0 1 0 0 0 1 0"/>
</filter>
<mask id="mask0">
  <g filter="url(#alpha)">
<rect x="0" y="0" width="24" height="24" style="fill:rgb(0%,0%,0%);fill-opacity:0.35;stroke:none;"/>
  </g>
</mask>
<clipPath id="clip1">
  <rect x="0" y="0" width="24" height="24"/>
</clipPath>
<g id="surface5" clip-path="url(#clip1)">
<path style=" stroke:none;fill-rule:nonzero;fill:rgb(33.333334%,34.117648%,32.549021%);fill-opacity:1;" d="M 18.363281 5.636719 C 14.847656 2.121094 9.152344 2.121094 5.636719 5.636719 C 2.121094 9.152344 2.121094 14.847656 5.636719 18.363281 C 9.152344 21.878906 14.847656 21.878906 18.363281 18.363281 C 21.878906 14.847656 21.878906 9.152344 18.363281 5.636719 Z M 18.363281 5.636719 "/>
</g>
</defs>
<g id="surface1">
<path style=" stroke:none;fill-rule:nonzero;fill:rgb(33.333334%,34.117648%,32.549021%);fill-opacity:1;" d="M 19.425781 4.574219 C 15.324219 0.476562 8.675781 0.476562 4.574219 4.574219 C 0.476562 8.675781 0.476562 15.324219 4.574219 19.425781 C 8.675781 23.523438 15.324219 23.523438 19.425781 19.425781 C 23.523438 15.324219 23.523438 8.675781 19.425781 4.574219 Z M 17.210938 4.667969 L 12 9.878906 L 6.792969 4.671875 C 9.910156 2.453125 14.089844 2.453125 17.210938 4.667969 Z M 19.328125 6.792969 C 21.546875 9.910156 21.546875 14.089844 19.332031 17.210938 L 14.121094 12 Z M 4.667969 6.789062 L 9.878906 12 L 4.671875 17.207031 C 2.453125 14.089844 2.453125 9.910156 4.667969 6.789062 Z M 12 14.121094 L 17.207031 19.328125 C 14.089844 21.546875 9.910156 21.546875 6.789062 19.332031 Z M 12 14.121094 "/>
<use xlink:href="#surface5" mask="url(#mask0)"/>
</g>
</svg>
