<?xml version="1.0" encoding="UTF-8"?>
<svg xmlns="http://www.w3.org/2000/svg" xmlns:xlink="http://www.w3.org/1999/xlink" width="24px" height="24px" viewBox="0 0 24 24" version="1.1">
<defs>
<filter id="alpha" filterUnits="objectBoundingBox" x="0%" y="0%" width="100%" height="100%">
  <feColorMatrix type="matrix" in="SourceGraphic" values="0 0 0 0 1 0 0 0 0 1 0 0 0 0 1 0 0 0 1 0"/>
</filter>
<mask id="mask0">
  <g filter="url(#alpha)">
<rect x="0" y="0" width="24" height="24" style="fill:rgb(0%,0%,0%);fill-opacity:0.35;stroke:none;"/>
  </g>
</mask>
<clipPath id="clip1">
  <rect x="0" y="0" width="24" height="24"/>
</clipPath>
<g id="surface5" clip-path="url(#clip1)">
<path style=" stroke:none;fill-rule:nonzero;fill:rgb(33.333334%,34.117648%,32.549021%);fill-opacity:1;" d="M 18.871094 4.386719 C 20.121094 4.308594 21.230469 4.625 22.5 5.203125 L 22.5 15.585938 C 21.304688 15.101562 20.109375 14.808594 18.777344 14.890625 C 16.765625 15.019531 14.554688 15.949219 11.578125 17.980469 C 8.832031 19.855469 6.566406 19.753906 4.667969 19.089844 C 3.351562 18.625 2.347656 17.921875 1.5 17.28125 L 1.5 7.136719 C 2.234375 7.628906 3.097656 8.128906 4.171875 8.503906 C 6.40625 9.289062 9.320312 9.335938 12.421875 7.21875 C 15.289062 5.261719 17.253906 4.492188 18.871094 4.386719 Z M 18.871094 4.386719 "/>
</g>
</defs>
<g id="surface1">
<use xlink:href="#surface5" mask="url(#mask0)"/>
<path style=" stroke:none;fill-rule:nonzero;fill:rgb(33.333334%,34.117648%,32.549021%);fill-opacity:1;" d="M 18.777344 2.890625 C 16.761719 3.019531 14.554688 3.945312 11.574219 5.980469 C 8.84375 7.84375 6.535156 7.746094 4.667969 7.089844 C 3.746094 6.765625 3.003906 6.339844 2.335938 5.890625 L 0 4.320312 L 0 18.027344 L 0.597656 18.480469 C 1.476562 19.144531 2.628906 19.964844 4.175781 20.503906 C 6.378906 21.277344 9.339844 21.328125 12.425781 19.222656 C 15.292969 17.261719 17.25 16.492188 18.871094 16.386719 C 19.925781 16.324219 20.863281 16.546875 21.9375 16.976562 L 24 17.808594 L 24 4.238281 L 23.121094 3.839844 C 21.742188 3.210938 20.332031 2.792969 18.777344 2.890625 Z M 18.964844 5.886719 C 19.621094 5.84375 20.304688 6.125 21 6.363281 L 21 13.816406 C 20.234375 13.652344 19.535156 13.339844 18.683594 13.394531 C 16.28125 13.546875 13.820312 14.632812 10.730469 16.742188 C 8.324219 18.386719 6.753906 18.230469 5.164062 17.675781 C 4.308594 17.375 3.660156 16.894531 3 16.425781 L 3 9.574219 C 3.253906 9.683594 3.402344 9.824219 3.675781 9.921875 C 6.277344 10.832031 9.796875 10.828125 13.269531 8.457031 C 16.023438 6.578125 17.746094 5.960938 18.964844 5.886719 Z M 18.964844 5.886719 "/>
</g>
</svg>
