<?xml version="1.0" encoding="UTF-8"?>
<svg xmlns="http://www.w3.org/2000/svg" xmlns:xlink="http://www.w3.org/1999/xlink" width="24px" height="24px" viewBox="0 0 24 24" version="1.1">
<g id="surface1">
<path style="fill-rule:nonzero;fill:rgb(94.117647%,89.019608%,92.54902%);fill-opacity:1;stroke-width:1;stroke-linecap:round;stroke-linejoin:round;stroke:rgb(90.196079%,0.784314%,70.588237%);stroke-opacity:1;stroke-miterlimit:4;" d="M 3.5 1.635417 L 12.5 1.635417 C 13.052083 1.635417 13.5 2.083333 13.5 2.635417 L 13.5 13.635417 C 13.5 14.1875 13.052083 14.635417 12.5 14.635417 L 3.5 14.635417 C 2.947917 14.635417 2.5 14.1875 2.5 13.635417 L 2.5 2.635417 C 2.5 2.083333 2.947917 1.635417 3.5 1.635417 Z M 3.5 1.635417 " transform="matrix(1.5,0,0,1.5,0,0)"/>
<path style=" stroke:none;fill-rule:nonzero;fill:rgb(90.196079%,0.784314%,70.588237%);fill-opacity:1;" d="M 7.5 12 L 16.5 12 C 16.914062 12 17.25 12.335938 17.25 12.75 C 17.25 13.164062 16.914062 13.5 16.5 13.5 L 7.5 13.5 C 7.085938 13.5 6.75 13.164062 6.75 12.75 C 6.75 12.335938 7.085938 12 7.5 12 Z M 7.5 12 "/>
<path style=" stroke:none;fill-rule:nonzero;fill:rgb(61.56863%,22.745098%,60.784316%);fill-opacity:1;" d="M 7.5 9 L 16.5 9 C 16.914062 9 17.25 9.335938 17.25 9.75 C 17.25 10.164062 16.914062 10.5 16.5 10.5 L 7.5 10.5 C 7.085938 10.5 6.75 10.164062 6.75 9.75 C 6.75 9.335938 7.085938 9 7.5 9 Z M 7.5 9 "/>
<path style=" stroke:none;fill-rule:nonzero;fill:rgb(90.196079%,0.784314%,70.588237%);fill-opacity:1;" d="M 7.5 15 L 16.5 15 C 16.914062 15 17.25 15.335938 17.25 15.75 C 17.25 16.164062 16.914062 16.5 16.5 16.5 L 7.5 16.5 C 7.085938 16.5 6.75 16.164062 6.75 15.75 C 6.75 15.335938 7.085938 15 7.5 15 Z M 7.5 15 "/>
<path style="fill-rule:nonzero;fill:rgb(61.56863%,22.745098%,60.784316%);fill-opacity:1;stroke-width:0.25;stroke-linecap:butt;stroke-linejoin:miter;stroke:rgb(61.56863%,22.745098%,60.784316%);stroke-opacity:1;stroke-miterlimit:4;" d="M 6.9375 3.635417 C 6.96875 3.299479 7.210938 3.054688 7.515625 3.054688 C 7.716146 3.054688 7.901042 3.161458 8.005208 3.333333 C 8.109375 3.158854 8.286458 3.054688 8.484375 3.054688 C 8.789062 3.054688 9.03125 3.299479 9.0625 3.635417 C 9.065104 3.648438 9.075521 3.726562 9.044271 3.854167 C 9 4.039062 8.898438 4.205729 8.75 4.338542 L 8.005208 5 L 7.25 4.338542 C 7.101562 4.205729 7 4.039062 6.955729 3.854167 C 6.924479 3.726562 6.934896 3.648438 6.9375 3.635417 Z M 7.036458 3.835938 C 7.075521 4.005208 7.169271 4.15625 7.304688 4.278646 L 8.005208 4.890625 L 8.695312 4.278646 C 8.830729 4.15625 8.924479 4.005208 8.963542 3.835938 C 8.994792 3.716146 8.981771 3.648438 8.981771 3.648438 L 8.981771 3.643229 C 8.953125 3.348958 8.744792 3.135417 8.484375 3.135417 C 8.294271 3.135417 8.125 3.25 8.044271 3.4375 L 8.005208 3.526042 L 7.96875 3.4375 C 7.888021 3.252604 7.710938 3.135417 7.513021 3.135417 C 7.252604 3.135417 7.044271 3.348958 7.018229 3.648438 C 7.018229 3.648438 7.005208 3.716146 7.036458 3.835938 Z M 7.036458 3.835938 " transform="matrix(1.5,0,0,1.5,0,0)"/>
<path style=" stroke:none;fill-rule:nonzero;fill:rgb(61.56863%,22.745098%,60.784316%);fill-opacity:1;" d="M 7.5 18 L 16.5 18 C 16.914062 18 17.25 18.335938 17.25 18.75 C 17.25 19.164062 16.914062 19.5 16.5 19.5 L 7.5 19.5 C 7.085938 19.5 6.75 19.164062 6.75 18.75 C 6.75 18.335938 7.085938 18 7.5 18 Z M 7.5 18 "/>
</g>
</svg>
