<?xml version="1.0" encoding="UTF-8"?>
<svg xmlns="http://www.w3.org/2000/svg" xmlns:xlink="http://www.w3.org/1999/xlink" width="24px" height="24px" viewBox="0 0 24 24" version="1.1">
<g id="surface1">
<path style=" stroke:none;fill-rule:nonzero;fill:rgb(33.333334%,34.117648%,32.549021%);fill-opacity:1;" d="M 12.191406 24 C 6.234375 24 0.902344 21 0 16.5 L 6.042969 13.5 C 6.546875 15.410156 8.480469 18 12.191406 18 C 15.90625 18 18.34375 15.695312 18.34375 13.5 L 24 16.5 C 22.460938 20.984375 17.550781 24 12.191406 24 Z M 12.191406 24 "/>
<path style=" stroke:none;fill-rule:nonzero;fill:rgb(33.333334%,34.117648%,32.549021%);fill-opacity:1;" d="M 12.191406 1.5 C 6.234375 1.5 0.902344 4.5 0 9 L 6.042969 12 C 6.546875 10.089844 8.480469 7.5 12.191406 7.5 C 15.90625 7.5 18.34375 9.804688 18.34375 12 L 24 9 C 22.460938 4.515625 17.550781 1.5 12.191406 1.5 Z M 12.191406 1.5 "/>
</g>
</svg>
