<?xml version="1.0" encoding="UTF-8"?>
<svg xmlns="http://www.w3.org/2000/svg" xmlns:xlink="http://www.w3.org/1999/xlink" width="24px" height="24px" viewBox="0 0 24 24" version="1.1">
<g id="surface1">
<path style="fill:none;stroke-width:1;stroke-linecap:round;stroke-linejoin:round;stroke:rgb(61.56863%,22.745098%,60.784316%);stroke-opacity:1;stroke-miterlimit:4;" d="M 6 11 L 13 11 " transform="matrix(1.5,0,0,1.5,0,0)"/>
<path style="fill-rule:nonzero;fill:rgb(95.294118%,71.764708%,85.09804%);fill-opacity:1;stroke-width:1.174316;stroke-linecap:round;stroke-linejoin:round;stroke:rgb(90.196079%,0.784314%,70.588237%);stroke-opacity:1;stroke-miterlimit:4;" d="M 8.00939 0.945293 C 4.698325 0.945293 2.0114 1.601588 2.0114 2.350784 C 2.0114 3.897124 6.67373 8.668003 6.67373 8.668003 C 6.692454 8.694974 6.717419 8.742922 6.714299 8.793868 L 6.714299 15.602559 C 6.714299 15.770379 6.948351 15.875266 7.862717 15.875266 C 8.755238 15.875266 9.304482 15.794353 9.304482 15.602559 C 9.304482 15.602559 9.304482 15.599562 9.304482 15.599562 L 9.29824 8.793868 C 9.29824 8.7639 9.301361 8.727938 9.316965 8.700967 C 9.316965 8.700967 13.988656 3.855169 13.988656 2.293845 C 13.988656 1.760418 11.320456 0.945293 8.00939 0.945293 Z M 8.00939 0.945293 " transform="matrix(1.251721,0,0,1.303481,1.986194,1.03736)"/>
<path style=" stroke:none;fill-rule:nonzero;fill:rgb(61.56863%,22.745098%,60.784316%);fill-opacity:1;" d="M 12.011719 4.746094 C 9.292969 4.746094 7.039062 5.089844 6.679688 5.535156 C 7.851562 5.824219 9.800781 6.015625 12.011719 6.015625 C 14.21875 6.015625 16.167969 5.828125 17.339844 5.542969 C 16.988281 5.09375 14.738281 4.746094 12.011719 4.746094 Z M 12.011719 4.746094 "/>
<path style="fill:none;stroke-width:1.174316;stroke-linecap:round;stroke-linejoin:round;stroke:rgb(90.196079%,0.784314%,70.588237%);stroke-opacity:1;stroke-miterlimit:4;" d="M 13.929363 2.386746 C 13.929363 3.174899 11.276766 3.816211 8.003149 3.816211 C 4.729532 3.816211 2.073814 3.174899 2.073814 2.386746 C 2.073814 1.595595 4.729532 0.95728 8.003149 0.95728 C 11.276766 0.95728 13.929363 1.595595 13.929363 2.386746 Z M 13.929363 2.386746 " transform="matrix(1.251721,0,0,1.303481,1.986194,1.03736)"/>
<path style="fill-rule:nonzero;fill:rgb(90.196079%,0.784314%,70.588237%);fill-opacity:1;stroke-width:0.25;stroke-linecap:round;stroke-linejoin:round;stroke:rgb(94.117647%,89.019608%,92.54902%);stroke-opacity:1;stroke-miterlimit:4;" d="M 5.304688 6.203125 C 5.059896 6.205729 4.901042 6.216146 4.658854 6.25 C 4.585938 6.263021 4.528646 6.309896 4.528646 6.382812 L 4.481771 7.088542 C 4.476562 7.158854 4.427083 7.205729 4.372396 7.223958 C 4.372396 7.223958 4.369792 7.226562 4.367188 7.226562 C 4.059896 7.309896 3.768229 7.429688 3.497396 7.585938 C 3.450521 7.606771 3.385417 7.606771 3.333333 7.5625 L 2.802083 7.096354 C 2.752604 7.044271 2.677083 7.052083 2.619792 7.096354 C 2.421875 7.244792 2.302083 7.346354 2.127604 7.518229 C 1.955729 7.692708 1.851562 7.815104 1.703125 8.010417 C 1.661458 8.070312 1.653646 8.143229 1.703125 8.195312 L 2.171875 8.726562 C 2.208333 8.768229 2.226562 8.822917 2.205729 8.864583 L 2.203125 8.872396 C 2.033854 9.158854 1.903646 9.46875 1.817708 9.794271 C 1.817708 9.796875 1.817708 9.799479 1.815104 9.799479 C 1.791667 9.838542 1.752604 9.869792 1.697917 9.875 L 0.989583 9.919271 C 0.916667 9.919271 0.869792 9.979167 0.859375 10.049479 C 0.825521 10.294271 0.8125 10.450521 0.8125 10.695312 C 0.8125 10.940104 0.825521 11.098958 0.859375 11.341146 C 0.869792 11.414062 0.916667 11.471354 0.989583 11.471354 L 1.697917 11.515625 C 1.763021 11.523438 1.804688 11.565104 1.825521 11.611979 C 1.908854 11.921875 2.033854 12.216146 2.190104 12.486979 C 2.21875 12.539062 2.21875 12.609375 2.171875 12.666667 L 1.703125 13.197917 C 1.653646 13.247396 1.661458 13.322917 1.703125 13.380208 C 1.851562 13.578125 1.955729 13.697917 2.127604 13.872396 C 2.302083 14.044271 2.421875 14.148438 2.619792 14.296875 C 2.677083 14.338542 2.752604 14.346354 2.802083 14.296875 L 3.333333 13.828125 C 3.390625 13.78125 3.460938 13.78125 3.513021 13.809896 L 3.518229 13.802083 C 3.783854 13.953125 4.067708 14.072917 4.367188 14.153646 L 4.367188 14.164062 C 4.424479 14.179688 4.476562 14.229167 4.481771 14.302083 L 4.528646 15.010417 C 4.528646 15.083333 4.585938 15.130208 4.658854 15.140625 C 4.901042 15.174479 5.059896 15.1875 5.304688 15.1875 C 5.549479 15.1875 5.705729 15.174479 5.950521 15.140625 C 6.020833 15.130208 6.080729 15.083333 6.080729 15.010417 L 6.125 14.302083 C 6.132812 14.229167 6.184896 14.179688 6.239583 14.164062 L 6.239583 14.153646 C 6.541667 14.072917 6.825521 13.953125 7.088542 13.802083 L 7.096354 13.809896 C 7.145833 13.78125 7.216146 13.78125 7.273438 13.828125 L 7.804688 14.296875 C 7.856771 14.346354 7.929688 14.338542 7.989583 14.296875 C 8.184896 14.148438 8.307292 14.044271 8.481771 13.872396 C 8.653646 13.697917 8.755208 13.578125 8.903646 13.380208 C 8.947917 13.322917 8.955729 13.247396 8.903646 13.197917 L 8.4375 12.666667 C 8.390625 12.609375 8.390625 12.539062 8.416667 12.486979 C 8.575521 12.216146 8.700521 11.921875 8.783854 11.611979 C 8.804688 11.565104 8.846354 11.523438 8.911458 11.515625 L 9.617188 11.471354 C 9.690104 11.471354 9.736979 11.414062 9.75 11.341146 C 9.783854 11.098958 9.794271 10.940104 9.796875 10.695312 C 9.794271 10.450521 9.783854 10.294271 9.75 10.049479 C 9.736979 9.979167 9.690104 9.919271 9.617188 9.919271 L 8.911458 9.875 C 8.856771 9.869792 8.815104 9.838542 8.791667 9.799479 C 8.791667 9.796875 8.789062 9.796875 8.789062 9.794271 C 8.705729 9.46875 8.554688 9.169271 8.40625 8.872396 L 8.401042 8.864583 C 8.382812 8.822917 8.401042 8.768229 8.4375 8.726562 L 8.903646 8.195312 C 8.955729 8.143229 8.947917 8.070312 8.903646 8.010417 C 8.755208 7.815104 8.653646 7.692708 8.481771 7.518229 C 8.307292 7.346354 8.184896 7.244792 7.989583 7.096354 C 7.929688 7.052083 7.856771 7.044271 7.804688 7.096354 L 7.273438 7.5625 C 7.221354 7.606771 7.158854 7.606771 7.109375 7.585938 C 6.841146 7.429688 6.546875 7.309896 6.239583 7.226562 C 6.239583 7.226562 6.236979 7.223958 6.234375 7.223958 C 6.182292 7.205729 6.132812 7.158854 6.125 7.088542 L 6.080729 6.382812 C 6.080729 6.309896 6.020833 6.263021 5.950521 6.25 C 5.705729 6.216146 5.549479 6.205729 5.304688 6.203125 Z M 5.304688 9.497396 C 5.966146 9.497396 6.502604 10.033854 6.502604 10.695312 C 6.502604 11.356771 5.966146 11.893229 5.304688 11.893229 C 4.643229 11.893229 4.106771 11.356771 4.106771 10.695312 C 4.106771 10.033854 4.643229 9.497396 5.304688 9.497396 Z M 5.304688 9.497396 " transform="matrix(1.5,0,0,1.5,0,0)"/>
<path style=" stroke:none;fill-rule:nonzero;fill:rgb(95.294118%,71.764708%,85.09804%);fill-opacity:1;" d="M 11.707031 16.042969 C 11.707031 18.113281 10.027344 19.792969 7.957031 19.792969 C 5.886719 19.792969 4.207031 18.113281 4.207031 16.042969 C 4.207031 13.972656 5.886719 12.292969 7.957031 12.292969 C 10.027344 12.292969 11.707031 13.972656 11.707031 16.042969 Z M 11.707031 16.042969 "/>
<path style=" stroke:none;fill-rule:nonzero;fill:rgb(90.196079%,0.784314%,70.588237%);fill-opacity:1;" d="M 10.207031 16.042969 C 10.207031 17.285156 9.199219 18.292969 7.957031 18.292969 C 6.714844 18.292969 5.707031 17.285156 5.707031 16.042969 C 5.707031 14.800781 6.714844 13.792969 7.957031 13.792969 C 9.199219 13.792969 10.207031 14.800781 10.207031 16.042969 Z M 10.207031 16.042969 "/>
<path style="fill:none;stroke-width:1;stroke-linecap:round;stroke-linejoin:round;stroke:rgb(61.56863%,22.745098%,60.784316%);stroke-opacity:1;stroke-miterlimit:4;" d="M 12 9 L 14 11 L 12 13 " transform="matrix(1.5,0,0,1.5,0,0)"/>
</g>
</svg>
