<?xml version="1.0" encoding="UTF-8"?>
<svg xmlns="http://www.w3.org/2000/svg" xmlns:xlink="http://www.w3.org/1999/xlink" width="24px" height="24px" viewBox="0 0 24 24" version="1.1">
<g id="surface1">
<path style="fill:none;stroke-width:0.381195;stroke-linecap:round;stroke-linejoin:round;stroke:rgb(90.196079%,0.784314%,70.588237%);stroke-opacity:1;stroke-miterlimit:4;" d="M 0.527274 0.871618 L -0.00131368 0.350063 L -1.060453 1.394177 L 0.79255 3.220625 L -0.530883 4.525517 " transform="matrix(3.97581,0,0,3.894599,7.821629,0.906178)"/>
<path style="fill-rule:evenodd;fill:rgb(61.56863%,22.745098%,60.784316%);fill-opacity:1;stroke-width:0.381214;stroke-linecap:round;stroke-linejoin:round;stroke:rgb(90.196079%,0.784314%,70.588237%);stroke-opacity:1;stroke-miterlimit:4;" d="M -4.316528 -0.621815 L -1.383419 -0.622219 C -1.166536 -0.621969 -0.991806 -0.381007 -0.990859 -0.0833977 L -0.991606 -0.0455096 C -0.99066 0.2521 -1.166158 0.493309 -1.38304 0.49306 L -4.316864 0.492749 C -4.533033 0.493214 -4.709167 0.252227 -4.70871 -0.0453577 L -4.708677 -0.08396 C -4.708909 -0.380855 -4.533411 -0.622065 -4.316528 -0.621815 Z M -4.316528 -0.621815 " transform="matrix(-2.83097,-2.734516,2.83097,-2.734516,7.821629,0.906178)"/>
<path style="fill-rule:evenodd;fill:rgb(95.294118%,71.764708%,85.09804%);fill-opacity:1;stroke-width:0.381214;stroke-linecap:round;stroke-linejoin:round;stroke:rgb(90.196079%,0.784314%,70.588237%);stroke-opacity:1;stroke-miterlimit:4;" d="M 2.850255 2.480926 C 3.055189 2.480266 3.222161 2.718989 3.222344 3.013075 L 3.222194 4.17888 C 3.222378 4.472967 3.055256 4.711514 2.849607 4.711459 C 2.644648 4.710714 2.478391 4.472706 2.478207 4.17862 L 2.478357 3.012815 C 2.478173 2.718728 2.644606 2.480871 2.850255 2.480926 Z M 2.850255 2.480926 " transform="matrix(2.83097,2.734516,-2.83097,2.734516,7.821629,0.906178)"/>
</g>
</svg>
