<?xml version="1.0" encoding="UTF-8"?>
<svg xmlns="http://www.w3.org/2000/svg" xmlns:xlink="http://www.w3.org/1999/xlink" width="24px" height="24px" viewBox="0 0 24 24" version="1.1">
<defs>
<filter id="alpha" filterUnits="objectBoundingBox" x="0%" y="0%" width="100%" height="100%">
  <feColorMatrix type="matrix" in="SourceGraphic" values="0 0 0 0 1 0 0 0 0 1 0 0 0 0 1 0 0 0 1 0"/>
</filter>
<mask id="mask0">
  <g filter="url(#alpha)">
<rect x="0" y="0" width="24" height="24" style="fill:rgb(0%,0%,0%);fill-opacity:0.35;stroke:none;"/>
  </g>
</mask>
<clipPath id="clip1">
  <rect x="0" y="0" width="24" height="24"/>
</clipPath>
<g id="surface5" clip-path="url(#clip1)">
<path style=" stroke:none;fill-rule:nonzero;fill:rgb(33.333334%,34.117648%,32.549021%);fill-opacity:1;" d="M 4.5 3 C 3.667969 3 3 3.667969 3 4.5 L 3 19.5 C 3 20.332031 3.667969 21 4.5 21 L 19.5 21 C 20.332031 21 21 20.332031 21 19.5 L 21 4.5 C 21 3.667969 20.332031 3 19.5 3 Z M 4.5 3 "/>
</g>
</defs>
<g id="surface1">
<use xlink:href="#surface5" mask="url(#mask0)"/>
<path style=" stroke:none;fill-rule:nonzero;fill:rgb(33.333334%,34.117648%,32.549021%);fill-opacity:1;" d="M 4.5 1.5 C 2.863281 1.5 1.5 2.863281 1.5 4.5 L 1.5 19.5 C 1.5 21.136719 2.863281 22.5 4.5 22.5 L 19.5 22.5 C 21.136719 22.5 22.5 21.136719 22.5 19.5 L 22.5 4.5 C 22.5 2.863281 21.136719 1.5 19.5 1.5 Z M 4.5 4.5 L 19.5 4.5 L 19.5 19.5 L 4.5 19.5 Z M 4.5 4.5 "/>
</g>
</svg>
