<?xml version="1.0" encoding="UTF-8"?>
<svg xmlns="http://www.w3.org/2000/svg" xmlns:xlink="http://www.w3.org/1999/xlink" width="24px" height="24px" viewBox="0 0 24 24" version="1.1">
<g id="surface1">
<path style=" stroke:none;fill-rule:nonzero;fill:rgb(33.333334%,34.117648%,32.549021%);fill-opacity:1;" d="M 1.5 1.5 L 1.5 4.5 L 22.5 4.5 L 22.5 1.5 Z M 3 6 L 3 18 L 8.25 18 C 10.320312 18 12 16.320312 12 14.25 C 12 12.796875 11.15625 11.472656 9.839844 10.855469 C 10.246094 10.34375 10.5 9.703125 10.5 9 C 10.5 7.34375 9.15625 6 7.5 6 Z M 13.5 6 L 13.5 18 L 18 18 C 19.65625 18 21 16.65625 21 15 C 21 13.34375 19.65625 12 18 12 L 15 12 L 15 6 Z M 4.5 7.5 L 7.5 7.5 C 8.328125 7.5 9 8.171875 9 9 C 9 9.828125 8.328125 10.5 7.5 10.5 L 4.5 10.5 Z M 4.5 12 L 8.25 12 C 9.492188 12 10.5 13.007812 10.5 14.25 C 10.5 15.492188 9.492188 16.5 8.25 16.5 L 4.5 16.5 Z M 15 13.5 L 18 13.5 C 18.828125 13.5 19.5 14.171875 19.5 15 C 19.5 15.828125 18.828125 16.5 18 16.5 L 15 16.5 Z M 1.5 19.5 L 1.5 22.5 L 22.5 22.5 L 22.5 19.5 Z M 1.5 19.5 "/>
</g>
</svg>
