<?xml version="1.0" encoding="UTF-8"?>
<svg xmlns="http://www.w3.org/2000/svg" xmlns:xlink="http://www.w3.org/1999/xlink" width="24px" height="24px" viewBox="0 0 24 24" version="1.1">
<defs>
<filter id="alpha" filterUnits="objectBoundingBox" x="0%" y="0%" width="100%" height="100%">
  <feColorMatrix type="matrix" in="SourceGraphic" values="0 0 0 0 1 0 0 0 0 1 0 0 0 0 1 0 0 0 1 0"/>
</filter>
<mask id="mask0">
  <g filter="url(#alpha)">
<rect x="0" y="0" width="24" height="24" style="fill:rgb(0%,0%,0%);fill-opacity:0.35;stroke:none;"/>
  </g>
</mask>
<clipPath id="clip1">
  <rect x="0" y="0" width="24" height="24"/>
</clipPath>
<g id="surface5" clip-path="url(#clip1)">
<path style=" stroke:none;fill-rule:nonzero;fill:rgb(33.333334%,34.117648%,32.549021%);fill-opacity:1;" d="M 7.5 6 L 13.5 1.5 L 16.5 4.5 L 10.5 9 L 10.5 15 L 16.5 18.761719 L 16.5 22.5 L 10.5 19.5 L 7.5 16.5 Z M 7.5 6 "/>
</g>
</defs>
<g id="surface1">
<path style=" stroke:none;fill-rule:nonzero;fill:rgb(33.333334%,34.117648%,32.549021%);fill-opacity:1;" d="M 4.5 12 C 4.5 5.371094 9.871094 0 16.5 0 L 18 0 L 18 7.5 L 16.5 7.5 C 14.015625 7.5 12 9.515625 12 12 C 12 14.484375 14.015625 16.5 16.5 16.5 L 18 16.5 L 18 24 L 16.5 24 C 9.871094 24 4.5 18.628906 4.5 12 Z M 7.5 12 C 7.5 16.472656 10.75 19.972656 15 20.699219 L 15 19.191406 C 11.625 18.46875 9 15.574219 9 12 C 9 8.425781 11.625 5.53125 15 4.808594 L 15 3.300781 C 10.75 4.027344 7.5 7.527344 7.5 12 Z M 7.5 12 "/>
<use xlink:href="#surface5" mask="url(#mask0)"/>
</g>
</svg>
