<?xml version="1.0" encoding="UTF-8"?>
<svg xmlns="http://www.w3.org/2000/svg" xmlns:xlink="http://www.w3.org/1999/xlink" width="24px" height="24px" viewBox="0 0 24 24" version="1.1">
<g id="surface1">
<path style=" stroke:none;fill-rule:nonzero;fill:rgb(90.196079%,0.784314%,70.588237%);fill-opacity:1;" d="M 12 1.691406 C 6.214844 1.691406 1.527344 6.378906 1.527344 12.164062 L 5.453125 12.164062 C 5.453125 8.546875 8.386719 5.617188 12 5.617188 C 15.613281 5.617188 18.546875 8.546875 18.546875 12.164062 L 22.472656 12.164062 C 22.472656 6.378906 17.785156 1.691406 12 1.691406 Z M 12 1.691406 "/>
<path style=" stroke:none;fill-rule:nonzero;fill:rgb(94.117647%,89.019608%,92.54902%);fill-opacity:1;" d="M 12 3 C 7.449219 3.003906 3.589844 6.347656 2.941406 10.855469 L 4.265625 10.855469 C 4.902344 7.078125 8.171875 4.3125 12 4.308594 C 15.832031 4.308594 19.105469 7.074219 19.742188 10.855469 L 21.058594 10.855469 C 20.40625 6.351562 16.550781 3.003906 12 3 Z M 12 3 "/>
<path style=" stroke:none;fill-rule:nonzero;fill:rgb(90.196079%,0.784314%,70.588237%);fill-opacity:1;" d="M 5.660156 13.65625 C 4.957031 13.65625 4.386719 14.316406 4.386719 15.125 L 4.386719 16.589844 C 4.386719 17.398438 4.957031 18.058594 5.660156 18.058594 L 18.339844 18.058594 C 19.042969 18.058594 19.613281 17.398438 19.613281 16.589844 L 19.613281 15.125 C 19.613281 14.316406 19.042969 13.65625 18.339844 13.65625 Z M 5.660156 13.65625 "/>
<path style=" stroke:none;fill-rule:nonzero;fill:rgb(94.117647%,89.019608%,92.54902%);fill-opacity:1;" d="M 6 15 L 18 15 L 18 16.460938 L 6 16.460938 Z M 6 15 "/>
</g>
</svg>
