<?xml version="1.0" encoding="UTF-8"?>
<svg xmlns="http://www.w3.org/2000/svg" xmlns:xlink="http://www.w3.org/1999/xlink" width="24px" height="24px" viewBox="0 0 24 24" version="1.1">
<g id="surface1">
<path style="fill-rule:nonzero;fill:rgb(94.117647%,89.019608%,92.54902%);fill-opacity:1;stroke-width:1;stroke-linecap:round;stroke-linejoin:round;stroke:rgb(90.196079%,0.784314%,70.588237%);stroke-opacity:1;stroke-miterlimit:4;" d="M 3.479167 1.5 L 12.520833 1.5 C 13.0625 1.5 13.5 1.940104 13.5 2.481771 L 13.5 13.518229 C 13.5 14.059896 13.0625 14.5 12.520833 14.5 L 3.479167 14.5 C 2.9375 14.5 2.5 14.059896 2.5 13.518229 L 2.5 2.481771 C 2.5 1.940104 2.9375 1.5 3.479167 1.5 Z M 3.479167 1.5 " transform="matrix(1.5,0,0,1.5,0,0)"/>
<path style="fill-rule:nonzero;fill:rgb(61.960787%,22.745098%,61.176473%);fill-opacity:1;stroke-width:0.218037;stroke-linecap:round;stroke-linejoin:round;stroke:rgb(61.960787%,22.745098%,61.176473%);stroke-opacity:1;stroke-miterlimit:4;" d="M 4.109375 3.109375 L 11.890625 3.109375 L 11.890625 3.890625 L 4.109375 3.890625 Z M 4.109375 3.109375 " transform="matrix(1.5,0,0,1.5,0,0)"/>
<path style="fill-rule:nonzero;fill:rgb(92.54902%,0.392157%,69.803923%);fill-opacity:1;stroke-width:0.215396;stroke-linecap:round;stroke-linejoin:round;stroke:rgb(92.54902%,0.392157%,69.803923%);stroke-opacity:1;stroke-miterlimit:4;" d="M 8.106771 13.106771 L 11.893229 13.106771 L 11.893229 13.893229 L 8.106771 13.893229 Z M 8.106771 13.106771 " transform="matrix(1.5,0,0,1.5,0,0)"/>
<path style="fill-rule:nonzero;fill:rgb(94.117647%,89.019608%,92.54902%);fill-opacity:1;stroke-width:0.218037;stroke-linecap:round;stroke-linejoin:round;stroke:rgb(61.960787%,22.745098%,61.176473%);stroke-opacity:1;stroke-miterlimit:4;" d="M 4.109375 5.109375 L 11.890625 5.109375 L 11.890625 5.890625 L 4.109375 5.890625 Z M 4.109375 5.109375 " transform="matrix(1.5,0,0,1.5,0,0)"/>
<path style="fill-rule:nonzero;fill:rgb(94.117647%,89.019608%,92.54902%);fill-opacity:1;stroke-width:0.218037;stroke-linecap:round;stroke-linejoin:round;stroke:rgb(61.960787%,22.745098%,61.176473%);stroke-opacity:1;stroke-miterlimit:4;" d="M 4.109375 7.109375 L 11.890625 7.109375 L 11.890625 7.890625 L 4.109375 7.890625 Z M 4.109375 7.109375 " transform="matrix(1.5,0,0,1.5,0,0)"/>
<path style="fill-rule:nonzero;fill:rgb(94.117647%,89.019608%,92.54902%);fill-opacity:1;stroke-width:0.218037;stroke-linecap:round;stroke-linejoin:round;stroke:rgb(61.960787%,22.745098%,61.176473%);stroke-opacity:1;stroke-miterlimit:4;" d="M 4.109375 9.109375 L 11.890625 9.109375 L 11.890625 9.890625 L 4.109375 9.890625 Z M 4.109375 9.109375 " transform="matrix(1.5,0,0,1.5,0,0)"/>
<path style="fill-rule:nonzero;fill:rgb(94.117647%,89.019608%,92.54902%);fill-opacity:1;stroke-width:0.218037;stroke-linecap:round;stroke-linejoin:round;stroke:rgb(61.960787%,22.745098%,61.176473%);stroke-opacity:1;stroke-miterlimit:4;" d="M 4.109375 11.109375 L 11.890625 11.109375 L 11.890625 11.890625 L 4.109375 11.890625 Z M 4.109375 11.109375 " transform="matrix(1.5,0,0,1.5,0,0)"/>
</g>
</svg>
