<?xml version="1.0" encoding="UTF-8"?>
<svg xmlns="http://www.w3.org/2000/svg" xmlns:xlink="http://www.w3.org/1999/xlink" width="24px" height="24px" viewBox="0 0 24 24" version="1.1">
<g id="surface1">
<path style="fill-rule:evenodd;fill:rgb(95.294118%,71.764708%,85.09804%);fill-opacity:1;stroke-width:0.468988;stroke-linecap:round;stroke-linejoin:round;stroke:rgb(61.56863%,22.745098%,60.784316%);stroke-opacity:1;stroke-miterlimit:4;" d="M 3.93612 12.208334 C 0.137809 10.454516 0.575042 9.660656 3.452477 7.359686 C 4.712881 6.350874 0.71183 4.33325 2.218942 3.329324 C 5.345526 1.245748 21.442548 5.818378 9.397872 8.925421 " transform="matrix(1.599189,0,0,1.599189,0.00617973,0)"/>
<path style="fill-rule:nonzero;fill:rgb(95.294118%,71.764708%,85.09804%);fill-opacity:1;stroke-width:0.302876;stroke-linecap:butt;stroke-linejoin:miter;stroke:rgb(61.56863%,22.745098%,60.784316%);stroke-opacity:1;stroke-miterlimit:4;" d="M 13.899018 1.912073 L 12.700093 3.510461 L 14.298659 4.711864 L 15.50023 3.113475 L 15.000016 2.113177 Z M 13.899018 1.912073 " transform="matrix(1.475932,0,0,1.495647,-4.728854,1.222245)"/>
<path style="fill-rule:nonzero;fill:rgb(95.294118%,71.764708%,85.09804%);fill-opacity:1;stroke-width:0.201917;stroke-linecap:butt;stroke-linejoin:miter;stroke:rgb(61.56863%,22.745098%,60.784316%);stroke-opacity:1;stroke-miterlimit:4;" d="M 7.793237 11.706118 L 8.195525 9.507028 L 8.894236 9.407782 L 8.785724 9.951025 L 9.301818 9.713356 L 9.185366 10.251375 L 9.704106 10.016318 L 9.794091 10.708431 L 7.793237 11.706118 " transform="matrix(1.475932,0,0,1.495647,-4.728854,1.222245)"/>
<path style="fill-rule:nonzero;fill:rgb(61.56863%,22.745098%,60.784316%);fill-opacity:1;stroke-width:0.100959;stroke-linecap:butt;stroke-linejoin:miter;stroke:rgb(61.56863%,22.745098%,60.784316%);stroke-opacity:1;stroke-miterlimit:4;" d="M 8.134653 10.593514 L 8.677212 11.042734 L 7.793237 11.713953 Z M 8.134653 10.593514 " transform="matrix(1.475932,0,0,1.495647,-4.728854,1.222245)"/>
<path style="fill-rule:nonzero;fill:rgb(90.196079%,0.784314%,70.588237%);fill-opacity:1;stroke-width:0.100959;stroke-linecap:butt;stroke-linejoin:miter;stroke:rgb(61.56863%,22.745098%,60.784316%);stroke-opacity:1;stroke-miterlimit:4;" d="M 12.700093 3.510461 L 14.298659 4.711864 L 9.794091 10.708431 L 9.704106 10.016318 L 9.185366 10.251375 L 9.227712 9.796932 L 8.785724 9.951025 L 8.838657 9.483522 L 8.195525 9.507028 Z M 12.700093 3.510461 " transform="matrix(1.475932,0,0,1.495647,-4.728854,1.222245)"/>
<path style="fill:none;stroke-width:0.70671;stroke-linecap:butt;stroke-linejoin:round;stroke:rgb(61.56863%,22.745098%,60.784316%);stroke-opacity:1;stroke-miterlimit:4;" d="M 13.599948 2.31167 L 8.195525 9.507028 L 7.494168 12.105715 L 9.794091 10.708431 L 15.198514 3.513072 C 15.997797 2.478821 14.433637 1.235631 13.599948 2.31167 Z M 13.599948 2.31167 " transform="matrix(1.475932,0,0,1.495647,-4.728854,1.222245)"/>
</g>
</svg>
