<?xml version="1.0" encoding="UTF-8"?>
<svg xmlns="http://www.w3.org/2000/svg" xmlns:xlink="http://www.w3.org/1999/xlink" width="24px" height="24px" viewBox="0 0 24 24" version="1.1">
<g id="surface1">
<path style="fill-rule:nonzero;fill:rgb(95.294118%,71.764708%,85.09804%);fill-opacity:1;stroke-width:1.174316;stroke-linecap:round;stroke-linejoin:round;stroke:rgb(90.196079%,0.784314%,70.588237%);stroke-opacity:1;stroke-miterlimit:4;" d="M 8.00939 0.945293 C 4.698325 0.945293 2.0114 1.601588 2.0114 2.350784 C 2.0114 3.897124 6.67373 8.668003 6.67373 8.668003 C 6.692454 8.694974 6.717419 8.742922 6.714299 8.793868 L 6.714299 15.602559 C 6.714299 15.770379 6.948351 15.875266 7.862717 15.875266 C 8.755238 15.875266 9.304482 15.794353 9.304482 15.602559 C 9.304482 15.602559 9.304482 15.599562 9.304482 15.599562 L 9.29824 8.793868 C 9.29824 8.7639 9.301361 8.727938 9.316965 8.700967 C 9.316965 8.700967 13.988656 3.855169 13.988656 2.293845 C 13.988656 1.760418 11.320456 0.945293 8.00939 0.945293 Z M 8.00939 0.945293 " transform="matrix(1.251721,0,0,1.303481,1.986194,1.03736)"/>
<path style=" stroke:none;fill-rule:nonzero;fill:rgb(61.56863%,22.745098%,60.784316%);fill-opacity:1;" d="M 12.011719 4.746094 C 9.292969 4.746094 7.039062 5.089844 6.679688 5.535156 C 7.851562 5.824219 9.800781 6.015625 12.011719 6.015625 C 14.21875 6.015625 16.167969 5.828125 17.339844 5.542969 C 16.988281 5.09375 14.738281 4.746094 12.011719 4.746094 Z M 12.011719 4.746094 "/>
<path style="fill:none;stroke-width:1.174316;stroke-linecap:round;stroke-linejoin:round;stroke:rgb(90.196079%,0.784314%,70.588237%);stroke-opacity:1;stroke-miterlimit:4;" d="M 13.929363 2.386746 C 13.929363 3.174899 11.276766 3.816211 8.003149 3.816211 C 4.729532 3.816211 2.073814 3.174899 2.073814 2.386746 C 2.073814 1.595595 4.729532 0.95728 8.003149 0.95728 C 11.276766 0.95728 13.929363 1.595595 13.929363 2.386746 Z M 13.929363 2.386746 " transform="matrix(1.251721,0,0,1.303481,1.986194,1.03736)"/>
<path style="fill-rule:nonzero;fill:rgb(95.294118%,71.764708%,85.09804%);fill-opacity:1;stroke-width:1;stroke-linecap:butt;stroke-linejoin:miter;stroke:rgb(61.56863%,22.745098%,60.784316%);stroke-opacity:1;stroke-miterlimit:4;" d="M 14.5 10 C 14.5 12.484375 12.484375 14.5 10 14.5 C 7.515625 14.5 5.5 12.484375 5.5 10 C 5.5 7.515625 7.515625 5.5 10 5.5 C 12.484375 5.5 14.5 7.515625 14.5 10 Z M 14.5 10 " transform="matrix(1.5,0,0,1.5,0,0)"/>
<path style="fill-rule:nonzero;fill:rgb(94.117647%,89.019608%,92.54902%);fill-opacity:1;stroke-width:0.308681;stroke-linecap:butt;stroke-linejoin:miter;stroke:rgb(90.196079%,0.784314%,70.588237%);stroke-opacity:1;stroke-miterlimit:4;" d="M 5.429012 3.175 C 5.429012 4.420976 4.420977 5.429011 3.175 5.429011 C 1.929024 5.429011 0.920989 4.420976 0.920989 3.175 C 0.920989 1.929024 1.929024 0.920989 3.175 0.920989 C 4.420977 0.920989 5.429012 1.929024 5.429012 3.175 Z M 5.429012 3.175 " transform="matrix(2.429696,0,0,2.429696,7.285714,7.285715)"/>
<path style="fill-rule:nonzero;fill:rgb(61.56863%,22.745098%,60.784316%);fill-opacity:1;stroke-width:0.267106;stroke-linecap:butt;stroke-linejoin:round;stroke:rgb(90.196079%,0.784314%,70.588237%);stroke-opacity:1;stroke-miterlimit:4;" d="M 1.811644 4.366109 L 2.738169 3.002753 L 3.175 3.439583 Z M 1.811644 4.366109 " transform="matrix(2.807869,0,0,2.807869,6.698298,5.955381)"/>
<path style="fill-rule:nonzero;fill:rgb(61.56863%,22.745098%,60.784316%);fill-opacity:1;stroke-width:0.267106;stroke-linecap:butt;stroke-linejoin:round;stroke:rgb(90.196079%,0.784314%,70.588237%);stroke-opacity:1;stroke-miterlimit:4;" d="M 4.101525 2.076227 L 2.738169 3.002753 L 3.175 3.439583 Z M 4.101525 2.076227 " transform="matrix(2.807869,0,0,2.807869,6.698298,5.955381)"/>
<path style="fill-rule:nonzero;fill:rgb(94.117647%,89.019608%,92.54902%);fill-opacity:1;stroke-width:0.267106;stroke-linecap:butt;stroke-linejoin:miter;stroke:rgb(90.196079%,0.784314%,70.588237%);stroke-opacity:1;stroke-miterlimit:4;" d="M 3.529797 3.112619 C 3.529797 3.375552 3.318338 3.587011 3.055405 3.587011 C 2.792472 3.587011 2.581013 3.375552 2.581013 3.112619 C 2.581013 2.849686 2.792472 2.638227 3.055405 2.638227 C 3.318338 2.638227 3.529797 2.849686 3.529797 3.112619 Z M 3.529797 3.112619 " transform="matrix(2.807869,0,0,2.807869,6.420823,6.260174)"/>
<path style="fill-rule:nonzero;fill:rgb(95.294118%,71.764708%,85.09804%);fill-opacity:1;stroke-width:0.267106;stroke-linecap:butt;stroke-linejoin:miter;stroke:rgb(90.196079%,0.784314%,70.588237%);stroke-opacity:1;stroke-miterlimit:4;" d="M 3.309991 3.112619 C 3.309991 3.253128 3.195914 3.367205 3.055405 3.367205 C 2.914896 3.367205 2.800819 3.253128 2.800819 3.112619 C 2.800819 2.97211 2.914896 2.858033 3.055405 2.858033 C 3.195914 2.858033 3.309991 2.97211 3.309991 3.112619 Z M 3.309991 3.112619 " transform="matrix(2.807869,0,0,2.807869,6.420823,6.260174)"/>
<path style="fill:none;stroke-width:1;stroke-linecap:round;stroke-linejoin:round;stroke:rgb(61.56863%,22.745098%,60.784316%);stroke-opacity:1;stroke-miterlimit:4;" d="M 10 7 L 10 7.856771 " transform="matrix(1.5,0,0,1.5,0,0)"/>
<path style="fill:none;stroke-width:1;stroke-linecap:round;stroke-linejoin:round;stroke:rgb(61.56863%,22.745098%,60.784316%);stroke-opacity:1;stroke-miterlimit:4;" d="M 10 12.143229 L 10 13 " transform="matrix(1.5,0,0,1.5,0,0)"/>
<path style="fill:none;stroke-width:1;stroke-linecap:round;stroke-linejoin:round;stroke:rgb(61.56863%,22.745098%,60.784316%);stroke-opacity:1;stroke-miterlimit:4;" d="M 7.856771 10 L 7 10 " transform="matrix(1.5,0,0,1.5,0,0)"/>
<path style="fill:none;stroke-width:1;stroke-linecap:round;stroke-linejoin:round;stroke:rgb(61.56863%,22.745098%,60.784316%);stroke-opacity:1;stroke-miterlimit:4;" d="M 13 10 L 12.143229 10 " transform="matrix(1.5,0,0,1.5,0,0)"/>
</g>
</svg>
