<?xml version="1.0" encoding="UTF-8"?>
<svg xmlns="http://www.w3.org/2000/svg" xmlns:xlink="http://www.w3.org/1999/xlink" width="24px" height="24px" viewBox="0 0 24 24" version="1.1">
<defs>
<filter id="alpha" filterUnits="objectBoundingBox" x="0%" y="0%" width="100%" height="100%">
  <feColorMatrix type="matrix" in="SourceGraphic" values="0 0 0 0 1 0 0 0 0 1 0 0 0 0 1 0 0 0 1 0"/>
</filter>
<mask id="mask0">
  <g filter="url(#alpha)">
<rect x="0" y="0" width="24" height="24" style="fill:rgb(0%,0%,0%);fill-opacity:0.99;stroke:none;"/>
  </g>
</mask>
<clipPath id="clip1">
  <rect x="0" y="0" width="24" height="24"/>
</clipPath>
<g id="surface5" clip-path="url(#clip1)">
<path style=" stroke:none;fill-rule:nonzero;fill:rgb(61.960787%,22.745098%,61.176473%);fill-opacity:1;" d="M 1.5 19.5 L 22.5 19.5 L 22.5 22.585938 L 1.5 22.585938 Z M 1.5 19.5 "/>
</g>
</defs>
<g id="surface1">
<path style=" stroke:none;fill-rule:nonzero;fill:rgb(100%,40.000001%,0%);fill-opacity:1;" d="M 10.558594 2.667969 C 10.558594 3.21875 10.113281 6.101562 9.558594 6.101562 C 9.007812 6.101562 8.558594 3.21875 8.558594 2.667969 C 8.558594 2.113281 9.007812 1.667969 9.558594 1.667969 C 10.113281 1.667969 10.558594 2.113281 10.558594 2.667969 Z M 10.558594 2.667969 "/>
<path style=" stroke:none;fill-rule:nonzero;fill:rgb(80.000001%,0%,0%);fill-opacity:1;" d="M 6.980469 3.09375 C 7.257812 3.570312 8.308594 6.289062 7.832031 6.566406 C 7.355469 6.84375 5.523438 4.570312 5.25 4.09375 C 4.972656 3.613281 5.136719 3.003906 5.613281 2.726562 C 6.09375 2.449219 6.703125 2.613281 6.980469 3.09375 Z M 6.980469 3.09375 "/>
<path style=" stroke:none;fill-rule:nonzero;fill:rgb(45.09804%,0%,33.333334%);fill-opacity:1;" d="M 4.09375 5.25 C 4.570312 5.527344 6.84375 7.355469 6.566406 7.832031 C 6.292969 8.3125 3.570312 7.257812 3.09375 6.980469 C 2.617188 6.707031 2.453125 6.09375 2.726562 5.617188 C 3.003906 5.136719 3.617188 4.972656 4.09375 5.25 Z M 4.09375 5.25 "/>
<path style=" stroke:none;fill-rule:nonzero;fill:rgb(17.254902%,0%,34.901962%);fill-opacity:1;" d="M 2.671875 8.5625 C 3.222656 8.5625 6.105469 9.011719 6.105469 9.5625 C 6.105469 10.113281 3.222656 10.5625 2.671875 10.5625 C 2.121094 10.5625 1.671875 10.113281 1.671875 9.5625 C 1.671875 9.011719 2.121094 8.5625 2.671875 8.5625 Z M 2.671875 8.5625 "/>
<path style=" stroke:none;fill-rule:nonzero;fill:rgb(0%,20%,60.000002%);fill-opacity:1;" d="M 3.097656 12.140625 C 3.574219 11.867188 6.292969 10.8125 6.570312 11.289062 C 6.847656 11.769531 4.574219 13.597656 4.097656 13.875 C 3.617188 14.148438 3.007812 13.984375 2.730469 13.507812 C 2.457031 13.03125 2.617188 12.417969 3.097656 12.140625 Z M 3.097656 12.140625 "/>
<path style=" stroke:none;fill-rule:nonzero;fill:rgb(20%,40.000001%,80.000001%);fill-opacity:1;" d="M 5.253906 15.027344 C 5.53125 14.550781 7.359375 12.277344 7.839844 12.554688 C 8.316406 12.832031 7.261719 15.550781 6.988281 16.027344 C 6.710938 16.507812 6.097656 16.671875 5.621094 16.394531 C 5.144531 16.117188 4.980469 15.507812 5.253906 15.027344 Z M 5.253906 15.027344 "/>
<path style=" stroke:none;fill-rule:nonzero;fill:rgb(40.000001%,60.000002%,100%);fill-opacity:1;" d="M 8.566406 16.449219 C 8.566406 15.898438 9.015625 13.015625 9.566406 13.015625 C 10.121094 13.015625 10.566406 15.898438 10.566406 16.449219 C 10.566406 17.003906 10.121094 17.449219 9.566406 17.449219 C 9.015625 17.449219 8.566406 17.003906 8.566406 16.449219 Z M 8.566406 16.449219 "/>
<path style=" stroke:none;fill-rule:nonzero;fill:rgb(60.000002%,80.000001%,20%);fill-opacity:1;" d="M 12.148438 16.027344 C 11.871094 15.546875 10.816406 12.828125 11.296875 12.550781 C 11.773438 12.277344 13.601562 14.546875 13.878906 15.027344 C 14.15625 15.503906 13.992188 16.117188 13.511719 16.390625 C 13.035156 16.667969 12.421875 16.503906 12.148438 16.027344 Z M 12.148438 16.027344 "/>
<path style=" stroke:none;fill-rule:nonzero;fill:rgb(0%,80.000001%,0%);fill-opacity:1;" d="M 15.035156 13.867188 C 14.554688 13.589844 12.285156 11.761719 12.558594 11.285156 C 12.835938 10.804688 15.554688 11.859375 16.035156 12.136719 C 16.511719 12.410156 16.675781 13.023438 16.398438 13.5 C 16.125 13.980469 15.511719 14.144531 15.035156 13.867188 Z M 15.035156 13.867188 "/>
<path style=" stroke:none;fill-rule:nonzero;fill:rgb(40.000001%,60.000002%,0%);fill-opacity:1;" d="M 16.503906 10.601562 C 15.953125 10.601562 13.070312 10.15625 13.070312 9.601562 C 13.070312 9.050781 15.949219 8.601562 16.503906 8.601562 C 17.054688 8.601562 17.503906 9.050781 17.503906 9.601562 C 17.503906 10.15625 17.054688 10.601562 16.503906 10.601562 Z M 16.503906 10.601562 "/>
<path style=" stroke:none;fill-rule:nonzero;fill:rgb(100%,80.000001%,0%);fill-opacity:1;" d="M 16.03125 6.976562 C 15.550781 7.253906 12.832031 8.304688 12.558594 7.828125 C 12.28125 7.347656 14.550781 5.519531 15.03125 5.242188 C 15.507812 4.96875 16.121094 5.132812 16.398438 5.609375 C 16.671875 6.089844 16.507812 6.699219 16.03125 6.976562 Z M 16.03125 6.976562 "/>
<path style=" stroke:none;fill-rule:nonzero;fill:rgb(100%,60.000002%,0%);fill-opacity:1;" d="M 13.871094 4.089844 C 13.597656 4.566406 11.769531 6.839844 11.289062 6.5625 C 10.8125 6.285156 11.863281 3.566406 12.140625 3.089844 C 12.417969 2.609375 13.027344 2.445312 13.507812 2.722656 C 13.984375 3 14.148438 3.609375 13.871094 4.089844 Z M 13.871094 4.089844 "/>
<use xlink:href="#surface5" mask="url(#mask0)"/>
<path style="fill-rule:nonzero;fill:rgb(94.117647%,89.019608%,92.54902%);fill-opacity:1;stroke-width:0.264583;stroke-linecap:butt;stroke-linejoin:miter;stroke:rgb(90.196079%,0.784314%,70.588237%);stroke-opacity:1;stroke-miterlimit:4;" d="M 2.095025 0.465055 C 1.969624 0.688987 1.31161 1.85963 1.186209 2.083561 C 1.060807 2.307493 1.336415 2.699544 1.801503 2.958616 C 2.26728 3.217687 2.747526 3.246626 2.872928 3.022694 C 2.999018 2.798763 3.656342 1.62812 3.782433 1.404189 C 3.907834 1.180257 3.632227 0.788205 3.16645 0.529134 C 2.700673 0.269374 2.221116 0.241124 2.095025 0.465055 Z M 2.095025 0.465055 " transform="matrix(5.669291,0,0,5.669291,0.220349,0.476747)"/>
<path style="fill-rule:nonzero;fill:rgb(94.117647%,89.019608%,92.54902%);fill-opacity:1;stroke-width:0.264583;stroke-linecap:round;stroke-linejoin:round;stroke:rgb(90.196079%,0.784314%,70.588237%);stroke-opacity:1;stroke-miterlimit:4;" d="M 2.342383 0.312782 C 2.383724 0.308648 2.427821 0.30727 2.475364 0.310026 C 2.663466 0.32105 2.888086 0.375483 3.11684 0.502951 C 3.262913 0.584945 3.443436 0.695877 3.544721 0.793718 C 3.446881 0.702767 3.273937 0.600103 3.137511 0.523622 C 2.908757 0.396154 2.684136 0.341721 2.495345 0.330697 C 2.307243 0.319672 2.158415 0.366526 2.102604 0.475391 C 2.048861 0.578744 2.090202 0.726194 2.199067 0.880534 C 2.236274 0.934277 2.278993 0.983887 2.332737 1.036941 C 2.269347 0.976997 2.221116 0.920497 2.178396 0.859863 C 2.07022 0.705523 2.024056 0.564274 2.084001 0.457476 C 2.128787 0.37755 2.219049 0.325874 2.342383 0.312782 Z M 3.539898 0.790272 C 3.602599 0.849528 3.656342 0.91154 3.699062 0.972174 C 3.813439 1.134782 3.853402 1.295323 3.787256 1.412457 C 3.721799 1.52959 3.612934 1.570931 3.414497 1.559218 C 3.21537 1.546815 2.974903 1.47309 2.738569 1.341488 C 2.580095 1.253293 2.444358 1.150629 2.33756 1.043142 C 2.440913 1.14305 2.570448 1.238135 2.717898 1.320817 C 2.954232 1.45242 3.194011 1.526834 3.393137 1.539236 C 3.591575 1.55095 3.70044 1.508919 3.765897 1.391786 C 3.832042 1.274653 3.792079 1.114111 3.677702 0.951503 C 3.639806 0.897759 3.593642 0.843327 3.539898 0.790272 Z M 3.539898 0.790272 " transform="matrix(5.669291,0,0,5.669291,0.220349,0.476747)"/>
<path style=" stroke:none;fill-rule:evenodd;fill:rgb(95.294118%,71.764708%,85.09804%);fill-opacity:1;" d="M 20.835938 19.371094 C 20.148438 19.378906 19.570312 19.265625 19.429688 19.273438 C 18.496094 19.304688 16.261719 18.675781 17.15625 17.902344 C 18.132812 17.054688 20.816406 17.078125 21.863281 17.894531 C 23.003906 18.785156 21.519531 19.363281 20.835938 19.371094 Z M 20.835938 19.371094 "/>
<path style=" stroke:none;fill-rule:nonzero;fill:rgb(90.196079%,0.392157%,70.588237%);fill-opacity:1;" d="M 15.96875 10.976562 L 12.355469 17.074219 C 10.195312 16.101562 7.652344 13.835938 7.242188 12.328125 L 10.761719 6.125 C 11.195312 8.332031 13.839844 9.957031 15.96875 10.976562 Z M 15.96875 10.976562 "/>
<path style=" stroke:none;fill-rule:nonzero;fill:rgb(95.294118%,71.764708%,85.09804%);fill-opacity:1;" d="M 21.722656 7.171875 C 21.761719 7.511719 21.71875 7.824219 21.574219 8.09375 C 20.882812 9.359375 18.324219 9.046875 15.703125 7.703125 C 15.003906 7.34375 14.988281 6.746094 14.835938 6.621094 C 15.925781 5.933594 21.320312 5.484375 21.722656 7.171875 Z M 21.722656 7.171875 "/>
<path style=" stroke:none;fill-rule:evenodd;fill:rgb(95.294118%,71.764708%,85.09804%);fill-opacity:1;" d="M 19.335938 8.871094 C 20.167969 8.851562 20.476562 9.519531 20.53125 10.171875 C 20.691406 12.121094 20.355469 13.488281 20.46875 15.046875 C 20.488281 15.363281 21.054688 15.679688 21.117188 14.976562 C 21.273438 13.339844 21.011719 12.195312 21.195312 9.933594 C 21.253906 9.191406 21.484375 8.472656 21.683594 7.621094 "/>
</g>
</svg>
