<?xml version="1.0" encoding="UTF-8"?>
<svg xmlns="http://www.w3.org/2000/svg" xmlns:xlink="http://www.w3.org/1999/xlink" width="24px" height="24px" viewBox="0 0 24 24" version="1.1">
<g id="surface1">
<path style=" stroke:none;fill-rule:nonzero;fill:rgb(90.196079%,0.784314%,70.588237%);fill-opacity:1;" d="M 1.5 1.5 L 22.5 1.5 L 22.5 22.5 L 1.5 22.5 Z M 1.5 1.5 "/>
<path style=" stroke:none;fill-rule:nonzero;fill:rgb(94.117647%,89.019608%,92.54902%);fill-opacity:1;" d="M 3 3 L 21 3 L 21 21 L 3 21 Z M 3 3 "/>
<path style=" stroke:none;fill-rule:evenodd;fill:rgb(95.294118%,71.764708%,85.09804%);fill-opacity:1;" d="M 21 3 C 20.289062 3.945312 3 21 3 21 L 3 3 Z M 21 3 "/>
<path style=" stroke:none;fill-rule:nonzero;fill:rgb(95.294118%,71.764708%,85.09804%);fill-opacity:1;" d="M 16.128906 7.960938 C 13.566406 10.527344 10.449219 13.621094 7.898438 16.144531 C 8.984375 17.222656 10.449219 17.824219 11.980469 17.828125 C 15.1875 17.828125 17.785156 15.226562 17.785156 12.019531 C 17.785156 10.503906 17.191406 9.046875 16.128906 7.960938 Z M 16.128906 7.960938 "/>
<path style=" stroke:none;fill-rule:nonzero;fill:rgb(94.117647%,89.019608%,92.54902%);fill-opacity:1;" d="M 11.980469 6.214844 C 8.773438 6.214844 6.171875 8.8125 6.171875 12.019531 C 6.175781 13.570312 6.796875 15.054688 7.898438 16.144531 C 10.449219 13.621094 13.566406 10.527344 16.128906 7.960938 C 15.035156 6.84375 13.542969 6.214844 11.980469 6.214844 Z M 11.980469 6.214844 "/>
</g>
</svg>
