<?xml version="1.0" encoding="UTF-8"?>
<svg xmlns="http://www.w3.org/2000/svg" xmlns:xlink="http://www.w3.org/1999/xlink" width="24px" height="24px" viewBox="0 0 24 24" version="1.1">
<g id="surface1">
<path style="fill-rule:nonzero;fill:rgb(95.294118%,71.764708%,85.09804%);fill-opacity:1;stroke-width:1.174316;stroke-linecap:round;stroke-linejoin:round;stroke:rgb(90.196079%,0.784314%,70.588237%);stroke-opacity:1;stroke-miterlimit:4;" d="M 8.009706 0.946236 C 4.698641 0.946236 2.011716 1.599535 2.011716 2.351728 C 2.011716 3.898068 6.674046 8.668946 6.674046 8.668946 C 6.69277 8.695917 6.717736 8.740869 6.714615 8.794811 L 6.714615 15.603502 C 6.714615 15.771322 6.948667 15.87621 7.859913 15.87621 C 8.755554 15.87621 9.304798 15.795297 9.304798 15.603502 C 9.304798 15.600506 9.304798 15.600506 9.304798 15.597509 L 9.298557 8.794811 C 9.298557 8.764843 9.301677 8.728882 9.317281 8.701911 C 9.317281 8.701911 13.988973 3.856113 13.988973 2.291792 C 13.988973 1.761361 11.320772 0.946236 8.009706 0.946236 Z M 8.009706 0.946236 " transform="matrix(1.251721,0,0,1.303481,1.247517,1.118161)"/>
<path style=" stroke:none;fill-rule:nonzero;fill:rgb(61.56863%,22.745098%,60.784316%);fill-opacity:1;" d="M 11.273438 4.824219 C 8.550781 4.824219 6.300781 5.171875 5.941406 5.617188 C 7.113281 5.90625 9.0625 6.097656 11.273438 6.097656 C 13.480469 6.097656 15.429688 5.910156 16.601562 5.621094 C 16.25 5.175781 14 4.824219 11.273438 4.824219 Z M 11.273438 4.824219 "/>
<path style="fill:none;stroke-width:1.174316;stroke-linecap:round;stroke-linejoin:round;stroke:rgb(90.196079%,0.784314%,70.588237%);stroke-opacity:1;stroke-miterlimit:4;" d="M 13.929679 2.387689 C 13.929679 3.175843 11.277082 3.817155 8.003465 3.817155 C 4.729848 3.817155 2.07413 3.175843 2.07413 2.387689 C 2.07413 1.596538 4.729848 0.955227 8.003465 0.955227 C 11.277082 0.955227 13.929679 1.596538 13.929679 2.387689 Z M 13.929679 2.387689 " transform="matrix(1.251721,0,0,1.303481,1.247517,1.118161)"/>
<path style=" stroke:none;fill-rule:nonzero;fill:rgb(61.56863%,22.745098%,60.784316%);fill-opacity:1;" d="M 10.488281 1.527344 C 9.464844 1.527344 8.898438 2.347656 8.898438 3.367188 L 8.898438 7.003906 C 8.898438 8.023438 9.515625 9.050781 10.539062 9.050781 L 19.039062 9.050781 C 20.058594 9.050781 20.933594 8.078125 20.933594 7.054688 L 20.933594 3.367188 C 20.933594 2.347656 20.109375 1.527344 19.089844 1.527344 Z M 10.5 3 L 19.5 3 L 19.5 7.5 L 10.5 7.5 Z M 10.5 3 "/>
</g>
</svg>
