<?xml version="1.0" encoding="UTF-8"?>
<svg xmlns="http://www.w3.org/2000/svg" xmlns:xlink="http://www.w3.org/1999/xlink" width="24px" height="24px" viewBox="0 0 24 24" version="1.1">
<defs>
<filter id="alpha" filterUnits="objectBoundingBox" x="0%" y="0%" width="100%" height="100%">
  <feColorMatrix type="matrix" in="SourceGraphic" values="0 0 0 0 1 0 0 0 0 1 0 0 0 0 1 0 0 0 1 0"/>
</filter>
<mask id="mask0">
  <g filter="url(#alpha)">
<rect x="0" y="0" width="24" height="24" style="fill:rgb(0%,0%,0%);fill-opacity:0.77;stroke:none;"/>
  </g>
</mask>
<clipPath id="clip1">
  <rect x="0" y="0" width="24" height="24"/>
</clipPath>
<g id="surface5" clip-path="url(#clip1)">
<path style=" stroke:none;fill-rule:nonzero;fill:rgb(90.196079%,0.784314%,70.588237%);fill-opacity:1;" d="M 14.515625 16.03125 C 14.515625 19.644531 11.585938 22.578125 7.96875 22.578125 C 4.355469 22.578125 1.421875 19.644531 1.421875 16.03125 C 1.421875 12.414062 4.355469 9.484375 7.96875 9.484375 C 11.585938 9.484375 14.515625 12.414062 14.515625 16.03125 Z M 14.515625 16.03125 "/>
</g>
<mask id="mask1">
  <g filter="url(#alpha)">
<rect x="0" y="0" width="24" height="24" style="fill:rgb(0%,0%,0%);fill-opacity:0.77;stroke:none;"/>
  </g>
</mask>
<clipPath id="clip2">
  <rect x="0" y="0" width="24" height="24"/>
</clipPath>
<g id="surface8" clip-path="url(#clip2)">
<path style=" stroke:none;fill-rule:nonzero;fill:rgb(95.294118%,71.764708%,85.09804%);fill-opacity:1;" d="M 22.371094 16.03125 C 22.371094 19.644531 19.441406 22.578125 15.828125 22.578125 C 12.210938 22.578125 9.28125 19.644531 9.28125 16.03125 C 9.28125 12.414062 12.210938 9.484375 15.828125 9.484375 C 19.441406 9.484375 22.371094 12.414062 22.371094 16.03125 Z M 22.371094 16.03125 "/>
</g>
<mask id="mask2">
  <g filter="url(#alpha)">
<rect x="0" y="0" width="24" height="24" style="fill:rgb(0%,0%,0%);fill-opacity:0.77;stroke:none;"/>
  </g>
</mask>
<clipPath id="clip3">
  <rect x="0" y="0" width="24" height="24"/>
</clipPath>
<g id="surface11" clip-path="url(#clip3)">
<path style=" stroke:none;fill-rule:nonzero;fill:rgb(61.56863%,22.745098%,60.784316%);fill-opacity:1;" d="M 18.445312 8.171875 C 18.445312 11.789062 15.515625 14.71875 11.898438 14.71875 C 8.28125 14.71875 5.351562 11.789062 5.351562 8.171875 C 5.351562 4.558594 8.28125 1.628906 11.898438 1.628906 C 15.515625 1.628906 18.445312 4.558594 18.445312 8.171875 Z M 18.445312 8.171875 "/>
</g>
</defs>
<g id="surface1">
<use xlink:href="#surface5" mask="url(#mask0)"/>
<use xlink:href="#surface8" mask="url(#mask1)"/>
<use xlink:href="#surface11" mask="url(#mask2)"/>
</g>
</svg>
