<?xml version="1.0" encoding="UTF-8"?>
<svg xmlns="http://www.w3.org/2000/svg" xmlns:xlink="http://www.w3.org/1999/xlink" width="24px" height="24px" viewBox="0 0 24 24" version="1.1">
<g id="surface1">
<path style=" stroke:none;fill-rule:nonzero;fill:rgb(90.196079%,0.784314%,70.588237%);fill-opacity:1;" d="M 3 3.714844 L 3 20.285156 C 3 20.679688 3.371094 21 3.832031 21 L 20.167969 21 C 20.628906 21 21 20.679688 21 20.285156 L 21 3.714844 C 21 3.320312 20.628906 3 20.167969 3 L 3.832031 3 C 3.371094 3 3 3.320312 3 3.714844 Z M 3 3.714844 "/>
<path style=" stroke:none;fill-rule:evenodd;fill:rgb(94.117647%,89.019608%,92.54902%);fill-opacity:1;" d="M 4.5 5.625 L 4.5 18.375 C 4.5 18.996094 5.003906 19.5 5.625 19.5 L 18.375 19.5 C 18.996094 19.5 19.5 18.996094 19.5 18.375 L 19.5 5.625 C 19.5 5.003906 18.996094 4.5 18.375 4.5 L 5.625 4.5 C 5.003906 4.5 4.5 5.003906 4.5 5.625 Z M 4.5 5.625 "/>
<path style=" stroke:none;fill-rule:nonzero;fill:rgb(90.196079%,0.784314%,70.588237%);fill-opacity:1;" d="M 12.984375 11.753906 C 12.984375 11.503906 12.832031 11.300781 12.628906 11.25 C 12.597656 11.242188 12.566406 11.238281 12.535156 11.238281 L 6.75 11.238281 L 6.75 10.5 C 6.75 10.1875 6.53125 9.9375 6.261719 9.9375 L 3.652344 9.9375 C 3.382812 9.9375 3.164062 10.1875 3.164062 10.5 L 3.164062 13.5 C 3.164062 13.8125 3.382812 14.0625 3.652344 14.0625 L 6.261719 14.0625 C 6.53125 14.0625 6.75 13.8125 6.75 13.5 L 6.75 12.761719 L 8.085938 12.757812 L 9.699219 12.761719 L 9.699219 12.753906 L 12.628906 12.75 L 12.628906 12.726562 C 12.832031 12.675781 12.984375 12.472656 12.984375 12.222656 Z M 12.984375 11.753906 "/>
<path style="fill:none;stroke-width:1;stroke-linecap:round;stroke-linejoin:miter;stroke:rgb(61.56863%,22.745098%,60.784316%);stroke-opacity:1;stroke-miterlimit:4;" d="M 5.5 5.5 L 10.5 10.5 " transform="matrix(0.000000000000000092,1.5,-1.5,0.000000000000000092,24,0)"/>
<path style="fill:none;stroke-width:1;stroke-linecap:round;stroke-linejoin:miter;stroke:rgb(61.56863%,22.745098%,60.784316%);stroke-opacity:1;stroke-miterlimit:4;" d="M 10.5 5.5 L 5.5 10.5 " transform="matrix(0.000000000000000092,1.5,-1.5,0.000000000000000092,24,0)"/>
</g>
</svg>
