<?xml version="1.0" encoding="UTF-8"?>
<svg xmlns="http://www.w3.org/2000/svg" xmlns:xlink="http://www.w3.org/1999/xlink" width="24px" height="24px" viewBox="0 0 24 24" version="1.1">
<g id="surface1">
<path style=" stroke:none;fill-rule:nonzero;fill:rgb(90.196079%,0.784314%,70.588237%);fill-opacity:1;" d="M 3 3.714844 L 3 20.285156 C 3 20.679688 3.371094 21 3.832031 21 L 20.167969 21 C 20.628906 21 21 20.679688 21 20.285156 L 21 3.714844 C 21 3.320312 20.628906 3 20.167969 3 L 3.832031 3 C 3.371094 3 3 3.320312 3 3.714844 Z M 3 3.714844 "/>
<path style=" stroke:none;fill-rule:evenodd;fill:rgb(94.117647%,89.019608%,92.54902%);fill-opacity:1;" d="M 4.5 5.625 L 4.5 18.375 C 4.5 18.996094 5.003906 19.5 5.625 19.5 L 18.375 19.5 C 18.996094 19.5 19.5 18.996094 19.5 18.375 L 19.5 5.625 C 19.5 5.003906 18.996094 4.5 18.375 4.5 L 5.625 4.5 C 5.003906 4.5 4.5 5.003906 4.5 5.625 Z M 4.5 5.625 "/>
<path style="fill-rule:nonzero;fill:rgb(61.56863%,22.745098%,60.784316%);fill-opacity:1;stroke-width:1;stroke-linecap:round;stroke-linejoin:miter;stroke:rgb(61.56863%,22.745098%,60.784316%);stroke-opacity:1;stroke-miterlimit:4;" d="M 6.5 5.5 L 10.5 9.5 " transform="matrix(1.5,0,0,1.5,0,0)"/>
<path style="fill-rule:nonzero;fill:rgb(61.56863%,22.745098%,60.784316%);fill-opacity:1;stroke-width:1;stroke-linecap:round;stroke-linejoin:miter;stroke:rgb(61.56863%,22.745098%,60.784316%);stroke-opacity:1;stroke-miterlimit:4;" d="M 6.5 9.5 L 10.5 5.5 " transform="matrix(1.5,0,0,1.5,0,0)"/>
<path style="fill:none;stroke-width:1;stroke-linecap:round;stroke-linejoin:miter;stroke:rgb(61.56863%,22.745098%,60.784316%);stroke-opacity:1;stroke-miterlimit:4;" d="M 8.5 8 L 8.5 14.5 " transform="matrix(1.5,0,0,1.5,0,0)"/>
</g>
</svg>
