<?xml version="1.0" encoding="UTF-8"?>
<svg xmlns="http://www.w3.org/2000/svg" xmlns:xlink="http://www.w3.org/1999/xlink" width="24px" height="24px" viewBox="0 0 24 24" version="1.1">
<g id="surface1">
<path style=" stroke:none;fill-rule:nonzero;fill:rgb(90.196079%,0.784314%,70.588237%);fill-opacity:1;" d="M 3.714844 3 L 20.285156 3 C 20.679688 3 21 3.371094 21 3.832031 L 21 20.167969 C 21 20.628906 20.679688 21 20.285156 21 L 3.714844 21 C 3.320312 21 3 20.628906 3 20.167969 L 3 3.832031 C 3 3.371094 3.320312 3 3.714844 3 Z M 3.714844 3 "/>
<path style=" stroke:none;fill-rule:evenodd;fill:rgb(94.117647%,89.019608%,92.54902%);fill-opacity:1;" d="M 5.625 4.5 L 18.375 4.5 C 18.996094 4.5 19.5 5.003906 19.5 5.625 L 19.5 18.375 C 19.5 18.996094 18.996094 19.5 18.375 19.5 L 5.625 19.5 C 5.003906 19.5 4.5 18.996094 4.5 18.375 L 4.5 5.625 C 4.5 5.003906 5.003906 4.5 5.625 4.5 Z M 5.625 4.5 "/>
<path style=" stroke:none;fill-rule:nonzero;fill:rgb(90.196079%,0.784314%,70.588237%);fill-opacity:1;" d="M 15.570312 14.242188 C 15.570312 13.871094 15.242188 13.570312 14.832031 13.570312 L 7.46875 13.570312 L 7.46875 6.824219 C 7.46875 6.824219 7.46875 6.820312 7.46875 6.820312 L 8.207031 6.820312 C 8.511719 6.820312 8.757812 6.59375 8.757812 6.3125 L 8.757812 3.617188 C 8.757812 3.335938 8.511719 3.109375 8.207031 3.109375 L 5.261719 3.109375 C 4.957031 3.109375 4.710938 3.335938 4.710938 3.617188 L 4.710938 6.3125 C 4.710938 6.59375 4.957031 6.820312 5.261719 6.820312 L 6 6.820312 C 6 6.820312 6 6.824219 6 6.824219 L 6 14.242188 C 6 14.335938 6.019531 14.425781 6.054688 14.507812 C 6.167969 14.75 6.429688 14.917969 6.734375 14.917969 L 14.832031 14.917969 C 15.242188 14.917969 15.570312 14.617188 15.570312 14.242188 Z M 15.570312 14.242188 "/>
<path style="fill:none;stroke-width:1.220553;stroke-linecap:round;stroke-linejoin:miter;stroke:rgb(61.56863%,22.745098%,60.784316%);stroke-opacity:1;stroke-miterlimit:4;" d="M 5.5015 5.500759 L 10.499989 10.501562 " transform="matrix(1.239437,0,0,-1.218554,4.407799,23.913913)"/>
<path style="fill:none;stroke-width:1.220553;stroke-linecap:round;stroke-linejoin:miter;stroke:rgb(61.56863%,22.745098%,60.784316%);stroke-opacity:1;stroke-miterlimit:4;" d="M 10.499989 5.500759 L 5.5015 10.501562 " transform="matrix(1.239437,0,0,-1.218554,4.407799,23.913913)"/>
</g>
</svg>
