<?xml version="1.0" encoding="UTF-8" standalone="no"?>
<svg
   xmlns:dc="http://purl.org/dc/elements/1.1/"
   xmlns:cc="http://creativecommons.org/ns#"
   xmlns:rdf="http://www.w3.org/1999/02/22-rdf-syntax-ns#"
   xmlns:svg="http://www.w3.org/2000/svg"
   xmlns="http://www.w3.org/2000/svg"
   xmlns:xlink="http://www.w3.org/1999/xlink"
   xmlns:sodipodi="http://sodipodi.sourceforge.net/DTD/sodipodi-0.dtd"
   xmlns:inkscape="http://www.inkscape.org/namespaces/inkscape"
   height="24"
   width="24"
   id="svg4290"
   version="1.1"
   inkscape:version="0.91 r13725"
   sodipodi:docname="lc_getinvolved.svg"
   inkscape:export-filename="/home/tamara/Desktop/IKON/5_258 (tamara)/sc (222)/Tanggal 14/lc_getinvolved.png"
   inkscape:export-xdpi="90"
   inkscape:export-ydpi="90">
  <metadata
     id="metadata4406">
    <rdf:RDF>
      <cc:Work
         rdf:about="">
        <dc:format>image/svg+xml</dc:format>
        <dc:type
           rdf:resource="http://purl.org/dc/dcmitype/StillImage" />
        <dc:title></dc:title>
      </cc:Work>
    </rdf:RDF>
  </metadata>
  <defs
     id="defs4404" />
  <sodipodi:namedview
     pagecolor="#ffffff"
     bordercolor="#666666"
     borderopacity="1"
     objecttolerance="10"
     gridtolerance="10"
     guidetolerance="10"
     inkscape:pageopacity="0"
     inkscape:pageshadow="2"
     inkscape:window-width="1366"
     inkscape:window-height="718"
     id="namedview4402"
     showgrid="true"
     inkscape:zoom="14.75"
     inkscape:cx="-0.81355932"
     inkscape:cy="8"
     inkscape:window-x="0"
     inkscape:window-y="0"
     inkscape:window-maximized="1"
     inkscape:current-layer="svg4290">
    <inkscape:grid
       type="xygrid"
       id="grid4959" />
  </sodipodi:namedview>
  <linearGradient
     id="a">
    <stop
       offset="0"
       stop-color="#96daf9"
       id="stop4293" />
    <stop
       offset="1"
       stop-color="#96daf9"
       stop-opacity="0"
       id="stop4295" />
  </linearGradient>
  <linearGradient
     id="b">
    <stop
       offset="0"
       stop-color="#9fdfff"
       id="stop4298" />
    <stop
       offset="1"
       stop-color="#9ff0ff"
       stop-opacity="0"
       id="stop4300" />
  </linearGradient>
  <clipPath
     id="c">
    <path
       d="m 69.65625,932.73718 c -3.765618,0.0129 -7.605084,0.33656 -11.5,0.96875 -31.159331,5.0575 -53.2882786,28.7562 -49.4375,52.9375 2.068601,12.98996 12.075692,21.90467 24.0625,29.59377 4.324976,2.7743 0.03545,17.7964 -9.09375,21.75 18.630389,-0.5848 28.25302,-8.1707 33.40625,-15.8438 4.863182,0.2239 9.890802,-0.046 15,-0.875 31.15933,-5.0575 53.28828,-28.75617 49.4375,-52.93747 -3.36943,-21.15864 -25.515677,-35.68392 -51.875,-35.59375 z"
       id="path4303"
       inkscape:connector-curvature="0" />
  </clipPath>
  <filter
     id="d">
    <feGaussianBlur
       stdDeviation="2.2692724"
       id="feGaussianBlur4306" />
  </filter>
  <clipPath
     id="e">
    <path
       d="m -24.34375,863.23718 c -3.765618,0.0129 -7.605084,0.33656 -11.5,0.96875 -31.159331,5.0575 -53.288279,28.75619 -49.4375,52.9375 2.068601,12.98996 12.075692,21.90469 24.0625,29.59375 4.324976,2.7743 0.03545,17.7964 -9.09375,21.75 18.630389,-0.58483 28.25302,-8.1707 33.40625,-15.84375 4.863182,0.22384 9.890802,-0.0457 15,-0.875 31.15933,-5.0575 53.28828,-28.7562 49.4375,-52.9375 -3.36943,-21.15864 -25.515677,-35.68392 -51.875,-35.59375 z"
       id="path4309"
       inkscape:connector-curvature="0" />
  </clipPath>
  <filter
     id="f">
    <feGaussianBlur
       stdDeviation="3.3496307"
       id="feGaussianBlur4312" />
  </filter>
  <filter
     id="g"
     height="1.318023"
     width="1.1911041"
     x="-0.095551997"
     y="-0.15901101">
    <feGaussianBlur
       stdDeviation="3.0073066"
       id="feGaussianBlur4315" />
  </filter>
  <filter
     id="h">
    <feGaussianBlur
       stdDeviation=".55423086"
       id="feGaussianBlur4318" />
  </filter>
  <filter
     id="i">
    <feGaussianBlur
       stdDeviation="3.4515838"
       id="feGaussianBlur4321" />
  </filter>
  <clipPath
     id="j">
    <path
       d="m -66.104346,932.73718 c -3.765618,0.0129 -7.605084,0.33656 -11.5,0.96875 -31.159334,5.0575 -53.288274,28.7562 -49.437504,52.9375 2.0686,12.98996 12.0757,21.90467 24.0625,29.59377 4.32498,2.7743 0.0354,17.7964 -9.09375,21.75 18.630393,-0.5848 28.253024,-8.1707 33.406254,-15.8438 4.863182,0.2239 9.890802,-0.046 15,-0.875 31.159334,-5.0575 53.288284,-28.75616 49.437504,-52.93747 -3.36943,-21.15864 -25.515681,-35.68392 -51.875004,-35.59375 z"
       id="path4324"
       inkscape:connector-curvature="0" />
  </clipPath>
  <filter
     id="k">
    <feGaussianBlur
       stdDeviation=".87698459"
       id="feGaussianBlur4327" />
  </filter>
  <filter
     id="l"
     height="1.419964"
     width="1.179302"
     x="-0.089651003"
     y="-0.20998199">
    <feGaussianBlur
       stdDeviation=".62072217"
       id="feGaussianBlur4330" />
  </filter>
  <linearGradient
     id="m"
     gradientUnits="userSpaceOnUse"
     x1="79.752075"
     x2="79.752075"
     y1="115.83942"
     y2="62.532864">
    <stop
       offset="0"
       stop-color="#00171c"
       id="stop4333" />
    <stop
       offset="1"
       stop-color="#00171c"
       stop-opacity="0"
       id="stop4335" />
  </linearGradient>
  <radialGradient
     id="n"
     cx="65.125"
     cy="60.99979"
     fx="87.516037"
     fy="67.562584"
     gradientTransform="matrix(1.2906724,0,0,1.1949353,-18.926133,912.47117)"
     gradientUnits="userSpaceOnUse"
     r="56.841492">
    <stop
       offset="0"
       stop-color="#7cd4ff"
       id="stop4338" />
    <stop
       offset=".60811019"
       stop-color="#3e8fb4"
       id="stop4340" />
    <stop
       offset="1"
       stop-color="#004b69"
       id="stop4342" />
  </radialGradient>
  <linearGradient
     id="o"
     gradientTransform="matrix(0.74732747,-0.06577944,0,0.93552974,55.810948,939.5075)"
     gradientUnits="userSpaceOnUse"
     x1="7.4941339"
     x2="10.346652"
     xlink:href="#b"
     y1="-7.3202839"
     y2="61.587627" />
  <radialGradient
     id="p"
     cx="142.92635"
     cy="205.0354"
     gradientTransform="matrix(1.6579738,0,0,0.79259383,-90.71814,39.13084)"
     gradientUnits="userSpaceOnUse"
     r="61.999104">
    <stop
       offset="0"
       stop-color="#89d7e4"
       id="stop4346" />
    <stop
       offset="1"
       stop-color="#2fb8d0"
       stop-opacity="0"
       id="stop4348" />
  </radialGradient>
  <radialGradient
     id="q"
     cx="48.575001"
     cy="97.567253"
     gradientTransform="matrix(3.2308548,-0.09161569,0.07698348,2.7148454,-109.95842,-165.83321)"
     gradientUnits="userSpaceOnUse"
     r="17.737137">
    <stop
       offset="0"
       stop-color="#0091ca"
       id="stop4351" />
    <stop
       offset="1"
       stop-color="#11dcff"
       stop-opacity="0"
       id="stop4353" />
  </radialGradient>
  <radialGradient
     id="r"
     cx="65.032387"
     cy="963.30902"
     fx="64.325279"
     fy="921.39209"
     gradientTransform="matrix(0.94745138,0,0,0.54341473,3.452246,438.27667)"
     gradientUnits="userSpaceOnUse"
     r="51.628277"
     xlink:href="#b" />
  <linearGradient
     id="s"
     gradientUnits="userSpaceOnUse"
     x1="-82.577522"
     x2="-82.577522"
     y1="1054.1454"
     y2="945.20435">
    <stop
       offset="0"
       stop-color="#143461"
       id="stop4357" />
    <stop
       offset="1"
       stop-color="#143461"
       stop-opacity="0"
       id="stop4359" />
  </linearGradient>
  <linearGradient
     id="t"
     gradientUnits="userSpaceOnUse"
     x1="23.198343"
     x2="38.614532"
     y1="1036.838"
     y2="1032.7073">
    <stop
       offset="0"
       stop-color="#042833"
       id="stop4362" />
    <stop
       offset="1"
       stop-color="#042833"
       stop-opacity="0"
       id="stop4364" />
  </linearGradient>
  <radialGradient
     id="u"
     cx="98.684631"
     cy="66"
     fx="98.779564"
     fy="70.115265"
     gradientTransform="matrix(2.6333862,0,0,3.5234657,-161.19012,-166.54874)"
     gradientUnits="userSpaceOnUse"
     r="18.684629"
     xlink:href="#a" />
  <radialGradient
     id="v"
     cx="98.684631"
     cy="66"
     gradientTransform="matrix(2.6333862,0,0,3.5234657,-161.19012,-166.54874)"
     gradientUnits="userSpaceOnUse"
     r="18.684629"
     xlink:href="#a" />
  <filter
     id="w">
    <feGaussianBlur
       stdDeviation=".84727793"
       id="feGaussianBlur4369" />
  </filter>
  <filter
     id="x"
     height="1.164675"
     width="1.220335"
     x="-0.110167"
     y="-0.082337998">
    <feGaussianBlur
       stdDeviation="1.7153651"
       id="feGaussianBlur4372" />
  </filter>
  <path
     d="M 116.25,41 C 124.05315,62.494544 100.98853,88.60434 80,91 94.355886,84.862547 117.91118,65.07897 116.25,41 Z"
     transform="matrix(0.13844124,0,0,0.13844124,-0.65051,6.782496)"
     id="path4398"
     inkscape:connector-curvature="0"
     style="fill:url(#u);filter:url(#x)" />
  <path
     d="m 116.25,41 c 8.90243,23.519448 -11.47281,40.06295 -26,43.75 11.60589,-6.012453 27.66118,-19.67103 26,-43.75 z"
     transform="matrix(-0.13844124,0,0,0.13844124,16.58463,7.595839)"
     id="path4400"
     inkscape:connector-curvature="0"
     style="opacity:0.21390399;fill:url(#v);filter:url(#w)" />
  <path
     style="opacity:1;fill:#f3b7d9;fill-opacity:1;fill-rule:nonzero;stroke:#e602b4;stroke-width:0.24993265;stroke-linecap:round;stroke-linejoin:round;stroke-miterlimit:4;stroke-dasharray:none;stroke-dashoffset:0;stroke-opacity:1"
     d="m 3.2494613,0.13158812 c -1.7314155,0 -3.12449498,1.39277918 -3.12449498,3.12382148 l 0,12.4991904 c 0,1.731043 1.39307948,3.123822 3.12449498,3.123822 l 2.5933308,0 -2.4839735,3.803253 7.6784454,-3.803253 9.713274,0 c 1.731417,0 3.124496,-1.392779 3.124496,-3.123822 l 0,-12.4991904 c 0,-1.7310423 -1.393079,-3.12382148 -3.124496,-3.12382148 l -17.5010767,0 z"
     id="rect4283"
     inkscape:connector-curvature="0" />
</svg>
