<?xml version="1.0" encoding="UTF-8"?>
<svg xmlns="http://www.w3.org/2000/svg" xmlns:xlink="http://www.w3.org/1999/xlink" width="24px" height="24px" viewBox="0 0 24 24" version="1.1">
<g id="surface1">
<path style=" stroke:none;fill-rule:nonzero;fill:rgb(90.196079%,0.784314%,70.588237%);fill-opacity:1;" d="M 4.5 3 L 19.5 3 C 20.328125 3 21 3.671875 21 4.5 L 21 19.5 C 21 20.328125 20.328125 21 19.5 21 L 4.5 21 C 3.671875 21 3 20.328125 3 19.5 L 3 4.5 C 3 3.671875 3.671875 3 4.5 3 Z M 4.5 3 "/>
<path style=" stroke:none;fill-rule:nonzero;fill:rgb(94.117647%,89.019608%,92.54902%);fill-opacity:1;" d="M 4.5 4.5 L 19.5 4.5 L 19.5 19.5 L 4.5 19.5 Z M 4.5 4.5 "/>
<path style=" stroke:none;fill-rule:evenodd;fill:rgb(90.196079%,0.784314%,70.588237%);fill-opacity:1;" d="M 19.5 6 C 16.375 14.714844 11.253906 17.308594 6 19.5 L 4.5 19.5 L 4.5 18 C 12.710938 15.277344 16.265625 10.324219 18 4.5 L 19.5 4.5 Z M 19.5 6 "/>
</g>
</svg>
