<?xml version="1.0" encoding="UTF-8"?>
<svg xmlns="http://www.w3.org/2000/svg" xmlns:xlink="http://www.w3.org/1999/xlink" width="24px" height="24px" viewBox="0 0 24 24" version="1.1">
<g id="surface1">
<path style=" stroke:none;fill-rule:nonzero;fill:rgb(90.196079%,0.784314%,70.588237%);fill-opacity:1;" d="M 3.125 2.988281 L 20.851562 2.988281 C 21.753906 2.988281 22.488281 3.722656 22.488281 4.625 L 22.488281 19.351562 C 22.488281 20.257812 21.753906 20.988281 20.851562 20.988281 L 3.125 20.988281 C 2.21875 20.988281 1.488281 20.257812 1.488281 19.351562 L 1.488281 4.625 C 1.488281 3.722656 2.21875 2.988281 3.125 2.988281 Z M 3.125 2.988281 "/>
<path style=" stroke:none;fill-rule:nonzero;fill:rgb(94.117647%,89.019608%,92.54902%);fill-opacity:1;" d="M 4.488281 4.488281 L 19.488281 4.488281 C 20.316406 4.488281 20.988281 5.160156 20.988281 5.988281 L 20.988281 17.988281 C 20.988281 18.816406 20.316406 19.488281 19.488281 19.488281 L 4.488281 19.488281 C 3.660156 19.488281 2.988281 18.816406 2.988281 17.988281 L 2.988281 5.988281 C 2.988281 5.160156 3.660156 4.488281 4.488281 4.488281 Z M 4.488281 4.488281 "/>
<path style=" stroke:none;fill-rule:nonzero;fill:rgb(90.196079%,0.784314%,70.588237%);fill-opacity:1;" d="M 6.875 9.242188 C 6.363281 9.28125 5.867188 9.519531 5.507812 9.945312 L 2.988281 12.898438 L 2.988281 17.988281 C 2.988281 18.820312 3.65625 19.488281 4.488281 19.488281 L 19.488281 19.488281 C 19.578125 19.488281 19.65625 19.453125 19.742188 19.4375 L 8.339844 9.71875 C 7.917969 9.355469 7.386719 9.199219 6.875 9.242188 Z M 6.875 9.242188 "/>
<path style=" stroke:none;fill-rule:nonzero;fill:rgb(61.56863%,22.745098%,60.784316%);fill-opacity:1;" d="M 9.683594 14.824219 C 9.25 14.808594 8.808594 14.964844 8.464844 15.285156 L 4.066406 19.402344 C 4.203125 19.445312 4.339844 19.488281 4.488281 19.488281 L 14.730469 19.488281 L 10.867188 15.363281 C 10.542969 15.019531 10.117188 14.839844 9.683594 14.824219 Z M 9.683594 14.824219 "/>
<path style=" stroke:none;fill-rule:nonzero;fill:rgb(61.56863%,22.745098%,60.784316%);fill-opacity:1;" d="M 17.566406 11.355469 C 17.179688 11.355469 16.792969 11.503906 16.492188 11.796875 L 8.964844 19.28125 C 8.902344 19.34375 8.875 19.421875 8.828125 19.488281 L 19.488281 19.488281 C 20.320312 19.488281 20.988281 18.820312 20.988281 17.988281 L 20.988281 14.167969 L 18.636719 11.804688 C 18.34375 11.507812 17.953125 11.355469 17.566406 11.355469 Z M 17.566406 11.355469 "/>
<path style=" stroke:none;fill-rule:nonzero;fill:rgb(95.294118%,71.764708%,85.09804%);fill-opacity:1;" d="M 13.628906 14.15625 C 13.195312 14.140625 12.757812 14.289062 12.414062 14.609375 L 7.183594 19.488281 L 19.28125 19.488281 L 14.8125 14.695312 C 14.492188 14.351562 14.0625 14.171875 13.628906 14.15625 Z M 13.628906 14.15625 "/>
<path style=" stroke:none;fill-rule:nonzero;fill:rgb(61.56863%,22.745098%,60.784316%);fill-opacity:1;" d="M 14.351562 7.894531 C 14.351562 8.515625 13.847656 9.019531 13.226562 9.019531 C 12.605469 9.019531 12.101562 8.515625 12.101562 7.894531 C 12.101562 7.273438 12.605469 6.769531 13.226562 6.769531 C 13.847656 6.769531 14.351562 7.273438 14.351562 7.894531 Z M 14.351562 7.894531 "/>
<path style=" stroke:none;fill-rule:nonzero;fill:rgb(95.294118%,71.764708%,85.09804%);fill-opacity:1;" d="M 4.433594 15.832031 C 4 15.816406 3.5625 15.972656 3.21875 16.292969 L 2.988281 16.507812 L 2.988281 17.988281 C 2.988281 18.820312 3.65625 19.488281 4.488281 19.488281 L 8.535156 19.488281 L 5.617188 16.371094 C 5.292969 16.027344 4.867188 15.847656 4.433594 15.832031 Z M 4.433594 15.832031 "/>
<path style=" stroke:none;fill-rule:nonzero;fill:rgb(90.196079%,0.784314%,70.588237%);fill-opacity:1;" d="M 18.601562 15.546875 C 18.167969 15.53125 17.726562 15.679688 17.382812 16.003906 L 13.664062 19.488281 L 19.488281 19.488281 C 20.320312 19.488281 20.988281 18.820312 20.988281 17.988281 L 20.988281 17.367188 L 19.785156 16.082031 C 19.460938 15.738281 19.035156 15.558594 18.601562 15.546875 Z M 18.601562 15.546875 "/>
</g>
</svg>
