<?xml version="1.0" encoding="UTF-8"?>
<svg xmlns="http://www.w3.org/2000/svg" xmlns:xlink="http://www.w3.org/1999/xlink" width="24px" height="24px" viewBox="0 0 24 24" version="1.1">
<g id="surface1">
<path style=" stroke:none;fill-rule:nonzero;fill:rgb(95.294118%,71.764708%,85.09804%);fill-opacity:1;" d="M 16.65625 16.738281 L 19.589844 19.960938 L 16.496094 16.890625 L 19.320312 20.207031 L 16.332031 17.035156 L 19.046875 20.445312 L 16.164062 17.175781 L 18.765625 20.671875 L 15.992188 17.3125 L 18.476562 20.894531 L 15.816406 17.441406 L 18.179688 21.101562 L 15.632812 17.566406 L 17.875 21.304688 L 15.449219 17.683594 L 17.5625 21.492188 L 15.257812 17.792969 L 17.246094 21.671875 L 15.066406 17.898438 L 16.925781 21.839844 L 14.871094 18 L 16.597656 22 L 14.671875 18.089844 L 16.265625 22.144531 L 14.46875 18.175781 L 15.929688 22.28125 L 14.261719 18.253906 L 15.585938 22.40625 L 14.054688 18.328125 L 15.242188 22.519531 L 13.847656 18.390625 L 14.890625 22.621094 L 13.632812 18.449219 L 14.539062 22.710938 L 13.421875 18.5 L 14.183594 22.792969 L 13.207031 18.546875 L 13.828125 22.859375 L 12.988281 18.582031 L 13.46875 22.914062 L 12.769531 18.613281 L 13.105469 22.957031 L 12.550781 18.632812 L 12.746094 22.988281 L 12.332031 18.648438 L 12.382812 23.007812 L 12.113281 18.65625 L 12.019531 23.015625 L 11.894531 18.65625 L 11.65625 23.007812 L 11.675781 18.652344 L 11.292969 22.992188 L 11.457031 18.636719 L 10.929688 22.964844 L 11.238281 18.617188 L 10.566406 22.921875 L 11.019531 18.589844 L 10.207031 22.871094 L 10.800781 18.554688 L 9.851562 22.804688 L 10.585938 18.511719 L 9.496094 22.730469 L 10.375 18.460938 L 9.140625 22.640625 L 10.160156 18.402344 L 8.792969 22.539062 L 9.949219 18.339844 L 8.445312 22.429688 L 9.742188 18.269531 L 8.101562 22.308594 L 9.539062 18.191406 L 7.765625 22.171875 L 9.335938 18.109375 L 7.433594 22.027344 L 9.136719 18.015625 L 7.101562 21.871094 L 8.9375 17.917969 L 6.78125 21.703125 L 8.746094 17.816406 L 6.460938 21.527344 L 8.554688 17.707031 L 6.152344 21.339844 L 8.367188 17.589844 L 5.847656 21.140625 L 8.1875 17.464844 L 5.546875 20.933594 L 8.007812 17.335938 L 5.257812 20.714844 L 7.835938 17.203125 L 4.972656 20.488281 L 7.664062 17.0625 L 4.695312 20.253906 L 7.5 16.917969 L 4.429688 20.007812 L 7.339844 16.765625 L 4.167969 19.753906 L 7.1875 16.609375 L 3.917969 19.492188 L 7.039062 16.449219 L 3.675781 19.21875 L 6.894531 16.285156 L 3.441406 18.941406 L 6.753906 16.113281 L 3.214844 18.65625 L 6.621094 15.9375 L 3 18.363281 L 6.496094 15.757812 L 2.796875 18.0625 L 6.375 15.574219 L 2.601562 17.753906 L 6.261719 15.386719 L 2.417969 17.441406 L 6.152344 15.195312 L 2.242188 17.121094 L 6.050781 15.003906 L 2.078125 16.796875 L 5.957031 14.804688 L 1.925781 16.464844 L 5.867188 14.605469 L 1.785156 16.132812 L 5.785156 14.398438 L 1.65625 15.792969 L 5.707031 14.195312 L 1.535156 15.449219 L 5.640625 13.984375 L 1.429688 15.101562 L 5.578125 13.773438 L 1.332031 14.75 L 5.523438 13.5625 L 1.246094 14.398438 L 5.476562 13.347656 L 1.175781 14.039062 L 5.4375 13.132812 L 1.113281 13.683594 L 5.402344 12.914062 L 1.066406 13.320312 L 5.375 12.695312 L 1.027344 12.960938 L 5.359375 12.476562 L 1.003906 12.597656 L 5.347656 12.257812 L 0.988281 12.234375 L 5.34375 12.039062 L 0.988281 11.871094 L 5.34375 11.820312 L 1 11.507812 L 5.355469 11.597656 L 1.023438 11.144531 L 5.371094 11.378906 L 1.054688 10.78125 L 5.398438 11.164062 L 1.101562 10.421875 L 5.429688 10.945312 L 1.160156 10.0625 L 5.46875 10.730469 L 1.234375 9.707031 L 5.515625 10.515625 L 1.316406 9.351562 L 5.566406 10.300781 L 1.410156 9 L 5.628906 10.089844 L 1.515625 8.652344 L 5.695312 9.882812 L 1.632812 8.308594 L 5.769531 9.675781 L 1.757812 7.96875 L 5.851562 9.46875 L 1.898438 7.632812 L 5.9375 9.269531 L 2.050781 7.300781 L 6.03125 9.070312 L 2.210938 6.976562 L 6.132812 8.875 L 2.382812 6.65625 L 6.238281 8.683594 L 2.566406 6.339844 L 6.351562 8.496094 L 2.757812 6.03125 L 6.472656 8.3125 L 2.960938 5.730469 L 6.597656 8.128906 L 3.175781 5.433594 L 6.730469 7.953125 L 3.398438 5.148438 L 6.867188 7.785156 L 3.628906 4.867188 L 7.007812 7.617188 L 3.871094 4.59375 L 7.15625 7.453125 L 4.121094 4.332031 L 7.3125 7.296875 L 4.378906 4.074219 L 7.46875 7.144531 L 4.644531 3.828125 L 7.632812 7 L 4.917969 3.589844 L 7.800781 6.859375 L 5.203125 3.359375 L 7.972656 6.722656 L 5.492188 3.140625 L 8.152344 6.59375 L 5.789062 2.933594 L 8.332031 6.46875 L 6.09375 2.730469 L 8.519531 6.351562 L 6.402344 2.542969 L 8.707031 6.238281 L 6.71875 2.363281 L 8.902344 6.136719 L 7.042969 2.195312 L 9.097656 6.035156 L 7.367188 2.035156 L 9.296875 5.945312 L 7.699219 1.890625 L 9.5 5.859375 L 8.039062 1.753906 L 9.703125 5.78125 L 8.378906 1.628906 L 9.910156 5.707031 L 8.726562 1.515625 L 10.121094 5.644531 L 9.074219 1.414062 L 10.332031 5.585938 L 9.425781 1.324219 L 10.546875 5.535156 L 9.78125 1.242188 L 10.761719 5.488281 L 10.140625 1.175781 L 10.976562 5.453125 L 10.5 1.121094 L 11.195312 5.421875 L 10.859375 1.078125 L 11.414062 5.402344 L 11.222656 1.046875 L 11.632812 5.386719 L 11.585938 1.027344 L 11.851562 5.378906 L 11.949219 1.019531 L 12.070312 5.375 L 12.3125 1.027344 L 12.292969 5.382812 L 12.675781 1.042969 L 12.511719 5.398438 L 13.039062 1.070312 L 12.730469 5.417969 L 13.398438 1.113281 L 12.945312 5.445312 L 13.757812 1.164062 L 13.164062 5.480469 L 14.117188 1.230469 L 13.378906 5.523438 L 14.472656 1.304688 L 13.59375 5.574219 L 14.824219 1.394531 L 13.804688 5.632812 L 15.175781 1.496094 L 14.015625 5.695312 L 15.519531 1.605469 L 14.222656 5.765625 L 15.863281 1.726562 L 14.429688 5.84375 L 16.203125 1.863281 L 14.632812 5.925781 L 16.535156 2.007812 L 14.832031 6.019531 L 16.863281 2.164062 L 15.027344 6.117188 L 17.1875 2.328125 L 15.222656 6.21875 L 17.503906 2.507812 L 15.410156 6.328125 L 17.816406 2.695312 L 15.597656 6.445312 L 18.121094 2.894531 L 15.78125 6.570312 L 18.417969 3.101562 L 15.957031 6.695312 L 18.710938 3.320312 L 16.132812 6.832031 L 18.992188 3.546875 L 16.300781 6.972656 L 19.269531 3.78125 L 16.464844 7.117188 L 19.539062 4.027344 L 16.625 7.269531 L 19.796875 4.28125 L 16.78125 7.425781 L 20.050781 4.542969 L 16.929688 7.585938 L 20.292969 4.816406 L 17.074219 7.75 L 20.527344 5.09375 L 17.210938 7.921875 L 20.75 5.378906 L 17.34375 8.097656 L 20.964844 5.671875 L 17.46875 8.277344 L 21.171875 5.972656 L 17.589844 8.460938 L 21.363281 6.28125 L 17.707031 8.648438 L 21.550781 6.59375 L 17.8125 8.839844 L 21.722656 6.914062 L 17.917969 9.03125 L 21.886719 7.238281 L 18.011719 9.230469 L 22.039062 7.570312 L 18.101562 9.429688 L 22.179688 7.902344 L 18.183594 9.636719 L 22.3125 8.242188 L 18.257812 9.839844 L 22.429688 8.585938 L 18.328125 10.050781 L 22.539062 8.933594 L 18.386719 10.261719 L 22.632812 9.285156 L 18.441406 10.472656 L 22.71875 9.636719 L 18.488281 10.6875 L 22.792969 9.996094 L 18.53125 10.902344 L 22.851562 10.351562 L 18.5625 11.121094 L 22.902344 10.714844 L 18.589844 11.339844 L 22.9375 11.074219 L 18.609375 11.558594 L 22.964844 11.4375 L 18.621094 11.777344 L 22.976562 11.800781 L 18.625 11.996094 L 22.980469 12.164062 L 18.621094 12.214844 L 22.96875 12.527344 L 18.613281 12.433594 L 22.945312 12.890625 L 18.59375 12.65625 L 22.910156 13.253906 L 18.570312 12.871094 L 22.863281 13.613281 L 18.539062 13.089844 L 22.804688 13.972656 L 18.5 13.304688 L 22.734375 14.328125 L 18.453125 13.519531 L 22.652344 14.683594 L 18.398438 13.734375 L 22.558594 15.035156 L 18.339844 13.945312 L 22.453125 15.382812 L 18.273438 14.152344 L 22.335938 15.726562 L 18.199219 14.359375 L 22.207031 16.066406 L 18.117188 14.566406 L 22.066406 16.402344 L 18.027344 14.765625 L 21.917969 16.734375 L 17.933594 14.964844 L 21.753906 17.058594 L 17.835938 15.160156 L 21.582031 17.378906 L 17.726562 15.351562 L 21.402344 17.695312 L 17.613281 15.539062 L 21.207031 18.003906 L 17.492188 15.722656 L 21.003906 18.304688 L 17.367188 15.902344 L 20.792969 18.597656 L 17.238281 16.078125 L 20.570312 18.886719 L 17.101562 16.25 L 20.339844 19.167969 L 16.957031 16.417969 L 20.097656 19.441406 L 16.808594 16.582031 L 19.847656 19.703125 Z M 16.65625 16.738281 "/>
<path style=" stroke:none;fill-rule:nonzero;fill:rgb(61.56863%,22.745098%,60.784316%);fill-opacity:1;" d="M 15.503906 17.648438 L 17.65625 21.4375 L 15.316406 17.761719 L 17.34375 21.621094 L 15.125 17.871094 L 17.019531 21.792969 L 14.929688 17.96875 L 16.695312 21.953125 L 14.730469 18.0625 L 16.363281 22.101562 L 14.527344 18.152344 L 16.027344 22.242188 L 14.324219 18.234375 L 15.6875 22.371094 L 14.117188 18.304688 L 15.34375 22.488281 L 13.90625 18.375 L 14.996094 22.59375 L 13.695312 18.433594 L 14.644531 22.6875 L 13.484375 18.488281 L 14.289062 22.769531 L 13.269531 18.53125 L 13.933594 22.839844 L 13.054688 18.570312 L 13.574219 22.898438 L 12.835938 18.605469 L 13.214844 22.945312 L 12.617188 18.628906 L 12.851562 22.980469 L 12.398438 18.644531 L 12.488281 23.003906 L 12.179688 18.65625 L 12.125 23.011719 L 11.960938 18.660156 L 11.761719 23.011719 L 11.738281 18.65625 L 11.398438 23 L 11.519531 18.644531 L 11.035156 22.972656 L 11.300781 18.625 L 10.675781 22.9375 L 11.082031 18.597656 L 10.3125 22.886719 L 10.867188 18.5625 L 9.957031 22.824219 L 10.652344 18.523438 L 9.597656 22.753906 L 10.4375 18.476562 L 9.246094 22.667969 L 10.222656 18.421875 L 8.894531 22.570312 L 10.011719 18.359375 L 8.546875 22.464844 L 9.804688 18.292969 L 8.203125 22.34375 L 9.597656 18.214844 L 7.863281 22.214844 L 9.394531 18.132812 L 7.53125 22.070312 L 9.195312 18.042969 L 7.199219 21.917969 L 8.996094 17.949219 L 6.875 21.753906 L 8.800781 17.847656 L 6.554688 21.582031 L 8.609375 17.738281 L 6.242188 21.398438 L 8.421875 17.625 L 5.9375 21.203125 L 8.238281 17.503906 L 5.636719 20.996094 L 8.058594 17.375 L 5.34375 20.78125 L 7.886719 17.242188 L 5.054688 20.558594 L 7.714844 17.105469 L 4.777344 20.324219 L 7.550781 16.960938 L 4.507812 20.082031 L 7.386719 16.8125 L 4.246094 19.828125 L 7.230469 16.65625 L 3.988281 19.570312 L 7.082031 16.496094 L 3.746094 19.300781 L 6.9375 16.332031 L 3.507812 19.023438 L 6.796875 16.164062 L 3.28125 18.742188 L 6.660156 15.992188 L 3.0625 18.449219 L 6.53125 15.8125 L 2.855469 18.152344 L 6.410156 15.628906 L 2.660156 17.84375 L 6.292969 15.445312 L 2.472656 17.535156 L 6.183594 15.253906 L 2.292969 17.214844 L 6.078125 15.058594 L 2.125 16.894531 L 5.984375 14.863281 L 1.972656 16.566406 L 5.890625 14.664062 L 1.828125 16.230469 L 5.808594 14.460938 L 1.691406 15.894531 L 5.730469 14.253906 L 1.570312 15.550781 L 5.660156 14.046875 L 1.457031 15.203125 L 5.597656 13.835938 L 1.359375 14.855469 L 5.539062 13.625 L 1.269531 14.503906 L 5.488281 13.410156 L 1.195312 14.144531 L 5.449219 13.195312 L 1.128906 13.789062 L 5.410156 12.980469 L 1.078125 13.429688 L 5.382812 12.761719 L 1.035156 13.066406 L 5.363281 12.542969 L 1.007812 12.703125 L 5.347656 12.324219 L 0.992188 12.339844 L 5.34375 12.101562 L 0.988281 11.976562 L 5.34375 11.882812 L 0.996094 11.613281 L 5.351562 11.664062 L 1.011719 11.25 L 5.367188 11.445312 L 1.042969 10.890625 L 5.390625 11.226562 L 1.089844 10.527344 L 5.417969 11.007812 L 1.144531 10.167969 L 5.457031 10.792969 L 1.210938 9.8125 L 5.5 10.578125 L 1.289062 9.457031 L 5.550781 10.363281 L 1.378906 9.105469 L 5.609375 10.152344 L 1.480469 8.753906 L 5.675781 9.941406 L 1.59375 8.410156 L 5.746094 9.734375 L 1.71875 8.066406 L 5.824219 9.53125 L 1.855469 7.730469 L 5.910156 9.328125 L 2.003906 7.398438 L 6.003906 9.128906 L 2.160156 7.070312 L 6.101562 8.933594 L 2.332031 6.75 L 6.207031 8.738281 L 2.511719 6.433594 L 6.320312 8.550781 L 2.699219 6.121094 L 6.4375 8.363281 L 2.898438 5.820312 L 6.558594 8.183594 L 3.109375 5.523438 L 6.691406 8.007812 L 3.328125 5.230469 L 6.824219 7.832031 L 3.558594 4.949219 L 6.964844 7.664062 L 3.796875 4.675781 L 7.113281 7.503906 L 4.042969 4.410156 L 7.265625 7.34375 L 4.300781 4.148438 L 7.421875 7.191406 L 4.566406 3.902344 L 7.585938 7.042969 L 4.835938 3.660156 L 7.75 6.898438 L 5.117188 3.429688 L 7.921875 6.761719 L 5.40625 3.207031 L 8.097656 6.628906 L 5.699219 2.992188 L 8.277344 6.503906 L 6 2.789062 L 8.464844 6.386719 L 6.308594 2.597656 L 8.652344 6.273438 L 6.625 2.414062 L 8.84375 6.164062 L 6.945312 2.242188 L 9.039062 6.066406 L 7.269531 2.082031 L 9.238281 5.96875 L 7.601562 1.929688 L 9.4375 5.882812 L 7.9375 1.792969 L 9.644531 5.800781 L 8.277344 1.664062 L 9.847656 5.726562 L 8.621094 1.546875 L 10.058594 5.660156 L 8.96875 1.441406 L 10.269531 5.601562 L 9.320312 1.347656 L 10.484375 5.546875 L 9.675781 1.265625 L 10.699219 5.5 L 10.03125 1.195312 L 10.914062 5.460938 L 10.390625 1.136719 L 11.132812 5.429688 L 10.753906 1.089844 L 11.347656 5.40625 L 11.113281 1.054688 L 11.566406 5.390625 L 11.476562 1.03125 L 11.789062 5.378906 L 11.839844 1.023438 L 12.007812 5.375 L 12.203125 1.023438 L 12.226562 5.378906 L 12.566406 1.035156 L 12.445312 5.390625 L 12.929688 1.0625 L 12.664062 5.410156 L 13.292969 1.097656 L 12.882812 5.4375 L 13.652344 1.148438 L 13.101562 5.472656 L 14.011719 1.210938 L 13.316406 5.511719 L 14.367188 1.28125 L 13.53125 5.558594 L 14.722656 1.367188 L 13.742188 5.613281 L 15.070312 1.464844 L 13.953125 5.675781 L 15.417969 1.570312 L 14.164062 5.742188 L 15.761719 1.691406 L 14.367188 5.820312 L 16.101562 1.820312 L 14.570312 5.902344 L 16.4375 1.964844 L 14.773438 5.992188 L 16.765625 2.117188 L 14.96875 6.085938 L 17.089844 2.28125 L 15.164062 6.1875 L 17.410156 2.453125 L 15.355469 6.296875 L 17.722656 2.636719 L 15.542969 6.410156 L 18.03125 2.832031 L 15.726562 6.53125 L 18.332031 3.039062 L 15.90625 6.660156 L 18.625 3.253906 L 16.082031 6.792969 L 18.910156 3.476562 L 16.25 6.929688 L 19.1875 3.710938 L 16.417969 7.074219 L 19.460938 3.953125 L 16.578125 7.222656 L 19.722656 4.207031 L 16.734375 7.378906 L 19.976562 4.464844 L 16.886719 7.535156 L 20.222656 4.734375 L 17.03125 7.703125 L 20.457031 5.011719 L 17.171875 7.871094 L 20.683594 5.292969 L 17.304688 8.042969 L 20.902344 5.585938 L 17.433594 8.222656 L 21.109375 5.882812 L 17.554688 8.40625 L 21.308594 6.1875 L 17.671875 8.589844 L 21.496094 6.5 L 17.78125 8.78125 L 21.671875 6.820312 L 17.886719 8.976562 L 21.839844 7.140625 L 17.984375 9.171875 L 21.996094 7.46875 L 18.074219 9.371094 L 22.140625 7.804688 L 18.160156 9.574219 L 22.273438 8.140625 L 18.234375 9.78125 L 22.398438 8.484375 L 18.308594 9.988281 L 22.507812 8.832031 L 18.371094 10.199219 L 22.605469 9.179688 L 18.425781 10.410156 L 22.695312 9.53125 L 18.476562 10.625 L 22.773438 9.886719 L 18.519531 10.839844 L 22.835938 10.246094 L 18.554688 11.054688 L 22.890625 10.605469 L 18.582031 11.273438 L 22.929688 10.96875 L 18.605469 11.492188 L 22.957031 11.328125 L 18.617188 11.710938 L 22.976562 11.691406 L 18.625 11.929688 L 22.980469 12.058594 L 18.625 12.152344 L 22.972656 12.421875 L 18.613281 12.371094 L 22.953125 12.785156 L 18.601562 12.589844 L 22.921875 13.144531 L 18.578125 12.808594 L 22.878906 13.507812 L 18.546875 13.027344 L 22.824219 13.867188 L 18.511719 13.242188 L 22.757812 14.222656 L 18.464844 13.457031 L 22.675781 14.578125 L 18.414062 13.671875 L 22.585938 14.929688 L 18.355469 13.882812 L 22.484375 15.28125 L 18.292969 14.09375 L 22.371094 15.625 L 18.21875 14.300781 L 22.246094 15.964844 L 18.140625 14.503906 L 22.109375 16.304688 L 18.054688 14.707031 L 21.960938 16.636719 L 17.964844 14.90625 L 21.804688 16.964844 L 17.863281 15.101562 L 21.636719 17.285156 L 17.757812 15.296875 L 21.457031 17.601562 L 17.648438 15.484375 L 21.265625 17.914062 L 17.53125 15.667969 L 21.066406 18.214844 L 17.40625 15.851562 L 20.855469 18.511719 L 17.277344 16.027344 L 20.636719 18.800781 L 17.140625 16.203125 L 20.40625 19.085938 L 17 16.371094 L 20.167969 19.359375 L 16.851562 16.53125 L 19.921875 19.625 L 16.703125 16.691406 L 19.667969 19.882812 L 16.542969 16.84375 L 19.402344 20.132812 L 16.382812 16.992188 L 19.128906 20.375 L 16.214844 17.136719 L 18.847656 20.605469 L 16.042969 17.273438 L 18.5625 20.828125 L 15.867188 17.40625 L 18.265625 21.042969 L 15.6875 17.53125 L 17.964844 21.246094 Z M 15.503906 17.648438 "/>
<path style=" stroke:none;fill-rule:nonzero;fill:rgb(90.196079%,0.784314%,70.588237%);fill-opacity:1;" d="M 15.988281 17.316406 L 18.46875 20.898438 L 15.8125 17.445312 L 18.171875 21.105469 L 15.628906 17.566406 L 17.867188 21.304688 L 15.445312 17.683594 L 17.558594 21.496094 L 15.253906 17.796875 L 17.242188 21.675781 L 15.0625 17.902344 L 16.921875 21.84375 L 14.867188 18 L 16.59375 22 L 14.667969 18.09375 L 16.261719 22.148438 L 14.464844 18.179688 L 15.921875 22.285156 L 14.257812 18.257812 L 15.582031 22.410156 L 14.050781 18.328125 L 15.234375 22.523438 L 13.84375 18.394531 L 14.886719 22.625 L 13.628906 18.453125 L 14.535156 22.714844 L 13.417969 18.503906 L 14.179688 22.792969 L 13.203125 18.546875 L 13.820312 22.859375 L 12.984375 18.582031 L 13.460938 22.914062 L 12.765625 18.613281 L 13.101562 22.957031 L 12.550781 18.632812 L 12.738281 22.988281 L 12.328125 18.648438 L 12.375 23.007812 L 12.109375 18.65625 L 12.011719 23.015625 L 11.890625 18.65625 L 11.648438 23.007812 L 11.671875 18.652344 L 11.285156 22.992188 L 11.453125 18.636719 L 10.921875 22.960938 L 11.234375 18.617188 L 10.5625 22.921875 L 11.015625 18.589844 L 10.203125 22.867188 L 10.800781 18.550781 L 9.84375 22.804688 L 10.582031 18.507812 L 9.488281 22.726562 L 10.371094 18.460938 L 9.136719 22.640625 L 10.15625 18.402344 L 8.785156 22.539062 L 9.949219 18.339844 L 8.441406 22.425781 L 9.738281 18.269531 L 8.097656 22.304688 L 9.535156 18.191406 L 7.757812 22.171875 L 9.332031 18.105469 L 7.425781 22.023438 L 9.132812 18.015625 L 7.097656 21.867188 L 8.933594 17.917969 L 6.773438 21.703125 L 8.742188 17.8125 L 6.457031 21.523438 L 8.550781 17.703125 L 6.144531 21.335938 L 8.367188 17.585938 L 5.839844 21.136719 L 8.183594 17.464844 L 5.542969 20.929688 L 8.003906 17.335938 L 5.25 20.710938 L 7.832031 17.199219 L 4.96875 20.484375 L 7.664062 17.0625 L 4.691406 20.25 L 7.496094 16.914062 L 4.421875 20.003906 L 7.339844 16.765625 L 4.164062 19.75 L 7.183594 16.609375 L 3.914062 19.484375 L 7.035156 16.445312 L 3.667969 19.214844 L 6.890625 16.28125 L 3.4375 18.9375 L 6.753906 16.109375 L 3.210938 18.648438 L 6.621094 15.933594 L 2.996094 18.355469 L 6.492188 15.753906 L 2.792969 18.054688 L 6.375 15.570312 L 2.597656 17.75 L 6.257812 15.382812 L 2.414062 17.433594 L 6.152344 15.195312 L 2.238281 17.117188 L 6.050781 15 L 2.078125 16.792969 L 5.953125 14.800781 L 1.925781 16.460938 L 5.863281 14.601562 L 1.78125 16.125 L 5.78125 14.398438 L 1.652344 15.785156 L 5.707031 14.191406 L 1.535156 15.441406 L 5.640625 13.980469 L 1.425781 15.09375 L 5.578125 13.769531 L 1.332031 14.746094 L 5.523438 13.558594 L 1.246094 14.390625 L 5.476562 13.34375 L 1.171875 14.035156 L 5.433594 13.128906 L 1.113281 13.675781 L 5.402344 12.910156 L 1.0625 13.316406 L 5.375 12.691406 L 1.027344 12.953125 L 5.359375 12.472656 L 1 12.589844 L 5.347656 12.253906 L 0.988281 12.226562 L 5.34375 12.035156 L 0.988281 11.863281 L 5.34375 11.816406 L 1 11.5 L 5.355469 11.597656 L 1.023438 11.136719 L 5.371094 11.375 L 1.058594 10.777344 L 5.398438 11.160156 L 1.105469 10.414062 L 5.429688 10.941406 L 1.164062 10.054688 L 5.46875 10.726562 L 1.234375 9.699219 L 5.515625 10.511719 L 1.316406 9.347656 L 5.570312 10.296875 L 1.410156 8.996094 L 5.628906 10.085938 L 1.515625 8.648438 L 5.695312 9.878906 L 1.632812 8.300781 L 5.769531 9.671875 L 1.761719 7.960938 L 5.851562 9.464844 L 1.902344 7.625 L 5.9375 9.265625 L 2.050781 7.296875 L 6.035156 9.066406 L 2.214844 6.96875 L 6.132812 8.871094 L 2.386719 6.648438 L 6.242188 8.679688 L 2.570312 6.335938 L 6.355469 8.492188 L 2.761719 6.027344 L 6.472656 8.308594 L 2.964844 5.726562 L 6.601562 8.128906 L 3.179688 5.429688 L 6.730469 7.953125 L 3.402344 5.144531 L 6.867188 7.78125 L 3.632812 4.863281 L 7.011719 7.613281 L 3.875 4.589844 L 7.160156 7.453125 L 4.125 4.328125 L 7.3125 7.292969 L 4.382812 4.070312 L 7.472656 7.144531 L 4.648438 3.824219 L 7.636719 6.996094 L 4.925781 3.585938 L 7.804688 6.855469 L 5.207031 3.355469 L 7.976562 6.71875 L 5.496094 3.136719 L 8.15625 6.589844 L 5.792969 2.929688 L 8.335938 6.46875 L 6.097656 2.730469 L 8.523438 6.347656 L 6.40625 2.539062 L 8.710938 6.238281 L 6.722656 2.359375 L 8.902344 6.132812 L 7.046875 2.191406 L 9.101562 6.035156 L 7.375 2.035156 L 9.300781 5.941406 L 7.707031 1.886719 L 9.503906 5.855469 L 8.042969 1.75 L 9.707031 5.777344 L 8.386719 1.625 L 9.914062 5.707031 L 8.730469 1.511719 L 10.125 5.640625 L 9.082031 1.410156 L 10.335938 5.582031 L 9.433594 1.320312 L 10.550781 5.53125 L 9.789062 1.242188 L 10.765625 5.488281 L 10.144531 1.175781 L 10.980469 5.453125 L 10.503906 1.121094 L 11.199219 5.421875 L 10.867188 1.078125 L 11.417969 5.398438 L 11.226562 1.046875 L 11.636719 5.386719 L 11.589844 1.027344 L 11.855469 5.378906 L 11.953125 1.019531 L 12.074219 5.375 L 12.316406 1.027344 L 12.296875 5.382812 L 12.679688 1.042969 L 12.515625 5.398438 L 13.042969 1.074219 L 12.734375 5.417969 L 13.40625 1.113281 L 12.949219 5.445312 L 13.765625 1.167969 L 13.167969 5.484375 L 14.121094 1.230469 L 13.382812 5.523438 L 14.476562 1.308594 L 13.597656 5.574219 L 14.832031 1.394531 L 13.808594 5.632812 L 15.179688 1.496094 L 14.019531 5.695312 L 15.527344 1.609375 L 14.226562 5.765625 L 15.867188 1.730469 L 14.433594 5.84375 L 16.207031 1.863281 L 14.636719 5.929688 L 16.539062 2.007812 L 14.835938 6.019531 L 16.867188 2.164062 L 15.03125 6.117188 L 17.191406 2.332031 L 15.226562 6.222656 L 17.507812 2.511719 L 15.414062 6.332031 L 17.820312 2.699219 L 15.601562 6.449219 L 18.125 2.894531 L 15.785156 6.570312 L 18.421875 3.105469 L 15.960938 6.699219 L 18.714844 3.320312 L 16.136719 6.832031 L 19 3.550781 L 16.304688 6.972656 L 19.273438 3.785156 L 16.46875 7.121094 L 19.542969 4.03125 L 16.628906 7.269531 L 19.804688 4.285156 L 16.78125 7.425781 L 20.054688 4.546875 L 16.929688 7.589844 L 20.296875 4.820312 L 17.074219 7.753906 L 20.53125 5.097656 L 17.214844 7.925781 L 20.753906 5.386719 L 17.347656 8.101562 L 20.96875 5.679688 L 17.472656 8.277344 L 21.171875 5.980469 L 17.59375 8.460938 L 21.367188 6.285156 L 17.707031 8.648438 L 21.550781 6.601562 L 17.816406 8.839844 L 21.726562 6.917969 L 17.917969 9.035156 L 21.890625 7.242188 L 18.011719 9.234375 L 22.042969 7.574219 L 18.101562 9.433594 L 22.183594 7.910156 L 18.183594 9.636719 L 22.3125 8.25 L 18.257812 9.84375 L 22.433594 8.59375 L 18.328125 10.054688 L 22.539062 8.941406 L 18.390625 10.265625 L 22.636719 9.289062 L 18.445312 10.476562 L 22.71875 9.644531 L 18.492188 10.691406 L 22.792969 10 L 18.53125 10.90625 L 22.855469 10.359375 L 18.5625 11.125 L 22.902344 10.71875 L 18.589844 11.34375 L 22.941406 11.082031 L 18.609375 11.5625 L 22.964844 11.445312 L 18.621094 11.78125 L 22.976562 11.808594 L 18.625 12 L 22.980469 12.171875 L 18.621094 12.21875 L 22.96875 12.535156 L 18.609375 12.4375 L 22.945312 12.898438 L 18.59375 12.65625 L 22.910156 13.257812 L 18.570312 12.875 L 22.863281 13.621094 L 18.535156 13.09375 L 22.804688 13.976562 L 18.496094 13.308594 L 22.734375 14.335938 L 18.453125 13.523438 L 22.648438 14.6875 L 18.398438 13.738281 L 22.554688 15.039062 L 18.335938 13.949219 L 22.449219 15.386719 L 18.269531 14.15625 L 22.332031 15.734375 L 18.195312 14.363281 L 22.203125 16.074219 L 18.113281 14.570312 L 22.066406 16.410156 L 18.027344 14.769531 L 21.914062 16.738281 L 17.933594 14.96875 L 21.753906 17.066406 L 17.832031 15.164062 L 21.582031 17.386719 L 17.726562 15.355469 L 21.398438 17.699219 L 17.613281 15.542969 L 21.203125 18.007812 L 17.492188 15.726562 L 21 18.308594 L 17.367188 15.90625 L 20.789062 18.605469 L 17.234375 16.082031 L 20.566406 18.890625 L 17.097656 16.253906 L 20.335938 19.171875 L 16.953125 16.421875 L 20.09375 19.445312 L 16.804688 16.582031 L 19.84375 19.707031 L 16.652344 16.738281 L 19.585938 19.964844 L 16.492188 16.890625 L 19.316406 20.210938 L 16.332031 17.039062 L 19.042969 20.449219 L 16.160156 17.179688 L 18.761719 20.675781 Z M 15.988281 17.316406 "/>
<path style=" stroke:none;fill-rule:nonzero;fill:rgb(90.196079%,0.784314%,70.588237%);fill-opacity:1;" d="M 19.109375 12.015625 C 19.109375 15.953125 15.917969 19.140625 11.984375 19.140625 C 8.046875 19.140625 4.859375 15.953125 4.859375 12.015625 C 4.859375 8.082031 8.046875 4.890625 11.984375 4.890625 C 15.917969 4.890625 19.109375 8.082031 19.109375 12.015625 Z M 19.109375 12.015625 "/>
</g>
</svg>
