<?xml version="1.0" encoding="UTF-8"?>
<svg xmlns="http://www.w3.org/2000/svg" xmlns:xlink="http://www.w3.org/1999/xlink" width="24px" height="24px" viewBox="0 0 24 24" version="1.1">
<g id="surface1">
<path style=" stroke:none;fill-rule:nonzero;fill:rgb(90.196079%,0.784314%,70.588237%);fill-opacity:1;" d="M 1.5 2.214844 L 1.5 21.785156 C 1.5 22.179688 1.871094 22.5 2.332031 22.5 L 21.667969 22.5 C 22.128906 22.5 22.5 22.179688 22.5 21.785156 L 22.5 2.214844 C 22.5 1.820312 22.128906 1.5 21.667969 1.5 L 2.332031 1.5 C 1.871094 1.5 1.5 1.820312 1.5 2.214844 Z M 1.5 2.214844 "/>
<path style=" stroke:none;fill-rule:evenodd;fill:rgb(94.117647%,89.019608%,92.54902%);fill-opacity:1;" d="M 3 4.125 L 3 19.875 C 3 20.496094 3.503906 21 4.125 21 L 19.875 21 C 20.496094 21 21 20.496094 21 19.875 L 21 4.125 C 21 3.503906 20.496094 3 19.875 3 L 4.125 3 C 3.503906 3 3 3.503906 3 4.125 Z M 3 4.125 "/>
<path style=" stroke:none;fill-rule:nonzero;fill:rgb(61.56863%,22.745098%,60.784316%);fill-opacity:1;" d="M 15.183594 7.757812 L 12 10.9375 L 8.816406 7.757812 C 7.34375 7.015625 7.109375 7.484375 7.757812 8.816406 L 10.9375 12 L 7.757812 15.183594 C 6.832031 17.070312 7.894531 16.570312 8.816406 16.242188 L 12 13.0625 L 15.183594 16.242188 L 16.242188 15.183594 L 13.0625 12 L 16.242188 8.816406 Z M 15.183594 7.757812 "/>
<path style="fill-rule:evenodd;fill:rgb(94.117647%,89.019608%,92.54902%);fill-opacity:1;stroke-width:3.20664;stroke-linecap:round;stroke-linejoin:round;stroke:rgb(94.117647%,89.019608%,92.54902%);stroke-opacity:1;stroke-miterlimit:4;" d="M 15.943358 8.512299 L 20.076814 8.512299 C 21.391253 8.512299 22.457685 9.59622 22.457685 10.941632 L 22.457685 20.072717 C 22.457685 21.413911 21.391253 22.50205 20.076814 22.50205 L 15.943358 22.50205 C 14.628919 22.50205 13.562487 21.413911 13.562487 20.072717 L 13.562487 10.941632 C 13.562487 9.59622 14.628919 8.512299 15.943358 8.512299 Z M 15.943358 8.512299 " transform="matrix(0.945032,0,0,0.92618,-0.461521,0.0965454)"/>
<path style="fill-rule:evenodd;fill:rgb(94.117647%,89.019608%,92.54902%);fill-opacity:1;stroke-width:3.20664;stroke-linecap:round;stroke-linejoin:round;stroke:rgb(94.117647%,89.019608%,92.54902%);stroke-opacity:1;stroke-miterlimit:4;" d="M 17.881949 11.498354 L 18.117556 11.498354 C 19.431995 11.498354 20.498427 12.586492 20.498427 13.927686 L 20.498427 18.069361 C 20.498427 19.410555 19.431995 20.498694 18.117556 20.498694 L 17.881949 20.498694 C 16.56751 20.498694 15.501078 19.410555 15.501078 18.069361 L 15.501078 13.927686 C 15.501078 12.586492 16.56751 11.498354 17.881949 11.498354 Z M 17.881949 11.498354 " transform="matrix(0.945032,0,0,0.92618,-0.461521,0.0965454)"/>
<path style="fill-rule:evenodd;fill:rgb(94.117647%,89.019608%,92.54902%);fill-opacity:1;stroke-width:3.20664;stroke-linecap:round;stroke-linejoin:round;stroke:rgb(94.117647%,89.019608%,92.54902%);stroke-opacity:1;stroke-miterlimit:4;" d="M 18.419298 14.184959 C 18.419298 14.412709 18.237426 14.598283 18.005953 14.598283 C 17.778613 14.598283 17.588474 14.416927 17.588474 14.189177 C 17.58434 13.965645 17.766212 13.780071 17.997686 13.775853 C 18.225026 13.771635 18.415165 13.948774 18.419298 14.176524 L 18.001819 14.184959 Z M 18.419298 14.184959 " transform="matrix(0.945032,0,0,0.92618,-0.461521,0.0965454)"/>
<path style="fill:none;stroke-width:3.20664;stroke-linecap:round;stroke-linejoin:round;stroke:rgb(94.117647%,89.019608%,92.54902%);stroke-opacity:1;stroke-miterlimit:4;" d="M 17.948084 16.901088 L 17.948084 19.423208 " transform="matrix(0.945032,0,0,0.92618,-0.461521,0.0965454)"/>
<path style="fill-rule:evenodd;fill:rgb(94.117647%,89.019608%,92.54902%);fill-opacity:1;stroke-width:1.60332;stroke-linecap:round;stroke-linejoin:round;stroke:rgb(90.196079%,0.784314%,70.588237%);stroke-opacity:1;stroke-miterlimit:4;" d="M 15.943358 8.512299 L 20.076814 8.512299 C 21.391253 8.512299 22.457685 9.59622 22.457685 10.941632 L 22.457685 20.072717 C 22.457685 21.413911 21.391253 22.50205 20.076814 22.50205 L 15.943358 22.50205 C 14.628919 22.50205 13.562487 21.413911 13.562487 20.072717 L 13.562487 10.941632 C 13.562487 9.59622 14.628919 8.512299 15.943358 8.512299 Z M 15.943358 8.512299 " transform="matrix(0.945032,0,0,0.92618,-0.461521,0.0965454)"/>
<path style="fill-rule:evenodd;fill:rgb(95.294118%,71.764708%,85.09804%);fill-opacity:1;stroke-width:1.60332;stroke-linecap:round;stroke-linejoin:round;stroke:rgb(90.196079%,0.784314%,70.588237%);stroke-opacity:1;stroke-miterlimit:4;" d="M 17.881949 11.498354 L 18.117556 11.498354 C 19.431995 11.498354 20.498427 12.586492 20.498427 13.927686 L 20.498427 18.069361 C 20.498427 19.410555 19.431995 20.498694 18.117556 20.498694 L 17.881949 20.498694 C 16.56751 20.498694 15.501078 19.410555 15.501078 18.069361 L 15.501078 13.927686 C 15.501078 12.586492 16.56751 11.498354 17.881949 11.498354 Z M 17.881949 11.498354 " transform="matrix(0.945032,0,0,0.92618,-0.461521,0.0965454)"/>
<path style="fill:none;stroke-width:1.60332;stroke-linecap:round;stroke-linejoin:round;stroke:rgb(61.56863%,22.745098%,60.784316%);stroke-opacity:1;stroke-miterlimit:4;" d="M 18.419298 14.184959 C 18.419298 14.412709 18.237426 14.598283 18.005953 14.598283 C 17.778613 14.598283 17.588474 14.416927 17.588474 14.189177 C 17.58434 13.965645 17.766212 13.780071 17.997686 13.775853 C 18.225026 13.771635 18.415165 13.948774 18.419298 14.176524 L 18.001819 14.184959 Z M 18.419298 14.184959 " transform="matrix(0.945032,0,0,0.92618,-0.461521,0.0965454)"/>
<path style="fill:none;stroke-width:1.60332;stroke-linecap:round;stroke-linejoin:round;stroke:rgb(90.196079%,0.784314%,70.588237%);stroke-opacity:1;stroke-miterlimit:4;" d="M 17.948084 16.901088 L 17.948084 19.423208 " transform="matrix(0.945032,0,0,0.92618,-0.461521,0.0965454)"/>
</g>
</svg>
