<?xml version="1.0" encoding="UTF-8"?>
<svg xmlns="http://www.w3.org/2000/svg" xmlns:xlink="http://www.w3.org/1999/xlink" width="24px" height="24px" viewBox="0 0 24 24" version="1.1">
<g id="surface1">
<path style=" stroke:none;fill-rule:nonzero;fill:rgb(90.196079%,0.784314%,70.588237%);fill-opacity:1;" d="M 3 3 L 21 3 C 21.828125 3 22.5 3.671875 22.5 4.5 L 22.5 19.5 C 22.5 20.328125 21.828125 21 21 21 L 3 21 C 2.171875 21 1.5 20.328125 1.5 19.5 L 1.5 4.5 C 1.5 3.671875 2.171875 3 3 3 Z M 3 3 "/>
<path style=" stroke:none;fill-rule:nonzero;fill:rgb(94.117647%,89.019608%,92.54902%);fill-opacity:1;" d="M 4.5 4.5 L 19.5 4.5 C 20.328125 4.5 21 5.171875 21 6 L 21 18 C 21 18.828125 20.328125 19.5 19.5 19.5 L 4.5 19.5 C 3.671875 19.5 3 18.828125 3 18 L 3 6 C 3 5.171875 3.671875 4.5 4.5 4.5 Z M 4.5 4.5 "/>
<path style=" stroke:none;fill-rule:nonzero;fill:rgb(61.56863%,22.745098%,60.784316%);fill-opacity:1;" d="M 8.351562 4.703125 C 6.511719 4.707031 4.691406 5.113281 3.019531 5.890625 C 3.019531 5.929688 3 5.960938 3 6 L 3 18 C 3 18.832031 3.667969 19.5 4.5 19.5 L 19.5 19.5 C 20.332031 19.5 21 18.832031 21 18 L 21 16.355469 C 20.457031 9.773438 14.957031 4.707031 8.351562 4.703125 Z M 8.351562 4.703125 "/>
<path style=" stroke:none;fill-rule:nonzero;fill:rgb(95.294118%,71.764708%,85.09804%);fill-opacity:1;" d="M 8.351562 7.957031 C 6.441406 7.960938 4.574219 8.546875 3 9.632812 L 3 18 C 3 18.832031 3.667969 19.5 4.5 19.5 L 17.550781 19.5 C 17.710938 18.8125 17.792969 18.109375 17.796875 17.402344 C 17.796875 12.1875 13.570312 7.957031 8.351562 7.957031 Z M 8.351562 7.957031 "/>
<path style=" stroke:none;fill-rule:nonzero;fill:rgb(95.294118%,71.764708%,85.09804%);fill-opacity:1;" d="M 21 7.378906 C 18.277344 8.007812 16.351562 10.429688 16.347656 13.222656 C 16.351562 15.871094 18.089844 18.203125 20.625 18.964844 C 20.847656 18.703125 21 18.375 21 18 Z M 21 7.378906 "/>
<path style=" stroke:none;fill-rule:nonzero;fill:rgb(94.117647%,89.019608%,92.54902%);fill-opacity:1;" d="M 20.488281 12 C 16.101562 12.003906 12.359375 15.175781 11.628906 19.5 L 19.5 19.5 C 20.332031 19.5 21 18.832031 21 18 L 21 12.027344 C 20.832031 12.011719 20.660156 12.003906 20.488281 12 Z M 20.488281 12 "/>
</g>
</svg>
