<?xml version="1.0" encoding="UTF-8"?>
<svg xmlns="http://www.w3.org/2000/svg" xmlns:xlink="http://www.w3.org/1999/xlink" width="24px" height="24px" viewBox="0 0 24 24" version="1.1">
<g id="surface1">
<path style=" stroke:none;fill-rule:nonzero;fill:rgb(90.196079%,0.784314%,70.588237%);fill-opacity:1;" d="M 3.714844 21 L 20.285156 21 C 20.679688 21 21 20.628906 21 20.167969 L 21 3.832031 C 21 3.371094 20.679688 3 20.285156 3 L 3.714844 3 C 3.320312 3 3 3.371094 3 3.832031 L 3 20.167969 C 3 20.628906 3.320312 21 3.714844 21 Z M 3.714844 21 "/>
<path style=" stroke:none;fill-rule:evenodd;fill:rgb(94.117647%,89.019608%,92.54902%);fill-opacity:1;" d="M 5.625 19.5 L 18.375 19.5 C 18.996094 19.5 19.5 18.996094 19.5 18.375 L 19.5 5.625 C 19.5 5.003906 18.996094 4.5 18.375 4.5 L 5.625 4.5 C 5.003906 4.5 4.5 5.003906 4.5 5.625 L 4.5 18.375 C 4.5 18.996094 5.003906 19.5 5.625 19.5 Z M 5.625 19.5 "/>
<path style="fill-rule:nonzero;fill:rgb(61.56863%,22.745098%,60.784316%);fill-opacity:1;stroke-width:1;stroke-linecap:round;stroke-linejoin:miter;stroke:rgb(61.56863%,22.745098%,60.784316%);stroke-opacity:1;stroke-miterlimit:4;" d="M -13.5 5.5 L -9.5 9.5 " transform="matrix(0.000000000000000092,-1.5,1.5,0.000000000000000092,0,-6)"/>
<path style="fill-rule:nonzero;fill:rgb(61.56863%,22.745098%,60.784316%);fill-opacity:1;stroke-width:1;stroke-linecap:round;stroke-linejoin:miter;stroke:rgb(61.56863%,22.745098%,60.784316%);stroke-opacity:1;stroke-miterlimit:4;" d="M -13.5 9.5 L -9.5 5.5 " transform="matrix(0.000000000000000092,-1.5,1.5,0.000000000000000092,0,-6)"/>
<path style="fill:none;stroke-width:1;stroke-linecap:round;stroke-linejoin:miter;stroke:rgb(61.56863%,22.745098%,60.784316%);stroke-opacity:1;stroke-miterlimit:4;" d="M -11.5 8 L -11.5 14.5 " transform="matrix(0.000000000000000092,-1.5,1.5,0.000000000000000092,0,-6)"/>
</g>
</svg>
