<?xml version="1.0" encoding="UTF-8"?>
<svg xmlns="http://www.w3.org/2000/svg" xmlns:xlink="http://www.w3.org/1999/xlink" width="24px" height="24px" viewBox="0 0 24 24" version="1.1">
<g id="surface1">
<path style=" stroke:none;fill-rule:nonzero;fill:rgb(90.196079%,0.784314%,70.588237%);fill-opacity:1;" d="M 9 18 L 9 16.5 C 9 15.671875 9.671875 15 10.5 15 L 13.5 15 C 14.328125 15 15 15.671875 15 16.5 L 15 18 C 15 18.828125 14.328125 19.5 13.5 19.5 L 10.5 19.5 C 9.671875 19.5 9 18.828125 9 18 Z M 9 18 "/>
<path style="fill-rule:nonzero;fill:rgb(95.294118%,71.764708%,85.09804%);fill-opacity:1;stroke-width:1;stroke-linecap:round;stroke-linejoin:round;stroke:rgb(90.196079%,0.784314%,70.588237%);stroke-opacity:1;stroke-miterlimit:4;" d="M -6.518229 1.5 L -3.481771 1.5 C -2.940104 1.5 -2.5 1.940104 -2.5 2.481771 L -2.5 13.518229 C -2.5 14.059896 -2.940104 14.5 -3.481771 14.5 L -6.518229 14.5 C -7.059896 14.5 -7.5 14.059896 -7.5 13.518229 L -7.5 2.481771 C -7.5 1.940104 -7.059896 1.5 -6.518229 1.5 Z M -6.518229 1.5 " transform="matrix(0.000000000000000092,-1.5,1.5,0.000000000000000092,0,0)"/>
<path style=" stroke:none;fill-rule:nonzero;fill:rgb(94.117647%,89.019608%,92.54902%);fill-opacity:1;" d="M 3 10.5 L 3 4.5 L 21 4.5 L 21 10.5 Z M 3 10.5 "/>
<path style=" stroke:none;fill-rule:nonzero;fill:rgb(95.294118%,71.764708%,85.09804%);fill-opacity:1;" d="M 10.5 17.851562 L 10.5 16.648438 C 10.5 16.566406 10.566406 16.5 10.648438 16.5 L 13.351562 16.5 C 13.433594 16.5 13.5 16.566406 13.5 16.648438 L 13.5 17.851562 C 13.5 17.933594 13.433594 18 13.351562 18 L 10.648438 18 C 10.566406 18 10.5 17.933594 10.5 17.851562 Z M 10.5 17.851562 "/>
<path style="fill:none;stroke-width:1;stroke-linecap:round;stroke-linejoin:round;stroke:rgb(90.196079%,0.784314%,70.588237%);stroke-opacity:1;stroke-miterlimit:4;" d="M 10 11.5 L 14.5 11.5 " transform="matrix(1.5,0,0,1.5,0,0)"/>
<path style="fill:none;stroke-width:1;stroke-linecap:round;stroke-linejoin:round;stroke:rgb(90.196079%,0.784314%,70.588237%);stroke-opacity:1;stroke-miterlimit:4;" d="M 12.5 9.5 L 14.5 11.5 L 12.5 13.5 " transform="matrix(1.5,0,0,1.5,0,0)"/>
<path style="fill:none;stroke-width:1;stroke-linecap:round;stroke-linejoin:round;stroke:rgb(90.196079%,0.784314%,70.588237%);stroke-opacity:1;stroke-miterlimit:4;" d="M 6 11.5 L 1.5 11.5 " transform="matrix(1.5,0,0,1.5,0,0)"/>
<path style="fill:none;stroke-width:1;stroke-linecap:round;stroke-linejoin:round;stroke:rgb(90.196079%,0.784314%,70.588237%);stroke-opacity:1;stroke-miterlimit:4;" d="M 3.5 9.5 L 1.5 11.5 L 3.5 13.5 " transform="matrix(1.5,0,0,1.5,0,0)"/>
</g>
</svg>
