<?xml version="1.0" encoding="UTF-8"?>
<svg xmlns="http://www.w3.org/2000/svg" xmlns:xlink="http://www.w3.org/1999/xlink" width="24px" height="24px" viewBox="0 0 24 24" version="1.1">
<g id="surface1">
<path style=" stroke:none;fill-rule:nonzero;fill:rgb(90.196079%,0.784314%,70.588237%);fill-opacity:1;" d="M 21 20.285156 L 21 3.714844 C 21 3.320312 20.628906 3 20.167969 3 L 3.832031 3 C 3.371094 3 3 3.320312 3 3.714844 L 3 20.285156 C 3 20.679688 3.371094 21 3.832031 21 L 20.167969 21 C 20.628906 21 21 20.679688 21 20.285156 Z M 21 20.285156 "/>
<path style=" stroke:none;fill-rule:evenodd;fill:rgb(94.117647%,89.019608%,92.54902%);fill-opacity:1;" d="M 19.5 18.375 L 19.5 5.625 C 19.5 5.003906 18.996094 4.5 18.375 4.5 L 5.625 4.5 C 5.003906 4.5 4.5 5.003906 4.5 5.625 L 4.5 18.375 C 4.5 18.996094 5.003906 19.5 5.625 19.5 L 18.375 19.5 C 18.996094 19.5 19.5 18.996094 19.5 18.375 Z M 19.5 18.375 "/>
<path style=" stroke:none;fill-rule:nonzero;fill:rgb(90.196079%,0.784314%,70.588237%);fill-opacity:1;" d="M 9.757812 8.429688 C 10.128906 8.429688 10.429688 8.757812 10.429688 9.167969 L 10.429688 16.53125 L 17.175781 16.53125 C 17.175781 16.53125 17.179688 16.53125 17.179688 16.53125 L 17.179688 15.792969 C 17.179688 15.488281 17.40625 15.242188 17.6875 15.242188 L 20.382812 15.242188 C 20.664062 15.242188 20.890625 15.488281 20.890625 15.792969 L 20.890625 18.738281 C 20.890625 19.042969 20.664062 19.289062 20.382812 19.289062 L 17.6875 19.289062 C 17.40625 19.289062 17.179688 19.042969 17.179688 18.738281 L 17.179688 18 C 17.179688 18 17.175781 18 17.175781 18 L 9.757812 18 C 9.664062 18 9.574219 17.980469 9.492188 17.945312 C 9.25 17.832031 9.082031 17.570312 9.082031 17.265625 L 9.082031 9.167969 C 9.082031 8.757812 9.382812 8.429688 9.757812 8.429688 Z M 9.757812 8.429688 "/>
<path style="fill:none;stroke-width:1.220553;stroke-linecap:round;stroke-linejoin:miter;stroke:rgb(61.56863%,22.745098%,60.784316%);stroke-opacity:1;stroke-miterlimit:4;" d="M 5.501501 5.500761 L 10.49999 10.501563 " transform="matrix(0.000000000000000076,-1.239437,1.218554,0.000000000000000075,0.086086,19.592201)"/>
<path style="fill:none;stroke-width:1.220553;stroke-linecap:round;stroke-linejoin:miter;stroke:rgb(61.56863%,22.745098%,60.784316%);stroke-opacity:1;stroke-miterlimit:4;" d="M 10.49999 5.500761 L 5.501501 10.501563 " transform="matrix(0.000000000000000076,-1.239437,1.218554,0.000000000000000075,0.086086,19.592201)"/>
</g>
</svg>
