<?xml version="1.0" encoding="UTF-8"?>
<svg xmlns="http://www.w3.org/2000/svg" xmlns:xlink="http://www.w3.org/1999/xlink" width="24px" height="24px" viewBox="0 0 24 24" version="1.1">
<defs>
<clipPath id="clip1">
  <path d="M 2 2 L 11 2 L 11 8 L 2 8 Z M 2 2 "/>
</clipPath>
<clipPath id="clip2">
  <path d="M 1.386719 7.929688 L 21.667969 7.929688 C 21.746094 7.929688 21.808594 7.859375 21.808594 7.777344 L 21.808594 -0.277344 C 21.808594 -0.363281 21.746094 -0.429688 21.667969 -0.429688 L 1.386719 -0.429688 C 1.308594 -0.429688 1.246094 -0.363281 1.246094 -0.277344 L 1.246094 7.777344 C 1.246094 7.859375 1.308594 7.929688 1.386719 7.929688 Z M 1.386719 7.929688 "/>
</clipPath>
<clipPath id="clip3">
  <path d="M 1 1 L 11 1 L 11 8 L 1 8 Z M 1 1 "/>
</clipPath>
<clipPath id="clip4">
  <path d="M 1.386719 7.929688 L 21.667969 7.929688 C 21.746094 7.929688 21.808594 7.859375 21.808594 7.777344 L 21.808594 -0.277344 C 21.808594 -0.363281 21.746094 -0.429688 21.667969 -0.429688 L 1.386719 -0.429688 C 1.308594 -0.429688 1.246094 -0.363281 1.246094 -0.277344 L 1.246094 7.777344 C 1.246094 7.859375 1.308594 7.929688 1.386719 7.929688 Z M 1.386719 7.929688 "/>
</clipPath>
</defs>
<g id="surface1">
<path style="fill-rule:evenodd;fill:rgb(95.294118%,71.764708%,85.09804%);fill-opacity:1;stroke-width:1;stroke-linecap:round;stroke-linejoin:round;stroke:rgb(90.196079%,0.784314%,70.588237%);stroke-opacity:1;stroke-miterlimit:4;" d="M 3.471354 3.5 L 12.565104 3.5 C 13.632812 3.5 14.5 4.484375 14.5 5.700521 L 14.5 12.229167 C 14.5 13.445312 13.632812 14.429688 12.565104 14.429688 L 3.471354 14.429688 C 2.403646 14.429688 1.539062 13.445312 1.539062 12.229167 L 1.539062 5.700521 C 1.539062 4.484375 2.403646 3.5 3.471354 3.5 Z M 3.471354 3.5 " transform="matrix(1.5,0,0,1.5,0,0)"/>
<g clip-path="url(#clip1)" clip-rule="nonzero">
<g clip-path="url(#clip2)" clip-rule="nonzero">
<path style=" stroke:none;fill-rule:evenodd;fill:rgb(95.294118%,71.764708%,85.09804%);fill-opacity:1;" d="M 4.507812 2.351562 L 7.910156 2.351562 C 9.121094 2.351562 10.105469 3.484375 10.105469 4.882812 L 10.105469 7.210938 C 10.105469 8.609375 9.121094 9.742188 7.910156 9.742188 L 4.507812 9.742188 C 3.296875 9.742188 2.3125 8.609375 2.3125 7.210938 L 2.3125 4.882812 C 2.3125 3.484375 3.296875 2.351562 4.507812 2.351562 Z M 4.507812 2.351562 "/>
</g>
</g>
<g clip-path="url(#clip3)" clip-rule="nonzero">
<g clip-path="url(#clip4)" clip-rule="nonzero">
<path style="fill:none;stroke-width:1.475344;stroke-linecap:round;stroke-linejoin:round;stroke:rgb(90.196079%,0.784314%,70.588237%);stroke-opacity:1;stroke-miterlimit:4;" d="M 4.313941 2.216739 L 7.806935 2.216739 C 9.050137 2.216739 10.060739 3.284176 10.060739 4.601909 L 10.060739 6.795676 C 10.060739 8.113409 9.050137 9.180846 7.806935 9.180846 L 4.313941 9.180846 C 3.07074 9.180846 2.060137 8.113409 2.060137 6.795676 L 2.060137 4.601909 C 2.060137 3.284176 3.07074 2.216739 4.313941 2.216739 Z M 4.313941 2.216739 " transform="matrix(0.974048,0,0,1.061245,0.305828,-0.00094107)"/>
</g>
</g>
<path style=" stroke:none;fill-rule:evenodd;fill:rgb(95.294118%,71.764708%,85.09804%);fill-opacity:1;" d="M 8.308594 6.023438 L 12.488281 6.023438 L 12.488281 9.101562 L 8.308594 9.101562 Z M 8.308594 6.023438 "/>
<path style="fill-rule:evenodd;fill:rgb(95.294118%,71.764708%,85.09804%);fill-opacity:1;stroke-width:1;stroke-linecap:round;stroke-linejoin:round;stroke:rgb(90.196079%,0.784314%,70.588237%);stroke-opacity:1;stroke-miterlimit:4;" d="M 3.5 6.799479 L 12.526042 6.799479 C 13.59375 6.799479 14.460938 7.783854 14.460938 9 L 14.460938 12.3125 C 14.460938 13.528646 13.59375 14.515625 12.526042 14.515625 L 3.5 14.515625 C 2.432292 14.515625 1.565104 13.528646 1.565104 12.3125 L 1.565104 9 C 1.565104 7.783854 2.432292 6.799479 3.5 6.799479 Z M 3.5 6.799479 " transform="matrix(1.5,0,0,1.5,0,0)"/>
<path style="fill:none;stroke-width:1;stroke-linecap:butt;stroke-linejoin:miter;stroke:rgb(61.56863%,22.745098%,60.784316%);stroke-opacity:1;stroke-miterlimit:4;" d="M 1.864583 11.460938 L 14.190104 11.460938 " transform="matrix(1.5,0,0,1.5,0,0)"/>
<path style="fill:none;stroke-width:1;stroke-linecap:butt;stroke-linejoin:miter;stroke:rgb(61.56863%,22.745098%,60.784316%);stroke-opacity:1;stroke-miterlimit:4;" d="M 1.846354 12.664062 L 14.190104 12.664062 " transform="matrix(1.5,0,0,1.5,0,0)"/>
<path style="fill-rule:nonzero;fill:rgb(94.117647%,89.019608%,92.54902%);fill-opacity:1;stroke-width:0.244399;stroke-linecap:round;stroke-linejoin:round;stroke:rgb(61.56863%,22.745098%,60.784316%);stroke-opacity:1;stroke-miterlimit:4;" d="M 3.570312 6.960938 L 10.8125 6.960938 C 11.299479 6.960938 11.690104 7.354167 11.690104 7.838542 L 11.690104 13.552083 C 11.690104 14.036458 11.299479 14.429688 10.8125 14.429688 L 3.570312 14.429688 C 3.083333 14.429688 2.690104 14.036458 2.690104 13.552083 L 2.690104 7.838542 C 2.690104 7.354167 3.083333 6.960938 3.570312 6.960938 Z M 3.570312 6.960938 " transform="matrix(1.5,0,0,1.5,0,0)"/>
<path style="fill:none;stroke-width:0.5;stroke-linecap:butt;stroke-linejoin:miter;stroke:rgb(61.56863%,22.745098%,60.784316%);stroke-opacity:1;stroke-miterlimit:4;" d="M 5.690104 10.960938 C 6.515625 11.953125 7.026042 12.953125 7.190104 13.960938 C 7.190104 13.960938 7.690104 12.460938 8.690104 12.460938 " transform="matrix(1.5,0,0,1.5,0,0)"/>
<path style="fill-rule:nonzero;fill:rgb(90.196079%,0.784314%,70.588237%);fill-opacity:1;stroke-width:2.392385;stroke-linecap:butt;stroke-linejoin:miter;stroke:rgb(90.196079%,0.784314%,70.588237%);stroke-opacity:1;stroke-miterlimit:4;" d="M -1.071641 15.471553 C -2.7972 16.166488 -3.249284 14.087779 -3.249284 14.087779 C -3.249284 14.087779 -4.166186 16.34327 -5.681621 15.014359 C -7.197056 13.679352 -4.968475 12.612566 -4.968475 12.612566 C -4.968475 12.612566 -7.534527 12.411401 -6.643095 10.698447 C -5.751662 8.979397 -4.026103 10.594816 -4.026103 10.594816 C -4.026103 10.594816 -4.732882 8.266174 -2.631648 8.491723 C -0.524047 8.711176 -1.721114 10.826461 -1.721114 10.826461 C -1.721114 10.826461 0.456529 9.704811 0.819469 11.442149 C 1.176042 13.179487 -1.237193 12.984417 -1.237193 12.984417 C -1.237193 12.984417 0.653917 14.782714 -1.071641 15.471553 Z M -1.071641 15.471553 " transform="matrix(0.613479,0,0,0.640797,9.977742,6.242121)"/>
<path style="fill-rule:nonzero;fill:rgb(95.294118%,71.764708%,85.09804%);fill-opacity:1;stroke-width:2.392385;stroke-linecap:butt;stroke-linejoin:miter;stroke:rgb(95.294118%,71.764708%,85.09804%);stroke-opacity:1;stroke-miterlimit:4;" d="M -1.912135 13.965861 C -2.879976 14.355999 -3.134671 13.191679 -3.134671 13.191679 C -3.134671 13.191679 -3.650428 14.453534 -4.497289 13.709832 C -5.34415 12.960033 -4.096145 12.362633 -4.096145 12.362633 C -4.096145 12.362633 -5.535171 12.252907 -5.038516 11.289751 C -4.535493 10.326595 -3.57402 11.234888 -3.57402 11.234888 C -3.57402 11.234888 -3.968797 9.930361 -2.790833 10.052279 C -1.606501 10.174197 -2.281443 11.362902 -2.281443 11.362902 C -2.281443 11.362902 -1.058907 10.735022 -0.85515 11.71037 C -0.657762 12.679621 -2.007645 12.569895 -2.007645 12.569895 C -2.007645 12.569895 -0.950661 13.575722 -1.912135 13.965861 Z M -1.912135 13.965861 " transform="matrix(0.613479,0,0,0.640797,9.977742,6.242121)"/>
<path style=" stroke:none;fill-rule:nonzero;fill:rgb(61.56863%,22.745098%,60.784316%);fill-opacity:1;" d="M 8.871094 13.960938 C 8.871094 14.378906 8.546875 14.71875 8.144531 14.71875 C 7.742188 14.71875 7.417969 14.378906 7.417969 13.960938 C 7.417969 13.539062 7.742188 13.199219 8.144531 13.199219 C 8.546875 13.199219 8.871094 13.539062 8.871094 13.960938 Z M 8.871094 13.960938 "/>
<path style="fill-rule:nonzero;fill:rgb(90.196079%,0.784314%,70.588237%);fill-opacity:1;stroke-width:2.392385;stroke-linecap:butt;stroke-linejoin:miter;stroke:rgb(90.196079%,0.784314%,70.588237%);stroke-opacity:1;stroke-miterlimit:4;" d="M -1.069827 15.474402 C -2.795386 16.169337 -3.24747 14.090627 -3.24747 14.090627 C -3.24747 14.090627 -4.164372 16.346118 -5.679807 15.011112 C -7.195242 13.682201 -4.973028 12.615415 -4.973028 12.615415 C -4.973028 12.615415 -7.532713 12.414249 -6.647648 10.695199 C -5.756215 8.976149 -4.030657 10.597665 -4.030657 10.597665 C -4.030657 10.597665 -4.737435 8.269023 -2.629834 8.488476 C -0.522233 8.707929 -1.719299 10.82931 -1.719299 10.82931 C -1.719299 10.82931 0.458343 9.70766 0.814916 11.444998 C 1.177856 13.176239 -1.241746 12.987266 -1.241746 12.987266 C -1.241746 12.987266 0.655732 14.779467 -1.069827 15.474402 Z M -1.069827 15.474402 " transform="matrix(0.613479,0,0,0.640797,15.507879,9.650451)"/>
<path style="fill-rule:nonzero;fill:rgb(95.294118%,71.764708%,85.09804%);fill-opacity:1;stroke-width:2.392385;stroke-linecap:butt;stroke-linejoin:miter;stroke:rgb(95.294118%,71.764708%,85.09804%);stroke-opacity:1;stroke-miterlimit:4;" d="M -1.916688 13.962613 C -2.878162 14.352752 -3.132857 13.188431 -3.132857 13.188431 C -3.132857 13.188431 -3.648614 14.456383 -4.495475 13.706584 C -5.348703 12.962882 -4.100698 12.365482 -4.100698 12.365482 C -4.100698 12.365482 -5.533357 12.249659 -5.036702 11.286504 C -4.540047 10.329444 -3.572206 11.23164 -3.572206 11.23164 C -3.572206 11.23164 -3.966983 9.933209 -2.789018 10.055128 C -1.611054 10.177046 -2.279628 11.365751 -2.279628 11.365751 C -2.279628 11.365751 -1.057092 10.737871 -0.859704 11.707122 C -0.655948 12.676374 -2.012199 12.572743 -2.012199 12.572743 C -2.012199 12.572743 -0.948847 13.57857 -1.916688 13.962613 Z M -1.916688 13.962613 " transform="matrix(0.613479,0,0,0.640797,15.507879,9.650451)"/>
<path style=" stroke:none;fill-rule:nonzero;fill:rgb(61.56863%,22.745098%,60.784316%);fill-opacity:1;" d="M 14.402344 17.367188 C 14.402344 17.789062 14.078125 18.128906 13.675781 18.128906 C 13.273438 18.128906 12.945312 17.789062 12.945312 17.367188 C 12.945312 16.949219 13.273438 16.609375 13.675781 16.609375 C 14.078125 16.609375 14.402344 16.949219 14.402344 17.367188 Z M 14.402344 17.367188 "/>
</g>
</svg>
