<?xml version="1.0" encoding="UTF-8"?>
<svg xmlns="http://www.w3.org/2000/svg" xmlns:xlink="http://www.w3.org/1999/xlink" width="24px" height="24px" viewBox="0 0 24 24" version="1.1">
<g id="surface1">
<path style=" stroke:none;fill-rule:nonzero;fill:rgb(90.196079%,0.784314%,70.588237%);fill-opacity:1;" d="M 1.5 1.5 L 2.8125 1.5 L 2.8125 5.4375 L 1.5 5.4375 Z M 1.5 1.5 "/>
<path style=" stroke:none;fill-rule:nonzero;fill:rgb(95.294118%,71.764708%,85.09804%);fill-opacity:1;" d="M 2.8125 1.5 L 6.75 1.5 L 6.75 5.4375 L 2.8125 5.4375 Z M 2.8125 1.5 "/>
<path style=" stroke:none;fill-rule:nonzero;fill:rgb(90.196079%,0.784314%,70.588237%);fill-opacity:1;" d="M 6.75 1.5 L 10.6875 1.5 L 10.6875 5.4375 L 6.75 5.4375 Z M 6.75 1.5 "/>
<path style=" stroke:none;fill-rule:nonzero;fill:rgb(94.117647%,89.019608%,92.54902%);fill-opacity:1;" d="M 10.6875 1.5 L 14.625 1.5 L 14.625 5.4375 L 10.6875 5.4375 Z M 10.6875 1.5 "/>
<path style=" stroke:none;fill-rule:nonzero;fill:rgb(61.56863%,22.745098%,60.784316%);fill-opacity:1;" d="M 14.625 1.5 L 18.5625 1.5 L 18.5625 5.4375 L 14.625 5.4375 Z M 14.625 1.5 "/>
<path style=" stroke:none;fill-rule:nonzero;fill:rgb(95.294118%,71.764708%,85.09804%);fill-opacity:1;" d="M 18.5625 1.5 L 22.5 1.5 L 22.5 5.4375 L 18.5625 5.4375 Z M 18.5625 1.5 "/>
<path style=" stroke:none;fill-rule:nonzero;fill:rgb(95.294118%,71.764708%,85.09804%);fill-opacity:1;" d="M 1.5 5.4375 L 2.8125 5.4375 L 2.8125 9.375 L 1.5 9.375 Z M 1.5 5.4375 "/>
<path style=" stroke:none;fill-rule:nonzero;fill:rgb(61.56863%,22.745098%,60.784316%);fill-opacity:1;" d="M 2.8125 5.4375 L 6.75 5.4375 L 6.75 9.375 L 2.8125 9.375 Z M 2.8125 5.4375 "/>
<path style=" stroke:none;fill-rule:nonzero;fill:rgb(95.294118%,71.764708%,85.09804%);fill-opacity:1;" d="M 6.75 5.4375 L 10.6875 5.4375 L 10.6875 9.375 L 6.75 9.375 Z M 6.75 5.4375 "/>
<path style=" stroke:none;fill-rule:nonzero;fill:rgb(61.56863%,22.745098%,60.784316%);fill-opacity:1;" d="M 10.6875 5.4375 L 14.625 5.4375 L 14.625 9.375 L 10.6875 9.375 Z M 10.6875 5.4375 "/>
<path style=" stroke:none;fill-rule:nonzero;fill:rgb(95.294118%,71.764708%,85.09804%);fill-opacity:1;" d="M 14.625 5.4375 L 18.5625 5.4375 L 18.5625 9.375 L 14.625 9.375 Z M 14.625 5.4375 "/>
<path style=" stroke:none;fill-rule:nonzero;fill:rgb(90.196079%,0.784314%,70.588237%);fill-opacity:1;" d="M 18.5625 5.4375 L 22.5 5.4375 L 22.5 9.375 L 18.5625 9.375 Z M 18.5625 5.4375 "/>
<path style=" stroke:none;fill-rule:nonzero;fill:rgb(61.56863%,22.745098%,60.784316%);fill-opacity:1;" d="M 1.5 9.375 L 2.8125 9.375 L 2.8125 13.3125 L 1.5 13.3125 Z M 1.5 9.375 "/>
<path style=" stroke:none;fill-rule:nonzero;fill:rgb(95.294118%,71.764708%,85.09804%);fill-opacity:1;" d="M 2.8125 9.375 L 6.75 9.375 L 6.75 13.3125 L 2.8125 13.3125 Z M 2.8125 9.375 "/>
<path style=" stroke:none;fill-rule:nonzero;fill:rgb(94.117647%,89.019608%,92.54902%);fill-opacity:1;" d="M 6.75 9.375 L 10.6875 9.375 L 10.6875 13.3125 L 6.75 13.3125 Z M 6.75 9.375 "/>
<path style=" stroke:none;fill-rule:nonzero;fill:rgb(90.196079%,0.784314%,70.588237%);fill-opacity:1;" d="M 10.6875 9.375 L 14.625 9.375 L 14.625 13.3125 L 10.6875 13.3125 Z M 10.6875 9.375 "/>
<path style=" stroke:none;fill-rule:nonzero;fill:rgb(61.56863%,22.745098%,60.784316%);fill-opacity:1;" d="M 14.625 9.375 L 18.5625 9.375 L 18.5625 13.3125 L 14.625 13.3125 Z M 14.625 9.375 "/>
<path style=" stroke:none;fill-rule:nonzero;fill:rgb(95.294118%,71.764708%,85.09804%);fill-opacity:1;" d="M 18.5625 9.375 L 22.5 9.375 L 22.5 13.3125 L 18.5625 13.3125 Z M 18.5625 9.375 "/>
<path style=" stroke:none;fill-rule:nonzero;fill:rgb(90.196079%,0.784314%,70.588237%);fill-opacity:1;" d="M 1.5 13.3125 L 2.8125 13.3125 L 2.8125 17.25 L 1.5 17.25 Z M 1.5 13.3125 "/>
<path style=" stroke:none;fill-rule:nonzero;fill:rgb(61.56863%,22.745098%,60.784316%);fill-opacity:1;" d="M 2.8125 13.3125 L 6.75 13.3125 L 6.75 17.25 L 2.8125 17.25 Z M 2.8125 13.3125 "/>
<path style=" stroke:none;fill-rule:nonzero;fill:rgb(90.196079%,0.784314%,70.588237%);fill-opacity:1;" d="M 6.75 13.3125 L 10.6875 13.3125 L 10.6875 17.25 L 6.75 17.25 Z M 6.75 13.3125 "/>
<path style=" stroke:none;fill-rule:nonzero;fill:rgb(61.56863%,22.745098%,60.784316%);fill-opacity:1;" d="M 10.6875 13.3125 L 14.625 13.3125 L 14.625 17.25 L 10.6875 17.25 Z M 10.6875 13.3125 "/>
<path style=" stroke:none;fill-rule:nonzero;fill:rgb(94.117647%,89.019608%,92.54902%);fill-opacity:1;" d="M 14.625 13.3125 L 18.5625 13.3125 L 18.5625 17.25 L 14.625 17.25 Z M 14.625 13.3125 "/>
<path style=" stroke:none;fill-rule:nonzero;fill:rgb(61.56863%,22.745098%,60.784316%);fill-opacity:1;" d="M 18.5625 13.3125 L 22.5 13.3125 L 22.5 17.25 L 18.5625 17.25 Z M 18.5625 13.3125 "/>
<path style=" stroke:none;fill-rule:nonzero;fill:rgb(95.294118%,71.764708%,85.09804%);fill-opacity:1;" d="M 1.5 17.25 L 2.8125 17.25 L 2.8125 21.1875 L 1.5 21.1875 Z M 1.5 17.25 "/>
<path style=" stroke:none;fill-rule:nonzero;fill:rgb(94.117647%,89.019608%,92.54902%);fill-opacity:1;" d="M 2.8125 17.25 L 6.75 17.25 L 6.75 21.1875 L 2.8125 21.1875 Z M 2.8125 17.25 "/>
<path style=" stroke:none;fill-rule:nonzero;fill:rgb(61.56863%,22.745098%,60.784316%);fill-opacity:1;" d="M 6.75 17.25 L 10.6875 17.25 L 10.6875 21.1875 L 6.75 21.1875 Z M 6.75 17.25 "/>
<path style=" stroke:none;fill-rule:nonzero;fill:rgb(90.196079%,0.784314%,70.588237%);fill-opacity:1;" d="M 10.6875 17.25 L 14.625 17.25 L 14.625 21.1875 L 10.6875 21.1875 Z M 10.6875 17.25 "/>
<path style=" stroke:none;fill-rule:nonzero;fill:rgb(95.294118%,71.764708%,85.09804%);fill-opacity:1;" d="M 14.625 17.25 L 18.5625 17.25 L 18.5625 21.1875 L 14.625 21.1875 Z M 14.625 17.25 "/>
<path style=" stroke:none;fill-rule:nonzero;fill:rgb(90.196079%,0.784314%,70.588237%);fill-opacity:1;" d="M 18.5625 17.25 L 22.5 17.25 L 22.5 21.1875 L 18.5625 21.1875 Z M 18.5625 17.25 "/>
<path style=" stroke:none;fill-rule:nonzero;fill:rgb(90.196079%,0.784314%,70.588237%);fill-opacity:1;" d="M 1.5 21.1875 L 2.8125 21.1875 L 2.8125 22.5 L 1.5 22.5 Z M 1.5 21.1875 "/>
<path style=" stroke:none;fill-rule:nonzero;fill:rgb(61.56863%,22.745098%,60.784316%);fill-opacity:1;" d="M 2.8125 21.1875 L 6.75 21.1875 L 6.75 22.5 L 2.8125 22.5 Z M 2.8125 21.1875 "/>
<path style=" stroke:none;fill-rule:nonzero;fill:rgb(95.294118%,71.764708%,85.09804%);fill-opacity:1;" d="M 6.75 21.1875 L 10.6875 21.1875 L 10.6875 22.5 L 6.75 22.5 Z M 6.75 21.1875 "/>
<path style=" stroke:none;fill-rule:nonzero;fill:rgb(94.117647%,89.019608%,92.54902%);fill-opacity:1;" d="M 10.6875 21.1875 L 14.625 21.1875 L 14.625 22.5 L 10.6875 22.5 Z M 10.6875 21.1875 "/>
<path style=" stroke:none;fill-rule:nonzero;fill:rgb(61.56863%,22.745098%,60.784316%);fill-opacity:1;" d="M 14.625 21.1875 L 18.5625 21.1875 L 18.5625 22.5 L 14.625 22.5 Z M 14.625 21.1875 "/>
<path style=" stroke:none;fill-rule:nonzero;fill:rgb(94.117647%,89.019608%,92.54902%);fill-opacity:1;" d="M 18.5625 21.1875 L 22.5 21.1875 L 22.5 22.5 L 18.5625 22.5 Z M 18.5625 21.1875 "/>
</g>
</svg>
