<?xml version="1.0" encoding="UTF-8"?>
<svg xmlns="http://www.w3.org/2000/svg" xmlns:xlink="http://www.w3.org/1999/xlink" width="24px" height="24px" viewBox="0 0 24 24" version="1.1">
<g id="surface1">
<path style=" stroke:none;fill-rule:nonzero;fill:rgb(95.294118%,71.764708%,85.09804%);fill-opacity:1;" d="M 3 1.5 L 21 1.5 C 21.828125 1.5 22.5 2.171875 22.5 3 L 22.5 21 C 22.5 21.828125 21.828125 22.5 21 22.5 L 3 22.5 C 2.171875 22.5 1.5 21.828125 1.5 21 L 1.5 3 C 1.5 2.171875 2.171875 1.5 3 1.5 Z M 3 1.5 "/>
<path style=" stroke:none;fill-rule:nonzero;fill:rgb(94.117647%,89.019608%,92.54902%);fill-opacity:1;" d="M 3.75 3.75 L 3.75 20.25 L 20.25 20.25 L 20.25 3.75 Z M 3.75 3.75 "/>
<path style=" stroke:none;fill-rule:nonzero;fill:rgb(95.294118%,71.764708%,85.09804%);fill-opacity:1;" d="M 8.25 6.75 L 15.75 6.75 C 16.578125 6.75 17.25 7.421875 17.25 8.25 L 17.25 15.75 C 17.25 16.578125 16.578125 17.25 15.75 17.25 L 8.25 17.25 C 7.421875 17.25 6.75 16.578125 6.75 15.75 L 6.75 8.25 C 6.75 7.421875 7.421875 6.75 8.25 6.75 Z M 8.25 6.75 "/>
<path style=" stroke:none;fill-rule:evenodd;fill:rgb(90.196079%,0.784314%,70.588237%);fill-opacity:1;" d="M 22.058594 1.941406 L 21 3 L 21 21 L 3 21 L 1.941406 22.058594 C 2.210938 22.332031 2.585938 22.5 3 22.5 L 21 22.5 C 21.832031 22.5 22.5 21.832031 22.5 21 L 22.5 3 C 22.5 2.585938 22.332031 2.210938 22.058594 1.941406 Z M 22.058594 1.941406 "/>
<path style=" stroke:none;fill-rule:evenodd;fill:rgb(90.196079%,0.784314%,70.588237%);fill-opacity:1;" d="M 16.808594 7.191406 L 15.75 8.25 L 15.75 15.75 L 8.25 15.75 L 7.191406 16.808594 C 7.460938 17.082031 7.835938 17.25 8.25 17.25 L 15.75 17.25 C 16.582031 17.25 17.25 16.582031 17.25 15.75 L 17.25 8.25 C 17.25 7.835938 17.082031 7.460938 16.808594 7.191406 Z M 16.808594 7.191406 "/>
</g>
</svg>
