<?xml version="1.0" encoding="UTF-8"?>
<svg xmlns="http://www.w3.org/2000/svg" xmlns:xlink="http://www.w3.org/1999/xlink" width="24px" height="24px" viewBox="0 0 24 24" version="1.1">
<g id="surface1">
<path style=" stroke:none;fill-rule:nonzero;fill:rgb(90.196079%,0.784314%,70.588237%);fill-opacity:1;" d="M 3 3 L 21 3 C 21.828125 3 22.5 3.671875 22.5 4.5 L 22.5 18 C 22.5 18.828125 21.828125 19.5 21 19.5 L 3 19.5 C 2.171875 19.5 1.5 18.828125 1.5 18 L 1.5 4.5 C 1.5 3.671875 2.171875 3 3 3 Z M 3 3 "/>
<path style=" stroke:none;fill-rule:nonzero;fill:rgb(94.117647%,89.019608%,92.54902%);fill-opacity:1;" d="M 4.5 4.5 L 19.5 4.5 C 20.328125 4.5 21 5.171875 21 6 L 21 16.5 C 21 17.328125 20.328125 18 19.5 18 L 4.5 18 C 3.671875 18 3 17.328125 3 16.5 L 3 6 C 3 5.171875 3.671875 4.5 4.5 4.5 Z M 4.5 4.5 "/>
<path style=" stroke:none;fill-rule:nonzero;fill:rgb(90.196079%,0.784314%,70.588237%);fill-opacity:1;" d="M 6.886719 7.753906 C 6.375 7.792969 5.878906 8.03125 5.519531 8.457031 L 3 11.410156 L 3 16.5 C 3 17.332031 3.667969 18 4.5 18 L 19.5 18 C 19.589844 18 19.667969 17.964844 19.753906 17.949219 L 8.351562 8.230469 C 7.929688 7.867188 7.398438 7.710938 6.886719 7.753906 Z M 6.886719 7.753906 "/>
<path style=" stroke:none;fill-rule:nonzero;fill:rgb(95.294118%,71.764708%,85.09804%);fill-opacity:1;" d="M 17.578125 9.867188 C 17.191406 9.867188 16.804688 10.011719 16.503906 10.308594 L 8.976562 17.792969 C 8.914062 17.851562 8.886719 17.933594 8.839844 18 L 19.5 18 C 20.332031 18 21 17.332031 21 16.5 L 21 12.679688 L 18.652344 10.316406 C 18.355469 10.015625 17.964844 9.867188 17.578125 9.867188 Z M 17.578125 9.867188 "/>
<path style=" stroke:none;fill-rule:nonzero;fill:rgb(61.56863%,22.745098%,60.784316%);fill-opacity:1;" d="M 14.363281 8.203125 C 14.363281 8.824219 13.859375 9.328125 13.238281 9.328125 C 12.617188 9.328125 12.113281 8.824219 12.113281 8.203125 C 12.113281 7.582031 12.617188 7.078125 13.238281 7.078125 C 13.859375 7.078125 14.363281 7.582031 14.363281 8.203125 Z M 14.363281 8.203125 "/>
<path style="fill-rule:evenodd;fill:rgb(94.117647%,89.019608%,92.54902%);fill-opacity:1;stroke-width:3.20664;stroke-linecap:round;stroke-linejoin:round;stroke:rgb(94.117647%,89.019608%,92.54902%);stroke-opacity:1;stroke-miterlimit:4;" d="M 15.942627 8.510248 L 20.076083 8.510248 C 21.390523 8.510248 22.456954 9.598387 22.456954 10.939581 L 22.456954 20.070666 C 22.456954 21.41186 21.390523 22.499999 20.076083 22.499999 L 15.942627 22.499999 C 14.628188 22.499999 13.561757 21.41186 13.561757 20.070666 L 13.561757 10.939581 C 13.561757 9.598387 14.628188 8.510248 15.942627 8.510248 Z M 15.942627 8.510248 " transform="matrix(0.945032,0,0,0.92618,-0.22255,0.160945)"/>
<path style="fill-rule:evenodd;fill:rgb(94.117647%,89.019608%,92.54902%);fill-opacity:1;stroke-width:3.20664;stroke-linecap:round;stroke-linejoin:round;stroke:rgb(94.117647%,89.019608%,92.54902%);stroke-opacity:1;stroke-miterlimit:4;" d="M 17.881218 11.500521 L 18.120959 11.500521 C 19.435398 11.500521 20.501829 12.588659 20.501829 13.929853 L 20.501829 18.071528 C 20.501829 19.412722 19.435398 20.500861 18.120959 20.500861 L 17.881218 20.500861 C 16.566779 20.500861 15.500348 19.412722 15.500348 18.071528 L 15.500348 13.929853 C 15.500348 12.588659 16.566779 11.500521 17.881218 11.500521 Z M 17.881218 11.500521 " transform="matrix(0.945032,0,0,0.92618,-0.22255,0.160945)"/>
<path style="fill-rule:evenodd;fill:rgb(94.117647%,89.019608%,92.54902%);fill-opacity:1;stroke-width:3.20664;stroke-linecap:round;stroke-linejoin:round;stroke:rgb(94.117647%,89.019608%,92.54902%);stroke-opacity:1;stroke-miterlimit:4;" d="M 18.422701 14.187126 C 18.422701 14.410659 18.236695 14.596233 18.005222 14.596233 C 17.777882 14.60045 17.587743 14.419094 17.587743 14.191344 C 17.583609 13.963594 17.765481 13.77802 17.996955 13.773802 C 18.224295 13.769585 18.414434 13.950941 18.418568 14.178691 L 18.005222 14.187126 Z M 18.422701 14.187126 " transform="matrix(0.945032,0,0,0.92618,-0.22255,0.160945)"/>
<path style="fill:none;stroke-width:3.20664;stroke-linecap:round;stroke-linejoin:round;stroke:rgb(94.117647%,89.019608%,92.54902%);stroke-opacity:1;stroke-miterlimit:4;" d="M 17.947354 16.899038 L 17.947354 19.425375 " transform="matrix(0.945032,0,0,0.92618,-0.22255,0.160945)"/>
<path style="fill-rule:evenodd;fill:rgb(94.117647%,89.019608%,92.54902%);fill-opacity:1;stroke-width:1.60332;stroke-linecap:round;stroke-linejoin:round;stroke:rgb(90.196079%,0.784314%,70.588237%);stroke-opacity:1;stroke-miterlimit:4;" d="M 15.942627 8.510248 L 20.076083 8.510248 C 21.390523 8.510248 22.456954 9.598387 22.456954 10.939581 L 22.456954 20.070666 C 22.456954 21.41186 21.390523 22.499999 20.076083 22.499999 L 15.942627 22.499999 C 14.628188 22.499999 13.561757 21.41186 13.561757 20.070666 L 13.561757 10.939581 C 13.561757 9.598387 14.628188 8.510248 15.942627 8.510248 Z M 15.942627 8.510248 " transform="matrix(0.945032,0,0,0.92618,-0.22255,0.160945)"/>
<path style="fill-rule:evenodd;fill:rgb(95.294118%,71.764708%,85.09804%);fill-opacity:1;stroke-width:1.60332;stroke-linecap:round;stroke-linejoin:round;stroke:rgb(90.196079%,0.784314%,70.588237%);stroke-opacity:1;stroke-miterlimit:4;" d="M 17.881218 11.500521 L 18.120959 11.500521 C 19.435398 11.500521 20.501829 12.588659 20.501829 13.929853 L 20.501829 18.071528 C 20.501829 19.412722 19.435398 20.500861 18.120959 20.500861 L 17.881218 20.500861 C 16.566779 20.500861 15.500348 19.412722 15.500348 18.071528 L 15.500348 13.929853 C 15.500348 12.588659 16.566779 11.500521 17.881218 11.500521 Z M 17.881218 11.500521 " transform="matrix(0.945032,0,0,0.92618,-0.22255,0.160945)"/>
<path style="fill:none;stroke-width:1.60332;stroke-linecap:round;stroke-linejoin:round;stroke:rgb(61.56863%,22.745098%,60.784316%);stroke-opacity:1;stroke-miterlimit:4;" d="M 18.422701 14.187126 C 18.422701 14.410659 18.236695 14.596233 18.005222 14.596233 C 17.777882 14.60045 17.587743 14.419094 17.587743 14.191344 C 17.583609 13.963594 17.765481 13.77802 17.996955 13.773802 C 18.224295 13.769585 18.414434 13.950941 18.418568 14.178691 L 18.005222 14.187126 Z M 18.422701 14.187126 " transform="matrix(0.945032,0,0,0.92618,-0.22255,0.160945)"/>
<path style="fill:none;stroke-width:1.60332;stroke-linecap:round;stroke-linejoin:round;stroke:rgb(90.196079%,0.784314%,70.588237%);stroke-opacity:1;stroke-miterlimit:4;" d="M 17.947354 16.899038 L 17.947354 19.425375 " transform="matrix(0.945032,0,0,0.92618,-0.22255,0.160945)"/>
</g>
</svg>
