<?xml version="1.0" encoding="UTF-8" standalone="no"?>
<svg
   xmlns:dc="http://purl.org/dc/elements/1.1/"
   xmlns:cc="http://creativecommons.org/ns#"
   xmlns:rdf="http://www.w3.org/1999/02/22-rdf-syntax-ns#"
   xmlns:svg="http://www.w3.org/2000/svg"
   xmlns="http://www.w3.org/2000/svg"
   xmlns:sodipodi="http://sodipodi.sourceforge.net/DTD/sodipodi-0.dtd"
   xmlns:inkscape="http://www.inkscape.org/namespaces/inkscape"
   height="24"
   width="24"
   id="svg2"
   version="1.1"
   inkscape:version="0.91 r13725"
   sodipodi:docname="lc_gluepercent.svg"
   inkscape:export-filename="/home/tamara/Desktop/IKON/5_258 (tamara)/sc (222)/Tanggal 15/lc_gluepercent.png"
   inkscape:export-xdpi="90"
   inkscape:export-ydpi="90">
  <metadata
     id="metadata46">
    <rdf:RDF>
      <cc:Work
         rdf:about="">
        <dc:format>image/svg+xml</dc:format>
        <dc:type
           rdf:resource="http://purl.org/dc/dcmitype/StillImage" />
        <dc:title></dc:title>
      </cc:Work>
    </rdf:RDF>
  </metadata>
  <defs
     id="defs44" />
  <sodipodi:namedview
     pagecolor="#ffffff"
     bordercolor="#666666"
     borderopacity="1"
     objecttolerance="10"
     gridtolerance="10"
     guidetolerance="10"
     inkscape:pageopacity="0"
     inkscape:pageshadow="2"
     inkscape:window-width="1366"
     inkscape:window-height="718"
     id="namedview42"
     showgrid="true"
     inkscape:zoom="14.75"
     inkscape:cx="11.621557"
     inkscape:cy="14.419386"
     inkscape:window-x="0"
     inkscape:window-y="0"
     inkscape:window-maximized="1"
     inkscape:current-layer="svg2">
    <inkscape:grid
       type="xygrid"
       id="grid4174" />
  </sodipodi:namedview>
  <linearGradient
     id="a"
     gradientTransform="matrix(0.00809713,0,0,0.01789139,-8.5255144,-6.8317362)"
     gradientUnits="userSpaceOnUse"
     x1="399.77466"
     x2="399.77466"
     y1="1164.6696"
     y2="549.06134">
    <stop
       offset="0"
       stop-color="#a7a7a9"
       id="stop5" />
    <stop
       offset=".5"
       stop-color="#7d7d83"
       id="stop7" />
    <stop
       offset="1"
       stop-color="#aaaab1"
       id="stop9" />
  </linearGradient>
  <linearGradient
     id="b"
     gradientTransform="matrix(0.06250001,0,0,0.12500001,-8.0000001,-16.5)"
     gradientUnits="userSpaceOnUse"
     x1="-63.999985"
     x2="124.09152"
     y1="135.99998"
     y2="27.999992">
    <stop
       offset="0"
       stop-color="#fff"
       id="stop12" />
    <stop
       offset=".42597079"
       stop-color="#fff"
       id="stop14" />
    <stop
       offset=".5892781"
       stop-color="#f1f1f1"
       id="stop16" />
    <stop
       offset=".80219781"
       stop-color="#eaeaea"
       id="stop18" />
    <stop
       offset="1"
       stop-color="#dfdfdf"
       id="stop20" />
  </linearGradient>
  <linearGradient
     id="c"
     gradientTransform="matrix(0.24034901,0,0,0.25000004,-12.332024,-2)"
     gradientUnits="userSpaceOnUse"
     x1="102.31124"
     x2="74.330322"
     y1="-5.8302131"
     y2="32">
    <stop
       offset="0"
       stop-color="#fff"
       id="stop23" />
    <stop
       offset="1"
       stop-color="#fff"
       stop-opacity="0"
       id="stop25" />
  </linearGradient>
  <linearGradient
     id="d"
     gradientUnits="userSpaceOnUse"
     x1="24.409723"
     x2="185.93787"
     y1="63.999992"
     y2="74.18148"
     gradientTransform="matrix(0.125,0,0,0.125,-0.43197413,0.01926888)">
    <stop
       offset="0"
       stop-color="#0968ef"
       id="stop28" />
    <stop
       offset="1"
       stop-color="#aecffc"
       id="stop30" />
  </linearGradient>
  <g
     id="g4942"
     transform="matrix(-1,0,0,-1,24,24)">
    <rect
       style="opacity:1;fill:#9e3a9c;fill-opacity:1"
       id="rect54-5"
       y="1"
       x="1"
       width="22"
       transform="matrix(0,1,1,0,0,0)"
       ry="0.87031615"
       rx="0.74832696"
       height="22" />
    <rect
       height="20"
       rx="1.2499988"
       ry="1.25"
       transform="matrix(0,1,1,0,0,0)"
       width="20"
       x="2"
       y="2"
       id="rect58-3"
       style="fill:#f0e3ec;fill-opacity:1;fill-rule:evenodd" />
  </g>
  <path
     inkscape:connector-curvature="0"
     style="fill:#e602b4"
     id="path40"
     d="m 6.6919258,4.4817818 q 1.5636389,0 2.6277821,1.0973936 1.0858601,1.0973936 1.0858601,2.6995888 0,1.5144034 -1.0858601,2.6117968 -1.0858605,1.097394 -2.606065,1.097394 -1.5202045,0 -2.6277822,-1.097394 Q 3,9.7712202 3,8.2348682 3,6.6985178 4.0858607,5.6011242 5.1717211,4.4817818 6.6919256,4.4817818 Z m 0,1.536352 q -0.8904059,0 -1.5419218,0.6584352 -0.6515162,0.636488 -0.6515162,1.5582992 0,0.8998624 0.6515162,1.5582994 0.6515159,0.6584354 1.5636391,0.6584354 0.8904052,0 1.5419216,-0.6364888 Q 8.907081,9.1566794 8.907081,8.2568171 8.907081,7.313057 8.2555647,6.676569 7.6257657,6.0181338 6.6919258,6.0181338 Z m 8.9040552,-2.0631008 1.433335,0 -8.5782962,16 -1.433336,0 z m 1.715659,8.493828 q 1.563639,0 2.627782,1.097392 1.085862,1.097393 1.085862,2.67764 0,1.514406 -1.107579,2.611799 -1.085861,1.097394 -2.584347,1.097394 -1.541923,0 -2.627782,-1.097394 -1.085861,-1.119342 -1.085861,-2.655695 0,-1.536351 1.085861,-2.633744 1.085859,-1.097392 2.606064,-1.097392 z m 0,1.536349 q -0.890405,0 -1.541922,0.658436 -0.651515,0.636489 -0.651515,1.536351 0,0.921812 0.651515,1.580248 0.651517,0.636489 1.56364,0.636489 0.890406,0 1.541921,-0.636489 0.651517,-0.658436 0.651517,-1.536352 0,-0.943758 -0.651517,-1.580247 Q 18.245481,13.98521 17.31164,13.98521 Z" />
</svg>
