<?xml version="1.0" encoding="UTF-8"?>
<svg xmlns="http://www.w3.org/2000/svg" xmlns:xlink="http://www.w3.org/1999/xlink" width="24px" height="24px" viewBox="0 0 24 24" version="1.1">
<g id="surface1">
<path style=" stroke:none;fill-rule:nonzero;fill:rgb(90.196079%,0.784314%,70.588237%);fill-opacity:1;" d="M 12 3 C 6.96875 3 2.890625 7.113281 2.890625 12.183594 C 2.894531 12.621094 2.933594 13.0625 3 13.496094 L 21 13.496094 C 21.066406 13.0625 21.101562 12.621094 21.109375 12.183594 C 21.109375 7.113281 17.03125 3 12 3 Z M 12 3 "/>
<path style=" stroke:none;fill-rule:nonzero;fill:rgb(90.196079%,0.784314%,70.588237%);fill-opacity:1;" d="M 1.5 12 L 22.5 12 L 22.5 15.285156 L 1.5 15.285156 Z M 1.5 12 "/>
<path style=" stroke:none;fill-rule:nonzero;fill:rgb(100%,0%,0%);fill-opacity:1;" d="M 12 5.25 C 8.273438 5.25 5.25 8.273438 5.25 12 L 18.75 12 C 18.75 8.273438 15.726562 5.25 12 5.25 Z M 12 5.25 "/>
<path style=" stroke:none;fill-rule:nonzero;fill:rgb(61.56863%,22.745098%,60.784316%);fill-opacity:1;" d="M 1.5 14.933594 L 22.5 14.933594 L 22.5 16.5 L 1.5 16.5 Z M 1.5 14.933594 "/>
<path style=" stroke:none;fill-rule:evenodd;fill:rgb(94.117647%,89.019608%,92.54902%);fill-opacity:0.976471;" d="M 9.035156 19.164062 C 10.859375 20.355469 11.730469 18.398438 12.144531 17.707031 L 18.109375 4.648438 L 17.675781 4.386719 L 9 15.75 C 8.882812 16.042969 6.984375 17.570312 9.035156 19.164062 Z M 9.035156 19.164062 "/>
<path style=" stroke:none;fill-rule:evenodd;fill:rgb(61.56863%,22.745098%,60.784316%);fill-opacity:1;" d="M 17.898438 4.519531 L 8.929688 19.074219 C 8.964844 19.105469 9 19.132812 9.035156 19.164062 C 10.859375 20.359375 11.730469 18.398438 12.144531 17.707031 L 18.109375 4.648438 Z M 17.898438 4.519531 "/>
<path style=" stroke:none;fill-rule:nonzero;fill:rgb(61.56863%,22.745098%,60.784316%);fill-opacity:1;" d="M 13.132812 14.691406 C 13.132812 15.464844 12.527344 16.089844 11.78125 16.089844 C 11.035156 16.089844 10.425781 15.464844 10.425781 14.691406 C 10.425781 13.917969 11.035156 13.289062 11.78125 13.289062 C 12.527344 13.289062 13.132812 13.917969 13.132812 14.691406 Z M 13.132812 14.691406 "/>
<path style=" stroke:none;fill-rule:nonzero;fill:rgb(95.294118%,71.764708%,85.09804%);fill-opacity:1;" d="M 12.714844 14.691406 C 12.714844 15.222656 12.296875 15.65625 11.78125 15.65625 C 11.265625 15.65625 10.847656 15.222656 10.847656 14.691406 C 10.847656 14.160156 11.265625 13.726562 11.78125 13.726562 C 12.296875 13.726562 12.714844 14.160156 12.714844 14.691406 Z M 12.714844 14.691406 "/>
</g>
</svg>
