<?xml version="1.0" encoding="UTF-8" standalone="no"?>
<svg
   xmlns:dc="http://purl.org/dc/elements/1.1/"
   xmlns:cc="http://creativecommons.org/ns#"
   xmlns:rdf="http://www.w3.org/1999/02/22-rdf-syntax-ns#"
   xmlns:svg="http://www.w3.org/2000/svg"
   xmlns="http://www.w3.org/2000/svg"
   xmlns:sodipodi="http://sodipodi.sourceforge.net/DTD/sodipodi-0.dtd"
   xmlns:inkscape="http://www.inkscape.org/namespaces/inkscape"
   height="24"
   viewBox="0 0 24 24"
   width="24"
   id="svg2"
   version="1.1"
   inkscape:version="0.91 r13725"
   sodipodi:docname="lc_groupbox.svg"
   inkscape:export-filename="/home/tamara/Desktop/IKON/5_258 (tamara)/sc (222)/Tanggal 19/lc_groupbox.png"
   inkscape:export-xdpi="90"
   inkscape:export-ydpi="90">
  <metadata
     id="metadata18">
    <rdf:RDF>
      <cc:Work
         rdf:about="">
        <dc:format>image/svg+xml</dc:format>
        <dc:type
           rdf:resource="http://purl.org/dc/dcmitype/StillImage" />
        <dc:title></dc:title>
      </cc:Work>
    </rdf:RDF>
  </metadata>
  <defs
     id="defs16" />
  <sodipodi:namedview
     pagecolor="#ffffff"
     bordercolor="#666666"
     borderopacity="1"
     objecttolerance="10"
     gridtolerance="10"
     guidetolerance="10"
     inkscape:pageopacity="0"
     inkscape:pageshadow="2"
     inkscape:window-width="1366"
     inkscape:window-height="718"
     id="namedview14"
     showgrid="true"
     inkscape:zoom="14.75"
     inkscape:cx="9.184917"
     inkscape:cy="12.727225"
     inkscape:window-x="0"
     inkscape:window-y="0"
     inkscape:window-maximized="1"
     inkscape:current-layer="svg2">
    <inkscape:grid
       type="xygrid"
       id="grid4146" />
  </sodipodi:namedview>
  <g
     transform="matrix(0.19166667,0,0,0.18617848,-0.5333333,0.16915449)"
     id="g4">
    <path
       d="m 16,24 c -4.432,0 -8,3.568 -8,8 l 0,88 c 0,4.432 3.568,8 8,8 l 104,0 c 4.432,0 8,-3.568 8,-8 l 0,-88 c 0,-4.432 -3.568,-8 -8,-8 L 96.707031,24 93.222656,32 120,32 l 0,88 -104,0 0,-88 20.890625,0 3.654297,-6.734375 L 39.873047,24 Z M 61.71875,24 61.169922,25.005859 64.978516,32 l 9.923828,0 -3.650391,-8 z"
       id="path6"
       style="fill:#9d3a9b"
       inkscape:connector-curvature="0" />
    <g
       transform="scale(0.93026518,1.0749623)"
       id="g8"
       style="fill:#565656;stroke-width:1.33821404">
      <path
         d="m 59.126435,23.261131 12.525686,19.912628 -9.528086,0 -7.494,-13.542728 -7.440471,13.542728 -9.313972,0 12.311572,-19.644985 -11.883343,-19.3773436 9.528086,0 6.851657,12.8468576 7.172829,-12.8468576 9.313971,0 z"
         id="path10"
         style="fill:#e602b4"
         inkscape:connector-curvature="0" />
      <path
         d="m 94.390057,28.721045 0,14.452714 -8.029286,0 0,-14.452714 -12.953915,-24.5696146 8.939272,0 7.975757,17.2362006 7.440472,-17.2362006 8.992803,0 z"
         id="path12"
         style="fill:#e602b4"
         inkscape:connector-curvature="0" />
    </g>
  </g>
</svg>
