<?xml version="1.0" encoding="UTF-8"?>
<svg xmlns="http://www.w3.org/2000/svg" xmlns:xlink="http://www.w3.org/1999/xlink" width="24px" height="24px" viewBox="0 0 24 24" version="1.1">
<g id="surface1">
<path style=" stroke:none;fill-rule:nonzero;fill:rgb(90.196079%,0.784314%,70.588237%);fill-opacity:1;" d="M 3.703125 21 L 20.273438 21 C 20.667969 21 20.988281 20.628906 20.988281 20.167969 L 20.988281 3.832031 C 20.988281 3.371094 20.667969 3 20.273438 3 L 3.703125 3 C 3.308594 3 2.988281 3.371094 2.988281 3.832031 L 2.988281 20.167969 C 2.988281 20.628906 3.308594 21 3.703125 21 Z M 3.703125 21 "/>
<path style=" stroke:none;fill-rule:evenodd;fill:rgb(94.117647%,89.019608%,92.54902%);fill-opacity:1;" d="M 5.613281 19.5 L 18.363281 19.5 C 18.984375 19.5 19.488281 18.996094 19.488281 18.375 L 19.488281 5.625 C 19.488281 5.003906 18.984375 4.5 18.363281 4.5 L 5.613281 4.5 C 4.992188 4.5 4.488281 5.003906 4.488281 5.625 L 4.488281 18.375 C 4.488281 18.996094 4.992188 19.5 5.613281 19.5 Z M 5.613281 19.5 "/>
<path style="fill:none;stroke-width:1;stroke-linecap:round;stroke-linejoin:miter;stroke:rgb(61.56863%,22.745098%,60.784316%);stroke-opacity:1;stroke-miterlimit:4;" d="M 5.5 5.5 L 10.5 10.5 " transform="matrix(1.5,0,0,1.5,0,0)"/>
<path style="fill-rule:nonzero;fill:rgb(90.196079%,0.784314%,70.588237%);fill-opacity:1;stroke-width:1;stroke-linecap:round;stroke-linejoin:miter;stroke:rgb(61.56863%,22.745098%,60.784316%);stroke-opacity:1;stroke-miterlimit:4;" d="M 10.492188 5.5 L 5.492188 10.5 " transform="matrix(1.5,0,0,1.5,0,0)"/>
<path style="fill-rule:evenodd;fill:rgb(95.294118%,71.764708%,85.09804%);fill-opacity:1;stroke-width:1;stroke-linecap:round;stroke-linejoin:round;stroke:rgb(90.196079%,0.784314%,70.588237%);stroke-opacity:1;stroke-miterlimit:4;" d="M 15 11 C 15 13.208333 13.208333 15 11 15 C 8.791667 15 7 13.208333 7 11 C 7 8.791667 8.791667 7 11 7 C 13.208333 7 15 8.791667 15 11 Z M 15 11 " transform="matrix(1.5,0,0,1.5,0,0)"/>
<path style=" stroke:none;fill-rule:nonzero;fill:rgb(61.56863%,22.745098%,60.784316%);fill-opacity:1;" d="M 16.5 12 C 16.914062 12 17.25 12.335938 17.25 12.75 L 17.25 20.25 C 17.25 20.664062 16.914062 21 16.5 21 C 16.085938 21 15.75 20.664062 15.75 20.25 L 15.75 12.75 C 15.75 12.335938 16.085938 12 16.5 12 Z M 16.5 12 "/>
<path style=" stroke:none;fill-rule:nonzero;fill:rgb(61.56863%,22.745098%,60.784316%);fill-opacity:1;" d="M 12.75 15.75 L 20.25 15.75 C 20.664062 15.75 21 16.085938 21 16.5 C 21 16.914062 20.664062 17.25 20.25 17.25 L 12.75 17.25 C 12.335938 17.25 12 16.914062 12 16.5 C 12 16.085938 12.335938 15.75 12.75 15.75 Z M 12.75 15.75 "/>
</g>
</svg>
