<?xml version="1.0" encoding="UTF-8" standalone="no"?>
<svg
   xmlns:dc="http://purl.org/dc/elements/1.1/"
   xmlns:cc="http://creativecommons.org/ns#"
   xmlns:rdf="http://www.w3.org/1999/02/22-rdf-syntax-ns#"
   xmlns:svg="http://www.w3.org/2000/svg"
   xmlns="http://www.w3.org/2000/svg"
   xmlns:xlink="http://www.w3.org/1999/xlink"
   xmlns:sodipodi="http://sodipodi.sourceforge.net/DTD/sodipodi-0.dtd"
   xmlns:inkscape="http://www.inkscape.org/namespaces/inkscape"
   height="24"
   width="24"
   id="svg2"
   version="1.1"
   inkscape:version="0.91 r13725"
   sodipodi:docname="lc_grafluminance.svg"
   inkscape:export-filename="/home/tamara/Desktop/IKON/5_258 (tamara)/sc (222)/Tanggal 17/lc_grafluminance.png"
   inkscape:export-xdpi="90"
   inkscape:export-ydpi="90">
  <metadata
     id="metadata122">
    <rdf:RDF>
      <cc:Work
         rdf:about="">
        <dc:format>image/svg+xml</dc:format>
        <dc:type
           rdf:resource="http://purl.org/dc/dcmitype/StillImage" />
        <dc:title></dc:title>
      </cc:Work>
    </rdf:RDF>
  </metadata>
  <defs
     id="defs120" />
  <sodipodi:namedview
     pagecolor="#ffffff"
     bordercolor="#666666"
     borderopacity="1"
     objecttolerance="10"
     gridtolerance="10"
     guidetolerance="10"
     inkscape:pageopacity="0"
     inkscape:pageshadow="2"
     inkscape:window-width="1366"
     inkscape:window-height="718"
     id="namedview118"
     showgrid="true"
     inkscape:zoom="20.85965"
     inkscape:cx="6.8276653"
     inkscape:cy="12.119871"
     inkscape:window-x="0"
     inkscape:window-y="0"
     inkscape:window-maximized="1"
     inkscape:current-layer="svg2">
    <inkscape:grid
       type="xygrid"
       id="grid4250" />
  </sodipodi:namedview>
  <linearGradient
     id="a">
    <stop
       offset="0"
       stop-color="#fed94f"
       id="stop5" />
    <stop
       offset=".625"
       stop-color="#feb64f"
       stop-opacity=".498039"
       id="stop7" />
    <stop
       offset="1"
       stop-color="#fed94f"
       stop-opacity="0"
       id="stop9" />
  </linearGradient>
  <linearGradient
     id="b">
    <stop
       offset="0"
       stop-color="#fff"
       id="stop12" />
    <stop
       offset="1"
       stop-color="#fff"
       stop-opacity="0"
       id="stop14" />
  </linearGradient>
  <filter
     id="c">
    <feGaussianBlur
       stdDeviation=".10694777"
       id="feGaussianBlur17" />
  </filter>
  <filter
     id="d">
    <feGaussianBlur
       stdDeviation=".53676588"
       id="feGaussianBlur20" />
  </filter>
  <filter
     id="e">
    <feGaussianBlur
       stdDeviation=".32900581"
       id="feGaussianBlur23" />
  </filter>
  <radialGradient
     id="f"
     cx="28.798531"
     cy="3.75491"
     gradientTransform="matrix(1.1770558,0.00553299,-0.00470066,0.999989,-5.081297,-0.159301)"
     gradientUnits="userSpaceOnUse"
     r="74.355316"
     xlink:href="#a" />
  <radialGradient
     id="g"
     cx="28.798531"
     cy="3.75491"
     gradientTransform="matrix(1.1770558,0.00553299,-0.00470066,0.999989,-5.081297,-0.159301)"
     gradientUnits="userSpaceOnUse"
     r="74.355316">
    <stop
       offset="0"
       stop-color="#fffb04"
       id="stop27" />
    <stop
       offset="1"
       stop-color="#fbf700"
       stop-opacity="0"
       id="stop29" />
  </radialGradient>
  <radialGradient
     id="h"
     cx="28.798531"
     cy="3.75491"
     gradientTransform="matrix(1.3378721,-0.134033,0.1138701,1.1366134,-10.157794,3.346982)"
     gradientUnits="userSpaceOnUse"
     r="74.355316"
     xlink:href="#a" />
  <filter
     id="i"
     height="1.307965"
     width="1.307965"
     x="-0.153982"
     y="-0.153982">
    <feGaussianBlur
       stdDeviation="4.1808527"
       id="feGaussianBlur33" />
  </filter>
  <linearGradient
     id="j"
     gradientUnits="userSpaceOnUse"
     x1="72.36216"
     x2="72.36216"
     xlink:href="#b"
     y1="12.066457"
     y2="61.956245" />
  <radialGradient
     id="k"
     cx="63.35677"
     cy="68.61705"
     gradientTransform="matrix(1.4106583,0,0,1.254292,-26.017987,-29.033628)"
     gradientUnits="userSpaceOnUse"
     r="28.863983">
    <stop
       offset="0"
       stop-color="#fff"
       stop-opacity="0"
       id="stop37" />
    <stop
       offset=".88333333"
       stop-color="#fff"
       stop-opacity="0"
       id="stop39" />
    <stop
       offset="1"
       stop-color="#fff"
       id="stop41" />
  </radialGradient>
  <radialGradient
     id="l"
     cx="65.745453"
     cy="62.836365"
     fy="68.23539"
     gradientTransform="matrix(1.0195364,7e-8,-7e-8,1.0195363,-1.284429,-1.227598)"
     gradientUnits="userSpaceOnUse"
     r="37.81818">
    <stop
       offset="0"
       stop-color="#fffd33"
       id="stop44" />
    <stop
       offset=".45616123"
       stop-color="#fae926"
       id="stop46" />
    <stop
       offset=".66785437"
       stop-color="#f5d619"
       id="stop48" />
    <stop
       offset=".8712194"
       stop-color="#ebb000"
       id="stop50" />
    <stop
       offset="1"
       stop-color="#db6700"
       id="stop52" />
  </radialGradient>
  <linearGradient
     id="m"
     gradientUnits="userSpaceOnUse"
     x1="72.36216"
     x2="72.36216"
     xlink:href="#b"
     y1="-7.79989"
     y2="61.956245" />
  <radialGradient
     id="n"
     cx="63.127274"
     cy="84.072731"
     fx="62.545456"
     fy="91.05455"
     gradientUnits="userSpaceOnUse"
     r="18.327272">
    <stop
       offset="0"
       stop-color="#fffec3"
       id="stop56" />
    <stop
       offset="1"
       stop-color="#fffec3"
       stop-opacity="0"
       id="stop58" />
  </radialGradient>
  <g
     id="g4262"
     transform="matrix(1.5427659,0,0,1.5427659,-0.35710439,-0.32743481)">
    <path
       d="m 10.33544,11.766184 1.435503,2.525502 -1.560923,-2.449969 1.351216,2.571584 -1.479066,-2.500239 1.265453,2.614854 -1.3955912,-2.547775 1.1783042,2.655265 -1.3105893,-2.592525 1.0898683,2.692771 -1.2241555,-2.63444 1.0002405,2.727334 -1.1363829,-2.673474 0.9095189,2.758914 -1.0473676,-2.709586 0.8178026,2.787478 -0.957207,-2.742734 0.7251918,2.812993 -0.8659993,-2.772882 0.6317883,2.835432 -0.773845,-2.799999 0.5376939,2.854771 -0.6808445,-2.824055 0.4430116,2.870988 -0.5870995,-2.845021 0.3478448,2.884066 -0.4927125,-2.862877 0.2522978,2.89399 -0.3977868,-2.877603 0.1564747,2.900749 -0.302426,-2.889181 0.060481,2.904337 -0.2067346,-2.897601 -0.03558,2.904749 -0.1108172,-2.902853 -0.1316009,2.901985 -0.014779,-2.90493 -0.2274783,2.896047 0.081276,-2.90383 -0.323107,2.886942 0.1772423,-2.899554 -0.4183824,2.87468 0.2730144,-2.892109 -0.5132003,2.859276 0.3684881,-2.881501 -0.607457,2.840744 0.4635587,-2.867742 -0.7010494,2.819106 0.5581225,-2.850847 -0.7938753,2.794386 0.6520759,-2.830835 -0.8858331,2.76661 0.7453164,-2.807728 -0.9768222,2.735809 0.8377419,-2.78155 -1.0667433,2.702016 0.9292513,-2.752331 -1.1554977,2.665269 1.0197445,-2.720102 -1.2429888,2.625607 1.1091227,-2.684898 -1.3291205,2.583074 1.197288,-2.646759 -1.413799,2.537716 1.2841443,-2.605726 -1.4969315,2.489584 1.3695962,-2.561842 -1.578427,2.438729 L 5.6154443,11.749284 3.9572476,14.134492 5.4931631,11.668768 3.75701,13.997846 5.3736109,11.584252 3.5613999,13.854654 5.2569184,11.49583 3.3706311,13.705073 5.1432132,11.403598 3.1849122,13.549266 5.0326197,11.307657 3.0044464,13.387404 4.9252588,11.208112 2.829431,13.219663 4.8212479,11.105072 2.6600573,13.046228 4.7207008,10.998648 2.4965106,12.867287 4.6237273,10.888959 2.3389697,12.683037 4.5304335,10.776124 2.1876068,12.493679 4.4409215,10.660265 2.0425876,12.299419 4.3552891,10.54151 1.9040705,12.100471 4.2736299,10.419989 1.772207,11.897052 4.1960333,10.295835 1.6471413,11.689385 4.122584,10.169182 1.5290102,11.477695 4.0533625,10.040171 1.4179428,11.262216 3.9884444,9.908941 1.3140607,11.043182 3.9279007,9.7756366 1.2174773,10.820834 3.8717975,9.6404033 1.1282983,10.595413 3.8201963,9.503389 1.0466213,10.367168 3.7731535,9.3647435 0.97253546,10.136346 3.7307205,9.2246184 0.90612188,9.9032012 3.6929437,9.083167 0.84745316,9.667988 3.6598644,8.9405438 0.79659346,9.4309636 3.6315188,8.7969049 0.7535984,9.1923872 3.6079379,8.6524074 0.71851498,8.9525197 3.5891474,8.5072092 0.69138157,8.7116234 3.575168,8.3614691 0.67222784,8.4699616 3.5660148,8.2153465 0.66107473,8.2277987 3.561698,8.0690011 0.65793445,7.9853994 3.5622222,7.922593 0.66281042,7.7430288 3.5675869,7.7762823 0.67569731,7.500952 3.5777861,7.630229 0.69658103,7.2594336 3.5928088,7.4845927 0.72543874,7.0187377 3.6126385,7.3395328 0.7622389,6.7791275 3.6372535,7.1952078 0.80694125,6.5408651 3.666627,7.0517756 0.85949692,6.304211 3.7007267,6.909393 0.91984844,6.0694239 3.7395155,6.7682157 0.98792981,5.8367607 3.7829508,6.628398 1.0636666,5.6064756 3.8309852,6.4900929 1.146976,5.3788205 3.8835662,6.3534517 1.2377668,5.1540445 3.9406363,6.2186236 1.3359399,4.9323931 4.002133,6.0857562 1.4413879,4.7141089 4.0679892,5.9549947 1.5539954,4.4994305 4.1381328,5.8264821 1.6736393,4.2885926 4.212487,5.700359 1.8001888,4.0818259 4.2909707,5.5767632 1.9335056,3.8793563 4.373498,5.45583 2.0734438,3.6814054 4.4599786,5.3376914 2.2198504,3.4881895 4.5503179,5.2224769 2.3725653,3.2999199 4.6444173,5.1103122 2.5314215,3.1168026 4.7421738,5.0013201 2.6962454,2.9390376 4.8434804,4.8956198 2.8668566,2.7668195 4.9482265,4.7933268 3.0430687,2.6003366 5.0562975,4.6945529 3.224689,2.4397708 5.1675751,4.5994063 3.4115187,2.2852978 5.2819378,4.5079909 3.6033538,2.1370865 5.3992605,4.4204067 3.7999843,1.995299 5.5194148,4.3367495 4.0011953,1.8600902 5.6422695,4.2571107 4.2067667,1.731608 5.7676901,4.1815774 4.4164738,1.609993 5.8955395,4.1102323 4.6300872,1.4953781 6.0256779,4.0431533 4.8473734,1.3878887 6.1579631,3.9804138 5.0680948,1.2876422 6.2922503,3.9220824 5.2920099,1.1947483 6.4283927,3.8682229 5.518874,1.1093086 6.5662414,3.8188941 5.7484391,1.0314165 6.7056457,3.7741501 5.9804539,0.96115724 6.8464533,3.7340397 6.214665,0.89860754 6.98851,3.6986068 6.4508161,0.84383585 7.1316606,3.6678902 6.688649,0.79690205 7.2757485,3.6419233 6.9279036,0.75785747 7.4206161,3.6207348 7.1683184,0.7267448 7.5661052,3.6043476 7.4096305,0.70359807 7.7120565,3.5927797 7.6515759,0.68844258 7.8583105,3.5860438 7.8938901,0.68129491 8.0047072,3.5841472 8.1363082,0.68216287 8.1510866,3.5870921 8.378565,0.69104551 8.2972886,3.5948751 8.6203957,0.70793313 8.4431534,3.6074878 8.8615358,0.73280724 8.5885213,3.6249164 9.1017216,0.76564067 8.7332336,3.6471418 9.3406906,0.80639749 8.8771318,3.6741397 9.5781813,0.85503315 9.0200588,3.7058806 9.8139341,0.91149447 9.1618581,3.7423298 10.047691,0.97571969 9.3023748,3.7834475 10.279197,1.0476386 9.4414552,3.8291886 10.508198,1.1271725 9.5789472,3.8795032 10.734445,1.2142346 9.7147004,3.9343362 10.957689,1.3087295 9.8485665,3.9936278 11.177687,1.4105539 9.9803989,4.0573129 11.394198,1.5195965 10.110054,4.1253221 11.606985,1.6357381 10.237389,4.1975809 11.815816,1.7588517 10.362265,4.2740103 12.020462,1.8888026 10.484547,4.3545268 12.2207,2.0254487 10.604099,4.4390423 12.41631,2.1686407 10.720791,4.5274643 12.607079,2.3182219 10.834497,4.6196963 12.792798,2.4740288 10.94509,4.7156373 12.973263,2.6358909 11.052451,4.8151825 13.148279,2.8036314 11.156462,4.9182229 13.317652,2.9770668 11.257009,5.024646 13.481199,3.1560074 11.353982,5.1343353 13.63874,3.3402576 11.447276,5.2471709 13.790103,3.5296159 11.536788,5.3630294 13.935122,3.7238753 11.622421,5.4817842 14.073639,3.9228232 11.70408,5.6033053 14.205503,4.1262422 11.781677,5.7274599 14.330568,4.3339098 11.855126,5.8541122 14.4487,4.545599 l -2.524353,1.4375248 2.63542,-1.2220455 -2.570502,1.3532752 2.674384,-1.1342415 -2.61384,1.2675459 2.710423,-1.0451972 -2.65432,1.1804305 2.743499,-0.9550101 -2.691898,1.0920244 2.773575,-0.8637786 -2.726532,1.0024241 2.800618,-0.7716026 -2.758185,0.9117276 2.824599,-0.6785828 -2.786822,0.8200343 2.845491,-0.5848211 -2.812412,0.7274442 2.863271,-0.4904198 -2.834925,0.6340587 2.87792,-0.3954823 -2.854339,0.5399799 2.889423,-0.3001124 -2.870633,0.4453106 2.897766,-0.2044142 -2.883786,0.3501543 2.90294,-0.1084925 -2.893787,0.2546151 2.90494,-0.012452 -2.900623,0.1587976 2.903763,0.083602 -2.904287,0.062806 2.899411,0.1795642 -2.904776,-0.033254 2.891889,0.2753304 -2.902088,-0.129277 2.881205,0.3707954 -2.896228,-0.2251592 2.86737,0.4658551 -2.8872,-0.3207951 2.8504,0.5604052 -2.875015,-0.4160803 2.830313,0.6543427 -2.859686,-0.5109104 2.80713,0.7475645 -2.84123,-0.6051819 2.780878,0.839969 -2.819667,-0.6987917 2.751586,0.9314552 -2.795021,-0.7916376 2.719284,1.0219226 -2.767318,-0.8836175 2.684009,1.1112725 -2.73659,-0.9746312 2.645799,1.1994072 -2.70287,-1.0645791 2.604697,1.2862301 -2.666193,-1.1533627 2.560745,1.3716477 -2.626601,-1.240886 2.513993,1.455564 -2.584137,-1.327052 2.464493,1.53789 -2.538847,-1.411767 2.412298,1.618534 -2.490782,-1.494938 2.357465,1.697407 -2.439992,-1.576474 2.300054,1.774425 -2.386535,-1.656286 2.240128,1.849502 -2.330467,-1.734287 2.177753,1.922557 -2.271853,-1.810393 2.112996,1.99351 -2.210752,-1.884518 2.045928,2.062283 -2.147235,-1.956582 1.976624,2.1288 -2.08137,-2.026507 1.905158,2.19299 -2.013229,-2.094216 1.831609,2.254782 -1.942886,-2.159636 1.756056,2.314109 -1.870419,-2.222693 1.678584,2.370904 -1.795907,-2.28332 1.599276,2.425107 -1.71943,-2.34145 1.51822,2.476659 z"
       inkscape:randomized="0"
       inkscape:rounded="0"
       inkscape:flatsided="false"
       sodipodi:arg2="1.0287317"
       sodipodi:arg1="1.012197"
       sodipodi:r2="7.3309674"
       sodipodi:r1="4.4275284"
       sodipodi:cy="8.0116472"
       sodipodi:cx="7.9888549"
       sodipodi:sides="190"
       id="path4260"
       style="opacity:1;fill:#f3b7d9;fill-opacity:1;fill-rule:nonzero;stroke:none;stroke-width:0.25;stroke-linecap:round;stroke-linejoin:round;stroke-miterlimit:4;stroke-dasharray:none;stroke-dashoffset:0;stroke-opacity:1"
       sodipodi:type="star"
       transform="matrix(0.97552619,-0.21988327,0.21988327,0.97552619,-1.5661095,1.952691)" />
    <path
       d="m 10.33544,11.766184 1.435503,2.525502 -1.560923,-2.449969 1.351216,2.571584 -1.479066,-2.500239 1.265453,2.614854 -1.3955912,-2.547775 1.1783042,2.655265 -1.3105893,-2.592525 1.0898683,2.692771 -1.2241555,-2.63444 1.0002405,2.727334 -1.1363829,-2.673474 0.9095189,2.758914 -1.0473676,-2.709586 0.8178026,2.787478 -0.957207,-2.742734 0.7251918,2.812993 -0.8659993,-2.772882 0.6317883,2.835432 -0.773845,-2.799999 0.5376939,2.854771 -0.6808445,-2.824055 0.4430116,2.870988 -0.5870995,-2.845021 0.3478448,2.884066 -0.4927125,-2.862877 0.2522978,2.89399 -0.3977868,-2.877603 0.1564747,2.900749 -0.302426,-2.889181 0.060481,2.904337 -0.2067346,-2.897601 -0.03558,2.904749 -0.1108172,-2.902853 -0.1316009,2.901985 -0.014779,-2.90493 -0.2274783,2.896047 0.081276,-2.90383 -0.323107,2.886942 0.1772423,-2.899554 -0.4183824,2.87468 0.2730144,-2.892109 -0.5132003,2.859276 0.3684881,-2.881501 -0.607457,2.840744 0.4635587,-2.867742 -0.7010494,2.819106 0.5581225,-2.850847 -0.7938753,2.794386 0.6520759,-2.830835 -0.8858331,2.76661 0.7453164,-2.807728 -0.9768222,2.735809 0.8377419,-2.78155 -1.0667433,2.702016 0.9292513,-2.752331 -1.1554977,2.665269 1.0197445,-2.720102 -1.2429888,2.625607 1.1091227,-2.684898 -1.3291205,2.583074 1.197288,-2.646759 -1.413799,2.537716 1.2841443,-2.605726 -1.4969315,2.489584 1.3695962,-2.561842 -1.578427,2.438729 L 5.6154443,11.749284 3.9572476,14.134492 5.4931631,11.668768 3.75701,13.997846 5.3736109,11.584252 3.5613999,13.854654 5.2569184,11.49583 3.3706311,13.705073 5.1432132,11.403598 3.1849122,13.549266 5.0326197,11.307657 3.0044464,13.387404 4.9252588,11.208112 2.829431,13.219663 4.8212479,11.105072 2.6600573,13.046228 4.7207008,10.998648 2.4965106,12.867287 4.6237273,10.888959 2.3389697,12.683037 4.5304335,10.776124 2.1876068,12.493679 4.4409215,10.660265 2.0425876,12.299419 4.3552891,10.54151 1.9040705,12.100471 4.2736299,10.419989 1.772207,11.897052 4.1960333,10.295835 1.6471413,11.689385 4.122584,10.169182 1.5290102,11.477695 4.0533625,10.040171 1.4179428,11.262216 3.9884444,9.908941 1.3140607,11.043182 3.9279007,9.7756366 1.2174773,10.820834 3.8717975,9.6404033 1.1282983,10.595413 3.8201963,9.503389 1.0466213,10.367168 3.7731535,9.3647435 0.97253546,10.136346 3.7307205,9.2246184 0.90612188,9.9032012 3.6929437,9.083167 0.84745316,9.667988 3.6598644,8.9405438 0.79659346,9.4309636 3.6315188,8.7969049 0.7535984,9.1923872 3.6079379,8.6524074 0.71851498,8.9525197 3.5891474,8.5072092 0.69138157,8.7116234 3.575168,8.3614691 0.67222784,8.4699616 3.5660148,8.2153465 0.66107473,8.2277987 3.561698,8.0690011 0.65793445,7.9853994 3.5622222,7.922593 0.66281042,7.7430288 3.5675869,7.7762823 0.67569731,7.500952 3.5777861,7.630229 0.69658103,7.2594336 3.5928088,7.4845927 0.72543874,7.0187377 3.6126385,7.3395328 0.7622389,6.7791275 3.6372535,7.1952078 0.80694125,6.5408651 3.666627,7.0517756 0.85949692,6.304211 3.7007267,6.909393 0.91984844,6.0694239 3.7395155,6.7682157 0.98792981,5.8367607 3.7829508,6.628398 1.0636666,5.6064756 3.8309852,6.4900929 1.146976,5.3788205 3.8835662,6.3534517 1.2377668,5.1540445 3.9406363,6.2186236 1.3359399,4.9323931 4.002133,6.0857562 1.4413879,4.7141089 4.0679892,5.9549947 1.5539954,4.4994305 4.1381328,5.8264821 1.6736393,4.2885926 4.212487,5.700359 1.8001888,4.0818259 4.2909707,5.5767632 1.9335056,3.8793563 4.373498,5.45583 2.0734438,3.6814054 4.4599786,5.3376914 2.2198504,3.4881895 4.5503179,5.2224769 2.3725653,3.2999199 4.6444173,5.1103122 2.5314215,3.1168026 4.7421738,5.0013201 2.6962454,2.9390376 4.8434804,4.8956198 2.8668566,2.7668195 4.9482265,4.7933268 3.0430687,2.6003366 5.0562975,4.6945529 3.224689,2.4397708 5.1675751,4.5994063 3.4115187,2.2852978 5.2819378,4.5079909 3.6033538,2.1370865 5.3992605,4.4204067 3.7999843,1.995299 5.5194148,4.3367495 4.0011953,1.8600902 5.6422695,4.2571107 4.2067667,1.731608 5.7676901,4.1815774 4.4164738,1.609993 5.8955395,4.1102323 4.6300872,1.4953781 6.0256779,4.0431533 4.8473734,1.3878887 6.1579631,3.9804138 5.0680948,1.2876422 6.2922503,3.9220824 5.2920099,1.1947483 6.4283927,3.8682229 5.518874,1.1093086 6.5662414,3.8188941 5.7484391,1.0314165 6.7056457,3.7741501 5.9804539,0.96115724 6.8464533,3.7340397 6.214665,0.89860754 6.98851,3.6986068 6.4508161,0.84383585 7.1316606,3.6678902 6.688649,0.79690205 7.2757485,3.6419233 6.9279036,0.75785747 7.4206161,3.6207348 7.1683184,0.7267448 7.5661052,3.6043476 7.4096305,0.70359807 7.7120565,3.5927797 7.6515759,0.68844258 7.8583105,3.5860438 7.8938901,0.68129491 8.0047072,3.5841472 8.1363082,0.68216287 8.1510866,3.5870921 8.378565,0.69104551 8.2972886,3.5948751 8.6203957,0.70793313 8.4431534,3.6074878 8.8615358,0.73280724 8.5885213,3.6249164 9.1017216,0.76564067 8.7332336,3.6471418 9.3406906,0.80639749 8.8771318,3.6741397 9.5781813,0.85503315 9.0200588,3.7058806 9.8139341,0.91149447 9.1618581,3.7423298 10.047691,0.97571969 9.3023748,3.7834475 10.279197,1.0476386 9.4414552,3.8291886 10.508198,1.1271725 9.5789472,3.8795032 10.734445,1.2142346 9.7147004,3.9343362 10.957689,1.3087295 9.8485665,3.9936278 11.177687,1.4105539 9.9803989,4.0573129 11.394198,1.5195965 10.110054,4.1253221 11.606985,1.6357381 10.237389,4.1975809 11.815816,1.7588517 10.362265,4.2740103 12.020462,1.8888026 10.484547,4.3545268 12.2207,2.0254487 10.604099,4.4390423 12.41631,2.1686407 10.720791,4.5274643 12.607079,2.3182219 10.834497,4.6196963 12.792798,2.4740288 10.94509,4.7156373 12.973263,2.6358909 11.052451,4.8151825 13.148279,2.8036314 11.156462,4.9182229 13.317652,2.9770668 11.257009,5.024646 13.481199,3.1560074 11.353982,5.1343353 13.63874,3.3402576 11.447276,5.2471709 13.790103,3.5296159 11.536788,5.3630294 13.935122,3.7238753 11.622421,5.4817842 14.073639,3.9228232 11.70408,5.6033053 14.205503,4.1262422 11.781677,5.7274599 14.330568,4.3339098 11.855126,5.8541122 14.4487,4.545599 l -2.524353,1.4375248 2.63542,-1.2220455 -2.570502,1.3532752 2.674384,-1.1342415 -2.61384,1.2675459 2.710423,-1.0451972 -2.65432,1.1804305 2.743499,-0.9550101 -2.691898,1.0920244 2.773575,-0.8637786 -2.726532,1.0024241 2.800618,-0.7716026 -2.758185,0.9117276 2.824599,-0.6785828 -2.786822,0.8200343 2.845491,-0.5848211 -2.812412,0.7274442 2.863271,-0.4904198 -2.834925,0.6340587 2.87792,-0.3954823 -2.854339,0.5399799 2.889423,-0.3001124 -2.870633,0.4453106 2.897766,-0.2044142 -2.883786,0.3501543 2.90294,-0.1084925 -2.893787,0.2546151 2.90494,-0.012452 -2.900623,0.1587976 2.903763,0.083602 -2.904287,0.062806 2.899411,0.1795642 -2.904776,-0.033254 2.891889,0.2753304 -2.902088,-0.129277 2.881205,0.3707954 -2.896228,-0.2251592 2.86737,0.4658551 -2.8872,-0.3207951 2.8504,0.5604052 -2.875015,-0.4160803 2.830313,0.6543427 -2.859686,-0.5109104 2.80713,0.7475645 -2.84123,-0.6051819 2.780878,0.839969 -2.819667,-0.6987917 2.751586,0.9314552 -2.795021,-0.7916376 2.719284,1.0219226 -2.767318,-0.8836175 2.684009,1.1112725 -2.73659,-0.9746312 2.645799,1.1994072 -2.70287,-1.0645791 2.604697,1.2862301 -2.666193,-1.1533627 2.560745,1.3716477 -2.626601,-1.240886 2.513993,1.455564 -2.584137,-1.327052 2.464493,1.53789 -2.538847,-1.411767 2.412298,1.618534 -2.490782,-1.494938 2.357465,1.697407 -2.439992,-1.576474 2.300054,1.774425 -2.386535,-1.656286 2.240128,1.849502 -2.330467,-1.734287 2.177753,1.922557 -2.271853,-1.810393 2.112996,1.99351 -2.210752,-1.884518 2.045928,2.062283 -2.147235,-1.956582 1.976624,2.1288 -2.08137,-2.026507 1.905158,2.19299 -2.013229,-2.094216 1.831609,2.254782 -1.942886,-2.159636 1.756056,2.314109 -1.870419,-2.222693 1.678584,2.370904 -1.795907,-2.28332 1.599276,2.425107 -1.71943,-2.34145 1.51822,2.476659 z"
       inkscape:randomized="0"
       inkscape:rounded="0"
       inkscape:flatsided="false"
       sodipodi:arg2="1.0287317"
       sodipodi:arg1="1.012197"
       sodipodi:r2="7.3309674"
       sodipodi:r1="4.4275284"
       sodipodi:cy="8.0116472"
       sodipodi:cx="7.9888549"
       sodipodi:sides="190"
       id="path4256"
       style="opacity:1;fill:#9d3a9b;fill-opacity:1;fill-rule:nonzero;stroke:none;stroke-width:0.25;stroke-linecap:round;stroke-linejoin:round;stroke-miterlimit:4;stroke-dasharray:none;stroke-dashoffset:0;stroke-opacity:1"
       sodipodi:type="star" />
    <path
       transform="matrix(0.9960548,-0.08874023,0.08874023,0.9960548,-0.67943781,0.74054033)"
       sodipodi:type="star"
       style="opacity:1;fill:#e602b4;fill-opacity:1;fill-rule:nonzero;stroke:none;stroke-width:0.25;stroke-linecap:round;stroke-linejoin:round;stroke-miterlimit:4;stroke-dasharray:none;stroke-dashoffset:0;stroke-opacity:1"
       id="path4258"
       sodipodi:sides="190"
       sodipodi:cx="7.9888549"
       sodipodi:cy="8.0116472"
       sodipodi:r1="4.4275284"
       sodipodi:r2="7.3309674"
       sodipodi:arg1="1.012197"
       sodipodi:arg2="1.0287317"
       inkscape:flatsided="false"
       inkscape:rounded="0"
       inkscape:randomized="0"
       d="m 10.33544,11.766184 1.435503,2.525502 -1.560923,-2.449969 1.351216,2.571584 -1.479066,-2.500239 1.265453,2.614854 -1.3955912,-2.547775 1.1783042,2.655265 -1.3105893,-2.592525 1.0898683,2.692771 -1.2241555,-2.63444 1.0002405,2.727334 -1.1363829,-2.673474 0.9095189,2.758914 -1.0473676,-2.709586 0.8178026,2.787478 -0.957207,-2.742734 0.7251918,2.812993 -0.8659993,-2.772882 0.6317883,2.835432 -0.773845,-2.799999 0.5376939,2.854771 -0.6808445,-2.824055 0.4430116,2.870988 -0.5870995,-2.845021 0.3478448,2.884066 -0.4927125,-2.862877 0.2522978,2.89399 -0.3977868,-2.877603 0.1564747,2.900749 -0.302426,-2.889181 0.060481,2.904337 -0.2067346,-2.897601 -0.03558,2.904749 -0.1108172,-2.902853 -0.1316009,2.901985 -0.014779,-2.90493 -0.2274783,2.896047 0.081276,-2.90383 -0.323107,2.886942 0.1772423,-2.899554 -0.4183824,2.87468 0.2730144,-2.892109 -0.5132003,2.859276 0.3684881,-2.881501 -0.607457,2.840744 0.4635587,-2.867742 -0.7010494,2.819106 0.5581225,-2.850847 -0.7938753,2.794386 0.6520759,-2.830835 -0.8858331,2.76661 0.7453164,-2.807728 -0.9768222,2.735809 0.8377419,-2.78155 -1.0667433,2.702016 0.9292513,-2.752331 -1.1554977,2.665269 1.0197445,-2.720102 -1.2429888,2.625607 1.1091227,-2.684898 -1.3291205,2.583074 1.197288,-2.646759 -1.413799,2.537716 1.2841443,-2.605726 -1.4969315,2.489584 1.3695962,-2.561842 -1.578427,2.438729 L 5.6154443,11.749284 3.9572476,14.134492 5.4931631,11.668768 3.75701,13.997846 5.3736109,11.584252 3.5613999,13.854654 5.2569184,11.49583 3.3706311,13.705073 5.1432132,11.403598 3.1849122,13.549266 5.0326197,11.307657 3.0044464,13.387404 4.9252588,11.208112 2.829431,13.219663 4.8212479,11.105072 2.6600573,13.046228 4.7207008,10.998648 2.4965106,12.867287 4.6237273,10.888959 2.3389697,12.683037 4.5304335,10.776124 2.1876068,12.493679 4.4409215,10.660265 2.0425876,12.299419 4.3552891,10.54151 1.9040705,12.100471 4.2736299,10.419989 1.772207,11.897052 4.1960333,10.295835 1.6471413,11.689385 4.122584,10.169182 1.5290102,11.477695 4.0533625,10.040171 1.4179428,11.262216 3.9884444,9.908941 1.3140607,11.043182 3.9279007,9.7756366 1.2174773,10.820834 3.8717975,9.6404033 1.1282983,10.595413 3.8201963,9.503389 1.0466213,10.367168 3.7731535,9.3647435 0.97253546,10.136346 3.7307205,9.2246184 0.90612188,9.9032012 3.6929437,9.083167 0.84745316,9.667988 3.6598644,8.9405438 0.79659346,9.4309636 3.6315188,8.7969049 0.7535984,9.1923872 3.6079379,8.6524074 0.71851498,8.9525197 3.5891474,8.5072092 0.69138157,8.7116234 3.575168,8.3614691 0.67222784,8.4699616 3.5660148,8.2153465 0.66107473,8.2277987 3.561698,8.0690011 0.65793445,7.9853994 3.5622222,7.922593 0.66281042,7.7430288 3.5675869,7.7762823 0.67569731,7.500952 3.5777861,7.630229 0.69658103,7.2594336 3.5928088,7.4845927 0.72543874,7.0187377 3.6126385,7.3395328 0.7622389,6.7791275 3.6372535,7.1952078 0.80694125,6.5408651 3.666627,7.0517756 0.85949692,6.304211 3.7007267,6.909393 0.91984844,6.0694239 3.7395155,6.7682157 0.98792981,5.8367607 3.7829508,6.628398 1.0636666,5.6064756 3.8309852,6.4900929 1.146976,5.3788205 3.8835662,6.3534517 1.2377668,5.1540445 3.9406363,6.2186236 1.3359399,4.9323931 4.002133,6.0857562 1.4413879,4.7141089 4.0679892,5.9549947 1.5539954,4.4994305 4.1381328,5.8264821 1.6736393,4.2885926 4.212487,5.700359 1.8001888,4.0818259 4.2909707,5.5767632 1.9335056,3.8793563 4.373498,5.45583 2.0734438,3.6814054 4.4599786,5.3376914 2.2198504,3.4881895 4.5503179,5.2224769 2.3725653,3.2999199 4.6444173,5.1103122 2.5314215,3.1168026 4.7421738,5.0013201 2.6962454,2.9390376 4.8434804,4.8956198 2.8668566,2.7668195 4.9482265,4.7933268 3.0430687,2.6003366 5.0562975,4.6945529 3.224689,2.4397708 5.1675751,4.5994063 3.4115187,2.2852978 5.2819378,4.5079909 3.6033538,2.1370865 5.3992605,4.4204067 3.7999843,1.995299 5.5194148,4.3367495 4.0011953,1.8600902 5.6422695,4.2571107 4.2067667,1.731608 5.7676901,4.1815774 4.4164738,1.609993 5.8955395,4.1102323 4.6300872,1.4953781 6.0256779,4.0431533 4.8473734,1.3878887 6.1579631,3.9804138 5.0680948,1.2876422 6.2922503,3.9220824 5.2920099,1.1947483 6.4283927,3.8682229 5.518874,1.1093086 6.5662414,3.8188941 5.7484391,1.0314165 6.7056457,3.7741501 5.9804539,0.96115724 6.8464533,3.7340397 6.214665,0.89860754 6.98851,3.6986068 6.4508161,0.84383585 7.1316606,3.6678902 6.688649,0.79690205 7.2757485,3.6419233 6.9279036,0.75785747 7.4206161,3.6207348 7.1683184,0.7267448 7.5661052,3.6043476 7.4096305,0.70359807 7.7120565,3.5927797 7.6515759,0.68844258 7.8583105,3.5860438 7.8938901,0.68129491 8.0047072,3.5841472 8.1363082,0.68216287 8.1510866,3.5870921 8.378565,0.69104551 8.2972886,3.5948751 8.6203957,0.70793313 8.4431534,3.6074878 8.8615358,0.73280724 8.5885213,3.6249164 9.1017216,0.76564067 8.7332336,3.6471418 9.3406906,0.80639749 8.8771318,3.6741397 9.5781813,0.85503315 9.0200588,3.7058806 9.8139341,0.91149447 9.1618581,3.7423298 10.047691,0.97571969 9.3023748,3.7834475 10.279197,1.0476386 9.4414552,3.8291886 10.508198,1.1271725 9.5789472,3.8795032 10.734445,1.2142346 9.7147004,3.9343362 10.957689,1.3087295 9.8485665,3.9936278 11.177687,1.4105539 9.9803989,4.0573129 11.394198,1.5195965 10.110054,4.1253221 11.606985,1.6357381 10.237389,4.1975809 11.815816,1.7588517 10.362265,4.2740103 12.020462,1.8888026 10.484547,4.3545268 12.2207,2.0254487 10.604099,4.4390423 12.41631,2.1686407 10.720791,4.5274643 12.607079,2.3182219 10.834497,4.6196963 12.792798,2.4740288 10.94509,4.7156373 12.973263,2.6358909 11.052451,4.8151825 13.148279,2.8036314 11.156462,4.9182229 13.317652,2.9770668 11.257009,5.024646 13.481199,3.1560074 11.353982,5.1343353 13.63874,3.3402576 11.447276,5.2471709 13.790103,3.5296159 11.536788,5.3630294 13.935122,3.7238753 11.622421,5.4817842 14.073639,3.9228232 11.70408,5.6033053 14.205503,4.1262422 11.781677,5.7274599 14.330568,4.3339098 11.855126,5.8541122 14.4487,4.545599 l -2.524353,1.4375248 2.63542,-1.2220455 -2.570502,1.3532752 2.674384,-1.1342415 -2.61384,1.2675459 2.710423,-1.0451972 -2.65432,1.1804305 2.743499,-0.9550101 -2.691898,1.0920244 2.773575,-0.8637786 -2.726532,1.0024241 2.800618,-0.7716026 -2.758185,0.9117276 2.824599,-0.6785828 -2.786822,0.8200343 2.845491,-0.5848211 -2.812412,0.7274442 2.863271,-0.4904198 -2.834925,0.6340587 2.87792,-0.3954823 -2.854339,0.5399799 2.889423,-0.3001124 -2.870633,0.4453106 2.897766,-0.2044142 -2.883786,0.3501543 2.90294,-0.1084925 -2.893787,0.2546151 2.90494,-0.012452 -2.900623,0.1587976 2.903763,0.083602 -2.904287,0.062806 2.899411,0.1795642 -2.904776,-0.033254 2.891889,0.2753304 -2.902088,-0.129277 2.881205,0.3707954 -2.896228,-0.2251592 2.86737,0.4658551 -2.8872,-0.3207951 2.8504,0.5604052 -2.875015,-0.4160803 2.830313,0.6543427 -2.859686,-0.5109104 2.80713,0.7475645 -2.84123,-0.6051819 2.780878,0.839969 -2.819667,-0.6987917 2.751586,0.9314552 -2.795021,-0.7916376 2.719284,1.0219226 -2.767318,-0.8836175 2.684009,1.1112725 -2.73659,-0.9746312 2.645799,1.1994072 -2.70287,-1.0645791 2.604697,1.2862301 -2.666193,-1.1533627 2.560745,1.3716477 -2.626601,-1.240886 2.513993,1.455564 -2.584137,-1.327052 2.464493,1.53789 -2.538847,-1.411767 2.412298,1.618534 -2.490782,-1.494938 2.357465,1.697407 -2.439992,-1.576474 2.300054,1.774425 -2.386535,-1.656286 2.240128,1.849502 -2.330467,-1.734287 2.177753,1.922557 -2.271853,-1.810393 2.112996,1.99351 -2.210752,-1.884518 2.045928,2.062283 -2.147235,-1.956582 1.976624,2.1288 -2.08137,-2.026507 1.905158,2.19299 -2.013229,-2.094216 1.831609,2.254782 -1.942886,-2.159636 1.756056,2.314109 -1.870419,-2.222693 1.678584,2.370904 -1.795907,-2.28332 1.599276,2.425107 -1.71943,-2.34145 1.51822,2.476659 z" />
    <circle
       r="4.75"
       cy="8.0109997"
       cx="7.9888549"
       id="path4252"
       style="opacity:1;fill:#e602b4;fill-opacity:1;fill-rule:nonzero;stroke:none;stroke-width:0.25;stroke-linecap:round;stroke-linejoin:round;stroke-miterlimit:4;stroke-dasharray:none;stroke-dashoffset:0;stroke-opacity:1" />
  </g>
</svg>
