<?xml version="1.0" encoding="UTF-8"?>
<svg xmlns="http://www.w3.org/2000/svg" xmlns:xlink="http://www.w3.org/1999/xlink" width="24px" height="24px" viewBox="0 0 24 24" version="1.1">
<g id="surface1">
<path style=" stroke:none;fill-rule:evenodd;fill:rgb(90.196079%,0.784314%,70.588237%);fill-opacity:1;" d="M 6.089844 15.882812 L 6.089844 16.589844 L 6.792969 16.589844 L 7.5 17.292969 L 8.207031 17.292969 L 8.207031 15.882812 L 6.792969 15.179688 Z M 6.089844 15.882812 "/>
<path style=" stroke:none;fill-rule:evenodd;fill:rgb(90.196079%,0.784314%,70.588237%);fill-opacity:1;" d="M 6.792969 16.589844 L 6.792969 17.292969 L 6.089844 17.292969 L 6.089844 19.410156 L 6.792969 18.707031 C 6.792969 18.707031 7.5 18 7.5 18 L 7.5 17.292969 Z M 6.792969 16.589844 "/>
<path style=" stroke:none;fill-rule:evenodd;fill:rgb(90.196079%,0.784314%,70.588237%);fill-opacity:1;" d="M 8.207031 16.589844 L 8.910156 17.292969 L 9.617188 16.589844 L 10.792969 15.414062 L 8.441406 14.472656 L 8.207031 15.882812 Z M 8.207031 16.589844 "/>
<path style=" stroke:none;fill-rule:evenodd;fill:rgb(90.196079%,0.784314%,70.588237%);fill-opacity:1;" d="M 6.089844 18 L 5.382812 18.703125 L 5.382812 19.410156 L 3.972656 20.117188 C 3.972656 20.820312 4.679688 20.820312 4.679688 20.820312 L 5.136719 21.28125 L 5.507812 21.28125 L 6.089844 20.117188 Z M 6.089844 18 "/>
<path style=" stroke:none;fill-rule:evenodd;fill:rgb(90.196079%,0.784314%,70.588237%);fill-opacity:1;" d="M 6.089844 19.410156 L 7.5 19.410156 L 8.207031 18.707031 L 7.5 18 Z M 6.089844 19.410156 "/>
<path style=" stroke:none;fill-rule:evenodd;fill:rgb(90.196079%,0.784314%,70.588237%);fill-opacity:1;" d="M 8.910156 18.707031 L 8.910156 20.117188 L 9.617188 20.117188 L 9.617188 18.707031 Z M 8.910156 18.707031 "/>
<path style=" stroke:none;fill-rule:evenodd;fill:rgb(90.196079%,0.784314%,70.588237%);fill-opacity:1;" d="M 8.269531 18.738281 L 7.378906 19.496094 L 6.128906 19.453125 L 6.085938 19.941406 L 5.597656 21.28125 L 8.988281 21.28125 L 9.648438 20.386719 L 8.804688 20.121094 Z M 8.269531 18.738281 "/>
<path style=" stroke:none;fill-rule:evenodd;fill:rgb(90.196079%,0.784314%,70.588237%);fill-opacity:0.859649;" d="M 11.074219 20.386719 L 10.226562 20.519531 L 9.425781 20.742188 L 9.878906 21.28125 L 13.113281 21.28125 L 12.855469 20.785156 L 11.964844 20.5625 Z M 11.074219 20.386719 "/>
<path style=" stroke:none;fill-rule:evenodd;fill:rgb(90.196079%,0.784314%,70.588237%);fill-opacity:1;" d="M 10.226562 20.296875 L 10.40625 19.140625 L 10.140625 18.871094 L 10.316406 17.980469 L 10.851562 17 L 10.316406 17.046875 C 10.316406 17.046875 9.605469 17.179688 9.917969 17.046875 C 10.226562 16.914062 10.496094 15.710938 10.496094 15.710938 C 10.496094 15.710938 10.140625 15.441406 10.140625 15.933594 C 10.140625 16.421875 10.140625 17.402344 9.917969 17.625 C 9.695312 17.847656 9.425781 18.871094 9.425781 18.871094 C 9.425781 18.871094 9.917969 19.808594 9.917969 20.03125 C 9.917969 20.253906 9.78125 20.789062 9.78125 20.789062 Z M 10.226562 20.296875 "/>
<path style=" stroke:none;fill-rule:evenodd;fill:rgb(90.196079%,0.784314%,70.588237%);fill-opacity:1;" d="M 3.769531 19.761719 L 3.859375 18.917969 L 3.546875 18.515625 C 3.546875 18.515625 3.234375 17.667969 3.457031 17.492188 C 3.679688 17.3125 4.171875 16.601562 4.484375 16.46875 C 4.792969 16.332031 5.152344 16.46875 5.0625 16.15625 C 4.972656 15.84375 4.304688 15.621094 4.660156 15.132812 C 5.015625 14.640625 5.910156 12.546875 6.089844 12.589844 C 6.660156 12.339844 7.675781 13.910156 6.53125 14.773438 L 7.019531 15.042969 L 6.175781 15.933594 L 6.265625 16.644531 C 6.265625 16.644531 6.976562 16.691406 6.886719 16.914062 C 6.796875 17.136719 6.664062 17.269531 6.664062 17.269531 L 5.953125 17.3125 L 5.238281 16.914062 L 5.0625 17.535156 C 5.0625 17.535156 5.550781 17.582031 5.152344 17.804688 C 4.75 18.027344 4.125 17.847656 4.214844 18.113281 C 4.304688 18.382812 5.460938 19.007812 5.285156 19.09375 C 5.105469 19.183594 4.484375 19.496094 4.484375 19.496094 Z M 3.769531 19.761719 "/>
<path style=" stroke:none;fill-rule:evenodd;fill:rgb(90.196079%,0.784314%,70.588237%);fill-opacity:1;" d="M 3.414062 20.609375 C 3.324219 20.964844 2.921875 20.742188 3.324219 21.144531 C 3.375 21.195312 3.402344 21.234375 3.4375 21.28125 L 3.945312 21.28125 C 4 21.171875 4.082031 21.011719 4.082031 21.011719 Z M 3.414062 20.609375 "/>
<path style=" stroke:none;fill-rule:evenodd;fill:rgb(90.196079%,0.784314%,70.588237%);fill-opacity:1;" d="M 1.988281 19.050781 L 2.121094 19.941406 L 2.523438 19.453125 L 2.433594 19.140625 Z M 1.988281 19.050781 "/>
<path style=" stroke:none;fill-rule:evenodd;fill:rgb(90.196079%,0.784314%,70.588237%);fill-opacity:1;" d="M 9.425781 18.515625 C 9.25 18.648438 8.714844 18.382812 8.757812 18.738281 C 8.804688 19.09375 8.980469 20.253906 8.980469 20.253906 L 8.179688 18.960938 L 7.464844 18.027344 L 7.644531 17.269531 L 8.355469 17.582031 L 8.222656 18.292969 L 8.667969 19.007812 Z M 9.425781 18.515625 "/>
<path style=" stroke:none;fill-rule:evenodd;fill:rgb(90.196079%,0.784314%,70.588237%);fill-opacity:1;" d="M 8.625 18.070312 L 9.203125 18.027344 L 9.558594 17.269531 L 9.605469 16.824219 C 9.605469 16.824219 9.160156 17.3125 8.980469 17.222656 C 8.804688 17.136719 8.359375 16.691406 8.359375 16.691406 L 8.3125 17.582031 Z M 8.625 18.070312 "/>
<path style=" stroke:none;fill-rule:evenodd;fill:rgb(90.196079%,0.784314%,70.588237%);fill-opacity:1;" d="M 5.015625 19.417969 L 5.160156 19.128906 C 5.160156 19.128906 5.429688 19.117188 5.375 19.050781 C 5.316406 18.984375 4.894531 18.671875 4.894531 18.671875 C 4.894531 18.671875 4.671875 18.40625 4.695312 18.316406 C 4.714844 18.226562 5.0625 17.902344 5.0625 17.902344 L 5.363281 17.691406 C 5.363281 17.691406 5.09375 17.601562 5.105469 17.445312 C 5.117188 17.292969 5.183594 16.902344 5.25 16.945312 C 5.316406 16.992188 5.929688 17.191406 5.929688 17.191406 C 5.929688 17.191406 6.085938 17.035156 6.085938 17.28125 C 6.085938 17.523438 6.265625 17.703125 6.21875 17.78125 C 6.175781 17.859375 6.050781 18.148438 5.875 18.238281 C 5.695312 18.328125 5.417969 18.738281 5.417969 18.738281 C 5.417969 18.738281 5.40625 19.09375 5.382812 19.140625 C 5.363281 19.183594 5.304688 19.417969 5.304688 19.417969 L 4.871094 19.707031 Z M 5.015625 19.417969 "/>
<path style=" stroke:none;fill-rule:evenodd;fill:rgb(90.196079%,0.784314%,70.588237%);fill-opacity:1;" d="M 6.324219 14.472656 L 6.324219 15.179688 L 7.5 15.882812 C 8.273438 15.132812 7.554688 15.550781 7.734375 15.882812 L 8.441406 15.882812 L 8.441406 14.472656 L 7.03125 13.765625 Z M 6.324219 14.472656 "/>
<path style="fill-rule:nonzero;fill:rgb(95.294118%,71.764708%,85.09804%);fill-opacity:1;stroke-width:0.264583;stroke-linecap:butt;stroke-linejoin:miter;stroke:rgb(90.196079%,0.784314%,70.588237%);stroke-opacity:1;stroke-miterlimit:4;" d="M 2.910417 0.396875 L 1.61575 1.982308 L 2.457731 2.689931 L 3.836458 1.058333 L 3.836458 0.396875 Z M 2.910417 0.396875 " transform="matrix(5.669291,0,0,5.669291,0.00000135166,0)"/>
<path style="fill-rule:nonzero;fill:rgb(61.56863%,22.745098%,60.784316%);fill-opacity:1;stroke-width:0.264583;stroke-linecap:round;stroke-linejoin:round;stroke:rgb(90.196079%,0.784314%,70.588237%);stroke-opacity:1;stroke-miterlimit:4;" d="M 3.616993 0.625208 C 3.617007 0.7773 3.370589 0.900685 3.066932 0.900268 C 2.763275 0.899852 2.51716 0.777277 2.517146 0.625184 C 2.517133 0.473092 2.763466 0.350678 3.06668 0.350567 C 3.370865 0.35054 3.616452 0.473559 3.616993 0.625208 Z M 3.616993 0.625208 " transform="matrix(4.340172,3.647433,-3.647433,4.340172,0.00000135166,0)"/>
</g>
</svg>
