<?xml version="1.0" encoding="UTF-8" standalone="no"?>
<svg
   xmlns:dc="http://purl.org/dc/elements/1.1/"
   xmlns:cc="http://creativecommons.org/ns#"
   xmlns:rdf="http://www.w3.org/1999/02/22-rdf-syntax-ns#"
   xmlns:svg="http://www.w3.org/2000/svg"
   xmlns="http://www.w3.org/2000/svg"
   xmlns:sodipodi="http://sodipodi.sourceforge.net/DTD/sodipodi-0.dtd"
   xmlns:inkscape="http://www.inkscape.org/namespaces/inkscape"
   height="24"
   width="24"
   id="svg2"
   version="1.1"
   inkscape:version="0.91 r13725"
   sodipodi:docname="lc_glueescapedirectionright.svg"
   inkscape:export-filename="/home/tamara/Desktop/IKON/5_258 (tamara)/sc (222)/Tanggal 15/lc_glueescapedirectionright.png"
   inkscape:export-xdpi="90"
   inkscape:export-ydpi="90">
  <metadata
     id="metadata50">
    <rdf:RDF>
      <cc:Work
         rdf:about="">
        <dc:format>image/svg+xml</dc:format>
        <dc:type
           rdf:resource="http://purl.org/dc/dcmitype/StillImage" />
        <dc:title />
      </cc:Work>
    </rdf:RDF>
  </metadata>
  <defs
     id="defs48" />
  <sodipodi:namedview
     pagecolor="#ffffff"
     bordercolor="#666666"
     borderopacity="1"
     objecttolerance="10"
     gridtolerance="10"
     guidetolerance="10"
     inkscape:pageopacity="0"
     inkscape:pageshadow="2"
     inkscape:window-width="1366"
     inkscape:window-height="718"
     id="namedview46"
     showgrid="true"
     inkscape:zoom="10.429825"
     inkscape:cx="16.409494"
     inkscape:cy="11.014758"
     inkscape:window-x="0"
     inkscape:window-y="0"
     inkscape:window-maximized="1"
     inkscape:current-layer="svg2">
    <inkscape:grid
       type="xygrid"
       id="grid4178" />
  </sodipodi:namedview>
  <linearGradient
     id="a"
     gradientTransform="matrix(0.00809713,0,0,0.01789139,-8.5255144,-6.8317362)"
     gradientUnits="userSpaceOnUse"
     x1="399.77466"
     x2="399.77466"
     y1="1164.6696"
     y2="549.06134">
    <stop
       offset="0"
       stop-color="#a7a7a9"
       id="stop5" />
    <stop
       offset=".5"
       stop-color="#7d7d83"
       id="stop7" />
    <stop
       offset="1"
       stop-color="#aaaab1"
       id="stop9" />
  </linearGradient>
  <linearGradient
     id="b"
     gradientTransform="matrix(0.06250001,0,0,0.12500001,-8.0000001,-16.5)"
     gradientUnits="userSpaceOnUse"
     x1="-63.999985"
     x2="124.09152"
     y1="135.99998"
     y2="27.999992">
    <stop
       offset="0"
       stop-color="#fff"
       id="stop12" />
    <stop
       offset=".42597079"
       stop-color="#fff"
       id="stop14" />
    <stop
       offset=".5892781"
       stop-color="#f1f1f1"
       id="stop16" />
    <stop
       offset=".80219781"
       stop-color="#eaeaea"
       id="stop18" />
    <stop
       offset="1"
       stop-color="#dfdfdf"
       id="stop20" />
  </linearGradient>
  <linearGradient
     id="c"
     gradientTransform="matrix(0.24034901,0,0,0.25000004,-12.332024,-2)"
     gradientUnits="userSpaceOnUse"
     x1="102.31124"
     x2="74.330322"
     y1="-5.8302131"
     y2="32">
    <stop
       offset="0"
       stop-color="#fff"
       id="stop23" />
    <stop
       offset="1"
       stop-color="#fff"
       stop-opacity="0"
       id="stop25" />
  </linearGradient>
  <linearGradient
     id="d"
     gradientTransform="matrix(0.06751888,0.06751888,0.06076699,-0.06076699,14.662399,3.833948)"
     gradientUnits="userSpaceOnUse"
     x1="-21.213205"
     x2="48.161743"
     y1="-80.024391"
     y2="-154.92334">
    <stop
       offset="0"
       stop-color="#0968ef"
       id="stop28" />
    <stop
       offset="1"
       stop-color="#aecffc"
       id="stop30" />
  </linearGradient>
  <g
     id="g4160">
    <g
       transform="matrix(0,-1,1,0,0,24)"
       id="g4942">
      <rect
         height="22"
         rx="0.74832696"
         ry="0.87031615"
         transform="matrix(0,1,1,0,0,0)"
         width="22"
         x="1"
         y="1"
         id="rect54"
         style="opacity:1;fill:#9e3a9c;fill-opacity:1" />
      <rect
         style="fill:#f0e3ec;fill-opacity:1;fill-rule:evenodd"
         id="rect58"
         y="2"
         x="2"
         width="20"
         transform="matrix(0,1,1,0,0,0)"
         ry="1.25"
         rx="1.2499988"
         height="20" />
    </g>
    <path
       d="m 12.275005,12.259202 c 0,0.262947 0.179894,0.480664 0.420536,0.532719 l 0,3.95e-4 7.53e-4,0 c 0.03546,0.0075 0.07201,0.01205 0.109763,0.01205 l 0.408468,0 9.729673,0 0.408468,0 c 0.03774,0 0.07428,-0.0045 0.109749,-0.01205 l 7.73e-4,0 0,-3.95e-4 c 0.240624,-0.05204 0.420518,-0.269772 0.420518,-0.532719 l 0,-0.495551 c 0,-0.26226 -0.178958,-0.479934 -0.418651,-0.532717 l -0.0012,-0.0244 -3.470278,-0.005 0,-0.0059 -1.914072,0.0027 -1.91448,-0.0027 0,0.0059 -3.470275,0.005 -0.0011,0.0244 c -0.239691,0.0528 -0.41865,0.270467 -0.41865,0.532727 z"
       id="path40"
       inkscape:connector-curvature="0"
       style="fill:#f3b7d9;stroke:#9d3a9b;stroke-width:0.25;stroke-linecap:round;stroke-linejoin:round;stroke-miterlimit:4;stroke-dasharray:none;stroke-opacity:1" />
    <path
       d="m 5.8823645,7.411721 4.5882255,4.58828 -4.5882255,4.58828 1.5294095,1.529427 4.588227,-4.588279 4.588228,4.588279 1.529407,-1.529427 -4.588225,-4.58828 4.588225,-4.58828 -1.529409,-1.529429 -4.588226,4.588282 -4.588227,-4.588282 z"
       id="path44"
       style="fill:#e602b4;fill-opacity:1;stroke:#9d3a9b;stroke-width:0.25;stroke-miterlimit:4;stroke-dasharray:none;stroke-opacity:1"
       inkscape:connector-curvature="0" />
  </g>
</svg>
