<?xml version="1.0" encoding="UTF-8" standalone="no"?>
<svg
   xmlns:dc="http://purl.org/dc/elements/1.1/"
   xmlns:cc="http://creativecommons.org/ns#"
   xmlns:rdf="http://www.w3.org/1999/02/22-rdf-syntax-ns#"
   xmlns:svg="http://www.w3.org/2000/svg"
   xmlns="http://www.w3.org/2000/svg"
   xmlns:sodipodi="http://sodipodi.sourceforge.net/DTD/sodipodi-0.dtd"
   xmlns:inkscape="http://www.inkscape.org/namespaces/inkscape"
   height="24"
   width="24"
   id="svg2"
   version="1.1"
   inkscape:version="0.91 r13725"
   sodipodi:docname="lc_gluehorzalignleft.svg"
   inkscape:export-filename="/home/tamara/Desktop/IKON/5_258 (tamara)/sc (222)/Tanggal 15/lc_gluehorzalignleft.png"
   inkscape:export-xdpi="90"
   inkscape:export-ydpi="90">
  <metadata
     id="metadata56">
    <rdf:RDF>
      <cc:Work
         rdf:about="">
        <dc:format>image/svg+xml</dc:format>
        <dc:type
           rdf:resource="http://purl.org/dc/dcmitype/StillImage" />
        <dc:title />
      </cc:Work>
    </rdf:RDF>
  </metadata>
  <defs
     id="defs54" />
  <sodipodi:namedview
     pagecolor="#ffffff"
     bordercolor="#666666"
     borderopacity="1"
     objecttolerance="10"
     gridtolerance="10"
     guidetolerance="10"
     inkscape:pageopacity="0"
     inkscape:pageshadow="2"
     inkscape:window-width="1366"
     inkscape:window-height="718"
     id="namedview52"
     showgrid="true"
     inkscape:zoom="16.000001"
     inkscape:cx="-3.7057368"
     inkscape:cy="15.947909"
     inkscape:window-x="0"
     inkscape:window-y="0"
     inkscape:window-maximized="1"
     inkscape:current-layer="svg2">
    <inkscape:grid
       type="xygrid"
       id="grid4184" />
  </sodipodi:namedview>
  <linearGradient
     id="a"
     gradientTransform="matrix(0.00809713,0,0,0.01789139,-8.5255144,-6.8317362)"
     gradientUnits="userSpaceOnUse"
     x1="399.77466"
     x2="399.77466"
     y1="1164.6696"
     y2="549.06134">
    <stop
       offset="0"
       stop-color="#a7a7a9"
       id="stop5" />
    <stop
       offset=".5"
       stop-color="#7d7d83"
       id="stop7" />
    <stop
       offset="1"
       stop-color="#aaaab1"
       id="stop9" />
  </linearGradient>
  <linearGradient
     id="b"
     gradientTransform="matrix(0.06250001,0,0,0.12500001,-8.0000001,-16.5)"
     gradientUnits="userSpaceOnUse"
     x1="-63.999985"
     x2="124.09152"
     y1="135.99998"
     y2="27.999992">
    <stop
       offset="0"
       stop-color="#fff"
       id="stop12" />
    <stop
       offset=".42597079"
       stop-color="#fff"
       id="stop14" />
    <stop
       offset=".5892781"
       stop-color="#f1f1f1"
       id="stop16" />
    <stop
       offset=".80219781"
       stop-color="#eaeaea"
       id="stop18" />
    <stop
       offset="1"
       stop-color="#dfdfdf"
       id="stop20" />
  </linearGradient>
  <linearGradient
     id="c"
     gradientTransform="matrix(0.24034901,0,0,0.25000004,-12.332024,-2)"
     gradientUnits="userSpaceOnUse"
     x1="102.31124"
     x2="74.330322"
     y1="-5.8302131"
     y2="32">
    <stop
       offset="0"
       stop-color="#fff"
       id="stop23" />
    <stop
       offset="1"
       stop-color="#fff"
       stop-opacity="0"
       id="stop25" />
  </linearGradient>
  <linearGradient
     id="d"
     gradientTransform="matrix(0.06751888,-0.06751888,0.06076699,0.06076699,15.541078,9.9944793)"
     gradientUnits="userSpaceOnUse"
     x1="-21.213205"
     x2="25.455845"
     y1="-80.024391"
     y2="-104.6518">
    <stop
       offset="0"
       stop-color="#0968ef"
       id="stop28" />
    <stop
       offset="1"
       stop-color="#aecffc"
       id="stop30" />
  </linearGradient>
  <g
     id="g4160">
    <g
       transform="matrix(0,-1,1,0,0,24)"
       id="g4942">
      <rect
         height="22"
         rx="0.74832696"
         ry="0.87031615"
         transform="matrix(0,1,1,0,0,0)"
         width="22"
         x="1"
         y="1"
         id="rect54-3"
         style="opacity:1;fill:#9e3a9c;fill-opacity:1" />
      <rect
         style="fill:#f0e3ec;fill-opacity:1;fill-rule:evenodd"
         id="rect58-6"
         y="2"
         x="2"
         width="20"
         transform="matrix(0,1,1,0,0,0)"
         ry="1.25"
         rx="1.2499988"
         height="20" />
    </g>
    <path
       id="rect4260"
       d="m 15.570312,8.0742188 c -0.421922,0 -0.761718,0.3378452 -0.761718,0.7597656 l 0,9.2246096 -9.0800784,0 0,-0.589844 c 0,-0.386001 -0.3112647,-0.697266 -0.6972656,-0.697266 l -3.2089844,0 C 1.4362647,16.771484 1.125,17.082749 1.125,17.46875 l 0,2.708984 c 0,0.386001 0.3112647,0.697266 0.6972656,0.697266 l 3.2089844,0 c 0.3860009,0 0.6972656,-0.311265 0.6972656,-0.697266 l 0,-0.589843 9.4648434,0 c 0.06711,0 0.127867,-0.02313 0.189453,-0.04102 0.06155,0.01595 0.120824,0.03906 0.1875,0.03906 0.421923,0 0.761719,-0.339799 0.761719,-0.761719 l 0,-9.9902346 c 0,-0.4219204 -0.339796,-0.7597656 -0.761719,-0.7597656 z"
       style="opacity:1;fill:#f3b7d9;fill-opacity:1;fill-rule:nonzero;stroke:#9d3a9b;stroke-width:0.24420547;stroke-linecap:round;stroke-linejoin:round;stroke-miterlimit:4;stroke-dasharray:none;stroke-dashoffset:0;stroke-opacity:1"
       inkscape:connector-curvature="0" />
    <path
       d="m 11.199801,5.1514458 3.277999,3.278038 -3.277999,3.2780372 1.092667,1.09268 3.278,-3.2780372 3.278,3.2780372 1.092666,-1.09268 -3.277999,-3.2780372 3.277999,-3.278038 -1.092667,-1.092681 -3.277999,3.278039 -3.278,-3.278039 z"
       id="path44"
       style="fill:#e602b4;fill-opacity:1;stroke:#9d3a9b;stroke-width:0.25;stroke-miterlimit:4;stroke-dasharray:none;stroke-opacity:1"
       inkscape:connector-curvature="0" />
  </g>
</svg>
