<?xml version="1.0" encoding="UTF-8"?>
<svg xmlns="http://www.w3.org/2000/svg" xmlns:xlink="http://www.w3.org/1999/xlink" width="24px" height="24px" viewBox="0 0 24 24" version="1.1">
<g id="surface1">
<path style=" stroke:none;fill-rule:nonzero;fill:rgb(90.196079%,0.784314%,70.588237%);fill-opacity:1;" d="M 3 20.285156 L 3 3.714844 C 3 3.320312 3.371094 3 3.832031 3 L 20.167969 3 C 20.628906 3 21 3.320312 21 3.714844 L 21 20.285156 C 21 20.679688 20.628906 21 20.167969 21 L 3.832031 21 C 3.371094 21 3 20.679688 3 20.285156 Z M 3 20.285156 "/>
<path style=" stroke:none;fill-rule:evenodd;fill:rgb(94.117647%,89.019608%,92.54902%);fill-opacity:1;" d="M 4.5 18.375 L 4.5 5.625 C 4.5 5.003906 5.003906 4.5 5.625 4.5 L 18.375 4.5 C 18.996094 4.5 19.5 5.003906 19.5 5.625 L 19.5 18.375 C 19.5 18.996094 18.996094 19.5 18.375 19.5 L 5.625 19.5 C 5.003906 19.5 4.5 18.996094 4.5 18.375 Z M 4.5 18.375 "/>
<path style=" stroke:none;fill-rule:nonzero;fill:rgb(90.196079%,0.784314%,70.588237%);fill-opacity:1;" d="M 14.242188 8.429688 C 13.871094 8.429688 13.570312 8.757812 13.570312 9.167969 L 13.570312 16.53125 L 6.824219 16.53125 C 6.824219 16.53125 6.820312 16.53125 6.820312 16.53125 L 6.820312 15.792969 C 6.820312 15.488281 6.59375 15.242188 6.3125 15.242188 L 3.617188 15.242188 C 3.335938 15.242188 3.109375 15.488281 3.109375 15.792969 L 3.109375 18.738281 C 3.109375 19.042969 3.335938 19.289062 3.617188 19.289062 L 6.3125 19.289062 C 6.59375 19.289062 6.820312 19.042969 6.820312 18.738281 L 6.820312 18 C 6.820312 18 6.824219 18 6.824219 18 L 14.242188 18 C 14.335938 18 14.425781 17.980469 14.507812 17.945312 C 14.75 17.832031 14.917969 17.570312 14.917969 17.265625 L 14.917969 9.167969 C 14.917969 8.757812 14.617188 8.429688 14.242188 8.429688 Z M 14.242188 8.429688 "/>
<path style="fill:none;stroke-width:1.220553;stroke-linecap:round;stroke-linejoin:miter;stroke:rgb(61.56863%,22.745098%,60.784316%);stroke-opacity:1;stroke-miterlimit:4;" d="M 5.5015 5.50076 L 10.499989 10.501562 " transform="matrix(0,-1.239437,-1.218554,0,23.913913,19.5922)"/>
<path style="fill:none;stroke-width:1.220553;stroke-linecap:round;stroke-linejoin:miter;stroke:rgb(61.56863%,22.745098%,60.784316%);stroke-opacity:1;stroke-miterlimit:4;" d="M 10.499989 5.50076 L 5.5015 10.501562 " transform="matrix(0,-1.239437,-1.218554,0,23.913913,19.5922)"/>
</g>
</svg>
