<?xml version="1.0" encoding="UTF-8"?>
<svg xmlns="http://www.w3.org/2000/svg" xmlns:xlink="http://www.w3.org/1999/xlink" width="24px" height="24px" viewBox="0 0 24 24" version="1.1">
<g id="surface1">
<path style=" stroke:none;fill-rule:nonzero;fill:rgb(61.56863%,22.745098%,60.784316%);fill-opacity:1;" d="M 17.960938 12 L 17.960938 13.5 L 16.5 13.5 L 16.5 12 Z M 17.960938 12 "/>
<path style=" stroke:none;fill-rule:nonzero;fill:rgb(61.56863%,22.745098%,60.784316%);fill-opacity:1;" d="M 1.539062 22.476562 L 4.4375 22.476562 C 4.460938 22.476562 4.476562 22.457031 4.476562 22.429688 L 4.476562 19.546875 C 4.476562 19.519531 4.460938 19.5 4.4375 19.5 L 1.539062 19.5 C 1.515625 19.5 1.5 19.519531 1.5 19.546875 L 1.5 22.429688 C 1.5 22.457031 1.515625 22.476562 1.539062 22.476562 Z M 1.539062 22.476562 "/>
<path style=" stroke:none;fill-rule:nonzero;fill:rgb(61.56863%,22.745098%,60.784316%);fill-opacity:1;" d="M 18.039062 22.5 L 20.960938 22.5 C 20.984375 22.5 21 22.480469 21 22.453125 L 21 19.546875 C 21 19.519531 20.984375 19.5 20.960938 19.5 L 18.039062 19.5 C 18.015625 19.5 18 19.519531 18 19.546875 L 18 22.453125 C 18 22.480469 18.015625 22.5 18.039062 22.5 Z M 18.039062 22.5 "/>
<path style=" stroke:none;fill-rule:nonzero;fill:rgb(61.56863%,22.745098%,60.784316%);fill-opacity:1;" d="M 1.539062 6 L 4.460938 6 C 4.484375 6 4.5 5.980469 4.5 5.953125 L 4.5 3.046875 C 4.5 3.019531 4.484375 3 4.460938 3 L 1.539062 3 C 1.515625 3 1.5 3.019531 1.5 3.046875 L 1.5 5.953125 C 1.5 5.980469 1.515625 6 1.539062 6 Z M 1.539062 6 "/>
<path style=" stroke:none;fill-rule:nonzero;fill:rgb(61.56863%,22.745098%,60.784316%);fill-opacity:1;" d="M 21 13.5 L 21 15 L 19.5 15 L 19.5 13.5 Z M 21 13.5 "/>
<path style=" stroke:none;fill-rule:nonzero;fill:rgb(61.56863%,22.745098%,60.784316%);fill-opacity:1;" d="M 21 16.5 L 21 18.160156 L 19.5 18.160156 L 19.5 16.5 Z M 21 16.5 "/>
<path style=" stroke:none;fill-rule:nonzero;fill:rgb(61.56863%,22.745098%,60.784316%);fill-opacity:1;" d="M 16.5 19.5 L 16.5 21 L 15 21 L 15 19.5 Z M 16.5 19.5 "/>
<path style=" stroke:none;fill-rule:nonzero;fill:rgb(61.56863%,22.745098%,60.784316%);fill-opacity:1;" d="M 13.5 19.5 L 13.5 21 L 12 21 L 12 19.5 Z M 13.5 19.5 "/>
<path style=" stroke:none;fill-rule:nonzero;fill:rgb(61.56863%,22.745098%,60.784316%);fill-opacity:1;" d="M 10.5 19.5 L 10.5 21 L 9 21 L 9 19.5 Z M 10.5 19.5 "/>
<path style=" stroke:none;fill-rule:nonzero;fill:rgb(61.56863%,22.745098%,60.784316%);fill-opacity:1;" d="M 7.5 19.5 L 7.5 21 L 6 21 L 6 19.5 Z M 7.5 19.5 "/>
<path style=" stroke:none;fill-rule:nonzero;fill:rgb(61.56863%,22.745098%,60.784316%);fill-opacity:1;" d="M 13.5 4.5 L 13.5 6 L 12 6 L 12 4.5 Z M 13.5 4.5 "/>
<path style=" stroke:none;fill-rule:nonzero;fill:rgb(61.56863%,22.745098%,60.784316%);fill-opacity:1;" d="M 10.5 4.5 L 10.5 6 L 9 6 L 9 4.5 Z M 10.5 4.5 "/>
<path style=" stroke:none;fill-rule:nonzero;fill:rgb(61.56863%,22.745098%,60.784316%);fill-opacity:1;" d="M 7.5 4.5 L 7.5 6 L 6 6 L 6 4.5 Z M 7.5 4.5 "/>
<path style=" stroke:none;fill-rule:nonzero;fill:rgb(61.56863%,22.745098%,60.784316%);fill-opacity:1;" d="M 16.5 4.5 L 16.5 6 L 15 6 L 15 4.5 Z M 16.5 4.5 "/>
<path style=" stroke:none;fill-rule:nonzero;fill:rgb(61.56863%,22.745098%,60.784316%);fill-opacity:1;" d="M 4.5 18.183594 L 3 18.183594 L 3 16.5 L 4.5 16.5 Z M 4.5 18.183594 "/>
<path style=" stroke:none;fill-rule:nonzero;fill:rgb(61.56863%,22.745098%,60.784316%);fill-opacity:1;" d="M 4.5 15 L 3 15 L 3 13.5 L 4.5 13.5 Z M 4.5 15 "/>
<path style=" stroke:none;fill-rule:nonzero;fill:rgb(61.56863%,22.745098%,60.784316%);fill-opacity:1;" d="M 4.5 12 L 3 12 L 3 10.5 L 4.5 10.5 Z M 4.5 12 "/>
<path style=" stroke:none;fill-rule:nonzero;fill:rgb(61.56863%,22.745098%,60.784316%);fill-opacity:1;" d="M 4.5 9 L 3 9 L 3 7.5 L 4.5 7.5 Z M 4.5 9 "/>
<path style="fill-rule:evenodd;fill:rgb(95.294118%,71.764708%,85.09804%);fill-opacity:1;stroke-width:1.513222;stroke-linecap:round;stroke-linejoin:round;stroke:rgb(90.196079%,0.784314%,70.588237%);stroke-opacity:1;stroke-miterlimit:4;" d="M 7.460887 7.256673 L 7.483314 13.142221 L 10.755568 14.818222 L 10.757656 7.353502 Z M 7.460887 7.256673 " transform="matrix(0.674207,0.726668,-0.726668,0.674207,14.285975,-2.622678)"/>
<path style="fill-rule:nonzero;fill:rgb(94.117647%,89.019608%,92.54902%);fill-opacity:1;stroke-width:1.513222;stroke-linecap:round;stroke-linejoin:round;stroke:rgb(90.196079%,0.784314%,70.588237%);stroke-opacity:1;stroke-miterlimit:4;" d="M 6.941307 0.232542 C 6.684713 0.230997 6.477708 0.436728 6.473483 0.69621 L 6.446507 6.826202 L 6.447194 6.993483 C 6.447194 6.993483 7.629249 7.880555 9.093526 7.889854 C 10.554915 7.896474 11.746145 7.018122 11.746145 7.018122 L 11.745457 6.850842 L 11.775114 0.717961 C 11.776658 0.461367 11.568039 0.251682 11.311445 0.250137 Z M 6.941307 0.232542 " transform="matrix(0.674207,0.726668,-0.726668,0.674207,14.285975,-2.622678)"/>
</g>
</svg>
