<?xml version="1.0" encoding="UTF-8"?>
<svg xmlns="http://www.w3.org/2000/svg" xmlns:xlink="http://www.w3.org/1999/xlink" width="24px" height="24px" viewBox="0 0 24 24" version="1.1">
<defs>
<filter id="alpha" filterUnits="objectBoundingBox" x="0%" y="0%" width="100%" height="100%">
  <feColorMatrix type="matrix" in="SourceGraphic" values="0 0 0 0 1 0 0 0 0 1 0 0 0 0 1 0 0 0 1 0"/>
</filter>
<mask id="mask0">
  <g filter="url(#alpha)">
<rect x="0" y="0" width="24" height="24" style="fill:rgb(0%,0%,0%);fill-opacity:0.99;stroke:none;"/>
  </g>
</mask>
<clipPath id="clip1">
  <rect x="0" y="0" width="24" height="24"/>
</clipPath>
<g id="surface5" clip-path="url(#clip1)">
<path style=" stroke:none;fill-rule:nonzero;fill:rgb(90.196079%,0.784314%,70.588237%);fill-opacity:1;" d="M 22.5 12 C 22.5 17.800781 17.800781 22.5 12 22.5 C 6.199219 22.5 1.5 17.800781 1.5 12 C 1.5 6.199219 6.199219 1.5 12 1.5 C 17.800781 1.5 22.5 6.199219 22.5 12 Z M 22.5 12 "/>
</g>
</defs>
<g id="surface1">
<use xlink:href="#surface5" mask="url(#mask0)"/>
<path style=" stroke:none;fill-rule:nonzero;fill:rgb(94.117647%,89.019608%,92.54902%);fill-opacity:1;" d="M 18.496094 5.507812 C 22.085938 9.09375 22.085938 14.910156 18.496094 18.5 C 16.761719 20.230469 14.402344 21.199219 11.953125 21.183594 C 11.921875 15.507812 11.894531 8.558594 11.898438 2.816406 C 14.371094 2.789062 16.75 3.757812 18.496094 5.507812 Z M 18.496094 5.507812 "/>
<path style=" stroke:none;fill-rule:nonzero;fill:rgb(95.294118%,71.764708%,85.09804%);fill-opacity:1;" d="M 11.949219 2.8125 C 11.941406 8.558594 11.96875 15.507812 12 21.1875 C 9.570312 21.175781 7.238281 20.210938 5.519531 18.503906 C 1.910156 14.914062 1.910156 9.09375 5.519531 5.503906 C 7.226562 3.804688 9.535156 2.839844 11.949219 2.8125 Z M 11.949219 2.8125 "/>
</g>
</svg>
