<?xml version="1.0" encoding="UTF-8"?>
<svg xmlns="http://www.w3.org/2000/svg" xmlns:xlink="http://www.w3.org/1999/xlink" width="24px" height="24px" viewBox="0 0 24 24" version="1.1">
<g id="surface1">
<path style=" stroke:none;fill-rule:nonzero;fill:rgb(90.196079%,0.784314%,70.588237%);fill-opacity:1;" d="M 3.714844 21 L 20.285156 21 C 20.679688 21 21 20.628906 21 20.167969 L 21 3.832031 C 21 3.371094 20.679688 3 20.285156 3 L 3.714844 3 C 3.320312 3 3 3.371094 3 3.832031 L 3 20.167969 C 3 20.628906 3.320312 21 3.714844 21 Z M 3.714844 21 "/>
<path style=" stroke:none;fill-rule:evenodd;fill:rgb(94.117647%,89.019608%,92.54902%);fill-opacity:1;" d="M 5.625 19.5 L 18.375 19.5 C 18.996094 19.5 19.5 18.996094 19.5 18.375 L 19.5 5.625 C 19.5 5.003906 18.996094 4.5 18.375 4.5 L 5.625 4.5 C 5.003906 4.5 4.5 5.003906 4.5 5.625 L 4.5 18.375 C 4.5 18.996094 5.003906 19.5 5.625 19.5 Z M 5.625 19.5 "/>
<path style=" stroke:none;fill-rule:nonzero;fill:rgb(90.196079%,0.784314%,70.588237%);fill-opacity:1;" d="M 15.570312 9.757812 C 15.570312 10.128906 15.242188 10.429688 14.832031 10.429688 L 7.46875 10.429688 L 7.46875 17.175781 C 7.46875 17.175781 7.46875 17.179688 7.46875 17.179688 L 8.207031 17.179688 C 8.511719 17.179688 8.757812 17.40625 8.757812 17.6875 L 8.757812 20.382812 C 8.757812 20.664062 8.511719 20.890625 8.207031 20.890625 L 5.261719 20.890625 C 4.957031 20.890625 4.710938 20.664062 4.710938 20.382812 L 4.710938 17.6875 C 4.710938 17.40625 4.957031 17.179688 5.261719 17.179688 L 6 17.179688 C 6 17.179688 6 17.175781 6 17.175781 L 6 9.757812 C 6 9.664062 6.019531 9.574219 6.054688 9.492188 C 6.167969 9.25 6.429688 9.082031 6.734375 9.082031 L 14.832031 9.082031 C 15.242188 9.082031 15.570312 9.382812 15.570312 9.757812 Z M 15.570312 9.757812 "/>
<path style="fill:none;stroke-width:1.220553;stroke-linecap:round;stroke-linejoin:miter;stroke:rgb(61.56863%,22.745098%,60.784316%);stroke-opacity:1;stroke-miterlimit:4;" d="M 5.5015 5.500761 L 10.499989 10.501563 " transform="matrix(1.239437,0,0,1.218554,4.407799,0.086086)"/>
<path style="fill:none;stroke-width:1.220553;stroke-linecap:round;stroke-linejoin:miter;stroke:rgb(61.56863%,22.745098%,60.784316%);stroke-opacity:1;stroke-miterlimit:4;" d="M 10.499989 5.500761 L 5.5015 10.501563 " transform="matrix(1.239437,0,0,1.218554,4.407799,0.086086)"/>
</g>
</svg>
