<?xml version="1.0" encoding="UTF-8"?>
<svg xmlns="http://www.w3.org/2000/svg" xmlns:xlink="http://www.w3.org/1999/xlink" width="24px" height="24px" viewBox="0 0 24 24" version="1.1">
<g id="surface1">
<path style=" stroke:none;fill-rule:nonzero;fill:rgb(90.196079%,0.784314%,70.588237%);fill-opacity:1;" d="M 6 9 L 7.5 9 C 8.328125 9 9 9.671875 9 10.5 L 9 13.5 C 9 14.328125 8.328125 15 7.5 15 L 6 15 C 5.171875 15 4.5 14.328125 4.5 13.5 L 4.5 10.5 C 4.5 9.671875 5.171875 9 6 9 Z M 6 9 "/>
<path style="fill-rule:nonzero;fill:rgb(95.294118%,71.764708%,85.09804%);fill-opacity:1;stroke-width:1;stroke-linecap:round;stroke-linejoin:round;stroke:rgb(90.196079%,0.784314%,70.588237%);stroke-opacity:1;stroke-miterlimit:4;" d="M -6.518229 1.5 L -3.481771 1.5 C -2.940104 1.5 -2.5 1.940104 -2.5 2.481771 L -2.5 13.518229 C -2.5 14.059896 -2.940104 14.5 -3.481771 14.5 L -6.518229 14.5 C -7.059896 14.5 -7.5 14.059896 -7.5 13.518229 L -7.5 2.481771 C -7.5 1.940104 -7.059896 1.5 -6.518229 1.5 Z M -6.518229 1.5 " transform="matrix(1.5,0,0,1.5,24,0)"/>
<path style=" stroke:none;fill-rule:nonzero;fill:rgb(94.117647%,89.019608%,92.54902%);fill-opacity:1;" d="M 13.5 3 L 19.5 3 L 19.5 21 L 13.5 21 Z M 13.5 3 "/>
<path style=" stroke:none;fill-rule:nonzero;fill:rgb(95.294118%,71.764708%,85.09804%);fill-opacity:1;" d="M 6.148438 10.5 L 7.351562 10.5 C 7.433594 10.5 7.5 10.566406 7.5 10.648438 L 7.5 13.351562 C 7.5 13.433594 7.433594 13.5 7.351562 13.5 L 6.148438 13.5 C 6.066406 13.5 6 13.433594 6 13.351562 L 6 10.648438 C 6 10.566406 6.066406 10.5 6.148438 10.5 Z M 6.148438 10.5 "/>
<path style="fill:none;stroke-width:1;stroke-linecap:round;stroke-linejoin:round;stroke:rgb(90.196079%,0.784314%,70.588237%);stroke-opacity:1;stroke-miterlimit:4;" d="M 10 11.5 L 14.5 11.5 " transform="matrix(0.000000000000000092,1.5,-1.5,0.000000000000000092,24,0)"/>
<path style="fill:none;stroke-width:1;stroke-linecap:round;stroke-linejoin:round;stroke:rgb(90.196079%,0.784314%,70.588237%);stroke-opacity:1;stroke-miterlimit:4;" d="M 12.5 9.5 L 14.5 11.5 L 12.5 13.5 " transform="matrix(0.000000000000000092,1.5,-1.5,0.000000000000000092,24,0)"/>
<path style="fill:none;stroke-width:1;stroke-linecap:round;stroke-linejoin:round;stroke:rgb(90.196079%,0.784314%,70.588237%);stroke-opacity:1;stroke-miterlimit:4;" d="M 6 11.5 L 1.5 11.5 " transform="matrix(0.000000000000000092,1.5,-1.5,0.000000000000000092,24,0)"/>
<path style="fill:none;stroke-width:1;stroke-linecap:round;stroke-linejoin:round;stroke:rgb(90.196079%,0.784314%,70.588237%);stroke-opacity:1;stroke-miterlimit:4;" d="M 3.5 9.5 L 1.5 11.5 L 3.5 13.5 " transform="matrix(0.000000000000000092,1.5,-1.5,0.000000000000000092,24,0)"/>
</g>
</svg>
