<?xml version="1.0" encoding="UTF-8"?>
<svg xmlns="http://www.w3.org/2000/svg" xmlns:xlink="http://www.w3.org/1999/xlink" width="24px" height="24px" viewBox="0 0 24 24" version="1.1">
<g id="surface1">
<path style=" stroke:none;fill-rule:nonzero;fill:rgb(33.333334%,34.117648%,32.549021%);fill-opacity:1;" d="M 12 1.5 C 6.199219 1.5 1.5 6.199219 1.5 12 C 1.5 17.800781 6.199219 22.5 12 22.5 C 17.800781 22.5 22.5 17.800781 22.5 12 C 22.5 6.199219 17.800781 1.5 12 1.5 Z M 12 4.5 C 14.484375 4.5 16.5 6.515625 16.5 9 C 16.496094 10.90625 15.296875 12.601562 13.5 13.238281 L 13.5 16.5 L 10.5 16.5 L 10.5 10.5 L 12 10.5 C 12.828125 10.5 13.5 9.828125 13.5 9 C 13.5 8.171875 12.828125 7.5 12 7.5 C 11.171875 7.5 10.5 8.171875 10.5 9 L 7.5 9 C 7.5 6.515625 9.515625 4.5 12 4.5 Z M 10.5 18 L 13.5 18 L 13.5 21 L 10.5 21 Z M 10.5 18 "/>
</g>
</svg>
