<?xml version="1.0" encoding="UTF-8"?>
<svg xmlns="http://www.w3.org/2000/svg" xmlns:xlink="http://www.w3.org/1999/xlink" width="24px" height="24px" viewBox="0 0 24 24" version="1.1">
<g id="surface1">
<path style=" stroke:none;fill-rule:nonzero;fill:rgb(95.294118%,71.764708%,85.09804%);fill-opacity:1;" d="M 4.5 1.5 L 19.5 1.5 C 20.328125 1.5 21 2.171875 21 3 L 21 21 C 21 21.828125 20.328125 22.5 19.5 22.5 L 4.5 22.5 C 3.671875 22.5 3 21.828125 3 21 L 3 3 C 3 2.171875 3.671875 1.5 4.5 1.5 Z M 4.5 1.5 "/>
<path style=" stroke:none;fill-rule:nonzero;fill:rgb(94.117647%,89.019608%,92.54902%);fill-opacity:1;" d="M 6 3 L 18 3 C 18.828125 3 19.5 3.671875 19.5 4.5 L 19.5 19.5 C 19.5 20.328125 18.828125 21 18 21 L 6 21 C 5.171875 21 4.5 20.328125 4.5 19.5 L 4.5 4.5 C 4.5 3.671875 5.171875 3 6 3 Z M 6 3 "/>
<path style=" stroke:none;fill-rule:nonzero;fill:rgb(90.196079%,0.784314%,70.588237%);fill-opacity:1;" d="M 7.488281 1.5 L 9 1.5 L 9 22.5 L 7.488281 22.5 Z M 7.488281 1.5 "/>
<path style=" stroke:none;fill-rule:nonzero;fill:rgb(90.196079%,0.784314%,70.588237%);fill-opacity:1;" d="M 15.039062 1.5 L 16.5 1.5 L 16.5 22.5 L 15.039062 22.5 Z M 15.039062 1.5 "/>
<path style=" stroke:none;fill-rule:nonzero;fill:rgb(90.196079%,0.784314%,70.588237%);fill-opacity:1;" d="M 3 7.5 L 19.5 7.5 L 19.5 9.164062 L 3 9.164062 Z M 3 7.5 "/>
<path style=" stroke:none;fill-rule:nonzero;fill:rgb(90.196079%,0.784314%,70.588237%);fill-opacity:1;" d="M 3 15 L 19.5 15 L 19.5 16.5 L 3 16.5 Z M 3 15 "/>
<path style=" stroke:none;fill-rule:nonzero;fill:rgb(61.56863%,22.745098%,60.784316%);fill-opacity:1;" d="M 7.5 7.5 L 16.5 7.5 L 16.5 9.164062 L 7.5 9.164062 Z M 7.5 7.5 "/>
<path style=" stroke:none;fill-rule:nonzero;fill:rgb(61.56863%,22.745098%,60.784316%);fill-opacity:1;" d="M 7.5 8.25 L 9 8.25 L 9 16.5 L 7.5 16.5 Z M 7.5 8.25 "/>
<path style=" stroke:none;fill-rule:nonzero;fill:rgb(61.56863%,22.745098%,60.784316%);fill-opacity:1;" d="M 15 8.25 L 16.5 8.25 L 16.5 16.5 L 15 16.5 Z M 15 8.25 "/>
<path style=" stroke:none;fill-rule:nonzero;fill:rgb(61.56863%,22.745098%,60.784316%);fill-opacity:1;" d="M 8.25 15.039062 L 15.75 15.039062 L 15.75 16.5 L 8.25 16.5 Z M 8.25 15.039062 "/>
</g>
</svg>
