<?xml version="1.0" encoding="UTF-8"?>
<svg xmlns="http://www.w3.org/2000/svg" xmlns:xlink="http://www.w3.org/1999/xlink" width="24px" height="24px" viewBox="0 0 24 24" version="1.1">
<g id="surface1">
<path style=" stroke:none;fill-rule:nonzero;fill:rgb(90.196079%,0.784314%,70.588237%);fill-opacity:1;" d="M 3.75 3 L 20.25 3 C 20.664062 3 21 3.335938 21 3.75 C 21 4.164062 20.664062 4.5 20.25 4.5 L 3.75 4.5 C 3.335938 4.5 3 4.164062 3 3.75 C 3 3.335938 3.335938 3 3.75 3 Z M 3.75 3 "/>
<path style="fill-rule:nonzero;fill:rgb(61.56863%,22.745098%,60.784316%);fill-opacity:1;stroke-width:0.47625;stroke-linecap:butt;stroke-linejoin:round;stroke:rgb(61.56863%,22.745098%,60.784316%);stroke-opacity:1;stroke-miterlimit:4;" d="M 0.767567 1.415245 L 1.958192 2.248958 L 0.767567 3.082672 Z M 0.767567 1.415245 " transform="matrix(5.669291,0,0,5.669291,0.00000135166,0)"/>
<path style=" stroke:none;fill-rule:evenodd;fill:rgb(95.294118%,71.764708%,85.09804%);fill-opacity:1;" d="M 4.5 8.023438 L 11.25 12.75 L 4.5 17.476562 Z M 4.5 8.023438 "/>
<path style=" stroke:none;fill-rule:evenodd;fill:rgb(95.294118%,71.764708%,85.09804%);fill-opacity:1;" d="M 4.5 8.023438 L 11.25 12.75 L 4.5 12.75 Z M 4.5 8.023438 "/>
<path style=" stroke:none;fill-rule:nonzero;fill:rgb(90.196079%,0.784314%,70.588237%);fill-opacity:1;" d="M 15.75 6 L 20.25 6 C 20.664062 6 21 6.335938 21 6.75 C 21 7.164062 20.664062 7.5 20.25 7.5 L 15.75 7.5 C 15.335938 7.5 15 7.164062 15 6.75 C 15 6.335938 15.335938 6 15.75 6 Z M 15.75 6 "/>
<path style=" stroke:none;fill-rule:nonzero;fill:rgb(90.196079%,0.784314%,70.588237%);fill-opacity:1;" d="M 15.75 9 L 20.25 9 C 20.664062 9 21 9.335938 21 9.75 C 21 10.164062 20.664062 10.5 20.25 10.5 L 15.75 10.5 C 15.335938 10.5 15 10.164062 15 9.75 C 15 9.335938 15.335938 9 15.75 9 Z M 15.75 9 "/>
<path style=" stroke:none;fill-rule:nonzero;fill:rgb(90.196079%,0.784314%,70.588237%);fill-opacity:1;" d="M 15.75 12 L 20.25 12 C 20.664062 12 21 12.335938 21 12.75 C 21 13.164062 20.664062 13.5 20.25 13.5 L 15.75 13.5 C 15.335938 13.5 15 13.164062 15 12.75 C 15 12.335938 15.335938 12 15.75 12 Z M 15.75 12 "/>
<path style=" stroke:none;fill-rule:nonzero;fill:rgb(90.196079%,0.784314%,70.588237%);fill-opacity:1;" d="M 15.75 15 L 20.25 15 C 20.664062 15 21 15.335938 21 15.75 C 21 16.164062 20.664062 16.5 20.25 16.5 L 15.75 16.5 C 15.335938 16.5 15 16.164062 15 15.75 C 15 15.335938 15.335938 15 15.75 15 Z M 15.75 15 "/>
<path style=" stroke:none;fill-rule:nonzero;fill:rgb(90.196079%,0.784314%,70.588237%);fill-opacity:1;" d="M 15.75 18 L 20.25 18 C 20.664062 18 21 18.335938 21 18.75 C 21 19.164062 20.664062 19.5 20.25 19.5 L 15.75 19.5 C 15.335938 19.5 15 19.164062 15 18.75 C 15 18.335938 15.335938 18 15.75 18 Z M 15.75 18 "/>
<path style=" stroke:none;fill-rule:nonzero;fill:rgb(90.196079%,0.784314%,70.588237%);fill-opacity:1;" d="M 15.75 21 L 20.25 21 C 20.664062 21 21 21.335938 21 21.75 C 21 22.164062 20.664062 22.5 20.25 22.5 L 15.75 22.5 C 15.335938 22.5 15 22.164062 15 21.75 C 15 21.335938 15.335938 21 15.75 21 Z M 15.75 21 "/>
</g>
</svg>
