<?xml version="1.0" encoding="UTF-8"?>
<svg xmlns="http://www.w3.org/2000/svg" xmlns:xlink="http://www.w3.org/1999/xlink" width="24px" height="24px" viewBox="0 0 24 24" version="1.1">
<g id="surface1">
<path style="fill-rule:nonzero;fill:rgb(95.294118%,71.764708%,85.09804%);fill-opacity:1;stroke-width:0.936474;stroke-linecap:round;stroke-linejoin:round;stroke:rgb(90.196079%,0.784314%,70.588237%);stroke-opacity:1;stroke-miterlimit:4;" d="M -23.535713 5.125776 L -23.535713 8.478062 C -23.535713 10.959688 -21.465772 14.085701 -18.892856 14.085701 L -16.107142 14.085701 C -13.534225 14.085701 -11.464285 10.959688 -11.464285 8.478062 L -11.464285 5.125776 Z M -23.535713 5.125776 " transform="matrix(1.615385,0,0,1.588235,40.26923,-2.113594)"/>
<path style="fill-rule:nonzero;fill:rgb(61.56863%,22.745098%,60.784316%);fill-opacity:1;stroke-width:0.936474;stroke-linecap:round;stroke-linejoin:round;stroke:rgb(90.196079%,0.784314%,70.588237%);stroke-opacity:1;stroke-miterlimit:4;" d="M -11.464285 4.687987 C -11.464285 5.241372 -14.165364 5.688999 -17.499999 5.688999 C -20.834634 5.688999 -23.535713 5.241372 -23.535713 4.687987 C -23.535713 4.137061 -20.834634 3.686974 -17.499999 3.686974 C -14.165364 3.686974 -11.464285 4.137061 -11.464285 4.687987 Z M -11.464285 4.687987 " transform="matrix(1.615385,0,0,1.588235,40.26923,-2.113594)"/>
</g>
</svg>
