<?xml version="1.0" encoding="UTF-8"?>
<svg xmlns="http://www.w3.org/2000/svg" xmlns:xlink="http://www.w3.org/1999/xlink" width="24px" height="24px" viewBox="0 0 24 24" version="1.1">
<defs>
<filter id="alpha" filterUnits="objectBoundingBox" x="0%" y="0%" width="100%" height="100%">
  <feColorMatrix type="matrix" in="SourceGraphic" values="0 0 0 0 1 0 0 0 0 1 0 0 0 0 1 0 0 0 1 0"/>
</filter>
<mask id="mask0">
  <g filter="url(#alpha)">
<rect x="0" y="0" width="24" height="24" style="fill:rgb(0%,0%,0%);fill-opacity:0.57;stroke:none;"/>
  </g>
</mask>
<clipPath id="clip1">
  <rect x="0" y="0" width="24" height="24"/>
</clipPath>
<g id="surface5" clip-path="url(#clip1)">
<path style=" stroke:none;fill-rule:nonzero;fill:rgb(32.156864%,32.156864%,32.156864%);fill-opacity:1;" d="M 0.144531 4.5 C 0.09375 4.550781 0.0429688 4.601562 0 4.65625 L 0 23.25 L 7.347656 23.25 C 9.230469 17.441406 11.554688 10.414062 13.5 4.566406 L 13.5 4.5 Z M 0.144531 4.5 "/>
</g>
</defs>
<g id="surface1">
<path style=" stroke:none;fill-rule:nonzero;fill:rgb(95.294118%,71.764708%,85.09804%);fill-opacity:1;" d="M 0 9 L 24 9 L 24 23.25 L 0 23.25 Z M 0 9 "/>
<path style=" stroke:none;fill-rule:nonzero;fill:rgb(61.56863%,22.745098%,60.784316%);fill-opacity:1;" d="M 22.5 19.5 L 24 19.5 L 24 23.25 L 22.5 23.25 Z M 22.5 19.5 "/>
<path style=" stroke:none;fill-rule:nonzero;fill:rgb(94.117647%,89.019608%,92.54902%);fill-opacity:1;" d="M 1.5 9 L 22.5 9 L 22.5 19.5 L 1.5 19.5 Z M 1.5 9 "/>
<path style=" stroke:none;fill-rule:nonzero;fill:rgb(90.196079%,0.784314%,70.588237%);fill-opacity:1;" d="M 0 4.5 L 24 4.421875 L 24 9 L 0 9.078125 Z M 0 4.5 "/>
<path style=" stroke:none;fill-rule:nonzero;fill:rgb(61.56863%,22.745098%,60.784316%);fill-opacity:1;" d="M 7.5 19.5 L 9 19.5 L 9 23.25 L 7.5 23.25 Z M 7.5 19.5 "/>
<path style=" stroke:none;fill-rule:nonzero;fill:rgb(61.56863%,22.745098%,60.784316%);fill-opacity:1;" d="M 0 19.5 L 1.5 19.5 L 1.5 23.25 L 0 23.25 Z M 0 19.5 "/>
<use xlink:href="#surface5" mask="url(#mask0)"/>
<path style=" stroke:none;fill-rule:nonzero;fill:rgb(36.470589%,36.470589%,37.254903%);fill-opacity:1;" d="M 14.070312 2.6875 L 15.894531 3 L 9.144531 24 L 6.894531 23.25 Z M 14.070312 2.6875 "/>
<path style=" stroke:none;fill-rule:nonzero;fill:rgb(61.56863%,22.745098%,60.784316%);fill-opacity:1;" d="M 15 18.75 L 16.5 18.75 L 16.5 23.25 L 15 23.25 Z M 15 18.75 "/>
</g>
</svg>
