<?xml version="1.0" encoding="UTF-8"?>
<svg xmlns="http://www.w3.org/2000/svg" xmlns:xlink="http://www.w3.org/1999/xlink" width="24px" height="24px" viewBox="0 0 24 24" version="1.1">
<defs>
<filter id="alpha" filterUnits="objectBoundingBox" x="0%" y="0%" width="100%" height="100%">
  <feColorMatrix type="matrix" in="SourceGraphic" values="0 0 0 0 1 0 0 0 0 1 0 0 0 0 1 0 0 0 1 0"/>
</filter>
<mask id="mask0">
  <g filter="url(#alpha)">
<rect x="0" y="0" width="24" height="24" style="fill:rgb(0%,0%,0%);fill-opacity:0.57;stroke:none;"/>
  </g>
</mask>
<clipPath id="clip1">
  <rect x="0" y="0" width="24" height="24"/>
</clipPath>
<g id="surface5" clip-path="url(#clip1)">
<path style=" stroke:none;fill-rule:nonzero;fill:rgb(32.156864%,32.156864%,32.156864%);fill-opacity:1;" d="M 3.308594 3.078125 C 2.332031 3.078125 1.546875 3.855469 1.546875 4.820312 L 1.546875 19.164062 C 1.546875 20.128906 2.332031 20.914062 3.308594 20.910156 L 8.589844 20.886719 C 10.359375 15.847656 13.089844 9.0625 15.164062 3.054688 Z M 3.308594 3.078125 "/>
</g>
</defs>
<g id="surface1">
<path style="fill-rule:nonzero;fill:rgb(94.117647%,89.019608%,92.54902%);fill-opacity:1;stroke-width:1;stroke-linecap:round;stroke-linejoin:round;stroke:rgb(90.196079%,0.784314%,70.588237%);stroke-opacity:1;stroke-miterlimit:4;" d="M 2.5 2.5 C 1.989583 2.5 1.580729 2.908854 1.580729 3.414062 L 1.580729 12.557292 C 1.580729 13.065104 1.989583 13.473958 2.5 13.473958 L 13.541667 13.473958 C 14.052083 13.473958 14.460938 13.065104 14.460938 12.557292 L 14.460938 3.414062 C 14.460938 2.908854 14.052083 2.5 13.541667 2.5 C 13.541667 3.007812 13.130208 3.414062 12.622396 3.414062 L 11.700521 3.414062 C 11.192708 3.414062 10.78125 3.007812 10.78125 2.5 Z M 2.5 2.5 " transform="matrix(1.5,0,0,1.5,0,0)"/>
<path style="fill-rule:nonzero;fill:rgb(95.294118%,71.764708%,85.09804%);fill-opacity:1;stroke-width:0.25;stroke-linecap:round;stroke-linejoin:round;stroke:rgb(61.56863%,22.745098%,60.784316%);stroke-opacity:1;stroke-miterlimit:4;" d="M 3.5 5 L 12.5 5 C 13.052083 5 13.5 5.447917 13.5 6 L 13.5 11.5 C 13.5 12.052083 13.052083 12.5 12.5 12.5 L 3.5 12.5 C 2.947917 12.5 2.5 12.052083 2.5 11.5 L 2.5 6 C 2.5 5.447917 2.947917 5 3.5 5 Z M 3.5 5 " transform="matrix(1.5,0,0,1.5,0,0)"/>
<use xlink:href="#surface5" mask="url(#mask0)"/>
<path style=" stroke:none;fill-rule:nonzero;fill:rgb(33.333334%,33.333334%,33.333334%);fill-opacity:1;" d="M 7.375 23.441406 C 7.96875 23.632812 8.507812 23.800781 9.132812 24 C 9.527344 22.730469 16.878906 1.753906 17.25 0.558594 C 16.652344 0.367188 16.113281 0.199219 15.492188 0 C 15.09375 1.269531 7.746094 22.246094 7.375 23.441406 Z M 7.375 23.441406 "/>
</g>
</svg>
