<?xml version="1.0" encoding="UTF-8" standalone="no"?>
<svg
   xmlns:dc="http://purl.org/dc/elements/1.1/"
   xmlns:cc="http://creativecommons.org/ns#"
   xmlns:rdf="http://www.w3.org/1999/02/22-rdf-syntax-ns#"
   xmlns:svg="http://www.w3.org/2000/svg"
   xmlns="http://www.w3.org/2000/svg"
   xmlns:sodipodi="http://sodipodi.sourceforge.net/DTD/sodipodi-0.dtd"
   xmlns:inkscape="http://www.inkscape.org/namespaces/inkscape"
   height="24"
   width="24"
   id="svg2"
   version="1.1"
   inkscape:version="0.91 r13725"
   sodipodi:docname="lc_heading5parastyle.svg"
   inkscape:export-filename="/home/tamara/Desktop/IKON/5_258 (tamara)/sc (222)/Tanggal 20/lc_heading5parastyle.png"
   inkscape:export-xdpi="90"
   inkscape:export-ydpi="90">
  <metadata
     id="metadata33">
    <rdf:RDF>
      <cc:Work
         rdf:about="">
        <dc:format>image/svg+xml</dc:format>
        <dc:type
           rdf:resource="http://purl.org/dc/dcmitype/StillImage" />
        <dc:title />
      </cc:Work>
    </rdf:RDF>
  </metadata>
  <defs
     id="defs31" />
  <sodipodi:namedview
     pagecolor="#ffffff"
     bordercolor="#666666"
     borderopacity="1"
     objecttolerance="10"
     gridtolerance="10"
     guidetolerance="10"
     inkscape:pageopacity="0"
     inkscape:pageshadow="2"
     inkscape:window-width="1366"
     inkscape:window-height="718"
     id="namedview29"
     showgrid="true"
     inkscape:zoom="21.166667"
     inkscape:cx="4.1574804"
     inkscape:cy="11.905512"
     inkscape:window-x="0"
     inkscape:window-y="0"
     inkscape:window-maximized="1"
     inkscape:current-layer="svg2">
    <inkscape:grid
       type="xygrid"
       id="grid4161" />
  </sodipodi:namedview>
  <linearGradient
     id="a"
     gradientUnits="userSpaceOnUse"
     x1="68.149132"
     x2="97.395569"
     y1="92.084953"
     y2="29.936712">
    <stop
       offset="0"
       stop-color="#06f"
       id="stop5" />
    <stop
       offset="1"
       stop-color="#80b3ff"
       id="stop7" />
  </linearGradient>
  <linearGradient
     id="b"
     gradientUnits="userSpaceOnUse"
     x1="15.712173"
     x2="16.933331"
     y1="294.72055"
     y2="266.63391"
     gradientTransform="matrix(0.36814326,0,0,0.49428269,-0.79757479,-130.54782)">
    <stop
       offset="0"
       stop-color="#555"
       id="stop10" />
    <stop
       offset="1"
       id="stop12" />
  </linearGradient>
  <linearGradient
     id="c"
     gradientTransform="matrix(0.125,0,0,0.13077897,0,-0.48557958)"
     gradientUnits="userSpaceOnUse"
     x1="34.167969"
     x2="44.113281"
     y1="20.28125"
     y2="80.78125">
    <stop
       offset="0"
       stop-color="#3b3e22"
       id="stop15" />
    <stop
       offset="1"
       stop-color="#454545"
       stop-opacity="0"
       id="stop17" />
  </linearGradient>
  <g
     id="g4771">
    <g
       transform="matrix(3.7795274,0,0,3.7795274,0.01774483,0.49367515)"
       id="g4749">
      <path
         inkscape:connector-curvature="0"
         style="fill:#9d3a9b;stroke-width:1.015378"
         id="path21-3"
         d="m 1.1789912,2.7864641 1.6000372,-0.00649 0.00219,-1.4658049 C 2.7816715,1.0124893 2.7500116,0.8197479 2.6875971,0.73594885 2.6251825,0.64656205 2.4733074,0.58790287 2.2319714,0.5599692 l 0,-0.15921999 1.9210613,0.006492 0,0.15921998 C 3.9116967,0.59439432 3.7598215,0.65305585 3.6974069,0.74244011 3.6349927,0.82624068 3.6037851,1.0189806 3.6037851,1.3206606 l 0,3.72072 c 0,0.2960941 0.033288,0.4888337 0.099863,0.5782185 0.066576,0.089386 0.2163702,0.1480468 0.4493841,0.1759797 l 0,0.1592199 -1.9210612,-0.00649 0,-0.1592198 c 0.241336,-0.022348 0.3932111,-0.081007 0.4556257,-0.1759798 0.062414,-0.094974 0.093622,-0.3184398 0.093622,-0.6703993 l -0.00219,-1.7660656 -1.6000373,0.00649 0.00219,1.8582464 c 3.504e-4,0.2960941 0.033287,0.4888337 0.099863,0.5782185 0.066576,0.089386 0.2163701,0.1480468 0.4493843,0.1759797 l 0,0.1592199 -1.7351231,0 0,-0.1592199 c 0.24133464,-0.022347 0.24110188,-0.091127 0.30351635,-0.1861022 0.0624145,-0.094973 0.0936218,-0.3184399 0.0936218,-0.6703993 l 0,-3.6285391 c 0,-0.3016801 -0.0312072,-0.49441969 -0.0936217,-0.57822053 -0.0624145,-0.0893852 -0.0621818,-0.13792548 -0.30351772,-0.1658587 l 0,-0.15921999 1.73512277,0 0,0.15921999 c -0.2413346,0.0279337 -0.39321,0.0865953 -0.4556244,0.17597981 -0.062415,0.0838005 -0.093622,0.27654042 -0.093622,0.57822052 z" />
      <path
         inkscape:connector-curvature="0"
         style="opacity:0.75;fill:#9d3a9b"
         id="path23"
         d="m 0.44988742,0.52934113 c 3.3546e-4,4.4977e-4 2.4551e-4,0.001068 5.8095e-4,0.001514 5.847e-4,8.7704e-4 0.003716,0.004183 0.004261,0.004963 z m 2.38892548,0.003448 c 8.433e-4,0.00113 6.185e-4,0.002713 0.00146,0.003853 9.904e-4,0.001411 0.0024,0.001207 0.00339,0.002639 z m -1.7152849,0.006492 -0.00484,0.006582 c 0.001,-0.001428 0.00248,-0.001323 0.00348,-0.002729 8.321e-4,-0.001132 5.154e-4,-0.002729 0.00135,-0.003853 z m 2.4226268,0 -0.00484,0.006582 c 9.905e-4,-0.001428 0.00249,-0.001323 0.00348,-0.002729 8.245e-4,-0.001132 5.06e-4,-0.002729 0.00135,-0.003853 z M 2.9007926,0.69023755 c 0.07124,0.17501505 0.094325,0.37043125 0.094325,0.62372785 l 0,1.6259883 a 0.2139007,0.28719095 0 0 1 -0.050164,0.1846056 0.2139007,0.28719095 0 0 1 0.050164,0.1842002 l 0,0.036171 A 3.7683587,2.0750402 0 0 0 3.3898503,3.2243598 l 0,-1.9038083 c 0,-0.2554573 0.023118,-0.45250045 0.096164,-0.62849 z m -2.38592344,0.004153 c 0.0682158,0.17320144 0.0916136,0.36639475 0.0916136,0.61612885 l 0,2.1902414 a 3.7683587,2.0750402 0 0 0 0.36074048,0.02989 l 0,-0.215407 A 0.2139007,0.28719095 0 0 1 1.0174848,3.1307402 0.2139007,0.28719095 0 0 1 0.96722321,2.9465398 l 0,-1.6259883 c 0,-0.2543771 0.023155,-0.45065626 0.0952937,-0.6261596 z" />
    </g>
    <path
       style="fill:#e602b4"
       id="path25"
       d="m 15.909598,10.761633 a 2.1809236,2.144224 0 0 0 -2.176617,2.011834 l -0.312037,4.966939 a 2.1809236,2.144224 0 0 0 0.06372,0.658321 2.1809236,2.144224 0 0 0 -0.299294,1.479879 c 0.08889,0.524375 0.255695,1.040466 0.499916,1.520689 a 2.1809236,2.144224 0 0 0 0.01165,0.02255 c 0.279089,0.533107 0.67179,1.013251 1.131637,1.397544 a 2.1809236,2.144224 0 0 0 0.02986,0.0247 c 0.497051,0.400565 1.064002,0.683201 1.649029,0.87275 a 2.1809236,2.144224 0 0 0 0.02148,0.0068 C 17.170815,23.924439 17.828652,24 18.502387,24 c 0.74818,0 1.486987,-0.102056 2.192274,-0.35941 a 2.1809236,2.144224 0 0 0 0.01128,-0.0043 c 0.65875,-0.244523 1.287035,-0.615132 1.805231,-1.11689 a 2.1809236,2.144224 0 0 0 0.01165,-0.01146 c 0.497035,-0.488668 0.886656,-1.092026 1.130544,-1.73619 0.24264,-0.634253 0.355366,-1.309009 0.355366,-1.978543 0,-0.639189 -0.09493,-1.280873 -0.314223,-1.893343 -0.16437,-0.462225 -0.424253,-0.895053 -0.731121,-1.296237 a 2.1809236,2.144224 0 0 0 0.522855,-1.388953 l 0,-1.309129 a 2.1809236,2.144224 0 0 0 -2.180616,-2.143928 z m 1.332623,3.301985 c -0.0057,0.0023 -0.01107,0.0059 -0.01675,0.0082 -0.0033,0.0014 -0.0069,0.0015 -0.01019,0.0029 z"
       inkscape:connector-curvature="0" />
    <path
       style="fill:#f3b7d9"
       id="path27"
       d="m 21.828409,18.793221 q 0,0.663929 -0.216601,1.22764 -0.210233,0.557449 -0.630698,0.970838 -0.420464,0.407127 -1.04479,0.638875 -0.617956,0.225484 -1.433403,0.225484 -0.751739,0 -1.312359,-0.175376 -0.560618,-0.181642 -0.94923,-0.494815 -0.382239,-0.319437 -0.605214,-0.745354 -0.216603,-0.425914 -0.299421,-0.914465 l 1.790159,-0.144061 q 0.05097,0.206695 0.140156,0.400863 0.09556,0.194168 0.261197,0.344491 0.165637,0.150322 0.407722,0.244276 0.242087,0.08769 0.586102,0.08769 0.668922,0 1.063904,-0.419654 0.401353,-0.419652 0.401353,-1.20885 0,-0.350754 -0.101932,-0.632611 -0.09556,-0.281856 -0.280309,-0.482287 -0.178379,-0.200431 -0.445948,-0.30691 -0.261197,-0.106479 -0.598844,-0.106479 -0.445946,0 -0.732627,0.169114 -0.286679,0.16285 -0.48417,0.400862 l -1.745566,0 0.312163,-4.966933 5.395962,0 0,1.309066 -3.77144,0 -0.146526,2.229795 q 0.267569,-0.231748 0.675292,-0.394598 0.407724,-0.169114 0.94923,-0.169114 0.662552,0 1.184946,0.212958 0.522396,0.212958 0.885525,0.59503 0.363127,0.382072 0.554248,0.92073 0.191119,0.532395 0.191119,1.183796 z"
       inkscape:connector-curvature="0" />
  </g>
</svg>
