<?xml version="1.0" encoding="UTF-8"?>
<svg xmlns="http://www.w3.org/2000/svg" xmlns:xlink="http://www.w3.org/1999/xlink" width="24px" height="24px" viewBox="0 0 24 24" version="1.1">
<g id="surface1">
<path style=" stroke:none;fill-rule:nonzero;fill:rgb(95.294118%,71.764708%,85.09804%);fill-opacity:1;" d="M 4.5 1.5 L 19.5 1.5 C 20.328125 1.5 21 2.171875 21 3 L 21 21 C 21 21.828125 20.328125 22.5 19.5 22.5 L 4.5 22.5 C 3.671875 22.5 3 21.828125 3 21 L 3 3 C 3 2.171875 3.671875 1.5 4.5 1.5 Z M 4.5 1.5 "/>
<path style=" stroke:none;fill-rule:nonzero;fill:rgb(94.117647%,89.019608%,92.54902%);fill-opacity:1;" d="M 6 3 L 18 3 C 18.828125 3 19.5 3.671875 19.5 4.5 L 19.5 19.5 C 19.5 20.328125 18.828125 21 18 21 L 6 21 C 5.171875 21 4.5 20.328125 4.5 19.5 L 4.5 4.5 C 4.5 3.671875 5.171875 3 6 3 Z M 6 3 "/>
<path style=" stroke:none;fill-rule:nonzero;fill:rgb(61.56863%,22.745098%,60.784316%);fill-opacity:1;" d="M 9.042969 1.5 L 10.5 1.5 L 10.5 22.5 L 9.042969 22.5 Z M 9.042969 1.5 "/>
<path style=" stroke:none;fill-rule:nonzero;fill:rgb(61.56863%,22.745098%,60.784316%);fill-opacity:1;" d="M 3 15 L 19.5 15 L 19.5 16.554688 L 3 16.554688 Z M 3 15 "/>
<path style=" stroke:none;fill-rule:evenodd;fill:rgb(90.196079%,0.784314%,70.588237%);fill-opacity:1;" d="M 12.75 5.25 L 15 7.5 L 15 3 Z M 12.75 5.25 "/>
<path style=" stroke:none;fill-rule:evenodd;fill:rgb(90.196079%,0.784314%,70.588237%);fill-opacity:1;" d="M 6.75 5.25 L 4.5 7.5 L 4.5 3 Z M 6.75 5.25 "/>
</g>
</svg>
