<?xml version="1.0" encoding="UTF-8"?>
<svg xmlns="http://www.w3.org/2000/svg" xmlns:xlink="http://www.w3.org/1999/xlink" width="24px" height="24px" viewBox="0 0 24 24" version="1.1">
<defs>
<clipPath id="clip1">
  <path d="M 4 1.5 L 22 1.5 L 22 7 L 4 7 Z M 4 1.5 "/>
</clipPath>
<clipPath id="clip2">
  <path d="M 3 1.5 L 22 1.5 L 22 8 L 3 8 Z M 3 1.5 "/>
</clipPath>
<clipPath id="clip3">
  <path d="M 4 16 L 21 16 L 21 22.5 L 4 22.5 Z M 4 16 "/>
</clipPath>
<clipPath id="clip4">
  <path d="M 3 15 L 22 15 L 22 22.5 L 3 22.5 Z M 3 15 "/>
</clipPath>
<clipPath id="clip5">
  <path d="M 8 22 L 19 22 L 19 22.5 L 8 22.5 Z M 8 22 "/>
</clipPath>
<clipPath id="clip6">
  <path d="M 12 1.5 L 14 1.5 L 14 9 L 12 9 Z M 12 1.5 "/>
</clipPath>
<clipPath id="clip7">
  <path d="M 12 15 L 14 15 L 14 22.5 L 12 22.5 Z M 12 15 "/>
</clipPath>
</defs>
<g id="surface1">
<g clip-path="url(#clip1)" clip-rule="nonzero">
<path style=" stroke:none;fill-rule:nonzero;fill:rgb(94.117647%,89.019608%,92.54902%);fill-opacity:1;" d="M 6.085938 -12.546875 L 19.585938 -12.546875 C 20.414062 -12.546875 21.085938 -11.875 21.085938 -11.046875 L 21.085938 5.453125 C 21.085938 6.28125 20.414062 6.953125 19.585938 6.953125 L 6.085938 6.953125 C 5.257812 6.953125 4.585938 6.28125 4.585938 5.453125 L 4.585938 -11.046875 C 4.585938 -11.875 5.257812 -12.546875 6.085938 -12.546875 Z M 6.085938 -12.546875 "/>
</g>
<g clip-path="url(#clip2)" clip-rule="nonzero">
<path style="fill:none;stroke-width:1;stroke-linecap:round;stroke-linejoin:round;stroke:rgb(90.196079%,0.784314%,70.588237%);stroke-opacity:1;stroke-miterlimit:4;" d="M 4.057292 -8.364583 L 13.057292 -8.364583 C 13.609375 -8.364583 14.057292 -7.916667 14.057292 -7.364583 L 14.057292 3.635417 C 14.057292 4.1875 13.609375 4.635417 13.057292 4.635417 L 4.057292 4.635417 C 3.505208 4.635417 3.057292 4.1875 3.057292 3.635417 L 3.057292 -7.364583 C 3.057292 -7.916667 3.505208 -8.364583 4.057292 -8.364583 Z M 4.057292 -8.364583 " transform="matrix(1.5,0,0,1.5,0,0)"/>
</g>
<g clip-path="url(#clip3)" clip-rule="nonzero">
<path style=" stroke:none;fill-rule:nonzero;fill:rgb(94.117647%,89.019608%,92.54902%);fill-opacity:1;" d="M 6 16.5 L 19.5 16.5 C 20.328125 16.5 21 17.171875 21 18 L 21 34.5 C 21 35.328125 20.328125 36 19.5 36 L 6 36 C 5.171875 36 4.5 35.328125 4.5 34.5 L 4.5 18 C 4.5 17.171875 5.171875 16.5 6 16.5 Z M 6 16.5 "/>
</g>
<g clip-path="url(#clip4)" clip-rule="nonzero">
<path style="fill:none;stroke-width:1;stroke-linecap:round;stroke-linejoin:round;stroke:rgb(90.196079%,0.784314%,70.588237%);stroke-opacity:1;stroke-miterlimit:4;" d="M 4 11 L 13 11 C 13.552083 11 14 11.447917 14 12 L 14 23 C 14 23.552083 13.552083 24 13 24 L 4 24 C 3.447917 24 3 23.552083 3 23 L 3 12 C 3 11.447917 3.447917 11 4 11 Z M 4 11 " transform="matrix(1.5,0,0,1.5,0,0)"/>
</g>
<g clip-path="url(#clip5)" clip-rule="nonzero">
<path style=" stroke:none;fill-rule:nonzero;fill:rgb(95.294118%,71.764708%,85.09804%);fill-opacity:1;" d="M 9 22.5 L 18 22.5 C 18.414062 22.5 18.75 22.835938 18.75 23.25 C 18.75 23.664062 18.414062 24 18 24 L 9 24 C 8.585938 24 8.25 23.664062 8.25 23.25 C 8.25 22.835938 8.585938 22.5 9 22.5 Z M 9 22.5 "/>
</g>
<g clip-path="url(#clip6)" clip-rule="nonzero">
<path style="fill:none;stroke-width:1;stroke-linecap:round;stroke-linejoin:round;stroke:rgb(61.56863%,22.745098%,60.784316%);stroke-opacity:1;stroke-miterlimit:4;" d="M 8.5 1 L 8.5 5 " transform="matrix(1.5,0,0,1.5,0,0)"/>
</g>
<path style="fill:none;stroke-width:1;stroke-linecap:round;stroke-linejoin:round;stroke:rgb(61.56863%,22.745098%,60.784316%);stroke-opacity:1;stroke-miterlimit:4;" d="M 6 3.5 L 8.5 5.5 L 11 3.5 " transform="matrix(1.5,0,0,1.5,0,0)"/>
<g clip-path="url(#clip7)" clip-rule="nonzero">
<path style="fill:none;stroke-width:1;stroke-linecap:round;stroke-linejoin:round;stroke:rgb(61.56863%,22.745098%,60.784316%);stroke-opacity:1;stroke-miterlimit:4;" d="M 8.5 15 L 8.5 11 " transform="matrix(1.5,0,0,1.5,0,0)"/>
</g>
<path style="fill:none;stroke-width:1;stroke-linecap:round;stroke-linejoin:round;stroke:rgb(61.56863%,22.745098%,60.784316%);stroke-opacity:1;stroke-miterlimit:4;" d="M 6 12.5 L 8.5 10.5 L 11 12.5 " transform="matrix(1.5,0,0,1.5,0,0)"/>
</g>
</svg>
