<?xml version="1.0" encoding="UTF-8" standalone="no"?>
<svg
   xmlns:dc="http://purl.org/dc/elements/1.1/"
   xmlns:cc="http://creativecommons.org/ns#"
   xmlns:rdf="http://www.w3.org/1999/02/22-rdf-syntax-ns#"
   xmlns:svg="http://www.w3.org/2000/svg"
   xmlns="http://www.w3.org/2000/svg"
   xmlns:sodipodi="http://sodipodi.sourceforge.net/DTD/sodipodi-0.dtd"
   xmlns:inkscape="http://www.inkscape.org/namespaces/inkscape"
   height="24"
   width="24"
   id="svg2"
   version="1.1"
   inkscape:version="0.91 r13725"
   sodipodi:docname="lc_heading2parastyle.svg"
   inkscape:export-filename="/home/tamara/Desktop/IKON/5_258 (tamara)/sc (222)/Tanggal 20/lc_heading2parastyle.png"
   inkscape:export-xdpi="90"
   inkscape:export-ydpi="90">
  <metadata
     id="metadata35">
    <rdf:RDF>
      <cc:Work
         rdf:about="">
        <dc:format>image/svg+xml</dc:format>
        <dc:type
           rdf:resource="http://purl.org/dc/dcmitype/StillImage" />
        <dc:title />
      </cc:Work>
    </rdf:RDF>
  </metadata>
  <defs
     id="defs33" />
  <sodipodi:namedview
     pagecolor="#ffffff"
     bordercolor="#666666"
     borderopacity="1"
     objecttolerance="10"
     gridtolerance="10"
     guidetolerance="10"
     inkscape:pageopacity="0"
     inkscape:pageshadow="2"
     inkscape:window-width="1366"
     inkscape:window-height="718"
     id="namedview31"
     showgrid="true"
     inkscape:zoom="21.166667"
     inkscape:cx="4.1574804"
     inkscape:cy="11.905512"
     inkscape:window-x="0"
     inkscape:window-y="0"
     inkscape:window-maximized="1"
     inkscape:current-layer="svg2">
    <inkscape:grid
       type="xygrid"
       id="grid4181" />
  </sodipodi:namedview>
  <linearGradient
     id="a"
     gradientUnits="userSpaceOnUse"
     x1="170.36354"
     x2="170.36354"
     y1="39.851387"
     y2="33.06419">
    <stop
       offset="0"
       stop-color="#06f"
       id="stop5" />
    <stop
       offset="1"
       stop-color="#80b3ff"
       id="stop7" />
  </linearGradient>
  <linearGradient
     id="b"
     gradientUnits="userSpaceOnUse"
     x1="15.712173"
     x2="16.933331"
     y1="294.72055"
     y2="266.63391">
    <stop
       offset="0"
       stop-color="#555"
       id="stop10" />
    <stop
       offset="1"
       id="stop12" />
  </linearGradient>
  <linearGradient
     id="c"
     gradientTransform="matrix(0.26458334,0,0,0.27681548,0,-1.027808)"
     gradientUnits="userSpaceOnUse"
     x1="34.167969"
     x2="44.113281"
     y1="20.28125"
     y2="80.78125">
    <stop
       offset="0"
       stop-color="#3b3e22"
       id="stop15" />
    <stop
       offset="1"
       stop-color="#454545"
       stop-opacity="0"
       id="stop17" />
  </linearGradient>
  <g
     id="g4810">
    <g
       transform="matrix(3.7795274,0,0,3.7795274,0.01774741,0.49368685)"
       id="g4749">
      <path
         inkscape:connector-curvature="0"
         style="fill:#9d3a9b;stroke-width:1.015378"
         id="path21"
         d="m 1.1789912,2.7864641 1.6000372,-0.00649 0.00219,-1.4658049 C 2.7816715,1.0124893 2.7500116,0.8197479 2.6875971,0.73594885 2.6251825,0.64656205 2.4733074,0.58790287 2.2319714,0.5599692 l 0,-0.15921999 1.9210613,0.006492 0,0.15921998 C 3.9116967,0.59439432 3.7598215,0.65305585 3.6974069,0.74244011 3.6349927,0.82624068 3.6037851,1.0189806 3.6037851,1.3206606 l 0,3.72072 c 0,0.2960941 0.033288,0.4888337 0.099863,0.5782185 0.066576,0.089386 0.2163702,0.1480468 0.4493841,0.1759797 l 0,0.1592199 -1.9210612,-0.00649 0,-0.1592198 c 0.241336,-0.022348 0.3932111,-0.081007 0.4556257,-0.1759798 0.062414,-0.094974 0.093622,-0.3184398 0.093622,-0.6703993 l -0.00219,-1.7660656 -1.6000373,0.00649 0.00219,1.8582464 c 3.504e-4,0.2960941 0.033287,0.4888337 0.099863,0.5782185 0.066576,0.089386 0.2163701,0.1480468 0.4493843,0.1759797 l 0,0.1592199 -1.7351231,0 0,-0.1592199 c 0.24133464,-0.022347 0.24110188,-0.091127 0.30351635,-0.1861022 0.0624145,-0.094973 0.0936218,-0.3184399 0.0936218,-0.6703993 l 0,-3.6285391 c 0,-0.3016801 -0.0312072,-0.49441969 -0.0936217,-0.57822053 -0.0624145,-0.0893852 -0.0621818,-0.13792548 -0.30351772,-0.1658587 l 0,-0.15921999 1.73512277,0 0,0.15921999 c -0.2413346,0.0279337 -0.39321,0.0865953 -0.4556244,0.17597981 -0.062415,0.0838005 -0.093622,0.27654042 -0.093622,0.57822052 z" />
      <path
         inkscape:connector-curvature="0"
         style="opacity:0.75;fill:#9d3a9b"
         id="path23"
         d="m 0.44988742,0.52934113 c 3.3546e-4,4.4977e-4 2.4551e-4,0.001068 5.8095e-4,0.001514 5.847e-4,8.7704e-4 0.003716,0.004183 0.004261,0.004963 z m 2.38892548,0.003448 c 8.433e-4,0.00113 6.185e-4,0.002713 0.00146,0.003853 9.904e-4,0.001411 0.0024,0.001207 0.00339,0.002639 z m -1.7152849,0.006492 -0.00484,0.006582 c 0.001,-0.001428 0.00248,-0.001323 0.00348,-0.002729 8.321e-4,-0.001132 5.154e-4,-0.002729 0.00135,-0.003853 z m 2.4226268,0 -0.00484,0.006582 c 9.905e-4,-0.001428 0.00249,-0.001323 0.00348,-0.002729 8.245e-4,-0.001132 5.06e-4,-0.002729 0.00135,-0.003853 z M 2.9007926,0.69023755 c 0.07124,0.17501505 0.094325,0.37043125 0.094325,0.62372785 l 0,1.6259883 a 0.2139007,0.28719095 0 0 1 -0.050164,0.1846056 0.2139007,0.28719095 0 0 1 0.050164,0.1842002 l 0,0.036171 A 3.7683587,2.0750402 0 0 0 3.3898503,3.2243598 l 0,-1.9038083 c 0,-0.2554573 0.023118,-0.45250045 0.096164,-0.62849 z m -2.38592344,0.004153 c 0.0682158,0.17320144 0.0916136,0.36639475 0.0916136,0.61612885 l 0,2.1902414 a 3.7683587,2.0750402 0 0 0 0.36074048,0.02989 l 0,-0.215407 A 0.2139007,0.28719095 0 0 1 1.0174848,3.1307402 0.2139007,0.28719095 0 0 1 0.96722321,2.9465398 l 0,-1.6259883 c 0,-0.2543771 0.023155,-0.45065626 0.0952937,-0.6261596 z" />
    </g>
    <g
       id="g25"
       transform="matrix(2.1582059,0,0,2.2024671,-357.74683,-64.051632)">
      <path
         inkscape:connector-curvature="0"
         style="fill:none;stroke:#e602b4;stroke-width:2;stroke-linejoin:round"
         id="path27"
         transform="scale(1.0218307,0.9786357)"
         d="m 169.2614,39.851395 0,-0.563593 q 0.15897,-0.349716 0.45088,-0.682091 0.2948,-0.332375 0.73989,-0.693652 0.42776,-0.346826 0.59828,-0.572263 0.17341,-0.225437 0.17341,-0.442204 0,-0.5318 -0.53469,-0.5318 -0.26012,0 -0.39885,0.141621 -0.13584,0.13873 -0.1763,0.419081 l -0.81793,-0.04624 q 0.0694,-0.566483 0.42197,-0.864175 0.35549,-0.297692 0.96533,-0.297692 0.65897,0 1.01158,0.300582 0.3526,0.300583 0.3526,0.843944 0,0.286131 -0.11272,0.517349 -0.11271,0.231217 -0.28902,0.427752 -0.1763,0.193644 -0.39307,0.364167 -0.21387,0.170523 -0.41619,0.332375 -0.20231,0.161852 -0.36995,0.326595 -0.16474,0.164742 -0.24566,0.352606 l 1.8902,0 0,0.667641 z" />
      <path
         inkscape:connector-curvature="0"
         style="fill:#f3b7d9"
         id="path29"
         d="m 173.04921,39 0,-0.551552 q 0.15557,-0.342245 0.44124,-0.667519 0.28851,-0.325274 0.72409,-0.678833 0.41861,-0.339416 0.58549,-0.560037 0.16971,-0.22062 0.16971,-0.432756 0,-0.520438 -0.52327,-0.520438 -0.25456,0 -0.39032,0.138595 -0.13294,0.135766 -0.17254,0.410128 l -0.80046,-0.04526 q 0.0679,-0.55438 0.41296,-0.845712 0.3479,-0.291333 0.94471,-0.291333 0.64489,0 0.98996,0.294161 0.34508,0.294161 0.34508,0.825914 0,0.280018 -0.11031,0.506296 -0.11032,0.226277 -0.28285,0.418613 -0.17254,0.189508 -0.38467,0.356388 -0.20931,0.166879 -0.4073,0.325274 -0.198,0.158394 -0.36205,0.319617 -0.16122,0.161223 -0.24042,0.345073 l 1.84982,0 0,0.653381 z" />
    </g>
  </g>
</svg>
