<?xml version="1.0" encoding="UTF-8"?>
<svg xmlns="http://www.w3.org/2000/svg" xmlns:xlink="http://www.w3.org/1999/xlink" width="24px" height="24px" viewBox="0 0 24 24" version="1.1">
<g id="surface1">
<path style=" stroke:none;fill-rule:nonzero;fill:rgb(90.196079%,0.784314%,70.588237%);fill-opacity:1;" d="M 22.5 15.234375 L 22.5 8.765625 C 22.5 7.238281 21.351562 6 19.9375 6 L 4.0625 6 C 2.648438 6 1.5 7.238281 1.5 8.765625 L 1.5 15.234375 C 1.5 16.761719 2.648438 18 4.0625 18 L 19.9375 18 C 21.351562 18 22.5 16.761719 22.5 15.234375 Z M 22.5 15.234375 "/>
<path style=" stroke:none;fill-rule:nonzero;fill:rgb(94.117647%,89.019608%,92.54902%);fill-opacity:1;" d="M 21 14.078125 L 21 9.921875 C 21 8.582031 19.996094 7.5 18.757812 7.5 L 5.242188 7.5 C 4.003906 7.5 3 8.582031 3 9.921875 L 3 14.078125 C 3 15.417969 4.003906 16.5 5.242188 16.5 L 18.757812 16.5 C 19.996094 16.5 21 15.417969 21 14.078125 Z M 21 14.078125 "/>
<path style=" stroke:none;fill-rule:nonzero;fill:rgb(95.294118%,71.764708%,85.09804%);fill-opacity:1;" d="M 19.875 13.75 L 19.875 10.25 C 19.875 9.230469 19.015625 8.398438 17.957031 8.398438 L 6.042969 8.398438 C 4.984375 8.398438 4.125 9.230469 4.125 10.25 L 4.125 13.75 C 4.125 14.769531 4.984375 15.601562 6.042969 15.601562 L 17.957031 15.601562 C 19.015625 15.601562 19.875 14.769531 19.875 13.75 Z M 19.875 13.75 "/>
<path style=" stroke:none;fill-rule:nonzero;fill:rgb(61.56863%,22.745098%,60.784316%);fill-opacity:1;" d="M 15.9375 15.988281 L 15.9375 8.011719 C 15.9375 7.5625 15.574219 7.199219 15.125 7.199219 L 8.875 7.199219 C 8.425781 7.199219 8.0625 7.5625 8.0625 8.011719 L 8.0625 15.988281 C 8.0625 16.4375 8.425781 16.800781 8.875 16.800781 L 15.125 16.800781 C 15.574219 16.800781 15.9375 16.4375 15.9375 15.988281 Z M 15.9375 15.988281 "/>
<path style=" stroke:none;fill-rule:nonzero;fill:rgb(94.117647%,89.019608%,92.54902%);fill-opacity:1;" d="M 14.625 14.949219 L 14.625 9.050781 C 14.625 8.691406 14.335938 8.398438 13.976562 8.398438 L 10.023438 8.398438 C 9.664062 8.398438 9.375 8.691406 9.375 9.050781 L 9.375 14.949219 C 9.375 15.308594 9.664062 15.601562 10.023438 15.601562 L 13.976562 15.601562 C 14.335938 15.601562 14.625 15.308594 14.625 14.949219 Z M 14.625 14.949219 "/>
<path style=" stroke:none;fill-rule:nonzero;fill:rgb(90.196079%,0.784314%,70.588237%);fill-opacity:1;" d="M 13.3125 14.074219 L 13.3125 9.925781 C 13.3125 9.746094 13.167969 9.601562 12.988281 9.601562 L 11.011719 9.601562 C 10.832031 9.601562 10.6875 9.746094 10.6875 9.925781 L 10.6875 14.074219 C 10.6875 14.253906 10.832031 14.398438 11.011719 14.398438 L 12.988281 14.398438 C 13.167969 14.398438 13.3125 14.253906 13.3125 14.074219 Z M 13.3125 14.074219 "/>
</g>
</svg>
