<?xml version="1.0" encoding="UTF-8"?>
<svg xmlns="http://www.w3.org/2000/svg" xmlns:xlink="http://www.w3.org/1999/xlink" width="24px" height="24px" viewBox="0 0 24 24" version="1.1">
<defs>
<filter id="alpha" filterUnits="objectBoundingBox" x="0%" y="0%" width="100%" height="100%">
  <feColorMatrix type="matrix" in="SourceGraphic" values="0 0 0 0 1 0 0 0 0 1 0 0 0 0 1 0 0 0 1 0"/>
</filter>
<mask id="mask0">
  <g filter="url(#alpha)">
<rect x="0" y="0" width="24" height="24" style="fill:rgb(0%,0%,0%);fill-opacity:0.465;stroke:none;"/>
  </g>
</mask>
<clipPath id="clip1">
  <rect x="0" y="0" width="24" height="24"/>
</clipPath>
<g id="surface5" clip-path="url(#clip1)">
<path style=" stroke:none;fill-rule:nonzero;fill:rgb(0%,0%,0%);fill-opacity:1;" d="M 2.660156 1.355469 C 1.996094 1.355469 1.460938 1.953125 1.460938 2.695312 L 1.460938 21.304688 C 1.460938 22.046875 1.996094 22.644531 2.660156 22.644531 L 7.5 22.644531 C 7.101562 22.453125 6.714844 22.265625 6.3125 22.070312 C 6.820312 21.011719 16.445312 2.480469 16.984375 1.355469 Z M 2.660156 1.355469 "/>
</g>
</defs>
<g id="surface1">
<path style="fill-rule:nonzero;fill:rgb(95.294118%,71.764708%,85.09804%);fill-opacity:1;stroke-width:1;stroke-linecap:round;stroke-linejoin:round;stroke:rgb(90.196079%,0.784314%,70.588237%);stroke-opacity:1;stroke-miterlimit:4;" d="M -13.632812 1.5 L -2.367188 1.5 C -1.888021 1.5 -1.5 1.945312 -1.5 2.492188 L -1.5 13.507812 C -1.5 14.054688 -1.888021 14.5 -2.367188 14.5 L -13.632812 14.5 C -14.111979 14.5 -14.5 14.054688 -14.5 13.507812 L -14.5 2.492188 C -14.5 1.945312 -14.111979 1.5 -13.632812 1.5 Z M -13.632812 1.5 " transform="matrix(-1.5,0,0,1.5,0,0)"/>
<path style=" stroke:none;fill-rule:nonzero;fill:rgb(61.960787%,22.745098%,61.176473%);fill-opacity:1;" d="M 20.757812 7.765625 C 20.65625 7.707031 20.558594 7.644531 20.460938 7.582031 C 20.277344 7.457031 20.089844 7.335938 19.90625 7.210938 C 19.695312 7.070312 19.472656 6.9375 19.253906 6.808594 C 19.050781 6.683594 18.839844 6.570312 18.625 6.460938 C 18.4375 6.359375 18.242188 6.277344 18.035156 6.234375 C 17.820312 6.191406 17.621094 6.230469 17.429688 6.316406 C 17.253906 6.40625 17.117188 6.539062 17 6.6875 C 16.882812 6.835938 16.800781 7.007812 16.71875 7.175781 C 16.652344 7.324219 16.59375 7.472656 16.535156 7.625 C 16.496094 7.738281 16.433594 7.847656 16.375 7.953125 C 16.316406 8.042969 16.242188 8.125 16.15625 8.1875 C 16.058594 8.246094 15.949219 8.261719 15.835938 8.265625 C 15.679688 8.257812 15.539062 8.199219 15.398438 8.136719 C 15.195312 8.046875 15.003906 7.925781 14.820312 7.800781 C 14.605469 7.664062 14.398438 7.515625 14.191406 7.363281 C 13.988281 7.21875 13.78125 7.082031 13.570312 6.953125 C 13.394531 6.847656 13.21875 6.738281 13.042969 6.628906 C 12.894531 6.542969 12.746094 6.457031 12.589844 6.378906 C 12.429688 6.285156 12.253906 6.261719 12.070312 6.261719 C 11.894531 6.261719 11.742188 6.332031 11.597656 6.421875 C 11.453125 6.519531 11.34375 6.652344 11.242188 6.792969 C 11.152344 6.929688 11.078125 7.078125 11.007812 7.226562 C 10.953125 7.347656 10.902344 7.46875 10.84375 7.585938 C 10.800781 7.691406 10.753906 7.789062 10.683594 7.878906 C 10.625 7.957031 10.558594 8.011719 10.464844 8.035156 C 10.339844 8.0625 10.21875 8.039062 10.101562 8.003906 C 9.941406 7.953125 9.804688 7.871094 9.664062 7.785156 C 9.507812 7.6875 9.367188 7.566406 9.230469 7.445312 C 9.09375 7.3125 8.957031 7.179688 8.820312 7.046875 C 8.707031 6.933594 8.59375 6.8125 8.476562 6.699219 C 8.375 6.597656 8.269531 6.5 8.167969 6.402344 C 8.074219 6.3125 7.972656 6.234375 7.863281 6.164062 C 7.746094 6.085938 7.609375 6.050781 7.46875 6.042969 C 7.324219 6.039062 7.1875 6.078125 7.058594 6.136719 C 6.9375 6.203125 6.84375 6.300781 6.757812 6.40625 C 6.679688 6.503906 6.621094 6.613281 6.566406 6.722656 C 6.527344 6.828125 6.476562 6.929688 6.429688 7.035156 C 6.390625 7.140625 6.339844 7.242188 6.289062 7.34375 C 6.25 7.429688 6.199219 7.511719 6.152344 7.589844 C 6.109375 7.648438 6.070312 7.710938 6.007812 7.746094 C 5.9375 7.796875 5.859375 7.835938 5.78125 7.871094 C 5.695312 7.894531 5.609375 7.902344 5.519531 7.894531 C 5.417969 7.886719 5.320312 7.851562 5.230469 7.804688 C 5.113281 7.75 5.007812 7.671875 4.910156 7.589844 C 4.796875 7.492188 4.691406 7.386719 4.589844 7.277344 C 4.492188 7.167969 4.386719 7.070312 4.289062 6.964844 C 4.203125 6.867188 4.117188 6.769531 4.027344 6.675781 C 3.941406 6.59375 3.863281 6.503906 3.773438 6.425781 C 3.6875 6.359375 3.601562 6.296875 3.515625 6.230469 C 3.464844 6.191406 3.414062 6.152344 3.367188 6.113281 C 3.03125 5.851562 2.839844 6.085938 3.175781 6.347656 C 3.226562 6.386719 3.277344 6.429688 3.324219 6.46875 C 3.40625 6.53125 3.492188 6.589844 3.570312 6.65625 C 3.65625 6.726562 3.722656 6.816406 3.804688 6.890625 C 3.890625 6.980469 3.972656 7.078125 4.054688 7.167969 C 4.152344 7.277344 4.257812 7.375 4.355469 7.484375 C 4.464844 7.605469 4.578125 7.71875 4.703125 7.820312 C 4.824219 7.921875 4.953125 8.015625 5.09375 8.078125 C 5.222656 8.140625 5.355469 8.1875 5.496094 8.195312 C 5.636719 8.207031 5.773438 8.195312 5.90625 8.144531 C 6.003906 8.097656 6.105469 8.050781 6.191406 7.984375 C 6.28125 7.917969 6.355469 7.835938 6.414062 7.746094 C 6.464844 7.65625 6.519531 7.570312 6.566406 7.480469 C 6.621094 7.375 6.671875 7.269531 6.710938 7.15625 C 6.757812 7.054688 6.804688 6.953125 6.847656 6.847656 C 6.890625 6.757812 6.9375 6.667969 7.003906 6.589844 C 7.054688 6.519531 7.117188 6.453125 7.191406 6.410156 C 7.273438 6.371094 7.359375 6.347656 7.453125 6.347656 C 7.542969 6.351562 7.625 6.367188 7.699219 6.421875 C 7.789062 6.476562 7.871094 6.542969 7.949219 6.617188 C 8.050781 6.71875 8.148438 6.816406 8.25 6.914062 C 8.367188 7.03125 8.480469 7.152344 8.59375 7.269531 C 8.734375 7.40625 8.871094 7.542969 9.011719 7.675781 C 9.164062 7.816406 9.320312 7.945312 9.496094 8.054688 C 9.660156 8.152344 9.828125 8.246094 10.011719 8.300781 C 10.191406 8.351562 10.371094 8.375 10.550781 8.328125 C 10.703125 8.277344 10.828125 8.199219 10.921875 8.070312 C 11.011719 7.964844 11.074219 7.84375 11.125 7.71875 C 11.183594 7.601562 11.238281 7.476562 11.292969 7.355469 C 11.355469 7.226562 11.425781 7.09375 11.5 6.96875 C 11.578125 6.863281 11.664062 6.757812 11.769531 6.679688 C 11.863281 6.617188 11.957031 6.570312 12.070312 6.570312 C 12.203125 6.570312 12.324219 6.585938 12.441406 6.652344 C 12.585938 6.726562 12.730469 6.808594 12.867188 6.894531 C 13.042969 7.007812 13.21875 7.121094 13.394531 7.226562 C 13.597656 7.355469 13.796875 7.484375 13.992188 7.625 C 14.199219 7.78125 14.414062 7.933594 14.636719 8.074219 C 14.839844 8.203125 15.042969 8.335938 15.269531 8.429688 C 15.453125 8.507812 15.644531 8.574219 15.847656 8.574219 C 16.027344 8.566406 16.195312 8.53125 16.347656 8.429688 C 16.464844 8.339844 16.5625 8.234375 16.640625 8.109375 C 16.714844 7.988281 16.777344 7.867188 16.828125 7.734375 C 16.886719 7.59375 16.941406 7.449219 17.007812 7.3125 C 17.078125 7.160156 17.15625 7.011719 17.25 6.878906 C 17.335938 6.765625 17.433594 6.667969 17.5625 6.601562 C 17.691406 6.539062 17.824219 6.515625 17.964844 6.542969 C 18.148438 6.578125 18.3125 6.65625 18.472656 6.742188 C 18.675781 6.851562 18.878906 6.964844 19.078125 7.085938 C 19.292969 7.214844 19.511719 7.339844 19.71875 7.480469 C 19.90625 7.605469 20.09375 7.722656 20.285156 7.84375 C 20.398438 7.914062 20.519531 7.988281 20.648438 8.035156 C 21.035156 8.191406 21.144531 7.921875 20.757812 7.765625 Z M 20.757812 7.765625 "/>
<path style=" stroke:none;fill-rule:nonzero;fill:rgb(61.960787%,22.745098%,61.176473%);fill-opacity:1;" d="M 20.757812 12.015625 C 20.65625 11.953125 20.558594 11.890625 20.460938 11.828125 C 20.277344 11.703125 20.089844 11.582031 19.90625 11.457031 C 19.695312 11.316406 19.472656 11.183594 19.253906 11.054688 C 19.050781 10.929688 18.839844 10.816406 18.625 10.707031 C 18.4375 10.605469 18.242188 10.523438 18.035156 10.480469 C 17.820312 10.4375 17.621094 10.476562 17.429688 10.5625 C 17.253906 10.652344 17.117188 10.785156 17 10.933594 C 16.882812 11.082031 16.800781 11.253906 16.71875 11.421875 C 16.652344 11.570312 16.59375 11.71875 16.535156 11.871094 C 16.496094 11.984375 16.433594 12.09375 16.375 12.199219 C 16.316406 12.289062 16.242188 12.371094 16.15625 12.433594 C 16.058594 12.492188 15.949219 12.507812 15.835938 12.511719 C 15.679688 12.503906 15.539062 12.445312 15.398438 12.386719 C 15.195312 12.292969 15.003906 12.171875 14.820312 12.046875 C 14.605469 11.910156 14.398438 11.761719 14.191406 11.609375 C 13.988281 11.464844 13.78125 11.328125 13.570312 11.199219 C 13.394531 11.09375 13.21875 10.984375 13.042969 10.875 C 12.894531 10.789062 12.746094 10.703125 12.589844 10.625 C 12.429688 10.535156 12.253906 10.507812 12.070312 10.507812 C 11.894531 10.507812 11.742188 10.578125 11.597656 10.667969 C 11.453125 10.765625 11.34375 10.898438 11.242188 11.039062 C 11.152344 11.175781 11.078125 11.324219 11.007812 11.472656 C 10.953125 11.59375 10.902344 11.714844 10.84375 11.832031 C 10.800781 11.9375 10.753906 12.035156 10.683594 12.125 C 10.625 12.203125 10.558594 12.257812 10.464844 12.28125 C 10.339844 12.308594 10.21875 12.285156 10.101562 12.25 C 9.941406 12.199219 9.804688 12.117188 9.664062 12.03125 C 9.507812 11.933594 9.367188 11.8125 9.230469 11.691406 C 9.09375 11.558594 8.957031 11.425781 8.820312 11.292969 C 8.707031 11.179688 8.59375 11.058594 8.476562 10.945312 C 8.375 10.84375 8.269531 10.746094 8.167969 10.648438 C 8.074219 10.558594 7.972656 10.480469 7.863281 10.410156 C 7.746094 10.332031 7.609375 10.296875 7.46875 10.289062 C 7.324219 10.285156 7.1875 10.324219 7.058594 10.382812 C 6.9375 10.449219 6.84375 10.546875 6.757812 10.652344 C 6.679688 10.75 6.621094 10.859375 6.566406 10.96875 C 6.527344 11.074219 6.476562 11.175781 6.429688 11.28125 C 6.390625 11.386719 6.339844 11.488281 6.289062 11.589844 C 6.25 11.675781 6.199219 11.757812 6.152344 11.835938 C 6.109375 11.894531 6.070312 11.957031 6.007812 11.992188 C 5.9375 12.042969 5.859375 12.082031 5.78125 12.117188 C 5.695312 12.140625 5.609375 12.148438 5.519531 12.140625 C 5.417969 12.132812 5.320312 12.097656 5.230469 12.050781 C 5.113281 11.996094 5.007812 11.917969 4.910156 11.835938 C 4.796875 11.738281 4.691406 11.632812 4.589844 11.523438 C 4.492188 11.414062 4.386719 11.316406 4.289062 11.210938 C 4.203125 11.113281 4.117188 11.015625 4.027344 10.921875 C 3.941406 10.839844 3.863281 10.75 3.773438 10.671875 C 3.6875 10.605469 3.601562 10.542969 3.515625 10.476562 C 3.464844 10.4375 3.414062 10.398438 3.367188 10.359375 C 3.03125 10.097656 2.839844 10.332031 3.175781 10.59375 C 3.226562 10.632812 3.277344 10.675781 3.324219 10.714844 C 3.40625 10.777344 3.492188 10.835938 3.570312 10.902344 C 3.65625 10.972656 3.722656 11.0625 3.804688 11.136719 C 3.890625 11.226562 3.972656 11.324219 4.054688 11.414062 C 4.152344 11.523438 4.257812 11.621094 4.355469 11.730469 C 4.464844 11.851562 4.578125 11.964844 4.703125 12.066406 C 4.824219 12.167969 4.953125 12.261719 5.09375 12.324219 C 5.222656 12.386719 5.355469 12.433594 5.496094 12.441406 C 5.636719 12.453125 5.773438 12.441406 5.90625 12.390625 C 6.003906 12.34375 6.105469 12.296875 6.191406 12.234375 C 6.28125 12.164062 6.355469 12.082031 6.414062 11.992188 C 6.464844 11.902344 6.519531 11.816406 6.566406 11.726562 C 6.621094 11.621094 6.671875 11.515625 6.710938 11.402344 C 6.757812 11.300781 6.804688 11.199219 6.847656 11.097656 C 6.890625 11.003906 6.9375 10.914062 7.003906 10.835938 C 7.054688 10.765625 7.117188 10.699219 7.191406 10.65625 C 7.273438 10.617188 7.359375 10.59375 7.453125 10.59375 C 7.542969 10.597656 7.625 10.613281 7.699219 10.667969 C 7.789062 10.722656 7.871094 10.789062 7.949219 10.863281 C 8.050781 10.964844 8.148438 11.0625 8.25 11.160156 C 8.367188 11.277344 8.480469 11.398438 8.59375 11.515625 C 8.734375 11.652344 8.871094 11.789062 9.011719 11.921875 C 9.164062 12.0625 9.320312 12.191406 9.496094 12.300781 C 9.660156 12.398438 9.828125 12.492188 10.011719 12.546875 C 10.191406 12.597656 10.371094 12.621094 10.550781 12.574219 C 10.703125 12.523438 10.828125 12.445312 10.921875 12.316406 C 11.011719 12.210938 11.074219 12.089844 11.125 11.964844 C 11.183594 11.847656 11.238281 11.722656 11.292969 11.605469 C 11.355469 11.472656 11.425781 11.339844 11.5 11.214844 C 11.578125 11.109375 11.664062 11.003906 11.769531 10.925781 C 11.863281 10.863281 11.957031 10.816406 12.070312 10.816406 C 12.203125 10.816406 12.324219 10.832031 12.441406 10.898438 C 12.585938 10.972656 12.730469 11.054688 12.867188 11.140625 C 13.042969 11.253906 13.21875 11.367188 13.394531 11.472656 C 13.597656 11.601562 13.796875 11.730469 13.992188 11.871094 C 14.199219 12.027344 14.414062 12.179688 14.636719 12.320312 C 14.839844 12.453125 15.042969 12.582031 15.269531 12.675781 C 15.453125 12.753906 15.644531 12.820312 15.847656 12.820312 C 16.027344 12.8125 16.195312 12.777344 16.347656 12.675781 C 16.464844 12.585938 16.5625 12.480469 16.640625 12.355469 C 16.714844 12.234375 16.777344 12.113281 16.828125 11.980469 C 16.886719 11.839844 16.941406 11.695312 17.007812 11.558594 C 17.078125 11.40625 17.15625 11.257812 17.25 11.125 C 17.335938 11.011719 17.433594 10.914062 17.5625 10.847656 C 17.691406 10.785156 17.824219 10.761719 17.964844 10.789062 C 18.148438 10.824219 18.3125 10.902344 18.472656 10.988281 C 18.675781 11.097656 18.878906 11.210938 19.078125 11.332031 C 19.292969 11.460938 19.511719 11.585938 19.71875 11.726562 C 19.90625 11.851562 20.09375 11.96875 20.285156 12.089844 C 20.398438 12.160156 20.519531 12.234375 20.648438 12.285156 C 21.035156 12.4375 21.144531 12.167969 20.757812 12.011719 Z M 20.757812 12.015625 "/>
<path style=" stroke:none;fill-rule:nonzero;fill:rgb(61.960787%,22.745098%,61.176473%);fill-opacity:1;" d="M 20.757812 15.695312 C 20.65625 15.632812 20.558594 15.570312 20.460938 15.507812 C 20.277344 15.382812 20.089844 15.265625 19.90625 15.136719 C 19.695312 14.996094 19.472656 14.867188 19.253906 14.734375 C 19.050781 14.609375 18.839844 14.496094 18.625 14.386719 C 18.4375 14.285156 18.242188 14.203125 18.035156 14.160156 C 17.820312 14.121094 17.621094 14.15625 17.429688 14.246094 C 17.253906 14.332031 17.117188 14.464844 17 14.613281 C 16.882812 14.765625 16.800781 14.933594 16.71875 15.105469 C 16.652344 15.25 16.59375 15.398438 16.535156 15.550781 C 16.496094 15.667969 16.433594 15.773438 16.375 15.878906 C 16.316406 15.96875 16.242188 16.050781 16.15625 16.113281 C 16.058594 16.171875 15.949219 16.1875 15.835938 16.191406 C 15.679688 16.183594 15.539062 16.125 15.398438 16.066406 C 15.195312 15.972656 15.003906 15.851562 14.820312 15.726562 C 14.605469 15.589844 14.398438 15.441406 14.191406 15.289062 C 13.988281 15.144531 13.78125 15.007812 13.570312 14.878906 C 13.394531 14.777344 13.21875 14.664062 13.042969 14.558594 C 12.894531 14.46875 12.746094 14.382812 12.589844 14.304688 C 12.429688 14.214844 12.253906 14.1875 12.070312 14.1875 C 11.894531 14.1875 11.742188 14.257812 11.597656 14.347656 C 11.453125 14.445312 11.34375 14.578125 11.242188 14.71875 C 11.152344 14.855469 11.078125 15.003906 11.007812 15.152344 C 10.953125 15.273438 10.902344 15.394531 10.84375 15.511719 C 10.800781 15.617188 10.753906 15.714844 10.683594 15.804688 C 10.625 15.882812 10.558594 15.9375 10.464844 15.960938 C 10.339844 15.988281 10.21875 15.964844 10.101562 15.929688 C 9.941406 15.878906 9.804688 15.796875 9.664062 15.710938 C 9.507812 15.613281 9.367188 15.492188 9.230469 15.371094 C 9.09375 15.238281 8.957031 15.105469 8.820312 14.976562 C 8.707031 14.859375 8.59375 14.738281 8.476562 14.625 C 8.375 14.523438 8.269531 14.425781 8.167969 14.328125 C 8.074219 14.238281 7.972656 14.160156 7.863281 14.089844 C 7.746094 14.011719 7.609375 13.980469 7.46875 13.96875 C 7.324219 13.964844 7.1875 14.003906 7.058594 14.066406 C 6.9375 14.128906 6.84375 14.226562 6.757812 14.332031 C 6.679688 14.429688 6.621094 14.539062 6.566406 14.652344 C 6.527344 14.753906 6.476562 14.855469 6.429688 14.960938 C 6.390625 15.066406 6.339844 15.167969 6.289062 15.269531 C 6.25 15.355469 6.199219 15.4375 6.152344 15.515625 C 6.109375 15.574219 6.070312 15.636719 6.007812 15.675781 C 5.9375 15.722656 5.859375 15.761719 5.78125 15.796875 C 5.695312 15.820312 5.609375 15.828125 5.519531 15.820312 C 5.417969 15.8125 5.320312 15.777344 5.230469 15.730469 C 5.113281 15.675781 5.007812 15.597656 4.910156 15.515625 C 4.796875 15.417969 4.691406 15.3125 4.589844 15.203125 C 4.492188 15.09375 4.386719 14.996094 4.289062 14.890625 C 4.203125 14.792969 4.117188 14.695312 4.027344 14.605469 C 3.941406 14.523438 3.863281 14.433594 3.773438 14.351562 C 3.6875 14.285156 3.601562 14.222656 3.515625 14.15625 C 3.464844 14.117188 3.414062 14.078125 3.367188 14.042969 C 3.03125 13.777344 2.839844 14.011719 3.175781 14.273438 C 3.226562 14.3125 3.277344 14.355469 3.324219 14.394531 C 3.40625 14.457031 3.492188 14.515625 3.570312 14.582031 C 3.65625 14.652344 3.722656 14.742188 3.804688 14.816406 C 3.890625 14.90625 3.972656 15.003906 4.054688 15.09375 C 4.152344 15.203125 4.257812 15.300781 4.355469 15.410156 C 4.464844 15.53125 4.578125 15.644531 4.703125 15.75 C 4.824219 15.847656 4.953125 15.941406 5.09375 16.007812 C 5.222656 16.066406 5.355469 16.113281 5.496094 16.121094 C 5.636719 16.132812 5.773438 16.121094 5.90625 16.070312 C 6.003906 16.023438 6.105469 15.976562 6.191406 15.914062 C 6.28125 15.84375 6.355469 15.761719 6.414062 15.671875 C 6.464844 15.585938 6.519531 15.496094 6.566406 15.40625 C 6.621094 15.300781 6.671875 15.195312 6.710938 15.082031 C 6.757812 14.980469 6.804688 14.878906 6.847656 14.777344 C 6.890625 14.683594 6.9375 14.59375 7.003906 14.515625 C 7.054688 14.445312 7.117188 14.378906 7.191406 14.335938 C 7.273438 14.296875 7.359375 14.273438 7.453125 14.273438 C 7.542969 14.277344 7.625 14.292969 7.699219 14.347656 C 7.789062 14.402344 7.871094 14.46875 7.949219 14.542969 C 8.050781 14.644531 8.148438 14.742188 8.25 14.84375 C 8.367188 14.957031 8.480469 15.078125 8.59375 15.199219 C 8.734375 15.332031 8.871094 15.472656 9.011719 15.601562 C 9.164062 15.742188 9.320312 15.871094 9.496094 15.980469 C 9.660156 16.078125 9.828125 16.171875 10.011719 16.230469 C 10.191406 16.277344 10.371094 16.300781 10.550781 16.253906 C 10.703125 16.203125 10.828125 16.125 10.921875 15.996094 C 11.011719 15.890625 11.074219 15.773438 11.125 15.644531 C 11.183594 15.527344 11.238281 15.402344 11.292969 15.285156 C 11.355469 15.152344 11.425781 15.019531 11.5 14.894531 C 11.578125 14.789062 11.664062 14.683594 11.769531 14.605469 C 11.863281 14.542969 11.957031 14.496094 12.070312 14.496094 C 12.203125 14.496094 12.324219 14.511719 12.441406 14.578125 C 12.585938 14.652344 12.730469 14.738281 12.867188 14.824219 C 13.042969 14.933594 13.21875 15.046875 13.394531 15.15625 C 13.597656 15.28125 13.796875 15.410156 13.992188 15.550781 C 14.199219 15.707031 14.414062 15.859375 14.636719 16 C 14.839844 16.132812 15.042969 16.261719 15.269531 16.355469 C 15.453125 16.433594 15.644531 16.5 15.847656 16.5 C 16.027344 16.492188 16.195312 16.457031 16.347656 16.359375 C 16.464844 16.265625 16.5625 16.160156 16.640625 16.035156 C 16.714844 15.914062 16.777344 15.792969 16.828125 15.660156 C 16.886719 15.519531 16.941406 15.375 17.007812 15.238281 C 17.078125 15.089844 17.15625 14.941406 17.25 14.804688 C 17.335938 14.691406 17.433594 14.59375 17.5625 14.527344 C 17.691406 14.464844 17.824219 14.441406 17.964844 14.46875 C 18.148438 14.503906 18.3125 14.582031 18.472656 14.667969 C 18.675781 14.78125 18.878906 14.890625 19.078125 15.011719 C 19.292969 15.144531 19.511719 15.265625 19.71875 15.40625 C 19.90625 15.53125 20.09375 15.648438 20.285156 15.769531 C 20.398438 15.839844 20.519531 15.914062 20.648438 15.964844 C 21.035156 16.117188 21.144531 15.847656 20.757812 15.695312 Z M 20.757812 15.695312 "/>
<use xlink:href="#surface5" mask="url(#mask0)"/>
<path style=" stroke:none;fill-rule:nonzero;fill:rgb(33.333334%,33.333334%,33.333334%);fill-opacity:1;" d="M 5.496094 23.171875 C 6.066406 23.453125 6.578125 23.707031 7.175781 24 C 7.765625 22.738281 18.292969 2.019531 18.847656 0.828125 C 18.277344 0.546875 17.765625 0.292969 17.171875 0 C 16.582031 1.261719 6.050781 21.984375 5.496094 23.171875 Z M 5.496094 23.171875 "/>
</g>
</svg>
