<?xml version="1.0" encoding="UTF-8" standalone="no"?>
<svg
   xmlns:dc="http://purl.org/dc/elements/1.1/"
   xmlns:cc="http://creativecommons.org/ns#"
   xmlns:rdf="http://www.w3.org/1999/02/22-rdf-syntax-ns#"
   xmlns:svg="http://www.w3.org/2000/svg"
   xmlns="http://www.w3.org/2000/svg"
   xmlns:sodipodi="http://sodipodi.sourceforge.net/DTD/sodipodi-0.dtd"
   xmlns:inkscape="http://www.inkscape.org/namespaces/inkscape"
   height="24"
   width="24"
   id="svg2"
   version="1.1"
   inkscape:version="0.91 r13725"
   sodipodi:docname="lc_heading3parastyle.svg"
   inkscape:export-filename="/home/tamara/Desktop/IKON/5_258 (tamara)/sc (222)/Tanggal 20/lc_heading3parastyle.png"
   inkscape:export-xdpi="90"
   inkscape:export-ydpi="90">
  <metadata
     id="metadata35">
    <rdf:RDF>
      <cc:Work
         rdf:about="">
        <dc:format>image/svg+xml</dc:format>
        <dc:type
           rdf:resource="http://purl.org/dc/dcmitype/StillImage" />
        <dc:title />
      </cc:Work>
    </rdf:RDF>
  </metadata>
  <defs
     id="defs33" />
  <sodipodi:namedview
     pagecolor="#ffffff"
     bordercolor="#666666"
     borderopacity="1"
     objecttolerance="10"
     gridtolerance="10"
     guidetolerance="10"
     inkscape:pageopacity="0"
     inkscape:pageshadow="2"
     inkscape:window-width="1366"
     inkscape:window-height="718"
     id="namedview31"
     showgrid="true"
     inkscape:zoom="21.166667"
     inkscape:cx="4.1574804"
     inkscape:cy="11.905512"
     inkscape:window-x="0"
     inkscape:window-y="0"
     inkscape:window-maximized="1"
     inkscape:current-layer="svg2">
    <inkscape:grid
       type="xygrid"
       id="grid4163" />
  </sodipodi:namedview>
  <linearGradient
     id="a"
     gradientUnits="userSpaceOnUse"
     x1="101.5462"
     x2="101.5462"
     y1="93.731888"
     y2="87.067146">
    <stop
       offset="0"
       stop-color="#06f"
       id="stop5" />
    <stop
       offset="1"
       stop-color="#80b3ff"
       id="stop7" />
  </linearGradient>
  <linearGradient
     id="b"
     gradientUnits="userSpaceOnUse"
     x1="15.712173"
     x2="16.933331"
     y1="294.72055"
     y2="266.63391">
    <stop
       offset="0"
       stop-color="#555"
       id="stop10" />
    <stop
       offset="1"
       id="stop12" />
  </linearGradient>
  <linearGradient
     id="c"
     gradientTransform="matrix(0.26458334,0,0,0.27681548,0,-1.027808)"
     gradientUnits="userSpaceOnUse"
     x1="34.167969"
     x2="44.113281"
     y1="20.28125"
     y2="80.78125">
    <stop
       offset="0"
       stop-color="#3b3e22"
       id="stop15" />
    <stop
       offset="1"
       stop-color="#454545"
       stop-opacity="0"
       id="stop17" />
  </linearGradient>
  <g
     id="g4811">
    <g
       transform="matrix(3.7795274,0,0,3.7795274,0.01772812,0.49368815)"
       id="g4749">
      <path
         inkscape:connector-curvature="0"
         style="fill:#9d3a9b;stroke-width:1.015378"
         id="path21"
         d="m 1.1789912,2.7864641 1.6000372,-0.00649 0.00219,-1.4658049 C 2.7816715,1.0124893 2.7500116,0.8197479 2.6875971,0.73594885 2.6251825,0.64656205 2.4733074,0.58790287 2.2319714,0.5599692 l 0,-0.15921999 1.9210613,0.006492 0,0.15921998 C 3.9116967,0.59439432 3.7598215,0.65305585 3.6974069,0.74244011 3.6349927,0.82624068 3.6037851,1.0189806 3.6037851,1.3206606 l 0,3.72072 c 0,0.2960941 0.033288,0.4888337 0.099863,0.5782185 0.066576,0.089386 0.2163702,0.1480468 0.4493841,0.1759797 l 0,0.1592199 -1.9210612,-0.00649 0,-0.1592198 c 0.241336,-0.022348 0.3932111,-0.081007 0.4556257,-0.1759798 0.062414,-0.094974 0.093622,-0.3184398 0.093622,-0.6703993 l -0.00219,-1.7660656 -1.6000373,0.00649 0.00219,1.8582464 c 3.504e-4,0.2960941 0.033287,0.4888337 0.099863,0.5782185 0.066576,0.089386 0.2163701,0.1480468 0.4493843,0.1759797 l 0,0.1592199 -1.7351231,0 0,-0.1592199 c 0.24133464,-0.022347 0.24110188,-0.091127 0.30351635,-0.1861022 0.0624145,-0.094973 0.0936218,-0.3184399 0.0936218,-0.6703993 l 0,-3.6285391 c 0,-0.3016801 -0.0312072,-0.49441969 -0.0936217,-0.57822053 -0.0624145,-0.0893852 -0.0621818,-0.13792548 -0.30351772,-0.1658587 l 0,-0.15921999 1.73512277,0 0,0.15921999 c -0.2413346,0.0279337 -0.39321,0.0865953 -0.4556244,0.17597981 -0.062415,0.0838005 -0.093622,0.27654042 -0.093622,0.57822052 z" />
      <path
         inkscape:connector-curvature="0"
         style="opacity:0.75;fill:#9d3a9b"
         id="path23"
         d="m 0.44988742,0.52934113 c 3.3546e-4,4.4977e-4 2.4551e-4,0.001068 5.8095e-4,0.001514 5.847e-4,8.7704e-4 0.003716,0.004183 0.004261,0.004963 z m 2.38892548,0.003448 c 8.433e-4,0.00113 6.185e-4,0.002713 0.00146,0.003853 9.904e-4,0.001411 0.0024,0.001207 0.00339,0.002639 z m -1.7152849,0.006492 -0.00484,0.006582 c 0.001,-0.001428 0.00248,-0.001323 0.00348,-0.002729 8.321e-4,-0.001132 5.154e-4,-0.002729 0.00135,-0.003853 z m 2.4226268,0 -0.00484,0.006582 c 9.905e-4,-0.001428 0.00249,-0.001323 0.00348,-0.002729 8.245e-4,-0.001132 5.06e-4,-0.002729 0.00135,-0.003853 z M 2.9007926,0.69023755 c 0.07124,0.17501505 0.094325,0.37043125 0.094325,0.62372785 l 0,1.6259883 a 0.2139007,0.28719095 0 0 1 -0.050164,0.1846056 0.2139007,0.28719095 0 0 1 0.050164,0.1842002 l 0,0.036171 A 3.7683587,2.0750402 0 0 0 3.3898503,3.2243598 l 0,-1.9038083 c 0,-0.2554573 0.023118,-0.45250045 0.096164,-0.62849 z m -2.38592344,0.004153 c 0.0682158,0.17320144 0.0916136,0.36639475 0.0916136,0.61612885 l 0,2.1902414 a 3.7683587,2.0750402 0 0 0 0.36074048,0.02989 l 0,-0.215407 A 0.2139007,0.28719095 0 0 1 1.0174848,3.1307402 0.2139007,0.28719095 0 0 1 0.96722321,2.9465398 l 0,-1.6259883 c 0,-0.2543771 0.023155,-0.45065626 0.0952937,-0.6261596 z" />
    </g>
    <g
       transform="translate(0.70866141,-0.055664)"
       id="g4785">
      <g
         id="g4193"
         transform="matrix(1.4687704,0,0,1.4852719,-0.16539461,0.29130764)">
        <path
           d="m 14.494655,12.791152 q 0,0.821682 -0.560772,1.269872 -0.560771,0.44819 -1.596043,0.44819 -0.979195,0 -1.557221,-0.431591 -0.578025,-0.435741 -0.677239,-1.253273 l 1.233697,-0.103745 q 0.116471,0.842433 0.996446,0.842433 0.435683,0 0.677242,-0.207496 0.24156,-0.207496 0.24156,-0.634937 0,-0.390091 -0.293328,-0.597586 -0.293327,-0.207495 -0.87135,-0.207495 l -0.422733,0 0,-0.94203 0.396849,0 q 0.521953,0 0.78508,-0.203346 0.263127,-0.207494 0.263127,-0.589286 0,-0.3610427 -0.211359,-0.5643873 -0.207057,-0.2074958 -0.608223,-0.2074958 -0.375281,0 -0.608223,0.1991948 -0.22862,0.1991962 -0.26313,0.5643883 l -1.212127,-0.083 q 0.0949,-0.755282 0.651358,-1.182723 0.556456,-0.4274411 1.45369,-0.4274411 0.953303,0 1.488206,0.4149917 0.539188,0.4108403 0.539188,1.1412244 0,0.547788 -0.336463,0.900529 -0.332146,0.352744 -0.961936,0.468941 l 0,0.0166 q 0.698809,0.07884 1.074091,0.44404 0.379613,0.361043 0.379613,0.925431 z"
           id="path27"
           style="fill:#f3b7d9;stroke:#e602b4;stroke-width:2.98158002;stroke-linecap:round;stroke-linejoin:round"
           inkscape:connector-curvature="0" />
        <path
           d="m 14.46612,12.791146 q 0,0.821682 -0.539502,1.269873 -0.539487,0.44819 -1.535454,0.44819 -0.94203,0 -1.498125,-0.43159 -0.556079,-0.435742 -0.651535,-1.253273 l 1.186878,-0.103744 q 0.112107,0.84243 0.958623,0.84243 0.41915,0 0.651534,-0.207495 0.2324,-0.207496 0.2324,-0.634935 0,-0.390092 -0.282192,-0.597588 -0.282192,-0.207495 -0.838286,-0.207495 l -0.406688,0 0,-0.942029 0.381792,0 q 0.502142,0 0.755279,-0.203345 0.253151,-0.207496 0.253151,-0.589287 0,-0.3610427 -0.203344,-0.564388 -0.199199,-0.2074956 -0.585135,-0.2074956 -0.361055,0 -0.58515,0.1991949 -0.219936,0.1991964 -0.253136,0.5643877 l -1.166126,-0.08299 q 0.09124,-0.7552836 0.626639,-1.1827244 0.535342,-0.4274393 1.39851,-0.4274393 0.917134,0 1.431725,0.4149897 0.518735,0.4108408 0.518735,1.141225 0,0.547788 -0.323695,0.900531 -0.319536,0.352742 -0.925423,0.468939 l 0,0.01659 q 0.672287,0.07885 1.033326,0.444041 0.365199,0.361042 0.365199,0.925427 z"
           id="path29"
           style="fill:#f3b7d9;fill-opacity:1;fill-rule:nonzero;stroke:none;stroke-width:1.49079001"
           inkscape:connector-curvature="0" />
      </g>
    </g>
  </g>
</svg>
