<?xml version="1.0" encoding="UTF-8" standalone="no"?>
<svg
   xmlns:dc="http://purl.org/dc/elements/1.1/"
   xmlns:cc="http://creativecommons.org/ns#"
   xmlns:rdf="http://www.w3.org/1999/02/22-rdf-syntax-ns#"
   xmlns:svg="http://www.w3.org/2000/svg"
   xmlns="http://www.w3.org/2000/svg"
   xmlns:xlink="http://www.w3.org/1999/xlink"
   xmlns:sodipodi="http://sodipodi.sourceforge.net/DTD/sodipodi-0.dtd"
   xmlns:inkscape="http://www.inkscape.org/namespaces/inkscape"
   height="24"
   viewBox="0 0 6.3499999 6.3500002"
   width="24"
   id="svg4342"
   version="1.1"
   inkscape:version="0.91 r13725"
   sodipodi:docname="lc_hideallnotes.svg"
   inkscape:export-filename="/home/tamara/Desktop/IKON/5_258 (tamara)/sc (222)/Tanggal 21/lc_hideallnotes.png"
   inkscape:export-xdpi="90"
   inkscape:export-ydpi="90">
  <metadata
     id="metadata4435">
    <rdf:RDF>
      <cc:Work
         rdf:about="">
        <dc:format>image/svg+xml</dc:format>
        <dc:type
           rdf:resource="http://purl.org/dc/dcmitype/StillImage" />
        <dc:title></dc:title>
      </cc:Work>
    </rdf:RDF>
  </metadata>
  <defs
     id="defs4433" />
  <sodipodi:namedview
     pagecolor="#ffffff"
     bordercolor="#666666"
     borderopacity="1"
     objecttolerance="10"
     gridtolerance="10"
     guidetolerance="10"
     inkscape:pageopacity="0"
     inkscape:pageshadow="2"
     inkscape:window-width="1366"
     inkscape:window-height="718"
     id="namedview4431"
     showgrid="true"
     inkscape:zoom="14.75"
     inkscape:cx="-0.81355932"
     inkscape:cy="8"
     inkscape:window-x="0"
     inkscape:window-y="0"
     inkscape:window-maximized="1"
     inkscape:current-layer="svg4342">
    <inkscape:grid
       type="xygrid"
       id="grid4996" />
  </sodipodi:namedview>
  <linearGradient
     id="a"
     gradientTransform="matrix(0.55208684,0.00232113,-0.00157791,0.81673255,7.781307,47.782885)"
     gradientUnits="userSpaceOnUse"
     x1="-19.342056"
     x2="152.20572"
     xlink:href="#e"
     y1="-36.226715"
     y2="93.202377" />
  <radialGradient
     id="b"
     cx="11.026738"
     cy="7.9994998"
     gradientTransform="matrix(0.5501517,0.00170856,-0.0015724,0.6011785,6.342241,52.205711)"
     gradientUnits="userSpaceOnUse"
     r="156.98399"
     xlink:href="#d" />
  <linearGradient
     id="c"
     gradientTransform="matrix(0.5520917,0,0,0.8167341,7.874148,48.018828)"
     gradientUnits="userSpaceOnUse"
     x1="-19.342056"
     x2="152.20572"
     xlink:href="#e"
     y1="-36.226715"
     y2="93.202377" />
  <radialGradient
     id="d"
     cx="11.026738"
     cy="7.9994998"
     gradientTransform="matrix(0.5501517,0.00170856,-0.0015724,0.6011785,7.426983,48.544705)"
     gradientUnits="userSpaceOnUse"
     r="156.98399">
    <stop
       offset=".0765"
       stop-color="#ffce05"
       id="stop4348" />
    <stop
       offset=".18870001"
       stop-color="#f9d940"
       id="stop4350" />
    <stop
       offset=".3467"
       stop-color="#fde446"
       id="stop4352" />
    <stop
       offset=".4294"
       stop-color="#ffeb55"
       id="stop4354" />
    <stop
       offset=".6882"
       stop-color="#ffeb55"
       id="stop4356" />
    <stop
       offset=".7281"
       stop-color="#fee951"
       id="stop4358" />
    <stop
       offset=".7641"
       stop-color="#fde446"
       id="stop4360" />
    <stop
       offset=".7987"
       stop-color="#fadb34"
       id="stop4362" />
    <stop
       offset=".8322"
       stop-color="#f7cf1a"
       id="stop4364" />
    <stop
       offset=".8588"
       stop-color="#f3c300"
       id="stop4366" />
    <stop
       offset=".9208"
       stop-color="#fbd400"
       id="stop4368" />
    <stop
       offset=".9706"
       stop-color="#fd0"
       id="stop4370" />
  </radialGradient>
  <linearGradient
     id="e"
     gradientTransform="matrix(0.5520917,0,0,0.8167341,7.874148,48.018828)"
     gradientUnits="userSpaceOnUse"
     x1="-19.342056"
     x2="152.20572"
     y1="-36.226715"
     y2="93.202377">
    <stop
       offset="0"
       stop-color="#fff"
       id="stop4373" />
    <stop
       offset=".25"
       stop-color="#fff"
       stop-opacity=".449275"
       id="stop4375" />
    <stop
       offset=".45480227"
       stop-color="#fff"
       stop-opacity=".698039"
       id="stop4377" />
    <stop
       offset=".5"
       stop-color="#fff"
       stop-opacity=".942029"
       id="stop4379" />
    <stop
       offset="1"
       stop-color="#fff"
       stop-opacity="0"
       id="stop4381" />
  </linearGradient>
  <g
     transform="matrix(1.5005956,0,0,1.5005956,6.0722308e-8,-0.00252162)"
     id="g4326">
    <rect
       transform="matrix(-0.70710678,0.70710678,0.70710678,0.70710678,0,0)"
       style="opacity:1;fill:#f0e3ec;fill-opacity:1;fill-rule:nonzero;stroke:#9e3a9c;stroke-width:0.06614584;stroke-linecap:round;stroke-linejoin:round;stroke-miterlimit:4;stroke-dasharray:none;stroke-dashoffset:0;stroke-opacity:1"
       id="rect4268"
       width="2.6053014"
       height="2.869885"
       x="-1.6252975"
       y="1.5604017"
       rx="0.21710846"
       ry="0.20499173" />
    <rect
       transform="matrix(-0.70710678,0.70710678,0.70710678,0.70710678,0,0)"
       ry="0.18898809"
       rx="0.19843751"
       y="1.6641592"
       x="-1.5215402"
       height="2.6458335"
       width="2.3812501"
       id="rect4270"
       style="opacity:1;fill:#f3b7d9;fill-opacity:1;fill-rule:nonzero;stroke:none;stroke-width:0.25;stroke-linecap:round;stroke-linejoin:round;stroke-miterlimit:4;stroke-dasharray:none;stroke-dashoffset:0;stroke-opacity:1" />
    <path
       style="opacity:1;fill:#9e3a9c;fill-opacity:1;fill-rule:nonzero;stroke:none;stroke-width:0.06614584;stroke-linecap:round;stroke-linejoin:round;stroke-miterlimit:4;stroke-dasharray:none;stroke-dashoffset:0;stroke-opacity:1"
       id="path4272"
       d="m 2.3304208,0.94759827 c -0.010076,0.002581 -0.020223,0.004812 -0.030441,0.006749 -0.01924,0.003502 -0.038364,0.007572 -0.057625,0.0109658 -0.022292,0.004192 -0.044317,0.00969 -0.066373,0.0149624 -0.020535,0.004976 -0.040814,0.0108937 -0.06098,0.0171792 -0.018161,0.005235 -0.03542,0.0121884 -0.05132,0.0224196 -0.015737,0.01066 -0.025643,0.025444 -0.032198,0.04296 -0.00532,0.016353 -0.00547,0.03323 -0.00348,0.050117 0.0025,0.016703 0.00806,0.032711 0.013765,0.048535 0.00496,0.013502 0.010904,0.026604 0.016789,0.039718 0.0049,0.00989 0.00806,0.020423 0.010931,0.031033 0.00206,0.00932 0.00271,0.018938 0.00132,0.02839 -0.00245,0.00964 -0.00832,0.017545 -0.015049,0.024651 -0.01003,0.00926 -0.022731,0.014472 -0.03529,0.019302 -0.018554,0.00682 -0.037902,0.010887 -0.057273,0.014546 -0.022149,0.00483 -0.044584,0.00815 -0.066991,0.011515 -0.021626,0.00333 -0.043098,0.00752 -0.064406,0.012482 -0.017731,0.00447 -0.035586,0.0084 -0.05342,0.012436 -0.014859,0.00352 -0.029601,0.0075 -0.044176,0.012043 -0.015742,0.00433 -0.028291,0.013665 -0.039674,0.024969 -0.010872,0.011067 -0.016032,0.024885 -0.019235,0.039722 -0.00266,0.015092 -0.0012,0.030382 0.00133,0.045372 0.00298,0.014461 0.00792,0.028433 0.01297,0.042276 0.00427,0.010914 0.00874,0.021722 0.012595,0.032786 0.00382,0.00948 0.00741,0.018579 0.00841,0.028752 0.00125,0.00849 8.492e-4,0.016011 -0.0037,0.023359 -0.00586,0.0095 -0.01503,0.015562 -0.024657,0.020725 -0.012895,0.00659 -0.02683,0.010046 -0.040818,0.013342 -0.015988,0.00347 -0.032358,0.00469 -0.048671,0.00532 -0.016811,3.153e-4 -0.033624,3.401e-4 -0.050437,3.86e-4 -0.014611,-7.42e-5 -0.029194,-7.488e-4 -0.04381,-6.795e-4 -0.012671,-7.07e-5 -0.025342,1.436e-4 -0.038011,3.338e-4 -0.011406,3.606e-4 -0.022727,0.00151 -0.033867,0.00398 -0.012439,0.00237 -0.022805,0.00862 -0.032144,0.016898 -0.00939,0.00873 -0.015392,0.019606 -0.019605,0.031555 -0.00355,0.011637 -0.00327,0.023591 -0.00181,0.035517 0.00138,0.011066 0.00457,0.02169 0.00841,0.032112 0.00404,0.00924 0.00751,0.018684 0.011075,0.028111 0.00425,0.00924 0.00765,0.018807 0.010926,0.02843 0.00291,0.00793 0.00491,0.016148 0.00705,0.024307 9.758e-4,0.00619 0.00235,0.012574 0.00101,0.018807 -0.0014,0.00752 -0.00371,0.014864 -0.00648,0.021991 -0.00377,0.00689 -0.00862,0.012512 -0.01455,0.017562 -0.00681,0.00595 -0.015095,0.00968 -0.023628,0.012427 -0.010827,0.00371 -0.022239,0.00547 -0.033636,0.00617 -0.01327,0.00115 -0.026584,8.549e-4 -0.039867,2.037e-4 -0.012813,-8.203e-4 -0.025637,-4.335e-4 -0.038458,-0.00106 -0.011498,-6.506e-4 -0.022979,-0.00162 -0.034497,-0.00181 -0.010564,1.556e-4 -0.021051,-7.488e-4 -0.031604,-1.393e-4 -0.00953,9.759e-4 -0.019005,0.0024 -0.028519,0.00354 -0.00554,6.717e-4 -0.011073,0.00136 -0.016603,0.00204 -0.037571,0.00428 -0.034542,0.03085 0.00303,0.026567 l 0,0 c 0.00559,-5.869e-4 0.011194,-0.00117 0.016782,-0.0018 0.00904,-0.00108 0.018059,-0.00242 0.02713,-0.00326 0.00979,-7.991e-4 0.019552,6.484e-4 0.029366,3.175e-4 0.011158,1.555e-4 0.022282,0.00145 0.033428,0.00199 0.012841,7.637e-4 0.025695,5.162e-4 0.038523,0.00144 0.014387,7.679e-4 0.02883,8.45e-4 0.043198,-3.925e-4 0.01375,-0.00104 0.027529,-0.00318 0.040559,-0.00786 0.011684,-0.00412 0.023016,-0.00947 0.032371,-0.017763 0.00937,-0.00799 0.017093,-0.017271 0.022134,-0.028625 0.00337,-0.00909 0.00645,-0.018314 0.00794,-0.027919 0.00102,-0.00974 5.537e-4,-0.019439 -0.00161,-0.029032 -0.00216,-0.00881 -0.00449,-0.017581 -0.00739,-0.026188 -0.00324,-0.010083 -0.00662,-0.020136 -0.011236,-0.029698 -0.00366,-0.00931 -0.00707,-0.018719 -0.010973,-0.027938 -0.00325,-0.00843 -0.00594,-0.017037 -0.00696,-0.026058 -0.00112,-0.00776 -0.00153,-0.015527 5.049e-4,-0.023196 0.0025,-0.00764 0.0064,-0.014364 0.012097,-0.020116 0.00585,-0.00532 0.011924,-0.00938 0.019986,-0.010595 0.00923,-0.00211 0.018565,-0.00294 0.028045,-0.00317 0.012594,6.36e-5 0.025192,1.45e-4 0.037788,6.65e-5 0.014633,1.669e-4 0.029231,9.015e-4 0.043859,0.00116 0.017193,9.4e-5 0.034394,2.8e-4 0.051584,-1.591e-4 0.018168,-7.085e-4 0.036353,-0.00223 0.054123,-0.00629 0.016456,-0.00398 0.032782,-0.00843 0.047863,-0.016374 0.014056,-0.00803 0.026965,-0.017617 0.035058,-0.032031 0.00648,-0.012556 0.00888,-0.025247 0.00685,-0.039335 -0.00133,-0.012205 -0.00495,-0.023545 -0.00972,-0.034841 -0.00386,-0.011223 -0.00829,-0.022231 -0.012425,-0.033356 -0.00449,-0.012297 -0.00851,-0.024819 -0.011599,-0.037542 -0.00209,-0.011568 -0.0033,-0.02342 -0.00168,-0.035137 0.00177,-0.00964 0.00469,-0.018481 0.011763,-0.025664 0.00809,-0.0082 0.016942,-0.014721 0.028227,-0.017931 0.013883,-0.00415 0.027921,-0.00771 0.04205,-0.010941 0.018,-0.00373 0.035956,-0.00765 0.053863,-0.011799 0.020607,-0.00456 0.041293,-0.00877 0.062193,-0.011772 0.022927,-0.00323 0.045855,-0.00668 0.068461,-0.011755 0.021035,-0.00434 0.042087,-0.0089 0.062123,-0.016844 0.016317,-0.00669 0.032439,-0.014283 0.045073,-0.026941 0.010507,-0.011497 0.018932,-0.024448 0.021941,-0.039988 0.00153,-0.012999 8.867e-4,-0.026019 -0.00212,-0.038798 -0.00306,-0.012055 -0.00673,-0.023898 -0.012062,-0.035174 -0.00539,-0.012656 -0.010917,-0.02527 -0.015646,-0.03819 -0.005,-0.013866 -0.00972,-0.027957 -0.012348,-0.04249 -0.00168,-0.012467 -0.0019,-0.024858 0.00189,-0.03703 0.0042,-0.011865 0.010681,-0.021698 0.021325,-0.028863 0.013574,-0.00889 0.028741,-0.014118 0.044255,-0.018658 0.019701,-0.00577 0.039463,-0.011305 0.059444,-0.016044 0.021594,-0.00506 0.043044,-0.0107848 0.064862,-0.0148429 0.019428,-0.003687 0.03875,-0.007893 0.058053,-0.0121813 0.011874,-0.002639 0.023827,-0.005438 0.035003,-0.0103407 0.033821,-0.0144943 0.023572,-0.03841 -0.010252,-0.0239129 z"
       inkscape:connector-curvature="0" />
    <path
       inkscape:connector-curvature="0"
       d="m 2.5994885,1.216666 c -0.010076,0.00258 -0.020223,0.00481 -0.030441,0.00675 -0.01924,0.0035 -0.038364,0.00757 -0.057625,0.010966 -0.022292,0.00419 -0.044317,0.00969 -0.066373,0.014962 -0.020535,0.00498 -0.040814,0.010894 -0.06098,0.017179 -0.018161,0.00524 -0.03542,0.012188 -0.05132,0.02242 -0.015737,0.01066 -0.025643,0.025444 -0.032198,0.04296 -0.00532,0.016353 -0.00547,0.03323 -0.00348,0.050117 0.0025,0.016703 0.00806,0.032711 0.013765,0.048535 0.00496,0.013502 0.010904,0.026604 0.016789,0.039718 0.0049,0.00989 0.00806,0.020423 0.010931,0.031033 0.00206,0.00932 0.00271,0.018938 0.00132,0.02839 -0.00245,0.00965 -0.00832,0.017545 -0.015049,0.024651 -0.01003,0.00926 -0.022731,0.014472 -0.035289,0.019302 -0.018554,0.00682 -0.037902,0.010887 -0.057274,0.014546 -0.022149,0.00483 -0.044584,0.00815 -0.066991,0.011515 -0.021626,0.00333 -0.043097,0.00752 -0.064406,0.012482 -0.017731,0.00447 -0.035586,0.0084 -0.05342,0.012436 -0.014859,0.00352 -0.029601,0.0075 -0.044176,0.012043 -0.015742,0.00433 -0.028291,0.013665 -0.039674,0.024969 -0.010872,0.011066 -0.016032,0.024885 -0.019235,0.039722 -0.00266,0.015093 -0.0012,0.030382 0.00133,0.045372 0.00298,0.014461 0.00792,0.028433 0.01297,0.042276 0.00427,0.010913 0.00874,0.021722 0.012595,0.032786 0.00382,0.00948 0.00741,0.018579 0.00841,0.028752 0.00125,0.00849 8.492e-4,0.016011 -0.0037,0.023359 -0.00586,0.0095 -0.01503,0.015562 -0.024657,0.020725 -0.012895,0.00659 -0.02683,0.010046 -0.040818,0.013342 -0.015988,0.00347 -0.032358,0.00469 -0.048671,0.00532 -0.016811,3.154e-4 -0.033624,3.402e-4 -0.050436,3.861e-4 -0.014611,-7.42e-5 -0.029194,-7.488e-4 -0.04381,-6.795e-4 -0.012671,-7.07e-5 -0.025342,1.435e-4 -0.038011,3.337e-4 -0.011406,3.607e-4 -0.022727,0.00151 -0.033867,0.00398 -0.012439,0.00237 -0.022805,0.00862 -0.032144,0.016898 -0.00939,0.00873 -0.015392,0.019606 -0.019605,0.031555 -0.00355,0.011637 -0.00327,0.023591 -0.00181,0.035517 0.00138,0.011066 0.00457,0.02169 0.00841,0.032113 0.00404,0.00924 0.00751,0.018684 0.011075,0.028111 0.00425,0.00924 0.00765,0.018807 0.010926,0.02843 0.00291,0.00793 0.00491,0.016148 0.00705,0.024307 9.758e-4,0.00619 0.00235,0.012574 0.00101,0.018807 -0.0014,0.00752 -0.00371,0.014864 -0.00648,0.021991 -0.00377,0.00689 -0.00862,0.012512 -0.01455,0.017562 -0.00681,0.00595 -0.015095,0.00968 -0.023628,0.012427 -0.010827,0.00371 -0.022238,0.00547 -0.033636,0.00617 -0.01327,0.00115 -0.026584,8.549e-4 -0.039867,2.036e-4 -0.012813,-8.202e-4 -0.025638,-4.334e-4 -0.038458,-0.00106 -0.011498,-6.505e-4 -0.022979,-0.00162 -0.034497,-0.00181 -0.010564,1.556e-4 -0.021051,-7.488e-4 -0.031604,-1.393e-4 -0.00953,9.758e-4 -0.019005,0.0024 -0.028519,0.00354 -0.00554,6.718e-4 -0.011073,0.00136 -0.016603,0.00204 -0.037571,0.00428 -0.034541,0.03085 0.00303,0.026567 l 0,0 c 0.00559,-5.869e-4 0.011194,-0.00117 0.016782,-0.0018 0.00904,-0.00108 0.018059,-0.00242 0.02713,-0.00326 0.00979,-7.99e-4 0.019552,6.485e-4 0.029365,3.175e-4 0.011158,1.556e-4 0.022282,0.00145 0.033428,0.00199 0.012841,7.637e-4 0.025695,5.162e-4 0.038523,0.00144 0.014387,7.68e-4 0.028829,8.45e-4 0.043198,-3.924e-4 0.01375,-0.00104 0.027529,-0.00318 0.040559,-0.00786 0.011683,-0.00412 0.023016,-0.00947 0.032371,-0.017762 0.00937,-0.00799 0.017093,-0.017271 0.022134,-0.028625 0.00337,-0.00909 0.00645,-0.018314 0.00794,-0.027919 0.00102,-0.00974 5.536e-4,-0.019439 -0.00161,-0.029032 -0.00216,-0.00881 -0.00449,-0.017581 -0.00739,-0.026188 -0.00324,-0.010083 -0.00662,-0.020135 -0.011236,-0.029698 -0.00366,-0.00931 -0.00707,-0.018719 -0.010973,-0.027938 -0.00325,-0.00843 -0.00594,-0.017037 -0.00696,-0.026058 -0.00112,-0.00776 -0.00153,-0.015527 5.049e-4,-0.023196 0.0025,-0.00764 0.0064,-0.014364 0.012097,-0.020116 0.00585,-0.00532 0.011924,-0.00938 0.019986,-0.010595 0.00923,-0.00211 0.018565,-0.00294 0.028045,-0.00317 0.012594,6.36e-5 0.025192,1.449e-4 0.037788,6.65e-5 0.014633,1.668e-4 0.029231,9.015e-4 0.043859,0.00116 0.017193,9.4e-5 0.034394,2.8e-4 0.051584,-1.591e-4 0.018168,-7.086e-4 0.036353,-0.00223 0.054123,-0.00629 0.016456,-0.00398 0.032782,-0.00843 0.047863,-0.016374 0.014056,-0.00803 0.026965,-0.017617 0.035058,-0.032031 0.00648,-0.012556 0.00888,-0.025247 0.00685,-0.039335 -0.00133,-0.012205 -0.00495,-0.023545 -0.00972,-0.034841 -0.00386,-0.011223 -0.00829,-0.022231 -0.012425,-0.033356 -0.00449,-0.012297 -0.00851,-0.024819 -0.011599,-0.037542 -0.00209,-0.011568 -0.0033,-0.02342 -0.00168,-0.035137 0.00177,-0.00964 0.00469,-0.018481 0.011763,-0.025664 0.00809,-0.0082 0.016942,-0.014721 0.028227,-0.017931 0.013883,-0.00415 0.027921,-0.00771 0.04205,-0.010941 0.018,-0.00373 0.035956,-0.00765 0.053863,-0.011799 0.020607,-0.00456 0.041293,-0.00877 0.062193,-0.011772 0.022927,-0.00323 0.045855,-0.00668 0.068461,-0.011755 0.021035,-0.00434 0.042087,-0.0089 0.062123,-0.016844 0.016317,-0.00669 0.032439,-0.014283 0.045073,-0.026941 0.010507,-0.011497 0.018932,-0.024448 0.021941,-0.039988 0.00153,-0.012999 8.867e-4,-0.026019 -0.00212,-0.038798 -0.00306,-0.012055 -0.00673,-0.023898 -0.012062,-0.035174 -0.00539,-0.012656 -0.010917,-0.02527 -0.015646,-0.03819 -0.005,-0.013866 -0.00972,-0.027957 -0.012348,-0.04249 -0.00168,-0.012467 -0.0019,-0.024858 0.00189,-0.03703 0.0042,-0.011865 0.010681,-0.021697 0.021325,-0.028863 0.013574,-0.00889 0.028741,-0.014118 0.044255,-0.018658 0.019701,-0.00577 0.039463,-0.011305 0.059444,-0.016044 0.021594,-0.00506 0.043044,-0.010785 0.064862,-0.014843 0.019429,-0.00369 0.03875,-0.00789 0.058053,-0.012181 0.011874,-0.00264 0.023827,-0.00544 0.035003,-0.010341 0.033821,-0.014494 0.023572,-0.03841 -0.010252,-0.023913 z"
       id="path4274"
       style="opacity:1;fill:#9e3a9c;fill-opacity:1;fill-rule:nonzero;stroke:none;stroke-width:0.06614584;stroke-linecap:round;stroke-linejoin:round;stroke-miterlimit:4;stroke-dasharray:none;stroke-dashoffset:0;stroke-opacity:1" />
    <path
       style="opacity:1;fill:#9e3a9c;fill-opacity:1;fill-rule:nonzero;stroke:none;stroke-width:0.06614584;stroke-linecap:round;stroke-linejoin:round;stroke-miterlimit:4;stroke-dasharray:none;stroke-dashoffset:0;stroke-opacity:1"
       id="path4276"
       d="m 2.8326806,1.4498581 c -0.010076,0.00258 -0.020223,0.00481 -0.030441,0.00675 -0.01924,0.0035 -0.038364,0.00757 -0.057625,0.010966 -0.022292,0.00419 -0.044317,0.00969 -0.066373,0.014962 -0.020535,0.00498 -0.040814,0.010894 -0.06098,0.017179 -0.018161,0.00524 -0.03542,0.012188 -0.05132,0.02242 -0.015737,0.01066 -0.025643,0.025444 -0.032198,0.04296 -0.00532,0.016353 -0.00547,0.033231 -0.00348,0.050117 0.0025,0.016703 0.00806,0.032711 0.013765,0.048535 0.00496,0.013501 0.010904,0.026604 0.016789,0.039717 0.0049,0.00989 0.00806,0.020423 0.010931,0.031033 0.00206,0.00932 0.00271,0.018938 0.00132,0.02839 -0.00245,0.00964 -0.00832,0.017545 -0.015049,0.024651 -0.01003,0.00926 -0.022731,0.014472 -0.03529,0.019302 -0.018554,0.00682 -0.037902,0.010887 -0.057273,0.014546 -0.022149,0.00483 -0.044584,0.00815 -0.066991,0.011514 -0.021626,0.00333 -0.043097,0.00752 -0.064406,0.012482 -0.017731,0.00447 -0.035586,0.0084 -0.05342,0.012436 -0.014859,0.00352 -0.029601,0.0075 -0.044177,0.012043 -0.015742,0.00433 -0.028291,0.013665 -0.039674,0.024969 -0.010872,0.011067 -0.016032,0.024885 -0.019235,0.039722 -0.00266,0.015092 -0.0012,0.030382 0.00133,0.045371 0.00298,0.014461 0.00792,0.028433 0.01297,0.042276 0.00427,0.010913 0.00874,0.021722 0.012595,0.032786 0.00382,0.00948 0.00741,0.018579 0.00841,0.028752 0.00125,0.00849 8.493e-4,0.016011 -0.0037,0.023359 -0.00586,0.0095 -0.01503,0.015562 -0.024657,0.020725 -0.012895,0.00659 -0.02683,0.010046 -0.040818,0.013342 -0.015988,0.00347 -0.032358,0.00469 -0.048671,0.00532 -0.016811,3.154e-4 -0.033624,3.401e-4 -0.050437,3.861e-4 -0.014611,-7.42e-5 -0.029194,-7.488e-4 -0.04381,-6.795e-4 -0.012671,-7.07e-5 -0.025342,1.435e-4 -0.038011,3.337e-4 -0.011406,3.607e-4 -0.022727,0.00151 -0.033867,0.00398 -0.012439,0.00237 -0.022805,0.00862 -0.032144,0.016898 -0.00939,0.00873 -0.015392,0.019606 -0.019605,0.031555 -0.00355,0.011637 -0.00327,0.023591 -0.00181,0.035516 0.00138,0.011066 0.00457,0.02169 0.00841,0.032113 0.00404,0.00924 0.00751,0.018684 0.011075,0.028111 0.00425,0.00924 0.00765,0.018807 0.010926,0.02843 0.00291,0.00793 0.00491,0.016148 0.00705,0.024307 9.759e-4,0.00619 0.00235,0.012574 0.00101,0.018807 -0.0014,0.00752 -0.00371,0.014864 -0.00648,0.021991 -0.00377,0.00689 -0.00862,0.012512 -0.01455,0.017562 -0.00681,0.00595 -0.015095,0.00968 -0.023628,0.012427 -0.010827,0.00371 -0.022239,0.00547 -0.033636,0.00617 -0.01327,0.00115 -0.026584,8.549e-4 -0.039867,2.036e-4 -0.012813,-8.202e-4 -0.025638,-4.334e-4 -0.038458,-0.00106 -0.011498,-6.505e-4 -0.022979,-0.00162 -0.034497,-0.00181 -0.010564,1.556e-4 -0.021051,-7.488e-4 -0.031604,-1.393e-4 -0.00953,9.758e-4 -0.019005,0.0024 -0.028519,0.00354 -0.00554,6.718e-4 -0.011073,0.00136 -0.016603,0.00204 -0.037571,0.00428 -0.034541,0.03085 0.00303,0.026567 l 0,0 c 0.00559,-5.869e-4 0.011193,-0.00117 0.016782,-0.0018 0.00904,-0.00108 0.018059,-0.00242 0.02713,-0.00326 0.00979,-7.99e-4 0.019552,6.484e-4 0.029365,3.175e-4 0.011158,1.556e-4 0.022282,0.00145 0.033428,0.00199 0.012841,7.636e-4 0.025695,5.162e-4 0.038523,0.00144 0.014387,7.679e-4 0.028829,8.45e-4 0.043198,-3.924e-4 0.01375,-0.00104 0.027529,-0.00318 0.040559,-0.00786 0.011683,-0.00412 0.023016,-0.00947 0.032371,-0.017763 0.00937,-0.00799 0.017093,-0.017271 0.022134,-0.028625 0.00337,-0.00909 0.00645,-0.018314 0.00794,-0.027919 0.00102,-0.00974 5.537e-4,-0.019439 -0.00161,-0.029032 -0.00216,-0.00881 -0.00449,-0.017581 -0.00739,-0.026188 -0.00324,-0.010083 -0.00662,-0.020136 -0.011236,-0.029699 -0.00366,-0.00931 -0.00707,-0.018719 -0.010973,-0.027938 -0.00325,-0.00843 -0.00594,-0.017037 -0.00696,-0.026058 -0.00112,-0.00776 -0.00153,-0.015527 5.049e-4,-0.023196 0.0025,-0.00764 0.0064,-0.014364 0.012097,-0.020116 0.00585,-0.00532 0.011924,-0.00938 0.019986,-0.010595 0.00923,-0.00211 0.018565,-0.00294 0.028045,-0.00317 0.012594,6.36e-5 0.025192,1.449e-4 0.037788,6.64e-5 0.014633,1.669e-4 0.029231,9.016e-4 0.043859,0.00116 0.017193,9.41e-5 0.034394,2.801e-4 0.051584,-1.591e-4 0.018168,-7.085e-4 0.036353,-0.00223 0.054123,-0.00629 0.016456,-0.00398 0.032781,-0.00843 0.047863,-0.016374 0.014056,-0.00803 0.026965,-0.017617 0.035058,-0.032031 0.00648,-0.012556 0.00888,-0.025247 0.00685,-0.039335 -0.00133,-0.012205 -0.00495,-0.023545 -0.00972,-0.034841 -0.00386,-0.011223 -0.00829,-0.022231 -0.012425,-0.033356 -0.00449,-0.012297 -0.00851,-0.02482 -0.011599,-0.037542 -0.00209,-0.011568 -0.0033,-0.02342 -0.00168,-0.035137 0.00177,-0.00964 0.00469,-0.018481 0.011763,-0.025664 0.00809,-0.0082 0.016942,-0.014721 0.028227,-0.017931 0.013883,-0.00415 0.027921,-0.00771 0.04205,-0.010941 0.018,-0.00373 0.035956,-0.00765 0.053863,-0.011799 0.020607,-0.00456 0.041293,-0.00877 0.062193,-0.011772 0.022927,-0.00323 0.045855,-0.00668 0.068461,-0.011755 0.021035,-0.00434 0.042087,-0.0089 0.062123,-0.016844 0.016317,-0.00669 0.032439,-0.014283 0.045073,-0.026941 0.010506,-0.011497 0.018932,-0.024447 0.021941,-0.039988 0.00153,-0.012999 8.867e-4,-0.026019 -0.00212,-0.038798 -0.00306,-0.012055 -0.00673,-0.023898 -0.012062,-0.035174 -0.00539,-0.012656 -0.010917,-0.02527 -0.015646,-0.03819 -0.005,-0.013866 -0.00972,-0.027957 -0.012347,-0.04249 -0.00168,-0.012467 -0.0019,-0.024858 0.00189,-0.03703 0.0042,-0.011865 0.010681,-0.021698 0.021325,-0.028863 0.013574,-0.00889 0.028741,-0.014118 0.044255,-0.018658 0.019701,-0.00577 0.039463,-0.011305 0.059444,-0.016044 0.021594,-0.00506 0.043044,-0.010785 0.064862,-0.014843 0.019429,-0.00369 0.03875,-0.00789 0.058053,-0.012181 0.011874,-0.00264 0.023827,-0.00544 0.035003,-0.010341 0.033821,-0.014494 0.023572,-0.03841 -0.010252,-0.023913 z"
       inkscape:connector-curvature="0" />
    <rect
       transform="scale(-1,1)"
       ry="0.20499173"
       rx="0.21710846"
       y="1.3303756"
       x="-2.6383741"
       height="2.869885"
       width="2.6053014"
       id="rect4238"
       style="opacity:1;fill:#f0e3ec;fill-opacity:1;fill-rule:nonzero;stroke:#9e3a9c;stroke-width:0.06614584;stroke-linecap:round;stroke-linejoin:round;stroke-miterlimit:4;stroke-dasharray:none;stroke-dashoffset:0;stroke-opacity:1" />
    <rect
       transform="scale(-1,1)"
       style="opacity:1;fill:#f3b7d9;fill-opacity:1;fill-rule:nonzero;stroke:none;stroke-width:0.25;stroke-linecap:round;stroke-linejoin:round;stroke-miterlimit:4;stroke-dasharray:none;stroke-dashoffset:0;stroke-opacity:1"
       id="rect4240"
       width="2.3812501"
       height="2.6458335"
       x="-2.5263486"
       y="1.4424013"
       rx="0.19843751"
       ry="0.18898809" />
    <path
       inkscape:connector-curvature="0"
       d="m 1.9826116,2.0961517 c -0.00895,-0.0053 -0.017702,-0.010897 -0.026297,-0.016753 -0.016081,-0.011129 -0.032482,-0.021773 -0.048501,-0.032993 -0.018727,-0.012798 -0.038189,-0.024485 -0.057513,-0.036353 -0.018039,-0.011002 -0.036563,-0.021157 -0.055267,-0.030972 -0.016544,-0.00914 -0.033664,-0.016427 -0.052142,-0.020436 -0.018666,-0.00359 -0.036124,-1.406e-4 -0.053145,0.00761 -0.015327,0.0078 -0.027365,0.01963 -0.037901,0.032975 -0.010045,0.013576 -0.017433,0.028827 -0.024586,0.044053 -0.00604,0.013054 -0.011102,0.026522 -0.016213,0.039956 -0.00353,0.010456 -0.00874,0.020142 -0.014214,0.029673 -0.00513,0.00805 -0.011474,0.015309 -0.019141,0.021009 -0.00855,0.00509 -0.018293,0.00652 -0.028072,0.00679 -0.01364,-5.451e-4 -0.026306,-0.00584 -0.038602,-0.011305 -0.017939,-0.0083 -0.034499,-0.019103 -0.050784,-0.030213 -0.019079,-0.012244 -0.037291,-0.02576 -0.055512,-0.039228 -0.01765,-0.012934 -0.03579,-0.025159 -0.054368,-0.036716 -0.015695,-0.00938 -0.031106,-0.01922 -0.046567,-0.02898 -0.012994,-0.00802 -0.026233,-0.015629 -0.039753,-0.022722 -0.014192,-0.00807 -0.029667,-0.010342 -0.045709,-0.010398 -0.015513,1.374e-4 -0.028933,0.00626 -0.041689,0.014486 -0.012554,0.00879 -0.022328,0.020638 -0.031145,0.03302 -0.00812,0.012331 -0.014507,0.025703 -0.020722,0.039065 -0.0047,0.010734 -0.00918,0.02154 -0.014277,0.032089 -0.004,0.0094 -0.0079,0.018375 -0.014383,0.026278 -0.00512,0.00689 -0.010721,0.011922 -0.019132,0.013903 -0.010861,0.00257 -0.021632,3.757e-4 -0.03209,-0.00278 -0.013777,-0.00446 -0.026075,-0.011868 -0.038297,-0.019429 -0.013761,-0.00885 -0.026194,-0.019567 -0.038176,-0.030655 -0.01211,-0.011664 -0.024016,-0.023535 -0.035937,-0.035391 -0.010279,-0.010384 -0.020114,-0.021173 -0.030498,-0.031459 -0.00891,-0.00901 -0.018021,-0.017818 -0.027114,-0.026642 -0.00832,-0.00781 -0.017137,-0.015004 -0.026761,-0.021134 -0.010472,-0.00712 -0.02222,-0.010031 -0.034678,-0.010781 -0.012811,-4.71e-4 -0.024747,0.00298 -0.036175,0.00845 -0.010737,0.00572 -0.018992,0.014371 -0.026392,0.023836 -0.00685,0.0088 -0.012105,0.018569 -0.016761,0.028653 -0.00368,0.00939 -0.0079,0.018523 -0.012046,0.027709 -0.00353,0.00954 -0.00789,0.018707 -0.012377,0.027829 -0.00355,0.00767 -0.00795,0.014887 -0.012203,0.022172 -0.00369,0.00507 -0.00723,0.010552 -0.012584,0.014013 -0.00631,0.00433 -0.013131,0.00789 -0.020135,0.010965 -0.00754,0.00221 -0.014944,0.00275 -0.022707,0.00213 -0.00902,-6.085e-4 -0.017518,-0.00383 -0.025495,-0.00792 -0.010282,-0.00503 -0.019595,-0.011855 -0.028144,-0.019424 -0.010197,-0.00857 -0.019402,-0.018193 -0.028334,-0.028046 -0.00848,-0.00964 -0.017822,-0.018435 -0.026448,-0.02794 -0.00767,-0.00859 -0.015105,-0.017392 -0.023111,-0.025675 -0.00758,-0.00736 -0.014356,-0.015415 -0.022249,-0.022446 -0.00743,-0.00605 -0.015139,-0.011738 -0.022672,-0.01766 -0.00439,-0.00344 -0.00879,-0.00687 -0.013184,-0.010296 -0.029594,-0.023539 -0.046239,-0.00261 -0.016645,0.020926 l 0,0 c 0.00437,0.00354 0.00874,0.00709 0.013142,0.010592 0.00716,0.00563 0.014481,0.011058 0.021492,0.016876 0.00749,0.00636 0.013367,0.014284 0.02054,0.020989 0.00778,0.008 0.014729,0.016783 0.022233,0.025041 0.00854,0.00962 0.017804,0.018534 0.026223,0.028256 0.00963,0.010716 0.019788,0.020983 0.030823,0.030268 0.010456,0.00899 0.021712,0.01722 0.034235,0.023124 0.011173,0.00535 0.022969,0.00958 0.03545,0.01033 0.012277,9.763e-4 0.024299,-1.26e-4 0.035892,-0.00459 0.00881,-0.00404 0.01751,-0.00839 0.025355,-0.014129 0.00761,-0.00617 0.014137,-0.013354 0.019389,-0.021668 0.0047,-0.00776 0.00926,-0.015603 0.013295,-0.02374 0.00484,-0.00942 0.00956,-0.018916 0.013055,-0.028945 0.004,-0.00917 0.00824,-0.018233 0.011996,-0.027514 0.00366,-0.00826 0.00785,-0.016244 0.013507,-0.023345 0.0047,-0.00628 0.0099,-0.012058 0.016759,-0.016045 0.00717,-0.00364 0.014684,-0.00563 0.022778,-0.00567 0.0079,3.783e-4 0.015063,0.0018 0.021624,0.00664 0.00802,0.00504 0.015208,0.011047 0.022074,0.017588 0.00886,0.00895 0.017711,0.017916 0.026673,0.026767 0.010229,0.010465 0.020032,0.021307 0.030196,0.03183 0.012091,0.012224 0.024122,0.024518 0.036588,0.036363 0.013348,0.012346 0.027285,0.024126 0.042716,0.033825 0.014452,0.00882 0.029141,0.017219 0.045423,0.022266 0.015618,0.00426 0.031524,0.00661 0.047439,0.00214 0.013457,-0.0043 0.02413,-0.011575 0.032659,-0.022969 0.00769,-0.00957 0.01315,-0.020148 0.017764,-0.031509 0.00521,-0.010662 0.00986,-0.02158 0.014801,-0.032372 0.00552,-0.01187 0.011533,-0.023567 0.018344,-0.034748 0.0067,-0.00966 0.014229,-0.018892 0.023656,-0.026035 0.00807,-0.00557 0.016386,-0.00975 0.026465,-0.00983 0.01152,-7.76e-5 0.022389,0.00157 0.032639,0.00728 0.012753,0.00688 0.025196,0.01429 0.03747,0.021997 0.015364,0.010092 0.030831,0.020019 0.04643,0.029744 0.017799,0.011344 0.035398,0.022999 0.052301,0.035653 0.018497,0.013926 0.037151,0.027698 0.056721,0.040097 0.017944,0.011804 0.03605,0.02347 0.055838,0.032017 0.016266,0.00681 0.033037,0.012838 0.050922,0.012821 0.015559,-7.005e-4 0.030674,-0.0039 0.04379,-0.012761 0.010273,-0.00811 0.019025,-0.017771 0.025933,-0.028935 0.00636,-0.010688 0.012137,-0.02166 0.016343,-0.033401 0.00514,-0.012758 0.010149,-0.025588 0.015941,-0.038068 0.00627,-0.013339 0.012895,-0.026642 0.021314,-0.038776 0.00763,-0.010001 0.016235,-0.018919 0.027519,-0.02485 0.01136,-0.00542 0.022895,-0.00779 0.035488,-0.00533 0.015886,0.00331 0.030306,0.01034 0.044486,0.0181 0.018012,0.00985 0.035898,0.019911 0.053378,0.030688 0.018848,0.011691 0.038063,0.022811 0.05636,0.035369 0.016345,0.011131 0.032982,0.021819 0.049663,0.032436 0.010262,0.00653 0.020693,0.013003 0.032063,0.017439 0.034164,0.013666 0.043828,-0.010492 0.00966,-0.024158 z"
       id="path4253"
       style="opacity:1;fill:#9e3a9c;fill-opacity:1;fill-rule:nonzero;stroke:none;stroke-width:0.06614584;stroke-linecap:round;stroke-linejoin:round;stroke-miterlimit:4;stroke-dasharray:none;stroke-dashoffset:0;stroke-opacity:1" />
    <path
       style="opacity:1;fill:#9e3a9c;fill-opacity:1;fill-rule:nonzero;stroke:none;stroke-width:0.06614584;stroke-linecap:round;stroke-linejoin:round;stroke-miterlimit:4;stroke-dasharray:none;stroke-dashoffset:0;stroke-opacity:1"
       id="path4255"
       d="M 1.9826116,2.476671 C 1.9736616,2.471371 1.9649096,2.465774 1.9563146,2.459918 1.9402336,2.448789 1.9238326,2.438145 1.9078136,2.426925 1.8890866,2.414127 1.8696246,2.40244 1.8503006,2.390572 1.8322616,2.37957 1.8137376,2.369415 1.7950336,2.3596 1.7784896,2.35046 1.7613696,2.343173 1.7428916,2.339164 c -0.018666,-0.00359 -0.036124,-1.406e-4 -0.053145,0.00761 -0.015327,0.0078 -0.027365,0.01963 -0.037901,0.032975 -0.010045,0.013576 -0.017433,0.028827 -0.024586,0.044053 -0.00604,0.013054 -0.011102,0.026522 -0.016213,0.039956 -0.00353,0.010456 -0.00874,0.020142 -0.014214,0.029673 -0.00513,0.00805 -0.011474,0.015309 -0.019141,0.021009 -0.00855,0.00509 -0.018293,0.00652 -0.028072,0.00679 C 1.5359796,2.5206849 1.5233136,2.51539 1.5110176,2.509925 1.4930786,2.501625 1.4765186,2.490822 1.4602336,2.479712 1.4411546,2.467468 1.4229426,2.453952 1.4047216,2.440484 1.3870716,2.42755 1.3689316,2.415325 1.3503536,2.403768 1.3346586,2.394388 1.3192476,2.384548 1.3037866,2.374788 1.2907926,2.366768 1.2775536,2.359159 1.2640336,2.352066 1.2498416,2.343996 1.2343666,2.341724 1.2183246,2.341668 c -0.015513,1.374e-4 -0.028933,0.00626 -0.041689,0.014486 -0.012554,0.00879 -0.022328,0.020638 -0.031145,0.03302 -0.00812,0.012331 -0.014507,0.025703 -0.020722,0.039065 -0.0047,0.010734 -0.00918,0.02154 -0.014277,0.032089 -0.004,0.0094 -0.0079,0.018375 -0.014383,0.026278 -0.00512,0.00689 -0.010721,0.011922 -0.019132,0.013903 -0.010861,0.00257 -0.021632,3.757e-4 -0.03209,-0.00278 C 1.0311096,2.493269 1.0188116,2.485861 1.0065896,2.4783 0.9928286,2.46945 0.9803956,2.458733 0.9684136,2.447645 0.9563036,2.435981 0.9443976,2.42411 0.9324766,2.412254 0.9221976,2.40187 0.9123626,2.391081 0.9019786,2.380795 0.8930686,2.371785 0.8839576,2.362977 0.8748646,2.354153 0.8665446,2.346343 0.8577276,2.339149 0.8481036,2.333019 0.8376316,2.325899 0.8258836,2.322988 0.8134256,2.322238 c -0.012811,-4.71e-4 -0.024747,0.00298 -0.036175,0.00845 -0.010737,0.00572 -0.018992,0.014371 -0.026392,0.023836 -0.00685,0.0088 -0.012105,0.018569 -0.016761,0.028653 -0.00368,0.00939 -0.0079,0.018523 -0.012046,0.027709 -0.00353,0.00954 -0.00789,0.018707 -0.012377,0.027829 -0.00355,0.00767 -0.00795,0.014887 -0.012203,0.022172 -0.00369,0.00507 -0.00723,0.010552 -0.012584,0.014013 -0.00631,0.00433 -0.013131,0.00789 -0.020135,0.010965 -0.00754,0.00221 -0.014944,0.00275 -0.022707,0.00213 -0.00902,-6.085e-4 -0.017518,-0.00383 -0.025495,-0.00792 C 0.6062686,2.475045 0.5969556,2.46822 0.5884066,2.460651 0.5782096,2.452081 0.5690046,2.442458 0.5600726,2.432605 0.5515926,2.422965 0.5422506,2.41417 0.5336246,2.404665 0.5259546,2.396075 0.5185196,2.387273 0.5105136,2.37899 0.5029336,2.37163 0.4961576,2.363575 0.4882646,2.356544 0.4808346,2.350494 0.4731256,2.344806 0.4655926,2.338884 0.4612026,2.335444 0.4568026,2.332014 0.4524086,2.328588 0.4228146,2.305049 0.4061696,2.325978 0.4357636,2.349514 l 0,0 c 0.00437,0.00354 0.00874,0.00709 0.013142,0.010592 0.00716,0.00563 0.014481,0.011058 0.021492,0.016876 0.00749,0.00636 0.013367,0.014284 0.02054,0.020989 0.00778,0.008 0.014729,0.016783 0.022233,0.025041 0.00854,0.00962 0.017804,0.018534 0.026223,0.028256 0.00963,0.010716 0.019788,0.020983 0.030823,0.030268 0.010456,0.00899 0.021712,0.01722 0.034235,0.023124 0.011173,0.00535 0.022969,0.00958 0.03545,0.01033 0.012277,9.763e-4 0.024299,-1.26e-4 0.035892,-0.00459 0.00881,-0.00404 0.01751,-0.00839 0.025355,-0.014129 0.00761,-0.00617 0.014137,-0.013354 0.019389,-0.021668 0.0047,-0.00776 0.00926,-0.015603 0.013295,-0.02374 0.00484,-0.00942 0.00956,-0.018916 0.013055,-0.028945 0.004,-0.00917 0.00824,-0.018233 0.011996,-0.027514 0.00366,-0.00826 0.00785,-0.016244 0.013507,-0.023345 0.0047,-0.00628 0.0099,-0.012058 0.016759,-0.016045 0.00717,-0.00364 0.014684,-0.00563 0.022778,-0.00567 0.0079,3.783e-4 0.015063,0.0018 0.021624,0.00664 0.00802,0.00504 0.015208,0.011047 0.022074,0.017588 0.00886,0.00895 0.017711,0.017916 0.026673,0.026767 0.010229,0.010465 0.020032,0.021307 0.030196,0.03183 0.012091,0.012224 0.024122,0.024518 0.036588,0.036363 0.013348,0.012346 0.027285,0.024126 0.042716,0.033825 0.014452,0.00882 0.029141,0.017219 0.045423,0.022266 0.015618,0.00426 0.031524,0.00661 0.047439,0.00214 0.013457,-0.0043 0.02413,-0.011575 0.032659,-0.022969 0.00769,-0.00957 0.01315,-0.020148 0.017764,-0.031509 0.00521,-0.010662 0.00986,-0.02158 0.014801,-0.032372 0.00552,-0.01187 0.011533,-0.023567 0.018344,-0.034748 0.0067,-0.00966 0.014229,-0.018892 0.023656,-0.026035 0.00807,-0.00557 0.016386,-0.00975 0.026465,-0.00983 0.01152,-7.76e-5 0.022389,0.00157 0.032639,0.00728 0.012753,0.00688 0.025196,0.01429 0.03747,0.021997 0.015364,0.010092 0.030831,0.020019 0.04643,0.029744 0.017799,0.011344 0.035398,0.022999 0.052301,0.035653 0.018497,0.013926 0.037151,0.027698 0.056721,0.040097 0.017944,0.011804 0.03605,0.02347 0.055838,0.032017 0.016266,0.00681 0.033037,0.012838 0.050922,0.012821 0.015559,-7.005e-4 0.030674,-0.0039 0.04379,-0.012761 0.010273,-0.00811 0.019025,-0.017771 0.025933,-0.028935 0.00636,-0.010688 0.012137,-0.02166 0.016343,-0.033401 0.00514,-0.012758 0.010149,-0.025588 0.015941,-0.038068 0.00627,-0.013339 0.012895,-0.026642 0.021314,-0.038776 0.00763,-0.010001 0.016235,-0.018919 0.027519,-0.02485 0.01136,-0.00542 0.022895,-0.00779 0.035488,-0.00533 0.015886,0.00331 0.030306,0.01034 0.044486,0.0181 0.018012,0.00985 0.035898,0.019911 0.053378,0.030688 0.018848,0.011691 0.038063,0.022811 0.05636,0.035369 0.016345,0.011131 0.032982,0.021819 0.049663,0.032436 0.010262,0.00653 0.020693,0.013003 0.032063,0.017439 0.034164,0.013666 0.043828,-0.010492 0.00966,-0.024158 z"
       inkscape:connector-curvature="0" />
    <path
       inkscape:connector-curvature="0"
       d="m 1.9826116,2.8064544 c -0.00895,-0.0053 -0.017702,-0.010897 -0.026297,-0.016753 -0.016081,-0.011129 -0.032482,-0.021773 -0.048501,-0.032993 -0.018727,-0.012798 -0.038189,-0.024485 -0.057513,-0.036353 -0.018039,-0.011002 -0.036563,-0.021157 -0.055267,-0.030972 -0.016544,-0.00914 -0.033664,-0.016427 -0.052142,-0.020436 -0.018666,-0.00359 -0.036124,-1.406e-4 -0.053145,0.00761 -0.015327,0.0078 -0.027365,0.01963 -0.037901,0.032975 -0.010045,0.013576 -0.017433,0.028827 -0.024586,0.044053 -0.00604,0.013054 -0.011102,0.026522 -0.016213,0.039956 -0.00353,0.010456 -0.00874,0.020142 -0.014214,0.029673 -0.00513,0.00805 -0.011474,0.015309 -0.019141,0.021009 -0.00855,0.00509 -0.018293,0.00652 -0.028072,0.00679 -0.01364,-5.451e-4 -0.026306,-0.00584 -0.038602,-0.011305 -0.017939,-0.0083 -0.034499,-0.019103 -0.050784,-0.030213 -0.019079,-0.012244 -0.037291,-0.02576 -0.055512,-0.039228 -0.01765,-0.012934 -0.03579,-0.025159 -0.054368,-0.036716 -0.015695,-0.00938 -0.031106,-0.01922 -0.046567,-0.02898 -0.012994,-0.00802 -0.026233,-0.015629 -0.039753,-0.022722 -0.014192,-0.00807 -0.029667,-0.010342 -0.045709,-0.010398 -0.015513,1.374e-4 -0.028933,0.00626 -0.041689,0.014486 -0.012554,0.00879 -0.022328,0.020638 -0.031145,0.03302 -0.00812,0.012331 -0.014507,0.025703 -0.020722,0.039065 -0.0047,0.010734 -0.00918,0.02154 -0.014277,0.032089 -0.004,0.0094 -0.0079,0.018375 -0.014383,0.026278 -0.00512,0.00689 -0.010721,0.011922 -0.019132,0.013903 -0.010861,0.00257 -0.021632,3.757e-4 -0.03209,-0.00278 -0.013777,-0.00446 -0.026075,-0.011868 -0.038297,-0.019429 -0.013761,-0.00885 -0.026194,-0.019567 -0.038176,-0.030655 -0.01211,-0.011664 -0.024016,-0.023535 -0.035937,-0.035391 -0.010279,-0.010384 -0.020114,-0.021173 -0.030498,-0.031459 -0.00891,-0.00901 -0.018021,-0.017818 -0.027114,-0.026642 -0.00832,-0.00781 -0.017137,-0.015004 -0.026761,-0.021134 -0.010472,-0.00712 -0.02222,-0.010031 -0.034678,-0.010781 -0.012811,-4.71e-4 -0.024747,0.00298 -0.036175,0.00845 -0.010737,0.00572 -0.018992,0.014371 -0.026392,0.023836 -0.00685,0.0088 -0.012105,0.018569 -0.016761,0.028653 -0.00368,0.00939 -0.0079,0.018523 -0.012046,0.027709 -0.00353,0.00954 -0.00789,0.018707 -0.012377,0.027829 -0.00355,0.00767 -0.00795,0.014887 -0.012203,0.022172 -0.00369,0.00507 -0.00723,0.010552 -0.012584,0.014013 -0.00631,0.00433 -0.013131,0.00789 -0.020135,0.010965 -0.00754,0.00221 -0.014944,0.00275 -0.022707,0.00213 -0.00902,-6.085e-4 -0.017518,-0.00383 -0.025495,-0.00792 -0.010282,-0.00503 -0.019595,-0.011855 -0.028144,-0.019424 -0.010197,-0.00857 -0.019402,-0.018193 -0.028334,-0.028046 -0.00848,-0.00964 -0.017822,-0.018435 -0.026448,-0.02794 -0.00767,-0.00859 -0.015105,-0.017392 -0.023111,-0.025675 -0.00758,-0.00736 -0.014356,-0.015415 -0.022249,-0.022446 -0.00743,-0.00605 -0.015139,-0.011738 -0.022672,-0.01766 -0.00439,-0.00344 -0.00879,-0.00687 -0.013184,-0.010296 -0.029594,-0.023539 -0.046239,-0.00261 -0.016645,0.020926 l 0,0 c 0.00437,0.00354 0.00874,0.00709 0.013142,0.010592 0.00716,0.00563 0.014481,0.011058 0.021492,0.016876 0.00749,0.00636 0.013367,0.014284 0.02054,0.020989 0.00778,0.008 0.014729,0.016783 0.022233,0.025041 0.00854,0.00962 0.017804,0.018534 0.026223,0.028256 0.00963,0.010716 0.019788,0.020983 0.030823,0.030268 0.010456,0.00899 0.021712,0.01722 0.034235,0.023124 0.011173,0.00535 0.022969,0.00958 0.03545,0.01033 0.012277,9.763e-4 0.024299,-1.26e-4 0.035892,-0.00459 0.00881,-0.00404 0.01751,-0.00839 0.025355,-0.014129 0.00761,-0.00617 0.014137,-0.013354 0.019389,-0.021668 0.0047,-0.00776 0.00926,-0.015603 0.013295,-0.02374 0.00484,-0.00942 0.00956,-0.018916 0.013055,-0.028945 0.004,-0.00917 0.00824,-0.018233 0.011996,-0.027514 0.00366,-0.00826 0.00785,-0.016244 0.013507,-0.023345 0.0047,-0.00628 0.0099,-0.012058 0.016759,-0.016045 0.00717,-0.00364 0.014684,-0.00563 0.022778,-0.00567 0.0079,3.783e-4 0.015063,0.0018 0.021624,0.00664 0.00802,0.00504 0.015208,0.011047 0.022074,0.017588 0.00886,0.00895 0.017711,0.017916 0.026673,0.026767 0.010229,0.010465 0.020032,0.021307 0.030196,0.03183 0.012091,0.012224 0.024122,0.024518 0.036588,0.036363 0.013348,0.012346 0.027285,0.024126 0.042716,0.033825 0.014452,0.00882 0.029141,0.017219 0.045423,0.022266 0.015618,0.00426 0.031524,0.00661 0.047439,0.00214 0.013457,-0.0043 0.02413,-0.011575 0.032659,-0.022969 0.00769,-0.00957 0.01315,-0.020148 0.017764,-0.031509 0.00521,-0.010662 0.00986,-0.02158 0.014801,-0.032372 0.00552,-0.01187 0.011533,-0.023567 0.018344,-0.034748 0.0067,-0.00966 0.014229,-0.018892 0.023656,-0.026035 0.00807,-0.00557 0.016386,-0.00975 0.026465,-0.00983 0.01152,-7.76e-5 0.022389,0.00157 0.032639,0.00728 0.012753,0.00688 0.025196,0.01429 0.03747,0.021997 0.015364,0.010092 0.030831,0.020019 0.04643,0.029744 0.017799,0.011344 0.035398,0.022999 0.052301,0.035653 0.018497,0.013926 0.037151,0.027698 0.056721,0.040097 0.017944,0.011804 0.03605,0.02347 0.055838,0.032017 0.016266,0.00681 0.033037,0.012838 0.050922,0.012821 0.015559,-7.005e-4 0.030674,-0.0039 0.04379,-0.012761 0.010273,-0.00811 0.019025,-0.017771 0.025933,-0.028935 0.00636,-0.010688 0.012137,-0.02166 0.016343,-0.033401 0.00514,-0.012758 0.010149,-0.025588 0.015941,-0.038068 0.00627,-0.013339 0.012895,-0.026642 0.021314,-0.038776 0.00763,-0.010001 0.016235,-0.018919 0.027519,-0.02485 0.01136,-0.00542 0.022895,-0.00779 0.035488,-0.00533 0.015886,0.00331 0.030306,0.01034 0.044486,0.0181 0.018012,0.00985 0.035898,0.019911 0.053378,0.030688 0.018848,0.011691 0.038063,0.022811 0.05636,0.035369 0.016345,0.011131 0.032982,0.021819 0.049663,0.032436 0.010262,0.00653 0.020693,0.013003 0.032063,0.017439 0.034164,0.013666 0.043828,-0.010492 0.00966,-0.024158 z"
       id="path4257"
       style="opacity:1;fill:#9e3a9c;fill-opacity:1;fill-rule:nonzero;stroke:none;stroke-width:0.06614584;stroke-linecap:round;stroke-linejoin:round;stroke-miterlimit:4;stroke-dasharray:none;stroke-dashoffset:0;stroke-opacity:1" />
    <path
       style="fill:#555555;stroke-width:0.066146"
       inkscape:connector-curvature="0"
       id="path89"
       d="M 0.89867555,4.0871522 C 0.99789435,4.1367622 1.0872574,4.1814742 1.1910401,4.2333335 1.2936985,4.0111496 3.1290193,0.36050341 3.2255922,0.15121965 3.126307,0.10160965 3.0369443,0.05689465 2.9331614,0.00503715 2.8305692,0.22722215 0.99524847,3.8779322 0.89867555,4.0871522 Z" />
    <g
       transform="matrix(-1,0,0,1,4.2276258,0)"
       id="g4255" />
    <path
       inkscape:connector-curvature="0"
       id="path4310"
       transform="scale(0.26458334,0.26458334)"
       d="M 8.5039062,0.15625 C 8.2997989,0.16182 8.0943171,0.2455266 7.9335938,0.40625 L 3.3125,5.0273438 l -2.3671875,0 C 0.49071818,5.0273438 0.125,5.3735108 0.125,5.8027344 l 0,9.2968746 c 0,0.429224 0.36571818,0.775391 0.8203125,0.775391 l 3.3066406,0 C 3.9638544,15.730975 3.6866789,15.592365 3.3964844,15.447266 3.5040516,15.214227 4.8555554,12.517268 5.6621094,10.900391 6.5973418,9.0285718 7.1766192,7.8593671 7.9824219,6.2441406 8.2494548,5.7100768 8.3328936,5.5414555 8.5898438,5.0273438 9.1331344,3.9369699 9.9409473,2.3238933 10.294922,1.6074219 L 9.0625,0.375 C 8.9107466,0.22324654 8.7080136,0.15067998 8.5039062,0.15625 Z"
       style="opacity:0.678;fill:#aba2a8;fill-opacity:1;fill-rule:nonzero;stroke:#aba2a8;stroke-width:0.25;stroke-linecap:round;stroke-linejoin:round;stroke-miterlimit:4;stroke-dasharray:none;stroke-dashoffset:0;stroke-opacity:1" />
    <path
       d="M 0.89867555,4.0871522 C 0.99789435,4.1367622 1.0872574,4.1814742 1.1910401,4.2333335 1.2936985,4.0111496 3.1290193,0.36050341 3.2255922,0.15121965 3.126307,0.10160965 3.0369443,0.05689465 2.9331614,0.00503715 2.8305692,0.22722215 0.99524847,3.8779322 0.89867555,4.0871522 Z"
       id="path4281"
       inkscape:connector-curvature="0"
       style="fill:#555555;stroke-width:0.066146" />
  </g>
</svg>
