<?xml version="1.0" encoding="UTF-8"?>
<svg xmlns="http://www.w3.org/2000/svg" xmlns:xlink="http://www.w3.org/1999/xlink" width="24px" height="24px" viewBox="0 0 24 24" version="1.1">
<g id="surface1">
<path style=" stroke:none;fill-rule:nonzero;fill:rgb(61.56863%,22.745098%,60.784316%);fill-opacity:1;" d="M 2.25 9.75 L 8.25 9.75 C 8.664062 9.75 9 10.085938 9 10.5 L 9 13.5 C 9 13.914062 8.664062 14.25 8.25 14.25 L 2.25 14.25 C 1.835938 14.25 1.5 13.914062 1.5 13.5 L 1.5 10.5 C 1.5 10.085938 1.835938 9.75 2.25 9.75 Z M 2.25 9.75 "/>
<path style=" stroke:none;fill-rule:nonzero;fill:rgb(90.196079%,0.784314%,70.588237%);fill-opacity:1;" d="M 11.25 21 L 20.25 21 C 20.664062 21 21 21.335938 21 21.75 C 21 22.164062 20.664062 22.5 20.25 22.5 L 11.25 22.5 C 10.835938 22.5 10.5 22.164062 10.5 21.75 C 10.5 21.335938 10.835938 21 11.25 21 Z M 11.25 21 "/>
<path style=" stroke:none;fill-rule:nonzero;fill:rgb(90.196079%,0.784314%,70.588237%);fill-opacity:1;" d="M 11.25 3 L 20.25 3 C 20.664062 3 21 3.335938 21 3.75 C 21 4.164062 20.664062 4.5 20.25 4.5 L 11.25 4.5 C 10.835938 4.5 10.5 4.164062 10.5 3.75 C 10.5 3.335938 10.835938 3 11.25 3 Z M 11.25 3 "/>
<path style=" stroke:none;fill-rule:nonzero;fill:rgb(90.196079%,0.784314%,70.588237%);fill-opacity:1;" d="M 11.25 7.5 L 20.25 7.5 C 20.664062 7.5 21 7.835938 21 8.25 C 21 8.664062 20.664062 9 20.25 9 L 11.25 9 C 10.835938 9 10.5 8.664062 10.5 8.25 C 10.5 7.835938 10.835938 7.5 11.25 7.5 Z M 11.25 7.5 "/>
<path style=" stroke:none;fill-rule:nonzero;fill:rgb(90.196079%,0.784314%,70.588237%);fill-opacity:1;" d="M 11.25 12 L 20.25 12 C 20.664062 12 21 12.335938 21 12.75 C 21 13.164062 20.664062 13.5 20.25 13.5 L 11.25 13.5 C 10.835938 13.5 10.5 13.164062 10.5 12.75 C 10.5 12.335938 10.835938 12 11.25 12 Z M 11.25 12 "/>
<path style=" stroke:none;fill-rule:nonzero;fill:rgb(90.196079%,0.784314%,70.588237%);fill-opacity:1;" d="M 15.75 16.5 L 20.25 16.5 C 20.664062 16.5 21 16.835938 21 17.25 C 21 17.664062 20.664062 18 20.25 18 L 15.75 18 C 15.335938 18 15 17.664062 15 17.25 C 15 16.835938 15.335938 16.5 15.75 16.5 Z M 15.75 16.5 "/>
<path style=" stroke:none;fill-rule:nonzero;fill:rgb(94.117647%,89.019608%,92.54902%);fill-opacity:1;" d="M 3.199219 11.25 L 7.300781 11.25 C 7.410156 11.25 7.5 11.339844 7.5 11.449219 L 7.5 12.550781 C 7.5 12.660156 7.410156 12.75 7.300781 12.75 L 3.199219 12.75 C 3.089844 12.75 3 12.660156 3 12.550781 L 3 11.449219 C 3 11.339844 3.089844 11.25 3.199219 11.25 Z M 3.199219 11.25 "/>
</g>
</svg>
