<?xml version="1.0" encoding="UTF-8"?>
<svg xmlns="http://www.w3.org/2000/svg" xmlns:xlink="http://www.w3.org/1999/xlink" width="24px" height="24px" viewBox="0 0 24 24" version="1.1">
<g id="surface1">
<path style="fill-rule:evenodd;fill:rgb(94.117647%,89.019608%,92.54902%);fill-opacity:1;stroke-width:0.264583;stroke-linecap:round;stroke-linejoin:round;stroke:rgb(90.196079%,0.784314%,70.588237%);stroke-opacity:1;stroke-miterlimit:4;" d="M 1.322917 0.396875 L 2.910417 0.396875 C 3.129525 0.396875 3.307292 0.574642 3.307292 0.79375 L 3.307292 3.439584 C 3.307292 3.658692 3.129525 3.836459 2.910417 3.836459 L 1.322917 3.836459 C 1.103808 3.836459 0.926041 3.658692 0.926041 3.439584 L 0.926041 0.79375 C 0.926041 0.574642 1.103808 0.396875 1.322917 0.396875 Z M 1.322917 0.396875 " transform="matrix(5.669291,0,0,5.669291,0.00000135166,0)"/>
<path style=" stroke:none;fill-rule:nonzero;fill:rgb(94.117647%,89.019608%,92.54902%);fill-opacity:1;" d="M 7.5 4.5 L 16.5 4.5 C 17.328125 4.5 18 5.171875 18 6 L 18 18 C 18 18.828125 17.328125 19.5 16.5 19.5 L 7.5 19.5 C 6.671875 19.5 6 18.828125 6 18 L 6 6 C 6 5.171875 6.671875 4.5 7.5 4.5 Z M 7.5 4.5 "/>
<path style=" stroke:none;fill-rule:nonzero;fill:rgb(95.294118%,71.764708%,85.09804%);fill-opacity:1;" d="M 7.5 6 L 10.5 6 L 10.5 9 L 7.5 9 Z M 7.5 6 "/>
<path style=" stroke:none;fill-rule:nonzero;fill:rgb(95.294118%,71.764708%,85.09804%);fill-opacity:1;" d="M 13.5 6 L 16.5 6 L 16.5 9 L 13.5 9 Z M 13.5 6 "/>
<path style=" stroke:none;fill-rule:nonzero;fill:rgb(95.294118%,71.764708%,85.09804%);fill-opacity:1;" d="M 7.5 10.5 L 10.5 10.5 L 10.5 13.5 L 7.5 13.5 Z M 7.5 10.5 "/>
<path style=" stroke:none;fill-rule:nonzero;fill:rgb(95.294118%,71.764708%,85.09804%);fill-opacity:1;" d="M 13.5 10.5 L 16.5 10.5 L 16.5 13.5 L 13.5 13.5 Z M 13.5 10.5 "/>
<path style=" stroke:none;fill-rule:nonzero;fill:rgb(95.294118%,71.764708%,85.09804%);fill-opacity:1;" d="M 7.5 15 L 10.5 15 L 10.5 18 L 7.5 18 Z M 7.5 15 "/>
<path style=" stroke:none;fill-rule:nonzero;fill:rgb(95.294118%,71.764708%,85.09804%);fill-opacity:1;" d="M 13.5 15 L 16.5 15 L 16.5 18 L 13.5 18 Z M 13.5 15 "/>
</g>
</svg>
