<?xml version="1.0" encoding="UTF-8"?>
<svg xmlns="http://www.w3.org/2000/svg" xmlns:xlink="http://www.w3.org/1999/xlink" width="24px" height="24px" viewBox="0 0 24 24" version="1.1">
<defs>
<filter id="alpha" filterUnits="objectBoundingBox" x="0%" y="0%" width="100%" height="100%">
  <feColorMatrix type="matrix" in="SourceGraphic" values="0 0 0 0 1 0 0 0 0 1 0 0 0 0 1 0 0 0 1 0"/>
</filter>
<mask id="mask0">
  <g filter="url(#alpha)">
<rect x="0" y="0" width="24" height="24" style="fill:rgb(0%,0%,0%);fill-opacity:0.678;stroke:none;"/>
  </g>
</mask>
<clipPath id="clip1">
  <rect x="0" y="0" width="24" height="24"/>
</clipPath>
<g id="surface5" clip-path="url(#clip1)">
<path style="fill-rule:nonzero;fill:rgb(67.058825%,63.529414%,65.882355%);fill-opacity:1;stroke-width:0.0661458;stroke-linecap:round;stroke-linejoin:round;stroke:rgb(67.058825%,63.529414%,65.882355%);stroke-opacity:1;stroke-miterlimit:4;" d="M 2.364527 0.304177 C 2.310783 0.305555 2.202607 0.415798 2.159888 0.453694 L 1.116713 1.450705 L 0.579967 1.468619 C 0.460078 1.472753 0.362926 1.549923 0.362926 1.651209 L 0.362926 3.839534 C 0.362926 3.940131 0.459389 4.022124 0.579967 4.022124 L 1.455021 4.022124 C 1.37854 3.987673 1.305504 3.955289 1.228334 3.920838 C 1.257273 3.866406 1.614874 3.231819 1.827781 2.850792 C 2.075139 2.410508 2.22879 2.13559 2.441697 1.755251 C 2.512666 1.629161 2.534714 1.589886 2.602927 1.468619 C 2.746243 1.212304 2.780694 0.977348 2.874401 0.808539 C 2.706969 0.499169 2.241881 0.258013 2.364527 0.304177 Z M 2.364527 0.304177 " transform="matrix(5.669291,0,0,5.669291,-0.545814,-0.341654)"/>
</g>
</defs>
<g id="surface1">
<path style="fill-rule:nonzero;fill:rgb(94.117647%,89.019608%,92.54902%);fill-opacity:1;stroke-width:0.0742585;stroke-linecap:round;stroke-linejoin:round;stroke:rgb(90.196079%,0.784314%,70.588237%);stroke-opacity:1;stroke-miterlimit:4;" d="M 1.733875 1.345036 L 3.851725 1.345036 C 3.986825 1.344489 4.095671 1.447865 4.095671 1.574761 L 4.095671 3.984691 C 4.095671 4.111587 3.986825 4.214963 3.852272 4.214963 L 1.734422 4.214963 C 1.599868 4.214963 1.490475 4.112134 1.490475 3.984144 L 1.490475 1.575308 C 1.489928 1.447865 1.599321 1.345036 1.733875 1.345036 Z M 1.733875 1.345036 " transform="matrix(-3.570838,3.570838,3.570838,3.570838,13.255669,-9.052885)"/>
<path style="fill-rule:nonzero;fill:rgb(94.117647%,89.019608%,92.54902%);fill-opacity:1;stroke-width:0.280662;stroke-linecap:round;stroke-linejoin:round;stroke:rgb(90.196079%,0.784314%,70.588237%);stroke-opacity:1;stroke-miterlimit:4;" d="M 1.817013 1.448959 L 3.752724 1.448412 C 3.875791 1.448959 3.975886 1.543584 3.975886 1.660635 L 3.975339 3.881861 C 3.975886 3.999459 3.875791 4.094084 3.752724 4.094631 L 1.817013 4.094084 C 1.693946 4.094631 1.594399 3.999459 1.594399 3.882408 L 1.594399 1.660635 C 1.594399 1.543584 1.693946 1.448412 1.817013 1.448959 Z M 1.817013 1.448959 " transform="matrix(-3.570838,3.570838,3.570838,3.570838,13.255669,-9.052885)"/>
<path style="fill-rule:nonzero;fill:rgb(94.117647%,89.019608%,92.54902%);fill-opacity:1;stroke-width:0.0742585;stroke-linecap:round;stroke-linejoin:round;stroke:rgb(90.196079%,0.784314%,70.588237%);stroke-opacity:1;stroke-miterlimit:4;" d="M 2.138082 2.102583 C 2.146834 2.097113 2.155585 2.091643 2.16379 2.085627 C 2.180199 2.074687 2.196607 2.063748 2.213016 2.052809 C 2.231613 2.039682 2.250757 2.028195 2.270448 2.016162 C 2.287951 2.005223 2.307094 1.994831 2.325691 1.984985 C 2.3421 1.976234 2.359056 1.969123 2.377653 1.964747 C 2.39625 1.961466 2.413753 1.964747 2.431256 1.972405 C 2.446024 1.980609 2.458604 1.992096 2.468449 2.005223 C 2.478842 2.018897 2.486499 2.034212 2.493063 2.049527 C 2.499626 2.062654 2.504549 2.076328 2.510019 2.089456 C 2.512753 2.099848 2.518223 2.109693 2.523693 2.119539 C 2.529162 2.127196 2.535179 2.134307 2.542837 2.139776 C 2.551588 2.145246 2.560886 2.146887 2.570732 2.146887 C 2.584406 2.14634 2.597533 2.14087 2.609566 2.135401 C 2.627616 2.127196 2.644025 2.116257 2.660434 2.105318 C 2.679031 2.093284 2.697628 2.080157 2.715678 2.066483 C 2.733181 2.053356 2.751777 2.041323 2.770374 2.029289 C 2.786236 2.019991 2.801551 2.010146 2.816866 2.0003 C 2.829993 1.992643 2.843121 1.984985 2.856795 1.977875 C 2.870469 1.96967 2.885784 1.967482 2.902193 1.967482 C 2.917508 1.967482 2.931182 1.973499 2.943762 1.981703 C 2.956342 1.991002 2.966735 2.002488 2.974939 2.015068 C 2.983144 2.027648 2.989707 2.040776 2.996271 2.053903 C 3.000647 2.064842 3.005022 2.075781 3.009945 2.086174 C 3.013774 2.095472 3.01815 2.104224 3.024166 2.112428 C 3.029636 2.118992 3.035105 2.124461 3.04331 2.126102 C 3.054796 2.128837 3.065189 2.126102 3.075581 2.123367 C 3.089802 2.118992 3.101835 2.111334 3.113868 2.103677 C 3.12809 2.094925 3.140123 2.083986 3.152156 2.073047 C 3.164189 2.062107 3.176223 2.050074 3.188256 2.038041 C 3.198648 2.027648 3.208493 2.016709 3.218886 2.006317 C 3.227637 1.997565 3.236389 1.988814 3.245687 1.979516 C 3.253892 1.972405 3.262643 1.964747 3.272488 1.958184 C 3.283428 1.95162 3.294914 1.948885 3.306947 1.947792 C 3.320074 1.947792 3.332108 1.951073 3.343047 1.956543 C 3.353986 1.962013 3.362738 1.970764 3.369848 1.980062 C 3.376412 1.988814 3.381882 1.998659 3.386804 2.009052 C 3.390086 2.017803 3.394462 2.027648 3.398837 2.0364 C 3.402119 2.046245 3.406495 2.054997 3.410871 2.064842 C 3.414699 2.071953 3.418528 2.079063 3.422904 2.086721 C 3.426733 2.091643 3.430014 2.097113 3.435484 2.100395 C 3.442048 2.104771 3.449158 2.108599 3.455722 2.111881 C 3.463379 2.114069 3.471037 2.114069 3.478147 2.113522 C 3.487446 2.112975 3.496197 2.109693 3.504402 2.105865 C 3.514247 2.100395 3.524093 2.093831 3.532297 2.086721 C 3.542142 2.077969 3.551988 2.068124 3.560739 2.058279 C 3.568944 2.04898 3.578242 2.039682 3.586994 2.029836 C 3.594651 2.022179 3.601762 2.01288 3.609966 2.004676 C 3.617624 1.997018 3.624187 1.989361 3.632392 1.98225 C 3.639502 1.976234 3.647707 1.970217 3.654817 1.9642 C 3.659193 1.960919 3.663569 1.957637 3.667944 1.954355 C 3.698028 1.930836 3.714436 1.95162 3.684353 1.97514 C 3.680525 1.978969 3.676149 1.98225 3.671773 1.985532 C 3.664663 1.991549 3.657005 1.997018 3.650442 2.002488 C 3.642784 2.009052 3.636767 2.017256 3.629657 2.023273 C 3.621999 2.032024 3.614889 2.040229 3.607231 2.04898 C 3.599027 2.058279 3.589728 2.067577 3.581524 2.076875 C 3.571679 2.087815 3.561286 2.098207 3.550347 2.106958 C 3.539955 2.116257 3.528468 2.124461 3.515888 2.130478 C 3.504949 2.135948 3.493462 2.139776 3.480335 2.14087 C 3.468302 2.141964 3.456269 2.14087 3.444783 2.135948 C 3.436031 2.131572 3.42728 2.127196 3.419622 2.121727 C 3.411418 2.11571 3.405401 2.108599 3.399931 2.099848 C 3.395556 2.09219 3.39118 2.084533 3.386804 2.076875 C 3.381882 2.067577 3.377506 2.057732 3.373677 2.047339 C 3.369848 2.038041 3.365473 2.029289 3.361644 2.019991 C 3.357815 2.011786 3.353986 2.003582 3.34797 1.996471 C 3.343047 1.990455 3.338124 1.984438 3.331014 1.980609 C 3.32445 1.977328 3.316793 1.97514 3.308588 1.974593 C 3.300931 1.975687 3.293273 1.976781 3.287256 1.981703 C 3.279052 1.986626 3.271941 1.992643 3.265378 1.999206 C 3.256079 2.008505 3.247328 2.017256 3.238577 2.026008 C 3.228184 2.0364 3.218339 2.047339 3.207947 2.057732 C 3.195913 2.069765 3.184427 2.082345 3.1713 2.094378 C 3.158173 2.106411 3.143952 2.118445 3.128637 2.12829 C 3.114415 2.137042 3.099647 2.145246 3.083238 2.150716 C 3.067376 2.154544 3.052061 2.156732 3.035652 2.152357 C 3.022525 2.147981 3.012133 2.14087 3.002834 2.129384 C 2.995724 2.120086 2.990254 2.109146 2.985332 2.09766 C 2.980409 2.087268 2.976033 2.076328 2.970564 2.065389 C 2.965094 2.053356 2.959077 2.04187 2.952514 2.03093 C 2.94595 2.021085 2.937746 2.011786 2.928447 2.004676 C 2.92079 1.999206 2.912038 1.994831 2.902193 1.994831 C 2.890707 1.995378 2.879767 1.996471 2.869375 2.002488 C 2.856795 2.009599 2.844215 2.016709 2.832181 2.024367 C 2.816866 2.034212 2.801551 2.044057 2.785689 2.05445 C 2.768186 2.065389 2.750136 2.076875 2.733181 2.089456 C 2.714584 2.103677 2.696534 2.117351 2.676843 2.129384 C 2.658793 2.141964 2.640743 2.153451 2.620506 2.161655 C 2.604644 2.168766 2.587688 2.174782 2.570185 2.174782 C 2.554323 2.174235 2.539008 2.170953 2.526428 2.161655 C 2.516035 2.153451 2.506737 2.144152 2.500173 2.133213 C 2.49361 2.122273 2.48814 2.111334 2.483764 2.099301 C 2.478842 2.086721 2.473919 2.074141 2.467902 2.06156 C 2.461886 2.047886 2.455322 2.034759 2.446571 2.022726 C 2.438913 2.01288 2.430709 2.003582 2.419222 1.997565 C 2.407736 1.992643 2.39625 1.989908 2.38367 1.992643 C 2.367808 1.995378 2.35304 2.002488 2.339365 2.010693 C 2.320769 2.020538 2.303266 2.030383 2.285763 2.041323 C 2.266619 2.052809 2.247475 2.064295 2.229425 2.076875 C 2.213016 2.087815 2.196061 2.098207 2.179652 2.109146 C 2.169806 2.11571 2.158867 2.122273 2.147928 2.126649 C 2.113469 2.140323 2.103623 2.116257 2.138082 2.102583 Z M 2.138082 2.102583 " transform="matrix(-3.570838,3.570838,3.570838,3.570838,13.255669,-9.052885)"/>
<path style="fill-rule:nonzero;fill:rgb(94.117647%,89.019608%,92.54902%);fill-opacity:1;stroke-width:0.0742585;stroke-linecap:round;stroke-linejoin:round;stroke:rgb(90.196079%,0.784314%,70.588237%);stroke-opacity:1;stroke-miterlimit:4;" d="M 2.138082 2.483271 C 2.146834 2.477801 2.155585 2.472331 2.164337 2.465768 C 2.180199 2.455375 2.196607 2.444436 2.212469 2.43295 C 2.231613 2.42037 2.250757 2.408883 2.270448 2.39685 C 2.287951 2.385911 2.307094 2.375518 2.325691 2.365673 C 2.3421 2.356922 2.359603 2.349264 2.377653 2.345435 C 2.39625 2.342154 2.413753 2.345435 2.430709 2.352546 C 2.446571 2.36075 2.458057 2.372237 2.468449 2.385911 C 2.478842 2.399585 2.486499 2.4149 2.493063 2.430215 C 2.499079 2.442795 2.504002 2.456469 2.509472 2.469597 C 2.512753 2.480536 2.518223 2.490381 2.523693 2.499133 C 2.529162 2.507884 2.535179 2.514995 2.542837 2.520464 C 2.551588 2.525934 2.561433 2.527028 2.570732 2.527575 C 2.584406 2.527028 2.597533 2.521558 2.609566 2.516089 C 2.627616 2.507884 2.644025 2.496945 2.660434 2.486005 C 2.679578 2.473425 2.697628 2.459751 2.716225 2.446624 C 2.733727 2.433497 2.75123 2.421464 2.770374 2.409977 C 2.786236 2.400679 2.801551 2.390833 2.816866 2.380988 C 2.829446 2.372784 2.843121 2.365673 2.856248 2.358016 C 2.870469 2.350358 2.886331 2.347623 2.902193 2.34817 C 2.917508 2.34817 2.931182 2.354187 2.943762 2.362391 C 2.956889 2.371143 2.966188 2.382629 2.974939 2.395756 C 2.983144 2.407242 2.989707 2.421464 2.995724 2.434044 C 3.000647 2.44553 3.005022 2.456469 3.009945 2.466862 C 3.014321 2.475613 3.01815 2.484912 3.024713 2.492569 C 3.029636 2.49968 3.035105 2.505149 3.04331 2.50679 C 3.054249 2.508978 3.065189 2.50679 3.075581 2.504055 C 3.089255 2.499133 3.101835 2.492022 3.113868 2.484365 C 3.12809 2.475613 3.140123 2.464674 3.152156 2.453735 C 3.164736 2.442248 3.176223 2.430762 3.188256 2.418729 C 3.198648 2.408336 3.208493 2.397397 3.218886 2.387005 C 3.227637 2.378253 3.236936 2.368955 3.245687 2.360203 C 3.254439 2.352546 3.262643 2.345435 3.272488 2.338872 C 3.282881 2.331761 3.294367 2.329026 3.306947 2.328479 C 3.319527 2.327932 3.331561 2.331214 3.343594 2.336684 C 3.353986 2.342701 3.362191 2.350905 3.369848 2.36075 C 3.376412 2.369502 3.381882 2.379347 3.386257 2.389193 C 3.390086 2.398491 3.394462 2.408336 3.398837 2.417088 C 3.402119 2.426933 3.406495 2.435685 3.410871 2.444436 C 3.414699 2.452641 3.418528 2.459751 3.422904 2.467409 C 3.426733 2.472331 3.430014 2.477801 3.435484 2.481083 C 3.442048 2.485459 3.448611 2.48874 3.456269 2.492022 C 3.463379 2.494757 3.471037 2.494757 3.478147 2.49421 C 3.487446 2.493663 3.496197 2.490381 3.503855 2.486005 C 3.514247 2.481083 3.523546 2.473972 3.53175 2.466862 C 3.542689 2.45811 3.551441 2.448265 3.560739 2.438966 C 3.569491 2.429121 3.578242 2.42037 3.586994 2.410524 C 3.594651 2.401773 3.601762 2.393568 3.609966 2.385364 C 3.617624 2.377706 3.624187 2.370049 3.632392 2.362938 C 3.639502 2.356922 3.647707 2.350905 3.654817 2.344888 C 3.659193 2.341607 3.663569 2.338325 3.667944 2.335043 C 3.697481 2.310977 3.714436 2.332308 3.6849 2.355281 C 3.680525 2.359656 3.676149 2.362938 3.671773 2.36622 C 3.664663 2.372237 3.657005 2.377706 3.650442 2.383176 C 3.642784 2.38974 3.636767 2.397944 3.629657 2.403961 C 3.621452 2.412165 3.614889 2.420917 3.607778 2.429121 C 3.599027 2.438966 3.589181 2.447718 3.581524 2.457563 C 3.571679 2.468503 3.561833 2.478348 3.550347 2.487646 C 3.539955 2.496945 3.528468 2.505149 3.516435 2.510619 C 3.504949 2.516636 3.493462 2.520464 3.480882 2.521011 C 3.468849 2.522105 3.456816 2.521011 3.444783 2.516636 C 3.436031 2.51226 3.42728 2.507884 3.419622 2.502414 C 3.411418 2.496398 3.405401 2.489287 3.399931 2.480536 C 3.395556 2.472878 3.39118 2.465221 3.386257 2.457016 C 3.381882 2.447171 3.376959 2.437873 3.373677 2.428027 C 3.369848 2.418729 3.365473 2.409977 3.361644 2.400679 C 3.357815 2.392474 3.353986 2.38427 3.34797 2.377159 C 3.343594 2.370596 3.338124 2.365126 3.331014 2.361297 C 3.323903 2.357469 3.316793 2.355828 3.308588 2.355281 C 3.300384 2.355828 3.293273 2.357469 3.287256 2.362391 C 3.279052 2.367314 3.271941 2.373331 3.264831 2.379347 C 3.256079 2.389193 3.247328 2.397944 3.238577 2.406695 C 3.228184 2.417088 3.218339 2.428027 3.207947 2.438419 C 3.195913 2.450453 3.18388 2.462486 3.1713 2.475066 C 3.158173 2.487099 3.143952 2.499133 3.129183 2.508431 C 3.114415 2.517729 3.099647 2.525934 3.083785 2.530857 C 3.067376 2.535232 3.052061 2.53742 3.035652 2.533045 C 3.022525 2.528669 3.012133 2.521558 3.002834 2.510072 C 2.995724 2.500774 2.990254 2.489834 2.985332 2.478348 C 2.980409 2.467956 2.976033 2.457016 2.970564 2.446077 C 2.965094 2.434044 2.959077 2.422557 2.952514 2.411618 C 2.94595 2.401773 2.937746 2.392474 2.928447 2.385364 C 2.92079 2.379894 2.912038 2.375518 2.902193 2.375518 C 2.890707 2.374971 2.879767 2.377159 2.869922 2.382629 C 2.856795 2.389193 2.844215 2.397397 2.832181 2.405055 C 2.816866 2.4149 2.801551 2.424745 2.785689 2.434044 C 2.768186 2.446077 2.750136 2.457563 2.733181 2.470143 C 2.715131 2.483818 2.696534 2.498039 2.676843 2.510072 C 2.658246 2.522105 2.640743 2.534138 2.620506 2.542343 C 2.604644 2.549453 2.587688 2.55547 2.569638 2.554923 C 2.554323 2.554923 2.539555 2.551094 2.526428 2.542343 C 2.516035 2.534138 2.507284 2.524293 2.500173 2.513901 C 2.49361 2.502961 2.48814 2.492022 2.483764 2.479989 C 2.478842 2.467409 2.473372 2.454281 2.467902 2.442248 C 2.461886 2.428574 2.455322 2.415447 2.446571 2.403414 C 2.438913 2.393568 2.430709 2.38427 2.419222 2.378253 C 2.407736 2.373331 2.39625 2.370596 2.38367 2.373331 C 2.367808 2.376065 2.35304 2.383176 2.338818 2.390833 C 2.321316 2.400679 2.303266 2.411071 2.285763 2.422011 C 2.266619 2.433497 2.248022 2.444436 2.229425 2.457563 C 2.213016 2.468503 2.196061 2.478895 2.179652 2.489834 C 2.169259 2.495851 2.158867 2.502961 2.147381 2.50679 C 2.113469 2.521011 2.10417 2.496398 2.138082 2.483271 Z M 2.138082 2.483271 " transform="matrix(-3.570838,3.570838,3.570838,3.570838,13.255669,-9.052885)"/>
<path style="fill-rule:nonzero;fill:rgb(94.117647%,89.019608%,92.54902%);fill-opacity:1;stroke-width:0.0742585;stroke-linecap:round;stroke-linejoin:round;stroke:rgb(90.196079%,0.784314%,70.588237%);stroke-opacity:1;stroke-miterlimit:4;" d="M 2.138082 2.812544 C 2.146834 2.807074 2.155585 2.801605 2.164337 2.796135 C 2.180199 2.784649 2.196607 2.773709 2.213016 2.76277 C 2.231066 2.75019 2.250757 2.738157 2.269901 2.72667 C 2.288498 2.715731 2.306548 2.705339 2.325144 2.695493 C 2.3421 2.686195 2.359056 2.679084 2.377653 2.674709 C 2.39625 2.671427 2.413753 2.674709 2.430709 2.682913 C 2.446024 2.690571 2.458057 2.702604 2.468996 2.715731 C 2.478842 2.728858 2.485952 2.74472 2.493063 2.759488 C 2.499626 2.772615 2.504549 2.786289 2.509472 2.799964 C 2.5133 2.810356 2.518223 2.819654 2.523693 2.8295 C 2.528615 2.837704 2.535179 2.844268 2.542837 2.850831 C 2.551588 2.855207 2.560886 2.856848 2.571279 2.857395 C 2.584953 2.856848 2.596986 2.851378 2.609019 2.845909 C 2.627069 2.837704 2.644025 2.827312 2.660434 2.815279 C 2.679578 2.803792 2.697628 2.790118 2.715678 2.776444 C 2.733181 2.763317 2.751777 2.751284 2.769827 2.739797 C 2.785689 2.730499 2.801004 2.720654 2.816319 2.710808 C 2.829993 2.702604 2.843121 2.694946 2.856795 2.687836 C 2.871016 2.680178 2.886331 2.67799 2.902193 2.677443 C 2.918055 2.67799 2.931182 2.68346 2.944309 2.692211 C 2.956342 2.700963 2.966188 2.712996 2.974939 2.725029 C 2.983144 2.73761 2.989707 2.750737 2.995724 2.764411 C 3.000647 2.774803 3.005022 2.785743 3.009945 2.796135 C 3.014321 2.80598 3.017603 2.814732 3.024166 2.822389 C 3.029089 2.8295 3.035105 2.834422 3.043857 2.83661 C 3.054249 2.839345 3.065189 2.837157 3.075581 2.833329 C 3.089255 2.8295 3.101288 2.821842 3.114415 2.814185 C 3.127543 2.805433 3.140123 2.795041 3.152156 2.784102 C 3.164189 2.772068 3.176223 2.760035 3.188256 2.748002 C 3.198648 2.73761 3.207947 2.727217 3.218339 2.716825 C 3.227637 2.707526 3.236389 2.698775 3.245687 2.690571 C 3.253892 2.682366 3.26319 2.675256 3.272488 2.669239 C 3.282881 2.662128 3.294914 2.658847 3.307494 2.6583 C 3.320074 2.657753 3.332108 2.661034 3.343047 2.666504 C 3.353986 2.671974 3.362191 2.681272 3.369301 2.690571 C 3.376959 2.699322 3.381882 2.70862 3.386804 2.719013 C 3.390086 2.728858 3.394462 2.73761 3.39829 2.746908 C 3.402119 2.756206 3.405948 2.765505 3.410871 2.774803 C 3.414152 2.782461 3.419075 2.789571 3.422904 2.796682 C 3.426733 2.801605 3.430561 2.807621 3.436031 2.810903 C 3.442048 2.814732 3.449158 2.81856 3.455722 2.821842 C 3.463379 2.82403 3.47049 2.824577 3.478694 2.82403 C 3.487446 2.822936 3.49565 2.820201 3.503855 2.816373 C 3.514247 2.81145 3.523546 2.804339 3.532297 2.796682 C 3.542142 2.78793 3.551441 2.778632 3.560192 2.768787 C 3.568944 2.758941 3.578789 2.75019 3.586994 2.740891 C 3.594651 2.73214 3.602309 2.723388 3.609966 2.714637 C 3.617624 2.708073 3.624187 2.699322 3.632392 2.692211 C 3.639502 2.686195 3.64716 2.680725 3.655364 2.674709 C 3.65974 2.671427 3.664116 2.668145 3.667944 2.664316 C 3.698028 2.640797 3.714436 2.661581 3.6849 2.685648 C 3.680525 2.68893 3.676149 2.692211 3.671226 2.69604 C 3.664663 2.70151 3.657005 2.70698 3.649895 2.712996 C 3.642784 2.719013 3.636767 2.727217 3.629657 2.734328 C 3.621999 2.741985 3.615436 2.750737 3.607231 2.758941 C 3.599027 2.76824 3.589728 2.777538 3.580977 2.787383 C 3.571679 2.797776 3.561286 2.808168 3.550347 2.818013 C 3.539955 2.826218 3.528468 2.834422 3.515888 2.840439 C 3.504949 2.845909 3.492915 2.850284 3.480335 2.850831 C 3.468302 2.851925 3.456269 2.850831 3.444783 2.845909 C 3.436031 2.842627 3.42728 2.838251 3.419075 2.832235 C 3.411965 2.826218 3.405401 2.81856 3.399931 2.810903 C 3.395009 2.802698 3.390633 2.795041 3.386804 2.786836 C 3.381882 2.777538 3.376959 2.76824 3.373677 2.758394 C 3.369848 2.749096 3.365473 2.73925 3.361644 2.729952 C 3.358362 2.722295 3.353439 2.71409 3.348517 2.70698 C 3.343594 2.700963 3.338671 2.694946 3.331561 2.691118 C 3.32445 2.687289 3.316793 2.685101 3.308588 2.685648 C 3.300931 2.685648 3.29382 2.687289 3.287256 2.691664 C 3.279052 2.696587 3.271941 2.702604 3.264831 2.709714 C 3.256079 2.718466 3.247328 2.727217 3.23803 2.736516 C 3.227637 2.746908 3.218339 2.7573 3.208493 2.76824 C 3.195913 2.78082 3.18388 2.792853 3.1713 2.804339 C 3.158173 2.816373 3.143952 2.828406 3.128637 2.838251 C 3.114415 2.847003 3.099647 2.855207 3.083238 2.860677 C 3.067923 2.865053 3.051514 2.86724 3.036199 2.862865 C 3.021978 2.858489 3.011586 2.851378 3.003381 2.839892 C 2.995724 2.830047 2.989707 2.819654 2.985879 2.808168 C 2.980409 2.797229 2.975486 2.786836 2.97111 2.775897 C 2.965094 2.764411 2.959624 2.752378 2.952514 2.740891 C 2.945403 2.731593 2.938293 2.722295 2.928994 2.715184 C 2.92079 2.709167 2.912585 2.705339 2.902193 2.704792 C 2.890707 2.705339 2.879767 2.706433 2.869375 2.712449 C 2.856795 2.71956 2.844215 2.72667 2.832181 2.734328 C 2.816319 2.74472 2.801004 2.754565 2.785689 2.764411 C 2.767639 2.775897 2.750683 2.787383 2.733727 2.799964 C 2.714584 2.813638 2.695987 2.827859 2.676296 2.839892 C 2.658793 2.851925 2.640743 2.863412 2.621053 2.872163 C 2.604644 2.878727 2.587688 2.884743 2.570185 2.884743 C 2.554323 2.884196 2.539008 2.880915 2.525881 2.872163 C 2.515488 2.863959 2.507284 2.85466 2.500173 2.843174 C 2.49361 2.832235 2.48814 2.821295 2.484311 2.809809 C 2.478842 2.796682 2.473919 2.784102 2.467902 2.771521 C 2.461339 2.758394 2.454775 2.745267 2.446571 2.732687 C 2.438913 2.722841 2.430162 2.71409 2.418675 2.708073 C 2.407736 2.702604 2.39625 2.699869 2.38367 2.702604 C 2.367808 2.706433 2.353587 2.712996 2.339365 2.720654 C 2.320769 2.730499 2.303266 2.740344 2.285763 2.751284 C 2.267166 2.763317 2.247475 2.774256 2.229425 2.786836 C 2.213016 2.797776 2.196607 2.808715 2.179652 2.819107 C 2.169259 2.826218 2.158867 2.832235 2.147928 2.83661 C 2.113469 2.850284 2.103623 2.826218 2.138082 2.812544 Z M 2.138082 2.812544 " transform="matrix(-3.570838,3.570838,3.570838,3.570838,13.255669,-9.052885)"/>
<path style="fill-rule:nonzero;fill:rgb(94.117647%,89.019608%,92.54902%);fill-opacity:1;stroke-width:0.0742585;stroke-linecap:round;stroke-linejoin:round;stroke:rgb(90.196079%,0.784314%,70.588237%);stroke-opacity:1;stroke-miterlimit:4;" d="M 1.725867 1.336939 L 3.843781 1.336939 C 3.978375 1.336939 4.087442 1.439818 4.087442 1.566676 L 4.087442 3.976209 C 4.087442 4.103067 3.978375 4.20672 3.843781 4.20672 L 1.725867 4.20672 C 1.591274 4.20672 1.482206 4.103067 1.482206 3.976209 L 1.482206 1.566676 C 1.482206 1.439818 1.591274 1.336939 1.725867 1.336939 Z M 1.725867 1.336939 " transform="matrix(-5.049928,0,0,5.049928,22.168629,1.271994)"/>
<path style="fill-rule:nonzero;fill:rgb(94.117647%,89.019608%,92.54902%);fill-opacity:1;stroke-width:0.280662;stroke-linecap:round;stroke-linejoin:round;stroke:rgb(90.196079%,0.784314%,70.588237%);stroke-opacity:1;stroke-miterlimit:4;" d="M 1.817143 1.448326 L 3.752505 1.448326 C 3.875496 1.448326 3.97528 1.54347 3.97528 1.661046 L 3.97528 3.882613 C 3.97528 3.999415 3.875496 4.094559 3.752505 4.094559 L 1.817143 4.094559 C 1.694152 4.094559 1.594368 3.999415 1.594368 3.882613 L 1.594368 1.661046 C 1.594368 1.54347 1.694152 1.448326 1.817143 1.448326 Z M 1.817143 1.448326 " transform="matrix(-5.049928,0,0,5.049928,22.168629,1.271994)"/>
<path style="fill-rule:nonzero;fill:rgb(94.117647%,89.019608%,92.54902%);fill-opacity:1;stroke-width:0.0742585;stroke-linecap:round;stroke-linejoin:round;stroke:rgb(90.196079%,0.784314%,70.588237%);stroke-opacity:1;stroke-miterlimit:4;" d="M 2.138156 2.102729 C 2.146665 2.097315 2.155947 2.091126 2.164456 2.085712 C 2.1807 2.074109 2.196944 2.064053 2.212415 2.05245 C 2.231753 2.040074 2.251091 2.028471 2.270429 2.016094 C 2.28822 2.005265 2.306785 1.995209 2.32535 1.985153 C 2.342367 1.975871 2.359385 1.968909 2.377949 1.965042 C 2.396514 1.961174 2.413532 1.965042 2.430549 1.972777 C 2.44602 1.980512 2.458396 1.992115 2.468452 2.005265 C 2.478508 2.019189 2.486243 2.033886 2.493205 2.049356 C 2.499393 2.062506 2.504034 2.075656 2.509449 2.089579 C 2.513316 2.099635 2.517958 2.109691 2.523372 2.118973 C 2.528787 2.127482 2.534975 2.134444 2.54271 2.139859 C 2.551219 2.145273 2.561275 2.14682 2.571331 2.14682 C 2.584481 2.146047 2.597631 2.141406 2.609234 2.135217 C 2.627798 2.127482 2.644042 2.116653 2.660286 2.10505 C 2.679624 2.093447 2.697416 2.079524 2.71598 2.066374 C 2.733771 2.053224 2.751562 2.040847 2.770127 2.029244 C 2.785598 2.019962 2.801068 2.009906 2.816539 2.000624 C 2.829689 1.992115 2.842838 1.985153 2.856762 1.977418 C 2.870685 1.969683 2.886156 1.967362 2.9024 1.967362 C 2.91787 1.967362 2.93102 1.973551 2.94417 1.982059 C 2.956547 1.990568 2.966603 2.002171 2.975111 2.014547 C 2.982847 2.026924 2.989808 2.040847 2.995997 2.053997 C 3.000638 2.064827 3.005279 2.075656 3.00992 2.085712 C 3.013788 2.095768 3.017655 2.104276 3.024617 2.112012 C 3.029258 2.118973 3.035446 2.124388 3.043955 2.125935 C 3.054785 2.129029 3.065614 2.126709 3.07567 2.123615 C 3.089593 2.118973 3.10197 2.111238 3.114346 2.104276 C 3.127496 2.094994 3.139872 2.084165 3.152249 2.073335 C 3.164625 2.061732 3.176228 2.05013 3.187831 2.037753 C 3.19866 2.027697 3.207943 2.016868 3.218772 2.006812 C 3.227281 1.99753 3.236563 1.989021 3.245845 1.979739 C 3.254354 1.972003 3.262863 1.965042 3.272145 1.958854 C 3.282975 1.951892 3.294578 1.948798 3.306954 1.948024 C 3.320104 1.947251 3.331707 1.951118 3.34331 1.956533 C 3.354139 1.961948 3.362648 1.970456 3.36961 1.980512 C 3.376571 1.989021 3.381986 1.999077 3.386627 2.009133 C 3.390495 2.018415 3.394362 2.027697 3.39823 2.036206 C 3.402098 2.046262 3.406739 2.055544 3.410606 2.064053 C 3.414474 2.071788 3.419115 2.079524 3.422983 2.086485 C 3.426851 2.0919 3.430718 2.097315 3.435359 2.100409 C 3.442321 2.10505 3.448509 2.108144 3.455471 2.111238 C 3.463206 2.113559 3.470942 2.114332 3.478677 2.113559 C 3.487186 2.112785 3.495694 2.109691 3.504203 2.105823 C 3.514259 2.100409 3.523541 2.094221 3.53205 2.086485 C 3.542106 2.077977 3.551388 2.067921 3.560671 2.058638 C 3.569179 2.048583 3.578462 2.040074 3.58697 2.030018 C 3.594706 2.021509 3.602441 2.013 3.610176 2.004492 C 3.617911 1.99753 3.6241 1.989021 3.632608 1.982059 C 3.63957 1.975871 3.647305 1.970456 3.655041 1.964268 C 3.659682 1.961174 3.663549 1.957306 3.668191 1.954212 C 3.697585 1.931007 3.714602 1.951892 3.684435 1.975098 C 3.680567 1.978965 3.675926 1.982059 3.671285 1.985927 C 3.664323 1.991342 3.657361 1.996756 3.6504 2.002945 C 3.642664 2.009133 3.636476 2.016868 3.629514 2.02383 C 3.621779 2.031565 3.614817 2.040074 3.607082 2.048583 C 3.598573 2.058638 3.589291 2.067147 3.581556 2.077203 C 3.5715 2.088032 3.561444 2.098088 3.550615 2.107371 C 3.539785 2.115879 3.528956 2.124388 3.515806 2.130576 C 3.504977 2.135991 3.493374 2.139859 3.480997 2.140632 C 3.468621 2.141406 3.456245 2.140632 3.444642 2.135991 C 3.436133 2.132123 3.427624 2.127482 3.419115 2.122067 C 3.412154 2.115879 3.405192 2.108918 3.399777 2.100409 C 3.395136 2.092674 3.390495 2.084938 3.386627 2.076429 C 3.381986 2.067147 3.377345 2.057865 3.373477 2.047809 C 3.36961 2.038527 3.365742 2.029244 3.361874 2.019962 C 3.358007 2.011453 3.354139 2.003718 3.347951 1.996756 C 3.34331 1.990568 3.338669 1.98438 3.331707 1.980512 C 3.323972 1.977418 3.31701 1.975098 3.308501 1.975098 C 3.300766 1.975098 3.293804 1.976645 3.286842 1.981286 C 3.279107 1.9867 3.272145 1.992889 3.265184 1.999077 C 3.255901 2.008359 3.247393 2.016868 3.23811 2.02615 C 3.228054 2.036206 3.217999 2.047035 3.207943 2.057865 C 3.19634 2.070241 3.183963 2.082618 3.171587 2.094221 C 3.158437 2.106597 3.144514 2.1182 3.129043 2.128256 C 3.114346 2.136764 3.099649 2.145273 3.083405 2.149914 C 3.067935 2.154556 3.05169 2.156876 3.03622 2.152235 C 3.022296 2.148367 3.011467 2.140632 3.002958 2.129803 C 2.995223 2.119747 2.989808 2.109691 2.985167 2.098088 C 2.980526 2.087259 2.975885 2.076429 2.97047 2.0656 C 2.965056 2.053997 2.958867 2.042394 2.952679 2.030791 C 2.945717 2.021509 2.937982 2.012227 2.9287 2.004492 C 2.920965 1.999077 2.912456 1.995209 2.9024 1.995209 C 2.890797 1.995209 2.879968 1.996756 2.869912 2.002171 C 2.856762 2.009133 2.844386 2.016868 2.832009 2.024603 C 2.816539 2.034659 2.801068 2.043941 2.785598 2.053997 C 2.767806 2.0656 2.750015 2.077203 2.733771 2.089579 C 2.715207 2.103503 2.695869 2.117426 2.67653 2.129803 C 2.658739 2.141406 2.640948 2.153009 2.620837 2.161517 C 2.604592 2.168479 2.587575 2.174667 2.569784 2.174667 C 2.554313 2.173894 2.539616 2.1708 2.526466 2.161517 C 2.515637 2.153782 2.507128 2.143726 2.500166 2.132897 C 2.493978 2.122067 2.48779 2.111238 2.483922 2.099635 C 2.478508 2.086485 2.473867 2.074109 2.467678 2.061732 C 2.46149 2.047809 2.455302 2.034659 2.446793 2.022283 C 2.439058 2.013 2.430549 2.003718 2.418946 1.99753 C 2.407343 1.992115 2.396514 1.989795 2.383364 1.992115 C 2.367894 1.995983 2.353197 2.002945 2.339273 2.01068 C 2.320708 2.020736 2.302917 2.030791 2.2859 2.041621 C 2.266562 2.053224 2.247997 2.064053 2.229432 2.076429 C 2.213188 2.088032 2.196171 2.098088 2.179927 2.108918 C 2.169097 2.115879 2.159042 2.122067 2.147439 2.126709 C 2.113404 2.139859 2.104121 2.115879 2.138156 2.101956 Z M 2.138156 2.102729 " transform="matrix(-5.049928,0,0,5.049928,22.168629,1.271994)"/>
<path style="fill-rule:nonzero;fill:rgb(94.117647%,89.019608%,92.54902%);fill-opacity:1;stroke-width:0.0742585;stroke-linecap:round;stroke-linejoin:round;stroke:rgb(90.196079%,0.784314%,70.588237%);stroke-opacity:1;stroke-miterlimit:4;" d="M 2.138156 2.482531 C 2.146665 2.477889 2.155947 2.471701 2.164456 2.466287 C 2.1807 2.454684 2.196944 2.444628 2.212415 2.433025 C 2.231753 2.420649 2.251091 2.408272 2.270429 2.396669 C 2.28822 2.38584 2.306785 2.375784 2.32535 2.365728 C 2.342367 2.356446 2.359385 2.349484 2.377949 2.345616 C 2.396514 2.341749 2.413532 2.344843 2.430549 2.353352 C 2.44602 2.361087 2.458396 2.37269 2.468452 2.38584 C 2.478508 2.399763 2.486243 2.41446 2.493205 2.429931 C 2.499393 2.443081 2.504034 2.456231 2.509449 2.470154 C 2.513316 2.48021 2.517958 2.490266 2.523372 2.499548 C 2.528787 2.508057 2.534975 2.515019 2.54271 2.520433 C 2.551219 2.525848 2.561275 2.527395 2.571331 2.527395 C 2.584481 2.526622 2.597631 2.521207 2.609234 2.515792 C 2.627798 2.508057 2.644042 2.497228 2.660286 2.485625 C 2.679624 2.474022 2.697416 2.460098 2.71598 2.446948 C 2.733771 2.433798 2.751562 2.421422 2.770127 2.409819 C 2.785598 2.400537 2.801068 2.390481 2.816539 2.381199 C 2.829689 2.37269 2.842838 2.365728 2.856762 2.357993 C 2.870685 2.350258 2.886156 2.347937 2.9024 2.347937 C 2.91787 2.347937 2.93102 2.354125 2.94417 2.362634 C 2.956547 2.371143 2.966603 2.382746 2.975111 2.395122 C 2.982847 2.407499 2.989808 2.421422 2.995997 2.434572 C 3.000638 2.445401 3.005279 2.456231 3.00992 2.466287 C 3.013788 2.475569 3.017655 2.484851 3.024617 2.492586 C 3.029258 2.499548 3.035446 2.504963 3.043955 2.50651 C 3.054785 2.509604 3.065614 2.507283 3.07567 2.504189 C 3.089593 2.499548 3.10197 2.491813 3.114346 2.484851 C 3.127496 2.475569 3.139872 2.464739 3.152249 2.45391 C 3.164625 2.442307 3.176228 2.429931 3.187831 2.418328 C 3.19866 2.408272 3.207943 2.397443 3.218772 2.386613 C 3.227281 2.378105 3.236563 2.368822 3.245845 2.360313 C 3.254354 2.352578 3.262863 2.345616 3.272145 2.339428 C 3.282975 2.332467 3.294578 2.329372 3.306954 2.328599 C 3.320104 2.327825 3.331707 2.331693 3.34331 2.337108 C 3.354139 2.342522 3.362648 2.351031 3.36961 2.361087 C 3.376571 2.369596 3.381986 2.379652 3.386627 2.389707 C 3.390495 2.39899 3.394362 2.408272 3.39823 2.416781 C 3.402098 2.426837 3.406739 2.436119 3.410606 2.444628 C 3.414474 2.452363 3.419115 2.460098 3.422983 2.46706 C 3.426851 2.472475 3.430718 2.477889 3.435359 2.480984 C 3.442321 2.485625 3.448509 2.488719 3.455471 2.491813 C 3.463206 2.494133 3.470942 2.494907 3.478677 2.494133 C 3.487186 2.49336 3.495694 2.490266 3.504203 2.486398 C 3.514259 2.480984 3.523541 2.474795 3.53205 2.46706 C 3.542106 2.458551 3.551388 2.448495 3.560671 2.43844 C 3.569179 2.429157 3.578462 2.420649 3.58697 2.410593 C 3.594706 2.402084 3.602441 2.393575 3.610176 2.385066 C 3.617911 2.378105 3.6241 2.369596 3.632608 2.362634 C 3.63957 2.356446 3.647305 2.351031 3.655041 2.344843 C 3.659682 2.341749 3.663549 2.337881 3.668191 2.334787 C 3.697585 2.311581 3.714602 2.332467 3.684435 2.355672 C 3.680567 2.35954 3.675926 2.362634 3.671285 2.366502 C 3.664323 2.371916 3.657361 2.377331 3.6504 2.383519 C 3.642664 2.389707 3.636476 2.397443 3.629514 2.404404 C 3.621779 2.41214 3.614817 2.420649 3.607082 2.429157 C 3.598573 2.43844 3.589291 2.447722 3.581556 2.457778 C 3.5715 2.467834 3.561444 2.478663 3.550615 2.487945 C 3.539785 2.496454 3.528956 2.504963 3.515806 2.511151 C 3.504977 2.516566 3.493374 2.520433 3.480997 2.521207 C 3.468621 2.52198 3.456245 2.521207 3.444642 2.516566 C 3.436133 2.512698 3.427624 2.508057 3.419115 2.502642 C 3.412154 2.496454 3.405192 2.489492 3.399777 2.480984 C 3.395136 2.473248 3.390495 2.465513 3.386627 2.457004 C 3.381986 2.447722 3.377345 2.43844 3.373477 2.428384 C 3.36961 2.419101 3.365742 2.409819 3.361874 2.400537 C 3.358007 2.392028 3.354139 2.384293 3.347951 2.377331 C 3.34331 2.371143 3.338669 2.364955 3.331707 2.361087 C 3.323972 2.357219 3.31701 2.355672 3.308501 2.355672 C 3.300766 2.355672 3.293804 2.357219 3.286842 2.361861 C 3.279107 2.367275 3.272145 2.373463 3.265184 2.379652 C 3.255901 2.388934 3.247393 2.397443 3.23811 2.406725 C 3.228054 2.416781 3.217999 2.42761 3.207943 2.43844 C 3.19634 2.450816 3.183963 2.463192 3.171587 2.474795 C 3.158437 2.487172 3.144514 2.498775 3.129043 2.50883 C 3.114346 2.517339 3.099649 2.525848 3.083405 2.530489 C 3.067935 2.53513 3.05169 2.537451 3.03622 2.53281 C 3.022296 2.528942 3.011467 2.521207 3.002958 2.509604 C 2.995223 2.500322 2.989808 2.489492 2.985167 2.478663 C 2.980526 2.467834 2.975885 2.457004 2.97047 2.446175 C 2.965056 2.434572 2.958867 2.422196 2.952679 2.411366 C 2.945717 2.402084 2.937982 2.392802 2.9287 2.385066 C 2.920965 2.379652 2.912456 2.375784 2.9024 2.375784 C 2.890797 2.375784 2.879968 2.377331 2.869912 2.382746 C 2.856762 2.389707 2.844386 2.397443 2.832009 2.404404 C 2.816539 2.415234 2.801068 2.424516 2.785598 2.434572 C 2.767806 2.446175 2.750015 2.457778 2.733771 2.470154 C 2.715207 2.484078 2.695869 2.498001 2.67653 2.510378 C 2.658739 2.52198 2.640948 2.533583 2.620837 2.542092 C 2.604592 2.549054 2.587575 2.555242 2.569784 2.555242 C 2.554313 2.554468 2.539616 2.551374 2.526466 2.542092 C 2.515637 2.534357 2.507128 2.524301 2.500166 2.513472 C 2.493978 2.502642 2.48779 2.491813 2.483922 2.48021 C 2.478508 2.46706 2.473867 2.454684 2.467678 2.442307 C 2.46149 2.428384 2.455302 2.415234 2.446793 2.402857 C 2.439058 2.392802 2.430549 2.384293 2.418946 2.378105 C 2.407343 2.37269 2.396514 2.370369 2.383364 2.37269 C 2.367894 2.376558 2.353197 2.383519 2.339273 2.391255 C 2.320708 2.40131 2.302917 2.411366 2.2859 2.421422 C 2.266562 2.433798 2.247997 2.444628 2.229432 2.457004 C 2.213188 2.468607 2.196171 2.478663 2.179927 2.489492 C 2.169097 2.496454 2.159042 2.502642 2.147439 2.507283 C 2.113404 2.520433 2.104121 2.496454 2.138156 2.482531 Z M 2.138156 2.482531 " transform="matrix(-5.049928,0,0,5.049928,22.168629,1.271994)"/>
<path style="fill-rule:nonzero;fill:rgb(94.117647%,89.019608%,92.54902%);fill-opacity:1;stroke-width:0.0742585;stroke-linecap:round;stroke-linejoin:round;stroke:rgb(90.196079%,0.784314%,70.588237%);stroke-opacity:1;stroke-miterlimit:4;" d="M 2.138156 2.812826 C 2.146665 2.807411 2.155947 2.801997 2.164456 2.795809 C 2.1807 2.784979 2.196944 2.77415 2.212415 2.762547 C 2.231753 2.750171 2.251091 2.738568 2.270429 2.726191 C 2.28822 2.715362 2.306785 2.705306 2.32535 2.69525 C 2.342367 2.686741 2.359385 2.679006 2.377949 2.675139 C 2.396514 2.671271 2.413532 2.675139 2.430549 2.682874 C 2.44602 2.690609 2.458396 2.702212 2.468452 2.715362 C 2.478508 2.729285 2.486243 2.744756 2.493205 2.759453 C 2.499393 2.772603 2.504034 2.786526 2.509449 2.799676 C 2.513316 2.810506 2.517958 2.819788 2.523372 2.82907 C 2.528787 2.837579 2.534975 2.844541 2.54271 2.850729 C 2.551219 2.85537 2.561275 2.856917 2.571331 2.856917 C 2.584481 2.856917 2.597631 2.851502 2.609234 2.846088 C 2.627798 2.837579 2.644042 2.82675 2.660286 2.81592 C 2.679624 2.803544 2.697416 2.78962 2.71598 2.77647 C 2.733771 2.76332 2.751562 2.750944 2.770127 2.740115 C 2.785598 2.730059 2.801068 2.720777 2.816539 2.710721 C 2.829689 2.702985 2.842838 2.69525 2.856762 2.688288 C 2.870685 2.67978 2.886156 2.677459 2.9024 2.677459 C 2.91787 2.677459 2.93102 2.683647 2.94417 2.692156 C 2.956547 2.700665 2.966603 2.713041 2.975111 2.725418 C 2.982847 2.737794 2.989808 2.750944 2.995997 2.764094 C 3.000638 2.774923 3.005279 2.785753 3.00992 2.796582 C 3.013788 2.805864 3.017655 2.814373 3.024617 2.822882 C 3.029258 2.829844 3.035446 2.834485 3.043955 2.836805 C 3.054785 2.839126 3.065614 2.836805 3.07567 2.833711 C 3.089593 2.82907 3.10197 2.822108 3.114346 2.814373 C 3.127496 2.805091 3.139872 2.795035 3.152249 2.783432 C 3.164625 2.771829 3.176228 2.760226 3.187831 2.74785 C 3.19866 2.737794 3.207943 2.726965 3.218772 2.716909 C 3.227281 2.707627 3.236563 2.699118 3.245845 2.689836 C 3.254354 2.6821 3.262863 2.675139 3.272145 2.66895 C 3.282975 2.661989 3.294578 2.658894 3.306954 2.658121 C 3.320104 2.658121 3.331707 2.661215 3.34331 2.66663 C 3.354139 2.672044 3.362648 2.681327 3.36961 2.690609 C 3.376571 2.699118 3.381986 2.709174 3.386627 2.71923 C 3.390495 2.728512 3.394362 2.737794 3.39823 2.747076 C 3.402098 2.756359 3.406739 2.765641 3.410606 2.774923 C 3.414474 2.782659 3.419115 2.78962 3.422983 2.796582 C 3.426851 2.801997 3.430718 2.807411 3.435359 2.810506 C 3.442321 2.815147 3.448509 2.819014 3.455471 2.822108 C 3.463206 2.824429 3.470942 2.824429 3.478677 2.823656 C 3.487186 2.823656 3.495694 2.819788 3.504203 2.81592 C 3.514259 2.811279 3.523541 2.804317 3.53205 2.796582 C 3.542106 2.788073 3.551388 2.778791 3.560671 2.768735 C 3.569179 2.758679 3.578462 2.750171 3.58697 2.740888 C 3.594706 2.732379 3.602441 2.723097 3.610176 2.714588 C 3.617911 2.707627 3.6241 2.699891 3.632608 2.692156 C 3.63957 2.686741 3.647305 2.680553 3.655041 2.675139 C 3.659682 2.671271 3.663549 2.668177 3.668191 2.664309 C 3.697585 2.641103 3.714602 2.661989 3.684435 2.685194 C 3.680567 2.689062 3.675926 2.69293 3.671285 2.696024 C 3.664323 2.701438 3.657361 2.706853 3.6504 2.713041 C 3.642664 2.71923 3.636476 2.726965 3.629514 2.733927 C 3.621779 2.741662 3.614817 2.750944 3.607082 2.758679 C 3.598573 2.768735 3.589291 2.777244 3.581556 2.7873 C 3.5715 2.798129 3.561444 2.808185 3.550615 2.817467 C 3.539785 2.82675 3.528956 2.834485 3.515806 2.840673 C 3.504977 2.846088 3.493374 2.849955 3.480997 2.850729 C 3.468621 2.852276 3.456245 2.850729 3.444642 2.846088 C 3.436133 2.84222 3.427624 2.838353 3.419115 2.832164 C 3.412154 2.825976 3.405192 2.819014 3.399777 2.810506 C 3.395136 2.80277 3.390495 2.795035 3.386627 2.786526 C 3.381986 2.777244 3.377345 2.767962 3.373477 2.757906 C 3.36961 2.748624 3.365742 2.739341 3.361874 2.730059 C 3.358007 2.722324 3.354139 2.713815 3.347951 2.706853 C 3.34331 2.700665 3.338669 2.69525 3.331707 2.690609 C 3.323972 2.687515 3.31701 2.685194 3.308501 2.685194 C 3.300766 2.685968 3.293804 2.686741 3.286842 2.692156 C 3.279107 2.696797 3.272145 2.702985 3.265184 2.709174 C 3.255901 2.718456 3.247393 2.727738 3.23811 2.736247 C 3.228054 2.747076 3.217999 2.757906 3.207943 2.767962 C 3.19634 2.780338 3.183963 2.792714 3.171587 2.804317 C 3.158437 2.816694 3.144514 2.828297 3.129043 2.838353 C 3.114346 2.846861 3.099649 2.85537 3.083405 2.860785 C 3.067935 2.864652 3.05169 2.866973 3.03622 2.863105 C 3.022296 2.858464 3.011467 2.851502 3.002958 2.8399 C 2.995223 2.829844 2.989808 2.819788 2.985167 2.808185 C 2.980526 2.797356 2.975885 2.786526 2.97047 2.775697 C 2.965056 2.764094 2.958867 2.752491 2.952679 2.740888 C 2.945717 2.731606 2.937982 2.722324 2.9287 2.715362 C 2.920965 2.709174 2.912456 2.705306 2.9024 2.705306 C 2.890797 2.705306 2.879968 2.706853 2.869912 2.712268 C 2.856762 2.71923 2.844386 2.726965 2.832009 2.7347 C 2.816539 2.744756 2.801068 2.754812 2.785598 2.764094 C 2.767806 2.775697 2.750015 2.7873 2.733771 2.799676 C 2.715207 2.8136 2.695869 2.827523 2.67653 2.8399 C 2.658739 2.851502 2.640948 2.863879 2.620837 2.872388 C 2.604592 2.878576 2.587575 2.884764 2.569784 2.884764 C 2.554313 2.883991 2.539616 2.880896 2.526466 2.872388 C 2.515637 2.863879 2.507128 2.854597 2.500166 2.842994 C 2.493978 2.832164 2.48779 2.821335 2.483922 2.809732 C 2.478508 2.797356 2.473867 2.784206 2.467678 2.771829 C 2.46149 2.758679 2.455302 2.744756 2.446793 2.733153 C 2.439058 2.723097 2.430549 2.713815 2.418946 2.7084 C 2.407343 2.702985 2.396514 2.700665 2.383364 2.702985 C 2.367894 2.70608 2.353197 2.713041 2.339273 2.720777 C 2.320708 2.730832 2.302917 2.740888 2.2859 2.751718 C 2.266562 2.76332 2.247997 2.77415 2.229432 2.7873 C 2.213188 2.798129 2.196171 2.808959 2.179927 2.819014 C 2.169097 2.825976 2.159042 2.832164 2.147439 2.836805 C 2.113404 2.850729 2.104121 2.825976 2.138156 2.812826 Z M 2.138156 2.812826 " transform="matrix(-5.049928,0,0,5.049928,22.168629,1.271994)"/>
<use xlink:href="#surface5" mask="url(#mask0)"/>
<path style=" stroke:none;fill-rule:nonzero;fill:rgb(33.333334%,33.333334%,33.333334%);fill-opacity:1;" d="M 4.953125 23.15625 C 5.515625 23.4375 6.023438 23.691406 6.613281 23.984375 C 7.195312 22.726562 17.597656 2.03125 18.144531 0.84375 C 17.582031 0.5625 17.078125 0.308594 16.488281 0.015625 C 15.90625 1.273438 5.5 21.972656 4.953125 23.15625 Z M 4.953125 23.15625 "/>
</g>
</svg>
