<?xml version="1.0" encoding="UTF-8"?>
<svg xmlns="http://www.w3.org/2000/svg" xmlns:xlink="http://www.w3.org/1999/xlink" width="24px" height="24px" viewBox="0 0 24 24" version="1.1">
<defs>
<filter id="alpha" filterUnits="objectBoundingBox" x="0%" y="0%" width="100%" height="100%">
  <feColorMatrix type="matrix" in="SourceGraphic" values="0 0 0 0 1 0 0 0 0 1 0 0 0 0 1 0 0 0 1 0"/>
</filter>
<mask id="mask0">
  <g filter="url(#alpha)">
<rect x="0" y="0" width="24" height="24" style="fill:rgb(0%,0%,0%);fill-opacity:0.57;stroke:none;"/>
  </g>
</mask>
<clipPath id="clip1">
  <rect x="0" y="0" width="24" height="24"/>
</clipPath>
<g id="surface5" clip-path="url(#clip1)">
<path style=" stroke:none;fill-rule:nonzero;fill:rgb(32.156864%,32.156864%,32.156864%);fill-opacity:1;" d="M 1.5 1.460938 L 1.5 19.5 L 8.355469 19.5 L 16.847656 3.25 L 17.492188 1.480469 Z M 1.5 1.460938 "/>
</g>
</defs>
<g id="surface1">
<path style=" stroke:none;fill-rule:nonzero;fill:rgb(61.56863%,22.745098%,60.784316%);fill-opacity:1;" d="M 1.5 2.71875 L 22.5 2.71875 L 22.5 19.78125 L 1.5 19.78125 Z M 1.5 2.71875 "/>
<path style=" stroke:none;fill-rule:nonzero;fill:rgb(94.117647%,89.019608%,92.54902%);fill-opacity:1;" d="M 1.5 1.496094 L 22.5 1.496094 L 22.5 16.496094 L 1.5 16.496094 Z M 1.5 1.496094 "/>
<path style=" stroke:none;fill-rule:nonzero;fill:rgb(95.294118%,71.764708%,85.09804%);fill-opacity:1;" d="M 1.707031 1.496094 L 1.707031 16.496094 L 22.398438 16.496094 L 22.398438 1.496094 Z M 3 2.246094 L 8.171875 2.246094 L 8.171875 5.996094 L 3 5.996094 Z M 9.464844 2.246094 L 14.640625 2.246094 L 14.640625 5.996094 L 9.464844 5.996094 Z M 15.933594 2.246094 L 21.105469 2.246094 L 21.105469 5.996094 L 15.933594 5.996094 Z M 3 6.746094 L 8.171875 6.746094 L 8.171875 10.496094 L 3 10.496094 Z M 9.464844 6.746094 L 14.640625 6.746094 L 14.640625 10.496094 L 9.464844 10.496094 Z M 15.933594 6.746094 L 21.105469 6.746094 L 21.105469 10.496094 L 15.933594 10.496094 Z M 3 11.246094 L 8.171875 11.246094 L 8.171875 16.179688 L 3 16.179688 Z M 9.464844 11.246094 L 14.640625 11.246094 L 14.640625 16.179688 L 9.464844 16.179688 Z M 15.933594 11.246094 L 21.105469 11.246094 L 21.105469 16.179688 L 15.933594 16.179688 Z M 15.933594 11.246094 "/>
<path style=" stroke:none;fill-rule:nonzero;fill:rgb(94.117647%,89.019608%,92.54902%);fill-opacity:1;" d="M 9 1.496094 L 15 1.496094 L 15 16.496094 L 9 16.496094 Z M 9 1.496094 "/>
<path style=" stroke:none;fill-rule:nonzero;fill:rgb(90.196079%,0.784314%,70.588237%);fill-opacity:1;" d="M 7.5 1.496094 L 7.5 16.496094 L 16.5 16.496094 L 16.5 1.496094 Z M 9 2.246094 L 15 2.246094 L 15 5.996094 L 9 5.996094 Z M 9 6.746094 L 15 6.746094 L 15 10.496094 L 9 10.496094 Z M 9 11.246094 L 15 11.246094 L 15 16.179688 L 9 16.179688 Z M 9 11.246094 "/>
<use xlink:href="#surface5" mask="url(#mask0)"/>
<path style=" stroke:none;fill-rule:nonzero;fill:rgb(33.333334%,33.333334%,33.333334%);fill-opacity:1;" d="M 5.09375 23.171875 C 5.65625 23.453125 6.164062 23.707031 6.753906 24 C 7.335938 22.738281 17.738281 2.019531 18.285156 0.828125 C 17.722656 0.546875 17.21875 0.292969 16.628906 0 C 16.046875 1.261719 5.640625 21.984375 5.09375 23.171875 Z M 5.09375 23.171875 "/>
</g>
</svg>
