<?xml version="1.0" encoding="UTF-8"?>
<svg xmlns="http://www.w3.org/2000/svg" xmlns:xlink="http://www.w3.org/1999/xlink" width="24px" height="24px" viewBox="0 0 24 24" version="1.1">
<g id="surface1">
<path style=" stroke:none;fill-rule:nonzero;fill:rgb(90.196079%,0.784314%,70.588237%);fill-opacity:1;" d="M 22.5 12.695312 L 22.5 12.804688 C 22.5 13.1875 22.164062 13.5 21.75 13.5 L 2.25 13.5 C 1.835938 13.5 1.5 13.1875 1.5 12.804688 L 1.5 12.695312 C 1.5 12.3125 1.835938 12 2.25 12 L 21.75 12 C 22.164062 12 22.5 12.3125 22.5 12.695312 Z M 22.5 12.695312 "/>
<path style=" stroke:none;fill-rule:nonzero;fill:rgb(95.294118%,71.764708%,85.09804%);fill-opacity:1;" d="M 2.121094 10.5 L 5.378906 10.5 C 5.722656 10.5 6 10.195312 6 9.820312 L 6 9.679688 C 6 9.304688 5.722656 9 5.378906 9 L 2.121094 9 C 1.777344 9 1.5 9.304688 1.5 9.679688 L 1.5 9.820312 C 1.5 10.195312 1.777344 10.5 2.121094 10.5 Z M 2.121094 10.5 "/>
<path style=" stroke:none;fill-rule:nonzero;fill:rgb(95.294118%,71.764708%,85.09804%);fill-opacity:1;" d="M 7.371094 10.5 L 10.628906 10.5 C 10.972656 10.5 11.25 10.195312 11.25 9.820312 L 11.25 9.679688 C 11.25 9.304688 10.972656 9 10.628906 9 L 7.371094 9 C 7.027344 9 6.75 9.304688 6.75 9.679688 L 6.75 9.820312 C 6.75 10.195312 7.027344 10.5 7.371094 10.5 Z M 7.371094 10.5 "/>
<path style=" stroke:none;fill-rule:nonzero;fill:rgb(95.294118%,71.764708%,85.09804%);fill-opacity:1;" d="M 13.371094 10.5 L 16.628906 10.5 C 16.972656 10.5 17.25 10.195312 17.25 9.820312 L 17.25 9.679688 C 17.25 9.304688 16.972656 9 16.628906 9 L 13.371094 9 C 13.027344 9 12.75 9.304688 12.75 9.679688 L 12.75 9.820312 C 12.75 10.195312 13.027344 10.5 13.371094 10.5 Z M 13.371094 10.5 "/>
<path style=" stroke:none;fill-rule:nonzero;fill:rgb(95.294118%,71.764708%,85.09804%);fill-opacity:1;" d="M 18.621094 10.5 L 21.878906 10.5 C 22.222656 10.5 22.5 10.195312 22.5 9.820312 L 22.5 9.679688 C 22.5 9.304688 22.222656 9 21.878906 9 L 18.621094 9 C 18.277344 9 18 9.304688 18 9.679688 L 18 9.820312 C 18 10.195312 18.277344 10.5 18.621094 10.5 Z M 18.621094 10.5 "/>
<path style=" stroke:none;fill-rule:nonzero;fill:rgb(95.294118%,71.764708%,85.09804%);fill-opacity:1;" d="M 2.121094 7.5 L 6.878906 7.5 C 7.222656 7.5 7.5 7.195312 7.5 6.820312 L 7.5 6.679688 C 7.5 6.304688 7.222656 6 6.878906 6 L 2.121094 6 C 1.777344 6 1.5 6.304688 1.5 6.679688 L 1.5 6.820312 C 1.5 7.195312 1.777344 7.5 2.121094 7.5 Z M 2.121094 7.5 "/>
<path style=" stroke:none;fill-rule:nonzero;fill:rgb(95.294118%,71.764708%,85.09804%);fill-opacity:1;" d="M 8.871094 7.5 L 13.628906 7.5 C 13.972656 7.5 14.25 7.195312 14.25 6.820312 L 14.25 6.679688 C 14.25 6.304688 13.972656 6 13.628906 6 L 8.871094 6 C 8.527344 6 8.25 6.304688 8.25 6.679688 L 8.25 6.820312 C 8.25 7.195312 8.527344 7.5 8.871094 7.5 Z M 8.871094 7.5 "/>
<path style=" stroke:none;fill-rule:nonzero;fill:rgb(95.294118%,71.764708%,85.09804%);fill-opacity:1;" d="M 15.621094 7.5 L 21.878906 7.5 C 22.222656 7.5 22.5 7.195312 22.5 6.820312 L 22.5 6.679688 C 22.5 6.304688 22.222656 6 21.878906 6 L 15.621094 6 C 15.277344 6 15 6.304688 15 6.679688 L 15 6.820312 C 15 7.195312 15.277344 7.5 15.621094 7.5 Z M 15.621094 7.5 "/>
<path style=" stroke:none;fill-rule:nonzero;fill:rgb(95.294118%,71.764708%,85.09804%);fill-opacity:1;" d="M 2.121094 4.5 L 6.878906 4.5 C 7.222656 4.5 7.5 4.195312 7.5 3.820312 L 7.5 3.679688 C 7.5 3.304688 7.222656 3 6.878906 3 L 2.121094 3 C 1.777344 3 1.5 3.304688 1.5 3.679688 L 1.5 3.820312 C 1.5 4.195312 1.777344 4.5 2.121094 4.5 Z M 2.121094 4.5 "/>
<path style=" stroke:none;fill-rule:nonzero;fill:rgb(95.294118%,71.764708%,85.09804%);fill-opacity:1;" d="M 8.871094 4.5 L 13.628906 4.5 C 13.972656 4.5 14.25 4.195312 14.25 3.820312 L 14.25 3.679688 C 14.25 3.304688 13.972656 3 13.628906 3 L 8.871094 3 C 8.527344 3 8.25 3.304688 8.25 3.679688 L 8.25 3.820312 C 8.25 4.195312 8.527344 4.5 8.871094 4.5 Z M 8.871094 4.5 "/>
<path style=" stroke:none;fill-rule:nonzero;fill:rgb(95.294118%,71.764708%,85.09804%);fill-opacity:1;" d="M 15.621094 4.5 L 21.878906 4.5 C 22.222656 4.5 22.5 4.195312 22.5 3.820312 L 22.5 3.679688 C 22.5 3.304688 22.222656 3 21.878906 3 L 15.621094 3 C 15.277344 3 15 3.304688 15 3.679688 L 15 3.820312 C 15 4.195312 15.277344 4.5 15.621094 4.5 Z M 15.621094 4.5 "/>
<path style=" stroke:none;fill-rule:nonzero;fill:rgb(95.294118%,71.764708%,85.09804%);fill-opacity:1;" d="M 2.121094 15 L 5.378906 15 C 5.722656 15 6 15.304688 6 15.679688 L 6 15.820312 C 6 16.195312 5.722656 16.5 5.378906 16.5 L 2.121094 16.5 C 1.777344 16.5 1.5 16.195312 1.5 15.820312 L 1.5 15.679688 C 1.5 15.304688 1.777344 15 2.121094 15 Z M 2.121094 15 "/>
<path style=" stroke:none;fill-rule:nonzero;fill:rgb(95.294118%,71.764708%,85.09804%);fill-opacity:1;" d="M 7.371094 15 L 10.628906 15 C 10.972656 15 11.25 15.304688 11.25 15.679688 L 11.25 15.820312 C 11.25 16.195312 10.972656 16.5 10.628906 16.5 L 7.371094 16.5 C 7.027344 16.5 6.75 16.195312 6.75 15.820312 L 6.75 15.679688 C 6.75 15.304688 7.027344 15 7.371094 15 Z M 7.371094 15 "/>
<path style=" stroke:none;fill-rule:nonzero;fill:rgb(95.294118%,71.764708%,85.09804%);fill-opacity:1;" d="M 13.371094 15 L 16.628906 15 C 16.972656 15 17.25 15.304688 17.25 15.679688 L 17.25 15.820312 C 17.25 16.195312 16.972656 16.5 16.628906 16.5 L 13.371094 16.5 C 13.027344 16.5 12.75 16.195312 12.75 15.820312 L 12.75 15.679688 C 12.75 15.304688 13.027344 15 13.371094 15 Z M 13.371094 15 "/>
<path style=" stroke:none;fill-rule:nonzero;fill:rgb(95.294118%,71.764708%,85.09804%);fill-opacity:1;" d="M 18.621094 15 L 21.878906 15 C 22.222656 15 22.5 15.304688 22.5 15.679688 L 22.5 15.820312 C 22.5 16.195312 22.222656 16.5 21.878906 16.5 L 18.621094 16.5 C 18.277344 16.5 18 16.195312 18 15.820312 L 18 15.679688 C 18 15.304688 18.277344 15 18.621094 15 Z M 18.621094 15 "/>
<path style=" stroke:none;fill-rule:nonzero;fill:rgb(95.294118%,71.764708%,85.09804%);fill-opacity:1;" d="M 2.121094 18 L 6.878906 18 C 7.222656 18 7.5 18.304688 7.5 18.679688 L 7.5 18.820312 C 7.5 19.195312 7.222656 19.5 6.878906 19.5 L 2.121094 19.5 C 1.777344 19.5 1.5 19.195312 1.5 18.820312 L 1.5 18.679688 C 1.5 18.304688 1.777344 18 2.121094 18 Z M 2.121094 18 "/>
<path style=" stroke:none;fill-rule:nonzero;fill:rgb(95.294118%,71.764708%,85.09804%);fill-opacity:1;" d="M 8.871094 18 L 13.628906 18 C 13.972656 18 14.25 18.304688 14.25 18.679688 L 14.25 18.820312 C 14.25 19.195312 13.972656 19.5 13.628906 19.5 L 8.871094 19.5 C 8.527344 19.5 8.25 19.195312 8.25 18.820312 L 8.25 18.679688 C 8.25 18.304688 8.527344 18 8.871094 18 Z M 8.871094 18 "/>
<path style=" stroke:none;fill-rule:nonzero;fill:rgb(95.294118%,71.764708%,85.09804%);fill-opacity:1;" d="M 15.621094 18 L 21.878906 18 C 22.222656 18 22.5 18.304688 22.5 18.679688 L 22.5 18.820312 C 22.5 19.195312 22.222656 19.5 21.878906 19.5 L 15.621094 19.5 C 15.277344 19.5 15 19.195312 15 18.820312 L 15 18.679688 C 15 18.304688 15.277344 18 15.621094 18 Z M 15.621094 18 "/>
<path style=" stroke:none;fill-rule:nonzero;fill:rgb(95.294118%,71.764708%,85.09804%);fill-opacity:1;" d="M 2.121094 21 L 6.878906 21 C 7.222656 21 7.5 21.304688 7.5 21.679688 L 7.5 21.820312 C 7.5 22.195312 7.222656 22.5 6.878906 22.5 L 2.121094 22.5 C 1.777344 22.5 1.5 22.195312 1.5 21.820312 L 1.5 21.679688 C 1.5 21.304688 1.777344 21 2.121094 21 Z M 2.121094 21 "/>
<path style=" stroke:none;fill-rule:nonzero;fill:rgb(95.294118%,71.764708%,85.09804%);fill-opacity:1;" d="M 8.871094 21 L 13.628906 21 C 13.972656 21 14.25 21.304688 14.25 21.679688 L 14.25 21.820312 C 14.25 22.195312 13.972656 22.5 13.628906 22.5 L 8.871094 22.5 C 8.527344 22.5 8.25 22.195312 8.25 21.820312 L 8.25 21.679688 C 8.25 21.304688 8.527344 21 8.871094 21 Z M 8.871094 21 "/>
<path style=" stroke:none;fill-rule:nonzero;fill:rgb(95.294118%,71.764708%,85.09804%);fill-opacity:1;" d="M 15.621094 21 L 21.878906 21 C 22.222656 21 22.5 21.304688 22.5 21.679688 L 22.5 21.820312 C 22.5 22.195312 22.222656 22.5 21.878906 22.5 L 15.621094 22.5 C 15.277344 22.5 15 22.195312 15 21.820312 L 15 21.679688 C 15 21.304688 15.277344 21 15.621094 21 Z M 15.621094 21 "/>
</g>
</svg>
