<?xml version="1.0" encoding="UTF-8"?>
<svg xmlns="http://www.w3.org/2000/svg" xmlns:xlink="http://www.w3.org/1999/xlink" width="24px" height="24px" viewBox="0 0 24 24" version="1.1">
<g id="surface1">
<path style=" stroke:none;fill-rule:nonzero;fill:rgb(95.294118%,71.764708%,85.09804%);fill-opacity:1;" d="M 3.75 1.5 C 3.621094 1.722656 1.5 5.25 1.5 5.25 L 3 5.25 L 3 21 L 4.5 21 L 4.5 5.25 L 6 5.25 Z M 3.75 1.5 "/>
<path style=" stroke:none;fill-rule:nonzero;fill:rgb(90.196079%,0.784314%,70.588237%);fill-opacity:1;" d="M 1.5 16.5 L 4.5 16.5 L 4.5 18 L 1.5 18 Z M 1.5 16.5 "/>
<path style=" stroke:none;fill-rule:nonzero;fill:rgb(95.294118%,71.764708%,85.09804%);fill-opacity:1;" d="M 22.5 20.53125 L 18.75 22.5 L 18.75 21 L 3.75 21 L 3.75 19.5 L 18.75 19.5 L 18.75 18 Z M 22.5 20.53125 "/>
<path style=" stroke:none;fill-rule:nonzero;fill:rgb(90.196079%,0.784314%,70.588237%);fill-opacity:1;" d="M 6 22.5 L 6 19.5 L 7.5 19.5 L 7.5 22.5 Z M 6 22.5 "/>
<path style=" stroke:none;fill-rule:nonzero;fill:rgb(90.196079%,0.784314%,70.588237%);fill-opacity:1;" d="M 10.5 22.5 L 10.5 19.5 L 12 19.5 L 12 22.5 Z M 10.5 22.5 "/>
<path style=" stroke:none;fill-rule:nonzero;fill:rgb(90.196079%,0.784314%,70.588237%);fill-opacity:1;" d="M 15 22.5 L 15 19.5 L 16.5 19.5 L 16.5 22.5 Z M 15 22.5 "/>
<path style=" stroke:none;fill-rule:nonzero;fill:rgb(90.196079%,0.784314%,70.588237%);fill-opacity:1;" d="M 1.5 12 L 4.5 12 L 4.5 13.5 L 1.5 13.5 Z M 1.5 12 "/>
<path style=" stroke:none;fill-rule:nonzero;fill:rgb(90.196079%,0.784314%,70.588237%);fill-opacity:1;" d="M 1.5 7.5 L 4.5 7.5 L 4.5 9 L 1.5 9 Z M 1.5 7.5 "/>
<path style=" stroke:none;fill-rule:nonzero;fill:rgb(90.196079%,0.784314%,70.588237%);fill-opacity:1;" d="M 7.191406 9 L 9.308594 9 C 9.964844 9 10.5 9.535156 10.5 10.191406 L 10.5 18.308594 C 10.5 18.964844 9.964844 19.5 9.308594 19.5 L 7.191406 19.5 C 6.535156 19.5 6 18.964844 6 18.308594 L 6 10.191406 C 6 9.535156 6.535156 9 7.191406 9 Z M 7.191406 9 "/>
<path style=" stroke:none;fill-rule:nonzero;fill:rgb(94.117647%,89.019608%,92.54902%);fill-opacity:1;" d="M 7.832031 10.6875 L 8.667969 10.6875 C 8.851562 10.6875 9 10.835938 9 11.019531 L 9 17.667969 C 9 17.851562 8.851562 18 8.667969 18 L 7.832031 18 C 7.648438 18 7.5 17.851562 7.5 17.667969 L 7.5 11.019531 C 7.5 10.835938 7.648438 10.6875 7.832031 10.6875 Z M 7.832031 10.6875 "/>
<path style=" stroke:none;fill-rule:nonzero;fill:rgb(90.196079%,0.784314%,70.588237%);fill-opacity:1;" d="M 13.191406 6 L 15.308594 6 C 15.964844 6 16.5 6.535156 16.5 7.191406 L 16.5 18.308594 C 16.5 18.964844 15.964844 19.5 15.308594 19.5 L 13.191406 19.5 C 12.535156 19.5 12 18.964844 12 18.308594 L 12 7.191406 C 12 6.535156 12.535156 6 13.191406 6 Z M 13.191406 6 "/>
<path style=" stroke:none;fill-rule:nonzero;fill:rgb(94.117647%,89.019608%,92.54902%);fill-opacity:1;" d="M 13.789062 7.5 L 14.667969 7.5 C 14.851562 7.5 15 7.648438 15 7.832031 L 15 17.667969 C 15 17.851562 14.851562 18 14.667969 18 L 13.789062 18 C 13.605469 18 13.457031 17.851562 13.457031 17.667969 L 13.457031 7.832031 C 13.457031 7.648438 13.605469 7.5 13.789062 7.5 Z M 13.789062 7.5 "/>
</g>
</svg>
