<?xml version="1.0" encoding="UTF-8"?>
<svg xmlns="http://www.w3.org/2000/svg" xmlns:xlink="http://www.w3.org/1999/xlink" width="24px" height="24px" viewBox="0 0 24 24" version="1.1">
<g id="surface1">
<path style="fill-rule:evenodd;fill:rgb(94.117647%,89.019608%,92.54902%);fill-opacity:1;stroke-width:1;stroke-linecap:round;stroke-linejoin:round;stroke:rgb(90.196079%,0.784314%,70.588237%);stroke-opacity:1;stroke-miterlimit:4;" d="M 3.5 1.5 L 12.5 1.5 C 13.052083 1.5 13.5 1.947917 13.5 2.5 L 13.5 13.5 C 13.5 14.052083 13.052083 14.5 12.5 14.5 L 3.5 14.5 C 2.947917 14.5 2.5 14.052083 2.5 13.5 L 2.5 2.5 C 2.5 1.947917 2.947917 1.5 3.5 1.5 Z M 3.5 1.5 " transform="matrix(1.5,0,0,1.5,0,0)"/>
<path style=" stroke:none;fill-rule:nonzero;fill:rgb(90.196079%,0.784314%,70.588237%);fill-opacity:1;" d="M 6.75 6 L 11.25 6 C 11.664062 6 12 6.335938 12 6.75 C 12 7.164062 11.664062 7.5 11.25 7.5 L 6.75 7.5 C 6.335938 7.5 6 7.164062 6 6.75 C 6 6.335938 6.335938 6 6.75 6 Z M 6.75 6 "/>
<path style=" stroke:none;fill-rule:nonzero;fill:rgb(90.196079%,0.784314%,70.588237%);fill-opacity:1;" d="M 6.75 12 L 11.25 12 C 11.664062 12 12 12.335938 12 12.75 C 12 13.164062 11.664062 13.5 11.25 13.5 L 6.75 13.5 C 6.335938 13.5 6 13.164062 6 12.75 C 6 12.335938 6.335938 12 6.75 12 Z M 6.75 12 "/>
<path style=" stroke:none;fill-rule:nonzero;fill:rgb(90.196079%,0.784314%,70.588237%);fill-opacity:1;" d="M 6.75 18 L 11.25 18 C 11.664062 18 12 18.335938 12 18.75 C 12 19.164062 11.664062 19.5 11.25 19.5 L 6.75 19.5 C 6.335938 19.5 6 19.164062 6 18.75 C 6 18.335938 6.335938 18 6.75 18 Z M 6.75 18 "/>
<path style="fill-rule:nonzero;fill:rgb(61.56863%,22.745098%,60.784316%);fill-opacity:1;stroke-width:0.25;stroke-linecap:butt;stroke-linejoin:miter;stroke:rgb(61.56863%,22.745098%,60.784316%);stroke-opacity:1;stroke-miterlimit:4;" d="M 9.78125 4.351562 C 9.815104 3.960938 10.09375 3.677083 10.440104 3.677083 C 10.669271 3.677083 10.880208 3.799479 11 4 C 11.117188 3.799479 11.320312 3.677083 11.546875 3.677083 C 11.893229 3.677083 12.171875 3.960938 12.205729 4.351562 C 12.208333 4.369792 12.221354 4.460938 12.184896 4.609375 C 12.135417 4.822917 12.018229 5.018229 11.848958 5.171875 L 11 5.942708 L 10.138021 5.171875 C 9.96875 5.018229 9.851562 4.822917 9.802083 4.609375 C 9.765625 4.460938 9.778646 4.369792 9.78125 4.351562 Z M 9.893229 4.585938 C 9.9375 4.783854 10.044271 4.960938 10.200521 5.101562 L 11 5.815104 L 11.786458 5.101562 C 11.942708 4.960938 12.046875 4.783854 12.09375 4.585938 C 12.127604 4.447917 12.114583 4.367188 12.114583 4.367188 L 12.111979 4.361979 C 12.083333 4.018229 11.84375 3.770833 11.546875 3.770833 C 11.328125 3.770833 11.135417 3.90625 11.044271 4.122396 L 11 4.223958 L 10.958333 4.122396 C 10.867188 3.908854 10.664062 3.770833 10.440104 3.770833 C 10.140625 3.770833 9.903646 4.018229 9.872396 4.367188 C 9.872396 4.367188 9.859375 4.447917 9.893229 4.585938 Z M 9.893229 4.585938 " transform="matrix(1.5,0,0,1.5,0,0)"/>
<path style="fill-rule:nonzero;fill:rgb(61.56863%,22.745098%,60.784316%);fill-opacity:1;stroke-width:0.25;stroke-linecap:butt;stroke-linejoin:miter;stroke:rgb(61.56863%,22.745098%,60.784316%);stroke-opacity:1;stroke-miterlimit:4;" d="M 9.78125 8.351562 C 9.815104 7.960938 10.09375 7.677083 10.440104 7.677083 C 10.669271 7.677083 10.880208 7.799479 11 8 C 11.117188 7.799479 11.320312 7.677083 11.546875 7.677083 C 11.893229 7.677083 12.171875 7.960938 12.205729 8.351562 C 12.208333 8.369792 12.221354 8.460938 12.184896 8.609375 C 12.135417 8.822917 12.018229 9.018229 11.848958 9.171875 L 11 9.942708 L 10.138021 9.171875 C 9.96875 9.018229 9.851562 8.822917 9.802083 8.609375 C 9.765625 8.460938 9.778646 8.369792 9.78125 8.351562 Z M 9.893229 8.585938 C 9.9375 8.783854 10.044271 8.960938 10.200521 9.101562 L 11 9.815104 L 11.786458 9.101562 C 11.942708 8.960938 12.046875 8.783854 12.09375 8.585938 C 12.127604 8.447917 12.114583 8.367188 12.114583 8.367188 L 12.111979 8.361979 C 12.083333 8.018229 11.84375 7.770833 11.546875 7.770833 C 11.328125 7.770833 11.135417 7.90625 11.044271 8.122396 L 11 8.223958 L 10.958333 8.122396 C 10.867188 7.908854 10.664062 7.770833 10.440104 7.770833 C 10.140625 7.770833 9.903646 8.018229 9.872396 8.367188 C 9.872396 8.367188 9.859375 8.447917 9.893229 8.585938 Z M 9.893229 8.585938 " transform="matrix(1.5,0,0,1.5,0,0)"/>
</g>
</svg>
