<?xml version="1.0" encoding="UTF-8"?>
<svg xmlns="http://www.w3.org/2000/svg" xmlns:xlink="http://www.w3.org/1999/xlink" width="24px" height="24px" viewBox="0 0 24 24" version="1.1">
<g id="surface1">
<path style=" stroke:none;fill-rule:nonzero;fill:rgb(94.117647%,89.019608%,92.54902%);fill-opacity:1;" d="M 1.5 1.5 L 22.5 1.5 L 22.5 22.5 L 1.5 22.5 Z M 1.5 1.5 "/>
<path style=" stroke:none;fill-rule:nonzero;fill:rgb(90.196079%,0.784314%,70.588237%);fill-opacity:1;" d="M 2.453125 3.515625 L 3.515625 2.453125 L 21.546875 20.484375 L 20.484375 21.546875 Z M 2.453125 3.515625 "/>
<path style=" stroke:none;fill-rule:nonzero;fill:rgb(90.196079%,0.784314%,70.588237%);fill-opacity:1;" d="M 1.5 1.5 L 7.5 1.5 L 7.5 7.5 L 1.5 7.5 Z M 1.5 1.5 "/>
<path style=" stroke:none;fill-rule:nonzero;fill:rgb(100%,100%,100%);fill-opacity:1;" d="M 3 3 L 6 3 L 6 6 L 3 6 Z M 3 3 "/>
<path style=" stroke:none;fill-rule:nonzero;fill:rgb(90.196079%,0.784314%,70.588237%);fill-opacity:1;" d="M 16.5 16.5 L 22.5 16.5 L 22.5 22.5 L 16.5 22.5 Z M 16.5 16.5 "/>
<path style=" stroke:none;fill-rule:nonzero;fill:rgb(100%,100%,100%);fill-opacity:1;" d="M 18 18 L 21 18 L 21 21 L 18 21 Z M 18 18 "/>
</g>
</svg>
