<?xml version="1.0" encoding="UTF-8"?>
<svg xmlns="http://www.w3.org/2000/svg" xmlns:xlink="http://www.w3.org/1999/xlink" width="24px" height="24px" viewBox="0 0 24 24" version="1.1">
<defs>
<linearGradient id="linear0" gradientUnits="userSpaceOnUse" x1="7.5" y1="7.5" x2="112.5" y2="112.5" gradientTransform="matrix(0.1875,0,0,0.1875,0,0)">
<stop offset="0" style="stop-color:rgb(90.196079%,0.784314%,70.588237%);stop-opacity:1;"/>
<stop offset="1" style="stop-color:rgb(94.117647%,89.019608%,92.54902%);stop-opacity:0.0247525;"/>
</linearGradient>
</defs>
<g id="surface1">
<path style=" stroke:none;fill-rule:nonzero;fill:rgb(94.117647%,89.019608%,92.54902%);fill-opacity:1;" d="M 15.5 1.5 L 22.5 1.5 L 22.5 8.5 L 15.5 8.5 Z M 15.5 1.5 "/>
<path style=" stroke:none;fill-rule:nonzero;fill:rgb(95.294118%,71.764708%,85.09804%);fill-opacity:1;" d="M 8.5 1.5 L 15.5 1.5 L 15.5 8.5 L 8.5 8.5 Z M 8.5 1.5 "/>
<path style=" stroke:none;fill-rule:nonzero;fill:rgb(95.294118%,71.764708%,85.09804%);fill-opacity:1;" d="M 8.5 15.5 L 15.5 15.5 L 15.5 22.5 L 8.5 22.5 Z M 8.5 15.5 "/>
<path style=" stroke:none;fill-rule:nonzero;fill:rgb(95.294118%,71.764708%,85.09804%);fill-opacity:1;" d="M 15.5 8.5 L 22.5 8.5 L 22.5 15.5 L 15.5 15.5 Z M 15.5 8.5 "/>
<path style=" stroke:none;fill-rule:nonzero;fill:rgb(95.294118%,71.764708%,85.09804%);fill-opacity:1;" d="M 1.5 8.5 L 8.5 8.5 L 8.5 15.5 L 1.5 15.5 Z M 1.5 8.5 "/>
<path style=" stroke:none;fill-rule:nonzero;fill:rgb(94.117647%,89.019608%,92.54902%);fill-opacity:1;" d="M 1.5 1.5 L 8.5 1.5 L 8.5 8.5 L 1.5 8.5 Z M 1.5 1.5 "/>
<path style=" stroke:none;fill-rule:nonzero;fill:rgb(94.117647%,89.019608%,92.54902%);fill-opacity:1;" d="M 1.5 15.5 L 8.5 15.5 L 8.5 22.5 L 1.5 22.5 Z M 1.5 15.5 "/>
<path style=" stroke:none;fill-rule:nonzero;fill:rgb(94.117647%,89.019608%,92.54902%);fill-opacity:1;" d="M 15.5 15.5 L 22.5 15.5 L 22.5 22.5 L 15.5 22.5 Z M 15.5 15.5 "/>
<path style=" stroke:none;fill-rule:nonzero;fill:rgb(94.117647%,89.019608%,92.54902%);fill-opacity:1;" d="M 8.5 8.5 L 15.5 8.5 L 15.5 15.5 L 8.5 15.5 Z M 8.5 8.5 "/>
<path style=" stroke:none;fill-rule:nonzero;fill:url(#linear0);" d="M 1.5 1.5 L 22.5 1.5 L 22.5 22.5 L 1.5 22.5 Z M 1.5 1.5 "/>
<path style=" stroke:none;fill-rule:nonzero;fill:rgb(90.196079%,0.784314%,70.588237%);fill-opacity:1;" d="M 3.789062 4.78125 L 4.78125 3.789062 L 21.609375 20.621094 L 20.621094 21.609375 Z M 3.789062 4.78125 "/>
<path style=" stroke:none;fill-rule:nonzero;fill:rgb(90.196079%,0.784314%,70.588237%);fill-opacity:1;" d="M 16.5 16.5 L 22.5 16.5 L 22.5 22.5 L 16.5 22.5 Z M 16.5 16.5 "/>
<path style=" stroke:none;fill-rule:nonzero;fill:rgb(94.117647%,89.019608%,92.54902%);fill-opacity:1;" d="M 18 18 L 21.101562 18 L 21.101562 21.101562 L 18 21.101562 Z M 18 18 "/>
<path style=" stroke:none;fill-rule:nonzero;fill:rgb(90.196079%,0.784314%,70.588237%);fill-opacity:1;" d="M 1.5 1.5 L 7.5 1.5 L 7.5 7.5 L 1.5 7.5 Z M 1.5 1.5 "/>
<path style=" stroke:none;fill-rule:nonzero;fill:rgb(94.117647%,89.019608%,92.54902%);fill-opacity:1;" d="M 3 3 L 6 3 L 6 6 L 3 6 Z M 3 3 "/>
</g>
</svg>
