<?xml version="1.0" encoding="UTF-8"?>
<svg xmlns="http://www.w3.org/2000/svg" xmlns:xlink="http://www.w3.org/1999/xlink" width="24px" height="24px" viewBox="0 0 24 24" version="1.1">
<g id="surface1">
<path style=" stroke:none;fill-rule:nonzero;fill:rgb(95.294118%,71.764708%,85.09804%);fill-opacity:1;" d="M 1.5 3.019531 L 22.5 3.019531 L 22.5 22.519531 L 1.5 22.519531 Z M 1.5 3.019531 "/>
<path style=" stroke:none;fill-rule:nonzero;fill:rgb(94.117647%,89.019608%,92.54902%);fill-opacity:1;" d="M 3 4.519531 L 7.5 4.519531 L 7.5 9 L 3 9 Z M 3 4.519531 "/>
<path style=" stroke:none;fill-rule:nonzero;fill:rgb(94.117647%,89.019608%,92.54902%);fill-opacity:1;" d="M 3 10.5 L 7.519531 10.5 L 7.519531 15.019531 L 3 15.019531 Z M 3 10.5 "/>
<path style=" stroke:none;fill-rule:nonzero;fill:rgb(94.117647%,89.019608%,92.54902%);fill-opacity:1;" d="M 3 16.519531 L 7.519531 16.519531 L 7.519531 21.019531 L 3 21.019531 Z M 3 16.519531 "/>
<path style=" stroke:none;fill-rule:nonzero;fill:rgb(94.117647%,89.019608%,92.54902%);fill-opacity:1;" d="M 9 4.519531 L 15 4.519531 L 15 9 L 9 9 Z M 9 4.519531 "/>
<path style=" stroke:none;fill-rule:nonzero;fill:rgb(61.56863%,22.745098%,60.784316%);fill-opacity:1;" d="M 9 16.519531 L 15.019531 16.519531 L 15.019531 21.019531 L 9 21.019531 Z M 9 16.519531 "/>
<path style=" stroke:none;fill-rule:nonzero;fill:rgb(94.117647%,89.019608%,92.54902%);fill-opacity:1;" d="M 16.5 4.519531 L 21 4.519531 L 21 9 L 16.5 9 Z M 16.5 4.519531 "/>
<path style=" stroke:none;fill-rule:nonzero;fill:rgb(94.117647%,89.019608%,92.54902%);fill-opacity:1;" d="M 16.5 10.5 L 21 10.5 L 21 15.019531 L 16.5 15.019531 Z M 16.5 10.5 "/>
<path style=" stroke:none;fill-rule:nonzero;fill:rgb(94.117647%,89.019608%,92.54902%);fill-opacity:1;" d="M 16.519531 16.519531 L 21 16.519531 L 21 21.019531 L 16.519531 21.019531 Z M 16.519531 16.519531 "/>
<path style=" stroke:none;fill-rule:nonzero;fill:rgb(95.294118%,71.764708%,85.09804%);fill-opacity:1;" d="M 7.519531 9.769531 L 16.519531 9.769531 L 16.519531 11.269531 L 7.519531 11.269531 Z M 7.519531 9.769531 "/>
<path style=" stroke:none;fill-rule:nonzero;fill:rgb(95.294118%,71.764708%,85.09804%);fill-opacity:1;" d="M 7.519531 11.269531 L 9.019531 11.269531 L 9.019531 17.269531 L 7.519531 17.269531 Z M 7.519531 11.269531 "/>
<path style=" stroke:none;fill-rule:nonzero;fill:rgb(95.294118%,71.764708%,85.09804%);fill-opacity:1;" d="M 15.019531 11.269531 L 16.519531 11.269531 L 16.519531 15.769531 L 15.019531 15.769531 Z M 15.019531 11.269531 "/>
<path style=" stroke:none;fill-rule:nonzero;fill:rgb(90.196079%,0.784314%,70.588237%);fill-opacity:1;" d="M 9 9 L 15.75 9 C 16.164062 9 16.5 9.335938 16.5 9.75 C 16.5 10.164062 16.164062 10.5 15.75 10.5 L 9 10.5 C 8.585938 10.5 8.25 10.164062 8.25 9.75 C 8.25 9.335938 8.585938 9 9 9 Z M 9 9 "/>
<path style=" stroke:none;fill-rule:nonzero;fill:rgb(90.196079%,0.784314%,70.588237%);fill-opacity:1;" d="M 8.25 9 C 8.664062 9 9 9.335938 9 9.75 L 9 21.019531 C 9 21.433594 8.664062 21.769531 8.25 21.769531 C 7.835938 21.769531 7.5 21.433594 7.5 21.019531 L 7.5 9.75 C 7.5 9.335938 7.835938 9 8.25 9 Z M 8.25 9 "/>
<path style=" stroke:none;fill-rule:nonzero;fill:rgb(94.117647%,89.019608%,92.54902%);fill-opacity:1;" d="M 9 10.5 L 15.019531 10.5 L 15.019531 15.019531 L 9 15.019531 Z M 9 10.5 "/>
<path style=" stroke:none;fill-rule:nonzero;fill:rgb(90.196079%,0.784314%,70.588237%);fill-opacity:1;" d="M 9 15.019531 L 15.75 15.019531 C 16.164062 15.019531 16.5 15.355469 16.5 15.769531 C 16.5 16.183594 16.164062 16.519531 15.75 16.519531 L 9 16.519531 C 8.585938 16.519531 8.25 16.183594 8.25 15.769531 C 8.25 15.355469 8.585938 15.019531 9 15.019531 Z M 9 15.019531 "/>
<path style=" stroke:none;fill-rule:nonzero;fill:rgb(90.196079%,0.784314%,70.588237%);fill-opacity:1;" d="M 15.75 15.75 C 16.164062 15.75 16.5 16.085938 16.5 16.5 L 16.5 21.019531 C 16.5 21.433594 16.164062 21.769531 15.75 21.769531 C 15.335938 21.769531 15 21.433594 15 21.019531 L 15 16.5 C 15 16.085938 15.335938 15.75 15.75 15.75 Z M 15.75 15.75 "/>
<path style=" stroke:none;fill-rule:nonzero;fill:rgb(90.196079%,0.784314%,70.588237%);fill-opacity:1;" d="M 8.25 21.019531 L 15.75 21.019531 C 16.164062 21.019531 16.5 21.363281 16.5 21.789062 L 16.5 21.863281 C 16.5 22.289062 16.164062 22.632812 15.75 22.632812 L 8.25 22.632812 C 7.835938 22.632812 7.5 22.289062 7.5 21.863281 L 7.5 21.789062 C 7.5 21.363281 7.835938 21.019531 8.25 21.019531 Z M 8.25 21.019531 "/>
<path style="fill-rule:nonzero;fill:rgb(94.117647%,89.019608%,92.54902%);fill-opacity:1;stroke-width:2.000003;stroke-linecap:butt;stroke-linejoin:miter;stroke:rgb(94.117647%,89.019608%,92.54902%);stroke-opacity:1;stroke-miterlimit:4;" d="M -6.046086 -7.632679 C -6.04671 -5.759762 -7.557289 -4.242076 -9.42082 -4.2424 C -11.28435 -4.242724 -12.794607 -5.759619 -12.793983 -7.632536 C -12.796547 -9.503616 -11.283451 -11.020625 -9.41925 -11.022815 C -7.555719 -11.022491 -6.045462 -9.505596 -6.046086 -7.632679 Z M -6.046086 -7.632679 " transform="matrix(-1.448376,0.390137,-0.386328,-1.449397,-0.627596,0.733522)"/>
<path style="fill-rule:nonzero;fill:rgb(94.117647%,89.019608%,92.54902%);fill-opacity:1;stroke-width:1.000002;stroke-linecap:butt;stroke-linejoin:miter;stroke:rgb(90.196079%,0.784314%,70.588237%);stroke-opacity:1;stroke-miterlimit:4;" d="M -6.046086 -7.632679 C -6.04671 -5.759762 -7.557289 -4.242076 -9.42082 -4.2424 C -11.28435 -4.242724 -12.794607 -5.759619 -12.793983 -7.632536 C -12.796547 -9.503616 -11.283451 -11.020625 -9.41925 -11.022815 C -7.555719 -11.022491 -6.045462 -9.505596 -6.046086 -7.632679 Z M -6.046086 -7.632679 " transform="matrix(-1.448376,0.390137,-0.386328,-1.449397,-0.627596,0.733522)"/>
<path style="fill:none;stroke-width:1.625429;stroke-linecap:round;stroke-linejoin:miter;stroke:rgb(90.196079%,0.784314%,70.588237%);stroke-opacity:1;stroke-miterlimit:4;" d="M 13.492486 7.169098 L 20.493781 7.169098 " transform="matrix(0.92282,0,0,0.922847,0.283234,1.505115)"/>
<path style="fill:none;stroke-width:1.625429;stroke-linecap:round;stroke-linejoin:miter;stroke:rgb(90.196079%,0.784314%,70.588237%);stroke-opacity:1;stroke-miterlimit:4;" d="M 16.993133 10.669646 L 16.993133 3.668551 " transform="matrix(0.92282,0,0,0.922847,0.283234,1.505115)"/>
<path style="fill:none;stroke-width:2;stroke-linecap:round;stroke-linejoin:round;stroke:rgb(61.56863%,22.745098%,60.784316%);stroke-opacity:1;stroke-miterlimit:4;" d="M 4.075521 1.979167 L 4.075521 6.479167 " transform="matrix(1.5,0,0,1.5,0,0)"/>
<path style="fill:none;stroke-width:2;stroke-linecap:round;stroke-linejoin:round;stroke:rgb(61.56863%,22.745098%,60.784316%);stroke-opacity:1;stroke-miterlimit:4;" d="M 2.122396 6.130208 L 4.122396 8.130208 L 6.122396 6.130208 " transform="matrix(1.5,0,0,1.5,0,0)"/>
</g>
</svg>
