<?xml version="1.0" encoding="UTF-8"?>
<svg xmlns="http://www.w3.org/2000/svg" xmlns:xlink="http://www.w3.org/1999/xlink" width="24px" height="24px" viewBox="0 0 24 24" version="1.1">
<defs>
<clipPath id="clip1">
  <path d="M 1.5 8 L 6 8 L 6 16 L 1.5 16 Z M 1.5 8 "/>
</clipPath>
<clipPath id="clip2">
  <path d="M 4 1.5 L 22 1.5 L 22 7 L 4 7 Z M 4 1.5 "/>
</clipPath>
<clipPath id="clip3">
  <path d="M 3 1.5 L 22 1.5 L 22 8 L 3 8 Z M 3 1.5 "/>
</clipPath>
<clipPath id="clip4">
  <path d="M 4 16 L 21 16 L 21 22.5 L 4 22.5 Z M 4 16 "/>
</clipPath>
<clipPath id="clip5">
  <path d="M 3 15 L 22 15 L 22 22.5 L 3 22.5 Z M 3 15 "/>
</clipPath>
<clipPath id="clip6">
  <path d="M 8 22 L 19 22 L 19 22.5 L 8 22.5 Z M 8 22 "/>
</clipPath>
<clipPath id="clip7">
  <path d="M 12 16 L 21 16 L 21 22.5 L 12 22.5 Z M 12 16 "/>
</clipPath>
<clipPath id="clip8">
  <path d="M 18 11 L 22.5 11 L 22.5 13 L 18 13 Z M 18 11 "/>
</clipPath>
<clipPath id="clip9">
  <path d="M 11 6 L 22.5 6 L 22.5 22.5 L 11 22.5 Z M 11 6 "/>
</clipPath>
</defs>
<g id="surface1">
<g clip-path="url(#clip1)" clip-rule="nonzero">
<path style=" stroke:none;fill-rule:nonzero;fill:rgb(61.56863%,22.745098%,60.784316%);fill-opacity:1;" d="M 6 12 C 4.820312 12.765625 2.679688 14.609375 1.5 15.375 L 1.5 8.625 C 2.679688 9.390625 4.820312 11.234375 6 12 Z M 6 12 "/>
</g>
<g clip-path="url(#clip2)" clip-rule="nonzero">
<path style=" stroke:none;fill-rule:nonzero;fill:rgb(94.117647%,89.019608%,92.54902%);fill-opacity:1;" d="M 6.085938 -12.546875 L 19.585938 -12.546875 C 20.414062 -12.546875 21.085938 -11.875 21.085938 -11.046875 L 21.085938 5.25 C 21.085938 6.078125 20.414062 6.75 19.585938 6.75 L 6.085938 6.75 C 5.257812 6.75 4.585938 6.078125 4.585938 5.25 L 4.585938 -11.046875 C 4.585938 -11.875 5.257812 -12.546875 6.085938 -12.546875 Z M 6.085938 -12.546875 "/>
</g>
<g clip-path="url(#clip3)" clip-rule="nonzero">
<path style="fill:none;stroke-width:1;stroke-linecap:round;stroke-linejoin:round;stroke:rgb(90.196079%,0.784314%,70.588237%);stroke-opacity:1;stroke-miterlimit:4;" d="M 4.057292 -8.364583 L 13.057292 -8.364583 C 13.609375 -8.364583 14.057292 -7.916667 14.057292 -7.364583 L 14.057292 3.5 C 14.057292 4.052083 13.609375 4.5 13.057292 4.5 L 4.057292 4.5 C 3.505208 4.5 3.057292 4.052083 3.057292 3.5 L 3.057292 -7.364583 C 3.057292 -7.916667 3.505208 -8.364583 4.057292 -8.364583 Z M 4.057292 -8.364583 " transform="matrix(1.5,0,0,1.5,0,0)"/>
</g>
<path style=" stroke:none;fill-rule:nonzero;fill:rgb(61.56863%,22.745098%,60.784316%);fill-opacity:1;" d="M 9.085938 2.453125 L 16.585938 2.453125 C 17 2.453125 17.335938 2.789062 17.335938 3.203125 C 17.335938 3.617188 17 3.953125 16.585938 3.953125 L 9.085938 3.953125 C 8.671875 3.953125 8.335938 3.617188 8.335938 3.203125 C 8.335938 2.789062 8.671875 2.453125 9.085938 2.453125 Z M 9.085938 2.453125 "/>
<g clip-path="url(#clip4)" clip-rule="nonzero">
<path style=" stroke:none;fill-rule:nonzero;fill:rgb(94.117647%,89.019608%,92.54902%);fill-opacity:1;" d="M 6 16.5 L 19.5 16.5 C 20.328125 16.5 21 17.171875 21 18 L 21 34.5 C 21 35.328125 20.328125 36 19.5 36 L 6 36 C 5.171875 36 4.5 35.328125 4.5 34.5 L 4.5 18 C 4.5 17.171875 5.171875 16.5 6 16.5 Z M 6 16.5 "/>
</g>
<g clip-path="url(#clip5)" clip-rule="nonzero">
<path style="fill:none;stroke-width:1;stroke-linecap:round;stroke-linejoin:round;stroke:rgb(90.196079%,0.784314%,70.588237%);stroke-opacity:1;stroke-miterlimit:4;" d="M 4 11 L 13 11 C 13.552083 11 14 11.447917 14 12 L 14 23 C 14 23.552083 13.552083 24 13 24 L 4 24 C 3.447917 24 3 23.552083 3 23 L 3 12 C 3 11.447917 3.447917 11 4 11 Z M 4 11 " transform="matrix(1.5,0,0,1.5,0,0)"/>
</g>
<g clip-path="url(#clip6)" clip-rule="nonzero">
<path style=" stroke:none;fill-rule:nonzero;fill:rgb(95.294118%,71.764708%,85.09804%);fill-opacity:1;" d="M 9 22.5 L 18 22.5 C 18.414062 22.5 18.75 22.835938 18.75 23.25 C 18.75 23.664062 18.414062 24 18 24 L 9 24 C 8.585938 24 8.25 23.664062 8.25 23.25 C 8.25 22.835938 8.585938 22.5 9 22.5 Z M 9 22.5 "/>
</g>
<path style=" stroke:none;fill-rule:nonzero;fill:rgb(61.56863%,22.745098%,60.784316%);fill-opacity:1;" d="M 14.8125 19.5 C 14.859375 18.996094 15.222656 18.628906 15.679688 18.628906 C 15.980469 18.628906 16.257812 18.789062 16.414062 19.046875 C 16.570312 18.785156 16.835938 18.628906 17.132812 18.628906 C 17.589844 18.628906 17.953125 18.996094 18 19.5 C 18.003906 19.523438 18.019531 19.640625 17.972656 19.832031 C 17.90625 20.105469 17.753906 20.355469 17.53125 20.554688 L 16.414062 21.546875 L 15.28125 20.554688 C 15.058594 20.355469 14.90625 20.105469 14.839844 19.832031 C 14.792969 19.640625 14.808594 19.523438 14.8125 19.5 Z M 14.960938 19.804688 C 15.019531 20.054688 15.160156 20.285156 15.363281 20.464844 L 16.414062 21.386719 L 17.449219 20.464844 C 17.652344 20.285156 17.792969 20.054688 17.851562 19.804688 C 17.898438 19.621094 17.878906 19.519531 17.878906 19.519531 L 17.878906 19.511719 C 17.835938 19.070312 17.523438 18.75 17.132812 18.75 C 16.847656 18.75 16.59375 18.925781 16.472656 19.203125 L 16.414062 19.335938 L 16.359375 19.203125 C 16.238281 18.929688 15.972656 18.75 15.675781 18.75 C 15.285156 18.75 14.972656 19.070312 14.933594 19.519531 C 14.933594 19.519531 14.914062 19.621094 14.960938 19.804688 Z M 14.960938 19.804688 "/>
<g clip-path="url(#clip7)" clip-rule="nonzero">
<path style="fill:none;stroke-width:0.25;stroke-linecap:butt;stroke-linejoin:miter;stroke:rgb(61.56863%,22.745098%,60.784316%);stroke-opacity:1;stroke-miterlimit:4;" d="M 9.875 13 C 9.90625 12.664062 10.148438 12.419271 10.453125 12.419271 C 10.653646 12.419271 10.838542 12.526042 10.942708 12.697917 C 11.046875 12.523438 11.223958 12.419271 11.421875 12.419271 C 11.726562 12.419271 11.96875 12.664062 12 13 C 12.002604 13.015625 12.013021 13.09375 11.981771 13.221354 C 11.9375 13.403646 11.835938 13.570312 11.6875 13.703125 L 10.942708 14.364583 L 10.1875 13.703125 C 10.039062 13.570312 9.9375 13.403646 9.893229 13.221354 C 9.861979 13.09375 9.872396 13.015625 9.875 13 Z M 9.973958 13.203125 C 10.013021 13.369792 10.106771 13.523438 10.242188 13.643229 L 10.942708 14.257812 L 11.632812 13.643229 C 11.768229 13.523438 11.861979 13.369792 11.901042 13.203125 C 11.932292 13.080729 11.919271 13.013021 11.919271 13.013021 L 11.919271 13.007812 C 11.890625 12.713542 11.682292 12.5 11.421875 12.5 C 11.231771 12.5 11.0625 12.617188 10.981771 12.802083 L 10.942708 12.890625 L 10.90625 12.802083 C 10.825521 12.619792 10.648438 12.5 10.450521 12.5 C 10.190104 12.5 9.981771 12.713542 9.955729 13.013021 C 9.955729 13.013021 9.942708 13.080729 9.973958 13.203125 Z M 9.973958 13.203125 " transform="matrix(1.5,0,0,1.5,0,0)"/>
</g>
<path style="fill:none;stroke-width:1;stroke-linecap:round;stroke-linejoin:miter;stroke:rgb(61.56863%,22.745098%,60.784316%);stroke-opacity:1;stroke-miterlimit:4;" d="M 5 8 L 7 8 " transform="matrix(1.5,0,0,1.5,0,0)"/>
<path style="fill:none;stroke-width:1;stroke-linecap:round;stroke-linejoin:miter;stroke:rgb(61.56863%,22.745098%,60.784316%);stroke-opacity:1;stroke-miterlimit:4;" d="M 9 8 L 11 8 " transform="matrix(1.5,0,0,1.5,0,0)"/>
<g clip-path="url(#clip8)" clip-rule="nonzero">
<path style="fill:none;stroke-width:1;stroke-linecap:round;stroke-linejoin:miter;stroke:rgb(61.56863%,22.745098%,60.784316%);stroke-opacity:1;stroke-miterlimit:4;" d="M 13 8 L 15 8 " transform="matrix(1.5,0,0,1.5,0,0)"/>
</g>
<path style=" stroke:none;fill-rule:evenodd;fill:rgb(94.117647%,89.019608%,92.54902%);fill-opacity:1;" d="M 14.90625 8.25 L 18.816406 8.25 C 20.058594 8.25 21.066406 9.257812 21.066406 10.5 L 21.066406 18.957031 C 21.066406 20.203125 20.058594 21.207031 18.816406 21.207031 L 14.90625 21.207031 C 13.664062 21.207031 12.65625 20.203125 12.65625 18.957031 L 12.65625 10.5 C 12.65625 9.257812 13.664062 8.25 14.90625 8.25 Z M 14.90625 8.25 "/>
<g clip-path="url(#clip9)" clip-rule="nonzero">
<path style="fill:none;stroke-width:3.20664;stroke-linecap:round;stroke-linejoin:round;stroke:rgb(94.117647%,89.019608%,92.54902%);stroke-opacity:1;stroke-miterlimit:4;" d="M 15.940485 8.508546 L 20.078074 8.508546 C 21.392513 8.508546 22.458945 9.596685 22.458945 10.937879 L 22.458945 20.068964 C 22.458945 21.414376 21.392513 22.498297 20.078074 22.498297 L 15.940485 22.498297 C 14.626046 22.498297 13.559614 21.414376 13.559614 20.068964 L 13.559614 10.937879 C 13.559614 9.596685 14.626046 8.508546 15.940485 8.508546 Z M 15.940485 8.508546 " transform="matrix(0.945032,0,0,0.92618,-0.158025,0.369553)"/>
</g>
<path style="fill-rule:evenodd;fill:rgb(94.117647%,89.019608%,92.54902%);fill-opacity:1;stroke-width:3.20664;stroke-linecap:round;stroke-linejoin:round;stroke:rgb(94.117647%,89.019608%,92.54902%);stroke-opacity:1;stroke-miterlimit:4;" d="M 17.879076 11.498818 L 18.118816 11.498818 C 19.433255 11.498818 20.499687 12.586957 20.499687 13.928151 L 20.499687 18.069826 C 20.499687 19.41102 19.433255 20.499158 18.118816 20.499158 L 17.879076 20.499158 C 16.564637 20.499158 15.498205 19.41102 15.498205 18.069826 L 15.498205 13.928151 C 15.498205 12.586957 16.564637 11.498818 17.879076 11.498818 Z M 17.879076 11.498818 " transform="matrix(0.945032,0,0,0.92618,-0.158025,0.369553)"/>
<path style="fill-rule:evenodd;fill:rgb(94.117647%,89.019608%,92.54902%);fill-opacity:1;stroke-width:3.20664;stroke-linecap:round;stroke-linejoin:round;stroke:rgb(94.117647%,89.019608%,92.54902%);stroke-opacity:1;stroke-miterlimit:4;" d="M 18.420558 14.185424 C 18.420558 14.413174 18.234553 14.59453 18.007213 14.598748 C 17.775739 14.598748 17.589734 14.417392 17.5856 14.189642 C 17.5856 13.966109 17.767472 13.780535 17.994812 13.776318 C 18.226286 13.7721 18.416425 13.949239 18.420558 14.176989 L 18.003079 14.185424 Z M 18.420558 14.185424 " transform="matrix(0.945032,0,0,0.92618,-0.158025,0.369553)"/>
<path style="fill:none;stroke-width:3.20664;stroke-linecap:round;stroke-linejoin:round;stroke:rgb(94.117647%,89.019608%,92.54902%);stroke-opacity:1;stroke-miterlimit:4;" d="M 17.949344 16.901553 L 17.949344 19.423673 " transform="matrix(0.945032,0,0,0.92618,-0.158025,0.369553)"/>
<path style="fill-rule:evenodd;fill:rgb(94.117647%,89.019608%,92.54902%);fill-opacity:1;stroke-width:1.60332;stroke-linecap:round;stroke-linejoin:round;stroke:rgb(90.196079%,0.784314%,70.588237%);stroke-opacity:1;stroke-miterlimit:4;" d="M 15.940485 8.508546 L 20.078074 8.508546 C 21.392513 8.508546 22.458945 9.596685 22.458945 10.937879 L 22.458945 20.068964 C 22.458945 21.414376 21.392513 22.498297 20.078074 22.498297 L 15.940485 22.498297 C 14.626046 22.498297 13.559614 21.414376 13.559614 20.068964 L 13.559614 10.937879 C 13.559614 9.596685 14.626046 8.508546 15.940485 8.508546 Z M 15.940485 8.508546 " transform="matrix(0.945032,0,0,0.92618,-0.158025,0.369553)"/>
<path style="fill-rule:evenodd;fill:rgb(95.294118%,71.764708%,85.09804%);fill-opacity:1;stroke-width:1.60332;stroke-linecap:round;stroke-linejoin:round;stroke:rgb(90.196079%,0.784314%,70.588237%);stroke-opacity:1;stroke-miterlimit:4;" d="M 17.879076 11.498818 L 18.118816 11.498818 C 19.433255 11.498818 20.499687 12.586957 20.499687 13.928151 L 20.499687 18.069826 C 20.499687 19.41102 19.433255 20.499158 18.118816 20.499158 L 17.879076 20.499158 C 16.564637 20.499158 15.498205 19.41102 15.498205 18.069826 L 15.498205 13.928151 C 15.498205 12.586957 16.564637 11.498818 17.879076 11.498818 Z M 17.879076 11.498818 " transform="matrix(0.945032,0,0,0.92618,-0.158025,0.369553)"/>
<path style="fill:none;stroke-width:1.60332;stroke-linecap:round;stroke-linejoin:round;stroke:rgb(61.56863%,22.745098%,60.784316%);stroke-opacity:1;stroke-miterlimit:4;" d="M 18.420558 14.185424 C 18.420558 14.413174 18.234553 14.59453 18.007213 14.598748 C 17.775739 14.598748 17.589734 14.417392 17.5856 14.189642 C 17.5856 13.966109 17.767472 13.780535 17.994812 13.776318 C 18.226286 13.7721 18.416425 13.949239 18.420558 14.176989 L 18.003079 14.185424 Z M 18.420558 14.185424 " transform="matrix(0.945032,0,0,0.92618,-0.158025,0.369553)"/>
<path style="fill:none;stroke-width:1.60332;stroke-linecap:round;stroke-linejoin:round;stroke:rgb(90.196079%,0.784314%,70.588237%);stroke-opacity:1;stroke-miterlimit:4;" d="M 17.949344 16.901553 L 17.949344 19.423673 " transform="matrix(0.945032,0,0,0.92618,-0.158025,0.369553)"/>
</g>
</svg>
