<?xml version="1.0" encoding="UTF-8"?>
<svg xmlns="http://www.w3.org/2000/svg" xmlns:xlink="http://www.w3.org/1999/xlink" width="24px" height="24px" viewBox="0 0 24 24" version="1.1">
<g id="surface1">
<path style=" stroke:none;fill-rule:nonzero;fill:rgb(94.117647%,89.019608%,92.54902%);fill-opacity:1;" d="M 1.5 3 L 22.5 3 L 22.5 19.5 L 1.5 19.5 Z M 1.5 3 "/>
<path style=" stroke:none;fill-rule:evenodd;fill:rgb(95.294118%,71.764708%,85.09804%);fill-opacity:1;" d="M 1.5 9 L 22.5 9 L 22.5 13.5 L 1.5 13.5 Z M 1.5 9 "/>
<path style=" stroke:none;fill-rule:nonzero;fill:rgb(61.56863%,22.745098%,60.784316%);fill-opacity:1;" d="M 1.425781 3 L 1.425781 19.5 L 22.5 19.5 L 22.5 3 Z M 3 4.5 L 6.75 4.5 L 6.75 7.5 L 3 7.5 Z M 8.25 4.5 L 12 4.5 L 12 7.5 L 8.25 7.5 Z M 13.5 4.5 L 22.5 4.5 L 22.5 7.5 L 13.5 7.5 Z M 2.25 9 L 6.75 9 L 6.75 13.5 L 2.25 13.5 Z M 8.25 9 L 12 9 L 12 13.5 L 8.25 13.5 Z M 13.5 9 L 22.5 9 L 22.5 13.5 L 13.5 13.5 Z M 2.25 15 L 7.1875 15 L 7.1875 18 L 2.25 18 Z M 8.011719 15 L 12 15 L 12 18 L 8.011719 18 Z M 13.5 15 L 22.5 15 L 22.5 18 L 13.5 18 Z M 2.25 19.5 L 7.1875 19.5 Z M 8.011719 19.5 L 12.457031 19.5 Z M 13.28125 19.5 L 22.5 19.5 Z M 13.28125 19.5 "/>
<path style=" stroke:none;fill-rule:nonzero;fill:rgb(90.196079%,0.784314%,70.588237%);fill-opacity:1;" d="M 1.5 7.5 L 22.5 7.5 L 22.5 9 L 2.8125 9 L 2.8125 18 L 22.5 18 L 22.5 19.5 L 1.5 19.5 Z M 1.5 7.5 "/>
<path style=" stroke:none;fill-rule:nonzero;fill:rgb(90.196079%,0.784314%,70.588237%);fill-opacity:1;" d="M 1.5 7.5 L 22.5 7.5 L 22.5 9 L 3 9 L 3 13.5 L 22.5 13.5 L 22.5 15 L 1.5 15 Z M 1.5 7.5 "/>
<path style="fill-rule:nonzero;fill:rgb(94.117647%,89.019608%,92.54902%);fill-opacity:1;stroke-width:2.000003;stroke-linecap:butt;stroke-linejoin:miter;stroke:rgb(94.117647%,89.019608%,92.54902%);stroke-opacity:1;stroke-miterlimit:4;" d="M -6.047114 -7.632956 C -6.045222 -5.759361 -7.558317 -4.242352 -9.421848 -4.242676 C -11.285379 -4.243001 -12.795635 -5.759895 -12.795011 -7.632813 C -12.795058 -9.503215 -11.284479 -11.020902 -9.420278 -11.023092 C -7.556747 -11.022768 -6.046491 -9.505873 -6.047114 -7.632956 Z M -6.047114 -7.632956 " transform="matrix(-1.448376,0.390137,-0.386328,-1.449397,-0.699504,0.733522)"/>
<path style="fill-rule:nonzero;fill:rgb(94.117647%,89.019608%,92.54902%);fill-opacity:1;stroke-width:1.000002;stroke-linecap:butt;stroke-linejoin:miter;stroke:rgb(90.196079%,0.784314%,70.588237%);stroke-opacity:1;stroke-miterlimit:4;" d="M -6.047114 -7.632956 C -6.045222 -5.759361 -7.558317 -4.242352 -9.421848 -4.242676 C -11.285379 -4.243001 -12.795635 -5.759895 -12.795011 -7.632813 C -12.795058 -9.503215 -11.284479 -11.020902 -9.420278 -11.023092 C -7.556747 -11.022768 -6.046491 -9.505873 -6.047114 -7.632956 Z M -6.047114 -7.632956 " transform="matrix(-1.448376,0.390137,-0.386328,-1.449397,-0.699504,0.733522)"/>
<path style="fill:none;stroke-width:1.625429;stroke-linecap:round;stroke-linejoin:miter;stroke:rgb(90.196079%,0.784314%,70.588237%);stroke-opacity:1;stroke-miterlimit:4;" d="M 13.494215 7.169098 L 20.49551 7.169098 " transform="matrix(0.92282,0,0,0.922847,0.211326,1.505115)"/>
<path style="fill:none;stroke-width:1.625429;stroke-linecap:round;stroke-linejoin:miter;stroke:rgb(90.196079%,0.784314%,70.588237%);stroke-opacity:1;stroke-miterlimit:4;" d="M 16.994863 10.669646 L 16.994863 3.668551 " transform="matrix(0.92282,0,0,0.922847,0.211326,1.505115)"/>
<path style="fill:none;stroke-width:2.231433;stroke-linecap:round;stroke-linejoin:round;stroke:rgb(94.117647%,89.019608%,92.54902%);stroke-opacity:1;stroke-miterlimit:4;" d="M -14.999999 -5.5002 L -14.999999 -1 " transform="matrix(-1.334818,0,0,-1.354106,-13.272267,12.895894)"/>
<path style="fill-rule:nonzero;fill:rgb(94.117647%,89.019608%,92.54902%);fill-opacity:1;stroke-width:2.231433;stroke-linecap:round;stroke-linejoin:round;stroke:rgb(94.117647%,89.019608%,92.54902%);stroke-opacity:1;stroke-miterlimit:4;" d="M -16.99875 -2.001006 L -14.999999 0.00100607 L -13.001248 -2.001006 " transform="matrix(-1.334818,0,0,-1.354106,-13.272267,12.895894)"/>
<path style="fill:none;stroke-width:1.115717;stroke-linecap:round;stroke-linejoin:round;stroke:rgb(61.56863%,22.745098%,60.784316%);stroke-opacity:1;stroke-miterlimit:4;" d="M -15 -5.5002 L -15 -1 " transform="matrix(-1.334818,0,0,-1.354106,-13.272268,12.895894)"/>
<path style="fill:none;stroke-width:1.115717;stroke-linecap:round;stroke-linejoin:round;stroke:rgb(61.56863%,22.745098%,60.784316%);stroke-opacity:1;stroke-miterlimit:4;" d="M -16.998752 -2.001006 L -15 0.00100607 L -13.001249 -2.001006 " transform="matrix(-1.334818,0,0,-1.354106,-13.272268,12.895894)"/>
</g>
</svg>
