<?xml version="1.0" encoding="UTF-8"?>
<svg xmlns="http://www.w3.org/2000/svg" xmlns:xlink="http://www.w3.org/1999/xlink" width="24px" height="24px" viewBox="0 0 24 24" version="1.1">
<defs>
<filter id="alpha" filterUnits="objectBoundingBox" x="0%" y="0%" width="100%" height="100%">
  <feColorMatrix type="matrix" in="SourceGraphic" values="0 0 0 0 1 0 0 0 0 1 0 0 0 0 1 0 0 0 1 0"/>
</filter>
<mask id="mask0">
  <g filter="url(#alpha)">
<rect x="0" y="0" width="24" height="24" style="fill:rgb(0%,0%,0%);fill-opacity:0.628019;stroke:none;"/>
  </g>
</mask>
<clipPath id="clip1">
  <rect x="0" y="0" width="24" height="24"/>
</clipPath>
<g id="surface5" clip-path="url(#clip1)">
<path style=" stroke:none;fill-rule:nonzero;fill:rgb(95.294118%,71.764708%,85.09804%);fill-opacity:1;" d="M 3 3 L 21 3 L 20.929688 21.105469 L 3 21 Z M 3 3 "/>
</g>
</defs>
<g id="surface1">
<path style=" stroke:none;fill-rule:nonzero;fill:rgb(90.196079%,0.784314%,70.588237%);fill-opacity:1;" d="M 2.1875 1.5 C 1.773438 1.5 1.457031 1.867188 1.457031 2.308594 L 1.457031 21.699219 C 1.457031 22.144531 1.761719 22.503906 2.171875 22.503906 L 21.765625 22.503906 C 22.179688 22.503906 22.507812 22.144531 22.507812 21.703125 L 22.507812 2.203125 C 22.507812 1.757812 22.191406 1.5 21.777344 1.5 Z M 3 3 L 21 3 L 21 21 L 3 21 Z M 3 3 "/>
<use xlink:href="#surface5" mask="url(#mask0)"/>
</g>
</svg>
