<?xml version="1.0" encoding="UTF-8"?>
<svg xmlns="http://www.w3.org/2000/svg" xmlns:xlink="http://www.w3.org/1999/xlink" width="24px" height="24px" viewBox="0 0 24 24" version="1.1">
<g id="surface1">
<path style="fill-rule:evenodd;fill:rgb(94.117647%,89.019608%,92.54902%);fill-opacity:1;stroke-width:1;stroke-linecap:round;stroke-linejoin:round;stroke:rgb(90.196079%,0.784314%,70.588237%);stroke-opacity:1;stroke-miterlimit:4;" d="M 3.5 1.5 L 12.5 1.5 C 13.052083 1.5 13.5 1.947917 13.5 2.5 L 13.5 13.460938 C 13.5 14.013021 13.052083 14.460938 12.5 14.460938 L 3.5 14.460938 C 2.947917 14.460938 2.5 14.013021 2.5 13.460938 L 2.5 2.5 C 2.5 1.947917 2.947917 1.5 3.5 1.5 Z M 3.5 1.5 " transform="matrix(1.5,0,0,1.5,0,0)"/>
<path style=" stroke:none;fill-rule:evenodd;fill:rgb(61.56863%,22.745098%,60.784316%);fill-opacity:1;" d="M 4.5 9.75 L 4.5 12.75 L 7.5 11.25 Z M 4.5 9.75 "/>
<path style=" stroke:none;fill-rule:nonzero;fill:rgb(90.196079%,0.784314%,70.588237%);fill-opacity:1;" d="M 5.25 4.5 L 18.75 4.5 C 19.164062 4.5 19.5 4.835938 19.5 5.25 C 19.5 5.664062 19.164062 6 18.75 6 L 5.25 6 C 4.835938 6 4.5 5.664062 4.5 5.25 C 4.5 4.835938 4.835938 4.5 5.25 4.5 Z M 5.25 4.5 "/>
<path style=" stroke:none;fill-rule:nonzero;fill:rgb(90.196079%,0.784314%,70.588237%);fill-opacity:1;" d="M 5.25 7.5 L 15.75 7.5 C 16.164062 7.5 16.5 7.835938 16.5 8.25 C 16.5 8.664062 16.164062 9 15.75 9 L 5.25 9 C 4.835938 9 4.5 8.664062 4.5 8.25 C 4.5 7.835938 4.835938 7.5 5.25 7.5 Z M 5.25 7.5 "/>
<path style=" stroke:none;fill-rule:nonzero;fill:rgb(61.56863%,22.745098%,60.784316%);fill-opacity:1;" d="M 9.75 10.5 L 18.75 10.5 C 19.164062 10.5 19.5 10.835938 19.5 11.25 C 19.5 11.664062 19.164062 12 18.75 12 L 9.75 12 C 9.335938 12 9 11.664062 9 11.25 C 9 10.835938 9.335938 10.5 9.75 10.5 Z M 9.75 10.5 "/>
<path style=" stroke:none;fill-rule:nonzero;fill:rgb(61.56863%,22.745098%,60.784316%);fill-opacity:1;" d="M 5.25 13.5 L 18.75 13.5 C 19.164062 13.5 19.5 13.835938 19.5 14.25 C 19.5 14.664062 19.164062 15 18.75 15 L 5.25 15 C 4.835938 15 4.5 14.664062 4.5 14.25 C 4.5 13.835938 4.835938 13.5 5.25 13.5 Z M 5.25 13.5 "/>
<path style=" stroke:none;fill-rule:nonzero;fill:rgb(61.56863%,22.745098%,60.784316%);fill-opacity:1;" d="M 8.25 16.5 L 12.75 16.5 C 13.164062 16.5 13.5 16.835938 13.5 17.25 C 13.5 17.664062 13.164062 18 12.75 18 L 8.25 18 C 7.835938 18 7.5 17.664062 7.5 17.25 C 7.5 16.835938 7.835938 16.5 8.25 16.5 Z M 8.25 16.5 "/>
<path style=" stroke:none;fill-rule:nonzero;fill:rgb(61.56863%,22.745098%,60.784316%);fill-opacity:1;" d="M 6 19.5 L 12.75 19.5 C 13.164062 19.5 13.5 19.835938 13.5 20.25 C 13.5 20.664062 13.164062 21 12.75 21 L 6 21 C 5.585938 21 5.25 20.664062 5.25 20.25 C 5.25 19.835938 5.585938 19.5 6 19.5 Z M 6 19.5 "/>
</g>
</svg>
