<?xml version="1.0" encoding="UTF-8"?>
<svg xmlns="http://www.w3.org/2000/svg" xmlns:xlink="http://www.w3.org/1999/xlink" width="24px" height="24px" viewBox="0 0 24 24" version="1.1">
<defs>
<filter id="alpha" filterUnits="objectBoundingBox" x="0%" y="0%" width="100%" height="100%">
  <feColorMatrix type="matrix" in="SourceGraphic" values="0 0 0 0 1 0 0 0 0 1 0 0 0 0 1 0 0 0 1 0"/>
</filter>
<mask id="mask0">
  <g filter="url(#alpha)">
<rect x="0" y="0" width="24" height="24" style="fill:rgb(0%,0%,0%);fill-opacity:0.99;stroke:none;"/>
  </g>
</mask>
<clipPath id="clip1">
  <rect x="0" y="0" width="24" height="24"/>
</clipPath>
<g id="surface5" clip-path="url(#clip1)">
<path style=" stroke:none;fill-rule:nonzero;fill:rgb(90.196079%,0.784314%,70.588237%);fill-opacity:1;" d="M 22.5 21 L 22.5 22.5 L 3.75 22.5 L 3.75 21 Z M 22.5 21 "/>
</g>
<mask id="mask1">
  <g filter="url(#alpha)">
<rect x="0" y="0" width="24" height="24" style="fill:rgb(0%,0%,0%);fill-opacity:0.99;stroke:none;"/>
  </g>
</mask>
<clipPath id="clip2">
  <rect x="0" y="0" width="24" height="24"/>
</clipPath>
<g id="surface8" clip-path="url(#clip2)">
<path style=" stroke:none;fill-rule:nonzero;fill:rgb(90.196079%,0.784314%,70.588237%);fill-opacity:1;" d="M 1.320312 1.5 L 3 1.5 L 3 19.5 L 1.320312 19.5 Z M 1.320312 1.5 "/>
</g>
<mask id="mask2">
  <g filter="url(#alpha)">
<rect x="0" y="0" width="24" height="24" style="fill:rgb(0%,0%,0%);fill-opacity:0.99;stroke:none;"/>
  </g>
</mask>
<clipPath id="clip3">
  <rect x="0" y="0" width="24" height="24"/>
</clipPath>
<g id="surface11" clip-path="url(#clip3)">
<path style=" stroke:none;fill-rule:nonzero;fill:rgb(90.196079%,0.784314%,70.588237%);fill-opacity:1;" d="M 22.5 1.421875 L 22.5 3 L 7.5 3 L 7.5 1.421875 Z M 22.5 1.421875 "/>
</g>
</defs>
<g id="surface1">
<use xlink:href="#surface5" mask="url(#mask0)"/>
<path style=" stroke:none;fill-rule:nonzero;fill:rgb(95.294118%,71.764708%,85.09804%);fill-opacity:1;" d="M 4.5 1.5 L 4.5 19.5 L 6 19.5 L 6 1.5 Z M 4.5 1.5 "/>
<path style=" stroke:none;fill-rule:nonzero;fill:rgb(95.294118%,71.764708%,85.09804%);fill-opacity:1;" d="M 22.5 19.5 L 6 19.5 L 6 18 L 22.5 18 Z M 22.5 19.5 "/>
<path style=" stroke:none;fill-rule:nonzero;fill:rgb(61.56863%,22.745098%,60.784316%);fill-opacity:1;" d="M 8.691406 7.5 L 12.308594 7.5 C 12.964844 7.5 13.5 8.035156 13.5 8.691406 L 13.5 16.808594 C 13.5 17.464844 12.964844 18 12.308594 18 L 8.691406 18 C 8.035156 18 7.5 17.464844 7.5 16.808594 L 7.5 8.691406 C 7.5 8.035156 8.035156 7.5 8.691406 7.5 Z M 8.691406 7.5 "/>
<path style=" stroke:none;fill-rule:nonzero;fill:rgb(94.117647%,89.019608%,92.54902%);fill-opacity:1;" d="M 9.332031 9 L 11.667969 9 C 11.851562 9 12 9.148438 12 9.332031 L 12 16.167969 C 12 16.351562 11.851562 16.5 11.667969 16.5 L 9.332031 16.5 C 9.148438 16.5 9 16.351562 9 16.167969 L 9 9.332031 C 9 9.148438 9.148438 9 9.332031 9 Z M 9.332031 9 "/>
<path style=" stroke:none;fill-rule:nonzero;fill:rgb(61.56863%,22.745098%,60.784316%);fill-opacity:1;" d="M 16.191406 4.5 L 19.808594 4.5 C 20.464844 4.5 21 5.035156 21 5.691406 L 21 16.808594 C 21 17.464844 20.464844 18 19.808594 18 L 16.191406 18 C 15.535156 18 15 17.464844 15 16.808594 L 15 5.691406 C 15 5.035156 15.535156 4.5 16.191406 4.5 Z M 16.191406 4.5 "/>
<path style=" stroke:none;fill-rule:nonzero;fill:rgb(94.117647%,89.019608%,92.54902%);fill-opacity:1;" d="M 16.832031 6 L 19.167969 6 C 19.351562 6 19.5 6.148438 19.5 6.332031 L 19.5 16.167969 C 19.5 16.351562 19.351562 16.5 19.167969 16.5 L 16.832031 16.5 C 16.648438 16.5 16.5 16.351562 16.5 16.167969 L 16.5 6.332031 C 16.5 6.148438 16.648438 6 16.832031 6 Z M 16.832031 6 "/>
<use xlink:href="#surface8" mask="url(#mask1)"/>
<use xlink:href="#surface11" mask="url(#mask2)"/>
</g>
</svg>
