<?xml version="1.0" encoding="UTF-8"?>
<svg xmlns="http://www.w3.org/2000/svg" xmlns:xlink="http://www.w3.org/1999/xlink" width="24px" height="24px" viewBox="0 0 24 24" version="1.1">
<g id="surface1">
<path style="fill-rule:nonzero;fill:rgb(95.294118%,71.764708%,85.09804%);fill-opacity:1;stroke-width:1;stroke-linecap:round;stroke-linejoin:round;stroke:rgb(90.196079%,0.784314%,70.588237%);stroke-opacity:1;stroke-miterlimit:4;" d="M 2.408854 2.486979 C 1.890625 2.486979 1.473958 2.898438 1.473958 3.408854 L 1.473958 12.625 C 1.473958 13.135417 1.890625 13.544271 2.408854 13.544271 L 13.625 13.544271 C 14.143229 13.544271 14.559896 13.135417 14.559896 12.625 L 14.559896 3.408854 C 14.559896 2.898438 14.143229 2.486979 13.625 2.486979 C 13.625 2.997396 13.208333 3.408854 12.690104 3.408854 L 11.755208 3.408854 C 11.236979 3.408854 10.820312 2.997396 10.820312 2.486979 Z M 2.408854 2.486979 " transform="matrix(1.5,0,0,1.5,0,0)"/>
<path style="fill-rule:nonzero;fill:rgb(94.117647%,89.019608%,92.54902%);fill-opacity:1;stroke-width:0.5;stroke-linecap:round;stroke-linejoin:round;stroke:rgb(61.56863%,22.745098%,60.784316%);stroke-opacity:1;stroke-miterlimit:4;" d="M 3.815104 5.46875 L 12.322917 5.46875 C 12.875 5.46875 13.322917 5.916667 13.322917 6.46875 L 13.322917 10.783854 C 13.322917 11.335938 12.875 11.783854 12.322917 11.783854 L 3.815104 11.783854 C 3.263021 11.783854 2.815104 11.335938 2.815104 10.783854 L 2.815104 6.46875 C 2.815104 5.916667 3.263021 5.46875 3.815104 5.46875 Z M 3.815104 5.46875 " transform="matrix(1.5,0,0,1.5,0,0)"/>
<path style="fill-rule:nonzero;fill:rgb(94.117647%,89.019608%,92.54902%);fill-opacity:1;stroke-width:0.881944;stroke-linecap:round;stroke-linejoin:round;stroke:rgb(94.117647%,89.019608%,92.54902%);stroke-opacity:1;stroke-miterlimit:4;" d="M 6.416259 2.248768 C 6.416259 2.906781 5.883418 3.439622 5.225404 3.439622 C 4.567391 3.439622 4.03455 2.906781 4.03455 2.248768 C 4.03455 1.591903 4.567391 1.057913 5.225404 1.057913 C 5.883418 1.057913 6.416259 1.591903 6.416259 2.248768 Z M 6.416259 2.248768 " transform="matrix(3.401575,0,0,3.401575,-10.719917,-0.551695)"/>
<path style="fill:none;stroke-width:0.881944;stroke-linecap:round;stroke-linejoin:miter;stroke:rgb(94.117647%,89.019608%,92.54902%);stroke-opacity:1;stroke-miterlimit:4;" d="M 0.463134 1.190434 L 2.050175 1.190434 " transform="matrix(3.401575,0,0,3.401575,2.780084,3.048305)"/>
<path style="fill:none;stroke-width:0.881944;stroke-linecap:round;stroke-linejoin:miter;stroke:rgb(94.117647%,89.019608%,92.54902%);stroke-opacity:1;stroke-miterlimit:4;" d="M 1.256654 0.396914 L 1.256654 1.983955 " transform="matrix(3.401575,0,0,3.401575,2.780084,3.048305)"/>
<path style="fill-rule:nonzero;fill:rgb(94.117647%,89.019608%,92.54902%);fill-opacity:1;stroke-width:0.440972;stroke-linecap:round;stroke-linejoin:round;stroke:rgb(90.196079%,0.784314%,70.588237%);stroke-opacity:1;stroke-miterlimit:4;" d="M 6.416259 2.248768 C 6.416259 2.906781 5.883418 3.439622 5.225404 3.439622 C 4.567391 3.439622 4.03455 2.906781 4.03455 2.248768 C 4.03455 1.591903 4.567391 1.057913 5.225404 1.057913 C 5.883418 1.057913 6.416259 1.591903 6.416259 2.248768 Z M 6.416259 2.248768 " transform="matrix(3.401575,0,0,3.401575,-10.719917,-0.551695)"/>
<path style="fill:none;stroke-width:0.577701;stroke-linecap:round;stroke-linejoin:miter;stroke:rgb(61.56863%,22.745098%,60.784316%);stroke-opacity:1;stroke-miterlimit:4;" d="M 0.462422 1.190378 L 2.05081 1.190378 " transform="matrix(2.567462,0,0,2.625861,3.828374,3.971889)"/>
<path style="fill:none;stroke-width:0.577701;stroke-linecap:round;stroke-linejoin:miter;stroke:rgb(61.56863%,22.745098%,60.784316%);stroke-opacity:1;stroke-miterlimit:4;" d="M 1.256616 0.397483 L 1.256616 1.98476 " transform="matrix(2.567462,0,0,2.625861,3.828374,3.971889)"/>
</g>
</svg>
