<?xml version="1.0" encoding="UTF-8"?>
<svg xmlns="http://www.w3.org/2000/svg" xmlns:xlink="http://www.w3.org/1999/xlink" width="24px" height="24px" viewBox="0 0 24 24" version="1.1">
<g id="surface1">
<path style="fill-rule:nonzero;fill:rgb(61.56863%,22.745098%,60.784316%);fill-opacity:1;stroke-width:0.25;stroke-linecap:butt;stroke-linejoin:miter;stroke:rgb(61.56863%,22.745098%,60.784316%);stroke-opacity:1;stroke-miterlimit:4;" d="M 4.838542 4.820312 C 4.872396 4.427083 5.151042 4.143229 5.497396 4.143229 C 5.726562 4.143229 5.9375 4.268229 6.057292 4.466146 C 6.174479 4.265625 6.377604 4.143229 6.604167 4.143229 C 6.950521 4.143229 7.226562 4.427083 7.263021 4.820312 C 7.265625 4.835938 7.278646 4.927083 7.242188 5.075521 C 7.192708 5.289062 7.075521 5.484375 6.90625 5.638021 L 6.057292 6.408854 L 5.195312 5.638021 C 5.026042 5.484375 4.908854 5.289062 4.859375 5.075521 C 4.822917 4.927083 4.835938 4.835938 4.838542 4.820312 Z M 4.950521 5.054688 C 4.994792 5.25 5.101562 5.427083 5.257812 5.570312 L 6.057292 6.283854 L 6.84375 5.570312 C 6.997396 5.427083 7.104167 5.25 7.151042 5.054688 C 7.184896 4.914062 7.171875 4.835938 7.171875 4.833333 L 7.169271 4.830729 C 7.140625 4.486979 6.901042 4.236979 6.604167 4.236979 C 6.385417 4.236979 6.192708 4.372396 6.101562 4.588542 L 6.057292 4.692708 L 6.013021 4.588542 C 5.924479 4.375 5.721354 4.236979 5.494792 4.236979 C 5.197917 4.236979 4.960938 4.486979 4.929688 4.833333 C 4.929688 4.835938 4.916667 4.914062 4.950521 5.054688 Z M 4.950521 5.054688 " transform="matrix(1.5,0,0,1.5,0,0)"/>
<path style="fill-rule:evenodd;fill:rgb(94.117647%,89.019608%,92.54902%);fill-opacity:1;stroke-width:1;stroke-linecap:round;stroke-linejoin:round;stroke:rgb(90.196079%,0.784314%,70.588237%);stroke-opacity:1;stroke-miterlimit:4;" d="M 3.572917 2.192708 L 12.5 2.192708 C 13.052083 2.192708 13.5 2.638021 13.5 3.192708 L 13.5 13.466146 C 13.5 14.018229 13.052083 14.466146 12.5 14.466146 L 3.572917 14.466146 C 3.020833 14.466146 2.572917 14.018229 2.572917 13.466146 L 2.572917 3.192708 C 2.572917 2.638021 3.020833 2.192708 3.572917 2.192708 Z M 3.572917 2.192708 " transform="matrix(1.5,0,0,1.5,0,0)"/>
<path style=" stroke:none;fill-rule:nonzero;fill:rgb(90.196079%,0.784314%,70.588237%);fill-opacity:1;" d="M 3.683594 1.5 L 20.316406 1.5 C 21.523438 1.5 22.5 2.335938 22.5 3.371094 L 22.5 7.128906 C 22.5 8.164062 21.523438 9 20.316406 9 L 3.683594 9 C 2.476562 9 1.5 8.164062 1.5 7.128906 L 1.5 3.371094 C 1.5 2.335938 2.476562 1.5 3.683594 1.5 Z M 3.683594 1.5 "/>
<path style=" stroke:none;fill-rule:nonzero;fill:rgb(94.117647%,89.019608%,92.54902%);fill-opacity:1;" d="M 3 3 L 21 3 L 21 7.5 L 3 7.5 Z M 3 3 "/>
<path style=" stroke:none;fill-rule:nonzero;fill:rgb(61.56863%,22.745098%,60.784316%);fill-opacity:1;" d="M 4.523438 4.582031 L 19.476562 4.582031 C 19.488281 4.582031 19.5 4.613281 19.5 4.652344 L 19.5 5.929688 C 19.5 5.96875 19.488281 6 19.476562 6 L 4.523438 6 C 4.511719 6 4.5 5.96875 4.5 5.929688 L 4.5 4.652344 C 4.5 4.613281 4.511719 4.582031 4.523438 4.582031 Z M 4.523438 4.582031 "/>
<path style="fill:none;stroke-width:1;stroke-linecap:round;stroke-linejoin:miter;stroke:rgb(90.196079%,0.784314%,70.588237%);stroke-opacity:1;stroke-miterlimit:4;" d="M 4.5 7.5 L 11.588542 7.5 " transform="matrix(1.5,0,0,1.5,0,0)"/>
<path style="fill:none;stroke-width:1;stroke-linecap:round;stroke-linejoin:miter;stroke:rgb(90.196079%,0.784314%,70.588237%);stroke-opacity:1;stroke-miterlimit:4;" d="M 4.5 9.5 L 11.588542 9.5 " transform="matrix(1.5,0,0,1.5,0,0)"/>
<path style="fill:none;stroke-width:1;stroke-linecap:round;stroke-linejoin:miter;stroke:rgb(90.196079%,0.784314%,70.588237%);stroke-opacity:1;stroke-miterlimit:4;" d="M 4.5 11.5 L 11.588542 11.5 " transform="matrix(1.5,0,0,1.5,0,0)"/>
</g>
</svg>
