<?xml version="1.0" encoding="UTF-8"?>
<svg xmlns="http://www.w3.org/2000/svg" xmlns:xlink="http://www.w3.org/1999/xlink" width="24px" height="24px" viewBox="0 0 24 24" version="1.1">
<defs>
<filter id="alpha" filterUnits="objectBoundingBox" x="0%" y="0%" width="100%" height="100%">
  <feColorMatrix type="matrix" in="SourceGraphic" values="0 0 0 0 1 0 0 0 0 1 0 0 0 0 1 0 0 0 1 0"/>
</filter>
<mask id="mask0">
  <g filter="url(#alpha)">
<rect x="0" y="0" width="24" height="24" style="fill:rgb(0%,0%,0%);fill-opacity:0.77;stroke:none;"/>
  </g>
</mask>
<clipPath id="clip1">
  <rect x="0" y="0" width="24" height="24"/>
</clipPath>
<g id="surface5" clip-path="url(#clip1)">
<path style=" stroke:none;fill-rule:nonzero;fill:rgb(95.294118%,71.764708%,85.09804%);fill-opacity:1;" d="M 7.5 1.5 L 7.5 15 L 22.5 15 L 22.5 1.5 Z M 9 3 L 21 3 L 21 13.5 L 9 13.5 Z M 9 3 "/>
</g>
<mask id="mask1">
  <g filter="url(#alpha)">
<rect x="0" y="0" width="24" height="24" style="fill:rgb(0%,0%,0%);fill-opacity:0.77;stroke:none;"/>
  </g>
</mask>
<clipPath id="clip2">
  <rect x="0" y="0" width="24" height="24"/>
</clipPath>
<g id="surface8" clip-path="url(#clip2)">
<path style=" stroke:none;fill-rule:nonzero;fill:rgb(94.117647%,89.019608%,92.54902%);fill-opacity:1;" d="M 9 3 L 21 3 L 21 13.5 L 9 13.5 Z M 9 3 "/>
</g>
</defs>
<g id="surface1">
<path style=" stroke:none;fill-rule:nonzero;fill:rgb(90.196079%,0.784314%,70.588237%);fill-opacity:1;" d="M 3.136719 3 L 20.863281 3 C 21.765625 3 22.5 3.734375 22.5 4.636719 L 22.5 19.363281 C 22.5 20.265625 21.765625 21 20.863281 21 L 3.136719 21 C 2.234375 21 1.5 20.265625 1.5 19.363281 L 1.5 4.636719 C 1.5 3.734375 2.234375 3 3.136719 3 Z M 3.136719 3 "/>
<path style=" stroke:none;fill-rule:nonzero;fill:rgb(94.117647%,89.019608%,92.54902%);fill-opacity:1;" d="M 4.5 4.5 L 19.5 4.5 C 20.328125 4.5 21 5.171875 21 6 L 21 18 C 21 18.828125 20.328125 19.5 19.5 19.5 L 4.5 19.5 C 3.671875 19.5 3 18.828125 3 18 L 3 6 C 3 5.171875 3.671875 4.5 4.5 4.5 Z M 4.5 4.5 "/>
<path style=" stroke:none;fill-rule:nonzero;fill:rgb(90.196079%,0.784314%,70.588237%);fill-opacity:1;" d="M 6.886719 9.253906 C 6.375 9.292969 5.878906 9.53125 5.519531 9.957031 L 3 12.910156 L 3 18 C 3 18.832031 3.667969 19.5 4.5 19.5 L 19.5 19.5 C 19.589844 19.5 19.667969 19.464844 19.753906 19.449219 L 8.351562 9.730469 C 7.929688 9.367188 7.398438 9.210938 6.886719 9.253906 Z M 6.886719 9.253906 "/>
<path style=" stroke:none;fill-rule:nonzero;fill:rgb(61.56863%,22.745098%,60.784316%);fill-opacity:1;" d="M 9.695312 14.835938 C 9.261719 14.820312 8.820312 14.976562 8.480469 15.296875 L 4.078125 19.414062 C 4.214844 19.457031 4.351562 19.5 4.5 19.5 L 14.742188 19.5 L 10.878906 15.375 C 10.558594 15.03125 10.128906 14.851562 9.695312 14.835938 Z M 9.695312 14.835938 "/>
<path style=" stroke:none;fill-rule:nonzero;fill:rgb(61.56863%,22.745098%,60.784316%);fill-opacity:1;" d="M 17.578125 11.367188 C 17.191406 11.367188 16.804688 11.511719 16.503906 11.808594 L 8.976562 19.292969 C 8.914062 19.351562 8.886719 19.433594 8.839844 19.5 L 19.5 19.5 C 20.332031 19.5 21 18.832031 21 18 L 21 14.179688 L 18.652344 11.816406 C 18.355469 11.515625 17.964844 11.367188 17.578125 11.367188 Z M 17.578125 11.367188 "/>
<path style=" stroke:none;fill-rule:nonzero;fill:rgb(95.294118%,71.764708%,85.09804%);fill-opacity:1;" d="M 13.640625 14.167969 C 13.207031 14.152344 12.769531 14.300781 12.425781 14.621094 L 7.195312 19.5 L 19.292969 19.5 L 14.824219 14.707031 C 14.503906 14.363281 14.074219 14.183594 13.640625 14.167969 Z M 13.640625 14.167969 "/>
<path style=" stroke:none;fill-rule:nonzero;fill:rgb(61.56863%,22.745098%,60.784316%);fill-opacity:1;" d="M 14.363281 7.90625 C 14.363281 8.527344 13.859375 9.03125 13.238281 9.03125 C 12.617188 9.03125 12.113281 8.527344 12.113281 7.90625 C 12.113281 7.285156 12.617188 6.78125 13.238281 6.78125 C 13.859375 6.78125 14.363281 7.285156 14.363281 7.90625 Z M 14.363281 7.90625 "/>
<path style=" stroke:none;fill-rule:nonzero;fill:rgb(95.294118%,71.764708%,85.09804%);fill-opacity:1;" d="M 4.445312 15.84375 C 4.011719 15.828125 3.574219 15.984375 3.230469 16.304688 L 3 16.519531 L 3 18 C 3 18.832031 3.667969 19.5 4.5 19.5 L 8.550781 19.5 L 5.628906 16.382812 C 5.308594 16.039062 4.878906 15.859375 4.445312 15.84375 Z M 4.445312 15.84375 "/>
<path style=" stroke:none;fill-rule:nonzero;fill:rgb(90.196079%,0.784314%,70.588237%);fill-opacity:1;" d="M 18.613281 15.558594 C 18.179688 15.542969 17.738281 15.691406 17.394531 16.011719 L 13.675781 19.5 L 19.5 19.5 C 20.332031 19.5 21 18.832031 21 18 L 21 17.378906 L 19.796875 16.09375 C 19.476562 15.75 19.046875 15.570312 18.613281 15.558594 Z M 18.613281 15.558594 "/>
<use xlink:href="#surface5" mask="url(#mask0)"/>
<use xlink:href="#surface8" mask="url(#mask1)"/>
</g>
</svg>
