<?xml version="1.0" encoding="UTF-8"?>
<svg xmlns="http://www.w3.org/2000/svg" xmlns:xlink="http://www.w3.org/1999/xlink" width="24px" height="24px" viewBox="0 0 24 24" version="1.1">
<g id="surface1">
<path style=" stroke:none;fill-rule:nonzero;fill:rgb(33.333334%,34.117648%,32.549021%);fill-opacity:1;" d="M 1.5 0.75 L 1.5 21.515625 C 1.5 22.878906 6.199219 24 12 24 C 17.800781 24 22.5 22.878906 22.5 21.515625 L 22.5 0.75 C 22.5 2.113281 17.800781 3 12 3 C 6.199219 3 1.5 2.113281 1.5 0.75 Z M 4.5 7.5 L 6.75 7.5 C 8.011719 7.5 9 8.523438 9 9.75 L 9 15 L 5.25 15 C 4.566406 15 3.949219 14.730469 3.5625 14.296875 C 3.175781 13.863281 3.003906 13.289062 3 12.75 C 2.996094 12.210938 3.175781 11.640625 3.5625 11.203125 C 3.949219 10.765625 4.558594 10.5 5.25 10.5 L 7.5 10.5 L 7.5 9.75 C 7.5 9.460938 7.074219 9 6.75 9 L 4.5 9 Z M 10.5 10.5 L 13.5 10.5 C 14.183594 10.5 14.800781 10.769531 15.1875 11.203125 C 15.574219 11.636719 15.746094 12.210938 15.75 12.75 C 15.753906 13.289062 15.574219 13.859375 15.1875 14.296875 C 14.800781 14.734375 14.191406 15 13.5 15 L 12 15 L 12 18 L 10.5 18 Z M 16.5 10.5 L 19.5 10.5 C 20.183594 10.5 20.800781 10.769531 21.1875 11.203125 C 21.574219 11.636719 21.746094 12.210938 21.75 12.75 C 21.753906 13.289062 21.574219 13.859375 21.1875 14.296875 C 20.800781 14.734375 20.191406 15 19.5 15 L 18 15 L 18 18 L 16.5 18 Z M 5.25 12 C 4.933594 12 4.796875 12.109375 4.6875 12.234375 C 4.578125 12.359375 4.5 12.539062 4.5 12.75 C 4.5 12.960938 4.574219 13.136719 4.6875 13.265625 C 4.800781 13.394531 4.949219 13.5 5.25 13.5 L 7.5 13.5 L 7.5 12 Z M 12 12 L 12 13.5 L 13.5 13.5 C 13.816406 13.5 13.953125 13.390625 14.0625 13.265625 C 14.171875 13.140625 14.25 12.960938 14.25 12.75 C 14.25 12.539062 14.175781 12.363281 14.0625 12.234375 C 13.949219 12.105469 13.800781 12 13.5 12 Z M 18 12 L 18 13.5 L 19.5 13.5 C 19.816406 13.5 19.953125 13.390625 20.0625 13.265625 C 20.171875 13.140625 20.25 12.960938 20.25 12.75 C 20.25 12.539062 20.175781 12.363281 20.0625 12.234375 C 19.949219 12.105469 19.800781 12 19.5 12 Z M 18 12 "/>
</g>
</svg>
