<?xml version="1.0" encoding="UTF-8"?>
<svg xmlns="http://www.w3.org/2000/svg" xmlns:xlink="http://www.w3.org/1999/xlink" width="24px" height="24px" viewBox="0 0 24 24" version="1.1">
<g id="surface1">
<path style=" stroke:none;fill-rule:nonzero;fill:rgb(95.294118%,71.764708%,85.09804%);fill-opacity:1;" d="M 1.5 3 L 22.5 3 L 22.5 22.5 L 1.5 22.5 Z M 1.5 3 "/>
<path style=" stroke:none;fill-rule:nonzero;fill:rgb(94.117647%,89.019608%,92.54902%);fill-opacity:1;" d="M 3 4.5 L 7.5 4.5 L 7.5 8.980469 L 3 8.980469 Z M 3 4.5 "/>
<path style=" stroke:none;fill-rule:nonzero;fill:rgb(94.117647%,89.019608%,92.54902%);fill-opacity:1;" d="M 3 10.480469 L 7.519531 10.480469 L 7.519531 15 L 3 15 Z M 3 10.480469 "/>
<path style=" stroke:none;fill-rule:nonzero;fill:rgb(94.117647%,89.019608%,92.54902%);fill-opacity:1;" d="M 3 16.5 L 7.519531 16.5 L 7.519531 21 L 3 21 Z M 3 16.5 "/>
<path style=" stroke:none;fill-rule:nonzero;fill:rgb(94.117647%,89.019608%,92.54902%);fill-opacity:1;" d="M 9 4.5 L 15 4.5 L 15 8.980469 L 9 8.980469 Z M 9 4.5 "/>
<path style=" stroke:none;fill-rule:nonzero;fill:rgb(61.56863%,22.745098%,60.784316%);fill-opacity:1;" d="M 9 16.5 L 15.019531 16.5 L 15.019531 21 L 9 21 Z M 9 16.5 "/>
<path style=" stroke:none;fill-rule:nonzero;fill:rgb(94.117647%,89.019608%,92.54902%);fill-opacity:1;" d="M 16.5 4.5 L 21 4.5 L 21 8.980469 L 16.5 8.980469 Z M 16.5 4.5 "/>
<path style=" stroke:none;fill-rule:nonzero;fill:rgb(94.117647%,89.019608%,92.54902%);fill-opacity:1;" d="M 16.5 10.480469 L 21 10.480469 L 21 15 L 16.5 15 Z M 16.5 10.480469 "/>
<path style=" stroke:none;fill-rule:nonzero;fill:rgb(94.117647%,89.019608%,92.54902%);fill-opacity:1;" d="M 16.519531 16.5 L 21 16.5 L 21 21 L 16.519531 21 Z M 16.519531 16.5 "/>
<path style=" stroke:none;fill-rule:nonzero;fill:rgb(95.294118%,71.764708%,85.09804%);fill-opacity:1;" d="M 7.519531 9.75 L 16.519531 9.75 L 16.519531 11.25 L 7.519531 11.25 Z M 7.519531 9.75 "/>
<path style=" stroke:none;fill-rule:nonzero;fill:rgb(95.294118%,71.764708%,85.09804%);fill-opacity:1;" d="M 7.519531 11.25 L 9.019531 11.25 L 9.019531 17.25 L 7.519531 17.25 Z M 7.519531 11.25 "/>
<path style=" stroke:none;fill-rule:nonzero;fill:rgb(95.294118%,71.764708%,85.09804%);fill-opacity:1;" d="M 15.019531 11.25 L 16.519531 11.25 L 16.519531 15.75 L 15.019531 15.75 Z M 15.019531 11.25 "/>
<path style=" stroke:none;fill-rule:nonzero;fill:rgb(90.196079%,0.784314%,70.588237%);fill-opacity:1;" d="M 8.25 2.980469 L 21.75 2.980469 C 22.164062 2.980469 22.5 3.316406 22.5 3.730469 C 22.5 4.144531 22.164062 4.480469 21.75 4.480469 L 8.25 4.480469 C 7.835938 4.480469 7.5 4.144531 7.5 3.730469 C 7.5 3.316406 7.835938 2.980469 8.25 2.980469 Z M 8.25 2.980469 "/>
<path style=" stroke:none;fill-rule:nonzero;fill:rgb(90.196079%,0.784314%,70.588237%);fill-opacity:1;" d="M 8.25 2.980469 C 8.664062 2.980469 9 3.316406 9 3.730469 L 9 21 C 9 21.414062 8.664062 21.75 8.25 21.75 C 7.835938 21.75 7.5 21.414062 7.5 21 L 7.5 3.730469 C 7.5 3.316406 7.835938 2.980469 8.25 2.980469 Z M 8.25 2.980469 "/>
<path style=" stroke:none;fill-rule:nonzero;fill:rgb(94.117647%,89.019608%,92.54902%);fill-opacity:1;" d="M 9 10.480469 L 15.019531 10.480469 L 15.019531 15 L 9 15 Z M 9 10.480469 "/>
<path style=" stroke:none;fill-rule:nonzero;fill:rgb(90.196079%,0.784314%,70.588237%);fill-opacity:1;" d="M 21 21.730469 L 21 3.730469 C 21 3.316406 21.335938 2.980469 21.75 2.980469 C 22.164062 2.980469 22.5 3.316406 22.5 3.730469 L 22.5 21.730469 C 22.5 22.144531 22.164062 22.480469 21.75 22.480469 C 21.335938 22.480469 21 22.144531 21 21.730469 Z M 21 21.730469 "/>
<path style=" stroke:none;fill-rule:nonzero;fill:rgb(90.196079%,0.784314%,70.588237%);fill-opacity:1;" d="M 15.75 2.980469 C 16.164062 2.980469 16.5 3.316406 16.5 3.730469 L 16.5 21 C 16.5 21.414062 16.164062 21.75 15.75 21.75 C 15.335938 21.75 15 21.414062 15 21 L 15 3.730469 C 15 3.316406 15.335938 2.980469 15.75 2.980469 Z M 15.75 2.980469 "/>
<path style=" stroke:none;fill-rule:nonzero;fill:rgb(90.196079%,0.784314%,70.588237%);fill-opacity:1;" d="M 8.25 21 L 21.75 21 C 22.164062 21 22.5 21.332031 22.5 21.742188 C 22.5 22.148438 22.164062 22.480469 21.75 22.480469 L 8.25 22.480469 C 7.835938 22.480469 7.5 22.148438 7.5 21.742188 C 7.5 21.332031 7.835938 21 8.25 21 Z M 8.25 21 "/>
<path style=" stroke:none;fill-rule:nonzero;fill:rgb(61.56863%,22.745098%,60.784316%);fill-opacity:1;" d="M 8.980469 10.480469 L 15 10.480469 L 15 14.980469 L 8.980469 14.980469 Z M 8.980469 10.480469 "/>
<path style=" stroke:none;fill-rule:nonzero;fill:rgb(61.56863%,22.745098%,60.784316%);fill-opacity:1;" d="M 8.980469 4.480469 L 15 4.480469 L 15 8.980469 L 8.980469 8.980469 Z M 8.980469 4.480469 "/>
<path style="fill-rule:nonzero;fill:rgb(94.117647%,89.019608%,92.54902%);fill-opacity:1;stroke-width:2.414248;stroke-linecap:butt;stroke-linejoin:miter;stroke:rgb(94.117647%,89.019608%,92.54902%);stroke-opacity:1;stroke-miterlimit:4;" d="M -6.04547 -7.631615 C -6.046143 -5.761401 -7.55827 -4.242729 -9.420624 -4.243082 C -11.282978 -4.243435 -12.796264 -5.759995 -12.794781 -7.633245 C -12.794109 -9.503459 -11.285019 -11.022948 -9.419628 -11.021778 C -7.557274 -11.021425 -6.047026 -9.505682 -6.04547 -7.631615 Z M -6.04547 -7.631615 " transform="matrix(-1.199698,0.323239,-0.319997,-1.200866,2.859853,1.30912)"/>
<path style="fill-rule:nonzero;fill:rgb(94.117647%,89.019608%,92.54902%);fill-opacity:1;stroke-width:1.207124;stroke-linecap:butt;stroke-linejoin:miter;stroke:rgb(90.196079%,0.784314%,70.588237%);stroke-opacity:1;stroke-miterlimit:4;" d="M -6.04547 -7.631615 C -6.046143 -5.761401 -7.55827 -4.242729 -9.420624 -4.243082 C -11.282978 -4.243435 -12.796264 -5.759995 -12.794781 -7.633245 C -12.794109 -9.503459 -11.285019 -11.022948 -9.419628 -11.021778 C -7.557274 -11.021425 -6.047026 -9.505682 -6.04547 -7.631615 Z M -6.04547 -7.631615 " transform="matrix(-1.199698,0.323239,-0.319997,-1.200866,2.859853,1.30912)"/>
<path style="fill:none;stroke-width:1.96209;stroke-linecap:round;stroke-linejoin:miter;stroke:rgb(90.196079%,0.784314%,70.588237%);stroke-opacity:1;stroke-miterlimit:4;" d="M 13.495155 7.168781 L 20.49636 7.168781 " transform="matrix(0.764377,0,0,0.764604,3.614298,1.948407)"/>
<path style="fill:none;stroke-width:1.96209;stroke-linecap:round;stroke-linejoin:miter;stroke:rgb(90.196079%,0.784314%,70.588237%);stroke-opacity:1;stroke-miterlimit:4;" d="M 16.995757 10.668344 L 16.995757 3.669218 " transform="matrix(0.764377,0,0,0.764604,3.614298,1.948407)"/>
<path style="fill:none;stroke-width:3.34715;stroke-linecap:round;stroke-linejoin:round;stroke:rgb(94.117647%,89.019608%,92.54902%);stroke-opacity:1;stroke-miterlimit:4;" d="M -14.999386 -5.499208 L -14.999386 -0.999008 " transform="matrix(0.000000000000000083,1.334818,-1.354106,0.000000000000000082,12.885518,38.626917)"/>
<path style="fill:none;stroke-width:3.34715;stroke-linecap:round;stroke-linejoin:round;stroke:rgb(94.117647%,89.019608%,92.54902%);stroke-opacity:1;stroke-miterlimit:4;" d="M -17.001064 -2.000014 L -14.999386 -0.000886957 L -13.000635 -2.000014 " transform="matrix(0.000000000000000083,1.334818,-1.354106,0.000000000000000082,12.885518,38.626917)"/>
<path style="fill:none;stroke-width:2.231433;stroke-linecap:round;stroke-linejoin:round;stroke:rgb(61.56863%,22.745098%,60.784316%);stroke-opacity:1;stroke-miterlimit:4;" d="M -14.999386 -5.499209 L -14.999386 -0.999009 " transform="matrix(0,1.334818,-1.354106,0,12.885517,38.626917)"/>
<path style="fill:none;stroke-width:2.231433;stroke-linecap:round;stroke-linejoin:round;stroke:rgb(61.56863%,22.745098%,60.784316%);stroke-opacity:1;stroke-miterlimit:4;" d="M -17.001063 -2.000015 L -14.999386 -0.000887749 L -13.000635 -2.000015 " transform="matrix(0,1.334818,-1.354106,0,12.885517,38.626917)"/>
</g>
</svg>
