<?xml version="1.0" encoding="UTF-8"?>
<svg xmlns="http://www.w3.org/2000/svg" xmlns:xlink="http://www.w3.org/1999/xlink" width="24px" height="24px" viewBox="0 0 24 24" version="1.1">
<g id="surface1">
<path style="fill:none;stroke-width:10.000001;stroke-linecap:round;stroke-linejoin:miter;stroke:rgb(90.196079%,0.784314%,70.588237%);stroke-opacity:1;stroke-miterlimit:4;" d="M 78.279798 -52.909766 L 38.279793 -52.909766 " transform="matrix(-0.15,0,0,-0.15,24.441187,1.876036)"/>
<path style="fill:none;stroke-width:10.000001;stroke-linecap:round;stroke-linejoin:miter;stroke:rgb(90.196079%,0.784314%,70.588237%);stroke-opacity:1;stroke-miterlimit:4;" d="M 67.576672 -43.222264 L 67.576672 -83.22227 " transform="matrix(-0.15,0,0,-0.15,24.441187,1.876036)"/>
<path style="fill:none;stroke-width:10.000001;stroke-linecap:round;stroke-linejoin:miter;stroke:rgb(90.196079%,0.784314%,70.588237%);stroke-opacity:1;stroke-miterlimit:4;" d="M 47.628752 -42.883723 L 47.628752 -82.883728 " transform="matrix(-0.15,0,0,-0.15,24.441187,1.876036)"/>
<path style="fill:none;stroke-width:10.000001;stroke-linecap:round;stroke-linejoin:miter;stroke:rgb(90.196079%,0.784314%,70.588237%);stroke-opacity:1;stroke-miterlimit:4;" d="M 77.941256 -73.534768 L 37.941251 -73.534768 " transform="matrix(-0.15,0,0,-0.15,24.441187,1.876036)"/>
<path style="fill:none;stroke-width:1;stroke-linecap:round;stroke-linejoin:round;stroke:rgb(90.196079%,0.784314%,70.588237%);stroke-opacity:1;stroke-miterlimit:4;" d="M 1.5 3.5 L 14.5 3.5 L 14.5 12.5 L 1.5 12.5 Z M 1.5 3.5 " transform="matrix(1.5,0,0,1.5,0,0)"/>
<path style="fill:none;stroke-width:10.000001;stroke-linecap:round;stroke-linejoin:miter;stroke:rgb(90.196079%,0.784314%,70.588237%);stroke-opacity:1;stroke-miterlimit:4;" d="M 79.637436 -49.864746 L 39.637431 -49.864746 " transform="matrix(-0.15,0,0,-0.15,17.187801,3.762477)"/>
<path style="fill:none;stroke-width:10.000001;stroke-linecap:round;stroke-linejoin:miter;stroke:rgb(90.196079%,0.784314%,70.588237%);stroke-opacity:1;stroke-miterlimit:4;" d="M 68.93431 -39.031411 L 68.93431 -80.619959 " transform="matrix(-0.15,0,0,-0.15,17.187801,3.762477)"/>
<path style="fill:none;stroke-width:10.000001;stroke-linecap:round;stroke-linejoin:miter;stroke:rgb(90.196079%,0.784314%,70.588237%);stroke-opacity:1;stroke-miterlimit:4;" d="M 50.002016 -40.177245 L 50.002016 -80.17725 " transform="matrix(-0.15,0,0,-0.15,17.187801,3.762477)"/>
<path style="fill:none;stroke-width:10.000001;stroke-linecap:round;stroke-linejoin:miter;stroke:rgb(90.196079%,0.784314%,70.588237%);stroke-opacity:1;stroke-miterlimit:4;" d="M 79.637436 -70.802249 L 39.637431 -70.802249 " transform="matrix(-0.15,0,0,-0.15,17.187801,3.762477)"/>
</g>
</svg>
