<?xml version="1.0" encoding="UTF-8"?>
<svg xmlns="http://www.w3.org/2000/svg" xmlns:xlink="http://www.w3.org/1999/xlink" width="24px" height="24px" viewBox="0 0 24 24" version="1.1">
<g id="surface1">
<path style=" stroke:none;fill-rule:nonzero;fill:rgb(90.196079%,0.784314%,70.588237%);fill-opacity:1;" d="M 3 1.5 L 21 1.5 C 21.828125 1.5 22.5 2.171875 22.5 3 L 22.5 21 C 22.5 21.828125 21.828125 22.5 21 22.5 L 3 22.5 C 2.171875 22.5 1.5 21.828125 1.5 21 L 1.5 3 C 1.5 2.171875 2.171875 1.5 3 1.5 Z M 3 1.5 "/>
<path style="fill-rule:nonzero;fill:rgb(94.117647%,89.019608%,92.54902%);fill-opacity:1;stroke-width:1;stroke-linecap:butt;stroke-linejoin:round;stroke:rgb(94.117647%,89.019608%,92.54902%);stroke-opacity:1;stroke-miterlimit:4;" d="M 11.916667 13 L 3.804688 13 L 8.809896 7.981771 L 3.804688 3 L 11.817708 3 L 12.151042 5.674479 L 11.903646 5.674479 C 11.851562 5.390625 11.747396 5.117188 11.591146 4.851562 C 11.440104 4.588542 11.25 4.356771 11.023438 4.15625 C 10.796875 3.953125 10.541667 3.789062 10.257812 3.666667 C 9.973958 3.544271 9.679688 3.481771 9.377604 3.481771 L 6.617188 3.481771 C 6.513021 3.481771 6.429688 3.505208 6.367188 3.554688 C 6.309896 3.596354 6.28125 3.651042 6.28125 3.716146 C 6.28125 3.791667 6.320312 3.867188 6.395833 3.942708 L 10.101562 7.635417 L 6.049479 11.695312 L 10.697917 11.695312 C 11.018229 11.695312 11.286458 11.575521 11.5 11.338542 C 11.710938 11.098958 11.851562 10.75 11.916667 10.296875 L 12.195312 10.296875 Z M 11.916667 13 " transform="matrix(1.5,0,0,1.5,0,0)"/>
</g>
</svg>
