<?xml version="1.0" encoding="UTF-8"?>
<svg xmlns="http://www.w3.org/2000/svg" xmlns:xlink="http://www.w3.org/1999/xlink" width="24px" height="24px" viewBox="0 0 24 24" version="1.1">
<g id="surface1">
<path style=" stroke:none;fill-rule:nonzero;fill:rgb(90.196079%,0.784314%,70.588237%);fill-opacity:1;" d="M 3 1.5 L 21 1.5 C 21.828125 1.5 22.5 2.171875 22.5 3 L 22.5 21 C 22.5 21.828125 21.828125 22.5 21 22.5 L 3 22.5 C 2.171875 22.5 1.5 21.828125 1.5 21 L 1.5 3 C 1.5 2.171875 2.171875 1.5 3 1.5 Z M 3 1.5 "/>
<path style=" stroke:none;fill-rule:nonzero;fill:rgb(61.56863%,22.745098%,60.784316%);fill-opacity:1;" d="M 3.75 9 L 20.25 9 L 20.25 10.5 L 3.75 10.5 Z M 3.75 9 "/>
<path style=" stroke:none;fill-rule:nonzero;fill:rgb(94.117647%,89.019608%,92.54902%);fill-opacity:1;" d="M 3 3 L 21 3 L 21 3.75 L 3 3.75 Z M 3 3 "/>
<path style=" stroke:none;fill-rule:nonzero;fill:rgb(94.117647%,89.019608%,92.54902%);fill-opacity:1;" d="M 20.25 3.75 L 21 3.75 L 21 21 L 20.25 21 Z M 20.25 3.75 "/>
<path style=" stroke:none;fill-rule:nonzero;fill:rgb(94.117647%,89.019608%,92.54902%);fill-opacity:1;" d="M 3 20.25 L 20.25 20.25 L 20.25 21 L 3 21 Z M 3 20.25 "/>
<path style=" stroke:none;fill-rule:nonzero;fill:rgb(94.117647%,89.019608%,92.54902%);fill-opacity:1;" d="M 3 3.75 L 3.75 3.75 L 3.75 20.25 L 3 20.25 Z M 3 3.75 "/>
<path style=" stroke:none;fill-rule:nonzero;fill:rgb(94.117647%,89.019608%,92.54902%);fill-opacity:1;" d="M 3.75 6.75 L 20.25 6.75 L 20.25 7.5 L 3.75 7.5 Z M 3.75 6.75 "/>
<path style=" stroke:none;fill-rule:nonzero;fill:rgb(94.117647%,89.019608%,92.54902%);fill-opacity:1;" d="M 3.75 12 L 20.25 12 L 20.25 12.75 L 3.75 12.75 Z M 3.75 12 "/>
<path style=" stroke:none;fill-rule:nonzero;fill:rgb(94.117647%,89.019608%,92.54902%);fill-opacity:1;" d="M 3.75 15.75 L 20.25 15.75 L 20.25 16.5 L 3.75 16.5 Z M 3.75 15.75 "/>
<path style=" stroke:none;fill-rule:nonzero;fill:rgb(94.117647%,89.019608%,92.54902%);fill-opacity:1;" d="M 6 3.75 L 6.75 3.75 L 6.75 20.25 L 6 20.25 Z M 6 3.75 "/>
<path style=" stroke:none;fill-rule:nonzero;fill:rgb(61.56863%,22.745098%,60.784316%);fill-opacity:1;" d="M 7.5 9.738281 C 5.929688 10.761719 3.070312 13.21875 1.5 14.238281 L 1.5 5.238281 C 3.070312 6.261719 5.929688 8.71875 7.5 9.738281 Z M 7.5 9.738281 "/>
<path style=" stroke:none;fill-rule:nonzero;fill:rgb(94.117647%,89.019608%,92.54902%);fill-opacity:1;" d="M 3 8.25 L 3 11.230469 C 3.65625 10.714844 4.269531 10.25 4.9375 9.738281 C 4.269531 9.230469 3.65625 8.765625 3 8.25 Z M 3 8.25 "/>
<path style=" stroke:none;fill-rule:nonzero;fill:rgb(94.117647%,89.019608%,92.54902%);fill-opacity:1;" d="M 9 3.75 L 9.75 3.75 L 9.75 20.25 L 9 20.25 Z M 9 3.75 "/>
<path style=" stroke:none;fill-rule:nonzero;fill:rgb(94.117647%,89.019608%,92.54902%);fill-opacity:1;" d="M 12 3.75 L 12.75 3.75 L 12.75 20.25 L 12 20.25 Z M 12 3.75 "/>
<path style=" stroke:none;fill-rule:nonzero;fill:rgb(94.117647%,89.019608%,92.54902%);fill-opacity:1;" d="M 15 3.75 L 15.75 3.75 L 15.75 20.25 L 15 20.25 Z M 15 3.75 "/>
<path style=" stroke:none;fill-rule:nonzero;fill:rgb(94.117647%,89.019608%,92.54902%);fill-opacity:1;" d="M 18 3.75 L 18.75 3.75 L 18.75 20.25 L 18 20.25 Z M 18 3.75 "/>
</g>
</svg>
