<?xml version="1.0" encoding="UTF-8"?>
<svg xmlns="http://www.w3.org/2000/svg" xmlns:xlink="http://www.w3.org/1999/xlink" width="24px" height="24px" viewBox="0 0 24 24" version="1.1">
<g id="surface1">
<path style="fill-rule:evenodd;fill:rgb(94.117647%,89.019608%,92.54902%);fill-opacity:1;stroke-width:1;stroke-linecap:round;stroke-linejoin:round;stroke:rgb(90.196079%,0.784314%,70.588237%);stroke-opacity:1;stroke-miterlimit:4;" d="M 3.5 1.5 L 12.5 1.5 C 13.052083 1.5 13.5 1.947917 13.5 2.5 L 13.5 13.5 C 13.5 14.052083 13.052083 14.5 12.5 14.5 L 3.5 14.5 C 2.947917 14.5 2.5 14.052083 2.5 13.5 L 2.5 2.5 C 2.5 1.947917 2.947917 1.5 3.5 1.5 Z M 3.5 1.5 " transform="matrix(1.5,0,0,1.5,0,0)"/>
<path style=" stroke:none;fill-rule:nonzero;fill:rgb(94.117647%,89.019608%,92.54902%);fill-opacity:1;" d="M 4.519531 3 L 4.519531 21 L 14.269531 21 L 14.269531 15.75 L 19.519531 15.75 L 19.519531 3 Z M 4.519531 3 "/>
<path style=" stroke:none;fill-rule:nonzero;fill:rgb(90.196079%,0.784314%,70.588237%);fill-opacity:1;" d="M 5.25 4.5 L 18.75 4.5 L 18.75 5.25 L 5.25 5.25 Z M 5.25 4.5 "/>
<path style=" stroke:none;fill-rule:nonzero;fill:rgb(90.196079%,0.784314%,70.588237%);fill-opacity:1;" d="M 5.625 7.5 L 18.375 7.5 C 18.582031 7.5 18.75 7.667969 18.75 7.875 C 18.75 8.082031 18.582031 8.25 18.375 8.25 L 5.625 8.25 C 5.417969 8.25 5.25 8.082031 5.25 7.875 C 5.25 7.667969 5.417969 7.5 5.625 7.5 Z M 5.625 7.5 "/>
<path style=" stroke:none;fill-rule:nonzero;fill:rgb(90.196079%,0.784314%,70.588237%);fill-opacity:1;" d="M 5.625 14.25 L 18.375 14.25 C 18.582031 14.25 18.75 14.417969 18.75 14.625 C 18.75 14.832031 18.582031 15 18.375 15 L 5.625 15 C 5.417969 15 5.25 14.832031 5.25 14.625 C 5.25 14.417969 5.417969 14.25 5.625 14.25 Z M 5.625 14.25 "/>
<path style=" stroke:none;fill-rule:nonzero;fill:rgb(90.196079%,0.784314%,70.588237%);fill-opacity:1;" d="M 5.625 17.25 L 13.875 17.25 C 14.082031 17.25 14.25 17.417969 14.25 17.625 C 14.25 17.832031 14.082031 18 13.875 18 L 5.625 18 C 5.417969 18 5.25 17.832031 5.25 17.625 C 5.25 17.417969 5.417969 17.25 5.625 17.25 Z M 5.625 17.25 "/>
<path style=" stroke:none;fill-rule:nonzero;fill:rgb(90.196079%,0.784314%,70.588237%);fill-opacity:1;" d="M 5.625 20.25 L 13.875 20.25 C 14.082031 20.25 14.25 20.417969 14.25 20.625 C 14.25 20.832031 14.082031 21 13.875 21 L 5.625 21 C 5.417969 21 5.25 20.832031 5.25 20.625 C 5.25 20.417969 5.417969 20.25 5.625 20.25 Z M 5.625 20.25 "/>
<path style=" stroke:none;fill-rule:nonzero;fill:rgb(61.56863%,22.745098%,60.784316%);fill-opacity:1;" d="M 6 10.5 L 9.75 10.5 C 10.164062 10.5 10.5 10.835938 10.5 11.25 C 10.5 11.664062 10.164062 12 9.75 12 L 6 12 C 5.585938 12 5.25 11.664062 5.25 11.25 C 5.25 10.835938 5.585938 10.5 6 10.5 Z M 6 10.5 "/>
<path style=" stroke:none;fill-rule:nonzero;fill:rgb(61.56863%,22.745098%,60.784316%);fill-opacity:1;" d="M 14.25 10.5 L 18 10.5 C 18.414062 10.5 18.75 10.835938 18.75 11.25 C 18.75 11.664062 18.414062 12 18 12 L 14.25 12 C 13.835938 12 13.5 11.664062 13.5 11.25 C 13.5 10.835938 13.835938 10.5 14.25 10.5 Z M 14.25 10.5 "/>
</g>
</svg>
