<?xml version="1.0" encoding="UTF-8"?>
<svg xmlns="http://www.w3.org/2000/svg" xmlns:xlink="http://www.w3.org/1999/xlink" width="24px" height="24px" viewBox="0 0 24 24" version="1.1">
<g id="surface1">
<path style=" stroke:none;fill-rule:nonzero;fill:rgb(90.196079%,0.784314%,70.588237%);fill-opacity:1;" d="M 2.011719 7.5 C 1.726562 7.5 1.5 7.765625 1.5 8.09375 L 1.5 9 L 4.5 9 L 4.5 7.5 Z M 6 7.5 L 6 9 L 7.5 9 L 7.5 7.5 Z M 9 7.5 L 9 9 L 9.347656 9 C 9.3125 8.75 9.296875 8.5 9.292969 8.25 C 9.296875 8 9.3125 7.75 9.34375 7.5 Z M 1.5 10.5 L 1.5 12 L 3 12 L 3 10.5 Z M 9 10.5 L 9 11.914062 C 9.015625 11.941406 9.035156 11.972656 9.050781 12 L 10.5 12 L 10.5 11.992188 C 10.171875 11.53125 9.902344 11.03125 9.703125 10.5 Z M 1.5 13.5 L 1.5 15 L 3 15 L 3 13.5 Z M 10.160156 13.5 C 10.269531 13.617188 10.382812 13.734375 10.5 13.84375 L 10.5 13.5 Z M 12 13.5 L 12 14.9375 C 12.035156 14.960938 12.070312 14.980469 12.105469 15 L 13.5 15 L 13.5 14.292969 C 12.96875 14.097656 12.464844 13.828125 12 13.5 Z M 16.5 14.65625 C 16.25 14.6875 16 14.703125 15.75 14.707031 C 15.5 14.707031 15.25 14.691406 15 14.660156 L 15 15 L 16.5 15 Z M 1.5 16.5 L 1.5 18 L 3 18 L 3 16.5 Z M 15 16.5 L 15 18 L 16.5 18 L 16.5 16.5 Z M 1.5 19.5 L 1.5 21.90625 C 1.5 22.234375 1.726562 22.5 2.011719 22.5 L 4.5 22.5 L 4.5 21 L 3.238281 21 C 3.105469 21 3 20.871094 3 20.714844 L 3 19.5 Z M 15 19.5 L 15 22.5 L 15.988281 22.5 C 16.273438 22.5 16.5 22.234375 16.5 21.90625 L 16.5 19.5 Z M 6 21 L 6 22.5 L 7.5 22.5 L 7.5 21 Z M 9 21 L 9 22.5 L 10.5 22.5 L 10.5 21 Z M 12 21 L 12 22.5 L 13.5 22.5 L 13.5 21 Z M 12 21 "/>
<path style=" stroke:none;fill-rule:nonzero;fill:rgb(61.56863%,22.745098%,60.784316%);fill-opacity:1;" d="M 7.75 7.445312 C 7.722656 7.703125 7.707031 7.964844 7.703125 8.222656 C 7.703125 8.480469 7.71875 8.742188 7.742188 9 C 8.117188 12.78125 11.097656 15.769531 14.863281 16.140625 C 15.121094 16.167969 15.378906 16.183594 15.636719 16.183594 C 15.894531 16.183594 16.152344 16.171875 16.410156 16.144531 L 16.410156 7.972656 C 16.410156 7.679688 16.136719 7.445312 15.796875 7.445312 Z M 9.023438 9 L 14.566406 9 C 14.730469 9 14.863281 9.109375 14.863281 9.246094 L 14.863281 14.867188 C 14.863281 14.878906 13.78125 14.707031 13.5 14.554688 C 11.066406 13.722656 9.324219 11.5625 9.023438 9 Z M 9.023438 9 "/>
<path style=" stroke:none;fill-rule:nonzero;fill:rgb(95.294118%,71.764708%,85.09804%);fill-opacity:1;" d="M 8.972656 9 C 9.371094 12.148438 11.851562 14.625 15 15.023438 L 15 9.253906 C 15 9.113281 14.863281 9 14.691406 9 Z M 8.972656 9 "/>
<path style=" stroke:none;fill-rule:nonzero;fill:rgb(90.196079%,0.784314%,70.588237%);fill-opacity:1;" d="M 14.484375 1.441406 C 14.023438 1.484375 13.570312 1.574219 13.128906 1.707031 L 13.582031 2.800781 C 13.878906 2.714844 14.179688 2.65625 14.484375 2.617188 Z M 15.925781 1.445312 L 15.925781 2.582031 C 16.238281 2.621094 16.542969 2.683594 16.84375 2.769531 L 17.285156 1.707031 C 16.839844 1.578125 16.386719 1.488281 15.925781 1.445312 Z M 18.621094 2.242188 L 18.183594 3.304688 C 18.460938 3.453125 18.730469 3.621094 18.984375 3.808594 L 19.792969 3 C 19.425781 2.710938 19.035156 2.457031 18.621094 2.242188 Z M 11.789062 2.246094 C 11.378906 2.460938 10.988281 2.714844 10.625 3.003906 L 11.46875 3.847656 C 11.714844 3.660156 11.972656 3.492188 12.246094 3.34375 Z M 20.832031 4.003906 L 20.003906 4.828125 C 20.082031 4.921875 20.15625 5.019531 20.230469 5.117188 L 20.253906 5.09375 C 20.375 5.257812 20.480469 5.425781 20.582031 5.601562 L 21.636719 5.164062 C 21.40625 4.75 21.136719 4.363281 20.832031 4.003906 Z M 9.585938 4.007812 C 9.28125 4.367188 9.011719 4.753906 8.777344 5.164062 L 9.878906 5.621094 C 9.910156 5.570312 9.9375 5.515625 9.96875 5.46875 C 9.976562 5.453125 9.984375 5.441406 9.996094 5.425781 C 10.121094 5.222656 10.265625 5.023438 10.414062 4.835938 Z M 22.21875 6.484375 L 21.160156 6.921875 C 21.257812 7.238281 21.328125 7.558594 21.375 7.886719 L 22.535156 7.886719 C 22.476562 7.410156 22.371094 6.9375 22.21875 6.484375 Z M 8.195312 6.484375 C 8.042969 6.941406 7.9375 7.410156 7.875 7.886719 L 9.070312 7.886719 C 9.121094 7.566406 9.195312 7.25 9.292969 6.9375 Z M 21.402344 9.328125 C 21.371094 9.660156 21.3125 9.992188 21.226562 10.320312 L 22.324219 10.773438 C 22.457031 10.300781 22.539062 9.816406 22.578125 9.328125 Z M 20.695312 11.664062 C 20.648438 11.753906 20.597656 11.847656 20.546875 11.9375 C 20.464844 12.078125 20.375 12.210938 20.28125 12.34375 C 20.273438 12.359375 20.261719 12.375 20.25 12.390625 C 20.214844 12.4375 20.183594 12.484375 20.148438 12.527344 L 20.996094 13.378906 C 21.304688 12.988281 21.574219 12.566406 21.800781 12.121094 Z M 19.148438 13.570312 C 19.066406 13.640625 18.980469 13.710938 18.890625 13.777344 L 18.90625 13.792969 C 18.710938 13.933594 18.503906 14.0625 18.292969 14.175781 L 18.746094 15.273438 C 19.191406 15.03125 19.609375 14.742188 19.992188 14.414062 Z M 16.964844 14.734375 L 16.960938 14.738281 C 16.625 14.839844 16.277344 14.910156 15.925781 14.957031 L 15.925781 16.144531 C 16.433594 16.09375 16.933594 15.988281 17.417969 15.835938 Z M 16.964844 14.734375 "/>
</g>
</svg>
