<?xml version="1.0" encoding="UTF-8"?>
<svg xmlns="http://www.w3.org/2000/svg" xmlns:xlink="http://www.w3.org/1999/xlink" width="24px" height="24px" viewBox="0 0 24 24" version="1.1">
<g id="surface1">
<path style=" stroke:none;fill-rule:nonzero;fill:rgb(33.333334%,34.117648%,32.549021%);fill-opacity:1;" d="M 1.5 1.5 L 1.5 4.5 L 4.5 4.5 L 4.5 1.5 Z M 8.316406 1.5 C 7.863281 1.5 7.5 1.863281 7.5 2.316406 L 7.5 3.683594 C 7.5 4.136719 7.863281 4.5 8.316406 4.5 L 21.683594 4.5 C 22.136719 4.5 22.5 4.136719 22.5 3.683594 L 22.5 2.316406 C 22.5 1.863281 22.136719 1.5 21.683594 1.5 Z M 17.34375 6 L 13.921875 9.421875 C 13.640625 9.703125 13.5 10.101562 13.5 10.5 L 13.5 12 L 15 12 C 15.398438 12 15.796875 11.859375 16.078125 11.578125 L 16.5 11.15625 L 16.5 13.5 C 16.5 13.507812 16.5 13.515625 16.5 13.519531 C 16.496094 14.308594 16.183594 15.0625 15.625 15.621094 C 15.0625 16.183594 14.296875 16.5 13.5 16.5 L 11.15625 16.5 L 11.578125 16.078125 C 11.859375 15.796875 12 15.398438 12 15 L 12 13.5 L 10.5 13.5 C 10.101562 13.5 9.703125 13.640625 9.421875 13.921875 L 6 17.34375 L 6 18.65625 L 9.421875 22.078125 C 9.703125 22.359375 10.101562 22.5 10.5 22.5 L 12 22.5 L 12 21 C 12 20.601562 11.859375 20.203125 11.578125 19.921875 L 11.15625 19.5 L 13.5 19.5 C 15.089844 19.5 16.621094 18.871094 17.746094 17.746094 C 18.800781 16.691406 19.398438 15.277344 19.472656 13.796875 C 19.488281 13.710938 19.5 13.625 19.5 13.542969 C 19.5 13.527344 19.503906 13.515625 19.503906 13.5 L 19.503906 12 L 19.5 12 L 19.5 11.15625 L 19.921875 11.578125 C 20.203125 11.859375 20.601562 12 21 12 L 22.5 12 L 22.5 10.5 C 22.5 10.101562 22.359375 9.703125 22.078125 9.421875 L 18.65625 6 Z M 2.273438 7.5 C 1.84375 7.5 1.5 7.84375 1.5 8.273438 L 1.5 21.726562 C 1.5 22.15625 1.84375 22.5 2.273438 22.5 L 3.726562 22.5 C 4.15625 22.5 4.5 22.15625 4.5 21.726562 L 4.5 8.273438 C 4.5 7.84375 4.15625 7.5 3.726562 7.5 Z M 2.273438 7.5 "/>
</g>
</svg>
