<?xml version="1.0" encoding="UTF-8"?>
<svg xmlns="http://www.w3.org/2000/svg" xmlns:xlink="http://www.w3.org/1999/xlink" width="24px" height="24px" viewBox="0 0 24 24" version="1.1">
<g id="surface1">
<path style=" stroke:none;fill-rule:nonzero;fill:rgb(95.294118%,71.764708%,85.09804%);fill-opacity:1;" d="M 3 22.519531 L 3 1.519531 L 22.5 1.519531 L 22.5 22.519531 Z M 3 22.519531 "/>
<path style=" stroke:none;fill-rule:nonzero;fill:rgb(94.117647%,89.019608%,92.54902%);fill-opacity:1;" d="M 4.5 21.019531 L 4.5 16.519531 L 8.980469 16.519531 L 8.980469 21.019531 Z M 4.5 21.019531 "/>
<path style=" stroke:none;fill-rule:nonzero;fill:rgb(94.117647%,89.019608%,92.54902%);fill-opacity:1;" d="M 10.480469 21.019531 L 10.480469 16.5 L 15 16.5 L 15 21.019531 Z M 10.480469 21.019531 "/>
<path style=" stroke:none;fill-rule:nonzero;fill:rgb(94.117647%,89.019608%,92.54902%);fill-opacity:1;" d="M 16.5 21.019531 L 16.5 16.5 L 21 16.5 L 21 21.019531 Z M 16.5 21.019531 "/>
<path style=" stroke:none;fill-rule:nonzero;fill:rgb(94.117647%,89.019608%,92.54902%);fill-opacity:1;" d="M 4.5 15.019531 L 4.5 9.019531 L 8.980469 9.019531 L 8.980469 15.019531 Z M 4.5 15.019531 "/>
<path style=" stroke:none;fill-rule:nonzero;fill:rgb(61.56863%,22.745098%,60.784316%);fill-opacity:1;" d="M 16.5 15.019531 L 16.5 9 L 21 9 L 21 15.019531 Z M 16.5 15.019531 "/>
<path style=" stroke:none;fill-rule:nonzero;fill:rgb(94.117647%,89.019608%,92.54902%);fill-opacity:1;" d="M 4.5 7.519531 L 4.5 3.019531 L 8.980469 3.019531 L 8.980469 7.519531 Z M 4.5 7.519531 "/>
<path style=" stroke:none;fill-rule:nonzero;fill:rgb(94.117647%,89.019608%,92.54902%);fill-opacity:1;" d="M 10.480469 7.519531 L 10.480469 3.019531 L 15 3.019531 L 15 7.519531 Z M 10.480469 7.519531 "/>
<path style=" stroke:none;fill-rule:nonzero;fill:rgb(94.117647%,89.019608%,92.54902%);fill-opacity:1;" d="M 16.5 7.5 L 16.5 3.019531 L 21 3.019531 L 21 7.5 Z M 16.5 7.5 "/>
<path style=" stroke:none;fill-rule:nonzero;fill:rgb(95.294118%,71.764708%,85.09804%);fill-opacity:1;" d="M 9.75 16.5 L 9.75 7.5 L 11.25 7.5 L 11.25 16.5 Z M 9.75 16.5 "/>
<path style=" stroke:none;fill-rule:nonzero;fill:rgb(95.294118%,71.764708%,85.09804%);fill-opacity:1;" d="M 11.25 16.5 L 11.25 15 L 17.25 15 L 17.25 16.5 Z M 11.25 16.5 "/>
<path style=" stroke:none;fill-rule:nonzero;fill:rgb(95.294118%,71.764708%,85.09804%);fill-opacity:1;" d="M 11.25 9 L 11.25 7.5 L 15.75 7.5 L 15.75 9 Z M 11.25 9 "/>
<path style=" stroke:none;fill-rule:nonzero;fill:rgb(90.196079%,0.784314%,70.588237%);fill-opacity:1;" d="M 8.980469 15.019531 L 8.980469 8.269531 C 8.980469 7.855469 9.316406 7.519531 9.730469 7.519531 C 10.144531 7.519531 10.480469 7.855469 10.480469 8.269531 L 10.480469 15.019531 C 10.480469 15.433594 10.144531 15.769531 9.730469 15.769531 C 9.316406 15.769531 8.980469 15.433594 8.980469 15.019531 Z M 8.980469 15.019531 "/>
<path style=" stroke:none;fill-rule:nonzero;fill:rgb(90.196079%,0.784314%,70.588237%);fill-opacity:1;" d="M 8.980469 8.269531 C 8.980469 7.855469 9.316406 7.519531 9.730469 7.519531 L 21 7.519531 C 21.414062 7.519531 21.75 7.855469 21.75 8.269531 C 21.75 8.683594 21.414062 9.019531 21 9.019531 L 9.730469 9.019531 C 9.316406 9.019531 8.980469 8.683594 8.980469 8.269531 Z M 8.980469 8.269531 "/>
<path style=" stroke:none;fill-rule:nonzero;fill:rgb(94.117647%,89.019608%,92.54902%);fill-opacity:1;" d="M 10.480469 15.019531 L 10.480469 9 L 15 9 L 15 15.019531 Z M 10.480469 15.019531 "/>
<path style=" stroke:none;fill-rule:nonzero;fill:rgb(90.196079%,0.784314%,70.588237%);fill-opacity:1;" d="M 15 15.019531 L 15 8.269531 C 15 7.855469 15.335938 7.519531 15.75 7.519531 C 16.164062 7.519531 16.5 7.855469 16.5 8.269531 L 16.5 15.019531 C 16.5 15.433594 16.164062 15.769531 15.75 15.769531 C 15.335938 15.769531 15 15.433594 15 15.019531 Z M 15 15.019531 "/>
<path style=" stroke:none;fill-rule:nonzero;fill:rgb(90.196079%,0.784314%,70.588237%);fill-opacity:1;" d="M 14.980469 15.769531 C 14.980469 15.355469 15.316406 15.019531 15.730469 15.019531 L 21 15.019531 C 21.414062 15.019531 21.75 15.355469 21.75 15.769531 C 21.75 16.183594 21.414062 16.519531 21 16.519531 L 15.730469 16.519531 C 15.316406 16.519531 14.980469 16.183594 14.980469 15.769531 Z M 14.980469 15.769531 "/>
<path style=" stroke:none;fill-rule:nonzero;fill:rgb(90.196079%,0.784314%,70.588237%);fill-opacity:1;" d="M 21 15.769531 L 21 8.269531 C 21 7.855469 21.34375 7.519531 21.769531 7.519531 L 21.84375 7.519531 C 22.269531 7.519531 22.613281 7.855469 22.613281 8.269531 L 22.613281 15.769531 C 22.613281 16.183594 22.269531 16.519531 21.84375 16.519531 L 21.769531 16.519531 C 21.34375 16.519531 21 16.183594 21 15.769531 Z M 21 15.769531 "/>
<path style="fill:none;stroke-width:2;stroke-linecap:round;stroke-linejoin:round;stroke:rgb(61.56863%,22.745098%,60.784316%);stroke-opacity:1;stroke-miterlimit:4;" d="M -12.644569 3.493001 L -12.644569 7.993001 " transform="matrix(0.000000000000000092,-1.5,1.5,0.000000000000000092,-2.290283,-1.060603)"/>
<path style="fill:none;stroke-width:2;stroke-linecap:round;stroke-linejoin:round;stroke:rgb(61.56863%,22.745098%,60.784316%);stroke-opacity:1;stroke-miterlimit:4;" d="M -14.59509 7.644043 L -12.59509 9.644043 L -10.59509 7.644043 " transform="matrix(0.000000000000000092,-1.5,1.5,0.000000000000000092,-2.290283,-1.060603)"/>
<path style="fill-rule:nonzero;fill:rgb(94.117647%,89.019608%,92.54902%);fill-opacity:1;stroke-width:2.000003;stroke-linecap:butt;stroke-linejoin:miter;stroke:rgb(94.117647%,89.019608%,92.54902%);stroke-opacity:1;stroke-miterlimit:4;" d="M -6.046222 -7.633351 C -6.046846 -5.760434 -7.557425 -4.242747 -9.420956 -4.243072 C -11.284487 -4.243396 -12.794743 -5.76029 -12.794119 -7.633208 C -12.794166 -9.503611 -11.283587 -11.021297 -9.420057 -11.020973 C -7.555855 -11.023163 -6.046269 -9.503754 -6.046222 -7.633351 Z M -6.046222 -7.633351 " transform="matrix(-1.448376,0.390137,-0.386328,-1.449397,-0.68274,0.791195)"/>
<path style="fill-rule:nonzero;fill:rgb(94.117647%,89.019608%,92.54902%);fill-opacity:1;stroke-width:1.000002;stroke-linecap:butt;stroke-linejoin:miter;stroke:rgb(90.196079%,0.784314%,70.588237%);stroke-opacity:1;stroke-miterlimit:4;" d="M -6.046222 -7.633351 C -6.046846 -5.760434 -7.557425 -4.242747 -9.420956 -4.243072 C -11.284487 -4.243396 -12.794743 -5.76029 -12.794119 -7.633208 C -12.794166 -9.503611 -11.283587 -11.021297 -9.420057 -11.020973 C -7.555855 -11.023163 -6.046269 -9.503754 -6.046222 -7.633351 Z M -6.046222 -7.633351 " transform="matrix(-1.448376,0.390137,-0.386328,-1.449397,-0.68274,0.791195)"/>
<path style="fill:none;stroke-width:1.625429;stroke-linecap:round;stroke-linejoin:miter;stroke:rgb(90.196079%,0.784314%,70.588237%);stroke-opacity:1;stroke-miterlimit:4;" d="M 13.492981 7.170096 L 20.494276 7.170096 " transform="matrix(0.92282,0,0,0.922847,0.22809,1.562788)"/>
<path style="fill:none;stroke-width:1.625429;stroke-linecap:round;stroke-linejoin:miter;stroke:rgb(90.196079%,0.784314%,70.588237%);stroke-opacity:1;stroke-miterlimit:4;" d="M 16.993628 10.666411 L 16.993628 3.669549 " transform="matrix(0.92282,0,0,0.922847,0.22809,1.562788)"/>
</g>
</svg>
