<?xml version="1.0" encoding="UTF-8"?>
<svg xmlns="http://www.w3.org/2000/svg" xmlns:xlink="http://www.w3.org/1999/xlink" width="24px" height="24px" viewBox="0 0 24 24" version="1.1">
<defs>
<filter id="alpha" filterUnits="objectBoundingBox" x="0%" y="0%" width="100%" height="100%">
  <feColorMatrix type="matrix" in="SourceGraphic" values="0 0 0 0 1 0 0 0 0 1 0 0 0 0 1 0 0 0 1 0"/>
</filter>
<mask id="mask0">
  <g filter="url(#alpha)">
<rect x="0" y="0" width="24" height="24" style="fill:rgb(0%,0%,0%);fill-opacity:0.99;stroke:none;"/>
  </g>
</mask>
<clipPath id="clip1">
  <rect x="0" y="0" width="24" height="24"/>
</clipPath>
<g id="surface5" clip-path="url(#clip1)">
<path style=" stroke:none;fill-rule:nonzero;fill:rgb(90.196079%,0.784314%,70.588237%);fill-opacity:1;" d="M 21 19.5 L 3 19.5 L 3 4.5 L 21 4.5 Z M 21 19.5 "/>
</g>
<mask id="mask1">
  <g filter="url(#alpha)">
<rect x="0" y="0" width="24" height="24" style="fill:rgb(0%,0%,0%);fill-opacity:0.99;stroke:none;"/>
  </g>
</mask>
<clipPath id="clip2">
  <rect x="0" y="0" width="24" height="24"/>
</clipPath>
<g id="surface8" clip-path="url(#clip2)">
<path style=" stroke:none;fill-rule:nonzero;fill:rgb(94.117647%,89.019608%,92.54902%);fill-opacity:1;" d="M 19.5 17.25 L 4.5 17.25 L 4.5 6.75 L 19.5 6.75 Z M 19.5 17.25 "/>
</g>
</defs>
<g id="surface1">
<use xlink:href="#surface5" mask="url(#mask0)"/>
<use xlink:href="#surface8" mask="url(#mask1)"/>
<path style=" stroke:none;fill-rule:nonzero;fill:rgb(95.294118%,71.764708%,85.09804%);fill-opacity:1;" d="M 19.472656 18 L 18.75 18 L 18.75 6 L 19.472656 6 Z M 19.472656 18 "/>
<path style=" stroke:none;fill-rule:nonzero;fill:rgb(95.294118%,71.764708%,85.09804%);fill-opacity:1;" d="M 5.183594 18 L 4.5 18 L 4.5 6 L 5.183594 6 Z M 5.183594 18 "/>
<path style=" stroke:none;fill-rule:nonzero;fill:rgb(95.294118%,71.764708%,85.09804%);fill-opacity:1;" d="M 18.75 17.171875 L 18.75 18 L 5.183594 18 L 5.183594 17.171875 Z M 18.75 17.171875 "/>
<path style=" stroke:none;fill-rule:nonzero;fill:rgb(95.294118%,71.764708%,85.09804%);fill-opacity:1;" d="M 18.75 6 L 18.75 6.75 L 5.183594 6.75 L 5.183594 6 Z M 18.75 6 "/>
<path style=" stroke:none;fill-rule:nonzero;fill:rgb(90.196079%,0.784314%,70.588237%);fill-opacity:1;" d="M 3.683594 1.5 L 20.316406 1.5 C 21.523438 1.5 22.5 2.335938 22.5 3.371094 L 22.5 7.128906 C 22.5 8.164062 21.523438 9 20.316406 9 L 3.683594 9 C 2.476562 9 1.5 8.164062 1.5 7.128906 L 1.5 3.371094 C 1.5 2.335938 2.476562 1.5 3.683594 1.5 Z M 3.683594 1.5 "/>
<path style=" stroke:none;fill-rule:nonzero;fill:rgb(94.117647%,89.019608%,92.54902%);fill-opacity:1;" d="M 3 3 L 21 3 L 21 7.5 L 3 7.5 Z M 3 3 "/>
<path style=" stroke:none;fill-rule:nonzero;fill:rgb(61.56863%,22.745098%,60.784316%);fill-opacity:1;" d="M 6.023438 4.546875 L 17.976562 4.546875 C 17.988281 4.546875 18 4.578125 18 4.613281 L 18 5.929688 C 18 5.96875 17.988281 6 17.976562 6 L 6.023438 6 C 6.011719 6 6 5.96875 6 5.929688 L 6 4.613281 C 6 4.578125 6.011719 4.546875 6.023438 4.546875 Z M 6.023438 4.546875 "/>
</g>
</svg>
