<?xml version="1.0" encoding="UTF-8"?>
<svg xmlns="http://www.w3.org/2000/svg" xmlns:xlink="http://www.w3.org/1999/xlink" width="24px" height="24px" viewBox="0 0 24 24" version="1.1">
<defs>
<filter id="alpha" filterUnits="objectBoundingBox" x="0%" y="0%" width="100%" height="100%">
  <feColorMatrix type="matrix" in="SourceGraphic" values="0 0 0 0 1 0 0 0 0 1 0 0 0 0 1 0 0 0 1 0"/>
</filter>
<mask id="mask0">
  <g filter="url(#alpha)">
<rect x="0" y="0" width="24" height="24" style="fill:rgb(0%,0%,0%);fill-opacity:0.891386;stroke:none;"/>
  </g>
</mask>
<clipPath id="clip1">
  <rect x="0" y="0" width="24" height="24"/>
</clipPath>
<g id="surface5" clip-path="url(#clip1)">
<path style="fill-rule:nonzero;fill:rgb(95.294118%,71.764708%,85.09804%);fill-opacity:1;stroke-width:0.66752;stroke-linecap:round;stroke-linejoin:round;stroke:rgb(90.196079%,0.784314%,70.588237%);stroke-opacity:1;stroke-miterlimit:4;" d="M 6.726562 12.192708 L 9.791667 7.203125 L 12.835938 12.200521 Z M 6.726562 12.192708 " transform="matrix(1.5,0,0,1.5,0,0)"/>
</g>
</defs>
<g id="surface1">
<path style=" stroke:none;fill-rule:nonzero;fill:rgb(94.117647%,89.019608%,92.54902%);fill-opacity:1;" d="M 3.5625 3 L 3.5625 3.007812 L 3.066406 3.007812 C 2.394531 3.007812 1.5 3.5625 1.5 4.246094 L 1.5 19.753906 C 1.5 20.4375 2.394531 20.992188 3.066406 20.992188 L 3.5625 20.992188 L 3.5625 21 L 20.4375 21 L 20.4375 20.992188 L 20.933594 20.992188 C 21.605469 20.992188 22.5 20.4375 22.5 19.753906 L 22.5 4.246094 C 22.5 3.5625 21.605469 3.007812 20.933594 3.007812 L 20.4375 3.007812 L 20.4375 3 Z M 3.5625 3 "/>
<path style=" stroke:none;fill-rule:nonzero;fill:rgb(90.196079%,0.784314%,70.588237%);fill-opacity:1;" d="M 15.144531 5.523438 C 18.046875 5.523438 20.398438 7.75 20.398438 10.496094 C 20.398438 13.246094 18.046875 15.472656 15.144531 15.472656 C 12.238281 15.472656 9.886719 13.246094 9.886719 10.496094 C 9.886719 7.75 12.238281 5.523438 15.144531 5.523438 Z M 15.144531 5.523438 "/>
<path style=" stroke:none;fill-rule:evenodd;fill:rgb(95.294118%,71.764708%,85.09804%);fill-opacity:1;" d="M 15.144531 6.65625 C 17.382812 6.65625 19.199219 8.367188 19.199219 10.480469 C 19.199219 12.589844 17.382812 14.304688 15.144531 14.304688 C 12.902344 14.304688 11.085938 12.589844 11.085938 10.480469 C 11.085938 8.367188 12.902344 6.65625 15.144531 6.65625 Z M 15.144531 6.65625 "/>
<path style=" stroke:none;fill-rule:nonzero;fill:rgb(90.196079%,0.784314%,70.588237%);fill-opacity:1;" d="M 4.726562 7.5 L 12.972656 7.5 C 13.097656 7.5 13.199219 7.59375 13.199219 7.707031 L 13.199219 16.320312 C 13.199219 16.433594 13.097656 16.523438 12.972656 16.523438 L 4.726562 16.523438 C 4.601562 16.523438 4.5 16.433594 4.5 16.320312 L 4.5 7.707031 C 4.5 7.59375 4.601562 7.5 4.726562 7.5 Z M 4.726562 7.5 "/>
<path style=" stroke:none;fill-rule:evenodd;fill:rgb(95.294118%,71.764708%,85.09804%);fill-opacity:1;" d="M 6.136719 9 L 11.863281 9 C 11.9375 9 12 9.0625 12 9.136719 L 12 14.863281 C 12 14.9375 11.9375 15 11.863281 15 L 6.136719 15 C 6.0625 15 6 14.9375 6 14.863281 L 6 9.136719 C 6 9.0625 6.0625 9 6.136719 9 Z M 6.136719 9 "/>
<use xlink:href="#surface5" mask="url(#mask0)"/>
<path style=" stroke:none;fill-rule:nonzero;fill:rgb(90.196079%,0.784314%,70.588237%);fill-opacity:1;" d="M 3.5625 3 L 3.5625 3.007812 L 3.066406 3.007812 C 2.394531 3.007812 1.5 3.558594 1.5 4.246094 L 1.5 19.753906 C 1.5 20.441406 2.394531 20.992188 3.066406 20.992188 L 3.5625 20.992188 L 3.5625 21 L 20.4375 21 L 20.4375 20.992188 L 20.933594 20.992188 C 21.605469 20.992188 22.5 20.441406 22.5 19.753906 L 22.5 4.246094 C 22.5 3.558594 21.605469 3.007812 20.933594 3.007812 L 20.4375 3.007812 L 20.4375 3 Z M 4.453125 4.5 L 19.453125 4.5 L 19.453125 4.507812 L 19.894531 4.507812 C 20.492188 4.507812 20.984375 4.710938 20.984375 5.3125 L 21 18.507812 C 21 19.109375 20.554688 19.5 19.957031 19.5 L 19.515625 19.5 L 19.515625 19.507812 L 4.519531 19.507812 L 4.519531 19.5 L 4.074219 19.5 C 3.476562 19.5 3 19.015625 3 18.414062 L 2.984375 5.21875 C 2.984375 4.617188 3.417969 4.441406 4.011719 4.507812 L 4.453125 4.507812 Z M 4.453125 4.5 "/>
</g>
</svg>
