<?xml version="1.0" encoding="UTF-8"?>
<svg xmlns="http://www.w3.org/2000/svg" xmlns:xlink="http://www.w3.org/1999/xlink" width="24px" height="24px" viewBox="0 0 24 24" version="1.1">
<g id="surface1">
<path style="fill-rule:nonzero;fill:rgb(94.117647%,89.019608%,92.54902%);fill-opacity:1;stroke-width:1;stroke-linecap:round;stroke-linejoin:round;stroke:rgb(90.196079%,0.784314%,70.588237%);stroke-opacity:1;stroke-miterlimit:4;" d="M 3.5 1.5 L 12.5 1.5 C 13.052083 1.5 13.5 1.947917 13.5 2.5 L 13.5 13.5 C 13.5 14.052083 13.052083 14.5 12.5 14.5 L 3.5 14.5 C 2.947917 14.5 2.5 14.052083 2.5 13.5 L 2.5 2.5 C 2.5 1.947917 2.947917 1.5 3.5 1.5 Z M 3.5 1.5 " transform="matrix(1.5,0,0,1.5,0,0)"/>
<path style=" stroke:none;fill-rule:nonzero;fill:rgb(61.56863%,22.745098%,60.784316%);fill-opacity:1;" d="M 5.25 4.5 L 8.25 4.5 C 8.664062 4.5 9 4.835938 9 5.25 C 9 5.664062 8.664062 6 8.25 6 L 5.25 6 C 4.835938 6 4.5 5.664062 4.5 5.25 C 4.5 4.835938 4.835938 4.5 5.25 4.5 Z M 5.25 4.5 "/>
<path style=" stroke:none;fill-rule:nonzero;fill:rgb(90.196079%,0.784314%,70.588237%);fill-opacity:1;" d="M 9 16.5 L 9 18 L 4.5 18 L 4.5 16.5 Z M 9 16.5 "/>
<path style=" stroke:none;fill-rule:nonzero;fill:rgb(61.56863%,22.745098%,60.784316%);fill-opacity:1;" d="M 5.25 7.5 L 8.25 7.5 C 8.664062 7.5 9 7.835938 9 8.25 C 9 8.664062 8.664062 9 8.25 9 L 5.25 9 C 4.835938 9 4.5 8.664062 4.5 8.25 C 4.5 7.835938 4.835938 7.5 5.25 7.5 Z M 5.25 7.5 "/>
<path style=" stroke:none;fill-rule:nonzero;fill:rgb(61.56863%,22.745098%,60.784316%);fill-opacity:1;" d="M 5.25 10.5 L 8.25 10.5 C 8.664062 10.5 9 10.835938 9 11.25 C 9 11.664062 8.664062 12 8.25 12 L 5.25 12 C 4.835938 12 4.5 11.664062 4.5 11.25 C 4.5 10.835938 4.835938 10.5 5.25 10.5 Z M 5.25 10.5 "/>
<path style=" stroke:none;fill-rule:nonzero;fill:rgb(61.56863%,22.745098%,60.784316%);fill-opacity:1;" d="M 5.25 13.5 L 8.25 13.5 C 8.664062 13.5 9 13.835938 9 14.25 C 9 14.664062 8.664062 15 8.25 15 L 5.25 15 C 4.835938 15 4.5 14.664062 4.5 14.25 C 4.5 13.835938 4.835938 13.5 5.25 13.5 Z M 5.25 13.5 "/>
<path style=" stroke:none;fill-rule:nonzero;fill:rgb(61.56863%,22.745098%,60.784316%);fill-opacity:1;" d="M 14.25 4.5 L 18.75 4.5 C 19.164062 4.5 19.5 4.835938 19.5 5.25 C 19.5 5.664062 19.164062 6 18.75 6 L 14.25 6 C 13.835938 6 13.5 5.664062 13.5 5.25 C 13.5 4.835938 13.835938 4.5 14.25 4.5 Z M 14.25 4.5 "/>
<path style=" stroke:none;fill-rule:nonzero;fill:rgb(61.56863%,22.745098%,60.784316%);fill-opacity:1;" d="M 14.25 7.5 L 18.75 7.5 C 19.164062 7.5 19.5 7.835938 19.5 8.25 C 19.5 8.664062 19.164062 9 18.75 9 L 14.25 9 C 13.835938 9 13.5 8.664062 13.5 8.25 C 13.5 7.835938 13.835938 7.5 14.25 7.5 Z M 14.25 7.5 "/>
<path style=" stroke:none;fill-rule:nonzero;fill:rgb(61.56863%,22.745098%,60.784316%);fill-opacity:1;" d="M 14.25 10.5 L 18.75 10.5 C 19.164062 10.5 19.5 10.835938 19.5 11.25 C 19.5 11.664062 19.164062 12 18.75 12 L 14.25 12 C 13.835938 12 13.5 11.664062 13.5 11.25 C 13.5 10.835938 13.835938 10.5 14.25 10.5 Z M 14.25 10.5 "/>
<path style=" stroke:none;fill-rule:nonzero;fill:rgb(61.56863%,22.745098%,60.784316%);fill-opacity:1;" d="M 14.25 13.5 L 18.75 13.5 C 19.164062 13.5 19.5 13.835938 19.5 14.25 C 19.5 14.664062 19.164062 15 18.75 15 L 14.25 15 C 13.835938 15 13.5 14.664062 13.5 14.25 C 13.5 13.835938 13.835938 13.5 14.25 13.5 Z M 14.25 13.5 "/>
<path style=" stroke:none;fill-rule:nonzero;fill:rgb(61.56863%,22.745098%,60.784316%);fill-opacity:1;" d="M 14.25 16.5 L 18.75 16.5 C 19.164062 16.5 19.5 16.835938 19.5 17.25 C 19.5 17.664062 19.164062 18 18.75 18 L 14.25 18 C 13.835938 18 13.5 17.664062 13.5 17.25 C 13.5 16.835938 13.835938 16.5 14.25 16.5 Z M 14.25 16.5 "/>
<path style=" stroke:none;fill-rule:nonzero;fill:rgb(61.56863%,22.745098%,60.784316%);fill-opacity:1;" d="M 14.25 19.5 L 18.75 19.5 C 19.164062 19.5 19.5 19.835938 19.5 20.25 C 19.5 20.664062 19.164062 21 18.75 21 L 14.25 21 C 13.835938 21 13.5 20.664062 13.5 20.25 C 13.5 19.835938 13.835938 19.5 14.25 19.5 Z M 14.25 19.5 "/>
<path style=" stroke:none;fill-rule:nonzero;fill:rgb(90.196079%,0.784314%,70.588237%);fill-opacity:1;" d="M 13.5 3 L 13.5 4.5 L 10.5 4.5 L 10.5 19.5 L 7.5 19.5 L 7.5 18 L 6 18 L 6 21 L 12 21 L 12 6 L 13.5 6 L 13.5 7.5 L 18 5.214844 Z M 13.5 3 "/>
</g>
</svg>
