<?xml version="1.0" encoding="UTF-8"?>
<svg xmlns="http://www.w3.org/2000/svg" xmlns:xlink="http://www.w3.org/1999/xlink" width="24px" height="24px" viewBox="0 0 24 24" version="1.1">
<g id="surface1">
<path style="fill:none;stroke-width:1.076923;stroke-linecap:round;stroke-linejoin:round;stroke:rgb(61.56863%,22.745098%,60.784316%);stroke-opacity:1;stroke-miterlimit:4;" d="M 4.153846 3.079616 L 2 3.079616 L 2 14.000289 L 5.000801 14.000289 " transform="matrix(1.392857,0,0,1.392857,-0.535714,-0.539464)"/>
<path style="fill:none;stroke-width:1.076923;stroke-linecap:round;stroke-linejoin:round;stroke:rgb(61.56863%,22.745098%,60.784316%);stroke-opacity:1;stroke-miterlimit:4;" d="M 3.500401 12.00069 L 5.5 14.000289 L 3.500401 15.999888 " transform="matrix(1.392857,0,0,1.392857,-0.535714,-0.539464)"/>
<path style="fill-rule:nonzero;fill:rgb(94.117647%,89.019608%,92.54902%);fill-opacity:1;stroke-width:1.067908;stroke-linecap:round;stroke-linejoin:round;stroke:rgb(90.196079%,0.784314%,70.588237%);stroke-opacity:1;stroke-miterlimit:4;" d="M 6.61419 0.88429 L 13.951774 0.88429 C 14.530482 0.88429 15 1.371605 15 1.972248 L 15 9.587959 C 15 10.188603 14.530482 10.675917 13.951774 10.675917 L 6.61419 10.675917 C 6.035482 10.675917 5.565964 10.188603 5.565964 9.587959 L 5.565964 1.972248 C 5.565964 1.371605 6.035482 0.88429 6.61419 0.88429 Z M 6.61419 0.88429 " transform="matrix(1.430989,0,0,1.378729,0.285168,1.030804)"/>
<path style="fill:none;stroke-width:1.067908;stroke-linecap:round;stroke-linejoin:miter;stroke:rgb(61.56863%,22.745098%,60.784316%);stroke-opacity:1;stroke-miterlimit:4;" d="M 12.903548 3.060207 L 7.662416 3.060207 " transform="matrix(1.430989,0,0,1.378729,0.285168,1.030804)"/>
<path style="fill:none;stroke-width:1.067908;stroke-linecap:round;stroke-linejoin:miter;stroke:rgb(90.196079%,0.784314%,70.588237%);stroke-opacity:1;stroke-miterlimit:4;" d="M 12.161054 5.236124 L 7.662416 5.236124 " transform="matrix(1.430989,0,0,1.378729,0.285168,1.030804)"/>
<path style="fill:none;stroke-width:1.067908;stroke-linecap:round;stroke-linejoin:miter;stroke:rgb(90.196079%,0.784314%,70.588237%);stroke-opacity:1;stroke-miterlimit:4;" d="M 12.161054 7.412042 L 7.662416 7.412042 " transform="matrix(1.430989,0,0,1.378729,0.285168,1.030804)"/>
<path style="fill-rule:evenodd;fill:rgb(95.294118%,71.764708%,85.09804%);fill-opacity:1;stroke-width:1;stroke-linecap:round;stroke-linejoin:round;stroke:rgb(61.56863%,22.745098%,60.784316%);stroke-opacity:1;stroke-miterlimit:4;" d="M 8.09375 12 L 10.90625 12 C 11.234375 12 11.5 12.265625 11.5 12.59375 L 11.5 13.40625 C 11.5 13.734375 11.234375 14 10.90625 14 L 8.09375 14 C 7.765625 14 7.5 13.734375 7.5 13.40625 L 7.5 12.59375 C 7.5 12.265625 7.765625 12 8.09375 12 Z M 8.09375 12 " transform="matrix(1.5,0,0,1.5,0,0)"/>
</g>
</svg>
