<?xml version="1.0" encoding="UTF-8"?>
<svg xmlns="http://www.w3.org/2000/svg" xmlns:xlink="http://www.w3.org/1999/xlink" width="24px" height="24px" viewBox="0 0 24 24" version="1.1">
<g id="surface1">
<path style="fill-rule:nonzero;fill:rgb(95.294118%,71.764708%,85.09804%);fill-opacity:1;stroke-width:1.060069;stroke-linecap:butt;stroke-linejoin:miter;stroke:rgb(90.196079%,0.784314%,70.588237%);stroke-opacity:1;stroke-miterlimit:4;" d="M 1.869391 0.999999 L 14.130609 0.999999 C 14.610177 0.999999 15 1.46739 15 2.043477 L 15 4.956521 C 15 5.532608 14.610177 5.999999 14.130609 5.999999 L 1.869391 5.999999 C 1.389824 5.999999 1 5.532608 1 4.956521 L 1 2.043477 C 1 1.46739 1.389824 0.999999 1.869391 0.999999 Z M 1.869391 0.999999 " transform="matrix(1.392857,0,0,1.4375,0.857143,0.812502)"/>
<path style="fill-rule:nonzero;fill:rgb(95.294118%,71.764708%,85.09804%);fill-opacity:1;stroke-width:1.060069;stroke-linecap:round;stroke-linejoin:round;stroke:rgb(90.196079%,0.784314%,70.588237%);stroke-opacity:1;stroke-miterlimit:4;" d="M 1 5.173912 L 15 5.173912 L 15 13.521739 L 1 13.521739 Z M 1 5.173912 " transform="matrix(1.392857,0,0,1.4375,0.857143,0.812502)"/>
<path style=" stroke:none;fill-rule:nonzero;fill:rgb(61.56863%,22.745098%,60.784316%);fill-opacity:1;" d="M 11.144531 10.476562 L 19.5 10.476562 L 19.5 12 L 11.144531 12 Z M 11.144531 10.476562 "/>
<path style=" stroke:none;fill-rule:nonzero;fill:rgb(61.56863%,22.745098%,60.784316%);fill-opacity:1;" d="M 11.144531 16.574219 L 19.5 16.574219 L 19.5 18.101562 L 11.144531 18.101562 Z M 11.144531 16.574219 "/>
<path style=" stroke:none;fill-rule:nonzero;fill:rgb(61.56863%,22.745098%,60.784316%);fill-opacity:1;" d="M 5.570312 10.476562 L 8.355469 10.476562 L 8.355469 12 L 5.570312 12 Z M 5.570312 10.476562 "/>
<path style=" stroke:none;fill-rule:nonzero;fill:rgb(61.56863%,22.745098%,60.784316%);fill-opacity:1;" d="M 4.5 16.574219 L 7.5 16.574219 L 7.5 18.101562 L 4.5 18.101562 Z M 4.5 16.574219 "/>
<path style=" stroke:none;fill-rule:nonzero;fill:rgb(61.56863%,22.745098%,60.784316%);fill-opacity:1;" d="M 11.144531 13.523438 L 19.5 13.523438 L 19.5 15.050781 L 11.144531 15.050781 Z M 11.144531 13.523438 "/>
<path style=" stroke:none;fill-rule:nonzero;fill:rgb(61.56863%,22.745098%,60.784316%);fill-opacity:1;" d="M 4.5 13.476562 L 7.285156 13.476562 L 7.285156 15 L 4.5 15 Z M 4.5 13.476562 "/>
<path style="fill-rule:nonzero;fill:rgb(94.117647%,89.019608%,92.54902%);fill-opacity:1;stroke-width:2.000003;stroke-linecap:butt;stroke-linejoin:miter;stroke:rgb(94.117647%,89.019608%,92.54902%);stroke-opacity:1;stroke-miterlimit:4;" d="M 1.464892 -12.256429 C 1.464269 -10.383511 -0.0463105 -8.865825 -1.909841 -8.866149 C -3.773372 -8.866474 -5.283629 -10.383368 -5.283005 -12.256286 C -5.282381 -14.129203 -3.771802 -15.646889 -1.908271 -15.646565 C -0.0447406 -15.646241 1.465516 -14.129346 1.464892 -12.256429 Z M 1.464892 -12.256429 " transform="matrix(-1.448376,0.390137,-0.386328,-1.449397,0.75,-9)"/>
<path style="fill-rule:nonzero;fill:rgb(94.117647%,89.019608%,92.54902%);fill-opacity:1;stroke-width:1.000002;stroke-linecap:butt;stroke-linejoin:miter;stroke:rgb(90.196079%,0.784314%,70.588237%);stroke-opacity:1;stroke-miterlimit:4;" d="M 1.464892 -12.256429 C 1.464269 -10.383511 -0.0463105 -8.865825 -1.909841 -8.866149 C -3.773372 -8.866474 -5.283629 -10.383368 -5.283005 -12.256286 C -5.282381 -14.129203 -3.771802 -15.646889 -1.908271 -15.646565 C -0.0447406 -15.646241 1.465516 -14.129346 1.464892 -12.256429 Z M 1.464892 -12.256429 " transform="matrix(-1.448376,0.390137,-0.386328,-1.449397,0.75,-9)"/>
<path style="fill:none;stroke-width:1.625429;stroke-linecap:round;stroke-linejoin:miter;stroke:rgb(90.196079%,0.784314%,70.588237%);stroke-opacity:1;stroke-miterlimit:4;" d="M 13.493443 7.167819 L 20.494738 7.167819 " transform="matrix(0.92282,0,0,0.922847,-7.432493,1.404733)"/>
<path style="fill:none;stroke-width:1.625429;stroke-linecap:round;stroke-linejoin:miter;stroke:rgb(90.196079%,0.784314%,70.588237%);stroke-opacity:1;stroke-miterlimit:4;" d="M 16.994091 10.668366 L 16.994091 3.667272 " transform="matrix(0.92282,0,0,0.922847,-7.432493,1.404733)"/>
</g>
</svg>
