<?xml version="1.0" encoding="UTF-8"?>
<svg xmlns="http://www.w3.org/2000/svg" xmlns:xlink="http://www.w3.org/1999/xlink" width="24px" height="24px" viewBox="0 0 24 24" version="1.1">
<g id="surface1">
<path style=" stroke:none;fill-rule:nonzero;fill:rgb(95.294118%,71.764708%,85.09804%);fill-opacity:1;" d="M 1.601562 7.457031 L 22.5 7.457031 L 22.5 22.5 L 1.601562 22.5 Z M 1.601562 7.457031 "/>
<path style=" stroke:none;fill-rule:nonzero;fill:rgb(94.117647%,89.019608%,92.54902%);fill-opacity:1;" d="M 3 8.25 L 7.5 8.25 L 7.5 11.25 L 3 11.25 Z M 3 8.25 "/>
<path style=" stroke:none;fill-rule:nonzero;fill:rgb(94.117647%,89.019608%,92.54902%);fill-opacity:1;" d="M 3 13.648438 L 7.5 13.648438 L 7.5 17.75 L 3 17.75 Z M 3 13.648438 "/>
<path style=" stroke:none;fill-rule:nonzero;fill:rgb(94.117647%,89.019608%,92.54902%);fill-opacity:1;" d="M 3 19.5 L 7.5 19.5 L 7.5 22.5 L 3 22.5 Z M 3 19.5 "/>
<path style=" stroke:none;fill-rule:nonzero;fill:rgb(94.117647%,89.019608%,92.54902%);fill-opacity:1;" d="M 9 8.25 L 15 8.25 L 15 11.417969 L 9 11.417969 Z M 9 8.25 "/>
<path style=" stroke:none;fill-rule:nonzero;fill:rgb(94.117647%,89.019608%,92.54902%);fill-opacity:1;" d="M 9 19.5 L 15 19.5 L 15 22.5 L 9 22.5 Z M 9 19.5 "/>
<path style=" stroke:none;fill-rule:nonzero;fill:rgb(94.117647%,89.019608%,92.54902%);fill-opacity:1;" d="M 16.5 8.25 L 21 8.25 L 21 11.417969 L 16.5 11.417969 Z M 16.5 8.25 "/>
<path style=" stroke:none;fill-rule:nonzero;fill:rgb(94.117647%,89.019608%,92.54902%);fill-opacity:1;" d="M 16.5 13.648438 L 21 13.648438 L 21 18.039062 L 16.5 18.039062 Z M 16.5 13.648438 "/>
<path style=" stroke:none;fill-rule:nonzero;fill:rgb(94.117647%,89.019608%,92.54902%);fill-opacity:1;" d="M 16.5 19.5 L 21 19.5 L 21 22.5 L 16.5 22.5 Z M 16.5 19.5 "/>
<path style=" stroke:none;fill-rule:nonzero;fill:rgb(94.117647%,89.019608%,92.54902%);fill-opacity:1;" d="M 9 13.5 L 15 13.5 L 15 18 L 9 18 Z M 9 13.5 "/>
<path style="fill-rule:nonzero;fill:rgb(95.294118%,71.764708%,85.09804%);fill-opacity:1;stroke-width:1;stroke-linecap:round;stroke-linejoin:round;stroke:rgb(90.196079%,0.784314%,70.588237%);stroke-opacity:1;stroke-miterlimit:4;" d="M 2 2.5 L 14 2.5 C 14.276042 2.5 14.5 2.723958 14.5 3 L 14.5 5 C 14.5 5.276042 14.276042 5.5 14 5.5 L 2 5.5 C 1.723958 5.5 1.5 5.276042 1.5 5 L 1.5 3 C 1.5 2.723958 1.723958 2.5 2 2.5 Z M 2 2.5 " transform="matrix(1.5,0,0,1.5,0,0)"/>
<path style="fill-rule:nonzero;fill:rgb(94.117647%,89.019608%,92.54902%);fill-opacity:1;stroke-width:2.000003;stroke-linecap:butt;stroke-linejoin:miter;stroke:rgb(94.117647%,89.019608%,92.54902%);stroke-opacity:1;stroke-miterlimit:4;" d="M -6.047078 -7.631988 C -6.047031 -5.761585 -7.55761 -4.243899 -9.421811 -4.241708 C -11.285342 -4.242033 -12.795599 -5.758927 -12.794975 -7.631845 C -12.794351 -9.504762 -11.283772 -11.022448 -9.420242 -11.022124 C -7.556711 -11.0218 -6.046454 -9.504905 -6.047078 -7.631988 Z M -6.047078 -7.631988 " transform="matrix(-1.448376,0.390137,-0.386328,-1.449397,-0.538921,0.719286)"/>
<path style="fill-rule:nonzero;fill:rgb(94.117647%,89.019608%,92.54902%);fill-opacity:1;stroke-width:1.000002;stroke-linecap:butt;stroke-linejoin:miter;stroke:rgb(90.196079%,0.784314%,70.588237%);stroke-opacity:1;stroke-miterlimit:4;" d="M -6.047078 -7.631988 C -6.047031 -5.761585 -7.55761 -4.243899 -9.421811 -4.241708 C -11.285342 -4.242033 -12.795599 -5.758927 -12.794975 -7.631845 C -12.794351 -9.504762 -11.283772 -11.022448 -9.420242 -11.022124 C -7.556711 -11.0218 -6.046454 -9.504905 -6.047078 -7.631988 Z M -6.047078 -7.631988 " transform="matrix(-1.448376,0.390137,-0.386328,-1.449397,-0.538921,0.719286)"/>
<path style="fill:none;stroke-width:1.625429;stroke-linecap:round;stroke-linejoin:miter;stroke:rgb(90.196079%,0.784314%,70.588237%);stroke-opacity:1;stroke-miterlimit:4;" d="M 13.493753 7.167593 L 20.495048 7.167593 " transform="matrix(0.92282,0,0,0.922847,0.371909,1.490879)"/>
<path style="fill:none;stroke-width:1.625429;stroke-linecap:round;stroke-linejoin:miter;stroke:rgb(90.196079%,0.784314%,70.588237%);stroke-opacity:1;stroke-miterlimit:4;" d="M 16.994401 10.668141 L 16.994401 3.667046 " transform="matrix(0.92282,0,0,0.922847,0.371909,1.490879)"/>
</g>
</svg>
