<?xml version="1.0" encoding="UTF-8"?>
<svg xmlns="http://www.w3.org/2000/svg" xmlns:xlink="http://www.w3.org/1999/xlink" width="24px" height="24px" viewBox="0 0 24 24" version="1.1">
<defs>
<filter id="alpha" filterUnits="objectBoundingBox" x="0%" y="0%" width="100%" height="100%">
  <feColorMatrix type="matrix" in="SourceGraphic" values="0 0 0 0 1 0 0 0 0 1 0 0 0 0 1 0 0 0 1 0"/>
</filter>
<mask id="mask0">
  <g filter="url(#alpha)">
<rect x="0" y="0" width="24" height="24" style="fill:rgb(0%,0%,0%);fill-opacity:0.35;stroke:none;"/>
  </g>
</mask>
<clipPath id="clip1">
  <rect x="0" y="0" width="24" height="24"/>
</clipPath>
<g id="surface5" clip-path="url(#clip1)">
<path style=" stroke:none;fill-rule:nonzero;fill:rgb(33.333334%,34.117648%,32.549021%);fill-opacity:1;" d="M 6 10.5 L 4.5 12.703125 L 4.5 15 L 21 15 L 21 10.5 Z M 6 10.5 "/>
</g>
</defs>
<g id="surface1">
<path style=" stroke:none;fill-rule:nonzero;fill:rgb(33.333334%,34.117648%,32.549021%);fill-opacity:1;" d="M 3 3 L 3 4.5 L 4.5 6.8125 L 4.5 4.5 L 9 4.5 L 9 9 L 6 9 L 6 10.5 L 21 10.5 L 21 15 L 4.5 15 L 4.5 12.703125 L 3 15 L 3 22.5 L 22.5 22.5 L 22.5 3 Z M 10.5 4.5 L 15 4.5 L 15 9 L 10.5 9 Z M 16.5 4.5 L 21 4.5 L 21 9 L 16.5 9 Z M 0 6 L 0 13.5 L 1.125 13.5 C 1.421875 13.5 1.722656 13.40625 1.933594 13.21875 L 4.5 10.5 L 4.5 9 L 1.933594 6.28125 C 1.722656 6.09375 1.421875 6 1.125 6 Z M 4.5 16.5 L 9 16.5 L 9 21 L 4.5 21 Z M 10.5 16.5 L 15 16.5 L 15 21 L 10.5 21 Z M 16.5 16.5 L 21 16.5 L 21 21 L 16.5 21 Z M 16.5 16.5 "/>
<use xlink:href="#surface5" mask="url(#mask0)"/>
</g>
</svg>
