<?xml version="1.0" encoding="UTF-8"?>
<svg xmlns="http://www.w3.org/2000/svg" xmlns:xlink="http://www.w3.org/1999/xlink" width="24px" height="24px" viewBox="0 0 24 24" version="1.1">
<defs>
<clipPath id="clip1">
  <path d="M 7 9 L 20 9 L 20 20 L 7 20 Z M 7 9 "/>
</clipPath>
<clipPath id="clip2">
  <path d="M 3.136719 0 L 19.261719 0 C 19.363281 0 19.449219 0.0820312 19.449219 0.1875 L 19.449219 19.3125 C 19.449219 19.417969 19.363281 19.5 19.261719 19.5 L 3.136719 19.5 C 3.03125 19.5 2.949219 19.417969 2.949219 19.3125 L 2.949219 0.1875 C 2.949219 0.0820312 3.03125 0 3.136719 0 Z M 3.136719 0 "/>
</clipPath>
</defs>
<g id="surface1">
<path style="fill-rule:evenodd;fill:rgb(94.117647%,89.019608%,92.54902%);fill-opacity:1;stroke-width:1;stroke-linecap:round;stroke-linejoin:round;stroke:rgb(90.196079%,0.784314%,70.588237%);stroke-opacity:1;stroke-miterlimit:4;" d="M 3.000045 2 L 12.000045 2 C 12.552128 2 13.000045 2.447916 13.000045 3 L 13.000045 14 C 13.000045 14.552083 12.552128 15 12.000045 15 L 3.000045 15 C 2.447961 15 2.000045 14.552083 2.000045 14 L 2.000045 3 C 2.000045 2.447916 2.447961 2 3.000045 2 Z M 3.000045 2 " transform="matrix(1.5,0,0,1.5,0.699152,-0.749999)"/>
<g clip-path="url(#clip1)" clip-rule="nonzero">
<g clip-path="url(#clip2)" clip-rule="nonzero">
<path style=" stroke:none;fill-rule:nonzero;fill:rgb(61.56863%,22.745098%,60.784316%);fill-opacity:1;" d="M 27.25 14.753906 C 27.234375 13.785156 26.886719 12.796875 26.089844 12.726562 C 25.484375 12.671875 23.101562 13.613281 22.523438 13.238281 C 21.652344 12.667969 22.136719 9.363281 22.136719 9.363281 L 22.03125 9.359375 L 22.066406 9.328125 L 17.605469 9.34375 L 13.347656 9.328125 L 12.699219 9.363281 C 12.699219 10.269531 13.183594 12.585938 12.3125 13.238281 C 11.757812 13.648438 9.726562 12.671875 9.121094 12.726562 C 8.324219 12.796875 7.976562 13.785156 7.960938 14.753906 C 7.945312 15.726562 8.128906 16.335938 8.734375 16.660156 C 9.375 17.003906 11.921875 15.707031 12.375 16.226562 C 12.996094 16.945312 12.707031 18.863281 12.699219 20.25 L 17.605469 20.242188 L 22.136719 20.25 C 22.128906 18.863281 21.839844 16.945312 22.460938 16.226562 C 22.914062 15.707031 25.835938 17.003906 26.476562 16.660156 C 27.082031 16.335938 27.265625 15.726562 27.25 14.753906 Z M 27.25 14.753906 "/>
</g>
</g>
<path style="fill-rule:evenodd;fill:rgb(94.117647%,89.019608%,92.54902%);fill-opacity:1;stroke-width:3.20664;stroke-linecap:round;stroke-linejoin:round;stroke:rgb(94.117647%,89.019608%,92.54902%);stroke-opacity:1;stroke-miterlimit:4;" d="M 15.940237 8.509673 L 20.077826 8.509673 C 21.392265 8.509673 22.458697 9.597811 22.458697 10.939005 L 22.458697 20.070091 C 22.458697 21.411285 21.392265 22.499423 20.077826 22.499423 L 15.940237 22.499423 C 14.625798 22.499423 13.559366 21.411285 13.559366 20.070091 L 13.559366 10.939005 C 13.559366 9.597811 14.625798 8.509673 15.940237 8.509673 Z M 15.940237 8.509673 " transform="matrix(0.945032,0,0,0.92618,-0.216384,0.309915)"/>
<path style="fill-rule:evenodd;fill:rgb(94.117647%,89.019608%,92.54902%);fill-opacity:1;stroke-width:3.20664;stroke-linecap:round;stroke-linejoin:round;stroke:rgb(94.117647%,89.019608%,92.54902%);stroke-opacity:1;stroke-miterlimit:4;" d="M 17.878828 11.499945 L 18.118568 11.499945 C 19.433007 11.499945 20.499439 12.588083 20.499439 13.929278 L 20.499439 18.070952 C 20.499439 19.412146 19.433007 20.500285 18.118568 20.500285 L 17.878828 20.500285 C 16.564389 20.500285 15.497957 19.412146 15.497957 18.070952 L 15.497957 13.929278 C 15.497957 12.588083 16.564389 11.499945 17.878828 11.499945 Z M 17.878828 11.499945 " transform="matrix(0.945032,0,0,0.92618,-0.216384,0.309915)"/>
<path style="fill-rule:evenodd;fill:rgb(94.117647%,89.019608%,92.54902%);fill-opacity:1;stroke-width:3.20664;stroke-linecap:round;stroke-linejoin:round;stroke:rgb(94.117647%,89.019608%,92.54902%);stroke-opacity:1;stroke-miterlimit:4;" d="M 18.42031 14.186551 C 18.42031 14.414301 18.234305 14.595657 18.006965 14.595657 C 17.775491 14.599875 17.589486 14.418518 17.585352 14.190768 C 17.585352 13.963018 17.767224 13.777444 17.994564 13.773227 C 18.226038 13.773227 18.416177 13.950366 18.42031 14.178115 L 18.002831 14.186551 Z M 18.42031 14.186551 " transform="matrix(0.945032,0,0,0.92618,-0.216384,0.309915)"/>
<path style="fill:none;stroke-width:3.20664;stroke-linecap:round;stroke-linejoin:round;stroke:rgb(94.117647%,89.019608%,92.54902%);stroke-opacity:1;stroke-miterlimit:4;" d="M 17.949096 16.90268 L 17.949096 19.424799 " transform="matrix(0.945032,0,0,0.92618,-0.216384,0.309915)"/>
<path style="fill-rule:evenodd;fill:rgb(94.117647%,89.019608%,92.54902%);fill-opacity:1;stroke-width:1.60332;stroke-linecap:round;stroke-linejoin:round;stroke:rgb(90.196079%,0.784314%,70.588237%);stroke-opacity:1;stroke-miterlimit:4;" d="M 15.940237 8.509673 L 20.077826 8.509673 C 21.392265 8.509673 22.458697 9.597811 22.458697 10.939005 L 22.458697 20.070091 C 22.458697 21.411285 21.392265 22.499423 20.077826 22.499423 L 15.940237 22.499423 C 14.625798 22.499423 13.559366 21.411285 13.559366 20.070091 L 13.559366 10.939005 C 13.559366 9.597811 14.625798 8.509673 15.940237 8.509673 Z M 15.940237 8.509673 " transform="matrix(0.945032,0,0,0.92618,-0.216384,0.309915)"/>
<path style="fill-rule:evenodd;fill:rgb(95.294118%,71.764708%,85.09804%);fill-opacity:1;stroke-width:1.60332;stroke-linecap:round;stroke-linejoin:round;stroke:rgb(90.196079%,0.784314%,70.588237%);stroke-opacity:1;stroke-miterlimit:4;" d="M 17.878828 11.499945 L 18.118568 11.499945 C 19.433007 11.499945 20.499439 12.588083 20.499439 13.929278 L 20.499439 18.070952 C 20.499439 19.412146 19.433007 20.500285 18.118568 20.500285 L 17.878828 20.500285 C 16.564389 20.500285 15.497957 19.412146 15.497957 18.070952 L 15.497957 13.929278 C 15.497957 12.588083 16.564389 11.499945 17.878828 11.499945 Z M 17.878828 11.499945 " transform="matrix(0.945032,0,0,0.92618,-0.216384,0.309915)"/>
<path style="fill:none;stroke-width:1.60332;stroke-linecap:round;stroke-linejoin:round;stroke:rgb(61.56863%,22.745098%,60.784316%);stroke-opacity:1;stroke-miterlimit:4;" d="M 18.42031 14.186551 C 18.42031 14.414301 18.234305 14.595657 18.006965 14.595657 C 17.775491 14.599875 17.589486 14.418518 17.585352 14.190768 C 17.585352 13.963018 17.767224 13.777444 17.994564 13.773227 C 18.226038 13.773227 18.416177 13.950366 18.42031 14.178115 L 18.002831 14.186551 Z M 18.42031 14.186551 " transform="matrix(0.945032,0,0,0.92618,-0.216384,0.309915)"/>
<path style="fill:none;stroke-width:1.60332;stroke-linecap:round;stroke-linejoin:round;stroke:rgb(90.196079%,0.784314%,70.588237%);stroke-opacity:1;stroke-miterlimit:4;" d="M 17.949096 16.90268 L 17.949096 19.424799 " transform="matrix(0.945032,0,0,0.92618,-0.216384,0.309915)"/>
</g>
</svg>
