<?xml version="1.0" encoding="UTF-8"?>
<svg xmlns="http://www.w3.org/2000/svg" xmlns:xlink="http://www.w3.org/1999/xlink" width="24px" height="24px" viewBox="0 0 24 24" version="1.1">
<defs>
<filter id="alpha" filterUnits="objectBoundingBox" x="0%" y="0%" width="100%" height="100%">
  <feColorMatrix type="matrix" in="SourceGraphic" values="0 0 0 0 1 0 0 0 0 1 0 0 0 0 1 0 0 0 1 0"/>
</filter>
<mask id="mask0">
  <g filter="url(#alpha)">
<rect x="0" y="0" width="24" height="24" style="fill:rgb(0%,0%,0%);fill-opacity:0.35;stroke:none;"/>
  </g>
</mask>
<clipPath id="clip1">
  <rect x="0" y="0" width="24" height="24"/>
</clipPath>
<g id="surface5" clip-path="url(#clip1)">
<path style=" stroke:none;fill-rule:nonzero;fill:rgb(33.333334%,34.117648%,32.549021%);fill-opacity:1;" d="M 1.5 15 L 1.5 21 L 4.5 18 Z M 9 15 C 7.34375 15 6 16.34375 6 18 C 6 19.65625 7.34375 21 9 21 C 10.65625 21 12 19.65625 12 18 C 12 16.34375 10.65625 15 9 15 Z M 13.5 16.5 L 13.5 19.5 L 22.5 19.5 L 22.5 16.5 Z M 13.5 16.5 "/>
</g>
</defs>
<g id="surface1">
<path style=" stroke:none;fill-rule:nonzero;fill:rgb(33.333334%,34.117648%,32.549021%);fill-opacity:1;" d="M 6 1.5 L 6 4.5 L 22.5 4.5 L 22.5 1.5 Z M 9 7.5 C 7.34375 7.5 6 8.84375 6 10.5 C 6 12.15625 7.34375 13.5 9 13.5 C 10.65625 13.5 12 12.15625 12 10.5 C 12 8.84375 10.65625 7.5 9 7.5 Z M 13.5 9 L 13.5 12 L 22.5 12 L 22.5 9 Z M 13.5 9 "/>
<use xlink:href="#surface5" mask="url(#mask0)"/>
</g>
</svg>
