<?xml version="1.0" encoding="UTF-8"?>
<svg xmlns="http://www.w3.org/2000/svg" xmlns:xlink="http://www.w3.org/1999/xlink" width="24px" height="24px" viewBox="0 0 24 24" version="1.1">
<defs>
<filter id="alpha" filterUnits="objectBoundingBox" x="0%" y="0%" width="100%" height="100%">
  <feColorMatrix type="matrix" in="SourceGraphic" values="0 0 0 0 1 0 0 0 0 1 0 0 0 0 1 0 0 0 1 0"/>
</filter>
<mask id="mask0">
  <g filter="url(#alpha)">
<rect x="0" y="0" width="24" height="24" style="fill:rgb(0%,0%,0%);fill-opacity:0.426;stroke:none;"/>
  </g>
</mask>
<clipPath id="clip1">
  <rect x="0" y="0" width="24" height="24"/>
</clipPath>
<g id="surface5" clip-path="url(#clip1)">
<path style=" stroke:none;fill-rule:nonzero;fill:rgb(90.196079%,0.784314%,70.588237%);fill-opacity:1;" d="M 15.75 4.125 C 15.75 4.746094 15.246094 5.25 14.625 5.25 C 14.003906 5.25 13.5 4.746094 13.5 4.125 C 13.5 3.503906 14.003906 3 14.625 3 C 15.246094 3 15.75 3.503906 15.75 4.125 Z M 15.75 4.125 "/>
</g>
<mask id="mask1">
  <g filter="url(#alpha)">
<rect x="0" y="0" width="24" height="24" style="fill:rgb(0%,0%,0%);fill-opacity:0.426;stroke:none;"/>
  </g>
</mask>
<clipPath id="clip2">
  <rect x="0" y="0" width="24" height="24"/>
</clipPath>
<g id="surface8" clip-path="url(#clip2)">
<path style=" stroke:none;fill-rule:nonzero;fill:rgb(90.196079%,0.784314%,70.588237%);fill-opacity:1;" d="M 15.75 8.625 C 15.75 9.246094 15.246094 9.75 14.625 9.75 C 14.003906 9.75 13.5 9.246094 13.5 8.625 C 13.5 8.003906 14.003906 7.5 14.625 7.5 C 15.246094 7.5 15.75 8.003906 15.75 8.625 Z M 15.75 8.625 "/>
</g>
<mask id="mask2">
  <g filter="url(#alpha)">
<rect x="0" y="0" width="24" height="24" style="fill:rgb(0%,0%,0%);fill-opacity:0.426;stroke:none;"/>
  </g>
</mask>
<clipPath id="clip3">
  <rect x="0" y="0" width="24" height="24"/>
</clipPath>
<g id="surface11" clip-path="url(#clip3)">
<path style=" stroke:none;fill-rule:nonzero;fill:rgb(90.196079%,0.784314%,70.588237%);fill-opacity:1;" d="M 15.75 13.125 C 15.75 13.746094 15.246094 14.25 14.625 14.25 C 14.003906 14.25 13.5 13.746094 13.5 13.125 C 13.5 12.503906 14.003906 12 14.625 12 C 15.246094 12 15.75 12.503906 15.75 13.125 Z M 15.75 13.125 "/>
</g>
<mask id="mask3">
  <g filter="url(#alpha)">
<rect x="0" y="0" width="24" height="24" style="fill:rgb(0%,0%,0%);fill-opacity:0.426;stroke:none;"/>
  </g>
</mask>
<clipPath id="clip4">
  <rect x="0" y="0" width="24" height="24"/>
</clipPath>
<g id="surface14" clip-path="url(#clip4)">
<path style=" stroke:none;fill-rule:nonzero;fill:rgb(90.196079%,0.784314%,70.588237%);fill-opacity:1;" d="M 15.75 18 C 15.75 18.621094 15.246094 19.125 14.625 19.125 C 14.003906 19.125 13.5 18.621094 13.5 18 C 13.5 17.378906 14.003906 16.875 14.625 16.875 C 15.246094 16.875 15.75 17.378906 15.75 18 Z M 15.75 18 "/>
</g>
</defs>
<g id="surface1">
<path style=" stroke:none;fill-rule:nonzero;fill:rgb(95.294118%,71.764708%,85.09804%);fill-opacity:1;" d="M 1.5 1.5 L 22.5 1.5 L 22.5 21 L 1.5 21 Z M 1.5 1.5 "/>
<path style=" stroke:none;fill-rule:nonzero;fill:rgb(94.117647%,89.019608%,92.54902%);fill-opacity:1;" d="M 3.046875 2.25 L 5.953125 2.25 C 5.980469 2.25 6 2.269531 6 2.296875 L 6 5.953125 C 6 5.980469 5.980469 6 5.953125 6 L 3.046875 6 C 3.019531 6 3 5.980469 3 5.953125 L 3 2.296875 C 3 2.269531 3.019531 2.25 3.046875 2.25 Z M 3.046875 2.25 "/>
<path style=" stroke:none;fill-rule:nonzero;fill:rgb(94.117647%,89.019608%,92.54902%);fill-opacity:1;" d="M 7.5 2.25 L 16.5 2.25 L 16.5 6 L 7.5 6 Z M 7.5 2.25 "/>
<path style=" stroke:none;fill-rule:nonzero;fill:rgb(94.117647%,89.019608%,92.54902%);fill-opacity:1;" d="M 18.046875 2.25 L 20.953125 2.25 C 20.980469 2.25 21 2.269531 21 2.296875 L 21 5.953125 C 21 5.980469 20.980469 6 20.953125 6 L 18.046875 6 C 18.019531 6 18 5.980469 18 5.953125 L 18 2.296875 C 18 2.269531 18.019531 2.25 18.046875 2.25 Z M 18.046875 2.25 "/>
<path style=" stroke:none;fill-rule:nonzero;fill:rgb(94.117647%,89.019608%,92.54902%);fill-opacity:1;" d="M 3.046875 6.75 L 5.953125 6.75 C 5.980469 6.75 6 6.769531 6 6.796875 L 6 10.453125 C 6 10.480469 5.980469 10.5 5.953125 10.5 L 3.046875 10.5 C 3.019531 10.5 3 10.480469 3 10.453125 L 3 6.796875 C 3 6.769531 3.019531 6.75 3.046875 6.75 Z M 3.046875 6.75 "/>
<path style=" stroke:none;fill-rule:nonzero;fill:rgb(94.117647%,89.019608%,92.54902%);fill-opacity:1;" d="M 7.5 6.75 L 16.5 6.75 L 16.5 10.5 L 7.5 10.5 Z M 7.5 6.75 "/>
<path style=" stroke:none;fill-rule:nonzero;fill:rgb(94.117647%,89.019608%,92.54902%);fill-opacity:1;" d="M 18.046875 6.75 L 20.953125 6.75 C 20.980469 6.75 21 6.769531 21 6.796875 L 21 10.453125 C 21 10.480469 20.980469 10.5 20.953125 10.5 L 18.046875 10.5 C 18.019531 10.5 18 10.480469 18 10.453125 L 18 6.796875 C 18 6.769531 18.019531 6.75 18.046875 6.75 Z M 18.046875 6.75 "/>
<path style=" stroke:none;fill-rule:nonzero;fill:rgb(94.117647%,89.019608%,92.54902%);fill-opacity:1;" d="M 3.046875 11.25 L 5.953125 11.25 C 5.980469 11.25 6 11.269531 6 11.296875 L 6 14.953125 C 6 14.980469 5.980469 15 5.953125 15 L 3.046875 15 C 3.019531 15 3 14.980469 3 14.953125 L 3 11.296875 C 3 11.269531 3.019531 11.25 3.046875 11.25 Z M 3.046875 11.25 "/>
<path style=" stroke:none;fill-rule:nonzero;fill:rgb(94.117647%,89.019608%,92.54902%);fill-opacity:1;" d="M 7.5 11.25 L 16.5 11.25 L 16.5 15 L 7.5 15 Z M 7.5 11.25 "/>
<path style=" stroke:none;fill-rule:nonzero;fill:rgb(94.117647%,89.019608%,92.54902%);fill-opacity:1;" d="M 18.046875 11.25 L 20.953125 11.25 C 20.980469 11.25 21 11.269531 21 11.296875 L 21 14.953125 C 21 14.980469 20.980469 15 20.953125 15 L 18.046875 15 C 18.019531 15 18 14.980469 18 14.953125 L 18 11.296875 C 18 11.269531 18.019531 11.25 18.046875 11.25 Z M 18.046875 11.25 "/>
<path style=" stroke:none;fill-rule:nonzero;fill:rgb(94.117647%,89.019608%,92.54902%);fill-opacity:1;" d="M 3.046875 15.75 L 5.953125 15.75 C 5.980469 15.75 6 15.769531 6 15.796875 L 6 20.203125 C 6 20.230469 5.980469 20.25 5.953125 20.25 L 3.046875 20.25 C 3.019531 20.25 3 20.230469 3 20.203125 L 3 15.796875 C 3 15.769531 3.019531 15.75 3.046875 15.75 Z M 3.046875 15.75 "/>
<path style=" stroke:none;fill-rule:nonzero;fill:rgb(94.117647%,89.019608%,92.54902%);fill-opacity:1;" d="M 7.5 15.75 L 16.5 15.75 L 16.5 20.25 L 7.5 20.25 Z M 7.5 15.75 "/>
<path style=" stroke:none;fill-rule:nonzero;fill:rgb(94.117647%,89.019608%,92.54902%);fill-opacity:1;" d="M 18.046875 15.75 L 20.953125 15.75 C 20.980469 15.75 21 15.769531 21 15.796875 L 21 20.203125 C 21 20.230469 20.980469 20.25 20.953125 20.25 L 18.046875 20.25 C 18.019531 20.25 18 20.230469 18 20.203125 L 18 15.796875 C 18 15.769531 18.019531 15.75 18.046875 15.75 Z M 18.046875 15.75 "/>
<path style=" stroke:none;fill-rule:nonzero;fill:rgb(61.56863%,22.745098%,60.784316%);fill-opacity:1;" d="M 11.25 4.125 C 11.25 5.160156 10.410156 6 9.375 6 C 8.339844 6 7.5 5.160156 7.5 4.125 C 7.5 3.089844 8.339844 2.25 9.375 2.25 C 10.410156 2.25 11.25 3.089844 11.25 4.125 Z M 11.25 4.125 "/>
<path style=" stroke:none;fill-rule:nonzero;fill:rgb(90.196079%,0.784314%,70.588237%);fill-opacity:1;" d="M 11.25 8.625 C 11.25 9.660156 10.410156 10.5 9.375 10.5 C 8.339844 10.5 7.5 9.660156 7.5 8.625 C 7.5 7.589844 8.339844 6.75 9.375 6.75 C 10.410156 6.75 11.25 7.589844 11.25 8.625 Z M 11.25 8.625 "/>
<path style=" stroke:none;fill-rule:nonzero;fill:rgb(61.56863%,22.745098%,60.784316%);fill-opacity:1;" d="M 11.25 13.125 C 11.25 14.160156 10.410156 15 9.375 15 C 8.339844 15 7.5 14.160156 7.5 13.125 C 7.5 12.089844 8.339844 11.25 9.375 11.25 C 10.410156 11.25 11.25 12.089844 11.25 13.125 Z M 11.25 13.125 "/>
<path style=" stroke:none;fill-rule:nonzero;fill:rgb(90.196079%,0.784314%,70.588237%);fill-opacity:1;" d="M 12 18 C 12 19.242188 10.992188 20.25 9.75 20.25 C 8.507812 20.25 7.5 19.242188 7.5 18 C 7.5 16.757812 8.507812 15.75 9.75 15.75 C 10.992188 15.75 12 16.757812 12 18 Z M 12 18 "/>
<use xlink:href="#surface5" mask="url(#mask0)"/>
<use xlink:href="#surface8" mask="url(#mask1)"/>
<use xlink:href="#surface11" mask="url(#mask2)"/>
<use xlink:href="#surface14" mask="url(#mask3)"/>
</g>
</svg>
