<?xml version="1.0" encoding="UTF-8"?>
<svg xmlns="http://www.w3.org/2000/svg" xmlns:xlink="http://www.w3.org/1999/xlink" width="24px" height="24px" viewBox="0 0 24 24" version="1.1">
<defs>
<filter id="alpha" filterUnits="objectBoundingBox" x="0%" y="0%" width="100%" height="100%">
  <feColorMatrix type="matrix" in="SourceGraphic" values="0 0 0 0 1 0 0 0 0 1 0 0 0 0 1 0 0 0 1 0"/>
</filter>
<mask id="mask0">
  <g filter="url(#alpha)">
<rect x="0" y="0" width="24" height="24" style="fill:rgb(0%,0%,0%);fill-opacity:0.9;stroke:none;"/>
  </g>
</mask>
<clipPath id="clip1">
  <rect x="0" y="0" width="24" height="24"/>
</clipPath>
<g id="surface5" clip-path="url(#clip1)">
<path style=" stroke:none;fill-rule:nonzero;fill:rgb(61.56863%,22.745098%,60.784316%);fill-opacity:1;" d="M 4.5 4.5 L 4.5 15 L 19.5 15 L 19.5 4.5 Z M 4.5 4.5 "/>
</g>
</defs>
<g id="surface1">
<path style="fill-rule:evenodd;fill:rgb(94.117647%,89.019608%,92.54902%);fill-opacity:1;stroke-width:1;stroke-linecap:round;stroke-linejoin:round;stroke:rgb(90.196079%,0.784314%,70.588237%);stroke-opacity:1;stroke-miterlimit:4;" d="M 3.5 1.5 L 12.5 1.5 C 13.052083 1.5 13.5 1.947917 13.5 2.5 L 13.5 13.5 C 13.5 14.052083 13.052083 14.5 12.5 14.5 L 3.5 14.5 C 2.947917 14.5 2.5 14.052083 2.5 13.5 L 2.5 2.5 C 2.5 1.947917 2.947917 1.5 3.5 1.5 Z M 3.5 1.5 " transform="matrix(1.5,0,0,1.5,0,0)"/>
<use xlink:href="#surface5" mask="url(#mask0)"/>
<path style=" stroke:none;fill-rule:nonzero;fill:rgb(94.117647%,89.019608%,92.54902%);fill-opacity:1;" d="M 12 10.5 L 6 13.5 L 6 12 L 10.5 9.75 L 6 7.5 L 6 6 L 12 9 Z M 12 10.5 "/>
<path style=" stroke:none;fill-rule:nonzero;fill:rgb(94.117647%,89.019608%,92.54902%);fill-opacity:1;" d="M 18 13.5 L 13.5 13.5 L 13.5 12 L 18 12 Z M 18 13.5 "/>
<path style="fill-rule:nonzero;fill:rgb(94.117647%,89.019608%,92.54902%);fill-opacity:1;stroke-width:2.000003;stroke-linecap:butt;stroke-linejoin:miter;stroke:rgb(94.117647%,89.019608%,92.54902%);stroke-opacity:1;stroke-miterlimit:4;" d="M -6.046684 -7.632722 C -6.047308 -5.759805 -7.557887 -4.242119 -9.421418 -4.242443 C -11.284949 -4.242767 -12.795205 -5.759662 -12.794582 -7.632579 C -12.793958 -9.505496 -11.283379 -11.023183 -9.419848 -11.022858 C -7.556317 -11.022534 -6.046061 -9.50564 -6.046684 -7.632722 Z M -6.046684 -7.632722 " transform="matrix(-1.448376,0.390137,-0.386328,-1.449397,-0.843322,8.593067)"/>
<path style="fill-rule:nonzero;fill:rgb(94.117647%,89.019608%,92.54902%);fill-opacity:1;stroke-width:1.000002;stroke-linecap:butt;stroke-linejoin:miter;stroke:rgb(90.196079%,0.784314%,70.588237%);stroke-opacity:1;stroke-miterlimit:4;" d="M -6.046684 -7.632722 C -6.047308 -5.759805 -7.557887 -4.242119 -9.421418 -4.242443 C -11.284949 -4.242767 -12.795205 -5.759662 -12.794582 -7.632579 C -12.793958 -9.505496 -11.283379 -11.023183 -9.419848 -11.022858 C -7.556317 -11.022534 -6.046061 -9.50564 -6.046684 -7.632722 Z M -6.046684 -7.632722 " transform="matrix(-1.448376,0.390137,-0.386328,-1.449397,-0.843322,8.593067)"/>
<path style="fill:none;stroke-width:1.625429;stroke-linecap:round;stroke-linejoin:miter;stroke:rgb(90.196079%,0.784314%,70.588237%);stroke-opacity:1;stroke-miterlimit:4;" d="M 13.493443 7.168913 L 20.494738 7.168913 " transform="matrix(0.92282,0,0,0.922847,0.0675074,9.364661)"/>
<path style="fill:none;stroke-width:1.625429;stroke-linecap:round;stroke-linejoin:miter;stroke:rgb(90.196079%,0.784314%,70.588237%);stroke-opacity:1;stroke-miterlimit:4;" d="M 16.99409 10.669461 L 16.99409 3.668366 " transform="matrix(0.92282,0,0,0.922847,0.0675074,9.364661)"/>
</g>
</svg>
