<?xml version="1.0" encoding="UTF-8"?>
<svg xmlns="http://www.w3.org/2000/svg" xmlns:xlink="http://www.w3.org/1999/xlink" width="24px" height="24px" viewBox="0 0 24 24" version="1.1">
<g id="surface1">
<path style="fill-rule:evenodd;fill:rgb(94.117647%,89.019608%,92.54902%);fill-opacity:1;stroke-width:1;stroke-linecap:round;stroke-linejoin:round;stroke:rgb(90.196079%,0.784314%,70.588237%);stroke-opacity:1;stroke-miterlimit:4;" d="M 3.5 1.5 L 12.5 1.5 C 13.052083 1.5 13.5 1.947917 13.5 2.5 L 13.5 13.5 C 13.5 14.052083 13.052083 14.5 12.5 14.5 L 3.5 14.5 C 2.947917 14.5 2.5 14.052083 2.5 13.5 L 2.5 2.5 C 2.5 1.947917 2.947917 1.5 3.5 1.5 Z M 3.5 1.5 " transform="matrix(1.5,0,0,1.5,0,0)"/>
<path style=" stroke:none;fill-rule:nonzero;fill:rgb(61.56863%,22.745098%,60.784316%);fill-opacity:1;" d="M 6.75 4.5 L 17.25 4.5 C 17.664062 4.5 18 4.835938 18 5.25 L 18 6.75 C 18 7.164062 17.664062 7.5 17.25 7.5 L 6.75 7.5 C 6.335938 7.5 6 7.164062 6 6.75 L 6 5.25 C 6 4.835938 6.335938 4.5 6.75 4.5 Z M 6.75 4.5 "/>
</g>
</svg>
