<?xml version="1.0" encoding="UTF-8"?>
<svg xmlns="http://www.w3.org/2000/svg" xmlns:xlink="http://www.w3.org/1999/xlink" width="24px" height="24px" viewBox="0 0 24 24" version="1.1">
<defs>
<clipPath id="clip1">
  <path d="M 8 9 L 20 9 L 20 20 L 8 20 Z M 8 9 "/>
</clipPath>
<clipPath id="clip2">
  <path d="M 3.1875 0 L 19.3125 0 C 19.417969 0 19.5 0.0820312 19.5 0.1875 L 19.5 19.3125 C 19.5 19.417969 19.417969 19.5 19.3125 19.5 L 3.1875 19.5 C 3.082031 19.5 3 19.417969 3 19.3125 L 3 0.1875 C 3 0.0820312 3.082031 0 3.1875 0 Z M 3.1875 0 "/>
</clipPath>
</defs>
<g id="surface1">
<path style="fill-rule:evenodd;fill:rgb(94.117647%,89.019608%,92.54902%);fill-opacity:1;stroke-width:1;stroke-linecap:round;stroke-linejoin:round;stroke:rgb(90.196079%,0.784314%,70.588237%);stroke-opacity:1;stroke-miterlimit:4;" d="M 3.5 1.5 L 12.5 1.5 C 13.052083 1.5 13.5 1.947917 13.5 2.5 L 13.5 13.5 C 13.5 14.052083 13.052083 14.5 12.5 14.5 L 3.5 14.5 C 2.947917 14.5 2.5 14.052083 2.5 13.5 L 2.5 2.5 C 2.5 1.947917 2.947917 1.5 3.5 1.5 Z M 3.5 1.5 " transform="matrix(1.5,0,0,1.5,0,0)"/>
<g clip-path="url(#clip1)" clip-rule="nonzero">
<g clip-path="url(#clip2)" clip-rule="nonzero">
<path style=" stroke:none;fill-rule:nonzero;fill:rgb(61.56863%,22.745098%,60.784316%);fill-opacity:1;" d="M 27.300781 14.753906 C 27.285156 13.785156 26.9375 12.796875 26.140625 12.726562 C 25.535156 12.671875 23.15625 13.613281 22.574219 13.238281 C 21.703125 12.667969 22.1875 9.363281 22.1875 9.363281 L 22.082031 9.359375 L 22.117188 9.328125 L 17.65625 9.34375 L 13.398438 9.328125 L 12.75 9.363281 C 12.75 10.269531 13.234375 12.585938 12.363281 13.238281 C 11.808594 13.648438 9.777344 12.671875 9.171875 12.726562 C 8.375 12.796875 8.027344 13.785156 8.011719 14.753906 C 7.996094 15.726562 8.179688 16.335938 8.785156 16.660156 C 9.425781 17.003906 11.972656 15.707031 12.425781 16.226562 C 13.046875 16.945312 12.757812 18.863281 12.75 20.25 L 17.65625 20.242188 L 22.1875 20.25 C 22.179688 18.863281 21.890625 16.945312 22.511719 16.226562 C 22.964844 15.707031 25.886719 17.003906 26.527344 16.660156 C 27.132812 16.335938 27.316406 15.726562 27.300781 14.753906 Z M 27.300781 14.753906 "/>
</g>
</g>
</g>
</svg>
