<?xml version="1.0" encoding="UTF-8"?>
<svg xmlns="http://www.w3.org/2000/svg" xmlns:xlink="http://www.w3.org/1999/xlink" width="24px" height="24px" viewBox="0 0 24 24" version="1.1">
<g id="surface1">
<path style=" stroke:none;fill-rule:nonzero;fill:rgb(33.333334%,34.117648%,32.549021%);fill-opacity:1;" d="M 3 1.5 L 3 9 L 6 9 L 6 4.5 L 13.5 4.5 L 13.5 9 L 21 9 L 21 7.5 L 15 1.5 Z M 3 10.5 L 3 12 L 1.5 12 L 1.5 13.5 L 3 13.5 L 3 16.5 L 1.5 16.5 L 1.5 18 L 3 18 L 3 19.5 L 4.5 19.5 L 4.5 18 L 7.5 18 L 7.5 19.5 L 9 19.5 L 9 18 L 10.5 18 L 10.5 16.5 L 9 16.5 L 9 13.5 L 10.5 13.5 L 10.5 12 L 9 12 L 9 10.5 L 7.5 10.5 L 7.5 12 L 4.5 12 L 4.5 10.5 Z M 15 10.5 L 15 12 L 13.5 12 L 13.5 13.5 L 15 13.5 L 15 16.5 L 13.5 16.5 L 13.5 18 L 15 18 L 15 19.5 L 16.5 19.5 L 16.5 18 L 19.5 18 L 19.5 19.5 L 21 19.5 L 21 18 L 22.5 18 L 22.5 16.5 L 21 16.5 L 21 13.5 L 22.5 13.5 L 22.5 12 L 21 12 L 21 10.5 L 19.5 10.5 L 19.5 12 L 16.5 12 L 16.5 10.5 Z M 4.5 13.5 L 7.5 13.5 L 7.5 16.5 L 4.5 16.5 Z M 16.5 13.5 L 19.5 13.5 L 19.5 16.5 L 16.5 16.5 Z M 3 21 L 3 24 L 21 24 L 21 21 Z M 3 21 "/>
</g>
</svg>
