<?xml version="1.0" encoding="UTF-8"?>
<svg xmlns="http://www.w3.org/2000/svg" xmlns:xlink="http://www.w3.org/1999/xlink" width="24px" height="24px" viewBox="0 0 24 24" version="1.1">
<defs>
<filter id="alpha" filterUnits="objectBoundingBox" x="0%" y="0%" width="100%" height="100%">
  <feColorMatrix type="matrix" in="SourceGraphic" values="0 0 0 0 1 0 0 0 0 1 0 0 0 0 1 0 0 0 1 0"/>
</filter>
<mask id="mask0">
  <g filter="url(#alpha)">
<rect x="0" y="0" width="24" height="24" style="fill:rgb(0%,0%,0%);fill-opacity:0.75;stroke:none;"/>
  </g>
</mask>
<clipPath id="clip1">
  <rect x="0" y="0" width="24" height="24"/>
</clipPath>
<g id="surface5" clip-path="url(#clip1)">
<path style=" stroke:none;fill-rule:nonzero;fill:rgb(90.196079%,0.784314%,70.588237%);fill-opacity:1;" d="M 16.070312 4.878906 C 16.6875 5.464844 17.175781 6.230469 17.523438 7.1875 C 17.910156 8.261719 18.089844 9.496094 18.089844 10.882812 C 18.089844 11.324219 18.074219 11.746094 18.042969 12.148438 C 18.503906 11.996094 18.949219 11.832031 19.378906 11.652344 C 19.425781 11.296875 19.449219 10.925781 19.449219 10.535156 C 19.449219 8.453125 18.792969 6.914062 17.4375 5.695312 C 17.433594 5.695312 17.433594 5.695312 17.429688 5.691406 C 17.035156 5.332031 16.535156 5.136719 16.070312 4.878906 Z M 8.082031 4.890625 C 7.578125 5.171875 7.035156 5.402344 6.609375 5.8125 C 5.210938 7.148438 4.550781 8.695312 4.550781 10.640625 C 4.550781 11.332031 4.636719 11.972656 4.800781 12.574219 C 5.214844 12.675781 5.636719 12.769531 6.066406 12.851562 C 5.960938 12.183594 5.910156 11.464844 5.910156 10.695312 C 5.910156 8.585938 6.441406 6.765625 7.535156 5.339844 C 7.539062 5.339844 7.539062 5.335938 7.542969 5.335938 C 7.695312 5.140625 7.914062 5.058594 8.082031 4.890625 Z M 8.082031 4.890625 "/>
</g>
</defs>
<g id="surface1">
<path style=" stroke:none;fill-rule:nonzero;fill:rgb(90.196079%,0.784314%,70.588237%);fill-opacity:1;" d="M 2.996094 16.925781 L 3.617188 16.925781 C 3.652344 17.566406 3.835938 18.042969 4.164062 18.363281 C 4.492188 18.683594 5.003906 18.84375 5.699219 18.84375 L 9.101562 18.84375 L 9.078125 17.699219 C 8.503906 17.574219 7.914062 17.34375 7.308594 17.007812 C 6.71875 16.667969 6.148438 16.226562 5.59375 15.675781 C 5.058594 15.105469 4.613281 14.386719 4.269531 13.519531 C 3.921875 12.628906 3.75 11.671875 3.75 10.640625 C 3.75 8.492188 4.519531 6.683594 6.0625 5.210938 C 7.605469 3.738281 9.613281 3 12.089844 3 C 14.480469 3 16.441406 3.691406 17.964844 5.078125 C 19.488281 6.445312 20.25 8.261719 20.25 10.535156 C 20.25 12.328125 19.785156 13.855469 18.847656 15.117188 C 17.929688 16.359375 16.65625 17.21875 15.027344 17.699219 L 14.898438 18.84375 L 18.378906 18.84375 C 19.679688 18.84375 20.347656 18.203125 20.382812 16.925781 L 21.003906 16.925781 L 20.847656 21 L 13.78125 21 L 14.117188 17.085938 C 16.230469 16.394531 17.289062 14.324219 17.289062 10.882812 C 17.289062 9.566406 17.117188 8.433594 16.769531 7.472656 C 16.421875 6.515625 15.964844 5.796875 15.390625 5.316406 C 14.835938 4.835938 14.28125 4.492188 13.726562 4.277344 C 13.171875 4.066406 12.609375 3.957031 12.039062 3.957031 C 10.445312 3.957031 9.152344 4.589844 8.167969 5.847656 C 7.195312 7.109375 6.710938 8.726562 6.710938 10.695312 C 6.710938 14.140625 7.792969 16.269531 9.960938 17.085938 L 10.21875 21 L 3.152344 21 Z M 2.996094 16.925781 "/>
<use xlink:href="#surface5" mask="url(#mask0)"/>
<path style="fill-rule:evenodd;fill:rgb(95.294118%,71.764708%,85.09804%);fill-opacity:1;stroke-width:1.141441;stroke-linecap:round;stroke-linejoin:round;stroke:rgb(61.56863%,22.745098%,60.784316%);stroke-opacity:1;stroke-miterlimit:4;" d="M 15.293599 11.442082 C 15.293599 13.433658 13.67953 15.044754 11.690926 15.044754 C 9.702322 15.044754 8.088253 13.433658 8.088253 11.442082 C 8.088253 9.453478 9.702322 7.842381 11.690926 7.842381 C 13.67953 7.842381 15.293599 9.453478 15.293599 11.442082 Z M 15.293599 11.442082 " transform="matrix(1.314129,0,0,1.314129,1.63662,1.924571)"/>
<path style="fill:none;stroke-width:1.930378;stroke-linecap:round;stroke-linejoin:miter;stroke:rgb(90.196079%,0.784314%,70.588237%);stroke-opacity:1;stroke-miterlimit:4;" d="M 11.533143 8.458049 L 11.533143 14.163723 " transform="matrix(0.77705,0,0,0.77705,8.038172,8.173768)"/>
<path style="fill:none;stroke-width:1.930378;stroke-linecap:round;stroke-linejoin:miter;stroke:rgb(90.196079%,0.784314%,70.588237%);stroke-opacity:1;stroke-miterlimit:4;" d="M 8.677792 11.308373 L 14.388494 11.308373 " transform="matrix(0.77705,0,0,0.77705,8.038172,8.173768)"/>
</g>
</svg>
