<?xml version="1.0" encoding="UTF-8"?>
<svg xmlns="http://www.w3.org/2000/svg" xmlns:xlink="http://www.w3.org/1999/xlink" width="24px" height="24px" viewBox="0 0 24 24" version="1.1">
<g id="surface1">
<path style="fill-rule:evenodd;fill:rgb(94.117647%,89.019608%,92.54902%);fill-opacity:1;stroke-width:1;stroke-linecap:round;stroke-linejoin:round;stroke:rgb(90.196079%,0.784314%,70.588237%);stroke-opacity:1;stroke-miterlimit:4;" d="M 2.447917 1.5 L 11.471354 1.5 C 12.023438 1.5 12.471354 1.947917 12.471354 2.5 L 12.471354 13.5 C 12.471354 14.052083 12.023438 14.5 11.471354 14.5 L 2.447917 14.5 C 1.895833 14.5 1.447917 14.052083 1.447917 13.5 L 1.447917 2.5 C 1.447917 1.947917 1.895833 1.5 2.447917 1.5 Z M 2.447917 1.5 " transform="matrix(1.5,0,0,1.5,0,0)"/>
<path style="fill-rule:nonzero;fill:rgb(94.117647%,89.019608%,92.54902%);fill-opacity:1;stroke-width:2.000003;stroke-linecap:butt;stroke-linejoin:miter;stroke:rgb(94.117647%,89.019608%,92.54902%);stroke-opacity:1;stroke-miterlimit:4;" d="M -6.046531 -7.632955 C -6.047154 -5.760038 -7.557734 -4.242351 -9.421264 -4.242676 C -11.284795 -4.243 -12.795052 -5.759895 -12.794428 -7.632812 C -12.794475 -9.503215 -11.283896 -11.020901 -9.419694 -11.023091 C -7.556164 -11.022767 -6.046578 -9.503358 -6.046531 -7.632955 Z M -6.046531 -7.632955 " transform="matrix(-1.448376,0.390137,-0.386328,-1.449397,-0.741628,0.0379827)"/>
<path style="fill-rule:nonzero;fill:rgb(94.117647%,89.019608%,92.54902%);fill-opacity:1;stroke-width:1.000002;stroke-linecap:butt;stroke-linejoin:miter;stroke:rgb(90.196079%,0.784314%,70.588237%);stroke-opacity:1;stroke-miterlimit:4;" d="M -6.046531 -7.632955 C -6.047154 -5.760038 -7.557734 -4.242351 -9.421264 -4.242676 C -11.284795 -4.243 -12.795052 -5.759895 -12.794428 -7.632812 C -12.794475 -9.503215 -11.283896 -11.020901 -9.419694 -11.023091 C -7.556164 -11.022767 -6.046578 -9.503358 -6.046531 -7.632955 Z M -6.046531 -7.632955 " transform="matrix(-1.448376,0.390137,-0.386328,-1.449397,-0.741628,0.0379827)"/>
<path style="fill:none;stroke-width:1.625429;stroke-linecap:round;stroke-linejoin:miter;stroke:rgb(90.196079%,0.784314%,70.588237%);stroke-opacity:1;stroke-miterlimit:4;" d="M 13.493299 7.169344 L 20.494594 7.169344 " transform="matrix(0.92282,0,0,0.922847,0.169202,0.809576)"/>
<path style="fill:none;stroke-width:1.625429;stroke-linecap:round;stroke-linejoin:miter;stroke:rgb(90.196079%,0.784314%,70.588237%);stroke-opacity:1;stroke-miterlimit:4;" d="M 16.993947 10.669891 L 16.993947 3.668796 " transform="matrix(0.92282,0,0,0.922847,0.169202,0.809576)"/>
</g>
</svg>
