<?xml version="1.0" encoding="UTF-8"?>
<svg xmlns="http://www.w3.org/2000/svg" xmlns:xlink="http://www.w3.org/1999/xlink" width="24px" height="24px" viewBox="0 0 24 24" version="1.1">
<defs>
<filter id="alpha" filterUnits="objectBoundingBox" x="0%" y="0%" width="100%" height="100%">
  <feColorMatrix type="matrix" in="SourceGraphic" values="0 0 0 0 1 0 0 0 0 1 0 0 0 0 1 0 0 0 1 0"/>
</filter>
<mask id="mask0">
  <g filter="url(#alpha)">
<rect x="0" y="0" width="24" height="24" style="fill:rgb(0%,0%,0%);fill-opacity:0.867256;stroke:none;"/>
  </g>
</mask>
<clipPath id="clip1">
  <rect x="0" y="0" width="24" height="24"/>
</clipPath>
<g id="surface5" clip-path="url(#clip1)">
<path style=" stroke:none;fill-rule:nonzero;fill:rgb(95.294118%,71.764708%,85.09804%);fill-opacity:1;" d="M 18.433594 8.652344 C 18.433594 9.730469 16.210938 10.605469 13.46875 10.605469 C 10.730469 10.605469 8.507812 9.730469 8.507812 8.652344 C 8.507812 7.574219 10.730469 6.699219 13.46875 6.699219 C 16.210938 6.699219 18.433594 7.574219 18.433594 8.652344 Z M 18.433594 8.652344 "/>
</g>
<mask id="mask1">
  <g filter="url(#alpha)">
<rect x="0" y="0" width="24" height="24" style="fill:rgb(0%,0%,0%);fill-opacity:0.685393;stroke:none;"/>
  </g>
</mask>
<clipPath id="clip2">
  <rect x="0" y="0" width="24" height="24"/>
</clipPath>
<g id="surface8" clip-path="url(#clip2)">
<path style=" stroke:none;fill-rule:nonzero;fill:rgb(61.56863%,22.745098%,60.784316%);fill-opacity:1;" d="M 13.46875 5.941406 C 10.257812 5.941406 7.640625 7.261719 7.53125 8.910156 C 8.023438 8.109375 9.199219 7.453125 10.738281 7.089844 C 11.503906 6.796875 12.449219 6.625 13.46875 6.625 C 14.492188 6.625 15.4375 6.796875 16.203125 7.089844 C 17.742188 7.453125 18.917969 8.109375 19.410156 8.910156 C 19.300781 7.261719 16.683594 5.941406 13.46875 5.941406 Z M 13.46875 5.941406 "/>
</g>
<mask id="mask2">
  <g filter="url(#alpha)">
<rect x="0" y="0" width="24" height="24" style="fill:rgb(0%,0%,0%);fill-opacity:0.685393;stroke:none;"/>
  </g>
</mask>
<clipPath id="clip3">
  <rect x="0" y="0" width="24" height="24"/>
</clipPath>
<g id="surface11" clip-path="url(#clip3)">
<path style=" stroke:none;fill-rule:nonzero;fill:rgb(61.56863%,22.745098%,60.784316%);fill-opacity:1;" d="M 13.46875 18.589844 C 10.257812 18.589844 7.640625 17.269531 7.53125 15.617188 C 8.023438 16.421875 9.199219 17.078125 10.738281 17.441406 C 11.503906 17.730469 12.449219 17.90625 13.46875 17.90625 C 14.492188 17.90625 15.4375 17.730469 16.203125 17.441406 C 17.742188 17.078125 18.917969 16.421875 19.410156 15.617188 C 19.300781 17.269531 16.683594 18.589844 13.46875 18.589844 Z M 13.46875 18.589844 "/>
</g>
</defs>
<g id="surface1">
<path style="fill-rule:evenodd;fill:rgb(94.117647%,89.019608%,92.54902%);fill-opacity:1;stroke-width:1;stroke-linecap:round;stroke-linejoin:round;stroke:rgb(90.196079%,0.784314%,70.588237%);stroke-opacity:1;stroke-miterlimit:4;" d="M 3.5 1.5 L 12.5 1.5 C 13.052083 1.5 13.5 1.947917 13.5 2.5 L 13.5 13.5 C 13.5 14.052083 13.052083 14.5 12.5 14.5 L 3.5 14.5 C 2.947917 14.5 2.5 14.052083 2.5 13.5 L 2.5 2.5 C 2.5 1.947917 2.947917 1.5 3.5 1.5 Z M 3.5 1.5 " transform="matrix(1.5,0,0,1.5,0,0)"/>
<path style=" stroke:none;fill-rule:nonzero;fill:rgb(61.56863%,22.745098%,60.784316%);fill-opacity:1;" d="M 13.511719 6.035156 C 10.207031 6.035156 7.523438 7.320312 7.523438 8.90625 C 7.523438 8.949219 7.527344 8.992188 7.53125 9.035156 L 7.5 9.035156 L 7.5 15.59375 L 7.53125 15.59375 C 7.527344 15.636719 7.523438 15.675781 7.523438 15.722656 C 7.523438 17.304688 10.207031 18.59375 13.511719 18.59375 C 16.816406 18.59375 19.5 17.304688 19.5 15.722656 C 19.5 15.675781 19.5 15.636719 19.496094 15.59375 L 19.5 15.59375 L 19.5 9.035156 L 19.496094 9.035156 C 19.5 8.992188 19.5 8.949219 19.5 8.90625 C 19.5 7.320312 16.816406 6.035156 13.511719 6.035156 Z M 13.511719 6.035156 "/>
<use xlink:href="#surface5" mask="url(#mask0)"/>
<path style=" stroke:none;fill-rule:nonzero;fill:rgb(94.117647%,89.019608%,92.54902%);fill-opacity:1;" d="M 8.894531 10.824219 C 8.648438 11.054688 8.507812 11.304688 8.507812 11.574219 C 8.507812 12.652344 10.730469 13.53125 13.46875 13.53125 C 16.210938 13.53125 18.433594 12.652344 18.433594 11.574219 C 18.433594 11.304688 18.292969 11.054688 18.046875 10.824219 C 17.296875 11.527344 15.535156 12.03125 13.46875 12.03125 C 11.40625 12.03125 9.644531 11.527344 8.894531 10.824219 Z M 8.894531 10.824219 "/>
<path style=" stroke:none;fill-rule:nonzero;fill:rgb(94.117647%,89.019608%,92.54902%);fill-opacity:1;" d="M 8.894531 13.824219 C 8.648438 14.054688 8.507812 14.304688 8.507812 14.574219 C 8.507812 15.652344 10.730469 16.53125 13.46875 16.53125 C 16.210938 16.53125 18.433594 15.652344 18.433594 14.574219 C 18.433594 14.304688 18.292969 14.054688 18.046875 13.824219 C 17.296875 14.527344 15.535156 15.03125 13.46875 15.03125 C 11.40625 15.03125 9.644531 14.527344 8.894531 13.824219 Z M 8.894531 13.824219 "/>
<use xlink:href="#surface8" mask="url(#mask1)"/>
<use xlink:href="#surface11" mask="url(#mask2)"/>
<path style=" stroke:none;fill-rule:nonzero;fill:rgb(61.56863%,22.745098%,60.784316%);fill-opacity:1;" d="M 4.5 4.5 L 6 4.5 L 6 6 L 4.5 6 Z M 4.5 4.5 "/>
<path style=" stroke:none;fill-rule:nonzero;fill:rgb(61.56863%,22.745098%,60.784316%);fill-opacity:1;" d="M 4.5 7.5 L 6 7.5 L 6 9 L 4.5 9 Z M 4.5 7.5 "/>
<path style=" stroke:none;fill-rule:nonzero;fill:rgb(61.56863%,22.745098%,60.784316%);fill-opacity:1;" d="M 4.5 10.5 L 6 10.5 L 6 12 L 4.5 12 Z M 4.5 10.5 "/>
<path style=" stroke:none;fill-rule:nonzero;fill:rgb(61.56863%,22.745098%,60.784316%);fill-opacity:1;" d="M 4.5 13.5 L 6 13.5 L 6 15 L 4.5 15 Z M 4.5 13.5 "/>
<path style=" stroke:none;fill-rule:nonzero;fill:rgb(61.56863%,22.745098%,60.784316%);fill-opacity:1;" d="M 4.5 16.5 L 6 16.5 L 6 18 L 4.5 18 Z M 4.5 16.5 "/>
<path style=" stroke:none;fill-rule:nonzero;fill:rgb(61.56863%,22.745098%,60.784316%);fill-opacity:1;" d="M 4.5 19.5 L 6 19.5 L 6 21 L 4.5 21 Z M 4.5 19.5 "/>
</g>
</svg>
