<?xml version="1.0" encoding="UTF-8"?>
<svg xmlns="http://www.w3.org/2000/svg" xmlns:xlink="http://www.w3.org/1999/xlink" width="24px" height="24px" viewBox="0 0 24 24" version="1.1">
<g id="surface1">
<path style="fill-rule:nonzero;fill:rgb(61.56863%,22.745098%,60.784316%);fill-opacity:1;stroke-width:0.25;stroke-linecap:butt;stroke-linejoin:miter;stroke:rgb(61.56863%,22.745098%,60.784316%);stroke-opacity:1;stroke-miterlimit:4;" d="M 4.838542 4.127604 C 4.872396 3.736979 5.151042 3.453125 5.497396 3.453125 C 5.726562 3.453125 5.9375 3.575521 6.057292 3.776042 C 6.174479 3.572917 6.377604 3.453125 6.604167 3.453125 C 6.950521 3.453125 7.226562 3.736979 7.263021 4.127604 C 7.265625 4.145833 7.278646 4.236979 7.242188 4.385417 C 7.192708 4.598958 7.075521 4.794271 6.90625 4.947917 L 6.057292 5.71875 L 5.195312 4.947917 C 5.026042 4.794271 4.908854 4.598958 4.859375 4.385417 C 4.822917 4.236979 4.835938 4.145833 4.838542 4.127604 Z M 4.950521 4.361979 C 4.994792 4.557292 5.101562 4.736979 5.257812 4.877604 L 6.057292 5.591146 L 6.84375 4.877604 C 6.997396 4.736979 7.104167 4.557292 7.151042 4.361979 C 7.184896 4.221354 7.171875 4.143229 7.171875 4.143229 L 7.169271 4.138021 C 7.140625 3.794271 6.901042 3.546875 6.604167 3.546875 C 6.385417 3.546875 6.192708 3.679688 6.101562 3.898438 L 6.057292 4 L 6.013021 3.898438 C 5.924479 3.684896 5.721354 3.546875 5.494792 3.546875 C 5.197917 3.546875 4.960938 3.794271 4.929688 4.143229 C 4.929688 4.143229 4.916667 4.221354 4.950521 4.361979 Z M 4.950521 4.361979 " transform="matrix(1.5,0,0,1.5,0,0)"/>
<path style="fill-rule:evenodd;fill:rgb(94.117647%,89.019608%,92.54902%);fill-opacity:1;stroke-width:1;stroke-linecap:round;stroke-linejoin:round;stroke:rgb(90.196079%,0.784314%,70.588237%);stroke-opacity:1;stroke-miterlimit:4;" d="M 3.572917 1.5 L 12.5 1.5 C 13.052083 1.5 13.5 1.947917 13.5 2.5 L 13.5 13.5 C 13.5 14.052083 13.052083 14.5 12.5 14.5 L 3.572917 14.5 C 3.020833 14.5 2.572917 14.052083 2.572917 13.5 L 2.572917 2.5 C 2.572917 1.947917 3.020833 1.5 3.572917 1.5 Z M 3.572917 1.5 " transform="matrix(1.5,0,0,1.5,0,0)"/>
<path style="fill:none;stroke-width:1;stroke-linecap:round;stroke-linejoin:miter;stroke:rgb(90.196079%,0.784314%,70.588237%);stroke-opacity:1;stroke-miterlimit:4;" d="M 4.5 6.807292 L 11.588542 6.807292 " transform="matrix(1.5,0,0,1.5,0,0)"/>
<path style="fill:none;stroke-width:1;stroke-linecap:round;stroke-linejoin:miter;stroke:rgb(90.196079%,0.784314%,70.588237%);stroke-opacity:1;stroke-miterlimit:4;" d="M 4.5 8.807292 L 11.588542 8.807292 " transform="matrix(1.5,0,0,1.5,0,0)"/>
<path style="fill:none;stroke-width:1;stroke-linecap:round;stroke-linejoin:miter;stroke:rgb(90.196079%,0.784314%,70.588237%);stroke-opacity:1;stroke-miterlimit:4;" d="M 4.5 10.807292 L 11.588542 10.807292 " transform="matrix(1.5,0,0,1.5,0,0)"/>
<path style=" stroke:none;fill-rule:nonzero;fill:rgb(90.196079%,0.784314%,70.588237%);fill-opacity:1;" d="M 3 4.5 L 15 4.5 C 15.828125 4.5 16.5 5.171875 16.5 6 L 16.5 12 C 16.5 12.828125 15.828125 13.5 15 13.5 L 3 13.5 C 2.171875 13.5 1.5 12.828125 1.5 12 L 1.5 6 C 1.5 5.171875 2.171875 4.5 3 4.5 Z M 3 4.5 "/>
<path style=" stroke:none;fill-rule:nonzero;fill:rgb(94.117647%,89.019608%,92.54902%);fill-opacity:1;" d="M 3 6 L 15 6 L 15 12 L 3 12 Z M 3 6 "/>
<path style=" stroke:none;fill-rule:nonzero;fill:rgb(61.56863%,22.745098%,60.784316%);fill-opacity:1;" d="M 4.523438 7.5 L 13.476562 7.5 C 13.488281 7.5 13.5 7.53125 13.5 7.570312 L 13.5 10.429688 C 13.5 10.46875 13.488281 10.5 13.476562 10.5 L 4.523438 10.5 C 4.511719 10.5 4.5 10.46875 4.5 10.429688 L 4.5 7.570312 C 4.5 7.53125 4.511719 7.5 4.523438 7.5 Z M 4.523438 7.5 "/>
</g>
</svg>
