<?xml version="1.0" encoding="UTF-8"?>
<svg xmlns="http://www.w3.org/2000/svg" xmlns:xlink="http://www.w3.org/1999/xlink" width="24px" height="24px" viewBox="0 0 24 24" version="1.1">
<defs>
<filter id="alpha" filterUnits="objectBoundingBox" x="0%" y="0%" width="100%" height="100%">
  <feColorMatrix type="matrix" in="SourceGraphic" values="0 0 0 0 1 0 0 0 0 1 0 0 0 0 1 0 0 0 1 0"/>
</filter>
<mask id="mask0">
  <g filter="url(#alpha)">
<rect x="0" y="0" width="24" height="24" style="fill:rgb(0%,0%,0%);fill-opacity:0.35;stroke:none;"/>
  </g>
</mask>
<clipPath id="clip1">
  <rect x="0" y="0" width="24" height="24"/>
</clipPath>
<g id="surface5" clip-path="url(#clip1)">
<path style=" stroke:none;fill-rule:nonzero;fill:rgb(33.333334%,34.117648%,32.549021%);fill-opacity:1;" d="M 3 6 L 3 18 L 21 18 L 21 6 Z M 3 6 "/>
</g>
</defs>
<g id="surface1">
<path style=" stroke:none;fill-rule:nonzero;fill:rgb(33.333334%,34.117648%,32.549021%);fill-opacity:1;" d="M 1.5 4.5 L 1.5 19.5 L 22.5 19.5 L 22.5 4.5 Z M 3 6 L 7.5 6 L 7.5 9 L 3 9 Z M 9 6 L 15 6 L 15 9 L 9 9 Z M 16.5 6 L 21 6 L 21 9 L 16.5 9 Z M 3 10.5 L 7.5 10.5 L 7.5 13.5 L 3 13.5 Z M 9 10.5 L 15 10.5 L 15 13.5 L 9 13.5 Z M 16.5 10.5 L 21 10.5 L 21 13.5 L 16.5 13.5 Z M 3 15 L 7.5 15 L 7.5 18 L 3 18 Z M 9 15 L 15 15 L 15 18 L 9 18 Z M 16.5 15 L 21 15 L 21 18 L 16.5 18 Z M 16.5 15 "/>
<use xlink:href="#surface5" mask="url(#mask0)"/>
</g>
</svg>
