<?xml version="1.0" encoding="UTF-8"?>
<svg xmlns="http://www.w3.org/2000/svg" xmlns:xlink="http://www.w3.org/1999/xlink" width="24px" height="24px" viewBox="0 0 24 24" version="1.1">
<g id="surface1">
<path style="fill-rule:nonzero;fill:rgb(94.117647%,89.019608%,92.54902%);fill-opacity:1;stroke-width:1;stroke-linecap:round;stroke-linejoin:round;stroke:rgb(90.196079%,0.784314%,70.588237%);stroke-opacity:1;stroke-miterlimit:4;" d="M 3.416667 2 L 12.583333 2 C 13.091146 2 13.5 2.398438 13.5 2.893229 L 13.5 10.286458 L 9.125 14.5 L 3.416667 14.5 C 2.908854 14.5 2.5 14.101562 2.5 13.606771 L 2.5 2.893229 C 2.5 2.398438 2.908854 2 3.416667 2 Z M 3.416667 2 " transform="matrix(1.5,0,0,1.5,0,0)"/>
<path style="fill-rule:evenodd;fill:rgb(95.294118%,71.764708%,85.09804%);fill-opacity:1;stroke-width:1.141441;stroke-linecap:round;stroke-linejoin:round;stroke:rgb(61.56863%,22.745098%,60.784316%);stroke-opacity:1;stroke-miterlimit:4;" d="M 15.293859 11.442688 C 15.293859 13.431292 13.67979 15.045361 11.691186 15.045361 C 9.702583 15.045361 8.088514 13.431292 8.088514 11.442688 C 8.088514 9.454085 9.702583 7.842989 11.691186 7.842989 C 13.67979 7.842989 15.293859 9.454085 15.293859 11.442688 Z M 15.293859 11.442688 " transform="matrix(1.314129,0,0,1.314129,1.667527,2.638617)"/>
<path style="fill:none;stroke-width:1.930378;stroke-linecap:round;stroke-linejoin:miter;stroke:rgb(90.196079%,0.784314%,70.588237%);stroke-opacity:1;stroke-miterlimit:4;" d="M 11.533584 8.459075 L 11.533584 14.16475 " transform="matrix(0.77705,0,0,0.77705,8.06908,8.887814)"/>
<path style="fill:none;stroke-width:1.930378;stroke-linecap:round;stroke-linejoin:miter;stroke:rgb(90.196079%,0.784314%,70.588237%);stroke-opacity:1;stroke-miterlimit:4;" d="M 8.678233 11.309399 L 14.388934 11.309399 " transform="matrix(0.77705,0,0,0.77705,8.06908,8.887814)"/>
<path style="fill-rule:nonzero;fill:rgb(61.56863%,22.745098%,60.784316%);fill-opacity:1;stroke-width:0.25;stroke-linecap:round;stroke-linejoin:round;stroke:rgb(90.196079%,0.784314%,70.588237%);stroke-opacity:1;stroke-miterlimit:4;" d="M 4 1.140625 L 6 1.140625 L 6 12 L 5 11.088542 L 4 12 Z M 4 1.140625 " transform="matrix(1.5,0,0,1.5,0,0)"/>
</g>
</svg>
