<?xml version="1.0" encoding="UTF-8"?>
<svg xmlns="http://www.w3.org/2000/svg" xmlns:xlink="http://www.w3.org/1999/xlink" width="24px" height="24px" viewBox="0 0 24 24" version="1.1">
<defs>
<clipPath id="clip1">
  <path d="M 2 12 L 10 12 L 10 18 L 2 18 Z M 2 12 "/>
</clipPath>
<clipPath id="clip2">
  <path d="M 1.050781 12 L 10.714844 12 C 11.464844 12 12.070312 12.609375 12.070312 13.363281 L 12.070312 16.84375 C 12.070312 17.59375 11.464844 18.203125 10.714844 18.203125 L 1.050781 18.203125 C 0.296875 18.203125 -0.308594 17.59375 -0.308594 16.84375 L -0.308594 13.363281 C -0.308594 12.609375 0.296875 12 1.050781 12 Z M 1.050781 12 "/>
</clipPath>
<clipPath id="clip3">
  <path d="M 1 12 L 11 12 L 11 19 L 1 19 Z M 1 12 "/>
</clipPath>
<clipPath id="clip4">
  <path d="M 1.050781 12 L 10.714844 12 C 11.464844 12 12.070312 12.609375 12.070312 13.363281 L 12.070312 16.84375 C 12.070312 17.59375 11.464844 18.203125 10.714844 18.203125 L 1.050781 18.203125 C 0.296875 18.203125 -0.308594 17.59375 -0.308594 16.84375 L -0.308594 13.363281 C -0.308594 12.609375 0.296875 12 1.050781 12 Z M 1.050781 12 "/>
</clipPath>
<clipPath id="clip5">
  <path d="M 2 6 L 10 6 L 10 12 L 2 12 Z M 2 6 "/>
</clipPath>
<clipPath id="clip6">
  <path d="M 1.050781 12 L 10.714844 12 C 11.464844 12 12.070312 11.390625 12.070312 10.636719 L 12.070312 7.15625 C 12.070312 6.40625 11.464844 5.796875 10.714844 5.796875 L 1.050781 5.796875 C 0.296875 5.796875 -0.308594 6.40625 -0.308594 7.15625 L -0.308594 10.636719 C -0.308594 11.390625 0.296875 12 1.050781 12 Z M 1.050781 12 "/>
</clipPath>
<clipPath id="clip7">
  <path d="M 1 5 L 11 5 L 11 12 L 1 12 Z M 1 5 "/>
</clipPath>
<clipPath id="clip8">
  <path d="M 1.050781 12 L 10.714844 12 C 11.464844 12 12.070312 11.390625 12.070312 10.636719 L 12.070312 7.15625 C 12.070312 6.40625 11.464844 5.796875 10.714844 5.796875 L 1.050781 5.796875 C 0.296875 5.796875 -0.308594 6.40625 -0.308594 7.15625 L -0.308594 10.636719 C -0.308594 11.390625 0.296875 12 1.050781 12 Z M 1.050781 12 "/>
</clipPath>
</defs>
<g id="surface1">
<path style=" stroke:none;fill-rule:nonzero;fill:rgb(90.196079%,0.784314%,70.588237%);fill-opacity:1;" d="M 2.367188 1.5 L 20.25 1.5 C 20.664062 1.5 21 1.835938 21 2.25 L 21 2.367188 C 21 2.78125 20.664062 3.117188 20.25 3.117188 L 2.367188 3.117188 C 1.953125 3.117188 1.617188 2.78125 1.617188 2.367188 L 1.617188 2.25 C 1.617188 1.835938 1.953125 1.5 2.367188 1.5 Z M 2.367188 1.5 "/>
<g clip-path="url(#clip1)" clip-rule="nonzero">
<g clip-path="url(#clip2)" clip-rule="nonzero">
<path style=" stroke:none;fill-rule:evenodd;fill:rgb(95.294118%,71.764708%,85.09804%);fill-opacity:1;" d="M 2.25 6.738281 L 9.75 12 L 2.25 17.261719 Z M 2.25 6.738281 "/>
</g>
</g>
<g clip-path="url(#clip3)" clip-rule="nonzero">
<g clip-path="url(#clip4)" clip-rule="nonzero">
<path style="fill:none;stroke-width:0.264288;stroke-linecap:butt;stroke-linejoin:round;stroke:rgb(61.56863%,22.745098%,60.784316%);stroke-opacity:1;stroke-miterlimit:4;" d="M 13.092695 279.631964 L 14.415601 280.558007 L 13.092695 281.48405 Z M 13.092695 279.631964 " transform="matrix(5.669336,0,0,5.681935,-71.97689,-1582.112447)"/>
</g>
</g>
<g clip-path="url(#clip5)" clip-rule="nonzero">
<g clip-path="url(#clip6)" clip-rule="nonzero">
<path style=" stroke:none;fill-rule:evenodd;fill:rgb(95.294118%,71.764708%,85.09804%);fill-opacity:1;" d="M 2.25 17.261719 L 9.75 12 L 2.25 6.738281 Z M 2.25 17.261719 "/>
</g>
</g>
<g clip-path="url(#clip7)" clip-rule="nonzero">
<g clip-path="url(#clip8)" clip-rule="nonzero">
<path style="fill:none;stroke-width:0.264288;stroke-linecap:butt;stroke-linejoin:round;stroke:rgb(61.56863%,22.745098%,60.784316%);stroke-opacity:1;stroke-miterlimit:4;" d="M 13.092695 279.631977 L 14.415601 280.558021 L 13.092695 281.484064 Z M 13.092695 279.631977 " transform="matrix(5.669336,0,0,-5.681935,-71.97689,1606.112526)"/>
</g>
</g>
<path style=" stroke:none;fill-rule:nonzero;fill:rgb(90.196079%,0.784314%,70.588237%);fill-opacity:1;" d="M 15.75 5.191406 L 20.25 5.191406 C 20.664062 5.191406 21 5.527344 21 5.941406 L 21 6.058594 C 21 6.472656 20.664062 6.808594 20.25 6.808594 L 15.75 6.808594 C 15.335938 6.808594 15 6.472656 15 6.058594 L 15 5.941406 C 15 5.527344 15.335938 5.191406 15.75 5.191406 Z M 15.75 5.191406 "/>
<path style=" stroke:none;fill-rule:nonzero;fill:rgb(90.196079%,0.784314%,70.588237%);fill-opacity:1;" d="M 15.75 8.191406 L 20.25 8.191406 C 20.664062 8.191406 21 8.527344 21 8.941406 L 21 9.058594 C 21 9.472656 20.664062 9.808594 20.25 9.808594 L 15.75 9.808594 C 15.335938 9.808594 15 9.472656 15 9.058594 L 15 8.941406 C 15 8.527344 15.335938 8.191406 15.75 8.191406 Z M 15.75 8.191406 "/>
<path style=" stroke:none;fill-rule:nonzero;fill:rgb(90.196079%,0.784314%,70.588237%);fill-opacity:1;" d="M 15.75 11.078125 L 20.25 11.078125 C 20.664062 11.078125 21 11.414062 21 11.828125 L 21 11.941406 C 21 12.355469 20.664062 12.691406 20.25 12.691406 L 15.75 12.691406 C 15.335938 12.691406 15 12.355469 15 11.941406 L 15 11.828125 C 15 11.414062 15.335938 11.078125 15.75 11.078125 Z M 15.75 11.078125 "/>
<path style=" stroke:none;fill-rule:nonzero;fill:rgb(90.196079%,0.784314%,70.588237%);fill-opacity:1;" d="M 15.75 14.191406 L 20.25 14.191406 C 20.664062 14.191406 21 14.527344 21 14.941406 L 21 15.058594 C 21 15.472656 20.664062 15.808594 20.25 15.808594 L 15.75 15.808594 C 15.335938 15.808594 15 15.472656 15 15.058594 L 15 14.941406 C 15 14.527344 15.335938 14.191406 15.75 14.191406 Z M 15.75 14.191406 "/>
<path style=" stroke:none;fill-rule:nonzero;fill:rgb(90.196079%,0.784314%,70.588237%);fill-opacity:1;" d="M 15.75 17.191406 L 20.25 17.191406 C 20.664062 17.191406 21 17.527344 21 17.941406 L 21 18.058594 C 21 18.472656 20.664062 18.808594 20.25 18.808594 L 15.75 18.808594 C 15.335938 18.808594 15 18.472656 15 18.058594 L 15 17.941406 C 15 17.527344 15.335938 17.191406 15.75 17.191406 Z M 15.75 17.191406 "/>
<path style=" stroke:none;fill-rule:nonzero;fill:rgb(90.196079%,0.784314%,70.588237%);fill-opacity:1;" d="M 2.367188 20.882812 L 20.25 20.882812 C 20.664062 20.882812 21 21.21875 21 21.632812 L 21 21.75 C 21 22.164062 20.664062 22.5 20.25 22.5 L 2.367188 22.5 C 1.949219 22.5 1.617188 22.164062 1.617188 21.75 L 1.617188 21.632812 C 1.617188 21.21875 1.949219 20.882812 2.367188 20.882812 Z M 2.367188 20.882812 "/>
</g>
</svg>
