<?xml version="1.0" encoding="UTF-8"?>
<svg xmlns="http://www.w3.org/2000/svg" xmlns:xlink="http://www.w3.org/1999/xlink" width="24px" height="24px" viewBox="0 0 24 24" version="1.1">
<g id="surface1">
<path style=" stroke:none;fill-rule:nonzero;fill:rgb(90.196079%,0.784314%,70.588237%);fill-opacity:1;" d="M 11.25 4.5 L 21.75 4.5 C 22.164062 4.5 22.5 4.835938 22.5 5.25 C 22.5 5.664062 22.164062 6 21.75 6 L 11.25 6 C 10.835938 6 10.5 5.664062 10.5 5.25 C 10.5 4.835938 10.835938 4.5 11.25 4.5 Z M 11.25 4.5 "/>
<path style="fill-rule:nonzero;fill:rgb(95.294118%,71.764708%,85.09804%);fill-opacity:1;stroke-width:5.88383;stroke-linecap:round;stroke-linejoin:round;stroke:rgb(61.56863%,22.745098%,60.784316%);stroke-opacity:1;stroke-miterlimit:4;" d="M 8.100597 -272.996697 C 8.100597 -272.180898 7.444651 -271.524952 6.634364 -271.524952 C 5.818566 -271.524952 5.16262 -272.180898 5.16262 -272.996697 C 5.16262 -273.806983 5.818566 -274.462929 6.634364 -274.462929 C 7.444651 -274.462929 8.100597 -273.806983 8.100597 -272.996697 Z M 8.100597 -272.996697 " transform="matrix(0.708661,0,0,-0.708661,0.153951,-186.583308)"/>
<path style="fill-rule:nonzero;fill:rgb(95.294118%,71.764708%,85.09804%);fill-opacity:1;stroke-width:1;stroke-linecap:butt;stroke-linejoin:miter;stroke:rgb(61.56863%,22.745098%,60.784316%);stroke-opacity:1;stroke-miterlimit:4;" d="M 8.100597 272.996697 C 8.100597 273.806983 7.444651 274.462929 6.634364 274.462929 C 5.818566 274.462929 5.16262 273.806983 5.16262 272.996697 C 5.16262 272.180898 5.818566 271.524952 6.634364 271.524952 C 7.444651 271.524952 8.100597 272.180898 8.100597 272.996697 Z M 8.100597 272.996697 " transform="matrix(0.708661,0,0,0.708661,0.153951,-186.583308)"/>
<path style=" stroke:none;fill-rule:nonzero;fill:rgb(90.196079%,0.784314%,70.588237%);fill-opacity:1;" d="M 11.25 7.5 L 18.75 7.5 C 19.164062 7.5 19.5 7.835938 19.5 8.25 C 19.5 8.664062 19.164062 9 18.75 9 L 11.25 9 C 10.835938 9 10.5 8.664062 10.5 8.25 C 10.5 7.835938 10.835938 7.5 11.25 7.5 Z M 11.25 7.5 "/>
<path style=" stroke:none;fill-rule:nonzero;fill:rgb(90.196079%,0.784314%,70.588237%);fill-opacity:1;" d="M 11.25 15 L 21.75 15 C 22.164062 15 22.5 15.335938 22.5 15.75 C 22.5 16.164062 22.164062 16.5 21.75 16.5 L 11.25 16.5 C 10.835938 16.5 10.5 16.164062 10.5 15.75 C 10.5 15.335938 10.835938 15 11.25 15 Z M 11.25 15 "/>
<path style=" stroke:none;fill-rule:nonzero;fill:rgb(90.196079%,0.784314%,70.588237%);fill-opacity:1;" d="M 11.25 18 L 18.75 18 C 19.164062 18 19.5 18.335938 19.5 18.75 C 19.5 19.164062 19.164062 19.5 18.75 19.5 L 11.25 19.5 C 10.835938 19.5 10.5 19.164062 10.5 18.75 C 10.5 18.335938 10.835938 18 11.25 18 Z M 11.25 18 "/>
</g>
</svg>
