<?xml version="1.0" encoding="UTF-8"?>
<svg xmlns="http://www.w3.org/2000/svg" xmlns:xlink="http://www.w3.org/1999/xlink" width="24px" height="24px" viewBox="0 0 24 24" version="1.1">
<g id="surface1">
<path style="fill-rule:evenodd;fill:rgb(94.117647%,89.019608%,92.54902%);fill-opacity:1;stroke-width:1;stroke-linecap:round;stroke-linejoin:round;stroke:rgb(90.196079%,0.784314%,70.588237%);stroke-opacity:1;stroke-miterlimit:4;" d="M 3.5 1.5 L 12.523438 1.5 C 13.075521 1.5 13.523438 1.947917 13.523438 2.5 L 13.523438 13.5 C 13.523438 14.052083 13.075521 14.5 12.523438 14.5 L 3.5 14.5 C 2.947917 14.5 2.5 14.052083 2.5 13.5 L 2.5 2.5 C 2.5 1.947917 2.947917 1.5 3.5 1.5 Z M 3.5 1.5 " transform="matrix(1.5,0,0,1.5,0,0)"/>
<path style="fill:none;stroke-width:10.000001;stroke-linecap:round;stroke-linejoin:miter;stroke:rgb(90.196079%,0.784314%,70.588237%);stroke-opacity:1;stroke-miterlimit:4;" d="M 78.293064 -52.922212 L 38.293058 -52.922212 " transform="matrix(-0.15,0,0,-0.15,20.716614,2.542138)"/>
<path style="fill:none;stroke-width:10.000001;stroke-linecap:round;stroke-linejoin:miter;stroke:rgb(90.196079%,0.784314%,70.588237%);stroke-opacity:1;stroke-miterlimit:4;" d="M 67.563896 -43.234711 L 67.563896 -83.234716 " transform="matrix(-0.15,0,0,-0.15,20.716614,2.542138)"/>
<path style="fill:none;stroke-width:10.000001;stroke-linecap:round;stroke-linejoin:miter;stroke:rgb(90.196079%,0.784314%,70.588237%);stroke-opacity:1;stroke-miterlimit:4;" d="M 47.642018 -42.870128 L 47.642018 -82.870133 " transform="matrix(-0.15,0,0,-0.15,20.716614,2.542138)"/>
<path style="fill:none;stroke-width:10.000001;stroke-linecap:round;stroke-linejoin:miter;stroke:rgb(90.196079%,0.784314%,70.588237%);stroke-opacity:1;stroke-miterlimit:4;" d="M 77.92848 -73.521173 L 37.928475 -73.521173 " transform="matrix(-0.15,0,0,-0.15,20.716614,2.542138)"/>
</g>
</svg>
