<?xml version="1.0" encoding="UTF-8"?>
<svg xmlns="http://www.w3.org/2000/svg" xmlns:xlink="http://www.w3.org/1999/xlink" width="24px" height="24px" viewBox="0 0 24 24" version="1.1">
<g id="surface1">
<path style=" stroke:none;fill-rule:nonzero;fill:rgb(95.294118%,71.764708%,85.09804%);fill-opacity:1;" d="M 4.5 1.5 L 19.5 1.5 C 20.328125 1.5 21 2.171875 21 3 L 21 21 C 21 21.828125 20.328125 22.5 19.5 22.5 L 4.5 22.5 C 3.671875 22.5 3 21.828125 3 21 L 3 3 C 3 2.171875 3.671875 1.5 4.5 1.5 Z M 4.5 1.5 "/>
<path style=" stroke:none;fill-rule:nonzero;fill:rgb(94.117647%,89.019608%,92.54902%);fill-opacity:1;" d="M 6 3 L 18 3 C 18.828125 3 19.5 3.671875 19.5 4.5 L 19.5 19.5 C 19.5 20.328125 18.828125 21 18 21 L 6 21 C 5.171875 21 4.5 20.328125 4.5 19.5 L 4.5 4.5 C 4.5 3.671875 5.171875 3 6 3 Z M 6 3 "/>
<path style=" stroke:none;fill-rule:nonzero;fill:rgb(95.294118%,71.764708%,85.09804%);fill-opacity:1;" d="M 6.75 4.5 L 17.25 4.5 C 17.664062 4.5 18 4.835938 18 5.25 C 18 5.664062 17.664062 6 17.25 6 L 6.75 6 C 6.335938 6 6 5.664062 6 5.25 C 6 4.835938 6.335938 4.5 6.75 4.5 Z M 6.75 4.5 "/>
<path style=" stroke:none;fill-rule:nonzero;fill:rgb(95.294118%,71.764708%,85.09804%);fill-opacity:1;" d="M 6.75 7.5 L 17.25 7.5 C 17.664062 7.5 18 7.835938 18 8.25 C 18 8.664062 17.664062 9 17.25 9 L 6.75 9 C 6.335938 9 6 8.664062 6 8.25 C 6 7.835938 6.335938 7.5 6.75 7.5 Z M 6.75 7.5 "/>
<path style=" stroke:none;fill-rule:nonzero;fill:rgb(95.294118%,71.764708%,85.09804%);fill-opacity:1;" d="M 11.25 10.5 L 15.75 10.5 C 16.164062 10.5 16.5 10.835938 16.5 11.25 C 16.5 11.664062 16.164062 12 15.75 12 L 11.25 12 C 10.835938 12 10.5 11.664062 10.5 11.25 C 10.5 10.835938 10.835938 10.5 11.25 10.5 Z M 11.25 10.5 "/>
<path style=" stroke:none;fill-rule:nonzero;fill:rgb(95.294118%,71.764708%,85.09804%);fill-opacity:1;" d="M 11.25 18 L 15.75 18 C 16.164062 18 16.5 18.335938 16.5 18.75 C 16.5 19.164062 16.164062 19.5 15.75 19.5 L 11.25 19.5 C 10.835938 19.5 10.5 19.164062 10.5 18.75 C 10.5 18.335938 10.835938 18 11.25 18 Z M 11.25 18 "/>
<path style=" stroke:none;fill-rule:nonzero;fill:rgb(90.196079%,0.784314%,70.588237%);fill-opacity:1;" d="M 9 12.75 L 18 12.75 L 18 17.25 L 9 17.25 Z M 9 12.75 "/>
<path style=" stroke:none;fill-rule:nonzero;fill:rgb(61.56863%,22.745098%,60.784316%);fill-opacity:1;" d="M 18 10.5 L 21 10.5 L 21 12 L 18 12 Z M 18 10.5 "/>
<path style=" stroke:none;fill-rule:nonzero;fill:rgb(61.56863%,22.745098%,60.784316%);fill-opacity:1;" d="M 18 18 L 21 18 L 21 19.5 L 18 19.5 Z M 18 18 "/>
<path style=" stroke:none;fill-rule:nonzero;fill:rgb(61.56863%,22.745098%,60.784316%);fill-opacity:1;" d="M 19.5 12 L 21 12 L 21 18 L 19.5 18 Z M 19.5 12 "/>
<path style=" stroke:none;fill-rule:nonzero;fill:rgb(61.56863%,22.745098%,60.784316%);fill-opacity:1;" d="M 6 10.5 L 9 10.5 L 9 12 L 6 12 Z M 6 10.5 "/>
<path style=" stroke:none;fill-rule:nonzero;fill:rgb(61.56863%,22.745098%,60.784316%);fill-opacity:1;" d="M 6 12 L 7.5 12 L 7.5 19.5 L 6 19.5 Z M 6 12 "/>
<path style=" stroke:none;fill-rule:nonzero;fill:rgb(61.56863%,22.745098%,60.784316%);fill-opacity:1;" d="M 7.5 18 L 9 18 L 9 19.5 L 7.5 19.5 Z M 7.5 18 "/>
</g>
</svg>
