<?xml version="1.0" encoding="UTF-8"?>
<svg xmlns="http://www.w3.org/2000/svg" xmlns:xlink="http://www.w3.org/1999/xlink" width="24px" height="24px" viewBox="0 0 24 24" version="1.1">
<g id="surface1">
<path style=" stroke:none;fill-rule:nonzero;fill:rgb(90.196079%,0.784314%,70.588237%);fill-opacity:1;" d="M 22.5 3 L 22.5 21 C 22.5 21.828125 21.828125 22.5 21 22.5 L 3 22.5 C 2.171875 22.5 1.5 21.828125 1.5 21 L 1.5 3 C 1.5 2.171875 2.171875 1.5 3 1.5 L 21 1.5 C 21.828125 1.5 22.5 2.171875 22.5 3 Z M 22.5 3 "/>
<path style=" stroke:none;fill-rule:nonzero;fill:rgb(61.56863%,22.745098%,60.784316%);fill-opacity:1;" d="M 15 3.75 L 15 20.25 L 13.5 20.25 L 13.5 3.75 Z M 15 3.75 "/>
<path style=" stroke:none;fill-rule:nonzero;fill:rgb(94.117647%,89.019608%,92.54902%);fill-opacity:1;" d="M 21 3 L 21 21 L 20.25 21 L 20.25 3 Z M 21 3 "/>
<path style=" stroke:none;fill-rule:nonzero;fill:rgb(94.117647%,89.019608%,92.54902%);fill-opacity:1;" d="M 20.25 20.25 L 20.25 21 L 3 21 L 3 20.25 Z M 20.25 20.25 "/>
<path style=" stroke:none;fill-rule:nonzero;fill:rgb(94.117647%,89.019608%,92.54902%);fill-opacity:1;" d="M 3.75 3 L 3.75 20.25 L 3 20.25 L 3 3 Z M 3.75 3 "/>
<path style=" stroke:none;fill-rule:nonzero;fill:rgb(94.117647%,89.019608%,92.54902%);fill-opacity:1;" d="M 20.25 3 L 20.25 3.75 L 3.75 3.75 L 3.75 3 Z M 20.25 3 "/>
<path style=" stroke:none;fill-rule:nonzero;fill:rgb(94.117647%,89.019608%,92.54902%);fill-opacity:1;" d="M 17.25 3.75 L 17.25 20.25 L 16.5 20.25 L 16.5 3.75 Z M 17.25 3.75 "/>
<path style=" stroke:none;fill-rule:nonzero;fill:rgb(94.117647%,89.019608%,92.54902%);fill-opacity:1;" d="M 12 3.75 L 12 20.25 L 11.25 20.25 L 11.25 3.75 Z M 12 3.75 "/>
<path style=" stroke:none;fill-rule:nonzero;fill:rgb(94.117647%,89.019608%,92.54902%);fill-opacity:1;" d="M 8.25 3.75 L 8.25 20.25 L 7.5 20.25 L 7.5 3.75 Z M 8.25 3.75 "/>
<path style=" stroke:none;fill-rule:nonzero;fill:rgb(94.117647%,89.019608%,92.54902%);fill-opacity:1;" d="M 20.25 6 L 20.25 6.75 L 3.75 6.75 L 3.75 6 Z M 20.25 6 "/>
<path style=" stroke:none;fill-rule:nonzero;fill:rgb(61.56863%,22.745098%,60.784316%);fill-opacity:1;" d="M 14.261719 7.5 C 13.238281 5.929688 10.78125 3.070312 9.761719 1.5 L 18.761719 1.5 C 17.738281 3.070312 15.28125 5.929688 14.261719 7.5 Z M 14.261719 7.5 "/>
<path style=" stroke:none;fill-rule:nonzero;fill:rgb(94.117647%,89.019608%,92.54902%);fill-opacity:1;" d="M 15.75 3 L 12.769531 3 C 13.285156 3.65625 13.75 4.269531 14.261719 4.9375 C 14.769531 4.269531 15.234375 3.65625 15.75 3 Z M 15.75 3 "/>
<path style=" stroke:none;fill-rule:nonzero;fill:rgb(94.117647%,89.019608%,92.54902%);fill-opacity:1;" d="M 20.25 9 L 20.25 9.75 L 3.75 9.75 L 3.75 9 Z M 20.25 9 "/>
<path style=" stroke:none;fill-rule:nonzero;fill:rgb(94.117647%,89.019608%,92.54902%);fill-opacity:1;" d="M 20.25 12 L 20.25 12.75 L 3.75 12.75 L 3.75 12 Z M 20.25 12 "/>
<path style=" stroke:none;fill-rule:nonzero;fill:rgb(94.117647%,89.019608%,92.54902%);fill-opacity:1;" d="M 20.25 15 L 20.25 15.75 L 3.75 15.75 L 3.75 15 Z M 20.25 15 "/>
<path style=" stroke:none;fill-rule:nonzero;fill:rgb(94.117647%,89.019608%,92.54902%);fill-opacity:1;" d="M 20.25 18 L 20.25 18.75 L 3.75 18.75 L 3.75 18 Z M 20.25 18 "/>
</g>
</svg>
