<?xml version="1.0" encoding="UTF-8"?>
<svg xmlns="http://www.w3.org/2000/svg" xmlns:xlink="http://www.w3.org/1999/xlink" width="24px" height="24px" viewBox="0 0 24 24" version="1.1">
<g id="surface1">
<path style="fill-rule:evenodd;fill:rgb(95.294118%,71.764708%,85.09804%);fill-opacity:1;stroke-width:0.264583;stroke-linecap:round;stroke-linejoin:round;stroke:rgb(90.196079%,0.784314%,70.588237%);stroke-opacity:1;stroke-miterlimit:4;" d="M 0.538124 0.935688 L 3.711057 0.935688 C 3.784093 0.935688 3.843349 0.994944 3.843349 1.06798 L 3.843349 3.188092 C 3.843349 3.261128 3.784093 3.320383 3.711057 3.320383 L 0.538124 3.320383 C 0.465088 3.320383 0.405832 3.261128 0.405832 3.188092 L 0.405832 1.06798 C 0.405832 0.994944 0.465088 0.935688 0.538124 0.935688 Z M 0.538124 0.935688 " transform="matrix(5.669291,0,0,5.669291,0.00000135166,0)"/>
<path style=" stroke:none;fill-rule:evenodd;fill:rgb(94.117647%,89.019608%,92.54902%);fill-opacity:0.955446;" d="M 3.75 6.75 L 21 6.75 L 21 18 L 3.75 18 Z M 3.75 6.75 "/>
<path style=" stroke:none;fill-rule:nonzero;fill:rgb(61.56863%,22.745098%,60.784316%);fill-opacity:1;" d="M 21 18 L 20.25 18 L 20.25 6 L 21 6 Z M 21 18 "/>
<path style=" stroke:none;fill-rule:nonzero;fill:rgb(61.56863%,22.745098%,60.784316%);fill-opacity:1;" d="M 3.75 18 L 3 18 L 3 6 L 3.75 6 Z M 3.75 18 "/>
<path style=" stroke:none;fill-rule:nonzero;fill:rgb(61.56863%,22.745098%,60.784316%);fill-opacity:1;" d="M 20.25 17.25 L 20.25 18 L 3.75 18 L 3.75 17.25 Z M 20.25 17.25 "/>
<path style=" stroke:none;fill-rule:nonzero;fill:rgb(61.56863%,22.745098%,60.784316%);fill-opacity:1;" d="M 20.25 6 L 20.25 6.75 L 3.75 6.75 L 3.75 6 Z M 20.25 6 "/>
<path style=" stroke:none;fill-rule:nonzero;fill:rgb(61.56863%,22.745098%,60.784316%);fill-opacity:1;" d="M 20.25 9.75 L 20.25 10.5 L 3.75 10.5 L 3.75 9.75 Z M 20.25 9.75 "/>
<path style="fill-rule:nonzero;fill:rgb(94.117647%,89.019608%,92.54902%);fill-opacity:1;stroke-width:0.881944;stroke-linecap:round;stroke-linejoin:round;stroke:rgb(94.117647%,89.019608%,92.54902%);stroke-opacity:1;stroke-miterlimit:4;" d="M 6.415647 2.248558 C 6.415647 2.906571 5.882805 3.439413 5.22594 3.439413 C 4.567927 3.439413 4.035086 2.906571 4.035086 2.248558 C 4.035086 1.591693 4.567927 1.058852 5.22594 1.058852 C 5.882805 1.058852 6.415647 1.591693 6.415647 2.248558 Z M 6.415647 2.248558 " transform="matrix(3.401575,0,0,3.401575,-10.737364,-0.531451)"/>
<path style="fill:none;stroke-width:0.881944;stroke-linecap:round;stroke-linejoin:miter;stroke:rgb(94.117647%,89.019608%,92.54902%);stroke-opacity:1;stroke-miterlimit:4;" d="M 0.462521 1.190225 L 2.05071 1.190225 " transform="matrix(3.401575,0,0,3.401575,2.762637,3.068549)"/>
<path style="fill:none;stroke-width:0.881944;stroke-linecap:round;stroke-linejoin:miter;stroke:rgb(94.117647%,89.019608%,92.54902%);stroke-opacity:1;stroke-miterlimit:4;" d="M 1.25719 0.396704 L 1.25719 1.984893 " transform="matrix(3.401575,0,0,3.401575,2.762637,3.068549)"/>
<path style="fill-rule:nonzero;fill:rgb(94.117647%,89.019608%,92.54902%);fill-opacity:1;stroke-width:0.440972;stroke-linecap:round;stroke-linejoin:round;stroke:rgb(90.196079%,0.784314%,70.588237%);stroke-opacity:1;stroke-miterlimit:4;" d="M 6.415647 2.248558 C 6.415647 2.906571 5.882805 3.439413 5.22594 3.439413 C 4.567927 3.439413 4.035086 2.906571 4.035086 2.248558 C 4.035086 1.591693 4.567927 1.058852 5.22594 1.058852 C 5.882805 1.058852 6.415647 1.591693 6.415647 2.248558 Z M 6.415647 2.248558 " transform="matrix(3.401575,0,0,3.401575,-10.737364,-0.531451)"/>
<path style="fill:none;stroke-width:0.577701;stroke-linecap:round;stroke-linejoin:miter;stroke:rgb(61.56863%,22.745098%,60.784316%);stroke-opacity:1;stroke-miterlimit:4;" d="M 0.463132 1.190106 L 2.049998 1.190106 " transform="matrix(2.567462,0,0,2.625861,3.810926,3.992134)"/>
<path style="fill:none;stroke-width:0.577701;stroke-linecap:round;stroke-linejoin:miter;stroke:rgb(61.56863%,22.745098%,60.784316%);stroke-opacity:1;stroke-miterlimit:4;" d="M 1.257326 0.397212 L 1.257326 1.984489 " transform="matrix(2.567462,0,0,2.625861,3.810926,3.992134)"/>
</g>
</svg>
