<?xml version="1.0" encoding="UTF-8"?>
<svg xmlns="http://www.w3.org/2000/svg" xmlns:xlink="http://www.w3.org/1999/xlink" width="24px" height="24px" viewBox="0 0 24 24" version="1.1">
<defs>
<filter id="alpha" filterUnits="objectBoundingBox" x="0%" y="0%" width="100%" height="100%">
  <feColorMatrix type="matrix" in="SourceGraphic" values="0 0 0 0 1 0 0 0 0 1 0 0 0 0 1 0 0 0 1 0"/>
</filter>
<mask id="mask0">
  <g filter="url(#alpha)">
<rect x="0" y="0" width="24" height="24" style="fill:rgb(0%,0%,0%);fill-opacity:0.75;stroke:none;"/>
  </g>
</mask>
<linearGradient id="linear0" gradientUnits="userSpaceOnUse" x1="16" y1="16.000004" x2="88" y2="72" gradientTransform="matrix(0.187453,0,0,0.1875,0.00597302,4.49997)">
<stop offset="0" style="stop-color:rgb(99.607843%,99.607843%,99.607843%);stop-opacity:1;"/>
<stop offset="1" style="stop-color:rgb(99.607843%,99.607843%,99.607843%);stop-opacity:0;"/>
</linearGradient>
<clipPath id="clip1">
  <rect x="0" y="0" width="24" height="24"/>
</clipPath>
<g id="surface5" clip-path="url(#clip1)">
<path style=" stroke:none;fill-rule:nonzero;fill:url(#linear0);" d="M 1.503906 13.777344 C 1.507812 13.769531 1.488281 13.777344 1.503906 13.777344 Z M 17.210938 13.777344 C 17.226562 13.777344 17.238281 13.78125 17.242188 13.785156 L 17.253906 13.777344 Z M 2.597656 14.449219 L 5.222656 18.472656 L 19.222656 18.472656 L 16.597656 14.449219 Z M 2.597656 14.449219 "/>
<path style=" stroke:none;fill-rule:evenodd;fill:rgb(95.294118%,71.764708%,85.09804%);fill-opacity:1;" d="M 17.210938 13.777344 L 17.242188 13.785156 L 17.253906 13.777344 Z M 2.597656 14.449219 L 7.410156 21.828125 L 21.410156 21.828125 L 16.597656 14.449219 Z M 2.597656 14.449219 "/>
</g>
</defs>
<g id="surface1">
<use xlink:href="#surface5" mask="url(#mask0)"/>
<path style=" stroke:none;fill-rule:nonzero;fill:rgb(90.196079%,0.784314%,70.588237%);fill-opacity:1;" d="M 1.542969 13.777344 C 1.519531 13.777344 1.503906 13.785156 1.503906 13.796875 L 1.503906 14.429688 C 1.503906 14.433594 1.507812 14.433594 1.511719 14.4375 L 1.503906 14.449219 L 6.753906 22.5 L 6.761719 22.492188 C 6.769531 22.496094 6.777344 22.5 6.792969 22.5 L 22.460938 22.5 C 22.484375 22.5 22.503906 22.492188 22.503906 22.480469 L 22.503906 21.847656 C 22.503906 21.84375 22.496094 21.839844 22.492188 21.839844 L 22.503906 21.828125 L 17.253906 13.777344 L 17.242188 13.785156 C 17.238281 13.78125 17.226562 13.777344 17.210938 13.777344 Z M 2.597656 14.449219 L 16.597656 14.449219 L 21.410156 21.828125 L 7.410156 21.828125 Z M 2.597656 14.449219 "/>
<path style=" stroke:none;fill-rule:nonzero;fill:rgb(90.196079%,0.784314%,70.588237%);fill-opacity:1;" d="M 1.5 9 L 1.5 9.652344 L 1.507812 9.660156 L 1.5 9.671875 L 6.75 17.722656 L 6.757812 17.714844 L 6.789062 17.722656 L 22.460938 17.722656 L 22.5 17.703125 L 22.5 17.070312 L 22.492188 17.0625 L 22.5 17.050781 L 17.25 9 L 17.242188 9.007812 L 17.210938 9 Z M 2.59375 9.671875 L 16.59375 9.671875 L 21.40625 17.050781 L 7.40625 17.050781 Z M 2.59375 9.671875 "/>
<path style=" stroke:none;fill-rule:evenodd;fill:rgb(95.294118%,71.764708%,85.09804%);fill-opacity:1;" d="M 17.210938 9 C 17.222656 9 17.234375 9.003906 17.242188 9.007812 L 17.25 9 Z M 2.59375 9.671875 L 7.40625 17.050781 L 21.40625 17.050781 L 16.59375 9.671875 Z M 2.59375 9.671875 "/>
<path style="fill-rule:nonzero;fill:rgb(94.117647%,89.019608%,92.54902%);fill-opacity:1;stroke-width:0.881944;stroke-linecap:round;stroke-linejoin:round;stroke:rgb(94.117647%,89.019608%,92.54902%);stroke-opacity:1;stroke-miterlimit:4;" d="M 6.416376 2.24847 C 6.416376 2.906484 5.883534 3.439325 5.225521 3.439325 C 4.567508 3.439325 4.034666 2.906484 4.034666 2.24847 C 4.034666 1.591606 4.567508 1.058764 5.225521 1.058764 C 5.883534 1.058764 6.416376 1.591606 6.416376 2.24847 Z M 6.416376 2.24847 " transform="matrix(3.401575,0,0,3.401575,-10.275,-0.734278)"/>
<path style="fill:none;stroke-width:0.881944;stroke-linecap:round;stroke-linejoin:miter;stroke:rgb(94.117647%,89.019608%,92.54902%);stroke-opacity:1;stroke-miterlimit:4;" d="M 0.46325 1.190137 L 2.050291 1.190137 " transform="matrix(3.401575,0,0,3.401575,3.225001,2.865722)"/>
<path style="fill:none;stroke-width:0.881944;stroke-linecap:round;stroke-linejoin:miter;stroke:rgb(94.117647%,89.019608%,92.54902%);stroke-opacity:1;stroke-miterlimit:4;" d="M 1.256771 0.396617 L 1.256771 1.984806 " transform="matrix(3.401575,0,0,3.401575,3.225001,2.865722)"/>
<path style="fill-rule:nonzero;fill:rgb(94.117647%,89.019608%,92.54902%);fill-opacity:1;stroke-width:0.440972;stroke-linecap:round;stroke-linejoin:round;stroke:rgb(90.196079%,0.784314%,70.588237%);stroke-opacity:1;stroke-miterlimit:4;" d="M 6.416376 2.24847 C 6.416376 2.906484 5.883534 3.439325 5.225521 3.439325 C 4.567508 3.439325 4.034666 2.906484 4.034666 2.24847 C 4.034666 1.591606 4.567508 1.058764 5.225521 1.058764 C 5.883534 1.058764 6.416376 1.591606 6.416376 2.24847 Z M 6.416376 2.24847 " transform="matrix(3.401575,0,0,3.401575,-10.275,-0.734278)"/>
<path style="fill:none;stroke-width:0.577701;stroke-linecap:round;stroke-linejoin:miter;stroke:rgb(61.56863%,22.745098%,60.784316%);stroke-opacity:1;stroke-miterlimit:4;" d="M 0.462576 1.189993 L 2.050964 1.189993 " transform="matrix(2.567462,0,0,2.625861,4.27329,3.789307)"/>
<path style="fill:none;stroke-width:0.577701;stroke-linecap:round;stroke-linejoin:miter;stroke:rgb(61.56863%,22.745098%,60.784316%);stroke-opacity:1;stroke-miterlimit:4;" d="M 1.25677 0.397098 L 1.25677 1.984375 " transform="matrix(2.567462,0,0,2.625861,4.27329,3.789307)"/>
</g>
</svg>
