<?xml version="1.0" encoding="UTF-8"?>
<svg xmlns="http://www.w3.org/2000/svg" xmlns:xlink="http://www.w3.org/1999/xlink" width="24px" height="24px" viewBox="0 0 24 24" version="1.1">
<g id="surface1">
<path style=" stroke:none;fill-rule:nonzero;fill:rgb(33.333334%,34.117648%,32.549021%);fill-opacity:1;" d="M 13.5 1.5 L 13.5 12 L 18 12 C 19.65625 12 21 10.65625 21 9 C 21 7.34375 19.65625 6 18 6 L 15 6 L 15 1.5 Z M 4.5 4.5 L 4.5 6 L 9 6 L 9 7.5 L 5.25 7.5 C 4.007812 7.5 3 8.507812 3 9.75 C 3 10.992188 4.007812 12 5.25 12 L 10.5 12 L 10.5 6 C 10.5 5.171875 9.828125 4.5 9 4.5 Z M 15 7.5 L 18 7.5 C 18.828125 7.5 19.5 8.171875 19.5 9 C 19.5 9.828125 18.828125 10.5 18 10.5 L 15 10.5 Z M 5.25 9 L 9 9 L 9 10.5 L 5.25 10.5 C 4.835938 10.5 4.5 10.164062 4.5 9.75 C 4.5 9.335938 4.835938 9 5.25 9 Z M 16.5 13.5 L 16.5 15 C 16.5 15.398438 16.640625 15.796875 16.921875 16.078125 L 17.34375 16.5 L 1.5 16.5 L 1.5 19.5 L 17.34375 19.5 L 16.921875 19.921875 C 16.640625 20.203125 16.5 20.601562 16.5 21 L 16.5 22.5 L 18 22.5 C 18.398438 22.5 18.796875 22.359375 19.078125 22.078125 L 22.5 18.65625 L 22.5 17.34375 L 19.078125 13.921875 C 18.796875 13.640625 18.398438 13.5 18 13.5 Z M 16.5 13.5 "/>
</g>
</svg>
