<?xml version="1.0" encoding="UTF-8"?>
<svg xmlns="http://www.w3.org/2000/svg" xmlns:xlink="http://www.w3.org/1999/xlink" width="24px" height="24px" viewBox="0 0 24 24" version="1.1">
<defs>
<filter id="alpha" filterUnits="objectBoundingBox" x="0%" y="0%" width="100%" height="100%">
  <feColorMatrix type="matrix" in="SourceGraphic" values="0 0 0 0 1 0 0 0 0 1 0 0 0 0 1 0 0 0 1 0"/>
</filter>
<mask id="mask0">
  <g filter="url(#alpha)">
<rect x="0" y="0" width="24" height="24" style="fill:rgb(0%,0%,0%);fill-opacity:0.628019;stroke:none;"/>
  </g>
</mask>
<clipPath id="clip1">
  <rect x="0" y="0" width="24" height="24"/>
</clipPath>
<g id="surface5" clip-path="url(#clip1)">
<path style=" stroke:none;fill-rule:nonzero;fill:rgb(94.117647%,89.019608%,92.54902%);fill-opacity:1;" d="M 3 9 L 21 9 L 21 19.5 L 3 19.5 Z M 3 9 "/>
</g>
</defs>
<g id="surface1">
<path style="fill-rule:nonzero;fill:rgb(95.294118%,71.764708%,85.09804%);fill-opacity:1;stroke-width:0.264583;stroke-linecap:round;stroke-linejoin:round;stroke:rgb(90.196079%,0.784314%,70.588237%);stroke-opacity:1;stroke-miterlimit:4;" d="M 0.661458 0.396875 L 3.571875 0.396875 C 3.717947 0.396875 3.836458 0.515386 3.836458 0.661458 L 3.836458 3.571875 C 3.836458 3.717947 3.717947 3.836459 3.571875 3.836459 L 0.661458 3.836459 C 0.515386 3.836459 0.396875 3.717947 0.396875 3.571875 L 0.396875 0.661458 C 0.396875 0.515386 0.515386 0.396875 0.661458 0.396875 Z M 0.661458 0.396875 " transform="matrix(5.669291,0,0,5.669291,0.00000135166,0)"/>
<use xlink:href="#surface5" mask="url(#mask0)"/>
</g>
</svg>
