<?xml version="1.0" encoding="UTF-8"?>
<svg xmlns="http://www.w3.org/2000/svg" xmlns:xlink="http://www.w3.org/1999/xlink" width="24px" height="24px" viewBox="0 0 24 24" version="1.1">
<g id="surface1">
<path style=" stroke:none;fill-rule:nonzero;fill:rgb(90.196079%,0.784314%,70.588237%);fill-opacity:1;" d="M 3.136719 3 L 20.863281 3 C 21.765625 3 22.5 3.734375 22.5 4.636719 L 22.5 19.363281 C 22.5 20.265625 21.765625 21 20.863281 21 L 3.136719 21 C 2.234375 21 1.5 20.265625 1.5 19.363281 L 1.5 4.636719 C 1.5 3.734375 2.234375 3 3.136719 3 Z M 3.136719 3 "/>
<path style=" stroke:none;fill-rule:nonzero;fill:rgb(94.117647%,89.019608%,92.54902%);fill-opacity:1;" d="M 4.5 4.5 L 19.5 4.5 C 20.328125 4.5 21 5.171875 21 6 L 21 18 C 21 18.828125 20.328125 19.5 19.5 19.5 L 4.5 19.5 C 3.671875 19.5 3 18.828125 3 18 L 3 6 C 3 5.171875 3.671875 4.5 4.5 4.5 Z M 4.5 4.5 "/>
<path style="fill:none;stroke-width:0.5;stroke-linecap:butt;stroke-linejoin:miter;stroke:rgb(61.56863%,22.745098%,60.784316%);stroke-opacity:1;stroke-miterlimit:4;" d="M 9.440104 8.088542 C 8.393229 9.346354 7.747396 10.614583 7.536458 11.895833 C 7.536458 11.895833 6.901042 9.992188 5.632812 9.992188 " transform="matrix(1.5,0,0,1.5,0,0)"/>
<path style="fill-rule:nonzero;fill:rgb(90.196079%,0.784314%,70.588237%);fill-opacity:1;stroke-width:1.885043;stroke-linecap:butt;stroke-linejoin:miter;stroke:rgb(90.196079%,0.784314%,70.588237%);stroke-opacity:1;stroke-miterlimit:4;" d="M -1.070411 15.474455 C -2.796284 16.170917 -3.247821 14.091137 -3.247821 14.091137 C -3.247821 14.091137 -4.165946 16.343831 -5.681102 15.013349 C -7.196258 13.678063 -4.968677 12.611756 -4.968677 12.611756 C -4.968677 12.611756 -7.537419 12.414825 -6.64438 10.695285 C -5.756358 8.975744 -4.025468 10.599221 -4.025468 10.599221 C -4.025468 10.599221 -4.732875 8.269676 -2.630721 8.490622 C -0.52355 8.711569 -1.722631 10.829774 -1.722631 10.829774 C -1.722631 10.829774 0.45478 9.705829 0.816009 11.444582 C 1.177238 13.178532 -1.240991 12.986404 -1.240991 12.986404 C -1.240991 12.986404 0.655462 14.777993 -1.070411 15.474455 Z M -1.070411 15.474455 " transform="matrix(-0.778591,0,0,0.813262,12.33065,-0.811353)"/>
<path style="fill-rule:nonzero;fill:rgb(95.294118%,71.764708%,85.09804%);fill-opacity:1;stroke-width:1.885043;stroke-linecap:butt;stroke-linejoin:miter;stroke:rgb(95.294118%,71.764708%,85.09804%);stroke-opacity:1;stroke-miterlimit:4;" d="M -1.913279 13.966254 C -2.881575 14.355312 -3.132428 13.188138 -3.132428 13.188138 C -3.132428 13.188138 -3.649187 14.451376 -4.497072 13.706882 C -5.344958 12.962388 -4.100724 12.36199 -4.100724 12.36199 C -4.100724 12.36199 -5.535607 12.251517 -5.038916 11.29088 C -4.537209 10.325439 -3.568914 11.233242 -3.568914 11.233242 C -3.568914 11.233242 -3.965263 9.931578 -2.78625 10.051658 C -1.607238 10.176541 -2.279526 11.362928 -2.279526 11.362928 C -2.279526 11.362928 -1.060377 10.73371 -0.859694 11.708757 C -0.653994 12.679001 -2.008604 12.57333 -2.008604 12.57333 C -2.008604 12.57333 -0.950001 13.577196 -1.913279 13.966254 Z M -1.913279 13.966254 " transform="matrix(-0.778591,0,0,0.813262,12.33065,-0.811353)"/>
<path style=" stroke:none;fill-rule:nonzero;fill:rgb(61.56863%,22.745098%,60.784316%);fill-opacity:1;" d="M 13.734375 8.984375 C 13.734375 9.515625 14.148438 9.949219 14.65625 9.949219 C 15.167969 9.949219 15.582031 9.515625 15.582031 8.984375 C 15.582031 8.449219 15.167969 8.019531 14.65625 8.019531 C 14.148438 8.019531 13.734375 8.449219 13.734375 8.984375 Z M 13.734375 8.984375 "/>
<path style="fill-rule:nonzero;fill:rgb(90.196079%,0.784314%,70.588237%);fill-opacity:1;stroke-width:1.885043;stroke-linecap:butt;stroke-linejoin:miter;stroke:rgb(90.196079%,0.784314%,70.588237%);stroke-opacity:1;stroke-miterlimit:4;" d="M -1.069118 15.472691 C -2.794991 16.169153 -3.246528 14.089374 -3.246528 14.089374 C -3.246528 14.089374 -4.164653 16.346871 -5.679809 15.011585 C -7.194965 13.681103 -4.972402 12.614796 -4.972402 12.614796 C -4.972402 12.614796 -7.536126 12.413062 -6.643087 10.693521 C -5.755065 8.978784 -4.029192 10.597458 -4.029192 10.597458 C -4.029192 10.597458 -4.736599 8.267912 -2.629428 8.488859 C -0.522257 8.709806 -1.721338 10.82801 -1.721338 10.82801 C -1.721338 10.82801 0.456073 9.708868 0.817302 11.442818 C 1.178531 13.176768 -1.239698 12.984641 -1.239698 12.984641 C -1.239698 12.984641 0.656755 14.781032 -1.069118 15.472691 Z M -1.069118 15.472691 " transform="matrix(-0.778591,0,0,0.813262,5.312125,3.5143)"/>
<path style="fill-rule:nonzero;fill:rgb(95.294118%,71.764708%,85.09804%);fill-opacity:1;stroke-width:1.885043;stroke-linecap:butt;stroke-linejoin:miter;stroke:rgb(95.294118%,71.764708%,85.09804%);stroke-opacity:1;stroke-miterlimit:4;" d="M -1.911986 13.964491 C -2.880282 14.353549 -3.136152 13.191178 -3.136152 13.191178 C -3.136152 13.191178 -3.647894 14.454416 -4.495779 13.705119 C -5.343665 12.960625 -4.099431 12.36503 -4.099431 12.36503 C -4.099431 12.36503 -5.534314 12.249753 -5.037623 11.289116 C -4.535916 10.328479 -3.572638 11.236281 -3.572638 11.236281 C -3.572638 11.236281 -3.968987 9.929815 -2.789974 10.054698 C -1.610962 10.174777 -2.278233 11.361164 -2.278233 11.361164 C -2.278233 11.361164 -1.059084 10.73675 -0.858401 11.706993 C -0.657718 12.677237 -2.007311 12.571567 -2.007311 12.571567 C -2.007311 12.571567 -0.948708 13.575433 -1.911986 13.964491 Z M -1.911986 13.964491 " transform="matrix(-0.778591,0,0,0.813262,5.312125,3.5143)"/>
<path style=" stroke:none;fill-rule:nonzero;fill:rgb(61.56863%,22.745098%,60.784316%);fill-opacity:1;" d="M 6.714844 13.308594 C 6.714844 13.84375 7.128906 14.273438 7.640625 14.273438 C 8.148438 14.273438 8.5625 13.84375 8.5625 13.308594 C 8.5625 12.777344 8.148438 12.34375 7.640625 12.34375 C 7.128906 12.34375 6.714844 12.777344 6.714844 13.308594 Z M 6.714844 13.308594 "/>
<path style="fill-rule:evenodd;fill:rgb(95.294118%,71.764708%,85.09804%);fill-opacity:1;stroke-width:1.141441;stroke-linecap:round;stroke-linejoin:round;stroke:rgb(61.56863%,22.745098%,60.784316%);stroke-opacity:1;stroke-miterlimit:4;" d="M 15.293613 11.442132 C 15.293613 13.433708 13.679544 15.044805 11.69094 15.044805 C 9.702336 15.044805 8.088268 13.433708 8.088268 11.442132 C 8.088268 9.453528 9.702336 7.842432 11.69094 7.842432 C 13.679544 7.842432 15.293613 9.453528 15.293613 11.442132 Z M 15.293613 11.442132 " transform="matrix(1.314129,0,0,1.314129,1.136601,2.244817)"/>
<path style="fill:none;stroke-width:1.930378;stroke-linecap:round;stroke-linejoin:miter;stroke:rgb(90.196079%,0.784314%,70.588237%);stroke-opacity:1;stroke-miterlimit:4;" d="M 11.533167 8.458135 L 11.533167 14.163809 " transform="matrix(0.77705,0,0,0.77705,7.538153,8.494013)"/>
<path style="fill:none;stroke-width:1.930378;stroke-linecap:round;stroke-linejoin:miter;stroke:rgb(90.196079%,0.784314%,70.588237%);stroke-opacity:1;stroke-miterlimit:4;" d="M 8.677817 11.308458 L 14.388518 11.308458 " transform="matrix(0.77705,0,0,0.77705,7.538153,8.494013)"/>
</g>
</svg>
