<?xml version="1.0" encoding="UTF-8"?>
<svg xmlns="http://www.w3.org/2000/svg" xmlns:xlink="http://www.w3.org/1999/xlink" width="24px" height="24px" viewBox="0 0 24 24" version="1.1">
<g id="surface1">
<path style=" stroke:none;fill-rule:nonzero;fill:rgb(61.56863%,22.745098%,60.784316%);fill-opacity:1;" d="M 16.5 4.5 L 21 4.5 C 21.828125 4.5 22.5 5.171875 22.5 6 L 22.5 10.5 C 22.5 11.328125 21.828125 12 21 12 L 16.5 12 C 15.671875 12 15 11.328125 15 10.5 L 15 6 C 15 5.171875 15.671875 4.5 16.5 4.5 Z M 16.5 4.5 "/>
<path style=" stroke:none;fill-rule:nonzero;fill:rgb(90.196079%,0.784314%,70.588237%);fill-opacity:1;" d="M 3 1.5 L 9 1.5 C 9.828125 1.5 10.5 2.171875 10.5 3 L 10.5 9.1875 C 10.5 10.015625 9.828125 10.6875 9 10.6875 L 3 10.6875 C 2.171875 10.6875 1.5 10.015625 1.5 9.1875 L 1.5 3 C 1.5 2.171875 2.171875 1.5 3 1.5 Z M 3 1.5 "/>
<path style=" stroke:none;fill-rule:nonzero;fill:rgb(95.294118%,71.764708%,85.09804%);fill-opacity:1;" d="M 4.5 3 L 7.5 3 C 8.328125 3 9 3.671875 9 4.5 L 9 7.5 C 9 8.328125 8.328125 9 7.5 9 L 4.5 9 C 3.671875 9 3 8.328125 3 7.5 L 3 4.5 C 3 3.671875 3.671875 3 4.5 3 Z M 4.5 3 "/>
<path style=" stroke:none;fill-rule:nonzero;fill:rgb(95.294118%,71.764708%,85.09804%);fill-opacity:1;" d="M 18 6 L 19.5 6 C 20.328125 6 21 6.671875 21 7.5 L 21 9 C 21 9.828125 20.328125 10.5 19.5 10.5 L 18 10.5 C 17.171875 10.5 16.5 9.828125 16.5 9 L 16.5 7.5 C 16.5 6.671875 17.171875 6 18 6 Z M 18 6 "/>
<path style=" stroke:none;fill-rule:nonzero;fill:rgb(90.196079%,0.784314%,70.588237%);fill-opacity:1;" d="M 16.5 15 L 21 15 C 21.828125 15 22.5 15.671875 22.5 16.5 L 22.5 21 C 22.5 21.828125 21.828125 22.5 21 22.5 L 16.5 22.5 C 15.671875 22.5 15 21.828125 15 21 L 15 16.5 C 15 15.671875 15.671875 15 16.5 15 Z M 16.5 15 "/>
<path style=" stroke:none;fill-rule:nonzero;fill:rgb(95.294118%,71.764708%,85.09804%);fill-opacity:1;" d="M 18 16.5 L 19.5 16.5 C 20.328125 16.5 21 17.171875 21 18 L 21 19.5 C 21 20.328125 20.328125 21 19.5 21 L 18 21 C 17.171875 21 16.5 20.328125 16.5 19.5 L 16.5 18 C 16.5 17.171875 17.171875 16.5 18 16.5 Z M 18 16.5 "/>
<path style=" stroke:none;fill-rule:nonzero;fill:rgb(90.196079%,0.784314%,70.588237%);fill-opacity:1;" d="M 10.5 5.25 L 13.5 5.25 L 13.5 6.75 L 10.5 6.75 Z M 10.5 5.25 "/>
<path style=" stroke:none;fill-rule:nonzero;fill:rgb(90.196079%,0.784314%,70.588237%);fill-opacity:1;" d="M 12 6.75 L 13.5 6.75 L 13.5 19.5 L 12 19.5 Z M 12 6.75 "/>
<path style=" stroke:none;fill-rule:nonzero;fill:rgb(90.196079%,0.784314%,70.588237%);fill-opacity:1;" d="M 13.3125 18 L 15 18 L 15 19.5 L 13.3125 19.5 Z M 13.3125 18 "/>
<path style=" stroke:none;fill-rule:nonzero;fill:rgb(90.196079%,0.784314%,70.588237%);fill-opacity:1;" d="M 13.3125 6.75 L 15 6.75 L 15 8.25 L 13.3125 8.25 Z M 13.3125 6.75 "/>
</g>
</svg>
