<?xml version="1.0" encoding="UTF-8"?>
<svg xmlns="http://www.w3.org/2000/svg" xmlns:xlink="http://www.w3.org/1999/xlink" width="24px" height="24px" viewBox="0 0 24 24" version="1.1">
<g id="surface1">
<path style=" stroke:none;fill-rule:nonzero;fill:rgb(95.294118%,71.764708%,85.09804%);fill-opacity:1;" d="M 22.480469 3 L 1.480469 3 L 1.480469 22.5 L 22.480469 22.5 Z M 22.480469 3 "/>
<path style=" stroke:none;fill-rule:nonzero;fill:rgb(94.117647%,89.019608%,92.54902%);fill-opacity:1;" d="M 20.980469 4.5 L 16.480469 4.5 L 16.480469 8.980469 L 20.980469 8.980469 Z M 20.980469 4.5 "/>
<path style=" stroke:none;fill-rule:nonzero;fill:rgb(94.117647%,89.019608%,92.54902%);fill-opacity:1;" d="M 20.980469 10.480469 L 16.460938 10.480469 L 16.460938 15 L 20.980469 15 Z M 20.980469 10.480469 "/>
<path style=" stroke:none;fill-rule:nonzero;fill:rgb(94.117647%,89.019608%,92.54902%);fill-opacity:1;" d="M 20.980469 16.5 L 16.460938 16.5 L 16.460938 21 L 20.980469 21 Z M 20.980469 16.5 "/>
<path style=" stroke:none;fill-rule:nonzero;fill:rgb(94.117647%,89.019608%,92.54902%);fill-opacity:1;" d="M 14.980469 4.5 L 8.980469 4.5 L 8.980469 8.980469 L 14.980469 8.980469 Z M 14.980469 4.5 "/>
<path style=" stroke:none;fill-rule:nonzero;fill:rgb(61.56863%,22.745098%,60.784316%);fill-opacity:1;" d="M 14.980469 16.5 L 8.960938 16.5 L 8.960938 21 L 14.980469 21 Z M 14.980469 16.5 "/>
<path style=" stroke:none;fill-rule:nonzero;fill:rgb(94.117647%,89.019608%,92.54902%);fill-opacity:1;" d="M 7.480469 4.5 L 2.980469 4.5 L 2.980469 8.980469 L 7.480469 8.980469 Z M 7.480469 4.5 "/>
<path style=" stroke:none;fill-rule:nonzero;fill:rgb(94.117647%,89.019608%,92.54902%);fill-opacity:1;" d="M 7.480469 10.480469 L 2.980469 10.480469 L 2.980469 15 L 7.480469 15 Z M 7.480469 10.480469 "/>
<path style=" stroke:none;fill-rule:nonzero;fill:rgb(94.117647%,89.019608%,92.54902%);fill-opacity:1;" d="M 7.460938 16.5 L 2.980469 16.5 L 2.980469 21 L 7.460938 21 Z M 7.460938 16.5 "/>
<path style=" stroke:none;fill-rule:nonzero;fill:rgb(95.294118%,71.764708%,85.09804%);fill-opacity:1;" d="M 16.460938 9.75 L 7.460938 9.75 L 7.460938 11.25 L 16.460938 11.25 Z M 16.460938 9.75 "/>
<path style=" stroke:none;fill-rule:nonzero;fill:rgb(95.294118%,71.764708%,85.09804%);fill-opacity:1;" d="M 16.460938 11.25 L 14.960938 11.25 L 14.960938 17.25 L 16.460938 17.25 Z M 16.460938 11.25 "/>
<path style=" stroke:none;fill-rule:nonzero;fill:rgb(95.294118%,71.764708%,85.09804%);fill-opacity:1;" d="M 8.960938 11.25 L 7.460938 11.25 L 7.460938 15.75 L 8.960938 15.75 Z M 8.960938 11.25 "/>
<path style=" stroke:none;fill-rule:nonzero;fill:rgb(90.196079%,0.784314%,70.588237%);fill-opacity:1;" d="M 15.730469 2.980469 L 2.230469 2.980469 C 1.816406 2.980469 1.480469 3.316406 1.480469 3.730469 C 1.480469 4.144531 1.816406 4.480469 2.230469 4.480469 L 15.730469 4.480469 C 16.144531 4.480469 16.480469 4.144531 16.480469 3.730469 C 16.480469 3.316406 16.144531 2.980469 15.730469 2.980469 Z M 15.730469 2.980469 "/>
<path style=" stroke:none;fill-rule:nonzero;fill:rgb(90.196079%,0.784314%,70.588237%);fill-opacity:1;" d="M 15.730469 2.980469 C 15.316406 2.980469 14.980469 3.316406 14.980469 3.730469 L 14.980469 21 C 14.980469 21.414062 15.316406 21.75 15.730469 21.75 C 16.144531 21.75 16.480469 21.414062 16.480469 21 L 16.480469 3.730469 C 16.480469 3.316406 16.144531 2.980469 15.730469 2.980469 Z M 15.730469 2.980469 "/>
<path style=" stroke:none;fill-rule:nonzero;fill:rgb(94.117647%,89.019608%,92.54902%);fill-opacity:1;" d="M 14.980469 10.480469 L 8.960938 10.480469 L 8.960938 15 L 14.980469 15 Z M 14.980469 10.480469 "/>
<path style=" stroke:none;fill-rule:nonzero;fill:rgb(90.196079%,0.784314%,70.588237%);fill-opacity:1;" d="M 2.980469 21.730469 L 2.980469 3.730469 C 2.980469 3.316406 2.644531 2.980469 2.230469 2.980469 C 1.816406 2.980469 1.480469 3.316406 1.480469 3.730469 L 1.480469 21.730469 C 1.480469 22.144531 1.816406 22.480469 2.230469 22.480469 C 2.644531 22.480469 2.980469 22.144531 2.980469 21.730469 Z M 2.980469 21.730469 "/>
<path style=" stroke:none;fill-rule:nonzero;fill:rgb(90.196079%,0.784314%,70.588237%);fill-opacity:1;" d="M 8.230469 2.980469 C 7.816406 2.980469 7.480469 3.316406 7.480469 3.730469 L 7.480469 21 C 7.480469 21.414062 7.816406 21.75 8.230469 21.75 C 8.644531 21.75 8.980469 21.414062 8.980469 21 L 8.980469 3.730469 C 8.980469 3.316406 8.644531 2.980469 8.230469 2.980469 Z M 8.230469 2.980469 "/>
<path style=" stroke:none;fill-rule:nonzero;fill:rgb(90.196079%,0.784314%,70.588237%);fill-opacity:1;" d="M 15.730469 21 L 2.230469 21 C 1.816406 21 1.480469 21.332031 1.480469 21.742188 C 1.480469 22.148438 1.816406 22.480469 2.230469 22.480469 L 15.730469 22.480469 C 16.144531 22.480469 16.480469 22.148438 16.480469 21.742188 C 16.480469 21.332031 16.144531 21 15.730469 21 Z M 15.730469 21 "/>
<path style=" stroke:none;fill-rule:nonzero;fill:rgb(61.56863%,22.745098%,60.784316%);fill-opacity:1;" d="M 15 10.480469 L 8.980469 10.480469 L 8.980469 14.980469 L 15 14.980469 Z M 15 10.480469 "/>
<path style=" stroke:none;fill-rule:nonzero;fill:rgb(61.56863%,22.745098%,60.784316%);fill-opacity:1;" d="M 15 4.480469 L 8.980469 4.480469 L 8.980469 8.980469 L 15 8.980469 Z M 15 4.480469 "/>
<path style="fill-rule:nonzero;fill:rgb(94.117647%,89.019608%,92.54902%);fill-opacity:1;stroke-width:2.414248;stroke-linecap:butt;stroke-linejoin:miter;stroke:rgb(94.117647%,89.019608%,92.54902%);stroke-opacity:1;stroke-miterlimit:4;" d="M -6.047225 -7.631823 C -6.04486 -5.760791 -7.556987 -4.24212 -9.419341 -4.242473 C -11.284733 -4.243643 -12.794981 -5.759385 -12.793498 -7.632635 C -12.795863 -9.503667 -11.283736 -11.022338 -9.421382 -11.021986 C -7.555991 -11.020815 -6.045743 -9.505073 -6.047225 -7.631823 Z M -6.047225 -7.631823 " transform="matrix(-1.199698,0.323239,-0.319997,-1.200866,3.080337,1.37975)"/>
<path style="fill-rule:nonzero;fill:rgb(94.117647%,89.019608%,92.54902%);fill-opacity:1;stroke-width:1.207124;stroke-linecap:butt;stroke-linejoin:miter;stroke:rgb(90.196079%,0.784314%,70.588237%);stroke-opacity:1;stroke-miterlimit:4;" d="M -6.047225 -7.631823 C -6.04486 -5.760791 -7.556987 -4.24212 -9.419341 -4.242473 C -11.284733 -4.243643 -12.794981 -5.759385 -12.793498 -7.632635 C -12.795863 -9.503667 -11.283736 -11.022338 -9.421382 -11.021986 C -7.555991 -11.020815 -6.045743 -9.505073 -6.047225 -7.631823 Z M -6.047225 -7.631823 " transform="matrix(-1.199698,0.323239,-0.319997,-1.200866,3.080337,1.37975)"/>
<path style="fill:none;stroke-width:1.96209;stroke-linecap:round;stroke-linejoin:miter;stroke:rgb(90.196079%,0.784314%,70.588237%);stroke-opacity:1;stroke-miterlimit:4;" d="M 13.492885 7.168366 L 20.494091 7.168366 " transform="matrix(0.764377,0,0,0.764604,3.834783,2.019037)"/>
<path style="fill:none;stroke-width:1.96209;stroke-linecap:round;stroke-linejoin:miter;stroke:rgb(90.196079%,0.784314%,70.588237%);stroke-opacity:1;stroke-miterlimit:4;" d="M 16.993488 10.667929 L 16.993488 3.668802 " transform="matrix(0.764377,0,0,0.764604,3.834783,2.019037)"/>
<path style="fill:none;stroke-width:3.34715;stroke-linecap:round;stroke-linejoin:round;stroke:rgb(94.117647%,89.019608%,92.54902%);stroke-opacity:1;stroke-miterlimit:4;" d="M -15.001249 -5.499194 L -15.001249 -0.998994 " transform="matrix(0.000000000000000081,-1.334818,1.354106,0.000000000000000084,11.708213,-1.691903)"/>
<path style="fill:none;stroke-width:3.34715;stroke-linecap:round;stroke-linejoin:round;stroke:rgb(94.117647%,89.019608%,92.54902%);stroke-opacity:1;stroke-miterlimit:4;" d="M -17 -2 L -15.001249 -0.000872871 L -12.999571 -2 " transform="matrix(0.000000000000000081,-1.334818,1.354106,0.000000000000000084,11.708213,-1.691903)"/>
<path style="fill:none;stroke-width:2.231433;stroke-linecap:round;stroke-linejoin:round;stroke:rgb(61.56863%,22.745098%,60.784316%);stroke-opacity:1;stroke-miterlimit:4;" d="M -15.001248 -5.499195 L -15.001248 -0.998995 " transform="matrix(0.000000000000000163,-1.334818,1.354106,0.000000000000000166,11.708214,-1.691903)"/>
<path style="fill:none;stroke-width:2.231433;stroke-linecap:round;stroke-linejoin:round;stroke:rgb(61.56863%,22.745098%,60.784316%);stroke-opacity:1;stroke-miterlimit:4;" d="M -17 -2.000001 L -15.001248 -0.000873663 L -12.999571 -2.000001 " transform="matrix(0.000000000000000163,-1.334818,1.354106,0.000000000000000166,11.708214,-1.691903)"/>
</g>
</svg>
