<?xml version="1.0" encoding="UTF-8"?>
<svg xmlns="http://www.w3.org/2000/svg" xmlns:xlink="http://www.w3.org/1999/xlink" width="24px" height="24px" viewBox="0 0 24 24" version="1.1">
<g id="surface1">
<path style="fill-rule:nonzero;fill:rgb(95.294118%,71.764708%,85.09804%);fill-opacity:1;stroke-width:1;stroke-linecap:round;stroke-linejoin:round;stroke:rgb(90.196079%,0.784314%,70.588237%);stroke-opacity:1;stroke-miterlimit:4;" d="M 6.713542 1.523438 C 5.039062 1.526042 3.609375 2.783854 3.330729 4.5 L 3.276042 4.5 C 2.958333 4.5 2.703125 4.765625 2.703125 5.09375 L 2.703125 5.690104 C 2.703125 6.020833 2.958333 6.286458 3.276042 6.286458 L 3.473958 6.286458 C 3.822917 7.299479 4.591146 8.098958 5.567708 8.458333 L 5.567708 9.263021 L 3.848958 9.263021 C 2.578125 9.263021 1.557292 10.322917 1.557292 11.643229 L 1.557292 12.833333 L 11.867188 12.833333 L 11.867188 11.643229 C 11.867188 10.322917 10.846354 9.263021 9.575521 9.263021 L 7.859375 9.263021 L 7.859375 8.460938 C 8.835938 8.098958 9.601562 7.299479 9.947917 6.286458 L 10.148438 6.286458 C 10.466146 6.286458 10.721354 6.020833 10.721354 5.690104 L 10.721354 5.09375 C 10.721354 4.765625 10.466146 4.5 10.148438 4.5 L 10.101562 4.5 C 9.822917 2.78125 8.390625 1.523438 6.713542 1.523438 Z M 6.713542 1.523438 " transform="matrix(1.5,0,0,1.5,0,0)"/>
<path style=" stroke:none;fill-rule:nonzero;fill:rgb(90.196079%,0.784314%,70.588237%);fill-opacity:1;" d="M 10.628906 16.652344 C 10.628906 19.839844 13.28125 22.421875 16.550781 22.421875 C 19.824219 22.421875 22.472656 19.839844 22.472656 16.652344 C 22.472656 13.464844 19.824219 10.882812 16.550781 10.882812 C 13.28125 10.882812 10.628906 13.464844 10.628906 16.652344 Z M 10.628906 16.652344 "/>
<path style=" stroke:none;fill-rule:nonzero;fill:rgb(95.294118%,71.764708%,85.09804%);fill-opacity:1;" d="M 11.792969 16.640625 C 11.792969 19.203125 13.921875 21.28125 16.550781 21.28125 C 19.179688 21.28125 21.3125 19.203125 21.3125 16.640625 C 21.3125 14.078125 19.179688 12 16.550781 12 C 13.921875 12 11.792969 14.078125 11.792969 16.640625 Z M 11.792969 16.640625 "/>
<path style=" stroke:none;fill-rule:nonzero;fill:rgb(61.56863%,22.745098%,60.784316%);fill-opacity:1;" d="M 15.839844 13.183594 L 17.160156 13.183594 L 17.160156 17.144531 L 15.839844 17.144531 Z M 15.839844 13.183594 "/>
<path style=" stroke:none;fill-rule:nonzero;fill:rgb(61.56863%,22.745098%,60.784316%);fill-opacity:1;" d="M 16.484375 18.328125 C 17 18.328125 17.417969 18.734375 17.417969 19.238281 C 17.417969 19.742188 17 20.148438 16.484375 20.148438 C 15.96875 20.148438 15.550781 19.742188 15.550781 19.238281 C 15.550781 18.734375 15.96875 18.328125 16.484375 18.328125 Z M 16.484375 18.328125 "/>
</g>
</svg>
