<?xml version="1.0" encoding="UTF-8"?>
<svg xmlns="http://www.w3.org/2000/svg" xmlns:xlink="http://www.w3.org/1999/xlink" width="24px" height="24px" viewBox="0 0 24 24" version="1.1">
<g id="surface1">
<path style="fill-rule:nonzero;fill:rgb(95.294118%,71.764708%,85.09804%);fill-opacity:1;stroke-width:1.211257;stroke-linecap:butt;stroke-linejoin:round;stroke:rgb(90.196079%,0.784314%,70.588237%);stroke-opacity:1;stroke-miterlimit:4;" d="M 0.124031 11.025345 L 0.124031 15.870374 L 3.757802 12.41009 Z M 0.124031 11.025345 " transform="matrix(1.238383,0,0,1.238383,2.096402,2.096402)"/>
<path style="fill-rule:nonzero;fill:rgb(94.117647%,89.019608%,92.54902%);fill-opacity:1;stroke-width:1.211257;stroke-linecap:round;stroke-linejoin:round;stroke:rgb(90.196079%,0.784314%,70.588237%);stroke-opacity:1;stroke-miterlimit:4;" d="M -14.819987 1.335288 L -1.174418 1.335288 C -0.594024 1.335288 -0.124031 1.874676 -0.124031 2.537082 L -0.124031 12.053652 C -0.124031 12.716058 -0.594024 13.255446 -1.174418 13.255446 L -14.819987 13.255446 C -15.400381 13.255446 -15.870374 12.716058 -15.870374 12.053652 L -15.870374 2.537082 C -15.870374 1.874676 -15.400381 1.335288 -14.819987 1.335288 Z M -14.819987 1.335288 " transform="matrix(-1.238383,0,0,1.238383,2.096402,2.096402)"/>
<path style="fill-rule:evenodd;fill:rgb(95.294118%,71.764708%,85.09804%);fill-opacity:1;stroke-width:1.141441;stroke-linecap:round;stroke-linejoin:round;stroke:rgb(61.56863%,22.745098%,60.784316%);stroke-opacity:1;stroke-miterlimit:4;" d="M 15.293859 11.442688 C 15.293859 13.431292 13.67979 15.045361 11.691186 15.045361 C 9.702583 15.045361 8.088514 13.431292 8.088514 11.442688 C 8.088514 9.454085 9.702583 7.842989 11.691186 7.842989 C 13.67979 7.842989 15.293859 9.454085 15.293859 11.442688 Z M 15.293859 11.442688 " transform="matrix(1.314129,0,0,1.314129,1.667527,1.888617)"/>
<path style="fill:none;stroke-width:1.930378;stroke-linecap:round;stroke-linejoin:miter;stroke:rgb(90.196079%,0.784314%,70.588237%);stroke-opacity:1;stroke-miterlimit:4;" d="M 11.533584 8.459076 L 11.533584 14.16475 " transform="matrix(0.77705,0,0,0.77705,8.06908,8.137814)"/>
<path style="fill:none;stroke-width:1.930378;stroke-linecap:round;stroke-linejoin:miter;stroke:rgb(90.196079%,0.784314%,70.588237%);stroke-opacity:1;stroke-miterlimit:4;" d="M 8.678233 11.309399 L 14.388934 11.309399 " transform="matrix(0.77705,0,0,0.77705,8.06908,8.137814)"/>
</g>
</svg>
