<?xml version="1.0" encoding="UTF-8"?>
<svg xmlns="http://www.w3.org/2000/svg" xmlns:xlink="http://www.w3.org/1999/xlink" width="24px" height="24px" viewBox="0 0 24 24" version="1.1">
<g id="surface1">
<path style="fill-rule:evenodd;fill:rgb(94.117647%,89.019608%,92.54902%);fill-opacity:1;stroke-width:1;stroke-linecap:round;stroke-linejoin:round;stroke:rgb(90.196079%,0.784314%,70.588237%);stroke-opacity:1;stroke-miterlimit:4;" d="M 3 1.5 L 13 1.5 C 13.276042 1.5 13.5 1.723958 13.5 2 L 13.5 14 C 13.5 14.276042 13.276042 14.5 13 14.5 L 3 14.5 C 2.723958 14.5 2.5 14.276042 2.5 14 L 2.5 2 C 2.5 1.723958 2.723958 1.5 3 1.5 Z M 3 1.5 " transform="matrix(1.5,0,0,1.5,0,0)"/>
<path style=" stroke:none;fill-rule:nonzero;fill:rgb(61.56863%,22.745098%,60.784316%);fill-opacity:1;" d="M 6 6 L 7.5 6 L 7.5 7.5 L 6 7.5 Z M 6 6 "/>
<path style=" stroke:none;fill-rule:nonzero;fill:rgb(61.56863%,22.745098%,60.784316%);fill-opacity:1;" d="M 6 9 L 7.5 9 L 7.5 10.5 L 6 10.5 Z M 6 9 "/>
<path style=" stroke:none;fill-rule:nonzero;fill:rgb(61.56863%,22.745098%,60.784316%);fill-opacity:1;" d="M 6 12 L 7.5 12 L 7.5 13.5 L 6 13.5 Z M 6 12 "/>
<path style=" stroke:none;fill-rule:nonzero;fill:rgb(61.56863%,22.745098%,60.784316%);fill-opacity:1;" d="M 6 15 L 7.5 15 L 7.5 16.5 L 6 16.5 Z M 6 15 "/>
<path style=" stroke:none;fill-rule:nonzero;fill:rgb(61.56863%,22.745098%,60.784316%);fill-opacity:1;" d="M 6 18 L 7.5 18 L 7.5 19.5 L 6 19.5 Z M 6 18 "/>
<path style="fill-rule:evenodd;fill:rgb(95.294118%,71.764708%,85.09804%);fill-opacity:1;stroke-width:1;stroke-linecap:butt;stroke-linejoin:miter;stroke:rgb(90.196079%,0.392157%,70.588237%);stroke-opacity:1;stroke-miterlimit:4;" d="M 7.893229 9.71875 C 8.072917 8.460938 8.072917 8.460938 9.166667 8.309896 L 9.166667 7.34375 C 8.072917 7.200521 7.515625 3.578125 7.515625 3.578125 L 7.411458 3.578125 C 7.411458 3.578125 6.815104 7.200521 5.723958 7.330729 L 5.723958 8.330729 C 6.815104 8.460938 6.815104 8.460938 6.966146 9.71875 Z M 7.893229 9.71875 " transform="matrix(1.5,0,0,1.5,0,0)"/>
<path style="fill-rule:nonzero;fill:rgb(94.117647%,89.019608%,92.54902%);fill-opacity:1;stroke-width:1;stroke-linecap:round;stroke-linejoin:round;stroke:rgb(61.960787%,22.745098%,61.176473%);stroke-opacity:1;stroke-miterlimit:4;" d="M 9 14.5 C 9.184896 14.5 9.330729 14.351562 9.330729 14.169271 L 9.330729 9.682292 C 9.330729 9.682292 8.486979 9.054688 7.445312 9.054688 C 6.401042 9.054688 5.557292 9.682292 5.557292 9.682292 L 5.557292 14.169271 C 5.557292 14.351562 5.705729 14.5 5.888021 14.5 Z M 9 14.5 " transform="matrix(1.5,0,0,1.5,0,0)"/>
<path style="fill:none;stroke-width:0.25;stroke-linecap:butt;stroke-linejoin:miter;stroke:rgb(90.196079%,0.392157%,70.588237%);stroke-opacity:1;stroke-miterlimit:4;" d="M 7.481771 3.854167 L 7.466146 7.518229 " transform="matrix(1.5,0,0,1.5,0,0)"/>
<path style="fill:none;stroke-width:0.25;stroke-linecap:round;stroke-linejoin:round;stroke:rgb(90.196079%,0.392157%,70.588237%);stroke-opacity:1;stroke-miterlimit:4;" d="M -7.221354 -7.773438 C -7.221354 -7.638021 -7.333333 -7.528646 -7.46875 -7.528646 C -7.604167 -7.528646 -7.713542 -7.638021 -7.713542 -7.773438 C -7.713542 -7.911458 -7.604167 -8.020833 -7.46875 -8.020833 C -7.333333 -8.020833 -7.221354 -7.911458 -7.221354 -7.773438 Z M -7.221354 -7.773438 " transform="matrix(-1.5,0,0,-1.5,0,0)"/>
</g>
</svg>
