<?xml version="1.0" encoding="UTF-8" standalone="no"?>
<svg
   xmlns:dc="http://purl.org/dc/elements/1.1/"
   xmlns:cc="http://creativecommons.org/ns#"
   xmlns:rdf="http://www.w3.org/1999/02/22-rdf-syntax-ns#"
   xmlns:svg="http://www.w3.org/2000/svg"
   xmlns="http://www.w3.org/2000/svg"
   xmlns:xlink="http://www.w3.org/1999/xlink"
   xmlns:sodipodi="http://sodipodi.sourceforge.net/DTD/sodipodi-0.dtd"
   xmlns:inkscape="http://www.inkscape.org/namespaces/inkscape"
   height="24"
   width="24"
   id="svg2"
   version="1.1"
   inkscape:version="0.91 r13725"
   sodipodi:docname="lc_intersect.svg"
   inkscape:export-filename="/home/tamara/Desktop/IKON/5_258 (tamara)/sc (222)/Tanggal 7-03/lc_intersect.png"
   inkscape:export-xdpi="90"
   inkscape:export-ydpi="90">
  <metadata
     id="metadata45">
    <rdf:RDF>
      <cc:Work
         rdf:about="">
        <dc:format>image/svg+xml</dc:format>
        <dc:type
           rdf:resource="http://purl.org/dc/dcmitype/StillImage" />
        <dc:title></dc:title>
      </cc:Work>
    </rdf:RDF>
  </metadata>
  <defs
     id="defs43" />
  <sodipodi:namedview
     pagecolor="#ffffff"
     bordercolor="#666666"
     borderopacity="1"
     objecttolerance="10"
     gridtolerance="10"
     guidetolerance="10"
     inkscape:pageopacity="0"
     inkscape:pageshadow="2"
     inkscape:window-width="1366"
     inkscape:window-height="718"
     id="namedview41"
     showgrid="true"
     inkscape:zoom="14.75"
     inkscape:cx="15.015589"
     inkscape:cy="12.97007"
     inkscape:window-x="0"
     inkscape:window-y="0"
     inkscape:window-maximized="1"
     inkscape:current-layer="svg2">
    <inkscape:grid
       type="xygrid"
       id="grid4173" />
  </sodipodi:namedview>
  <linearGradient
     id="a">
    <stop
       offset="0"
       stop-color="#717174"
       id="stop5" />
    <stop
       offset=".5"
       stop-color="#9c9ca1"
       id="stop7" />
    <stop
       offset="1"
       stop-color="#bdbdc2"
       id="stop9" />
  </linearGradient>
  <linearGradient
     id="b"
     gradientUnits="userSpaceOnUse"
     x1="43.517578"
     x2="112"
     xlink:href="#a"
     y1="45.241211"
     y2="44.185516" />
  <linearGradient
     id="c"
     gradientUnits="userSpaceOnUse"
     x1="56"
     x2="83.993576"
     y1="73.839844"
     y2="42.689865">
    <stop
       offset="0"
       stop-color="#fff"
       id="stop13" />
    <stop
       offset=".42597079"
       stop-color="#fff"
       id="stop15" />
    <stop
       offset=".5892781"
       stop-color="#e5e5e5"
       id="stop17" />
    <stop
       offset=".80219781"
       stop-color="#eaeaea"
       id="stop19" />
    <stop
       offset="1"
       stop-color="#eee"
       id="stop21" />
  </linearGradient>
  <linearGradient
     id="d"
     gradientTransform="matrix(0.06940294,0,0,-0.11152913,8.766347,177.28781)"
     gradientUnits="userSpaceOnUse"
     x1="-11.041996"
     x2="1141.647"
     xlink:href="#a"
     y1="904.03656"
     y2="872.30853" />
  <linearGradient
     id="e"
     gradientUnits="userSpaceOnUse"
     x1="91.591782"
     x2="232"
     y1="31.999998"
     y2="-4.5477262">
    <stop
       offset="0"
       stop-color="#b4b4b6"
       id="stop25" />
    <stop
       offset=".5"
       stop-color="#9c9ca1"
       id="stop27" />
    <stop
       offset="1"
       stop-color="#cdcdd1"
       id="stop29" />
  </linearGradient>
  <g
     id="g4770">
    <g
       transform="matrix(1.5059075,0,0,1.5070661,-0.50590752,0.39400847)"
       id="g4179">
      <path
         inkscape:connector-curvature="0"
         style="opacity:1;fill:#e602b4"
         id="path33"
         d="M 6.1806351,6 A 4.4027064,4.4027064 0 0 0 10,9.8166184 L 10,6.161793 C 10,6.0721362 9.9131658,6 9.8052491,6 Z" />
      <path
         inkscape:connector-curvature="0"
         style="opacity:1;fill:#9d3a9b"
         id="path35"
         d="M 1.3400879,5 C 1.1516456,5 1,5.1763464 1,5.3955077 L 1,6 2.1582031,6 3,6 3,5 Z M 4,5 4,6 5,6 5,5 Z M 6,5 6,6 6.2307129,6 A 4.3050172,4.3050172 0 0 1 6.1960449,5.4997559 4.3050172,4.3050172 0 0 1 6.2280274,5 Z M 1,7 1,8 2,8 2,7 Z M 6,7 6,7.9423827 A 5.1230169,5.1230169 0 0 0 6.0349121,8 L 7,8 7,7.99585 A 4.3050172,4.3050172 0 0 1 6.46875,7 Z M 1,9 1,10 2,10 2,9 Z M 6.7729492,9 A 5.1230169,5.1230169 0 0 0 7,9.2299805 L 7,9 Z M 8,9 8,9.9592285 A 5.1230169,5.1230169 0 0 0 8.0710449,10 L 9,10 9,9.5290528 A 4.3050172,4.3050172 0 0 1 8.0004883,9 Z m 3,0.7705078 A 4.3050172,4.3050172 0 0 1 10.500977,9.8049316 4.3050172,4.3050172 0 0 1 10,9.7727051 L 10,10 11,10 Z M 1,11 l 0,1 1,0 0,-1 z m 9,0 0,1 1,0 0,-1 z m -9,2 0,1.604492 C 1,14.823654 1.1516456,15 1.3400879,15 L 3,15 3,14 2.1582031,14 C 2.0705356,14 2,13.915093 2,13.80957 L 2,13 Z m 9,0 0,0.80957 L 10,15 10.659912,15 C 10.848355,15 11,14.823654 11,14.604492 L 11,13 Z m -6,1 0,1 1,0 0,-1 z m 2,0 0,1 1,0 0,-1 z m 2,0 0,1 1,0 0,-1 z" />
      <path
         inkscape:connector-curvature="0"
         style="opacity:1;fill:#9d3a9b"
         id="path37"
         d="M 5.4067382,5 C 5.3887527,5.1660044 5.378894,5.3327887 5.3771972,5.4997559 5.3774223,5.6668141 5.3858097,5.8337617 5.4023437,6 5.6433395,8.4316339 7.5681367,10.354592 10,10.593262 c 0.166166,0.018 0.333114,0.02786 0.500244,0.02954 0.166896,-2.37e-4 0.33368,-0.0086 0.499756,-0.02515 L 11,9.7705078 11,5.3400879 C 11,5.1516456 10.823654,5 10.604492,5 L 6.2280274,5 Z M 6.2307129,6 9.8095703,6 C 9.9150925,6 10,6.0705356 10,6.1582031 l 0,3.2441407 2e-4,0.3733777 C 10.000203,9.7813628 9.3016844,9.6714139 9.1203613,9.572998 7.5488885,9.0386523 6.4245869,7.6484736 6.2307129,6 Z" />
      <path
         inkscape:connector-curvature="0"
         style="opacity:1;fill:#9d3a9b"
         id="path39"
         d="M 10,0.4021 A 5.1230169,5.1230169 0 0 0 9.0600586,0.58715859 L 9.3740235,1.3452153 C 9.5794212,1.2869691 9.7886465,1.2446789 10,1.2175297 Z m 1,0.004394 0,0.7883301 c 0.214749,0.026744 0.426862,0.070272 0.63501,0.1289063 L 11.94043,0.58691443 A 5.1230169,5.1230169 0 0 0 11,0.4064945 Z m 1.868164,0.55322266 -0.304688,0.73535154 c 0.193912,0.1023783 0.380432,0.2177979 0.556397,0.3483887 L 13.679688,1.483643 A 5.1230169,5.1230169 0 0 0 12.868164,0.95971716 Z m -4.7353515,0.001953 A 5.1230169,5.1230169 0 0 0 7.3242187,1.4875492 L 7.9089355,2.072266 C 8.0796879,1.9425767 8.2592666,1.824916 8.4477539,1.7219242 Z M 14.398926,2.1787114 13.827149,2.7504886 c 0.05338,0.065163 0.105016,0.1316842 0.154541,0.1999513 L 14,2.9335941 c 0.08244,0.1139423 0.156456,0.2321799 0.226563,0.3520508 l 0.73169,-0.3032227 A 5.1230169,5.1230169 0 0 0 14.398926,2.1787114 Z m -7.7939455,0.00366 A 5.1230169,5.1230169 0 0 0 6.0454101,2.9841317 l 0.7634278,0.3161622 c 0.020649,-0.035315 0.039385,-0.071728 0.061035,-0.1064454 0.0059,-0.00946 0.011845,-0.018903 0.017822,-0.02832 C 6.9759134,3.0229589 7.0745289,2.887367 7.178711,2.7561044 Z M 15.36206,3.897706 14.628662,4.2014169 c 0.06687,0.2192795 0.115624,0.4429022 0.146728,0.6689453 l 0.8042,0 A 5.1230169,5.1230169 0 0 0 15.36206,3.897706 Z M 5.6413574,3.898931 A 5.1230169,5.1230169 0 0 0 5.4199219,4.8703666 l 0.8286132,0 c 0.0339,-0.222798 0.08513,-0.4420331 0.1533204,-0.6564941 z M 14.79541,5.8703666 c -0.02224,0.2310099 -0.06235,0.4608644 -0.122314,0.6875 l 0.760987,0.3151855 a 5.1230169,5.1230169 0 0 0 0.175048,-1.0026855 z m -0.489014,1.6179199 c -0.03354,0.064226 -0.068,0.1279751 -0.104736,0.1904297 -0.0572,0.096086 -0.118115,0.1899073 -0.182617,0.28125 -0.0074,0.010858 -0.01492,0.021682 -0.02246,0.032471 -0.02313,0.032485 -0.04729,0.064149 -0.07129,0.095947 l 0.588623,0.5886231 A 5.1230169,5.1230169 0 0 0 15.071289,7.805181 Z m -1.07251,1.322998 c -0.05869,0.048571 -0.118152,0.096381 -0.179442,0.1418457 l 0.01074,0.011719 c -0.136208,0.097344 -0.27839,0.1856202 -0.424803,0.2663574 l 0.314696,0.7595215 a 5.1230169,5.1230169 0 0 0 0.863282,-0.5949707 z m -1.51538,0.807129 -0.0012,2.5e-4 C 11.482943,9.6895761 11.242978,9.740379 11,9.7705081 l 0,0.4589849 0,0.364013 a 5.1230169,5.1230169 0 0 0 1.034424,-0.212402 z" />
    </g>
  </g>
</svg>
