<?xml version="1.0" encoding="UTF-8"?>
<svg xmlns="http://www.w3.org/2000/svg" xmlns:xlink="http://www.w3.org/1999/xlink" width="24px" height="24px" viewBox="0 0 24 24" version="1.1">
<g id="surface1">
<path style=" stroke:none;fill-rule:nonzero;fill:rgb(95.294118%,71.764708%,85.09804%);fill-opacity:1;" d="M 10.257812 24 L 22.75 24 C 23.441406 24 24 23.441406 24 22.75 L 24 12.402344 L 18.039062 6.507812 L 10.257812 6.507812 C 9.566406 6.507812 9.007812 7.0625 9.007812 7.757812 L 9.007812 22.75 C 9.007812 23.441406 9.566406 24 10.257812 24 Z M 10.257812 24 "/>
<path style=" stroke:none;fill-rule:nonzero;fill:rgb(94.117647%,89.019608%,92.54902%);fill-opacity:1;" d="M 10.273438 22.75 L 10.273438 7.757812 L 18.390625 7.757812 L 18.390625 12.128906 L 22.765625 12.128906 L 22.765625 22.75 Z M 10.273438 22.75 "/>
<path style=" stroke:none;fill-rule:nonzero;fill:rgb(90.196079%,0.784314%,70.588237%);fill-opacity:1;" d="M 19.003906 12.753906 C 18.308594 12.753906 17.753906 12.195312 17.753906 11.503906 L 17.753906 6.507812 L 18.421875 6.507812 C 20.492188 7.875 22.871094 10.136719 24 12.148438 L 24 12.753906 Z M 19.003906 12.753906 "/>
<path style=" stroke:none;fill-rule:nonzero;fill:rgb(95.294118%,71.764708%,85.09804%);fill-opacity:1;" d="M 1.179688 0 L 12.957031 0 C 13.609375 0 14.136719 0.527344 14.136719 1.179688 L 14.136719 10.933594 L 8.515625 16.492188 L 1.179688 16.492188 C 0.523438 16.492188 0 15.96875 0 15.316406 L 0 1.179688 C 0 0.527344 0.523438 0 1.179688 0 Z M 1.179688 0 "/>
<path style=" stroke:none;fill-rule:nonzero;fill:rgb(94.117647%,89.019608%,92.54902%);fill-opacity:1;" d="M 1.191406 1.179688 L 1.191406 15.316406 L 8.847656 15.316406 L 8.847656 11.191406 L 12.972656 11.191406 L 12.972656 1.179688 Z M 1.191406 1.179688 "/>
<path style="fill-rule:nonzero;fill:rgb(90.196079%,0.784314%,70.588237%);fill-opacity:1;stroke-width:1;stroke-linecap:butt;stroke-linejoin:miter;stroke:rgb(61.56863%,22.745098%,60.784316%);stroke-opacity:1;stroke-miterlimit:4;" d="M 9.672344 3.999609 L 11.660261 3.999609 C 12.17025 3.999609 12.641209 4.720283 12.659423 5.001268 L 12.659423 9.000097 L 11.904847 9.000097 C 11.720106 9.000097 11.540569 9.111971 11.457306 9.27848 C 11.374042 9.442388 11.392256 9.655728 11.504142 9.804026 L 13.242268 11.804741 C 13.335939 11.929623 13.489456 12.005073 13.645576 12.005073 C 13.801695 12.005073 13.955212 11.929623 14.046281 11.804741 L 15.820835 9.804026 C 15.880681 9.723373 15.917109 9.621906 15.922313 9.520439 C 15.930119 9.249861 15.685532 9.000097 15.417528 9.000097 L 14.670758 9.000097 L 14.670758 5.00387 C 14.670758 3.627565 13.036711 1.998894 11.660261 1.998894 L 9.698364 1.998894 Z M 9.672344 3.999609 " transform="matrix(1.501257,0,0,1.501416,-0.99724,-0.0285151)"/>
<path style=" stroke:none;fill-rule:nonzero;fill:rgb(61.56863%,22.745098%,60.784316%);fill-opacity:1;" d="M 13.511719 19.496094 L 21.019531 19.496094 L 21.019531 20.996094 L 13.511719 20.996094 Z M 13.511719 19.496094 "/>
<path style=" stroke:none;fill-rule:nonzero;fill:rgb(61.56863%,22.745098%,60.784316%);fill-opacity:1;" d="M 3.003906 1.480469 L 12.011719 1.480469 L 12.011719 2.980469 L 3.003906 2.980469 Z M 3.003906 1.480469 "/>
<path style=" stroke:none;fill-rule:nonzero;fill:rgb(61.56863%,22.745098%,60.784316%);fill-opacity:1;" d="M 3.003906 4.480469 L 12.011719 4.480469 L 12.011719 5.984375 L 3.003906 5.984375 Z M 3.003906 4.480469 "/>
<path style=" stroke:none;fill-rule:nonzero;fill:rgb(61.56863%,22.745098%,60.784316%);fill-opacity:1;" d="M 3.003906 7.484375 L 12.011719 7.484375 L 12.011719 8.984375 L 3.003906 8.984375 Z M 3.003906 7.484375 "/>
<path style=" stroke:none;fill-rule:nonzero;fill:rgb(61.56863%,22.745098%,60.784316%);fill-opacity:1;" d="M 3.003906 10.488281 L 12.011719 10.488281 L 12.011719 11.988281 L 3.003906 11.988281 Z M 3.003906 10.488281 "/>
<path style=" stroke:none;fill-rule:nonzero;fill:rgb(61.56863%,22.745098%,60.784316%);fill-opacity:1;" d="M 3.003906 13.488281 L 9.007812 13.488281 L 9.007812 14.992188 L 3.003906 14.992188 Z M 3.003906 13.488281 "/>
<path style=" stroke:none;fill-rule:nonzero;fill:rgb(90.196079%,0.784314%,70.588237%);fill-opacity:1;" d="M 9.421875 10.601562 C 8.769531 10.601562 8.246094 11.128906 8.246094 11.78125 L 8.246094 16.492188 L 8.875 16.492188 C 10.828125 15.203125 13.070312 13.070312 14.136719 11.175781 L 14.136719 10.601562 Z M 9.421875 10.601562 "/>
<path style=" stroke:none;fill-rule:nonzero;fill:rgb(90.196079%,0.784314%,70.588237%);fill-opacity:1;" d="M 4.503906 1.480469 L 12.011719 1.480469 L 12.011719 2.980469 L 4.503906 2.980469 Z M 4.503906 1.480469 "/>
</g>
</svg>
