<?xml version="1.0" encoding="UTF-8"?>
<svg xmlns="http://www.w3.org/2000/svg" xmlns:xlink="http://www.w3.org/1999/xlink" width="24px" height="24px" viewBox="0 0 24 24" version="1.1">
<g id="surface1">
<path style=" stroke:none;fill-rule:nonzero;fill:rgb(90.196079%,0.784314%,70.588237%);fill-opacity:1;" d="M 3.085938 3 L 20.914062 3 C 21.789062 3 22.5 3.691406 22.5 4.546875 L 22.5 14.953125 C 22.5 15.808594 21.789062 16.5 20.914062 16.5 L 3.085938 16.5 C 2.210938 16.5 1.5 15.808594 1.5 14.953125 L 1.5 4.546875 C 1.5 3.691406 2.210938 3 3.085938 3 Z M 3.085938 3 "/>
<path style=" stroke:none;fill-rule:nonzero;fill:rgb(94.117647%,89.019608%,92.54902%);fill-opacity:1;" d="M 4.585938 4.5 L 19.414062 4.5 C 20.289062 4.5 21 5.191406 21 6.046875 L 21 13.453125 C 21 14.308594 20.289062 15 19.414062 15 L 4.585938 15 C 3.710938 15 3 14.308594 3 13.453125 L 3 6.046875 C 3 5.191406 3.710938 4.5 4.585938 4.5 Z M 4.585938 4.5 "/>
<path style="fill:none;stroke-width:1;stroke-linecap:round;stroke-linejoin:miter;stroke:rgb(90.196079%,0.784314%,70.588237%);stroke-opacity:1;stroke-miterlimit:4;" d="M 1.5 13.5 L 14.5 13.5 " transform="matrix(1.5,0,0,1.5,0,0)"/>
</g>
</svg>
