<?xml version="1.0" encoding="UTF-8"?>
<svg xmlns="http://www.w3.org/2000/svg" xmlns:xlink="http://www.w3.org/1999/xlink" width="24px" height="24px" viewBox="0 0 24 24" version="1.1">
<defs>
<filter id="alpha" filterUnits="objectBoundingBox" x="0%" y="0%" width="100%" height="100%">
  <feColorMatrix type="matrix" in="SourceGraphic" values="0 0 0 0 1 0 0 0 0 1 0 0 0 0 1 0 0 0 1 0"/>
</filter>
<mask id="mask0">
  <g filter="url(#alpha)">
<rect x="0" y="0" width="24" height="24" style="fill:rgb(0%,0%,0%);fill-opacity:0.340824;stroke:none;"/>
  </g>
</mask>
<clipPath id="clip1">
  <rect x="0" y="0" width="24" height="24"/>
</clipPath>
<g id="surface5" clip-path="url(#clip1)">
<path style=" stroke:none;fill-rule:nonzero;fill:rgb(94.117647%,89.019608%,92.54902%);fill-opacity:1;" d="M 3 4.5 L 21 4.5 L 21 22.5 L 3 22.5 Z M 3 4.5 "/>
</g>
</defs>
<g id="surface1">
<use xlink:href="#surface5" mask="url(#mask0)"/>
<path style=" stroke:none;fill-rule:nonzero;fill:rgb(61.56863%,22.745098%,60.784316%);fill-opacity:1;" d="M 2.039062 3 C 1.742188 3 1.5 3.210938 1.5 3.476562 L 1.5 21.910156 C 1.5 22.171875 1.742188 22.382812 2.039062 22.382812 L 21.960938 22.382812 C 22.257812 22.382812 22.5 22.171875 22.5 21.910156 L 22.5 3.476562 C 22.5 3.210938 22.257812 3 21.960938 3 Z M 3 4.382812 L 21 4.382812 L 21 21 L 3 21 Z M 3 4.382812 "/>
<path style=" stroke:none;fill-rule:nonzero;fill:rgb(95.294118%,71.764708%,85.09804%);fill-opacity:1;" d="M 4.5 10.5 L 18.75 10.5 L 18.75 12 L 4.5 12 Z M 4.5 10.5 "/>
<path style=" stroke:none;fill-rule:nonzero;fill:rgb(95.294118%,71.764708%,85.09804%);fill-opacity:1;" d="M 4.5 13.5 L 15 13.5 L 15 15 L 4.5 15 Z M 4.5 13.5 "/>
<path style=" stroke:none;fill-rule:nonzero;fill:rgb(95.294118%,71.764708%,85.09804%);fill-opacity:1;" d="M 4.5 16.5 L 19.5 16.5 L 19.5 18 L 4.5 18 Z M 4.5 16.5 "/>
<path style=" stroke:none;fill-rule:nonzero;fill:rgb(90.196079%,0.784314%,70.588237%);fill-opacity:1;" d="M 2.058594 1.5 L 18.941406 1.5 C 19.25 1.5 19.5 1.777344 19.5 2.121094 L 19.5 9.878906 C 19.5 10.222656 19.25 10.5 18.941406 10.5 L 2.058594 10.5 C 1.75 10.5 1.5 10.222656 1.5 9.878906 L 1.5 2.121094 C 1.5 1.777344 1.75 1.5 2.058594 1.5 Z M 2.058594 1.5 "/>
<path style=" stroke:none;fill-rule:nonzero;fill:rgb(95.294118%,71.764708%,85.09804%);fill-opacity:1;" d="M 3.535156 3 L 17.464844 3 C 17.757812 3 18 3.308594 18 3.691406 L 18 8.308594 C 18 8.691406 17.757812 9 17.464844 9 L 3.535156 9 C 3.242188 9 3 8.691406 3 8.308594 L 3 3.691406 C 3 3.308594 3.242188 3 3.535156 3 Z M 3.535156 3 "/>
<path style=" stroke:none;fill-rule:nonzero;fill:rgb(90.196079%,0.784314%,70.588237%);fill-opacity:1;" d="M 5.035156 3 L 5.464844 3 C 5.757812 3 6 3.15625 6 3.34375 L 6 5.65625 C 6 5.84375 5.757812 6 5.464844 6 L 5.035156 6 C 4.742188 6 4.5 5.84375 4.5 5.65625 L 4.5 3.34375 C 4.5 3.15625 4.742188 3 5.035156 3 Z M 5.035156 3 "/>
<path style=" stroke:none;fill-rule:nonzero;fill:rgb(95.294118%,71.764708%,85.09804%);fill-opacity:1;" d="M 4.5 19.5 L 18 19.5 L 18 21 L 4.5 21 Z M 4.5 19.5 "/>
<path style="fill:none;stroke-width:1;stroke-linecap:round;stroke-linejoin:round;stroke:rgb(61.56863%,22.745098%,60.784316%);stroke-opacity:1;stroke-miterlimit:4;" d="M 4.5 3.5 L 4.5 8 " transform="matrix(1.5,0,0,1.5,0,0)"/>
<path style="fill:none;stroke-width:1;stroke-linecap:round;stroke-linejoin:round;stroke:rgb(61.56863%,22.745098%,60.784316%);stroke-opacity:1;stroke-miterlimit:4;" d="M 2.5 6.5 L 4.5 9 L 6.5 6.5 " transform="matrix(1.5,0,0,1.5,0,0)"/>
</g>
</svg>
