<?xml version="1.0" encoding="UTF-8"?>
<svg xmlns="http://www.w3.org/2000/svg" xmlns:xlink="http://www.w3.org/1999/xlink" width="24px" height="24px" viewBox="0 0 24 24" version="1.1">
<g id="surface1">
<path style=" stroke:none;fill-rule:nonzero;fill:rgb(95.294118%,71.764708%,85.09804%);fill-opacity:1;" d="M 3 6 L 21 6 C 21.828125 6 22.5 6.671875 22.5 7.5 L 22.5 19.5 C 22.5 20.328125 21.828125 21 21 21 L 3 21 C 2.171875 21 1.5 20.328125 1.5 19.5 L 1.5 7.5 C 1.5 6.671875 2.171875 6 3 6 Z M 3 6 "/>
<path style=" stroke:none;fill-rule:nonzero;fill:rgb(94.117647%,89.019608%,92.54902%);fill-opacity:1;" d="M 3 7.5 L 7.5 7.5 L 7.5 9.75 L 3 9.75 Z M 3 7.5 "/>
<path style=" stroke:none;fill-rule:nonzero;fill:rgb(94.117647%,89.019608%,92.54902%);fill-opacity:1;" d="M 3 11.25 L 7.5 11.25 L 7.5 15.75 L 3 15.75 Z M 3 11.25 "/>
<path style=" stroke:none;fill-rule:nonzero;fill:rgb(94.117647%,89.019608%,92.54902%);fill-opacity:1;" d="M 3 17.25 L 7.5 17.25 L 7.5 19.5 L 3 19.5 Z M 3 17.25 "/>
<path style=" stroke:none;fill-rule:nonzero;fill:rgb(94.117647%,89.019608%,92.54902%);fill-opacity:1;" d="M 9 7.5 L 15 7.5 L 15 9.75 L 9 9.75 Z M 9 7.5 "/>
<path style=" stroke:none;fill-rule:nonzero;fill:rgb(61.56863%,22.745098%,60.784316%);fill-opacity:1;" d="M 9.75 11.25 L 14.25 11.25 C 14.664062 11.25 15 11.585938 15 12 L 15 15 C 15 15.414062 14.664062 15.75 14.25 15.75 L 9.75 15.75 C 9.335938 15.75 9 15.414062 9 15 L 9 12 C 9 11.585938 9.335938 11.25 9.75 11.25 Z M 9.75 11.25 "/>
<path style=" stroke:none;fill-rule:nonzero;fill:rgb(94.117647%,89.019608%,92.54902%);fill-opacity:1;" d="M 9 17.25 L 15 17.25 L 15 19.5 L 9 19.5 Z M 9 17.25 "/>
<path style=" stroke:none;fill-rule:nonzero;fill:rgb(94.117647%,89.019608%,92.54902%);fill-opacity:1;" d="M 16.5 7.5 L 21 7.5 L 21 9.75 L 16.5 9.75 Z M 16.5 7.5 "/>
<path style=" stroke:none;fill-rule:nonzero;fill:rgb(94.117647%,89.019608%,92.54902%);fill-opacity:1;" d="M 16.5 11.25 L 21 11.25 L 21 15.75 L 16.5 15.75 Z M 16.5 11.25 "/>
<path style=" stroke:none;fill-rule:nonzero;fill:rgb(94.117647%,89.019608%,92.54902%);fill-opacity:1;" d="M 16.5 17.25 L 21 17.25 L 21 19.5 L 16.5 19.5 Z M 16.5 17.25 "/>
<path style=" stroke:none;fill-rule:nonzero;fill:rgb(95.294118%,71.764708%,85.09804%);fill-opacity:1;" d="M 7.5 9.75 L 16.5 9.75 L 16.5 11.25 L 7.5 11.25 Z M 7.5 9.75 "/>
<path style=" stroke:none;fill-rule:nonzero;fill:rgb(95.294118%,71.764708%,85.09804%);fill-opacity:1;" d="M 7.5 11.25 L 9 11.25 L 9 17.25 L 7.5 17.25 Z M 7.5 11.25 "/>
<path style=" stroke:none;fill-rule:nonzero;fill:rgb(95.294118%,71.764708%,85.09804%);fill-opacity:1;" d="M 9 15.75 L 16.5 15.75 L 16.5 17.25 L 9 17.25 Z M 9 15.75 "/>
<path style=" stroke:none;fill-rule:nonzero;fill:rgb(95.294118%,71.764708%,85.09804%);fill-opacity:1;" d="M 15 11.25 L 16.5 11.25 L 16.5 15.75 L 15 15.75 Z M 15 11.25 "/>
<path style=" stroke:none;fill-rule:nonzero;fill:rgb(90.196079%,0.784314%,70.588237%);fill-opacity:1;" d="M 6.75 8.25 L 17.25 8.25 C 17.664062 8.25 18 8.585938 18 9 C 18 9.414062 17.664062 9.75 17.25 9.75 L 6.75 9.75 C 6.335938 9.75 6 9.414062 6 9 C 6 8.585938 6.335938 8.25 6.75 8.25 Z M 6.75 8.25 "/>
<path style=" stroke:none;fill-rule:nonzero;fill:rgb(90.196079%,0.784314%,70.588237%);fill-opacity:1;" d="M 6.75 9.75 C 7.164062 9.75 7.5 10.085938 7.5 10.5 L 7.5 18 C 7.5 18.414062 7.164062 18.75 6.75 18.75 C 6.335938 18.75 6 18.414062 6 18 L 6 10.5 C 6 10.085938 6.335938 9.75 6.75 9.75 Z M 6.75 9.75 "/>
<path style=" stroke:none;fill-rule:nonzero;fill:rgb(90.196079%,0.784314%,70.588237%);fill-opacity:1;" d="M 8.25 17.25 L 17.25 17.25 C 17.664062 17.25 18 17.585938 18 18 C 18 18.414062 17.664062 18.75 17.25 18.75 L 8.25 18.75 C 7.835938 18.75 7.5 18.414062 7.5 18 C 7.5 17.585938 7.835938 17.25 8.25 17.25 Z M 8.25 17.25 "/>
<path style=" stroke:none;fill-rule:nonzero;fill:rgb(90.196079%,0.784314%,70.588237%);fill-opacity:1;" d="M 17.25 9.75 C 17.664062 9.75 18 10.085938 18 10.5 L 18 16.5 C 18 16.914062 17.664062 17.25 17.25 17.25 C 16.835938 17.25 16.5 16.914062 16.5 16.5 L 16.5 10.5 C 16.5 10.085938 16.835938 9.75 17.25 9.75 Z M 17.25 9.75 "/>
<path style="fill-rule:nonzero;fill:rgb(94.117647%,89.019608%,92.54902%);fill-opacity:1;stroke-width:2.000003;stroke-linecap:butt;stroke-linejoin:miter;stroke:rgb(94.117647%,89.019608%,92.54902%);stroke-opacity:1;stroke-miterlimit:4;" d="M -6.046329 -7.631761 C -6.046282 -5.761358 -7.556861 -4.243672 -9.421063 -4.241481 C -11.284593 -4.241806 -12.794179 -5.761215 -12.794226 -7.631618 C -12.796119 -9.505212 -11.28554 -11.022898 -9.419493 -11.021897 C -7.555962 -11.021573 -6.045705 -9.504678 -6.046329 -7.631761 Z M -6.046329 -7.631761 " transform="matrix(-1.448376,0.390137,-0.386328,-1.449397,-0.627593,0.445885)"/>
<path style="fill-rule:nonzero;fill:rgb(94.117647%,89.019608%,92.54902%);fill-opacity:1;stroke-width:1.000002;stroke-linecap:butt;stroke-linejoin:miter;stroke:rgb(90.196079%,0.784314%,70.588237%);stroke-opacity:1;stroke-miterlimit:4;" d="M -6.046329 -7.631761 C -6.046282 -5.761358 -7.556861 -4.243672 -9.421063 -4.241481 C -11.284593 -4.241806 -12.794179 -5.761215 -12.794226 -7.631618 C -12.796119 -9.505212 -11.28554 -11.022898 -9.419493 -11.021897 C -7.555962 -11.021573 -6.045705 -9.504678 -6.046329 -7.631761 Z M -6.046329 -7.631761 " transform="matrix(-1.448376,0.390137,-0.386328,-1.449397,-0.627593,0.445885)"/>
<path style="fill:none;stroke-width:1.625429;stroke-linecap:round;stroke-linejoin:miter;stroke:rgb(90.196079%,0.784314%,70.588237%);stroke-opacity:1;stroke-miterlimit:4;" d="M 13.492483 7.167553 L 20.493778 7.167553 " transform="matrix(0.92282,0,0,0.922847,0.283237,1.217478)"/>
<path style="fill:none;stroke-width:1.625429;stroke-linecap:round;stroke-linejoin:miter;stroke:rgb(90.196079%,0.784314%,70.588237%);stroke-opacity:1;stroke-miterlimit:4;" d="M 16.99313 10.668101 L 16.99313 3.667006 " transform="matrix(0.92282,0,0,0.922847,0.283237,1.217478)"/>
</g>
</svg>
