<?xml version="1.0" encoding="UTF-8"?>
<svg xmlns="http://www.w3.org/2000/svg" xmlns:xlink="http://www.w3.org/1999/xlink" width="24px" height="24px" viewBox="0 0 24 24" version="1.1">
<g id="surface1">
<path style=" stroke:none;fill-rule:nonzero;fill:rgb(33.333334%,34.117648%,32.549021%);fill-opacity:1;" d="M 1.726562 4.515625 C 0.777344 4.515625 0.015625 5.183594 0.015625 6.011719 L 0.015625 16.5 C 0.015625 17.332031 0.777344 18 1.726562 18 L 22.285156 18 C 23.234375 18 24 17.332031 24 16.5 L 24 6.011719 C 24 5.183594 23.234375 4.515625 22.285156 4.515625 Z M 16.53125 7.527344 L 17.988281 7.527344 L 17.988281 10.507812 L 16.53125 10.507812 Z M 7.503906 7.527344 L 8.996094 7.527344 L 10.503906 9.035156 L 10.503906 13.503906 L 9.765625 14.242188 L 9.027344 14.976562 L 7.503906 14.976562 L 6.03125 13.503906 L 6.03125 9 Z M 13.515625 7.527344 L 15.007812 7.527344 L 15.007812 10.507812 L 16.496094 10.507812 L 16.496094 11.996094 L 15.007812 11.996094 L 15.007812 14.976562 L 13.515625 14.976562 Z M 7.488281 8.984375 L 7.488281 13.519531 L 9.011719 13.519531 L 9.011719 8.984375 Z M 16.53125 12.03125 L 17.988281 12.03125 L 17.988281 14.976562 L 16.53125 14.976562 Z M 16.53125 12.03125 "/>
</g>
</svg>
