<?xml version="1.0" encoding="UTF-8"?>
<svg xmlns="http://www.w3.org/2000/svg" xmlns:xlink="http://www.w3.org/1999/xlink" width="24px" height="24px" viewBox="0 0 24 24" version="1.1">
<g id="surface1">
<path style=" stroke:none;fill-rule:nonzero;fill:rgb(33.333334%,34.117648%,32.549021%);fill-opacity:1;" d="M 24 1.5 L 24 22.5 L 10.5 22.5 L 10.5 18 L 13.5 18 L 13.5 19.5 L 21 19.5 L 21 4.5 L 13.5 4.5 L 13.5 6 L 10.5 6 L 10.5 1.5 Z M 9 1.5 L 9 6 L 4.5 6 L 4.5 18 L 9 18 L 9 22.5 L 0 22.5 L 0 1.5 Z M 12 7.5 C 12.464844 7.5 12.828125 7.636719 13.125 7.921875 L 16.5 10.6875 L 16.5 13.246094 C 14.875 14.683594 14.75 14.847656 13.125 16.078125 C 12.828125 16.363281 12.464844 16.5 12 16.5 L 10.5 16.5 L 10.5 15 C 10.5 14.613281 10.695312 14.207031 10.96875 13.921875 L 11.734375 13.5 L 6 13.5 L 6 10.5 L 11.734375 10.5 L 10.96875 10.078125 C 10.695312 9.792969 10.5 9.386719 10.5 9 L 10.5 7.5 Z M 12 7.5 "/>
</g>
</svg>
