<?xml version="1.0" encoding="UTF-8"?>
<svg xmlns="http://www.w3.org/2000/svg" xmlns:xlink="http://www.w3.org/1999/xlink" width="24px" height="24px" viewBox="0 0 24 24" version="1.1">
<g id="surface1">
<path style=" stroke:none;fill-rule:nonzero;fill:rgb(90.196079%,0.784314%,70.588237%);fill-opacity:1;" d="M 1.5 1.5 L 22.5 1.5 L 22.5 21 L 1.5 21 Z M 1.5 1.5 "/>
<path style=" stroke:none;fill-rule:nonzero;fill:rgb(95.294118%,71.764708%,85.09804%);fill-opacity:1;" d="M 1.5 6 L 22.5 6 L 22.5 21 L 1.5 21 Z M 1.5 6 "/>
<path style=" stroke:none;fill-rule:evenodd;fill:rgb(90.196079%,0.784314%,70.588237%);fill-opacity:1;" d="M 12 6 L 13.5 6 L 13.5 21 L 12 21 Z M 12 6 "/>
<path style=" stroke:none;fill-rule:nonzero;fill:rgb(61.56863%,22.745098%,60.784316%);fill-opacity:1;" d="M 3 7.5 L 4.5 7.5 L 4.5 15 L 3 15 Z M 3 7.5 "/>
<path style=" stroke:none;fill-rule:nonzero;fill:rgb(61.56863%,22.745098%,60.784316%);fill-opacity:1;" d="M 4.5 7.5 L 10.5 7.5 L 10.5 9 L 4.5 9 Z M 4.5 7.5 "/>
<path style=" stroke:none;fill-rule:nonzero;fill:rgb(61.56863%,22.745098%,60.784316%);fill-opacity:1;" d="M 9 7.5 L 10.5 7.5 L 10.5 15 L 9 15 Z M 9 7.5 "/>
<path style=" stroke:none;fill-rule:nonzero;fill:rgb(61.56863%,22.745098%,60.784316%);fill-opacity:1;" d="M 3 15 L 10.5 15 L 10.5 16.5 L 3 16.5 Z M 3 15 "/>
<path style=" stroke:none;fill-rule:nonzero;fill:rgb(61.56863%,22.745098%,60.784316%);fill-opacity:1;" d="M 3 18 L 4.5 18 L 4.5 21 L 3 21 Z M 3 18 "/>
<path style=" stroke:none;fill-rule:nonzero;fill:rgb(61.56863%,22.745098%,60.784316%);fill-opacity:1;" d="M 4.5 18 L 10.5 18 L 10.5 19.5 L 4.5 19.5 Z M 4.5 18 "/>
<path style=" stroke:none;fill-rule:nonzero;fill:rgb(61.56863%,22.745098%,60.784316%);fill-opacity:1;" d="M 9 18 L 10.5 18 L 10.5 21 L 9 21 Z M 9 18 "/>
</g>
</svg>
