<?xml version="1.0" encoding="UTF-8"?>
<svg xmlns="http://www.w3.org/2000/svg" xmlns:xlink="http://www.w3.org/1999/xlink" width="24px" height="24px" viewBox="0 0 24 24" version="1.1">
<g id="surface1">
<path style="fill-rule:nonzero;fill:rgb(94.117647%,89.019608%,92.54902%);fill-opacity:1;stroke-width:1;stroke-linecap:round;stroke-linejoin:round;stroke:rgb(90.196079%,0.784314%,70.588237%);stroke-opacity:1;stroke-miterlimit:4;" d="M 2.355726 1.761179 C 1.886976 1.761179 1.511976 2.128366 1.511976 2.584096 L 1.511976 10.8367 C 1.511976 11.292429 1.886976 11.662221 2.355726 11.662221 L 12.496351 11.662221 C 12.965101 11.662221 13.342705 11.292429 13.342705 10.8367 L 13.342705 2.584096 C 13.342705 2.128366 12.965101 1.761179 12.496351 1.761179 C 12.496351 2.216908 12.118747 2.584096 11.652601 2.584096 L 10.806247 2.584096 C 10.337497 2.584096 9.962497 2.216908 9.962497 1.761179 Z M 2.355726 1.761179 " transform="matrix(1.5,0,0,1.5,1.653911,4.170732)"/>
<path style="fill-rule:nonzero;fill:rgb(95.294118%,71.764708%,85.09804%);fill-opacity:1;stroke-width:0.5;stroke-linecap:round;stroke-linejoin:round;stroke:rgb(61.56863%,22.745098%,60.784316%);stroke-opacity:1;stroke-miterlimit:4;" d="M 3.806247 4.521596 L 11.116143 4.521596 C 11.582289 4.521596 11.962497 4.8992 11.962497 5.365346 L 11.962497 9.435658 C 11.962497 9.901804 11.582289 10.282012 11.116143 10.282012 L 3.806247 10.282012 C 3.340101 10.282012 2.962497 9.901804 2.962497 9.435658 L 2.962497 5.365346 C 2.962497 4.8992 3.340101 4.521596 3.806247 4.521596 Z M 3.806247 4.521596 " transform="matrix(1.5,0,0,1.5,1.653911,4.170732)"/>
<path style="fill-rule:nonzero;fill:rgb(94.117647%,89.019608%,92.54902%);fill-opacity:1;stroke-width:1;stroke-linecap:round;stroke-linejoin:round;stroke:rgb(90.196079%,0.784314%,70.588237%);stroke-opacity:1;stroke-miterlimit:4;" d="M 2.356771 1.520833 C 1.888021 1.520833 1.510417 1.898438 1.510417 2.364583 L 1.510417 10.815104 C 1.510417 11.283854 1.888021 11.661458 2.356771 11.661458 L 12.497396 11.661458 C 12.963542 11.661458 13.341146 11.283854 13.341146 10.815104 L 13.341146 2.364583 C 13.341146 1.898438 12.963542 1.520833 12.497396 1.520833 C 12.497396 1.989583 12.119792 2.364583 11.651042 2.364583 L 10.807292 2.364583 C 10.338542 2.364583 9.960938 1.989583 9.960938 1.520833 Z M 2.356771 1.520833 " transform="matrix(1.5,0,0,1.5,0,0)"/>
<path style="fill-rule:nonzero;fill:rgb(95.294118%,71.764708%,85.09804%);fill-opacity:1;stroke-width:0.5;stroke-linecap:round;stroke-linejoin:round;stroke:rgb(61.56863%,22.745098%,60.784316%);stroke-opacity:1;stroke-miterlimit:4;" d="M 3.807292 4.520833 L 11.117188 4.520833 C 11.583333 4.520833 11.960938 4.898438 11.960938 5.364583 L 11.960938 9.434896 C 11.960938 9.903646 11.583333 10.28125 11.117188 10.28125 L 3.807292 10.28125 C 3.341146 10.28125 2.960938 9.903646 2.960938 9.434896 L 2.960938 5.364583 C 2.960938 4.898438 3.341146 4.520833 3.807292 4.520833 Z M 3.807292 4.520833 " transform="matrix(1.5,0,0,1.5,0,0)"/>
<path style=" stroke:none;fill-rule:evenodd;fill:rgb(61.56863%,22.745098%,60.784316%);fill-opacity:1;" d="M 4.238281 1.519531 C 3.9375 1.511719 3.636719 1.605469 3.386719 1.824219 C 3.144531 2.039062 2.996094 2.347656 2.996094 2.683594 L 2.996094 12.382812 C 2.996094 12.863281 3.320312 13.265625 3.703125 13.4375 C 4.101562 13.609375 4.5625 13.570312 4.921875 13.308594 L 7.496094 10.300781 L 7.496094 12.382812 C 7.496094 12.863281 7.820312 13.265625 8.203125 13.4375 C 8.601562 13.609375 9.0625 13.570312 9.421875 13.308594 L 16.050781 8.460938 C 16.34375 8.25 16.523438 7.898438 16.523438 7.53125 C 16.523438 7.164062 16.34375 6.8125 16.050781 6.597656 L 9.421875 1.753906 C 9.226562 1.609375 8.980469 1.527344 8.738281 1.519531 C 8.4375 1.511719 8.136719 1.605469 7.886719 1.824219 C 7.644531 2.039062 7.496094 2.347656 7.496094 2.683594 L 7.496094 4.945312 L 4.921875 1.753906 C 4.726562 1.609375 4.480469 1.527344 4.238281 1.519531 Z M 19.367188 1.519531 C 18.617188 1.519531 17.996094 2.144531 17.996094 2.890625 L 17.996094 12.171875 C 17.996094 12.917969 18.617188 13.542969 19.367188 13.542969 L 21.148438 13.542969 C 21.894531 13.542969 22.519531 12.917969 22.519531 12.171875 L 22.519531 2.890625 C 22.519531 2.144531 21.894531 1.519531 21.148438 1.519531 Z M 7.167969 6.316406 L 7.496094 6.558594 L 7.496094 8.503906 L 7.167969 8.742188 Z M 11.667969 6.316406 L 13.324219 7.53125 L 11.667969 8.742188 L 11.667969 8.320312 C 11.878906 8.109375 12.023438 7.835938 12.023438 7.53125 C 12.023438 7.226562 11.878906 6.953125 11.667969 6.738281 Z M 11.667969 6.316406 "/>
<path style=" stroke:none;fill-rule:evenodd;fill:rgb(94.117647%,89.019608%,92.54902%);fill-opacity:1;" d="M 4.527344 3.382812 L 4.527344 11.679688 L 9.027344 8.527344 L 9.027344 11.679688 L 14.953125 7.53125 L 9.027344 3.382812 L 9.027344 6.535156 Z M 4.527344 3.382812 "/>
<path style=" stroke:none;fill-rule:nonzero;fill:rgb(94.117647%,89.019608%,92.54902%);fill-opacity:1;" d="M 19.496094 3.039062 L 21.019531 3.039062 L 21.019531 12.023438 L 19.496094 12.023438 Z M 19.496094 3.039062 "/>
</g>
</svg>
