<?xml version="1.0" encoding="UTF-8"?>
<svg xmlns="http://www.w3.org/2000/svg" xmlns:xlink="http://www.w3.org/1999/xlink" width="24px" height="24px" viewBox="0 0 24 24" version="1.1">
<defs>
<clipPath id="clip1">
  <path d="M 2 2 L 11 2 L 11 8 L 2 8 Z M 2 2 "/>
</clipPath>
<clipPath id="clip2">
  <path d="M 1.355469 7.882812 L 21.636719 7.882812 C 21.714844 7.882812 21.777344 7.816406 21.777344 7.730469 L 21.777344 -0.324219 C 21.777344 -0.40625 21.714844 -0.476562 21.636719 -0.476562 L 1.355469 -0.476562 C 1.28125 -0.476562 1.214844 -0.40625 1.214844 -0.324219 L 1.214844 7.730469 C 1.214844 7.816406 1.28125 7.882812 1.355469 7.882812 Z M 1.355469 7.882812 "/>
</clipPath>
<clipPath id="clip3">
  <path d="M 1 1 L 11 1 L 11 8 L 1 8 Z M 1 1 "/>
</clipPath>
<clipPath id="clip4">
  <path d="M 1.355469 7.882812 L 21.636719 7.882812 C 21.714844 7.882812 21.777344 7.816406 21.777344 7.730469 L 21.777344 -0.324219 C 21.777344 -0.40625 21.714844 -0.476562 21.636719 -0.476562 L 1.355469 -0.476562 C 1.28125 -0.476562 1.214844 -0.40625 1.214844 -0.324219 L 1.214844 7.730469 C 1.214844 7.816406 1.28125 7.882812 1.355469 7.882812 Z M 1.355469 7.882812 "/>
</clipPath>
</defs>
<g id="surface1">
<path style="fill-rule:evenodd;fill:rgb(95.294118%,71.764708%,85.09804%);fill-opacity:1;stroke-width:1;stroke-linecap:round;stroke-linejoin:round;stroke:rgb(90.196079%,0.784314%,70.588237%);stroke-opacity:1;stroke-miterlimit:4;" d="M 3.690577 3.337904 L 12.654119 3.337904 C 13.758286 3.337904 14.654119 4.322279 14.654119 5.538425 L 14.654119 12.067071 C 14.654119 13.280612 13.758286 14.267592 12.654119 14.267592 L 3.690577 14.267592 C 2.586411 14.267592 1.690577 13.280612 1.690577 12.067071 L 1.690577 5.538425 C 1.690577 4.322279 2.586411 3.337904 3.690577 3.337904 Z M 3.690577 3.337904 " transform="matrix(1.5,0,0,1.5,-0.258522,0.200175)"/>
<g clip-path="url(#clip1)" clip-rule="nonzero">
<g clip-path="url(#clip2)" clip-rule="nonzero">
<path style=" stroke:none;fill-rule:evenodd;fill:rgb(95.294118%,71.764708%,85.09804%);fill-opacity:1;" d="M 4.140625 2.304688 L 8.222656 2.304688 C 9.246094 2.304688 10.078125 3.4375 10.078125 4.835938 L 10.078125 7.167969 C 10.078125 8.566406 9.246094 9.699219 8.222656 9.699219 L 4.140625 9.699219 C 3.113281 9.699219 2.285156 8.566406 2.285156 7.167969 L 2.285156 4.835938 C 2.285156 3.4375 3.113281 2.304688 4.140625 2.304688 Z M 4.140625 2.304688 "/>
</g>
</g>
<g clip-path="url(#clip3)" clip-rule="nonzero">
<g clip-path="url(#clip4)" clip-rule="nonzero">
<path style="fill:none;stroke-width:1.475344;stroke-linecap:round;stroke-linejoin:round;stroke:rgb(90.196079%,0.784314%,70.588237%);stroke-opacity:1;stroke-miterlimit:4;" d="M 3.966285 2.214779 L 8.157076 2.214779 C 9.207782 2.214779 10.061981 3.282217 10.061981 4.599949 L 10.061981 6.797398 C 10.061981 8.11513 9.207782 9.182567 8.157076 9.182567 L 3.966285 9.182567 C 2.911569 9.182567 2.06138 8.11513 2.06138 6.797398 L 2.06138 4.599949 C 2.06138 3.282217 2.911569 2.214779 3.966285 2.214779 Z M 3.966285 2.214779 " transform="matrix(0.974048,0,0,1.061245,0.277274,-0.0457364)"/>
</g>
</g>
<path style=" stroke:none;fill-rule:evenodd;fill:rgb(95.294118%,71.764708%,85.09804%);fill-opacity:1;" d="M 8.277344 5.976562 L 12.457031 5.976562 L 12.457031 9.054688 L 8.277344 9.054688 Z M 8.277344 5.976562 "/>
<path style="fill-rule:nonzero;fill:rgb(94.117647%,89.019608%,92.54902%);fill-opacity:1;stroke-width:1;stroke-linecap:round;stroke-linejoin:round;stroke:rgb(61.56863%,22.745098%,60.784316%);stroke-opacity:1;stroke-miterlimit:4;" d="M 6.891098 1.403008 C 6.633286 1.405612 6.466619 1.416029 6.211411 1.452487 C 6.13589 1.465508 6.07339 1.514987 6.07339 1.590508 L 6.029119 2.332696 C 6.021306 2.405612 5.969223 2.455092 5.911931 2.473321 C 5.911931 2.475925 5.909327 2.475925 5.906723 2.475925 C 5.583806 2.564467 5.276515 2.689467 4.995265 2.856133 C 4.943181 2.876967 4.875473 2.876967 4.820786 2.830092 L 4.263494 2.337904 C 4.211411 2.285821 4.133286 2.293633 4.070786 2.337904 C 3.865056 2.494154 3.737452 2.603529 3.555161 2.783217 C 3.372869 2.965508 3.266098 3.093112 3.109848 3.298842 C 3.065577 3.361342 3.055161 3.439467 3.109848 3.494154 L 3.602036 4.051446 C 3.638494 4.095717 3.659327 4.153008 3.638494 4.197279 L 3.633286 4.205092 C 3.456202 4.504571 3.318181 4.830092 3.22964 5.173842 C 3.22964 5.176446 3.22964 5.176446 3.227036 5.17905 C 3.203598 5.218112 3.161931 5.251967 3.102036 5.257175 L 2.359848 5.30405 C 2.284327 5.30405 2.234848 5.36655 2.224431 5.442071 C 2.187973 5.697279 2.174952 5.861342 2.174952 6.119154 C 2.174952 6.376967 2.187973 6.541029 2.224431 6.796237 C 2.234848 6.871758 2.284327 6.934258 2.359848 6.934258 L 3.102036 6.981133 C 3.169744 6.986342 3.216619 7.033217 3.237452 7.082696 C 3.32339 7.408217 3.456202 7.715508 3.620265 7.999362 C 3.651515 8.05405 3.651515 8.126967 3.602036 8.186862 L 3.109848 8.744154 C 3.055161 8.798842 3.065577 8.876967 3.109848 8.939467 C 3.266098 9.145196 3.372869 9.2728 3.555161 9.455092 C 3.737452 9.634779 3.865056 9.744154 4.070786 9.900404 C 4.133286 9.944675 4.211411 9.952487 4.263494 9.900404 L 4.820786 9.408217 C 4.880681 9.358737 4.956202 9.358737 5.008286 9.387383 L 5.016098 9.379571 C 5.29214 9.538425 5.591619 9.663425 5.906723 9.749362 L 5.906723 9.762383 C 5.966619 9.778008 6.021306 9.830092 6.029119 9.905612 L 6.07339 10.6478 C 6.07339 10.723321 6.13589 10.7728 6.211411 10.785821 C 6.466619 10.822279 6.633286 10.832696 6.891098 10.8353 C 7.146306 10.832696 7.312973 10.822279 7.568181 10.785821 C 7.643702 10.7728 7.706202 10.723321 7.706202 10.6478 L 7.753077 9.905612 C 7.758286 9.830092 7.815577 9.778008 7.872869 9.762383 L 7.872869 9.749362 C 8.187973 9.663425 8.487452 9.538425 8.763494 9.379571 L 8.771306 9.387383 C 8.82339 9.358737 8.898911 9.358737 8.958806 9.408217 L 9.516098 9.900404 C 9.570786 9.952487 9.648911 9.944675 9.708806 9.900404 C 9.914536 9.744154 10.04214 9.634779 10.224431 9.455092 C 10.406723 9.2728 10.513494 9.145196 10.669744 8.939467 C 10.714015 8.876967 10.724431 8.798842 10.669744 8.744154 L 10.180161 8.186862 C 10.128077 8.126967 10.130681 8.05405 10.159327 7.999362 C 10.325994 7.715508 10.456202 7.408217 10.54214 7.082696 C 10.562973 7.033217 10.609848 6.986342 10.677556 6.981133 L 11.419744 6.934258 C 11.495265 6.934258 11.544744 6.871758 11.557765 6.796237 C 11.591619 6.541029 11.60464 6.376967 11.60464 6.119154 C 11.60464 5.861342 11.591619 5.697279 11.557765 5.442071 C 11.544744 5.36655 11.495265 5.30405 11.419744 5.30405 L 10.677556 5.257175 C 10.620265 5.251967 10.575994 5.218112 10.552556 5.17905 C 10.552556 5.176446 10.549952 5.176446 10.549952 5.173842 C 10.461411 4.830092 10.302556 4.514987 10.146306 4.205092 L 10.141098 4.197279 C 10.120265 4.153008 10.141098 4.095717 10.177556 4.051446 L 10.669744 3.494154 C 10.724431 3.439467 10.714015 3.361342 10.669744 3.298842 C 10.513494 3.093112 10.406723 2.965508 10.224431 2.783217 C 10.04214 2.603529 9.914536 2.494154 9.708806 2.337904 C 9.648911 2.293633 9.570786 2.285821 9.516098 2.337904 L 8.958806 2.830092 C 8.904119 2.876967 8.836411 2.876967 8.786931 2.856133 C 8.503077 2.689467 8.195786 2.564467 7.872869 2.475925 C 7.870265 2.475925 7.870265 2.475925 7.867661 2.473321 C 7.812973 2.455092 7.758286 2.405612 7.753077 2.332696 L 7.706202 1.590508 C 7.706202 1.514987 7.643702 1.465508 7.568181 1.452487 C 7.312973 1.416029 7.146306 1.405612 6.891098 1.403008 Z M 6.891098 4.861342 C 7.583806 4.861342 8.148911 5.423842 8.148911 6.119154 C 8.148911 6.814467 7.583806 7.376967 6.891098 7.376967 C 6.195786 7.376967 5.633286 6.814467 5.633286 6.119154 C 5.633286 5.423842 6.195786 4.861342 6.891098 4.861342 Z M 6.891098 4.861342 " transform="matrix(1.5,0,0,1.5,-0.258522,0.200175)"/>
<path style="fill-rule:evenodd;fill:rgb(95.294118%,71.764708%,85.09804%);fill-opacity:1;stroke-width:1;stroke-linecap:round;stroke-linejoin:round;stroke:rgb(90.196079%,0.784314%,70.588237%);stroke-opacity:1;stroke-miterlimit:4;" d="M 3.654119 6.637383 L 12.680161 6.637383 C 13.747869 6.637383 14.612452 7.621758 14.612452 8.837904 L 14.612452 12.150404 C 14.612452 13.36655 13.747869 14.350925 12.680161 14.350925 L 3.654119 14.350925 C 2.586411 14.350925 1.719223 13.36655 1.719223 12.150404 L 1.719223 8.837904 C 1.719223 7.621758 2.586411 6.637383 3.654119 6.637383 Z M 3.654119 6.637383 " transform="matrix(1.5,0,0,1.5,-0.258522,0.200175)"/>
<path style="fill:none;stroke-width:1;stroke-linecap:butt;stroke-linejoin:miter;stroke:rgb(61.56863%,22.745098%,60.784316%);stroke-opacity:1;stroke-miterlimit:4;" d="M 2.018702 11.296237 L 14.344223 11.296237 " transform="matrix(1.5,0,0,1.5,-0.258522,0.200175)"/>
<path style="fill:none;stroke-width:1;stroke-linecap:butt;stroke-linejoin:miter;stroke:rgb(61.56863%,22.745098%,60.784316%);stroke-opacity:1;stroke-miterlimit:4;" d="M 2.000473 12.499362 L 14.344223 12.499362 " transform="matrix(1.5,0,0,1.5,-0.258522,0.200175)"/>
</g>
</svg>
