<?xml version="1.0" encoding="UTF-8"?>
<svg xmlns="http://www.w3.org/2000/svg" xmlns:xlink="http://www.w3.org/1999/xlink" width="24px" height="24px" viewBox="0 0 24 24" version="1.1">
<defs>
<filter id="alpha" filterUnits="objectBoundingBox" x="0%" y="0%" width="100%" height="100%">
  <feColorMatrix type="matrix" in="SourceGraphic" values="0 0 0 0 1 0 0 0 0 1 0 0 0 0 1 0 0 0 1 0"/>
</filter>
<mask id="mask0">
  <g filter="url(#alpha)">
<rect x="0" y="0" width="24" height="24" style="fill:rgb(0%,0%,0%);fill-opacity:0.99;stroke:none;"/>
  </g>
</mask>
<clipPath id="clip1">
  <rect x="0" y="0" width="24" height="24"/>
</clipPath>
<g id="surface5" clip-path="url(#clip1)">
<path style="fill-rule:nonzero;fill:rgb(95.294118%,71.764708%,85.09804%);fill-opacity:1;stroke-width:1.083742;stroke-linecap:butt;stroke-linejoin:miter;stroke:rgb(90.196079%,0.784314%,70.588237%);stroke-opacity:1;stroke-miterlimit:4;" d="M -1.015948 15.353034 C -1.015948 16.462176 -1.913421 17.362471 -3.022563 17.362471 C -4.131705 17.362471 -5.032001 16.462176 -5.032001 15.353034 C -5.032001 14.243892 -4.131705 13.343596 -3.022563 13.343596 C -1.913421 13.343596 -1.015948 14.243892 -1.015948 15.353034 Z M -1.015948 15.353034 " transform="matrix(-1.384094,0,0,1.384094,0.878989,-9.207067)"/>
</g>
</defs>
<g id="surface1">
<path style="fill:none;stroke-width:1.083742;stroke-linecap:round;stroke-linejoin:round;stroke:rgb(90.196079%,0.784314%,70.588237%);stroke-opacity:1;stroke-miterlimit:4;" d="M 5.34527 15.321989 L 14.384918 15.321989 " transform="matrix(1.384094,0,0,1.384094,0.878989,-9.207067)"/>
<use xlink:href="#surface5" mask="url(#mask0)"/>
<path style="fill:none;stroke-width:1.083742;stroke-linecap:round;stroke-linejoin:round;stroke:rgb(90.196079%,0.784314%,70.588237%);stroke-opacity:1;stroke-miterlimit:4;" d="M 12.37548 12.643679 L 15.05379 15.321989 L 12.37548 18.000299 " transform="matrix(1.384094,0,0,1.384094,0.878989,-9.207067)"/>
</g>
</svg>
