<?xml version="1.0" encoding="UTF-8" standalone="no"?>
<svg
   xmlns:dc="http://purl.org/dc/elements/1.1/"
   xmlns:cc="http://creativecommons.org/ns#"
   xmlns:rdf="http://www.w3.org/1999/02/22-rdf-syntax-ns#"
   xmlns:svg="http://www.w3.org/2000/svg"
   xmlns="http://www.w3.org/2000/svg"
   xmlns:xlink="http://www.w3.org/1999/xlink"
   xmlns:sodipodi="http://sodipodi.sourceforge.net/DTD/sodipodi-0.dtd"
   xmlns:inkscape="http://www.inkscape.org/namespaces/inkscape"
   enable-background="new 0 0 128 128"
   height="24"
   viewBox="0 0 24 24"
   width="24"
   id="svg2"
   version="1.1"
   inkscape:version="0.91 r13725"
   sodipodi:docname="lc_lastslide.svg"
   inkscape:export-filename="/home/tamara/Desktop/IKON/5_258 (tamara)/sc (222)/Tanggal 7-03/lc_lastslide.png"
   inkscape:export-xdpi="90"
   inkscape:export-ydpi="90">
  <metadata
     id="metadata217">
    <rdf:RDF>
      <cc:Work
         rdf:about="">
        <dc:format>image/svg+xml</dc:format>
        <dc:type
           rdf:resource="http://purl.org/dc/dcmitype/StillImage" />
        <dc:title></dc:title>
      </cc:Work>
    </rdf:RDF>
  </metadata>
  <defs
     id="defs215" />
  <sodipodi:namedview
     pagecolor="#ffffff"
     bordercolor="#666666"
     borderopacity="1"
     objecttolerance="10"
     gridtolerance="10"
     guidetolerance="10"
     inkscape:pageopacity="0"
     inkscape:pageshadow="2"
     inkscape:window-width="1366"
     inkscape:window-height="718"
     id="namedview213"
     showgrid="true"
     inkscape:zoom="14.75"
     inkscape:cx="4.8841102"
     inkscape:cy="8"
     inkscape:window-x="0"
     inkscape:window-y="0"
     inkscape:window-maximized="1"
     inkscape:current-layer="svg2">
    <inkscape:grid
       type="xygrid"
       id="grid4357" />
  </sodipodi:namedview>
  <linearGradient
     id="a">
    <stop
       offset="0"
       stop-color="#fff"
       id="stop5" />
    <stop
       offset="1"
       stop-color="#fff"
       stop-opacity="0"
       id="stop7" />
  </linearGradient>
  <linearGradient
     id="b"
     gradientUnits="userSpaceOnUse"
     x1="28"
     x2="28"
     xlink:href="#a"
     y1="57.5"
     y2="0" />
  <linearGradient
     id="c"
     xlink:href="#a" />
  <filter
     id="d"
     height="1.294962"
     width="1.106002"
     x="-0.053001001"
     y="-0.14748099">
    <feGaussianBlur
       stdDeviation="1.4133574"
       id="feGaussianBlur12" />
  </filter>
  <filter
     id="e">
    <feGaussianBlur
       stdDeviation="1.9"
       id="feGaussianBlur15" />
  </filter>
  <filter
     id="f">
    <feGaussianBlur
       stdDeviation="1.1263538"
       id="feGaussianBlur18" />
  </filter>
  <linearGradient
     id="g"
     gradientUnits="userSpaceOnUse"
     x1="56"
     x2="56"
     xlink:href="#b"
     y1="32"
     y2="88.117546" />
  <linearGradient
     id="h"
     gradientUnits="userSpaceOnUse"
     x1="52"
     x2="52"
     y1="64"
     y2="68">
    <stop
       offset="0"
       id="stop22" />
    <stop
       offset="1"
       stop-opacity="0"
       id="stop24" />
  </linearGradient>
  <radialGradient
     id="i"
     cx="48"
     cy="112"
     gradientTransform="matrix(1.2935346,-0.00553408,0.00454134,1.0614911,3.986491,-10.444275)"
     gradientUnits="userSpaceOnUse"
     r="32">
    <stop
       offset="0"
       stop-color="#ffea00"
       id="stop27" />
    <stop
       offset="1"
       stop-color="#ffa000"
       id="stop29" />
  </radialGradient>
  <radialGradient
     id="j"
     cx="100.88867"
     cy="155.99673"
     gradientTransform="matrix(6.2113128,0,0,5.5040777,-486.03133,-654.01913)"
     gradientUnits="userSpaceOnUse"
     r="40">
    <stop
       offset="0"
       stop-color="#fff"
       id="stop32" />
    <stop
       offset=".11366145"
       stop-color="#bdbebf"
       id="stop34" />
    <stop
       offset=".20296688"
       stop-color="#ececec"
       id="stop36" />
    <stop
       offset=".2363"
       stop-color="#fafafa"
       id="stop38" />
    <stop
       offset=".38818121"
       stop-color="#fff"
       id="stop40" />
    <stop
       offset=".5313"
       stop-color="#fafafa"
       id="stop42" />
    <stop
       offset=".8449"
       stop-color="#ebecec"
       id="stop44" />
    <stop
       offset="1"
       stop-color="#e1e2e3"
       id="stop46" />
  </radialGradient>
  <clipPath
     id="k">
    <path
       d="m 14.530963,56.084772 c -1.219674,0 -2.1875,0.967827 -2.1875,2.1875 l 0,17.0625 C 21.983764,77.731739 36.509296,79 48,79 59.490704,79 70.359699,77.646967 80,75.25 L 80,58.1875 C 80,56.967826 79.032173,56 77.8125,56 Z"
       id="path49"
       inkscape:connector-curvature="0"
       style="filter:url(#d)" />
  </clipPath>
  <filter
     id="l">
    <feGaussianBlur
       stdDeviation="1.0600355"
       id="feGaussianBlur52" />
  </filter>
  <linearGradient
     id="m"
     gradientTransform="matrix(-0.07357842,0,0,0.06732616,12.398774,1.692086)"
     gradientUnits="userSpaceOnUse"
     x1="71.626404"
     x2="46.225941"
     y1="123.73875"
     y2="28.942928">
    <stop
       offset="0"
       stop-color="#003c13"
       id="stop55" />
    <stop
       offset="1"
       stop-color="#43943c"
       id="stop57" />
  </linearGradient>
  <radialGradient
     id="n"
     cx="71.775223"
     cy="16.0865"
     gradientTransform="matrix(0.9650814,0.2619502,-0.9201984,3.3902106,33.309062,-57.693239)"
     gradientUnits="userSpaceOnUse"
     r="3.15625"
     xlink:href="#a" />
  <filter
     id="o"
     height="1.157943"
     width="1.244782"
     x="-0.122391"
     y="-0.078970999">
    <feGaussianBlur
       stdDeviation=".321914"
       id="feGaussianBlur61" />
  </filter>
  <radialGradient
     id="p"
     cx="71.775223"
     cy="16.0865"
     gradientTransform="matrix(0.9650814,0.2619502,-0.9201984,3.3902106,17.309062,-57.693239)"
     gradientUnits="userSpaceOnUse"
     r="3.15625"
     xlink:href="#q" />
  <linearGradient
     id="q">
    <stop
       offset="0"
       stop-color="#f0ff80"
       id="stop65" />
    <stop
       offset="1"
       stop-color="#f0ff80"
       stop-opacity="0"
       id="stop67" />
  </linearGradient>
  <linearGradient
     id="r"
     gradientTransform="matrix(-0.06583332,0,0,0.05762466,12.029999,2.3129671)"
     gradientUnits="userSpaceOnUse"
     x1="43.799026"
     x2="58.606159"
     y1="32.051865"
     y2="96.363052">
    <stop
       offset="0"
       stop-color="#37a42c"
       id="stop70" />
    <stop
       offset="1"
       stop-color="#bff500"
       id="stop72" />
  </linearGradient>
  <radialGradient
     id="s"
     cx="11.578125"
     cy="64.53125"
     gradientTransform="matrix(6.5079869,0,0,1.510917,-63.772161,-32.970115)"
     gradientUnits="userSpaceOnUse"
     r="3.578125"
     xlink:href="#a" />
  <filter
     id="t"
     height="1.598266"
     width="1.9039299"
     x="-0.451965"
     y="-0.299133">
    <feGaussianBlur
       stdDeviation="1.3476562"
       id="feGaussianBlur76" />
  </filter>
  <radialGradient
     id="u"
     cx="72.222832"
     cy="81.225037"
     fx="75.65107"
     fy="93.974243"
     gradientTransform="matrix(-0.09499681,0,0,0.07982571,6.7826602,0.5011505)"
     gradientUnits="userSpaceOnUse"
     r="50"
     xlink:href="#v" />
  <linearGradient
     id="v">
    <stop
       offset="0"
       stop-color="#cbff10"
       id="stop80" />
    <stop
       offset="1"
       stop-color="#004d00"
       id="stop82" />
  </linearGradient>
  <linearGradient
     id="w"
     gradientTransform="matrix(-0.5266666,0,0,0.4609973,94.13333,18.503737)"
     gradientUnits="userSpaceOnUse"
     x1="91.785248"
     x2="91.992706"
     xlink:href="#x"
     y1="112.5"
     y2="44.287056" />
  <linearGradient
     id="x">
    <stop
       offset="0"
       stop-color="#e5ff00"
       id="stop86" />
    <stop
       offset="1"
       stop-color="#e5ff00"
       stop-opacity="0"
       id="stop88" />
  </linearGradient>
  <filter
     id="y">
    <feGaussianBlur
       stdDeviation=".495"
       id="feGaussianBlur91" />
  </filter>
  <linearGradient
     id="z"
     gradientTransform="matrix(-0.06583332,0,0,0.05762466,11.766666,2.3129671)"
     gradientUnits="userSpaceOnUse"
     x1="63.159035"
     x2="63.159035"
     y1="21.171064"
     y2="80.12056">
    <stop
       offset="0"
       stop-color="#edffbf"
       id="stop94" />
    <stop
       offset="1"
       stop-color="#edffbf"
       stop-opacity="0"
       id="stop96" />
  </linearGradient>
  <linearGradient
     id="A"
     gradientTransform="matrix(-0.06583332,0,0,0.05762466,11.766666,2.3129671)"
     gradientUnits="userSpaceOnUse"
     x1="73.739265"
     x2="35.568035"
     xlink:href="#a"
     y1="69.923088"
     y2="48.212151" />
  <linearGradient
     id="B"
     gradientTransform="matrix(-0.06583332,0,0,0.05762466,11.766666,2.3129671)"
     gradientUnits="userSpaceOnUse"
     x1="63.159035"
     x2="63.159035"
     xlink:href="#a"
     y1="21.171064"
     y2="80.12056" />
  <linearGradient
     id="C"
     gradientTransform="matrix(1.0533333,0,0,0.9219945,11.76,4.992427)"
     gradientUnits="userSpaceOnUse"
     x1="73.739265"
     x2="35.568035"
     xlink:href="#a"
     y1="69.923088"
     y2="48.212151" />
  <linearGradient
     id="D"
     gradientTransform="matrix(1.0533333,0,0,0.9219945,11.76,4.992427)"
     gradientUnits="userSpaceOnUse"
     x1="63.159035"
     x2="63.159035"
     xlink:href="#a"
     y1="21.171064"
     y2="80.12056" />
  <radialGradient
     id="E"
     cx="122.17677"
     cy="53.333336"
     gradientTransform="matrix(2.717484,0.35826501,-0.68363455,1.2553261,-280.99554,-102.72592)"
     gradientUnits="userSpaceOnUse"
     r="2"
     xlink:href="#v" />
  <linearGradient
     id="F"
     gradientTransform="matrix(0.25360551,0,0,0.12477963,-16.427372,-0.4885405)"
     gradientUnits="userSpaceOnUse"
     x1="122.12132"
     x2="122.12132"
     xlink:href="#q"
     y1="24"
     y2="60.048988" />
  <linearGradient
     id="G"
     gradientTransform="matrix(0.25360551,0,0,0.12477963,-16.427372,-0.4885405)"
     gradientUnits="userSpaceOnUse"
     x1="132"
     x2="116"
     xlink:href="#a"
     y1="52"
     y2="28" />
  <linearGradient
     id="H"
     gradientUnits="userSpaceOnUse"
     x1="121.85139"
     x2="120"
     xlink:href="#x"
     y1="64"
     y2="44" />
  <filter
     id="I"
     height="1.028862"
     width="1.331226"
     x="-0.165613"
     y="-0.014431">
    <feGaussianBlur
       stdDeviation=".28982301"
       id="feGaussianBlur107" />
  </filter>
  <filter
     id="J">
    <feGaussianBlur
       stdDeviation=".1159292"
       id="feGaussianBlur110" />
  </filter>
  <linearGradient
     id="K"
     gradientUnits="userSpaceOnUse"
     x1="116"
     x2="124"
     xlink:href="#a"
     y1="29.274029"
     y2="74.399025" />
  <radialGradient
     id="L"
     cx="114"
     cy="26"
     gradientTransform="matrix(0.7071068,-0.7071068,2.6709373,2.6709373,-40.054544,33.165802)"
     gradientUnits="userSpaceOnUse"
     r="2.5"
     xlink:href="#a" />
  <filter
     id="M"
     height="1.499115"
     width="1.499115"
     x="-0.249558"
     y="-0.249558">
    <feGaussianBlur
       stdDeviation=".4159292"
       id="feGaussianBlur115" />
  </filter>
  <radialGradient
     id="N"
     cx="114"
     cy="26"
     gradientTransform="matrix(0.7071068,-0.7071068,2.6709373,2.6709373,-36.054544,37.165802)"
     gradientUnits="userSpaceOnUse"
     r="2.5"
     xlink:href="#a" />
  <radialGradient
     id="O"
     cx="114"
     cy="26"
     gradientTransform="matrix(0.7071068,-0.7071068,2.6709373,2.6709373,-36.054544,37.165802)"
     gradientUnits="userSpaceOnUse"
     r="2.5"
     xlink:href="#x" />
  <g
     id="g5141">
    <g
       id="g5114"
       transform="matrix(0.98873237,0,0,0.98573197,1.1364577,2.1890865)">
      <g
         id="g5116">
        <path
           inkscape:connector-curvature="0"
           style="opacity:1;fill:#9d3a9b;fill-opacity:1;fill-rule:nonzero;stroke:#e602b4;stroke-width:0.25323352;stroke-linecap:round;stroke-linejoin:round;stroke-miterlimit:4;stroke-dasharray:none;stroke-dashoffset:0;stroke-opacity:1"
           d="M 2.5714286,3 C 1.7008571,3 1,3.7061667 1,4.5833334 L 1,20.416667 C 1,21.293833 1.7008571,22 2.5714286,22 L 21.428572,22 C 22.299143,22 23,21.293833 23,20.416667 L 23,4.5833334 C 23,3.7061667 22.299143,3 21.428572,3 c 0,0.8771667 -0.700857,1.5833334 -1.571429,1.5833334 l -1.571429,0 C 17.415144,4.5833334 16.714286,3.8771667 16.714286,3 L 2.5714286,3 Z"
           id="path5118" />
        <rect
           style="opacity:1;fill:#f3b7d9;fill-opacity:1;fill-rule:nonzero;stroke:none;stroke-width:0.25;stroke-linecap:round;stroke-linejoin:round;stroke-miterlimit:4;stroke-dasharray:none;stroke-dashoffset:0;stroke-opacity:1"
           id="rect5120"
           width="20"
           height="12.5"
           x="2"
           y="8"
           ry="1.5545359" />
      </g>
    </g>
    <g
       transform="matrix(0.98873237,0,0,0.98573197,-0.86514082,-2.8093198)"
       id="g4181">
      <g
         id="g4166">
        <path
           id="rect4200-3"
           d="M 2.5714286,3 C 1.7008571,3 1,3.7061667 1,4.5833334 L 1,20.416667 C 1,21.293833 1.7008571,22 2.5714286,22 L 21.428572,22 C 22.299143,22 23,21.293833 23,20.416667 L 23,4.5833334 C 23,3.7061667 22.299143,3 21.428572,3 c 0,0.8771667 -0.700857,1.5833334 -1.571429,1.5833334 l -1.571429,0 C 17.415144,4.5833334 16.714286,3.8771667 16.714286,3 L 2.5714286,3 Z"
           style="opacity:1;fill:#9d3a9b;fill-opacity:1;fill-rule:nonzero;stroke:#e602b4;stroke-width:0.25323353;stroke-linecap:round;stroke-linejoin:round;stroke-miterlimit:4;stroke-dasharray:none;stroke-dashoffset:0;stroke-opacity:1"
           inkscape:connector-curvature="0" />
        <rect
           ry="1.5545359"
           y="8"
           x="2"
           height="12.5"
           width="20"
           id="rect4230-6"
           style="opacity:1;fill:#f3b7d9;fill-opacity:1;fill-rule:nonzero;stroke:none;stroke-width:0.25;stroke-linecap:round;stroke-linejoin:round;stroke-miterlimit:4;stroke-dasharray:none;stroke-dashoffset:0;stroke-opacity:1" />
      </g>
    </g>
    <path
       d="m 87.875,12 c -0.865503,0.02693 -1.698899,0.333976 -2.375,0.875 l -60,48 C 24.550144,61.634129 24,62.784063 24,64 c 0,1.215937 0.550144,2.365871 1.5,3.125 l 60,48 c 1.200963,0.96113 2.832437,1.13525 4.21875,0.46875 C 91.105067,114.92725 92.000642,113.53821 92,112 l 0,-23.6875 0,-10.25 -1.5,-1.1875 C 89.299037,75.91387 87.667563,75.739753 86.28125,76.40625 84.894933,77.072748 83.999358,78.461793 84,80 L 84,103.6875 34.40625,64 84,24.3125 84,48 c -6.42e-4,1.538207 0.894936,2.927253 2.28125,3.59375 1.38631,0.666496 3.017787,0.49238 4.21875,-0.46875 L 92,49.9375 92,39.6875 92,16 C 92.000417,14.917152 91.558627,13.878821 90.78125,13.125 90.003873,12.37118 88.957323,11.966273 87.875,12 Z"
       style="opacity:0.90526303;fill:none;stroke:#638000;stroke-width:0.96600002;stroke-linejoin:round;filter:url(#l)"
       transform="matrix(-0.10067735,0,0,0.09741026,19.086468,2.9798131)"
       id="path153"
       inkscape:connector-curvature="0" />
    <path
       inkscape:connector-curvature="0"
       style="fill:#e602b4;fill-rule:evenodd"
       id="path157"
       d="M 5.3425729,3.0728567 C 5.0389021,3.064182 4.7288514,3.1596265 4.4763812,3.3840339 4.2270109,3.6056857 4.0759944,3.9189384 4.0761408,4.2637081 l 0,2.4415442 0,0.5505443 0,0.5086551 0,2.9023263 0,0.598417 0,0.454798 0,2.447529 c -2.294e-4,0.490032 0.3297172,0.903916 0.7228221,1.077151 0.4033085,0.177733 0.8757174,0.137438 1.242537,-0.131651 l 2.6224704,-3.069883 0,2.124383 c -2.294e-4,0.490031 0.3297176,0.903916 0.722822,1.077152 0.4033054,0.17773 0.8757207,0.137434 1.2425367,-0.131651 l 6.756296,-4.948916 c 0.298471,-0.218648 0.483873,-0.5754825 0.483873,-0.9514843 0,-0.3760017 -0.185405,-0.7328371 -0.483873,-0.9514843 L 10.629329,3.3122238 C 10.43037,3.1662871 10.179826,3.079972 9.9304024,3.0728567 9.6267309,3.064182 9.3166855,3.1596207 9.0642105,3.3840339 8.8148452,3.6056839 8.6638239,3.9189338 8.6639703,4.2637081 l 0,2.3098923 L 6.0414999,3.3122238 C 5.8425424,3.1662895 5.5919971,3.079972 5.3425729,3.0728567 Z m 15.4241871,0 c -0.761717,0 -1.397855,0.6372484 -1.397855,1.4002975 l 0,9.4789368 c 0,0.763049 0.636138,1.400298 1.397855,1.400298 l 1.816016,0 c 0.761717,0 1.397853,-0.637249 1.397853,-1.400298 l 0,-9.4789368 c 0,-0.7630491 -0.636136,-1.4002975 -1.397853,-1.4002975 z m -12.437319,4.9010412 0.3345293,0.2453513 0,1.9867468 -0.3345293,0.245351 z m 4.58783,0 1.690567,1.2387248 -1.690567,1.2387243 0,-0.43086 c 0.214296,-0.2177466 0.364398,-0.4960115 0.364397,-0.8078643 2e-6,-0.3118545 -0.150102,-0.59012 -0.364397,-0.8078641 z" />
    <path
       inkscape:connector-curvature="0"
       style="fill:#f3b7d9;fill-rule:evenodd"
       id="path163"
       d="m 5.6400639,4.9758251 0,8.4735949 4.5878291,-3.219487 0,3.219487 6.039447,-4.2367973 -6.039447,-4.2367976 0,3.2194874 z" />
    <path
       d="m 20.899102,4.6248771 1.551332,0 0,9.1754909 -1.551332,0 z"
       id="path189"
       style="fill:#f3b7d9"
       inkscape:connector-curvature="0" />
  </g>
</svg>
