<?xml version="1.0" encoding="UTF-8"?>
<svg xmlns="http://www.w3.org/2000/svg" xmlns:xlink="http://www.w3.org/1999/xlink" width="24px" height="24px" viewBox="0 0 24 24" version="1.1">
<g id="surface1">
<path style=" stroke:none;fill-rule:evenodd;fill:rgb(90.196079%,0.784314%,70.588237%);fill-opacity:1;" d="M 19.640625 3 C 20.398438 3 21.035156 3.535156 21.035156 4.175781 L 21.035156 19.875 C 21.035156 20.515625 20.398438 21.050781 19.640625 21.050781 L 17.824219 21.050781 C 17.0625 21.050781 16.425781 20.515625 16.425781 19.875 L 16.445312 4.175781 C 16.445312 3.535156 17.082031 3 17.84375 3 Z M 19.640625 3 "/>
<path style="fill-rule:evenodd;fill:rgb(90.196079%,0.784314%,70.588237%);fill-opacity:1;stroke-width:0.25;stroke-linecap:butt;stroke-linejoin:miter;stroke:rgb(90.196079%,0.784314%,70.588237%);stroke-opacity:1;stroke-miterlimit:4;" d="M 3.335938 2.283854 L 9.825521 7.846354 C 9.932292 7.927083 9.994792 8.044271 9.994792 8.169271 C 9.994792 8.291667 9.932292 8.411458 9.825521 8.489583 L 3.263021 13.963542 C 2.8125 14.260417 2.164062 14.302083 2.164062 13.645833 L 2.164062 2.716146 C 2.164062 2.276042 2.927083 1.976562 3.335938 2.283854 Z M 3.335938 2.283854 " transform="matrix(1.5,0,0,1.5,0,0)"/>
<path style=" stroke:none;fill-rule:evenodd;fill:rgb(95.294118%,71.764708%,85.09804%);fill-opacity:1;" d="M 5.457031 5.289062 L 13.304688 12.011719 C 13.503906 12.214844 13.472656 12.394531 13.320312 12.550781 L 5.679688 18.972656 C 5.105469 19.425781 4.535156 19.449219 4.535156 18.972656 L 4.535156 5.601562 C 4.535156 5.195312 4.984375 5.007812 5.457031 5.289062 Z M 5.457031 5.289062 "/>
</g>
</svg>
