<?xml version="1.0" encoding="UTF-8"?>
<svg xmlns="http://www.w3.org/2000/svg" xmlns:xlink="http://www.w3.org/1999/xlink" width="24px" height="24px" viewBox="0 0 24 24" version="1.1">
<defs>
<clipPath id="clip1">
  <path d="M 13 12 L 20 12 L 20 21 L 13 21 Z M 13 12 "/>
</clipPath>
<clipPath id="clip2">
  <path d="M 3.078125 1.5 L 20.921875 1.5 C 21.792969 1.5 22.5 2.292969 22.5 3.269531 L 22.5 20.730469 C 22.5 21.707031 21.792969 22.5 20.921875 22.5 L 3.078125 22.5 C 2.207031 22.5 1.5 21.707031 1.5 20.730469 L 1.5 3.269531 C 1.5 2.292969 2.207031 1.5 3.078125 1.5 Z M 3.078125 1.5 "/>
</clipPath>
<clipPath id="clip3">
  <path d="M 12 12 L 21 12 L 21 22 L 12 22 Z M 12 12 "/>
</clipPath>
<clipPath id="clip4">
  <path d="M 3.078125 1.5 L 20.921875 1.5 C 21.792969 1.5 22.5 2.292969 22.5 3.269531 L 22.5 20.730469 C 22.5 21.707031 21.792969 22.5 20.921875 22.5 L 3.078125 22.5 C 2.207031 22.5 1.5 21.707031 1.5 20.730469 L 1.5 3.269531 C 1.5 2.292969 2.207031 1.5 3.078125 1.5 Z M 3.078125 1.5 "/>
</clipPath>
<clipPath id="clip5">
  <path d="M 6 19 L 15 19 L 15 23 L 6 23 Z M 6 19 "/>
</clipPath>
<clipPath id="clip6">
  <path d="M 3.078125 1.5 L 20.921875 1.5 C 21.792969 1.5 22.5 2.292969 22.5 3.269531 L 22.5 20.730469 C 22.5 21.707031 21.792969 22.5 20.921875 22.5 L 3.078125 22.5 C 2.207031 22.5 1.5 21.707031 1.5 20.730469 L 1.5 3.269531 C 1.5 2.292969 2.207031 1.5 3.078125 1.5 Z M 3.078125 1.5 "/>
</clipPath>
<clipPath id="clip7">
  <path d="M 1 5 L 23 5 L 23 23 L 1 23 Z M 1 5 "/>
</clipPath>
<clipPath id="clip8">
  <path d="M 3.078125 1.5 L 20.921875 1.5 C 21.792969 1.5 22.5 2.292969 22.5 3.269531 L 22.5 20.730469 C 22.5 21.707031 21.792969 22.5 20.921875 22.5 L 3.078125 22.5 C 2.207031 22.5 1.5 21.707031 1.5 20.730469 L 1.5 3.269531 C 1.5 2.292969 2.207031 1.5 3.078125 1.5 Z M 3.078125 1.5 "/>
</clipPath>
<clipPath id="clip9">
  <path d="M 18 5 L 23 5 L 23 15 L 18 15 Z M 18 5 "/>
</clipPath>
<clipPath id="clip10">
  <path d="M 3.078125 1.5 L 20.921875 1.5 C 21.792969 1.5 22.5 2.292969 22.5 3.269531 L 22.5 20.730469 C 22.5 21.707031 21.792969 22.5 20.921875 22.5 L 3.078125 22.5 C 2.207031 22.5 1.5 21.707031 1.5 20.730469 L 1.5 3.269531 C 1.5 2.292969 2.207031 1.5 3.078125 1.5 Z M 3.078125 1.5 "/>
</clipPath>
<clipPath id="clip11">
  <path d="M 6 1 L 23 1 L 23 23 L 6 23 Z M 6 1 "/>
</clipPath>
<clipPath id="clip12">
  <path d="M 3.078125 1.5 L 20.921875 1.5 C 21.792969 1.5 22.5 2.292969 22.5 3.269531 L 22.5 20.730469 C 22.5 21.707031 21.792969 22.5 20.921875 22.5 L 3.078125 22.5 C 2.207031 22.5 1.5 21.707031 1.5 20.730469 L 1.5 3.269531 C 1.5 2.292969 2.207031 1.5 3.078125 1.5 Z M 3.078125 1.5 "/>
</clipPath>
</defs>
<g id="surface1">
<path style="fill-rule:evenodd;fill:rgb(94.117647%,89.019608%,92.54902%);fill-opacity:1;stroke-width:1;stroke-linecap:round;stroke-linejoin:round;stroke:rgb(90.196079%,0.784314%,70.588237%);stroke-opacity:1;stroke-miterlimit:4;" d="M 2.624591 1.938568 L 12.260007 1.938568 C 12.812091 1.938568 13.260007 2.386485 13.260007 2.938568 L 13.260007 13.21461 C 13.260007 13.766693 12.812091 14.21461 12.260007 14.21461 L 2.624591 14.21461 C 2.072507 14.21461 1.624591 13.766693 1.624591 13.21461 L 1.624591 2.938568 C 1.624591 2.386485 2.072507 1.938568 2.624591 1.938568 Z M 2.624591 1.938568 " transform="matrix(1.5,0,0,1.5,0.836552,-0.114883)"/>
<path style="fill-rule:nonzero;fill:rgb(61.56863%,22.745098%,60.784316%);fill-opacity:1;stroke-width:0.25;stroke-linecap:butt;stroke-linejoin:miter;stroke:rgb(61.56863%,22.745098%,60.784316%);stroke-opacity:1;stroke-miterlimit:4;" d="M 3.890216 4.566172 C 3.926674 4.175547 4.202716 3.891693 4.54907 3.891693 C 4.780841 3.891693 4.991778 4.016693 5.108966 4.21461 C 5.228757 4.014089 5.429278 3.891693 5.658445 3.891693 C 6.004799 3.891693 6.280841 4.175547 6.314695 4.566172 C 6.319903 4.584401 6.33032 4.675547 6.293861 4.823985 C 6.244382 5.037526 6.127195 5.232839 5.957924 5.386485 L 5.11157 6.157318 L 4.246986 5.386485 C 4.077716 5.232839 3.960528 5.037526 3.911049 4.823985 C 3.874591 4.675547 3.887611 4.584401 3.890216 4.568776 Z M 4.002195 4.803151 C 4.04907 4.998464 4.155841 5.175547 4.309486 5.316172 L 5.108966 6.032318 L 5.895424 5.318776 C 6.051674 5.175547 6.158445 4.998464 6.202716 4.803151 C 6.23657 4.662526 6.223549 4.581797 6.223549 4.581797 L 6.223549 4.576589 C 6.192299 4.235443 5.95532 3.985443 5.658445 3.985443 C 5.437091 3.985443 5.244382 4.12086 5.153236 4.337005 L 5.108966 4.441172 L 5.067299 4.337005 C 4.976153 4.123464 4.773028 3.985443 4.54907 3.985443 C 4.252195 3.985443 4.012611 4.235443 3.981361 4.581797 C 3.981361 4.581797 3.968341 4.662526 4.002195 4.803151 Z M 4.002195 4.803151 " transform="matrix(1.5,0,0,1.5,0.836552,-0.114883)"/>
<path style="fill:none;stroke-width:1;stroke-linecap:round;stroke-linejoin:miter;stroke:rgb(90.196079%,0.784314%,70.588237%);stroke-opacity:1;stroke-miterlimit:4;" d="M 3.931882 7.225026 L 11.020424 7.225026 " transform="matrix(1.5,0,0,1.5,0.836552,-0.114883)"/>
<path style="fill:none;stroke-width:1;stroke-linecap:round;stroke-linejoin:miter;stroke:rgb(90.196079%,0.784314%,70.588237%);stroke-opacity:1;stroke-miterlimit:4;" d="M 3.911049 9.001068 L 10.999591 9.001068 " transform="matrix(1.5,0,0,1.5,0.836552,-0.114883)"/>
<path style="fill:none;stroke-width:1;stroke-linecap:round;stroke-linejoin:miter;stroke:rgb(90.196079%,0.784314%,70.588237%);stroke-opacity:1;stroke-miterlimit:4;" d="M 3.963132 10.748464 L 11.051674 10.748464 " transform="matrix(1.5,0,0,1.5,0.836552,-0.114883)"/>
<g clip-path="url(#clip1)" clip-rule="nonzero">
<g clip-path="url(#clip2)" clip-rule="nonzero">
<path style=" stroke:none;fill-rule:nonzero;fill:rgb(94.117647%,89.019608%,92.54902%);fill-opacity:1;" d="M 19.5 13.5 L 19.175781 13.136719 C 18.722656 12.636719 17.78125 12.878906 17.058594 13.679688 L 13.808594 17.304688 C 13.085938 18.105469 12.867188 19.15625 13.320312 19.660156 L 13.644531 20.023438 C 14.09375 20.523438 15.039062 20.28125 15.757812 19.476562 L 19.011719 15.855469 C 19.734375 15.050781 19.949219 14 19.5 13.5 Z M 19.5 13.5 "/>
</g>
</g>
<g clip-path="url(#clip3)" clip-rule="nonzero">
<g clip-path="url(#clip4)" clip-rule="nonzero">
<path style="fill:none;stroke-width:1.103037;stroke-linecap:round;stroke-linejoin:round;stroke:rgb(61.56863%,22.745098%,60.784316%);stroke-opacity:1;stroke-miterlimit:4;" d="M 14.077044 10 L 13.836293 9.757812 C 13.499823 9.424479 12.800776 9.585938 12.264163 10.119792 L 9.850856 12.536458 C 9.314243 13.070312 9.151809 13.770833 9.48828 14.106771 L 9.72903 14.348958 C 10.0626 14.682292 10.764548 14.520833 11.29826 13.984375 L 13.714468 11.570312 C 14.251081 11.033854 14.410614 10.333333 14.077044 10 Z M 14.077044 10 " transform="matrix(1.3467,0,0,1.5,0.542449,-1.5)"/>
</g>
</g>
<g clip-path="url(#clip5)" clip-rule="nonzero">
<g clip-path="url(#clip6)" clip-rule="nonzero">
<path style=" stroke:none;fill-rule:nonzero;fill:rgb(94.117647%,89.019608%,92.54902%);fill-opacity:1;" d="M 14.007812 19.5 C 13.917969 19.398438 13.769531 19.398438 13.675781 19.5 L 6.710938 27.261719 C 6.617188 27.363281 6.617188 27.527344 6.710938 27.628906 C 6.804688 27.730469 6.949219 27.730469 7.042969 27.628906 L 14.007812 19.871094 C 14.101562 19.765625 14.101562 19.601562 14.007812 19.5 Z M 14.007812 19.5 "/>
</g>
</g>
<g clip-path="url(#clip7)" clip-rule="nonzero">
<g clip-path="url(#clip8)" clip-rule="nonzero">
<path style="fill:none;stroke-width:1.583075;stroke-linecap:round;stroke-linejoin:miter;stroke:rgb(90.196079%,0.784314%,70.588237%);stroke-opacity:1;stroke-miterlimit:4;" d="M 9.998787 14 C 9.932073 13.932292 9.82185 13.932292 9.752235 14 L 4.580448 19.174479 C 4.510834 19.242188 4.510834 19.351562 4.580448 19.419271 C 4.650063 19.486979 4.757385 19.486979 4.827 19.419271 L 9.998787 14.247396 C 10.068402 14.177083 10.068402 14.067708 9.998787 14 Z M 9.998787 14 " transform="matrix(1.3467,0,0,1.5,0.542449,-1.5)"/>
</g>
</g>
<g clip-path="url(#clip9)" clip-rule="nonzero">
<g clip-path="url(#clip10)" clip-rule="nonzero">
<path style=" stroke:none;fill-rule:nonzero;fill:rgb(94.117647%,89.019608%,92.54902%);fill-opacity:1;" d="M 26.128906 6 C 26.039062 5.898438 25.890625 5.898438 25.796875 6 L 18.832031 13.761719 C 18.738281 13.863281 18.738281 14.027344 18.832031 14.128906 C 18.921875 14.230469 19.070312 14.230469 19.164062 14.128906 L 26.128906 6.371094 C 26.222656 6.265625 26.222656 6.101562 26.128906 6 Z M 26.128906 6 "/>
</g>
</g>
<g clip-path="url(#clip11)" clip-rule="nonzero">
<g clip-path="url(#clip12)" clip-rule="nonzero">
<path style="fill:none;stroke-width:1.583075;stroke-linecap:round;stroke-linejoin:miter;stroke:rgb(90.196079%,0.784314%,70.588237%);stroke-opacity:1;stroke-miterlimit:4;" d="M 18.999378 5 C 18.932664 4.932292 18.822441 4.932292 18.752827 5 L 13.58104 10.174479 C 13.511425 10.242188 13.511425 10.351562 13.58104 10.419271 C 13.647754 10.486979 13.757977 10.486979 13.827592 10.419271 L 18.999378 5.247396 C 19.068993 5.177083 19.068993 5.067708 18.999378 5 Z M 18.999378 5 " transform="matrix(1.3467,0,0,1.5,0.542449,-1.5)"/>
</g>
</g>
</g>
</svg>
