<?xml version="1.0" encoding="UTF-8" standalone="no"?>
<svg
   xmlns:dc="http://purl.org/dc/elements/1.1/"
   xmlns:cc="http://creativecommons.org/ns#"
   xmlns:rdf="http://www.w3.org/1999/02/22-rdf-syntax-ns#"
   xmlns:svg="http://www.w3.org/2000/svg"
   xmlns="http://www.w3.org/2000/svg"
   xmlns:xlink="http://www.w3.org/1999/xlink"
   xmlns:sodipodi="http://sodipodi.sourceforge.net/DTD/sodipodi-0.dtd"
   xmlns:inkscape="http://www.inkscape.org/namespaces/inkscape"
   height="24"
   viewBox="0 0 6.3499999 6.3500002"
   width="24"
   version="1.1"
   id="svg181"
   sodipodi:docname="lc_linewidth.svg"
   inkscape:export-filename="/home/annisaauliarasyidah/Desktop/4_242 (aulia)/lc done/lc_linewidth.png"
   inkscape:export-xdpi="96"
   inkscape:export-ydpi="96"
   inkscape:version="0.92.4 (unknown)">
  <metadata
     id="metadata187">
    <rdf:RDF>
      <cc:Work
         rdf:about="">
        <dc:format>image/svg+xml</dc:format>
        <dc:type
           rdf:resource="http://purl.org/dc/dcmitype/StillImage" />
        <dc:title></dc:title>
      </cc:Work>
    </rdf:RDF>
  </metadata>
  <defs
     id="defs185">
    <linearGradient
       inkscape:collect="always"
       xlink:href="#u"
       id="linearGradient1002"
       gradientUnits="userSpaceOnUse"
       x1="115.87172"
       y1="15.978862"
       x2="115.87172"
       y2="21.070753" />
    <linearGradient
       inkscape:collect="always"
       xlink:href="#w"
       id="linearGradient1004"
       gradientUnits="userSpaceOnUse"
       x1="116.65481"
       y1="19.834764"
       x2="116.65481"
       y2="13.314766" />
    <radialGradient
       inkscape:collect="always"
       xlink:href="#f"
       id="radialGradient1008"
       gradientUnits="userSpaceOnUse"
       gradientTransform="matrix(1,0,0,2,0,-13.09375)"
       cx="115.73438"
       cy="13.09375"
       r="0.234375" />
  </defs>
  <sodipodi:namedview
     pagecolor="#ffffff"
     bordercolor="#666666"
     borderopacity="1"
     objecttolerance="10"
     gridtolerance="10"
     guidetolerance="10"
     inkscape:pageopacity="0"
     inkscape:pageshadow="2"
     inkscape:window-width="1366"
     inkscape:window-height="707"
     id="namedview183"
     showgrid="true"
     inkscape:lockguides="false"
     inkscape:zoom="11.040948"
     inkscape:cx="11.019775"
     inkscape:cy="5.1560935"
     inkscape:window-x="0"
     inkscape:window-y="0"
     inkscape:window-maximized="1"
     inkscape:current-layer="svg181">
    <inkscape:grid
       type="xygrid"
       id="grid1096"
       spacingx="0.13229167"
       spacingy="0.13229167"
       empspacing="2" />
  </sodipodi:namedview>
  <clipPath
     id="a">
    <path
       d="M 0,0 H 33.866669 V 33.866669 H 0 Z"
       id="path2"
       inkscape:connector-curvature="0" />
  </clipPath>
  <linearGradient
     id="b"
     gradientUnits="userSpaceOnUse"
     x1="115.87172"
     x2="115.87172"
     xlink:href="#u"
     y1="15.978862"
     y2="21.070753" />
  <linearGradient
     id="c"
     gradientUnits="userSpaceOnUse"
     x1="116.65481"
     x2="116.65481"
     xlink:href="#w"
     y1="19.834764"
     y2="13.314766" />
  <linearGradient
     id="d"
     gradientTransform="matrix(-0.6343044,9.7192e-4,9.7192e-4,0.6343044,502.08488,7.597355)"
     gradientUnits="userSpaceOnUse"
     x1="603.9809"
     x2="603.88495"
     xlink:href="#w"
     y1="8.6327381"
     y2="-53.995659" />
  <radialGradient
     id="e"
     cx="115.73438"
     cy="13.09375"
     gradientTransform="matrix(1,0,0,2,0,-13.09375)"
     gradientUnits="userSpaceOnUse"
     r="0.234375"
     xlink:href="#f" />
  <linearGradient
     id="f">
    <stop
       offset="0"
       id="stop9" />
    <stop
       offset="1"
       stop-opacity="0"
       id="stop11" />
  </linearGradient>
  <linearGradient
     id="g"
     gradientTransform="matrix(-0.39215953,6.0089e-4,6.0089e-4,0.39215953,256.98539,274.46338)"
     gradientUnits="userSpaceOnUse"
     x1="599.76892"
     x2="617.85608"
     y1="10.25"
     y2="10.25">
    <stop
       offset="0"
       stop-color="#dccc1c"
       id="stop14" />
    <stop
       offset=".03125"
       stop-color="#815804"
       id="stop16" />
    <stop
       offset=".25"
       stop-color="#f6eaa1"
       id="stop18" />
    <stop
       offset=".375"
       stop-color="#ecdf4c"
       id="stop20" />
    <stop
       offset=".5"
       stop-color="#d2ae11"
       id="stop22" />
    <stop
       offset=".625"
       stop-color="#ecc954"
       id="stop24" />
    <stop
       offset=".75"
       stop-color="#eeef8c"
       id="stop26" />
    <stop
       offset=".875"
       stop-color="#ecd333"
       id="stop28" />
    <stop
       offset="1"
       stop-color="#8d7012"
       id="stop30" />
  </linearGradient>
  <clipPath
     id="h">
    <path
       d="m 609.5,-9.7310634 c -0.92108,0 -1.66967,1.7901359 -0.57279,3.0908208 -1.6397,7.19232925 -4.64407,12.6744227 -7.78327,18.0141776 1.53423,5.966829 1.71386,12.435724 2.02162,18.857128 h 12.66888 c 0.30775,-6.421404 0.48739,-12.890299 2.02162,-18.857128 -3.13921,-5.3397549 -6.14357,-10.82184835 -7.78327,-18.0141776 1.09688,-1.3006849 0.34829,-3.0908208 -0.57279,-3.0908208 z"
       id="path33"
       inkscape:connector-curvature="0" />
  </clipPath>
  <filter
     id="i"
     style="color-interpolation-filters:sRGB">
    <feGaussianBlur
       stdDeviation=".21238951"
       id="feGaussianBlur36" />
  </filter>
  <radialGradient
     id="j"
     cx="607.97925"
     cy="14.200003"
     fx="607.80249"
     fy="12.992581"
     gradientTransform="matrix(1.3158649,-6.6e-7,3.95e-6,7.8761359,-192.03935,-97.640746)"
     gradientUnits="userSpaceOnUse"
     r="3.637785">
    <stop
       offset="0"
       stop-color="#ebe8c9"
       id="stop39" />
    <stop
       offset="1"
       stop-color="#ebe8c9"
       stop-opacity="0"
       id="stop41" />
  </radialGradient>
  <filter
     id="k"
     height="1.041431"
     width="1.223493"
     x="-0.111746"
     y="-0.020715"
     style="color-interpolation-filters:sRGB">
    <feGaussianBlur
       stdDeviation=".29219641"
       id="feGaussianBlur44" />
  </filter>
  <linearGradient
     id="l"
     gradientTransform="matrix(-0.28775091,4.4091e-4,4.4091e-4,0.28775091,149.85541,263.94008)"
     gradientUnits="userSpaceOnUse"
     x1="469.10562"
     x2="460.06363"
     xlink:href="#m"
     y1="108.02052"
     y2="108.02052" />
  <linearGradient
     id="m">
    <stop
       offset="0"
       stop-color="#848484"
       id="stop48" />
    <stop
       offset="1"
       stop-color="#848484"
       stop-opacity="0"
       id="stop50" />
  </linearGradient>
  <linearGradient
     id="n"
     gradientTransform="matrix(-0.07581202,1.1616e-4,0.00404329,0.28774541,54.517569,264.08616)"
     gradientUnits="userSpaceOnUse"
     x1="446.25714"
     x2="470.73825"
     y1="108.02052"
     y2="108.02052">
    <stop
       offset="0"
       stop-color="#8a8a8a"
       id="stop53" />
    <stop
       offset="1"
       stop-color="#8a8a8a"
       stop-opacity="0"
       id="stop55" />
  </linearGradient>
  <linearGradient
     id="o"
     gradientTransform="matrix(-0.07581202,1.1616e-4,0.00149602,0.28774931,53.38275,264.0879)"
     gradientUnits="userSpaceOnUse"
     x1="446.25714"
     x2="470.73825"
     xlink:href="#m"
     y1="108.02052"
     y2="108.02052" />
  <linearGradient
     id="p"
     gradientTransform="matrix(-0.09353291,1.7421801e-4,-2.6229217e-6,-0.00208124,50.79758,6.2252373)"
     gradientUnits="userSpaceOnUse"
     x1="496.73438"
     x2="521.59375"
     y1="210.5"
     y2="210.5">
    <stop
       offset="0"
       stop-color="#e7d511"
       id="stop59" />
    <stop
       offset=".03125"
       stop-color="#865a00"
       id="stop61" />
    <stop
       offset=".25"
       stop-color="#fff197"
       id="stop63" />
    <stop
       offset=".375"
       stop-color="#ffee39"
       id="stop65" />
    <stop
       offset=".5"
       stop-color="#e3b900"
       id="stop67" />
    <stop
       offset=".625"
       stop-color="#ffd341"
       id="stop69" />
    <stop
       offset=".75"
       stop-color="#feff7c"
       id="stop71" />
    <stop
       offset=".875"
       stop-color="#ffe120"
       id="stop73" />
    <stop
       offset="1"
       stop-color="#9f7a00"
       id="stop75" />
  </linearGradient>
  <linearGradient
     id="q"
     gradientTransform="matrix(-0.05923859,1.1034009e-4,-6.0228347e-5,-0.04778259,29.26315,-2.8907649)"
     gradientUnits="userSpaceOnUse"
     x1="458.41772"
     x2="458.41772"
     xlink:href="#r"
     y1="-140.25208"
     y2="-138.62123" />
  <linearGradient
     id="r">
    <stop
       offset="0"
       stop-color="#8e4900"
       id="stop79" />
    <stop
       offset=".5"
       stop-color="#c68c2f"
       stop-opacity="0"
       id="stop81" />
    <stop
       offset="1"
       stop-color="#ffd05e"
       stop-opacity="0"
       id="stop83" />
  </linearGradient>
  <linearGradient
     id="s"
     gradientTransform="matrix(-0.05923859,1.1034009e-4,-6.0228347e-5,-0.04778259,29.26315,-2.8907649)"
     gradientUnits="userSpaceOnUse"
     x1="458.41772"
     x2="458.41772"
     xlink:href="#r"
     y1="-136.2464"
     y2="-137.18941" />
  <linearGradient
     id="t"
     gradientTransform="matrix(-0.05923859,1.642272e-4,9.0768449e-5,0.10717979,29.258864,-11.246589)"
     gradientUnits="userSpaceOnUse"
     x1="471.79645"
     x2="471.80264"
     xlink:href="#f"
     y1="138.90254"
     y2="142.94009" />
  <linearGradient
     id="u">
    <stop
       offset="0"
       stop-color="#723700"
       id="stop88" />
    <stop
       offset="1"
       stop-color="#723700"
       stop-opacity="0"
       id="stop90" />
  </linearGradient>
  <filter
     id="v"
     style="color-interpolation-filters:sRGB">
    <feGaussianBlur
       stdDeviation=".019545487"
       id="feGaussianBlur93" />
  </filter>
  <linearGradient
     id="w">
    <stop
       offset="0"
       stop-color="#fffdc6"
       id="stop96" />
    <stop
       offset="1"
       stop-color="#fffdc6"
       stop-opacity="0"
       id="stop98" />
  </linearGradient>
  <linearGradient
     id="x"
     gradientTransform="matrix(0.35055064,0,0,0.23545418,-37.404888,-0.40658795)"
     gradientUnits="userSpaceOnUse"
     x1="115.95076"
     x2="115.95076"
     xlink:href="#w"
     y1="2.1790061"
     y2="3.4402771" />
  <filter
     id="y"
     style="color-interpolation-filters:sRGB">
    <feGaussianBlur
       stdDeviation=".011591528"
       id="feGaussianBlur102" />
  </filter>
  <linearGradient
     id="z"
     gradientTransform="matrix(-0.09149733,1.4019761e-4,1.4019761e-4,0.09149733,57.880045,0.91287665)"
     gradientUnits="userSpaceOnUse"
     x1="608.68866"
     x2="608.74402"
     xlink:href="#u"
     y1="-10.962992"
     y2="25.148411" />
  <filter
     id="A"
     style="color-interpolation-filters:sRGB">
    <feGaussianBlur
       stdDeviation=".0031015633"
       id="feGaussianBlur106" />
  </filter>
  <linearGradient
     id="B"
     gradientTransform="matrix(0.22201947,0,0,0.14912371,-23.581742,-0.21318625)"
     gradientUnits="userSpaceOnUse"
     x1="115.95076"
     x2="115.95076"
     xlink:href="#w"
     y1="2.1790061"
     y2="3.4402771" />
  <linearGradient
     id="C"
     gradientTransform="matrix(-0.09149733,1.401975e-4,1.401975e-4,0.09149733,57.882703,0.91287625)"
     gradientUnits="userSpaceOnUse"
     x1="608.68866"
     x2="608.74402"
     xlink:href="#u"
     y1="-10.962992"
     y2="25.148411" />
  <path
     d="m 4.3113595,6.0246132 -2.2915542,0.00427 C 1.9874498,5.9298823 1.9855379,5.8293751 2.0193632,5.7271069 l 2.2915539,-0.00427 c 0.032349,0.094418 0.03426,0.1946673 4.419e-4,0.3017797 z"
     id="path133"
     style="fill:url(#p);stroke-width:0.36838788"
     inkscape:connector-curvature="0" />
  <g
     transform="matrix(-0.22775628,0,0,-0.22775628,29.539313,7.3597797)"
     id="g145"
     style="fill-rule:evenodd">
    <path
       d="m 111.1875,13.975694 c 1.05235,0.728353 2.09162,1.922989 2.90625,3.210649 0.81463,1.287659 1.39177,2.686362 1.5,3.782407 0.0135,0.10674 0.11561,0.09025 0.125,0 0.10824,-1.096045 0.68537,-2.494748 1.5,-3.782407 0.81463,-1.28766 1.90077,-2.482296 2.95312,-3.210649 l -0.043,-0.08116 c -1.06789,0.739111 -2.14973,1.903073 -2.97266,3.203849 -0.78178,1.235736 -1.34712,2.538407 -1.5,3.650463 -0.15288,-1.112056 -0.71822,-2.414728 -1.5,-3.650463 -0.81525,-1.288645 -1.85011,-2.492854 -2.90763,-3.233827 l -0.0611,0.111141 z"
       id="path141"
       style="fill:url(#linearGradient1002);filter:url(#v)"
       inkscape:connector-curvature="0" />
    <path
       d="m 111.21731,13.940875 c 1.04215,0.671655 2.07623,1.835853 2.853,3.026148 0.7326,1.122612 1.36052,2.5799 1.55078,3.542364 l 0.0391,0.234375 0.0313,-0.226562 c 0.19027,-0.978089 0.80255,-2.427565 1.55468,-3.55799 0.7958,-1.193978 1.84609,-2.377078 2.89844,-3.045217 l -0.0508,-0.113224 c -1.06789,0.678007 -2.11457,1.892325 -2.9375,3.085563 -0.78178,1.133576 -1.34712,2.428552 -1.5,3.448672 -0.15288,-1.02012 -0.71822,-2.315097 -1.5,-3.448672 -0.80855,-1.172389 -1.8331,-2.365125 -2.88154,-3.049533 l -0.0574,0.104076 z"
       id="path143"
       style="fill:url(#linearGradient1004);filter:url(#v)"
       inkscape:connector-curvature="0" />
  </g>
  <ellipse
     cx="3.1694336"
     cy="0.24120674"
     rx="0.12393821"
     ry="0.1346944"
     id="ellipse147"
     style="opacity:0.93069296;fill:url(#x);stroke-width:0.36838788" />
  <ellipse
     cx="115.73438"
     cy="13.09375"
     rx="0.234375"
     ry="0.46875"
     transform="matrix(0.39857352,0,0,0.32265475,-42.957113,-1.6317946)"
     id="ellipse149"
     style="filter:url(#y)" />
  <ellipse
     cx="115.73438"
     cy="13.09375"
     rx="0.234375"
     ry="0.46875"
     transform="matrix(0.39857352,0,0,0.32265475,-42.957113,-1.6317946)"
     id="ellipse155"
     style="fill:url(#radialGradient1008);filter:url(#y)" />
  <path
     d="M 3.1703489,0.10047973 C 3.303416,0.10028233 3.4119577,0.35872366 3.2537829,0.54687358 3.4922577,1.585561 4.0319411,2.3768774 4.4866338,3.1475987 4.2663091,4.0099467 4.137352,4.7356511 4.0943108,5.6633999 l -1.8302314,0.00294 C 2.2181978,4.73873 2.0863759,4.0131065 1.8634117,3.1514354 2.3157379,2.3793246 2.8529934,1.586678 3.0882863,0.54726238 2.9295331,0.35959996 3.0372826,0.10081918 3.1703489,0.10061398 Z"
     id="path159"
     inkscape:connector-curvature="0"
     style="fill:#f3b7d9;fill-opacity:1;stroke:#9d3a9b;stroke-width:0.19736481;stroke-opacity:1" />
  <path
     d="M 4.3155557,6.23349 2.0240015,6.237765 C 1.9916465,6.138765 1.989734,5.8293799 2.0235674,5.7271132 l 2.2915538,-0.00427 c 0.032349,0.094419 0.034261,0.4035459 4.341e-4,0.5106578 z"
     id="path161"
     inkscape:connector-curvature="0"
     style="fill:#e602b4;fill-opacity:1;stroke:#9d3a9b;stroke-width:0.22775622;stroke-opacity:1" />
  <path
     d="m 111.1875,14.892805 c 1.05235,0.728353 2.09162,1.922989 2.90625,3.210649 0.81463,1.287659 1.39177,2.686362 1.5,3.782407 0.0135,0.10674 0.11561,0.09025 0.125,0 0.10824,-1.096045 0.68537,-2.494748 1.5,-3.782407 0.81463,-1.28766 1.90077,-2.482296 2.95312,-3.210649 l -0.043,-0.998271 c -1.06789,0.739111 -2.14973,1.903073 -2.97266,3.203849 -0.78178,1.235736 -1.34712,2.538407 -1.5,3.650463 -0.15288,-1.112056 -0.71822,-2.414728 -1.5,-3.650463 -0.81525,-1.288645 -1.85011,-2.492854 -2.90763,-3.233827 l -0.0611,1.028252 z"
     transform="matrix(-0.22775628,0,0,-0.22775628,29.521772,7.3597799)"
     id="path163"
     style="fill:#e602b4;fill-opacity:1;fill-rule:evenodd;stroke:#9d3a9b;stroke-opacity:1;filter:url(#v)"
     inkscape:connector-curvature="0" />
  <path
     d="m 3.1713284,2.5998972 c -0.026247,0 -0.053145,-0.015315 -0.065147,-0.032142 -0.012,-0.016819 -0.015237,-0.033492 -0.015805,-0.049398 -8.151e-4,-0.022845 0.01062,-0.044224 0.021201,-0.065635 a 0.05113514,0.04488144 0 0 1 -3.847e-4,-0.00441 l 0.00348,-1.90110427 c -0.059966,-0.0290237 -0.094953,-0.0919357 -0.094829,-0.16409261 8.15e-5,-0.047349 0.015252,-0.0904516 0.040862,-0.12382958 0.025611,-0.0334215 0.065955,-0.059616 0.1144875,-0.0595455 0.048258,6.39e-5 0.089067,0.02565 0.1148731,0.0595455 0.025738,0.033813 0.040173,0.0771015 0.04009,0.12416708 -1.294e-4,0.071874 -0.035208,0.13441809 -0.094827,0.16341626 l -0.00348,1.90144582 a 0.05113514,0.04488144 0 0 1 -3.849e-4,0.00372 c 0.010035,0.021475 0.020179,0.042991 0.019659,0.066313 -3.473e-4,0.0156 -0.00284,0.032028 -0.014655,0.049061 -0.011805,0.017027 -0.039222,0.032479 -0.065147,0.032479 z M 3.1119643,2.4520436 c 0.00409,-0.00816 0.00217,-0.017337 0.0081,-0.025037 l -0.0081,0.018271 c -2.881e-4,0.00156 -1.147e-4,0.00421 0,0.00678 z m 0.1191121,-0.00139 c 3.42e-5,-0.00227 3.534e-4,-0.00428 0,-0.00609 l -0.00618,-0.01488 c 0.00425,0.00646 0.00292,0.014205 0.00618,0.020978 z"
     id="path175"
     style="fill:#e602b4;fill-opacity:1;stroke-width:0.18490271"
     inkscape:connector-curvature="0" />
</svg>
