<?xml version="1.0" encoding="UTF-8"?>
<svg xmlns="http://www.w3.org/2000/svg" xmlns:xlink="http://www.w3.org/1999/xlink" width="24px" height="24px" viewBox="0 0 24 24" version="1.1">
<g id="surface1">
<path style=" stroke:none;fill-rule:nonzero;fill:rgb(33.333334%,34.117648%,32.549021%);fill-opacity:1;" d="M 3 1.5 C 3 2.328125 2.328125 3 1.5 3 L 1.5 4.5 L 3 4.5 L 3 9 L 4.5 9 L 4.5 1.5 Z M 7.5 3 L 7.5 6 L 22.5 6 L 22.5 3 Z M 3.75 13.5 C 2.507812 13.5 1.5 14.507812 1.5 15.75 L 3 15.75 C 3 15.335938 3.335938 15 3.75 15 C 4.164062 15 4.5 15.335938 4.5 15.75 C 4.5 15.957031 4.453125 16.050781 4.367188 16.199219 L 1.5 19.769531 L 1.5 21 L 6 21 L 6 19.5 L 3.597656 19.5 L 5.488281 17.105469 C 5.714844 16.859375 6 16.5 6 15.75 C 6 14.507812 4.992188 13.5 3.75 13.5 Z M 7.5 15 L 7.5 18 L 12 18 L 12 15 Z M 18 13.5 L 18 15 C 20.339844 17.4375 17.148438 20.246094 15 18 L 13.5 18 L 13.5 19.5 C 14.699219 20.65625 15.953125 21 17.101562 21 L 19.5 21 L 22.5 24 L 24 24 L 24 22.5 L 21 19.5 L 21 17.101562 C 21 15.777344 20.679688 14.699219 19.5 13.5 Z M 18 13.5 "/>
</g>
</svg>
