<?xml version="1.0" encoding="UTF-8"?>
<svg xmlns="http://www.w3.org/2000/svg" xmlns:xlink="http://www.w3.org/1999/xlink" width="24px" height="24px" viewBox="0 0 24 24" version="1.1">
<defs>
<filter id="alpha" filterUnits="objectBoundingBox" x="0%" y="0%" width="100%" height="100%">
  <feColorMatrix type="matrix" in="SourceGraphic" values="0 0 0 0 1 0 0 0 0 1 0 0 0 0 1 0 0 0 1 0"/>
</filter>
<mask id="mask0">
  <g filter="url(#alpha)">
<rect x="0" y="0" width="24" height="24" style="fill:rgb(0%,0%,0%);fill-opacity:0.99;stroke:none;"/>
  </g>
</mask>
<clipPath id="clip1">
  <rect x="0" y="0" width="24" height="24"/>
</clipPath>
<g id="surface5" clip-path="url(#clip1)">
<path style=" stroke:none;fill-rule:nonzero;fill:rgb(61.56863%,22.745098%,60.784316%);fill-opacity:1;" d="M 6 6 L 9 6 L 9 9 L 6 9 Z M 6 6 "/>
</g>
<mask id="mask1">
  <g filter="url(#alpha)">
<rect x="0" y="0" width="24" height="24" style="fill:rgb(0%,0%,0%);fill-opacity:0.99;stroke:none;"/>
  </g>
</mask>
<clipPath id="clip2">
  <rect x="0" y="0" width="24" height="24"/>
</clipPath>
<g id="surface8" clip-path="url(#clip2)">
<path style=" stroke:none;fill-rule:nonzero;fill:rgb(61.56863%,22.745098%,60.784316%);fill-opacity:1;" d="M 10.5 7.5 L 18 7.5 L 18 9 L 10.5 9 Z M 10.5 7.5 "/>
</g>
<mask id="mask2">
  <g filter="url(#alpha)">
<rect x="0" y="0" width="24" height="24" style="fill:rgb(0%,0%,0%);fill-opacity:0.99;stroke:none;"/>
  </g>
</mask>
<clipPath id="clip3">
  <rect x="0" y="0" width="24" height="24"/>
</clipPath>
<g id="surface11" clip-path="url(#clip3)">
<path style=" stroke:none;fill-rule:nonzero;fill:rgb(90.196079%,0.784314%,70.588237%);fill-opacity:1;" d="M 6 15 L 9 15 L 9 18 L 6 18 Z M 6 15 "/>
</g>
<mask id="mask3">
  <g filter="url(#alpha)">
<rect x="0" y="0" width="24" height="24" style="fill:rgb(0%,0%,0%);fill-opacity:0.99;stroke:none;"/>
  </g>
</mask>
<clipPath id="clip4">
  <rect x="0" y="0" width="24" height="24"/>
</clipPath>
<g id="surface14" clip-path="url(#clip4)">
<path style=" stroke:none;fill-rule:nonzero;fill:rgb(90.196079%,0.784314%,70.588237%);fill-opacity:1;" d="M 10.5 16.5 L 18 16.5 L 18 18 L 10.5 18 Z M 10.5 16.5 "/>
</g>
</defs>
<g id="surface1">
<path style=" stroke:none;fill-rule:nonzero;fill:rgb(90.196079%,0.784314%,70.588237%);fill-opacity:1;" d="M 3 1.5 L 21 1.5 L 21 22.5 L 3 22.5 Z M 3 1.5 "/>
<path style=" stroke:none;fill-rule:nonzero;fill:rgb(94.117647%,89.019608%,92.54902%);fill-opacity:1;" d="M 4.5 3 L 19.5 3 L 19.5 21 L 4.5 21 Z M 4.5 3 "/>
<use xlink:href="#surface5" mask="url(#mask0)"/>
<use xlink:href="#surface8" mask="url(#mask1)"/>
<use xlink:href="#surface11" mask="url(#mask2)"/>
<use xlink:href="#surface14" mask="url(#mask3)"/>
<path style="fill-rule:evenodd;fill:rgb(94.117647%,89.019608%,92.54902%);fill-opacity:1;stroke-width:3.20664;stroke-linecap:round;stroke-linejoin:round;stroke:rgb(94.117647%,89.019608%,92.54902%);stroke-opacity:1;stroke-miterlimit:4;" d="M 15.942667 8.511696 L 20.076124 8.511696 C 21.390563 8.511696 22.456994 9.599834 22.456994 10.941029 L 22.456994 20.072114 C 22.456994 21.413308 21.390563 22.501447 20.076124 22.501447 L 15.942667 22.501447 C 14.628228 22.501447 13.561797 21.413308 13.561797 20.072114 L 13.561797 10.941029 C 13.561797 9.599834 14.628228 8.511696 15.942667 8.511696 Z M 15.942667 8.511696 " transform="matrix(0.945032,0,0,0.92618,-0.304619,0.19476)"/>
<path style="fill-rule:evenodd;fill:rgb(94.117647%,89.019608%,92.54902%);fill-opacity:1;stroke-width:3.20664;stroke-linecap:round;stroke-linejoin:round;stroke:rgb(94.117647%,89.019608%,92.54902%);stroke-opacity:1;stroke-miterlimit:4;" d="M 17.881258 11.501968 L 18.120999 11.501968 C 19.435438 11.501968 20.50187 12.585889 20.50187 13.931301 L 20.50187 18.068758 C 20.50187 19.41417 19.435438 20.498091 18.120999 20.498091 L 17.881258 20.498091 C 16.566819 20.498091 15.500388 19.41417 15.500388 18.068758 L 15.500388 13.931301 C 15.500388 12.585889 16.566819 11.501968 17.881258 11.501968 Z M 17.881258 11.501968 " transform="matrix(0.945032,0,0,0.92618,-0.304619,0.19476)"/>
<path style="fill-rule:evenodd;fill:rgb(94.117647%,89.019608%,92.54902%);fill-opacity:1;stroke-width:3.20664;stroke-linecap:round;stroke-linejoin:round;stroke:rgb(94.117647%,89.019608%,92.54902%);stroke-opacity:1;stroke-miterlimit:4;" d="M 18.418608 14.184356 C 18.418608 14.412106 18.236736 14.59768 18.005262 14.59768 C 17.777922 14.59768 17.587783 14.416324 17.587783 14.192792 C 17.583649 13.965042 17.765522 13.779468 17.996995 13.77525 C 18.224335 13.771032 18.414474 13.952389 18.418608 14.175921 L 18.005262 14.184356 Z M 18.418608 14.184356 " transform="matrix(0.945032,0,0,0.92618,-0.304619,0.19476)"/>
<path style="fill:none;stroke-width:3.20664;stroke-linecap:round;stroke-linejoin:round;stroke:rgb(94.117647%,89.019608%,92.54902%);stroke-opacity:1;stroke-miterlimit:4;" d="M 17.947394 16.900485 L 17.947394 19.422605 " transform="matrix(0.945032,0,0,0.92618,-0.304619,0.19476)"/>
<path style="fill-rule:evenodd;fill:rgb(94.117647%,89.019608%,92.54902%);fill-opacity:1;stroke-width:1.60332;stroke-linecap:round;stroke-linejoin:round;stroke:rgb(90.196079%,0.784314%,70.588237%);stroke-opacity:1;stroke-miterlimit:4;" d="M 15.942667 8.511696 L 20.076124 8.511696 C 21.390563 8.511696 22.456994 9.599834 22.456994 10.941029 L 22.456994 20.072114 C 22.456994 21.413308 21.390563 22.501447 20.076124 22.501447 L 15.942667 22.501447 C 14.628228 22.501447 13.561797 21.413308 13.561797 20.072114 L 13.561797 10.941029 C 13.561797 9.599834 14.628228 8.511696 15.942667 8.511696 Z M 15.942667 8.511696 " transform="matrix(0.945032,0,0,0.92618,-0.304619,0.19476)"/>
<path style="fill-rule:evenodd;fill:rgb(95.294118%,71.764708%,85.09804%);fill-opacity:1;stroke-width:1.60332;stroke-linecap:round;stroke-linejoin:round;stroke:rgb(90.196079%,0.784314%,70.588237%);stroke-opacity:1;stroke-miterlimit:4;" d="M 17.881258 11.501968 L 18.120999 11.501968 C 19.435438 11.501968 20.50187 12.585889 20.50187 13.931301 L 20.50187 18.068758 C 20.50187 19.41417 19.435438 20.498091 18.120999 20.498091 L 17.881258 20.498091 C 16.566819 20.498091 15.500388 19.41417 15.500388 18.068758 L 15.500388 13.931301 C 15.500388 12.585889 16.566819 11.501968 17.881258 11.501968 Z M 17.881258 11.501968 " transform="matrix(0.945032,0,0,0.92618,-0.304619,0.19476)"/>
<path style="fill:none;stroke-width:1.60332;stroke-linecap:round;stroke-linejoin:round;stroke:rgb(61.56863%,22.745098%,60.784316%);stroke-opacity:1;stroke-miterlimit:4;" d="M 18.418608 14.184356 C 18.418608 14.412106 18.236736 14.59768 18.005262 14.59768 C 17.777922 14.59768 17.587783 14.416324 17.587783 14.192792 C 17.583649 13.965042 17.765522 13.779468 17.996995 13.77525 C 18.224335 13.771032 18.414474 13.952389 18.418608 14.175921 L 18.005262 14.184356 Z M 18.418608 14.184356 " transform="matrix(0.945032,0,0,0.92618,-0.304619,0.19476)"/>
<path style="fill:none;stroke-width:1.60332;stroke-linecap:round;stroke-linejoin:round;stroke:rgb(90.196079%,0.784314%,70.588237%);stroke-opacity:1;stroke-miterlimit:4;" d="M 17.947394 16.900485 L 17.947394 19.422605 " transform="matrix(0.945032,0,0,0.92618,-0.304619,0.19476)"/>
</g>
</svg>
