<?xml version="1.0" encoding="UTF-8"?>
<svg xmlns="http://www.w3.org/2000/svg" xmlns:xlink="http://www.w3.org/1999/xlink" width="24px" height="24px" viewBox="0 0 24 24" version="1.1">
<defs>
<filter id="alpha" filterUnits="objectBoundingBox" x="0%" y="0%" width="100%" height="100%">
  <feColorMatrix type="matrix" in="SourceGraphic" values="0 0 0 0 1 0 0 0 0 1 0 0 0 0 1 0 0 0 1 0"/>
</filter>
<mask id="mask0">
  <g filter="url(#alpha)">
<rect x="0" y="0" width="24" height="24" style="fill:rgb(0%,0%,0%);fill-opacity:0.356557;stroke:none;"/>
  </g>
</mask>
<clipPath id="clip1">
  <rect x="0" y="0" width="24" height="24"/>
</clipPath>
<g id="surface5" clip-path="url(#clip1)">
<path style="fill:none;stroke-width:0.827365;stroke-linecap:butt;stroke-linejoin:miter;stroke:rgb(90.196079%,0.784314%,70.588237%);stroke-opacity:1;stroke-miterlimit:4;" d="M 9.078125 8.059896 L 4.976562 12.161458 " transform="matrix(1.5,0,0,1.5,0,0)"/>
</g>
</defs>
<g id="surface1">
<path style="fill-rule:nonzero;fill:rgb(94.117647%,89.019608%,92.54902%);fill-opacity:1;stroke-width:1;stroke-linecap:butt;stroke-linejoin:miter;stroke:rgb(90.196079%,0.784314%,70.588237%);stroke-opacity:1;stroke-miterlimit:4;" d="M 8.098958 4.049479 C 7.799479 4.023438 7.489583 4.125 7.257812 4.354167 L 1.919271 9.690104 C 1.505208 10.104167 1.505208 10.770833 1.919271 11.184896 L 4.893229 14.158854 C 5.307292 14.572917 5.976562 14.572917 6.390625 14.158854 L 11.723958 8.820312 C 11.971354 8.575521 12.033854 8.242188 12.033854 7.924479 L 12.026042 5.09375 C 12.026042 4.510417 11.554688 4.036458 10.96875 4.036458 C 10.96875 4.036458 8.148438 4.046875 8.098958 4.049479 Z M 10.945312 4.554688 C 11.307292 4.539062 11.552083 4.799479 11.552083 5.104167 C 11.552083 5.408854 11.307292 5.653646 11.002604 5.653646 C 10.700521 5.653646 10.450521 5.408854 10.450521 5.104167 C 10.450521 4.820312 10.666667 4.567708 10.945312 4.554688 Z M 10.945312 4.554688 " transform="matrix(1.5,0,0,1.5,0,0)"/>
<path style=" stroke:none;fill-rule:nonzero;fill:rgb(95.294118%,71.764708%,85.09804%);fill-opacity:1;" d="M 4.789062 14.710938 L 10.441406 9.058594 C 11.015625 8.484375 11.941406 8.484375 12.515625 9.058594 L 15.0625 11.605469 C 15.632812 12.179688 15.632812 13.105469 15.0625 13.679688 L 9.40625 19.332031 C 8.835938 19.90625 7.90625 19.90625 7.332031 19.332031 L 4.789062 16.789062 C 4.214844 16.214844 4.214844 15.285156 4.789062 14.710938 Z M 4.789062 14.710938 "/>
<use xlink:href="#surface5" mask="url(#mask0)"/>
<path style=" stroke:none;fill-rule:nonzero;fill:rgb(90.196079%,0.784314%,70.588237%);fill-opacity:1;" d="M 17.339844 7.628906 C 17.730469 7.484375 17.96875 7.15625 18 6.75 C 17.636719 6.414062 17.390625 5.871094 17.390625 5.238281 C 17.390625 4.550781 17.765625 3.910156 18.1875 3.394531 C 18.605469 2.878906 19.203125 2.59375 19.644531 2.492188 C 20.085938 2.386719 20.757812 2.46875 21.175781 2.789062 C 21.59375 3.113281 21.84375 3.617188 21.84375 4.304688 C 21.84375 4.992188 21.457031 5.664062 21.035156 6.183594 C 20.617188 6.699219 19.886719 7.046875 19.445312 7.148438 C 19.269531 7.191406 19.078125 7.207031 18.894531 7.191406 L 18.894531 7.898438 C 19.070312 7.882812 19.257812 7.855469 19.445312 7.8125 C 20.484375 7.574219 21.332031 6.960938 21.886719 6.28125 C 22.441406 5.597656 22.757812 4.796875 22.757812 4 C 22.757812 3.203125 22.441406 2.546875 21.886719 2.121094 C 21.460938 1.789062 20.855469 1.582031 20.121094 1.617188 C 19.90625 1.625 19.679688 1.660156 19.445312 1.714844 C 18.402344 1.953125 17.546875 2.570312 16.992188 3.253906 C 16.441406 3.9375 16.128906 4.730469 16.128906 5.527344 C 16.128906 6.324219 16.441406 6.984375 16.992188 7.410156 C 17.097656 7.492188 17.214844 7.566406 17.339844 7.628906 Z M 17.339844 7.628906 "/>
</g>
</svg>
