<?xml version="1.0" encoding="UTF-8"?>
<svg xmlns="http://www.w3.org/2000/svg" xmlns:xlink="http://www.w3.org/1999/xlink" width="24px" height="24px" viewBox="0 0 24 24" version="1.1">
<g id="surface1">
<path style="fill:none;stroke-width:1;stroke-linecap:round;stroke-linejoin:miter;stroke:rgb(90.196079%,0.784314%,70.588237%);stroke-opacity:1;stroke-miterlimit:4;" d="M 3.119792 6.015625 L 7.466146 6.015625 " transform="matrix(1.5,0,0,1.5,0,0)"/>
<path style="fill-rule:nonzero;fill:rgb(94.117647%,89.019608%,92.54902%);fill-opacity:1;stroke-width:1;stroke-linecap:round;stroke-linejoin:round;stroke:rgb(90.196079%,0.784314%,70.588237%);stroke-opacity:1;stroke-miterlimit:4;" d="M 2.5 1.5 L 7.856771 1.5 C 8.408854 1.5 8.856771 1.947917 8.856771 2.5 L 8.856771 9.192708 C 8.856771 9.744792 8.408854 10.192708 7.856771 10.192708 L 2.5 10.192708 C 1.947917 10.192708 1.5 9.744792 1.5 9.192708 L 1.5 2.5 C 1.5 1.947917 1.947917 1.5 2.5 1.5 Z M 2.5 1.5 " transform="matrix(1.5,0,0,1.5,0,0)"/>
<path style="fill-rule:nonzero;fill:rgb(61.56863%,22.745098%,60.784316%);fill-opacity:1;stroke-width:0.25;stroke-linecap:butt;stroke-linejoin:miter;stroke:rgb(61.56863%,22.745098%,60.784316%);stroke-opacity:1;stroke-miterlimit:4;" d="M 6.096354 2.838542 C 6.117188 2.611979 6.28125 2.450521 6.484375 2.450521 C 6.619792 2.450521 6.742188 2.520833 6.8125 2.635417 C 6.880208 2.520833 7 2.450521 7.132812 2.450521 C 7.335938 2.450521 7.497396 2.611979 7.518229 2.838542 C 7.520833 2.846354 7.526042 2.898438 7.507812 2.984375 C 7.476562 3.106771 7.408854 3.21875 7.309896 3.307292 L 6.8125 3.75 L 6.307292 3.307292 C 6.208333 3.21875 6.138021 3.106771 6.109375 2.984375 C 6.088542 2.901042 6.096354 2.846354 6.096354 2.838542 Z M 6.164062 2.971354 C 6.190104 3.085938 6.252604 3.1875 6.34375 3.268229 L 6.8125 3.677083 L 7.273438 3.268229 C 7.364583 3.1875 7.427083 3.085938 7.453125 2.971354 C 7.473958 2.893229 7.463542 2.846354 7.463542 2.846354 L 7.463542 2.84375 C 7.445312 2.645833 7.307292 2.502604 7.132812 2.502604 C 7.005208 2.502604 6.890625 2.580729 6.838542 2.705729 L 6.8125 2.765625 L 6.786458 2.705729 C 6.734375 2.583333 6.614583 2.502604 6.484375 2.502604 C 6.309896 2.502604 6.169271 2.645833 6.151042 2.846354 C 6.151042 2.846354 6.143229 2.890625 6.164062 2.971354 Z M 6.164062 2.971354 " transform="matrix(1.5,0,0,1.5,0,0)"/>
<path style="fill:none;stroke-width:1;stroke-linecap:round;stroke-linejoin:miter;stroke:rgb(90.196079%,0.784314%,70.588237%);stroke-opacity:1;stroke-miterlimit:4;" d="M 2.966146 4.515625 L 7.315104 4.515625 " transform="matrix(1.5,0,0,1.5,0,0)"/>
<path style="fill:none;stroke-width:1;stroke-linecap:round;stroke-linejoin:miter;stroke:rgb(90.196079%,0.784314%,70.588237%);stroke-opacity:1;stroke-miterlimit:4;" d="M 2.966146 6.515625 L 7.315104 6.515625 " transform="matrix(1.5,0,0,1.5,0,0)"/>
<path style="fill:none;stroke-width:1;stroke-linecap:round;stroke-linejoin:miter;stroke:rgb(90.196079%,0.784314%,70.588237%);stroke-opacity:1;stroke-miterlimit:4;" d="M 2.966146 8.515625 L 7.315104 8.515625 " transform="matrix(1.5,0,0,1.5,0,0)"/>
<path style="fill:none;stroke-width:1;stroke-linecap:round;stroke-linejoin:miter;stroke:rgb(90.196079%,0.784314%,70.588237%);stroke-opacity:1;stroke-miterlimit:4;" d="M 8.807292 10.5 L 13.153646 10.5 " transform="matrix(1.5,0,0,1.5,0,0)"/>
<path style="fill-rule:nonzero;fill:rgb(94.117647%,89.019608%,92.54902%);fill-opacity:1;stroke-width:1;stroke-linecap:round;stroke-linejoin:round;stroke:rgb(90.196079%,0.784314%,70.588237%);stroke-opacity:1;stroke-miterlimit:4;" d="M 8.184896 5.984375 L 13.541667 5.984375 C 14.09375 5.984375 14.541667 6.432292 14.541667 6.984375 L 14.541667 13.679688 C 14.541667 14.231771 14.09375 14.679688 13.541667 14.679688 L 8.184896 14.679688 C 7.632812 14.679688 7.184896 14.231771 7.184896 13.679688 L 7.184896 6.984375 C 7.184896 6.432292 7.632812 5.984375 8.184896 5.984375 Z M 8.184896 5.984375 " transform="matrix(1.5,0,0,1.5,0,0)"/>
<path style="fill-rule:nonzero;fill:rgb(61.56863%,22.745098%,60.784316%);fill-opacity:1;stroke-width:0.25;stroke-linecap:butt;stroke-linejoin:miter;stroke:rgb(61.56863%,22.745098%,60.784316%);stroke-opacity:1;stroke-miterlimit:4;" d="M 11.783854 7.322917 C 11.804688 7.096354 11.966146 6.934896 12.169271 6.934896 C 12.304688 6.934896 12.429688 7.005208 12.497396 7.119792 C 12.567708 7.005208 12.684896 6.934896 12.817708 6.934896 C 13.020833 6.934896 13.184896 7.096354 13.205729 7.322917 C 13.205729 7.333333 13.213542 7.385417 13.192708 7.46875 C 13.164062 7.59375 13.09375 7.703125 12.994792 7.791667 L 12.497396 8.234375 L 11.992188 7.791667 C 11.893229 7.703125 11.825521 7.59375 11.796875 7.46875 C 11.776042 7.385417 11.78125 7.333333 11.783854 7.322917 Z M 11.848958 7.458333 C 11.875 7.570312 11.9375 7.671875 12.028646 7.752604 L 12.497396 8.164062 L 12.958333 7.752604 C 13.049479 7.671875 13.111979 7.570312 13.138021 7.458333 C 13.158854 7.377604 13.151042 7.330729 13.151042 7.330729 L 13.151042 7.328125 C 13.132812 7.130208 12.992188 6.986979 12.817708 6.986979 C 12.690104 6.986979 12.578125 7.065104 12.523438 7.190104 L 12.497396 7.25 L 12.473958 7.190104 C 12.419271 7.067708 12.302083 6.986979 12.169271 6.986979 C 11.994792 6.986979 11.856771 7.130208 11.838542 7.330729 C 11.838542 7.330729 11.830729 7.377604 11.848958 7.458333 Z M 11.848958 7.458333 " transform="matrix(1.5,0,0,1.5,0,0)"/>
<path style="fill:none;stroke-width:1;stroke-linecap:round;stroke-linejoin:miter;stroke:rgb(90.196079%,0.784314%,70.588237%);stroke-opacity:1;stroke-miterlimit:4;" d="M 8.653646 9 L 13 9 " transform="matrix(1.5,0,0,1.5,0,0)"/>
<path style="fill:none;stroke-width:1;stroke-linecap:round;stroke-linejoin:miter;stroke:rgb(90.196079%,0.784314%,70.588237%);stroke-opacity:1;stroke-miterlimit:4;" d="M 8.653646 11 L 13 11 " transform="matrix(1.5,0,0,1.5,0,0)"/>
<path style="fill:none;stroke-width:1;stroke-linecap:round;stroke-linejoin:miter;stroke:rgb(90.196079%,0.784314%,70.588237%);stroke-opacity:1;stroke-miterlimit:4;" d="M 8.653646 13 L 13 13 " transform="matrix(1.5,0,0,1.5,0,0)"/>
<path style="fill:none;stroke-width:1.615385;stroke-linecap:round;stroke-linejoin:round;stroke:rgb(94.117647%,89.019608%,92.54902%);stroke-opacity:1;stroke-miterlimit:4;" d="M 3.772245 13.099198 L 2.191834 15.446612 L -0.153573 13.86424 " transform="matrix(0.973269,-0.996393,0.996393,0.973269,-6.531952,7.49007)"/>
<path style="fill:none;stroke-width:1.615385;stroke-linecap:round;stroke-linejoin:miter;stroke:rgb(94.117647%,89.019608%,92.54902%);stroke-opacity:1;stroke-miterlimit:4;" d="M 5.2299 6.849373 C 5.2299 6.849373 -0.153771 5.772747 2 14.387309 " transform="matrix(0.973269,-0.996393,0.996393,0.973269,-6.531952,7.49007)"/>
<path style="fill:none;stroke-width:1.076923;stroke-linecap:round;stroke-linejoin:round;stroke:rgb(61.56863%,22.745098%,60.784316%);stroke-opacity:1;stroke-miterlimit:4;" d="M 3.772245 13.099198 L 2.191834 15.446612 L -0.153573 13.86424 " transform="matrix(0.973269,-0.996393,0.996393,0.973269,-6.531952,7.49007)"/>
<path style="fill:none;stroke-width:1.076923;stroke-linecap:round;stroke-linejoin:miter;stroke:rgb(61.56863%,22.745098%,60.784316%);stroke-opacity:1;stroke-miterlimit:4;" d="M 5.2299 6.849373 C 5.2299 6.849373 -0.153771 5.772747 2 14.387309 " transform="matrix(0.973269,-0.996393,0.996393,0.973269,-6.531952,7.49007)"/>
</g>
</svg>
