<?xml version="1.0" encoding="UTF-8"?>
<svg xmlns="http://www.w3.org/2000/svg" xmlns:xlink="http://www.w3.org/1999/xlink" width="24px" height="24px" viewBox="0 0 24 24" version="1.1">
<g id="surface1">
<path style="fill-rule:nonzero;fill:rgb(94.117647%,89.019608%,92.54902%);fill-opacity:1;stroke-width:1.249674;stroke-linecap:butt;stroke-linejoin:miter;stroke:rgb(90.196079%,0.784314%,70.588237%);stroke-opacity:1;stroke-miterlimit:4;" d="M 2.66579 3.985157 C 1.744806 3.985157 0.999558 4.434258 0.999558 4.9875 L 0.999558 11.001556 C 0.999558 11.551543 1.744806 12.000644 2.66579 12.000644 L 6.001508 12.000644 L 6.001508 3.985157 Z M 2.66579 3.985157 " transform="matrix(1.200313,0,0,1.200313,3.491624,2.63844)"/>
<path style="fill-rule:nonzero;fill:rgb(94.117647%,89.019608%,92.54902%);fill-opacity:1;stroke-width:1.249674;stroke-linecap:butt;stroke-linejoin:miter;stroke:rgb(90.196079%,0.784314%,70.588237%);stroke-opacity:1;stroke-miterlimit:4;" d="M 11.582735 -0.206458 C 11.198721 -0.196695 10.827724 -0.0925557 10.554357 0.0864341 L 6.001508 3.601142 C 5.715125 3.786641 5.555661 4.040481 5.555661 4.307338 L 5.555661 11.294448 C 5.555661 11.558052 5.715125 11.811892 6.001508 12.000644 L 10.554357 15.499081 C 10.873285 15.710614 11.247536 15.821263 11.628296 15.791973 C 12.913768 15.818008 13.148082 16.065339 13.148082 14.792885 L 13.148082 0.79263 C 13.307546 -0.525385 12.731524 -0.206458 11.582735 -0.206458 Z M 11.582735 -0.206458 " transform="matrix(1.200313,0,0,1.200313,3.491624,2.63844)"/>
<path style="fill-rule:evenodd;fill:rgb(94.117647%,89.019608%,92.54902%);fill-opacity:1;stroke-width:1;stroke-linecap:round;stroke-linejoin:round;stroke:rgb(61.56863%,22.745098%,60.784316%);stroke-opacity:1;stroke-miterlimit:4;" d="M 14.41146 11.213543 C 14.41146 13.002606 12.960939 14.453127 11.171876 14.453127 C 9.382814 14.453127 7.932293 13.002606 7.932293 11.213543 C 7.932293 9.421876 9.382814 7.971355 11.171876 7.971355 C 12.960939 7.971355 14.41146 9.421876 14.41146 11.213543 Z M 14.41146 11.213543 " transform="matrix(1.5,0,0,1.5,0,0)"/>
<path style="fill-rule:nonzero;fill:rgb(90.196079%,0.784314%,70.588237%);fill-opacity:1;stroke-width:1;stroke-linecap:round;stroke-linejoin:round;stroke:rgb(90.196079%,0.784314%,70.588237%);stroke-opacity:1;stroke-miterlimit:4;" d="M 12.177085 12.221356 L 10.166668 10.203126 " transform="matrix(1.5,0,0,1.5,0,0)"/>
<path style="fill-rule:nonzero;fill:rgb(90.196079%,0.784314%,70.588237%);fill-opacity:1;stroke-width:1;stroke-linecap:round;stroke-linejoin:round;stroke:rgb(90.196079%,0.784314%,70.588237%);stroke-opacity:1;stroke-miterlimit:4;" d="M 10.166668 12.216147 L 12.177085 10.208335 " transform="matrix(1.5,0,0,1.5,0,0)"/>
</g>
</svg>
