<?xml version="1.0" encoding="UTF-8"?>
<svg xmlns="http://www.w3.org/2000/svg" xmlns:xlink="http://www.w3.org/1999/xlink" width="24px" height="24px" viewBox="0 0 24 24" version="1.1">
<defs>
<clipPath id="clip1">
  <path d="M 8 7 L 22 7 L 22 22 L 8 22 Z M 8 7 "/>
</clipPath>
<clipPath id="clip2">
  <path d="M 10.863281 6.898438 L 7.351562 10.488281 L 7.351562 22.460938 L 23.15625 22.460938 L 23.15625 6.898438 Z M 10.863281 6.898438 "/>
</clipPath>
<clipPath id="clip3">
  <path d="M 7 6 L 23 6 L 23 23 L 7 23 Z M 7 6 "/>
</clipPath>
<clipPath id="clip4">
  <path d="M 10.863281 6.898438 L 7.351562 10.488281 L 7.351562 22.460938 L 23.15625 22.460938 L 23.15625 6.898438 Z M 10.863281 6.898438 "/>
</clipPath>
<clipPath id="clip5">
  <path d="M 13 8 L 18 8 L 18 11 L 13 11 Z M 13 8 "/>
</clipPath>
<clipPath id="clip6">
  <path d="M 9.425781 8.164062 L 20.648438 8.164062 C 21.800781 8.164062 22.730469 9.183594 22.730469 10.4375 L 22.730469 18.964844 C 22.730469 20.21875 21.800781 21.238281 20.648438 21.238281 L 9.425781 21.238281 C 8.277344 21.238281 7.34375 20.21875 7.34375 18.964844 L 7.34375 10.4375 C 7.34375 9.183594 8.277344 8.164062 9.425781 8.164062 Z M 9.425781 8.164062 "/>
</clipPath>
<clipPath id="clip7">
  <path d="M 12 8 L 19 8 L 19 12 L 12 12 Z M 12 8 "/>
</clipPath>
<clipPath id="clip8">
  <path d="M 9.425781 8.164062 L 20.648438 8.164062 C 21.800781 8.164062 22.730469 9.183594 22.730469 10.4375 L 22.730469 18.964844 C 22.730469 20.21875 21.800781 21.238281 20.648438 21.238281 L 9.425781 21.238281 C 8.277344 21.238281 7.34375 20.21875 7.34375 18.964844 L 7.34375 10.4375 C 7.34375 9.183594 8.277344 8.164062 9.425781 8.164062 Z M 9.425781 8.164062 "/>
</clipPath>
<clipPath id="clip9">
  <path d="M 10 14 L 20 14 L 20 22 L 10 22 Z M 10 14 "/>
</clipPath>
<clipPath id="clip10">
  <path d="M 8.460938 7.699219 L 20.84375 7.699219 C 22.109375 7.699219 23.136719 8.753906 23.136719 10.050781 L 23.136719 18.867188 C 23.136719 20.164062 22.109375 21.21875 20.84375 21.21875 L 8.460938 21.21875 C 7.195312 21.21875 6.167969 20.164062 6.167969 18.867188 L 6.167969 10.050781 C 6.167969 8.753906 7.195312 7.699219 8.460938 7.699219 Z M 8.460938 7.699219 "/>
</clipPath>
<clipPath id="clip11">
  <path d="M 10 13 L 20 13 L 20 22 L 10 22 Z M 10 13 "/>
</clipPath>
<clipPath id="clip12">
  <path d="M 8.460938 7.699219 L 20.84375 7.699219 C 22.109375 7.699219 23.136719 8.753906 23.136719 10.050781 L 23.136719 18.867188 C 23.136719 20.164062 22.109375 21.21875 20.84375 21.21875 L 8.460938 21.21875 C 7.195312 21.21875 6.167969 20.164062 6.167969 18.867188 L 6.167969 10.050781 C 6.167969 8.753906 7.195312 7.699219 8.460938 7.699219 Z M 8.460938 7.699219 "/>
</clipPath>
</defs>
<g id="surface1">
<g clip-path="url(#clip1)" clip-rule="nonzero">
<g clip-path="url(#clip2)" clip-rule="nonzero">
<path style=" stroke:none;fill-rule:evenodd;fill:rgb(95.294118%,71.764708%,85.09804%);fill-opacity:1;" d="M 10.925781 7.640625 L 19.023438 7.640625 C 20.582031 7.640625 21.84375 8.902344 21.84375 10.460938 L 21.84375 18.910156 C 21.84375 20.46875 20.582031 21.730469 19.023438 21.730469 L 10.925781 21.730469 C 9.367188 21.730469 8.105469 20.46875 8.105469 18.910156 L 8.105469 10.460938 C 8.105469 8.902344 9.367188 7.640625 10.925781 7.640625 Z M 10.925781 7.640625 "/>
</g>
</g>
<g clip-path="url(#clip3)" clip-rule="nonzero">
<g clip-path="url(#clip4)" clip-rule="nonzero">
<path style="fill:none;stroke-width:1.266938;stroke-linecap:round;stroke-linejoin:round;stroke:rgb(90.196079%,0.784314%,70.588237%);stroke-opacity:1;stroke-miterlimit:4;" d="M 4.553761 2.12086 L 11.469954 2.12086 C 12.801146 2.12086 13.878777 3.17472 13.878777 4.476548 L 13.878777 11.533822 C 13.878777 12.835649 12.801146 13.889509 11.469954 13.889509 L 4.553761 13.889509 C 3.222569 13.889509 2.144938 12.835649 2.144938 11.533822 L 2.144938 4.476548 C 2.144938 3.17472 3.222569 2.12086 4.553761 2.12086 Z M 4.553761 2.12086 " transform="matrix(1.170826,0,0,1.197235,5.59412,5.101456)"/>
</g>
</g>
<path style="fill:none;stroke-width:0.821887;stroke-linecap:butt;stroke-linejoin:bevel;stroke:rgb(90.196079%,0.784314%,70.588237%);stroke-opacity:1;stroke-miterlimit:4;" d="M 1.692826 16.4223 L 3.597971 14.536869 " transform="matrix(1.816628,0,0,1.83355,4.979452,-19.064228)"/>
<g clip-path="url(#clip5)" clip-rule="nonzero">
<g clip-path="url(#clip6)" clip-rule="nonzero">
<path style=" stroke:none;fill-rule:evenodd;fill:rgb(94.117647%,89.019608%,92.54902%);fill-opacity:1;" d="M 14.320312 6.714844 L 16.9375 6.714844 C 17.480469 6.714844 17.917969 7.292969 17.917969 8.003906 L 17.917969 9.574219 C 17.917969 10.285156 17.480469 10.863281 16.9375 10.863281 L 14.320312 10.863281 C 13.777344 10.863281 13.339844 10.285156 13.339844 9.574219 L 13.339844 8.003906 C 13.339844 7.292969 13.777344 6.714844 14.320312 6.714844 Z M 14.320312 6.714844 "/>
</g>
</g>
<g clip-path="url(#clip7)" clip-rule="nonzero">
<g clip-path="url(#clip8)" clip-rule="nonzero">
<path style="fill:none;stroke-width:1.296645;stroke-linecap:butt;stroke-linejoin:bevel;stroke:rgb(90.196079%,0.784314%,70.588237%);stroke-opacity:1;stroke-miterlimit:4;" d="M 7.196025 9.360571 L 9.561157 9.360571 C 10.051833 9.360571 10.447198 9.838607 10.447198 10.426462 L 10.447198 11.724911 C 10.447198 12.312766 10.051833 12.790802 9.561157 12.790802 L 7.196025 12.790802 C 6.705349 12.790802 6.309984 12.312766 6.309984 11.724911 L 6.309984 10.426462 C 6.309984 9.838607 6.705349 9.360571 7.196025 9.360571 Z M 7.196025 9.360571 " transform="matrix(1.106572,0,0,1.209376,6.357393,-4.605603)"/>
</g>
</g>
<g clip-path="url(#clip9)" clip-rule="nonzero">
<g clip-path="url(#clip10)" clip-rule="nonzero">
<path style=" stroke:none;fill-rule:evenodd;fill:rgb(94.117647%,89.019608%,92.54902%);fill-opacity:1;" d="M 11.726562 14.1875 L 18.269531 14.1875 C 18.8125 14.1875 19.25 14.765625 19.25 15.476562 L 19.25 21.675781 C 19.25 22.390625 18.8125 22.96875 18.269531 22.96875 L 11.726562 22.96875 C 11.183594 22.96875 10.746094 22.390625 10.746094 21.675781 L 10.746094 15.476562 C 10.746094 14.765625 11.183594 14.1875 11.726562 14.1875 Z M 11.726562 14.1875 "/>
</g>
</g>
<g clip-path="url(#clip11)" clip-rule="nonzero">
<g clip-path="url(#clip12)" clip-rule="nonzero">
<path style="fill:none;stroke-width:1.214257;stroke-linecap:butt;stroke-linejoin:bevel;stroke:rgb(90.196079%,0.784314%,70.588237%);stroke-opacity:1;stroke-miterlimit:4;" d="M 5.446692 15.746871 L 10.807928 15.746871 C 11.25283 15.746871 11.611313 16.209221 11.611313 16.777786 L 11.611313 21.735547 C 11.611313 22.307236 11.25283 22.769586 10.807928 22.769586 L 5.446692 22.769586 C 5.001789 22.769586 4.643307 22.307236 4.643307 21.735547 L 4.643307 16.777786 C 4.643307 16.209221 5.001789 15.746871 5.446692 15.746871 Z M 5.446692 15.746871 " transform="matrix(1.220422,0,0,1.250407,5.079301,-5.502496)"/>
</g>
</g>
<path style="fill-rule:nonzero;fill:rgb(61.56863%,22.745098%,60.784316%);fill-opacity:1;stroke-width:0.205472;stroke-linecap:round;stroke-linejoin:round;stroke:rgb(61.56863%,22.745098%,60.784316%);stroke-opacity:1;stroke-miterlimit:4;" d="M 3.860304 19.121555 C 3.875356 18.957512 3.997922 18.838208 4.150591 18.838208 C 4.251654 18.838208 4.344116 18.889338 4.397873 18.972425 C 4.44948 18.889338 4.539791 18.838208 4.638704 18.838208 C 4.791373 18.838208 4.913939 18.957512 4.928991 19.121555 C 4.931141 19.127946 4.935442 19.166294 4.92039 19.228077 C 4.898887 19.317555 4.847281 19.398511 4.772021 19.464554 L 4.397873 19.786249 L 4.017274 19.464554 C 3.942015 19.398511 3.890408 19.317555 3.868905 19.228077 C 3.853853 19.166294 3.858154 19.127946 3.860304 19.121555 Z M 3.90976 19.219555 C 3.929113 19.300511 3.976419 19.375076 4.045228 19.434728 L 4.397873 19.732989 L 4.744067 19.434728 C 4.812876 19.375076 4.860182 19.300511 4.879535 19.219555 C 4.894587 19.159903 4.888136 19.127946 4.888136 19.127946 L 4.888136 19.125816 C 4.875234 18.980947 4.769871 18.876556 4.638704 18.876556 C 4.541941 18.876556 4.45593 18.934077 4.417226 19.025686 L 4.397873 19.068294 L 4.378521 19.025686 C 4.337665 18.934077 4.249504 18.876556 4.150591 18.876556 C 4.019425 18.876556 3.914061 18.980947 3.901159 19.127946 C 3.901159 19.127946 3.894709 19.159903 3.90976 19.219555 Z M 3.90976 19.219555 " transform="matrix(1.816628,0,0,1.83355,4.979452,-19.064228)"/>
<path style="fill:none;stroke-width:0.821887;stroke-linecap:round;stroke-linejoin:miter;stroke:rgb(90.196079%,0.784314%,70.588237%);stroke-opacity:1;stroke-miterlimit:4;" d="M 3.90546 20.176118 L 7.137324 20.176118 " transform="matrix(1.816628,0,0,1.83355,4.979452,-19.064228)"/>
<path style="fill:none;stroke-width:0.821887;stroke-linecap:round;stroke-linejoin:miter;stroke:rgb(90.196079%,0.784314%,70.588237%);stroke-opacity:1;stroke-miterlimit:4;" d="M 3.894709 21.360638 L 7.126573 21.360638 " transform="matrix(1.816628,0,0,1.83355,4.979452,-19.064228)"/>
<path style="fill-rule:evenodd;fill:rgb(95.294118%,71.764708%,85.09804%);fill-opacity:1;stroke-width:0.410943;stroke-linecap:round;stroke-linejoin:bevel;stroke:rgb(90.196079%,0.784314%,70.588237%);stroke-opacity:1;stroke-miterlimit:4;" d="M 5.378399 15.112085 C 5.447208 15.112085 5.500964 15.199433 5.500964 15.308085 L 5.500964 15.565867 C 5.500964 15.674519 5.447208 15.761866 5.378399 15.761866 C 5.30959 15.761866 5.253683 15.674519 5.253683 15.565867 L 5.253683 15.308085 C 5.253683 15.199433 5.30959 15.112085 5.378399 15.112085 Z M 5.378399 15.112085 " transform="matrix(1.816628,0,0,1.83355,4.979452,-19.064228)"/>
<path style="fill-rule:evenodd;fill:rgb(94.117647%,89.019608%,92.54902%);fill-opacity:1;stroke-width:0.666712;stroke-linecap:round;stroke-linejoin:round;stroke:rgb(90.196079%,0.784314%,70.588237%);stroke-opacity:1;stroke-miterlimit:4;" d="M 1.901367 15.117078 L 4.185982 15.117078 C 4.548782 15.117078 4.84313 15.420056 4.84313 15.793493 L 4.84313 18.467446 C 4.84313 18.840883 4.548782 19.143861 4.185982 19.143861 L 1.901367 19.143861 C 1.538567 19.143861 1.244219 18.840883 1.244219 18.467446 L 1.244219 15.793493 C 1.244219 15.420056 1.538567 15.117078 1.901367 15.117078 Z M 1.901367 15.117078 " transform="matrix(2.282592,0,0,2.217574,-0.539263,-31.226363)"/>
<path style="fill-rule:nonzero;fill:rgb(61.56863%,22.745098%,60.784316%);fill-opacity:1;stroke-width:0.166678;stroke-linecap:butt;stroke-linejoin:miter;stroke:rgb(61.56863%,22.745098%,60.784316%);stroke-opacity:1;stroke-miterlimit:4;" d="M 3.296095 15.795255 C 3.308074 15.673711 3.391929 15.587398 3.498031 15.587398 C 3.568195 15.587398 3.633225 15.626151 3.669163 15.686042 C 3.705101 15.62439 3.766708 15.587398 3.836872 15.587398 C 3.941263 15.587398 4.026829 15.673711 4.037097 15.795255 C 4.038808 15.800539 4.042231 15.828723 4.030252 15.874522 C 4.01485 15.939698 3.980623 15.999588 3.927572 16.047149 L 3.669163 16.284951 L 3.405619 16.047149 C 3.354279 15.999588 3.318342 15.939698 3.30294 15.874522 C 3.292672 15.828723 3.296095 15.800539 3.296095 15.795255 Z M 3.330321 15.867476 C 3.345723 15.927367 3.378238 15.981973 3.424444 16.026011 L 3.669163 16.246198 L 3.908748 16.026011 C 3.956665 15.981973 3.98918 15.927367 4.002871 15.867476 C 4.013139 15.823439 4.009716 15.800539 4.009716 15.800539 L 4.009716 15.798778 C 3.999448 15.693088 3.927572 15.615582 3.836872 15.615582 C 3.770131 15.615582 3.710235 15.657858 3.682853 15.724795 L 3.669163 15.756502 L 3.655472 15.724795 C 3.628091 15.657858 3.566483 15.615582 3.498031 15.615582 C 3.40733 15.615582 3.333744 15.693088 3.325187 15.798778 C 3.325187 15.800539 3.320053 15.823439 3.330321 15.867476 Z M 3.330321 15.867476 " transform="matrix(2.282592,0,0,2.217574,-0.539263,-31.226363)"/>
<path style="fill:none;stroke-width:0.666712;stroke-linecap:round;stroke-linejoin:miter;stroke:rgb(90.196079%,0.784314%,70.588237%);stroke-opacity:1;stroke-miterlimit:4;" d="M 2.214539 16.913805 L 3.857408 16.913805 " transform="matrix(2.282592,0,0,2.217574,-0.539263,-31.226363)"/>
<path style="fill:none;stroke-width:0.666712;stroke-linecap:round;stroke-linejoin:miter;stroke:rgb(90.196079%,0.784314%,70.588237%);stroke-opacity:1;stroke-miterlimit:4;" d="M 2.214539 17.905528 L 3.857408 17.905528 " transform="matrix(2.282592,0,0,2.217574,-0.539263,-31.226363)"/>
<path style="fill:none;stroke-width:1;stroke-linecap:round;stroke-linejoin:round;stroke:rgb(61.56863%,22.745098%,60.784316%);stroke-opacity:1;stroke-miterlimit:4;" d="M 2.473958 7.830729 C 2.473958 7.830729 -0.710938 10.955729 5.221354 13.692708 " transform="matrix(1.5,0,0,1.5,0,0)"/>
<path style="fill:none;stroke-width:1;stroke-linecap:round;stroke-linejoin:round;stroke:rgb(61.56863%,22.745098%,60.784316%);stroke-opacity:1;stroke-miterlimit:4;" d="M 4.846354 11.257812 L 6.067708 14.135417 L 2.507812 14.567708 " transform="matrix(1.5,0,0,1.5,0,0)"/>
</g>
</svg>
