<?xml version="1.0" encoding="UTF-8"?>
<svg xmlns="http://www.w3.org/2000/svg" xmlns:xlink="http://www.w3.org/1999/xlink" width="24px" height="24px" viewBox="0 0 24 24" version="1.1">
<g id="surface1">
<path style=" stroke:none;fill-rule:nonzero;fill:rgb(95.294118%,71.764708%,85.09804%);fill-opacity:1;" d="M 1.5 8.0625 C 1.5 11.6875 4.4375 14.625 8.0625 14.625 C 11.6875 14.625 14.625 11.6875 14.625 8.0625 C 14.625 4.4375 11.6875 1.5 8.0625 1.5 C 4.4375 1.5 1.5 4.4375 1.5 8.0625 Z M 1.5 8.0625 "/>
<path style=" stroke:none;fill-rule:evenodd;fill:rgb(94.117647%,89.019608%,92.54902%);fill-opacity:1;" d="M 2.8125 8.0625 C 2.8125 10.960938 5.164062 13.3125 8.0625 13.3125 C 10.960938 13.3125 13.3125 10.960938 13.3125 8.0625 C 13.3125 5.164062 10.960938 2.8125 8.0625 2.8125 C 5.164062 2.8125 2.8125 5.164062 2.8125 8.0625 Z M 2.8125 8.0625 "/>
<path style=" stroke:none;fill-rule:evenodd;fill:rgb(94.117647%,89.019608%,92.54902%);fill-opacity:1;" d="M 11.863281 4.4375 C 9.324219 5.371094 5.933594 5.769531 3.210938 6.050781 C 2.953125 6.671875 2.8125 7.347656 2.8125 8.0625 C 2.8125 9.441406 3.339844 10.691406 4.203125 11.628906 C 7.285156 10.292969 10.753906 8.46875 13.066406 6.464844 C 12.820312 5.695312 12.40625 5.003906 11.863281 4.4375 Z M 11.863281 4.4375 "/>
<path style=" stroke:none;fill-rule:nonzero;fill:rgb(90.196079%,0.784314%,70.588237%);fill-opacity:1;" d="M 5.4375 11.199219 L 5.4375 12.800781 C 5.4375 15.984375 7.847656 18.5625 10.816406 18.5625 L 13.183594 18.5625 C 16.152344 18.5625 18.5625 15.984375 18.5625 12.800781 L 18.5625 11.199219 C 18.5625 8.015625 16.152344 5.4375 13.183594 5.4375 L 10.816406 5.4375 C 7.847656 5.4375 5.4375 8.015625 5.4375 11.199219 Z M 5.4375 11.199219 "/>
<path style=" stroke:none;fill-rule:evenodd;fill:rgb(94.117647%,89.019608%,92.54902%);fill-opacity:1;" d="M 6.75 10.417969 L 6.75 13.582031 C 6.75 15.609375 8.753906 17.25 11.226562 17.25 L 12.773438 17.25 C 15.246094 17.25 17.25 15.609375 17.25 13.582031 L 17.25 10.417969 C 17.25 8.390625 15.246094 6.75 12.773438 6.75 L 11.226562 6.75 C 8.753906 6.75 6.75 8.390625 6.75 10.417969 Z M 6.75 10.417969 "/>
<path style=" stroke:none;fill-rule:nonzero;fill:rgb(90.196079%,0.784314%,70.588237%);fill-opacity:1;" d="M 9 9.511719 L 9 21.988281 C 9 22.273438 9.265625 22.5 9.59375 22.5 L 21.90625 22.5 C 22.234375 22.5 22.5 22.273438 22.5 21.988281 L 22.5 9.511719 C 22.5 9.226562 22.234375 9 21.90625 9 L 9.59375 9 C 9.265625 9 9 9.226562 9 9.511719 Z M 9 9.511719 "/>
<path style=" stroke:none;fill-rule:evenodd;fill:rgb(95.294118%,71.764708%,85.09804%);fill-opacity:1;" d="M 10.5 10.738281 L 10.5 20.761719 C 10.5 20.894531 10.628906 21 10.785156 21 L 20.714844 21 C 20.871094 21 21 20.894531 21 20.761719 L 21 10.738281 C 21 10.605469 20.871094 10.5 20.714844 10.5 L 10.785156 10.5 C 10.628906 10.5 10.5 10.605469 10.5 10.738281 Z M 10.5 10.738281 "/>
<path style=" stroke:none;fill-rule:evenodd;fill:rgb(95.294118%,71.764708%,85.09804%);fill-opacity:1;" d="M 21 13.9375 C 18.347656 16.335938 13.980469 18.496094 10.5 19.894531 L 10.5 13.78125 C 13.832031 13.4375 18.34375 12.949219 21 11.476562 Z M 21 13.9375 "/>
</g>
</svg>
