<?xml version="1.0" encoding="UTF-8"?>
<svg xmlns="http://www.w3.org/2000/svg" xmlns:xlink="http://www.w3.org/1999/xlink" width="24px" height="24px" viewBox="0 0 24 24" version="1.1">
<g id="surface1">
<path style="fill-rule:evenodd;fill:rgb(94.117647%,89.019608%,92.54902%);fill-opacity:1;stroke-width:0.264583;stroke-linecap:round;stroke-linejoin:round;stroke:rgb(90.196079%,0.784314%,70.588237%);stroke-opacity:1;stroke-miterlimit:4;" d="M 0.670415 0.538124 L 3.571875 0.538124 C 3.717947 0.538124 3.836458 0.656635 3.836458 0.802707 L 3.836458 3.571875 C 3.836458 3.717947 3.717947 3.836459 3.571875 3.836459 L 0.670415 3.836459 C 0.524343 3.836459 0.405832 3.717947 0.405832 3.571875 L 0.405832 0.802707 C 0.405832 0.656635 0.524343 0.538124 0.670415 0.538124 Z M 0.670415 0.538124 " transform="matrix(5.669291,0,0,5.669291,0.00000135166,0)"/>
<path style=" stroke:none;fill-rule:nonzero;fill:rgb(95.294118%,71.764708%,85.09804%);fill-opacity:1;" d="M 21 17.929688 L 20.179688 17.929688 L 20.179688 6 L 21 6 Z M 21 17.929688 "/>
<path style=" stroke:none;fill-rule:nonzero;fill:rgb(95.294118%,71.764708%,85.09804%);fill-opacity:1;" d="M 3.75 17.929688 L 3 17.929688 L 3 6 L 3.75 6 Z M 3.75 17.929688 "/>
<path style=" stroke:none;fill-rule:nonzero;fill:rgb(95.294118%,71.764708%,85.09804%);fill-opacity:1;" d="M 20.25 17.183594 L 20.25 17.929688 L 3.75 17.929688 L 3.75 17.183594 Z M 20.25 17.183594 "/>
<path style=" stroke:none;fill-rule:nonzero;fill:rgb(95.294118%,71.764708%,85.09804%);fill-opacity:1;" d="M 20.25 6 L 20.25 6.746094 L 3.75 6.746094 L 3.75 6 Z M 20.25 6 "/>
<path style=" stroke:none;fill-rule:nonzero;fill:rgb(95.294118%,71.764708%,85.09804%);fill-opacity:1;" d="M 20.25 9.726562 L 20.25 10.472656 L 3.75 10.472656 L 3.75 9.726562 Z M 20.25 9.726562 "/>
<path style="fill-rule:nonzero;fill:rgb(95.294118%,71.764708%,85.09804%);fill-opacity:1;stroke-width:0.264583;stroke-linecap:butt;stroke-linejoin:miter;stroke:rgb(61.56863%,22.745098%,60.784316%);stroke-opacity:1;stroke-miterlimit:4;" d="M 0.522965 0.986675 C 0.475423 0.986675 0.398253 1.024571 0.397564 1.070736 L 0.397564 3.715191 C 0.398253 3.761355 0.475423 3.836459 0.522965 3.836459 L 3.182579 3.836459 C 3.25906 3.836459 3.298334 3.709679 3.244591 3.655936 L 0.585666 1.012169 C 0.56913 0.995633 0.546392 0.986675 0.522965 0.986675 Z M 0.89917 2.134581 L 2.113221 3.228744 L 0.89917 3.228744 Z M 0.89917 2.134581 " transform="matrix(5.669291,0,0,5.669291,0.00000135166,0)"/>
</g>
</svg>
