<?xml version="1.0" encoding="UTF-8"?>
<svg xmlns="http://www.w3.org/2000/svg" xmlns:xlink="http://www.w3.org/1999/xlink" width="24px" height="24px" viewBox="0 0 24 24" version="1.1">
<g id="surface1">
<path style="fill:none;stroke-width:1;stroke-linecap:round;stroke-linejoin:miter;stroke:rgb(90.196079%,0.784314%,70.588237%);stroke-opacity:1;stroke-miterlimit:4;" d="M 3.5 1.5 L 3.5 6.5 " transform="matrix(1.5,0,0,1.5,0,0)"/>
<path style="fill:none;stroke-width:1;stroke-linecap:round;stroke-linejoin:miter;stroke:rgb(90.196079%,0.784314%,70.588237%);stroke-opacity:1;stroke-miterlimit:4;" d="M 3.5 10.5 L 3.5 14.5 " transform="matrix(1.5,0,0,1.5,0,0)"/>
<path style="fill-rule:evenodd;fill:rgb(61.56863%,22.745098%,60.784316%);fill-opacity:1;stroke-width:1;stroke-linecap:round;stroke-linejoin:round;stroke:rgb(90.196079%,0.784314%,70.588237%);stroke-opacity:1;stroke-miterlimit:4;" d="M 4.53125 9.330729 C 4.53125 9.882812 4.083333 10.330729 3.53125 10.330729 C 2.979167 10.330729 2.53125 9.882812 2.53125 9.330729 C 2.53125 8.778646 2.979167 8.330729 3.53125 8.330729 C 4.083333 8.330729 4.53125 8.778646 4.53125 9.330729 Z M 4.53125 9.330729 " transform="matrix(1.5,0,0,1.5,0,0)"/>
<path style="fill:none;stroke-width:1;stroke-linecap:round;stroke-linejoin:miter;stroke:rgb(90.196079%,0.784314%,70.588237%);stroke-opacity:1;stroke-miterlimit:4;" d="M 6.5 14.578125 L 6.5 8 " transform="matrix(1.5,0,0,1.5,0,0)"/>
<path style="fill:none;stroke-width:1;stroke-linecap:round;stroke-linejoin:miter;stroke:rgb(90.196079%,0.784314%,70.588237%);stroke-opacity:1;stroke-miterlimit:4;" d="M 6.5 3.5 L 6.5 1.5 " transform="matrix(1.5,0,0,1.5,0,0)"/>
<path style="fill-rule:evenodd;fill:rgb(61.56863%,22.745098%,60.784316%);fill-opacity:1;stroke-width:1;stroke-linecap:round;stroke-linejoin:round;stroke:rgb(90.196079%,0.784314%,70.588237%);stroke-opacity:1;stroke-miterlimit:4;" d="M 7.481771 -6.591146 C 7.481771 -6.039062 7.036458 -5.591146 6.481771 -5.591146 C 5.929688 -5.591146 5.481771 -6.039062 5.481771 -6.591146 C 5.481771 -7.143229 5.929688 -7.591146 6.481771 -7.591146 C 7.036458 -7.591146 7.481771 -7.143229 7.481771 -6.591146 Z M 7.481771 -6.591146 " transform="matrix(1.5,0,0,-1.5,0,0)"/>
<path style="fill:none;stroke-width:1;stroke-linecap:round;stroke-linejoin:miter;stroke:rgb(90.196079%,0.784314%,70.588237%);stroke-opacity:1;stroke-miterlimit:4;" d="M 9.5 1.5 L 9.5 7.5 " transform="matrix(1.5,0,0,1.5,0,0)"/>
<path style="fill:none;stroke-width:1;stroke-linecap:round;stroke-linejoin:miter;stroke:rgb(90.196079%,0.784314%,70.588237%);stroke-opacity:1;stroke-miterlimit:4;" d="M 9.5 12 L 9.5 14.5 " transform="matrix(1.5,0,0,1.5,0,0)"/>
<path style="fill-rule:evenodd;fill:rgb(61.56863%,22.745098%,60.784316%);fill-opacity:1;stroke-width:1;stroke-linecap:round;stroke-linejoin:round;stroke:rgb(90.196079%,0.784314%,70.588237%);stroke-opacity:1;stroke-miterlimit:4;" d="M 10.557292 10.481771 C 10.557292 11.033854 10.109375 11.481771 9.557292 11.481771 C 9.005208 11.481771 8.557292 11.033854 8.557292 10.481771 C 8.557292 9.929688 9.005208 9.481771 9.557292 9.481771 C 10.109375 9.481771 10.557292 9.929688 10.557292 10.481771 Z M 10.557292 10.481771 " transform="matrix(1.5,0,0,1.5,0,0)"/>
<path style="fill:none;stroke-width:1;stroke-linecap:round;stroke-linejoin:miter;stroke:rgb(90.196079%,0.784314%,70.588237%);stroke-opacity:1;stroke-miterlimit:4;" d="M 12.5 1.5 L 12.5 3.5 " transform="matrix(1.5,0,0,1.5,0,0)"/>
<path style="fill:none;stroke-width:1;stroke-linecap:round;stroke-linejoin:miter;stroke:rgb(90.196079%,0.784314%,70.588237%);stroke-opacity:1;stroke-miterlimit:4;" d="M 12.5 8 L 12.5 14.5 " transform="matrix(1.5,0,0,1.5,0,0)"/>
<path style="fill-rule:evenodd;fill:rgb(61.56863%,22.745098%,60.784316%);fill-opacity:1;stroke-width:1;stroke-linecap:round;stroke-linejoin:round;stroke:rgb(90.196079%,0.784314%,70.588237%);stroke-opacity:1;stroke-miterlimit:4;" d="M 13.557292 5.015625 C 13.557292 5.567708 13.109375 6.015625 12.557292 6.015625 C 12.005208 6.015625 11.557292 5.567708 11.557292 5.015625 C 11.557292 4.463542 12.005208 4.015625 12.557292 4.015625 C 13.109375 4.015625 13.557292 4.463542 13.557292 5.015625 Z M 13.557292 5.015625 " transform="matrix(1.5,0,0,1.5,0,0)"/>
</g>
</svg>
