<?xml version="1.0" encoding="UTF-8"?>
<svg xmlns="http://www.w3.org/2000/svg" xmlns:xlink="http://www.w3.org/1999/xlink" width="24px" height="24px" viewBox="0 0 24 24" version="1.1">
<g id="surface1">
<path style=" stroke:none;fill-rule:nonzero;fill:rgb(33.333334%,34.117648%,32.549021%);fill-opacity:1;" d="M 6 3 L 1.5 7.5 L 18 7.5 L 22.5 3 Z M 6 9 L 1.5 13.5 L 16.5 13.5 L 16.5 12 L 19.5 12 L 22.5 9 Z M 18 13.5 L 18 15 C 20.339844 17.4375 17.148438 20.246094 15 18 L 13.5 18 L 13.5 19.5 C 14.699219 20.65625 15.953125 21 17.101562 21 L 19.5 21 L 22.5 24 L 24 24 L 24 22.5 L 21 19.5 L 21 17.101562 C 21 15.777344 20.679688 14.699219 19.5 13.5 Z M 6 15 L 1.5 19.5 L 12 19.5 L 12 16.5 L 16.5 16.5 L 16.5 15 Z M 6 15 "/>
</g>
</svg>
