<?xml version="1.0" encoding="UTF-8"?>
<svg xmlns="http://www.w3.org/2000/svg" xmlns:xlink="http://www.w3.org/1999/xlink" width="24px" height="24px" viewBox="0 0 24 24" version="1.1">
<g id="surface1">
<path style="fill-rule:evenodd;fill:rgb(96.078432%,92.941177%,95.294118%);fill-opacity:1;stroke-width:0.244165;stroke-linecap:round;stroke-linejoin:round;stroke:rgb(61.56863%,22.745098%,60.784316%);stroke-opacity:1;stroke-miterlimit:4;" d="M 0.773397 1.32277 L 2.930769 1.32277 C 3.065605 1.32277 3.175 1.432106 3.175 1.566869 L 3.175 2.666589 C 3.175 2.801352 3.065605 2.910688 2.930769 2.910688 L 0.773397 2.910688 C 0.638561 2.910688 0.529166 2.801352 0.529166 2.666589 L 0.529166 1.566869 C 0.529166 1.432106 0.638561 1.32277 0.773397 1.32277 Z M 0.773397 1.32277 " transform="matrix(6.141731,0,0,6.145033,-0.999998,-1.81987)"/>
<path style="fill:none;stroke-width:0.244165;stroke-linecap:butt;stroke-linejoin:round;stroke:rgb(61.56863%,22.745098%,60.784316%);stroke-opacity:1;stroke-miterlimit:4;" d="M 1.058333 2.910688 L 1.058333 3.704012 L 1.852083 2.910688 Z M 1.058333 2.910688 " transform="matrix(6.141731,0,0,6.145033,-0.999998,-1.81987)"/>
<path style="fill-rule:evenodd;fill:rgb(96.078432%,92.941177%,95.294118%);fill-opacity:1;stroke-width:0.244165;stroke-linecap:round;stroke-linejoin:round;stroke:rgb(90.196079%,0.784314%,70.588237%);stroke-opacity:1;stroke-miterlimit:4;" d="M -3.459936 0.793887 L -1.302564 0.793887 C -1.167728 0.793887 -1.058333 0.903224 -1.058333 1.037987 L -1.058333 2.137071 C -1.058333 2.271834 -1.167728 2.38117 -1.302564 2.38117 L -3.459936 2.38117 C -3.594772 2.38117 -3.704167 2.271834 -3.704167 2.137071 L -3.704167 1.037987 C -3.704167 0.903224 -3.594772 0.793887 -3.459936 0.793887 Z M -3.459936 0.793887 " transform="matrix(-6.141731,0,0,6.145033,-0.999998,-1.81987)"/>
<path style="fill:none;stroke-width:0.244165;stroke-linecap:butt;stroke-linejoin:round;stroke:rgb(90.196079%,0.784314%,70.588237%);stroke-opacity:1;stroke-miterlimit:4;" d="M 3.175 2.38117 L 3.175 3.17513 L 2.38125 2.38117 Z M 3.175 2.38117 " transform="matrix(6.141731,0,0,6.145033,-0.999998,-1.81987)"/>
<path style="fill-rule:evenodd;fill:rgb(61.56863%,22.745098%,60.784316%);fill-opacity:1;stroke-width:0.166118;stroke-linecap:round;stroke-linejoin:round;stroke:rgb(61.56863%,22.745098%,60.784316%);stroke-opacity:1;stroke-miterlimit:4;" d="M 1.832367 1.615181 C 1.832367 1.711168 1.754137 1.789356 1.658098 1.789356 C 1.561423 1.789356 1.483193 1.711168 1.483193 1.615181 C 1.483193 1.518558 1.561423 1.44037 1.658098 1.44037 C 1.754137 1.44037 1.832367 1.518558 1.832367 1.615181 Z M 1.832367 1.615181 " transform="matrix(6.141731,0,0,6.145033,-0.999998,-1.81987)"/>
<path style="fill-rule:evenodd;fill:rgb(61.56863%,22.745098%,60.784316%);fill-opacity:1;stroke-width:0.166118;stroke-linecap:round;stroke-linejoin:round;stroke:rgb(61.56863%,22.745098%,60.784316%);stroke-opacity:1;stroke-miterlimit:4;" d="M 2.499549 1.615181 C 2.499549 1.711168 2.421319 1.789356 2.324644 1.789356 C 2.228606 1.789356 2.150376 1.711168 2.150376 1.615181 C 2.150376 1.518558 2.228606 1.44037 2.324644 1.44037 C 2.421319 1.44037 2.499549 1.518558 2.499549 1.615181 Z M 2.499549 1.615181 " transform="matrix(6.141731,0,0,6.145033,-0.999998,-1.81987)"/>
<path style="fill-rule:evenodd;fill:rgb(61.56863%,22.745098%,60.784316%);fill-opacity:1;stroke-width:0.166118;stroke-linecap:round;stroke-linejoin:round;stroke:rgb(61.56863%,22.745098%,60.784316%);stroke-opacity:1;stroke-miterlimit:4;" d="M 3.187084 1.615181 C 3.187084 1.711168 3.108854 1.789356 3.012816 1.789356 C 2.916141 1.789356 2.837911 1.711168 2.837911 1.615181 C 2.837911 1.518558 2.916141 1.44037 3.012816 1.44037 C 3.108854 1.44037 3.187084 1.518558 3.187084 1.615181 Z M 3.187084 1.615181 " transform="matrix(6.141731,0,0,6.145033,-0.999998,-1.81987)"/>
</g>
</svg>
