<?xml version="1.0" encoding="UTF-8"?>
<svg xmlns="http://www.w3.org/2000/svg" xmlns:xlink="http://www.w3.org/1999/xlink" width="24px" height="24px" viewBox="0 0 24 24" version="1.1">
<g id="surface1">
<path style="fill-rule:nonzero;fill:rgb(94.117647%,89.019608%,92.54902%);fill-opacity:1;stroke-width:1;stroke-linecap:butt;stroke-linejoin:miter;stroke:rgb(90.196079%,0.784314%,70.588237%);stroke-opacity:1;stroke-miterlimit:4;" d="M 2.46875 1.536458 C 1.934896 1.536458 1.505208 1.945312 1.505208 2.455729 L 1.505208 10.018229 C 1.505208 10.526042 1.934896 10.929688 2.46875 10.9375 L 8.075521 10.929688 L 12.036458 10.927083 C 12.567708 10.924479 12.997396 10.515625 12.997396 10.007812 L 12.997396 2.442708 C 12.997396 1.934896 12.567708 1.523438 12.036458 1.523438 L 11.356771 1.520833 L 11.356771 2.065104 C 11.356771 2.197917 11.247396 2.302083 11.109375 2.302083 L 9.966146 2.302083 C 9.825521 2.302083 9.716146 2.197917 9.716146 2.065104 L 9.716146 1.520833 Z M 2.46875 1.536458 " transform="matrix(1.5,0,0,1.5,0,0)"/>
<path style="fill-rule:nonzero;fill:rgb(95.294118%,71.764708%,85.09804%);fill-opacity:1;stroke-width:0.5;stroke-linecap:butt;stroke-linejoin:miter;stroke:rgb(61.56863%,22.745098%,60.784316%);stroke-opacity:1;stroke-miterlimit:4;" d="M 3.153646 3.325521 L 11.322917 3.325521 C 11.505208 3.325521 11.653646 3.471354 11.653646 3.653646 L 11.653646 8.760417 C 11.653646 8.940104 11.505208 9.088542 11.322917 9.088542 L 3.153646 9.088542 C 2.971354 9.088542 2.825521 8.940104 2.825521 8.760417 L 2.825521 3.653646 C 2.825521 3.471354 2.971354 3.325521 3.153646 3.325521 Z M 3.153646 3.325521 " transform="matrix(1.5,0,0,1.5,0,0)"/>
<path style="fill-rule:nonzero;fill:rgb(94.117647%,89.019608%,92.54902%);fill-opacity:1;stroke-width:1;stroke-linecap:butt;stroke-linejoin:miter;stroke:rgb(90.196079%,0.784314%,70.588237%);stroke-opacity:1;stroke-miterlimit:4;" d="M 4.007812 5.5 C 3.476562 5.5 3.049479 5.893229 3.049479 6.380208 L 3.049479 13.635417 C 3.049479 14.125 3.476562 14.510417 4.007812 14.518229 L 9.591146 14.510417 L 13.536458 14.507812 C 14.067708 14.505208 14.494792 14.111979 14.494792 13.625 L 14.494792 6.369792 C 14.494792 5.880208 14.067708 5.486979 13.536458 5.486979 L 12.861979 5.484375 L 12.861979 6.005208 C 12.861979 6.132812 12.75 6.234375 12.611979 6.234375 L 11.473958 6.234375 C 11.335938 6.234375 11.223958 6.132812 11.226562 6.005208 L 11.226562 5.484375 Z M 4.007812 5.5 " transform="matrix(1.5,0,0,1.5,0,0)"/>
<path style="fill-rule:nonzero;fill:rgb(95.294118%,71.764708%,85.09804%);fill-opacity:1;stroke-width:0.5;stroke-linecap:butt;stroke-linejoin:miter;stroke:rgb(61.56863%,22.745098%,60.784316%);stroke-opacity:1;stroke-miterlimit:4;" d="M 4.583333 7.304688 L 12.752604 7.304688 C 12.932292 7.304688 13.080729 7.450521 13.080729 7.632812 L 13.080729 12.736979 C 13.080729 12.919271 12.932292 13.067708 12.752604 13.067708 L 4.583333 13.067708 C 4.401042 13.067708 4.252604 12.919271 4.252604 12.736979 L 4.252604 7.632812 C 4.252604 7.450521 4.401042 7.304688 4.583333 7.304688 Z M 4.583333 7.304688 " transform="matrix(1.5,0,0,1.5,0,0)"/>
<path style="fill-rule:nonzero;fill:rgb(95.294118%,71.764708%,85.09804%);fill-opacity:1;stroke-width:1;stroke-linecap:round;stroke-linejoin:round;stroke:rgb(61.56863%,22.745098%,60.784316%);stroke-opacity:1;stroke-miterlimit:4;" d="M 4.838106 1.483457 L 10.549043 1.483457 C 11.046439 1.483457 11.450085 1.887103 11.450085 2.384499 L 11.450085 3.446999 C 11.450085 3.944395 11.046439 4.350645 10.549043 4.350645 L 4.838106 4.350645 C 4.34071 4.350645 3.937064 3.944395 3.937064 3.446999 L 3.937064 2.384499 C 3.937064 1.887103 4.34071 1.483457 4.838106 1.483457 Z M 4.838106 1.483457 " transform="matrix(1.5,0,0,-1.5,3.020185,23.865811)"/>
<path style="fill-rule:evenodd;fill:rgb(95.294118%,71.764708%,85.09804%);fill-opacity:1;stroke-width:1;stroke-linecap:round;stroke-linejoin:round;stroke:rgb(61.56863%,22.745098%,60.784316%);stroke-opacity:1;stroke-miterlimit:4;" d="M 11.442273 13.004291 L 5.015189 13.004291 L 7.457898 9.782936 L 5.015189 9.782936 L 8.228731 5.540749 L 11.442273 9.782936 L 9.002168 9.782936 Z M 11.442273 13.004291 " transform="matrix(1.5,0,0,-1.5,3.020185,23.865811)"/>
</g>
</svg>
