<?xml version="1.0" encoding="UTF-8"?>
<svg xmlns="http://www.w3.org/2000/svg" xmlns:xlink="http://www.w3.org/1999/xlink" width="24px" height="24px" viewBox="0 0 24 24" version="1.1">
<g id="surface1">
<path style="fill-rule:nonzero;fill:rgb(95.294118%,71.764708%,85.09804%);fill-opacity:1;stroke-width:1;stroke-linecap:round;stroke-linejoin:round;stroke:rgb(90.196079%,0.784314%,70.588237%);stroke-opacity:1;stroke-miterlimit:4;" d="M 1.5 2.223958 L 1.5 4.148438 L 5.4375 4.148438 L 7.919271 8.320312 C 7.953125 8.380208 7.875 8.270833 7.919271 8.320312 C 7.890625 8.354167 7.945312 8.283854 7.919271 8.320312 L 5.479167 11.851562 L 1.5 11.851562 L 1.5 13.776042 L 5.994792 13.776042 C 6.309896 13.776042 6.619792 13.609375 6.794271 13.346354 L 9.078125 9.442708 L 11.932292 9.445312 L 11.932292 10.567708 L 14.5 8.320312 L 11.932292 5.914062 L 11.932292 7.036458 L 9.044271 7.039062 L 6.828125 2.708333 C 6.661458 2.416667 6.330729 2.223958 5.994792 2.223958 Z M 1.5 2.223958 " transform="matrix(1.5,0,0,1.5,0,0)"/>
</g>
</svg>
