<?xml version="1.0" encoding="UTF-8"?>
<svg xmlns="http://www.w3.org/2000/svg" xmlns:xlink="http://www.w3.org/1999/xlink" width="24px" height="24px" viewBox="0 0 24 24" version="1.1">
<g id="surface1">
<path style="fill-rule:nonzero;fill:rgb(94.117647%,89.019608%,92.54902%);fill-opacity:1;stroke-width:1;stroke-linecap:butt;stroke-linejoin:round;stroke:rgb(90.196079%,0.784314%,70.588237%);stroke-opacity:1;stroke-miterlimit:4;" d="M 1.559896 6.440104 L 8.203125 1.424479 L 14.846354 6.372396 L 8.270833 10.914062 Z M 1.559896 6.440104 " transform="matrix(1.5,0,0,1.5,0,0)"/>
<path style="fill:none;stroke-width:1;stroke-linecap:round;stroke-linejoin:miter;stroke:rgb(90.196079%,0.784314%,70.588237%);stroke-opacity:1;stroke-miterlimit:4;" d="M 6.145833 8.236979 L 10.492188 8.236979 " transform="matrix(1.5,0,0,1.5,0,0)"/>
<path style="fill-rule:nonzero;fill:rgb(95.294118%,71.764708%,85.09804%);fill-opacity:1;stroke-width:1;stroke-linecap:round;stroke-linejoin:round;stroke:rgb(90.196079%,0.784314%,70.588237%);stroke-opacity:1;stroke-miterlimit:4;" d="M 5.526042 3.721354 L 10.882812 3.721354 C 11.434896 3.721354 11.882812 4.169271 11.882812 4.721354 L 11.882812 11.414062 C 11.882812 11.966146 11.434896 12.414062 10.882812 12.414062 L 5.526042 12.414062 C 4.973958 12.414062 4.526042 11.966146 4.526042 11.414062 L 4.526042 4.721354 C 4.526042 4.169271 4.973958 3.721354 5.526042 3.721354 Z M 5.526042 3.721354 " transform="matrix(1.5,0,0,1.5,0,0)"/>
<path style="fill-rule:nonzero;fill:rgb(95.294118%,71.764708%,85.09804%);fill-opacity:1;stroke-width:0.25;stroke-linecap:butt;stroke-linejoin:miter;stroke:rgb(61.56863%,22.745098%,60.784316%);stroke-opacity:1;stroke-miterlimit:4;" d="M 9.122396 5.057292 C 9.143229 4.833333 9.304688 4.669271 9.507812 4.669271 C 9.643229 4.669271 9.768229 4.742188 9.838542 4.856771 C 9.90625 4.739583 10.026042 4.669271 10.158854 4.669271 C 10.361979 4.669271 10.523438 4.833333 10.544271 5.057292 C 10.546875 5.067708 10.552083 5.119792 10.53125 5.205729 C 10.502604 5.328125 10.434896 5.440104 10.333333 5.528646 L 9.838542 5.971354 L 9.333333 5.528646 C 9.231771 5.440104 9.164062 5.328125 9.135417 5.205729 C 9.114583 5.119792 9.122396 5.067708 9.122396 5.057292 Z M 9.1875 5.192708 C 9.216146 5.304688 9.278646 5.408854 9.369792 5.489583 L 9.838542 5.898438 L 10.296875 5.489583 C 10.388021 5.408854 10.450521 5.304688 10.479167 5.192708 C 10.497396 5.111979 10.489583 5.067708 10.489583 5.067708 L 10.489583 5.065104 C 10.471354 4.867188 10.333333 4.723958 10.158854 4.723958 C 10.028646 4.723958 9.916667 4.802083 9.861979 4.927083 L 9.838542 4.984375 L 9.8125 4.927083 C 9.760417 4.804688 9.640625 4.723958 9.507812 4.723958 C 9.333333 4.723958 9.195312 4.867188 9.177083 5.067708 C 9.177083 5.067708 9.169271 5.111979 9.1875 5.192708 Z M 9.1875 5.192708 " transform="matrix(1.5,0,0,1.5,0,0)"/>
<path style="fill:none;stroke-width:1;stroke-linecap:round;stroke-linejoin:miter;stroke:rgb(61.56863%,22.745098%,60.784316%);stroke-opacity:1;stroke-miterlimit:4;" d="M 5.992188 6.736979 L 10.338542 6.736979 " transform="matrix(1.5,0,0,1.5,0,0)"/>
<path style="fill:none;stroke-width:1;stroke-linecap:round;stroke-linejoin:miter;stroke:rgb(61.56863%,22.745098%,60.784316%);stroke-opacity:1;stroke-miterlimit:4;" d="M 5.992188 8.466146 L 10.338542 8.466146 " transform="matrix(1.5,0,0,1.5,0,0)"/>
<path style="fill:none;stroke-width:1;stroke-linecap:round;stroke-linejoin:miter;stroke:rgb(90.196079%,0.784314%,70.588237%);stroke-opacity:1;stroke-miterlimit:4;" d="M 5.992188 10.736979 L 10.338542 10.736979 " transform="matrix(1.5,0,0,1.5,0,0)"/>
<path style="fill-rule:nonzero;fill:rgb(94.117647%,89.019608%,92.54902%);fill-opacity:1;stroke-width:1;stroke-linecap:round;stroke-linejoin:round;stroke:rgb(90.196079%,0.784314%,70.588237%);stroke-opacity:1;stroke-miterlimit:4;" d="M 1.492188 6.440104 L 14.40625 14.575521 L 1.492188 14.575521 Z M 1.492188 6.440104 " transform="matrix(1.5,0,0,1.5,0,0)"/>
<path style="fill-rule:nonzero;fill:rgb(94.117647%,89.019608%,92.54902%);fill-opacity:1;stroke-width:1;stroke-linecap:round;stroke-linejoin:round;stroke:rgb(90.196079%,0.784314%,70.588237%);stroke-opacity:1;stroke-miterlimit:4;" d="M 14.575521 6.440104 L 1.492188 14.473958 L 14.575521 14.473958 Z M 14.575521 6.440104 " transform="matrix(1.5,0,0,1.5,0,0)"/>
<path style="fill-rule:nonzero;fill:rgb(100%,100%,100%);fill-opacity:1;stroke-width:1.75;stroke-linecap:butt;stroke-linejoin:miter;stroke:rgb(100%,100%,100%);stroke-opacity:1;stroke-miterlimit:4;" d="M -6.064236 -7.623578 C -6.063863 -5.693119 -7.63218 -4.126373 -9.565155 -4.126674 C -11.495613 -4.126301 -13.063033 -5.692103 -13.062732 -7.625077 C -13.062432 -9.558051 -11.496629 -11.125471 -9.563655 -11.12517 C -7.630681 -11.12487 -6.066451 -9.557226 -6.064236 -7.623578 Z M -6.064236 -7.623578 " transform="matrix(-1.448889,0.388229,-0.388229,-1.448889,0,0)"/>
<path style="fill-rule:nonzero;fill:rgb(95.294118%,71.764708%,85.09804%);fill-opacity:1;stroke-width:1;stroke-linecap:butt;stroke-linejoin:miter;stroke:rgb(61.56863%,22.745098%,60.784316%);stroke-opacity:1;stroke-miterlimit:4;" d="M -6.064236 -7.623578 C -6.063863 -5.693119 -7.63218 -4.126373 -9.565155 -4.126674 C -11.495613 -4.126301 -13.063033 -5.692103 -13.062732 -7.625077 C -13.062432 -9.558051 -11.496629 -11.125471 -9.563655 -11.12517 C -7.630681 -11.12487 -6.066451 -9.557226 -6.064236 -7.623578 Z M -6.064236 -7.623578 " transform="matrix(-1.448889,0.388229,-0.388229,-1.448889,0,0)"/>
<path style=" stroke:none;fill-rule:nonzero;fill:rgb(90.196079%,0.784314%,70.588237%);fill-opacity:1;" d="M 14.324219 5.085938 L 19.3125 5.085938 C 19.605469 5.085938 19.839844 5.320312 19.839844 5.613281 L 19.839844 6.042969 C 19.839844 6.335938 19.605469 6.574219 19.3125 6.574219 L 14.324219 6.574219 C 14.03125 6.574219 13.792969 6.335938 13.792969 6.042969 L 13.792969 5.613281 C 13.792969 5.320312 14.03125 5.085938 14.324219 5.085938 Z M 14.324219 5.085938 "/>
<path style=" stroke:none;fill-rule:nonzero;fill:rgb(90.196079%,0.784314%,70.588237%);fill-opacity:1;" d="M 14.324219 8.097656 L 19.3125 8.097656 C 19.605469 8.097656 19.839844 8.332031 19.839844 8.625 L 19.839844 9.054688 C 19.839844 9.347656 19.605469 9.585938 19.3125 9.585938 L 14.324219 9.585938 C 14.03125 9.585938 13.792969 9.347656 13.792969 9.054688 L 13.792969 8.625 C 13.792969 8.332031 14.03125 8.097656 14.324219 8.097656 Z M 14.324219 8.097656 "/>
<path style="fill:none;stroke-width:1;stroke-linecap:butt;stroke-linejoin:miter;stroke:rgb(90.196079%,0.784314%,70.588237%);stroke-opacity:1;stroke-miterlimit:4;" d="M 8.007812 10.601562 L 14.195312 14.447917 " transform="matrix(1.5,0,0,1.5,0,0)"/>
</g>
</svg>
