<?xml version="1.0" encoding="UTF-8"?>
<svg xmlns="http://www.w3.org/2000/svg" xmlns:xlink="http://www.w3.org/1999/xlink" width="24px" height="24px" viewBox="0 0 24 24" version="1.1">
<g id="surface1">
<path style="fill-rule:nonzero;fill:rgb(95.294118%,71.764708%,85.09804%);fill-opacity:1;stroke-width:1.349923;stroke-linecap:round;stroke-linejoin:round;stroke:rgb(61.56863%,22.745098%,60.784316%);stroke-opacity:1;stroke-miterlimit:4;" d="M 51.99828 27.996791 L 39.996559 21.366683 L 39.996559 18.633316 L 51.99828 12.003208 L 51.99828 15.436859 L 43.609679 20.011294 L 51.99828 24.56314 Z M 51.99828 27.996791 " transform="matrix(0.278931,0,0,0.345842,-5.851607,5.083163)"/>
<path style="fill-rule:nonzero;fill:rgb(95.294118%,71.764708%,85.09804%);fill-opacity:1;stroke-width:1.349923;stroke-linecap:round;stroke-linejoin:round;stroke:rgb(61.56863%,22.745098%,60.784316%);stroke-opacity:1;stroke-miterlimit:4;" d="M 88.003441 21.366683 L 76.00172 27.996791 L 76.00172 24.56314 L 84.376316 19.999999 L 76.00172 15.436859 L 76.00172 12.003208 L 88.003441 18.633316 Z M 88.003441 21.366683 " transform="matrix(0.278931,0,0,0.345842,-5.851607,5.083163)"/>
<path style="fill-rule:nonzero;fill:rgb(95.294118%,71.764708%,85.09804%);fill-opacity:1;stroke-width:1.349923;stroke-linecap:round;stroke-linejoin:round;stroke:rgb(61.56863%,22.745098%,60.784316%);stroke-opacity:1;stroke-miterlimit:4;" d="M 71.996479 12.003208 L 60.456902 27.996791 L 56.003521 27.996791 L 67.51509 12.003208 Z M 71.996479 12.003208 " transform="matrix(0.278931,0,0,0.345842,-5.851607,5.083163)"/>
<path style="fill:none;stroke-width:1;stroke-linecap:round;stroke-linejoin:round;stroke:rgb(90.196079%,0.784314%,70.588237%);stroke-opacity:1;stroke-miterlimit:4;" d="M 2.8125 1.481771 L 12.846354 1.481771 C 13.401042 1.481771 13.846354 1.929688 13.846354 2.481771 L 13.846354 13.481771 C 13.846354 14.033854 13.401042 14.481771 12.846354 14.481771 L 2.8125 14.481771 C 2.260417 14.481771 1.8125 14.033854 1.8125 13.481771 L 1.8125 2.481771 C 1.8125 1.929688 2.260417 1.481771 2.8125 1.481771 Z M 2.8125 1.481771 " transform="matrix(1.5,0,0,1.5,0,0)"/>
</g>
</svg>
