<?xml version="1.0" encoding="UTF-8"?>
<svg xmlns="http://www.w3.org/2000/svg" xmlns:xlink="http://www.w3.org/1999/xlink" width="24px" height="24px" viewBox="0 0 24 24" version="1.1">
<g id="surface1">
<path style="fill-rule:nonzero;fill:rgb(94.117647%,94.117647%,94.117647%);fill-opacity:1;stroke-width:0.264583;stroke-linecap:round;stroke-linejoin:round;stroke:rgb(90.196079%,0.784314%,70.588237%);stroke-opacity:1;stroke-miterlimit:4;" d="M 2.033984 0.353467 L 1.913406 0.689708 L 1.913406 0.695909 L 1.985064 1.023193 C 1.991265 1.050754 1.976107 1.079004 1.949924 1.090028 L 1.557872 1.249192 C 1.532378 1.259527 1.502751 1.25057 1.487592 1.227832 L 1.293289 0.936377 L 0.981852 0.78686 L 0.830268 0.939133 L 0.979096 1.249881 L 0.988053 1.256082 L 1.270551 1.444184 C 1.293978 1.460032 1.302935 1.48897 1.2926 1.515153 L 1.132747 1.907205 C 1.121723 1.933388 1.094162 1.947857 1.066601 1.941656 L 0.738628 1.870687 L 0.733116 1.870687 L 0.396875 1.991265 L 0.396875 2.199349 L 0.733116 2.319927 L 0.738628 2.319927 L 1.066601 2.248958 C 1.094162 2.242757 1.121723 2.257227 1.132747 2.283409 L 1.2926 2.675461 C 1.302935 2.700955 1.293978 2.730583 1.270551 2.74643 L 0.988053 2.935222 L 0.979096 2.940734 L 0.830268 3.251481 L 0.981852 3.403755 L 1.293289 3.254237 L 1.298801 3.246658 L 1.487592 2.962782 C 1.502751 2.940045 1.532378 2.930398 1.557872 2.941423 L 1.949924 3.100586 C 1.976107 3.11161 1.991265 3.13986 1.985064 3.167421 L 1.913406 3.494705 L 1.913406 3.500217 L 2.033984 3.837148 L 2.242757 3.837148 L 2.363335 3.500217 L 2.363335 3.494705 L 2.291677 3.167421 C 2.286165 3.13986 2.300635 3.11161 2.326817 3.100586 L 2.718869 2.941423 C 2.744363 2.930398 2.773991 2.940045 2.789149 2.962782 L 2.983453 3.254237 L 3.294889 3.403755 L 3.447163 3.251481 L 3.297645 2.940734 L 3.00619 2.74643 C 2.982764 2.730583 2.973806 2.700955 2.984142 2.675461 L 3.143994 2.283409 C 3.154329 2.257227 3.182579 2.242757 3.21014 2.248958 L 3.538113 2.319927 L 3.543625 2.319927 L 3.879867 2.199349 L 3.879867 1.991265 L 3.543625 1.870687 L 3.538113 1.870687 L 3.21014 1.941656 C 3.182579 1.947857 3.154329 1.933388 3.143994 1.907205 L 2.984142 1.515153 C 2.973806 1.48897 2.982764 1.460032 3.00619 1.444184 L 3.288688 1.256082 L 3.297645 1.249881 L 3.447163 0.939133 L 3.294889 0.78686 L 2.983453 0.935688 L 2.97794 0.944645 L 2.789149 1.227832 C 2.773991 1.25057 2.744363 1.259527 2.718869 1.249192 L 2.326817 1.090028 C 2.300635 1.079004 2.286165 1.050754 2.291677 1.023193 L 2.363335 0.69522 L 2.363335 0.689708 L 2.242757 0.353467 Z M 2.138715 1.543403 C 2.441884 1.543403 2.68993 1.792139 2.68993 2.095307 C 2.68993 2.398476 2.441884 2.647212 2.138715 2.647212 C 1.834858 2.647212 1.586811 2.398476 1.586811 2.095307 C 1.586811 1.792139 1.834858 1.543403 2.138715 1.543403 Z M 2.138715 1.543403 " transform="matrix(5.669291,0,0,5.669291,0.00000135166,0)"/>
<path style="fill-rule:evenodd;fill:rgb(94.117647%,89.019608%,92.54902%);fill-opacity:1;stroke-width:1.595264;stroke-linecap:round;stroke-linejoin:round;stroke:rgb(90.196079%,0.784314%,70.588237%);stroke-opacity:1;stroke-miterlimit:4;" d="M 15.954906 8.511816 L 20.063367 8.511816 C 21.384388 8.511816 22.456161 9.583679 22.456161 10.904814 L 22.456161 20.107056 C 22.456161 21.42819 21.384388 22.500054 20.063367 22.500054 L 15.954906 22.500054 C 14.633884 22.500054 13.562112 21.42819 13.562112 20.107056 L 13.562112 10.904814 C 13.562112 9.583679 14.633884 8.511816 15.954906 8.511816 Z M 15.954906 8.511816 " transform="matrix(0.940323,0,0,0.940243,0.946449,0.559325)"/>
<path style="fill-rule:evenodd;fill:rgb(95.294118%,71.764708%,85.09804%);fill-opacity:1;stroke-width:1.595264;stroke-linecap:round;stroke-linejoin:round;stroke:rgb(90.196079%,0.784314%,70.588237%);stroke-opacity:1;stroke-miterlimit:4;" d="M 17.196999 11.498909 L 18.800503 11.498909 C 19.739343 11.498909 20.499553 12.17194 20.499553 12.998687 L 20.499553 19.001956 C 20.499553 19.828704 19.739343 20.501734 18.800503 20.501734 L 17.196999 20.501734 C 16.262314 20.501734 15.497949 19.828704 15.497949 19.001956 L 15.497949 12.998687 C 15.497949 12.17194 16.262314 11.498909 17.196999 11.498909 Z M 17.196999 11.498909 " transform="matrix(0.940323,0,0,0.940243,0.946449,0.559325)"/>
<path style="fill:none;stroke-width:1.595264;stroke-linecap:round;stroke-linejoin:round;stroke:rgb(61.56863%,22.745098%,60.784316%);stroke-opacity:1;stroke-miterlimit:4;" d="M 18.422475 14.186878 C 18.422475 14.411221 18.235538 14.598174 18.007059 14.598174 C 17.778581 14.598174 17.587489 14.415376 17.587489 14.191032 C 17.583335 13.966689 17.766118 13.779736 17.994597 13.775581 C 18.22723 13.771427 18.414167 13.95007 18.422475 14.178569 L 18.002905 14.186878 Z M 18.422475 14.186878 " transform="matrix(0.940323,0,0,0.940243,0.946449,0.559325)"/>
<path style="fill:none;stroke-width:1.595264;stroke-linecap:round;stroke-linejoin:round;stroke:rgb(90.196079%,0.784314%,70.588237%);stroke-opacity:1;stroke-miterlimit:4;" d="M 17.948901 16.687893 L 17.948901 18.54496 " transform="matrix(0.940323,0,0,0.940243,0.946449,0.559325)"/>
</g>
</svg>
