<?xml version="1.0" encoding="UTF-8"?>
<svg xmlns="http://www.w3.org/2000/svg" xmlns:xlink="http://www.w3.org/1999/xlink" width="24px" height="24px" viewBox="0 0 24 24" version="1.1">
<g id="surface1">
<path style="fill-rule:nonzero;fill:rgb(95.294118%,71.764708%,85.09804%);fill-opacity:1;stroke-width:0.997291;stroke-linecap:butt;stroke-linejoin:round;stroke:rgb(90.196079%,0.784314%,70.588237%);stroke-opacity:1;stroke-miterlimit:4;" d="M 1.662538 5.651573 L 8.241603 0.614431 L 14.823247 5.583574 L 8.308657 10.14734 Z M 1.662538 5.651573 " transform="matrix(1.514629,0,0,1.493592,-0.00250327,1.523697)"/>
<path style="fill:none;stroke-width:1;stroke-linecap:round;stroke-linejoin:miter;stroke:rgb(90.196079%,0.784314%,70.588237%);stroke-opacity:1;stroke-miterlimit:4;" d="M 6.14524 8.236807 L 10.491595 8.236807 " transform="matrix(1.5,0,0,1.5,0.176671,0.304946)"/>
<path style="fill-rule:nonzero;fill:rgb(94.117647%,89.019608%,92.54902%);fill-opacity:1;stroke-width:1;stroke-linecap:round;stroke-linejoin:round;stroke:rgb(90.196079%,0.784314%,70.588237%);stroke-opacity:1;stroke-miterlimit:4;" d="M 5.525449 3.721182 L 10.88222 3.721182 C 11.434303 3.721182 11.88222 4.169099 11.88222 4.721182 L 11.88222 11.413891 C 11.88222 11.965974 11.434303 12.413891 10.88222 12.413891 L 5.525449 12.413891 C 4.973365 12.413891 4.525449 11.965974 4.525449 11.413891 L 4.525449 4.721182 C 4.525449 4.169099 4.973365 3.721182 5.525449 3.721182 Z M 5.525449 3.721182 " transform="matrix(1.5,0,0,1.5,0.176671,0.304946)"/>
<path style="fill-rule:nonzero;fill:rgb(61.56863%,22.745098%,60.784316%);fill-opacity:1;stroke-width:0.25;stroke-linecap:butt;stroke-linejoin:miter;stroke:rgb(61.56863%,22.745098%,60.784316%);stroke-opacity:1;stroke-miterlimit:4;" d="M 9.121803 5.05712 C 9.142636 4.833161 9.306699 4.671703 9.509824 4.671703 C 9.642636 4.671703 9.767636 4.742016 9.837949 4.856599 C 9.905657 4.739411 10.025449 4.671703 10.158261 4.671703 C 10.361386 4.671703 10.522845 4.833161 10.543678 5.05712 C 10.546282 5.067536 10.551491 5.11962 10.530657 5.205557 C 10.502011 5.327953 10.434303 5.439932 10.335345 5.528474 L 9.837949 5.971182 L 9.33274 5.528474 C 9.233782 5.439932 9.16347 5.327953 9.134824 5.205557 C 9.11399 5.11962 9.121803 5.067536 9.121803 5.059724 Z M 9.189511 5.192536 C 9.215553 5.304516 9.278053 5.408682 9.369199 5.489411 L 9.837949 5.898266 L 10.298886 5.489411 C 10.390032 5.408682 10.452532 5.304516 10.478574 5.192536 C 10.496803 5.111807 10.48899 5.067536 10.48899 5.067536 L 10.48899 5.064932 C 10.470761 4.867016 10.33274 4.723786 10.158261 4.723786 C 10.030657 4.723786 9.916074 4.801911 9.86399 4.926911 L 9.837949 4.984203 L 9.811907 4.926911 C 9.759824 4.804516 9.640032 4.723786 9.509824 4.723786 C 9.335345 4.723786 9.19472 4.867016 9.17649 5.067536 C 9.17649 5.067536 9.168678 5.111807 9.189511 5.192536 Z M 9.189511 5.192536 " transform="matrix(1.5,0,0,1.5,0.176671,0.304946)"/>
<path style="fill:none;stroke-width:1;stroke-linecap:round;stroke-linejoin:miter;stroke:rgb(61.56863%,22.745098%,60.784316%);stroke-opacity:1;stroke-miterlimit:4;" d="M 5.991595 6.736807 L 10.340553 6.736807 " transform="matrix(1.5,0,0,1.5,0.176671,0.304946)"/>
<path style="fill:none;stroke-width:1;stroke-linecap:round;stroke-linejoin:miter;stroke:rgb(61.56863%,22.745098%,60.784316%);stroke-opacity:1;stroke-miterlimit:4;" d="M 5.991595 8.465974 L 10.340553 8.465974 " transform="matrix(1.5,0,0,1.5,0.176671,0.304946)"/>
<path style="fill:none;stroke-width:1;stroke-linecap:round;stroke-linejoin:miter;stroke:rgb(90.196079%,0.784314%,70.588237%);stroke-opacity:1;stroke-miterlimit:4;" d="M 5.991595 10.736807 L 10.340553 10.736807 " transform="matrix(1.5,0,0,1.5,0.176671,0.304946)"/>
<path style="fill-rule:nonzero;fill:rgb(94.117647%,89.019608%,92.54902%);fill-opacity:1;stroke-width:0.997291;stroke-linecap:round;stroke-linejoin:round;stroke:rgb(90.196079%,0.784314%,70.588237%);stroke-opacity:1;stroke-miterlimit:4;" d="M 1.595483 5.651573 L 14.890302 14.093886 L 1.595483 14.093886 Z M 1.595483 5.651573 " transform="matrix(1.514629,0,0,1.493592,-0.00250327,1.523697)"/>
<path style="fill-rule:nonzero;fill:rgb(94.117647%,89.019608%,92.54902%);fill-opacity:1;stroke-width:0.997291;stroke-linecap:round;stroke-linejoin:round;stroke:rgb(90.196079%,0.784314%,70.588237%);stroke-opacity:1;stroke-miterlimit:4;" d="M 14.890302 5.651573 L 1.595483 14.093886 L 14.890302 14.093886 Z M 14.890302 5.651573 " transform="matrix(1.514629,0,0,1.493592,-0.00250327,1.523697)"/>
<path style="fill:none;stroke-width:0.997291;stroke-linecap:butt;stroke-linejoin:miter;stroke:rgb(90.196079%,0.784314%,70.588237%);stroke-opacity:1;stroke-miterlimit:4;" d="M 8.04044 9.83873 L 14.890302 14.093886 " transform="matrix(1.514629,0,0,1.493592,-0.00250327,1.523697)"/>
</g>
</svg>
