<?xml version="1.0" encoding="UTF-8" standalone="no"?>
<svg
   xmlns:dc="http://purl.org/dc/elements/1.1/"
   xmlns:cc="http://creativecommons.org/ns#"
   xmlns:rdf="http://www.w3.org/1999/02/22-rdf-syntax-ns#"
   xmlns:svg="http://www.w3.org/2000/svg"
   xmlns="http://www.w3.org/2000/svg"
   xmlns:xlink="http://www.w3.org/1999/xlink"
   xmlns:sodipodi="http://sodipodi.sourceforge.net/DTD/sodipodi-0.dtd"
   xmlns:inkscape="http://www.inkscape.org/namespaces/inkscape"
   height="24"
   viewBox="0 0 24.000002 24.000002"
   width="24"
   version="1.1"
   id="svg137"
   sodipodi:docname="lc_mediamute.svg"
   inkscape:version="0.92.4 (unknown)"
   inkscape:export-filename="/home/annisaauliarasyidah/Desktop/4_242 (aulia)/lc 222/lc_mediamute.png"
   inkscape:export-xdpi="96"
   inkscape:export-ydpi="96">
  <metadata
     id="metadata143">
    <rdf:RDF>
      <cc:Work
         rdf:about="">
        <dc:format>image/svg+xml</dc:format>
        <dc:type
           rdf:resource="http://purl.org/dc/dcmitype/StillImage" />
        <dc:title></dc:title>
      </cc:Work>
    </rdf:RDF>
  </metadata>
  <defs
     id="defs141" />
  <sodipodi:namedview
     pagecolor="#ffffff"
     bordercolor="#666666"
     borderopacity="1"
     objecttolerance="10"
     gridtolerance="10"
     guidetolerance="10"
     inkscape:pageopacity="0"
     inkscape:pageshadow="2"
     inkscape:window-width="1366"
     inkscape:window-height="707"
     id="namedview139"
     showgrid="true"
     inkscape:zoom="11.36688"
     inkscape:cx="10.515021"
     inkscape:cy="8"
     inkscape:window-x="0"
     inkscape:window-y="0"
     inkscape:window-maximized="1"
     inkscape:current-layer="g900"
     inkscape:snap-global="false">
    <inkscape:grid
       type="xygrid"
       id="grid966" />
  </sodipodi:namedview>
  <linearGradient
     id="a"
     gradientUnits="userSpaceOnUse"
     x1="5.528801"
     x2="5.528801"
     y1="4.2754059"
     y2="16.027246"
     gradientTransform="translate(0,-2.507952)">
    <stop
       offset="0"
       stop-color="#c2c2c2"
       id="stop2" />
    <stop
       offset=".27777779"
       stop-color="#fff"
       stop-opacity=".992157"
       id="stop4" />
    <stop
       offset=".5"
       stop-color="#797979"
       stop-opacity=".988235"
       id="stop6" />
    <stop
       offset=".77777779"
       stop-color="#fff"
       stop-opacity=".984314"
       id="stop8" />
    <stop
       offset="1"
       stop-color="#797979"
       stop-opacity=".984496"
       id="stop10" />
  </linearGradient>
  <linearGradient
     id="b"
     gradientTransform="matrix(0.6749772,0,0,0.65288008,-0.80005,5.735661)"
     gradientUnits="userSpaceOnUse"
     x1="15"
     x2="15"
     y1="27"
     y2="5">
    <stop
       offset="0"
       stop-color="#bbb"
       id="stop13" />
    <stop
       offset=".1"
       stop-color="#fff"
       id="stop15" />
    <stop
       offset=".25"
       stop-color="#eee"
       id="stop17" />
    <stop
       offset=".5"
       stop-color="#888"
       id="stop19" />
    <stop
       offset=".73369998"
       stop-color="#eee"
       id="stop21" />
    <stop
       offset="1"
       stop-color="#bbb"
       id="stop23" />
  </linearGradient>
  <linearGradient
     id="c"
     gradientTransform="matrix(0.9180451,0,0,0.65288008,-5.688722,-2.272521)"
     gradientUnits="userSpaceOnUse"
     x1="15"
     x2="15"
     y1="5"
     y2="26">
    <stop
       offset="0"
       stop-color="#f8f8f8"
       id="stop26" />
    <stop
       offset="1"
       stop-color="#f8f8f8"
       stop-opacity="0"
       id="stop28" />
  </linearGradient>
  <linearGradient
     id="d"
     gradientUnits="userSpaceOnUse"
     x1="2.6115201"
     x2="2.6115201"
     y1="6.2477622"
     y2="14.082323"
     gradientTransform="translate(0,-2.507952)">
    <stop
       offset="0"
       stop-color="#fff"
       id="stop31" />
    <stop
       offset=".5"
       stop-color="#ff7e00"
       id="stop33" />
    <stop
       offset=".75"
       stop-color="#f4c08d"
       id="stop35" />
    <stop
       offset="1"
       stop-color="#fee4ca"
       id="stop37" />
  </linearGradient>
  <linearGradient
     id="e"
     gradientUnits="userSpaceOnUse"
     x1="0.65288001"
     x2="0.65288001"
     y1="7.5535221"
     y2="12.776563"
     gradientTransform="translate(0,-2.507952)">
    <stop
       offset="0"
       stop-color="#292929"
       id="stop40" />
    <stop
       offset=".25"
       stop-color="#797979"
       stop-opacity=".960784"
       id="stop42" />
    <stop
       offset=".5"
       stop-color="#292929"
       stop-opacity=".964706"
       id="stop44" />
    <stop
       offset=".75"
       stop-color="#797979"
       stop-opacity=".960784"
       id="stop46" />
    <stop
       offset="1"
       stop-color="#292929"
       stop-opacity=".930233"
       id="stop48" />
  </linearGradient>
  <linearGradient
     id="f"
     gradientUnits="userSpaceOnUse"
     x1="5.5"
     x2="6.5"
     y1="5.4862838"
     y2="6.4862838"
     gradientTransform="translate(0,-2.507952)">
    <stop
       offset=".2308"
       stop-color="#fff"
       id="stop51" />
    <stop
       offset="1"
       stop-color="#fff"
       stop-opacity="0"
       id="stop53" />
  </linearGradient>
  <linearGradient
     id="g"
     gradientUnits="userSpaceOnUse"
     x1="-197.22246"
     x2="-135.842"
     y1="93.331604"
     y2="93.331604">
    <stop
       offset="0"
       stop-color="#8c0000"
       id="stop56" />
    <stop
       offset="1"
       stop-color="#470000"
       id="stop58" />
  </linearGradient>
  <linearGradient
     id="h"
     gradientUnits="userSpaceOnUse"
     x1="-44.14822"
     x2="-45.430519"
     xlink:href="#g"
     y1="-5.289804"
     y2="2.99581"
     gradientTransform="translate(0,5.492048)" />
  <radialGradient
     id="i"
     cx="19.188065"
     cy="13.46067"
     gradientUnits="userSpaceOnUse"
     r="7.0710678"
     gradientTransform="matrix(0.58565781,-0.05977528,0.05977528,0.58565781,0.22887156,10.986324)">
    <stop
       offset="0"
       stop-color="#ff1212"
       id="stop62" />
    <stop
       offset="1"
       stop-color="#750000"
       id="stop64" />
  </radialGradient>
  <linearGradient
     id="j"
     gradientUnits="userSpaceOnUse"
     x1="16.696894"
     x2="17.271128"
     y1="5.2576752"
     y2="12.148466"
     gradientTransform="translate(-5.0000002,5.0000004)">
    <stop
       offset="0"
       stop-color="#ffb5b5"
       id="stop67" />
    <stop
       offset="1"
       stop-color="#ffbfbf"
       stop-opacity="0"
       id="stop69" />
  </linearGradient>
  <filter
     id="k"
     height="1.048"
     width="1.048"
     x="-0.024"
     y="-0.024"
     style="color-interpolation-filters:sRGB">
    <feGaussianBlur
       stdDeviation=".08"
       id="feGaussianBlur72" />
  </filter>
  <linearGradient
     id="l"
     gradientTransform="matrix(0.58565781,-0.05977528,0.05977528,0.58565781,0.2288718,2.9863234)"
     gradientUnits="userSpaceOnUse"
     x1="17.970076"
     x2="18.57435"
     y1="15.787584"
     y2="5.0638518">
    <stop
       offset="0"
       stop-color="#cc3900"
       id="stop75" />
    <stop
       offset="1"
       stop-color="#fff"
       stop-opacity="0"
       id="stop77" />
  </linearGradient>
  <filter
     id="m"
     height="1.024"
     width="1.024"
     x="-0.012"
     y="-0.012"
     style="color-interpolation-filters:sRGB">
    <feGaussianBlur
       stdDeviation=".05852164"
       id="feGaussianBlur80" />
  </filter>
  <linearGradient
     id="n"
     gradientTransform="matrix(0.6749772,0,0,0.65288008,-0.80005,-2.264339)"
     gradientUnits="userSpaceOnUse"
     x1="15"
     x2="15"
     y1="27"
     y2="5">
    <stop
       offset="0"
       stop-color="#555"
       id="stop83" />
    <stop
       offset=".5"
       stop-color="#888"
       id="stop85" />
    <stop
       offset="1"
       stop-color="#555"
       id="stop87" />
  </linearGradient>
  <linearGradient
     id="o"
     gradientUnits="userSpaceOnUse"
     x1="2"
     x2="2"
     y1="14.75514"
     y2="6.070312"
     gradientTransform="translate(0,-2.507952)">
    <stop
       offset="0"
       stop-color="#555"
       id="stop90" />
    <stop
       offset="1"
       stop-color="#bc5d00"
       id="stop92" />
  </linearGradient>
  <linearGradient
     id="p"
     gradientUnits="userSpaceOnUse"
     x1="7"
     x2="4.5"
     y1="10.986284"
     y2="10.986284"
     gradientTransform="translate(0,-2.507952)">
    <stop
       offset="0"
       stop-color="#555"
       id="stop95" />
    <stop
       offset="1"
       stop-color="#323232"
       id="stop97" />
  </linearGradient>
  <linearGradient
     id="q"
     gradientUnits="userSpaceOnUse"
     x1="19.828781"
     x2="18.598301"
     xlink:href="#g"
     y1="2.7265601"
     y2="19.18367"
     gradientTransform="matrix(0.58565781,-0.05977528,0.05977528,0.58565781,0.22887156,2.986324)" />
  <g
     id="g918"
     transform="matrix(1.5,0,0,1.5,0,-12.002313)"
     style="stroke-width:0.66666669">
    <g
       id="g900"
       style="stroke-width:0.66666669">
      <path
         inkscape:connector-curvature="0"
         style="fill:#9d3a9b;fill-opacity:1;stroke-width:0.66666669"
         id="path101"
         d="m 0,14 h 2 v 4 H 0 Z" />
      <path
         inkscape:connector-curvature="0"
         style="fill:#e602b4;fill-opacity:1;stroke-width:0.66666669"
         id="path103"
         d="m 2.0000001,11.986284 c -0.5522619,5.5e-5 -0.9999448,0.447738 -1,1 L 1,19 c 5.52e-5,0.552262 0.4477381,0.999945 1,1 h 2 l 1e-7,-8.013716 z" />
      <path
         inkscape:connector-curvature="0"
         style="fill:#f0e3ec;fill-opacity:1;stroke-width:0.66666669"
         id="path105"
         d="m 2,13 h 1 v 6 H 2 Z" />
      <path
         inkscape:connector-curvature="0"
         style="fill:#e602b4;stroke-width:0.66666669"
         id="path107"
         d="m 6.9707031,8.0019531 c -0.254754,0.00704 -0.497193,0.1111438 -0.677734,0.2910157 L 3.2929687,11.806685 c -0.1876043,0.187466 -0.292998,0.441816 -0.2929688,0.707031 L 3,19.5 c -2.91e-5,0.265215 0.1053646,0.519565 0.2929688,0.707031 l 3.0000003,3.5 C 6.5028171,23.917474 6.7486482,24.029361 7,24 H 8 V 23 9 8 Z" />
      <path
         inkscape:connector-curvature="0"
         style="fill:#f3b7d9;fill-opacity:1;stroke-width:0.66666669"
         id="path109"
         d="m 7,9 v 14 l -3,-3.5 -10e-8,-6.986284 z" />
      <path
         inkscape:connector-curvature="0"
         style="fill:#e602b4;stroke-width:0.66666669"
         id="path111"
         d="M 7.999723,8.0002774 C 7.447664,8.0004518 7.000175,8.4479406 7,9 l 8.32e-4,14.000277 C 7.001006,23.552337 7.448495,23.999826 8.000555,24 l 1.000277,-2.77e-4 C 9.552892,23.999549 10.000381,23.55206 10.000555,23 L 9.999723,8.9997226 C 9.999548,8.4476632 9.552059,8.0001744 9,8 Z" />
      <path
         inkscape:connector-curvature="0"
         style="fill:url(#b);stroke-width:0.66666669"
         id="path113"
         d="M 7.999584,9.000061 H 9 V 23 H 7.999584 Z" />
      <path
         inkscape:connector-curvature="0"
         style="fill:#f0e3ec;fill-opacity:1;stroke-width:0.66666669"
         id="path115"
         d="M 8,9 H 9.000416 V 22.999939 H 8 Z" />
      <circle
         style="fill:url(#h);stroke-width:0.10104734"
         id="circle119"
         transform="scale(-1,1)"
         r="0"
         cy="4.1500778"
         cx="-44.151012" />
      <path
         inkscape:connector-curvature="0"
         style="fill:#9d3a9b;fill-opacity:1;stroke-width:0.39246693"
         id="path123"
         d="m 16,17.661264 -2.350947,2.35316 -3.326306,0.0016 -2.3531603,-2.350947 -0.00157,-3.326305 2.3509473,-2.353161 3.326305,-0.0016 2.353161,2.350946 z" />
      <path
         inkscape:connector-curvature="0"
         style="fill:url(#i);stroke-width:0.39246693"
         id="path125"
         d="m 10.74191,13.002706 -1.7566088,1.756926 0.00141,2.482469 1.7569268,1.756609 2.482469,-0.0014 1.756609,-1.756927 -0.0014,-2.482469 -1.756927,-1.756608 z" />
      <path
         inkscape:connector-curvature="0"
         style="fill:url(#j);stroke-width:0.66666669"
         id="path127"
         d="m 10.742188,13.001953 -1.7578132,1.757813 0.002,1.550781 c 1.4986372,0.115567 3.9398672,-0.06053 5.9941412,-0.339844 v -1.21289 l -1.75586,-1.75586 z" />
      <path
         style="opacity:0.85;fill:#6a0303;fill-rule:evenodd;stroke-width:0.66666669;filter:url(#k)"
         inkscape:connector-curvature="0"
         id="path129"
         d="m 21.830078,11.6875 a 0.31326899,0.31326899 0 0 0 -0.216797,0.0918 l -1.333984,1.333984 a 0.31326899,0.31326899 0 0 0 0,0.441407 L 22.722656,16 20.279297,18.445312 a 0.31326899,0.31326899 0 0 0 0,0.441407 l 1.333984,1.333984 a 0.31326899,0.31326899 0 0 0 0.441407,0 L 24.5,17.775391 l 2.445312,2.445312 a 0.31326899,0.31326899 0 0 0 0.441407,0 l 1.333984,-1.333984 a 0.31326899,0.31326899 0 0 0 0,-0.441407 L 26.277344,16 28.720703,13.554688 a 0.31326899,0.31326899 0 0 0 0,-0.441407 l -1.333984,-1.333984 a 0.31326899,0.31326899 0 0 0 -0.441407,0 L 24.5,14.224609 22.054688,11.779297 a 0.31326899,0.31326899 0 0 0 -0.22461,-0.0918 z"
         transform="matrix(0.57423259,0,0,0.57423259,-2.084688,6.812279)" />
      <path
         inkscape:connector-curvature="0"
         style="fill:#cc3900;fill-opacity:1;stroke:#cc3900;stroke-width:0.19141068;stroke-opacity:1"
         id="path133"
         d="m 10.686149,12.785509 -1.9021831,1.920009 0.00217,2.711481 1.9021821,1.917875 h 2.686303 l 1.900069,-1.92001 -0.0022,-2.711479 -1.90007,-1.917876 z" />
      <path
         style="fill:#ffffff;fill-rule:evenodd;stroke-width:0.38282171"
         inkscape:connector-curvature="0"
         id="path131"
         d="M 10.452723,13.70307 9.6870801,14.468713 11.218367,16 9.6870801,17.531287 10.452723,18.296931 11.98401,16.765644 13.515298,18.296931 14.280941,17.531287 12.749654,16 14.280941,14.468713 13.515298,13.70307 11.98401,15.234357 Z" />
    </g>
  </g>
</svg>
