<?xml version="1.0" encoding="UTF-8"?>
<svg xmlns="http://www.w3.org/2000/svg" xmlns:xlink="http://www.w3.org/1999/xlink" width="24px" height="24px" viewBox="0 0 24 24" version="1.1">
<g id="surface1">
<path style=" stroke:none;fill-rule:nonzero;fill:rgb(33.333334%,34.117648%,32.549021%);fill-opacity:1;" d="M 12 1.5 C 6.199219 1.5 1.5 6.199219 1.5 12 C 1.5 17.214844 5.335938 21.636719 10.5 22.382812 L 10.5 19.351562 C 7.007812 18.636719 4.5 15.601562 4.5 12 C 4.5 7.800781 7.800781 4.5 12 4.5 C 15 4.5 17.699219 6.300781 18.898438 9.148438 C 20.25 9.300781 21.601562 10.050781 22.5 10.949219 C 22.050781 5.628906 17.398438 1.5 12 1.5 Z M 9 6 L 9 18 L 12 15.601562 L 12 15 C 12 13.050781 12.898438 11.398438 14.398438 10.273438 Z M 18 10.5 C 15.515625 10.5 13.5 12.449219 13.5 15 L 13.5 18 L 12 18 L 12 24 L 24 24 L 24 18 L 22.5 18 L 22.5 15 C 22.5 12.515625 20.484375 10.5 18 10.5 Z M 18 13.5 C 18.828125 13.5 19.5 14.160156 19.5 15 L 19.5 18 L 16.5 18 L 16.5 15 C 16.5 14.175781 17.175781 13.5 18 13.5 Z M 18 13.5 "/>
</g>
</svg>
