<?xml version="1.0" encoding="UTF-8"?>
<svg xmlns="http://www.w3.org/2000/svg" xmlns:xlink="http://www.w3.org/1999/xlink" width="24px" height="24px" viewBox="0 0 24 24" version="1.1">
<g id="surface1">
<path style="fill-rule:nonzero;fill:rgb(95.294118%,71.764708%,85.09804%);fill-opacity:1;stroke-width:0.248198;stroke-linecap:butt;stroke-linejoin:bevel;stroke:rgb(90.196079%,0.784314%,70.588237%);stroke-opacity:1;stroke-miterlimit:4;" d="M 0.507812 8.994792 L 15.567708 8.994792 C 15.763021 8.994792 15.919271 9.151042 15.919271 9.341146 L 15.919271 13.651042 C 15.919271 13.84375 15.763021 13.997396 15.567708 13.997396 L 0.507812 13.997396 C 0.3125 13.997396 0.15625 13.84375 0.15625 13.651042 L 0.15625 9.341146 C 0.15625 9.151042 0.3125 8.994792 0.507812 8.994792 Z M 0.507812 8.994792 " transform="matrix(1.5,0,0,1.5,0,0)"/>
<path style=" stroke:none;fill-rule:nonzero;fill:rgb(61.56863%,22.745098%,60.784316%);fill-opacity:0.828571;" d="M 1.46875 13.652344 L 2.96875 13.652344 L 2.96875 18.152344 L 1.46875 18.152344 Z M 1.46875 13.652344 "/>
<path style=" stroke:none;fill-rule:nonzero;fill:rgb(61.56863%,22.745098%,60.784316%);fill-opacity:0.828571;" d="M 4.519531 13.652344 L 6.019531 13.652344 L 6.019531 15.902344 L 4.519531 15.902344 Z M 4.519531 13.652344 "/>
<path style=" stroke:none;fill-rule:nonzero;fill:rgb(61.56863%,22.745098%,60.784316%);fill-opacity:0.828571;" d="M 7.519531 13.652344 L 9.019531 13.652344 L 9.019531 18.152344 L 7.519531 18.152344 Z M 7.519531 13.652344 "/>
<path style=" stroke:none;fill-rule:nonzero;fill:rgb(61.56863%,22.745098%,60.784316%);fill-opacity:0.828571;" d="M 10.519531 13.652344 L 12.019531 13.652344 L 12.019531 15.902344 L 10.519531 15.902344 Z M 10.519531 13.652344 "/>
<path style=" stroke:none;fill-rule:nonzero;fill:rgb(61.56863%,22.745098%,60.784316%);fill-opacity:0.828571;" d="M 13.519531 13.652344 L 15.019531 13.652344 L 15.019531 18.152344 L 13.519531 18.152344 Z M 13.519531 13.652344 "/>
<path style=" stroke:none;fill-rule:nonzero;fill:rgb(61.56863%,22.745098%,60.784316%);fill-opacity:0.828571;" d="M 16.519531 13.652344 L 18.019531 13.652344 L 18.019531 15.902344 L 16.519531 15.902344 Z M 16.519531 13.652344 "/>
<path style=" stroke:none;fill-rule:nonzero;fill:rgb(61.56863%,22.745098%,60.784316%);fill-opacity:0.828571;" d="M 19.519531 13.652344 L 21.019531 13.652344 L 21.019531 18.152344 L 19.519531 18.152344 Z M 19.519531 13.652344 "/>
<path style="fill-rule:nonzero;fill:rgb(95.294118%,71.764708%,85.09804%);fill-opacity:1;stroke-width:0.256645;stroke-linecap:round;stroke-linejoin:round;stroke:rgb(90.196079%,0.784314%,70.588237%);stroke-opacity:1;stroke-miterlimit:4;" d="M 15.895833 2.106771 L 15.882812 6.888021 L 15.132812 6.875 L 15.122396 4.90625 L 12.338542 6.888021 L 11.830729 6.414062 L 12.979167 4.893229 L 9.132812 4.927083 L 9.098958 4.151042 L 12.911458 4.151042 L 11.830729 2.627604 L 12.338542 2.15625 L 15.132812 4.020833 L 15.143229 2.109375 Z M 15.895833 2.106771 " transform="matrix(1.5,0,0,1.5,0,0)"/>
<path style="fill-rule:nonzero;fill:rgb(95.294118%,71.764708%,85.09804%);fill-opacity:1;stroke-width:0.256645;stroke-linecap:round;stroke-linejoin:round;stroke:rgb(90.196079%,0.784314%,70.588237%);stroke-opacity:1;stroke-miterlimit:4;" d="M 0.114583 2.140625 L 0.127604 6.921875 L 0.877604 6.908854 L 0.888021 4.940104 L 3.674479 6.921875 L 4.179688 6.447917 L 3.03125 4.927083 L 6.877604 4.960938 L 6.877604 4.117188 L 3.098958 4.184896 L 4.179688 2.661458 L 3.674479 2.190104 L 0.877604 4.054688 L 0.867188 2.143229 Z M 0.114583 2.140625 " transform="matrix(1.5,0,0,1.5,0,0)"/>
</g>
</svg>
