<?xml version="1.0" encoding="UTF-8"?>
<svg xmlns="http://www.w3.org/2000/svg" xmlns:xlink="http://www.w3.org/1999/xlink" width="24px" height="24px" viewBox="0 0 24 24" version="1.1">
<defs>
<clipPath id="clip1">
  <path d="M 2 8 L 22 8 L 22 19 L 2 19 Z M 2 8 "/>
</clipPath>
<clipPath id="clip2">
  <path d="M 4.769531 19.144531 L 4.769531 13.929688 L 18.824219 13.929688 L 18.824219 19.144531 L 23.234375 19.230469 L 23.234375 7.269531 L 0.359375 7.269531 L 0.359375 19.230469 Z M 4.769531 19.144531 "/>
</clipPath>
<clipPath id="clip3">
  <path d="M 0 7 L 24 7 L 24 20 L 0 20 Z M 0 7 "/>
</clipPath>
<clipPath id="clip4">
  <path d="M 4.769531 19.144531 L 4.769531 13.929688 L 18.824219 13.929688 L 18.824219 19.144531 L 23.234375 19.230469 L 23.234375 7.269531 L 0.359375 7.269531 L 0.359375 19.230469 Z M 4.769531 19.144531 "/>
</clipPath>
<clipPath id="clip5">
  <path d="M 4 12 L 19 12 L 19 22 L 4 22 Z M 4 12 "/>
</clipPath>
<clipPath id="clip6">
  <path d="M 4.402344 12.679688 L 19.214844 12.679688 L 19.214844 22.285156 L 4.402344 22.886719 Z M 4.402344 12.679688 "/>
</clipPath>
<clipPath id="clip7">
  <path d="M 4 12 L 20 12 L 20 23 L 4 23 Z M 4 12 "/>
</clipPath>
<clipPath id="clip8">
  <path d="M 4.402344 12.679688 L 19.214844 12.679688 L 19.214844 22.285156 L 4.402344 22.886719 Z M 4.402344 12.679688 "/>
</clipPath>
<clipPath id="clip9">
  <path d="M 5 2 L 19 2 L 19 8 L 5 8 Z M 5 2 "/>
</clipPath>
<clipPath id="clip10">
  <path d="M 4.074219 7.832031 L 19.5 7.832031 L 19.5 0.855469 C 19.5 0.855469 5.039062 -0.539062 4.074219 0.855469 C 3.109375 2.25 3.109375 2.25 3.109375 2.25 Z M 4.074219 7.832031 "/>
</clipPath>
<clipPath id="clip11">
  <path d="M 3 0 L 20 0 L 20 8 L 3 8 Z M 3 0 "/>
</clipPath>
<clipPath id="clip12">
  <path d="M 4.074219 7.832031 L 19.5 7.832031 L 19.5 0.855469 C 19.5 0.855469 5.039062 -0.539062 4.074219 0.855469 C 3.109375 2.25 3.109375 2.25 3.109375 2.25 Z M 4.074219 7.832031 "/>
</clipPath>
</defs>
<g id="surface1">
<path style="fill-rule:nonzero;fill:rgb(11.372549%,11.372549%,11.372549%);fill-opacity:1;stroke-width:0.659241;stroke-linecap:butt;stroke-linejoin:miter;stroke:rgb(90.196079%,0.784314%,70.588237%);stroke-opacity:1;stroke-miterlimit:4;" d="M 2.462149 -19.3735 L 8.349097 -19.3735 C 8.804309 -19.3735 9.173955 -19.022163 9.173955 -18.591602 C 9.173955 -18.159319 8.804309 -17.807982 8.349097 -17.807982 L 2.462149 -17.807982 C 2.006937 -17.807982 1.637291 -18.159319 1.637291 -18.591602 C 1.637291 -19.022163 2.006937 -19.3735 2.462149 -19.3735 Z M 2.462149 -19.3735 " transform="matrix(2.282592,0,0,-2.268118,-0.553674,-31.613259)"/>
<g clip-path="url(#clip1)" clip-rule="nonzero">
<g clip-path="url(#clip2)" clip-rule="nonzero">
<path style=" stroke:none;fill-rule:nonzero;fill:rgb(95.294118%,71.764708%,85.09804%);fill-opacity:1;" d="M 4.09375 8.226562 L 19.5 8.226562 C 20.507812 8.226562 21.328125 9.242188 21.328125 10.5 L 21.328125 16.449219 C 21.328125 17.707031 20.507812 18.722656 19.5 18.722656 L 4.09375 18.722656 C 3.082031 18.722656 2.265625 17.707031 2.265625 16.449219 L 2.265625 10.5 C 2.265625 9.242188 3.082031 8.226562 4.09375 8.226562 Z M 4.09375 8.226562 "/>
</g>
</g>
<g clip-path="url(#clip3)" clip-rule="nonzero">
<g clip-path="url(#clip4)" clip-rule="nonzero">
<path style="fill:none;stroke-width:0.486662;stroke-linecap:butt;stroke-linejoin:miter;stroke:rgb(90.196079%,0.784314%,70.588237%);stroke-opacity:1;stroke-miterlimit:4;" d="M 0.702935 -0.225993 L 5.693744 -0.225993 C 6.020222 -0.225993 6.28596 0.104021 6.28596 0.512731 L 6.28596 2.44585 C 6.28596 2.854559 6.020222 3.184573 5.693744 3.184573 L 0.702935 3.184573 C 0.375192 3.184573 0.11072 2.854559 0.11072 2.44585 L 0.11072 0.512731 C 0.11072 0.104021 0.375192 -0.225993 0.702935 -0.225993 Z M 0.702935 -0.225993 " transform="matrix(3.086924,0,0,3.077523,1.923842,8.92206)"/>
</g>
</g>
<g clip-path="url(#clip5)" clip-rule="nonzero">
<g clip-path="url(#clip6)" clip-rule="nonzero">
<path style=" stroke:none;fill-rule:nonzero;fill:rgb(94.117647%,89.019608%,92.54902%);fill-opacity:0.996078;" d="M 6.191406 10.980469 L 17.414062 10.980469 C 18.082031 10.980469 18.625 11.5625 18.625 12.28125 L 18.625 20.4375 C 18.625 21.15625 18.082031 21.738281 17.414062 21.738281 L 6.191406 21.738281 C 5.523438 21.738281 4.980469 21.15625 4.980469 20.4375 L 4.980469 12.28125 C 4.980469 11.5625 5.523438 10.980469 6.191406 10.980469 Z M 6.191406 10.980469 "/>
</g>
</g>
<g clip-path="url(#clip7)" clip-rule="nonzero">
<g clip-path="url(#clip8)" clip-rule="nonzero">
<path style="fill:none;stroke-width:0.432114;stroke-linecap:butt;stroke-linejoin:miter;stroke:rgb(90.196079%,0.784314%,70.588237%);stroke-opacity:1;stroke-miterlimit:4;" d="M 1.393577 1.054467 L 4.946986 1.054467 C 5.158484 1.054467 5.330403 1.207016 5.330403 1.395399 L 5.330403 3.533136 C 5.330403 3.721519 5.158484 3.874068 4.946986 3.874068 L 1.393577 3.874068 C 1.182079 3.874068 1.01016 3.721519 1.01016 3.533136 L 1.01016 1.395399 C 1.01016 1.207016 1.182079 1.054467 1.393577 1.054467 Z M 1.393577 1.054467 " transform="matrix(3.158279,0,0,3.815367,1.790101,6.957292)"/>
</g>
</g>
<g clip-path="url(#clip9)" clip-rule="nonzero">
<g clip-path="url(#clip10)" clip-rule="nonzero">
<path style=" stroke:none;fill-rule:nonzero;fill:rgb(94.117647%,89.019608%,92.54902%);fill-opacity:0.996078;" d="M 6.410156 2.25 L 17.160156 2.25 C 17.921875 2.25 18.535156 2.832031 18.535156 3.550781 L 18.535156 8.621094 C 18.535156 9.339844 17.921875 9.921875 17.160156 9.921875 L 6.410156 9.921875 C 5.652344 9.921875 5.039062 9.339844 5.039062 8.621094 L 5.039062 3.550781 C 5.039062 2.832031 5.652344 2.25 6.410156 2.25 Z M 6.410156 2.25 "/>
</g>
</g>
<g clip-path="url(#clip11)" clip-rule="nonzero">
<g clip-path="url(#clip12)" clip-rule="nonzero">
<path style="fill:none;stroke-width:0.405661;stroke-linecap:butt;stroke-linejoin:miter;stroke:rgb(90.196079%,0.784314%,70.588237%);stroke-opacity:1;stroke-miterlimit:4;" d="M 1.42858 -2.118847 L 4.914479 -2.118847 C 5.161481 -2.118847 5.36035 -1.987572 5.36035 -1.82546 L 5.36035 -0.681866 C 5.36035 -0.519754 5.161481 -0.388478 4.914479 -0.388478 L 1.42858 -0.388478 C 1.182845 -0.388478 0.983976 -0.519754 0.983976 -0.681866 L 0.983976 -1.82546 C 0.983976 -1.987572 1.182845 -2.118847 1.42858 -2.118847 Z M 1.42858 -2.118847 " transform="matrix(3.083853,0,0,4.433664,2.004625,11.644257)"/>
</g>
</g>
<path style="fill-rule:evenodd;fill:rgb(61.56863%,22.745098%,60.784316%);fill-opacity:1;stroke-width:0.329621;stroke-linecap:round;stroke-linejoin:round;stroke:rgb(90.196079%,0.784314%,70.588237%);stroke-opacity:1;stroke-miterlimit:4;" d="M 8.79233 18.371155 C 8.79233 18.512379 8.679382 18.627769 8.539054 18.627769 C 8.398726 18.627769 8.285778 18.512379 8.285778 18.371155 C 8.285778 18.229931 8.398726 18.114541 8.539054 18.114541 C 8.679382 18.114541 8.79233 18.229931 8.79233 18.371155 Z M 8.79233 18.371155 " transform="matrix(2.282592,0,0,2.268118,-0.553674,-31.613259)"/>
<path style="fill-rule:evenodd;fill:rgb(61.56863%,22.745098%,60.784316%);fill-opacity:1;stroke-width:0.329621;stroke-linecap:round;stroke-linejoin:round;stroke:rgb(90.196079%,0.784314%,70.588237%);stroke-opacity:1;stroke-miterlimit:4;" d="M 7.519106 18.3746 C 7.519106 18.515823 7.406159 18.631214 7.26583 18.631214 C 7.125502 18.631214 7.012555 18.515823 7.012555 18.3746 C 7.012555 18.233376 7.125502 18.117985 7.26583 18.117985 C 7.406159 18.117985 7.519106 18.233376 7.519106 18.3746 Z M 7.519106 18.3746 " transform="matrix(2.282592,0,0,2.268118,-0.553674,-31.613259)"/>
<path style="fill:none;stroke-width:0.659241;stroke-linecap:butt;stroke-linejoin:miter;stroke:rgb(90.196079%,0.784314%,70.588237%);stroke-opacity:1;stroke-miterlimit:4;" d="M 2.225986 19.84195 L 8.595528 19.84195 " transform="matrix(2.282592,0,0,2.268118,-0.553674,-31.613259)"/>
<path style="fill:none;stroke-width:0.659241;stroke-linecap:round;stroke-linejoin:miter;stroke:rgb(90.196079%,0.784314%,70.588237%);stroke-opacity:1;stroke-miterlimit:4;" d="M 3.220264 20.649682 L 7.618363 20.649682 " transform="matrix(2.282592,0,0,2.268118,-0.553674,-31.613259)"/>
<path style="fill:none;stroke-width:0.659241;stroke-linecap:round;stroke-linejoin:miter;stroke:rgb(90.196079%,0.784314%,70.588237%);stroke-opacity:1;stroke-miterlimit:4;" d="M 3.211708 21.467748 L 7.609806 21.467748 " transform="matrix(2.282592,0,0,2.268118,-0.553674,-31.613259)"/>
<path style="fill-rule:nonzero;fill:rgb(61.56863%,22.745098%,60.784316%);fill-opacity:1;stroke-width:0.16481;stroke-linecap:round;stroke-linejoin:round;stroke:rgb(61.56863%,22.745098%,60.784316%);stroke-opacity:1;stroke-miterlimit:4;" d="M 3.204862 22.602706 C 3.218553 22.75943 3.324655 22.87482 3.45985 22.87482 C 3.548838 22.87482 3.630982 22.824875 3.675476 22.74393 C 3.721682 22.824875 3.800403 22.87482 3.88768 22.87482 C 4.021163 22.87482 4.128977 22.75943 4.142667 22.602706 C 4.142667 22.595817 4.147801 22.55965 4.13411 22.499371 C 4.115286 22.413259 4.06908 22.335758 4.00405 22.273757 L 3.675476 21.965476 L 3.34348 22.273757 C 3.276738 22.335758 3.232244 22.413259 3.213419 22.499371 C 3.199729 22.55965 3.203151 22.595817 3.204862 22.602706 Z M 3.247646 22.507982 C 3.26647 22.430482 3.307542 22.358147 3.367438 22.301313 L 3.675476 22.015421 L 3.980091 22.301313 C 4.039988 22.358147 4.081059 22.430482 4.098173 22.507982 C 4.111863 22.564816 4.106729 22.597539 4.106729 22.597539 L 4.106729 22.599261 C 4.09475 22.737041 4.002339 22.836931 3.88768 22.836931 C 3.802114 22.836931 3.728527 22.781819 3.692589 22.695707 L 3.675476 22.654373 L 3.660074 22.695707 C 3.624136 22.781819 3.545416 22.836931 3.45985 22.836931 C 3.345191 22.836931 3.25278 22.737041 3.2408 22.597539 C 3.2408 22.597539 3.235666 22.564816 3.247646 22.507982 Z M 3.247646 22.507982 " transform="matrix(2.282592,0,0,2.268118,-0.553674,-31.613259)"/>
<path style="fill-rule:evenodd;fill:rgb(94.117647%,89.019608%,92.54902%);fill-opacity:1;stroke-width:0.659241;stroke-linecap:round;stroke-linejoin:round;stroke:rgb(90.196079%,0.784314%,70.588237%);stroke-opacity:1;stroke-miterlimit:4;" d="M 1.900835 15.117838 L 4.18545 15.117838 C 4.54825 15.117838 4.842598 15.414064 4.842598 15.77918 L 4.842598 18.483101 C 4.842598 18.848216 4.54825 19.144442 4.18545 19.144442 L 1.900835 19.144442 C 1.538035 19.144442 1.243687 18.848216 1.243687 18.483101 L 1.243687 15.77918 C 1.243687 15.414064 1.538035 15.117838 1.900835 15.117838 Z M 1.900835 15.117838 " transform="matrix(2.282592,0,0,2.268118,-0.553674,-31.613259)"/>
<path style="fill-rule:nonzero;fill:rgb(61.56863%,22.745098%,60.784316%);fill-opacity:1;stroke-width:0.16481;stroke-linecap:butt;stroke-linejoin:miter;stroke:rgb(61.56863%,22.745098%,60.784316%);stroke-opacity:1;stroke-miterlimit:4;" d="M 3.297274 15.79468 C 3.307542 15.674123 3.391397 15.586288 3.497499 15.586288 C 3.567663 15.586288 3.632693 15.6259 3.668631 15.686178 C 3.704569 15.624178 3.766176 15.586288 3.83634 15.586288 C 3.942442 15.586288 4.026297 15.674123 4.036565 15.79468 C 4.038276 15.799846 4.041699 15.829125 4.031431 15.873903 C 4.016029 15.939348 3.980091 15.999627 3.928752 16.047849 L 3.668631 16.285519 L 3.406799 16.047849 C 3.353748 15.999627 3.31781 15.939348 3.302408 15.873903 C 3.29214 15.829125 3.295563 15.799846 3.297274 15.79468 Z M 3.3315 15.867014 C 3.345191 15.927292 3.377706 15.982404 3.425623 16.02546 L 3.668631 16.245907 L 3.908216 16.02546 C 3.956133 15.982404 3.988648 15.927292 4.00405 15.867014 C 4.012607 15.823958 4.009184 15.799846 4.009184 15.799846 L 4.009184 15.798124 C 3.998916 15.693067 3.92704 15.615566 3.83634 15.615566 C 3.769599 15.615566 3.709703 15.6569 3.682321 15.724068 L 3.668631 15.755068 L 3.656652 15.724068 C 3.62927 15.658623 3.565951 15.615566 3.497499 15.615566 C 3.406799 15.615566 3.334923 15.693067 3.324655 15.799846 C 3.324655 15.799846 3.321232 15.823958 3.3315 15.867014 Z M 3.3315 15.867014 " transform="matrix(2.282592,0,0,2.268118,-0.553674,-31.613259)"/>
<path style="fill:none;stroke-width:0.659241;stroke-linecap:round;stroke-linejoin:miter;stroke:rgb(90.196079%,0.784314%,70.588237%);stroke-opacity:1;stroke-miterlimit:4;" d="M 2.214007 16.914138 L 3.856876 16.914138 " transform="matrix(2.282592,0,0,2.268118,-0.553674,-31.613259)"/>
<path style="fill:none;stroke-width:0.659241;stroke-linecap:round;stroke-linejoin:miter;stroke:rgb(90.196079%,0.784314%,70.588237%);stroke-opacity:1;stroke-miterlimit:4;" d="M 2.214007 17.906149 L 3.856876 17.906149 " transform="matrix(2.282592,0,0,2.268118,-0.553674,-31.613259)"/>
<path style="fill:none;stroke-width:1;stroke-linecap:round;stroke-linejoin:round;stroke:rgb(61.56863%,22.745098%,60.784316%);stroke-opacity:1;stroke-miterlimit:4;" d="M 2.474576 7.829737 C 2.474576 7.829737 -0.712924 10.954737 5.219368 13.691716 " transform="matrix(1.5,0,0,1.5,1.538136,-0.494607)"/>
<path style="fill:none;stroke-width:1;stroke-linecap:round;stroke-linejoin:round;stroke:rgb(61.56863%,22.745098%,60.784316%);stroke-opacity:1;stroke-miterlimit:4;" d="M 4.846972 11.259425 L 6.068326 14.134424 L 2.50843 14.566716 " transform="matrix(1.5,0,0,1.5,1.538136,-0.494607)"/>
</g>
</svg>
