<?xml version="1.0" encoding="UTF-8"?>
<svg xmlns="http://www.w3.org/2000/svg" xmlns:xlink="http://www.w3.org/1999/xlink" width="24px" height="24px" viewBox="0 0 24 24" version="1.1">
<g id="surface1">
<path style="fill-rule:nonzero;fill:rgb(90.196079%,0.784314%,70.588237%);fill-opacity:1;stroke-width:1.611989;stroke-linecap:butt;stroke-linejoin:round;stroke:rgb(90.196079%,0.784314%,70.588237%);stroke-opacity:1;stroke-miterlimit:4;" d="M 8.374869 -8.191298 C 7.207034 -9.114183 5.736738 -9.122573 4.879766 -8.212273 C 4.30425 -7.604008 4.123614 -6.723073 4.379865 -5.892476 C 3.531295 -6.106418 2.691126 -5.888281 2.128213 -5.292601 C 1.27124 -4.378106 1.36786 -2.914075 2.359259 -1.802419 C 2.401268 -1.747885 2.623912 -1.483604 3.119612 -1.189959 C 3.837956 -0.766271 4.661322 -0.564914 5.509893 -0.615253 L 9.740143 -0.845974 L 9.752746 -5.120609 C 9.748545 -5.967985 9.500695 -6.781802 9.034401 -7.46977 C 8.710936 -7.947992 8.42948 -8.153544 8.374869 -8.191298 Z M 8.748744 -7.285193 C 9.173029 -6.655954 9.399875 -5.913451 9.404076 -5.133194 L 9.391473 -1.173179 L 5.472085 -0.959238 C 4.694929 -0.917288 3.938777 -1.09767 3.287646 -1.483604 C 2.817151 -1.760469 2.632314 -2.003775 2.632314 -2.00797 L 2.619712 -2.020555 C 1.750137 -2.989584 1.649316 -4.264843 2.388665 -5.049295 C 2.930574 -5.628196 3.783346 -5.783408 4.610912 -5.460398 L 5.00159 -5.309381 L 4.825155 -5.686925 C 4.459682 -6.479767 4.581506 -7.377482 5.136018 -7.968967 C 5.875366 -8.749224 7.152423 -8.732445 8.185831 -7.910238 C 8.190032 -7.906043 8.442082 -7.738246 8.748744 -7.285193 Z M 8.748744 -7.285193 " transform="matrix(0.929873,0,0,0.931183,0.802283,10.518226)"/>
<path style="fill-rule:nonzero;fill:rgb(90.196079%,0.784314%,70.588237%);fill-opacity:1;stroke-width:1.611989;stroke-linecap:butt;stroke-linejoin:round;stroke:rgb(90.196079%,0.784314%,70.588237%);stroke-opacity:1;stroke-miterlimit:4;" d="M 15.621326 -8.048671 C 16.789161 -8.971556 18.259456 -8.979945 19.116429 -8.065451 C 19.691944 -7.461381 19.872581 -6.580445 19.616329 -5.749849 C 20.4649 -5.96379 21.305069 -5.745654 21.867982 -5.145779 C 22.724954 -4.235479 22.628335 -2.767253 21.636935 -1.655596 C 21.594927 -1.605257 21.372282 -1.336781 20.876583 -1.043136 C 20.158238 -0.619448 19.334873 -0.422286 18.486302 -0.468431 L 14.256051 -0.699152 L 14.243449 -4.973786 C 14.24765 -5.821163 14.495499 -6.634979 14.961793 -7.322948 C 15.285258 -7.80117 15.566715 -8.010916 15.621326 -8.048671 Z M 15.247451 -7.142566 C 14.823165 -6.513326 14.59632 -5.766628 14.592119 -4.990566 L 14.604721 -1.030551 L 18.52411 -0.81661 C 19.301266 -0.770466 20.057418 -0.955043 20.708549 -1.340976 C 21.179043 -1.617842 21.363881 -1.861148 21.363881 -1.861148 L 21.376483 -1.873733 C 22.246058 -2.846957 22.346878 -4.122216 21.60753 -4.902473 C 21.065621 -5.481373 20.212849 -5.64078 19.385283 -5.317771 L 18.994604 -5.162558 L 19.17104 -5.544297 C 19.536513 -6.337139 19.414689 -7.230659 18.860177 -7.822145 C 18.120828 -8.606597 16.843772 -8.585622 15.810364 -7.763416 C 15.806163 -7.763416 15.554112 -7.591423 15.247451 -7.142566 Z M 15.247451 -7.142566 " transform="matrix(0.929873,0,0,0.931183,0.802283,10.518226)"/>
<path style="fill-rule:nonzero;fill:rgb(90.196079%,0.784314%,70.588237%);fill-opacity:1;stroke-width:1.611989;stroke-linecap:butt;stroke-linejoin:round;stroke:rgb(90.196079%,0.784314%,70.588237%);stroke-opacity:1;stroke-miterlimit:4;" d="M 8.463086 11.373859 C 7.295252 12.296744 5.824956 12.305134 4.967984 11.394834 C 4.392468 10.786569 4.211832 9.905633 4.468083 9.075037 C 3.619513 9.288979 2.779344 9.070842 2.21643 8.475162 C 1.359458 7.560667 1.456078 6.096636 2.447477 4.984979 C 2.489485 4.930445 2.71213 4.666165 3.20783 4.37252 C 3.926174 3.948832 4.74954 3.747475 5.59811 3.797814 L 9.828361 4.028535 L 9.840964 8.30317 C 9.836763 9.150546 9.588913 9.964362 9.122619 10.652331 C 8.799154 11.130553 8.517697 11.336105 8.463086 11.373859 Z M 8.836962 10.467754 C 9.261247 9.838514 9.488093 9.096012 9.492293 8.315755 L 9.479691 4.35574 L 5.560303 4.141798 C 4.783147 4.099849 4.026995 4.280231 3.375864 4.666165 C 2.905369 4.94303 2.720532 5.186336 2.720532 5.190531 L 2.707929 5.203116 C 1.838354 6.172145 1.737534 7.447404 2.476883 8.231856 C 3.018792 8.810756 3.871563 8.965969 4.69913 8.642959 L 5.089808 8.491942 L 4.913373 8.869485 C 4.547899 9.662327 4.669724 10.560043 5.224235 11.151528 C 5.963584 11.931785 7.240641 11.915005 8.274048 11.092799 C 8.278249 11.088604 8.5303 10.920807 8.836962 10.467754 Z M 8.836962 10.467754 " transform="matrix(0.929873,0,0,0.931183,0.802283,10.518226)"/>
<path style="fill-rule:nonzero;fill:rgb(90.196079%,0.784314%,70.588237%);fill-opacity:1;stroke-width:1.611989;stroke-linecap:butt;stroke-linejoin:round;stroke:rgb(90.196079%,0.784314%,70.588237%);stroke-opacity:1;stroke-miterlimit:4;" d="M 15.709544 11.231232 C 16.877378 12.154116 18.347674 12.162506 19.204646 11.248011 C 19.780162 10.643941 19.960798 9.763006 19.704547 8.932409 C 20.553117 9.146351 21.393286 8.928214 21.9562 8.328339 C 22.813172 7.418039 22.716552 5.949814 21.725153 4.838157 C 21.683145 4.787818 21.4605 4.519342 20.9648 4.225697 C 20.246456 3.802009 19.42309 3.604847 18.57452 3.650991 L 14.344269 3.881713 L 14.331667 8.156347 C 14.335867 9.003723 14.583717 9.81754 15.050011 10.505509 C 15.373476 10.983731 15.654933 11.193477 15.709544 11.231232 Z M 15.335668 10.325126 C 14.911383 9.695887 14.684537 8.949189 14.680337 8.173127 L 14.692939 4.213112 L 18.612327 3.999171 C 19.389484 3.953026 20.145636 4.137603 20.796766 4.523537 C 21.267261 4.800402 21.452098 5.043708 21.452098 5.043708 L 21.464701 5.056293 C 22.334276 6.029517 22.435096 7.304776 21.695747 8.085033 C 21.153838 8.663934 20.301067 8.823341 19.4735 8.500332 L 19.082822 8.345119 L 19.259257 8.726858 C 19.624731 9.5197 19.502906 10.41322 18.948395 11.004705 C 18.209046 11.789157 16.931989 11.768183 15.898582 10.945976 C 15.894381 10.945976 15.64233 10.773984 15.335668 10.325126 Z M 15.335668 10.325126 " transform="matrix(0.929873,0,0,0.931183,0.802283,10.518226)"/>
</g>
</svg>
