<?xml version="1.0" encoding="UTF-8"?>
<svg xmlns="http://www.w3.org/2000/svg" xmlns:xlink="http://www.w3.org/1999/xlink" width="24px" height="24px" viewBox="0 0 24 24" version="1.1">
<g id="surface1">
<path style="fill-rule:nonzero;fill:rgb(94.117647%,89.019608%,92.54902%);fill-opacity:1;stroke-width:1;stroke-linecap:butt;stroke-linejoin:miter;stroke:rgb(90.196079%,0.784314%,70.588237%);stroke-opacity:1;stroke-miterlimit:4;" d="M 2.432292 1.518229 C 1.895833 1.520833 1.463542 1.929688 1.463542 2.4375 L 1.463542 10 C 1.463542 10.510417 1.895833 10.911458 2.432292 10.919271 L 8.078125 10.914062 L 12.065104 10.908854 C 12.601562 10.908854 13.033854 10.497396 13.033854 9.989583 L 13.033854 2.427083 C 13.033854 1.916667 12.601562 1.507812 12.065104 1.507812 L 11.382812 1.502604 L 11.382812 2.046875 C 11.382812 2.179688 11.270833 2.286458 11.132812 2.286458 L 9.981771 2.286458 C 9.841146 2.286458 9.729167 2.179688 9.729167 2.046875 L 9.729167 1.502604 Z M 2.432292 1.518229 " transform="matrix(1.5,0,0,1.5,0,0)"/>
<path style="fill-rule:nonzero;fill:rgb(95.294118%,71.764708%,85.09804%);fill-opacity:1;stroke-width:0.5;stroke-linecap:butt;stroke-linejoin:miter;stroke:rgb(61.56863%,22.745098%,60.784316%);stroke-opacity:1;stroke-miterlimit:4;" d="M 3.119792 3.307292 L 11.348958 3.307292 C 11.53125 3.307292 11.679688 3.455729 11.679688 3.638021 L 11.679688 8.742188 C 11.679688 8.924479 11.53125 9.072917 11.348958 9.072917 L 3.119792 9.072917 C 2.940104 9.072917 2.791667 8.924479 2.791667 8.742188 L 2.791667 3.638021 C 2.791667 3.455729 2.940104 3.307292 3.119792 3.307292 Z M 3.119792 3.307292 " transform="matrix(1.5,0,0,1.5,0,0)"/>
<path style="fill-rule:nonzero;fill:rgb(94.117647%,89.019608%,92.54902%);fill-opacity:1;stroke-width:1;stroke-linecap:butt;stroke-linejoin:miter;stroke:rgb(90.196079%,0.784314%,70.588237%);stroke-opacity:1;stroke-miterlimit:4;" d="M 3.981771 5.481771 C 3.447917 5.481771 3.018229 5.875 3.018229 6.364583 L 3.018229 13.619792 C 3.018229 14.106771 3.447917 14.492188 3.981771 14.5 L 9.604167 14.494792 L 13.575521 14.489583 C 14.109375 14.489583 14.541667 14.096354 14.541667 13.606771 L 14.541667 6.351562 C 14.541667 5.864583 14.109375 5.471354 13.575521 5.471354 L 12.895833 5.466146 L 12.895833 5.989583 C 12.895833 6.117188 12.786458 6.21875 12.645833 6.21875 L 11.5 6.21875 C 11.361979 6.21875 11.25 6.117188 11.25 5.989583 L 11.25 5.466146 Z M 3.981771 5.481771 " transform="matrix(1.5,0,0,1.5,0,0)"/>
<path style="fill-rule:nonzero;fill:rgb(95.294118%,71.764708%,85.09804%);fill-opacity:1;stroke-width:0.5;stroke-linecap:butt;stroke-linejoin:miter;stroke:rgb(61.56863%,22.745098%,60.784316%);stroke-opacity:1;stroke-miterlimit:4;" d="M 4.559896 7.286458 L 12.789062 7.286458 C 12.971354 7.286458 13.117188 7.434896 13.117188 7.617188 L 13.117188 12.721354 C 13.117188 12.903646 12.971354 13.049479 12.789062 13.049479 L 4.559896 13.049479 C 4.377604 13.049479 4.229167 12.903646 4.229167 12.721354 L 4.229167 7.617188 C 4.229167 7.434896 4.377604 7.286458 4.559896 7.286458 Z M 4.559896 7.286458 " transform="matrix(1.5,0,0,1.5,0,0)"/>
<path style="fill-rule:evenodd;fill:rgb(95.294118%,71.764708%,85.09804%);fill-opacity:1;stroke-width:16.621611;stroke-linecap:butt;stroke-linejoin:miter;stroke:rgb(61.56863%,22.745098%,60.784316%);stroke-opacity:1;stroke-miterlimit:4;" d="M 90.925773 17.469735 C 88.328646 17.556306 85.774805 18.378729 83.610533 19.980291 L 12.968687 71.663111 C 9.938706 73.870669 7.90429 77.506647 7.90429 81.532193 C 7.90429 85.557739 9.938706 89.193717 12.968687 91.401274 L 83.610533 143.084095 C 87.462937 145.940934 92.354193 146.330503 96.596166 144.469229 C 100.751569 142.651241 104.084548 138.322696 104.084548 133.258299 L 104.084548 29.806087 C 104.084548 26.213395 102.439701 22.923701 99.929145 20.672858 C 97.332019 18.335444 94.08561 17.383164 90.925773 17.469735 Z M 90.925773 17.469735 " transform="matrix(0,0.090244,-0.090244,0,23.326538,1.544498)"/>
</g>
</svg>
