<?xml version="1.0" encoding="UTF-8" standalone="no"?>
<svg
   xmlns:dc="http://purl.org/dc/elements/1.1/"
   xmlns:cc="http://creativecommons.org/ns#"
   xmlns:rdf="http://www.w3.org/1999/02/22-rdf-syntax-ns#"
   xmlns:svg="http://www.w3.org/2000/svg"
   xmlns="http://www.w3.org/2000/svg"
   xmlns:xlink="http://www.w3.org/1999/xlink"
   xmlns:sodipodi="http://sodipodi.sourceforge.net/DTD/sodipodi-0.dtd"
   xmlns:inkscape="http://www.inkscape.org/namespaces/inkscape"
   height="24"
   width="24"
   version="1.1"
   id="svg52"
   sodipodi:docname="lc_matchgroup.svg"
   inkscape:version="0.92.4 (unknown)"
   inkscape:export-filename="/home/annisaauliarasyidah/Desktop/4_242 (aulia)/lc 222/lc_matchgroup.png"
   inkscape:export-xdpi="96"
   inkscape:export-ydpi="96">
  <metadata
     id="metadata58">
    <rdf:RDF>
      <cc:Work
         rdf:about="">
        <dc:format>image/svg+xml</dc:format>
        <dc:type
           rdf:resource="http://purl.org/dc/dcmitype/StillImage" />
        <dc:title></dc:title>
      </cc:Work>
    </rdf:RDF>
  </metadata>
  <defs
     id="defs56" />
  <sodipodi:namedview
     pagecolor="#ffffff"
     bordercolor="#666666"
     borderopacity="1"
     objecttolerance="10"
     gridtolerance="10"
     guidetolerance="10"
     inkscape:pageopacity="0"
     inkscape:pageshadow="2"
     inkscape:window-width="1366"
     inkscape:window-height="707"
     id="namedview54"
     showgrid="true"
     inkscape:snap-global="false"
     inkscape:zoom="16.075195"
     inkscape:cx="0.12026156"
     inkscape:cy="8"
     inkscape:window-x="0"
     inkscape:window-y="0"
     inkscape:window-maximized="1"
     inkscape:current-layer="svg52">
    <inkscape:grid
       type="xygrid"
       id="grid887" />
  </sodipodi:namedview>
  <linearGradient
     id="a">
    <stop
       offset="0"
       stop-color="#fff"
       id="stop2" />
    <stop
       offset="1"
       stop-color="#fff"
       stop-opacity="0"
       id="stop4" />
  </linearGradient>
  <linearGradient
     id="b"
     gradientUnits="userSpaceOnUse"
     x1="80.151077"
     x2="80.151077"
     y1="-112.00012"
     y2="8.0000954"
     gradientTransform="matrix(0.125,0,0,0.125,-0.001953,0)">
    <stop
       offset="0"
       stop-color="#232221"
       id="stop7" />
    <stop
       offset=".20000003"
       stop-color="#555350"
       id="stop9" />
    <stop
       offset="1"
       stop-color="#918d88"
       id="stop11" />
  </linearGradient>
  <linearGradient
     id="c"
     gradientTransform="matrix(0.125,0,0,-0.125,-0.001953,1)"
     gradientUnits="userSpaceOnUse"
     x1="76"
     x2="76"
     xlink:href="#a"
     y1="-32"
     y2="-124" />
  <radialGradient
     id="d"
     cx="66.619843"
     cy="125.52064"
     gradientTransform="matrix(0.13028572,0,0,0.06514286,-1.1815675,4.8232259)"
     gradientUnits="userSpaceOnUse"
     r="48"
     xlink:href="#a" />
  <filter
     id="e"
     height="1.438356"
     width="1.438356"
     x="-0.21917801"
     y="-0.21917801">
    <feGaussianBlur
       stdDeviation="1.4611876"
       id="feGaussianBlur16" />
  </filter>
  <clipPath
     id="f">
    <path
       d="m 108,8 c -56.856851,-6.4550541 -20.421406,2.416483 -4,8 3.30365,-0.176594 7.9579,2.481149 8,8 -6.88851,24.743398 27.73448,21.859264 8,-4 0.007,-5.611517 -4.44397,-11.868932 -12,-12 z"
       id="path19"
       inkscape:connector-curvature="0" />
  </clipPath>
  <radialGradient
     id="g"
     cx="112.00771"
     cy="15.99981"
     gradientTransform="matrix(0.70727305,0.70694048,-1.9971123,1.9980518,64.741093,-95.151426)"
     gradientUnits="userSpaceOnUse"
     r="8.0077057"
     xlink:href="#a" />
  <linearGradient
     id="h"
     gradientTransform="matrix(0,0.125,0.125,0,-21.115372,-7.9535812)"
     gradientUnits="userSpaceOnUse"
     x1="172.56801"
     x2="178.04466"
     y1="233.48956"
     y2="367.96475">
    <stop
       offset="0"
       stop-color="#8e79b9"
       id="stop23" />
    <stop
       offset="1"
       stop-color="#462886"
       id="stop25" />
  </linearGradient>
  <g
     id="g854"
     transform="matrix(0.9825299,0,0,0.98685716,0.07075778,0.28914243)"
     style="stroke-width:1.0155468">
    <rect
       height="14.199593"
       rx="2.3738701"
       transform="scale(1,-1)"
       width="14.243221"
       x="4.0502205"
       y="-22.000002"
       id="rect28"
       style="fill:#e602b4;stroke-width:0.12694335" />
    <path
       d="m 7.2153806,9.378141 c -0.8767494,0 -1.5825801,0.703669 -1.5825801,1.577732 v 4.462025 c 2.3738701,0.271173 9.4954805,-0.517693 11.0780605,-1.984492 v -2.477533 c 0,-0.874063 -0.705831,-1.577732 -1.58258,-1.577732 z"
       id="path30"
       style="opacity:1;fill:#f3b7d9;fill-opacity:1;stroke-width:0.12694335"
       inkscape:connector-curvature="0" />
    <path
       d="m 7.2153806,20.315303 c -0.8767494,0 -1.5825801,-0.703669 -1.5825801,-1.577733 v -4.264808 c 1.5093824,-0.175205 1.5184927,-0.271172 3.1651602,-0.271172 5.8994783,0 4.7761243,-4.2062306 7.9129003,-2.366599 v 6.902579 c 0,0.874064 -0.705831,1.577733 -1.58258,1.577733 z"
       id="path36"
       style="opacity:1;fill:#f3b7d9;fill-opacity:1;stroke-width:0.12694335"
       inkscape:connector-curvature="0" />
    <path
       d="M 10.551387,9.378141 C 9.4279581,9.3836631 8.5495241,9.5281676 8.1626806,9.8575114 7.7727806,10.188884 7.5810112,10.856888 7.581015,11.860044 v 0.641739 c -3.8e-6,0.676347 -0.1138667,1.174843 -0.3645105,1.438111 -0.246009,0.25874 -0.5383608,0.386595 -1.202109,0.38659 H 5.5878408 v 0.989668 h 0.4265547 c 0.6591065,5e-6 0.9514584,0.115585 1.202109,0.378858 0.2506434,0.263277 0.3645067,0.714034 0.3645105,1.399453 v 0.637873 c -3.8e-6,1.003164 0.1917656,1.670495 0.5816656,2.006397 0.3868435,0.329352 1.2652775,0.518532 2.3887064,0.525762 V 19.274828 C 9.9072821,19.272146 9.1160159,19.159 8.9188461,18.961689 8.7192512,18.761964 8.6202523,18.341437 8.6202577,17.701407 v -0.69586 C 8.6202523,16.297434 8.5266591,15.804673 8.3177915,15.482386 8.108914,15.160105 7.925608,14.943881 7.4103931,14.821318 7.9209663,14.707848 8.1011584,14.486405 8.310036,14.164117 8.5235451,13.841837 8.6202523,13.299494 8.6202577,12.586832 v -0.699727 c -5.4e-6,-0.64002 0.098994,-1.060546 0.2985884,-1.26028 0.1971698,-0.1973 0.988436,-0.257199 1.6325409,-0.259015 z"
       id="path32"
       inkscape:connector-curvature="0"
       style="fill:#f0e3ec;stroke-width:0.12694335" />
    <path
       d="m 11.792274,9.378141 c 1.12343,0.00552 2.001864,0.1500266 2.388707,0.4793704 0.3899,0.3313726 0.58167,0.9993766 0.581666,2.0025326 v 0.641738 c 4e-6,0.676348 0.113866,1.174844 0.36451,1.438112 0.246009,0.25874 0.538363,0.386595 1.202109,0.38659 h 0.426555 v 0.989668 h -0.426555 c -0.659106,5e-6 -0.95146,0.115585 -1.202109,0.378858 -0.250643,0.263277 -0.364506,0.714034 -0.36451,1.399453 v 0.637873 c 4e-6,1.003164 -0.191766,1.670495 -0.581666,2.006397 -0.386843,0.329352 -1.265277,0.518532 -2.388707,0.525762 v -0.989669 c 0.644106,-0.0027 1.435372,-0.115821 1.632542,-0.313137 0.199594,-0.199725 0.298593,-0.620252 0.298588,-1.260282 v -0.69586 c 5e-6,-0.708113 0.0936,-1.200874 0.302466,-1.523161 0.208877,-0.322281 0.392184,-0.538505 0.907399,-0.661068 -0.510574,-0.113477 -0.690766,-0.334913 -0.899643,-0.657201 -0.213509,-0.32228 -0.310217,-0.864623 -0.310222,-1.577285 v -0.699727 c 5e-6,-0.64002 -0.09899,-1.060546 -0.298588,-1.26028 -0.19717,-0.1973 -0.988436,-0.257199 -1.632542,-0.259015 z"
       id="path34"
       inkscape:connector-curvature="0"
       style="fill:#f0e3ec;stroke-width:0.12694335" />
  </g>
  <path
     inkscape:connector-curvature="0"
     style="fill:#f3b7d9;fill-opacity:1;stroke:#9d3a9b;stroke-width:0.25;stroke-miterlimit:4;stroke-dasharray:none;stroke-opacity:1"
     id="path48"
     d="m 1.1297815,5.8367549 17.3952535,0.00521 v 1.0079185 c 3.62e-4,0.2480174 0.161507,0.4896571 0.402038,0.6005736 0.240529,0.1109116 0.549102,0.085886 0.764439,-0.062669 l 2.899209,-2.3396291 c 0.180118,-0.1248 0.288787,-0.3301298 0.288787,-0.5379051 0,-0.2077752 -0.108675,-0.4131001 -0.288787,-0.5379049 L 19.691512,1.6327468 C 19.573019,1.5500828 19.426616,1.5019941 19.278146,1.4969659 18.888064,1.4853108 18.524308,1.8107029 18.525035,2.1706525 V 3.1681212 L 1.135444,3.162898 Z" />
</svg>
