<?xml version="1.0" encoding="UTF-8"?>
<svg xmlns="http://www.w3.org/2000/svg" xmlns:xlink="http://www.w3.org/1999/xlink" width="24px" height="24px" viewBox="0 0 24 24" version="1.1">
<g id="surface1">
<path style=" stroke:none;fill-rule:nonzero;fill:rgb(90.196079%,0.784314%,70.588237%);fill-opacity:1;" d="M 4.5 1.5 L 19.5 1.5 C 20.328125 1.5 21 2.171875 21 3 L 21 21 C 21 21.828125 20.328125 22.5 19.5 22.5 L 4.5 22.5 C 3.671875 22.5 3 21.828125 3 21 L 3 3 C 3 2.171875 3.671875 1.5 4.5 1.5 Z M 4.5 1.5 "/>
<path style=" stroke:none;fill-rule:nonzero;fill:rgb(94.117647%,89.019608%,92.54902%);fill-opacity:1;" d="M 6 3 L 18 3 C 18.828125 3 19.5 3.671875 19.5 4.5 L 19.5 19.5 C 19.5 20.328125 18.828125 21 18 21 L 6 21 C 5.171875 21 4.5 20.328125 4.5 19.5 L 4.5 4.5 C 4.5 3.671875 5.171875 3 6 3 Z M 6 3 "/>
<path style=" stroke:none;fill-rule:nonzero;fill:rgb(90.196079%,0.784314%,70.588237%);fill-opacity:1;" d="M 6.75 7.5 L 17.25 7.5 C 17.664062 7.5 18 7.835938 18 8.25 C 18 8.664062 17.664062 9 17.25 9 L 6.75 9 C 6.335938 9 6 8.664062 6 8.25 C 6 7.835938 6.335938 7.5 6.75 7.5 Z M 6.75 7.5 "/>
<path style="fill-rule:nonzero;fill:rgb(61.56863%,22.745098%,60.784316%);fill-opacity:1;stroke-width:0.25;stroke-linecap:butt;stroke-linejoin:miter;stroke:rgb(61.56863%,22.745098%,60.784316%);stroke-opacity:1;stroke-miterlimit:4;" d="M -10.203302 3.844456 C -10.172052 3.508519 -9.929864 3.263727 -9.627781 3.263727 C -9.424656 3.263727 -9.23976 3.370498 -9.135593 3.542373 C -9.031427 3.367894 -8.854343 3.263727 -8.656427 3.263727 C -8.351739 3.263727 -8.109552 3.508519 -8.078302 3.844456 C -8.075698 3.860081 -8.065281 3.938206 -8.096531 4.06581 C -8.140802 4.248102 -8.242364 4.414769 -8.393406 4.547581 L -9.135593 5.20904 L -9.890802 4.547581 C -10.039239 4.414769 -10.140802 4.248102 -10.185073 4.06581 C -10.216323 3.938206 -10.205906 3.860081 -10.203302 3.844456 Z M -10.106948 4.047581 C -10.065281 4.214248 -9.971531 4.367894 -9.836114 4.487685 L -9.135593 5.102269 L -8.448093 4.487685 C -8.310073 4.367894 -8.216323 4.214248 -8.17726 4.047581 C -8.148614 3.925185 -8.159031 3.857477 -8.159031 3.857477 L -8.161635 3.852269 C -8.187677 3.557998 -8.39601 3.344456 -8.656427 3.344456 C -8.849135 3.344456 -9.018406 3.461644 -9.096531 3.64654 L -9.135593 3.735081 L -9.172052 3.64654 C -9.252781 3.464248 -9.429864 3.344456 -9.627781 3.344456 C -9.888198 3.344456 -10.096531 3.557998 -10.122573 3.857477 C -10.122573 3.857477 -10.135593 3.925185 -10.106948 4.047581 Z M -10.106948 4.047581 " transform="matrix(1.5,0,0,1.5,30.20339,-0.813559)"/>
<path style="fill-rule:nonzero;fill:rgb(90.196079%,0.784314%,70.588237%);fill-opacity:1;stroke-width:1;stroke-linecap:round;stroke-linejoin:round;stroke:rgb(50.588238%,0%,49.803922%);stroke-opacity:1;stroke-miterlimit:4;" d="M 6.348958 -14.515625 L 12.596354 -14.515625 C 13.098958 -14.515625 13.507812 -14.106771 13.507812 -13.601562 L 13.507812 -12.526042 C 13.507812 -12.023438 13.098958 -11.614583 12.596354 -11.614583 L 6.348958 -11.614583 C 5.84375 -11.614583 5.434896 -12.023438 5.434896 -12.526042 L 5.434896 -13.601562 C 5.434896 -14.106771 5.84375 -14.515625 6.348958 -14.515625 Z M 6.348958 -14.515625 " transform="matrix(1.5,0,0,-1.5,0,0)"/>
<path style="fill-rule:evenodd;fill:rgb(90.196079%,0.784314%,70.588237%);fill-opacity:1;stroke-width:1;stroke-linecap:round;stroke-linejoin:round;stroke:rgb(50.980395%,0.392157%,49.803922%);stroke-opacity:1;stroke-miterlimit:4;" d="M 12.523438 1.515625 L 6.192708 1.515625 L 8.598958 4.817708 L 6.192708 4.817708 L 9.359375 9.161458 L 12.523438 4.817708 L 10.117188 4.817708 Z M 12.523438 1.515625 " transform="matrix(1.5,0,0,1.5,0,0)"/>
</g>
</svg>
