<?xml version="1.0" encoding="UTF-8"?>
<svg xmlns="http://www.w3.org/2000/svg" xmlns:xlink="http://www.w3.org/1999/xlink" width="24px" height="24px" viewBox="0 0 24 24" version="1.1">
<g id="surface1">
<path style="fill-rule:evenodd;fill:rgb(94.117647%,89.019608%,92.54902%);fill-opacity:1;stroke-width:0.264583;stroke-linecap:round;stroke-linejoin:round;stroke:rgb(61.56863%,22.745098%,60.784316%);stroke-opacity:1;stroke-miterlimit:4;" d="M 2.513542 2.116667 C 2.513542 2.335775 2.335775 2.513542 2.116667 2.513542 C 1.897558 2.513542 1.719792 2.335775 1.719792 2.116667 C 1.719792 1.897559 1.897558 1.719792 2.116667 1.719792 C 2.335775 1.719792 2.513542 1.897559 2.513542 2.116667 Z M 2.513542 2.116667 " transform="matrix(5.669291,0,0,5.669291,0.00000135166,0)"/>
<path style="fill:none;stroke-width:0.264583;stroke-linecap:round;stroke-linejoin:miter;stroke:rgb(90.196079%,0.784314%,70.588237%);stroke-opacity:1;stroke-miterlimit:4;" d="M 2.116667 1.190625 L 2.116667 0.529167 " transform="matrix(5.669291,0,0,5.669291,0.00000135166,0)"/>
<path style="fill:none;stroke-width:0.264583;stroke-linecap:round;stroke-linejoin:miter;stroke:rgb(90.196079%,0.784314%,70.588237%);stroke-opacity:1;stroke-miterlimit:4;" d="M 1.5875 0.79375 L 2.116667 0.396875 L 2.645833 0.79375 " transform="matrix(5.669291,0,0,5.669291,0.00000135166,0)"/>
<path style="fill:none;stroke-width:0.270459;stroke-linecap:round;stroke-linejoin:miter;stroke:rgb(90.196079%,0.784314%,70.588237%);stroke-opacity:1;stroke-miterlimit:4;" d="M 2.116943 1.19051 L 2.116943 0.529287 " transform="matrix(0,5.635018,-5.458636,0,23.732934,0.0905226)"/>
<path style="fill:none;stroke-width:0.270459;stroke-linecap:round;stroke-linejoin:miter;stroke:rgb(90.196079%,0.784314%,70.588237%);stroke-opacity:1;stroke-miterlimit:4;" d="M 1.58733 0.794062 L 2.116943 0.396899 L 2.645862 0.794062 " transform="matrix(0,5.635018,-5.458636,0,23.732934,0.0905226)"/>
<path style="fill:none;stroke-width:0.270459;stroke-linecap:round;stroke-linejoin:miter;stroke:rgb(90.196079%,0.784314%,70.588237%);stroke-opacity:1;stroke-miterlimit:4;" d="M 2.1169 1.190554 L 2.1169 0.529331 " transform="matrix(-5.635018,0,0,-5.458636,23.920953,23.721457)"/>
<path style="fill:none;stroke-width:0.270459;stroke-linecap:round;stroke-linejoin:miter;stroke:rgb(90.196079%,0.784314%,70.588237%);stroke-opacity:1;stroke-miterlimit:4;" d="M 1.587287 0.794106 L 2.1169 0.396943 L 2.645819 0.794106 " transform="matrix(-5.635018,0,0,-5.458636,23.920953,23.721457)"/>
<path style="fill:none;stroke-width:0.270459;stroke-linecap:round;stroke-linejoin:miter;stroke:rgb(90.196079%,0.784314%,70.588237%);stroke-opacity:1;stroke-miterlimit:4;" d="M 2.116532 1.190745 L 2.116532 0.529522 " transform="matrix(0,-5.635018,5.458636,0,0.254063,23.981385)"/>
<path style="fill:none;stroke-width:0.270459;stroke-linecap:round;stroke-linejoin:miter;stroke:rgb(90.196079%,0.784314%,70.588237%);stroke-opacity:1;stroke-miterlimit:4;" d="M 1.587613 0.793582 L 2.116532 0.397134 L 2.646145 0.793582 " transform="matrix(0,-5.635018,5.458636,0,0.254063,23.981385)"/>
</g>
</svg>
