<?xml version="1.0" encoding="UTF-8" standalone="no"?>
<svg
   xmlns:dc="http://purl.org/dc/elements/1.1/"
   xmlns:cc="http://creativecommons.org/ns#"
   xmlns:rdf="http://www.w3.org/1999/02/22-rdf-syntax-ns#"
   xmlns:svg="http://www.w3.org/2000/svg"
   xmlns="http://www.w3.org/2000/svg"
   xmlns:xlink="http://www.w3.org/1999/xlink"
   xmlns:sodipodi="http://sodipodi.sourceforge.net/DTD/sodipodi-0.dtd"
   xmlns:inkscape="http://www.inkscape.org/namespaces/inkscape"
   height="24"
   width="24"
   version="1.1"
   id="svg101"
   sodipodi:docname="lc_mediarepeat.svg"
   inkscape:version="0.92.4 (unknown)"
   inkscape:export-filename="/home/annisaauliarasyidah/Desktop/4_242 (aulia)/lc 222/lc_mediarepeat.png"
   inkscape:export-xdpi="96"
   inkscape:export-ydpi="96">
  <metadata
     id="metadata107">
    <rdf:RDF>
      <cc:Work
         rdf:about="">
        <dc:format>image/svg+xml</dc:format>
        <dc:type
           rdf:resource="http://purl.org/dc/dcmitype/StillImage" />
        <dc:title></dc:title>
      </cc:Work>
    </rdf:RDF>
  </metadata>
  <defs
     id="defs105" />
  <sodipodi:namedview
     pagecolor="#ffffff"
     bordercolor="#666666"
     borderopacity="1"
     objecttolerance="10"
     gridtolerance="10"
     guidetolerance="10"
     inkscape:pageopacity="0"
     inkscape:pageshadow="2"
     inkscape:window-width="1366"
     inkscape:window-height="707"
     id="namedview103"
     showgrid="true"
     inkscape:zoom="16.075195"
     inkscape:cx="1.9336103"
     inkscape:cy="8"
     inkscape:window-x="0"
     inkscape:window-y="0"
     inkscape:window-maximized="1"
     inkscape:current-layer="svg101">
    <inkscape:grid
       type="xygrid"
       id="grid860" />
  </sodipodi:namedview>
  <linearGradient
     id="a">
    <stop
       offset="0"
       stop-color="#6193cf"
       id="stop2" />
    <stop
       offset="1"
       stop-color="#6193cf"
       stop-opacity="0"
       id="stop4" />
  </linearGradient>
  <linearGradient
     id="b">
    <stop
       offset="0"
       stop-color="#fff"
       id="stop7" />
    <stop
       offset="1"
       stop-color="#fff"
       stop-opacity="0"
       id="stop9" />
  </linearGradient>
  <linearGradient
     id="c">
    <stop
       offset="0"
       stop-color="#b3b3b3"
       id="stop12" />
    <stop
       offset=".52879584"
       stop-color="#fff"
       id="stop14" />
    <stop
       offset="1"
       stop-color="#c5c5c5"
       id="stop16" />
  </linearGradient>
  <linearGradient
     id="d">
    <stop
       offset="0"
       id="stop19" />
    <stop
       offset="1"
       stop-opacity="0"
       id="stop21" />
  </linearGradient>
  <linearGradient
     id="e"
     gradientTransform="matrix(0.961272,0,0,1,2.661007,0)"
     gradientUnits="userSpaceOnUse"
     x1="64.469719"
     x2="64.469719"
     xlink:href="#d"
     y1="31.090103"
     y2="27.31226" />
  <linearGradient
     id="f"
     gradientTransform="matrix(0.980636,0,0,0.826087,1.248377,5.078467)"
     gradientUnits="userSpaceOnUse"
     x1="64.469719"
     x2="64.469719"
     xlink:href="#d"
     y1="31.090103"
     y2="27.31226" />
  <linearGradient
     id="g"
     gradientTransform="matrix(0.994468,0,0,0.543479,-0.602543,17.017582)"
     gradientUnits="userSpaceOnUse"
     x1="64.469719"
     x2="64.469719"
     xlink:href="#d"
     y1="31.090103"
     y2="27.31226" />
  <linearGradient
     id="h"
     gradientUnits="userSpaceOnUse"
     x1="0.44474801"
     x2="5.0130639"
     xlink:href="#b"
     y1="65.441139"
     y2="65.441139"
     gradientTransform="matrix(0.12546719,0,0,0.12595274,0.37266403,0.43796274)" />
  <radialGradient
     id="i"
     cx="64.410706"
     cy="24.828176"
     fx="64.910706"
     fy="18.80681"
     gradientTransform="matrix(0.31371827,8e-8,-4e-8,0.13493647,-12.205296,-2.712707)"
     gradientUnits="userSpaceOnUse"
     r="59.410713"
     xlink:href="#b" />
  <radialGradient
     id="j"
     cx="43.620941"
     cy="42.699898"
     fx="43.034355"
     fy="8.0446291"
     gradientTransform="matrix(0.00603953,0.0064547,-0.00793369,0.00735565,13.761205,1.253162)"
     gradientUnits="userSpaceOnUse"
     r="50.234375"
     xlink:href="#b" />
  <radialGradient
     id="k"
     cx="213.73038"
     cy="94.003212"
     fx="210.86234"
     fy="101.23295"
     gradientTransform="matrix(0.0363386,0.00576328,-0.00686279,0.0062815,6.4362182,0.30611638)"
     gradientUnits="userSpaceOnUse"
     r="26.5"
     spreadMethod="reflect"
     xlink:href="#c" />
  <linearGradient
     id="l"
     gradientTransform="matrix(0.00753623,-0.00168021,0.00151516,0.00737151,13.207211,1.6721747)"
     gradientUnits="userSpaceOnUse"
     x1="17.723173"
     x2="76.596703"
     xlink:href="#b"
     y1="148.57518"
     y2="32.457832" />
  <radialGradient
     id="m"
     cx="43.620941"
     cy="42.699898"
     fx="43.034355"
     fy="8.0446291"
     gradientTransform="matrix(0.00603953,0.0064547,-0.00793369,0.00735565,14.8904,1.253162)"
     gradientUnits="userSpaceOnUse"
     r="50.234375"
     xlink:href="#b" />
  <radialGradient
     id="n"
     cx="213.73038"
     cy="94.003212"
     fx="210.86234"
     fy="101.23295"
     gradientTransform="matrix(0.03429516,0.01406503,-0.00647688,0.01532967,7.9841622,-2.0611502)"
     gradientUnits="userSpaceOnUse"
     r="26.5"
     spreadMethod="reflect"
     xlink:href="#c" />
  <linearGradient
     id="o"
     gradientTransform="matrix(0.00753623,-0.00168021,0.00151516,0.00737151,14.336421,1.6721747)"
     gradientUnits="userSpaceOnUse"
     x1="17.723173"
     x2="76.596703"
     xlink:href="#b"
     y1="148.57518"
     y2="32.457832" />
  <linearGradient
     id="p"
     gradientTransform="matrix(-0.12546719,0,0,0.12595274,16.080429,-0.50952207)"
     gradientUnits="userSpaceOnUse"
     x1="53.875332"
     x2="53.875332"
     xlink:href="#b"
     y1="10.94359"
     y2="18.039442" />
  <radialGradient
     id="q"
     cx="64.25972"
     cy="69.649773"
     gradientTransform="matrix(0.12546719,0,0,0.00432301,-0.15510661,0.84822974)"
     gradientUnits="userSpaceOnUse"
     r="58.197479"
     xlink:href="#b" />
  <radialGradient
     id="r"
     cx="64.25972"
     cy="69.649773"
     gradientTransform="matrix(0.12546719,0,0,0.00432301,-0.05972959,13.867874)"
     gradientUnits="userSpaceOnUse"
     r="58.197479"
     xlink:href="#b" />
  <radialGradient
     id="s"
     cx="64.410713"
     cy="119.97783"
     fx="64.910713"
     fy="113.95647"
     gradientTransform="matrix(0.85558034,6e-8,-1.9e-7,0.40841172,-47.106946,-35.523633)"
     gradientUnits="userSpaceOnUse"
     r="59.410713"
     xlink:href="#b" />
  <linearGradient
     id="t"
     gradientTransform="matrix(0.12546719,0,0,0.12595274,-0.03463612,0.36540026)"
     gradientUnits="userSpaceOnUse"
     x1="191.80267"
     x2="18.801071"
     xlink:href="#b"
     y1="8.9639835"
     y2="48.373058" />
  <linearGradient
     id="u"
     gradientUnits="userSpaceOnUse"
     x1="36.438988"
     x2="106.62901"
     xlink:href="#a"
     y1="37.503155"
     y2="154.72772"
     gradientTransform="matrix(0.14318101,0,0,0.14283138,-1.182397,-0.88295)" />
  <linearGradient
     id="v"
     gradientUnits="userSpaceOnUse"
     x1="34.22554"
     x2="104.41556"
     xlink:href="#a"
     y1="33.518787"
     y2="150.74335"
     gradientTransform="matrix(0.14318101,0,0,0.14283138,-1.182397,7.11705)" />
  <radialGradient
     id="w"
     cx="66.720619"
     cy="68.783691"
     gradientTransform="matrix(0.28162305,2e-8,-2e-8,0.23854959,-10.790063,-7.408323)"
     gradientUnits="userSpaceOnUse"
     r="29.344">
    <stop
       offset="0"
       id="stop42" />
    <stop
       offset="1"
       stop-color="#666"
       id="stop44" />
  </radialGradient>
  <g
     id="g877"
     transform="matrix(1.5002745,0,0,1.5002745,-0.01071221,-12.003294)"
     style="stroke-width:0.66654474">
    <path
       d="M 0.75304815,9.0019092 H 15.250034 c 0.415524,0 0.750043,0.3358141 0.750043,0.7529466 V 22.247055 c 0,0.417131 -0.334519,0.752944 -0.750043,0.752944 H 2.9999999 0.75304815 c -0.41552446,0 -0.75004404,-0.335813 -0.75004404,-0.752944 l -3e-8,-12.4921992 c 0,-0.4171325 0.33451961,-0.7529466 0.75004407,-0.7529466 z"
       id="path47"
       inkscape:connector-curvature="0"
       style="fill:#9d3a9b;stroke-width:0.09531995" />
    <path
       d="M 1.5,12 C 1.2229999,12 1,12.223 1,12.5 v 9 C 1,21.777 1.2229999,22 1.5,22 h 13 c 0.277,0 0.5,-0.223 0.5,-0.5 v -9 C 15,12.223 14.777,12 14.5,12 Z"
       id="path59"
       style="fill:#f0e3ec;fill-opacity:1;stroke-width:0.66654474"
       inkscape:connector-curvature="0" />
    <path
       d="m 2,13 v 1 h 12 v -1 z m 0,2 v 1 h 12 v -1 z m 0,2 v 1 h 12 v -1 z m 0,2 v 1 h 12 v -1 z"
       id="path61"
       style="fill:url(#v);stroke-width:0.09531995"
       inkscape:connector-curvature="0" />
    <ellipse
       style="fill:#e602b4;stroke-width:0.09531995"
       cx="14.896619"
       cy="10.0083"
       rx="0.45994982"
       ry="0.46184227"
       id="ellipse71" />
    <path
       d="m 15.110802,10.366809 c 0.205331,-0.111726 0.287895,-0.362949 0.18419,-0.5660279 -0.02414,-0.047264 -0.05636,-0.087745 -0.09414,-0.1209168 0.03471,0.031123 0.06418,0.068789 0.08654,0.1125847 0.100446,0.196696 0.0175,0.440669 -0.185131,0.544552 -0.202633,0.103883 -0.448637,0.02855 -0.549084,-0.168147 -0.100447,-0.1966966 -0.0175,-0.4406695 0.185132,-0.5445527 0.09577,-0.049101 0.201208,-0.058047 0.296406,-0.033183 -0.101091,-0.027652 -0.21356,-0.01902 -0.315624,0.033304 -0.212529,0.1089567 -0.299523,0.3648426 -0.194171,0.5711457 0.105352,0.206302 0.363367,0.285315 0.575896,0.176359 0.0033,-0.0017 0.0067,-0.0033 0.01,-0.0051 z m -0.06897,-0.7738469 c -0.0023,-6.713e-4 -0.0046,-0.00131 -0.0069,-0.00195 0.0023,5.999e-4 0.0046,0.00131 0.0069,0.00195 z"
       id="path73"
       style="fill:#e602b4;stroke-width:0.09531995"
       inkscape:connector-curvature="0" />
    <rect
       height="0.57023603"
       rx="0.28939229"
       ry="0.28511801"
       style="opacity:0.31147503;fill:#e602b4;stroke:#000000;stroke-width:0.00505749;stroke-linecap:round;stroke-linejoin:round;stroke-dashoffset:4"
       width="0.57878458"
       x="14.61551"
       y="9.6953735"
       id="rect75" />
    <path
       d="m 14.879703,9.5773125 c -0.229147,0.00731 -0.412995,0.1968685 -0.412995,0.4292785 0,0.121562 0.05043,0.231456 0.131176,0.309603 0.276695,-0.09153 0.360987,-0.441894 0.651253,-0.5467723 -0.07644,-0.1158384 -0.20739,-0.1921092 -0.355804,-0.1921092 -0.0046,0 -0.0091,-1.428e-4 -0.01363,0 z"
       id="path77"
       style="opacity:0.57674405;fill:#e602b4;stroke-width:0.09531995"
       inkscape:connector-curvature="0" />
    <ellipse
       style="fill:#e602b4;stroke-width:0.09531995"
       cx="13.767408"
       cy="10.0083"
       rx="0.45994982"
       ry="0.46184227"
       id="ellipse79" />
    <path
       d="m 13.981596,10.366809 c 0.205332,-0.111726 0.287895,-0.362949 0.184191,-0.5660279 -0.02414,-0.047264 -0.05636,-0.087745 -0.09414,-0.1209168 0.03471,0.031123 0.06418,0.068789 0.08654,0.1125847 0.100447,0.196696 0.0175,0.440669 -0.18513,0.544552 -0.202633,0.103883 -0.448635,0.02855 -0.549083,-0.168147 -0.100446,-0.1966966 -0.0175,-0.4406695 0.185131,-0.5445527 0.09578,-0.049101 0.201208,-0.058047 0.296406,-0.033183 -0.10109,-0.027652 -0.21356,-0.01902 -0.315624,0.033304 -0.212527,0.1089567 -0.299523,0.3648426 -0.19417,0.5711457 0.105352,0.206302 0.363365,0.285315 0.575897,0.176359 0.0033,-0.0017 0.0067,-0.0033 0.01,-0.0051 z m -0.06897,-0.7738469 c -0.0023,-6.713e-4 -0.0046,-0.00131 -0.0069,-0.00195 0.0023,5.999e-4 0.0046,0.00131 0.0069,0.00195 z"
       id="path81"
       style="fill:#e602b4;stroke-width:0.09531995"
       inkscape:connector-curvature="0" />
    <rect
       height="0.23366"
       rx="0.063723996"
       ry="0.04075779"
       style="opacity:0.40983599;fill:#e602b4;stroke:#000000;stroke-width:0.00333249;stroke-linecap:round;stroke-linejoin:round;stroke-dashoffset:4"
       width="0.61327034"
       x="13.462692"
       y="9.8453903"
       id="rect83" />
    <path
       d="m 13.750497,9.5773125 c -0.229146,0.00731 -0.412995,0.1968685 -0.412995,0.4292785 0,0.121562 0.05043,0.231456 0.131177,0.309603 0.276695,-0.09153 0.360988,-0.441894 0.651253,-0.5467723 -0.07644,-0.1158384 -0.207391,-0.1921092 -0.355804,-0.1921092 -0.0046,0 -0.0091,-1.428e-4 -0.01363,0 z"
       id="path85"
       style="opacity:0.57674405;fill:#e602b4;stroke-width:0.09531995"
       inkscape:connector-curvature="0" />
    <path
       d="m 2,13 v 1 h 12 v -1 z m 0,2 v 1 h 12 v -1 z m 0,2 v 1 h 12 v -1 z m 0,2 v 1 h 12 v -1 z"
       id="path91"
       style="opacity:0.86000001;fill:#e602b4;fill-opacity:1;stroke-width:0.09531995"
       inkscape:connector-curvature="0" />
    <g
       transform="translate(0,8)"
       id="g97"
       style="stroke-width:0.13721757">
      <path
         d="m 7.0058594,4 a 0.86922754,0.86922754 0 0 0 -0.875,0.8691406 V 5.1308594 H 5.484375 a 0.86922754,0.86922754 0 0 0 -0.1210938,0.00781 C 4.0127103,5.328262 2.9574694,5.949092 2.3007812,6.8027319 1.6440931,7.6563717 1.3892598,8.7041659 1.4570312,9.710935 c 0.1355429,2.013538 1.6177583,4.012787 3.9707032,4.208984 A 0.86922754,0.86922754 0 0 0 6.3222656,13.332028 L 8.5039062,14.8457 a 0.86922754,0.86922754 0 0 0 1.3652344,-0.714844 v -0.261718 h 0.6464844 a 0.86922754,0.86922754 0 0 0 0.121094,-0.0078 c 1.350571,-0.189593 2.405812,-0.810421 3.0625,-1.664062 0.656688,-0.85364 0.911521,-1.901434 0.84375,-2.908203 C 14.407426,7.2755242 12.925211,5.2762736 10.572266,5.0800781 A 0.86922754,0.86922754 0 0 0 9.6777344,5.6679688 L 7.4960938,4.1542969 A 0.86922754,0.86922754 0 0 0 7.0058594,4 Z m 2.6953125,3.34375 a 0.86922754,0.86922754 0 0 0 0.6503901,0.5117188 c 1.150113,0.1994042 1.487966,0.9642897 1.451172,1.7714843 -0.0184,0.4035969 -0.167241,0.7894759 -0.394531,1.0488279 -0.227289,0.259352 -0.507513,0.418687 -0.962891,0.427735 H 9.8691406 V 10.841797 A 0.86922754,0.86922754 0 0 0 8.5039062,10.126953 L 6.2988281,11.65625 A 0.86922754,0.86922754 0 0 0 5.6484375,11.144531 C 4.4983251,10.945127 4.1604722,10.180242 4.1972656,9.3730469 4.2156623,8.9694495 4.3645074,8.583571 4.5917969,8.3242188 4.8190864,8.0648665 5.0993098,7.9055321 5.5546875,7.8964844 h 0.5761719 v 0.2617187 a 0.86922754,0.86922754 0 0 0 1.3652344,0.7148438 z"
         display="block"
         id="path93"
         inkscape:connector-curvature="0"
         style="display:block;fill:#f3b7d9;fill-opacity:1;stroke-width:0.13721757" />
      <path
         d="M 7,4.8691406 V 6 H 5.484375 C 0.83299914,6.6529585 1.7018842,12.737989 5.5,13.054688 V 12 C 2.403487,11.463133 2.7927464,7.0818705 5.5371094,7.0273438 H 7 V 8.1582031 L 9.3710938,6.5136719 Z m 3.5,1.0761719 V 7 c 3.096514,0.5368673 2.707253,4.91813 -0.03711,4.972656 H 9 V 10.841797 L 6.6289062,12.486328 9,14.130859 V 13 h 1.515625 C 15.167001,12.347041 14.298116,6.2620105 10.5,5.9453125 Z"
         display="block"
         id="path95"
         style="display:block;fill:#9d3a9b;stroke-width:0.13721757"
         inkscape:connector-curvature="0" />
    </g>
  </g>
</svg>
