<?xml version="1.0" encoding="UTF-8"?>
<svg xmlns="http://www.w3.org/2000/svg" xmlns:xlink="http://www.w3.org/1999/xlink" width="24px" height="24px" viewBox="0 0 24 24" version="1.1">
<g id="surface1">
<path style="fill-rule:nonzero;fill:rgb(95.294118%,71.764708%,85.09804%);fill-opacity:1;stroke-width:1;stroke-linecap:butt;stroke-linejoin:miter;stroke:rgb(90.196079%,0.784314%,70.588237%);stroke-opacity:1;stroke-miterlimit:4;" d="M 5.375 -14.5 L 10.375 -14.5 C 11.203125 -14.5 11.875 -13.828125 11.875 -13 L 11.875 -8 C 11.875 -7.171875 11.203125 -6.5 10.375 -6.5 L 5.375 -6.5 C 4.546875 -6.5 3.875 -7.171875 3.875 -8 L 3.875 -13 C 3.875 -13.828125 4.546875 -14.5 5.375 -14.5 Z M 5.375 -14.5 " transform="matrix(1.5,0,0,-1.5,0.1875,0)"/>
<path style=" stroke:none;fill-rule:nonzero;fill:rgb(94.117647%,89.019608%,92.54902%);fill-opacity:1;" d="M 11.664062 11.25 C 10.71875 11.253906 9.980469 11.375 9.65625 11.65625 C 9.328125 11.933594 9.164062 12.5 9.164062 13.34375 L 9.164062 13.886719 C 9.164062 14.457031 9.070312 14.878906 8.859375 15.101562 C 8.652344 15.320312 8.40625 15.425781 7.847656 15.425781 L 7.488281 15.425781 L 7.488281 16.261719 L 7.847656 16.261719 C 8.402344 16.261719 8.648438 16.359375 8.859375 16.582031 C 9.070312 16.804688 9.164062 17.1875 9.164062 17.765625 L 9.164062 18.304688 C 9.164062 19.148438 9.328125 19.714844 9.65625 19.996094 C 9.980469 20.273438 10.71875 20.433594 11.664062 20.441406 L 11.664062 19.605469 C 11.125 19.601562 10.457031 19.507812 10.292969 19.339844 C 10.125 19.171875 10.039062 18.816406 10.039062 18.277344 L 10.039062 17.691406 C 10.039062 17.089844 9.960938 16.675781 9.785156 16.402344 C 9.609375 16.132812 9.457031 15.949219 9.023438 15.84375 C 9.453125 15.75 9.601562 15.5625 9.777344 15.289062 C 9.957031 15.019531 10.039062 14.5625 10.039062 13.957031 L 10.039062 13.367188 C 10.039062 12.828125 10.125 12.472656 10.292969 12.304688 C 10.457031 12.136719 11.125 12.085938 11.664062 12.085938 Z M 11.664062 11.25 "/>
<path style=" stroke:none;fill-rule:nonzero;fill:rgb(94.117647%,89.019608%,92.54902%);fill-opacity:1;" d="M 12.710938 11.25 C 13.65625 11.253906 14.394531 11.375 14.71875 11.65625 C 15.046875 11.933594 15.210938 12.5 15.210938 13.34375 L 15.210938 13.886719 C 15.210938 14.457031 15.304688 14.878906 15.515625 15.101562 C 15.722656 15.320312 15.96875 15.425781 16.527344 15.425781 L 16.886719 15.425781 L 16.886719 16.261719 L 16.527344 16.261719 C 15.972656 16.261719 15.726562 16.359375 15.515625 16.582031 C 15.304688 16.804688 15.210938 17.1875 15.210938 17.765625 L 15.210938 18.304688 C 15.210938 19.148438 15.046875 19.714844 14.71875 19.996094 C 14.394531 20.273438 13.65625 20.433594 12.710938 20.441406 L 12.710938 19.605469 C 13.25 19.601562 13.917969 19.507812 14.082031 19.339844 C 14.25 19.171875 14.335938 18.816406 14.335938 18.277344 L 14.335938 17.691406 C 14.335938 17.089844 14.414062 16.675781 14.589844 16.402344 C 14.765625 16.132812 14.917969 15.949219 15.351562 15.84375 C 14.921875 15.75 14.773438 15.5625 14.597656 15.289062 C 14.417969 15.019531 14.335938 14.5625 14.335938 13.957031 L 14.335938 13.367188 C 14.335938 12.828125 14.25 12.472656 14.082031 12.304688 C 13.917969 12.136719 13.25 12.085938 12.710938 12.085938 Z M 12.710938 11.25 "/>
<path style="fill:none;stroke-width:1.303711;stroke-linecap:round;stroke-linejoin:round;stroke:rgb(61.56863%,22.745098%,60.784316%);stroke-opacity:1;stroke-miterlimit:4;" d="M 1.998634 2.999172 L 12.998634 2.999172 " transform="matrix(1.1875,0,0,1.114773,2.505529,1.176136)"/>
<path style="fill:none;stroke-width:1.303711;stroke-linecap:round;stroke-linejoin:round;stroke:rgb(61.56863%,22.745098%,60.784316%);stroke-opacity:1;stroke-miterlimit:4;" d="M 11.998634 0.998344 L 13.998634 2.999172 L 11.998634 5 " transform="matrix(1.1875,0,0,1.114773,2.505529,1.176136)"/>
</g>
</svg>
