<?xml version="1.0" encoding="UTF-8"?>
<svg xmlns="http://www.w3.org/2000/svg" xmlns:xlink="http://www.w3.org/1999/xlink" width="24px" height="24px" viewBox="0 0 24 24" version="1.1">
<g id="surface1">
<path style="fill-rule:evenodd;fill:rgb(94.117647%,89.019608%,92.54902%);fill-opacity:1;stroke-width:1.618348;stroke-linecap:butt;stroke-linejoin:miter;stroke:rgb(90.196079%,0.784314%,70.588237%);stroke-opacity:1;stroke-miterlimit:4;" d="M 2.031021 -4.498739 L 22.007511 -4.498739 C 22.298308 -4.498739 22.538532 -4.258515 22.538532 -3.963504 L 22.538532 11.962901 C 22.538532 12.262126 22.298308 12.498136 22.007511 12.498136 L 2.031021 12.498136 C 1.740224 12.498136 1.5 12.262126 1.5 11.962901 L 1.5 -3.963504 C 1.5 -4.258515 1.740224 -4.498739 2.031021 -4.498739 Z M 2.031021 -4.498739 " transform="matrix(0.926871,0,0,0.926871,0.859694,8.310375)"/>
<path style="fill-rule:nonzero;fill:rgb(94.117647%,89.019608%,92.54902%);fill-opacity:1;stroke-width:0.809174;stroke-linecap:round;stroke-linejoin:round;stroke:rgb(61.56863%,22.745098%,60.784316%);stroke-opacity:1;stroke-miterlimit:4;" d="M 4.281537 -2.749743 L 8.757282 -2.749743 L 8.757282 10.749139 L 4.281537 10.749139 Z M 4.281537 -2.749743 " transform="matrix(0.926871,0,0,0.926871,0.859694,8.310375)"/>
<path style="fill-rule:nonzero;fill:rgb(94.117647%,89.019608%,92.54902%);fill-opacity:1;stroke-width:0.809174;stroke-linecap:round;stroke-linejoin:round;stroke:rgb(61.56863%,22.745098%,60.784316%);stroke-opacity:1;stroke-miterlimit:4;" d="M 15.24332 -2.737099 L 19.744352 -2.737099 L 19.744352 10.765997 L 15.24332 10.765997 Z M 15.24332 -2.737099 " transform="matrix(0.926871,0,0,0.926871,0.859694,8.310375)"/>
<path style="fill:none;stroke-width:1.618349;stroke-linecap:round;stroke-linejoin:miter;stroke:rgb(90.196079%,0.784314%,70.588237%);stroke-opacity:1;stroke-miterlimit:4;" d="M 5.499513 -0.499227 L 7.501376 -0.499227 " transform="matrix(0.926871,0,0,0.926871,0.859694,8.310375)"/>
<path style="fill:none;stroke-width:1.618349;stroke-linecap:round;stroke-linejoin:miter;stroke:rgb(90.196079%,0.784314%,70.588237%);stroke-opacity:1;stroke-miterlimit:4;" d="M 5.499513 3.500286 L 7.501376 3.500286 " transform="matrix(0.926871,0,0,0.926871,0.859694,8.310375)"/>
<path style="fill:none;stroke-width:1.618349;stroke-linecap:round;stroke-linejoin:miter;stroke:rgb(90.196079%,0.784314%,70.588237%);stroke-opacity:1;stroke-miterlimit:4;" d="M 5.499513 7.499799 L 7.501376 7.499799 " transform="matrix(0.926871,0,0,0.926871,0.859694,8.310375)"/>
<path style="fill:none;stroke-width:1.618349;stroke-linecap:round;stroke-linejoin:miter;stroke:rgb(90.196079%,0.784314%,70.588237%);stroke-opacity:1;stroke-miterlimit:4;" d="M 16.499226 -0.499227 L 18.501089 -0.499227 " transform="matrix(0.926871,0,0,0.926871,0.859694,8.310375)"/>
<path style="fill:none;stroke-width:1.618349;stroke-linecap:round;stroke-linejoin:miter;stroke:rgb(90.196079%,0.784314%,70.588237%);stroke-opacity:1;stroke-miterlimit:4;" d="M 16.499226 3.500286 L 18.501089 3.500286 " transform="matrix(0.926871,0,0,0.926871,0.859694,8.310375)"/>
<path style="fill:none;stroke-width:1.618349;stroke-linecap:round;stroke-linejoin:miter;stroke:rgb(90.196079%,0.784314%,70.588237%);stroke-opacity:1;stroke-miterlimit:4;" d="M 16.499226 7.499799 L 18.501089 7.499799 " transform="matrix(0.926871,0,0,0.926871,0.859694,8.310375)"/>
<path style="fill-rule:evenodd;fill:rgb(94.117647%,89.019608%,92.54902%);fill-opacity:1;stroke-width:1.618348;stroke-linecap:round;stroke-linejoin:round;stroke:rgb(90.196079%,0.784314%,70.588237%);stroke-opacity:1;stroke-miterlimit:4;" d="M 15.988377 8.512241 L 20.030034 8.512241 C 21.370229 8.512241 22.457557 9.595355 22.457557 10.939764 L 22.457557 20.072476 C 22.457557 21.412671 21.370229 22.499999 20.030034 22.499999 L 15.988377 22.499999 C 14.648182 22.499999 13.560854 21.412671 13.560854 20.072476 L 13.560854 10.939764 C 13.560854 9.595355 14.648182 8.512241 15.988377 8.512241 Z M 15.988377 8.512241 " transform="matrix(0.926871,0,0,0.926871,0.899591,0.895409)"/>
<path style="fill-rule:evenodd;fill:rgb(95.294118%,71.764708%,85.09804%);fill-opacity:1;stroke-width:1.618348;stroke-linecap:round;stroke-linejoin:round;stroke:rgb(90.196079%,0.784314%,70.588237%);stroke-opacity:1;stroke-miterlimit:4;" d="M 17.927024 11.500286 L 18.074529 11.500286 C 19.414724 11.500286 20.502052 12.587614 20.502052 13.927809 L 20.502052 18.070613 C 20.502052 19.415022 19.414724 20.498136 18.074529 20.498136 L 17.927024 20.498136 C 16.586829 20.498136 15.499501 19.415022 15.499501 18.070613 L 15.499501 13.927809 C 15.499501 12.587614 16.586829 11.500286 17.927024 11.500286 Z M 17.927024 11.500286 " transform="matrix(0.926871,0,0,0.926871,0.899591,0.895409)"/>
<path style="fill:none;stroke-width:1.618349;stroke-linecap:round;stroke-linejoin:round;stroke:rgb(61.56863%,22.745098%,60.784316%);stroke-opacity:1;stroke-miterlimit:4;" d="M 18.420114 14.18489 C 18.420114 14.412471 18.234678 14.597906 18.007098 14.597906 C 17.775303 14.597906 17.589868 14.416685 17.585653 14.189105 C 17.585653 13.965739 17.766874 13.780303 17.994455 13.776089 C 18.226249 13.771874 18.4159 13.948881 18.420114 14.176461 L 18.002884 14.18489 Z M 18.420114 14.18489 " transform="matrix(0.926871,0,0,0.926871,0.899591,0.895409)"/>
<path style="fill:none;stroke-width:1.618349;stroke-linecap:round;stroke-linejoin:round;stroke:rgb(90.196079%,0.784314%,70.588237%);stroke-opacity:1;stroke-miterlimit:4;" d="M 17.948096 16.898996 L 17.948096 19.423451 " transform="matrix(0.926871,0,0,0.926871,0.899591,0.895409)"/>
<path style="fill-rule:evenodd;fill:rgb(94.117647%,89.019608%,92.54902%);fill-opacity:1;stroke-width:1.618348;stroke-linecap:butt;stroke-linejoin:miter;stroke:rgb(90.196079%,0.784314%,70.588237%);stroke-opacity:1;stroke-miterlimit:4;" d="M 2.031021 -4.498739 L 22.007511 -4.498739 C 22.298308 -4.498739 22.538532 -4.258515 22.538532 -3.963504 L 22.538532 11.962901 C 22.538532 12.262126 22.298308 12.498136 22.007511 12.498136 L 2.031021 12.498136 C 1.740224 12.498136 1.5 12.262126 1.5 11.962901 L 1.5 -3.963504 C 1.5 -4.258515 1.740224 -4.498739 2.031021 -4.498739 Z M 2.031021 -4.498739 " transform="matrix(0.926871,0,0,0.926871,0.859694,8.310375)"/>
<path style="fill-rule:nonzero;fill:rgb(94.117647%,89.019608%,92.54902%);fill-opacity:1;stroke-width:0.809174;stroke-linecap:round;stroke-linejoin:round;stroke:rgb(61.56863%,22.745098%,60.784316%);stroke-opacity:1;stroke-miterlimit:4;" d="M 4.281537 -2.749743 L 8.757282 -2.749743 L 8.757282 10.749139 L 4.281537 10.749139 Z M 4.281537 -2.749743 " transform="matrix(0.926871,0,0,0.926871,0.859694,8.310375)"/>
<path style="fill-rule:nonzero;fill:rgb(94.117647%,89.019608%,92.54902%);fill-opacity:1;stroke-width:0.809174;stroke-linecap:round;stroke-linejoin:round;stroke:rgb(61.56863%,22.745098%,60.784316%);stroke-opacity:1;stroke-miterlimit:4;" d="M 15.24332 -2.737099 L 19.744352 -2.737099 L 19.744352 10.765997 L 15.24332 10.765997 Z M 15.24332 -2.737099 " transform="matrix(0.926871,0,0,0.926871,0.859694,8.310375)"/>
<path style="fill:none;stroke-width:1.618349;stroke-linecap:round;stroke-linejoin:miter;stroke:rgb(90.196079%,0.784314%,70.588237%);stroke-opacity:1;stroke-miterlimit:4;" d="M 5.499513 -0.499227 L 7.501376 -0.499227 " transform="matrix(0.926871,0,0,0.926871,0.859694,8.310375)"/>
<path style="fill:none;stroke-width:1.618349;stroke-linecap:round;stroke-linejoin:miter;stroke:rgb(90.196079%,0.784314%,70.588237%);stroke-opacity:1;stroke-miterlimit:4;" d="M 5.499513 3.500286 L 7.501376 3.500286 " transform="matrix(0.926871,0,0,0.926871,0.859694,8.310375)"/>
<path style="fill:none;stroke-width:1.618349;stroke-linecap:round;stroke-linejoin:miter;stroke:rgb(90.196079%,0.784314%,70.588237%);stroke-opacity:1;stroke-miterlimit:4;" d="M 5.499513 7.499799 L 7.501376 7.499799 " transform="matrix(0.926871,0,0,0.926871,0.859694,8.310375)"/>
<path style="fill:none;stroke-width:1.618349;stroke-linecap:round;stroke-linejoin:miter;stroke:rgb(90.196079%,0.784314%,70.588237%);stroke-opacity:1;stroke-miterlimit:4;" d="M 16.499226 -0.499227 L 18.501089 -0.499227 " transform="matrix(0.926871,0,0,0.926871,0.859694,8.310375)"/>
<path style="fill:none;stroke-width:1.618349;stroke-linecap:round;stroke-linejoin:miter;stroke:rgb(90.196079%,0.784314%,70.588237%);stroke-opacity:1;stroke-miterlimit:4;" d="M 16.499226 3.500286 L 18.501089 3.500286 " transform="matrix(0.926871,0,0,0.926871,0.859694,8.310375)"/>
<path style="fill:none;stroke-width:1.618349;stroke-linecap:round;stroke-linejoin:miter;stroke:rgb(90.196079%,0.784314%,70.588237%);stroke-opacity:1;stroke-miterlimit:4;" d="M 16.499226 7.499799 L 18.501089 7.499799 " transform="matrix(0.926871,0,0,0.926871,0.859694,8.310375)"/>
<path style="fill-rule:evenodd;fill:rgb(94.117647%,89.019608%,92.54902%);fill-opacity:1;stroke-width:1.618348;stroke-linecap:round;stroke-linejoin:round;stroke:rgb(90.196079%,0.784314%,70.588237%);stroke-opacity:1;stroke-miterlimit:4;" d="M 16.031422 0.512241 L 20.073079 0.512241 C 21.413274 0.512241 22.500602 1.595355 22.500602 2.939764 L 22.500602 12.072476 C 22.500602 13.412671 21.413274 14.499999 20.073079 14.499999 L 16.031422 14.499999 C 14.691227 14.499999 13.603899 13.412671 13.603899 12.072476 L 13.603899 2.939764 C 13.603899 1.595355 14.691227 0.512241 16.031422 0.512241 Z M 16.031422 0.512241 " transform="matrix(0.926871,0,0,0.926871,0.859694,8.310375)"/>
<path style="fill-rule:evenodd;fill:rgb(95.294118%,71.764708%,85.09804%);fill-opacity:1;stroke-width:1.618348;stroke-linecap:round;stroke-linejoin:round;stroke:rgb(90.196079%,0.784314%,70.588237%);stroke-opacity:1;stroke-miterlimit:4;" d="M 16.785808 3.500286 L 19.301835 3.500286 C 19.98879 3.500286 20.545097 4.077666 20.545097 4.789908 L 20.545097 11.208514 C 20.545097 11.920756 19.98879 12.498136 19.301835 12.498136 L 16.785808 12.498136 C 16.098853 12.498136 15.542546 11.920756 15.542546 11.208514 L 15.542546 4.789908 C 15.542546 4.077666 16.098853 3.500286 16.785808 3.500286 Z M 16.785808 3.500286 " transform="matrix(0.926871,0,0,0.926871,0.859694,8.310375)"/>
<path style="fill:none;stroke-width:1.618349;stroke-linecap:round;stroke-linejoin:round;stroke:rgb(61.56863%,22.745098%,60.784316%);stroke-opacity:1;stroke-miterlimit:4;" d="M 18.463159 6.18489 C 18.463159 6.412471 18.277723 6.597906 18.050143 6.597906 C 17.818348 6.597906 17.632913 6.416685 17.628698 6.189105 C 17.628698 5.965739 17.809919 5.780303 18.0375 5.776089 C 18.269294 5.771874 18.458945 5.948881 18.463159 6.176461 L 18.045929 6.18489 Z M 18.463159 6.18489 " transform="matrix(0.926871,0,0,0.926871,0.859694,8.310375)"/>
<path style="fill:none;stroke-width:1.618349;stroke-linecap:round;stroke-linejoin:round;stroke:rgb(90.196079%,0.784314%,70.588237%);stroke-opacity:1;stroke-miterlimit:4;" d="M 17.991141 8.898996 L 17.991141 10.454128 " transform="matrix(0.926871,0,0,0.926871,0.859694,8.310375)"/>
</g>
</svg>
