<?xml version="1.0" encoding="UTF-8" standalone="no"?>
<svg
   xmlns:dc="http://purl.org/dc/elements/1.1/"
   xmlns:cc="http://creativecommons.org/ns#"
   xmlns:rdf="http://www.w3.org/1999/02/22-rdf-syntax-ns#"
   xmlns:svg="http://www.w3.org/2000/svg"
   xmlns="http://www.w3.org/2000/svg"
   xmlns:xlink="http://www.w3.org/1999/xlink"
   xmlns:sodipodi="http://sodipodi.sourceforge.net/DTD/sodipodi-0.dtd"
   xmlns:inkscape="http://www.inkscape.org/namespaces/inkscape"
   height="24"
   width="24"
   version="1.1"
   id="svg32"
   sodipodi:docname="lc_mergedocuments.svg"
   inkscape:version="0.92.4 (unknown)"
   inkscape:export-filename="/home/annisaauliarasyidah/Desktop/4_242 (aulia)/lc 222/lc_mergedocuments.png"
   inkscape:export-xdpi="96"
   inkscape:export-ydpi="96">
  <metadata
     id="metadata38">
    <rdf:RDF>
      <cc:Work
         rdf:about="">
        <dc:format>image/svg+xml</dc:format>
        <dc:type
           rdf:resource="http://purl.org/dc/dcmitype/StillImage" />
        <dc:title></dc:title>
      </cc:Work>
    </rdf:RDF>
  </metadata>
  <defs
     id="defs36" />
  <sodipodi:namedview
     pagecolor="#ffffff"
     bordercolor="#666666"
     borderopacity="1"
     objecttolerance="10"
     gridtolerance="10"
     guidetolerance="10"
     inkscape:pageopacity="0"
     inkscape:pageshadow="2"
     inkscape:window-width="1366"
     inkscape:window-height="707"
     id="namedview34"
     showgrid="true"
     inkscape:zoom="11.36688"
     inkscape:cx="-8.8018954"
     inkscape:cy="7.4576271"
     inkscape:window-x="0"
     inkscape:window-y="0"
     inkscape:window-maximized="1"
     inkscape:current-layer="svg32">
    <inkscape:grid
       type="xygrid"
       id="grid848" />
  </sodipodi:namedview>
  <linearGradient
     id="a">
    <stop
       offset="0"
       stop-color="#fff"
       id="stop2" />
    <stop
       offset="1"
       stop-color="#fff"
       stop-opacity="0"
       id="stop4" />
  </linearGradient>
  <radialGradient
     id="b"
     cx="37.332401"
     cy="88.615318"
     gradientTransform="matrix(0.25105634,0,0,0.23784881,-4.8723609,-11.744023)"
     gradientUnits="userSpaceOnUse"
     r="50.665401"
     xlink:href="#a" />
  <radialGradient
     id="c"
     cx="37.317635"
     cy="89.172394"
     gradientTransform="matrix(0.59649878,0,0,0.56511826,-15.759799,-35.726724)"
     gradientUnits="userSpaceOnUse"
     r="50.665401">
    <stop
       offset="0"
       stop-color="#009fc6"
       id="stop8" />
    <stop
       offset="1"
       stop-color="#cbf5ff"
       id="stop10" />
  </radialGradient>
  <radialGradient
     id="d"
     cx="37.332401"
     cy="73.837425"
     gradientTransform="matrix(0.2379707,0,0,0.22545158,-4.3838426,-10.646988)"
     gradientUnits="userSpaceOnUse"
     r="50.665401">
    <stop
       offset="0"
       stop-color="#5df"
       id="stop13" />
    <stop
       offset=".83492261"
       stop-color="#c7ecf4"
       id="stop15" />
    <stop
       offset="1"
       stop-color="#d8edf2"
       id="stop17" />
  </radialGradient>
  <linearGradient
     id="e"
     gradientTransform="scale(1.0543552,1)"
     gradientUnits="userSpaceOnUse"
     x1="21.3328"
     x2="10.6664"
     xlink:href="#a"
     y1="64.001602"
     y2="64.001602" />
  <mask
     id="f"
     maskUnits="userSpaceOnUse">
    <path
       d="M 0,5.3364 H 129.33101 V 122.6668 H 0 Z"
       id="path21"
       inkscape:connector-curvature="0"
       style="fill:url(#e)" />
  </mask>
  <g
     id="g833"
     transform="matrix(1.5713768,0,0,1.5713768,-0.63936738,-0.57065805)"
     style="stroke-width:0.63638461">
    <path
       sodipodi:nodetypes="ccccccccccccccccccccccccccccccccccsccccccccc"
       d="m 1.1656562,1.0000132 0.023926,4.875e-4 c -0.026402,-0.001269 -0.052699,-0.001269 -0.079101,0 -0.00807,3.75e-4 -0.016128,9.5e-4 -0.02417,0.00171 -0.44170051,0.042756 -0.75029712,0.3838756 -0.74877925,0.8276377 v 2.3417969 7.375e-4 C 0.338115,4.6468551 0.69045086,4.9991904 1.1649239,4.9997742 h 7.375e-4 L 4,5 4.6546699,4.9997743 6.583625,8.3115368 4.6805489,11.000013 4,11 l -2.8343438,1.3e-5 h -7.375e-4 c -0.47446879,5.88e-4 -0.82680853,0.35292 -0.82739257,0.827393 -1.242e-5,0.002 -1.242e-5,0.0041 0,0.0061 l 0.0249023,2.339111 c 5.8375e-4,0.474474 0.35291819,0.826809 0.82739257,0.827393 h 7.375e-4 4.7680665 c 0.6094359,-4.9e-5 1.182234,-0.303668 1.5214844,-0.8125 l 2.2185059,-3.687501 h 1.3012697 c -6e-6,0.0014 -6e-6,0.0028 0,0.0042 0.0028,0.332365 0.184927,1.110731 0.486816,1.247559 0.301884,0.136825 0.631402,0.08971 0.882569,-0.126709 2.5e-4,-2.5e-4 5e-4,-4.88e-4 7.5e-4,-7.38e-4 l 3.084711,-2.6684511 c 0.0014,-0.00121 0.0028,-0.00243 0.0041,-0.00366 0.387533,-0.3427334 0.387533,-0.8984777 0,-1.241211 L 12.381232,4.883314 c -0.0039,-0.00365 -0.0079,-0.00723 -0.01196,-0.010743 -0.251167,-0.216419 -0.580684,-0.2635341 -0.882568,-0.126709 -0.301884,0.1368251 -0.483995,0.915163 -0.486817,1.2475586 -6e-6,0.00138 -6e-6,0.00277 0,0.00415 v 0.00244 L 10,6 7.5233246,1.8852646 7.5450536,1.9199326 C 7.2199173,1.3509568 6.6127168,1.0007574 5.9591136,1.0000124 h -4.875e-4 z"
       id="path24"
       style="fill:#e602b4;stroke-width:0.07954808"
       inkscape:connector-curvature="0" />
    <path
       d="M 1.166925,2 V 4 H 5.2555 l 2.577925,4.33305 c 0.03541,0.061511 -0.047608,-0.05264 0,0 -0.031137,0.034406 0.026062,-0.038393 0,0 L 5.2984687,11.999875 H 1.166925 v 2 h 4.6667 c 0.3275909,-2.6e-5 0.6503061,-0.172747 0.8320312,-0.445313 L 9.03675,9.499875 12,9.5 v 1.16665 L 14.6666,8.333375 12,5.83335 V 7 L 9,7.0010875 6.7008125,2.5039063 C 6.5270614,2.1998455 6.1838282,2.0003991 5.833625,2 Z"
       id="path26"
       style="fill:#f3b7d9;fill-opacity:1;stroke-width:0.07954808"
       inkscape:connector-curvature="0" />
  </g>
</svg>
