<?xml version="1.0" encoding="UTF-8"?>
<svg xmlns="http://www.w3.org/2000/svg" xmlns:xlink="http://www.w3.org/1999/xlink" width="24px" height="24px" viewBox="0 0 24 24" version="1.1">
<g id="surface1">
<path style="fill-rule:nonzero;fill:rgb(94.117647%,89.019608%,92.54902%);fill-opacity:1;stroke-width:1;stroke-linecap:butt;stroke-linejoin:miter;stroke:rgb(90.196079%,0.784314%,70.588237%);stroke-opacity:1;stroke-miterlimit:4;" d="M 2.109375 3.5 L 13.890625 3.5 C 14.229167 3.5 14.5 3.768229 14.5 4.101562 L 14.5 14.065104 C 14.5 14.395833 14.229167 14.664062 13.890625 14.664062 L 2.109375 14.664062 C 1.770833 14.664062 1.5 14.395833 1.5 14.065104 L 1.5 4.101562 C 1.5 3.768229 1.770833 3.5 2.109375 3.5 Z M 2.109375 3.5 " transform="matrix(1.5,0,0,1.5,0,0)"/>
<path style="fill:none;stroke-width:1;stroke-linecap:round;stroke-linejoin:miter;stroke:rgb(90.196079%,0.784314%,70.588237%);stroke-opacity:1;stroke-miterlimit:4;" d="M 3.5 7.5 L 12.5 7.5 " transform="matrix(1.5,0,0,1.5,0,0)"/>
<path style="fill:none;stroke-width:1;stroke-linecap:round;stroke-linejoin:miter;stroke:rgb(90.196079%,0.784314%,70.588237%);stroke-opacity:1;stroke-miterlimit:4;" d="M 3.5 9.5 L 12.5 9.5 " transform="matrix(1.5,0,0,1.5,0,0)"/>
<path style="fill:none;stroke-width:1;stroke-linecap:round;stroke-linejoin:miter;stroke:rgb(90.196079%,0.784314%,70.588237%);stroke-opacity:1;stroke-miterlimit:4;" d="M 3.5 11.5 L 12.5 11.5 " transform="matrix(1.5,0,0,1.5,0,0)"/>
<path style="fill:none;stroke-width:1.5;stroke-linecap:round;stroke-linejoin:round;stroke:rgb(94.117647%,89.019608%,92.54902%);stroke-opacity:1;stroke-miterlimit:4;" d="M -19.711089 0.570746 C -20.513146 -0.675154 -20.384578 -2.337836 -19.399281 -3.429911 C -18.411431 -4.522503 -16.834843 -4.753801 -15.600761 -3.985877 " transform="matrix(1.470211,0.297455,-0.297455,1.470211,36.430484,20.363879)"/>
<path style="fill:none;stroke-width:1.5;stroke-linecap:round;stroke-linejoin:round;stroke:rgb(94.117647%,89.019608%,92.54902%);stroke-opacity:1;stroke-miterlimit:4;" d="M 2.780923 17.624439 C 1.979335 16.378564 2.110144 14.714989 3.093751 13.62306 C 4.079955 12.530956 5.659121 12.299426 6.893137 13.067279 " transform="matrix(-0.100693,-1.496616,-1.496616,0.100693,36.430484,20.363879)"/>
<path style="fill:none;stroke-width:1.5;stroke-linecap:round;stroke-linejoin:round;stroke:rgb(94.117647%,89.019608%,92.54902%);stroke-opacity:1;stroke-miterlimit:4;" d="M -14.701052 -4.859773 L -13.461468 -6.169669 L -11.573448 -5.33894 " transform="matrix(1.5,0,0,1.5,36.430484,20.363879)"/>
<path style="fill:none;stroke-width:1.5;stroke-linecap:round;stroke-linejoin:round;stroke:rgb(94.117647%,89.019608%,92.54902%);stroke-opacity:1;stroke-miterlimit:4;" d="M -18.232302 -4.294669 L -18.940635 -2.635815 L -20.997927 -2.760815 " transform="matrix(1.5,0,0,1.5,36.430484,20.363879)"/>
<path style="fill:none;stroke-width:1;stroke-linecap:round;stroke-linejoin:round;stroke:rgb(61.56863%,22.745098%,60.784316%);stroke-opacity:1;stroke-miterlimit:4;" d="M -19.711089 0.570746 C -20.513146 -0.675154 -20.384578 -2.337836 -19.399281 -3.429911 C -18.411431 -4.522503 -16.834843 -4.753801 -15.600761 -3.985877 " transform="matrix(1.470211,0.297455,-0.297455,1.470211,36.430484,20.363879)"/>
<path style="fill:none;stroke-width:1;stroke-linecap:round;stroke-linejoin:round;stroke:rgb(61.56863%,22.745098%,60.784316%);stroke-opacity:1;stroke-miterlimit:4;" d="M 2.780923 17.624439 C 1.979335 16.378564 2.110144 14.714989 3.093751 13.62306 C 4.079955 12.530956 5.659121 12.299426 6.893137 13.067279 " transform="matrix(-0.100693,-1.496616,-1.496616,0.100693,36.430484,20.363879)"/>
<path style="fill:none;stroke-width:1;stroke-linecap:round;stroke-linejoin:round;stroke:rgb(61.56863%,22.745098%,60.784316%);stroke-opacity:1;stroke-miterlimit:4;" d="M -14.701052 -4.859773 L -13.461468 -6.169669 L -11.573448 -5.33894 " transform="matrix(1.5,0,0,1.5,36.430484,20.363879)"/>
<path style="fill:none;stroke-width:1;stroke-linecap:round;stroke-linejoin:round;stroke:rgb(61.56863%,22.745098%,60.784316%);stroke-opacity:1;stroke-miterlimit:4;" d="M -18.232302 -4.294669 L -18.940635 -2.635815 L -20.997927 -2.760815 " transform="matrix(1.5,0,0,1.5,36.430484,20.363879)"/>
</g>
</svg>
