<?xml version="1.0" encoding="UTF-8"?>
<svg xmlns="http://www.w3.org/2000/svg" xmlns:xlink="http://www.w3.org/1999/xlink" width="24px" height="24px" viewBox="0 0 24 24" version="1.1">
<defs>
<clipPath id="clip1">
  <path d="M 8 2 L 19 2 L 19 9 L 8 9 Z M 8 2 "/>
</clipPath>
<clipPath id="clip2">
  <path d="M 7.636719 3.433594 L 5 13.976562 C 4.910156 14.339844 5.128906 14.636719 5.496094 14.636719 L 14.71875 14.636719 C 15.082031 14.636719 15.453125 14.339844 15.542969 13.976562 L 18.179688 3.433594 C 18.269531 3.070312 18.046875 2.777344 17.683594 2.777344 L 8.460938 2.777344 C 8.09375 2.777344 7.726562 3.070312 7.636719 3.433594 Z M 7.636719 3.433594 "/>
</clipPath>
<clipPath id="clip3">
  <path d="M 10 2 L 19 2 L 19 7 L 10 7 Z M 10 2 "/>
</clipPath>
<clipPath id="clip4">
  <path d="M 7.636719 3.433594 L 5 13.976562 C 4.910156 14.339844 5.128906 14.636719 5.496094 14.636719 L 14.71875 14.636719 C 15.082031 14.636719 15.453125 14.339844 15.542969 13.976562 L 18.179688 3.433594 C 18.269531 3.070312 18.046875 2.777344 17.683594 2.777344 L 8.460938 2.777344 C 8.09375 2.777344 7.726562 3.070312 7.636719 3.433594 Z M 7.636719 3.433594 "/>
</clipPath>
</defs>
<g id="surface1">
<path style=" stroke:none;fill-rule:nonzero;fill:rgb(90.196079%,0.784314%,70.588237%);fill-opacity:1;" d="M 6.773438 2.207031 L 3.230469 15.203125 C 3.117188 15.617188 3.359375 15.953125 3.773438 15.953125 L 15.453125 15.953125 C 15.867188 15.953125 16.292969 15.617188 16.40625 15.203125 L 19.949219 2.207031 C 20.0625 1.792969 19.820312 1.457031 19.40625 1.457031 L 7.726562 1.457031 C 7.3125 1.457031 6.886719 1.792969 6.773438 2.207031 Z M 6.773438 2.207031 "/>
<path style=" stroke:none;fill-rule:nonzero;fill:rgb(94.117647%,89.019608%,92.54902%);fill-opacity:1;" d="M 7.636719 3.433594 L 5 13.976562 C 4.910156 14.339844 5.128906 14.636719 5.496094 14.636719 L 14.71875 14.636719 C 15.082031 14.636719 15.453125 14.339844 15.542969 13.976562 L 18.179688 3.433594 C 18.269531 3.070312 18.046875 2.777344 17.683594 2.777344 L 8.460938 2.777344 C 8.09375 2.777344 7.726562 3.070312 7.636719 3.433594 Z M 7.636719 3.433594 "/>
<path style=" stroke:none;fill-rule:nonzero;fill:rgb(61.56863%,22.745098%,60.784316%);fill-opacity:0.975;" d="M 14.875 22.542969 C 18.148438 22.542969 20.800781 19.890625 20.800781 16.617188 C 20.800781 13.347656 18.148438 10.695312 14.875 10.695312 C 11.605469 10.695312 8.953125 13.347656 8.953125 16.617188 C 8.953125 19.890625 11.605469 22.542969 14.875 22.542969 Z M 14.875 22.542969 "/>
<path style=" stroke:none;fill-rule:nonzero;fill:rgb(95.294118%,71.764708%,85.09804%);fill-opacity:1;" d="M 14.875 21.21875 C 17.417969 21.21875 19.476562 19.160156 19.476562 16.617188 C 19.476562 14.078125 17.417969 12.015625 14.875 12.015625 C 12.335938 12.015625 10.273438 14.078125 10.273438 16.617188 C 10.273438 19.160156 12.335938 21.21875 14.875 21.21875 Z M 14.875 21.21875 "/>
<g clip-path="url(#clip1)" clip-rule="nonzero">
<g clip-path="url(#clip2)" clip-rule="nonzero">
<path style=" stroke:none;fill-rule:nonzero;fill:rgb(85.490197%,60.784316%,85.09804%);fill-opacity:0.975;" d="M 14.875 8.035156 C 18.148438 8.035156 20.800781 5.382812 20.800781 2.109375 C 20.800781 -1.160156 18.148438 -3.8125 14.875 -3.8125 C 11.605469 -3.8125 8.953125 -1.160156 8.953125 2.109375 C 8.953125 5.382812 11.605469 8.035156 14.875 8.035156 Z M 14.875 8.035156 "/>
</g>
</g>
<g clip-path="url(#clip3)" clip-rule="nonzero">
<g clip-path="url(#clip4)" clip-rule="nonzero">
<path style=" stroke:none;fill-rule:nonzero;fill:rgb(91.764706%,78.039217%,78.039217%);fill-opacity:1;" d="M 14.875 6.710938 C 17.417969 6.710938 19.476562 4.652344 19.476562 2.109375 C 19.476562 -0.429688 17.417969 -2.492188 14.875 -2.492188 C 12.335938 -2.492188 10.273438 -0.429688 10.273438 2.109375 C 10.273438 4.652344 12.335938 6.710938 14.875 6.710938 Z M 14.875 6.710938 "/>
</g>
</g>
</g>
</svg>
