<?xml version="1.0" encoding="UTF-8"?>
<svg xmlns="http://www.w3.org/2000/svg" xmlns:xlink="http://www.w3.org/1999/xlink" width="24px" height="24px" viewBox="0 0 24 24" version="1.1">
<defs>
<filter id="alpha" filterUnits="objectBoundingBox" x="0%" y="0%" width="100%" height="100%">
  <feColorMatrix type="matrix" in="SourceGraphic" values="0 0 0 0 1 0 0 0 0 1 0 0 0 0 1 0 0 0 1 0"/>
</filter>
<mask id="mask0">
  <g filter="url(#alpha)">
<rect x="0" y="0" width="24" height="24" style="fill:rgb(0%,0%,0%);fill-opacity:0.905263;stroke:none;"/>
  </g>
</mask>
<clipPath id="clip1">
  <rect x="0" y="0" width="24" height="24"/>
</clipPath>
<g id="surface5" clip-path="url(#clip1)">
<path style="fill-rule:evenodd;fill:rgb(95.294118%,71.764708%,85.09804%);fill-opacity:1;stroke-width:16.621611;stroke-linecap:butt;stroke-linejoin:miter;stroke:rgb(61.56863%,22.745098%,60.784316%);stroke-opacity:1;stroke-miterlimit:4;" d="M 90.904818 -0.381765 C 88.264406 -0.295194 85.623994 0.570515 83.416436 2.172077 L 12.817876 53.854897 C 9.701324 56.149026 7.580337 59.871574 7.580337 63.983691 C 7.580337 68.139094 9.701324 71.861642 12.817876 74.112485 L 83.416436 125.795306 C 87.398697 128.695431 92.376523 129.128285 96.705067 127.223726 C 100.990326 125.362452 104.409877 120.947336 104.409877 115.709798 L 104.409877 12.300871 C 104.409877 8.621608 102.721744 5.202058 100.167903 2.951215 C 97.44092 0.52723 94.151226 -0.468336 90.904818 -0.381765 Z M 90.904818 -0.381765 " transform="matrix(0,-0.090244,-0.090244,0,21.731173,22.273923)"/>
</g>
</defs>
<g id="surface1">
<path style=" stroke:none;fill-rule:nonzero;fill:rgb(90.196079%,0.784314%,70.588237%);fill-opacity:1;" d="M 4.582031 1.5625 L 19.582031 1.5625 C 20.410156 1.5625 21.082031 2.234375 21.082031 3.0625 L 21.082031 21.0625 C 21.082031 21.890625 20.410156 22.5625 19.582031 22.5625 L 4.582031 22.5625 C 3.753906 22.5625 3.082031 21.890625 3.082031 21.0625 L 3.082031 3.0625 C 3.082031 2.234375 3.753906 1.5625 4.582031 1.5625 Z M 4.582031 1.5625 "/>
<path style=" stroke:none;fill-rule:nonzero;fill:rgb(94.117647%,89.019608%,92.54902%);fill-opacity:1;" d="M 6.082031 3.0625 L 18.082031 3.0625 C 18.910156 3.0625 19.582031 3.734375 19.582031 4.5625 L 19.582031 19.5625 C 19.582031 20.390625 18.910156 21.0625 18.082031 21.0625 L 6.082031 21.0625 C 5.253906 21.0625 4.582031 20.390625 4.582031 19.5625 L 4.582031 4.5625 C 4.582031 3.734375 5.253906 3.0625 6.082031 3.0625 Z M 6.082031 3.0625 "/>
<path style="fill-rule:evenodd;fill:rgb(90.196079%,0.784314%,70.588237%);fill-opacity:1;stroke-width:16.621611;stroke-linecap:butt;stroke-linejoin:miter;stroke:rgb(61.56863%,22.745098%,60.784316%);stroke-opacity:1;stroke-miterlimit:4;" d="M 90.904818 -0.0787666 C 88.350977 0.00780427 85.75385 0.873513 83.632863 2.431789 L 12.991018 54.11461 C 9.961037 56.365453 7.883335 59.958145 7.883335 63.983691 C 7.883335 68.052523 9.961037 71.645215 12.991018 73.896058 L 83.632863 125.578879 C 87.485268 128.392433 92.376523 128.825287 96.575211 126.964013 C 100.773899 125.102739 104.106878 120.81748 104.106878 115.709798 L 104.106878 12.300871 C 104.106878 8.708179 102.462032 5.375199 99.951476 3.167642 C 97.311064 0.830228 94.064655 -0.165338 90.904818 -0.0787666 Z M 42.381834 63.983691 L 42.381834 90.1281 L 41.862409 63.983691 Z M 42.381834 63.983691 " transform="matrix(0,-0.090244,-0.090244,0,21.731173,22.273923)"/>
<use xlink:href="#surface5" mask="url(#mask0)"/>
<path style=" stroke:none;fill-rule:nonzero;fill:rgb(90.196079%,0.784314%,70.588237%);fill-opacity:1;" d="M 6.832031 7.5625 L 17.332031 7.5625 C 17.746094 7.5625 18.082031 7.898438 18.082031 8.3125 C 18.082031 8.726562 17.746094 9.0625 17.332031 9.0625 L 6.832031 9.0625 C 6.417969 9.0625 6.082031 8.726562 6.082031 8.3125 C 6.082031 7.898438 6.417969 7.5625 6.832031 7.5625 Z M 6.832031 7.5625 "/>
<path style="fill-rule:nonzero;fill:rgb(61.56863%,22.745098%,60.784316%);fill-opacity:1;stroke-width:0.25;stroke-linecap:butt;stroke-linejoin:miter;stroke:rgb(61.56863%,22.745098%,60.784316%);stroke-opacity:1;stroke-miterlimit:4;" d="M 9.984375 3.34375 C 10.015625 3.007812 10.257812 2.763021 10.5625 2.763021 C 10.765625 2.763021 10.950521 2.869792 11.054688 3.041667 C 11.15625 2.869792 11.333333 2.763021 11.533854 2.763021 C 11.835938 2.763021 12.080729 3.007812 12.109375 3.34375 C 12.111979 3.359375 12.122396 3.4375 12.091146 3.565104 C 12.046875 3.747396 11.945312 3.916667 11.796875 4.046875 L 11.054688 4.708333 L 10.299479 4.046875 C 10.151042 3.916667 10.046875 3.747396 10.002604 3.565104 C 9.973958 3.4375 9.981771 3.359375 9.984375 3.34375 Z M 10.083333 3.546875 C 10.122396 3.713542 10.216146 3.867188 10.354167 3.986979 L 11.054688 4.601562 L 11.742188 3.989583 C 11.877604 3.867188 11.971354 3.713542 12.013021 3.546875 C 12.041667 3.424479 12.028646 3.356771 12.028646 3.356771 L 12.028646 3.351562 C 12.002604 3.057292 11.794271 2.84375 11.533854 2.84375 C 11.341146 2.84375 11.171875 2.960938 11.091146 3.145833 L 11.054688 3.234375 L 11.015625 3.145833 C 10.9375 2.963542 10.757812 2.84375 10.5625 2.84375 C 10.302083 2.84375 10.09375 3.057292 10.065104 3.356771 C 10.065104 3.356771 10.054688 3.424479 10.083333 3.546875 Z M 10.083333 3.546875 " transform="matrix(1.5,0,0,1.5,0,0)"/>
</g>
</svg>
