<?xml version="1.0" encoding="UTF-8"?>
<svg xmlns="http://www.w3.org/2000/svg" xmlns:xlink="http://www.w3.org/1999/xlink" width="24px" height="24px" viewBox="0 0 24 24" version="1.1">
<defs>
<filter id="alpha" filterUnits="objectBoundingBox" x="0%" y="0%" width="100%" height="100%">
  <feColorMatrix type="matrix" in="SourceGraphic" values="0 0 0 0 1 0 0 0 0 1 0 0 0 0 1 0 0 0 1 0"/>
</filter>
<mask id="mask0">
  <g filter="url(#alpha)">
<rect x="0" y="0" width="24" height="24" style="fill:rgb(0%,0%,0%);fill-opacity:0.905263;stroke:none;"/>
  </g>
</mask>
<clipPath id="clip1">
  <rect x="0" y="0" width="24" height="24"/>
</clipPath>
<g id="surface5" clip-path="url(#clip1)">
<path style="fill-rule:evenodd;fill:rgb(95.294118%,71.764708%,85.09804%);fill-opacity:1;stroke-width:16.621611;stroke-linecap:butt;stroke-linejoin:miter;stroke:rgb(61.56863%,22.745098%,60.784316%);stroke-opacity:1;stroke-miterlimit:4;" d="M 90.939188 -0.349306 C 88.255491 -0.30602 85.615078 0.559688 83.450806 2.204535 L 12.808961 53.887356 C 9.692409 56.138199 7.614707 59.860747 7.614707 64.01615 C 7.614707 68.128267 9.692409 71.850816 12.808961 74.144944 L 83.450806 125.827765 C 87.389782 128.72789 92.367608 129.117459 96.696152 127.212899 C 100.981411 125.351625 104.400961 120.93651 104.400961 115.698971 L 104.400961 12.290044 C 104.400961 8.610781 102.712829 5.234516 100.158988 2.940388 C 97.47529 0.559688 94.142311 -0.435877 90.939188 -0.349306 Z M 90.939188 -0.349306 " transform="matrix(0,0.090244,-0.090244,0,20.394258,1.535475)"/>
</g>
</defs>
<g id="surface1">
<path style=" stroke:none;fill-rule:nonzero;fill:rgb(90.196079%,0.784314%,70.588237%);fill-opacity:1;" d="M 4.703125 1.398438 L 19.703125 1.398438 C 20.53125 1.398438 21.203125 2.070312 21.203125 2.898438 L 21.203125 20.898438 C 21.203125 21.726562 20.53125 22.398438 19.703125 22.398438 L 4.703125 22.398438 C 3.875 22.398438 3.203125 21.726562 3.203125 20.898438 L 3.203125 2.898438 C 3.203125 2.070312 3.875 1.398438 4.703125 1.398438 Z M 4.703125 1.398438 "/>
<path style=" stroke:none;fill-rule:nonzero;fill:rgb(94.117647%,89.019608%,92.54902%);fill-opacity:1;" d="M 6.203125 2.898438 L 18.203125 2.898438 C 19.03125 2.898438 19.703125 3.570312 19.703125 4.398438 L 19.703125 19.398438 C 19.703125 20.226562 19.03125 20.898438 18.203125 20.898438 L 6.203125 20.898438 C 5.375 20.898438 4.703125 20.226562 4.703125 19.398438 L 4.703125 4.398438 C 4.703125 3.570312 5.375 2.898438 6.203125 2.898438 Z M 6.203125 2.898438 "/>
<path style=" stroke:none;fill-rule:nonzero;fill:rgb(90.196079%,0.784314%,70.588237%);fill-opacity:1;" d="M 6.953125 7.398438 L 17.453125 7.398438 C 17.867188 7.398438 18.203125 7.734375 18.203125 8.148438 C 18.203125 8.5625 17.867188 8.898438 17.453125 8.898438 L 6.953125 8.898438 C 6.539062 8.898438 6.203125 8.5625 6.203125 8.148438 C 6.203125 7.734375 6.539062 7.398438 6.953125 7.398438 Z M 6.953125 7.398438 "/>
<path style="fill-rule:nonzero;fill:rgb(61.56863%,22.745098%,60.784316%);fill-opacity:1;stroke-width:0.25;stroke-linecap:butt;stroke-linejoin:miter;stroke:rgb(61.56863%,22.745098%,60.784316%);stroke-opacity:1;stroke-miterlimit:4;" d="M 1.593132 -7.002913 C 1.624382 -7.338851 1.86657 -7.583643 2.168653 -7.583643 C 2.371778 -7.583643 2.556674 -7.476872 2.660841 -7.304997 C 2.765007 -7.479476 2.942091 -7.583643 3.140007 -7.583643 C 3.444695 -7.583643 3.686882 -7.338851 3.718132 -7.002913 C 3.720737 -6.987288 3.731153 -6.909163 3.699903 -6.781559 C 3.655632 -6.599268 3.55407 -6.432601 3.405632 -6.299788 L 2.660841 -5.63833 L 1.905632 -6.299788 C 1.757195 -6.432601 1.655632 -6.599268 1.611362 -6.781559 C 1.580112 -6.909163 1.590528 -6.987288 1.593132 -7.002913 Z M 1.689487 -6.799788 C 1.731153 -6.633122 1.824903 -6.479476 1.96032 -6.359684 L 2.660841 -5.745101 L 3.348341 -6.359684 C 3.486362 -6.479476 3.580112 -6.633122 3.619174 -6.799788 C 3.64782 -6.922184 3.637403 -6.989893 3.637403 -6.989893 L 3.637403 -6.995101 C 3.608757 -7.289372 3.400424 -7.502913 3.140007 -7.502913 C 2.947299 -7.502913 2.778028 -7.385726 2.699903 -7.20083 L 2.660841 -7.112288 L 2.624382 -7.20083 C 2.543653 -7.383122 2.36657 -7.502913 2.168653 -7.502913 C 1.908237 -7.502913 1.699903 -7.289372 1.673862 -6.989893 C 1.673862 -6.989893 1.660841 -6.922184 1.689487 -6.799788 Z M 1.689487 -6.799788 " transform="matrix(1.5,0,0,1.5,12.711864,15.355933)"/>
<path style="fill-rule:evenodd;fill:rgb(90.196079%,0.784314%,70.588237%);fill-opacity:1;stroke-width:16.621611;stroke-linecap:butt;stroke-linejoin:miter;stroke:rgb(61.56863%,22.745098%,60.784316%);stroke-opacity:1;stroke-miterlimit:4;" d="M 90.939188 -0.0463078 C 88.342061 -0.00302237 85.744935 0.862687 83.623948 2.420963 L 12.982102 54.103783 C 9.952121 56.354626 7.917705 59.990604 7.917705 64.01615 C 7.917705 68.041696 9.952121 71.677674 12.982102 73.885232 L 83.623948 125.568052 C 87.476353 128.381606 92.367608 128.814461 96.609581 126.953187 C 100.764984 125.091912 104.097963 120.806653 104.097963 115.698971 L 104.097963 12.290044 C 104.097963 8.697352 102.453116 5.407658 99.942561 3.156815 C 97.302148 0.819401 94.099026 -0.132879 90.939188 -0.0463078 Z M 42.372919 64.01615 L 42.372919 90.160559 L 41.853494 64.01615 Z M 42.372919 64.01615 " transform="matrix(0,0.090244,-0.090244,0,20.394258,1.535475)"/>
<use xlink:href="#surface5" mask="url(#mask0)"/>
</g>
</svg>
