<?xml version="1.0" encoding="UTF-8"?>
<svg xmlns="http://www.w3.org/2000/svg" xmlns:xlink="http://www.w3.org/1999/xlink" width="24px" height="24px" viewBox="0 0 24 24" version="1.1">
<g id="surface1">
<path style="fill-rule:evenodd;fill:rgb(95.294118%,71.764708%,85.09804%);fill-opacity:1;stroke-width:8.072973;stroke-linecap:butt;stroke-linejoin:miter;stroke:rgb(90.196079%,0.784314%,70.588237%);stroke-opacity:1;stroke-miterlimit:4;" d="M 80.576718 11.499294 C 60.910286 11.499294 44.956504 27.145127 44.956504 46.436794 C 44.977719 47.79096 45.06258 49.145127 45.253516 50.499294 L 11.818461 50.499294 C 10.927425 50.499294 10.227326 51.061794 10.227326 51.770127 L 10.227326 114.145127 C 10.227326 114.85346 10.927425 115.41596 11.818461 115.41596 L 74.869846 115.41596 C 75.739667 115.41596 76.439766 114.85346 76.439766 114.145127 L 76.439766 81.10346 C 77.81875 81.270127 79.197734 81.374294 80.576718 81.374294 C 100.264364 81.374294 116.218147 65.72846 116.218147 46.436794 C 116.218147 27.145127 100.264364 11.499294 80.576718 11.499294 Z M 80.576718 11.499294 " transform="matrix(0.184126,0,0,0.1875,0.359075,0.101695)"/>
</g>
</svg>
