<?xml version="1.0" encoding="UTF-8" standalone="no"?>
<svg
   xmlns:dc="http://purl.org/dc/elements/1.1/"
   xmlns:cc="http://creativecommons.org/ns#"
   xmlns:rdf="http://www.w3.org/1999/02/22-rdf-syntax-ns#"
   xmlns:svg="http://www.w3.org/2000/svg"
   xmlns="http://www.w3.org/2000/svg"
   xmlns:xlink="http://www.w3.org/1999/xlink"
   xmlns:sodipodi="http://sodipodi.sourceforge.net/DTD/sodipodi-0.dtd"
   xmlns:inkscape="http://www.inkscape.org/namespaces/inkscape"
   enable-background="new 0 0 128 128"
   height="24"
   viewBox="0 0 24 24"
   width="24"
   version="1.1"
   id="svg164"
   sodipodi:docname="lc_moveslideup.svg"
   inkscape:version="0.92.4 (unknown)"
   inkscape:export-filename="/home/annisaauliarasyidah/Desktop/4_242 (aulia)/lc 222/lc_moveslideup.png"
   inkscape:export-xdpi="96"
   inkscape:export-ydpi="96">
  <metadata
     id="metadata170">
    <rdf:RDF>
      <cc:Work
         rdf:about="">
        <dc:format>image/svg+xml</dc:format>
        <dc:type
           rdf:resource="http://purl.org/dc/dcmitype/StillImage" />
        <dc:title></dc:title>
      </cc:Work>
    </rdf:RDF>
  </metadata>
  <defs
     id="defs168" />
  <sodipodi:namedview
     pagecolor="#ffffff"
     bordercolor="#666666"
     borderopacity="1"
     objecttolerance="10"
     gridtolerance="10"
     guidetolerance="10"
     inkscape:pageopacity="0"
     inkscape:pageshadow="2"
     inkscape:window-width="1366"
     inkscape:window-height="707"
     id="namedview166"
     showgrid="true"
     inkscape:zoom="15.614258"
     inkscape:cx="2.7453647"
     inkscape:cy="8"
     inkscape:window-x="0"
     inkscape:window-y="0"
     inkscape:window-maximized="1"
     inkscape:current-layer="svg164"
     inkscape:snap-global="false">
    <inkscape:grid
       type="xygrid"
       id="grid999" />
  </sodipodi:namedview>
  <linearGradient
     id="a">
    <stop
       offset="0"
       stop-color="#fff"
       id="stop2" />
    <stop
       offset="1"
       stop-color="#fff"
       stop-opacity="0"
       id="stop4" />
  </linearGradient>
  <linearGradient
     id="b"
     gradientUnits="userSpaceOnUse"
     x1="28"
     x2="28"
     xlink:href="#a"
     y1="57.5"
     y2="0" />
  <linearGradient
     id="c"
     xlink:href="#a" />
  <filter
     id="d"
     height="1.294962"
     width="1.106002"
     x="-0.053001001"
     y="-0.14748099">
    <feGaussianBlur
       stdDeviation="1.4133574"
       id="feGaussianBlur9" />
  </filter>
  <filter
     id="e">
    <feGaussianBlur
       stdDeviation="1.9"
       id="feGaussianBlur12" />
  </filter>
  <filter
     id="f">
    <feGaussianBlur
       stdDeviation="1.1263538"
       id="feGaussianBlur15" />
  </filter>
  <linearGradient
     id="g"
     gradientUnits="userSpaceOnUse"
     x1="56"
     x2="56"
     xlink:href="#b"
     y1="32"
     y2="88.117546" />
  <linearGradient
     id="h"
     gradientUnits="userSpaceOnUse"
     x1="52"
     x2="52"
     y1="64"
     y2="68">
    <stop
       offset="0"
       id="stop19" />
    <stop
       offset="1"
       stop-opacity="0"
       id="stop21" />
  </linearGradient>
  <radialGradient
     id="i"
     cx="48"
     cy="112"
     gradientTransform="matrix(1.2935346,-0.00553408,0.00454134,1.0614911,3.986491,-10.444275)"
     gradientUnits="userSpaceOnUse"
     r="32">
    <stop
       offset="0"
       stop-color="#ffea00"
       id="stop24" />
    <stop
       offset="1"
       stop-color="#ffa000"
       id="stop26" />
  </radialGradient>
  <radialGradient
     id="j"
     cx="100.88867"
     cy="155.99673"
     gradientTransform="matrix(6.2113128,0,0,5.5040777,-486.03133,-654.01913)"
     gradientUnits="userSpaceOnUse"
     r="40">
    <stop
       offset="0"
       stop-color="#fff"
       id="stop29" />
    <stop
       offset=".11366145"
       stop-color="#bdbebf"
       id="stop31" />
    <stop
       offset=".20296688"
       stop-color="#ececec"
       id="stop33" />
    <stop
       offset=".2363"
       stop-color="#fafafa"
       id="stop35" />
    <stop
       offset=".38818121"
       stop-color="#fff"
       id="stop37" />
    <stop
       offset=".5313"
       stop-color="#fafafa"
       id="stop39" />
    <stop
       offset=".8449"
       stop-color="#ebecec"
       id="stop41" />
    <stop
       offset="1"
       stop-color="#e1e2e3"
       id="stop43" />
  </radialGradient>
  <clipPath
     id="k">
    <path
       d="m 14.530963,56.084772 c -1.219674,0 -2.1875,0.967827 -2.1875,2.1875 v 17.0625 C 21.983764,77.731739 36.509296,79 48,79 59.490704,79 70.359699,77.646967 80,75.25 V 58.1875 C 80,56.967826 79.032173,56 77.8125,56 Z"
       id="path46"
       inkscape:connector-curvature="0"
       style="filter:url(#d)" />
  </clipPath>
  <filter
     id="l">
    <feGaussianBlur
       stdDeviation="1.0600355"
       id="feGaussianBlur49" />
  </filter>
  <linearGradient
     id="m"
     gradientTransform="matrix(1.1772548,0,0,1.0772187,1.846275,-4.94167)"
     gradientUnits="userSpaceOnUse"
     x1="71.626404"
     x2="46.225941"
     y1="123.73875"
     y2="28.942928">
    <stop
       offset="0"
       stop-color="#005f1e"
       id="stop52" />
    <stop
       offset="1"
       stop-color="#43943c"
       id="stop54" />
  </linearGradient>
  <radialGradient
     id="n"
     cx="71.775223"
     cy="16.0865"
     gradientTransform="matrix(0.9650814,0.2619502,-0.9201984,3.3902106,33.309062,-57.693239)"
     gradientUnits="userSpaceOnUse"
     r="3.15625"
     xlink:href="#a" />
  <filter
     id="o"
     height="1.157943"
     width="1.244782"
     x="-0.122391"
     y="-0.078970999">
    <feGaussianBlur
       stdDeviation=".321914"
       id="feGaussianBlur58" />
  </filter>
  <linearGradient
     id="p"
     gradientTransform="matrix(1.1772548,0,0,1.0772187,6.555295,-4.94167)"
     gradientUnits="userSpaceOnUse"
     x1="96.373123"
     x2="96.373123"
     y1="120.42788"
     y2="46.089832">
    <stop
       offset="0"
       stop-color="#002a0d"
       id="stop61" />
    <stop
       offset="1"
       stop-color="#002a0d"
       stop-opacity="0"
       id="stop63" />
  </linearGradient>
  <radialGradient
     id="q"
     cx="71.775223"
     cy="16.0865"
     gradientTransform="matrix(0.9650814,0.2619502,-0.9201984,3.3902106,17.309062,-57.693239)"
     gradientUnits="userSpaceOnUse"
     r="3.15625">
    <stop
       offset="0"
       stop-color="#f0ff80"
       id="stop66" />
    <stop
       offset="1"
       stop-color="#f0ff80"
       stop-opacity="0"
       id="stop68" />
  </radialGradient>
  <linearGradient
     id="r"
     gradientTransform="matrix(1.0533333,0,0,0.9219945,7.546667,4.992427)"
     gradientUnits="userSpaceOnUse"
     x1="43.799026"
     x2="58.606159"
     y1="32.051865"
     y2="96.363052">
    <stop
       offset="0"
       stop-color="#37a42c"
       id="stop71" />
    <stop
       offset="1"
       stop-color="#bff500"
       id="stop73" />
  </linearGradient>
  <radialGradient
     id="s"
     cx="11.578125"
     cy="64.53125"
     gradientTransform="matrix(6.5079869,0,0,1.510917,-63.772161,-32.970115)"
     gradientUnits="userSpaceOnUse"
     r="3.578125"
     xlink:href="#a" />
  <filter
     id="t"
     height="1.598266"
     width="1.9039299"
     x="-0.451965"
     y="-0.299133">
    <feGaussianBlur
       stdDeviation="1.3476562"
       id="feGaussianBlur77" />
  </filter>
  <radialGradient
     id="u"
     cx="53.630272"
     cy="79.055809"
     fx="57.058514"
     fy="91.805016"
     gradientTransform="matrix(1.519949,7e-8,-8e-8,1.2772114,-20.224726,-23.996639)"
     gradientUnits="userSpaceOnUse"
     r="50">
    <stop
       offset="0"
       stop-color="#cbff10"
       id="stop80" />
    <stop
       offset="1"
       stop-color="#004d00"
       id="stop82" />
  </radialGradient>
  <filter
     id="v">
    <feGaussianBlur
       stdDeviation=".495"
       id="feGaussianBlur85" />
  </filter>
  <linearGradient
     id="w"
     gradientTransform="matrix(1.0533333,0,0,0.9219945,11.76,4.992427)"
     gradientUnits="userSpaceOnUse"
     x1="63.159035"
     x2="63.159035"
     y1="21.171064"
     y2="80.12056">
    <stop
       offset="0"
       stop-color="#edffbf"
       id="stop88" />
    <stop
       offset="1"
       stop-color="#edffbf"
       stop-opacity="0"
       id="stop90" />
  </linearGradient>
  <linearGradient
     id="x"
     gradientTransform="matrix(1.0533333,0,0,0.9219945,11.76,4.992427)"
     gradientUnits="userSpaceOnUse"
     x1="73.739265"
     x2="35.568035"
     xlink:href="#a"
     y1="69.923088"
     y2="48.212151" />
  <linearGradient
     id="y"
     gradientTransform="matrix(1.0533333,0,0,0.9219945,11.76,4.992427)"
     gradientUnits="userSpaceOnUse"
     x1="63.159035"
     x2="63.159035"
     xlink:href="#a"
     y1="21.171064"
     y2="80.12056" />
  <linearGradient
     id="z"
     gradientUnits="userSpaceOnUse"
     x1="111.78525"
     x2="111.99271"
     y1="112.5"
     y2="44.287056">
    <stop
       offset="0"
       stop-color="#e5ff00"
       id="stop95" />
    <stop
       offset="1"
       stop-color="#e5ff00"
       stop-opacity="0"
       id="stop97" />
  </linearGradient>
  <g
     id="g888"
     transform="matrix(1.5119377,0,0,1.5730386,-0.11455247,-12.637133)"
     style="stroke-width:0.64843041">
    <path
       d="m 2.1791696,9.3157272 c -0.536565,0.00119 -0.969117,0.4102519 -0.969117,0.9191578 v 7.562999 c 0,0.508905 0.432618,0.911116 0.969117,0.919158 l 5.645606,-0.0068 3.9873584,-0.0048 c 0.536567,-6.85e-4 0.969116,-0.410252 0.969116,-0.919157 v -7.563162 c 0,-0.5089051 -0.432549,-0.9191572 -0.969116,-0.9191572 l -0.682286,-0.00442 V 9.84406 c 0,0.1326555 -0.111556,0.238461 -0.251423,0.238461 H 9.727592 c -0.1398664,0 -0.2517825,-0.105806 -0.2514221,-0.238461 V 9.2995508 Z"
       id="path105"
       inkscape:connector-curvature="0"
       style="fill:#f3b7d9;stroke:#9d3a9b;stroke-width:0.2610727;stroke-miterlimit:4;stroke-dasharray:none" />
    <rect
       height="6.4321918"
       rx="0.32961473"
       width="10.155115"
       x="1.9098153"
       y="11.683043"
       id="rect109"
       style="fill:#f0e3ec;stroke:#9d3a9b;stroke-width:0.13371794;stroke-miterlimit:4;stroke-dasharray:none" />
    <path
       style="fill:#f3b7d9;stroke:#9d3a9b;stroke-width:0.2610727;stroke-miterlimit:4;stroke-dasharray:none"
       inkscape:connector-curvature="0"
       id="path997"
       d="m 4.2130686,13.45132 c -0.536565,0.0012 -0.969118,0.410252 -0.969118,0.919158 v 7.562999 c 0,0.508905 0.432618,0.911116 0.969118,0.919158 l 5.6456055,-0.0068 3.9873579,-0.0048 c 0.536567,-6.85e-4 0.969116,-0.410252 0.969116,-0.919157 v -7.563161 c 0,-0.508906 -0.432549,-0.919158 -0.969116,-0.919158 l -0.682286,-0.0044 v 0.544514 c 0,0.132656 -0.111556,0.238461 -0.251423,0.238461 h -1.150832 c -0.139867,0 -0.251783,-0.105806 -0.251423,-0.238461 v -0.544509 z" />
    <rect
       style="fill:#f0e3ec;stroke:#9d3a9b;stroke-width:0.13371794;stroke-miterlimit:4;stroke-dasharray:none"
       id="rect999"
       y="15.818636"
       x="3.9437137"
       width="10.155115"
       rx="0.32961473"
       height="6.4321918" />
    <g
       transform="matrix(0,0.06016264,-0.06016264,0,11.506425,7.964809)"
       id="g198"
       style="fill:#e602b4;fill-rule:evenodd;stroke:#9d3a9b;stroke-width:2.69448924;stroke-miterlimit:4;stroke-dasharray:none">
      <path
         sodipodi:nodetypes="cccscccccccccccccscccccc"
         d="M 90.925781,-0.06054687 C 88.335578,0.01321208 85.762192,0.85674696 83.611328,2.4316406 L 12.988281,54.117188 C 9.9431675,56.345095 7.9042969,59.96983 7.9042969,64 c 0,4.03116 2.0395885,7.656994 5.0859371,9.884766 l 70.623047,51.685544 c 3.860769,2.82603 8.748949,3.2337 12.978516,1.37305 4.167743,-1.83347 7.504483,-6.14034 7.503903,-11.22461 v -0.004 -25.52734 -4.78125 -6.25 -30.3125 -5.3125 -5.71875 -25.527344 -0.0039 c 3.2e-4,-3.5767774 -1.6348,-6.8929237 -4.150388,-9.125 -2.6255,-2.3295967 -5.859992,-3.306887 -9.019531,-3.21679687 z M 42.378906,64 V 90.144532 L 41.865234,64 Z"
         id="path184"
         style="fill:#e602b4;stroke:#9d3a9b;stroke-width:2.69448924;stroke-miterlimit:4;stroke-dasharray:none"
         inkscape:connector-curvature="0" />
      <path
         sodipodi:nodetypes="cccscccccccccccccccscccc"
         d="M 90.917969,-0.36328125 C 88.268822,-0.28784381 85.633331,0.57539 83.431641,2.1875 L 12.808594,53.873047 C 9.6911487,56.15385 7.6015625,59.867746 7.6015625,64 c 0,4.133245 2.0903057,7.84824 5.2089845,10.128906 l 70.623047,51.685544 c 3.952572,2.89326 8.952258,3.30978 13.279297,1.40625 4.262909,-1.87533 7.686189,-6.28904 7.685549,-11.50195 v -0.004 -25.52734 -4.78125 -0.75 -5.5 -30.3125 -5.3125 -0.1875 -5.53125 -25.527344 -0.0039 C 104.3988,8.614 102.72214,5.2150654 100.14648,2.9296875 97.456825,0.54316232 94.148233,-0.45538803 90.917969,-0.36328125 Z M 42.378906,64 v 0 c -0.569204,0 -0.569204,0 0,0 z"
         id="path188"
         style="opacity:0.90526303;fill:#e602b4;stroke:#9d3a9b;stroke-width:2.69448924;stroke-miterlimit:4;stroke-dasharray:none"
         inkscape:connector-curvature="0" />
    </g>
  </g>
</svg>
