<?xml version="1.0" encoding="UTF-8"?>
<svg xmlns="http://www.w3.org/2000/svg" xmlns:xlink="http://www.w3.org/1999/xlink" width="24px" height="24px" viewBox="0 0 24 24" version="1.1">
<defs>
<radialGradient id="radial0" gradientUnits="userSpaceOnUse" cx="63.75" cy="63.875" fx="63.75" fy="63.875" r="24.25" gradientTransform="matrix(0.274918,0,0,0.274921,0.43903,0.474207)">
<stop offset="0" style="stop-color:rgb(95.686275%,0%,0%);stop-opacity:0.941176;"/>
<stop offset="1" style="stop-color:rgb(79.607844%,0%,2.352941%);stop-opacity:1;"/>
</radialGradient>
</defs>
<g id="surface1">
<path style="fill-rule:nonzero;fill:rgb(95.294118%,71.764708%,85.09804%);fill-opacity:1;stroke-width:1;stroke-linecap:butt;stroke-linejoin:miter;stroke:rgb(90.196079%,0.784314%,70.588237%);stroke-opacity:1;stroke-miterlimit:4;" d="M 14.544271 8.015625 C 14.544271 11.617188 11.625 14.539062 8.020833 14.539062 C 4.419271 14.539062 1.5 11.617188 1.5 8.015625 C 1.5 4.411458 4.419271 1.492188 8.020833 1.492188 C 11.625 1.492188 14.544271 4.411458 14.544271 8.015625 Z M 14.544271 8.015625 " transform="matrix(1.5,0,0,1.5,0,0)"/>
<path style=" stroke:none;fill-rule:nonzero;fill:rgb(94.117647%,89.019608%,92.54902%);fill-opacity:1;" d="M 5.046875 12.023438 C 5.046875 15.875 8.179688 19.011719 12.03125 19.011719 C 15.886719 19.011719 19.019531 15.875 19.019531 12.023438 C 19.019531 8.167969 15.886719 5.035156 12.03125 5.035156 C 8.179688 5.035156 5.046875 8.167969 5.046875 12.023438 Z M 5.046875 12.023438 "/>
<path style=" stroke:none;fill-rule:evenodd;fill:url(#radial0);" d="M 15.292969 12.023438 C 15.292969 13.824219 13.832031 15.285156 12.03125 15.285156 C 10.230469 15.285156 8.773438 13.824219 8.773438 12.023438 C 8.773438 10.222656 10.230469 8.761719 12.03125 8.761719 C 13.832031 8.761719 15.292969 10.222656 15.292969 12.023438 Z M 15.292969 12.023438 "/>
<path style="fill-rule:evenodd;fill:rgb(94.117647%,89.019608%,92.54902%);fill-opacity:1;stroke-width:1.609849;stroke-linecap:round;stroke-linejoin:round;stroke:rgb(90.196079%,0.784314%,70.588237%);stroke-opacity:1;stroke-miterlimit:4;" d="M 15.976626 8.509929 L 20.04344 8.509929 C 21.376683 8.509929 22.458372 9.591475 22.458372 10.924544 L 22.458372 20.084154 C 22.458372 21.417223 21.376683 22.49877 20.04344 22.49877 L 15.976626 22.49877 C 14.643383 22.49877 13.561694 21.417223 13.561694 20.084154 L 13.561694 10.924544 C 13.561694 9.591475 14.643383 8.509929 15.976626 8.509929 Z M 15.976626 8.509929 " transform="matrix(0.931703,0,0,0.931825,0.844996,0.933514)"/>
<path style="fill-rule:evenodd;fill:rgb(95.294118%,71.764708%,85.09804%);fill-opacity:1;stroke-width:1.609849;stroke-linecap:round;stroke-linejoin:round;stroke:rgb(90.196079%,0.784314%,70.588237%);stroke-opacity:1;stroke-miterlimit:4;" d="M 16.810952 11.498854 L 19.188151 11.498854 C 19.913469 11.498854 20.500432 12.349838 20.500432 13.393657 L 20.500432 18.604364 C 20.500432 19.652374 19.913469 20.499166 19.188151 20.499166 L 16.810952 20.499166 C 16.085634 20.499166 15.498671 19.652374 15.498671 18.604364 L 15.498671 13.393657 C 15.498671 12.349838 16.085634 11.498854 16.810952 11.498854 Z M 16.810952 11.498854 " transform="matrix(0.931703,0,0,0.931825,0.844996,0.933514)"/>
<path style="fill:none;stroke-width:1.609849;stroke-linecap:round;stroke-linejoin:round;stroke:rgb(61.56863%,22.745098%,60.784316%);stroke-opacity:1;stroke-miterlimit:4;" d="M 18.420907 14.185952 C 18.420907 14.412323 18.236433 14.596772 18.00584 14.596772 C 17.775248 14.600964 17.590774 14.416515 17.586581 14.190144 C 17.582389 13.963774 17.766863 13.779324 17.997455 13.775132 C 18.223855 13.77094 18.416714 13.951198 18.420907 14.177568 L 18.001648 14.185952 Z M 18.420907 14.185952 " transform="matrix(0.931703,0,0,0.931825,0.844996,0.933514)"/>
<path style="fill:none;stroke-width:1.609849;stroke-linecap:round;stroke-linejoin:round;stroke:rgb(90.196079%,0.784314%,70.588237%);stroke-opacity:1;stroke-miterlimit:4;" d="M 17.947144 16.747289 L 17.947144 18.797197 " transform="matrix(0.931703,0,0,0.931825,0.844996,0.933514)"/>
</g>
</svg>
