<?xml version="1.0" encoding="UTF-8"?>
<svg xmlns="http://www.w3.org/2000/svg" xmlns:xlink="http://www.w3.org/1999/xlink" width="24px" height="24px" viewBox="0 0 24 24" version="1.1">
<g id="surface1">
<path style="fill-rule:nonzero;fill:rgb(94.117647%,89.019608%,92.54902%);fill-opacity:1;stroke-width:0.264583;stroke-linecap:round;stroke-linejoin:round;stroke:rgb(90.196079%,0.784314%,70.588237%);stroke-opacity:1;stroke-miterlimit:4;" d="M 2.014692 0.405832 L 1.89618 0.736561 L 1.89618 0.742074 L 1.965771 1.063846 C 1.971973 1.091406 1.957503 1.118967 1.93132 1.129302 L 1.546848 1.28571 C 1.521354 1.296045 1.492415 1.287088 1.477257 1.26435 L 1.291911 0.986675 L 1.286398 0.978407 L 0.980474 0.831646 L 0.831646 0.981163 L 0.978407 1.286399 L 0.986675 1.291911 L 1.26435 1.477257 C 1.287088 1.492415 1.296045 1.521354 1.285709 1.546848 L 1.128613 1.931321 C 1.118278 1.957503 1.090717 1.971973 1.063845 1.965772 L 0.742073 1.896181 L 0.736561 1.896181 L 0.405832 2.014692 L 0.405832 2.218642 L 0.736561 2.337153 L 0.742073 2.337153 L 1.063845 2.267562 C 1.090717 2.261361 1.118278 2.27583 1.128613 2.302013 L 1.285709 2.686486 C 1.296045 2.711979 1.287088 2.740918 1.26435 2.756077 L 0.986675 2.941423 L 0.978407 2.946935 L 0.831646 3.25217 L 0.980474 3.401687 L 1.286398 3.254926 L 1.291911 3.247347 L 1.477257 2.968983 C 1.492415 2.946246 1.521354 2.937289 1.546848 2.947624 L 1.93132 3.104031 C 1.957503 3.115056 1.971973 3.141927 1.965771 3.169488 L 1.89618 3.49126 L 1.89618 3.496772 L 2.014692 3.827501 L 2.218641 3.827501 L 2.337153 3.496772 L 2.337153 3.49126 L 2.267562 3.169488 C 2.261361 3.141927 2.27583 3.115056 2.302013 3.104031 L 2.686485 2.947624 C 2.711979 2.937289 2.740918 2.946246 2.756076 2.968983 L 2.941422 3.246658 L 2.946935 3.254926 L 3.25217 3.401687 L 3.401687 3.25217 L 3.254926 2.946935 L 3.247347 2.941423 L 2.968983 2.756077 C 2.946246 2.740918 2.937288 2.711979 2.947624 2.686486 L 3.104031 2.301324 C 3.115055 2.27583 3.141927 2.261361 3.169488 2.267562 L 3.49126 2.337153 L 3.496772 2.337153 L 3.827501 2.218642 L 3.827501 2.014692 L 3.496772 1.896181 L 3.49126 1.896181 L 3.169488 1.965772 C 3.141927 1.971973 3.115055 1.957503 3.104031 1.931321 L 2.947624 1.546848 C 2.937288 1.521354 2.946246 1.492415 2.968983 1.477257 L 3.246658 1.291911 L 3.254926 1.286399 L 3.401687 0.981163 L 3.25217 0.831646 L 2.946935 0.978407 L 2.941422 0.986675 L 2.756076 1.26435 C 2.740918 1.287088 2.711979 1.296045 2.686485 1.28571 L 2.302013 1.129302 C 2.27583 1.118278 2.261361 1.091406 2.267562 1.063846 L 2.337153 0.742074 L 2.337153 0.736561 L 2.218641 0.405832 Z M 2.116667 1.574409 C 2.414323 1.574409 2.658925 1.819011 2.658925 2.116667 C 2.658925 2.414323 2.414323 2.658925 2.116667 2.658925 C 1.81901 2.658925 1.574408 2.414323 1.574408 2.116667 C 1.574408 1.819011 1.81901 1.574409 2.116667 1.574409 Z M 2.116667 1.574409 " transform="matrix(5.669291,0,0,5.669291,0.00000135166,0)"/>
<path style=" stroke:none;fill-rule:evenodd;fill:rgb(82.745099%,1.568628%,1.568628%);fill-opacity:1;" d="M 14.796875 12 C 14.796875 13.542969 13.542969 14.796875 12 14.796875 C 10.457031 14.796875 9.203125 13.542969 9.203125 12 C 9.203125 10.457031 10.457031 9.203125 12 9.203125 C 13.542969 9.203125 14.796875 10.457031 14.796875 12 Z M 14.796875 12 "/>
</g>
</svg>
