<?xml version="1.0" encoding="UTF-8"?>
<svg xmlns="http://www.w3.org/2000/svg" xmlns:xlink="http://www.w3.org/1999/xlink" width="24px" height="24px" viewBox="0 0 24 24" version="1.1">
<defs>
<clipPath id="clip1">
  <path d="M 2 8 L 9 8 L 9 18 L 2 18 Z M 2 8 "/>
</clipPath>
<clipPath id="clip2">
  <path d="M 3.46875 6.863281 L 13.957031 4.238281 C 14.320312 4.148438 14.613281 4.367188 14.613281 4.730469 L 14.613281 13.910156 C 14.613281 14.273438 14.320312 14.640625 13.957031 14.730469 L 3.46875 17.355469 C 3.105469 17.445312 2.8125 17.226562 2.8125 16.863281 L 2.8125 7.683594 C 2.8125 7.320312 3.105469 6.953125 3.46875 6.863281 Z M 3.46875 6.863281 "/>
</clipPath>
<clipPath id="clip3">
  <path d="M 2 9 L 7 9 L 7 18 L 2 18 Z M 2 9 "/>
</clipPath>
<clipPath id="clip4">
  <path d="M 3.46875 6.863281 L 13.957031 4.238281 C 14.320312 4.148438 14.613281 4.367188 14.613281 4.730469 L 14.613281 13.910156 C 14.613281 14.273438 14.320312 14.640625 13.957031 14.730469 L 3.46875 17.355469 C 3.105469 17.445312 2.8125 17.226562 2.8125 16.863281 L 2.8125 7.683594 C 2.8125 7.320312 3.105469 6.953125 3.46875 6.863281 Z M 3.46875 6.863281 "/>
</clipPath>
</defs>
<g id="surface1">
<path style=" stroke:none;fill-rule:nonzero;fill:rgb(90.196079%,0.784314%,70.588237%);fill-opacity:1;" d="M 2.25 6.003906 L 15.175781 2.476562 C 15.589844 2.363281 15.925781 2.609375 15.925781 3.023438 L 15.925781 14.636719 C 15.925781 15.050781 15.589844 15.476562 15.175781 15.589844 L 2.25 19.117188 C 1.835938 19.230469 1.5 18.984375 1.5 18.570312 L 1.5 6.957031 C 1.5 6.542969 1.835938 6.117188 2.25 6.003906 Z M 2.25 6.003906 "/>
<path style=" stroke:none;fill-rule:nonzero;fill:rgb(94.117647%,89.019608%,92.54902%);fill-opacity:1;" d="M 3.46875 6.863281 L 13.957031 4.238281 C 14.320312 4.148438 14.613281 4.367188 14.613281 4.730469 L 14.613281 13.910156 C 14.613281 14.273438 14.320312 14.640625 13.957031 14.730469 L 3.46875 17.355469 C 3.105469 17.445312 2.8125 17.226562 2.8125 16.863281 L 2.8125 7.683594 C 2.8125 7.320312 3.105469 6.953125 3.46875 6.863281 Z M 3.46875 6.863281 "/>
<path style=" stroke:none;fill-rule:nonzero;fill:rgb(61.56863%,22.745098%,60.784316%);fill-opacity:0.975;" d="M 22.480469 14.066406 C 22.480469 17.324219 19.84375 19.960938 16.585938 19.960938 C 13.332031 19.960938 10.691406 17.324219 10.691406 14.066406 C 10.691406 10.8125 13.332031 8.171875 16.585938 8.171875 C 19.84375 8.171875 22.480469 10.8125 22.480469 14.066406 Z M 22.480469 14.066406 "/>
<path style=" stroke:none;fill-rule:nonzero;fill:rgb(95.294118%,71.764708%,85.09804%);fill-opacity:1;" d="M 21.167969 14.066406 C 21.167969 16.597656 19.117188 18.648438 16.585938 18.648438 C 14.058594 18.648438 12.007812 16.597656 12.007812 14.066406 C 12.007812 11.539062 14.058594 9.488281 16.585938 9.488281 C 19.117188 9.488281 21.167969 11.539062 21.167969 14.066406 Z M 21.167969 14.066406 "/>
<g clip-path="url(#clip1)" clip-rule="nonzero">
<g clip-path="url(#clip2)" clip-rule="nonzero">
<path style=" stroke:none;fill-rule:nonzero;fill:rgb(85.490197%,60.784316%,85.09804%);fill-opacity:0.975;" d="M 8.042969 14.066406 C 8.042969 17.324219 5.40625 19.960938 2.148438 19.960938 C -1.105469 19.960938 -3.746094 17.324219 -3.746094 14.066406 C -3.746094 10.8125 -1.105469 8.171875 2.148438 8.171875 C 5.40625 8.171875 8.042969 10.8125 8.042969 14.066406 Z M 8.042969 14.066406 "/>
</g>
</g>
<g clip-path="url(#clip3)" clip-rule="nonzero">
<g clip-path="url(#clip4)" clip-rule="nonzero">
<path style=" stroke:none;fill-rule:nonzero;fill:rgb(95.294118%,71.764708%,85.09804%);fill-opacity:1;" d="M 6.730469 14.066406 C 6.730469 16.597656 4.679688 18.648438 2.148438 18.648438 C -0.378906 18.648438 -2.429688 16.597656 -2.429688 14.066406 C -2.429688 11.539062 -0.378906 9.488281 2.148438 9.488281 C 4.679688 9.488281 6.730469 11.539062 6.730469 14.066406 Z M 6.730469 14.066406 "/>
</g>
</g>
</g>
</svg>
