<?xml version="1.0" encoding="UTF-8"?>
<svg xmlns="http://www.w3.org/2000/svg" xmlns:xlink="http://www.w3.org/1999/xlink" width="24px" height="24px" viewBox="0 0 24 24" version="1.1">
<g id="surface1">
<path style="fill:none;stroke-width:1;stroke-linecap:round;stroke-linejoin:miter;stroke:rgb(90.196079%,0.784314%,70.588237%);stroke-opacity:1;stroke-miterlimit:4;" d="M 3.210938 6.119792 L 7.557292 6.119792 " transform="matrix(1.5,0,0,1.5,0,0)"/>
<path style="fill-rule:nonzero;fill:rgb(94.117647%,89.019608%,92.54902%);fill-opacity:1;stroke-width:1;stroke-linecap:round;stroke-linejoin:round;stroke:rgb(90.196079%,0.784314%,70.588237%);stroke-opacity:1;stroke-miterlimit:4;" d="M 2.591146 1.604167 L 7.945312 1.604167 C 8.497396 1.604167 8.945312 2.052083 8.945312 2.604167 L 8.945312 9.299479 C 8.945312 9.851562 8.497396 10.299479 7.945312 10.299479 L 2.591146 10.299479 C 2.036458 10.299479 1.591146 9.851562 1.591146 9.299479 L 1.591146 2.604167 C 1.591146 2.052083 2.036458 1.604167 2.591146 1.604167 Z M 2.591146 1.604167 " transform="matrix(1.5,0,0,1.5,0,0)"/>
<path style="fill-rule:nonzero;fill:rgb(61.56863%,22.745098%,60.784316%);fill-opacity:1;stroke-width:0.25;stroke-linecap:butt;stroke-linejoin:miter;stroke:rgb(61.56863%,22.745098%,60.784316%);stroke-opacity:1;stroke-miterlimit:4;" d="M 6.1875 2.942708 C 6.208333 2.716146 6.369792 2.554688 6.572917 2.554688 C 6.708333 2.554688 6.833333 2.625 6.901042 2.739583 C 6.971354 2.625 7.091146 2.554688 7.223958 2.554688 C 7.427083 2.554688 7.588542 2.716146 7.609375 2.942708 C 7.609375 2.953125 7.617188 3.005208 7.596354 3.088542 C 7.567708 3.213542 7.5 3.322917 7.398438 3.411458 L 6.903646 3.854167 L 6.395833 3.411458 C 6.296875 3.322917 6.229167 3.213542 6.200521 3.088542 C 6.179688 3.005208 6.184896 2.953125 6.1875 2.942708 Z M 6.252604 3.078125 C 6.28125 3.190104 6.34375 3.291667 6.434896 3.372396 L 6.901042 3.783854 L 7.361979 3.372396 C 7.453125 3.291667 7.515625 3.190104 7.544271 3.078125 C 7.5625 2.997396 7.554688 2.950521 7.554688 2.950521 L 7.554688 2.947917 C 7.536458 2.75 7.395833 2.606771 7.223958 2.606771 C 7.09375 2.606771 6.981771 2.684896 6.927083 2.809896 L 6.901042 2.869792 L 6.877604 2.809896 C 6.822917 2.6875 6.705729 2.606771 6.572917 2.606771 C 6.398438 2.606771 6.260417 2.75 6.242188 2.950521 C 6.242188 2.950521 6.234375 2.997396 6.252604 3.078125 Z M 6.252604 3.078125 " transform="matrix(1.5,0,0,1.5,0,0)"/>
<path style="fill:none;stroke-width:1;stroke-linecap:round;stroke-linejoin:miter;stroke:rgb(90.196079%,0.784314%,70.588237%);stroke-opacity:1;stroke-miterlimit:4;" d="M 3.057292 4.619792 L 7.403646 4.619792 " transform="matrix(1.5,0,0,1.5,0,0)"/>
<path style="fill:none;stroke-width:1;stroke-linecap:round;stroke-linejoin:miter;stroke:rgb(90.196079%,0.784314%,70.588237%);stroke-opacity:1;stroke-miterlimit:4;" d="M 3.057292 6.619792 L 7.403646 6.619792 " transform="matrix(1.5,0,0,1.5,0,0)"/>
<path style="fill:none;stroke-width:1;stroke-linecap:round;stroke-linejoin:miter;stroke:rgb(90.196079%,0.784314%,70.588237%);stroke-opacity:1;stroke-miterlimit:4;" d="M 3.057292 8.619792 L 7.403646 8.619792 " transform="matrix(1.5,0,0,1.5,0,0)"/>
<path style="fill-rule:evenodd;fill:rgb(94.117647%,89.019608%,92.54902%);fill-opacity:0.920792;stroke-width:0.654;stroke-linecap:round;stroke-linejoin:round;stroke:rgb(90.196079%,0.784314%,70.588237%);stroke-opacity:1;stroke-miterlimit:4;" d="M 5.916667 7.380208 L 14.067708 7.380208 C 14.398438 7.380208 14.669271 7.682292 14.669271 8.052083 L 14.669271 14.03125 C 14.669271 14.403646 14.398438 14.703125 14.067708 14.703125 L 5.916667 14.703125 C 5.583333 14.703125 5.3125 14.403646 5.3125 14.03125 L 5.3125 8.052083 C 5.3125 7.682292 5.583333 7.380208 5.916667 7.380208 Z M 5.916667 7.380208 " transform="matrix(1.5,0,0,1.5,0,0)"/>
<path style="fill:none;stroke-width:1.615385;stroke-linecap:round;stroke-linejoin:round;stroke:rgb(94.117647%,89.019608%,92.54902%);stroke-opacity:1;stroke-miterlimit:4;" d="M 3.773308 13.099818 L 2.190937 15.445225 L -0.152511 13.86486 " transform="matrix(0.973269,-0.996393,0.996393,0.973269,-6.396885,7.646776)"/>
<path style="fill:none;stroke-width:1.615385;stroke-linecap:round;stroke-linejoin:miter;stroke:rgb(94.117647%,89.019608%,92.54902%);stroke-opacity:1;stroke-miterlimit:4;" d="M 5.230963 6.849992 C 5.230963 6.849992 -0.154668 5.77136 2.001062 14.387929 " transform="matrix(0.973269,-0.996393,0.996393,0.973269,-6.396885,7.646776)"/>
<path style="fill-rule:nonzero;fill:rgb(95.294118%,71.764708%,85.09804%);fill-opacity:1;stroke-width:0.653877;stroke-linecap:round;stroke-linejoin:round;stroke:rgb(90.196079%,0.784314%,70.588237%);stroke-opacity:1;stroke-miterlimit:4;" d="M 5.421875 8.151042 L 9.867188 11.497396 L 14.497396 8.151042 L 14.497396 7.815104 L 5.421875 7.815104 Z M 5.421875 8.151042 " transform="matrix(1.5,0,0,1.5,0,0)"/>
<path style="fill:none;stroke-width:1.076923;stroke-linecap:round;stroke-linejoin:round;stroke:rgb(61.56863%,22.745098%,60.784316%);stroke-opacity:1;stroke-miterlimit:4;" d="M 3.773308 13.099818 L 2.190937 15.445225 L -0.152511 13.86486 " transform="matrix(0.973269,-0.996393,0.996393,0.973269,-6.396885,7.646776)"/>
<path style="fill:none;stroke-width:1.076923;stroke-linecap:round;stroke-linejoin:miter;stroke:rgb(61.56863%,22.745098%,60.784316%);stroke-opacity:1;stroke-miterlimit:4;" d="M 5.230963 6.849992 C 5.230963 6.849992 -0.154668 5.77136 2.001062 14.387929 " transform="matrix(0.973269,-0.996393,0.996393,0.973269,-6.396885,7.646776)"/>
</g>
</svg>
