<?xml version="1.0" encoding="UTF-8"?>
<svg xmlns="http://www.w3.org/2000/svg" xmlns:xlink="http://www.w3.org/1999/xlink" width="24px" height="24px" viewBox="0 0 24 24" version="1.1">
<g id="surface1">
<path style=" stroke:none;fill-rule:nonzero;fill:rgb(33.333334%,34.117648%,32.549021%);fill-opacity:1;" d="M 7.21875 1.5 C 6.53125 1.632812 5.988281 2.300781 6 3 L 6 13.5 L 9 13.5 L 9 4.5 L 15 4.5 L 15 9 L 19.5 9 L 19.5 13.5 L 22.5 13.5 L 22.5 8.34375 C 22.507812 7.949219 22.355469 7.550781 22.078125 7.265625 L 16.734375 1.921875 C 16.449219 1.644531 16.050781 1.492188 15.65625 1.5 L 7.5 1.5 C 7.453125 1.5 7.40625 1.5 7.359375 1.5 C 7.3125 1.5 7.265625 1.5 7.21875 1.5 Z M 0.796875 7.5 C 0.363281 7.5 0 7.863281 0 8.296875 L 0 23.203125 C 0 23.652344 0.347656 24 0.796875 24 L 21.515625 24 C 21.964844 24 22.3125 23.652344 22.3125 23.203125 L 24 15.828125 C 24 15.394531 23.636719 15.03125 23.203125 15.03125 L 5.8125 15.03125 L 4.5 20.25 C 4.5 20.664062 4.164062 21 3.75 21 C 3.335938 21 3 20.664062 3 20.25 L 3 12.753906 C 3 12.339844 3.335938 12.003906 3.75 12.003906 L 4.449219 12.003906 L 4.449219 7.5 Z M 0.796875 7.5 "/>
</g>
</svg>
