<?xml version="1.0" encoding="UTF-8"?>
<svg xmlns="http://www.w3.org/2000/svg" xmlns:xlink="http://www.w3.org/1999/xlink" width="24px" height="24px" viewBox="0 0 24 24" version="1.1">
<g id="surface1">
<path style="fill-rule:evenodd;fill:rgb(95.294118%,71.764708%,85.09804%);fill-opacity:0.950495;stroke-width:1;stroke-linecap:round;stroke-linejoin:round;stroke:rgb(90.196079%,0.784314%,70.588237%);stroke-opacity:1;stroke-miterlimit:4;" d="M 4 1.5 L 12 1.5 C 12.828125 1.5 13.5 2.171875 13.5 3 L 13.5 13 C 13.5 13.828125 12.828125 14.5 12 14.5 L 4 14.5 C 3.171875 14.5 2.5 13.828125 2.5 13 L 2.5 3 C 2.5 2.171875 3.171875 1.5 4 1.5 Z M 4 1.5 " transform="matrix(1.5,0,0,1.5,0,0)"/>
<path style=" stroke:none;fill-rule:nonzero;fill:rgb(90.196079%,0.784314%,70.588237%);fill-opacity:1;" d="M 4.5 6 L 6 6 L 6 7.5 L 4.5 7.5 Z M 4.5 6 "/>
<path style=" stroke:none;fill-rule:nonzero;fill:rgb(90.196079%,0.784314%,70.588237%);fill-opacity:1;" d="M 4.5 9 L 6 9 L 6 10.5 L 4.5 10.5 Z M 4.5 9 "/>
<path style=" stroke:none;fill-rule:nonzero;fill:rgb(90.196079%,0.784314%,70.588237%);fill-opacity:1;" d="M 4.5 12 L 6 12 L 6 13.5 L 4.5 13.5 Z M 4.5 12 "/>
<path style=" stroke:none;fill-rule:nonzero;fill:rgb(90.196079%,0.784314%,70.588237%);fill-opacity:1;" d="M 4.5 15 L 6 15 L 6 16.5 L 4.5 16.5 Z M 4.5 15 "/>
<path style=" stroke:none;fill-rule:nonzero;fill:rgb(90.196079%,0.784314%,70.588237%);fill-opacity:1;" d="M 4.5 18 L 6 18 L 6 19.5 L 4.5 19.5 Z M 4.5 18 "/>
<path style="fill-rule:nonzero;fill:rgb(94.117647%,89.019608%,92.54902%);fill-opacity:1;stroke-width:1.02575;stroke-linecap:round;stroke-linejoin:miter;stroke:rgb(61.56863%,22.745098%,60.784316%);stroke-opacity:1;stroke-miterlimit:4;" d="M 13.239528 10.83468 C 12.334874 12.469468 10.692962 13.666176 8.698449 13.926175 C 5.361201 14.364256 2.301761 12.013579 1.86368 8.67277 C 1.4256 5.335522 3.776276 2.276082 7.113523 1.838001 C 10.454333 1.399921 13.513773 3.754158 13.951854 7.091406 C 14.005278 7.51524 14.001717 10.001258 13.239528 10.83468 " transform="matrix(1.096759,0,0,1.096759,6.60443,6.745874)"/>
<path style="fill:none;stroke-width:1.02575;stroke-linecap:butt;stroke-linejoin:miter;stroke:rgb(61.56863%,22.745098%,60.784316%);stroke-opacity:1;stroke-miterlimit:4;" d="M 3.883125 3.47279 C 6.411882 6.20456 9.011872 9.078796 11.882547 12.47303 " transform="matrix(1.096759,0,0,1.096759,6.60443,6.745874)"/>
<path style="fill:none;stroke-width:1.02575;stroke-linecap:butt;stroke-linejoin:miter;stroke:rgb(61.56863%,22.745098%,60.784316%);stroke-opacity:1;stroke-miterlimit:4;" d="M 3.940111 3.422927 C 6.882017 0.473897 15.882258 8.975509 11.882547 12.47303 C 7.882836 15.974113 0.998204 6.371957 3.940111 3.422927 Z M 3.940111 3.422927 " transform="matrix(1.096759,0,0,1.096759,6.60443,6.745874)"/>
<path style="fill:none;stroke-width:1.02575;stroke-linecap:round;stroke-linejoin:miter;stroke:rgb(61.56863%,22.745098%,60.784316%);stroke-opacity:1;stroke-miterlimit:4;" d="M 2.892991 10.880981 C 3.39162 7.38346 6.892702 3.383749 11.893231 3.383749 " transform="matrix(1.096759,0,0,1.096759,6.60443,6.745874)"/>
<path style="fill:none;stroke-width:1.02575;stroke-linecap:round;stroke-linejoin:miter;stroke:rgb(61.56863%,22.745098%,60.784316%);stroke-opacity:1;stroke-miterlimit:4;" d="M 13.125556 4.790593 C 13.061446 8.669208 6.775168 12.857686 3.893809 12.383989 " transform="matrix(1.096759,0,0,1.096759,6.60443,6.745874)"/>
</g>
</svg>
