<?xml version="1.0" encoding="UTF-8"?>
<svg xmlns="http://www.w3.org/2000/svg" xmlns:xlink="http://www.w3.org/1999/xlink" width="24px" height="24px" viewBox="0 0 24 24" version="1.1">
<defs>
<radialGradient id="radial0" gradientUnits="userSpaceOnUse" cx="67.73333" cy="277.950104" fx="67.73333" fy="277.950104" r="7.574691" gradientTransform="matrix(-0.635715,0,0,-0.635715,52.29882,190.646218)">
<stop offset="0" style="stop-color:rgb(74.901962%,74.901962%,74.901962%);stop-opacity:1;"/>
<stop offset="1" style="stop-color:rgb(87.450981%,87.450981%,87.450981%);stop-opacity:0;"/>
</radialGradient>
</defs>
<g id="surface1">
<path style=" stroke:none;fill-rule:nonzero;fill:rgb(90.196079%,0.784314%,70.588237%);fill-opacity:1;" d="M 23.234375 12 C 23.234375 18.203125 18.203125 23.234375 12 23.234375 C 5.796875 23.234375 0.765625 18.203125 0.765625 12 C 0.765625 5.796875 5.796875 0.765625 12 0.765625 C 18.203125 0.765625 23.234375 5.796875 23.234375 12 Z M 23.234375 12 "/>
<path style=" stroke:none;fill-rule:nonzero;fill:rgb(94.117647%,89.019608%,92.54902%);fill-opacity:1;" d="M 20.730469 12 C 20.730469 16.820312 16.820312 20.730469 12 20.730469 C 7.179688 20.730469 3.269531 16.820312 3.269531 12 C 3.269531 7.179688 7.179688 3.269531 12 3.269531 C 16.820312 3.269531 20.730469 7.179688 20.730469 12 Z M 20.730469 12 "/>
<path style=" stroke:none;fill-rule:nonzero;fill:rgb(61.56863%,22.745098%,60.784316%);fill-opacity:1;" d="M 19.910156 12 C 19.910156 16.367188 16.367188 19.910156 12 19.910156 C 7.632812 19.910156 4.089844 16.367188 4.089844 12 C 4.089844 7.632812 7.632812 4.089844 12 4.089844 C 16.367188 4.089844 19.910156 7.632812 19.910156 12 Z M 19.910156 12 "/>
<path style=" stroke:none;fill-rule:nonzero;fill:rgb(94.117647%,89.019608%,92.54902%);fill-opacity:1;" d="M 19.402344 12 C 19.402344 16.085938 16.085938 19.402344 12 19.402344 C 7.914062 19.402344 4.597656 16.085938 4.597656 12 C 4.597656 7.914062 7.914062 4.597656 12 4.597656 C 16.085938 4.597656 19.402344 7.914062 19.402344 12 Z M 19.402344 12 "/>
<path style=" stroke:none;fill-rule:nonzero;fill:rgb(61.56863%,22.745098%,60.784316%);fill-opacity:1;" d="M 18.871094 12 C 18.871094 15.792969 15.792969 18.871094 12 18.871094 C 8.207031 18.871094 5.128906 15.792969 5.128906 12 C 5.128906 8.207031 8.207031 5.128906 12 5.128906 C 15.792969 5.128906 18.871094 8.207031 18.871094 12 Z M 18.871094 12 "/>
<path style=" stroke:none;fill-rule:nonzero;fill:rgb(94.117647%,89.019608%,92.54902%);fill-opacity:1;" d="M 15.789062 17.578125 L 14.871094 14.558594 C 15.769531 13.496094 16.027344 12.03125 15.546875 10.726562 L 17.441406 8.203125 L 14.421875 9.125 C 13.363281 8.226562 11.898438 7.96875 10.59375 8.449219 L 7.964844 6.40625 L 8.992188 9.574219 C 8.09375 10.632812 7.832031 12.097656 8.316406 13.402344 L 6.417969 15.921875 L 9.4375 15.003906 C 10.5 15.902344 11.964844 16.164062 13.269531 15.679688 Z M 13.453125 14.242188 C 12.253906 15.082031 10.597656 14.789062 9.753906 13.589844 C 8.914062 12.386719 9.207031 10.730469 10.40625 9.886719 C 11.609375 9.046875 13.265625 9.339844 14.109375 10.539062 C 14.949219 11.742188 14.65625 13.398438 13.453125 14.242188 Z M 13.453125 14.242188 "/>
<path style=" stroke:none;fill-rule:nonzero;fill:rgb(94.117647%,89.019608%,92.54902%);fill-opacity:1;" d="M 14.007812 9.953125 C 12.882812 8.824219 11.054688 8.824219 9.925781 9.953125 C 8.796875 11.078125 8.796875 12.90625 9.925781 14.035156 C 11.054688 15.164062 12.882812 15.164062 14.007812 14.035156 C 15.136719 12.90625 15.136719 11.078125 14.007812 9.953125 Z M 13.847656 10.113281 C 14.882812 11.152344 14.882812 12.835938 13.847656 13.871094 C 12.808594 14.910156 11.125 14.910156 10.089844 13.871094 C 9.050781 12.835938 9.050781 11.152344 10.089844 10.113281 C 11.125 9.078125 12.808594 9.078125 13.847656 10.113281 Z M 13.847656 10.113281 "/>
<path style=" stroke:none;fill-rule:nonzero;fill:url(#radial0);" d="M 4.226562 19.945312 L 13.859375 13.402344 L 12.382812 11.929688 Z M 4.226562 19.945312 "/>
<path style=" stroke:none;fill-rule:nonzero;fill:rgb(95.294118%,71.764708%,85.09804%);fill-opacity:1;" d="M 0.960938 22.886719 L 9.886719 9.753906 L 14.09375 13.960938 Z M 0.960938 22.886719 "/>
<path style=" stroke:none;fill-rule:nonzero;fill:rgb(61.56863%,22.745098%,60.784316%);fill-opacity:1;" d="M 23.015625 0.828125 L 9.886719 9.753906 L 14.09375 13.960938 Z M 23.015625 0.828125 "/>
<path style=" stroke:none;fill-rule:nonzero;fill:rgb(61.56863%,22.745098%,60.784316%);fill-opacity:1;" d="M 14.5 11.855469 C 14.5 13.242188 13.375 14.367188 11.988281 14.367188 C 10.601562 14.367188 9.476562 13.242188 9.476562 11.855469 C 9.476562 10.46875 10.601562 9.347656 11.988281 9.347656 C 13.375 9.347656 14.5 10.46875 14.5 11.855469 Z M 14.5 11.855469 "/>
<path style=" stroke:none;fill-rule:nonzero;fill:rgb(95.294118%,71.764708%,85.09804%);fill-opacity:1;" d="M 14.335938 11.855469 C 14.335938 13.152344 13.285156 14.203125 11.988281 14.203125 C 10.695312 14.203125 9.644531 13.152344 9.644531 11.855469 C 9.644531 10.5625 10.695312 9.511719 11.988281 9.511719 C 13.285156 9.511719 14.335938 10.5625 14.335938 11.855469 Z M 14.335938 11.855469 "/>
<path style=" stroke:none;fill-rule:nonzero;fill:rgb(61.56863%,22.745098%,60.784316%);fill-opacity:1;" d="M 13.148438 11.855469 C 13.148438 12.496094 12.628906 13.015625 11.988281 13.015625 C 11.351562 13.015625 10.832031 12.496094 10.832031 11.855469 C 10.832031 11.21875 11.351562 10.699219 11.988281 10.699219 C 12.628906 10.699219 13.148438 11.21875 13.148438 11.855469 Z M 13.148438 11.855469 "/>
</g>
</svg>
