<?xml version="1.0" encoding="UTF-8"?>
<svg xmlns="http://www.w3.org/2000/svg" xmlns:xlink="http://www.w3.org/1999/xlink" width="24px" height="24px" viewBox="0 0 24 24" version="1.1">
<g id="surface1">
<path style="fill:none;stroke-width:1;stroke-linecap:round;stroke-linejoin:miter;stroke:rgb(0%,0%,0%);stroke-opacity:1;stroke-miterlimit:4;" d="M 10 6 L 10 10 " transform="matrix(1.5,0,0,1.5,0,0)"/>
<path style="fill-rule:nonzero;fill:rgb(94.117647%,89.019608%,92.54902%);fill-opacity:1;stroke-width:1;stroke-linecap:butt;stroke-linejoin:miter;stroke:rgb(90.196079%,0.784314%,70.588237%);stroke-opacity:1;stroke-miterlimit:4;" d="M 2.776042 4.044271 L 2.776042 4.049479 L 2.471354 4.049479 C 2.0625 4.049479 1.518229 4.427083 1.518229 4.895833 L 1.518229 11.104167 C 1.518229 11.572917 2.0625 11.950521 2.471354 11.950521 L 2.776042 11.950521 L 2.776042 11.955729 L 13.049479 11.955729 L 13.049479 11.950521 L 13.354167 11.950521 C 13.763021 11.950521 14.307292 11.572917 14.307292 11.104167 L 14.307292 4.895833 C 14.307292 4.427083 13.763021 4.049479 13.354167 4.049479 L 13.049479 4.049479 L 13.049479 4.044271 Z M 2.776042 4.044271 " transform="matrix(1.5,0,0,1.5,0,0)"/>
<path style="fill:none;stroke-width:1;stroke-linecap:round;stroke-linejoin:round;stroke:rgb(61.56863%,22.745098%,60.784316%);stroke-opacity:1;stroke-miterlimit:4;" d="M 5.499843 6 L 7.999843 8 L 5.499843 10 " transform="matrix(1.5,0,0,1.5,0.00414129,0)"/>
<path style="fill:none;stroke-width:1;stroke-linecap:round;stroke-linejoin:round;stroke:rgb(61.56863%,22.745098%,60.784316%);stroke-opacity:1;stroke-miterlimit:4;" d="M 10.499843 6 L 10.499843 10 " transform="matrix(1.5,0,0,1.5,0.00414129,0)"/>
</g>
</svg>
