<?xml version="1.0" encoding="UTF-8"?>
<svg xmlns="http://www.w3.org/2000/svg" xmlns:xlink="http://www.w3.org/1999/xlink" width="24px" height="24px" viewBox="0 0 24 24" version="1.1">
<g id="surface1">
<path style=" stroke:none;fill-rule:evenodd;fill:rgb(90.196079%,0.784314%,70.588237%);fill-opacity:1;" d="M 6.597656 2.429688 C 7.007812 2.441406 7.414062 2.566406 7.753906 2.808594 L 18.683594 10.492188 C 19.164062 10.832031 19.488281 11.382812 19.488281 12 C 19.488281 12.613281 19.164062 13.167969 18.683594 13.503906 L 7.753906 21.191406 C 7.144531 21.621094 6.371094 21.683594 5.699219 21.398438 C 5.039062 21.121094 4.511719 20.464844 4.511719 19.691406 L 4.511719 4.308594 C 4.511719 3.761719 4.769531 3.257812 5.167969 2.917969 C 5.585938 2.5625 6.097656 2.414062 6.597656 2.429688 Z M 11.472656 10.144531 L 11.472656 13.855469 L 14.109375 12 Z M 11.472656 10.144531 "/>
<path style=" stroke:none;fill-rule:evenodd;fill:rgb(95.294118%,71.764708%,85.09804%);fill-opacity:1;" d="M 16.5 12 L 6.722656 5.417969 L 6.785156 18.394531 Z M 16.5 12 "/>
</g>
</svg>
