<?xml version="1.0" encoding="UTF-8"?>
<svg xmlns="http://www.w3.org/2000/svg" xmlns:xlink="http://www.w3.org/1999/xlink" width="24px" height="24px" viewBox="0 0 24 24" version="1.1">
<g id="surface1">
<path style="fill-rule:evenodd;fill:rgb(94.117647%,89.019608%,92.54902%);fill-opacity:1;stroke-width:1.625429;stroke-linecap:round;stroke-linejoin:round;stroke:rgb(90.196079%,0.784314%,70.588237%);stroke-opacity:1;stroke-miterlimit:4;" d="M 3.145931 -5.488108 L 18.807836 -5.488108 C 19.705221 -5.488108 20.433288 -4.760062 20.433288 -3.862702 L 20.433288 12.835798 C 20.433288 13.733157 19.705221 14.461203 18.807836 14.461203 L 3.145931 14.461203 C 2.248546 14.461203 1.520479 13.733157 1.520479 12.835798 L 1.520479 -3.862702 C 1.520479 -4.760062 2.248546 -5.488108 3.145931 -5.488108 Z M 3.145931 -5.488108 " transform="matrix(0.92282,0,0,0.922847,0.878121,8.345932)"/>
<path style="fill-rule:nonzero;fill:rgb(61.56863%,22.745098%,60.784316%);fill-opacity:1;stroke-width:0.406357;stroke-linecap:butt;stroke-linejoin:miter;stroke:rgb(61.56863%,22.745098%,60.784316%);stroke-opacity:1;stroke-miterlimit:4;" d="M 5.203143 -1.217186 C 5.262405 -1.85211 5.711097 -2.317721 6.274079 -2.317721 C 6.650811 -2.317721 6.99368 -2.114545 7.184163 -1.788617 C 7.378878 -2.118778 7.704815 -2.317721 8.077315 -2.317721 C 8.640297 -2.317721 9.088989 -1.85211 9.144017 -1.217186 C 9.152483 -1.191789 9.169415 -1.04364 9.110154 -0.802369 C 9.029728 -0.451044 8.839245 -0.137815 8.564104 0.116154 L 7.184163 1.364838 L 5.783057 0.116154 C 5.507916 -0.137815 5.317433 -0.451044 5.237007 -0.802369 C 5.177746 -1.04364 5.19891 -1.187556 5.203143 -1.217186 Z M 5.38516 -0.836231 C 5.461353 -0.51877 5.634904 -0.226704 5.884648 0.00186814 L 7.184163 1.161663 L 8.462513 0.00186814 C 8.71649 -0.226704 8.89004 -0.51877 8.962001 -0.836231 C 9.017029 -1.064804 8.995864 -1.191789 8.995864 -1.191789 L 8.995864 -1.200255 C 8.945069 -1.758988 8.559871 -2.165339 8.077315 -2.165339 C 7.717514 -2.165339 7.404276 -1.945232 7.256123 -1.589675 L 7.184163 -1.424594 L 7.116436 -1.589675 C 6.968282 -1.936766 6.638112 -2.161106 6.274079 -2.161106 C 5.791523 -2.161106 5.402092 -1.758988 5.351296 -1.191789 C 5.351296 -1.191789 5.330132 -1.064804 5.38516 -0.836231 Z M 5.38516 -0.836231 " transform="matrix(0.92282,0,0,0.922847,0.878121,8.345932)"/>
<path style="fill:none;stroke-width:1.625429;stroke-linecap:round;stroke-linejoin:miter;stroke:rgb(90.196079%,0.784314%,70.588237%);stroke-opacity:1;stroke-miterlimit:4;" d="M 5.27087 3.100297 L 16.792953 3.100297 " transform="matrix(0.92282,0,0,0.922847,0.878121,8.345932)"/>
<path style="fill-rule:nonzero;fill:rgb(94.117647%,89.019608%,92.54902%);fill-opacity:1;stroke-width:1.625431;stroke-linecap:butt;stroke-linejoin:miter;stroke:rgb(90.196079%,0.784314%,70.588237%);stroke-opacity:1;stroke-miterlimit:4;" d="M -11.239037 -3.425729 C -11.24005 -0.381473 -13.695419 2.085387 -16.724493 2.08486 C -19.753567 2.084333 -22.208411 -0.38124 -22.207397 -3.425496 C -22.206384 -6.469752 -19.751015 -8.936612 -16.721941 -8.936085 C -13.692867 -8.935558 -11.238023 -6.469984 -11.239037 -3.425729 Z M -11.239037 -3.425729 " transform="matrix(-0.891062,0.240018,-0.23768,-0.891712,0.878121,8.345932)"/>
<path style="fill:none;stroke-width:1.625429;stroke-linecap:round;stroke-linejoin:miter;stroke:rgb(90.196079%,0.784314%,70.588237%);stroke-opacity:1;stroke-miterlimit:4;" d="M 5.237007 5.987085 L 16.75909 5.987085 " transform="matrix(0.92282,0,0,0.922847,0.878121,8.345932)"/>
<path style="fill:none;stroke-width:1.625429;stroke-linecap:round;stroke-linejoin:miter;stroke:rgb(90.196079%,0.784314%,70.588237%);stroke-opacity:1;stroke-miterlimit:4;" d="M 5.321666 8.827311 L 16.843749 8.827311 " transform="matrix(0.92282,0,0,0.922847,0.878121,8.345932)"/>
<path style="fill:none;stroke-width:1.625429;stroke-linecap:round;stroke-linejoin:miter;stroke:rgb(90.196079%,0.784314%,70.588237%);stroke-opacity:1;stroke-miterlimit:4;" d="M 13.493906 7.168173 L 20.495201 7.168173 " transform="matrix(0.92282,0,0,0.922847,0.91083,0.771593)"/>
<path style="fill:none;stroke-width:1.625429;stroke-linecap:round;stroke-linejoin:miter;stroke:rgb(90.196079%,0.784314%,70.588237%);stroke-opacity:1;stroke-miterlimit:4;" d="M 16.994554 10.668721 L 16.994554 3.667626 " transform="matrix(0.92282,0,0,0.922847,0.91083,0.771593)"/>
</g>
</svg>
