<?xml version="1.0" encoding="UTF-8"?>
<svg xmlns="http://www.w3.org/2000/svg" xmlns:xlink="http://www.w3.org/1999/xlink" width="24px" height="24px" viewBox="0 0 24 24" version="1.1">
<defs>
<filter id="alpha" filterUnits="objectBoundingBox" x="0%" y="0%" width="100%" height="100%">
  <feColorMatrix type="matrix" in="SourceGraphic" values="0 0 0 0 1 0 0 0 0 1 0 0 0 0 1 0 0 0 1 0"/>
</filter>
<mask id="mask0">
  <g filter="url(#alpha)">
<rect x="0" y="0" width="24" height="24" style="fill:rgb(0%,0%,0%);fill-opacity:0.99;stroke:none;"/>
  </g>
</mask>
<clipPath id="clip1">
  <rect x="0" y="0" width="24" height="24"/>
</clipPath>
<g id="surface5" clip-path="url(#clip1)">
<path style=" stroke:none;fill-rule:nonzero;fill:rgb(94.117647%,89.019608%,92.54902%);fill-opacity:1;" d="M 19.890625 16.890625 L 4.253906 16.890625 L 4.253906 7.253906 L 19.890625 7.253906 Z M 19.890625 16.890625 "/>
</g>
</defs>
<g id="surface1">
<path style="fill-rule:evenodd;fill:rgb(95.294118%,71.764708%,85.09804%);fill-opacity:0.950495;stroke-width:0.264583;stroke-linecap:round;stroke-linejoin:round;stroke:rgb(90.196079%,0.784314%,70.588237%);stroke-opacity:1;stroke-miterlimit:4;" d="M 0.802707 0.910194 L 3.433382 0.910194 C 3.653179 0.910194 3.830257 1.087961 3.830257 1.307069 L 3.830257 2.948313 C 3.830257 3.16811 3.653179 3.345188 3.433382 3.345188 L 0.802707 3.345188 C 0.583599 3.345188 0.405832 3.16811 0.405832 2.948313 L 0.405832 1.307069 C 0.405832 1.087961 0.583599 0.910194 0.802707 0.910194 Z M 0.802707 0.910194 " transform="matrix(5.669291,0,0,5.669291,0.00000135166,0)"/>
<use xlink:href="#surface5" mask="url(#mask0)"/>
<path style=" stroke:none;fill-rule:nonzero;fill:rgb(61.56863%,22.745098%,60.784316%);fill-opacity:1;" d="M 20.28125 17.136719 L 19.597656 17.136719 L 19.597656 6.863281 L 20.28125 6.863281 Z M 20.28125 17.136719 "/>
<path style=" stroke:none;fill-rule:nonzero;fill:rgb(61.56863%,22.745098%,60.784316%);fill-opacity:1;" d="M 4.546875 17.136719 L 3.863281 17.136719 L 3.863281 6.863281 L 4.546875 6.863281 Z M 4.546875 17.136719 "/>
<path style=" stroke:none;fill-rule:nonzero;fill:rgb(61.56863%,22.745098%,60.784316%);fill-opacity:1;" d="M 19.597656 16.496094 L 19.597656 17.136719 L 4.546875 17.136719 L 4.546875 16.496094 Z M 19.597656 16.496094 "/>
<path style=" stroke:none;fill-rule:nonzero;fill:rgb(61.56863%,22.745098%,60.784316%);fill-opacity:1;" d="M 19.597656 6.863281 L 19.597656 7.503906 L 4.546875 7.503906 L 4.546875 6.863281 Z M 19.597656 6.863281 "/>
<path style=" stroke:none;fill-rule:nonzero;fill:rgb(61.56863%,22.745098%,60.784316%);fill-opacity:1;" d="M 19.597656 10.074219 L 19.597656 10.714844 L 4.546875 10.714844 L 4.546875 10.074219 Z M 19.597656 10.074219 "/>
</g>
</svg>
