<?xml version="1.0" encoding="UTF-8"?>
<svg xmlns="http://www.w3.org/2000/svg" xmlns:xlink="http://www.w3.org/1999/xlink" width="24px" height="24px" viewBox="0 0 24 24" version="1.1">
<g id="surface1">
<path style=" stroke:none;fill-rule:nonzero;fill:rgb(33.333334%,34.117648%,32.549021%);fill-opacity:1;" d="M 15 3 C 13.351562 3 12 4.351562 12 6 L 12 18 C 12 19.648438 13.351562 21 15 21 L 19.5 21 C 21.148438 21 22.5 19.648438 22.5 18 L 22.5 6 C 22.5 4.351562 21.148438 3 19.5 3 Z M 4.5 4.5 L 4.5 7.5 L 1.5 7.5 L 1.5 10.5 L 4.5 10.5 L 4.5 13.5 L 7.5 13.5 L 7.5 10.5 L 10.5 10.5 L 10.5 7.5 L 7.5 7.5 L 7.5 4.5 Z M 15 6 L 19.5 6 L 19.5 18 L 15 18 Z M 1.5 16.5 L 1.5 19.5 L 10.5 19.5 L 10.5 16.5 Z M 1.5 16.5 "/>
</g>
</svg>
