<?xml version="1.0" encoding="UTF-8" standalone="no"?>
<svg
   xmlns:dc="http://purl.org/dc/elements/1.1/"
   xmlns:cc="http://creativecommons.org/ns#"
   xmlns:rdf="http://www.w3.org/1999/02/22-rdf-syntax-ns#"
   xmlns:svg="http://www.w3.org/2000/svg"
   xmlns="http://www.w3.org/2000/svg"
   xmlns:sodipodi="http://sodipodi.sourceforge.net/DTD/sodipodi-0.dtd"
   xmlns:inkscape="http://www.inkscape.org/namespaces/inkscape"
   height="16"
   viewBox="0 0 4.2333332 4.2333335"
   width="16"
   version="1.1"
   id="svg9"
   sodipodi:docname="lc_numberformatpercent.svg"
   inkscape:export-filename="/home/annisaauliarasyidah/Desktop/4_242 (aulia)/lc 222/lc_numberformatpercent.png"
   inkscape:export-xdpi="96"
   inkscape:export-ydpi="96"
   inkscape:version="0.92.4 (unknown)">
  <metadata
     id="metadata15">
    <rdf:RDF>
      <cc:Work
         rdf:about="">
        <dc:format>image/svg+xml</dc:format>
        <dc:type
           rdf:resource="http://purl.org/dc/dcmitype/StillImage" />
      </cc:Work>
    </rdf:RDF>
  </metadata>
  <defs
     id="defs13" />
  <sodipodi:namedview
     pagecolor="#ffffff"
     bordercolor="#666666"
     borderopacity="1"
     objecttolerance="10"
     gridtolerance="10"
     guidetolerance="10"
     inkscape:pageopacity="0"
     inkscape:pageshadow="2"
     inkscape:window-width="1366"
     inkscape:window-height="707"
     id="namedview11"
     showgrid="true"
     inkscape:zoom="22.081895"
     inkscape:cx="-5.4362374"
     inkscape:cy="8"
     inkscape:window-x="0"
     inkscape:window-y="0"
     inkscape:window-maximized="1"
     inkscape:current-layer="svg9"
     inkscape:snap-global="false">
    <inkscape:grid
       type="xygrid"
       id="grid815" />
  </sodipodi:namedview>
  <linearGradient
     id="a"
     gradientUnits="userSpaceOnUse"
     x1="2.549159"
     x2="2.549159"
     y1="296.24165"
     y2="293.648407">
    <stop
       offset="0"
       stop-color="#555"
       id="stop2" />
    <stop
       offset="1"
       id="stop4" />
  </linearGradient>
  <path
     d="m 3.2207253,1.9231866 q 0.2142531,0 0.3323108,0.1371022 0.1180577,0.1370896 0.1180577,0.3867854 0,0.2839777 -0.100568,0.5630562 -0.100569,0.2790784 -0.2754686,0.4798199 -0.2229979,0.2497083 -0.5115836,0.2497083 -0.2361156,0 -0.3804084,-0.1713712 -0.1442927,-0.1762582 -0.1442927,-0.4602359 0,-0.4602356 0.2929581,-0.8225503 Q 2.8490617,1.9231866 3.2207253,1.9231866 Z M 2.8578071,3.5927707 q 0.1880179,0 0.3541731,-0.1860441 0.1661554,-0.1860563 0.2536056,-0.4406638 0.091824,-0.2594942 0.091824,-0.4945051 0,-0.1615731 -0.091824,-0.2741793 -0.087449,-0.1175553 -0.214253,-0.1175553 -0.2011354,0 -0.3629183,0.2545951 -0.161783,0.2545949 -0.231743,0.5238877 -0.065587,0.2643933 -0.065587,0.4210672 0,0.1370895 0.074333,0.2252249 0.074334,0.088135 0.1923905,0.088135 z M 1.5285638,0.49841168 q 0.1355479,0 0.2186256,0.0685635 0.083079,0.0637018 0.1836454,0.13219046 0.1049396,0.0637018 0.2842133,0.0637018 0.2055079,0 0.3541732,-0.0734253 0.1530379,-0.0734252 0.3279383,-0.25949418 H 3.0676875 L 1.3842711,3.8033854 H 1.1743906 L 2.7091417,0.73839646 q -0.2273705,0.14688801 -0.4809762,0.14688801 -0.1705277,0 -0.2842131,-0.0489917 0.030607,0.12241703 0.030607,0.21543893 0,0.4553366 -0.2623506,0.8666181 -0.257978,0.4063698 -0.6340139,0.4063698 -0.21425298,0 -0.36729077,-0.1811572 -0.1486646,-0.1860441 -0.1486646,-0.4406517 0,-0.465135 0.29295819,-0.83233623 Q 1.1525283,0.49846151 1.5285641,0.49846151 Z m 0,0.14688799 q -0.2098801,0 -0.4241332,0.43085313 -0.20988049,0.4259666 -0.20988049,0.7833944 0,0.1321904 0.0699604,0.2154266 0.0743335,0.083273 0.18801789,0.083273 0.2667231,0 0.4897212,-0.3476295 0.2229979,-0.3525287 0.2229979,-0.7686968 0,-0.0929974 -0.039352,-0.23991003 -0.08745,-0.0244332 -0.1486655,-0.0538532 -0.056842,-0.0342818 -0.078704,-0.0538535 -0.01749,-0.0195718 -0.03498,-0.0342818 -0.017489,-0.01471 -0.034981,-0.01471 z"
     id="path7"
     style="fill:#f3b7d9;stroke:#9d3a9b;stroke-width:0.06614584;stroke-miterlimit:4;stroke-dasharray:none"
     inkscape:connector-curvature="0" />
</svg>
