<?xml version="1.0" encoding="UTF-8"?>
<svg xmlns="http://www.w3.org/2000/svg" xmlns:xlink="http://www.w3.org/1999/xlink" width="24px" height="24px" viewBox="0 0 24 24" version="1.1">
<g id="surface1">
<path style=" stroke:none;fill-rule:nonzero;fill:rgb(33.333334%,34.117648%,32.549021%);fill-opacity:1;" d="M 1.5 4.5 C 0.667969 4.5 0 5.167969 0 6 L 0 19.5 C 0 20.332031 0.667969 21 1.5 21 L 22.5 21 C 23.332031 21 24 20.332031 24 19.5 L 24 6 C 24 5.167969 23.332031 4.5 22.5 4.5 Z M 13.5 7.5 L 15 7.5 L 15 10.5 L 18 10.5 C 19.65625 10.5 21 12.148438 21 14.25 C 21 16.320312 19.648438 18.019531 18 18 L 13.5 18 Z M 4.5 10.5 L 9 10.5 C 9.828125 10.5 10.5 11.171875 10.5 12 L 10.5 18 L 5.25 18 C 4.007812 18 3 16.992188 3 15.75 C 3 14.507812 4.007812 13.5 5.25 13.5 L 9 13.5 L 9 12 L 4.5 12 Z M 15 12 L 15 16.5 L 18 16.5 C 18.828125 16.5 19.5 15.492188 19.5 14.25 C 19.5 13.007812 18.828125 12 18 12 Z M 5.25 15 C 4.835938 15 4.5 15.335938 4.5 15.75 C 4.5 16.164062 4.835938 16.5 5.25 16.5 L 9 16.5 L 9 15 Z M 5.25 15 "/>
</g>
</svg>
