<?xml version="1.0" encoding="UTF-8"?>
<svg xmlns="http://www.w3.org/2000/svg" xmlns:xlink="http://www.w3.org/1999/xlink" width="24px" height="24px" viewBox="0 0 24 24" version="1.1">
<g id="surface1">
<path style=" stroke:none;fill-rule:nonzero;fill:rgb(33.333334%,34.117648%,32.549021%);fill-opacity:1;" d="M 4.5 1.5 C 4.5 2.328125 3.828125 3 3 3 L 3 4.5 L 4.5 4.5 L 4.5 9 L 6 9 L 6 1.5 Z M 10.5 3 L 10.5 6 L 22.5 6 L 22.5 3 Z M 10.5 7.5 L 10.5 10.5 L 16.5 10.5 L 16.5 7.5 Z M 5.25 13.5 C 4.007812 13.5 3 14.507812 3 15.75 L 4.5 15.75 C 4.5 15.335938 4.835938 15 5.25 15 C 5.664062 15 6 15.335938 6 15.75 C 6 15.957031 5.953125 16.0625 5.867188 16.179688 L 3 19.769531 L 3 21 L 7.5 21 L 7.5 19.5 L 5.097656 19.5 L 6.988281 17.105469 C 7.214844 16.859375 7.5 16.460938 7.5 15.75 C 7.5 14.507812 6.492188 13.5 5.25 13.5 Z M 10.5 15 L 10.5 18 L 22.5 18 L 22.5 15 Z M 10.5 19.5 L 10.5 22.5 L 16.5 22.5 L 16.5 19.5 Z M 10.5 19.5 "/>
</g>
</svg>
