<?xml version="1.0" encoding="UTF-8"?>
<svg xmlns="http://www.w3.org/2000/svg" xmlns:xlink="http://www.w3.org/1999/xlink" width="24px" height="24px" viewBox="0 0 24 24" version="1.1">
<defs>
<filter id="alpha" filterUnits="objectBoundingBox" x="0%" y="0%" width="100%" height="100%">
  <feColorMatrix type="matrix" in="SourceGraphic" values="0 0 0 0 1 0 0 0 0 1 0 0 0 0 1 0 0 0 1 0"/>
</filter>
<mask id="mask0">
  <g filter="url(#alpha)">
<rect x="0" y="0" width="24" height="24" style="fill:rgb(0%,0%,0%);fill-opacity:0.99;stroke:none;"/>
  </g>
</mask>
<clipPath id="clip1">
  <rect x="0" y="0" width="24" height="24"/>
</clipPath>
<g id="surface5" clip-path="url(#clip1)">
<path style=" stroke:none;fill-rule:nonzero;fill:rgb(95.294118%,71.764708%,85.09804%);fill-opacity:1;" d="M 19.5 3 L 19.5 21 C 19.613281 22.605469 19.503906 22.5 18 22.5 L 6.050781 22.5 C 4.421875 22.609375 4.5 22.535156 4.5 21 L 4.5 3 C 4.367188 1.34375 4.558594 1.5 6.101562 1.5 L 17.949219 1.5 C 19.578125 1.390625 19.5 1.464844 19.5 3 Z M 19.5 3 "/>
</g>
</defs>
<g id="surface1">
<use xlink:href="#surface5" mask="url(#mask0)"/>
<path style=" stroke:none;fill-rule:evenodd;fill:rgb(90.196079%,0.784314%,70.588237%);fill-opacity:0.950495;" d="M 6.75 3 L 17.25 3 C 17.664062 3 18 3.335938 18 3.75 L 18 8.25 C 18 8.664062 17.664062 9 17.25 9 L 6.75 9 C 6.335938 9 6 8.664062 6 8.25 L 6 3.75 C 6 3.335938 6.335938 3 6.75 3 Z M 6.75 3 "/>
<path style="fill:none;stroke-width:0.264583;stroke-linecap:round;stroke-linejoin:miter;stroke:rgb(90.196079%,0.784314%,70.588237%);stroke-opacity:1;stroke-miterlimit:4;" d="M 1.190625 2.248958 L 3.042708 2.248958 " transform="matrix(5.669291,0,0,5.669291,0.00000135166,0)"/>
<path style="fill:none;stroke-width:0.264583;stroke-linecap:round;stroke-linejoin:miter;stroke:rgb(90.196079%,0.784314%,70.588237%);stroke-opacity:1;stroke-miterlimit:4;" d="M 1.190625 2.778125 L 2.778125 2.778125 " transform="matrix(5.669291,0,0,5.669291,0.00000135166,0)"/>
<path style="fill:none;stroke-width:0.264583;stroke-linecap:round;stroke-linejoin:miter;stroke:rgb(90.196079%,0.784314%,70.588237%);stroke-opacity:1;stroke-miterlimit:4;" d="M 1.190625 3.307292 L 2.489426 3.307292 " transform="matrix(5.669291,0,0,5.669291,0.00000135166,0)"/>
<path style=" stroke:none;fill-rule:evenodd;fill:rgb(95.294118%,71.764708%,85.09804%);fill-opacity:0.950495;" d="M 8.25 4.5 L 15.75 4.5 C 16.164062 4.5 16.5 4.835938 16.5 5.25 L 16.5 6.75 C 16.5 7.164062 16.164062 7.5 15.75 7.5 L 8.25 7.5 C 7.835938 7.5 7.5 7.164062 7.5 6.75 L 7.5 5.25 C 7.5 4.835938 7.835938 4.5 8.25 4.5 Z M 8.25 4.5 "/>
</g>
</svg>
