<?xml version="1.0" encoding="UTF-8"?>
<svg xmlns="http://www.w3.org/2000/svg" xmlns:xlink="http://www.w3.org/1999/xlink" width="24px" height="24px" viewBox="0 0 24 24" version="1.1">
<g id="surface1">
<path style="fill-rule:nonzero;fill:rgb(95.294118%,71.764708%,85.09804%);fill-opacity:1;stroke-width:0.264583;stroke-linecap:butt;stroke-linejoin:round;stroke:rgb(90.196079%,0.784314%,70.588237%);stroke-opacity:1;stroke-miterlimit:4;" d="M 0.398253 2.771235 L 0.398253 3.829568 L 1.192003 3.073714 Z M 0.398253 2.771235 " transform="matrix(5.669291,0,0,5.669291,0.00000135166,0)"/>
<path style="fill-rule:nonzero;fill:rgb(94.117647%,89.019608%,92.54902%);fill-opacity:1;stroke-width:0.264583;stroke-linecap:round;stroke-linejoin:round;stroke:rgb(90.196079%,0.784314%,70.588237%);stroke-opacity:1;stroke-miterlimit:4;" d="M -3.608393 0.654568 L -0.628385 0.654568 C -0.501606 0.654568 -0.398253 0.771701 -0.398253 0.917084 L -0.398253 2.995855 C -0.398253 3.140549 -0.501606 3.258372 -0.628385 3.258372 L -3.608393 3.258372 C -3.735173 3.258372 -3.837836 3.140549 -3.837836 2.995855 L -3.837836 0.917084 C -3.837836 0.771701 -3.735173 0.654568 -3.608393 0.654568 Z M -3.608393 0.654568 " transform="matrix(-5.669291,0,0,5.669291,0.00000135166,0)"/>
<path style=" stroke:none;fill-rule:evenodd;fill:rgb(61.56863%,22.745098%,60.784316%);fill-opacity:1;" d="M 15 0 C 15.28125 0.0078125 15.5625 0.101562 15.796875 0.269531 L 23.3125 5.769531 C 23.640625 6.011719 23.863281 6.410156 23.863281 6.847656 C 23.863281 7.289062 23.640625 7.683594 23.3125 7.925781 L 15.796875 13.425781 C 15.375 13.734375 14.84375 13.777344 14.382812 13.574219 C 13.929688 13.375 13.566406 12.90625 13.566406 12.351562 L 13.566406 1.34375 C 13.566406 0.957031 13.742188 0.59375 14.019531 0.351562 C 14.304688 0.0976562 14.65625 -0.0117188 15 0 Z M 18.351562 5.519531 L 18.351562 8.175781 L 20.164062 6.847656 Z M 18.351562 5.519531 "/>
<path style=" stroke:none;fill-rule:evenodd;fill:rgb(90.196079%,0.784314%,70.588237%);fill-opacity:1;" d="M 21.878906 7.019531 L 15.152344 2.3125 L 15.195312 11.597656 Z M 21.878906 7.019531 "/>
</g>
</svg>
