<?xml version="1.0" encoding="UTF-8"?>
<svg xmlns="http://www.w3.org/2000/svg" xmlns:xlink="http://www.w3.org/1999/xlink" width="24px" height="24px" viewBox="0 0 24 24" version="1.1">
<g id="surface1">
<path style=" stroke:none;fill-rule:nonzero;fill:rgb(61.56863%,22.745098%,60.784316%);fill-opacity:1;" d="M 1.835938 3 L 22.164062 3 C 22.351562 3 22.5 2.808594 22.5 2.570312 L 22.5 1.929688 C 22.5 1.691406 22.351562 1.5 22.164062 1.5 L 1.835938 1.5 C 1.648438 1.5 1.5 1.691406 1.5 1.929688 L 1.5 2.570312 C 1.5 2.808594 1.648438 3 1.835938 3 Z M 1.835938 3 "/>
<path style=" stroke:none;fill-rule:nonzero;fill:rgb(90.196079%,0.784314%,70.588237%);fill-opacity:1;" d="M 12.015625 22.507812 C 9.289062 22.507812 6.988281 21.648438 5.109375 19.925781 C 3.234375 18.183594 2.292969 15.917969 2.292969 13.128906 C 2.292969 10.390625 3.222656 8.140625 5.082031 6.382812 C 6.9375 4.625 9.308594 3.746094 12.199219 3.746094 C 15.105469 3.746094 17.476562 4.625 19.316406 6.382812 C 21.171875 8.125 22.101562 10.410156 22.101562 13.234375 C 22.101562 15.972656 21.164062 18.203125 19.285156 19.925781 C 17.429688 21.648438 15.003906 22.507812 12.015625 22.507812 Z M 18.648438 13.207031 C 18.648438 11.902344 18.507812 10.742188 18.226562 9.730469 C 17.941406 8.714844 17.578125 7.898438 17.136719 7.28125 C 16.710938 6.664062 16.207031 6.15625 15.621094 5.757812 C 15.035156 5.359375 14.460938 5.089844 13.894531 4.941406 C 13.347656 4.796875 12.785156 4.726562 12.199219 4.726562 C 11.207031 4.726562 10.320312 4.914062 9.53125 5.296875 C 8.746094 5.675781 8.117188 6.15625 7.65625 6.738281 C 7.210938 7.300781 6.835938 7.96875 6.535156 8.75 C 6.230469 9.527344 6.019531 10.28125 5.898438 11.007812 C 5.796875 11.714844 5.746094 12.4375 5.746094 13.183594 C 5.746094 14.105469 5.847656 15.011719 6.050781 15.902344 C 6.25 16.789062 6.574219 17.675781 7.019531 18.566406 C 7.460938 19.453125 8.117188 20.167969 8.988281 20.714844 C 9.875 21.257812 10.925781 21.527344 12.136719 21.527344 C 13.367188 21.527344 14.429688 21.257812 15.316406 20.714844 C 16.226562 20.167969 16.902344 19.453125 17.347656 18.566406 C 17.8125 17.675781 18.144531 16.789062 18.347656 15.902344 C 18.546875 15.011719 18.648438 14.117188 18.648438 13.207031 Z M 18.648438 13.207031 "/>
</g>
</svg>
