<?xml version="1.0" encoding="UTF-8"?>
<svg xmlns="http://www.w3.org/2000/svg" xmlns:xlink="http://www.w3.org/1999/xlink" width="24px" height="24px" viewBox="0 0 24 24" version="1.1">
<g id="surface1">
<path style="fill-rule:evenodd;fill:rgb(94.117647%,89.019608%,92.54902%);fill-opacity:1;stroke-width:0.264583;stroke-linecap:round;stroke-linejoin:round;stroke:rgb(90.196079%,0.784314%,70.588237%);stroke-opacity:1;stroke-miterlimit:4;" d="M 0.79375 0.926042 L 3.439583 0.926042 C 3.658691 0.926042 3.836458 1.103809 3.836458 1.322917 L 3.836458 3.175 C 3.836458 3.394108 3.658691 3.571875 3.439583 3.571875 L 0.79375 3.571875 C 0.574642 3.571875 0.396875 3.394108 0.396875 3.175 L 0.396875 1.322917 C 0.396875 1.103809 0.574642 0.926042 0.79375 0.926042 Z M 0.79375 0.926042 " transform="matrix(5.669291,0,0,5.669291,0.00000135166,0)"/>
<path style=" stroke:none;fill-rule:evenodd;fill:rgb(61.56863%,22.745098%,60.784316%);fill-opacity:1;" d="M 21 7.5 L 21 9 L 10.5 9 L 10.5 7.5 Z M 10.5 7.5 L 10.5 9 L 7.5 9 L 7.5 7.5 Z M 6 7.5 L 6 9 L 3 9 L 3 7.5 Z M 21 10.5 L 21 12 L 10.5 12 L 10.5 10.5 Z M 10.5 10.5 L 10.5 12 L 7.5 12 L 7.5 10.5 Z M 6 10.5 L 6 12 L 3 12 L 3 10.5 Z M 21 13.5 L 21 15 L 10.5 15 L 10.5 13.5 Z M 10.5 13.5 L 10.5 15 L 7.5 15 L 7.5 13.5 Z M 6 13.5 L 6 15 L 3 15 L 3 13.5 Z M 21 16.5 L 21 18 L 10.5 18 L 10.5 16.5 Z M 10.5 16.5 L 10.5 18 L 7.5 18 L 7.5 16.5 Z M 6 16.5 L 6 18 L 3 18 L 3 16.5 Z M 6 16.5 "/>
</g>
</svg>
