<?xml version="1.0" encoding="UTF-8"?>
<svg xmlns="http://www.w3.org/2000/svg" xmlns:xlink="http://www.w3.org/1999/xlink" width="24px" height="24px" viewBox="0 0 24 24" version="1.1">
<g id="surface1">
<path style=" stroke:none;fill-rule:nonzero;fill:rgb(33.333334%,34.117648%,32.549021%);fill-opacity:1;" d="M 1.5 0 L 1.5 3 L 22.5 3 L 22.5 0 Z M 1.5 6 L 1.5 9 L 12 9 L 12 6 Z M 19.5 7.5 C 19.035156 7.5 18.671875 7.636719 18.375 7.921875 C 16.851562 9.078125 16.085938 9.902344 15 10.832031 L 15 13.253906 L 18.375 16.078125 C 18.671875 16.363281 19.035156 16.5 19.5 16.5 L 21 16.5 L 21 15 C 21 14.613281 20.804688 14.207031 20.53125 13.921875 L 19.972656 13.5 L 18 12 L 19.972656 10.5 L 20.53125 10.078125 C 20.804688 9.792969 21 9.335938 21 9 L 21 7.5 Z M 1.5 15 L 1.5 18 L 12 18 L 12 15 Z M 1.5 21 L 1.5 24 L 22.5 24 L 22.5 21 Z M 1.5 21 "/>
</g>
</svg>
