<?xml version="1.0" encoding="UTF-8"?>
<svg xmlns="http://www.w3.org/2000/svg" xmlns:xlink="http://www.w3.org/1999/xlink" width="24px" height="24px" viewBox="0 0 24 24" version="1.1">
<defs>
<filter id="alpha" filterUnits="objectBoundingBox" x="0%" y="0%" width="100%" height="100%">
  <feColorMatrix type="matrix" in="SourceGraphic" values="0 0 0 0 1 0 0 0 0 1 0 0 0 0 1 0 0 0 1 0"/>
</filter>
<mask id="mask0">
  <g filter="url(#alpha)">
<rect x="0" y="0" width="24" height="24" style="fill:rgb(0%,0%,0%);fill-opacity:0.75;stroke:none;"/>
  </g>
</mask>
<clipPath id="clip1">
  <rect x="0" y="0" width="24" height="24"/>
</clipPath>
<g id="surface5" clip-path="url(#clip1)">
<path style=" stroke:none;fill-rule:nonzero;fill:rgb(90.196079%,0.784314%,70.588237%);fill-opacity:1;" d="M 1.5 1.976562 L 1.5 22.023438 C 1.5 22.285156 1.746094 22.5 2.054688 22.5 L 21.945312 22.5 C 22.253906 22.5 22.5 22.285156 22.5 22.023438 L 22.5 1.976562 C 22.5 1.714844 22.253906 1.5 21.945312 1.5 L 2.054688 1.5 C 1.746094 1.5 1.5 1.714844 1.5 1.976562 Z M 1.5 1.976562 "/>
</g>
</defs>
<g id="surface1">
<use xlink:href="#surface5" mask="url(#mask0)"/>
<path style=" stroke:none;fill-rule:evenodd;fill:rgb(95.294118%,71.764708%,85.09804%);fill-opacity:1;" d="M 3 3.207031 L 3 20.792969 C 3 20.90625 3.113281 21 3.25 21 L 20.75 21 C 20.886719 21 21 20.90625 21 20.792969 L 21 3.207031 C 21 3.09375 20.886719 3 20.75 3 L 3.25 3 C 3.113281 3 3 3.09375 3 3.207031 Z M 3 3.207031 "/>
<path style=" stroke:none;fill-rule:evenodd;fill:rgb(95.294118%,71.764708%,85.09804%);fill-opacity:1;" d="M 21 8.039062 C 17.816406 10.917969 7.175781 15.554688 3 17.238281 L 3 9.898438 C 7 9.488281 17.808594 6.269531 21 4.5 Z M 21 8.039062 "/>
</g>
</svg>
