<?xml version="1.0" encoding="UTF-8"?>
<svg xmlns="http://www.w3.org/2000/svg" xmlns:xlink="http://www.w3.org/1999/xlink" width="24px" height="24px" viewBox="0 0 24 24" version="1.1">
<defs>
<clipPath id="clip1">
  <path d="M 2 2 L 11 2 L 11 8 L 2 8 Z M 2 2 "/>
</clipPath>
<clipPath id="clip2">
  <path d="M 1.328125 7.90625 L 21.609375 7.90625 C 21.6875 7.90625 21.75 7.839844 21.75 7.753906 L 21.75 -0.300781 C 21.75 -0.386719 21.6875 -0.453125 21.609375 -0.453125 L 1.328125 -0.453125 C 1.25 -0.453125 1.1875 -0.386719 1.1875 -0.300781 L 1.1875 7.753906 C 1.1875 7.839844 1.25 7.90625 1.328125 7.90625 Z M 1.328125 7.90625 "/>
</clipPath>
<clipPath id="clip3">
  <path d="M 1 1 L 11 1 L 11 8 L 1 8 Z M 1 1 "/>
</clipPath>
<clipPath id="clip4">
  <path d="M 1.328125 7.90625 L 21.609375 7.90625 C 21.6875 7.90625 21.75 7.839844 21.75 7.753906 L 21.75 -0.300781 C 21.75 -0.386719 21.6875 -0.453125 21.609375 -0.453125 L 1.328125 -0.453125 C 1.25 -0.453125 1.1875 -0.386719 1.1875 -0.300781 L 1.1875 7.753906 C 1.1875 7.839844 1.25 7.90625 1.328125 7.90625 Z M 1.328125 7.90625 "/>
</clipPath>
</defs>
<g id="surface1">
<path style="fill-rule:evenodd;fill:rgb(95.294118%,71.764708%,85.09804%);fill-opacity:1;stroke-width:1;stroke-linecap:round;stroke-linejoin:round;stroke:rgb(90.196079%,0.784314%,70.588237%);stroke-opacity:1;stroke-miterlimit:4;" d="M 3.502692 3.58607 L 12.596442 3.58607 C 13.664151 3.58607 14.528734 4.573049 14.528734 5.789195 L 14.528734 12.315237 C 14.528734 13.531382 13.664151 14.518362 12.596442 14.518362 L 3.502692 14.518362 C 2.434984 14.518362 1.567797 13.531382 1.567797 12.315237 L 1.567797 5.789195 C 1.567797 4.573049 2.434984 3.58607 3.502692 3.58607 Z M 3.502692 3.58607 " transform="matrix(1.5,0,0,1.5,-0.101695,-0.152542)"/>
<path style="fill-rule:nonzero;fill:rgb(95.294118%,71.764708%,85.09804%);fill-opacity:1;stroke-width:0.393976;stroke-linecap:butt;stroke-linejoin:miter;stroke:rgb(61.56863%,22.745098%,60.784316%);stroke-opacity:1;stroke-miterlimit:4;" d="M 13.900574 1.910974 L 12.698712 3.510681 L 14.296642 4.71303 L 15.498505 3.113323 L 15.000005 2.113078 Z M 13.900574 1.910974 " transform="matrix(1.144058,0,0,1.140346,4.104751,0.988797)"/>
<path style="fill-rule:nonzero;fill:rgb(95.294118%,71.764708%,85.09804%);fill-opacity:1;stroke-width:0.262651;stroke-linecap:butt;stroke-linejoin:miter;stroke:rgb(61.56863%,22.745098%,60.784316%);stroke-opacity:1;stroke-miterlimit:4;" d="M 7.792246 11.707893 L 8.195143 9.508725 L 8.895091 9.409386 L 8.785831 9.950614 L 9.301402 9.714255 L 9.185313 10.252058 L 9.704299 10.015698 L 9.793073 10.707649 L 7.792246 11.707893 " transform="matrix(1.144058,0,0,1.140346,4.104751,0.988797)"/>
<path style="fill-rule:nonzero;fill:rgb(61.56863%,22.745098%,60.784316%);fill-opacity:1;stroke-width:0.131325;stroke-linecap:butt;stroke-linejoin:miter;stroke:rgb(61.56863%,22.745098%,60.784316%);stroke-opacity:1;stroke-miterlimit:4;" d="M 8.133684 10.591182 L 8.676571 11.043347 L 7.79566 11.714744 Z M 8.133684 10.591182 " transform="matrix(1.144058,0,0,1.140346,4.104751,0.988797)"/>
<path style="fill-rule:nonzero;fill:rgb(90.196079%,0.784314%,70.588237%);fill-opacity:1;stroke-width:0.131325;stroke-linecap:butt;stroke-linejoin:miter;stroke:rgb(61.56863%,22.745098%,60.784316%);stroke-opacity:1;stroke-miterlimit:4;" d="M 12.698712 3.510681 L 14.296642 4.71303 L 9.793073 10.707649 L 9.704299 10.015698 L 9.185313 10.252058 L 9.2297 9.796467 L 8.785831 9.950614 L 8.840461 9.481321 L 8.195143 9.508725 Z M 12.698712 3.510681 " transform="matrix(1.144058,0,0,1.140346,4.104751,0.988797)"/>
<path style="fill:none;stroke-width:0.919278;stroke-linecap:butt;stroke-linejoin:round;stroke:rgb(61.56863%,22.745098%,60.784316%);stroke-opacity:1;stroke-miterlimit:4;" d="M 13.600109 2.311757 L 8.195143 9.508725 L 7.49178 12.108677 L 9.793073 10.707649 L 15.198039 3.510681 C 15.997004 2.479607 14.433218 1.236151 13.600109 2.311757 Z M 13.600109 2.311757 " transform="matrix(1.144058,0,0,1.140346,4.104751,0.988797)"/>
<g clip-path="url(#clip1)" clip-rule="nonzero">
<g clip-path="url(#clip2)" clip-rule="nonzero">
<path style=" stroke:none;fill-rule:evenodd;fill:rgb(95.294118%,71.764708%,85.09804%);fill-opacity:1;" d="M 4.453125 2.328125 L 7.851562 2.328125 C 9.066406 2.328125 10.046875 3.460938 10.046875 4.859375 L 10.046875 7.1875 C 10.046875 8.585938 9.066406 9.71875 7.851562 9.71875 L 4.453125 9.71875 C 3.238281 9.71875 2.253906 8.585938 2.253906 7.1875 L 2.253906 4.859375 C 2.253906 3.460938 3.238281 2.328125 4.453125 2.328125 Z M 4.453125 2.328125 "/>
</g>
</g>
<g clip-path="url(#clip3)" clip-rule="nonzero">
<g clip-path="url(#clip4)" clip-rule="nonzero">
<path style="fill:none;stroke-width:1.475344;stroke-linecap:round;stroke-linejoin:round;stroke:rgb(90.196079%,0.784314%,70.588237%);stroke-opacity:1;stroke-miterlimit:4;" d="M 4.316424 2.215938 L 7.805408 2.215938 C 9.05262 2.215938 10.059211 3.283375 10.059211 4.601108 L 10.059211 6.794875 C 10.059211 8.112608 9.05262 9.180045 7.805408 9.180045 L 4.316424 9.180045 C 3.069212 9.180045 2.05861 8.112608 2.05861 6.794875 L 2.05861 4.601108 C 2.05861 3.283375 3.069212 2.215938 4.316424 2.215938 Z M 4.316424 2.215938 " transform="matrix(0.974048,0,0,1.061245,0.248721,-0.0235284)"/>
</g>
</g>
<path style=" stroke:none;fill-rule:evenodd;fill:rgb(95.294118%,71.764708%,85.09804%);fill-opacity:1;" d="M 8.25 6 L 12.429688 6 L 12.429688 9.078125 L 8.25 9.078125 Z M 8.25 6 "/>
<path style="fill-rule:nonzero;fill:rgb(90.196079%,0.784314%,70.588237%);fill-opacity:1;stroke-width:0.5;stroke-linecap:butt;stroke-linejoin:miter;stroke:rgb(61.56863%,22.745098%,60.784316%);stroke-opacity:1;stroke-miterlimit:4;" d="M 3.049567 2.299612 C 2.872484 2.299612 2.586026 2.455862 2.586026 2.645966 L 2.586026 13.552216 C 2.586026 13.74232 2.872484 14.052216 3.049567 14.052216 L 12.914151 14.052216 C 13.198005 14.052216 13.343838 13.528778 13.143317 13.310028 L 3.281338 2.403778 C 3.218838 2.33607 3.135505 2.299612 3.049567 2.299612 Z M 3.729255 5.033987 L 9.90113 12.440237 L 3.729255 12.440237 Z M 3.729255 5.033987 " transform="matrix(1.5,0,0,1.5,-0.101695,-0.152542)"/>
<path style="fill-rule:evenodd;fill:rgb(95.294118%,71.764708%,85.09804%);fill-opacity:1;stroke-width:1;stroke-linecap:round;stroke-linejoin:round;stroke:rgb(90.196079%,0.784314%,70.588237%);stroke-opacity:1;stroke-miterlimit:4;" d="M 3.531338 6.885549 L 12.554776 6.885549 C 13.625088 6.885549 14.489672 7.872528 14.489672 9.088674 L 14.489672 12.401174 C 14.489672 13.61732 13.625088 14.601695 12.554776 14.601695 L 3.531338 14.601695 C 2.461026 14.601695 1.596442 13.61732 1.596442 12.401174 L 1.596442 9.088674 C 1.596442 7.872528 2.461026 6.885549 3.531338 6.885549 Z M 3.531338 6.885549 " transform="matrix(1.5,0,0,1.5,-0.101695,-0.152542)"/>
<path style="fill:none;stroke-width:1;stroke-linecap:butt;stroke-linejoin:miter;stroke:rgb(61.56863%,22.745098%,60.784316%);stroke-opacity:1;stroke-miterlimit:4;" d="M 1.893317 11.547007 L 14.221442 11.547007 " transform="matrix(1.5,0,0,1.5,-0.101695,-0.152542)"/>
<path style="fill:none;stroke-width:1;stroke-linecap:butt;stroke-linejoin:miter;stroke:rgb(61.56863%,22.745098%,60.784316%);stroke-opacity:1;stroke-miterlimit:4;" d="M 1.877692 12.750132 L 14.221442 12.750132 " transform="matrix(1.5,0,0,1.5,-0.101695,-0.152542)"/>
</g>
</svg>
