<?xml version="1.0" encoding="UTF-8"?>
<svg xmlns="http://www.w3.org/2000/svg" xmlns:xlink="http://www.w3.org/1999/xlink" width="24px" height="24px" viewBox="0 0 24 24" version="1.1">
<g id="surface1">
<path style=" stroke:none;fill-rule:nonzero;fill:rgb(61.56863%,22.745098%,60.784316%);fill-opacity:1;" d="M 21.898438 22.5 C 21.40625 22.5 21.007812 21.929688 21.007812 21.230469 L 21.007812 2.769531 C 21.007812 2.070312 21.40625 1.5 21.898438 1.5 C 22.390625 1.5 22.789062 2.070312 22.789062 2.769531 L 22.789062 21.230469 C 22.789062 21.929688 22.390625 22.5 21.898438 22.5 Z M 21.898438 22.5 "/>
<path style="fill-rule:evenodd;fill:rgb(95.294118%,71.764708%,85.09804%);fill-opacity:1;stroke-width:1;stroke-linecap:round;stroke-linejoin:round;stroke:rgb(90.196079%,0.784314%,70.588237%);stroke-opacity:1;stroke-miterlimit:4;" d="M -12 -13.5 L -4 -13.5 C -3.723958 -13.5 -3.5 -13.276042 -3.5 -13 L -3.5 -10 C -3.5 -9.723958 -3.723958 -9.5 -4 -9.5 L -12 -9.5 C -12.276042 -9.5 -12.5 -9.723958 -12.5 -10 L -12.5 -13 C -12.5 -13.276042 -12.276042 -13.5 -12 -13.5 Z M -12 -13.5 " transform="matrix(-1.5,0,0,-1.5,0,0)"/>
<path style="fill-rule:evenodd;fill:rgb(95.294118%,71.764708%,85.09804%);fill-opacity:1;stroke-width:1;stroke-linecap:round;stroke-linejoin:round;stroke:rgb(90.196079%,0.784314%,70.588237%);stroke-opacity:1;stroke-miterlimit:4;" d="M -12 -6.5 L -2 -6.5 C -1.723958 -6.5 -1.5 -6.276042 -1.5 -6 L -1.5 -3 C -1.5 -2.723958 -1.723958 -2.5 -2 -2.5 L -12 -2.5 C -12.276042 -2.5 -12.5 -2.723958 -12.5 -3 L -12.5 -6 C -12.5 -6.276042 -12.276042 -6.5 -12 -6.5 Z M -12 -6.5 " transform="matrix(-1.5,0,0,-1.5,0,0)"/>
</g>
</svg>
