<?xml version="1.0" encoding="UTF-8"?>
<svg xmlns="http://www.w3.org/2000/svg" xmlns:xlink="http://www.w3.org/1999/xlink" width="24px" height="24px" viewBox="0 0 24 24" version="1.1">
<g id="surface1">
<path style=" stroke:none;fill-rule:nonzero;fill:rgb(94.117647%,89.019608%,92.54902%);fill-opacity:1;" d="M 1.5 2.203125 L 22.5 2.203125 L 22.5 21.796875 L 1.5 21.796875 Z M 1.5 2.203125 "/>
<path style="fill-rule:evenodd;fill:rgb(94.117647%,89.019608%,92.54902%);fill-opacity:1;stroke-width:0.264583;stroke-linecap:round;stroke-linejoin:round;stroke:rgb(90.196079%,0.784314%,70.588237%);stroke-opacity:1;stroke-miterlimit:4;" d="M 0.560861 0.396875 L 3.407889 0.396875 C 3.56154 0.396875 3.686252 0.536746 3.686252 0.709001 L 3.686252 3.524333 C 3.686252 3.696588 3.56154 3.836459 3.407889 3.836459 L 0.560861 3.836459 C 0.40721 3.836459 0.282498 3.696588 0.282498 3.524333 L 0.282498 0.709001 C 0.282498 0.536746 0.40721 0.396875 0.560861 0.396875 Z M 0.560861 0.396875 " transform="matrix(5.669291,0,0,5.669291,0.750001,0)"/>
<path style="fill-rule:evenodd;fill:rgb(94.117647%,89.019608%,92.54902%);fill-opacity:1;stroke-width:0.264583;stroke-linecap:round;stroke-linejoin:round;stroke:rgb(90.196079%,0.784314%,70.588237%);stroke-opacity:1;stroke-miterlimit:4;" d="M 0.264583 1.5875 L 3.704167 1.5875 L 3.704167 2.645833 L 0.264583 2.645833 Z M 0.264583 1.5875 " transform="matrix(5.669291,0,0,5.669291,0.750001,0)"/>
<path style="fill:none;stroke-width:0.264583;stroke-linecap:butt;stroke-linejoin:miter;stroke:rgb(90.196079%,0.784314%,70.588237%);stroke-opacity:1;stroke-miterlimit:4;" d="M 1.322917 0.529167 L 1.322917 3.704167 " transform="matrix(5.669291,0,0,5.669291,0.750001,0)"/>
<path style="fill:none;stroke-width:0.264583;stroke-linecap:butt;stroke-linejoin:miter;stroke:rgb(90.196079%,0.784314%,70.588237%);stroke-opacity:1;stroke-miterlimit:4;" d="M 2.645833 0.529167 L 2.645833 3.704167 " transform="matrix(5.669291,0,0,5.669291,0.750001,0)"/>
<path style="fill:none;stroke-width:0.264583;stroke-linecap:round;stroke-linejoin:round;stroke:rgb(61.56863%,22.745098%,60.784316%);stroke-opacity:1;stroke-miterlimit:4;" d="M 0.529166 2.645833 L 1.322917 3.439584 L 3.704167 1.322917 " transform="matrix(5.669291,0,0,5.669291,0.00000135166,0)"/>
</g>
</svg>
