<?xml version="1.0" encoding="UTF-8"?>
<svg xmlns="http://www.w3.org/2000/svg" xmlns:xlink="http://www.w3.org/1999/xlink" width="24px" height="24px" viewBox="0 0 24 24" version="1.1">
<g id="surface1">
<path style="fill-rule:nonzero;fill:rgb(94.117647%,89.019608%,92.54902%);fill-opacity:1;stroke-width:1;stroke-linecap:butt;stroke-linejoin:miter;stroke:rgb(90.196079%,0.784314%,70.588237%);stroke-opacity:1;stroke-miterlimit:4;" d="M 8 10.5 L 6.984375 10.807292 C 7.072917 10.992188 7.106771 12.375 6.908854 12.5625 C 6.770833 12.692708 6.421875 12.75 6.143229 12.770833 C 5.309896 12.841146 4.5 13.200521 4.5 13.544271 C 4.5 14.158854 6.46875 14.479167 8 14.479167 C 9.520833 14.479167 11.5 14.158854 11.5 13.544271 C 11.5 13.184896 10.6875 12.841146 9.854167 12.770833 C 9.575521 12.75 9.216146 12.697917 9.088542 12.5625 C 8.888021 12.346354 8.929688 10.96875 9.015625 10.807292 Z M 8 10.5 " transform="matrix(1.5,0,0,1.5,0,0)"/>
<path style="fill-rule:nonzero;fill:rgb(95.294118%,71.764708%,85.09804%);fill-opacity:1;stroke-width:0.962591;stroke-linecap:butt;stroke-linejoin:miter;stroke:rgb(90.196079%,0.784314%,70.588237%);stroke-opacity:1;stroke-miterlimit:4;" d="M 3.740902 2.500419 L 12.304947 2.500419 C 13.25329 2.500419 14.023064 3.33111 14.023064 4.3545 L 14.023064 9.68498 C 14.023064 10.708369 13.25329 11.536456 12.304947 11.536456 L 3.740902 11.536456 C 2.792559 11.536456 2.022784 10.708369 2.022784 9.68498 L 2.022784 4.3545 C 2.022784 3.33111 2.792559 2.500419 3.740902 2.500419 Z M 3.740902 2.500419 " transform="matrix(1.618777,0,0,1.50007,-0.950219,-1.500804)"/>
<path style=" stroke:none;fill-rule:nonzero;fill:rgb(0%,0%,0%);fill-opacity:1;" d="M 4.914062 8.960938 L 11.585938 8.960938 C 11.8125 8.960938 12 9.144531 12 9.375 L 12 13.046875 C 12 13.273438 11.8125 13.460938 11.585938 13.460938 L 4.914062 13.460938 C 4.6875 13.460938 4.5 13.273438 4.5 13.046875 L 4.5 9.375 C 4.5 9.144531 4.6875 8.960938 4.914062 8.960938 Z M 4.914062 8.960938 "/>
<path style=" stroke:none;fill-rule:nonzero;fill:rgb(0%,0%,0%);fill-opacity:1;" d="M 12.414062 4.5 L 19.085938 4.5 C 19.3125 4.5 19.5 4.6875 19.5 4.914062 L 19.5 8.585938 C 19.5 8.816406 19.3125 9 19.085938 9 L 12.414062 9 C 12.1875 9 12 8.816406 12 8.585938 L 12 4.914062 C 12 4.6875 12.1875 4.5 12.414062 4.5 Z M 12.414062 4.5 "/>
<path style=" stroke:none;fill-rule:nonzero;fill:rgb(100%,100%,100%);fill-opacity:1;" d="M 12.414062 8.960938 L 19.085938 8.960938 C 19.3125 8.960938 19.5 9.144531 19.5 9.375 L 19.5 13.046875 C 19.5 13.273438 19.3125 13.460938 19.085938 13.460938 L 12.414062 13.460938 C 12.1875 13.460938 12 13.273438 12 13.046875 L 12 9.375 C 12 9.144531 12.1875 8.960938 12.414062 8.960938 Z M 12.414062 8.960938 "/>
<path style=" stroke:none;fill-rule:nonzero;fill:rgb(100%,100%,100%);fill-opacity:1;" d="M 4.914062 4.5 L 11.585938 4.5 C 11.8125 4.5 12 4.6875 12 4.914062 L 12 8.585938 C 12 8.816406 11.8125 9 11.585938 9 L 4.914062 9 C 4.6875 9 4.5 8.816406 4.5 8.585938 L 4.5 4.914062 C 4.5 4.6875 4.6875 4.5 4.914062 4.5 Z M 4.914062 4.5 "/>
</g>
</svg>
