<?xml version="1.0" encoding="UTF-8"?>
<svg xmlns="http://www.w3.org/2000/svg" xmlns:xlink="http://www.w3.org/1999/xlink" width="24px" height="24px" viewBox="0 0 24 24" version="1.1">
<defs>
<clipPath id="clip1">
  <path d="M 6 6 L 13 6 L 13 11 L 6 11 Z M 6 6 "/>
</clipPath>
<clipPath id="clip2">
  <path d="M 5.796875 10.65625 L 21.699219 10.65625 C 21.761719 10.65625 21.808594 10.601562 21.808594 10.53125 L 21.808594 4.019531 C 21.808594 3.949219 21.761719 3.894531 21.699219 3.894531 L 5.796875 3.894531 C 5.738281 3.894531 5.6875 3.949219 5.6875 4.019531 L 5.6875 10.53125 C 5.6875 10.601562 5.738281 10.65625 5.796875 10.65625 Z M 5.796875 10.65625 "/>
</clipPath>
<clipPath id="clip3">
  <path d="M 5 5 L 14 5 L 14 11 L 5 11 Z M 5 5 "/>
</clipPath>
<clipPath id="clip4">
  <path d="M 5.796875 10.65625 L 21.699219 10.65625 C 21.761719 10.65625 21.808594 10.601562 21.808594 10.53125 L 21.808594 4.019531 C 21.808594 3.949219 21.761719 3.894531 21.699219 3.894531 L 5.796875 3.894531 C 5.738281 3.894531 5.6875 3.949219 5.6875 4.019531 L 5.6875 10.53125 C 5.6875 10.601562 5.738281 10.65625 5.796875 10.65625 Z M 5.796875 10.65625 "/>
</clipPath>
</defs>
<g id="surface1">
<path style="fill-rule:evenodd;fill:rgb(94.117647%,89.019608%,92.54902%);fill-opacity:1;stroke-width:1.602536;stroke-linecap:round;stroke-linejoin:round;stroke:rgb(90.196079%,0.784314%,70.588237%);stroke-opacity:1;stroke-miterlimit:4;" d="M 3.127481 1.901667 L 18.847557 1.901667 C 19.74609 1.901667 20.475088 2.604337 20.475088 3.479592 L 20.475088 20.923066 C 20.475088 21.794212 19.74609 22.500992 18.847557 22.500992 L 3.127481 22.500992 C 2.228948 22.500992 1.49995 21.794212 1.49995 20.923066 L 1.49995 3.479592 C 1.49995 2.604337 2.228948 1.901667 3.127481 1.901667 Z M 3.127481 1.901667 " transform="matrix(0.921642,0,0,0.950615,0.980864,0.461778)"/>
<path style="fill:none;stroke-width:1.602536;stroke-linecap:round;stroke-linejoin:miter;stroke:rgb(90.196079%,0.784314%,70.588237%);stroke-opacity:1;stroke-miterlimit:4;" d="M 3.402974 10.863791 L 14.702442 10.863791 " transform="matrix(0.921642,0,0,0.950615,0.980864,0.461778)"/>
<path style="fill:none;stroke-width:1.602536;stroke-linecap:round;stroke-linejoin:miter;stroke:rgb(90.196079%,0.784314%,70.588237%);stroke-opacity:1;stroke-miterlimit:4;" d="M 3.394497 13.814183 L 14.689726 13.814183 " transform="matrix(0.921642,0,0,0.950615,0.980864,0.461778)"/>
<path style="fill:none;stroke-width:1.602536;stroke-linecap:round;stroke-linejoin:miter;stroke:rgb(90.196079%,0.784314%,70.588237%);stroke-opacity:1;stroke-miterlimit:4;" d="M 3.352114 16.867304 L 14.651581 16.867304 " transform="matrix(0.921642,0,0,0.950615,0.980864,0.461778)"/>
<path style="fill-rule:evenodd;fill:rgb(61.56863%,22.745098%,60.784316%);fill-opacity:1;stroke-width:0.801268;stroke-linecap:round;stroke-linejoin:round;stroke:rgb(61.56863%,22.745098%,60.784316%);stroke-opacity:1;stroke-miterlimit:4;" d="M 1.49995 2.000287 C 1.775444 2.000287 2.000077 3.060456 2.000077 4.367175 L 2.000077 19.632783 C 2.000077 20.939503 1.775444 21.999671 1.49995 21.999671 C 1.224457 21.999671 0.999824 20.939503 0.999824 19.632783 L 0.999824 4.367175 C 0.999824 3.060456 1.224457 2.000287 1.49995 2.000287 Z M 1.49995 2.000287 " transform="matrix(0.921642,0,0,0.950615,0.980864,0.461778)"/>
<path style="fill-rule:evenodd;fill:rgb(95.294118%,71.764708%,85.09804%);fill-opacity:1;stroke-width:1.602536;stroke-linecap:round;stroke-linejoin:round;stroke:rgb(90.196079%,0.784314%,70.588237%);stroke-opacity:1;stroke-miterlimit:4;" d="M 8.603442 8.501012 L 19.953769 8.501012 C 21.390573 8.501012 22.551884 9.766639 22.551884 11.332237 L 22.551884 19.562927 C 22.551884 21.124416 21.390573 22.394153 19.953769 22.394153 L 8.603442 22.394153 C 7.170876 22.394153 6.009565 21.124416 6.009565 19.562927 L 6.009565 11.332237 C 6.009565 9.766639 7.170876 8.501012 8.603442 8.501012 Z M 8.603442 8.501012 " transform="matrix(0.921642,0,0,0.950615,0.980864,0.461778)"/>
<g clip-path="url(#clip1)" clip-rule="nonzero">
<g clip-path="url(#clip2)" clip-rule="nonzero">
<path style=" stroke:none;fill-rule:evenodd;fill:rgb(95.294118%,71.764708%,85.09804%);fill-opacity:1;" d="M 8.378906 6.144531 L 10.777344 6.144531 C 11.804688 6.144531 12.632812 6.972656 12.632812 7.996094 L 12.632812 10.269531 C 12.632812 11.292969 11.804688 12.121094 10.777344 12.121094 L 8.378906 12.121094 C 7.355469 12.121094 6.523438 11.292969 6.523438 10.269531 L 6.523438 7.996094 C 6.523438 6.972656 7.355469 6.144531 8.378906 6.144531 Z M 8.378906 6.144531 "/>
</g>
</g>
<g clip-path="url(#clip3)" clip-rule="nonzero">
<g clip-path="url(#clip4)" clip-rule="nonzero">
<path style="fill:none;stroke-width:1.852743;stroke-linecap:round;stroke-linejoin:round;stroke:rgb(90.196079%,0.784314%,70.588237%);stroke-opacity:1;stroke-miterlimit:4;" d="M 4.488811 2.216739 L 7.629256 2.216739 C 8.974431 2.216739 10.058754 3.181636 10.058754 4.374102 L 10.058754 7.023017 C 10.058754 8.215483 8.974431 9.18038 7.629256 9.18038 L 4.488811 9.18038 C 3.148751 9.18038 2.059313 8.215483 2.059313 7.023017 L 2.059313 4.374102 C 2.059313 3.181636 3.148751 2.216739 4.488811 2.216739 Z M 4.488811 2.216739 " transform="matrix(0.763725,0,0,0.858253,4.950688,4.242009)"/>
</g>
</g>
<path style=" stroke:none;fill-rule:evenodd;fill:rgb(95.294118%,71.764708%,85.09804%);fill-opacity:1;" d="M 12.011719 9.253906 L 14.320312 9.253906 C 14.585938 9.253906 14.804688 9.476562 14.804688 9.753906 L 14.804688 11.246094 C 14.804688 11.519531 14.585938 11.742188 14.320312 11.742188 L 12.011719 11.742188 C 11.742188 11.742188 11.527344 11.519531 11.527344 11.246094 L 11.527344 9.753906 C 11.527344 9.476562 11.742188 9.253906 12.011719 9.253906 Z M 12.011719 9.253906 "/>
<path style="fill-rule:evenodd;fill:rgb(95.294118%,71.764708%,85.09804%);fill-opacity:1;stroke-width:1.602536;stroke-linecap:round;stroke-linejoin:round;stroke:rgb(90.196079%,0.784314%,70.588237%);stroke-opacity:1;stroke-miterlimit:4;" d="M 9.192574 12.655394 L 19.351922 12.655394 C 21.08965 12.655394 22.501024 14.208664 22.501024 16.127652 L 22.501024 19.024624 C 22.501024 20.943612 21.08965 22.500992 19.351922 22.500992 L 9.192574 22.500992 C 7.454846 22.500992 6.047711 20.943612 6.047711 19.024624 L 6.047711 16.127652 C 6.047711 14.208664 7.454846 12.655394 9.192574 12.655394 Z M 9.192574 12.655394 " transform="matrix(0.921642,0,0,0.950615,0.980864,0.461778)"/>
<path style="fill:none;stroke-width:1.602536;stroke-linecap:butt;stroke-linejoin:miter;stroke:rgb(61.56863%,22.745098%,60.784316%);stroke-opacity:1;stroke-miterlimit:4;" d="M 6.869952 18.601379 L 21.712689 18.601379 " transform="matrix(0.921642,0,0,0.950615,0.980864,0.461778)"/>
</g>
</svg>
