<?xml version="1.0" encoding="UTF-8"?>
<svg xmlns="http://www.w3.org/2000/svg" xmlns:xlink="http://www.w3.org/1999/xlink" width="24px" height="24px" viewBox="0 0 24 24" version="1.1">
<g id="surface1">
<path style="fill-rule:nonzero;fill:rgb(94.117647%,89.019608%,92.54902%);fill-opacity:1;stroke-width:1;stroke-linecap:round;stroke-linejoin:miter;stroke:rgb(90.196079%,0.784314%,70.588237%);stroke-opacity:1;stroke-miterlimit:4;" d="M 13.239642 10.835618 C 12.335996 12.468431 10.692767 13.666347 8.697975 13.926764 C 5.359434 14.364264 2.299538 12.012701 1.862038 8.67416 C 1.424538 5.335618 3.7761 2.275722 7.114642 1.838222 C 10.453184 1.400722 13.513079 3.752285 13.950579 7.090826 C 14.007871 7.515306 14.000059 9.999681 13.239642 10.835618 " transform="matrix(1.5,0,0,1.5,0.160068,0.17626)"/>
<path style="fill:none;stroke-width:1;stroke-linecap:butt;stroke-linejoin:miter;stroke:rgb(90.196079%,0.784314%,70.588237%);stroke-opacity:1;stroke-miterlimit:4;" d="M 3.882871 3.473639 C 6.411517 6.20541 9.013079 9.077806 11.882871 12.473639 " transform="matrix(1.5,0,0,1.5,0.160068,0.17626)"/>
<path style="fill:none;stroke-width:1;stroke-linecap:butt;stroke-linejoin:miter;stroke:rgb(90.196079%,0.784314%,70.588237%);stroke-opacity:1;stroke-miterlimit:4;" d="M 3.940163 3.42416 C 6.882871 0.473639 15.882871 8.973639 11.882871 12.473639 C 7.882871 15.973639 1.000059 6.372076 3.940163 3.42416 Z M 3.940163 3.42416 " transform="matrix(1.5,0,0,1.5,0.160068,0.17626)"/>
<path style="fill:none;stroke-width:1;stroke-linecap:round;stroke-linejoin:miter;stroke:rgb(90.196079%,0.784314%,70.588237%);stroke-opacity:1;stroke-miterlimit:4;" d="M 2.893288 10.882493 C 3.393288 7.382493 6.893288 3.382493 11.893288 3.382493 " transform="matrix(1.5,0,0,1.5,0.160068,0.17626)"/>
<path style="fill:none;stroke-width:1;stroke-linecap:round;stroke-linejoin:miter;stroke:rgb(90.196079%,0.784314%,70.588237%);stroke-opacity:1;stroke-miterlimit:4;" d="M 12.893288 4.882493 C 12.830788 8.762701 6.7761 12.856451 3.893288 12.382493 " transform="matrix(1.5,0,0,1.5,0.160068,0.17626)"/>
</g>
</svg>
