<?xml version="1.0" encoding="UTF-8"?>
<svg xmlns="http://www.w3.org/2000/svg" xmlns:xlink="http://www.w3.org/1999/xlink" width="24px" height="24px" viewBox="0 0 24 24" version="1.1">
<g id="surface1">
<path style="fill-rule:nonzero;fill:rgb(95.294118%,71.764708%,85.09804%);fill-opacity:1;stroke-width:0.951044;stroke-linecap:butt;stroke-linejoin:round;stroke:rgb(90.196079%,0.784314%,70.588237%);stroke-opacity:1;stroke-miterlimit:4;" d="M 14.178033 5.431286 C 14.178033 7.390337 12.590483 8.977887 10.631432 8.977887 C 8.672381 8.977887 7.084831 7.390337 7.084831 5.431286 C 7.084831 3.469758 8.672381 1.882208 10.631432 1.882208 C 12.590483 1.882208 14.178033 3.469758 14.178033 5.431286 Z M 14.178033 5.431286 " transform="matrix(1.577214,0,0,1.577214,-0.713359,-0.710834)"/>
<path style="fill-rule:evenodd;fill:rgb(95.294118%,71.764708%,85.09804%);fill-opacity:1;stroke-width:5.845817;stroke-linecap:butt;stroke-linejoin:round;stroke:rgb(90.196079%,0.784314%,70.588237%);stroke-opacity:1;stroke-miterlimit:4;" d="M 27.129166 34.39093 L 68.445687 34.39093 C 68.978509 34.39093 69.404766 34.817188 69.404766 35.334786 L 69.404766 76.651307 C 69.404766 77.184129 68.978509 77.610386 68.445687 77.610386 L 27.129166 77.610386 C 26.611567 77.610386 26.18531 77.184129 26.18531 76.651307 L 26.18531 35.334786 C 26.18531 34.817188 26.611567 34.39093 27.129166 34.39093 Z M 27.129166 34.39093 " transform="matrix(0.256594,0,0,0.256594,-4.468988,-2.410436)"/>
<path style="fill-rule:nonzero;fill:rgb(95.294118%,71.764708%,85.09804%);fill-opacity:1;stroke-width:0.951044;stroke-linecap:butt;stroke-linejoin:round;stroke:rgb(90.196079%,0.784314%,70.588237%);stroke-opacity:1;stroke-miterlimit:4;" d="M 6.331921 14.183861 L 10.287174 6.714205 L 14.242426 14.183861 Z M 6.331921 14.183861 " transform="matrix(1.577214,0,0,1.577214,-0.713359,-0.710834)"/>
</g>
</svg>
