<?xml version="1.0" encoding="UTF-8"?>
<svg xmlns="http://www.w3.org/2000/svg" xmlns:xlink="http://www.w3.org/1999/xlink" width="24px" height="24px" viewBox="0 0 24 24" version="1.1">
<defs>
<clipPath id="clip1">
  <path d="M 2 2 L 11 2 L 11 8 L 2 8 Z M 2 2 "/>
</clipPath>
<clipPath id="clip2">
  <path d="M 1.328125 7.90625 L 21.609375 7.90625 C 21.6875 7.90625 21.75 7.839844 21.75 7.753906 L 21.75 -0.300781 C 21.75 -0.386719 21.6875 -0.453125 21.609375 -0.453125 L 1.328125 -0.453125 C 1.25 -0.453125 1.1875 -0.386719 1.1875 -0.300781 L 1.1875 7.753906 C 1.1875 7.839844 1.25 7.90625 1.328125 7.90625 Z M 1.328125 7.90625 "/>
</clipPath>
<clipPath id="clip3">
  <path d="M 1 1 L 11 1 L 11 8 L 1 8 Z M 1 1 "/>
</clipPath>
<clipPath id="clip4">
  <path d="M 1.328125 7.90625 L 21.609375 7.90625 C 21.6875 7.90625 21.75 7.839844 21.75 7.753906 L 21.75 -0.300781 C 21.75 -0.386719 21.6875 -0.453125 21.609375 -0.453125 L 1.328125 -0.453125 C 1.25 -0.453125 1.1875 -0.386719 1.1875 -0.300781 L 1.1875 7.753906 C 1.1875 7.839844 1.25 7.90625 1.328125 7.90625 Z M 1.328125 7.90625 "/>
</clipPath>
</defs>
<g id="surface1">
<path style=" stroke:none;fill-rule:evenodd;fill:rgb(95.294118%,71.764708%,85.09804%);fill-opacity:1;" d="M 8.238281 5.355469 L 11.734375 5.355469 C 11.855469 5.355469 11.953125 5.453125 11.953125 5.574219 L 11.953125 8.722656 C 11.953125 8.84375 11.855469 8.941406 11.734375 8.941406 L 8.238281 8.941406 C 8.121094 8.941406 8.023438 8.84375 8.023438 8.722656 L 8.023438 5.574219 C 8.023438 5.453125 8.121094 5.355469 8.238281 5.355469 Z M 8.238281 5.355469 "/>
<path style="fill-rule:evenodd;fill:rgb(95.294118%,71.764708%,85.09804%);fill-opacity:1;stroke-width:1.010804;stroke-linecap:round;stroke-linejoin:round;stroke:rgb(90.196079%,0.784314%,70.588237%);stroke-opacity:1;stroke-miterlimit:4;" d="M 3.4558 3.365367 L 12.647796 3.365367 C 13.727039 3.365367 14.600963 4.363009 14.600963 5.592294 L 14.600963 12.188841 C 14.600963 13.418125 13.727039 14.415767 12.647796 14.415767 L 3.4558 14.415767 C 2.376556 14.415767 1.5 13.418125 1.5 12.188841 L 1.5 5.592294 C 1.5 4.363009 2.376556 3.365367 3.4558 3.365367 Z M 3.4558 3.365367 " transform="matrix(1.483968,0,0,1.483968,0.0240484,0.232467)"/>
<g clip-path="url(#clip1)" clip-rule="nonzero">
<g clip-path="url(#clip2)" clip-rule="nonzero">
<path style=" stroke:none;fill-rule:evenodd;fill:rgb(95.294118%,71.764708%,85.09804%);fill-opacity:1;" d="M 4.453125 2.328125 L 7.851562 2.328125 C 9.066406 2.328125 10.046875 3.460938 10.046875 4.859375 L 10.046875 7.1875 C 10.046875 8.585938 9.066406 9.71875 7.851562 9.71875 L 4.453125 9.71875 C 3.238281 9.71875 2.253906 8.585938 2.253906 7.1875 L 2.253906 4.859375 C 2.253906 3.460938 3.238281 2.328125 4.453125 2.328125 Z M 4.453125 2.328125 "/>
</g>
</g>
<g clip-path="url(#clip3)" clip-rule="nonzero">
<g clip-path="url(#clip4)" clip-rule="nonzero">
<path style="fill:none;stroke-width:1.475344;stroke-linecap:round;stroke-linejoin:round;stroke:rgb(90.196079%,0.784314%,70.588237%);stroke-opacity:1;stroke-miterlimit:4;" d="M 4.316424 2.215938 L 7.805408 2.215938 C 9.052619 2.215938 10.059211 3.283375 10.059211 4.601107 L 10.059211 6.794875 C 10.059211 8.112607 9.052619 9.180045 7.805408 9.180045 L 4.316424 9.180045 C 3.069212 9.180045 2.05861 8.112607 2.05861 6.794875 L 2.05861 4.601107 C 2.05861 3.283375 3.069212 2.215938 4.316424 2.215938 Z M 4.316424 2.215938 " transform="matrix(0.974048,0,0,1.061245,0.248721,-0.0235281)"/>
</g>
</g>
<path style="fill-rule:evenodd;fill:rgb(94.117647%,89.019608%,92.54902%);fill-opacity:1;stroke-width:1.010804;stroke-linecap:round;stroke-linejoin:round;stroke:rgb(90.196079%,0.784314%,70.588237%);stroke-opacity:1;stroke-miterlimit:4;" d="M 4.290239 1.999203 L 11.923913 1.999203 C 12.739926 1.999203 13.403266 2.76257 13.403266 3.704934 L 13.403266 7.376994 C 13.403266 8.319358 12.739926 9.082725 11.923913 9.082725 L 4.290239 9.082725 C 3.471594 9.082725 2.810886 8.319358 2.810886 7.376994 L 2.810886 3.704934 C 2.810886 2.76257 3.471594 1.999203 4.290239 1.999203 Z M 4.290239 1.999203 " transform="matrix(1.483968,0,0,1.483968,0.0240484,0.232467)"/>
<path style="fill-rule:evenodd;fill:rgb(95.294118%,71.764708%,85.09804%);fill-opacity:1;stroke-width:1.010804;stroke-linecap:round;stroke-linejoin:round;stroke:rgb(90.196079%,0.784314%,70.588237%);stroke-opacity:1;stroke-miterlimit:4;" d="M 3.108336 6.700493 L 12.982098 6.700493 C 13.856022 6.700493 14.561478 7.516506 14.561478 8.519413 L 14.561478 12.681081 C 14.561478 13.68662 13.856022 14.500001 12.982098 14.500001 L 3.108336 14.500001 C 2.234412 14.500001 1.528955 13.68662 1.528955 12.681081 L 1.528955 8.519413 C 1.528955 7.516506 2.234412 6.700493 3.108336 6.700493 Z M 3.108336 6.700493 " transform="matrix(1.483968,0,0,1.483968,0.0240484,0.232467)"/>
<path style="fill:none;stroke-width:1.010804;stroke-linecap:butt;stroke-linejoin:miter;stroke:rgb(61.56863%,22.745098%,60.784316%);stroke-opacity:1;stroke-miterlimit:4;" d="M 2.000137 10.99904 L 14.000798 10.99904 " transform="matrix(1.483968,0,0,1.483968,0.0240484,0.232467)"/>
<path style="fill:none;stroke-width:1.010804;stroke-linecap:butt;stroke-linejoin:miter;stroke:rgb(61.56863%,22.745098%,60.784316%);stroke-opacity:1;stroke-miterlimit:4;" d="M 2.000137 12.628435 L 14.000798 12.628435 " transform="matrix(1.483968,0,0,1.483968,0.0240484,0.232467)"/>
<path style="fill-rule:nonzero;fill:rgb(61.56863%,22.745098%,60.784316%);fill-opacity:1;stroke-width:0.252701;stroke-linecap:butt;stroke-linejoin:miter;stroke:rgb(61.56863%,22.745098%,60.784316%);stroke-opacity:1;stroke-miterlimit:4;" d="M 11.084209 3.078446 C 11.100002 2.909979 11.226353 2.786261 11.384291 2.786261 C 11.489583 2.786261 11.586978 2.838907 11.642256 2.925773 C 11.694902 2.838907 11.787033 2.786261 11.892325 2.786261 C 12.050263 2.786261 12.176614 2.909979 12.192407 3.078446 C 12.192407 3.086343 12.197672 3.125828 12.181878 3.191635 C 12.16082 3.283766 12.105541 3.370632 12.029205 3.436439 L 11.642256 3.770741 L 11.247411 3.436439 C 11.168442 3.370632 11.115796 3.283766 11.092106 3.191635 C 11.076312 3.125828 11.081576 3.086343 11.084209 3.078446 Z M 11.134222 3.181106 C 11.155281 3.267972 11.205294 3.344309 11.276367 3.404851 L 11.642256 3.718095 L 12.000249 3.407484 C 12.071322 3.344309 12.121335 3.267972 12.142394 3.181106 C 12.155555 3.120563 12.150291 3.086343 12.150291 3.086343 L 12.150291 3.083711 C 12.134497 2.93367 12.026572 2.825745 11.892325 2.825745 C 11.789665 2.825745 11.702799 2.886288 11.660683 2.981051 L 11.642256 3.023168 L 11.621198 2.981051 C 11.579081 2.886288 11.486951 2.825745 11.384291 2.825745 C 11.247411 2.825745 11.139487 2.93367 11.126325 3.086343 C 11.126325 3.086343 11.118429 3.120563 11.134222 3.181106 Z M 11.134222 3.181106 " transform="matrix(1.483968,0,0,1.483968,0.0240484,0.232467)"/>
<path style="fill:none;stroke-width:1.010804;stroke-linecap:round;stroke-linejoin:miter;stroke:rgb(90.196079%,0.784314%,70.588237%);stroke-opacity:1;stroke-miterlimit:4;" d="M 4.500823 5.000026 L 11.500112 5.000026 " transform="matrix(1.483968,0,0,1.483968,0.0240484,0.232467)"/>
</g>
</svg>
