<?xml version="1.0" encoding="UTF-8"?>
<svg xmlns="http://www.w3.org/2000/svg" xmlns:xlink="http://www.w3.org/1999/xlink" width="24px" height="24px" viewBox="0 0 24 24" version="1.1">
<g id="surface1">
<path style=" stroke:none;fill-rule:nonzero;fill:rgb(33.333334%,34.117648%,32.549021%);fill-opacity:1;" d="M 1.5 1.5 L 1.5 4.5 L 22.5 4.5 L 22.5 1.5 Z M 1.5 7.5 L 1.5 9 C 1.5 9.335938 1.695312 9.792969 1.96875 10.078125 L 2.527344 10.5 L 4.5 12 L 2.527344 13.5 L 1.96875 13.921875 C 1.695312 14.207031 1.5 14.613281 1.5 15 L 1.5 16.5 L 3 16.5 C 3.464844 16.5 3.828125 16.363281 4.125 16.078125 L 7.5 13.253906 L 7.5 10.832031 C 6.414062 9.902344 5.648438 9.078125 4.125 7.921875 C 3.828125 7.636719 3.464844 7.5 3 7.5 Z M 12 7.5 L 12 10.5 L 22.5 10.5 L 22.5 7.5 Z M 12 13.5 L 12 16.5 L 22.5 16.5 L 22.5 13.5 Z M 1.5 19.5 L 1.5 22.5 L 22.5 22.5 L 22.5 19.5 Z M 1.5 19.5 "/>
</g>
</svg>
