<?xml version="1.0" encoding="UTF-8"?>
<svg xmlns="http://www.w3.org/2000/svg" xmlns:xlink="http://www.w3.org/1999/xlink" width="24px" height="24px" viewBox="0 0 24 24" version="1.1">
<g id="surface1">
<path style="fill-rule:nonzero;fill:rgb(94.117647%,89.019608%,92.54902%);fill-opacity:1;stroke-width:1;stroke-linecap:butt;stroke-linejoin:miter;stroke:rgb(90.196079%,0.784314%,70.588237%);stroke-opacity:1;stroke-miterlimit:4;" d="M -10.02523 9.950768 L -11.040855 10.25806 C -10.952314 10.442956 -10.91846 11.825768 -11.116376 12.013268 C -11.254397 12.143477 -11.603355 12.200768 -11.882001 12.224206 C -12.715335 12.291914 -13.52523 12.651289 -13.52523 12.995039 C -13.52523 13.609622 -11.55648 13.929935 -10.02523 13.929935 C -8.504397 13.929935 -6.52523 13.609622 -6.52523 12.995039 C -6.52523 12.635664 -7.33773 12.291914 -8.171064 12.224206 C -8.44971 12.200768 -8.809085 12.151289 -8.936689 12.013268 C -9.13721 11.797122 -9.095543 10.419518 -9.009605 10.25806 Z M -10.02523 9.950768 " transform="matrix(1.5,0,0,1.5,27.037846,0.86291)"/>
<path style="fill-rule:nonzero;fill:rgb(95.294118%,71.764708%,85.09804%);fill-opacity:1;stroke-width:1;stroke-linecap:butt;stroke-linejoin:miter;stroke:rgb(90.196079%,0.784314%,70.588237%);stroke-opacity:1;stroke-miterlimit:4;" d="M -14.621585 0.950768 L -5.379397 0.950768 C -4.35596 0.950768 -3.52523 1.781497 -3.52523 2.804935 L -3.52523 8.135664 C -3.52523 9.159102 -4.35596 9.989831 -5.379397 9.989831 L -14.621585 9.989831 C -15.645022 9.989831 -16.475751 9.159102 -16.475751 8.135664 L -16.475751 2.804935 C -16.475751 1.781497 -15.645022 0.950768 -14.621585 0.950768 Z M -14.621585 0.950768 " transform="matrix(1.5,0,0,1.5,27.037846,0.86291)"/>
<path style=" stroke:none;fill-rule:nonzero;fill:rgb(60.000002%,60.000002%,60.000002%);fill-opacity:1;" d="M 4.914062 9 L 11.585938 9 C 11.8125 9 12 9.1875 12 9.414062 L 12 13.085938 C 12 13.316406 11.8125 13.5 11.585938 13.5 L 4.914062 13.5 C 4.6875 13.5 4.5 13.316406 4.5 13.085938 L 4.5 9.414062 C 4.5 9.1875 4.6875 9 4.914062 9 Z M 4.914062 9 "/>
<path style=" stroke:none;fill-rule:nonzero;fill:rgb(60.000002%,60.000002%,60.000002%);fill-opacity:1;" d="M 12.414062 4.539062 L 19.085938 4.539062 C 19.3125 4.539062 19.5 4.726562 19.5 4.953125 L 19.5 8.625 C 19.5 8.855469 19.3125 9.039062 19.085938 9.039062 L 12.414062 9.039062 C 12.1875 9.039062 12 8.855469 12 8.625 L 12 4.953125 C 12 4.726562 12.1875 4.539062 12.414062 4.539062 Z M 12.414062 4.539062 "/>
<path style=" stroke:none;fill-rule:nonzero;fill:rgb(100%,100%,100%);fill-opacity:1;" d="M 12.414062 9 L 19.085938 9 C 19.3125 9 19.5 9.1875 19.5 9.414062 L 19.5 13.085938 C 19.5 13.316406 19.3125 13.5 19.085938 13.5 L 12.414062 13.5 C 12.1875 13.5 12 13.316406 12 13.085938 L 12 9.414062 C 12 9.1875 12.1875 9 12.414062 9 Z M 12.414062 9 "/>
<path style=" stroke:none;fill-rule:nonzero;fill:rgb(100%,100%,100%);fill-opacity:1;" d="M 4.914062 4.539062 L 11.585938 4.539062 C 11.8125 4.539062 12 4.726562 12 4.953125 L 12 8.625 C 12 8.855469 11.8125 9.039062 11.585938 9.039062 L 4.914062 9.039062 C 4.6875 9.039062 4.5 8.855469 4.5 8.625 L 4.5 4.953125 C 4.5 4.726562 4.6875 4.539062 4.914062 4.539062 Z M 4.914062 4.539062 "/>
</g>
</svg>
