<?xml version="1.0" encoding="UTF-8"?>
<svg xmlns="http://www.w3.org/2000/svg" xmlns:xlink="http://www.w3.org/1999/xlink" width="24px" height="24px" viewBox="0 0 24 24" version="1.1">
<g id="surface1">
<path style="fill-rule:nonzero;fill:rgb(94.117647%,89.019608%,92.54902%);fill-opacity:1;stroke-width:1;stroke-linecap:butt;stroke-linejoin:miter;stroke:rgb(90.196079%,0.784314%,70.588237%);stroke-opacity:1;stroke-miterlimit:4;" d="M 7.984375 10.692708 L 6.966146 11 C 7.057292 11.1875 7.091146 12.567708 6.893229 12.755208 C 6.755208 12.885417 6.40625 12.942708 6.125 12.966146 C 5.294271 13.033854 4.484375 13.393229 4.484375 13.736979 C 4.484375 14.351562 6.453125 14.671875 7.984375 14.671875 C 9.505208 14.671875 11.484375 14.351562 11.484375 13.736979 C 11.484375 13.377604 10.671875 13.033854 9.838542 12.966146 C 9.559896 12.942708 9.197917 12.893229 9.072917 12.755208 C 8.872396 12.539062 8.914062 11.161458 9 11 Z M 7.984375 10.692708 " transform="matrix(1.5,0,0,1.5,0,0)"/>
<path style="fill-rule:nonzero;fill:rgb(94.117647%,89.019608%,92.54902%);fill-opacity:1;stroke-width:1;stroke-linecap:butt;stroke-linejoin:miter;stroke:rgb(90.196079%,0.784314%,70.588237%);stroke-opacity:1;stroke-miterlimit:4;" d="M 3.385417 1.692708 L 12.630208 1.692708 C 13.653646 1.692708 14.484375 2.523438 14.484375 3.546875 L 14.484375 8.877604 C 14.484375 9.901042 13.653646 10.731771 12.630208 10.731771 L 3.385417 10.731771 C 2.361979 10.731771 1.533854 9.901042 1.533854 8.877604 L 1.533854 3.546875 C 1.533854 2.523438 2.361979 1.692708 3.385417 1.692708 Z M 3.385417 1.692708 " transform="matrix(1.5,0,0,1.5,0,0)"/>
<path style=" stroke:none;fill-rule:nonzero;fill:rgb(18.82353%,83.92157%,100%);fill-opacity:1;" d="M 4.890625 9.25 L 11.558594 9.25 C 11.789062 9.25 11.976562 9.4375 11.976562 9.664062 L 11.976562 13.335938 C 11.976562 13.566406 11.789062 13.75 11.558594 13.75 L 4.890625 13.75 C 4.660156 13.75 4.476562 13.566406 4.476562 13.335938 L 4.476562 9.664062 C 4.476562 9.4375 4.660156 9.25 4.890625 9.25 Z M 4.890625 9.25 "/>
<path style=" stroke:none;fill-rule:nonzero;fill:rgb(44.705883%,100%,7.843138%);fill-opacity:1;" d="M 12.390625 4.789062 L 19.058594 4.789062 C 19.289062 4.789062 19.476562 4.976562 19.476562 5.203125 L 19.476562 8.875 C 19.476562 9.105469 19.289062 9.289062 19.058594 9.289062 L 12.390625 9.289062 C 12.160156 9.289062 11.976562 9.105469 11.976562 8.875 L 11.976562 5.203125 C 11.976562 4.976562 12.160156 4.789062 12.390625 4.789062 Z M 12.390625 4.789062 "/>
<path style=" stroke:none;fill-rule:nonzero;fill:rgb(100%,28.627452%,28.627452%);fill-opacity:1;" d="M 12.390625 9.25 L 19.058594 9.25 C 19.289062 9.25 19.476562 9.4375 19.476562 9.664062 L 19.476562 13.335938 C 19.476562 13.566406 19.289062 13.75 19.058594 13.75 L 12.390625 13.75 C 12.160156 13.75 11.976562 13.566406 11.976562 13.335938 L 11.976562 9.664062 C 11.976562 9.4375 12.160156 9.25 12.390625 9.25 Z M 12.390625 9.25 "/>
<path style=" stroke:none;fill-rule:nonzero;fill:rgb(100%,82.352942%,10.980392%);fill-opacity:1;" d="M 4.890625 4.789062 L 11.558594 4.789062 C 11.789062 4.789062 11.976562 4.976562 11.976562 5.203125 L 11.976562 8.875 C 11.976562 9.105469 11.789062 9.289062 11.558594 9.289062 L 4.890625 9.289062 C 4.660156 9.289062 4.476562 9.105469 4.476562 8.875 L 4.476562 5.203125 C 4.476562 4.976562 4.660156 4.789062 4.890625 4.789062 Z M 4.890625 4.789062 "/>
</g>
</svg>
