<?xml version="1.0" encoding="UTF-8"?>
<svg xmlns="http://www.w3.org/2000/svg" xmlns:xlink="http://www.w3.org/1999/xlink" width="24px" height="24px" viewBox="0 0 24 24" version="1.1">
<defs>
<linearGradient id="linear0" gradientUnits="userSpaceOnUse" x1="38.033909" y1="86.916695" x2="48.341999" y2="86.916695" gradientTransform="matrix(0.383374,0,0,-0.0134647,1.369622,28.208931)">
<stop offset="0" style="stop-color:rgb(18.431373%,18.431373%,18.431373%);stop-opacity:1;"/>
<stop offset="0.1224" style="stop-color:rgb(71.372551%,71.372551%,71.372551%);stop-opacity:1;"/>
<stop offset="0.278568" style="stop-color:rgb(95.294118%,95.294118%,95.294118%);stop-opacity:1;"/>
<stop offset="0.478117" style="stop-color:rgb(79.607844%,79.607844%,79.607844%);stop-opacity:1;"/>
<stop offset="0.6568" style="stop-color:rgb(100%,100%,100%);stop-opacity:1;"/>
<stop offset="0.7202" style="stop-color:rgb(94.509804%,94.509804%,94.509804%);stop-opacity:1;"/>
<stop offset="0.8387" style="stop-color:rgb(73.333335%,73.333335%,73.333335%);stop-opacity:1;"/>
<stop offset="1" style="stop-color:rgb(18.431373%,18.431373%,18.431373%);stop-opacity:1;"/>
</linearGradient>
<linearGradient id="linear1" gradientUnits="userSpaceOnUse" x1="46.05291" y1="114.455017" x2="78.560844" y2="114.455017" gradientTransform="matrix(0,0.162606,-0.176781,0,37.02177,19.951323)">
<stop offset="0" style="stop-color:rgb(100%,100%,100%);stop-opacity:1;"/>
<stop offset="1" style="stop-color:rgb(100%,100%,100%);stop-opacity:0;"/>
</linearGradient>
<filter id="alpha" filterUnits="objectBoundingBox" x="0%" y="0%" width="100%" height="100%">
  <feColorMatrix type="matrix" in="SourceGraphic" values="0 0 0 0 1 0 0 0 0 1 0 0 0 0 1 0 0 0 1 0"/>
</filter>
<mask id="mask0">
  <g filter="url(#alpha)">
<rect x="0" y="0" width="24" height="24" style="fill:rgb(0%,0%,0%);fill-opacity:0.537143;stroke:none;"/>
  </g>
</mask>
<clipPath id="clip1">
  <rect x="0" y="0" width="24" height="24"/>
</clipPath>
<g id="surface5" clip-path="url(#clip1)">
<path style=" stroke:none;fill-rule:nonzero;fill:rgb(95.294118%,71.764708%,85.09804%);fill-opacity:1;" d="M 8.933594 19.886719 L 9.027344 19.886719 C 9.179688 19.886719 9.304688 19.976562 9.304688 20.082031 L 9.304688 22.402344 C 9.304688 22.507812 9.179688 22.59375 9.027344 22.59375 L 8.933594 22.59375 C 8.777344 22.59375 8.652344 22.507812 8.652344 22.402344 L 8.652344 20.082031 C 8.652344 19.976562 8.777344 19.886719 8.933594 19.886719 Z M 8.933594 19.886719 "/>
</g>
<mask id="mask1">
  <g filter="url(#alpha)">
<rect x="0" y="0" width="24" height="24" style="fill:rgb(0%,0%,0%);fill-opacity:0.537143;stroke:none;"/>
  </g>
</mask>
<clipPath id="clip2">
  <rect x="0" y="0" width="24" height="24"/>
</clipPath>
<g id="surface8" clip-path="url(#clip2)">
<path style=" stroke:none;fill-rule:nonzero;fill:rgb(95.294118%,71.764708%,85.09804%);fill-opacity:1;" d="M 14.785156 19.886719 L 14.878906 19.886719 C 15.035156 19.886719 15.15625 19.976562 15.15625 20.082031 L 15.15625 22.402344 C 15.15625 22.507812 15.035156 22.59375 14.878906 22.59375 L 14.785156 22.59375 C 14.632812 22.59375 14.507812 22.507812 14.507812 22.402344 L 14.507812 20.082031 C 14.507812 19.976562 14.632812 19.886719 14.785156 19.886719 Z M 14.785156 19.886719 "/>
</g>
<clipPath id="clip3">
  <path d="M 2 2 L 11 2 L 11 7 L 2 7 Z M 2 2 "/>
</clipPath>
<clipPath id="clip4">
  <path d="M 1.875 6.972656 L 21.097656 6.972656 C 21.167969 6.972656 21.230469 6.925781 21.230469 6.863281 L 21.230469 1.03125 C 21.230469 0.96875 21.167969 0.921875 21.097656 0.921875 L 1.875 0.921875 C 1.800781 0.921875 1.742188 0.96875 1.742188 1.03125 L 1.742188 6.863281 C 1.742188 6.925781 1.800781 6.972656 1.875 6.972656 Z M 1.875 6.972656 "/>
</clipPath>
<clipPath id="clip5">
  <path d="M 1 2 L 11 2 L 11 7 L 1 7 Z M 1 2 "/>
</clipPath>
<clipPath id="clip6">
  <path d="M 1.875 6.972656 L 21.097656 6.972656 C 21.167969 6.972656 21.230469 6.925781 21.230469 6.863281 L 21.230469 1.03125 C 21.230469 0.96875 21.167969 0.921875 21.097656 0.921875 L 1.875 0.921875 C 1.800781 0.921875 1.742188 0.96875 1.742188 1.03125 L 1.742188 6.863281 C 1.742188 6.925781 1.800781 6.972656 1.875 6.972656 Z M 1.875 6.972656 "/>
</clipPath>
</defs>
<g id="surface1">
<path style=" stroke:none;fill-rule:nonzero;fill:url(#linear0);" d="M 10.980469 21.089844 L 12.820312 21.089844 C 13.035156 21.089844 13.210938 21.082031 13.210938 21.070312 L 13.210938 17.105469 C 13.210938 17.09375 13.035156 17.085938 12.820312 17.085938 L 10.980469 17.085938 C 10.765625 17.085938 10.59375 17.09375 10.59375 17.105469 L 10.59375 21.070312 C 10.59375 21.082031 10.765625 21.089844 10.980469 21.089844 Z M 10.980469 21.089844 "/>
<path style=" stroke:none;fill-rule:nonzero;fill:url(#linear1);" d="M 11.445312 17.613281 L 11.445312 20.707031 L 11.023438 20.707031 L 11.023438 17.613281 Z M 11.445312 17.613281 "/>
<path style=" stroke:none;fill-rule:nonzero;fill:rgb(90.196079%,0.784314%,70.588237%);fill-opacity:1;" d="M 10.980469 21.089844 L 12.820312 21.089844 C 13.035156 21.089844 13.210938 21.082031 13.210938 21.070312 L 13.210938 17.105469 C 13.210938 17.09375 13.035156 17.085938 12.820312 17.085938 L 10.980469 17.085938 C 10.765625 17.085938 10.59375 17.09375 10.59375 17.105469 L 10.59375 21.070312 C 10.59375 21.082031 10.765625 21.089844 10.980469 21.089844 Z M 10.980469 21.089844 "/>
<path style=" stroke:none;fill-rule:nonzero;fill:rgb(61.56863%,22.745098%,60.784316%);fill-opacity:1;" d="M 9.664062 21.777344 L 9.664062 20.738281 C 9.664062 20.640625 9.488281 20.558594 9.269531 20.558594 L 1.8125 20.558594 C 1.59375 20.558594 1.414062 20.640625 1.414062 20.738281 L 1.414062 21.777344 C 1.414062 21.878906 1.59375 21.960938 1.8125 21.960938 L 9.269531 21.960938 C 9.488281 21.960938 9.664062 21.878906 9.664062 21.777344 Z M 9.664062 21.777344 "/>
<path style=" stroke:none;fill-rule:nonzero;fill:rgb(61.56863%,22.745098%,60.784316%);fill-opacity:1;" d="M 8.859375 19.921875 C 8.949219 19.921875 9.019531 20.238281 9.019531 20.625 C 9.019531 21.011719 8.949219 21.324219 8.859375 21.324219 C 8.769531 21.324219 8.699219 21.011719 8.699219 20.625 C 8.699219 20.238281 8.769531 19.921875 8.859375 19.921875 Z M 8.859375 19.921875 "/>
<path style=" stroke:none;fill-rule:nonzero;fill:rgb(61.56863%,22.745098%,60.784316%);fill-opacity:1;" d="M 22.40625 21.765625 L 22.40625 20.847656 C 22.40625 20.710938 22.175781 20.605469 21.890625 20.605469 L 14.664062 20.605469 C 14.382812 20.605469 14.152344 20.710938 14.152344 20.847656 L 14.152344 21.765625 C 14.152344 21.898438 14.382812 22.007812 14.664062 22.007812 L 21.890625 22.007812 C 22.175781 22.007812 22.40625 21.898438 22.40625 21.765625 Z M 22.40625 21.765625 "/>
<path style=" stroke:none;fill-rule:nonzero;fill:rgb(61.56863%,22.745098%,60.784316%);fill-opacity:1;" d="M 15.808594 22.117188 L 15.808594 20.363281 C 15.808594 20.101562 15.515625 19.886719 15.160156 19.886719 L 8.652344 19.886719 C 8.292969 19.886719 8.003906 20.101562 8.003906 20.363281 L 8.003906 22.117188 C 8.003906 22.382812 8.292969 22.59375 8.652344 22.59375 L 15.160156 22.59375 C 15.515625 22.59375 15.808594 22.382812 15.808594 22.117188 Z M 15.808594 22.117188 "/>
<use xlink:href="#surface5" mask="url(#mask0)"/>
<use xlink:href="#surface8" mask="url(#mask1)"/>
<path style="fill-rule:evenodd;fill:rgb(95.294118%,71.764708%,85.09804%);fill-opacity:1;stroke-width:1.70956;stroke-linecap:round;stroke-linejoin:round;stroke:rgb(90.196079%,0.784314%,70.588237%);stroke-opacity:1;stroke-miterlimit:4;" d="M 2.887532 3.956489 L 20.682098 3.956489 C 21.568042 3.956489 22.28481 5.189687 22.28481 6.712264 L 22.28481 14.730281 C 22.28481 16.252858 21.568042 17.486057 20.682098 17.486057 L 2.887532 17.486057 C 2.001588 17.486057 1.284819 16.252858 1.284819 14.730281 L 1.284819 6.712264 C 1.284819 5.189687 2.001588 3.956489 2.887532 3.956489 Z M 2.887532 3.956489 " transform="matrix(0.877419,0,0,0.877419,1.622676,1.56366)"/>
<g clip-path="url(#clip3)" clip-rule="nonzero">
<g clip-path="url(#clip4)" clip-rule="nonzero">
<path style=" stroke:none;fill-rule:evenodd;fill:rgb(95.294118%,71.764708%,85.09804%);fill-opacity:1;" d="M 4.40625 2.933594 L 8.488281 2.933594 C 9.398438 2.933594 10.140625 3.671875 10.140625 4.582031 L 10.140625 6.636719 C 10.140625 7.550781 9.398438 8.285156 8.488281 8.285156 L 4.40625 8.285156 C 3.496094 8.285156 2.753906 7.550781 2.753906 6.636719 L 2.753906 4.582031 C 2.753906 3.671875 3.496094 2.933594 4.40625 2.933594 Z M 4.40625 2.933594 "/>
</g>
</g>
<g clip-path="url(#clip5)" clip-rule="nonzero">
<g clip-path="url(#clip6)" clip-rule="nonzero">
<path style="fill:none;stroke-width:1.780944;stroke-linecap:round;stroke-linejoin:round;stroke:rgb(90.196079%,0.784314%,70.588237%);stroke-opacity:1;stroke-miterlimit:4;" d="M 3.849522 2.215227 L 8.271644 2.215227 C 9.257629 2.215227 10.061652 3.175921 10.061652 4.360269 L 10.061652 7.033947 C 10.061652 8.223377 9.257629 9.178989 8.271644 9.178989 L 3.849522 9.178989 C 2.863536 9.178989 2.059514 8.223377 2.059514 7.033947 L 2.059514 4.360269 C 2.059514 3.175921 2.863536 2.215227 3.849522 2.215227 Z M 3.849522 2.215227 " transform="matrix(0.923093,0,0,0.768487,0.852783,1.23122)"/>
</g>
</g>
<path style=" stroke:none;fill-rule:evenodd;fill:rgb(95.294118%,71.764708%,85.09804%);fill-opacity:1;" d="M 9.109375 5.757812 L 11.96875 5.757812 C 12.273438 5.757812 12.519531 6.253906 12.519531 6.871094 C 12.519531 7.484375 12.273438 7.984375 11.96875 7.984375 L 9.109375 7.984375 C 8.804688 7.984375 8.558594 7.484375 8.558594 6.871094 C 8.558594 6.253906 8.804688 5.757812 9.109375 5.757812 Z M 9.109375 5.757812 "/>
<path style="fill-rule:evenodd;fill:rgb(95.294118%,71.764708%,85.09804%);fill-opacity:1;stroke-width:1.70956;stroke-linecap:round;stroke-linejoin:round;stroke:rgb(90.196079%,0.784314%,70.588237%);stroke-opacity:1;stroke-miterlimit:4;" d="M 4.63716 8.038955 L 18.914661 8.038955 C 20.739973 8.038955 22.218031 9.726255 22.218031 11.800878 L 22.218031 13.826529 C 22.218031 15.905604 20.739973 17.592904 18.914661 17.592904 L 4.63716 17.592904 C 2.811848 17.592904 1.329339 15.905604 1.329339 13.826529 L 1.329339 11.800878 C 1.329339 9.726255 2.811848 8.038955 4.63716 8.038955 Z M 4.63716 8.038955 " transform="matrix(0.877419,0,0,0.877419,1.622676,1.56366)"/>
<path style="fill:none;stroke-width:1.70956;stroke-linecap:butt;stroke-linejoin:miter;stroke:rgb(61.56863%,22.745098%,60.784316%);stroke-opacity:1;stroke-miterlimit:4;" d="M 1.814605 13.808721 L 21.786189 13.808721 " transform="matrix(0.877419,0,0,0.877419,1.622676,1.56366)"/>
<path style="fill:none;stroke-width:1.70956;stroke-linecap:butt;stroke-linejoin:miter;stroke:rgb(61.56863%,22.745098%,60.784316%);stroke-opacity:1;stroke-miterlimit:4;" d="M 1.783441 15.300135 L 21.786189 15.300135 " transform="matrix(0.877419,0,0,0.877419,1.622676,1.56366)"/>
</g>
</svg>
