<?xml version="1.0" encoding="UTF-8"?>
<svg xmlns="http://www.w3.org/2000/svg" xmlns:xlink="http://www.w3.org/1999/xlink" width="24px" height="24px" viewBox="0 0 24 24" version="1.1">
<g id="surface1">
<path style=" stroke:none;fill-rule:nonzero;fill:rgb(61.56863%,22.745098%,60.784316%);fill-opacity:1;" d="M 2.390625 22.5 C 2.882812 22.5 3.28125 21.929688 3.28125 21.230469 L 3.28125 2.769531 C 3.28125 2.070312 2.882812 1.5 2.390625 1.5 C 1.898438 1.5 1.5 2.070312 1.5 2.769531 L 1.5 21.230469 C 1.5 21.929688 1.898438 22.5 2.390625 22.5 Z M 2.390625 22.5 "/>
<path style="fill-rule:evenodd;fill:rgb(95.294118%,71.764708%,85.09804%);fill-opacity:1;stroke-width:1;stroke-linecap:round;stroke-linejoin:round;stroke:rgb(90.196079%,0.784314%,70.588237%);stroke-opacity:1;stroke-miterlimit:4;" d="M 4 -13.5 L 12 -13.5 C 12.276042 -13.5 12.5 -13.276042 12.5 -13 L 12.5 -10 C 12.5 -9.723958 12.276042 -9.5 12 -9.5 L 4 -9.5 C 3.723958 -9.5 3.5 -9.723958 3.5 -10 L 3.5 -13 C 3.5 -13.276042 3.723958 -13.5 4 -13.5 Z M 4 -13.5 " transform="matrix(1.5,0,0,-1.5,0,0)"/>
<path style="fill-rule:evenodd;fill:rgb(95.294118%,71.764708%,85.09804%);fill-opacity:1;stroke-width:1;stroke-linecap:round;stroke-linejoin:round;stroke:rgb(90.196079%,0.784314%,70.588237%);stroke-opacity:1;stroke-miterlimit:4;" d="M 4 -7 L 14 -7 C 14.276042 -7 14.5 -6.776042 14.5 -6.5 L 14.5 -3.5 C 14.5 -3.223958 14.276042 -3 14 -3 L 4 -3 C 3.723958 -3 3.5 -3.223958 3.5 -3.5 L 3.5 -6.5 C 3.5 -6.776042 3.723958 -7 4 -7 Z M 4 -7 " transform="matrix(1.5,0,0,-1.5,0,0)"/>
</g>
</svg>
