<?xml version="1.0" encoding="UTF-8"?>
<svg xmlns="http://www.w3.org/2000/svg" xmlns:xlink="http://www.w3.org/1999/xlink" width="24px" height="24px" viewBox="0 0 24 24" version="1.1">
<defs>
<filter id="alpha" filterUnits="objectBoundingBox" x="0%" y="0%" width="100%" height="100%">
  <feColorMatrix type="matrix" in="SourceGraphic" values="0 0 0 0 1 0 0 0 0 1 0 0 0 0 1 0 0 0 1 0"/>
</filter>
<mask id="mask0">
  <g filter="url(#alpha)">
<rect x="0" y="0" width="24" height="24" style="fill:rgb(0%,0%,0%);fill-opacity:0.513761;stroke:none;"/>
  </g>
</mask>
<clipPath id="clip1">
  <rect x="0" y="0" width="24" height="24"/>
</clipPath>
<g id="surface5" clip-path="url(#clip1)">
<path style="fill-rule:evenodd;fill:rgb(90.196079%,0.784314%,70.588237%);fill-opacity:1;stroke-width:0.166762;stroke-linecap:butt;stroke-linejoin:miter;stroke:rgb(90.196079%,0.784314%,70.588237%);stroke-opacity:1;stroke-miterlimit:4;" d="M 12.1875 4.21875 C 12.1875 4.21875 12.182292 4.221354 12.182292 4.223958 C 12.182292 4.226562 12.179688 4.231771 12.177083 4.234375 C 12.013021 4.583333 11.994792 7.796875 12.820312 7.75 C 13.002604 7.739583 13.182292 7.708333 13.351562 7.658854 L 13.388021 5.091146 Z M 12.1875 4.21875 " transform="matrix(1.5,0,0,1.5,0,0)"/>
</g>
<radialGradient id="radial0" gradientUnits="userSpaceOnUse" cx="18.988297" cy="99.099472" fx="18.988297" fy="99.099472" r="4.909016" gradientTransform="matrix(0.269045,-0.0218469,0.0324395,0.332803,-11.64371,-5.879355)">
<stop offset="0" style="stop-color:rgb(100%,100%,100%);stop-opacity:1;"/>
<stop offset="1" style="stop-color:rgb(100%,100%,100%);stop-opacity:0;"/>
</radialGradient>
<radialGradient id="radial1" gradientUnits="userSpaceOnUse" cx="18.988297" cy="99.099472" fx="18.988297" fy="99.099472" r="4.909016" gradientTransform="matrix(0.269045,-0.0218469,0.0324395,0.332803,-11.64371,-5.879355)">
<stop offset="0" style="stop-color:rgb(100%,100%,100%);stop-opacity:1;"/>
<stop offset="1" style="stop-color:rgb(100%,100%,100%);stop-opacity:0;"/>
</radialGradient>
</defs>
<g id="surface1">
<use xlink:href="#surface5" mask="url(#mask0)"/>
<path style="fill-rule:evenodd;fill:rgb(95.294118%,71.764708%,85.09804%);fill-opacity:1;stroke-width:0.169165;stroke-linecap:butt;stroke-linejoin:miter;stroke:rgb(90.196079%,0.784314%,70.588237%);stroke-opacity:1;stroke-miterlimit:4;" d="M 15.861979 4.302083 L 13.625 5.244792 L 13.53125 6.799479 L 13.809896 7.479167 C 14.78125 6.927083 15.479167 5.726562 15.861979 4.302083 Z M 15.861979 4.302083 " transform="matrix(1.5,0,0,1.5,0,0)"/>
<path style=" stroke:none;fill-rule:evenodd;fill:rgb(95.294118%,71.764708%,85.09804%);fill-opacity:1;" d="M 13.191406 3.941406 L 14.941406 8.113281 L 15.996094 7.957031 L 17.300781 11.03125 L 16.429688 11.523438 L 17.015625 12.382812 C 18.578125 12.0625 20.273438 11.46875 20.273438 11.46875 C 20.277344 11.46875 20.28125 11.46875 20.285156 11.46875 C 20.285156 11.46875 20.289062 11.46875 20.292969 11.46875 C 20.292969 11.46875 20.300781 11.460938 20.300781 11.460938 C 20.300781 11.457031 20.300781 11.453125 20.300781 11.453125 C 20.300781 11.449219 20.308594 11.441406 20.308594 11.4375 C 20.320312 10.972656 18.375 6.683594 17.742188 5.160156 C 17.785156 4.078125 17.792969 3.992188 17.929688 3.011719 C 19.253906 2.554688 21.566406 1.628906 21.566406 1.628906 C 20.648438 0.660156 18.515625 0.394531 17.039062 0.605469 C 14.714844 0.9375 13.480469 2.140625 13.191406 3.941406 Z M 13.191406 3.941406 "/>
<path style="fill-rule:evenodd;fill:rgb(90.196079%,0.784314%,70.588237%);fill-opacity:1;stroke-width:0.169165;stroke-linecap:butt;stroke-linejoin:miter;stroke:rgb(90.196079%,0.784314%,70.588237%);stroke-opacity:1;stroke-miterlimit:4;" d="M 11.302083 0.127604 C 9.817708 0.315104 8.671875 1.299479 8.528646 2.502604 C 8.526042 2.507812 8.526042 2.518229 8.523438 2.523438 C 8.523438 2.523438 7.789062 6.096354 7.054688 7.033854 C 6.479167 7.770833 1.005208 11.835938 0.481771 12.622396 C -0.625 14.276042 1.205729 16.78125 3.3125 15.466146 C 4.700521 14.601562 7.955729 9.658854 9.085938 8.992188 C 9.851562 8.544271 13.747396 7.877604 13.747396 7.877604 C 13.747396 7.880208 13.752604 7.882812 13.752604 7.882812 C 13.752604 7.882812 13.757812 7.882812 13.757812 7.882812 C 13.757812 7.882812 13.763021 7.877604 13.763021 7.877604 C 13.763021 7.877604 13.768229 7.872396 13.768229 7.872396 C 13.768229 7.869792 13.768229 7.867188 13.768229 7.867188 C 13.768229 7.861979 13.765625 7.854167 13.765625 7.851562 C 13.75 7.5 12.247396 4.445312 11.828125 3.440104 C 11.859375 2.71875 11.859375 2.661458 11.953125 2.007812 C 12.841146 1.700521 14.46875 1.153646 14.46875 1.153646 C 13.854167 0.507812 12.877604 0.0963542 11.786458 0.109375 C 11.778646 0.109375 11.770833 0.104167 11.763021 0.104167 C 11.723958 0.106771 11.578125 0.109375 11.565104 0.109375 C 11.554688 0.111979 11.536458 0.109375 11.526042 0.109375 C 11.515625 0.109375 11.497396 0.111979 11.486979 0.111979 C 11.424479 0.117188 11.361979 0.119792 11.302083 0.127604 Z M 11.528646 0.317708 C 12.510417 0.192708 13.776042 0.450521 14.377604 1.085938 C 14.377604 1.085938 12.763021 1.635417 11.880208 1.940104 C 11.786458 2.59375 11.783854 2.653646 11.752604 3.372396 C 12.171875 4.380208 13.671875 7.434896 13.6875 7.783854 C 13.6875 7.783854 13.6875 7.789062 13.6875 7.789062 C 13.684896 7.791667 13.682292 7.796875 13.682292 7.799479 C 13.682292 7.799479 13.682292 7.804688 13.682292 7.804688 C 13.682292 7.807292 13.677083 7.809896 13.677083 7.809896 C 13.677083 7.809896 13.671875 7.809896 13.671875 7.8125 C 13.671875 7.8125 13.666667 7.8125 13.666667 7.8125 C 13.666667 7.8125 12.424479 7.971354 11.380208 8.1875 L 11.078125 7.604167 L 11.75 7.268229 L 10.820312 5.104167 L 9.950521 5.263021 L 8.794271 2.627604 C 8.986979 1.427083 9.9375 0.546875 11.484375 0.328125 C 11.5 0.325521 11.513021 0.320312 11.528646 0.317708 Z M 2.041667 12.447917 C 2.106771 12.4375 2.174479 12.4375 2.242188 12.434896 C 2.877604 12.429688 3.46875 13.067708 3.466146 13.799479 C 3.466146 14.403646 2.830729 15.010417 2.195312 15.015625 C 1.559896 15.023438 0.942708 14.359375 0.929688 13.695312 C 0.919271 13.111979 1.354167 12.546875 2.041667 12.447917 Z M 2.041667 12.447917 " transform="matrix(1.5,0,0,1.5,0,0)"/>
<path style=" stroke:none;fill-rule:evenodd;fill:rgb(61.56863%,22.745098%,60.784316%);fill-opacity:1;" d="M 3.179688 17.945312 C 4.636719 17.664062 6.210938 19.351562 5.832031 20.863281 C 6.949219 20.015625 11.972656 14.019531 12.257812 13.363281 C 12.695312 12.359375 11.667969 11.390625 10.636719 11.785156 C 9.914062 12.058594 3.085938 17.960938 3.179688 17.945312 Z M 3.179688 17.945312 "/>
<path style="fill-rule:evenodd;fill:rgb(61.56863%,22.745098%,60.784316%);fill-opacity:1;stroke-width:0.268232;stroke-linecap:round;stroke-linejoin:round;stroke:rgb(61.56863%,22.745098%,60.784316%);stroke-opacity:1;stroke-miterlimit:4;" d="M 8.330729 6.161458 L 10.565104 5.322917 L 11.497396 7.341146 L 9.263021 8.182292 Z M 8.330729 6.161458 " transform="matrix(1.5,0,0,1.5,0,0)"/>
<path style=" stroke:none;fill-rule:evenodd;fill:rgb(61.56863%,22.745098%,60.784316%);fill-opacity:1;" d="M 3.179688 17.945312 C 4.636719 17.664062 6.210938 19.351562 5.832031 20.863281 C 6.949219 20.015625 11.972656 14.019531 12.257812 13.363281 C 12.695312 12.359375 11.667969 11.390625 10.636719 11.785156 C 9.914062 12.058594 3.085938 17.960938 3.179688 17.945312 Z M 3.179688 17.945312 "/>
<path style=" stroke:none;fill-rule:evenodd;fill:url(#radial0);" d="M 3.121094 17.992188 C 3.121094 17.992188 4.25 17.773438 5.167969 18.707031 C 6.171875 19.730469 5.804688 20.882812 5.804688 20.882812 L 5.628906 21.078125 C 5.628906 21.078125 5.738281 20.636719 5.648438 20.191406 C 5.558594 19.75 5.347656 19.289062 4.96875 18.910156 C 4.597656 18.539062 4.238281 18.292969 3.84375 18.191406 C 3.445312 18.089844 2.992188 18.132812 3 18.113281 Z M 3.121094 17.992188 "/>
<path style=" stroke:none;fill-rule:evenodd;fill:url(#radial1);" d="M 3.121094 17.992188 C 3.121094 17.992188 4.25 17.773438 5.167969 18.707031 C 6.171875 19.730469 5.804688 20.882812 5.804688 20.882812 L 5.628906 21.078125 C 5.628906 21.078125 5.738281 20.636719 5.648438 20.191406 C 5.558594 19.75 5.347656 19.289062 4.96875 18.910156 C 4.597656 18.539062 4.238281 18.292969 3.84375 18.191406 C 3.445312 18.089844 2.992188 18.132812 3 18.113281 Z M 3.121094 17.992188 "/>
<path style="fill-rule:nonzero;fill:rgb(95.294118%,71.764708%,85.09804%);fill-opacity:1;stroke-width:0.982595;stroke-linecap:butt;stroke-linejoin:miter;stroke:rgb(61.56863%,22.745098%,60.784316%);stroke-opacity:1;stroke-miterlimit:4;" d="M 1.364583 0.75 L 2.445312 1.325521 C 2.583333 1.59375 2.690104 1.833333 2.755208 2.036458 L 8.375 7.450521 C 8.632812 7.216146 8.838542 7.057292 8.950521 7.020833 L 8.981771 7.005208 L 9.528646 6.859375 L 9.794271 7.213542 L 10.002604 8.145833 C 10.0625 8.419271 10.328125 8.565104 10.565104 8.692708 C 10.872396 8.856771 11.627604 8.942708 11.627604 8.942708 L 15.502604 12.729167 C 15.518229 12.809896 15.528646 12.890625 15.533854 12.966146 C 15.533854 12.984375 15.533854 13.007812 15.533854 13.026042 C 15.536458 13.117188 15.53125 13.205729 15.518229 13.291667 C 15.507812 13.377604 15.484375 13.463542 15.458333 13.544271 C 15.442708 13.604167 15.424479 13.664062 15.401042 13.721354 C 15.390625 13.744792 15.380208 13.770833 15.369792 13.794271 C 15.338542 13.864583 15.291667 13.934896 15.252604 14.002604 C 15.177083 14.122396 15.096354 14.236979 15 14.341146 C 14.458333 14.942708 13.651042 15.273438 13.270833 15.200521 L 9.367188 11.429688 C 9.367188 11.429688 9.354167 10.820312 9.231771 10.570312 C 9.057292 10.210938 8.807292 9.817708 8.403646 9.726562 L 7.575521 9.549479 L 7.265625 9.299479 L 7.25 8.765625 L 7.294271 8.721354 C 7.338542 8.606771 7.481771 8.411458 7.679688 8.174479 L 2.075521 2.716146 L 2.03125 2.671875 C 1.833333 2.617188 1.604167 2.536458 1.320312 2.40625 L 0.625 1.460938 Z M 1.364583 0.75 " transform="matrix(1.5,0,0,1.5,0,0)"/>
<path style=" stroke:none;fill-rule:nonzero;fill:rgb(61.56863%,22.745098%,60.784316%);fill-opacity:1;" d="M 10.925781 13.234375 C 10.808594 13.121094 11.300781 12.425781 12.027344 11.679688 C 12.75 10.933594 13.433594 10.421875 13.550781 10.535156 C 13.667969 10.648438 13.175781 11.34375 12.453125 12.089844 C 11.726562 12.835938 11.042969 13.347656 10.925781 13.234375 Z M 10.925781 13.234375 "/>
<path style=" stroke:none;fill-rule:nonzero;fill:rgb(0%,0%,0%);fill-opacity:1;" d="M 11.464844 12.679688 C 11.414062 12.628906 11.71875 12.234375 12.144531 11.792969 C 12.574219 11.355469 12.960938 11.039062 13.011719 11.089844 C 13.066406 11.140625 12.761719 11.535156 12.332031 11.976562 C 11.90625 12.414062 11.515625 12.730469 11.464844 12.679688 Z M 11.464844 12.679688 "/>
<path style="fill-rule:nonzero;fill:rgb(94.117647%,89.019608%,92.54902%);fill-opacity:1;stroke-width:0.15776;stroke-linecap:butt;stroke-linejoin:miter;stroke:rgb(90.196079%,0.784314%,70.588237%);stroke-opacity:1;stroke-miterlimit:4;" d="M 8.1875 7.924479 C 8.304688 7.807292 8.408854 7.682292 8.497396 7.554688 L 2.744792 2.015625 L 2.71875 1.976562 L 2.03125 2.679688 L 2.080729 2.713542 L 7.799479 8.270833 C 7.942708 8.158854 8.070312 8.044271 8.1875 7.924479 Z M 8.1875 7.924479 " transform="matrix(1.5,0,0,1.5,0,0)"/>
<path style="fill-rule:nonzero;fill:rgb(61.56863%,22.745098%,60.784316%);fill-opacity:1;stroke-width:0.15776;stroke-linecap:round;stroke-linejoin:round;stroke:rgb(90.196079%,0.784314%,70.588237%);stroke-opacity:1;stroke-miterlimit:4;" d="M 0.625 1.466146 L 1.322917 2.411458 C 3.059896 3.205729 3.078125 2.546875 2.440104 1.333333 L 1.369792 0.747396 Z M 0.625 1.466146 " transform="matrix(1.5,0,0,1.5,0,0)"/>
<path style=" stroke:none;fill-rule:nonzero;fill:rgb(95.294118%,71.764708%,85.09804%);fill-opacity:1;" d="M 1.160156 2.253906 L 2.0625 3.480469 C 4.3125 4.511719 4.339844 3.65625 3.511719 2.082031 L 2.125 1.324219 Z M 1.160156 2.253906 "/>
</g>
</svg>
