<?xml version="1.0" encoding="UTF-8"?>
<svg xmlns="http://www.w3.org/2000/svg" xmlns:xlink="http://www.w3.org/1999/xlink" width="24px" height="24px" viewBox="0 0 24 24" version="1.1">
<g id="surface1">
<path style="fill-rule:evenodd;fill:rgb(94.117647%,89.019608%,92.54902%);fill-opacity:1;stroke-width:1.153847;stroke-linecap:butt;stroke-linejoin:miter;stroke:rgb(90.196079%,0.784314%,70.588237%);stroke-opacity:1;stroke-miterlimit:4;" d="M -68.965749 137.375011 L -61.784254 137.375011 C -61.697114 137.375011 -61.624999 137.462151 -61.624999 137.567319 L -61.624999 144.682709 C -61.624999 144.787877 -61.697114 144.875017 -61.784254 144.875017 L -68.965749 144.875017 C -69.052889 144.875017 -69.125004 144.787877 -69.125004 144.682709 L -69.125004 137.567319 C -69.125004 137.462151 -69.052889 137.375011 -68.965749 137.375011 Z M -68.965749 137.375011 " transform="matrix(0,1.299999,1.299999,0,-176.337386,92.112441)"/>
<path style="fill-rule:evenodd;fill:rgb(95.294118%,71.764708%,85.09804%);fill-opacity:1;stroke-width:1.153847;stroke-linecap:butt;stroke-linejoin:miter;stroke:rgb(90.196079%,0.784314%,70.588237%);stroke-opacity:1;stroke-miterlimit:4;" d="M -68.965745 137.375001 L -61.784252 137.375001 C -61.697112 137.375001 -61.624997 137.46214 -61.624997 137.567309 L -61.624997 144.682696 C -61.624997 144.787864 -61.697112 144.875003 -61.784252 144.875003 L -68.965745 144.875003 C -69.052884 144.875003 -69.125 144.787864 -69.125 144.682696 L -69.125 137.567309 C -69.125 137.46214 -69.052884 137.375001 -68.965745 137.375001 Z M -68.965745 137.375001 " transform="matrix(0,1.3,1.3,0,-171.462439,96.987468)"/>
<path style="fill-rule:evenodd;fill:rgb(94.117647%,89.019608%,92.54902%);fill-opacity:1;stroke-width:1.153847;stroke-linecap:butt;stroke-linejoin:miter;stroke:rgb(90.196079%,0.784314%,70.588237%);stroke-opacity:1;stroke-miterlimit:4;" d="M -68.965744 137.375007 L -61.784248 137.375007 C -61.697109 137.375007 -61.624993 137.462147 -61.624993 137.567315 L -61.624993 144.682705 C -61.624993 144.787873 -61.697109 144.875012 -61.784248 144.875012 L -68.965744 144.875012 C -69.052883 144.875012 -69.124999 144.787873 -69.124999 144.682705 L -69.124999 137.567315 C -69.124999 137.462147 -69.052883 137.375007 -68.965744 137.375007 Z M -68.965744 137.375007 " transform="matrix(0,1.299999,1.299999,0,-166.587381,101.862434)"/>
</g>
</svg>
