<?xml version="1.0" encoding="UTF-8"?>
<svg xmlns="http://www.w3.org/2000/svg" xmlns:xlink="http://www.w3.org/1999/xlink" width="24px" height="24px" viewBox="0 0 24 24" version="1.1">
<g id="surface1">
<path style="fill:none;stroke-width:0.398731;stroke-linecap:round;stroke-linejoin:miter;stroke:rgb(61.56863%,22.745098%,60.784316%);stroke-opacity:1;stroke-miterlimit:4;" d="M 5.737233 2.258784 C 2.260222 2.258784 2.260222 2.258784 2.260222 2.258784 " transform="matrix(3.527635,0,0,3.510317,0.792385,6.883452)"/>
<path style="fill:none;stroke-width:0.426262;stroke-linecap:round;stroke-linejoin:miter;stroke:rgb(61.56863%,22.745098%,60.784316%);stroke-opacity:1;stroke-miterlimit:4;" d="M 5.689618 3.06667 C 2.260222 3.06667 2.260222 3.06667 2.260222 3.06667 " transform="matrix(3.527635,0,0,3.510317,0.792385,6.883452)"/>
<path style="fill-rule:nonzero;fill:rgb(95.294118%,71.764708%,85.09804%);fill-opacity:1;stroke-width:0.426262;stroke-linecap:butt;stroke-linejoin:miter;stroke:rgb(90.196079%,0.784314%,70.588237%);stroke-opacity:1;stroke-miterlimit:4;" d="M 1.255876 -0.427494 C 1.255876 -0.186018 1.057664 0.00983299 0.812944 0.00983299 C 0.568225 0.00983299 0.370013 -0.186018 0.370013 -0.427494 C 0.370013 -0.66897 0.568225 -0.864821 0.812944 -0.864821 C 1.057664 -0.864821 1.255876 -0.66897 1.255876 -0.427494 Z M 1.255876 -0.427494 " transform="matrix(3.527635,0,0,3.510317,0.792385,6.883452)"/>
<path style="fill:none;stroke-width:0.426262;stroke-linecap:round;stroke-linejoin:miter;stroke:rgb(61.56863%,22.745098%,60.784316%);stroke-opacity:1;stroke-miterlimit:4;" d="M 5.716194 -0.887077 C 2.263544 -0.887077 2.263544 -0.887077 2.263544 -0.887077 " transform="matrix(3.527635,0,0,3.510317,0.792385,6.883452)"/>
<path style="fill:none;stroke-width:0.426262;stroke-linecap:round;stroke-linejoin:miter;stroke:rgb(61.56863%,22.745098%,60.784316%);stroke-opacity:1;stroke-miterlimit:4;" d="M 5.706228 -0.138168 C 2.275725 -0.138168 2.275725 -0.138168 2.275725 -0.138168 " transform="matrix(3.527635,0,0,3.510317,0.792385,6.883452)"/>
<path style="fill-rule:evenodd;fill:rgb(94.117647%,89.019608%,92.54902%);fill-opacity:1;stroke-width:1.611067;stroke-linecap:round;stroke-linejoin:round;stroke:rgb(90.196079%,0.784314%,70.588237%);stroke-opacity:1;stroke-miterlimit:4;" d="M 15.970858 8.510505 L 20.04722 8.510505 C 21.378107 8.510505 22.457882 9.595608 22.457882 10.93306 L 22.457882 20.076523 C 22.457882 21.413975 21.378107 22.499078 20.04722 22.499078 L 15.970858 22.499078 C 14.639972 22.499078 13.560196 21.413975 13.560196 20.076523 L 13.560196 10.93306 C 13.560196 9.595608 14.639972 8.510505 15.970858 8.510505 Z M 15.970858 8.510505 " transform="matrix(0.933354,0,0,0.928771,0.863074,-0.572283)"/>
<path style="fill-rule:evenodd;fill:rgb(95.294118%,71.764708%,85.09804%);fill-opacity:1;stroke-width:1.611067;stroke-linecap:round;stroke-linejoin:round;stroke:rgb(90.196079%,0.784314%,70.588237%);stroke-opacity:1;stroke-miterlimit:4;" d="M 16.891597 11.500846 L 19.109741 11.500846 C 19.875628 11.500846 20.49922 12.224248 20.49922 13.120089 L 20.49922 18.882069 C 20.49922 19.773704 19.875628 20.501311 19.109741 20.501311 L 16.891597 20.501311 C 16.121524 20.501311 15.497933 19.773704 15.497933 18.882069 L 15.497933 13.120089 C 15.497933 12.224248 16.121524 11.500846 16.891597 11.500846 Z M 16.891597 11.500846 " transform="matrix(0.933354,0,0,0.928771,0.863074,-0.572283)"/>
<path style="fill:none;stroke-width:1.611067;stroke-linecap:round;stroke-linejoin:round;stroke:rgb(61.56863%,22.745098%,60.784316%);stroke-opacity:1;stroke-miterlimit:4;" d="M 18.419187 14.188368 C 18.419187 14.411277 18.235039 14.596333 18.004854 14.596333 C 17.774669 14.600539 17.590522 14.415483 17.586336 14.192574 C 17.582151 13.96546 17.766299 13.780403 17.996484 13.776198 C 18.226668 13.771992 18.415001 13.952842 18.419187 14.175751 L 18.004854 14.188368 Z M 18.419187 14.188368 " transform="matrix(0.933354,0,0,0.928771,0.863074,-0.572283)"/>
<path style="fill:none;stroke-width:1.611067;stroke-linecap:round;stroke-linejoin:round;stroke:rgb(90.196079%,0.784314%,70.588237%);stroke-opacity:1;stroke-miterlimit:4;" d="M 17.946262 16.741304 L 17.946262 18.776923 " transform="matrix(0.933354,0,0,0.928771,0.863074,-0.572283)"/>
<path style="fill-rule:nonzero;fill:rgb(95.294118%,71.764708%,85.09804%);fill-opacity:1;stroke-width:0.426262;stroke-linecap:butt;stroke-linejoin:miter;stroke:rgb(90.196079%,0.784314%,70.588237%);stroke-opacity:1;stroke-miterlimit:4;" d="M 1.280237 2.543659 C 1.280237 2.785134 1.082025 2.980985 0.837306 2.980985 C 0.592586 2.980985 0.394374 2.785134 0.394374 2.543659 C 0.394374 2.302183 0.592586 2.106332 0.837306 2.106332 C 1.082025 2.106332 1.280237 2.302183 1.280237 2.543659 Z M 1.280237 2.543659 " transform="matrix(3.527635,0,0,3.510317,0.792385,6.883452)"/>
</g>
</svg>
