<?xml version="1.0" encoding="UTF-8"?>
<svg xmlns="http://www.w3.org/2000/svg" xmlns:xlink="http://www.w3.org/1999/xlink" width="24px" height="24px" viewBox="0 0 24 24" version="1.1">
<g id="surface1">
<path style="fill:none;stroke-width:0.264583;stroke-linecap:round;stroke-linejoin:miter;stroke:rgb(90.196079%,0.784314%,70.588237%);stroke-opacity:1;stroke-miterlimit:4;" d="M 3.836458 1.455208 C 2.513542 1.455208 2.513542 1.455208 2.513542 1.455208 " transform="matrix(5.669291,0,0,5.669291,0.00000135166,0)"/>
<path style="fill:none;stroke-width:0.264583;stroke-linecap:round;stroke-linejoin:miter;stroke:rgb(90.196079%,0.784314%,70.588237%);stroke-opacity:1;stroke-miterlimit:4;" d="M 3.836458 1.984375 C 2.513542 1.984375 2.513542 1.984375 2.513542 1.984375 " transform="matrix(5.669291,0,0,5.669291,0.00000135166,0)"/>
<path style="fill:none;stroke-width:0.264583;stroke-linecap:round;stroke-linejoin:round;stroke:rgb(90.196079%,0.784314%,70.588237%);stroke-opacity:1;stroke-miterlimit:4;" d="M 0.926041 0.396875 L 0.926041 3.571875 " transform="matrix(5.669291,0,0,5.669291,0.00000135166,0)"/>
<path style="fill:none;stroke-width:0.264583;stroke-linecap:round;stroke-linejoin:round;stroke:rgb(90.196079%,0.784314%,70.588237%);stroke-opacity:1;stroke-miterlimit:4;" d="M 0.264583 3.307292 L 0.926041 3.836459 L 1.5875 3.307292 " transform="matrix(5.669291,0,0,5.669291,0.00000135166,0)"/>
<path style="fill-rule:evenodd;fill:rgb(90.196079%,0.784314%,70.588237%);fill-opacity:1;stroke-width:0.264583;stroke-linecap:round;stroke-linejoin:round;stroke:rgb(61.56863%,22.745098%,60.784316%);stroke-opacity:1;stroke-miterlimit:4;" d="M 2.116667 0.396875 L 3.704167 0.396875 C 3.777203 0.396875 3.836458 0.456131 3.836458 0.529167 L 3.836458 0.79375 C 3.836458 0.866786 3.777203 0.926042 3.704167 0.926042 L 2.116667 0.926042 C 2.043631 0.926042 1.984375 0.866786 1.984375 0.79375 L 1.984375 0.529167 C 1.984375 0.456131 2.043631 0.396875 2.116667 0.396875 Z M 2.116667 0.396875 " transform="matrix(5.669291,0,0,5.669291,0.00000135166,0)"/>
<path style="fill-rule:evenodd;fill:rgb(90.196079%,0.784314%,70.588237%);fill-opacity:1;stroke-width:0.264583;stroke-linecap:round;stroke-linejoin:round;stroke:rgb(61.56863%,22.745098%,60.784316%);stroke-opacity:1;stroke-miterlimit:4;" d="M 2.116667 2.38125 L 3.704167 2.38125 C 3.777203 2.38125 3.836458 2.440506 3.836458 2.513542 L 3.836458 2.778125 C 3.836458 2.851161 3.777203 2.910417 3.704167 2.910417 L 2.116667 2.910417 C 2.043631 2.910417 1.984375 2.851161 1.984375 2.778125 L 1.984375 2.513542 C 1.984375 2.440506 2.043631 2.38125 2.116667 2.38125 Z M 2.116667 2.38125 " transform="matrix(5.669291,0,0,5.669291,0.00000135166,0)"/>
</g>
</svg>
