<?xml version="1.0" encoding="UTF-8"?>
<svg xmlns="http://www.w3.org/2000/svg" xmlns:xlink="http://www.w3.org/1999/xlink" width="24px" height="24px" viewBox="0 0 24 24" version="1.1">
<g id="surface1">
<path style="fill-rule:nonzero;fill:rgb(95.294118%,71.764708%,85.09804%);fill-opacity:1;stroke-width:0.421993;stroke-linecap:round;stroke-linejoin:round;stroke:rgb(90.196079%,0.784314%,70.588237%);stroke-opacity:1;stroke-miterlimit:4;" d="M 2.044619 -1.690277 C 2.035815 -1.690277 2.025909 -1.68918 2.016004 -1.690277 C 2.010502 -1.690277 2.004999 -1.690277 1.999496 -1.690277 C 1.651717 -1.690277 1.306138 -1.555307 1.061812 -1.325969 C 0.817486 -1.095533 0.676614 -0.775117 0.676614 -0.452507 C 0.676614 -0.129897 0.817486 0.191616 1.061812 0.420955 C 1.306138 0.651391 1.651717 0.78636 2.000596 0.78636 C 2.006099 0.78636 2.012703 0.78636 2.018206 0.785263 C 2.069932 0.784166 2.120558 0.80282 2.157978 0.836837 C 2.195397 0.871951 2.216308 0.920233 2.216308 0.970709 L 2.216308 3.865423 L 2.596003 3.865423 L 2.596003 -1.135036 C 2.596003 -1.237086 2.680747 -1.320482 2.786402 -1.320482 L 3.166097 -1.320482 C 3.270651 -1.320482 3.356496 -1.237086 3.356496 -1.135036 L 3.356496 3.865423 L 3.736191 3.865423 L 3.736191 -1.135036 C 3.736191 -1.237086 3.820935 -1.320482 3.92659 -1.320482 L 4.115887 -1.320482 L 4.115887 -1.690277 Z M 2.044619 -1.690277 " transform="matrix(3.549305,0,0,3.559829,1.434429,8.153816)"/>
<path style="fill-rule:evenodd;fill:rgb(94.117647%,89.019608%,92.54902%);fill-opacity:1;stroke-width:1.585326;stroke-linecap:round;stroke-linejoin:round;stroke:rgb(90.196079%,0.784314%,70.588237%);stroke-opacity:1;stroke-miterlimit:4;" d="M 15.933259 8.511394 L 20.086015 8.511394 C 21.394812 8.511394 22.456667 9.579832 22.456667 10.896743 L 22.456667 20.115127 C 22.456667 21.432039 21.394812 22.500477 20.086015 22.500477 L 15.933259 22.500477 C 14.624462 22.500477 13.562607 21.432039 13.562607 20.115127 L 13.562607 10.896743 C 13.562607 9.579832 14.624462 8.511394 15.933259 8.511394 Z M 15.933259 8.511394 " transform="matrix(0.949106,0,0,0.943258,0.291709,0.655155)"/>
<path style="fill-rule:evenodd;fill:rgb(95.294118%,71.764708%,85.09804%);fill-opacity:1;stroke-width:1.585326;stroke-linecap:round;stroke-linejoin:round;stroke:rgb(90.196079%,0.784314%,70.588237%);stroke-opacity:1;stroke-miterlimit:4;" d="M 17.163858 11.501363 L 18.838954 11.501363 C 19.756758 11.501363 20.501702 12.342034 20.501702 13.377342 L 20.501702 18.624283 C 20.501702 19.659591 19.756758 20.500261 18.838954 20.500261 L 17.163858 20.500261 C 16.246053 20.500261 15.501109 19.659591 15.501109 18.624283 L 15.501109 13.377342 C 15.501109 12.342034 16.246053 11.501363 17.163858 11.501363 Z M 17.163858 11.501363 " transform="matrix(0.949106,0,0,0.943258,0.291709,0.655155)"/>
<path style="fill:none;stroke-width:1.585326;stroke-linecap:round;stroke-linejoin:round;stroke:rgb(61.56863%,22.745098%,60.784316%);stroke-opacity:1;stroke-miterlimit:4;" d="M 18.419151 14.184882 C 18.419151 14.41265 18.233943 14.594864 18.007579 14.599005 C 17.777099 14.599005 17.587776 14.416791 17.587776 14.193164 C 17.583661 13.965397 17.768868 13.779041 17.995232 13.7749 C 18.225712 13.770759 18.415035 13.948832 18.419151 14.1766 L 18.003463 14.184882 Z M 18.419151 14.184882 " transform="matrix(0.949106,0,0,0.943258,0.291709,0.655155)"/>
<path style="fill:none;stroke-width:1.585326;stroke-linecap:round;stroke-linejoin:round;stroke:rgb(90.196079%,0.784314%,70.588237%);stroke-opacity:1;stroke-miterlimit:4;" d="M 17.949959 16.781435 L 17.949959 18.930734 " transform="matrix(0.949106,0,0,0.943258,0.291709,0.655155)"/>
</g>
</svg>
