<?xml version="1.0" encoding="UTF-8"?>
<svg xmlns="http://www.w3.org/2000/svg" xmlns:xlink="http://www.w3.org/1999/xlink" width="24px" height="24px" viewBox="0 0 24 24" version="1.1">
<g id="surface1">
<path style="fill:none;stroke-width:0.961538;stroke-linecap:round;stroke-linejoin:miter;stroke:rgb(90.196079%,0.784314%,70.588237%);stroke-opacity:1;stroke-miterlimit:4;" d="M 7.663464 11.362701 L 7.663464 12.98029 " transform="matrix(1.56,0,0,1.56,-0.0760972,-0.718001)"/>
<path style="fill-rule:evenodd;fill:rgb(94.117647%,89.019608%,92.54902%);fill-opacity:1;stroke-width:0.961538;stroke-linecap:round;stroke-linejoin:round;stroke:rgb(90.196079%,0.784314%,70.588237%);stroke-opacity:1;stroke-miterlimit:4;" d="M 3.531853 2.851583 L 11.957835 2.851583 C 12.754109 2.851583 13.400143 3.497617 13.400143 4.293891 L 13.400143 9.742609 C 13.400143 10.538883 12.754109 11.184917 11.957835 11.184917 L 3.531853 11.184917 C 2.735579 11.184917 2.089546 10.538883 2.089546 9.742609 L 2.089546 4.293891 C 2.089546 3.497617 2.735579 2.851583 3.531853 2.851583 Z M 3.531853 2.851583 " transform="matrix(1.56,0,0,1.56,-0.0760972,-0.718001)"/>
<path style="fill-rule:evenodd;fill:rgb(61.56863%,22.745098%,60.784316%);fill-opacity:1;stroke-width:0.961538;stroke-linecap:round;stroke-linejoin:round;stroke:rgb(90.196079%,0.784314%,70.588237%);stroke-opacity:1;stroke-miterlimit:4;" d="M 2.928388 2.000221 L 12.553789 2.000221 C 13.350063 2.000221 13.996096 2.400862 13.996096 2.891647 C 13.996096 3.384937 13.350063 3.785578 12.553789 3.785578 L 2.928388 3.785578 C 2.132114 3.785578 1.48608 3.384937 1.48608 2.891647 C 1.48608 2.400862 2.132114 2.000221 2.928388 2.000221 Z M 2.928388 2.000221 " transform="matrix(1.56,0,0,1.56,-0.0760972,-0.718001)"/>
<path style="fill-rule:evenodd;fill:rgb(61.56863%,22.745098%,60.784316%);fill-opacity:1;stroke-width:0.961538;stroke-linecap:round;stroke-linejoin:round;stroke:rgb(90.196079%,0.784314%,70.588237%);stroke-opacity:1;stroke-miterlimit:4;" d="M 8.364586 13.258234 C 8.364586 13.621315 8.051585 13.914284 7.663464 13.914284 C 7.275343 13.914284 6.962342 13.621315 6.962342 13.258234 C 6.962342 12.895153 7.275343 12.602185 7.663464 12.602185 C 8.051585 12.602185 8.364586 12.895153 8.364586 13.258234 Z M 8.364586 13.258234 " transform="matrix(1.56,0,0,1.56,-0.0760972,-0.718001)"/>
<path style="fill-rule:nonzero;fill:rgb(90.196079%,0.784314%,70.588237%);fill-opacity:1;stroke-width:2.450516;stroke-linecap:butt;stroke-linejoin:miter;stroke:rgb(90.196079%,0.784314%,70.588237%);stroke-opacity:1;stroke-miterlimit:4;" d="M -1.071071 15.475754 C -2.79663 16.166495 -3.248714 14.087874 -3.248714 14.087874 C -3.248714 14.087874 -4.165616 16.345577 -5.681051 15.015259 C -7.196487 13.678546 -4.967905 12.610454 -4.967905 12.610454 C -4.967905 12.610454 -7.533958 12.412186 -6.642525 10.698123 C -5.751093 8.977664 -4.025534 10.595791 -4.025534 10.595791 C -4.025534 10.595791 -4.732312 8.267735 -2.631078 8.491586 C -0.523477 8.709042 -1.720544 10.826038 -1.720544 10.826038 C -1.720544 10.826038 0.457099 9.70678 0.820039 11.440031 C 1.176612 13.179677 -1.236623 12.987804 -1.236623 12.987804 C -1.236623 12.987804 0.654487 14.778616 -1.071071 15.475754 Z M -1.071071 15.475754 " transform="matrix(0.613479,0,0,0.610756,9.012548,3.637928)"/>
<path style="fill-rule:nonzero;fill:rgb(95.294118%,71.764708%,85.09804%);fill-opacity:1;stroke-width:2.450516;stroke-linecap:butt;stroke-linejoin:miter;stroke:rgb(95.294118%,71.764708%,85.09804%);stroke-opacity:1;stroke-miterlimit:4;" d="M -1.911565 13.966355 C -2.879406 14.356496 -3.134101 13.192468 -3.134101 13.192468 C -3.134101 13.192468 -3.649859 14.452432 -4.49672 13.704129 C -5.343581 12.962221 -4.101942 12.36102 -4.101942 12.36102 C -4.101942 12.36102 -5.534602 12.252292 -5.037947 11.286533 C -4.534924 10.327169 -3.57345 11.235366 -3.57345 11.235366 C -3.57345 11.235366 -3.968227 9.930632 -2.790263 10.052151 C -1.605931 10.180066 -2.280873 11.363282 -2.280873 11.363282 C -2.280873 11.363282 -1.058337 10.736497 -0.860948 11.708653 C -0.657192 12.680808 -2.007076 12.57208 -2.007076 12.57208 C -2.007076 12.57208 -0.950091 13.576214 -1.911565 13.966355 Z M -1.911565 13.966355 " transform="matrix(0.613479,0,0,0.610756,9.012548,3.637928)"/>
<path style=" stroke:none;fill-rule:nonzero;fill:rgb(61.56863%,22.745098%,60.784316%);fill-opacity:1;" d="M 7.90625 10.996094 C 7.90625 11.394531 7.582031 11.71875 7.179688 11.71875 C 6.777344 11.71875 6.449219 11.394531 6.449219 10.996094 C 6.449219 10.59375 6.777344 10.269531 7.179688 10.269531 C 7.582031 10.269531 7.90625 10.59375 7.90625 10.996094 Z M 7.90625 10.996094 "/>
<path style="fill:none;stroke-width:0.961538;stroke-linecap:round;stroke-linejoin:miter;stroke:rgb(90.196079%,0.784314%,70.588237%);stroke-opacity:1;stroke-miterlimit:4;" d="M 8.041569 5.570934 L 12.208236 5.570934 " transform="matrix(1.56,0,0,1.56,-0.0760972,-0.718001)"/>
<path style="fill:none;stroke-width:0.961538;stroke-linecap:round;stroke-linejoin:miter;stroke:rgb(90.196079%,0.784314%,70.588237%);stroke-opacity:1;stroke-miterlimit:4;" d="M 8.041569 6.762841 L 12.208236 6.762841 " transform="matrix(1.56,0,0,1.56,-0.0760972,-0.718001)"/>
<path style="fill:none;stroke-width:0.961538;stroke-linecap:round;stroke-linejoin:miter;stroke:rgb(90.196079%,0.784314%,70.588237%);stroke-opacity:1;stroke-miterlimit:4;" d="M 8.041569 7.952245 L 12.208236 7.952245 " transform="matrix(1.56,0,0,1.56,-0.0760972,-0.718001)"/>
<path style="fill:none;stroke-width:0.961538;stroke-linecap:round;stroke-linejoin:miter;stroke:rgb(90.196079%,0.784314%,70.588237%);stroke-opacity:1;stroke-miterlimit:4;" d="M 8.041569 9.141648 L 12.208236 9.141648 " transform="matrix(1.56,0,0,1.56,-0.0760972,-0.718001)"/>
<path style="fill-rule:nonzero;fill:rgb(95.294118%,71.764708%,85.09804%);fill-opacity:1;stroke-width:0.5;stroke-linecap:butt;stroke-linejoin:round;stroke:rgb(61.56863%,22.745098%,60.784316%);stroke-opacity:1;stroke-miterlimit:4;" d="M 8.273438 7.382812 L 8.273438 14.734375 L 14.677083 14.734375 Z M 8.877604 9.664062 L 12.614583 13.721354 L 8.864583 13.721354 Z M 8.877604 9.664062 " transform="matrix(1.5,0,0,1.5,0,0)"/>
</g>
</svg>
