<?xml version="1.0" encoding="UTF-8"?>
<svg xmlns="http://www.w3.org/2000/svg" xmlns:xlink="http://www.w3.org/1999/xlink" width="24px" height="24px" viewBox="0 0 24 24" version="1.1">
<g id="surface1">
<path style="fill-rule:evenodd;fill:rgb(95.294118%,71.764708%,85.09804%);fill-opacity:1;stroke-width:1.620209;stroke-linecap:round;stroke-linejoin:round;stroke:rgb(90.196079%,0.784314%,70.588237%);stroke-opacity:1;stroke-miterlimit:4;" d="M 3.591782 -3.98923 L 16.684279 -3.98923 C 18.026018 -3.98923 19.114598 -2.900654 19.114598 -1.558921 L 19.114598 12.529277 C 19.114598 13.87101 18.026018 14.959586 16.684279 14.959586 L 3.591782 14.959586 C 2.250044 14.959586 1.161464 13.87101 1.161464 12.529277 L 1.161464 -1.558921 C 1.161464 -2.900654 2.250044 -3.98923 3.591782 -3.98923 Z M 3.591782 -3.98923 " transform="matrix(0.925805,0,0,0.925808,1.182524,7.775293)"/>
<path style="fill-rule:evenodd;fill:rgb(94.117647%,89.019608%,92.54902%);fill-opacity:1;stroke-width:0.810105;stroke-linecap:round;stroke-linejoin:round;stroke:rgb(61.56863%,22.745098%,60.784316%);stroke-opacity:1;stroke-miterlimit:4;" d="M 6.241504 -1.364834 L 14.005022 -1.364834 C 15.300348 -1.364834 16.350954 -0.246723 16.350954 1.137203 L 16.350954 9.698136 C 16.350954 11.077842 15.300348 12.200173 14.005022 12.200173 L 6.241504 12.200173 C 4.946178 12.200173 3.895572 11.077842 3.895572 9.698136 L 3.895572 1.137203 C 3.895572 -0.246723 4.946178 -1.364834 6.241504 -1.364834 Z M 6.241504 -1.364834 " transform="matrix(0.925805,0,0,0.925808,1.182524,7.775293)"/>
<path style="fill-rule:evenodd;fill:rgb(94.117647%,89.019608%,92.54902%);fill-opacity:1;stroke-width:1.620209;stroke-linecap:round;stroke-linejoin:round;stroke:rgb(90.196079%,0.784314%,70.588237%);stroke-opacity:1;stroke-miterlimit:4;" d="M 10.735062 0.0570656 L 20.587134 0.0570656 C 21.481627 0.0570656 22.207347 0.782783 22.207347 1.677272 L 22.207347 13.33938 C 22.207347 14.233869 21.481627 14.959586 20.587134 14.959586 L 10.735062 14.959586 C 9.84057 14.959586 9.11485 14.233869 9.11485 13.33938 L 9.11485 1.677272 C 9.11485 0.782783 9.84057 0.0570656 10.735062 0.0570656 Z M 10.735062 0.0570656 " transform="matrix(0.925805,0,0,0.925808,1.182524,7.775293)"/>
<path style="fill-rule:evenodd;fill:rgb(95.294118%,71.764708%,85.09804%);fill-opacity:1;stroke-width:1.620209;stroke-linecap:round;stroke-linejoin:round;stroke:rgb(90.196079%,0.784314%,70.588237%);stroke-opacity:1;stroke-miterlimit:4;" d="M 6.895496 -5.039833 L 12.346836 -5.039833 C 12.794082 -5.039833 13.156942 -4.858403 13.156942 -4.639 C 13.156942 -4.419598 12.794082 -4.238168 12.346836 -4.238168 L 6.895496 -4.238168 C 6.44825 -4.238168 6.08539 -4.419598 6.08539 -4.639 C 6.08539 -4.858403 6.44825 -5.039833 6.895496 -5.039833 Z M 6.895496 -5.039833 " transform="matrix(0.925805,0,0,0.925808,1.182524,7.775293)"/>
<path style="fill-rule:evenodd;fill:rgb(94.117647%,89.019608%,92.54902%);fill-opacity:1;stroke-width:0.810105;stroke-linecap:round;stroke-linejoin:round;stroke:rgb(90.196079%,0.784314%,70.588237%);stroke-opacity:1;stroke-miterlimit:4;" d="M 11.097922 -5.094683 C 11.097922 -4.46179 10.570509 -3.947037 9.924956 -3.947037 C 9.275183 -3.947037 8.74777 -4.46179 8.74777 -5.094683 C 8.74777 -5.727576 9.275183 -6.23811 9.924956 -6.23811 C 10.570509 -6.23811 11.097922 -5.727576 11.097922 -5.094683 Z M 11.097922 -5.094683 " transform="matrix(0.925805,0,0,0.925808,1.182524,7.775293)"/>
<path style="fill-rule:nonzero;fill:rgb(61.56863%,22.745098%,60.784316%);fill-opacity:1;stroke-width:0.405052;stroke-linecap:butt;stroke-linejoin:miter;stroke:rgb(61.56863%,22.745098%,60.784316%);stroke-opacity:1;stroke-miterlimit:4;" d="M 17.021823 2.639269 C 17.064016 2.179367 17.388903 1.846043 17.798175 1.846043 C 18.068211 1.846043 18.317149 1.989499 18.456386 2.225779 C 18.595623 1.989499 18.836124 1.846043 19.10194 1.846043 C 19.506993 1.846043 19.831879 2.179367 19.874072 2.639269 C 19.878292 2.656146 19.890949 2.765848 19.852976 2.938838 C 19.793905 3.191996 19.654668 3.419837 19.456361 3.601266 L 18.456386 4.504194 L 17.443754 3.601266 C 17.245447 3.419837 17.10621 3.191996 17.047139 2.938838 C 17.004946 2.765848 17.021823 2.660365 17.021823 2.639269 Z M 17.156841 2.913523 C 17.207473 3.141364 17.334052 3.352328 17.515482 3.516881 L 18.456386 4.356519 L 19.380414 3.516881 C 19.566063 3.352328 19.688423 3.141364 19.743274 2.913523 C 19.781248 2.74897 19.76859 2.656146 19.76859 2.656146 L 19.76437 2.651927 C 19.730616 2.246875 19.452142 1.955745 19.10194 1.955745 C 18.844562 1.955745 18.61672 2.111858 18.507018 2.369235 L 18.456386 2.487375 L 18.405755 2.369235 C 18.300272 2.116077 18.059772 1.955745 17.798175 1.955745 C 17.447973 1.955745 17.169499 2.246875 17.131525 2.656146 C 17.131525 2.656146 17.114648 2.74897 17.156841 2.913523 Z M 17.156841 2.913523 " transform="matrix(0.925805,0,0,0.925808,1.182524,7.775293)"/>
<path style="fill:none;stroke-width:1.620209;stroke-linecap:round;stroke-linejoin:miter;stroke:rgb(90.196079%,0.784314%,70.588237%);stroke-opacity:1;stroke-miterlimit:4;" d="M 11.296229 6.044233 L 20.089257 6.044233 " transform="matrix(0.925805,0,0,0.925808,1.182524,7.775293)"/>
<path style="fill:none;stroke-width:1.620209;stroke-linecap:round;stroke-linejoin:miter;stroke:rgb(90.196079%,0.784314%,70.588237%);stroke-opacity:1;stroke-miterlimit:4;" d="M 11.456563 7.985105 L 15.684304 7.985105 " transform="matrix(0.925805,0,0,0.925808,1.182524,7.775293)"/>
<path style="fill:none;stroke-width:1.620209;stroke-linecap:round;stroke-linejoin:miter;stroke:rgb(90.196079%,0.784314%,70.588237%);stroke-opacity:1;stroke-miterlimit:4;" d="M 11.241378 10.014582 L 20.207397 10.014582 " transform="matrix(0.925805,0,0,0.925808,1.182524,7.775293)"/>
<path style="fill:none;stroke-width:1.620209;stroke-linecap:round;stroke-linejoin:miter;stroke:rgb(90.196079%,0.784314%,70.588237%);stroke-opacity:1;stroke-miterlimit:4;" d="M 15.684304 11.984989 L 19.912046 11.984989 " transform="matrix(0.925805,0,0,0.925808,1.182524,7.775293)"/>
</g>
</svg>
