<?xml version="1.0" encoding="UTF-8"?>
<svg xmlns="http://www.w3.org/2000/svg" xmlns:xlink="http://www.w3.org/1999/xlink" width="24px" height="24px" viewBox="0 0 24 24" version="1.1">
<g id="surface1">
<path style="fill-rule:nonzero;fill:rgb(94.117647%,89.019608%,92.54902%);fill-opacity:1;stroke-width:1;stroke-linecap:round;stroke-linejoin:round;stroke:rgb(90.196079%,0.784314%,70.588237%);stroke-opacity:1;stroke-miterlimit:4;" d="M 3.460938 1.494792 L 12.460938 1.494792 C 13.013021 1.494792 13.460938 1.942708 13.460938 2.494792 L 13.460938 13.494792 C 13.460938 14.046875 13.013021 14.494792 12.460938 14.494792 L 3.460938 14.494792 C 2.908854 14.494792 2.460938 14.046875 2.460938 13.494792 L 2.460938 2.494792 C 2.460938 1.942708 2.908854 1.494792 3.460938 1.494792 Z M 3.460938 1.494792 " transform="matrix(1.5,0,0,1.5,0,0)"/>
<path style=" stroke:none;fill-rule:nonzero;fill:rgb(90.196079%,0.784314%,70.588237%);fill-opacity:1;" d="M 6.914062 12.054688 L 17.101562 12.054688 C 17.515625 12.054688 17.851562 12.390625 17.851562 12.804688 C 17.851562 13.21875 17.515625 13.554688 17.101562 13.554688 L 6.914062 13.554688 C 6.5 13.554688 6.164062 13.21875 6.164062 12.804688 C 6.164062 12.390625 6.5 12.054688 6.914062 12.054688 Z M 6.914062 12.054688 "/>
<path style=" stroke:none;fill-rule:nonzero;fill:rgb(90.196079%,0.784314%,70.588237%);fill-opacity:1;" d="M 6.914062 9.054688 L 17.101562 9.054688 C 17.515625 9.054688 17.851562 9.390625 17.851562 9.804688 C 17.851562 10.21875 17.515625 10.554688 17.101562 10.554688 L 6.914062 10.554688 C 6.5 10.554688 6.164062 10.21875 6.164062 9.804688 C 6.164062 9.390625 6.5 9.054688 6.914062 9.054688 Z M 6.914062 9.054688 "/>
<path style=" stroke:none;fill-rule:nonzero;fill:rgb(90.196079%,0.784314%,70.588237%);fill-opacity:1;" d="M 6.914062 15.054688 L 17.101562 15.054688 C 17.515625 15.054688 17.851562 15.390625 17.851562 15.804688 C 17.851562 16.21875 17.515625 16.554688 17.101562 16.554688 L 6.914062 16.554688 C 6.5 16.554688 6.164062 16.21875 6.164062 15.804688 C 6.164062 15.390625 6.5 15.054688 6.914062 15.054688 Z M 6.914062 15.054688 "/>
<path style="fill-rule:nonzero;fill:rgb(61.56863%,22.745098%,60.784316%);fill-opacity:1;stroke-width:0.25;stroke-linecap:butt;stroke-linejoin:miter;stroke:rgb(61.56863%,22.745098%,60.784316%);stroke-opacity:1;stroke-miterlimit:4;" d="M 9.1875 3.669271 C 9.216146 3.333333 9.460938 3.091146 9.763021 3.091146 C 9.966146 3.091146 10.151042 3.197917 10.255208 3.367188 C 10.359375 3.195312 10.536458 3.091146 10.734375 3.091146 C 11.039062 3.091146 11.28125 3.333333 11.3125 3.669271 C 11.315104 3.684896 11.322917 3.763021 11.294271 3.890625 C 11.25 4.075521 11.145833 4.242188 10.997396 4.375 L 10.255208 5.036458 L 9.5 4.375 C 9.351562 4.242188 9.25 4.075521 9.205729 3.890625 C 9.174479 3.763021 9.184896 3.684896 9.1875 3.669271 Z M 9.283854 3.872396 C 9.325521 4.039062 9.419271 4.192708 9.554688 4.315104 L 10.255208 4.927083 L 10.942708 4.315104 C 11.080729 4.192708 11.174479 4.039062 11.213542 3.872396 C 11.242188 3.752604 11.231771 3.682292 11.231771 3.682292 L 11.229167 3.679688 C 11.203125 3.385417 10.994792 3.171875 10.734375 3.171875 C 10.541667 3.171875 10.372396 3.286458 10.291667 3.473958 L 10.255208 3.559896 L 10.216146 3.473958 C 10.138021 3.289062 9.960938 3.171875 9.763021 3.171875 C 9.502604 3.171875 9.294271 3.385417 9.268229 3.682292 C 9.268229 3.682292 9.255208 3.752604 9.283854 3.872396 Z M 9.283854 3.872396 " transform="matrix(1.5,0,0,1.5,0,0)"/>
<path style=" stroke:none;fill-rule:nonzero;fill:rgb(90.196079%,0.784314%,70.588237%);fill-opacity:1;" d="M 6.914062 18.054688 L 17.101562 18.054688 C 17.515625 18.054688 17.851562 18.390625 17.851562 18.804688 C 17.851562 19.21875 17.515625 19.554688 17.101562 19.554688 L 6.914062 19.554688 C 6.5 19.554688 6.164062 19.21875 6.164062 18.804688 C 6.164062 18.390625 6.5 18.054688 6.914062 18.054688 Z M 6.914062 18.054688 "/>
<path style="fill-rule:nonzero;fill:rgb(95.294118%,71.764708%,85.09804%);fill-opacity:1;stroke-width:1;stroke-linecap:round;stroke-linejoin:round;stroke:rgb(61.56863%,22.745098%,60.784316%);stroke-opacity:1;stroke-miterlimit:4;" d="M 5.057292 1.518229 C 3.622396 1.518229 2.476562 2.132812 2.471354 4.994792 L 3.908854 4.994792 C 3.908854 3.546875 4.195312 2.966146 5.057292 2.966146 C 5.921875 2.966146 6.208333 3.546875 6.208333 4.127604 L 7.645833 4.127604 C 7.645833 2.098958 6.494792 1.518229 5.057292 1.518229 Z M 5.057292 1.518229 " transform="matrix(1.5,0,0,1.5,0,0)"/>
<path style="fill-rule:nonzero;fill:rgb(95.294118%,71.764708%,85.09804%);fill-opacity:1;stroke-width:1;stroke-linecap:round;stroke-linejoin:round;stroke:rgb(61.56863%,22.745098%,60.784316%);stroke-opacity:1;stroke-miterlimit:4;" d="M 2.729167 5.015625 L 7.388021 5.015625 C 8.005208 5.015625 8.507812 5.518229 8.507812 6.135417 L 8.507812 8.513021 C 8.507812 9.130208 8.005208 9.630208 7.388021 9.630208 L 2.729167 9.630208 C 2.111979 9.630208 1.609375 9.130208 1.609375 8.513021 L 1.609375 6.135417 C 1.609375 5.518229 2.111979 5.015625 2.729167 5.015625 Z M 2.729167 5.015625 " transform="matrix(1.5,0,0,1.5,0,0)"/>
<path style=" stroke:none;fill-rule:nonzero;fill:rgb(94.117647%,89.019608%,92.54902%);fill-opacity:1;" d="M 6.277344 8.730469 C 6.046875 8.738281 5.808594 8.824219 5.582031 9.015625 C 5.171875 9.367188 4.933594 10.121094 5.007812 10.644531 C 5.136719 11.503906 5.996094 12.300781 7.589844 13.507812 C 9.1875 12.300781 10.046875 11.503906 10.175781 10.644531 C 10.25 10.121094 10.011719 9.367188 9.597656 9.015625 C 8.695312 8.25 7.589844 9.203125 7.589844 9.71875 C 7.589844 9.332031 6.96875 8.699219 6.277344 8.730469 Z M 6.277344 8.730469 "/>
<path style=" stroke:none;fill-rule:nonzero;fill:rgb(90.196079%,0.784314%,70.588237%);fill-opacity:1;" d="M 6.582031 9.40625 C 6.402344 9.417969 6.222656 9.480469 6.046875 9.628906 C 5.730469 9.898438 5.546875 10.476562 5.605469 10.875 C 5.703125 11.535156 6.363281 12.148438 7.585938 13.074219 C 8.8125 12.148438 9.472656 11.535156 9.570312 10.875 C 9.628906 10.476562 9.445312 9.898438 9.128906 9.628906 C 8.433594 9.039062 7.585938 9.769531 7.585938 10.167969 C 7.585938 9.871094 7.113281 9.382812 6.582031 9.40625 Z M 6.582031 9.40625 "/>
</g>
</svg>
