<?xml version="1.0" encoding="UTF-8"?>
<svg xmlns="http://www.w3.org/2000/svg" xmlns:xlink="http://www.w3.org/1999/xlink" width="24px" height="24px" viewBox="0 0 24 24" version="1.1">
<defs>
<filter id="alpha" filterUnits="objectBoundingBox" x="0%" y="0%" width="100%" height="100%">
  <feColorMatrix type="matrix" in="SourceGraphic" values="0 0 0 0 1 0 0 0 0 1 0 0 0 0 1 0 0 0 1 0"/>
</filter>
<mask id="mask0">
  <g filter="url(#alpha)">
<rect x="0" y="0" width="24" height="24" style="fill:rgb(0%,0%,0%);fill-opacity:0.35;stroke:none;"/>
  </g>
</mask>
<clipPath id="clip1">
  <rect x="0" y="0" width="24" height="24"/>
</clipPath>
<g id="surface5" clip-path="url(#clip1)">
<path style=" stroke:none;fill-rule:nonzero;fill:rgb(33.333334%,34.117648%,32.549021%);fill-opacity:1;" d="M 10.5 4.585938 L 10.5 13.5 L 22.289062 13.5 C 21.292969 16.992188 16.988281 19.5 12 19.5 C 6.199219 19.5 1.5 16.140625 1.5 12 C 1.503906 8.273438 5.339844 5.117188 10.5 4.585938 Z M 10.5 4.585938 "/>
</g>
</defs>
<g id="surface1">
<path style=" stroke:none;fill-rule:nonzero;fill:rgb(33.333334%,34.117648%,32.549021%);fill-opacity:1;" d="M 12 3 C 5.371094 3 0 7.03125 0 12 C 0 16.96875 5.371094 21 12 21 C 18.628906 21 24 16.96875 24 12 L 12 12 Z M 10.5 4.585938 L 10.5 13.5 L 22.289062 13.5 C 21.292969 16.992188 16.988281 19.5 12 19.5 C 6.199219 19.5 1.5 16.140625 1.5 12 C 1.503906 8.273438 5.339844 5.117188 10.5 4.585938 Z M 10.5 4.585938 "/>
<use xlink:href="#surface5" mask="url(#mask0)"/>
</g>
</svg>
