<?xml version="1.0" encoding="UTF-8"?>
<svg xmlns="http://www.w3.org/2000/svg" xmlns:xlink="http://www.w3.org/1999/xlink" width="24px" height="24px" viewBox="0 0 24 24" version="1.1">
<g id="surface1">
<path style="fill-rule:nonzero;fill:rgb(94.117647%,89.019608%,92.54902%);fill-opacity:1;stroke-width:1;stroke-linecap:butt;stroke-linejoin:miter;stroke:rgb(90.196079%,0.784314%,70.588237%);stroke-opacity:1;stroke-miterlimit:4;" d="M 7.984375 10.693114 L 6.966146 11.000406 C 7.057292 11.185302 7.091146 12.568114 6.893229 12.755614 C 6.755208 12.885822 6.40625 12.943114 6.125 12.966552 C 5.294271 13.03426 4.484375 13.393635 4.484375 13.737385 C 4.484375 14.351968 6.453125 14.672281 7.984375 14.672281 C 9.505208 14.672281 11.484375 14.351968 11.484375 13.737385 C 11.484375 13.37801 10.671875 13.03426 9.838542 12.966552 C 9.559896 12.943114 9.197917 12.893635 9.072917 12.755614 C 8.872396 12.539468 8.914062 11.161864 9 11.000406 Z M 7.984375 10.693114 " transform="matrix(1.5,0,0,1.5,0,-0.274046)"/>
<path style="fill-rule:nonzero;fill:rgb(95.294118%,71.764708%,85.09804%);fill-opacity:1;stroke-width:1;stroke-linecap:butt;stroke-linejoin:miter;stroke:rgb(90.196079%,0.784314%,70.588237%);stroke-opacity:1;stroke-miterlimit:4;" d="M 3.377604 1.693114 L 12.622396 1.693114 C 13.645833 1.693114 14.473958 2.523843 14.473958 3.547281 L 14.473958 8.87801 C 14.473958 9.901447 13.645833 10.732177 12.622396 10.732177 L 3.377604 10.732177 C 2.354167 10.732177 1.526042 9.901447 1.526042 8.87801 L 1.526042 3.547281 C 1.526042 2.523843 2.354167 1.693114 3.377604 1.693114 Z M 3.377604 1.693114 " transform="matrix(1.5,0,0,1.5,0,-0.274046)"/>
<path style="fill-rule:evenodd;fill:rgb(94.117647%,89.019608%,92.54902%);fill-opacity:1;stroke-width:2;stroke-linecap:round;stroke-linejoin:round;stroke:rgb(94.117647%,89.019608%,92.54902%);stroke-opacity:1;stroke-miterlimit:4;" d="M 7.544626 4.924592 L 13.570667 4.924592 C 14.122751 4.924592 14.570667 5.372508 14.570667 5.924592 L 14.570667 13.390738 C 14.570667 13.942821 14.122751 14.390738 13.570667 14.390738 L 7.544626 14.390738 C 6.992542 14.390738 6.544626 13.942821 6.544626 13.390738 L 6.544626 5.924592 C 6.544626 5.372508 6.992542 4.924592 7.544626 4.924592 Z M 7.544626 4.924592 " transform="matrix(1.5,0,0,1.5,-0.856001,-0.586106)"/>
<path style="fill-rule:evenodd;fill:rgb(94.117647%,89.019608%,92.54902%);fill-opacity:1;stroke-width:1;stroke-linecap:round;stroke-linejoin:round;stroke:rgb(90.196079%,0.784314%,70.588237%);stroke-opacity:1;stroke-miterlimit:4;" d="M 7.544626 4.924592 L 13.570667 4.924592 C 14.122751 4.924592 14.570667 5.372508 14.570667 5.924592 L 14.570667 13.390738 C 14.570667 13.942821 14.122751 14.390738 13.570667 14.390738 L 7.544626 14.390738 C 6.992542 14.390738 6.544626 13.942821 6.544626 13.390738 L 6.544626 5.924592 C 6.544626 5.372508 6.992542 4.924592 7.544626 4.924592 Z M 7.544626 4.924592 " transform="matrix(1.5,0,0,1.5,-0.856001,-0.586106)"/>
<path style="fill-rule:nonzero;fill:rgb(61.56863%,22.745098%,60.784316%);fill-opacity:1;stroke-width:0.25;stroke-linecap:butt;stroke-linejoin:miter;stroke:rgb(61.56863%,22.745098%,60.784316%);stroke-opacity:1;stroke-miterlimit:4;" d="M 7.719105 6.588654 C 7.745146 6.299592 7.948271 6.091258 8.206084 6.091258 C 8.375355 6.091258 8.531605 6.182404 8.620146 6.330842 C 8.706084 6.182404 8.857126 6.091258 9.023792 6.091258 C 9.279001 6.091258 9.48473 6.299592 9.510771 6.588654 C 9.513376 6.601675 9.521188 6.669383 9.495146 6.778758 C 9.458688 6.935008 9.372751 7.078238 9.247751 7.192821 L 8.620146 7.757925 L 7.982126 7.192821 C 7.857126 7.078238 7.771188 6.935008 7.73473 6.778758 C 7.708688 6.669383 7.716501 6.601675 7.719105 6.588654 Z M 7.799834 6.760529 C 7.836292 6.906363 7.914417 7.036571 8.029001 7.140738 L 8.620146 7.666779 L 9.200876 7.140738 C 9.315459 7.036571 9.393584 6.906363 9.427438 6.760529 C 9.45348 6.658967 9.443063 6.599071 9.443063 6.599071 L 9.443063 6.596467 C 9.419626 6.343863 9.245146 6.161571 9.023792 6.161571 C 8.862334 6.161571 8.719105 6.260529 8.651396 6.419383 L 8.620146 6.494904 L 8.588896 6.419383 C 8.521188 6.263133 8.370146 6.161571 8.206084 6.161571 C 7.98473 6.161571 7.810251 6.343863 7.786813 6.599071 C 7.786813 6.599071 7.776396 6.658967 7.799834 6.763133 Z M 7.799834 6.760529 " transform="matrix(1.5,0,0,1.5,-0.856001,-0.586106)"/>
<path style="fill:none;stroke-width:1;stroke-linecap:round;stroke-linejoin:miter;stroke:rgb(90.196079%,0.784314%,70.588237%);stroke-opacity:1;stroke-miterlimit:4;" d="M 8.320667 8.544383 L 12.997751 8.544383 " transform="matrix(1.5,0,0,1.5,-0.856001,-0.586106)"/>
<path style="fill:none;stroke-width:1;stroke-linecap:round;stroke-linejoin:miter;stroke:rgb(90.196079%,0.784314%,70.588237%);stroke-opacity:1;stroke-miterlimit:4;" d="M 8.000355 10.000113 L 13.346709 10.000113 " transform="matrix(1.5,0,0,1.5,-0.856001,-0.586106)"/>
<path style="fill:none;stroke-width:1;stroke-linecap:round;stroke-linejoin:miter;stroke:rgb(90.196079%,0.784314%,70.588237%);stroke-opacity:1;stroke-miterlimit:4;" d="M 8.000355 11.46105 L 13.346709 11.46105 " transform="matrix(1.5,0,0,1.5,-0.856001,-0.586106)"/>
</g>
</svg>
