<?xml version="1.0" encoding="UTF-8"?>
<svg xmlns="http://www.w3.org/2000/svg" xmlns:xlink="http://www.w3.org/1999/xlink" width="24px" height="24px" viewBox="0 0 24 24" version="1.1">
<defs>
<clipPath id="clip1">
  <path d="M 2 8 L 22 8 L 22 19 L 2 19 Z M 2 8 "/>
</clipPath>
<clipPath id="clip2">
  <path d="M 4.824219 19.164062 L 4.824219 13.996094 L 19.105469 13.996094 L 19.105469 19.164062 L 23.589844 19.246094 L 23.589844 7.394531 L 0.339844 7.394531 L 0.339844 19.246094 Z M 4.824219 19.164062 "/>
</clipPath>
<clipPath id="clip3">
  <path d="M 0 7 L 24 7 L 24 20 L 0 20 Z M 0 7 "/>
</clipPath>
<clipPath id="clip4">
  <path d="M 4.824219 19.164062 L 4.824219 13.996094 L 19.105469 13.996094 L 19.105469 19.164062 L 23.589844 19.246094 L 23.589844 7.394531 L 0.339844 7.394531 L 0.339844 19.246094 Z M 4.824219 19.164062 "/>
</clipPath>
<clipPath id="clip5">
  <path d="M 5 13 L 19 13 L 19 22 L 5 22 Z M 5 13 "/>
</clipPath>
<clipPath id="clip6">
  <path d="M 4.449219 13.535156 L 19.503906 13.535156 L 19.503906 22.226562 L 4.449219 22.769531 Z M 4.449219 13.535156 "/>
</clipPath>
<clipPath id="clip7">
  <path d="M 4 13 L 20 13 L 20 23 L 4 23 Z M 4 13 "/>
</clipPath>
<clipPath id="clip8">
  <path d="M 4.449219 13.535156 L 19.503906 13.535156 L 19.503906 22.226562 L 4.449219 22.769531 Z M 4.449219 13.535156 "/>
</clipPath>
<clipPath id="clip9">
  <path d="M 5 2 L 19 2 L 19 8 L 5 8 Z M 5 2 "/>
</clipPath>
<clipPath id="clip10">
  <path d="M 4.117188 7.953125 L 19.796875 7.953125 L 19.796875 1.039062 C 19.796875 1.039062 5.09375 -0.34375 4.117188 1.039062 C 3.136719 2.421875 3.136719 2.421875 3.136719 2.421875 Z M 4.117188 7.953125 "/>
</clipPath>
<clipPath id="clip11">
  <path d="M 3 0 L 20 0 L 20 8 L 3 8 Z M 3 0 "/>
</clipPath>
<clipPath id="clip12">
  <path d="M 4.117188 7.953125 L 19.796875 7.953125 L 19.796875 1.039062 C 19.796875 1.039062 5.09375 -0.34375 4.117188 1.039062 C 3.136719 2.421875 3.136719 2.421875 3.136719 2.421875 Z M 4.117188 7.953125 "/>
</clipPath>
</defs>
<g id="surface1">
<path style="fill-rule:nonzero;fill:rgb(11.372549%,11.372549%,11.372549%);fill-opacity:1;stroke-width:0.444601;stroke-linecap:butt;stroke-linejoin:miter;stroke:rgb(90.196079%,0.784314%,70.588237%);stroke-opacity:1;stroke-miterlimit:4;" d="M 1.140565 -1.128779 L 5.195163 -1.128779 C 5.501018 -1.128779 5.750318 -0.895323 5.750318 -0.606116 C 5.750318 -0.316908 5.501018 -0.0834521 5.195163 -0.0834521 L 1.140565 -0.0834521 C 0.833556 -0.0834521 0.58541 -0.316908 0.58541 -0.606116 C 0.58541 -0.895323 0.833556 -1.128779 1.140565 -1.128779 Z M 1.140565 -1.128779 " transform="matrix(3.384468,0,0,-3.363182,1.233542,8.609961)"/>
<g clip-path="url(#clip1)" clip-rule="nonzero">
<g clip-path="url(#clip2)" clip-rule="nonzero">
<path style=" stroke:none;fill-rule:nonzero;fill:rgb(95.294118%,71.764708%,85.09804%);fill-opacity:1;" d="M 4.445312 8.34375 L 19.488281 8.34375 C 20.683594 8.34375 21.652344 9.347656 21.652344 10.585938 L 21.652344 16.5 C 21.652344 17.738281 20.683594 18.746094 19.488281 18.746094 L 4.445312 18.746094 C 3.246094 18.746094 2.277344 17.738281 2.277344 16.5 L 2.277344 10.585938 C 2.277344 9.347656 3.246094 8.34375 4.445312 8.34375 Z M 4.445312 8.34375 "/>
</g>
</g>
<g clip-path="url(#clip3)" clip-rule="nonzero">
<g clip-path="url(#clip4)" clip-rule="nonzero">
<path style="fill:none;stroke-width:0.48494;stroke-linecap:butt;stroke-linejoin:miter;stroke:rgb(90.196079%,0.784314%,70.588237%);stroke-opacity:1;stroke-miterlimit:4;" d="M 0.801335 -0.225853 L 5.595999 -0.225853 C 5.976983 -0.225853 6.285754 0.103348 6.285754 0.509406 L 6.285754 2.448746 C 6.285754 2.854804 5.976983 3.185286 5.595999 3.185286 L 0.801335 3.185286 C 0.419107 3.185286 0.110336 2.854804 0.110336 2.448746 L 0.110336 0.509406 C 0.110336 0.103348 0.419107 -0.225853 0.801335 -0.225853 Z M 0.801335 -0.225853 " transform="matrix(3.137439,0,0,3.049522,1.931172,9.032494)"/>
</g>
</g>
<g clip-path="url(#clip5)" clip-rule="nonzero">
<g clip-path="url(#clip6)" clip-rule="nonzero">
<path style=" stroke:none;fill-rule:nonzero;fill:rgb(94.117647%,89.019608%,92.54902%);fill-opacity:0.996078;" d="M 6.25 12 L 17.695312 12 C 18.363281 12 18.90625 12.582031 18.90625 13.296875 L 18.90625 20.429688 C 18.90625 21.148438 18.363281 21.730469 17.695312 21.730469 L 6.25 21.730469 C 5.582031 21.730469 5.039062 21.148438 5.039062 20.429688 L 5.039062 13.296875 C 5.039062 12.582031 5.582031 12 6.25 12 Z M 6.25 12 "/>
</g>
</g>
<g clip-path="url(#clip7)" clip-rule="nonzero">
<g clip-path="url(#clip8)" clip-rule="nonzero">
<path style="fill:none;stroke-width:0.450613;stroke-linecap:butt;stroke-linejoin:miter;stroke:rgb(90.196079%,0.784314%,70.588237%);stroke-opacity:1;stroke-miterlimit:4;" d="M 1.387792 1.054861 L 4.953352 1.054861 C 5.161445 1.054861 5.330596 1.223466 5.330596 1.430545 L 5.330596 3.49681 C 5.330596 3.70502 5.161445 3.873626 4.953352 3.873626 L 1.387792 3.873626 C 1.179699 3.873626 1.010548 3.70502 1.010548 3.49681 L 1.010548 1.430545 C 1.010548 1.223466 1.179699 1.054861 1.387792 1.054861 Z M 1.387792 1.054861 " transform="matrix(3.209962,0,0,3.452033,1.795242,8.358585)"/>
</g>
</g>
<g clip-path="url(#clip9)" clip-rule="nonzero">
<g clip-path="url(#clip10)" clip-rule="nonzero">
<path style=" stroke:none;fill-rule:nonzero;fill:rgb(94.117647%,89.019608%,92.54902%);fill-opacity:0.996078;" d="M 6.46875 2.421875 L 17.441406 2.421875 C 18.199219 2.421875 18.816406 3.003906 18.816406 3.722656 L 18.816406 8.722656 C 18.816406 9.441406 18.199219 10.023438 17.441406 10.023438 L 6.46875 10.023438 C 5.710938 10.023438 5.09375 9.441406 5.09375 8.722656 L 5.09375 3.722656 C 5.09375 3.003906 5.710938 2.421875 6.46875 2.421875 Z M 6.46875 2.421875 "/>
</g>
</g>
<g clip-path="url(#clip11)" clip-rule="nonzero">
<g clip-path="url(#clip12)" clip-rule="nonzero">
<path style="fill:none;stroke-width:0.404225;stroke-linecap:butt;stroke-linejoin:miter;stroke:rgb(90.196079%,0.784314%,70.588237%);stroke-opacity:1;stroke-miterlimit:4;" d="M 1.421513 -2.118679 L 4.922325 -2.118679 C 5.164104 -2.118679 5.361017 -1.986198 5.361017 -1.822598 L 5.361017 -0.684508 C 5.361017 -0.520907 5.164104 -0.388426 4.922325 -0.388426 L 1.421513 -0.388426 C 1.179734 -0.388426 0.982821 -0.520907 0.982821 -0.684508 L 0.982821 -1.822598 C 0.982821 -1.986198 1.179734 -2.118679 1.421513 -2.118679 Z M 1.421513 -2.118679 " transform="matrix(3.134318,0,0,4.393326,2.013276,11.729921)"/>
</g>
</g>
<path style="fill-rule:evenodd;fill:rgb(61.56863%,22.745098%,60.784316%);fill-opacity:1;stroke-width:0.222301;stroke-linecap:round;stroke-linejoin:round;stroke:rgb(90.196079%,0.784314%,70.588237%);stroke-opacity:1;stroke-miterlimit:4;" d="M 5.488322 0.45977 C 5.488322 0.553849 5.410992 0.631668 5.315196 0.631668 C 5.2194 0.631668 5.142071 0.553849 5.142071 0.45977 C 5.142071 0.364529 5.2194 0.287872 5.315196 0.287872 C 5.410992 0.287872 5.488322 0.364529 5.488322 0.45977 Z M 5.488322 0.45977 " transform="matrix(3.384468,0,0,3.363182,1.233542,8.609961)"/>
<path style="fill-rule:evenodd;fill:rgb(61.56863%,22.745098%,60.784316%);fill-opacity:1;stroke-width:0.222301;stroke-linecap:round;stroke-linejoin:round;stroke:rgb(90.196079%,0.784314%,70.588237%);stroke-opacity:1;stroke-miterlimit:4;" d="M 4.61577 0.462093 C 4.61577 0.556172 4.53844 0.63283 4.442644 0.63283 C 4.346848 0.63283 4.269519 0.556172 4.269519 0.462093 C 4.269519 0.366852 4.346848 0.290195 4.442644 0.290195 C 4.53844 0.290195 4.61577 0.366852 4.61577 0.462093 Z M 4.61577 0.462093 " transform="matrix(3.384468,0,0,3.363182,1.233542,8.609961)"/>
<path style="fill:none;stroke-width:0.444601;stroke-linecap:butt;stroke-linejoin:miter;stroke:rgb(90.196079%,0.784314%,70.588237%);stroke-opacity:1;stroke-miterlimit:4;" d="M 0.988215 1.442377 L 5.353284 1.442377 " transform="matrix(3.384468,0,0,3.363182,1.233542,8.609961)"/>
<path style="fill:none;stroke-width:0.444601;stroke-linecap:round;stroke-linejoin:miter;stroke:rgb(90.196079%,0.784314%,70.588237%);stroke-opacity:1;stroke-miterlimit:4;" d="M 1.670329 1.982463 L 4.68502 1.982463 " transform="matrix(3.384468,0,0,3.363182,1.233542,8.609961)"/>
<path style="fill:none;stroke-width:0.444601;stroke-linecap:round;stroke-linejoin:miter;stroke:rgb(90.196079%,0.784314%,70.588237%);stroke-opacity:1;stroke-miterlimit:4;" d="M 1.663404 2.528356 L 4.678095 2.528356 " transform="matrix(3.384468,0,0,3.363182,1.233542,8.609961)"/>
<path style="fill-rule:nonzero;fill:rgb(61.56863%,22.745098%,60.784316%);fill-opacity:1;stroke-width:0.11115;stroke-linecap:round;stroke-linejoin:round;stroke:rgb(61.56863%,22.745098%,60.784316%);stroke-opacity:1;stroke-miterlimit:4;" d="M 1.658788 3.28796 C 1.668021 3.392493 1.741888 3.46915 1.833067 3.46915 C 1.894238 3.46915 1.950792 3.435468 1.981955 3.38204 C 2.013118 3.435468 2.067364 3.46915 2.12738 3.46915 C 2.21856 3.46915 2.292427 3.392493 2.30166 3.28796 C 2.30166 3.283314 2.305122 3.257762 2.295889 3.218272 C 2.282039 3.16136 2.252031 3.109093 2.207018 3.06728 L 1.981955 2.860538 L 1.753429 3.06728 C 1.708417 3.109093 1.677254 3.16136 1.664558 3.218272 C 1.655325 3.257762 1.657633 3.282153 1.658788 3.286799 Z M 1.688796 3.224079 C 1.700338 3.171813 1.729192 3.124192 1.770742 3.085864 L 1.981955 2.89422 L 2.189706 3.085864 C 2.231256 3.124192 2.26011 3.171813 2.271652 3.224079 C 2.280885 3.262408 2.277422 3.283314 2.277422 3.283314 L 2.276268 3.284476 C 2.268189 3.376232 2.205864 3.443598 2.12738 3.443598 C 2.068518 3.443598 2.017734 3.407592 1.993497 3.349518 L 1.981955 3.321643 L 1.970413 3.349518 C 1.946176 3.406431 1.893084 3.443598 1.833067 3.443598 C 1.754584 3.443598 1.691104 3.376232 1.683025 3.283314 C 1.683025 3.283314 1.679563 3.262408 1.688796 3.224079 Z M 1.688796 3.224079 " transform="matrix(3.384468,0,0,3.363182,1.233542,8.609961)"/>
<path style=" stroke:none;fill-rule:nonzero;fill:rgb(90.196079%,0.784314%,70.588237%);fill-opacity:1;" d="M 13.894531 12.972656 C 13.5625 13.308594 12.339844 13.828125 12.667969 14.175781 L 13.828125 15.449219 L 14.445312 14.847656 L 17.542969 18.246094 C 18.320312 19.117188 19.570312 17.890625 18.773438 17.039062 L 15.671875 13.640625 L 16.289062 13.039062 L 15.125 11.765625 C 14.800781 11.402344 14.238281 12.625 13.894531 12.972656 Z M 13.894531 12.972656 "/>
<path style="fill-rule:nonzero;fill:rgb(95.294118%,71.764708%,85.09804%);fill-opacity:1;stroke-width:1.624318;stroke-linecap:square;stroke-linejoin:miter;stroke:rgb(90.196079%,0.784314%,70.588237%);stroke-opacity:1;stroke-miterlimit:4;" d="M 6.908485 18.146204 C 6.907091 21.258488 4.382705 23.78624 1.268156 23.784095 C -1.843307 23.784871 -4.368973 21.26123 -4.367773 18.142966 C -4.369465 15.027761 -1.841993 12.50293 1.26947 12.502154 C 4.384019 12.504299 6.909685 15.02794 6.908485 18.146204 Z M 6.908485 18.146204 " transform="matrix(0.668051,-0.637595,0.631618,0.673707,-2.154813,-2.675883)"/>
<path style="fill-rule:nonzero;fill:rgb(95.294118%,71.764708%,85.09804%);fill-opacity:1;stroke-width:1.624286;stroke-linecap:round;stroke-linejoin:miter;stroke:rgb(61.56863%,22.745098%,60.784316%);stroke-opacity:1;stroke-miterlimit:4;" d="M 11.203718 9.123834 C 11.859368 8.700852 12.637688 8.468212 13.466769 8.49782 C 14.553879 8.535889 15.522549 9.018088 16.22473 9.766767 " transform="matrix(0.923463,0,0,0.923502,-2.154813,-2.675883)"/>
<path style="fill:none;stroke-width:1.624286;stroke-linecap:round;stroke-linejoin:miter;stroke:rgb(61.56863%,22.745098%,60.784316%);stroke-opacity:1;stroke-miterlimit:4;" d="M 19.118051 16.272231 L 16.80424 18.67054 " transform="matrix(0.923463,0,0,0.923502,-2.154813,-2.675883)"/>
<path style="fill-rule:evenodd;fill:rgb(94.117647%,89.019608%,92.54902%);fill-opacity:1;stroke-width:1.624286;stroke-linecap:round;stroke-linejoin:round;stroke:rgb(90.196079%,0.784314%,70.588237%);stroke-opacity:1;stroke-miterlimit:4;" d="M 15.995742 8.512246 L 20.018473 8.512246 C 21.367844 8.512246 22.454954 9.59931 22.454954 10.948622 L 22.454954 20.063887 C 22.454954 21.40897 21.367844 22.500263 20.018473 22.500263 L 15.995742 22.500263 C 14.650602 22.500263 13.559261 21.40897 13.559261 20.063887 L 13.559261 10.948622 C 13.559261 9.59931 14.650602 8.512246 15.995742 8.512246 Z M 15.995742 8.512246 " transform="matrix(0.923463,0,0,0.923502,0.904305,0.959233)"/>
<path style="fill-rule:evenodd;fill:rgb(95.294118%,71.764708%,85.09804%);fill-opacity:1;stroke-width:1.624286;stroke-linecap:round;stroke-linejoin:round;stroke:rgb(90.196079%,0.784314%,70.588237%);stroke-opacity:1;stroke-miterlimit:4;" d="M 17.937313 11.498499 L 18.064213 11.498499 C 19.409353 11.498499 20.500694 12.589793 20.500694 13.934876 L 20.500694 18.063181 C 20.500694 19.408264 19.409353 20.499558 18.064213 20.499558 L 17.937313 20.499558 C 16.592172 20.499558 15.500832 19.408264 15.500832 18.063181 L 15.500832 13.934876 C 15.500832 12.589793 16.592172 11.498499 17.937313 11.498499 Z M 17.937313 11.498499 " transform="matrix(0.923463,0,0,0.923502,0.904305,0.959233)"/>
<path style="fill:none;stroke-width:1.624286;stroke-linecap:round;stroke-linejoin:round;stroke:rgb(61.56863%,22.745098%,60.784316%);stroke-opacity:1;stroke-miterlimit:4;" d="M 18.419533 14.184435 C 18.419533 14.412846 18.233413 14.594728 18.004993 14.598958 C 17.776573 14.598958 17.590453 14.417076 17.586223 14.192895 C 17.581993 13.964485 17.768113 13.778373 17.996533 13.774143 C 18.224953 13.769913 18.415303 13.951795 18.419533 14.175976 L 18.004993 14.184435 Z M 18.419533 14.184435 " transform="matrix(0.923463,0,0,0.923502,0.904305,0.959233)"/>
<path style="fill:none;stroke-width:1.624286;stroke-linecap:round;stroke-linejoin:round;stroke:rgb(90.196079%,0.784314%,70.588237%);stroke-opacity:1;stroke-miterlimit:4;" d="M 17.950003 16.692719 L 17.950003 18.583449 " transform="matrix(0.923463,0,0,0.923502,0.904305,0.959233)"/>
</g>
</svg>
