<?xml version="1.0" encoding="UTF-8"?>
<svg xmlns="http://www.w3.org/2000/svg" xmlns:xlink="http://www.w3.org/1999/xlink" width="24px" height="24px" viewBox="0 0 24 24" version="1.1">
<g id="surface1">
<path style="fill-rule:evenodd;fill:rgb(95.294118%,71.764708%,85.09804%);fill-opacity:1;stroke-width:1.628641;stroke-linecap:round;stroke-linejoin:round;stroke:rgb(90.196079%,0.784314%,70.588237%);stroke-opacity:1;stroke-miterlimit:4;" d="M 3.60482 -3.988137 L 16.672119 -3.988137 C 18.020838 -3.988137 19.115081 -2.893894 19.115081 -1.545176 L 19.115081 12.518818 C 19.115081 13.867537 18.020838 14.96178 16.672119 14.96178 L 3.60482 14.96178 C 2.25186 14.96178 1.161858 13.867537 1.161858 12.518818 L 1.161858 -1.545176 C 1.161858 -2.893894 2.25186 -3.988137 3.60482 -3.988137 Z M 3.60482 -3.988137 " transform="matrix(0.921013,0,0,0.921013,1.238507,7.692658)"/>
<path style="fill-rule:evenodd;fill:rgb(94.117647%,89.019608%,92.54902%);fill-opacity:1;stroke-width:0.814321;stroke-linecap:round;stroke-linejoin:round;stroke:rgb(61.56863%,22.745098%,60.784316%);stroke-opacity:1;stroke-miterlimit:4;" d="M 6.255603 -1.367043 L 13.991648 -1.367043 C 15.293712 -1.367043 16.349784 -0.23887 16.349784 1.152261 L 16.349784 9.685662 C 16.349784 11.072551 15.293712 12.200724 13.991648 12.200724 L 6.255603 12.200724 C 4.949297 12.200724 3.893225 11.072551 3.893225 9.685662 L 3.893225 1.152261 C 3.893225 -0.23887 4.949297 -1.367043 6.255603 -1.367043 Z M 6.255603 -1.367043 " transform="matrix(0.921013,0,0,0.921013,1.238507,7.692658)"/>
<path style="fill-rule:evenodd;fill:rgb(94.117647%,89.019608%,92.54902%);fill-opacity:1;stroke-width:1.628641;stroke-linecap:round;stroke-linejoin:round;stroke:rgb(90.196079%,0.784314%,70.588237%);stroke-opacity:1;stroke-miterlimit:4;" d="M 10.742848 0.058018 L 20.578313 0.058018 C 21.477459 0.058018 22.206954 0.787513 22.206954 1.686659 L 22.206954 13.333139 C 22.206954 14.232285 21.477459 14.96178 20.578313 14.96178 L 10.742848 14.96178 C 9.843702 14.96178 9.114207 14.232285 9.114207 13.333139 L 9.114207 1.686659 C 9.114207 0.787513 9.843702 0.058018 10.742848 0.058018 Z M 10.742848 0.058018 " transform="matrix(0.921013,0,0,0.921013,1.238507,7.692658)"/>
<path style="fill-rule:evenodd;fill:rgb(95.294118%,71.764708%,85.09804%);fill-opacity:1;stroke-width:1.628641;stroke-linecap:round;stroke-linejoin:round;stroke:rgb(90.196079%,0.784314%,70.588237%);stroke-opacity:1;stroke-miterlimit:4;" d="M 6.900273 -5.039968 L 12.346042 -5.039968 C 12.795614 -5.039968 13.160362 -4.861835 13.160362 -4.637049 C 13.160362 -4.416504 12.795614 -4.238371 12.346042 -4.238371 L 6.900273 -4.238371 C 6.4507 -4.238371 6.085953 -4.416504 6.085953 -4.637049 C 6.085953 -4.861835 6.4507 -5.039968 6.900273 -5.039968 Z M 6.900273 -5.039968 " transform="matrix(0.921013,0,0,0.921013,1.238507,7.692658)"/>
<path style="fill-rule:evenodd;fill:rgb(94.117647%,89.019608%,92.54902%);fill-opacity:1;stroke-width:0.814321;stroke-linecap:round;stroke-linejoin:round;stroke:rgb(90.196079%,0.784314%,70.588237%);stroke-opacity:1;stroke-miterlimit:4;" d="M 11.099113 -5.095104 C 11.099113 -4.463157 10.573198 -3.949966 9.924286 -3.949966 C 9.275375 -3.949966 8.749459 -4.463157 8.749459 -5.095104 C 8.749459 -5.727051 9.275375 -6.240242 9.924286 -6.240242 C 10.573198 -6.240242 11.099113 -5.727051 11.099113 -5.095104 Z M 11.099113 -5.095104 " transform="matrix(0.921013,0,0,0.921013,1.238507,7.692658)"/>
<path style="fill-rule:nonzero;fill:rgb(61.56863%,22.745098%,60.784316%);fill-opacity:1;stroke-width:0.40716;stroke-linecap:butt;stroke-linejoin:miter;stroke:rgb(61.56863%,22.745098%,60.784316%);stroke-opacity:1;stroke-miterlimit:4;" d="M 17.024143 2.6367 C 17.066556 2.178644 17.388891 1.843585 17.796051 1.843585 C 18.067491 1.843585 18.317725 1.992029 18.457687 2.225298 C 18.597648 1.987788 18.835158 1.843585 19.102357 1.843585 C 19.509517 1.843585 19.831853 2.178644 19.874265 2.6367 C 19.878506 2.657906 19.89123 2.763937 19.853059 2.937829 C 19.793681 3.192304 19.65372 3.41709 19.454381 3.599464 L 18.457687 4.502851 L 17.444027 3.599464 C 17.244688 3.41709 17.108968 3.192304 17.049591 2.937829 C 17.007178 2.763937 17.019902 2.657906 17.024143 2.6367 Z M 17.155622 2.912381 C 17.210758 3.141409 17.333755 3.353471 17.516129 3.51888 L 18.457687 4.354407 L 19.38228 3.51888 C 19.564654 3.353471 19.691891 3.141409 19.742786 2.912381 C 19.780958 2.746972 19.768234 2.657906 19.768234 2.653665 L 19.768234 2.649423 C 19.730063 2.246504 19.45014 1.953858 19.102357 1.953858 C 18.843641 1.953858 18.614613 2.115026 18.508582 2.369501 L 18.457687 2.488256 L 18.406792 2.369501 C 18.30076 2.119267 18.06325 1.953858 17.796051 1.953858 C 17.448269 1.953858 17.168346 2.246504 17.130175 2.653665 C 17.130175 2.657906 17.117451 2.751213 17.155622 2.912381 Z M 17.155622 2.912381 " transform="matrix(0.921013,0,0,0.921013,1.238507,7.692658)"/>
<path style="fill:none;stroke-width:1.628641;stroke-linecap:round;stroke-linejoin:miter;stroke:rgb(90.196079%,0.784314%,70.588237%);stroke-opacity:1;stroke-miterlimit:4;" d="M 11.408725 6.110286 L 19.916678 6.110286 " transform="matrix(0.921013,0,0,0.921013,1.238507,7.692658)"/>
<path style="fill:none;stroke-width:1.628641;stroke-linecap:round;stroke-linejoin:miter;stroke:rgb(90.196079%,0.784314%,70.588237%);stroke-opacity:1;stroke-miterlimit:4;" d="M 11.408725 8.086709 L 19.916678 8.086709 " transform="matrix(0.921013,0,0,0.921013,1.238507,7.692658)"/>
<path style="fill:none;stroke-width:1.628641;stroke-linecap:round;stroke-linejoin:miter;stroke:rgb(90.196079%,0.784314%,70.588237%);stroke-opacity:1;stroke-miterlimit:4;" d="M 11.408725 10.016479 L 19.916678 10.016479 " transform="matrix(0.921013,0,0,0.921013,1.238507,7.692658)"/>
<path style="fill-rule:nonzero;fill:rgb(95.294118%,71.764708%,85.09804%);fill-opacity:1;stroke-width:1.628641;stroke-linecap:round;stroke-linejoin:round;stroke:rgb(61.56863%,22.745098%,60.784316%);stroke-opacity:1;stroke-miterlimit:4;" d="M 12 9.000585 C 12 9.331403 11.936382 9.632532 11.804903 9.89973 C 11.681906 10.166929 11.529221 10.366268 11.351089 10.501988 C 11.172956 10.701327 10.990582 10.866736 10.808208 10.998215 C 10.630076 11.133935 10.473149 11.299344 10.345912 11.498683 C 10.218674 11.698022 10.159297 11.93129 10.159297 12.198489 L 10.159297 12.601408 L 9.234704 12.601408 L 9.234704 12.100941 C 9.234704 11.833742 9.294081 11.600473 9.417077 11.401134 C 9.548556 11.133935 9.701241 10.934596 9.879374 10.798876 C 10.065989 10.599537 10.248363 10.434128 10.426496 10.298408 C 10.604628 10.099069 10.757313 9.89973 10.88031 9.700392 C 11.007547 9.501053 11.075407 9.267784 11.075407 9.000585 C 11.075407 8.665526 10.952411 8.398327 10.714901 8.198988 C 10.473149 7.999649 10.155055 7.9021 9.756378 7.9021 C 9.25591 7.9021 8.912368 8.033579 8.717271 8.300778 C 8.526414 8.567977 8.433107 8.966655 8.433107 9.501053 L 7.555168 9.501053 C 7.555168 8.699456 7.746024 8.101439 8.123495 7.69852 C 8.505208 7.299843 9.069295 7.100504 9.807273 7.100504 C 10.473149 7.100504 11.007547 7.265913 11.401984 7.600971 C 11.800662 7.931789 12 8.398327 12 9.000585 Z M 10.159297 13.598103 L 10.159297 14.700829 L 9.234704 14.700829 L 9.234704 13.598103 Z M 10.159297 13.598103 " transform="matrix(0.921013,0,0,0.921013,0.94784,8.140029)"/>
<path style=" stroke:none;fill-rule:nonzero;fill:rgb(94.117647%,89.019608%,92.54902%);fill-opacity:1;" d="M 12 16.429688 C 12 16.734375 11.941406 17.011719 11.820312 17.257812 C 11.707031 17.503906 11.566406 17.6875 11.402344 17.8125 C 11.238281 17.996094 11.070312 18.148438 10.902344 18.269531 C 10.738281 18.394531 10.59375 18.546875 10.476562 18.730469 C 10.359375 18.914062 10.304688 19.128906 10.304688 19.375 L 10.304688 19.746094 L 9.453125 19.746094 L 9.453125 19.285156 C 9.453125 19.039062 9.507812 18.824219 9.621094 18.640625 C 9.742188 18.394531 9.882812 18.210938 10.046875 18.085938 C 10.21875 17.902344 10.386719 17.75 10.550781 17.625 C 10.714844 17.441406 10.855469 17.257812 10.96875 17.074219 C 11.085938 16.890625 11.148438 16.675781 11.148438 16.429688 C 11.148438 16.121094 11.035156 15.875 10.816406 15.691406 C 10.59375 15.507812 10.300781 15.417969 9.933594 15.417969 C 9.472656 15.417969 9.15625 15.539062 8.976562 15.785156 C 8.800781 16.03125 8.714844 16.398438 8.714844 16.890625 L 7.90625 16.890625 C 7.90625 16.152344 8.082031 15.601562 8.429688 15.230469 C 8.78125 14.863281 9.300781 14.679688 9.980469 14.679688 C 10.59375 14.679688 11.085938 14.832031 11.449219 15.140625 C 11.816406 15.445312 12 15.875 12 16.429688 Z M 10.304688 20.664062 L 10.304688 21.679688 L 9.453125 21.679688 L 9.453125 20.664062 Z M 10.304688 20.664062 "/>
</g>
</svg>
