<?xml version="1.0" encoding="UTF-8"?>
<svg xmlns="http://www.w3.org/2000/svg" xmlns:xlink="http://www.w3.org/1999/xlink" width="24px" height="24px" viewBox="0 0 24 24" version="1.1">
<g id="surface1">
<path style="fill-rule:evenodd;fill:rgb(95.294118%,71.764708%,85.09804%);fill-opacity:1;stroke-width:1;stroke-linecap:round;stroke-linejoin:round;stroke:rgb(90.196079%,0.784314%,70.588237%);stroke-opacity:1;stroke-miterlimit:4;" d="M 2.619849 3 L 10.63287 3 C 11.460995 3 12.13287 3.671875 12.13287 4.5 L 12.13287 13.5 C 12.13287 14.328125 11.460995 15 10.63287 15 L 2.619849 15 C 1.791724 15 1.119849 14.328125 1.119849 13.5 L 1.119849 4.5 C 1.119849 3.671875 1.791724 3 2.619849 3 Z M 2.619849 3 " transform="matrix(1.5,0,0,1.5,0.570227,-0.75)"/>
<path style="fill-rule:evenodd;fill:rgb(94.117647%,89.019608%,92.54902%);fill-opacity:1;stroke-width:0.5;stroke-linecap:round;stroke-linejoin:round;stroke:rgb(61.56863%,22.745098%,60.784316%);stroke-opacity:1;stroke-miterlimit:4;" d="M 4.278703 4.796875 L 9.010474 4.796875 C 9.809953 4.796875 10.45839 5.486979 10.45839 6.341146 L 10.45839 11.729167 C 10.45839 12.583333 9.809953 13.276042 9.010474 13.276042 L 4.278703 13.276042 C 3.479224 13.276042 2.828182 12.583333 2.828182 11.729167 L 2.828182 6.341146 C 2.828182 5.486979 3.479224 4.796875 4.278703 4.796875 Z M 4.278703 4.796875 " transform="matrix(1.5,0,0,1.5,0.570227,-0.75)"/>
<path style="fill-rule:evenodd;fill:rgb(94.117647%,89.019608%,92.54902%);fill-opacity:1;stroke-width:1;stroke-linecap:round;stroke-linejoin:round;stroke:rgb(90.196079%,0.784314%,70.588237%);stroke-opacity:1;stroke-miterlimit:4;" d="M 6.567765 6 L 13.119849 6 C 13.671932 6 14.119849 6.447917 14.119849 7 L 14.119849 14 C 14.119849 14.552083 13.671932 15 13.119849 15 L 6.567765 15 C 6.015682 15 5.567765 14.552083 5.567765 14 L 5.567765 7 C 5.567765 6.447917 6.015682 6 6.567765 6 Z M 6.567765 6 " transform="matrix(1.5,0,0,1.5,0.570227,-0.75)"/>
<path style="fill-rule:evenodd;fill:rgb(95.294118%,71.764708%,85.09804%);fill-opacity:1;stroke-width:1;stroke-linecap:round;stroke-linejoin:round;stroke:rgb(90.196079%,0.784314%,70.588237%);stroke-opacity:1;stroke-miterlimit:4;" d="M 4.697974 2.5 L 8.119849 2.5 C 8.39589 2.5 8.619849 2.611979 8.619849 2.75 C 8.619849 2.888021 8.39589 3 8.119849 3 L 4.697974 3 C 4.421932 3 4.197974 2.888021 4.197974 2.75 C 4.197974 2.611979 4.421932 2.5 4.697974 2.5 Z M 4.697974 2.5 " transform="matrix(1.5,0,0,1.5,0.570227,-0.75)"/>
<path style="fill-rule:evenodd;fill:rgb(94.117647%,89.019608%,92.54902%);fill-opacity:1;stroke-width:0.5;stroke-linecap:round;stroke-linejoin:round;stroke:rgb(90.196079%,0.784314%,70.588237%);stroke-opacity:1;stroke-miterlimit:4;" d="M 7.330786 2.466146 C 7.330786 2.861979 7.002661 3.182292 6.596411 3.182292 C 6.192765 3.182292 5.862036 2.861979 5.862036 2.466146 C 5.862036 2.070313 6.192765 1.75 6.596411 1.75 C 7.002661 1.75 7.330786 2.070313 7.330786 2.466146 Z M 7.330786 2.466146 " transform="matrix(1.5,0,0,1.5,0.570227,-0.75)"/>
<path style="fill-rule:nonzero;fill:rgb(61.56863%,22.745098%,60.784316%);fill-opacity:1;stroke-width:0.25;stroke-linecap:butt;stroke-linejoin:miter;stroke:rgb(61.56863%,22.745098%,60.784316%);stroke-opacity:1;stroke-miterlimit:4;" d="M 10.565161 7.927083 C 10.591203 7.640625 10.794328 7.432292 11.046932 7.432292 C 11.218807 7.432292 11.372453 7.523438 11.460995 7.669271 C 11.546932 7.520833 11.69537 7.432292 11.862036 7.432292 C 12.117245 7.432292 12.32037 7.640625 12.346411 7.927083 C 12.349015 7.940104 12.356828 8.005208 12.330786 8.114583 C 12.294328 8.273438 12.20839 8.414063 12.08339 8.528646 L 11.460995 9.09375 L 10.825578 8.528646 C 10.700578 8.414063 10.617245 8.273438 10.578182 8.114583 C 10.55214 8.005208 10.562557 7.940104 10.562557 7.927083 Z M 10.64589 8.098958 C 10.679745 8.242188 10.75787 8.372396 10.872453 8.476563 L 11.460995 9 L 12.036515 8.476563 C 12.151099 8.372396 12.231828 8.242188 12.265682 8.098958 C 12.28912 7.997396 12.278703 7.9375 12.278703 7.9375 L 12.278703 7.934896 C 12.255265 7.682292 12.080786 7.5 11.862036 7.5 C 11.700578 7.5 11.559953 7.598958 11.492245 7.757813 L 11.460995 7.833333 L 11.429745 7.757813 C 11.362036 7.601563 11.213599 7.5 11.046932 7.5 C 10.828182 7.5 10.653703 7.682292 10.63287 7.9375 C 10.63287 7.9375 10.622453 7.997396 10.64589 8.098958 Z M 10.64589 8.098958 " transform="matrix(1.5,0,0,1.5,0.570227,-0.75)"/>
<path style="fill:none;stroke-width:1;stroke-linecap:round;stroke-linejoin:miter;stroke:rgb(90.196079%,0.784314%,70.588237%);stroke-opacity:1;stroke-miterlimit:4;" d="M 7.112036 9.992188 L 12.429745 9.992188 " transform="matrix(1.5,0,0,1.5,0.570227,-0.75)"/>
<path style="fill:none;stroke-width:1;stroke-linecap:round;stroke-linejoin:miter;stroke:rgb(90.196079%,0.784314%,70.588237%);stroke-opacity:1;stroke-miterlimit:4;" d="M 7.112036 12.013021 L 12.429745 12.013021 " transform="matrix(1.5,0,0,1.5,0.570227,-0.75)"/>
</g>
</svg>
