<?xml version="1.0" encoding="UTF-8" standalone="no"?>
<svg
   xmlns:dc="http://purl.org/dc/elements/1.1/"
   xmlns:cc="http://creativecommons.org/ns#"
   xmlns:rdf="http://www.w3.org/1999/02/22-rdf-syntax-ns#"
   xmlns:svg="http://www.w3.org/2000/svg"
   xmlns="http://www.w3.org/2000/svg"
   xmlns:sodipodi="http://sodipodi.sourceforge.net/DTD/sodipodi-0.dtd"
   xmlns:inkscape="http://www.inkscape.org/namespaces/inkscape"
   height="24"
   viewBox="0 0 6.3499999 6.3500002"
   width="24"
   version="1.1"
   id="svg11"
   sodipodi:docname="lc_pie_unfilled.svg"
   inkscape:version="0.92.4 (unknown)"
   inkscape:export-filename="/home/annisaauliarasyidah/Desktop/4_242 (aulia)/lc 222/lc_pie_unfilled.png"
   inkscape:export-xdpi="96"
   inkscape:export-ydpi="96">
  <metadata
     id="metadata17">
    <rdf:RDF>
      <cc:Work
         rdf:about="">
        <dc:format>image/svg+xml</dc:format>
        <dc:type
           rdf:resource="http://purl.org/dc/dcmitype/StillImage" />
        <dc:title></dc:title>
      </cc:Work>
    </rdf:RDF>
  </metadata>
  <defs
     id="defs15" />
  <sodipodi:namedview
     pagecolor="#ffffff"
     bordercolor="#666666"
     borderopacity="1"
     objecttolerance="10"
     gridtolerance="10"
     guidetolerance="10"
     inkscape:pageopacity="0"
     inkscape:pageshadow="2"
     inkscape:window-width="1366"
     inkscape:window-height="707"
     id="namedview13"
     showgrid="true"
     inkscape:snap-global="false"
     inkscape:zoom="22.081895"
     inkscape:cx="6.6367345"
     inkscape:cy="18.913883"
     inkscape:window-x="0"
     inkscape:window-y="0"
     inkscape:window-maximized="1"
     inkscape:current-layer="svg11">
    <inkscape:grid
       type="xygrid"
       id="grid824" />
  </sodipodi:namedview>
  <linearGradient
     id="a"
     gradientUnits="userSpaceOnUse"
     x1="7.9998779"
     x2="7.9998779"
     y1="15.237208"
     y2="0.76302999">
    <stop
       offset="0"
       stop-color="#7c9fcf"
       id="stop2" />
    <stop
       offset=".5"
       stop-color="#7c9ece"
       id="stop4" />
    <stop
       offset="1"
       stop-color="#7b9dcf"
       id="stop6" />
  </linearGradient>
  <path
     d="M 3.1749999,0.82787543 C 2.3818309,0.82788463 1.5906895,1.0550875 1.002652,1.4734874 0.4146147,1.8918855 0.03301566,2.5196013 0.03307301,3.175 0.03301651,3.8303966 0.41461481,4.4581143 1.002652,4.8765124 1.5906893,5.2949104 2.3818315,5.5221152 3.1749999,5.5221246 3.9681685,5.5221152 4.7593109,5.2949104 5.347348,4.8765124 5.9353852,4.4581143 6.3169836,3.8303966 6.316927,3.175 6.3169388,3.0429438 6.3004362,2.9121159 6.2709024,2.7838125 H 3.5677409 V 0.84697623 C 3.4374654,0.83467813 3.3063056,0.82787703 3.1749999,0.82787543 Z m 0,0.39118727 V 3.175 H 5.9241861 A 2.7491862,1.9559367 0 0 1 3.1749999,5.1309371 2.7491862,1.9559367 0 0 1 0.42581389,3.175 2.7491862,1.9559367 0 0 1 3.1749999,1.2190627 Z"
     id="path9"
     style="fill:#f3b7d9;stroke:#9d3a9b;stroke-width:0.06614584;stroke-miterlimit:4;stroke-dasharray:none"
     inkscape:connector-curvature="0" />
</svg>
