<?xml version="1.0" encoding="UTF-8"?>
<svg xmlns="http://www.w3.org/2000/svg" xmlns:xlink="http://www.w3.org/1999/xlink" width="24px" height="24px" viewBox="0 0 24 24" version="1.1">
<defs>
<clipPath id="clip1">
  <path d="M 2 8 L 22 8 L 22 19 L 2 19 Z M 2 8 "/>
</clipPath>
<clipPath id="clip2">
  <path d="M 4.835938 19.136719 L 4.835938 13.984375 L 19.164062 13.984375 L 19.164062 19.136719 L 23.65625 19.21875 L 23.65625 7.402344 L 0.34375 7.402344 L 0.34375 19.21875 Z M 4.835938 19.136719 "/>
</clipPath>
<clipPath id="clip3">
  <path d="M 0 7 L 24 7 L 24 20 L 0 20 Z M 0 7 "/>
</clipPath>
<clipPath id="clip4">
  <path d="M 4.835938 19.136719 L 4.835938 13.984375 L 19.164062 13.984375 L 19.164062 19.136719 L 23.65625 19.21875 L 23.65625 7.402344 L 0.34375 7.402344 L 0.34375 19.21875 Z M 4.835938 19.136719 "/>
</clipPath>
<clipPath id="clip5">
  <path d="M 5 13 L 19 13 L 19 22 L 5 22 Z M 5 13 "/>
</clipPath>
<clipPath id="clip6">
  <path d="M 4.464844 13.527344 L 19.5625 13.527344 L 19.5625 22.191406 L 4.464844 22.734375 Z M 4.464844 13.527344 "/>
</clipPath>
<clipPath id="clip7">
  <path d="M 4 13 L 20 13 L 20 23 L 4 23 Z M 4 13 "/>
</clipPath>
<clipPath id="clip8">
  <path d="M 4.464844 13.527344 L 19.5625 13.527344 L 19.5625 22.191406 L 4.464844 22.734375 Z M 4.464844 13.527344 "/>
</clipPath>
<clipPath id="clip9">
  <path d="M 5 2 L 19 2 L 19 8 L 5 8 Z M 5 2 "/>
</clipPath>
<clipPath id="clip10">
  <path d="M 4.128906 7.957031 L 19.851562 7.957031 L 19.851562 1.0625 C 19.851562 1.0625 5.109375 -0.3125 4.128906 1.0625 C 3.144531 2.441406 3.144531 2.441406 3.144531 2.441406 Z M 4.128906 7.957031 "/>
</clipPath>
<clipPath id="clip11">
  <path d="M 3 0 L 20 0 L 20 8 L 3 8 Z M 3 0 "/>
</clipPath>
<clipPath id="clip12">
  <path d="M 4.128906 7.957031 L 19.851562 7.957031 L 19.851562 1.0625 C 19.851562 1.0625 5.109375 -0.3125 4.128906 1.0625 C 3.144531 2.441406 3.144531 2.441406 3.144531 2.441406 Z M 4.128906 7.957031 "/>
</clipPath>
</defs>
<g id="surface1">
<path style="fill-rule:nonzero;fill:rgb(11.372549%,11.372549%,11.372549%);fill-opacity:1;stroke-width:0.429767;stroke-linecap:butt;stroke-linejoin:miter;stroke:rgb(90.196079%,0.784314%,70.588237%);stroke-opacity:1;stroke-miterlimit:4;" d="M -5.145895 2.01204 L -1.210801 2.01204 C -0.913939 2.01204 -0.673995 2.238756 -0.673995 2.515978 C -0.673995 2.794323 -0.913939 3.019917 -1.210801 3.019917 L -5.145895 3.019917 C -5.441641 3.019917 -5.682702 2.794323 -5.682702 2.515978 C -5.682702 2.238756 -5.441641 2.01204 -5.145895 2.01204 Z M -5.145895 2.01204 " transform="matrix(3.500155,0,0,-3.480397,23.112992,19.405041)"/>
<g clip-path="url(#clip1)" clip-rule="nonzero">
<g clip-path="url(#clip2)" clip-rule="nonzero">
<path style=" stroke:none;fill-rule:nonzero;fill:rgb(95.294118%,71.764708%,85.09804%);fill-opacity:1;" d="M 5.1875 8.347656 L 18.8125 8.347656 C 20.414062 8.347656 21.714844 9.824219 21.714844 11.648438 L 21.714844 15.417969 C 21.714844 17.242188 20.414062 18.71875 18.8125 18.71875 L 5.1875 18.71875 C 3.585938 18.71875 2.285156 17.242188 2.285156 15.417969 L 2.285156 11.648438 C 2.285156 9.824219 3.585938 8.347656 5.1875 8.347656 Z M 5.1875 8.347656 "/>
</g>
</g>
<g clip-path="url(#clip3)" clip-rule="nonzero">
<g clip-path="url(#clip4)" clip-rule="nonzero">
<path style="fill:none;stroke-width:0.484949;stroke-linecap:butt;stroke-linejoin:miter;stroke:rgb(90.196079%,0.784314%,70.588237%);stroke-opacity:1;stroke-miterlimit:4;" d="M 1.032868 -0.226135 L 5.363297 -0.226135 C 5.872321 -0.226135 6.285748 0.259451 6.285748 0.859369 L 6.285748 2.099028 C 6.285748 2.698946 5.872321 3.184533 5.363297 3.184533 L 1.032868 3.184533 C 0.523843 3.184533 0.110417 2.698946 0.110417 2.099028 L 0.110417 0.859369 C 0.110417 0.259451 0.523843 -0.226135 1.032868 -0.226135 Z M 1.032868 -0.226135 " transform="matrix(3.146339,0,0,3.040781,1.937748,9.035285)"/>
</g>
</g>
<g clip-path="url(#clip5)" clip-rule="nonzero">
<g clip-path="url(#clip6)" clip-rule="nonzero">
<path style=" stroke:none;fill-rule:nonzero;fill:rgb(94.117647%,89.019608%,92.54902%);fill-opacity:0.996078;" d="M 6.265625 11.992188 L 17.75 11.992188 C 18.417969 11.992188 18.960938 12.574219 18.960938 13.292969 L 18.960938 20.398438 C 18.960938 21.113281 18.417969 21.695312 17.75 21.695312 L 6.265625 21.695312 C 5.597656 21.695312 5.054688 21.113281 5.054688 20.398438 L 5.054688 13.292969 C 5.054688 12.574219 5.597656 11.992188 6.265625 11.992188 Z M 6.265625 11.992188 "/>
</g>
</g>
<g clip-path="url(#clip7)" clip-rule="nonzero">
<g clip-path="url(#clip8)" clip-rule="nonzero">
<path style="fill:none;stroke-width:0.450622;stroke-linecap:butt;stroke-linejoin:miter;stroke:rgb(90.196079%,0.784314%,70.588237%);stroke-opacity:1;stroke-miterlimit:4;" d="M 1.386796 1.054252 L 4.954406 1.054252 C 5.16191 1.054252 5.330582 1.223342 5.330582 1.432151 L 5.330582 3.496412 C 5.330582 3.704086 5.16191 3.873176 4.954406 3.873176 L 1.386796 3.873176 C 1.179293 3.873176 1.01062 3.704086 1.01062 3.496412 L 1.01062 1.432151 C 1.01062 1.223342 1.179293 1.054252 1.386796 1.054252 Z M 1.386796 1.054252 " transform="matrix(3.219067,0,0,3.442137,1.801434,8.363308)"/>
</g>
</g>
<g clip-path="url(#clip9)" clip-rule="nonzero">
<g clip-path="url(#clip10)" clip-rule="nonzero">
<path style=" stroke:none;fill-rule:nonzero;fill:rgb(94.117647%,89.019608%,92.54902%);fill-opacity:0.996078;" d="M 6.484375 2.441406 L 17.496094 2.441406 C 18.253906 2.441406 18.871094 3.023438 18.871094 3.742188 L 18.871094 8.722656 C 18.871094 9.441406 18.253906 10.023438 17.496094 10.023438 L 6.484375 10.023438 C 5.726562 10.023438 5.109375 9.441406 5.109375 8.722656 L 5.109375 3.742188 C 5.109375 3.023438 5.726562 2.441406 6.484375 2.441406 Z M 6.484375 2.441406 "/>
</g>
</g>
<g clip-path="url(#clip11)" clip-rule="nonzero">
<g clip-path="url(#clip12)" clip-rule="nonzero">
<path style="fill:none;stroke-width:0.404233;stroke-linecap:butt;stroke-linejoin:miter;stroke:rgb(90.196079%,0.784314%,70.588237%);stroke-opacity:1;stroke-miterlimit:4;" d="M 1.420296 -2.119184 L 4.923633 -2.119184 C 5.164728 -2.119184 5.361084 -1.986322 5.361084 -1.822251 L 5.361084 -0.685348 C 5.361084 -0.521277 5.164728 -0.388415 4.923633 -0.388415 L 1.420296 -0.388415 C 1.179201 -0.388415 0.982845 -0.521277 0.982845 -0.685348 L 0.982845 -1.822251 C 0.982845 -1.986322 1.179201 -2.119184 1.420296 -2.119184 Z M 1.420296 -2.119184 " transform="matrix(3.143209,0,0,4.380731,2.020087,11.72498)"/>
</g>
</g>
<path style="fill-rule:evenodd;fill:rgb(61.56863%,22.745098%,60.784316%);fill-opacity:1;stroke-width:0.214884;stroke-linecap:round;stroke-linejoin:round;stroke:rgb(90.196079%,0.784314%,70.588237%);stroke-opacity:1;stroke-miterlimit:4;" d="M -0.927332 -2.657396 C -0.927332 -2.566485 -1.002105 -2.492409 -1.095851 -2.492409 C -1.188481 -2.492409 -1.263254 -2.566485 -1.263254 -2.657396 C -1.263254 -2.749429 -1.188481 -2.823504 -1.095851 -2.823504 C -1.002105 -2.823504 -0.927332 -2.749429 -0.927332 -2.657396 Z M -0.927332 -2.657396 " transform="matrix(3.500155,0,0,3.480397,23.112992,19.405041)"/>
<path style="fill-rule:evenodd;fill:rgb(61.56863%,22.745098%,60.784316%);fill-opacity:1;stroke-width:0.214884;stroke-linecap:round;stroke-linejoin:round;stroke:rgb(90.196079%,0.784314%,70.588237%);stroke-opacity:1;stroke-miterlimit:4;" d="M -1.773276 -2.656273 C -1.773276 -2.56424 -1.849166 -2.490164 -1.941796 -2.490164 C -2.034426 -2.490164 -2.109199 -2.56424 -2.109199 -2.656273 C -2.109199 -2.747184 -2.034426 -2.82126 -1.941796 -2.82126 C -1.849166 -2.82126 -1.773276 -2.747184 -1.773276 -2.656273 Z M -1.773276 -2.656273 " transform="matrix(3.500155,0,0,3.480397,23.112992,19.405041)"/>
<path style="fill:none;stroke-width:0.429767;stroke-linecap:butt;stroke-linejoin:miter;stroke:rgb(90.196079%,0.784314%,70.588237%);stroke-opacity:1;stroke-miterlimit:4;" d="M -5.292094 -1.710126 L -1.057906 -1.710126 " transform="matrix(3.500155,0,0,3.480397,23.112992,19.405041)"/>
<path style="fill:none;stroke-width:0.429767;stroke-linecap:round;stroke-linejoin:miter;stroke:rgb(90.196079%,0.784314%,70.588237%);stroke-opacity:1;stroke-miterlimit:4;" d="M -4.630293 -1.190474 L -1.707431 -1.190474 " transform="matrix(3.500155,0,0,3.480397,23.112992,19.405041)"/>
<path style="fill:none;stroke-width:0.429767;stroke-linecap:round;stroke-linejoin:miter;stroke:rgb(90.196079%,0.784314%,70.588237%);stroke-opacity:1;stroke-miterlimit:4;" d="M -4.636989 -0.664088 L -1.713011 -0.664088 " transform="matrix(3.500155,0,0,3.480397,23.112992,19.405041)"/>
<path style="fill-rule:nonzero;fill:rgb(61.56863%,22.745098%,60.784316%);fill-opacity:1;stroke-width:0.107442;stroke-linecap:round;stroke-linejoin:round;stroke:rgb(61.56863%,22.745098%,60.784316%);stroke-opacity:1;stroke-miterlimit:4;" d="M -4.641453 0.0665663 C -4.631409 0.168701 -4.5611 0.241654 -4.471818 0.241654 C -4.412669 0.241654 -4.357984 0.209106 -4.327851 0.157477 C -4.297718 0.210228 -4.245265 0.241654 -4.187232 0.241654 C -4.097951 0.241654 -4.027641 0.168701 -4.017597 0.0665663 C -4.017597 0.0620769 -4.014249 0.0385074 -4.023177 0.000347234 C -4.036569 -0.0546483 -4.066702 -0.105154 -4.110227 -0.144437 L -4.327851 -0.344217 L -4.548823 -0.144437 C -4.592348 -0.105154 -4.622481 -0.0546483 -4.635873 0.000347234 C -4.644801 0.0385074 -4.641453 0.0620769 -4.641453 0.0665663 Z M -4.612437 0.00595902 C -4.60016 -0.0445471 -4.573376 -0.0905637 -4.533199 -0.126479 L -4.327851 -0.311668 L -4.125851 -0.126479 C -4.085674 -0.0905637 -4.05889 -0.0445471 -4.046614 0.00595902 C -4.037685 0.0429968 -4.042149 0.0631993 -4.042149 0.0631993 L -4.042149 0.0643216 C -4.049962 0.152988 -4.111343 0.216962 -4.187232 0.216962 C -4.243033 0.216962 -4.293254 0.182169 -4.316691 0.126051 L -4.327851 0.100237 L -4.339011 0.126051 C -4.362448 0.182169 -4.413785 0.216962 -4.471818 0.216962 C -4.547707 0.216962 -4.609089 0.152988 -4.616901 0.0631993 C -4.616901 0.0631993 -4.621365 0.0429968 -4.612437 0.00595902 Z M -4.612437 0.00595902 " transform="matrix(3.500155,0,0,3.480397,23.112992,19.405041)"/>
<path style=" stroke:none;fill-rule:nonzero;fill:rgb(90.196079%,0.784314%,70.588237%);fill-opacity:1;" d="M 17.007812 16.609375 C 16.671875 16.949219 15.449219 17.46875 15.773438 17.8125 L 16.941406 19.082031 L 17.554688 18.480469 L 20.667969 21.871094 C 21.441406 22.738281 22.699219 21.515625 21.898438 20.667969 L 18.789062 17.28125 L 19.40625 16.679688 L 18.238281 15.410156 C 17.914062 15.046875 17.347656 16.265625 17.007812 16.609375 Z M 17.007812 16.609375 "/>
<path style="fill-rule:nonzero;fill:rgb(95.294118%,71.764708%,85.09804%);fill-opacity:1;stroke-width:1.624349;stroke-linecap:square;stroke-linejoin:miter;stroke:rgb(90.196079%,0.784314%,70.588237%);stroke-opacity:1;stroke-miterlimit:4;" d="M 6.908662 18.142858 C 6.907467 21.258466 4.384933 23.784662 1.270635 23.785408 C -1.843662 23.786155 -4.368134 21.257445 -4.369841 18.144906 C -4.368646 15.029298 -1.846112 12.503102 1.268186 12.502356 C 4.382483 12.501609 6.909857 15.02725 6.908662 18.142858 Z M 6.908662 18.142858 " transform="matrix(0.669946,-0.635767,0.63341,0.671776,0.910957,1.009052)"/>
<path style="fill-rule:nonzero;fill:rgb(95.294118%,71.764708%,85.09804%);fill-opacity:1;stroke-width:1.624317;stroke-linecap:round;stroke-linejoin:miter;stroke:rgb(61.56863%,22.745098%,60.784316%);stroke-opacity:1;stroke-miterlimit:4;" d="M 11.202239 9.123155 C 11.860252 8.698957 12.640589 8.46989 13.467324 8.499584 C 14.555577 8.537762 15.525726 9.017106 16.22592 9.767937 " transform="matrix(0.926083,0,0,0.920855,0.910957,1.009052)"/>
<path style="fill:none;stroke-width:1.624317;stroke-linecap:round;stroke-linejoin:miter;stroke:rgb(61.56863%,22.745098%,60.784316%);stroke-opacity:1;stroke-miterlimit:4;" d="M 19.119492 16.270894 L 16.803791 18.671855 " transform="matrix(0.926083,0,0,0.920855,0.910957,1.009052)"/>
</g>
</svg>
