<?xml version="1.0" encoding="UTF-8"?>
<svg xmlns="http://www.w3.org/2000/svg" xmlns:xlink="http://www.w3.org/1999/xlink" width="24px" height="24px" viewBox="0 0 24 24" version="1.1">
<g id="surface1">
<path style="fill-rule:nonzero;fill:rgb(94.117647%,89.019608%,92.54902%);fill-opacity:1;stroke-width:1;stroke-linecap:butt;stroke-linejoin:miter;stroke:rgb(90.196079%,0.784314%,70.588237%);stroke-opacity:1;stroke-miterlimit:4;" d="M 2.135603 1.280652 C 1.599144 1.283256 1.166853 1.692111 1.166853 2.199923 L 1.166853 9.762423 C 1.166853 10.27284 1.599144 10.673881 2.135603 10.681694 L 7.781436 10.676486 L 11.768415 10.671277 C 12.304873 10.671277 12.737165 10.259819 12.737165 9.752006 L 12.737165 2.189506 C 12.737165 1.67909 12.304873 1.270236 11.768415 1.270236 L 11.086123 1.265027 L 11.086123 1.809298 C 11.086123 1.942111 10.974144 2.048881 10.836123 2.048881 L 9.685082 2.048881 C 9.544457 2.048881 9.432478 1.942111 9.432478 1.809298 L 9.432478 1.265027 Z M 2.135603 1.280652 " transform="matrix(1.5,0,0,1.5,0.445034,0.356365)"/>
<path style="fill-rule:nonzero;fill:rgb(95.294118%,71.764708%,85.09804%);fill-opacity:1;stroke-width:0.5;stroke-linecap:butt;stroke-linejoin:miter;stroke:rgb(61.56863%,22.745098%,60.784316%);stroke-opacity:1;stroke-miterlimit:4;" d="M 2.823103 3.069715 L 11.052269 3.069715 C 11.234561 3.069715 11.382998 3.218152 11.382998 3.400444 L 11.382998 8.504611 C 11.382998 8.686902 11.234561 8.83534 11.052269 8.83534 L 2.823103 8.83534 C 2.643415 8.83534 2.494978 8.686902 2.494978 8.504611 L 2.494978 3.400444 C 2.494978 3.218152 2.643415 3.069715 2.823103 3.069715 Z M 2.823103 3.069715 " transform="matrix(1.5,0,0,1.5,0.445034,0.356365)"/>
<path style="fill-rule:nonzero;fill:rgb(94.117647%,89.019608%,92.54902%);fill-opacity:1;stroke-width:1;stroke-linecap:butt;stroke-linejoin:miter;stroke:rgb(90.196079%,0.784314%,70.588237%);stroke-opacity:1;stroke-miterlimit:4;" d="M 3.685082 5.244194 C 3.151228 5.244194 2.72154 5.637423 2.72154 6.127006 L 2.72154 13.382215 C 2.72154 13.869194 3.151228 14.254611 3.685082 14.262423 L 9.307478 14.257215 L 13.278832 14.252006 C 13.812686 14.252006 14.244978 13.858777 14.244978 13.369194 L 14.244978 6.113986 C 14.244978 5.627006 13.812686 5.233777 13.278832 5.233777 L 12.599144 5.228569 L 12.599144 5.752006 C 12.599144 5.879611 12.489769 5.981173 12.349144 5.981173 L 11.203311 5.981173 C 11.06529 5.981173 10.953311 5.879611 10.953311 5.752006 L 10.953311 5.228569 Z M 3.685082 5.244194 " transform="matrix(1.5,0,0,1.5,0.445034,0.356365)"/>
<path style="fill-rule:nonzero;fill:rgb(95.294118%,71.764708%,85.09804%);fill-opacity:1;stroke-width:0.5;stroke-linecap:butt;stroke-linejoin:miter;stroke:rgb(61.56863%,22.745098%,60.784316%);stroke-opacity:1;stroke-miterlimit:4;" d="M 4.263207 7.048881 L 12.492373 7.048881 C 12.674665 7.048881 12.820498 7.197319 12.820498 7.379611 L 12.820498 12.483777 C 12.820498 12.666069 12.674665 12.811902 12.492373 12.811902 L 4.263207 12.811902 C 4.080915 12.811902 3.932478 12.666069 3.932478 12.483777 L 3.932478 7.379611 C 3.932478 7.197319 4.080915 7.048881 4.263207 7.048881 Z M 4.263207 7.048881 " transform="matrix(1.5,0,0,1.5,0.445034,0.356365)"/>
<path style="fill-rule:evenodd;fill:rgb(95.294118%,71.764708%,85.09804%);fill-opacity:1;stroke-width:16.621611;stroke-linecap:butt;stroke-linejoin:miter;stroke:rgb(61.56863%,22.745098%,60.784316%);stroke-opacity:1;stroke-miterlimit:4;" d="M 90.939974 17.463407 C 88.342847 17.549978 85.745721 18.372402 83.624734 19.973963 L 12.982888 71.656784 C 9.952907 73.864342 7.918491 77.500319 7.918491 81.525865 C 7.918491 85.551412 9.952907 89.187389 12.982888 91.394947 L 83.624734 143.121053 C 87.477138 145.934607 92.368394 146.324176 96.610367 144.462902 C 100.76577 142.644913 104.098749 138.316369 104.098749 133.251972 L 104.098749 29.799759 C 104.098749 26.250353 102.453902 22.917373 99.943347 20.66653 C 97.302934 18.372402 94.099812 17.376837 90.939974 17.463407 Z M 90.939974 17.463407 " transform="matrix(0.090244,0,0,-0.090244,1.543216,15.443155)"/>
</g>
</svg>
