<?xml version="1.0" encoding="UTF-8"?>
<svg xmlns="http://www.w3.org/2000/svg" xmlns:xlink="http://www.w3.org/1999/xlink" width="24px" height="24px" viewBox="0 0 24 24" version="1.1">
<g id="surface1">
<path style="fill-rule:nonzero;fill:rgb(95.294118%,71.764708%,85.09804%);fill-opacity:1;stroke-width:1;stroke-linecap:round;stroke-linejoin:round;stroke:rgb(61.56863%,22.745098%,60.784316%);stroke-opacity:1;stroke-miterlimit:4;" d="M 5.15625 1.539062 L 13.554688 1.539062 C 14.039062 1.539062 14.432292 1.932292 14.432292 2.419271 L 14.432292 9.648438 C 14.432292 10.135417 14.039062 10.528646 13.554688 10.528646 L 5.15625 10.528646 C 4.671875 10.528646 4.278646 10.135417 4.278646 9.648438 L 4.278646 2.419271 C 4.278646 1.932292 4.671875 1.539062 5.15625 1.539062 Z M 5.15625 1.539062 " transform="matrix(1.5,0,0,1.5,0,0)"/>
<path style="fill-rule:nonzero;fill:rgb(94.117647%,89.019608%,92.54902%);fill-opacity:1;stroke-width:0.563015;stroke-linecap:butt;stroke-linejoin:miter;stroke:rgb(90.196079%,0.784314%,70.588237%);stroke-opacity:1;stroke-miterlimit:4;" d="M 8.465878 5.755944 C 9.289008 6.748129 9.798703 7.74912 9.965672 8.755981 C 9.965672 8.755981 10.46658 7.255963 11.465467 7.255963 " transform="matrix(1.333516,0,0,1.330713,1.128582,0.879554)"/>
<path style="fill-rule:nonzero;fill:rgb(94.117647%,89.019608%,92.54902%);fill-opacity:1;stroke-width:2.693897;stroke-linecap:butt;stroke-linejoin:miter;stroke:rgb(90.196079%,0.784314%,70.588237%);stroke-opacity:1;stroke-miterlimit:4;" d="M -1.066853 15.473444 C -2.79297 16.167457 -3.244196 14.092289 -3.244196 14.092289 C -3.244196 14.092289 -4.168135 16.346114 -5.679383 15.013059 C -7.197794 13.680004 -4.970314 12.614934 -4.970314 12.614934 C -4.970314 12.614934 -7.534423 12.415663 -6.646296 10.697809 C -5.751006 8.979954 -4.024889 10.594737 -4.024889 10.594737 C -4.024889 10.594737 -4.733958 8.265327 -2.628237 8.492084 C -0.522517 8.711969 -1.718623 10.828366 -1.718623 10.828366 C -1.718623 10.828366 0.45872 9.708325 0.816836 11.439922 C 1.174952 13.17839 -1.238748 12.985991 -1.238748 12.985991 C -1.238748 12.985991 0.659265 14.77943 -1.066853 15.473444 Z M -1.066853 15.473444 " transform="matrix(0.545389,0,0,0.568478,13.699037,-0.507251)"/>
<path style="fill-rule:nonzero;fill:rgb(94.117647%,89.019608%,92.54902%);fill-opacity:1;stroke-width:2.693897;stroke-linecap:butt;stroke-linejoin:miter;stroke:rgb(90.196079%,0.784314%,70.588237%);stroke-opacity:1;stroke-miterlimit:4;" d="M -1.912006 13.968603 C -2.878918 14.353403 -3.136761 13.192133 -3.136761 13.192133 C -3.136761 13.192133 -3.645286 14.456474 -4.497601 13.707489 C -5.342754 12.958505 -4.096512 12.360692 -4.096512 12.360692 C -4.096512 12.360692 -5.536137 12.250749 -5.034775 11.288751 C -4.540575 10.326752 -3.573663 11.233779 -3.573663 11.233779 C -3.573663 11.233779 -3.96759 9.92821 -2.785808 10.051896 C -1.611188 10.175581 -2.277284 11.364336 -2.277284 11.364336 C -2.277284 11.364336 -1.05969 10.739037 -0.859145 11.707907 C -0.658601 12.676777 -2.012278 12.573706 -2.012278 12.573706 C -2.012278 12.573706 -0.945093 13.576932 -1.912006 13.968603 Z M -1.912006 13.968603 " transform="matrix(0.545389,0,0,0.568478,13.699037,-0.507251)"/>
<path style="fill-rule:nonzero;fill:rgb(94.117647%,89.019608%,92.54902%);fill-opacity:1;stroke-width:0.808169;stroke-linecap:butt;stroke-linejoin:miter;stroke:rgb(90.196079%,0.784314%,70.588237%);stroke-opacity:1;stroke-miterlimit:4;" d="M -1.804571 12.044606 C -1.804571 12.697391 -2.334582 13.233362 -2.986353 13.233362 C -3.645286 13.233362 -4.175297 12.697391 -4.175297 12.044606 C -4.175297 11.391822 -3.645286 10.855851 -2.986353 10.855851 C -2.334582 10.855851 -1.804571 11.391822 -1.804571 12.044606 Z M -1.804571 12.044606 " transform="matrix(0.545389,0,0,0.568478,13.699037,-0.507251)"/>
<path style="fill-rule:nonzero;fill:rgb(94.117647%,89.019608%,92.54902%);fill-opacity:1;stroke-width:2.693897;stroke-linecap:butt;stroke-linejoin:miter;stroke:rgb(90.196079%,0.784314%,70.588237%);stroke-opacity:1;stroke-miterlimit:4;" d="M -1.071052 15.473028 C -2.79717 16.167041 -3.248396 14.091874 -3.248396 14.091874 C -3.248396 14.091874 -4.165172 16.345698 -5.683583 15.012643 C -7.194832 13.679588 -4.967352 12.614519 -4.967352 12.614519 C -4.967352 12.614519 -7.538623 12.415248 -6.643333 10.697394 C -5.755206 8.979539 -4.029088 10.594322 -4.029088 10.594322 C -4.029088 10.594322 -4.730995 8.271783 -2.632437 8.491669 C -0.526717 8.711554 -1.722823 10.82795 -1.722823 10.82795 C -1.722823 10.82795 0.454521 9.707909 0.819799 11.439507 C 1.177914 13.177975 -1.242948 12.985575 -1.242948 12.985575 C -1.242948 12.985575 0.655065 14.779015 -1.071052 15.473028 Z M -1.071052 15.473028 " transform="matrix(0.545389,0,0,0.568478,18.615391,2.516422)"/>
<path style="fill-rule:nonzero;fill:rgb(94.117647%,89.019608%,92.54902%);fill-opacity:1;stroke-width:2.693897;stroke-linecap:butt;stroke-linejoin:miter;stroke:rgb(90.196079%,0.784314%,70.588237%);stroke-opacity:1;stroke-miterlimit:4;" d="M -1.916206 13.968188 C -2.883118 14.352987 -3.133799 13.191718 -3.133799 13.191718 C -3.133799 13.191718 -3.649486 14.456059 -4.494639 13.707074 C -5.346954 12.95809 -4.100712 12.360276 -4.100712 12.360276 C -4.100712 12.360276 -5.533175 12.250334 -5.038975 11.288335 C -4.537613 10.326337 -3.5707 11.233364 -3.5707 11.233364 C -3.5707 11.233364 -3.964628 9.927795 -2.790008 10.05148 C -1.608226 10.175166 -2.281484 11.363921 -2.281484 11.363921 C -2.281484 11.363921 -1.056728 10.738622 -0.856183 11.707492 C -0.655638 12.676362 -2.009316 12.57329 -2.009316 12.57329 C -2.009316 12.57329 -0.949293 13.576517 -1.916206 13.968188 Z M -1.916206 13.968188 " transform="matrix(0.545389,0,0,0.568478,18.615391,2.516422)"/>
<path style="fill-rule:nonzero;fill:rgb(94.117647%,89.019608%,92.54902%);fill-opacity:1;stroke-width:0.808169;stroke-linecap:butt;stroke-linejoin:miter;stroke:rgb(90.196079%,0.784314%,70.588237%);stroke-opacity:1;stroke-miterlimit:4;" d="M -1.801609 12.044191 C -1.801609 12.696976 -2.33162 13.232946 -2.990553 13.232946 C -3.642323 13.232946 -4.172335 12.696976 -4.172335 12.044191 C -4.172335 11.391407 -3.642323 10.855436 -2.990553 10.855436 C -2.33162 10.855436 -1.801609 11.391407 -1.801609 12.044191 Z M -1.801609 12.044191 " transform="matrix(0.545389,0,0,0.568478,18.615391,2.516422)"/>
<path style="fill-rule:nonzero;fill:rgb(94.117647%,89.019608%,92.54902%);fill-opacity:1;stroke-width:1;stroke-linecap:round;stroke-linejoin:round;stroke:rgb(90.196079%,0.784314%,70.588237%);stroke-opacity:1;stroke-miterlimit:4;" d="M 2.377604 4.523438 L 10.664062 4.523438 C 11.148438 4.523438 11.541667 4.916667 11.541667 5.401042 L 11.541667 12.565104 C 11.541667 13.049479 11.148438 13.442708 10.664062 13.442708 L 2.377604 13.442708 C 1.893229 13.442708 1.5 13.049479 1.5 12.565104 L 1.5 5.401042 C 1.5 4.916667 1.893229 4.523438 2.377604 4.523438 Z M 2.377604 4.523438 " transform="matrix(1.5,0,0,1.5,0,0)"/>
<path style="fill:none;stroke-width:0.5;stroke-linecap:butt;stroke-linejoin:miter;stroke:rgb(61.56863%,22.745098%,60.784316%);stroke-opacity:1;stroke-miterlimit:4;" d="M 5.161458 9.286458 C 5.893229 10.166667 6.346354 11.054688 6.494792 11.947917 C 6.494792 11.947917 6.9375 10.617188 7.828125 10.617188 " transform="matrix(1.5,0,0,1.5,0,0)"/>
<path style="fill-rule:nonzero;fill:rgb(61.56863%,22.745098%,60.784316%);fill-opacity:1;stroke-width:2.693897;stroke-linecap:butt;stroke-linejoin:miter;stroke:rgb(90.196079%,0.784314%,70.588237%);stroke-opacity:1;stroke-miterlimit:4;" d="M -1.07001 15.474842 C -2.796128 16.168855 -3.247354 14.086816 -3.247354 14.086816 C -3.247354 14.086816 -4.16413 16.347512 -5.682541 15.014457 C -7.193789 13.681402 -4.973472 12.616333 -4.973472 12.616333 C -4.973472 12.616333 -7.53758 12.417061 -6.642291 10.692336 C -5.754164 8.974481 -4.028046 10.596136 -4.028046 10.596136 C -4.028046 10.596136 -4.737115 8.266725 -2.631395 8.486611 C -0.525674 8.706496 -1.721781 10.829764 -1.721781 10.829764 C -1.721781 10.829764 0.455563 9.709723 0.813679 11.44132 C 1.178957 13.179789 -1.241906 12.987389 -1.241906 12.987389 C -1.241906 12.987389 0.656108 14.780829 -1.07001 15.474842 Z M -1.07001 15.474842 " transform="matrix(0.545389,0,0,0.568478,9.021072,4.882579)"/>
<path style="fill-rule:nonzero;fill:rgb(61.56863%,22.745098%,60.784316%);fill-opacity:1;stroke-width:2.693897;stroke-linecap:butt;stroke-linejoin:miter;stroke:rgb(95.294118%,71.764708%,85.09804%);stroke-opacity:1;stroke-miterlimit:4;" d="M -1.915163 13.96313 C -2.882076 14.354801 -3.132757 13.193532 -3.132757 13.193532 C -3.132757 13.193532 -3.648443 14.451001 -4.493597 13.708888 C -5.345912 12.959903 -4.099669 12.36209 -4.099669 12.36209 C -4.099669 12.36209 -5.532132 12.252147 -5.037932 11.290149 C -4.53657 10.328151 -3.569658 11.235178 -3.569658 11.235178 C -3.569658 11.235178 -3.963585 9.929608 -2.788966 10.053294 C -1.607184 10.176979 -2.280441 11.365735 -2.280441 11.365735 C -2.280441 11.365735 -1.062848 10.733564 -0.855141 11.709305 C -0.654596 12.678175 -2.008273 12.575104 -2.008273 12.575104 C -2.008273 12.575104 -0.948251 13.578331 -1.915163 13.96313 Z M -1.915163 13.96313 " transform="matrix(0.545389,0,0,0.568478,9.021072,4.882579)"/>
<path style=" stroke:none;fill-rule:nonzero;fill:rgb(61.56863%,22.745098%,60.784316%);fill-opacity:1;" d="M 8.039062 11.730469 C 8.039062 12.101562 7.75 12.402344 7.390625 12.402344 C 7.035156 12.402344 6.742188 12.101562 6.742188 11.730469 C 6.742188 11.355469 7.035156 11.054688 7.390625 11.054688 C 7.75 11.054688 8.039062 11.355469 8.039062 11.730469 Z M 8.039062 11.730469 "/>
<path style="fill-rule:nonzero;fill:rgb(90.196079%,0.784314%,70.588237%);fill-opacity:1;stroke-width:2.693897;stroke-linecap:butt;stroke-linejoin:miter;stroke:rgb(90.196079%,0.784314%,70.588237%);stroke-opacity:1;stroke-miterlimit:4;" d="M -1.067047 15.474426 C -2.793165 16.168439 -3.24439 14.093271 -3.24439 14.093271 C -3.24439 14.093271 -4.168329 16.347096 -5.679577 15.014041 C -7.197988 13.680986 -4.970508 12.615917 -4.970508 12.615917 C -4.970508 12.615917 -7.534617 12.416646 -6.64649 10.698791 C -5.7512 8.980937 -4.025083 10.59572 -4.025083 10.59572 C -4.025083 10.59572 -4.734152 8.26631 -2.628431 8.486195 C -0.522711 8.70608 -1.718817 10.829348 -1.718817 10.829348 C -1.718817 10.829348 0.458526 9.709307 0.816642 11.440904 C 1.174758 13.179373 -1.238942 12.986973 -1.238942 12.986973 C -1.238942 12.986973 0.659071 14.780413 -1.067047 15.474426 Z M -1.067047 15.474426 " transform="matrix(0.545389,0,0,0.568478,13.937425,7.906253)"/>
<path style="fill-rule:nonzero;fill:rgb(95.294118%,71.764708%,85.09804%);fill-opacity:1;stroke-width:2.693897;stroke-linecap:butt;stroke-linejoin:miter;stroke:rgb(95.294118%,71.764708%,85.09804%);stroke-opacity:1;stroke-miterlimit:4;" d="M -1.9122 13.962715 C -2.879112 14.354385 -3.136956 13.193116 -3.136956 13.193116 C -3.136956 13.193116 -3.64548 14.450585 -4.497795 13.708472 C -5.342949 12.959488 -4.096706 12.361674 -4.096706 12.361674 C -4.096706 12.361674 -5.536331 12.251732 -5.034969 11.289733 C -4.540769 10.327735 -3.573857 11.234762 -3.573857 11.234762 C -3.573857 11.234762 -3.967784 9.929193 -2.786002 10.052878 C -1.611383 10.176564 -2.277478 11.365319 -2.277478 11.365319 C -2.277478 11.365319 -1.059884 10.733148 -0.85934 11.70889 C -0.658795 12.677759 -2.012472 12.574688 -2.012472 12.574688 C -2.012472 12.574688 -0.945287 13.577915 -1.9122 13.962715 Z M -1.9122 13.962715 " transform="matrix(0.545389,0,0,0.568478,13.937425,7.906253)"/>
<path style=" stroke:none;fill-rule:nonzero;fill:rgb(61.56863%,22.745098%,60.784316%);fill-opacity:1;" d="M 12.953125 14.753906 C 12.953125 15.125 12.664062 15.429688 12.308594 15.429688 C 11.949219 15.429688 11.660156 15.125 11.660156 14.753906 C 11.660156 14.378906 11.949219 14.078125 12.308594 14.078125 C 12.664062 14.078125 12.953125 14.378906 12.953125 14.753906 Z M 12.953125 14.753906 "/>
</g>
</svg>
