<?xml version="1.0" encoding="UTF-8" standalone="no"?>
<svg
   xmlns:dc="http://purl.org/dc/elements/1.1/"
   xmlns:cc="http://creativecommons.org/ns#"
   xmlns:rdf="http://www.w3.org/1999/02/22-rdf-syntax-ns#"
   xmlns:svg="http://www.w3.org/2000/svg"
   xmlns="http://www.w3.org/2000/svg"
   xmlns:sodipodi="http://sodipodi.sourceforge.net/DTD/sodipodi-0.dtd"
   xmlns:inkscape="http://www.inkscape.org/namespaces/inkscape"
   height="24"
   viewBox="0 0 6.3499999 6.3500002"
   width="24"
   version="1.1"
   id="svg32"
   sodipodi:docname="lc_preformattedparastyle.svg"
   inkscape:version="0.92.4 (unknown)"
   inkscape:export-filename="/home/annisaauliarasyidah/Desktop/4_242 (aulia)/lc 222/lc_preformattedparastyle.png"
   inkscape:export-xdpi="96"
   inkscape:export-ydpi="96">
  <metadata
     id="metadata38">
    <rdf:RDF>
      <cc:Work
         rdf:about="">
        <dc:format>image/svg+xml</dc:format>
        <dc:type
           rdf:resource="http://purl.org/dc/dcmitype/StillImage" />
        <dc:title></dc:title>
      </cc:Work>
    </rdf:RDF>
  </metadata>
  <defs
     id="defs36" />
  <sodipodi:namedview
     pagecolor="#ffffff"
     bordercolor="#666666"
     borderopacity="1"
     objecttolerance="10"
     gridtolerance="10"
     guidetolerance="10"
     inkscape:pageopacity="0"
     inkscape:pageshadow="2"
     inkscape:window-width="1366"
     inkscape:window-height="707"
     id="namedview34"
     showgrid="false"
     inkscape:zoom="7.8071289"
     inkscape:cx="-9.3684408"
     inkscape:cy="8.0520648"
     inkscape:window-x="0"
     inkscape:window-y="0"
     inkscape:window-maximized="1"
     inkscape:current-layer="svg32" />
  <filter
     id="a"
     height="1.005726"
     width="1.009696"
     x="-0.0048480001"
     y="-0.0028629999"
     style="color-interpolation-filters:sRGB">
    <feGaussianBlur
       stdDeviation=".12613919"
       id="feGaussianBlur2" />
  </filter>
  <linearGradient
     id="b"
     gradientUnits="userSpaceOnUse"
     x1="39.054226"
     x2="46.698284"
     y1="78.860413"
     y2="-95.683258">
    <stop
       offset="0"
       stop-color="#06f"
       id="stop5" />
    <stop
       offset="1"
       stop-color="#80b3ff"
       id="stop7" />
  </linearGradient>
  <linearGradient
     id="c"
     gradientUnits="userSpaceOnUse"
     x1="13.640021"
     x2="14.869683"
     y1="294.8226"
     y2="266.54037"
     gradientTransform="matrix(0.15815215,0,0,0.15815215,-0.021821,-42.674503)">
    <stop
       offset="0"
       stop-color="#555"
       id="stop10" />
    <stop
       offset="1"
       id="stop12" />
  </linearGradient>
  <linearGradient
     id="d"
     gradientUnits="userSpaceOnUse"
     x1="9.2362337"
     x2="10.775606"
     y1="270.83066"
     y2="284.685"
     gradientTransform="matrix(0.15815215,0,0,0.15815215,-0.021821,-42.674503)">
    <stop
       offset="0"
       stop-color="#3b3e22"
       id="stop15" />
    <stop
       offset="1"
       stop-color="#454545"
       stop-opacity="0"
       id="stop17" />
  </linearGradient>
  <g
     id="g830"
     transform="matrix(1.5081344,0,0,1.4319315,-0.03688193,-0.111518)"
     style="stroke-width:0.68048543">
    <text
       style="font-size:6.46810293px;font-family:sans-serif;letter-spacing:0;word-spacing:0;fill:#f3b7d9;stroke:#9d3a9b;stroke-width:0.09002256;stroke-miterlimit:4;stroke-dasharray:none;stroke-opacity:1"
       x="-0.1239196"
       y="3.9124591"
       id="text22">
      <tspan
         font-size="43.038166"
         x="-0.1239196"
         y="3.9124591"
         id="tspan20"
         style="font-size:6.80657864px;font-family:FreeSerif;fill:#f3b7d9;stroke:#9d3a9b;stroke-width:0.09002256;stroke-miterlimit:4;stroke-dasharray:none;stroke-opacity:1">&lt;</tspan>
    </text>
    <path
       style="fill:#e602b4;stroke-width:0.68048543;filter:url(#a)"
       id="path28"
       transform="matrix(0.0175154,0,0,0.0175154,2.599567,2.10844)"
       d="m 25.113281,-14.748047 a 22.606266,22.606266 0 0 0 -6.882812,1.076172 c -23.0768169,4.3318031 -40.493044,24.669281 -40.53125,48.433594 a 22.606266,22.606266 0 0 0 0,0.0078 c -1.1e-4,0.07119 -1.06e-4,0.07238 0,0.0039 a 22.606266,22.606266 0 0 0 0,0.04883 c -4.2e-5,-0.04223 -4.7e-5,-0.04044 0,0.0059 a 22.606266,22.606266 0 0 0 0,0.0039 c 0.02011,19.17918 11.363797,36.1651 27.8496091,44.326172 V 98.490234 A 22.606266,22.606266 0 0 0 28.152344,121.09375 h 4.857422 a 22.606266,22.606266 0 0 0 8.578125,-1.70313 22.606266,22.606266 0 0 0 8.564453,1.70313 h 4.857422 A 22.606266,22.606266 0 0 0 77.613281,98.490234 V 33.544922 A 22.606266,22.606266 0 0 0 92.904297,12.181641 V 7.8554688 A 22.606266,22.606266 0 0 0 70.300781,-14.748047 H 67.052734 47.662109 35.5 Z m -3.517578,0.363281 c -0.217842,0.02502 -0.415859,0.106895 -0.632812,0.134766 0.176843,-0.02653 0.343812,-0.0998 0.521484,-0.121094 z m 45.462891,49.169922 h 0.242187 c -0.008,0.0035 -0.01423,0.0087 -0.02148,0.01172 -0.223575,-8.99e-4 0.0657,-0.01179 -0.220703,-0.01172 z"
       inkscape:connector-curvature="0" />
    <path
       style="fill:#f3b7d9;stroke-width:0.68048543;filter:url(#a)"
       id="path30"
       transform="matrix(0.0175154,0,0,0.0175154,2.599567,2.10844)"
       d="m 25.113282,7.8556102 c -0.304465,0.1057657 -0.61943,0.17845 -0.939453,0.2167969 C 10.550919,9.6367477 0.32477862,21.087636 0.30273462,34.79897 c 2e-6,0.002 -2e-6,0.0039 0,0.0059 -2e-6,0.0013 2e-6,0.0026 0,0.0039 0.01438,13.717156 10.24240938,25.177175 23.87109438,26.742187 2.266783,0.260505 3.978015,2.179234 3.978516,4.460937 v 32.47823 h 8.63386 l 0.713796,-73.029045 h 8.162109 l 0.713797,73.029015 h 8.63386 V 16.672017 c 5.83e-4,-2.479647 9.563464,-4.489651 12.04311,-4.490235 h 3.248047 V 7.8556102 H 67.052877 47.66211 35.500001 Z"
       inkscape:connector-curvature="0" />
  </g>
</svg>
