<?xml version="1.0" encoding="UTF-8"?>
<svg xmlns="http://www.w3.org/2000/svg" xmlns:xlink="http://www.w3.org/1999/xlink" width="24px" height="24px" viewBox="0 0 24 24" version="1.1">
<defs>
<clipPath id="clip1">
  <path d="M 2 8 L 22 8 L 22 19 L 2 19 Z M 2 8 "/>
</clipPath>
<clipPath id="clip2">
  <path d="M 4.839844 19.019531 L 4.839844 13.867188 L 19.234375 13.867188 L 19.234375 19.019531 L 23.753906 19.105469 L 23.753906 7.285156 L 0.324219 7.285156 L 0.324219 19.105469 Z M 4.839844 19.019531 "/>
</clipPath>
<clipPath id="clip3">
  <path d="M 0 7 L 24 7 L 24 20 L 0 20 Z M 0 7 "/>
</clipPath>
<clipPath id="clip4">
  <path d="M 4.839844 19.019531 L 4.839844 13.867188 L 19.234375 13.867188 L 19.234375 19.019531 L 23.753906 19.105469 L 23.753906 7.285156 L 0.324219 7.285156 L 0.324219 19.105469 Z M 4.839844 19.019531 "/>
</clipPath>
<clipPath id="clip5">
  <path d="M 5 12 L 20 12 L 20 22 L 5 22 Z M 5 12 "/>
</clipPath>
<clipPath id="clip6">
  <path d="M 4.464844 12.75 L 19.636719 12.75 L 19.636719 22.066406 L 4.464844 22.648438 Z M 4.464844 12.75 "/>
</clipPath>
<clipPath id="clip7">
  <path d="M 4 12 L 20 12 L 20 23 L 4 23 Z M 4 12 "/>
</clipPath>
<clipPath id="clip8">
  <path d="M 4.464844 12.75 L 19.636719 12.75 L 19.636719 22.066406 L 4.464844 22.648438 Z M 4.464844 12.75 "/>
</clipPath>
<clipPath id="clip9">
  <path d="M 5 2 L 19 2 L 19 8 L 5 8 Z M 5 2 "/>
</clipPath>
<clipPath id="clip10">
  <path d="M 4.128906 7.5 L 19.929688 7.5 L 19.929688 1.027344 C 19.929688 1.027344 5.117188 -0.269531 4.128906 1.027344 C 3.140625 2.320312 3.140625 2.320312 3.140625 2.320312 Z M 4.128906 7.5 "/>
</clipPath>
<clipPath id="clip11">
  <path d="M 3 0 L 20 0 L 20 8 L 3 8 Z M 3 0 "/>
</clipPath>
<clipPath id="clip12">
  <path d="M 4.128906 7.5 L 19.929688 7.5 L 19.929688 1.027344 C 19.929688 1.027344 5.117188 -0.269531 4.128906 1.027344 C 3.140625 2.320312 3.140625 2.320312 3.140625 2.320312 Z M 4.128906 7.5 "/>
</clipPath>
</defs>
<g id="surface1">
<path style="fill-rule:nonzero;fill:rgb(11.372549%,11.372549%,11.372549%);fill-opacity:1;stroke-width:0.443437;stroke-linecap:butt;stroke-linejoin:miter;stroke:rgb(90.196079%,0.784314%,70.588237%);stroke-opacity:1;stroke-miterlimit:4;" d="M 1.135857 -1.128735 L 5.199258 -1.128735 C 5.503898 -1.128735 5.75013 -0.894695 5.75013 -0.605929 C 5.75013 -0.317163 5.503898 -0.0831221 5.199258 -0.0831221 L 1.135857 -0.0831221 C 0.831216 -0.0831221 0.584984 -0.317163 0.584984 -0.605929 C 0.584984 -0.894695 0.831216 -1.128735 1.135857 -1.128735 Z M 1.135857 -1.128735 " transform="matrix(3.410782,0,0,-3.35479,1.223496,8.49458)"/>
<g clip-path="url(#clip1)" clip-rule="nonzero">
<g clip-path="url(#clip2)" clip-rule="nonzero">
<path style=" stroke:none;fill-rule:nonzero;fill:rgb(95.294118%,71.764708%,85.09804%);fill-opacity:1;" d="M 4.621094 8.226562 L 19.457031 8.226562 C 20.75 8.226562 21.800781 9.386719 21.800781 10.820312 L 21.800781 16.011719 C 21.800781 17.441406 20.75 18.605469 19.457031 18.605469 L 4.621094 18.605469 C 3.324219 18.605469 2.277344 17.441406 2.277344 16.011719 L 2.277344 10.820312 C 2.277344 9.386719 3.324219 8.226562 4.621094 8.226562 Z M 4.621094 8.226562 "/>
</g>
</g>
<g clip-path="url(#clip3)" clip-rule="nonzero">
<g clip-path="url(#clip4)" clip-rule="nonzero">
<path style="fill:none;stroke-width:0.483669;stroke-linecap:butt;stroke-linejoin:miter;stroke:rgb(90.196079%,0.784314%,70.588237%);stroke-opacity:1;stroke-miterlimit:4;" d="M 0.85221 -0.226665 L 5.544405 -0.226665 C 5.953336 -0.226665 6.285669 0.154725 6.285669 0.626005 L 6.285669 2.332631 C 6.285669 2.802627 5.953336 3.185302 5.544405 3.185302 L 0.85221 3.185302 C 0.442044 3.185302 0.110946 2.802627 0.110946 2.332631 L 0.110946 0.626005 C 0.110946 0.154725 0.442044 -0.226665 0.85221 -0.226665 Z M 0.85221 -0.226665 " transform="matrix(3.161833,0,0,3.041913,1.92655,8.916059)"/>
</g>
</g>
<g clip-path="url(#clip5)" clip-rule="nonzero">
<g clip-path="url(#clip6)" clip-rule="nonzero">
<path style=" stroke:none;fill-rule:nonzero;fill:rgb(94.117647%,89.019608%,92.54902%);fill-opacity:0.996078;" d="M 6.269531 11.101562 L 17.824219 11.101562 C 18.492188 11.101562 19.035156 11.683594 19.035156 12.402344 L 19.035156 20.234375 C 19.035156 20.953125 18.492188 21.535156 17.824219 21.535156 L 6.269531 21.535156 C 5.601562 21.535156 5.058594 20.953125 5.058594 20.234375 L 5.058594 12.402344 C 5.058594 11.683594 5.601562 11.101562 6.269531 11.101562 Z M 6.269531 11.101562 "/>
</g>
</g>
<g clip-path="url(#clip7)" clip-rule="nonzero">
<g clip-path="url(#clip8)" clip-rule="nonzero">
<path style="fill:none;stroke-width:0.433521;stroke-linecap:butt;stroke-linejoin:miter;stroke:rgb(90.196079%,0.784314%,70.588237%);stroke-opacity:1;stroke-miterlimit:4;" d="M 1.384878 1.054626 L 4.956742 1.054626 C 5.163229 1.054626 5.331075 1.211897 5.331075 1.40611 L 5.331075 3.5224 C 5.331075 3.716613 5.163229 3.873884 4.956742 3.873884 L 1.384878 3.873884 C 1.178391 3.873884 1.010545 3.716613 1.010545 3.5224 L 1.010545 1.40611 C 1.010545 1.211897 1.178391 1.054626 1.384878 1.054626 Z M 1.384878 1.054626 " transform="matrix(3.234919,0,0,3.70083,1.789563,7.19857)"/>
</g>
</g>
<g clip-path="url(#clip9)" clip-rule="nonzero">
<g clip-path="url(#clip10)" clip-rule="nonzero">
<path style=" stroke:none;fill-rule:nonzero;fill:rgb(94.117647%,89.019608%,92.54902%);fill-opacity:0.996078;" d="M 6.488281 2.320312 L 17.566406 2.320312 C 18.328125 2.320312 18.941406 2.902344 18.941406 3.621094 L 18.941406 8.140625 C 18.941406 8.859375 18.328125 9.441406 17.566406 9.441406 L 6.488281 9.441406 C 5.730469 9.441406 5.117188 8.859375 5.117188 8.140625 L 5.117188 3.621094 C 5.117188 2.902344 5.730469 2.320312 6.488281 2.320312 Z M 6.488281 2.320312 "/>
</g>
</g>
<g clip-path="url(#clip11)" clip-rule="nonzero">
<g clip-path="url(#clip12)" clip-rule="nonzero">
<path style="fill:none;stroke-width:0.416095;stroke-linecap:butt;stroke-linejoin:miter;stroke:rgb(90.196079%,0.784314%,70.588237%);stroke-opacity:1;stroke-miterlimit:4;" d="M 1.417991 -2.119063 L 4.925184 -2.119063 C 5.166335 -2.119063 5.360492 -1.977595 5.360492 -1.802898 L 5.360492 -0.704391 C 5.360492 -0.529694 5.166335 -0.388227 4.925184 -0.388227 L 1.417991 -0.388227 C 1.178077 -0.388227 0.98392 -0.529694 0.98392 -0.704391 L 0.98392 -1.802898 C 0.98392 -1.977595 1.178077 -2.119063 1.417991 -2.119063 Z M 1.417991 -2.119063 " transform="matrix(3.158687,0,0,4.114251,2.009292,11.038668)"/>
</g>
</g>
<path style="fill-rule:evenodd;fill:rgb(61.56863%,22.745098%,60.784316%);fill-opacity:1;stroke-width:0.221718;stroke-linecap:round;stroke-linejoin:round;stroke:rgb(90.196079%,0.784314%,70.588237%);stroke-opacity:1;stroke-miterlimit:4;" d="M 5.48901 0.459217 C 5.48901 0.554696 5.411132 0.631545 5.314929 0.631545 C 5.219872 0.631545 5.141994 0.554696 5.141994 0.459217 C 5.141994 0.364902 5.219872 0.288053 5.314929 0.288053 C 5.411132 0.288053 5.48901 0.364902 5.48901 0.459217 Z M 5.48901 0.459217 " transform="matrix(3.410782,0,0,3.35479,1.223496,8.49458)"/>
<path style="fill-rule:evenodd;fill:rgb(61.56863%,22.745098%,60.784316%);fill-opacity:1;stroke-width:0.221718;stroke-linecap:round;stroke-linejoin:round;stroke:rgb(90.196079%,0.784314%,70.588237%);stroke-opacity:1;stroke-miterlimit:4;" d="M 4.616318 0.461546 C 4.616318 0.55586 4.53844 0.63271 4.442237 0.63271 C 4.34718 0.63271 4.269302 0.55586 4.269302 0.461546 C 4.269302 0.367231 4.34718 0.290382 4.442237 0.290382 C 4.53844 0.290382 4.616318 0.367231 4.616318 0.461546 Z M 4.616318 0.461546 " transform="matrix(3.410782,0,0,3.35479,1.223496,8.49458)"/>
<path style="fill:none;stroke-width:0.443437;stroke-linecap:butt;stroke-linejoin:miter;stroke:rgb(90.196079%,0.784314%,70.588237%);stroke-opacity:1;stroke-miterlimit:4;" d="M 0.960631 1.492022 L 5.326382 1.492022 " transform="matrix(3.410782,0,0,3.35479,1.223496,8.49458)"/>
<path style="fill:none;stroke-width:0.443437;stroke-linecap:round;stroke-linejoin:miter;stroke:rgb(90.196079%,0.784314%,70.588237%);stroke-opacity:1;stroke-miterlimit:4;" d="M 1.66955 1.982226 L 4.685034 1.982226 " transform="matrix(3.410782,0,0,3.35479,1.223496,8.49458)"/>
<path style="fill:none;stroke-width:0.443437;stroke-linecap:round;stroke-linejoin:miter;stroke:rgb(90.196079%,0.784314%,70.588237%);stroke-opacity:1;stroke-miterlimit:4;" d="M 1.663824 2.52832 L 4.678162 2.52832 " transform="matrix(3.410782,0,0,3.35479,1.223496,8.49458)"/>
<path style="fill-rule:nonzero;fill:rgb(61.56863%,22.745098%,60.784316%);fill-opacity:1;stroke-width:0.110859;stroke-linecap:round;stroke-linejoin:round;stroke:rgb(61.56863%,22.745098%,60.784316%);stroke-opacity:1;stroke-miterlimit:4;" d="M 1.659243 3.287496 C 1.668405 3.39229 1.741702 3.469139 1.833323 3.469139 C 1.894022 3.469139 1.95014 3.435372 1.982208 3.381811 C 2.01313 3.435372 2.066957 3.469139 2.126511 3.469139 C 2.218132 3.469139 2.292575 3.39229 2.301737 3.287496 C 2.301737 3.282839 2.305173 3.258387 2.29601 3.218798 C 2.282267 3.160579 2.251345 3.109346 2.20668 3.067428 L 1.982208 2.861333 L 1.753155 3.067428 C 1.708489 3.109346 1.677567 3.160579 1.664969 3.218798 C 1.654662 3.258387 1.658098 3.282839 1.659243 3.287496 Z M 1.68902 3.22462 C 1.700473 3.172222 1.729104 3.124483 1.770334 3.086058 L 1.982208 2.8951 L 2.189501 3.086058 C 2.231876 3.124483 2.259362 3.172222 2.27196 3.22462 C 2.281122 3.26188 2.276541 3.282839 2.276541 3.282839 L 2.276541 3.285167 C 2.268524 3.377153 2.205535 3.443523 2.126511 3.443523 C 2.069248 3.443523 2.017711 3.407427 1.99366 3.349208 L 1.982208 3.321263 L 1.970755 3.349208 C 1.946705 3.406263 1.892877 3.443523 1.833323 3.443523 C 1.7543 3.443523 1.69131 3.377153 1.683294 3.284003 C 1.683294 3.282839 1.679858 3.26188 1.68902 3.22462 Z M 1.68902 3.22462 " transform="matrix(3.410782,0,0,3.35479,1.223496,8.49458)"/>
<path style="fill-rule:evenodd;fill:rgb(94.117647%,89.019608%,92.54902%);fill-opacity:1;stroke-width:1.620031;stroke-linecap:round;stroke-linejoin:round;stroke:rgb(90.196079%,0.784314%,70.588237%);stroke-opacity:1;stroke-miterlimit:4;" d="M 15.97836 8.510614 L 20.037215 8.510614 C 21.376175 8.510614 22.454899 9.604637 22.454899 10.953085 L 22.454899 20.057229 C 22.454899 21.405677 21.376175 22.499701 20.037215 22.499701 L 15.97836 22.499701 C 14.643597 22.499701 13.560676 21.405677 13.560676 20.057229 L 13.560676 10.953085 C 13.560676 9.604637 14.643597 8.510614 15.97836 8.510614 Z M 15.97836 8.510614 " transform="matrix(0.930643,0,0,0.921198,0.887667,0.956915)"/>
<path style="fill-rule:evenodd;fill:rgb(95.294118%,71.764708%,85.09804%);fill-opacity:1;stroke-width:1.620031;stroke-linecap:round;stroke-linejoin:round;stroke:rgb(90.196079%,0.784314%,70.588237%);stroke-opacity:1;stroke-miterlimit:4;" d="M 16.805242 11.500097 L 19.193544 11.500097 C 19.915491 11.500097 20.498925 12.445707 20.498925 13.616058 L 20.498925 18.38227 C 20.498925 19.552621 19.915491 20.498231 19.193544 20.498231 L 16.805242 20.498231 C 16.083294 20.498231 15.49986 19.552621 15.49986 18.38227 L 15.49986 13.616058 C 15.49986 12.445707 16.083294 11.500097 16.805242 11.500097 Z M 16.805242 11.500097 " transform="matrix(0.930643,0,0,0.921198,0.887667,0.956915)"/>
<path style="fill:none;stroke-width:1.620031;stroke-linecap:round;stroke-linejoin:round;stroke:rgb(61.56863%,22.745098%,60.784316%);stroke-opacity:1;stroke-miterlimit:4;" d="M 18.421228 14.188512 C 18.421228 14.413254 18.236544 14.595591 18.005689 14.599831 C 17.774834 14.599831 17.59015 14.417494 17.585952 14.192753 C 17.585952 13.963771 17.766439 13.777193 17.997294 13.777193 C 18.223952 13.772953 18.417031 13.95105 18.421228 14.175791 L 18.005689 14.184272 Z M 18.421228 14.188512 " transform="matrix(0.930643,0,0,0.921198,0.887667,0.956915)"/>
<path style="fill:none;stroke-width:1.620031;stroke-linecap:round;stroke-linejoin:round;stroke:rgb(90.196079%,0.784314%,70.588237%);stroke-opacity:1;stroke-miterlimit:4;" d="M 17.946926 16.90237 L 17.946926 18.501001 " transform="matrix(0.930643,0,0,0.921198,0.887667,0.956915)"/>
</g>
</svg>
