<?xml version="1.0" encoding="UTF-8" standalone="no"?>
<svg
   xmlns:dc="http://purl.org/dc/elements/1.1/"
   xmlns:cc="http://creativecommons.org/ns#"
   xmlns:rdf="http://www.w3.org/1999/02/22-rdf-syntax-ns#"
   xmlns:svg="http://www.w3.org/2000/svg"
   xmlns="http://www.w3.org/2000/svg"
   xmlns:sodipodi="http://sodipodi.sourceforge.net/DTD/sodipodi-0.dtd"
   xmlns:inkscape="http://www.inkscape.org/namespaces/inkscape"
   height="24"
   viewBox="0 0 24 24"
   width="24"
   version="1.1"
   id="svg40"
   sodipodi:docname="lc_pushbutton.svg"
   inkscape:version="0.92.4 (unknown)"
   inkscape:export-filename="/home/annisaauliarasyidah/Desktop/4_242 (aulia)/lc 222/lc_pushbutton.png"
   inkscape:export-xdpi="96"
   inkscape:export-ydpi="96">
  <metadata
     id="metadata46">
    <rdf:RDF>
      <cc:Work
         rdf:about="">
        <dc:format>image/svg+xml</dc:format>
        <dc:type
           rdf:resource="http://purl.org/dc/dcmitype/StillImage" />
        <dc:title></dc:title>
      </cc:Work>
    </rdf:RDF>
  </metadata>
  <defs
     id="defs44" />
  <sodipodi:namedview
     pagecolor="#ffffff"
     bordercolor="#666666"
     borderopacity="1"
     objecttolerance="10"
     gridtolerance="10"
     guidetolerance="10"
     inkscape:pageopacity="0"
     inkscape:pageshadow="2"
     inkscape:window-width="1366"
     inkscape:window-height="707"
     id="namedview42"
     showgrid="false"
     inkscape:zoom="15.558174"
     inkscape:cx="-2.0365233"
     inkscape:cy="8"
     inkscape:window-x="0"
     inkscape:window-y="0"
     inkscape:window-maximized="1"
     inkscape:current-layer="svg40" />
  <linearGradient
     id="a"
     gradientTransform="rotate(90,65.170062,65.407638)"
     gradientUnits="userSpaceOnUse"
     x1="26.221916"
     x2="126.41451"
     y1="59.536545"
     y2="60.797577">
    <stop
       offset="0"
       stop-color="#fff"
       id="stop2" />
    <stop
       offset="1"
       stop-color="#bbb"
       id="stop4" />
  </linearGradient>
  <filter
     id="b"
     height="1.011497"
     width="1.00824"
     x="-0.0041200002"
     y="-0.005748"
     style="color-interpolation-filters:sRGB">
    <feGaussianBlur
       stdDeviation=".13885547"
       id="feGaussianBlur7" />
  </filter>
  <linearGradient
     id="c"
     gradientTransform="matrix(0.09200795,0,0,0.09273604,0.58519375,0.21936)"
     gradientUnits="userSpaceOnUse"
     x1="75.182564"
     x2="75.182564"
     y1="127.0341"
     y2="40.767754">
    <stop
       offset="0"
       stop-color="#b3b3b7"
       id="stop10" />
    <stop
       offset="1"
       stop-color="#e5e5e5"
       stop-opacity=".996078"
       id="stop12" />
  </linearGradient>
  <filter
     id="d"
     height="1.104996"
     width="1.0547841"
     x="-0.027392"
     y="-0.052498002"
     style="color-interpolation-filters:sRGB">
    <feGaussianBlur
       stdDeviation=".668475"
       id="feGaussianBlur15" />
  </filter>
  <g
     id="g833"
     transform="matrix(1.4979726,0,0,1.4979726,0.01629635,-11.963841)"
     style="stroke-width:0.66756898">
    <path
       d="M 1.5025872,10.995011 V 11 H 1.185524 c -0.43035688,0 -1.188111,0.38213 -1.188111,0.856682 v 8.276828 c 0,0.474554 0.75775412,0.856511 1.188111,0.856511 h 0.3170633 v 0.005 l 7.9999995,0.005 h 4.9947222 v -0.005 h 0.317064 c 0.430356,0 1.188111,-0.381957 1.188111,-0.856511 v -8.27684 c 0,-0.474552 -0.757755,-0.856682 -1.188111,-0.856682 H 14.497309 V 11 H 9.5025867 Z"
       id="path18"
       inkscape:connector-curvature="0"
       style="fill:#e602b4;fill-opacity:0.99586098;stroke-width:0.08344612" />
    <path
       d="m 2.0752909,11.9951 v 0.0038 H 1.8150811 c -0.3531558,0 -0.82142247,0.287592 -0.82142247,0.644854 v 6.725439 c 0,0.357263 0.46826667,0.644855 0.82142247,0.644855 h 0.2602098 v 0.0038 l 7.2252175,0.005 h 0.032167 4.5881766 v -0.0038 h 0.260211 c 0.353155,0 0.821421,-0.287592 0.821421,-0.644855 v -6.725449 c 0,-0.357262 -0.468266,-0.644854 -0.821421,-0.644854 h -0.260211 v -0.0038 H 9.3326753 9.3005084 Z"
       id="path20"
       style="fill:#f3b7d9;stroke-width:0.08344612"
       inkscape:connector-curvature="0" />
    <path
       d="m 16.195312,22.822266 c -0.105581,1.2e-5 -0.21046,0.01716 -0.310546,0.05078 h -2.517578 c -2.246364,0 -4.6422827,1.070615 -6.5527349,2.777344 -1.9104522,1.706728 -3.3496093,4.11354 -3.3496093,6.857421 V 123.6383 c 0,2.74388 1.4391572,5.15069 3.3496093,6.85742 1.9104521,1.70673 4.3063709,2.77735 6.5527349,2.77735 h 2.517578 c 0.100085,0.0336 0.204964,0.0508 0.310546,0.0508 l 83.339286,0.069 h 0.580082 45.63672 c 0.10558,-2e-5 0.21046,-0.0172 0.31054,-0.0508 h 2.51758 c 2.24637,0 4.64228,-1.07062 6.55274,-2.77735 1.91045,-1.70673 3.34961,-4.11354 3.34961,-6.85742 V 32.576827 c 0,-2.743882 -1.43916,-5.150693 -3.34961,-6.857421 -1.91046,-1.706729 -4.30638,-2.777344 -6.55274,-2.777344 h -2.51758 c -0.10008,-0.03362 -0.20496,-0.05077 -0.31054,-0.05078 h -45.63672 -0.580082 z m 4.552201,9.396938 78.425458,0.357624 h 0.580078 41.256791 c 0.0966,0.03106 0.19739,0.04688 0.29883,0.04687 h 2.73046 c 1.53667,0 1.49189,0.802137 3.04038,2.123046 1.54849,1.32091 2.59427,3.094042 2.61133,4.964844 l 0.70564,77.381662 c 0.0171,1.87081 -1.06284,3.64394 -2.61133,4.96485 -1.54849,1.3209 -1.50371,2.12305 -3.04038,2.12305 h -2.73046 c -0.10351,0 -0.20636,0.0165 -0.30469,0.0488 h -41.25094 -0.580075 l -78.421551,-0.35763 c -0.09833,-0.0323 -0.201179,-0.0488 -0.304688,-0.0488 h -2.730469 c -1.536659,0 -1.949183,-0.9055 -3.497674,-2.22641 -1.54849,-1.3209 -2.594268,-3.09403 -2.611328,-4.96484 L 11.607261,39.25061 c -0.01706,-1.870801 1.062837,-3.643934 2.611329,-4.964844 1.54849,-1.320909 1.961014,-2.019687 3.497673,-2.019687 h 2.730469 c 0.102096,2.11e-4 0.203591,-0.01561 0.300781,-0.04687 z"
       transform="matrix(0.08977841,0,0,0.07228163,0.737839,10.34538)"
       id="path22"
       style="fill:#f0e3ec;stroke-width:0.66756898;filter:url(#b)"
       inkscape:connector-curvature="0" />
    <g
       style="fill:#47474b;fill-opacity:0.99607801;stroke-width:0.90058517"
       id="g34"
       transform="matrix(0.12322941,0,0,0.12679602,-3.002587,10.995011)">
      <path
         style="fill:#9d3a9b;stroke-width:0.90058517"
         inkscape:connector-curvature="0"
         id="path30"
         d="M 56.413628,54.72131 Q 51.23327,48.947369 51.23327,39.881742 q 0,-9.065627 5.180358,-14.839569 5.234321,-5.773941 13.706365,-5.773941 8.526007,0 13.760327,5.773941 5.234321,5.719979 5.234321,15.109379 0,8.741855 -5.180359,14.569758 -5.126396,5.773941 -13.760327,5.773941 -8.579968,0 -13.760327,-5.773941 z M 70.173955,26.175377 q -4.910548,0 -7.878462,3.777344 -2.967913,3.723383 -2.967913,9.929021 0,6.205637 2.967913,9.982982 2.967914,3.723383 7.878462,3.723383 4.856586,0 7.8245,-3.723383 3.021876,-3.723383 3.021876,-9.767134 0,-6.367524 -2.967914,-10.144869 -2.913952,-3.777344 -7.878462,-3.777344 z" />
      <path
         style="fill:#9d3a9b;stroke-width:0.90058517"
         inkscape:connector-curvature="0"
         id="path32"
         d="M 103.64393,46.087379 V 59.254124 H 95.549616 V 19.915777 h 8.094314 v 17.267861 l 15.37919,-17.267861 h 9.55128 l -15.70296,16.944089 17.37578,22.394258 h -9.6592 L 107.69108,41.878338 Z" />
    </g>
  </g>
</svg>
