<?xml version="1.0" encoding="UTF-8"?>
<svg xmlns="http://www.w3.org/2000/svg" xmlns:xlink="http://www.w3.org/1999/xlink" width="24px" height="24px" viewBox="0 0 24 24" version="1.1">
<g id="surface1">
<path style="fill-rule:evenodd;fill:rgb(94.117647%,89.019608%,92.54902%);fill-opacity:1;stroke-width:0.956911;stroke-linecap:round;stroke-linejoin:round;stroke:rgb(90.196079%,0.784314%,70.588237%);stroke-opacity:1;stroke-miterlimit:4;" d="M 2.499193 2.5 L 14.499386 2.5 L 14.499386 13.501061 L 2.499193 13.501061 Z M 2.499193 2.5 " transform="matrix(1.630182,0,0,1.507312,-1.890545,-0.0182802)"/>
<path style="fill:none;stroke-width:0.956911;stroke-linecap:round;stroke-linejoin:round;stroke:rgb(90.196079%,0.784314%,70.588237%);stroke-opacity:1;stroke-miterlimit:4;" d="M 2.499193 5.00083 L 14.499386 5.00083 L 14.499386 11.000231 L 2.499193 11.000231 Z M 2.499193 5.00083 " transform="matrix(1.630182,0,0,1.507312,-1.890545,-0.0182802)"/>
<path style="fill:none;stroke-width:0.956911;stroke-linecap:round;stroke-linejoin:round;stroke:rgb(90.196079%,0.784314%,70.588237%);stroke-opacity:1;stroke-miterlimit:4;" d="M 5.499241 2.5 L 11.499338 2.5 L 11.499338 13.501061 L 5.499241 13.501061 Z M 5.499241 2.5 " transform="matrix(1.630182,0,0,1.507312,-1.890545,-0.0182802)"/>
<path style="fill:none;stroke-width:0.956911;stroke-linecap:butt;stroke-linejoin:miter;stroke:rgb(90.196079%,0.784314%,70.588237%);stroke-opacity:1;stroke-miterlimit:4;" d="M 8.499289 2.5 C 8.499289 13.501061 8.499289 13.501061 8.499289 13.501061 " transform="matrix(1.630182,0,0,1.507312,-1.890545,-0.0182802)"/>
<path style="fill:none;stroke-width:0.956911;stroke-linecap:butt;stroke-linejoin:miter;stroke:rgb(90.196079%,0.784314%,70.588237%);stroke-opacity:1;stroke-miterlimit:4;" d="M 14.000976 7.999235 C 2.999999 7.999235 2.999999 7.999235 2.999999 7.999235 " transform="matrix(1.630182,0,0,1.507312,-1.890545,-0.0182802)"/>
<path style="fill-rule:nonzero;fill:rgb(95.294118%,71.764708%,85.09804%);fill-opacity:1;stroke-width:0.493855;stroke-linecap:round;stroke-linejoin:round;stroke:rgb(61.56863%,22.745098%,60.784316%);stroke-opacity:1;stroke-miterlimit:4;" d="M -2.589434 0.264428 C -3.25048 0.264428 -3.776487 0.544794 -3.780346 1.851452 L -3.118014 1.851452 C -3.118014 1.190407 -2.985547 0.925474 -2.589434 0.925474 C -2.192035 0.925474 -2.059569 1.190407 -2.059569 1.455339 L -1.398523 1.455339 C -1.398523 0.529361 -1.927102 0.264428 -2.589434 0.264428 Z M -2.589434 0.264428 " transform="matrix(3.037327,0,0,3.037327,24.720428,9.607002)"/>
<path style="fill-rule:nonzero;fill:rgb(95.294118%,71.764708%,85.09804%);fill-opacity:1;stroke-width:0.493855;stroke-linecap:round;stroke-linejoin:round;stroke:rgb(61.56863%,22.745098%,60.784316%);stroke-opacity:1;stroke-miterlimit:4;" d="M -3.623444 1.861741 L -1.554139 1.861741 C -1.249337 1.861741 -1.001124 2.108669 -1.001124 2.414756 L -1.001124 3.416613 C -1.001124 3.721415 -1.249337 3.968342 -1.554139 3.968342 L -3.623444 3.968342 C -3.929531 3.968342 -4.176459 3.721415 -4.176459 3.416613 L -4.176459 2.414756 C -4.176459 2.108669 -3.929531 1.861741 -3.623444 1.861741 Z M -3.623444 1.861741 " transform="matrix(3.037327,0,0,3.037327,24.720428,9.607002)"/>
<path style=" stroke:none;fill-rule:nonzero;fill:rgb(94.117647%,89.019608%,92.54902%);fill-opacity:1;" d="M 15.636719 16.3125 C 15.421875 16.324219 15.199219 16.402344 14.988281 16.582031 C 14.605469 16.90625 14.378906 17.601562 14.453125 18.082031 C 14.570312 18.878906 15.375 19.617188 16.859375 20.730469 C 18.347656 19.617188 19.148438 18.878906 19.265625 18.082031 C 19.339844 17.601562 19.117188 16.90625 18.730469 16.582031 C 17.890625 15.871094 16.859375 16.75 16.859375 17.226562 C 16.859375 16.871094 16.28125 16.285156 15.636719 16.3125 Z M 15.636719 16.3125 "/>
<path style=" stroke:none;fill-rule:nonzero;fill:rgb(90.196079%,0.784314%,70.588237%);fill-opacity:1;" d="M 15.917969 16.941406 C 15.753906 16.949219 15.582031 17.011719 15.421875 17.144531 C 15.125 17.394531 14.953125 17.929688 15.011719 18.296875 C 15.101562 18.910156 15.714844 19.472656 16.855469 20.332031 C 17.996094 19.472656 18.613281 18.910156 18.703125 18.296875 C 18.757812 17.929688 18.585938 17.394531 18.292969 17.144531 C 17.644531 16.601562 16.855469 17.277344 16.855469 17.644531 C 16.855469 17.367188 16.414062 16.917969 15.917969 16.941406 Z M 15.917969 16.941406 "/>
</g>
</svg>
