<?xml version="1.0" encoding="UTF-8"?>
<svg xmlns="http://www.w3.org/2000/svg" xmlns:xlink="http://www.w3.org/1999/xlink" width="24px" height="24px" viewBox="0 0 24 24" version="1.1">
<g id="surface1">
<path style=" stroke:none;fill-rule:nonzero;fill:rgb(90.196079%,0.784314%,70.588237%);fill-opacity:1;" d="M 15 9 L 15 10.5 L 16.5 10.5 L 16.5 9 Z M 18 9 L 18 10.5 L 19.5 10.5 L 19.5 9 Z M 21 9 L 21 10.5 L 22.5 10.5 L 22.5 9 Z M 21 12 L 21 13.5 L 22.5 13.5 L 22.5 12 Z M 21 15 L 21 16.5 L 22.5 16.5 L 22.5 15 Z M 6 18 L 6 19.5 L 7.5 19.5 L 7.5 18 Z M 9 18 L 9 19.5 L 10.5 19.5 L 10.5 18 Z M 12 18 L 12 19.5 L 13.5 19.5 L 13.5 18 Z M 15 18 L 15 19.5 L 16.5 19.5 L 16.5 18 Z M 18 18 L 18 19.5 L 19.5 19.5 L 19.5 18 Z M 21 18 L 21 19.5 L 22.5 19.5 L 22.5 18 Z M 21 18 "/>
<path style=" stroke:none;fill-rule:nonzero;fill:rgb(61.56863%,22.745098%,60.784316%);fill-opacity:1;" d="M 6 9 L 7.5 9 L 7.5 10.5 L 6 10.5 Z M 6 9 "/>
<path style="fill:none;stroke-width:1;stroke-linecap:round;stroke-linejoin:miter;stroke:rgb(61.56863%,22.745098%,60.784316%);stroke-opacity:1;stroke-miterlimit:4;" d="M 4.5 3.5 L 4.5 4.5 " transform="matrix(1.5,0,0,1.5,0,0)"/>
<path style="fill:none;stroke-width:1;stroke-linecap:round;stroke-linejoin:miter;stroke:rgb(61.56863%,22.745098%,60.784316%);stroke-opacity:1;stroke-miterlimit:4;" d="M 2.5 6.5 L 1.5 6.5 " transform="matrix(1.5,0,0,1.5,0,0)"/>
<path style="fill:none;stroke-width:1;stroke-linecap:round;stroke-linejoin:miter;stroke:rgb(61.56863%,22.745098%,60.784316%);stroke-opacity:1;stroke-miterlimit:4;" d="M 7.5 6.5 L 6.5 6.5 " transform="matrix(1.5,0,0,1.5,0,0)"/>
<path style="fill:none;stroke-width:1;stroke-linecap:round;stroke-linejoin:miter;stroke:rgb(61.56863%,22.745098%,60.784316%);stroke-opacity:1;stroke-miterlimit:4;" d="M 4.5 9.5 L 4.5 8.5 " transform="matrix(1.5,0,0,1.5,0,0)"/>
</g>
</svg>
