<?xml version="1.0" encoding="UTF-8"?>
<svg xmlns="http://www.w3.org/2000/svg" xmlns:xlink="http://www.w3.org/1999/xlink" width="24px" height="24px" viewBox="0 0 24 24" version="1.1">
<g id="surface1">
<path style=" stroke:none;fill-rule:nonzero;fill:rgb(94.117647%,89.019608%,92.54902%);fill-opacity:1;" d="M 3 1.5 L 3 22.5 L 21 22.5 L 21 1.5 Z M 3 1.5 "/>
<path style=" stroke:none;fill-rule:nonzero;fill:rgb(95.294118%,71.764708%,85.09804%);fill-opacity:1;" d="M 4.628906 3 C 4.527344 3 4.445312 3.082031 4.445312 3.183594 L 4.472656 12 L 4.445312 20.816406 C 4.445312 20.917969 4.527344 21 4.628906 21 L 19.316406 21 C 19.417969 21 19.5 20.917969 19.5 20.816406 L 19.5 3.183594 C 19.5 3.082031 19.417969 3 19.316406 3 Z M 4.628906 3 "/>
<path style=" stroke:none;fill-rule:nonzero;fill:rgb(61.56863%,22.745098%,60.784316%);fill-opacity:1;" d="M 10.5 4.5 L 10.5 6 L 6 6 L 6 4.5 Z M 10.5 4.5 "/>
<path style=" stroke:none;fill-rule:nonzero;fill:rgb(61.56863%,22.745098%,60.784316%);fill-opacity:1;" d="M 10.5 7.5 L 10.5 9 L 6 9 L 6 7.5 Z M 10.5 7.5 "/>
<path style=" stroke:none;fill-rule:nonzero;fill:rgb(61.56863%,22.745098%,60.784316%);fill-opacity:1;" d="M 10.5 10.5 L 10.5 12 L 6 12 L 6 10.5 Z M 10.5 10.5 "/>
<path style=" stroke:none;fill-rule:nonzero;fill:rgb(61.56863%,22.745098%,60.784316%);fill-opacity:1;" d="M 10.5 13.5 L 10.5 15 L 6 15 L 6 13.5 Z M 10.5 13.5 "/>
<path style=" stroke:none;fill-rule:nonzero;fill:rgb(61.56863%,22.745098%,60.784316%);fill-opacity:1;" d="M 10.5 16.5 L 10.5 18 L 6 18 L 6 16.5 Z M 10.5 16.5 "/>
<path style=" stroke:none;fill-rule:nonzero;fill:rgb(61.56863%,22.745098%,60.784316%);fill-opacity:1;" d="M 10.5 19.5 L 10.5 21 L 6 21 L 6 19.5 Z M 10.5 19.5 "/>
</g>
</svg>
