<?xml version="1.0" encoding="UTF-8"?>
<svg xmlns="http://www.w3.org/2000/svg" xmlns:xlink="http://www.w3.org/1999/xlink" width="24px" height="24px" viewBox="0 0 24 24" version="1.1">
<defs>
<linearGradient id="linear0" gradientUnits="userSpaceOnUse" x1="96" y1="104" x2="88.000198" y2="96.000198" gradientTransform="matrix(0.1875,0,0,0.1875,-0.00000075,0.00000375)">
<stop offset="0" style="stop-color:rgb(53.333336%,54.11765%,52.156866%);stop-opacity:1;"/>
<stop offset="0.0072" style="stop-color:rgb(54.901963%,55.686277%,53.725493%);stop-opacity:1;"/>
<stop offset="0.0673" style="stop-color:rgb(67.058825%,67.450982%,66.274512%);stop-opacity:1;"/>
<stop offset="0.1347" style="stop-color:rgb(77.254903%,77.64706%,76.862746%);stop-opacity:1;"/>
<stop offset="0.2115" style="stop-color:rgb(85.882354%,85.882354%,85.490197%);stop-opacity:1;"/>
<stop offset="0.3012" style="stop-color:rgb(92.156863%,92.156863%,92.156863%);stop-opacity:1;"/>
<stop offset="0.4122" style="stop-color:rgb(96.862745%,96.862745%,96.470588%);stop-opacity:1;"/>
<stop offset="0.5679" style="stop-color:rgb(99.215686%,99.215686%,99.215686%);stop-opacity:1;"/>
<stop offset="1" style="stop-color:rgb(100%,100%,100%);stop-opacity:1;"/>
</linearGradient>
<radialGradient id="radial0" gradientUnits="userSpaceOnUse" cx="102" cy="112.304703" fx="102" fy="112.304703" r="139.558594" gradientTransform="matrix(0.183511,0,0,0.184091,0.255319,0.218186)">
<stop offset="0" style="stop-color:rgb(32.549021%,33.333334%,34.117648%);stop-opacity:1;"/>
<stop offset="0.113661" style="stop-color:rgb(53.725493%,54.11765%,54.901963%);stop-opacity:1;"/>
<stop offset="0.202967" style="stop-color:rgb(92.54902%,92.54902%,92.54902%);stop-opacity:1;"/>
<stop offset="0.2363" style="stop-color:rgb(98.039216%,98.039216%,98.039216%);stop-opacity:1;"/>
<stop offset="0.2722" style="stop-color:rgb(100%,100%,100%);stop-opacity:1;"/>
<stop offset="0.5313" style="stop-color:rgb(98.039216%,98.039216%,98.039216%);stop-opacity:1;"/>
<stop offset="0.8449" style="stop-color:rgb(92.156863%,92.54902%,92.54902%);stop-opacity:1;"/>
<stop offset="1" style="stop-color:rgb(88.235295%,88.627452%,89.019608%);stop-opacity:1;"/>
</radialGradient>
<filter id="alpha" filterUnits="objectBoundingBox" x="0%" y="0%" width="100%" height="100%">
  <feColorMatrix type="matrix" in="SourceGraphic" values="0 0 0 0 1 0 0 0 0 1 0 0 0 0 1 0 0 0 1 0"/>
</filter>
<mask id="mask0">
  <g filter="url(#alpha)">
<rect x="0" y="0" width="24" height="24" style="fill:rgb(0%,0%,0%);fill-opacity:0.380531;stroke:none;"/>
  </g>
</mask>
<clipPath id="clip1">
  <rect x="0" y="0" width="24" height="24"/>
</clipPath>
<g id="surface5" clip-path="url(#clip1)">
<path style=" stroke:none;fill-rule:nonzero;fill:rgb(17.647059%,17.647059%,17.647059%);fill-opacity:0.331551;" d="M 4.5 21 L 6 21 L 6 22.5 L 4.5 22.5 Z M 4.5 21 "/>
</g>
<mask id="mask1">
  <g filter="url(#alpha)">
<rect x="0" y="0" width="24" height="24" style="fill:rgb(0%,0%,0%);fill-opacity:0.368853;stroke:none;"/>
  </g>
</mask>
<clipPath id="clip2">
  <rect x="0" y="0" width="24" height="24"/>
</clipPath>
<g id="surface8" clip-path="url(#clip2)">
<path style="fill:none;stroke-width:0.313707;stroke-linecap:round;stroke-linejoin:round;stroke:rgb(0%,0%,0%);stroke-opacity:0.044898;stroke-miterlimit:4;" d="M -6.764123 5.222966 C -7.503706 5.235987 -7.727664 5.470362 -7.764123 5.81932 C -7.805789 6.215153 -7.152143 6.446924 -6.701623 6.306299 C -5.63131 5.967757 -4.071414 6.501612 -3.740685 7.389632 C -3.553185 7.894841 -3.998498 8.371403 -4.941206 9.001612 C -5.883914 9.634424 -7.316206 10.249007 -8.982873 10.639632 C -10.646935 11.032862 -12.217248 11.137028 -13.370893 10.999007 C -14.524539 10.863591 -15.297977 10.53807 -15.441206 10.022445 C -15.498498 9.808903 -15.550581 9.543278 -15.464643 9.254216 L -15.261518 8.405257 C -15.584435 8.704737 -16.040164 9.030257 -16.172977 9.298487 C -16.347456 9.629216 -16.498498 9.962549 -16.41256 10.275049 C -16.201623 11.048487 -15.212039 11.530257 -13.81881 11.69432 C -12.422977 11.860987 -10.620893 11.834945 -8.75631 11.394841 C -6.891727 10.954737 -5.209435 10.150049 -4.06881 9.387028 C -2.930789 8.626612 -2.558393 7.884424 -2.769331 7.110987 C -2.982873 6.334945 -3.732873 5.811507 -5.133914 5.478174 C -5.873498 5.301091 -6.462039 5.217757 -6.764123 5.222966 Z M -6.764123 5.222966 " transform="matrix(1.5,0,0,1.5,26.325871,-4.357886)"/>
</g>
<mask id="mask2">
  <g filter="url(#alpha)">
<rect x="0" y="0" width="24" height="24" style="fill:rgb(0%,0%,0%);fill-opacity:0.581967;stroke:none;"/>
  </g>
</mask>
<clipPath id="clip3">
  <rect x="0" y="0" width="24" height="24"/>
</clipPath>
<g id="surface11" clip-path="url(#clip3)">
<path style="fill:none;stroke-width:0.209138;stroke-linecap:round;stroke-linejoin:round;stroke:rgb(0%,0%,0%);stroke-opacity:0.065306;stroke-miterlimit:4;" d="M -6.766727 5.183903 C -7.50631 5.196924 -7.764123 5.433903 -7.800581 5.782862 C -7.839643 6.178695 -7.152143 6.446924 -6.701623 6.306299 C -5.63131 5.967757 -3.899539 6.722966 -3.764123 7.392237 C -3.657352 7.918278 -3.998498 8.353174 -4.941206 8.983382 C -5.886518 9.613591 -7.316206 10.220362 -8.982873 10.610987 C -10.649539 11.004216 -12.219852 11.108382 -13.373498 10.970362 C -14.527143 10.834945 -15.264123 10.535466 -15.407352 10.019841 C -15.464643 9.806299 -15.50631 9.540674 -15.420373 9.251612 L -16.206831 9.298487 C -16.38131 9.63182 -16.532352 9.965153 -16.446414 10.277653 C -16.235477 11.051091 -15.212039 11.530257 -13.81881 11.69432 C -12.422977 11.860987 -10.620893 11.834945 -8.75631 11.394841 C -6.891727 10.954737 -5.209435 10.150049 -4.06881 9.387028 C -2.930789 8.626612 -2.534956 7.884424 -2.748498 7.108382 C -2.959435 6.334945 -3.735477 5.772445 -5.133914 5.439112 C -5.876102 5.262028 -6.464643 5.181299 -6.766727 5.183903 Z M -6.766727 5.183903 " transform="matrix(1.5,0,0,1.5,26.325871,-4.357886)"/>
</g>
<mask id="mask3">
  <g filter="url(#alpha)">
<rect x="0" y="0" width="24" height="24" style="fill:rgb(0%,0%,0%);fill-opacity:0.53;stroke:none;"/>
  </g>
</mask>
<clipPath id="clip4">
  <rect x="0" y="0" width="24" height="24"/>
</clipPath>
<g id="surface14" clip-path="url(#clip4)">
<path style="fill:none;stroke-width:0.104569;stroke-linecap:round;stroke-linejoin:round;stroke:rgb(0%,0%,0%);stroke-opacity:0.110204;stroke-miterlimit:4;" d="M -6.766727 5.137028 C -7.50631 5.147445 -7.797977 5.426091 -7.834435 5.777653 C -7.876102 6.170882 -7.152143 6.446924 -6.701623 6.306299 C -5.63131 5.967757 -3.91256 6.801091 -3.766727 7.405257 C -3.626102 7.985987 -4.001102 8.334945 -4.94381 8.965153 C -5.886518 9.595362 -7.31881 10.199528 -8.982873 10.592757 C -10.649539 10.985987 -12.219852 11.087549 -13.373498 10.952132 C -14.527143 10.814112 -15.243289 10.535466 -15.383914 10.017237 C -15.44381 9.806299 -15.438602 9.535466 -15.352664 9.246403 L -15.297977 8.392237 C -15.826623 8.707341 -16.076623 8.972966 -16.321414 9.306299 C -16.495893 9.637028 -16.555789 9.965153 -16.469852 10.277653 C -16.25631 11.053695 -15.212039 11.530257 -13.81881 11.69432 C -12.422977 11.860987 -10.620893 11.834945 -8.75631 11.394841 C -6.891727 10.954737 -5.209435 10.150049 -4.06881 9.387028 C -2.930789 8.626612 -2.511518 7.88182 -2.72506 7.108382 C -2.938602 6.332341 -3.738081 5.72557 -5.136518 5.392237 C -5.876102 5.212549 -6.464643 5.13182 -6.766727 5.137028 Z M -6.766727 5.137028 " transform="matrix(1.5,0,0,1.5,26.325871,-4.357886)"/>
</g>
<mask id="mask4">
  <g filter="url(#alpha)">
<rect x="0" y="0" width="24" height="24" style="fill:rgb(0%,0%,0%);fill-opacity:0.93;stroke:none;"/>
  </g>
</mask>
<clipPath id="clip5">
  <rect x="0" y="0" width="24" height="24"/>
</clipPath>
<g id="surface17" clip-path="url(#clip5)">
<path style=" stroke:none;fill-rule:nonzero;fill:rgb(61.56863%,22.745098%,60.784316%);fill-opacity:1;" d="M 16.171875 3.316406 C 15.066406 3.335938 14.59375 3.769531 14.539062 4.292969 C 14.480469 4.886719 15.597656 5.3125 16.273438 5.101562 C 17.878906 4.59375 20.34375 5.742188 20.648438 6.734375 C 20.882812 7.503906 20.324219 8.097656 18.910156 9.046875 C 17.496094 9.992188 15.347656 10.898438 12.847656 11.488281 C 10.351562 12.078125 7.996094 12.230469 6.265625 12.027344 C 4.535156 11.820312 3.511719 11.441406 3.300781 10.664062 C 3.210938 10.347656 3.21875 9.941406 3.347656 9.507812 L 1.84375 9.601562 C 1.582031 10.097656 1.492188 10.589844 1.621094 11.058594 C 1.941406 12.222656 3.507812 12.9375 5.597656 13.183594 C 7.691406 13.433594 10.394531 13.394531 13.191406 12.734375 C 15.988281 12.074219 18.511719 10.867188 20.222656 9.722656 C 21.929688 8.582031 22.558594 7.464844 22.238281 6.304688 C 21.917969 5.140625 20.71875 4.203125 18.621094 3.699219 C 17.511719 3.433594 16.625 3.3125 16.171875 3.316406 Z M 16.171875 3.316406 "/>
</g>
</defs>
<g id="surface1">
<path style=" stroke:none;fill-rule:nonzero;fill:url(#linear0);" d="M 14.734375 22.390625 C 14.734375 22.390625 16.96875 20.53125 18 19.5 C 19.03125 18.46875 20.890625 16.234375 20.890625 16.234375 C 20.890625 16.234375 16.921875 16.5 15 16.5 C 15 18.421875 14.734375 22.390625 14.734375 22.390625 Z M 14.734375 22.390625 "/>
<path style="fill-rule:nonzero;fill:rgb(94.117647%,89.019608%,92.54902%);fill-opacity:1;stroke-width:0.25;stroke-linecap:butt;stroke-linejoin:miter;stroke:rgb(61.56863%,22.745098%,60.784316%);stroke-opacity:1;stroke-miterlimit:4;" d="M 2 1 L 2 15 L 9.645833 15 C 9.713542 15 9.776042 14.973958 9.822917 14.927083 L 13.927083 10.822917 C 13.973958 10.776042 14 10.713542 14 10.645833 L 14 1 Z M 2 1 " transform="matrix(1.5,0,0,1.5,0,0)"/>
<path style=" stroke:none;fill-rule:nonzero;fill:url(#radial0);" d="M 4.628906 3 C 4.527344 3 4.445312 3.082031 4.445312 3.183594 L 4.5 20.816406 C 4.5 20.917969 4.582031 21 4.683594 21 L 14.417969 21 C 14.464844 21 14.511719 20.980469 14.546875 20.945312 L 19.445312 16.027344 C 19.480469 15.992188 19.5 15.945312 19.5 15.898438 L 19.5 3.183594 C 19.5 3.082031 19.417969 3 19.316406 3 Z M 4.628906 3 "/>
<path style=" stroke:none;fill-rule:evenodd;fill:rgb(95.294118%,71.764708%,85.09804%);fill-opacity:1;" d="M 3 6 C 13.398438 3.640625 16.046875 4.558594 21 4.5 L 21 1.5 L 3 1.5 Z M 3 6 "/>
<path style="fill-rule:nonzero;fill:rgb(94.117647%,89.019608%,92.54902%);fill-opacity:1;stroke-width:0.25;stroke-linecap:butt;stroke-linejoin:miter;stroke:rgb(90.196079%,0.784314%,70.588237%);stroke-opacity:1;stroke-miterlimit:4;" d="M 6.033854 3.036458 C 5.486979 3.036458 5.046875 3.479167 5.046875 4.026042 L 5.033854 12.950521 C 5.033854 13.497396 5.486979 13.950521 6.033854 13.950521 L 15.075521 13.950521 C 15.619792 13.950521 16.075521 13.497396 16.075521 12.950521 L 16.075521 4.286458 C 16.075521 3.739583 15.632812 3.049479 15.085938 3.049479 L 13.833333 3.036458 L 13.833333 3.776042 C 13.833333 3.916667 13.71875 4.03125 13.575521 4.03125 L 12.177083 4.03125 C 12.036458 4.03125 11.921875 3.916667 11.921875 3.776042 L 11.921875 3.036458 Z M 6.033854 3.036458 " transform="matrix(1.5,0,0,1.5,0,0)"/>
<path style="fill-rule:nonzero;fill:rgb(95.294118%,71.764708%,85.09804%);fill-opacity:1;stroke-width:0.25;stroke-linecap:butt;stroke-linejoin:miter;stroke:rgb(90.196079%,0.784314%,70.588237%);stroke-opacity:1;stroke-miterlimit:4;" d="M 7.328125 6 L 15.671875 6 C 15.854167 6 16 6.148438 16 6.333333 L 16 11.666667 C 16 11.851562 15.854167 12 15.671875 12 L 7.328125 12 C 7.145833 12 7 11.851562 7 11.666667 L 7 6.333333 C 7 6.148438 7.145833 6 7.328125 6 Z M 7.328125 6 " transform="matrix(1.5,0,0,1.5,0,0)"/>
<path style=" stroke:none;fill-rule:nonzero;fill:rgb(90.196079%,0.784314%,70.588237%);fill-opacity:1;" d="M 4.5 3 L 6 3 L 6 4.5 L 4.5 4.5 Z M 4.5 3 "/>
<path style=" stroke:none;fill-rule:nonzero;fill:rgb(90.196079%,0.784314%,70.588237%);fill-opacity:1;" d="M 4.5 6 L 6 6 L 6 7.5 L 4.5 7.5 Z M 4.5 6 "/>
<path style=" stroke:none;fill-rule:nonzero;fill:rgb(90.196079%,0.784314%,70.588237%);fill-opacity:1;" d="M 4.5 9 L 6 9 L 6 10.5 L 4.5 10.5 Z M 4.5 9 "/>
<path style=" stroke:none;fill-rule:nonzero;fill:rgb(90.196079%,0.784314%,70.588237%);fill-opacity:1;" d="M 4.5 12 L 6 12 L 6 13.5 L 4.5 13.5 Z M 4.5 12 "/>
<path style=" stroke:none;fill-rule:nonzero;fill:rgb(90.196079%,0.784314%,70.588237%);fill-opacity:1;" d="M 4.5 15 L 6 15 L 6 16.5 L 4.5 16.5 Z M 4.5 15 "/>
<path style=" stroke:none;fill-rule:nonzero;fill:rgb(90.196079%,0.784314%,70.588237%);fill-opacity:1;" d="M 4.5 18 L 6 18 L 6 19.5 L 4.5 19.5 Z M 4.5 18 "/>
<use xlink:href="#surface5" mask="url(#mask0)"/>
<path style=" stroke:none;fill-rule:nonzero;fill:rgb(61.56863%,22.745098%,60.784316%);fill-opacity:1;" d="M 18.058594 4.277344 C 18.007812 4.371094 17.953125 4.46875 17.882812 4.554688 C 17.898438 4.558594 17.910156 4.5625 17.925781 4.5625 C 19.65625 4.765625 20.601562 5.761719 20.8125 6.539062 C 21.027344 7.3125 20.324219 8.097656 18.910156 9.046875 C 17.496094 9.992188 15.347656 10.898438 12.847656 11.488281 C 10.351562 12.078125 7.996094 12.230469 6.265625 12.027344 C 4.535156 11.820312 3.511719 11.441406 3.300781 10.664062 C 3.085938 9.890625 3.394531 8.59375 4.808594 7.648438 C 6.226562 6.703125 8.628906 5.554688 11.128906 4.964844 C 11.769531 4.957031 11.597656 4.628906 11.101562 4.742188 C 8.304688 5.402344 5.730469 6.292969 4.019531 7.4375 C 2.3125 8.578125 1.300781 9.898438 1.621094 11.058594 C 1.941406 12.222656 3.507812 12.9375 5.597656 13.183594 C 7.691406 13.433594 10.394531 13.394531 13.191406 12.734375 C 15.988281 12.074219 18.382812 10.910156 20.09375 9.769531 C 21.800781 8.625 21.945312 7.355469 21.628906 6.195312 C 21.3125 5.050781 20.121094 4.320312 18.058594 4.277344 Z M 18.058594 4.277344 "/>
<path style=" stroke:none;fill-rule:nonzero;fill:rgb(92.156863%,45.09804%,19.215687%);fill-opacity:1;" d="M 11.683594 4.5 C 11.710938 4.601562 11.414062 4.6875 11.363281 4.789062 C 11.3125 4.890625 11.457031 5.117188 11.347656 5.179688 C 11.238281 5.238281 11.066406 5.027344 10.9375 5.023438 C 10.8125 5.015625 10.597656 5.214844 10.5 5.144531 C 10.40625 5.078125 10.59375 4.863281 10.566406 4.757812 C 10.539062 4.652344 10.261719 4.546875 10.3125 4.445312 C 10.359375 4.34375 10.652344 4.425781 10.761719 4.363281 C 10.871094 4.304688 10.914062 4.042969 11.042969 4.046875 C 11.167969 4.050781 11.15625 4.316406 11.253906 4.382812 C 11.351562 4.449219 11.65625 4.394531 11.683594 4.5 Z M 11.683594 4.5 "/>
<path style=" stroke:none;fill-rule:nonzero;fill:rgb(90.196079%,0.784314%,70.588237%);fill-opacity:1;" d="M 18.980469 18.546875 C 18.703125 18.53125 18.703125 17.851562 18.484375 17.675781 C 18.265625 17.5 17.601562 17.640625 17.53125 17.371094 C 17.457031 17.097656 18.105469 16.890625 18.203125 16.628906 C 18.304688 16.367188 17.964844 15.777344 18.203125 15.625 C 18.4375 15.472656 18.835938 16.023438 19.117188 16.039062 C 19.394531 16.054688 19.851562 15.550781 20.066406 15.726562 C 20.285156 15.902344 19.886719 16.453125 19.957031 16.722656 C 20.03125 16.992188 20.652344 17.269531 20.550781 17.53125 C 20.449219 17.792969 19.804688 17.582031 19.566406 17.734375 C 19.332031 17.886719 19.261719 18.5625 18.980469 18.546875 Z M 18.980469 18.546875 "/>
<use xlink:href="#surface8" mask="url(#mask1)"/>
<use xlink:href="#surface11" mask="url(#mask2)"/>
<path style=" stroke:none;fill-rule:evenodd;fill:rgb(61.56863%,22.745098%,60.784316%);fill-opacity:1;" d="M 19.570312 23.019531 C 19.609375 23.128906 19.363281 23.550781 18.722656 23.777344 C 18.074219 24.011719 17.625 23.871094 17.574219 23.734375 C 17.539062 23.644531 10.421875 4.0625 10.390625 3.972656 C 11.054688 3.734375 11.722656 3.496094 12.386719 3.257812 C 12.417969 3.347656 19.535156 22.929688 19.570312 23.019531 Z M 19.570312 23.019531 "/>
<path style=" stroke:none;fill-rule:nonzero;fill:rgb(95.294118%,71.764708%,85.09804%);fill-opacity:1;" d="M 13.890625 7.386719 C 13.867188 7.132812 13.035156 4.878906 12.90625 4.691406 L 11.308594 5.265625 L 12.292969 7.964844 Z M 12.464844 7.902344 L 11.476562 5.207031 L 10.914062 5.40625 C 10.929688 5.625 11.746094 7.882812 11.898438 8.101562 Z M 12.464844 7.902344 "/>
<path style=" stroke:none;fill-rule:nonzero;fill:rgb(60.000002%,60.000002%,60.000002%);fill-opacity:1;" d="M 11.261719 5.921875 C 11.257812 5.910156 11.25 5.902344 11.242188 5.898438 C 11.234375 5.894531 11.226562 5.894531 11.21875 5.898438 C 11.207031 5.902344 11.199219 5.90625 11.195312 5.914062 C 11.195312 5.921875 11.195312 5.933594 11.199219 5.941406 C 11.203125 5.953125 11.207031 5.960938 11.214844 5.964844 C 11.222656 5.96875 11.234375 5.972656 11.242188 5.96875 C 11.253906 5.964844 11.257812 5.957031 11.261719 5.949219 C 11.265625 5.941406 11.265625 5.933594 11.261719 5.921875 M 11.277344 5.914062 C 11.289062 5.9375 11.289062 5.957031 11.285156 5.972656 C 11.28125 5.988281 11.273438 6 11.257812 6.003906 C 11.242188 6.011719 11.226562 6.007812 11.214844 6 C 11.199219 5.988281 11.1875 5.972656 11.179688 5.949219 C 11.171875 5.925781 11.171875 5.90625 11.175781 5.890625 C 11.179688 5.875 11.1875 5.863281 11.203125 5.859375 C 11.21875 5.855469 11.234375 5.855469 11.246094 5.867188 C 11.261719 5.875 11.269531 5.890625 11.277344 5.914062 M 11.292969 6.105469 L 11.261719 6.171875 L 11.25 6.132812 L 11.269531 6.089844 L 11.226562 6.066406 L 11.210938 6.027344 L 11.277344 6.0625 L 11.308594 5.996094 L 11.320312 6.035156 L 11.300781 6.078125 L 11.34375 6.097656 L 11.359375 6.136719 L 11.292969 6.105469 M 11.359375 6.140625 L 11.375 6.179688 L 11.351562 6.222656 L 11.398438 6.246094 L 11.410156 6.285156 L 11.335938 6.25 L 11.296875 6.265625 L 11.285156 6.226562 L 11.324219 6.214844 L 11.359375 6.140625 M 11.375 6.460938 C 11.371094 6.449219 11.363281 6.441406 11.359375 6.433594 C 11.355469 6.421875 11.347656 6.414062 11.34375 6.402344 C 11.335938 6.378906 11.335938 6.359375 11.339844 6.34375 C 11.34375 6.324219 11.351562 6.3125 11.367188 6.308594 C 11.382812 6.304688 11.398438 6.304688 11.410156 6.316406 C 11.425781 6.328125 11.4375 6.347656 11.445312 6.371094 C 11.449219 6.378906 11.449219 6.390625 11.453125 6.398438 C 11.453125 6.40625 11.457031 6.417969 11.457031 6.425781 L 11.4375 6.433594 C 11.4375 6.421875 11.4375 6.414062 11.433594 6.40625 C 11.433594 6.398438 11.429688 6.390625 11.429688 6.382812 C 11.421875 6.367188 11.417969 6.355469 11.40625 6.351562 C 11.398438 6.34375 11.390625 6.34375 11.378906 6.347656 C 11.371094 6.351562 11.363281 6.355469 11.363281 6.367188 C 11.359375 6.375 11.359375 6.386719 11.363281 6.402344 C 11.367188 6.40625 11.367188 6.410156 11.371094 6.414062 C 11.371094 6.414062 11.371094 6.417969 11.375 6.421875 L 11.390625 6.414062 L 11.382812 6.390625 L 11.402344 6.386719 L 11.421875 6.441406 L 11.375 6.460938 M 11.476562 6.460938 L 11.511719 6.558594 L 11.492188 6.566406 L 11.46875 6.503906 L 11.453125 6.511719 L 11.472656 6.570312 L 11.457031 6.574219 L 11.433594 6.515625 L 11.414062 6.523438 L 11.4375 6.589844 L 11.417969 6.59375 L 11.378906 6.492188 L 11.476562 6.460938 M 11.523438 6.59375 L 11.539062 6.636719 L 11.492188 6.710938 L 11.558594 6.6875 L 11.570312 6.722656 L 11.476562 6.753906 L 11.460938 6.714844 L 11.507812 6.640625 L 11.441406 6.660156 L 11.429688 6.628906 L 11.523438 6.59375 M 11.609375 6.824219 L 11.621094 6.867188 L 11.574219 6.941406 L 11.640625 6.917969 L 11.652344 6.953125 L 11.558594 6.984375 L 11.542969 6.945312 L 11.589844 6.871094 L 11.523438 6.890625 L 11.511719 6.859375 L 11.609375 6.824219 M 11.683594 7.023438 C 11.6875 7.039062 11.6875 7.050781 11.6875 7.058594 C 11.683594 7.066406 11.679688 7.074219 11.671875 7.078125 C 11.664062 7.078125 11.65625 7.078125 11.648438 7.070312 C 11.640625 7.066406 11.632812 7.054688 11.628906 7.042969 C 11.625 7.027344 11.625 7.015625 11.625 7.007812 C 11.625 7 11.632812 6.992188 11.640625 6.988281 C 11.648438 6.988281 11.65625 6.988281 11.664062 6.996094 C 11.671875 7 11.675781 7.011719 11.683594 7.023438 M 11.609375 7.007812 L 11.636719 7.085938 L 11.625 7.089844 L 11.59375 7.011719 L 11.609375 7.007812 M 11.671875 7.027344 C 11.667969 7.023438 11.667969 7.019531 11.664062 7.015625 C 11.660156 7.015625 11.65625 7.015625 11.648438 7.015625 C 11.644531 7.019531 11.640625 7.019531 11.640625 7.023438 C 11.636719 7.027344 11.636719 7.035156 11.640625 7.039062 C 11.640625 7.042969 11.644531 7.046875 11.648438 7.050781 C 11.652344 7.050781 11.65625 7.050781 11.660156 7.050781 C 11.667969 7.046875 11.671875 7.046875 11.671875 7.042969 C 11.671875 7.039062 11.671875 7.03125 11.671875 7.027344 M 11.714844 7.253906 C 11.714844 7.261719 11.714844 7.273438 11.714844 7.277344 C 11.710938 7.285156 11.707031 7.289062 11.699219 7.289062 C 11.691406 7.292969 11.683594 7.292969 11.671875 7.28125 C 11.664062 7.273438 11.65625 7.257812 11.648438 7.238281 C 11.644531 7.230469 11.644531 7.222656 11.640625 7.214844 C 11.640625 7.207031 11.636719 7.199219 11.636719 7.191406 L 11.65625 7.1875 C 11.65625 7.191406 11.65625 7.199219 11.660156 7.207031 C 11.660156 7.214844 11.660156 7.222656 11.664062 7.226562 C 11.667969 7.238281 11.671875 7.246094 11.675781 7.25 C 11.679688 7.253906 11.683594 7.253906 11.6875 7.253906 C 11.691406 7.253906 11.695312 7.25 11.695312 7.242188 C 11.695312 7.238281 11.695312 7.226562 11.691406 7.21875 L 11.683594 7.203125 L 11.699219 7.199219 L 11.707031 7.214844 C 11.710938 7.222656 11.710938 7.230469 11.714844 7.234375 C 11.71875 7.238281 11.722656 7.238281 11.726562 7.238281 C 11.730469 7.234375 11.734375 7.230469 11.734375 7.226562 C 11.734375 7.222656 11.734375 7.214844 11.730469 7.207031 C 11.726562 7.203125 11.726562 7.195312 11.722656 7.191406 C 11.71875 7.183594 11.714844 7.179688 11.710938 7.171875 L 11.730469 7.167969 C 11.734375 7.171875 11.738281 7.179688 11.738281 7.1875 C 11.742188 7.195312 11.746094 7.199219 11.75 7.207031 C 11.753906 7.226562 11.757812 7.242188 11.757812 7.25 C 11.757812 7.261719 11.753906 7.269531 11.746094 7.273438 C 11.738281 7.273438 11.734375 7.273438 11.726562 7.269531 C 11.722656 7.265625 11.71875 7.261719 11.714844 7.253906 "/>
<path style=" stroke:none;fill-rule:evenodd;fill:rgb(90.196079%,0.784314%,70.588237%);fill-opacity:1;" d="M 12.363281 3.191406 C 12.328125 3.089844 11.878906 2.949219 11.238281 3.179688 C 10.589844 3.410156 10.324219 3.78125 10.371094 3.90625 C 10.398438 3.988281 10.363281 3.890625 10.390625 3.976562 C 11.054688 3.734375 11.722656 3.496094 12.386719 3.257812 C 12.359375 3.175781 12.394531 3.273438 12.363281 3.191406 "/>
<path style=" stroke:none;fill-rule:evenodd;fill:rgb(90.196079%,0.784314%,70.588237%);fill-opacity:1;" d="M 11.421875 3.144531 C 11.023438 3.253906 10.675781 3.484375 10.648438 3.511719 C 10.625 3.539062 11.066406 3.296875 11.382812 3.234375 C 11.699219 3.171875 12.042969 3.308594 12.078125 3.296875 C 12.113281 3.289062 12.359375 3.175781 12.199219 3.121094 C 12.035156 3.0625 11.726562 3.058594 11.421875 3.144531 Z M 11.421875 3.144531 "/>
<use xlink:href="#surface14" mask="url(#mask3)"/>
<use xlink:href="#surface17" mask="url(#mask4)"/>
<path style=" stroke:none;fill-rule:nonzero;fill:rgb(90.196079%,0.784314%,70.588237%);fill-opacity:1;" d="M 8.71875 9.398438 C 8.554688 9.574219 8.078125 9.261719 7.839844 9.324219 C 7.597656 9.382812 7.335938 9.882812 7.105469 9.804688 C 6.878906 9.730469 7.082031 9.210938 6.953125 9.023438 C 6.824219 8.839844 6.226562 8.789062 6.246094 8.566406 C 6.269531 8.34375 6.871094 8.335938 7.03125 8.160156 C 7.191406 7.984375 7.085938 7.453125 7.328125 7.394531 C 7.566406 7.332031 7.738281 7.84375 7.964844 7.921875 C 8.195312 8 8.726562 7.722656 8.855469 7.90625 C 8.984375 8.09375 8.484375 8.417969 8.464844 8.640625 C 8.445312 8.863281 8.878906 9.222656 8.71875 9.398438 Z M 8.71875 9.398438 "/>
<path style=" stroke:none;fill-rule:nonzero;fill:rgb(90.196079%,0.784314%,70.588237%);fill-opacity:1;" d="M 5.042969 5.585938 C 4.957031 5.667969 4.734375 5.488281 4.613281 5.511719 C 4.488281 5.53125 4.335938 5.769531 4.226562 5.71875 C 4.117188 5.671875 4.242188 5.421875 4.1875 5.324219 C 4.136719 5.226562 3.84375 5.175781 3.863281 5.0625 C 3.886719 4.953125 4.183594 4.976562 4.273438 4.894531 C 4.363281 4.8125 4.339844 4.542969 4.460938 4.523438 C 4.585938 4.503906 4.640625 4.765625 4.75 4.816406 C 4.859375 4.863281 5.136719 4.746094 5.191406 4.847656 C 5.246094 4.945312 4.980469 5.085938 4.960938 5.195312 C 4.9375 5.308594 5.132812 5.503906 5.042969 5.585938 Z M 5.042969 5.585938 "/>
<path style=" stroke:none;fill-rule:nonzero;fill:rgb(90.196079%,0.784314%,70.588237%);fill-opacity:1;" d="M 5.761719 13.640625 C 5.589844 13.464844 6.0625 13.046875 6.042969 12.808594 C 6.023438 12.570312 5.492188 12.257812 5.632812 12.046875 C 5.773438 11.835938 6.339844 12.09375 6.589844 11.992188 C 6.835938 11.890625 7.023438 11.328125 7.28125 11.375 C 7.542969 11.417969 7.421875 11.996094 7.59375 12.175781 C 7.765625 12.351562 8.414062 12.3125 8.433594 12.550781 C 8.453125 12.789062 7.808594 12.890625 7.667969 13.101562 C 7.527344 13.3125 7.742188 13.851562 7.496094 13.953125 C 7.246094 14.054688 6.972656 13.539062 6.710938 13.492188 C 6.453125 13.445312 5.9375 13.820312 5.761719 13.640625 Z M 5.761719 13.640625 "/>
</g>
</svg>
