<?xml version="1.0" encoding="UTF-8"?>
<svg xmlns="http://www.w3.org/2000/svg" xmlns:xlink="http://www.w3.org/1999/xlink" width="24px" height="24px" viewBox="0 0 24 24" version="1.1">
<defs>
<clipPath id="clip1">
  <path d="M 2 15.25 L 12 15.25 L 12 19 L 2 19 Z M 2 15.25 "/>
</clipPath>
<clipPath id="clip2">
  <path d="M 1 15.25 L 13 15.25 L 13 19.894531 L 1 19.894531 Z M 1 15.25 "/>
</clipPath>
<clipPath id="clip3">
  <path d="M 2 11 L 12 11 L 12 15.25 L 2 15.25 Z M 2 11 "/>
</clipPath>
<clipPath id="clip4">
  <path d="M 1 10.605469 L 13 10.605469 L 13 15.25 L 1 15.25 Z M 1 10.605469 "/>
</clipPath>
</defs>
<g id="surface1">
<path style="fill-rule:nonzero;fill:rgb(95.294118%,71.764708%,85.09804%);fill-opacity:1;stroke-width:0.427404;stroke-linecap:round;stroke-linejoin:round;stroke:rgb(90.196079%,0.784314%,70.588237%);stroke-opacity:1;stroke-miterlimit:4;" d="M 3.881774 0.396875 C 3.87287 0.397988 3.862853 0.397988 3.852836 0.397988 C 3.84727 0.396875 3.841705 0.396875 3.837253 0.396875 C 3.488874 0.396875 3.142722 0.532665 2.898968 0.761949 C 2.654101 0.992347 2.513859 1.3129 2.513859 1.635679 C 2.513859 1.958457 2.654101 2.27901 2.898968 2.509408 C 3.143835 2.738692 3.488874 2.873369 3.837253 2.874482 C 3.843931 2.873369 3.849496 2.873369 3.855062 2.873369 C 3.907374 2.871143 3.95746 2.890064 3.995303 2.924568 C 4.032033 2.960185 4.053181 3.008046 4.053181 3.058132 L 4.053181 5.953125 L 4.432725 5.953125 L 4.432725 0.952278 C 4.432725 0.849879 4.518428 0.767514 4.623053 0.767514 L 5.003709 0.767514 C 5.108334 0.767514 5.192925 0.849879 5.192925 0.952278 L 5.192925 5.953125 L 5.573581 5.953125 L 5.573581 0.952278 C 5.573581 0.849879 5.658172 0.767514 5.762796 0.767514 L 5.953125 0.767514 L 5.953125 0.396875 Z M 3.881774 0.396875 " transform="matrix(3.509561,0,0,3.509561,0.857144,0.857142)"/>
<g clip-path="url(#clip1)" clip-rule="nonzero">
<path style=" stroke:none;fill-rule:evenodd;fill:rgb(95.294118%,71.764708%,85.09804%);fill-opacity:1;" d="M 2.25 14.320312 L 2.25 16.179688 L 7.820312 16.179688 L 7.820312 18.964844 L 11.535156 15.25 L 7.882812 11.535156 L 7.820312 14.320312 Z M 2.25 14.320312 "/>
</g>
<g clip-path="url(#clip2)" clip-rule="nonzero">
<path style="fill:none;stroke-width:0.427404;stroke-linecap:round;stroke-linejoin:round;stroke:rgb(90.196079%,0.784314%,70.588237%);stroke-opacity:1;stroke-miterlimit:4;" d="M 0.396875 3.836141 L 0.396875 4.365943 L 1.984057 4.365943 L 1.984057 5.159534 L 3.042549 4.101042 L 2.001865 3.04255 L 1.984057 3.836141 Z M 0.396875 3.836141 " transform="matrix(3.509561,0,0,3.509561,0.857144,0.857142)"/>
</g>
<g clip-path="url(#clip3)" clip-rule="nonzero">
<path style=" stroke:none;fill-rule:evenodd;fill:rgb(95.294118%,71.764708%,85.09804%);fill-opacity:1;" d="M 2.25 16.179688 L 2.25 14.320312 L 7.820312 14.320312 L 7.820312 11.535156 L 11.535156 15.25 L 7.882812 18.964844 L 7.820312 16.179688 Z M 2.25 16.179688 "/>
</g>
<g clip-path="url(#clip4)" clip-rule="nonzero">
<path style="fill:none;stroke-width:0.427404;stroke-linecap:round;stroke-linejoin:round;stroke:rgb(90.196079%,0.784314%,70.588237%);stroke-opacity:1;stroke-miterlimit:4;" d="M 0.396875 3.83614 L 0.396875 4.365943 L 1.984057 4.365943 L 1.984057 5.159534 L 3.042549 4.101042 L 2.001865 3.042549 L 1.984057 3.83614 Z M 0.396875 3.83614 " transform="matrix(3.509561,0,0,-3.509561,0.857144,29.642857)"/>
</g>
</g>
</svg>
