<?xml version="1.0" encoding="UTF-8"?>
<svg xmlns="http://www.w3.org/2000/svg" xmlns:xlink="http://www.w3.org/1999/xlink" width="24px" height="24px" viewBox="0 0 24 24" version="1.1">
<g id="surface1">
<path style="fill:none;stroke-width:0.938729;stroke-linecap:round;stroke-linejoin:miter;stroke:rgb(90.196079%,0.784314%,70.588237%);stroke-opacity:1;stroke-miterlimit:4;" d="M 7.663464 11.362701 L 7.663464 12.980827 " transform="matrix(1.56,0,0,1.636731,-0.0760971,-1.023461)"/>
<path style="fill-rule:evenodd;fill:rgb(94.117647%,89.019608%,92.54902%);fill-opacity:1;stroke-width:0.938729;stroke-linecap:round;stroke-linejoin:round;stroke:rgb(90.196079%,0.784314%,70.588237%);stroke-opacity:1;stroke-miterlimit:4;" d="M 3.531853 2.852022 L 11.957835 2.852022 C 12.754109 2.852022 13.400143 3.46777 13.400143 4.226714 L 13.400143 9.811399 C 13.400143 10.570344 12.754109 11.186091 11.957835 11.186091 L 3.531853 11.186091 C 2.735579 11.186091 2.089546 10.570344 2.089546 9.811399 L 2.089546 4.226714 C 2.089546 3.46777 2.735579 2.852022 3.531853 2.852022 Z M 3.531853 2.852022 " transform="matrix(1.56,0,0,1.636731,-0.0760971,-1.023461)"/>
<path style="fill-rule:evenodd;fill:rgb(61.56863%,22.745098%,60.784316%);fill-opacity:1;stroke-width:0.938729;stroke-linecap:round;stroke-linejoin:round;stroke:rgb(90.196079%,0.784314%,70.588237%);stroke-opacity:1;stroke-miterlimit:4;" d="M 2.928388 2 L 12.553789 2 C 13.350063 2 13.996096 2.398565 13.996096 2.892595 C 13.996096 3.386625 13.350063 3.78519 12.553789 3.78519 L 2.928388 3.78519 C 2.132114 3.78519 1.48608 3.386625 1.48608 2.892595 C 1.48608 2.398565 2.132114 2 2.928388 2 Z M 2.928388 2 " transform="matrix(1.56,0,0,1.636731,-0.0760971,-1.023461)"/>
<path style="fill-rule:evenodd;fill:rgb(61.56863%,22.745098%,60.784316%);fill-opacity:1;stroke-width:0.938729;stroke-linecap:round;stroke-linejoin:round;stroke:rgb(90.196079%,0.784314%,70.588237%);stroke-opacity:1;stroke-miterlimit:4;" d="M 8.364586 13.257675 C 8.364586 13.620441 8.051585 13.913995 7.663464 13.913995 C 7.275343 13.913995 6.962342 13.620441 6.962342 13.257675 C 6.962342 12.894909 7.275343 12.601355 7.663464 12.601355 C 8.051585 12.601355 8.364586 12.894909 8.364586 13.257675 Z M 8.364586 13.257675 " transform="matrix(1.56,0,0,1.636731,-0.0760971,-1.023461)"/>
<path style="fill-rule:nonzero;fill:rgb(90.196079%,0.784314%,70.588237%);fill-opacity:1;stroke-width:2.392385;stroke-linecap:butt;stroke-linejoin:miter;stroke:rgb(90.196079%,0.784314%,70.588237%);stroke-opacity:1;stroke-miterlimit:4;" d="M -1.071071 15.471691 C -2.79663 16.166626 -3.248714 14.087917 -3.248714 14.087917 C -3.248714 14.087917 -4.165616 16.343408 -5.681052 15.014497 C -7.196487 13.67949 -4.967905 12.612704 -4.967905 12.612704 C -4.967905 12.612704 -7.533958 12.411539 -6.642525 10.698585 C -5.751093 8.979535 -4.025534 10.594954 -4.025534 10.594954 C -4.025534 10.594954 -4.732313 8.266312 -2.631079 8.491861 C -0.523477 8.711314 -1.720544 10.826599 -1.720544 10.826599 C -1.720544 10.826599 0.457099 9.70495 0.820039 11.442287 C 1.176612 13.179625 -1.236623 12.984555 -1.236623 12.984555 C -1.236623 12.984555 0.654487 14.776756 -1.071071 15.471691 Z M -1.071071 15.471691 " transform="matrix(0.613479,0,0,0.640797,9.012548,3.54672)"/>
<path style="fill-rule:nonzero;fill:rgb(95.294118%,71.764708%,85.09804%);fill-opacity:1;stroke-width:2.392385;stroke-linecap:butt;stroke-linejoin:miter;stroke:rgb(95.294118%,71.764708%,85.09804%);stroke-opacity:1;stroke-miterlimit:4;" d="M -1.911565 13.965999 C -2.879406 14.356138 -3.134101 13.191817 -3.134101 13.191817 C -3.134101 13.191817 -3.649859 14.453672 -4.49672 13.70997 C -5.343581 12.960172 -4.101942 12.362771 -4.101942 12.362771 C -4.101942 12.362771 -5.534602 12.253045 -5.037947 11.289889 C -4.534924 10.326734 -3.57345 11.235026 -3.57345 11.235026 C -3.57345 11.235026 -3.968227 9.930499 -2.790263 10.052417 C -1.605931 10.174335 -2.280873 11.36304 -2.280873 11.36304 C -2.280873 11.36304 -1.058337 10.73516 -0.860948 11.710508 C -0.657192 12.679759 -2.007076 12.570033 -2.007076 12.570033 C -2.007076 12.570033 -0.950091 13.57586 -1.911565 13.965999 Z M -1.911565 13.965999 " transform="matrix(0.613479,0,0,0.640797,9.012548,3.54672)"/>
<path style=" stroke:none;fill-rule:nonzero;fill:rgb(61.56863%,22.745098%,60.784316%);fill-opacity:1;" d="M 7.90625 11.265625 C 7.90625 11.683594 7.582031 12.023438 7.179688 12.023438 C 6.777344 12.023438 6.449219 11.683594 6.449219 11.265625 C 6.449219 10.84375 6.777344 10.503906 7.179688 10.503906 C 7.582031 10.503906 7.90625 10.84375 7.90625 11.265625 Z M 7.90625 11.265625 "/>
<path style="fill:none;stroke-width:0.938729;stroke-linecap:round;stroke-linejoin:miter;stroke:rgb(90.196079%,0.784314%,70.588237%);stroke-opacity:1;stroke-miterlimit:4;" d="M 8.041569 5.57038 L 12.208236 5.57038 " transform="matrix(1.56,0,0,1.636731,-0.0760971,-1.023461)"/>
<path style="fill:none;stroke-width:0.938729;stroke-linecap:round;stroke-linejoin:miter;stroke:rgb(90.196079%,0.784314%,70.588237%);stroke-opacity:1;stroke-miterlimit:4;" d="M 8.041569 6.761302 L 12.208236 6.761302 " transform="matrix(1.56,0,0,1.636731,-0.0760971,-1.023461)"/>
<path style="fill:none;stroke-width:0.938729;stroke-linecap:round;stroke-linejoin:miter;stroke:rgb(90.196079%,0.784314%,70.588237%);stroke-opacity:1;stroke-miterlimit:4;" d="M 8.041569 7.952224 L 12.208236 7.952224 " transform="matrix(1.56,0,0,1.636731,-0.0760971,-1.023461)"/>
<path style="fill:none;stroke-width:0.938729;stroke-linecap:round;stroke-linejoin:miter;stroke:rgb(90.196079%,0.784314%,70.588237%);stroke-opacity:1;stroke-miterlimit:4;" d="M 8.041569 9.143146 L 12.208236 9.143146 " transform="matrix(1.56,0,0,1.636731,-0.0760971,-1.023461)"/>
</g>
</svg>
