<?xml version="1.0" encoding="UTF-8"?>
<svg xmlns="http://www.w3.org/2000/svg" xmlns:xlink="http://www.w3.org/1999/xlink" width="24px" height="24px" viewBox="0 0 24 24" version="1.1">
<g id="surface1">
<path style=" stroke:none;fill-rule:nonzero;fill:rgb(33.333334%,34.117648%,32.549021%);fill-opacity:1;" d="M 0 3 L 0 21 L 12 21 L 12 18 L 3 18 L 3 6 L 21 6 L 21 13.5 L 24 13.5 L 24 3 Z M 4.5 7.5 L 4.5 10.5 L 19.5 10.5 L 19.5 7.5 Z M 4.5 13.5 L 4.5 16.5 L 10.5 16.5 L 10.5 13.5 Z M 13.5 13.5 L 13.5 16.5 L 16.5 16.5 L 16.5 13.5 Z M 18 13.5 L 18 15 C 20.339844 17.4375 17.148438 20.246094 15 18 L 13.5 18 L 13.5 19.5 C 14.699219 20.65625 15.953125 21 17.101562 21 L 19.5 21 L 22.5 24 L 24 24 L 24 22.5 L 21 19.5 L 21 17.101562 C 21 15.777344 20.679688 14.699219 19.5 13.5 Z M 18 13.5 "/>
</g>
</svg>
