<?xml version="1.0" encoding="UTF-8"?>
<svg xmlns="http://www.w3.org/2000/svg" xmlns:xlink="http://www.w3.org/1999/xlink" width="24px" height="24px" viewBox="0 0 24 24" version="1.1">
<defs>
<clipPath id="clip1">
  <path d="M 2 8 L 22 8 L 22 19 L 2 19 Z M 2 8 "/>
</clipPath>
<clipPath id="clip2">
  <path d="M 4.808594 19.195312 L 4.808594 14.027344 L 19.082031 14.027344 L 19.082031 19.195312 L 23.5625 19.277344 L 23.5625 7.425781 L 0.328125 7.425781 L 0.328125 19.277344 Z M 4.808594 19.195312 "/>
</clipPath>
<clipPath id="clip3">
  <path d="M 0 7 L 24 7 L 24 20 L 0 20 Z M 0 7 "/>
</clipPath>
<clipPath id="clip4">
  <path d="M 4.808594 19.195312 L 4.808594 14.027344 L 19.082031 14.027344 L 19.082031 19.195312 L 23.5625 19.277344 L 23.5625 7.425781 L 0.328125 7.425781 L 0.328125 19.277344 Z M 4.808594 19.195312 "/>
</clipPath>
<clipPath id="clip5">
  <path d="M 5 13 L 19 13 L 19 22 L 5 22 Z M 5 13 "/>
</clipPath>
<clipPath id="clip6">
  <path d="M 4.433594 13.566406 L 19.480469 13.566406 L 19.480469 22.261719 L 4.433594 22.804688 Z M 4.433594 13.566406 "/>
</clipPath>
<clipPath id="clip7">
  <path d="M 4 13 L 20 13 L 20 23 L 4 23 Z M 4 13 "/>
</clipPath>
<clipPath id="clip8">
  <path d="M 4.433594 13.566406 L 19.480469 13.566406 L 19.480469 22.261719 L 4.433594 22.804688 Z M 4.433594 13.566406 "/>
</clipPath>
<clipPath id="clip9">
  <path d="M 5 2 L 19 2 L 19 8 L 5 8 Z M 5 2 "/>
</clipPath>
<clipPath id="clip10">
  <path d="M 4.101562 7.980469 L 19.769531 7.980469 L 19.769531 1.066406 C 19.769531 1.066406 5.082031 -0.316406 4.101562 1.066406 C 3.121094 2.449219 3.121094 2.449219 3.121094 2.449219 Z M 4.101562 7.980469 "/>
</clipPath>
<clipPath id="clip11">
  <path d="M 3 0 L 20 0 L 20 8 L 3 8 Z M 3 0 "/>
</clipPath>
<clipPath id="clip12">
  <path d="M 4.101562 7.980469 L 19.769531 7.980469 L 19.769531 1.066406 C 19.769531 1.066406 5.082031 -0.316406 4.101562 1.066406 C 3.121094 2.449219 3.121094 2.449219 3.121094 2.449219 Z M 4.101562 7.980469 "/>
</clipPath>
</defs>
<g id="surface1">
<path style="fill-rule:nonzero;fill:rgb(11.372549%,11.372549%,11.372549%);fill-opacity:1;stroke-width:0.444708;stroke-linecap:butt;stroke-linejoin:miter;stroke:rgb(90.196079%,0.784314%,70.588237%);stroke-opacity:1;stroke-miterlimit:4;" d="M 1.140374 -1.12903 L 5.194486 -1.12903 C 5.501721 -1.12903 5.750049 -0.894472 5.750049 -0.6065 C 5.750049 -0.317366 5.501721 -0.082808 5.194486 -0.082808 L 1.140374 -0.082808 C 0.833139 -0.082808 0.58481 -0.317366 0.58481 -0.6065 C 0.58481 -0.894472 0.833139 -1.12903 1.140374 -1.12903 Z M 1.140374 -1.12903 " transform="matrix(3.381983,0,0,-3.364038,1.221401,8.6394)"/>
<g clip-path="url(#clip1)" clip-rule="nonzero">
<g clip-path="url(#clip2)" clip-rule="nonzero">
<path style=" stroke:none;fill-rule:nonzero;fill:rgb(95.294118%,71.764708%,85.09804%);fill-opacity:1;" d="M 5.167969 8.371094 L 18.722656 8.371094 C 20.324219 8.371094 21.625 9.851562 21.625 11.671875 L 21.625 15.476562 C 21.625 17.296875 20.324219 18.777344 18.722656 18.777344 L 5.167969 18.777344 C 3.5625 18.777344 2.265625 17.296875 2.265625 15.476562 L 2.265625 11.671875 C 2.265625 9.851562 3.5625 8.371094 5.167969 8.371094 Z M 5.167969 8.371094 "/>
</g>
</g>
<g clip-path="url(#clip3)" clip-rule="nonzero">
<g clip-path="url(#clip4)" clip-rule="nonzero">
<path style="fill:none;stroke-width:0.485056;stroke-linecap:butt;stroke-linejoin:miter;stroke:rgb(90.196079%,0.784314%,70.588237%);stroke-opacity:1;stroke-miterlimit:4;" d="M 1.036463 -0.226518 L 5.35994 -0.226518 C 5.870784 -0.226518 6.285688 0.258834 6.285688 0.8556 L 6.285688 2.102916 C 6.285688 2.699681 5.870784 3.185033 5.35994 3.185033 L 1.036463 3.185033 C 0.524373 3.185033 0.110715 2.699681 0.110715 2.102916 L 0.110715 0.8556 C 0.110715 0.258834 0.524373 -0.226518 1.036463 -0.226518 Z M 1.036463 -0.226518 " transform="matrix(3.135135,0,0,3.050299,1.918518,9.06204)"/>
</g>
</g>
<g clip-path="url(#clip5)" clip-rule="nonzero">
<g clip-path="url(#clip6)" clip-rule="nonzero">
<path style=" stroke:none;fill-rule:nonzero;fill:rgb(94.117647%,89.019608%,92.54902%);fill-opacity:0.996078;" d="M 6.234375 12.027344 L 17.671875 12.027344 C 18.339844 12.027344 18.882812 12.609375 18.882812 13.328125 L 18.882812 20.464844 C 18.882812 21.179688 18.339844 21.761719 17.671875 21.761719 L 6.234375 21.761719 C 5.566406 21.761719 5.023438 21.179688 5.023438 20.464844 L 5.023438 13.328125 C 5.023438 12.609375 5.566406 12.027344 6.234375 12.027344 Z M 6.234375 12.027344 "/>
</g>
</g>
<g clip-path="url(#clip7)" clip-rule="nonzero">
<g clip-path="url(#clip8)" clip-rule="nonzero">
<path style="fill:none;stroke-width:0.450721;stroke-linecap:butt;stroke-linejoin:miter;stroke:rgb(90.196079%,0.784314%,70.588237%);stroke-opacity:1;stroke-miterlimit:4;" d="M 1.387854 1.054004 L 4.9536 1.054004 C 5.161845 1.054004 5.331121 1.222566 5.331121 1.430724 L 5.331121 3.497593 C 5.331121 3.70462 5.161845 3.873182 4.9536 3.873182 L 1.387854 3.873182 C 1.179609 3.873182 1.010333 3.70462 1.010333 3.497593 L 1.010333 1.430724 C 1.010333 1.222566 1.179609 1.054004 1.387854 1.054004 Z M 1.387854 1.054004 " transform="matrix(3.207604,0,0,3.452912,1.782689,8.38796)"/>
</g>
</g>
<g clip-path="url(#clip9)" clip-rule="nonzero">
<g clip-path="url(#clip10)" clip-rule="nonzero">
<path style=" stroke:none;fill-rule:nonzero;fill:rgb(94.117647%,89.019608%,92.54902%);fill-opacity:0.996078;" d="M 6.453125 2.449219 L 17.414062 2.449219 C 18.175781 2.449219 18.789062 3.03125 18.789062 3.75 L 18.789062 8.753906 C 18.789062 9.472656 18.175781 10.054688 17.414062 10.054688 L 6.453125 10.054688 C 5.695312 10.054688 5.082031 9.472656 5.082031 8.753906 L 5.082031 3.75 C 5.082031 3.03125 5.695312 2.449219 6.453125 2.449219 Z M 6.453125 2.449219 "/>
</g>
</g>
<g clip-path="url(#clip11)" clip-rule="nonzero">
<g clip-path="url(#clip12)" clip-rule="nonzero">
<path style="fill:none;stroke-width:0.404322;stroke-linecap:butt;stroke-linejoin:miter;stroke:rgb(90.196079%,0.784314%,70.588237%);stroke-opacity:1;stroke-miterlimit:4;" d="M 1.421628 -2.118797 L 4.921271 -2.118797 C 5.164475 -2.118797 5.360286 -1.98635 5.360286 -1.822791 L 5.360286 -0.684102 C 5.360286 -0.520543 5.164475 -0.388096 4.921271 -0.388096 L 1.421628 -0.388096 C 1.179671 -0.388096 0.983861 -0.520543 0.983861 -0.684102 L 0.983861 -1.822791 C 0.983861 -1.98635 1.179671 -2.118797 1.421628 -2.118797 Z M 1.421628 -2.118797 " transform="matrix(3.132016,0,0,4.394445,2.000563,11.760155)"/>
</g>
</g>
<path style="fill-rule:evenodd;fill:rgb(61.56863%,22.745098%,60.784316%);fill-opacity:1;stroke-width:0.222354;stroke-linecap:round;stroke-linejoin:round;stroke:rgb(90.196079%,0.784314%,70.588237%);stroke-opacity:1;stroke-miterlimit:4;" d="M 5.489015 0.45903 C 5.489015 0.554247 5.410474 0.630884 5.315763 0.630884 C 5.219896 0.630884 5.14251 0.554247 5.14251 0.45903 C 5.14251 0.364974 5.219896 0.288337 5.315763 0.288337 C 5.410474 0.288337 5.489015 0.364974 5.489015 0.45903 Z M 5.489015 0.45903 " transform="matrix(3.381983,0,0,3.364038,1.221401,8.6394)"/>
<path style="fill-rule:evenodd;fill:rgb(61.56863%,22.745098%,60.784316%);fill-opacity:1;stroke-width:0.222354;stroke-linecap:round;stroke-linejoin:round;stroke:rgb(90.196079%,0.784314%,70.588237%);stroke-opacity:1;stroke-miterlimit:4;" d="M 4.615822 0.461352 C 4.615822 0.556569 4.538436 0.633207 4.442569 0.633207 C 4.346703 0.633207 4.269317 0.556569 4.269317 0.461352 C 4.269317 0.367297 4.346703 0.289498 4.442569 0.289498 C 4.538436 0.289498 4.615822 0.367297 4.615822 0.461352 Z M 4.615822 0.461352 " transform="matrix(3.381983,0,0,3.364038,1.221401,8.6394)"/>
<path style="fill:none;stroke-width:0.444708;stroke-linecap:butt;stroke-linejoin:miter;stroke:rgb(90.196079%,0.784314%,70.588237%);stroke-opacity:1;stroke-miterlimit:4;" d="M 0.987911 1.442548 L 5.353878 1.442548 " transform="matrix(3.381983,0,0,3.364038,1.221401,8.6394)"/>
<path style="fill:none;stroke-width:0.444708;stroke-linecap:round;stroke-linejoin:miter;stroke:rgb(90.196079%,0.784314%,70.588237%);stroke-opacity:1;stroke-miterlimit:4;" d="M 1.670527 1.982496 L 4.685123 1.982496 " transform="matrix(3.381983,0,0,3.364038,1.221401,8.6394)"/>
<path style="fill:none;stroke-width:0.444708;stroke-linecap:round;stroke-linejoin:miter;stroke:rgb(90.196079%,0.784314%,70.588237%);stroke-opacity:1;stroke-miterlimit:4;" d="M 1.663597 2.52825 L 4.678193 2.52825 " transform="matrix(3.381983,0,0,3.364038,1.221401,8.6394)"/>
<path style="fill-rule:nonzero;fill:rgb(61.56863%,22.745098%,60.784316%);fill-opacity:1;stroke-width:0.111177;stroke-linecap:round;stroke-linejoin:round;stroke:rgb(61.56863%,22.745098%,60.784316%);stroke-opacity:1;stroke-miterlimit:4;" d="M 1.658977 3.287661 C 1.668217 3.392167 1.742138 3.468805 1.833384 3.468805 C 1.8946 3.468805 1.950041 3.435131 1.982382 3.381717 C 2.013567 3.436292 2.066698 3.468805 2.126759 3.468805 C 2.21916 3.468805 2.291926 3.392167 2.301166 3.287661 C 2.302321 3.283017 2.304631 3.258632 2.295391 3.217991 C 2.282686 3.161093 2.251501 3.10884 2.206455 3.067037 L 1.982382 2.860348 L 1.753688 3.067037 C 1.708642 3.10884 1.677457 3.161093 1.664752 3.217991 C 1.655512 3.258632 1.657822 3.283017 1.658977 3.287661 Z M 1.689007 3.223796 C 1.700557 3.171543 1.729433 3.123935 1.769858 3.085616 L 1.982382 2.895183 L 2.190285 3.085616 C 2.231865 3.123935 2.259586 3.171543 2.272291 3.223796 C 2.280376 3.262115 2.276911 3.283017 2.276911 3.283017 L 2.276911 3.284178 C 2.268826 3.377072 2.2053 3.443259 2.126759 3.443259 C 2.069008 3.443259 2.018187 3.407263 1.993932 3.349204 L 1.982382 3.321336 L 1.970831 3.349204 C 1.946576 3.406102 1.89229 3.443259 1.833384 3.443259 C 1.754843 3.443259 1.691317 3.377072 1.683232 3.283017 C 1.683232 3.283017 1.679767 3.262115 1.689007 3.223796 Z M 1.689007 3.223796 " transform="matrix(3.381983,0,0,3.364038,1.221401,8.6394)"/>
<path style="fill-rule:nonzero;fill:rgb(94.117647%,89.019608%,92.54902%);fill-opacity:1;stroke-width:0.429862;stroke-linecap:round;stroke-linejoin:round;stroke:rgb(61.56863%,22.745098%,60.784316%);stroke-opacity:1;stroke-miterlimit:4;" d="M 3.606311 3.84593 L 4.426159 1.386687 L 3.867274 1.386687 L 4.658001 -1.181086 L 5.987454 -1.181086 L 4.933524 0.793693 L 5.55625 0.793693 Z M 3.606311 3.84593 " transform="matrix(3.48769,0,0,3.491292,0.871521,8.377422)"/>
</g>
</svg>
