<?xml version="1.0" encoding="UTF-8"?>
<svg xmlns="http://www.w3.org/2000/svg" xmlns:xlink="http://www.w3.org/1999/xlink" width="24px" height="24px" viewBox="0 0 24 24" version="1.1">
<g id="surface1">
<path style=" stroke:none;fill-rule:nonzero;fill:rgb(90.196079%,0.784314%,70.588237%);fill-opacity:1;" d="M 3 1.5 L 3 22.5 L 21 22.5 L 21 1.5 Z M 3 1.5 "/>
<path style=" stroke:none;fill-rule:nonzero;fill:rgb(95.294118%,71.764708%,85.09804%);fill-opacity:1;" d="M 4.628906 3 C 4.527344 3 4.445312 3.082031 4.445312 3.183594 L 4.472656 12 L 4.445312 20.816406 C 4.445312 20.917969 4.527344 21 4.628906 21 L 19.316406 21 C 19.417969 21 19.5 20.917969 19.5 20.816406 L 19.5 3.183594 C 19.5 3.082031 19.417969 3 19.316406 3 Z M 4.628906 3 "/>
<path style=" stroke:none;fill-rule:nonzero;fill:rgb(61.56863%,22.745098%,60.784316%);fill-opacity:1;" d="M 6 1.5 L 7.5 1.5 L 7.5 22.5 L 6 22.5 Z M 6 1.5 "/>
<path style=" stroke:none;fill-rule:nonzero;fill:rgb(61.56863%,22.745098%,60.784316%);fill-opacity:1;" d="M 16.5 1.5 L 18 1.5 L 18 22.5 L 16.5 22.5 Z M 16.5 1.5 "/>
<path style=" stroke:none;fill-rule:nonzero;fill:rgb(61.56863%,22.745098%,60.784316%);fill-opacity:1;" d="M 3 4.5 L 21 4.5 L 21 6 L 3 6 Z M 3 4.5 "/>
<path style=" stroke:none;fill-rule:nonzero;fill:rgb(61.56863%,22.745098%,60.784316%);fill-opacity:1;" d="M 3 18 L 21 18 L 21 19.5 L 3 19.5 Z M 3 18 "/>
</g>
</svg>
