<?xml version="1.0" encoding="UTF-8"?>
<svg xmlns="http://www.w3.org/2000/svg" xmlns:xlink="http://www.w3.org/1999/xlink" width="24px" height="24px" viewBox="0 0 24 24" version="1.1">
<g id="surface1">
<path style="fill-rule:evenodd;fill:rgb(94.117647%,89.019608%,92.54902%);fill-opacity:1;stroke-width:1;stroke-linecap:round;stroke-linejoin:round;stroke:rgb(90.196079%,0.784314%,70.588237%);stroke-opacity:1;stroke-miterlimit:4;" d="M 2.455729 1.455729 L 12.502604 1.455729 C 13.054688 1.455729 13.502604 1.903646 13.502604 2.455729 L 13.502604 13.544271 C 13.502604 14.096354 13.054688 14.544271 12.502604 14.544271 L 2.455729 14.544271 C 1.903646 14.544271 1.455729 14.096354 1.455729 13.544271 L 1.455729 2.455729 C 1.455729 1.903646 1.903646 1.455729 2.455729 1.455729 Z M 2.455729 1.455729 " transform="matrix(1.5,0,0,1.5,0,0)"/>
<path style="fill-rule:nonzero;fill:rgb(61.56863%,22.745098%,60.784316%);fill-opacity:1;stroke-width:0.25;stroke-linecap:butt;stroke-linejoin:miter;stroke:rgb(61.56863%,22.745098%,60.784316%);stroke-opacity:1;stroke-miterlimit:4;" d="M 3.869792 4.289062 C 3.908854 3.872396 4.195312 3.570312 4.552083 3.570312 C 4.791667 3.570312 5.010417 3.703125 5.132812 3.914062 C 5.255208 3.700521 5.466146 3.570312 5.700521 3.570312 C 6.059896 3.570312 6.346354 3.872396 6.382812 4.289062 C 6.385417 4.307292 6.398438 4.40625 6.361979 4.5625 C 6.309896 4.791667 6.1875 5 6.013021 5.164062 L 5.135417 5.984375 L 4.242188 5.164062 C 4.065104 5 3.945312 4.791667 3.893229 4.5625 C 3.856771 4.40625 3.867188 4.307292 3.869792 4.289062 Z M 3.986979 4.541667 C 4.033854 4.75 4.145833 4.9375 4.307292 5.088542 L 5.132812 5.851562 L 5.947917 5.088542 C 6.109375 4.9375 6.21875 4.75 6.265625 4.541667 C 6.302083 4.390625 6.286458 4.307292 6.286458 4.304688 L 6.286458 4.299479 C 6.255208 3.934896 6.007812 3.669271 5.700521 3.669271 C 5.473958 3.669271 5.273438 3.8125 5.179688 4.044271 L 5.132812 4.153646 L 5.088542 4.044271 C 4.994792 3.817708 4.786458 3.669271 4.552083 3.669271 C 4.244792 3.669271 3.997396 3.934896 3.966146 4.304688 C 3.966146 4.307292 3.953125 4.390625 3.986979 4.541667 Z M 3.986979 4.541667 " transform="matrix(1.5,0,0,1.5,0,0)"/>
<path style="fill:none;stroke-width:1;stroke-linecap:round;stroke-linejoin:miter;stroke:rgb(90.196079%,0.784314%,70.588237%);stroke-opacity:1;stroke-miterlimit:4;" d="M 3.992188 7.065104 L 11.330729 7.065104 " transform="matrix(1.5,0,0,1.5,0,0)"/>
<path style="fill:none;stroke-width:1;stroke-linecap:round;stroke-linejoin:miter;stroke:rgb(90.196079%,0.784314%,70.588237%);stroke-opacity:1;stroke-miterlimit:4;" d="M 3.992188 8.934896 L 11.330729 8.934896 " transform="matrix(1.5,0,0,1.5,0,0)"/>
<path style="fill:none;stroke-width:1;stroke-linecap:round;stroke-linejoin:miter;stroke:rgb(90.196079%,0.784314%,70.588237%);stroke-opacity:1;stroke-miterlimit:4;" d="M 3.992188 10.804688 L 11.330729 10.804688 " transform="matrix(1.5,0,0,1.5,0,0)"/>
<path style=" stroke:none;fill-rule:nonzero;fill:rgb(90.196079%,0.784314%,70.588237%);fill-opacity:1;" d="M 17.285156 16.621094 C 16.941406 16.960938 15.683594 17.488281 16.019531 17.839844 L 17.21875 19.128906 L 17.851562 18.519531 L 21.042969 21.957031 C 21.84375 22.84375 23.132812 21.597656 22.308594 20.738281 L 19.117188 17.300781 L 19.75 16.691406 L 18.550781 15.402344 C 18.21875 15.035156 17.636719 16.269531 17.285156 16.621094 Z M 17.285156 16.621094 "/>
<path style="fill-rule:nonzero;fill:rgb(95.294118%,71.764708%,85.09804%);fill-opacity:1;stroke-width:1.590889;stroke-linecap:square;stroke-linejoin:miter;stroke:rgb(90.196079%,0.784314%,70.588237%);stroke-opacity:1;stroke-miterlimit:4;" d="M 6.910344 18.143172 C 6.910554 21.25953 4.386231 23.785341 1.269202 23.785434 C -1.841972 23.785339 -4.368235 21.257012 -4.368308 18.146513 C -4.368518 15.030154 -1.844195 12.504344 1.269837 12.501415 C 4.384008 12.504346 6.907274 15.029837 6.910344 18.143172 Z M 6.910344 18.143172 " transform="matrix(0.688024,-0.645376,0.650502,0.681929,0.755839,0.782723)"/>
<path style="fill-rule:nonzero;fill:rgb(95.294118%,71.764708%,85.09804%);fill-opacity:1;stroke-width:1.590857;stroke-linecap:round;stroke-linejoin:miter;stroke:rgb(61.56863%,22.745098%,60.784316%);stroke-opacity:1;stroke-miterlimit:4;" d="M 11.202417 9.120791 C 11.85957 8.69873 12.639938 8.468895 13.469593 8.498147 C 14.553895 8.535756 15.523195 9.016321 16.225527 9.76433 " transform="matrix(0.951073,0,0,0.934773,0.755839,0.782723)"/>
<path style="fill:none;stroke-width:1.590857;stroke-linecap:round;stroke-linejoin:miter;stroke:rgb(61.56863%,22.745098%,60.784316%);stroke-opacity:1;stroke-miterlimit:4;" d="M 19.121105 16.270754 L 16.804642 18.673577 " transform="matrix(0.951073,0,0,0.934773,0.755839,0.782723)"/>
</g>
</svg>
