<?xml version="1.0" encoding="UTF-8"?>
<svg xmlns="http://www.w3.org/2000/svg" xmlns:xlink="http://www.w3.org/1999/xlink" width="24px" height="24px" viewBox="0 0 24 24" version="1.1">
<defs>
<clipPath id="clip1">
  <path d="M 12 15.242188 L 22 15.242188 L 22 19 L 12 19 Z M 12 15.242188 "/>
</clipPath>
<clipPath id="clip2">
  <path d="M 11 15.242188 L 23 15.242188 L 23 19.871094 L 11 19.871094 Z M 11 15.242188 "/>
</clipPath>
<clipPath id="clip3">
  <path d="M 12 11 L 22 11 L 22 15.242188 L 12 15.242188 Z M 12 11 "/>
</clipPath>
<clipPath id="clip4">
  <path d="M 11 10.609375 L 23 10.609375 L 23 15.242188 L 11 15.242188 Z M 11 10.609375 "/>
</clipPath>
</defs>
<g id="surface1">
<path style="fill-rule:nonzero;fill:rgb(95.294118%,71.764708%,85.09804%);fill-opacity:1;stroke-width:0.428508;stroke-linecap:round;stroke-linejoin:round;stroke:rgb(90.196079%,0.784314%,70.588237%);stroke-opacity:1;stroke-miterlimit:4;" d="M 2.468632 -1.693812 C 2.477559 -1.692696 2.487602 -1.69158 2.49653 -1.692696 C 2.502109 -1.692696 2.507689 -1.692696 2.513268 -1.692696 C 2.861431 -1.692696 3.206245 -1.557671 3.450628 -1.327795 C 3.696128 -1.097919 3.836732 -0.777654 3.836732 -0.455157 C 3.836732 -0.132661 3.696128 0.18872 3.450628 0.418596 C 3.206245 0.648473 2.860315 0.783497 2.512152 0.783497 C 2.506573 0.783497 2.500993 0.783497 2.494298 0.783497 C 2.442966 0.781266 2.39275 0.800236 2.35481 0.834829 C 2.317985 0.869422 2.296783 0.917406 2.296783 0.968738 L 2.296783 3.863396 L 1.916259 3.863396 L 1.916259 -1.138091 C 1.916259 -1.239639 1.83145 -1.323331 1.726555 -1.323331 L 1.347147 -1.323331 C 1.242252 -1.323331 1.156328 -1.239639 1.156328 -1.138091 L 1.156328 3.863396 L 0.77692 3.863396 L 0.77692 -1.138091 C 0.77692 -1.239639 0.692111 -1.323331 0.587216 -1.323331 L 0.396396 -1.323331 L 0.396396 -1.693812 Z M 2.468632 -1.693812 " transform="matrix(3.500522,0,0,3.500522,0.885844,8.202663)"/>
<g clip-path="url(#clip1)" clip-rule="nonzero">
<path style=" stroke:none;fill-rule:evenodd;fill:rgb(95.294118%,71.764708%,85.09804%);fill-opacity:1;" d="M 21.726562 14.316406 L 21.726562 16.167969 L 16.167969 16.167969 L 16.167969 18.945312 L 12.464844 15.242188 L 16.109375 11.535156 L 16.167969 14.316406 Z M 21.726562 14.316406 "/>
</g>
<g clip-path="url(#clip2)" clip-rule="nonzero">
<path style="fill:none;stroke-width:0.428508;stroke-linecap:round;stroke-linejoin:round;stroke:rgb(90.196079%,0.784314%,70.588237%);stroke-opacity:1;stroke-miterlimit:4;" d="M 0.396396 3.836732 L 0.396396 4.365671 L 1.984329 4.365671 L 1.984329 5.159079 L 3.042207 4.101201 L 2.001068 3.042207 L 1.984329 3.836732 Z M 0.396396 3.836732 " transform="matrix(-3.500522,0,0,3.500522,23.114156,0.885843)"/>
</g>
<g clip-path="url(#clip3)" clip-rule="nonzero">
<path style=" stroke:none;fill-rule:evenodd;fill:rgb(95.294118%,71.764708%,85.09804%);fill-opacity:1;" d="M 21.726562 16.167969 L 21.726562 14.316406 L 16.167969 14.316406 L 16.167969 11.535156 L 12.464844 15.242188 L 16.109375 18.949219 L 16.167969 16.167969 Z M 21.726562 16.167969 "/>
</g>
<g clip-path="url(#clip4)" clip-rule="nonzero">
<path style="fill:none;stroke-width:0.428508;stroke-linecap:round;stroke-linejoin:round;stroke:rgb(90.196079%,0.784314%,70.588237%);stroke-opacity:1;stroke-miterlimit:4;" d="M 0.396396 3.836413 L 0.396396 4.365352 L 1.984329 4.365352 L 1.984329 5.159876 L 3.042207 4.100882 L 2.001068 3.041888 L 1.984329 3.836413 Z M 0.396396 3.836413 " transform="matrix(-3.500522,0,0,-3.500522,23.114156,29.597414)"/>
</g>
</g>
</svg>
