<?xml version="1.0" encoding="UTF-8"?>
<svg xmlns="http://www.w3.org/2000/svg" xmlns:xlink="http://www.w3.org/1999/xlink" width="24px" height="24px" viewBox="0 0 24 24" version="1.1">
<g id="surface1">
<path style="fill-rule:evenodd;fill:rgb(94.117647%,89.019608%,92.54902%);fill-opacity:1;stroke-width:1;stroke-linecap:round;stroke-linejoin:round;stroke:rgb(90.196079%,0.784314%,70.588237%);stroke-opacity:1;stroke-miterlimit:4;" d="M -7.493573 14.547949 L 1.501218 14.547949 C 2.053302 14.547949 2.501218 14.995866 2.501218 15.547949 L 2.501218 26.514095 C 2.501218 27.066179 2.053302 27.514095 1.501218 27.514095 L -7.493573 27.514095 C -8.045657 27.514095 -8.493573 27.066179 -8.493573 26.514095 L -8.493573 15.547949 C -8.493573 14.995866 -8.045657 14.547949 -7.493573 14.547949 Z M -7.493573 14.547949 " transform="matrix(1.5,0,0,1.5,16.49036,-19.521143)"/>
<path style="fill-rule:nonzero;fill:rgb(61.56863%,22.745098%,60.784316%);fill-opacity:1;stroke-width:0.25;stroke-linecap:butt;stroke-linejoin:miter;stroke:rgb(61.56863%,22.745098%,60.784316%);stroke-opacity:1;stroke-miterlimit:4;" d="M -1.727948 16.641699 C -1.69149 16.24847 -1.412844 15.962012 -1.061282 15.962012 C -0.826907 15.962012 -0.613365 16.087012 -0.493573 16.287533 C -0.373782 16.084408 -0.170657 15.962012 0.0611143 15.962012 C 0.410073 15.962012 0.691323 16.24847 0.727781 16.641699 C 0.730385 16.659929 0.740802 16.751074 0.706948 16.902116 C 0.654864 17.115658 0.537677 17.313574 0.365802 17.46722 L -0.493573 18.243262 L -1.365969 17.46722 C -1.537844 17.313574 -1.657636 17.115658 -1.707115 16.902116 C -1.743573 16.751074 -1.730552 16.659929 -1.727948 16.641699 Z M -1.615969 16.878679 C -1.569094 17.076595 -1.459719 17.256283 -1.303469 17.396908 L -0.493573 18.118262 L 0.300698 17.399512 C 0.459552 17.256283 0.566323 17.076595 0.613198 16.878679 C 0.647052 16.738054 0.634031 16.657324 0.634031 16.657324 L 0.634031 16.652116 C 0.602781 16.308366 0.360593 16.055762 0.0611143 16.055762 C -0.162844 16.055762 -0.358157 16.191179 -0.449302 16.409929 L -0.493573 16.514095 L -0.537844 16.409929 C -0.62899 16.196387 -0.834719 16.055762 -1.061282 16.055762 C -1.363365 16.055762 -1.602948 16.308366 -1.634198 16.657324 C -1.634198 16.657324 -1.649823 16.738054 -1.615969 16.878679 Z M -1.615969 16.878679 " transform="matrix(1.5,0,0,1.5,16.49036,-19.521143)"/>
<path style="fill:none;stroke-width:1;stroke-linecap:round;stroke-linejoin:miter;stroke:rgb(90.196079%,0.784314%,70.588237%);stroke-opacity:1;stroke-miterlimit:4;" d="M -6.498782 19.501074 L 0.824135 19.501074 " transform="matrix(1.5,0,0,1.5,16.49036,-19.521143)"/>
<path style="fill:none;stroke-width:1;stroke-linecap:round;stroke-linejoin:miter;stroke:rgb(90.196079%,0.784314%,70.588237%);stroke-opacity:1;stroke-miterlimit:4;" d="M -6.498782 21.501074 L 0.824135 21.501074 " transform="matrix(1.5,0,0,1.5,16.49036,-19.521143)"/>
<path style="fill:none;stroke-width:1;stroke-linecap:round;stroke-linejoin:miter;stroke:rgb(90.196079%,0.784314%,70.588237%);stroke-opacity:1;stroke-miterlimit:4;" d="M -6.498782 23.501074 L 0.824135 23.501074 " transform="matrix(1.5,0,0,1.5,16.49036,-19.521143)"/>
<path style="fill-rule:evenodd;fill:rgb(94.117647%,89.019608%,92.54902%);fill-opacity:1;stroke-width:1;stroke-linecap:butt;stroke-linejoin:miter;stroke:rgb(94.117647%,89.019608%,92.54902%);stroke-opacity:1;stroke-miterlimit:4;" d="M 7.734771 1.509269 C 7.575917 1.514477 7.417063 1.56656 7.284251 1.662915 L 3.034251 4.77229 C 2.846751 4.91031 2.721751 5.131665 2.721751 5.381665 C 2.721751 5.62906 2.846751 5.853019 3.034251 5.99104 L 7.284251 9.100415 C 7.52123 9.274894 7.823313 9.298331 8.08373 9.183748 C 8.338938 9.071769 8.544667 8.806144 8.544667 8.493644 L 8.544667 2.269685 C 8.544667 2.048331 8.443105 1.845206 8.289459 1.707185 C 8.128001 1.563956 7.92748 1.50406 7.734771 1.509269 Z M 5.838938 4.631665 L 5.838938 6.131665 L 4.812896 5.381665 Z M 5.838938 4.631665 " transform="matrix(1.5,0,0,1.5,-0.348251,0.111097)"/>
<path style=" stroke:none;fill-rule:evenodd;fill:rgb(61.56863%,22.745098%,60.784316%);fill-opacity:1;" d="M 11.253906 2.375 C 11.015625 2.382812 10.777344 2.460938 10.578125 2.605469 L 4.203125 7.269531 C 3.921875 7.476562 3.734375 7.808594 3.734375 8.183594 C 3.734375 8.554688 3.921875 8.890625 4.203125 9.097656 L 10.578125 13.761719 C 10.933594 14.023438 11.386719 14.058594 11.777344 13.886719 C 12.160156 13.71875 12.46875 13.320312 12.46875 12.851562 L 12.46875 3.515625 C 12.46875 3.183594 12.316406 2.878906 12.085938 2.671875 C 11.84375 2.457031 11.542969 2.367188 11.253906 2.375 Z M 8.410156 7.058594 L 8.410156 9.308594 L 6.871094 8.183594 Z M 8.410156 7.058594 "/>
<path style=" stroke:none;fill-rule:evenodd;fill:rgb(95.294118%,71.764708%,85.09804%);fill-opacity:1;" d="M 10.953125 4.257812 L 5.25 8.25 L 10.902344 12.109375 L 10.953125 9.582031 Z M 10.953125 4.257812 "/>
</g>
</svg>
