<?xml version="1.0" encoding="UTF-8"?>
<svg xmlns="http://www.w3.org/2000/svg" xmlns:xlink="http://www.w3.org/1999/xlink" width="24px" height="24px" viewBox="0 0 24 24" version="1.1">
<g id="surface1">
<path style=" stroke:none;fill-rule:nonzero;fill:rgb(33.333334%,34.117648%,32.549021%);fill-opacity:1;" d="M 12 1.5 C 6.199219 1.5 1.5 6.199219 1.5 12 C 1.5 17.800781 6.199219 22.5 12 22.5 C 17.800781 22.5 22.5 17.800781 22.5 12 C 22.5 6.199219 17.800781 1.5 12 1.5 Z M 12 4.5 C 12.410156 4.503906 12.820312 4.539062 13.226562 4.609375 L 11.804688 5.863281 L 12.652344 6.605469 L 12.933594 6.152344 L 13.136719 6.726562 L 13.699219 6.191406 L 13.339844 5.988281 L 14.132812 5.578125 L 13.839844 6.824219 L 13.550781 7.15625 L 12.238281 7.761719 L 11.863281 8.316406 L 10.976562 8.578125 L 10.378906 9.304688 L 11.152344 9.695312 L 11.558594 8.925781 L 12.238281 9.046875 L 12.699219 8.617188 L 13.296875 9.046875 L 13.550781 9.777344 L 13.207031 10.035156 L 14.089844 9.816406 L 13.972656 9.441406 L 14.476562 9.695312 L 13.839844 8.875 L 13.761719 8.363281 L 15.023438 8.414062 L 15.3125 9.992188 L 15.816406 9.992188 L 15.402344 11.019531 C 15.035156 11 14.601562 10.921875 14.105469 10.785156 C 13.261719 10.542969 12.835938 10.421875 12.828125 10.425781 C 12.53125 10.382812 12.242188 10.339844 11.945312 10.289062 C 11.601562 10.234375 11.320312 10.128906 11.09375 9.972656 C 10.148438 10.375 9.421875 10.652344 8.910156 10.800781 L 8.605469 12.367188 L 9.0625 13.441406 L 10.8125 13.859375 L 11.601562 14.996094 C 11.949219 16.335938 12.167969 17.664062 12.246094 18.984375 L 12.921875 19.433594 C 12.617188 19.476562 12.308594 19.496094 12 19.5 C 7.859375 19.5 4.5 16.140625 4.5 12 C 4.5 7.859375 7.859375 4.5 12 4.5 Z M 9.707031 5.238281 L 9.496094 5.972656 L 10.050781 5.886719 L 10.378906 5.628906 L 10.261719 5.238281 Z M 11.492188 6.007812 L 11.339844 6.402344 L 11.613281 6.90625 L 11.863281 6.992188 L 11.480469 7.46875 L 11.90625 7.507812 L 12.355469 7.035156 Z M 10.976562 6.6875 L 10.765625 7.035156 L 10.898438 7.414062 L 11.1875 7.078125 Z M 12.449219 9.652344 L 12.828125 10.074219 L 12.871094 9.652344 Z M 15.664062 11.328125 L 16.402344 13.019531 L 17.691406 12.546875 L 17.191406 11.5625 C 18.039062 11.476562 18.480469 11.429688 18.519531 11.429688 C 18.523438 11.429688 19.238281 11.507812 19.484375 11.535156 C 19.496094 11.6875 19.5 11.84375 19.5 12 C 19.496094 15.574219 16.972656 18.648438 13.46875 19.347656 L 14.464844 18.472656 C 14.714844 17.523438 14.835938 16.480469 14.828125 15.320312 C 15.257812 14.78125 15.6875 14.25 16.121094 13.730469 C 16.082031 13.003906 15.851562 12.25 15.4375 11.472656 Z M 15.664062 11.328125 "/>
</g>
</svg>
