<?xml version="1.0" encoding="UTF-8"?>
<svg xmlns="http://www.w3.org/2000/svg" xmlns:xlink="http://www.w3.org/1999/xlink" width="24px" height="24px" viewBox="0 0 24 24" version="1.1">
<g id="surface1">
<path style="fill-rule:nonzero;fill:rgb(95.294118%,71.764708%,85.09804%);fill-opacity:1;stroke-width:1;stroke-linecap:butt;stroke-linejoin:miter;stroke:rgb(90.196079%,0.784314%,70.588237%);stroke-opacity:1;stroke-miterlimit:4;" d="M 13.609375 1.520833 L 2.390625 1.520833 C 1.903646 1.520833 1.513021 1.914062 1.513021 2.403646 L 1.513021 13.596354 C 1.513021 14.085938 1.903646 14.479167 2.390625 14.479167 L 13.609375 14.479167 C 14.096354 14.479167 14.486979 14.085938 14.486979 13.596354 L 14.486979 2.403646 C 14.486979 1.914062 14.096354 1.520833 13.609375 1.520833 Z M 13.609375 1.520833 " transform="matrix(1.5,0,0,1.5,0,0)"/>
<path style="fill:none;stroke-width:1;stroke-linecap:round;stroke-linejoin:miter;stroke:rgb(61.56863%,22.745098%,60.784316%);stroke-opacity:1;stroke-miterlimit:4;" d="M 14.25 3.75 L 5.25 12.25 " transform="matrix(1.5,0,0,1.5,-2.625,0)"/>
<path style="fill:none;stroke-width:1;stroke-linecap:round;stroke-linejoin:miter;stroke:rgb(61.56863%,22.745098%,60.784316%);stroke-opacity:1;stroke-miterlimit:4;" d="M 5.25 3.75 L 14.25 12.25 " transform="matrix(1.5,0,0,1.5,-2.625,0)"/>
</g>
</svg>
