<?xml version="1.0" encoding="UTF-8"?>
<svg xmlns="http://www.w3.org/2000/svg" xmlns:xlink="http://www.w3.org/1999/xlink" width="24px" height="24px" viewBox="0 0 24 24" version="1.1">
<defs>
<linearGradient id="linear0" gradientUnits="userSpaceOnUse" x1="64" y1="100" x2="64" y2="28" gradientTransform="matrix(0.142857,0,0,0.125,-20.810118,-8.081458)">
<stop offset="0" style="stop-color:rgb(78.431374%,78.431374%,78.431374%);stop-opacity:1;"/>
<stop offset="1" style="stop-color:rgb(89.411765%,89.411765%,89.411765%);stop-opacity:1;"/>
</linearGradient>
</defs>
<g id="surface1">
<path style="fill:none;stroke-width:2;stroke-linecap:round;stroke-linejoin:round;stroke:rgb(94.117647%,89.019608%,92.54902%);stroke-opacity:1;stroke-miterlimit:4;" d="M 7.00003 6.50003 L 2.00003 2.00003 " transform="matrix(1.5,0,0,1.5,0.757768,0.757768)"/>
<path style="fill:none;stroke-width:2;stroke-linecap:round;stroke-linejoin:round;stroke:rgb(94.117647%,89.019608%,92.54902%);stroke-opacity:1;stroke-miterlimit:4;" d="M 5.00003 1.50003 L 1.50003 1.50003 L 1.50003 5.00003 " transform="matrix(1.5,0,0,1.5,0.757768,0.757768)"/>
<path style="fill:none;stroke-width:1;stroke-linecap:round;stroke-linejoin:round;stroke:rgb(61.56863%,22.745098%,60.784316%);stroke-opacity:1;stroke-miterlimit:4;" d="M 7.00003 6.50003 L 2.00003 2.00003 " transform="matrix(1.5,0,0,1.5,0.757768,0.757768)"/>
<path style="fill:none;stroke-width:1;stroke-linecap:round;stroke-linejoin:round;stroke:rgb(61.56863%,22.745098%,60.784316%);stroke-opacity:1;stroke-miterlimit:4;" d="M 5.00003 1.50003 L 1.50003 1.50003 L 1.50003 5.00003 " transform="matrix(1.5,0,0,1.5,0.757768,0.757768)"/>
<path style="fill:none;stroke-width:1;stroke-linecap:round;stroke-linejoin:round;stroke:url(#linear0);stroke-miterlimit:4;" d="M -11.333963 -5.39765 C -10.293559 -5.395809 -9.450187 -4.128909 -9.450187 -2.567382 L -9.452028 3.0729 C -9.452028 4.634427 -10.293558 5.899485 -11.333963 5.901327 C -12.372526 5.901327 -13.215898 4.634427 -13.215898 3.0729 L -13.215898 -2.569223 C -13.215898 -4.13075 -12.374368 -5.395809 -11.333963 -5.39765 Z M -11.333963 -5.39765 " transform="matrix(-1.06066,-1.06066,-1.06066,1.06066,-0.0864003,-0.288598)"/>
<path style="fill-rule:nonzero;fill:rgb(94.117647%,89.019608%,92.54902%);fill-opacity:1;stroke-width:1.5;stroke-linecap:round;stroke-linejoin:round;stroke:rgb(90.196079%,0.784314%,70.588237%);stroke-opacity:1;stroke-miterlimit:4;" d="M -11.448132 -5.39765 L -11.217954 -5.395809 C -10.241999 -5.395809 -9.450187 -4.128909 -9.450187 -2.567382 L -9.452028 3.0729 C -9.452028 4.634427 -10.241998 5.899485 -11.219795 5.901327 L -11.448131 5.901327 C -12.424086 5.901327 -13.215898 4.634427 -13.215898 3.0729 L -13.215898 -2.569223 C -13.215898 -4.13075 -12.425928 -5.395809 -11.448132 -5.39765 Z M -11.448132 -5.39765 " transform="matrix(-1.06066,-1.06066,-1.06066,1.06066,-0.0864003,-0.288598)"/>
<path style="fill-rule:nonzero;fill:rgb(95.294118%,71.764708%,85.09804%);fill-opacity:1;stroke-width:18.025743;stroke-linecap:round;stroke-linejoin:round;stroke:rgb(61.56863%,22.745098%,60.784316%);stroke-opacity:1;stroke-miterlimit:4;" d="M 65.634874 -15.547351 L 66.36512 -15.547351 C 67.261332 -15.547351 68.008176 -14.800508 68.008176 -13.904296 L 67.991581 30.358616 C 68.008178 31.271425 67.277931 32.001672 66.348526 32.001672 L 65.651472 32.001672 C 64.722067 32.001672 63.991821 31.271425 64.008417 30.358616 L 63.991819 -13.904296 C 63.991818 -14.800508 64.738662 -15.547351 65.634874 -15.547351 Z M 65.634874 -15.547351 " transform="matrix(-0.117683,-0.117683,-0.117683,0.117683,26.828035,12.706097)"/>
<path style=" stroke:none;fill-rule:nonzero;fill:rgb(95.294118%,71.764708%,85.09804%);fill-opacity:1;" d="M 21.285156 2.917969 L 21.082031 2.714844 C 20.875 2.511719 20.472656 2.585938 20.179688 2.878906 L 15.535156 7.523438 C 15.242188 7.816406 15.171875 8.21875 15.375 8.421875 L 15.578125 8.625 C 15.78125 8.828125 16.183594 8.757812 16.476562 8.464844 L 21.121094 3.820312 C 21.414062 3.527344 21.488281 3.125 21.285156 2.917969 Z M 21.285156 2.917969 "/>
<path style="fill-rule:nonzero;fill:rgb(95.294118%,71.764708%,85.09804%);fill-opacity:1;stroke-width:18.025743;stroke-linecap:round;stroke-linejoin:round;stroke:rgb(61.56863%,22.745098%,60.784316%);stroke-opacity:1;stroke-miterlimit:4;" d="M 65.634872 -15.547345 L 66.365119 -15.547345 C 67.261331 -15.547345 68.008174 -14.800502 68.008174 -13.90429 L 67.991579 30.358623 C 68.008176 31.271431 67.277929 32.001678 66.348524 32.001678 L 65.651471 32.001678 C 64.722066 32.001678 63.991819 31.271431 64.008415 30.358623 L 63.991817 -13.90429 C 63.991817 -14.800502 64.73866 -15.547345 65.634872 -15.547345 Z M 65.634872 -15.547345 " transform="matrix(0.117683,0.117683,0.117683,-0.117683,-2.828036,11.293904)"/>
<path style=" stroke:none;fill-rule:nonzero;fill:rgb(95.294118%,71.764708%,85.09804%);fill-opacity:1;" d="M 2.714844 21.082031 L 2.917969 21.285156 C 3.125 21.488281 3.527344 21.414062 3.820312 21.121094 L 8.464844 16.476562 C 8.757812 16.183594 8.828125 15.78125 8.625 15.578125 L 8.421875 15.375 C 8.21875 15.171875 7.816406 15.242188 7.523438 15.535156 L 2.878906 20.179688 C 2.585938 20.472656 2.511719 20.875 2.714844 21.082031 Z M 2.714844 21.082031 "/>
<path style="fill-rule:nonzero;fill:rgb(94.117647%,89.019608%,92.54902%);fill-opacity:1;stroke-width:1.342052;stroke-linecap:round;stroke-linejoin:miter;stroke:rgb(94.117647%,89.019608%,92.54902%);stroke-opacity:1;stroke-miterlimit:4;" d="M -1.000874 1.000928 L -4.999071 4.999125 " transform="matrix(1.676537,0,0,1.676537,23.037377,12.978158)"/>
<path style="fill:none;stroke-width:1.342052;stroke-linecap:round;stroke-linejoin:miter;stroke:rgb(94.117647%,89.019608%,92.54902%);stroke-opacity:1;stroke-miterlimit:4;" d="M -4.999071 1.000928 L -1.000874 4.999125 " transform="matrix(1.676537,0,0,1.676537,23.037377,12.978158)"/>
<path style="fill-rule:nonzero;fill:rgb(61.56863%,22.745098%,60.784316%);fill-opacity:1;stroke-width:0.894701;stroke-linecap:round;stroke-linejoin:miter;stroke:rgb(61.56863%,22.745098%,60.784316%);stroke-opacity:1;stroke-miterlimit:4;" d="M -4.999071 1.000928 L -1.000874 4.999125 " transform="matrix(1.676537,0,0,1.676537,23.037377,12.978158)"/>
<path style="fill:none;stroke-width:0.894701;stroke-linecap:round;stroke-linejoin:miter;stroke:rgb(61.56863%,22.745098%,60.784316%);stroke-opacity:1;stroke-miterlimit:4;" d="M -1.000874 1.000928 L -4.999071 4.999125 " transform="matrix(1.676537,0,0,1.676537,23.037377,12.978158)"/>
</g>
</svg>
