<?xml version="1.0" encoding="UTF-8"?>
<svg xmlns="http://www.w3.org/2000/svg" xmlns:xlink="http://www.w3.org/1999/xlink" width="24px" height="24px" viewBox="0 0 24 24" version="1.1">
<g id="surface1">
<path style="fill-rule:evenodd;fill:rgb(90.196079%,0.784314%,70.588237%);fill-opacity:0.950495;stroke-width:1;stroke-linecap:round;stroke-linejoin:round;stroke:rgb(61.56863%,22.745098%,60.784316%);stroke-opacity:1;stroke-miterlimit:4;" d="M 7.434896 4.882812 C 7.434896 5.411458 7.007812 5.838542 6.481771 5.838542 C 5.953125 5.838542 5.526042 5.411458 5.526042 4.882812 C 5.526042 4.356771 5.953125 3.927083 6.481771 3.927083 C 7.007812 3.927083 7.434896 4.356771 7.434896 4.882812 Z M 7.434896 4.882812 " transform="matrix(1.5,0,0,1.5,0,0)"/>
<path style="fill-rule:evenodd;fill:rgb(90.196079%,0.784314%,70.588237%);fill-opacity:0.950495;stroke-width:1;stroke-linecap:round;stroke-linejoin:round;stroke:rgb(61.56863%,22.745098%,60.784316%);stroke-opacity:1;stroke-miterlimit:4;" d="M 11.476562 4.882812 C 11.476562 5.411458 11.049479 5.838542 10.523438 5.838542 C 9.994792 5.838542 9.567708 5.411458 9.567708 4.882812 C 9.567708 4.356771 9.994792 3.927083 10.523438 3.927083 C 11.049479 3.927083 11.476562 4.356771 11.476562 4.882812 Z M 11.476562 4.882812 " transform="matrix(1.5,0,0,1.5,0,0)"/>
<path style="fill-rule:evenodd;fill:rgb(95.294118%,71.764708%,85.09804%);fill-opacity:0.950495;stroke-width:1;stroke-linecap:round;stroke-linejoin:round;stroke:rgb(61.56863%,22.745098%,60.784316%);stroke-opacity:1;stroke-miterlimit:4;" d="M 5.734375 5.127604 L 11.104167 5.127604 C 11.934896 5.127604 12.604167 5.799479 12.604167 6.627604 L 12.604167 6.994792 C 12.604167 7.822917 11.934896 8.494792 11.104167 8.494792 L 5.734375 8.494792 C 4.90625 8.494792 4.234375 7.822917 4.234375 6.994792 L 4.234375 6.627604 C 4.234375 5.799479 4.90625 5.127604 5.734375 5.127604 Z M 5.734375 5.127604 " transform="matrix(1.5,0,0,1.5,0,0)"/>
<path style="fill-rule:evenodd;fill:rgb(90.196079%,0.784314%,70.588237%);fill-opacity:0.950495;stroke-width:1;stroke-linecap:round;stroke-linejoin:round;stroke:rgb(61.56863%,22.745098%,60.784316%);stroke-opacity:1;stroke-miterlimit:4;" d="M 9.3125 7.841146 C 9.3125 8.302083 8.940104 8.677083 8.476562 8.677083 C 8.015625 8.677083 7.643229 8.302083 7.643229 7.841146 C 7.643229 7.380208 8.015625 7.007812 8.476562 7.007812 C 8.940104 7.007812 9.3125 7.380208 9.3125 7.841146 Z M 9.3125 7.841146 " transform="matrix(1.5,0,0,1.5,0,0)"/>
<path style="fill-rule:evenodd;fill:rgb(94.117647%,89.019608%,92.54902%);fill-opacity:0.950495;stroke-width:1;stroke-linecap:round;stroke-linejoin:round;stroke:rgb(90.196079%,0.784314%,70.588237%);stroke-opacity:1;stroke-miterlimit:4;" d="M 7.291667 9.669271 C 7.291667 11.140625 6.098958 12.333333 4.627604 12.333333 C 3.158854 12.333333 1.966146 11.140625 1.966146 9.669271 C 1.966146 8.200521 3.158854 7.007812 4.627604 7.007812 C 6.098958 7.007812 7.291667 8.200521 7.291667 9.669271 Z M 7.291667 9.669271 " transform="matrix(1.5,0,0,1.5,0,0)"/>
<path style="fill-rule:evenodd;fill:rgb(94.117647%,89.019608%,92.54902%);fill-opacity:0.950495;stroke-width:0.5;stroke-linecap:round;stroke-linejoin:round;stroke:rgb(90.196079%,0.784314%,70.588237%);stroke-opacity:1;stroke-miterlimit:4;" d="M -6.42478 -8.316557 C -6.113844 -8.003199 -5.994556 -7.559378 -6.107904 -7.141803 C -6.219653 -6.727546 -6.549148 -6.391638 -6.979589 -6.257682 " transform="matrix(-1.415932,-0.495112,0.494987,-1.415976,0,0)"/>
<path style="fill-rule:evenodd;fill:rgb(94.117647%,89.019608%,92.54902%);fill-opacity:0.950495;stroke-width:1;stroke-linecap:round;stroke-linejoin:round;stroke:rgb(90.196079%,0.784314%,70.588237%);stroke-opacity:1;stroke-miterlimit:4;" d="M 14.796875 9.572917 C 14.796875 11.044271 13.604167 12.236979 12.135417 12.236979 C 10.664062 12.236979 9.471354 11.044271 9.471354 9.572917 C 9.471354 8.104167 10.664062 6.911458 12.135417 6.911458 C 13.604167 6.911458 14.796875 8.104167 14.796875 9.572917 Z M 14.796875 9.572917 " transform="matrix(1.5,0,0,1.5,0,0)"/>
<path style="fill-rule:evenodd;fill:rgb(94.117647%,89.019608%,92.54902%);fill-opacity:0.950495;stroke-width:0.5;stroke-linecap:round;stroke-linejoin:round;stroke:rgb(90.196079%,0.784314%,70.588237%);stroke-opacity:1;stroke-miterlimit:4;" d="M -13.477781 -5.748324 C -13.166845 -5.434965 -13.047557 -4.991145 -13.160905 -4.57357 C -13.272654 -4.159313 -13.602149 -3.823405 -14.03259 -3.689449 " transform="matrix(-1.415932,-0.495112,0.494987,-1.415976,0,0)"/>
</g>
</svg>
