<?xml version="1.0" encoding="UTF-8"?>
<svg xmlns="http://www.w3.org/2000/svg" xmlns:xlink="http://www.w3.org/1999/xlink" width="24px" height="24px" viewBox="0 0 24 24" version="1.1">
<g id="surface1">
<path style="fill-rule:evenodd;fill:rgb(94.117647%,89.019608%,92.54902%);fill-opacity:0.950495;stroke-width:1;stroke-linecap:round;stroke-linejoin:round;stroke:rgb(90.196079%,0.784314%,70.588237%);stroke-opacity:1;stroke-miterlimit:4;" d="M 4 1.5 L 12 1.5 C 12.828125 1.5 13.5 2.171875 13.5 3 L 13.5 13 C 13.5 13.828125 12.828125 14.5 12 14.5 L 4 14.5 C 3.171875 14.5 2.5 13.828125 2.5 13 L 2.5 3 C 2.5 2.171875 3.171875 1.5 4 1.5 Z M 4 1.5 " transform="matrix(1.5,0,0,1.5,0,0)"/>
<path style=" stroke:none;fill-rule:nonzero;fill:rgb(90.196079%,0.784314%,70.588237%);fill-opacity:1;" d="M 4.5 3 L 6 3 L 6 4.5 L 4.5 4.5 Z M 4.5 3 "/>
<path style=" stroke:none;fill-rule:nonzero;fill:rgb(90.196079%,0.784314%,70.588237%);fill-opacity:1;" d="M 4.5 6 L 6 6 L 6 7.5 L 4.5 7.5 Z M 4.5 6 "/>
<path style=" stroke:none;fill-rule:nonzero;fill:rgb(90.196079%,0.784314%,70.588237%);fill-opacity:1;" d="M 4.5 9 L 6 9 L 6 10.5 L 4.5 10.5 Z M 4.5 9 "/>
<path style=" stroke:none;fill-rule:nonzero;fill:rgb(90.196079%,0.784314%,70.588237%);fill-opacity:1;" d="M 4.5 12 L 6 12 L 6 13.5 L 4.5 13.5 Z M 4.5 12 "/>
<path style=" stroke:none;fill-rule:nonzero;fill:rgb(90.196079%,0.784314%,70.588237%);fill-opacity:1;" d="M 4.5 15 L 6 15 L 6 16.5 L 4.5 16.5 Z M 4.5 15 "/>
<path style=" stroke:none;fill-rule:nonzero;fill:rgb(90.196079%,0.784314%,70.588237%);fill-opacity:1;" d="M 4.5 18 L 6 18 L 6 19.5 L 4.5 19.5 Z M 4.5 18 "/>
<path style=" stroke:none;fill-rule:nonzero;fill:rgb(90.196079%,0.784314%,70.588237%);fill-opacity:0.331551;" d="M 4.5 21 L 6 21 L 6 22.5 L 4.5 22.5 Z M 4.5 21 "/>
<path style=" stroke:none;fill-rule:nonzero;fill:rgb(90.196079%,0.784314%,70.588237%);fill-opacity:1;" d="M 18 3 L 19.5 3 L 19.5 4.5 L 18 4.5 Z M 18 3 "/>
<path style=" stroke:none;fill-rule:nonzero;fill:rgb(90.196079%,0.784314%,70.588237%);fill-opacity:1;" d="M 18 6 L 19.5 6 L 19.5 7.5 L 18 7.5 Z M 18 6 "/>
<path style=" stroke:none;fill-rule:nonzero;fill:rgb(90.196079%,0.784314%,70.588237%);fill-opacity:1;" d="M 18 9 L 19.5 9 L 19.5 10.5 L 18 10.5 Z M 18 9 "/>
<path style=" stroke:none;fill-rule:nonzero;fill:rgb(90.196079%,0.784314%,70.588237%);fill-opacity:1;" d="M 18 12 L 19.5 12 L 19.5 13.5 L 18 13.5 Z M 18 12 "/>
<path style=" stroke:none;fill-rule:nonzero;fill:rgb(90.196079%,0.784314%,70.588237%);fill-opacity:1;" d="M 18 15 L 19.5 15 L 19.5 16.5 L 18 16.5 Z M 18 15 "/>
<path style=" stroke:none;fill-rule:nonzero;fill:rgb(90.196079%,0.784314%,70.588237%);fill-opacity:1;" d="M 18 18 L 19.5 18 L 19.5 19.5 L 18 19.5 Z M 18 18 "/>
<path style="fill-rule:nonzero;fill:rgb(94.117647%,89.019608%,92.54902%);fill-opacity:1;stroke-width:2;stroke-linecap:butt;stroke-linejoin:miter;stroke:rgb(94.117647%,89.019608%,92.54902%);stroke-opacity:1;stroke-miterlimit:4;" d="M 15.409677 11.660296 C 15.409677 13.730608 13.729989 15.410296 11.659677 15.410296 C 9.589364 15.410296 7.909677 13.730608 7.909677 11.660296 C 7.909677 9.587379 9.589364 7.910296 11.659677 7.910296 C 13.729989 7.910296 15.409677 9.587379 15.409677 11.660296 Z M 15.409677 11.660296 " transform="matrix(1.5,0,0,1.5,-2.055922,-2.092006)"/>
<path style="fill-rule:nonzero;fill:rgb(61.56863%,22.745098%,60.784316%);fill-opacity:1;stroke-width:1.282111;stroke-linecap:butt;stroke-linejoin:round;stroke:rgb(94.117647%,89.019608%,92.54902%);stroke-opacity:1;stroke-miterlimit:4;" d="M 1.811615 4.365363 L 2.738141 3.00312 L 3.175527 3.438838 Z M 1.811615 4.365363 " transform="matrix(2.339891,0,0,2.339891,8.514924,7.859744)"/>
<path style="fill-rule:nonzero;fill:rgb(61.56863%,22.745098%,60.784316%);fill-opacity:1;stroke-width:1.282111;stroke-linecap:butt;stroke-linejoin:round;stroke:rgb(94.117647%,89.019608%,92.54902%);stroke-opacity:1;stroke-miterlimit:4;" d="M 4.102053 2.076595 L 2.738141 3.00312 L 3.175527 3.438838 Z M 4.102053 2.076595 " transform="matrix(2.339891,0,0,2.339891,8.514924,7.859744)"/>
<path style="fill-rule:nonzero;fill:rgb(94.117647%,89.019608%,92.54902%);fill-opacity:1;stroke-width:1.282111;stroke-linecap:butt;stroke-linejoin:miter;stroke:rgb(94.117647%,89.019608%,92.54902%);stroke-opacity:1;stroke-miterlimit:4;" d="M 3.529768 3.113265 C 3.529768 3.375363 3.317753 3.587379 3.055655 3.587379 C 2.793556 3.587379 2.579871 3.375363 2.579871 3.113265 C 2.579871 2.849497 2.793556 2.637481 3.055655 2.637481 C 3.317753 2.637481 3.529768 2.849497 3.529768 3.113265 Z M 3.529768 3.113265 " transform="matrix(2.339891,0,0,2.339891,8.283695,8.113738)"/>
<path style="fill-rule:nonzero;fill:rgb(95.294118%,71.764708%,85.09804%);fill-opacity:1;stroke-width:1.282111;stroke-linecap:butt;stroke-linejoin:miter;stroke:rgb(94.117647%,89.019608%,92.54902%);stroke-opacity:1;stroke-miterlimit:4;" d="M 3.309406 3.113265 C 3.309406 3.253495 3.195885 3.367016 3.055655 3.367016 C 2.915424 3.367016 2.800234 3.253495 2.800234 3.113265 C 2.800234 2.971364 2.915424 2.857844 3.055655 2.857844 C 3.195885 2.857844 3.309406 2.971364 3.309406 3.113265 Z M 3.309406 3.113265 " transform="matrix(2.339891,0,0,2.339891,8.283695,8.113738)"/>
<path style="fill:none;stroke-width:2;stroke-linecap:round;stroke-linejoin:round;stroke:rgb(94.117647%,89.019608%,92.54902%);stroke-opacity:1;stroke-miterlimit:4;" d="M 11.659677 9.160296 L 11.659677 9.873837 " transform="matrix(1.5,0,0,1.5,-2.055922,-2.092006)"/>
<path style="fill:none;stroke-width:2;stroke-linecap:round;stroke-linejoin:round;stroke:rgb(94.117647%,89.019608%,92.54902%);stroke-opacity:1;stroke-miterlimit:4;" d="M 11.659677 13.44415 L 11.659677 14.160296 " transform="matrix(1.5,0,0,1.5,-2.055922,-2.092006)"/>
<path style="fill:none;stroke-width:2;stroke-linecap:round;stroke-linejoin:round;stroke:rgb(94.117647%,89.019608%,92.54902%);stroke-opacity:1;stroke-miterlimit:4;" d="M 9.873219 11.660296 L 9.159677 11.660296 " transform="matrix(1.5,0,0,1.5,-2.055922,-2.092006)"/>
<path style="fill:none;stroke-width:2;stroke-linecap:round;stroke-linejoin:round;stroke:rgb(94.117647%,89.019608%,92.54902%);stroke-opacity:1;stroke-miterlimit:4;" d="M 14.159677 11.660296 L 13.446135 11.660296 " transform="matrix(1.5,0,0,1.5,-2.055922,-2.092006)"/>
<path style="fill-rule:nonzero;fill:rgb(94.117647%,89.019608%,92.54902%);fill-opacity:1;stroke-width:1;stroke-linecap:butt;stroke-linejoin:miter;stroke:rgb(90.196079%,0.784314%,70.588237%);stroke-opacity:1;stroke-miterlimit:4;" d="M 15.409677 11.660296 C 15.409677 13.730608 13.729989 15.410296 11.659677 15.410296 C 9.589364 15.410296 7.909677 13.730608 7.909677 11.660296 C 7.909677 9.587379 9.589364 7.910296 11.659677 7.910296 C 13.729989 7.910296 15.409677 9.587379 15.409677 11.660296 Z M 15.409677 11.660296 " transform="matrix(1.5,0,0,1.5,-2.055922,-2.092006)"/>
<path style="fill-rule:nonzero;fill:rgb(61.56863%,22.745098%,60.784316%);fill-opacity:1;stroke-width:0.320528;stroke-linecap:butt;stroke-linejoin:round;stroke:rgb(90.196079%,0.784314%,70.588237%);stroke-opacity:1;stroke-miterlimit:4;" d="M 1.811615 4.365363 L 2.738141 3.00312 L 3.175527 3.438838 Z M 1.811615 4.365363 " transform="matrix(2.339891,0,0,2.339891,8.514924,7.859744)"/>
<path style="fill-rule:nonzero;fill:rgb(61.56863%,22.745098%,60.784316%);fill-opacity:1;stroke-width:0.320528;stroke-linecap:butt;stroke-linejoin:round;stroke:rgb(90.196079%,0.784314%,70.588237%);stroke-opacity:1;stroke-miterlimit:4;" d="M 4.102053 2.076595 L 2.738141 3.00312 L 3.175527 3.438838 Z M 4.102053 2.076595 " transform="matrix(2.339891,0,0,2.339891,8.514924,7.859744)"/>
<path style="fill-rule:nonzero;fill:rgb(94.117647%,89.019608%,92.54902%);fill-opacity:1;stroke-width:0.320528;stroke-linecap:butt;stroke-linejoin:miter;stroke:rgb(90.196079%,0.784314%,70.588237%);stroke-opacity:1;stroke-miterlimit:4;" d="M 3.529768 3.113265 C 3.529768 3.375363 3.317753 3.587379 3.055655 3.587379 C 2.793556 3.587379 2.579871 3.375363 2.579871 3.113265 C 2.579871 2.849497 2.793556 2.637481 3.055655 2.637481 C 3.317753 2.637481 3.529768 2.849497 3.529768 3.113265 Z M 3.529768 3.113265 " transform="matrix(2.339891,0,0,2.339891,8.283695,8.113738)"/>
<path style="fill-rule:nonzero;fill:rgb(95.294118%,71.764708%,85.09804%);fill-opacity:1;stroke-width:0.320528;stroke-linecap:butt;stroke-linejoin:miter;stroke:rgb(90.196079%,0.784314%,70.588237%);stroke-opacity:1;stroke-miterlimit:4;" d="M 3.309406 3.113265 C 3.309406 3.253495 3.195885 3.367016 3.055655 3.367016 C 2.915424 3.367016 2.800234 3.253495 2.800234 3.113265 C 2.800234 2.971364 2.915424 2.857844 3.055655 2.857844 C 3.195885 2.857844 3.309406 2.971364 3.309406 3.113265 Z M 3.309406 3.113265 " transform="matrix(2.339891,0,0,2.339891,8.283695,8.113738)"/>
<path style="fill:none;stroke-width:1;stroke-linecap:round;stroke-linejoin:round;stroke:rgb(61.56863%,22.745098%,60.784316%);stroke-opacity:1;stroke-miterlimit:4;" d="M 11.659677 9.160296 L 11.659677 9.873837 " transform="matrix(1.5,0,0,1.5,-2.055922,-2.092006)"/>
<path style="fill:none;stroke-width:1;stroke-linecap:round;stroke-linejoin:round;stroke:rgb(61.56863%,22.745098%,60.784316%);stroke-opacity:1;stroke-miterlimit:4;" d="M 11.659677 13.44415 L 11.659677 14.160296 " transform="matrix(1.5,0,0,1.5,-2.055922,-2.092006)"/>
<path style="fill:none;stroke-width:1;stroke-linecap:round;stroke-linejoin:round;stroke:rgb(61.56863%,22.745098%,60.784316%);stroke-opacity:1;stroke-miterlimit:4;" d="M 9.873219 11.660296 L 9.159677 11.660296 " transform="matrix(1.5,0,0,1.5,-2.055922,-2.092006)"/>
<path style="fill:none;stroke-width:1;stroke-linecap:round;stroke-linejoin:round;stroke:rgb(61.56863%,22.745098%,60.784316%);stroke-opacity:1;stroke-miterlimit:4;" d="M 14.159677 11.660296 L 13.446135 11.660296 " transform="matrix(1.5,0,0,1.5,-2.055922,-2.092006)"/>
</g>
</svg>
