<?xml version="1.0" encoding="UTF-8"?>
<svg xmlns="http://www.w3.org/2000/svg" xmlns:xlink="http://www.w3.org/1999/xlink" width="24px" height="24px" viewBox="0 0 24 24" version="1.1">
<g id="surface1">
<path style=" stroke:none;fill-rule:nonzero;fill:rgb(61.56863%,22.745098%,60.784316%);fill-opacity:1;" d="M 7.457031 0 C 7.175781 0.0078125 6.917969 0.117188 6.683594 0.269531 C 6.601562 0.304688 6.523438 0.355469 6.457031 0.417969 L 0.96875 5.683594 C 0.875 5.773438 0.800781 5.875 0.75 5.988281 L 0.894531 5.78125 C 0.5 6.175781 0.136719 6.746094 0.136719 7.457031 C 0.136719 8.191406 0.484375 8.785156 0.859375 9.230469 C 0.871094 9.246094 0.886719 9.261719 0.902344 9.277344 L 0.859375 9.230469 C 0.890625 9.269531 0.925781 9.308594 0.964844 9.34375 L 0.972656 9.351562 L 6.445312 14.570312 C 6.445312 14.570312 6.449219 14.570312 6.449219 14.570312 C 6.460938 14.582031 6.464844 14.582031 6.46875 14.585938 C 6.492188 14.601562 6.53125 14.628906 6.585938 14.664062 C 6.539062 14.632812 6.515625 14.613281 6.484375 14.59375 C 6.9375 15.015625 7.566406 15.101562 8.085938 14.882812 C 8.613281 14.660156 9 14.136719 9 13.5 L 9 10.5 L 17.925781 10.5 C 17.945312 10.511719 17.96875 10.527344 17.96875 10.53125 C 17.972656 10.53125 17.988281 10.554688 18 10.574219 L 18 18 C 18 18.824219 18.675781 19.5 19.5 19.5 L 22.5 19.5 C 23.324219 19.5 24 18.824219 24 18 L 24 12 C 24 11.863281 23.984375 11.855469 23.96875 11.800781 C 23.984375 11.632812 24 11.453125 24 11.234375 L 24 10.5 C 24 8.523438 23.601562 6.976562 22.5625 5.9375 C 21.519531 4.898438 19.976562 4.5 18 4.5 L 9 4.5 L 9 1.5 C 9 0.660156 8.296875 -0.0234375 7.457031 0 Z M 7.457031 0 "/>
<path style="fill-rule:nonzero;fill:rgb(94.117647%,89.019608%,92.54902%);fill-opacity:0.913725;stroke-width:0.0496094;stroke-linecap:butt;stroke-linejoin:miter;stroke:rgb(94.117647%,89.019608%,92.54902%);stroke-opacity:1;stroke-miterlimit:4;" d="M 1.318782 0.126091 C 1.284331 0.12678 1.251259 0.141249 1.226454 0.165365 L 0.257693 1.094162 L 0.262516 1.089339 C 0.199815 1.144461 0.150206 1.225765 0.150206 1.315338 C 0.150206 1.40491 0.192236 1.481391 0.248047 1.546848 C 0.250803 1.550982 0.254248 1.554427 0.257693 1.557183 L 1.226454 2.480469 C 1.314648 2.565907 1.461409 2.503896 1.461409 2.38125 L 1.461409 1.725993 L 3.175 1.725993 C 3.194982 1.725993 3.230811 1.740462 3.25906 1.768023 C 3.286621 1.796273 3.30109 1.832102 3.30109 1.852083 L 3.30109 3.175 C 3.30109 3.251481 3.363102 3.313493 3.439583 3.313493 L 3.96875 3.313493 C 4.045231 3.313493 4.107243 3.251481 4.107243 3.175 L 4.107243 2.116667 C 4.107243 2.103575 4.105176 2.090484 4.101731 2.077393 C 4.103798 2.045698 4.107243 2.014692 4.107243 1.981619 C 4.107243 1.25057 3.96875 0.926042 2.645833 0.919841 C 2.61276 0.919841 2.581754 0.923286 2.549371 0.925353 C 2.536968 0.921908 2.523877 0.919841 2.510786 0.919841 L 1.461409 0.919841 L 1.461409 0.264583 C 1.461409 0.186724 1.396642 0.124023 1.318782 0.126091 Z M 1.318782 0.126091 " transform="matrix(5.669291,0,0,5.669291,0.00000135166,0)"/>
<path style=" stroke:none;fill-rule:nonzero;fill:rgb(90.196079%,0.784314%,70.588237%);fill-opacity:1;" d="M 16.542969 24 C 16.824219 23.992188 17.082031 23.882812 17.316406 23.730469 C 17.398438 23.695312 17.476562 23.644531 17.542969 23.582031 L 23.03125 18.316406 C 23.125 18.226562 23.199219 18.125 23.25 18.011719 L 23.105469 18.21875 C 23.5 17.824219 23.863281 17.253906 23.863281 16.542969 C 23.863281 15.808594 23.515625 15.214844 23.140625 14.769531 C 23.128906 14.753906 23.113281 14.738281 23.097656 14.722656 L 23.140625 14.769531 C 23.109375 14.730469 23.074219 14.691406 23.035156 14.65625 L 23.027344 14.648438 L 17.554688 9.429688 C 17.554688 9.429688 17.550781 9.429688 17.550781 9.429688 C 17.539062 9.417969 17.535156 9.417969 17.53125 9.414062 C 17.507812 9.398438 17.46875 9.371094 17.414062 9.335938 C 17.460938 9.367188 17.484375 9.386719 17.515625 9.40625 C 17.0625 8.984375 16.433594 8.898438 15.914062 9.117188 C 15.386719 9.339844 15 9.863281 15 10.5 L 15 13.5 L 6.074219 13.5 C 6.054688 13.488281 6.03125 13.472656 6.03125 13.46875 C 6.027344 13.46875 6.011719 13.445312 6 13.425781 L 6 6 C 6 5.175781 5.324219 4.5 4.5 4.5 L 1.5 4.5 C 0.675781 4.5 0 5.175781 0 6 L 0 12 C 0 12.136719 0.015625 12.144531 0.03125 12.199219 C 0.015625 12.367188 0 12.546875 0 12.765625 L 0 13.5 C 0 15.476562 0.398438 17.023438 1.4375 18.0625 C 2.480469 19.101562 4.023438 19.5 6 19.5 L 15 19.5 L 15 22.5 C 15 23.339844 15.703125 24.023438 16.542969 24 Z M 16.542969 24 "/>
<path style=" stroke:none;fill-rule:nonzero;fill:rgb(95.294118%,71.764708%,85.09804%);fill-opacity:1;" d="M 16.523438 23.285156 C 16.71875 23.28125 16.90625 23.199219 17.046875 23.0625 L 22.539062 17.796875 L 22.511719 17.824219 C 22.867188 17.511719 23.148438 17.050781 23.148438 16.542969 C 23.148438 16.035156 22.910156 15.601562 22.59375 15.230469 C 22.578125 15.207031 22.558594 15.1875 22.539062 15.171875 L 17.046875 9.9375 C 16.546875 9.453125 15.714844 9.804688 15.714844 10.5 L 15.714844 14.214844 L 6 14.214844 C 5.886719 14.214844 5.683594 14.132812 5.523438 13.976562 C 5.367188 13.816406 5.285156 13.613281 5.285156 13.5 L 5.285156 6 C 5.285156 5.566406 4.933594 5.214844 4.5 5.214844 L 1.5 5.214844 C 1.066406 5.214844 0.714844 5.566406 0.714844 6 L 0.714844 12 C 0.714844 12.074219 0.726562 12.148438 0.746094 12.222656 C 0.734375 12.402344 0.714844 12.578125 0.714844 12.765625 C 0.714844 16.910156 1.5 18.75 9 18.785156 C 9.1875 18.785156 9.363281 18.765625 9.546875 18.753906 C 9.617188 18.773438 9.691406 18.785156 9.765625 18.785156 L 15.714844 18.785156 L 15.714844 22.5 C 15.714844 22.941406 16.082031 23.296875 16.523438 23.285156 Z M 16.523438 23.285156 "/>
</g>
</svg>
