<?xml version="1.0" encoding="UTF-8" standalone="no"?>
<svg
   xmlns:dc="http://purl.org/dc/elements/1.1/"
   xmlns:cc="http://creativecommons.org/ns#"
   xmlns:rdf="http://www.w3.org/1999/02/22-rdf-syntax-ns#"
   xmlns:svg="http://www.w3.org/2000/svg"
   xmlns="http://www.w3.org/2000/svg"
   xmlns:xlink="http://www.w3.org/1999/xlink"
   xmlns:sodipodi="http://sodipodi.sourceforge.net/DTD/sodipodi-0.dtd"
   xmlns:inkscape="http://www.inkscape.org/namespaces/inkscape"
   height="24"
   viewBox="0 0 6.3499999 6.3500002"
   width="24"
   version="1.1"
   id="svg39"
   sodipodi:docname="lc_radiobutton.svg"
   inkscape:export-filename="/home/annisaauliarasyidah/Desktop/4_242 (aulia)/lc 222/lc_radiobutton.png"
   inkscape:export-xdpi="96"
   inkscape:export-ydpi="96"
   inkscape:version="0.92.4 (unknown)">
  <metadata
     id="metadata45">
    <rdf:RDF>
      <cc:Work
         rdf:about="">
        <dc:format>image/svg+xml</dc:format>
        <dc:type
           rdf:resource="http://purl.org/dc/dcmitype/StillImage" />
        <dc:title></dc:title>
      </cc:Work>
    </rdf:RDF>
  </metadata>
  <defs
     id="defs43" />
  <sodipodi:namedview
     pagecolor="#ffffff"
     bordercolor="#666666"
     borderopacity="1"
     objecttolerance="10"
     gridtolerance="10"
     guidetolerance="10"
     inkscape:pageopacity="0"
     inkscape:pageshadow="2"
     inkscape:window-width="1366"
     inkscape:window-height="707"
     id="namedview41"
     showgrid="false"
     inkscape:zoom="24.065816"
     inkscape:cx="11.093551"
     inkscape:cy="11.780811"
     inkscape:window-x="0"
     inkscape:window-y="0"
     inkscape:window-maximized="1"
     inkscape:current-layer="svg39" />
  <linearGradient
     id="a">
    <stop
       offset="0"
       stop-color="#fff"
       id="stop2" />
    <stop
       offset="1"
       stop-color="#fff"
       stop-opacity="0"
       id="stop4" />
  </linearGradient>
  <filter
     id="b"
     height="1.048"
     width="1.048"
     x="-0.024"
     y="-0.024"
     style="color-interpolation-filters:sRGB">
    <feGaussianBlur
       stdDeviation=".054227538"
       id="feGaussianBlur7" />
  </filter>
  <linearGradient
     id="c"
     gradientUnits="userSpaceOnUse"
     x1="8.2547054"
     x2="7.962378"
     xlink:href="#a"
     y1="1.257542"
     y2="15.051746"
     gradientTransform="scale(0.26458334)" />
  <filter
     id="d"
     height="1.120005"
     width="1.120005"
     x="-0.060001999"
     y="-0.060001999"
     style="color-interpolation-filters:sRGB">
    <feGaussianBlur
       stdDeviation=".13557429"
       id="feGaussianBlur11" />
  </filter>
  <linearGradient
     id="e"
     gradientUnits="userSpaceOnUse"
     x1="3.2028029"
     x2="3.2098219"
     xlink:href="#a"
     y1="2.8300819"
     y2="-0.33533201"
     gradientTransform="matrix(0.66667,0,0,0.66667,0.004746,1.297895)" />
  <linearGradient
     id="f"
     gradientUnits="userSpaceOnUse"
     x1="3.4465449"
     x2="3.4274769"
     y1="-1.550397"
     y2="3.3861849"
     gradientTransform="matrix(0.66667,0,0,0.66667,0.004746,1.297895)">
    <stop
       offset="0"
       stop-color="#f0efef"
       id="stop15" />
    <stop
       offset="1"
       stop-color="#ecebeb"
       id="stop17" />
  </linearGradient>
  <radialGradient
     id="g"
     cx="3.211354"
     cy="1.728269"
     gradientUnits="userSpaceOnUse"
     r="1.191005"
     gradientTransform="matrix(0.66667,0,0,0.66667,0.004746,1.297895)">
    <stop
       offset="0"
       stop-color="#666"
       id="stop20" />
    <stop
       offset="1"
       stop-color="#232323"
       stop-opacity=".9375"
       id="stop22" />
  </radialGradient>
  <g
     id="g834"
     transform="matrix(1.5354724,0,0,1.5360725,-0.07492818,-0.01063961)"
     style="stroke-width:0.65113813">
    <path
       d="M 3.9682171,2.1166667 A 1.8516514,1.8516514 0 0 1 2.1165656,3.9683181 1.8516514,1.8516514 0 0 1 0.26491429,2.1166667 1.8516514,1.8516514 0 0 1 2.1165656,0.2650153 1.8516514,1.8516514 0 0 1 3.9682171,2.1166667 Z"
       id="path29"
       style="fill:#f3b7d9;stroke:#e602b4;stroke-width:0.08614016;stroke-miterlimit:4;stroke-dasharray:none"
       inkscape:connector-curvature="0" />
    <path
       d="m 2.1208008,0.2651001 c -1.0226389,-1.3e-7 -1.85156667,0.8289276 -1.85156659,1.8515666 -10e-8,1.022639 0.82892769,1.8515667 1.85156659,1.8515667 1.022639,0 1.8515667,-0.8289277 1.8515667,-1.8515667 0,-1.022639 -0.8289277,-1.85156673 -1.8515667,-1.8515666 z m -0.00413,0.26406658 A 1.5875001,1.5875001 0 0 1 3.7041668,2.1166667 1.5875001,1.5875001 0 0 1 2.1166667,3.7041668 1.5875001,1.5875001 0 0 1 0.52916668,2.1166667 1.5875001,1.5875001 0 0 1 2.1166667,0.52916668 Z"
       id="path31"
       style="fill:#f3b7d9;stroke-width:0.0950305"
       inkscape:connector-curvature="0" />
    <path
       d="M 3.1784216,2.1166667 A 1.0617547,1.0617547 0 0 1 2.1166669,3.1784214 1.0617547,1.0617547 0 0 1 1.0549122,2.1166667 1.0617547,1.0617547 0 0 1 2.1166669,1.054912 1.0617547,1.0617547 0 0 1 3.1784216,2.1166667 Z"
       id="path33"
       style="fill:#f3b7d9;stroke-width:0.09803715"
       inkscape:connector-curvature="0" />
    <path
       d="M 2.9106741,2.1166667 A 0.79400724,0.79400724 0 0 1 2.1166669,2.9106739 0.79400724,0.79400724 0 0 1 1.3226597,2.1166667 0.79400724,0.79400724 0 0 1 2.1166669,1.3226594 0.79400724,0.79400724 0 0 1 2.9106741,2.1166667 Z"
       id="path35"
       style="fill:#9d3a9b;stroke-width:0.07331461"
       inkscape:connector-curvature="0" />
  </g>
</svg>
