<?xml version="1.0" encoding="UTF-8"?>
<svg xmlns="http://www.w3.org/2000/svg" xmlns:xlink="http://www.w3.org/1999/xlink" width="24px" height="24px" viewBox="0 0 24 24" version="1.1">
<g id="surface1">
<path style="fill-rule:evenodd;fill:rgb(94.117647%,89.019608%,92.54902%);fill-opacity:1;stroke-width:1;stroke-linecap:round;stroke-linejoin:round;stroke:rgb(90.196079%,0.784314%,70.588237%);stroke-opacity:1;stroke-miterlimit:4;" d="M 3.5 1.486979 L 12.494792 1.486979 C 13.046875 1.486979 13.494792 1.934896 13.494792 2.486979 L 13.494792 13.455729 C 13.494792 14.007812 13.046875 14.455729 12.494792 14.455729 L 3.5 14.455729 C 2.947917 14.455729 2.5 14.007812 2.5 13.455729 L 2.5 2.486979 C 2.5 1.934896 2.947917 1.486979 3.5 1.486979 Z M 3.5 1.486979 " transform="matrix(1.5,0,0,1.5,0,0)"/>
<path style=" stroke:none;fill-rule:nonzero;fill:rgb(90.196079%,0.784314%,70.588237%);fill-opacity:1;" d="M 6 13.566406 L 16.5 13.566406 L 16.5 16.5 L 6 16.5 Z M 6 13.566406 "/>
<path style="fill-rule:nonzero;fill:rgb(95.294118%,71.764708%,85.09804%);fill-opacity:1;stroke-width:0.388796;stroke-linecap:butt;stroke-linejoin:miter;stroke:rgb(61.56863%,22.745098%,60.784316%);stroke-opacity:1;stroke-miterlimit:4;" d="M 13.901754 1.910989 L 12.699065 3.5102 L 14.299253 4.710447 L 15.498545 3.111235 L 14.999123 2.112147 Z M 13.901754 1.910989 " transform="matrix(1.149767,0,0,1.165125,1.149036,0.273459)"/>
<path style="fill-rule:nonzero;fill:rgb(95.294118%,71.764708%,85.09804%);fill-opacity:1;stroke-width:0.259197;stroke-linecap:butt;stroke-linejoin:miter;stroke:rgb(61.56863%,22.745098%,60.784316%);stroke-opacity:1;stroke-miterlimit:4;" d="M 7.793179 11.707416 L 8.194075 9.508081 L 8.893945 9.407502 L 8.785228 9.95063 L 9.301637 9.712592 L 9.186124 10.252368 L 9.702533 10.01433 L 9.794264 10.708328 L 7.793179 11.707416 " transform="matrix(1.149767,0,0,1.165125,1.149036,0.273459)"/>
<path style="fill-rule:nonzero;fill:rgb(61.56863%,22.745098%,60.784316%);fill-opacity:1;stroke-width:0.129599;stroke-linecap:butt;stroke-linejoin:miter;stroke:rgb(61.56863%,22.745098%,60.784316%);stroke-opacity:1;stroke-miterlimit:4;" d="M 8.132922 10.590985 L 8.67651 11.040239 L 7.793179 11.714121 Z M 8.132922 10.590985 " transform="matrix(1.149767,0,0,1.165125,1.149036,0.273459)"/>
<path style="fill-rule:nonzero;fill:rgb(90.196079%,0.784314%,70.588237%);fill-opacity:1;stroke-width:0.129599;stroke-linecap:butt;stroke-linejoin:miter;stroke:rgb(61.56863%,22.745098%,60.784316%);stroke-opacity:1;stroke-miterlimit:4;" d="M 12.699065 3.5102 L 14.299253 4.710447 L 9.794264 10.708328 L 9.702533 10.01433 L 9.186124 10.252368 L 9.230291 9.796408 L 8.785228 9.95063 L 8.839587 9.48126 L 8.194075 9.508081 Z M 12.699065 3.5102 " transform="matrix(1.149767,0,0,1.165125,1.149036,0.273459)"/>
<path style="fill:none;stroke-width:0.90719;stroke-linecap:butt;stroke-linejoin:round;stroke:rgb(61.56863%,22.745098%,60.784316%);stroke-opacity:1;stroke-miterlimit:4;" d="M 13.599383 2.309953 L 8.194075 9.508081 L 7.494205 12.10638 L 9.794264 10.708328 L 15.199571 3.513553 C 15.997967 2.480938 14.431753 1.233754 13.599383 2.309953 Z M 13.599383 2.309953 " transform="matrix(1.149767,0,0,1.165125,1.149036,0.273459)"/>
<path style="fill-rule:nonzero;fill:rgb(94.117647%,89.019608%,92.54902%);fill-opacity:1;stroke-width:1.5;stroke-linecap:round;stroke-linejoin:miter;stroke:rgb(94.117647%,89.019608%,92.54902%);stroke-opacity:1;stroke-miterlimit:4;" d="M -0.999946 0.999598 L -4.999946 4.999598 " transform="matrix(1.5,0,0,1.5,10.132731,1.125603)"/>
<path style="fill:none;stroke-width:1.5;stroke-linecap:round;stroke-linejoin:miter;stroke:rgb(94.117647%,89.019608%,92.54902%);stroke-opacity:1;stroke-miterlimit:4;" d="M -4.999946 0.999598 L -0.999946 4.999598 " transform="matrix(1.5,0,0,1.5,10.132731,1.125603)"/>
<path style="fill-rule:nonzero;fill:rgb(61.56863%,22.745098%,60.784316%);fill-opacity:1;stroke-width:1;stroke-linecap:round;stroke-linejoin:miter;stroke:rgb(61.56863%,22.745098%,60.784316%);stroke-opacity:1;stroke-miterlimit:4;" d="M -4.999946 0.999598 L -0.999946 4.999598 " transform="matrix(1.5,0,0,1.5,10.132731,1.125603)"/>
<path style="fill:none;stroke-width:1;stroke-linecap:round;stroke-linejoin:miter;stroke:rgb(61.56863%,22.745098%,60.784316%);stroke-opacity:1;stroke-miterlimit:4;" d="M -0.999946 0.999598 L -4.999946 4.999598 " transform="matrix(1.5,0,0,1.5,10.132731,1.125603)"/>
</g>
</svg>
