<?xml version="1.0" encoding="UTF-8"?>
<svg xmlns="http://www.w3.org/2000/svg" xmlns:xlink="http://www.w3.org/1999/xlink" width="24px" height="24px" viewBox="0 0 24 24" version="1.1">
<g id="surface1">
<path style="fill-rule:nonzero;fill:rgb(95.294118%,71.764708%,85.09804%);fill-opacity:1;stroke-width:1;stroke-linecap:round;stroke-linejoin:round;stroke:rgb(90.196079%,0.784314%,70.588237%);stroke-opacity:1;stroke-miterlimit:4;" d="M 8 1.5 C 7.645833 1.502604 7.416667 1.518229 7.065104 1.567708 C 6.960938 1.583333 6.875 1.651042 6.875 1.757812 L 6.8125 2.778646 C 6.802083 2.882812 6.729167 2.950521 6.653646 2.976562 C 6.651042 2.976562 6.648438 2.979167 6.645833 2.979167 C 6.200521 3.098958 5.776042 3.273438 5.385417 3.5 C 5.315104 3.53125 5.223958 3.528646 5.148438 3.466146 L 4.380208 2.789062 C 4.307292 2.716146 4.197917 2.729167 4.114583 2.789062 C 3.830729 3.005208 3.653646 3.153646 3.403646 3.403646 C 3.153646 3.653646 3.005208 3.830729 2.789062 4.114583 C 2.729167 4.197917 2.716146 4.307292 2.789062 4.380208 L 3.466146 5.148438 C 3.518229 5.210938 3.546875 5.291667 3.518229 5.348958 L 3.510417 5.361979 C 3.268229 5.773438 3.078125 6.221354 2.955729 6.695312 C 2.955729 6.697917 2.953125 6.700521 2.953125 6.703125 C 2.919271 6.757812 2.859375 6.804688 2.778646 6.8125 L 1.757812 6.875 C 1.651042 6.875 1.583333 6.960938 1.567708 7.065104 C 1.518229 7.416667 1.502604 7.645833 1.5 8 C 1.502604 8.354167 1.518229 8.583333 1.567708 8.934896 C 1.583333 9.039062 1.651042 9.125 1.757812 9.125 L 2.778646 9.1875 C 2.872396 9.197917 2.934896 9.257812 2.966146 9.328125 C 3.085938 9.776042 3.265625 10.200521 3.494792 10.59375 C 3.533854 10.666667 3.536458 10.768229 3.466146 10.851562 L 2.789062 11.619792 C 2.716146 11.692708 2.729167 11.802083 2.789062 11.885417 C 3.005208 12.169271 3.153646 12.346354 3.403646 12.596354 C 3.653646 12.846354 3.830729 12.994792 4.114583 13.210938 C 4.197917 13.270833 4.307292 13.283854 4.380208 13.210938 L 5.148438 12.533854 C 5.231771 12.463542 5.333333 12.466146 5.40625 12.505208 L 5.416667 12.494792 C 5.799479 12.713542 6.210938 12.888021 6.645833 13.002604 L 6.645833 13.020833 C 6.726562 13.044271 6.802083 13.114583 6.8125 13.221354 L 6.875 14.242188 C 6.875 14.348958 6.960938 14.416667 7.065104 14.432292 C 7.416667 14.481771 7.645833 14.497396 8 14.5 C 8.354167 14.497396 8.583333 14.481771 8.934896 14.432292 C 9.039062 14.416667 9.125 14.348958 9.125 14.242188 L 9.1875 13.221354 C 9.197917 13.114583 9.273438 13.044271 9.354167 13.020833 L 9.354167 13.002604 C 9.789062 12.888021 10.200521 12.713542 10.583333 12.494792 L 10.59375 12.505208 C 10.666667 12.466146 10.768229 12.463542 10.851562 12.533854 L 11.619792 13.210938 C 11.692708 13.283854 11.802083 13.270833 11.885417 13.210938 C 12.169271 12.994792 12.346354 12.846354 12.596354 12.596354 C 12.846354 12.346354 12.994792 12.169271 13.210938 11.885417 C 13.270833 11.802083 13.283854 11.692708 13.210938 11.619792 L 12.533854 10.851562 C 12.463542 10.768229 12.466146 10.666667 12.505208 10.59375 C 12.734375 10.200521 12.914062 9.776042 13.033854 9.328125 C 13.065104 9.257812 13.127604 9.197917 13.221354 9.1875 L 14.242188 9.125 C 14.348958 9.125 14.416667 9.039062 14.432292 8.934896 C 14.481771 8.583333 14.497396 8.354167 14.5 8 C 14.497396 7.645833 14.481771 7.416667 14.432292 7.065104 C 14.416667 6.960938 14.348958 6.875 14.242188 6.875 L 13.221354 6.8125 C 13.140625 6.804688 13.080729 6.757812 13.046875 6.703125 C 13.046875 6.700521 13.044271 6.697917 13.044271 6.695312 C 12.921875 6.221354 12.703125 5.791667 12.489583 5.361979 L 12.481771 5.348958 C 12.453125 5.291667 12.481771 5.210938 12.533854 5.148438 L 13.210938 4.380208 C 13.283854 4.307292 13.270833 4.197917 13.210938 4.114583 C 12.994792 3.830729 12.846354 3.653646 12.596354 3.403646 C 12.346354 3.153646 12.169271 3.005208 11.885417 2.789062 C 11.802083 2.729167 11.692708 2.716146 11.619792 2.789062 L 10.851562 3.466146 C 10.776042 3.528646 10.684896 3.53125 10.614583 3.5 C 10.223958 3.273438 9.799479 3.098958 9.354167 2.979167 C 9.351562 2.979167 9.348958 2.976562 9.346354 2.976562 C 9.270833 2.950521 9.197917 2.882812 9.1875 2.778646 L 9.125 1.757812 C 9.125 1.651042 9.039062 1.583333 8.934896 1.567708 C 8.583333 1.518229 8.354167 1.502604 8 1.5 Z M 8 6.265625 C 8.955729 6.265625 9.734375 7.044271 9.734375 8 C 9.734375 8.955729 8.955729 9.734375 8 9.734375 C 7.044271 9.734375 6.265625 8.955729 6.265625 8 C 6.265625 7.044271 7.044271 6.265625 8 6.265625 Z M 8 6.265625 " transform="matrix(1.5,0,0,1.5,0,0)"/>
<path style=" stroke:none;fill-rule:nonzero;fill:rgb(61.56863%,22.745098%,60.784316%);fill-opacity:1;" d="M 14.988281 11.941406 C 14.988281 13.578125 13.660156 14.90625 12.019531 14.90625 C 10.382812 14.90625 9.054688 13.578125 9.054688 11.941406 C 9.054688 10.300781 10.382812 8.972656 12.019531 8.972656 C 13.660156 8.972656 14.988281 10.300781 14.988281 11.941406 Z M 14.988281 11.941406 "/>
<path style="fill:none;stroke-width:1;stroke-linecap:round;stroke-linejoin:miter;stroke:rgb(61.56863%,22.745098%,60.784316%);stroke-opacity:1;stroke-miterlimit:4;" d="M 8.885417 7.903646 L 14.385417 7.903646 " transform="matrix(1.5,0,0,1.5,0,0)"/>
<path style="fill:none;stroke-width:1;stroke-linecap:round;stroke-linejoin:round;stroke:rgb(61.56863%,22.745098%,60.784316%);stroke-opacity:1;stroke-miterlimit:4;" d="M 12.385417 5.903646 L 14.385417 7.903646 L 12.385417 9.903646 " transform="matrix(1.5,0,0,1.5,0,0)"/>
</g>
</svg>
