<?xml version="1.0" encoding="UTF-8"?>
<svg xmlns="http://www.w3.org/2000/svg" xmlns:xlink="http://www.w3.org/1999/xlink" width="24px" height="24px" viewBox="0 0 24 24" version="1.1">
<g id="surface1">
<path style="fill-rule:evenodd;fill:rgb(94.117647%,89.019608%,92.54902%);fill-opacity:1;stroke-width:1;stroke-linecap:round;stroke-linejoin:round;stroke:rgb(90.196079%,0.784314%,70.588237%);stroke-opacity:1;stroke-miterlimit:4;" d="M 3.505208 1.5 L 12.5 1.5 C 13.052083 1.5 13.5 1.947917 13.5 2.5 L 13.5 13.466146 C 13.5 14.018229 13.052083 14.466146 12.5 14.466146 L 3.505208 14.466146 C 2.953125 14.466146 2.505208 14.018229 2.505208 13.466146 L 2.505208 2.5 C 2.505208 1.947917 2.953125 1.5 3.505208 1.5 Z M 3.505208 1.5 " transform="matrix(1.5,0,0,1.5,0,0)"/>
<path style="fill-rule:nonzero;fill:rgb(61.56863%,22.745098%,60.784316%);fill-opacity:1;stroke-width:0.25;stroke-linecap:butt;stroke-linejoin:miter;stroke:rgb(61.56863%,22.745098%,60.784316%);stroke-opacity:1;stroke-miterlimit:4;" d="M 4.114583 3.78125 C 4.151042 3.385417 4.429688 3.098958 4.78125 3.098958 C 5.015625 3.098958 5.229167 3.223958 5.348958 3.424479 C 5.46875 3.221354 5.671875 3.098958 5.903646 3.098958 C 6.252604 3.098958 6.533854 3.385417 6.570312 3.78125 C 6.572917 3.796875 6.583333 3.888021 6.549479 4.039062 C 6.497396 4.255208 6.380208 4.450521 6.208333 4.606771 L 5.348958 5.382812 L 4.476562 4.606771 C 4.304688 4.450521 4.1875 4.255208 4.135417 4.039062 C 4.098958 3.888021 4.111979 3.796875 4.114583 3.78125 Z M 4.226562 4.018229 C 4.273438 4.213542 4.382812 4.393229 4.539062 4.536458 L 5.348958 5.255208 L 6.143229 4.536458 C 6.302083 4.393229 6.408854 4.213542 6.455729 4.018229 C 6.489583 3.875 6.476562 3.794271 6.476562 3.794271 L 6.476562 3.789062 C 6.445312 3.445312 6.203125 3.192708 5.903646 3.192708 C 5.679688 3.192708 5.484375 3.330729 5.393229 3.549479 L 5.348958 3.651042 L 5.304688 3.549479 C 5.213542 3.333333 5.007812 3.192708 4.78125 3.192708 C 4.479167 3.192708 4.239583 3.445312 4.208333 3.794271 C 4.208333 3.796875 4.192708 3.875 4.226562 4.018229 Z M 4.226562 4.018229 " transform="matrix(1.5,0,0,1.5,0,0)"/>
<path style="fill:none;stroke-width:1;stroke-linecap:round;stroke-linejoin:miter;stroke:rgb(90.196079%,0.784314%,70.588237%);stroke-opacity:1;stroke-miterlimit:4;" d="M 4.9375 6.458333 L 11.346354 6.458333 " transform="matrix(1.5,0,0,1.5,0,0)"/>
<path style="fill:none;stroke-width:1;stroke-linecap:round;stroke-linejoin:miter;stroke:rgb(90.196079%,0.784314%,70.588237%);stroke-opacity:1;stroke-miterlimit:4;" d="M 4.5 8.453125 L 11.825521 8.453125 " transform="matrix(1.5,0,0,1.5,0,0)"/>
<path style=" stroke:none;fill-rule:nonzero;fill:rgb(61.56863%,22.745098%,60.784316%);fill-opacity:1;" d="M 3 7.5 L 21 7.5 C 21.828125 7.5 22.5 8.046875 22.5 8.71875 L 22.5 10.78125 C 22.5 11.453125 21.828125 12 21 12 L 3 12 C 2.171875 12 1.5 11.453125 1.5 10.78125 L 1.5 8.71875 C 1.5 8.046875 2.171875 7.5 3 7.5 Z M 3 7.5 "/>
<path style=" stroke:none;fill-rule:nonzero;fill:rgb(95.294118%,71.764708%,85.09804%);fill-opacity:1;" d="M 3 9 L 21 9 L 21 10.5 L 3 10.5 Z M 3 9 "/>
<path style="fill:none;stroke-width:1;stroke-linecap:round;stroke-linejoin:miter;stroke:rgb(90.196079%,0.784314%,70.588237%);stroke-opacity:1;stroke-miterlimit:4;" d="M 4.5 10.453125 L 11.825521 10.453125 " transform="matrix(1.5,0,0,1.5,0,0)"/>
</g>
</svg>
