<?xml version="1.0" encoding="UTF-8"?>
<svg xmlns="http://www.w3.org/2000/svg" xmlns:xlink="http://www.w3.org/1999/xlink" width="24px" height="24px" viewBox="0 0 24 24" version="1.1">
<g id="surface1">
<path style="fill-rule:nonzero;fill:rgb(94.117647%,89.019608%,92.54902%);fill-opacity:1;stroke-width:0.264583;stroke-linecap:butt;stroke-linejoin:miter;stroke:rgb(90.196079%,0.784314%,70.588237%);stroke-opacity:1;stroke-miterlimit:4;" d="M 2.104866 0.396845 C 2.083506 0.396845 2.064213 0.410625 2.056634 0.430607 L 1.928477 0.787518 C 1.92641 0.793031 1.925721 0.798543 1.925721 0.804744 L 1.925721 0.824725 C 1.925721 0.828171 1.92641 0.832305 1.927099 0.83575 L 1.984976 1.103089 L 1.699722 1.219533 L 1.548138 0.991468 L 1.535047 0.971487 C 1.530224 0.963907 1.522644 0.957706 1.514376 0.953572 L 1.178135 0.792342 C 1.158153 0.782695 1.134727 0.786829 1.119568 0.801988 L 0.924576 0.99698 C 0.909417 1.012828 0.905283 1.036254 0.914929 1.055547 L 1.07616 1.391788 C 1.080294 1.400056 1.086495 1.406947 1.094074 1.412459 L 1.114056 1.42555 L 1.342121 1.577134 L 1.225677 1.862388 L 0.958338 1.804511 C 0.954204 1.803822 0.950758 1.803133 0.947313 1.803133 L 0.927332 1.803133 C 0.921131 1.803133 0.915618 1.803822 0.910106 1.805889 L 0.553194 1.934046 C 0.533213 1.941625 0.519432 1.960918 0.519432 1.982278 L 0.519432 2.250995 C 0.519432 2.272355 0.533213 2.291647 0.553194 2.299226 L 0.910106 2.427384 C 0.915618 2.429451 0.921131 2.43014 0.927332 2.43014 L 0.947313 2.43014 C 0.950758 2.43014 0.954204 2.429451 0.958338 2.428762 L 1.225677 2.370884 L 1.342121 2.656138 L 1.114056 2.807723 L 1.094074 2.820814 C 1.086495 2.825637 1.080294 2.833216 1.07616 2.841484 L 0.914929 3.177726 C 0.905283 3.197018 0.909417 3.220445 0.924576 3.236292 L 1.119568 3.431285 C 1.134727 3.446443 1.158153 3.450577 1.178135 3.440931 L 1.514376 3.279701 C 1.522644 3.275567 1.530224 3.269365 1.535047 3.261786 L 1.548138 3.241805 L 1.699722 3.013739 L 1.984976 3.130183 L 1.927099 3.397523 C 1.92641 3.400968 1.925721 3.405102 1.925721 3.408547 L 1.925721 3.428529 C 1.925721 3.43473 1.92641 3.440242 1.928477 3.445754 L 2.056634 3.802666 C 2.064213 3.822648 2.083506 3.836428 2.104866 3.836428 L 2.373583 3.836428 C 2.394943 3.836428 2.414235 3.822648 2.421814 3.802666 L 2.549972 3.445754 C 2.552039 3.440242 2.552728 3.43473 2.552728 3.428529 L 2.552728 3.408547 C 2.552728 3.405102 2.552039 3.400968 2.55135 3.397523 L 2.493472 3.130183 L 2.778037 3.013739 L 2.93031 3.241805 L 2.943402 3.261786 C 2.948914 3.269365 2.955804 3.275567 2.964072 3.279701 L 3.300314 3.440931 C 3.319606 3.450577 3.343033 3.446443 3.35888 3.431285 L 3.553873 3.236292 C 3.569031 3.220445 3.573165 3.197018 3.563519 3.177726 L 3.402289 2.841484 C 3.398154 2.833216 3.391953 2.825637 3.384374 2.820814 L 3.364393 2.807723 L 3.136327 2.656138 L 3.252771 2.370884 L 3.520111 2.428762 C 3.523556 2.429451 3.52769 2.43014 3.531135 2.43014 L 3.551117 2.43014 C 3.557318 2.43014 3.56283 2.429451 3.568342 2.427384 L 3.925254 2.299226 C 3.945236 2.291647 3.959016 2.272355 3.959016 2.250995 L 3.959016 1.982278 C 3.959016 1.960918 3.945236 1.941625 3.925254 1.934046 L 3.568342 1.805889 C 3.56283 1.803822 3.557318 1.803133 3.551117 1.803133 L 3.531135 1.803133 C 3.52769 1.803133 3.523556 1.803822 3.520111 1.804511 L 3.252771 1.862388 L 3.136327 1.577823 L 3.364393 1.42555 L 3.384374 1.412459 C 3.391953 1.406947 3.398154 1.400056 3.402289 1.391788 L 3.563519 1.055547 C 3.573165 1.036254 3.569031 1.012828 3.553873 0.99698 L 3.35888 0.801988 C 3.343033 0.786829 3.319606 0.782695 3.300314 0.792342 L 2.964072 0.953572 C 2.955804 0.957706 2.948914 0.963907 2.943402 0.971487 L 2.93031 0.991468 L 2.778037 1.219533 L 2.493472 1.103089 L 2.55135 0.83575 C 2.552039 0.832305 2.552728 0.828171 2.552728 0.824725 L 2.552728 0.804744 C 2.552728 0.798543 2.552039 0.793031 2.549972 0.787518 L 2.421814 0.430607 C 2.414235 0.410625 2.394943 0.396845 2.373583 0.396845 Z M 2.239224 1.710115 C 2.463155 1.710115 2.645746 1.893394 2.645746 2.116636 C 2.645746 2.339879 2.463155 2.523158 2.239224 2.523158 C 2.015293 2.523158 1.832703 2.339879 1.832703 2.116636 C 1.832703 1.893394 2.015293 1.710115 2.239224 1.710115 Z M 2.239224 1.710115 " transform="matrix(5.669291,0,0,5.669291,-0.694814,0.00017263)"/>
<path style=" stroke:none;fill-rule:evenodd;fill:rgb(94.117647%,89.019608%,92.54902%);fill-opacity:1;" d="M 14.234375 12.015625 C 14.234375 13.261719 13.226562 14.265625 11.984375 14.265625 C 10.738281 14.265625 9.734375 13.261719 9.734375 12.015625 C 9.734375 10.773438 10.738281 9.765625 11.984375 9.765625 C 13.226562 9.765625 14.234375 10.773438 14.234375 12.015625 Z M 14.234375 12.015625 "/>
<path style="fill:none;stroke-width:0.264583;stroke-linecap:round;stroke-linejoin:miter;stroke:rgb(61.56863%,22.745098%,60.784316%);stroke-opacity:1;stroke-miterlimit:4;" d="M 2.38125 2.116667 L 3.836458 2.116667 " transform="matrix(5.669291,0,0,5.669291,0.00000135166,0)"/>
<path style="fill:none;stroke-width:0.264583;stroke-linecap:round;stroke-linejoin:round;stroke:rgb(61.56863%,22.745098%,60.784316%);stroke-opacity:1;stroke-miterlimit:4;" d="M 3.307292 1.5875 L 3.836458 2.116667 L 3.307292 2.645833 " transform="matrix(5.669291,0,0,5.669291,0.00000135166,0)"/>
<path style=" stroke:none;fill-rule:evenodd;fill:rgb(61.56863%,22.745098%,60.784316%);fill-opacity:1;" d="M 15.023438 11.976562 C 15.023438 13.632812 13.679688 14.976562 12.023438 14.976562 C 10.367188 14.976562 9.023438 13.632812 9.023438 11.976562 C 9.023438 10.320312 10.367188 8.976562 12.023438 8.976562 C 13.679688 8.976562 15.023438 10.320312 15.023438 11.976562 Z M 15.023438 11.976562 "/>
</g>
</svg>
