<?xml version="1.0" encoding="UTF-8"?>
<svg xmlns="http://www.w3.org/2000/svg" xmlns:xlink="http://www.w3.org/1999/xlink" width="24px" height="24px" viewBox="0 0 24 24" version="1.1">
<g id="surface1">
<path style="fill-rule:evenodd;fill:rgb(94.117647%,89.019608%,92.54902%);fill-opacity:1;stroke-width:1;stroke-linecap:round;stroke-linejoin:round;stroke:rgb(90.196079%,0.784314%,70.588237%);stroke-opacity:1;stroke-miterlimit:4;" d="M 3.46875 1.5 L 12.463542 1.5 C 13.015625 1.5 13.463542 1.947917 13.463542 2.5 L 13.463542 13.466146 C 13.463542 14.018229 13.015625 14.466146 12.463542 14.466146 L 3.46875 14.466146 C 2.916667 14.466146 2.46875 14.018229 2.46875 13.466146 L 2.46875 2.5 C 2.46875 1.947917 2.916667 1.5 3.46875 1.5 Z M 3.46875 1.5 " transform="matrix(1.5,0,0,1.5,0,0)"/>
<path style=" stroke:none;fill-rule:nonzero;fill:rgb(90.196079%,0.784314%,70.588237%);fill-opacity:1;" d="M 16.453125 4.5 L 9.046875 4.5 L 9.046875 6 L 16.453125 6 Z M 16.453125 4.5 "/>
<path style=" stroke:none;fill-rule:nonzero;fill:rgb(90.196079%,0.784314%,70.588237%);fill-opacity:1;" d="M 5.953125 4.5 L 7.5 4.5 L 7.5 6.046875 L 5.953125 6.046875 Z M 5.953125 4.5 "/>
<path style=" stroke:none;fill-rule:nonzero;fill:rgb(61.56863%,22.745098%,60.784316%);fill-opacity:1;" d="M 16.5 18 L 9 18 L 9 19.5 L 16.5 19.5 Z M 16.5 18 "/>
<path style=" stroke:none;fill-rule:nonzero;fill:rgb(61.56863%,22.745098%,60.784316%);fill-opacity:1;" d="M 6 18 L 7.5 18 L 7.5 19.5 L 6 19.5 Z M 6 18 "/>
<path style="fill-rule:nonzero;fill:rgb(94.117647%,89.019608%,92.54902%);fill-opacity:1;stroke-width:1.5;stroke-linecap:round;stroke-linejoin:miter;stroke:rgb(94.117647%,89.019608%,92.54902%);stroke-opacity:1;stroke-miterlimit:4;" d="M -0.99909 0.999443 L -4.99909 4.999443 " transform="matrix(1.5,0,0,1.5,23.092385,15.40318)"/>
<path style="fill:none;stroke-width:1.5;stroke-linecap:round;stroke-linejoin:miter;stroke:rgb(94.117647%,89.019608%,92.54902%);stroke-opacity:1;stroke-miterlimit:4;" d="M -4.99909 0.999443 L -0.99909 4.999443 " transform="matrix(1.5,0,0,1.5,23.092385,15.40318)"/>
<path style="fill-rule:nonzero;fill:rgb(61.56863%,22.745098%,60.784316%);fill-opacity:1;stroke-width:1;stroke-linecap:round;stroke-linejoin:miter;stroke:rgb(61.56863%,22.745098%,60.784316%);stroke-opacity:1;stroke-miterlimit:4;" d="M -4.99909 0.999443 L -0.99909 4.999443 " transform="matrix(1.5,0,0,1.5,23.092385,15.40318)"/>
<path style="fill:none;stroke-width:1;stroke-linecap:round;stroke-linejoin:miter;stroke:rgb(61.56863%,22.745098%,60.784316%);stroke-opacity:1;stroke-miterlimit:4;" d="M -0.99909 0.999443 L -4.99909 4.999443 " transform="matrix(1.5,0,0,1.5,23.092385,15.40318)"/>
<path style=" stroke:none;fill-rule:nonzero;fill:rgb(90.196079%,0.784314%,70.588237%);fill-opacity:1;" d="M 16.5 13.5 L 9.09375 13.5 L 9.09375 15 L 16.5 15 Z M 16.5 13.5 "/>
<path style=" stroke:none;fill-rule:nonzero;fill:rgb(90.196079%,0.784314%,70.588237%);fill-opacity:1;" d="M 6 13.5 L 7.546875 13.5 L 7.546875 15.046875 L 6 15.046875 Z M 6 13.5 "/>
<path style=" stroke:none;fill-rule:nonzero;fill:rgb(61.56863%,22.745098%,60.784316%);fill-opacity:1;" d="M 16.5 9 L 9 9 L 9 10.5 L 16.5 10.5 Z M 16.5 9 "/>
<path style=" stroke:none;fill-rule:nonzero;fill:rgb(61.56863%,22.745098%,60.784316%);fill-opacity:1;" d="M 6 9 L 7.5 9 L 7.5 10.5 L 6 10.5 Z M 6 9 "/>
</g>
</svg>
