<?xml version="1.0" encoding="UTF-8"?>
<svg xmlns="http://www.w3.org/2000/svg" xmlns:xlink="http://www.w3.org/1999/xlink" width="24px" height="24px" viewBox="0 0 24 24" version="1.1">
<defs>
<clipPath id="clip1">
  <path d="M 2 2 L 22 2 L 22 22 L 2 22 Z M 2 2 "/>
</clipPath>
<clipPath id="clip2">
  <path d="M 6.246094 1.351562 L 1.296875 6.289062 L 1.296875 22.742188 L 23.578125 22.742188 L 23.578125 1.351562 Z M 6.246094 1.351562 "/>
</clipPath>
<clipPath id="clip3">
  <path d="M 1 1 L 23 1 L 23 23 L 1 23 Z M 1 1 "/>
</clipPath>
<clipPath id="clip4">
  <path d="M 6.246094 1.351562 L 1.296875 6.289062 L 1.296875 22.742188 L 23.578125 22.742188 L 23.578125 1.351562 Z M 6.246094 1.351562 "/>
</clipPath>
<clipPath id="clip5">
  <path d="M 9 3 L 17 3 L 17 7 L 9 7 Z M 9 3 "/>
</clipPath>
<clipPath id="clip6">
  <path d="M 4.21875 3.09375 L 20.042969 3.09375 C 21.664062 3.09375 22.976562 4.492188 22.976562 6.21875 L 22.976562 17.9375 C 22.976562 19.664062 21.664062 21.0625 20.042969 21.0625 L 4.21875 21.0625 C 2.601562 21.0625 1.289062 19.664062 1.289062 17.9375 L 1.289062 6.21875 C 1.289062 4.492188 2.601562 3.09375 4.21875 3.09375 Z M 4.21875 3.09375 "/>
</clipPath>
<clipPath id="clip7">
  <path d="M 9 3 L 17 3 L 17 8 L 9 8 Z M 9 3 "/>
</clipPath>
<clipPath id="clip8">
  <path d="M 4.21875 3.09375 L 20.042969 3.09375 C 21.664062 3.09375 22.976562 4.492188 22.976562 6.21875 L 22.976562 17.9375 C 22.976562 19.664062 21.664062 21.0625 20.042969 21.0625 L 4.21875 21.0625 C 2.601562 21.0625 1.289062 19.664062 1.289062 17.9375 L 1.289062 6.21875 C 1.289062 4.492188 2.601562 3.09375 4.21875 3.09375 Z M 4.21875 3.09375 "/>
</clipPath>
<clipPath id="clip9">
  <path d="M 6 11 L 19 11 L 19 22 L 6 22 Z M 6 11 "/>
</clipPath>
<clipPath id="clip10">
  <path d="M 2.863281 2.457031 L 20.316406 2.457031 C 22.101562 2.457031 23.550781 3.902344 23.550781 5.6875 L 23.550781 17.804688 C 23.550781 19.589844 22.101562 21.035156 20.316406 21.035156 L 2.863281 21.035156 C 1.078125 21.035156 -0.371094 19.589844 -0.371094 17.804688 L -0.371094 5.6875 C -0.371094 3.902344 1.078125 2.457031 2.863281 2.457031 Z M 2.863281 2.457031 "/>
</clipPath>
<clipPath id="clip11">
  <path d="M 5 10 L 19 10 L 19 22 L 5 22 Z M 5 10 "/>
</clipPath>
<clipPath id="clip12">
  <path d="M 2.863281 2.457031 L 20.316406 2.457031 C 22.101562 2.457031 23.550781 3.902344 23.550781 5.6875 L 23.550781 17.804688 C 23.550781 19.589844 22.101562 21.035156 20.316406 21.035156 L 2.863281 21.035156 C 1.078125 21.035156 -0.371094 19.589844 -0.371094 17.804688 L -0.371094 5.6875 C -0.371094 3.902344 1.078125 2.457031 2.863281 2.457031 Z M 2.863281 2.457031 "/>
</clipPath>
</defs>
<g id="surface1">
<g clip-path="url(#clip1)" clip-rule="nonzero">
<g clip-path="url(#clip2)" clip-rule="nonzero">
<path style=" stroke:none;fill-rule:evenodd;fill:rgb(95.294118%,71.764708%,85.09804%);fill-opacity:1;" d="M 5.179688 2.371094 L 18.910156 2.371094 C 20.464844 2.371094 21.730469 3.636719 21.730469 5.191406 L 21.730469 18.921875 C 21.730469 20.476562 20.464844 21.742188 18.910156 21.742188 L 5.179688 21.742188 C 3.621094 21.742188 2.359375 20.476562 2.359375 18.921875 L 2.359375 5.191406 C 2.359375 3.636719 3.621094 2.371094 5.179688 2.371094 Z M 5.179688 2.371094 "/>
</g>
</g>
<g clip-path="url(#clip3)" clip-rule="nonzero">
<g clip-path="url(#clip4)" clip-rule="nonzero">
<path style="fill:none;stroke-width:0.910248;stroke-linecap:round;stroke-linejoin:round;stroke:rgb(90.196079%,0.784314%,70.588237%);stroke-opacity:1;stroke-miterlimit:4;" d="M 3.853126 2.118668 L 12.172548 2.118668 C 13.114548 2.118668 13.881402 2.887859 13.881402 3.832731 L 13.881402 12.17751 C 13.881402 13.122381 13.114548 13.891573 12.172548 13.891573 L 3.853126 13.891573 C 2.908759 13.891573 2.144272 13.122381 2.144272 12.17751 L 2.144272 3.832731 C 2.144272 2.887859 2.908759 2.118668 3.853126 2.118668 Z M 3.853126 2.118668 " transform="matrix(1.650411,0,0,1.645396,-1.179556,-1.114954)"/>
</g>
</g>
<path style="fill:none;stroke-width:0.590495;stroke-linecap:butt;stroke-linejoin:bevel;stroke:rgb(90.196079%,0.784314%,70.588237%);stroke-opacity:1;stroke-miterlimit:4;" d="M 1.694418 16.423325 L 3.598163 14.53678 " transform="matrix(2.560742,0,0,2.519902,-2.046,-34.326571)"/>
<g clip-path="url(#clip5)" clip-rule="nonzero">
<g clip-path="url(#clip6)" clip-rule="nonzero">
<path style=" stroke:none;fill-rule:evenodd;fill:rgb(94.117647%,89.019608%,92.54902%);fill-opacity:1;" d="M 10.71875 1.101562 L 15.210938 1.101562 C 15.753906 1.101562 16.195312 1.679688 16.195312 2.394531 L 16.195312 5.515625 C 16.195312 6.226562 15.753906 6.804688 15.210938 6.804688 L 10.71875 6.804688 C 10.175781 6.804688 9.738281 6.226562 9.738281 5.515625 L 9.738281 2.394531 C 9.738281 1.679688 10.175781 1.101562 10.71875 1.101562 Z M 10.71875 1.101562 "/>
</g>
</g>
<g clip-path="url(#clip7)" clip-rule="nonzero">
<g clip-path="url(#clip8)" clip-rule="nonzero">
<path style="fill:none;stroke-width:0.931591;stroke-linecap:butt;stroke-linejoin:bevel;stroke:rgb(90.196079%,0.784314%,70.588237%);stroke-opacity:1;stroke-miterlimit:4;" d="M 6.938146 9.360084 L 9.818052 9.360084 C 10.166145 9.360084 10.449127 9.707916 10.449127 10.138006 L 10.449127 12.015829 C 10.449127 12.443568 10.166145 12.7914 9.818052 12.7914 L 6.938146 12.7914 C 6.590053 12.7914 6.309576 12.443568 6.309576 12.015829 L 6.309576 10.138006 C 6.309576 9.707916 6.590053 9.360084 6.938146 9.360084 Z M 6.938146 9.360084 " transform="matrix(1.559838,0,0,1.662081,-0.103637,-14.455653)"/>
</g>
</g>
<g clip-path="url(#clip9)" clip-rule="nonzero">
<g clip-path="url(#clip10)" clip-rule="nonzero">
<path style=" stroke:none;fill-rule:evenodd;fill:rgb(94.117647%,89.019608%,92.54902%);fill-opacity:1;" d="M 7.0625 11.371094 L 17.089844 11.371094 C 17.632812 11.371094 18.070312 11.949219 18.070312 12.660156 L 18.070312 22.148438 C 18.070312 22.859375 17.632812 23.4375 17.089844 23.4375 L 7.0625 23.4375 C 6.519531 23.4375 6.078125 22.859375 6.078125 22.148438 L 6.078125 12.660156 C 6.078125 11.949219 6.519531 11.371094 7.0625 11.371094 Z M 7.0625 11.371094 "/>
</g>
</g>
<g clip-path="url(#clip11)" clip-rule="nonzero">
<g clip-path="url(#clip12)" clip-rule="nonzero">
<path style="fill:none;stroke-width:0.872399;stroke-linecap:butt;stroke-linejoin:bevel;stroke:rgb(90.196079%,0.784314%,70.588237%);stroke-opacity:1;stroke-miterlimit:4;" d="M 5.212832 15.746189 L 11.041589 15.746189 C 11.35721 15.746189 11.611522 16.082608 11.611522 16.496311 L 11.611522 22.017661 C 11.611522 22.431365 11.35721 22.767783 11.041589 22.767783 L 5.212832 22.767783 C 4.897211 22.767783 4.640628 22.431365 4.640628 22.017661 L 4.640628 16.496311 C 4.640628 16.082608 4.897211 15.746189 5.212832 15.746189 Z M 5.212832 15.746189 " transform="matrix(1.720323,0,0,1.718471,-1.905252,-15.68828)"/>
</g>
</g>
<path style="fill-rule:nonzero;fill:rgb(61.56863%,22.745098%,60.784316%);fill-opacity:1;stroke-width:0.147624;stroke-linecap:round;stroke-linejoin:round;stroke:rgb(61.56863%,22.745098%,60.784316%);stroke-opacity:1;stroke-miterlimit:4;" d="M 3.859013 19.120602 C 3.875793 18.956285 3.997828 18.838473 4.150371 18.838473 C 4.25105 18.838473 4.345627 18.889629 4.397492 18.973337 C 4.449357 18.889629 4.539358 18.838473 4.638511 18.838473 C 4.791055 18.838473 4.914615 18.956285 4.929869 19.120602 C 4.931395 19.128353 4.935971 19.165557 4.920717 19.227563 C 4.897835 19.317473 4.84597 19.399631 4.771224 19.463188 L 4.397492 19.787171 L 4.017658 19.463188 C 3.942912 19.399631 3.891047 19.317473 3.868166 19.227563 C 3.852911 19.165557 3.857488 19.128353 3.859013 19.120602 Z M 3.909352 19.219813 C 3.929183 19.300421 3.976472 19.376379 4.045116 19.435285 L 4.397492 19.732915 L 4.743766 19.435285 C 4.812411 19.374828 4.859699 19.300421 4.87953 19.219813 C 4.894784 19.160906 4.888683 19.126803 4.888683 19.126803 L 4.888683 19.125253 C 4.874954 18.981088 4.769699 18.877227 4.638511 18.877227 C 4.542409 18.877227 4.456984 18.933033 4.417323 19.024492 L 4.397492 19.067897 L 4.379187 19.024492 C 4.338 18.934583 4.249525 18.877227 4.150371 18.877227 C 4.019184 18.877227 3.913929 18.981088 3.9002 19.126803 C 3.9002 19.126803 3.894098 19.160906 3.909352 19.219813 Z M 3.909352 19.219813 " transform="matrix(2.560742,0,0,2.519902,-2.046,-34.326571)"/>
<path style="fill:none;stroke-width:0.590495;stroke-linecap:round;stroke-linejoin:miter;stroke:rgb(90.196079%,0.784314%,70.588237%);stroke-opacity:1;stroke-miterlimit:4;" d="M 3.906301 20.176261 L 7.138702 20.176261 " transform="matrix(2.560742,0,0,2.519902,-2.046,-34.326571)"/>
<path style="fill:none;stroke-width:0.590495;stroke-linecap:round;stroke-linejoin:miter;stroke:rgb(90.196079%,0.784314%,70.588237%);stroke-opacity:1;stroke-miterlimit:4;" d="M 3.894098 21.360583 L 7.124973 21.360583 " transform="matrix(2.560742,0,0,2.519902,-2.046,-34.326571)"/>
<path style="fill-rule:evenodd;fill:rgb(95.294118%,71.764708%,85.09804%);fill-opacity:1;stroke-width:0.295248;stroke-linecap:round;stroke-linejoin:bevel;stroke:rgb(90.196079%,0.784314%,70.588237%);stroke-opacity:1;stroke-miterlimit:4;" d="M 5.373771 15.11344 L 5.382924 15.11344 C 5.448518 15.11344 5.501908 15.176996 5.501908 15.254504 L 5.501908 15.618792 C 5.501908 15.69785 5.448518 15.761406 5.382924 15.761406 L 5.373771 15.761406 C 5.306652 15.761406 5.253262 15.69785 5.253262 15.618792 L 5.253262 15.254504 C 5.253262 15.176996 5.306652 15.11344 5.373771 15.11344 Z M 5.373771 15.11344 " transform="matrix(2.560742,0,0,2.519902,-2.046,-34.326571)"/>
<path style="fill-rule:evenodd;fill:rgb(95.294118%,71.764708%,85.09804%);fill-opacity:1;stroke-width:1;stroke-linecap:butt;stroke-linejoin:round;stroke:rgb(61.56863%,22.745098%,60.784316%);stroke-opacity:1;stroke-miterlimit:4;" d="M 1.510417 1.455729 L 8 6 L 1.570312 10.393229 L 1.510417 7.515625 Z M 1.510417 1.455729 " transform="matrix(1.5,0,0,1.5,0,0)"/>
</g>
</svg>
