<?xml version="1.0" encoding="UTF-8"?>
<svg xmlns="http://www.w3.org/2000/svg" xmlns:xlink="http://www.w3.org/1999/xlink" width="24px" height="24px" viewBox="0 0 24 24" version="1.1">
<g id="surface1">
<path style=" stroke:none;fill-rule:nonzero;fill:rgb(61.56863%,22.745098%,60.784316%);fill-opacity:1;" d="M 4.875 3 C 4.253906 3 3.75 3.503906 3.75 4.125 L 3.75 5.25 C 3.75 5.449219 3.800781 5.640625 3.902344 5.8125 C 3.800781 5.984375 3.75 6.175781 3.75 6.375 L 3.75 9.75 C 3.75 10.371094 4.253906 10.875 4.875 10.875 L 6 10.875 C 6.621094 10.875 7.125 10.371094 7.125 9.75 L 7.125 6.375 C 7.125 6.175781 7.074219 5.984375 6.972656 5.8125 C 7.074219 5.640625 7.125 5.449219 7.125 5.25 L 7.125 4.125 C 7.125 3.503906 6.621094 3 6 3 Z M 4.875 3 "/>
<path style=" stroke:none;fill-rule:nonzero;fill:rgb(95.294118%,71.764708%,85.09804%);fill-opacity:1;" d="M 4.875 4.125 L 4.875 5.25 L 6 5.25 L 6 4.125 Z M 4.875 6.375 L 4.875 9.75 L 6 9.75 L 6 6.375 Z M 4.875 6.375 "/>
<path style=" stroke:none;fill-rule:nonzero;fill:rgb(61.56863%,22.745098%,60.784316%);fill-opacity:1;" d="M 2.625 13.125 C 2.003906 13.125 1.5 13.628906 1.5 14.25 L 1.5 15.375 C 1.5 15.574219 1.550781 15.765625 1.652344 15.9375 C 1.550781 16.109375 1.5 16.300781 1.5 16.5 L 1.5 19.875 C 1.5 20.496094 2.003906 21 2.625 21 L 3.75 21 C 4.371094 21 4.875 20.496094 4.875 19.875 C 4.875 20.496094 5.378906 21 6 21 L 7.125 21 C 7.746094 21 8.25 20.496094 8.25 19.875 L 8.25 16.5 C 8.25 16.300781 8.199219 16.109375 8.097656 15.9375 C 8.199219 15.765625 8.25 15.574219 8.25 15.375 L 8.25 14.25 C 8.25 13.628906 7.746094 13.125 7.125 13.125 L 6 13.125 C 5.378906 13.125 4.875 13.628906 4.875 14.25 C 4.875 13.628906 4.371094 13.125 3.75 13.125 Z M 4.875 15.375 C 4.875 15.574219 4.925781 15.765625 5.027344 15.9375 C 4.925781 16.109375 4.875 16.300781 4.875 16.5 C 4.875 16.300781 4.824219 16.109375 4.722656 15.9375 C 4.824219 15.765625 4.875 15.574219 4.875 15.375 Z M 4.875 15.375 "/>
<path style=" stroke:none;fill-rule:nonzero;fill:rgb(95.294118%,71.764708%,85.09804%);fill-opacity:1;" d="M 2.625 14.25 L 2.625 15.375 L 3.75 15.375 L 3.75 14.25 Z M 6 14.25 L 6 15.375 L 7.125 15.375 L 7.125 14.25 Z M 2.625 16.5 L 2.625 19.875 L 3.75 19.875 L 3.75 16.5 Z M 6 16.5 L 6 19.875 L 7.125 19.875 L 7.125 16.5 Z M 6 16.5 "/>
<path style="fill:none;stroke-width:0.264583;stroke-linecap:round;stroke-linejoin:miter;stroke:rgb(90.196079%,0.784314%,70.588237%);stroke-opacity:1;stroke-miterlimit:4;" d="M 1.984375 0.926042 L 3.836458 0.926042 " transform="matrix(5.669291,0,0,5.669291,0.00000135166,0)"/>
<path style="fill:none;stroke-width:0.264583;stroke-linecap:round;stroke-linejoin:miter;stroke:rgb(90.196079%,0.784314%,70.588237%);stroke-opacity:1;stroke-miterlimit:4;" d="M 1.984375 1.455208 L 3.836458 1.455208 " transform="matrix(5.669291,0,0,5.669291,0.00000135166,0)"/>
<path style="fill:none;stroke-width:0.264583;stroke-linecap:round;stroke-linejoin:miter;stroke:rgb(90.196079%,0.784314%,70.588237%);stroke-opacity:1;stroke-miterlimit:4;" d="M 1.984375 2.778125 L 3.836458 2.778125 " transform="matrix(5.669291,0,0,5.669291,0.00000135166,0)"/>
<path style="fill:none;stroke-width:0.264583;stroke-linecap:round;stroke-linejoin:miter;stroke:rgb(90.196079%,0.784314%,70.588237%);stroke-opacity:1;stroke-miterlimit:4;" d="M 1.984375 3.307292 L 3.836458 3.307292 " transform="matrix(5.669291,0,0,5.669291,0.00000135166,0)"/>
</g>
</svg>
