<?xml version="1.0" encoding="UTF-8"?>
<svg xmlns="http://www.w3.org/2000/svg" xmlns:xlink="http://www.w3.org/1999/xlink" width="24px" height="24px" viewBox="0 0 24 24" version="1.1">
<g id="surface1">
<path style=" stroke:none;fill-rule:nonzero;fill:rgb(33.333334%,34.117648%,32.549021%);fill-opacity:1;" d="M 9 21 C 8.535156 21 8.171875 20.863281 7.875 20.578125 L 3 16.3125 L 3 13.753906 C 4.625 12.316406 6.25 10.652344 7.875 9.421875 C 8.171875 9.136719 8.535156 9 9 9 L 10.5 9 L 10.5 10.5 C 10.5 10.886719 10.304688 11.292969 10.03125 11.578125 L 7.765625 13.5 L 15 13.5 C 16.65625 13.5 18 12.15625 18 10.5 C 18 8.84375 16.65625 7.5 15 7.5 L 13.5 7.5 L 13.5 4.5 L 15 4.5 C 18.3125 4.5 21 7.1875 21 10.5 C 21 13.8125 18.3125 16.5 15 16.5 L 7.765625 16.5 L 10.03125 18.421875 C 10.304688 18.707031 10.5 19.113281 10.5 19.5 L 10.5 21 Z M 9 21 "/>
</g>
</svg>
