<?xml version="1.0" encoding="UTF-8" standalone="no"?>
<svg
   xmlns:dc="http://purl.org/dc/elements/1.1/"
   xmlns:cc="http://creativecommons.org/ns#"
   xmlns:rdf="http://www.w3.org/1999/02/22-rdf-syntax-ns#"
   xmlns:svg="http://www.w3.org/2000/svg"
   xmlns="http://www.w3.org/2000/svg"
   xmlns:xlink="http://www.w3.org/1999/xlink"
   xmlns:sodipodi="http://sodipodi.sourceforge.net/DTD/sodipodi-0.dtd"
   xmlns:inkscape="http://www.inkscape.org/namespaces/inkscape"
   height="24"
   viewBox="0 0 24 24"
   width="24"
   version="1.1"
   id="svg177"
   sodipodi:docname="lc_refreshformcontrol.svg"
   inkscape:version="0.92.4 (unknown)"
   inkscape:export-filename="/home/annisaauliarasyidah/Desktop/4_242 (aulia)/lc done/lc/lc_refreshformcontrol.png"
   inkscape:export-xdpi="96"
   inkscape:export-ydpi="96">
  <metadata
     id="metadata183">
    <rdf:RDF>
      <cc:Work
         rdf:about="">
        <dc:format>image/svg+xml</dc:format>
        <dc:type
           rdf:resource="http://purl.org/dc/dcmitype/StillImage" />
        <dc:title></dc:title>
      </cc:Work>
    </rdf:RDF>
  </metadata>
  <defs
     id="defs181" />
  <sodipodi:namedview
     pagecolor="#ffffff"
     bordercolor="#666666"
     borderopacity="1"
     objecttolerance="10"
     gridtolerance="10"
     guidetolerance="10"
     inkscape:pageopacity="0"
     inkscape:pageshadow="2"
     inkscape:window-width="1366"
     inkscape:window-height="707"
     id="namedview179"
     showgrid="true"
     inkscape:snap-global="false"
     inkscape:zoom="8.0375975"
     inkscape:cx="-4.6292248"
     inkscape:cy="10.942084"
     inkscape:window-x="0"
     inkscape:window-y="0"
     inkscape:window-maximized="1"
     inkscape:current-layer="svg177">
    <inkscape:grid
       type="xygrid"
       id="grid1071" />
  </sodipodi:namedview>
  <filter
     id="a"
     height="1.120005"
     width="1.120005"
     x="-0.060001999"
     y="-0.060001999"
     style="color-interpolation-filters:sRGB">
    <feGaussianBlur
       stdDeviation=".13557429"
       id="feGaussianBlur2" />
  </filter>
  <filter
     id="b"
     height="1.048"
     width="1.048"
     x="-0.024"
     y="-0.024"
     style="color-interpolation-filters:sRGB">
    <feGaussianBlur
       stdDeviation=".054227538"
       id="feGaussianBlur5" />
  </filter>
  <linearGradient
     id="c"
     gradientUnits="userSpaceOnUse"
     x1="3.4465449"
     x2="3.4274769"
     y1="-1.550397"
     y2="3.3861849"
     gradientTransform="matrix(1.523396,0,0,1.523396,-0.04743175,9.395567)">
    <stop
       offset="0"
       stop-color="#f0efef"
       id="stop8" />
    <stop
       offset="1"
       stop-color="#ecebeb"
       id="stop10" />
  </linearGradient>
  <linearGradient
     id="d"
     gradientUnits="userSpaceOnUse"
     x1="8.2547054"
     x2="7.962378"
     xlink:href="#e"
     y1="1.257542"
     y2="15.051746"
     gradientTransform="matrix(0.60459477,0,0,0.60459477,-0.05827681,6.4297694)" />
  <linearGradient
     id="e">
    <stop
       offset="0"
       stop-color="#fff"
       id="stop14" />
    <stop
       offset="1"
       stop-color="#fff"
       stop-opacity="0"
       id="stop16" />
  </linearGradient>
  <linearGradient
     id="f"
     xlink:href="#e" />
  <linearGradient
     id="g"
     gradientUnits="userSpaceOnUse"
     x1="3.1998739"
     x2="3.2063041"
     xlink:href="#e"
     y1="2.6957901"
     y2="-0.204265"
     gradientTransform="matrix(1.523396,0,0,1.523396,-0.04743175,9.395567)" />
  <radialGradient
     id="h"
     cx="3.2097299"
     cy="1.709581"
     gradientUnits="userSpaceOnUse"
     r="1.1465009"
     gradientTransform="matrix(1.523396,0,0,1.523396,-0.04743175,9.395567)">
    <stop
       offset="0"
       stop-color="#666"
       id="stop21" />
    <stop
       offset="1"
       stop-color="#232323"
       stop-opacity=".9375"
       id="stop23" />
  </radialGradient>
  <linearGradient
     id="i"
     gradientTransform="rotate(90,65.170062,65.407638)"
     gradientUnits="userSpaceOnUse"
     x1="26.221916"
     x2="96.5784"
     y1="59.536545"
     y2="57.715343">
    <stop
       offset="0"
       stop-color="#fff"
       id="stop26" />
    <stop
       offset="1"
       stop-color="#bbb"
       id="stop28" />
  </linearGradient>
  <filter
     id="j"
     height="1.011497"
     width="1.00824"
     x="-0.0041200002"
     y="-0.005748"
     style="color-interpolation-filters:sRGB">
    <feGaussianBlur
       stdDeviation=".13885547"
       id="feGaussianBlur31" />
  </filter>
  <linearGradient
     id="k"
     gradientTransform="matrix(0.09200795,0,0,0.09273604,3.5877807,-2.775651)"
     gradientUnits="userSpaceOnUse"
     x1="72.618614"
     x2="73.819366"
     y1="101.35709"
     y2="47.875233">
    <stop
       offset="0"
       stop-color="#b3b3b7"
       id="stop34" />
    <stop
       offset="1"
       stop-color="#e5e5e5"
       stop-opacity=".996078"
       id="stop36" />
  </linearGradient>
  <filter
     id="l"
     height="1.104996"
     width="1.0547841"
     x="-0.027392"
     y="-0.052498002"
     style="color-interpolation-filters:sRGB">
    <feGaussianBlur
       stdDeviation=".668475"
       id="feGaussianBlur39" />
  </filter>
  <clipPath
     id="m">
    <path
       d="m 2.7874267,294.08995 c -0.6536123,-0.004 -1.2297545,0.42813 -1.4086995,1.05678 -0.1898565,0.66692 0.1172257,1.37515 0.7338053,1.6924 0.4171572,0.21458 0.8956189,0.20527 1.2965618,0.0119 l -0.5896282,-0.91106 a 0.396875,0.396875 0 0 1 -0.2227254,-0.0419 0.396875,0.396875 0 0 1 -0.2005046,-0.46147 0.396875,0.396875 0 0 1 0.4134116,-0.28732 0.396875,0.396875 0 0 1 0.1834513,0.063 l -0.2413289,0.24133 a 0.13030278,0.13030278 0 0 0 0.091984,0.22273 h 1.2578043 a 0.13030278,0.13030278 0 0 0 0.1307415,-0.13126 v -1.25781 a 0.13030278,0.13030278 0 0 0 -0.1348756,-0.13074 0.13030278,0.13030278 0 0 0 -0.08785,0.0393 l -0.2640666,0.26406 c -0.236479,-0.21133 -0.5355238,-0.33962 -0.8516276,-0.36535 -0.035416,-0.003 -0.070924,-0.004 -0.1064535,-0.005 z"
       id="path42"
       inkscape:connector-curvature="0" />
  </clipPath>
  <linearGradient
     id="n"
     gradientTransform="matrix(0.0789558,0,0,0.07841556,27.361627,7.365724)"
     gradientUnits="userSpaceOnUse"
     x1="17"
     x2="17"
     y1="8"
     y2="17">
    <stop
       offset="0"
       stop-color="#00008c"
       id="stop45" />
    <stop
       offset=".3553"
       stop-color="#1c1cac"
       id="stop47" />
    <stop
       offset=".6194"
       stop-color="#080895"
       id="stop49" />
    <stop
       offset=".7574"
       stop-color="#00008c"
       id="stop51" />
    <stop
       offset="1"
       stop-color="#00004d"
       id="stop53" />
  </linearGradient>
  <radialGradient
     id="o"
     cx="10.000115"
     cy="14.246079"
     gradientTransform="matrix(1,-5e-8,8e-8,1.8331696,-1.16e-4,-11.865479)"
     gradientUnits="userSpaceOnUse"
     r="4.500402">
    <stop
       offset="0"
       stop-color="#5757ff"
       id="stop56" />
    <stop
       offset=".3553"
       stop-color="#223fd1"
       id="stop58" />
    <stop
       offset=".6194"
       stop-color="#0f1af2"
       id="stop60" />
    <stop
       offset=".7574"
       stop-color="#0000cf"
       id="stop62" />
    <stop
       offset="1"
       stop-color="#00008e"
       id="stop64" />
  </radialGradient>
  <radialGradient
     id="p"
     cx="6"
     cy="9.9999723"
     gradientTransform="matrix(0.44440479,0,0,0.9999445,3.333571,5.83e-4)"
     gradientUnits="userSpaceOnUse"
     r="4.500402"
     xlink:href="#q" />
  <linearGradient
     id="q">
    <stop
       offset="0"
       id="stop68" />
    <stop
       offset="1"
       stop-opacity="0"
       id="stop70" />
  </linearGradient>
  <radialGradient
     id="r"
     cx="10.499598"
     cy="10.500055"
     gradientTransform="matrix(1,0,0,0.9999445,0,5.83e-4)"
     gradientUnits="userSpaceOnUse"
     r="4.500402"
     xlink:href="#q" />
  <radialGradient
     id="s"
     cx="13"
     cy="9.9999723"
     gradientTransform="matrix(0.70266574,6e-8,-5e-8,0.66660712,3.865346,3.333947)"
     gradientUnits="userSpaceOnUse"
     r="4.500402">
    <stop
       offset="0"
       stop-color="#00f"
       id="stop74" />
    <stop
       offset="1"
       stop-color="#00004d"
       stop-opacity="0"
       id="stop76" />
  </radialGradient>
  <radialGradient
     id="t"
     cx="10.25"
     cy="13.250153"
     gradientTransform="matrix(1,0,0,0.9999445,0,5.83e-4)"
     gradientUnits="userSpaceOnUse"
     r="4.500402">
    <stop
       offset="0"
       stop-color="#2c41be"
       id="stop79" />
    <stop
       offset="1"
       stop-color="#2c41be"
       stop-opacity="0"
       id="stop81" />
  </radialGradient>
  <linearGradient
     id="u"
     gradientUnits="userSpaceOnUse"
     x1="17.443756"
     x2="17.524389"
     y1="5.9243131"
     y2="6.6500101">
    <stop
       offset="0"
       stop-color="#bfbfff"
       id="stop84" />
    <stop
       offset="1"
       stop-color="#bfbfff"
       stop-opacity="0"
       id="stop86" />
  </linearGradient>
  <radialGradient
     id="v"
     cx="10.720569"
     cy="6.3897691"
     gradientTransform="matrix(0.45075749,0.01596601,-0.01621215,0.45770648,5.991784,3.294194)"
     gradientUnits="userSpaceOnUse"
     r="4.500402"
     xlink:href="#e" />
  <filter
     id="w"
     height="1.036001"
     width="1.0359989"
     x="-0.017999999"
     y="-0.017999999"
     style="color-interpolation-filters:sRGB">
    <feGaussianBlur
       stdDeviation=".067504158"
       id="feGaussianBlur90" />
  </filter>
  <mask
     id="x"
     maskUnits="userSpaceOnUse">
    <path
       d="m 2.778125,295.8755 0.1286275,-0.17268 0.7974142,0.0404 0.8837099,-0.0464 c 0,0 -0.8750292,1.075 -0.9068935,1.13463 -0.031864,0.0596 -0.1752539,0.16856 -0.1752539,0.16856 z"
       id="path93"
       inkscape:connector-curvature="0"
       style="fill:url(#y);fill-rule:evenodd;stroke-width:0.120238" />
  </mask>
  <linearGradient
     id="y"
     gradientTransform="matrix(-0.1202386,-0.01552063,0,0.1202386,50.206103,228.09465)"
     gradientUnits="userSpaceOnUse"
     x1="391.14813"
     x2="385.39752"
     y1="618.61072"
     y2="613.20654">
    <stop
       offset="0"
       stop-color="#fff"
       id="stop96" />
    <stop
       offset="1"
       stop-opacity="0"
       id="stop98" />
  </linearGradient>
  <g
     id="g900"
     transform="matrix(1.5508562,0,0,1.5030889,-0.84843357,2.8219326e-7)"
     style="stroke-width:0.65497077">
    <path
       d="m 4.5051742,-4e-8 v 0.004989 H 4.188111 C 3.7577541,0.00498896 3,0.38711903 3,0.86167067 V 7.1384985 C 3,7.613052 3.7577541,7.995009 4.188111,7.995009 H 4.5051743 V 8 H 9.5001026 14.494825 V 7.99501 h 0.317064 C 15.242245,7.99501 16,7.613053 16,7.1384992 V 0.86167008 C 16,0.38711863 15.242245,0.00498846 14.811889,0.00498846 H 14.494825 V 4.6e-7 H 9.5001026 Z"
       id="path101"
       inkscape:connector-curvature="0"
       style="fill:#e602b4;fill-opacity:0.99586098;stroke-width:0.08187135" />
    <path
       d="m 5.0778779,1.0000894 v 0.00378 H 4.8176681 c -0.3531558,-4e-7 -0.8214225,0.2875917 -0.8214225,0.6448534 v 4.7254387 c 0,0.357263 0.4682666,0.644855 0.8214225,0.644855 h 0.2602098 v 0.00378 h 4.2201459 0.032167 4.5881772 v -0.00378 h 0.260211 C 14.531734,7.0190164 15,6.7314245 15,6.3741614 V 1.6487245 C 15,1.2914626 14.531734,1.0038707 14.178579,1.0038707 h -0.260211 v -0.00378 H 9.3301906 9.2980238 Z"
       id="path103"
       style="fill:#f3b7d9;stroke-width:0.08187135"
       inkscape:connector-curvature="0" />
    <path
       d="m 16.195312,22.822266 c -0.105581,1.2e-5 -0.21046,0.01716 -0.310546,0.05078 h -2.517578 c -2.246364,0 -4.6422827,1.070615 -6.5527349,2.777344 -1.9104522,1.706728 -3.3496094,4.11354 -3.3496093,6.857421 V 95.96875 c 0,2.743882 1.4391572,5.15069 3.3496093,6.85742 1.9104521,1.70673 4.3063709,2.77735 6.5527349,2.77735 h 2.517578 c 0.100085,0.0336 0.204964,0.0508 0.310546,0.0508 H 66.0625 66.642578 112.2793 c 0.10558,-2e-5 0.21046,-0.0172 0.31054,-0.0508 h 2.51758 c 2.24637,0 4.64228,-1.07062 6.55274,-2.77735 1.91045,-1.70673 3.34961,-4.113541 3.34961,-6.85742 V 32.507812 c 0,-2.743882 -1.43916,-5.150693 -3.34961,-6.857421 -1.91046,-1.706729 -4.30638,-2.777344 -6.55274,-2.777344 h -2.51758 c -0.10008,-0.03362 -0.20496,-0.05077 -0.31054,-0.05078 H 66.642578 66.0625 Z m 4.552201,9.396938 44.95336,0.288609 h 0.580078 41.256789 c 0.0966,0.03106 0.19739,0.04688 0.29883,0.04687 h 2.73046 c 1.53667,0 1.49189,0.802137 3.04038,2.123046 1.54849,1.32091 2.58478,3.094212 2.61133,4.964844 l 0.70564,49.712112 c 0.0266,1.870631 -1.06284,3.643934 -2.61133,4.964843 -1.54849,1.320901 -1.50371,2.123051 -3.04038,2.123051 h -2.73046 c -0.10351,1e-6 -0.20636,0.01647 -0.30469,0.0488 H 66.986585 66.406507 L 21.457054,96.20277 c -0.09833,-0.03233 -0.201179,-0.0488 -0.304688,-0.0488 h -2.730469 c -1.536659,0 -1.949183,-0.905499 -3.497674,-2.22641 -1.54849,-1.320904 -2.584775,-3.094207 -2.611328,-4.964838 L 11.607261,39.25061 c -0.02655,-1.87063 1.062837,-3.643934 2.611329,-4.964844 1.54849,-1.320909 1.961014,-2.019687 3.497673,-2.019687 h 2.730469 c 0.102096,2.11e-4 0.203591,-0.01561 0.300781,-0.04687 z"
       transform="matrix(0.08977841,0,0,0.07228163,3.740426,-0.64963075)"
       id="path105"
       style="fill:#f0e3ec;stroke-width:0.65497077;filter:url(#j)"
       inkscape:connector-curvature="0" />
    <g
       transform="scale(0.12322941,0.12679602)"
       id="g117"
       style="fill:#9d3a9b;fill-opacity:0.99607801;stroke-width:0.72872239">
      <path
         style="fill:#9d3a9b;stroke-width:0.72872239"
         d="m 50.112385,44.493649 q -4.272395,-4.76194 -4.272395,-12.238631 0,-7.476691 4.272395,-12.238631 4.316899,-4.76194 11.304045,-4.76194 7.031649,0 11.348548,4.76194 4.316899,4.717436 4.316899,12.461152 0,7.209666 -4.272395,12.01611 -4.22789,4.76194 -11.348548,4.76194 -7.076154,0 -11.348549,-4.76194 z M 61.460934,20.950974 q -4.049874,0 -6.497601,3.115288 -2.447726,3.070783 -2.447726,8.188756 0,5.117973 2.447726,8.233261 2.447727,3.070784 6.497601,3.070784 4.00537,0 6.453096,-3.070784 2.49223,-3.070784 2.49223,-8.055244 0,-5.251485 -2.447726,-8.366773 -2.403222,-3.115288 -6.4976,-3.115288 z"
         id="path113"
         inkscape:connector-curvature="0" />
      <path
         style="fill:#9d3a9b;stroke-width:0.72872239"
         d="M 89.064609,37.372991 V 48.231995 H 82.388992 V 15.788497 h 6.675617 V 30.029813 L 101.74828,15.788497 h 7.87723 L 96.674812,29.762788 111.00514,48.231995 H 103.0389 L 92.402417,33.90167 Z"
         id="path115"
         inkscape:connector-curvature="0" />
    </g>
    <path
       inkscape:connector-curvature="0"
       style="fill:#f0e3ec;stroke-width:0.21843095"
       id="path123"
       d="M 9.009427,11.266528 A 4.2311763,4.2311763 0 0 1 4.7782505,15.497704 4.2311763,4.2311763 0 0 1 0.54707427,11.266528 4.2311763,4.2311763 0 0 1 4.7782505,7.0353516 4.2311763,4.2311763 0 0 1 9.009427,11.266528 Z" />
    <path
       inkscape:connector-curvature="0"
       style="fill:#f3b7d9;stroke-width:0.21843068"
       id="path125"
       d="m 4.7879281,7.035545 c -2.3368144,-3e-7 -4.23098269,1.894168 -4.23098251,4.230983 -2.4e-7,2.336814 1.89416811,4.230982 4.23098251,4.230982 2.3368145,0 4.2309827,-1.894168 4.2309827,-4.230982 0,-2.336815 -1.8941682,-4.2309833 -4.2309827,-4.230983 z m -0.00945,0.6034139 A 3.6275687,3.6275687 0 0 1 8.40605,11.266528 3.6275687,3.6275687 0 0 1 4.7784813,14.894096 3.6275687,3.6275687 0 0 1 1.1509127,11.266528 3.6275687,3.6275687 0 0 1 4.7784813,7.6389589 Z" />
    <path
       inkscape:connector-curvature="0"
       style="fill:#9d3a9b;stroke-width:0.20645061"
       id="path127"
       d="M 7.0012892,11.266528 A 2.2228074,2.2228074 0 0 1 4.7784819,13.489335 2.2228074,2.2228074 0 0 1 2.5556745,11.266528 2.2228074,2.2228074 0 0 1 4.7784819,9.0437206 2.2228074,2.2228074 0 0 1 7.0012892,11.266528 Z" />
    <path
       inkscape:connector-curvature="0"
       style="fill:#9d3a9b;stroke-width:0.16221905"
       id="path129"
       d="M 6.5250574,11.266528 A 1.7465755,1.7465755 0 0 1 4.7784819,13.013103 1.7465755,1.7465755 0 0 1 3.0319064,11.266528 1.7465755,1.7465755 0 0 1 4.7784819,9.5199524 1.7465755,1.7465755 0 0 1 6.5250574,11.266528 Z" />
    <g
       transform="matrix(0.71382158,0,0,0.71352635,4.385841,2.2619383)"
       id="g1069"
       style="stroke-width:0.65497077">
      <path
         d="m 8.8029914,4.2076727 c -4.140649,0 -7.5,3.3593506 -7.5,7.5000003 0,4.140649 3.3593513,7.5 7.5,7.5 3.7861396,0 6.9170756,-2.777034 7.4257806,-6.417969 l -4.378906,-0.628906 c -0.203085,1.495141 -1.491259,2.621094 -3.0468746,2.621094 -1.6964535,0 -3.0742188,-1.377765 -3.0742188,-3.074219 2e-7,-1.696455 1.3777649,-3.0742191 3.0742188,-3.0742191 0.8482273,-10e-8 1.6151616,0.3456306 2.1718746,0.9023438 L 9.683969,10.826695 c -0.2569837,0.256984 -0.2804656,0.413223 -0.209951,0.576941 0.063571,0.147598 0.1900915,0.315755 0.526216,0.315755 h 5.494163 c 0.480738,0 0.807374,-0.331797 0.807374,-0.781266 l -0.0086,-5.5097522 c 0,-0.3100944 -0.112814,-0.4804036 -0.272684,-0.5437018 -0.16429,-0.065048 -0.379151,-0.015335 -0.638386,0.2438999 L 14.10768,6.4029852 C 12.75026,5.0455663 10.873316,4.2076727 8.8029914,4.2076727 Z"
         id="path122"
         style="opacity:1;fill:#9d3a9b;stroke-width:0.08187135"
         inkscape:connector-curvature="0" />
      <path
         d="m 8.8023809,4.707666 c -3.8702117,0 -6.9999993,3.129789 -6.9999993,6.999987 0,3.870237 3.1297876,7.000026 6.9999993,7.000026 3.3666121,0 6.1402151,-2.350866 6.8164051,-5.500007 l -3.390624,-0.484384 c -0.42982,1.487169 -1.805047,2.55859 -3.4257811,2.55859 -1.9671681,0 -3.5742184,-1.607056 -3.5742184,-3.574225 0,-1.967168 1.6070499,-3.5742232 3.5742184,-3.5742232 0.9840521,0 1.8814441,0.4010079 2.5273441,1.0468913 0.09493,0.09411 0.148437,0.2218584 0.148437,0.3552756 0,0.1334174 -0.05351,0.2615432 -0.148437,0.3556536 L 10.0016,11.219376 h 5.492186 c 0.250674,0 0.308595,-0.07408 0.308595,-0.281197 l -0.01173,-5.5117226 -1.328125,1.3320191 c -0.09393,0.094866 -0.221923,0.1485354 -0.355469,0.1485354 -0.133546,0 -0.261544,-0.053669 -0.355469,-0.1485354 C 12.484391,5.4912754 10.7378,4.7077039 8.8023804,4.7077039 Z"
         id="path128"
         style="fill:#f3b7d9;stroke-width:0.08187135"
         inkscape:connector-curvature="0" />
    </g>
  </g>
</svg>
