<?xml version="1.0" encoding="UTF-8" standalone="no"?>
<svg
   xmlns:dc="http://purl.org/dc/elements/1.1/"
   xmlns:cc="http://creativecommons.org/ns#"
   xmlns:rdf="http://www.w3.org/1999/02/22-rdf-syntax-ns#"
   xmlns:svg="http://www.w3.org/2000/svg"
   xmlns="http://www.w3.org/2000/svg"
   xmlns:xlink="http://www.w3.org/1999/xlink"
   xmlns:sodipodi="http://sodipodi.sourceforge.net/DTD/sodipodi-0.dtd"
   xmlns:inkscape="http://www.inkscape.org/namespaces/inkscape"
   enable-background="new 0 0 128 128"
   height="24"
   viewBox="0 0 24 24"
   width="24"
   version="1.1"
   id="svg160"
   sodipodi:docname="lc_recentfilelist.svg"
   inkscape:version="0.92.4 (unknown)"
   inkscape:export-filename="/home/annisaauliarasyidah/Desktop/4_242 (aulia)/lc 222/lc_recentfilelist.png"
   inkscape:export-xdpi="96"
   inkscape:export-ydpi="96">
  <metadata
     id="metadata166">
    <rdf:RDF>
      <cc:Work
         rdf:about="">
        <dc:format>image/svg+xml</dc:format>
        <dc:type
           rdf:resource="http://purl.org/dc/dcmitype/StillImage" />
        <dc:title></dc:title>
      </cc:Work>
    </rdf:RDF>
  </metadata>
  <defs
     id="defs164">
    <linearGradient
       inkscape:collect="always"
       xlink:href="#H"
       id="linearGradient975"
       gradientUnits="userSpaceOnUse"
       x1="60.771305"
       y1="15.0625"
       x2="88.066513"
       y2="15.0625"
       spreadMethod="reflect" />
    <linearGradient
       inkscape:collect="always"
       xlink:href="#H"
       id="linearGradient977"
       gradientUnits="userSpaceOnUse"
       x1="60.771305"
       y1="15.0625"
       x2="88.066513"
       y2="15.0625"
       spreadMethod="reflect" />
    <linearGradient
       inkscape:collect="always"
       xlink:href="#H"
       id="linearGradient979"
       gradientUnits="userSpaceOnUse"
       x1="60.771305"
       y1="15.0625"
       x2="88.066513"
       y2="15.0625"
       spreadMethod="reflect" />
  </defs>
  <sodipodi:namedview
     pagecolor="#ffffff"
     bordercolor="#666666"
     borderopacity="1"
     objecttolerance="10"
     gridtolerance="10"
     guidetolerance="10"
     inkscape:pageopacity="0"
     inkscape:pageshadow="2"
     inkscape:window-width="1366"
     inkscape:window-height="707"
     id="namedview162"
     showgrid="true"
     inkscape:snap-global="false"
     inkscape:zoom="24.065816"
     inkscape:cx="8.5944906"
     inkscape:cy="7.7200656"
     inkscape:window-x="0"
     inkscape:window-y="0"
     inkscape:window-maximized="1"
     inkscape:current-layer="svg160">
    <inkscape:grid
       type="xygrid"
       id="grid1083" />
  </sodipodi:namedview>
  <radialGradient
     id="a"
     cx="48"
     cy="-0.2148"
     gradientTransform="matrix(0.9792,0,0,0.9725,133.0002,20.8762)"
     gradientUnits="userSpaceOnUse"
     r="55.147999">
    <stop
       offset="0"
       stop-color="#909975"
       id="stop2" />
    <stop
       offset="1"
       stop-color="#f2eee5"
       id="stop4" />
  </radialGradient>
  <radialGradient
     id="b"
     cx="56"
     cy="0"
     fx="44.494534"
     fy="-6.2420459"
     gradientTransform="matrix(0.09282229,0,0,0.003514,2.6411115,14.244701)"
     gradientUnits="userSpaceOnUse"
     r="32"
     xlink:href="#I" />
  <radialGradient
     id="c"
     cx="56"
     cy="0"
     fx="44.494534"
     fy="-6.2420459"
     gradientTransform="matrix(0.17829679,0,0,0.00376468,-2.0957292,15.195224)"
     gradientUnits="userSpaceOnUse"
     r="32"
     xlink:href="#I" />
  <radialGradient
     id="d"
     cx="56"
     cy="0"
     fx="44.494534"
     fy="-6.2420459"
     gradientTransform="matrix(0.17829679,0,0,0.00376468,-2.0957292,0.25660559)"
     gradientUnits="userSpaceOnUse"
     r="32"
     xlink:href="#I" />
  <filter
     id="e">
    <feGaussianBlur
       stdDeviation=".95374318"
       id="feGaussianBlur10" />
  </filter>
  <linearGradient
     id="f"
     gradientTransform="matrix(0.11884487,0,0,0.10962,-17.513905,1.9214323)"
     gradientUnits="userSpaceOnUse"
     spreadMethod="reflect"
     x1="193.78946"
     x2="215.63715"
     xlink:href="#a"
     y1="59.78125"
     y2="59.78125" />
  <filter
     id="g">
    <feGaussianBlur
       stdDeviation=".26380028"
       id="feGaussianBlur14" />
  </filter>
  <linearGradient
     id="h"
     gradientUnits="userSpaceOnUse"
     spreadMethod="reflect"
     x1="60.771305"
     x2="88.066513"
     xlink:href="#H"
     y1="15.0625"
     y2="15.0625" />
  <filter
     id="i">
    <feGaussianBlur
       stdDeviation=".13790379"
       id="feGaussianBlur18" />
  </filter>
  <filter
     id="j">
    <feGaussianBlur
       stdDeviation=".22076896"
       id="feGaussianBlur21" />
  </filter>
  <linearGradient
     id="k"
     gradientUnits="userSpaceOnUse"
     x1="76.396194"
     x2="76.396194"
     y1="6.6136651"
     y2="12.073788"
     gradientTransform="matrix(0.13541666,0,0,0.12490547,-2.8411455,0.32377663)">
    <stop
       offset="0"
       stop-color="#121212"
       id="stop24" />
    <stop
       offset="1"
       stop-color="#121212"
       stop-opacity="0"
       id="stop26" />
  </linearGradient>
  <filter
     id="l"
     height="2.874157"
     width="1.069931"
     x="-0.034965999"
     y="-0.93707901">
    <feGaussianBlur
       stdDeviation="1.5251931"
       id="feGaussianBlur29" />
  </filter>
  <filter
     id="m"
     height="1.038888"
     width="1.476681"
     x="-0.238341"
     y="-0.019444">
    <feGaussianBlur
       stdDeviation=".80688202"
       id="feGaussianBlur32" />
  </filter>
  <linearGradient
     id="n"
     gradientUnits="userSpaceOnUse"
     x1="81.203133"
     x2="89.328133"
     y1="59.484375"
     y2="59.484375">
    <stop
       offset="0"
       stop-color="#ffea00"
       id="stop35" />
    <stop
       offset="1"
       stop-color="#ffa000"
       id="stop37" />
  </linearGradient>
  <linearGradient
     id="o"
     gradientUnits="userSpaceOnUse"
     x1="58.260361"
     x2="85.414948"
     y1="59.484375"
     y2="59.484375"
     gradientTransform="matrix(0.13541666,0,0,0.12490547,-2.8411455,0.32377663)">
    <stop
       offset="0"
       stop-color="#b8b8b8"
       id="stop40" />
    <stop
       offset="1"
       stop-color="#fff"
       id="stop42" />
  </linearGradient>
  <linearGradient
     id="p"
     gradientUnits="userSpaceOnUse"
     x1="75.181839"
     x2="94.807861"
     xlink:href="#I"
     y1="52.591824"
     y2="52.591824" />
  <linearGradient
     id="q"
     gradientUnits="userSpaceOnUse"
     x1="62.29121"
     x2="91.197456"
     xlink:href="#I"
     y1="9.2500019"
     y2="34.250004" />
  <linearGradient
     id="r"
     gradientUnits="userSpaceOnUse"
     x1="66.270866"
     x2="76.214569"
     xlink:href="#I"
     y1="74.828888"
     y2="80.629372" />
  <radialGradient
     id="s"
     cx="200.92145"
     cy="64.46875"
     gradientTransform="matrix(1.8977981,1.3e-7,-1.9e-7,2.6389461,-162.99627,-106.25459)"
     gradientUnits="userSpaceOnUse"
     r="26.975731"
     xlink:href="#H" />
  <radialGradient
     id="t"
     cx="238.03082"
     cy="59.78125"
     gradientTransform="matrix(1.2828719,0,0,2.8333783,-87.050985,-105.5079)"
     gradientUnits="userSpaceOnUse"
     r="23.475731"
     xlink:href="#H" />
  <radialGradient
     id="u"
     cx="180.99957"
     cy="59.78125"
     gradientTransform="matrix(0.7071068,0.7071068,-2.0618473,2.0618473,213.58585,-187.37083)"
     gradientUnits="userSpaceOnUse"
     r="22.225731"
     xlink:href="#H" />
  <filter
     id="v">
    <feGaussianBlur
       stdDeviation=".27751822"
       id="feGaussianBlur51" />
  </filter>
  <clipPath
     id="w">
    <path
       d="m 218.31207,14.09375 c -12.13385,0 -21.97573,5.551865 -21.97573,19.78125 0,10.519613 15.38416,18.942738 18.25484,29.65625 -2.35132,8.775261 -18.25484,19.342255 -18.25484,30 0,14.42236 9.84188,20.125 21.97573,20.125 12.13386,0 21.97573,-5.70264 21.97573,-20.125 -1e-5,-10.657746 -15.66945,-20.351198 -18.25484,-30 2.836,-10.584104 18.25483,-19.136637 18.25484,-29.65625 0,-14.229386 -9.84187,-19.78125 -21.97573,-19.78125 z"
       id="path54"
       inkscape:connector-curvature="0" />
  </clipPath>
  <filter
     id="x">
    <feGaussianBlur
       stdDeviation=".40593809"
       id="feGaussianBlur57" />
  </filter>
  <filter
     id="y">
    <feGaussianBlur
       stdDeviation="1.1199548"
       id="feGaussianBlur60" />
  </filter>
  <filter
     id="z"
     height="1.100613"
     width="1.204321"
     x="-0.10216"
     y="-0.050306998">
    <feGaussianBlur
       stdDeviation="2.2965444"
       id="feGaussianBlur63" />
  </filter>
  <linearGradient
     id="A"
     gradientTransform="matrix(0.06250004,0,0,0.06250006,3.9921866,-4.5101098)"
     gradientUnits="userSpaceOnUse"
     spreadMethod="reflect"
     x1="48"
     x2="112"
     xlink:href="#G"
     y1="112"
     y2="112" />
  <linearGradient
     id="B"
     gradientTransform="matrix(0.06368719,0,0,0.07337862,3.8643279,5.6918581)"
     gradientUnits="userSpaceOnUse"
     spreadMethod="reflect"
     x1="48"
     x2="112"
     xlink:href="#G"
     y1="112"
     y2="112" />
  <linearGradient
     id="C"
     gradientTransform="matrix(0.12500006,0,0,0.14772735,8.992188,-1.040408)"
     gradientUnits="userSpaceOnUse"
     spreadMethod="reflect"
     x1="26.204611"
     x2="32"
     xlink:href="#G"
     y1="60"
     y2="60" />
  <linearGradient
     id="D"
     gradientTransform="matrix(0.12500006,0,0,0.14772735,-0.00781604,-1.040408)"
     gradientUnits="userSpaceOnUse"
     spreadMethod="reflect"
     x1="25.687912"
     x2="32"
     xlink:href="#G"
     y1="60"
     y2="60" />
  <linearGradient
     id="E"
     gradientTransform="matrix(0.12500006,0,0,0.06249999,-0.00781604,-6.1767707)"
     gradientUnits="userSpaceOnUse"
     spreadMethod="reflect"
     x1="48"
     x2="112"
     xlink:href="#G"
     y1="112"
     y2="112" />
  <linearGradient
     id="F"
     gradientTransform="matrix(0.12500006,0,0,0.06250006,-0.00781604,7.8232295)"
     gradientUnits="userSpaceOnUse"
     spreadMethod="reflect"
     x1="48"
     x2="112"
     xlink:href="#G"
     y1="112"
     y2="112" />
  <linearGradient
     id="G">
    <stop
       offset="0"
       stop-color="#4e4a54"
       id="stop72" />
    <stop
       offset=".10221675"
       stop-color="#3f3c44"
       id="stop74" />
    <stop
       offset=".2044335"
       stop-color="#312e34"
       id="stop76" />
    <stop
       offset=".408867"
       stop-color="#141215"
       id="stop78" />
    <stop
       offset="1"
       id="stop80" />
  </linearGradient>
  <linearGradient
     id="H">
    <stop
       offset="0"
       id="stop83" />
    <stop
       offset="1"
       stop-opacity="0"
       id="stop85" />
  </linearGradient>
  <linearGradient
     id="I">
    <stop
       offset="0"
       stop-color="#fff"
       id="stop88" />
    <stop
       offset="1"
       stop-color="#fff"
       stop-opacity="0"
       id="stop90" />
  </linearGradient>
  <linearGradient
     id="J"
     gradientTransform="matrix(-0.06770833,0,0,0.05377469,21.804687,6.7392104)"
     gradientUnits="userSpaceOnUse"
     x1="108"
     x2="212"
     xlink:href="#a"
     y1="76"
     y2="108.51858" />
  <g
     id="g946"
     transform="matrix(1.4999991,0,0,1.4999991,6.8423723e-6,-11.998297)"
     style="stroke-width:0.6666671">
    <g
       style="fill:#f0e3ec;fill-opacity:1;stroke:#000000;stroke-width:0.6666671;stroke-linecap:round;stroke-linejoin:round;stroke-dashoffset:1.08780003;stroke-opacity:1"
       id="g106"
       transform="matrix(0.13541666,0,0,0.12813994,-21.538934,7.7297777)"
       clip-path="url(#w)">
      <path
         inkscape:connector-curvature="0"
         style="fill:#f0e3ec;fill-opacity:1;stroke:#000000;stroke-width:0.33333355;stroke-opacity:1;filter:url(#x)"
         id="path98"
         d="m 218.31207,14.09375 c -12.13385,0 -21.97573,5.551865 -21.97573,19.78125 0,10.519613 15.38417,18.942738 18.25484,29.65625 -2.35131,8.775261 -18.25484,19.342255 -18.25484,30 0,14.42236 9.84188,20.125 21.97573,20.125 12.13386,0 21.97573,-5.70264 21.97573,-20.125 0,-10.657746 -15.66944,-20.351198 -18.25484,-30 2.83601,-10.584104 18.25484,-19.136637 18.25484,-29.65625 0,-14.229386 -9.84187,-19.78125 -21.97573,-19.78125 z" />
    </g>
    <path
       inkscape:connector-curvature="0"
       style="opacity:0.78277199;fill:#e602b4;stroke-width:0.6666671;filter:url(#g)"
       id="path108"
       transform="matrix(0.116666,0,0,0.12490547,0.53447347,8.3237766)"
       d="m 64.397094,9.6875 c -8.17701,0 -15.30913,2.531975 -19.09375,8.53125 4.54576,1.342302 11.64019,2.018751 19.65625,2.01875 7.44845,0 14.13103,-0.554831 18.6875,-1.7375 -3.739,-6.194607 -10.95081,-8.8125 -19.25,-8.8125 z" />
    <g
       style="opacity:0.55805203;fill:url(#linearGradient979);stroke-width:0.6666671"
       id="g114"
       transform="matrix(-0.13541666,0,0,-0.12490547,16.787559,23.162156)">
      <path
         inkscape:connector-curvature="0"
         style="opacity:0.78277199;fill:url(#linearGradient975);stroke-width:0.6666671;filter:url(#i)"
         id="path110"
         d="m 64.397094,9.6875 c -8.17701,0 -15.30913,2.531975 -19.09375,8.53125 4.54576,1.342302 11.64019,2.218751 19.65625,2.21875 7.44845,0 14.13103,-0.754831 18.6875,-1.9375 -3.739,-6.194607 -10.95081,-8.8125 -19.25,-8.8125 z" />
      <path
         inkscape:connector-curvature="0"
         style="opacity:0.78277199;fill:url(#linearGradient977);stroke-width:0.6666671;filter:url(#j)"
         id="path112"
         d="m 64.397094,9.6875 c -8.17701,0 -15.30913,2.531975 -19.09375,8.53125 4.588322,-1.229437 11.64019,-1.589843 19.65625,-1.589844 7.44845,0 14.145642,0.654107 18.6875,1.871094 -3.739,-6.194607 -10.95081,-8.8125 -19.25,-8.8125 z" />
    </g>
    <rect
       height="1.0000004"
       rx="0.43981996"
       width="6"
       x="5"
       y="22"
       id="rect94"
       style="fill:#9d3a9b;stroke-width:0.08333343" />
    <path
       inkscape:connector-curvature="0"
       style="fill:#f3b7d9;stroke-width:0.08670334"
       id="path116"
       d="m 6.4872303,13.715121 c 0.366558,0.545309 1.107405,1.049863 1.2817363,1.649974 -0.0018,0.0062 0.1574287,0.163016 0.1554394,0.169228 l 0.01274,0.0141 v 3.515145 h 0.3363601 v -3.540999 c -0.025453,-0.05245 0.1171449,-0.105092 0.1019281,-0.157476 0.1621669,-0.558238 0.826498,-1.041939 1.2103866,-1.553608 l -1.5263611,0.794432 z" />
    <path
       inkscape:connector-curvature="0"
       style="fill:#f3b7d9;stroke-width:0.08670334"
       id="path120"
       d="m 8.1545832,18.836621 -2.614587,1.26063 c 0.1714883,1.307874 1.2655285,1.836136 2.5885897,1.836136 1.2529113,0 2.2305761,-0.509512 2.4837431,-1.670227 z" />
    <path
       style="opacity:0.39325801;fill:#e602b4;stroke-width:0.08670334"
       inkscape:connector-curvature="0"
       id="path122"
       d="m 5.5399962,20.107528 c 0.1758636,1.30036 1.2690014,1.825859 2.5885897,1.825859 1.2477717,0 2.2349791,-0.519944 2.4935711,-1.670283 -0.590943,0.303909 -1.3946049,0.296866 -2.3487283,0.296866 -1.153652,0 -2.1628999,-0.03219 -2.7334325,-0.452442 z" />
    <path
       inkscape:connector-curvature="0"
       style="opacity:0.78277199;fill:#f3b7d9;stroke-width:0.08047701"
       id="path126"
       d="m 8.0474248,9.5337984 c -0.953979,0 -1.7860549,0.3162575 -2.2275914,1.0655996 0.5353012,-0.153563 1.3580144,-0.19858 2.2932161,-0.19858 0.8689808,0 1.6503154,0.0817 2.1801955,0.23371 C 9.8570312,9.8607875 9.0156581,9.5337984 8.0474248,9.5337984 Z" />
    <rect
       height="0.99663723"
       rx="0.2101026"
       ry="0.1050513"
       width="12.000004"
       x="1.9999998"
       y="23.000002"
       id="rect138"
       style="fill:#9d3a9b;stroke-width:0.08333343" />
    <path
       d="m 2.9999998,9.0000002 h 1 V 23.000001 h -1 z"
       id="path140"
       style="opacity:0.89513101;fill:#9d3a9b;stroke-width:0.08333343"
       inkscape:connector-curvature="0" />
    <path
       d="m 12,9.0000002 h 1 V 23.000001 h -1 z"
       id="path142"
       style="opacity:0.89513101;fill:#9d3a9b;stroke-width:0.08333343"
       inkscape:connector-curvature="0" />
    <rect
       height="1.0000001"
       rx="0.35120529"
       width="6"
       x="5"
       y="9"
       id="rect144"
       style="fill:#9d3a9b;stroke-width:0.08333343" />
    <rect
       height="1.0033706"
       rx="0.13819693"
       width="12.000003"
       x="1.9999969"
       y="7.9966292"
       id="rect146"
       style="fill:#9d3a9b;stroke-width:0.08333343" />
  </g>
</svg>
