<?xml version="1.0" encoding="UTF-8"?>
<svg xmlns="http://www.w3.org/2000/svg" xmlns:xlink="http://www.w3.org/1999/xlink" width="24px" height="24px" viewBox="0 0 24 24" version="1.1">
<g id="surface1">
<path style=" stroke:none;fill-rule:nonzero;fill:rgb(61.56863%,22.745098%,60.784316%);fill-opacity:1;" d="M 3.605469 3.105469 C 3.078125 3.105469 2.652344 3.523438 2.652344 4.039062 L 2.652344 5.464844 C 2.652344 5.980469 3.078125 6.398438 3.605469 6.398438 L 3.625 6.398438 L 3.625 7.386719 L 3.605469 7.386719 C 3.078125 7.386719 2.652344 7.804688 2.652344 8.320312 L 2.652344 9.75 C 2.652344 10.265625 3.078125 10.683594 3.605469 10.683594 L 7.011719 10.683594 C 7.539062 10.683594 7.964844 10.265625 7.964844 9.75 L 7.964844 8.320312 C 7.964844 7.804688 7.539062 7.386719 7.011719 7.386719 L 6.992188 7.386719 L 6.992188 6.398438 L 7.011719 6.398438 C 7.539062 6.398438 7.964844 5.980469 7.964844 5.464844 L 7.964844 4.039062 C 7.964844 3.523438 7.539062 3.105469 7.011719 3.105469 Z M 3.605469 3.105469 "/>
<path style=" stroke:none;fill-rule:nonzero;fill:rgb(95.294118%,71.764708%,85.09804%);fill-opacity:1;" d="M 3.605469 4.039062 L 3.605469 5.464844 L 4.578125 5.464844 L 4.578125 8.320312 L 3.605469 8.320312 L 3.605469 9.75 L 7.011719 9.75 L 7.011719 8.320312 L 6.039062 8.320312 L 6.039062 5.464844 L 7.011719 5.464844 L 7.011719 4.039062 Z M 3.605469 4.039062 "/>
<path style=" stroke:none;fill-rule:nonzero;fill:rgb(61.56863%,22.745098%,60.784316%);fill-opacity:1;" d="M 2.472656 13.539062 C 1.980469 13.539062 1.582031 13.957031 1.582031 14.472656 L 1.582031 15.898438 C 1.582031 16.414062 1.980469 16.832031 2.472656 16.832031 L 2.492188 16.832031 L 2.492188 17.820312 L 2.472656 17.820312 C 1.980469 17.820312 1.582031 18.238281 1.582031 18.753906 L 1.582031 20.179688 C 1.582031 20.695312 1.980469 21.113281 2.472656 21.113281 L 5.65625 21.113281 C 6.148438 21.113281 6.546875 20.695312 6.546875 20.179688 L 6.546875 18.753906 C 6.546875 18.238281 6.148438 17.820312 5.65625 17.820312 L 5.636719 17.820312 L 5.636719 16.832031 L 5.65625 16.832031 C 6.148438 16.832031 6.546875 16.414062 6.546875 15.898438 L 6.546875 14.472656 C 6.546875 13.957031 6.148438 13.539062 5.65625 13.539062 Z M 2.472656 13.539062 "/>
<path style=" stroke:none;fill-rule:nonzero;fill:rgb(61.56863%,22.745098%,60.784316%);fill-opacity:1;" d="M 5.507812 13.53125 C 5.074219 13.53125 4.722656 13.949219 4.722656 14.464844 L 4.722656 15.890625 C 4.722656 16.40625 5.074219 16.824219 5.507812 16.824219 L 5.523438 16.824219 L 5.523438 17.8125 L 5.507812 17.8125 C 5.074219 17.8125 4.722656 18.230469 4.722656 18.742188 L 4.722656 20.171875 C 4.722656 20.6875 5.074219 21.105469 5.507812 21.105469 L 8.308594 21.105469 C 8.742188 21.105469 9.09375 20.6875 9.09375 20.171875 L 9.09375 18.742188 C 9.09375 18.230469 8.742188 17.8125 8.308594 17.8125 L 8.292969 17.8125 L 8.292969 16.824219 L 8.308594 16.824219 C 8.742188 16.824219 9.09375 16.40625 9.09375 15.890625 L 9.09375 14.464844 C 9.09375 13.949219 8.742188 13.53125 8.308594 13.53125 Z M 5.507812 13.53125 "/>
<path style=" stroke:none;fill-rule:nonzero;fill:rgb(95.294118%,71.764708%,85.09804%);fill-opacity:1;" d="M 2.707031 14.46875 L 2.707031 15.894531 L 3.617188 15.894531 L 3.617188 18.75 L 2.707031 18.75 L 2.707031 20.175781 L 5.890625 20.175781 L 5.890625 18.75 L 4.980469 18.75 L 4.980469 15.894531 L 5.890625 15.894531 L 5.890625 14.46875 Z M 2.707031 14.46875 "/>
<path style=" stroke:none;fill-rule:nonzero;fill:rgb(95.294118%,71.764708%,85.09804%);fill-opacity:1;" d="M 4.78125 14.46875 L 4.78125 15.894531 L 5.691406 15.894531 L 5.691406 18.75 L 4.78125 18.75 L 4.78125 20.175781 L 7.964844 20.175781 L 7.964844 18.75 L 7.054688 18.75 L 7.054688 15.894531 L 7.964844 15.894531 L 7.964844 14.46875 Z M 4.78125 14.46875 "/>
<path style="fill:none;stroke-width:0.264583;stroke-linecap:round;stroke-linejoin:miter;stroke:rgb(90.196079%,0.784314%,70.588237%);stroke-opacity:1;stroke-miterlimit:4;" d="M 1.984375 0.926042 L 3.836458 0.926042 " transform="matrix(5.669291,0,0,5.669291,0.00000135166,0)"/>
<path style="fill:none;stroke-width:0.264583;stroke-linecap:round;stroke-linejoin:miter;stroke:rgb(90.196079%,0.784314%,70.588237%);stroke-opacity:1;stroke-miterlimit:4;" d="M 1.984375 1.447629 L 3.836458 1.447629 " transform="matrix(5.669291,0,0,5.669291,0.00000135166,0)"/>
<path style="fill:none;stroke-width:0.264583;stroke-linecap:round;stroke-linejoin:miter;stroke:rgb(90.196079%,0.784314%,70.588237%);stroke-opacity:1;stroke-miterlimit:4;" d="M 1.984375 3.307292 L 3.836458 3.307292 " transform="matrix(5.669291,0,0,5.669291,0.00000135166,0)"/>
<path style="fill:none;stroke-width:0.264583;stroke-linecap:round;stroke-linejoin:miter;stroke:rgb(90.196079%,0.784314%,70.588237%);stroke-opacity:1;stroke-miterlimit:4;" d="M 1.984375 2.778125 L 3.836458 2.778125 " transform="matrix(5.669291,0,0,5.669291,0.00000135166,0)"/>
</g>
</svg>
