<?xml version="1.0" encoding="UTF-8"?>
<svg xmlns="http://www.w3.org/2000/svg" xmlns:xlink="http://www.w3.org/1999/xlink" width="24px" height="24px" viewBox="0 0 24 24" version="1.1">
<g id="surface1">
<path style="fill-rule:evenodd;fill:rgb(94.117647%,89.019608%,92.54902%);fill-opacity:1;stroke-width:1;stroke-linecap:round;stroke-linejoin:round;stroke:rgb(90.196079%,0.784314%,70.588237%);stroke-opacity:1;stroke-miterlimit:4;" d="M 3.114583 1.5 L 12.885417 1.5 C 13.778646 1.5 14.5 2.169271 14.5 2.994792 L 14.5 13.005208 C 14.5 13.830729 13.778646 14.5 12.885417 14.5 L 3.114583 14.5 C 2.221354 14.5 1.5 13.830729 1.5 13.005208 L 1.5 2.994792 C 1.5 2.169271 2.221354 1.5 3.114583 1.5 Z M 3.114583 1.5 " transform="matrix(1.5,0,0,1.5,0,0)"/>
<path style="fill-rule:nonzero;fill:rgb(94.117647%,89.019608%,92.54902%);fill-opacity:1;stroke-width:1;stroke-linecap:butt;stroke-linejoin:miter;stroke:rgb(61.56863%,22.745098%,60.784316%);stroke-opacity:1;stroke-miterlimit:4;" d="M -3.728087 -12.589178 C -3.729075 -10.502714 -5.420169 -8.8098 -7.506633 -8.810788 C -9.593096 -8.811776 -11.286011 -10.502869 -11.285023 -12.589333 C -11.284035 -14.675797 -9.593616 -16.366196 -7.506478 -16.367724 C -5.420014 -16.366736 -3.729615 -14.676316 -3.728087 -12.589178 Z M -3.728087 -12.589178 " transform="matrix(-1.448889,0.388229,-0.388229,-1.448889,0,0)"/>
<path style=" stroke:none;fill-rule:evenodd;fill:rgb(61.56863%,22.745098%,60.784316%);fill-opacity:1;" d="M 3 6 L 21 6 L 21 7.5 L 3 7.5 Z M 3 6 "/>
<path style="fill:none;stroke-width:1.602787;stroke-linecap:round;stroke-linejoin:round;stroke:rgb(90.196079%,0.784314%,70.588237%);stroke-opacity:1;stroke-miterlimit:4;" d="M 15.001053 14.001234 C 15.001053 14.001234 13.49844 9.998439 10.00069 11.000182 " transform="matrix(0.93587,0,0,0.93587,4.519565,4.795108)"/>
<path style="fill:none;stroke-width:1.602787;stroke-linecap:round;stroke-linejoin:round;stroke:rgb(90.196079%,0.784314%,70.588237%);stroke-opacity:1;stroke-miterlimit:4;" d="M 12 8.5 L 9.023991 10.766442 L 12 12.999492 " transform="matrix(0.93587,0,0,0.93587,4.519565,4.795108)"/>
</g>
</svg>
