<?xml version="1.0" encoding="UTF-8"?>
<svg xmlns="http://www.w3.org/2000/svg" xmlns:xlink="http://www.w3.org/1999/xlink" width="24px" height="24px" viewBox="0 0 24 24" version="1.1">
<g id="surface1">
<path style="fill-rule:evenodd;fill:rgb(94.117647%,89.019608%,92.54902%);fill-opacity:1;stroke-width:1;stroke-linecap:round;stroke-linejoin:round;stroke:rgb(90.196079%,0.784314%,70.588237%);stroke-opacity:1;stroke-miterlimit:4;" d="M 3.5 1.533854 L 12.494792 1.533854 C 13.046875 1.533854 13.494792 1.981771 13.494792 2.533854 L 13.494792 13.5 C 13.494792 14.052083 13.046875 14.5 12.494792 14.5 L 3.5 14.5 C 2.947917 14.5 2.5 14.052083 2.5 13.5 L 2.5 2.533854 C 2.5 1.981771 2.947917 1.533854 3.5 1.533854 Z M 3.5 1.533854 " transform="matrix(1.5,0,0,1.5,0,0)"/>
<path style=" stroke:none;fill-rule:nonzero;fill:rgb(90.196079%,0.784314%,70.588237%);fill-opacity:1;" d="M 6 13.566406 L 17.25 13.566406 L 17.25 16.5 L 6 16.5 Z M 6 13.566406 "/>
<path style="fill-rule:evenodd;fill:rgb(94.117647%,89.019608%,92.54902%);fill-opacity:1;stroke-width:1;stroke-linecap:butt;stroke-linejoin:miter;stroke:rgb(94.117647%,89.019608%,92.54902%);stroke-opacity:1;stroke-miterlimit:4;" d="M 7.73508 1.508186 C 7.573622 1.513394 7.417372 1.565477 7.284559 1.661831 L 3.034559 4.771206 C 2.847059 4.909227 2.722059 5.133186 2.722059 5.380581 C 2.722059 5.630581 2.847059 5.85454 3.034559 5.989956 L 7.284559 9.099331 C 7.521538 9.273811 7.823622 9.299852 8.081434 9.185269 C 8.339247 9.07329 8.544976 8.807665 8.544976 8.492561 L 8.544976 2.268602 C 8.544976 2.049852 8.443413 1.844123 8.289768 1.706102 C 8.128309 1.562873 7.927788 1.502977 7.73508 1.508186 Z M 5.839247 4.630581 L 5.839247 6.130581 L 4.813205 5.380581 Z M 5.839247 4.630581 " transform="matrix(-1.5,0,0,1.5,24.286214,7.854909)"/>
<path style=" stroke:none;fill-rule:evenodd;fill:rgb(61.56863%,22.745098%,60.784316%);fill-opacity:1;" d="M 12.683594 10.117188 C 12.925781 10.125 13.160156 10.203125 13.359375 10.347656 L 19.734375 15.011719 C 20.015625 15.21875 20.203125 15.554688 20.203125 15.925781 C 20.203125 16.300781 20.015625 16.636719 19.734375 16.839844 L 13.359375 21.503906 C 13.003906 21.765625 12.550781 21.804688 12.164062 21.632812 C 11.777344 21.464844 11.46875 21.066406 11.46875 20.59375 L 11.46875 11.257812 C 11.46875 10.929688 11.621094 10.621094 11.851562 10.414062 C 12.09375 10.199219 12.394531 10.109375 12.683594 10.117188 Z M 15.527344 14.800781 L 15.527344 17.050781 L 17.066406 15.925781 Z M 15.527344 14.800781 "/>
<path style=" stroke:none;fill-rule:evenodd;fill:rgb(95.294118%,71.764708%,85.09804%);fill-opacity:1;" d="M 12.984375 12 L 18.6875 15.992188 L 13.035156 19.855469 L 12.984375 17.324219 Z M 12.984375 12 "/>
<path style="fill-rule:nonzero;fill:rgb(95.294118%,71.764708%,85.09804%);fill-opacity:1;stroke-width:0.388796;stroke-linecap:butt;stroke-linejoin:miter;stroke:rgb(61.56863%,22.745098%,60.784316%);stroke-opacity:1;stroke-miterlimit:4;" d="M 13.901754 1.912791 L 12.699065 3.512002 L 14.299253 4.712249 L 15.498545 3.113038 L 14.999123 2.110597 Z M 13.901754 1.912791 " transform="matrix(1.149767,0,0,1.165125,1.149036,0.341672)"/>
<path style="fill-rule:nonzero;fill:rgb(95.294118%,71.764708%,85.09804%);fill-opacity:1;stroke-width:0.259197;stroke-linecap:butt;stroke-linejoin:miter;stroke:rgb(61.56863%,22.745098%,60.784316%);stroke-opacity:1;stroke-miterlimit:4;" d="M 7.793179 11.705865 L 8.194075 9.506531 L 8.893945 9.409304 L 8.785228 9.952432 L 9.301637 9.714395 L 9.186124 10.250818 L 9.702533 10.016133 L 9.794264 10.71013 L 7.793179 11.705865 " transform="matrix(1.149767,0,0,1.165125,1.149036,0.341672)"/>
<path style="fill-rule:nonzero;fill:rgb(61.56863%,22.745098%,60.784316%);fill-opacity:1;stroke-width:0.129599;stroke-linecap:butt;stroke-linejoin:miter;stroke:rgb(61.56863%,22.745098%,60.784316%);stroke-opacity:1;stroke-miterlimit:4;" d="M 8.132922 10.592787 L 8.67651 11.042042 L 7.793179 11.715923 Z M 8.132922 10.592787 " transform="matrix(1.149767,0,0,1.165125,1.149036,0.341672)"/>
<path style="fill-rule:nonzero;fill:rgb(90.196079%,0.784314%,70.588237%);fill-opacity:1;stroke-width:0.129599;stroke-linecap:butt;stroke-linejoin:miter;stroke:rgb(61.56863%,22.745098%,60.784316%);stroke-opacity:1;stroke-miterlimit:4;" d="M 12.699065 3.512002 L 14.299253 4.712249 L 9.794264 10.71013 L 9.702533 10.016133 L 9.186124 10.250818 L 9.230291 9.794858 L 8.785228 9.952432 L 8.839587 9.483062 L 8.194075 9.506531 Z M 12.699065 3.512002 " transform="matrix(1.149767,0,0,1.165125,1.149036,0.341672)"/>
<path style="fill:none;stroke-width:0.90719;stroke-linecap:butt;stroke-linejoin:round;stroke:rgb(61.56863%,22.745098%,60.784316%);stroke-opacity:1;stroke-miterlimit:4;" d="M 13.599383 2.311756 L 8.194075 9.506531 L 7.494205 12.108183 L 9.794264 10.71013 L 15.199571 3.512002 C 15.997967 2.479388 14.431753 1.235557 13.599383 2.311756 Z M 13.599383 2.311756 " transform="matrix(1.149767,0,0,1.165125,1.149036,0.341672)"/>
<path style="fill-rule:nonzero;fill:rgb(94.117647%,89.019608%,92.54902%);fill-opacity:1;stroke-width:1.5;stroke-linecap:round;stroke-linejoin:miter;stroke:rgb(94.117647%,89.019608%,92.54902%);stroke-opacity:1;stroke-miterlimit:4;" d="M -0.999945 1.000998 L -4.999945 5.000998 " transform="matrix(1.5,0,0,1.5,10.13273,1.193815)"/>
<path style="fill:none;stroke-width:1.5;stroke-linecap:round;stroke-linejoin:miter;stroke:rgb(94.117647%,89.019608%,92.54902%);stroke-opacity:1;stroke-miterlimit:4;" d="M -4.999945 1.000998 L -0.999945 5.000998 " transform="matrix(1.5,0,0,1.5,10.13273,1.193815)"/>
<path style="fill-rule:nonzero;fill:rgb(61.56863%,22.745098%,60.784316%);fill-opacity:1;stroke-width:1;stroke-linecap:round;stroke-linejoin:miter;stroke:rgb(61.56863%,22.745098%,60.784316%);stroke-opacity:1;stroke-miterlimit:4;" d="M -4.999945 1.000998 L -0.999945 5.000998 " transform="matrix(1.5,0,0,1.5,10.13273,1.193815)"/>
<path style="fill:none;stroke-width:1;stroke-linecap:round;stroke-linejoin:miter;stroke:rgb(61.56863%,22.745098%,60.784316%);stroke-opacity:1;stroke-miterlimit:4;" d="M -0.999945 1.000998 L -4.999945 5.000998 " transform="matrix(1.5,0,0,1.5,10.13273,1.193815)"/>
</g>
</svg>
