<?xml version="1.0" encoding="UTF-8" standalone="no"?>
<svg
   xmlns:dc="http://purl.org/dc/elements/1.1/"
   xmlns:cc="http://creativecommons.org/ns#"
   xmlns:rdf="http://www.w3.org/1999/02/22-rdf-syntax-ns#"
   xmlns:svg="http://www.w3.org/2000/svg"
   xmlns="http://www.w3.org/2000/svg"
   xmlns:xlink="http://www.w3.org/1999/xlink"
   xmlns:sodipodi="http://sodipodi.sourceforge.net/DTD/sodipodi-0.dtd"
   xmlns:inkscape="http://www.inkscape.org/namespaces/inkscape"
   height="24"
   width="24"
   version="1.1"
   id="svg203"
   sodipodi:docname="sc_recsave.svg"
   inkscape:export-filename="/home/annisaauliarasyidah/Desktop/4_242 (aulia)/lc 222/lc_recsave.png"
   inkscape:export-xdpi="96"
   inkscape:export-ydpi="96"
   inkscape:version="0.92.4 (unknown)">
  <metadata
     id="metadata209">
    <rdf:RDF>
      <cc:Work
         rdf:about="">
        <dc:format>image/svg+xml</dc:format>
        <dc:type
           rdf:resource="http://purl.org/dc/dcmitype/StillImage" />
        <dc:title></dc:title>
      </cc:Work>
    </rdf:RDF>
  </metadata>
  <defs
     id="defs207">
    <linearGradient
       inkscape:collect="always"
       xlink:href="#F"
       id="linearGradient1022"
       gradientUnits="userSpaceOnUse"
       x1="111.78525"
       y1="112.5"
       x2="111.99271"
       y2="44.287056" />
    <filter
       id="u-3">
      <feGaussianBlur
         stdDeviation=".0231875"
         id="feGaussianBlur110" />
    </filter>
  </defs>
  <sodipodi:namedview
     pagecolor="#ffffff"
     bordercolor="#666666"
     borderopacity="1"
     objecttolerance="10"
     gridtolerance="10"
     guidetolerance="10"
     inkscape:pageopacity="0"
     inkscape:pageshadow="2"
     inkscape:window-width="1366"
     inkscape:window-height="707"
     id="namedview205"
     showgrid="true"
     inkscape:snap-global="false"
     inkscape:zoom="31.116347"
     inkscape:cx="3.686508"
     inkscape:cy="8.4327675"
     inkscape:window-x="0"
     inkscape:window-y="0"
     inkscape:window-maximized="1"
     inkscape:current-layer="svg203">
    <inkscape:grid
       type="xygrid"
       id="grid1045" />
  </sodipodi:namedview>
  <linearGradient
     id="a">
    <stop
       offset="0"
       id="stop2" />
    <stop
       offset="1"
       stop-opacity="0"
       id="stop4" />
  </linearGradient>
  <linearGradient
     id="b">
    <stop
       offset="0"
       stop-color="#fff"
       id="stop7" />
    <stop
       offset="1"
       stop-color="#fff"
       stop-opacity="0"
       id="stop9" />
  </linearGradient>
  <linearGradient
     id="c"
     gradientTransform="matrix(2.5599786,0,0,2.5618328,317.24891,-4847.794)"
     gradientUnits="userSpaceOnUse"
     x1="-97.742668"
     x2="-97.742668"
     y1="1937.9885"
     y2="1895.421">
    <stop
       offset="0"
       stop-color="#141313"
       id="stop12" />
    <stop
       offset=".33497536"
       stop-color="#2b292a"
       id="stop14" />
    <stop
       offset=".63281107"
       stop-color="#3f3e3e"
       id="stop16" />
    <stop
       offset="1"
       stop-color="#6b696a"
       id="stop18" />
  </linearGradient>
  <radialGradient
     id="d"
     cx="100.16534"
     cy="37.468983"
     gradientTransform="matrix(4.8110826,7.5e-7,-3.1e-7,1.9257147,-441.90372,-88.154647)"
     gradientUnits="userSpaceOnUse"
     r="38">
    <stop
       offset="0"
       stop-color="#d0ced9"
       id="stop21" />
    <stop
       offset=".25"
       stop-color="#ecf1f9"
       id="stop23" />
    <stop
       offset=".5"
       stop-color="#fff"
       id="stop25" />
    <stop
       offset="1"
       stop-color="#c6d5e3"
       id="stop27" />
  </radialGradient>
  <filter
     id="e"
     height="1.2405109"
     width="1.138013"
     x="-0.069006003"
     y="-0.120256">
    <feGaussianBlur
       stdDeviation="1.9228365"
       id="feGaussianBlur30" />
  </filter>
  <radialGradient
     id="f"
     cx="84"
     cy="91.983192"
     gradientTransform="matrix(1,0,0,0.6210279,0,37.87587)"
     gradientUnits="userSpaceOnUse"
     r="32"
     xlink:href="#b" />
  <linearGradient
     id="g"
     gradientUnits="userSpaceOnUse"
     x1="47.608696"
     x2="47.608696"
     xlink:href="#a"
     y1="104.35009"
     y2="176.35008" />
  <linearGradient
     id="h"
     gradientUnits="userSpaceOnUse"
     x1="89.604729"
     x2="114.175"
     xlink:href="#b"
     y1="42.336197"
     y2="106.7981" />
  <filter
     id="i">
    <feGaussianBlur
       stdDeviation=".0231875"
       id="feGaussianBlur36" />
  </filter>
  <clipPath
     id="j">
    <path
       d="m 18.189713,132.42089 c -1.419208,0 -2.5625,1.1433 -2.5625,2.5625 v 37.18328 h 72.000002 v -37.18328 c 0,-1.4192 -1.14329,-2.5625 -2.5625,-2.5625 z"
       id="path39"
       inkscape:connector-curvature="0" />
  </clipPath>
  <linearGradient
     id="k"
     gradientTransform="matrix(1,0,0,0.9968924,0,-0.225228)"
     gradientUnits="userSpaceOnUse"
     x1="52"
     x2="52"
     y1="112"
     y2="80">
    <stop
       offset="0"
       stop-color="#8a8a8a"
       id="stop42" />
    <stop
       offset="1"
       stop-color="#c6c6c6"
       id="stop44" />
  </linearGradient>
  <filter
     id="l"
     height="1.185769"
     width="1.247692"
     x="-0.123846"
     y="-0.092885002">
    <feGaussianBlur
       stdDeviation="1.2384615"
       id="feGaussianBlur47" />
  </filter>
  <linearGradient
     id="m"
     gradientUnits="userSpaceOnUse"
     x1="68"
     x2="36"
     xlink:href="#a"
     y1="120"
     y2="84" />
  <linearGradient
     id="n"
     gradientUnits="userSpaceOnUse"
     x1="87.693916"
     x2="91.051781"
     xlink:href="#a"
     y1="100.83184"
     y2="100.83184" />
  <filter
     id="o"
     height="1.045223"
     width="1.5097899"
     x="-0.254895"
     y="-0.022612">
    <feGaussianBlur
       stdDeviation=".35662617"
       id="feGaussianBlur52" />
  </filter>
  <filter
     id="p"
     height="1.203077"
     width="1.2933331"
     x="-0.146667"
     y="-0.101538">
    <feGaussianBlur
       stdDeviation=".55"
       id="feGaussianBlur55" />
  </filter>
  <clipPath
     id="q">
    <rect
       height="12"
       rx="1.079258"
       width="8"
       x="12"
       y="12"
       id="rect58" />
  </clipPath>
  <clipPath
     id="r">
    <rect
       height="12"
       rx="1.079258"
       width="8"
       x="12"
       y="12"
       id="rect61" />
  </clipPath>
  <filter
     id="s">
    <feGaussianBlur
       stdDeviation=".04177847"
       id="feGaussianBlur64" />
  </filter>
  <radialGradient
     id="t"
     cx="16"
     cy="18"
     gradientTransform="matrix(1,0,0,1.5,0,-9)"
     gradientUnits="userSpaceOnUse"
     r="4">
    <stop
       offset="0"
       stop-color="#7a7a7a"
       id="stop67" />
    <stop
       offset="1"
       stop-opacity=".490909"
       id="stop69" />
  </radialGradient>
  <linearGradient
     id="u"
     gradientUnits="userSpaceOnUse"
     x1="16"
     x2="16"
     xlink:href="#a"
     y1="1.595278"
     y2="18.75548" />
  <radialGradient
     id="v"
     cx="16.03512"
     cy="19.494249"
     fy="18.539074"
     gradientUnits="userSpaceOnUse"
     r="2.3785191">
    <stop
       offset="0"
       stop-color="#868385"
       id="stop73" />
    <stop
       offset="1"
       stop-color="#4a4949"
       id="stop75" />
  </radialGradient>
  <linearGradient
     id="w"
     gradientUnits="userSpaceOnUse"
     x1="13.731525"
     x2="13.731525"
     y1="17.127983"
     y2="19.86887">
    <stop
       offset="0"
       stop-color="#fff"
       id="stop78" />
    <stop
       offset="1"
       id="stop80" />
  </linearGradient>
  <filter
     id="x">
    <feGaussianBlur
       stdDeviation="1.0600355"
       id="feGaussianBlur83" />
  </filter>
  <linearGradient
     id="y"
     gradientTransform="matrix(1.1772548,0,0,1.0772187,1.846275,-4.94167)"
     gradientUnits="userSpaceOnUse"
     x1="71.626404"
     x2="46.225941"
     y1="123.73875"
     y2="28.942928">
    <stop
       offset="0"
       stop-color="#005f1e"
       id="stop86" />
    <stop
       offset="1"
       stop-color="#43943c"
       id="stop88" />
  </linearGradient>
  <radialGradient
     id="z"
     cx="71.775223"
     cy="16.0865"
     gradientTransform="matrix(0.9650814,0.2619502,-0.9201984,3.3902106,33.309062,-57.693239)"
     gradientUnits="userSpaceOnUse"
     r="3.15625"
     xlink:href="#b" />
  <filter
     id="A"
     height="1.157943"
     width="1.244782"
     x="-0.122391"
     y="-0.078970999">
    <feGaussianBlur
       stdDeviation=".321914"
       id="feGaussianBlur92" />
  </filter>
  <linearGradient
     id="B"
     gradientTransform="matrix(1.1772548,0,0,1.0772187,6.555295,-4.94167)"
     gradientUnits="userSpaceOnUse"
     x1="96.373123"
     x2="96.373123"
     y1="120.42788"
     y2="46.089832">
    <stop
       offset="0"
       stop-color="#002a0d"
       id="stop95" />
    <stop
       offset="1"
       stop-color="#002a0d"
       stop-opacity="0"
       id="stop97" />
  </linearGradient>
  <radialGradient
     id="C"
     cx="71.775223"
     cy="16.0865"
     gradientTransform="matrix(0.9650814,0.2619502,-0.9201984,3.3902106,17.309062,-57.693239)"
     gradientUnits="userSpaceOnUse"
     r="3.15625">
    <stop
       offset="0"
       stop-color="#f0ff80"
       id="stop100" />
    <stop
       offset="1"
       stop-color="#f0ff80"
       stop-opacity="0"
       id="stop102" />
  </radialGradient>
  <radialGradient
     id="D"
     cx="11.578125"
     cy="64.53125"
     gradientTransform="matrix(6.5079869,0,0,1.510917,-63.772161,-32.970115)"
     gradientUnits="userSpaceOnUse"
     r="3.578125"
     xlink:href="#b" />
  <filter
     id="E"
     height="1.598266"
     width="1.9039299"
     x="-0.451965"
     y="-0.299133">
    <feGaussianBlur
       stdDeviation="1.3476562"
       id="feGaussianBlur106" />
  </filter>
  <linearGradient
     id="F"
     gradientUnits="userSpaceOnUse"
     x1="111.78525"
     x2="111.99271"
     y1="112.5"
     y2="44.287056">
    <stop
       offset="0"
       stop-color="#e5ff00"
       id="stop109" />
    <stop
       offset="1"
       stop-color="#e5ff00"
       stop-opacity="0"
       id="stop111" />
  </linearGradient>
  <filter
     id="G">
    <feGaussianBlur
       stdDeviation=".495"
       id="feGaussianBlur114" />
  </filter>
  <linearGradient
     id="H"
     gradientTransform="matrix(-0.10815216,0,0,0.09466681,-2.153326,-3.2027988)"
     gradientUnits="userSpaceOnUse"
     x1="43.799026"
     x2="58.606159"
     y1="32.051865"
     y2="96.363052">
    <stop
       offset="0"
       stop-color="#37a42c"
       id="stop117" />
    <stop
       offset="1"
       stop-color="#bff500"
       id="stop119" />
  </linearGradient>
  <radialGradient
     id="I"
     cx="53.630272"
     cy="79.055809"
     fx="57.058514"
     fy="91.805016"
     gradientTransform="matrix(-0.87786375,4e-8,5e-8,0.7376679,71.977519,-13.646357)"
     gradientUnits="userSpaceOnUse"
     r="50">
    <stop
       offset="0"
       stop-color="#cbff10"
       id="stop122" />
    <stop
       offset="1"
       stop-color="#004d00"
       id="stop124" />
  </radialGradient>
  <linearGradient
     id="J"
     gradientTransform="matrix(-0.60836457,0,0,0.53250836,53.504379,3.096607)"
     gradientUnits="userSpaceOnUse"
     x1="63.159035"
     x2="63.159035"
     y1="21.171064"
     y2="80.12056">
    <stop
       offset="0"
       stop-color="#edffbf"
       id="stop127" />
    <stop
       offset="1"
       stop-color="#edffbf"
       stop-opacity="0"
       id="stop129" />
  </linearGradient>
  <linearGradient
     id="K"
     gradientTransform="matrix(-0.60836457,0,0,0.53250836,53.504379,3.096607)"
     gradientUnits="userSpaceOnUse"
     x1="73.739265"
     x2="35.568035"
     xlink:href="#b"
     y1="69.923088"
     y2="48.212151" />
  <g
     id="g923"
     transform="matrix(1.4364554,0,0,1.5051711,0.91434752,-12.058804)"
     style="stroke-width:0.68008149">
    <g
       style="stroke-width:0.45695418"
       transform="matrix(1.5583921,0,0,1.619553,21.734129,-3.854467)"
       id="g960">
      <path
         inkscape:connector-curvature="0"
         id="path206"
         style="opacity:1;fill:#f3b7d9;fill-opacity:1;stroke:#e602b4;stroke-width:0.44903573;stroke-linecap:round;stroke-linejoin:round;stroke-dashoffset:1.08780003;stroke-opacity:1"
         d="m -13.021662,7.6516863 c -0.145101,0 -0.269631,0.129344 -0.269555,0.264731 l -0.02845,7.8781997 0.853572,0.847758 h 7.861754 c 0.236933,0 0.269533,-0.02763 0.269533,-0.264711 l 0.02845,-8.4612467 c 0,-0.144266 -0.124991,-0.264731 -0.269534,-0.264731 z" />
      <rect
         style="fill:#e602b4;stroke:#9d3a9b;stroke-width:0.22847709;stroke-miterlimit:4;stroke-dasharray:none"
         id="rect208"
         y="7.6129112"
         x="-11.70965"
         width="5.9999995"
         ry="0.11409751"
         rx="0.11581321"
         height="4.5" />
      <path
         inkscape:connector-curvature="0"
         id="path218"
         transform="matrix(0.08080922,0,0,0.09926784,-14.014847,5.6645083)"
         style="opacity:1;fill:#f0e3ec;fill-rule:evenodd;stroke:#9d3a9b;stroke-width:1.27549243;stroke-miterlimit:4;stroke-dasharray:none;filter:url(#u-3)"
         d="m 112.08021,93.783789 v 6.718751 h -1.21875 -1.03125 l 4.34375,7.53125 4.34375,-7.53125 h -1.03125 -1.21875 v -6.718751 h -2.09375 z" />
      <path
         inkscape:connector-curvature="0"
         style="fill:#f0e3ec;stroke:#9d3a9b;stroke-width:0.11423855;stroke-miterlimit:4;stroke-dasharray:none"
         id="path222"
         d="m -10.709654,13.612913 c -0.10492,0 -0.122119,0.143345 -0.122119,0.247939 l -0.04878,3.25206 4.670903,-1e-6 v -3.499998 c 0,-0.104594 0.10492,0 0,0 z m 0.5,0.5 h 1 c 0.0463,0 0,-0.04616 0,0 v 2 c 0,0.04616 0.0463,0 0,0 h -1 c -0.0463,0 0,0.04616 0,0 v -2 c 0,-0.04616 -0.0463,0 0,0 z" />
    </g>
    <g
       style="fill:#9d3a9b;fill-rule:evenodd;stroke-width:0.68008149"
       transform="translate(-1.1882895,8.0101045)"
       id="g185">
      <path
         inkscape:connector-curvature="0"
         style="fill:#9d3a9b;stroke-width:0.68008149"
         id="path175"
         transform="matrix(-0.09334192,0,0,0.09334192,10.966493,0.03208)"
         d="M 90.925781,-0.06054687 C 88.335578,0.01321208 85.762192,0.85674696 83.611328,2.4316406 L 12.988281,54.117188 C 9.9431675,56.345095 7.9042969,59.96983 7.9042969,64 c 0,4.03116 2.0395885,7.656994 5.0859371,9.884766 l 70.623047,51.685544 c 3.860769,2.82603 8.748949,3.2337 12.978516,1.37305 4.167743,-1.83347 7.504483,-6.14034 7.503903,-11.22461 v -0.004 -25.52734 -4.78125 -6.25 -30.3125 -5.3125 -5.71875 -25.527344 -0.0039 c 3.2e-4,-3.5767774 -1.6348,-6.8929237 -4.150388,-9.125 -2.6255,-2.3295967 -5.859992,-3.306887 -9.019531,-3.21679687 z M 59.716797,50.927734 V 77.072266 L 41.865234,64 Z" />
      <path
         inkscape:connector-curvature="0"
         style="opacity:0.85;fill:#9d3a9b;stroke-width:0.68008149;filter:url(#A)"
         id="path177"
         transform="matrix(-0.18645836,0,0,0.18009278,18.73693,-1.939353)"
         d="m 87.875,12 c -0.799041,0.02487 -1.572946,0.283948 -2.21875,0.75 v 8.509131 L 91.96875,15.625 c -0.08779,-0.946211 -0.499493,-1.832841 -1.1875,-2.5 C 90.003873,12.37118 88.957323,11.966273 87.875,12 Z" />
      <path
         inkscape:connector-curvature="0"
         style="opacity:0.90526303;fill:#9d3a9b;stroke-width:0.68008149"
         id="path179"
         transform="matrix(-0.09334192,0,0,0.09334192,11.001111,0.031537)"
         d="M 90.917969,-0.36328125 C 88.268822,-0.28784381 85.633331,0.57539 83.431641,2.1875 L 12.808594,53.873047 C 9.6911487,56.15385 7.6015625,59.867746 7.6015625,64 c 0,4.133245 2.0903057,7.84824 5.2089845,10.128906 l 70.623047,51.685544 c 3.952572,2.89326 8.952258,3.30978 13.279297,1.40625 4.262909,-1.87533 7.686189,-6.28904 7.685549,-11.50195 v -0.004 -25.52734 -4.78125 -0.75 -5.5 -30.3125 -5.3125 -0.1875 -5.53125 -25.527344 -0.0039 C 104.3988,8.614 102.72214,5.2150654 100.14648,2.9296875 97.456825,0.54316232 94.148233,-0.45538803 90.917969,-0.36328125 Z M 59.414062,51.525391 V 76.474609 L 42.378906,64 Z" />
      <path
         inkscape:connector-curvature="0"
         style="opacity:0.35;fill:#9d3a9b;stroke-width:0.68008149;filter:url(#A)"
         id="path181"
         transform="matrix(-0.18737132,0,0,-0.18097458,15.817192,13.936107)"
         d="m 71.875,12 c -0.799041,0.02487 -1.572946,0.283948 -2.21875,0.75 v 8.572989 L 75.96875,15.625 c -0.08779,-0.946211 -0.499493,-1.832841 -1.1875,-2.5 C 74.003873,12.37118 72.957323,11.966273 71.875,12 Z" />
      <path
         inkscape:connector-curvature="0"
         style="opacity:0.5;fill:#9d3a9b;stroke-width:0.68008149;filter:url(#E)"
         id="path183"
         transform="matrix(-0.23400446,0,0,-0.22601569,11.970369,20.594011)"
         d="M 11.6875,59.125 9.5,60.875 C 8.5501441,61.634129 8,62.784063 8,64 c 10e-8,1.215937 0.5501441,2.365871 1.5,3.125 l 3.53125,2.8125 2.125,-5.625 z" />
    </g>
    <path
       d="M 1.6197427,9.5475934 8.1088734,14.0916 1.6785297,18.484608 1.6197397,15.606269 v -3.029338 z"
       id="path193"
       style="fill:#f3b7d9;fill-rule:evenodd;stroke-width:0.12090165"
       inkscape:connector-curvature="0" />
  </g>
</svg>
