<?xml version="1.0" encoding="UTF-8"?>
<svg xmlns="http://www.w3.org/2000/svg" xmlns:xlink="http://www.w3.org/1999/xlink" width="24px" height="24px" viewBox="0 0 24 24" version="1.1">
<g id="surface1">
<path style="fill-rule:nonzero;fill:rgb(95.294118%,71.764708%,85.09804%);fill-opacity:1;stroke-width:0.264583;stroke-linecap:butt;stroke-linejoin:miter;stroke:rgb(90.196079%,0.784314%,70.588237%);stroke-opacity:1;stroke-miterlimit:4;" d="M 3.836458 2.116667 C 3.836458 3.066824 3.066824 3.836459 2.116667 3.836459 C 1.166509 3.836459 0.396875 3.066824 0.396875 2.116667 C 0.396875 1.166509 1.166509 0.396875 2.116667 0.396875 C 3.066824 0.396875 3.836458 1.166509 3.836458 2.116667 Z M 3.836458 2.116667 " transform="matrix(5.669291,0,0,5.669291,0.00000135166,0)"/>
<path style=" stroke:none;fill-rule:nonzero;fill:rgb(61.56863%,22.745098%,60.784316%);fill-opacity:1;" d="M 16.5 12 C 16.5 14.484375 14.484375 16.5 12 16.5 C 9.515625 16.5 7.5 14.484375 7.5 12 C 7.5 9.515625 9.515625 7.5 12 7.5 C 14.484375 7.5 16.5 9.515625 16.5 12 Z M 16.5 12 "/>
</g>
</svg>
