<?xml version="1.0" encoding="UTF-8" standalone="no"?>
<svg
   xmlns:dc="http://purl.org/dc/elements/1.1/"
   xmlns:cc="http://creativecommons.org/ns#"
   xmlns:rdf="http://www.w3.org/1999/02/22-rdf-syntax-ns#"
   xmlns:svg="http://www.w3.org/2000/svg"
   xmlns="http://www.w3.org/2000/svg"
   xmlns:xlink="http://www.w3.org/1999/xlink"
   xmlns:sodipodi="http://sodipodi.sourceforge.net/DTD/sodipodi-0.dtd"
   xmlns:inkscape="http://www.inkscape.org/namespaces/inkscape"
   height="24"
   width="24"
   version="1.1"
   id="svg60"
   sodipodi:docname="lc_remove.svg"
   inkscape:version="0.92.4 (unknown)"
   inkscape:export-filename="/home/annisaauliarasyidah/Desktop/4_242 (aulia)/lc 222/lc_remove.png"
   inkscape:export-xdpi="96"
   inkscape:export-ydpi="96">
  <metadata
     id="metadata66">
    <rdf:RDF>
      <cc:Work
         rdf:about="">
        <dc:format>image/svg+xml</dc:format>
        <dc:type
           rdf:resource="http://purl.org/dc/dcmitype/StillImage" />
        <dc:title></dc:title>
      </cc:Work>
    </rdf:RDF>
  </metadata>
  <defs
     id="defs64" />
  <sodipodi:namedview
     pagecolor="#ffffff"
     bordercolor="#666666"
     borderopacity="1"
     objecttolerance="10"
     gridtolerance="10"
     guidetolerance="10"
     inkscape:pageopacity="0"
     inkscape:pageshadow="2"
     inkscape:window-width="1366"
     inkscape:window-height="707"
     id="namedview62"
     showgrid="true"
     inkscape:zoom="12.032908"
     inkscape:cx="0.031683083"
     inkscape:cy="8"
     inkscape:window-x="0"
     inkscape:window-y="0"
     inkscape:window-maximized="1"
     inkscape:current-layer="svg60">
    <inkscape:grid
       type="xygrid"
       id="grid886" />
  </sodipodi:namedview>
  <linearGradient
     id="a">
    <stop
       offset="0"
       stop-color="#828282"
       id="stop2" />
    <stop
       offset="1"
       stop-color="#828282"
       stop-opacity="0"
       id="stop4" />
  </linearGradient>
  <linearGradient
     id="b"
     gradientTransform="matrix(0.13461874,0,0,0.16304754,0.28205138,0.00685025)"
     gradientUnits="userSpaceOnUse"
     x1="46.048"
     x2="46.048"
     y1="128.01709"
     y2="16.6203">
    <stop
       offset="0"
       stop-color="#c7cdd7"
       id="stop7" />
    <stop
       offset="1"
       stop-color="#fff"
       id="stop9" />
  </linearGradient>
  <linearGradient
     id="c"
     gradientTransform="matrix(0.13461875,0,0,0.16363815,-0.43589763,-3.5312589)"
     gradientUnits="userSpaceOnUse"
     x1="114.6638"
     x2="114.6638"
     y1="101.334"
     y2="112.0004">
    <stop
       offset="0"
       stop-color="#c9d1dc"
       id="stop12" />
    <stop
       offset="1"
       stop-color="#c9d1dc"
       stop-opacity="0"
       id="stop14" />
  </linearGradient>
  <linearGradient
     id="d"
     gradientTransform="matrix(0.25,0,0,0.15,-1,-0.14914987)"
     gradientUnits="userSpaceOnUse"
     x1="8"
     x2="8"
     xlink:href="#a"
     y1="88"
     y2="108" />
  <linearGradient
     id="e"
     gradientUnits="userSpaceOnUse"
     x1="67.266975"
     x2="67.266975"
     y1="288.20084"
     y2="-27.950958"
     gradientTransform="matrix(0.125,0,0,0.125,0,0.05085)">
    <stop
       offset="0"
       id="stop18" />
    <stop
       offset="1"
       stop-color="#fff"
       id="stop20" />
  </linearGradient>
  <linearGradient
     id="f"
     gradientTransform="matrix(0.25,0,0,0.15,4.0000001,-0.14914987)"
     gradientUnits="userSpaceOnUse"
     x1="8"
     x2="8"
     xlink:href="#a"
     y1="88"
     y2="108" />
  <linearGradient
     id="g"
     gradientTransform="matrix(0.25,0,0,0.15,9.0000001,-0.64914988)"
     gradientUnits="userSpaceOnUse"
     x1="8"
     x2="8"
     xlink:href="#a"
     y1="88"
     y2="108" />
  <linearGradient
     id="h"
     gradientTransform="matrix(0.25,0,0,0.15,14,-0.14914987)"
     gradientUnits="userSpaceOnUse"
     x1="8"
     x2="8"
     xlink:href="#a"
     y1="88"
     y2="108" />
  <linearGradient
     id="i"
     gradientTransform="matrix(0.08620689,0,0,0.19067796,-0.34482763,-0.76435375)"
     gradientUnits="userSpaceOnUse"
     x1="56"
     x2="56.200001"
     y1="35.741943"
     y2="30.230833">
    <stop
       offset="0"
       stop-color="#1f620a"
       id="stop26" />
    <stop
       offset="1"
       stop-color="#3d9c10"
       stop-opacity=".94902"
       id="stop28" />
  </linearGradient>
  <radialGradient
     id="j"
     cx="-32"
     cy="9.6000004"
     gradientTransform="matrix(0.38451191,0.38451191,-1.9225596,1.9225596,35.490334,-4.6961185)"
     gradientUnits="userSpaceOnUse"
     r="5.5999999">
    <stop
       offset="0"
       stop-color="#a50606"
       id="stop31" />
    <stop
       offset="1"
       stop-color="#f20909"
       id="stop33" />
  </radialGradient>
  <g
     id="g854"
     transform="matrix(1.5,0,0,1.4991576,0,-0.01190326)"
     style="stroke-width:0.66685396">
    <path
       d="m 1,13.05085 h 14 v 2.181788 H 1 Z"
       id="path36"
       style="opacity:0.764706;fill:#f3b7d9;stroke-width:0.08335675"
       inkscape:connector-curvature="0" />
    <path
       d="m 1,3.05085 h 14 v 10 H 1 Z"
       id="path38"
       style="fill:#f3b7d9;stroke-width:0.08335675"
       inkscape:connector-curvature="0" />
    <path
       d="m 0,13.05085 h 1 v 3 H 0 Z"
       id="path40"
       style="fill:#e602b4;stroke-width:0.08335675"
       inkscape:connector-curvature="0" />
    <path
       d="m 0,3.05085 v 0.5 2.5 0.5 2.5 0.5 3.289063 0.210937 h 1 4 1 4 1 4 1 V 12.839913 3.05085 H 1 Z m 1,0.5 h 4 v 2.5 H 1 Z m 5,0 h 4 v 2.5 H 6 Z m 5,0 h 4 v 2.5 h -4 z m -10,3 h 4 v 2.5 H 1 Z m 5,0 h 4 v 2.5 H 6 Z m 5,0 h 4 v 2.5 h -4 z m -10,3 h 4 v 3.289063 H 1 Z m 5,0 h 4 v 3.289063 H 6 Z m 5,0 h 4 v 3.289063 h -4 z"
       id="path42"
       style="fill:#e602b4;stroke-width:0.08335675"
       inkscape:connector-curvature="0" />
    <path
       d="m 5,13.05085 h 1 v 3 H 5 Z"
       id="path44"
       style="fill:#e602b4;stroke-width:0.08335675"
       inkscape:connector-curvature="0" />
    <path
       d="m 10,13 h 1 v 3 h -1 z"
       id="path46"
       style="fill:#e602b4;stroke-width:0.08335675"
       inkscape:connector-curvature="0" />
    <path
       d="m 15,13.05085 h 1 v 3 h -1 z"
       id="path48"
       style="fill:#e602b4;stroke-width:0.08335675"
       inkscape:connector-curvature="0" />
    <path
       d="M 0,3 16,2.9491525 V 6 L 0,6.0508475 Z"
       id="path50"
       style="fill:#9d3a9b;stroke-width:0.08549726"
       inkscape:connector-curvature="0" />
    <path
       style="fill:#f0e3ec;fill-opacity:1;stroke-width:0.08335675"
       inkscape:connector-curvature="0"
       id="path52"
       d="M 1.4003906,3 1.4121094,3.0117188 0.3125,4.1113281 A 1.2456298,1.2456298 0 0 0 0,4.6347656 v 0.7070313 a 1.2456298,1.2456298 0 0 0 0.3125,0.53125 l 0.9902344,0.9882812 a 1.2456298,1.2456298 0 0 0 1.7597656,0 L 4.1640625,5.7617188 5.2636719,6.8613281 a 1.2456298,1.2456298 0 0 0 1.7597656,0 L 8.0136719,5.8730469 a 1.2456298,1.2456298 0 0 0 0,-1.7617188 L 6.9140625,3.0117188 6.9257812,3 Z" />
    <path
       inkscape:connector-curvature="0"
       style="fill:url(#j);stroke-width:0.08335675"
       id="path54"
       d="M 6.1435938,0.041859 4.1631426,2.0223103 2.1826914,0.041859 1.1938464,1.030704 3.1742976,3.0111552 1.1938464,4.9916065 2.1826914,5.9804515 4.1631426,4.0000002 6.1435938,5.9804515 7.1324388,4.9916065 5.1519876,3.0111552 7.1324388,1.030704 Z" />
  </g>
</svg>
