<?xml version="1.0" encoding="UTF-8"?>
<svg xmlns="http://www.w3.org/2000/svg" xmlns:xlink="http://www.w3.org/1999/xlink" width="24px" height="24px" viewBox="0 0 24 24" version="1.1">
<g id="surface1">
<path style="fill-rule:evenodd;fill:rgb(94.117647%,89.019608%,92.54902%);fill-opacity:1;stroke-width:1;stroke-linecap:round;stroke-linejoin:round;stroke:rgb(90.196079%,0.784314%,70.588237%);stroke-opacity:1;stroke-miterlimit:4;" d="M -7.493573 14.547949 L 1.501218 14.547949 C 2.053302 14.547949 2.501218 14.995866 2.501218 15.547949 L 2.501218 26.514095 C 2.501218 27.066179 2.053302 27.514095 1.501218 27.514095 L -7.493573 27.514095 C -8.045657 27.514095 -8.493573 27.066179 -8.493573 26.514095 L -8.493573 15.547949 C -8.493573 14.995866 -8.045657 14.547949 -7.493573 14.547949 Z M -7.493573 14.547949 " transform="matrix(1.5,0,0,1.5,16.49036,-19.521143)"/>
<path style="fill-rule:nonzero;fill:rgb(61.56863%,22.745098%,60.784316%);fill-opacity:1;stroke-width:0.25;stroke-linecap:butt;stroke-linejoin:miter;stroke:rgb(61.56863%,22.745098%,60.784316%);stroke-opacity:1;stroke-miterlimit:4;" d="M -1.727948 16.641699 C -1.69149 16.24847 -1.412844 15.962012 -1.061282 15.962012 C -0.826907 15.962012 -0.613365 16.087012 -0.493573 16.287533 C -0.373782 16.084408 -0.170657 15.962012 0.0611143 15.962012 C 0.410073 15.962012 0.691323 16.24847 0.727781 16.641699 C 0.730385 16.659929 0.740802 16.751074 0.706948 16.902116 C 0.654864 17.115658 0.537677 17.313574 0.365802 17.46722 L -0.493573 18.243262 L -1.365969 17.46722 C -1.537844 17.313574 -1.657636 17.115658 -1.707115 16.902116 C -1.743573 16.751074 -1.730552 16.659929 -1.727948 16.641699 Z M -1.615969 16.878679 C -1.569094 17.076595 -1.459719 17.256283 -1.303469 17.396908 L -0.493573 18.118262 L 0.300698 17.399512 C 0.459552 17.256283 0.566323 17.076595 0.613198 16.878679 C 0.647052 16.738054 0.634031 16.657324 0.634031 16.657324 L 0.634031 16.652116 C 0.602781 16.308366 0.360593 16.055762 0.0611143 16.055762 C -0.162844 16.055762 -0.358157 16.191179 -0.449302 16.409929 L -0.493573 16.514095 L -0.537844 16.409929 C -0.62899 16.196387 -0.834719 16.055762 -1.061282 16.055762 C -1.363365 16.055762 -1.602948 16.308366 -1.634198 16.657324 C -1.634198 16.657324 -1.649823 16.738054 -1.615969 16.878679 Z M -1.615969 16.878679 " transform="matrix(1.5,0,0,1.5,16.49036,-19.521143)"/>
<path style="fill:none;stroke-width:1;stroke-linecap:round;stroke-linejoin:miter;stroke:rgb(90.196079%,0.784314%,70.588237%);stroke-opacity:1;stroke-miterlimit:4;" d="M -6.498782 19.501074 L 0.824135 19.501074 " transform="matrix(1.5,0,0,1.5,16.49036,-19.521143)"/>
<path style="fill:none;stroke-width:1;stroke-linecap:round;stroke-linejoin:miter;stroke:rgb(90.196079%,0.784314%,70.588237%);stroke-opacity:1;stroke-miterlimit:4;" d="M -6.498782 21.501074 L 0.824135 21.501074 " transform="matrix(1.5,0,0,1.5,16.49036,-19.521143)"/>
<path style="fill:none;stroke-width:1;stroke-linecap:round;stroke-linejoin:miter;stroke:rgb(90.196079%,0.784314%,70.588237%);stroke-opacity:1;stroke-miterlimit:4;" d="M -6.498782 23.501074 L 0.824135 23.501074 " transform="matrix(1.5,0,0,1.5,16.49036,-19.521143)"/>
<path style="fill-rule:nonzero;fill:rgb(94.117647%,89.019608%,92.54902%);fill-opacity:1;stroke-width:1.5;stroke-linecap:round;stroke-linejoin:miter;stroke:rgb(94.117647%,89.019608%,92.54902%);stroke-opacity:1;stroke-miterlimit:4;" d="M -1.000358 0.999469 L -5.000358 4.999469 " transform="matrix(1.5,0,0,1.5,10.141163,1.168766)"/>
<path style="fill:none;stroke-width:1.5;stroke-linecap:round;stroke-linejoin:miter;stroke:rgb(94.117647%,89.019608%,92.54902%);stroke-opacity:1;stroke-miterlimit:4;" d="M -5.000358 0.999469 L -1.000358 4.999469 " transform="matrix(1.5,0,0,1.5,10.141163,1.168766)"/>
<path style="fill-rule:nonzero;fill:rgb(61.56863%,22.745098%,60.784316%);fill-opacity:1;stroke-width:1;stroke-linecap:round;stroke-linejoin:miter;stroke:rgb(61.56863%,22.745098%,60.784316%);stroke-opacity:1;stroke-miterlimit:4;" d="M -5.000358 0.999469 L -1.000358 4.999469 " transform="matrix(1.5,0,0,1.5,10.141163,1.168766)"/>
<path style="fill:none;stroke-width:1;stroke-linecap:round;stroke-linejoin:miter;stroke:rgb(61.56863%,22.745098%,60.784316%);stroke-opacity:1;stroke-miterlimit:4;" d="M -1.000358 0.999469 L -5.000358 4.999469 " transform="matrix(1.5,0,0,1.5,10.141163,1.168766)"/>
<path style="fill-rule:nonzero;fill:rgb(94.117647%,89.019608%,92.54902%);fill-opacity:1;stroke-width:1.5;stroke-linecap:round;stroke-linejoin:miter;stroke:rgb(94.117647%,89.019608%,92.54902%);stroke-opacity:1;stroke-miterlimit:4;" d="M -1.000185 0.999642 L -5.000185 4.999642 " transform="matrix(1.5,0,0,1.5,10.113559,10.141163)"/>
<path style="fill:none;stroke-width:1.5;stroke-linecap:round;stroke-linejoin:miter;stroke:rgb(94.117647%,89.019608%,92.54902%);stroke-opacity:1;stroke-miterlimit:4;" d="M -5.000185 0.999642 L -1.000185 4.999642 " transform="matrix(1.5,0,0,1.5,10.113559,10.141163)"/>
<path style="fill-rule:nonzero;fill:rgb(61.56863%,22.745098%,60.784316%);fill-opacity:1;stroke-width:1;stroke-linecap:round;stroke-linejoin:miter;stroke:rgb(61.56863%,22.745098%,60.784316%);stroke-opacity:1;stroke-miterlimit:4;" d="M -5.000185 0.999642 L -1.000185 4.999642 " transform="matrix(1.5,0,0,1.5,10.113559,10.141163)"/>
<path style="fill:none;stroke-width:1;stroke-linecap:round;stroke-linejoin:miter;stroke:rgb(61.56863%,22.745098%,60.784316%);stroke-opacity:1;stroke-miterlimit:4;" d="M -1.000185 0.999642 L -5.000185 4.999642 " transform="matrix(1.5,0,0,1.5,10.113559,10.141163)"/>
</g>
</svg>
