<?xml version="1.0" encoding="UTF-8"?>
<svg xmlns="http://www.w3.org/2000/svg" xmlns:xlink="http://www.w3.org/1999/xlink" width="24px" height="24px" viewBox="0 0 24 24" version="1.1">
<defs>
<linearGradient id="linear0" gradientUnits="userSpaceOnUse" x1="28.940924" y1="64.378441" x2="121.36113" y2="52.6054" spreadMethod="reflect" gradientTransform="matrix(0.104287,0,0,0.127637,1.351719,0.322876)">
<stop offset="0" style="stop-color:rgb(90.588236%,90.588236%,90.588236%);stop-opacity:1;"/>
<stop offset="1" style="stop-color:rgb(97.254902%,97.254902%,97.254902%);stop-opacity:1;"/>
</linearGradient>
</defs>
<g id="surface1">
<path style="fill-rule:nonzero;fill:url(#linear0);stroke-width:1;stroke-linecap:round;stroke-linejoin:round;stroke:rgb(90.196079%,0.784314%,70.588237%);stroke-opacity:1;stroke-miterlimit:4;" d="M 8.007813 2 C 5.132813 2 2.796875 2.570312 2.796875 3.223958 C 2.796875 4.570312 6.848959 8.723958 6.848959 8.723958 C 6.864584 8.747396 6.885417 8.789062 6.882813 8.835937 L 6.882813 14.763021 C 6.882813 14.908854 7.085938 15 7.880209 15 C 8.65625 15 9.132813 14.929687 9.132813 14.763021 C 9.132813 14.763021 9.132813 14.760416 9.132813 14.760416 L 9.127604 8.835937 C 9.127604 8.807291 9.130209 8.776041 9.143229 8.752604 C 9.143229 8.752604 13.203125 4.533854 13.203125 3.174479 C 13.203125 2.710937 10.885417 2 8.007813 2 Z M 8.007813 2 " transform="matrix(1.5,0,0,1.5,-0.000000375,-0.75)"/>
<path style="fill:none;stroke-width:1;stroke-linecap:round;stroke-linejoin:round;stroke:rgb(90.196079%,0.784314%,70.588237%);stroke-opacity:1;stroke-miterlimit:4;" d="M 13.153646 3.315104 C 13.153646 4.013021 10.846354 4.578125 8 4.578125 C 5.153646 4.578125 2.846354 4.013021 2.846354 3.315104 C 2.846354 2.617187 5.153646 2.049479 8 2.049479 C 10.846354 2.049479 13.153646 2.617187 13.153646 3.315104 Z M 13.153646 3.315104 " transform="matrix(1.5,0,0,1.5,-0.000000375,-0.75)"/>
<path style="fill-rule:nonzero;fill:rgb(94.117647%,89.019608%,92.54902%);fill-opacity:1;stroke-width:2;stroke-linecap:round;stroke-linejoin:miter;stroke:rgb(94.117647%,89.019608%,92.54902%);stroke-opacity:1;stroke-miterlimit:4;" d="M -1 1 L -5 5 " transform="matrix(1.5,0,0,1.5,10.5,1.5)"/>
<path style="fill:none;stroke-width:2;stroke-linecap:round;stroke-linejoin:miter;stroke:rgb(94.117647%,89.019608%,92.54902%);stroke-opacity:1;stroke-miterlimit:4;" d="M -5 1 L -1 5 " transform="matrix(1.5,0,0,1.5,10.5,1.5)"/>
<path style="fill-rule:nonzero;fill:rgb(61.56863%,22.745098%,60.784316%);fill-opacity:1;stroke-width:1;stroke-linecap:round;stroke-linejoin:miter;stroke:rgb(61.56863%,22.745098%,60.784316%);stroke-opacity:1;stroke-miterlimit:4;" d="M -5 1 L -1 5 " transform="matrix(1.5,0,0,1.5,10.5,1.5)"/>
<path style="fill:none;stroke-width:1;stroke-linecap:round;stroke-linejoin:miter;stroke:rgb(61.56863%,22.745098%,60.784316%);stroke-opacity:1;stroke-miterlimit:4;" d="M -1 1 L -5 5 " transform="matrix(1.5,0,0,1.5,10.5,1.5)"/>
</g>
</svg>
