<?xml version="1.0" encoding="UTF-8" standalone="no"?>
<svg
   xmlns:dc="http://purl.org/dc/elements/1.1/"
   xmlns:cc="http://creativecommons.org/ns#"
   xmlns:rdf="http://www.w3.org/1999/02/22-rdf-syntax-ns#"
   xmlns:svg="http://www.w3.org/2000/svg"
   xmlns="http://www.w3.org/2000/svg"
   xmlns:xlink="http://www.w3.org/1999/xlink"
   xmlns:sodipodi="http://sodipodi.sourceforge.net/DTD/sodipodi-0.dtd"
   xmlns:inkscape="http://www.inkscape.org/namespaces/inkscape"
   height="24"
   viewBox="0 0 6.3499999 6.3500002"
   width="24"
   version="1.1"
   id="svg36"
   sodipodi:docname="lc_romanliststyle.svg"
   inkscape:version="0.92.4 (unknown)"
   inkscape:export-filename="/home/annisaauliarasyidah/Desktop/4_242 (aulia)/lc 222/lc_romanliststyle.png"
   inkscape:export-xdpi="96"
   inkscape:export-ydpi="96">
  <metadata
     id="metadata42">
    <rdf:RDF>
      <cc:Work
         rdf:about="">
        <dc:format>image/svg+xml</dc:format>
        <dc:type
           rdf:resource="http://purl.org/dc/dcmitype/StillImage" />
        <dc:title></dc:title>
      </cc:Work>
    </rdf:RDF>
  </metadata>
  <defs
     id="defs40" />
  <sodipodi:namedview
     pagecolor="#ffffff"
     bordercolor="#666666"
     borderopacity="1"
     objecttolerance="10"
     gridtolerance="10"
     guidetolerance="10"
     inkscape:pageopacity="0"
     inkscape:pageshadow="2"
     inkscape:window-width="1366"
     inkscape:window-height="707"
     id="namedview38"
     showgrid="true"
     inkscape:zoom="10.392363"
     inkscape:cx="-6.453974"
     inkscape:cy="8"
     inkscape:window-x="0"
     inkscape:window-y="0"
     inkscape:window-maximized="1"
     inkscape:current-layer="svg36">
    <inkscape:grid
       type="xygrid"
       id="grid849" />
  </sodipodi:namedview>
  <linearGradient
     id="a">
    <stop
       offset="0"
       stop-color="#06f"
       id="stop2" />
    <stop
       offset="1"
       stop-color="#80b3ff"
       id="stop4" />
  </linearGradient>
  <linearGradient
     id="b"
     gradientUnits="userSpaceOnUse"
     x1="30.368584"
     x2="35.48856"
     xlink:href="#a"
     y1="33.42857"
     y2="-22.285715" />
  <linearGradient
     id="c"
     gradientUnits="userSpaceOnUse"
     x1="40.401783"
     x2="35.48856"
     xlink:href="#a"
     y1="7.0803819"
     y2="-22.285715"
     gradientTransform="matrix(0.02645833,0,0,0.02645833,0.3862446,2.326206)" />
  <linearGradient
     id="d"
     gradientUnits="userSpaceOnUse"
     x1="28.044643"
     x2="35.48856"
     xlink:href="#a"
     y1="17.008949"
     y2="-22.285715"
     gradientTransform="matrix(0.02645833,0,0,0.02645833,-0.3451394,2.328096)" />
  <g
     id="g840"
     transform="matrix(1.6103107,0,0,1.6007526,0.01437709,-0.2130698)"
     style="stroke-width:0.6228494">
    <path
       style="fill:#e602b4;stroke-width:0.6228494"
       id="path10"
       transform="matrix(0.02645833,0,0,0.02645833,0.224896,0.211667)"
       d="M 20,0.15429688 A 7.8457428,7.8457428 0 0 0 12.154297,8 V 20 A 7.8457428,7.8457428 0 0 0 20,27.845703 h 0.154297 v 8.308594 H 20 A 7.8457428,7.8457428 0 0 0 12.154297,44 V 56 A 7.8457428,7.8457428 0 0 0 20,63.845703 H 48 A 7.8457428,7.8457428 0 0 0 55.845703,56 V 44 A 7.8457428,7.8457428 0 0 0 48,36.154297 H 47.845703 V 27.845703 H 48 A 7.8457428,7.8457428 0 0 0 55.845703,20 V 8 A 7.8457428,7.8457428 0 0 0 48,0.15429688 Z"
       inkscape:connector-curvature="0" />
    <path
       style="fill:#f3b7d9;stroke-width:0.6228494"
       id="path12"
       transform="matrix(0.02645833,0,0,0.02645833,0.224896,0.211667)"
       d="m 20,8 v 12 h 8 V 44 H 20 V 56 H 48 V 44 H 40 V 20 h 8 V 8 Z"
       inkscape:connector-curvature="0" />
    <path
       d="M 0.1840272,2.3321784 A 0.20758525,0.20758525 0 0 0 -0.023557,2.5397626 v 0.3175 a 0.20758525,0.20758525 0 0 0 0.2075842,0.2075842 h 0.004082 V 3.2846783 H 0.1840272 A 0.20758525,0.20758525 0 0 0 -0.023557,3.4922625 v 0.3175 A 0.20758525,0.20758525 0 0 0 0.1840272,4.0173467 H 0.92486044 A 0.20758525,0.20758525 0 0 0 1.1324446,3.8097625 v -0.3175 A 0.20758525,0.20758525 0 0 0 0.92486044,3.2846783 H 0.920778 V 3.0648468 H 0.92486 A 0.20758525,0.20758525 0 0 0 1.1324446,2.8572626 v -0.3175 A 0.20758525,0.20758525 0 0 0 0.92486044,2.3321784 Z"
       id="path24"
       style="fill:#e602b4;stroke-width:0.01647956"
       inkscape:connector-curvature="0" />
    <path
       d="M 0.9154112,2.3302884 A 0.20758525,0.20758525 0 0 0 0.707827,2.5378726 v 0.3175 a 0.20758525,0.20758525 0 0 0 0.2075842,0.2075842 h 0.004082 V 3.2827883 H 0.9154112 A 0.20758525,0.20758525 0 0 0 0.707827,3.4903725 v 0.3175 A 0.20758525,0.20758525 0 0 0 0.9154112,4.0154567 H 1.6562444 A 0.20758525,0.20758525 0 0 0 1.8638286,3.8078725 v -0.3175 A 0.20758525,0.20758525 0 0 0 1.6562444,3.2827883 H 1.652162 V 3.0629568 h 0.00408 A 0.20758525,0.20758525 0 0 0 1.8638286,2.8553726 v -0.3175 A 0.20758525,0.20758525 0 0 0 1.6562444,2.3302884 Z"
       id="path26"
       style="fill:#e602b4;stroke-width:0.01647956"
       inkscape:connector-curvature="0" />
    <g
       transform="matrix(0.1,0,0,0.1,0.395694,-25.678569)"
       id="g32"
       style="fill:#f3b7d9;stroke-width:0.6228494">
      <path
         style="fill:#f3b7d9;stroke-width:0.6228494"
         d="m -2.1166669,282.18332 v 3.175 H -3e-7 v 6.35 h -2.1166666 v 3.175 h 7.4083334 v -3.175 h -2.116667 v -6.35 h 2.116667 v -3.175 z"
         id="path28"
         inkscape:connector-curvature="0" />
      <path
         style="fill:#f3b7d9;stroke-width:0.6228494"
         d="m 5.1971726,282.16442 v 3.175 h 2.1166666 v 6.35 H 5.1971726 v 3.175 h 7.4083334 v -3.175 h -2.116667 v -6.35 h 2.116667 v -3.175 z"
         id="path30"
         inkscape:connector-curvature="0" />
    </g>
    <path
       style="fill:#9d3a9b;stroke:#9d3a9b;stroke-width:0.16479556;stroke-linecap:round;stroke-linejoin:miter;stroke-miterlimit:4;stroke-dasharray:none;stroke-opacity:1"
       d="M 1.984375,0.92604168 H 3.8364584"
       id="path846"
       inkscape:connector-curvature="0" />
    <path
       inkscape:connector-curvature="0"
       id="path857"
       d="M 1.984375,1.4479595 H 3.8364584"
       style="fill:#9d3a9b;stroke:#9d3a9b;stroke-width:0.16479556;stroke-linecap:round;stroke-linejoin:miter;stroke-miterlimit:4;stroke-dasharray:none;stroke-opacity:1" />
    <path
       style="fill:#9d3a9b;stroke:#9d3a9b;stroke-width:0.16479556;stroke-linecap:round;stroke-linejoin:miter;stroke-miterlimit:4;stroke-dasharray:none;stroke-opacity:1"
       d="M 1.984375,3.0427084 H 3.8364584"
       id="path859"
       inkscape:connector-curvature="0" />
    <path
       inkscape:connector-curvature="0"
       id="path861"
       d="M 1.984375,2.5135417 H 3.8364584"
       style="fill:#9d3a9b;stroke:#9d3a9b;stroke-width:0.16479556;stroke-linecap:round;stroke-linejoin:miter;stroke-miterlimit:4;stroke-dasharray:none;stroke-opacity:1" />
  </g>
</svg>
