<?xml version="1.0" encoding="UTF-8"?>
<svg xmlns="http://www.w3.org/2000/svg" xmlns:xlink="http://www.w3.org/1999/xlink" width="24px" height="24px" viewBox="0 0 24 24" version="1.1">
<g id="surface1">
<path style="fill-rule:evenodd;fill:rgb(94.117647%,89.019608%,92.54902%);fill-opacity:1;stroke-width:0.264583;stroke-linecap:butt;stroke-linejoin:miter;stroke:rgb(90.196079%,0.784314%,70.588237%);stroke-opacity:1;stroke-miterlimit:4;" d="M 0.445795 1.719792 L 2.464621 1.719792 C 2.491493 1.719792 2.513542 1.745974 2.513542 1.778358 L 2.513542 3.777892 C 2.513542 3.810276 2.491493 3.836458 2.464621 3.836458 L 0.445795 3.836458 C 0.418924 3.836458 0.396875 3.810276 0.396875 3.777892 L 0.396875 1.778358 C 0.396875 1.745974 0.418924 1.719792 0.445795 1.719792 Z M 0.445795 1.719792 " transform="matrix(0,5.669291,5.669291,0,0.00000135166,0)"/>
<path style="fill-rule:evenodd;fill:rgb(95.294118%,71.764708%,85.09804%);fill-opacity:1;stroke-width:0.264583;stroke-linecap:butt;stroke-linejoin:miter;stroke:rgb(61.56863%,22.745098%,60.784316%);stroke-opacity:1;stroke-miterlimit:4;" d="M 1.768712 0.396875 L 3.787538 0.396875 C 3.81441 0.396875 3.836459 0.423058 3.836459 0.455441 L 3.836459 2.454975 C 3.836459 2.487359 3.81441 2.513542 3.787538 2.513542 L 1.768712 2.513542 C 1.74184 2.513542 1.719792 2.487359 1.719792 2.454975 L 1.719792 0.455441 C 1.719792 0.423058 1.74184 0.396875 1.768712 0.396875 Z M 1.768712 0.396875 " transform="matrix(0,5.669291,5.669291,0,0.00000135166,0)"/>
<path style="fill:none;stroke-width:0.483425;stroke-linecap:round;stroke-linejoin:round;stroke:rgb(61.56863%,22.745098%,60.784316%);stroke-opacity:1;stroke-miterlimit:4;" d="M 0.375329 1.191296 C 0.375329 1.191296 1.036939 1.85278 0.905124 2.910654 " transform="matrix(-3.081971,0,0,3.123895,7.906754,-1.471483)"/>
<path style="fill:none;stroke-width:0.483425;stroke-linecap:round;stroke-linejoin:round;stroke:rgb(61.56863%,22.745098%,60.784316%);stroke-opacity:1;stroke-miterlimit:4;" d="M 1.565467 2.24917 L 0.905124 3.043201 L 0.110432 2.381717 " transform="matrix(-3.081971,0,0,3.123895,7.906754,-1.471483)"/>
<path style="fill:none;stroke-width:0.492221;stroke-linecap:round;stroke-linejoin:round;stroke:rgb(61.56863%,22.745098%,60.784316%);stroke-opacity:1;stroke-miterlimit:4;" d="M 0.375658 1.191296 C 0.375658 1.191296 1.036512 1.853165 0.9051 2.911637 " transform="matrix(3.091407,0,0,-3.004037,16.158999,25.328697)"/>
<path style="fill:none;stroke-width:0.492221;stroke-linecap:round;stroke-linejoin:round;stroke:rgb(61.56863%,22.745098%,60.784316%);stroke-opacity:1;stroke-miterlimit:4;" d="M 1.565954 2.249767 L 0.9051 3.04297 L 0.110306 2.382401 " transform="matrix(3.091407,0,0,-3.004037,16.158999,25.328697)"/>
</g>
</svg>
