<?xml version="1.0" encoding="UTF-8"?>
<svg xmlns="http://www.w3.org/2000/svg" xmlns:xlink="http://www.w3.org/1999/xlink" width="24px" height="24px" viewBox="0 0 24 24" version="1.1">
<g id="surface1">
<path style="fill-rule:evenodd;fill:rgb(94.117647%,89.019608%,92.54902%);fill-opacity:1;stroke-width:1;stroke-linecap:round;stroke-linejoin:round;stroke:rgb(90.196079%,0.784314%,70.588237%);stroke-opacity:1;stroke-miterlimit:4;" d="M 3.5 1.533854 L 12.494792 1.533854 C 13.046875 1.533854 13.494792 1.981771 13.494792 2.533854 L 13.494792 13.5 C 13.494792 14.052083 13.046875 14.5 12.494792 14.5 L 3.5 14.5 C 2.947917 14.5 2.5 14.052083 2.5 13.5 L 2.5 2.533854 C 2.5 1.981771 2.947917 1.533854 3.5 1.533854 Z M 3.5 1.533854 " transform="matrix(1.5,0,0,1.5,0,0)"/>
<path style=" stroke:none;fill-rule:nonzero;fill:rgb(100%,0%,0%);fill-opacity:1;" d="M 6 13.5 L 12 13.5 L 12 18 L 6 18 Z M 6 13.5 "/>
<path style=" stroke:none;fill-rule:nonzero;fill:rgb(100%,0%,0%);fill-opacity:1;" d="M 9 9 L 16.5 9 L 16.5 12 L 9 12 Z M 9 9 "/>
<path style=" stroke:none;fill-rule:nonzero;fill:rgb(100%,0%,0%);fill-opacity:1;" d="M 6 4.5 L 13.5 4.5 L 13.5 7.5 L 6 7.5 Z M 6 4.5 "/>
<path style="fill-rule:nonzero;fill:rgb(95.294118%,71.764708%,85.09804%);fill-opacity:1;stroke-width:0.388796;stroke-linecap:butt;stroke-linejoin:miter;stroke:rgb(61.56863%,22.745098%,60.784316%);stroke-opacity:1;stroke-miterlimit:4;" d="M 13.901754 1.912791 L 12.699065 3.512002 L 14.299253 4.712249 L 15.498545 3.113038 L 14.999123 2.110597 Z M 13.901754 1.912791 " transform="matrix(1.149767,0,0,1.165125,1.149036,0.341672)"/>
<path style="fill-rule:nonzero;fill:rgb(95.294118%,71.764708%,85.09804%);fill-opacity:1;stroke-width:0.259197;stroke-linecap:butt;stroke-linejoin:miter;stroke:rgb(61.56863%,22.745098%,60.784316%);stroke-opacity:1;stroke-miterlimit:4;" d="M 7.793179 11.705865 L 8.194075 9.506531 L 8.893945 9.409304 L 8.785228 9.952432 L 9.301637 9.714395 L 9.186124 10.250818 L 9.702533 10.016133 L 9.794264 10.71013 L 7.793179 11.705865 " transform="matrix(1.149767,0,0,1.165125,1.149036,0.341672)"/>
<path style="fill-rule:nonzero;fill:rgb(61.56863%,22.745098%,60.784316%);fill-opacity:1;stroke-width:0.129599;stroke-linecap:butt;stroke-linejoin:miter;stroke:rgb(61.56863%,22.745098%,60.784316%);stroke-opacity:1;stroke-miterlimit:4;" d="M 8.132922 10.592787 L 8.67651 11.042042 L 7.793179 11.715923 Z M 8.132922 10.592787 " transform="matrix(1.149767,0,0,1.165125,1.149036,0.341672)"/>
<path style="fill-rule:nonzero;fill:rgb(90.196079%,0.784314%,70.588237%);fill-opacity:1;stroke-width:0.129599;stroke-linecap:butt;stroke-linejoin:miter;stroke:rgb(61.56863%,22.745098%,60.784316%);stroke-opacity:1;stroke-miterlimit:4;" d="M 12.699065 3.512002 L 14.299253 4.712249 L 9.794264 10.71013 L 9.702533 10.016133 L 9.186124 10.250818 L 9.230291 9.794858 L 8.785228 9.952432 L 8.839587 9.483062 L 8.194075 9.506531 Z M 12.699065 3.512002 " transform="matrix(1.149767,0,0,1.165125,1.149036,0.341672)"/>
<path style="fill:none;stroke-width:0.90719;stroke-linecap:butt;stroke-linejoin:round;stroke:rgb(61.56863%,22.745098%,60.784316%);stroke-opacity:1;stroke-miterlimit:4;" d="M 13.599383 2.311756 L 8.194075 9.506531 L 7.494205 12.108183 L 9.794264 10.71013 L 15.199571 3.512002 C 15.997967 2.479388 14.431753 1.235557 13.599383 2.311756 Z M 13.599383 2.311756 " transform="matrix(1.149767,0,0,1.165125,1.149036,0.341672)"/>
</g>
</svg>
