<?xml version="1.0" encoding="UTF-8"?>
<svg xmlns="http://www.w3.org/2000/svg" xmlns:xlink="http://www.w3.org/1999/xlink" width="24px" height="24px" viewBox="0 0 24 24" version="1.1">
<g id="surface1">
<path style="fill-rule:evenodd;fill:rgb(94.117647%,89.019608%,92.54902%);fill-opacity:1;stroke-width:1;stroke-linecap:round;stroke-linejoin:round;stroke:rgb(90.196079%,0.784314%,70.588237%);stroke-opacity:1;stroke-miterlimit:4;" d="M 8.00521 13.500376 L 17.000002 13.500376 C 17.552085 13.500376 18.000002 13.948293 18.000002 14.500376 L 18.000002 25.466522 C 18.000002 26.018605 17.552085 26.466522 17.000002 26.466522 L 8.00521 26.466522 C 7.453127 26.466522 7.00521 26.018605 7.00521 25.466522 L 7.00521 14.500376 C 7.00521 13.948293 7.453127 13.500376 8.00521 13.500376 Z M 8.00521 13.500376 " transform="matrix(1.5,0,0,1.5,-6.750003,-17.949783)"/>
<path style=" stroke:none;fill-rule:nonzero;fill:rgb(40.000001%,40.000001%,40.000001%);fill-opacity:1;" d="M 6 13.5 L 12 13.5 L 12 18 L 6 18 Z M 6 13.5 "/>
<path style=" stroke:none;fill-rule:nonzero;fill:rgb(40.000001%,40.000001%,40.000001%);fill-opacity:1;" d="M 6 4.5 L 13.5 4.5 L 13.5 7.5 L 6 7.5 Z M 6 4.5 "/>
<path style=" stroke:none;fill-rule:nonzero;fill:rgb(40.000001%,40.000001%,40.000001%);fill-opacity:1;" d="M 9 9 L 16.5 9 L 16.5 12 L 9 12 Z M 9 9 "/>
<path style="fill:none;stroke-width:2;stroke-linecap:round;stroke-linejoin:round;stroke:rgb(94.117647%,89.019608%,92.54902%);stroke-opacity:1;stroke-miterlimit:4;" d="M 10 5 L 13.5 5 " transform="matrix(1.5,0,0,1.5,0,0)"/>
<path style="fill:none;stroke-width:2;stroke-linecap:round;stroke-linejoin:round;stroke:rgb(94.117647%,89.019608%,92.54902%);stroke-opacity:1;stroke-miterlimit:4;" d="M 12 3 L 14 5 L 12 7 " transform="matrix(1.5,0,0,1.5,0,0)"/>
<path style="fill:none;stroke-width:1;stroke-linecap:round;stroke-linejoin:round;stroke:rgb(61.56863%,22.745098%,60.784316%);stroke-opacity:1;stroke-miterlimit:4;" d="M 10 5 L 13.5 5 " transform="matrix(1.5,0,0,1.5,0,0)"/>
<path style="fill:none;stroke-width:1;stroke-linecap:round;stroke-linejoin:round;stroke:rgb(61.56863%,22.745098%,60.784316%);stroke-opacity:1;stroke-miterlimit:4;" d="M 12 3 L 14 5 L 12 7 " transform="matrix(1.5,0,0,1.5,0,0)"/>
</g>
</svg>
