<?xml version="1.0" encoding="UTF-8"?>
<svg xmlns="http://www.w3.org/2000/svg" xmlns:xlink="http://www.w3.org/1999/xlink" width="24px" height="24px" viewBox="0 0 24 24" version="1.1">
<g id="surface1">
<path style=" stroke:none;fill-rule:nonzero;fill:rgb(90.196079%,0.784314%,70.588237%);fill-opacity:1;" d="M 22.5 11.050781 L 22.5 11.449219 C 22.5 11.753906 22.207031 12 21.84375 12 L 2.15625 12 C 1.792969 12 1.5 11.753906 1.5 11.449219 L 1.5 11.050781 C 1.5 10.746094 1.792969 10.5 2.15625 10.5 L 21.84375 10.5 C 22.207031 10.5 22.5 10.746094 22.5 11.050781 Z M 22.5 11.050781 "/>
<path style=" stroke:none;fill-rule:evenodd;fill:rgb(90.196079%,0.784314%,70.588237%);fill-opacity:1;" d="M 11.25 12 L 7.503906 15.859375 L 8.246094 16.496094 L 10.5 15.242188 L 10.5 21 L 12 21 L 12 15.242188 L 14.21875 16.496094 L 15.003906 15.855469 Z M 11.25 12 "/>
<path style=" stroke:none;fill-rule:evenodd;fill:rgb(90.196079%,0.784314%,70.588237%);fill-opacity:1;" d="M 11.25 10.5 L 7.5 6 L 8.246094 5.253906 L 10.5 6.714844 L 10.5 1.464844 L 12 1.46875 L 12 6.71875 L 14.21875 5.257812 L 15 6 Z M 11.25 10.5 "/>
</g>
</svg>
