<?xml version="1.0" encoding="UTF-8"?>
<svg xmlns="http://www.w3.org/2000/svg" xmlns:xlink="http://www.w3.org/1999/xlink" width="24px" height="24px" viewBox="0 0 24 24" version="1.1">
<g id="surface1">
<path style="fill-rule:evenodd;fill:rgb(95.294118%,71.764708%,85.09804%);fill-opacity:1;stroke-width:1;stroke-linecap:butt;stroke-linejoin:miter;stroke:rgb(90.196079%,0.784314%,70.588237%);stroke-opacity:1;stroke-miterlimit:4;" d="M -11.307292 -12.932292 L -7.346354 -12.932292 C -7.244792 -12.932292 -7.158854 -12.851562 -7.158854 -12.752604 L -7.158854 -9.645833 C -7.158854 -9.546875 -7.244792 -9.466146 -7.346354 -9.466146 L -11.307292 -9.466146 C -11.411458 -9.466146 -11.494792 -9.546875 -11.494792 -9.645833 L -11.494792 -12.752604 C -11.494792 -12.851562 -11.411458 -12.932292 -11.307292 -12.932292 Z M -11.307292 -12.932292 " transform="matrix(0,-1.5,-1.5,0,0,0)"/>
<path style="fill-rule:evenodd;fill:rgb(95.294118%,71.764708%,85.09804%);fill-opacity:1;stroke-width:1;stroke-linecap:butt;stroke-linejoin:miter;stroke:rgb(90.196079%,0.784314%,70.588237%);stroke-opacity:1;stroke-miterlimit:4;" d="M -11.3125 -6 L -4.752604 -6 C -4.648438 -6 -4.565104 -5.919271 -4.565104 -5.820312 L -4.565104 -2.713542 C -4.565104 -2.614583 -4.648438 -2.53125 -4.752604 -2.53125 L -11.3125 -2.53125 C -11.416667 -2.53125 -11.5 -2.614583 -11.5 -2.713542 L -11.5 -5.820312 C -11.5 -5.919271 -11.416667 -6 -11.3125 -6 Z M -11.3125 -6 " transform="matrix(0,-1.5,-1.5,0,0,0)"/>
<path style="fill:none;stroke-width:1;stroke-linecap:round;stroke-linejoin:miter;stroke:rgb(61.56863%,22.745098%,60.784316%);stroke-opacity:1;stroke-miterlimit:4;" d="M 1.5 14.5 L 14.5 14.5 " transform="matrix(1.5,0,0,1.5,0,0)"/>
<path style="fill:none;stroke-width:1;stroke-linecap:round;stroke-linejoin:round;stroke:rgb(61.56863%,22.745098%,60.784316%);stroke-opacity:1;stroke-miterlimit:4;" d="M 8.932227 1.494279 L 8.999936 4.999488 " transform="matrix(1.5,0,0,1.5,-1.398341,0.0085812)"/>
<path style="fill:none;stroke-width:1;stroke-linecap:round;stroke-linejoin:round;stroke:rgb(61.56863%,22.745098%,60.784316%);stroke-opacity:1;stroke-miterlimit:4;" d="M 7.432227 2.994279 L 8.999936 4.999488 L 10.432227 2.994279 " transform="matrix(1.5,0,0,1.5,-1.398341,0.0085812)"/>
</g>
</svg>
