<?xml version="1.0" encoding="UTF-8"?>
<svg xmlns="http://www.w3.org/2000/svg" xmlns:xlink="http://www.w3.org/1999/xlink" width="24px" height="24px" viewBox="0 0 24 24" version="1.1">
<g id="surface1">
<path style=" stroke:none;fill-rule:nonzero;fill:rgb(90.196079%,0.784314%,70.588237%);fill-opacity:1;" d="M 1.5 8.25 L 22.5 8.25 L 22.5 21.027344 C 16.574219 22.984375 7.578125 23.074219 1.5 21.027344 Z M 1.5 8.25 "/>
<path style=" stroke:none;fill-rule:nonzero;fill:rgb(95.294118%,71.764708%,85.09804%);fill-opacity:1;" d="M 3 9.75 L 21 9.75 L 21 19.527344 C 15.074219 21.484375 9.078125 21.574219 3 19.527344 Z M 3 9.75 "/>
<path style=" stroke:none;fill-rule:nonzero;fill:rgb(61.56863%,22.745098%,60.784316%);fill-opacity:1;" d="M 4.5 4.5 L 19.5 4.5 L 19.5 16.527344 L 4.5 16.527344 Z M 4.5 4.5 "/>
<path style=" stroke:none;fill-rule:nonzero;fill:rgb(95.294118%,71.764708%,85.09804%);fill-opacity:1;" d="M 6 6 L 18 6 L 18 15.027344 L 6 15.027344 Z M 6 6 "/>
<path style=" stroke:none;fill-rule:nonzero;fill:rgb(90.196079%,0.784314%,70.588237%);fill-opacity:1;" d="M 2.25 1.5 L 21.75 1.5 C 22.164062 1.5 22.5 1.835938 22.5 2.25 L 22.5 10.5 C 22.5 10.914062 22.136719 11.097656 21.75 11.25 C 16.023438 13.488281 10.023438 14.933594 2.25 11.25 C 1.875 11.070312 1.5 10.914062 1.5 10.5 L 1.5 2.25 C 1.5 1.835938 1.835938 1.5 2.25 1.5 Z M 2.25 1.5 "/>
<path style=" stroke:none;fill-rule:nonzero;fill:rgb(95.294118%,71.764708%,85.09804%);fill-opacity:1;" d="M 3 3 L 21 3 L 21 10.5 C 15.34375 12.285156 9.425781 12.707031 3 10.5 Z M 3 3 "/>
<path style=" stroke:none;fill-rule:nonzero;fill:rgb(94.117647%,89.019608%,92.54902%);fill-opacity:1;" d="M 3 9 C 9.75 10.5 13.5 10.5 21 9 L 21 10.5 C 15.34375 12.285156 9.425781 12.707031 3 10.5 Z M 3 9 "/>
<path style=" stroke:none;fill-rule:nonzero;fill:rgb(61.56863%,22.745098%,60.784316%);fill-opacity:1;" d="M 4.5 18.027344 L 19.5 18.027344 C 17.25 20.277344 6.75 20.277344 4.5 18.027344 Z M 4.5 18.027344 "/>
</g>
</svg>
