<?xml version="1.0" encoding="UTF-8"?>
<svg xmlns="http://www.w3.org/2000/svg" xmlns:xlink="http://www.w3.org/1999/xlink" width="24px" height="24px" viewBox="0 0 24 24" version="1.1">
<g id="surface1">
<path style=" stroke:none;fill-rule:nonzero;fill:rgb(33.333334%,34.117648%,32.549021%);fill-opacity:1;" d="M 9 1.5 L 9 4.5 L 12 4.5 L 12 1.5 Z M 13.5 1.5 L 13.5 4.5 L 18 4.5 C 19.648438 4.5 21 5.851562 21 7.5 C 21 9.148438 19.648438 10.5 18 10.5 L 13.5 10.5 L 13.5 13.5 L 18 13.5 C 21.300781 13.5 24 10.800781 24 7.5 C 24 4.199219 21.300781 1.5 18 1.5 Z M 7.5 3 L 3 7.5 L 3 22.5 L 21 22.5 L 21 15 L 18 15 L 18 19.5 L 6 19.5 L 6 9 L 7.5 9 Z M 9 10.5 L 9 13.5 L 12 13.5 L 12 10.5 Z M 9 10.5 "/>
</g>
</svg>
