<?xml version="1.0" encoding="UTF-8"?>
<svg xmlns="http://www.w3.org/2000/svg" xmlns:xlink="http://www.w3.org/1999/xlink" width="24px" height="24px" viewBox="0 0 24 24" version="1.1">
<g id="surface1">
<path style=" stroke:none;fill-rule:nonzero;fill:rgb(33.333334%,34.117648%,32.549021%);fill-opacity:1;" d="M 4.5 1.5 L 4.5 17.527344 L 4.078125 16.96875 C 3.792969 16.695312 3.386719 16.5 3 16.5 L 1.5 16.5 L 1.5 18 C 1.5 18.464844 1.636719 18.828125 1.921875 19.125 L 4.746094 22.5 L 7.167969 22.5 C 8.097656 21.414062 8.921875 20.648438 10.078125 19.125 C 10.363281 18.828125 10.5 18.464844 10.5 18 L 10.5 16.5 L 9 16.5 C 8.664062 16.5 8.207031 16.695312 7.921875 16.96875 L 7.5 17.527344 L 7.5 1.5 Z M 13.746094 1.5 L 10.921875 4.875 C 10.636719 5.171875 10.5 5.535156 10.5 6 L 10.5 7.5 L 12 7.5 C 12.386719 7.5 12.792969 7.304688 13.078125 7.03125 L 13.5 6.472656 L 13.5 16.5 L 16.5 16.5 L 16.5 6.472656 L 16.921875 7.03125 C 17.207031 7.304688 17.664062 7.5 18 7.5 L 19.5 7.5 L 19.5 6 C 19.5 5.535156 19.363281 5.171875 19.078125 4.875 C 17.921875 3.351562 17.097656 2.585938 16.167969 1.5 Z M 18 13.5 L 18 15 C 20.339844 17.398438 17.148438 20.25 15 18 L 13.5 18 L 13.5 19.5 C 14.699219 20.65625 15.960938 21 17.101562 21 L 19.5 21 L 22.5 24 L 24 24 L 24 22.5 L 21 19.5 L 21 17.101562 C 21 15.75 20.699219 14.699219 19.5 13.5 Z M 18 13.5 "/>
</g>
</svg>
