<?xml version="1.0" encoding="UTF-8"?>
<svg xmlns="http://www.w3.org/2000/svg" xmlns:xlink="http://www.w3.org/1999/xlink" width="24px" height="24px" viewBox="0 0 24 24" version="1.1">
<defs>
<radialGradient id="radial0" gradientUnits="userSpaceOnUse" cx="949.332092" cy="517.870239" fx="941.931152" fy="440.161255" r="119.397293" gradientTransform="matrix(0.0710476,0.00260955,-0.00216783,0.039916,-54.324601,-15.298766)">
<stop offset="0" style="stop-color:rgb(100%,100%,100%);stop-opacity:1;"/>
<stop offset="1" style="stop-color:rgb(100%,100%,100%);stop-opacity:0;"/>
</radialGradient>
</defs>
<g id="surface1">
<path style=" stroke:none;fill-rule:nonzero;fill:rgb(95.294118%,71.764708%,85.09804%);fill-opacity:1;" d="M 22.5 15.542969 C 22.5 18.261719 17.800781 20.464844 12 20.464844 C 6.199219 20.464844 1.5 18.261719 1.5 15.542969 C 1.5 12.824219 6.199219 10.621094 12 10.621094 C 17.800781 10.621094 22.5 12.824219 22.5 15.542969 Z M 22.5 15.542969 "/>
<path style=" stroke:none;fill-rule:nonzero;fill:rgb(95.294118%,71.764708%,85.09804%);fill-opacity:1;" d="M 22.5 12.597656 C 22.5 15.316406 17.800781 17.519531 12 17.519531 C 6.199219 17.519531 1.5 15.316406 1.5 12.597656 C 1.5 9.882812 6.199219 7.679688 12 7.679688 C 17.800781 7.679688 22.5 9.882812 22.5 12.597656 Z M 22.5 12.597656 "/>
<path style=" stroke:none;fill-rule:nonzero;fill:rgb(61.56863%,22.745098%,60.784316%);fill-opacity:1;" d="M 22.5 15.578125 C 22.5 18.296875 17.796875 20.5 12 20.5 C 6.234375 20.5 1.550781 18.316406 1.5 15.621094 L 1.542969 17.578125 C 1.542969 20.296875 6.203125 22.5 12 22.5 C 17.796875 22.5 22.457031 20.296875 22.457031 17.578125 Z M 22.5 15.578125 "/>
<path style=" stroke:none;fill-rule:nonzero;fill:rgb(61.56863%,22.745098%,60.784316%);fill-opacity:1;" d="M 22.5 9.761719 C 22.5 12.480469 17.796875 14.683594 12 14.683594 C 6.234375 14.683594 1.550781 12.503906 1.5 9.804688 L 1.542969 11.761719 C 1.542969 14.480469 6.203125 16.683594 12 16.683594 C 17.796875 16.683594 22.457031 14.480469 22.457031 11.761719 Z M 22.5 9.761719 "/>
<path style=" stroke:none;fill-rule:nonzero;fill:rgb(95.294118%,71.764708%,85.09804%);fill-opacity:1;" d="M 22.5 6.636719 C 22.5 9.476562 17.800781 11.773438 12 11.773438 C 6.199219 11.773438 1.5 9.476562 1.5 6.636719 C 1.5 3.800781 6.199219 1.5 12 1.5 C 17.800781 1.5 22.5 3.800781 22.5 6.636719 Z M 22.5 6.636719 "/>
<path style=" stroke:none;fill-rule:nonzero;fill:rgb(61.56863%,22.745098%,60.784316%);fill-opacity:1;" d="M 22.5 12.597656 C 22.5 15.316406 17.796875 17.519531 12 17.519531 C 6.234375 17.519531 1.550781 15.339844 1.5 12.640625 L 1.542969 14.597656 C 1.542969 17.316406 6.203125 19.519531 12 19.519531 C 17.796875 19.519531 22.457031 17.316406 22.457031 14.597656 Z M 22.5 12.597656 "/>
<path style=" stroke:none;fill-rule:nonzero;fill:url(#radial0);" d="M 19.464844 8.300781 C 20 9.875 16.824219 11.25 12.019531 11.25 C 6.984375 11.25 3.867188 9.832031 4.574219 8.300781 C 5.496094 6.308594 8.832031 5.351562 12.019531 5.351562 C 15.09375 5.351562 18.867188 6.53125 19.464844 8.300781 Z M 19.464844 8.300781 "/>
<path style=" stroke:none;fill-rule:nonzero;fill:rgb(95.294118%,71.764708%,85.09804%);fill-opacity:1;" d="M 22.5 9.765625 C 22.5 12.480469 17.800781 14.683594 12 14.683594 C 6.199219 14.683594 1.5 12.480469 1.5 9.765625 C 1.5 7.046875 6.199219 4.84375 12 4.84375 C 17.800781 4.84375 22.5 7.046875 22.5 9.765625 Z M 22.5 9.765625 "/>
<path style=" stroke:none;fill-rule:nonzero;fill:rgb(61.56863%,22.745098%,60.784316%);fill-opacity:1;" d="M 22.5 6.601562 C 22.5 9.4375 17.796875 11.738281 12 11.738281 C 6.234375 11.738281 1.550781 9.460938 1.5 6.644531 L 1.542969 8.6875 C 1.542969 11.523438 6.203125 13.828125 12 13.828125 C 17.796875 13.828125 22.457031 11.523438 22.457031 8.6875 Z M 22.5 6.601562 "/>
<path style="fill-rule:nonzero;fill:rgb(94.117647%,89.019608%,92.54902%);fill-opacity:1;stroke-width:1.138526;stroke-linecap:round;stroke-linejoin:round;stroke:rgb(94.117647%,89.019608%,92.54902%);stroke-opacity:1;stroke-miterlimit:4;" d="M 5.264506 8.509714 C 4.965112 8.509714 4.772433 8.524541 4.47304 8.566059 C 4.387075 8.580887 4.312968 8.637232 4.312968 8.726198 L 4.259611 9.592133 C 4.250718 9.681099 4.188468 9.737444 4.123254 9.758203 C 4.123254 9.758203 4.120289 9.761168 4.117325 9.761168 C 3.74086 9.861996 3.382181 10.010273 3.053144 10.203032 C 2.993858 10.226757 2.916787 10.226757 2.851572 10.173377 L 2.202392 9.601029 C 2.140142 9.538753 2.048249 9.54765 1.977106 9.601029 C 1.736999 9.781927 1.588784 9.909445 1.375355 10.119997 C 1.161926 10.333516 1.037426 10.481792 0.856604 10.722 C 0.803247 10.793173 0.794354 10.885105 0.856604 10.947381 L 1.428712 11.596832 C 1.473177 11.650212 1.496891 11.718419 1.473177 11.765867 L 1.467248 11.77773 C 1.259748 12.124697 1.099676 12.504285 0.995926 12.907597 C 0.995926 12.907597 0.995926 12.910563 0.992961 12.913528 C 0.963318 12.958011 0.91589 12.996563 0.847711 13.002494 L -0.0178621 13.058839 C -0.106791 13.058839 -0.163112 13.130012 -0.177934 13.218978 C -0.219434 13.515531 -0.234255 13.708291 -0.234255 14.010775 C -0.234255 14.310294 -0.219434 14.503053 -0.177934 14.799606 C -0.163112 14.888572 -0.106791 14.959745 -0.0178621 14.959745 L 0.847711 15.01609 C 0.927747 15.022021 0.981104 15.075401 1.004819 15.131746 C 1.105604 15.511334 1.259748 15.870163 1.452427 16.202303 C 1.485034 16.264579 1.487998 16.350579 1.428712 16.421752 L 0.856604 17.071203 C 0.794354 17.13348 0.803247 17.225411 0.856604 17.296584 C 1.037426 17.536792 1.161926 17.685068 1.375355 17.898587 C 1.588784 18.109139 1.736999 18.236657 1.977106 18.417555 C 2.048249 18.470934 2.140142 18.479831 2.202392 18.417555 L 2.851572 17.845207 C 2.922715 17.785897 3.00868 17.788862 3.07093 17.821483 L 3.079823 17.812586 C 3.402931 17.999415 3.749753 18.144726 4.117325 18.242588 L 4.117325 18.257416 C 4.185504 18.278175 4.250718 18.337485 4.259611 18.426451 L 4.312968 19.292387 C 4.312968 19.381353 4.387075 19.437698 4.47304 19.452525 C 4.772433 19.494043 4.965112 19.50887 5.264506 19.50887 C 5.563899 19.50887 5.756578 19.494043 6.055972 19.452525 C 6.141936 19.437698 6.216044 19.381353 6.216044 19.292387 L 6.269401 18.426451 C 6.278294 18.337485 6.343508 18.275209 6.411687 18.257416 L 6.411687 18.242588 C 6.779259 18.144726 7.126081 17.999415 7.449189 17.812586 L 7.458082 17.821483 C 7.520332 17.788862 7.606296 17.785897 7.677439 17.845207 L 8.326619 18.417555 C 8.388869 18.479831 8.480762 18.470934 8.551905 18.417555 C 8.792013 18.236657 8.940228 18.109139 9.153657 17.898587 C 9.367086 17.685068 9.491586 17.536792 9.672408 17.296584 C 9.725765 17.225411 9.734658 17.13348 9.672408 17.071203 L 9.100299 16.421752 C 9.041014 16.350579 9.043978 16.264579 9.076585 16.202303 C 9.269264 15.870163 9.423407 15.511334 9.524193 15.131746 C 9.550872 15.075401 9.601265 15.022021 9.681301 15.01609 L 10.546874 14.959745 C 10.635803 14.959745 10.692124 14.888572 10.706946 14.799606 C 10.748446 14.503053 10.763267 14.310294 10.763267 14.010775 C 10.763267 13.708291 10.748446 13.515531 10.706946 13.218978 C 10.692124 13.130012 10.635803 13.058839 10.546874 13.058839 L 9.681301 13.002494 C 9.613122 12.996563 9.565693 12.958011 9.53605 12.913528 C 9.53605 12.910563 9.533086 12.907597 9.533086 12.907597 C 9.429336 12.504285 9.242585 12.139524 9.061764 11.77773 L 9.055835 11.765867 C 9.032121 11.718419 9.055835 11.650212 9.100299 11.596832 L 9.672408 10.947381 C 9.734658 10.885105 9.725765 10.793173 9.672408 10.722 C 9.491586 10.481792 9.364121 10.333516 9.153657 10.119997 C 8.940228 9.909445 8.792013 9.781927 8.551905 9.601029 C 8.480762 9.54765 8.388869 9.538753 8.326619 9.601029 L 7.677439 10.173377 C 7.612225 10.226757 7.535153 10.226757 7.475868 10.203032 C 7.146831 10.010273 6.788152 9.861996 6.411687 9.761168 C 6.408722 9.761168 6.405758 9.758203 6.405758 9.758203 C 6.340544 9.737444 6.278294 9.681099 6.269401 9.592133 L 6.216044 8.726198 C 6.216044 8.637232 6.141936 8.580887 6.055972 8.566059 C 5.756578 8.524541 5.563899 8.509714 5.264506 8.509714 Z M 5.264506 12.542837 C 6.073757 12.542837 6.73183 13.201185 6.73183 14.010775 C 6.73183 14.820365 6.073757 15.475747 5.264506 15.475747 C 4.455254 15.475747 3.797181 14.820365 3.797181 14.010775 C 3.797181 13.201185 4.455254 12.542837 5.264506 12.542837 Z M 5.264506 12.542837 " transform="matrix(1.317768,0,0,1.317217,1.312601,-2.834144)"/>
<path style="fill:none;stroke-width:0.704878;stroke-linecap:round;stroke-linejoin:miter;stroke:rgb(94.117647%,89.019608%,92.54902%);stroke-opacity:1;stroke-miterlimit:4;" d="M 2.381618 2.117107 L 3.83678 2.117107 " transform="matrix(4.265525,0,0,4.246611,-0.256508,6.630564)"/>
<path style="fill-rule:nonzero;fill:rgb(94.117647%,89.019608%,92.54902%);fill-opacity:1;stroke-width:0.704878;stroke-linecap:round;stroke-linejoin:round;stroke:rgb(94.117647%,89.019608%,92.54902%);stroke-opacity:1;stroke-miterlimit:4;" d="M 3.307464 1.587273 L 3.83678 2.117107 L 3.307464 2.646021 " transform="matrix(4.265525,0,0,4.246611,-0.256508,6.630564)"/>
<path style="fill-rule:evenodd;fill:rgb(94.117647%,89.019608%,92.54902%);fill-opacity:1;stroke-width:0.528658;stroke-linecap:round;stroke-linejoin:round;stroke:rgb(94.117647%,89.019608%,92.54902%);stroke-opacity:1;stroke-miterlimit:4;" d="M 2.649939 2.112508 C 2.649939 2.40502 2.412754 2.641422 2.120623 2.641422 C 1.828492 2.641422 1.592222 2.40502 1.592222 2.112508 C 1.592222 1.819995 1.828492 1.583593 2.120623 1.583593 C 2.412754 1.583593 2.649939 1.819995 2.649939 2.112508 Z M 2.649939 2.112508 " transform="matrix(4.265525,0,0,4.246611,-0.256508,6.630564)"/>
<path style="fill:none;stroke-width:0.352439;stroke-linecap:round;stroke-linejoin:miter;stroke:rgb(94.117647%,89.019608%,92.54902%);stroke-opacity:1;stroke-miterlimit:4;" d="M 2.381618 2.117107 L 3.83678 2.117107 " transform="matrix(4.265525,0,0,4.246611,-0.256508,6.630564)"/>
<path style="fill-rule:nonzero;fill:rgb(94.117647%,89.019608%,92.54902%);fill-opacity:1;stroke-width:0.352439;stroke-linecap:round;stroke-linejoin:round;stroke:rgb(94.117647%,89.019608%,92.54902%);stroke-opacity:1;stroke-miterlimit:4;" d="M 3.307464 1.587273 L 3.83678 2.117107 L 3.307464 2.646021 " transform="matrix(4.265525,0,0,4.246611,-0.256508,6.630564)"/>
<path style=" stroke:none;fill-rule:evenodd;fill:rgb(94.117647%,89.019608%,92.54902%);fill-opacity:1;" d="M 11.046875 15.601562 C 11.046875 16.84375 10.035156 17.847656 8.789062 17.847656 C 7.542969 17.847656 6.535156 16.84375 6.535156 15.601562 C 6.535156 14.359375 7.542969 13.355469 8.789062 13.355469 C 10.035156 13.355469 11.046875 14.359375 11.046875 15.601562 Z M 11.046875 15.601562 "/>
<path style="fill-rule:nonzero;fill:rgb(95.294118%,71.764708%,85.09804%);fill-opacity:1;stroke-width:1.340744;stroke-linecap:round;stroke-linejoin:round;stroke:rgb(90.196079%,0.784314%,70.588237%);stroke-opacity:1;stroke-miterlimit:4;" d="M 5.266208 8.508763 C 4.962811 8.512258 4.771008 8.526241 4.474586 8.56819 C 4.387403 8.582173 4.314169 8.638104 4.314169 8.725497 L 4.258372 9.592437 C 4.251397 9.67983 4.188626 9.735761 4.125854 9.756736 C 4.122366 9.760231 4.122366 9.760231 4.118879 9.760231 C 3.742248 9.861607 3.383054 10.011923 3.051759 10.200692 C 2.992474 10.228658 2.915753 10.225162 2.852981 10.172727 L 2.200852 9.599428 C 2.13808 9.536505 2.04741 9.546992 1.977663 9.599428 C 1.737038 9.781206 1.587083 9.907052 1.374357 10.120291 C 1.16163 10.33353 1.036086 10.48035 0.854746 10.721555 C 0.802436 10.791469 0.791974 10.885854 0.854746 10.948777 L 1.430154 11.598981 C 1.472002 11.647922 1.496413 11.717836 1.472002 11.766776 L 1.465027 11.777263 C 1.259275 12.126836 1.098858 12.504374 0.997726 12.906382 C 0.994239 12.909877 0.994239 12.909877 0.994239 12.913373 C 0.962853 12.958817 0.91403 12.99727 0.847771 13.004262 L -0.0170849 13.056698 C -0.107755 13.056698 -0.163552 13.130108 -0.177502 13.217501 C -0.21935 13.518133 -0.233299 13.710398 -0.236786 14.01103 C -0.233299 14.308166 -0.21935 14.500431 -0.177502 14.801063 C -0.163552 14.888456 -0.107755 14.961867 -0.0170849 14.961867 L 0.847771 15.014302 C 0.927979 15.021294 0.980289 15.07373 1.0047 15.133157 C 1.105833 15.510695 1.259275 15.870754 1.451078 16.202848 C 1.485951 16.265771 1.485951 16.353164 1.430154 16.419583 L 0.854746 17.069787 C 0.791974 17.13271 0.802436 17.227095 0.854746 17.297009 C 1.036086 17.538214 1.16163 17.685034 1.374357 17.898274 C 1.587083 18.111513 1.737038 18.237359 1.977663 18.419136 C 2.04741 18.471572 2.13808 18.482059 2.200852 18.419136 L 2.852981 17.845838 C 2.922728 17.78641 3.009911 17.78641 3.069195 17.821368 L 3.079657 17.814376 C 3.400491 17.999649 3.749223 18.142974 4.118879 18.24435 L 4.118879 18.258333 C 4.185138 18.275812 4.251397 18.335239 4.258372 18.426128 L 4.314169 19.293067 C 4.314169 19.38046 4.387403 19.436391 4.474586 19.450374 C 4.771008 19.492323 4.962811 19.506306 5.266208 19.509802 C 5.566118 19.506306 5.75792 19.492323 6.054343 19.450374 C 6.141526 19.436391 6.21476 19.38046 6.21476 19.293067 L 6.270557 18.426128 C 6.277531 18.335239 6.343791 18.275812 6.41005 18.258333 L 6.41005 18.24435 C 6.779706 18.142974 7.128438 17.999649 7.449272 17.814376 L 7.459734 17.821368 C 7.519018 17.78641 7.606201 17.78641 7.675948 17.845838 L 8.328077 18.419136 C 8.390849 18.482059 8.481519 18.471572 8.554753 18.419136 C 8.791891 18.237359 8.941845 18.111513 9.154572 17.898274 C 9.367299 17.685034 9.492842 17.538214 9.674183 17.297009 C 9.726493 17.227095 9.736955 17.13271 9.674183 17.069787 L 9.098775 16.419583 C 9.042978 16.353164 9.042978 16.265771 9.077851 16.202848 C 9.269654 15.870754 9.423096 15.510695 9.524228 15.133157 C 9.548639 15.07373 9.600949 15.021294 9.681158 15.014302 L 10.546014 14.961867 C 10.636684 14.961867 10.692481 14.888456 10.70643 14.801063 C 10.748278 14.500431 10.762228 14.308166 10.765715 14.01103 C 10.762228 13.710398 10.748278 13.518133 10.70643 13.217501 C 10.692481 13.130108 10.636684 13.056698 10.546014 13.056698 L 9.681158 13.004262 C 9.614899 12.99727 9.566076 12.958817 9.53469 12.913373 C 9.53469 12.909877 9.53469 12.909877 9.531203 12.906382 C 9.430071 12.504374 9.245242 12.140818 9.063902 11.777263 L 9.056927 11.766776 C 9.032516 11.717836 9.056927 11.651417 9.098775 11.598981 L 9.674183 10.948777 C 9.736955 10.885854 9.726493 10.791469 9.674183 10.721555 C 9.492842 10.48035 9.367299 10.33353 9.154572 10.120291 C 8.941845 9.907052 8.791891 9.781206 8.551265 9.599428 C 8.481519 9.546992 8.390849 9.536505 8.328077 9.599428 L 7.675948 10.172727 C 7.613176 10.225162 7.536455 10.228658 7.47717 10.200692 C 7.145875 10.011923 6.78668 9.861607 6.41005 9.760231 C 6.406562 9.760231 6.406562 9.760231 6.403075 9.756736 C 6.340303 9.735761 6.277531 9.67983 6.270557 9.592437 L 6.21476 8.725497 C 6.21476 8.638104 6.141526 8.582173 6.054343 8.56819 C 5.75792 8.526241 5.566118 8.512258 5.262721 8.508763 Z M 5.266208 12.542826 C 6.075267 12.542826 6.730883 13.200022 6.730883 14.01103 C 6.730883 14.818542 6.075267 15.475738 5.266208 15.475738 C 4.453662 15.475738 3.798045 14.818542 3.798045 14.01103 C 3.798045 13.200022 4.453662 12.542826 5.266208 12.542826 Z M 5.266208 12.542826 " transform="matrix(1.120129,0,0,1.117437,2.46445,-0.0353505)"/>
<path style="fill:none;stroke-width:0.830074;stroke-linecap:round;stroke-linejoin:miter;stroke:rgb(94.117647%,89.019608%,92.54902%);stroke-opacity:1;stroke-miterlimit:4;" d="M 2.381543 2.117186 L 3.835971 2.117186 " transform="matrix(3.62578,0,0,3.602534,1.130677,7.993859)"/>
<path style="fill-rule:nonzero;fill:rgb(94.117647%,89.019608%,92.54902%);fill-opacity:1;stroke-width:0.830074;stroke-linecap:round;stroke-linejoin:round;stroke:rgb(94.117647%,89.019608%,92.54902%);stroke-opacity:1;stroke-miterlimit:4;" d="M 3.30699 1.58696 L 3.835971 2.117186 L 3.30699 2.646328 " transform="matrix(3.62578,0,0,3.602534,1.130677,7.993859)"/>
<path style="fill-rule:evenodd;fill:rgb(94.117647%,89.019608%,92.54902%);fill-opacity:1;stroke-width:0.622555;stroke-linecap:round;stroke-linejoin:round;stroke:rgb(94.117647%,89.019608%,92.54902%);stroke-opacity:1;stroke-miterlimit:4;" d="M 2.649804 2.112849 C 2.649804 2.404527 2.412786 2.64199 2.120823 2.64199 C 1.82886 2.64199 1.591842 2.404527 1.591842 2.112849 C 1.591842 1.820086 1.82886 1.583707 2.120823 1.583707 C 2.412786 1.583707 2.649804 1.820086 2.649804 2.112849 Z M 2.649804 2.112849 " transform="matrix(3.62578,0,0,3.602534,1.130677,7.993859)"/>
<path style="fill:none;stroke-width:0.415037;stroke-linecap:round;stroke-linejoin:miter;stroke:rgb(61.56863%,22.745098%,60.784316%);stroke-opacity:1;stroke-miterlimit:4;" d="M 2.381543 2.117186 L 3.835971 2.117186 " transform="matrix(3.62578,0,0,3.602534,1.130677,7.993859)"/>
<path style="fill:none;stroke-width:0.415037;stroke-linecap:round;stroke-linejoin:round;stroke:rgb(61.56863%,22.745098%,60.784316%);stroke-opacity:1;stroke-miterlimit:4;" d="M 3.30699 1.58696 L 3.835971 2.117186 L 3.30699 2.646328 " transform="matrix(3.62578,0,0,3.602534,1.130677,7.993859)"/>
<path style=" stroke:none;fill-rule:evenodd;fill:rgb(61.56863%,22.745098%,60.784316%);fill-opacity:1;" d="M 10.738281 15.605469 C 10.738281 16.65625 9.878906 17.511719 8.820312 17.511719 C 7.761719 17.511719 6.902344 16.65625 6.902344 15.605469 C 6.902344 14.550781 7.761719 13.699219 8.820312 13.699219 C 9.878906 13.699219 10.738281 14.550781 10.738281 15.605469 Z M 10.738281 15.605469 "/>
</g>
</svg>
