<?xml version="1.0" encoding="UTF-8"?>
<svg xmlns="http://www.w3.org/2000/svg" xmlns:xlink="http://www.w3.org/1999/xlink" width="24px" height="24px" viewBox="0 0 24 24" version="1.1">
<g id="surface1">
<path style="fill-rule:evenodd;fill:rgb(95.294118%,71.764708%,85.09804%);fill-opacity:1;stroke-width:1;stroke-linecap:butt;stroke-linejoin:miter;stroke:rgb(90.196079%,0.784314%,70.588237%);stroke-opacity:1;stroke-miterlimit:4;" d="M 4.688174 -12.999942 L 8.646508 -12.999942 C 8.750674 -12.999942 8.834008 -12.919213 8.834008 -12.820255 L 8.834008 -9.713484 C 8.834008 -9.614526 8.750674 -9.533797 8.646508 -9.533797 L 4.688174 -9.533797 C 4.584008 -9.533797 4.500674 -9.614526 4.500674 -9.713484 L 4.500674 -12.820255 C 4.500674 -12.919213 4.584008 -12.999942 4.688174 -12.999942 Z M 4.688174 -12.999942 " transform="matrix(0.000000000000000092,1.5,1.5,-0.000000000000000092,24.101476,-0.00101137)"/>
<path style="fill-rule:evenodd;fill:rgb(95.294118%,71.764708%,85.09804%);fill-opacity:1;stroke-width:1;stroke-linecap:butt;stroke-linejoin:miter;stroke:rgb(90.196079%,0.784314%,70.588237%);stroke-opacity:1;stroke-miterlimit:4;" d="M 4.682966 -6.067651 L 11.242862 -6.067651 C 11.344424 -6.067651 11.430362 -5.986922 11.430362 -5.887963 L 11.430362 -2.781192 C 11.430362 -2.682234 11.344424 -2.598901 11.242862 -2.598901 L 4.682966 -2.598901 C 4.578799 -2.598901 4.495466 -2.682234 4.495466 -2.781192 L 4.495466 -5.887963 C 4.495466 -5.986922 4.578799 -6.067651 4.682966 -6.067651 Z M 4.682966 -6.067651 " transform="matrix(0.000000000000000092,1.5,1.5,-0.000000000000000092,24.101476,-0.00101137)"/>
<path style="fill:none;stroke-width:1;stroke-linecap:round;stroke-linejoin:round;stroke:rgb(61.56863%,22.745098%,60.784316%);stroke-opacity:1;stroke-miterlimit:4;" d="M 8.932292 1.493605 L 9 4.998813 " transform="matrix(-1.5,0.000000000000000184,-0.000000000000000184,-1.5,25.5,23.990407)"/>
<path style="fill:none;stroke-width:1;stroke-linecap:round;stroke-linejoin:round;stroke:rgb(61.56863%,22.745098%,60.784316%);stroke-opacity:1;stroke-miterlimit:4;" d="M 7.432292 2.993605 L 9 4.998813 L 10.432292 2.993605 " transform="matrix(-1.5,0.000000000000000184,-0.000000000000000184,-1.5,25.5,23.990407)"/>
<path style="fill:none;stroke-width:1;stroke-linecap:round;stroke-linejoin:miter;stroke:rgb(61.56863%,22.745098%,60.784316%);stroke-opacity:1;stroke-miterlimit:4;" d="M 1.495466 1.567651 L 1.495466 14.567651 " transform="matrix(0.000000000000000092,1.5,-1.5,0.000000000000000092,24.101476,-0.00101137)"/>
</g>
</svg>
