<?xml version="1.0" encoding="UTF-8"?>
<svg xmlns="http://www.w3.org/2000/svg" xmlns:xlink="http://www.w3.org/1999/xlink" width="24px" height="24px" viewBox="0 0 24 24" version="1.1">
<g id="surface1">
<path style=" stroke:none;fill-rule:nonzero;fill:rgb(33.333334%,34.117648%,32.549021%);fill-opacity:1;" d="M 10.839844 0 C 10.105469 0 9.441406 0.375 9.042969 0.761719 C 8.648438 1.148438 8.414062 1.539062 8.210938 1.878906 C 7.808594 2.550781 7.476562 2.894531 7.539062 2.867188 C 7.601562 2.839844 7.125 2.835938 6.359375 2.644531 C 5.976562 2.550781 5.539062 2.4375 4.984375 2.441406 C 4.429688 2.449219 3.695312 2.65625 3.175781 3.175781 C 2.65625 3.695312 2.449219 4.429688 2.441406 4.984375 C 2.4375 5.539062 2.550781 5.976562 2.644531 6.359375 C 2.835938 7.125 2.839844 7.601562 2.867188 7.539062 C 2.894531 7.476562 2.550781 7.808594 1.878906 8.210938 C 1.539062 8.414062 1.148438 8.648438 0.761719 9.042969 C 0.375 9.441406 0 10.105469 0 10.839844 C 0 11.574219 0.375 12.238281 0.761719 12.636719 C 1.148438 13.03125 1.539062 13.265625 1.878906 13.46875 C 2.554688 13.875 2.894531 14.207031 2.867188 14.140625 L 2.871094 14.140625 C 2.84375 14.078125 2.835938 14.554688 2.644531 15.320312 C 2.550781 15.703125 2.4375 16.140625 2.441406 16.695312 C 2.449219 17.25 2.65625 17.984375 3.175781 18.503906 C 3.695312 19.023438 4.429688 19.230469 4.984375 19.238281 C 5.539062 19.242188 5.976562 19.128906 6.359375 19.035156 C 7.125 18.84375 7.601562 18.839844 7.539062 18.8125 C 7.472656 18.785156 7.804688 19.125 8.210938 19.800781 C 8.414062 20.140625 8.648438 20.53125 9.042969 20.917969 C 9.441406 21.304688 10.105469 21.679688 10.839844 21.679688 C 11.574219 21.679688 12.238281 21.304688 12.636719 20.917969 C 13.03125 20.53125 13.265625 20.140625 13.46875 19.800781 C 13.8125 19.230469 13.996094 19.035156 14.039062 18.964844 L 18.664062 23.585938 C 19.4375 24.359375 20.753906 24 21.027344 22.945312 L 21.425781 21.425781 L 22.945312 21.027344 C 24 20.753906 24.359375 19.4375 23.585938 18.664062 L 18.964844 14.039062 C 19.035156 13.996094 19.230469 13.8125 19.800781 13.46875 C 20.140625 13.265625 20.53125 13.03125 20.917969 12.636719 C 21.304688 12.238281 21.679688 11.574219 21.679688 10.839844 C 21.679688 10.105469 21.304688 9.441406 20.917969 9.042969 C 20.53125 8.648438 20.140625 8.414062 19.800781 8.210938 C 19.125 7.804688 18.785156 7.472656 18.8125 7.539062 C 18.839844 7.601562 18.84375 7.125 19.035156 6.359375 C 19.128906 5.976562 19.242188 5.539062 19.238281 4.984375 C 19.230469 4.429688 19.023438 3.695312 18.503906 3.175781 C 17.984375 2.65625 17.25 2.449219 16.695312 2.441406 C 16.140625 2.4375 15.703125 2.550781 15.320312 2.644531 C 14.554688 2.835938 14.078125 2.839844 14.140625 2.867188 C 14.203125 2.894531 13.871094 2.550781 13.46875 1.878906 C 13.265625 1.539062 13.03125 1.148438 12.636719 0.761719 C 12.238281 0.375 11.574219 0 10.839844 0 Z M 11.25 7.5 C 13.320312 7.5 15 9.179688 15 11.25 C 15 13.320312 13.320312 15 11.25 15 C 9.179688 15 7.5 13.320312 7.5 11.25 C 7.5 9.179688 9.179688 7.5 11.25 7.5 Z M 11.25 7.5 "/>
</g>
</svg>
