<?xml version="1.0" encoding="UTF-8"?>
<svg xmlns="http://www.w3.org/2000/svg" xmlns:xlink="http://www.w3.org/1999/xlink" width="24px" height="24px" viewBox="0 0 24 24" version="1.1">
<g id="surface1">
<path style=" stroke:none;fill-rule:nonzero;fill:rgb(33.333334%,34.117648%,32.549021%);fill-opacity:1;" d="M 3 0 L 3 22.5 L 4.199219 22.5 L 9 17.550781 L 11.699219 21.300781 C 11.792969 21.429688 11.894531 21.542969 12 21.652344 L 12 18 L 15 18 L 15 17.601562 L 13.351562 15 L 15 15 L 15 12 L 12 12 L 12 6.542969 L 4.050781 0 Z M 13.5 7.5 L 13.5 10.5 L 16.5 10.5 L 16.5 19.5 L 13.5 19.5 L 13.5 22.5 L 22.5 22.5 L 22.5 19.5 L 19.5 19.5 L 19.5 10.5 L 22.5 10.5 L 22.5 7.5 Z M 13.5 7.5 "/>
</g>
</svg>
