<?xml version="1.0" encoding="UTF-8"?>
<svg xmlns="http://www.w3.org/2000/svg" xmlns:xlink="http://www.w3.org/1999/xlink" width="24px" height="24px" viewBox="0 0 24 24" version="1.1">
<g id="surface1">
<path style="fill-rule:nonzero;fill:rgb(95.294118%,71.764708%,85.09804%);fill-opacity:1;stroke-width:1;stroke-linecap:butt;stroke-linejoin:round;stroke:rgb(90.196079%,0.784314%,70.588237%);stroke-opacity:1;stroke-miterlimit:4;" d="M 1.5 1.5 L 11.171875 10.104167 C 11.171875 10.104167 7.539062 10.588542 5.895833 11.335938 C 4.252604 12.083333 1.5 14.5 1.5 14.5 Z M 1.5 1.5 " transform="matrix(1.5,0,0,1.5,0,0)"/>
<path style=" stroke:none;fill-rule:nonzero;fill:rgb(61.56863%,22.745098%,60.784316%);fill-opacity:1;" d="M 4.558594 7.574219 L 11.8125 13.902344 C 11.8125 13.902344 9.085938 14.265625 7.855469 14.828125 C 6.621094 15.386719 4.558594 17.199219 4.558594 17.199219 Z M 4.558594 7.574219 "/>
<path style="fill-rule:nonzero;fill:rgb(95.294118%,71.764708%,85.09804%);fill-opacity:1;stroke-width:1;stroke-linecap:butt;stroke-linejoin:round;stroke:rgb(90.196079%,0.784314%,70.588237%);stroke-opacity:1;stroke-miterlimit:4;" d="M 8.5 10.5 L 7.518229 10.5 C 7 10.5 6.5 11 6.5 11.5 L 6.5 13.5 C 6.5 14 7 14.5 7.5 14.5 L 9.5 14.5 C 9.992188 14.5 10.5 14.044271 10.5 13.5 C 10.5 14.044271 11.007812 14.5 11.5 14.5 L 13.5 14.5 C 14 14.5 14.5 13.989583 14.5 13.5 L 14.5 11.5 C 14.5 11 14 10.5 13.5 10.5 L 12.5 10.5 L 12.5 5.5 L 13.5 5.5 C 13.981771 5.5 14.5 5 14.5 4.5 L 14.5 2.5 C 14.5 2 14 1.5 13.5 1.5 L 11.5 1.5 C 11.026042 1.5 10.5 1.955729 10.5 2.5 C 10.5 1.955729 10.026042 1.5 9.5 1.5 L 7.5 1.5 C 6.992188 1.5 6.5 2 6.5 2.5 L 6.5 4.5 C 6.5 5 7 5.5 7.5 5.5 L 8.5 5.5 Z M 8.5 10.5 " transform="matrix(1.5,0,0,1.5,0,0)"/>
<path style=" stroke:none;fill-rule:nonzero;fill:rgb(61.56863%,22.745098%,60.784316%);fill-opacity:1;" d="M 11.25 4.5 L 11.25 6 L 15 6 L 15 4.5 Z M 11.25 4.5 "/>
<path style=" stroke:none;fill-rule:nonzero;fill:rgb(61.56863%,22.745098%,60.784316%);fill-opacity:1;" d="M 16.5 4.5 L 16.5 6 L 20.25 6 L 20.25 4.5 Z M 16.5 4.5 "/>
<path style=" stroke:none;fill-rule:nonzero;fill:rgb(61.56863%,22.745098%,60.784316%);fill-opacity:1;" d="M 15 6 L 15 18 L 16.5 18 L 16.5 6 Z M 15 6 "/>
<path style=" stroke:none;fill-rule:nonzero;fill:rgb(61.56863%,22.745098%,60.784316%);fill-opacity:1;" d="M 11.25 18 L 11.25 19.5 L 15 19.5 L 15 18 Z M 11.25 18 "/>
<path style=" stroke:none;fill-rule:nonzero;fill:rgb(61.56863%,22.745098%,60.784316%);fill-opacity:1;" d="M 16.5 18 L 16.5 19.5 L 20.25 19.5 L 20.25 18 Z M 16.5 18 "/>
</g>
</svg>
