<?xml version="1.0" encoding="UTF-8"?>
<svg xmlns="http://www.w3.org/2000/svg" xmlns:xlink="http://www.w3.org/1999/xlink" width="24px" height="24px" viewBox="0 0 24 24" version="1.1">
<g id="surface1">
<path style=" stroke:none;fill-rule:nonzero;fill:rgb(33.333334%,34.117648%,32.549021%);fill-opacity:1;" d="M 6 0 C 4.339844 0 3 1.339844 3 3 L 3 21 C 3 22.660156 4.339844 24 6 24 L 18 24 C 19.660156 24 21 22.660156 21 21 L 21 3 C 21 1.339844 19.660156 0 18 0 Z M 6 3 L 18 3 L 18 10.5 L 6 10.5 Z M 12 4.5 L 7.5 9 L 16.5 9 Z M 6 13.5 L 18 13.5 L 18 21 L 6 21 Z M 7.5 15 L 12 19.5 L 16.5 15 Z M 7.5 15 "/>
</g>
</svg>
