<?xml version="1.0" encoding="UTF-8"?>
<svg xmlns="http://www.w3.org/2000/svg" xmlns:xlink="http://www.w3.org/1999/xlink" width="24px" height="24px" viewBox="0 0 24 24" version="1.1">
<g id="surface1">
<path style=" stroke:none;fill-rule:evenodd;fill:rgb(90.196079%,0.784314%,70.588237%);fill-opacity:1;" d="M 1.5 11.648438 L 5.519531 15 L 6.1875 14.335938 L 4.878906 12.320312 L 7.558594 12.320312 C 8.230469 12.320312 8.230469 10.980469 7.558594 10.980469 L 4.878906 10.980469 L 6.1875 9 L 5.519531 8.300781 Z M 1.5 11.648438 "/>
<path style="fill-rule:nonzero;fill:rgb(94.117647%,89.019608%,92.54902%);fill-opacity:1;stroke-width:1;stroke-linecap:butt;stroke-linejoin:round;stroke:rgb(61.56863%,22.745098%,60.784316%);stroke-opacity:1;stroke-miterlimit:4;" d="M -14.856771 1.5 L -11.643229 1.5 C -11.320312 1.5 -11 2 -11 2.5 L -11 14.5 C -11 15 -11.320312 15.5 -11.643229 15.5 L -14.856771 15.5 C -15.179688 15.5 -15.5 15 -15.5 14.5 L -15.5 2.5 C -15.5 2 -15.179688 1.5 -14.856771 1.5 Z M -14.856771 1.5 " transform="matrix(1.5,0,0,1.5,32.25,-0.75)"/>
<path style="fill:none;stroke-width:1;stroke-linecap:butt;stroke-linejoin:miter;stroke:rgb(90.196079%,0.784314%,70.588237%);stroke-opacity:1;stroke-miterlimit:4;" d="M -15 5 L -11.5 5 " transform="matrix(1.5,0,0,1.5,32.25,-0.75)"/>
<path style="fill:none;stroke-width:1;stroke-linecap:butt;stroke-linejoin:miter;stroke:rgb(90.196079%,0.784314%,70.588237%);stroke-opacity:1;stroke-miterlimit:4;" d="M -15 8.5 L -11.5 8.5 " transform="matrix(1.5,0,0,1.5,32.25,-0.75)"/>
<path style="fill:none;stroke-width:1;stroke-linecap:butt;stroke-linejoin:miter;stroke:rgb(90.196079%,0.784314%,70.588237%);stroke-opacity:1;stroke-miterlimit:4;" d="M -15 12 L -11.5 12 " transform="matrix(1.5,0,0,1.5,32.25,-0.75)"/>
<path style=" stroke:none;fill-rule:evenodd;fill:rgb(90.196079%,0.784314%,70.588237%);fill-opacity:1;" d="M 22.5 11.648438 L 18.480469 15 L 17.8125 14.335938 L 19.121094 12.320312 L 17.25 12.320312 C 16.578125 12.320312 16.578125 10.980469 17.25 10.980469 L 19.121094 10.980469 L 17.8125 9 L 18.480469 8.300781 Z M 22.5 11.648438 "/>
</g>
</svg>
