<?xml version="1.0" encoding="UTF-8"?>
<svg xmlns="http://www.w3.org/2000/svg" xmlns:xlink="http://www.w3.org/1999/xlink" width="24px" height="24px" viewBox="0 0 24 24" version="1.1">
<g id="surface1">
<path style="fill-rule:nonzero;fill:rgb(95.294118%,71.764708%,85.09804%);fill-opacity:1;stroke-width:0.264583;stroke-linecap:butt;stroke-linejoin:round;stroke:rgb(90.196079%,0.784314%,70.588237%);stroke-opacity:1;stroke-miterlimit:4;" d="M 0.494026 0.396875 L 2.41639 0.396875 C 2.464621 0.396875 2.513542 0.51952 2.513542 0.642855 L 2.513542 3.590479 C 2.513542 3.713813 2.464621 3.836459 2.41639 3.836459 L 0.494026 3.836459 C 0.445795 3.836459 0.396875 3.713813 0.396875 3.590479 L 0.396875 0.642855 C 0.396875 0.51952 0.445795 0.396875 0.494026 0.396875 Z M 0.494026 0.396875 " transform="matrix(5.669291,0,0,5.669291,0.00000135166,0)"/>
<path style="fill-rule:nonzero;fill:rgb(94.117647%,89.019608%,92.54902%);fill-opacity:1;stroke-width:0.264583;stroke-linecap:butt;stroke-linejoin:round;stroke:rgb(90.196079%,0.784314%,70.588237%);stroke-opacity:1;stroke-miterlimit:4;" d="M 0.494026 1.455208 L 2.41639 1.455208 C 2.464621 1.455208 2.513542 1.539958 2.513542 1.625396 L 2.513542 3.666271 C 2.513542 3.751709 2.464621 3.836459 2.41639 3.836459 L 0.494026 3.836459 C 0.445795 3.836459 0.396875 3.751709 0.396875 3.666271 L 0.396875 1.625396 C 0.396875 1.539958 0.445795 1.455208 0.494026 1.455208 Z M 0.494026 1.455208 " transform="matrix(5.669291,0,0,5.669291,0.00000135166,0)"/>
<path style="fill:none;stroke-width:0.264583;stroke-linecap:butt;stroke-linejoin:miter;stroke:rgb(61.56863%,22.745098%,60.784316%);stroke-opacity:1;stroke-miterlimit:4;" d="M 0.529166 3.042709 L 2.38125 3.042709 " transform="matrix(5.669291,0,0,5.669291,0.00000135166,0)"/>
<path style="fill:none;stroke-width:0.264583;stroke-linecap:butt;stroke-linejoin:miter;stroke:rgb(61.56863%,22.745098%,60.784316%);stroke-opacity:1;stroke-miterlimit:4;" d="M 0.529166 2.248958 L 2.38125 2.248958 " transform="matrix(5.669291,0,0,5.669291,0.00000135166,0)"/>
<path style="fill:none;stroke-width:0.264583;stroke-linecap:butt;stroke-linejoin:miter;stroke:rgb(61.56863%,22.745098%,60.784316%);stroke-opacity:1;stroke-miterlimit:4;" d="M 0.529166 1.455208 L 2.38125 1.455208 " transform="matrix(5.669291,0,0,5.669291,0.00000135166,0)"/>
<path style="fill:none;stroke-width:0.264583;stroke-linecap:butt;stroke-linejoin:miter;stroke:rgb(61.56863%,22.745098%,60.784316%);stroke-opacity:1;stroke-miterlimit:4;" d="M 1.455208 3.704167 L 1.455208 1.322917 " transform="matrix(5.669291,0,0,5.669291,0.00000135166,0)"/>
<path style="fill-rule:nonzero;fill:rgb(95.294118%,71.764708%,85.09804%);fill-opacity:1;stroke-width:1.278937;stroke-linecap:butt;stroke-linejoin:round;stroke:rgb(90.196079%,0.784314%,70.588237%);stroke-opacity:1;stroke-miterlimit:4;" d="M 7.499329 18.001474 L 12.498877 28.99949 C 12.498877 28.99949 9.199197 28.000848 7.498501 27.999745 C 5.800838 28.000021 2.500606 28.998663 2.500606 28.998663 Z M 7.499329 18.001474 " transform="matrix(1.067723,-0.485328,0.485328,1.067723,-5.49383,-8.397348)"/>
<path style=" stroke:none;fill-rule:nonzero;fill:rgb(61.56863%,22.745098%,60.784316%);fill-opacity:1;" d="M 12.949219 10.917969 L 18.289062 15.578125 C 18.289062 15.578125 16.28125 15.84375 15.375 16.257812 C 14.46875 16.667969 12.949219 18.003906 12.949219 18.003906 Z M 12.949219 10.917969 "/>
</g>
</svg>
