<?xml version="1.0" encoding="UTF-8"?>
<svg xmlns="http://www.w3.org/2000/svg" xmlns:xlink="http://www.w3.org/1999/xlink" width="24px" height="24px" viewBox="0 0 24 24" version="1.1">
<defs>
<filter id="alpha" filterUnits="objectBoundingBox" x="0%" y="0%" width="100%" height="100%">
  <feColorMatrix type="matrix" in="SourceGraphic" values="0 0 0 0 1 0 0 0 0 1 0 0 0 0 1 0 0 0 1 0"/>
</filter>
<mask id="mask0">
  <g filter="url(#alpha)">
<rect x="0" y="0" width="24" height="24" style="fill:rgb(0%,0%,0%);fill-opacity:0.35;stroke:none;"/>
  </g>
</mask>
<clipPath id="clip1">
  <rect x="0" y="0" width="24" height="24"/>
</clipPath>
<g id="surface5" clip-path="url(#clip1)">
<path style=" stroke:none;fill-rule:nonzero;fill:rgb(33.333334%,34.117648%,32.549021%);fill-opacity:1;" d="M 8.25 6 C 7.007812 6 6 7.34375 6 9 C 6 10.65625 7.007812 12 8.25 12 C 9.492188 12 10.5 10.65625 10.5 9 C 10.5 7.34375 9.492188 6 8.25 6 Z M 15.75 6 C 14.507812 6 13.5 7.34375 13.5 9 C 13.5 10.65625 14.507812 12 15.75 12 C 16.992188 12 18 10.65625 18 9 C 18 7.34375 16.992188 6 15.75 6 Z M 4.5 13.5 L 4.5 14.25 C 4.5 17.148438 7.859375 19.5 12 19.5 C 16.140625 19.5 19.5 17.148438 19.5 14.25 L 19.5 13.5 L 16.5 13.5 L 16.5 14.25 C 16.5 15.492188 14.484375 16.5 12 16.5 C 9.515625 16.5 7.5 15.492188 7.5 14.25 L 7.5 13.5 Z M 4.5 13.5 "/>
</g>
</defs>
<g id="surface1">
<path style=" stroke:none;fill-rule:nonzero;fill:rgb(33.333334%,34.117648%,32.549021%);fill-opacity:1;" d="M 12 1.5 C 6.199219 1.5 1.5 6.199219 1.5 12 C 1.5 17.800781 6.199219 22.5 12 22.5 C 17.800781 22.5 22.5 17.800781 22.5 12 C 22.5 6.199219 17.800781 1.5 12 1.5 Z M 8.25 6 C 9.492188 6 10.5 7.34375 10.5 9 C 10.5 10.65625 9.492188 12 8.25 12 C 7.007812 12 6 10.65625 6 9 C 6 7.34375 7.007812 6 8.25 6 Z M 15.75 6 C 16.992188 6 18 7.34375 18 9 C 18 10.65625 16.992188 12 15.75 12 C 14.507812 12 13.5 10.65625 13.5 9 C 13.5 7.34375 14.507812 6 15.75 6 Z M 4.5 13.5 L 7.5 13.5 L 7.5 14.25 C 7.5 15.492188 9.515625 16.5 12 16.5 C 14.484375 16.5 16.5 15.492188 16.5 14.25 L 16.5 13.5 L 19.5 13.5 L 19.5 14.25 C 19.5 17.148438 16.140625 19.5 12 19.5 C 7.859375 19.5 4.5 17.148438 4.5 14.25 Z M 4.5 13.5 "/>
<use xlink:href="#surface5" mask="url(#mask0)"/>
</g>
</svg>
