<?xml version="1.0" encoding="UTF-8"?>
<svg xmlns="http://www.w3.org/2000/svg" xmlns:xlink="http://www.w3.org/1999/xlink" width="24px" height="24px" viewBox="0 0 24 24" version="1.1">
<defs>
<filter id="alpha" filterUnits="objectBoundingBox" x="0%" y="0%" width="100%" height="100%">
  <feColorMatrix type="matrix" in="SourceGraphic" values="0 0 0 0 1 0 0 0 0 1 0 0 0 0 1 0 0 0 1 0"/>
</filter>
<mask id="mask0">
  <g filter="url(#alpha)">
<rect x="0" y="0" width="24" height="24" style="fill:rgb(0%,0%,0%);fill-opacity:0.35;stroke:none;"/>
  </g>
</mask>
<clipPath id="clip1">
  <rect x="0" y="0" width="24" height="24"/>
</clipPath>
<g id="surface5" clip-path="url(#clip1)">
<path style=" stroke:none;fill-rule:nonzero;fill:rgb(33.333334%,34.117648%,32.549021%);fill-opacity:1;" d="M 21 9.75 C 21 11.820312 16.96875 13.5 12 13.5 C 7.03125 13.5 3 11.820312 3 9.75 C 3 7.679688 7.03125 6 12 6 C 16.96875 6 21 7.679688 21 9.75 Z M 21 9.75 "/>
</g>
</defs>
<g id="surface1">
<path style=" stroke:none;fill-rule:nonzero;fill:rgb(33.333334%,34.117648%,32.549021%);fill-opacity:1;" d="M 12 3 C 5.371094 3 0 6.023438 0 9.75 C 0 16.792969 5.371094 22.5 12 22.5 C 18.628906 22.5 24 16.792969 24 9.75 C 24 6.023438 18.628906 3 12 3 Z M 12 6 C 16.96875 6 21 7.679688 21 9.75 C 21 11.820312 16.96875 13.5 12 13.5 C 7.03125 13.5 3 11.820312 3 9.75 C 3 7.679688 7.03125 6 12 6 Z M 12 6 "/>
<use xlink:href="#surface5" mask="url(#mask0)"/>
</g>
</svg>
