<?xml version="1.0" encoding="UTF-8"?>
<svg xmlns="http://www.w3.org/2000/svg" xmlns:xlink="http://www.w3.org/1999/xlink" width="24px" height="24px" viewBox="0 0 24 24" version="1.1">
<g id="surface1">
<path style=" stroke:none;fill-rule:nonzero;fill:rgb(33.333334%,34.117648%,32.549021%);fill-opacity:1;" d="M 6 0 L 6 13.5 L 18 13.5 L 18 0 Z M 9 3 L 15 3 L 15 10.5 L 9 10.5 Z M 3 15 L 3 16.5 C 3 16.886719 3.195312 17.292969 3.46875 17.578125 L 4.027344 18 L 0 18 L 0 21 L 4.027344 21 L 3.46875 21.421875 C 3.195312 21.707031 3 22.164062 3 22.5 L 3 24 L 4.5 24 C 4.964844 24 5.328125 23.863281 5.625 23.578125 C 7.148438 22.421875 7.914062 21.597656 9 20.667969 L 9 18.246094 L 5.625 15.421875 C 5.328125 15.136719 4.964844 15 4.5 15 Z M 19.5 15 C 19.035156 15 18.671875 15.136719 18.375 15.421875 L 15 18.246094 L 15 20.667969 C 16.085938 21.597656 16.851562 22.421875 18.375 23.578125 C 18.671875 23.863281 19.035156 24 19.5 24 L 21 24 L 21 22.5 C 21 22.164062 20.804688 21.707031 20.53125 21.421875 L 19.972656 21 L 24 21 L 24 18 L 19.972656 18 L 20.53125 17.578125 C 20.804688 17.292969 21 16.886719 21 16.5 L 21 15 Z M 19.5 15 "/>
</g>
</svg>
