<?xml version="1.0" encoding="UTF-8"?>
<svg xmlns="http://www.w3.org/2000/svg" xmlns:xlink="http://www.w3.org/1999/xlink" width="24px" height="24px" viewBox="0 0 24 24" version="1.1">
<g id="surface1">
<path style=" stroke:none;fill-rule:evenodd;fill:rgb(90.196079%,0.784314%,70.588237%);fill-opacity:1;" d="M 10.8125 4.863281 C 9.359375 6.316406 6.3125 7.609375 5.25 7.90625 C 5.25 12.46875 8.3125 19.363281 12 19.363281 C 15.679688 19.363281 18.75 12.46875 18.75 7.90625 C 17.6875 7.609375 14.640625 6.316406 13.1875 4.863281 C 12.777344 4.5625 11.222656 4.5625 10.8125 4.863281 Z M 10.8125 4.863281 "/>
<path style="fill-rule:nonzero;fill:rgb(95.294118%,71.764708%,85.09804%);fill-opacity:1;stroke-width:1;stroke-linecap:round;stroke-linejoin:round;stroke:rgb(90.196079%,0.784314%,70.588237%);stroke-opacity:1;stroke-miterlimit:4;" d="M 7.03125 2.184896 C 5.846354 3.367188 3.364583 4.424479 2.5 4.664062 C 2.5 8.380208 4.994792 14 8 14 C 11 14 13.5 8.380208 13.5 4.664062 C 12.635417 4.424479 10.153646 3.367188 8.96875 2.184896 C 8.632812 1.9375 7.367188 1.9375 7.03125 2.184896 Z M 7.03125 2.184896 " transform="matrix(1.5,0,0,1.5,0,0)"/>
<path style="fill:none;stroke-width:1;stroke-linecap:round;stroke-linejoin:round;stroke:rgb(61.56863%,22.745098%,60.784316%);stroke-opacity:1;stroke-miterlimit:4;" d="M 5.5 7.5 L 7.5 10 L 11 6.5 " transform="matrix(1.5,0,0,1.5,0,0)"/>
</g>
</svg>
