<?xml version="1.0" encoding="UTF-8"?>
<svg xmlns="http://www.w3.org/2000/svg" xmlns:xlink="http://www.w3.org/1999/xlink" width="24px" height="24px" viewBox="0 0 24 24" version="1.1">
<g id="surface1">
<path style=" stroke:none;fill-rule:nonzero;fill:rgb(33.333334%,34.117648%,32.549021%);fill-opacity:1;" d="M 4.5 1.5 C 4.5 2.328125 3.828125 3 3 3 L 3 4.5 L 4.5 4.5 L 4.5 9 L 6 9 L 6 1.5 Z M 10.5 3 L 10.5 6 L 22.5 6 L 22.5 3 Z M 10.5 7.5 L 10.5 10.5 L 16.5 10.5 L 16.5 7.5 Z M 4.5 15 L 4.5 18 L 7.5 18 L 7.5 15 Z M 10.5 15 L 10.5 18 L 22.5 18 L 22.5 15 Z M 10.5 19.5 L 10.5 22.5 L 16.5 22.5 L 16.5 19.5 Z M 10.5 19.5 "/>
</g>
</svg>
