<?xml version="1.0" encoding="UTF-8"?>
<svg xmlns="http://www.w3.org/2000/svg" xmlns:xlink="http://www.w3.org/1999/xlink" width="24px" height="24px" viewBox="0 0 24 24" version="1.1">
<g id="surface1">
<path style="fill-rule:nonzero;fill:rgb(94.117647%,89.019608%,92.54902%);fill-opacity:1;stroke-width:0.264583;stroke-linecap:butt;stroke-linejoin:round;stroke:rgb(90.196079%,0.784314%,70.588237%);stroke-opacity:1;stroke-miterlimit:4;" d="M 0.264583 1.852083 L 0.264583 3.439584 C 0.264583 3.704167 0.529166 3.96875 0.79375 3.96875 L 3.439583 3.96875 C 3.704167 3.96875 3.96875 3.704167 3.96875 3.439584 L 3.96875 1.852083 C 3.96875 1.5875 3.704167 1.322917 3.439583 1.322917 L 0.79375 1.322917 C 0.529166 1.322917 0.264583 1.5875 0.264583 1.852083 Z M 0.264583 1.852083 " transform="matrix(5.669291,0,0,5.669291,0.00000135166,0)"/>
<path style="fill-rule:nonzero;fill:rgb(61.56863%,22.745098%,60.784316%);fill-opacity:1;stroke-width:0.264583;stroke-linecap:round;stroke-linejoin:round;stroke:rgb(61.56863%,22.745098%,60.784316%);stroke-opacity:1;stroke-miterlimit:4;" d="M 0.846595 0.79375 L 1.005668 0.79375 C 1.180919 0.79375 1.322916 0.971697 1.322916 1.190985 L 1.322916 2.778125 C 1.322916 2.997413 1.180919 3.17536 1.005668 3.17536 L 0.846595 3.17536 C 0.671344 3.17536 0.529346 2.997413 0.529346 2.778125 L 0.529346 1.190985 C 0.529346 0.971697 0.671344 0.79375 0.846595 0.79375 Z M 0.846595 0.79375 " transform="matrix(4.346457,0,0,4.346457,0.875001,6.3)"/>
<path style="fill:none;stroke-width:0.264583;stroke-linecap:round;stroke-linejoin:miter;stroke:rgb(90.196079%,0.784314%,70.588237%);stroke-opacity:1;stroke-miterlimit:4;" d="M 0.635395 1.190985 L 1.190805 1.190985 " transform="matrix(4.346457,0,0,4.346457,0.875001,6.3)"/>
<path style="fill:none;stroke-width:0.264583;stroke-linecap:round;stroke-linejoin:miter;stroke:rgb(90.196079%,0.784314%,70.588237%);stroke-opacity:1;stroke-miterlimit:4;" d="M 0.635395 2.778125 L 1.190805 2.778125 " transform="matrix(4.346457,0,0,4.346457,0.875001,6.3)"/>
<path style="fill:none;stroke-width:0.264583;stroke-linecap:round;stroke-linejoin:miter;stroke:rgb(61.56863%,22.745098%,60.784316%);stroke-opacity:1;stroke-miterlimit:4;" d="M 1.455208 1.852083 L 3.571875 1.852083 " transform="matrix(5.669291,0,0,5.669291,0.00000135166,0)"/>
<path style=" stroke:none;fill-rule:nonzero;fill:rgb(61.56863%,22.745098%,60.784316%);fill-opacity:1;" d="M 11.625 12.75 C 11.625 13.371094 11.121094 13.875 10.5 13.875 C 9.878906 13.875 9.375 13.371094 9.375 12.75 C 9.375 12.128906 9.878906 11.625 10.5 11.625 C 11.121094 11.625 11.625 12.128906 11.625 12.75 Z M 11.625 12.75 "/>
<path style=" stroke:none;fill-rule:nonzero;fill:rgb(61.56863%,22.745098%,60.784316%);fill-opacity:1;" d="M 19.125 12.75 C 19.125 13.371094 18.621094 13.875 18 13.875 C 17.378906 13.875 16.875 13.371094 16.875 12.75 C 16.875 12.128906 17.378906 11.625 18 11.625 C 18.621094 11.625 19.125 12.128906 19.125 12.75 Z M 19.125 12.75 "/>
<path style=" stroke:none;fill-rule:nonzero;fill:rgb(61.56863%,22.745098%,60.784316%);fill-opacity:1;" d="M 15.375 12.75 C 15.375 13.371094 14.871094 13.875 14.25 13.875 C 13.628906 13.875 13.125 13.371094 13.125 12.75 C 13.125 12.128906 13.628906 11.625 14.25 11.625 C 14.871094 11.625 15.375 12.128906 15.375 12.75 Z M 15.375 12.75 "/>
<path style=" stroke:none;fill-rule:nonzero;fill:rgb(61.56863%,22.745098%,60.784316%);fill-opacity:1;" d="M 11.625 16.125 C 11.625 16.746094 11.121094 17.25 10.5 17.25 C 9.878906 17.25 9.375 16.746094 9.375 16.125 C 9.375 15.503906 9.878906 15 10.5 15 C 11.121094 15 11.625 15.503906 11.625 16.125 Z M 11.625 16.125 "/>
<path style=" stroke:none;fill-rule:nonzero;fill:rgb(61.56863%,22.745098%,60.784316%);fill-opacity:1;" d="M 19.125 16.125 C 19.125 16.746094 18.621094 17.25 18 17.25 C 17.378906 17.25 16.875 16.746094 16.875 16.125 C 16.875 15.503906 17.378906 15 18 15 C 18.621094 15 19.125 15.503906 19.125 16.125 Z M 19.125 16.125 "/>
<path style=" stroke:none;fill-rule:nonzero;fill:rgb(61.56863%,22.745098%,60.784316%);fill-opacity:1;" d="M 15.375 16.125 C 15.375 16.746094 14.871094 17.25 14.25 17.25 C 13.628906 17.25 13.125 16.746094 13.125 16.125 C 13.125 15.503906 13.628906 15 14.25 15 C 14.871094 15 15.375 15.503906 15.375 16.125 Z M 15.375 16.125 "/>
<path style=" stroke:none;fill-rule:nonzero;fill:rgb(61.56863%,22.745098%,60.784316%);fill-opacity:1;" d="M 11.625 19.875 C 11.625 20.496094 11.121094 21 10.5 21 C 9.878906 21 9.375 20.496094 9.375 19.875 C 9.375 19.253906 9.878906 18.75 10.5 18.75 C 11.121094 18.75 11.625 19.253906 11.625 19.875 Z M 11.625 19.875 "/>
<path style=" stroke:none;fill-rule:nonzero;fill:rgb(61.56863%,22.745098%,60.784316%);fill-opacity:1;" d="M 19.125 19.875 C 19.125 20.496094 18.621094 21 18 21 C 17.378906 21 16.875 20.496094 16.875 19.875 C 16.875 19.253906 17.378906 18.75 18 18.75 C 18.621094 18.75 19.125 19.253906 19.125 19.875 Z M 19.125 19.875 "/>
<path style=" stroke:none;fill-rule:nonzero;fill:rgb(61.56863%,22.745098%,60.784316%);fill-opacity:1;" d="M 15.375 19.875 C 15.375 20.496094 14.871094 21 14.25 21 C 13.628906 21 13.125 20.496094 13.125 19.875 C 13.125 19.253906 13.628906 18.75 14.25 18.75 C 14.871094 18.75 15.375 19.253906 15.375 19.875 Z M 15.375 19.875 "/>
<path style="fill-rule:nonzero;fill:rgb(95.294118%,71.764708%,85.09804%);fill-opacity:1;stroke-width:0.264583;stroke-linecap:butt;stroke-linejoin:miter;stroke:rgb(61.56863%,22.745098%,60.784316%);stroke-opacity:1;stroke-miterlimit:4;" d="M 1.719792 1.852083 L 1.719792 0.529167 C 1.719792 0.396875 1.852083 0.264583 1.984375 0.264583 L 3.042708 0.264583 C 3.175 0.264583 3.307292 0.396875 3.307292 0.529167 L 3.307292 1.852083 Z M 1.719792 1.852083 " transform="matrix(5.669291,0,0,5.669291,0.00000135166,0)"/>
<path style="fill:none;stroke-width:0.264583;stroke-linecap:round;stroke-linejoin:miter;stroke:rgb(61.56863%,22.745098%,60.784316%);stroke-opacity:1;stroke-miterlimit:4;" d="M 2.116667 0.661458 L 2.910417 0.661458 " transform="matrix(5.669291,0,0,5.669291,0.00000135166,0)"/>
<path style="fill:none;stroke-width:0.264583;stroke-linecap:round;stroke-linejoin:miter;stroke:rgb(61.56863%,22.745098%,60.784316%);stroke-opacity:1;stroke-miterlimit:4;" d="M 2.116667 1.058333 L 2.910417 1.058333 " transform="matrix(5.669291,0,0,5.669291,0.00000135166,0)"/>
<path style="fill:none;stroke-width:0.264583;stroke-linecap:round;stroke-linejoin:miter;stroke:rgb(61.56863%,22.745098%,60.784316%);stroke-opacity:1;stroke-miterlimit:4;" d="M 2.116667 1.455208 L 2.910417 1.455208 " transform="matrix(5.669291,0,0,5.669291,0.00000135166,0)"/>
</g>
</svg>
