<?xml version="1.0" encoding="UTF-8"?>
<svg xmlns="http://www.w3.org/2000/svg" xmlns:xlink="http://www.w3.org/1999/xlink" width="24px" height="24px" viewBox="0 0 24 24" version="1.1">
<g id="surface1">
<path style="fill:none;stroke-width:1;stroke-linecap:round;stroke-linejoin:miter;stroke:rgb(61.56863%,22.745098%,60.784316%);stroke-opacity:1;stroke-miterlimit:4;" d="M -21.209613 6.797529 C -22.259092 7.649092 -23.550758 8.229821 -24.990863 8.419925 C -29.1393 8.961592 -32.943988 6.039717 -33.485654 1.891279 C -33.587217 1.125654 -33.568988 0.370446 -33.446592 -0.353513 M -32.532529 -2.884763 C -31.998675 -3.806638 -31.272113 -4.611325 -30.402321 -5.241533 " transform="matrix(1.5,0,0,1.5,51.662075,9.827144)"/>
<path style="fill-rule:nonzero;fill:rgb(95.294118%,71.764708%,85.09804%);fill-opacity:1;stroke-width:1;stroke-linecap:round;stroke-linejoin:miter;stroke:rgb(61.56863%,22.745098%,60.784316%);stroke-opacity:1;stroke-miterlimit:4;" d="M -20.641904 3.860029 C -21.548154 5.492842 -23.188779 6.690758 -25.183571 6.951175 C -28.522113 7.388675 -31.582008 5.037112 -32.019508 1.701175 C -32.457008 -1.637367 -30.105446 -4.699867 -26.766904 -5.137367 C -23.428363 -5.572263 -20.368467 -3.2207 -19.930967 0.115237 C -19.876279 0.542321 -19.865863 0.961592 -19.897113 1.37305 " transform="matrix(1.5,0,0,1.5,51.662075,9.827144)"/>
<path style="fill:none;stroke-width:1;stroke-linecap:round;stroke-linejoin:miter;stroke:rgb(61.56863%,22.745098%,60.784316%);stroke-opacity:1;stroke-miterlimit:4;" d="M -32.001279 -5.866533 L -30.191383 -3.582679 " transform="matrix(1.5,0,0,1.5,51.662075,9.827144)"/>
<path style="fill:none;stroke-width:1;stroke-linecap:round;stroke-linejoin:miter;stroke:rgb(61.56863%,22.745098%,60.784316%);stroke-opacity:1;stroke-miterlimit:4;" d="M -22.811175 6.544925 L -21.001279 8.828779 " transform="matrix(1.5,0,0,1.5,51.662075,9.827144)"/>
<path style=" stroke:none;fill-rule:nonzero;fill:rgb(61.56863%,22.745098%,60.784316%);fill-opacity:1;" d="M 2.773438 7.363281 C 2.773438 7.835938 2.386719 8.222656 1.910156 8.222656 C 1.433594 8.222656 1.046875 7.835938 1.046875 7.363281 C 1.046875 6.886719 1.433594 6.5 1.910156 6.5 C 2.386719 6.5 2.773438 6.886719 2.773438 7.363281 Z M 2.773438 7.363281 "/>
<path style=" stroke:none;fill-rule:nonzero;fill:rgb(61.56863%,22.745098%,60.784316%);fill-opacity:1;" d="M 22.410156 13.894531 C 22.410156 14.371094 22.027344 14.757812 21.550781 14.757812 C 21.074219 14.757812 20.6875 14.371094 20.6875 13.894531 C 20.6875 13.417969 21.074219 13.035156 21.550781 13.035156 C 22.027344 13.035156 22.410156 13.417969 22.410156 13.894531 Z M 22.410156 13.894531 "/>
<path style="fill-rule:nonzero;fill:rgb(61.56863%,22.745098%,60.784316%);fill-opacity:1;stroke-width:1;stroke-linecap:butt;stroke-linejoin:miter;stroke:rgb(61.56863%,22.745098%,60.784316%);stroke-opacity:1;stroke-miterlimit:4;" d="M -31.641904 5.235029 C -29.006488 4.708987 -28.063779 3.664717 -26.785133 1.9668 L -27.428363 1.201175 L -25.501279 1.000654 L -25.501279 3.500654 L -26.141904 2.735029 C -27.480446 4.284508 -28.003883 5.735029 -31.001279 6.000654 Z M -31.641904 5.235029 " transform="matrix(1.5,0,0,1.5,51.662075,9.827144)"/>
<path style=" stroke:none;fill-rule:nonzero;fill:rgb(61.56863%,22.745098%,60.784316%);fill-opacity:1;" d="M 11.910156 9.828125 L 14.910156 9.828125 L 14.910156 12.828125 C 18.660156 8.328125 18.660156 7.578125 18.660156 3.828125 C 17.160156 3.828125 18.660156 3.828125 15.660156 2.328125 C 15.660156 6.078125 14.910156 8.328125 11.910156 9.828125 Z M 11.910156 9.828125 "/>
<path style="fill:none;stroke-width:1;stroke-linecap:butt;stroke-linejoin:miter;stroke:rgb(61.56863%,22.745098%,60.784316%);stroke-opacity:1;stroke-miterlimit:4;" d="M -30.001279 -3.499346 L -22.001279 5.500654 " transform="matrix(1.5,0,0,1.5,51.662075,9.827144)"/>
<path style="fill:none;stroke-width:1;stroke-linecap:butt;stroke-linejoin:miter;stroke:rgb(61.56863%,22.745098%,60.784316%);stroke-opacity:1;stroke-miterlimit:4;" d="M -29.941383 -3.551429 C -27.001279 -6.499346 -18.001279 2.000654 -22.001279 5.500654 C -26.001279 9.000654 -32.881488 -0.603513 -29.941383 -3.551429 Z M -29.941383 -3.551429 " transform="matrix(1.5,0,0,1.5,51.662075,9.827144)"/>
<path style="fill:none;stroke-width:1;stroke-linecap:butt;stroke-linejoin:miter;stroke:rgb(61.56863%,22.745098%,60.784316%);stroke-opacity:1;stroke-miterlimit:4;" d="M -32.001279 2.500654 L -24.501279 -4.999346 " transform="matrix(1.5,0,0,1.5,51.662075,9.827144)"/>
<path style="fill:none;stroke-width:1;stroke-linecap:butt;stroke-linejoin:miter;stroke:rgb(61.56863%,22.745098%,60.784316%);stroke-opacity:1;stroke-miterlimit:4;" d="M -26.501279 7.000654 L -20.001279 -0.499346 " transform="matrix(1.5,0,0,1.5,51.662075,9.827144)"/>
<path style="fill-rule:nonzero;fill:rgb(95.294118%,71.764708%,85.09804%);fill-opacity:1;stroke-width:0.89504;stroke-linecap:butt;stroke-linejoin:round;stroke:rgb(90.196079%,0.784314%,70.588237%);stroke-opacity:1;stroke-miterlimit:4;" d="M 7.499748 18.000554 L 12.50042 28.999077 C 12.50042 28.999077 9.198185 28.000512 7.500672 28.000974 C 5.800619 28.000281 2.5 29 2.5 29 Z M 7.499748 18.000554 " transform="matrix(1.275,-0.579545,0.579545,1.275,-10.244318,-13.026137)"/>
<path style=" stroke:none;fill-rule:nonzero;fill:rgb(61.56863%,22.745098%,60.784316%);fill-opacity:1;" d="M 11.777344 10.039062 L 18.152344 15.601562 C 18.152344 15.601562 15.757812 15.921875 14.675781 16.414062 C 13.59375 16.90625 11.777344 18.5 11.777344 18.5 Z M 11.777344 10.039062 "/>
</g>
</svg>
