<?xml version="1.0" encoding="UTF-8"?>
<svg xmlns="http://www.w3.org/2000/svg" xmlns:xlink="http://www.w3.org/1999/xlink" width="24px" height="24px" viewBox="0 0 24 24" version="1.1">
<defs>
<linearGradient id="linear0" gradientUnits="userSpaceOnUse" x1="38.033909" y1="86.916695" x2="48.341999" y2="86.916695" gradientTransform="matrix(0.256418,0,0,-0.00871968,0.916066,18.9378)">
<stop offset="0" style="stop-color:rgb(18.431373%,18.431373%,18.431373%);stop-opacity:1;"/>
<stop offset="0.1224" style="stop-color:rgb(71.372551%,71.372551%,71.372551%);stop-opacity:1;"/>
<stop offset="0.278568" style="stop-color:rgb(95.294118%,95.294118%,95.294118%);stop-opacity:1;"/>
<stop offset="0.478117" style="stop-color:rgb(79.607844%,79.607844%,79.607844%);stop-opacity:1;"/>
<stop offset="0.6568" style="stop-color:rgb(100%,100%,100%);stop-opacity:1;"/>
<stop offset="0.7202" style="stop-color:rgb(94.509804%,94.509804%,94.509804%);stop-opacity:1;"/>
<stop offset="0.8387" style="stop-color:rgb(73.333335%,73.333335%,73.333335%);stop-opacity:1;"/>
<stop offset="1" style="stop-color:rgb(18.431373%,18.431373%,18.431373%);stop-opacity:1;"/>
</linearGradient>
<linearGradient id="linear1" gradientUnits="userSpaceOnUse" x1="46.05291" y1="114.455017" x2="78.560844" y2="114.455017" gradientTransform="matrix(0,0.105303,-0.118239,0,24.76187,13.590211)">
<stop offset="0" style="stop-color:rgb(100%,100%,100%);stop-opacity:1;"/>
<stop offset="1" style="stop-color:rgb(100%,100%,100%);stop-opacity:0;"/>
</linearGradient>
<filter id="alpha" filterUnits="objectBoundingBox" x="0%" y="0%" width="100%" height="100%">
  <feColorMatrix type="matrix" in="SourceGraphic" values="0 0 0 0 1 0 0 0 0 1 0 0 0 0 1 0 0 0 1 0"/>
</filter>
<mask id="mask0">
  <g filter="url(#alpha)">
<rect x="0" y="0" width="24" height="24" style="fill:rgb(0%,0%,0%);fill-opacity:0.537143;stroke:none;"/>
  </g>
</mask>
<clipPath id="clip1">
  <rect x="0" y="0" width="24" height="24"/>
</clipPath>
<g id="surface5" clip-path="url(#clip1)">
<path style=" stroke:none;fill-rule:nonzero;fill:rgb(95.294118%,71.764708%,85.09804%);fill-opacity:1;" d="M 8.464844 20.957031 L 8.835938 20.957031 C 8.9375 20.957031 9.019531 21.011719 9.019531 21.082031 L 9.019531 23.828125 C 9.019531 23.898438 8.9375 23.953125 8.835938 23.953125 L 8.464844 23.953125 C 8.359375 23.953125 8.277344 23.898438 8.277344 23.828125 L 8.277344 21.082031 C 8.277344 21.011719 8.359375 20.957031 8.464844 20.957031 Z M 8.464844 20.957031 "/>
</g>
<mask id="mask1">
  <g filter="url(#alpha)">
<rect x="0" y="0" width="24" height="24" style="fill:rgb(0%,0%,0%);fill-opacity:0.537143;stroke:none;"/>
  </g>
</mask>
<clipPath id="clip2">
  <rect x="0" y="0" width="24" height="24"/>
</clipPath>
<g id="surface8" clip-path="url(#clip2)">
<path style=" stroke:none;fill-rule:nonzero;fill:rgb(90.196079%,0.784314%,70.588237%);fill-opacity:1;" d="M 11.902344 8.769531 L 12.097656 8.769531 C 12.199219 8.769531 12.285156 8.824219 12.285156 8.894531 L 12.285156 10.992188 C 12.285156 11.0625 12.199219 11.117188 12.097656 11.117188 L 11.902344 11.117188 C 11.800781 11.117188 11.714844 11.0625 11.714844 10.992188 L 11.714844 8.894531 C 11.714844 8.824219 11.800781 8.769531 11.902344 8.769531 Z M 11.902344 8.769531 "/>
</g>
<clipPath id="clip3">
  <path d="M 4 2 L 20 2 L 20 18 L 4 18 Z M 4 2 "/>
</clipPath>
<clipPath id="clip4">
  <path d="M 7.542969 1.5 L 3.734375 5.394531 L 3.734375 18.375 L 20.871094 18.375 L 20.871094 1.5 Z M 7.542969 1.5 "/>
</clipPath>
<clipPath id="clip5">
  <path d="M 3 1 L 21 1 L 21 19 L 3 19 Z M 3 1 "/>
</clipPath>
<clipPath id="clip6">
  <path d="M 7.542969 1.5 L 3.734375 5.394531 L 3.734375 18.375 L 20.871094 18.375 L 20.871094 1.5 Z M 7.542969 1.5 "/>
</clipPath>
<clipPath id="clip7">
  <path d="M 10 2 L 16 2 L 16 6 L 10 6 Z M 10 2 "/>
</clipPath>
<clipPath id="clip8">
  <path d="M 5.984375 2.875 L 18.152344 2.875 C 19.398438 2.875 20.410156 3.976562 20.410156 5.339844 L 20.410156 14.582031 C 20.410156 15.945312 19.398438 17.046875 18.152344 17.046875 L 5.984375 17.046875 C 4.738281 17.046875 3.726562 15.945312 3.726562 14.582031 L 3.726562 5.339844 C 3.726562 3.976562 4.738281 2.875 5.984375 2.875 Z M 5.984375 2.875 "/>
</clipPath>
<clipPath id="clip9">
  <path d="M 9 2 L 16 2 L 16 7 L 9 7 Z M 9 2 "/>
</clipPath>
<clipPath id="clip10">
  <path d="M 5.984375 2.875 L 18.152344 2.875 C 19.398438 2.875 20.410156 3.976562 20.410156 5.339844 L 20.410156 14.582031 C 20.410156 15.945312 19.398438 17.046875 18.152344 17.046875 L 5.984375 17.046875 C 4.738281 17.046875 3.726562 15.945312 3.726562 14.582031 L 3.726562 5.339844 C 3.726562 3.976562 4.738281 2.875 5.984375 2.875 Z M 5.984375 2.875 "/>
</clipPath>
<clipPath id="clip11">
  <path d="M 7 9 L 17 9 L 17 18 L 7 18 Z M 7 9 "/>
</clipPath>
<clipPath id="clip12">
  <path d="M 4.941406 2.371094 L 18.363281 2.371094 C 19.734375 2.371094 20.847656 3.511719 20.847656 4.917969 L 20.847656 14.476562 C 20.847656 15.882812 19.734375 17.027344 18.363281 17.027344 L 4.941406 17.027344 C 3.566406 17.027344 2.453125 15.882812 2.453125 14.476562 L 2.453125 4.917969 C 2.453125 3.511719 3.566406 2.371094 4.941406 2.371094 Z M 4.941406 2.371094 "/>
</clipPath>
<clipPath id="clip13">
  <path d="M 6 8 L 18 8 L 18 18 L 6 18 Z M 6 8 "/>
</clipPath>
<clipPath id="clip14">
  <path d="M 4.941406 2.371094 L 18.363281 2.371094 C 19.734375 2.371094 20.847656 3.511719 20.847656 4.917969 L 20.847656 14.476562 C 20.847656 15.882812 19.734375 17.027344 18.363281 17.027344 L 4.941406 17.027344 C 3.566406 17.027344 2.453125 15.882812 2.453125 14.476562 L 2.453125 4.917969 C 2.453125 3.511719 3.566406 2.371094 4.941406 2.371094 Z M 4.941406 2.371094 "/>
</clipPath>
<mask id="mask2">
  <g filter="url(#alpha)">
<rect x="0" y="0" width="24" height="24" style="fill:rgb(0%,0%,0%);fill-opacity:0.537143;stroke:none;"/>
  </g>
</mask>
<clipPath id="clip15">
  <rect x="0" y="0" width="24" height="24"/>
</clipPath>
<g id="surface11" clip-path="url(#clip15)">
<path style=" stroke:none;fill-rule:nonzero;fill:rgb(95.294118%,71.764708%,85.09804%);fill-opacity:1;" d="M 14.464844 20.957031 L 14.835938 20.957031 C 14.9375 20.957031 15.019531 21.011719 15.019531 21.082031 L 15.019531 23.828125 C 15.019531 23.898438 14.9375 23.953125 14.835938 23.953125 L 14.464844 23.953125 C 14.359375 23.953125 14.277344 23.898438 14.277344 23.828125 L 14.277344 21.082031 C 14.277344 21.011719 14.359375 20.957031 14.464844 20.957031 Z M 14.464844 20.957031 "/>
</g>
</defs>
<g id="surface1">
<path style="fill:none;stroke-width:1;stroke-linecap:round;stroke-linejoin:miter;stroke:rgb(90.196079%,0.784314%,70.588237%);stroke-opacity:1;stroke-miterlimit:4;" d="M 1 15 L 15 15 " transform="matrix(1.5,0,0,1.5,0,0)"/>
<path style=" stroke:none;fill-rule:nonzero;fill:url(#linear0);" d="M 10.753906 22.289062 L 13.226562 22.289062 C 13.371094 22.289062 13.488281 22.285156 13.488281 22.277344 L 13.488281 17.867188 C 13.488281 17.859375 13.371094 17.855469 13.226562 17.855469 L 10.753906 17.855469 C 10.609375 17.855469 10.492188 17.859375 10.492188 17.867188 L 10.492188 22.277344 C 10.492188 22.285156 10.609375 22.289062 10.753906 22.289062 Z M 10.753906 22.289062 "/>
<path style=" stroke:none;fill-rule:nonzero;fill:url(#linear1);" d="M 11.46875 18.441406 L 11.46875 21.863281 L 10.988281 21.863281 L 10.988281 18.441406 Z M 11.46875 18.441406 "/>
<path style=" stroke:none;fill-rule:nonzero;fill:rgb(90.196079%,0.784314%,70.588237%);fill-opacity:1;" d="M 10.753906 22.289062 L 13.226562 22.289062 C 13.371094 22.289062 13.488281 22.285156 13.488281 22.277344 L 13.488281 17.867188 C 13.488281 17.859375 13.371094 17.855469 13.226562 17.855469 L 10.753906 17.855469 C 10.609375 17.855469 10.492188 17.859375 10.492188 17.867188 L 10.492188 22.277344 C 10.492188 22.285156 10.609375 22.289062 10.753906 22.289062 Z M 10.753906 22.289062 "/>
<path style=" stroke:none;fill-rule:nonzero;fill:rgb(61.56863%,22.745098%,60.784316%);fill-opacity:1;" d="M 16.457031 23.644531 L 16.457031 21.265625 C 16.457031 21.09375 16.261719 20.957031 16.023438 20.957031 L 7.96875 20.957031 C 7.730469 20.957031 7.535156 21.09375 7.535156 21.265625 L 7.535156 23.644531 C 7.535156 23.816406 7.730469 23.953125 7.96875 23.953125 L 16.023438 23.953125 C 16.261719 23.953125 16.457031 23.816406 16.457031 23.644531 Z M 16.457031 23.644531 "/>
<use xlink:href="#surface5" mask="url(#mask0)"/>
<use xlink:href="#surface8" mask="url(#mask1)"/>
<g clip-path="url(#clip3)" clip-rule="nonzero">
<g clip-path="url(#clip4)" clip-rule="nonzero">
<path style=" stroke:none;fill-rule:evenodd;fill:rgb(95.294118%,71.764708%,85.09804%);fill-opacity:1;" d="M 7.371094 2.304688 L 16.628906 2.304688 C 18.1875 2.304688 19.449219 3.566406 19.449219 5.125 L 19.449219 14.761719 C 19.449219 16.320312 18.1875 17.582031 16.628906 17.582031 L 7.371094 17.582031 C 5.8125 17.582031 4.550781 16.320312 4.550781 14.761719 L 4.550781 5.125 C 4.550781 3.566406 5.8125 2.304688 7.371094 2.304688 Z M 7.371094 2.304688 "/>
</g>
</g>
<g clip-path="url(#clip5)" clip-rule="nonzero">
<g clip-path="url(#clip6)" clip-rule="nonzero">
<path style="fill:none;stroke-width:1.168625;stroke-linecap:round;stroke-linejoin:round;stroke:rgb(90.196079%,0.784314%,70.588237%);stroke-opacity:1;stroke-miterlimit:4;" d="M 4.365079 2.119966 L 11.658579 2.119966 C 12.886472 2.119966 13.88048 3.092047 13.88048 4.292854 L 13.88048 11.717393 C 13.88048 12.9182 12.886472 13.890282 11.658579 13.890282 L 4.365079 13.890282 C 3.137186 13.890282 2.143178 12.9182 2.143178 11.717393 L 2.143178 4.292854 C 2.143178 3.092047 3.137186 2.119966 4.365079 2.119966 Z M 4.365079 2.119966 " transform="matrix(1.269324,0,0,1.297955,1.830395,-0.446933)"/>
</g>
</g>
<path style="fill:none;stroke-width:0.758109;stroke-linecap:butt;stroke-linejoin:bevel;stroke:rgb(90.196079%,0.784314%,70.588237%);stroke-opacity:1;stroke-miterlimit:4;" d="M 1.693861 16.422976 L 3.597941 14.536469 " transform="matrix(1.969455,0,0,1.987801,1.164017,-26.645602)"/>
<g clip-path="url(#clip7)" clip-rule="nonzero">
<g clip-path="url(#clip8)" clip-rule="nonzero">
<path style=" stroke:none;fill-rule:evenodd;fill:rgb(94.117647%,89.019608%,92.54902%);fill-opacity:1;" d="M 11.210938 1.304688 L 14.210938 1.304688 C 14.753906 1.304688 15.191406 1.878906 15.191406 2.59375 L 15.191406 4.511719 C 15.191406 5.222656 14.753906 5.800781 14.210938 5.800781 L 11.210938 5.800781 C 10.667969 5.800781 10.226562 5.222656 10.226562 4.511719 L 10.226562 2.59375 C 10.226562 1.878906 10.667969 1.304688 11.210938 1.304688 Z M 11.210938 1.304688 "/>
</g>
</g>
<g clip-path="url(#clip9)" clip-rule="nonzero">
<g clip-path="url(#clip10)" clip-rule="nonzero">
<path style="fill:none;stroke-width:1.196026;stroke-linecap:butt;stroke-linejoin:bevel;stroke:rgb(90.196079%,0.784314%,70.588237%);stroke-opacity:1;stroke-miterlimit:4;" d="M 7.129542 9.36248 L 9.630241 9.36248 C 10.082842 9.36248 10.447527 9.800442 10.447527 10.345659 L 10.447527 11.808511 C 10.447527 12.350749 10.082842 12.79169 9.630241 12.79169 L 7.129542 12.79169 C 6.676942 12.79169 6.309 12.350749 6.309 11.808511 L 6.309 10.345659 C 6.309 9.800442 6.676942 9.36248 7.129542 9.36248 Z M 7.129542 9.36248 " transform="matrix(1.199664,0,0,1.311117,2.65788,-10.970617)"/>
</g>
</g>
<g clip-path="url(#clip11)" clip-rule="nonzero">
<g clip-path="url(#clip12)" clip-rule="nonzero">
<path style=" stroke:none;fill-rule:evenodd;fill:rgb(94.117647%,89.019608%,92.54902%);fill-opacity:1;" d="M 8.398438 9.402344 L 15.652344 9.402344 C 16.195312 9.402344 16.636719 9.980469 16.636719 10.691406 L 16.636719 17.632812 C 16.636719 18.34375 16.195312 18.921875 15.652344 18.921875 L 8.398438 18.921875 C 7.855469 18.921875 7.414062 18.34375 7.414062 17.632812 L 7.414062 10.691406 C 7.414062 9.980469 7.855469 9.402344 8.398438 9.402344 Z M 8.398438 9.402344 "/>
</g>
</g>
<g clip-path="url(#clip13)" clip-rule="nonzero">
<g clip-path="url(#clip14)" clip-rule="nonzero">
<path style="fill:none;stroke-width:1.120032;stroke-linecap:butt;stroke-linejoin:bevel;stroke:rgb(90.196079%,0.784314%,70.588237%);stroke-opacity:1;stroke-miterlimit:4;" d="M 5.385998 15.746024 L 10.868539 15.746024 C 11.278917 15.746024 11.612535 16.172496 11.612535 16.696941 L 11.612535 21.817483 C 11.612535 22.341928 11.278917 22.7684 10.868539 22.7684 L 5.385998 22.7684 C 4.97562 22.7684 4.642003 22.341928 4.642003 21.817483 L 4.642003 16.696941 C 4.642003 16.172496 4.97562 15.746024 5.385998 15.746024 Z M 5.385998 15.746024 " transform="matrix(1.323092,0,0,1.3556,1.272265,-11.942963)"/>
</g>
</g>
<path style="fill-rule:nonzero;fill:rgb(61.56863%,22.745098%,60.784316%);fill-opacity:1;stroke-width:0.189527;stroke-linecap:round;stroke-linejoin:round;stroke:rgb(61.56863%,22.745098%,60.784316%);stroke-opacity:1;stroke-miterlimit:4;" d="M 3.859752 19.121074 C 3.875619 18.956005 3.996608 18.838098 4.149331 18.838098 C 4.252469 18.838098 4.345689 18.889191 4.397258 18.973691 C 4.448827 18.889191 4.538081 18.838098 4.639235 18.838098 C 4.791958 18.838098 4.912946 18.956005 4.928814 19.121074 C 4.930797 19.126969 4.936747 19.166272 4.92088 19.229155 C 4.899062 19.317585 4.847494 19.40012 4.772124 19.463003 L 4.397258 19.787247 L 4.016442 19.463003 C 3.943056 19.40012 3.891487 19.317585 3.867686 19.229155 C 3.853802 19.166272 3.857769 19.128934 3.859752 19.121074 Z M 3.909338 19.21933 C 3.929172 19.301864 3.976774 19.376539 4.04421 19.435492 L 4.397258 19.734189 L 4.744356 19.435492 C 4.811792 19.376539 4.859394 19.301864 4.879228 19.21933 C 4.895096 19.160376 4.889145 19.126969 4.889145 19.126969 L 4.889145 19.125004 C 4.875261 18.981551 4.77014 18.8774 4.639235 18.8774 C 4.542047 18.8774 4.456761 18.934388 4.417092 19.024784 L 4.397258 19.068016 L 4.379407 19.024784 C 4.337756 18.934388 4.248502 18.8774 4.149331 18.8774 C 4.018425 18.8774 3.913304 18.981551 3.89942 19.126969 C 3.89942 19.126969 3.89347 19.160376 3.909338 19.21933 Z M 3.909338 19.21933 " transform="matrix(1.969455,0,0,1.987801,1.164017,-26.645602)"/>
<path style="fill:none;stroke-width:0.758109;stroke-linecap:round;stroke-linejoin:miter;stroke:rgb(90.196079%,0.784314%,70.588237%);stroke-opacity:1;stroke-miterlimit:4;" d="M 3.907354 20.176339 L 7.13834 20.176339 " transform="matrix(1.969455,0,0,1.987801,1.164017,-26.645602)"/>
<path style="fill:none;stroke-width:0.758109;stroke-linecap:round;stroke-linejoin:miter;stroke:rgb(90.196079%,0.784314%,70.588237%);stroke-opacity:1;stroke-miterlimit:4;" d="M 3.89347 21.361301 L 7.126439 21.361301 " transform="matrix(1.969455,0,0,1.987801,1.164017,-26.645602)"/>
<path style="fill-rule:evenodd;fill:rgb(95.294118%,71.764708%,85.09804%);fill-opacity:1;stroke-width:0.379055;stroke-linecap:round;stroke-linejoin:bevel;stroke:rgb(90.196079%,0.784314%,70.588237%);stroke-opacity:1;stroke-miterlimit:4;" d="M 5.377066 15.112246 C 5.446485 15.112246 5.502021 15.192816 5.502021 15.293037 L 5.502021 15.581908 C 5.502021 15.680164 5.446485 15.760733 5.377066 15.760733 C 5.30963 15.760733 5.254094 15.680164 5.254094 15.581908 L 5.254094 15.293037 C 5.254094 15.192816 5.30963 15.112246 5.377066 15.112246 Z M 5.377066 15.112246 " transform="matrix(1.969455,0,0,1.987801,1.164017,-26.645602)"/>
<path style="fill-rule:nonzero;fill:rgb(94.117647%,89.019608%,92.54902%);fill-opacity:1;stroke-width:1.057222;stroke-linecap:butt;stroke-linejoin:round;stroke:rgb(61.56863%,22.745098%,60.784316%);stroke-opacity:1;stroke-miterlimit:4;" d="M 8.674221 11.234036 C 9.336048 9.972783 9.336048 9.972783 10.663419 9.458133 L 11.667313 12.582272 Z M 8.674221 11.234036 " transform="matrix(1.050596,0,0,-1.077797,4.554863,18.065041)"/>
<path style="fill:none;stroke-width:1.057222;stroke-linecap:round;stroke-linejoin:miter;stroke:rgb(61.56863%,22.745098%,60.784316%);stroke-opacity:1;stroke-miterlimit:4;" d="M 11.667313 12.582272 L 12.667489 13.702178 " transform="matrix(1.050596,0,0,-1.077797,4.554863,18.065041)"/>
<path style="fill-rule:nonzero;fill:rgb(95.294118%,71.764708%,85.09804%);fill-opacity:1;stroke-width:1.057222;stroke-linecap:round;stroke-linejoin:round;stroke:rgb(61.56863%,22.745098%,60.784316%);stroke-opacity:1;stroke-miterlimit:4;" d="M 1.840305 1.919608 L 2.171219 1.622416 C 2.632266 1.212871 3.372173 1.29623 3.833221 1.814503 L 10.328787 9.084831 C 10.789835 9.599481 12.291958 12.024131 11.834628 12.433676 L 11.503715 12.730868 C 11.042668 13.140413 8.804356 11.375383 8.343308 10.860734 L 1.844024 3.590406 C 1.382976 3.075757 1.382976 2.329153 1.840305 1.919608 Z M 1.840305 1.919608 " transform="matrix(1.050596,0,0,-1.077797,4.554863,18.065041)"/>
<path style="fill:none;stroke-width:1.057222;stroke-linecap:butt;stroke-linejoin:miter;stroke:rgb(61.56863%,22.745098%,60.784316%);stroke-opacity:1;stroke-miterlimit:4;" d="M 8.674221 11.234036 C 9.001416 9.599481 9.001416 9.599481 10.663419 9.458133 " transform="matrix(1.050596,0,0,-1.077797,4.554863,18.065041)"/>
<path style="fill-rule:nonzero;fill:rgb(94.117647%,89.019608%,92.54902%);fill-opacity:1;stroke-width:1.057222;stroke-linecap:round;stroke-linejoin:round;stroke:rgb(61.56863%,22.745098%,60.784316%);stroke-opacity:1;stroke-miterlimit:4;" d="M 5.331626 3.49255 C 3.848094 3.829609 3.848094 3.829609 3.342428 5.268453 C 3.506026 5.449667 4.193879 6.218017 4.342604 6.388359 C 4.669799 4.753803 4.669799 4.753803 6.331802 4.608832 C 6.223976 4.48923 5.558432 3.742626 5.331626 3.49255 Z M 5.331626 3.49255 " transform="matrix(1.050596,0,0,-1.077797,4.554863,18.065041)"/>
<path style="fill-rule:nonzero;fill:rgb(94.117647%,89.019608%,92.54902%);fill-opacity:1;stroke-width:1.057222;stroke-linecap:round;stroke-linejoin:round;stroke:rgb(61.56863%,22.745098%,60.784316%);stroke-opacity:1;stroke-miterlimit:4;" d="M 10.328787 9.084831 C 10.841889 9.657469 12.291958 12.024131 11.834628 12.433676 L 11.503715 12.730868 C 11.042668 13.140413 8.811792 11.386256 8.343308 10.860734 C 9.001416 9.599481 9.001416 9.599481 10.328787 9.084831 Z M 10.328787 9.084831 " transform="matrix(1.050596,0,0,-1.077797,4.554863,18.065041)"/>
<path style="fill:none;stroke-width:1.057222;stroke-linecap:round;stroke-linejoin:round;stroke:rgb(61.56863%,22.745098%,60.784316%);stroke-opacity:1;stroke-miterlimit:4;" d="M 4.000537 1.999342 L 4.33145 1.70215 C 4.669799 1.401334 5.335344 1.491941 5.658821 1.857995 L 9.324893 5.957068 " transform="matrix(1.050596,0,0,-1.077797,4.554863,18.065041)"/>
<path style="fill-rule:nonzero;fill:rgb(61.56863%,22.745098%,60.784316%);fill-opacity:1;stroke-width:1.057222;stroke-linecap:round;stroke-linejoin:round;stroke:rgb(61.56863%,22.745098%,60.784316%);stroke-opacity:1;stroke-miterlimit:4;" d="M 3.483421 10.654442 C 3.484395 10.932358 3.260435 11.15509 2.984786 11.15666 C 2.706366 11.155751 2.482778 10.931656 2.484577 10.656217 C 2.483603 10.378301 2.707563 10.155568 2.983569 10.159179 C 3.259217 10.15761 3.482805 10.381706 3.483421 10.654442 Z M 3.483421 10.654442 " transform="matrix(0.783398,0.718153,0.700029,-0.80368,4.554863,18.065041)"/>
<use xlink:href="#surface11" mask="url(#mask2)"/>
</g>
</svg>
