<?xml version="1.0" encoding="UTF-8"?>
<svg xmlns="http://www.w3.org/2000/svg" xmlns:xlink="http://www.w3.org/1999/xlink" width="24px" height="24px" viewBox="0 0 24 24" version="1.1">
<defs>
<clipPath id="clip1">
  <path d="M 1 1 L 10 1 L 10 8 L 1 8 Z M 1 1 "/>
</clipPath>
<clipPath id="clip2">
  <path d="M 0.503906 7.644531 L 22.410156 7.644531 C 22.492188 7.644531 22.5625 7.570312 22.5625 7.476562 L 22.5625 -1.394531 C 22.5625 -1.488281 22.492188 -1.5625 22.410156 -1.5625 L 0.503906 -1.5625 C 0.421875 -1.5625 0.351562 -1.488281 0.351562 -1.394531 L 0.351562 7.476562 C 0.351562 7.570312 0.421875 7.644531 0.503906 7.644531 Z M 0.503906 7.644531 "/>
</clipPath>
<clipPath id="clip3">
  <path d="M 1 0 L 11 0 L 11 8 L 1 8 Z M 1 0 "/>
</clipPath>
<clipPath id="clip4">
  <path d="M 0.503906 7.644531 L 22.410156 7.644531 C 22.492188 7.644531 22.5625 7.570312 22.5625 7.476562 L 22.5625 -1.394531 C 22.5625 -1.488281 22.492188 -1.5625 22.410156 -1.5625 L 0.503906 -1.5625 C 0.421875 -1.5625 0.351562 -1.488281 0.351562 -1.394531 L 0.351562 7.476562 C 0.351562 7.570312 0.421875 7.644531 0.503906 7.644531 Z M 0.503906 7.644531 "/>
</clipPath>
<filter id="alpha" filterUnits="objectBoundingBox" x="0%" y="0%" width="100%" height="100%">
  <feColorMatrix type="matrix" in="SourceGraphic" values="0 0 0 0 1 0 0 0 0 1 0 0 0 0 1 0 0 0 1 0"/>
</filter>
<mask id="mask0">
  <g filter="url(#alpha)">
<rect x="0" y="0" width="24" height="24" style="fill:rgb(0%,0%,0%);fill-opacity:0.9;stroke:none;"/>
  </g>
</mask>
<clipPath id="clip5">
  <rect x="0" y="0" width="24" height="24"/>
</clipPath>
<g id="surface5" clip-path="url(#clip5)">
<path style=" stroke:none;fill-rule:nonzero;fill:rgb(94.117647%,89.019608%,92.54902%);fill-opacity:1;" d="M 15.375 19.699219 L 12.5 21.425781 L 12.5 20.5 L 13.710938 19.265625 L 12.5 18.03125 L 12.5 17.105469 L 15.375 18.898438 Z M 15.375 19.699219 "/>
</g>
<mask id="mask1">
  <g filter="url(#alpha)">
<rect x="0" y="0" width="24" height="24" style="fill:rgb(0%,0%,0%);fill-opacity:0.9;stroke:none;"/>
  </g>
</mask>
<clipPath id="clip6">
  <rect x="0" y="0" width="24" height="24"/>
</clipPath>
<g id="surface8" clip-path="url(#clip6)">
<path style=" stroke:none;fill-rule:nonzero;fill:rgb(94.117647%,89.019608%,92.54902%);fill-opacity:1;" d="M 20.5 19.890625 L 16.734375 19.890625 L 16.734375 18.433594 L 20.5 18.433594 Z M 20.5 19.890625 "/>
</g>
</defs>
<g id="surface1">
<path style="fill-rule:evenodd;fill:rgb(95.294118%,71.764708%,85.09804%);fill-opacity:1;stroke-width:1;stroke-linecap:round;stroke-linejoin:round;stroke:rgb(90.196079%,0.784314%,70.588237%);stroke-opacity:1;stroke-miterlimit:4;" d="M 3.433594 4.5 L 20.566406 4.5 C 21.632812 4.5 22.5 5.484375 22.5 6.703125 L 22.5 20.296875 C 22.5 21.515625 21.632812 22.5 20.566406 22.5 L 3.433594 22.5 C 2.367188 22.5 1.5 21.515625 1.5 20.296875 L 1.5 6.703125 C 1.5 5.484375 2.367188 4.5 3.433594 4.5 Z M 3.433594 4.5 "/>
<g clip-path="url(#clip1)" clip-rule="nonzero">
<g clip-path="url(#clip2)" clip-rule="nonzero">
<path style=" stroke:none;fill-rule:evenodd;fill:rgb(95.294118%,71.764708%,85.09804%);fill-opacity:1;" d="M 2.96875 1.5 L 8.457031 1.5 C 9.265625 1.5 9.921875 2.253906 9.921875 3.1875 L 9.921875 7.957031 C 9.921875 8.886719 9.265625 9.644531 8.457031 9.644531 L 2.96875 9.644531 C 2.160156 9.644531 1.507812 8.886719 1.507812 7.957031 L 1.507812 3.1875 C 1.507812 2.253906 2.160156 1.5 2.96875 1.5 Z M 2.96875 1.5 "/>
</g>
</g>
<g clip-path="url(#clip3)" clip-rule="nonzero">
<g clip-path="url(#clip4)" clip-rule="nonzero">
<path style="fill:none;stroke-width:0.901704;stroke-linecap:round;stroke-linejoin:round;stroke:rgb(90.196079%,0.784314%,70.588237%);stroke-opacity:1;stroke-miterlimit:4;" d="M 3.450676 2.215275 L 8.667397 2.215275 C 9.435981 2.215275 10.05976 2.860163 10.05976 3.658755 L 10.05976 7.738591 C 10.05976 8.533842 9.435981 9.182072 8.667397 9.182072 L 3.450676 9.182072 C 2.682091 9.182072 2.062025 8.533842 2.062025 7.738591 L 2.062025 3.658755 C 2.062025 2.860163 2.682091 2.215275 3.450676 2.215275 Z M 3.450676 2.215275 " transform="matrix(1.052056,0,0,1.16905,-0.661553,-1.089766)"/>
</g>
</g>
<path style="fill-rule:evenodd;fill:rgb(95.294118%,71.764708%,85.09804%);fill-opacity:1;stroke-width:1;stroke-linecap:round;stroke-linejoin:round;stroke:rgb(90.196079%,0.784314%,70.588237%);stroke-opacity:1;stroke-miterlimit:4;" d="M 3.433594 10 L 20.457031 10 C 21.523438 10 22.390625 10.984375 22.390625 12.203125 L 22.390625 20.296875 C 22.390625 21.515625 21.523438 22.5 20.457031 22.5 L 3.433594 22.5 C 2.367188 22.5 1.5 21.515625 1.5 20.296875 L 1.5 12.203125 C 1.5 10.984375 2.367188 10 3.433594 10 Z M 3.433594 10 "/>
<path style="fill:none;stroke-width:1;stroke-linecap:butt;stroke-linejoin:miter;stroke:rgb(61.56863%,22.745098%,60.784316%);stroke-opacity:1;stroke-miterlimit:4;" d="M 2 17.5 L 21.972656 17.5 "/>
<path style="fill:none;stroke-width:1;stroke-linecap:butt;stroke-linejoin:miter;stroke:rgb(61.56863%,22.745098%,60.784316%);stroke-opacity:1;stroke-miterlimit:4;" d="M 2 19.5 L 22 19.5 "/>
<path style="fill-rule:nonzero;fill:rgb(90.196079%,0.784314%,70.588237%);fill-opacity:1;stroke-width:1;stroke-linecap:butt;stroke-linejoin:miter;stroke:rgb(61.56863%,22.745098%,60.784316%);stroke-opacity:1;stroke-miterlimit:4;" d="M 22.5 22.1875 C 22.5 22.339844 22.328125 22.464844 22.117188 22.464844 L 10.894531 22.464844 C 10.683594 22.464844 10.511719 22.339844 10.511719 22.1875 L 10.511719 16.300781 C 10.511719 16.148438 10.683594 16.027344 10.894531 16.027344 L 22.117188 16.027344 C 22.328125 16.027344 22.5 16.148438 22.5 16.300781 Z M 22.5 22.1875 "/>
<use xlink:href="#surface5" mask="url(#mask0)"/>
<use xlink:href="#surface8" mask="url(#mask1)"/>
<path style=" stroke:none;fill-rule:nonzero;fill:rgb(95.294118%,71.764708%,85.09804%);fill-opacity:1;" d="M 11.765625 8.480469 L 8 8.480469 L 8 5 L 11.765625 5 Z M 11.765625 8.480469 "/>
</g>
</svg>
