<?xml version="1.0" encoding="UTF-8"?>
<svg xmlns="http://www.w3.org/2000/svg" xmlns:xlink="http://www.w3.org/1999/xlink" width="24px" height="24px" viewBox="0 0 24 24" version="1.1">
<g id="surface1">
<path style="fill-rule:nonzero;fill:rgb(94.117647%,89.019608%,92.54902%);fill-opacity:1;stroke-width:1;stroke-linecap:round;stroke-linejoin:round;stroke:rgb(90.196079%,0.784314%,70.588237%);stroke-opacity:1;stroke-miterlimit:4;" d="M 7.916667 1.502604 L 6.5 4.572917 L 3.330729 3.403646 L 4.5 6.572917 L 1.432292 7.986979 L 4.5 9.401042 L 3.330729 12.570312 L 6.5 11.401042 L 7.916667 14.471354 L 9.330729 11.401042 L 12.5 12.570312 L 11.330729 9.401042 L 14.398438 7.986979 L 11.330729 6.572917 L 12.5 3.403646 L 9.330729 4.572917 Z M 8 6 C 9.104167 6 10 6.895833 10 8 C 10 9.104167 9.104167 10 8 10 C 6.895833 10 6 9.104167 6 8 C 6 6.895833 6.895833 6 8 6 Z M 8 6 " transform="matrix(1.5,0,0,1.5,0,0)"/>
</g>
</svg>
