<?xml version="1.0" encoding="UTF-8"?>
<svg xmlns="http://www.w3.org/2000/svg" xmlns:xlink="http://www.w3.org/1999/xlink" width="24px" height="24px" viewBox="0 0 24 24" version="1.1">
<defs>
<clipPath id="clip1">
  <path d="M 2 2 L 22 2 L 22 22 L 2 22 Z M 2 2 "/>
</clipPath>
<clipPath id="clip2">
  <path d="M 6.175781 1.214844 L 1.191406 6.183594 L 1.191406 22.75 L 23.617188 22.75 L 23.617188 1.214844 Z M 6.175781 1.214844 "/>
</clipPath>
<clipPath id="clip3">
  <path d="M 1 1 L 23 1 L 23 23 L 1 23 Z M 1 1 "/>
</clipPath>
<clipPath id="clip4">
  <path d="M 6.175781 1.214844 L 1.191406 6.183594 L 1.191406 22.75 L 23.617188 22.75 L 23.617188 1.214844 Z M 6.175781 1.214844 "/>
</clipPath>
<clipPath id="clip5">
  <path d="M 9 2 L 17 2 L 17 7 L 9 7 Z M 9 2 "/>
</clipPath>
<clipPath id="clip6">
  <path d="M 4.132812 2.96875 L 20.0625 2.96875 C 21.691406 2.96875 23.015625 4.375 23.015625 6.113281 L 23.015625 17.914062 C 23.015625 19.648438 21.691406 21.058594 20.0625 21.058594 L 4.132812 21.058594 C 2.503906 21.058594 1.179688 19.648438 1.179688 17.914062 L 1.179688 6.113281 C 1.179688 4.375 2.503906 2.96875 4.132812 2.96875 Z M 4.132812 2.96875 "/>
</clipPath>
<clipPath id="clip7">
  <path d="M 8 2 L 17 2 L 17 8 L 8 8 Z M 8 2 "/>
</clipPath>
<clipPath id="clip8">
  <path d="M 4.132812 2.96875 L 20.0625 2.96875 C 21.691406 2.96875 23.015625 4.375 23.015625 6.113281 L 23.015625 17.914062 C 23.015625 19.648438 21.691406 21.058594 20.0625 21.058594 L 4.132812 21.058594 C 2.503906 21.058594 1.179688 19.648438 1.179688 17.914062 L 1.179688 6.113281 C 1.179688 4.375 2.503906 2.96875 4.132812 2.96875 Z M 4.132812 2.96875 "/>
</clipPath>
<clipPath id="clip9">
  <path d="M 6 11 L 19 11 L 19 22 L 6 22 Z M 6 11 "/>
</clipPath>
<clipPath id="clip10">
  <path d="M 2.769531 2.324219 L 20.335938 2.324219 C 22.132812 2.324219 23.589844 3.78125 23.589844 5.578125 L 23.589844 17.777344 C 23.589844 19.574219 22.132812 21.03125 20.335938 21.03125 L 2.769531 21.03125 C 0.96875 21.03125 -0.488281 19.574219 -0.488281 17.777344 L -0.488281 5.578125 C -0.488281 3.78125 0.96875 2.324219 2.769531 2.324219 Z M 2.769531 2.324219 "/>
</clipPath>
<clipPath id="clip11">
  <path d="M 5 10 L 19 10 L 19 22 L 5 22 Z M 5 10 "/>
</clipPath>
<clipPath id="clip12">
  <path d="M 2.769531 2.324219 L 20.335938 2.324219 C 22.132812 2.324219 23.589844 3.78125 23.589844 5.578125 L 23.589844 17.777344 C 23.589844 19.574219 22.132812 21.03125 20.335938 21.03125 L 2.769531 21.03125 C 0.96875 21.03125 -0.488281 19.574219 -0.488281 17.777344 L -0.488281 5.578125 C -0.488281 3.78125 0.96875 2.324219 2.769531 2.324219 Z M 2.769531 2.324219 "/>
</clipPath>
</defs>
<g id="surface1">
<g clip-path="url(#clip1)" clip-rule="nonzero">
<g clip-path="url(#clip2)" clip-rule="nonzero">
<path style=" stroke:none;fill-rule:evenodd;fill:rgb(95.294118%,71.764708%,85.09804%);fill-opacity:1;" d="M 5.078125 2.242188 L 18.9375 2.242188 C 20.496094 2.242188 21.757812 3.503906 21.757812 5.0625 L 21.757812 18.921875 C 21.757812 20.480469 20.496094 21.742188 18.9375 21.742188 L 5.078125 21.742188 C 3.523438 21.742188 2.257812 20.480469 2.257812 18.921875 L 2.257812 5.0625 C 2.257812 3.503906 3.523438 2.242188 5.078125 2.242188 Z M 5.078125 2.242188 "/>
</g>
</g>
<g clip-path="url(#clip3)" clip-rule="nonzero">
<g clip-path="url(#clip4)" clip-rule="nonzero">
<path style="fill:none;stroke-width:0.904136;stroke-linecap:round;stroke-linejoin:round;stroke:rgb(90.196079%,0.784314%,70.588237%);stroke-opacity:1;stroke-miterlimit:4;" d="M 3.840134 2.120757 L 12.182607 2.120757 C 13.120783 2.120757 13.880258 2.882303 13.880258 3.823036 L 13.880258 12.18825 C 13.880258 13.128983 13.120783 13.890529 12.182607 13.890529 L 3.840134 13.890529 C 2.90431 13.890529 2.142483 13.128983 2.142483 12.18825 L 2.142483 3.823036 C 2.142483 2.882303 2.90431 2.120757 3.840134 2.120757 Z M 3.840134 2.120757 " transform="matrix(1.661303,0,0,1.656787,-1.301501,-1.271454)"/>
</g>
</g>
<path style="fill:none;stroke-width:0.58653;stroke-linecap:butt;stroke-linejoin:bevel;stroke:rgb(90.196079%,0.784314%,70.588237%);stroke-opacity:1;stroke-miterlimit:4;" d="M 1.808609 16.04088 L 3.301313 14.485982 " transform="matrix(2.577641,0,0,2.537346,-2.173663,-34.712977)"/>
<g clip-path="url(#clip5)" clip-rule="nonzero">
<g clip-path="url(#clip6)" clip-rule="nonzero">
<path style=" stroke:none;fill-rule:evenodd;fill:rgb(94.117647%,89.019608%,92.54902%);fill-opacity:1;" d="M 10.671875 0.960938 L 15.203125 0.960938 C 15.746094 0.960938 16.1875 1.539062 16.1875 2.25 L 16.1875 5.414062 C 16.1875 6.125 15.746094 6.703125 15.203125 6.703125 L 10.671875 6.703125 C 10.128906 6.703125 9.6875 6.125 9.6875 5.414062 L 9.6875 2.25 C 9.6875 1.539062 10.128906 0.960938 10.671875 0.960938 Z M 10.671875 0.960938 "/>
</g>
</g>
<g clip-path="url(#clip7)" clip-rule="nonzero">
<g clip-path="url(#clip8)" clip-rule="nonzero">
<path style="fill:none;stroke-width:0.925335;stroke-linecap:butt;stroke-linejoin:bevel;stroke:rgb(90.196079%,0.784314%,70.588237%);stroke-opacity:1;stroke-miterlimit:4;" d="M 6.935949 9.360401 L 9.821853 9.360401 C 10.167664 9.360401 10.44879 9.705842 10.44879 10.13064 L 10.44879 12.021228 C 10.44879 12.446027 10.167664 12.791468 9.821853 12.791468 L 6.935949 12.791468 C 6.590138 12.791468 6.309011 12.446027 6.309011 12.021228 L 6.309011 10.13064 C 6.309011 9.705842 6.590138 9.360401 6.935949 9.360401 Z M 6.935949 9.360401 " transform="matrix(1.570132,0,0,1.673587,-0.218481,-14.704504)"/>
</g>
</g>
<g clip-path="url(#clip9)" clip-rule="nonzero">
<g clip-path="url(#clip10)" clip-rule="nonzero">
<path style=" stroke:none;fill-rule:evenodd;fill:rgb(94.117647%,89.019608%,92.54902%);fill-opacity:1;" d="M 6.988281 11.300781 L 17.09375 11.300781 C 17.636719 11.300781 18.078125 11.878906 18.078125 12.589844 L 18.078125 22.164062 C 18.078125 22.875 17.636719 23.453125 17.09375 23.453125 L 6.988281 23.453125 C 6.445312 23.453125 6.007812 22.875 6.007812 22.164062 L 6.007812 12.589844 C 6.007812 11.878906 6.445312 11.300781 6.988281 11.300781 Z M 6.988281 11.300781 "/>
</g>
</g>
<g clip-path="url(#clip11)" clip-rule="nonzero">
<g clip-path="url(#clip12)" clip-rule="nonzero">
<path style="fill:none;stroke-width:0.866541;stroke-linecap:butt;stroke-linejoin:bevel;stroke:rgb(90.196079%,0.784314%,70.588237%);stroke-opacity:1;stroke-miterlimit:4;" d="M 5.208982 15.746046 L 11.044642 15.746046 C 11.358193 15.746046 11.613095 16.080152 11.613095 16.491011 L 11.613095 22.024067 C 11.613095 22.434926 11.358193 22.769031 11.044642 22.769031 L 5.208982 22.769031 C 4.895431 22.769031 4.642786 22.434926 4.642786 22.024067 L 4.642786 16.491011 C 4.642786 16.080152 4.895431 15.746046 5.208982 15.746046 Z M 5.208982 15.746046 " transform="matrix(1.731675,0,0,1.730367,-2.031986,-15.945664)"/>
</g>
</g>
<path style="fill-rule:nonzero;fill:rgb(61.56863%,22.745098%,60.784316%);fill-opacity:1;stroke-width:0.146632;stroke-linecap:round;stroke-linejoin:round;stroke:rgb(61.56863%,22.745098%,60.784316%);stroke-opacity:1;stroke-miterlimit:4;" d="M 3.858993 19.121424 C 3.875663 18.956698 3.996898 18.838156 4.149957 18.838156 C 4.251491 18.838156 4.345448 18.890499 4.396973 18.973632 C 4.450013 18.888959 4.539424 18.838156 4.639443 18.838156 C 4.792502 18.838156 4.913737 18.956698 4.928891 19.121424 C 4.930406 19.127582 4.936468 19.16607 4.919798 19.22765 C 4.898582 19.318481 4.847057 19.400074 4.771286 19.463194 L 4.396973 19.786489 L 4.016599 19.463194 C 3.942342 19.400074 3.890817 19.318481 3.868086 19.22765 C 3.852932 19.16607 3.857478 19.127582 3.858993 19.121424 Z M 3.909003 19.219952 C 3.928703 19.301546 3.975682 19.375442 4.045392 19.433943 L 4.396973 19.734146 L 4.744008 19.435483 C 4.812202 19.375442 4.859181 19.301546 4.880397 19.219952 C 4.895551 19.159912 4.88949 19.127582 4.88949 19.127582 L 4.887974 19.124503 C 4.874335 18.98133 4.76977 18.876643 4.639443 18.876643 C 4.542455 18.876643 4.45759 18.933605 4.416674 19.024436 L 4.396973 19.067542 L 4.378788 19.024436 C 4.339386 18.935144 4.24846 18.876643 4.149957 18.876643 C 4.018114 18.876643 3.913549 18.98133 3.89991 19.127582 C 3.89991 19.127582 3.893848 19.159912 3.909003 19.219952 Z M 3.909003 19.219952 " transform="matrix(2.577641,0,0,2.537346,-2.173663,-34.712977)"/>
<path style="fill:none;stroke-width:0.58653;stroke-linecap:round;stroke-linejoin:miter;stroke:rgb(90.196079%,0.784314%,70.588237%);stroke-opacity:1;stroke-miterlimit:4;" d="M 3.905972 20.177523 L 7.138396 20.177523 " transform="matrix(2.577641,0,0,2.537346,-2.173663,-34.712977)"/>
<path style="fill:none;stroke-width:0.58653;stroke-linecap:round;stroke-linejoin:miter;stroke:rgb(90.196079%,0.784314%,70.588237%);stroke-opacity:1;stroke-miterlimit:4;" d="M 3.893848 21.3614 L 7.126273 21.3614 " transform="matrix(2.577641,0,0,2.537346,-2.173663,-34.712977)"/>
<path style="fill-rule:evenodd;fill:rgb(95.294118%,71.764708%,85.09804%);fill-opacity:1;stroke-width:0.293265;stroke-linecap:round;stroke-linejoin:bevel;stroke:rgb(90.196079%,0.784314%,70.588237%);stroke-opacity:1;stroke-miterlimit:4;" d="M 5.372914 15.11256 L 5.383522 15.11256 C 5.448685 15.11256 5.501726 15.17568 5.501726 15.254194 L 5.501726 15.620596 C 5.501726 15.697571 5.448685 15.76069 5.383522 15.76069 L 5.372914 15.76069 C 5.30775 15.76069 5.253194 15.697571 5.253194 15.620596 L 5.253194 15.254194 C 5.253194 15.17568 5.30775 15.11256 5.372914 15.11256 Z M 5.372914 15.11256 " transform="matrix(2.577641,0,0,2.537346,-2.173663,-34.712977)"/>
<path style="fill-rule:nonzero;fill:rgb(94.117647%,89.019608%,92.54902%);fill-opacity:1;stroke-width:0.817946;stroke-linecap:butt;stroke-linejoin:round;stroke:rgb(61.56863%,22.745098%,60.784316%);stroke-opacity:1;stroke-miterlimit:4;" d="M 8.673913 11.234748 C 9.33583 9.971245 9.33583 9.971245 10.662505 9.457326 L 11.668165 12.583431 Z M 8.673913 11.234748 " transform="matrix(1.37503,0,0,-1.375764,0.311388,23.569639)"/>
<path style="fill:none;stroke-width:0.817946;stroke-linecap:round;stroke-linejoin:miter;stroke:rgb(61.56863%,22.745098%,60.784316%);stroke-opacity:1;stroke-miterlimit:4;" d="M 11.668165 12.583431 L 12.668143 13.699288 " transform="matrix(1.37503,0,0,-1.375764,0.311388,23.569639)"/>
<path style="fill-rule:nonzero;fill:rgb(95.294118%,71.764708%,85.09804%);fill-opacity:1;stroke-width:0.817946;stroke-linecap:round;stroke-linejoin:round;stroke:rgb(61.56863%,22.745098%,60.784316%);stroke-opacity:1;stroke-miterlimit:4;" d="M 1.841677 1.918899 L 2.171215 1.620769 C 2.631432 1.211905 3.372893 1.297085 3.83311 1.813844 L 10.330126 9.082534 C 10.790343 9.599293 12.293151 12.024082 11.832934 12.432946 L 11.503396 12.731076 C 11.043179 13.13994 8.801751 11.376715 8.341534 10.859956 L 1.844518 3.591266 C 1.384301 3.074507 1.38146 2.327763 1.841677 1.918899 Z M 1.841677 1.918899 " transform="matrix(1.37503,0,0,-1.375764,0.311388,23.569639)"/>
<path style="fill:none;stroke-width:0.817946;stroke-linecap:butt;stroke-linejoin:miter;stroke:rgb(61.56863%,22.745098%,60.784316%);stroke-opacity:1;stroke-miterlimit:4;" d="M 8.673913 11.234748 C 9.003451 9.599293 9.003451 9.599293 10.662505 9.457326 " transform="matrix(1.37503,0,0,-1.375764,0.311388,23.569639)"/>
<path style="fill-rule:nonzero;fill:rgb(94.117647%,89.019608%,92.54902%);fill-opacity:1;stroke-width:0.817946;stroke-linecap:round;stroke-linejoin:round;stroke:rgb(61.56863%,22.745098%,60.784316%);stroke-opacity:1;stroke-miterlimit:4;" d="M 5.333077 3.491889 C 3.847315 3.82977 3.847315 3.82977 3.344485 5.269311 C 3.506413 5.451028 4.193898 6.220487 4.344463 6.388008 C 4.67116 4.752553 4.67116 4.752553 6.333055 4.610586 C 6.225103 4.488495 5.557504 3.74175 5.333077 3.491889 Z M 5.333077 3.491889 " transform="matrix(1.37503,0,0,-1.375764,0.311388,23.569639)"/>
<path style="fill-rule:nonzero;fill:rgb(94.117647%,89.019608%,92.54902%);fill-opacity:1;stroke-width:0.817946;stroke-linecap:round;stroke-linejoin:round;stroke:rgb(61.56863%,22.745098%,60.784316%);stroke-opacity:1;stroke-miterlimit:4;" d="M 10.330126 9.082534 C 10.841478 9.656079 12.293151 12.024082 11.832934 12.432946 L 11.503396 12.731076 C 11.043179 13.13994 8.813114 11.388072 8.341534 10.859956 C 9.003451 9.599293 9.003451 9.599293 10.330126 9.082534 Z M 10.330126 9.082534 " transform="matrix(1.37503,0,0,-1.375764,0.311388,23.569639)"/>
<path style="fill:none;stroke-width:0.817946;stroke-linecap:round;stroke-linejoin:round;stroke:rgb(61.56863%,22.745098%,60.784316%);stroke-opacity:1;stroke-miterlimit:4;" d="M 4.00072 2.00124 L 4.330258 1.70311 C 4.668319 1.402141 5.333077 1.492999 5.659775 1.856434 L 9.324466 5.959269 " transform="matrix(1.37503,0,0,-1.375764,0.311388,23.569639)"/>
<path style="fill-rule:nonzero;fill:rgb(61.56863%,22.745098%,60.784316%);fill-opacity:1;stroke-width:0.817946;stroke-linecap:round;stroke-linejoin:round;stroke:rgb(61.56863%,22.745098%,60.784316%);stroke-opacity:1;stroke-miterlimit:4;" d="M 3.485077 10.656719 C 3.482543 10.932421 3.259832 11.156073 2.98434 11.157402 C 2.706728 11.156838 2.482945 10.934023 2.483361 10.656429 C 2.481886 10.380952 2.708606 10.157075 2.984099 10.155746 C 3.2577 10.156534 3.483602 10.381242 3.485077 10.656719 Z M 3.485077 10.656719 " transform="matrix(1.025318,0.916693,0.916205,-1.025865,0.311388,23.569639)"/>
</g>
</svg>
