<?xml version="1.0" encoding="UTF-8"?>
<svg xmlns="http://www.w3.org/2000/svg" xmlns:xlink="http://www.w3.org/1999/xlink" width="24px" height="24px" viewBox="0 0 24 24" version="1.1">
<defs>
<filter id="alpha" filterUnits="objectBoundingBox" x="0%" y="0%" width="100%" height="100%">
  <feColorMatrix type="matrix" in="SourceGraphic" values="0 0 0 0 1 0 0 0 0 1 0 0 0 0 1 0 0 0 1 0"/>
</filter>
<mask id="mask0">
  <g filter="url(#alpha)">
<rect x="0" y="0" width="24" height="24" style="fill:rgb(0%,0%,0%);fill-opacity:0.35;stroke:none;"/>
  </g>
</mask>
<clipPath id="clip1">
  <rect x="0" y="0" width="24" height="24"/>
</clipPath>
<g id="surface5" clip-path="url(#clip1)">
<path style=" stroke:none;fill-rule:nonzero;fill:rgb(33.333334%,34.117648%,32.549021%);fill-opacity:1;" d="M 12 3 C 6.988281 3 3 6.988281 3 12 C 3 17.011719 6.988281 21 12 21 C 17.011719 21 21 17.011719 21 12 C 21 6.988281 17.011719 3 12 3 Z M 12 3 "/>
</g>
</defs>
<g id="surface1">
<path style=" stroke:none;fill-rule:nonzero;fill:rgb(33.333334%,34.117648%,32.549021%);fill-opacity:1;" d="M 12 0 C 5.371094 0 0 5.371094 0 12 C 0 18.628906 5.371094 24 12 24 C 18.628906 24 24 18.628906 24 12 C 24 5.371094 18.628906 0 12 0 Z M 12 3 C 12.148438 3 12.351562 3.054688 12.699219 3.394531 C 13.042969 3.730469 13.453125 4.34375 13.804688 5.164062 C 13.921875 5.441406 14.023438 5.769531 14.128906 6.089844 C 13.4375 6.03125 12.726562 6 12 6 C 11.273438 6 10.5625 6.03125 9.871094 6.089844 C 9.976562 5.769531 10.078125 5.441406 10.195312 5.164062 C 10.546875 4.34375 10.957031 3.730469 11.300781 3.394531 C 11.648438 3.054688 11.851562 3 12 3 Z M 7.328125 4.300781 C 7.042969 5.007812 6.808594 5.789062 6.613281 6.613281 C 5.789062 6.808594 5.007812 7.042969 4.300781 7.328125 C 5.050781 6.085938 6.085938 5.050781 7.328125 4.300781 Z M 16.671875 4.300781 C 17.914062 5.050781 18.949219 6.085938 19.699219 7.328125 C 18.992188 7.042969 18.210938 6.808594 17.386719 6.613281 C 17.191406 5.789062 16.957031 5.007812 16.671875 4.300781 Z M 12 9 C 12.984375 9 13.914062 9.082031 14.804688 9.195312 C 14.917969 10.085938 15 11.015625 15 12 C 15 12.984375 14.917969 13.914062 14.804688 14.804688 C 13.914062 14.917969 12.984375 15 12 15 C 11.015625 15 10.085938 14.917969 9.195312 14.804688 C 9.082031 13.914062 9 12.984375 9 12 C 9 11.015625 9.082031 10.085938 9.195312 9.195312 C 10.085938 9.082031 11.015625 9 12 9 Z M 6.089844 9.871094 C 6.03125 10.5625 6 11.273438 6 12 C 6 12.726562 6.03125 13.4375 6.089844 14.128906 C 5.769531 14.023438 5.441406 13.921875 5.164062 13.804688 C 4.34375 13.453125 3.730469 13.042969 3.394531 12.699219 C 3.054688 12.351562 3 12.148438 3 12 C 3 11.851562 3.054688 11.648438 3.394531 11.300781 C 3.730469 10.957031 4.34375 10.546875 5.164062 10.195312 C 5.441406 10.078125 5.769531 9.976562 6.089844 9.871094 Z M 17.910156 9.871094 C 18.230469 9.976562 18.558594 10.078125 18.835938 10.195312 C 19.648438 10.546875 20.269531 10.957031 20.605469 11.300781 C 20.945312 11.648438 21 11.851562 21 12 C 21 12.148438 20.945312 12.351562 20.605469 12.699219 C 20.269531 13.042969 19.648438 13.453125 18.835938 13.804688 C 18.558594 13.921875 18.230469 14.023438 17.910156 14.128906 C 17.96875 13.4375 18 12.726562 18 12 C 18 11.273438 17.96875 10.5625 17.910156 9.871094 Z M 4.300781 16.671875 C 5.007812 16.957031 5.789062 17.191406 6.613281 17.386719 C 6.808594 18.210938 7.042969 18.992188 7.328125 19.699219 C 6.085938 18.949219 5.050781 17.914062 4.300781 16.671875 Z M 19.699219 16.671875 C 18.949219 17.914062 17.914062 18.949219 16.671875 19.699219 C 16.957031 18.992188 17.191406 18.210938 17.386719 17.386719 C 18.210938 17.191406 18.992188 16.957031 19.699219 16.671875 Z M 9.871094 17.910156 C 10.5625 17.96875 11.273438 18 12 18 C 12.726562 18 13.4375 17.96875 14.128906 17.910156 C 14.023438 18.230469 13.921875 18.558594 13.804688 18.835938 C 13.453125 19.648438 13.042969 20.269531 12.699219 20.605469 C 12.351562 20.945312 12.148438 21 12 21 C 11.851562 21 11.648438 20.945312 11.300781 20.605469 C 10.957031 20.269531 10.546875 19.648438 10.195312 18.835938 C 10.078125 18.558594 9.976562 18.230469 9.871094 17.910156 Z M 9.871094 17.910156 "/>
<use xlink:href="#surface5" mask="url(#mask0)"/>
</g>
</svg>
