<?xml version="1.0" encoding="UTF-8"?>
<svg xmlns="http://www.w3.org/2000/svg" xmlns:xlink="http://www.w3.org/1999/xlink" width="24px" height="24px" viewBox="0 0 24 24" version="1.1">
<g id="surface1">
<path style="fill-rule:nonzero;fill:rgb(94.117647%,89.019608%,92.54902%);fill-opacity:1;stroke-width:1;stroke-linecap:round;stroke-linejoin:round;stroke:rgb(90.196079%,0.784314%,70.588237%);stroke-opacity:1;stroke-miterlimit:4;" d="M 5 1 L 14 1 C 14.554688 1 15 1.445312 15 2 L 15 12 C 14 13 13 14 12 15 L 5 15 C 4.445312 15 4 14.554688 4 14 L 4 2 C 4 1.445312 4.445312 1 5 1 Z M 5 1 " transform="matrix(1.5,0,0,1.5,0,0)"/>
<path style="fill-rule:nonzero;fill:rgb(61.56863%,22.745098%,60.784316%);fill-opacity:1;stroke-width:1;stroke-linecap:round;stroke-linejoin:round;stroke:rgb(95.294118%,71.764708%,85.09804%);stroke-opacity:1;stroke-miterlimit:4;" d="M 1.570312 3 L 8.929688 3 C 9.244792 3 9.5 3.255208 9.5 3.570312 L 9.5 10.429688 C 9.5 10.744792 9.244792 11 8.929688 11 L 1.570312 11 C 1.255208 11 1 10.744792 1 10.429688 L 1 3.570312 C 1 3.255208 1.255208 3 1.570312 3 Z M 1.570312 3 " transform="matrix(1.5,0,0,1.5,0,0)"/>
<path style="fill:none;stroke-width:0.5;stroke-linecap:round;stroke-linejoin:round;stroke:rgb(94.117647%,89.019608%,92.54902%);stroke-opacity:1;stroke-miterlimit:4;" d="M 7.4375 6.229167 C 7.570312 5.010417 2.463542 9.359375 3.921875 9.5 C 5.380208 9.640625 3.546875 3.927083 2.846354 4.820312 C 2.148438 5.716146 7.302083 7.447917 7.4375 6.229167 Z M 7.4375 6.229167 " transform="matrix(1.5,0,0,1.5,0,0)"/>
<path style="fill-rule:nonzero;fill:rgb(94.117647%,89.019608%,92.54902%);fill-opacity:1;stroke-width:1.104222;stroke-linecap:butt;stroke-linejoin:round;stroke:rgb(94.117647%,89.019608%,92.54902%);stroke-opacity:1;stroke-miterlimit:4;" d="M 8.673814 11.234152 C 9.336961 9.972611 9.336961 9.972611 10.663754 9.45648 L 11.667955 12.583111 Z M 8.673814 11.234152 " transform="matrix(-1.274749,0.469389,0.469389,1.274749,22.416567,-1.6929)"/>
<path style="fill:none;stroke-width:0.552111;stroke-linecap:round;stroke-linejoin:miter;stroke:rgb(61.56863%,22.745098%,60.784316%);stroke-opacity:1;stroke-miterlimit:4;" d="M 11.667955 12.583111 L 12.667967 13.701085 " transform="matrix(-1.274749,0.469389,0.469389,1.274749,22.416567,-1.6929)"/>
<path style="fill-rule:nonzero;fill:rgb(95.294118%,71.764708%,85.09804%);fill-opacity:1;stroke-width:1.104222;stroke-linecap:round;stroke-linejoin:round;stroke:rgb(90.196079%,0.784314%,70.588237%);stroke-opacity:1;stroke-miterlimit:4;" d="M 1.842139 1.918344 L 2.171382 1.622444 C 2.629878 1.211534 3.372173 1.296732 3.83221 1.813747 L 10.330085 9.082923 C 10.790121 9.599937 12.292918 12.025104 11.833429 12.433315 L 11.501488 12.730209 C 11.042992 13.141118 8.80288 11.376616 8.340145 10.860595 L 1.844968 3.590425 C 1.382233 3.074404 1.379951 2.327549 1.842139 1.918344 Z M 1.842139 1.918344 " transform="matrix(-1.274749,0.469389,0.469389,1.274749,22.416567,-1.6929)"/>
<path style="fill:none;stroke-width:1.104222;stroke-linecap:butt;stroke-linejoin:miter;stroke:rgb(90.196079%,0.784314%,70.588237%);stroke-opacity:1;stroke-miterlimit:4;" d="M 8.673814 11.234152 C 9.003293 9.599054 9.003293 9.599054 10.663754 9.45648 " transform="matrix(-1.274749,0.469389,0.469389,1.274749,22.416567,-1.6929)"/>
<path style="fill-rule:nonzero;fill:rgb(94.117647%,89.019608%,92.54902%);fill-opacity:1;stroke-width:1.104222;stroke-linecap:round;stroke-linejoin:round;stroke:rgb(90.196079%,0.784314%,70.588237%);stroke-opacity:1;stroke-miterlimit:4;" d="M 5.332724 3.492058 C 3.848469 3.830216 3.848469 3.830216 3.345483 5.268736 C 3.507631 5.451112 4.194705 6.218538 4.342796 6.387704 C 4.672275 4.752605 4.672275 4.752605 6.332736 4.610032 C 6.223406 4.48788 5.557063 3.743463 5.332724 3.492058 Z M 5.332724 3.492058 " transform="matrix(-1.274749,0.469389,0.469389,1.274749,22.416567,-1.6929)"/>
<path style="fill-rule:nonzero;fill:rgb(94.117647%,89.019608%,92.54902%);fill-opacity:1;stroke-width:1.104222;stroke-linecap:round;stroke-linejoin:round;stroke:rgb(90.196079%,0.784314%,70.588237%);stroke-opacity:1;stroke-miterlimit:4;" d="M 10.330085 9.082923 C 10.840953 9.654764 12.292918 12.025104 11.833429 12.433315 L 11.501488 12.730209 C 11.042992 13.141118 8.813245 11.388121 8.340145 10.860595 C 9.003293 9.599054 9.003293 9.599054 10.330085 9.082923 Z M 10.330085 9.082923 " transform="matrix(-1.274749,0.469389,0.469389,1.274749,22.416567,-1.6929)"/>
<path style="fill:none;stroke-width:1.104222;stroke-linecap:round;stroke-linejoin:round;stroke:rgb(90.196079%,0.784314%,70.588237%);stroke-opacity:1;stroke-miterlimit:4;" d="M 3.999044 2.000526 L 4.330985 1.703632 C 4.670027 1.401058 5.335208 1.493201 5.659505 1.857952 L 9.326877 5.95899 " transform="matrix(-1.274749,0.469389,0.469389,1.274749,22.416567,-1.6929)"/>
<path style=" stroke:none;fill-rule:nonzero;fill:rgb(61.56863%,22.745098%,60.784316%);fill-opacity:1;" d="M 12.695312 10.03125 C 12.554688 10.378906 12.726562 10.773438 13.078125 10.910156 C 13.425781 11.050781 13.820312 10.878906 13.957031 10.53125 C 14.09375 10.179688 13.925781 9.785156 13.574219 9.648438 C 13.226562 9.511719 12.832031 9.679688 12.695312 10.03125 Z M 12.695312 10.03125 "/>
</g>
</svg>
