<?xml version="1.0" encoding="UTF-8"?>
<svg xmlns="http://www.w3.org/2000/svg" xmlns:xlink="http://www.w3.org/1999/xlink" width="24px" height="24px" viewBox="0 0 24 24" version="1.1">
<g id="surface1">
<path style=" stroke:none;fill-rule:nonzero;fill:rgb(33.333334%,34.117648%,32.549021%);fill-opacity:1;" d="M 4.5 4.5 L 4.5 7.5 L 10.5 7.5 C 11.328125 7.5 12 8.171875 12 9 L 12 10.5 L 6 10.5 C 3.515625 10.5 1.5 12.515625 1.5 15 C 1.5 17.484375 3.515625 19.5 6 19.5 L 15 19.5 L 15 9 C 15 6.515625 12.984375 4.5 10.5 4.5 Z M 6 13.5 L 12 13.5 L 12 16.5 L 6 16.5 C 5.171875 16.5 4.5 15.828125 4.5 15 C 4.5 14.171875 5.171875 13.5 6 13.5 Z M 6 13.5 "/>
<path style=" stroke:none;fill-rule:nonzero;fill:rgb(33.333334%,34.117648%,32.549021%);fill-opacity:1;" d="M 16.5 7.5 L 16.5 10.5 L 18 10.5 L 18 19.5 L 16.5 19.5 L 16.5 22.5 L 22.5 22.5 L 22.5 19.5 L 21 19.5 L 21 10.5 L 22.5 10.5 L 22.5 7.5 Z M 16.5 7.5 "/>
</g>
</svg>
