<?xml version="1.0" encoding="UTF-8"?>
<svg xmlns="http://www.w3.org/2000/svg" xmlns:xlink="http://www.w3.org/1999/xlink" width="24px" height="24px" viewBox="0 0 24 24" version="1.1">
<defs>
<filter id="alpha" filterUnits="objectBoundingBox" x="0%" y="0%" width="100%" height="100%">
  <feColorMatrix type="matrix" in="SourceGraphic" values="0 0 0 0 1 0 0 0 0 1 0 0 0 0 1 0 0 0 1 0"/>
</filter>
<mask id="mask0">
  <g filter="url(#alpha)">
<rect x="0" y="0" width="24" height="24" style="fill:rgb(0%,0%,0%);fill-opacity:0.35;stroke:none;"/>
  </g>
</mask>
<clipPath id="clip1">
  <rect x="0" y="0" width="24" height="24"/>
</clipPath>
<g id="surface5" clip-path="url(#clip1)">
<path style=" stroke:none;fill-rule:nonzero;fill:rgb(33.333334%,34.117648%,32.549021%);fill-opacity:1;" d="M 15 12 C 15 13.65625 13.65625 15 12 15 C 10.34375 15 9 13.65625 9 12 C 9 10.34375 10.34375 9 12 9 C 13.65625 9 15 10.34375 15 12 Z M 15 12 "/>
</g>
</defs>
<g id="surface1">
<path style=" stroke:none;fill-rule:nonzero;fill:rgb(33.333334%,34.117648%,32.549021%);fill-opacity:1;" d="M 11.253906 0 L 10.960938 4.105469 L 9.613281 0.214844 L 8.171875 0.601562 L 8.953125 4.644531 L 6.648438 1.234375 L 5.351562 1.980469 L 7.152344 5.683594 L 4.042969 2.984375 L 2.984375 4.042969 L 5.683594 7.152344 L 1.980469 5.351562 L 1.234375 6.648438 L 4.636719 8.949219 L 0.601562 8.171875 L 0.214844 9.617188 L 4.101562 10.964844 L -0.00390625 11.253906 L -0.00390625 12.75 L 4.101562 13.039062 L 0.214844 14.386719 L 0.601562 15.828125 L 4.640625 15.046875 L 1.234375 17.351562 L 1.980469 18.652344 L 5.679688 16.847656 L 2.984375 19.957031 L 4.042969 21.015625 L 7.152344 18.320312 L 5.351562 22.019531 L 6.648438 22.769531 L 8.953125 19.359375 L 8.171875 23.398438 L 9.613281 23.785156 L 10.960938 19.898438 L 11.253906 24.003906 L 12.746094 24.003906 L 13.039062 19.898438 L 14.386719 23.785156 L 15.828125 23.398438 L 15.046875 19.359375 L 17.351562 22.769531 L 18.648438 22.019531 L 16.847656 18.320312 L 19.957031 21.015625 L 21.015625 19.957031 L 18.320312 16.847656 L 22.019531 18.652344 L 22.765625 17.351562 L 19.359375 15.046875 L 23.398438 15.828125 L 23.785156 14.386719 L 19.898438 13.039062 L 24.003906 12.75 L 24.003906 11.253906 L 19.898438 10.964844 L 23.785156 9.617188 L 23.398438 8.171875 L 19.363281 8.949219 L 22.765625 6.648438 L 22.019531 5.351562 L 18.316406 7.152344 L 21.015625 4.042969 L 19.957031 2.984375 L 16.847656 5.683594 L 18.648438 1.980469 L 17.351562 1.234375 L 15.046875 4.644531 L 15.828125 0.605469 L 14.386719 0.214844 L 13.039062 4.105469 L 12.746094 0 Z M 12 9 C 13.65625 9 15 10.34375 15 12 C 15 13.65625 13.65625 15 12 15 C 10.34375 15 9 13.65625 9 12 C 9 10.34375 10.34375 9 12 9 Z M 12 9 "/>
<use xlink:href="#surface5" mask="url(#mask0)"/>
</g>
</svg>
