<?xml version="1.0" encoding="UTF-8"?>
<svg xmlns="http://www.w3.org/2000/svg" xmlns:xlink="http://www.w3.org/1999/xlink" width="24px" height="24px" viewBox="0 0 24 24" version="1.1">
<g id="surface1">
<path style=" stroke:none;fill-rule:nonzero;fill:rgb(33.333334%,34.117648%,32.549021%);fill-opacity:1;" d="M 3 1.5 L 3 22.5 L 13.5 22.5 L 13.5 18 L 10.5 18 L 10.5 19.5 L 6 19.5 L 6 4.5 L 10.5 4.5 L 10.5 6 L 13.5 6 L 13.5 1.5 Z M 15 1.5 L 15 6 L 16.5 6 L 16.5 18 L 15 18 L 15 22.5 L 21 22.5 L 21 1.5 Z M 12 7.5 C 11.535156 7.5 11.171875 7.636719 10.875 7.921875 L 7.5 10.6875 L 7.5 13.246094 C 9.125 14.683594 9.25 14.847656 10.875 16.078125 C 11.171875 16.363281 11.535156 16.5 12 16.5 L 13.5 16.5 L 13.5 15 C 13.5 14.613281 13.304688 14.207031 13.03125 13.921875 L 12.265625 13.5 L 15 13.5 L 15 10.5 L 12.265625 10.5 L 13.03125 10.078125 C 13.304688 9.792969 13.5 9.386719 13.5 9 L 13.5 7.5 Z M 12 7.5 "/>
</g>
</svg>
