<?xml version="1.0" encoding="UTF-8"?>
<svg xmlns="http://www.w3.org/2000/svg" xmlns:xlink="http://www.w3.org/1999/xlink" width="24px" height="24px" viewBox="0 0 24 24" version="1.1">
<g id="surface1">
<path style="fill-rule:nonzero;fill:rgb(94.117647%,89.019608%,92.54902%);fill-opacity:1;stroke-width:1;stroke-linecap:butt;stroke-linejoin:miter;stroke:rgb(90.196079%,0.784314%,70.588237%);stroke-opacity:1;stroke-miterlimit:4;" d="M 4.721354 1.5 C 4.736979 1.604167 4.747396 1.708333 4.75 1.815104 L 4.75 1.903646 C 4.75 3.46875 3.476562 4.736979 1.90625 4.736979 C 1.768229 4.736979 1.632812 4.729167 1.5 4.708333 L 1.5 11.239583 C 1.632812 11.221354 1.768229 11.210938 1.90625 11.210938 C 3.445312 11.210938 4.700521 12.424479 4.75 13.955729 L 4.75 14.044271 C 4.75 14.200521 4.739583 14.351562 4.716146 14.5 L 11.283854 14.5 C 11.260417 14.351562 11.255208 14.200521 11.25 14.044271 C 11.200521 12.315104 12.385417 11.239583 14.5 11.239583 L 14.5 4.708333 C 14.367188 4.729167 14.231771 4.736979 14.09375 4.736979 C 12.523438 4.736979 11.25 3.46875 11.25 1.903646 C 11.25 1.768229 11.260417 1.632812 11.278646 1.5 Z M 4.721354 1.5 " transform="matrix(1.5,0,0,1.5,0,0)"/>
</g>
</svg>
