<?xml version="1.0" encoding="UTF-8" standalone="no"?>
<svg
   xmlns:dc="http://purl.org/dc/elements/1.1/"
   xmlns:cc="http://creativecommons.org/ns#"
   xmlns:rdf="http://www.w3.org/1999/02/22-rdf-syntax-ns#"
   xmlns:svg="http://www.w3.org/2000/svg"
   xmlns="http://www.w3.org/2000/svg"
   xmlns:xlink="http://www.w3.org/1999/xlink"
   xmlns:sodipodi="http://sodipodi.sourceforge.net/DTD/sodipodi-0.dtd"
   xmlns:inkscape="http://www.inkscape.org/namespaces/inkscape"
   height="24"
   width="24"
   version="1.1"
   id="svg64"
   sodipodi:docname="lc_safemode.svg"
   inkscape:version="0.92.4 (unknown)"
   inkscape:export-filename="/home/annisaauliarasyidah/Desktop/4_242 (aulia)/lc 222/lc_safemode.png"
   inkscape:export-xdpi="96"
   inkscape:export-ydpi="96">
  <metadata
     id="metadata70">
    <rdf:RDF>
      <cc:Work
         rdf:about="">
        <dc:format>image/svg+xml</dc:format>
        <dc:type
           rdf:resource="http://purl.org/dc/dcmitype/StillImage" />
        <dc:title></dc:title>
      </cc:Work>
    </rdf:RDF>
  </metadata>
  <defs
     id="defs68" />
  <sodipodi:namedview
     pagecolor="#ffffff"
     bordercolor="#666666"
     borderopacity="1"
     objecttolerance="10"
     gridtolerance="10"
     guidetolerance="10"
     inkscape:pageopacity="0"
     inkscape:pageshadow="2"
     inkscape:window-width="1366"
     inkscape:window-height="707"
     id="namedview66"
     showgrid="true"
     inkscape:zoom="11.36688"
     inkscape:cx="-2.8241297"
     inkscape:cy="8"
     inkscape:window-x="0"
     inkscape:window-y="0"
     inkscape:window-maximized="1"
     inkscape:current-layer="svg64">
    <inkscape:grid
       type="xygrid"
       id="grid840" />
  </sodipodi:namedview>
  <linearGradient
     id="a">
    <stop
       offset="0"
       stop-color="#fff"
       id="stop2" />
    <stop
       offset="1"
       stop-color="#fff"
       stop-opacity="0"
       id="stop4" />
  </linearGradient>
  <radialGradient
     id="b"
     cx="64"
     cy="52.322273"
     fx="63.844189"
     fy="47.808315"
     gradientTransform="matrix(0.16222624,0,0,0.31821373,-2.3824796,-10.242083)"
     gradientUnits="userSpaceOnUse"
     r="36">
    <stop
       offset="0"
       stop-color="#00bf00"
       id="stop7" />
    <stop
       offset="1"
       stop-color="#004d00"
       id="stop9" />
  </radialGradient>
  <linearGradient
     id="c"
     gradientUnits="userSpaceOnUse"
     x1="65.131119"
     x2="65.131119"
     xlink:href="#a"
     y1="9.5732002"
     y2="60.543098"
     gradientTransform="scale(0.125)" />
  <clipPath
     id="d">
    <path
       d="M 57.659091,25.932002 C 49.908853,33.678878 33.667605,40.58867 28,42.164006 c 0,24.332949 16.32661,61.108724 36,61.108724 19.629515,0 36,-36.775775 36,-61.108724 -5.667604,-1.575336 -21.908853,-8.485128 -29.659091,-16.232004 -2.198869,-1.606783 -10.482862,-1.605827 -12.681818,0 z"
       id="path13"
       inkscape:connector-curvature="0" />
  </clipPath>
  <filter
     id="e"
     height="1.227723"
     width="1.248425"
     x="-0.124212"
     y="-0.113861">
    <feGaussianBlur
       stdDeviation="3.7263727"
       id="feGaussianBlur16" />
  </filter>
  <linearGradient
     id="f"
     gradientUnits="userSpaceOnUse"
     x1="64"
     x2="64"
     y1="24.727274"
     y2="85">
    <stop
       offset="0"
       id="stop19" />
    <stop
       offset="1"
       stop-opacity="0"
       id="stop21" />
  </linearGradient>
  <linearGradient
     id="g"
     gradientUnits="userSpaceOnUse"
     x1="66.21801"
     x2="66.21801"
     xlink:href="#a"
     y1="111.9475"
     y2="35.046722"
     gradientTransform="scale(0.125)" />
  <linearGradient
     id="h"
     gradientUnits="userSpaceOnUse"
     x1="65.497627"
     x2="65.497627"
     xlink:href="#a"
     y1="17.6523"
     y2="34.035549"
     gradientTransform="scale(0.125)" />
  <radialGradient
     id="i"
     cx="64"
     cy="64"
     fx="63.595577"
     fy="73.4534"
     gradientTransform="matrix(1,0,0,1.0909091,0,-5.818185)"
     gradientUnits="userSpaceOnUse"
     r="24.06951">
    <stop
       offset="0"
       stop-color="#0f0"
       id="stop26" />
    <stop
       offset="1"
       stop-color="#0f0"
       stop-opacity="0"
       id="stop28" />
  </radialGradient>
  <filter
     id="j"
     height="1.330198"
     width="1.360216"
     x="-0.180108"
     y="-0.16509899">
    <feGaussianBlur
       stdDeviation="3.612593"
       id="feGaussianBlur31" />
  </filter>
  <g
     id="g838"
     transform="matrix(1.5909091,0,0,1.5909091,-0.7272728,-0.72727282)"
     style="stroke-width:0.62857139">
    <path
       inkscape:connector-curvature="0"
       style="fill:#e602b4;fill-rule:evenodd;stroke-width:0.07857142"
       id="path42"
       d="M 7.2073864,3.2415003 C 6.2386066,4.2098597 4.2084506,5.0735837 3.5,5.2705007 c 0,3.0416187 2.0408262,7.6385903 4.5,7.6385903 2.453689,0 4.5,-4.5969716 4.5,-7.6385903 C 11.79155,5.0735837 9.7613934,4.2098597 8.7926136,3.2415002 8.517755,3.0406524 7.4822559,3.0407719 7.2073864,3.2415003 Z" />
    <path
       d="M 7.03125,2.1840558 C 5.8471859,3.3676063 3.365884,4.4232691 2.5,4.6639452 2.5,8.3814793 4.994343,14 8,14 10.998954,14 13.5,8.3814793 13.5,4.6639452 12.634116,4.4232691 10.152814,3.3676063 8.96875,2.1840558 c -0.3359384,-0.2454807 -1.6015485,-0.2453347 -1.9375,0 z"
       style="opacity:1;fill:#e602b4;stroke:#9d3a9b;stroke-width:1.25714278;stroke-linecap:round;stroke-linejoin:round"
       id="path34"
       inkscape:connector-curvature="0" />
    <path
       style="fill:#f0e3ec;stroke:#f0e3ec;stroke-width:0.3142857;stroke-linecap:round;stroke-linejoin:round"
       inkscape:connector-curvature="0"
       id="path58"
       d="M 7.3954222,8.6497699 C 7.025167,8.2717824 5.9747124,7.2045428 5.9747124,7.2045428 L 5.40075,7.7906522 7.3954222,9.8221051 10.632327,6.5314414 10.058286,5.9453707 c 0,0 -2.2215635,2.2538174 -2.6628638,2.7043992 z" />
  </g>
</svg>
