<?xml version="1.0" encoding="UTF-8"?>
<svg xmlns="http://www.w3.org/2000/svg" xmlns:xlink="http://www.w3.org/1999/xlink" width="24px" height="24px" viewBox="0 0 24 24" version="1.1">
<g id="surface1">
<path style="fill-rule:nonzero;fill:rgb(94.117647%,89.019608%,92.54902%);fill-opacity:1;stroke-width:1;stroke-linecap:butt;stroke-linejoin:round;stroke:rgb(90.196079%,0.784314%,70.588237%);stroke-opacity:1;stroke-miterlimit:4;" d="M 4.333333 1.5 L 11.666667 1.5 C 12.583333 1.5 13.5 2.429688 13.5 3.356771 L 13.5 10.786458 C 13.5 11.713542 10.75 14.5 9.833333 14.5 L 4.333333 14.5 C 3.416667 14.5 2.5 13.570312 2.5 12.643229 L 2.5 3.356771 C 2.5 2.429688 3.416667 1.5 4.333333 1.5 Z M 4.333333 1.5 " transform="matrix(1.5,0,0,1.5,0,0)"/>
<path style="fill-rule:nonzero;fill:rgb(94.117647%,89.019608%,92.54902%);fill-opacity:1;stroke-width:1;stroke-linecap:round;stroke-linejoin:round;stroke:rgb(90.196079%,0.784314%,70.588237%);stroke-opacity:1;stroke-miterlimit:4;" d="M 10.195312 7.346354 C 10.195312 9.195312 8.695312 10.692708 6.846354 10.692708 C 5 10.692708 3.5 9.195312 3.5 7.346354 C 3.5 5.497396 5 4 6.846354 4 C 8.695312 4 10.195312 5.497396 10.195312 7.346354 Z M 10.195312 7.346354 " transform="matrix(1.5,0,0,1.5,0,0)"/>
<path style="fill-rule:nonzero;fill:rgb(95.294118%,71.764708%,85.09804%);fill-opacity:1;stroke-width:1;stroke-linecap:round;stroke-linejoin:round;stroke:rgb(90.196079%,0.784314%,70.588237%);stroke-opacity:1;stroke-miterlimit:4;" d="M 2.5 9.773438 C 2.5625 9.773438 4 8 4.5 8 C 5 8 5.5 9.182292 6 9.182292 C 6.5 9.182292 7.5 8 8 8 C 8.5 8 9.5 9.182292 10 9.182292 C 10.5 9.182292 11 8 11.5 8 C 12 8 12.979167 9.182292 13.5 9.182292 L 13.5 10.109375 C 13.5 10.955729 10.75 14.5 9.833333 14.5 L 4.333333 14.5 C 3.416667 14.5 2.5 13.403646 2.5 12.304688 C 2.429688 12.807292 2.5 10.364583 2.5 9.773438 Z M 2.5 9.773438 " transform="matrix(1.5,0,0,1.5,0,0)"/>
<path style="fill-rule:nonzero;fill:rgb(94.117647%,89.019608%,92.54902%);fill-opacity:1;stroke-width:1;stroke-linecap:butt;stroke-linejoin:round;stroke:rgb(90.196079%,0.784314%,70.588237%);stroke-opacity:1;stroke-miterlimit:4;" d="M 13.5 11 L 10 14.5 L 10 11 L 13.5 11 " transform="matrix(1.5,0,0,1.5,0,0)"/>
</g>
</svg>
