<?xml version="1.0" encoding="UTF-8"?>
<svg xmlns="http://www.w3.org/2000/svg" xmlns:xlink="http://www.w3.org/1999/xlink" width="24px" height="24px" viewBox="0 0 24 24" version="1.1">
<g id="surface1">
<path style=" stroke:none;fill-rule:nonzero;fill:rgb(33.333334%,34.117648%,32.549021%);fill-opacity:1;" d="M 1.5 3 L 1.5 21 L 12.136719 21 L 12.121094 18 L 9 18 L 9 15 L 12 15 C 12 14.457031 12.15625 13.960938 12.371094 13.5 L 9 13.5 L 9 10.5 L 22.5 10.5 L 22.5 3 Z M 4.5 6 L 7.5 6 L 7.5 9 L 4.5 9 Z M 9 6 L 15 6 L 15 9 L 9 9 Z M 16.5 6 L 19.5 6 L 19.5 9 L 16.5 9 Z M 4.5 10.5 L 7.5 10.5 L 7.5 13.5 L 4.5 13.5 Z M 18 12 C 15.515625 12 13.5 13.34375 13.5 15 C 13.503906 15.804688 13.992188 16.578125 14.851562 17.140625 C 13.996094 17.566406 13.5 18.148438 13.5 18.75 C 13.5 19.304688 13.910156 19.835938 14.652344 20.25 C 13.910156 20.664062 13.5 21.195312 13.5 21.75 C 13.5 22.992188 15.515625 24 18 24 C 20.484375 24 22.5 22.992188 22.5 21.75 C 22.5 21.195312 22.089844 20.664062 21.347656 20.25 C 22.089844 19.835938 22.5 19.304688 22.5 18.75 C 22.5 18.144531 22.011719 17.566406 21.148438 17.144531 C 22.015625 16.578125 22.5 15.808594 22.5 15 C 22.5 13.34375 20.484375 12 18 12 Z M 4.5 15 L 7.5 15 L 7.5 18 L 4.5 18 Z M 18 18 C 19.65625 18 21 18.335938 21 18.75 C 21 19.164062 19.65625 19.5 18 19.5 C 16.34375 19.5 15 19.164062 15 18.75 C 15 18.335938 16.34375 18 18 18 Z M 18 21 C 19.65625 21 21 21.335938 21 21.75 C 21 22.164062 19.65625 22.5 18 22.5 C 16.34375 22.5 15 22.164062 15 21.75 C 15 21.335938 16.34375 21 18 21 Z M 18 21 "/>
</g>
</svg>
