<?xml version="1.0" encoding="UTF-8"?>
<svg xmlns="http://www.w3.org/2000/svg" xmlns:xlink="http://www.w3.org/1999/xlink" width="24px" height="24px" viewBox="0 0 24 24" version="1.1">
<g id="surface1">
<path style="fill-rule:nonzero;fill:rgb(94.117647%,89.019608%,92.54902%);fill-opacity:1;stroke-width:1;stroke-linecap:butt;stroke-linejoin:round;stroke:rgb(90.196079%,0.784314%,70.588237%);stroke-opacity:1;stroke-miterlimit:4;" d="M 0.999917 4.998978 L 1.001091 10.999886 C 0.998256 11.999824 2.001806 13.00053 3.00071 13.000142 L 13.001494 12.999604 C 14.000398 12.999216 14.998914 11.999923 15.001749 10.999985 L 15.000575 4.999077 C 15.000187 4.000172 13.99986 2.998433 13.000956 2.998821 L 3.000173 2.999359 C 2.001268 2.999747 0.999529 4.000074 0.999917 4.998978 Z M 0.999917 4.998978 " transform="matrix(1.098723,0.352375,-0.352375,1.098723,7.16679,-1.42687)"/>
<path style="fill:none;stroke-width:1;stroke-linecap:round;stroke-linejoin:miter;stroke:rgb(95.294118%,71.764708%,85.09804%);stroke-opacity:1;stroke-miterlimit:4;" d="M 3.499435 4.00181 L 3.501386 12.000526 " transform="matrix(1.098723,0.352375,-0.352375,1.098723,7.16679,-1.42687)"/>
<path style="fill:none;stroke-width:1;stroke-linecap:round;stroke-linejoin:miter;stroke:rgb(95.294118%,71.764708%,85.09804%);stroke-opacity:1;stroke-miterlimit:4;" d="M 4.498728 5.000326 L 13.998447 5.000499 " transform="matrix(1.098723,0.352375,-0.352375,1.098723,7.16679,-1.42687)"/>
<path style="fill:none;stroke-width:1;stroke-linecap:round;stroke-linejoin:miter;stroke:rgb(95.294118%,71.764708%,85.09804%);stroke-opacity:1;stroke-miterlimit:4;" d="M 4.500539 7.001358 L 14.000258 7.001532 " transform="matrix(1.098723,0.352375,-0.352375,1.098723,7.16679,-1.42687)"/>
<path style="fill:none;stroke-width:1;stroke-linecap:round;stroke-linejoin:miter;stroke:rgb(95.294118%,71.764708%,85.09804%);stroke-opacity:1;stroke-miterlimit:4;" d="M 4.501315 8.999167 L 14.001034 8.99934 " transform="matrix(1.098723,0.352375,-0.352375,1.098723,7.16679,-1.42687)"/>
<path style="fill:none;stroke-width:1;stroke-linecap:round;stroke-linejoin:miter;stroke:rgb(95.294118%,71.764708%,85.09804%);stroke-opacity:1;stroke-miterlimit:4;" d="M 4.499902 11.001233 L 13.999621 11.001407 " transform="matrix(1.098723,0.352375,-0.352375,1.098723,7.16679,-1.42687)"/>
<path style="fill:none;stroke-width:0.5;stroke-linecap:round;stroke-linejoin:round;stroke:rgb(61.56863%,22.745098%,60.784316%);stroke-opacity:1;stroke-miterlimit:4;" d="M 2.142135 4.636209 L 2.989764 6.447747 C 3.307481 7.128009 3.886825 7.116413 4.45298 6.853069 C 5.133242 6.535352 5.239523 5.946645 5.026293 5.492408 L 3.544264 2.323569 C 3.331034 1.869331 2.892814 1.522803 2.438576 1.736033 C 1.987562 1.94823 1.971544 2.507988 2.18374 2.959002 C 2.396971 3.41324 2.765957 4.197938 3.03137 4.77054 C 3.150574 5.020286 3.450471 5.667155 3.558181 5.892145 C 3.736927 6.272117 4.447415 6.026477 4.238443 5.574429 L 3.499435 4.00181 " transform="matrix(1.098723,0.352375,-0.352375,1.098723,7.16679,-1.42687)"/>
<path style="fill-rule:nonzero;fill:rgb(94.117647%,89.019608%,92.54902%);fill-opacity:1;stroke-width:1;stroke-linecap:butt;stroke-linejoin:round;stroke:rgb(90.196079%,0.784314%,70.588237%);stroke-opacity:1;stroke-miterlimit:4;" d="M 0.999999 5.000261 L 0.999999 10.99922 C 0.999999 12.001303 1.998697 13.000001 3.00078 13.000001 L 13.001301 13.000001 C 13.999999 13.000001 14.998697 12.001303 14.998697 10.99922 L 14.998697 5.000261 C 14.998697 4.001563 13.999999 2.99948 13.001301 2.99948 L 3.00078 2.99948 C 1.998697 2.99948 0.999999 4.001563 0.999999 5.000261 Z M 0.999999 5.000261 " transform="matrix(1.153846,0,0,1.153846,1.096155,6.749999)"/>
<path style="fill:none;stroke-width:1;stroke-linecap:round;stroke-linejoin:miter;stroke:rgb(95.294118%,71.764708%,85.09804%);stroke-opacity:1;stroke-miterlimit:4;" d="M 3.498436 4.001563 L 3.498436 12.001303 " transform="matrix(1.153846,0,0,1.153846,1.096155,6.749999)"/>
<path style="fill:none;stroke-width:1;stroke-linecap:round;stroke-linejoin:miter;stroke:rgb(95.294118%,71.764708%,85.09804%);stroke-opacity:1;stroke-miterlimit:4;" d="M 4.50052 5.000261 L 13.999999 5.000261 " transform="matrix(1.153846,0,0,1.153846,1.096155,6.749999)"/>
<path style="fill:none;stroke-width:1;stroke-linecap:round;stroke-linejoin:miter;stroke:rgb(95.294118%,71.764708%,85.09804%);stroke-opacity:1;stroke-miterlimit:4;" d="M 4.50052 7.001042 L 13.999999 7.001042 " transform="matrix(1.153846,0,0,1.153846,1.096155,6.749999)"/>
<path style="fill:none;stroke-width:1;stroke-linecap:round;stroke-linejoin:miter;stroke:rgb(95.294118%,71.764708%,85.09804%);stroke-opacity:1;stroke-miterlimit:4;" d="M 4.50052 8.998438 L 13.999999 8.998438 " transform="matrix(1.153846,0,0,1.153846,1.096155,6.749999)"/>
<path style="fill:none;stroke-width:1;stroke-linecap:round;stroke-linejoin:miter;stroke:rgb(95.294118%,71.764708%,85.09804%);stroke-opacity:1;stroke-miterlimit:4;" d="M 4.50052 10.99922 L 13.999999 10.99922 " transform="matrix(1.153846,0,0,1.153846,1.096155,6.749999)"/>
<path style="fill:none;stroke-width:0.5;stroke-linecap:round;stroke-linejoin:round;stroke:rgb(61.56863%,22.745098%,60.784316%);stroke-opacity:1;stroke-miterlimit:4;" d="M 2.140884 4.634636 L 2.990624 6.445834 C 3.308853 7.126303 3.887759 7.116147 4.453124 6.852084 C 5.133593 6.533855 5.238541 5.944792 5.028645 5.494532 L 3.542447 2.322396 C 3.332551 1.872136 2.892447 1.523438 2.438801 1.736719 C 1.988541 1.946615 1.971614 2.505209 2.184895 2.958855 C 2.398176 3.412501 2.763801 4.197917 3.031249 4.770053 C 3.149739 5.020574 3.451041 5.667188 3.555989 5.890626 C 3.735416 6.269792 4.449739 6.026042 4.236457 5.572397 L 3.498436 4.001563 " transform="matrix(1.153846,0,0,1.153846,1.096155,6.749999)"/>
</g>
</svg>
