<?xml version="1.0" encoding="UTF-8"?>
<svg xmlns="http://www.w3.org/2000/svg" xmlns:xlink="http://www.w3.org/1999/xlink" width="24px" height="24px" viewBox="0 0 24 24" version="1.1">
<g id="surface1">
<path style=" stroke:none;fill-rule:nonzero;fill:rgb(33.333334%,34.117648%,32.549021%);fill-opacity:1;" d="M 1.5 1.5 L 1.5 3 L 9 3 L 9 9 L 10.5 9 L 10.5 1.5 Z M 13.5 1.5 L 13.5 9 L 15 9 L 15 3 L 22.5 3 L 22.5 1.5 Z M 5.101562 9 C 4.820312 9 4.601562 9.089844 4.425781 9.28125 C 3.148438 10.355469 2.773438 10.925781 1.5 12 L 4.425781 14.71875 C 4.601562 14.910156 4.820312 15 5.101562 15 L 6 15 L 6 14 C 6 13.828125 5.933594 13.65625 5.851562 13.5 L 18.148438 13.5 C 18.066406 13.65625 18 13.828125 18 14 L 18 15 L 18.898438 15 C 19.179688 15 19.398438 14.910156 19.574219 14.71875 L 22.5 12 C 21.226562 10.925781 20.851562 10.355469 19.574219 9.28125 C 19.398438 9.089844 19.179688 9 18.898438 9 L 18 9 L 18 10 C 18 10.171875 18.066406 10.34375 18.148438 10.5 L 5.851562 10.5 C 5.933594 10.34375 6 10.1875 6 10 L 6 9 Z M 9 15 L 9 21 L 1.5 21 L 1.5 22.5 L 10.5 22.5 L 10.5 15 Z M 13.5 15 L 13.5 22.5 L 22.5 22.5 L 22.5 21 L 15 21 L 15 15 Z M 13.5 15 "/>
</g>
</svg>
