<?xml version="1.0" encoding="UTF-8" standalone="no"?>
<svg
   xmlns:dc="http://purl.org/dc/elements/1.1/"
   xmlns:cc="http://creativecommons.org/ns#"
   xmlns:rdf="http://www.w3.org/1999/02/22-rdf-syntax-ns#"
   xmlns:svg="http://www.w3.org/2000/svg"
   xmlns="http://www.w3.org/2000/svg"
   xmlns:xlink="http://www.w3.org/1999/xlink"
   xmlns:sodipodi="http://sodipodi.sourceforge.net/DTD/sodipodi-0.dtd"
   xmlns:inkscape="http://www.inkscape.org/namespaces/inkscape"
   height="24"
   width="24"
   version="1.1"
   id="svg94"
   sodipodi:docname="lc_sbanativesql.svg"
   inkscape:export-filename="/home/annisaauliarasyidah/Desktop/4_242 (aulia)/lc 222/lc_sbanativesql.png"
   inkscape:export-xdpi="96"
   inkscape:export-ydpi="96"
   inkscape:version="0.92.4 (unknown)"
   style="enable-background:new">
  <metadata
     id="metadata100">
    <rdf:RDF>
      <cc:Work
         rdf:about="">
        <dc:format>image/svg+xml</dc:format>
        <dc:type
           rdf:resource="http://purl.org/dc/dcmitype/StillImage" />
        <dc:title></dc:title>
      </cc:Work>
    </rdf:RDF>
  </metadata>
  <defs
     id="defs98">
    <radialGradient
       inkscape:collect="always"
       xlink:href="#b"
       id="radialGradient909"
       gradientUnits="userSpaceOnUse"
       gradientTransform="matrix(1.9646726,3.4e-7,-1.04e-6,5.9752716,-96.241137,-146.14811)"
       cx="99.765625"
       cy="29.374895"
       r="3.015625" />
  </defs>
  <sodipodi:namedview
     pagecolor="#ffffff"
     bordercolor="#666666"
     borderopacity="1"
     objecttolerance="10"
     gridtolerance="10"
     guidetolerance="10"
     inkscape:pageopacity="0"
     inkscape:pageshadow="2"
     inkscape:window-width="1366"
     inkscape:window-height="707"
     id="namedview96"
     showgrid="true"
     inkscape:zoom="32.150391"
     inkscape:cx="4.046525"
     inkscape:cy="8.1044408"
     inkscape:window-x="0"
     inkscape:window-y="0"
     inkscape:window-maximized="1"
     inkscape:current-layer="svg94">
    <inkscape:grid
       type="xygrid"
       id="grid926" />
  </sodipodi:namedview>
  <radialGradient
     id="a"
     cx="99.765625"
     cy="29.374895"
     gradientTransform="matrix(1.9646726,3.4e-7,-1.04e-6,5.9752716,-96.241137,-146.14811)"
     gradientUnits="userSpaceOnUse"
     r="3.015625"
     xlink:href="#b" />
  <linearGradient
     id="b">
    <stop
       offset="0"
       stop-color="#fff"
       id="stop3" />
    <stop
       offset="1"
       stop-color="#fff"
       stop-opacity="0"
       id="stop5" />
  </linearGradient>
  <linearGradient
     id="c">
    <stop
       offset="0"
       stop-color="#f0ff80"
       id="stop8" />
    <stop
       offset="1"
       stop-color="#f0ff80"
       stop-opacity="0"
       id="stop10" />
  </linearGradient>
  <radialGradient
     id="d"
     cx="54.537579"
     cy="77.542084"
     fy="99.883759"
     gradientTransform="matrix(0.16921966,0,0,0.12700157,-1.6873131,-2.7176233)"
     gradientUnits="userSpaceOnUse"
     r="48.000004">
    <stop
       offset="0"
       stop-color="#66f515"
       id="stop13" />
    <stop
       offset="1"
       stop-color="#002e00"
       id="stop15" />
  </radialGradient>
  <linearGradient
     id="e"
     gradientTransform="matrix(1.0320438,0,0,1.0327501,3.9492,21.033265)"
     gradientUnits="userSpaceOnUse"
     x1="89.090881"
     x2="89.090881"
     y1="103.89701"
     y2="30.849478">
    <stop
       offset="0"
       stop-color="#003100"
       id="stop18" />
    <stop
       offset="1"
       stop-color="#008c00"
       id="stop20" />
  </linearGradient>
  <linearGradient
     id="f"
     gradientTransform="matrix(0.12900546,0,0,0.12909376,0.49364987,-2.3708419)"
     gradientUnits="userSpaceOnUse"
     x1="83.324677"
     x2="83.324677"
     y1="24.0625"
     y2="89.99453">
    <stop
       offset="0"
       stop-color="#bfffbf"
       id="stop23" />
    <stop
       offset="1"
       stop-color="#bfffbf"
       stop-opacity="0"
       id="stop25" />
  </linearGradient>
  <radialGradient
     id="g"
     cx="52.791927"
     cy="95.459297"
     fx="53.15992"
     fy="87.08094"
     gradientTransform="matrix(0.07284448,1.125e-8,-1.75e-8,0.11846156,3.6445044,-2.8686383)"
     gradientUnits="userSpaceOnUse"
     r="52.000004">
    <stop
       offset="0"
       stop-color="#001400"
       id="stop28" />
    <stop
       offset="1"
       stop-color="#001400"
       stop-opacity="0"
       id="stop30" />
  </radialGradient>
  <radialGradient
     id="h"
     cx="99.765625"
     cy="29.374895"
     gradientTransform="matrix(1.9646726,3.4e-7,-1.04e-6,5.9752716,-167.24116,-126.14811)"
     gradientUnits="userSpaceOnUse"
     r="3.015625"
     xlink:href="#b" />
  <linearGradient
     id="i"
     gradientUnits="userSpaceOnUse"
     x1="71.603867"
     x2="71.603867"
     xlink:href="#c"
     y1="96.884026"
     y2="47.378731" />
  <filter
     id="j">
    <feGaussianBlur
       stdDeviation=".425"
       id="feGaussianBlur35" />
  </filter>
  <linearGradient
     id="k"
     gradientTransform="matrix(0.12900546,0,0,0.12909376,0.49364987,-2.8872169)"
     gradientUnits="userSpaceOnUse"
     x1="87.533279"
     x2="77.137749"
     xlink:href="#b"
     y1="74.838577"
     y2="46.277084" />
  <linearGradient
     id="l"
     gradientTransform="matrix(0.12900546,0,0,0.12909376,-1.3103542,-1.2705551)"
     gradientUnits="userSpaceOnUse"
     x1="83.324677"
     x2="83.324677"
     xlink:href="#b"
     y1="24.0625"
     y2="69.837845" />
  <radialGradient
     id="m"
     cx="99.765625"
     cy="29.374895"
     gradientTransform="matrix(1.9646726,3.4e-7,-1.04e-6,5.9752716,-167.24116,-126.14811)"
     gradientUnits="userSpaceOnUse"
     r="3.015625"
     xlink:href="#c" />
  <radialGradient
     id="n"
     cx="53.633381"
     cy="51.919601"
     gradientTransform="matrix(1.0961401,0.0879121,-0.1002304,1.2497316,1.059933,-18.687387)"
     gradientUnits="userSpaceOnUse"
     r="52.000004"
     xlink:href="#b" />
  <filter
     id="o">
    <feBlend
       in2="BackgroundImage"
       mode="lighten"
       id="feBlend42" />
  </filter>
  <filter
     id="p"
     height="1.205783"
     width="1.364658"
     x="-0.182329"
     y="-0.102891">
    <feGaussianBlur
       stdDeviation=".45819706"
       id="feGaussianBlur45" />
  </filter>
  <filter
     id="q"
     height="1.37026"
     width="1.20766"
     x="-0.10383"
     y="-0.18513">
    <feGaussianBlur
       stdDeviation=".45819702"
       id="feGaussianBlur48" />
  </filter>
  <filter
     id="r">
    <feGaussianBlur
       stdDeviation="1.5891116"
       id="feGaussianBlur51" />
  </filter>
  <g
     id="g858"
     transform="matrix(1.6285718,0,0,1.5327438,-1.8255806,-0.4602859)"
     style="stroke-width:0.63293886">
    <g
       style="fill:#9d3a9b;stroke-width:0.97485495"
       id="g60"
       transform="scale(0.125)">
      <path
         style="fill:#9d3a9b;stroke-width:0.97485495"
         id="path54"
         d="m 40.649814,104.3628 q 0,2.94805 -1.022792,5.32454 -0.99271,2.3464 -2.948047,4.031 -1.925255,1.65452 -4.752974,2.55698 -2.797636,0.90246 -6.437572,0.90246 -3.188704,0 -6.166833,-0.6618 -2.948047,-0.66181 -5.474944,-1.98542 v -8.66365 q 1.443941,0.69189 2.917965,1.35369 1.474023,0.63173 2.978129,1.14312 1.534188,0.5114 3.038293,0.81222 1.534188,0.30082 3.038293,0.30082 1.534188,0 2.617144,-0.3309 1.113038,-0.36099 1.774845,-0.96263 0.691888,-0.63172 0.99271,-1.47402 0.330903,-0.87238 0.330903,-1.89517 0,-1.23337 -0.541478,-2.16592 -0.511396,-0.96262 -1.474024,-1.77484 -0.932545,-0.8423 -2.28624,-1.624435 -1.323613,-0.782135 -2.978129,-1.654516 -1.383778,-0.721971 -3.098458,-1.744763 -1.71468,-1.022792 -3.248868,-2.526897 -1.504106,-1.534188 -2.526897,-3.670018 -1.022792,-2.165912 -1.022792,-5.174123 0,-2.948047 0.962627,-5.26437 0.99271,-2.346405 2.797637,-3.940757 1.804927,-1.624434 4.361906,-2.466733 2.587062,-0.842299 5.775766,-0.842299 1.594352,0 3.098457,0.210575 1.534188,0.210575 3.008211,0.601642 1.504106,0.391067 3.008212,0.962628 1.504105,0.57156 3.098457,1.323613 l -3.008211,7.249789 q -1.353695,-0.631725 -2.526898,-1.113039 -1.173202,-0.481313 -2.28624,-0.812217 -1.113038,-0.330903 -2.195994,-0.481313 -1.052874,-0.180493 -2.13583,-0.180493 -2.346405,0 -3.609854,1.263449 -1.233366,1.233366 -1.233366,3.309032 0,1.113038 0.360985,1.985419 0.391068,0.8423 1.203285,1.594352 0.842299,0.752053 2.13583,1.534188 1.323612,0.782135 3.188703,1.774845 2.256159,1.203284 4.151332,2.466733 1.895173,1.233366 3.248868,2.767554 1.383777,1.504106 2.13583,3.429361 0.752053,1.925253 0.752053,4.512313 z"
         inkscape:connector-curvature="0" />
      <path
         style="fill:#9d3a9b;stroke-width:0.97485495"
         id="path56"
         d="m 86.284378,94.525953 q 0,3.579771 -0.601643,6.738397 -0.57156,3.12854 -1.774844,5.7156 -1.173203,2.58706 -2.978129,4.60256 -1.774845,2.0155 -4.211496,3.33912 l 10.859643,12.12309 H 75.605228 l -8.062006,-9.9271 q -0.210575,0 -0.391068,0.0301 -0.15041,0.0301 -0.330903,0.0301 -0.15041,0 -0.270739,0 -5.053795,0 -8.783977,-1.62443 -3.700099,-1.62443 -6.136751,-4.60256 -2.406569,-2.97813 -3.609853,-7.15955 -1.173202,-4.211492 -1.173202,-9.325451 0,-5.113959 1.173202,-9.265291 1.203284,-4.181413 3.639936,-7.12946 2.436651,-2.948047 6.13675,-4.542399 3.730182,-1.624434 8.814059,-1.624434 5.053795,0 8.753895,1.624434 3.7001,1.594352 6.106669,4.572481 2.436651,2.948047 3.609853,7.12946 1.203285,4.151332 1.203285,9.295373 z m -29.841456,0 q 0,3.459443 0.601643,6.226997 0.601642,2.73747 1.835009,4.66273 1.263448,1.89517 3.158621,2.91796 1.895173,1.02279 4.512317,1.02279 2.677308,0 4.572481,-1.02279 1.925255,-1.02279 3.12854,-2.91796 1.233366,-1.92526 1.804927,-4.66273 0.601642,-2.767554 0.601642,-6.226997 0,-3.459443 -0.601642,-6.196915 -0.571561,-2.767554 -1.804927,-4.692809 -1.203285,-1.925256 -3.098458,-2.948047 -1.895173,-1.022792 -4.542399,-1.022792 -2.617143,0 -4.542399,1.022792 -1.925255,1.022791 -3.188703,2.948047 -1.233367,1.925255 -1.835009,4.692809 -0.601643,2.737472 -0.601643,6.196915 z"
         inkscape:connector-curvature="0" />
      <path
         style="fill:#9d3a9b;stroke-width:0.97485495"
         id="path58"
         d="M 95.369174,116.57614 V 72.596093 h 9.325456 v 36.279027 h 16.00368 v 7.70102 z"
         inkscape:connector-curvature="0" />
    </g>
    <path
       d="M 7.5,6.5 C 6.4488637,5.4220303 4.1764143,3.091372 4.1764143,3.091372 L 2.5469648,4.7628778 7.5,9.8433429 14.931491,2.2199892 13.301818,0.54859414 c 0,0 -4.5489905,4.66640666 -5.801818,5.95140586 z"
       style="opacity:1;fill:#f3b7d9;stroke:#e602b4;stroke-width:0.63293886;stroke-linecap:round;stroke-linejoin:round;stroke-opacity:1"
       id="path80"
       inkscape:connector-curvature="0" />
  </g>
</svg>
