<?xml version="1.0" encoding="UTF-8"?>
<svg xmlns="http://www.w3.org/2000/svg" xmlns:xlink="http://www.w3.org/1999/xlink" width="24px" height="24px" viewBox="0 0 24 24" version="1.1">
<g id="surface1">
<path style=" stroke:none;fill-rule:nonzero;fill:rgb(33.333334%,34.117648%,32.549021%);fill-opacity:1;" d="M 6 1.5 L 6 3 C 6 3.398438 6.140625 3.796875 6.421875 4.078125 L 6.84375 4.5 L 1.5 4.5 L 1.5 7.5 L 6.84375 7.5 L 6.421875 7.921875 C 6.140625 8.203125 6 8.601562 6 9 L 6 10.5 L 7.5 10.5 C 7.898438 10.5 8.296875 10.359375 8.578125 10.078125 L 12 6.65625 L 12 5.34375 L 8.578125 1.921875 C 8.296875 1.640625 7.898438 1.5 7.5 1.5 Z M 15 1.5 C 14.167969 1.5 13.5 2.167969 13.5 3 L 13.5 9 C 13.5 9.832031 14.167969 10.5 15 10.5 L 21 10.5 C 21.832031 10.5 22.5 9.832031 22.5 9 L 22.5 3 C 22.5 2.167969 21.832031 1.5 21 1.5 Z M 16.5 4.5 L 19.5 4.5 L 19.5 7.5 L 16.5 7.5 Z M 6 13.5 L 6 15 C 6 15.398438 6.140625 15.796875 6.421875 16.078125 L 6.84375 16.5 L 1.5 16.5 L 1.5 19.5 L 6.84375 19.5 L 6.421875 19.921875 C 6.140625 20.203125 6 20.601562 6 21 L 6 22.5 L 7.5 22.5 C 7.898438 22.5 8.296875 22.359375 8.578125 22.078125 L 12 18.65625 L 12 17.34375 L 8.578125 13.921875 C 8.296875 13.640625 7.898438 13.5 7.5 13.5 Z M 15 13.5 C 14.167969 13.5 13.5 14.167969 13.5 15 L 13.5 21 C 13.5 21.832031 14.167969 22.5 15 22.5 L 21 22.5 C 21.832031 22.5 22.5 21.832031 22.5 21 L 22.5 15 C 22.5 14.167969 21.832031 13.5 21 13.5 Z M 16.5 16.5 L 19.5 16.5 L 19.5 19.5 L 16.5 19.5 Z M 16.5 16.5 "/>
</g>
</svg>
