<?xml version="1.0" encoding="UTF-8"?>
<svg xmlns="http://www.w3.org/2000/svg" xmlns:xlink="http://www.w3.org/1999/xlink" width="24px" height="24px" viewBox="0 0 24 24" version="1.1">
<g id="surface1">
<path style="fill-rule:nonzero;fill:rgb(94.117647%,89.019608%,92.54902%);fill-opacity:1;stroke-width:1;stroke-linecap:round;stroke-linejoin:round;stroke:rgb(90.196079%,0.784314%,70.588237%);stroke-opacity:1;stroke-miterlimit:4;" d="M 8 1.5 C 4.408854 1.5 1.5 4.408854 1.5 8 C 1.5 11.591146 4.408854 14.5 8 14.5 C 9.856771 14.497396 11.625 13.700521 12.856771 12.309896 C 12.179688 12.653646 11.427083 12.833333 10.666667 12.833333 C 7.994792 12.835938 5.830729 10.669271 5.830729 8 C 5.830729 5.330729 7.994792 3.164062 10.666667 3.166667 C 11.429688 3.169271 12.182292 3.351562 12.861979 3.700521 C 11.632812 2.304688 9.861979 1.502604 8 1.5 Z M 8 1.5 " transform="matrix(1.5,0,0,1.5,0,0)"/>
</g>
</svg>
