<?xml version="1.0" encoding="UTF-8"?>
<svg xmlns="http://www.w3.org/2000/svg" xmlns:xlink="http://www.w3.org/1999/xlink" width="24px" height="24px" viewBox="0 0 24 24" version="1.1">
<g id="surface1">
<path style=" stroke:none;fill-rule:evenodd;fill:rgb(90.196079%,0.784314%,70.588237%);fill-opacity:1;" d="M 12 16.5 L 12 19.5 L 18 19.5 L 18 22.5 L 22.5 18 L 18 13.5 L 18 16.5 Z M 12 16.5 "/>
<path style=" stroke:none;fill-rule:evenodd;fill:rgb(90.196079%,0.784314%,70.588237%);fill-opacity:1;" d="M 12 16.5 L 12 18 L 22.5 18 L 18 13.5 L 18 16.5 Z M 12 16.5 "/>
<path style=" stroke:none;fill-rule:nonzero;fill:rgb(61.56863%,22.745098%,60.784316%);fill-opacity:0.886275;" d="M 7.078125 1.679688 C 5.585938 1.679688 4.304688 2.042969 3.285156 2.785156 C 2.230469 3.558594 1.660156 4.636719 1.660156 5.886719 C 1.660156 6.386719 1.785156 6.863281 2.035156 7.273438 C 2.449219 7.925781 3.121094 8.296875 3.890625 8.296875 C 4.269531 8.296875 4.632812 8.214844 4.957031 8.042969 C 5.621094 7.683594 5.988281 6.996094 5.988281 6.191406 C 5.988281 6 5.96875 5.8125 5.925781 5.632812 C 5.828125 5.253906 5.597656 4.914062 5.269531 4.558594 C 5.054688 4.328125 5.003906 4.164062 5.003906 4.105469 C 5.003906 4.027344 5.023438 3.960938 5.074219 3.878906 L 5.078125 3.878906 C 5.234375 3.640625 5.546875 3.480469 6.195312 3.480469 C 6.5 3.480469 6.75 3.550781 6.988281 3.691406 C 7.625 4.078125 8 4.9375 8 6.460938 C 8 7.355469 7.832031 8.199219 7.5 9 C 7.449219 9.128906 7.171875 9.679688 6.714844 10.539062 C 6.261719 11.390625 6.015625 12.179688 6.015625 12.914062 C 6.015625 13.207031 6.035156 13.613281 6.070312 14.148438 C 6.082031 14.371094 6.269531 14.546875 6.496094 14.546875 L 7.589844 14.546875 C 7.828125 14.546875 8.019531 14.355469 8.019531 14.121094 L 8.019531 13.730469 C 8.035156 12.980469 8.175781 12.480469 8.34375 12.238281 C 8.492188 12.03125 8.957031 11.636719 9.707031 11.179688 C 10.796875 10.507812 11.308594 9.851562 11.78125 9.320312 C 12.460938 8.539062 12.808594 7.5625 12.808594 6.460938 C 12.796875 5.191406 12.351562 4.089844 11.488281 3.238281 C 10.417969 2.191406 8.917969 1.679688 7.078125 1.679688 Z M 7.078125 1.679688 "/>
<path style=" stroke:none;fill-rule:nonzero;fill:rgb(90.196079%,0.784314%,70.588237%);fill-opacity:1;" d="M 7.265625 2.710938 C 7.34375 2.75 7.433594 2.769531 7.507812 2.8125 C 8.570312 3.460938 9.019531 4.765625 9.019531 6.460938 C 9.019531 7.484375 8.824219 8.464844 8.441406 9.390625 C 8.328125 9.660156 8.074219 10.152344 7.613281 11.015625 C 7.210938 11.769531 7.035156 12.410156 7.035156 12.914062 C 7.035156 12.984375 7.046875 13.152344 7.050781 13.246094 C 7.101562 12.621094 7.214844 12.070312 7.507812 11.65625 C 7.839844 11.1875 8.375 10.796875 9.171875 10.3125 L 9.175781 10.308594 C 10.136719 9.714844 10.511719 9.210938 11.015625 8.644531 C 11.535156 8.050781 11.789062 7.359375 11.789062 6.464844 C 11.78125 5.425781 11.453125 4.636719 10.773438 3.964844 C 9.957031 3.164062 8.816406 2.746094 7.265625 2.710938 Z M 4.164062 3.441406 C 4.074219 3.5 3.976562 3.546875 3.890625 3.609375 C 3.042969 4.230469 2.679688 4.925781 2.679688 5.886719 C 2.679688 6.222656 2.753906 6.492188 2.902344 6.738281 C 3.160156 7.140625 3.410156 7.277344 3.890625 7.277344 C 4.125 7.277344 4.308594 7.230469 4.476562 7.144531 C 4.839844 6.945312 4.96875 6.730469 4.96875 6.191406 C 4.96875 6.074219 4.957031 5.972656 4.933594 5.875 C 4.902344 5.757812 4.78125 5.53125 4.519531 5.25 C 4.210938 4.914062 3.984375 4.550781 3.984375 4.105469 C 3.984375 3.871094 4.058594 3.648438 4.164062 3.441406 Z M 4.164062 3.441406 "/>
<path style=" stroke:none;fill-rule:nonzero;fill:rgb(61.56863%,22.745098%,60.784316%);fill-opacity:1;" d="M 10.085938 18.914062 C 10.085938 20.570312 8.742188 21.917969 7.082031 21.917969 C 5.421875 21.917969 4.078125 20.570312 4.078125 18.914062 C 4.078125 17.253906 5.421875 15.90625 7.082031 15.90625 C 8.742188 15.90625 10.085938 17.253906 10.085938 18.914062 Z M 10.085938 18.914062 "/>
<path style=" stroke:none;fill-rule:nonzero;fill:rgb(90.196079%,0.784314%,70.588237%);fill-opacity:0.980392;" d="M 8.964844 18.914062 C 8.964844 19.953125 8.121094 20.792969 7.082031 20.792969 C 6.042969 20.792969 5.199219 19.953125 5.199219 18.914062 C 5.199219 17.875 6.042969 17.03125 7.082031 17.03125 C 8.121094 17.03125 8.964844 17.875 8.964844 18.914062 Z M 8.964844 18.914062 "/>
</g>
</svg>
