<?xml version="1.0" encoding="UTF-8"?>
<svg xmlns="http://www.w3.org/2000/svg" xmlns:xlink="http://www.w3.org/1999/xlink" width="24px" height="24px" viewBox="0 0 24 24" version="1.1">
<g id="surface1">
<path style=" stroke:none;fill-rule:nonzero;fill:rgb(33.333334%,34.117648%,32.549021%);fill-opacity:1;" d="M 16.5 1.5 L 16.5 4.5 L 13.5 4.5 C 12.671875 4.5 12 5.171875 12 6 L 12 9 C 12 10.507812 11.242188 11.917969 9.980469 12.75 C 11.242188 13.582031 12 14.992188 12 16.5 L 12 19.5 C 12 20.328125 12.671875 21 13.5 21 L 16.5 21 L 16.5 24 L 13.5 24 C 11.015625 24 9 21.984375 9 19.5 L 9 16.5 C 9 15.671875 8.328125 15 7.5 15 L 6 15 L 6 10.5 L 7.5 10.5 C 8.328125 10.5 9 9.828125 9 9 L 9 6 C 9 3.515625 11.015625 1.5 13.5 1.5 Z M 16.5 1.5 "/>
</g>
</svg>
