<?xml version="1.0" encoding="UTF-8"?>
<svg xmlns="http://www.w3.org/2000/svg" xmlns:xlink="http://www.w3.org/1999/xlink" width="24px" height="24px" viewBox="0 0 24 24" version="1.1">
<g id="surface1">
<path style="fill-rule:nonzero;fill:rgb(94.117647%,89.019608%,92.54902%);fill-opacity:1;stroke-width:1;stroke-linecap:butt;stroke-linejoin:round;stroke:rgb(90.196079%,0.784314%,70.588237%);stroke-opacity:1;stroke-miterlimit:4;" d="M 2 3.007812 L 2 12.994792 C 2 14 3 15 3.976562 15 L 11.966146 15 C 13 15 14 14 14 13.015625 L 14 3.028646 C 14 2 13 1 12.010417 1 L 3.966146 1 C 3 1 2 2 2 3.007812 Z M 2 3.007812 " transform="matrix(1.5,0,0,1.5,0,0)"/>
<path style="fill:none;stroke-width:1;stroke-linecap:round;stroke-linejoin:miter;stroke:rgb(61.56863%,22.745098%,60.784316%);stroke-opacity:1;stroke-miterlimit:4;" d="M 3.5 11.5 L 9.763021 11.5 " transform="matrix(1.5,0,0,1.5,0,0)"/>
<path style="fill:none;stroke-width:1;stroke-linecap:round;stroke-linejoin:miter;stroke:rgb(61.56863%,22.745098%,60.784316%);stroke-opacity:1;stroke-miterlimit:4;" d="M 3.5 13 L 12 13 " transform="matrix(1.5,0,0,1.5,0,0)"/>
<path style="fill:none;stroke-width:1;stroke-linecap:round;stroke-linejoin:miter;stroke:rgb(61.56863%,22.745098%,60.784316%);stroke-opacity:1;stroke-miterlimit:4;" d="M 3.5 10 L 9.763021 10 " transform="matrix(1.5,0,0,1.5,0,0)"/>
<path style="fill-rule:nonzero;fill:rgb(95.294118%,71.764708%,85.09804%);fill-opacity:1;stroke-width:0.3;stroke-linecap:butt;stroke-linejoin:miter;stroke:rgb(61.56863%,22.745098%,60.784316%);stroke-opacity:1;stroke-miterlimit:4;" d="M 13.899032 1.911035 L 12.698511 3.509994 L 14.297469 4.710514 L 15.500594 3.111556 L 15.000594 2.111556 Z M 13.899032 1.911035 " transform="matrix(1.5,0,0,1.5,0.444421,-0.772803)"/>
<path style="fill-rule:nonzero;fill:rgb(95.294118%,71.764708%,85.09804%);fill-opacity:1;stroke-width:0.2;stroke-linecap:butt;stroke-linejoin:miter;stroke:rgb(61.56863%,22.745098%,60.784316%);stroke-opacity:1;stroke-miterlimit:4;" d="M 7.794865 11.70791 L 8.195907 9.507389 L 8.896428 9.408431 L 8.787053 9.952702 L 9.302678 9.713119 L 9.18549 10.252181 L 9.703719 10.015202 L 9.794865 10.70791 L 7.794865 11.70791 " transform="matrix(1.5,0,0,1.5,0.444421,-0.772803)"/>
<path style="fill-rule:nonzero;fill:rgb(61.56863%,22.745098%,60.784316%);fill-opacity:1;stroke-width:0.1;stroke-linecap:butt;stroke-linejoin:miter;stroke:rgb(61.56863%,22.745098%,60.784316%);stroke-opacity:1;stroke-miterlimit:4;" d="M 8.133407 10.593327 L 8.675073 11.041244 L 7.794865 11.715723 Z M 8.133407 10.593327 " transform="matrix(1.5,0,0,1.5,0.444421,-0.772803)"/>
<path style="fill-rule:nonzero;fill:rgb(90.196079%,0.784314%,70.588237%);fill-opacity:1;stroke-width:0.1;stroke-linecap:butt;stroke-linejoin:miter;stroke:rgb(61.56863%,22.745098%,60.784316%);stroke-opacity:1;stroke-miterlimit:4;" d="M 12.698511 3.509994 L 14.297469 4.710514 L 9.794865 10.70791 L 9.703719 10.015202 L 9.18549 10.252181 L 9.229761 9.796452 L 8.787053 9.952702 L 8.839136 9.481348 L 8.195907 9.507389 Z M 12.698511 3.509994 " transform="matrix(1.5,0,0,1.5,0.444421,-0.772803)"/>
<path style="fill:none;stroke-width:0.7;stroke-linecap:butt;stroke-linejoin:round;stroke:rgb(61.56863%,22.745098%,60.784316%);stroke-opacity:1;stroke-miterlimit:4;" d="M 13.599553 2.312077 L 8.195907 9.507389 L 7.492782 12.106348 L 9.794865 10.70791 L 15.198511 3.512598 C 15.99799 2.478744 14.432886 1.233952 13.599553 2.312077 Z M 13.599553 2.312077 " transform="matrix(1.5,0,0,1.5,0.444421,-0.772803)"/>
<path style="fill-rule:nonzero;fill:rgb(90.196079%,0.784314%,70.588237%);fill-opacity:1;stroke-width:0.1;stroke-linecap:round;stroke-linejoin:round;stroke:rgb(90.196079%,0.784314%,70.588237%);stroke-opacity:1;stroke-miterlimit:4;" d="M 8.850868 4.063088 C 8.849491 5.286774 7.858272 6.278344 6.634586 6.276967 C 5.411058 6.278189 4.419488 5.286971 4.418266 4.063442 C 4.419643 2.839756 5.410861 1.848187 6.63439 1.846964 C 7.858076 1.848341 8.849646 2.83956 8.850868 4.063088 Z M 8.850868 4.063088 " transform="matrix(1.497244,0.0908888,-0.0908888,1.497244,0.859569,0.299621)"/>
<path style=" stroke:none;fill-rule:nonzero;fill:rgb(61.56863%,22.745098%,60.784316%);fill-opacity:1;" d="M 11.136719 2.097656 C 7.804688 1.820312 4.792969 3.515625 3.421875 6.675781 C 7.480469 1.664062 13.703125 3.789062 18.339844 7.410156 C 18.34375 7.417969 18.355469 7.417969 18.359375 7.421875 C 11.359375 12.300781 6.859375 10.800781 3.421875 6.675781 C 7.609375 14.550781 14.359375 10.800781 16.828125 8.789062 C 17.878906 9.117188 17.855469 9.167969 18.46875 9.609375 C 18.308594 8.976562 17.726562 8.683594 17.359375 8.550781 C 18.070312 8.582031 18.515625 8.59375 19.050781 9.128906 C 18.722656 8.355469 18.25 8.3125 17.785156 8.300781 C 18.398438 7.976562 18.378906 7.859375 18.402344 7.449219 C 19.15625 7.976562 20.847656 7.59375 21.097656 6.617188 C 20.285156 7.71875 18.5625 7.265625 18.515625 6.855469 C 18.46875 6.789062 19.644531 6.503906 20.125 6.027344 C 18.851562 6.480469 17.847656 6.015625 17.847656 6.015625 C 17.742188 5.890625 19.265625 5.921875 19.882812 4.894531 C 18.476562 5.921875 16.957031 4.953125 16.851562 4.839844 C 16.714844 4.691406 19.359375 5.007812 19.78125 3.53125 C 18.457031 4.542969 15.980469 3.964844 15.75 3.75 C 14.230469 2.761719 12.652344 2.226562 11.136719 2.097656 Z M 11.136719 2.097656 "/>
<path style="fill-rule:nonzero;fill:rgb(61.56863%,22.745098%,60.784316%);fill-opacity:1;stroke-width:0.1;stroke-linecap:round;stroke-linejoin:round;stroke:rgb(90.196079%,0.784314%,70.588237%);stroke-opacity:1;stroke-miterlimit:4;" d="M 8.275773 4.087563 C 8.273499 4.995619 7.54054 5.728879 6.635241 5.729046 C 5.727343 5.729371 4.993926 4.993813 4.993759 4.088514 C 4.993592 3.183215 5.728992 2.447198 6.634291 2.447031 C 7.539748 2.449463 8.275606 3.182264 8.275773 4.087563 Z M 8.275773 4.087563 " transform="matrix(1.497244,0.0908888,-0.0908888,1.497244,0.859569,0.299621)"/>
<path style="fill-rule:nonzero;fill:rgb(95.294118%,71.764708%,85.09804%);fill-opacity:1;stroke-width:0.1;stroke-linecap:round;stroke-linejoin:round;stroke:rgb(95.294118%,71.764708%,85.09804%);stroke-opacity:1;stroke-miterlimit:4;" d="M 6.962055 3.2907 C 6.960693 3.869972 6.49332 4.336649 5.914206 4.337887 C 5.337534 4.336368 4.870857 3.868995 4.869776 3.29248 C 4.868538 2.713366 5.338511 2.246531 5.915026 2.245451 C 6.494298 2.246812 6.960974 2.714186 6.962055 3.2907 Z M 6.962055 3.2907 " transform="matrix(1.497244,0.0908888,-0.0908888,1.497244,0.859569,0.299621)"/>
</g>
</svg>
