<?xml version="1.0" encoding="UTF-8"?>
<svg xmlns="http://www.w3.org/2000/svg" xmlns:xlink="http://www.w3.org/1999/xlink" width="24px" height="24px" viewBox="0 0 24 24" version="1.1">
<g id="surface1">
<path style="fill-rule:nonzero;fill:rgb(94.117647%,89.019608%,92.54902%);fill-opacity:1;stroke-width:1;stroke-linecap:butt;stroke-linejoin:round;stroke:rgb(90.196079%,0.784314%,70.588237%);stroke-opacity:1;stroke-miterlimit:4;" d="M 2.999903 12.570148 C 3.000309 13.429918 3.856413 14.286033 4.714147 14.284002 L 13.286634 14.28648 C 14.142744 14.286485 15.000483 13.428345 15.000488 12.572235 L 14.999697 7.428258 C 14.999702 6.572148 14.141562 5.714409 13.285452 5.714404 L 4.715001 5.71355 C 3.857267 5.715581 3.001152 6.571685 2.999523 7.429831 " transform="matrix(1.172632,-0.93538,0.93538,1.172632,-7.959235,8.436988)"/>
<path style="fill-rule:nonzero;fill:rgb(94.117647%,89.019608%,92.54902%);fill-opacity:1;stroke-width:1;stroke-linecap:round;stroke-linejoin:round;stroke:rgb(90.196079%,0.784314%,70.588237%);stroke-opacity:1;stroke-miterlimit:4;" d="M 4.285314 6.999748 L 9 10.857143 L 13.715535 7.000195 " transform="matrix(1.172632,-0.93538,0.93538,1.172632,-7.959235,8.436988)"/>
<path style="fill-rule:nonzero;fill:rgb(94.117647%,89.019608%,92.54902%);fill-opacity:1;stroke-width:1;stroke-linecap:round;stroke-linejoin:miter;stroke:rgb(90.196079%,0.784314%,70.588237%);stroke-opacity:1;stroke-miterlimit:4;" d="M 13.714285 12.998658 L 10.714255 10.858777 " transform="matrix(1.172632,-0.93538,0.93538,1.172632,-7.959235,8.436988)"/>
<path style="fill-rule:nonzero;fill:rgb(94.117647%,89.019608%,92.54902%);fill-opacity:1;stroke-width:1;stroke-linecap:round;stroke-linejoin:miter;stroke:rgb(90.196079%,0.784314%,70.588237%);stroke-opacity:1;stroke-miterlimit:4;" d="M 4.2861 12.999835 L 7.285745 10.855508 " transform="matrix(1.172632,-0.93538,0.93538,1.172632,-7.959235,8.436988)"/>
<path style="fill:none;stroke-width:1.106403;stroke-linecap:round;stroke-linejoin:miter;stroke:rgb(61.56863%,22.745098%,60.784316%);stroke-opacity:1;stroke-miterlimit:4;" d="M -10.000615 26.501254 L -6.999892 26.499318 " transform="matrix(1.103108,-0.788161,0.788161,1.103108,-7.793,-20.412702)"/>
<path style="fill:none;stroke-width:1.106403;stroke-linecap:round;stroke-linejoin:miter;stroke:rgb(61.56863%,22.745098%,60.784316%);stroke-opacity:1;stroke-miterlimit:4;" d="M -10.500883 27.99937 L -7.499492 28.001453 " transform="matrix(1.103108,-0.788161,0.788161,1.103108,-7.793,-20.412702)"/>
<path style="fill:none;stroke-width:1.106403;stroke-linecap:round;stroke-linejoin:miter;stroke:rgb(61.56863%,22.745098%,60.784316%);stroke-opacity:1;stroke-miterlimit:4;" d="M -10.001023 29.500301 L -7.000301 29.498366 " transform="matrix(1.103108,-0.788161,0.788161,1.103108,-7.793,-20.412702)"/>
</g>
</svg>
