<?xml version="1.0" encoding="UTF-8"?>
<svg xmlns="http://www.w3.org/2000/svg" xmlns:xlink="http://www.w3.org/1999/xlink" width="24px" height="24px" viewBox="0 0 24 24" version="1.1">
<g id="surface1">
<path style="fill-rule:nonzero;fill:rgb(94.117647%,89.019608%,92.54902%);fill-opacity:1;stroke-width:1;stroke-linecap:round;stroke-linejoin:round;stroke:rgb(90.196079%,0.784314%,70.588237%);stroke-opacity:1;stroke-miterlimit:4;" d="M 8 1.5 C 4.408854 1.5 1.5 4.408854 1.5 8 C 1.5 11.591146 4.408854 14.5 8 14.5 C 11.591146 14.5 14.5 11.591146 14.5 8 C 14.5 4.408854 11.591146 1.5 8 1.5 Z M 8 4 C 10.208333 4 12 5.791667 12 8 C 11.997396 8.713542 11.804688 9.414062 11.440104 10.028646 L 5.971354 4.559896 C 6.585938 4.195312 7.286458 4.002604 8 4 Z M 4.559896 5.971354 L 10.028646 11.440104 C 9.414062 11.804688 8.713542 11.997396 8 12 C 5.791667 12 4 10.208333 4 8 C 4.002604 7.286458 4.195312 6.585938 4.559896 5.971354 Z M 4.559896 5.971354 " transform="matrix(1.5,0,0,1.5,0,0)"/>
</g>
</svg>
