<?xml version="1.0" encoding="UTF-8"?>
<svg xmlns="http://www.w3.org/2000/svg" xmlns:xlink="http://www.w3.org/1999/xlink" width="24px" height="24px" viewBox="0 0 24 24" version="1.1">
<defs>
<filter id="alpha" filterUnits="objectBoundingBox" x="0%" y="0%" width="100%" height="100%">
  <feColorMatrix type="matrix" in="SourceGraphic" values="0 0 0 0 1 0 0 0 0 1 0 0 0 0 1 0 0 0 1 0"/>
</filter>
<mask id="mask0">
  <g filter="url(#alpha)">
<rect x="0" y="0" width="24" height="24" style="fill:rgb(0%,0%,0%);fill-opacity:0.35;stroke:none;"/>
  </g>
</mask>
<clipPath id="clip1">
  <rect x="0" y="0" width="24" height="24"/>
</clipPath>
<g id="surface5" clip-path="url(#clip1)">
<path style=" stroke:none;fill-rule:nonzero;fill:rgb(33.333334%,34.117648%,32.549021%);fill-opacity:1;" d="M 15 12 C 15 13.65625 13.65625 15 12 15 C 10.34375 15 9 13.65625 9 12 C 9 10.34375 10.34375 9 12 9 C 13.65625 9 15 10.34375 15 12 Z M 15 12 "/>
</g>
</defs>
<g id="surface1">
<path style=" stroke:none;fill-rule:nonzero;fill:rgb(33.333334%,34.117648%,32.549021%);fill-opacity:1;" d="M 11.265625 0 L 10.417969 6.09375 L 6.636719 1.234375 L 5.363281 1.972656 L 7.675781 7.675781 L 1.972656 5.363281 L 1.238281 6.636719 L 6.089844 10.414062 L 0 11.261719 L 0 12.734375 L 6.09375 13.582031 L 1.238281 17.363281 L 1.972656 18.636719 L 7.675781 16.324219 L 5.363281 22.027344 L 6.636719 22.761719 L 10.417969 17.90625 L 11.265625 24 L 12.738281 24 L 13.585938 17.910156 L 17.363281 22.761719 L 18.636719 22.027344 L 16.324219 16.324219 L 22.027344 18.636719 L 22.761719 17.363281 L 17.90625 13.582031 L 24 12.734375 L 24 11.261719 L 17.910156 10.414062 L 22.761719 6.636719 L 22.027344 5.363281 L 16.320312 7.679688 L 18.636719 1.972656 L 17.363281 1.234375 L 13.585938 6.089844 L 12.738281 0 Z M 12 9 C 13.65625 9 15 10.34375 15 12 C 15 13.65625 13.65625 15 12 15 C 10.34375 15 9 13.65625 9 12 C 9 10.34375 10.34375 9 12 9 Z M 12 9 "/>
<use xlink:href="#surface5" mask="url(#mask0)"/>
</g>
</svg>
