<?xml version="1.0" encoding="UTF-8"?>
<svg xmlns="http://www.w3.org/2000/svg" xmlns:xlink="http://www.w3.org/1999/xlink" width="24px" height="24px" viewBox="0 0 24 24" version="1.1">
<defs>
<filter id="alpha" filterUnits="objectBoundingBox" x="0%" y="0%" width="100%" height="100%">
  <feColorMatrix type="matrix" in="SourceGraphic" values="0 0 0 0 1 0 0 0 0 1 0 0 0 0 1 0 0 0 1 0"/>
</filter>
<mask id="mask0">
  <g filter="url(#alpha)">
<rect x="0" y="0" width="24" height="24" style="fill:rgb(0%,0%,0%);fill-opacity:0.974895;stroke:none;"/>
  </g>
</mask>
<clipPath id="clip1">
  <rect x="0" y="0" width="24" height="24"/>
</clipPath>
<g id="surface5" clip-path="url(#clip1)">
<path style="fill-rule:nonzero;fill:rgb(95.294118%,71.764708%,85.09804%);fill-opacity:1;stroke-width:1;stroke-linecap:butt;stroke-linejoin:miter;stroke:rgb(90.196079%,0.784314%,70.588237%);stroke-opacity:1;stroke-miterlimit:4;" d="M 7.989583 1.5 C 7.638021 1.502604 7.408854 1.518229 7.059896 1.567708 C 6.955729 1.583333 6.872396 1.651042 6.872396 1.755208 L 6.807292 2.783854 C 6.796875 2.888021 6.726562 2.979167 6.648438 3.005208 C 6.645833 3.005208 6.645833 3.007812 6.643229 3.007812 C 6.197917 3.127604 5.778646 3.265625 5.390625 3.489583 C 5.320312 3.520833 5.229167 3.520833 5.153646 3.458333 L 4.388021 2.783854 C 4.315104 2.708333 4.208333 2.721354 4.122396 2.783854 C 3.841146 2.997396 3.666667 3.145833 3.414062 3.393229 C 3.166667 3.643229 3.018229 3.817708 2.804688 4.101562 C 2.742188 4.184896 2.731771 4.291667 2.804688 4.367188 L 3.479167 5.130208 C 3.528646 5.192708 3.557292 5.273438 3.528646 5.330729 L 3.523438 5.34375 C 3.28125 5.752604 3.091146 6.200521 2.971354 6.671875 C 2.96875 6.674479 2.96875 6.677083 2.966146 6.679688 C 2.932292 6.734375 2.875 6.778646 2.794271 6.786458 L 1.778646 6.851562 C 1.671875 6.851562 1.604167 6.934896 1.588542 7.039062 C 1.539062 7.388021 1.523438 7.614583 1.520833 7.96875 C 1.523438 8.320312 1.539062 8.549479 1.588542 8.898438 C 1.604167 9.002604 1.671875 9.088542 1.778646 9.088542 L 2.794271 9.151042 C 2.888021 9.158854 2.950521 9.221354 2.979167 9.289062 C 3.098958 9.736979 3.278646 10.158854 3.505208 10.549479 C 3.544271 10.622396 3.546875 10.723958 3.479167 10.804688 L 2.804688 11.570312 C 2.731771 11.645833 2.742188 11.752604 2.804688 11.835938 C 3.018229 12.119792 3.166667 12.291667 3.414062 12.544271 C 3.666667 12.791667 3.841146 12.940104 4.122396 13.153646 C 4.208333 13.216146 4.315104 13.226562 4.388021 13.153646 L 5.153646 12.481771 C 5.234375 12.411458 5.335938 12.414062 5.408854 12.453125 L 5.419271 12.442708 C 5.799479 12.661458 6.208333 12.830729 6.643229 12.947917 L 6.643229 12.963542 C 6.721354 12.986979 6.796875 13.057292 6.807292 13.164062 L 6.872396 14.182292 C 6.872396 14.286458 6.955729 14.354167 7.059896 14.369792 C 7.408854 14.419271 7.638021 14.434896 7.989583 14.4375 C 8.34375 14.434896 8.570312 14.419271 8.921875 14.369792 C 9.023438 14.354167 9.106771 14.286458 9.106771 14.182292 L 9.171875 13.164062 C 9.182292 13.057292 9.257812 12.986979 9.338542 12.963542 L 9.338542 12.947917 C 9.770833 12.830729 10.182292 12.661458 10.5625 12.442708 L 10.572917 12.453125 C 10.643229 12.414062 10.744792 12.411458 10.828125 12.481771 L 11.59375 13.153646 C 11.666667 13.226562 11.773438 13.216146 11.859375 13.153646 C 12.140625 12.940104 12.315104 12.791667 12.565104 12.544271 C 12.8125 12.291667 12.960938 12.119792 13.174479 11.835938 C 13.236979 11.752604 13.25 11.645833 13.174479 11.570312 L 12.5 10.804688 C 12.432292 10.723958 12.434896 10.622396 12.473958 10.549479 C 12.703125 10.158854 12.880208 9.736979 13 9.289062 C 13.028646 9.221354 13.091146 9.158854 13.184896 9.151042 L 14.203125 9.088542 C 14.307292 9.088542 14.375 9.002604 14.393229 8.898438 C 14.440104 8.549479 14.455729 8.320312 14.458333 7.96875 C 14.455729 7.614583 14.440104 7.388021 14.393229 7.039062 C 14.375 6.934896 14.307292 6.851562 14.203125 6.851562 L 13.184896 6.786458 C 13.106771 6.778646 13.046875 6.734375 13.013021 6.679688 C 13.013021 6.677083 13.010417 6.674479 13.010417 6.671875 C 12.888021 6.200521 12.671875 5.770833 12.458333 5.34375 L 12.450521 5.330729 C 12.421875 5.273438 12.450521 5.192708 12.5 5.130208 L 13.174479 4.367188 C 13.25 4.291667 13.236979 4.184896 13.174479 4.101562 C 12.960938 3.817708 12.8125 3.643229 12.565104 3.393229 C 12.315104 3.145833 12.140625 2.997396 11.859375 2.783854 C 11.773438 2.721354 11.666667 2.708333 11.59375 2.783854 L 10.828125 3.458333 C 10.752604 3.520833 10.661458 3.520833 10.591146 3.489583 C 10.203125 3.265625 9.78125 3.091146 9.338542 2.971354 C 9.335938 2.971354 9.333333 2.96875 9.330729 2.96875 C 9.255208 2.945312 9.182292 2.875 9.171875 2.773438 L 9.106771 1.755208 C 9.106771 1.651042 9.023438 1.583333 8.921875 1.567708 C 8.570312 1.518229 8.34375 1.502604 7.989583 1.5 Z M 7.989583 4.479167 C 9.916667 4.479167 11.479167 6.041667 11.479167 7.96875 C 11.479167 9.895833 9.916667 11.458333 7.989583 11.458333 C 6.0625 11.458333 4.5 9.895833 4.5 7.96875 C 4.5 6.041667 6.0625 4.479167 7.989583 4.479167 Z M 7.989583 4.479167 " transform="matrix(1.5,0,0,1.5,0,0)"/>
</g>
</defs>
<g id="surface1">
<use xlink:href="#surface5" mask="url(#mask0)"/>
</g>
</svg>
