<?xml version="1.0" encoding="UTF-8"?>
<svg xmlns="http://www.w3.org/2000/svg" xmlns:xlink="http://www.w3.org/1999/xlink" width="24px" height="24px" viewBox="0 0 24 24" version="1.1">
<defs>
<filter id="alpha" filterUnits="objectBoundingBox" x="0%" y="0%" width="100%" height="100%">
  <feColorMatrix type="matrix" in="SourceGraphic" values="0 0 0 0 1 0 0 0 0 1 0 0 0 0 1 0 0 0 1 0"/>
</filter>
<mask id="mask0">
  <g filter="url(#alpha)">
<rect x="0" y="0" width="24" height="24" style="fill:rgb(0%,0%,0%);fill-opacity:0.35;stroke:none;"/>
  </g>
</mask>
<clipPath id="clip1">
  <rect x="0" y="0" width="24" height="24"/>
</clipPath>
<g id="surface5" clip-path="url(#clip1)">
<path style=" stroke:none;fill-rule:nonzero;fill:rgb(33.333334%,34.117648%,32.549021%);fill-opacity:1;" d="M 12 8.546875 L 13.292969 12 L 16.011719 12 L 13.964844 13.792969 L 15.507812 17.898438 L 12 16.144531 L 8.503906 17.898438 L 10.035156 13.792969 L 7.988281 12 L 10.707031 12 Z M 12 8.546875 "/>
</g>
</defs>
<g id="surface1">
<path style=" stroke:none;fill-rule:nonzero;fill:rgb(33.333334%,34.117648%,32.549021%);fill-opacity:1;" d="M 12 0 L 8.625 9 L 0 9 L 6.496094 14.699219 L 3 24 L 12 19.5 L 21 24 L 17.503906 14.699219 L 24 9 L 15.375 9 Z M 12 8.546875 L 13.289062 12 L 16.011719 12 L 13.964844 13.792969 L 15.507812 17.898438 L 12 16.144531 L 8.492188 17.894531 L 10.035156 13.792969 L 7.988281 12 L 10.707031 12 Z M 12 8.546875 "/>
<use xlink:href="#surface5" mask="url(#mask0)"/>
</g>
</svg>
