<?xml version="1.0" encoding="UTF-8"?>
<svg xmlns="http://www.w3.org/2000/svg" xmlns:xlink="http://www.w3.org/1999/xlink" width="24px" height="24px" viewBox="0 0 24 24" version="1.1">
<g id="surface1">
<path style="fill-rule:nonzero;fill:rgb(94.117647%,89.019608%,92.54902%);fill-opacity:1;stroke-width:1;stroke-linecap:round;stroke-linejoin:round;stroke:rgb(90.196079%,0.784314%,70.588237%);stroke-opacity:1;stroke-miterlimit:4;" d="M 3.5 1 L 12.5 1 C 13.054688 1 13.5 1.445312 13.5 2 L 13.5 12 C 12.5 13 11.5 14 10.5 15 L 3.5 15 C 2.945312 15 2.5 14.554688 2.5 14 L 2.5 2 C 2.5 1.445312 2.945312 1 3.5 1 Z M 3.5 1 " transform="matrix(1.5,0,0,1.5,0,0)"/>
<path style="fill:none;stroke-width:1;stroke-linecap:round;stroke-linejoin:miter;stroke:rgb(90.196079%,0.784314%,70.588237%);stroke-opacity:1;stroke-miterlimit:4;" d="M 4 4.5 L 12 4.5 " transform="matrix(1.5,0,0,1.5,0,0)"/>
<path style="fill:none;stroke-width:1;stroke-linecap:round;stroke-linejoin:miter;stroke:rgb(90.196079%,0.784314%,70.588237%);stroke-opacity:1;stroke-miterlimit:4;" d="M 4 6.5 L 12 6.5 " transform="matrix(1.5,0,0,1.5,0,0)"/>
<path style="fill:none;stroke-width:1;stroke-linecap:round;stroke-linejoin:miter;stroke:rgb(90.196079%,0.784314%,70.588237%);stroke-opacity:1;stroke-miterlimit:4;" d="M 4 8.5 L 12 8.5 " transform="matrix(1.5,0,0,1.5,0,0)"/>
<path style="fill:none;stroke-width:0.375;stroke-linecap:round;stroke-linejoin:round;stroke:rgb(61.56863%,22.745098%,60.784316%);stroke-opacity:1;stroke-miterlimit:4;" d="M 5.5 12.5 C 5.5 12.5 6.528646 10.984375 5.945312 10.65625 C 5.200521 10.236979 4.953125 10.864583 4.791667 11.044271 C 4.455729 10.65625 3.960938 10.351562 3.598958 10.791667 C 2.934896 11.601562 4.736979 12.544271 5 13.5 C 5.325521 13.523438 7.729167 13 6.984375 12.372396 C 6.239583 11.744792 5.458333 13.697917 7.0625 14.1875 C 8.398438 14.59375 10.973958 13.169271 11 13 " transform="matrix(1.5,0,0,1.5,0,0)"/>
<path style="fill-rule:nonzero;fill:rgb(94.117647%,89.019608%,92.54902%);fill-opacity:1;stroke-width:1.104222;stroke-linecap:butt;stroke-linejoin:round;stroke:rgb(94.117647%,89.019608%,92.54902%);stroke-opacity:1;stroke-miterlimit:4;" d="M 8.673923 11.235033 C 9.335138 9.972045 9.335138 9.972045 10.663055 9.455483 L 11.666595 12.582018 Z M 8.673923 11.235033 " transform="matrix(-1.32891,0.281618,0.281618,1.32891,22.905846,-0.611368)"/>
<path style="fill:none;stroke-width:0.552111;stroke-linecap:round;stroke-linejoin:miter;stroke:rgb(61.56863%,22.745098%,60.784316%);stroke-opacity:1;stroke-miterlimit:4;" d="M 11.666595 12.582018 L 12.668055 13.701357 " transform="matrix(-1.32891,0.281618,0.281618,1.32891,22.905846,-0.611368)"/>
<path style="fill-rule:nonzero;fill:rgb(95.294118%,71.764708%,85.09804%);fill-opacity:1;stroke-width:1.104222;stroke-linecap:round;stroke-linejoin:round;stroke:rgb(90.196079%,0.784314%,70.588237%);stroke-opacity:1;stroke-miterlimit:4;" d="M 1.840782 1.918867 L 2.171835 1.622374 C 2.631285 1.210489 3.372789 1.297326 3.832142 1.814323 L 10.328893 9.085381 C 10.79106 9.601783 12.291869 12.023293 11.832419 12.435178 L 11.501366 12.731671 C 11.044133 13.140146 8.804145 11.377924 8.341979 10.861523 L 1.845228 3.590465 C 1.383061 3.074063 1.380735 2.327938 1.840782 1.918867 Z M 1.840782 1.918867 " transform="matrix(-1.32891,0.281618,0.281618,1.32891,22.905846,-0.611368)"/>
<path style="fill:none;stroke-width:1.104222;stroke-linecap:butt;stroke-linejoin:miter;stroke:rgb(90.196079%,0.784314%,70.588237%);stroke-opacity:1;stroke-miterlimit:4;" d="M 8.673923 11.235033 C 9.003193 9.598535 9.003193 9.598535 10.663055 9.455483 " transform="matrix(-1.32891,0.281618,0.281618,1.32891,22.905846,-0.611368)"/>
<path style="fill-rule:nonzero;fill:rgb(94.117647%,89.019608%,92.54902%);fill-opacity:1;stroke-width:1.104222;stroke-linecap:round;stroke-linejoin:round;stroke:rgb(90.196079%,0.784314%,70.588237%);stroke-opacity:1;stroke-miterlimit:4;" d="M 5.334035 3.491926 C 3.847858 3.830387 3.847858 3.830387 3.344308 5.268663 C 3.505976 5.448982 4.195519 6.219961 4.342359 6.385786 C 4.672225 4.752101 4.672225 4.752101 6.332086 4.609048 C 6.224108 4.487898 5.557406 3.741473 5.334035 3.491926 Z M 5.334035 3.491926 " transform="matrix(-1.32891,0.281618,0.281618,1.32891,22.905846,-0.611368)"/>
<path style="fill-rule:nonzero;fill:rgb(94.117647%,89.019608%,92.54902%);fill-opacity:1;stroke-width:1.104222;stroke-linecap:round;stroke-linejoin:round;stroke:rgb(90.196079%,0.784314%,70.588237%);stroke-opacity:1;stroke-miterlimit:4;" d="M 10.328893 9.085381 C 10.840745 9.655922 12.291869 12.023293 11.832419 12.435178 L 11.501366 12.731671 C 11.044133 13.140146 8.812156 11.387985 8.341979 10.861523 C 9.003193 9.598535 9.003193 9.598535 10.328893 9.085381 Z M 10.328893 9.085381 " transform="matrix(-1.32891,0.281618,0.281618,1.32891,22.905846,-0.611368)"/>
<path style="fill:none;stroke-width:1.104222;stroke-linecap:round;stroke-linejoin:round;stroke:rgb(90.196079%,0.784314%,70.588237%);stroke-opacity:1;stroke-miterlimit:4;" d="M 4.00063 1.999076 L 4.331683 1.702584 C 4.670579 1.40149 5.333745 1.49317 5.660492 1.856024 L 9.325354 5.958846 " transform="matrix(-1.32891,0.281618,0.281618,1.32891,22.905846,-0.611368)"/>
<path style=" stroke:none;fill-rule:nonzero;fill:rgb(61.56863%,22.745098%,60.784316%);fill-opacity:1;" d="M 11.601562 9.59375 C 11.414062 9.921875 11.527344 10.335938 11.855469 10.523438 C 12.179688 10.707031 12.59375 10.597656 12.78125 10.269531 C 12.96875 9.945312 12.855469 9.53125 12.527344 9.34375 C 12.203125 9.15625 11.789062 9.269531 11.601562 9.59375 Z M 11.601562 9.59375 "/>
</g>
</svg>
