<?xml version="1.0" encoding="UTF-8"?>
<svg xmlns="http://www.w3.org/2000/svg" xmlns:xlink="http://www.w3.org/1999/xlink" width="24px" height="24px" viewBox="0 0 24 24" version="1.1">
<g id="surface1">
<path style=" stroke:none;fill-rule:nonzero;fill:rgb(33.333334%,34.117648%,32.549021%);fill-opacity:1;" d="M 7.5 1.5 C 5.015625 1.5 3 3.515625 3 6 L 3 9 C 3 9.828125 2.328125 10.5 1.5 10.5 L 0 10.5 L 0 15 L 1.5 15 C 2.328125 15 3 15.671875 3 16.5 L 3 19.5 C 3 21.984375 5.015625 24 7.5 24 L 10.5 24 L 10.5 21 L 7.5 21 C 6.671875 21 6 20.328125 6 19.5 L 6 16.5 C 6 14.992188 5.242188 13.582031 3.980469 12.75 C 5.242188 11.917969 6 10.507812 6 9 L 6 6 C 6 5.171875 6.671875 4.5 7.5 4.5 L 10.5 4.5 L 10.5 1.5 Z M 13.5 1.5 L 13.5 4.5 L 16.5 4.5 C 17.328125 4.5 18 5.171875 18 6 L 18 9 C 18 10.507812 18.757812 11.917969 20.019531 12.75 C 18.757812 13.582031 18 14.992188 18 16.5 L 18 19.5 C 18 20.328125 17.328125 21 16.5 21 L 13.5 21 L 13.5 24 L 16.5 24 C 18.984375 24 21 21.984375 21 19.5 L 21 16.5 C 21 15.671875 21.671875 15 22.5 15 L 24 15 L 24 10.5 L 22.5 10.5 C 21.671875 10.5 21 9.828125 21 9 L 21 6 C 21 3.515625 18.984375 1.5 16.5 1.5 Z M 13.5 1.5 "/>
</g>
</svg>
