<?xml version="1.0" encoding="UTF-8"?>
<svg xmlns="http://www.w3.org/2000/svg" xmlns:xlink="http://www.w3.org/1999/xlink" width="24px" height="24px" viewBox="0 0 24 24" version="1.1">
<g id="surface1">
<path style="fill-rule:evenodd;fill:rgb(95.294118%,71.764708%,85.09804%);fill-opacity:1;stroke-width:1;stroke-linecap:butt;stroke-linejoin:miter;stroke:rgb(90.196079%,0.784314%,70.588237%);stroke-opacity:1;stroke-miterlimit:4;" d="M 3.686988 -22.999942 L 7.647926 -22.999942 C 7.749488 -22.999942 7.835426 -22.919212 7.835426 -22.820254 L 7.835426 -19.713483 C 7.835426 -19.614525 7.749488 -19.533796 7.647926 -19.533796 L 3.686988 -19.533796 C 3.582822 -19.533796 3.499488 -19.614525 3.499488 -19.713483 L 3.499488 -22.820254 C 3.499488 -22.919212 3.582822 -22.999942 3.686988 -22.999942 Z M 3.686988 -22.999942 " transform="matrix(-1.5,0,0,-1.5,22.49142,-15.101475)"/>
<path style="fill-rule:evenodd;fill:rgb(95.294118%,71.764708%,85.09804%);fill-opacity:1;stroke-width:1;stroke-linecap:butt;stroke-linejoin:miter;stroke:rgb(90.196079%,0.784314%,70.588237%);stroke-opacity:1;stroke-miterlimit:4;" d="M 3.68178 -16.06765 L 10.241676 -16.06765 C 10.345842 -16.06765 10.429176 -15.986921 10.429176 -15.887962 L 10.429176 -12.781192 C 10.429176 -12.682233 10.345842 -12.5989 10.241676 -12.5989 L 3.68178 -12.5989 C 3.577613 -12.5989 3.49428 -12.682233 3.49428 -12.781192 L 3.49428 -15.887962 C 3.49428 -15.986921 3.577613 -16.06765 3.68178 -16.06765 Z M 3.68178 -16.06765 " transform="matrix(-1.5,0,0,-1.5,22.49142,-15.101475)"/>
<path style="fill:none;stroke-width:1;stroke-linecap:round;stroke-linejoin:round;stroke:rgb(61.56863%,22.745098%,60.784316%);stroke-opacity:1;stroke-miterlimit:4;" d="M 8.932291 1.494791 L 9 5 " transform="matrix(-0.000000000000000092,1.5,1.5,0.000000000000000092,0.000000715256,-1.499999)"/>
<path style="fill:none;stroke-width:1;stroke-linecap:round;stroke-linejoin:round;stroke:rgb(61.56863%,22.745098%,60.784316%);stroke-opacity:1;stroke-miterlimit:4;" d="M 7.432291 2.994791 L 9 5 L 10.432291 2.994791 " transform="matrix(-0.000000000000000092,1.5,1.5,0.000000000000000092,0.000000715256,-1.499999)"/>
<path style="fill:none;stroke-width:1;stroke-linecap:round;stroke-linejoin:miter;stroke:rgb(61.56863%,22.745098%,60.784316%);stroke-opacity:1;stroke-miterlimit:4;" d="M 0.49428 11.56765 L 0.49428 24.56765 " transform="matrix(-1.5,0,0,1.5,22.49142,-15.101475)"/>
</g>
</svg>
