<?xml version="1.0" encoding="UTF-8"?>
<svg xmlns="http://www.w3.org/2000/svg" xmlns:xlink="http://www.w3.org/1999/xlink" width="24px" height="24px" viewBox="0 0 24 24" version="1.1">
<g id="surface1">
<path style="fill-rule:nonzero;fill:rgb(95.294118%,71.764708%,85.09804%);fill-opacity:1;stroke-width:1;stroke-linecap:butt;stroke-linejoin:miter;stroke:rgb(90.196079%,0.784314%,70.588237%);stroke-opacity:1;stroke-miterlimit:4;" d="M 8.453125 5 L 13.546875 5 C 13.796875 5 14 5.203125 14 5.453125 L 14 10.546875 C 14 10.796875 13.796875 11 13.546875 11 L 8.453125 11 C 8.203125 11 8 10.796875 8 10.546875 L 8 5.453125 C 8 5.203125 8.203125 5 8.453125 5 Z M 8.453125 5 " transform="matrix(1.5,0,0,1.5,0,0)"/>
<path style=" stroke:none;fill-rule:evenodd;fill:rgb(61.56863%,22.745098%,60.784316%);fill-opacity:1;" d="M 6.761719 10.496094 L 10.507812 5.992188 L 9.765625 5.246094 L 7.511719 6.710938 L 7.5 1.5 L 6 1.5 L 6.011719 6.710938 L 3.792969 5.25 L 3.007812 5.996094 Z M 6.761719 10.496094 "/>
<path style=" stroke:none;fill-rule:evenodd;fill:rgb(61.56863%,22.745098%,60.784316%);fill-opacity:1;" d="M 6.761719 13.128906 L 10.507812 17.632812 L 9.765625 18.375 L 7.511719 16.914062 L 7.5 22.5 L 6 22.5 L 6.011719 16.914062 L 3.792969 18.375 L 3.007812 17.628906 Z M 6.761719 13.128906 "/>
</g>
</svg>
