<?xml version="1.0" encoding="UTF-8"?>
<svg xmlns="http://www.w3.org/2000/svg" xmlns:xlink="http://www.w3.org/1999/xlink" width="24px" height="24px" viewBox="0 0 24 24" version="1.1">
<g id="surface1">
<path style="fill-rule:nonzero;fill:rgb(95.294118%,71.764708%,85.09804%);fill-opacity:1;stroke-width:1.278937;stroke-linecap:butt;stroke-linejoin:round;stroke:rgb(90.196079%,0.784314%,70.588237%);stroke-opacity:1;stroke-miterlimit:4;" d="M 7.50045 18.001984 L 12.499999 29 C 12.499999 29 9.200319 28.001358 7.499623 28.000255 C 5.798927 27.999153 2.501728 28.999173 2.501728 28.999173 Z M 7.50045 18.001984 " transform="matrix(1.067723,-0.485328,0.485328,1.067723,-4.921056,-6.897348)"/>
<path style=" stroke:none;fill-rule:nonzero;fill:rgb(61.56863%,22.745098%,60.784316%);fill-opacity:1;" d="M 13.519531 12.417969 L 18.859375 17.078125 C 18.859375 17.078125 16.855469 17.34375 15.949219 17.757812 C 15.039062 18.167969 13.519531 19.503906 13.519531 19.503906 Z M 13.519531 12.417969 "/>
<path style=" stroke:none;fill-rule:nonzero;fill:rgb(61.56863%,22.745098%,60.784316%);fill-opacity:1;" d="M 0 1.5 L 24 1.5 L 24 7.5 L 0 7.5 Z M 0 1.5 "/>
<path style=" stroke:none;fill-rule:nonzero;fill:rgb(90.196079%,0.784314%,70.588237%);fill-opacity:1;" d="M 1.5 3 L 7.5 3 L 7.5 6 L 1.5 6 Z M 1.5 3 "/>
<path style=" stroke:none;fill-rule:nonzero;fill:rgb(90.196079%,0.784314%,70.588237%);fill-opacity:1;" d="M 16.5 3 L 22.5 3 L 22.5 6 L 16.5 6 Z M 16.5 3 "/>
<path style=" stroke:none;fill-rule:nonzero;fill:rgb(90.196079%,0.784314%,70.588237%);fill-opacity:1;" d="M 9 3 L 15 3 L 15 6 L 9 6 Z M 9 3 "/>
<path style=" stroke:none;fill-rule:nonzero;fill:rgb(90.196079%,0.784314%,70.588237%);fill-opacity:1;" d="M 9 7.5 L 9 21 L 0 21 L 0 7.5 Z M 9 7.5 "/>
<path style=" stroke:none;fill-rule:nonzero;fill:rgb(95.294118%,71.764708%,85.09804%);fill-opacity:1;" d="M 1.5 7.5 L 7.5 7.5 L 7.5 10.5 L 1.5 10.5 Z M 1.5 7.5 "/>
<path style=" stroke:none;fill-rule:nonzero;fill:rgb(95.294118%,71.764708%,85.09804%);fill-opacity:1;" d="M 1.5 12 L 7.5 12 L 7.5 15 L 1.5 15 Z M 1.5 12 "/>
<path style=" stroke:none;fill-rule:nonzero;fill:rgb(95.294118%,71.764708%,85.09804%);fill-opacity:1;" d="M 1.5 16.5 L 7.5 16.5 L 7.5 19.5 L 1.5 19.5 Z M 1.5 16.5 "/>
</g>
</svg>
