<?xml version="1.0" encoding="UTF-8"?>
<svg xmlns="http://www.w3.org/2000/svg" xmlns:xlink="http://www.w3.org/1999/xlink" width="24px" height="24px" viewBox="0 0 24 24" version="1.1">
<defs>
<clipPath id="clip1">
  <path d="M 9 9 L 23 9 L 23 23 L 9 23 Z M 9 9 "/>
</clipPath>
<clipPath id="clip2">
  <path d="M 12.070312 8.8125 L 8.851562 12.023438 L 8.851562 22.726562 L 23.339844 22.726562 L 23.339844 8.8125 Z M 12.070312 8.8125 "/>
</clipPath>
<clipPath id="clip3">
  <path d="M 14 9 L 19 9 L 19 13 L 14 13 Z M 14 9 "/>
</clipPath>
<clipPath id="clip4">
  <path d="M 10.753906 9.945312 L 21.042969 9.945312 C 22.09375 9.945312 22.949219 10.855469 22.949219 11.976562 L 22.949219 19.597656 C 22.949219 20.722656 22.09375 21.632812 21.042969 21.632812 L 10.753906 21.632812 C 9.699219 21.632812 8.847656 20.722656 8.847656 19.597656 L 8.847656 11.976562 C 8.847656 10.855469 9.699219 9.945312 10.753906 9.945312 Z M 10.753906 9.945312 "/>
</clipPath>
<clipPath id="clip5">
  <path d="M 13 9 L 19 9 L 19 13 L 13 13 Z M 13 9 "/>
</clipPath>
<clipPath id="clip6">
  <path d="M 10.753906 9.945312 L 21.042969 9.945312 C 22.09375 9.945312 22.949219 10.855469 22.949219 11.976562 L 22.949219 19.597656 C 22.949219 20.722656 22.09375 21.632812 21.042969 21.632812 L 10.753906 21.632812 C 9.699219 21.632812 8.847656 20.722656 8.847656 19.597656 L 8.847656 11.976562 C 8.847656 10.855469 9.699219 9.945312 10.753906 9.945312 Z M 10.753906 9.945312 "/>
</clipPath>
<clipPath id="clip7">
  <path d="M 11 15 L 20 15 L 20 22 L 11 22 Z M 11 15 "/>
</clipPath>
<clipPath id="clip8">
  <path d="M 9.871094 9.53125 L 21.21875 9.53125 C 22.378906 9.53125 23.320312 10.472656 23.320312 11.632812 L 23.320312 19.511719 C 23.320312 20.671875 22.378906 21.613281 21.21875 21.613281 L 9.871094 21.613281 C 8.710938 21.613281 7.769531 20.671875 7.769531 19.511719 L 7.769531 11.632812 C 7.769531 10.472656 8.710938 9.53125 9.871094 9.53125 Z M 9.871094 9.53125 "/>
</clipPath>
<clipPath id="clip9">
  <path d="M 11 14 L 21 14 L 21 22 L 11 22 Z M 11 14 "/>
</clipPath>
<clipPath id="clip10">
  <path d="M 9.871094 9.53125 L 21.21875 9.53125 C 22.378906 9.53125 23.320312 10.472656 23.320312 11.632812 L 23.320312 19.511719 C 23.320312 20.671875 22.378906 21.613281 21.21875 21.613281 L 9.871094 21.613281 C 8.710938 21.613281 7.769531 20.671875 7.769531 19.511719 L 7.769531 11.632812 C 7.769531 10.472656 8.710938 9.53125 9.871094 9.53125 Z M 9.871094 9.53125 "/>
</clipPath>
</defs>
<g id="surface1">
<path style="fill-rule:evenodd;fill:rgb(94.117647%,89.019608%,92.54902%);fill-opacity:1;stroke-width:1.602536;stroke-linecap:round;stroke-linejoin:round;stroke:rgb(90.196079%,0.784314%,70.588237%);stroke-opacity:1;stroke-miterlimit:4;" d="M 3.127029 1.898166 L 18.847106 1.898166 C 19.745638 1.898166 20.474636 2.604945 20.474636 3.476092 L 20.474636 20.923674 C 20.474636 21.794821 19.745638 22.5016 18.847106 22.5016 L 3.127029 22.5016 C 2.228497 22.5016 1.499499 21.794821 1.499499 20.923674 L 1.499499 3.476092 C 1.499499 2.604945 2.228497 1.898166 3.127029 1.898166 Z M 3.127029 1.898166 " transform="matrix(0.921642,0,0,0.950615,0.934405,0.402606)"/>
<path style="fill:none;stroke-width:1.602536;stroke-linecap:round;stroke-linejoin:miter;stroke:rgb(90.196079%,0.784314%,70.588237%);stroke-opacity:1;stroke-miterlimit:4;" d="M 3.406761 10.864399 L 14.70199 10.864399 " transform="matrix(0.921642,0,0,0.950615,0.934405,0.402606)"/>
<path style="fill:none;stroke-width:1.602536;stroke-linecap:round;stroke-linejoin:miter;stroke:rgb(90.196079%,0.784314%,70.588237%);stroke-opacity:1;stroke-miterlimit:4;" d="M 3.394046 13.814791 L 14.689275 13.814791 " transform="matrix(0.921642,0,0,0.950615,0.934405,0.402606)"/>
<path style="fill:none;stroke-width:1.602536;stroke-linecap:round;stroke-linejoin:miter;stroke:rgb(90.196079%,0.784314%,70.588237%);stroke-opacity:1;stroke-miterlimit:4;" d="M 3.351662 16.867913 L 14.651129 16.867913 " transform="matrix(0.921642,0,0,0.950615,0.934405,0.402606)"/>
<path style="fill-rule:evenodd;fill:rgb(61.56863%,22.745098%,60.784316%);fill-opacity:1;stroke-width:0.801268;stroke-linecap:round;stroke-linejoin:round;stroke:rgb(61.56863%,22.745098%,60.784316%);stroke-opacity:1;stroke-miterlimit:4;" d="M 1.499499 2.000896 C 1.774992 2.000896 1.999625 3.061064 1.999625 4.367784 L 1.999625 19.633392 C 1.999625 20.940111 1.774992 22.00028 1.499499 22.00028 C 1.224005 22.00028 0.999372 20.940111 0.999372 19.633392 L 0.999372 4.367784 C 0.999372 3.061064 1.224005 2.000896 1.499499 2.000896 Z M 1.499499 2.000896 " transform="matrix(0.921642,0,0,0.950615,0.934405,0.402606)"/>
<g clip-path="url(#clip1)" clip-rule="nonzero">
<g clip-path="url(#clip2)" clip-rule="nonzero">
<path style="fill-rule:evenodd;fill:rgb(95.294118%,71.764708%,85.09804%);fill-opacity:1;stroke-width:0.699837;stroke-linecap:round;stroke-linejoin:round;stroke:rgb(90.196079%,0.784314%,70.588237%);stroke-opacity:1;stroke-miterlimit:4;" d="M 4.772127 2.120316 L 11.25137 2.120316 C 12.703739 2.120316 13.879467 3.299249 13.879467 4.755578 L 13.879467 11.256134 C 13.879467 12.712462 12.703739 13.891395 11.25137 13.891395 L 4.772127 13.891395 C 3.319757 13.891395 2.144029 12.712462 2.144029 11.256134 L 2.144029 4.755578 C 2.144029 3.299249 3.319757 2.120316 4.772127 2.120316 Z M 4.772127 2.120316 " transform="matrix(1.073138,0,0,1.070221,7.242129,7.207355)"/>
</g>
</g>
<path style="fill:none;stroke-width:0.453997;stroke-linecap:butt;stroke-linejoin:bevel;stroke:rgb(90.196079%,0.784314%,70.588237%);stroke-opacity:1;stroke-miterlimit:4;" d="M 1.809343 16.041837 L 3.301408 14.485561 " transform="matrix(1.665058,0,0,1.639029,6.678745,-14.394596)"/>
<g clip-path="url(#clip3)" clip-rule="nonzero">
<g clip-path="url(#clip4)" clip-rule="nonzero">
<path style=" stroke:none;fill-rule:evenodd;fill:rgb(94.117647%,89.019608%,92.54902%);fill-opacity:1;" d="M 15.324219 8.648438 L 17.554688 8.648438 C 18.097656 8.648438 18.539062 9.226562 18.539062 9.941406 L 18.539062 11.066406 C 18.539062 11.78125 18.097656 12.359375 17.554688 12.359375 L 15.324219 12.359375 C 14.78125 12.359375 14.339844 11.78125 14.339844 11.066406 L 14.339844 9.941406 C 14.339844 9.226562 14.78125 8.648438 15.324219 8.648438 Z M 15.324219 8.648438 "/>
</g>
</g>
<g clip-path="url(#clip5)" clip-rule="nonzero">
<g clip-path="url(#clip6)" clip-rule="nonzero">
<path style="fill:none;stroke-width:0.716246;stroke-linecap:butt;stroke-linejoin:bevel;stroke:rgb(90.196079%,0.784314%,70.588237%);stroke-opacity:1;stroke-miterlimit:4;" d="M 7.27881 9.359515 L 9.47795 9.359515 C 10.013293 9.359515 10.448499 9.894284 10.448499 10.55552 L 10.448499 11.596152 C 10.448499 12.257388 10.013293 12.792157 9.47795 12.792157 L 7.27881 12.792157 C 6.743467 12.792157 6.308261 12.257388 6.308261 11.596152 L 6.308261 10.55552 C 6.308261 9.894284 6.743467 9.359515 7.27881 9.359515 Z M 7.27881 9.359515 " transform="matrix(1.014246,0,0,1.081073,7.941718,-1.469884)"/>
</g>
</g>
<g clip-path="url(#clip7)" clip-rule="nonzero">
<g clip-path="url(#clip8)" clip-rule="nonzero">
<path style=" stroke:none;fill-rule:evenodd;fill:rgb(94.117647%,89.019608%,92.54902%);fill-opacity:1;" d="M 12.945312 15.328125 L 18.777344 15.328125 C 19.320312 15.328125 19.757812 15.90625 19.757812 16.617188 L 19.757812 21.886719 C 19.757812 22.601562 19.320312 23.175781 18.777344 23.175781 L 12.945312 23.175781 C 12.402344 23.175781 11.960938 22.601562 11.960938 21.886719 L 11.960938 16.617188 C 11.960938 15.90625 12.402344 15.328125 12.945312 15.328125 Z M 12.945312 15.328125 "/>
</g>
</g>
<g clip-path="url(#clip9)" clip-rule="nonzero">
<g clip-path="url(#clip10)" clip-rule="nonzero">
<path style="fill:none;stroke-width:0.670736;stroke-linecap:butt;stroke-linejoin:bevel;stroke:rgb(90.196079%,0.784314%,70.588237%);stroke-opacity:1;stroke-miterlimit:4;" d="M 5.520355 15.745674 L 10.734059 15.745674 C 11.219461 15.745674 11.610576 16.262896 11.610576 16.898938 L 11.610576 21.613342 C 11.610576 22.252879 11.219461 22.766606 10.734059 22.766606 L 5.520355 22.766606 C 5.034953 22.766606 4.640346 22.252879 4.640346 21.613342 L 4.640346 16.898938 C 4.640346 16.262896 5.034953 15.745674 5.520355 15.745674 Z M 5.520355 15.745674 " transform="matrix(1.118596,0,0,1.117751,6.770263,-2.271626)"/>
</g>
</g>
<path style="fill-rule:nonzero;fill:rgb(61.56863%,22.745098%,60.784316%);fill-opacity:1;stroke-width:0.453997;stroke-linecap:round;stroke-linejoin:round;stroke:rgb(61.56863%,22.745098%,60.784316%);stroke-opacity:1;stroke-miterlimit:4;" d="M 3.859759 19.121024 C 3.876181 18.956578 3.998174 18.837414 4.150665 18.837414 C 4.251544 18.837414 4.345384 18.889846 4.396996 18.973261 C 4.448609 18.889846 4.537757 18.837414 4.638636 18.837414 C 4.791127 18.837414 4.91312 18.956578 4.929542 19.121024 C 4.931888 19.128174 4.93658 19.166306 4.920158 19.228271 C 4.899043 19.318835 4.847431 19.399866 4.772359 19.464215 L 4.396996 19.785956 L 4.016942 19.464215 C 3.94187 19.399866 3.890257 19.318835 3.869143 19.228271 C 3.852721 19.166306 3.857413 19.128174 3.859759 19.121024 Z M 3.909025 19.218738 C 3.93014 19.302152 3.97706 19.376034 4.045094 19.435616 L 4.396996 19.733524 L 4.744206 19.435616 C 4.812241 19.376034 4.859161 19.302152 4.880275 19.218738 C 4.894351 19.161539 4.889659 19.128174 4.889659 19.12579 L 4.887313 19.12579 C 4.875583 18.980411 4.770013 18.87793 4.638636 18.87793 C 4.542449 18.87793 4.457993 18.932745 4.415765 19.025693 L 4.396996 19.068592 L 4.378228 19.025693 C 4.338346 18.935129 4.249198 18.87793 4.150665 18.87793 C 4.019288 18.87793 3.913717 18.980411 3.899641 19.12579 C 3.899641 19.128174 3.894949 19.161539 3.909025 19.218738 Z M 3.909025 19.218738 " transform="matrix(1.665058,0,0,1.639029,6.678745,-14.394596)"/>
<path style="fill:none;stroke-width:0.453997;stroke-linecap:round;stroke-linejoin:miter;stroke:rgb(90.196079%,0.784314%,70.588237%);stroke-opacity:1;stroke-miterlimit:4;" d="M 3.906679 20.176813 L 7.139487 20.176813 " transform="matrix(1.665058,0,0,1.639029,6.678745,-14.394596)"/>
<path style="fill:none;stroke-width:0.453997;stroke-linecap:round;stroke-linejoin:miter;stroke:rgb(90.196079%,0.784314%,70.588237%);stroke-opacity:1;stroke-miterlimit:4;" d="M 3.892603 21.361299 L 7.125411 21.361299 " transform="matrix(1.665058,0,0,1.639029,6.678745,-14.394596)"/>
<path style="fill-rule:evenodd;fill:rgb(95.294118%,71.764708%,85.09804%);fill-opacity:1;stroke-width:0.453997;stroke-linecap:round;stroke-linejoin:bevel;stroke:rgb(90.196079%,0.784314%,70.588237%);stroke-opacity:1;stroke-miterlimit:4;" d="M 5.37763 15.112362 C 5.445665 15.112362 5.501969 15.210076 5.501969 15.331623 L 5.501969 15.543734 C 5.501969 15.662897 5.445665 15.760611 5.37763 15.760611 C 5.309596 15.760611 5.253292 15.662897 5.253292 15.543734 L 5.253292 15.331623 C 5.253292 15.210076 5.309596 15.112362 5.37763 15.112362 Z M 5.37763 15.112362 " transform="matrix(1.665058,0,0,1.639029,6.678745,-14.394596)"/>
<path style="fill-rule:nonzero;fill:rgb(94.117647%,89.019608%,92.54902%);fill-opacity:1;stroke-width:0.844163;stroke-linecap:butt;stroke-linejoin:round;stroke:rgb(61.56863%,22.745098%,60.784316%);stroke-opacity:1;stroke-miterlimit:4;" d="M 8.673877 11.234755 C 9.337953 9.973243 9.337953 9.973243 10.661707 9.454573 L 11.668816 12.584176 Z M 8.673877 11.234755 " transform="matrix(0.888217,0,0,-0.888691,8.283994,23.253756)"/>
<path style="fill:none;stroke-width:0.844163;stroke-linecap:round;stroke-linejoin:miter;stroke:rgb(61.56863%,22.745098%,60.784316%);stroke-opacity:1;stroke-miterlimit:4;" d="M 11.668816 12.584176 L 12.667129 13.700636 " transform="matrix(0.888217,0,0,-0.888691,8.283994,23.253756)"/>
<path style="fill-rule:nonzero;fill:rgb(95.294118%,71.764708%,85.09804%);fill-opacity:1;stroke-width:0.844163;stroke-linecap:round;stroke-linejoin:round;stroke:rgb(61.56863%,22.745098%,60.784316%);stroke-opacity:1;stroke-miterlimit:4;" d="M 1.839612 1.916273 L 2.173849 1.621774 C 2.631226 1.212992 3.370065 1.296507 3.83184 1.815177 L 10.331868 9.08535 C 10.789245 9.599625 12.293311 12.025946 11.831537 12.434729 L 11.501698 12.729228 C 11.044321 13.142406 8.801415 11.375411 8.33964 10.861136 L 1.84401 3.590963 C 1.382235 3.072293 1.382235 2.329451 1.839612 1.916273 Z M 1.839612 1.916273 " transform="matrix(0.888217,0,0,-0.888691,8.283994,23.253756)"/>
<path style="fill:none;stroke-width:0.844163;stroke-linecap:butt;stroke-linejoin:miter;stroke:rgb(61.56863%,22.745098%,60.784316%);stroke-opacity:1;stroke-miterlimit:4;" d="M 8.673877 11.234755 C 9.003716 9.599625 9.003716 9.599625 10.661707 9.454573 " transform="matrix(0.888217,0,0,-0.888691,8.283994,23.253756)"/>
<path style="fill-rule:nonzero;fill:rgb(94.117647%,89.019608%,92.54902%);fill-opacity:1;stroke-width:0.844163;stroke-linecap:round;stroke-linejoin:round;stroke:rgb(61.56863%,22.745098%,60.784316%);stroke-opacity:1;stroke-miterlimit:4;" d="M 5.331508 3.489866 C 3.845033 3.82832 3.845033 3.82832 3.343678 5.270048 C 3.506399 5.450263 4.192464 6.219478 4.341991 6.386507 C 4.67183 4.751377 4.67183 4.751377 6.334219 4.610721 C 6.224273 4.487647 5.555799 3.744806 5.331508 3.489866 Z M 5.331508 3.489866 " transform="matrix(0.888217,0,0,-0.888691,8.283994,23.253756)"/>
<path style="fill-rule:nonzero;fill:rgb(94.117647%,89.019608%,92.54902%);fill-opacity:1;stroke-width:0.844163;stroke-linecap:round;stroke-linejoin:round;stroke:rgb(61.56863%,22.745098%,60.784316%);stroke-opacity:1;stroke-miterlimit:4;" d="M 10.331868 9.08535 C 10.842019 9.656767 12.293311 12.025946 11.831537 12.434729 L 11.501698 12.729228 C 11.044321 13.142406 8.814609 11.388597 8.33964 10.861136 C 9.003716 9.599625 9.003716 9.599625 10.331868 9.08535 Z M 10.331868 9.08535 " transform="matrix(0.888217,0,0,-0.888691,8.283994,23.253756)"/>
<path style="fill:none;stroke-width:0.844163;stroke-linecap:round;stroke-linejoin:round;stroke:rgb(61.56863%,22.745098%,60.784316%);stroke-opacity:1;stroke-miterlimit:4;" d="M 3.998958 1.999788 L 4.333195 1.705289 C 4.667432 1.401999 5.335906 1.489909 5.661347 1.859132 L 9.32476 5.960143 " transform="matrix(0.888217,0,0,-0.888691,8.283994,23.253756)"/>
<path style="fill-rule:nonzero;fill:rgb(61.56863%,22.745098%,60.784316%);fill-opacity:1;stroke-width:0.844163;stroke-linecap:round;stroke-linejoin:round;stroke:rgb(61.56863%,22.745098%,60.784316%);stroke-opacity:1;stroke-miterlimit:4;" d="M 3.483184 10.657516 C 3.483263 10.934639 3.259272 11.158904 2.985062 11.155559 C 2.707923 11.155491 2.483525 10.931394 2.483446 10.654272 C 2.483718 10.383358 2.707709 10.159092 2.981568 10.15623 C 3.258707 10.156298 3.483105 10.380394 3.483184 10.657516 Z M 3.483184 10.657516 " transform="matrix(0.662317,0.592149,0.591833,-0.66267,8.283994,23.253756)"/>
</g>
</svg>
