<?xml version="1.0" encoding="UTF-8"?>
<svg xmlns="http://www.w3.org/2000/svg" xmlns:xlink="http://www.w3.org/1999/xlink" width="24px" height="24px" viewBox="0 0 24 24" version="1.1">
<g id="surface1">
<path style=" stroke:none;fill-rule:nonzero;fill:rgb(33.333334%,34.117648%,32.549021%);fill-opacity:1;" d="M 12 1.5 C 6.199219 1.5 1.5 6.199219 1.5 12 C 1.5 17.800781 6.199219 22.5 12 22.5 C 17.800781 22.5 22.5 17.800781 22.5 12 C 22.5 6.199219 17.800781 1.5 12 1.5 Z M 12 4.5 C 16.140625 4.5 19.5 7.859375 19.5 12 C 19.5 16.140625 16.140625 19.5 12 19.5 C 7.859375 19.5 4.5 16.140625 4.5 12 C 4.5 7.859375 7.859375 4.5 12 4.5 Z M 12 7.5 C 10.34375 7.5 9 8.84375 9 10.5 L 10.5 10.5 C 10.5 9.671875 11.171875 9 12 9 L 13.5 9 C 14.328125 9 15 9.671875 15 10.5 L 15 13.5 C 15 14.328125 14.328125 15 13.5 15 L 12 15 C 11.171875 15 10.5 14.328125 10.5 13.5 L 9 13.5 C 9 15.15625 10.34375 16.5 12 16.5 L 13.5 16.5 C 15.15625 16.5 16.5 15.15625 16.5 13.5 L 16.5 10.5 C 16.5 8.84375 15.15625 7.5 13.5 7.5 Z M 12 7.5 "/>
</g>
</svg>
