<?xml version="1.0" encoding="UTF-8"?>
<svg xmlns="http://www.w3.org/2000/svg" xmlns:xlink="http://www.w3.org/1999/xlink" width="24px" height="24px" viewBox="0 0 24 24" version="1.1">
<g id="surface1">
<path style="fill-rule:nonzero;fill:rgb(94.117647%,89.019608%,92.54902%);fill-opacity:1;stroke-width:0.45;stroke-linecap:butt;stroke-linejoin:round;stroke:rgb(90.196079%,0.784314%,70.588237%);stroke-opacity:1;stroke-miterlimit:4;" d="M 2.901042 7.799479 L 6.5 7.799479 C 6.950521 7.799479 7.401042 7.348958 7.401042 6.901042 L 7.401042 3.299479 C 7.401042 2.848958 6.049479 1.5 5.598958 1.5 L 2.901042 1.5 C 2.450521 1.5 2 1.950521 2 2.401042 L 2 6.901042 C 2 7.348958 2.450521 7.799479 2.901042 7.799479 Z M 2.901042 7.799479 " transform="matrix(1.5,0,0,1.5,0,0)"/>
<path style="fill-rule:nonzero;fill:rgb(90.196079%,0.784314%,70.588237%);fill-opacity:1;stroke-width:0.45;stroke-linecap:butt;stroke-linejoin:round;stroke:rgb(90.196079%,0.784314%,70.588237%);stroke-opacity:1;stroke-miterlimit:4;" d="M 7.401042 3.299479 C 6.914062 2.424479 6.286458 1.890625 5.598958 1.5 L 5.598958 3.299479 L 7.401042 3.299479 " transform="matrix(1.5,0,0,1.5,0,0)"/>
<path style="fill:none;stroke-width:0.45;stroke-linecap:round;stroke-linejoin:miter;stroke:rgb(61.56863%,22.745098%,60.784316%);stroke-opacity:1;stroke-miterlimit:4;" d="M 2.901042 6.901042 L 6.5 6.901042 " transform="matrix(1.5,0,0,1.5,0,0)"/>
<path style="fill:none;stroke-width:0.45;stroke-linecap:round;stroke-linejoin:miter;stroke:rgb(61.56863%,22.745098%,60.784316%);stroke-opacity:1;stroke-miterlimit:4;" d="M 2.901042 6 L 6.5 6 " transform="matrix(1.5,0,0,1.5,0,0)"/>
<path style="fill:none;stroke-width:0.45;stroke-linecap:round;stroke-linejoin:miter;stroke:rgb(61.56863%,22.745098%,60.784316%);stroke-opacity:1;stroke-miterlimit:4;" d="M 2.901042 5.098958 L 6.5 5.098958 " transform="matrix(1.5,0,0,1.5,0,0)"/>
<path style="fill:none;stroke-width:0.45;stroke-linecap:round;stroke-linejoin:miter;stroke:rgb(61.56863%,22.745098%,60.784316%);stroke-opacity:1;stroke-miterlimit:4;" d="M 2.901042 4.200521 L 6.5 4.200521 " transform="matrix(1.5,0,0,1.5,0,0)"/>
<path style="fill:none;stroke-width:0.45;stroke-linecap:round;stroke-linejoin:miter;stroke:rgb(61.56863%,22.745098%,60.784316%);stroke-opacity:1;stroke-miterlimit:4;" d="M 2.901042 3.299479 L 4.700521 3.299479 " transform="matrix(1.5,0,0,1.5,0,0)"/>
<path style="fill:none;stroke-width:0.45;stroke-linecap:round;stroke-linejoin:miter;stroke:rgb(61.56863%,22.745098%,60.784316%);stroke-opacity:1;stroke-miterlimit:4;" d="M 2.901042 2.401042 L 4.700521 2.401042 " transform="matrix(1.5,0,0,1.5,0,0)"/>
<path style="fill-rule:nonzero;fill:rgb(94.117647%,89.019608%,92.54902%);fill-opacity:1;stroke-width:0.45;stroke-linecap:butt;stroke-linejoin:round;stroke:rgb(90.196079%,0.784314%,70.588237%);stroke-opacity:1;stroke-miterlimit:4;" d="M 2.901042 14.799479 L 6.5 14.799479 C 6.950521 14.799479 7.401042 14.348958 7.401042 13.901042 L 7.401042 10.299479 C 7.401042 9.848958 6.049479 8.5 5.598958 8.5 L 2.901042 8.5 C 2.450521 8.5 2 8.950521 2 9.401042 L 2 13.901042 C 2 14.348958 2.450521 14.799479 2.901042 14.799479 Z M 2.901042 14.799479 " transform="matrix(1.5,0,0,1.5,0,0)"/>
<path style="fill-rule:nonzero;fill:rgb(90.196079%,0.784314%,70.588237%);fill-opacity:1;stroke-width:0.45;stroke-linecap:butt;stroke-linejoin:round;stroke:rgb(90.196079%,0.784314%,70.588237%);stroke-opacity:1;stroke-miterlimit:4;" d="M 7.401042 10.299479 L 5.598958 8.5 L 5.598958 10.299479 L 7.401042 10.299479 " transform="matrix(1.5,0,0,1.5,0,0)"/>
<path style="fill:none;stroke-width:0.45;stroke-linecap:round;stroke-linejoin:miter;stroke:rgb(61.56863%,22.745098%,60.784316%);stroke-opacity:1;stroke-miterlimit:4;" d="M 2.901042 13.901042 L 6.5 13.901042 " transform="matrix(1.5,0,0,1.5,0,0)"/>
<path style="fill:none;stroke-width:0.45;stroke-linecap:round;stroke-linejoin:miter;stroke:rgb(61.56863%,22.745098%,60.784316%);stroke-opacity:1;stroke-miterlimit:4;" d="M 2.901042 13 L 6.5 13 " transform="matrix(1.5,0,0,1.5,0,0)"/>
<path style="fill:none;stroke-width:0.45;stroke-linecap:round;stroke-linejoin:miter;stroke:rgb(61.56863%,22.745098%,60.784316%);stroke-opacity:1;stroke-miterlimit:4;" d="M 2.901042 12.098958 L 6.5 12.098958 " transform="matrix(1.5,0,0,1.5,0,0)"/>
<path style="fill:none;stroke-width:0.45;stroke-linecap:round;stroke-linejoin:miter;stroke:rgb(61.56863%,22.745098%,60.784316%);stroke-opacity:1;stroke-miterlimit:4;" d="M 2.901042 11.200521 L 6.5 11.200521 " transform="matrix(1.5,0,0,1.5,0,0)"/>
<path style="fill:none;stroke-width:0.45;stroke-linecap:round;stroke-linejoin:miter;stroke:rgb(61.56863%,22.745098%,60.784316%);stroke-opacity:1;stroke-miterlimit:4;" d="M 2.901042 10.299479 L 4.700521 10.299479 " transform="matrix(1.5,0,0,1.5,0,0)"/>
<path style="fill:none;stroke-width:0.45;stroke-linecap:round;stroke-linejoin:miter;stroke:rgb(61.56863%,22.745098%,60.784316%);stroke-opacity:1;stroke-miterlimit:4;" d="M 2.901042 9.401042 L 4.700521 9.401042 " transform="matrix(1.5,0,0,1.5,0,0)"/>
<path style="fill-rule:nonzero;fill:rgb(94.117647%,89.019608%,92.54902%);fill-opacity:1;stroke-width:0.45;stroke-linecap:butt;stroke-linejoin:round;stroke:rgb(90.196079%,0.784314%,70.588237%);stroke-opacity:1;stroke-miterlimit:4;" d="M 9.401042 7.799479 L 13 7.799479 C 13.450521 7.799479 13.901042 7.348958 13.901042 6.901042 L 13.901042 3.299479 C 13.901042 2.848958 12.549479 1.5 12.098958 1.5 L 9.401042 1.5 C 8.950521 1.5 8.5 1.950521 8.5 2.401042 L 8.5 6.901042 C 8.5 7.348958 8.950521 7.799479 9.401042 7.799479 Z M 9.401042 7.799479 " transform="matrix(1.5,0,0,1.5,0,0)"/>
<path style="fill-rule:nonzero;fill:rgb(90.196079%,0.784314%,70.588237%);fill-opacity:1;stroke-width:0.45;stroke-linecap:butt;stroke-linejoin:round;stroke:rgb(90.196079%,0.784314%,70.588237%);stroke-opacity:1;stroke-miterlimit:4;" d="M 13.901042 3.299479 L 12.098958 1.5 L 12.098958 3.299479 L 13.901042 3.299479 " transform="matrix(1.5,0,0,1.5,0,0)"/>
<path style="fill:none;stroke-width:0.45;stroke-linecap:round;stroke-linejoin:miter;stroke:rgb(61.56863%,22.745098%,60.784316%);stroke-opacity:1;stroke-miterlimit:4;" d="M 9.401042 6.901042 L 13 6.901042 " transform="matrix(1.5,0,0,1.5,0,0)"/>
<path style="fill:none;stroke-width:0.45;stroke-linecap:round;stroke-linejoin:miter;stroke:rgb(61.56863%,22.745098%,60.784316%);stroke-opacity:1;stroke-miterlimit:4;" d="M 9.401042 6 L 13 6 " transform="matrix(1.5,0,0,1.5,0,0)"/>
<path style="fill:none;stroke-width:0.45;stroke-linecap:round;stroke-linejoin:miter;stroke:rgb(61.56863%,22.745098%,60.784316%);stroke-opacity:1;stroke-miterlimit:4;" d="M 9.401042 5.098958 L 13 5.098958 " transform="matrix(1.5,0,0,1.5,0,0)"/>
<path style="fill:none;stroke-width:0.45;stroke-linecap:round;stroke-linejoin:miter;stroke:rgb(61.56863%,22.745098%,60.784316%);stroke-opacity:1;stroke-miterlimit:4;" d="M 9.401042 4.200521 L 13 4.200521 " transform="matrix(1.5,0,0,1.5,0,0)"/>
<path style="fill:none;stroke-width:0.45;stroke-linecap:round;stroke-linejoin:miter;stroke:rgb(61.56863%,22.745098%,60.784316%);stroke-opacity:1;stroke-miterlimit:4;" d="M 9.401042 3.299479 L 11.200521 3.299479 " transform="matrix(1.5,0,0,1.5,0,0)"/>
<path style="fill:none;stroke-width:0.45;stroke-linecap:round;stroke-linejoin:miter;stroke:rgb(61.56863%,22.745098%,60.784316%);stroke-opacity:1;stroke-miterlimit:4;" d="M 9.401042 2.401042 L 11.200521 2.401042 " transform="matrix(1.5,0,0,1.5,0,0)"/>
<path style="fill-rule:nonzero;fill:rgb(94.117647%,89.019608%,92.54902%);fill-opacity:1;stroke-width:0.45;stroke-linecap:butt;stroke-linejoin:round;stroke:rgb(90.196079%,0.784314%,70.588237%);stroke-opacity:1;stroke-miterlimit:4;" d="M 9.401042 14.700521 L 13 14.700521 C 13.450521 14.700521 13.901042 14.25 13.901042 13.799479 L 13.901042 10.200521 C 13.901042 9.75 12.549479 8.401042 12.098958 8.401042 L 9.401042 8.401042 C 8.950521 8.401042 8.5 8.848958 8.5 9.299479 L 8.5 13.799479 C 8.5 14.25 8.950521 14.700521 9.401042 14.700521 Z M 9.401042 14.700521 " transform="matrix(1.5,0,0,1.5,0,0)"/>
<path style="fill-rule:nonzero;fill:rgb(90.196079%,0.784314%,70.588237%);fill-opacity:1;stroke-width:0.45;stroke-linecap:butt;stroke-linejoin:round;stroke:rgb(90.196079%,0.784314%,70.588237%);stroke-opacity:1;stroke-miterlimit:4;" d="M 13.901042 10.200521 L 12.098958 8.5 L 12.098958 10.200521 L 13.901042 10.200521 " transform="matrix(1.5,0,0,1.5,0,0)"/>
<path style="fill:none;stroke-width:0.45;stroke-linecap:round;stroke-linejoin:miter;stroke:rgb(61.56863%,22.745098%,60.784316%);stroke-opacity:1;stroke-miterlimit:4;" d="M 9.401042 13.799479 L 13 13.799479 " transform="matrix(1.5,0,0,1.5,0,0)"/>
<path style="fill:none;stroke-width:0.45;stroke-linecap:round;stroke-linejoin:miter;stroke:rgb(61.56863%,22.745098%,60.784316%);stroke-opacity:1;stroke-miterlimit:4;" d="M 9.401042 12.901042 L 13 12.901042 " transform="matrix(1.5,0,0,1.5,0,0)"/>
<path style="fill:none;stroke-width:0.45;stroke-linecap:round;stroke-linejoin:miter;stroke:rgb(61.56863%,22.745098%,60.784316%);stroke-opacity:1;stroke-miterlimit:4;" d="M 9.401042 12 L 13 12 " transform="matrix(1.5,0,0,1.5,0,0)"/>
<path style="fill:none;stroke-width:0.45;stroke-linecap:round;stroke-linejoin:miter;stroke:rgb(61.56863%,22.745098%,60.784316%);stroke-opacity:1;stroke-miterlimit:4;" d="M 9.401042 11.098958 L 13 11.098958 " transform="matrix(1.5,0,0,1.5,0,0)"/>
<path style="fill:none;stroke-width:0.45;stroke-linecap:round;stroke-linejoin:miter;stroke:rgb(61.56863%,22.745098%,60.784316%);stroke-opacity:1;stroke-miterlimit:4;" d="M 9.401042 10.200521 L 11.200521 10.200521 " transform="matrix(1.5,0,0,1.5,0,0)"/>
<path style="fill:none;stroke-width:0.45;stroke-linecap:round;stroke-linejoin:miter;stroke:rgb(61.56863%,22.745098%,60.784316%);stroke-opacity:1;stroke-miterlimit:4;" d="M 9.401042 9.299479 L 11.200521 9.299479 " transform="matrix(1.5,0,0,1.5,0,0)"/>
</g>
</svg>
