<?xml version="1.0" encoding="UTF-8"?>
<svg xmlns="http://www.w3.org/2000/svg" xmlns:xlink="http://www.w3.org/1999/xlink" width="24px" height="24px" viewBox="0 0 24 24" version="1.1">
<g id="surface1">
<path style=" stroke:none;fill-rule:nonzero;fill:rgb(33.333334%,34.117648%,32.549021%);fill-opacity:1;" d="M 0 18 L 13.5 18 L 13.5 6 L 0 6 Z M 3 15 L 3 9 L 10.5 9 L 10.5 15 Z M 15 21 L 16.5 21 C 16.886719 21 17.292969 20.804688 17.578125 20.53125 L 18 19.972656 L 18 24 L 21 24 L 21 19.972656 L 21.421875 20.53125 C 21.707031 20.804688 22.164062 21 22.5 21 L 24 21 L 24 19.5 C 24 19.035156 23.863281 18.671875 23.578125 18.375 C 22.421875 16.851562 21.597656 16.085938 20.667969 15 L 18.246094 15 L 15.421875 18.375 C 15.136719 18.671875 15 19.035156 15 19.5 Z M 15 4.5 C 15 4.964844 15.136719 5.328125 15.421875 5.625 L 18.246094 9 L 20.667969 9 C 21.597656 7.914062 22.421875 7.148438 23.578125 5.625 C 23.863281 5.328125 24 4.964844 24 4.5 L 24 3 L 22.5 3 C 22.164062 3 21.707031 3.195312 21.421875 3.46875 L 21 4.027344 L 21 0 L 18 0 L 18 4.027344 L 17.578125 3.46875 C 17.292969 3.195312 16.886719 3 16.5 3 L 15 3 Z M 15 4.5 "/>
</g>
</svg>
