<?xml version="1.0" encoding="UTF-8"?>
<svg xmlns="http://www.w3.org/2000/svg" xmlns:xlink="http://www.w3.org/1999/xlink" width="24px" height="24px" viewBox="0 0 24 24" version="1.1">
<g id="surface1">
<path style=" stroke:none;fill-rule:nonzero;fill:rgb(61.56863%,22.745098%,60.784316%);fill-opacity:1;" d="M 6.03125 9 C 5.96875 8.699219 5.941406 8.378906 5.941406 8.035156 C 5.941406 7.074219 6.195312 6.226562 6.707031 5.488281 C 7.234375 4.738281 7.964844 4.160156 8.890625 3.761719 C 9.835938 3.347656 10.90625 3.136719 12.109375 3.136719 C 13.226562 3.136719 14.269531 3.3125 15.226562 3.664062 C 16.203125 4.003906 17.019531 4.488281 17.675781 5.128906 C 17.933594 5.386719 18.058594 5.664062 18.058594 5.96875 C 18.058594 6.195312 17.996094 6.394531 17.867188 6.570312 C 17.738281 6.730469 17.589844 6.808594 17.410156 6.808594 C 17.234375 6.808594 17.003906 6.722656 16.714844 6.546875 C 15.933594 5.90625 15.203125 5.457031 14.53125 5.203125 C 13.859375 4.945312 13.050781 4.816406 12.109375 4.816406 C 10.78125 4.816406 9.746094 5.097656 9.011719 5.65625 C 8.277344 6.203125 7.855469 7.039062 8.097656 8 C 8.222656 8.5 8.597656 8.707031 8.722656 9 M 17.363281 13.289062 C 17.925781 13.882812 18.203125 14.675781 18.203125 15.664062 C 18.203125 16.609375 17.941406 17.441406 17.410156 18.160156 C 16.898438 18.882812 16.171875 19.441406 15.226562 19.84375 C 14.285156 20.242188 13.203125 20.441406 11.988281 20.441406 C 10.789062 20.441406 9.636719 20.265625 8.53125 19.914062 C 7.445312 19.546875 6.570312 19.058594 5.914062 18.449219 C 5.675781 18.226562 5.554688 17.945312 5.554688 17.609375 C 5.554688 17.386719 5.621094 17.195312 5.746094 17.035156 C 5.875 16.859375 6.027344 16.769531 6.203125 16.769531 C 6.410156 16.769531 6.636719 16.859375 6.875 17.035156 C 8.363281 18.1875 10.058594 18.761719 11.964844 18.761719 C 13.339844 18.761719 14.394531 18.496094 15.132812 17.96875 C 15.867188 17.441406 16.234375 16.691406 16.234375 15.714844 C 16.234375 15.152344 16.058594 14.707031 15.707031 14.371094 C 15.355469 14.019531 14.824219 13.449219 14.25 13.242188 "/>
<path style="fill:none;stroke-width:1;stroke-linecap:round;stroke-linejoin:miter;stroke:rgb(61.56863%,22.745098%,60.784316%);stroke-opacity:1;stroke-miterlimit:4;" d="M 2 7.5 L 14 7.5 " transform="matrix(1.5,0,0,1.5,0,0)"/>
</g>
</svg>
