<?xml version="1.0" encoding="UTF-8"?>
<svg xmlns="http://www.w3.org/2000/svg" xmlns:xlink="http://www.w3.org/1999/xlink" width="24px" height="24px" viewBox="0 0 24 24" version="1.1">
<g id="surface1">
<path style="fill-rule:nonzero;fill:rgb(94.117647%,89.019608%,92.54902%);fill-opacity:1;stroke-width:1;stroke-linecap:square;stroke-linejoin:round;stroke:rgb(90.196079%,0.784314%,70.588237%);stroke-opacity:1;stroke-miterlimit:4;" d="M 2 1.5 L 14 1.5 C 14.276042 1.5 14.5 1.723958 14.5 2 L 14.5 14 C 14.5 14.276042 14.276042 14.5 14 14.5 L 2 14.5 C 1.723958 14.5 1.5 14.276042 1.5 14 L 1.5 2 C 1.5 1.723958 1.723958 1.5 2 1.5 Z M 2 1.5 " transform="matrix(1.5,0,0,1.5,0,0)"/>
<path style="fill-rule:nonzero;fill:rgb(90.196079%,0.784314%,70.588237%);fill-opacity:1;stroke-width:1;stroke-linecap:square;stroke-linejoin:round;stroke:rgb(90.196079%,0.784314%,70.588237%);stroke-opacity:1;stroke-miterlimit:4;" d="M 1.614583 1.5 L 14.385417 1.5 C 14.447917 1.5 14.5 1.552083 14.5 1.614583 L 14.5 4.385417 C 14.5 4.447917 14.447917 4.5 14.385417 4.5 L 1.614583 4.5 C 1.552083 4.5 1.5 4.447917 1.5 4.385417 L 1.5 1.614583 C 1.5 1.552083 1.552083 1.5 1.614583 1.5 Z M 1.614583 1.5 " transform="matrix(1.5,0,0,1.5,0,0)"/>
<path style="fill-rule:nonzero;fill:rgb(94.117647%,89.019608%,92.54902%);fill-opacity:1;stroke-width:1;stroke-linecap:square;stroke-linejoin:round;stroke:rgb(90.196079%,0.784314%,70.588237%);stroke-opacity:1;stroke-miterlimit:4;" d="M 1.614583 11.5 L 14.385417 11.5 C 14.447917 11.5 14.5 11.552083 14.5 11.614583 L 14.5 14.385417 C 14.5 14.447917 14.447917 14.5 14.385417 14.5 L 1.614583 14.5 C 1.552083 14.5 1.5 14.447917 1.5 14.385417 L 1.5 11.614583 C 1.5 11.552083 1.552083 11.5 1.614583 11.5 Z M 1.614583 11.5 " transform="matrix(1.5,0,0,1.5,0,0)"/>
<path style="fill:none;stroke-width:1;stroke-linecap:round;stroke-linejoin:round;stroke:rgb(90.196079%,0.784314%,70.588237%);stroke-opacity:1;stroke-miterlimit:4;" d="M 1.5 14.5 L 4.5 11.5 " transform="matrix(1.5,0,0,1.5,0,0)"/>
<path style="fill:none;stroke-width:1;stroke-linecap:round;stroke-linejoin:round;stroke:rgb(90.196079%,0.784314%,70.588237%);stroke-opacity:1;stroke-miterlimit:4;" d="M 4 14.5 L 7 11.5 " transform="matrix(1.5,0,0,1.5,0,0)"/>
<path style="fill:none;stroke-width:1;stroke-linecap:round;stroke-linejoin:round;stroke:rgb(90.196079%,0.784314%,70.588237%);stroke-opacity:1;stroke-miterlimit:4;" d="M 6.5 14.5 L 9.5 11.5 " transform="matrix(1.5,0,0,1.5,0,0)"/>
<path style="fill:none;stroke-width:1;stroke-linecap:round;stroke-linejoin:round;stroke:rgb(90.196079%,0.784314%,70.588237%);stroke-opacity:1;stroke-miterlimit:4;" d="M 9 14.5 L 12 11.5 " transform="matrix(1.5,0,0,1.5,0,0)"/>
<path style="fill:none;stroke-width:1;stroke-linecap:round;stroke-linejoin:round;stroke:rgb(90.196079%,0.784314%,70.588237%);stroke-opacity:1;stroke-miterlimit:4;" d="M 11.5 14.5 L 14.5 11.5 " transform="matrix(1.5,0,0,1.5,0,0)"/>
</g>
</svg>
