<?xml version="1.0" encoding="UTF-8"?>
<svg xmlns="http://www.w3.org/2000/svg" xmlns:xlink="http://www.w3.org/1999/xlink" width="24px" height="24px" viewBox="0 0 24 24" version="1.1">
<g id="surface1">
<path style=" stroke:none;fill-rule:nonzero;fill:rgb(33.333334%,34.117648%,32.549021%);fill-opacity:1;" d="M 3 7.5 L 3 19.5 L 8.25 19.5 C 10.351562 19.5 12 17.851562 12 15.75 C 12 14.484375 10.90625 12.398438 9.839844 12.355469 C 10.246094 11.851562 10.5 11.25 10.5 10.5 C 10.5 8.851562 9.148438 7.5 7.5 7.5 Z M 4.5 9 L 7.5 9 C 8.328125 9 9 9.671875 9 10.5 C 9 11.328125 8.328125 12 7.5 12 L 4.5 12 Z M 18 10.5 C 15.515625 10.5 13.5 12.515625 13.5 15 C 13.5 17.484375 15.515625 19.5 18 19.5 L 19.5 19.5 L 19.5 18 L 18 18 C 16.34375 18 15 16.65625 15 15 C 15 13.34375 16.34375 12 18 12 L 19.5 12 L 19.5 10.5 Z M 4.5 13.5 L 8.25 13.5 C 9.492188 13.5 10.5 14.507812 10.5 15.75 C 10.5 16.992188 9.492188 18 8.25 18 L 4.5 18 Z M 4.5 13.5 "/>
<path style=" stroke:none;fill-rule:nonzero;fill:rgb(33.333334%,34.117648%,32.549021%);fill-opacity:1;" d="M 17.34375 9 L 16.949219 8.550781 L 13.949219 5.550781 C 13.648438 5.296875 13.5 4.898438 13.5 4.5 L 13.5 3 L 15 3 C 15.398438 3 15.796875 3.140625 16.078125 3.421875 L 16.5 3.84375 L 16.5 1.5 L 19.5 1.5 L 19.5 3.84375 L 19.949219 3.898438 C 20.25 3.148438 20.601562 3 21 3 L 22.5 3 L 22.5 4.5 C 22.5 4.898438 22.359375 5.296875 22.078125 5.550781 L 19.078125 8.550781 L 18.65625 9 Z M 17.34375 9 "/>
</g>
</svg>
