<?xml version="1.0" encoding="UTF-8"?>
<svg xmlns="http://www.w3.org/2000/svg" xmlns:xlink="http://www.w3.org/1999/xlink" width="24px" height="24px" viewBox="0 0 24 24" version="1.1">
<g id="surface1">
<path style="fill-rule:nonzero;fill:rgb(94.117647%,89.019608%,92.54902%);fill-opacity:1;stroke-width:1;stroke-linecap:butt;stroke-linejoin:round;stroke:rgb(90.196079%,0.784314%,70.588237%);stroke-opacity:1;stroke-miterlimit:4;" d="M -17.5 15 L -7.5 15 C -6.5 15 -5.5 14 -5.5 13 L -5.5 7 C -5.5 6 -6.5 5 -7.5 5 L -17.5 5 C -18.5 5 -19.5 6 -19.5 7 L -19.5 13 C -19.5 14 -18.5 15 -17.5 15 Z M -17.5 15 " transform="matrix(1.5,0,0,1.5,30.75,-0.75)"/>
<path style="fill:none;stroke-width:1;stroke-linecap:round;stroke-linejoin:round;stroke:rgb(90.196079%,0.784314%,70.588237%);stroke-opacity:1;stroke-miterlimit:4;" d="M -18 6.5 L -12.5 11 L -7 6.5 " transform="matrix(1.5,0,0,1.5,30.75,-0.75)"/>
<path style="fill:none;stroke-width:1;stroke-linecap:round;stroke-linejoin:miter;stroke:rgb(90.196079%,0.784314%,70.588237%);stroke-opacity:1;stroke-miterlimit:4;" d="M -7 13.5 L -10.5 11 " transform="matrix(1.5,0,0,1.5,30.75,-0.75)"/>
<path style="fill:none;stroke-width:1;stroke-linecap:round;stroke-linejoin:miter;stroke:rgb(90.196079%,0.784314%,70.588237%);stroke-opacity:1;stroke-miterlimit:4;" d="M -18 13.5 L -14.5 11 " transform="matrix(1.5,0,0,1.5,30.75,-0.75)"/>
<path style="fill-rule:nonzero;fill:rgb(61.56863%,22.745098%,60.784316%);fill-opacity:1;stroke-width:1;stroke-linecap:round;stroke-linejoin:round;stroke:rgb(95.294118%,71.764708%,85.09804%);stroke-opacity:1;stroke-miterlimit:4;" d="M 1.570312 2.999999 L 8.929687 2.999999 C 9.244792 2.999999 9.5 3.255207 9.5 3.570312 L 9.5 10.429687 C 9.5 10.744791 9.244792 10.999999 8.929687 10.999999 L 1.570312 10.999999 C 1.255208 10.999999 1 10.744791 1 10.429687 L 1 3.570312 C 1 3.255207 1.255208 2.999999 1.570312 2.999999 Z M 1.570312 2.999999 " transform="matrix(1.5,0,0,1.5,0.000000089407,-2.999999)"/>
<path style="fill-rule:nonzero;fill:rgb(61.56863%,22.745098%,60.784316%);fill-opacity:1;stroke-width:0.5;stroke-linecap:round;stroke-linejoin:round;stroke:rgb(94.117647%,89.019608%,92.54902%);stroke-opacity:1;stroke-miterlimit:4;" d="M 7.4375 6.229166 C 7.570312 5.010416 2.463542 9.359374 3.921875 9.499999 C 5.380208 9.640624 3.546875 3.927082 2.846354 4.820312 C 2.148437 5.716145 7.302083 7.447916 7.4375 6.229166 Z M 7.4375 6.229166 " transform="matrix(1.5,0,0,1.5,0.000000089407,-2.999999)"/>
</g>
</svg>
