<?xml version="1.0" encoding="UTF-8"?>
<svg xmlns="http://www.w3.org/2000/svg" xmlns:xlink="http://www.w3.org/1999/xlink" width="24px" height="24px" viewBox="0 0 24 24" version="1.1">
<g id="surface1">
<path style=" stroke:none;fill-rule:evenodd;fill:rgb(90.196079%,0.784314%,70.588237%);fill-opacity:1;" d="M 12.351562 1.5 L 9 5.519531 L 9.664062 6.1875 L 11.679688 4.878906 L 11.679688 7.558594 C 11.679688 8.230469 13.019531 8.230469 13.019531 7.558594 L 13.019531 4.878906 L 15 6.1875 L 15.699219 5.519531 Z M 12.351562 1.5 "/>
<path style="fill-rule:nonzero;fill:rgb(94.117647%,89.019608%,92.54902%);fill-opacity:1;stroke-width:1;stroke-linecap:butt;stroke-linejoin:round;stroke:rgb(61.56863%,22.745098%,60.784316%);stroke-opacity:1;stroke-miterlimit:4;" d="M -14.856771 1.5 L -11.643229 1.5 C -11.320312 1.5 -11 2 -11 2.5 L -11 14.5 C -11 15 -11.320312 15.5 -11.643229 15.5 L -14.856771 15.5 C -15.179688 15.5 -15.5 15 -15.5 14.5 L -15.5 2.5 C -15.5 2 -15.179688 1.5 -14.856771 1.5 Z M -14.856771 1.5 " transform="matrix(0.000000000000000092,1.5,-1.5,0.000000000000000092,24.75,32.25)"/>
<path style="fill:none;stroke-width:1;stroke-linecap:butt;stroke-linejoin:miter;stroke:rgb(90.196079%,0.784314%,70.588237%);stroke-opacity:1;stroke-miterlimit:4;" d="M -15 5 L -11.5 5 " transform="matrix(0.000000000000000092,1.5,-1.5,0.000000000000000092,24.75,32.25)"/>
<path style="fill:none;stroke-width:1;stroke-linecap:butt;stroke-linejoin:miter;stroke:rgb(90.196079%,0.784314%,70.588237%);stroke-opacity:1;stroke-miterlimit:4;" d="M -15 8.5 L -11.5 8.5 " transform="matrix(0.000000000000000092,1.5,-1.5,0.000000000000000092,24.75,32.25)"/>
<path style="fill:none;stroke-width:1;stroke-linecap:butt;stroke-linejoin:miter;stroke:rgb(90.196079%,0.784314%,70.588237%);stroke-opacity:1;stroke-miterlimit:4;" d="M -15 12 L -11.5 12 " transform="matrix(0.000000000000000092,1.5,-1.5,0.000000000000000092,24.75,32.25)"/>
<path style=" stroke:none;fill-rule:evenodd;fill:rgb(90.196079%,0.784314%,70.588237%);fill-opacity:1;" d="M 12.351562 22.5 L 9 18.480469 L 9.664062 17.8125 L 11.679688 19.121094 L 11.679688 17.25 C 11.679688 16.578125 13.019531 16.578125 13.019531 17.25 L 13.019531 19.121094 L 15 17.8125 L 15.699219 18.480469 Z M 12.351562 22.5 "/>
</g>
</svg>
