<?xml version="1.0" encoding="UTF-8"?>
<svg xmlns="http://www.w3.org/2000/svg" xmlns:xlink="http://www.w3.org/1999/xlink" width="24px" height="24px" viewBox="0 0 24 24" version="1.1">
<g id="surface1">
<path style=" stroke:none;fill-rule:nonzero;fill:rgb(33.333334%,34.117648%,32.549021%);fill-opacity:1;" d="M 10.5 1.5 L 10.5 4.5 L 22.5 4.5 L 22.5 1.5 Z M 10.5 6 L 10.5 9 L 16.5 9 L 16.5 6 Z M 3 7.5 L 3 10.5 L 0 10.5 L 0 13.5 L 3 13.5 L 3 16.5 L 6 16.5 L 6 13.5 L 9 13.5 L 9 10.5 L 6 10.5 L 6 7.5 Z M 10.5 15 L 10.5 18 L 22.5 18 L 22.5 15 Z M 10.5 19.5 L 10.5 22.5 L 16.5 22.5 L 16.5 19.5 Z M 10.5 19.5 "/>
</g>
</svg>
