<?xml version="1.0" encoding="UTF-8"?>
<svg xmlns="http://www.w3.org/2000/svg" xmlns:xlink="http://www.w3.org/1999/xlink" width="24px" height="24px" viewBox="0 0 24 24" version="1.1">
<g id="surface1">
<path style=" stroke:none;fill-rule:nonzero;fill:rgb(61.56863%,22.745098%,60.784316%);fill-opacity:1;" d="M 11.667969 1.277344 C 12.636719 1.277344 13.644531 1.449219 14.695312 1.792969 C 15.746094 2.117188 16.339844 2.277344 16.484375 2.277344 C 16.746094 2.277344 16.945312 2.207031 17.089844 2.066406 C 17.230469 1.902344 17.351562 1.632812 17.453125 1.246094 L 18.359375 1.246094 L 18.359375 7.820312 L 17.511719 7.820312 C 16.925781 5.902344 16.109375 4.488281 15.058594 3.578125 C 14.03125 2.671875 12.898438 2.214844 11.667969 2.214844 C 10.636719 2.214844 9.820312 2.488281 9.214844 3.035156 C 8.628906 3.578125 8.335938 4.316406 8.335938 5.246094 C 8.335938 5.972656 8.546875 6.578125 8.972656 7.0625 C 9.414062 7.527344 10.242188 8.0625 11.453125 8.667969 L 15.90625 10.878906 C 16.875 11.363281 17.675781 12.121094 18.300781 13.152344 C 18.925781 14.179688 19.238281 15.261719 19.238281 16.390625 C 19.238281 18.289062 18.542969 19.835938 17.148438 21.027344 C 15.777344 22.195312 13.96875 22.78125 11.726562 22.78125 C 10.636719 22.78125 9.546875 22.609375 8.457031 22.269531 C 7.386719 21.925781 6.75 21.753906 6.546875 21.753906 C 6.105469 21.753906 5.800781 22.097656 5.640625 22.78125 L 4.761719 22.78125 L 4.761719 15.300781 L 5.640625 15.300781 C 6.6875 19.621094 8.75 21.785156 11.816406 21.785156 C 12.988281 21.785156 13.917969 21.46875 14.605469 20.84375 C 15.292969 20.21875 15.632812 19.378906 15.632812 18.332031 C 15.632812 17.542969 15.402344 16.898438 14.9375 16.390625 C 14.472656 15.886719 13.574219 15.320312 12.242188 14.695312 L 10.214844 13.726562 C 8.414062 12.859375 7.101562 11.929688 6.277344 10.941406 C 5.449219 9.929688 5.035156 8.757812 5.035156 7.425781 C 5.035156 5.507812 5.621094 4.003906 6.789062 2.914062 C 7.980469 1.824219 9.605469 1.277344 11.667969 1.277344 Z M 11.667969 1.277344 "/>
</g>
</svg>
