<?xml version="1.0" encoding="UTF-8"?>
<svg xmlns="http://www.w3.org/2000/svg" xmlns:xlink="http://www.w3.org/1999/xlink" width="24px" height="24px" viewBox="0 0 24 24" version="1.1">
<g id="surface1">
<path style=" stroke:none;fill-rule:nonzero;fill:rgb(33.333334%,34.117648%,32.549021%);fill-opacity:1;" d="M 7.5 1.5 L 7.5 4.5 L 1.5 4.5 L 1.5 19.5 L 7.5 19.5 L 7.5 22.5 L 22.5 22.5 L 22.5 1.5 Z M 10.5 4.5 L 19.5 4.5 L 19.5 19.5 L 10.5 19.5 L 10.5 15 L 7.5 15 L 7.5 16.5 L 4.5 16.5 L 4.5 7.5 L 7.5 7.5 L 7.5 9 L 10.5 9 Z M 12 7.5 L 12 9 C 12 9.386719 12.195312 9.792969 12.46875 10.078125 L 13.027344 10.5 L 9 10.5 L 9 13.5 L 13.027344 13.5 L 12.46875 13.921875 C 12.195312 14.207031 12 14.613281 12 15 L 12 16.5 L 13.5 16.5 C 13.964844 16.5 14.328125 16.363281 14.625 16.078125 L 18 13.253906 L 18 10.746094 L 14.625 7.921875 C 14.328125 7.636719 13.964844 7.5 13.5 7.5 Z M 12 7.5 "/>
</g>
</svg>
