<?xml version="1.0" encoding="UTF-8"?>
<svg xmlns="http://www.w3.org/2000/svg" xmlns:xlink="http://www.w3.org/1999/xlink" width="24px" height="24px" viewBox="0 0 24 24" version="1.1">
<g id="surface1">
<path style="fill-rule:nonzero;fill:rgb(61.56863%,22.745098%,60.784316%);fill-opacity:1;stroke-width:1;stroke-linecap:round;stroke-linejoin:round;stroke:rgb(90.196079%,0.784314%,70.588237%);stroke-opacity:1;stroke-miterlimit:4;" d="M 15 8 C 15 11.867188 11.867188 15 8 15 C 4.132812 15 1 11.867188 1 8 C 1 4.132812 4.132812 1 8 1 C 11.867188 1 15 4.132812 15 8 Z M 15 8 " transform="matrix(1.5,0,0,1.5,0,0)"/>
<path style="fill:none;stroke-width:1;stroke-linecap:round;stroke-linejoin:round;stroke:rgb(94.117647%,89.019608%,92.54902%);stroke-opacity:1;stroke-miterlimit:4;" d="M 4.5 6.5 L 10.5 10.5 L 7.5 12.5 L 7.5 3.5 L 10.5 6.5 L 4.5 10.5 " transform="matrix(1.5,0,0,1.5,0,0)"/>
<path style="fill:none;stroke-width:1;stroke-linecap:round;stroke-linejoin:round;stroke:rgb(94.117647%,89.019608%,92.54902%);stroke-opacity:1;stroke-miterlimit:4;" d="M 14 8 C 14 11.3125 11.3125 14 8 14 C 4.6875 14 2 11.3125 2 8 C 2 4.6875 4.6875 2 8 2 C 11.3125 2 14 4.6875 14 8 Z M 14 8 " transform="matrix(1.5,0,0,1.5,0,0)"/>
</g>
</svg>
