<?xml version="1.0" encoding="UTF-8"?>
<svg xmlns="http://www.w3.org/2000/svg" xmlns:xlink="http://www.w3.org/1999/xlink" width="24px" height="24px" viewBox="0 0 24 24" version="1.1">
<g id="surface1">
<path style="fill-rule:evenodd;fill:rgb(95.294118%,71.764708%,85.09804%);fill-opacity:1;stroke-width:1;stroke-linecap:butt;stroke-linejoin:miter;stroke:rgb(90.196079%,0.784314%,70.588237%);stroke-opacity:1;stroke-miterlimit:4;" d="M -19.03155 -10.842076 L -15.073217 -10.842076 C -14.96905 -10.842076 -14.885717 -10.761347 -14.885717 -10.662389 L -14.885717 -7.555618 C -14.885717 -7.45666 -14.96905 -7.373326 -15.073217 -7.373326 L -19.03155 -7.373326 C -19.135717 -7.373326 -19.21905 -7.45666 -19.21905 -7.555618 L -19.21905 -10.662389 C -19.21905 -10.761347 -19.135717 -10.842076 -19.03155 -10.842076 Z M -19.03155 -10.842076 " transform="matrix(1.5,-0.000000000000000092,-0.000000000000000092,-1.5,35.578576,3.236886)"/>
<path style="fill-rule:evenodd;fill:rgb(95.294118%,71.764708%,85.09804%);fill-opacity:1;stroke-width:1;stroke-linecap:butt;stroke-linejoin:miter;stroke:rgb(90.196079%,0.784314%,70.588237%);stroke-opacity:1;stroke-miterlimit:4;" d="M -19.036759 -3.909785 L -12.476863 -3.909785 C -12.372696 -3.909785 -12.289363 -3.829055 -12.289363 -3.730097 L -12.289363 -0.623326 C -12.289363 -0.524368 -12.372696 -0.441035 -12.476863 -0.441035 L -19.036759 -0.441035 C -19.140925 -0.441035 -19.224259 -0.524368 -19.224259 -0.623326 L -19.224259 -3.730097 C -19.224259 -3.829055 -19.140925 -3.909785 -19.036759 -3.909785 Z M -19.036759 -3.909785 " transform="matrix(1.5,-0.000000000000000092,-0.000000000000000092,-1.5,35.578576,3.236886)"/>
<path style="fill:none;stroke-width:1;stroke-linecap:round;stroke-linejoin:round;stroke:rgb(61.56863%,22.745098%,60.784316%);stroke-opacity:1;stroke-miterlimit:4;" d="M 8.93235 1.494279 L 9.000059 4.999488 " transform="matrix(0.000000000000000092,1.5,-1.5,0.000000000000000092,23.991419,-1.398526)"/>
<path style="fill:none;stroke-width:1;stroke-linecap:round;stroke-linejoin:round;stroke:rgb(61.56863%,22.745098%,60.784316%);stroke-opacity:1;stroke-miterlimit:4;" d="M 7.43235 2.994279 L 9.000059 4.999488 L 10.43235 2.994279 " transform="matrix(0.000000000000000092,1.5,-1.5,0.000000000000000092,23.991419,-1.398526)"/>
<path style="fill:none;stroke-width:1;stroke-linecap:round;stroke-linejoin:miter;stroke:rgb(61.56863%,22.745098%,60.784316%);stroke-opacity:1;stroke-miterlimit:4;" d="M -0.590215 22.224259 L 12.409785 22.224259 " transform="matrix(0.000000000000000092,1.5,-1.5,0.000000000000000092,35.578576,3.236886)"/>
</g>
</svg>
