<?xml version="1.0" encoding="UTF-8"?>
<svg xmlns="http://www.w3.org/2000/svg" xmlns:xlink="http://www.w3.org/1999/xlink" width="24px" height="24px" viewBox="0 0 24 24" version="1.1">
<g id="surface1">
<path style="fill:none;stroke-width:1;stroke-linecap:square;stroke-linejoin:round;stroke:rgb(90.196079%,0.784314%,70.588237%);stroke-opacity:1;stroke-miterlimit:4;" d="M 14.5 8 C 14.5 11.591146 11.591146 14.5 8 14.5 C 4.408854 14.5 1.5 11.591146 1.5 8 C 1.5 4.408854 4.408854 1.5 8 1.5 C 11.591146 1.5 14.5 4.408854 14.5 8 Z M 14.5 8 " transform="matrix(1.5,0,0,1.5,0,0)"/>
<path style="fill:none;stroke-width:1;stroke-linecap:square;stroke-linejoin:round;stroke:rgb(90.196079%,0.784314%,70.588237%);stroke-opacity:1;stroke-miterlimit:4;" d="M 14.5 8 C 14.5 11.591146 11.591146 14.5 8 14.5 C 4.408854 14.5 1.5 11.591146 1.5 8 C 1.5 4.408854 4.408854 1.5 8 1.5 C 11.591146 1.5 14.5 4.408854 14.5 8 Z M 14.5 8 " transform="matrix(1.5,0,0,1.5,0,0)"/>
<path style="fill:none;stroke-width:1;stroke-linecap:square;stroke-linejoin:round;stroke:rgb(90.196079%,0.784314%,70.588237%);stroke-opacity:1;stroke-miterlimit:4;" d="M 13.293551 -2.123604 C 13.294204 -1.019868 12.399878 -0.124962 11.293955 -0.122895 C 10.188804 -0.124428 9.293899 -1.018754 9.295433 -2.123905 C 9.29478 -3.227642 10.191292 -4.123961 11.295029 -4.124614 C 12.398765 -4.125267 13.295085 -3.228755 13.293551 -2.123604 Z M 13.293551 -2.123604 " transform="matrix(1.259443,0.814742,-0.814742,1.259443,0,0)"/>
<path style="fill:none;stroke-width:1;stroke-linecap:square;stroke-linejoin:round;stroke:rgb(90.196079%,0.784314%,70.588237%);stroke-opacity:1;stroke-miterlimit:4;" d="M 14.79479 -0.622814 C 14.79484 1.309432 13.227422 2.875484 11.295176 2.875533 C 9.36293 2.875583 7.794692 1.30958 7.794643 -0.622666 C 7.793179 -2.557099 9.362783 -4.124565 11.295029 -4.124614 C 13.227275 -4.124664 14.793326 -2.557246 14.79479 -0.622814 Z M 14.79479 -0.622814 " transform="matrix(1.259443,0.814742,-0.814742,1.259443,0,0)"/>
<path style="fill:none;stroke-width:1;stroke-linecap:square;stroke-linejoin:round;stroke:rgb(90.196079%,0.784314%,70.588237%);stroke-opacity:1;stroke-miterlimit:4;" d="M 16.294615 0.87579 C 16.294061 3.636546 14.054966 5.87593 11.294211 5.875376 C 8.533455 5.874822 6.295485 3.637914 6.294624 0.874972 C 6.295178 -1.885784 8.532086 -4.123754 11.295029 -4.124614 C 14.055784 -4.12406 16.295169 -1.884966 16.294615 0.87579 Z M 16.294615 0.87579 " transform="matrix(1.259443,0.814742,-0.814742,1.259443,0,0)"/>
</g>
</svg>
