<?xml version="1.0" encoding="UTF-8"?>
<svg xmlns="http://www.w3.org/2000/svg" xmlns:xlink="http://www.w3.org/1999/xlink" width="24px" height="24px" viewBox="0 0 24 24" version="1.1">
<g id="surface1">
<path style="fill-rule:nonzero;fill:rgb(94.117647%,89.019608%,92.54902%);fill-opacity:1;stroke-width:1.303355;stroke-linecap:round;stroke-linejoin:round;stroke:rgb(90.196079%,0.784314%,70.588237%);stroke-opacity:1;stroke-miterlimit:4;" d="M -17.001323 0.500242 L -6.998003 0.500242 C -5.999591 0.500242 -5.500385 0.999448 -5.497985 2.00026 L -5.500385 12.00118 C -5.500385 12.999592 -5.999591 13.498798 -7.000403 13.501198 L -16.998923 13.501198 C -17.999735 13.498798 -18.498941 12.999592 -18.498941 12.00118 L -18.501341 2.00026 C -18.498941 0.999448 -17.999735 0.500242 -17.001323 0.500242 Z M -17.001323 0.500242 " transform="matrix(0.813792,-0.813792,0.813792,0.813792,16.053453,-3.508264)"/>
<path style="fill-rule:nonzero;fill:rgb(94.117647%,89.019608%,92.54902%);fill-opacity:1;stroke-width:1.303355;stroke-linecap:round;stroke-linejoin:round;stroke:rgb(90.196079%,0.784314%,70.588237%);stroke-opacity:1;stroke-miterlimit:4;" d="M -14.692495 3.500278 L -9.30683 3.500278 C -8.769224 3.500278 -8.500421 3.769081 -8.500421 4.306687 L -8.500421 9.692352 C -8.500421 10.229958 -8.769224 10.498762 -9.30683 10.498762 L -14.692495 10.498762 C -15.230101 10.498762 -15.498905 10.229958 -15.498905 9.692352 L -15.498905 4.306687 C -15.498905 3.769081 -15.230101 3.500278 -14.692495 3.500278 Z M -14.692495 3.500278 " transform="matrix(0.813792,-0.813792,0.813792,0.813792,16.053453,-3.508264)"/>
<path style="fill:none;stroke-width:1.303355;stroke-linecap:butt;stroke-linejoin:miter;stroke:rgb(90.196079%,0.784314%,70.588237%);stroke-opacity:1;stroke-miterlimit:4;" d="M -17.999735 0.999448 L -15.498905 3.500278 " transform="matrix(0.813792,-0.813792,0.813792,0.813792,16.053453,-3.508264)"/>
<path style="fill:none;stroke-width:1.303355;stroke-linecap:butt;stroke-linejoin:miter;stroke:rgb(90.196079%,0.784314%,70.588237%);stroke-opacity:1;stroke-miterlimit:4;" d="M -8.500421 3.500278 L -5.999591 0.999448 " transform="matrix(0.813792,-0.813792,0.813792,0.813792,16.053453,-3.508264)"/>
<path style="fill:none;stroke-width:1.303355;stroke-linecap:butt;stroke-linejoin:miter;stroke:rgb(90.196079%,0.784314%,70.588237%);stroke-opacity:1;stroke-miterlimit:4;" d="M -8.500421 10.498762 L -5.999591 12.999592 " transform="matrix(0.813792,-0.813792,0.813792,0.813792,16.053453,-3.508264)"/>
<path style="fill:none;stroke-width:1.303355;stroke-linecap:butt;stroke-linejoin:miter;stroke:rgb(90.196079%,0.784314%,70.588237%);stroke-opacity:1;stroke-miterlimit:4;" d="M -15.498905 10.498762 L -17.999735 12.999592 " transform="matrix(0.813792,-0.813792,0.813792,0.813792,16.053453,-3.508264)"/>
</g>
</svg>
