<?xml version="1.0" encoding="UTF-8"?>
<svg xmlns="http://www.w3.org/2000/svg" xmlns:xlink="http://www.w3.org/1999/xlink" width="24px" height="24px" viewBox="0 0 24 24" version="1.1">
<g id="surface1">
<path style=" stroke:none;fill-rule:nonzero;fill:rgb(33.333334%,34.117648%,32.549021%);fill-opacity:1;" d="M 7.5 1.5 L 7.5 4.5 L 10.5 4.5 C 11.328125 4.5 12 5.171875 12 6 L 12 9 C 12 10.507812 12.757812 11.917969 14.019531 12.75 C 12.757812 13.582031 12 14.992188 12 16.5 L 12 19.5 C 12 20.328125 11.328125 21 10.5 21 L 7.5 21 L 7.5 24 L 10.5 24 C 12.984375 24 15 21.984375 15 19.5 L 15 16.5 C 15 15.671875 15.671875 15 16.5 15 L 18 15 L 18 10.5 L 16.5 10.5 C 15.671875 10.5 15 9.828125 15 9 L 15 6 C 15 3.515625 12.984375 1.5 10.5 1.5 Z M 7.5 1.5 "/>
</g>
</svg>
