<?xml version="1.0" encoding="UTF-8"?>
<svg xmlns="http://www.w3.org/2000/svg" xmlns:xlink="http://www.w3.org/1999/xlink" width="24px" height="24px" viewBox="0 0 24 24" version="1.1">
<g id="surface1">
<path style="fill-rule:nonzero;fill:rgb(90.196079%,0.784314%,70.588237%);fill-opacity:1;stroke-width:0.0838989;stroke-linecap:round;stroke-linejoin:round;stroke:rgb(90.196079%,0.784314%,70.588237%);stroke-opacity:1;stroke-miterlimit:4;" d="M 8.850208 4.061403 C 8.850063 5.285001 7.857469 6.277723 6.633871 6.277578 C 5.410272 6.277433 4.419864 5.286887 4.417828 4.063421 C 4.417973 2.839823 5.410567 1.847101 6.634165 1.847246 C 7.857763 1.847391 8.850485 2.839985 8.850208 4.061403 Z M 8.850208 4.061403 " transform="matrix(1.78458,0.108331,-0.108331,1.78458,-1.553147,4.980847)"/>
<path style=" stroke:none;fill-rule:nonzero;fill:rgb(61.56863%,22.745098%,60.784316%);fill-opacity:1;" d="M 10.695312 7.125 C 6.726562 6.792969 3.132812 8.8125 1.5 12.582031 C 6.339844 6.605469 13.753906 9.140625 19.28125 13.457031 C 19.289062 13.464844 19.296875 13.464844 19.304688 13.46875 C 10.960938 19.285156 5.597656 17.496094 1.5 12.582031 C 6.492188 21.964844 14.539062 17.496094 17.476562 15.097656 C 18.730469 15.492188 18.707031 15.554688 19.4375 16.078125 C 19.246094 15.320312 18.546875 14.972656 18.113281 14.8125 C 18.960938 14.851562 19.492188 14.867188 20.128906 15.503906 C 19.738281 14.585938 19.175781 14.53125 18.617188 14.515625 C 19.351562 14.132812 19.328125 13.988281 19.355469 13.5 C 20.257812 14.132812 22.269531 13.675781 22.566406 12.511719 C 21.601562 13.824219 19.546875 13.285156 19.492188 12.796875 C 19.433594 12.71875 20.835938 12.375 21.410156 11.808594 C 19.890625 12.347656 18.695312 11.796875 18.695312 11.796875 C 18.570312 11.648438 20.386719 11.683594 21.121094 10.457031 C 19.445312 11.683594 17.632812 10.527344 17.507812 10.394531 C 17.34375 10.21875 20.5 10.59375 21 8.832031 C 19.421875 10.039062 16.472656 9.347656 16.195312 9.09375 C 14.382812 7.914062 12.5 7.277344 10.695312 7.125 Z M 10.695312 7.125 "/>
<path style="fill-rule:nonzero;fill:rgb(61.56863%,22.745098%,60.784316%);fill-opacity:1;stroke-width:0.0838989;stroke-linecap:round;stroke-linejoin:round;stroke:rgb(90.196079%,0.784314%,70.588237%);stroke-opacity:1;stroke-miterlimit:4;" d="M 8.273933 4.087629 C 8.27422 4.993812 7.53967 5.730092 6.633354 5.728198 C 5.727171 5.728484 4.993073 4.993802 4.992786 4.087619 C 4.994812 3.183484 5.727181 2.447337 6.633497 2.449232 C 7.53968 2.448945 8.273779 3.183627 8.273933 4.087629 Z M 8.273933 4.087629 " transform="matrix(1.78458,0.108331,-0.108331,1.78458,-1.553147,4.980847)"/>
<path style="fill-rule:nonzero;fill:rgb(95.294118%,71.764708%,85.09804%);fill-opacity:1;stroke-width:0.0838989;stroke-linecap:round;stroke-linejoin:round;stroke:rgb(95.294118%,71.764708%,85.09804%);stroke-opacity:1;stroke-miterlimit:4;" d="M 6.960445 3.291807 C 6.960501 3.869671 6.492057 4.338074 5.916374 4.337998 C 5.338511 4.338055 4.870107 3.869611 4.870051 3.291747 C 4.869995 2.713883 5.338439 2.24548 5.916302 2.245424 C 6.491985 2.2455 6.960388 2.713944 6.960445 3.291807 Z M 6.960445 3.291807 " transform="matrix(1.78458,0.108331,-0.108331,1.78458,-1.553147,4.980847)"/>
</g>
</svg>
