<?xml version="1.0" encoding="UTF-8"?>
<svg xmlns="http://www.w3.org/2000/svg" xmlns:xlink="http://www.w3.org/1999/xlink" width="24px" height="24px" viewBox="0 0 24 24" version="1.1">
<g id="surface1">
<path style=" stroke:none;fill-rule:nonzero;fill:rgb(33.333334%,34.117648%,32.549021%);fill-opacity:1;" d="M 18 0 L 18 3.84375 L 17.578125 3.421875 C 17.296875 3.140625 16.898438 3 16.5 3 L 15 3 L 15 4.5 C 15 4.898438 15.140625 5.296875 15.421875 5.578125 L 18.84375 9 L 20.15625 9 L 23.578125 5.578125 C 23.859375 5.296875 24 4.898438 24 4.5 L 24 3 L 22.5 3 C 22.101562 3 21.703125 3.140625 21.421875 3.421875 L 21 3.84375 L 21 0 Z M 3 4.5 L 3 7.5 L 10.5 7.5 C 11.328125 7.5 12 8.171875 12 9 L 12 10.5 L 4.5 10.5 C 2.015625 10.5 0 12.515625 0 15 C 0 17.484375 2.015625 19.5 4.5 19.5 L 15 19.5 L 15 9 C 15 6.515625 12.984375 4.5 10.5 4.5 Z M 4.5 13.5 L 12 13.5 L 12 16.5 L 4.5 16.5 C 3.671875 16.5 3 15.828125 3 15 C 3 14.171875 3.671875 13.5 4.5 13.5 Z M 4.5 13.5 "/>
</g>
</svg>
