<?xml version="1.0" encoding="UTF-8"?>
<svg xmlns="http://www.w3.org/2000/svg" xmlns:xlink="http://www.w3.org/1999/xlink" width="24px" height="24px" viewBox="0 0 24 24" version="1.1">
<defs>
<clipPath id="clip1">
  <path d="M 9 9 L 23 9 L 23 23 L 9 23 Z M 9 9 "/>
</clipPath>
<clipPath id="clip2">
  <path d="M 11.929688 8.796875 L 8.6875 12 L 8.6875 22.664062 L 23.28125 22.664062 L 23.28125 8.796875 Z M 11.929688 8.796875 "/>
</clipPath>
<clipPath id="clip3">
  <path d="M 14 9 L 19 9 L 19 13 L 14 13 Z M 14 9 "/>
</clipPath>
<clipPath id="clip4">
  <path d="M 10.601562 9.792969 L 20.96875 9.792969 C 22.03125 9.792969 22.890625 10.699219 22.890625 11.820312 L 22.890625 19.414062 C 22.890625 20.535156 22.03125 21.441406 20.96875 21.441406 L 10.601562 21.441406 C 9.542969 21.441406 8.683594 20.535156 8.683594 19.414062 L 8.683594 11.820312 C 8.683594 10.699219 9.542969 9.792969 10.601562 9.792969 Z M 10.601562 9.792969 "/>
</clipPath>
<clipPath id="clip5">
  <path d="M 13 9 L 19 9 L 19 13 L 13 13 Z M 13 9 "/>
</clipPath>
<clipPath id="clip6">
  <path d="M 10.601562 9.792969 L 20.96875 9.792969 C 22.03125 9.792969 22.890625 10.699219 22.890625 11.820312 L 22.890625 19.414062 C 22.890625 20.535156 22.03125 21.441406 20.96875 21.441406 L 10.601562 21.441406 C 9.542969 21.441406 8.683594 20.535156 8.683594 19.414062 L 8.683594 11.820312 C 8.683594 10.699219 9.542969 9.792969 10.601562 9.792969 Z M 10.601562 9.792969 "/>
</clipPath>
<clipPath id="clip7">
  <path d="M 11 15 L 20 15 L 20 22 L 11 22 Z M 11 15 "/>
</clipPath>
<clipPath id="clip8">
  <path d="M 9.714844 9.605469 L 21.144531 9.605469 C 22.316406 9.605469 23.265625 10.542969 23.265625 11.699219 L 23.265625 19.550781 C 23.265625 20.707031 22.316406 21.644531 21.144531 21.644531 L 9.714844 21.644531 C 8.542969 21.644531 7.597656 20.707031 7.597656 19.550781 L 7.597656 11.699219 C 7.597656 10.542969 8.542969 9.605469 9.714844 9.605469 Z M 9.714844 9.605469 "/>
</clipPath>
<clipPath id="clip9">
  <path d="M 11 15 L 21 15 L 21 22 L 11 22 Z M 11 15 "/>
</clipPath>
<clipPath id="clip10">
  <path d="M 9.714844 9.605469 L 21.144531 9.605469 C 22.316406 9.605469 23.265625 10.542969 23.265625 11.699219 L 23.265625 19.550781 C 23.265625 20.707031 22.316406 21.644531 21.144531 21.644531 L 9.714844 21.644531 C 8.542969 21.644531 7.597656 20.707031 7.597656 19.550781 L 7.597656 11.699219 C 7.597656 10.542969 8.542969 9.605469 9.714844 9.605469 Z M 9.714844 9.605469 "/>
</clipPath>
</defs>
<g id="surface1">
<path style="fill-rule:evenodd;fill:rgb(94.117647%,89.019608%,92.54902%);fill-opacity:1;stroke-width:1;stroke-linecap:round;stroke-linejoin:round;stroke:rgb(90.196079%,0.784314%,70.588237%);stroke-opacity:1;stroke-miterlimit:4;" d="M 3 1.552083 L 13 1.552083 C 13.552083 1.552083 14 2 14 2.552083 L 14 13.447917 C 14 14 13.552083 14.447917 13 14.447917 L 3 14.447917 C 2.447917 14.447917 2 14 2 13.447917 L 2 2.552083 C 2 2 2.447917 1.552083 3 1.552083 Z M 3 1.552083 " transform="matrix(1.5,0,0,1.5,0,0)"/>
<path style="fill:none;stroke-width:0.5;stroke-linecap:butt;stroke-linejoin:miter;stroke:rgb(61.56863%,22.745098%,60.784316%);stroke-opacity:1;stroke-miterlimit:4;" d="M 7.955729 6.169271 L 8.044271 13.078125 " transform="matrix(1.5,0,0,1.5,0,0)"/>
<path style="fill-rule:nonzero;fill:rgb(90.196079%,0.784314%,70.588237%);fill-opacity:1;stroke-width:1.830177;stroke-linecap:butt;stroke-linejoin:miter;stroke:rgb(90.196079%,0.784314%,70.588237%);stroke-opacity:1;stroke-miterlimit:4;" d="M -1.067035 15.476422 C -2.792716 16.167362 -3.245588 14.089779 -3.245588 14.089779 C -3.245588 14.089779 -4.165634 16.34367 -5.681563 15.014208 C -7.197493 13.679981 -4.971269 12.612599 -4.971269 12.612599 C -4.971269 12.612599 -7.535955 12.412465 -6.644512 10.69703 C -5.753069 8.97683 -4.027388 10.596963 -4.027388 10.596963 C -4.027388 10.596963 -4.732915 8.26683 -2.630636 8.49079 C -0.523589 8.709984 -1.720125 10.825688 -1.720125 10.825688 C -1.720125 10.825688 0.458428 9.70589 0.815959 11.440385 C 1.178256 13.179646 -1.23865 12.984277 -1.23865 12.984277 C -1.23865 12.984277 0.653878 14.780718 -1.067035 15.476422 Z M -1.067035 15.476422 " transform="matrix(0.819423,0,0,0.819763,14.448572,-2.108872)"/>
<path style="fill-rule:nonzero;fill:rgb(95.294118%,71.764708%,85.09804%);fill-opacity:1;stroke-width:1.830177;stroke-linecap:butt;stroke-linejoin:miter;stroke:rgb(95.294118%,71.764708%,85.09804%);stroke-opacity:1;stroke-miterlimit:4;" d="M -1.915575 13.965887 C -2.878524 14.356625 -3.135946 13.189176 -3.135946 13.189176 C -3.135946 13.189176 -3.646022 14.451927 -4.494562 13.708571 C -5.347868 12.960451 -4.098895 12.364814 -4.098895 12.364814 C -4.098895 12.364814 -5.533784 12.250452 -5.038008 11.287902 C -4.537465 10.325352 -3.569749 11.235486 -3.569749 11.235486 C -3.569749 11.235486 -3.965416 9.929849 -2.787949 10.053742 C -1.610482 10.177634 -2.277872 11.364144 -2.277872 11.364144 C -2.277872 11.364144 -1.057501 10.735151 -0.857284 11.707231 C -0.657067 12.67931 -2.010916 12.574478 -2.010916 12.574478 C -2.010916 12.574478 -0.947859 13.575149 -1.915575 13.965887 Z M -1.915575 13.965887 " transform="matrix(0.819423,0,0,0.819763,14.448572,-2.108872)"/>
<path style=" stroke:none;fill-rule:nonzero;fill:rgb(61.56863%,22.745098%,60.784316%);fill-opacity:1;" d="M 12.972656 7.765625 C 12.972656 8.300781 12.535156 8.738281 12 8.738281 C 11.460938 8.738281 11.027344 8.300781 11.027344 7.765625 C 11.027344 7.226562 11.460938 6.792969 12 6.792969 C 12.535156 6.792969 12.972656 7.226562 12.972656 7.765625 Z M 12.972656 7.765625 "/>
<path style="fill-rule:nonzero;fill:rgb(95.294118%,71.764708%,85.09804%);fill-opacity:1;stroke-width:1;stroke-linecap:butt;stroke-linejoin:round;stroke:rgb(61.56863%,22.745098%,60.784316%);stroke-opacity:1;stroke-miterlimit:4;" d="M 6.476562 11.085938 L 9.648438 11.023438 L 10.518229 11.023438 L 9.523438 13.013021 L 6.476562 13.013021 L 5.481771 11.085938 Z M 6.476562 11.085938 " transform="matrix(1.5,0,0,1.5,0,0)"/>
<g clip-path="url(#clip1)" clip-rule="nonzero">
<g clip-path="url(#clip2)" clip-rule="nonzero">
<path style="fill-rule:evenodd;fill:rgb(95.294118%,71.764708%,85.09804%);fill-opacity:1;stroke-width:0.69846;stroke-linecap:round;stroke-linejoin:round;stroke:rgb(90.196079%,0.784314%,70.588237%);stroke-opacity:1;stroke-miterlimit:4;" d="M 3.714454 2.120829 L 12.310528 2.120829 C 13.177724 2.120829 13.878706 2.791061 13.878706 3.615118 L 13.878706 12.394067 C 13.878706 13.221786 13.177724 13.892019 12.310528 13.892019 L 3.714454 13.892019 C 2.847259 13.892019 2.142663 13.221786 2.142663 12.394067 L 2.142663 3.615118 C 2.142663 2.791061 2.847259 2.120829 3.714454 2.120829 Z M 3.714454 2.120829 " transform="matrix(1.081071,0,0,1.066561,7.066441,7.198945)"/>
</g>
</g>
<path style="fill:none;stroke-width:0.453104;stroke-linecap:butt;stroke-linejoin:bevel;stroke:rgb(90.196079%,0.784314%,70.588237%);stroke-opacity:1;stroke-miterlimit:4;" d="M 2.064984 15.785965 L 3.557744 14.231523 " transform="matrix(1.677367,0,0,1.633423,5.934702,-13.957033)"/>
<g clip-path="url(#clip3)" clip-rule="nonzero">
<g clip-path="url(#clip4)" clip-rule="nonzero">
<path style=" stroke:none;fill-rule:evenodd;fill:rgb(94.117647%,89.019608%,92.54902%);fill-opacity:1;" d="M 14.949219 8.503906 L 17.714844 8.503906 C 18.121094 8.503906 18.445312 8.757812 18.445312 9.070312 L 18.445312 11.628906 C 18.445312 11.945312 18.121094 12.199219 17.714844 12.199219 L 14.949219 12.199219 C 14.542969 12.199219 14.21875 11.945312 14.21875 11.628906 L 14.21875 9.070312 C 14.21875 8.757812 14.542969 8.503906 14.949219 8.503906 Z M 14.949219 8.503906 "/>
</g>
</g>
<g clip-path="url(#clip5)" clip-rule="nonzero">
<g clip-path="url(#clip6)" clip-rule="nonzero">
<path style="fill:none;stroke-width:0.714837;stroke-linecap:butt;stroke-linejoin:bevel;stroke:rgb(90.196079%,0.784314%,70.588237%);stroke-opacity:1;stroke-miterlimit:4;" d="M 7.025266 9.361963 L 9.732037 9.361963 C 10.129642 9.361963 10.446961 9.597634 10.446961 9.887691 L 10.446961 12.26253 C 10.446961 12.556212 10.129642 12.791883 9.732037 12.791883 L 7.025266 12.791883 C 6.627661 12.791883 6.310342 12.556212 6.310342 12.26253 L 6.310342 9.887691 C 6.310342 9.597634 6.627661 9.361963 7.025266 9.361963 Z M 7.025266 9.361963 " transform="matrix(1.021743,0,0,1.077376,7.771202,-1.582445)"/>
</g>
</g>
<g clip-path="url(#clip7)" clip-rule="nonzero">
<g clip-path="url(#clip8)" clip-rule="nonzero">
<path style=" stroke:none;fill-rule:evenodd;fill:rgb(94.117647%,89.019608%,92.54902%);fill-opacity:1;" d="M 12.804688 15.382812 L 18.691406 15.382812 C 19.234375 15.382812 19.675781 15.960938 19.675781 16.671875 L 19.675781 21.914062 C 19.675781 22.625 19.234375 23.203125 18.691406 23.203125 L 12.804688 23.203125 C 12.261719 23.203125 11.820312 22.625 11.820312 21.914062 L 11.820312 16.671875 C 11.820312 15.960938 12.261719 15.382812 12.804688 15.382812 Z M 12.804688 15.382812 "/>
</g>
</g>
<g clip-path="url(#clip9)" clip-rule="nonzero">
<g clip-path="url(#clip10)" clip-rule="nonzero">
<path style="fill:none;stroke-width:0.669417;stroke-linecap:butt;stroke-linejoin:bevel;stroke:rgb(90.196079%,0.784314%,70.588237%);stroke-opacity:1;stroke-miterlimit:4;" d="M 5.514057 15.747159 L 10.738035 15.747159 C 11.219875 15.747159 11.611586 16.266156 11.611586 16.904381 L 11.611586 21.610417 C 11.611586 22.248643 11.219875 22.767639 10.738035 22.767639 L 5.514057 22.767639 C 5.032217 22.767639 4.640506 22.248643 4.640506 21.610417 L 4.640506 16.904381 C 4.640506 16.266156 5.032217 15.747159 5.514057 15.747159 Z M 5.514057 15.747159 " transform="matrix(1.126865,0,0,1.113928,6.591087,-2.158397)"/>
</g>
</g>
<path style="fill-rule:nonzero;fill:rgb(61.56863%,22.745098%,60.784316%);fill-opacity:1;stroke-width:0.226552;stroke-linecap:round;stroke-linejoin:round;stroke:rgb(61.56863%,22.745098%,60.784316%);stroke-opacity:1;stroke-miterlimit:4;" d="M 4.195835 18.89246 C 4.212137 18.729841 4.333234 18.610268 4.486935 18.610268 C 4.587074 18.610268 4.680226 18.66288 4.733788 18.746581 C 4.785022 18.660489 4.875845 18.610268 4.975983 18.610268 C 5.127355 18.610268 5.250781 18.729841 5.264754 18.89246 C 5.267083 18.899634 5.271741 18.937897 5.257768 19.000075 C 5.23448 19.09095 5.183246 19.172259 5.108725 19.236829 L 4.733788 19.559674 L 4.354194 19.236829 C 4.279672 19.172259 4.22611 19.09095 4.205151 19.000075 C 4.188849 18.937897 4.193507 18.899634 4.195835 18.89246 Z M 4.24474 18.990509 C 4.265699 19.07421 4.312275 19.148345 4.382139 19.20574 L 4.733788 19.504671 L 5.080779 19.208131 C 5.148314 19.148345 5.197219 19.07421 5.215849 18.990509 C 5.232151 18.933114 5.225165 18.899634 5.225165 18.899634 L 5.225165 18.897243 C 5.211192 18.753756 5.106396 18.648532 4.975983 18.648532 C 4.878173 18.648532 4.794337 18.705927 4.752418 18.796802 L 4.733788 18.839848 L 4.715158 18.796802 C 4.675568 18.708318 4.584745 18.648532 4.486935 18.648532 C 4.354194 18.648532 4.249398 18.753756 4.235425 18.899634 C 4.235425 18.899634 4.230767 18.933114 4.24474 18.990509 Z M 4.24474 18.990509 " transform="matrix(1.677367,0,0,1.633423,5.934702,-13.957033)"/>
<path style="fill:none;stroke-width:0.453104;stroke-linecap:round;stroke-linejoin:miter;stroke:rgb(90.196079%,0.784314%,70.588237%);stroke-opacity:1;stroke-miterlimit:4;" d="M 4.242411 19.949481 L 7.474785 19.949481 " transform="matrix(1.677367,0,0,1.633423,5.934702,-13.957033)"/>
<path style="fill:none;stroke-width:0.453104;stroke-linecap:round;stroke-linejoin:miter;stroke:rgb(90.196079%,0.784314%,70.588237%);stroke-opacity:1;stroke-miterlimit:4;" d="M 4.230767 21.133249 L 7.463141 21.133249 " transform="matrix(1.677367,0,0,1.633423,5.934702,-13.957033)"/>
<path style="fill-rule:evenodd;fill:rgb(95.294118%,71.764708%,85.09804%);fill-opacity:1;stroke-width:0.453104;stroke-linecap:round;stroke-linejoin:bevel;stroke:rgb(90.196079%,0.784314%,70.588237%);stroke-opacity:1;stroke-miterlimit:4;" d="M 5.714212 14.88678 C 5.781748 14.88678 5.837639 14.972872 5.837639 15.080488 C 5.837639 15.188103 5.781748 15.276587 5.714212 15.276587 C 5.646677 15.276587 5.590786 15.188103 5.590786 15.080488 C 5.590786 14.972872 5.646677 14.88678 5.714212 14.88678 Z M 5.714212 14.88678 " transform="matrix(1.677367,0,0,1.633423,5.934702,-13.957033)"/>
</g>
</svg>
