<?xml version="1.0" encoding="UTF-8"?>
<svg xmlns="http://www.w3.org/2000/svg" xmlns:xlink="http://www.w3.org/1999/xlink" width="24px" height="24px" viewBox="0 0 24 24" version="1.1">
<g id="surface1">
<path style="fill-rule:nonzero;fill:rgb(94.117647%,89.019608%,92.54902%);fill-opacity:1;stroke-width:0.945312;stroke-linecap:round;stroke-linejoin:round;stroke:rgb(61.56863%,22.745098%,60.784316%);stroke-opacity:1;stroke-miterlimit:4;" d="M 7.766825 5.609375 L 3.803406 5.609375 C 2.545451 5.609375 1.531209 6.623617 1.531209 7.881571 L 1.531209 10.023295 C 1.531209 11.136007 1.99648 12.098551 3.05011 12.295492 C 3.187968 12.320109 2.62915 14.205811 2.747314 14.119649 L 5.199219 12.295492 L 7.766825 12.295492 C 9.027242 12.295492 10.041484 11.28125 10.041484 10.023295 L 10.041484 7.881571 C 10.041484 6.623617 9.027242 5.609375 7.766825 5.609375 Z M 7.766825 5.609375 " transform="matrix(1.586777,0,0,1.586777,0,0.0991736)"/>
<path style=" stroke:none;fill-rule:nonzero;fill:rgb(90.196079%,0.784314%,70.588237%);fill-opacity:1;" d="M 4.503906 13.5 C 4.371094 13.507812 4.238281 13.554688 4.109375 13.664062 C 3.875 13.859375 3.738281 14.285156 3.78125 14.578125 C 3.855469 15.0625 4.34375 15.511719 5.25 16.195312 C 6.15625 15.511719 6.644531 15.0625 6.71875 14.578125 C 6.761719 14.285156 6.625 13.859375 6.390625 13.664062 C 5.878906 13.230469 5.25 13.765625 5.25 14.058594 C 5.25 13.839844 4.898438 13.480469 4.503906 13.5 Z M 4.503906 13.5 "/>
<path style=" stroke:none;fill-rule:nonzero;fill:rgb(90.196079%,0.784314%,70.588237%);fill-opacity:1;" d="M 8.253906 13.5 C 8.121094 13.507812 7.988281 13.554688 7.859375 13.664062 C 7.625 13.859375 7.488281 14.285156 7.53125 14.578125 C 7.605469 15.0625 8.09375 15.511719 9 16.195312 C 9.90625 15.511719 10.394531 15.0625 10.46875 14.578125 C 10.511719 14.285156 10.375 13.859375 10.140625 13.664062 C 9.628906 13.230469 9 13.765625 9 14.058594 C 9 13.839844 8.648438 13.480469 8.253906 13.5 Z M 8.253906 13.5 "/>
<path style=" stroke:none;fill-rule:nonzero;fill:rgb(90.196079%,0.784314%,70.588237%);fill-opacity:1;" d="M 12.003906 13.5 C 11.871094 13.507812 11.738281 13.554688 11.609375 13.664062 C 11.375 13.859375 11.238281 14.285156 11.28125 14.578125 C 11.355469 15.0625 11.84375 15.511719 12.75 16.195312 C 13.65625 15.511719 14.144531 15.0625 14.21875 14.578125 C 14.261719 14.285156 14.125 13.859375 13.890625 13.664062 C 13.378906 13.230469 12.75 13.765625 12.75 14.058594 C 12.75 13.839844 12.398438 13.480469 12.003906 13.5 Z M 12.003906 13.5 "/>
<path style="fill-rule:nonzero;fill:rgb(95.294118%,71.764708%,85.09804%);fill-opacity:1;stroke-width:0.945312;stroke-linecap:round;stroke-linejoin:round;stroke:rgb(90.196079%,0.784314%,70.588237%);stroke-opacity:1;stroke-miterlimit:4;" d="M 7.358175 1.355469 L 11.321594 1.355469 C 12.579549 1.355469 13.593791 2.36971 13.593791 3.627665 L 13.593791 5.769389 C 13.593791 6.8821 13.12852 7.844645 12.07489 8.041585 C 11.937032 8.066203 12.49585 9.951904 12.377686 9.865743 L 9.925781 8.041585 L 7.358175 8.041585 C 6.097758 8.041585 5.083516 7.027344 5.083516 5.769389 L 5.083516 3.627665 C 5.083516 2.36971 6.097758 1.355469 7.358175 1.355469 Z M 7.358175 1.355469 " transform="matrix(1.586777,0,0,1.586777,0,0.0991736)"/>
<path style=" stroke:none;fill-rule:nonzero;fill:rgb(61.56863%,22.745098%,60.784316%);fill-opacity:1;" d="M 13.25 4.691406 C 12.941406 4.703125 12.621094 4.820312 12.320312 5.074219 C 11.769531 5.535156 11.449219 6.53125 11.554688 7.222656 C 11.722656 8.363281 12.871094 9.417969 15 11.015625 C 17.128906 9.417969 18.277344 8.363281 18.445312 7.222656 C 18.550781 6.53125 18.230469 5.535156 17.679688 5.074219 C 16.472656 4.058594 15 5.316406 15 6 C 15 5.488281 14.171875 4.648438 13.25 4.691406 Z M 13.25 4.691406 "/>
</g>
</svg>
