<?xml version="1.0" encoding="UTF-8"?>
<svg xmlns="http://www.w3.org/2000/svg" xmlns:xlink="http://www.w3.org/1999/xlink" width="24px" height="24px" viewBox="0 0 24 24" version="1.1">
<defs>
<clipPath id="clip1">
  <path d="M 9 9 L 23 9 L 23 22 L 9 22 Z M 9 9 "/>
</clipPath>
<clipPath id="clip2">
  <path d="M 11.980469 8.777344 L 8.738281 11.976562 L 8.738281 22.640625 L 23.332031 22.640625 L 23.332031 8.777344 Z M 11.980469 8.777344 "/>
</clipPath>
<clipPath id="clip3">
  <path d="M 9 9 L 23 9 L 23 23 L 9 23 Z M 9 9 "/>
</clipPath>
<clipPath id="clip4">
  <path d="M 11.980469 8.777344 L 8.738281 11.976562 L 8.738281 22.640625 L 23.332031 22.640625 L 23.332031 8.777344 Z M 11.980469 8.777344 "/>
</clipPath>
<clipPath id="clip5">
  <path d="M 14 9 L 19 9 L 19 13 L 14 13 Z M 14 9 "/>
</clipPath>
<clipPath id="clip6">
  <path d="M 10.65625 9.90625 L 21.019531 9.90625 C 22.082031 9.90625 22.941406 10.8125 22.941406 11.929688 L 22.941406 19.527344 C 22.941406 20.644531 22.082031 21.550781 21.019531 21.550781 L 10.65625 21.550781 C 9.59375 21.550781 8.734375 20.644531 8.734375 19.527344 L 8.734375 11.929688 C 8.734375 10.8125 9.59375 9.90625 10.65625 9.90625 Z M 10.65625 9.90625 "/>
</clipPath>
<clipPath id="clip7">
  <path d="M 13 9 L 19 9 L 19 13 L 13 13 Z M 13 9 "/>
</clipPath>
<clipPath id="clip8">
  <path d="M 10.65625 9.90625 L 21.019531 9.90625 C 22.082031 9.90625 22.941406 10.8125 22.941406 11.929688 L 22.941406 19.527344 C 22.941406 20.644531 22.082031 21.550781 21.019531 21.550781 L 10.65625 21.550781 C 9.59375 21.550781 8.734375 20.644531 8.734375 19.527344 L 8.734375 11.929688 C 8.734375 10.8125 9.59375 9.90625 10.65625 9.90625 Z M 10.65625 9.90625 "/>
</clipPath>
<clipPath id="clip9">
  <path d="M 11 15 L 20 15 L 20 22 L 11 22 Z M 11 15 "/>
</clipPath>
<clipPath id="clip10">
  <path d="M 9.765625 9.492188 L 21.195312 9.492188 C 22.367188 9.492188 23.316406 10.429688 23.316406 11.585938 L 23.316406 19.441406 C 23.316406 20.597656 22.367188 21.535156 21.195312 21.535156 L 9.765625 21.535156 C 8.59375 21.535156 7.648438 20.597656 7.648438 19.441406 L 7.648438 11.585938 C 7.648438 10.429688 8.59375 9.492188 9.765625 9.492188 Z M 9.765625 9.492188 "/>
</clipPath>
<clipPath id="clip11">
  <path d="M 11 14 L 21 14 L 21 22 L 11 22 Z M 11 14 "/>
</clipPath>
<clipPath id="clip12">
  <path d="M 9.765625 9.492188 L 21.195312 9.492188 C 22.367188 9.492188 23.316406 10.429688 23.316406 11.585938 L 23.316406 19.441406 C 23.316406 20.597656 22.367188 21.535156 21.195312 21.535156 L 9.765625 21.535156 C 8.59375 21.535156 7.648438 20.597656 7.648438 19.441406 L 7.648438 11.585938 C 7.648438 10.429688 8.59375 9.492188 9.765625 9.492188 Z M 9.765625 9.492188 "/>
</clipPath>
</defs>
<g id="surface1">
<path style="fill-rule:evenodd;fill:rgb(94.117647%,89.019608%,92.54902%);fill-opacity:1;stroke-width:1.009451;stroke-linecap:round;stroke-linejoin:round;stroke:rgb(90.196079%,0.784314%,70.588237%);stroke-opacity:1;stroke-miterlimit:4;" d="M 2.262031 5.168812 L 12.299489 5.168812 C 12.853785 5.168812 13.303496 5.623414 13.303496 6.183737 L 13.303496 17.242191 C 13.303496 17.802514 12.853785 18.257116 12.299489 18.257116 L 2.262031 18.257116 C 1.707736 18.257116 1.258024 17.802514 1.258024 17.242191 L 1.258024 6.183737 C 1.258024 5.623414 1.707736 5.168812 2.262031 5.168812 Z M 2.262031 5.168812 " transform="matrix(1.494013,0,0,1.477942,0.409558,-5.373578)"/>
<path style="fill-rule:nonzero;fill:rgb(61.56863%,22.745098%,60.784316%);fill-opacity:1;stroke-width:0.252363;stroke-linecap:butt;stroke-linejoin:miter;stroke:rgb(61.56863%,22.745098%,60.784316%);stroke-opacity:1;stroke-miterlimit:4;" d="M 3.673917 8.002144 C 3.710521 7.584545 3.995513 7.283239 4.353713 7.283239 C 4.594257 7.283239 4.811269 7.415391 4.936769 7.626833 C 5.057041 7.412748 5.266209 7.283239 5.501524 7.283239 C 5.862339 7.283239 6.14733 7.584545 6.183935 8.002144 C 6.186549 8.020645 6.199622 8.118438 6.163018 8.27702 C 6.110726 8.504321 5.990454 8.71312 5.815276 8.876988 L 4.936769 9.698972 L 4.042576 8.876988 C 3.867397 8.71312 3.747125 8.504321 3.694833 8.27702 C 3.658229 8.118438 3.668687 8.020645 3.673917 8.002144 Z M 3.788959 8.253232 C 3.836022 8.462032 3.945835 8.652331 4.107941 8.802984 L 4.936769 9.564177 L 5.749911 8.802984 C 5.909402 8.652331 6.021829 8.462032 6.068892 8.253232 C 6.102882 8.105223 6.089809 8.020645 6.089809 8.018002 L 6.087194 8.012716 C 6.055819 7.647978 5.810047 7.383674 5.501524 7.383674 C 5.274053 7.383674 5.075343 7.526398 4.981218 7.758985 L 4.936769 7.86735 L 4.892321 7.758985 C 4.798196 7.529041 4.586413 7.383674 4.353713 7.383674 C 4.047805 7.383674 3.799418 7.647978 3.768042 8.018002 C 3.768042 8.020645 3.754969 8.105223 3.788959 8.253232 Z M 3.788959 8.253232 " transform="matrix(1.494013,0,0,1.477942,0.409558,-5.373578)"/>
<path style="fill:none;stroke-width:1.009451;stroke-linecap:round;stroke-linejoin:miter;stroke:rgb(90.196079%,0.784314%,70.588237%);stroke-opacity:1;stroke-miterlimit:4;" d="M 3.794188 10.77733 L 11.133377 10.77733 " transform="matrix(1.494013,0,0,1.477942,0.409558,-5.373578)"/>
<path style="fill:none;stroke-width:1.009451;stroke-linecap:round;stroke-linejoin:miter;stroke:rgb(90.196079%,0.784314%,70.588237%);stroke-opacity:1;stroke-miterlimit:4;" d="M 3.794188 12.648598 L 11.133377 12.648598 " transform="matrix(1.494013,0,0,1.477942,0.409558,-5.373578)"/>
<path style="fill:none;stroke-width:1.009451;stroke-linecap:round;stroke-linejoin:miter;stroke:rgb(90.196079%,0.784314%,70.588237%);stroke-opacity:1;stroke-miterlimit:4;" d="M 3.794188 14.517223 L 11.133377 14.517223 " transform="matrix(1.494013,0,0,1.477942,0.409558,-5.373578)"/>
<g clip-path="url(#clip1)" clip-rule="nonzero">
<g clip-path="url(#clip2)" clip-rule="nonzero">
<path style=" stroke:none;fill-rule:evenodd;fill:rgb(95.294118%,71.764708%,85.09804%);fill-opacity:1;" d="M 11.132812 9.4375 L 20.425781 9.4375 C 21.363281 9.4375 22.125 10.152344 22.125 11.035156 L 22.125 20.394531 C 22.125 21.277344 21.363281 21.992188 20.425781 21.992188 L 11.132812 21.992188 C 10.195312 21.992188 9.433594 21.277344 9.433594 20.394531 L 9.433594 11.035156 C 9.433594 10.152344 10.195312 9.4375 11.132812 9.4375 Z M 11.132812 9.4375 "/>
</g>
</g>
<g clip-path="url(#clip3)" clip-rule="nonzero">
<g clip-path="url(#clip4)" clip-rule="nonzero">
<path style="fill:none;stroke-width:0.69846;stroke-linecap:round;stroke-linejoin:round;stroke:rgb(90.196079%,0.784314%,70.588237%);stroke-opacity:1;stroke-miterlimit:4;" d="M 3.714288 2.11967 L 12.310361 2.11967 C 13.177557 2.11967 13.882153 2.789903 13.882153 3.617622 L 13.882153 12.392908 C 13.882153 13.220627 13.177557 13.89086 12.310361 13.89086 L 3.714288 13.89086 C 2.847092 13.89086 2.142496 13.220627 2.142496 12.392908 L 2.142496 3.617622 C 2.142496 2.789903 2.847092 2.11967 3.714288 2.11967 Z M 3.714288 2.11967 " transform="matrix(1.081071,0,0,1.066561,7.117403,7.176744)"/>
</g>
</g>
<path style="fill:none;stroke-width:0.453104;stroke-linecap:butt;stroke-linejoin:bevel;stroke:rgb(90.196079%,0.784314%,70.588237%);stroke-opacity:1;stroke-miterlimit:4;" d="M 2.144056 15.813906 L 3.636816 14.259463 " transform="matrix(1.677367,0,0,1.633423,5.985664,-13.979234)"/>
<g clip-path="url(#clip5)" clip-rule="nonzero">
<g clip-path="url(#clip6)" clip-rule="nonzero">
<path style=" stroke:none;fill-rule:evenodd;fill:rgb(94.117647%,89.019608%,92.54902%);fill-opacity:1;" d="M 15 8.613281 L 17.765625 8.613281 C 18.171875 8.613281 18.496094 8.867188 18.496094 9.183594 L 18.496094 11.742188 C 18.496094 12.054688 18.171875 12.308594 17.765625 12.308594 L 15 12.308594 C 14.59375 12.308594 14.269531 12.054688 14.269531 11.742188 L 14.269531 9.183594 C 14.269531 8.867188 14.59375 8.613281 15 8.613281 Z M 15 8.613281 "/>
</g>
</g>
<g clip-path="url(#clip7)" clip-rule="nonzero">
<g clip-path="url(#clip8)" clip-rule="nonzero">
<path style="fill:none;stroke-width:0.714837;stroke-linecap:butt;stroke-linejoin:bevel;stroke:rgb(90.196079%,0.784314%,70.588237%);stroke-opacity:1;stroke-miterlimit:4;" d="M 7.025089 9.359873 L 9.731861 9.359873 C 10.129465 9.359873 10.446785 9.595544 10.446785 9.889226 L 10.446785 12.264065 C 10.446785 12.554122 10.129465 12.789793 9.731861 12.789793 L 7.025089 12.789793 C 6.627484 12.789793 6.310165 12.554122 6.310165 12.264065 L 6.310165 9.889226 C 6.310165 9.595544 6.627484 9.359873 7.025089 9.359873 Z M 7.025089 9.359873 " transform="matrix(1.021743,0,0,1.077376,7.822164,-1.470818)"/>
</g>
</g>
<g clip-path="url(#clip9)" clip-rule="nonzero">
<g clip-path="url(#clip10)" clip-rule="nonzero">
<path style=" stroke:none;fill-rule:evenodd;fill:rgb(94.117647%,89.019608%,92.54902%);fill-opacity:1;" d="M 12.855469 15.269531 L 18.742188 15.269531 C 19.289062 15.269531 19.726562 15.847656 19.726562 16.558594 L 19.726562 21.804688 C 19.726562 22.515625 19.289062 23.09375 18.742188 23.09375 L 12.855469 23.09375 C 12.3125 23.09375 11.871094 22.515625 11.871094 21.804688 L 11.871094 16.558594 C 11.871094 15.847656 12.3125 15.269531 12.855469 15.269531 Z M 12.855469 15.269531 "/>
</g>
</g>
<g clip-path="url(#clip11)" clip-rule="nonzero">
<g clip-path="url(#clip12)" clip-rule="nonzero">
<path style="fill:none;stroke-width:0.669417;stroke-linecap:butt;stroke-linejoin:bevel;stroke:rgb(90.196079%,0.784314%,70.588237%);stroke-opacity:1;stroke-miterlimit:4;" d="M 5.513897 15.745489 L 10.737875 15.745489 C 11.223181 15.745489 11.611426 16.264486 11.611426 16.902711 L 11.611426 21.612254 C 11.611426 22.250479 11.223181 22.769476 10.737875 22.769476 L 5.513897 22.769476 C 5.032057 22.769476 4.640346 22.250479 4.640346 21.612254 L 4.640346 16.902711 C 4.640346 16.264486 5.032057 15.745489 5.513897 15.745489 Z M 5.513897 15.745489 " transform="matrix(1.126865,0,0,1.113928,6.642049,-2.269818)"/>
</g>
</g>
<path style="fill-rule:nonzero;fill:rgb(61.56863%,22.745098%,60.784316%);fill-opacity:1;stroke-width:0.226552;stroke-linecap:round;stroke-linejoin:round;stroke:rgb(61.56863%,22.745098%,60.784316%);stroke-opacity:1;stroke-miterlimit:4;" d="M 4.195728 18.894094 C 4.212029 18.729084 4.333127 18.609512 4.486828 18.609512 C 4.589295 18.609512 4.682447 18.662124 4.73368 18.745824 C 4.784914 18.662124 4.875737 18.609512 4.975876 18.609512 C 5.127247 18.609512 5.250674 18.729084 5.266975 18.894094 C 5.266975 18.901269 5.271633 18.937141 5.25766 18.999318 C 5.234372 19.090193 5.183139 19.171503 5.108617 19.236072 L 4.73368 19.558918 L 4.354086 19.236072 C 4.279565 19.171503 4.226002 19.090193 4.205043 18.999318 C 4.188741 18.937141 4.193399 18.901269 4.195728 18.894094 Z M 4.244633 18.992144 C 4.265592 19.073453 4.312168 19.147588 4.382032 19.207374 L 4.73368 19.506306 L 5.080671 19.207374 C 5.148207 19.147588 5.197111 19.073453 5.215742 18.992144 C 5.232043 18.932358 5.225057 18.898877 5.225057 18.898877 L 5.225057 18.896486 C 5.211084 18.752999 5.106288 18.650166 4.975876 18.650166 C 4.878066 18.650166 4.794229 18.70517 4.752311 18.796045 L 4.73368 18.839091 L 4.71505 18.796045 C 4.67546 18.707561 4.584637 18.650166 4.486828 18.650166 C 4.354086 18.650166 4.24929 18.752999 4.237646 18.898877 C 4.237646 18.898877 4.23066 18.932358 4.244633 18.992144 Z M 4.244633 18.992144 " transform="matrix(1.677367,0,0,1.633423,5.985664,-13.979234)"/>
<path style="fill:none;stroke-width:0.453104;stroke-linecap:round;stroke-linejoin:miter;stroke:rgb(90.196079%,0.784314%,70.588237%);stroke-opacity:1;stroke-miterlimit:4;" d="M 4.242304 19.948724 L 7.474677 19.948724 " transform="matrix(1.677367,0,0,1.633423,5.985664,-13.979234)"/>
<path style="fill:none;stroke-width:0.453104;stroke-linecap:round;stroke-linejoin:miter;stroke:rgb(90.196079%,0.784314%,70.588237%);stroke-opacity:1;stroke-miterlimit:4;" d="M 4.23066 21.132492 L 7.463033 21.132492 " transform="matrix(1.677367,0,0,1.633423,5.985664,-13.979234)"/>
<path style="fill-rule:evenodd;fill:rgb(95.294118%,71.764708%,85.09804%);fill-opacity:1;stroke-width:0.453104;stroke-linecap:round;stroke-linejoin:bevel;stroke:rgb(90.196079%,0.784314%,70.588237%);stroke-opacity:1;stroke-miterlimit:4;" d="M 5.714105 14.886023 C 5.783969 14.886023 5.837531 14.974507 5.837531 15.082122 C 5.837531 15.189738 5.783969 15.27583 5.714105 15.27583 C 5.64657 15.27583 5.590679 15.189738 5.590679 15.082122 C 5.590679 14.974507 5.64657 14.886023 5.714105 14.886023 Z M 5.714105 14.886023 " transform="matrix(1.677367,0,0,1.633423,5.985664,-13.979234)"/>
</g>
</svg>
