<?xml version="1.0" encoding="UTF-8"?>
<svg xmlns="http://www.w3.org/2000/svg" xmlns:xlink="http://www.w3.org/1999/xlink" width="24px" height="24px" viewBox="0 0 24 24" version="1.1">
<g id="surface1">
<path style=" stroke:none;fill-rule:evenodd;fill:rgb(61.56863%,22.745098%,60.784316%);fill-opacity:1;" d="M 3.613281 14.015625 C 3.625 13.984375 3.542969 14.003906 3.386719 14.011719 C 3.164062 14.03125 2.925781 14.039062 2.671875 14.039062 C 2.433594 14.03125 2.195312 14.023438 1.957031 14.003906 C 1.542969 13.972656 1.335938 13.875 1.335938 13.710938 C 1.335938 13.253906 2.128906 12.714844 3.722656 12.089844 C 4.453125 11.796875 5.242188 11.53125 6.085938 11.289062 C 6.929688 11.046875 7.851562 10.8125 8.855469 10.589844 C 10.84375 10.164062 12.386719 9.964844 13.484375 9.988281 C 14.648438 10.023438 15.226562 10.296875 15.230469 10.800781 C 15.226562 10.882812 15.203125 10.96875 15.15625 11.058594 C 15.125 11.152344 15.066406 11.246094 14.988281 11.34375 C 14.304688 12.167969 12.027344 13.796875 8.160156 16.222656 C 8.128906 16.253906 8.101562 16.28125 8.066406 16.304688 C 8.050781 16.320312 8.042969 16.339844 8.042969 16.359375 C 8.042969 16.425781 8.144531 16.460938 8.351562 16.460938 C 8.574219 16.460938 8.773438 16.414062 8.949219 16.316406 C 9.1875 16.164062 9.523438 15.972656 9.953125 15.75 C 10.398438 15.527344 10.945312 15.257812 11.597656 14.941406 C 12.378906 14.566406 13.160156 14.210938 13.941406 13.882812 C 14.71875 13.554688 15.511719 13.242188 16.324219 12.945312 C 18.328125 12.234375 20.039062 11.765625 21.457031 11.535156 C 21.792969 11.480469 22.078125 11.453125 22.316406 11.453125 C 22.683594 11.453125 22.867188 11.515625 22.867188 11.644531 C 22.867188 11.746094 22.78125 11.859375 22.605469 11.988281 L 19.144531 14.667969 C 18.886719 14.867188 18.578125 15.132812 18.210938 15.476562 C 17.84375 15.816406 17.457031 16.1875 17.042969 16.589844 C 16.644531 16.996094 16.246094 17.410156 15.847656 17.835938 C 15.449219 18.265625 15.09375 18.664062 14.773438 19.035156 C 14.457031 19.410156 14.191406 19.738281 13.988281 20.011719 C 13.804688 20.277344 13.707031 20.457031 13.683594 20.558594 C 11.523438 21.425781 10.988281 22.210938 9.207031 22.96875 C 10.769531 22.792969 12.128906 21.722656 13.960938 20.984375 C 14.058594 21.046875 14.167969 21.09375 14.296875 21.136719 C 14.425781 21.179688 14.574219 21.203125 14.75 21.203125 C 15.179688 21.203125 15.816406 21.078125 16.65625 20.820312 C 17.410156 20.585938 17.925781 20.386719 18.203125 20.222656 C 22.351562 18.15625 18.792969 18.566406 14.140625 20.375 C 14.152344 20.28125 14.191406 20.164062 14.269531 20.027344 C 14.445312 19.753906 14.699219 19.429688 15.035156 19.054688 C 15.386719 18.679688 15.792969 18.273438 16.253906 17.835938 C 16.730469 17.40625 17.210938 16.984375 17.6875 16.570312 C 18.164062 16.15625 18.617188 15.777344 19.046875 15.429688 C 19.496094 15.085938 19.859375 14.8125 20.144531 14.609375 C 20.703125 14.203125 21.269531 13.808594 21.839844 13.421875 C 22.414062 13.027344 22.984375 12.625 23.558594 12.21875 C 23.589844 12.191406 23.605469 12.164062 23.605469 12.125 C 23.621094 12.089844 23.628906 12.054688 23.628906 12.019531 C 23.628906 11.933594 23.617188 11.851562 23.582031 11.773438 C 23.550781 11.6875 23.421875 11.597656 23.199219 11.5 C 23.023438 11.421875 22.859375 11.359375 22.699219 11.316406 C 22.539062 11.269531 22.351562 11.253906 22.128906 11.269531 C 20.726562 11.355469 18.734375 11.882812 16.15625 12.847656 C 15.203125 13.199219 14.328125 13.539062 13.53125 13.867188 C 12.753906 14.195312 12.039062 14.515625 11.382812 14.832031 C 11.242188 14.925781 11.113281 14.976562 11 14.976562 C 10.9375 14.976562 10.90625 14.964844 10.90625 14.941406 C 10.90625 14.898438 10.960938 14.839844 11.074219 14.773438 C 12.347656 13.960938 13.339844 13.277344 14.054688 12.71875 C 14.789062 12.152344 15.269531 11.710938 15.492188 11.382812 C 15.570312 11.242188 15.609375 11.101562 15.609375 10.964844 C 15.609375 10.640625 15.425781 10.378906 15.0625 10.1875 C 14.664062 9.949219 14.113281 9.824219 13.414062 9.8125 C 13.335938 9.808594 13.257812 9.8125 13.179688 9.8125 L 13.175781 9.8125 C 12.554688 9.8125 11.859375 9.863281 11.097656 9.960938 C 10.238281 10.070312 9.285156 10.234375 8.234375 10.457031 C 7.296875 10.671875 6.402344 10.902344 5.558594 11.160156 C 4.734375 11.40625 3.945312 11.691406 3.195312 12 C 1.699219 12.605469 0.929688 13.101562 0.882812 13.492188 C 0.835938 13.890625 1.191406 14.121094 1.957031 14.175781 C 2.355469 14.207031 2.828125 14.1875 3.386719 14.121094 C 3.53125 14.105469 3.625 14.15625 3.636719 14.121094 M 3.636719 14.121094 C 3.644531 14.1875 5.546875 13.558594 6.464844 14.25 C 7.421875 14.972656 6.75 19.5 5.753906 21.503906 C 4.457031 19.585938 1.5 18.871094 1.5 17.550781 C 1.5 17.003906 2.25 15.421875 3.890625 17.808594 C 3.945312 17.871094 5.273438 13.253906 6.75 15.75 C 5.121094 12.597656 3.808594 17.550781 3.75 17.457031 C 2.617188 15.667969 1.082031 15.996094 1.316406 18.101562 C 1.5625 20.324219 4.964844 21.015625 5.714844 22.515625 C 7.101562 18 8.058594 14.792969 7.007812 13.835938 C 6.257812 13.15625 5.25 13.890625 3.613281 14.015625 M 19.542969 19.019531 C 19.910156 19.023438 19.546875 19.355469 18.082031 20.105469 C 18.070312 20.109375 18.058594 20.117188 18.042969 20.121094 C 16.390625 20.746094 15.226562 21.058594 14.558594 21.058594 C 14.351562 21.058594 14.230469 21 14.191406 20.878906 C 16.789062 19.742188 18.988281 19.011719 19.542969 19.019531 Z M 19.542969 19.019531 "/>
<path style="fill-rule:nonzero;fill:rgb(94.117647%,89.019608%,92.54902%);fill-opacity:1;stroke-width:1;stroke-linecap:butt;stroke-linejoin:round;stroke:rgb(94.117647%,89.019608%,92.54902%);stroke-opacity:1;stroke-miterlimit:4;" d="M 8.674479 11.234375 C 9.335938 9.971354 9.335938 9.971354 10.664062 9.455729 L 11.666667 12.583333 Z M 8.674479 11.234375 " transform="matrix(1.5,0,0,1.5,0,0)"/>
<path style="fill:none;stroke-width:0.5;stroke-linecap:round;stroke-linejoin:miter;stroke:rgb(61.56863%,22.745098%,60.784316%);stroke-opacity:1;stroke-miterlimit:4;" d="M 11.666667 12.583333 L 12.666667 13.700521 " transform="matrix(1.5,0,0,1.5,0,0)"/>
<path style="fill-rule:nonzero;fill:rgb(95.294118%,71.764708%,85.09804%);fill-opacity:1;stroke-width:1;stroke-linecap:round;stroke-linejoin:round;stroke:rgb(90.196079%,0.784314%,70.588237%);stroke-opacity:1;stroke-miterlimit:4;" d="M 1.841146 1.919271 L 2.171875 1.622396 C 2.630208 1.210938 3.372396 1.296875 3.833333 1.8125 L 10.330729 9.083333 C 10.791667 9.598958 12.291667 12.023438 11.833333 12.434896 L 11.502604 12.729167 C 11.044271 13.140625 8.802083 11.377604 8.341146 10.861979 L 1.84375 3.591146 C 1.382812 3.072917 1.382812 2.328125 1.841146 1.919271 Z M 1.841146 1.919271 " transform="matrix(1.5,0,0,1.5,0,0)"/>
<path style="fill:none;stroke-width:1;stroke-linecap:butt;stroke-linejoin:miter;stroke:rgb(90.196079%,0.784314%,70.588237%);stroke-opacity:1;stroke-miterlimit:4;" d="M 8.674479 11.234375 C 9.002604 9.598958 9.002604 9.598958 10.664062 9.455729 " transform="matrix(1.5,0,0,1.5,0,0)"/>
<path style="fill-rule:nonzero;fill:rgb(94.117647%,89.019608%,92.54902%);fill-opacity:1;stroke-width:1;stroke-linecap:round;stroke-linejoin:round;stroke:rgb(90.196079%,0.784314%,70.588237%);stroke-opacity:1;stroke-miterlimit:4;" d="M 5.333333 3.492188 C 3.846354 3.830729 3.846354 3.830729 3.34375 5.268229 C 3.507812 5.450521 4.195312 6.21875 4.34375 6.385417 C 4.671875 4.752604 4.671875 4.752604 6.333333 4.609375 C 6.223958 4.489583 5.557292 3.742188 5.333333 3.492188 Z M 5.333333 3.492188 " transform="matrix(1.5,0,0,1.5,0,0)"/>
<path style="fill-rule:nonzero;fill:rgb(94.117647%,89.019608%,92.54902%);fill-opacity:1;stroke-width:1;stroke-linecap:round;stroke-linejoin:round;stroke:rgb(90.196079%,0.784314%,70.588237%);stroke-opacity:1;stroke-miterlimit:4;" d="M 10.330729 9.083333 C 10.841146 9.65625 12.291667 12.023438 11.833333 12.434896 L 11.502604 12.729167 C 11.044271 13.140625 8.8125 11.388021 8.341146 10.861979 C 9.002604 9.598958 9.002604 9.598958 10.330729 9.083333 Z M 10.330729 9.083333 " transform="matrix(1.5,0,0,1.5,0,0)"/>
<path style="fill:none;stroke-width:1;stroke-linecap:round;stroke-linejoin:round;stroke:rgb(90.196079%,0.784314%,70.588237%);stroke-opacity:1;stroke-miterlimit:4;" d="M 4 2 L 4.330729 1.703125 C 4.669271 1.401042 5.333333 1.492188 5.661458 1.856771 L 9.325521 5.958333 " transform="matrix(1.5,0,0,1.5,0,0)"/>
<path style=" stroke:none;fill-rule:nonzero;fill:rgb(61.56863%,22.745098%,60.784316%);fill-opacity:1;" d="M 14.546875 8.4375 C 14.824219 8.746094 14.796875 9.222656 14.488281 9.496094 C 14.179688 9.773438 13.703125 9.746094 13.429688 9.4375 C 13.152344 9.128906 13.179688 8.65625 13.488281 8.378906 C 13.796875 8.101562 14.269531 8.128906 14.546875 8.4375 Z M 14.546875 8.4375 "/>
</g>
</svg>
