<?xml version="1.0" encoding="UTF-8"?>
<svg xmlns="http://www.w3.org/2000/svg" xmlns:xlink="http://www.w3.org/1999/xlink" width="24px" height="24px" viewBox="0 0 24 24" version="1.1">
<g id="surface1">
<path style="fill-rule:nonzero;fill:rgb(94.117647%,89.019608%,92.54902%);fill-opacity:1;stroke-width:1;stroke-linecap:round;stroke-linejoin:round;stroke:rgb(90.196079%,0.784314%,70.588237%);stroke-opacity:1;stroke-miterlimit:4;" d="M 8.122396 1.46875 C 7.955729 1.463542 7.778646 1.466146 7.588542 1.481771 C 4.549479 1.736979 4.765625 4.356771 4.765625 4.356771 C 4.765625 4.356771 1.929688 4.356771 1.429688 6.611979 C 0.929688 8.869792 3.294271 10.184896 3.294271 10.184896 C 3.294271 10.184896 2.367188 12.651042 4.408854 14.054688 C 6.450521 15.458333 8.377604 13.388021 8.377604 13.388021 C 8.377604 13.388021 10.221354 15.268229 12.403646 13.520833 C 14.585938 11.776042 12.997396 9.539062 12.997396 9.539062 C 12.997396 9.539062 15.460938 8.455729 14.369792 5.752604 C 13.276042 3.046875 10.763021 3.958333 10.763021 3.958333 C 10.763021 3.958333 10.643229 1.557292 8.122396 1.46875 Z M 8 6 C 9.104167 6 10 6.895833 10 8 C 10 9.104167 9.104167 10 8 10 C 6.895833 10 6 9.104167 6 8 C 6 6.895833 6.895833 6 8 6 Z M 8 6 " transform="matrix(1.5,0,0,1.5,0,0)"/>
</g>
</svg>
