<?xml version="1.0" encoding="UTF-8"?>
<svg xmlns="http://www.w3.org/2000/svg" xmlns:xlink="http://www.w3.org/1999/xlink" width="24px" height="24px" viewBox="0 0 24 24" version="1.1">
<g id="surface1">
<path style="fill-rule:evenodd;fill:rgb(94.117647%,89.019608%,92.54902%);fill-opacity:1;stroke-width:1;stroke-linecap:round;stroke-linejoin:round;stroke:rgb(90.196079%,0.784314%,70.588237%);stroke-opacity:1;stroke-miterlimit:4;" d="M 2.494792 1.505208 L 12.265625 1.505208 C 12.817708 1.505208 13.265625 1.953125 13.265625 2.505208 L 13.265625 13.494792 C 13.265625 14.046875 12.817708 14.494792 12.265625 14.494792 L 2.494792 14.494792 C 1.942708 14.494792 1.494792 14.046875 1.494792 13.494792 L 1.494792 2.505208 C 1.494792 1.953125 1.942708 1.505208 2.494792 1.505208 Z M 2.494792 1.505208 " transform="matrix(1.5,0,0,1.5,0,0)"/>
<path style="fill:none;stroke-width:1;stroke-linecap:round;stroke-linejoin:miter;stroke:rgb(90.196079%,0.784314%,70.588237%);stroke-opacity:1;stroke-miterlimit:4;" d="M 3.919271 7.158854 L 10.927083 7.158854 " transform="matrix(1.5,0,0,1.5,0,0)"/>
<path style="fill-rule:nonzero;fill:rgb(95.294118%,71.764708%,85.09804%);fill-opacity:1;stroke-width:1;stroke-linecap:butt;stroke-linejoin:miter;stroke:rgb(61.56863%,22.745098%,60.784316%);stroke-opacity:1;stroke-miterlimit:4;" d="M 3.489583 2.429688 L 4.177083 2.429688 C 4.348958 2.429688 4.486979 2.549479 4.486979 2.695312 L 4.486979 4.796875 C 4.486979 4.945312 4.348958 5.065104 4.177083 5.065104 L 3.489583 5.065104 C 3.317708 5.065104 3.179688 4.945312 3.179688 4.796875 L 3.179688 2.695312 C 3.179688 2.549479 3.317708 2.429688 3.489583 2.429688 Z M 3.489583 2.429688 " transform="matrix(1.5,0,0,1.5,0,0)"/>
<path style="fill-rule:nonzero;fill:rgb(90.196079%,0.784314%,70.588237%);fill-opacity:1;stroke-width:1;stroke-linecap:butt;stroke-linejoin:miter;stroke:rgb(61.56863%,22.745098%,60.784316%);stroke-opacity:1;stroke-miterlimit:4;" d="M 2.661458 3.736979 L 4.348958 3.736979 C 4.606771 3.736979 4.8125 3.963542 4.8125 4.244792 L 4.8125 7.018229 C 4.8125 7.299479 4.606771 7.528646 4.348958 7.528646 L 2.661458 7.528646 C 2.40625 7.528646 2.197917 7.299479 2.197917 7.018229 L 2.197917 4.244792 C 2.197917 3.963542 2.40625 3.736979 2.661458 3.736979 Z M 2.661458 3.736979 " transform="matrix(1.5,0,0,1.5,0,0)"/>
<path style="fill-rule:nonzero;fill:rgb(95.294118%,71.764708%,85.09804%);fill-opacity:1;stroke-width:1;stroke-linecap:butt;stroke-linejoin:miter;stroke:rgb(61.56863%,22.745098%,60.784316%);stroke-opacity:1;stroke-miterlimit:4;" d="M 2.195312 6.393229 L 3.833333 6.393229 C 4.195312 6.393229 4.486979 6.6875 4.486979 7.046875 L 4.486979 7.734375 C 4.486979 8.096354 4.195312 8.388021 3.833333 8.388021 L 2.195312 8.388021 C 1.835938 8.388021 1.544271 8.096354 1.544271 7.734375 L 1.544271 7.046875 C 1.544271 6.6875 1.835938 6.393229 2.195312 6.393229 Z M 2.195312 6.393229 " transform="matrix(1.5,0,0,1.5,0,0)"/>
<path style="fill-rule:nonzero;fill:rgb(94.117647%,89.019608%,92.54902%);fill-opacity:1;stroke-width:1;stroke-linecap:butt;stroke-linejoin:miter;stroke:rgb(61.56863%,22.745098%,60.784316%);stroke-opacity:1;stroke-miterlimit:4;" d="M 3.161458 1.742188 L 4.177083 1.742188 C 4.348958 1.742188 4.486979 1.861979 4.486979 2.010417 L 4.486979 2.84375 C 4.486979 2.992188 4.348958 3.111979 4.177083 3.111979 L 3.161458 3.111979 C 2.989583 3.111979 2.851562 2.992188 2.851562 2.84375 L 2.851562 2.010417 C 2.851562 1.861979 2.989583 1.742188 3.161458 1.742188 Z M 3.161458 1.742188 " transform="matrix(1.5,0,0,1.5,0,0)"/>
<path style="fill-rule:nonzero;fill:rgb(95.294118%,71.764708%,85.09804%);fill-opacity:1;stroke-width:1;stroke-linecap:butt;stroke-linejoin:miter;stroke:rgb(61.56863%,22.745098%,60.784316%);stroke-opacity:1;stroke-miterlimit:4;" d="M -6.791667 2.367188 L -6.104167 2.367188 C -5.932292 2.367188 -5.794271 2.486979 -5.794271 2.632812 L -5.794271 4.796875 C -5.794271 4.945312 -5.932292 5.065104 -6.104167 5.065104 L -6.791667 5.065104 C -6.963542 5.065104 -7.101562 4.945312 -7.101562 4.796875 L -7.101562 2.632812 C -7.101562 2.486979 -6.963542 2.367188 -6.791667 2.367188 Z M -6.791667 2.367188 " transform="matrix(-1.5,0,0,1.5,0,0)"/>
<path style="fill-rule:nonzero;fill:rgb(90.196079%,0.784314%,70.588237%);fill-opacity:1;stroke-width:1;stroke-linecap:butt;stroke-linejoin:miter;stroke:rgb(61.56863%,22.745098%,60.784316%);stroke-opacity:1;stroke-miterlimit:4;" d="M -7.619792 3.736979 L -5.932292 3.736979 C -5.677083 3.736979 -5.46875 3.963542 -5.46875 4.244792 L -5.46875 7.018229 C -5.46875 7.299479 -5.677083 7.528646 -5.932292 7.528646 L -7.619792 7.528646 C -7.875 7.528646 -8.083333 7.299479 -8.083333 7.018229 L -8.083333 4.244792 C -8.083333 3.963542 -7.875 3.736979 -7.619792 3.736979 Z M -7.619792 3.736979 " transform="matrix(-1.5,0,0,1.5,0,0)"/>
<path style="fill-rule:nonzero;fill:rgb(95.294118%,71.764708%,85.09804%);fill-opacity:1;stroke-width:1;stroke-linecap:butt;stroke-linejoin:miter;stroke:rgb(61.56863%,22.745098%,60.784316%);stroke-opacity:1;stroke-miterlimit:4;" d="M -8.085938 6.393229 L -6.447917 6.393229 C -6.085938 6.393229 -5.794271 6.6875 -5.794271 7.046875 L -5.794271 7.734375 C -5.794271 8.096354 -6.085938 8.388021 -6.447917 8.388021 L -8.085938 8.388021 C -8.445312 8.388021 -8.736979 8.096354 -8.736979 7.734375 L -8.736979 7.046875 C -8.736979 6.6875 -8.445312 6.393229 -8.085938 6.393229 Z M -8.085938 6.393229 " transform="matrix(-1.5,0,0,1.5,0,0)"/>
<path style="fill-rule:nonzero;fill:rgb(94.117647%,89.019608%,92.54902%);fill-opacity:1;stroke-width:1;stroke-linecap:butt;stroke-linejoin:miter;stroke:rgb(61.56863%,22.745098%,60.784316%);stroke-opacity:1;stroke-miterlimit:4;" d="M -7.119792 1.742188 L -6.104167 1.742188 C -5.932292 1.742188 -5.794271 1.861979 -5.794271 2.010417 L -5.794271 2.84375 C -5.794271 2.992188 -5.932292 3.111979 -6.104167 3.111979 L -7.119792 3.111979 C -7.291667 3.111979 -7.429688 2.992188 -7.429688 2.84375 L -7.429688 2.010417 C -7.429688 1.861979 -7.291667 1.742188 -7.119792 1.742188 Z M -7.119792 1.742188 " transform="matrix(-1.5,0,0,1.5,0,0)"/>
<path style="fill-rule:nonzero;fill:rgb(95.294118%,71.764708%,85.09804%);fill-opacity:0.994505;stroke-width:1;stroke-linecap:butt;stroke-linejoin:miter;stroke:rgb(61.56863%,22.745098%,60.784316%);stroke-opacity:1;stroke-miterlimit:4;" d="M 4.486979 3.736979 L 5.794271 3.736979 L 5.794271 4.401042 L 4.486979 4.401042 Z M 4.486979 3.736979 " transform="matrix(1.5,0,0,1.5,0,0)"/>
<path style="fill-rule:nonzero;fill:rgb(95.294118%,71.764708%,85.09804%);fill-opacity:1;stroke-width:1;stroke-linecap:butt;stroke-linejoin:miter;stroke:rgb(61.56863%,22.745098%,60.784316%);stroke-opacity:1;stroke-miterlimit:4;" d="M 4.486979 6.393229 L 5.794271 6.393229 L 5.794271 7.057292 L 4.486979 7.057292 Z M 4.486979 6.393229 " transform="matrix(1.5,0,0,1.5,0,0)"/>
<path style="fill:none;stroke-width:1;stroke-linecap:round;stroke-linejoin:miter;stroke:rgb(90.196079%,0.784314%,70.588237%);stroke-opacity:1;stroke-miterlimit:4;" d="M 3.885417 11.567708 L 10.893229 11.567708 " transform="matrix(1.5,0,0,1.5,0,0)"/>
<path style="fill-rule:nonzero;fill:rgb(95.294118%,71.764708%,85.09804%);fill-opacity:1;stroke-width:0.388796;stroke-linecap:butt;stroke-linejoin:miter;stroke:rgb(61.56863%,22.745098%,60.784316%);stroke-opacity:1;stroke-miterlimit:4;" d="M 13.901134 1.909591 L 12.698445 3.508803 L 14.298633 4.712402 L 15.497925 3.113191 L 14.998503 2.11075 Z M 13.901134 1.909591 " transform="matrix(1.149767,0,0,1.165125,4.251311,2.12665)"/>
<path style="fill-rule:nonzero;fill:rgb(95.294118%,71.764708%,85.09804%);fill-opacity:1;stroke-width:0.259197;stroke-linecap:butt;stroke-linejoin:miter;stroke:rgb(61.56863%,22.745098%,60.784316%);stroke-opacity:1;stroke-miterlimit:4;" d="M 7.792559 11.706018 L 8.193455 9.506684 L 8.896723 9.409457 L 8.788005 9.952585 L 9.301017 9.714548 L 9.185504 10.250971 L 9.705311 10.016286 L 9.793644 10.70693 L 7.792559 11.706018 " transform="matrix(1.149767,0,0,1.165125,4.251311,2.12665)"/>
<path style="fill-rule:nonzero;fill:rgb(61.56863%,22.745098%,60.784316%);fill-opacity:1;stroke-width:0.129599;stroke-linecap:butt;stroke-linejoin:miter;stroke:rgb(61.56863%,22.745098%,60.784316%);stroke-opacity:1;stroke-miterlimit:4;" d="M 8.132302 10.59294 L 8.67589 11.042195 L 7.792559 11.716076 Z M 8.132302 10.59294 " transform="matrix(1.149767,0,0,1.165125,4.251311,2.12665)"/>
<path style="fill-rule:nonzero;fill:rgb(90.196079%,0.784314%,70.588237%);fill-opacity:1;stroke-width:0.129599;stroke-linecap:butt;stroke-linejoin:miter;stroke:rgb(61.56863%,22.745098%,60.784316%);stroke-opacity:1;stroke-miterlimit:4;" d="M 12.698445 3.508803 L 14.298633 4.712402 L 9.793644 10.70693 L 9.705311 10.016286 L 9.185504 10.250971 L 9.229671 9.795011 L 8.788005 9.952585 L 8.838967 9.483215 L 8.193455 9.506684 Z M 12.698445 3.508803 " transform="matrix(1.149767,0,0,1.165125,4.251311,2.12665)"/>
<path style="fill:none;stroke-width:0.90719;stroke-linecap:butt;stroke-linejoin:round;stroke:rgb(61.56863%,22.745098%,60.784316%);stroke-opacity:1;stroke-miterlimit:4;" d="M 13.598763 2.311909 L 8.193455 9.506684 L 7.493585 12.108336 L 9.793644 10.70693 L 15.198951 3.512155 C 15.997347 2.479541 14.43453 1.23571 13.598763 2.311909 Z M 13.598763 2.311909 " transform="matrix(1.149767,0,0,1.165125,4.251311,2.12665)"/>
</g>
</svg>
