<?xml version="1.0" encoding="UTF-8"?>
<svg xmlns="http://www.w3.org/2000/svg" xmlns:xlink="http://www.w3.org/1999/xlink" width="24px" height="24px" viewBox="0 0 24 24" version="1.1">
<g id="surface1">
<path style="fill-rule:nonzero;fill:rgb(94.117647%,89.019608%,92.54902%);fill-opacity:1;stroke-width:1;stroke-linecap:butt;stroke-linejoin:round;stroke:rgb(90.196079%,0.784314%,70.588237%);stroke-opacity:1;stroke-miterlimit:4;" d="M 4.333333 1.5 L 11.666667 1.5 C 12.583333 1.5 13.5 2.429688 13.5 3.356771 L 13.5 10.786458 C 13.5 11.713542 10.75 14.5 9.833333 14.5 L 4.333333 14.5 C 3.416667 14.5 2.5 13.570312 2.5 12.643229 L 2.5 3.356771 C 2.5 2.429688 3.416667 1.5 4.333333 1.5 Z M 4.333333 1.5 " transform="matrix(1.5,0,0,1.5,0,0)"/>
<path style="fill-rule:nonzero;fill:rgb(94.117647%,89.019608%,92.54902%);fill-opacity:1;stroke-width:1;stroke-linecap:butt;stroke-linejoin:round;stroke:rgb(90.196079%,0.784314%,70.588237%);stroke-opacity:1;stroke-miterlimit:4;" d="M 13.333333 11 L 9.833333 14.5 L 9.833333 11 L 13.333333 11 " transform="matrix(1.5,0,0,1.5,0,0)"/>
<path style="fill-rule:nonzero;fill:rgb(95.294118%,71.764708%,85.09804%);fill-opacity:1;stroke-width:1;stroke-linecap:round;stroke-linejoin:round;stroke:rgb(61.56863%,22.745098%,60.784316%);stroke-opacity:1;stroke-miterlimit:4;" d="M 1.5 4.5 L 1.5 14.5 L 11.5 14.5 Z M 3 8 L 8 13 L 3 13 Z M 3 8 " transform="matrix(1.5,0,0,1.5,0,0)"/>
<path style="fill:none;stroke-width:1.562137;stroke-linecap:round;stroke-linejoin:miter;stroke:rgb(61.56863%,22.745098%,60.784316%);stroke-opacity:1;stroke-miterlimit:4;" d="M 14.161029 8.110808 C 13.543368 9.519415 12.137028 10.500258 10.498819 10.499071 C 8.289438 10.49856 6.501864 8.709739 6.501038 6.501313 C 6.500211 4.292887 8.292411 2.501387 10.500734 2.497987 C 11.728403 2.499139 12.830604 3.053264 13.562416 3.927788 " transform="matrix(0.922969,0.247309,-0.249745,0.932062,5.877324,0.0943301)"/>
<path style="fill:none;stroke-width:1.562137;stroke-linecap:round;stroke-linejoin:round;stroke:rgb(61.56863%,22.745098%,60.784316%);stroke-opacity:1;stroke-miterlimit:4;" d="M 10.686433 4.498102 L 13.687136 4.498196 L 13.68878 1.501211 " transform="matrix(0.922969,0.247309,-0.249745,0.932062,5.877324,0.0943301)"/>
</g>
</svg>
