<?xml version="1.0" encoding="UTF-8"?>
<svg xmlns="http://www.w3.org/2000/svg" xmlns:xlink="http://www.w3.org/1999/xlink" width="24px" height="24px" viewBox="0 0 24 24" version="1.1">
<g id="surface1">
<path style="fill-rule:nonzero;fill:rgb(90.196079%,0.784314%,70.588237%);fill-opacity:1;stroke-width:1;stroke-linecap:square;stroke-linejoin:round;stroke:rgb(90.196079%,0.784314%,70.588237%);stroke-opacity:1;stroke-miterlimit:4;" d="M 4.25 2.5 L 11.75 2.5 C 12.992188 2.5 14 3.507812 14 4.75 C 14 5.992188 12.992188 7 11.75 7 L 4.25 7 C 3.007812 7 2 5.992188 2 4.75 C 2 3.507812 3.007812 2.5 4.25 2.5 Z M 4.25 2.5 " transform="matrix(1.5,0,0,1.5,0,0)"/>
<path style="fill-rule:nonzero;fill:rgb(94.117647%,89.019608%,92.54902%);fill-opacity:1;stroke-width:1;stroke-linecap:square;stroke-linejoin:round;stroke:rgb(90.196079%,0.784314%,70.588237%);stroke-opacity:1;stroke-miterlimit:4;" d="M -9.75 4.75 C -9.75 5.992188 -10.757812 7 -12 7 C -13.242188 7 -14.25 5.992188 -14.25 4.75 C -14.25 3.507812 -13.242188 2.5 -12 2.5 C -10.757812 2.5 -9.75 3.507812 -9.75 4.75 Z M -9.75 4.75 " transform="matrix(-1.5,0,0,1.5,0,0)"/>
<path style="fill-rule:nonzero;fill:rgb(94.117647%,89.019608%,92.54902%);fill-opacity:1;stroke-width:1;stroke-linecap:square;stroke-linejoin:round;stroke:rgb(90.196079%,0.784314%,70.588237%);stroke-opacity:1;stroke-miterlimit:4;" d="M 4.25 9 L 11.75 9 C 12.992188 9 14 10.007812 14 11.25 C 14 12.492188 12.992188 13.5 11.75 13.5 L 4.25 13.5 C 3.007812 13.5 2 12.492188 2 11.25 C 2 10.007812 3.007812 9 4.25 9 Z M 4.25 9 " transform="matrix(1.5,0,0,1.5,0,0)"/>
<path style="fill-rule:nonzero;fill:rgb(94.117647%,89.019608%,92.54902%);fill-opacity:1;stroke-width:1;stroke-linecap:square;stroke-linejoin:round;stroke:rgb(90.196079%,0.784314%,70.588237%);stroke-opacity:1;stroke-miterlimit:4;" d="M 6.5 11.25 C 6.5 12.492188 5.492188 13.5 4.25 13.5 C 3.007812 13.5 2 12.492188 2 11.25 C 2 10.007812 3.007812 9 4.25 9 C 5.492188 9 6.5 10.007812 6.5 11.25 Z M 6.5 11.25 " transform="matrix(1.5,0,0,1.5,0,0)"/>
</g>
</svg>
