<?xml version="1.0" encoding="UTF-8"?>
<svg xmlns="http://www.w3.org/2000/svg" xmlns:xlink="http://www.w3.org/1999/xlink" width="24px" height="24px" viewBox="0 0 24 24" version="1.1">
<g id="surface1">
<path style="fill:none;stroke-width:1;stroke-linecap:round;stroke-linejoin:miter;stroke:rgb(90.196079%,0.784314%,70.588237%);stroke-opacity:1;stroke-miterlimit:4;" d="M 11.5 12.5 L 13.5 14.5 " transform="matrix(1.5,0,0,1.5,0,0)"/>
<path style="fill-rule:nonzero;fill:rgb(94.117647%,89.019608%,92.54902%);fill-opacity:1;stroke-width:1;stroke-linecap:round;stroke-linejoin:round;stroke:rgb(90.196079%,0.784314%,70.588237%);stroke-opacity:1;stroke-miterlimit:4;" d="M 5.5 3.5 C 5.5 4.328125 4.828125 5 4 5 C 3.171875 5 2.5 4.328125 2.5 3.5 C 2.5 2.671875 3.171875 2 4 2 C 4.828125 2 5.5 2.671875 5.5 3.5 Z M 5.5 3.5 " transform="matrix(1.5,0,0,1.5,0,0)"/>
<path style="fill-rule:nonzero;fill:rgb(94.117647%,89.019608%,92.54902%);fill-opacity:1;stroke-width:1;stroke-linecap:round;stroke-linejoin:round;stroke:rgb(90.196079%,0.784314%,70.588237%);stroke-opacity:1;stroke-miterlimit:4;" d="M 13.5 3.5 C 13.5 4.328125 12.828125 5 12 5 C 11.171875 5 10.5 4.328125 10.5 3.5 C 10.5 2.671875 11.171875 2 12 2 C 12.828125 2 13.5 2.671875 13.5 3.5 Z M 13.5 3.5 " transform="matrix(1.5,0,0,1.5,0,0)"/>
<path style="fill-rule:nonzero;fill:rgb(94.117647%,89.019608%,92.54902%);fill-opacity:1;stroke-width:0.869565;stroke-linecap:round;stroke-linejoin:round;stroke:rgb(90.196079%,0.784314%,70.588237%);stroke-opacity:1;stroke-miterlimit:4;" d="M 12.999547 8.000906 C 12.999547 10.761323 10.762228 13.000906 7.999547 13.000906 C 5.239131 13.000906 2.999547 10.761323 2.999547 8.000906 C 2.999547 5.238225 5.239131 3.000906 7.999547 3.000906 C 10.762228 3.000906 12.999547 5.238225 12.999547 8.000906 Z M 12.999547 8.000906 " transform="matrix(1.725,0,0,1.725,-1.9125,-1.95)"/>
<path style="fill:none;stroke-width:0.869565;stroke-linecap:round;stroke-linejoin:round;stroke:rgb(61.56863%,22.745098%,60.784316%);stroke-opacity:1;stroke-miterlimit:4;" d="M 10.646739 5.000453 L 7.999547 8.000906 L 6.500453 6.676178 " transform="matrix(1.725,0,0,1.725,-1.9125,-1.95)"/>
<path style=" stroke:none;fill-rule:nonzero;fill:rgb(61.56863%,22.745098%,60.784316%);fill-opacity:1;" d="M 12.75 4.949219 C 12.75 5.425781 12.363281 5.8125 11.886719 5.8125 C 11.410156 5.8125 11.023438 5.425781 11.023438 4.949219 C 11.023438 4.472656 11.410156 4.085938 11.886719 4.085938 C 12.363281 4.085938 12.75 4.472656 12.75 4.949219 Z M 12.75 4.949219 "/>
<path style=" stroke:none;fill-rule:nonzero;fill:rgb(61.56863%,22.745098%,60.784316%);fill-opacity:1;" d="M 12.75 18.75 C 12.75 19.226562 12.363281 19.613281 11.886719 19.613281 C 11.410156 19.613281 11.023438 19.226562 11.023438 18.75 C 11.023438 18.273438 11.410156 17.886719 11.886719 17.886719 C 12.363281 17.886719 12.75 18.273438 12.75 18.75 Z M 12.75 18.75 "/>
<path style=" stroke:none;fill-rule:nonzero;fill:rgb(61.56863%,22.745098%,60.784316%);fill-opacity:1;" d="M 19.648438 11.851562 C 19.648438 12.328125 19.265625 12.710938 18.789062 12.710938 C 18.3125 12.710938 17.925781 12.328125 17.925781 11.851562 C 17.925781 11.375 18.3125 10.988281 18.789062 10.988281 C 19.265625 10.988281 19.648438 11.375 19.648438 11.851562 Z M 19.648438 11.851562 "/>
<path style=" stroke:none;fill-rule:nonzero;fill:rgb(61.56863%,22.745098%,60.784316%);fill-opacity:1;" d="M 5.851562 11.851562 C 5.851562 12.328125 5.464844 12.710938 4.988281 12.710938 C 4.511719 12.710938 4.125 12.328125 4.125 11.851562 C 4.125 11.375 4.511719 10.988281 4.988281 10.988281 C 5.464844 10.988281 5.851562 11.375 5.851562 11.851562 Z M 5.851562 11.851562 "/>
<path style="fill:none;stroke-width:1;stroke-linecap:round;stroke-linejoin:miter;stroke:rgb(90.196079%,0.784314%,70.588237%);stroke-opacity:1;stroke-miterlimit:4;" d="M 4.5 12.5 L 2.5 14.5 " transform="matrix(1.5,0,0,1.5,0,0)"/>
</g>
</svg>
