<?xml version="1.0" encoding="UTF-8"?>
<svg xmlns="http://www.w3.org/2000/svg" xmlns:xlink="http://www.w3.org/1999/xlink" width="24px" height="24px" viewBox="0 0 24 24" version="1.1">
<g id="surface1">
<path style="fill-rule:nonzero;fill:rgb(94.117647%,89.019608%,92.54902%);fill-opacity:1;stroke-width:1;stroke-linecap:round;stroke-linejoin:round;stroke:rgb(90.196079%,0.784314%,70.588237%);stroke-opacity:1;stroke-miterlimit:4;" d="M 2 3 L 2 13 C 2 14 3 15 4 15 C 6.330729 15 10 15 10.989583 15 C 12 14 13 13 14 12 L 14 3 C 14 2 13 1 12 1 L 4 1 C 3 1 2 2 2 3 Z M 2 3 " transform="matrix(1.5,0,0,1.5,0,0)"/>
<path style=" stroke:none;fill-rule:nonzero;fill:rgb(90.196079%,0.784314%,70.588237%);fill-opacity:1;" d="M 4.5 15.75 L 18 15.75 L 18 18.75 L 4.5 18.75 Z M 4.5 15.75 "/>
<path style="fill-rule:nonzero;fill:rgb(95.294118%,71.764708%,85.09804%);fill-opacity:1;stroke-width:1;stroke-linecap:round;stroke-linejoin:round;stroke:rgb(61.56863%,22.745098%,60.784316%);stroke-opacity:1;stroke-miterlimit:4;" d="M 14 11.25 C 14 13.320312 12.320312 15 10.25 15 C 8.179688 15 6.5 13.320312 6.5 11.25 C 6.5 9.179688 8.179688 7.5 10.25 7.5 C 12.320312 7.5 14 9.179688 14 11.25 Z M 14 11.25 " transform="matrix(1.5,0,0,1.5,0,0)"/>
<path style=" stroke:none;fill-rule:nonzero;fill:rgb(90.196079%,0.784314%,70.588237%);fill-opacity:1;" d="M 18 16.875 C 18 18.324219 16.824219 19.5 15.375 19.5 C 13.925781 19.5 12.75 18.324219 12.75 16.875 C 12.75 15.425781 13.925781 14.25 15.375 14.25 C 16.824219 14.25 18 15.425781 18 16.875 Z M 18 16.875 "/>
<path style="fill-rule:nonzero;fill:rgb(95.294118%,71.764708%,85.09804%);fill-opacity:1;stroke-width:0.278613;stroke-linecap:butt;stroke-linejoin:miter;stroke:rgb(61.56863%,22.745098%,60.784316%);stroke-opacity:1;stroke-miterlimit:4;" d="M 13.899208 1.911811 L 12.699623 3.510452 L 14.298264 4.712456 L 15.500268 3.111396 L 14.999634 2.112548 Z M 13.899208 1.911811 " transform="matrix(1.615142,0,0,1.615142,-5.843719,-1.919877)"/>
<path style="fill-rule:nonzero;fill:rgb(95.294118%,71.764708%,85.09804%);fill-opacity:1;stroke-width:0.185742;stroke-linecap:butt;stroke-linejoin:miter;stroke:rgb(61.56863%,22.745098%,60.784316%);stroke-opacity:1;stroke-miterlimit:4;" d="M 7.792448 11.706812 L 8.193923 9.508378 L 8.895293 9.406801 L 8.78646 9.950967 L 9.301604 9.713952 L 9.185515 10.250864 L 9.703078 10.016267 L 9.794982 10.707964 L 7.792448 11.706812 " transform="matrix(1.615142,0,0,1.615142,-5.843719,-1.919877)"/>
<path style="fill-rule:nonzero;fill:rgb(61.56863%,22.745098%,60.784316%);fill-opacity:1;stroke-width:0.0928711;stroke-linecap:butt;stroke-linejoin:miter;stroke:rgb(61.56863%,22.745098%,60.784316%);stroke-opacity:1;stroke-miterlimit:4;" d="M 8.13346 10.591875 L 8.675208 11.041719 L 7.794867 11.714067 Z M 8.13346 10.591875 " transform="matrix(1.615142,0,0,1.615142,-5.843719,-1.919877)"/>
<path style="fill-rule:nonzero;fill:rgb(90.196079%,0.784314%,70.588237%);fill-opacity:1;stroke-width:0.0928711;stroke-linecap:butt;stroke-linejoin:miter;stroke:rgb(61.56863%,22.745098%,60.784316%);stroke-opacity:1;stroke-miterlimit:4;" d="M 12.699623 3.510452 L 14.298264 4.712456 L 9.794982 10.707964 L 9.703078 10.016267 L 9.185515 10.250864 L 9.229049 9.796182 L 8.78646 9.950967 L 8.839667 9.481775 L 8.193923 9.508378 Z M 12.699623 3.510452 " transform="matrix(1.615142,0,0,1.615142,-5.843719,-1.919877)"/>
<path style="fill:none;stroke-width:0.650098;stroke-linecap:butt;stroke-linejoin:round;stroke:rgb(61.56863%,22.745098%,60.784316%);stroke-opacity:1;stroke-miterlimit:4;" d="M 13.599312 2.310867 L 8.193923 9.508378 L 7.492552 12.105867 L 9.794982 10.707964 L 15.197953 3.51287 C 15.998483 2.480163 14.433701 1.234626 13.599312 2.310867 Z M 13.599312 2.310867 " transform="matrix(1.615142,0,0,1.615142,-5.843719,-1.919877)"/>
</g>
</svg>
