<?xml version="1.0" encoding="UTF-8"?>
<svg xmlns="http://www.w3.org/2000/svg" xmlns:xlink="http://www.w3.org/1999/xlink" width="24px" height="24px" viewBox="0 0 24 24" version="1.1">
<g id="surface1">
<path style="fill-rule:nonzero;fill:rgb(94.117647%,89.019608%,92.54902%);fill-opacity:1;stroke-width:1;stroke-linecap:round;stroke-linejoin:round;stroke:rgb(90.196079%,0.784314%,70.588237%);stroke-opacity:1;stroke-miterlimit:4;" d="M 5 1 L 13 1 C 14 1 15 2 15 3 L 15 13 C 15 14 14 15 13 15 L 5 15 C 4 15 3 14 3 13 L 3 3 C 3 2 4 1 5 1 Z M 5 1 " transform="matrix(1.5,0,0,1.5,0,0)"/>
<path style="fill:none;stroke-width:1;stroke-linecap:round;stroke-linejoin:miter;stroke:rgb(61.56863%,22.745098%,60.784316%);stroke-opacity:1;stroke-miterlimit:4;" d="M 5 5 L 13 5 " transform="matrix(1.5,0,0,1.5,0,0)"/>
<path style="fill:none;stroke-width:1;stroke-linecap:round;stroke-linejoin:miter;stroke:rgb(61.56863%,22.745098%,60.784316%);stroke-opacity:1;stroke-miterlimit:4;" d="M 5 7 L 13 7 " transform="matrix(1.5,0,0,1.5,0,0)"/>
<path style="fill:none;stroke-width:1;stroke-linecap:round;stroke-linejoin:miter;stroke:rgb(61.56863%,22.745098%,60.784316%);stroke-opacity:1;stroke-miterlimit:4;" d="M 5 9 L 13 9 " transform="matrix(1.5,0,0,1.5,0,0)"/>
<path style="fill:none;stroke-width:1;stroke-linecap:round;stroke-linejoin:miter;stroke:rgb(61.56863%,22.745098%,60.784316%);stroke-opacity:1;stroke-miterlimit:4;" d="M 5 11 L 13 11 " transform="matrix(1.5,0,0,1.5,0,0)"/>
<path style="fill:none;stroke-width:1;stroke-linecap:round;stroke-linejoin:miter;stroke:rgb(61.56863%,22.745098%,60.784316%);stroke-opacity:1;stroke-miterlimit:4;" d="M 5 13 L 13 13 " transform="matrix(1.5,0,0,1.5,0,0)"/>
<path style="fill:none;stroke-width:1;stroke-linecap:round;stroke-linejoin:miter;stroke:rgb(61.56863%,22.745098%,60.784316%);stroke-opacity:1;stroke-miterlimit:4;" d="M 5 3 L 13 3 " transform="matrix(1.5,0,0,1.5,0,0)"/>
<path style="fill-rule:nonzero;fill:rgb(95.294118%,71.764708%,85.09804%);fill-opacity:1;stroke-width:1;stroke-linecap:round;stroke-linejoin:round;stroke:rgb(90.196079%,0.784314%,70.588237%);stroke-opacity:1;stroke-miterlimit:4;" d="M 26.168134 -0.127186 C 23.666566 -0.127186 21.677158 0.931974 21.666706 5.872396 L 24.168273 5.872396 C 24.168273 3.374312 24.666497 2.374382 26.168134 2.374382 C 27.666287 2.374382 28.167994 3.374312 28.167994 5.872396 L 30.666078 5.872396 C 30.666078 0.872744 28.666218 -0.127186 26.168134 -0.127186 Z M 26.168134 -0.127186 " transform="matrix(1.121172,0,0,1.121172,-21.06554,1.642597)"/>
<path style="fill-rule:nonzero;fill:rgb(95.294118%,71.764708%,85.09804%);fill-opacity:1;stroke-width:1;stroke-linecap:round;stroke-linejoin:round;stroke:rgb(90.196079%,0.784314%,70.588237%);stroke-opacity:1;stroke-miterlimit:4;" d="M 21.286941 5.907236 L 31.049327 5.907236 C 31.666008 5.907236 32.167715 6.408943 32.167715 7.029109 L 32.167715 12.753449 C 32.167715 13.37013 31.666008 13.871838 31.049327 13.871838 L 21.286941 13.871838 C 20.67026 13.871838 20.168552 13.37013 20.168552 12.753449 L 20.168552 7.029109 C 20.168552 6.408943 20.67026 5.907236 21.286941 5.907236 Z M 21.286941 5.907236 " transform="matrix(1.121172,0,0,1.121172,-21.06554,1.642597)"/>
<path style=" stroke:none;fill-rule:nonzero;fill:rgb(94.117647%,89.019608%,92.54902%);fill-opacity:1;" d="M 6.570312 9.734375 C 6.269531 9.75 5.960938 9.859375 5.667969 10.109375 C 5.128906 10.558594 4.820312 11.53125 4.917969 12.203125 C 5.085938 13.3125 6.203125 14.34375 8.277344 15.898438 C 10.351562 14.34375 11.472656 13.3125 11.636719 12.203125 C 11.738281 11.53125 11.425781 10.558594 10.890625 10.109375 C 9.714844 9.117188 8.277344 10.347656 8.277344 11.011719 C 8.277344 10.511719 7.46875 9.695312 6.570312 9.734375 Z M 6.570312 9.734375 "/>
<path style=" stroke:none;fill-rule:nonzero;fill:rgb(61.56863%,22.745098%,60.784316%);fill-opacity:1;" d="M 6.964844 10.613281 C 6.734375 10.621094 6.496094 10.707031 6.269531 10.898438 C 5.859375 11.246094 5.621094 11.988281 5.695312 12.503906 C 5.824219 13.355469 6.683594 14.144531 8.273438 15.339844 C 9.863281 14.144531 10.722656 13.355469 10.847656 12.503906 C 10.925781 11.988281 10.6875 11.246094 10.277344 10.898438 C 9.375 10.136719 8.273438 11.078125 8.273438 11.589844 C 8.273438 11.207031 7.652344 10.582031 6.964844 10.613281 Z M 6.964844 10.613281 "/>
</g>
</svg>
