<?xml version="1.0" encoding="UTF-8"?>
<svg xmlns="http://www.w3.org/2000/svg" xmlns:xlink="http://www.w3.org/1999/xlink" width="24px" height="24px" viewBox="0 0 24 24" version="1.1">
<g id="surface1">
<path style=" stroke:none;fill-rule:nonzero;fill:rgb(33.333334%,34.117648%,32.549021%);fill-opacity:1;" d="M 4.5 3 C 3.667969 3 3 3.667969 3 4.5 L 3 7.5 L 4.5 7.5 L 4.5 6 L 8.25 6 C 8.664062 6 9 6.335938 9 6.75 L 9 18 C 9 19.65625 7.65625 21 6 21 L 6 22.5 L 17.101562 22.5 C 15.652344 22.5 13.929688 21.996094 12.460938 20.582031 L 12 20.136719 L 12 16.5 L 15 16.5 L 15 6.75 C 15 6.335938 15.335938 6 15.75 6 L 19.5 6 L 19.5 7.5 L 21 7.5 L 21 4.5 C 21 3.667969 20.332031 3 19.5 3 Z M 18 13.5 L 18 15 C 20.339844 17.4375 17.148438 20.246094 15 18 L 13.5 18 L 13.5 19.5 C 14.699219 20.65625 15.953125 21 17.101562 21 L 19.5 21 L 22.5 24 L 24 24 L 24 22.5 L 21 19.5 L 21 17.101562 C 21 15.777344 20.679688 14.699219 19.5 13.5 Z M 18 13.5 "/>
</g>
</svg>
