<?xml version="1.0" encoding="UTF-8"?>
<svg xmlns="http://www.w3.org/2000/svg" xmlns:xlink="http://www.w3.org/1999/xlink" width="24px" height="24px" viewBox="0 0 24 24" version="1.1">
<g id="surface1">
<path style="fill-rule:nonzero;fill:rgb(95.294118%,71.764708%,85.09804%);fill-opacity:1;stroke-width:0.264583;stroke-linecap:butt;stroke-linejoin:miter;stroke:rgb(90.196079%,0.784314%,70.588237%);stroke-opacity:1;stroke-miterlimit:4;" d="M 0.529166 0.79375 L 0.529166 3.439584 C 0.529166 3.704167 0.79375 3.96875 1.058333 3.96875 L 3.175 3.96875 C 3.439583 3.96875 3.704167 3.704167 3.704167 3.439584 L 3.704167 0.79375 C 3.704167 0.529167 3.439583 0.264583 3.175 0.264583 L 1.058333 0.264583 C 0.79375 0.264583 0.529166 0.529167 0.529166 0.79375 Z M 0.529166 0.79375 " transform="matrix(5.669291,0,0,5.669291,0.00000135166,0)"/>
<path style=" stroke:none;fill-rule:nonzero;fill:rgb(61.56863%,22.745098%,60.784316%);fill-opacity:1;" d="M 13.5 0.71875 L 13.5 10.5 L 15.75 7.8125 L 18 10.5 L 18 0.75 Z M 13.5 0.71875 "/>
<path style="fill:none;stroke-width:0.264583;stroke-linecap:round;stroke-linejoin:miter;stroke:rgb(90.196079%,0.784314%,70.588237%);stroke-opacity:1;stroke-miterlimit:4;" d="M 1.322917 3.96875 L 1.322917 1.322917 " transform="matrix(5.669291,0,0,5.669291,0.00000135166,0)"/>
<path style="fill:none;stroke-width:0.264583;stroke-linecap:round;stroke-linejoin:miter;stroke:rgb(90.196079%,0.784314%,70.588237%);stroke-opacity:1;stroke-miterlimit:4;" d="M 1.322917 0.661458 L 1.322917 0.926042 " transform="matrix(5.669291,0,0,5.669291,0.00000135166,0)"/>
<path style=" stroke:none;fill-rule:nonzero;fill:rgb(61.56863%,22.745098%,60.784316%);fill-opacity:1;" d="M 6 3.75 C 6 4.164062 5.664062 4.5 5.25 4.5 C 4.835938 4.5 4.5 4.164062 4.5 3.75 C 4.5 3.335938 4.835938 3 5.25 3 C 5.664062 3 6 3.335938 6 3.75 Z M 6 3.75 "/>
<path style=" stroke:none;fill-rule:nonzero;fill:rgb(61.56863%,22.745098%,60.784316%);fill-opacity:1;" d="M 6 6 C 6 6.414062 5.664062 6.75 5.25 6.75 C 4.835938 6.75 4.5 6.414062 4.5 6 C 4.5 5.585938 4.835938 5.25 5.25 5.25 C 5.664062 5.25 6 5.585938 6 6 Z M 6 6 "/>
<path style=" stroke:none;fill-rule:nonzero;fill:rgb(61.56863%,22.745098%,60.784316%);fill-opacity:1;" d="M 6 8.25 C 6 8.664062 5.664062 9 5.25 9 C 4.835938 9 4.5 8.664062 4.5 8.25 C 4.5 7.835938 4.835938 7.5 5.25 7.5 C 5.664062 7.5 6 7.835938 6 8.25 Z M 6 8.25 "/>
<path style=" stroke:none;fill-rule:nonzero;fill:rgb(61.56863%,22.745098%,60.784316%);fill-opacity:1;" d="M 6 10.5 C 6 10.914062 5.664062 11.25 5.25 11.25 C 4.835938 11.25 4.5 10.914062 4.5 10.5 C 4.5 10.085938 4.835938 9.75 5.25 9.75 C 5.664062 9.75 6 10.085938 6 10.5 Z M 6 10.5 "/>
<path style=" stroke:none;fill-rule:nonzero;fill:rgb(61.56863%,22.745098%,60.784316%);fill-opacity:1;" d="M 6 12.75 C 6 13.164062 5.664062 13.5 5.25 13.5 C 4.835938 13.5 4.5 13.164062 4.5 12.75 C 4.5 12.335938 4.835938 12 5.25 12 C 5.664062 12 6 12.335938 6 12.75 Z M 6 12.75 "/>
<path style=" stroke:none;fill-rule:nonzero;fill:rgb(61.56863%,22.745098%,60.784316%);fill-opacity:1;" d="M 6 15 C 6 15.414062 5.664062 15.75 5.25 15.75 C 4.835938 15.75 4.5 15.414062 4.5 15 C 4.5 14.585938 4.835938 14.25 5.25 14.25 C 5.664062 14.25 6 14.585938 6 15 Z M 6 15 "/>
<path style=" stroke:none;fill-rule:nonzero;fill:rgb(61.56863%,22.745098%,60.784316%);fill-opacity:1;" d="M 6 17.25 C 6 17.664062 5.664062 18 5.25 18 C 4.835938 18 4.5 17.664062 4.5 17.25 C 4.5 16.835938 4.835938 16.5 5.25 16.5 C 5.664062 16.5 6 16.835938 6 17.25 Z M 6 17.25 "/>
<path style=" stroke:none;fill-rule:nonzero;fill:rgb(61.56863%,22.745098%,60.784316%);fill-opacity:1;" d="M 6 19.5 C 6 19.914062 5.664062 20.25 5.25 20.25 C 4.835938 20.25 4.5 19.914062 4.5 19.5 C 4.5 19.085938 4.835938 18.75 5.25 18.75 C 5.664062 18.75 6 19.085938 6 19.5 Z M 6 19.5 "/>
<path style=" stroke:none;fill-rule:nonzero;fill:rgb(61.56863%,22.745098%,60.784316%);fill-opacity:1;" d="M 12.597656 15.523438 C 12.3125 14.574219 12.425781 14.46875 12.09375 13.554688 C 11.664062 14.429688 11.777344 14.582031 11.4375 15.480469 C 12.109375 15.402344 11.917969 15.488281 12.597656 15.523438 Z M 13.347656 15.269531 C 13.375 15.375 13.425781 15.53125 13.492188 15.730469 C 13.566406 15.929688 13.648438 16.148438 13.730469 16.386719 C 13.816406 16.621094 13.90625 16.859375 13.996094 17.101562 C 14.09375 17.347656 14.179688 17.574219 14.253906 17.777344 C 14.328125 17.976562 14.390625 18.140625 14.441406 18.273438 C 14.492188 18.398438 14.515625 18.460938 14.515625 18.46875 C 14.527344 18.492188 14.535156 18.519531 14.535156 18.554688 C 14.535156 18.660156 14.484375 18.734375 14.382812 18.777344 C 14.363281 18.785156 13.898438 18.734375 13.859375 18.734375 C 13.816406 18.734375 13.769531 18.71875 13.722656 18.691406 C 13.320312 17.902344 12.992188 16.957031 12.699219 16.222656 C 11.910156 16.050781 11.992188 16.21875 11.207031 16.222656 C 10.828125 17.128906 10.488281 17.875 10.140625 18.671875 C 10.09375 18.765625 10.019531 18.808594 9.917969 18.808594 C 9.878906 18.808594 9.421875 18.785156 9.398438 18.777344 C 9.300781 18.730469 9.253906 18.65625 9.253906 18.554688 C 9.253906 18.523438 9.261719 18.492188 9.277344 18.460938 C 9.277344 18.453125 9.308594 18.382812 9.371094 18.246094 C 9.433594 18.105469 9.511719 17.929688 9.601562 17.71875 C 9.699219 17.5 9.804688 17.265625 9.917969 17.007812 C 10.03125 16.746094 10.105469 16.726562 10.207031 16.488281 C 10.046875 16.503906 9.917969 16.523438 9.816406 16.539062 C 9.710938 16.550781 9.652344 16.558594 9.636719 16.558594 C 9.574219 16.558594 9.519531 16.535156 9.472656 16.496094 C 9.433594 16.457031 9.441406 16.167969 9.429688 16.085938 C 9.429688 16.023438 9.449219 15.972656 9.484375 15.933594 C 9.523438 15.886719 9.574219 15.859375 9.636719 15.847656 C 9.648438 15.847656 9.726562 15.839844 9.875 15.824219 C 10.027344 15.800781 10.21875 15.777344 10.445312 15.753906 C 10.492188 15.652344 10.53125 15.558594 10.558594 15.472656 C 10.59375 15.386719 10.621094 15.3125 10.644531 15.25 C 10.695312 15.097656 10.769531 14.894531 10.863281 14.644531 C 10.96875 14.390625 11.074219 14.125 11.1875 13.851562 C 11.304688 13.574219 11.417969 13.304688 11.53125 13.050781 C 11.648438 12.789062 11.753906 12.570312 11.839844 12.402344 C 11.847656 12.308594 11.894531 12.246094 11.972656 12.203125 C 11.996094 12.195312 12.035156 12.1875 12.085938 12.1875 C 12.132812 12.1875 12.171875 12.195312 12.203125 12.214844 C 12.277344 12.253906 12.320312 12.320312 12.332031 12.410156 C 12.40625 12.582031 12.492188 12.796875 12.589844 13.058594 C 12.691406 13.320312 12.789062 13.589844 12.886719 13.867188 C 12.988281 14.140625 13.082031 14.40625 13.160156 14.664062 C 13.242188 14.914062 13.304688 15.113281 13.347656 15.269531 Z M 13.347656 15.269531 "/>
<path style=" stroke:none;fill-rule:nonzero;fill:rgb(61.56863%,22.745098%,60.784316%);fill-opacity:1;" d="M 17.085938 17.699219 C 17.730469 17.1875 17.589844 16.855469 17.855469 16.203125 C 17.800781 15.511719 17.925781 15.269531 17.855469 14.621094 C 17.769531 14.574219 17.671875 14.582031 17.589844 14.5625 C 17.113281 14.535156 17.152344 14.621094 16.761719 14.769531 C 16.070312 15.144531 16.183594 15.710938 15.945312 16.292969 C 15.9375 17.082031 15.949219 17.257812 16.238281 17.800781 C 16.546875 18.035156 16.847656 17.726562 17.085938 17.699219 Z M 18.707031 16.191406 C 18.757812 16.542969 18.816406 16.859375 18.886719 17.136719 C 18.953125 17.414062 19.015625 17.652344 19.074219 17.84375 C 19.136719 18.039062 19.1875 18.191406 19.226562 18.296875 C 19.273438 18.398438 19.296875 18.453125 19.296875 18.460938 C 19.300781 18.476562 19.304688 18.492188 19.304688 18.511719 C 19.308594 18.523438 19.3125 18.535156 19.3125 18.554688 C 19.3125 18.65625 19.269531 18.730469 19.175781 18.777344 C 19.132812 18.785156 18.890625 19.117188 18.871094 19.117188 C 18.761719 19.117188 18.691406 19.074219 18.65625 18.980469 C 18.511719 18.765625 18.589844 18.824219 18.492188 18.582031 C 18.402344 18.332031 18.304688 17.984375 18.203125 17.539062 C 18.113281 17.761719 18.148438 17.617188 18.023438 17.804688 C 17.90625 17.992188 17.835938 18.179688 17.691406 18.316406 C 17.554688 18.453125 17.410156 18.554688 17.257812 18.628906 C 17.109375 18.710938 16.960938 18.75 16.8125 18.75 C 16.234375 18.75 15.804688 18.550781 15.523438 18.152344 C 15.246094 17.753906 15.105469 17.144531 15.105469 16.316406 C 15.105469 15.976562 15.15625 15.675781 15.261719 15.414062 C 15.363281 15.144531 15.492188 14.914062 15.652344 14.714844 C 15.816406 14.515625 16 14.347656 16.199219 14.210938 C 16.402344 14.074219 16.601562 13.960938 16.796875 13.878906 C 16.988281 13.792969 17.167969 13.730469 17.332031 13.699219 C 17.5 13.660156 17.628906 13.636719 17.726562 13.636719 C 17.898438 13.636719 18.042969 13.671875 18.167969 13.742188 C 18.296875 13.804688 18.398438 13.878906 18.476562 13.960938 C 18.5625 14.042969 18.625 14.121094 18.664062 14.191406 C 18.703125 14.261719 18.722656 14.296875 18.722656 14.304688 C 18.742188 14.332031 18.75 14.363281 18.75 14.398438 C 18.75 14.453125 18.722656 14.515625 18.671875 14.578125 C 18.722656 14.84375 18.75 15.199219 18.75 15.636719 C 18.75 15.726562 18.746094 15.816406 18.734375 15.910156 C 18.726562 16 18.71875 16.09375 18.707031 16.191406 Z M 18.707031 16.191406 "/>
</g>
</svg>
