<?xml version="1.0" encoding="UTF-8"?>
<svg xmlns="http://www.w3.org/2000/svg" xmlns:xlink="http://www.w3.org/1999/xlink" width="24px" height="24px" viewBox="0 0 24 24" version="1.1">
<g id="surface1">
<path style=" stroke:none;fill-rule:nonzero;fill:rgb(33.333334%,34.117648%,32.549021%);fill-opacity:1;" d="M 10.5 1.5 C 8.015625 1.5 6 3.515625 6 6 L 6 9 L 3 10.5 L 3 12 L 6 12 L 6 18 C 6 18.828125 5.328125 19.5 4.5 19.5 C 3.671875 19.5 3 18.828125 3 18 L 1.5 18 L 1.5 21.332031 C 2.296875 22.050781 3.34375 22.5 4.5 22.5 C 6.984375 22.5 9 20.484375 9 18 L 9 12 L 12 10.5 L 12 9 L 9 9 L 9 6 C 9 5.171875 9.671875 4.5 10.5 4.5 C 11.328125 4.5 12 5.171875 12 6 L 13.5 6 L 13.5 2.667969 C 12.703125 1.949219 11.65625 1.5 10.5 1.5 Z M 21.75 9 C 21.195312 9 20.699219 9.226562 20.277344 9.601562 L 14.324219 15 L 16.5 15 L 21.195312 10.738281 C 21.425781 10.5 21.554688 10.5 21.75 10.5 L 22.5 10.5 L 22.5 11.25 C 22.5 11.671875 22.828125 12 23.25 12 C 23.671875 12 24 11.671875 24 11.25 L 24 10.5 C 24 9.449219 23.761719 9 22.5 9 Z M 12 15 L 12 16.5 L 14.25 18.75 L 12 21 L 12 22.5 L 13.5 22.5 L 15.75 20.25 L 18 22.5 L 19.5 22.5 L 19.5 21 L 17.25 18.75 L 19.5 16.5 L 19.5 15 L 18 15 L 15.75 17.25 L 13.5 15 Z M 12 15 "/>
</g>
</svg>
