<?xml version="1.0" encoding="UTF-8"?>
<svg xmlns="http://www.w3.org/2000/svg" xmlns:xlink="http://www.w3.org/1999/xlink" width="24px" height="24px" viewBox="0 0 24 24" version="1.1">
<g id="surface1">
<path style=" stroke:none;fill-rule:nonzero;fill:rgb(33.333334%,34.117648%,32.549021%);fill-opacity:1;" d="M 2.902344 1.5 C 2.125 1.5 1.5 2.125 1.5 2.902344 L 1.5 13.597656 C 1.5 14.375 2.125 15 2.902344 15 L 3 15 L 3 3 L 12.660156 3 L 7.5 8.855469 L 4.976562 6.621094 L 3 9 L 6 12 L 8.820312 12 L 15 4.992188 L 12.933594 3 L 15 3 L 15 9.050781 C 15.25 9.019531 15.5 9.003906 15.75 9 C 16 9 16.25 9.015625 16.5 9.046875 L 16.5 2.902344 C 16.5 2.125 15.875 1.5 15.097656 1.5 Z M 9 13.5 L 9 15 L 9.046875 15 C 9.105469 14.488281 9.222656 13.984375 9.394531 13.5 Z M 9 13.5 "/>
<path style=" stroke:none;fill-rule:nonzero;fill:rgb(33.333334%,34.117648%,32.549021%);fill-opacity:1;" d="M 15.75 9 C 12.316406 9.003906 9.429688 11.585938 9.050781 15 L 9.898438 15 C 10.105469 15 10.324219 15.046875 10.542969 15.109375 C 10.867188 12.480469 13.101562 10.503906 15.75 10.5 C 18.648438 10.5 21 12.851562 21 15.75 C 21 18.648438 18.648438 21 15.75 21 C 15.261719 21 14.777344 20.929688 14.3125 20.792969 C 13.828125 21.214844 13.445312 21.578125 13.082031 21.941406 C 13.921875 22.304688 14.832031 22.496094 15.75 22.5 C 19.476562 22.5 22.5 19.476562 22.5 15.75 C 22.5 12.023438 19.476562 9 15.75 9 Z M 15.75 12 C 13.679688 12 12 13.679688 12 15.75 C 12 15.855469 12.003906 15.964844 12.015625 16.070312 L 15.699219 19.496094 C 15.714844 19.5 15.734375 19.5 15.75 19.5 C 17.820312 19.5 19.5 17.820312 19.5 15.75 C 19.5 13.679688 17.820312 12 15.75 12 Z M 15.75 12 "/>
<path style=" stroke:none;fill-rule:nonzero;fill:rgb(33.333334%,34.117648%,32.549021%);fill-opacity:1;" d="M 4.5 13.5 L 7.5 13.5 L 7.5 18 L 9.148438 18 C 9.066406 17.84375 9 17.671875 9 17.5 L 9 16.5 L 9.898438 16.5 C 10.179688 16.5 10.398438 16.589844 10.574219 16.78125 L 13.5 19.5 C 12.226562 20.574219 11.851562 21.144531 10.574219 22.21875 C 10.398438 22.410156 10.179688 22.5 9.898438 22.5 L 9 22.5 L 9 21.5 C 9 21.328125 9.066406 21.15625 9.148438 21 L 6 21 C 5.171875 21 4.5 20.328125 4.5 19.5 Z M 4.5 13.5 "/>
</g>
</svg>
