<?xml version="1.0" encoding="UTF-8"?>
<svg xmlns="http://www.w3.org/2000/svg" xmlns:xlink="http://www.w3.org/1999/xlink" width="24px" height="24px" viewBox="0 0 24 24" version="1.1">
<g id="surface1">
<path style="fill-rule:nonzero;fill:rgb(94.117647%,89.019608%,92.54902%);fill-opacity:1;stroke-width:0.264583;stroke-linecap:round;stroke-linejoin:round;stroke:rgb(90.196079%,0.784314%,70.588237%);stroke-opacity:1;stroke-miterlimit:4;" d="M 0.396875 0.396875 L 3.836458 0.396875 L 3.836458 3.836459 L 0.396875 3.836459 L 0.396875 0.396875 " transform="matrix(5.669291,0,0,5.669291,0.00000135166,0)"/>
<path style="fill:none;stroke-width:0.264583;stroke-linecap:butt;stroke-linejoin:miter;stroke:rgb(90.196079%,0.784314%,70.588237%);stroke-opacity:1;stroke-miterlimit:4;" d="M 1.455208 0.396875 L 1.455208 3.836459 " transform="matrix(5.669291,0,0,5.669291,0.00000135166,0)"/>
<path style="fill:none;stroke-width:0.264583;stroke-linecap:butt;stroke-linejoin:miter;stroke:rgb(90.196079%,0.784314%,70.588237%);stroke-opacity:1;stroke-miterlimit:4;" d="M 2.778125 0.396875 L 2.778125 3.836459 " transform="matrix(5.669291,0,0,5.669291,0.00000135166,0)"/>
<path style="fill:none;stroke-width:0.264583;stroke-linecap:butt;stroke-linejoin:miter;stroke:rgb(90.196079%,0.784314%,70.588237%);stroke-opacity:1;stroke-miterlimit:4;" d="M 0.396875 1.190625 L 3.836458 1.190625 " transform="matrix(5.669291,0,0,5.669291,0.00000135166,0)"/>
<path style="fill:none;stroke-width:0.264583;stroke-linecap:butt;stroke-linejoin:miter;stroke:rgb(90.196079%,0.784314%,70.588237%);stroke-opacity:1;stroke-miterlimit:4;" d="M 0.396875 1.984375 L 3.836458 1.984375 " transform="matrix(5.669291,0,0,5.669291,0.00000135166,0)"/>
<path style="fill:none;stroke-width:0.264583;stroke-linecap:butt;stroke-linejoin:miter;stroke:rgb(90.196079%,0.784314%,70.588237%);stroke-opacity:1;stroke-miterlimit:4;" d="M 0.396875 2.778125 L 3.836458 2.778125 " transform="matrix(5.669291,0,0,5.669291,0.00000135166,0)"/>
<path style=" stroke:none;fill-rule:nonzero;fill:rgb(94.117647%,89.019608%,92.54902%);fill-opacity:1;" d="M 6 21 L 21 21 L 21 9.75 C 18 9.75 6 12.75 6 21 Z M 6 21 "/>
</g>
</svg>
