<?xml version="1.0" encoding="UTF-8"?>
<svg xmlns="http://www.w3.org/2000/svg" xmlns:xlink="http://www.w3.org/1999/xlink" width="24px" height="24px" viewBox="0 0 24 24" version="1.1">
<g id="surface1">
<path style=" stroke:none;fill-rule:nonzero;fill:rgb(33.333334%,34.117648%,32.549021%);fill-opacity:1;" d="M 4.5 1.5 C 2.84375 1.5 1.5 2.84375 1.5 4.5 C 1.5 5.953125 2.542969 7.195312 3.96875 7.449219 L 6.878906 17.382812 C 6.316406 17.945312 6 18.707031 6 19.5 C 6 21.15625 7.34375 22.5 9 22.5 C 10.070312 22.5 11.058594 21.925781 11.597656 21 L 16.90625 21 C 17.441406 21.925781 18.429688 22.5 19.5 22.5 C 21.15625 22.5 22.5 21.15625 22.5 19.5 C 22.5 18.429688 21.925781 17.441406 21 16.902344 L 21 7.09375 C 21.925781 6.558594 22.5 5.570312 22.5 4.5 C 22.5 2.84375 21.15625 1.5 19.5 1.5 C 18.429688 1.5 17.441406 2.074219 16.902344 3 L 7.09375 3 C 6.558594 2.074219 5.570312 1.5 4.5 1.5 Z M 7.097656 6 L 16.90625 6 C 17.167969 6.453125 17.546875 6.832031 18 7.097656 L 18 16.90625 C 17.546875 17.167969 17.167969 17.546875 16.902344 18 L 11.59375 18 C 11.167969 17.265625 10.457031 16.746094 9.628906 16.566406 L 6.699219 6.535156 C 6.851562 6.371094 6.984375 6.191406 7.097656 6 Z M 7.097656 6 "/>
</g>
</svg>
