<?xml version="1.0" encoding="UTF-8"?>
<svg xmlns="http://www.w3.org/2000/svg" xmlns:xlink="http://www.w3.org/1999/xlink" width="24px" height="24px" viewBox="0 0 24 24" version="1.1">
<g id="surface1">
<path style=" stroke:none;fill-rule:nonzero;fill:rgb(33.333334%,34.117648%,32.549021%);fill-opacity:1;" d="M 7.5 3 C 6.667969 3 6 3.667969 6 4.5 L 6 12 L 4.5 12 L 4.5 9 L 3 9 C 2.167969 9 1.5 9.667969 1.5 10.5 L 1.5 16.5 C 1.5 17.332031 2.167969 18.027344 3 18 L 4.5 18 L 4.5 15 L 6 15 L 6 19.5 C 6 20.332031 6.667969 21 7.5 21 L 16.5 21 C 17.332031 21 18 20.332031 18 19.5 L 18 15 L 19.5 15 L 19.5 18 L 21 18 C 21.832031 18 22.5 17.332031 22.5 16.5 L 22.5 10.5 C 22.5 9.667969 21.832031 9 21 9 L 19.5 9 L 19.5 12 L 18 12 L 18 7.5 L 13.5 3 Z M 7.5 4.5 L 12 4.5 L 12 9 L 16.5 9 L 16.5 12 L 7.5 12 Z M 7.5 15 L 16.5 15 L 16.5 19.5 L 7.5 19.5 Z M 7.5 15 "/>
</g>
</svg>
