<?xml version="1.0" encoding="UTF-8"?>
<svg xmlns="http://www.w3.org/2000/svg" xmlns:xlink="http://www.w3.org/1999/xlink" width="24px" height="24px" viewBox="0 0 24 24" version="1.1">
<g id="surface1">
<path style=" stroke:none;fill-rule:nonzero;fill:rgb(33.333334%,34.117648%,32.549021%);fill-opacity:1;" d="M 4.5 3 C 3.671875 3 3 3.671875 3 4.5 L 3 21 C 3 21.828125 3.671875 22.5 4.5 22.5 L 17.101562 22.5 C 15.8125 22.5 14.296875 22.09375 12.941406 21 L 6 21 L 6 7.5 L 19.5 7.5 L 19.5 12 L 20.121094 12 L 20.550781 12.449219 C 20.71875 12.601562 20.851562 12.75 21 12.925781 L 21 6 L 19.5 6 L 19.5 3 Z M 6 4.5 L 18 4.5 L 18 6 L 6 6 Z M 10.5 9 L 10.5 10.5 L 15 10.5 L 15 12 L 11.25 12 C 10.007812 12 9 13.007812 9 14.25 C 9 15.492188 10.007812 16.5 11.25 16.5 L 16.5 16.5 L 16.5 10.5 C 16.5 9.671875 15.828125 9 15 9 Z M 11.25 13.5 L 15 13.5 L 15 15 L 11.25 15 C 10.835938 15 10.5 14.664062 10.5 14.25 C 10.5 13.835938 10.835938 13.5 11.25 13.5 Z M 18 13.5 L 18 15 C 20.339844 17.398438 17.148438 20.25 15 18 L 13.5 18 L 13.5 19.5 C 14.699219 20.65625 15.960938 21 17.101562 21 L 19.5 21 L 22.5 24 L 24 24 L 24 22.5 L 21 19.5 L 21 17.101562 C 21 15.75 20.699219 14.699219 19.5 13.5 Z M 18 13.5 "/>
</g>
</svg>
