<?xml version="1.0" encoding="UTF-8"?>
<svg xmlns="http://www.w3.org/2000/svg" xmlns:xlink="http://www.w3.org/1999/xlink" width="24px" height="24px" viewBox="0 0 24 24" version="1.1">
<g id="surface1">
<path style=" stroke:none;fill-rule:nonzero;fill:rgb(33.333334%,34.117648%,32.549021%);fill-opacity:1;" d="M 12 1.5 C 6.148438 1.5 1.5 6.148438 1.5 12 C 1.5 17.851562 6.148438 22.5 12 22.5 L 12 19.5 C 7.859375 19.5 4.5 16.199219 4.5 12 C 4.5 7.859375 7.859375 4.5 12 4.5 C 15.921875 4.5 19.058594 7.429688 19.457031 11.1875 L 22.355469 13.675781 C 22.441406 13.128906 22.5 12.574219 22.5 12 C 22.5 6.148438 17.851562 1.5 12 1.5 Z M 12 7.5 C 9.515625 7.5 7.5 9.515625 7.5 12 C 7.5 14.484375 9.515625 16.5 12 16.5 Z M 13.5 8.058594 L 13.5 21.558594 L 16.5 18.558594 L 19.5 24 L 22.5 24 L 22.5 22.5 L 19.5 17.058594 L 24 17.058594 Z M 13.5 8.058594 "/>
</g>
</svg>
