<?xml version="1.0" encoding="UTF-8"?>
<svg xmlns="http://www.w3.org/2000/svg" xmlns:xlink="http://www.w3.org/1999/xlink" width="24px" height="24px" viewBox="0 0 24 24" version="1.1">
<g id="surface1">
<path style=" stroke:none;fill-rule:nonzero;fill:rgb(61.56863%,22.745098%,60.784316%);fill-opacity:1;" d="M 11.308594 4.5 L 12.691406 4.5 C 13.136719 4.5 13.5 4.871094 13.5 5.332031 L 13.5 20.167969 C 13.5 20.628906 13.136719 21 12.691406 21 L 11.308594 21 C 10.863281 21 10.5 20.628906 10.5 20.167969 L 10.5 5.332031 C 10.5 4.871094 10.863281 4.5 11.308594 4.5 Z M 11.308594 4.5 "/>
<path style=" stroke:none;fill-rule:nonzero;fill:rgb(61.56863%,22.745098%,60.784316%);fill-opacity:1;" d="M 11.542969 1.695312 L 3.160156 10.5625 C 2.933594 10.800781 2.949219 11.167969 3.191406 11.386719 L 3.6875 11.835938 C 3.910156 12.039062 4.253906 12.054688 4.496094 11.871094 C 4.496094 11.871094 11.300781 8.035156 12 7.5 C 12.699219 8.035156 19.503906 11.871094 19.503906 11.871094 C 19.746094 12.054688 20.089844 12.039062 20.3125 11.835938 L 20.808594 11.386719 C 21.050781 11.167969 21.066406 10.800781 20.839844 10.566406 L 12.457031 1.695312 C 12.339844 1.570312 12.175781 1.5 12 1.5 C 11.824219 1.5 11.660156 1.570312 11.542969 1.695312 Z M 11.542969 1.695312 "/>
</g>
</svg>
