<?xml version="1.0" encoding="UTF-8"?>
<svg xmlns="http://www.w3.org/2000/svg" xmlns:xlink="http://www.w3.org/1999/xlink" width="24px" height="24px" viewBox="0 0 24 24" version="1.1">
<g id="surface1">
<path style="fill-rule:nonzero;fill:rgb(94.117647%,89.019608%,92.54902%);fill-opacity:1;stroke-width:1;stroke-linecap:round;stroke-linejoin:miter;stroke:rgb(90.196079%,0.784314%,70.588237%);stroke-opacity:1;stroke-miterlimit:4;" d="M 3 2.5 L 13 2.5 C 13.828125 2.5 14.5 3.171875 14.5 4 L 14.5 12 C 14.5 12.828125 13.828125 13.5 13 13.5 L 3 13.5 C 2.171875 13.5 1.5 12.828125 1.5 12 L 1.5 4 C 1.5 3.171875 2.171875 2.5 3 2.5 Z M 3 2.5 " transform="matrix(1.5,0,0,1.5,0,0)"/>
<path style="fill:none;stroke-width:1;stroke-linecap:round;stroke-linejoin:miter;stroke:rgb(61.56863%,22.745098%,60.784316%);stroke-opacity:1;stroke-miterlimit:4;" d="M 36.790141 11.795193 C 35.740083 12.648079 34.446998 13.230426 33.007179 13.418428 C 28.861971 13.964091 25.056082 11.038601 24.515004 6.893392 C 24.414125 6.127629 24.432466 5.371037 24.551687 4.646542 M 25.464183 2.115397 C 26.000676 1.19373 26.72517 0.386698 27.596398 -0.241503 " transform="matrix(0.851887,0,0,0.851887,-14.591047,6.701827)"/>
<path style="fill-rule:nonzero;fill:rgb(95.294118%,71.764708%,85.09804%);fill-opacity:1;stroke-width:1;stroke-linecap:round;stroke-linejoin:miter;stroke:rgb(61.56863%,22.745098%,60.784316%);stroke-opacity:1;stroke-miterlimit:4;" d="M 37.358732 8.860532 C 36.450821 10.492938 34.809245 11.689729 32.814592 11.951097 C 29.476415 12.391296 26.417948 10.038982 25.982334 6.700805 C 25.542135 3.362628 27.894449 0.299575 31.232626 -0.136038 C 34.570804 -0.571652 37.629271 1.776077 38.06947 5.114254 C 38.124495 5.540697 38.133666 5.962554 38.106153 6.375241 " transform="matrix(0.851887,0,0,0.851887,-14.591047,6.701827)"/>
<path style="fill:none;stroke-width:1;stroke-linecap:round;stroke-linejoin:miter;stroke:rgb(61.56863%,22.745098%,60.784316%);stroke-opacity:1;stroke-miterlimit:4;" d="M 25.99609 -0.865118 L 27.811912 1.418415 " transform="matrix(0.851887,0,0,0.851887,-14.591047,6.701827)"/>
<path style="fill:none;stroke-width:1;stroke-linecap:round;stroke-linejoin:miter;stroke:rgb(61.56863%,22.745098%,60.784316%);stroke-opacity:1;stroke-miterlimit:4;" d="M 35.189834 11.542996 L 37.00107 13.831115 " transform="matrix(0.851887,0,0,0.851887,-14.591047,6.701827)"/>
<path style=" stroke:none;fill-rule:nonzero;fill:rgb(61.56863%,22.745098%,60.784316%);fill-opacity:1;" d="M 7.050781 9.5625 C 7.050781 9.832031 6.832031 10.050781 6.5625 10.050781 C 6.292969 10.050781 6.074219 9.832031 6.074219 9.5625 C 6.074219 9.289062 6.292969 9.070312 6.5625 9.070312 C 6.832031 9.070312 7.050781 9.289062 7.050781 9.5625 Z M 7.050781 9.5625 "/>
<path style=" stroke:none;fill-rule:nonzero;fill:rgb(61.56863%,22.745098%,60.784316%);fill-opacity:1;" d="M 18.207031 13.273438 C 18.207031 13.542969 17.988281 13.761719 17.71875 13.761719 C 17.445312 13.761719 17.226562 13.542969 17.226562 13.273438 C 17.226562 13 17.445312 12.78125 17.71875 12.78125 C 17.988281 12.78125 18.207031 13 18.207031 13.273438 Z M 18.207031 13.273438 "/>
<path style="fill-rule:nonzero;fill:rgb(61.56863%,22.745098%,60.784316%);fill-opacity:1;stroke-width:1;stroke-linecap:butt;stroke-linejoin:miter;stroke:rgb(61.56863%,22.745098%,60.784316%);stroke-opacity:1;stroke-miterlimit:4;" d="M 26.358338 10.236155 C 28.994947 9.708833 29.934956 8.66336 31.214285 6.966759 L 30.572328 6.200996 L 32.498199 5.999238 L 32.498199 8.498285 L 31.856242 7.732522 C 30.517303 9.286975 29.994566 10.735964 27.000295 11.001918 Z M 26.358338 10.236155 " transform="matrix(0.851887,0,0,0.851887,-14.591047,6.701827)"/>
<path style=" stroke:none;fill-rule:nonzero;fill:rgb(61.56863%,22.745098%,60.784316%);fill-opacity:1;" d="M 12.242188 10.960938 L 13.945312 10.960938 L 13.945312 12.664062 C 16.078125 10.109375 16.078125 9.683594 16.078125 7.554688 C 15.226562 7.554688 16.078125 7.554688 14.375 6.703125 C 14.375 8.832031 13.945312 10.109375 12.242188 10.960938 Z M 12.242188 10.960938 "/>
<path style="fill:none;stroke-width:1;stroke-linecap:butt;stroke-linejoin:miter;stroke:rgb(61.56863%,22.745098%,60.784316%);stroke-opacity:1;stroke-miterlimit:4;" d="M 27.999914 1.500952 L 36.001451 10.502108 " transform="matrix(0.851887,0,0,0.851887,-14.591047,6.701827)"/>
<path style="fill:none;stroke-width:1;stroke-linecap:butt;stroke-linejoin:miter;stroke:rgb(61.56863%,22.745098%,60.784316%);stroke-opacity:1;stroke-miterlimit:4;" d="M 28.059524 1.450513 C 30.998771 -1.497905 39.999927 6.998857 36.001451 10.502108 C 31.99839 14.000775 25.115692 4.39893 28.059524 1.450513 Z M 28.059524 1.450513 " transform="matrix(0.851887,0,0,0.851887,-14.591047,6.701827)"/>
<path style="fill:none;stroke-width:1;stroke-linecap:butt;stroke-linejoin:miter;stroke:rgb(61.56863%,22.745098%,60.784316%);stroke-opacity:1;stroke-miterlimit:4;" d="M 26.000676 7.498666 L 33.497818 0.0015239 " transform="matrix(0.851887,0,0,0.851887,-14.591047,6.701827)"/>
<path style="fill:none;stroke-width:1;stroke-linecap:butt;stroke-linejoin:miter;stroke:rgb(61.56863%,22.745098%,60.784316%);stroke-opacity:1;stroke-miterlimit:4;" d="M 31.49858 12.001537 L 38.000689 4.499809 " transform="matrix(0.851887,0,0,0.851887,-14.591047,6.701827)"/>
</g>
</svg>
