<?xml version="1.0" encoding="UTF-8"?>
<svg xmlns="http://www.w3.org/2000/svg" xmlns:xlink="http://www.w3.org/1999/xlink" width="24px" height="24px" viewBox="0 0 24 24" version="1.1">
<g id="surface1">
<path style="fill-rule:nonzero;fill:rgb(95.294118%,71.764708%,85.09804%);fill-opacity:1;stroke-width:1;stroke-linecap:round;stroke-linejoin:round;stroke:rgb(90.196079%,0.784314%,70.588237%);stroke-opacity:1;stroke-miterlimit:4;" d="M 8 1 C 5.5 1 3.510417 2.057292 3.5 7 L 6 7 C 6 4.5 6.5 3.5 8 3.5 C 9.5 3.5 10 4.5 10 5.5 L 12.5 5.5 C 12.5 2 10.5 1 8 1 Z M 8 1 " transform="matrix(1.5,0,0,1.5,0,0)"/>
<path style="fill-rule:nonzero;fill:rgb(95.294118%,71.764708%,85.09804%);fill-opacity:1;stroke-width:1;stroke-linecap:round;stroke-linejoin:round;stroke:rgb(90.196079%,0.784314%,70.588237%);stroke-opacity:1;stroke-miterlimit:4;" d="M 3.119792 7.036458 L 12.880208 7.036458 C 13.5 7.036458 14 7.536458 14 8.153646 L 14 13.880208 C 14 14.5 13.5 15 12.880208 15 L 3.119792 15 C 2.5 15 2 14.5 2 13.880208 L 2 8.153646 C 2 7.536458 2.5 7.036458 3.119792 7.036458 Z M 3.119792 7.036458 " transform="matrix(1.5,0,0,1.5,0,0)"/>
<path style=" stroke:none;fill-rule:nonzero;fill:rgb(94.117647%,89.019608%,92.54902%);fill-opacity:1;" d="M 9.722656 12.519531 C 9.320312 12.535156 8.90625 12.683594 8.511719 13.015625 C 7.792969 13.621094 7.378906 14.917969 7.511719 15.820312 C 7.734375 17.304688 9.230469 18.683594 12.007812 20.765625 C 14.78125 18.683594 16.277344 17.304688 16.5 15.820312 C 16.632812 14.917969 16.21875 13.621094 15.5 13.015625 C 13.929688 11.691406 12.007812 13.335938 12.007812 14.226562 C 12.007812 13.558594 10.925781 12.464844 9.722656 12.519531 Z M 9.722656 12.519531 "/>
<path style=" stroke:none;fill-rule:nonzero;fill:rgb(61.56863%,22.745098%,60.784316%);fill-opacity:1;" d="M 10.25 13.691406 C 9.941406 13.703125 9.621094 13.820312 9.320312 14.074219 C 8.769531 14.535156 8.449219 15.53125 8.554688 16.222656 C 8.722656 17.363281 9.871094 18.417969 12 20.015625 C 14.128906 18.417969 15.277344 17.363281 15.445312 16.222656 C 15.550781 15.53125 15.230469 14.535156 14.679688 14.074219 C 13.472656 13.058594 12 14.316406 12 15 C 12 14.488281 11.171875 13.648438 10.25 13.691406 Z M 10.25 13.691406 "/>
</g>
</svg>
