<?xml version="1.0" encoding="UTF-8"?>
<svg xmlns="http://www.w3.org/2000/svg" xmlns:xlink="http://www.w3.org/1999/xlink" width="24px" height="24px" viewBox="0 0 24 24" version="1.1">
<g id="surface1">
<path style="fill-rule:evenodd;fill:rgb(94.117647%,89.019608%,92.54902%);fill-opacity:1;stroke-width:1;stroke-linecap:round;stroke-linejoin:round;stroke:rgb(90.196079%,0.784314%,70.588237%);stroke-opacity:1;stroke-miterlimit:4;" d="M 4.507812 1.546875 L 13.5 1.546875 C 14.052083 1.546875 14.5 1.994792 14.5 2.546875 L 14.5 13.523438 C 14.5 14.078125 14.052083 14.523438 13.5 14.523438 L 4.507812 14.523438 C 3.953125 14.523438 3.507812 14.078125 3.507812 13.523438 L 3.507812 2.546875 C 3.507812 1.994792 3.953125 1.546875 4.507812 1.546875 Z M 4.507812 1.546875 " transform="matrix(1.5,0,0,1.5,0,0)"/>
<path style="fill-rule:nonzero;fill:rgb(61.56863%,22.745098%,60.784316%);fill-opacity:1;stroke-width:0.25;stroke-linecap:butt;stroke-linejoin:miter;stroke:rgb(61.56863%,22.745098%,60.784316%);stroke-opacity:1;stroke-miterlimit:4;" d="M 5.067708 4.877604 C 5.101562 4.486979 5.380208 4.203125 5.726562 4.203125 C 5.955729 4.203125 6.166667 4.328125 6.286458 4.526042 C 6.403646 4.325521 6.606771 4.203125 6.833333 4.203125 C 7.179688 4.203125 7.458333 4.486979 7.492188 4.877604 C 7.494792 4.895833 7.507812 4.986979 7.471354 5.135417 C 7.421875 5.348958 7.304688 5.544271 7.135417 5.697917 L 6.286458 6.46875 L 5.424479 5.697917 C 5.255208 5.544271 5.138021 5.348958 5.088542 5.135417 C 5.052083 4.986979 5.065104 4.895833 5.067708 4.877604 Z M 5.179688 5.114583 C 5.223958 5.309896 5.330729 5.486979 5.486979 5.627604 L 6.286458 6.34375 L 7.072917 5.630208 C 7.229167 5.486979 7.335938 5.309896 7.380208 5.114583 C 7.414062 4.973958 7.401042 4.893229 7.401042 4.893229 L 7.401042 4.888021 C 7.369792 4.546875 7.132812 4.296875 6.833333 4.296875 C 6.614583 4.296875 6.421875 4.432292 6.330729 4.648438 L 6.286458 4.752604 L 6.244792 4.648438 C 6.153646 4.434896 5.950521 4.296875 5.726562 4.296875 C 5.429688 4.296875 5.190104 4.546875 5.158854 4.893229 C 5.158854 4.893229 5.145833 4.973958 5.179688 5.114583 Z M 5.179688 5.114583 " transform="matrix(1.5,0,0,1.5,0,0)"/>
<path style="fill:none;stroke-width:1;stroke-linecap:round;stroke-linejoin:miter;stroke:rgb(90.196079%,0.784314%,70.588237%);stroke-opacity:1;stroke-miterlimit:4;" d="M 8.492188 7.471354 L 12.533854 7.471354 " transform="matrix(1.5,0,0,1.5,0,0)"/>
<path style="fill:none;stroke-width:1;stroke-linecap:round;stroke-linejoin:miter;stroke:rgb(90.196079%,0.784314%,70.588237%);stroke-opacity:1;stroke-miterlimit:4;" d="M 8.481771 9.247396 L 12.520833 9.247396 " transform="matrix(1.5,0,0,1.5,0,0)"/>
<path style="fill:none;stroke-width:1;stroke-linecap:round;stroke-linejoin:miter;stroke:rgb(90.196079%,0.784314%,70.588237%);stroke-opacity:1;stroke-miterlimit:4;" d="M 8.510417 10.994792 L 12.552083 10.994792 " transform="matrix(1.5,0,0,1.5,0,0)"/>
<path style="fill-rule:evenodd;fill:rgb(94.117647%,89.019608%,92.54902%);fill-opacity:1;stroke-width:1;stroke-linecap:round;stroke-linejoin:miter;stroke:rgb(94.117647%,89.019608%,92.54902%);stroke-opacity:1;stroke-miterlimit:4;" d="M 3.5 7.5 L 6 7.5 L 6 11.5 L 3.5 11.5 Z M 3.5 7.5 " transform="matrix(1.5,0,0,1.5,0,0)"/>
<path style="fill-rule:evenodd;fill:rgb(61.56863%,22.745098%,60.784316%);fill-opacity:1;stroke-width:1;stroke-linecap:round;stroke-linejoin:round;stroke:rgb(61.56863%,22.745098%,60.784316%);stroke-opacity:1;stroke-miterlimit:4;" d="M 2.601562 8.570312 L 5 8.570312 C 5.552083 8.570312 6 8.960938 6 9.445312 L 6 9.625 C 6 10.109375 5.552083 10.5 5 10.5 L 2.601562 10.5 C 2.049479 10.5 1.601562 10.109375 1.601562 9.625 L 1.601562 9.445312 C 1.601562 8.960938 2.049479 8.570312 2.601562 8.570312 Z M 2.601562 8.570312 " transform="matrix(1.5,0,0,1.5,0,0)"/>
</g>
</svg>
