<?xml version="1.0" encoding="UTF-8"?>
<svg xmlns="http://www.w3.org/2000/svg" xmlns:xlink="http://www.w3.org/1999/xlink" width="24px" height="24px" viewBox="0 0 24 24" version="1.1">
<g id="surface1">
<path style="fill-rule:nonzero;fill:rgb(95.294118%,71.764708%,85.09804%);fill-opacity:1;stroke-width:0.7;stroke-linecap:round;stroke-linejoin:round;stroke:rgb(90.196079%,0.784314%,70.588237%);stroke-opacity:1;stroke-miterlimit:4;" d="M 3.757812 4.453125 L 4.835938 3.408854 L 14.585938 13.463542 C 15.278646 14.177083 14.200521 15.221354 13.5 14.5 Z M 3.757812 4.453125 " transform="matrix(1.5,0,0,1.5,0,0)"/>
<path style="fill-rule:nonzero;fill:rgb(95.294118%,71.764708%,85.09804%);fill-opacity:1;stroke-width:1;stroke-linecap:butt;stroke-linejoin:miter;stroke:rgb(90.196079%,0.784314%,70.588237%);stroke-opacity:1;stroke-miterlimit:4;" d="M 6.544271 7.322917 L 7.619792 6.278646 " transform="matrix(1.5,0,0,1.5,0,0)"/>
<path style="fill-rule:nonzero;fill:rgb(95.294118%,71.764708%,85.09804%);fill-opacity:1;stroke-width:1;stroke-linecap:butt;stroke-linejoin:miter;stroke:rgb(90.196079%,0.784314%,70.588237%);stroke-opacity:1;stroke-miterlimit:4;" d="M 7.588542 8.401042 L 8.664062 7.356771 " transform="matrix(1.5,0,0,1.5,0,0)"/>
<path style=" stroke:none;fill-rule:nonzero;fill:rgb(90.196079%,0.784314%,70.588237%);fill-opacity:1;" d="M 15.609375 5.660156 L 14.25 4.5 L 12.496094 4.824219 L 13.652344 3.46875 L 13.328125 1.710938 L 14.6875 2.871094 L 16.441406 2.546875 L 15.28125 3.902344 Z M 15.609375 5.660156 "/>
<path style=" stroke:none;fill-rule:nonzero;fill:rgb(90.196079%,0.784314%,70.588237%);fill-opacity:1;" d="M 21.585938 4.769531 L 20.722656 4.035156 L 19.609375 4.238281 L 20.34375 3.378906 L 20.136719 2.265625 L 21 3 L 22.113281 2.792969 L 21.378906 3.65625 Z M 21.585938 4.769531 "/>
<path style=" stroke:none;fill-rule:nonzero;fill:rgb(95.294118%,71.764708%,85.09804%);fill-opacity:1;" d="M 18.390625 5.332031 C 18.332031 5.4375 18.273438 5.539062 18.195312 5.636719 C 18.210938 5.640625 18.226562 5.644531 18.242188 5.644531 C 20.148438 5.871094 21.1875 6.96875 21.421875 7.820312 C 21.65625 8.675781 20.882812 9.542969 19.324219 10.582031 C 17.765625 11.625 15.402344 12.625 12.648438 13.273438 C 9.894531 13.921875 7.300781 14.09375 5.394531 13.867188 C 3.488281 13.640625 2.363281 13.222656 2.128906 12.371094 C 1.894531 11.515625 2.234375 10.089844 3.792969 9.046875 C 5.351562 8.003906 8 6.738281 10.753906 6.089844 C 11.460938 6.078125 11.273438 5.71875 10.722656 5.84375 C 7.640625 6.570312 4.808594 7.550781 2.921875 8.808594 C 1.039062 10.070312 -0.0742188 11.523438 0.277344 12.800781 C 0.628906 14.082031 2.355469 14.871094 4.660156 15.144531 C 6.964844 15.417969 9.945312 15.375 13.027344 14.648438 C 16.109375 13.921875 18.746094 12.640625 20.628906 11.378906 C 22.511719 10.121094 22.671875 8.722656 22.320312 7.441406 C 21.972656 6.183594 20.660156 5.378906 18.390625 5.332031 Z M 18.390625 5.332031 "/>
<path style="fill-rule:nonzero;fill:rgb(95.294118%,71.764708%,85.09804%);fill-opacity:1;stroke-width:0.7;stroke-linecap:butt;stroke-linejoin:miter;stroke:rgb(90.196079%,0.784314%,70.588237%);stroke-opacity:1;stroke-miterlimit:4;" d="M 2.390625 1.601562 C 2.820312 1.208333 3.830729 2.200521 4.411458 2.135417 C 4.992188 2.070312 5.755208 0.877604 6.263021 1.166667 C 6.770833 1.453125 6.138021 2.721354 6.380208 3.252604 C 6.619792 3.786458 7.992188 4.143229 7.875 4.716146 C 7.757812 5.289062 6.356771 5.078125 5.924479 5.471354 C 5.494792 5.864583 5.575521 7.278646 4.997396 7.346354 C 4.416667 7.411458 4.182292 6.013021 3.674479 5.723958 C 3.166667 5.434896 1.848958 5.953125 1.606771 5.419271 C 1.364583 4.888021 2.622396 4.234375 2.739583 3.664062 C 2.856771 3.091146 1.958333 1.994792 2.390625 1.601562 Z M 2.390625 1.601562 " transform="matrix(1.5,0,0,1.5,0,0)"/>
<path style=" stroke:none;fill-rule:nonzero;fill:rgb(61.56863%,22.745098%,60.784316%);fill-opacity:1;" d="M 5.554688 4.585938 C 5.832031 4.332031 6.492188 4.976562 6.867188 4.933594 C 7.246094 4.890625 7.742188 4.117188 8.074219 4.304688 C 8.402344 4.492188 7.992188 5.316406 8.148438 5.660156 C 8.304688 6.007812 9.199219 6.242188 9.121094 6.613281 C 9.046875 6.984375 8.132812 6.847656 7.851562 7.105469 C 7.574219 7.359375 7.625 8.28125 7.25 8.324219 C 6.871094 8.367188 6.71875 7.457031 6.390625 7.269531 C 6.058594 7.082031 5.199219 7.417969 5.042969 7.070312 C 4.886719 6.726562 5.703125 6.300781 5.78125 5.925781 C 5.859375 5.554688 5.273438 4.84375 5.554688 4.585938 Z M 5.554688 4.585938 "/>
<path style=" stroke:none;fill-rule:nonzero;fill:rgb(90.196079%,0.784314%,70.588237%);fill-opacity:1;" d="M 3.113281 12.734375 L 2.25 12 L 1.136719 12.207031 L 1.871094 11.34375 L 1.664062 10.230469 L 2.527344 10.964844 L 3.640625 10.761719 L 2.90625 11.621094 Z M 3.113281 12.734375 "/>
<path style=" stroke:none;fill-rule:nonzero;fill:rgb(90.196079%,0.784314%,70.588237%);fill-opacity:1;" d="M 7.121094 18.496094 L 5.574219 17.179688 L 3.578125 17.546875 L 4.898438 16.003906 L 4.527344 14.007812 L 6.070312 15.324219 L 8.070312 14.957031 L 6.75 16.5 Z M 7.121094 18.496094 "/>
<path style=" stroke:none;fill-rule:nonzero;fill:rgb(90.196079%,0.784314%,70.588237%);fill-opacity:1;" d="M 19.824219 10.753906 L 18.46875 9.597656 L 16.710938 9.921875 L 17.871094 8.5625 L 17.546875 6.808594 L 18.902344 7.96875 L 20.660156 7.640625 L 19.5 9 Z M 19.824219 10.753906 "/>
</g>
</svg>
