<?xml version="1.0" encoding="UTF-8"?>
<svg xmlns="http://www.w3.org/2000/svg" xmlns:xlink="http://www.w3.org/1999/xlink" width="24px" height="24px" viewBox="0 0 24 24" version="1.1">
<g id="surface1">
<path style=" stroke:none;fill-rule:nonzero;fill:rgb(33.333334%,34.117648%,32.549021%);fill-opacity:1;" d="M 13.5 0 L 13.5 7.5 L 22.5 7.5 L 22.5 0 Z M 16.5 3 L 19.5 3 L 19.5 4.5 L 16.5 4.5 Z M 3.28125 6 C 2.289062 6 1.5 6.824219 1.5 7.828125 L 1.5 14.671875 C 1.5 15.675781 2.289062 16.5 3.28125 16.5 L 10.5 16.5 C 11.492188 16.5 12 15.675781 12 14.671875 L 12 7.828125 C 12 6.824219 11.492188 6 10.5 6 Z M 3 7.5 L 4.5 7.5 L 6.75 9.75 L 9 7.5 L 10.5 7.5 L 10.5 9 L 8.25 11.25 L 10.5 13.5 L 10.5 15 L 9 15 L 6.75 12.75 L 4.5 15 L 3 15 L 3 13.5 L 5.25 11.25 L 3 9 Z M 13.5 15 L 13.5 22.5 L 22.5 22.5 L 22.5 15 Z M 16.5 18 L 19.5 18 L 19.5 19.5 L 16.5 19.5 Z M 16.5 18 "/>
</g>
</svg>
