<?xml version="1.0" encoding="UTF-8"?>
<svg xmlns="http://www.w3.org/2000/svg" xmlns:xlink="http://www.w3.org/1999/xlink" width="24px" height="24px" viewBox="0 0 24 24" version="1.1">
<g id="surface1">
<path style=" stroke:none;fill-rule:nonzero;fill:rgb(61.56863%,22.745098%,60.784316%);fill-opacity:1;" d="M 12.695312 1.5 L 12.804688 1.5 C 13.1875 1.5 13.5 1.792969 13.5 2.15625 L 13.5 21.84375 C 13.5 22.207031 13.1875 22.5 12.804688 22.5 L 12.695312 22.5 C 12.3125 22.5 12 22.207031 12 21.84375 L 12 2.15625 C 12 1.792969 12.3125 1.5 12.695312 1.5 Z M 12.695312 1.5 "/>
<path style=" stroke:none;fill-rule:nonzero;fill:rgb(90.196079%,0.784314%,70.588237%);fill-opacity:1;" d="M 15.523438 3 L 21.976562 3 C 22.265625 3 22.5 3.304688 22.5 3.679688 L 22.5 3.820312 C 22.5 4.195312 22.265625 4.5 21.976562 4.5 L 15.523438 4.5 C 15.234375 4.5 15 4.195312 15 3.820312 L 15 3.679688 C 15 3.304688 15.234375 3 15.523438 3 Z M 15.523438 3 "/>
<path style=" stroke:none;fill-rule:nonzero;fill:rgb(90.196079%,0.784314%,70.588237%);fill-opacity:1;" d="M 15.523438 6 L 20.820312 6 C 21.113281 6 21.347656 6.304688 21.347656 6.679688 L 21.347656 6.820312 C 21.347656 7.195312 21.113281 7.5 20.820312 7.5 L 15.523438 7.5 C 15.234375 7.5 15 7.195312 15 6.820312 L 15 6.679688 C 15 6.304688 15.234375 6 15.523438 6 Z M 15.523438 6 "/>
<path style=" stroke:none;fill-rule:nonzero;fill:rgb(90.196079%,0.784314%,70.588237%);fill-opacity:1;" d="M 15.523438 9 L 21.976562 9 C 22.265625 9 22.5 9.304688 22.5 9.679688 L 22.5 9.820312 C 22.5 10.195312 22.265625 10.5 21.976562 10.5 L 15.523438 10.5 C 15.234375 10.5 15 10.195312 15 9.820312 L 15 9.679688 C 15 9.304688 15.234375 9 15.523438 9 Z M 15.523438 9 "/>
<path style=" stroke:none;fill-rule:nonzero;fill:rgb(90.196079%,0.784314%,70.588237%);fill-opacity:1;" d="M 15.523438 12 L 20.820312 12 C 21.113281 12 21.347656 12.167969 21.347656 12.375 L 21.347656 13.125 C 21.347656 13.332031 21.113281 13.5 20.820312 13.5 L 15.523438 13.5 C 15.234375 13.5 15 13.332031 15 13.125 L 15 12.375 C 15 12.167969 15.234375 12 15.523438 12 Z M 15.523438 12 "/>
<path style=" stroke:none;fill-rule:nonzero;fill:rgb(90.196079%,0.784314%,70.588237%);fill-opacity:1;" d="M 15.523438 15 L 21.976562 15 C 22.265625 15 22.5 15.304688 22.5 15.679688 L 22.5 15.820312 C 22.5 16.195312 22.265625 16.5 21.976562 16.5 L 15.523438 16.5 C 15.234375 16.5 15 16.195312 15 15.820312 L 15 15.679688 C 15 15.304688 15.234375 15 15.523438 15 Z M 15.523438 15 "/>
<path style=" stroke:none;fill-rule:nonzero;fill:rgb(90.196079%,0.784314%,70.588237%);fill-opacity:1;" d="M 15.523438 18 L 20.820312 18 C 21.113281 18 21.347656 18.292969 21.347656 18.652344 L 21.347656 18.847656 C 21.347656 19.207031 21.113281 19.5 20.820312 19.5 L 15.523438 19.5 C 15.234375 19.5 15 19.207031 15 18.847656 L 15 18.652344 C 15 18.292969 15.234375 18 15.523438 18 Z M 15.523438 18 "/>
<path style=" stroke:none;fill-rule:nonzero;fill:rgb(90.196079%,0.784314%,70.588237%);fill-opacity:1;" d="M 15.523438 21 L 21.976562 21 C 22.265625 21 22.5 21.304688 22.5 21.679688 L 22.5 21.820312 C 22.5 22.195312 22.265625 22.5 21.976562 22.5 L 15.523438 22.5 C 15.234375 22.5 15 22.195312 15 21.820312 L 15 21.679688 C 15 21.304688 15.234375 21 15.523438 21 Z M 15.523438 21 "/>
<path style=" stroke:none;fill-rule:nonzero;fill:rgb(90.196079%,0.784314%,70.588237%);fill-opacity:1;" d="M 9.191406 3 L 2.328125 3 C 2.023438 3 1.773438 3.304688 1.773438 3.679688 L 1.773438 3.820312 C 1.773438 4.195312 2.023438 4.5 2.328125 4.5 L 9.191406 4.5 C 9.5 4.5 9.75 4.195312 9.75 3.820312 L 9.75 3.679688 C 9.75 3.304688 9.5 3 9.191406 3 Z M 9.191406 3 "/>
<path style=" stroke:none;fill-rule:nonzero;fill:rgb(90.196079%,0.784314%,70.588237%);fill-opacity:1;" d="M 9.191406 6 L 3.558594 6 C 3.25 6 3 6.304688 3 6.679688 L 3 6.820312 C 3 7.195312 3.25 7.5 3.558594 7.5 L 9.191406 7.5 C 9.5 7.5 9.75 7.195312 9.75 6.820312 L 9.75 6.679688 C 9.75 6.304688 9.5 6 9.191406 6 Z M 9.191406 6 "/>
<path style=" stroke:none;fill-rule:nonzero;fill:rgb(90.196079%,0.784314%,70.588237%);fill-opacity:1;" d="M 9.191406 9 L 2.328125 9 C 2.023438 9 1.773438 9.304688 1.773438 9.679688 L 1.773438 9.820312 C 1.773438 10.195312 2.023438 10.5 2.328125 10.5 L 9.191406 10.5 C 9.5 10.5 9.75 10.195312 9.75 9.820312 L 9.75 9.679688 C 9.75 9.304688 9.5 9 9.191406 9 Z M 9.191406 9 "/>
<path style=" stroke:none;fill-rule:nonzero;fill:rgb(90.196079%,0.784314%,70.588237%);fill-opacity:1;" d="M 9.191406 12 L 3.558594 12 C 3.25 12 3 12.167969 3 12.375 L 3 13.125 C 3 13.332031 3.25 13.5 3.558594 13.5 L 9.191406 13.5 C 9.5 13.5 9.75 13.332031 9.75 13.125 L 9.75 12.375 C 9.75 12.167969 9.5 12 9.191406 12 Z M 9.191406 12 "/>
<path style=" stroke:none;fill-rule:nonzero;fill:rgb(90.196079%,0.784314%,70.588237%);fill-opacity:1;" d="M 9.191406 15 L 2.328125 15 C 2.023438 15 1.773438 15.304688 1.773438 15.679688 L 1.773438 15.820312 C 1.773438 16.195312 2.023438 16.5 2.328125 16.5 L 9.191406 16.5 C 9.5 16.5 9.75 16.195312 9.75 15.820312 L 9.75 15.679688 C 9.75 15.304688 9.5 15 9.191406 15 Z M 9.191406 15 "/>
<path style=" stroke:none;fill-rule:nonzero;fill:rgb(90.196079%,0.784314%,70.588237%);fill-opacity:1;" d="M 9.191406 18 L 3.558594 18 C 3.25 18 3 18.292969 3 18.652344 L 3 18.847656 C 3 19.207031 3.25 19.5 3.558594 19.5 L 9.191406 19.5 C 9.5 19.5 9.75 19.207031 9.75 18.847656 L 9.75 18.652344 C 9.75 18.292969 9.5 18 9.191406 18 Z M 9.191406 18 "/>
<path style=" stroke:none;fill-rule:nonzero;fill:rgb(90.196079%,0.784314%,70.588237%);fill-opacity:1;" d="M 9.191406 21 L 2.328125 21 C 2.023438 21 1.773438 21.304688 1.773438 21.679688 L 1.773438 21.820312 C 1.773438 22.195312 2.023438 22.5 2.328125 22.5 L 9.191406 22.5 C 9.5 22.5 9.75 22.195312 9.75 21.820312 L 9.75 21.679688 C 9.75 21.304688 9.5 21 9.191406 21 Z M 9.191406 21 "/>
</g>
</svg>
