<?xml version="1.0" encoding="UTF-8"?>
<svg xmlns="http://www.w3.org/2000/svg" xmlns:xlink="http://www.w3.org/1999/xlink" width="24px" height="24px" viewBox="0 0 24 24" version="1.1">
<g id="surface1">
<path style="fill-rule:nonzero;fill:rgb(94.117647%,89.019608%,92.54902%);fill-opacity:1;stroke-width:1;stroke-linecap:round;stroke-linejoin:round;stroke:rgb(61.56863%,22.745098%,60.784316%);stroke-opacity:1;stroke-miterlimit:4;" d="M 10.434896 2.5 L 5.132812 2.5 C 3.447917 2.5 2.091146 3.856771 2.091146 5.541667 L 2.091146 8.403646 C 2.091146 9.895833 2.713542 11.179688 4.125 11.445312 C 4.309896 11.479167 3.5625 14 3.71875 13.885417 L 7 11.445312 L 10.434896 11.445312 C 12.119792 11.445312 13.476562 10.088542 13.476562 8.403646 L 13.476562 5.541667 C 13.476562 3.856771 12.119792 2.5 10.434896 2.5 Z M 10.434896 2.5 " transform="matrix(1.5,0,0,1.5,0,0)"/>
<path style="fill:none;stroke-width:1;stroke-linecap:round;stroke-linejoin:round;stroke:rgb(90.196079%,0.784314%,70.588237%);stroke-opacity:1;stroke-miterlimit:4;" d="M 5.5 4.5 L 5.5 9.5 " transform="matrix(1.5,0,0,1.5,0,0)"/>
<path style="fill:none;stroke-width:1;stroke-linecap:round;stroke-linejoin:round;stroke:rgb(90.196079%,0.784314%,70.588237%);stroke-opacity:1;stroke-miterlimit:4;" d="M 7.5 4.5 L 7.5 9.5 " transform="matrix(1.5,0,0,1.5,0,0)"/>
<path style="fill:none;stroke-width:1;stroke-linecap:round;stroke-linejoin:round;stroke:rgb(90.196079%,0.784314%,70.588237%);stroke-opacity:1;stroke-miterlimit:4;" d="M 9.5 4.5 L 9.5 9.5 " transform="matrix(1.5,0,0,1.5,0,0)"/>
</g>
</svg>
