<?xml version="1.0" encoding="UTF-8"?>
<svg xmlns="http://www.w3.org/2000/svg" xmlns:xlink="http://www.w3.org/1999/xlink" width="24px" height="24px" viewBox="0 0 24 24" version="1.1">
<g id="surface1">
<path style=" stroke:none;fill-rule:nonzero;fill:rgb(33.333334%,34.117648%,32.549021%);fill-opacity:1;" d="M 3 1.5 C 2.167969 1.5 1.5 2.167969 1.5 3 L 1.5 21 C 1.5 21.832031 2.167969 22.5 3 22.5 L 7.5 22.5 L 7.5 19.5 L 4.5 19.5 L 4.5 16.5 L 7.5 16.5 L 7.5 13.5 L 4.5 13.5 L 4.5 10.5 L 19.5 10.5 L 19.5 12 L 22.5 12 L 22.5 3 C 22.5 2.167969 21.832031 1.5 21 1.5 Z M 4.5 4.5 L 12 4.5 L 12 7.5 L 4.5 7.5 Z M 9 13.5 L 9 24 L 24 24 L 24 13.5 Z M 10.5 15 L 13.5 15 L 13.5 18 L 10.5 18 Z M 15 15 L 18 15 L 18 18 L 15 18 Z M 19.5 15 L 22.5 15 L 22.5 18 L 19.5 18 Z M 10.5 19.5 L 13.5 19.5 L 13.5 22.5 L 10.5 22.5 Z M 15 19.5 L 18 19.5 L 18 22.5 L 15 22.5 Z M 19.5 19.5 L 22.5 19.5 L 22.5 22.5 L 19.5 22.5 Z M 19.5 19.5 "/>
</g>
</svg>
