<?xml version="1.0" encoding="UTF-8"?>
<svg xmlns="http://www.w3.org/2000/svg" xmlns:xlink="http://www.w3.org/1999/xlink" width="24px" height="24px" viewBox="0 0 24 24" version="1.1">
<defs>
<filter id="alpha" filterUnits="objectBoundingBox" x="0%" y="0%" width="100%" height="100%">
  <feColorMatrix type="matrix" in="SourceGraphic" values="0 0 0 0 1 0 0 0 0 1 0 0 0 0 1 0 0 0 1 0"/>
</filter>
<mask id="mask0">
  <g filter="url(#alpha)">
<rect x="0" y="0" width="24" height="24" style="fill:rgb(0%,0%,0%);fill-opacity:0.35;stroke:none;"/>
  </g>
</mask>
<clipPath id="clip1">
  <rect x="0" y="0" width="24" height="24"/>
</clipPath>
<g id="surface5" clip-path="url(#clip1)">
<path style=" stroke:none;fill-rule:nonzero;fill:rgb(33.333334%,34.117648%,32.549021%);fill-opacity:1;" d="M 12 10.5 L 12 13.5 L 16.5 13.5 L 16.5 10.5 Z M 7.5 15 L 7.5 18 L 13.5 18 L 13.5 15 Z M 7.5 15 "/>
</g>
</defs>
<g id="surface1">
<path style=" stroke:none;fill-rule:nonzero;fill:rgb(33.333334%,34.117648%,32.549021%);fill-opacity:1;" d="M 19.5 0 C 19.035156 0 18.671875 0.136719 18.375 0.421875 L 15 3.246094 L 15 5.667969 C 16.085938 6.597656 16.851562 7.421875 18.375 8.578125 C 18.671875 8.863281 19.035156 9 19.5 9 L 21 9 L 21 7.5 C 21 7.164062 20.804688 6.707031 20.53125 6.421875 L 19.972656 6 L 24 6 L 24 3 L 19.972656 3 L 20.53125 2.578125 C 20.804688 2.292969 21 1.886719 21 1.5 L 21 0 Z M 3 1.5 L 3 22.5 L 21 22.5 L 21 12 L 18 12 L 18 19.5 L 6 19.5 L 6 4.5 L 12 4.5 L 12 1.5 Z M 7.5 6 L 7.5 9 L 13.5 9 L 13.5 6 Z M 7.5 10.5 L 7.5 13.5 L 10.5 13.5 L 10.5 10.5 Z M 15 15 L 15 18 L 16.5 18 L 16.5 15 Z M 15 15 "/>
<use xlink:href="#surface5" mask="url(#mask0)"/>
</g>
</svg>
