<?xml version="1.0" encoding="UTF-8"?>
<svg xmlns="http://www.w3.org/2000/svg" xmlns:xlink="http://www.w3.org/1999/xlink" width="24px" height="24px" viewBox="0 0 24 24" version="1.1">
<g id="surface1">
<path style=" stroke:none;fill-rule:nonzero;fill:rgb(61.56863%,22.745098%,60.784316%);fill-opacity:1;" d="M 7.765625 14.222656 C 7.765625 13.160156 7.988281 12.070312 8.429688 10.949219 C 8.867188 9.828125 9.546875 8.847656 10.46875 8.007812 C 11.410156 7.148438 12.460938 6.71875 13.621094 6.71875 C 14.140625 6.71875 14.542969 6.816406 14.820312 7.015625 C 15.121094 7.21875 15.433594 7.628906 15.753906 8.246094 L 16.050781 7.136719 L 18.125 7.136719 L 16.171875 14.703125 C 16.113281 14.921875 16.082031 15.132812 16.082031 15.332031 C 16.082031 16.171875 16.453125 16.59375 17.191406 16.59375 C 18.355469 16.59375 19.292969 15.953125 20.015625 14.671875 C 20.753906 13.371094 21.125 12.050781 21.125 10.710938 C 21.125 8.507812 20.285156 6.617188 18.605469 5.035156 C 16.921875 3.453125 14.910156 2.664062 12.570312 2.664062 C 10.128906 2.664062 8.117188 3.574219 6.535156 5.394531 C 4.957031 7.21875 4.164062 9.527344 4.164062 12.332031 C 4.164062 14.890625 4.984375 16.992188 6.625 18.632812 C 8.289062 20.273438 10.398438 21.09375 12.960938 21.09375 C 14.703125 21.09375 16.621094 20.625 18.722656 19.683594 L 19.085938 20.554688 C 17.683594 21.214844 16.523438 21.664062 15.601562 21.90625 C 14.679688 22.144531 13.679688 22.265625 12.601562 22.265625 C 9.539062 22.265625 6.945312 21.296875 4.824219 19.355469 C 2.722656 17.394531 1.675781 14.992188 1.675781 12.148438 C 1.675781 9.25 2.722656 6.785156 4.824219 4.765625 C 6.945312 2.746094 9.527344 1.734375 12.570312 1.734375 C 15.3125 1.734375 17.625 2.574219 19.503906 4.253906 C 21.386719 5.9375 22.324219 7.996094 22.324219 10.4375 C 22.324219 12.359375 21.777344 14.03125 20.675781 15.453125 C 19.574219 16.871094 18.285156 17.582031 16.804688 17.582031 C 16.101562 17.582031 15.503906 17.382812 15 16.984375 C 14.5 16.582031 14.210938 16.0625 14.132812 15.421875 C 12.992188 16.84375 11.761719 17.554688 10.4375 17.554688 C 9.679688 17.554688 9.039062 17.234375 8.519531 16.59375 C 8.019531 15.953125 7.765625 15.160156 7.765625 14.222656 Z M 15.242188 9.71875 C 15.242188 9.117188 15.113281 8.6875 14.851562 8.429688 C 14.589844 8.167969 14.292969 8.039062 13.949219 8.039062 C 13.089844 8.039062 12.199219 8.597656 11.28125 9.71875 C 10.359375 10.839844 9.898438 12.191406 9.898438 13.769531 C 9.898438 14.550781 10.050781 15.171875 10.347656 15.632812 C 10.667969 16.074219 11.109375 16.292969 11.667969 16.292969 C 12.609375 16.292969 13.441406 15.550781 14.160156 14.070312 C 14.882812 12.589844 15.242188 11.140625 15.242188 9.71875 Z M 15.242188 9.71875 "/>
</g>
</svg>
