<?xml version="1.0" encoding="UTF-8"?>
<svg xmlns="http://www.w3.org/2000/svg" xmlns:xlink="http://www.w3.org/1999/xlink" width="24px" height="24px" viewBox="0 0 24 24" version="1.1">
<g id="surface1">
<path style="fill-rule:nonzero;fill:rgb(95.294118%,71.764708%,85.09804%);fill-opacity:1;stroke-width:1;stroke-linecap:butt;stroke-linejoin:miter;stroke:rgb(90.196079%,0.784314%,70.588237%);stroke-opacity:1;stroke-miterlimit:4;" d="M 1 2.997396 L 1 13.018229 C 1 14.5 1.5 15 3.018229 15 L 12.966146 15 C 14.5 15 15 14.5 15 13 L 15 3.007812 C 15 1.5 14.5 1 13 1 L 2.960938 1 C 1.5 1 1 1.5 1 2.997396 Z M 1 2.997396 " transform="matrix(1.5,0,0,1.5,0,0)"/>
<path style=" stroke:none;fill-rule:nonzero;fill:rgb(94.117647%,89.019608%,92.54902%);fill-opacity:1;" d="M 3.1875 3 C 3.085938 3 3 3.085938 3 3.1875 L 3 21 L 20.765625 21 C 20.984375 21.007812 21 20.699219 21 20.652344 L 21 3.1875 C 21 3.085938 20.914062 3 20.8125 3 Z M 3.1875 3 "/>
<path style="fill-rule:nonzero;fill:rgb(90.196079%,0.784314%,70.588237%);fill-opacity:1;stroke-width:1;stroke-linecap:butt;stroke-linejoin:miter;stroke:rgb(90.196079%,0.784314%,70.588237%);stroke-opacity:1;stroke-miterlimit:4;" d="M 9.710938 11.486979 C 7.984375 12.182292 7.53125 10.104167 7.53125 10.104167 C 7.53125 10.104167 6.614583 12.359375 5.098958 11.026042 C 3.583333 9.692708 5.809896 8.627604 5.809896 8.627604 C 5.809896 8.627604 3.244792 8.427083 4.135417 6.708333 C 5.026042 4.992188 6.752604 6.609375 6.752604 6.609375 C 6.752604 6.609375 6.044271 4.28125 8.151042 4.502604 C 10.255208 4.723958 9.057292 6.841146 9.057292 6.841146 C 9.057292 6.841146 11.236979 5.721354 11.596354 7.455729 C 11.955729 9.190104 9.539062 9 9.539062 9 C 9.539062 9 11.434896 10.794271 9.710938 11.486979 Z M 9.710938 11.486979 " transform="matrix(1.5,0,0,1.5,0,0)"/>
<path style="fill:none;stroke-width:1;stroke-linecap:round;stroke-linejoin:miter;stroke:rgb(61.56863%,22.745098%,60.784316%);stroke-opacity:1;stroke-miterlimit:4;" d="M 2.5 3 L 13.5 3 " transform="matrix(1.5,0,0,1.5,0,0)"/>
<path style="fill:none;stroke-width:1;stroke-linecap:round;stroke-linejoin:miter;stroke:rgb(61.56863%,22.745098%,60.784316%);stroke-opacity:1;stroke-miterlimit:4;" d="M 2.5 13 L 13.5 13 " transform="matrix(1.5,0,0,1.5,0,0)"/>
<path style="fill-rule:nonzero;fill:rgb(95.294118%,71.764708%,85.09804%);fill-opacity:1;stroke-width:1;stroke-linecap:butt;stroke-linejoin:miter;stroke:rgb(95.294118%,71.764708%,85.09804%);stroke-opacity:1;stroke-miterlimit:4;" d="M 8.864583 9.979167 C 7.898438 10.367188 7.645833 9.203125 7.645833 9.203125 C 7.645833 9.203125 7.132812 10.466146 6.283854 9.721354 C 5.434896 8.973958 6.679688 8.377604 6.679688 8.377604 C 6.679688 8.377604 5.244792 8.265625 5.742188 7.302083 C 6.242188 6.341146 7.208333 7.247396 7.208333 7.247396 C 7.208333 7.247396 6.8125 5.942708 7.992188 6.067708 C 9.171875 6.190104 8.5 7.377604 8.5 7.377604 C 8.5 7.377604 9.71875 6.75 9.921875 7.721354 C 10.122396 8.692708 8.770833 8.585938 8.770833 8.585938 C 8.770833 8.585938 9.830729 9.591146 8.864583 9.979167 Z M 8.864583 9.979167 " transform="matrix(1.5,0,0,1.5,0,0)"/>
<path style=" stroke:none;fill-rule:nonzero;fill:rgb(61.56863%,22.745098%,60.784316%);fill-opacity:1;" d="M 13.464844 12.085938 C 13.464844 13.070312 12.667969 13.867188 11.6875 13.867188 C 10.703125 13.867188 9.90625 13.070312 9.90625 12.085938 C 9.90625 11.105469 10.703125 10.308594 11.6875 10.308594 C 12.667969 10.308594 13.464844 11.105469 13.464844 12.085938 Z M 13.464844 12.085938 "/>
</g>
</svg>
