<?xml version="1.0" encoding="UTF-8"?>
<svg xmlns="http://www.w3.org/2000/svg" xmlns:xlink="http://www.w3.org/1999/xlink" width="24px" height="24px" viewBox="0 0 24 24" version="1.1">
<defs>
<filter id="alpha" filterUnits="objectBoundingBox" x="0%" y="0%" width="100%" height="100%">
  <feColorMatrix type="matrix" in="SourceGraphic" values="0 0 0 0 1 0 0 0 0 1 0 0 0 0 1 0 0 0 1 0"/>
</filter>
<mask id="mask0">
  <g filter="url(#alpha)">
<rect x="0" y="0" width="24" height="24" style="fill:rgb(0%,0%,0%);fill-opacity:0.35;stroke:none;"/>
  </g>
</mask>
<clipPath id="clip1">
  <rect x="0" y="0" width="24" height="24"/>
</clipPath>
<g id="surface5" clip-path="url(#clip1)">
<path style=" stroke:none;fill-rule:nonzero;fill:rgb(33.333334%,34.117648%,32.549021%);fill-opacity:1;" d="M 9 4.5 L 9 7.5 L 13.5 7.5 C 14.328125 7.5 15 8.171875 15 9 L 15 10.5 L 10.5 10.5 C 8.015625 10.5 6 12.515625 6 15 C 6 17.484375 8.015625 19.5 10.5 19.5 L 18 19.5 L 18 9 C 18 6.515625 15.984375 4.5 13.5 4.5 Z M 10.5 13.5 L 15 13.5 L 15 16.5 L 10.5 16.5 C 9.671875 16.5 9 15.828125 9 15 C 9 14.171875 9.671875 13.5 10.5 13.5 Z M 10.5 13.5 "/>
</g>
</defs>
<g id="surface1">
<path style=" stroke:none;fill-rule:nonzero;fill:rgb(33.333334%,34.117648%,32.549021%);fill-opacity:1;" d="M 1.5 0 L 1.5 24 L 22.5 24 L 22.5 0 Z M 4.5 3 L 19.5 3 L 19.5 21 L 4.5 21 Z M 4.5 3 "/>
<use xlink:href="#surface5" mask="url(#mask0)"/>
</g>
</svg>
