<?xml version="1.0" encoding="UTF-8"?>
<svg xmlns="http://www.w3.org/2000/svg" xmlns:xlink="http://www.w3.org/1999/xlink" width="24px" height="24px" viewBox="0 0 24 24" version="1.1">
<g id="surface1">
<path style="fill:none;stroke-width:1;stroke-linecap:round;stroke-linejoin:miter;stroke:rgb(61.56863%,22.745098%,60.784316%);stroke-opacity:1;stroke-miterlimit:4;" d="M 12.791667 13.796875 C 11.742188 14.648438 10.447917 15.231771 9.007812 15.419271 C 4.859375 15.963542 1.057292 13.041667 0.513021 8.893229 C 0.414062 8.125 0.432292 7.369792 0.552083 6.645833 M 1.466146 4.117188 C 2 3.192708 2.726562 2.388021 3.596354 1.760417 " transform="matrix(1.5,0,0,1.5,0,0)"/>
<path style="fill-rule:nonzero;fill:rgb(95.294118%,71.764708%,85.09804%);fill-opacity:1;stroke-width:1;stroke-linecap:round;stroke-linejoin:miter;stroke:rgb(61.56863%,22.745098%,60.784316%);stroke-opacity:1;stroke-miterlimit:4;" d="M 11.835299 12.502984 C 10.724257 14.0068 8.93966 14.978494 6.930186 14.980461 C 3.5631 14.98051 0.832071 12.250998 0.832022 8.883913 C 0.834555 5.517165 3.563728 2.788718 6.928232 2.788331 C 10.295317 2.788281 13.023764 5.517454 13.023814 8.88454 C 13.025471 9.312865 12.981328 9.729936 12.896887 10.133847 " transform="matrix(1.487287,-0.19488,0.19488,1.487287,0,0)"/>
<path style="fill:none;stroke-width:1;stroke-linecap:round;stroke-linejoin:miter;stroke:rgb(61.56863%,22.745098%,60.784316%);stroke-opacity:1;stroke-miterlimit:4;" d="M 1.997396 1.132812 L 3.809896 3.416667 " transform="matrix(1.5,0,0,1.5,0,0)"/>
<path style="fill:none;stroke-width:1;stroke-linecap:round;stroke-linejoin:miter;stroke:rgb(61.56863%,22.745098%,60.784316%);stroke-opacity:1;stroke-miterlimit:4;" d="M 11.1875 13.544271 L 13 15.828125 " transform="matrix(1.5,0,0,1.5,0,0)"/>
<path style=" stroke:none;fill-rule:nonzero;fill:rgb(61.56863%,22.745098%,60.784316%);fill-opacity:1;" d="M 2.109375 8.035156 C 2.109375 8.511719 1.722656 8.894531 1.25 8.894531 C 0.773438 8.894531 0.386719 8.511719 0.386719 8.035156 C 0.386719 7.558594 0.773438 7.171875 1.25 7.171875 C 1.722656 7.171875 2.109375 7.558594 2.109375 8.035156 Z M 2.109375 8.035156 "/>
<path style=" stroke:none;fill-rule:nonzero;fill:rgb(61.56863%,22.745098%,60.784316%);fill-opacity:1;" d="M 21.75 14.570312 C 21.75 15.042969 21.363281 15.429688 20.886719 15.429688 C 20.414062 15.429688 20.027344 15.042969 20.027344 14.570312 C 20.027344 14.09375 20.414062 13.707031 20.886719 13.707031 C 21.363281 13.707031 21.75 14.09375 21.75 14.570312 Z M 21.75 14.570312 "/>
<path style="fill-rule:nonzero;fill:rgb(61.56863%,22.745098%,60.784316%);fill-opacity:1;stroke-width:1;stroke-linecap:butt;stroke-linejoin:miter;stroke:rgb(61.56863%,22.745098%,60.784316%);stroke-opacity:1;stroke-miterlimit:4;" d="M 2.356771 12.234375 C 4.992188 11.708333 5.9375 10.664062 7.213542 8.96875 L 6.570312 8.203125 L 8.5 8 L 8.5 10.5 L 7.856771 9.734375 C 6.518229 11.283854 5.994792 12.734375 3 13 Z M 2.356771 12.234375 " transform="matrix(1.5,0,0,1.5,0,0)"/>
<path style=" stroke:none;fill-rule:nonzero;fill:rgb(61.56863%,22.745098%,60.784316%);fill-opacity:1;" d="M 11.25 10.5 L 14.25 10.5 L 14.25 13.5 C 18 9 18 8.25 18 4.5 C 16.5 4.5 18 4.5 15 3 C 15 6.75 14.25 9 11.25 10.5 Z M 11.25 10.5 "/>
<path style="fill:none;stroke-width:1;stroke-linecap:butt;stroke-linejoin:miter;stroke:rgb(61.56863%,22.745098%,60.784316%);stroke-opacity:1;stroke-miterlimit:4;" d="M 4 3.5 L 12 12.5 " transform="matrix(1.5,0,0,1.5,0,0)"/>
<path style="fill:none;stroke-width:1;stroke-linecap:butt;stroke-linejoin:miter;stroke:rgb(61.56863%,22.745098%,60.784316%);stroke-opacity:1;stroke-miterlimit:4;" d="M 4.059896 3.447917 C 7 0.5 16 9 12 12.5 C 8 16 1.117188 6.398438 4.059896 3.447917 Z M 4.059896 3.447917 " transform="matrix(1.5,0,0,1.5,0,0)"/>
<path style="fill:none;stroke-width:1;stroke-linecap:butt;stroke-linejoin:miter;stroke:rgb(61.56863%,22.745098%,60.784316%);stroke-opacity:1;stroke-miterlimit:4;" d="M 2 9.5 L 9.5 2 " transform="matrix(1.5,0,0,1.5,0,0)"/>
<path style="fill:none;stroke-width:1;stroke-linecap:butt;stroke-linejoin:miter;stroke:rgb(61.56863%,22.745098%,60.784316%);stroke-opacity:1;stroke-miterlimit:4;" d="M 7.5 14 L 14 6.5 " transform="matrix(1.5,0,0,1.5,0,0)"/>
</g>
</svg>
