<?xml version="1.0" encoding="UTF-8"?>
<svg xmlns="http://www.w3.org/2000/svg" xmlns:xlink="http://www.w3.org/1999/xlink" width="24px" height="24px" viewBox="0 0 24 24" version="1.1">
<g id="surface1">
<path style="fill-rule:nonzero;fill:rgb(95.294118%,71.764708%,85.09804%);fill-opacity:1;stroke-width:1;stroke-linecap:butt;stroke-linejoin:miter;stroke:rgb(90.196079%,0.784314%,70.588237%);stroke-opacity:1;stroke-miterlimit:4;" d="M 1 3.119792 L 1 13.140625 C 1 14.622396 1.5 15.122396 3.018229 15.122396 L 12.966146 15.122396 C 14.5 15.122396 15 14.622396 15 13.122396 L 15 3.130208 C 15 1.622396 14.5 1.122396 13 1.122396 L 2.960938 1.122396 C 1.5 1.122396 1 1.622396 1 3.119792 Z M 1 3.119792 " transform="matrix(1.5,0,0,1.5,0,0)"/>
<path style=" stroke:none;fill-rule:nonzero;fill:rgb(94.117647%,89.019608%,92.54902%);fill-opacity:1;" d="M 3.1875 3.183594 C 3.085938 3.183594 3 3.269531 3 3.371094 L 3 21.183594 L 20.765625 21.183594 C 20.984375 21.191406 21 20.882812 21 20.839844 L 21 3.371094 C 21 3.269531 20.914062 3.183594 20.8125 3.183594 Z M 3.1875 3.183594 "/>
<path style="fill:none;stroke-width:1;stroke-linecap:round;stroke-linejoin:miter;stroke:rgb(61.56863%,22.745098%,60.784316%);stroke-opacity:1;stroke-miterlimit:4;" d="M 2.5 3.122396 L 13.5 3.122396 " transform="matrix(1.5,0,0,1.5,0,0)"/>
<path style="fill:none;stroke-width:1;stroke-linecap:round;stroke-linejoin:miter;stroke:rgb(61.56863%,22.745098%,60.784316%);stroke-opacity:1;stroke-miterlimit:4;" d="M 2.5 13.122396 L 13.5 13.122396 " transform="matrix(1.5,0,0,1.5,0,0)"/>
<path style="fill-rule:nonzero;fill:rgb(90.196079%,0.784314%,70.588237%);fill-opacity:1;stroke-width:1;stroke-linecap:butt;stroke-linejoin:miter;stroke:rgb(90.196079%,0.784314%,70.588237%);stroke-opacity:1;stroke-miterlimit:4;" d="M 9.710054 11.611979 C 7.986096 12.304688 7.532971 10.226562 7.532971 10.226562 C 7.532971 10.226562 6.6137 12.481771 5.098075 11.148438 C 3.58245 9.817708 5.809013 8.75 5.809013 8.75 C 5.809013 8.75 3.243908 8.549479 4.134533 6.833333 C 5.025158 5.114583 6.751721 6.734375 6.751721 6.734375 C 6.751721 6.734375 6.045992 4.40625 8.150158 4.625 C 10.256929 4.846354 9.059013 6.963542 9.059013 6.963542 C 9.059013 6.963542 11.236096 5.84375 11.595471 7.578125 C 11.95745 9.315104 9.540783 9.122396 9.540783 9.122396 C 9.540783 9.122396 11.436617 10.916667 9.710054 11.611979 Z M 9.710054 11.611979 " transform="matrix(1.5,0,0,1.5,2.595075,0)"/>
<path style="fill-rule:nonzero;fill:rgb(95.294118%,71.764708%,85.09804%);fill-opacity:1;stroke-width:1;stroke-linecap:butt;stroke-linejoin:miter;stroke:rgb(95.294118%,71.764708%,85.09804%);stroke-opacity:1;stroke-miterlimit:4;" d="M 8.866304 10.101562 C 7.900158 10.492188 7.64495 9.325521 7.64495 9.325521 C 7.64495 9.325521 7.131929 10.591146 6.282971 9.84375 C 5.434013 9.096354 6.681408 8.5 6.681408 8.5 C 6.681408 8.5 5.243908 8.388021 5.743908 7.427083 C 6.241304 6.463542 7.20745 7.369792 7.20745 7.369792 C 7.20745 7.369792 6.811617 6.067708 7.991304 6.190104 C 9.170992 6.3125 8.499117 7.5 8.499117 7.5 C 8.499117 7.5 9.720471 6.872396 9.920992 7.84375 C 10.124117 8.815104 8.76995 8.708333 8.76995 8.708333 C 8.76995 8.708333 9.83245 9.713542 8.866304 10.101562 Z M 8.866304 10.101562 " transform="matrix(1.5,0,0,1.5,2.595075,0)"/>
<path style=" stroke:none;fill-rule:nonzero;fill:rgb(61.56863%,22.745098%,60.784316%);fill-opacity:1;" d="M 16.0625 12.273438 C 16.0625 13.253906 15.265625 14.050781 14.28125 14.050781 C 13.296875 14.050781 12.5 13.253906 12.5 12.273438 C 12.5 11.289062 13.296875 10.492188 14.28125 10.492188 C 15.265625 10.492188 16.0625 11.289062 16.0625 12.273438 Z M 16.0625 12.273438 "/>
<path style="fill:none;stroke-width:1;stroke-linecap:round;stroke-linejoin:miter;stroke:rgb(61.56863%,22.745098%,60.784316%);stroke-opacity:1;stroke-miterlimit:4;" d="M 2.5 5 L 4.5 5 " transform="matrix(1.5,0,0,1.5,0,0)"/>
<path style="fill:none;stroke-width:1;stroke-linecap:round;stroke-linejoin:miter;stroke:rgb(61.56863%,22.745098%,60.784316%);stroke-opacity:1;stroke-miterlimit:4;" d="M 2.5 7 L 4.5 7 " transform="matrix(1.5,0,0,1.5,0,0)"/>
<path style="fill:none;stroke-width:1;stroke-linecap:round;stroke-linejoin:miter;stroke:rgb(61.56863%,22.745098%,60.784316%);stroke-opacity:1;stroke-miterlimit:4;" d="M 2.5 9 L 4.5 9 " transform="matrix(1.5,0,0,1.5,0,0)"/>
<path style="fill:none;stroke-width:1;stroke-linecap:round;stroke-linejoin:miter;stroke:rgb(61.56863%,22.745098%,60.784316%);stroke-opacity:1;stroke-miterlimit:4;" d="M 2.5 11 L 4.5 11 " transform="matrix(1.5,0,0,1.5,0,0)"/>
</g>
</svg>
