<?xml version="1.0" encoding="UTF-8"?>
<svg xmlns="http://www.w3.org/2000/svg" xmlns:xlink="http://www.w3.org/1999/xlink" width="24px" height="24px" viewBox="0 0 24 24" version="1.1">
<g id="surface1">
<path style=" stroke:none;fill-rule:nonzero;fill:rgb(33.333334%,34.117648%,32.549021%);fill-opacity:1;" d="M 13.5 3 L 13.5 13.5 L 18 13.5 C 19.65625 13.5 21 12.15625 21 10.5 C 21 8.84375 19.65625 7.5 18 7.5 L 15 7.5 L 15 3 Z M 4.5 6 L 4.5 7.5 L 9 7.5 L 9 9 L 5.25 9 C 4.007812 9 3 10.007812 3 11.25 C 3 12.492188 4.007812 13.5 5.25 13.5 L 10.5 13.5 L 10.5 7.5 C 10.5 6.671875 9.828125 6 9 6 Z M 15 9 L 18 9 C 18.828125 9 19.5 9.671875 19.5 10.5 C 19.5 11.328125 18.828125 12 18 12 L 15 12 Z M 5.25 10.5 L 9 10.5 L 9 12 L 5.25 12 C 4.835938 12 4.5 11.664062 4.5 11.25 C 4.5 10.835938 4.835938 10.5 5.25 10.5 Z M 16.5 15 L 16.5 16.5 L 15 16.5 L 15 18 L 16.5 18 L 16.5 21 L 15 21 L 15 22.5 L 16.5 22.5 L 16.5 24 L 18 24 L 18 22.5 L 21 22.5 L 21 24 L 22.5 24 L 22.5 22.5 L 24 22.5 L 24 21 L 22.5 21 L 22.5 18 L 24 18 L 24 16.5 L 22.5 16.5 L 22.5 15 L 21 15 L 21 16.5 L 18 16.5 L 18 15 Z M 18 18 L 21 18 L 21 21 L 18 21 Z M 18 18 "/>
</g>
</svg>
