<?xml version="1.0" encoding="UTF-8"?>
<svg xmlns="http://www.w3.org/2000/svg" xmlns:xlink="http://www.w3.org/1999/xlink" width="24px" height="24px" viewBox="0 0 24 24" version="1.1">
<g id="surface1">
<path style="fill-rule:nonzero;fill:rgb(95.294118%,71.764708%,85.09804%);fill-opacity:1;stroke-width:1;stroke-linecap:butt;stroke-linejoin:miter;stroke:rgb(90.196079%,0.784314%,70.588237%);stroke-opacity:1;stroke-miterlimit:4;" d="M 1 2.997396 L 1 13.018229 C 1 14.5 1.5 15 3.018229 15 L 12.966146 15 C 14.5 15 15 14.5 15 13 L 15 3.007812 C 15 1.5 14.5 1 13 1 L 2.960938 1 C 1.5 1 1 1.5 1 2.997396 Z M 1 2.997396 " transform="matrix(1.5,0,0,1.5,0,0)"/>
<path style=" stroke:none;fill-rule:nonzero;fill:rgb(94.117647%,89.019608%,92.54902%);fill-opacity:1;" d="M 3.1875 3 C 3.085938 3 3 3.085938 3 3.1875 L 3 21 L 20.765625 21 C 20.984375 21.007812 21 20.699219 21 20.65625 L 21 3.1875 C 21 3.085938 20.914062 3 20.8125 3 Z M 3.1875 3 "/>
<path style="fill:none;stroke-width:1;stroke-linecap:round;stroke-linejoin:miter;stroke:rgb(61.56863%,22.745098%,60.784316%);stroke-opacity:1;stroke-miterlimit:4;" d="M 2.5 3 L 13.5 3 " transform="matrix(1.5,0,0,1.5,0,0)"/>
<path style="fill:none;stroke-width:1;stroke-linecap:round;stroke-linejoin:miter;stroke:rgb(61.56863%,22.745098%,60.784316%);stroke-opacity:1;stroke-miterlimit:4;" d="M 2.5 13 L 13.5 13 " transform="matrix(1.5,0,0,1.5,0,0)"/>
<path style="fill:none;stroke-width:1;stroke-linecap:round;stroke-linejoin:miter;stroke:rgb(61.56863%,22.745098%,60.784316%);stroke-opacity:1;stroke-miterlimit:4;" d="M 2.5 4.877604 L 13.5 4.877604 " transform="matrix(1.5,0,0,1.5,0,0)"/>
<path style="fill:none;stroke-width:1;stroke-linecap:round;stroke-linejoin:miter;stroke:rgb(61.56863%,22.745098%,60.784316%);stroke-opacity:1;stroke-miterlimit:4;" d="M 2.5 6.877604 L 13.5 6.877604 " transform="matrix(1.5,0,0,1.5,0,0)"/>
<path style="fill:none;stroke-width:1;stroke-linecap:round;stroke-linejoin:miter;stroke:rgb(61.56863%,22.745098%,60.784316%);stroke-opacity:1;stroke-miterlimit:4;" d="M 2.5 8.877604 L 13.5 8.877604 " transform="matrix(1.5,0,0,1.5,0,0)"/>
<path style="fill:none;stroke-width:1;stroke-linecap:round;stroke-linejoin:miter;stroke:rgb(61.56863%,22.745098%,60.784316%);stroke-opacity:1;stroke-miterlimit:4;" d="M 2.5 10.877604 L 13.5 10.877604 " transform="matrix(1.5,0,0,1.5,0,0)"/>
<path style="fill-rule:nonzero;fill:rgb(90.196079%,0.784314%,70.588237%);fill-opacity:1;stroke-width:1;stroke-linecap:butt;stroke-linejoin:miter;stroke:rgb(90.196079%,0.784314%,70.588237%);stroke-opacity:1;stroke-miterlimit:4;" d="M 9.710054 11.609909 C 7.986096 12.305222 7.532971 10.227097 7.532971 10.227097 C 7.532971 10.227097 6.6137 12.482305 5.098075 11.148972 C 3.58245 9.815639 5.809013 8.750534 5.809013 8.750534 C 5.809013 8.750534 3.243908 8.550014 4.134533 6.831264 C 5.025158 5.115118 6.751721 6.732305 6.751721 6.732305 C 6.751721 6.732305 6.045992 4.40418 8.150158 4.625534 C 10.256929 4.846889 9.059013 6.964076 9.059013 6.964076 C 9.059013 6.964076 11.236096 5.844284 11.595471 7.578659 C 11.95745 9.313034 9.540783 9.12293 9.540783 9.12293 C 9.540783 9.12293 11.436617 10.917201 9.710054 11.609909 Z M 9.710054 11.609909 " transform="matrix(1.5,0,0,1.5,0.345075,-0.184395)"/>
<path style="fill-rule:nonzero;fill:rgb(95.294118%,71.764708%,85.09804%);fill-opacity:1;stroke-width:1;stroke-linecap:butt;stroke-linejoin:miter;stroke:rgb(95.294118%,71.764708%,85.09804%);stroke-opacity:1;stroke-miterlimit:4;" d="M 8.866304 10.102097 C 7.900158 10.490118 7.64495 9.326055 7.64495 9.326055 C 7.64495 9.326055 7.131929 10.589076 6.282971 9.844284 C 5.434013 9.096889 6.681408 8.500534 6.681408 8.500534 C 6.681408 8.500534 5.243908 8.388555 5.743908 7.425014 C 6.241304 6.464076 7.20745 7.370326 7.20745 7.370326 C 7.20745 7.370326 6.811617 6.065639 7.991304 6.190639 C 9.170992 6.313034 8.499117 7.500534 8.499117 7.500534 C 8.499117 7.500534 9.720471 6.87293 9.920992 7.844284 C 10.124117 8.815639 8.76995 8.708868 8.76995 8.708868 C 8.76995 8.708868 9.83245 9.714076 8.866304 10.102097 Z M 8.866304 10.102097 " transform="matrix(1.5,0,0,1.5,0.345075,-0.184395)"/>
<path style=" stroke:none;fill-rule:nonzero;fill:rgb(61.56863%,22.745098%,60.784316%);fill-opacity:1;" d="M 13.8125 12.085938 C 13.8125 13.070312 13.015625 13.867188 12.03125 13.867188 C 11.046875 13.867188 10.25 13.070312 10.25 12.085938 C 10.25 11.105469 11.046875 10.308594 12.03125 10.308594 C 13.015625 10.308594 13.8125 11.105469 13.8125 12.085938 Z M 13.8125 12.085938 "/>
</g>
</svg>
