<?xml version="1.0" encoding="UTF-8"?>
<svg xmlns="http://www.w3.org/2000/svg" xmlns:xlink="http://www.w3.org/1999/xlink" width="24px" height="24px" viewBox="0 0 24 24" version="1.1">
<g id="surface1">
<path style=" stroke:none;fill-rule:nonzero;fill:rgb(90.196079%,0.784314%,70.588237%);fill-opacity:1;" d="M 6 1.5 L 1.5 6 L 1.5 22.5 L 18 22.5 L 22.5 18 L 22.5 1.5 Z M 7.5 3 L 19.941406 3 L 16.941406 6 L 7.5 6 Z M 6 4.058594 L 6 6 L 4.058594 6 Z M 21 4.058594 L 21 16.5 L 18 16.5 L 18 7.058594 Z M 3 7.5 L 6 7.5 L 6 16.941406 L 3 19.941406 Z M 7.5 7.5 L 16.5 7.5 L 16.5 16.5 L 7.5 16.5 Z M 7.058594 18 L 16.5 18 L 16.5 21 L 4.058594 21 Z M 18 18 L 19.941406 18 L 18 19.941406 Z M 18 18 "/>
</g>
</svg>
