<?xml version="1.0" encoding="UTF-8"?>
<svg xmlns="http://www.w3.org/2000/svg" xmlns:xlink="http://www.w3.org/1999/xlink" width="24px" height="24px" viewBox="0 0 24 24" version="1.1">
<g id="surface1">
<path style="fill-rule:nonzero;fill:rgb(95.294118%,71.764708%,85.09804%);fill-opacity:1;stroke-width:1;stroke-linecap:round;stroke-linejoin:round;stroke:rgb(90.196079%,0.784314%,70.588237%);stroke-opacity:1;stroke-miterlimit:4;" d="M 8.856771 2.513021 L 14.106771 11.489583 C 14.588542 12.453125 14.067708 13.5 12.986979 13.5 L 2.502604 13.5 C 1.510417 13.5 0.986979 12.453125 1.5 11.429688 L 6.744792 2.46875 C 7.265625 1.424479 8.3125 1.424479 8.856771 2.513021 Z M 8.856771 2.513021 " transform="matrix(1.5,0,0,1.5,0,0)"/>
<path style=" stroke:none;fill-rule:nonzero;fill:rgb(61.56863%,22.745098%,60.784316%);fill-opacity:1;" d="M 12.722656 7.054688 L 17.953125 15.996094 C 18.433594 16.957031 17.910156 18 16.835938 18 L 6.394531 18 C 5.40625 18 4.882812 16.957031 5.394531 15.9375 L 10.617188 7.011719 C 11.136719 5.972656 12.179688 5.972656 12.722656 7.054688 Z M 12.722656 7.054688 "/>
<path style=" stroke:none;fill-rule:nonzero;fill:rgb(94.117647%,89.019608%,92.54902%);fill-opacity:1;" d="M 11.660156 7.636719 C 9.300781 7.566406 10.816406 11.894531 10.816406 13.867188 C 10.796875 14.804688 12.550781 14.804688 12.535156 13.867188 C 12.367188 11.757812 14.019531 7.703125 11.660156 7.636719 Z M 11.660156 7.636719 "/>
<path style=" stroke:none;fill-rule:nonzero;fill:rgb(94.117647%,89.019608%,92.54902%);fill-opacity:1;" d="M 12.761719 16.335938 C 12.761719 16.960938 12.257812 17.46875 11.632812 17.46875 C 11.003906 17.46875 10.5 16.960938 10.5 16.335938 C 10.5 15.710938 11.003906 15.203125 11.632812 15.203125 C 12.257812 15.203125 12.761719 15.710938 12.761719 16.335938 Z M 12.761719 16.335938 "/>
</g>
</svg>
