<?xml version="1.0" encoding="UTF-8"?>
<svg xmlns="http://www.w3.org/2000/svg" xmlns:xlink="http://www.w3.org/1999/xlink" width="24px" height="24px" viewBox="0 0 24 24" version="1.1">
<g id="surface1">
<path style="fill-rule:nonzero;fill:rgb(95.294118%,71.764708%,85.09804%);fill-opacity:1;stroke-width:1;stroke-linecap:butt;stroke-linejoin:miter;stroke:rgb(90.196079%,0.784314%,70.588237%);stroke-opacity:1;stroke-miterlimit:4;" d="M 1 2.997396 L 1 13.018229 C 1 14.5 1.5 15 3.018229 15 L 12.966146 15 C 14.5 15 15 14.5 15 13 L 15 3.007812 C 15 1.5 14.5 1 13 1 L 2.960938 1 C 1.5 1 1 1.5 1 2.997396 Z M 1 2.997396 " transform="matrix(1.5,0,0,1.5,0,0)"/>
<path style=" stroke:none;fill-rule:nonzero;fill:rgb(94.117647%,89.019608%,92.54902%);fill-opacity:1;" d="M 3.1875 3 C 3.085938 3 3 3.085938 3 3.1875 L 3 21 L 20.765625 21 C 20.984375 21.007812 21 20.699219 21 20.652344 L 21 3.1875 C 21 3.085938 20.914062 3 20.8125 3 Z M 3.1875 3 "/>
<path style="fill:none;stroke-width:1;stroke-linecap:round;stroke-linejoin:miter;stroke:rgb(61.56863%,22.745098%,60.784316%);stroke-opacity:1;stroke-miterlimit:4;" d="M 3 3 L 13 3 " transform="matrix(1.5,0,0,1.5,0,0)"/>
<path style="fill:none;stroke-width:1;stroke-linecap:round;stroke-linejoin:miter;stroke:rgb(61.56863%,22.745098%,60.784316%);stroke-opacity:1;stroke-miterlimit:4;" d="M 3 13 L 13 13 " transform="matrix(1.5,0,0,1.5,0,0)"/>
<path style="fill:none;stroke-width:1;stroke-linecap:round;stroke-linejoin:miter;stroke:rgb(61.56863%,22.745098%,60.784316%);stroke-opacity:1;stroke-miterlimit:4;" d="M 3 5 L 5.53125 5 M 10.484375 5 L 13 5 " transform="matrix(1.5,0,0,1.5,0,0)"/>
<path style="fill:none;stroke-width:1;stroke-linecap:round;stroke-linejoin:miter;stroke:rgb(61.56863%,22.745098%,60.784316%);stroke-opacity:1;stroke-miterlimit:4;" d="M 2.867188 7 L 2.867188 7 M 12.796875 7 L 13 7 " transform="matrix(1.5,0,0,1.5,0,0)"/>
<path style="fill:none;stroke-width:1;stroke-linecap:round;stroke-linejoin:miter;stroke:rgb(61.56863%,22.745098%,60.784316%);stroke-opacity:1;stroke-miterlimit:4;" d="M 3 9 L 3 9 M 12.739583 9 L 13 9 " transform="matrix(1.5,0,0,1.5,0,0)"/>
<path style="fill:none;stroke-width:1;stroke-linecap:round;stroke-linejoin:miter;stroke:rgb(61.56863%,22.745098%,60.784316%);stroke-opacity:1;stroke-miterlimit:4;" d="M 3 11 L 3.5 11 M 11.677083 11 L 13 11 " transform="matrix(1.5,0,0,1.5,0,0)"/>
<path style="fill-rule:nonzero;fill:rgb(90.196079%,0.784314%,70.588237%);fill-opacity:1;stroke-width:1;stroke-linecap:butt;stroke-linejoin:miter;stroke:rgb(90.196079%,0.784314%,70.588237%);stroke-opacity:1;stroke-miterlimit:4;" d="M 9.710938 11.486957 C 7.984375 12.182269 7.53125 10.104144 7.53125 10.104144 C 7.53125 10.104144 6.614583 12.359353 5.098958 11.026019 C 3.583333 9.692686 5.809896 8.627582 5.809896 8.627582 C 5.809896 8.627582 3.244792 8.427061 4.135417 6.708311 C 5.026042 4.992165 6.752604 6.611957 6.752604 6.611957 C 6.752604 6.611957 6.044271 4.281228 8.151042 4.502582 C 10.255208 4.723936 9.057292 6.841124 9.057292 6.841124 C 9.057292 6.841124 11.236979 5.721332 11.596354 7.455707 C 11.955729 9.190082 9.539062 8.999978 9.539062 8.999978 C 9.539062 8.999978 11.434896 10.794249 9.710938 11.486957 Z M 9.710938 11.486957 " transform="matrix(1.5,0,0,1.5,0,0.433627)"/>
<path style="fill-rule:nonzero;fill:rgb(95.294118%,71.764708%,85.09804%);fill-opacity:1;stroke-width:1;stroke-linecap:butt;stroke-linejoin:miter;stroke:rgb(95.294118%,71.764708%,85.09804%);stroke-opacity:1;stroke-miterlimit:4;" d="M 8.864583 9.979144 C 7.898438 10.367165 7.645833 9.203103 7.645833 9.203103 C 7.645833 9.203103 7.132812 10.466124 6.283854 9.721332 C 5.434896 8.973936 6.679688 8.377582 6.679688 8.377582 C 6.679688 8.377582 5.244792 8.265603 5.742188 7.302061 C 6.242188 6.341124 7.208333 7.247374 7.208333 7.247374 C 7.208333 7.247374 6.8125 5.942686 7.992188 6.067686 C 9.171875 6.190082 8.5 7.377582 8.5 7.377582 C 8.5 7.377582 9.71875 6.749978 9.921875 7.721332 C 10.122396 8.692686 8.770833 8.585915 8.770833 8.585915 C 8.770833 8.585915 9.830729 9.591124 8.864583 9.979144 Z M 8.864583 9.979144 " transform="matrix(1.5,0,0,1.5,0,0.433627)"/>
<path style=" stroke:none;fill-rule:nonzero;fill:rgb(61.56863%,22.745098%,60.784316%);fill-opacity:1;" d="M 13.464844 12.519531 C 13.464844 13.503906 12.667969 14.300781 11.6875 14.300781 C 10.703125 14.300781 9.90625 13.503906 9.90625 12.519531 C 9.90625 11.539062 10.703125 10.742188 11.6875 10.742188 C 12.667969 10.742188 13.464844 11.539062 13.464844 12.519531 Z M 13.464844 12.519531 "/>
</g>
</svg>
