<?xml version="1.0" encoding="UTF-8"?>
<svg xmlns="http://www.w3.org/2000/svg" xmlns:xlink="http://www.w3.org/1999/xlink" width="24px" height="24px" viewBox="0 0 24 24" version="1.1">
<defs>
<linearGradient id="linear0" gradientUnits="userSpaceOnUse" x1="-119.747536" y1="170.733231" x2="-19.279516" y2="170.733231" gradientTransform="matrix(0.1875,0,0.132583,0.132583,1.656897,-0.545765)">
<stop offset="0" style="stop-color:rgb(71.764708%,100%,29.803923%);stop-opacity:1;"/>
<stop offset="0.5" style="stop-color:rgb(29.803923%,43.921569%,85.882354%);stop-opacity:1;"/>
<stop offset="1" style="stop-color:rgb(100%,29.803923%,29.803923%);stop-opacity:1;"/>
</linearGradient>
</defs>
<g id="surface1">
<path style=" stroke:none;fill-rule:nonzero;fill:rgb(100%,40.000001%,0%);fill-opacity:1;" d="M 12 3 C 9.515625 3 7.5 5.015625 7.5 7.5 C 7.5 9.984375 9.515625 12 12 12 C 9.847656 10.757812 9.109375 8.003906 10.351562 5.855469 C 11.15625 4.460938 12.644531 3.605469 14.25 3.605469 C 13.566406 3.210938 12.789062 3 12 3 Z M 12 3 "/>
<path style=" stroke:none;fill-rule:nonzero;fill:rgb(100%,60.000002%,0%);fill-opacity:1;" d="M 14.039062 3.605469 C 12.507812 3.679688 11.121094 4.527344 10.351562 5.855469 C 9.109375 8.003906 9.847656 10.757812 12 12 C 10.757812 9.847656 11.496094 7.097656 13.644531 5.855469 C 15.039062 5.050781 16.753906 5.054688 18.144531 5.859375 C 17.753906 5.171875 17.183594 4.605469 16.5 4.207031 C 15.753906 3.773438 14.898438 3.566406 14.039062 3.605469 Z M 14.039062 3.605469 "/>
<path style=" stroke:none;fill-rule:nonzero;fill:rgb(100%,80.000001%,0%);fill-opacity:1;" d="M 15.789062 5.25 C 15.035156 5.269531 14.300781 5.476562 13.644531 5.855469 C 11.496094 7.097656 10.757812 9.847656 12 12 C 12 9.515625 14.019531 7.5 16.503906 7.503906 C 18.109375 7.507812 19.59375 8.367188 20.394531 9.757812 C 20.394531 8.964844 20.1875 8.1875 19.792969 7.5 C 18.96875 6.074219 17.4375 5.210938 15.789062 5.25 Z M 15.789062 5.25 "/>
<path style=" stroke:none;fill-rule:nonzero;fill:rgb(40.000001%,60.000002%,0%);fill-opacity:1;" d="M 16.503906 7.503906 C 14.019531 7.5 12 9.515625 12 12 C 13.292969 9.878906 16.0625 9.207031 18.183594 10.5 C 19.523438 11.316406 20.339844 12.773438 20.335938 14.339844 C 20.769531 13.636719 20.996094 12.832031 21 12.007812 C 21 9.519531 18.988281 7.503906 16.503906 7.503906 Z M 16.503906 7.503906 "/>
<path style=" stroke:none;fill-rule:nonzero;fill:rgb(0%,80.000001%,0%);fill-opacity:1;" d="M 15.738281 9.84375 C 14.207031 9.878906 12.796875 10.691406 12 12 C 14.121094 10.707031 16.890625 11.378906 18.183594 13.5 C 19.058594 14.9375 19.0625 16.742188 18.1875 18.179688 C 18.796875 17.808594 19.3125 17.292969 19.683594 16.683594 C 20.976562 14.5625 20.304688 11.792969 18.183594 10.5 C 17.449219 10.050781 16.601562 9.824219 15.738281 9.84375 Z M 15.738281 9.84375 "/>
<path style=" stroke:none;fill-rule:nonzero;fill:rgb(60.000002%,80.000001%,20%);fill-opacity:1;" d="M 14.128906 11.347656 C 13.375 11.382812 12.644531 11.605469 12 12 C 14.484375 12 16.5 14.011719 16.503906 16.496094 C 16.503906 18.066406 15.6875 19.519531 14.347656 20.339844 C 15.171875 20.339844 15.980469 20.113281 16.683594 19.683594 C 18.804688 18.390625 19.476562 15.621094 18.183594 13.5 C 17.328125 12.09375 15.773438 11.269531 14.128906 11.347656 Z M 14.128906 11.347656 "/>
<path style=" stroke:none;fill-rule:nonzero;fill:rgb(40.000001%,60.000002%,100%);fill-opacity:1;" d="M 12 12 C 14.152344 13.242188 14.890625 15.996094 13.644531 18.144531 C 12.84375 19.539062 11.355469 20.394531 9.75 20.394531 C 10.4375 20.792969 11.214844 21 12.007812 21 C 14.492188 20.996094 16.503906 18.980469 16.503906 16.496094 C 16.5 14.011719 14.484375 12 12 12 Z M 12 12 "/>
<path style=" stroke:none;fill-rule:nonzero;fill:rgb(20%,40.000001%,80.000001%);fill-opacity:1;" d="M 12 12 C 13.242188 14.152344 12.503906 16.902344 10.351562 18.144531 C 8.960938 18.949219 7.246094 18.945312 5.851562 18.140625 C 6.246094 18.828125 6.816406 19.394531 7.5 19.792969 C 9.652344 21.035156 12.402344 20.296875 13.644531 18.144531 C 14.890625 15.996094 14.152344 13.242188 12 12 Z M 12 12 "/>
<path style=" stroke:none;fill-rule:nonzero;fill:rgb(0%,20%,60.000002%);fill-opacity:1;" d="M 12 12 C 12 14.484375 9.980469 16.5 7.496094 16.496094 C 5.890625 16.492188 4.40625 15.632812 3.605469 14.242188 C 3.605469 15.035156 3.8125 15.8125 4.207031 16.5 C 5.449219 18.652344 8.203125 19.390625 10.351562 18.144531 C 12.503906 16.902344 13.242188 14.152344 12 12 Z M 12 12 "/>
<path style=" stroke:none;fill-rule:nonzero;fill:rgb(17.254902%,0%,34.901962%);fill-opacity:1;" d="M 3.605469 9.75 C 3.210938 10.433594 3 11.210938 3 12 C 3 14.484375 5.015625 16.5 7.5 16.5 C 9.984375 16.5 12 14.484375 12 12 C 10.757812 14.152344 8.003906 14.890625 5.851562 13.644531 C 4.460938 12.84375 3.605469 11.355469 3.605469 9.75 Z M 3.605469 9.75 "/>
<path style=" stroke:none;fill-rule:nonzero;fill:rgb(45.09804%,0%,33.333334%);fill-opacity:1;" d="M 5.859375 5.855469 C 5.171875 6.246094 4.605469 6.816406 4.207031 7.5 C 2.964844 9.652344 3.703125 12.402344 5.851562 13.644531 C 8.003906 14.890625 10.757812 14.152344 12 12 C 9.847656 13.242188 7.097656 12.503906 5.851562 10.355469 C 5.050781 8.960938 5.054688 7.246094 5.859375 5.855469 Z M 5.859375 5.855469 "/>
<path style=" stroke:none;fill-rule:nonzero;fill:rgb(80.000001%,0%,0%);fill-opacity:1;" d="M 9.644531 3.605469 C 8.890625 3.621094 8.152344 3.828125 7.5 4.207031 C 5.347656 5.449219 4.609375 8.203125 5.851562 10.355469 C 7.097656 12.503906 9.847656 13.242188 12 12 C 9.515625 12 7.5 9.984375 7.5 7.5 C 7.503906 5.890625 8.363281 4.40625 9.753906 3.605469 C 9.71875 3.605469 9.683594 3.605469 9.644531 3.605469 Z M 9.644531 3.605469 "/>
<path style=" stroke:none;fill-rule:nonzero;fill:url(#linear0);" d="M 1.730469 21.679688 L 19.96875 21.679688 C 20.132812 21.679688 20.402344 21.816406 20.570312 21.980469 L 20.789062 22.199219 C 20.953125 22.367188 20.953125 22.5 20.789062 22.5 L 2.550781 22.5 C 2.382812 22.5 2.117188 22.367188 1.949219 22.199219 L 1.730469 21.980469 C 1.566406 21.816406 1.566406 21.679688 1.730469 21.679688 Z M 1.730469 21.679688 "/>
<path style="fill-rule:nonzero;fill:rgb(95.294118%,71.764708%,85.09804%);fill-opacity:1;stroke-width:0.244249;stroke-linecap:butt;stroke-linejoin:miter;stroke:rgb(61.56863%,22.745098%,60.784316%);stroke-opacity:1;stroke-miterlimit:4;" d="M 13.90067 1.91138 L 12.699147 3.510253 L 14.298264 4.71198 L 15.499787 3.113107 L 14.999516 2.110982 Z M 13.90067 1.91138 " transform="matrix(-1.788096,0,0,1.89831,30.066668,-1.593235)"/>
<path style="fill-rule:nonzero;fill:rgb(95.294118%,71.764708%,85.09804%);fill-opacity:1;stroke-width:0.162833;stroke-linecap:butt;stroke-linejoin:miter;stroke:rgb(61.56863%,22.745098%,60.784316%);stroke-opacity:1;stroke-miterlimit:4;" d="M 7.792566 11.706277 L 8.19453 9.506541 L 8.895782 9.407769 L 8.786553 9.951015 L 9.302115 9.714374 L 9.186332 10.251447 L 9.704079 10.014806 L 9.793647 10.708268 L 7.792566 11.706277 " transform="matrix(-1.788096,0,0,1.89831,30.066668,-1.593235)"/>
<path style="fill-rule:nonzero;fill:rgb(61.56863%,22.745098%,60.784316%);fill-opacity:1;stroke-width:0.0814165;stroke-linecap:butt;stroke-linejoin:miter;stroke:rgb(61.56863%,22.745098%,60.784316%);stroke-opacity:1;stroke-miterlimit:4;" d="M 8.133361 10.593034 L 8.675139 11.041624 L 7.79475 11.714508 Z M 8.133361 10.593034 " transform="matrix(-1.788096,0,0,1.89831,30.066668,-1.593235)"/>
<path style="fill-rule:nonzero;fill:rgb(90.196079%,0.784314%,70.588237%);fill-opacity:1;stroke-width:0.0814165;stroke-linecap:butt;stroke-linejoin:miter;stroke:rgb(61.56863%,22.745098%,60.784316%);stroke-opacity:1;stroke-miterlimit:4;" d="M 12.699147 3.510253 L 14.298264 4.71198 L 9.793647 10.708268 L 9.704079 10.014806 L 9.186332 10.251447 L 9.227839 9.796684 L 8.786553 9.951015 L 8.838983 9.481848 L 8.19453 9.506541 Z M 12.699147 3.510253 " transform="matrix(-1.788096,0,0,1.89831,30.066668,-1.593235)"/>
<path style="fill:none;stroke-width:0.569915;stroke-linecap:butt;stroke-linejoin:round;stroke:rgb(61.56863%,22.745098%,60.784316%);stroke-opacity:1;stroke-miterlimit:4;" d="M 13.599197 2.310584 L 8.19453 9.506541 L 7.493278 12.107539 L 9.793647 10.708268 L 15.198314 3.512311 C 15.997872 2.479319 14.433709 1.23438 13.599197 2.310584 Z M 13.599197 2.310584 " transform="matrix(-1.788096,0,0,1.89831,30.066668,-1.593235)"/>
</g>
</svg>
