<?xml version="1.0" encoding="UTF-8"?>
<svg xmlns="http://www.w3.org/2000/svg" xmlns:xlink="http://www.w3.org/1999/xlink" width="24px" height="24px" viewBox="0 0 24 24" version="1.1">
<defs>
<filter id="alpha" filterUnits="objectBoundingBox" x="0%" y="0%" width="100%" height="100%">
  <feColorMatrix type="matrix" in="SourceGraphic" values="0 0 0 0 1 0 0 0 0 1 0 0 0 0 1 0 0 0 1 0"/>
</filter>
<mask id="mask0">
  <g filter="url(#alpha)">
<rect x="0" y="0" width="24" height="24" style="fill:rgb(0%,0%,0%);fill-opacity:0.38;stroke:none;"/>
  </g>
</mask>
<clipPath id="clip1">
  <rect x="0" y="0" width="24" height="24"/>
</clipPath>
<g id="surface5" clip-path="url(#clip1)">
<path style=" stroke:none;fill-rule:nonzero;fill:rgb(90.196079%,0.784314%,70.588237%);fill-opacity:1;" d="M 3.75 4.820312 L 3.75 7.78125 C 3.75 8.582031 4.125 8.957031 4.886719 8.957031 L 7.886719 8.957031 C 8.625 8.957031 9 8.582031 9 7.832031 L 9 4.84375 C 9 4.082031 8.625 3.707031 7.875 3.707031 L 4.886719 3.707031 C 4.125 3.707031 3.75 4.082031 3.75 4.820312 Z M 6.75 5.199219 C 7.488281 5.199219 7.5 5.1875 7.5 5.949219 L 7.5 6.699219 C 7.5 7.449219 7.488281 7.449219 6.75 7.449219 L 6 7.453125 C 5.261719 7.449219 5.242188 7.476562 5.25 6.699219 L 5.246094 5.949219 C 5.242188 5.214844 5.261719 5.199219 6 5.199219 C 5.078125 5.199219 6.472656 5.199219 6.75 5.199219 Z M 6.75 5.199219 "/>
</g>
<mask id="mask1">
  <g filter="url(#alpha)">
<rect x="0" y="0" width="24" height="24" style="fill:rgb(0%,0%,0%);fill-opacity:0.38;stroke:none;"/>
  </g>
</mask>
<clipPath id="clip2">
  <rect x="0" y="0" width="24" height="24"/>
</clipPath>
<g id="surface8" clip-path="url(#clip2)">
<path style=" stroke:none;fill-rule:evenodd;fill:rgb(61.56863%,22.745098%,60.784316%);fill-opacity:1;" d="M 9.039062 7.449219 L 18.039062 7.449219 L 18 9 L 21.039062 6.699219 L 18.039062 4.207031 L 17.984375 5.949219 L 9.039062 5.949219 Z M 9.039062 7.449219 "/>
</g>
<mask id="mask2">
  <g filter="url(#alpha)">
<rect x="0" y="0" width="24" height="24" style="fill:rgb(0%,0%,0%);fill-opacity:0.38;stroke:none;"/>
  </g>
</mask>
<clipPath id="clip3">
  <rect x="0" y="0" width="24" height="24"/>
</clipPath>
<g id="surface11" clip-path="url(#clip3)">
<path style=" stroke:none;fill-rule:evenodd;fill:rgb(61.56863%,22.745098%,60.784316%);fill-opacity:1;" d="M 6.039062 8.949219 L 6.039062 17.898438 L 4.3125 17.914062 L 6.789062 20.949219 L 9.28125 17.949219 L 7.539062 17.898438 L 7.539062 8.949219 Z M 6.039062 8.949219 "/>
</g>
</defs>
<g id="surface1">
<path style="fill-rule:evenodd;fill:rgb(94.117647%,89.019608%,92.54902%);fill-opacity:1;stroke-width:1;stroke-linecap:round;stroke-linejoin:round;stroke:rgb(90.196079%,0.784314%,70.588237%);stroke-opacity:1;stroke-miterlimit:4;" d="M 2.213542 1.466146 L 13.838542 1.466146 C 14.216146 1.466146 14.526042 1.760417 14.526042 2.119792 L 14.526042 13.815104 C 14.526042 14.174479 14.216146 14.466146 13.838542 14.466146 L 2.213542 14.466146 C 1.833333 14.466146 1.526042 14.174479 1.526042 13.815104 L 1.526042 2.119792 C 1.526042 1.760417 1.833333 1.466146 2.213542 1.466146 Z M 2.213542 1.466146 " transform="matrix(1.5,0,0,1.5,0,0)"/>
<path style=" stroke:none;fill-rule:evenodd;fill:rgb(61.56863%,22.745098%,60.784316%);fill-opacity:1;" d="M 9.039062 7.449219 L 18.039062 7.449219 L 18 9 L 21.039062 6.699219 L 18.039062 4.207031 L 17.984375 5.949219 L 9.039062 5.949219 Z M 9.039062 7.449219 "/>
<path style=" stroke:none;fill-rule:nonzero;fill:rgb(90.196079%,0.784314%,70.588237%);fill-opacity:1;" d="M 3.789062 4.820312 L 3.789062 7.78125 C 3.789062 8.582031 4.164062 8.957031 4.925781 8.957031 L 7.925781 8.957031 C 8.664062 8.957031 9.039062 8.582031 9.039062 7.832031 L 9.039062 4.84375 C 9.039062 4.082031 8.664062 3.707031 7.914062 3.707031 L 4.925781 3.707031 C 4.164062 3.707031 3.789062 4.082031 3.789062 4.820312 Z M 6.789062 5.199219 C 7.523438 5.199219 7.539062 5.1875 7.539062 5.949219 L 7.539062 6.699219 C 7.539062 7.449219 7.523438 7.449219 6.789062 7.449219 L 6.039062 7.453125 C 5.300781 7.449219 5.277344 7.476562 5.289062 6.699219 L 5.28125 5.949219 C 5.277344 5.214844 5.300781 5.199219 6.039062 5.199219 C 5.117188 5.199219 6.511719 5.199219 6.789062 5.199219 Z M 6.789062 5.199219 "/>
<path style=" stroke:none;fill-rule:evenodd;fill:rgb(61.56863%,22.745098%,60.784316%);fill-opacity:1;" d="M 6.039062 8.949219 L 6.039062 17.898438 L 4.3125 17.914062 L 6.789062 20.949219 L 9.28125 17.949219 L 7.539062 17.898438 L 7.539062 8.949219 Z M 6.039062 8.949219 "/>
<path style=" stroke:none;fill-rule:nonzero;fill:rgb(90.196079%,0.784314%,70.588237%);fill-opacity:1;" d="M 14.996094 15.089844 C 14.53125 15.546875 12.816406 16.25 13.273438 16.71875 L 14.902344 18.445312 L 15.765625 17.628906 L 20.113281 22.226562 C 21.203125 23.40625 22.957031 21.746094 21.839844 20.59375 L 17.488281 15.996094 L 18.351562 15.183594 L 16.722656 13.457031 C 16.269531 12.964844 15.476562 14.621094 14.996094 15.089844 Z M 14.996094 15.089844 "/>
<path style="fill-rule:nonzero;fill:rgb(95.294118%,71.764708%,85.09804%);fill-opacity:1;stroke-width:1;stroke-linecap:square;stroke-linejoin:miter;stroke:rgb(90.196079%,0.784314%,70.588237%);stroke-opacity:1;stroke-miterlimit:4;" d="M 5.193238 9.092165 C 5.193975 11.770608 3.023433 13.940162 0.346779 13.939008 C -2.331664 13.939745 -4.501218 11.769203 -4.500064 9.092549 C -4.500801 6.414106 -2.330259 4.244551 0.346395 4.245706 C 3.024838 4.244969 5.194393 6.415511 5.193238 9.092165 Z M 5.193238 9.092165 " transform="matrix(1.089711,-1.030791,1.030791,1.089711,0,0)"/>
<path style="fill-rule:nonzero;fill:rgb(95.294118%,71.764708%,85.09804%);fill-opacity:1;stroke-width:1;stroke-linecap:round;stroke-linejoin:miter;stroke:rgb(90.196079%,0.784314%,70.588237%);stroke-opacity:1;stroke-miterlimit:4;" d="M 4.666667 3.541667 C 5.231771 3.190104 5.903646 2.997396 6.619792 3.023438 C 7.557292 3.054688 8.395833 3.455729 9 4.078125 " transform="matrix(1.5,0,0,1.5,0,0)"/>
<path style="fill:none;stroke-width:1;stroke-linecap:round;stroke-linejoin:miter;stroke:rgb(61.56863%,22.745098%,60.784316%);stroke-opacity:1;stroke-miterlimit:4;" d="M 11.5 9.5 L 9.5 11.5 " transform="matrix(1.5,0,0,1.5,0,0)"/>
<use xlink:href="#surface5" mask="url(#mask0)"/>
<use xlink:href="#surface8" mask="url(#mask1)"/>
<use xlink:href="#surface11" mask="url(#mask2)"/>
</g>
</svg>
