<?xml version="1.0" encoding="UTF-8"?>
<svg xmlns="http://www.w3.org/2000/svg" xmlns:xlink="http://www.w3.org/1999/xlink" width="24px" height="24px" viewBox="0 0 24 24" version="1.1">
<g id="surface1">
<path style=" stroke:none;fill-rule:nonzero;fill:rgb(90.196079%,0.784314%,70.588237%);fill-opacity:1;" d="M 15.394531 14.90625 C 14.925781 15.363281 13.214844 16.066406 13.671875 16.539062 L 15.300781 18.261719 L 16.164062 17.445312 L 20.511719 22.042969 C 21.597656 23.226562 23.355469 21.5625 22.238281 20.414062 L 17.886719 15.816406 L 18.75 15 L 17.121094 13.277344 C 16.664062 12.785156 15.875 14.441406 15.394531 14.90625 Z M 15.394531 14.90625 "/>
<path style="fill-rule:nonzero;fill:rgb(95.294118%,71.764708%,85.09804%);fill-opacity:1;stroke-width:1;stroke-linecap:square;stroke-linejoin:miter;stroke:rgb(90.196079%,0.784314%,70.588237%);stroke-opacity:1;stroke-miterlimit:4;" d="M 5.470317 9.185783 C 5.471054 11.864227 3.300512 14.033781 0.622069 14.034518 C -2.054585 14.033364 -4.224139 11.862821 -4.224774 9.188059 C -4.225511 6.509616 -2.054969 4.340062 0.623474 4.339325 C 3.300128 4.340479 5.471472 6.50913 5.470317 9.185783 Z M 5.470317 9.185783 " transform="matrix(1.089711,-1.030791,1.030791,1.089711,0,0)"/>
<path style="fill-rule:nonzero;fill:rgb(95.294118%,71.764708%,85.09804%);fill-opacity:1;stroke-width:1;stroke-linecap:round;stroke-linejoin:miter;stroke:rgb(90.196079%,0.784314%,70.588237%);stroke-opacity:1;stroke-miterlimit:4;" d="M 4.929688 3.421875 C 5.497396 3.070312 6.169271 2.875 6.885417 2.901042 C 7.822917 2.932292 8.661458 3.333333 9.265625 3.958333 " transform="matrix(1.5,0,0,1.5,0,0)"/>
<path style="fill:none;stroke-width:1;stroke-linecap:round;stroke-linejoin:miter;stroke:rgb(61.56863%,22.745098%,60.784316%);stroke-opacity:1;stroke-miterlimit:4;" d="M 11.765625 9.377604 L 9.765625 11.377604 " transform="matrix(1.5,0,0,1.5,0,0)"/>
<path style="fill-rule:evenodd;fill:rgb(94.117647%,89.019608%,92.54902%);fill-opacity:1;stroke-width:0.696268;stroke-linecap:butt;stroke-linejoin:miter;stroke:rgb(61.56863%,22.745098%,60.784316%);stroke-opacity:1;stroke-miterlimit:4;" d="M 3.5 10 L 3.325521 8.197917 C 3.278646 7.796875 3.34375 7.84375 3.289062 7.539062 C 3.226562 7.171875 3.197917 8.682292 3.106771 8.815104 C 2.919271 8.53125 2.403646 7.315104 3.143229 5.677083 C 3.611979 5.445312 4.164062 5.630208 4.690104 5.677083 L 4.924479 6.856771 L 5.098958 8.559896 L 4.677083 5.333333 C 4.851562 4.838542 6.177083 4.684896 6.565104 5.208333 L 6.747396 8.25 L 6.565104 5.721354 C 7.770833 5.653646 7.776042 5.674479 8.291667 6.705729 L 8.291667 8.765625 L 8.291667 7.221354 C 9.388021 7.164062 9.322917 7.895833 9.322917 8.765625 C 9.46875 9.799479 9.432292 10.682292 8.989583 11.567708 C 8.973958 12.328125 8.955729 14.380208 8.291667 14.429688 C 6.263021 14.760417 6.695312 15.070312 4.872396 14.692708 C 3.213542 14.054688 3.127604 12.549479 2.630208 11.854167 C 2.080729 11.177083 2.4375 10.815104 1.106771 10.083333 C 0.479167 9.341146 1.239583 8.882812 1.432292 9.015625 C 2.632812 9.252604 2.979167 9.59375 3.5 10 Z M 3.5 10 " transform="matrix(1.5,0,0,1.5,0,0)"/>
</g>
</svg>
