<?xml version="1.0" encoding="UTF-8"?>
<svg xmlns="http://www.w3.org/2000/svg" xmlns:xlink="http://www.w3.org/1999/xlink" width="24px" height="24px" viewBox="0 0 24 24" version="1.1">
<g id="surface1">
<path style="fill-rule:evenodd;fill:rgb(94.117647%,89.019608%,92.54902%);fill-opacity:1;stroke-width:1;stroke-linecap:round;stroke-linejoin:round;stroke:rgb(90.196079%,0.784314%,70.588237%);stroke-opacity:1;stroke-miterlimit:4;" d="M 2.1875 1.5 L 13.8125 1.5 C 14.192708 1.5 14.5 1.791667 14.5 2.151042 L 14.5 13.848958 C 14.5 14.208333 14.192708 14.5 13.8125 14.5 L 2.1875 14.5 C 1.807292 14.5 1.5 14.208333 1.5 13.848958 L 1.5 2.151042 C 1.5 1.791667 1.807292 1.5 2.1875 1.5 Z M 2.1875 1.5 " transform="matrix(1.5,0,0,1.5,0,0)"/>
<path style=" stroke:none;fill-rule:evenodd;fill:rgb(61.56863%,22.745098%,60.784316%);fill-opacity:1;" d="M 9 7.5 L 18 7.5 L 17.960938 9.050781 L 21 6.75 L 18 4.253906 L 17.949219 6 L 9 6 Z M 9 7.5 "/>
<path style=" stroke:none;fill-rule:nonzero;fill:rgb(90.196079%,0.784314%,70.588237%);fill-opacity:1;" d="M 3.75 4.867188 L 3.75 7.832031 C 3.75 8.632812 4.125 9.007812 4.886719 9.007812 L 7.886719 9.007812 C 8.625 9.007812 9 8.632812 9 7.882812 L 9 4.894531 C 9 4.132812 8.625 3.757812 7.875 3.757812 L 4.886719 3.757812 C 4.125 3.757812 3.75 4.132812 3.75 4.867188 Z M 6.75 5.25 C 7.488281 5.25 7.5 5.238281 7.5 6 L 7.5 6.75 C 7.5 7.5 7.488281 7.5 6.75 7.5 L 6 7.503906 C 5.261719 7.5 5.242188 7.527344 5.25 6.75 L 5.246094 6 C 5.242188 5.261719 5.261719 5.25 6 5.25 C 5.078125 5.25 6.472656 5.25 6.75 5.25 Z M 6.75 5.25 "/>
<path style=" stroke:none;fill-rule:evenodd;fill:rgb(61.56863%,22.745098%,60.784316%);fill-opacity:1;" d="M 6 9 L 6 17.949219 L 4.277344 17.960938 L 6.75 21 L 9.246094 18 L 7.5 17.949219 L 7.5 9 Z M 6 9 "/>
</g>
</svg>
