<?xml version="1.0" encoding="UTF-8"?>
<svg xmlns="http://www.w3.org/2000/svg" xmlns:xlink="http://www.w3.org/1999/xlink" width="24px" height="24px" viewBox="0 0 24 24" version="1.1">
<g id="surface1">
<path style="fill-rule:evenodd;fill:rgb(94.117647%,89.019608%,92.54902%);fill-opacity:1;stroke-width:1;stroke-linecap:round;stroke-linejoin:round;stroke:rgb(90.196079%,0.784314%,70.588237%);stroke-opacity:1;stroke-miterlimit:4;" d="M 2.1875 1.5 L 13.8125 1.5 C 14.192708 1.5 14.5 1.791667 14.5 2.151042 L 14.5 13.848958 C 14.5 14.208333 14.192708 14.5 13.8125 14.5 L 2.1875 14.5 C 1.807292 14.5 1.5 14.208333 1.5 13.848958 L 1.5 2.151042 C 1.5 1.791667 1.807292 1.5 2.1875 1.5 Z M 2.1875 1.5 " transform="matrix(1.5,0,0,1.5,0,0)"/>
<path style=" stroke:none;fill-rule:nonzero;fill:rgb(90.196079%,0.784314%,70.588237%);fill-opacity:1;" d="M 3.75 10.5 L 3.75 13.5 C 3.75 14.300781 4.488281 15 5.25 15 L 8.25 15 C 8.988281 15 9.75 14.25 9.75 13.5 L 9.75 10.5 C 9.75 9.738281 9 9 8.25 9 L 5.25 9 C 4.488281 9 3.75 9.761719 3.75 10.5 Z M 7.5 10.5 C 8.238281 10.5 8.25 10.488281 8.25 11.25 L 8.25 12.75 C 8.25 13.5 8.238281 13.5 7.5 13.5 L 6 13.503906 C 5.261719 13.5 5.242188 13.527344 5.25 12.75 L 5.246094 11.25 C 5.242188 10.511719 5.261719 10.5 6 10.5 Z M 7.5 10.5 "/>
<path style=" stroke:none;fill-rule:evenodd;fill:rgb(61.56863%,22.745098%,60.784316%);fill-opacity:1;" d="M 6 15 L 6 17.949219 L 4.277344 17.960938 L 6.75 21 L 9.246094 18 L 7.5 17.949219 L 7.5 15 Z M 6 15 "/>
<path style=" stroke:none;fill-rule:evenodd;fill:rgb(61.56863%,22.745098%,60.784316%);fill-opacity:1;" d="M 6 9 L 6 6.050781 L 4.277344 6.039062 L 6.75 3 L 9.246094 6 L 7.5 6.050781 L 7.5 9 Z M 6 9 "/>
</g>
</svg>
