<?xml version="1.0" encoding="UTF-8"?>
<svg xmlns="http://www.w3.org/2000/svg" xmlns:xlink="http://www.w3.org/1999/xlink" width="24px" height="24px" viewBox="0 0 24 24" version="1.1">
<g id="surface1">
<path style=" stroke:none;fill-rule:nonzero;fill:rgb(90.196079%,0.784314%,70.588237%);fill-opacity:1;" d="M 15 15 C 14.53125 15.457031 12.820312 16.160156 13.277344 16.628906 L 14.90625 18.355469 L 15.769531 17.539062 L 20.117188 22.136719 C 21.203125 23.316406 22.960938 21.65625 21.839844 20.507812 L 17.492188 15.910156 L 18.355469 15.09375 L 16.722656 13.371094 C 16.269531 12.878906 15.480469 14.53125 15 15 Z M 15 15 "/>
<path style="fill-rule:nonzero;fill:rgb(95.294118%,71.764708%,85.09804%);fill-opacity:1;stroke-width:1;stroke-linecap:square;stroke-linejoin:miter;stroke:rgb(90.196079%,0.784314%,70.588237%);stroke-opacity:1;stroke-miterlimit:4;" d="M 5.23629 9.050442 C 5.235135 11.727095 3.066485 13.898439 0.388042 13.899176 C -2.288612 13.898022 -4.458166 11.72748 -4.458904 9.049036 C -4.459539 6.374274 -2.287207 4.202828 0.389447 4.203983 C 3.064209 4.203348 5.235553 6.371998 5.23629 9.050442 Z M 5.23629 9.050442 " transform="matrix(1.089711,-1.030791,1.030791,1.089711,0,0)"/>
<path style="fill-rule:nonzero;fill:rgb(95.294118%,71.764708%,85.09804%);fill-opacity:1;stroke-width:1;stroke-linecap:round;stroke-linejoin:miter;stroke:rgb(90.196079%,0.784314%,70.588237%);stroke-opacity:1;stroke-miterlimit:4;" d="M 4.666667 3.481771 C 5.234375 3.130208 5.90625 2.9375 6.622396 2.963542 C 7.559896 2.994792 8.398438 3.395833 9.002604 4.020833 " transform="matrix(1.5,0,0,1.5,0,0)"/>
<path style="fill:none;stroke-width:1;stroke-linecap:round;stroke-linejoin:miter;stroke:rgb(61.56863%,22.745098%,60.784316%);stroke-opacity:1;stroke-miterlimit:4;" d="M 11.502604 9.440104 L 9.502604 11.440104 " transform="matrix(1.5,0,0,1.5,0,0)"/>
<path style=" stroke:none;fill-rule:nonzero;fill:rgb(61.56863%,22.745098%,60.784316%);fill-opacity:1;" d="M 12.75 8.25 L 11.25 8.25 L 11.25 6.75 L 14.25 6.75 L 14.25 14.25 L 12.742188 14.25 Z M 12.75 8.25 "/>
<path style=" stroke:none;fill-rule:nonzero;fill:rgb(61.56863%,22.745098%,60.784316%);fill-opacity:1;" d="M 9.75 9.75 L 11.25 9.75 L 11.25 11.25 L 9.75 11.25 Z M 9.75 12.75 L 11.25 12.75 L 11.25 14.25 L 9.75 14.25 Z M 9.75 12.75 "/>
<path style=" stroke:none;fill-rule:nonzero;fill:rgb(61.56863%,22.745098%,60.784316%);fill-opacity:1;" d="M 6 12.75 L 9 12.75 L 9 14.25 L 4.5 14.25 L 4.5 11.25 L 7.5 9.75 L 7.5 8.25 L 4.5 8.25 L 4.5 6.75 L 9 6.75 L 9 10.5 L 6 12 Z M 6 12.75 "/>
</g>
</svg>
