<?xml version="1.0" encoding="UTF-8"?>
<svg xmlns="http://www.w3.org/2000/svg" xmlns:xlink="http://www.w3.org/1999/xlink" width="24px" height="24px" viewBox="0 0 24 24" version="1.1">
<g id="surface1">
<path style=" stroke:none;fill-rule:nonzero;fill:rgb(90.196079%,0.784314%,70.588237%);fill-opacity:1;" d="M 15.125 15.027344 C 14.65625 15.484375 12.945312 16.1875 13.398438 16.65625 L 15.03125 18.378906 L 15.890625 17.566406 L 20.242188 22.164062 C 21.328125 23.34375 23.085938 21.683594 21.964844 20.53125 L 17.617188 15.933594 L 18.480469 15.117188 L 16.847656 13.394531 C 16.394531 12.902344 15.601562 14.558594 15.125 15.027344 Z M 15.125 15.027344 "/>
<path style="fill-rule:nonzero;fill:rgb(95.294118%,71.764708%,85.09804%);fill-opacity:1;stroke-width:1;stroke-linecap:square;stroke-linejoin:miter;stroke:rgb(90.196079%,0.784314%,70.588237%);stroke-opacity:1;stroke-miterlimit:4;" d="M 5.284302 9.120951 C 5.283148 11.797604 3.112606 13.967159 0.437844 13.967794 C -2.2406 13.968531 -4.410154 11.797989 -4.410891 9.119545 C -4.409737 6.442892 -2.241086 4.271548 0.435568 4.272703 C 3.114011 4.271965 5.283565 6.442508 5.284302 9.120951 Z M 5.284302 9.120951 " transform="matrix(1.089711,-1.030791,1.030791,1.089711,0,0)"/>
<path style="fill-rule:nonzero;fill:rgb(95.294118%,71.764708%,85.09804%);fill-opacity:1;stroke-width:1;stroke-linecap:round;stroke-linejoin:miter;stroke:rgb(90.196079%,0.784314%,70.588237%);stroke-opacity:1;stroke-miterlimit:4;" d="M 4.75 3.5 C 5.315104 3.148438 5.989583 2.955729 6.705729 2.979167 C 7.640625 3.013021 8.479167 3.411458 9.083333 4.036458 " transform="matrix(1.5,0,0,1.5,0,0)"/>
<path style="fill:none;stroke-width:1;stroke-linecap:round;stroke-linejoin:miter;stroke:rgb(61.56863%,22.745098%,60.784316%);stroke-opacity:1;stroke-miterlimit:4;" d="M 11.583333 9.458333 L 9.583333 11.458333 " transform="matrix(1.5,0,0,1.5,0,0)"/>
<path style="fill:none;stroke-width:1.538461;stroke-linecap:round;stroke-linejoin:miter;stroke:rgb(61.56863%,22.745098%,60.784316%);stroke-opacity:1;stroke-miterlimit:4;" d="M 20.5 1.5 L 20.5 6.5 " transform="matrix(0.975,0,0,0.975,-13.425001,4.35)"/>
<path style="fill:none;stroke-width:1.538461;stroke-linecap:round;stroke-linejoin:miter;stroke:rgb(61.56863%,22.745098%,60.784316%);stroke-opacity:1;stroke-miterlimit:4;" d="M 23 4 L 18 4 " transform="matrix(0.975,0,0,0.975,-13.425001,4.35)"/>
<path style="fill:none;stroke-width:1;stroke-linecap:round;stroke-linejoin:miter;stroke:rgb(61.56863%,22.745098%,60.784316%);stroke-opacity:1;stroke-miterlimit:4;" d="M 9.5 8.5 L 7 8.5 " transform="matrix(1.5,0,0,1.5,0,0)"/>
<path style="fill:none;stroke-width:1;stroke-linecap:round;stroke-linejoin:miter;stroke:rgb(61.56863%,22.745098%,60.784316%);stroke-opacity:1;stroke-miterlimit:4;" d="M 4.5 9.684896 L 9 3.299479 " transform="matrix(1.5,0,0,1.5,0,0)"/>
</g>
</svg>
