<?xml version="1.0" encoding="UTF-8"?>
<svg xmlns="http://www.w3.org/2000/svg" xmlns:xlink="http://www.w3.org/1999/xlink" width="24px" height="24px" viewBox="0 0 24 24" version="1.1">
<g id="surface1">
<path style="fill-rule:evenodd;fill:rgb(94.117647%,89.019608%,92.54902%);fill-opacity:1;stroke-width:1;stroke-linecap:round;stroke-linejoin:round;stroke:rgb(90.196079%,0.784314%,70.588237%);stroke-opacity:1;stroke-miterlimit:4;" d="M 2.1875 1.5 L 13.8125 1.5 C 14.192708 1.5 14.5 1.791667 14.5 2.151042 L 14.5 13.848958 C 14.5 14.208333 14.192708 14.5 13.8125 14.5 L 2.1875 14.5 C 1.807292 14.5 1.5 14.208333 1.5 13.848958 L 1.5 2.151042 C 1.5 1.791667 1.807292 1.5 2.1875 1.5 Z M 2.1875 1.5 " transform="matrix(1.5,0,0,1.5,0,0)"/>
<path style=" stroke:none;fill-rule:nonzero;fill:rgb(90.196079%,0.784314%,70.588237%);fill-opacity:1;" d="M 13.5 3.75 L 10.5 3.75 C 9.699219 3.75 9 4.488281 9 5.25 L 9 8.25 C 9 8.988281 9.75 9.75 10.5 9.75 L 13.5 9.75 C 14.261719 9.75 15 9 15 8.25 L 15 5.25 C 15 4.488281 14.238281 3.75 13.5 3.75 Z M 13.5 7.5 C 13.5 8.238281 13.511719 8.25 12.75 8.25 L 11.25 8.25 C 10.5 8.25 10.5 8.238281 10.5 7.5 L 10.496094 6 C 10.5 5.261719 10.472656 5.242188 11.25 5.25 L 12.75 5.246094 C 13.488281 5.242188 13.5 5.261719 13.5 6 Z M 13.5 7.5 "/>
<path style=" stroke:none;fill-rule:evenodd;fill:rgb(61.56863%,22.745098%,60.784316%);fill-opacity:1;" d="M 9 6 L 6.050781 6 L 6.039062 4.277344 L 3 6.75 L 6 9.246094 L 6.050781 7.5 L 9 7.5 Z M 9 6 "/>
<path style=" stroke:none;fill-rule:evenodd;fill:rgb(61.56863%,22.745098%,60.784316%);fill-opacity:1;" d="M 15 6 L 17.949219 6 L 17.960938 4.277344 L 21 6.75 L 18 9.246094 L 17.949219 7.5 L 15 7.5 Z M 15 6 "/>
</g>
</svg>
