<?xml version="1.0" encoding="UTF-8"?>
<svg xmlns="http://www.w3.org/2000/svg" xmlns:xlink="http://www.w3.org/1999/xlink" width="24px" height="24px" viewBox="0 0 24 24" version="1.1">
<g id="surface1">
<path style=" stroke:none;fill-rule:nonzero;fill:rgb(90.196079%,0.784314%,70.588237%);fill-opacity:1;" d="M 15.394531 14.90625 C 14.925781 15.363281 13.214844 16.066406 13.671875 16.539062 L 15.300781 18.261719 L 16.164062 17.445312 L 20.511719 22.042969 C 21.597656 23.226562 23.355469 21.5625 22.238281 20.414062 L 17.886719 15.816406 L 18.75 15 L 17.121094 13.277344 C 16.664062 12.785156 15.875 14.441406 15.394531 14.90625 Z M 15.394531 14.90625 "/>
<path style="fill-rule:nonzero;fill:rgb(95.294118%,71.764708%,85.09804%);fill-opacity:1;stroke-width:1;stroke-linecap:square;stroke-linejoin:miter;stroke:rgb(90.196079%,0.784314%,70.588237%);stroke-opacity:1;stroke-miterlimit:4;" d="M 5.470317 9.185783 C 5.471054 11.864227 3.300512 14.033781 0.622069 14.034518 C -2.054585 14.033364 -4.224139 11.862821 -4.224774 9.188059 C -4.225511 6.509616 -2.054969 4.340062 0.623474 4.339325 C 3.300128 4.340479 5.471472 6.50913 5.470317 9.185783 Z M 5.470317 9.185783 " transform="matrix(1.089711,-1.030791,1.030791,1.089711,0,0)"/>
<path style="fill-rule:nonzero;fill:rgb(95.294118%,71.764708%,85.09804%);fill-opacity:1;stroke-width:1;stroke-linecap:round;stroke-linejoin:miter;stroke:rgb(90.196079%,0.784314%,70.588237%);stroke-opacity:1;stroke-miterlimit:4;" d="M 4.929688 3.421875 C 5.497396 3.070312 6.169271 2.875 6.885417 2.901042 C 7.822917 2.932292 8.661458 3.333333 9.265625 3.958333 " transform="matrix(1.5,0,0,1.5,0,0)"/>
<path style="fill:none;stroke-width:1;stroke-linecap:round;stroke-linejoin:miter;stroke:rgb(61.56863%,22.745098%,60.784316%);stroke-opacity:1;stroke-miterlimit:4;" d="M 11.765625 9.377604 L 9.765625 11.377604 " transform="matrix(1.5,0,0,1.5,0,0)"/>
<path style=" stroke:none;fill-rule:nonzero;fill:rgb(61.56863%,22.745098%,60.784316%);fill-opacity:1;" d="M 5.253906 10.5 L 12.75 6 L 12.75 15 Z M 5.253906 10.5 "/>
</g>
</svg>
