<?xml version="1.0" encoding="UTF-8"?>
<svg xmlns="http://www.w3.org/2000/svg" xmlns:xlink="http://www.w3.org/1999/xlink" width="24px" height="24px" viewBox="0 0 24 24" version="1.1">
<g id="surface1">
<path style=" stroke:none;fill-rule:nonzero;fill:rgb(90.196079%,0.784314%,70.588237%);fill-opacity:1;" d="M 15.5 15.027344 C 15.03125 15.484375 13.320312 16.1875 13.773438 16.65625 L 15.40625 18.378906 L 16.265625 17.566406 L 20.617188 22.164062 C 21.703125 23.34375 23.460938 21.683594 22.339844 20.53125 L 17.992188 15.933594 L 18.855469 15.117188 L 17.222656 13.394531 C 16.769531 12.902344 15.976562 14.558594 15.5 15.027344 Z M 15.5 15.027344 "/>
<path style="fill-rule:nonzero;fill:rgb(95.294118%,71.764708%,85.09804%);fill-opacity:1;stroke-width:1;stroke-linecap:square;stroke-linejoin:miter;stroke:rgb(90.196079%,0.784314%,70.588237%);stroke-opacity:1;stroke-miterlimit:4;" d="M 5.465921 9.292749 C 5.464766 11.969403 3.294224 14.138957 0.619462 14.139592 C -2.058981 14.140329 -4.228535 11.969787 -4.229273 9.291344 C -4.228118 6.61469 -2.059468 4.443346 0.617186 4.444501 C 3.295629 4.443764 5.465184 6.614306 5.465921 9.292749 Z M 5.465921 9.292749 " transform="matrix(1.089711,-1.030791,1.030791,1.089711,0,0)"/>
<path style="fill-rule:nonzero;fill:rgb(95.294118%,71.764708%,85.09804%);fill-opacity:1;stroke-width:1;stroke-linecap:round;stroke-linejoin:miter;stroke:rgb(90.196079%,0.784314%,70.588237%);stroke-opacity:1;stroke-miterlimit:4;" d="M 5 3.5 C 5.565104 3.148438 6.239583 2.955729 6.955729 2.979167 C 7.890625 3.013021 8.729167 3.411458 9.333333 4.036458 " transform="matrix(1.5,0,0,1.5,0,0)"/>
<path style="fill:none;stroke-width:1;stroke-linecap:round;stroke-linejoin:miter;stroke:rgb(61.56863%,22.745098%,60.784316%);stroke-opacity:1;stroke-miterlimit:4;" d="M 11.833333 9.458333 L 9.833333 11.458333 " transform="matrix(1.5,0,0,1.5,0,0)"/>
<path style="fill:none;stroke-width:0.909091;stroke-linecap:round;stroke-linejoin:miter;stroke:rgb(61.56863%,22.745098%,60.784316%);stroke-opacity:1;stroke-miterlimit:4;" d="M 20.5 1.5 L 20.5 6.5 " transform="matrix(1.65,0,0,1.65,-23.7,3.9)"/>
<path style="fill:none;stroke-width:0.909091;stroke-linecap:round;stroke-linejoin:miter;stroke:rgb(61.56863%,22.745098%,60.784316%);stroke-opacity:1;stroke-miterlimit:4;" d="M 23 4 L 18 4 " transform="matrix(1.65,0,0,1.65,-23.7,3.9)"/>
</g>
</svg>
