<?xml version="1.0" encoding="UTF-8"?>
<svg xmlns="http://www.w3.org/2000/svg" xmlns:xlink="http://www.w3.org/1999/xlink" width="32px" height="32px" viewBox="0 0 32 32" version="1.1">
<g id="surface1">
<path style=" stroke:none;fill-rule:nonzero;fill:rgb(33.333334%,34.117648%,32.549021%);fill-opacity:1;" d="M 32 2 L 32 30 L 14 30 L 14 24 L 18 24 L 18 26 L 28 26 L 28 6 L 18 6 L 18 8 L 14 8 L 14 2 Z M 12 2 L 12 8 L 6 8 L 6 24 L 12 24 L 12 30 L 0 30 L 0 2 Z M 16 10 C 16.617188 10 17.105469 10.179688 17.5 10.5625 L 22 14.25 L 22 17.660156 C 19.832031 19.578125 19.667969 19.796875 17.5 21.4375 C 17.105469 21.820312 16.617188 22 16 22 L 14 22 L 14 20 C 14 19.484375 14.257812 18.941406 14.625 18.5625 L 15.644531 18 L 8 18 L 8 14 L 15.644531 14 L 14.625 13.4375 C 14.257812 13.058594 14 12.515625 14 12 L 14 10 Z M 16 10 "/>
</g>
</svg>
