<?xml version="1.0" encoding="UTF-8"?>
<svg xmlns="http://www.w3.org/2000/svg" xmlns:xlink="http://www.w3.org/1999/xlink" width="32px" height="32px" viewBox="0 0 32 32" version="1.1">
<g id="surface1">
<path style=" stroke:none;fill-rule:nonzero;fill:rgb(33.333334%,34.117648%,32.549021%);fill-opacity:1;" d="M 0 2 L 0 6 L 30 6 L 30 2 Z M 0 10 L 0 14 L 6 14 L 6 10 Z M 8 10 L 8 14 L 14 14 L 14 10 Z M 16 10 L 16 14 L 22 14 L 22 10 Z M 24 10 L 24 14 L 30 14 L 30 10 Z M 0 18 L 0 22 L 10 22 L 10 18 Z M 14 18 L 14 22 L 18 22 L 18 18 Z M 22 18 L 22 22 L 30 22 L 30 18 Z M 0 26 L 0 30 L 4 30 L 4 26 Z M 8 26 L 8 30 L 12 30 L 12 26 Z M 16 26 L 16 30 L 20 30 L 20 26 Z M 24 26 L 24 30 L 28 30 L 28 26 Z M 24 26 "/>
</g>
</svg>
