<?xml version="1.0" encoding="UTF-8"?>
<svg xmlns="http://www.w3.org/2000/svg" xmlns:xlink="http://www.w3.org/1999/xlink" width="32px" height="32px" viewBox="0 0 32 32" version="1.1">
<g id="surface1">
<path style=" stroke:none;fill-rule:nonzero;fill:rgb(33.333334%,34.117648%,32.549021%);fill-opacity:1;" d="M 4 2 C 4 3.105469 3.105469 4 2 4 L 2 6 L 4 6 L 4 12 L 6 12 L 6 2 Z M 10 4 L 10 8 L 30 8 L 30 4 Z M 5 18 C 3.34375 18 2 19.34375 2 21 L 4 21 C 4 20.449219 4.449219 20 5 20 C 5.550781 20 6 20.449219 6 21 C 6 21.277344 5.9375 21.398438 5.824219 21.601562 L 2 26.359375 L 2 28 L 8 28 L 8 26 L 4.796875 26 L 7.320312 22.808594 C 7.621094 22.480469 8 22 8 21 C 8 19.34375 6.65625 18 5 18 Z M 10 20 L 10 24 L 16 24 L 16 20 Z M 24 18 L 24 20 C 27.121094 23.246094 22.867188 26.996094 20 24 L 18 24 L 18 26 C 19.601562 27.542969 21.269531 28 22.800781 28 L 26 28 L 30 32 L 32 32 L 32 30 L 28 26 L 28 22.800781 C 28 21.035156 27.570312 19.601562 26 18 Z M 24 18 "/>
</g>
</svg>
