<?xml version="1.0" encoding="UTF-8"?>
<svg xmlns="http://www.w3.org/2000/svg" xmlns:xlink="http://www.w3.org/1999/xlink" width="32px" height="32px" viewBox="0 0 32 32" version="1.1">
<defs>
<clipPath id="clip1">
  <path d="M 3 3 L 14 3 L 14 11 L 3 11 Z M 3 3 "/>
</clipPath>
<clipPath id="clip2">
  <path d="M 1.808594 10.511719 L 28.851562 10.511719 C 28.953125 10.511719 29.039062 10.421875 29.039062 10.308594 L 29.039062 -0.429688 C 29.039062 -0.542969 28.953125 -0.632812 28.851562 -0.632812 L 1.808594 -0.632812 C 1.707031 -0.632812 1.621094 -0.542969 1.621094 -0.429688 L 1.621094 10.308594 C 1.621094 10.421875 1.707031 10.511719 1.808594 10.511719 Z M 1.808594 10.511719 "/>
</clipPath>
<clipPath id="clip3">
  <path d="M 2 2 L 15 2 L 15 11 L 2 11 Z M 2 2 "/>
</clipPath>
<clipPath id="clip4">
  <path d="M 1.808594 10.511719 L 28.851562 10.511719 C 28.953125 10.511719 29.039062 10.421875 29.039062 10.308594 L 29.039062 -0.429688 C 29.039062 -0.542969 28.953125 -0.632812 28.851562 -0.632812 L 1.808594 -0.632812 C 1.707031 -0.632812 1.621094 -0.542969 1.621094 -0.429688 L 1.621094 10.308594 C 1.621094 10.421875 1.707031 10.511719 1.808594 10.511719 Z M 1.808594 10.511719 "/>
</clipPath>
</defs>
<g id="surface1">
<path style="fill-rule:evenodd;fill:rgb(95.294118%,71.764708%,85.09804%);fill-opacity:1;stroke-width:1;stroke-linecap:round;stroke-linejoin:round;stroke:rgb(90.196079%,0.784314%,70.588237%);stroke-opacity:1;stroke-miterlimit:4;" d="M 3.691879 3.337253 L 12.652817 3.337253 C 13.758286 3.337253 14.652817 4.321628 14.652817 5.538425 L 14.652817 12.065769 C 14.652817 13.282566 13.758286 14.266941 12.652817 14.266941 L 3.691879 14.266941 C 2.586411 14.266941 1.691879 13.282566 1.691879 12.065769 L 1.691879 5.538425 C 1.691879 4.321628 2.586411 3.337253 3.691879 3.337253 Z M 3.691879 3.337253 " transform="matrix(2,0,0,2,-0.344696,0.2669)"/>
<g clip-path="url(#clip1)" clip-rule="nonzero">
<g clip-path="url(#clip2)" clip-rule="nonzero">
<path style=" stroke:none;fill-rule:evenodd;fill:rgb(95.294118%,71.764708%,85.09804%);fill-opacity:1;" d="M 5.519531 3.074219 L 10.960938 3.074219 C 12.328125 3.074219 13.4375 4.585938 13.4375 6.449219 L 13.4375 9.554688 C 13.4375 11.417969 12.328125 12.929688 10.960938 12.929688 L 5.519531 12.929688 C 4.152344 12.929688 3.046875 11.417969 3.046875 9.554688 L 3.046875 6.449219 C 3.046875 4.585938 4.152344 3.074219 5.519531 3.074219 Z M 5.519531 3.074219 "/>
</g>
</g>
<g clip-path="url(#clip3)" clip-rule="nonzero">
<g clip-path="url(#clip4)" clip-rule="nonzero">
<path style="fill:none;stroke-width:1.475344;stroke-linecap:round;stroke-linejoin:round;stroke:rgb(90.196079%,0.784314%,70.588237%);stroke-opacity:1;stroke-miterlimit:4;" d="M 3.965282 2.2157 L 8.155071 2.2157 C 9.207782 2.2157 10.061981 3.284057 10.061981 4.60087 L 10.061981 6.795557 C 10.061981 8.11237 9.207782 9.180727 8.155071 9.180727 L 3.965282 9.180727 C 2.912572 9.180727 2.06138 8.11237 2.06138 6.795557 L 2.06138 4.60087 C 2.06138 3.284057 2.912572 2.2157 3.965282 2.2157 Z M 3.965282 2.2157 " transform="matrix(1.29873,0,0,1.414994,0.369698,-0.0609819)"/>
</g>
</g>
<path style=" stroke:none;fill-rule:evenodd;fill:rgb(95.294118%,71.764708%,85.09804%);fill-opacity:1;" d="M 11.039062 7.96875 L 16.613281 7.96875 L 16.613281 12.074219 L 11.039062 12.074219 Z M 11.039062 7.96875 "/>
<path style="fill-rule:nonzero;fill:rgb(94.117647%,89.019608%,92.54902%);fill-opacity:1;stroke-width:1;stroke-linecap:round;stroke-linejoin:round;stroke:rgb(61.56863%,22.745098%,60.784316%);stroke-opacity:1;stroke-miterlimit:4;" d="M 6.889145 1.403659 C 6.633286 1.405612 6.46727 1.417331 6.211411 1.452487 C 6.137192 1.464206 6.074692 1.513034 6.074692 1.589206 L 6.027817 2.331394 C 6.021957 2.407566 5.969223 2.456394 5.912582 2.473972 C 5.910629 2.473972 5.908676 2.475925 5.906723 2.475925 C 5.584457 2.563816 5.277817 2.690769 4.994614 2.854831 C 4.941879 2.876316 4.877426 2.876316 4.822739 2.829441 L 4.264145 2.339206 C 4.211411 2.284519 4.133286 2.294284 4.070786 2.339206 C 3.865707 2.495456 3.736801 2.602878 3.555161 2.784519 C 3.37352 2.966159 3.266098 3.093112 3.109848 3.300144 C 3.064926 3.360691 3.057114 3.438816 3.109848 3.493503 L 3.602036 4.050144 C 3.639145 4.095066 3.658676 4.153659 3.639145 4.196628 L 3.633286 4.206394 C 3.457504 4.505222 3.318832 4.829441 3.230942 5.173191 C 3.228989 5.175144 3.228989 5.177097 3.227036 5.17905 C 3.203598 5.218112 3.160629 5.251316 3.102036 5.257175 L 2.361801 5.30405 C 2.285629 5.30405 2.234848 5.36655 2.223129 5.440769 C 2.187973 5.696628 2.176254 5.862644 2.174301 6.118503 C 2.176254 6.376316 2.187973 6.542331 2.223129 6.796237 C 2.234848 6.872409 2.285629 6.934909 2.361801 6.934909 L 3.102036 6.981784 C 3.170395 6.987644 3.215317 7.032566 3.238754 7.081394 C 3.324692 7.407566 3.455551 7.716159 3.621567 8.001316 C 3.650864 8.05405 3.650864 8.128269 3.602036 8.186862 L 3.109848 8.745456 C 3.057114 8.798191 3.064926 8.876316 3.109848 8.938816 C 3.266098 9.143894 3.37352 9.270847 3.555161 9.454441 C 3.736801 9.636081 3.865707 9.743503 4.070786 9.899753 C 4.133286 9.944675 4.211411 9.952487 4.264145 9.899753 L 4.822739 9.407566 C 4.881332 9.358737 4.955551 9.358737 5.008286 9.388034 L 5.016098 9.380222 C 5.293442 9.538425 5.59227 9.665378 5.906723 9.749362 L 5.906723 9.761081 C 5.965317 9.778659 6.020004 9.829441 6.027817 9.905612 L 6.074692 10.6478 C 6.074692 10.723972 6.137192 10.7728 6.211411 10.786472 C 6.46727 10.821628 6.633286 10.833347 6.889145 10.8353 C 7.146957 10.833347 7.312973 10.821628 7.568832 10.786472 C 7.643051 10.7728 7.705551 10.723972 7.705551 10.6478 L 7.752426 9.905612 C 7.760239 9.829441 7.814926 9.778659 7.871567 9.761081 L 7.871567 9.749362 C 8.187973 9.665378 8.486801 9.538425 8.764145 9.380222 L 8.771957 9.388034 C 8.824692 9.358737 8.898911 9.358737 8.957504 9.407566 L 9.516098 9.899753 C 9.568832 9.952487 9.646957 9.944675 9.709457 9.899753 C 9.914536 9.743503 10.043442 9.636081 10.225082 9.454441 C 10.406723 9.270847 10.514145 9.143894 10.670395 8.938816 C 10.715317 8.876316 10.723129 8.798191 10.670395 8.745456 L 10.178207 8.186862 C 10.129379 8.128269 10.129379 8.05405 10.158676 8.001316 C 10.324692 7.716159 10.455551 7.407566 10.541489 7.081394 C 10.564926 7.032566 10.609848 6.987644 10.678207 6.981784 L 11.418442 6.934909 C 11.494614 6.934909 11.545395 6.872409 11.557114 6.796237 C 11.59227 6.542331 11.603989 6.376316 11.605942 6.118503 C 11.603989 5.862644 11.59227 5.696628 11.557114 5.440769 C 11.545395 5.36655 11.494614 5.30405 11.418442 5.30405 L 10.678207 5.257175 C 10.619614 5.251316 10.576645 5.218112 10.551254 5.17905 C 10.551254 5.177097 10.549301 5.175144 10.549301 5.173191 C 10.461411 4.829441 10.301254 4.516941 10.146957 4.206394 L 10.141098 4.196628 C 10.121567 4.153659 10.141098 4.095066 10.178207 4.050144 L 10.670395 3.493503 C 10.723129 3.438816 10.715317 3.360691 10.670395 3.300144 C 10.514145 3.093112 10.406723 2.966159 10.225082 2.784519 C 10.043442 2.602878 9.914536 2.495456 9.709457 2.339206 C 9.646957 2.294284 9.568832 2.284519 9.516098 2.339206 L 8.957504 2.829441 C 8.902817 2.876316 8.838364 2.876316 8.785629 2.854831 C 8.502426 2.690769 8.195786 2.563816 7.87352 2.475925 C 7.871567 2.475925 7.869614 2.473972 7.867661 2.473972 C 7.81102 2.456394 7.758286 2.407566 7.752426 2.331394 L 7.705551 1.589206 C 7.705551 1.513034 7.643051 1.464206 7.568832 1.452487 C 7.312973 1.417331 7.146957 1.405612 6.891098 1.403659 Z M 6.889145 4.860691 C 7.584457 4.860691 8.146957 5.425144 8.146957 6.118503 C 8.146957 6.813816 7.584457 7.376316 6.889145 7.376316 C 6.195786 7.376316 5.633286 6.813816 5.633286 6.118503 C 5.633286 5.425144 6.195786 4.860691 6.889145 4.860691 Z M 6.889145 4.860691 " transform="matrix(2,0,0,2,-0.344696,0.2669)"/>
<path style="fill-rule:evenodd;fill:rgb(95.294118%,71.764708%,85.09804%);fill-opacity:1;stroke-width:1;stroke-linecap:round;stroke-linejoin:round;stroke:rgb(90.196079%,0.784314%,70.588237%);stroke-opacity:1;stroke-miterlimit:4;" d="M 3.652817 6.636081 L 12.680161 6.636081 C 13.74852 6.636081 14.613754 7.622409 14.613754 8.837253 L 14.613754 12.149753 C 14.613754 13.36655 13.74852 14.350925 12.680161 14.350925 L 3.652817 14.350925 C 2.586411 14.350925 1.719223 13.36655 1.719223 12.149753 L 1.719223 8.837253 C 1.719223 7.622409 2.586411 6.636081 3.652817 6.636081 Z M 3.652817 6.636081 " transform="matrix(2,0,0,2,-0.344696,0.2669)"/>
<path style="fill:none;stroke-width:1;stroke-linecap:butt;stroke-linejoin:miter;stroke:rgb(61.56863%,22.745098%,60.784316%);stroke-opacity:1;stroke-miterlimit:4;" d="M 2.018051 11.298191 L 14.344223 11.298191 " transform="matrix(2,0,0,2,-0.344696,0.2669)"/>
<path style="fill:none;stroke-width:1;stroke-linecap:butt;stroke-linejoin:miter;stroke:rgb(61.56863%,22.745098%,60.784316%);stroke-opacity:1;stroke-miterlimit:4;" d="M 2.000473 12.499362 L 14.344223 12.499362 " transform="matrix(2,0,0,2,-0.344696,0.2669)"/>
</g>
</svg>
