<?xml version="1.0" encoding="UTF-8"?>
<svg xmlns="http://www.w3.org/2000/svg" xmlns:xlink="http://www.w3.org/1999/xlink" width="32px" height="32px" viewBox="0 0 32 32" version="1.1">
<g id="surface1">
<path style=" stroke:none;fill-rule:nonzero;fill:rgb(33.333334%,34.117648%,32.549021%);fill-opacity:1;" d="M 16 2 C 11.582031 2 8 5.582031 8 10 L 8 16 L 4 16 L 4 30 L 28 30 L 28 16 L 24 16 L 24 10 C 24 5.582031 20.417969 2 16 2 Z M 16 6 C 18.210938 6 20 7.789062 20 10 L 20 16 L 12 16 L 12 10 C 12 7.789062 13.789062 6 16 6 Z M 8 20 L 24 20 L 24 26 L 8 26 Z M 8 20 "/>
</g>
</svg>
