<?xml version="1.0" encoding="UTF-8"?>
<svg xmlns="http://www.w3.org/2000/svg" xmlns:xlink="http://www.w3.org/1999/xlink" width="32px" height="32px" viewBox="0 0 32 32" version="1.1">
<g id="surface1">
<path style=" stroke:none;fill-rule:nonzero;fill:rgb(33.333334%,34.117648%,32.549021%);fill-opacity:1;" d="M 16 2 C 8.269531 2 2 8.269531 2 16 C 2 22.953125 7.117188 28.851562 14 29.84375 L 14 25.800781 C 9.34375 24.847656 6 20.800781 6 16 C 6 10.398438 10.398438 6 16 6 C 20 6 23.601562 8.398438 25.199219 12.199219 C 27 12.398438 28.800781 13.398438 30 14.601562 C 29.398438 7.503906 23.199219 2 16 2 Z M 12 8 L 12 24 L 16 20.800781 L 16 20 C 16 17.398438 17.199219 15.199219 19.199219 13.699219 Z M 24 14 C 20.6875 14 18 16.601562 18 20 L 18 24 L 16 24 L 16 32 L 32 32 L 32 24 L 30 24 L 30 20 C 30 16.6875 27.3125 14 24 14 Z M 24 18 C 25.105469 18 26 18.878906 26 20 L 26 24 L 22 24 L 22 20 C 22 18.898438 22.898438 18 24 18 Z M 24 18 "/>
</g>
</svg>
