<?xml version="1.0" encoding="UTF-8"?>
<svg xmlns="http://www.w3.org/2000/svg" xmlns:xlink="http://www.w3.org/1999/xlink" width="32px" height="32px" viewBox="0 0 32 32" version="1.1">
<g id="surface1">
<path style="fill:none;stroke-width:1;stroke-linecap:round;stroke-linejoin:miter;stroke:rgb(90.196079%,0.784314%,70.588237%);stroke-opacity:1;stroke-miterlimit:4;" d="M 3.210938 6.119141 L 7.556641 6.119141 " transform="matrix(2,0,0,2,0,0)"/>
<path style="fill-rule:nonzero;fill:rgb(94.117647%,89.019608%,92.54902%);fill-opacity:1;stroke-width:1;stroke-linecap:round;stroke-linejoin:round;stroke:rgb(90.196079%,0.784314%,70.588237%);stroke-opacity:1;stroke-miterlimit:4;" d="M 2.589844 1.603516 L 7.947266 1.603516 C 8.498047 1.603516 8.947266 2.052734 8.947266 2.603516 L 8.947266 9.298828 C 8.947266 9.849609 8.498047 10.298828 7.947266 10.298828 L 2.589844 10.298828 C 2.037109 10.298828 1.589844 9.849609 1.589844 9.298828 L 1.589844 2.603516 C 1.589844 2.052734 2.037109 1.603516 2.589844 1.603516 Z M 2.589844 1.603516 " transform="matrix(2,0,0,2,0,0)"/>
<path style="fill-rule:nonzero;fill:rgb(61.56863%,22.745098%,60.784316%);fill-opacity:1;stroke-width:0.25;stroke-linecap:butt;stroke-linejoin:miter;stroke:rgb(61.56863%,22.745098%,60.784316%);stroke-opacity:1;stroke-miterlimit:4;" d="M 6.1875 2.941406 C 6.208984 2.716797 6.371094 2.554688 6.574219 2.554688 C 6.708984 2.554688 6.832031 2.625 6.902344 2.740234 C 6.970703 2.625 7.089844 2.554688 7.222656 2.554688 C 7.425781 2.554688 7.587891 2.716797 7.609375 2.941406 C 7.611328 2.951172 7.617188 3.003906 7.595703 3.089844 C 7.566406 3.212891 7.498047 3.324219 7.398438 3.412109 L 6.902344 3.855469 L 6.396484 3.412109 C 6.296875 3.324219 6.228516 3.212891 6.199219 3.089844 C 6.179688 3.003906 6.185547 2.951172 6.1875 2.941406 Z M 6.253906 3.076172 C 6.279297 3.189453 6.341797 3.291016 6.433594 3.373047 L 6.902344 3.783203 L 7.363281 3.373047 C 7.453125 3.291016 7.515625 3.189453 7.542969 3.076172 C 7.5625 2.996094 7.554688 2.951172 7.554688 2.951172 L 7.554688 2.947266 C 7.537109 2.75 7.396484 2.607422 7.222656 2.607422 C 7.09375 2.607422 6.980469 2.685547 6.927734 2.810547 L 6.902344 2.869141 L 6.876953 2.810547 C 6.824219 2.6875 6.705078 2.607422 6.574219 2.607422 C 6.398438 2.607422 6.259766 2.75 6.242188 2.951172 C 6.242188 2.951172 6.234375 2.996094 6.253906 3.076172 Z M 6.253906 3.076172 " transform="matrix(2,0,0,2,0,0)"/>
<path style="fill:none;stroke-width:1;stroke-linecap:round;stroke-linejoin:miter;stroke:rgb(90.196079%,0.784314%,70.588237%);stroke-opacity:1;stroke-miterlimit:4;" d="M 3.056641 4.619141 L 7.404297 4.619141 " transform="matrix(2,0,0,2,0,0)"/>
<path style="fill:none;stroke-width:1;stroke-linecap:round;stroke-linejoin:miter;stroke:rgb(90.196079%,0.784314%,70.588237%);stroke-opacity:1;stroke-miterlimit:4;" d="M 3.056641 6.619141 L 7.404297 6.619141 " transform="matrix(2,0,0,2,0,0)"/>
<path style="fill:none;stroke-width:1;stroke-linecap:round;stroke-linejoin:miter;stroke:rgb(90.196079%,0.784314%,70.588237%);stroke-opacity:1;stroke-miterlimit:4;" d="M 3.056641 8.619141 L 7.404297 8.619141 " transform="matrix(2,0,0,2,0,0)"/>
<path style="fill-rule:evenodd;fill:rgb(94.117647%,89.019608%,92.54902%);fill-opacity:0.920792;stroke-width:0.654;stroke-linecap:round;stroke-linejoin:round;stroke:rgb(90.196079%,0.784314%,70.588237%);stroke-opacity:1;stroke-miterlimit:4;" d="M 5.916016 7.380859 L 14.066406 7.380859 C 14.400391 7.380859 14.669922 7.681641 14.669922 8.052734 L 14.669922 14.033203 C 14.669922 14.402344 14.400391 14.703125 14.066406 14.703125 L 5.916016 14.703125 C 5.583984 14.703125 5.314453 14.402344 5.314453 14.033203 L 5.314453 8.052734 C 5.314453 7.681641 5.583984 7.380859 5.916016 7.380859 Z M 5.916016 7.380859 " transform="matrix(2,0,0,2,0,0)"/>
<path style="fill:none;stroke-width:1.615385;stroke-linecap:round;stroke-linejoin:round;stroke:rgb(94.117647%,89.019608%,92.54902%);stroke-opacity:1;stroke-miterlimit:4;" d="M 3.772317 13.099806 L 2.191916 15.446228 L -0.154505 13.865828 " transform="matrix(1.297691,-1.328524,1.328524,1.297691,-8.52918,10.195701)"/>
<path style="fill:none;stroke-width:1.615385;stroke-linecap:round;stroke-linejoin:miter;stroke:rgb(94.117647%,89.019608%,92.54902%);stroke-opacity:1;stroke-miterlimit:4;" d="M 5.231966 6.849012 C 5.231966 6.849012 -0.154668 5.77136 2.000584 14.386436 " transform="matrix(1.297691,-1.328524,1.328524,1.297691,-8.52918,10.195701)"/>
<path style="fill-rule:nonzero;fill:rgb(95.294118%,71.764708%,85.09804%);fill-opacity:1;stroke-width:0.653877;stroke-linecap:round;stroke-linejoin:round;stroke:rgb(90.196079%,0.784314%,70.588237%);stroke-opacity:1;stroke-miterlimit:4;" d="M 5.423828 8.150391 L 9.867188 11.498047 L 14.496094 8.150391 L 14.496094 7.814453 L 5.423828 7.814453 Z M 5.423828 8.150391 " transform="matrix(2,0,0,2,0,0)"/>
<path style="fill:none;stroke-width:1.076923;stroke-linecap:round;stroke-linejoin:round;stroke:rgb(61.56863%,22.745098%,60.784316%);stroke-opacity:1;stroke-miterlimit:4;" d="M 3.772317 13.099806 L 2.191916 15.446228 L -0.154505 13.865828 " transform="matrix(1.297691,-1.328524,1.328524,1.297691,-8.52918,10.195701)"/>
<path style="fill:none;stroke-width:1.076923;stroke-linecap:round;stroke-linejoin:miter;stroke:rgb(61.56863%,22.745098%,60.784316%);stroke-opacity:1;stroke-miterlimit:4;" d="M 5.231966 6.849012 C 5.231966 6.849012 -0.154668 5.77136 2.000584 14.386436 " transform="matrix(1.297691,-1.328524,1.328524,1.297691,-8.52918,10.195701)"/>
</g>
</svg>
