<?xml version="1.0" encoding="UTF-8"?>
<svg xmlns="http://www.w3.org/2000/svg" xmlns:xlink="http://www.w3.org/1999/xlink" width="32px" height="32px" viewBox="0 0 32 32" version="1.1">
<defs>
<clipPath id="clip1">
  <path d="M 10 10 L 30 10 L 30 29 L 10 29 Z M 10 10 "/>
</clipPath>
<clipPath id="clip2">
  <path d="M 14.484375 9.195312 L 9.800781 13.984375 L 9.800781 29.949219 L 30.875 29.949219 L 30.875 9.195312 Z M 14.484375 9.195312 "/>
</clipPath>
<clipPath id="clip3">
  <path d="M 9 9 L 31 9 L 31 30 L 9 30 Z M 9 9 "/>
</clipPath>
<clipPath id="clip4">
  <path d="M 14.484375 9.195312 L 9.800781 13.984375 L 9.800781 29.949219 L 30.875 29.949219 L 30.875 9.195312 Z M 14.484375 9.195312 "/>
</clipPath>
<clipPath id="clip5">
  <path d="M 17 10 L 24 10 L 24 15 L 17 15 Z M 17 10 "/>
</clipPath>
<clipPath id="clip6">
  <path d="M 12.566406 10.886719 L 27.535156 10.886719 C 29.066406 10.886719 30.308594 12.242188 30.308594 13.917969 L 30.308594 25.285156 C 30.308594 26.960938 29.066406 28.316406 27.535156 28.316406 L 12.566406 28.316406 C 11.035156 28.316406 9.792969 26.960938 9.792969 25.285156 L 9.792969 13.917969 C 9.792969 12.242188 11.035156 10.886719 12.566406 10.886719 Z M 12.566406 10.886719 "/>
</clipPath>
<clipPath id="clip7">
  <path d="M 16 10 L 25 10 L 25 16 L 16 16 Z M 16 10 "/>
</clipPath>
<clipPath id="clip8">
  <path d="M 12.566406 10.886719 L 27.535156 10.886719 C 29.066406 10.886719 30.308594 12.242188 30.308594 13.917969 L 30.308594 25.285156 C 30.308594 26.960938 29.066406 28.316406 27.535156 28.316406 L 12.566406 28.316406 C 11.035156 28.316406 9.792969 26.960938 9.792969 25.285156 L 9.792969 13.917969 C 9.792969 12.242188 11.035156 10.886719 12.566406 10.886719 Z M 12.566406 10.886719 "/>
</clipPath>
<clipPath id="clip9">
  <path d="M 14 18 L 26 18 L 26 29 L 14 29 Z M 14 18 "/>
</clipPath>
<clipPath id="clip10">
  <path d="M 11.28125 10.265625 L 27.789062 10.265625 C 29.480469 10.265625 30.851562 11.671875 30.851562 13.402344 L 30.851562 25.15625 C 30.851562 26.886719 29.480469 28.289062 27.789062 28.289062 L 11.28125 28.289062 C 9.59375 28.289062 8.222656 26.886719 8.222656 25.15625 L 8.222656 13.402344 C 8.222656 11.671875 9.59375 10.265625 11.28125 10.265625 Z M 11.28125 10.265625 "/>
</clipPath>
<clipPath id="clip11">
  <path d="M 13 17 L 27 17 L 27 29 L 13 29 Z M 13 17 "/>
</clipPath>
<clipPath id="clip12">
  <path d="M 11.28125 10.265625 L 27.789062 10.265625 C 29.480469 10.265625 30.851562 11.671875 30.851562 13.402344 L 30.851562 25.15625 C 30.851562 26.886719 29.480469 28.289062 27.789062 28.289062 L 11.28125 28.289062 C 9.59375 28.289062 8.222656 26.886719 8.222656 25.15625 L 8.222656 13.402344 C 8.222656 11.671875 9.59375 10.265625 11.28125 10.265625 Z M 11.28125 10.265625 "/>
</clipPath>
</defs>
<g id="surface1">
<g clip-path="url(#clip1)" clip-rule="nonzero">
<g clip-path="url(#clip2)" clip-rule="nonzero">
<path style=" stroke:none;fill-rule:evenodd;fill:rgb(95.294118%,71.764708%,85.09804%);fill-opacity:1;" d="M 14.566406 10.183594 L 25.367188 10.183594 C 27.445312 10.183594 29.128906 11.871094 29.128906 13.945312 L 29.128906 25.214844 C 29.128906 27.292969 27.445312 28.976562 25.367188 28.976562 L 14.566406 28.976562 C 12.488281 28.976562 10.804688 27.292969 10.804688 25.214844 L 10.804688 13.945312 C 10.804688 11.871094 12.488281 10.183594 14.566406 10.183594 Z M 14.566406 10.183594 "/>
</g>
</g>
<g clip-path="url(#clip3)" clip-rule="nonzero">
<g clip-path="url(#clip4)" clip-rule="nonzero">
<path style="fill:none;stroke-width:1.266938;stroke-linecap:round;stroke-linejoin:round;stroke:rgb(90.196079%,0.784314%,70.588237%);stroke-opacity:1;stroke-miterlimit:4;" d="M 4.552927 2.118413 L 11.471622 2.118413 C 12.802814 2.118413 13.881279 3.175536 13.881279 4.474916 L 13.881279 11.534637 C 13.881279 12.836464 12.802814 13.89114 11.471622 13.89114 L 4.552927 13.89114 C 3.221735 13.89114 2.14327 12.836464 2.14327 11.534637 L 2.14327 4.474916 C 2.14327 3.175536 3.221735 2.118413 4.552927 2.118413 Z M 4.552927 2.118413 " transform="matrix(1.561101,0,0,1.596314,7.458827,6.801941)"/>
</g>
</g>
<path style="fill:none;stroke-width:0.821887;stroke-linecap:butt;stroke-linejoin:bevel;stroke:rgb(90.196079%,0.784314%,70.588237%);stroke-opacity:1;stroke-miterlimit:4;" d="M 1.693902 16.422832 L 3.598508 14.535804 " transform="matrix(2.42217,0,0,2.444733,6.63927,-25.41897)"/>
<g clip-path="url(#clip5)" clip-rule="nonzero">
<g clip-path="url(#clip6)" clip-rule="nonzero">
<path style=" stroke:none;fill-rule:evenodd;fill:rgb(94.117647%,89.019608%,92.54902%);fill-opacity:1;" d="M 19.097656 8.953125 L 22.582031 8.953125 C 23.304688 8.953125 23.890625 9.722656 23.890625 10.671875 L 23.890625 12.765625 C 23.890625 13.714844 23.304688 14.484375 22.582031 14.484375 L 19.097656 14.484375 C 18.371094 14.484375 17.785156 13.714844 17.785156 12.765625 L 17.785156 10.671875 C 17.785156 9.722656 18.371094 8.953125 19.097656 8.953125 Z M 19.097656 8.953125 "/>
</g>
</g>
<g clip-path="url(#clip7)" clip-rule="nonzero">
<g clip-path="url(#clip8)" clip-rule="nonzero">
<path style="fill:none;stroke-width:1.296645;stroke-linecap:butt;stroke-linejoin:bevel;stroke:rgb(90.196079%,0.784314%,70.588237%);stroke-opacity:1;stroke-miterlimit:4;" d="M 7.198673 9.360571 L 9.560274 9.360571 C 10.050068 9.360571 10.447198 9.8378 10.447198 10.426462 L 10.447198 11.724911 C 10.447198 12.313573 10.050068 12.790802 9.560274 12.790802 L 7.198673 12.790802 C 6.706232 12.790802 6.309101 12.313573 6.309101 11.724911 L 6.309101 10.426462 C 6.309101 9.8378 6.706232 9.360571 7.198673 9.360571 Z M 7.198673 9.360571 " transform="matrix(1.475429,0,0,1.612501,8.476524,-6.140804)"/>
</g>
</g>
<g clip-path="url(#clip9)" clip-rule="nonzero">
<g clip-path="url(#clip10)" clip-rule="nonzero">
<path style=" stroke:none;fill-rule:evenodd;fill:rgb(94.117647%,89.019608%,92.54902%);fill-opacity:1;" d="M 15.636719 18.917969 L 24.355469 18.917969 C 25.082031 18.917969 25.667969 19.6875 25.667969 20.636719 L 25.667969 28.902344 C 25.667969 29.851562 25.082031 30.621094 24.355469 30.621094 L 15.636719 30.621094 C 14.914062 30.621094 14.324219 29.851562 14.324219 28.902344 L 14.324219 20.636719 C 14.324219 19.6875 14.914062 18.917969 15.636719 18.917969 Z M 15.636719 18.917969 "/>
</g>
</g>
<g clip-path="url(#clip11)" clip-rule="nonzero">
<g clip-path="url(#clip12)" clip-rule="nonzero">
<path style="fill:none;stroke-width:1.214257;stroke-linecap:butt;stroke-linejoin:bevel;stroke:rgb(90.196079%,0.784314%,70.588237%);stroke-opacity:1;stroke-miterlimit:4;" d="M 5.447492 15.747652 L 10.805527 15.747652 C 11.25203 15.747652 11.612113 16.209221 11.612113 16.778567 L 11.612113 21.736328 C 11.612113 22.305674 11.25203 22.767243 10.805527 22.767243 L 5.447492 22.767243 C 5.00339 22.767243 4.640906 22.305674 4.640906 21.736328 L 4.640906 16.778567 C 4.640906 16.209221 5.00339 15.747652 5.447492 15.747652 Z M 5.447492 15.747652 " transform="matrix(1.627229,0,0,1.667209,6.772402,-7.336661)"/>
</g>
</g>
<path style="fill-rule:nonzero;fill:rgb(61.56863%,22.745098%,60.784316%);fill-opacity:1;stroke-width:0.205472;stroke-linecap:round;stroke-linejoin:round;stroke:rgb(61.56863%,22.745098%,60.784316%);stroke-opacity:1;stroke-miterlimit:4;" d="M 3.859767 19.119957 C 3.874281 18.956979 3.996847 18.837143 4.150054 18.837143 C 4.251654 18.837143 4.345191 18.889871 4.396798 18.972958 C 4.450017 18.888273 4.538716 18.837143 4.638704 18.837143 C 4.791911 18.837143 4.914477 18.956979 4.928991 19.119957 C 4.930604 19.127946 4.935442 19.166294 4.920928 19.228609 C 4.89835 19.318087 4.846743 19.399576 4.770946 19.463489 L 4.398411 19.786249 L 4.017812 19.463489 C 3.942015 19.399576 3.890408 19.318087 3.86783 19.228609 C 3.853316 19.166294 3.858154 19.127946 3.859767 19.121555 Z M 3.908148 19.219022 C 3.929113 19.300511 3.975881 19.375609 4.045228 19.434728 L 4.396798 19.733521 L 4.74353 19.434728 C 4.812876 19.375609 4.859645 19.300511 4.88061 19.219022 C 4.895124 19.159903 4.888673 19.127946 4.888673 19.126349 L 4.888673 19.124751 C 4.875772 18.980947 4.769333 18.877088 4.638704 18.877088 C 4.541941 18.877088 4.456468 18.933012 4.41615 19.024088 L 4.396798 19.067229 L 4.379058 19.024088 C 4.33874 18.93461 4.248429 18.877088 4.150054 18.877088 C 4.019425 18.877088 3.914599 18.980947 3.900084 19.126349 C 3.900084 19.127946 3.893633 19.159903 3.908148 19.219022 Z M 3.908148 19.219022 " transform="matrix(2.42217,0,0,2.444733,6.63927,-25.41897)"/>
<path style="fill:none;stroke-width:0.821887;stroke-linecap:round;stroke-linejoin:miter;stroke:rgb(90.196079%,0.784314%,70.588237%);stroke-opacity:1;stroke-miterlimit:4;" d="M 3.906535 20.177716 L 7.138399 20.177716 " transform="matrix(2.42217,0,0,2.444733,6.63927,-25.41897)"/>
<path style="fill:none;stroke-width:0.821887;stroke-linecap:round;stroke-linejoin:miter;stroke:rgb(90.196079%,0.784314%,70.588237%);stroke-opacity:1;stroke-miterlimit:4;" d="M 3.893633 21.361703 L 7.125498 21.361703 " transform="matrix(2.42217,0,0,2.444733,6.63927,-25.41897)"/>
<path style="fill-rule:evenodd;fill:rgb(95.294118%,71.764708%,85.09804%);fill-opacity:1;stroke-width:0.410943;stroke-linecap:round;stroke-linejoin:bevel;stroke:rgb(90.196079%,0.784314%,70.588237%);stroke-opacity:1;stroke-miterlimit:4;" d="M 5.377324 15.112618 C 5.44667 15.112618 5.501502 15.200498 5.501502 15.307552 L 5.501502 15.566399 C 5.501502 15.673454 5.44667 15.761334 5.377324 15.761334 C 5.30959 15.761334 5.253145 15.673454 5.253145 15.566399 L 5.253145 15.307552 C 5.253145 15.200498 5.30959 15.112618 5.377324 15.112618 Z M 5.377324 15.112618 " transform="matrix(2.42217,0,0,2.444733,6.63927,-25.41897)"/>
<path style="fill-rule:evenodd;fill:rgb(94.117647%,89.019608%,92.54902%);fill-opacity:1;stroke-width:0.666712;stroke-linecap:round;stroke-linejoin:round;stroke:rgb(90.196079%,0.784314%,70.588237%);stroke-opacity:1;stroke-miterlimit:4;" d="M 1.900939 15.1184 L 4.185554 15.1184 C 4.548782 15.1184 4.842702 15.420937 4.842702 15.794814 L 4.842702 18.467446 C 4.842702 18.841324 4.548782 19.143861 4.185554 19.143861 L 1.900939 19.143861 C 1.537711 19.143861 1.243791 18.841324 1.243791 18.467446 L 1.243791 15.794814 C 1.243791 15.420937 1.537711 15.1184 1.900939 15.1184 Z M 1.900939 15.1184 " transform="matrix(3.043456,0,0,2.956765,-0.719017,-41.635151)"/>
<path style="fill-rule:nonzero;fill:rgb(61.56863%,22.745098%,60.784316%);fill-opacity:1;stroke-width:0.166678;stroke-linecap:butt;stroke-linejoin:miter;stroke:rgb(61.56863%,22.745098%,60.784316%);stroke-opacity:1;stroke-miterlimit:4;" d="M 3.297378 15.794814 C 3.307646 15.674592 3.392356 15.587398 3.497603 15.587398 C 3.568195 15.587398 3.632369 15.625711 3.669591 15.686482 C 3.705528 15.62439 3.767136 15.587398 3.836445 15.587398 C 3.941691 15.587398 4.026401 15.674592 4.037953 15.794814 C 4.037953 15.800099 4.041803 15.827842 4.031535 15.874082 C 4.016133 15.940138 3.980196 15.999588 3.927572 16.047149 L 3.669591 16.284951 L 3.406475 16.047149 C 3.353852 15.999588 3.319197 15.940138 3.303795 15.874082 C 3.292244 15.827842 3.296095 15.800099 3.297378 15.794814 Z M 3.330749 15.867476 C 3.344867 15.928248 3.378238 15.982414 3.425727 16.026011 L 3.669591 16.245317 L 3.909604 16.026011 C 3.957093 15.982414 3.98918 15.928248 4.003298 15.867476 C 4.013566 15.823879 4.009716 15.800099 4.009716 15.800099 L 4.008432 15.798778 C 3.999448 15.693088 3.927572 15.616463 3.836445 15.616463 C 3.769703 15.616463 3.710662 15.657418 3.682426 15.724795 L 3.669591 15.755181 L 3.655472 15.724795 C 3.628519 15.658739 3.566911 15.616463 3.497603 15.616463 C 3.407758 15.616463 3.334599 15.693088 3.325615 15.800099 C 3.325615 15.800099 3.320481 15.823879 3.330749 15.867476 Z M 3.330749 15.867476 " transform="matrix(3.043456,0,0,2.956765,-0.719017,-41.635151)"/>
<path style="fill:none;stroke-width:0.666712;stroke-linecap:round;stroke-linejoin:miter;stroke:rgb(90.196079%,0.784314%,70.588237%);stroke-opacity:1;stroke-miterlimit:4;" d="M 2.214111 16.913805 L 3.85698 16.913805 " transform="matrix(3.043456,0,0,2.956765,-0.719017,-41.635151)"/>
<path style="fill:none;stroke-width:0.666712;stroke-linecap:round;stroke-linejoin:miter;stroke:rgb(90.196079%,0.784314%,70.588237%);stroke-opacity:1;stroke-miterlimit:4;" d="M 2.214111 17.905969 L 3.85698 17.905969 " transform="matrix(3.043456,0,0,2.956765,-0.719017,-41.635151)"/>
<path style="fill:none;stroke-width:1;stroke-linecap:round;stroke-linejoin:round;stroke:rgb(61.56863%,22.745098%,60.784316%);stroke-opacity:1;stroke-miterlimit:4;" d="M 2.474609 7.830078 C 2.474609 7.830078 -0.710938 10.955078 5.220703 13.693359 " transform="matrix(2,0,0,2,0,0)"/>
<path style="fill:none;stroke-width:1;stroke-linecap:round;stroke-linejoin:round;stroke:rgb(61.56863%,22.745098%,60.784316%);stroke-opacity:1;stroke-miterlimit:4;" d="M 4.847656 11.259766 L 6.068359 14.134766 L 2.507812 14.566406 " transform="matrix(2,0,0,2,0,0)"/>
</g>
</svg>
