<?xml version="1.0" encoding="UTF-8"?>
<svg xmlns="http://www.w3.org/2000/svg" xmlns:xlink="http://www.w3.org/1999/xlink" width="32px" height="32px" viewBox="0 0 32 32" version="1.1">
<g id="surface1">
<path style="fill-rule:evenodd;fill:rgb(95.294118%,71.764708%,85.09804%);fill-opacity:1;stroke-width:1.118955;stroke-linecap:round;stroke-linejoin:round;stroke:rgb(90.196079%,0.784314%,70.588237%);stroke-opacity:1;stroke-miterlimit:4;" d="M 13.835617 8.866424 C 13.835617 10.03849 12.886058 10.98773 11.713577 10.98773 C 10.543239 10.98773 9.593679 10.03849 9.593679 8.866424 C 9.593679 7.694357 10.543239 6.745117 11.713577 6.745117 C 12.886058 6.745117 13.835617 7.694357 13.835617 8.866424 Z M 13.835617 8.866424 " transform="matrix(1.822391,0,0,1.753047,1.08688,2.140338)"/>
<path style="fill-rule:evenodd;fill:rgb(95.294118%,71.764708%,85.09804%);fill-opacity:1;stroke-width:1.118955;stroke-linecap:round;stroke-linejoin:round;stroke:rgb(90.196079%,0.784314%,70.588237%);stroke-opacity:1;stroke-miterlimit:4;" d="M 15.278176 -15.288278 C 15.278176 -13.757461 13.610552 -12.509634 11.529238 -12.482895 C 9.447923 -12.456156 7.720282 -13.661646 7.647404 -15.190235 L 11.46279 -15.288278 Z M 15.278176 -15.288278 " transform="matrix(1.822391,0,0,-1.753047,1.08688,2.140338)"/>
<path style="fill-rule:evenodd;fill:rgb(94.117647%,89.019608%,92.54902%);fill-opacity:1;stroke-width:0.666712;stroke-linecap:round;stroke-linejoin:round;stroke:rgb(90.196079%,0.784314%,70.588237%);stroke-opacity:1;stroke-miterlimit:4;" d="M 1.900939 15.117321 L 4.185554 15.117321 C 4.548782 15.117321 4.842702 15.421179 4.842702 15.793736 L 4.842702 18.467688 C 4.842702 18.841566 4.548782 19.144103 4.185554 19.144103 L 1.900939 19.144103 C 1.537711 19.144103 1.243791 18.841566 1.243791 18.467688 L 1.243791 15.793736 C 1.243791 15.421179 1.537711 15.117321 1.900939 15.117321 Z M 1.900939 15.117321 " transform="matrix(3.043456,0,0,2.956765,-0.719017,-41.674931)"/>
<path style="fill-rule:nonzero;fill:rgb(61.56863%,22.745098%,60.784316%);fill-opacity:1;stroke-width:0.166678;stroke-linecap:butt;stroke-linejoin:miter;stroke:rgb(61.56863%,22.745098%,60.784316%);stroke-opacity:1;stroke-miterlimit:4;" d="M 3.297378 15.795057 C 3.307646 15.674835 3.392356 15.587641 3.497603 15.587641 C 3.568195 15.587641 3.632369 15.625953 3.669591 15.686725 C 3.705528 15.624632 3.767136 15.587641 3.836445 15.587641 C 3.941691 15.587641 4.026401 15.674835 4.037953 15.795057 C 4.037953 15.800341 4.041803 15.828085 4.031535 15.874324 C 4.016133 15.94038 3.980196 15.999831 3.927572 16.047391 L 3.669591 16.285194 L 3.406475 16.047391 C 3.353852 15.999831 3.319197 15.94038 3.303795 15.874324 C 3.292244 15.828085 3.296095 15.800341 3.297378 15.795057 Z M 3.330749 15.867719 C 3.344867 15.927169 3.378238 15.982656 3.425727 16.026253 L 3.669591 16.24556 L 3.909604 16.026253 C 3.957093 15.982656 3.98918 15.927169 4.003298 15.867719 C 4.013566 15.824122 4.009716 15.800341 4.009716 15.79902 L 4.008432 15.797699 C 3.999448 15.692009 3.927572 15.615384 3.836445 15.615384 C 3.769703 15.615384 3.710662 15.65766 3.682426 15.723716 L 3.669591 15.755423 L 3.655472 15.723716 C 3.628519 15.658981 3.566911 15.615384 3.497603 15.615384 C 3.407758 15.615384 3.334599 15.692009 3.325615 15.79902 C 3.325615 15.800341 3.320481 15.824122 3.330749 15.867719 Z M 3.330749 15.867719 " transform="matrix(3.043456,0,0,2.956765,-0.719017,-41.674931)"/>
<path style="fill:none;stroke-width:0.666712;stroke-linecap:round;stroke-linejoin:miter;stroke:rgb(90.196079%,0.784314%,70.588237%);stroke-opacity:1;stroke-miterlimit:4;" d="M 2.214111 16.914048 L 3.85698 16.914048 " transform="matrix(3.043456,0,0,2.956765,-0.719017,-41.674931)"/>
<path style="fill:none;stroke-width:0.666712;stroke-linecap:round;stroke-linejoin:miter;stroke:rgb(90.196079%,0.784314%,70.588237%);stroke-opacity:1;stroke-miterlimit:4;" d="M 2.214111 17.906211 L 3.85698 17.906211 " transform="matrix(3.043456,0,0,2.956765,-0.719017,-41.674931)"/>
<path style="fill:none;stroke-width:1.000045;stroke-linecap:round;stroke-linejoin:round;stroke:rgb(61.56863%,22.745098%,60.784316%);stroke-opacity:1;stroke-miterlimit:4;" d="M 2.474669 7.830504 C 2.474669 7.830504 -0.711195 10.955781 5.219977 13.692382 " transform="matrix(2.030453,0,0,1.969825,-0.184857,0.196368)"/>
<path style="fill:none;stroke-width:1.000045;stroke-linecap:round;stroke-linejoin:round;stroke:rgb(61.56863%,22.745098%,60.784316%);stroke-opacity:1;stroke-miterlimit:4;" d="M 4.846753 11.259187 L 6.068386 14.1346 L 2.509298 14.566904 " transform="matrix(2.030453,0,0,1.969825,-0.184857,0.196368)"/>
</g>
</svg>
