<?xml version="1.0" encoding="UTF-8"?>
<svg xmlns="http://www.w3.org/2000/svg" xmlns:xlink="http://www.w3.org/1999/xlink" width="32px" height="32px" viewBox="0 0 32 32" version="1.1">
<defs>
<clipPath id="clip1">
  <path d="M 3 10 L 29 10 L 29 25 L 3 25 Z M 3 10 "/>
</clipPath>
<clipPath id="clip2">
  <path d="M 6.359375 25.527344 L 6.359375 18.574219 L 25.097656 18.574219 L 25.097656 25.527344 L 30.976562 25.640625 L 30.976562 9.695312 L 0.476562 9.695312 L 0.476562 25.640625 Z M 6.359375 25.527344 "/>
</clipPath>
<clipPath id="clip3">
  <path d="M 0 9 L 31 9 L 31 26 L 0 26 Z M 0 9 "/>
</clipPath>
<clipPath id="clip4">
  <path d="M 6.359375 25.527344 L 6.359375 18.574219 L 25.097656 18.574219 L 25.097656 25.527344 L 30.976562 25.640625 L 30.976562 9.695312 L 0.476562 9.695312 L 0.476562 25.640625 Z M 6.359375 25.527344 "/>
</clipPath>
<clipPath id="clip5">
  <path d="M 6 16 L 25 16 L 25 29 L 6 29 Z M 6 16 "/>
</clipPath>
<clipPath id="clip6">
  <path d="M 5.871094 16.90625 L 25.617188 16.90625 L 25.617188 29.714844 L 5.871094 30.515625 Z M 5.871094 16.90625 "/>
</clipPath>
<clipPath id="clip7">
  <path d="M 5 16 L 26 16 L 26 31 L 5 31 Z M 5 16 "/>
</clipPath>
<clipPath id="clip8">
  <path d="M 5.871094 16.90625 L 25.617188 16.90625 L 25.617188 29.714844 L 5.871094 30.515625 Z M 5.871094 16.90625 "/>
</clipPath>
<clipPath id="clip9">
  <path d="M 6 3 L 25 3 L 25 11 L 6 11 Z M 6 3 "/>
</clipPath>
<clipPath id="clip10">
  <path d="M 5.429688 10.441406 L 26 10.441406 L 26 1.140625 C 26 1.140625 6.714844 -0.71875 5.429688 1.140625 C 4.144531 3 4.144531 3 4.144531 3 Z M 5.429688 10.441406 "/>
</clipPath>
<clipPath id="clip11">
  <path d="M 4 0 L 26 0 L 26 11 L 4 11 Z M 4 0 "/>
</clipPath>
<clipPath id="clip12">
  <path d="M 5.429688 10.441406 L 26 10.441406 L 26 1.140625 C 26 1.140625 6.714844 -0.71875 5.429688 1.140625 C 4.144531 3 4.144531 3 4.144531 3 Z M 5.429688 10.441406 "/>
</clipPath>
</defs>
<g id="surface1">
<path style="fill-rule:nonzero;fill:rgb(11.372549%,11.372549%,11.372549%);fill-opacity:1;stroke-width:0.659241;stroke-linecap:butt;stroke-linejoin:miter;stroke:rgb(90.196079%,0.784314%,70.588237%);stroke-opacity:1;stroke-miterlimit:4;" d="M 2.461721 -19.3735 L 8.350381 -19.3735 C 8.804737 -19.3735 9.173099 -19.023455 9.173099 -18.590741 C 9.173099 -18.158028 8.804737 -17.807982 8.350381 -17.807982 L 2.461721 -17.807982 C 2.006081 -17.807982 1.637719 -18.158028 1.637719 -18.590741 C 1.637719 -19.023455 2.006081 -19.3735 2.461721 -19.3735 Z M 2.461721 -19.3735 " transform="matrix(3.043456,0,0,-3.024157,-0.738232,-42.151012)"/>
<g clip-path="url(#clip1)" clip-rule="nonzero">
<g clip-path="url(#clip2)" clip-rule="nonzero">
<path style=" stroke:none;fill-rule:nonzero;fill:rgb(95.294118%,71.764708%,85.09804%);fill-opacity:1;" d="M 5.457031 10.96875 L 26 10.96875 C 27.34375 10.96875 28.4375 12.324219 28.4375 14 L 28.4375 21.933594 C 28.4375 23.605469 27.34375 24.964844 26 24.964844 L 5.457031 24.964844 C 4.109375 24.964844 3.019531 23.605469 3.019531 21.933594 L 3.019531 14 C 3.019531 12.324219 4.109375 10.96875 5.457031 10.96875 Z M 5.457031 10.96875 "/>
</g>
</g>
<g clip-path="url(#clip3)" clip-rule="nonzero">
<g clip-path="url(#clip4)" clip-rule="nonzero">
<path style="fill:none;stroke-width:0.486662;stroke-linecap:butt;stroke-linejoin:miter;stroke:rgb(90.196079%,0.784314%,70.588237%);stroke-opacity:1;stroke-miterlimit:4;" d="M 0.702619 -0.225993 L 5.693744 -0.225993 C 6.020222 -0.225993 6.28596 0.104339 6.28596 0.512731 L 6.28596 2.446167 C 6.28596 2.853607 6.020222 3.184891 5.693744 3.184891 L 0.702619 3.184891 C 0.375192 3.184891 0.110403 2.853607 0.110403 2.446167 L 0.110403 0.512731 C 0.110403 0.104339 0.375192 -0.225993 0.702619 -0.225993 Z M 0.702619 -0.225993 " transform="matrix(4.115899,0,0,4.103364,2.565123,11.89608)"/>
</g>
</g>
<g clip-path="url(#clip5)" clip-rule="nonzero">
<g clip-path="url(#clip6)" clip-rule="nonzero">
<path style=" stroke:none;fill-rule:nonzero;fill:rgb(94.117647%,89.019608%,92.54902%);fill-opacity:0.996078;" d="M 8.257812 14.640625 L 23.21875 14.640625 C 24.113281 14.640625 24.835938 15.417969 24.835938 16.375 L 24.835938 27.25 C 24.835938 28.207031 24.113281 28.984375 23.21875 28.984375 L 8.257812 28.984375 C 7.363281 28.984375 6.640625 28.207031 6.640625 27.25 L 6.640625 16.375 C 6.640625 15.417969 7.363281 14.640625 8.257812 14.640625 Z M 8.257812 14.640625 "/>
</g>
</g>
<g clip-path="url(#clip7)" clip-rule="nonzero">
<g clip-path="url(#clip8)" clip-rule="nonzero">
<path style="fill:none;stroke-width:0.432114;stroke-linecap:butt;stroke-linejoin:miter;stroke:rgb(90.196079%,0.784314%,70.588237%);stroke-opacity:1;stroke-miterlimit:4;" d="M 1.394196 1.054467 L 4.946986 1.054467 C 5.159411 1.054467 5.331021 1.207272 5.331021 1.395399 L 5.331021 3.533136 C 5.331021 3.721263 5.159411 3.874068 4.946986 3.874068 L 1.394196 3.874068 C 1.18177 3.874068 1.01016 3.721263 1.01016 3.533136 L 1.01016 1.395399 C 1.01016 1.207272 1.18177 1.054467 1.394196 1.054467 Z M 1.394196 1.054467 " transform="matrix(4.211038,0,0,5.087156,2.386802,9.276389)"/>
</g>
</g>
<g clip-path="url(#clip9)" clip-rule="nonzero">
<g clip-path="url(#clip10)" clip-rule="nonzero">
<path style=" stroke:none;fill-rule:nonzero;fill:rgb(94.117647%,89.019608%,92.54902%);fill-opacity:0.996078;" d="M 8.550781 3 L 22.882812 3 C 23.894531 3 24.714844 3.777344 24.714844 4.734375 L 24.714844 11.496094 C 24.714844 12.453125 23.894531 13.230469 22.882812 13.230469 L 8.550781 13.230469 C 7.535156 13.230469 6.714844 12.453125 6.714844 11.496094 L 6.714844 4.734375 C 6.714844 3.777344 7.535156 3 8.550781 3 Z M 8.550781 3 "/>
</g>
</g>
<g clip-path="url(#clip11)" clip-rule="nonzero">
<g clip-path="url(#clip12)" clip-rule="nonzero">
<path style="fill:none;stroke-width:0.405661;stroke-linecap:butt;stroke-linejoin:miter;stroke:rgb(90.196079%,0.784314%,70.588237%);stroke-opacity:1;stroke-miterlimit:4;" d="M 1.42953 -2.118847 L 4.915112 -2.118847 C 5.161165 -2.118847 5.360666 -1.987352 5.360666 -1.82546 L 5.360666 -0.681645 C 5.360666 -0.519754 5.161165 -0.388258 4.915112 -0.388258 L 1.42953 -0.388258 C 1.182528 -0.388258 0.983026 -0.519754 0.983026 -0.681645 L 0.983026 -1.82546 C 0.983026 -1.987352 1.182528 -2.118847 1.42953 -2.118847 Z M 1.42953 -2.118847 " transform="matrix(4.111804,0,0,5.911552,2.672833,15.525676)"/>
</g>
</g>
<path style="fill-rule:evenodd;fill:rgb(61.56863%,22.745098%,60.784316%);fill-opacity:1;stroke-width:0.329621;stroke-linecap:round;stroke-linejoin:round;stroke:rgb(90.196079%,0.784314%,70.588237%);stroke-opacity:1;stroke-miterlimit:4;" d="M 8.791902 18.371155 C 8.791902 18.51324 8.678955 18.6282 8.539054 18.6282 C 8.399153 18.6282 8.286206 18.51324 8.286206 18.371155 C 8.286206 18.22907 8.399153 18.11411 8.539054 18.11411 C 8.678955 18.11411 8.791902 18.22907 8.791902 18.371155 Z M 8.791902 18.371155 " transform="matrix(3.043456,0,0,3.024157,-0.738232,-42.151012)"/>
<path style="fill-rule:evenodd;fill:rgb(61.56863%,22.745098%,60.784316%);fill-opacity:1;stroke-width:0.329621;stroke-linecap:round;stroke-linejoin:round;stroke:rgb(90.196079%,0.784314%,70.588237%);stroke-opacity:1;stroke-miterlimit:4;" d="M 7.518678 18.37503 C 7.518678 18.515823 7.405731 18.632075 7.26583 18.632075 C 7.12593 18.632075 7.012982 18.515823 7.012982 18.37503 C 7.012982 18.232945 7.12593 18.117985 7.26583 18.117985 C 7.405731 18.117985 7.518678 18.232945 7.518678 18.37503 Z M 7.518678 18.37503 " transform="matrix(3.043456,0,0,3.024157,-0.738232,-42.151012)"/>
<path style="fill:none;stroke-width:0.659241;stroke-linecap:butt;stroke-linejoin:miter;stroke:rgb(90.196079%,0.784314%,70.588237%);stroke-opacity:1;stroke-miterlimit:4;" d="M 2.225558 19.842381 L 8.594244 19.842381 " transform="matrix(3.043456,0,0,3.024157,-0.738232,-42.151012)"/>
<path style="fill:none;stroke-width:0.659241;stroke-linecap:round;stroke-linejoin:miter;stroke:rgb(90.196079%,0.784314%,70.588237%);stroke-opacity:1;stroke-miterlimit:4;" d="M 3.221548 20.649682 L 7.61879 20.649682 " transform="matrix(3.043456,0,0,3.024157,-0.738232,-42.151012)"/>
<path style="fill:none;stroke-width:0.659241;stroke-linecap:round;stroke-linejoin:miter;stroke:rgb(90.196079%,0.784314%,70.588237%);stroke-opacity:1;stroke-miterlimit:4;" d="M 3.21128 21.467317 L 7.609806 21.467317 " transform="matrix(3.043456,0,0,3.024157,-0.738232,-42.151012)"/>
<path style="fill-rule:nonzero;fill:rgb(61.56863%,22.745098%,60.784316%);fill-opacity:1;stroke-width:0.16481;stroke-linecap:round;stroke-linejoin:round;stroke:rgb(61.56863%,22.745098%,60.784316%);stroke-opacity:1;stroke-miterlimit:4;" d="M 3.204862 22.602706 C 3.218981 22.760291 3.325511 22.873959 3.458994 22.873959 C 3.548838 22.873959 3.629698 22.824875 3.675904 22.744791 C 3.72211 22.824875 3.800403 22.873959 3.88768 22.873959 C 4.021163 22.873959 4.128977 22.760291 4.141811 22.602706 C 4.143095 22.596247 4.148229 22.56008 4.13411 22.500663 C 4.114858 22.41412 4.069936 22.335328 4.004478 22.274619 L 3.675904 21.964615 L 3.34348 22.274619 C 3.276738 22.335328 3.231816 22.41412 3.212563 22.500663 C 3.199729 22.56008 3.203579 22.596247 3.204862 22.602706 Z M 3.248501 22.508413 C 3.26647 22.42962 3.307542 22.358578 3.367866 22.301744 L 3.675904 22.01499 L 3.980091 22.301744 C 4.040416 22.358578 4.081487 22.42962 4.099456 22.508413 C 4.112291 22.565247 4.105874 22.597539 4.105874 22.597539 L 4.105874 22.598831 C 4.094322 22.737041 4.001911 22.8365 3.88768 22.8365 C 3.80297 22.8365 3.728527 22.78225 3.692589 22.695707 L 3.675904 22.654373 L 3.659219 22.695707 C 3.624564 22.780958 3.546271 22.8365 3.458994 22.8365 C 3.344763 22.8365 3.252352 22.737041 3.2408 22.597539 C 3.2408 22.597539 3.235666 22.565247 3.248501 22.508413 Z M 3.248501 22.508413 " transform="matrix(3.043456,0,0,3.024157,-0.738232,-42.151012)"/>
<path style="fill-rule:evenodd;fill:rgb(94.117647%,89.019608%,92.54902%);fill-opacity:1;stroke-width:0.659241;stroke-linecap:round;stroke-linejoin:round;stroke:rgb(90.196079%,0.784314%,70.588237%);stroke-opacity:1;stroke-miterlimit:4;" d="M 1.900835 15.117408 L 4.18545 15.117408 C 4.548678 15.117408 4.842598 15.414495 4.842598 15.778749 L 4.842598 18.48224 C 4.842598 18.847786 4.548678 19.143581 4.18545 19.143581 L 1.900835 19.143581 C 1.537607 19.143581 1.243687 18.847786 1.243687 18.48224 L 1.243687 15.778749 C 1.243687 15.414495 1.537607 15.117408 1.900835 15.117408 Z M 1.900835 15.117408 " transform="matrix(3.043456,0,0,3.024157,-0.738232,-42.151012)"/>
<path style="fill-rule:nonzero;fill:rgb(61.56863%,22.745098%,60.784316%);fill-opacity:1;stroke-width:0.16481;stroke-linecap:butt;stroke-linejoin:miter;stroke:rgb(61.56863%,22.745098%,60.784316%);stroke-opacity:1;stroke-miterlimit:4;" d="M 3.297274 15.795541 C 3.307542 15.674123 3.392252 15.58758 3.497499 15.58758 C 3.568091 15.58758 3.632265 15.625039 3.669486 15.68704 C 3.705424 15.625039 3.767032 15.58758 3.83634 15.58758 C 3.941587 15.58758 4.026297 15.674123 4.037849 15.795541 C 4.037849 15.800708 4.041699 15.827833 4.031431 15.874333 C 4.016029 15.940209 3.980091 15.999627 3.928752 16.047419 L 3.669486 16.285088 L 3.406371 16.047419 C 3.353748 15.999627 3.319093 15.940209 3.303691 15.874333 C 3.29214 15.827833 3.29599 15.800708 3.297274 15.795541 Z M 3.330645 15.867875 C 3.344763 15.927292 3.378134 15.982835 3.425623 16.02546 L 3.669486 16.246338 L 3.909499 16.026752 C 3.956989 15.982835 3.989076 15.927292 4.003194 15.867875 C 4.013462 15.823958 4.009612 15.799416 4.009612 15.799416 L 4.008328 15.798124 C 3.999344 15.692206 3.927468 15.615997 3.83634 15.615997 C 3.769599 15.615997 3.710558 15.657331 3.682321 15.724498 L 3.669486 15.755499 L 3.656652 15.724498 C 3.628415 15.658623 3.566807 15.615997 3.497499 15.615997 C 3.407654 15.615997 3.334495 15.692206 3.325511 15.799416 C 3.325511 15.799416 3.320377 15.823958 3.330645 15.867875 Z M 3.330645 15.867875 " transform="matrix(3.043456,0,0,3.024157,-0.738232,-42.151012)"/>
<path style="fill:none;stroke-width:0.659241;stroke-linecap:round;stroke-linejoin:miter;stroke:rgb(90.196079%,0.784314%,70.588237%);stroke-opacity:1;stroke-miterlimit:4;" d="M 2.214007 16.914138 L 3.856876 16.914138 " transform="matrix(3.043456,0,0,3.024157,-0.738232,-42.151012)"/>
<path style="fill:none;stroke-width:0.659241;stroke-linecap:round;stroke-linejoin:miter;stroke:rgb(90.196079%,0.784314%,70.588237%);stroke-opacity:1;stroke-miterlimit:4;" d="M 2.214007 17.906149 L 3.856876 17.906149 " transform="matrix(3.043456,0,0,3.024157,-0.738232,-42.151012)"/>
<path style="fill:none;stroke-width:1;stroke-linecap:round;stroke-linejoin:round;stroke:rgb(61.56863%,22.745098%,60.784316%);stroke-opacity:1;stroke-miterlimit:4;" d="M 2.474576 7.829737 C 2.474576 7.829737 -0.710971 10.954737 5.22067 13.693018 " transform="matrix(2,0,0,2,2.050848,-0.659476)"/>
<path style="fill:none;stroke-width:1;stroke-linecap:round;stroke-linejoin:round;stroke:rgb(61.56863%,22.745098%,60.784316%);stroke-opacity:1;stroke-miterlimit:4;" d="M 4.847623 11.259425 L 6.068326 14.134424 L 2.507779 14.568018 " transform="matrix(2,0,0,2,2.050848,-0.659476)"/>
</g>
</svg>
