<?xml version="1.0" encoding="UTF-8"?>
<svg xmlns="http://www.w3.org/2000/svg" xmlns:xlink="http://www.w3.org/1999/xlink" width="32px" height="32px" viewBox="0 0 32 32" version="1.1">
<g id="surface1">
<path style="fill-rule:nonzero;fill:rgb(94.117647%,89.019608%,92.54902%);fill-opacity:1;stroke-width:1;stroke-linecap:butt;stroke-linejoin:round;stroke:rgb(90.196079%,0.784314%,70.588237%);stroke-opacity:1;stroke-miterlimit:4;" d="M 1.558594 6.441406 L 8.203125 1.423828 L 14.847656 6.373047 L 8.271484 10.916016 Z M 1.558594 6.441406 " transform="matrix(2,0,0,2,0,0)"/>
<path style="fill:none;stroke-width:1;stroke-linecap:round;stroke-linejoin:miter;stroke:rgb(90.196079%,0.784314%,70.588237%);stroke-opacity:1;stroke-miterlimit:4;" d="M 6.146484 8.236328 L 10.492188 8.236328 " transform="matrix(2,0,0,2,0,0)"/>
<path style="fill-rule:nonzero;fill:rgb(95.294118%,71.764708%,85.09804%);fill-opacity:1;stroke-width:1;stroke-linecap:round;stroke-linejoin:round;stroke:rgb(90.196079%,0.784314%,70.588237%);stroke-opacity:1;stroke-miterlimit:4;" d="M 5.525391 3.720703 L 10.880859 3.720703 C 11.433594 3.720703 11.880859 4.167969 11.880859 4.720703 L 11.880859 11.414062 C 11.880859 11.966797 11.433594 12.414062 10.880859 12.414062 L 5.525391 12.414062 C 4.972656 12.414062 4.525391 11.966797 4.525391 11.414062 L 4.525391 4.720703 C 4.525391 4.167969 4.972656 3.720703 5.525391 3.720703 Z M 5.525391 3.720703 " transform="matrix(2,0,0,2,0,0)"/>
<path style="fill-rule:nonzero;fill:rgb(95.294118%,71.764708%,85.09804%);fill-opacity:1;stroke-width:0.25;stroke-linecap:butt;stroke-linejoin:miter;stroke:rgb(61.56863%,22.745098%,60.784316%);stroke-opacity:1;stroke-miterlimit:4;" d="M 9.123047 5.058594 C 9.144531 4.833984 9.306641 4.669922 9.507812 4.669922 C 9.644531 4.669922 9.767578 4.742188 9.837891 4.855469 C 9.90625 4.740234 10.025391 4.669922 10.158203 4.669922 C 10.361328 4.669922 10.523438 4.833984 10.544922 5.058594 C 10.544922 5.068359 10.552734 5.121094 10.53125 5.205078 C 10.501953 5.328125 10.433594 5.441406 10.333984 5.529297 L 9.837891 5.970703 L 9.332031 5.529297 C 9.232422 5.441406 9.164062 5.328125 9.134766 5.205078 C 9.115234 5.121094 9.121094 5.068359 9.123047 5.058594 Z M 9.1875 5.193359 C 9.214844 5.306641 9.277344 5.408203 9.369141 5.488281 L 9.837891 5.898438 L 10.296875 5.488281 C 10.388672 5.408203 10.451172 5.306641 10.478516 5.193359 C 10.498047 5.113281 10.490234 5.066406 10.490234 5.066406 L 10.490234 5.064453 C 10.470703 4.867188 10.332031 4.724609 10.158203 4.724609 C 10.029297 4.724609 9.916016 4.800781 9.863281 4.925781 L 9.837891 4.984375 L 9.8125 4.925781 C 9.759766 4.802734 9.640625 4.724609 9.507812 4.724609 C 9.333984 4.724609 9.195312 4.867188 9.177734 5.066406 C 9.177734 5.066406 9.167969 5.113281 9.1875 5.193359 Z M 9.1875 5.193359 " transform="matrix(2,0,0,2,0,0)"/>
<path style="fill:none;stroke-width:1;stroke-linecap:round;stroke-linejoin:miter;stroke:rgb(61.56863%,22.745098%,60.784316%);stroke-opacity:1;stroke-miterlimit:4;" d="M 5.992188 6.736328 L 10.339844 6.736328 " transform="matrix(2,0,0,2,0,0)"/>
<path style="fill:none;stroke-width:1;stroke-linecap:round;stroke-linejoin:miter;stroke:rgb(61.56863%,22.745098%,60.784316%);stroke-opacity:1;stroke-miterlimit:4;" d="M 5.992188 8.464844 L 10.339844 8.464844 " transform="matrix(2,0,0,2,0,0)"/>
<path style="fill:none;stroke-width:1;stroke-linecap:round;stroke-linejoin:miter;stroke:rgb(90.196079%,0.784314%,70.588237%);stroke-opacity:1;stroke-miterlimit:4;" d="M 5.992188 10.736328 L 10.339844 10.736328 " transform="matrix(2,0,0,2,0,0)"/>
<path style="fill-rule:nonzero;fill:rgb(94.117647%,89.019608%,92.54902%);fill-opacity:1;stroke-width:1;stroke-linecap:round;stroke-linejoin:round;stroke:rgb(90.196079%,0.784314%,70.588237%);stroke-opacity:1;stroke-miterlimit:4;" d="M 1.492188 6.441406 L 14.40625 14.576172 L 1.492188 14.576172 Z M 1.492188 6.441406 " transform="matrix(2,0,0,2,0,0)"/>
<path style="fill-rule:nonzero;fill:rgb(94.117647%,89.019608%,92.54902%);fill-opacity:1;stroke-width:1;stroke-linecap:round;stroke-linejoin:round;stroke:rgb(90.196079%,0.784314%,70.588237%);stroke-opacity:1;stroke-miterlimit:4;" d="M 14.576172 6.441406 L 1.492188 14.474609 L 14.576172 14.474609 Z M 14.576172 6.441406 " transform="matrix(2,0,0,2,0,0)"/>
<path style="fill-rule:nonzero;fill:rgb(100%,100%,100%);fill-opacity:1;stroke-width:1.75;stroke-linecap:butt;stroke-linejoin:miter;stroke:rgb(100%,100%,100%);stroke-opacity:1;stroke-miterlimit:4;" d="M -6.065325 -7.624544 C -6.06512 -5.693456 -7.63172 -4.125576 -9.564694 -4.125876 C -11.497668 -4.126177 -13.063662 -5.692271 -13.063361 -7.625246 C -13.063061 -9.55822 -11.496966 -11.124213 -9.563992 -11.123913 C -7.631018 -11.123612 -6.065024 -9.557518 -6.065325 -7.624544 Z M -6.065325 -7.624544 " transform="matrix(-1.931852,0.517638,-0.517638,-1.931852,0,0)"/>
<path style="fill-rule:nonzero;fill:rgb(95.294118%,71.764708%,85.09804%);fill-opacity:1;stroke-width:1;stroke-linecap:butt;stroke-linejoin:miter;stroke:rgb(61.56863%,22.745098%,60.784316%);stroke-opacity:1;stroke-miterlimit:4;" d="M -6.065325 -7.624544 C -6.06512 -5.693456 -7.63172 -4.125576 -9.564694 -4.125876 C -11.497668 -4.126177 -13.063662 -5.692271 -13.063361 -7.625246 C -13.063061 -9.55822 -11.496966 -11.124213 -9.563992 -11.123913 C -7.631018 -11.123612 -6.065024 -9.557518 -6.065325 -7.624544 Z M -6.065325 -7.624544 " transform="matrix(-1.931852,0.517638,-0.517638,-1.931852,0,0)"/>
<path style=" stroke:none;fill-rule:nonzero;fill:rgb(90.196079%,0.784314%,70.588237%);fill-opacity:1;" d="M 19.097656 6.78125 L 25.75 6.78125 C 26.140625 6.78125 26.457031 7.09375 26.457031 7.484375 L 26.457031 8.058594 C 26.457031 8.449219 26.140625 8.765625 25.75 8.765625 L 19.097656 8.765625 C 18.707031 8.765625 18.390625 8.449219 18.390625 8.058594 L 18.390625 7.484375 C 18.390625 7.09375 18.707031 6.78125 19.097656 6.78125 Z M 19.097656 6.78125 "/>
<path style=" stroke:none;fill-rule:nonzero;fill:rgb(90.196079%,0.784314%,70.588237%);fill-opacity:1;" d="M 19.097656 10.792969 L 25.75 10.792969 C 26.140625 10.792969 26.457031 11.109375 26.457031 11.5 L 26.457031 12.074219 C 26.457031 12.464844 26.140625 12.78125 25.75 12.78125 L 19.097656 12.78125 C 18.707031 12.78125 18.390625 12.464844 18.390625 12.074219 L 18.390625 11.5 C 18.390625 11.109375 18.707031 10.792969 19.097656 10.792969 Z M 19.097656 10.792969 "/>
<path style="fill:none;stroke-width:1;stroke-linecap:butt;stroke-linejoin:miter;stroke:rgb(90.196079%,0.784314%,70.588237%);stroke-opacity:1;stroke-miterlimit:4;" d="M 8.007812 10.601562 L 14.195312 14.449219 " transform="matrix(2,0,0,2,0,0)"/>
</g>
</svg>
