<?xml version="1.0" encoding="UTF-8"?>
<svg xmlns="http://www.w3.org/2000/svg" xmlns:xlink="http://www.w3.org/1999/xlink" width="32px" height="32px" viewBox="0 0 32 32" version="1.1">
<g id="surface1">
<path style="fill:none;stroke-width:1;stroke-linecap:round;stroke-linejoin:miter;stroke:rgb(90.196079%,0.784314%,70.588237%);stroke-opacity:1;stroke-miterlimit:4;" d="M 3.121094 6.015625 L 7.466797 6.015625 " transform="matrix(2,0,0,2,0,0)"/>
<path style="fill-rule:nonzero;fill:rgb(94.117647%,89.019608%,92.54902%);fill-opacity:1;stroke-width:1;stroke-linecap:round;stroke-linejoin:round;stroke:rgb(90.196079%,0.784314%,70.588237%);stroke-opacity:1;stroke-miterlimit:4;" d="M 2.5 1.5 L 7.855469 1.5 C 8.408203 1.5 8.855469 1.947266 8.855469 2.5 L 8.855469 9.193359 C 8.855469 9.746094 8.408203 10.193359 7.855469 10.193359 L 2.5 10.193359 C 1.947266 10.193359 1.5 9.746094 1.5 9.193359 L 1.5 2.5 C 1.5 1.947266 1.947266 1.5 2.5 1.5 Z M 2.5 1.5 " transform="matrix(2,0,0,2,0,0)"/>
<path style="fill-rule:nonzero;fill:rgb(61.56863%,22.745098%,60.784316%);fill-opacity:1;stroke-width:0.25;stroke-linecap:butt;stroke-linejoin:miter;stroke:rgb(61.56863%,22.745098%,60.784316%);stroke-opacity:1;stroke-miterlimit:4;" d="M 6.097656 2.837891 C 6.119141 2.613281 6.28125 2.449219 6.484375 2.449219 C 6.619141 2.449219 6.742188 2.521484 6.8125 2.634766 C 6.880859 2.519531 7 2.449219 7.132812 2.449219 C 7.335938 2.449219 7.498047 2.613281 7.519531 2.837891 C 7.519531 2.847656 7.527344 2.900391 7.505859 2.984375 C 7.476562 3.107422 7.408203 3.21875 7.308594 3.308594 L 6.8125 3.75 L 6.306641 3.308594 C 6.207031 3.21875 6.138672 3.107422 6.109375 2.984375 C 6.089844 2.900391 6.095703 2.847656 6.097656 2.837891 Z M 6.162109 2.972656 C 6.189453 3.083984 6.251953 3.1875 6.34375 3.267578 L 6.8125 3.677734 L 7.271484 3.267578 C 7.363281 3.1875 7.425781 3.083984 7.453125 2.972656 C 7.472656 2.892578 7.464844 2.845703 7.464844 2.845703 L 7.464844 2.84375 C 7.447266 2.646484 7.306641 2.503906 7.132812 2.503906 C 7.003906 2.503906 6.890625 2.580078 6.837891 2.705078 L 6.8125 2.763672 L 6.787109 2.705078 C 6.734375 2.582031 6.615234 2.503906 6.484375 2.503906 C 6.308594 2.503906 6.169922 2.646484 6.152344 2.845703 C 6.152344 2.845703 6.144531 2.892578 6.162109 2.972656 Z M 6.162109 2.972656 " transform="matrix(2,0,0,2,0,0)"/>
<path style="fill:none;stroke-width:1;stroke-linecap:round;stroke-linejoin:miter;stroke:rgb(90.196079%,0.784314%,70.588237%);stroke-opacity:1;stroke-miterlimit:4;" d="M 2.966797 4.515625 L 7.314453 4.515625 " transform="matrix(2,0,0,2,0,0)"/>
<path style="fill:none;stroke-width:1;stroke-linecap:round;stroke-linejoin:miter;stroke:rgb(90.196079%,0.784314%,70.588237%);stroke-opacity:1;stroke-miterlimit:4;" d="M 2.966797 6.515625 L 7.314453 6.515625 " transform="matrix(2,0,0,2,0,0)"/>
<path style="fill:none;stroke-width:1;stroke-linecap:round;stroke-linejoin:miter;stroke:rgb(90.196079%,0.784314%,70.588237%);stroke-opacity:1;stroke-miterlimit:4;" d="M 2.966797 8.515625 L 7.314453 8.515625 " transform="matrix(2,0,0,2,0,0)"/>
<path style="fill:none;stroke-width:1;stroke-linecap:round;stroke-linejoin:miter;stroke:rgb(90.196079%,0.784314%,70.588237%);stroke-opacity:1;stroke-miterlimit:4;" d="M 8.806641 10.5 L 13.152344 10.5 " transform="matrix(2,0,0,2,0,0)"/>
<path style="fill-rule:nonzero;fill:rgb(94.117647%,89.019608%,92.54902%);fill-opacity:1;stroke-width:1;stroke-linecap:round;stroke-linejoin:round;stroke:rgb(90.196079%,0.784314%,70.588237%);stroke-opacity:1;stroke-miterlimit:4;" d="M 8.185547 5.984375 L 13.542969 5.984375 C 14.09375 5.984375 14.542969 6.431641 14.542969 6.984375 L 14.542969 13.677734 C 14.542969 14.230469 14.09375 14.677734 13.542969 14.677734 L 8.185547 14.677734 C 7.632812 14.677734 7.185547 14.230469 7.185547 13.677734 L 7.185547 6.984375 C 7.185547 6.431641 7.632812 5.984375 8.185547 5.984375 Z M 8.185547 5.984375 " transform="matrix(2,0,0,2,0,0)"/>
<path style="fill-rule:nonzero;fill:rgb(61.56863%,22.745098%,60.784316%);fill-opacity:1;stroke-width:0.25;stroke-linecap:butt;stroke-linejoin:miter;stroke:rgb(61.56863%,22.745098%,60.784316%);stroke-opacity:1;stroke-miterlimit:4;" d="M 11.783203 7.322266 C 11.804688 7.097656 11.966797 6.933594 12.169922 6.933594 C 12.304688 6.933594 12.427734 7.005859 12.498047 7.121094 C 12.566406 7.003906 12.685547 6.933594 12.818359 6.933594 C 13.021484 6.933594 13.183594 7.097656 13.205078 7.322266 C 13.207031 7.332031 13.212891 7.384766 13.193359 7.46875 C 13.162109 7.591797 13.095703 7.705078 12.996094 7.792969 L 12.498047 8.234375 L 11.992188 7.792969 C 11.892578 7.705078 11.826172 7.591797 11.794922 7.46875 C 11.775391 7.384766 11.78125 7.332031 11.783203 7.322266 Z M 11.849609 7.457031 C 11.876953 7.570312 11.939453 7.671875 12.029297 7.751953 L 12.498047 8.162109 L 12.958984 7.753906 C 13.048828 7.671875 13.111328 7.570312 13.138672 7.457031 C 13.158203 7.376953 13.150391 7.330078 13.150391 7.330078 L 13.150391 7.328125 C 13.132812 7.130859 12.992188 6.988281 12.818359 6.988281 C 12.689453 6.988281 12.578125 7.066406 12.523438 7.189453 L 12.498047 7.248047 L 12.472656 7.189453 C 12.419922 7.068359 12.300781 6.988281 12.169922 6.988281 C 11.996094 6.988281 11.855469 7.130859 11.837891 7.330078 C 11.837891 7.330078 11.830078 7.376953 11.849609 7.457031 Z M 11.849609 7.457031 " transform="matrix(2,0,0,2,0,0)"/>
<path style="fill:none;stroke-width:1;stroke-linecap:round;stroke-linejoin:miter;stroke:rgb(90.196079%,0.784314%,70.588237%);stroke-opacity:1;stroke-miterlimit:4;" d="M 8.652344 9 L 13 9 " transform="matrix(2,0,0,2,0,0)"/>
<path style="fill:none;stroke-width:1;stroke-linecap:round;stroke-linejoin:miter;stroke:rgb(90.196079%,0.784314%,70.588237%);stroke-opacity:1;stroke-miterlimit:4;" d="M 8.652344 11 L 13 11 " transform="matrix(2,0,0,2,0,0)"/>
<path style="fill:none;stroke-width:1;stroke-linecap:round;stroke-linejoin:miter;stroke:rgb(90.196079%,0.784314%,70.588237%);stroke-opacity:1;stroke-miterlimit:4;" d="M 8.652344 13 L 13 13 " transform="matrix(2,0,0,2,0,0)"/>
<path style="fill:none;stroke-width:1.615385;stroke-linecap:round;stroke-linejoin:round;stroke:rgb(94.117647%,89.019608%,92.54902%);stroke-opacity:1;stroke-miterlimit:4;" d="M 3.771732 13.10068 L 2.192837 15.445632 L -0.153585 13.865232 " transform="matrix(1.297691,-1.328524,1.328524,1.297691,-8.70927,9.986759)"/>
<path style="fill:none;stroke-width:1.615385;stroke-linecap:round;stroke-linejoin:miter;stroke:rgb(94.117647%,89.019608%,92.54902%);stroke-opacity:1;stroke-miterlimit:4;" d="M 5.229912 6.848381 C 5.229912 6.848381 -0.153747 5.770764 2 14.387309 " transform="matrix(1.297691,-1.328524,1.328524,1.297691,-8.70927,9.986759)"/>
<path style="fill:none;stroke-width:1.076923;stroke-linecap:round;stroke-linejoin:round;stroke:rgb(61.56863%,22.745098%,60.784316%);stroke-opacity:1;stroke-miterlimit:4;" d="M 3.771732 13.10068 L 2.192837 15.445632 L -0.153585 13.865232 " transform="matrix(1.297691,-1.328524,1.328524,1.297691,-8.70927,9.986759)"/>
<path style="fill:none;stroke-width:1.076923;stroke-linecap:round;stroke-linejoin:miter;stroke:rgb(61.56863%,22.745098%,60.784316%);stroke-opacity:1;stroke-miterlimit:4;" d="M 5.229912 6.848381 C 5.229912 6.848381 -0.153747 5.770764 2 14.387309 " transform="matrix(1.297691,-1.328524,1.328524,1.297691,-8.70927,9.986759)"/>
</g>
</svg>
