<?xml version="1.0" encoding="UTF-8"?>
<svg xmlns="http://www.w3.org/2000/svg" xmlns:xlink="http://www.w3.org/1999/xlink" width="32px" height="32px" viewBox="0 0 32 32" version="1.1">
<defs>
<radialGradient id="radial0" gradientUnits="userSpaceOnUse" cx="63.75" cy="63.875" fx="63.75" fy="63.875" r="24.25" gradientTransform="matrix(0.366557,0,0,0.366561,0.585373,0.632276)">
<stop offset="0" style="stop-color:rgb(95.686275%,0%,0%);stop-opacity:0.941176;"/>
<stop offset="1" style="stop-color:rgb(79.607844%,0%,2.352941%);stop-opacity:1;"/>
</radialGradient>
</defs>
<g id="surface1">
<path style="fill-rule:nonzero;fill:rgb(95.294118%,71.764708%,85.09804%);fill-opacity:1;stroke-width:1;stroke-linecap:butt;stroke-linejoin:miter;stroke:rgb(90.196079%,0.784314%,70.588237%);stroke-opacity:1;stroke-miterlimit:4;" d="M 14.542969 8.015625 C 14.542969 11.617188 11.623047 14.537109 8.021484 14.537109 C 4.419922 14.537109 1.5 11.617188 1.5 8.015625 C 1.5 4.412109 4.419922 1.492188 8.021484 1.492188 C 11.623047 1.492188 14.542969 4.412109 14.542969 8.015625 Z M 14.542969 8.015625 " transform="matrix(2,0,0,2,0,0)"/>
<path style=" stroke:none;fill-rule:nonzero;fill:rgb(94.117647%,89.019608%,92.54902%);fill-opacity:1;" d="M 6.726562 16.03125 C 6.726562 21.167969 10.90625 25.347656 16.042969 25.347656 C 21.179688 25.347656 25.359375 21.167969 25.359375 16.03125 C 25.359375 10.890625 21.179688 6.710938 16.042969 6.710938 C 10.90625 6.710938 6.726562 10.890625 6.726562 16.03125 Z M 6.726562 16.03125 "/>
<path style=" stroke:none;fill-rule:evenodd;fill:url(#radial0);" d="M 20.390625 16.03125 C 20.390625 18.429688 18.445312 20.378906 16.042969 20.378906 C 13.640625 20.378906 11.695312 18.429688 11.695312 16.03125 C 11.695312 13.628906 13.640625 11.679688 16.042969 11.679688 C 18.445312 11.679688 20.390625 13.628906 20.390625 16.03125 Z M 20.390625 16.03125 "/>
<path style="fill-rule:evenodd;fill:rgb(94.117647%,89.019608%,92.54902%);fill-opacity:1;stroke-width:1.609849;stroke-linecap:round;stroke-linejoin:round;stroke:rgb(90.196079%,0.784314%,70.588237%);stroke-opacity:1;stroke-miterlimit:4;" d="M 15.975578 8.508881 L 20.041343 8.508881 C 21.374587 8.508881 22.456276 9.590427 22.456276 10.923496 L 22.456276 20.085202 C 22.456276 21.418271 21.374587 22.499818 20.041343 22.499818 L 15.975578 22.499818 C 14.642334 22.499818 13.560646 21.418271 13.560646 20.085202 L 13.560646 10.923496 C 13.560646 9.590427 14.642334 8.508881 15.975578 8.508881 Z M 15.975578 8.508881 " transform="matrix(1.242271,0,0,1.242434,1.126661,1.244685)"/>
<path style="fill-rule:evenodd;fill:rgb(95.294118%,71.764708%,85.09804%);fill-opacity:1;stroke-width:1.609849;stroke-linecap:round;stroke-linejoin:round;stroke:rgb(90.196079%,0.784314%,70.588237%);stroke-opacity:1;stroke-miterlimit:4;" d="M 16.808856 11.498854 L 19.189199 11.498854 C 19.912421 11.498854 20.500432 12.347742 20.500432 13.394705 L 20.500432 18.604364 C 20.500432 19.651326 19.912421 20.500214 19.189199 20.500214 L 16.808856 20.500214 C 16.085634 20.500214 15.500767 19.651326 15.500767 18.604364 L 15.500767 13.394705 C 15.500767 12.347742 16.085634 11.498854 16.808856 11.498854 Z M 16.808856 11.498854 " transform="matrix(1.242271,0,0,1.242434,1.126661,1.244685)"/>
<path style="fill:none;stroke-width:1.609849;stroke-linecap:round;stroke-linejoin:round;stroke:rgb(61.56863%,22.745098%,60.784316%);stroke-opacity:1;stroke-miterlimit:4;" d="M 18.421955 14.187 C 18.421955 14.413371 18.236433 14.595724 18.006889 14.598868 C 17.777344 14.598868 17.588678 14.416515 17.585533 14.190144 C 17.585533 13.963774 17.767911 13.778276 17.997455 13.775132 C 18.227 13.771988 18.415666 13.951198 18.421955 14.177568 L 18.003744 14.187 Z M 18.421955 14.187 " transform="matrix(1.242271,0,0,1.242434,1.126661,1.244685)"/>
<path style="fill:none;stroke-width:1.609849;stroke-linecap:round;stroke-linejoin:round;stroke:rgb(90.196079%,0.784314%,70.588237%);stroke-opacity:1;stroke-miterlimit:4;" d="M 17.947144 16.749385 L 17.947144 18.796149 " transform="matrix(1.242271,0,0,1.242434,1.126661,1.244685)"/>
</g>
</svg>
