<?xml version="1.0" encoding="UTF-8"?>
<svg xmlns="http://www.w3.org/2000/svg" xmlns:xlink="http://www.w3.org/1999/xlink" width="32px" height="32px" viewBox="0 0 32 32" version="1.1">
<g id="surface1">
<path style="fill-rule:evenodd;fill:rgb(96.078432%,92.941177%,95.294118%);fill-opacity:1;stroke-width:0.244165;stroke-linecap:round;stroke-linejoin:round;stroke:rgb(61.56863%,22.745098%,60.784316%);stroke-opacity:1;stroke-miterlimit:4;" d="M 0.773397 1.323088 L 2.930928 1.323088 C 3.065446 1.323088 3.175159 1.432265 3.175159 1.567187 L 3.175159 2.666112 C 3.175159 2.801034 3.065446 2.910212 2.930928 2.910212 L 0.773397 2.910212 C 0.638402 2.910212 0.529166 2.801034 0.529166 2.666112 L 0.529166 1.567187 C 0.529166 1.432265 0.638402 1.323088 0.773397 1.323088 Z M 0.773397 1.323088 " transform="matrix(8.188975,0,0,8.193377,-1.333331,-2.426494)"/>
<path style="fill:none;stroke-width:0.244165;stroke-linecap:butt;stroke-linejoin:round;stroke:rgb(61.56863%,22.745098%,60.784316%);stroke-opacity:1;stroke-miterlimit:4;" d="M 1.058174 2.910212 L 1.058174 3.704012 L 1.851924 2.910212 Z M 1.058174 2.910212 " transform="matrix(8.188975,0,0,8.193377,-1.333331,-2.426494)"/>
<path style="fill-rule:evenodd;fill:rgb(96.078432%,92.941177%,95.294118%);fill-opacity:1;stroke-width:0.244165;stroke-linecap:round;stroke-linejoin:round;stroke:rgb(90.196079%,0.784314%,70.588237%);stroke-opacity:1;stroke-miterlimit:4;" d="M -3.459936 0.793887 L -1.302405 0.793887 C -1.167887 0.793887 -1.058174 0.903065 -1.058174 1.037987 L -1.058174 2.136912 C -1.058174 2.271834 -1.167887 2.381488 -1.302405 2.381488 L -3.459936 2.381488 C -3.594931 2.381488 -3.704167 2.271834 -3.704167 2.136912 L -3.704167 1.037987 C -3.704167 0.903065 -3.594931 0.793887 -3.459936 0.793887 Z M -3.459936 0.793887 " transform="matrix(-8.188975,0,0,8.193377,-1.333331,-2.426494)"/>
<path style="fill:none;stroke-width:0.244165;stroke-linecap:butt;stroke-linejoin:round;stroke:rgb(90.196079%,0.784314%,70.588237%);stroke-opacity:1;stroke-miterlimit:4;" d="M 3.175159 2.381488 L 3.175159 3.174812 L 2.381409 2.381488 Z M 3.175159 2.381488 " transform="matrix(8.188975,0,0,8.193377,-1.333331,-2.426494)"/>
<path style="fill-rule:evenodd;fill:rgb(61.56863%,22.745098%,60.784316%);fill-opacity:1;stroke-width:0.166118;stroke-linecap:round;stroke-linejoin:round;stroke:rgb(61.56863%,22.745098%,60.784316%);stroke-opacity:1;stroke-miterlimit:4;" d="M 1.832367 1.614863 C 1.832367 1.711168 1.754137 1.789356 1.65778 1.789356 C 1.561423 1.789356 1.483193 1.711168 1.483193 1.614863 C 1.483193 1.518558 1.561423 1.44037 1.65778 1.44037 C 1.754137 1.44037 1.832367 1.518558 1.832367 1.614863 Z M 1.832367 1.614863 " transform="matrix(8.188975,0,0,8.193377,-1.333331,-2.426494)"/>
<path style="fill-rule:evenodd;fill:rgb(61.56863%,22.745098%,60.784316%);fill-opacity:1;stroke-width:0.166118;stroke-linecap:round;stroke-linejoin:round;stroke:rgb(61.56863%,22.745098%,60.784316%);stroke-opacity:1;stroke-miterlimit:4;" d="M 2.499231 1.614863 C 2.499231 1.711168 2.421478 1.789356 2.324644 1.789356 C 2.228288 1.789356 2.150058 1.711168 2.150058 1.614863 C 2.150058 1.518558 2.228288 1.44037 2.324644 1.44037 C 2.421478 1.44037 2.499231 1.518558 2.499231 1.614863 Z M 2.499231 1.614863 " transform="matrix(8.188975,0,0,8.193377,-1.333331,-2.426494)"/>
<path style="fill-rule:evenodd;fill:rgb(61.56863%,22.745098%,60.784316%);fill-opacity:1;stroke-width:0.166118;stroke-linecap:round;stroke-linejoin:round;stroke:rgb(61.56863%,22.745098%,60.784316%);stroke-opacity:1;stroke-miterlimit:4;" d="M 3.187084 1.614863 C 3.187084 1.711168 3.108854 1.789356 3.012498 1.789356 C 2.916141 1.789356 2.837911 1.711168 2.837911 1.614863 C 2.837911 1.518558 2.916141 1.44037 3.012498 1.44037 C 3.108854 1.44037 3.187084 1.518558 3.187084 1.614863 Z M 3.187084 1.614863 " transform="matrix(8.188975,0,0,8.193377,-1.333331,-2.426494)"/>
</g>
</svg>
