<?xml version="1.0" encoding="UTF-8"?>
<svg xmlns="http://www.w3.org/2000/svg" xmlns:xlink="http://www.w3.org/1999/xlink" width="32px" height="32px" viewBox="0 0 32 32" version="1.1">
<g id="surface1">
<path style="fill-rule:nonzero;fill:rgb(95.294118%,71.764708%,85.09804%);fill-opacity:1;stroke-width:1.349923;stroke-linecap:round;stroke-linejoin:round;stroke:rgb(61.56863%,22.745098%,60.784316%);stroke-opacity:1;stroke-miterlimit:4;" d="M 51.994779 27.996791 L 40.00006 21.363859 L 40.00006 18.63614 L 51.994779 12.003208 L 51.994779 15.434035 L 43.61318 20.008471 L 51.994779 24.565964 Z M 51.994779 27.996791 " transform="matrix(0.371908,0,0,0.461122,-7.802143,6.777551)"/>
<path style="fill-rule:nonzero;fill:rgb(95.294118%,71.764708%,85.09804%);fill-opacity:1;stroke-width:1.349923;stroke-linecap:round;stroke-linejoin:round;stroke:rgb(61.56863%,22.745098%,60.784316%);stroke-opacity:1;stroke-miterlimit:4;" d="M 87.99994 21.363859 L 76.005221 27.996791 L 76.005221 24.565964 L 84.376316 19.999999 L 76.005221 15.434035 L 76.005221 12.003208 L 87.99994 18.63614 Z M 87.99994 21.363859 " transform="matrix(0.371908,0,0,0.461122,-7.802143,6.777551)"/>
<path style="fill-rule:nonzero;fill:rgb(95.294118%,71.764708%,85.09804%);fill-opacity:1;stroke-width:1.349923;stroke-linecap:round;stroke-linejoin:round;stroke:rgb(61.56863%,22.745098%,60.784316%);stroke-opacity:1;stroke-miterlimit:4;" d="M 72.003481 12.003208 L 60.460403 27.996791 L 55.996519 27.996791 L 67.508087 12.003208 Z M 72.003481 12.003208 " transform="matrix(0.371908,0,0,0.461122,-7.802143,6.777551)"/>
<path style="fill:none;stroke-width:1;stroke-linecap:round;stroke-linejoin:round;stroke:rgb(90.196079%,0.784314%,70.588237%);stroke-opacity:1;stroke-miterlimit:4;" d="M 2.8125 1.482422 L 12.847656 1.482422 C 13.400391 1.482422 13.847656 1.929688 13.847656 2.482422 L 13.847656 13.482422 C 13.847656 14.035156 13.400391 14.482422 12.847656 14.482422 L 2.8125 14.482422 C 2.261719 14.482422 1.8125 14.035156 1.8125 13.482422 L 1.8125 2.482422 C 1.8125 1.929688 2.261719 1.482422 2.8125 1.482422 Z M 2.8125 1.482422 " transform="matrix(2,0,0,2,0,0)"/>
</g>
</svg>
