<?xml version="1.0" encoding="UTF-8"?>
<svg xmlns="http://www.w3.org/2000/svg" xmlns:xlink="http://www.w3.org/1999/xlink" width="32px" height="32px" viewBox="0 0 32 32" version="1.1">
<g id="surface1">
<path style="fill-rule:evenodd;fill:rgb(94.117647%,89.019608%,92.54902%);fill-opacity:1;stroke-width:0.264583;stroke-linecap:round;stroke-linejoin:round;stroke:rgb(90.196079%,0.784314%,70.588237%);stroke-opacity:1;stroke-miterlimit:4;" d="M 0.670243 0.537952 L 3.571875 0.537952 C 3.718119 0.537952 3.836458 0.656807 3.836458 0.802535 L 3.836458 3.571875 C 3.836458 3.71812 3.718119 3.836459 3.571875 3.836459 L 0.670243 3.836459 C 0.524516 3.836459 0.40566 3.71812 0.40566 3.571875 L 0.40566 0.802535 C 0.40566 0.656807 0.524516 0.537952 0.670243 0.537952 Z M 0.670243 0.537952 " transform="matrix(7.559055,0,0,7.559055,0.00000180222,0)"/>
<path style=" stroke:none;fill-rule:nonzero;fill:rgb(95.294118%,71.764708%,85.09804%);fill-opacity:1;" d="M 28 23.902344 L 26.902344 23.902344 L 26.902344 8 L 28 8 Z M 28 23.902344 "/>
<path style=" stroke:none;fill-rule:nonzero;fill:rgb(95.294118%,71.764708%,85.09804%);fill-opacity:1;" d="M 5 23.902344 L 4 23.902344 L 4 8 L 5 8 Z M 5 23.902344 "/>
<path style=" stroke:none;fill-rule:nonzero;fill:rgb(95.294118%,71.764708%,85.09804%);fill-opacity:1;" d="M 27 22.910156 L 27 23.902344 L 5 23.902344 L 5 22.910156 Z M 27 22.910156 "/>
<path style=" stroke:none;fill-rule:nonzero;fill:rgb(95.294118%,71.764708%,85.09804%);fill-opacity:1;" d="M 27 8 L 27 8.992188 L 5 8.992188 L 5 8 Z M 27 8 "/>
<path style=" stroke:none;fill-rule:nonzero;fill:rgb(95.294118%,71.764708%,85.09804%);fill-opacity:1;" d="M 27 12.96875 L 27 13.964844 L 5 13.964844 L 5 12.96875 Z M 27 12.96875 "/>
<path style="fill-rule:nonzero;fill:rgb(95.294118%,71.764708%,85.09804%);fill-opacity:1;stroke-width:0.264583;stroke-linecap:butt;stroke-linejoin:miter;stroke:rgb(61.56863%,22.745098%,60.784316%);stroke-opacity:1;stroke-miterlimit:4;" d="M 0.522965 0.98702 C 0.474906 0.98702 0.397908 1.024744 0.397908 1.070736 L 0.397908 3.715019 C 0.397908 3.761528 0.475423 3.836459 0.522965 3.836459 L 3.182235 3.836459 C 3.259233 3.836459 3.29799 3.709851 3.244763 3.656108 L 0.585494 1.012341 C 0.568957 0.995805 0.54622 0.986503 0.522965 0.98702 Z M 0.89917 2.134754 L 2.113049 3.228744 L 0.89917 3.228744 Z M 0.89917 2.134754 " transform="matrix(7.559055,0,0,7.559055,0.00000180222,0)"/>
</g>
</svg>
