<?xml version="1.0" encoding="UTF-8"?>
<svg xmlns="http://www.w3.org/2000/svg" xmlns:xlink="http://www.w3.org/1999/xlink" width="32px" height="32px" viewBox="0 0 32 32" version="1.1">
<g id="surface1">
<path style="fill-rule:nonzero;fill:rgb(95.294118%,71.764708%,85.09804%);fill-opacity:1;stroke-width:1;stroke-linecap:butt;stroke-linejoin:miter;stroke:rgb(90.196079%,0.784314%,70.588237%);stroke-opacity:1;stroke-miterlimit:4;" d="M 5.375 -14.5 L 10.375 -14.5 C 11.203125 -14.5 11.875 -13.828125 11.875 -13 L 11.875 -8 C 11.875 -7.171875 11.203125 -6.5 10.375 -6.5 L 5.375 -6.5 C 4.546875 -6.5 3.875 -7.171875 3.875 -8 L 3.875 -13 C 3.875 -13.828125 4.546875 -14.5 5.375 -14.5 Z M 5.375 -14.5 " transform="matrix(2,0,0,-2,0.25,0)"/>
<path style=" stroke:none;fill-rule:nonzero;fill:rgb(94.117647%,89.019608%,92.54902%);fill-opacity:1;" d="M 15.554688 15 C 14.292969 15.007812 13.308594 15.167969 12.871094 15.539062 C 12.433594 15.914062 12.21875 16.664062 12.21875 17.792969 L 12.21875 18.515625 C 12.21875 19.277344 12.09375 19.839844 11.8125 20.136719 C 11.535156 20.425781 11.207031 20.570312 10.460938 20.570312 L 9.984375 20.570312 L 9.984375 21.683594 L 10.460938 21.683594 C 11.203125 21.683594 11.53125 21.8125 11.8125 22.109375 C 12.09375 22.40625 12.21875 22.914062 12.21875 23.6875 L 12.21875 24.402344 C 12.21875 25.535156 12.433594 26.285156 12.871094 26.664062 C 13.308594 27.035156 14.292969 27.246094 15.554688 27.253906 L 15.554688 26.140625 C 14.832031 26.136719 13.941406 26.011719 13.722656 25.789062 C 13.496094 25.5625 13.386719 25.089844 13.386719 24.371094 L 13.386719 23.585938 C 13.386719 22.789062 13.28125 22.234375 13.046875 21.871094 C 12.8125 21.507812 12.605469 21.265625 12.027344 21.128906 C 12.601562 21 12.804688 20.75 13.039062 20.386719 C 13.277344 20.023438 13.386719 19.414062 13.386719 18.613281 L 13.386719 17.824219 C 13.386719 17.105469 13.496094 16.628906 13.722656 16.40625 C 13.941406 16.183594 14.832031 16.117188 15.554688 16.113281 Z M 15.554688 15 "/>
<path style=" stroke:none;fill-rule:nonzero;fill:rgb(94.117647%,89.019608%,92.54902%);fill-opacity:1;" d="M 16.945312 15 C 18.207031 15.007812 19.191406 15.167969 19.628906 15.539062 C 20.066406 15.914062 20.28125 16.664062 20.28125 17.792969 L 20.28125 18.515625 C 20.28125 19.277344 20.40625 19.839844 20.6875 20.136719 C 20.964844 20.425781 21.292969 20.570312 22.039062 20.570312 L 22.515625 20.570312 L 22.515625 21.683594 L 22.039062 21.683594 C 21.296875 21.683594 20.96875 21.8125 20.6875 22.109375 C 20.40625 22.40625 20.28125 22.914062 20.28125 23.6875 L 20.28125 24.402344 C 20.28125 25.535156 20.066406 26.285156 19.628906 26.664062 C 19.191406 27.035156 18.207031 27.246094 16.945312 27.253906 L 16.945312 26.140625 C 17.667969 26.136719 18.558594 26.011719 18.777344 25.789062 C 19.003906 25.5625 19.113281 25.089844 19.113281 24.371094 L 19.113281 23.585938 C 19.113281 22.789062 19.21875 22.234375 19.453125 21.871094 C 19.6875 21.507812 19.894531 21.265625 20.472656 21.128906 C 19.898438 21 19.695312 20.75 19.460938 20.386719 C 19.222656 20.023438 19.113281 19.414062 19.113281 18.613281 L 19.113281 17.824219 C 19.113281 17.105469 19.003906 16.628906 18.777344 16.40625 C 18.558594 16.183594 17.667969 16.117188 16.945312 16.113281 Z M 16.945312 15 "/>
<path style="fill:none;stroke-width:1.303711;stroke-linecap:round;stroke-linejoin:round;stroke:rgb(61.56863%,22.745098%,60.784316%);stroke-opacity:1;stroke-miterlimit:4;" d="M 2.000279 3.000048 L 13.001101 3.000048 " transform="matrix(1.583333,0,0,1.486364,3.340705,1.568182)"/>
<path style="fill:none;stroke-width:1.303711;stroke-linecap:round;stroke-linejoin:round;stroke:rgb(61.56863%,22.745098%,60.784316%);stroke-opacity:1;stroke-miterlimit:4;" d="M 11.999456 1.000096 L 14.000278 3.000048 L 11.999456 5 " transform="matrix(1.583333,0,0,1.486364,3.340705,1.568182)"/>
</g>
</svg>
