<?xml version="1.0" encoding="UTF-8"?>
<svg xmlns="http://www.w3.org/2000/svg" xmlns:xlink="http://www.w3.org/1999/xlink" width="32px" height="32px" viewBox="0 0 32 32" version="1.1">
<g id="surface1">
<path style="fill-rule:nonzero;fill:rgb(95.294118%,71.764708%,85.09804%);fill-opacity:1;stroke-width:0.248198;stroke-linecap:butt;stroke-linejoin:bevel;stroke:rgb(90.196079%,0.784314%,70.588237%);stroke-opacity:1;stroke-miterlimit:4;" d="M 0.507812 8.996094 L 15.568359 8.996094 C 15.763672 8.996094 15.919922 9.150391 15.919922 9.341797 L 15.919922 13.652344 C 15.919922 13.841797 15.763672 13.998047 15.568359 13.998047 L 0.507812 13.998047 C 0.314453 13.998047 0.15625 13.841797 0.15625 13.652344 L 0.15625 9.341797 C 0.15625 9.150391 0.314453 8.996094 0.507812 8.996094 Z M 0.507812 8.996094 " transform="matrix(2,0,0,2,0,0)"/>
<path style=" stroke:none;fill-rule:nonzero;fill:rgb(61.56863%,22.745098%,60.784316%);fill-opacity:0.828571;" d="M 1.957031 18.203125 L 3.957031 18.203125 L 3.957031 24.203125 L 1.957031 24.203125 Z M 1.957031 18.203125 "/>
<path style=" stroke:none;fill-rule:nonzero;fill:rgb(61.56863%,22.745098%,60.784316%);fill-opacity:0.828571;" d="M 6.023438 18.203125 L 8.023438 18.203125 L 8.023438 21.203125 L 6.023438 21.203125 Z M 6.023438 18.203125 "/>
<path style=" stroke:none;fill-rule:nonzero;fill:rgb(61.56863%,22.745098%,60.784316%);fill-opacity:0.828571;" d="M 10.023438 18.203125 L 12.023438 18.203125 L 12.023438 24.203125 L 10.023438 24.203125 Z M 10.023438 18.203125 "/>
<path style=" stroke:none;fill-rule:nonzero;fill:rgb(61.56863%,22.745098%,60.784316%);fill-opacity:0.828571;" d="M 14.023438 18.203125 L 16.023438 18.203125 L 16.023438 21.203125 L 14.023438 21.203125 Z M 14.023438 18.203125 "/>
<path style=" stroke:none;fill-rule:nonzero;fill:rgb(61.56863%,22.745098%,60.784316%);fill-opacity:0.828571;" d="M 18.023438 18.203125 L 20.023438 18.203125 L 20.023438 24.203125 L 18.023438 24.203125 Z M 18.023438 18.203125 "/>
<path style=" stroke:none;fill-rule:nonzero;fill:rgb(61.56863%,22.745098%,60.784316%);fill-opacity:0.828571;" d="M 22.023438 18.203125 L 24.023438 18.203125 L 24.023438 21.203125 L 22.023438 21.203125 Z M 22.023438 18.203125 "/>
<path style=" stroke:none;fill-rule:nonzero;fill:rgb(61.56863%,22.745098%,60.784316%);fill-opacity:0.828571;" d="M 26.023438 18.203125 L 28.023438 18.203125 L 28.023438 24.203125 L 26.023438 24.203125 Z M 26.023438 18.203125 "/>
<path style="fill-rule:nonzero;fill:rgb(95.294118%,71.764708%,85.09804%);fill-opacity:1;stroke-width:0.256645;stroke-linecap:round;stroke-linejoin:round;stroke:rgb(90.196079%,0.784314%,70.588237%);stroke-opacity:1;stroke-miterlimit:4;" d="M 15.894531 2.107422 L 15.882812 6.888672 L 15.134766 6.876953 L 15.121094 4.904297 L 12.337891 6.888672 L 11.830078 6.414062 L 12.980469 4.892578 L 9.132812 4.927734 L 9.097656 4.150391 L 12.912109 4.150391 L 11.830078 2.628906 L 12.337891 2.154297 L 15.132812 4.019531 L 15.142578 2.109375 Z M 15.894531 2.107422 " transform="matrix(2,0,0,2,0,0)"/>
<path style="fill-rule:nonzero;fill:rgb(95.294118%,71.764708%,85.09804%);fill-opacity:1;stroke-width:0.256645;stroke-linecap:round;stroke-linejoin:round;stroke:rgb(90.196079%,0.784314%,70.588237%);stroke-opacity:1;stroke-miterlimit:4;" d="M 0.115234 2.140625 L 0.126953 6.921875 L 0.876953 6.910156 L 0.888672 4.939453 L 3.673828 6.921875 L 4.179688 6.449219 L 3.03125 4.927734 L 6.878906 4.960938 L 6.878906 4.115234 L 3.099609 4.183594 L 4.179688 2.662109 L 3.673828 2.189453 L 0.876953 4.054688 L 0.867188 2.142578 Z M 0.115234 2.140625 " transform="matrix(2,0,0,2,0,0)"/>
</g>
</svg>
