<?xml version="1.0" encoding="UTF-8"?>
<svg xmlns="http://www.w3.org/2000/svg" xmlns:xlink="http://www.w3.org/1999/xlink" width="32px" height="32px" viewBox="0 0 32 32" version="1.1">
<g id="surface1">
<path style="fill-rule:nonzero;fill:rgb(94.117647%,89.019608%,92.54902%);fill-opacity:1;stroke-width:1.249674;stroke-linecap:butt;stroke-linejoin:miter;stroke:rgb(90.196079%,0.784314%,70.588237%);stroke-opacity:1;stroke-miterlimit:4;" d="M 2.66579 3.986784 C 1.74562 3.986784 1.001185 4.433445 1.001185 4.9875 L 1.001185 10.999115 C 1.001185 11.55317 1.74562 11.999831 2.66579 11.999831 L 5.999881 11.999831 L 5.999881 3.986784 Z M 2.66579 3.986784 " transform="matrix(1.600417,0,0,1.600417,4.655499,3.517919)"/>
<path style="fill-rule:nonzero;fill:rgb(94.117647%,89.019608%,92.54902%);fill-opacity:1;stroke-width:1.249674;stroke-linecap:butt;stroke-linejoin:miter;stroke:rgb(90.196079%,0.784314%,70.588237%);stroke-opacity:1;stroke-miterlimit:4;" d="M 11.584362 -0.204017 C 11.19628 -0.199136 10.830164 -0.0941828 10.554357 0.0864341 L 5.999881 3.598702 C 5.714311 3.786641 5.555661 4.040481 5.555661 4.306525 L 5.555661 11.292008 C 5.555661 11.558052 5.714311 11.811892 5.999881 11.999831 L 10.554357 15.499895 C 10.874098 15.709801 11.247536 15.822076 11.628296 15.792787 C 12.914582 15.817195 13.146455 16.066153 13.146455 14.792071 L 13.146455 0.791817 C 13.307546 -0.523758 12.731524 -0.206458 11.584362 -0.204017 Z M 11.584362 -0.204017 " transform="matrix(1.600417,0,0,1.600417,4.655499,3.517919)"/>
<path style="fill-rule:evenodd;fill:rgb(94.117647%,89.019608%,92.54902%);fill-opacity:1;stroke-width:1;stroke-linecap:round;stroke-linejoin:round;stroke:rgb(61.56863%,22.745098%,60.784316%);stroke-opacity:1;stroke-miterlimit:4;" d="M 14.412111 11.212892 C 14.412111 13.001955 12.960939 14.453127 11.171876 14.453127 C 9.382814 14.453127 7.931642 13.001955 7.931642 11.212892 C 7.931642 9.423829 9.382814 7.972657 11.171876 7.972657 C 12.960939 7.972657 14.412111 9.423829 14.412111 11.212892 Z M 14.412111 11.212892 " transform="matrix(2,0,0,2,0,0)"/>
<path style="fill-rule:nonzero;fill:rgb(90.196079%,0.784314%,70.588237%);fill-opacity:1;stroke-width:1;stroke-linecap:round;stroke-linejoin:round;stroke:rgb(90.196079%,0.784314%,70.588237%);stroke-opacity:1;stroke-miterlimit:4;" d="M 12.175783 12.220705 L 10.16797 10.203126 " transform="matrix(2,0,0,2,0,0)"/>
<path style="fill-rule:nonzero;fill:rgb(90.196079%,0.784314%,70.588237%);fill-opacity:1;stroke-width:1;stroke-linecap:round;stroke-linejoin:round;stroke:rgb(90.196079%,0.784314%,70.588237%);stroke-opacity:1;stroke-miterlimit:4;" d="M 10.16797 12.216798 L 12.175783 10.208986 " transform="matrix(2,0,0,2,0,0)"/>
</g>
</svg>
