<?xml version="1.0" encoding="UTF-8"?>
<svg xmlns="http://www.w3.org/2000/svg" xmlns:xlink="http://www.w3.org/1999/xlink" width="32px" height="32px" viewBox="0 0 32 32" version="1.1">
<g id="surface1">
<path style="fill-rule:nonzero;fill:rgb(94.117647%,89.019608%,92.54902%);fill-opacity:1;stroke-width:1;stroke-linecap:butt;stroke-linejoin:miter;stroke:rgb(90.196079%,0.784314%,70.588237%);stroke-opacity:1;stroke-miterlimit:4;" d="M 2.109375 3.5 L 13.890625 3.5 C 14.228516 3.5 14.5 3.767578 14.5 4.099609 L 14.5 14.064453 C 14.5 14.396484 14.228516 14.664062 13.890625 14.664062 L 2.109375 14.664062 C 1.771484 14.664062 1.5 14.396484 1.5 14.064453 L 1.5 4.099609 C 1.5 3.767578 1.771484 3.5 2.109375 3.5 Z M 2.109375 3.5 " transform="matrix(2,0,0,2,0,0)"/>
<path style="fill:none;stroke-width:1;stroke-linecap:round;stroke-linejoin:miter;stroke:rgb(90.196079%,0.784314%,70.588237%);stroke-opacity:1;stroke-miterlimit:4;" d="M 3.5 7.5 L 12.5 7.5 " transform="matrix(2,0,0,2,0,0)"/>
<path style="fill:none;stroke-width:1;stroke-linecap:round;stroke-linejoin:miter;stroke:rgb(90.196079%,0.784314%,70.588237%);stroke-opacity:1;stroke-miterlimit:4;" d="M 3.5 9.5 L 12.5 9.5 " transform="matrix(2,0,0,2,0,0)"/>
<path style="fill:none;stroke-width:1;stroke-linecap:round;stroke-linejoin:miter;stroke:rgb(90.196079%,0.784314%,70.588237%);stroke-opacity:1;stroke-miterlimit:4;" d="M 3.5 11.5 L 12.5 11.5 " transform="matrix(2,0,0,2,0,0)"/>
<path style="fill:none;stroke-width:1.5;stroke-linecap:round;stroke-linejoin:round;stroke:rgb(94.117647%,89.019608%,92.54902%);stroke-opacity:1;stroke-miterlimit:4;" d="M -19.711727 0.570875 C -20.513913 -0.675663 -20.383553 -2.336051 -19.397367 -3.430299 C -18.412708 -4.522245 -16.833567 -4.754059 -15.599994 -3.985368 " transform="matrix(1.960282,0.396606,-0.396606,1.960282,48.573978,27.151838)"/>
<path style="fill:none;stroke-width:1.5;stroke-linecap:round;stroke-linejoin:round;stroke:rgb(94.117647%,89.019608%,92.54902%);stroke-opacity:1;stroke-miterlimit:4;" d="M 2.780923 17.624439 C 1.978555 16.376659 2.109538 14.715682 3.095093 13.623622 C 4.080517 12.529613 5.658384 12.298171 6.892444 13.066673 " transform="matrix(-0.134257,-1.995489,-1.995489,0.134257,48.573978,27.151838)"/>
<path style="fill:none;stroke-width:1.5;stroke-linecap:round;stroke-linejoin:round;stroke:rgb(94.117647%,89.019608%,92.54902%);stroke-opacity:1;stroke-miterlimit:4;" d="M -14.701052 -4.859122 L -13.46277 -6.169669 L -11.574099 -5.339591 " transform="matrix(2,0,0,2,48.573978,27.151838)"/>
<path style="fill:none;stroke-width:1.5;stroke-linecap:round;stroke-linejoin:round;stroke:rgb(94.117647%,89.019608%,92.54902%);stroke-opacity:1;stroke-miterlimit:4;" d="M -18.232302 -4.294669 L -18.941286 -2.636466 L -20.997927 -2.761466 " transform="matrix(2,0,0,2,48.573978,27.151838)"/>
<path style="fill:none;stroke-width:1;stroke-linecap:round;stroke-linejoin:round;stroke:rgb(61.56863%,22.745098%,60.784316%);stroke-opacity:1;stroke-miterlimit:4;" d="M -19.711727 0.570875 C -20.513913 -0.675663 -20.383553 -2.336051 -19.397367 -3.430299 C -18.412708 -4.522245 -16.833567 -4.754059 -15.599994 -3.985368 " transform="matrix(1.960282,0.396606,-0.396606,1.960282,48.573978,27.151838)"/>
<path style="fill:none;stroke-width:1;stroke-linecap:round;stroke-linejoin:round;stroke:rgb(61.56863%,22.745098%,60.784316%);stroke-opacity:1;stroke-miterlimit:4;" d="M 2.780923 17.624439 C 1.978555 16.376659 2.109538 14.715682 3.095093 13.623622 C 4.080517 12.529613 5.658384 12.298171 6.892444 13.066673 " transform="matrix(-0.134257,-1.995489,-1.995489,0.134257,48.573978,27.151838)"/>
<path style="fill:none;stroke-width:1;stroke-linecap:round;stroke-linejoin:round;stroke:rgb(61.56863%,22.745098%,60.784316%);stroke-opacity:1;stroke-miterlimit:4;" d="M -14.701052 -4.859122 L -13.46277 -6.169669 L -11.574099 -5.339591 " transform="matrix(2,0,0,2,48.573978,27.151838)"/>
<path style="fill:none;stroke-width:1;stroke-linecap:round;stroke-linejoin:round;stroke:rgb(61.56863%,22.745098%,60.784316%);stroke-opacity:1;stroke-miterlimit:4;" d="M -18.232302 -4.294669 L -18.941286 -2.636466 L -20.997927 -2.761466 " transform="matrix(2,0,0,2,48.573978,27.151838)"/>
</g>
</svg>
