<?xml version="1.0" encoding="UTF-8"?>
<svg xmlns="http://www.w3.org/2000/svg" xmlns:xlink="http://www.w3.org/1999/xlink" width="32px" height="32px" viewBox="0 0 32 32" version="1.1">
<g id="surface1">
<path style="fill-rule:nonzero;fill:rgb(90.196079%,0.784314%,70.588237%);fill-opacity:1;stroke-width:1.611989;stroke-linecap:butt;stroke-linejoin:round;stroke:rgb(90.196079%,0.784314%,70.588237%);stroke-opacity:1;stroke-miterlimit:4;" d="M 8.378019 -8.19025 C 7.209134 -9.115232 5.737789 -9.124671 4.877666 -8.212273 C 4.307401 -7.605057 4.124664 -6.724121 4.379865 -5.893525 C 3.532345 -6.107467 2.694277 -5.890379 2.130313 -5.292601 C 1.27019 -4.380204 1.36786 -2.910929 2.360309 -1.800321 C 2.401268 -1.749982 2.624963 -1.482555 3.119612 -1.189959 C 3.837956 -0.765222 4.663422 -0.567012 5.510943 -0.614205 L 9.739093 -0.843877 L 9.751696 -5.11956 C 9.748545 -5.965888 9.499645 -6.780753 9.033351 -7.46977 C 8.711987 -7.947992 8.43158 -8.152495 8.378019 -8.19025 Z M 8.749794 -7.284145 C 9.17513 -6.654905 9.398825 -5.912402 9.405126 -5.135291 L 9.392523 -1.174228 L 5.473135 -0.960286 C 4.698079 -0.91624 3.941927 -1.098719 3.286596 -1.485701 C 2.817151 -1.762567 2.631264 -2.004824 2.631264 -2.004824 L 2.618661 -2.020555 C 1.749086 -2.99273 1.651417 -4.263794 2.388665 -5.047198 C 2.933725 -5.626098 3.784396 -5.783408 4.609862 -5.462496 L 5.00054 -5.308332 L 4.824105 -5.689022 C 4.458631 -6.481864 4.581506 -7.375384 5.139168 -7.96687 C 5.876416 -8.750273 7.152423 -8.731396 8.188981 -7.910238 C 8.188981 -7.907092 8.444183 -7.737197 8.749794 -7.284145 Z M 8.749794 -7.284145 " transform="matrix(1.23983,0,0,1.241578,1.069711,14.024302)"/>
<path style="fill-rule:nonzero;fill:rgb(90.196079%,0.784314%,70.588237%);fill-opacity:1;stroke-width:1.611989;stroke-linecap:butt;stroke-linejoin:round;stroke:rgb(90.196079%,0.784314%,70.588237%);stroke-opacity:1;stroke-miterlimit:4;" d="M 15.621326 -8.045525 C 16.78706 -8.970507 18.258406 -8.979945 19.118529 -8.067548 C 19.688794 -7.460332 19.87153 -6.579396 19.616329 -5.7488 C 20.46385 -5.962741 21.305069 -5.745654 21.865881 -5.147876 C 22.726004 -4.235479 22.628335 -2.76935 21.635885 -1.658742 C 21.594927 -1.605257 21.371232 -1.33783 20.876583 -1.045234 C 20.161389 -0.620497 19.332772 -0.422286 18.485252 -0.469479 L 14.257102 -0.702298 L 14.244499 -4.974835 C 14.24765 -5.824309 14.49655 -6.636028 14.962843 -7.325045 C 15.284208 -7.803267 15.564614 -8.00777 15.618175 -8.045525 Z M 15.249551 -7.13942 C 14.824216 -6.51018 14.59737 -5.767677 14.591069 -4.990566 L 14.603671 -1.029503 L 18.523059 -0.815561 C 19.298115 -0.771514 20.054267 -0.953994 20.709599 -1.340976 C 21.179043 -1.617842 21.364931 -1.860099 21.364931 -1.863245 L 21.377533 -1.87583 C 22.247108 -2.848005 22.344778 -4.119069 21.60753 -4.902473 C 21.06247 -5.481373 20.211799 -5.638683 19.386333 -5.317771 L 18.995654 -5.163607 L 19.17209 -5.544297 C 19.537563 -6.337139 19.414689 -7.230659 18.860177 -7.822145 C 18.122929 -8.605548 16.843772 -8.586671 15.807213 -7.765513 C 15.807213 -7.762367 15.552012 -7.592472 15.249551 -7.13942 Z M 15.249551 -7.13942 " transform="matrix(1.23983,0,0,1.241578,1.069711,14.024302)"/>
<path style="fill-rule:nonzero;fill:rgb(90.196079%,0.784314%,70.588237%);fill-opacity:1;stroke-width:1.611989;stroke-linecap:butt;stroke-linejoin:round;stroke:rgb(90.196079%,0.784314%,70.588237%);stroke-opacity:1;stroke-miterlimit:4;" d="M 8.463086 11.37281 C 7.297352 12.297793 5.826006 12.307231 4.965883 11.394834 C 4.395619 10.787618 4.212882 9.906682 4.468083 9.076086 C 3.620563 9.290027 2.779344 9.07294 2.218531 8.475162 C 1.358408 7.562764 1.456078 6.09349 2.448527 4.982882 C 2.489485 4.932543 2.71318 4.665116 3.20783 4.37252 C 3.923024 3.947783 4.75164 3.749572 5.599161 3.796765 L 9.827311 4.026438 L 9.839913 8.302121 C 9.836763 9.148448 9.587863 9.963314 9.121569 10.652331 C 8.800204 11.130553 8.519798 11.335056 8.466237 11.37281 Z M 8.834861 10.466705 C 9.260197 9.837466 9.487042 9.094963 9.493344 8.317852 L 9.480741 4.356789 L 5.561353 4.142847 C 4.786297 4.0988 4.030145 4.28128 3.374813 4.668262 C 2.905369 4.945128 2.719482 5.187385 2.719482 5.187385 L 2.706879 5.203116 C 1.837304 6.175291 1.739635 7.446355 2.476883 8.229758 C 3.021942 8.808659 3.872613 8.965969 4.698079 8.645057 L 5.088758 8.490893 L 4.912323 8.871583 C 4.546849 9.664425 4.669724 10.557945 5.224235 11.14943 C 5.961483 11.932834 7.240641 11.913957 8.277199 11.092799 C 8.277199 11.089653 8.5324 10.919758 8.834861 10.466705 Z M 8.834861 10.466705 " transform="matrix(1.23983,0,0,1.241578,1.069711,14.024302)"/>
<path style="fill-rule:nonzero;fill:rgb(90.196079%,0.784314%,70.588237%);fill-opacity:1;stroke-width:1.611989;stroke-linecap:butt;stroke-linejoin:round;stroke:rgb(90.196079%,0.784314%,70.588237%);stroke-opacity:1;stroke-miterlimit:4;" d="M 15.706393 11.228085 C 16.875278 12.153068 18.346624 12.162506 19.206747 11.250109 C 19.777011 10.642892 19.959748 9.761957 19.704547 8.931361 C 20.552067 9.145302 21.390136 8.928214 21.954099 8.330437 C 22.814222 7.418039 22.716552 5.951911 21.724103 4.841303 C 21.683145 4.787818 21.45945 4.520391 20.9648 4.227794 C 20.246456 3.803058 19.42099 3.604847 18.573469 3.65204 L 14.345319 3.884859 L 14.332717 8.157396 C 14.335867 9.006869 14.584767 9.818589 15.051061 10.507606 C 15.372426 10.985828 15.652832 11.190331 15.706393 11.228085 Z M 15.334618 10.32198 C 14.909283 9.692741 14.685588 8.950238 14.679286 8.173127 L 14.691889 4.212063 L 18.611277 3.998122 C 19.386333 3.954075 20.142485 4.136555 20.797817 4.523537 C 21.267261 4.800402 21.453148 5.04266 21.453148 5.045806 L 21.465751 5.058391 C 22.335326 6.030566 22.432995 7.30163 21.695747 8.085033 C 21.150688 8.663934 20.300017 8.821244 19.474551 8.500332 L 19.083872 8.346168 L 19.260308 8.726858 C 19.625781 9.5197 19.502906 10.41322 18.945244 11.004705 C 18.207996 11.788109 16.931989 11.769231 15.895431 10.948074 C 15.895431 10.944928 15.64023 10.775033 15.334618 10.32198 Z M 15.334618 10.32198 " transform="matrix(1.23983,0,0,1.241578,1.069711,14.024302)"/>
</g>
</svg>
