<?xml version="1.0" encoding="UTF-8"?>
<svg xmlns="http://www.w3.org/2000/svg" xmlns:xlink="http://www.w3.org/1999/xlink" width="32px" height="32px" viewBox="0 0 32 32" version="1.1">
<g id="surface1">
<path style="fill-rule:evenodd;fill:rgb(95.294118%,71.764708%,85.09804%);fill-opacity:1;stroke-width:8.072973;stroke-linecap:butt;stroke-linejoin:miter;stroke:rgb(90.196079%,0.784314%,70.588237%);stroke-opacity:1;stroke-miterlimit:4;" d="M 80.582022 11.488877 C 60.91559 11.488877 44.956504 27.129502 44.956504 46.426377 C 44.972415 47.785752 45.067883 49.145127 45.242908 50.488877 L 11.813157 50.488877 C 10.938033 50.488877 10.237933 51.067002 10.237933 51.770127 L 10.237933 114.129502 C 10.237933 114.848252 10.938033 115.426377 11.813157 115.426377 L 74.869846 115.426377 C 75.729059 115.426377 76.44507 114.848252 76.44507 114.129502 L 76.44507 81.113877 C 77.813446 81.285752 79.197734 81.363877 80.582022 81.379502 C 100.264364 81.379502 116.207539 65.723252 116.207539 46.426377 C 116.207539 27.129502 100.264364 11.488877 80.582022 11.488877 Z M 80.582022 11.488877 " transform="matrix(0.245501,0,0,0.25,0.478767,0.135593)"/>
</g>
</svg>
