<?xml version="1.0" encoding="UTF-8"?>
<svg xmlns="http://www.w3.org/2000/svg" xmlns:xlink="http://www.w3.org/1999/xlink" width="32px" height="32px" viewBox="0 0 32 32" version="1.1">
<defs>
<clipPath id="clip1">
  <path d="M 3 10 L 11 10 L 11 24 L 3 24 Z M 3 10 "/>
</clipPath>
<clipPath id="clip2">
  <path d="M 4.621094 9.148438 L 18.609375 5.652344 C 19.09375 5.53125 19.484375 5.824219 19.484375 6.308594 L 19.484375 18.546875 C 19.484375 19.03125 19.09375 19.519531 18.609375 19.640625 L 4.621094 23.136719 C 4.136719 23.257812 3.75 22.96875 3.75 22.484375 L 3.75 10.242188 C 3.75 9.757812 4.136719 9.269531 4.621094 9.148438 Z M 4.621094 9.148438 "/>
</clipPath>
<clipPath id="clip3">
  <path d="M 3 12 L 9 12 L 9 24 L 3 24 Z M 3 12 "/>
</clipPath>
<clipPath id="clip4">
  <path d="M 4.621094 9.148438 L 18.609375 5.652344 C 19.09375 5.53125 19.484375 5.824219 19.484375 6.308594 L 19.484375 18.546875 C 19.484375 19.03125 19.09375 19.519531 18.609375 19.640625 L 4.621094 23.136719 C 4.136719 23.257812 3.75 22.96875 3.75 22.484375 L 3.75 10.242188 C 3.75 9.757812 4.136719 9.269531 4.621094 9.148438 Z M 4.621094 9.148438 "/>
</clipPath>
</defs>
<g id="surface1">
<path style=" stroke:none;fill-rule:nonzero;fill:rgb(90.196079%,0.784314%,70.588237%);fill-opacity:1;" d="M 3 8.003906 L 20.234375 3.304688 C 20.785156 3.152344 21.234375 3.476562 21.234375 4.03125 L 21.234375 19.515625 C 21.234375 20.066406 20.785156 20.636719 20.234375 20.789062 L 3 25.488281 C 2.449219 25.640625 2 25.3125 2 24.761719 L 2 9.277344 C 2 8.722656 2.449219 8.152344 3 8.003906 Z M 3 8.003906 "/>
<path style=" stroke:none;fill-rule:nonzero;fill:rgb(94.117647%,89.019608%,92.54902%);fill-opacity:1;" d="M 4.621094 9.148438 L 18.609375 5.652344 C 19.09375 5.53125 19.484375 5.824219 19.484375 6.308594 L 19.484375 18.546875 C 19.484375 19.03125 19.09375 19.519531 18.609375 19.640625 L 4.621094 23.136719 C 4.136719 23.257812 3.75 22.96875 3.75 22.484375 L 3.75 10.242188 C 3.75 9.757812 4.136719 9.269531 4.621094 9.148438 Z M 4.621094 9.148438 "/>
<path style=" stroke:none;fill-rule:nonzero;fill:rgb(61.56863%,22.745098%,60.784316%);fill-opacity:0.975;" d="M 29.976562 18.757812 C 29.976562 23.097656 26.457031 26.617188 22.117188 26.617188 C 17.773438 26.617188 14.257812 23.097656 14.257812 18.757812 C 14.257812 14.414062 17.773438 10.898438 22.117188 10.898438 C 26.457031 10.898438 29.976562 14.414062 29.976562 18.757812 Z M 29.976562 18.757812 "/>
<path style=" stroke:none;fill-rule:nonzero;fill:rgb(95.294118%,71.764708%,85.09804%);fill-opacity:1;" d="M 28.222656 18.757812 C 28.222656 22.128906 25.488281 24.863281 22.117188 24.863281 C 18.742188 24.863281 16.011719 22.128906 16.011719 18.757812 C 16.011719 15.382812 18.742188 12.652344 22.117188 12.652344 C 25.488281 12.652344 28.222656 15.382812 28.222656 18.757812 Z M 28.222656 18.757812 "/>
<g clip-path="url(#clip1)" clip-rule="nonzero">
<g clip-path="url(#clip2)" clip-rule="nonzero">
<path style=" stroke:none;fill-rule:nonzero;fill:rgb(85.490197%,60.784316%,85.09804%);fill-opacity:0.975;" d="M 10.726562 18.757812 C 10.726562 23.097656 7.207031 26.617188 2.867188 26.617188 C -1.476562 26.617188 -4.992188 23.097656 -4.992188 18.757812 C -4.992188 14.414062 -1.476562 10.898438 2.867188 10.898438 C 7.207031 10.898438 10.726562 14.414062 10.726562 18.757812 Z M 10.726562 18.757812 "/>
</g>
</g>
<g clip-path="url(#clip3)" clip-rule="nonzero">
<g clip-path="url(#clip4)" clip-rule="nonzero">
<path style=" stroke:none;fill-rule:nonzero;fill:rgb(95.294118%,71.764708%,85.09804%);fill-opacity:1;" d="M 8.972656 18.757812 C 8.972656 22.128906 6.238281 24.863281 2.867188 24.863281 C -0.507812 24.863281 -3.238281 22.128906 -3.238281 18.757812 C -3.238281 15.382812 -0.507812 12.652344 2.867188 12.652344 C 6.238281 12.652344 8.972656 15.382812 8.972656 18.757812 Z M 8.972656 18.757812 "/>
</g>
</g>
</g>
</svg>
