<?xml version="1.0" encoding="UTF-8"?>
<svg xmlns="http://www.w3.org/2000/svg" xmlns:xlink="http://www.w3.org/1999/xlink" width="32px" height="32px" viewBox="0 0 32 32" version="1.1">
<g id="surface1">
<path style="fill-rule:evenodd;fill:rgb(94.117647%,89.019608%,92.54902%);fill-opacity:1;stroke-width:1.618348;stroke-linecap:butt;stroke-linejoin:miter;stroke:rgb(90.196079%,0.784314%,70.588237%);stroke-opacity:1;stroke-miterlimit:4;" d="M 2.031021 -4.499793 L 22.007511 -4.499793 C 22.301469 -4.499793 22.538532 -4.259569 22.538532 -3.965611 L 22.538532 11.965008 C 22.538532 12.258966 22.301469 12.499189 22.007511 12.499189 L 2.031021 12.499189 C 1.737063 12.499189 1.5 12.258966 1.5 11.965008 L 1.5 -3.965611 C 1.5 -4.259569 1.737063 -4.499793 2.031021 -4.499793 Z M 2.031021 -4.499793 " transform="matrix(1.235828,0,0,1.235828,1.146258,11.0805)"/>
<path style="fill-rule:nonzero;fill:rgb(94.117647%,89.019608%,92.54902%);fill-opacity:1;stroke-width:0.809174;stroke-linecap:round;stroke-linejoin:round;stroke:rgb(61.56863%,22.745098%,60.784316%);stroke-opacity:1;stroke-miterlimit:4;" d="M 4.281537 -2.748689 L 8.754121 -2.748689 L 8.754121 10.751246 L 4.281537 10.751246 Z M 4.281537 -2.748689 " transform="matrix(1.235828,0,0,1.235828,1.146258,11.0805)"/>
<path style="fill-rule:nonzero;fill:rgb(94.117647%,89.019608%,92.54902%);fill-opacity:1;stroke-width:0.809174;stroke-linecap:round;stroke-linejoin:round;stroke:rgb(61.56863%,22.745098%,60.784316%);stroke-opacity:1;stroke-miterlimit:4;" d="M 15.24332 -2.736046 L 19.744352 -2.736046 L 19.744352 10.76389 L 15.24332 10.76389 Z M 15.24332 -2.736046 " transform="matrix(1.235828,0,0,1.235828,1.146258,11.0805)"/>
<path style="fill:none;stroke-width:1.618349;stroke-linecap:round;stroke-linejoin:miter;stroke:rgb(90.196079%,0.784314%,70.588237%);stroke-opacity:1;stroke-miterlimit:4;" d="M 5.498459 -0.501334 L 7.499269 -0.501334 " transform="matrix(1.235828,0,0,1.235828,1.146258,11.0805)"/>
<path style="fill:none;stroke-width:1.618349;stroke-linecap:round;stroke-linejoin:miter;stroke:rgb(90.196079%,0.784314%,70.588237%);stroke-opacity:1;stroke-miterlimit:4;" d="M 5.498459 3.500286 L 7.499269 3.500286 " transform="matrix(1.235828,0,0,1.235828,1.146258,11.0805)"/>
<path style="fill:none;stroke-width:1.618349;stroke-linecap:round;stroke-linejoin:miter;stroke:rgb(90.196079%,0.784314%,70.588237%);stroke-opacity:1;stroke-miterlimit:4;" d="M 5.498459 7.498745 L 7.499269 7.498745 " transform="matrix(1.235828,0,0,1.235828,1.146258,11.0805)"/>
<path style="fill:none;stroke-width:1.618349;stroke-linecap:round;stroke-linejoin:miter;stroke:rgb(90.196079%,0.784314%,70.588237%);stroke-opacity:1;stroke-miterlimit:4;" d="M 16.501333 -0.501334 L 18.498982 -0.501334 " transform="matrix(1.235828,0,0,1.235828,1.146258,11.0805)"/>
<path style="fill:none;stroke-width:1.618349;stroke-linecap:round;stroke-linejoin:miter;stroke:rgb(90.196079%,0.784314%,70.588237%);stroke-opacity:1;stroke-miterlimit:4;" d="M 16.501333 3.500286 L 18.498982 3.500286 " transform="matrix(1.235828,0,0,1.235828,1.146258,11.0805)"/>
<path style="fill:none;stroke-width:1.618349;stroke-linecap:round;stroke-linejoin:miter;stroke:rgb(90.196079%,0.784314%,70.588237%);stroke-opacity:1;stroke-miterlimit:4;" d="M 16.501333 7.498745 L 18.498982 7.498745 " transform="matrix(1.235828,0,0,1.235828,1.146258,11.0805)"/>
<path style="fill-rule:evenodd;fill:rgb(94.117647%,89.019608%,92.54902%);fill-opacity:1;stroke-width:1.618348;stroke-linecap:round;stroke-linejoin:round;stroke:rgb(90.196079%,0.784314%,70.588237%);stroke-opacity:1;stroke-miterlimit:4;" d="M 15.987323 8.510134 L 20.030034 8.510134 C 21.370229 8.510134 22.457557 9.597462 22.457557 10.937657 L 22.457557 20.072476 C 22.457557 21.412671 21.370229 22.499999 20.030034 22.499999 L 15.987323 22.499999 C 14.647128 22.499999 13.5598 21.412671 13.5598 20.072476 L 13.5598 10.937657 C 13.5598 9.597462 14.647128 8.510134 15.987323 8.510134 Z M 15.987323 8.510134 " transform="matrix(1.235828,0,0,1.235828,1.199455,1.193878)"/>
<path style="fill-rule:evenodd;fill:rgb(95.294118%,71.764708%,85.09804%);fill-opacity:1;stroke-width:1.618348;stroke-linecap:round;stroke-linejoin:round;stroke:rgb(90.196079%,0.784314%,70.588237%);stroke-opacity:1;stroke-miterlimit:4;" d="M 17.928077 11.500286 L 18.073476 11.500286 C 19.413671 11.500286 20.500999 12.587614 20.500999 13.927809 L 20.500999 18.071666 C 20.500999 19.411861 19.413671 20.499189 18.073476 20.499189 L 17.928077 20.499189 C 16.587882 20.499189 15.500554 19.411861 15.500554 18.071666 L 15.500554 13.927809 C 15.500554 12.587614 16.587882 11.500286 17.928077 11.500286 Z M 17.928077 11.500286 " transform="matrix(1.235828,0,0,1.235828,1.199455,1.193878)"/>
<path style="fill:none;stroke-width:1.618349;stroke-linecap:round;stroke-linejoin:round;stroke:rgb(61.56863%,22.745098%,60.784316%);stroke-opacity:1;stroke-miterlimit:4;" d="M 18.421168 14.186998 C 18.421168 14.411417 18.234678 14.597906 18.007098 14.597906 C 17.776357 14.597906 17.589868 14.417739 17.586707 14.190158 C 17.583546 13.965739 17.766874 13.77925 17.997616 13.776089 C 18.225196 13.769767 18.414846 13.949935 18.421168 14.177515 L 18.003937 14.186998 Z M 18.421168 14.186998 " transform="matrix(1.235828,0,0,1.235828,1.199455,1.193878)"/>
<path style="fill:none;stroke-width:1.618349;stroke-linecap:round;stroke-linejoin:round;stroke:rgb(90.196079%,0.784314%,70.588237%);stroke-opacity:1;stroke-miterlimit:4;" d="M 17.947042 16.902157 L 17.947042 19.424505 " transform="matrix(1.235828,0,0,1.235828,1.199455,1.193878)"/>
<path style="fill-rule:evenodd;fill:rgb(94.117647%,89.019608%,92.54902%);fill-opacity:1;stroke-width:1.618348;stroke-linecap:butt;stroke-linejoin:miter;stroke:rgb(90.196079%,0.784314%,70.588237%);stroke-opacity:1;stroke-miterlimit:4;" d="M 2.031021 -4.499793 L 22.007511 -4.499793 C 22.301469 -4.499793 22.538532 -4.259569 22.538532 -3.965611 L 22.538532 11.965008 C 22.538532 12.258966 22.301469 12.499189 22.007511 12.499189 L 2.031021 12.499189 C 1.737063 12.499189 1.5 12.258966 1.5 11.965008 L 1.5 -3.965611 C 1.5 -4.259569 1.737063 -4.499793 2.031021 -4.499793 Z M 2.031021 -4.499793 " transform="matrix(1.235828,0,0,1.235828,1.146258,11.0805)"/>
<path style="fill-rule:nonzero;fill:rgb(94.117647%,89.019608%,92.54902%);fill-opacity:1;stroke-width:0.809174;stroke-linecap:round;stroke-linejoin:round;stroke:rgb(61.56863%,22.745098%,60.784316%);stroke-opacity:1;stroke-miterlimit:4;" d="M 4.281537 -2.748689 L 8.754121 -2.748689 L 8.754121 10.751246 L 4.281537 10.751246 Z M 4.281537 -2.748689 " transform="matrix(1.235828,0,0,1.235828,1.146258,11.0805)"/>
<path style="fill-rule:nonzero;fill:rgb(94.117647%,89.019608%,92.54902%);fill-opacity:1;stroke-width:0.809174;stroke-linecap:round;stroke-linejoin:round;stroke:rgb(61.56863%,22.745098%,60.784316%);stroke-opacity:1;stroke-miterlimit:4;" d="M 15.24332 -2.736046 L 19.744352 -2.736046 L 19.744352 10.76389 L 15.24332 10.76389 Z M 15.24332 -2.736046 " transform="matrix(1.235828,0,0,1.235828,1.146258,11.0805)"/>
<path style="fill:none;stroke-width:1.618349;stroke-linecap:round;stroke-linejoin:miter;stroke:rgb(90.196079%,0.784314%,70.588237%);stroke-opacity:1;stroke-miterlimit:4;" d="M 5.498459 -0.501334 L 7.499269 -0.501334 " transform="matrix(1.235828,0,0,1.235828,1.146258,11.0805)"/>
<path style="fill:none;stroke-width:1.618349;stroke-linecap:round;stroke-linejoin:miter;stroke:rgb(90.196079%,0.784314%,70.588237%);stroke-opacity:1;stroke-miterlimit:4;" d="M 5.498459 3.500286 L 7.499269 3.500286 " transform="matrix(1.235828,0,0,1.235828,1.146258,11.0805)"/>
<path style="fill:none;stroke-width:1.618349;stroke-linecap:round;stroke-linejoin:miter;stroke:rgb(90.196079%,0.784314%,70.588237%);stroke-opacity:1;stroke-miterlimit:4;" d="M 5.498459 7.498745 L 7.499269 7.498745 " transform="matrix(1.235828,0,0,1.235828,1.146258,11.0805)"/>
<path style="fill:none;stroke-width:1.618349;stroke-linecap:round;stroke-linejoin:miter;stroke:rgb(90.196079%,0.784314%,70.588237%);stroke-opacity:1;stroke-miterlimit:4;" d="M 16.501333 -0.501334 L 18.498982 -0.501334 " transform="matrix(1.235828,0,0,1.235828,1.146258,11.0805)"/>
<path style="fill:none;stroke-width:1.618349;stroke-linecap:round;stroke-linejoin:miter;stroke:rgb(90.196079%,0.784314%,70.588237%);stroke-opacity:1;stroke-miterlimit:4;" d="M 16.501333 3.500286 L 18.498982 3.500286 " transform="matrix(1.235828,0,0,1.235828,1.146258,11.0805)"/>
<path style="fill:none;stroke-width:1.618349;stroke-linecap:round;stroke-linejoin:miter;stroke:rgb(90.196079%,0.784314%,70.588237%);stroke-opacity:1;stroke-miterlimit:4;" d="M 16.501333 7.498745 L 18.498982 7.498745 " transform="matrix(1.235828,0,0,1.235828,1.146258,11.0805)"/>
<path style="fill-rule:evenodd;fill:rgb(94.117647%,89.019608%,92.54902%);fill-opacity:1;stroke-width:1.618348;stroke-linecap:round;stroke-linejoin:round;stroke:rgb(90.196079%,0.784314%,70.588237%);stroke-opacity:1;stroke-miterlimit:4;" d="M 16.030368 0.510134 L 20.073079 0.510134 C 21.413274 0.510134 22.500602 1.597462 22.500602 2.937657 L 22.500602 12.072476 C 22.500602 13.412671 21.413274 14.499999 20.073079 14.499999 L 16.030368 14.499999 C 14.690173 14.499999 13.602845 13.412671 13.602845 12.072476 L 13.602845 2.937657 C 13.602845 1.597462 14.690173 0.510134 16.030368 0.510134 Z M 16.030368 0.510134 " transform="matrix(1.235828,0,0,1.235828,1.146258,11.0805)"/>
<path style="fill-rule:evenodd;fill:rgb(95.294118%,71.764708%,85.09804%);fill-opacity:1;stroke-width:1.618348;stroke-linecap:round;stroke-linejoin:round;stroke:rgb(90.196079%,0.784314%,70.588237%);stroke-opacity:1;stroke-miterlimit:4;" d="M 16.785808 3.500286 L 19.301835 3.500286 C 19.987736 3.500286 20.544044 4.078719 20.544044 4.789908 L 20.544044 11.209568 C 20.544044 11.923917 19.987736 12.499189 19.301835 12.499189 L 16.785808 12.499189 C 16.099907 12.499189 15.543599 11.923917 15.543599 11.209568 L 15.543599 4.789908 C 15.543599 4.078719 16.099907 3.500286 16.785808 3.500286 Z M 16.785808 3.500286 " transform="matrix(1.235828,0,0,1.235828,1.146258,11.0805)"/>
<path style="fill:none;stroke-width:1.618349;stroke-linecap:round;stroke-linejoin:round;stroke:rgb(61.56863%,22.745098%,60.784316%);stroke-opacity:1;stroke-miterlimit:4;" d="M 18.464213 6.186998 C 18.464213 6.411417 18.277723 6.597906 18.050143 6.597906 C 17.819402 6.597906 17.632913 6.417739 17.629752 6.190158 C 17.626591 5.965739 17.809919 5.77925 18.040661 5.776089 C 18.268241 5.769767 18.457891 5.949935 18.464213 6.177515 L 18.046982 6.186998 Z M 18.464213 6.186998 " transform="matrix(1.235828,0,0,1.235828,1.146258,11.0805)"/>
<path style="fill:none;stroke-width:1.618349;stroke-linecap:round;stroke-linejoin:round;stroke:rgb(90.196079%,0.784314%,70.588237%);stroke-opacity:1;stroke-miterlimit:4;" d="M 17.990087 8.902157 L 17.990087 10.454128 " transform="matrix(1.235828,0,0,1.235828,1.146258,11.0805)"/>
</g>
</svg>
