<?xml version="1.0" encoding="UTF-8"?>
<svg xmlns="http://www.w3.org/2000/svg" xmlns:xlink="http://www.w3.org/1999/xlink" width="32px" height="32px" viewBox="0 0 32 32" version="1.1">
<g id="surface1">
<path style="fill-rule:nonzero;fill:rgb(94.117647%,94.117647%,94.117647%);fill-opacity:1;stroke-width:0.264583;stroke-linecap:round;stroke-linejoin:round;stroke:rgb(90.196079%,0.784314%,70.588237%);stroke-opacity:1;stroke-miterlimit:4;" d="M 2.034501 0.353467 L 1.913578 0.68988 L 1.913578 0.695565 L 1.984892 1.023193 C 1.991093 1.051099 1.976107 1.079004 1.950268 1.089856 L 1.558044 1.249536 C 1.532723 1.259871 1.502751 1.25057 1.487764 1.227832 L 1.298629 0.944645 L 1.292944 0.93586 L 0.981852 0.787032 L 0.829923 0.938961 L 0.979268 1.250053 L 0.988053 1.255737 L 1.270723 1.444356 C 1.293978 1.459859 1.302763 1.489315 1.292427 1.515153 L 1.132747 1.90686 C 1.121895 1.933215 1.09399 1.947685 1.066085 1.942 L 0.738456 1.870687 L 0.733288 1.870687 L 0.396875 1.991093 L 0.396875 2.199349 L 0.733288 2.320272 L 0.738456 2.320272 L 1.066085 2.248958 C 1.09399 2.242757 1.121895 2.257227 1.132747 2.283582 L 1.292427 2.675806 C 1.302763 2.701127 1.293978 2.730583 1.270723 2.746086 L 0.988053 2.934705 L 0.979268 2.940906 L 0.829923 3.251481 L 0.981852 3.403927 L 1.292944 3.254582 L 1.298629 3.246314 L 1.487764 2.96261 C 1.502751 2.939872 1.532723 2.930571 1.558044 2.941423 L 1.950268 3.100586 C 1.976107 3.111438 1.991093 3.139343 1.984892 3.167249 L 1.913578 3.494877 L 1.913578 3.500562 L 2.034501 3.836975 L 2.242757 3.836975 L 2.363163 3.500562 L 2.363163 3.494877 L 2.29185 3.167249 C 2.285648 3.139343 2.300635 3.111438 2.32699 3.100586 L 2.718697 2.941423 C 2.744535 2.930571 2.773991 2.939872 2.789494 2.96261 L 2.977596 3.245797 L 2.983797 3.254582 L 3.294889 3.403927 L 3.446818 3.251481 L 3.297473 2.940906 L 3.289205 2.935222 L 3.006018 2.746086 C 2.982764 2.730583 2.973979 2.701127 2.984314 2.675806 L 3.143994 2.283582 C 3.154846 2.257227 3.182751 2.242757 3.21014 2.248958 L 3.537769 2.320272 L 3.543453 2.320272 L 3.879867 2.199349 L 3.879867 1.991093 L 3.543453 1.870687 L 3.537769 1.870687 L 3.21014 1.942 C 3.182751 1.947685 3.154846 1.933215 3.143994 1.90686 L 2.984314 1.514636 C 2.973979 1.489315 2.982764 1.459859 3.006018 1.444356 L 3.289205 1.255737 L 3.297473 1.250053 L 3.446818 0.938961 L 3.294889 0.787032 L 2.983797 0.93586 L 2.977596 0.944645 L 2.789494 1.227832 C 2.773991 1.25057 2.744535 1.259871 2.718697 1.249536 L 2.32699 1.089856 C 2.300635 1.079004 2.285648 1.051099 2.29185 1.023193 L 2.363163 0.695565 L 2.363163 0.68988 L 2.242757 0.353467 Z M 2.138371 1.543575 C 2.441711 1.543575 2.690275 1.792139 2.690275 2.095479 C 2.690275 2.398303 2.441711 2.647384 2.138371 2.647384 C 1.83503 2.647384 1.586466 2.398303 1.586466 2.095479 C 1.586466 1.792139 1.83503 1.543575 2.138371 1.543575 Z M 2.138371 1.543575 " transform="matrix(7.559055,0,0,7.559055,0.00000180222,0)"/>
<path style="fill-rule:evenodd;fill:rgb(94.117647%,89.019608%,92.54902%);fill-opacity:1;stroke-width:1.595264;stroke-linecap:round;stroke-linejoin:round;stroke:rgb(90.196079%,0.784314%,70.588237%);stroke-opacity:1;stroke-miterlimit:4;" d="M 15.954906 8.509738 L 20.064405 8.509738 C 21.385427 8.509738 22.457199 9.581602 22.457199 10.902737 L 22.457199 20.107056 C 22.457199 21.42819 21.385427 22.500054 20.064405 22.500054 L 15.954906 22.500054 C 14.633884 22.500054 13.562112 21.42819 13.562112 20.107056 L 13.562112 10.902737 C 13.562112 9.581602 14.633884 8.509738 15.954906 8.509738 Z M 15.954906 8.509738 " transform="matrix(1.253764,0,0,1.253657,1.261932,0.745766)"/>
<path style="fill-rule:evenodd;fill:rgb(95.294118%,71.764708%,85.09804%);fill-opacity:1;stroke-width:1.595264;stroke-linecap:round;stroke-linejoin:round;stroke:rgb(90.196079%,0.784314%,70.588237%);stroke-opacity:1;stroke-miterlimit:4;" d="M 17.198037 11.500986 L 18.80258 11.500986 C 19.740381 11.500986 20.500592 12.170901 20.500592 12.999726 L 20.500592 19.000917 C 20.500592 19.829742 19.740381 20.499657 18.80258 20.499657 L 17.198037 20.499657 C 16.260237 20.499657 15.500026 19.829742 15.500026 19.000917 L 15.500026 12.999726 C 15.500026 12.170901 16.260237 11.500986 17.198037 11.500986 Z M 17.198037 11.500986 " transform="matrix(1.253764,0,0,1.253657,1.261932,0.745766)"/>
<path style="fill:none;stroke-width:1.595264;stroke-linecap:round;stroke-linejoin:round;stroke:rgb(61.56863%,22.745098%,60.784316%);stroke-opacity:1;stroke-miterlimit:4;" d="M 18.419359 14.186878 C 18.419359 14.411221 18.235538 14.595058 18.004982 14.598174 C 17.777542 14.598174 17.590605 14.417453 17.587489 14.189994 C 17.584374 13.96565 17.768195 13.778697 17.995635 13.775581 C 18.226191 13.772465 18.416244 13.95007 18.419359 14.17753 L 18.004982 14.186878 Z M 18.419359 14.186878 " transform="matrix(1.253764,0,0,1.253657,1.261932,0.745766)"/>
<path style="fill:none;stroke-width:1.595264;stroke-linecap:round;stroke-linejoin:round;stroke:rgb(90.196079%,0.784314%,70.588237%);stroke-opacity:1;stroke-miterlimit:4;" d="M 17.948901 16.688932 L 17.948901 18.545998 " transform="matrix(1.253764,0,0,1.253657,1.261932,0.745766)"/>
</g>
</svg>
