<?xml version="1.0" encoding="UTF-8"?>
<svg xmlns="http://www.w3.org/2000/svg" xmlns:xlink="http://www.w3.org/1999/xlink" width="32px" height="32px" viewBox="0 0 32 32" version="1.1">
<g id="surface1">
<path style="fill:none;stroke-width:1;stroke-linecap:round;stroke-linejoin:miter;stroke:rgb(90.196079%,0.784314%,70.588237%);stroke-opacity:1;stroke-miterlimit:4;" d="M 3.5 1.5 L 3.5 6.5 " transform="matrix(2,0,0,2,0,0)"/>
<path style="fill:none;stroke-width:1;stroke-linecap:round;stroke-linejoin:miter;stroke:rgb(90.196079%,0.784314%,70.588237%);stroke-opacity:1;stroke-miterlimit:4;" d="M 3.5 10.5 L 3.5 14.5 " transform="matrix(2,0,0,2,0,0)"/>
<path style="fill-rule:evenodd;fill:rgb(61.56863%,22.745098%,60.784316%);fill-opacity:1;stroke-width:1;stroke-linecap:round;stroke-linejoin:round;stroke:rgb(90.196079%,0.784314%,70.588237%);stroke-opacity:1;stroke-miterlimit:4;" d="M 4.53125 9.332031 C 4.53125 9.882812 4.083984 10.332031 3.53125 10.332031 C 2.978516 10.332031 2.53125 9.882812 2.53125 9.332031 C 2.53125 8.779297 2.978516 8.332031 3.53125 8.332031 C 4.083984 8.332031 4.53125 8.779297 4.53125 9.332031 Z M 4.53125 9.332031 " transform="matrix(2,0,0,2,0,0)"/>
<path style="fill:none;stroke-width:1;stroke-linecap:round;stroke-linejoin:miter;stroke:rgb(90.196079%,0.784314%,70.588237%);stroke-opacity:1;stroke-miterlimit:4;" d="M 6.5 14.576172 L 6.5 8 " transform="matrix(2,0,0,2,0,0)"/>
<path style="fill:none;stroke-width:1;stroke-linecap:round;stroke-linejoin:miter;stroke:rgb(90.196079%,0.784314%,70.588237%);stroke-opacity:1;stroke-miterlimit:4;" d="M 6.5 3.5 L 6.5 1.5 " transform="matrix(2,0,0,2,0,0)"/>
<path style="fill-rule:evenodd;fill:rgb(61.56863%,22.745098%,60.784316%);fill-opacity:1;stroke-width:1;stroke-linecap:round;stroke-linejoin:round;stroke:rgb(90.196079%,0.784314%,70.588237%);stroke-opacity:1;stroke-miterlimit:4;" d="M 7.482422 -6.591797 C 7.482422 -6.039062 7.035156 -5.591797 6.482422 -5.591797 C 5.931641 -5.591797 5.482422 -6.039062 5.482422 -6.591797 C 5.482422 -7.144531 5.931641 -7.591797 6.482422 -7.591797 C 7.035156 -7.591797 7.482422 -7.144531 7.482422 -6.591797 Z M 7.482422 -6.591797 " transform="matrix(2,0,0,-2,0,0)"/>
<path style="fill:none;stroke-width:1;stroke-linecap:round;stroke-linejoin:miter;stroke:rgb(90.196079%,0.784314%,70.588237%);stroke-opacity:1;stroke-miterlimit:4;" d="M 9.5 1.5 L 9.5 7.5 " transform="matrix(2,0,0,2,0,0)"/>
<path style="fill:none;stroke-width:1;stroke-linecap:round;stroke-linejoin:miter;stroke:rgb(90.196079%,0.784314%,70.588237%);stroke-opacity:1;stroke-miterlimit:4;" d="M 9.5 12 L 9.5 14.5 " transform="matrix(2,0,0,2,0,0)"/>
<path style="fill-rule:evenodd;fill:rgb(61.56863%,22.745098%,60.784316%);fill-opacity:1;stroke-width:1;stroke-linecap:round;stroke-linejoin:round;stroke:rgb(90.196079%,0.784314%,70.588237%);stroke-opacity:1;stroke-miterlimit:4;" d="M 10.558594 10.482422 C 10.558594 11.033203 10.111328 11.482422 9.558594 11.482422 C 9.005859 11.482422 8.558594 11.033203 8.558594 10.482422 C 8.558594 9.929688 9.005859 9.482422 9.558594 9.482422 C 10.111328 9.482422 10.558594 9.929688 10.558594 10.482422 Z M 10.558594 10.482422 " transform="matrix(2,0,0,2,0,0)"/>
<path style="fill:none;stroke-width:1;stroke-linecap:round;stroke-linejoin:miter;stroke:rgb(90.196079%,0.784314%,70.588237%);stroke-opacity:1;stroke-miterlimit:4;" d="M 12.5 1.5 L 12.5 3.5 " transform="matrix(2,0,0,2,0,0)"/>
<path style="fill:none;stroke-width:1;stroke-linecap:round;stroke-linejoin:miter;stroke:rgb(90.196079%,0.784314%,70.588237%);stroke-opacity:1;stroke-miterlimit:4;" d="M 12.5 8 L 12.5 14.5 " transform="matrix(2,0,0,2,0,0)"/>
<path style="fill-rule:evenodd;fill:rgb(61.56863%,22.745098%,60.784316%);fill-opacity:1;stroke-width:1;stroke-linecap:round;stroke-linejoin:round;stroke:rgb(90.196079%,0.784314%,70.588237%);stroke-opacity:1;stroke-miterlimit:4;" d="M 13.558594 5.017578 C 13.558594 5.568359 13.111328 6.017578 12.558594 6.017578 C 12.005859 6.017578 11.558594 5.568359 11.558594 5.017578 C 11.558594 4.464844 12.005859 4.017578 12.558594 4.017578 C 13.111328 4.017578 13.558594 4.464844 13.558594 5.017578 Z M 13.558594 5.017578 " transform="matrix(2,0,0,2,0,0)"/>
</g>
</svg>
