<?xml version="1.0" encoding="UTF-8"?>
<svg xmlns="http://www.w3.org/2000/svg" xmlns:xlink="http://www.w3.org/1999/xlink" width="32px" height="32px" viewBox="0 0 32 32" version="1.1">
<g id="surface1">
<path style=" stroke:none;fill-rule:nonzero;fill:rgb(95.294118%,71.764708%,85.09804%);fill-opacity:1;" d="M 2 10.75 C 2 15.582031 5.917969 19.5 10.75 19.5 C 15.582031 19.5 19.5 15.582031 19.5 10.75 C 19.5 5.917969 15.582031 2 10.75 2 C 5.917969 2 2 5.917969 2 10.75 Z M 2 10.75 "/>
<path style=" stroke:none;fill-rule:evenodd;fill:rgb(94.117647%,89.019608%,92.54902%);fill-opacity:1;" d="M 3.75 10.75 C 3.75 14.617188 6.882812 17.75 10.75 17.75 C 14.617188 17.75 17.75 14.617188 17.75 10.75 C 17.75 6.882812 14.617188 3.75 10.75 3.75 C 6.882812 3.75 3.75 6.882812 3.75 10.75 Z M 3.75 10.75 "/>
<path style=" stroke:none;fill-rule:evenodd;fill:rgb(94.117647%,89.019608%,92.54902%);fill-opacity:1;" d="M 15.816406 5.914062 C 12.429688 7.164062 7.914062 7.691406 4.28125 8.070312 C 3.9375 8.894531 3.75 9.800781 3.75 10.75 C 3.75 12.589844 4.453125 14.257812 5.601562 15.503906 C 9.714844 13.722656 14.335938 11.292969 17.421875 8.617188 C 17.097656 7.59375 16.542969 6.671875 15.816406 5.914062 Z M 15.816406 5.914062 "/>
<path style=" stroke:none;fill-rule:nonzero;fill:rgb(90.196079%,0.784314%,70.588237%);fill-opacity:1;" d="M 7.25 14.933594 L 7.25 17.066406 C 7.25 21.308594 10.460938 24.75 14.421875 24.75 L 17.578125 24.75 C 21.539062 24.75 24.75 21.308594 24.75 17.066406 L 24.75 14.933594 C 24.75 10.691406 21.539062 7.25 17.578125 7.25 L 14.421875 7.25 C 10.460938 7.25 7.25 10.691406 7.25 14.933594 Z M 7.25 14.933594 "/>
<path style=" stroke:none;fill-rule:evenodd;fill:rgb(94.117647%,89.019608%,92.54902%);fill-opacity:1;" d="M 9 13.890625 L 9 18.109375 C 9 20.808594 11.671875 23 14.972656 23 L 17.027344 23 C 20.328125 23 23 20.808594 23 18.109375 L 23 13.890625 C 23 11.191406 20.328125 9 17.027344 9 L 14.972656 9 C 11.671875 9 9 11.191406 9 13.890625 Z M 9 13.890625 "/>
<path style=" stroke:none;fill-rule:nonzero;fill:rgb(90.196079%,0.784314%,70.588237%);fill-opacity:1;" d="M 12 12.679688 L 12 29.320312 C 12 29.695312 12.355469 30 12.792969 30 L 29.207031 30 C 29.644531 30 30 29.695312 30 29.320312 L 30 12.679688 C 30 12.304688 29.644531 12 29.207031 12 L 12.792969 12 C 12.355469 12 12 12.304688 12 12.679688 Z M 12 12.679688 "/>
<path style=" stroke:none;fill-rule:evenodd;fill:rgb(95.294118%,71.764708%,85.09804%);fill-opacity:1;" d="M 14 14.316406 L 14 27.683594 C 14 27.859375 14.171875 28 14.382812 28 L 27.617188 28 C 27.828125 28 28 27.859375 28 27.683594 L 28 14.316406 C 28 14.140625 27.828125 14 27.617188 14 L 14.382812 14 C 14.171875 14 14 14.140625 14 14.316406 Z M 14 14.316406 "/>
<path style=" stroke:none;fill-rule:evenodd;fill:rgb(95.294118%,71.764708%,85.09804%);fill-opacity:1;" d="M 28 18.582031 C 24.464844 21.78125 18.640625 24.660156 14 26.527344 L 14 18.375 C 18.441406 17.917969 24.457031 17.265625 28 15.300781 Z M 28 18.582031 "/>
</g>
</svg>
