<?xml version="1.0" encoding="UTF-8"?>
<svg xmlns="http://www.w3.org/2000/svg" xmlns:xlink="http://www.w3.org/1999/xlink" width="32px" height="32px" viewBox="0 0 32 32" version="1.1">
<defs>
<filter id="alpha" filterUnits="objectBoundingBox" x="0%" y="0%" width="100%" height="100%">
  <feColorMatrix type="matrix" in="SourceGraphic" values="0 0 0 0 1 0 0 0 0 1 0 0 0 0 1 0 0 0 1 0"/>
</filter>
<mask id="mask0">
  <g filter="url(#alpha)">
<rect x="0" y="0" width="32" height="32" style="fill:rgb(0%,0%,0%);fill-opacity:0.905263;stroke:none;"/>
  </g>
</mask>
<clipPath id="clip1">
  <rect x="0" y="0" width="32" height="32"/>
</clipPath>
<g id="surface5" clip-path="url(#clip1)">
<path style="fill-rule:evenodd;fill:rgb(95.294118%,71.764708%,85.09804%);fill-opacity:1;stroke-width:16.621611;stroke-linecap:butt;stroke-linejoin:miter;stroke:rgb(61.56863%,22.745098%,60.784316%);stroke-opacity:1;stroke-miterlimit:4;" d="M 90.928367 -0.349306 C 88.266312 -0.284378 85.636721 0.559688 83.429163 2.182893 L 12.819782 53.865713 C 9.70323 56.138199 7.593065 59.871569 7.593065 63.994507 C 7.593065 68.117446 9.70323 71.850816 12.819782 74.123301 L 83.429163 125.806122 C 87.389782 128.695426 92.38925 129.117459 96.706974 127.234542 C 100.959769 125.351625 104.400961 120.93651 104.400961 115.709792 L 104.400961 12.279223 C 104.400961 8.610781 102.712829 5.202052 100.148166 2.929566 C 97.453647 0.527224 94.142311 -0.446698 90.928367 -0.349306 Z M 90.928367 -0.349306 " transform="matrix(0,0.120325,-0.120325,0,27.192345,2.0473)"/>
</g>
</defs>
<g id="surface1">
<path style=" stroke:none;fill-rule:nonzero;fill:rgb(90.196079%,0.784314%,70.588237%);fill-opacity:1;" d="M 6.269531 1.863281 L 26.269531 1.863281 C 27.375 1.863281 28.269531 2.761719 28.269531 3.863281 L 28.269531 27.863281 C 28.269531 28.96875 27.375 29.863281 26.269531 29.863281 L 6.269531 29.863281 C 5.167969 29.863281 4.269531 28.96875 4.269531 27.863281 L 4.269531 3.863281 C 4.269531 2.761719 5.167969 1.863281 6.269531 1.863281 Z M 6.269531 1.863281 "/>
<path style=" stroke:none;fill-rule:nonzero;fill:rgb(94.117647%,89.019608%,92.54902%);fill-opacity:1;" d="M 8.269531 3.863281 L 24.269531 3.863281 C 25.375 3.863281 26.269531 4.761719 26.269531 5.863281 L 26.269531 25.863281 C 26.269531 26.96875 25.375 27.863281 24.269531 27.863281 L 8.269531 27.863281 C 7.167969 27.863281 6.269531 26.96875 6.269531 25.863281 L 6.269531 5.863281 C 6.269531 4.761719 7.167969 3.863281 8.269531 3.863281 Z M 8.269531 3.863281 "/>
<path style=" stroke:none;fill-rule:nonzero;fill:rgb(90.196079%,0.784314%,70.588237%);fill-opacity:1;" d="M 9.269531 9.863281 L 23.269531 9.863281 C 23.824219 9.863281 24.269531 10.3125 24.269531 10.863281 C 24.269531 11.417969 23.824219 11.863281 23.269531 11.863281 L 9.269531 11.863281 C 8.71875 11.863281 8.269531 11.417969 8.269531 10.863281 C 8.269531 10.3125 8.71875 9.863281 9.269531 9.863281 Z M 9.269531 9.863281 "/>
<path style="fill-rule:nonzero;fill:rgb(61.56863%,22.745098%,60.784316%);fill-opacity:1;stroke-width:0.25;stroke-linecap:butt;stroke-linejoin:miter;stroke:rgb(61.56863%,22.745098%,60.784316%);stroke-opacity:1;stroke-miterlimit:4;" d="M 1.59183 -7.002913 C 1.62308 -7.338851 1.865268 -7.582992 2.169955 -7.582992 C 2.371127 -7.582992 2.556674 -7.47557 2.66019 -7.305648 C 2.763705 -7.477523 2.94144 -7.582992 3.140658 -7.582992 C 3.443393 -7.582992 3.687533 -7.338851 3.71683 -7.002913 C 3.720737 -6.987288 3.730502 -6.909163 3.699252 -6.78221 C 3.656283 -6.598617 3.552768 -6.430648 3.40433 -6.299788 L 2.662143 -5.637679 L 1.906283 -6.299788 C 1.757846 -6.430648 1.65433 -6.598617 1.611362 -6.78221 C 1.580112 -6.909163 1.589877 -6.987288 1.59183 -7.002913 Z M 1.69144 -6.801742 C 1.730502 -6.633773 1.824252 -6.479476 1.960971 -6.358382 L 2.66019 -5.745101 L 3.349643 -6.358382 C 3.486362 -6.479476 3.580112 -6.633773 3.619174 -6.801742 C 3.648471 -6.920882 3.636752 -6.989242 3.636752 -6.989242 L 3.636752 -6.995101 C 3.609408 -7.28807 3.400424 -7.502913 3.140658 -7.502913 C 2.949252 -7.502913 2.77933 -7.387679 2.699252 -7.200179 L 2.662143 -7.112288 L 2.62308 -7.200179 C 2.544955 -7.383773 2.367221 -7.502913 2.169955 -7.502913 C 1.908237 -7.502913 1.701205 -7.28807 1.673862 -6.991195 C 1.673862 -6.989242 1.662143 -6.920882 1.69144 -6.801742 Z M 1.69144 -6.801742 " transform="matrix(2,0,0,2,16.949152,20.474577)"/>
<path style="fill-rule:evenodd;fill:rgb(90.196079%,0.784314%,70.588237%);fill-opacity:1;stroke-width:16.621611;stroke-linecap:butt;stroke-linejoin:miter;stroke:rgb(61.56863%,22.745098%,60.784316%);stroke-opacity:1;stroke-miterlimit:4;" d="M 90.928367 -0.0571292 C 88.33124 0.00779899 85.766577 0.851865 83.623948 2.442605 L 12.982102 54.125426 C 9.930479 56.332984 7.917705 59.968961 7.917705 63.994507 C 7.917705 68.020054 9.930479 71.656031 12.982102 73.896053 L 83.623948 125.578874 C 87.487174 128.403249 92.356786 128.792818 96.577117 126.942365 C 100.764984 125.124377 104.108785 120.806653 104.108785 115.709792 L 104.108785 12.279223 C 104.108785 8.708173 102.453116 5.396837 99.953382 3.156815 C 97.323791 0.819401 94.077383 -0.154521 90.928367 -0.0571292 Z M 42.394562 63.994507 L 42.394562 90.160559 L 41.875137 63.994507 Z M 42.394562 63.994507 " transform="matrix(0,0.120325,-0.120325,0,27.192345,2.0473)"/>
<use xlink:href="#surface5" mask="url(#mask0)"/>
</g>
</svg>
