<?xml version="1.0" encoding="UTF-8"?>
<svg xmlns="http://www.w3.org/2000/svg" xmlns:xlink="http://www.w3.org/1999/xlink" width="32px" height="32px" viewBox="0 0 32 32" version="1.1">
<g id="surface1">
<path style=" stroke:none;fill-rule:nonzero;fill:rgb(90.196079%,0.784314%,70.588237%);fill-opacity:1;" d="M 6 2 L 26 2 C 27.105469 2 28 2.894531 28 4 L 28 28 C 28 29.105469 27.105469 30 26 30 L 6 30 C 4.894531 30 4 29.105469 4 28 L 4 4 C 4 2.894531 4.894531 2 6 2 Z M 6 2 "/>
<path style=" stroke:none;fill-rule:nonzero;fill:rgb(94.117647%,89.019608%,92.54902%);fill-opacity:1;" d="M 8 4 L 24 4 C 25.105469 4 26 4.894531 26 6 L 26 26 C 26 27.105469 25.105469 28 24 28 L 8 28 C 6.894531 28 6 27.105469 6 26 L 6 6 C 6 4.894531 6.894531 4 8 4 Z M 8 4 "/>
<path style=" stroke:none;fill-rule:nonzero;fill:rgb(90.196079%,0.784314%,70.588237%);fill-opacity:1;" d="M 9 10 L 23 10 C 23.550781 10 24 10.449219 24 11 C 24 11.550781 23.550781 12 23 12 L 9 12 C 8.449219 12 8 11.550781 8 11 C 8 10.449219 8.449219 10 9 10 Z M 9 10 "/>
<path style="fill-rule:nonzero;fill:rgb(61.56863%,22.745098%,60.784316%);fill-opacity:1;stroke-width:0.25;stroke-linecap:butt;stroke-linejoin:miter;stroke:rgb(61.56863%,22.745098%,60.784316%);stroke-opacity:1;stroke-miterlimit:4;" d="M -10.203953 3.845107 C -10.172703 3.50917 -9.930515 3.265029 -9.627781 3.265029 C -9.424656 3.265029 -9.239109 3.370498 -9.135593 3.542373 C -9.032078 3.368545 -8.854343 3.265029 -8.655125 3.265029 C -8.35239 3.265029 -8.110203 3.50917 -8.078953 3.845107 C -8.077 3.858779 -8.067234 3.936904 -8.096531 4.06581 C -8.141453 4.249404 -8.243015 4.41542 -8.391453 4.548232 L -9.135593 5.210342 L -9.891453 4.548232 C -10.03989 4.41542 -10.141453 4.249404 -10.186375 4.06581 C -10.217625 3.936904 -10.205906 3.858779 -10.203953 3.845107 Z M -10.106297 4.046279 C -10.065281 4.214248 -9.971531 4.366592 -9.836765 4.487685 L -9.135593 5.100967 L -8.448093 4.489639 C -8.311375 4.366592 -8.217625 4.214248 -8.176609 4.046279 C -8.147312 3.925185 -8.159031 3.856826 -8.159031 3.856826 L -8.160984 3.85292 C -8.186375 3.557998 -8.395359 3.345107 -8.655125 3.345107 C -8.848484 3.345107 -9.016453 3.460342 -9.098484 3.647842 L -9.135593 3.735732 L -9.172703 3.647842 C -9.252781 3.464248 -9.430515 3.345107 -9.627781 3.345107 C -9.887547 3.345107 -10.096531 3.557998 -10.123875 3.856826 C -10.123875 3.856826 -10.135593 3.925185 -10.106297 4.046279 Z M -10.106297 4.046279 " transform="matrix(2,0,0,2,40.271187,-1.084746)"/>
<path style="fill-rule:nonzero;fill:rgb(90.196079%,0.784314%,70.588237%);fill-opacity:1;stroke-width:1;stroke-linecap:round;stroke-linejoin:round;stroke:rgb(50.588238%,0%,49.803922%);stroke-opacity:1;stroke-miterlimit:4;" d="M 6.349609 -14.515625 L 12.595703 -14.515625 C 13.099609 -14.515625 13.509766 -14.107422 13.509766 -13.603516 L 13.509766 -12.527344 C 13.509766 -12.023438 13.099609 -11.613281 12.595703 -11.613281 L 6.349609 -11.613281 C 5.845703 -11.613281 5.435547 -12.023438 5.435547 -12.527344 L 5.435547 -13.603516 C 5.435547 -14.107422 5.845703 -14.515625 6.349609 -14.515625 Z M 6.349609 -14.515625 " transform="matrix(2,0,0,-2,0,0)"/>
<path style="fill-rule:evenodd;fill:rgb(90.196079%,0.784314%,70.588237%);fill-opacity:1;stroke-width:1;stroke-linecap:round;stroke-linejoin:round;stroke:rgb(50.980395%,0.392157%,49.803922%);stroke-opacity:1;stroke-miterlimit:4;" d="M 12.523438 1.517578 L 6.193359 1.517578 L 8.597656 4.816406 L 6.193359 4.816406 L 9.357422 9.160156 L 12.523438 4.816406 L 10.119141 4.816406 Z M 12.523438 1.517578 " transform="matrix(2,0,0,2,0,0)"/>
</g>
</svg>
