<?xml version="1.0" encoding="UTF-8"?>
<svg xmlns="http://www.w3.org/2000/svg" xmlns:xlink="http://www.w3.org/1999/xlink" width="32px" height="32px" viewBox="0 0 32 32" version="1.1">
<g id="surface1">
<path style="fill-rule:nonzero;fill:rgb(94.117647%,89.019608%,92.54902%);fill-opacity:1;stroke-width:1;stroke-linecap:butt;stroke-linejoin:miter;stroke:rgb(90.196079%,0.784314%,70.588237%);stroke-opacity:1;stroke-miterlimit:4;" d="M 2.46875 1.537109 C 1.935547 1.537109 1.505859 1.947266 1.505859 2.455078 L 1.505859 10.017578 C 1.505859 10.527344 1.935547 10.929688 2.46875 10.9375 L 8.076172 10.931641 L 12.035156 10.925781 C 12.568359 10.925781 12.998047 10.515625 12.998047 10.005859 L 12.998047 2.443359 C 12.998047 1.935547 12.568359 1.523438 12.035156 1.523438 L 11.357422 1.519531 L 11.357422 2.064453 C 11.357422 2.197266 11.246094 2.302734 11.107422 2.302734 L 9.964844 2.302734 C 9.826172 2.302734 9.714844 2.197266 9.714844 2.064453 L 9.714844 1.519531 Z M 2.46875 1.537109 " transform="matrix(2,0,0,2,0,0)"/>
<path style="fill-rule:nonzero;fill:rgb(95.294118%,71.764708%,85.09804%);fill-opacity:1;stroke-width:0.5;stroke-linecap:butt;stroke-linejoin:miter;stroke:rgb(61.56863%,22.745098%,60.784316%);stroke-opacity:1;stroke-miterlimit:4;" d="M 3.154297 3.324219 L 11.322266 3.324219 C 11.505859 3.324219 11.652344 3.472656 11.652344 3.654297 L 11.652344 8.759766 C 11.652344 8.941406 11.505859 9.087891 11.322266 9.087891 L 3.154297 9.087891 C 2.972656 9.087891 2.824219 8.941406 2.824219 8.759766 L 2.824219 3.654297 C 2.824219 3.472656 2.972656 3.324219 3.154297 3.324219 Z M 3.154297 3.324219 " transform="matrix(2,0,0,2,0,0)"/>
<path style="fill-rule:nonzero;fill:rgb(94.117647%,89.019608%,92.54902%);fill-opacity:1;stroke-width:1;stroke-linecap:butt;stroke-linejoin:miter;stroke:rgb(90.196079%,0.784314%,70.588237%);stroke-opacity:1;stroke-miterlimit:4;" d="M 4.007812 5.5 C 3.476562 5.5 3.048828 5.892578 3.048828 6.380859 L 3.048828 13.636719 C 3.048828 14.125 3.476562 14.509766 4.007812 14.517578 L 9.591797 14.511719 L 13.535156 14.505859 C 14.066406 14.505859 14.494141 14.113281 14.494141 13.625 L 14.494141 6.369141 C 14.494141 5.880859 14.066406 5.488281 13.535156 5.488281 L 12.861328 5.484375 L 12.861328 6.005859 C 12.861328 6.132812 12.75 6.234375 12.611328 6.234375 L 11.474609 6.234375 C 11.335938 6.234375 11.224609 6.132812 11.224609 6.005859 L 11.224609 5.484375 Z M 4.007812 5.5 " transform="matrix(2,0,0,2,0,0)"/>
<path style="fill-rule:nonzero;fill:rgb(95.294118%,71.764708%,85.09804%);fill-opacity:1;stroke-width:0.5;stroke-linecap:butt;stroke-linejoin:miter;stroke:rgb(61.56863%,22.745098%,60.784316%);stroke-opacity:1;stroke-miterlimit:4;" d="M 4.582031 7.304688 L 12.751953 7.304688 C 12.933594 7.304688 13.080078 7.451172 13.080078 7.632812 L 13.080078 12.738281 C 13.080078 12.919922 12.933594 13.068359 12.751953 13.068359 L 4.582031 13.068359 C 4.400391 13.068359 4.253906 12.919922 4.253906 12.738281 L 4.253906 7.632812 C 4.253906 7.451172 4.400391 7.304688 4.582031 7.304688 Z M 4.582031 7.304688 " transform="matrix(2,0,0,2,0,0)"/>
<path style="fill-rule:nonzero;fill:rgb(95.294118%,71.764708%,85.09804%);fill-opacity:1;stroke-width:1;stroke-linecap:round;stroke-linejoin:round;stroke:rgb(61.56863%,22.745098%,60.784316%);stroke-opacity:1;stroke-miterlimit:4;" d="M 4.838106 1.482806 L 10.549043 1.482806 C 11.04709 1.482806 11.451387 1.887103 11.451387 2.38515 L 11.451387 3.44765 C 11.451387 3.945697 11.04709 4.349994 10.549043 4.349994 L 4.838106 4.349994 C 4.340059 4.349994 3.935762 3.945697 3.935762 3.44765 L 3.935762 2.38515 C 3.935762 1.887103 4.340059 1.482806 4.838106 1.482806 Z M 4.838106 1.482806 " transform="matrix(2,0,0,-2,4.026913,31.821081)"/>
<path style="fill-rule:evenodd;fill:rgb(95.294118%,71.764708%,85.09804%);fill-opacity:1;stroke-width:1;stroke-linecap:round;stroke-linejoin:round;stroke:rgb(61.56863%,22.745098%,60.784316%);stroke-opacity:1;stroke-miterlimit:4;" d="M 11.443575 13.004291 L 5.01584 13.004291 L 7.457247 9.781634 L 5.01584 9.781634 L 8.230684 5.5414 L 11.443575 9.781634 L 9.002168 9.781634 Z M 11.443575 13.004291 " transform="matrix(2,0,0,-2,4.026913,31.821081)"/>
</g>
</svg>
