<?xml version="1.0" encoding="UTF-8"?>
<svg xmlns="http://www.w3.org/2000/svg" xmlns:xlink="http://www.w3.org/1999/xlink" width="32px" height="32px" viewBox="0 0 32 32" version="1.1">
<g id="surface1">
<path style="fill-rule:evenodd;fill:rgb(94.117647%,89.019608%,92.54902%);fill-opacity:1;stroke-width:0.264583;stroke-linecap:round;stroke-linejoin:round;stroke:rgb(61.56863%,22.745098%,60.784316%);stroke-opacity:1;stroke-miterlimit:4;" d="M 2.513542 2.116667 C 2.513542 2.335775 2.335775 2.513542 2.116667 2.513542 C 1.897558 2.513542 1.719792 2.335775 1.719792 2.116667 C 1.719792 1.897559 1.897558 1.719792 2.116667 1.719792 C 2.335775 1.719792 2.513542 1.897559 2.513542 2.116667 Z M 2.513542 2.116667 " transform="matrix(7.559055,0,0,7.559055,0.00000180222,0)"/>
<path style="fill:none;stroke-width:0.264583;stroke-linecap:round;stroke-linejoin:miter;stroke:rgb(90.196079%,0.784314%,70.588237%);stroke-opacity:1;stroke-miterlimit:4;" d="M 2.116667 1.190625 L 2.116667 0.529167 " transform="matrix(7.559055,0,0,7.559055,0.00000180222,0)"/>
<path style="fill:none;stroke-width:0.264583;stroke-linecap:round;stroke-linejoin:miter;stroke:rgb(90.196079%,0.784314%,70.588237%);stroke-opacity:1;stroke-miterlimit:4;" d="M 1.5875 0.79375 L 2.116667 0.396875 L 2.645833 0.79375 " transform="matrix(7.559055,0,0,7.559055,0.00000180222,0)"/>
<path style="fill:none;stroke-width:0.270459;stroke-linecap:round;stroke-linejoin:miter;stroke:rgb(90.196079%,0.784314%,70.588237%);stroke-opacity:1;stroke-miterlimit:4;" d="M 2.116596 1.190867 L 2.116596 0.529108 " transform="matrix(0,7.513357,-7.278182,0,31.643912,0.120697)"/>
<path style="fill:none;stroke-width:0.270459;stroke-linecap:round;stroke-linejoin:miter;stroke:rgb(90.196079%,0.784314%,70.588237%);stroke-opacity:1;stroke-miterlimit:4;" d="M 1.58733 0.793704 L 2.116596 0.397078 L 2.645862 0.793704 " transform="matrix(0,7.513357,-7.278182,0,31.643912,0.120697)"/>
<path style="fill:none;stroke-width:0.270459;stroke-linecap:round;stroke-linejoin:miter;stroke:rgb(90.196079%,0.784314%,70.588237%);stroke-opacity:1;stroke-miterlimit:4;" d="M 2.116553 1.190375 L 2.116553 0.529152 " transform="matrix(-7.513357,0,0,-7.278182,31.894604,31.62861)"/>
<path style="fill:none;stroke-width:0.270459;stroke-linecap:round;stroke-linejoin:miter;stroke:rgb(90.196079%,0.784314%,70.588237%);stroke-opacity:1;stroke-miterlimit:4;" d="M 1.587287 0.793749 L 2.116553 0.397122 L 2.645819 0.793749 " transform="matrix(-7.513357,0,0,-7.278182,31.894604,31.62861)"/>
<path style="fill:none;stroke-width:0.270459;stroke-linecap:round;stroke-linejoin:miter;stroke:rgb(90.196079%,0.784314%,70.588237%);stroke-opacity:1;stroke-miterlimit:4;" d="M 2.116879 1.190566 L 2.116879 0.529343 " transform="matrix(0,-7.513357,7.278182,0,0.338751,31.97518)"/>
<path style="fill:none;stroke-width:0.270459;stroke-linecap:round;stroke-linejoin:miter;stroke:rgb(90.196079%,0.784314%,70.588237%);stroke-opacity:1;stroke-miterlimit:4;" d="M 1.587613 0.79394 L 2.116879 0.396777 L 2.645625 0.79394 " transform="matrix(0,-7.513357,7.278182,0,0.338751,31.97518)"/>
</g>
</svg>
