<?xml version="1.0" encoding="UTF-8"?>
<svg xmlns="http://www.w3.org/2000/svg" xmlns:xlink="http://www.w3.org/1999/xlink" width="32px" height="32px" viewBox="0 0 32 32" version="1.1">
<g id="surface1">
<path style=" stroke:none;fill-rule:nonzero;fill:rgb(90.196079%,0.784314%,70.588237%);fill-opacity:1;" d="M 6.066406 2 L 26.066406 2 C 27.171875 2 28.066406 2.894531 28.066406 4 L 28.066406 28 C 28.066406 29.105469 27.171875 30 26.066406 30 L 6.066406 30 C 4.964844 30 4.066406 29.105469 4.066406 28 L 4.066406 4 C 4.066406 2.894531 4.964844 2 6.066406 2 Z M 6.066406 2 "/>
<path style=" stroke:none;fill-rule:nonzero;fill:rgb(94.117647%,89.019608%,92.54902%);fill-opacity:1;" d="M 8.066406 4 L 24.066406 4 C 25.171875 4 26.066406 4.894531 26.066406 6 L 26.066406 26 C 26.066406 27.105469 25.171875 28 24.066406 28 L 8.066406 28 C 6.964844 28 6.066406 27.105469 6.066406 26 L 6.066406 6 C 6.066406 4.894531 6.964844 4 8.066406 4 Z M 8.066406 4 "/>
<path style=" stroke:none;fill-rule:nonzero;fill:rgb(90.196079%,0.784314%,70.588237%);fill-opacity:1;" d="M 9.066406 10 L 23.066406 10 C 23.621094 10 24.066406 10.449219 24.066406 11 C 24.066406 11.550781 23.621094 12 23.066406 12 L 9.066406 12 C 8.515625 12 8.066406 11.550781 8.066406 11 C 8.066406 10.449219 8.515625 10 9.066406 10 Z M 9.066406 10 "/>
<path style="fill-rule:nonzero;fill:rgb(61.56863%,22.745098%,60.784316%);fill-opacity:1;stroke-width:0.25;stroke-linecap:butt;stroke-linejoin:miter;stroke:rgb(61.56863%,22.745098%,60.784316%);stroke-opacity:1;stroke-miterlimit:4;" d="M 9.964844 3.201039 C 9.996094 2.865102 10.238281 2.620961 10.542969 2.620961 C 10.744141 2.620961 10.929688 2.72643 11.033203 2.898305 C 11.136719 2.724477 11.314453 2.620961 11.513672 2.620961 C 11.816406 2.620961 12.058594 2.865102 12.089844 3.201039 C 12.09375 3.214711 12.103516 3.292836 12.072266 3.421742 C 12.027344 3.605336 11.925781 3.771352 11.777344 3.904164 L 11.035156 4.566274 L 10.279297 3.904164 C 10.128906 3.771352 10.027344 3.605336 9.984375 3.421742 C 9.953125 3.292836 9.962891 3.214711 9.964844 3.201039 Z M 10.0625 3.402211 C 10.103516 3.57018 10.197266 3.722524 10.333984 3.843617 L 11.033203 4.456899 L 11.722656 3.845571 C 11.859375 3.722524 11.953125 3.57018 11.992188 3.402211 C 12.021484 3.281117 12.009766 3.212758 12.009766 3.212758 L 12.009766 3.208852 C 11.982422 2.91393 11.773438 2.701039 11.513672 2.701039 C 11.322266 2.701039 11.152344 2.816274 11.072266 3.003774 L 11.033203 3.091664 L 10.996094 3.003774 C 10.917969 2.82018 10.738281 2.701039 10.542969 2.701039 C 10.28125 2.701039 10.074219 2.91393 10.046875 3.212758 C 10.046875 3.212758 10.035156 3.281117 10.0625 3.402211 Z M 10.0625 3.402211 " transform="matrix(2,0,0,2,0,0.20339)"/>
<path style="fill-rule:nonzero;fill:rgb(95.294118%,71.764708%,85.09804%);fill-opacity:1;stroke-width:1;stroke-linecap:round;stroke-linejoin:round;stroke:rgb(50.588238%,0%,49.803922%);stroke-opacity:1;stroke-miterlimit:4;" d="M 6.574219 1.521484 L 12.640625 1.521484 C 13.130859 1.521484 13.527344 1.923828 13.527344 2.419922 L 13.527344 3.478516 C 13.527344 3.974609 13.130859 4.376953 12.640625 4.376953 L 6.574219 4.376953 C 6.083984 4.376953 5.6875 3.974609 5.6875 3.478516 L 5.6875 2.419922 C 5.6875 1.923828 6.083984 1.521484 6.574219 1.521484 Z M 6.574219 1.521484 " transform="matrix(2,0,0,2,0,0)"/>
<path style="fill-rule:evenodd;fill:rgb(95.294118%,71.764708%,85.09804%);fill-opacity:1;stroke-width:1;stroke-linecap:round;stroke-linejoin:round;stroke:rgb(50.980395%,0.392157%,49.803922%);stroke-opacity:1;stroke-miterlimit:4;" d="M 13.523438 14.470703 L 7.373047 14.470703 L 9.710938 11.224609 L 7.373047 11.224609 L 10.449219 6.951172 L 13.523438 11.224609 L 11.1875 11.224609 Z M 13.523438 14.470703 " transform="matrix(2,0,0,2,0,0)"/>
</g>
</svg>
