<?xml version="1.0" encoding="UTF-8"?>
<svg xmlns="http://www.w3.org/2000/svg" xmlns:xlink="http://www.w3.org/1999/xlink" width="32px" height="32px" viewBox="0 0 32 32" version="1.1">
<g id="surface1">
<path style=" stroke:none;fill-rule:nonzero;fill:rgb(33.333334%,34.117648%,32.549021%);fill-opacity:1;" d="M 2 6 C 0.890625 6 0 6.890625 0 8 L 0 26 C 0 27.109375 0.890625 28 2 28 L 30 28 C 31.109375 28 32 27.109375 32 26 L 32 8 C 32 6.890625 31.109375 6 30 6 Z M 18 10 L 20 10 L 20 14 L 24 14 C 26.210938 14 28 16.199219 28 19 C 28 21.761719 26.199219 24.027344 24 24 L 18 24 Z M 6 14 L 12 14 C 13.105469 14 14 14.894531 14 16 L 14 24 L 7 24 C 5.34375 24 4 22.65625 4 21 C 4 19.34375 5.34375 18 7 18 L 12 18 L 12 16 L 6 16 Z M 20 16 L 20 22 L 24 22 C 25.105469 22 26 20.65625 26 19 C 26 17.34375 25.105469 16 24 16 Z M 7 20 C 6.449219 20 6 20.449219 6 21 C 6 21.550781 6.449219 22 7 22 L 12 22 L 12 20 Z M 7 20 "/>
</g>
</svg>
