<?xml version="1.0" encoding="UTF-8"?>
<svg xmlns="http://www.w3.org/2000/svg" xmlns:xlink="http://www.w3.org/1999/xlink" width="32px" height="32px" viewBox="0 0 32 32" version="1.1">
<defs>
<radialGradient id="radial0" gradientUnits="userSpaceOnUse" cx="67.73333" cy="277.950104" fx="67.73333" fy="277.950104" r="7.574691" gradientTransform="matrix(-0.847619,0,0,-0.847619,69.731761,254.194958)">
<stop offset="0" style="stop-color:rgb(74.901962%,74.901962%,74.901962%);stop-opacity:1;"/>
<stop offset="1" style="stop-color:rgb(87.450981%,87.450981%,87.450981%);stop-opacity:0;"/>
</radialGradient>
</defs>
<g id="surface1">
<path style=" stroke:none;fill-rule:nonzero;fill:rgb(90.196079%,0.784314%,70.588237%);fill-opacity:1;" d="M 30.976562 16 C 30.976562 24.273438 24.273438 30.976562 16 30.976562 C 7.726562 30.976562 1.023438 24.273438 1.023438 16 C 1.023438 7.726562 7.726562 1.023438 16 1.023438 C 24.273438 1.023438 30.976562 7.726562 30.976562 16 Z M 30.976562 16 "/>
<path style=" stroke:none;fill-rule:nonzero;fill:rgb(94.117647%,89.019608%,92.54902%);fill-opacity:1;" d="M 27.640625 16 C 27.640625 22.429688 22.429688 27.640625 16 27.640625 C 9.570312 27.640625 4.359375 22.429688 4.359375 16 C 4.359375 9.570312 9.570312 4.359375 16 4.359375 C 22.429688 4.359375 27.640625 9.570312 27.640625 16 Z M 27.640625 16 "/>
<path style=" stroke:none;fill-rule:nonzero;fill:rgb(61.56863%,22.745098%,60.784316%);fill-opacity:1;" d="M 26.546875 16 C 26.546875 21.824219 21.824219 26.546875 16 26.546875 C 10.175781 26.546875 5.453125 21.824219 5.453125 16 C 5.453125 10.175781 10.175781 5.453125 16 5.453125 C 21.824219 5.453125 26.546875 10.175781 26.546875 16 Z M 26.546875 16 "/>
<path style=" stroke:none;fill-rule:nonzero;fill:rgb(94.117647%,89.019608%,92.54902%);fill-opacity:1;" d="M 25.867188 16 C 25.867188 21.449219 21.449219 25.867188 16 25.867188 C 10.550781 25.867188 6.132812 21.449219 6.132812 16 C 6.132812 10.550781 10.550781 6.132812 16 6.132812 C 21.449219 6.132812 25.867188 10.550781 25.867188 16 Z M 25.867188 16 "/>
<path style=" stroke:none;fill-rule:nonzero;fill:rgb(61.56863%,22.745098%,60.784316%);fill-opacity:1;" d="M 25.160156 16 C 25.160156 21.058594 21.058594 25.160156 16 25.160156 C 10.941406 25.160156 6.839844 21.058594 6.839844 16 C 6.839844 10.941406 10.941406 6.839844 16 6.839844 C 21.058594 6.839844 25.160156 10.941406 25.160156 16 Z M 25.160156 16 "/>
<path style=" stroke:none;fill-rule:nonzero;fill:rgb(94.117647%,89.019608%,92.54902%);fill-opacity:1;" d="M 21.050781 23.4375 L 19.828125 19.410156 C 21.027344 17.992188 21.371094 16.042969 20.730469 14.300781 L 23.253906 10.9375 L 19.230469 12.167969 C 17.816406 10.96875 15.863281 10.621094 14.125 11.265625 L 10.617188 8.539062 L 11.988281 12.761719 C 10.789062 14.179688 10.445312 16.128906 11.085938 17.871094 L 8.554688 21.226562 L 12.585938 20.003906 C 14 21.203125 15.953125 21.550781 17.695312 20.90625 Z M 17.941406 18.988281 C 16.335938 20.109375 14.128906 19.71875 13.007812 18.117188 C 11.882812 16.515625 12.273438 14.308594 13.875 13.183594 C 15.480469 12.0625 17.6875 12.453125 18.808594 14.054688 C 19.933594 15.65625 19.542969 17.867188 17.941406 18.988281 Z M 17.941406 18.988281 "/>
<path style=" stroke:none;fill-rule:nonzero;fill:rgb(94.117647%,89.019608%,92.54902%);fill-opacity:1;" d="M 18.679688 13.269531 C 17.175781 11.765625 14.738281 11.765625 13.234375 13.269531 C 11.730469 14.773438 11.730469 17.210938 13.234375 18.714844 C 14.738281 20.21875 17.175781 20.21875 18.679688 18.714844 C 20.183594 17.210938 20.183594 14.773438 18.679688 13.269531 Z M 18.460938 13.488281 C 19.84375 14.871094 19.84375 17.113281 18.460938 18.496094 C 17.078125 19.878906 14.835938 19.878906 13.453125 18.496094 C 12.070312 17.113281 12.070312 14.871094 13.453125 13.488281 C 14.835938 12.101562 17.078125 12.101562 18.460938 13.488281 Z M 18.460938 13.488281 "/>
<path style=" stroke:none;fill-rule:nonzero;fill:url(#radial0);" d="M 5.636719 26.59375 L 18.476562 17.871094 L 16.511719 15.902344 Z M 5.636719 26.59375 "/>
<path style=" stroke:none;fill-rule:nonzero;fill:rgb(95.294118%,71.764708%,85.09804%);fill-opacity:1;" d="M 1.28125 30.511719 L 13.179688 13.003906 L 18.792969 18.613281 Z M 1.28125 30.511719 "/>
<path style=" stroke:none;fill-rule:nonzero;fill:rgb(61.56863%,22.745098%,60.784316%);fill-opacity:1;" d="M 30.691406 1.105469 L 13.179688 13.003906 L 18.792969 18.613281 Z M 30.691406 1.105469 "/>
<path style=" stroke:none;fill-rule:nonzero;fill:rgb(61.56863%,22.745098%,60.784316%);fill-opacity:1;" d="M 19.335938 15.808594 C 19.335938 17.660156 17.835938 19.15625 15.984375 19.15625 C 14.136719 19.15625 12.636719 17.660156 12.636719 15.808594 C 12.636719 13.960938 14.136719 12.460938 15.984375 12.460938 C 17.835938 12.460938 19.335938 13.960938 19.335938 15.808594 Z M 19.335938 15.808594 "/>
<path style=" stroke:none;fill-rule:nonzero;fill:rgb(95.294118%,71.764708%,85.09804%);fill-opacity:1;" d="M 19.113281 15.808594 C 19.113281 17.535156 17.714844 18.9375 15.984375 18.9375 C 14.257812 18.9375 12.859375 17.535156 12.859375 15.808594 C 12.859375 14.082031 14.257812 12.683594 15.984375 12.683594 C 17.714844 12.683594 19.113281 14.082031 19.113281 15.808594 Z M 19.113281 15.808594 "/>
<path style=" stroke:none;fill-rule:nonzero;fill:rgb(61.56863%,22.745098%,60.784316%);fill-opacity:1;" d="M 17.53125 15.808594 C 17.53125 16.664062 16.839844 17.355469 15.984375 17.355469 C 15.132812 17.355469 14.441406 16.664062 14.441406 15.808594 C 14.441406 14.957031 15.132812 14.265625 15.984375 14.265625 C 16.839844 14.265625 17.53125 14.957031 17.53125 15.808594 Z M 17.53125 15.808594 "/>
</g>
</svg>
