<?xml version="1.0" encoding="UTF-8"?>
<svg xmlns="http://www.w3.org/2000/svg" xmlns:xlink="http://www.w3.org/1999/xlink" width="32px" height="32px" viewBox="0 0 32 32" version="1.1">
<g id="surface1">
<path style=" stroke:none;fill-rule:nonzero;fill:rgb(33.333334%,34.117648%,32.549021%);fill-opacity:1;" d="M 20 4 C 17.800781 4 16 5.800781 16 8 L 16 24 C 16 26.199219 17.800781 28 20 28 L 26 28 C 28.199219 28 30 26.199219 30 24 L 30 8 C 30 5.800781 28.199219 4 26 4 Z M 6 6 L 6 10 L 2 10 L 2 14 L 6 14 L 6 18 L 10 18 L 10 14 L 14 14 L 14 10 L 10 10 L 10 6 Z M 20 8 L 26 8 L 26 24 L 20 24 Z M 2 22 L 2 26 L 14 26 L 14 22 Z M 2 22 "/>
</g>
</svg>
