<?xml version="1.0" encoding="UTF-8"?>
<svg xmlns="http://www.w3.org/2000/svg" xmlns:xlink="http://www.w3.org/1999/xlink" width="32px" height="32px" viewBox="0 0 32 32" version="1.1">
<g id="surface1">
<path style="fill-rule:evenodd;fill:rgb(94.117647%,89.019608%,92.54902%);fill-opacity:1;stroke-width:1.625429;stroke-linecap:round;stroke-linejoin:round;stroke:rgb(90.196079%,0.784314%,70.588237%);stroke-opacity:1;stroke-miterlimit:4;" d="M 3.146989 -5.488108 L 18.807836 -5.488108 C 19.706279 -5.488108 20.433288 -4.76112 20.433288 -3.862702 L 20.433288 12.835798 C 20.433288 13.734215 19.706279 14.461203 18.807836 14.461203 L 3.146989 14.461203 C 2.248546 14.461203 1.521537 13.734215 1.521537 12.835798 L 1.521537 -3.862702 C 1.521537 -4.76112 2.248546 -5.488108 3.146989 -5.488108 Z M 3.146989 -5.488108 " transform="matrix(1.230427,0,0,1.230462,1.170828,11.12791)"/>
<path style="fill-rule:nonzero;fill:rgb(61.56863%,22.745098%,60.784316%);fill-opacity:1;stroke-width:0.406357;stroke-linecap:butt;stroke-linejoin:miter;stroke:rgb(61.56863%,22.745098%,60.784316%);stroke-opacity:1;stroke-miterlimit:4;" d="M 5.204202 -1.218244 C 5.261346 -1.853168 5.712155 -2.316663 6.274079 -2.316663 C 6.648695 -2.316663 6.991564 -2.113487 7.185221 -1.789676 C 7.375704 -2.116661 7.705873 -2.316663 8.07414 -2.316663 C 8.639238 -2.316663 9.086873 -1.853168 9.147192 -1.218244 C 9.150367 -1.189672 9.169415 -1.040465 9.11227 -0.799194 C 9.029728 -0.453161 8.839245 -0.135699 8.563045 0.115096 L 7.185221 1.365896 L 5.785174 0.115096 C 5.508974 -0.135699 5.318491 -0.453161 5.235949 -0.799194 C 5.178804 -1.040465 5.197852 -1.189672 5.204202 -1.218244 Z M 5.38516 -0.834115 C 5.458178 -0.516653 5.632787 -0.227763 5.886764 0.000809931 L 7.185221 1.162721 L 8.461455 0.000809931 C 8.715431 -0.227763 8.89004 -0.516653 8.963059 -0.834115 C 9.017029 -1.062688 8.994806 -1.192847 8.994806 -1.192847 L 8.994806 -1.202371 C 8.944011 -1.757929 8.559871 -2.164281 8.07414 -2.164281 C 7.718572 -2.164281 7.404276 -1.945232 7.255065 -1.589675 L 7.185221 -1.424594 L 7.115377 -1.589675 C 6.969341 -1.938883 6.639171 -2.164281 6.274079 -2.164281 C 5.791523 -2.164281 5.404208 -1.757929 5.353413 -1.192847 C 5.353413 -1.192847 5.33119 -1.062688 5.38516 -0.834115 Z M 5.38516 -0.834115 " transform="matrix(1.230427,0,0,1.230462,1.170828,11.12791)"/>
<path style="fill:none;stroke-width:1.625429;stroke-linecap:round;stroke-linejoin:miter;stroke:rgb(90.196079%,0.784314%,70.588237%);stroke-opacity:1;stroke-miterlimit:4;" d="M 5.27087 3.099239 L 16.791895 3.099239 " transform="matrix(1.230427,0,0,1.230462,1.170828,11.12791)"/>
<path style="fill-rule:nonzero;fill:rgb(94.117647%,89.019608%,92.54902%);fill-opacity:1;stroke-width:1.625431;stroke-linecap:butt;stroke-linejoin:miter;stroke:rgb(90.196079%,0.784314%,70.588237%);stroke-opacity:1;stroke-miterlimit:4;" d="M -11.238764 -3.426751 C -11.23821 -0.384263 -13.691534 2.083147 -16.72347 2.085135 C -19.751522 2.084883 -22.206843 -0.383009 -22.207397 -3.425496 C -22.207951 -6.467983 -19.75156 -8.934568 -16.723509 -8.934316 C -13.69464 -8.93713 -11.23625 -6.468412 -11.238764 -3.426751 Z M -11.238764 -3.426751 " transform="matrix(-1.188083,0.320024,-0.316907,-1.18895,1.170828,11.12791)"/>
<path style="fill:none;stroke-width:1.625429;stroke-linecap:round;stroke-linejoin:miter;stroke:rgb(90.196079%,0.784314%,70.588237%);stroke-opacity:1;stroke-miterlimit:4;" d="M 5.235949 5.988143 L 16.760148 5.988143 " transform="matrix(1.230427,0,0,1.230462,1.170828,11.12791)"/>
<path style="fill:none;stroke-width:1.625429;stroke-linecap:round;stroke-linejoin:miter;stroke:rgb(90.196079%,0.784314%,70.588237%);stroke-opacity:1;stroke-miterlimit:4;" d="M 5.321666 8.829428 L 16.845865 8.829428 " transform="matrix(1.230427,0,0,1.230462,1.170828,11.12791)"/>
<path style="fill:none;stroke-width:1.625429;stroke-linecap:round;stroke-linejoin:miter;stroke:rgb(90.196079%,0.784314%,70.588237%);stroke-opacity:1;stroke-miterlimit:4;" d="M 13.492848 7.167115 L 20.493085 7.167115 " transform="matrix(1.230427,0,0,1.230462,1.21444,1.028791)"/>
<path style="fill:none;stroke-width:1.625429;stroke-linecap:round;stroke-linejoin:miter;stroke:rgb(90.196079%,0.784314%,70.588237%);stroke-opacity:1;stroke-miterlimit:4;" d="M 16.994554 10.668721 L 16.994554 3.668684 " transform="matrix(1.230427,0,0,1.230462,1.21444,1.028791)"/>
</g>
</svg>
