<?xml version="1.0" encoding="UTF-8"?>
<svg xmlns="http://www.w3.org/2000/svg" xmlns:xlink="http://www.w3.org/1999/xlink" width="32px" height="32px" viewBox="0 0 32 32" version="1.1">
<g id="surface1">
<path style="fill-rule:evenodd;fill:rgb(95.294118%,71.764708%,85.09804%);fill-opacity:0.950495;stroke-width:1;stroke-linecap:round;stroke-linejoin:round;stroke:rgb(90.196079%,0.784314%,70.588237%);stroke-opacity:1;stroke-miterlimit:4;" d="M 4 1.5 L 12 1.5 C 12.828125 1.5 13.5 2.171875 13.5 3 L 13.5 13 C 13.5 13.828125 12.828125 14.5 12 14.5 L 4 14.5 C 3.171875 14.5 2.5 13.828125 2.5 13 L 2.5 3 C 2.5 2.171875 3.171875 1.5 4 1.5 Z M 4 1.5 " transform="matrix(2,0,0,2,0,0)"/>
<path style=" stroke:none;fill-rule:nonzero;fill:rgb(90.196079%,0.784314%,70.588237%);fill-opacity:1;" d="M 6 8 L 8 8 L 8 10 L 6 10 Z M 6 8 "/>
<path style=" stroke:none;fill-rule:nonzero;fill:rgb(90.196079%,0.784314%,70.588237%);fill-opacity:1;" d="M 6 12 L 8 12 L 8 14 L 6 14 Z M 6 12 "/>
<path style=" stroke:none;fill-rule:nonzero;fill:rgb(90.196079%,0.784314%,70.588237%);fill-opacity:1;" d="M 6 16 L 8 16 L 8 18 L 6 18 Z M 6 16 "/>
<path style=" stroke:none;fill-rule:nonzero;fill:rgb(90.196079%,0.784314%,70.588237%);fill-opacity:1;" d="M 6 20 L 8 20 L 8 22 L 6 22 Z M 6 20 "/>
<path style=" stroke:none;fill-rule:nonzero;fill:rgb(90.196079%,0.784314%,70.588237%);fill-opacity:1;" d="M 6 24 L 8 24 L 8 26 L 6 26 Z M 6 24 "/>
<path style="fill-rule:nonzero;fill:rgb(94.117647%,89.019608%,92.54902%);fill-opacity:1;stroke-width:1.02575;stroke-linecap:round;stroke-linejoin:miter;stroke:rgb(61.56863%,22.745098%,60.784316%);stroke-opacity:1;stroke-miterlimit:4;" d="M 13.240418 10.83557 C 12.334874 12.467687 10.692072 13.664395 8.699339 13.926175 C 5.360311 14.364256 2.299089 12.013579 1.86368 8.674551 C 1.4256 5.335522 3.776276 2.276972 7.115304 1.838892 C 10.451661 1.400811 13.512883 3.751487 13.950963 7.090516 C 14.007059 7.51524 13.999045 9.999477 13.240418 10.83557 " transform="matrix(1.462345,0,0,1.462345,8.805906,8.994499)"/>
<path style="fill:none;stroke-width:1.02575;stroke-linecap:butt;stroke-linejoin:miter;stroke:rgb(61.56863%,22.745098%,60.784316%);stroke-opacity:1;stroke-miterlimit:4;" d="M 3.883125 3.47368 C 6.412773 6.206341 9.011872 9.077906 11.883437 12.47303 " transform="matrix(1.462345,0,0,1.462345,8.805906,8.994499)"/>
<path style="fill:none;stroke-width:1.02575;stroke-linecap:butt;stroke-linejoin:miter;stroke:rgb(61.56863%,22.745098%,60.784316%);stroke-opacity:1;stroke-miterlimit:4;" d="M 3.941891 3.422927 C 6.882908 0.473897 15.882258 8.973728 11.883437 12.47303 C 7.881945 15.975003 0.998204 6.371957 3.941891 3.422927 Z M 3.941891 3.422927 " transform="matrix(1.462345,0,0,1.462345,8.805906,8.994499)"/>
<path style="fill:none;stroke-width:1.02575;stroke-linecap:round;stroke-linejoin:miter;stroke:rgb(61.56863%,22.745098%,60.784316%);stroke-opacity:1;stroke-miterlimit:4;" d="M 2.892101 10.883652 C 3.394291 7.381679 6.893593 3.382859 11.894122 3.382859 " transform="matrix(1.462345,0,0,1.462345,8.805906,8.994499)"/>
<path style="fill:none;stroke-width:1.02575;stroke-linecap:round;stroke-linejoin:miter;stroke:rgb(61.56863%,22.745098%,60.784316%);stroke-opacity:1;stroke-miterlimit:4;" d="M 13.125556 4.790593 C 13.064117 8.669208 6.776059 12.857686 3.893809 12.382208 " transform="matrix(1.462345,0,0,1.462345,8.805906,8.994499)"/>
</g>
</svg>
