<?xml version="1.0" encoding="UTF-8"?>
<svg xmlns="http://www.w3.org/2000/svg" xmlns:xlink="http://www.w3.org/1999/xlink" width="32px" height="32px" viewBox="0 0 32 32" version="1.1">
<g id="surface1">
<path style="fill-rule:nonzero;fill:rgb(95.294118%,71.764708%,85.09804%);fill-opacity:1;stroke-width:0.264583;stroke-linecap:butt;stroke-linejoin:round;stroke:rgb(90.196079%,0.784314%,70.588237%);stroke-opacity:1;stroke-miterlimit:4;" d="M 0.398425 2.77089 L 0.398425 3.829224 L 1.192175 3.073714 Z M 0.398425 2.77089 " transform="matrix(7.559055,0,0,7.559055,0.00000180222,0)"/>
<path style="fill-rule:nonzero;fill:rgb(94.117647%,89.019608%,92.54902%);fill-opacity:1;stroke-width:0.264583;stroke-linecap:round;stroke-linejoin:round;stroke:rgb(90.196079%,0.784314%,70.588237%);stroke-opacity:1;stroke-miterlimit:4;" d="M -3.608048 0.654224 L -0.628385 0.654224 C -0.501261 0.654224 -0.398425 0.772046 -0.398425 0.91674 L -0.398425 2.995683 C -0.398425 3.140377 -0.501261 3.258199 -0.628385 3.258199 L -3.608048 3.258199 C -3.735173 3.258199 -3.838009 3.140377 -3.838009 2.995683 L -3.838009 0.91674 C -3.838009 0.772046 -3.735173 0.654224 -3.608048 0.654224 Z M -3.608048 0.654224 " transform="matrix(-7.559055,0,0,7.559055,0.00000180222,0)"/>
<path style=" stroke:none;fill-rule:evenodd;fill:rgb(61.56863%,22.745098%,60.784316%);fill-opacity:1;" d="M 20 0 C 20.375 0.0117188 20.75 0.132812 21.0625 0.363281 L 31.082031 7.695312 C 31.523438 8.019531 31.820312 8.542969 31.820312 9.132812 C 31.820312 9.71875 31.523438 10.246094 31.082031 10.566406 L 21.0625 17.898438 C 20.5 18.3125 19.792969 18.371094 19.179688 18.101562 C 18.574219 17.832031 18.085938 17.207031 18.085938 16.46875 L 18.085938 1.792969 C 18.085938 1.273438 18.324219 0.792969 18.691406 0.46875 C 19.074219 0.128906 19.542969 -0.0117188 20 0 Z M 24.46875 7.359375 L 24.46875 10.902344 L 26.886719 9.132812 Z M 24.46875 7.359375 "/>
<path style=" stroke:none;fill-rule:evenodd;fill:rgb(90.196079%,0.784314%,70.588237%);fill-opacity:1;" d="M 29.167969 9.359375 L 20.203125 3.082031 L 20.261719 15.460938 Z M 29.167969 9.359375 "/>
</g>
</svg>
