<?xml version="1.0" encoding="UTF-8"?>
<svg xmlns="http://www.w3.org/2000/svg" xmlns:xlink="http://www.w3.org/1999/xlink" width="32px" height="32px" viewBox="0 0 32 32" version="1.1">
<g id="surface1">
<path style="fill-rule:evenodd;fill:rgb(94.117647%,89.019608%,92.54902%);fill-opacity:1;stroke-width:1;stroke-linecap:round;stroke-linejoin:round;stroke:rgb(90.196079%,0.784314%,70.588237%);stroke-opacity:1;stroke-miterlimit:4;" d="M 2.467886 1.570032 L 11.462026 1.570032 C 12.014761 1.570032 12.462026 2.01925 12.462026 2.570032 L 12.462026 13.536828 C 12.462026 14.089563 12.014761 14.536828 11.462026 14.536828 L 2.467886 14.536828 C 1.917104 14.536828 1.467886 14.089563 1.467886 13.536828 L 1.467886 2.570032 C 1.467886 2.01925 1.917104 1.570032 2.467886 1.570032 Z M 2.467886 1.570032 " transform="matrix(2,0,0,2,0.306416,0.0279056)"/>
<path style="fill-rule:nonzero;fill:rgb(61.56863%,22.745098%,60.784316%);fill-opacity:1;stroke-width:0.25;stroke-linecap:butt;stroke-linejoin:miter;stroke:rgb(61.56863%,22.745098%,60.784316%);stroke-opacity:1;stroke-miterlimit:4;" d="M 3.077261 3.851282 C 3.112417 3.45675 3.391714 3.169641 3.743276 3.169641 C 3.977651 3.169641 4.190542 3.294641 4.311636 3.495813 C 4.430776 3.292688 4.635854 3.169641 4.86437 3.169641 C 5.215933 3.169641 5.495229 3.45675 5.532339 3.851282 C 5.534292 3.86886 5.546011 3.960657 5.510854 4.109094 C 5.460073 4.325891 5.340933 4.521203 5.169058 4.677453 L 4.311636 5.452844 L 3.438589 4.677453 C 3.266714 4.521203 3.147573 4.325891 3.096792 4.109094 C 3.061636 3.960657 3.073354 3.86886 3.077261 3.851282 Z M 3.190542 4.08761 C 3.235464 4.284875 3.344839 4.464563 3.501089 4.607141 L 4.311636 5.325891 L 5.106558 4.607141 C 5.264761 4.464563 5.372183 4.284875 5.419058 4.08761 C 5.452261 3.946985 5.438589 3.866907 5.438589 3.864953 L 5.438589 3.861047 C 5.407339 3.515344 5.167104 3.265344 4.86437 3.265344 C 4.643667 3.265344 4.448354 3.40011 4.354604 3.61886 L 4.311636 3.722375 L 4.266714 3.61886 C 4.17687 3.404016 3.969839 3.265344 3.743276 3.265344 C 3.442495 3.265344 3.202261 3.515344 3.169058 3.864953 C 3.169058 3.866907 3.155386 3.946985 3.190542 4.08761 Z M 3.190542 4.08761 " transform="matrix(2,0,0,2,0.306416,0.0279056)"/>
<path style="fill:none;stroke-width:1;stroke-linecap:round;stroke-linejoin:miter;stroke:rgb(90.196079%,0.784314%,70.588237%);stroke-opacity:1;stroke-miterlimit:4;" d="M 3.462026 6.523157 L 10.786245 6.523157 " transform="matrix(2,0,0,2,0.306416,0.0279056)"/>
<path style="fill:none;stroke-width:1;stroke-linecap:round;stroke-linejoin:miter;stroke:rgb(90.196079%,0.784314%,70.588237%);stroke-opacity:1;stroke-miterlimit:4;" d="M 3.462026 8.523157 L 10.786245 8.523157 " transform="matrix(2,0,0,2,0.306416,0.0279056)"/>
<path style="fill:none;stroke-width:1;stroke-linecap:round;stroke-linejoin:miter;stroke:rgb(90.196079%,0.784314%,70.588237%);stroke-opacity:1;stroke-miterlimit:4;" d="M 3.462026 10.523157 L 10.786245 10.523157 " transform="matrix(2,0,0,2,0.306416,0.0279056)"/>
<path style=" stroke:none;fill-rule:evenodd;fill:rgb(61.56863%,22.745098%,60.784316%);fill-opacity:1;" d="M 20.277344 3.832031 C 20.578125 3.84375 20.878906 3.9375 21.128906 4.117188 L 29.171875 9.886719 C 29.527344 10.140625 29.765625 10.554688 29.765625 11.015625 C 29.765625 11.476562 29.527344 11.890625 29.171875 12.144531 L 21.128906 17.910156 C 20.679688 18.234375 20.109375 18.28125 19.617188 18.070312 C 19.132812 17.859375 18.742188 17.367188 18.742188 16.785156 L 18.742188 5.246094 C 18.742188 4.835938 18.933594 4.457031 19.226562 4.199219 C 19.53125 3.933594 19.910156 3.824219 20.277344 3.832031 Z M 23.863281 9.625 L 23.863281 12.40625 L 25.804688 11.015625 Z M 23.863281 9.625 "/>
<path style=" stroke:none;fill-rule:evenodd;fill:rgb(90.196079%,0.784314%,70.588237%);fill-opacity:1;" d="M 27.636719 11.195312 L 20.441406 6.257812 L 20.488281 15.996094 Z M 27.636719 11.195312 "/>
</g>
</svg>
