<?xml version="1.0" encoding="UTF-8"?>
<svg xmlns="http://www.w3.org/2000/svg" xmlns:xlink="http://www.w3.org/1999/xlink" width="32px" height="32px" viewBox="0 0 32 32" version="1.1">
<g id="surface1">
<path style=" stroke:none;fill-rule:evenodd;fill:rgb(90.196079%,0.784314%,70.588237%);fill-opacity:1;" d="M 8.796875 3.238281 C 9.34375 3.253906 9.886719 3.425781 10.339844 3.742188 L 24.910156 13.992188 C 25.554688 14.441406 25.984375 15.179688 25.984375 16 C 25.984375 16.816406 25.554688 17.554688 24.910156 18.007812 L 10.339844 28.253906 C 9.523438 28.828125 8.492188 28.910156 7.601562 28.53125 C 6.722656 28.160156 6.015625 27.285156 6.015625 26.253906 L 6.015625 5.746094 C 6.015625 5.019531 6.359375 4.34375 6.890625 3.890625 C 7.445312 3.417969 8.128906 3.21875 8.796875 3.238281 Z M 15.296875 13.527344 L 15.296875 18.472656 L 18.808594 16 Z M 15.296875 13.527344 "/>
<path style=" stroke:none;fill-rule:evenodd;fill:rgb(95.294118%,71.764708%,85.09804%);fill-opacity:1;" d="M 22 16 L 8.960938 7.226562 L 9.046875 24.527344 Z M 22 16 "/>
</g>
</svg>
