<?xml version="1.0" encoding="UTF-8"?>
<svg xmlns="http://www.w3.org/2000/svg" xmlns:xlink="http://www.w3.org/1999/xlink" width="32px" height="32px" viewBox="0 0 32 32" version="1.1">
<g id="surface1">
<path style="fill-rule:nonzero;fill:rgb(94.117647%,89.019608%,92.54902%);fill-opacity:1;stroke-width:1;stroke-linecap:butt;stroke-linejoin:miter;stroke:rgb(90.196079%,0.784314%,70.588237%);stroke-opacity:1;stroke-miterlimit:4;" d="M 2.431641 1.519531 C 1.896484 1.519531 1.462891 1.929688 1.462891 2.4375 L 1.462891 10.001953 C 1.462891 10.509766 1.896484 10.912109 2.431641 10.919922 L 8.078125 10.914062 L 12.064453 10.908203 C 12.601562 10.908203 13.035156 10.498047 13.035156 9.990234 L 13.035156 2.425781 C 13.035156 1.917969 12.601562 1.507812 12.064453 1.507812 L 11.382812 1.501953 L 11.382812 2.046875 C 11.382812 2.179688 11.271484 2.285156 11.130859 2.285156 L 9.980469 2.285156 C 9.841797 2.285156 9.728516 2.179688 9.728516 2.046875 L 9.728516 1.501953 Z M 2.431641 1.519531 " transform="matrix(2,0,0,2,0,0)"/>
<path style="fill-rule:nonzero;fill:rgb(95.294118%,71.764708%,85.09804%);fill-opacity:1;stroke-width:0.5;stroke-linecap:butt;stroke-linejoin:miter;stroke:rgb(61.56863%,22.745098%,60.784316%);stroke-opacity:1;stroke-miterlimit:4;" d="M 3.121094 3.306641 L 11.349609 3.306641 C 11.533203 3.306641 11.679688 3.455078 11.679688 3.636719 L 11.679688 8.742188 C 11.679688 8.923828 11.533203 9.072266 11.349609 9.072266 L 3.121094 9.072266 C 2.939453 9.072266 2.791016 8.923828 2.791016 8.742188 L 2.791016 3.636719 C 2.791016 3.455078 2.939453 3.306641 3.121094 3.306641 Z M 3.121094 3.306641 " transform="matrix(2,0,0,2,0,0)"/>
<path style="fill-rule:nonzero;fill:rgb(94.117647%,89.019608%,92.54902%);fill-opacity:1;stroke-width:1;stroke-linecap:butt;stroke-linejoin:miter;stroke:rgb(90.196079%,0.784314%,70.588237%);stroke-opacity:1;stroke-miterlimit:4;" d="M 3.982422 5.482422 C 3.449219 5.482422 3.017578 5.875 3.017578 6.363281 L 3.017578 13.619141 C 3.017578 14.107422 3.449219 14.492188 3.982422 14.5 L 9.605469 14.494141 L 13.576172 14.490234 C 14.109375 14.488281 14.541016 14.095703 14.541016 13.607422 L 14.541016 6.351562 C 14.541016 5.863281 14.109375 5.470703 13.576172 5.470703 L 12.896484 5.466797 L 12.896484 5.988281 C 12.896484 6.115234 12.785156 6.216797 12.646484 6.216797 L 11.5 6.216797 C 11.361328 6.216797 11.25 6.115234 11.25 5.988281 L 11.25 5.466797 Z M 3.982422 5.482422 " transform="matrix(2,0,0,2,0,0)"/>
<path style="fill-rule:nonzero;fill:rgb(95.294118%,71.764708%,85.09804%);fill-opacity:1;stroke-width:0.5;stroke-linecap:butt;stroke-linejoin:miter;stroke:rgb(61.56863%,22.745098%,60.784316%);stroke-opacity:1;stroke-miterlimit:4;" d="M 4.558594 7.287109 L 12.789062 7.287109 C 12.970703 7.287109 13.117188 7.433594 13.117188 7.615234 L 13.117188 12.720703 C 13.117188 12.902344 12.970703 13.050781 12.789062 13.050781 L 4.558594 13.050781 C 4.376953 13.050781 4.230469 12.902344 4.230469 12.720703 L 4.230469 7.615234 C 4.230469 7.433594 4.376953 7.287109 4.558594 7.287109 Z M 4.558594 7.287109 " transform="matrix(2,0,0,2,0,0)"/>
<path style="fill-rule:evenodd;fill:rgb(95.294118%,71.764708%,85.09804%);fill-opacity:1;stroke-width:16.621611;stroke-linecap:butt;stroke-linejoin:miter;stroke:rgb(61.56863%,22.745098%,60.784316%);stroke-opacity:1;stroke-miterlimit:4;" d="M 90.939871 17.46448 C 88.342744 17.529408 85.778082 18.373474 83.602988 19.964215 L 12.993607 71.647035 C 9.941983 73.887057 7.896746 77.49057 7.896746 81.516117 C 7.896746 85.574127 9.941983 89.17764 12.993607 91.417662 L 83.602988 143.100483 C 87.466214 145.924858 92.368291 146.346891 96.588622 144.463974 C 100.744024 142.645986 104.087825 138.328263 104.087825 133.263866 L 104.087825 29.800832 C 104.087825 26.229783 102.464621 22.918446 99.932422 20.678424 C 97.335295 18.34101 94.088887 17.367088 90.939871 17.46448 Z M 90.939871 17.46448 " transform="matrix(-0.120325,0,0,0.120325,29.836897,1.043113)"/>
</g>
</svg>
