<?xml version="1.0" encoding="UTF-8"?>
<svg xmlns="http://www.w3.org/2000/svg" xmlns:xlink="http://www.w3.org/1999/xlink" width="32px" height="32px" viewBox="0 0 32 32" version="1.1">
<g id="surface1">
<path style="fill-rule:evenodd;fill:rgb(94.117647%,89.019608%,92.54902%);fill-opacity:0.950495;stroke-width:1.157921;stroke-linecap:round;stroke-linejoin:round;stroke:rgb(90.196079%,0.784314%,70.588237%);stroke-opacity:1;stroke-miterlimit:4;" d="M 2.153846 2.689944 L 13.692308 2.689944 C 14.647836 2.689944 15.423077 3.47067 15.423077 4.432961 L 15.423077 12.567039 C 15.423077 13.52933 14.647836 14.310056 13.692308 14.310056 L 2.153846 14.310056 C 1.198317 14.310056 0.423077 13.52933 0.423077 12.567039 L 0.423077 4.432961 C 0.423077 3.47067 1.198317 2.689944 2.153846 2.689944 Z M 2.153846 2.689944 " transform="matrix(1.733333,0,0,1.721154,2.266667,2.370192)"/>
<path style="fill-rule:nonzero;fill:rgb(95.294118%,71.764708%,85.09804%);fill-opacity:1;stroke-width:1.157922;stroke-linecap:square;stroke-linejoin:round;stroke:rgb(95.294118%,71.764708%,85.09804%);stroke-opacity:1;stroke-miterlimit:4;" d="M 3.499249 1.123953 C 4.051382 1.123953 4.49985 1.305517 4.49985 1.527933 L 4.49985 4.821054 C 4.49985 5.043471 4.051382 5.222765 3.499249 5.222765 C 2.947115 5.222765 2.500901 5.043471 2.500901 4.821054 L 2.500901 1.527933 C 2.500901 1.305517 2.947115 1.123953 3.499249 1.123953 Z M 3.499249 1.123953 " transform="matrix(1.733333,0,0,1.721154,2.266667,2.370192)"/>
<path style="fill-rule:nonzero;fill:rgb(94.117647%,89.019608%,92.54902%);fill-opacity:1;stroke-width:1.157922;stroke-linecap:square;stroke-linejoin:round;stroke:rgb(61.56863%,22.745098%,60.784316%);stroke-opacity:1;stroke-miterlimit:4;" d="M 3.021484 0.499825 L 3.979267 0.499825 C 4.265475 0.499825 4.49985 1.101257 4.49985 1.843401 L 4.49985 3.157472 C 4.49985 3.899616 4.265475 4.501047 3.979267 4.501047 L 3.021484 4.501047 C 2.733023 4.501047 2.500901 3.899616 2.500901 3.157472 L 2.500901 1.843401 C 2.500901 1.101257 2.733023 0.499825 3.021484 0.499825 Z M 3.021484 0.499825 " transform="matrix(1.733333,0,0,1.721154,2.266667,2.370192)"/>
<path style="fill-rule:nonzero;fill:rgb(95.294118%,71.764708%,85.09804%);fill-opacity:1;stroke-width:1.157922;stroke-linecap:square;stroke-linejoin:round;stroke:rgb(95.294118%,71.764708%,85.09804%);stroke-opacity:1;stroke-miterlimit:4;" d="M 12.50015 1.123953 C 13.052284 1.123953 13.500751 1.305517 13.500751 1.527933 L 13.500751 4.821054 C 13.500751 5.043471 13.052284 5.222765 12.50015 5.222765 C 11.948017 5.222765 11.499549 5.043471 11.499549 4.821054 L 11.499549 1.527933 C 11.499549 1.305517 11.948017 1.123953 12.50015 1.123953 Z M 12.50015 1.123953 " transform="matrix(1.733333,0,0,1.721154,2.266667,2.370192)"/>
<path style="fill-rule:nonzero;fill:rgb(94.117647%,89.019608%,92.54902%);fill-opacity:1;stroke-width:1.157922;stroke-linecap:square;stroke-linejoin:round;stroke:rgb(61.56863%,22.745098%,60.784316%);stroke-opacity:1;stroke-miterlimit:4;" d="M 12.022386 0.499825 L 12.977915 0.499825 C 13.266376 0.499825 13.500751 1.101257 13.500751 1.843401 L 13.500751 3.157472 C 13.500751 3.899616 13.266376 4.501047 12.977915 4.501047 L 12.022386 4.501047 C 11.733924 4.501047 11.499549 3.899616 11.499549 3.157472 L 11.499549 1.843401 C 11.499549 1.101257 11.733924 0.499825 12.022386 0.499825 Z M 12.022386 0.499825 " transform="matrix(1.733333,0,0,1.721154,2.266667,2.370192)"/>
<path style=" stroke:none;fill-rule:nonzero;fill:rgb(61.56863%,22.745098%,60.784316%);fill-opacity:1;" d="M 8 14 L 10.101562 14 L 10.101562 16.085938 L 8 16.085938 Z M 8 14 "/>
<path style=" stroke:none;fill-rule:nonzero;fill:rgb(61.56863%,22.745098%,60.784316%);fill-opacity:1;" d="M 11.898438 13.914062 L 14 13.914062 L 14 16 L 11.898438 16 Z M 11.898438 13.914062 "/>
<path style=" stroke:none;fill-rule:nonzero;fill:rgb(61.56863%,22.745098%,60.784316%);fill-opacity:1;" d="M 16 13.914062 L 18.101562 13.914062 L 18.101562 16 L 16 16 Z M 16 13.914062 "/>
<path style=" stroke:none;fill-rule:nonzero;fill:rgb(61.56863%,22.745098%,60.784316%);fill-opacity:1;" d="M 22 14 L 24.101562 14 L 24.101562 16.085938 L 22 16.085938 Z M 22 14 "/>
<path style=" stroke:none;fill-rule:nonzero;fill:rgb(61.56863%,22.745098%,60.784316%);fill-opacity:1;" d="M 7.898438 17.914062 L 10 17.914062 L 10 20 L 7.898438 20 Z M 7.898438 17.914062 "/>
<path style=" stroke:none;fill-rule:nonzero;fill:rgb(61.56863%,22.745098%,60.784316%);fill-opacity:1;" d="M 12 17.914062 L 14.101562 17.914062 L 14.101562 20 L 12 20 Z M 12 17.914062 "/>
<path style=" stroke:none;fill-rule:nonzero;fill:rgb(61.56863%,22.745098%,60.784316%);fill-opacity:1;" d="M 15.898438 17.914062 L 18 17.914062 L 18 20 L 15.898438 20 Z M 15.898438 17.914062 "/>
<path style=" stroke:none;fill-rule:nonzero;fill:rgb(61.56863%,22.745098%,60.784316%);fill-opacity:1;" d="M 22 18 L 24.101562 18 L 24.101562 20.085938 L 22 20.085938 Z M 22 18 "/>
<path style=" stroke:none;fill-rule:nonzero;fill:rgb(61.56863%,22.745098%,60.784316%);fill-opacity:1;" d="M 7.898438 21.914062 L 10 21.914062 L 10 24 L 7.898438 24 Z M 7.898438 21.914062 "/>
<path style=" stroke:none;fill-rule:nonzero;fill:rgb(61.56863%,22.745098%,60.784316%);fill-opacity:1;" d="M 11.898438 21.914062 L 14 21.914062 L 14 24 L 11.898438 24 Z M 11.898438 21.914062 "/>
<path style=" stroke:none;fill-rule:nonzero;fill:rgb(61.56863%,22.745098%,60.784316%);fill-opacity:1;" d="M 15.898438 22 L 18 22 L 18 24.085938 L 15.898438 24.085938 Z M 15.898438 22 "/>
<path style=" stroke:none;fill-rule:nonzero;fill:rgb(61.56863%,22.745098%,60.784316%);fill-opacity:1;" d="M 22 22 L 24.101562 22 L 24.101562 24.085938 L 22 24.085938 Z M 22 22 "/>
</g>
</svg>
