<?xml version="1.0" encoding="UTF-8"?>
<svg xmlns="http://www.w3.org/2000/svg" xmlns:xlink="http://www.w3.org/1999/xlink" width="32px" height="32px" viewBox="0 0 32 32" version="1.1">
<g id="surface1">
<path style="fill-rule:nonzero;fill:rgb(95.294118%,71.764708%,85.09804%);fill-opacity:1;stroke-width:0.951044;stroke-linecap:butt;stroke-linejoin:round;stroke:rgb(90.196079%,0.784314%,70.588237%);stroke-opacity:1;stroke-miterlimit:4;" d="M 14.179271 5.430667 C 14.179271 7.390337 12.591102 8.978506 10.631432 8.978506 C 8.673619 8.978506 7.08545 7.390337 7.08545 5.430667 C 7.08545 3.470996 8.673619 1.882828 10.631432 1.882828 C 12.591102 1.882828 14.179271 3.470996 14.179271 5.430667 Z M 14.179271 5.430667 " transform="matrix(2.102952,0,0,2.102952,-0.951146,-0.947778)"/>
<path style="fill-rule:evenodd;fill:rgb(95.294118%,71.764708%,85.09804%);fill-opacity:1;stroke-width:5.845817;stroke-linecap:butt;stroke-linejoin:round;stroke:rgb(90.196079%,0.784314%,70.588237%);stroke-opacity:1;stroke-miterlimit:4;" d="M 27.132972 34.387124 L 68.453299 34.387124 C 68.978509 34.387124 69.40096 34.820993 69.40096 35.346203 L 69.40096 76.655113 C 69.40096 77.180323 68.978509 77.602775 68.453299 77.602775 L 27.132972 77.602775 C 26.607761 77.602775 26.18531 77.180323 26.18531 76.655113 L 26.18531 35.346203 C 26.18531 34.820993 26.607761 34.387124 27.132972 34.387124 Z M 27.132972 34.387124 " transform="matrix(0.342125,0,0,0.342125,-5.95865,-3.213915)"/>
<path style="fill-rule:nonzero;fill:rgb(95.294118%,71.764708%,85.09804%);fill-opacity:1;stroke-width:0.951044;stroke-linecap:butt;stroke-linejoin:round;stroke:rgb(90.196079%,0.784314%,70.588237%);stroke-opacity:1;stroke-miterlimit:4;" d="M 6.333159 14.1851 L 10.287793 6.714205 L 14.242426 14.1851 Z M 6.333159 14.1851 " transform="matrix(2.102952,0,0,2.102952,-0.951146,-0.947778)"/>
</g>
</svg>
