<?xml version="1.0" encoding="UTF-8"?>
<svg xmlns="http://www.w3.org/2000/svg" xmlns:xlink="http://www.w3.org/1999/xlink" width="32px" height="32px" viewBox="0 0 32 32" version="1.1">
<defs>
<filter id="alpha" filterUnits="objectBoundingBox" x="0%" y="0%" width="100%" height="100%">
  <feColorMatrix type="matrix" in="SourceGraphic" values="0 0 0 0 1 0 0 0 0 1 0 0 0 0 1 0 0 0 1 0"/>
</filter>
<mask id="mask0">
  <g filter="url(#alpha)">
<rect x="0" y="0" width="32" height="32" style="fill:rgb(0%,0%,0%);fill-opacity:0.35;stroke:none;"/>
  </g>
</mask>
<clipPath id="clip1">
  <rect x="0" y="0" width="32" height="32"/>
</clipPath>
<g id="surface5" clip-path="url(#clip1)">
<path style=" stroke:none;fill-rule:nonzero;fill:rgb(33.333334%,34.117648%,32.549021%);fill-opacity:1;" d="M 20 6 C 14.476562 6 10 10.476562 10 16 C 10 21.523438 14.476562 26 20 26 C 25.523438 26 30 21.523438 30 16 C 30 10.476562 25.523438 6 20 6 Z M 20 10 L 26 14 L 22 14 L 22 20 L 18 20 L 18 14 L 14 14 Z M 20 10 "/>
</g>
</defs>
<g id="surface1">
<use xlink:href="#surface5" mask="url(#mask0)"/>
<path style=" stroke:none;fill-rule:nonzero;fill:rgb(33.333334%,34.117648%,32.549021%);fill-opacity:1;" d="M 2 18 L 2 14 L 10.210938 14 C 10 14.65625 10 15.328125 10 16 C 10 16.671875 10.070312 17.34375 10.203125 18 Z M 2 10 L 2 6 L 20 6 C 16.851562 6 13.886719 7.480469 12 10 Z M 2 10 "/>
<path style=" stroke:none;fill-rule:nonzero;fill:rgb(33.333334%,34.117648%,32.549021%);fill-opacity:1;" d="M 2 22 L 2 26 L 18 26 L 18 22 Z M 2 22 "/>
</g>
</svg>
