<?xml version="1.0" encoding="UTF-8"?>
<svg xmlns="http://www.w3.org/2000/svg" xmlns:xlink="http://www.w3.org/1999/xlink" width="32px" height="32px" viewBox="0 0 32 32" version="1.1">
<g id="surface1">
<path style=" stroke:none;fill-rule:nonzero;fill:rgb(61.56863%,22.745098%,60.784316%);fill-opacity:1;" d="M 29.199219 30 C 28.542969 30 28.011719 29.242188 28.011719 28.308594 L 28.011719 3.691406 C 28.011719 2.757812 28.542969 2 29.199219 2 C 29.851562 2 30.382812 2.757812 30.382812 3.691406 L 30.382812 28.308594 C 30.382812 29.242188 29.851562 30 29.199219 30 Z M 29.199219 30 "/>
<path style="fill-rule:evenodd;fill:rgb(95.294118%,71.764708%,85.09804%);fill-opacity:1;stroke-width:1;stroke-linecap:round;stroke-linejoin:round;stroke:rgb(90.196079%,0.784314%,70.588237%);stroke-opacity:1;stroke-miterlimit:4;" d="M -12 -13.5 L -4 -13.5 C -3.724609 -13.5 -3.5 -13.275391 -3.5 -13 L -3.5 -10 C -3.5 -9.724609 -3.724609 -9.5 -4 -9.5 L -12 -9.5 C -12.275391 -9.5 -12.5 -9.724609 -12.5 -10 L -12.5 -13 C -12.5 -13.275391 -12.275391 -13.5 -12 -13.5 Z M -12 -13.5 " transform="matrix(-2,0,0,-2,0,0)"/>
<path style="fill-rule:evenodd;fill:rgb(95.294118%,71.764708%,85.09804%);fill-opacity:1;stroke-width:1;stroke-linecap:round;stroke-linejoin:round;stroke:rgb(90.196079%,0.784314%,70.588237%);stroke-opacity:1;stroke-miterlimit:4;" d="M -12 -6.5 L -2 -6.5 C -1.724609 -6.5 -1.5 -6.275391 -1.5 -6 L -1.5 -3 C -1.5 -2.724609 -1.724609 -2.5 -2 -2.5 L -12 -2.5 C -12.275391 -2.5 -12.5 -2.724609 -12.5 -3 L -12.5 -6 C -12.5 -6.275391 -12.275391 -6.5 -12 -6.5 Z M -12 -6.5 " transform="matrix(-2,0,0,-2,0,0)"/>
</g>
</svg>
