<?xml version="1.0" encoding="UTF-8"?>
<svg xmlns="http://www.w3.org/2000/svg" xmlns:xlink="http://www.w3.org/1999/xlink" width="32px" height="32px" viewBox="0 0 32 32" version="1.1">
<defs>
<linearGradient id="linear0" gradientUnits="userSpaceOnUse" x1="38.033909" y1="86.916695" x2="48.341999" y2="86.916695" gradientTransform="matrix(0.511165,0,0,-0.0179529,1.826163,37.611909)">
<stop offset="0" style="stop-color:rgb(18.431373%,18.431373%,18.431373%);stop-opacity:1;"/>
<stop offset="0.1224" style="stop-color:rgb(71.372551%,71.372551%,71.372551%);stop-opacity:1;"/>
<stop offset="0.278568" style="stop-color:rgb(95.294118%,95.294118%,95.294118%);stop-opacity:1;"/>
<stop offset="0.478117" style="stop-color:rgb(79.607844%,79.607844%,79.607844%);stop-opacity:1;"/>
<stop offset="0.6568" style="stop-color:rgb(100%,100%,100%);stop-opacity:1;"/>
<stop offset="0.7202" style="stop-color:rgb(94.509804%,94.509804%,94.509804%);stop-opacity:1;"/>
<stop offset="0.8387" style="stop-color:rgb(73.333335%,73.333335%,73.333335%);stop-opacity:1;"/>
<stop offset="1" style="stop-color:rgb(18.431373%,18.431373%,18.431373%);stop-opacity:1;"/>
</linearGradient>
<linearGradient id="linear1" gradientUnits="userSpaceOnUse" x1="46.05291" y1="114.455017" x2="78.560844" y2="114.455017" gradientTransform="matrix(0,0.216808,-0.235708,0,49.362361,26.601764)">
<stop offset="0" style="stop-color:rgb(100%,100%,100%);stop-opacity:1;"/>
<stop offset="1" style="stop-color:rgb(100%,100%,100%);stop-opacity:0;"/>
</linearGradient>
<filter id="alpha" filterUnits="objectBoundingBox" x="0%" y="0%" width="100%" height="100%">
  <feColorMatrix type="matrix" in="SourceGraphic" values="0 0 0 0 1 0 0 0 0 1 0 0 0 0 1 0 0 0 1 0"/>
</filter>
<mask id="mask0">
  <g filter="url(#alpha)">
<rect x="0" y="0" width="32" height="32" style="fill:rgb(0%,0%,0%);fill-opacity:0.537143;stroke:none;"/>
  </g>
</mask>
<clipPath id="clip1">
  <rect x="0" y="0" width="32" height="32"/>
</clipPath>
<g id="surface5" clip-path="url(#clip1)">
<path style=" stroke:none;fill-rule:nonzero;fill:rgb(95.294118%,71.764708%,85.09804%);fill-opacity:1;" d="M 11.910156 26.519531 L 12.035156 26.519531 C 12.238281 26.519531 12.40625 26.632812 12.40625 26.773438 L 12.40625 29.867188 C 12.40625 30.011719 12.238281 30.125 12.035156 30.125 L 11.910156 30.125 C 11.703125 30.125 11.539062 30.011719 11.539062 29.867188 L 11.539062 26.773438 C 11.539062 26.632812 11.703125 26.519531 11.910156 26.519531 Z M 11.910156 26.519531 "/>
</g>
<mask id="mask1">
  <g filter="url(#alpha)">
<rect x="0" y="0" width="32" height="32" style="fill:rgb(0%,0%,0%);fill-opacity:0.537143;stroke:none;"/>
  </g>
</mask>
<clipPath id="clip2">
  <rect x="0" y="0" width="32" height="32"/>
</clipPath>
<g id="surface8" clip-path="url(#clip2)">
<path style=" stroke:none;fill-rule:nonzero;fill:rgb(95.294118%,71.764708%,85.09804%);fill-opacity:1;" d="M 19.714844 26.519531 L 19.839844 26.519531 C 20.042969 26.519531 20.210938 26.632812 20.210938 26.773438 L 20.210938 29.867188 C 20.210938 30.011719 20.042969 30.125 19.839844 30.125 L 19.714844 30.125 C 19.507812 30.125 19.34375 30.011719 19.34375 29.867188 L 19.34375 26.773438 C 19.34375 26.632812 19.507812 26.519531 19.714844 26.519531 Z M 19.714844 26.519531 "/>
</g>
<clipPath id="clip3">
  <path d="M 3 3 L 14 3 L 14 10 L 3 10 Z M 3 3 "/>
</clipPath>
<clipPath id="clip4">
  <path d="M 2.5 9.296875 L 28.128906 9.296875 C 28.226562 9.296875 28.304688 9.230469 28.304688 9.152344 L 28.304688 1.375 C 28.304688 1.292969 28.226562 1.226562 28.128906 1.226562 L 2.5 1.226562 C 2.402344 1.226562 2.324219 1.292969 2.324219 1.375 L 2.324219 9.152344 C 2.324219 9.230469 2.402344 9.296875 2.5 9.296875 Z M 2.5 9.296875 "/>
</clipPath>
<clipPath id="clip5">
  <path d="M 2 2 L 15 2 L 15 10 L 2 10 Z M 2 2 "/>
</clipPath>
<clipPath id="clip6">
  <path d="M 2.5 9.296875 L 28.128906 9.296875 C 28.226562 9.296875 28.304688 9.230469 28.304688 9.152344 L 28.304688 1.375 C 28.304688 1.292969 28.226562 1.226562 28.128906 1.226562 L 2.5 1.226562 C 2.402344 1.226562 2.324219 1.292969 2.324219 1.375 L 2.324219 9.152344 C 2.324219 9.230469 2.402344 9.296875 2.5 9.296875 Z M 2.5 9.296875 "/>
</clipPath>
</defs>
<g id="surface1">
<path style=" stroke:none;fill-rule:nonzero;fill:url(#linear0);" d="M 14.640625 28.121094 L 17.097656 28.121094 C 17.382812 28.121094 17.613281 28.109375 17.613281 28.097656 L 17.613281 22.808594 C 17.613281 22.792969 17.382812 22.78125 17.097656 22.78125 L 14.640625 22.78125 C 14.355469 22.78125 14.121094 22.792969 14.121094 22.808594 L 14.121094 28.097656 C 14.121094 28.109375 14.355469 28.121094 14.640625 28.121094 Z M 14.640625 28.121094 "/>
<path style=" stroke:none;fill-rule:nonzero;fill:url(#linear1);" d="M 15.261719 23.484375 L 15.261719 27.609375 L 14.699219 27.609375 L 14.699219 23.484375 Z M 15.261719 23.484375 "/>
<path style=" stroke:none;fill-rule:nonzero;fill:rgb(90.196079%,0.784314%,70.588237%);fill-opacity:1;" d="M 14.640625 28.121094 L 17.097656 28.121094 C 17.382812 28.121094 17.613281 28.109375 17.613281 28.097656 L 17.613281 22.808594 C 17.613281 22.792969 17.382812 22.78125 17.097656 22.78125 L 14.640625 22.78125 C 14.355469 22.78125 14.121094 22.792969 14.121094 22.808594 L 14.121094 28.097656 C 14.121094 28.109375 14.355469 28.121094 14.640625 28.121094 Z M 14.640625 28.121094 "/>
<path style=" stroke:none;fill-rule:nonzero;fill:rgb(61.56863%,22.745098%,60.784316%);fill-opacity:1;" d="M 12.886719 29.035156 L 12.886719 27.652344 C 12.886719 27.519531 12.648438 27.410156 12.359375 27.410156 L 2.417969 27.410156 C 2.125 27.410156 1.886719 27.519531 1.886719 27.652344 L 1.886719 29.035156 C 1.886719 29.171875 2.125 29.277344 2.417969 29.277344 L 12.359375 29.277344 C 12.648438 29.277344 12.886719 29.171875 12.886719 29.035156 Z M 12.886719 29.035156 "/>
<path style=" stroke:none;fill-rule:nonzero;fill:rgb(61.56863%,22.745098%,60.784316%);fill-opacity:1;" d="M 11.8125 26.566406 C 11.929688 26.566406 12.027344 26.984375 12.027344 27.5 C 12.027344 28.015625 11.929688 28.433594 11.8125 28.433594 C 11.695312 28.433594 11.597656 28.015625 11.597656 27.5 C 11.597656 26.984375 11.695312 26.566406 11.8125 26.566406 Z M 11.8125 26.566406 "/>
<path style=" stroke:none;fill-rule:nonzero;fill:rgb(61.56863%,22.745098%,60.784316%);fill-opacity:1;" d="M 29.871094 29.019531 L 29.871094 27.796875 C 29.871094 27.617188 29.566406 27.472656 29.1875 27.472656 L 19.554688 27.472656 C 19.175781 27.472656 18.871094 27.617188 18.871094 27.796875 L 18.871094 29.019531 C 18.871094 29.199219 19.175781 29.34375 19.554688 29.34375 L 29.1875 29.34375 C 29.566406 29.34375 29.871094 29.199219 29.871094 29.019531 Z M 29.871094 29.019531 "/>
<path style=" stroke:none;fill-rule:nonzero;fill:rgb(61.56863%,22.745098%,60.784316%);fill-opacity:1;" d="M 21.078125 29.492188 L 21.078125 27.152344 C 21.078125 26.800781 20.691406 26.519531 20.210938 26.519531 L 11.539062 26.519531 C 11.058594 26.519531 10.671875 26.800781 10.671875 27.152344 L 10.671875 29.492188 C 10.671875 29.839844 11.058594 30.125 11.539062 30.125 L 20.210938 30.125 C 20.691406 30.125 21.078125 29.839844 21.078125 29.492188 Z M 21.078125 29.492188 "/>
<use xlink:href="#surface5" mask="url(#mask0)"/>
<use xlink:href="#surface8" mask="url(#mask1)"/>
<path style="fill-rule:evenodd;fill:rgb(95.294118%,71.764708%,85.09804%);fill-opacity:1;stroke-width:1.70956;stroke-linecap:round;stroke-linejoin:round;stroke:rgb(90.196079%,0.784314%,70.588237%);stroke-opacity:1;stroke-miterlimit:4;" d="M 2.888645 3.954263 L 20.682098 3.954263 C 21.566929 3.954263 22.28481 5.189687 22.28481 6.712264 L 22.28481 14.729168 C 22.28481 16.251745 21.566929 17.48717 20.682098 17.48717 L 2.888645 17.48717 C 2.000475 17.48717 1.282593 16.251745 1.282593 14.729168 L 1.282593 6.712264 C 1.282593 5.189687 2.000475 3.954263 2.888645 3.954263 Z M 2.888645 3.954263 " transform="matrix(1.169891,0,0,1.169891,2.163568,2.08488)"/>
<g clip-path="url(#clip3)" clip-rule="nonzero">
<g clip-path="url(#clip4)" clip-rule="nonzero">
<path style=" stroke:none;fill-rule:evenodd;fill:rgb(95.294118%,71.764708%,85.09804%);fill-opacity:1;" d="M 5.875 3.910156 L 11.316406 3.910156 C 12.53125 3.910156 13.519531 4.894531 13.519531 6.109375 L 13.519531 8.851562 C 13.519531 10.066406 12.53125 11.050781 11.316406 11.050781 L 5.875 11.050781 C 4.660156 11.050781 3.671875 10.066406 3.671875 8.851562 L 3.671875 6.109375 C 3.671875 4.894531 4.660156 3.910156 5.875 3.910156 Z M 5.875 3.910156 "/>
</g>
</g>
<g clip-path="url(#clip5)" clip-rule="nonzero">
<g clip-path="url(#clip6)" clip-rule="nonzero">
<path style="fill:none;stroke-width:1.780944;stroke-linecap:round;stroke-linejoin:round;stroke:rgb(90.196079%,0.784314%,70.588237%);stroke-opacity:1;stroke-miterlimit:4;" d="M 3.849522 2.213956 L 8.270586 2.213956 C 9.257629 2.213956 10.060594 3.17465 10.060594 4.360269 L 10.060594 7.036488 C 10.060594 8.222107 9.257629 9.182801 8.270586 9.182801 L 3.849522 9.182801 C 2.862478 9.182801 2.059514 8.222107 2.059514 7.036488 L 2.059514 4.360269 C 2.059514 3.17465 2.862478 2.213956 3.849522 2.213956 Z M 3.849522 2.213956 " transform="matrix(1.230791,0,0,1.02465,1.137044,1.641627)"/>
</g>
</g>
<path style=" stroke:none;fill-rule:evenodd;fill:rgb(95.294118%,71.764708%,85.09804%);fill-opacity:1;" d="M 12.144531 7.675781 L 15.957031 7.675781 C 16.363281 7.675781 16.691406 8.339844 16.691406 9.160156 C 16.691406 9.980469 16.363281 10.644531 15.957031 10.644531 L 12.144531 10.644531 C 11.738281 10.644531 11.410156 9.980469 11.410156 9.160156 C 11.410156 8.339844 11.738281 7.675781 12.144531 7.675781 Z M 12.144531 7.675781 "/>
<path style="fill-rule:evenodd;fill:rgb(95.294118%,71.764708%,85.09804%);fill-opacity:1;stroke-width:1.70956;stroke-linecap:round;stroke-linejoin:round;stroke:rgb(90.196079%,0.784314%,70.588237%);stroke-opacity:1;stroke-miterlimit:4;" d="M 4.634934 8.037842 L 18.912435 8.037842 C 20.73886 8.037842 22.22137 9.724029 22.22137 11.804217 L 22.22137 13.827642 C 22.22137 15.904491 20.73886 17.590678 18.912435 17.590678 L 4.634934 17.590678 C 2.808509 17.590678 1.329339 15.904491 1.329339 13.827642 L 1.329339 11.804217 C 1.329339 9.724029 2.808509 8.037842 4.634934 8.037842 Z M 4.634934 8.037842 " transform="matrix(1.169891,0,0,1.169891,2.163568,2.08488)"/>
<path style="fill:none;stroke-width:1.70956;stroke-linecap:butt;stroke-linejoin:miter;stroke:rgb(61.56863%,22.745098%,60.784316%);stroke-opacity:1;stroke-miterlimit:4;" d="M 1.813492 13.810947 L 21.783963 13.810947 " transform="matrix(1.169891,0,0,1.169891,2.163568,2.08488)"/>
<path style="fill:none;stroke-width:1.70956;stroke-linecap:butt;stroke-linejoin:miter;stroke:rgb(61.56863%,22.745098%,60.784316%);stroke-opacity:1;stroke-miterlimit:4;" d="M 1.783441 15.300135 L 21.783963 15.300135 " transform="matrix(1.169891,0,0,1.169891,2.163568,2.08488)"/>
</g>
</svg>
