<?xml version="1.0" encoding="UTF-8"?>
<svg xmlns="http://www.w3.org/2000/svg" xmlns:xlink="http://www.w3.org/1999/xlink" width="32px" height="32px" viewBox="0 0 32 32" version="1.1">
<defs>
<clipPath id="clip1">
  <path d="M 3 3 L 14 3 L 14 11 L 3 11 Z M 3 3 "/>
</clipPath>
<clipPath id="clip2">
  <path d="M 1.773438 10.542969 L 28.8125 10.542969 C 28.917969 10.542969 29 10.449219 29 10.339844 L 29 -0.398438 C 29 -0.511719 28.917969 -0.605469 28.8125 -0.605469 L 1.773438 -0.605469 C 1.667969 -0.605469 1.585938 -0.511719 1.585938 -0.398438 L 1.585938 10.339844 C 1.585938 10.449219 1.667969 10.542969 1.773438 10.542969 Z M 1.773438 10.542969 "/>
</clipPath>
<clipPath id="clip3">
  <path d="M 2 2 L 15 2 L 15 11 L 2 11 Z M 2 2 "/>
</clipPath>
<clipPath id="clip4">
  <path d="M 1.773438 10.542969 L 28.8125 10.542969 C 28.917969 10.542969 29 10.449219 29 10.339844 L 29 -0.398438 C 29 -0.511719 28.917969 -0.605469 28.8125 -0.605469 L 1.773438 -0.605469 C 1.667969 -0.605469 1.585938 -0.511719 1.585938 -0.398438 L 1.585938 10.339844 C 1.585938 10.449219 1.667969 10.542969 1.773438 10.542969 Z M 1.773438 10.542969 "/>
</clipPath>
</defs>
<g id="surface1">
<path style=" stroke:none;fill-rule:evenodd;fill:rgb(95.294118%,71.764708%,85.09804%);fill-opacity:1;" d="M 10.984375 7.144531 L 15.648438 7.144531 C 15.808594 7.144531 15.9375 7.273438 15.9375 7.433594 L 15.9375 11.632812 C 15.9375 11.789062 15.808594 11.921875 15.648438 11.921875 L 10.984375 11.921875 C 10.824219 11.921875 10.695312 11.789062 10.695312 11.632812 L 10.695312 7.433594 C 10.695312 7.273438 10.824219 7.144531 10.984375 7.144531 Z M 10.984375 7.144531 "/>
<path style="fill-rule:evenodd;fill:rgb(95.294118%,71.764708%,85.09804%);fill-opacity:1;stroke-width:1.010804;stroke-linecap:round;stroke-linejoin:round;stroke:rgb(90.196079%,0.784314%,70.588237%);stroke-opacity:1;stroke-miterlimit:4;" d="M 3.454484 3.365367 L 12.646479 3.365367 C 13.726381 3.365367 14.602937 4.362351 14.602937 5.59032 L 14.602937 12.190157 C 14.602937 13.418125 13.726381 14.415109 12.646479 14.415109 L 3.454484 14.415109 C 2.374582 14.415109 1.5 13.418125 1.5 12.190157 L 1.5 5.59032 C 1.5 4.362351 2.374582 3.365367 3.454484 3.365367 Z M 3.454484 3.365367 " transform="matrix(1.978624,0,0,1.978624,0.0320646,0.309955)"/>
<g clip-path="url(#clip1)" clip-rule="nonzero">
<g clip-path="url(#clip2)" clip-rule="nonzero">
<path style=" stroke:none;fill-rule:evenodd;fill:rgb(95.294118%,71.764708%,85.09804%);fill-opacity:1;" d="M 5.933594 3.101562 L 10.46875 3.101562 C 12.085938 3.101562 13.398438 4.613281 13.398438 6.480469 L 13.398438 9.585938 C 13.398438 11.449219 12.085938 12.960938 10.46875 12.960938 L 5.933594 12.960938 C 4.316406 12.960938 3.007812 11.449219 3.007812 9.585938 L 3.007812 6.480469 C 3.007812 4.613281 4.316406 3.101562 5.933594 3.101562 Z M 5.933594 3.101562 "/>
</g>
</g>
<g clip-path="url(#clip3)" clip-rule="nonzero">
<g clip-path="url(#clip4)" clip-rule="nonzero">
<path style="fill:none;stroke-width:1.475344;stroke-linecap:round;stroke-linejoin:round;stroke:rgb(90.196079%,0.784314%,70.588237%);stroke-opacity:1;stroke-miterlimit:4;" d="M 4.313416 2.214097 L 7.805408 2.214097 C 9.050614 2.214097 10.061217 3.282454 10.061217 4.602028 L 10.061217 6.796715 C 10.061217 8.113528 9.050614 9.181885 7.805408 9.181885 L 4.313416 9.181885 C 3.06821 9.181885 2.060615 8.113528 2.060615 6.796715 L 2.060615 4.602028 C 2.060615 3.282454 3.06821 2.214097 4.313416 2.214097 Z M 4.313416 2.214097 " transform="matrix(1.298731,0,0,1.414994,0.331629,-0.0313708)"/>
</g>
</g>
<path style="fill-rule:evenodd;fill:rgb(94.117647%,89.019608%,92.54902%);fill-opacity:1;stroke-width:1.010804;stroke-linecap:round;stroke-linejoin:round;stroke:rgb(90.196079%,0.784314%,70.588237%);stroke-opacity:1;stroke-miterlimit:4;" d="M 4.289581 1.999203 L 11.923913 1.999203 C 12.741242 1.999203 13.402608 2.763228 13.402608 3.706908 L 13.402608 7.37502 C 13.402608 8.3187 12.741242 9.082725 11.923913 9.082725 L 4.289581 9.082725 C 3.472252 9.082725 2.810886 8.3187 2.810886 7.37502 L 2.810886 3.706908 C 2.810886 2.763228 3.472252 1.999203 4.289581 1.999203 Z M 4.289581 1.999203 " transform="matrix(1.978624,0,0,1.978624,0.0320646,0.309955)"/>
<path style="fill-rule:evenodd;fill:rgb(95.294118%,71.764708%,85.09804%);fill-opacity:1;stroke-width:1.010804;stroke-linecap:round;stroke-linejoin:round;stroke:rgb(90.196079%,0.784314%,70.588237%);stroke-opacity:1;stroke-miterlimit:4;" d="M 3.10702 6.701809 L 12.984072 6.701809 C 13.854706 6.701809 14.561478 7.51519 14.561478 8.520071 L 14.561478 12.681739 C 14.561478 13.68662 13.854706 14.500001 12.984072 14.500001 L 3.10702 14.500001 C 2.234412 14.500001 1.527639 13.68662 1.527639 12.681739 L 1.527639 8.520071 C 1.527639 7.51519 2.234412 6.701809 3.10702 6.701809 Z M 3.10702 6.701809 " transform="matrix(1.978624,0,0,1.978624,0.0320646,0.309955)"/>
<path style="fill:none;stroke-width:1.010804;stroke-linecap:butt;stroke-linejoin:miter;stroke:rgb(61.56863%,22.745098%,60.784316%);stroke-opacity:1;stroke-miterlimit:4;" d="M 1.999479 10.999699 L 14.000798 10.999699 " transform="matrix(1.978624,0,0,1.978624,0.0320646,0.309955)"/>
<path style="fill:none;stroke-width:1.010804;stroke-linecap:butt;stroke-linejoin:miter;stroke:rgb(61.56863%,22.745098%,60.784316%);stroke-opacity:1;stroke-miterlimit:4;" d="M 1.999479 12.628435 L 14.000798 12.628435 " transform="matrix(1.978624,0,0,1.978624,0.0320646,0.309955)"/>
<path style="fill-rule:nonzero;fill:rgb(61.56863%,22.745098%,60.784316%);fill-opacity:1;stroke-width:0.252701;stroke-linecap:butt;stroke-linejoin:miter;stroke:rgb(61.56863%,22.745098%,60.784316%);stroke-opacity:1;stroke-miterlimit:4;" d="M 11.082892 3.079104 C 11.100661 2.909321 11.227011 2.784945 11.384949 2.784945 C 11.489583 2.784945 11.58632 2.840223 11.641598 2.927089 C 11.694902 2.838249 11.787691 2.784945 11.890351 2.784945 C 12.050263 2.784945 12.176614 2.909321 12.192407 3.079104 C 12.194382 3.087001 12.19833 3.126486 12.182536 3.191635 C 12.158846 3.284424 12.105541 3.369315 12.028547 3.436439 L 11.641598 3.772058 L 11.246753 3.436439 C 11.169758 3.369315 11.116454 3.284424 11.092764 3.191635 C 11.07697 3.126486 11.082892 3.087001 11.082892 3.079104 Z M 11.134222 3.181764 C 11.155939 3.266656 11.205294 3.345625 11.276367 3.406826 L 11.641598 3.716779 L 12.000908 3.406826 C 12.07198 3.345625 12.119361 3.266656 12.141078 3.181764 C 12.156871 3.120563 12.150949 3.087001 12.150949 3.087001 L 12.148974 3.085027 C 12.135155 2.934986 12.026572 2.826403 11.890351 2.826403 C 11.79164 2.826403 11.702799 2.88563 11.661341 2.980393 L 11.641598 3.023826 L 11.621856 2.980393 C 11.580397 2.887604 11.487609 2.826403 11.384949 2.826403 C 11.248727 2.826403 11.140145 2.934986 11.126325 3.087001 C 11.126325 3.087001 11.120403 3.120563 11.134222 3.181764 Z M 11.134222 3.181764 " transform="matrix(1.978624,0,0,1.978624,0.0320646,0.309955)"/>
<path style="fill:none;stroke-width:1.010804;stroke-linecap:round;stroke-linejoin:miter;stroke:rgb(90.196079%,0.784314%,70.588237%);stroke-opacity:1;stroke-miterlimit:4;" d="M 4.500823 5.000026 L 11.499454 5.000026 " transform="matrix(1.978624,0,0,1.978624,0.0320646,0.309955)"/>
</g>
</svg>
