<?xml version="1.0" encoding="UTF-8"?>
<svg xmlns="http://www.w3.org/2000/svg" xmlns:xlink="http://www.w3.org/1999/xlink" width="32px" height="32px" viewBox="0 0 32 32" version="1.1">
<defs>
<clipPath id="clip1">
  <path d="M 8 8 L 17 8 L 17 15 L 8 15 Z M 8 8 "/>
</clipPath>
<clipPath id="clip2">
  <path d="M 7.730469 14.207031 L 28.933594 14.207031 C 29.011719 14.207031 29.078125 14.132812 29.078125 14.042969 L 29.078125 5.359375 C 29.078125 5.265625 29.011719 5.191406 28.933594 5.191406 L 7.730469 5.191406 C 7.648438 5.191406 7.582031 5.265625 7.582031 5.359375 L 7.582031 14.042969 C 7.582031 14.132812 7.648438 14.207031 7.730469 14.207031 Z M 7.730469 14.207031 "/>
</clipPath>
<clipPath id="clip3">
  <path d="M 7 7 L 18 7 L 18 15 L 7 15 Z M 7 7 "/>
</clipPath>
<clipPath id="clip4">
  <path d="M 7.730469 14.207031 L 28.933594 14.207031 C 29.011719 14.207031 29.078125 14.132812 29.078125 14.042969 L 29.078125 5.359375 C 29.078125 5.265625 29.011719 5.191406 28.933594 5.191406 L 7.730469 5.191406 C 7.648438 5.191406 7.582031 5.265625 7.582031 5.359375 L 7.582031 14.042969 C 7.582031 14.132812 7.648438 14.207031 7.730469 14.207031 Z M 7.730469 14.207031 "/>
</clipPath>
</defs>
<g id="surface1">
<path style="fill-rule:evenodd;fill:rgb(94.117647%,89.019608%,92.54902%);fill-opacity:1;stroke-width:1.602536;stroke-linecap:round;stroke-linejoin:round;stroke:rgb(90.196079%,0.784314%,70.588237%);stroke-opacity:1;stroke-miterlimit:4;" d="M 3.12854 1.899612 L 18.847557 1.899612 C 19.747149 1.899612 20.475088 2.605364 20.475088 3.477538 L 20.475088 20.921011 C 20.475088 21.793185 19.747149 22.498937 18.847557 22.498937 L 3.12854 22.498937 C 2.228948 22.498937 1.50101 21.793185 1.50101 20.921011 L 1.50101 3.477538 C 1.50101 2.605364 2.228948 1.899612 3.12854 1.899612 Z M 3.12854 1.899612 " transform="matrix(1.228856,0,0,1.267487,1.307819,0.615704)"/>
<path style="fill:none;stroke-width:1.602536;stroke-linecap:round;stroke-linejoin:miter;stroke:rgb(90.196079%,0.784314%,70.588237%);stroke-opacity:1;stroke-miterlimit:4;" d="M 3.405093 10.864818 L 14.702442 10.864818 " transform="matrix(1.228856,0,0,1.267487,1.307819,0.615704)"/>
<path style="fill:none;stroke-width:1.602536;stroke-linecap:round;stroke-linejoin:miter;stroke:rgb(90.196079%,0.784314%,70.588237%);stroke-opacity:1;stroke-miterlimit:4;" d="M 3.392378 13.814183 L 14.692905 13.814183 " transform="matrix(1.228856,0,0,1.267487,1.307819,0.615704)"/>
<path style="fill:none;stroke-width:1.602536;stroke-linecap:round;stroke-linejoin:miter;stroke:rgb(90.196079%,0.784314%,70.588237%);stroke-opacity:1;stroke-miterlimit:4;" d="M 3.351054 16.86525 L 14.651581 16.86525 " transform="matrix(1.228856,0,0,1.267487,1.307819,0.615704)"/>
<path style="fill-rule:evenodd;fill:rgb(61.56863%,22.745098%,60.784316%);fill-opacity:1;stroke-width:0.801268;stroke-linecap:round;stroke-linejoin:round;stroke:rgb(61.56863%,22.745098%,60.784316%);stroke-opacity:1;stroke-miterlimit:4;" d="M 1.50101 2.001314 C 1.777563 2.001314 2.000077 3.058401 2.000077 4.368203 L 2.000077 19.632783 C 2.000077 20.939503 1.777563 21.999671 1.50101 21.999671 C 1.224457 21.999671 0.998764 20.939503 0.998764 19.632783 L 0.998764 4.368203 C 0.998764 3.058401 1.224457 2.001314 1.50101 2.001314 Z M 1.50101 2.001314 " transform="matrix(1.228856,0,0,1.267487,1.307819,0.615704)"/>
<path style="fill-rule:evenodd;fill:rgb(95.294118%,71.764708%,85.09804%);fill-opacity:1;stroke-width:1.602536;stroke-linecap:round;stroke-linejoin:round;stroke:rgb(90.196079%,0.784314%,70.588237%);stroke-opacity:1;stroke-miterlimit:4;" d="M 8.605561 8.501012 L 19.953769 8.501012 C 21.387395 8.501012 22.550824 9.767667 22.550824 11.330183 L 22.550824 19.5619 C 22.550824 21.124416 21.387395 22.391071 19.953769 22.391071 L 8.605561 22.391071 C 7.171936 22.391071 6.008506 21.124416 6.008506 19.5619 L 6.008506 11.330183 C 6.008506 9.767667 7.171936 8.501012 8.605561 8.501012 Z M 8.605561 8.501012 " transform="matrix(1.228856,0,0,1.267487,1.307819,0.615704)"/>
<g clip-path="url(#clip1)" clip-rule="nonzero">
<g clip-path="url(#clip2)" clip-rule="nonzero">
<path style=" stroke:none;fill-rule:evenodd;fill:rgb(95.294118%,71.764708%,85.09804%);fill-opacity:1;" d="M 11.171875 8.191406 L 14.371094 8.191406 C 15.738281 8.191406 16.84375 9.296875 16.84375 10.660156 L 16.84375 13.691406 C 16.84375 15.058594 15.738281 16.164062 14.371094 16.164062 L 11.171875 16.164062 C 9.808594 16.164062 8.699219 15.058594 8.699219 13.691406 L 8.699219 10.660156 C 8.699219 9.296875 9.808594 8.191406 11.171875 8.191406 Z M 11.171875 8.191406 "/>
</g>
</g>
<g clip-path="url(#clip3)" clip-rule="nonzero">
<g clip-path="url(#clip4)" clip-rule="nonzero">
<path style="fill:none;stroke-width:1.852743;stroke-linecap:round;stroke-linejoin:round;stroke:rgb(90.196079%,0.784314%,70.588237%);stroke-opacity:1;stroke-miterlimit:4;" d="M 4.488811 2.215601 L 7.630535 2.215601 C 8.973152 2.215601 10.058754 3.181636 10.058754 4.372965 L 10.058754 7.021879 C 10.058754 8.216621 8.973152 9.182656 7.630535 9.182656 L 4.488811 9.182656 C 3.150029 9.182656 2.060592 8.216621 2.060592 7.021879 L 2.060592 4.372965 C 2.060592 3.181636 3.150029 2.215601 4.488811 2.215601 Z M 4.488811 2.215601 " transform="matrix(1.0183,0,0,1.144337,6.600918,5.656012)"/>
</g>
</g>
<path style=" stroke:none;fill-rule:evenodd;fill:rgb(95.294118%,71.764708%,85.09804%);fill-opacity:1;" d="M 16.015625 12.339844 L 19.09375 12.339844 C 19.449219 12.339844 19.738281 12.636719 19.738281 13.003906 L 19.738281 14.992188 C 19.738281 15.359375 19.449219 15.65625 19.09375 15.65625 L 16.015625 15.65625 C 15.65625 15.65625 15.367188 15.359375 15.367188 14.992188 L 15.367188 13.003906 C 15.367188 12.636719 15.65625 12.339844 16.015625 12.339844 Z M 16.015625 12.339844 "/>
<path style="fill-rule:evenodd;fill:rgb(95.294118%,71.764708%,85.09804%);fill-opacity:1;stroke-width:1.602536;stroke-linecap:round;stroke-linejoin:round;stroke:rgb(90.196079%,0.784314%,70.588237%);stroke-opacity:1;stroke-miterlimit:4;" d="M 9.193633 12.655394 L 19.352982 12.655394 C 21.091769 12.655394 22.499964 14.208664 22.499964 16.128679 L 22.499964 19.025652 C 22.499964 20.945666 21.091769 22.498937 19.352982 22.498937 L 9.193633 22.498937 C 7.454846 22.498937 6.046651 20.945666 6.046651 19.025652 L 6.046651 16.128679 C 6.046651 14.208664 7.454846 12.655394 9.193633 12.655394 Z M 9.193633 12.655394 " transform="matrix(1.228856,0,0,1.267487,1.307819,0.615704)"/>
<path style="fill:none;stroke-width:1.602536;stroke-linecap:butt;stroke-linejoin:miter;stroke:rgb(61.56863%,22.745098%,60.784316%);stroke-opacity:1;stroke-miterlimit:4;" d="M 6.869952 18.603433 L 21.714808 18.603433 " transform="matrix(1.228856,0,0,1.267487,1.307819,0.615704)"/>
</g>
</svg>
