<?xml version="1.0" encoding="UTF-8"?>
<svg xmlns="http://www.w3.org/2000/svg" xmlns:xlink="http://www.w3.org/1999/xlink" width="32px" height="32px" viewBox="0 0 32 32" version="1.1">
<defs>
<clipPath id="clip1">
  <path d="M 3 3 L 14 3 L 14 11 L 3 11 Z M 3 3 "/>
</clipPath>
<clipPath id="clip2">
  <path d="M 1.773438 10.542969 L 28.8125 10.542969 C 28.917969 10.542969 29 10.449219 29 10.339844 L 29 -0.398438 C 29 -0.511719 28.917969 -0.605469 28.8125 -0.605469 L 1.773438 -0.605469 C 1.667969 -0.605469 1.585938 -0.511719 1.585938 -0.398438 L 1.585938 10.339844 C 1.585938 10.449219 1.667969 10.542969 1.773438 10.542969 Z M 1.773438 10.542969 "/>
</clipPath>
<clipPath id="clip3">
  <path d="M 2 2 L 15 2 L 15 11 L 2 11 Z M 2 2 "/>
</clipPath>
<clipPath id="clip4">
  <path d="M 1.773438 10.542969 L 28.8125 10.542969 C 28.917969 10.542969 29 10.449219 29 10.339844 L 29 -0.398438 C 29 -0.511719 28.917969 -0.605469 28.8125 -0.605469 L 1.773438 -0.605469 C 1.667969 -0.605469 1.585938 -0.511719 1.585938 -0.398438 L 1.585938 10.339844 C 1.585938 10.449219 1.667969 10.542969 1.773438 10.542969 Z M 1.773438 10.542969 "/>
</clipPath>
</defs>
<g id="surface1">
<path style="fill-rule:evenodd;fill:rgb(95.294118%,71.764708%,85.09804%);fill-opacity:1;stroke-width:1;stroke-linecap:round;stroke-linejoin:round;stroke:rgb(90.196079%,0.784314%,70.588237%);stroke-opacity:1;stroke-miterlimit:4;" d="M 3.50139 3.58607 L 12.59514 3.58607 C 13.6635 3.58607 14.530687 4.572398 14.530687 5.787242 L 14.530687 12.316539 C 14.530687 13.531382 13.6635 14.517711 12.59514 14.517711 L 3.50139 14.517711 C 2.433031 14.517711 1.567797 13.531382 1.567797 12.316539 L 1.567797 5.787242 C 1.567797 4.572398 2.433031 3.58607 3.50139 3.58607 Z M 3.50139 3.58607 " transform="matrix(2,0,0,2,-0.135593,-0.20339)"/>
<path style="fill-rule:nonzero;fill:rgb(95.294118%,71.764708%,85.09804%);fill-opacity:1;stroke-width:0.393976;stroke-linecap:butt;stroke-linejoin:miter;stroke:rgb(61.56863%,22.745098%,60.784316%);stroke-opacity:1;stroke-miterlimit:4;" d="M 13.89972 1.910118 L 12.698712 3.510681 L 14.299203 4.710461 L 15.500212 3.112467 L 15.000858 2.113078 Z M 13.89972 1.910118 " transform="matrix(1.525411,0,0,1.520461,5.473001,1.318397)"/>
<path style="fill-rule:nonzero;fill:rgb(95.294118%,71.764708%,85.09804%);fill-opacity:1;stroke-width:0.262651;stroke-linecap:butt;stroke-linejoin:miter;stroke:rgb(61.56863%,22.745098%,60.784316%);stroke-opacity:1;stroke-miterlimit:4;" d="M 7.794807 11.706181 L 8.194289 9.507012 L 8.895945 9.406816 L 8.785831 9.95147 L 9.300549 9.712542 L 9.185313 10.252058 L 9.702592 10.015698 L 9.79478 10.709361 L 7.794807 11.706181 " transform="matrix(1.525411,0,0,1.520461,5.473001,1.318397)"/>
<path style="fill-rule:nonzero;fill:rgb(61.56863%,22.745098%,60.784316%);fill-opacity:1;stroke-width:0.131325;stroke-linecap:butt;stroke-linejoin:miter;stroke:rgb(61.56863%,22.745098%,60.784316%);stroke-opacity:1;stroke-miterlimit:4;" d="M 8.13283 10.593751 L 8.675717 11.040778 L 7.794807 11.713888 Z M 8.13283 10.593751 " transform="matrix(1.525411,0,0,1.520461,5.473001,1.318397)"/>
<path style="fill-rule:nonzero;fill:rgb(90.196079%,0.784314%,70.588237%);fill-opacity:1;stroke-width:0.131325;stroke-linecap:butt;stroke-linejoin:miter;stroke:rgb(61.56863%,22.745098%,60.784316%);stroke-opacity:1;stroke-miterlimit:4;" d="M 12.698712 3.510681 L 14.299203 4.710461 L 9.79478 10.709361 L 9.702592 10.015698 L 9.185313 10.252058 L 9.228847 9.797323 L 8.785831 9.95147 L 8.839607 9.481321 L 8.194289 9.507012 Z M 12.698712 3.510681 " transform="matrix(1.525411,0,0,1.520461,5.473001,1.318397)"/>
<path style="fill:none;stroke-width:0.919278;stroke-linecap:butt;stroke-linejoin:round;stroke:rgb(61.56863%,22.745098%,60.784316%);stroke-opacity:1;stroke-miterlimit:4;" d="M 13.600109 2.310901 L 8.194289 9.507012 L 7.492634 12.106964 L 9.79478 10.709361 L 15.198039 3.51325 C 15.997004 2.480463 14.432364 1.234439 13.600109 2.310901 Z M 13.600109 2.310901 " transform="matrix(1.525411,0,0,1.520461,5.473001,1.318397)"/>
<g clip-path="url(#clip1)" clip-rule="nonzero">
<g clip-path="url(#clip2)" clip-rule="nonzero">
<path style=" stroke:none;fill-rule:evenodd;fill:rgb(95.294118%,71.764708%,85.09804%);fill-opacity:1;" d="M 5.933594 3.101562 L 10.46875 3.101562 C 12.085938 3.101562 13.398438 4.613281 13.398438 6.480469 L 13.398438 9.585938 C 13.398438 11.449219 12.085938 12.960938 10.46875 12.960938 L 5.933594 12.960938 C 4.316406 12.960938 3.007812 11.449219 3.007812 9.585938 L 3.007812 6.480469 C 3.007812 4.613281 4.316406 3.101562 5.933594 3.101562 Z M 5.933594 3.101562 "/>
</g>
</g>
<g clip-path="url(#clip3)" clip-rule="nonzero">
<g clip-path="url(#clip4)" clip-rule="nonzero">
<path style="fill:none;stroke-width:1.475344;stroke-linecap:round;stroke-linejoin:round;stroke:rgb(90.196079%,0.784314%,70.588237%);stroke-opacity:1;stroke-miterlimit:4;" d="M 4.313416 2.214098 L 7.805408 2.214098 C 9.050614 2.214098 10.061217 3.282455 10.061217 4.602028 L 10.061217 6.796716 C 10.061217 8.113528 9.050614 9.181886 7.805408 9.181886 L 4.313416 9.181886 C 3.06821 9.181886 2.060615 8.113528 2.060615 6.796716 L 2.060615 4.602028 C 2.060615 3.282455 3.06821 2.214098 4.313416 2.214098 Z M 4.313416 2.214098 " transform="matrix(1.29873,0,0,1.414994,0.331629,-0.0313712)"/>
</g>
</g>
<path style=" stroke:none;fill-rule:evenodd;fill:rgb(95.294118%,71.764708%,85.09804%);fill-opacity:1;" d="M 11 8 L 16.574219 8 L 16.574219 12.101562 L 11 12.101562 Z M 11 8 "/>
<path style="fill-rule:nonzero;fill:rgb(90.196079%,0.784314%,70.588237%);fill-opacity:1;stroke-width:0.5;stroke-linecap:butt;stroke-linejoin:miter;stroke:rgb(61.56863%,22.745098%,60.784316%);stroke-opacity:1;stroke-miterlimit:4;" d="M 3.050218 2.298961 C 2.872484 2.298961 2.585375 2.455211 2.585375 2.646617 L 2.585375 13.550914 C 2.585375 13.744273 2.872484 14.052867 3.050218 14.052867 L 12.9135 14.052867 C 13.198656 14.052867 13.343187 13.529429 13.143968 13.308726 L 3.280687 2.404429 C 3.22014 2.33607 3.136156 2.298961 3.050218 2.298961 Z M 3.727953 5.035289 L 9.899828 12.441539 L 3.727953 12.441539 Z M 3.727953 5.035289 " transform="matrix(2,0,0,2,-0.135593,-0.20339)"/>
<path style="fill-rule:evenodd;fill:rgb(95.294118%,71.764708%,85.09804%);fill-opacity:1;stroke-width:1;stroke-linecap:round;stroke-linejoin:round;stroke:rgb(90.196079%,0.784314%,70.588237%);stroke-opacity:1;stroke-miterlimit:4;" d="M 3.530687 6.886851 L 12.556078 6.886851 C 13.624437 6.886851 14.489672 7.871226 14.489672 9.088023 L 14.489672 12.400523 C 14.489672 13.615367 13.624437 14.601695 12.556078 14.601695 L 3.530687 14.601695 C 2.462328 14.601695 1.59514 13.615367 1.59514 12.400523 L 1.59514 9.088023 C 1.59514 7.871226 2.462328 6.886851 3.530687 6.886851 Z M 3.530687 6.886851 " transform="matrix(2,0,0,2,-0.135593,-0.20339)"/>
<path style="fill:none;stroke-width:1;stroke-linecap:butt;stroke-linejoin:miter;stroke:rgb(61.56863%,22.745098%,60.784316%);stroke-opacity:1;stroke-miterlimit:4;" d="M 1.893968 11.547007 L 14.22014 11.547007 " transform="matrix(2,0,0,2,-0.135593,-0.20339)"/>
<path style="fill:none;stroke-width:1;stroke-linecap:butt;stroke-linejoin:miter;stroke:rgb(61.56863%,22.745098%,60.784316%);stroke-opacity:1;stroke-miterlimit:4;" d="M 1.87639 12.750132 L 14.22014 12.750132 " transform="matrix(2,0,0,2,-0.135593,-0.20339)"/>
</g>
</svg>
