<?xml version="1.0" encoding="UTF-8"?>
<svg xmlns="http://www.w3.org/2000/svg" xmlns:xlink="http://www.w3.org/1999/xlink" width="32px" height="32px" viewBox="0 0 32 32" version="1.1">
<g id="surface1">
<path style="fill:none;stroke-width:0.264583;stroke-linecap:round;stroke-linejoin:miter;stroke:rgb(90.196079%,0.784314%,70.588237%);stroke-opacity:1;stroke-miterlimit:4;" d="M 3.836458 1.852083 C 2.513542 1.852083 2.513542 1.852083 2.513542 1.852083 " transform="matrix(7.559055,0,0,7.559055,0.00000180222,0)"/>
<path style="fill:none;stroke-width:0.264583;stroke-linecap:round;stroke-linejoin:miter;stroke:rgb(90.196079%,0.784314%,70.588237%);stroke-opacity:1;stroke-miterlimit:4;" d="M 3.836458 1.322917 C 2.513542 1.322917 2.513542 1.322917 2.513542 1.322917 " transform="matrix(7.559055,0,0,7.559055,0.00000180222,0)"/>
<path style="fill:none;stroke-width:0.264583;stroke-linecap:round;stroke-linejoin:round;stroke:rgb(90.196079%,0.784314%,70.588237%);stroke-opacity:1;stroke-miterlimit:4;" d="M 1.058333 3.834392 L 1.058333 0.659391 " transform="matrix(7.559055,0,0,7.559055,0.00000180222,0)"/>
<path style="fill:none;stroke-width:0.264583;stroke-linecap:round;stroke-linejoin:round;stroke:rgb(90.196079%,0.784314%,70.588237%);stroke-opacity:1;stroke-miterlimit:4;" d="M 0.396875 0.923975 L 1.058333 0.394808 L 1.719792 0.923975 " transform="matrix(7.559055,0,0,7.559055,0.00000180222,0)"/>
<path style="fill-rule:evenodd;fill:rgb(90.196079%,0.784314%,70.588237%);fill-opacity:1;stroke-width:0.264583;stroke-linecap:round;stroke-linejoin:round;stroke:rgb(61.56863%,22.745098%,60.784316%);stroke-opacity:1;stroke-miterlimit:4;" d="M 2.116667 -2.910417 L 3.704167 -2.910417 C 3.77703 -2.910417 3.836458 -2.850989 3.836458 -2.778125 L 3.836458 -2.513542 C 3.836458 -2.440678 3.77703 -2.38125 3.704167 -2.38125 L 2.116667 -2.38125 C 2.043803 -2.38125 1.984375 -2.440678 1.984375 -2.513542 L 1.984375 -2.778125 C 1.984375 -2.850989 2.043803 -2.910417 2.116667 -2.910417 Z M 2.116667 -2.910417 " transform="matrix(7.559055,0,0,-7.559055,0.00000180222,0)"/>
<path style="fill-rule:evenodd;fill:rgb(90.196079%,0.784314%,70.588237%);fill-opacity:1;stroke-width:0.264583;stroke-linecap:round;stroke-linejoin:round;stroke:rgb(61.56863%,22.745098%,60.784316%);stroke-opacity:1;stroke-miterlimit:4;" d="M 2.116667 -0.926042 L 3.704167 -0.926042 C 3.77703 -0.926042 3.836458 -0.866614 3.836458 -0.79375 L 3.836458 -0.529167 C 3.836458 -0.456303 3.77703 -0.396875 3.704167 -0.396875 L 2.116667 -0.396875 C 2.043803 -0.396875 1.984375 -0.456303 1.984375 -0.529167 L 1.984375 -0.79375 C 1.984375 -0.866614 2.043803 -0.926042 2.116667 -0.926042 Z M 2.116667 -0.926042 " transform="matrix(7.559055,0,0,-7.559055,0.00000180222,0)"/>
<path style="fill:none;stroke-width:0.264583;stroke-linecap:round;stroke-linejoin:miter;stroke:rgb(90.196079%,0.784314%,70.588237%);stroke-opacity:1;stroke-miterlimit:4;" d="M 3.836458 3.836459 C 2.513542 3.836459 2.513542 3.836459 2.513542 3.836459 " transform="matrix(7.559055,0,0,7.559055,0.00000180222,0)"/>
<path style="fill:none;stroke-width:0.264583;stroke-linecap:round;stroke-linejoin:miter;stroke:rgb(90.196079%,0.784314%,70.588237%);stroke-opacity:1;stroke-miterlimit:4;" d="M 3.836458 3.307292 C 2.513542 3.307292 2.513542 3.307292 2.513542 3.307292 " transform="matrix(7.559055,0,0,7.559055,0.00000180222,0)"/>
</g>
</svg>
