<?xml version="1.0" encoding="UTF-8"?>
<svg xmlns="http://www.w3.org/2000/svg" xmlns:xlink="http://www.w3.org/1999/xlink" width="32px" height="32px" viewBox="0 0 32 32" version="1.1">
<g id="surface1">
<path style="fill:none;stroke-width:0.398731;stroke-linecap:round;stroke-linejoin:miter;stroke:rgb(61.56863%,22.745098%,60.784316%);stroke-opacity:1;stroke-miterlimit:4;" d="M 5.736679 2.259619 C 2.260222 2.259619 2.260222 2.259619 2.260222 2.259619 " transform="matrix(4.703514,0,0,4.680423,1.056513,9.177936)"/>
<path style="fill:none;stroke-width:0.426262;stroke-linecap:round;stroke-linejoin:miter;stroke:rgb(61.56863%,22.745098%,60.784316%);stroke-opacity:1;stroke-miterlimit:4;" d="M 5.689341 3.06667 C 2.260222 3.06667 2.260222 3.06667 2.260222 3.06667 " transform="matrix(4.703514,0,0,4.680423,1.056513,9.177936)"/>
<path style="fill-rule:nonzero;fill:rgb(95.294118%,71.764708%,85.09804%);fill-opacity:1;stroke-width:0.426262;stroke-linecap:butt;stroke-linejoin:miter;stroke:rgb(90.196079%,0.784314%,70.588237%);stroke-opacity:1;stroke-miterlimit:4;" d="M 1.256152 -0.427772 C 1.256152 -0.18574 1.057664 0.00955479 0.813498 0.00955479 C 0.568502 0.00955479 0.370013 -0.18574 0.370013 -0.427772 C 0.370013 -0.66897 0.568502 -0.865099 0.813498 -0.865099 C 1.057664 -0.865099 1.256152 -0.66897 1.256152 -0.427772 Z M 1.256152 -0.427772 " transform="matrix(4.703514,0,0,4.680423,1.056513,9.177936)"/>
<path style="fill:none;stroke-width:0.426262;stroke-linecap:round;stroke-linejoin:miter;stroke:rgb(61.56863%,22.745098%,60.784316%);stroke-opacity:1;stroke-miterlimit:4;" d="M 5.715917 -0.886799 C 2.263544 -0.886799 2.263544 -0.886799 2.263544 -0.886799 " transform="matrix(4.703514,0,0,4.680423,1.056513,9.177936)"/>
<path style="fill:none;stroke-width:0.426262;stroke-linecap:round;stroke-linejoin:miter;stroke:rgb(61.56863%,22.745098%,60.784316%);stroke-opacity:1;stroke-miterlimit:4;" d="M 5.705951 -0.138168 C 2.276002 -0.138168 2.276002 -0.138168 2.276002 -0.138168 " transform="matrix(4.703514,0,0,4.680423,1.056513,9.177936)"/>
<path style="fill-rule:evenodd;fill:rgb(94.117647%,89.019608%,92.54902%);fill-opacity:1;stroke-width:1.611067;stroke-linecap:round;stroke-linejoin:round;stroke:rgb(90.196079%,0.784314%,70.588237%);stroke-opacity:1;stroke-miterlimit:4;" d="M 15.971904 8.511556 L 20.046174 8.511556 C 21.37706 8.511556 22.456836 9.593505 22.456836 10.934111 L 22.456836 20.078626 C 22.456836 21.416078 21.37706 22.501181 20.046174 22.501181 L 15.971904 22.501181 C 14.641018 22.501181 13.561242 21.416078 13.561242 20.078626 L 13.561242 10.934111 C 13.561242 9.593505 14.641018 8.511556 15.971904 8.511556 Z M 15.971904 8.511556 " transform="matrix(1.244471,0,0,1.238362,1.150765,-0.763044)"/>
<path style="fill-rule:evenodd;fill:rgb(95.294118%,71.764708%,85.09804%);fill-opacity:1;stroke-width:1.611067;stroke-linecap:round;stroke-linejoin:round;stroke:rgb(90.196079%,0.784314%,70.588237%);stroke-opacity:1;stroke-miterlimit:4;" d="M 16.891597 11.498743 L 19.107648 11.498743 C 19.876675 11.498743 20.501312 12.224248 20.501312 13.116934 L 20.501312 18.88312 C 20.501312 19.775806 19.876675 20.501311 19.107648 20.501311 L 16.891597 20.501311 C 16.122571 20.501311 15.501072 19.775806 15.501072 18.88312 L 15.501072 13.116934 C 15.501072 12.224248 16.122571 11.498743 16.891597 11.498743 Z M 16.891597 11.498743 " transform="matrix(1.244471,0,0,1.238362,1.150765,-0.763044)"/>
<path style="fill:none;stroke-width:1.611067;stroke-linecap:round;stroke-linejoin:round;stroke:rgb(61.56863%,22.745098%,60.784316%);stroke-opacity:1;stroke-miterlimit:4;" d="M 18.420233 14.186265 C 18.420233 14.41338 18.235039 14.596333 18.0059 14.596333 C 17.776762 14.599488 17.588429 14.416534 17.58529 14.192574 C 17.58529 13.96546 17.767345 13.779352 17.996484 13.776198 C 18.225622 13.769889 18.413955 13.949688 18.420233 14.176802 L 18.002761 14.186265 Z M 18.420233 14.186265 " transform="matrix(1.244471,0,0,1.238362,1.150765,-0.763044)"/>
<path style="fill:none;stroke-width:1.611067;stroke-linecap:round;stroke-linejoin:round;stroke:rgb(90.196079%,0.784314%,70.588237%);stroke-opacity:1;stroke-miterlimit:4;" d="M 17.9494 16.744458 L 17.9494 18.775872 " transform="matrix(1.244471,0,0,1.238362,1.150765,-0.763044)"/>
<path style="fill-rule:nonzero;fill:rgb(95.294118%,71.764708%,85.09804%);fill-opacity:1;stroke-width:0.426262;stroke-linecap:butt;stroke-linejoin:miter;stroke:rgb(90.196079%,0.784314%,70.588237%);stroke-opacity:1;stroke-miterlimit:4;" d="M 1.280237 2.544215 C 1.280237 2.785412 1.081748 2.981542 0.836752 2.981542 C 0.592586 2.981542 0.394097 2.785412 0.394097 2.544215 C 0.394097 2.302183 0.592586 2.106888 0.836752 2.106888 C 1.081748 2.106888 1.280237 2.302183 1.280237 2.544215 Z M 1.280237 2.544215 " transform="matrix(4.703514,0,0,4.680423,1.056513,9.177936)"/>
</g>
</svg>
