<?xml version="1.0" encoding="UTF-8"?>
<svg xmlns="http://www.w3.org/2000/svg" xmlns:xlink="http://www.w3.org/1999/xlink" width="32px" height="32px" viewBox="0 0 32 32" version="1.1">
<g id="surface1">
<path style="fill:none;stroke-width:0.132292;stroke-linecap:butt;stroke-linejoin:miter;stroke:rgb(90.196079%,0.784314%,70.588237%);stroke-opacity:1;stroke-miterlimit:4;" d="M 3.515031 3.412712 C 3.527433 3.434933 3.533634 3.459221 3.533634 3.485059 C 3.533634 3.5264 3.517098 3.56154 3.484025 3.590479 C 3.450952 3.617867 3.412195 3.63182 3.36827 3.63182 C 3.29644 3.63182 3.24683 3.59823 3.219442 3.530534 L 2.919718 2.844271 L 1.321883 2.844271 L 1.018026 3.530534 C 0.99012 3.59823 0.940511 3.63182 0.869197 3.63182 C 0.824756 3.63182 0.785482 3.61735 0.751375 3.588412 C 0.716752 3.558439 0.699699 3.522266 0.699699 3.480925 C 0.699699 3.45767 0.7059 3.434933 0.718302 3.412712 L 1.927531 0.719336 C 1.945101 0.681095 1.970939 0.652157 2.004012 0.63252 C 2.038118 0.611849 2.074809 0.601514 2.113566 0.601514 C 2.155941 0.601514 2.194181 0.612883 2.227254 0.634587 C 2.261361 0.655257 2.287716 0.683679 2.305802 0.719336 Z M 1.450041 2.55695 L 2.791561 2.55695 L 2.1177 1.037663 Z M 0.577742 -0.66921 " transform="matrix(7.559055,0,0,7.559055,0.00000180222,0)"/>
</g>
</svg>
