<?xml version="1.0" encoding="UTF-8"?>
<svg xmlns="http://www.w3.org/2000/svg" xmlns:xlink="http://www.w3.org/1999/xlink" width="32px" height="32px" viewBox="0 0 32 32" version="1.1">
<g id="surface1">
<path style=" stroke:none;fill-rule:nonzero;fill:rgb(61.56863%,22.745098%,60.784316%);fill-opacity:1;" d="M 2.445312 4 L 29.554688 4 C 29.800781 4 30 3.742188 30 3.425781 L 30 2.574219 C 30 2.257812 29.800781 2 29.554688 2 L 2.445312 2 C 2.199219 2 2 2.257812 2 2.574219 L 2 3.425781 C 2 3.742188 2.199219 4 2.445312 4 Z M 2.445312 4 "/>
<path style=" stroke:none;fill-rule:nonzero;fill:rgb(90.196079%,0.784314%,70.588237%);fill-opacity:1;" d="M 16.023438 30.011719 C 12.386719 30.011719 9.316406 28.863281 6.8125 26.566406 C 4.308594 24.246094 3.058594 21.226562 3.058594 17.503906 C 3.058594 13.855469 4.296875 10.855469 6.773438 8.511719 C 9.25 6.167969 12.414062 4.996094 16.265625 4.996094 C 20.140625 4.996094 23.304688 6.167969 25.753906 8.511719 C 28.230469 10.832031 29.46875 13.878906 29.46875 17.648438 C 29.46875 21.296875 28.21875 24.269531 25.714844 26.566406 C 23.238281 28.863281 20.007812 30.011719 16.023438 30.011719 Z M 24.867188 17.613281 C 24.867188 15.871094 24.675781 14.324219 24.300781 12.972656 C 23.921875 11.617188 23.4375 10.53125 22.847656 9.707031 C 22.28125 8.886719 21.609375 8.210938 20.828125 7.679688 C 20.046875 7.148438 19.28125 6.785156 18.527344 6.589844 C 17.796875 6.398438 17.042969 6.300781 16.265625 6.300781 C 14.945312 6.300781 13.761719 6.554688 12.710938 7.0625 C 11.660156 7.570312 10.824219 8.210938 10.207031 8.984375 C 9.613281 9.734375 9.117188 10.625 8.710938 11.667969 C 8.308594 12.707031 8.027344 13.707031 7.863281 14.675781 C 7.730469 15.617188 7.660156 16.585938 7.660156 17.574219 C 7.660156 18.808594 7.796875 20.015625 8.066406 21.199219 C 8.335938 22.386719 8.765625 23.570312 9.359375 24.753906 C 9.949219 25.9375 10.824219 26.894531 11.984375 27.617188 C 13.167969 28.34375 14.566406 28.707031 16.183594 28.707031 C 17.824219 28.707031 19.238281 28.34375 20.421875 27.617188 C 21.636719 26.894531 22.535156 25.9375 23.128906 24.753906 C 23.75 23.570312 24.191406 22.386719 24.460938 21.199219 C 24.730469 20.015625 24.867188 18.820312 24.867188 17.613281 Z M 24.867188 17.613281 "/>
</g>
</svg>
