<?xml version="1.0" encoding="UTF-8"?>
<svg xmlns="http://www.w3.org/2000/svg" xmlns:xlink="http://www.w3.org/1999/xlink" width="32px" height="32px" viewBox="0 0 32 32" version="1.1">
<g id="surface1">
<path style="fill-rule:evenodd;fill:rgb(94.117647%,89.019608%,92.54902%);fill-opacity:1;stroke-width:1.619562;stroke-linecap:round;stroke-linejoin:round;stroke:rgb(90.196079%,0.784314%,70.588237%);stroke-opacity:1;stroke-miterlimit:4;" d="M 3.223051 1.498869 L 17.985797 1.498869 C 18.877825 1.498869 19.605365 2.226403 19.605365 3.118424 L 19.605365 20.879756 C 19.605365 21.77494 18.877825 22.499311 17.985797 22.499311 L 3.223051 22.499311 C 2.331023 22.499311 1.603483 21.77494 1.603483 20.879756 L 1.603483 3.118424 C 1.603483 2.226403 2.331023 1.498869 3.223051 1.498869 Z M 3.223051 1.498869 " transform="matrix(1.234897,0,0,1.234907,1.031583,1.242787)"/>
<path style="fill-rule:nonzero;fill:rgb(61.56863%,22.745098%,60.784316%);fill-opacity:1;stroke-width:0.40489;stroke-linecap:butt;stroke-linejoin:miter;stroke:rgb(61.56863%,22.745098%,60.784316%);stroke-opacity:1;stroke-miterlimit:4;" d="M 4.206812 5.193479 C 4.266914 4.554514 4.719254 4.089524 5.288633 4.089524 C 5.665057 4.089524 6.013011 4.291969 6.20913 4.617778 C 6.402087 4.288805 6.734225 4.089524 7.104321 4.089524 C 7.673701 4.089524 8.126041 4.554514 8.186143 5.193479 C 8.189306 5.221948 8.208285 5.370618 8.151347 5.61102 C 8.069103 5.962135 7.876147 6.278454 7.597784 6.53151 L 6.20913 7.787298 L 4.795171 6.53151 C 4.516808 6.278454 4.323851 5.962135 4.241608 5.61102 C 4.18467 5.370618 4.203649 5.221948 4.206812 5.193479 Z M 4.390279 5.576225 C 4.466196 5.895708 4.643337 6.186722 4.896394 6.417635 L 6.20913 7.58169 L 7.496561 6.417635 C 7.752781 6.186722 7.926759 5.895708 8.002676 5.576225 C 8.056451 5.348475 8.034308 5.218784 8.034308 5.215621 L 8.031145 5.209295 C 7.983697 4.649409 7.591457 4.244521 7.104321 4.244521 C 6.746878 4.244521 6.430556 4.462781 6.278721 4.817059 L 6.20913 4.984708 L 6.136376 4.817059 C 5.990868 4.469107 5.655567 4.244521 5.288633 4.244521 C 4.801498 4.244521 4.409258 4.649409 4.358647 5.215621 C 4.358647 5.218784 4.336504 5.348475 4.390279 5.576225 Z M 4.390279 5.576225 " transform="matrix(1.234897,0,0,1.234907,1.031583,1.242787)"/>
<path style="fill:none;stroke-width:1.619562;stroke-linecap:round;stroke-linejoin:miter;stroke:rgb(90.196079%,0.784314%,70.588237%);stroke-opacity:1;stroke-miterlimit:4;" d="M 4.621194 9.568176 L 16.483267 9.568176 " transform="matrix(1.234897,0,0,1.234907,1.031583,1.242787)"/>
<path style="fill:none;stroke-width:1.619562;stroke-linecap:round;stroke-linejoin:miter;stroke:rgb(90.196079%,0.784314%,70.588237%);stroke-opacity:1;stroke-miterlimit:4;" d="M 4.621194 12.500456 L 16.483267 12.500456 " transform="matrix(1.234897,0,0,1.234907,1.031583,1.242787)"/>
<path style="fill:none;stroke-width:1.619562;stroke-linecap:round;stroke-linejoin:miter;stroke:rgb(90.196079%,0.784314%,70.588237%);stroke-opacity:1;stroke-miterlimit:4;" d="M 4.529461 15.543448 L 16.391534 15.543448 " transform="matrix(1.234897,0,0,1.234907,1.031583,1.242787)"/>
<path style="fill-rule:evenodd;fill:rgb(94.117647%,89.019608%,92.54902%);fill-opacity:1;stroke-width:1.60332;stroke-linecap:round;stroke-linejoin:round;stroke:rgb(90.196079%,0.784314%,70.588237%);stroke-opacity:1;stroke-miterlimit:4;" d="M 15.943297 8.51079 L 20.075719 8.51079 C 21.390158 8.51079 22.45659 9.598928 22.45659 10.940123 L 22.45659 20.069099 C 22.45659 21.413457 21.390158 22.498432 20.075719 22.498432 L 15.943297 22.498432 C 14.625757 22.498432 13.562426 21.413457 13.562426 20.069099 L 13.562426 10.940123 C 13.562426 9.598928 14.625757 8.51079 15.943297 8.51079 Z M 15.943297 8.51079 " transform="matrix(1.260043,0,0,1.234907,0.680289,1.294653)"/>
<path style="fill-rule:evenodd;fill:rgb(95.294118%,71.764708%,85.09804%);fill-opacity:1;stroke-width:1.60332;stroke-linecap:round;stroke-linejoin:round;stroke:rgb(90.196079%,0.784314%,70.588237%);stroke-opacity:1;stroke-miterlimit:4;" d="M 17.880854 11.500008 L 18.119561 11.500008 C 19.434 11.500008 20.500432 12.588146 20.500432 13.92934 L 20.500432 18.069961 C 20.500432 19.411155 19.434 20.499294 18.119561 20.499294 L 17.880854 20.499294 C 16.566415 20.499294 15.499983 19.411155 15.499983 18.069961 L 15.499983 13.92934 C 15.499983 12.588146 16.566415 11.500008 17.880854 11.500008 Z M 17.880854 11.500008 " transform="matrix(1.260043,0,0,1.234907,0.680289,1.294653)"/>
<path style="fill:none;stroke-width:1.60332;stroke-linecap:round;stroke-linejoin:round;stroke:rgb(61.56863%,22.745098%,60.784316%);stroke-opacity:1;stroke-miterlimit:4;" d="M 18.42027 14.185559 C 18.42027 14.413309 18.234265 14.596774 18.004858 14.596774 C 17.775451 14.599938 17.589445 14.416472 17.586345 14.191886 C 17.583245 13.964136 17.766151 13.777507 17.995558 13.774344 C 18.224964 13.771181 18.41407 13.951483 18.42027 14.17607 L 18.004858 14.185559 Z M 18.42027 14.185559 " transform="matrix(1.260043,0,0,1.234907,0.680289,1.294653)"/>
<path style="fill:none;stroke-width:1.60332;stroke-linecap:round;stroke-linejoin:round;stroke:rgb(90.196079%,0.784314%,70.588237%);stroke-opacity:1;stroke-miterlimit:4;" d="M 17.949056 16.899579 L 17.949056 19.423808 " transform="matrix(1.260043,0,0,1.234907,0.680289,1.294653)"/>
</g>
</svg>
