<?xml version="1.0" encoding="UTF-8"?>
<svg xmlns="http://www.w3.org/2000/svg" xmlns:xlink="http://www.w3.org/1999/xlink" width="32px" height="32px" viewBox="0 0 32 32" version="1.1">
<g id="surface1">
<path style=" stroke:none;fill-rule:nonzero;fill:rgb(90.196079%,0.784314%,70.588237%);fill-opacity:1;" d="M 4 2 L 4 30 L 28 30 L 28 2 Z M 4 2 "/>
<path style=" stroke:none;fill-rule:nonzero;fill:rgb(95.294118%,71.764708%,85.09804%);fill-opacity:1;" d="M 6.171875 4 C 6.035156 4 5.925781 4.109375 5.925781 4.246094 L 5.960938 16 L 5.925781 27.753906 C 5.925781 27.890625 6.035156 28 6.171875 28 L 25.753906 28 C 25.890625 28 26 27.890625 26 27.753906 L 26 4.246094 C 26 4.109375 25.890625 4 25.753906 4 Z M 6.171875 4 "/>
<path style=" stroke:none;fill-rule:nonzero;fill:rgb(61.56863%,22.745098%,60.784316%);fill-opacity:1;" d="M 8 2 L 10 2 L 10 30 L 8 30 Z M 8 2 "/>
<path style=" stroke:none;fill-rule:nonzero;fill:rgb(61.56863%,22.745098%,60.784316%);fill-opacity:1;" d="M 22 2 L 24 2 L 24 30 L 22 30 Z M 22 2 "/>
<path style=" stroke:none;fill-rule:nonzero;fill:rgb(61.56863%,22.745098%,60.784316%);fill-opacity:1;" d="M 4 6 L 28 6 L 28 8 L 4 8 Z M 4 6 "/>
<path style=" stroke:none;fill-rule:nonzero;fill:rgb(61.56863%,22.745098%,60.784316%);fill-opacity:1;" d="M 4 24 L 28 24 L 28 26 L 4 26 Z M 4 24 "/>
</g>
</svg>
