<?xml version="1.0" encoding="UTF-8"?>
<svg xmlns="http://www.w3.org/2000/svg" xmlns:xlink="http://www.w3.org/1999/xlink" width="32px" height="32px" viewBox="0 0 32 32" version="1.1">
<g id="surface1">
<path style="fill-rule:evenodd;fill:rgb(94.117647%,89.019608%,92.54902%);fill-opacity:0.950495;stroke-width:1.939432;stroke-linecap:round;stroke-linejoin:round;stroke:rgb(90.196079%,0.784314%,70.588237%);stroke-opacity:1;stroke-miterlimit:4;" d="M -287.052461 4.233339 L -273.531521 4.233339 C -272.46388 4.233339 -271.599958 5.104314 -271.599958 6.180672 L -271.599958 27.601336 C -271.599958 28.677693 -272.46388 29.548669 -273.531521 29.548669 L -287.052461 29.548669 C -288.120102 29.548669 -288.984024 28.677693 -288.984024 27.601336 L -288.984024 6.180672 C -288.984024 5.104314 -288.120102 4.233339 -287.052461 4.233339 Z M -287.052461 4.233339 " transform="matrix(1.035431,0.000000000000000063,-0.000000000000000063,1.027046,306.223003,-1.347832)"/>
<path style=" stroke:none;fill-rule:evenodd;fill:rgb(61.56863%,22.745098%,60.784316%);fill-opacity:0.950495;" d="M 11 6 L 21 6 C 21.550781 6 22 6.449219 22 7 L 22 7.054688 C 22 7.605469 21.550781 8.054688 21 8.054688 L 11 8.054688 C 10.449219 8.054688 10 7.605469 10 7.054688 L 10 7 C 10 6.449219 10.449219 6 11 6 Z M 11 6 "/>
<path style=" stroke:none;fill-rule:evenodd;fill:rgb(61.56863%,22.745098%,60.784316%);fill-opacity:0.950495;" d="M 11 12 L 21 12 C 21.550781 12 22 12.449219 22 13 L 22 13.054688 C 22 13.605469 21.550781 14.054688 21 14.054688 L 11 14.054688 C 10.449219 14.054688 10 13.605469 10 13.054688 L 10 13 C 10 12.449219 10.449219 12 11 12 Z M 11 12 "/>
<path style=" stroke:none;fill-rule:evenodd;fill:rgb(61.56863%,22.745098%,60.784316%);fill-opacity:0.950495;" d="M 11 18 L 21 18 C 21.550781 18 22 18.449219 22 19 L 22 19.054688 C 22 19.605469 21.550781 20.054688 21 20.054688 L 11 20.054688 C 10.449219 20.054688 10 19.605469 10 19.054688 L 10 19 C 10 18.449219 10.449219 18 11 18 Z M 11 18 "/>
<path style=" stroke:none;fill-rule:evenodd;fill:rgb(61.56863%,22.745098%,60.784316%);fill-opacity:0.950495;" d="M 11 23.945312 L 21 23.945312 C 21.550781 23.945312 22 24.394531 22 24.945312 L 22 25 C 22 25.550781 21.550781 26 21 26 L 11 26 C 10.449219 26 10 25.550781 10 25 L 10 24.945312 C 10 24.394531 10.449219 23.945312 11 23.945312 Z M 11 23.945312 "/>
</g>
</svg>
