<?xml version="1.0" encoding="UTF-8"?>
<svg xmlns="http://www.w3.org/2000/svg" xmlns:xlink="http://www.w3.org/1999/xlink" width="32px" height="32px" viewBox="0 0 32 32" version="1.1">
<g id="surface1">
<path style="fill-rule:nonzero;fill:rgb(95.294118%,71.764708%,85.09804%);fill-opacity:1;stroke-width:0.421993;stroke-linecap:round;stroke-linejoin:round;stroke:rgb(90.196079%,0.784314%,70.588237%);stroke-opacity:1;stroke-miterlimit:4;" d="M 2.044894 -1.690551 C 2.034989 -1.689728 2.025909 -1.689728 2.016004 -1.689728 C 2.011052 -1.690551 2.005274 -1.690551 1.999496 -1.690551 C 1.651166 -1.690551 1.306138 -1.555582 1.061812 -1.325969 C 0.817486 -1.095533 0.676339 -0.774569 0.676339 -0.451958 C 0.676339 -0.129348 0.817486 0.191616 1.061812 0.421229 C 1.306138 0.650842 1.651992 0.785812 2.000321 0.786635 C 2.006099 0.785812 2.012703 0.785812 2.018481 0.785812 C 2.069657 0.783343 2.120008 0.802271 2.157978 0.836837 C 2.195122 0.872225 2.215757 0.920781 2.215757 0.970983 L 2.215757 3.865423 L 2.596279 3.865423 L 2.596279 -1.135036 C 2.596279 -1.237086 2.681297 -1.320208 2.786126 -1.320208 L 3.165822 -1.320208 C 3.270651 -1.320208 3.35567 -1.237086 3.356496 -1.135036 L 3.356496 3.865423 L 3.736191 3.865423 L 3.736191 -1.135036 C 3.736191 -1.237086 3.82121 -1.320208 3.926039 -1.320208 L 4.115887 -1.320208 L 4.115887 -1.690551 Z M 2.044894 -1.690551 " transform="matrix(4.732407,0,0,4.746439,1.912572,10.871755)"/>
<path style="fill-rule:evenodd;fill:rgb(94.117647%,89.019608%,92.54902%);fill-opacity:1;stroke-width:1.585326;stroke-linecap:round;stroke-linejoin:round;stroke:rgb(90.196079%,0.784314%,70.588237%);stroke-opacity:1;stroke-miterlimit:4;" d="M 15.93223 8.511394 L 20.087044 8.511394 C 21.395841 8.511394 22.457696 9.576726 22.457696 10.896743 L 22.457696 20.115127 C 22.457696 21.432039 21.395841 22.500477 20.087044 22.500477 L 15.93223 22.500477 C 14.623433 22.500477 13.561578 21.432039 13.561578 20.115127 L 13.561578 10.896743 C 13.561578 9.576726 14.623433 8.511394 15.93223 8.511394 Z M 15.93223 8.511394 " transform="matrix(1.265475,0,0,1.257677,0.388946,0.87354)"/>
<path style="fill-rule:evenodd;fill:rgb(95.294118%,71.764708%,85.09804%);fill-opacity:1;stroke-width:1.585326;stroke-linecap:round;stroke-linejoin:round;stroke:rgb(90.196079%,0.784314%,70.588237%);stroke-opacity:1;stroke-miterlimit:4;" d="M 17.160771 11.499293 L 18.836896 11.499293 C 19.756758 11.499293 20.500673 12.340998 20.500673 13.375271 L 20.500673 18.624283 C 20.500673 19.658556 19.756758 20.500261 18.836896 20.500261 L 17.160771 20.500261 C 16.243995 20.500261 15.50008 19.658556 15.50008 18.624283 L 15.50008 13.375271 C 15.50008 12.340998 16.243995 11.499293 17.160771 11.499293 Z M 17.160771 11.499293 " transform="matrix(1.265475,0,0,1.257677,0.388946,0.87354)"/>
<path style="fill:none;stroke-width:1.585326;stroke-linecap:round;stroke-linejoin:round;stroke:rgb(61.56863%,22.745098%,60.784316%);stroke-opacity:1;stroke-miterlimit:4;" d="M 18.42018 14.185917 C 18.42018 14.41265 18.234972 14.595899 18.00655 14.599005 C 17.778128 14.599005 17.589834 14.418862 17.586747 14.192129 C 17.583661 13.965397 17.765781 13.779041 17.99729 13.775935 C 18.225712 13.769723 18.414006 13.949867 18.42018 14.1766 L 18.003463 14.185917 Z M 18.42018 14.185917 " transform="matrix(1.265475,0,0,1.257677,0.388946,0.87354)"/>
<path style="fill:none;stroke-width:1.585326;stroke-linecap:round;stroke-linejoin:round;stroke:rgb(90.196079%,0.784314%,70.588237%);stroke-opacity:1;stroke-miterlimit:4;" d="M 17.947901 16.78247 L 17.947901 18.93177 " transform="matrix(1.265475,0,0,1.257677,0.388946,0.87354)"/>
</g>
</svg>
