<?xml version="1.0" encoding="UTF-8"?>
<svg xmlns="http://www.w3.org/2000/svg" xmlns:xlink="http://www.w3.org/1999/xlink" width="32px" height="32px" viewBox="0 0 32 32" version="1.1">
<defs>
<clipPath id="clip1">
  <path d="M 16 20.320312 L 29 20.320312 L 29 26 L 16 26 Z M 16 20.320312 "/>
</clipPath>
<clipPath id="clip2">
  <path d="M 15 20.320312 L 30 20.320312 L 30 26.496094 L 15 26.496094 Z M 15 20.320312 "/>
</clipPath>
<clipPath id="clip3">
  <path d="M 16 15 L 29 15 L 29 20.320312 L 16 20.320312 Z M 16 15 "/>
</clipPath>
<clipPath id="clip4">
  <path d="M 15 14.148438 L 30 14.148438 L 30 20.320312 L 15 20.320312 Z M 15 14.148438 "/>
</clipPath>
</defs>
<g id="surface1">
<path style="fill-rule:nonzero;fill:rgb(95.294118%,71.764708%,85.09804%);fill-opacity:1;stroke-width:0.428508;stroke-linecap:round;stroke-linejoin:round;stroke:rgb(90.196079%,0.784314%,70.588237%);stroke-opacity:1;stroke-miterlimit:4;" d="M 2.467795 -1.692975 C 2.477838 -1.692138 2.487044 -1.692138 2.497088 -1.692138 C 2.502109 -1.692975 2.507968 -1.692975 2.512989 -1.692975 C 2.861152 -1.692975 3.206803 -1.558229 3.451186 -1.328074 C 3.69557 -1.097919 3.836174 -0.777375 3.836174 -0.455157 C 3.836174 -0.132103 3.69557 0.188441 3.451186 0.418596 C 3.206803 0.648752 2.861152 0.783497 2.512152 0.783497 C 2.506294 0.783497 2.500435 0.783497 2.494577 0.783497 C 2.442687 0.780987 2.392471 0.799399 2.35481 0.83455 C 2.317985 0.869701 2.297062 0.917406 2.297062 0.968459 L 2.297062 3.862559 L 1.917096 3.862559 L 1.917096 -1.138091 C 1.917096 -1.240196 1.831729 -1.323052 1.727113 -1.323052 L 1.347147 -1.323052 C 1.241694 -1.323052 1.157164 -1.240196 1.157164 -1.138091 L 1.157164 3.862559 L 0.777199 3.862559 L 0.777199 -1.138091 C 0.777199 -1.240196 0.691832 -1.323052 0.587216 -1.323052 L 0.397233 -1.323052 L 0.397233 -1.692975 Z M 2.467795 -1.692975 " transform="matrix(4.667362,0,0,4.667362,1.181126,10.936884)"/>
<g clip-path="url(#clip1)" clip-rule="nonzero">
<path style=" stroke:none;fill-rule:evenodd;fill:rgb(95.294118%,71.764708%,85.09804%);fill-opacity:1;" d="M 28.964844 19.085938 L 28.964844 21.558594 L 21.558594 21.558594 L 21.558594 25.261719 L 16.617188 20.320312 L 21.476562 15.378906 L 21.558594 19.085938 Z M 28.964844 19.085938 "/>
</g>
<g clip-path="url(#clip2)" clip-rule="nonzero">
<path style="fill:none;stroke-width:0.428508;stroke-linecap:round;stroke-linejoin:round;stroke:rgb(90.196079%,0.784314%,70.588237%);stroke-opacity:1;stroke-miterlimit:4;" d="M 0.397233 3.836174 L 0.397233 4.36595 L 1.98405 4.36595 L 1.98405 5.159358 L 3.042765 4.100643 L 2.001626 3.041928 L 1.98405 3.836174 Z M 0.397233 3.836174 " transform="matrix(-4.667362,0,0,4.667362,30.818875,1.181124)"/>
</g>
<g clip-path="url(#clip3)" clip-rule="nonzero">
<path style=" stroke:none;fill-rule:evenodd;fill:rgb(95.294118%,71.764708%,85.09804%);fill-opacity:1;" d="M 28.964844 21.558594 L 28.964844 19.085938 L 21.558594 19.085938 L 21.558594 15.382812 L 16.617188 20.320312 L 21.476562 25.265625 L 21.558594 21.558594 Z M 28.964844 21.558594 "/>
</g>
<g clip-path="url(#clip4)" clip-rule="nonzero">
<path style="fill:none;stroke-width:0.428508;stroke-linecap:round;stroke-linejoin:round;stroke:rgb(90.196079%,0.784314%,70.588237%);stroke-opacity:1;stroke-miterlimit:4;" d="M 0.397233 3.836134 L 0.397233 4.36591 L 1.98405 4.36591 L 1.98405 5.159318 L 3.042765 4.10144 L 2.001626 3.041888 L 1.98405 3.836134 Z M 0.397233 3.836134 " transform="matrix(-4.667362,0,0,-4.667362,30.818875,39.463219)"/>
</g>
</g>
</svg>
