<?xml version="1.0" encoding="UTF-8"?>
<svg xmlns="http://www.w3.org/2000/svg" xmlns:xlink="http://www.w3.org/1999/xlink" width="32px" height="32px" viewBox="0 0 32 32" version="1.1">
<g id="surface1">
<path style="fill-rule:evenodd;fill:rgb(95.294118%,71.764708%,85.09804%);fill-opacity:1;stroke-width:1.654443;stroke-linecap:round;stroke-linejoin:round;stroke:rgb(90.196079%,0.784314%,70.588237%);stroke-opacity:1;stroke-miterlimit:4;" d="M 3.713924 -3.989024 L 16.560935 -3.989024 C 17.971379 -3.989024 19.115701 -2.909252 19.115701 -1.57837 L 19.115701 12.549696 C 19.115701 13.880578 17.971379 14.96035 16.560935 14.96035 L 3.713924 14.96035 C 2.30348 14.96035 1.159158 13.880578 1.159158 12.549696 L 1.159158 -1.57837 C 1.159158 -2.909252 2.30348 -3.989024 3.713924 -3.989024 Z M 3.713924 -3.989024 " transform="matrix(1.174276,0,0,1.244475,1.584141,10.315805)"/>
<path style="fill-rule:evenodd;fill:rgb(94.117647%,89.019608%,92.54902%);fill-opacity:1;stroke-width:0.827221;stroke-linecap:round;stroke-linejoin:round;stroke:rgb(61.56863%,22.745098%,60.784316%);stroke-opacity:1;stroke-miterlimit:4;" d="M 6.361832 -1.364927 L 13.883088 -1.364927 C 15.246961 -1.364927 16.351365 -0.253766 16.351365 1.117922 L 16.351365 9.718433 C 16.351365 11.09012 15.246961 12.201281 13.883088 12.201281 L 6.361832 12.201281 C 4.99796 12.201281 3.893556 11.09012 3.893556 9.718433 L 3.893556 1.117922 C 3.893556 -0.253766 4.99796 -1.364927 6.361832 -1.364927 Z M 6.361832 -1.364927 " transform="matrix(1.174276,0,0,1.244475,1.584141,10.315805)"/>
<path style="fill-rule:evenodd;fill:rgb(95.294118%,71.764708%,85.09804%);fill-opacity:1;stroke-width:1.654443;stroke-linecap:round;stroke-linejoin:round;stroke:rgb(90.196079%,0.784314%,70.588237%);stroke-opacity:1;stroke-miterlimit:4;" d="M 6.937319 -5.037408 L 12.306319 -5.037408 C 12.778685 -5.037408 13.157908 -4.858492 13.157908 -4.638771 C 13.157908 -4.41905 12.778685 -4.240134 12.306319 -4.240134 L 6.937319 -4.240134 C 6.464954 -4.240134 6.085731 -4.41905 6.085731 -4.638771 C 6.085731 -4.858492 6.464954 -5.037408 6.937319 -5.037408 Z M 6.937319 -5.037408 " transform="matrix(1.174276,0,0,1.244475,1.584141,10.315805)"/>
<path style="fill-rule:evenodd;fill:rgb(94.117647%,89.019608%,92.54902%);fill-opacity:1;stroke-width:0.827221;stroke-linecap:round;stroke-linejoin:round;stroke:rgb(90.196079%,0.784314%,70.588237%);stroke-opacity:1;stroke-miterlimit:4;" d="M 11.098793 -5.093907 C 11.098793 -4.462994 10.573203 -3.948219 9.924532 -3.948219 C 9.275861 -3.948219 8.746945 -4.462994 8.746945 -5.093907 C 8.746945 -5.72796 9.275861 -6.239596 9.924532 -6.239596 C 10.573203 -6.239596 11.098793 -5.72796 11.098793 -5.093907 Z M 11.098793 -5.093907 " transform="matrix(1.174276,0,0,1.244475,1.584141,10.315805)"/>
<path style="fill-rule:nonzero;fill:rgb(94.117647%,89.019608%,92.54902%);fill-opacity:1;stroke-width:0.803505;stroke-linecap:butt;stroke-linejoin:round;stroke:rgb(61.56863%,22.745098%,60.784316%);stroke-opacity:1;stroke-miterlimit:4;" d="M 12.501512 10.340196 C 12.363418 10.343335 12.225323 10.371585 12.093506 10.418668 C 11.591344 10.610139 11.05152 10.779638 10.470895 10.927165 C 9.91224 11.071553 9.519926 11.589467 9.519926 12.182714 L 9.519926 12.383602 C 9.519926 12.91721 9.836915 13.394319 10.317108 13.588929 L 10.317108 14.022093 C 9.736483 13.347236 8.882808 13.124376 8.063656 13.124376 C 7.297859 13.124376 6.541478 13.322125 5.913775 13.755289 C 5.29235 14.185315 4.777634 14.985727 4.777634 15.817529 C 4.777634 16.266387 4.991053 16.746635 5.27038 17.057383 C 5.188779 17.160966 5.107178 17.273965 5.022438 17.393243 C 4.843543 17.634936 4.711725 17.920573 4.636401 18.215627 C 4.573631 18.463598 4.548523 18.70843 4.548523 18.950123 C 4.548523 19.606148 4.790188 20.318672 5.251549 20.811475 C 5.257826 20.814614 5.260965 20.820892 5.267242 20.827169 C 5.73488 21.310556 6.428491 21.580499 7.071886 21.580499 C 7.574048 21.580499 8.022855 21.445527 8.446555 21.225806 C 8.813761 21.476916 9.250014 21.580499 9.614081 21.580499 C 9.981287 21.580499 10.373601 21.498888 10.728253 21.304278 C 10.73453 21.301139 10.743945 21.298 10.750222 21.294861 C 10.925979 21.194417 11.070351 21.081418 11.208445 20.962141 C 11.377925 21.068862 11.550543 21.15989 11.729438 21.235223 C 11.738854 21.238362 11.748269 21.2415 11.757685 21.247778 C 12.328894 21.470638 12.944042 21.580499 13.565468 21.580499 C 14.670224 21.580499 15.746734 21.090835 16.496838 20.252756 C 16.521946 20.224506 16.537639 20.189978 16.562747 20.161728 C 16.606686 20.221367 16.638071 20.287283 16.685149 20.343783 C 16.688287 20.350061 16.694564 20.356338 16.697703 20.362616 C 17.344236 21.125362 18.320314 21.580499 19.302668 21.580499 C 19.732644 21.580499 20.16262 21.489471 20.561211 21.316833 C 20.570627 21.313695 20.580042 21.307417 20.592597 21.304278 C 20.915863 21.150473 21.21716 20.974696 21.487073 20.739281 C 21.738153 20.522699 21.948434 20.271589 22.14616 19.995368 C 22.31564 19.769369 22.44118 19.593592 22.563582 19.364455 C 22.645183 19.223205 22.723646 19.075678 22.805248 18.90304 C 23.090852 18.312932 22.899403 17.59413 22.362717 17.236299 L 22.193238 17.126438 C 22.16813 17.110744 22.14616 17.098189 22.121052 17.082494 C 22.133606 17.073078 22.149299 17.069939 22.161853 17.060522 C 22.174407 17.051106 22.186961 17.03855 22.199515 17.025995 C 22.510227 16.727802 22.767585 16.200471 22.767585 15.704529 C 22.767585 14.891561 22.246592 14.138232 21.659691 13.733317 C 21.072789 13.322125 20.360347 13.124376 19.651043 13.124376 C 18.618472 13.124376 17.617287 13.595207 16.889152 14.367369 C 16.886014 14.367369 16.886014 14.370508 16.882875 14.373647 C 16.854629 14.405036 16.835798 14.442702 16.807551 14.474091 C 16.78872 14.44898 16.776166 14.417591 16.754196 14.39248 C 16.161017 13.626596 15.222602 13.124376 14.268495 13.124376 C 14.124123 13.124376 13.98289 13.165181 13.838518 13.187153 L 13.838518 11.658522 C 13.838518 11.131192 13.527806 10.654083 13.05389 10.459473 L 12.99112 10.434362 C 12.837333 10.368446 12.670992 10.337057 12.501512 10.340196 Z M 10.301415 12.964293 C 10.307692 12.964293 10.317108 12.976849 10.317108 13.008238 L 10.317108 13.045904 C 10.304554 13.00196 10.295138 12.967432 10.301415 12.964293 Z M 10.976195 13.664262 C 11.032689 13.664262 11.004442 13.692512 10.916564 13.667401 C 10.922841 13.667401 10.925979 13.667401 10.932256 13.664262 C 10.932256 13.664262 10.947949 13.664262 10.976195 13.664262 Z M 10.411263 14.113121 L 10.420679 14.125676 C 10.420679 14.122537 10.41754 14.122537 10.41754 14.122537 C 10.414402 14.119399 10.414402 14.11626 10.411263 14.113121 Z M 8.28649 15.334142 L 8.28649 15.34042 C 8.28649 15.337281 8.28649 15.334142 8.28649 15.334142 Z M 6.306089 16.234999 C 6.290397 16.244415 6.268427 16.263249 6.249596 16.272665 C 6.246458 16.272665 6.246458 16.275804 6.243319 16.275804 Z M 19.290114 16.354276 C 19.384269 16.577136 19.506671 16.803135 19.710675 17.0103 C 19.920955 17.223744 20.215975 17.352437 20.517272 17.434048 C 20.504718 17.446603 20.495303 17.462298 20.485887 17.477992 C 20.244222 17.832685 20.040218 18.027295 20.002556 18.055545 C 19.97431 18.074378 19.95234 18.093211 19.807969 18.093211 C 19.600827 18.093211 19.578857 18.083795 19.437624 17.908018 C 19.290114 17.710269 19.186543 17.446603 19.186543 16.9538 C 19.186543 16.655608 19.233621 16.486108 19.290114 16.354276 Z M 13.838518 16.561441 C 13.844795 16.567719 13.838518 16.56458 13.841657 16.570858 C 13.847934 16.580275 13.854211 16.586552 13.85735 16.595969 C 13.964059 16.765468 14.080184 17.110744 14.080184 17.700852 C 14.080184 18.215627 13.973474 18.460459 13.913843 18.54207 C 13.885596 18.582875 13.844795 18.564042 13.838518 18.567181 Z M 13.838518 16.561441 " transform="matrix(1.244618,0,0,1.244475,0.975544,1.026411)"/>
<path style=" stroke:none;fill-rule:nonzero;fill:rgb(90.196079%,0.784314%,70.588237%);fill-opacity:1;" d="M 8.191406 24.582031 C 8.191406 24.394531 8.210938 24.226562 8.25 24.070312 C 8.289062 23.90625 8.359375 23.753906 8.460938 23.621094 C 8.5625 23.472656 8.65625 23.34375 8.746094 23.230469 C 8.839844 23.117188 8.972656 23.003906 9.152344 22.890625 C 9.335938 22.765625 9.484375 22.667969 9.605469 22.59375 C 9.726562 22.511719 9.90625 22.417969 10.148438 22.3125 C 10.398438 22.199219 10.589844 22.117188 10.71875 22.066406 C 10.851562 22.003906 11.054688 21.914062 11.335938 21.800781 C 11.617188 21.6875 11.824219 21.605469 11.953125 21.554688 L 11.953125 20.605469 C 11.953125 19.746094 11.574219 19.316406 10.808594 19.316406 C 10.507812 19.316406 10.253906 19.394531 10.042969 19.550781 C 9.832031 19.695312 9.726562 19.871094 9.726562 20.078125 C 9.726562 20.160156 9.738281 20.273438 9.757812 20.417969 C 9.785156 20.5625 9.800781 20.65625 9.800781 20.699219 C 9.800781 20.875 9.730469 21.03125 9.589844 21.164062 C 9.460938 21.289062 9.304688 21.351562 9.125 21.351562 C 8.953125 21.351562 8.804688 21.285156 8.671875 21.148438 C 8.542969 21.015625 8.476562 20.859375 8.476562 20.683594 C 8.476562 20.195312 8.71875 19.789062 9.199219 19.457031 C 9.691406 19.113281 10.292969 18.941406 11.007812 18.941406 C 11.828125 18.941406 12.398438 19.148438 12.707031 19.5625 C 13.019531 19.96875 13.175781 20.589844 13.175781 21.429688 L 13.175781 24.457031 C 13.175781 24.800781 13.203125 25.039062 13.265625 25.171875 C 13.335938 25.296875 13.457031 25.359375 13.625 25.359375 C 13.835938 25.359375 14.058594 25.261719 14.289062 25.066406 L 14.289062 25.46875 C 14.027344 25.769531 13.796875 25.976562 13.597656 26.089844 C 13.40625 26.195312 13.183594 26.246094 12.933594 26.246094 C 12.621094 26.246094 12.390625 26.15625 12.242188 25.980469 C 12.101562 25.804688 12.011719 25.515625 11.96875 25.109375 C 11.105469 25.867188 10.375 26.246094 9.773438 26.246094 C 9.308594 26.246094 8.929688 26.089844 8.628906 25.777344 C 8.335938 25.46875 8.191406 25.070312 8.191406 24.582031 Z M 11.953125 24.179688 L 11.953125 21.925781 C 11.050781 22.269531 10.417969 22.597656 10.058594 22.921875 C 9.695312 23.242188 9.515625 23.628906 9.515625 24.085938 C 9.515625 24.511719 9.617188 24.828125 9.816406 25.035156 C 10.015625 25.242188 10.234375 25.34375 10.464844 25.34375 C 10.804688 25.34375 11.171875 25.226562 11.5625 24.988281 C 11.722656 24.894531 11.828125 24.796875 11.878906 24.691406 C 11.929688 24.589844 11.953125 24.417969 11.953125 24.179688 Z M 11.953125 24.179688 "/>
<path style=" stroke:none;fill-rule:nonzero;fill:rgb(90.196079%,0.784314%,70.588237%);fill-opacity:1;" d="M 16.636719 15.507812 L 16.636719 20.261719 C 16.785156 19.878906 17.054688 19.5625 17.449219 19.316406 C 17.839844 19.066406 18.265625 18.941406 18.726562 18.941406 C 19.480469 18.941406 20.109375 19.269531 20.609375 19.921875 C 21.121094 20.5625 21.378906 21.363281 21.378906 22.3125 C 21.378906 23.421875 21.035156 24.355469 20.355469 25.109375 C 19.679688 25.867188 18.847656 26.246094 17.855469 26.246094 C 17.253906 26.246094 16.683594 26.140625 16.152344 25.933594 C 15.632812 25.71875 15.371094 25.488281 15.371094 25.25 L 15.371094 17.1875 C 15.371094 16.867188 15.320312 16.652344 15.21875 16.550781 C 15.128906 16.445312 14.933594 16.394531 14.632812 16.394531 C 14.523438 16.394531 14.4375 16.398438 14.375 16.410156 L 14.375 16.160156 C 15.148438 15.964844 15.875 15.738281 16.558594 15.476562 Z M 16.636719 21.085938 L 16.636719 25.003906 C 16.636719 25.199219 16.78125 25.375 17.070312 25.53125 C 17.363281 25.675781 17.703125 25.75 18.09375 25.75 C 18.71875 25.75 19.199219 25.511719 19.542969 25.035156 C 19.882812 24.558594 20.054688 23.890625 20.054688 23.027344 C 20.054688 22.085938 19.878906 21.335938 19.527344 20.777344 C 19.183594 20.207031 18.71875 19.921875 18.125 19.921875 C 17.734375 19.921875 17.386719 20.039062 17.085938 20.277344 C 16.785156 20.515625 16.636719 20.785156 16.636719 21.085938 Z M 16.636719 21.085938 "/>
<path style=" stroke:none;fill-rule:nonzero;fill:rgb(90.196079%,0.784314%,70.588237%);fill-opacity:1;" d="M 22.132812 22.78125 C 22.132812 21.628906 22.457031 20.703125 23.109375 20 C 23.773438 19.296875 24.546875 18.941406 25.429688 18.941406 C 26.0625 18.941406 26.601562 19.101562 27.054688 19.425781 C 27.515625 19.734375 27.746094 20.109375 27.746094 20.542969 C 27.746094 20.71875 27.675781 20.875 27.535156 21.007812 C 27.394531 21.132812 27.226562 21.195312 27.023438 21.195312 C 26.683594 21.195312 26.449219 20.957031 26.316406 20.480469 L 26.226562 20.140625 C 26.148438 19.847656 26.046875 19.652344 25.925781 19.550781 C 25.804688 19.445312 25.609375 19.394531 25.339844 19.394531 C 24.726562 19.394531 24.230469 19.648438 23.847656 20.15625 C 23.476562 20.652344 23.289062 21.300781 23.289062 22.097656 C 23.289062 22.988281 23.507812 23.71875 23.9375 24.289062 C 24.378906 24.847656 24.941406 25.125 25.625 25.125 C 26.054688 25.125 26.425781 25.019531 26.738281 24.800781 C 27.050781 24.582031 27.386719 24.203125 27.746094 23.667969 L 27.957031 23.804688 C 27.859375 24.011719 27.769531 24.183594 27.6875 24.320312 C 27.617188 24.453125 27.480469 24.65625 27.28125 24.925781 C 27.089844 25.195312 26.898438 25.410156 26.707031 25.578125 C 26.519531 25.742188 26.265625 25.898438 25.957031 26.042969 C 25.644531 26.179688 25.324219 26.246094 24.992188 26.246094 C 24.160156 26.246094 23.472656 25.925781 22.929688 25.28125 C 22.398438 24.628906 22.132812 23.796875 22.132812 22.78125 Z M 22.132812 22.78125 "/>
</g>
</svg>
