<?xml version="1.0" encoding="UTF-8"?>
<svg xmlns="http://www.w3.org/2000/svg" xmlns:xlink="http://www.w3.org/1999/xlink" width="32px" height="32px" viewBox="0 0 32 32" version="1.1">
<g id="surface1">
<path style="fill-rule:evenodd;fill:rgb(95.294118%,71.764708%,85.09804%);fill-opacity:1;stroke-width:1.628641;stroke-linecap:round;stroke-linejoin:round;stroke:rgb(90.196079%,0.784314%,70.588237%);stroke-opacity:1;stroke-miterlimit:4;" d="M 3.601639 -3.988137 L 16.672119 -3.988137 C 18.020838 -3.988137 19.115081 -2.893894 19.115081 -1.545176 L 19.115081 12.517758 C 19.115081 13.866476 18.020838 14.96072 16.672119 14.96072 L 3.601639 14.96072 C 2.25292 14.96072 1.158677 13.866476 1.158677 12.517758 L 1.158677 -1.545176 C 1.158677 -2.893894 2.25292 -3.988137 3.601639 -3.988137 Z M 3.601639 -3.988137 " transform="matrix(1.228018,0,0,1.228018,1.651343,10.256878)"/>
<path style="fill-rule:evenodd;fill:rgb(94.117647%,89.019608%,92.54902%);fill-opacity:1;stroke-width:0.814321;stroke-linecap:round;stroke-linejoin:round;stroke:rgb(61.56863%,22.745098%,60.784316%);stroke-opacity:1;stroke-miterlimit:4;" d="M 6.254542 -1.363862 L 13.990587 -1.363862 C 15.294772 -1.363862 16.350844 -0.237809 16.350844 1.14908 L 16.350844 9.683541 C 16.350844 11.073612 15.294772 12.199664 13.990587 12.199664 L 6.254542 12.199664 C 4.950357 12.199664 3.894285 11.073612 3.894285 9.683541 L 3.894285 1.14908 C 3.894285 -0.237809 4.950357 -1.363862 6.254542 -1.363862 Z M 6.254542 -1.363862 " transform="matrix(1.228018,0,0,1.228018,1.651343,10.256878)"/>
<path style="fill-rule:evenodd;fill:rgb(94.117647%,89.019608%,92.54902%);fill-opacity:1;stroke-width:1.628641;stroke-linecap:round;stroke-linejoin:round;stroke:rgb(90.196079%,0.784314%,70.588237%);stroke-opacity:1;stroke-miterlimit:4;" d="M 10.742848 0.058018 L 20.581494 0.058018 C 21.478519 0.058018 22.210135 0.786453 22.210135 1.686659 L 22.210135 13.332079 C 22.210135 14.232285 21.478519 14.96072 20.581494 14.96072 L 10.742848 14.96072 C 9.842642 14.96072 9.114207 14.232285 9.114207 13.332079 L 9.114207 1.686659 C 9.114207 0.786453 9.842642 0.058018 10.742848 0.058018 Z M 10.742848 0.058018 " transform="matrix(1.228018,0,0,1.228018,1.651343,10.256878)"/>
<path style="fill-rule:evenodd;fill:rgb(95.294118%,71.764708%,85.09804%);fill-opacity:1;stroke-width:1.628641;stroke-linecap:round;stroke-linejoin:round;stroke:rgb(90.196079%,0.784314%,70.588237%);stroke-opacity:1;stroke-miterlimit:4;" d="M 6.900273 -5.037847 L 12.342861 -5.037847 C 12.794554 -5.037847 13.157181 -4.859714 13.157181 -4.64023 C 13.157181 -4.417564 12.794554 -4.239431 12.342861 -4.239431 L 6.900273 -4.239431 C 6.44858 -4.239431 6.085953 -4.417564 6.085953 -4.64023 C 6.085953 -4.859714 6.44858 -5.037847 6.900273 -5.037847 Z M 6.900273 -5.037847 " transform="matrix(1.228018,0,0,1.228018,1.651343,10.256878)"/>
<path style="fill-rule:evenodd;fill:rgb(94.117647%,89.019608%,92.54902%);fill-opacity:1;stroke-width:0.814321;stroke-linecap:round;stroke-linejoin:round;stroke:rgb(90.196079%,0.784314%,70.588237%);stroke-opacity:1;stroke-miterlimit:4;" d="M 11.099113 -5.095104 C 11.099113 -4.462097 10.571077 -3.949966 9.922166 -3.949966 C 9.273254 -3.949966 8.748399 -4.462097 8.748399 -5.095104 C 8.748399 -5.728111 9.273254 -6.240242 9.922166 -6.240242 C 10.571077 -6.240242 11.099113 -5.728111 11.099113 -5.095104 Z M 11.099113 -5.095104 " transform="matrix(1.228018,0,0,1.228018,1.651343,10.256878)"/>
<path style="fill-rule:nonzero;fill:rgb(61.56863%,22.745098%,60.784316%);fill-opacity:1;stroke-width:0.40716;stroke-linecap:butt;stroke-linejoin:miter;stroke:rgb(61.56863%,22.745098%,60.784316%);stroke-opacity:1;stroke-miterlimit:4;" d="M 17.022023 2.63776 C 17.066556 2.179705 17.391012 1.845706 17.798172 1.845706 C 18.068552 1.845706 18.316665 1.992029 18.456626 2.224238 C 18.596588 1.988848 18.835158 1.845706 19.102357 1.845706 C 19.509517 1.845706 19.833973 2.179705 19.875325 2.63776 C 19.878506 2.656846 19.89123 2.764998 19.849878 2.939949 C 19.792621 3.191243 19.655841 3.41709 19.455441 3.598404 L 18.456626 4.504971 L 17.445088 3.598404 C 17.244688 3.420271 17.107908 3.191243 17.04747 2.939949 C 17.006118 2.764998 17.018842 2.656846 17.022023 2.63776 Z M 17.155622 2.914502 C 17.209698 3.143529 17.333755 3.353471 17.518249 3.51888 L 18.456626 4.355467 L 19.38228 3.51888 C 19.563593 3.353471 19.690831 3.143529 19.744907 2.914502 C 19.783078 2.749093 19.767173 2.656846 19.767173 2.656846 L 19.767173 2.650484 C 19.729002 2.246504 19.45226 1.953858 19.102357 1.953858 C 18.844701 1.953858 18.615673 2.112905 18.507521 2.36738 L 18.456626 2.488256 L 18.405731 2.36738 C 18.30076 2.116086 18.06219 1.953858 17.798172 1.953858 C 17.448269 1.953858 17.168346 2.246504 17.133356 2.653665 C 17.133356 2.656846 17.117451 2.749093 17.155622 2.914502 Z M 17.155622 2.914502 " transform="matrix(1.228018,0,0,1.228018,1.651343,10.256878)"/>
<path style="fill:none;stroke-width:1.628641;stroke-linecap:round;stroke-linejoin:miter;stroke:rgb(90.196079%,0.784314%,70.588237%);stroke-opacity:1;stroke-miterlimit:4;" d="M 11.407664 6.108165 L 19.916678 6.108165 " transform="matrix(1.228018,0,0,1.228018,1.651343,10.256878)"/>
<path style="fill:none;stroke-width:1.628641;stroke-linecap:round;stroke-linejoin:miter;stroke:rgb(90.196079%,0.784314%,70.588237%);stroke-opacity:1;stroke-miterlimit:4;" d="M 11.407664 8.086709 L 19.916678 8.086709 " transform="matrix(1.228018,0,0,1.228018,1.651343,10.256878)"/>
<path style="fill:none;stroke-width:1.628641;stroke-linecap:round;stroke-linejoin:miter;stroke:rgb(90.196079%,0.784314%,70.588237%);stroke-opacity:1;stroke-miterlimit:4;" d="M 11.407664 10.014359 L 19.916678 10.014359 " transform="matrix(1.228018,0,0,1.228018,1.651343,10.256878)"/>
<path style="fill-rule:nonzero;fill:rgb(95.294118%,71.764708%,85.09804%);fill-opacity:1;stroke-width:1.628641;stroke-linecap:round;stroke-linejoin:round;stroke:rgb(61.56863%,22.745098%,60.784316%);stroke-opacity:1;stroke-miterlimit:4;" d="M 12 9.000585 C 12 9.334584 11.936382 9.633592 11.805963 9.900791 C 11.681906 10.16799 11.529221 10.365208 11.351089 10.498807 C 11.172956 10.699207 10.991643 10.867796 10.807148 11.001396 C 10.629015 11.131814 10.473149 11.300404 10.342731 11.500803 C 10.221855 11.701203 10.158236 11.933411 10.158236 12.20061 L 10.158236 12.601408 L 9.232583 12.601408 L 9.232583 12.09882 C 9.232583 11.834802 9.296202 11.599412 9.417077 11.399013 C 9.547496 11.131814 9.703362 10.934596 9.881495 10.800997 C 10.065989 10.600597 10.247303 10.432008 10.425435 10.301589 C 10.603568 10.10119 10.756253 9.900791 10.88031 9.700392 C 11.010728 9.499992 11.074347 9.267784 11.074347 9.000585 C 11.074347 8.666586 10.953471 8.399387 10.714901 8.198988 C 10.473149 7.998589 10.155055 7.89998 9.757438 7.89998 C 9.258031 7.89998 8.911308 8.033579 8.720452 8.300778 C 8.526414 8.567977 8.430986 8.965595 8.430986 9.499992 L 7.556228 9.499992 C 7.556228 8.701577 7.743903 8.100379 8.122435 7.699581 C 8.507329 7.298782 9.070355 7.101564 9.808333 7.101564 C 10.473149 7.101564 11.004366 7.266973 11.401984 7.600971 C 11.799601 7.931789 12 8.399387 12 9.000585 Z M 10.158236 13.600223 L 10.158236 14.700829 L 9.232583 14.700829 L 9.232583 13.600223 Z M 10.158236 13.600223 " transform="matrix(1.228018,0,0,1.228018,1.263787,10.853373)"/>
<path style=" stroke:none;fill-rule:nonzero;fill:rgb(94.117647%,89.019608%,92.54902%);fill-opacity:1;" d="M 16 21.90625 C 16 22.316406 15.921875 22.683594 15.761719 23.011719 C 15.609375 23.339844 15.421875 23.582031 15.203125 23.746094 C 14.984375 23.992188 14.761719 24.199219 14.535156 24.363281 C 14.316406 24.523438 14.125 24.730469 13.964844 24.976562 C 13.816406 25.222656 13.738281 25.507812 13.738281 25.835938 L 13.738281 26.328125 L 12.601562 26.328125 L 12.601562 25.710938 C 12.601562 25.386719 12.679688 25.097656 12.828125 24.851562 C 12.988281 24.523438 13.179688 24.28125 13.398438 24.117188 C 13.625 23.871094 13.847656 23.664062 14.066406 23.503906 C 14.285156 23.257812 14.472656 23.011719 14.625 22.765625 C 14.785156 22.519531 14.863281 22.234375 14.863281 21.90625 C 14.863281 21.496094 14.714844 21.167969 14.421875 20.921875 C 14.125 20.675781 13.734375 20.554688 13.246094 20.554688 C 12.632812 20.554688 12.207031 20.71875 11.972656 21.046875 C 11.734375 21.375 11.617188 21.863281 11.617188 22.519531 L 10.542969 22.519531 C 10.542969 21.539062 10.773438 20.800781 11.238281 20.308594 C 11.710938 19.816406 12.402344 19.574219 13.308594 19.574219 C 14.125 19.574219 14.777344 19.777344 15.265625 20.1875 C 15.753906 20.59375 16 21.167969 16 21.90625 Z M 13.738281 27.554688 L 13.738281 28.90625 L 12.601562 28.90625 L 12.601562 27.554688 Z M 13.738281 27.554688 "/>
</g>
</svg>
