<?xml version="1.0" encoding="UTF-8"?>
<svg xmlns="http://www.w3.org/2000/svg" xmlns:xlink="http://www.w3.org/1999/xlink" width="32px" height="32px" viewBox="0 0 32 32" version="1.1">
<g id="surface1">
<path style="fill-rule:evenodd;fill:rgb(95.294118%,71.764708%,85.09804%);fill-opacity:1;stroke-width:1.640248;stroke-linecap:round;stroke-linejoin:round;stroke:rgb(90.196079%,0.784314%,70.588237%);stroke-opacity:1;stroke-miterlimit:4;" d="M 3.692143 -3.98792 L 16.58221 -3.98792 C 17.980722 -3.98792 19.115365 -2.917542 19.115365 -1.598239 L 19.115365 12.571823 C 19.115365 13.891126 17.980722 14.961504 16.58221 14.961504 L 3.692143 14.961504 C 2.293631 14.961504 1.158988 13.891126 1.158988 12.571823 L 1.158988 -1.598239 C 1.158988 -2.917542 2.293631 -3.98792 3.692143 -3.98792 Z M 3.692143 -3.98792 " transform="matrix(1.184294,0,0,1.255398,1.588355,10.268144)"/>
<path style="fill-rule:evenodd;fill:rgb(94.117647%,89.019608%,92.54902%);fill-opacity:1;stroke-width:0.820124;stroke-linecap:round;stroke-linejoin:round;stroke:rgb(61.56863%,22.745098%,60.784316%);stroke-opacity:1;stroke-miterlimit:4;" d="M 6.340742 -1.364872 L 13.903926 -1.364872 C 15.256261 -1.364872 16.351323 -0.263378 16.351323 1.096375 L 16.351323 9.7403 C 16.351323 11.100053 15.256261 12.201547 13.903926 12.201547 L 6.340742 12.201547 C 4.988406 12.201547 3.893345 11.100053 3.893345 9.7403 L 3.893345 1.096375 C 3.893345 -0.263378 4.988406 -1.364872 6.340742 -1.364872 Z M 6.340742 -1.364872 " transform="matrix(1.184294,0,0,1.255398,1.588355,10.268144)"/>
<path style="fill-rule:evenodd;fill:rgb(95.294118%,71.764708%,85.09804%);fill-opacity:1;stroke-width:1.640248;stroke-linecap:round;stroke-linejoin:round;stroke:rgb(90.196079%,0.784314%,70.588237%);stroke-opacity:1;stroke-miterlimit:4;" d="M 6.927853 -5.039628 L 12.314107 -5.039628 C 12.779178 -5.039628 13.158492 -4.859158 13.158492 -4.638237 C 13.158492 -4.417316 12.779178 -4.239957 12.314107 -4.239957 L 6.927853 -4.239957 C 6.462782 -4.239957 6.083468 -4.417316 6.083468 -4.638237 C 6.083468 -4.859158 6.462782 -5.039628 6.927853 -5.039628 Z M 6.927853 -5.039628 " transform="matrix(1.184294,0,0,1.255398,1.588355,10.268144)"/>
<path style="fill-rule:evenodd;fill:rgb(94.117647%,89.019608%,92.54902%);fill-opacity:1;stroke-width:0.820124;stroke-linecap:round;stroke-linejoin:round;stroke:rgb(90.196079%,0.784314%,70.588237%);stroke-opacity:1;stroke-miterlimit:4;" d="M 11.097005 -5.095637 C 11.097005 -4.460878 10.572563 -3.94747 9.922782 -3.94747 C 9.273001 -3.94747 8.748559 -4.460878 8.748559 -5.095637 C 8.748559 -5.727284 9.273001 -6.240692 9.922782 -6.240692 C 10.572563 -6.240692 11.097005 -5.727284 11.097005 -5.095637 Z M 11.097005 -5.095637 " transform="matrix(1.184294,0,0,1.255398,1.588355,10.268144)"/>
<path style="fill-rule:nonzero;fill:rgb(94.117647%,89.019608%,92.54902%);fill-opacity:1;stroke-width:4.851364;stroke-linecap:butt;stroke-linejoin:miter;stroke:rgb(61.56863%,22.745098%,60.784316%);stroke-opacity:1;stroke-miterlimit:4;" d="M 96.417327 42.905134 C 96.417327 42.011164 96.687283 41.117193 97.246479 40.223223 C 97.786392 39.273379 98.056348 38.714647 98.056348 38.584276 C 98.056348 37.690306 97.47787 37.243321 96.320914 37.243321 C 92.695785 37.243321 89.572004 42.346403 86.968853 52.552567 L 85.117723 59.834703 L 94.566197 59.834703 L 93.640632 64.155561 L 84.404267 64.155561 C 80.162095 83.80429 77.211857 96.375752 75.572836 101.851322 C 71.947707 113.957174 67.435579 121.630422 62.017168 124.852441 C 59.548995 126.286519 56.791583 126.994245 53.706367 126.994245 C 50.621151 126.994245 48.152978 126.24927 46.301848 124.740695 C 44.450719 123.306617 43.544437 121.351056 43.544437 118.892637 C 43.544437 117.384061 44.084349 116.080354 45.183458 114.981515 C 46.205435 113.901301 47.439522 113.342569 48.866434 113.342569 C 50.177651 113.342569 51.334607 113.864052 52.375868 114.888393 C 53.397845 115.912735 53.899193 117.048822 53.899193 118.278032 C 53.899193 119.227876 53.629237 120.159095 53.089324 121.053066 C 52.530128 121.928412 52.260172 122.487144 52.260172 122.692012 C 52.260172 123.436987 52.877215 123.8281 54.111302 123.8281 C 56.579474 123.8281 58.430604 121.965661 59.664691 118.278032 C 60.956625 114.646276 63.289819 105.203712 66.644992 89.931714 C 68.901056 79.595178 70.810034 71.009336 72.391207 64.155561 L 64.890275 64.155561 L 65.81584 59.834703 L 73.316772 59.834703 C 74.338749 56.147074 75.437858 52.962304 76.594814 50.299016 C 77.771052 47.617105 79.23653 44.991066 81.010529 42.383652 C 82.803811 39.720364 84.982745 37.690306 87.585896 36.330726 C 90.189047 34.952521 93.17785 34.282043 96.51374 34.282043 C 99.598956 34.282043 102.067129 35.027018 103.918259 36.535594 C 105.769388 37.969672 106.694953 39.962481 106.694953 42.495398 C 106.694953 44.059846 106.174323 45.363554 105.152345 46.387895 C 104.188215 47.412236 102.954128 47.933719 101.450086 47.933719 C 100.081021 47.933719 98.8855 47.449485 97.863522 46.499641 C 96.899392 45.4753 96.417327 44.264715 96.417327 42.905134 Z M 96.417327 42.905134 " transform="matrix(0.202579,0,0,0.209738,2.475686,2.825363)"/>
<path style="fill-rule:nonzero;fill:rgb(94.117647%,89.019608%,92.54902%);fill-opacity:1;stroke-width:4.650341;stroke-linecap:butt;stroke-linejoin:miter;stroke:rgb(61.56863%,22.745098%,60.784316%);stroke-opacity:1;stroke-miterlimit:4;" d="M 120.12442 80.522735 C 119.577934 80.522735 118.80944 80.271544 117.801858 79.769161 C 116.811353 79.266779 116.162402 79.015587 115.855004 79.015587 C 115.15482 79.015587 114.437558 79.344068 113.686141 80.00103 C 112.934724 80.600025 112.319928 81.218342 111.824676 81.875304 C 111.329424 82.512943 110.748784 83.343807 110.099833 84.32925 C 109.502114 85.334015 109.126406 85.93301 108.972707 86.126234 L 111.380657 97.796969 C 111.927142 100.444139 112.849336 101.758062 114.147238 101.758062 C 114.779112 101.758062 115.410985 101.506871 116.008703 101.004488 C 116.657654 100.463461 117.699392 99.246149 119.150993 97.352553 L 120.722138 98.395963 C 118.433731 101.680773 116.401489 104.018784 114.659568 105.42932 C 112.96888 106.820533 111.226958 107.51614 109.433804 107.51614 C 107.435717 107.51614 105.915806 106.588665 104.874068 104.753036 C 103.866486 102.85944 102.978448 99.922434 102.175798 95.922695 L 100.382643 98.840379 C 98.230858 102.434347 96.54017 104.772358 95.2935 105.873735 C 94.046831 106.975113 92.475686 107.51614 90.580066 107.51614 C 89.179698 107.51614 88.035494 107.11037 87.147456 106.318151 C 86.24234 105.467965 85.798321 104.405232 85.798321 103.110631 C 85.798321 101.951286 86.191107 100.985166 86.993757 100.192947 C 87.796407 99.342761 88.769834 98.917668 89.914037 98.917668 C 90.648377 98.917668 91.536415 99.188182 92.526919 99.748532 C 93.517424 100.231592 94.166375 100.482783 94.473773 100.482783 C 95.122724 100.482783 95.686287 100.289559 96.198616 99.883789 C 96.693869 99.439373 97.308664 98.627832 98.060081 97.429843 L 101.35607 92.19347 L 99.101819 80.677314 C 98.709033 78.822363 98.21378 77.527762 97.616062 76.774188 C 97.018344 76.039936 96.113228 75.653488 94.917792 75.653488 C 94.217608 75.653488 93.346647 75.711455 92.30491 75.808067 L 92.30491 73.798537 L 104.78868 72.001553 C 105.932883 73.682603 107.060009 77.121991 108.152979 82.319719 C 111.14157 78.184724 113.412899 75.440942 114.966966 74.088373 C 116.555188 72.69716 118.228799 72.001553 119.970721 72.001553 C 121.114924 72.001553 122.122506 72.465291 122.959311 73.412089 C 123.864427 74.320242 124.308447 75.382974 124.308447 76.638931 C 124.308447 77.682341 123.881505 78.609817 123.0447 79.402035 C 122.24205 80.155609 121.268623 80.522735 120.12442 80.522735 Z M 120.12442 80.522735 " transform="matrix(0.228734,0,0,0.202162,1.042934,2.697954)"/>
</g>
</svg>
