<?xml version="1.0" encoding="UTF-8"?>
<svg xmlns="http://www.w3.org/2000/svg" xmlns:xlink="http://www.w3.org/1999/xlink" width="32px" height="32px" viewBox="0 0 32 32" version="1.1">
<g id="surface1">
<path style="fill-rule:evenodd;fill:rgb(95.294118%,71.764708%,85.09804%);fill-opacity:1;stroke-width:1.01967;stroke-linecap:round;stroke-linejoin:round;stroke:rgb(90.196079%,0.784314%,70.588237%);stroke-opacity:1;stroke-miterlimit:4;" d="M 2.834429 -4.315083 L 17.608894 -4.315083 C 18.487661 -4.315083 19.198748 -3.654081 19.198748 -2.843636 L 19.198748 13.164091 C 19.198748 13.974536 18.487661 14.635537 17.608894 14.635537 L 2.834429 14.635537 C 1.955661 14.635537 1.244574 13.974536 1.244574 13.164091 L 1.244574 -2.843636 C 1.244574 -3.654081 1.955661 -4.315083 2.834429 -4.315083 Z M 2.834429 -4.315083 " transform="matrix(1.257977,0,0,1.359207,0.434354,10.103371)"/>
<path style="fill-rule:evenodd;fill:rgb(94.117647%,89.019608%,92.54902%);fill-opacity:1;stroke-width:0.509835;stroke-linecap:round;stroke-linejoin:round;stroke:rgb(61.56863%,22.745098%,60.784316%);stroke-opacity:1;stroke-miterlimit:4;" d="M 5.430362 -1.366442 L 14.814228 -1.366442 C 15.665049 -1.366442 16.351294 -0.688197 16.351294 0.150987 L 16.351294 10.683899 C 16.351294 11.523083 15.665049 12.201328 14.814228 12.201328 L 5.430362 12.201328 C 4.582647 12.201328 3.893296 11.523083 3.893296 10.683899 L 3.893296 0.150987 C 3.893296 -0.688197 4.582647 -1.366442 5.430362 -1.366442 Z M 5.430362 -1.366442 " transform="matrix(1.257977,0,0,1.359207,0.434354,10.103371)"/>
<path style="fill-rule:evenodd;fill:rgb(95.294118%,71.764708%,85.09804%);fill-opacity:1;stroke-width:1.01967;stroke-linecap:round;stroke-linejoin:round;stroke:rgb(90.196079%,0.784314%,70.588237%);stroke-opacity:1;stroke-miterlimit:4;" d="M 6.613437 -5.03931 L 12.628179 -5.03931 C 12.920066 -5.03931 13.159165 -4.861127 13.159165 -4.639836 C 13.159165 -4.418544 12.920066 -4.240361 12.628179 -4.240361 L 6.613437 -4.240361 C 6.32155 -4.240361 6.085556 -4.418544 6.085556 -4.639836 C 6.085556 -4.861127 6.32155 -5.03931 6.613437 -5.03931 Z M 6.613437 -5.03931 " transform="matrix(1.257977,0,0,1.359207,0.434354,10.103371)"/>
<path style="fill-rule:evenodd;fill:rgb(94.117647%,89.019608%,92.54902%);fill-opacity:1;stroke-width:0.509835;stroke-linecap:round;stroke-linejoin:round;stroke:rgb(90.196079%,0.784314%,70.588237%);stroke-opacity:1;stroke-miterlimit:4;" d="M 11.097323 -5.093915 C 11.097323 -4.461653 10.572547 -3.950095 9.923563 -3.950095 C 9.27458 -3.950095 8.749804 -4.461653 8.749804 -5.093915 C 8.749804 -5.726177 9.27458 -6.240608 9.923563 -6.240608 C 10.572547 -6.240608 11.097323 -5.726177 11.097323 -5.093915 Z M 11.097323 -5.093915 " transform="matrix(1.257977,0,0,1.359207,0.434354,10.103371)"/>
<path style="fill-rule:nonzero;fill:rgb(94.117647%,89.019608%,92.54902%);fill-opacity:1;stroke-width:0.495218;stroke-linecap:butt;stroke-linejoin:round;stroke:rgb(90.196079%,0.784314%,70.588237%);stroke-opacity:1;stroke-miterlimit:4;" d="M 12.744141 11.59141 C 12.181641 11.59141 11.616211 11.697745 11.100586 11.927658 C 11.097656 11.927658 11.091797 11.930532 11.085938 11.933406 C 10.669922 12.123085 10.280273 12.367368 9.946289 12.70649 C 9.65625 12.99963 9.433594 13.33013 9.243164 13.686496 C 9.240234 13.692244 9.240234 13.695118 9.237305 13.700866 C 9.084961 13.994006 8.970703 14.223919 8.882812 14.522807 C 8.856445 14.609024 8.833008 14.709611 8.80957 14.801577 L 8.80957 13.054234 C 8.80957 12.393233 8.34375 11.815575 7.681641 11.65751 L 7.582031 11.634518 C 7.239258 11.551175 6.873047 11.59141 6.556641 11.746601 L 4.341797 12.832943 C 3.84082 13.0801 3.527344 13.574414 3.527344 14.117584 L 3.527344 14.284272 C 3.527344 14.994129 4.060547 15.597652 4.78125 15.706861 L 4.78125 19.520551 C 4.101562 19.664247 3.612305 20.247653 3.612305 20.925898 L 3.612305 21.104081 C 3.612305 21.900156 4.277344 22.543914 5.097656 22.543914 L 8.496094 22.543914 C 8.794922 22.543914 9.087891 22.454822 9.333984 22.291009 C 9.580078 22.454822 9.870117 22.543914 10.168945 22.543914 L 14.970703 22.543914 C 15.322266 22.543914 15.662109 22.423209 15.931641 22.201918 C 16.007812 22.256522 16.081055 22.322622 16.157227 22.362857 C 16.174805 22.371479 16.192383 22.380101 16.209961 22.388722 C 16.754883 22.644501 17.305664 22.710601 17.876953 22.710601 C 19.116211 22.710601 20.308594 22.365731 21.234375 21.63863 C 22.195312 20.882789 22.760742 19.690113 22.760742 18.488815 C 22.760742 17.67837 22.564453 16.844933 21.993164 16.18968 C 21.972656 16.166688 21.946289 16.152319 21.925781 16.129327 C 22.186523 15.678122 22.341797 15.166565 22.341797 14.666503 C 22.341797 13.838814 21.946289 12.953647 21.290039 12.401855 C 20.642578 11.850062 19.772461 11.59141 18.9375 11.59141 C 17.985352 11.59141 16.995117 11.896045 16.3125 12.57429 C 16.136719 12.746725 16.001953 12.950773 15.858398 13.1462 C 15.717773 12.947899 15.55957 12.763968 15.380859 12.600155 C 14.683594 11.950649 13.705078 11.59141 12.744141 11.59141 Z M 12.172852 15.353369 C 12.18457 15.353369 12.181641 15.353369 12.225586 15.353369 C 12.436523 15.353369 12.395508 15.361991 12.433594 15.399352 C 12.46875 15.433839 12.477539 15.393604 12.477539 15.597652 C 12.477539 16.057479 12.199219 16.773085 11.282227 17.71573 L 9.322266 19.733221 C 9.166992 19.62976 8.994141 19.557912 8.80957 19.520551 L 8.80957 15.954018 C 8.991211 16.382232 9.37207 16.701237 9.837891 16.807572 L 10.095703 16.867924 C 10.807617 17.031738 11.53418 16.669624 11.8125 16.014371 C 12.008789 15.55167 12.199219 15.333252 12.172852 15.353369 Z M 16.283203 16.396602 L 16.31543 16.405224 C 16.368164 16.419593 16.423828 16.428215 16.479492 16.436837 C 16.397461 16.617894 16.356445 16.810446 16.356445 17.008746 L 16.356445 17.163938 C 16.356445 17.95714 17.021484 18.600897 17.841797 18.600897 C 18.026367 18.600897 18.19043 18.612393 18.328125 18.626763 C 18.331055 18.629637 18.333984 18.629637 18.333984 18.629637 C 18.404297 18.635384 18.512695 18.658376 18.65625 18.71298 C 18.670898 18.715854 18.685547 18.721602 18.700195 18.72735 C 18.796875 18.758963 18.84082 18.790576 18.864258 18.80782 C 18.875977 18.816441 18.887695 18.825063 18.899414 18.833685 C 18.832031 18.784828 18.826172 18.744593 18.855469 18.810694 C 18.861328 18.822189 18.867188 18.833685 18.873047 18.848054 C 18.881836 18.868172 18.905273 18.922776 18.905273 19.060724 C 18.905273 19.273394 18.881836 19.293512 18.808594 19.373982 C 18.773438 19.411343 18.788086 19.388351 18.793945 19.385477 C 18.75293 19.371108 18.676758 19.345242 18.5625 19.276268 L 18.574219 19.28489 C 18.108398 19.003246 17.745117 18.733098 16.954102 18.733098 C 16.945312 18.733098 16.936523 18.738846 16.927734 18.738846 C 16.757812 18.457202 16.494141 18.241658 16.180664 18.123827 L 16.022461 18.066349 C 15.84082 17.997375 15.650391 17.965761 15.457031 17.971509 C 15.826172 17.462826 16.107422 16.939772 16.283203 16.396602 Z M 15.615234 19.221664 C 15.615234 19.224538 15.615234 19.224538 15.612305 19.224538 C 15.612305 19.227412 15.612305 19.227412 15.609375 19.227412 Z M 15.615234 19.221664 " transform="matrix(1.333333,0,0,1.359207,0,-0.587154)"/>
<path style=" stroke:none;fill-rule:nonzero;fill:rgb(61.56863%,22.745098%,60.784316%);fill-opacity:1;" d="M 7.863281 18.472656 C 7.664062 18.472656 7.273438 18.589844 6.679688 18.828125 L 6.679688 18.601562 L 9.636719 17.125 L 9.765625 17.15625 L 9.765625 26.894531 C 9.765625 27.285156 9.867188 27.539062 10.0625 27.660156 C 10.257812 27.777344 10.679688 27.84375 11.328125 27.855469 L 11.328125 28.097656 L 6.796875 28.097656 L 6.796875 27.855469 C 7.410156 27.832031 7.820312 27.746094 8.027344 27.59375 C 8.246094 27.433594 8.355469 27.097656 8.355469 26.589844 L 8.355469 19.234375 C 8.355469 18.726562 8.191406 18.472656 7.863281 18.472656 Z M 7.863281 18.472656 "/>
<path style=" stroke:none;fill-rule:nonzero;fill:rgb(61.56863%,22.745098%,60.784316%);fill-opacity:1;" d="M 13.574219 20.355469 C 13.628906 20.105469 13.683594 19.890625 13.738281 19.707031 C 13.792969 19.523438 13.910156 19.257812 14.085938 18.910156 C 14.269531 18.554688 14.472656 18.261719 14.691406 18.035156 C 14.921875 17.796875 15.234375 17.585938 15.628906 17.402344 C 16.03125 17.21875 16.488281 17.125 16.992188 17.125 C 17.84375 17.125 18.5625 17.402344 19.140625 17.953125 C 19.730469 18.503906 20.027344 19.1875 20.027344 20 C 20.027344 21.222656 19.328125 22.558594 17.925781 24.007812 L 15.167969 26.863281 L 19.09375 26.863281 C 19.464844 26.863281 19.738281 26.804688 19.914062 26.683594 C 20.097656 26.554688 20.34375 26.257812 20.652344 25.792969 L 20.863281 25.875 L 19.960938 28.097656 L 13.558594 28.097656 L 13.558594 27.902344 L 16.480469 24.835938 C 17.90625 23.339844 18.617188 21.933594 18.617188 20.613281 C 18.617188 19.933594 18.402344 19.382812 17.976562 18.960938 C 17.546875 18.539062 16.992188 18.328125 16.300781 18.328125 C 15.730469 18.328125 15.273438 18.484375 14.921875 18.796875 C 14.582031 19.101562 14.25 19.644531 13.921875 20.4375 Z M 13.574219 20.355469 "/>
<path style=" stroke:none;fill-rule:nonzero;fill:rgb(61.56863%,22.745098%,60.784316%);fill-opacity:1;" d="M 22.605469 26.832031 C 22.855469 26.832031 23.230469 26.984375 23.722656 27.285156 C 24.226562 27.589844 24.664062 27.742188 25.035156 27.742188 C 25.636719 27.742188 26.144531 27.507812 26.5625 27.042969 C 26.976562 26.578125 27.183594 26.003906 27.183594 25.320312 C 27.183594 24.898438 27.109375 24.527344 26.957031 24.203125 C 26.8125 23.878906 26.628906 23.628906 26.398438 23.457031 C 26.167969 23.269531 25.894531 23.125 25.578125 23.015625 C 25.257812 22.898438 24.957031 22.824219 24.671875 22.789062 C 24.398438 22.757812 24.105469 22.742188 23.789062 22.742188 L 23.789062 22.53125 C 24.160156 22.398438 24.476562 22.277344 24.738281 22.15625 C 25.011719 22.027344 25.296875 21.859375 25.59375 21.652344 C 25.886719 21.4375 26.113281 21.175781 26.265625 20.875 C 26.429688 20.570312 26.511719 20.226562 26.511719 19.835938 C 26.511719 19.328125 26.34375 18.910156 26.003906 18.585938 C 25.675781 18.261719 25.242188 18.097656 24.707031 18.097656 C 24.191406 18.097656 23.738281 18.238281 23.34375 18.519531 C 22.960938 18.792969 22.601562 19.222656 22.261719 19.820312 L 22.015625 19.753906 C 22.296875 18.984375 22.683594 18.359375 23.164062 17.871094 C 23.65625 17.375 24.351562 17.125 25.25 17.125 C 26.003906 17.125 26.617188 17.332031 27.085938 17.742188 C 27.570312 18.152344 27.808594 18.6875 27.808594 19.347656 C 27.808594 19.792969 27.695312 20.183594 27.464844 20.515625 C 27.234375 20.851562 26.835938 21.210938 26.265625 21.589844 C 26.921875 21.871094 27.4375 22.234375 27.808594 22.675781 C 28.179688 23.109375 28.367188 23.730469 28.367188 24.542969 C 28.367188 25.691406 27.933594 26.609375 27.070312 27.300781 C 26.21875 27.984375 25.140625 28.324219 23.835938 28.324219 C 23.265625 28.324219 22.8125 28.242188 22.472656 28.082031 C 22.144531 27.910156 21.980469 27.679688 21.980469 27.398438 C 21.980469 27.226562 22.035156 27.089844 22.144531 26.992188 C 22.265625 26.886719 22.417969 26.832031 22.605469 26.832031 Z M 22.605469 26.832031 "/>
</g>
</svg>
