<?xml version="1.0" encoding="UTF-8"?>
<svg xmlns="http://www.w3.org/2000/svg" xmlns:xlink="http://www.w3.org/1999/xlink" width="32px" height="32px" viewBox="0 0 32 32" version="1.1">
<g id="surface1">
<path style="fill-rule:nonzero;fill:rgb(95.294118%,71.764708%,85.09804%);fill-opacity:1;stroke-width:1;stroke-linecap:round;stroke-linejoin:round;stroke:rgb(61.56863%,22.745098%,60.784316%);stroke-opacity:1;stroke-miterlimit:4;" d="M 5.158203 1.541016 L 13.554688 1.541016 C 14.039062 1.541016 14.431641 1.933594 14.431641 2.417969 L 14.431641 9.650391 C 14.431641 10.134766 14.039062 10.527344 13.554688 10.527344 L 5.158203 10.527344 C 4.671875 10.527344 4.279297 10.134766 4.279297 9.650391 L 4.279297 2.417969 C 4.279297 1.933594 4.671875 1.541016 5.158203 1.541016 Z M 5.158203 1.541016 " transform="matrix(2,0,0,2,0,0)"/>
<path style="fill-rule:nonzero;fill:rgb(94.117647%,89.019608%,92.54902%);fill-opacity:1;stroke-width:0.563015;stroke-linecap:butt;stroke-linejoin:miter;stroke:rgb(90.196079%,0.784314%,70.588237%);stroke-opacity:1;stroke-miterlimit:4;" d="M 8.466611 5.756678 C 9.290472 6.749597 9.800168 7.74912 9.967137 8.757449 C 9.967137 8.757449 10.465848 7.258165 11.465467 7.258165 " transform="matrix(1.778022,0,0,1.774284,1.504776,1.172739)"/>
<path style="fill-rule:nonzero;fill:rgb(94.117647%,89.019608%,92.54902%);fill-opacity:1;stroke-width:2.693897;stroke-linecap:butt;stroke-linejoin:miter;stroke:rgb(90.196079%,0.784314%,70.588237%);stroke-opacity:1;stroke-miterlimit:4;" d="M -1.068643 15.476879 C -2.79297 16.167457 -3.249568 14.090571 -3.249568 14.090571 C -3.249568 14.090571 -4.162763 16.347831 -5.682964 15.013059 C -7.197794 13.678286 -4.968523 12.611498 -4.968523 12.611498 C -4.968523 12.611498 -7.536213 12.415663 -6.644505 10.694373 C -5.752797 8.978237 -4.02847 10.596455 -4.02847 10.596455 C -4.02847 10.596455 -4.732167 8.267045 -2.626447 8.488648 C -0.526098 8.710251 -1.723995 10.828366 -1.723995 10.828366 C -1.723995 10.828366 0.45693 9.704889 0.816836 11.44164 C 1.176743 13.17839 -1.240539 12.987708 -1.240539 12.987708 C -1.240539 12.987708 0.655684 14.781148 -1.068643 15.476879 Z M -1.068643 15.476879 " transform="matrix(0.727186,0,0,0.757971,18.265383,-0.676335)"/>
<path style="fill-rule:nonzero;fill:rgb(94.117647%,89.019608%,92.54902%);fill-opacity:1;stroke-width:2.693897;stroke-linecap:butt;stroke-linejoin:miter;stroke:rgb(90.196079%,0.784314%,70.588237%);stroke-opacity:1;stroke-miterlimit:4;" d="M -1.912006 13.966885 C -2.878918 14.353403 -3.136761 13.188697 -3.136761 13.188697 C -3.136761 13.188697 -3.647076 14.45132 -4.495811 13.709207 C -5.344545 12.961941 -4.098302 12.364127 -4.098302 12.364127 C -4.098302 12.364127 -5.537927 12.250749 -5.038356 11.287033 C -4.538785 10.32847 -3.571872 11.235497 -3.571872 11.235497 C -3.571872 11.235497 -3.969381 9.931646 -2.787599 10.055331 C -1.611188 10.179017 -2.277284 11.364336 -2.277284 11.364336 C -2.277284 11.364336 -1.0579 10.735602 -0.859145 11.709625 C -0.655019 12.678495 -2.008697 12.57027 -2.008697 12.57027 C -2.008697 12.57027 -0.950465 13.575215 -1.912006 13.966885 Z M -1.912006 13.966885 " transform="matrix(0.727186,0,0,0.757971,18.265383,-0.676335)"/>
<path style="fill-rule:nonzero;fill:rgb(94.117647%,89.019608%,92.54902%);fill-opacity:1;stroke-width:0.808169;stroke-linecap:butt;stroke-linejoin:miter;stroke:rgb(90.196079%,0.784314%,70.588237%);stroke-opacity:1;stroke-miterlimit:4;" d="M -1.804571 12.044606 C -1.804571 12.699109 -2.331001 13.229926 -2.986353 13.229926 C -3.641705 13.229926 -4.173507 12.699109 -4.173507 12.044606 C -4.173507 11.390104 -3.641705 10.859287 -2.986353 10.859287 C -2.331001 10.859287 -1.804571 11.390104 -1.804571 12.044606 Z M -1.804571 12.044606 " transform="matrix(0.727186,0,0,0.757971,18.265383,-0.676335)"/>
<path style="fill-rule:nonzero;fill:rgb(94.117647%,89.019608%,92.54902%);fill-opacity:1;stroke-width:2.693897;stroke-linecap:butt;stroke-linejoin:miter;stroke:rgb(90.196079%,0.784314%,70.588237%);stroke-opacity:1;stroke-miterlimit:4;" d="M -1.069262 15.476464 C -2.793589 16.167041 -3.250187 14.090156 -3.250187 14.090156 C -3.250187 14.090156 -4.163382 16.347416 -5.678211 15.012643 C -7.198413 13.677871 -4.969142 12.611083 -4.969142 12.611083 C -4.969142 12.611083 -7.536832 12.415248 -6.645124 10.693958 C -5.753416 8.977821 -4.029088 10.59604 -4.029088 10.59604 C -4.029088 10.59604 -4.732786 8.26663 -2.627065 8.488233 C -0.521345 8.709836 -1.719242 10.82795 -1.719242 10.82795 C -1.719242 10.82795 0.456311 9.704474 0.816217 11.441224 C 1.176124 13.177975 -1.241157 12.987293 -1.241157 12.987293 C -1.241157 12.987293 0.655065 14.780733 -1.069262 15.476464 Z M -1.069262 15.476464 " transform="matrix(0.727186,0,0,0.757971,24.820521,3.35523)"/>
<path style="fill-rule:nonzero;fill:rgb(94.117647%,89.019608%,92.54902%);fill-opacity:1;stroke-width:2.693897;stroke-linecap:butt;stroke-linejoin:miter;stroke:rgb(90.196079%,0.784314%,70.588237%);stroke-opacity:1;stroke-miterlimit:4;" d="M -1.912624 13.96647 C -2.879537 14.352987 -3.132009 13.188282 -3.132009 13.188282 C -3.132009 13.188282 -3.647695 14.456059 -4.496429 13.708792 C -5.345164 12.961525 -4.098921 12.363712 -4.098921 12.363712 C -4.098921 12.363712 -5.533175 12.250334 -5.038975 11.291771 C -4.539403 10.328055 -3.572491 11.235082 -3.572491 11.235082 C -3.572491 11.235082 -3.964628 9.931231 -2.788217 10.054916 C -1.606436 10.178602 -2.277903 11.363921 -2.277903 11.363921 C -2.277903 11.363921 -1.058518 10.735186 -0.859764 11.70921 C -0.655638 12.678079 -2.009316 12.569855 -2.009316 12.569855 C -2.009316 12.569855 -0.945712 13.574799 -1.912624 13.96647 Z M -1.912624 13.96647 " transform="matrix(0.727186,0,0,0.757971,24.820521,3.35523)"/>
<path style="fill-rule:nonzero;fill:rgb(94.117647%,89.019608%,92.54902%);fill-opacity:1;stroke-width:0.808169;stroke-linecap:butt;stroke-linejoin:miter;stroke:rgb(90.196079%,0.784314%,70.588237%);stroke-opacity:1;stroke-miterlimit:4;" d="M -1.799818 12.044191 C -1.799818 12.698694 -2.33162 13.229511 -2.986972 13.229511 C -3.642323 13.229511 -4.174125 12.698694 -4.174125 12.044191 C -4.174125 11.389689 -3.642323 10.858872 -2.986972 10.858872 C -2.33162 10.858872 -1.799818 11.389689 -1.799818 12.044191 Z M -1.799818 12.044191 " transform="matrix(0.727186,0,0,0.757971,24.820521,3.35523)"/>
<path style="fill-rule:nonzero;fill:rgb(94.117647%,89.019608%,92.54902%);fill-opacity:1;stroke-width:1;stroke-linecap:round;stroke-linejoin:round;stroke:rgb(90.196079%,0.784314%,70.588237%);stroke-opacity:1;stroke-miterlimit:4;" d="M 2.376953 4.523438 L 10.664062 4.523438 C 11.148438 4.523438 11.542969 4.916016 11.542969 5.400391 L 11.542969 12.564453 C 11.542969 13.048828 11.148438 13.443359 10.664062 13.443359 L 2.376953 13.443359 C 1.892578 13.443359 1.5 13.048828 1.5 12.564453 L 1.5 5.400391 C 1.5 4.916016 1.892578 4.523438 2.376953 4.523438 Z M 2.376953 4.523438 " transform="matrix(2,0,0,2,0,0)"/>
<path style="fill:none;stroke-width:0.5;stroke-linecap:butt;stroke-linejoin:miter;stroke:rgb(61.56863%,22.745098%,60.784316%);stroke-opacity:1;stroke-miterlimit:4;" d="M 5.160156 9.287109 C 5.892578 10.166016 6.345703 11.052734 6.494141 11.949219 C 6.494141 11.949219 6.9375 10.617188 7.828125 10.617188 " transform="matrix(2,0,0,2,0,0)"/>
<path style="fill-rule:nonzero;fill:rgb(61.56863%,22.745098%,60.784316%);fill-opacity:1;stroke-width:2.693897;stroke-linecap:butt;stroke-linejoin:miter;stroke:rgb(90.196079%,0.784314%,70.588237%);stroke-opacity:1;stroke-miterlimit:4;" d="M -1.07001 15.473124 C -2.794337 16.168855 -3.245563 14.091969 -3.245563 14.091969 C -3.245563 14.091969 -4.16413 16.344076 -5.67896 15.014457 C -7.199161 13.679684 -4.96989 12.612897 -4.96989 12.612897 C -4.96989 12.612897 -7.53758 12.411908 -6.645872 10.695771 C -5.754164 8.979635 -4.029837 10.597854 -4.029837 10.597854 C -4.029837 10.597854 -4.733534 8.268443 -2.627814 8.490046 C -0.522093 8.71165 -1.71999 10.829764 -1.71999 10.829764 C -1.71999 10.829764 0.455563 9.706287 0.815469 11.443038 C 1.175375 13.179789 -1.241906 12.983953 -1.241906 12.983953 C -1.241906 12.983953 0.654317 14.777393 -1.07001 15.473124 Z M -1.07001 15.473124 " transform="matrix(0.727186,0,0,0.757971,12.028096,6.510106)"/>
<path style="fill-rule:nonzero;fill:rgb(61.56863%,22.745098%,60.784316%);fill-opacity:1;stroke-width:2.693897;stroke-linecap:butt;stroke-linejoin:miter;stroke:rgb(95.294118%,71.764708%,85.09804%);stroke-opacity:1;stroke-miterlimit:4;" d="M -1.913373 13.96313 C -2.880285 14.354801 -3.132757 13.190096 -3.132757 13.190096 C -3.132757 13.190096 -3.648443 14.452719 -4.497178 13.705452 C -5.345912 12.963339 -4.099669 12.365526 -4.099669 12.365526 C -4.099669 12.365526 -5.533923 12.252147 -5.034351 11.288431 C -4.540152 10.329868 -3.573239 11.231742 -3.573239 11.231742 C -3.573239 11.231742 -3.965376 9.927891 -2.788966 10.051576 C -1.607184 10.175262 -2.278651 11.365735 -2.278651 11.365735 C -2.278651 11.365735 -1.059267 10.737 -0.860512 11.70587 C -0.656387 12.679893 -2.010064 12.571668 -2.010064 12.571668 C -2.010064 12.571668 -0.94646 13.576613 -1.913373 13.96313 Z M -1.913373 13.96313 " transform="matrix(0.727186,0,0,0.757971,12.028096,6.510106)"/>
<path style=" stroke:none;fill-rule:nonzero;fill:rgb(61.56863%,22.745098%,60.784316%);fill-opacity:1;" d="M 10.71875 15.640625 C 10.71875 16.136719 10.332031 16.539062 9.855469 16.539062 C 9.378906 16.539062 8.992188 16.136719 8.992188 15.640625 C 8.992188 15.144531 9.378906 14.738281 9.855469 14.738281 C 10.332031 14.738281 10.71875 15.144531 10.71875 15.640625 Z M 10.71875 15.640625 "/>
<path style="fill-rule:nonzero;fill:rgb(90.196079%,0.784314%,70.588237%);fill-opacity:1;stroke-width:2.693897;stroke-linecap:butt;stroke-linejoin:miter;stroke:rgb(90.196079%,0.784314%,70.588237%);stroke-opacity:1;stroke-miterlimit:4;" d="M -1.070628 15.472708 C -2.794955 16.168439 -3.246181 14.091554 -3.246181 14.091554 C -3.246181 14.091554 -4.164748 16.343661 -5.679577 15.014041 C -7.194407 13.679269 -4.970508 12.612481 -4.970508 12.612481 C -4.970508 12.612481 -7.538198 12.411492 -6.64649 10.695356 C -5.754782 8.979219 -4.025083 10.597438 -4.025083 10.597438 C -4.025083 10.597438 -4.734152 8.268027 -2.628431 8.489631 C -0.522711 8.711234 -1.720608 10.829348 -1.720608 10.829348 C -1.720608 10.829348 0.454945 9.705871 0.814851 11.442622 C 1.174758 13.179373 -1.237152 12.988691 -1.237152 12.988691 C -1.237152 12.988691 0.653699 14.782131 -1.070628 15.472708 Z M -1.070628 15.472708 " transform="matrix(0.727186,0,0,0.757971,18.583233,10.541671)"/>
<path style="fill-rule:nonzero;fill:rgb(95.294118%,71.764708%,85.09804%);fill-opacity:1;stroke-width:2.693897;stroke-linecap:butt;stroke-linejoin:miter;stroke:rgb(95.294118%,71.764708%,85.09804%);stroke-opacity:1;stroke-miterlimit:4;" d="M -1.91399 13.967868 C -2.880903 14.354385 -3.133374 13.18968 -3.133374 13.18968 C -3.133374 13.18968 -3.649061 14.452303 -4.497795 13.705036 C -5.34653 12.962923 -4.100287 12.36511 -4.100287 12.36511 C -4.100287 12.36511 -5.53454 12.251732 -5.034969 11.288015 C -4.535398 10.329453 -3.568485 11.23648 -3.568485 11.23648 C -3.568485 11.23648 -3.965994 9.932628 -2.789583 10.05116 C -1.607801 10.174846 -2.279268 11.365319 -2.279268 11.365319 C -2.279268 11.365319 -1.059884 10.736584 -0.855758 11.705454 C -0.657004 12.679477 -2.010682 12.571253 -2.010682 12.571253 C -2.010682 12.571253 -0.947078 13.576197 -1.91399 13.967868 Z M -1.91399 13.967868 " transform="matrix(0.727186,0,0,0.757971,18.583233,10.541671)"/>
<path style=" stroke:none;fill-rule:nonzero;fill:rgb(61.56863%,22.745098%,60.784316%);fill-opacity:1;" d="M 17.273438 19.671875 C 17.273438 20.167969 16.886719 20.570312 16.410156 20.570312 C 15.933594 20.570312 15.546875 20.167969 15.546875 19.671875 C 15.546875 19.175781 15.933594 18.773438 16.410156 18.773438 C 16.886719 18.773438 17.273438 19.175781 17.273438 19.671875 Z M 17.273438 19.671875 "/>
</g>
</svg>
