<?xml version="1.0" encoding="UTF-8"?>
<svg xmlns="http://www.w3.org/2000/svg" xmlns:xlink="http://www.w3.org/1999/xlink" width="32px" height="32px" viewBox="0 0 32 32" version="1.1">
<defs>
<filter id="alpha" filterUnits="objectBoundingBox" x="0%" y="0%" width="100%" height="100%">
  <feColorMatrix type="matrix" in="SourceGraphic" values="0 0 0 0 1 0 0 0 0 1 0 0 0 0 1 0 0 0 1 0"/>
</filter>
<mask id="mask0">
  <g filter="url(#alpha)">
<rect x="0" y="0" width="32" height="32" style="fill:rgb(0%,0%,0%);fill-opacity:0.35;stroke:none;"/>
  </g>
</mask>
<clipPath id="clip1">
  <rect x="0" y="0" width="32" height="32"/>
</clipPath>
<g id="surface5" clip-path="url(#clip1)">
<path style=" stroke:none;fill-rule:nonzero;fill:rgb(33.333334%,34.117648%,32.549021%);fill-opacity:1;" d="M 14 6.113281 L 14 18 L 29.71875 18 C 28.386719 22.65625 22.652344 26 16 26 C 8.269531 26 2 21.523438 2 16 C 2.007812 11.03125 7.117188 6.824219 14 6.113281 Z M 14 6.113281 "/>
</g>
</defs>
<g id="surface1">
<path style=" stroke:none;fill-rule:nonzero;fill:rgb(33.333334%,34.117648%,32.549021%);fill-opacity:1;" d="M 16 4 C 7.164062 4 0 9.371094 0 16 C 0 22.628906 7.164062 28 16 28 C 24.835938 28 32 22.628906 32 16 L 16 16 Z M 14 6.113281 L 14 18 L 29.71875 18 C 28.386719 22.65625 22.652344 26 16 26 C 8.269531 26 2 21.523438 2 16 C 2.007812 11.03125 7.117188 6.824219 14 6.113281 Z M 14 6.113281 "/>
<use xlink:href="#surface5" mask="url(#mask0)"/>
</g>
</svg>
