<?xml version="1.0" encoding="UTF-8"?>
<svg xmlns="http://www.w3.org/2000/svg" xmlns:xlink="http://www.w3.org/1999/xlink" width="32px" height="32px" viewBox="0 0 32 32" version="1.1">
<g id="surface1">
<path style=" stroke:none;fill-rule:evenodd;fill:rgb(95.294118%,71.764708%,85.09804%);fill-opacity:1;" d="M 5 5 L 10 15 L 5.34375 27 L 27.34375 27 C 29.34375 25 16.851562 18 18.34375 18 L 26 6 Z M 5 5 "/>
<path style=" stroke:none;fill-rule:nonzero;fill:rgb(61.56863%,22.745098%,60.784316%);fill-opacity:1;" d="M 27.953125 25.933594 L 29 24 L 18 16.230469 L 16.953125 18.164062 Z M 27.953125 25.933594 "/>
<path style=" stroke:none;fill-rule:nonzero;fill:rgb(61.56863%,22.745098%,60.784316%);fill-opacity:1;" d="M 17.527344 15.308594 L 19 16.664062 L 28.472656 6.351562 L 27 5 Z M 17.527344 15.308594 "/>
<path style=" stroke:none;fill-rule:nonzero;fill:rgb(61.56863%,22.745098%,60.784316%);fill-opacity:1;" d="M 5 26.703125 L 6.898438 27.335938 L 11 15 L 9.101562 14.367188 Z M 5 26.703125 "/>
<path style=" stroke:none;fill-rule:nonzero;fill:rgb(61.56863%,22.745098%,60.784316%);fill-opacity:1;" d="M 8.257812 12.976562 L 10 12 L 6.085938 5.023438 L 4.34375 6 Z M 8.257812 12.976562 "/>
<path style=" stroke:none;fill-rule:nonzero;fill:rgb(90.196079%,0.784314%,70.588237%);fill-opacity:1;" d="M 2.5625 2 L 7.4375 2 C 7.75 2 8 2.25 8 2.5625 L 8 7.4375 C 8 7.75 7.75 8 7.4375 8 L 2.5625 8 C 2.25 8 2 7.75 2 7.4375 L 2 2.5625 C 2 2.25 2.25 2 2.5625 2 Z M 2.5625 2 "/>
<path style=" stroke:none;fill-rule:nonzero;fill:rgb(95.294118%,71.764708%,85.09804%);fill-opacity:1;" d="M 3.375 3 L 6.625 3 C 6.832031 3 7 3.167969 7 3.375 L 7 6.625 C 7 6.832031 6.832031 7 6.625 7 L 3.375 7 C 3.167969 7 3 6.832031 3 6.625 L 3 3.375 C 3 3.167969 3.167969 3 3.375 3 Z M 3.375 3 "/>
<path style=" stroke:none;fill-rule:nonzero;fill:rgb(90.196079%,0.784314%,70.588237%);fill-opacity:1;" d="M 24.5625 2 L 29.4375 2 C 29.75 2 30 2.25 30 2.5625 L 30 7.4375 C 30 7.75 29.75 8 29.4375 8 L 24.5625 8 C 24.25 8 24 7.75 24 7.4375 L 24 2.5625 C 24 2.25 24.25 2 24.5625 2 Z M 24.5625 2 "/>
<path style=" stroke:none;fill-rule:nonzero;fill:rgb(95.294118%,71.764708%,85.09804%);fill-opacity:1;" d="M 25.375 3 L 28.625 3 C 28.832031 3 29 3.167969 29 3.375 L 29 6.625 C 29 6.832031 28.832031 7 28.625 7 L 25.375 7 C 25.167969 7 25 6.832031 25 6.625 L 25 3.375 C 25 3.167969 25.167969 3 25.375 3 Z M 25.375 3 "/>
<path style=" stroke:none;fill-rule:nonzero;fill:rgb(90.196079%,0.784314%,70.588237%);fill-opacity:1;" d="M 14.5625 13 L 19.4375 13 C 19.75 13 20 13.25 20 13.5625 L 20 18.4375 C 20 18.75 19.75 19 19.4375 19 L 14.5625 19 C 14.25 19 14 18.75 14 18.4375 L 14 13.5625 C 14 13.25 14.25 13 14.5625 13 Z M 14.5625 13 "/>
<path style=" stroke:none;fill-rule:nonzero;fill:rgb(95.294118%,71.764708%,85.09804%);fill-opacity:1;" d="M 15.375 14 L 18.625 14 C 18.832031 14 19 14.167969 19 14.375 L 19 17.625 C 19 17.832031 18.832031 18 18.625 18 L 15.375 18 C 15.167969 18 15 17.832031 15 17.625 L 15 14.375 C 15 14.167969 15.167969 14 15.375 14 Z M 15.375 14 "/>
<path style=" stroke:none;fill-rule:nonzero;fill:rgb(90.196079%,0.784314%,70.588237%);fill-opacity:1;" d="M 6.5625 12 L 11.4375 12 C 11.75 12 12 12.25 12 12.5625 L 12 17.4375 C 12 17.75 11.75 18 11.4375 18 L 6.5625 18 C 6.25 18 6 17.75 6 17.4375 L 6 12.5625 C 6 12.25 6.25 12 6.5625 12 Z M 6.5625 12 "/>
<path style=" stroke:none;fill-rule:nonzero;fill:rgb(95.294118%,71.764708%,85.09804%);fill-opacity:1;" d="M 7.375 13 L 10.625 13 C 10.832031 13 11 13.167969 11 13.375 L 11 16.625 C 11 16.832031 10.832031 17 10.625 17 L 7.375 17 C 7.167969 17 7 16.832031 7 16.625 L 7 13.375 C 7 13.167969 7.167969 13 7.375 13 Z M 7.375 13 "/>
<path style=" stroke:none;fill-rule:nonzero;fill:rgb(90.196079%,0.784314%,70.588237%);fill-opacity:1;" d="M 24.5625 24 L 29.4375 24 C 29.75 24 30 24.25 30 24.5625 L 30 29.4375 C 30 29.75 29.75 30 29.4375 30 L 24.5625 30 C 24.25 30 24 29.75 24 29.4375 L 24 24.5625 C 24 24.25 24.25 24 24.5625 24 Z M 24.5625 24 "/>
<path style=" stroke:none;fill-rule:nonzero;fill:rgb(95.294118%,71.764708%,85.09804%);fill-opacity:1;" d="M 25.375 25 L 28.625 25 C 28.832031 25 29 25.167969 29 25.375 L 29 28.625 C 29 28.832031 28.832031 29 28.625 29 L 25.375 29 C 25.167969 29 25 28.832031 25 28.625 L 25 25.375 C 25 25.167969 25.167969 25 25.375 25 Z M 25.375 25 "/>
<path style=" stroke:none;fill-rule:nonzero;fill:rgb(90.196079%,0.784314%,70.588237%);fill-opacity:1;" d="M 2.5625 24 L 7.4375 24 C 7.75 24 8 24.25 8 24.5625 L 8 29.4375 C 8 29.75 7.75 30 7.4375 30 L 2.5625 30 C 2.25 30 2 29.75 2 29.4375 L 2 24.5625 C 2 24.25 2.25 24 2.5625 24 Z M 2.5625 24 "/>
<path style=" stroke:none;fill-rule:nonzero;fill:rgb(95.294118%,71.764708%,85.09804%);fill-opacity:1;" d="M 3.375 25 L 6.625 25 C 6.832031 25 7 25.167969 7 25.375 L 7 28.625 C 7 28.832031 6.832031 29 6.625 29 L 3.375 29 C 3.167969 29 3 28.832031 3 28.625 L 3 25.375 C 3 25.167969 3.167969 25 3.375 25 Z M 3.375 25 "/>
<path style=" stroke:none;fill-rule:nonzero;fill:rgb(61.56863%,22.745098%,60.784316%);fill-opacity:1;" d="M 8 4 L 8 6 L 24 6 L 24 4 Z M 8 4 "/>
<path style=" stroke:none;fill-rule:nonzero;fill:rgb(61.56863%,22.745098%,60.784316%);fill-opacity:1;" d="M 8 26 L 8 28 L 24 28 L 24 26 Z M 8 26 "/>
</g>
</svg>
