<?xml version="1.0" encoding="UTF-8"?>
<svg xmlns="http://www.w3.org/2000/svg" xmlns:xlink="http://www.w3.org/1999/xlink" width="32px" height="32px" viewBox="0 0 32 32" version="1.1">
<g id="surface1">
<path style=" stroke:none;fill-rule:nonzero;fill:rgb(90.196079%,0.784314%,70.588237%);fill-opacity:1;" d="M 20 12 L 20 14 L 22 14 L 22 12 Z M 24 12 L 24 14 L 26 14 L 26 12 Z M 28 12 L 28 14 L 30 14 L 30 12 Z M 28 16 L 28 18 L 30 18 L 30 16 Z M 28 20 L 28 22 L 30 22 L 30 20 Z M 8 24 L 8 26 L 10 26 L 10 24 Z M 12 24 L 12 26 L 14 26 L 14 24 Z M 16 24 L 16 26 L 18 26 L 18 24 Z M 20 24 L 20 26 L 22 26 L 22 24 Z M 24 24 L 24 26 L 26 26 L 26 24 Z M 28 24 L 28 26 L 30 26 L 30 24 Z M 28 24 "/>
<path style=" stroke:none;fill-rule:nonzero;fill:rgb(61.56863%,22.745098%,60.784316%);fill-opacity:1;" d="M 8 12 L 10 12 L 10 14 L 8 14 Z M 8 12 "/>
<path style="fill:none;stroke-width:1;stroke-linecap:round;stroke-linejoin:miter;stroke:rgb(61.56863%,22.745098%,60.784316%);stroke-opacity:1;stroke-miterlimit:4;" d="M 4.5 3.5 L 4.5 4.5 " transform="matrix(2,0,0,2,0,0)"/>
<path style="fill:none;stroke-width:1;stroke-linecap:round;stroke-linejoin:miter;stroke:rgb(61.56863%,22.745098%,60.784316%);stroke-opacity:1;stroke-miterlimit:4;" d="M 2.5 6.5 L 1.5 6.5 " transform="matrix(2,0,0,2,0,0)"/>
<path style="fill:none;stroke-width:1;stroke-linecap:round;stroke-linejoin:miter;stroke:rgb(61.56863%,22.745098%,60.784316%);stroke-opacity:1;stroke-miterlimit:4;" d="M 7.5 6.5 L 6.5 6.5 " transform="matrix(2,0,0,2,0,0)"/>
<path style="fill:none;stroke-width:1;stroke-linecap:round;stroke-linejoin:miter;stroke:rgb(61.56863%,22.745098%,60.784316%);stroke-opacity:1;stroke-miterlimit:4;" d="M 4.5 9.5 L 4.5 8.5 " transform="matrix(2,0,0,2,0,0)"/>
</g>
</svg>
