<?xml version="1.0" encoding="UTF-8"?>
<svg xmlns="http://www.w3.org/2000/svg" xmlns:xlink="http://www.w3.org/1999/xlink" width="32px" height="32px" viewBox="0 0 32 32" version="1.1">
<g id="surface1">
<path style="fill:none;stroke-width:0.938729;stroke-linecap:round;stroke-linejoin:miter;stroke:rgb(90.196079%,0.784314%,70.588237%);stroke-opacity:1;stroke-miterlimit:4;" d="M 7.66409 11.363297 L 7.66409 12.979634 " transform="matrix(2.08,0,0,2.182307,-0.101463,-1.364615)"/>
<path style="fill-rule:evenodd;fill:rgb(94.117647%,89.019608%,92.54902%);fill-opacity:1;stroke-width:0.938729;stroke-linecap:round;stroke-linejoin:round;stroke:rgb(90.196079%,0.784314%,70.588237%);stroke-opacity:1;stroke-miterlimit:4;" d="M 3.532479 2.852022 L 11.957209 2.852022 C 12.753483 2.852022 13.399517 3.46777 13.399517 4.226714 L 13.399517 9.811399 C 13.399517 10.570344 12.753483 11.186091 11.957209 11.186091 L 3.532479 11.186091 C 2.736205 11.186091 2.090172 10.570344 2.090172 9.811399 L 2.090172 4.226714 C 2.090172 3.46777 2.736205 2.852022 3.532479 2.852022 Z M 3.532479 2.852022 " transform="matrix(2.08,0,0,2.182307,-0.101463,-1.364615)"/>
<path style="fill-rule:evenodd;fill:rgb(61.56863%,22.745098%,60.784316%);fill-opacity:1;stroke-width:0.938729;stroke-linecap:round;stroke-linejoin:round;stroke:rgb(90.196079%,0.784314%,70.588237%);stroke-opacity:1;stroke-miterlimit:4;" d="M 2.92964 2 L 12.552537 2 C 13.348811 2 13.994844 2.399162 13.994844 2.893192 C 13.994844 3.385431 13.348811 3.786383 12.552537 3.786383 L 2.92964 3.786383 C 2.133366 3.786383 1.487332 3.385431 1.487332 2.893192 C 1.487332 2.399162 2.133366 2 2.92964 2 Z M 2.92964 2 " transform="matrix(2.08,0,0,2.182307,-0.101463,-1.364615)"/>
<path style="fill-rule:evenodd;fill:rgb(61.56863%,22.745098%,60.784316%);fill-opacity:1;stroke-width:0.938729;stroke-linecap:round;stroke-linejoin:round;stroke:rgb(90.196079%,0.784314%,70.588237%);stroke-opacity:1;stroke-miterlimit:4;" d="M 8.364586 13.258868 C 8.364586 13.620441 8.050959 13.913995 7.66409 13.913995 C 7.277221 13.913995 6.963594 13.620441 6.963594 13.258868 C 6.963594 12.895506 7.277221 12.601952 7.66409 12.601952 C 8.050959 12.601952 8.364586 12.895506 8.364586 13.258868 Z M 8.364586 13.258868 " transform="matrix(2.08,0,0,2.182307,-0.101463,-1.364615)"/>
<path style="fill-rule:nonzero;fill:rgb(90.196079%,0.784314%,70.588237%);fill-opacity:1;stroke-width:2.392385;stroke-linecap:butt;stroke-linejoin:miter;stroke:rgb(90.196079%,0.784314%,70.588237%);stroke-opacity:1;stroke-miterlimit:4;" d="M -1.071071 15.473215 C -2.795038 16.16815 -3.248714 14.087917 -3.248714 14.087917 C -3.248714 14.087917 -4.165616 16.346456 -5.67946 15.011449 C -7.198079 13.681014 -4.972681 12.61118 -4.972681 12.61118 C -4.972681 12.61118 -7.537142 12.414587 -6.644117 10.695537 C -5.755868 8.976487 -4.027126 10.594954 -4.027126 10.594954 C -4.027126 10.594954 -4.733904 8.267836 -2.627895 8.487289 C -0.521885 8.711314 -1.720544 10.828123 -1.720544 10.828123 C -1.720544 10.828123 0.457099 9.707997 0.815264 11.440763 C 1.178204 13.178101 -1.238215 12.986079 -1.238215 12.986079 C -1.238215 12.986079 0.657671 14.77828 -1.071071 15.473215 Z M -1.071071 15.473215 " transform="matrix(0.817972,0,0,0.854396,12.016731,4.728959)"/>
<path style="fill-rule:nonzero;fill:rgb(95.294118%,71.764708%,85.09804%);fill-opacity:1;stroke-width:2.392385;stroke-linecap:butt;stroke-linejoin:miter;stroke:rgb(95.294118%,71.764708%,85.09804%);stroke-opacity:1;stroke-miterlimit:4;" d="M -1.916341 13.964475 C -2.880998 14.35309 -3.134101 13.191817 -3.134101 13.191817 C -3.134101 13.191817 -3.649859 14.453672 -4.495128 13.708446 C -5.345172 12.958648 -4.098759 12.364295 -4.098759 12.364295 C -4.098759 12.364295 -5.536194 12.249997 -5.034763 11.289889 C -4.538108 10.32521 -3.568675 11.235026 -3.568675 11.235026 C -3.568675 11.235026 -3.965044 9.932023 -2.785487 10.055465 C -1.610707 10.178907 -2.279281 11.36304 -2.279281 11.36304 C -2.279281 11.36304 -1.06152 10.736684 -0.856173 11.705936 C -0.6556 12.679759 -2.011851 12.574605 -2.011851 12.574605 C -2.011851 12.574605 -0.946908 13.57586 -1.916341 13.964475 Z M -1.916341 13.964475 " transform="matrix(0.817972,0,0,0.854396,12.016731,4.728959)"/>
<path style=" stroke:none;fill-rule:nonzero;fill:rgb(61.56863%,22.745098%,60.784316%);fill-opacity:1;" d="M 10.542969 15.019531 C 10.542969 15.578125 10.109375 16.035156 9.570312 16.035156 C 9.035156 16.035156 8.601562 15.578125 8.601562 15.019531 C 8.601562 14.460938 9.035156 14.007812 9.570312 14.007812 C 10.109375 14.007812 10.542969 14.460938 10.542969 15.019531 Z M 10.542969 15.019531 "/>
<path style="fill:none;stroke-width:0.938729;stroke-linecap:round;stroke-linejoin:miter;stroke:rgb(90.196079%,0.784314%,70.588237%);stroke-opacity:1;stroke-miterlimit:4;" d="M 8.041569 5.570977 L 12.208862 5.570977 " transform="matrix(2.08,0,0,2.182307,-0.101463,-1.364615)"/>
<path style="fill:none;stroke-width:0.938729;stroke-linecap:round;stroke-linejoin:miter;stroke:rgb(90.196079%,0.784314%,70.588237%);stroke-opacity:1;stroke-miterlimit:4;" d="M 8.041569 6.761302 L 12.208862 6.761302 " transform="matrix(2.08,0,0,2.182307,-0.101463,-1.364615)"/>
<path style="fill:none;stroke-width:0.938729;stroke-linecap:round;stroke-linejoin:miter;stroke:rgb(90.196079%,0.784314%,70.588237%);stroke-opacity:1;stroke-miterlimit:4;" d="M 8.041569 7.951628 L 12.208862 7.951628 " transform="matrix(2.08,0,0,2.182307,-0.101463,-1.364615)"/>
<path style="fill:none;stroke-width:0.938729;stroke-linecap:round;stroke-linejoin:miter;stroke:rgb(90.196079%,0.784314%,70.588237%);stroke-opacity:1;stroke-miterlimit:4;" d="M 8.041569 9.143743 L 12.208862 9.143743 " transform="matrix(2.08,0,0,2.182307,-0.101463,-1.364615)"/>
</g>
</svg>
