<?xml version="1.0" encoding="UTF-8"?>
<svg xmlns="http://www.w3.org/2000/svg" xmlns:xlink="http://www.w3.org/1999/xlink" width="32px" height="32px" viewBox="0 0 32 32" version="1.1">
<g id="surface1">
<path style="fill:none;stroke-width:0.961538;stroke-linecap:round;stroke-linejoin:miter;stroke:rgb(90.196079%,0.784314%,70.588237%);stroke-opacity:1;stroke-miterlimit:4;" d="M 7.66409 11.362075 L 7.66409 12.979038 " transform="matrix(2.08,0,0,2.08,-0.101463,-0.957335)"/>
<path style="fill-rule:evenodd;fill:rgb(94.117647%,89.019608%,92.54902%);fill-opacity:1;stroke-width:0.961538;stroke-linecap:round;stroke-linejoin:round;stroke:rgb(90.196079%,0.784314%,70.588237%);stroke-opacity:1;stroke-miterlimit:4;" d="M 3.532479 2.852835 L 11.957209 2.852835 C 12.753483 2.852835 13.399517 3.496991 13.399517 4.295143 L 13.399517 9.743235 C 13.399517 10.539509 12.753483 11.185543 11.957209 11.185543 L 3.532479 11.185543 C 2.736205 11.185543 2.090172 10.539509 2.090172 9.743235 L 2.090172 4.295143 C 2.090172 3.496991 2.736205 2.852835 3.532479 2.852835 Z M 3.532479 2.852835 " transform="matrix(2.08,0,0,2.08,-0.101463,-0.957335)"/>
<path style="fill-rule:evenodd;fill:rgb(61.56863%,22.745098%,60.784316%);fill-opacity:1;stroke-width:0.961538;stroke-linecap:round;stroke-linejoin:round;stroke:rgb(90.196079%,0.784314%,70.588237%);stroke-opacity:1;stroke-miterlimit:4;" d="M 2.92964 2.000221 L 12.552537 2.000221 C 13.348811 2.000221 13.994844 2.400236 13.994844 2.892273 C 13.994844 3.386189 13.348811 3.786204 12.552537 3.786204 L 2.92964 3.786204 C 2.133366 3.786204 1.487332 3.386189 1.487332 2.892273 C 1.487332 2.400236 2.133366 2.000221 2.92964 2.000221 Z M 2.92964 2.000221 " transform="matrix(2.08,0,0,2.08,-0.101463,-0.957335)"/>
<path style="fill-rule:evenodd;fill:rgb(61.56863%,22.745098%,60.784316%);fill-opacity:1;stroke-width:0.961538;stroke-linecap:round;stroke-linejoin:round;stroke:rgb(90.196079%,0.784314%,70.588237%);stroke-opacity:1;stroke-miterlimit:4;" d="M 8.364586 13.25886 C 8.364586 13.621315 8.050959 13.914284 7.66409 13.914284 C 7.277221 13.914284 6.963594 13.621315 6.963594 13.25886 C 6.963594 12.896405 7.277221 12.601559 7.66409 12.601559 C 8.050959 12.601559 8.364586 12.896405 8.364586 13.25886 Z M 8.364586 13.25886 " transform="matrix(2.08,0,0,2.08,-0.101463,-0.957335)"/>
<path style="fill-rule:nonzero;fill:rgb(90.196079%,0.784314%,70.588237%);fill-opacity:1;stroke-width:2.450516;stroke-linecap:butt;stroke-linejoin:miter;stroke:rgb(90.196079%,0.784314%,70.588237%);stroke-opacity:1;stroke-miterlimit:4;" d="M -1.071071 15.475754 C -2.795038 16.171292 -3.248714 14.089473 -3.248714 14.089473 C -3.248714 14.089473 -4.165616 16.343978 -5.67946 15.015259 C -7.198079 13.681744 -4.972681 12.612053 -4.972681 12.612053 C -4.972681 12.612053 -7.537142 12.415384 -6.644117 10.698123 C -5.755868 8.976065 -4.027126 10.59739 -4.027126 10.59739 C -4.027126 10.59739 -4.733904 8.266136 -2.627895 8.48679 C -0.521885 8.707443 -1.720544 10.827637 -1.720544 10.827637 C -1.720544 10.827637 0.457099 9.705181 0.815264 11.44163 C 1.178204 13.178078 -1.238215 12.986205 -1.238215 12.986205 C -1.238215 12.986205 0.657671 14.780215 -1.071071 15.475754 Z M -1.071071 15.475754 " transform="matrix(0.817972,0,0,0.814342,12.016731,4.85057)"/>
<path style="fill-rule:nonzero;fill:rgb(95.294118%,71.764708%,85.09804%);fill-opacity:1;stroke-width:2.450516;stroke-linecap:butt;stroke-linejoin:miter;stroke:rgb(95.294118%,71.764708%,85.09804%);stroke-opacity:1;stroke-miterlimit:4;" d="M -1.916341 13.964756 C -2.880998 14.353298 -3.134101 13.192468 -3.134101 13.192468 C -3.134101 13.192468 -3.649859 14.454031 -4.495128 13.705728 C -5.345172 12.962221 -4.098759 12.362619 -4.098759 12.362619 C -4.098759 12.362619 -5.536194 12.252292 -5.034763 11.288131 C -4.538108 10.328768 -3.568675 11.235366 -3.568675 11.235366 C -3.568675 11.235366 -3.965044 9.930632 -2.785487 10.055349 C -1.610707 10.17527 -2.279281 11.364881 -2.279281 11.364881 C -2.279281 11.364881 -1.06152 10.736497 -0.856172 11.705455 C -0.6556 12.679209 -2.011851 12.573679 -2.011851 12.573679 C -2.011851 12.573679 -0.946908 13.576214 -1.916341 13.964756 Z M -1.916341 13.964756 " transform="matrix(0.817972,0,0,0.814342,12.016731,4.85057)"/>
<path style=" stroke:none;fill-rule:nonzero;fill:rgb(61.56863%,22.745098%,60.784316%);fill-opacity:1;" d="M 10.542969 14.660156 C 10.542969 15.191406 10.109375 15.625 9.570312 15.625 C 9.035156 15.625 8.601562 15.191406 8.601562 14.660156 C 8.601562 14.125 9.035156 13.691406 9.570312 13.691406 C 10.109375 13.691406 10.542969 14.125 10.542969 14.660156 Z M 10.542969 14.660156 "/>
<path style="fill:none;stroke-width:0.961538;stroke-linecap:round;stroke-linejoin:miter;stroke:rgb(90.196079%,0.784314%,70.588237%);stroke-opacity:1;stroke-miterlimit:4;" d="M 8.041569 5.572186 L 12.208862 5.572186 " transform="matrix(2.08,0,0,2.08,-0.101463,-0.957335)"/>
<path style="fill:none;stroke-width:0.961538;stroke-linecap:round;stroke-linejoin:miter;stroke:rgb(90.196079%,0.784314%,70.588237%);stroke-opacity:1;stroke-miterlimit:4;" d="M 8.041569 6.762841 L 12.208862 6.762841 " transform="matrix(2.08,0,0,2.08,-0.101463,-0.957335)"/>
<path style="fill:none;stroke-width:0.961538;stroke-linecap:round;stroke-linejoin:miter;stroke:rgb(90.196079%,0.784314%,70.588237%);stroke-opacity:1;stroke-miterlimit:4;" d="M 8.041569 7.951619 L 12.208862 7.951619 " transform="matrix(2.08,0,0,2.08,-0.101463,-0.957335)"/>
<path style="fill:none;stroke-width:0.961538;stroke-linecap:round;stroke-linejoin:miter;stroke:rgb(90.196079%,0.784314%,70.588237%);stroke-opacity:1;stroke-miterlimit:4;" d="M 8.041569 9.142274 L 12.208862 9.142274 " transform="matrix(2.08,0,0,2.08,-0.101463,-0.957335)"/>
<path style="fill-rule:nonzero;fill:rgb(95.294118%,71.764708%,85.09804%);fill-opacity:1;stroke-width:0.5;stroke-linecap:butt;stroke-linejoin:round;stroke:rgb(61.56863%,22.745098%,60.784316%);stroke-opacity:1;stroke-miterlimit:4;" d="M 8.273438 7.382812 L 8.273438 14.734375 L 14.677734 14.734375 Z M 8.876953 9.664062 L 12.615234 13.720703 L 8.865234 13.720703 Z M 8.876953 9.664062 " transform="matrix(2,0,0,2,0,0)"/>
</g>
</svg>
