<?xml version="1.0" encoding="UTF-8"?>
<svg xmlns="http://www.w3.org/2000/svg" xmlns:xlink="http://www.w3.org/1999/xlink" width="32px" height="32px" viewBox="0 0 32 32" version="1.1">
<g id="surface1">
<path style="fill:none;stroke-width:0.961538;stroke-linecap:round;stroke-linejoin:miter;stroke:rgb(90.196079%,0.784314%,70.588237%);stroke-opacity:1;stroke-miterlimit:4;" d="M 7.663124 11.361854 L 7.663124 12.980695 " transform="matrix(2.08,0,0,2.08,-0.118985,-1.16)"/>
<path style="fill-rule:evenodd;fill:rgb(94.117647%,89.019608%,92.54902%);fill-opacity:1;stroke-width:0.961538;stroke-linecap:round;stroke-linejoin:round;stroke:rgb(90.196079%,0.784314%,70.588237%);stroke-opacity:1;stroke-miterlimit:4;" d="M 3.531513 2.852614 L 11.958121 2.852614 C 12.754395 2.852614 13.400429 3.498648 13.400429 4.294922 L 13.400429 9.743014 C 13.400429 10.539288 12.754395 11.185322 11.958121 11.185322 L 3.531513 11.185322 C 2.735239 11.185322 2.089206 10.539288 2.089206 9.743014 L 2.089206 4.294922 C 2.089206 3.498648 2.735239 2.852614 3.531513 2.852614 Z M 3.531513 2.852614 " transform="matrix(2.08,0,0,2.08,-0.118985,-1.16)"/>
<path style="fill-rule:evenodd;fill:rgb(61.56863%,22.745098%,60.784316%);fill-opacity:1;stroke-width:0.961538;stroke-linecap:round;stroke-linejoin:round;stroke:rgb(90.196079%,0.784314%,70.588237%);stroke-opacity:1;stroke-miterlimit:4;" d="M 2.930552 2 L 12.553449 2 C 13.349723 2 13.995756 2.400015 13.995756 2.892052 C 13.995756 3.385968 13.349723 3.785983 12.553449 3.785983 L 2.930552 3.785983 C 2.1324 3.785983 1.488244 3.385968 1.488244 2.892052 C 1.488244 2.400015 2.1324 2 2.930552 2 Z M 2.930552 2 " transform="matrix(2.08,0,0,2.08,-0.118985,-1.16)"/>
<path style="fill-rule:evenodd;fill:rgb(61.56863%,22.745098%,60.784316%);fill-opacity:1;stroke-width:0.961538;stroke-linecap:round;stroke-linejoin:round;stroke:rgb(90.196079%,0.784314%,70.588237%);stroke-opacity:1;stroke-miterlimit:4;" d="M 8.36362 13.258639 C 8.36362 13.621094 8.049993 13.914063 7.663124 13.914063 C 7.276255 13.914063 6.962628 13.621094 6.962628 13.258639 C 6.962628 12.896184 7.276255 12.603216 7.663124 12.603216 C 8.049993 12.603216 8.36362 12.896184 8.36362 13.258639 Z M 8.36362 13.258639 " transform="matrix(2.08,0,0,2.08,-0.118985,-1.16)"/>
<path style="fill-rule:nonzero;fill:rgb(90.196079%,0.784314%,70.588237%);fill-opacity:1;stroke-width:2.450516;stroke-linecap:butt;stroke-linejoin:miter;stroke:rgb(90.196079%,0.784314%,70.588237%);stroke-opacity:1;stroke-miterlimit:4;" d="M -1.068752 15.475189 C -2.792719 16.170728 -3.246395 14.088909 -3.246395 14.088909 C -3.246395 14.088909 -4.163297 16.34821 -5.681916 15.014695 C -7.19576 13.681179 -4.970362 12.611489 -4.970362 12.611489 C -4.970362 12.611489 -7.534822 12.414819 -6.646573 10.697558 C -5.753549 8.975501 -4.029582 10.596825 -4.029582 10.596825 C -4.029582 10.596825 -4.736361 8.270368 -2.630351 8.491022 C -0.524342 8.706879 -1.723 10.827072 -1.723 10.827072 C -1.723 10.827072 0.454642 9.704617 0.817583 11.441065 C 1.175748 13.177513 -1.240671 12.985641 -1.240671 12.985641 C -1.240671 12.985641 0.655215 14.779651 -1.068752 15.475189 Z M -1.068752 15.475189 " transform="matrix(0.817972,0,0,0.814342,11.999209,4.647905)"/>
<path style="fill-rule:nonzero;fill:rgb(95.294118%,71.764708%,85.09804%);fill-opacity:1;stroke-width:2.450516;stroke-linecap:butt;stroke-linejoin:miter;stroke:rgb(95.294118%,71.764708%,85.09804%);stroke-opacity:1;stroke-miterlimit:4;" d="M -1.914021 13.964191 C -2.878679 14.352734 -3.131782 13.191904 -3.131782 13.191904 C -3.131782 13.191904 -3.647539 14.453467 -4.497584 13.705163 C -5.347629 12.961656 -4.101215 12.362054 -4.101215 12.362054 C -4.101215 12.362054 -5.533875 12.251727 -5.037219 11.287567 C -4.535788 10.328203 -3.571131 11.234802 -3.571131 11.234802 C -3.571131 11.234802 -3.9675 9.930067 -2.787944 10.054785 C -1.608387 10.174705 -2.281737 11.364316 -2.281737 11.364316 C -2.281737 11.364316 -1.059201 10.735933 -0.858629 11.709687 C -0.658057 12.678644 -2.009532 12.573114 -2.009532 12.573114 C -2.009532 12.573114 -0.949364 13.575649 -1.914021 13.964191 Z M -1.914021 13.964191 " transform="matrix(0.817972,0,0,0.814342,11.999209,4.647905)"/>
<path style=" stroke:none;fill-rule:nonzero;fill:rgb(61.56863%,22.745098%,60.784316%);fill-opacity:1;" d="M 10.523438 14.457031 C 10.523438 14.988281 10.089844 15.421875 9.554688 15.421875 C 9.019531 15.421875 8.582031 14.988281 8.582031 14.457031 C 8.582031 13.921875 9.019531 13.488281 9.554688 13.488281 C 10.089844 13.488281 10.523438 13.921875 10.523438 14.457031 Z M 10.523438 14.457031 "/>
<path style="fill:none;stroke-width:0.961538;stroke-linecap:round;stroke-linejoin:miter;stroke:rgb(90.196079%,0.784314%,70.588237%);stroke-opacity:1;stroke-miterlimit:4;" d="M 8.042481 5.571965 L 12.209774 5.571965 " transform="matrix(2.08,0,0,2.08,-0.118985,-1.16)"/>
<path style="fill:none;stroke-width:0.961538;stroke-linecap:round;stroke-linejoin:miter;stroke:rgb(90.196079%,0.784314%,70.588237%);stroke-opacity:1;stroke-miterlimit:4;" d="M 8.042481 6.76262 L 12.209774 6.76262 " transform="matrix(2.08,0,0,2.08,-0.118985,-1.16)"/>
<path style="fill:none;stroke-width:0.961538;stroke-linecap:round;stroke-linejoin:miter;stroke:rgb(90.196079%,0.784314%,70.588237%);stroke-opacity:1;stroke-miterlimit:4;" d="M 8.042481 7.953276 L 12.209774 7.953276 " transform="matrix(2.08,0,0,2.08,-0.118985,-1.16)"/>
<path style="fill:none;stroke-width:0.961538;stroke-linecap:round;stroke-linejoin:miter;stroke:rgb(90.196079%,0.784314%,70.588237%);stroke-opacity:1;stroke-miterlimit:4;" d="M 8.042481 9.142053 L 12.209774 9.142053 " transform="matrix(2.08,0,0,2.08,-0.118985,-1.16)"/>
<path style="fill-rule:evenodd;fill:rgb(94.117647%,89.019608%,92.54902%);fill-opacity:1;stroke-width:1.803164;stroke-linecap:round;stroke-linejoin:round;stroke:rgb(90.196079%,0.784314%,70.588237%);stroke-opacity:1;stroke-miterlimit:4;" d="M 16.258935 8.509943 L 19.760969 8.509943 C 21.2503 8.509943 22.458624 9.724628 22.458624 11.221797 L 22.458624 19.788146 C 22.458624 21.285315 21.2503 22.499999 19.760969 22.499999 L 16.258935 22.499999 C 14.769604 22.499999 13.56128 21.285315 13.56128 19.788146 L 13.56128 11.221797 C 13.56128 9.724628 14.769604 8.509943 16.258935 8.509943 Z M 16.258935 8.509943 " transform="matrix(1.112077,0,0,1.106254,4.016471,4.109275)"/>
<path style="fill-rule:evenodd;fill:rgb(95.294118%,71.764708%,85.09804%);fill-opacity:1;stroke-width:1.803164;stroke-linecap:round;stroke-linejoin:round;stroke:rgb(90.196079%,0.784314%,70.588237%);stroke-opacity:1;stroke-miterlimit:4;" d="M 17.130053 11.50075 L 18.868776 11.50075 C 19.767994 11.50075 20.498609 12.376453 20.498609 13.460488 L 20.498609 18.538151 C 20.498609 19.622186 19.767994 20.50142 18.868776 20.50142 L 17.130053 20.50142 C 16.230834 20.50142 15.500219 19.622186 15.500219 18.538151 L 15.500219 13.460488 C 15.500219 12.376453 16.230834 11.50075 17.130053 11.50075 Z M 17.130053 11.50075 " transform="matrix(1.112077,0,0,1.106254,4.016471,4.109275)"/>
<path style="fill:none;stroke-width:1.803164;stroke-linecap:round;stroke-linejoin:round;stroke:rgb(61.56863%,22.745098%,60.784316%);stroke-opacity:1;stroke-miterlimit:4;" d="M 18.419167 14.187886 C 18.419167 14.413874 18.236513 14.597489 18.004683 14.597489 C 17.776366 14.597489 17.5902 14.417405 17.586687 14.191417 C 17.583175 13.96543 17.765828 13.778283 17.997658 13.774752 C 18.225975 13.771221 18.415654 13.951305 18.419167 14.177293 L 18.004683 14.187886 Z M 18.419167 14.187886 " transform="matrix(1.112077,0,0,1.106254,4.016471,4.109275)"/>
<path style="fill:none;stroke-width:1.803164;stroke-linecap:round;stroke-linejoin:round;stroke:rgb(90.196079%,0.784314%,70.588237%);stroke-opacity:1;stroke-miterlimit:4;" d="M 17.948482 16.89974 L 17.948482 17.980244 " transform="matrix(1.112077,0,0,1.106254,4.016471,4.109275)"/>
</g>
</svg>
