<?xml version="1.0" encoding="UTF-8"?>
<svg xmlns="http://www.w3.org/2000/svg" xmlns:xlink="http://www.w3.org/1999/xlink" width="32px" height="32px" viewBox="0 0 32 32" version="1.1">
<defs>
<linearGradient id="linear0" gradientUnits="userSpaceOnUse" x1="96" y1="104" x2="88.000198" y2="96.000198" gradientTransform="matrix(0.25,0,0,0.25,-0.000001,0.000005)">
<stop offset="0" style="stop-color:rgb(53.333336%,54.11765%,52.156866%);stop-opacity:1;"/>
<stop offset="0.0072" style="stop-color:rgb(54.901963%,55.686277%,53.725493%);stop-opacity:1;"/>
<stop offset="0.0673" style="stop-color:rgb(67.058825%,67.450982%,66.274512%);stop-opacity:1;"/>
<stop offset="0.1347" style="stop-color:rgb(77.254903%,77.64706%,76.862746%);stop-opacity:1;"/>
<stop offset="0.2115" style="stop-color:rgb(85.882354%,85.882354%,85.490197%);stop-opacity:1;"/>
<stop offset="0.3012" style="stop-color:rgb(92.156863%,92.156863%,92.156863%);stop-opacity:1;"/>
<stop offset="0.4122" style="stop-color:rgb(96.862745%,96.862745%,96.470588%);stop-opacity:1;"/>
<stop offset="0.5679" style="stop-color:rgb(99.215686%,99.215686%,99.215686%);stop-opacity:1;"/>
<stop offset="1" style="stop-color:rgb(100%,100%,100%);stop-opacity:1;"/>
</linearGradient>
<radialGradient id="radial0" gradientUnits="userSpaceOnUse" cx="102" cy="112.304703" fx="102" fy="112.304703" r="139.558594" gradientTransform="matrix(0.244681,0,0,0.245455,0.340425,0.290915)">
<stop offset="0" style="stop-color:rgb(32.549021%,33.333334%,34.117648%);stop-opacity:1;"/>
<stop offset="0.113661" style="stop-color:rgb(53.725493%,54.11765%,54.901963%);stop-opacity:1;"/>
<stop offset="0.202967" style="stop-color:rgb(92.54902%,92.54902%,92.54902%);stop-opacity:1;"/>
<stop offset="0.2363" style="stop-color:rgb(98.039216%,98.039216%,98.039216%);stop-opacity:1;"/>
<stop offset="0.2722" style="stop-color:rgb(100%,100%,100%);stop-opacity:1;"/>
<stop offset="0.5313" style="stop-color:rgb(98.039216%,98.039216%,98.039216%);stop-opacity:1;"/>
<stop offset="0.8449" style="stop-color:rgb(92.156863%,92.54902%,92.54902%);stop-opacity:1;"/>
<stop offset="1" style="stop-color:rgb(88.235295%,88.627452%,89.019608%);stop-opacity:1;"/>
</radialGradient>
<filter id="alpha" filterUnits="objectBoundingBox" x="0%" y="0%" width="100%" height="100%">
  <feColorMatrix type="matrix" in="SourceGraphic" values="0 0 0 0 1 0 0 0 0 1 0 0 0 0 1 0 0 0 1 0"/>
</filter>
<mask id="mask0">
  <g filter="url(#alpha)">
<rect x="0" y="0" width="32" height="32" style="fill:rgb(0%,0%,0%);fill-opacity:0.380531;stroke:none;"/>
  </g>
</mask>
<clipPath id="clip1">
  <rect x="0" y="0" width="32" height="32"/>
</clipPath>
<g id="surface5" clip-path="url(#clip1)">
<path style=" stroke:none;fill-rule:nonzero;fill:rgb(17.647059%,17.647059%,17.647059%);fill-opacity:0.331551;" d="M 6 28 L 8 28 L 8 30 L 6 30 Z M 6 28 "/>
</g>
<mask id="mask1">
  <g filter="url(#alpha)">
<rect x="0" y="0" width="32" height="32" style="fill:rgb(0%,0%,0%);fill-opacity:0.368853;stroke:none;"/>
  </g>
</mask>
<clipPath id="clip2">
  <rect x="0" y="0" width="32" height="32"/>
</clipPath>
<g id="surface8" clip-path="url(#clip2)">
<path style="fill:none;stroke-width:0.313707;stroke-linecap:round;stroke-linejoin:round;stroke:rgb(0%,0%,0%);stroke-opacity:0.044898;stroke-miterlimit:4;" d="M -6.765425 5.223617 C -7.503706 5.235336 -7.728315 5.471664 -7.763472 5.821273 C -7.804487 6.215804 -7.15019 6.446273 -6.700972 6.305648 C -5.630659 5.967757 -4.070112 6.502914 -3.740034 7.391586 C -3.552534 7.895492 -3.997847 8.372054 -4.941206 9.002914 C -5.884565 9.633773 -7.316206 10.249007 -8.982222 10.641586 C -10.648237 11.034164 -12.21855 11.135726 -13.372847 10.999007 C -14.52519 10.862289 -15.298628 10.53807 -15.441206 10.022445 C -15.4998 9.809554 -15.550581 9.541976 -15.466597 9.252914 L -15.263472 8.405257 C -15.583784 8.706039 -16.040815 9.028304 -16.173628 9.297836 C -16.347456 9.629867 -16.4998 9.961898 -16.413862 10.274398 C -16.200972 11.049789 -15.21269 11.530257 -13.818159 11.69432 C -12.423628 11.860336 -10.620893 11.834945 -8.755659 11.393539 C -6.890425 10.954086 -5.208784 10.149398 -4.070112 9.387679 C -2.929487 8.625961 -2.558393 7.883773 -2.771284 7.110336 C -2.982222 6.334945 -3.734175 5.811507 -5.132612 5.477523 C -5.8748 5.299789 -6.46269 5.219711 -6.765425 5.223617 Z M -6.765425 5.223617 " transform="matrix(2,0,0,2,35.101162,-5.810515)"/>
</g>
<mask id="mask2">
  <g filter="url(#alpha)">
<rect x="0" y="0" width="32" height="32" style="fill:rgb(0%,0%,0%);fill-opacity:0.581967;stroke:none;"/>
  </g>
</mask>
<clipPath id="clip3">
  <rect x="0" y="0" width="32" height="32"/>
</clipPath>
<g id="surface11" clip-path="url(#clip3)">
<path style="fill:none;stroke-width:0.209138;stroke-linecap:round;stroke-linejoin:round;stroke:rgb(0%,0%,0%);stroke-opacity:0.065306;stroke-miterlimit:4;" d="M -6.767378 5.184554 C -7.505659 5.196273 -7.763472 5.434554 -7.798628 5.784164 C -7.839643 6.178695 -7.15019 6.446273 -6.700972 6.305648 C -5.630659 5.967757 -3.90019 6.721664 -3.763472 7.391586 C -3.658003 7.916976 -3.9998 8.352523 -4.943159 8.983382 C -5.886518 9.614242 -7.316206 10.219711 -8.982222 10.612289 C -10.648237 11.004867 -12.21855 11.106429 -13.372847 10.971664 C -14.527143 10.834945 -15.265425 10.536117 -15.408003 10.018539 C -15.464643 9.807601 -15.505659 9.540023 -15.419722 9.250961 L -16.206831 9.299789 C -16.382612 9.63182 -16.533003 9.963851 -16.447065 10.276351 C -16.234175 11.051742 -15.21269 11.530257 -13.818159 11.69432 C -12.423628 11.860336 -10.620893 11.834945 -8.755659 11.393539 C -6.890425 10.954086 -5.208784 10.149398 -4.070112 9.387679 C -2.929487 8.625961 -2.534956 7.883773 -2.747847 7.108382 C -2.960737 6.334945 -3.736128 5.774398 -5.134565 5.438461 C -5.8748 5.262679 -6.464643 5.180648 -6.767378 5.184554 Z M -6.767378 5.184554 " transform="matrix(2,0,0,2,35.101162,-5.810515)"/>
</g>
<mask id="mask3">
  <g filter="url(#alpha)">
<rect x="0" y="0" width="32" height="32" style="fill:rgb(0%,0%,0%);fill-opacity:0.53;stroke:none;"/>
  </g>
</mask>
<clipPath id="clip4">
  <rect x="0" y="0" width="32" height="32"/>
</clipPath>
<g id="surface14" clip-path="url(#clip4)">
<path style="fill:none;stroke-width:0.104569;stroke-linecap:round;stroke-linejoin:round;stroke:rgb(0%,0%,0%);stroke-opacity:0.110204;stroke-miterlimit:4;" d="M -6.767378 5.137679 C -7.507612 5.147445 -7.796675 5.426742 -7.833784 5.776351 C -7.8748 6.170882 -7.15019 6.446273 -6.700972 6.305648 C -5.630659 5.967757 -3.911909 6.799789 -3.765425 7.405257 C -3.6248 7.987289 -3.9998 8.332992 -4.943159 8.963851 C -5.886518 9.594711 -7.318159 10.200179 -8.984175 10.592757 C -10.65019 10.985336 -12.220503 11.086898 -13.372847 10.952132 C -14.527143 10.815414 -15.241987 10.536117 -15.384565 10.018539 C -15.443159 9.805648 -15.4373 9.536117 -15.353315 9.247054 L -15.298628 8.391586 C -15.825972 8.707992 -16.075972 8.973617 -16.320112 9.305648 C -16.495893 9.637679 -16.55644 9.965804 -16.470503 10.278304 C -16.257612 11.051742 -15.21269 11.530257 -13.818159 11.69432 C -12.423628 11.860336 -10.620893 11.834945 -8.755659 11.393539 C -6.890425 10.954086 -5.208784 10.149398 -4.070112 9.387679 C -2.929487 8.625961 -2.511518 7.88182 -2.724409 7.108382 C -2.9373 6.332992 -3.736128 5.72557 -5.134565 5.391586 C -5.876753 5.213851 -6.464643 5.13182 -6.767378 5.137679 Z M -6.767378 5.137679 " transform="matrix(2,0,0,2,35.101162,-5.810515)"/>
</g>
<mask id="mask4">
  <g filter="url(#alpha)">
<rect x="0" y="0" width="32" height="32" style="fill:rgb(0%,0%,0%);fill-opacity:0.93;stroke:none;"/>
  </g>
</mask>
<clipPath id="clip5">
  <rect x="0" y="0" width="32" height="32"/>
</clipPath>
<g id="surface17" clip-path="url(#clip5)">
<path style=" stroke:none;fill-rule:nonzero;fill:rgb(61.56863%,22.745098%,60.784316%);fill-opacity:1;" d="M 21.5625 4.425781 C 20.085938 4.449219 19.460938 5.027344 19.386719 5.726562 C 19.304688 6.515625 20.800781 7.082031 21.699219 6.800781 C 23.839844 6.125 27.125 7.65625 27.527344 8.976562 C 27.84375 10.003906 27.097656 10.800781 25.214844 12.058594 C 23.328125 13.320312 20.464844 14.53125 17.132812 15.316406 C 13.800781 16.101562 10.660156 16.308594 8.351562 16.035156 C 6.042969 15.761719 4.683594 15.253906 4.398438 14.222656 C 4.285156 13.796875 4.292969 13.257812 4.464844 12.679688 L 2.460938 12.800781 C 2.109375 13.464844 1.988281 14.121094 2.160156 14.746094 C 2.585938 16.292969 4.675781 17.25 7.464844 17.578125 C 10.253906 17.910156 13.859375 17.859375 17.589844 16.976562 C 21.320312 16.097656 24.683594 14.488281 26.960938 12.964844 C 29.242188 11.441406 30.078125 9.953125 29.652344 8.40625 C 29.226562 6.855469 27.625 5.601562 24.828125 4.933594 C 23.347656 4.578125 22.167969 4.414062 21.5625 4.425781 Z M 21.5625 4.425781 "/>
</g>
</defs>
<g id="surface1">
<path style=" stroke:none;fill-rule:nonzero;fill:url(#linear0);" d="M 19.648438 29.851562 C 19.648438 29.851562 22.625 27.375 24 26 C 25.375 24.625 27.851562 21.648438 27.851562 21.648438 C 27.851562 21.648438 22.5625 22 20 22 C 20 24.5625 19.648438 29.851562 19.648438 29.851562 Z M 19.648438 29.851562 "/>
<path style="fill-rule:nonzero;fill:rgb(94.117647%,89.019608%,92.54902%);fill-opacity:1;stroke-width:0.25;stroke-linecap:butt;stroke-linejoin:miter;stroke:rgb(61.56863%,22.745098%,60.784316%);stroke-opacity:1;stroke-miterlimit:4;" d="M 2 1 L 2 15 L 9.646484 15 C 9.712891 15 9.777344 14.972656 9.824219 14.925781 L 13.925781 10.824219 C 13.972656 10.777344 14 10.712891 14 10.646484 L 14 1 Z M 2 1 " transform="matrix(2,0,0,2,0,0)"/>
<path style=" stroke:none;fill-rule:nonzero;fill:url(#radial0);" d="M 6.167969 4 C 6.035156 4 5.925781 4.109375 5.925781 4.246094 L 6 27.753906 C 6 27.890625 6.109375 28 6.246094 28 L 19.222656 28 C 19.289062 28 19.351562 27.972656 19.394531 27.929688 L 25.929688 21.371094 C 25.972656 21.324219 26 21.261719 26 21.195312 L 26 4.246094 C 26 4.109375 25.890625 4 25.753906 4 Z M 6.167969 4 "/>
<path style=" stroke:none;fill-rule:evenodd;fill:rgb(95.294118%,71.764708%,85.09804%);fill-opacity:1;" d="M 4 8 C 17.863281 4.855469 21.398438 6.074219 28 6 L 28 2 L 4 2 Z M 4 8 "/>
<path style="fill-rule:nonzero;fill:rgb(94.117647%,89.019608%,92.54902%);fill-opacity:1;stroke-width:0.25;stroke-linecap:butt;stroke-linejoin:miter;stroke:rgb(90.196079%,0.784314%,70.588237%);stroke-opacity:1;stroke-miterlimit:4;" d="M 6.035156 3.037109 C 5.488281 3.037109 5.046875 3.478516 5.046875 4.025391 L 5.035156 12.949219 C 5.035156 13.496094 5.488281 13.949219 6.035156 13.949219 L 15.074219 13.949219 C 15.621094 13.949219 16.074219 13.496094 16.074219 12.949219 L 16.074219 4.287109 C 16.074219 3.740234 15.632812 3.050781 15.085938 3.050781 L 13.832031 3.037109 L 13.832031 3.775391 C 13.832031 3.917969 13.71875 4.03125 13.576172 4.03125 L 12.177734 4.03125 C 12.035156 4.03125 11.921875 3.917969 11.921875 3.775391 L 11.921875 3.037109 Z M 6.035156 3.037109 " transform="matrix(2,0,0,2,0,0)"/>
<path style="fill-rule:nonzero;fill:rgb(95.294118%,71.764708%,85.09804%);fill-opacity:1;stroke-width:0.25;stroke-linecap:butt;stroke-linejoin:miter;stroke:rgb(90.196079%,0.784314%,70.588237%);stroke-opacity:1;stroke-miterlimit:4;" d="M 7.328125 6 L 15.671875 6 C 15.853516 6 16 6.148438 16 6.332031 L 16 11.667969 C 16 11.851562 15.853516 12 15.671875 12 L 7.328125 12 C 7.146484 12 7 11.851562 7 11.667969 L 7 6.332031 C 7 6.148438 7.146484 6 7.328125 6 Z M 7.328125 6 " transform="matrix(2,0,0,2,0,0)"/>
<path style=" stroke:none;fill-rule:nonzero;fill:rgb(90.196079%,0.784314%,70.588237%);fill-opacity:1;" d="M 6 4 L 8 4 L 8 6 L 6 6 Z M 6 4 "/>
<path style=" stroke:none;fill-rule:nonzero;fill:rgb(90.196079%,0.784314%,70.588237%);fill-opacity:1;" d="M 6 8 L 8 8 L 8 10 L 6 10 Z M 6 8 "/>
<path style=" stroke:none;fill-rule:nonzero;fill:rgb(90.196079%,0.784314%,70.588237%);fill-opacity:1;" d="M 6 12 L 8 12 L 8 14 L 6 14 Z M 6 12 "/>
<path style=" stroke:none;fill-rule:nonzero;fill:rgb(90.196079%,0.784314%,70.588237%);fill-opacity:1;" d="M 6 16 L 8 16 L 8 18 L 6 18 Z M 6 16 "/>
<path style=" stroke:none;fill-rule:nonzero;fill:rgb(90.196079%,0.784314%,70.588237%);fill-opacity:1;" d="M 6 20 L 8 20 L 8 22 L 6 22 Z M 6 20 "/>
<path style=" stroke:none;fill-rule:nonzero;fill:rgb(90.196079%,0.784314%,70.588237%);fill-opacity:1;" d="M 6 24 L 8 24 L 8 26 L 6 26 Z M 6 24 "/>
<use xlink:href="#surface5" mask="url(#mask0)"/>
<path style=" stroke:none;fill-rule:nonzero;fill:rgb(61.56863%,22.745098%,60.784316%);fill-opacity:1;" d="M 24.082031 5.703125 C 24.011719 5.828125 23.9375 5.957031 23.84375 6.074219 C 23.863281 6.078125 23.882812 6.082031 23.902344 6.082031 C 26.207031 6.355469 27.46875 7.683594 27.75 8.71875 C 28.035156 9.753906 27.097656 10.800781 25.214844 12.058594 C 23.328125 13.320312 20.464844 14.53125 17.132812 15.316406 C 13.800781 16.101562 10.660156 16.308594 8.351562 16.035156 C 6.042969 15.761719 4.683594 15.253906 4.398438 14.222656 C 4.117188 13.1875 4.527344 11.460938 6.414062 10.199219 C 8.300781 8.9375 11.507812 7.40625 14.839844 6.621094 C 15.695312 6.609375 15.464844 6.167969 14.800781 6.320312 C 11.070312 7.199219 7.640625 8.390625 5.363281 9.914062 C 3.082031 11.4375 1.734375 13.195312 2.160156 14.746094 C 2.585938 16.292969 4.675781 17.25 7.464844 17.578125 C 10.253906 17.910156 13.859375 17.859375 17.589844 16.976562 C 21.320312 16.097656 24.511719 14.550781 26.789062 13.023438 C 29.070312 11.5 29.261719 9.808594 28.835938 8.257812 C 28.417969 6.734375 26.828125 5.757812 24.082031 5.703125 Z M 24.082031 5.703125 "/>
<path style=" stroke:none;fill-rule:nonzero;fill:rgb(92.156863%,45.09804%,19.215687%);fill-opacity:1;" d="M 15.578125 5.996094 C 15.617188 6.136719 15.21875 6.25 15.152344 6.386719 C 15.085938 6.519531 15.277344 6.824219 15.132812 6.90625 C 14.984375 6.984375 14.753906 6.703125 14.585938 6.695312 C 14.417969 6.6875 14.128906 6.953125 14 6.863281 C 13.871094 6.769531 14.128906 6.484375 14.089844 6.34375 C 14.050781 6.207031 13.679688 6.066406 13.746094 5.929688 C 13.816406 5.792969 14.203125 5.898438 14.347656 5.820312 C 14.496094 5.738281 14.554688 5.386719 14.722656 5.394531 C 14.890625 5.402344 14.875 5.753906 15.003906 5.84375 C 15.132812 5.933594 15.539062 5.859375 15.578125 5.996094 Z M 15.578125 5.996094 "/>
<path style=" stroke:none;fill-rule:nonzero;fill:rgb(90.196079%,0.784314%,70.588237%);fill-opacity:1;" d="M 25.308594 24.730469 C 24.9375 24.710938 24.9375 23.804688 24.644531 23.570312 C 24.355469 23.332031 23.46875 23.519531 23.375 23.160156 C 23.277344 22.800781 24.140625 22.519531 24.273438 22.171875 C 24.40625 21.824219 23.957031 21.039062 24.269531 20.835938 C 24.582031 20.632812 25.113281 21.363281 25.488281 21.382812 C 25.859375 21.402344 26.46875 20.730469 26.757812 20.96875 C 27.046875 21.203125 26.515625 21.933594 26.609375 22.296875 C 26.707031 22.65625 27.535156 23.027344 27.398438 23.375 C 27.265625 23.722656 26.40625 23.441406 26.089844 23.644531 C 25.777344 23.847656 25.679688 24.75 25.308594 24.730469 Z M 25.308594 24.730469 "/>
<use xlink:href="#surface8" mask="url(#mask1)"/>
<use xlink:href="#surface11" mask="url(#mask2)"/>
<path style=" stroke:none;fill-rule:evenodd;fill:rgb(61.56863%,22.745098%,60.784316%);fill-opacity:1;" d="M 26.09375 30.691406 C 26.148438 30.839844 25.816406 31.398438 24.960938 31.707031 C 24.101562 32.015625 23.5 31.828125 23.433594 31.648438 C 23.386719 31.527344 13.898438 5.414062 13.855469 5.296875 C 14.742188 4.976562 15.628906 4.660156 16.515625 4.34375 C 16.558594 4.460938 26.046875 30.574219 26.09375 30.691406 Z M 26.09375 30.691406 "/>
<path style=" stroke:none;fill-rule:nonzero;fill:rgb(95.294118%,71.764708%,85.09804%);fill-opacity:1;" d="M 18.519531 9.851562 C 18.492188 9.511719 17.382812 6.507812 17.207031 6.253906 L 15.078125 7.019531 L 16.390625 10.617188 Z M 16.617188 10.539062 L 15.300781 6.941406 L 14.550781 7.207031 C 14.570312 7.5 15.660156 10.511719 15.867188 10.804688 Z M 16.617188 10.539062 "/>
<path style=" stroke:none;fill-rule:nonzero;fill:rgb(60.000002%,60.000002%,60.000002%);fill-opacity:1;" d="M 15.015625 7.894531 C 15.007812 7.878906 15 7.871094 14.992188 7.863281 C 14.980469 7.859375 14.96875 7.859375 14.957031 7.863281 C 14.941406 7.867188 14.933594 7.875 14.929688 7.886719 C 14.925781 7.898438 14.925781 7.910156 14.929688 7.925781 C 14.9375 7.9375 14.945312 7.949219 14.953125 7.957031 C 14.964844 7.960938 14.976562 7.960938 14.988281 7.957031 C 15.003906 7.953125 15.011719 7.945312 15.015625 7.933594 C 15.019531 7.921875 15.019531 7.910156 15.015625 7.894531 M 15.039062 7.886719 C 15.050781 7.917969 15.050781 7.941406 15.046875 7.964844 C 15.042969 7.984375 15.027344 8 15.007812 8.007812 C 14.988281 8.015625 14.96875 8.011719 14.949219 7.996094 C 14.933594 7.984375 14.917969 7.964844 14.90625 7.933594 C 14.894531 7.902344 14.894531 7.875 14.898438 7.855469 C 14.902344 7.832031 14.917969 7.820312 14.9375 7.8125 C 14.957031 7.804688 14.976562 7.808594 14.996094 7.820312 C 15.011719 7.835938 15.027344 7.855469 15.039062 7.886719 M 15.058594 8.140625 L 15.015625 8.226562 L 15 8.175781 L 15.027344 8.117188 L 14.96875 8.089844 L 14.949219 8.039062 L 15.035156 8.082031 L 15.074219 7.996094 L 15.09375 8.046875 L 15.070312 8.101562 L 15.125 8.128906 L 15.144531 8.179688 L 15.058594 8.140625 M 15.144531 8.1875 L 15.164062 8.238281 L 15.136719 8.300781 L 15.195312 8.328125 L 15.214844 8.378906 L 15.117188 8.332031 L 15.0625 8.351562 L 15.042969 8.304688 L 15.097656 8.285156 L 15.144531 8.1875 M 15.167969 8.613281 C 15.160156 8.601562 15.152344 8.589844 15.144531 8.578125 C 15.136719 8.566406 15.132812 8.550781 15.128906 8.539062 C 15.117188 8.507812 15.113281 8.480469 15.117188 8.457031 C 15.121094 8.433594 15.136719 8.417969 15.15625 8.414062 C 15.175781 8.40625 15.195312 8.410156 15.214844 8.421875 C 15.234375 8.4375 15.246094 8.460938 15.257812 8.496094 C 15.265625 8.507812 15.269531 8.519531 15.269531 8.53125 C 15.273438 8.542969 15.273438 8.554688 15.273438 8.566406 L 15.25 8.574219 C 15.25 8.5625 15.25 8.550781 15.246094 8.542969 C 15.246094 8.53125 15.242188 8.519531 15.238281 8.507812 C 15.230469 8.488281 15.222656 8.476562 15.210938 8.46875 C 15.199219 8.460938 15.1875 8.457031 15.175781 8.460938 C 15.160156 8.46875 15.152344 8.476562 15.148438 8.488281 C 15.144531 8.5 15.148438 8.515625 15.152344 8.535156 C 15.15625 8.539062 15.15625 8.546875 15.160156 8.550781 C 15.160156 8.554688 15.164062 8.558594 15.164062 8.5625 L 15.191406 8.550781 L 15.179688 8.523438 L 15.199219 8.515625 L 15.230469 8.589844 L 15.167969 8.613281 M 15.300781 8.613281 L 15.347656 8.746094 L 15.324219 8.753906 L 15.292969 8.671875 L 15.269531 8.679688 L 15.296875 8.757812 L 15.273438 8.765625 L 15.246094 8.6875 L 15.214844 8.699219 L 15.246094 8.785156 L 15.222656 8.792969 L 15.175781 8.660156 L 15.300781 8.613281 M 15.363281 8.792969 L 15.386719 8.847656 L 15.324219 8.945312 L 15.410156 8.914062 L 15.425781 8.960938 L 15.300781 9.003906 L 15.28125 8.953125 L 15.34375 8.851562 L 15.253906 8.882812 L 15.238281 8.835938 L 15.363281 8.792969 M 15.476562 9.097656 L 15.496094 9.152344 L 15.433594 9.253906 L 15.523438 9.222656 L 15.539062 9.269531 L 15.410156 9.3125 L 15.390625 9.257812 L 15.453125 9.160156 L 15.367188 9.191406 L 15.351562 9.144531 L 15.476562 9.097656 M 15.574219 9.367188 C 15.582031 9.382812 15.585938 9.398438 15.582031 9.410156 C 15.578125 9.425781 15.574219 9.433594 15.5625 9.4375 C 15.550781 9.441406 15.542969 9.4375 15.53125 9.429688 C 15.519531 9.421875 15.511719 9.40625 15.507812 9.390625 C 15.5 9.371094 15.496094 9.355469 15.5 9.34375 C 15.503906 9.332031 15.507812 9.324219 15.519531 9.320312 C 15.53125 9.316406 15.539062 9.316406 15.550781 9.324219 C 15.5625 9.335938 15.570312 9.347656 15.574219 9.367188 M 15.476562 9.339844 L 15.515625 9.445312 L 15.496094 9.453125 L 15.460938 9.347656 L 15.476562 9.339844 M 15.5625 9.371094 C 15.558594 9.363281 15.554688 9.359375 15.550781 9.355469 C 15.546875 9.351562 15.539062 9.351562 15.53125 9.355469 C 15.527344 9.359375 15.523438 9.363281 15.519531 9.367188 C 15.519531 9.371094 15.519531 9.378906 15.519531 9.382812 C 15.523438 9.390625 15.527344 9.398438 15.53125 9.398438 C 15.535156 9.402344 15.542969 9.402344 15.550781 9.398438 C 15.554688 9.398438 15.558594 9.394531 15.5625 9.386719 C 15.5625 9.382812 15.5625 9.378906 15.5625 9.371094 M 15.617188 9.671875 C 15.621094 9.683594 15.621094 9.695312 15.617188 9.703125 C 15.613281 9.710938 15.609375 9.71875 15.601562 9.722656 C 15.585938 9.726562 15.574219 9.722656 15.5625 9.710938 C 15.550781 9.699219 15.542969 9.675781 15.53125 9.648438 C 15.527344 9.640625 15.523438 9.628906 15.523438 9.621094 C 15.519531 9.609375 15.519531 9.601562 15.515625 9.589844 L 15.542969 9.582031 C 15.542969 9.589844 15.542969 9.601562 15.542969 9.609375 C 15.546875 9.621094 15.546875 9.628906 15.550781 9.636719 C 15.554688 9.652344 15.5625 9.660156 15.566406 9.667969 C 15.574219 9.671875 15.578125 9.675781 15.582031 9.671875 C 15.589844 9.667969 15.59375 9.664062 15.59375 9.65625 C 15.59375 9.648438 15.589844 9.636719 15.585938 9.625 L 15.578125 9.605469 L 15.601562 9.597656 L 15.609375 9.617188 C 15.613281 9.628906 15.617188 9.636719 15.621094 9.644531 C 15.625 9.648438 15.632812 9.652344 15.636719 9.648438 C 15.640625 9.648438 15.644531 9.644531 15.644531 9.636719 C 15.644531 9.628906 15.644531 9.621094 15.640625 9.609375 C 15.636719 9.601562 15.632812 9.59375 15.628906 9.585938 C 15.625 9.578125 15.621094 9.570312 15.613281 9.5625 L 15.640625 9.554688 C 15.644531 9.566406 15.648438 9.574219 15.652344 9.582031 C 15.65625 9.59375 15.660156 9.601562 15.664062 9.609375 C 15.675781 9.636719 15.679688 9.65625 15.675781 9.667969 C 15.675781 9.683594 15.671875 9.691406 15.660156 9.695312 C 15.652344 9.699219 15.644531 9.699219 15.636719 9.691406 C 15.632812 9.6875 15.625 9.679688 15.617188 9.671875 "/>
<path style=" stroke:none;fill-rule:evenodd;fill:rgb(90.196079%,0.784314%,70.588237%);fill-opacity:1;" d="M 16.488281 4.253906 C 16.441406 4.121094 15.835938 3.929688 14.984375 4.238281 C 14.121094 4.546875 13.765625 5.039062 13.824219 5.207031 C 13.863281 5.316406 13.816406 5.191406 13.855469 5.300781 C 14.742188 4.980469 15.628906 4.664062 16.515625 4.34375 C 16.476562 4.234375 16.527344 4.363281 16.488281 4.253906 "/>
<path style=" stroke:none;fill-rule:evenodd;fill:rgb(90.196079%,0.784314%,70.588237%);fill-opacity:1;" d="M 15.226562 4.191406 C 14.699219 4.335938 14.234375 4.648438 14.199219 4.683594 C 14.167969 4.714844 14.757812 4.398438 15.179688 4.3125 C 15.597656 4.230469 16.058594 4.410156 16.105469 4.398438 C 16.148438 4.382812 16.480469 4.234375 16.269531 4.160156 C 16.046875 4.082031 15.636719 4.078125 15.226562 4.191406 Z M 15.226562 4.191406 "/>
<use xlink:href="#surface14" mask="url(#mask3)"/>
<use xlink:href="#surface17" mask="url(#mask4)"/>
<path style=" stroke:none;fill-rule:nonzero;fill:rgb(90.196079%,0.784314%,70.588237%);fill-opacity:1;" d="M 11.625 12.53125 C 11.410156 12.765625 10.773438 12.347656 10.453125 12.429688 C 10.128906 12.511719 9.78125 13.175781 9.476562 13.074219 C 9.171875 12.972656 9.441406 12.28125 9.269531 12.03125 C 9.097656 11.785156 8.300781 11.71875 8.328125 11.421875 C 8.355469 11.125 9.160156 11.113281 9.375 10.878906 C 9.589844 10.644531 9.449219 9.9375 9.769531 9.859375 C 10.089844 9.777344 10.316406 10.460938 10.621094 10.5625 C 10.925781 10.664062 11.632812 10.292969 11.804688 10.542969 C 11.976562 10.789062 11.316406 11.222656 11.289062 11.523438 C 11.261719 11.820312 11.839844 12.296875 11.625 12.53125 Z M 11.625 12.53125 "/>
<path style=" stroke:none;fill-rule:nonzero;fill:rgb(90.196079%,0.784314%,70.588237%);fill-opacity:1;" d="M 6.726562 7.445312 C 6.605469 7.554688 6.3125 7.320312 6.152344 7.347656 C 5.988281 7.375 5.777344 7.691406 5.632812 7.625 C 5.488281 7.5625 5.65625 7.230469 5.585938 7.097656 C 5.511719 6.964844 5.125 6.898438 5.152344 6.753906 C 5.179688 6.605469 5.578125 6.632812 5.699219 6.523438 C 5.816406 6.417969 5.785156 6.058594 5.949219 6.03125 C 6.113281 6.003906 6.1875 6.355469 6.332031 6.421875 C 6.480469 6.484375 6.847656 6.328125 6.921875 6.460938 C 6.992188 6.59375 6.640625 6.78125 6.613281 6.929688 C 6.582031 7.078125 6.84375 7.339844 6.726562 7.445312 Z M 6.726562 7.445312 "/>
<path style=" stroke:none;fill-rule:nonzero;fill:rgb(90.196079%,0.784314%,70.588237%);fill-opacity:1;" d="M 7.683594 18.191406 C 7.453125 17.953125 8.082031 17.394531 8.058594 17.078125 C 8.03125 16.757812 7.320312 16.34375 7.507812 16.0625 C 7.695312 15.78125 8.453125 16.125 8.785156 15.992188 C 9.113281 15.855469 9.363281 15.101562 9.710938 15.164062 C 10.054688 15.226562 9.894531 15.996094 10.125 16.234375 C 10.355469 16.46875 11.21875 16.417969 11.246094 16.734375 C 11.269531 17.054688 10.414062 17.1875 10.226562 17.46875 C 10.039062 17.746094 10.324219 18.46875 9.992188 18.605469 C 9.664062 18.738281 9.292969 18.050781 8.949219 17.988281 C 8.601562 17.925781 7.914062 18.425781 7.683594 18.191406 Z M 7.683594 18.191406 "/>
</g>
</svg>
