<?xml version="1.0" encoding="UTF-8"?>
<svg xmlns="http://www.w3.org/2000/svg" xmlns:xlink="http://www.w3.org/1999/xlink" width="32px" height="32px" viewBox="0 0 32 32" version="1.1">
<g id="surface1">
<path style="fill-rule:evenodd;fill:rgb(94.117647%,89.019608%,92.54902%);fill-opacity:1;stroke-width:1;stroke-linecap:round;stroke-linejoin:round;stroke:rgb(90.196079%,0.784314%,70.588237%);stroke-opacity:1;stroke-miterlimit:4;" d="M -7.493573 14.547298 L 1.500567 14.547298 C 2.051349 14.547298 2.500567 14.994564 2.500567 15.547298 L 2.500567 26.514095 C 2.500567 27.06683 2.051349 27.514095 1.500567 27.514095 L -7.493573 27.514095 C -8.046308 27.514095 -8.493573 27.06683 -8.493573 26.514095 L -8.493573 15.547298 C -8.493573 14.994564 -8.046308 14.547298 -7.493573 14.547298 Z M -7.493573 14.547298 " transform="matrix(2,0,0,2,21.987146,-26.028191)"/>
<path style="fill-rule:nonzero;fill:rgb(61.56863%,22.745098%,60.784316%);fill-opacity:1;stroke-width:0.25;stroke-linecap:butt;stroke-linejoin:miter;stroke:rgb(61.56863%,22.745098%,60.784316%);stroke-opacity:1;stroke-miterlimit:4;" d="M -1.727948 16.643002 C -1.692792 16.24847 -1.411542 15.961361 -1.061933 15.961361 C -0.827558 15.961361 -0.614667 16.086361 -0.493573 16.287533 C -0.374433 16.084408 -0.169354 15.961361 0.0611143 15.961361 C 0.410724 15.961361 0.691974 16.24847 0.72713 16.643002 C 0.729083 16.66058 0.740802 16.752377 0.705646 16.900814 C 0.654864 17.117611 0.537677 17.312923 0.365802 17.469173 L -0.493573 18.244564 L -1.36662 17.469173 C -1.538495 17.312923 -1.655683 17.117611 -1.706464 16.900814 C -1.743573 16.752377 -1.731854 16.66058 -1.727948 16.643002 Z M -1.614667 16.87933 C -1.567792 17.076595 -1.46037 17.256283 -1.302167 17.398861 L -0.493573 18.117611 L 0.301349 17.398861 C 0.459552 17.256283 0.566974 17.076595 0.613849 16.87933 C 0.647052 16.738705 0.63338 16.658627 0.63338 16.656673 L 0.63338 16.652767 C 0.60213 16.307064 0.361896 16.057064 0.0611143 16.057064 C -0.161542 16.057064 -0.356854 16.19183 -0.450604 16.41058 L -0.493573 16.514095 L -0.536542 16.41058 C -0.628339 16.195736 -0.833417 16.057064 -1.061933 16.057064 C -1.362714 16.057064 -1.602948 16.307064 -1.634198 16.656673 C -1.634198 16.658627 -1.64787 16.738705 -1.614667 16.87933 Z M -1.614667 16.87933 " transform="matrix(2,0,0,2,21.987146,-26.028191)"/>
<path style="fill:none;stroke-width:1;stroke-linecap:round;stroke-linejoin:miter;stroke:rgb(90.196079%,0.784314%,70.588237%);stroke-opacity:1;stroke-miterlimit:4;" d="M -6.499433 19.500423 L 0.824786 19.500423 " transform="matrix(2,0,0,2,21.987146,-26.028191)"/>
<path style="fill:none;stroke-width:1;stroke-linecap:round;stroke-linejoin:miter;stroke:rgb(90.196079%,0.784314%,70.588237%);stroke-opacity:1;stroke-miterlimit:4;" d="M -6.499433 21.500423 L 0.824786 21.500423 " transform="matrix(2,0,0,2,21.987146,-26.028191)"/>
<path style="fill:none;stroke-width:1;stroke-linecap:round;stroke-linejoin:miter;stroke:rgb(90.196079%,0.784314%,70.588237%);stroke-opacity:1;stroke-miterlimit:4;" d="M -6.499433 23.500423 L 0.824786 23.500423 " transform="matrix(2,0,0,2,21.987146,-26.028191)"/>
<path style="fill-rule:evenodd;fill:rgb(94.117647%,89.019608%,92.54902%);fill-opacity:1;stroke-width:1;stroke-linecap:butt;stroke-linejoin:miter;stroke:rgb(94.117647%,89.019608%,92.54902%);stroke-opacity:1;stroke-miterlimit:4;" d="M 7.73412 1.50992 C 7.573964 1.513826 7.415761 1.564607 7.282948 1.662264 L 3.034902 4.771639 C 2.847402 4.908357 2.722402 5.132967 2.722402 5.381014 C 2.722402 5.62906 2.847402 5.85367 3.034902 5.990389 L 7.282948 9.099764 C 7.52123 9.273592 7.822011 9.298982 8.081777 9.185701 C 8.339589 9.07242 8.544667 8.806795 8.544667 8.492342 L 8.544667 2.269685 C 8.544667 2.048982 8.445058 1.843904 8.288808 1.707185 C 8.126698 1.562654 7.92748 1.50406 7.73412 1.50992 Z M 5.839589 4.631014 L 5.839589 6.131014 L 4.814198 5.381014 Z M 5.839589 4.631014 " transform="matrix(2,0,0,2,-0.464334,0.148129)"/>
<path style=" stroke:none;fill-rule:evenodd;fill:rgb(61.56863%,22.745098%,60.784316%);fill-opacity:1;" d="M 15.003906 3.167969 C 14.683594 3.175781 14.367188 3.277344 14.101562 3.472656 L 5.605469 9.691406 C 5.230469 9.964844 4.980469 10.414062 4.980469 10.910156 C 4.980469 11.40625 5.230469 11.855469 5.605469 12.128906 L 14.101562 18.347656 C 14.578125 18.695312 15.179688 18.746094 15.699219 18.519531 C 16.214844 18.292969 16.625 17.761719 16.625 17.132812 L 16.625 4.6875 C 16.625 4.246094 16.425781 3.835938 16.113281 3.5625 C 15.789062 3.273438 15.390625 3.15625 15.003906 3.167969 Z M 11.214844 9.410156 L 11.214844 12.410156 L 9.164062 10.910156 Z M 11.214844 9.410156 "/>
<path style=" stroke:none;fill-rule:evenodd;fill:rgb(95.294118%,71.764708%,85.09804%);fill-opacity:1;" d="M 14.605469 5.675781 L 7 11 L 14.535156 16.148438 L 14.605469 12.773438 Z M 14.605469 5.675781 "/>
</g>
</svg>
