<?xml version="1.0" encoding="UTF-8"?>
<svg xmlns="http://www.w3.org/2000/svg" xmlns:xlink="http://www.w3.org/1999/xlink" width="32px" height="32px" viewBox="0 0 32 32" version="1.1">
<defs>
<clipPath id="clip1">
  <path d="M 3 11 L 29 11 L 29 25 L 3 25 Z M 3 11 "/>
</clipPath>
<clipPath id="clip2">
  <path d="M 6.429688 25.550781 L 6.429688 18.660156 L 25.476562 18.660156 L 25.476562 25.550781 L 31.453125 25.660156 L 31.453125 9.863281 L 0.453125 9.863281 L 0.453125 25.660156 Z M 6.429688 25.550781 "/>
</clipPath>
<clipPath id="clip3">
  <path d="M 0 9 L 32 9 L 32 26 L 0 26 Z M 0 9 "/>
</clipPath>
<clipPath id="clip4">
  <path d="M 6.429688 25.550781 L 6.429688 18.660156 L 25.476562 18.660156 L 25.476562 25.550781 L 31.453125 25.660156 L 31.453125 9.863281 L 0.453125 9.863281 L 0.453125 25.660156 Z M 6.429688 25.550781 "/>
</clipPath>
<clipPath id="clip5">
  <path d="M 6 18 L 26 18 L 26 29 L 6 29 Z M 6 18 "/>
</clipPath>
<clipPath id="clip6">
  <path d="M 5.933594 18.050781 L 26.003906 18.050781 L 26.003906 29.636719 L 5.933594 30.359375 Z M 5.933594 18.050781 "/>
</clipPath>
<clipPath id="clip7">
  <path d="M 5 18 L 27 18 L 27 31 L 5 31 Z M 5 18 "/>
</clipPath>
<clipPath id="clip8">
  <path d="M 5.933594 18.050781 L 26.003906 18.050781 L 26.003906 29.636719 L 5.933594 30.359375 Z M 5.933594 18.050781 "/>
</clipPath>
<clipPath id="clip9">
  <path d="M 6 3 L 26 3 L 26 11 L 6 11 Z M 6 3 "/>
</clipPath>
<clipPath id="clip10">
  <path d="M 5.488281 10.601562 L 26.394531 10.601562 L 26.394531 1.386719 C 26.394531 1.386719 6.792969 -0.457031 5.488281 1.386719 C 4.179688 3.226562 4.179688 3.226562 4.179688 3.226562 Z M 5.488281 10.601562 "/>
</clipPath>
<clipPath id="clip11">
  <path d="M 4 0 L 27 0 L 27 11 L 4 11 Z M 4 0 "/>
</clipPath>
<clipPath id="clip12">
  <path d="M 5.488281 10.601562 L 26.394531 10.601562 L 26.394531 1.386719 C 26.394531 1.386719 6.792969 -0.457031 5.488281 1.386719 C 4.179688 3.226562 4.179688 3.226562 4.179688 3.226562 Z M 5.488281 10.601562 "/>
</clipPath>
</defs>
<g id="surface1">
<path style="fill-rule:nonzero;fill:rgb(11.372549%,11.372549%,11.372549%);fill-opacity:1;stroke-width:0.444601;stroke-linecap:butt;stroke-linejoin:miter;stroke:rgb(90.196079%,0.784314%,70.588237%);stroke-opacity:1;stroke-miterlimit:4;" d="M 1.139988 -1.12907 L 5.194586 -1.12907 C 5.501883 -1.12907 5.750318 -0.894742 5.750318 -0.606406 C 5.750318 -0.317199 5.501883 -0.0828713 5.194586 -0.0828713 L 1.139988 -0.0828713 C 0.833556 -0.0828713 0.585121 -0.317199 0.585121 -0.606406 C 0.585121 -0.894742 0.833556 -1.12907 1.139988 -1.12907 Z M 1.139988 -1.12907 " transform="matrix(4.512624,0,0,-4.484242,1.644723,11.479947)"/>
<g clip-path="url(#clip1)" clip-rule="nonzero">
<g clip-path="url(#clip2)" clip-rule="nonzero">
<path style=" stroke:none;fill-rule:nonzero;fill:rgb(95.294118%,71.764708%,85.09804%);fill-opacity:1;" d="M 5.925781 11.121094 L 25.980469 11.121094 C 27.578125 11.121094 28.871094 12.460938 28.871094 14.117188 L 28.871094 22 C 28.871094 23.652344 27.578125 24.992188 25.980469 24.992188 L 5.925781 24.992188 C 4.328125 24.992188 3.035156 23.652344 3.035156 22 L 3.035156 14.117188 C 3.035156 12.460938 4.328125 11.121094 5.925781 11.121094 Z M 5.925781 11.121094 "/>
</g>
</g>
<g clip-path="url(#clip3)" clip-rule="nonzero">
<g clip-path="url(#clip4)" clip-rule="nonzero">
<path style="fill:none;stroke-width:0.48494;stroke-linecap:butt;stroke-linejoin:miter;stroke:rgb(90.196079%,0.784314%,70.588237%);stroke-opacity:1;stroke-miterlimit:4;" d="M 0.801024 -0.226814 L 5.595066 -0.226814 C 5.976983 -0.226814 6.286065 0.102708 6.286065 0.510046 L 6.286065 2.448746 C 6.286065 2.855124 5.976983 3.184645 5.595066 3.184645 L 0.801024 3.184645 C 0.419107 3.184645 0.110025 2.855124 0.110025 2.448746 L 0.110025 0.510046 C 0.110025 0.102708 0.419107 -0.226814 0.801024 -0.226814 Z M 0.801024 -0.226814 " transform="matrix(4.183253,0,0,4.06603,2.574896,12.043325)"/>
</g>
</g>
<g clip-path="url(#clip5)" clip-rule="nonzero">
<g clip-path="url(#clip6)" clip-rule="nonzero">
<path style=" stroke:none;fill-rule:nonzero;fill:rgb(94.117647%,89.019608%,92.54902%);fill-opacity:0.996078;" d="M 8.332031 15.996094 L 23.59375 15.996094 C 24.484375 15.996094 25.207031 16.773438 25.207031 17.730469 L 25.207031 27.242188 C 25.207031 28.199219 24.484375 28.972656 23.59375 28.972656 L 8.332031 28.972656 C 7.441406 28.972656 6.71875 28.199219 6.71875 27.242188 L 6.71875 17.730469 C 6.71875 16.773438 7.441406 15.996094 8.332031 15.996094 Z M 8.332031 15.996094 "/>
</g>
</g>
<g clip-path="url(#clip7)" clip-rule="nonzero">
<g clip-path="url(#clip8)" clip-rule="nonzero">
<path style="fill:none;stroke-width:0.450613;stroke-linecap:butt;stroke-linejoin:miter;stroke:rgb(90.196079%,0.784314%,70.588237%);stroke-opacity:1;stroke-miterlimit:4;" d="M 1.387487 1.054012 L 4.953352 1.054012 C 5.161445 1.054012 5.330292 1.222901 5.330292 1.430828 L 5.330292 3.497375 C 5.330292 3.705303 5.161445 3.873343 4.953352 3.873343 L 1.387487 3.873343 C 1.179395 3.873343 1.010548 3.705303 1.010548 3.497375 L 1.010548 1.430828 C 1.010548 1.222901 1.179395 1.054012 1.387487 1.054012 Z M 1.387487 1.054012 " transform="matrix(4.279949,0,0,4.602711,2.393656,11.14478)"/>
</g>
</g>
<g clip-path="url(#clip9)" clip-rule="nonzero">
<g clip-path="url(#clip10)" clip-rule="nonzero">
<path style=" stroke:none;fill-rule:nonzero;fill:rgb(94.117647%,89.019608%,92.54902%);fill-opacity:0.996078;" d="M 8.625 3.226562 L 23.253906 3.226562 C 24.265625 3.226562 25.085938 4.003906 25.085938 4.960938 L 25.085938 11.632812 C 25.085938 12.589844 24.265625 13.367188 23.253906 13.367188 L 8.625 13.367188 C 7.613281 13.367188 6.792969 12.589844 6.792969 11.632812 L 6.792969 4.960938 C 6.792969 4.003906 7.613281 3.226562 8.625 3.226562 Z M 8.625 3.226562 "/>
</g>
</g>
<g clip-path="url(#clip11)" clip-rule="nonzero">
<g clip-path="url(#clip12)" clip-rule="nonzero">
<path style="fill:none;stroke-width:0.404225;stroke-linecap:butt;stroke-linejoin:miter;stroke:rgb(90.196079%,0.784314%,70.588237%);stroke-opacity:1;stroke-miterlimit:4;" d="M 1.421513 -2.119123 L 4.922013 -2.119123 C 5.164104 -2.119123 5.360393 -1.98642 5.360393 -1.823042 L 5.360393 -0.684063 C 5.360393 -0.520685 5.164104 -0.387982 4.922013 -0.387982 L 1.421513 -0.387982 C 1.179422 -0.387982 0.983133 -0.520685 0.983133 -0.684063 L 0.983133 -1.823042 C 0.983133 -1.98642 1.179422 -2.119123 1.421513 -2.119123 Z M 1.421513 -2.119123 " transform="matrix(4.179091,0,0,5.857768,2.684368,15.639895)"/>
</g>
</g>
<path style="fill-rule:evenodd;fill:rgb(61.56863%,22.745098%,60.784316%);fill-opacity:1;stroke-width:0.222301;stroke-linecap:round;stroke-linejoin:round;stroke:rgb(90.196079%,0.784314%,70.588237%);stroke-opacity:1;stroke-miterlimit:4;" d="M 5.488899 0.459189 C 5.488899 0.55414 5.410992 0.630797 5.315773 0.630797 C 5.219689 0.630797 5.141782 0.55414 5.141782 0.459189 C 5.141782 0.364239 5.219689 0.287581 5.315773 0.287581 C 5.410992 0.287581 5.488899 0.364239 5.488899 0.459189 Z M 5.488899 0.459189 " transform="matrix(4.512624,0,0,4.484242,1.644723,11.479947)"/>
<path style="fill-rule:evenodd;fill:rgb(61.56863%,22.745098%,60.784316%);fill-opacity:1;stroke-width:0.222301;stroke-linecap:round;stroke-linejoin:round;stroke:rgb(90.196079%,0.784314%,70.588237%);stroke-opacity:1;stroke-miterlimit:4;" d="M 4.615481 0.461802 C 4.615481 0.556753 4.53844 0.63341 4.442356 0.63341 C 4.347137 0.63341 4.26923 0.556753 4.26923 0.461802 C 4.26923 0.366852 4.347137 0.290195 4.442356 0.290195 C 4.53844 0.290195 4.615481 0.366852 4.615481 0.461802 Z M 4.615481 0.461802 " transform="matrix(4.512624,0,0,4.484242,1.644723,11.479947)"/>
<path style="fill:none;stroke-width:0.444601;stroke-linecap:butt;stroke-linejoin:miter;stroke:rgb(90.196079%,0.784314%,70.588237%);stroke-opacity:1;stroke-miterlimit:4;" d="M 0.987638 1.442668 L 5.353861 1.442668 " transform="matrix(4.512624,0,0,4.484242,1.644723,11.479947)"/>
<path style="fill:none;stroke-width:0.444601;stroke-linecap:round;stroke-linejoin:miter;stroke:rgb(90.196079%,0.784314%,70.588237%);stroke-opacity:1;stroke-miterlimit:4;" d="M 1.669752 1.981882 L 4.684731 1.981882 " transform="matrix(4.512624,0,0,4.484242,1.644723,11.479947)"/>
<path style="fill:none;stroke-width:0.444601;stroke-linecap:round;stroke-linejoin:miter;stroke:rgb(90.196079%,0.784314%,70.588237%);stroke-opacity:1;stroke-miterlimit:4;" d="M 1.663693 2.528066 L 4.677806 2.528066 " transform="matrix(4.512624,0,0,4.484242,1.644723,11.479947)"/>
<path style="fill-rule:nonzero;fill:rgb(61.56863%,22.745098%,60.784316%);fill-opacity:1;stroke-width:0.11115;stroke-linecap:round;stroke-linejoin:round;stroke:rgb(61.56863%,22.745098%,60.784316%);stroke-opacity:1;stroke-miterlimit:4;" d="M 1.658499 3.28767 C 1.668021 3.392203 1.741599 3.46886 1.833356 3.46886 C 1.894815 3.46886 1.950215 3.434887 1.982244 3.381749 C 2.013406 3.435758 2.067075 3.46886 2.126803 3.46886 C 2.21856 3.46886 2.292138 3.392203 2.30166 3.28767 C 2.302526 3.282443 2.305122 3.258052 2.295601 3.218853 C 2.282616 3.16136 2.251454 3.109093 2.206441 3.06728 L 1.982244 2.860828 L 1.753718 3.06728 C 1.708705 3.109093 1.677543 3.16136 1.664558 3.218853 C 1.655037 3.258052 1.658499 3.282443 1.658499 3.28767 Z M 1.688796 3.224079 C 1.700915 3.171813 1.728615 3.123902 1.770165 3.086444 L 1.982244 2.894801 L 2.189994 3.086444 C 2.231544 3.123902 2.259244 3.171813 2.271363 3.224079 C 2.280885 3.261537 2.276557 3.283314 2.276557 3.283314 L 2.276557 3.285057 C 2.268766 3.376523 2.205575 3.443598 2.126803 3.443598 C 2.068806 3.443598 2.017734 3.407011 1.993497 3.348647 L 1.982244 3.321643 L 1.97099 3.348647 C 1.946753 3.40614 1.893084 3.443598 1.833356 3.443598 C 1.754584 3.443598 1.691393 3.376523 1.683602 3.283314 C 1.683602 3.283314 1.68014 3.261537 1.688796 3.224079 Z M 1.688796 3.224079 " transform="matrix(4.512624,0,0,4.484242,1.644723,11.479947)"/>
<path style=" stroke:none;fill-rule:nonzero;fill:rgb(90.196079%,0.784314%,70.588237%);fill-opacity:1;" d="M 18.527344 17.292969 C 18.082031 17.746094 16.453125 18.4375 16.886719 18.902344 L 18.4375 20.601562 L 19.257812 19.796875 L 23.394531 24.324219 C 24.425781 25.488281 26.097656 23.851562 25.03125 22.71875 L 20.898438 18.191406 L 21.71875 17.386719 L 20.167969 15.6875 C 19.734375 15.203125 18.980469 16.835938 18.527344 17.292969 Z M 18.527344 17.292969 "/>
<path style="fill-rule:nonzero;fill:rgb(95.294118%,71.764708%,85.09804%);fill-opacity:1;stroke-width:1.624318;stroke-linecap:square;stroke-linejoin:miter;stroke:rgb(90.196079%,0.784314%,70.588237%);stroke-opacity:1;stroke-miterlimit:4;" d="M 6.90834 18.141719 C 6.907863 21.259218 4.384152 23.78471 1.269699 23.785556 C -1.842584 23.784106 -4.367527 21.2597 -4.369219 18.144496 C -4.368742 15.026996 -1.842716 12.503695 1.271737 12.502849 C 4.384019 12.504299 6.908962 15.028705 6.90834 18.141719 Z M 6.90834 18.141719 " transform="matrix(0.890734,-0.850126,0.842157,0.898276,-2.873084,-3.567844)"/>
<path style="fill-rule:nonzero;fill:rgb(95.294118%,71.764708%,85.09804%);fill-opacity:1;stroke-width:1.624286;stroke-linecap:round;stroke-linejoin:miter;stroke:rgb(61.56863%,22.745098%,60.784316%);stroke-opacity:1;stroke-miterlimit:4;" d="M 11.203718 9.121719 C 11.860426 8.699794 12.637688 8.468212 13.468884 8.496763 C 14.553879 8.538004 15.524664 9.017031 16.225787 9.765709 " transform="matrix(1.231284,0,0,1.231337,-2.873084,-3.567844)"/>
<path style="fill:none;stroke-width:1.624286;stroke-linecap:round;stroke-linejoin:miter;stroke:rgb(61.56863%,22.745098%,60.784316%);stroke-opacity:1;stroke-miterlimit:4;" d="M 19.119108 16.272231 L 16.803182 18.67054 " transform="matrix(1.231284,0,0,1.231337,-2.873084,-3.567844)"/>
<path style="fill-rule:evenodd;fill:rgb(94.117647%,89.019608%,92.54902%);fill-opacity:1;stroke-width:1.624286;stroke-linecap:round;stroke-linejoin:round;stroke:rgb(90.196079%,0.784314%,70.588237%);stroke-opacity:1;stroke-miterlimit:4;" d="M 15.9968 8.510131 L 20.019531 8.510131 C 21.364671 8.510131 22.456012 9.601424 22.456012 10.946507 L 22.456012 20.063887 C 22.456012 21.40897 21.364671 22.500263 20.019531 22.500263 L 15.9968 22.500263 C 14.651659 22.500263 13.560319 21.40897 13.560319 20.063887 L 13.560319 10.946507 C 13.560319 9.601424 14.651659 8.510131 15.9968 8.510131 Z M 15.9968 8.510131 " transform="matrix(1.231284,0,0,1.231337,1.20574,1.278977)"/>
<path style="fill-rule:evenodd;fill:rgb(95.294118%,71.764708%,85.09804%);fill-opacity:1;stroke-width:1.624286;stroke-linecap:round;stroke-linejoin:round;stroke:rgb(90.196079%,0.784314%,70.588237%);stroke-opacity:1;stroke-miterlimit:4;" d="M 17.935198 11.498499 L 18.062098 11.498499 C 19.410411 11.498499 20.498579 12.589793 20.498579 13.934876 L 20.498579 18.062124 C 20.498579 19.410379 19.410411 20.498501 18.062098 20.498501 L 17.935198 20.498501 C 16.590057 20.498501 15.498717 19.410379 15.498717 18.062124 L 15.498717 13.934876 C 15.498717 12.589793 16.590057 11.498499 17.935198 11.498499 Z M 17.935198 11.498499 " transform="matrix(1.231284,0,0,1.231337,1.20574,1.278977)"/>
<path style="fill:none;stroke-width:1.624286;stroke-linecap:round;stroke-linejoin:round;stroke:rgb(61.56863%,22.745098%,60.784316%);stroke-opacity:1;stroke-miterlimit:4;" d="M 18.42059 14.185493 C 18.42059 14.413903 18.236585 14.5979 18.004993 14.5979 C 17.776573 14.5979 17.589395 14.417076 17.586223 14.191838 C 17.58305 13.963427 17.767055 13.77943 17.995475 13.776258 C 18.227068 13.769913 18.414245 13.950738 18.42059 14.175976 L 18.004993 14.185493 Z M 18.42059 14.185493 " transform="matrix(1.231284,0,0,1.231337,1.20574,1.278977)"/>
<path style="fill:none;stroke-width:1.624286;stroke-linecap:round;stroke-linejoin:round;stroke:rgb(90.196079%,0.784314%,70.588237%);stroke-opacity:1;stroke-miterlimit:4;" d="M 17.947888 16.694834 L 17.947888 18.585564 " transform="matrix(1.231284,0,0,1.231337,1.20574,1.278977)"/>
</g>
</svg>
