<?xml version="1.0" encoding="UTF-8"?>
<svg xmlns="http://www.w3.org/2000/svg" xmlns:xlink="http://www.w3.org/1999/xlink" width="32px" height="32px" viewBox="0 0 32 32" version="1.1">
<g id="surface1">
<path style="fill-rule:evenodd;fill:rgb(94.117647%,89.019608%,92.54902%);fill-opacity:1;stroke-width:1;stroke-linecap:round;stroke-linejoin:round;stroke:rgb(90.196079%,0.784314%,70.588237%);stroke-opacity:1;stroke-miterlimit:4;" d="M -7.493573 14.547572 L 1.500567 14.547572 C 2.051349 14.547572 2.500567 14.994838 2.500567 15.547572 L 2.500567 26.514369 C 2.500567 27.067103 2.051349 27.514369 1.500567 27.514369 L -7.493573 27.514369 C -8.046308 27.514369 -8.493573 27.067103 -8.493573 26.514369 L -8.493573 15.547572 C -8.493573 14.994838 -8.046308 14.547572 -7.493573 14.547572 Z M -7.493573 14.547572 " transform="matrix(2,0,0,2,21.987146,-26.095144)"/>
<path style=" stroke:none;fill-rule:nonzero;fill:rgb(90.196079%,0.784314%,70.588237%);fill-opacity:1;" d="M 8 18.089844 L 23 18.089844 L 23 22 L 8 22 Z M 8 18.089844 "/>
<path style="fill-rule:evenodd;fill:rgb(94.117647%,89.019608%,92.54902%);fill-opacity:1;stroke-width:1;stroke-linecap:butt;stroke-linejoin:miter;stroke:rgb(94.117647%,89.019608%,92.54902%);stroke-opacity:1;stroke-miterlimit:4;" d="M 7.73412 1.508241 C 7.573964 1.514101 7.415761 1.564882 7.282948 1.662538 L 3.034901 4.771913 C 2.847401 4.908632 2.722401 5.133241 2.722401 5.381288 C 2.722401 5.629335 2.847401 5.853944 3.034901 5.990663 L 7.282948 9.100038 C 7.521229 9.273866 7.822011 9.299257 8.081776 9.184023 C 8.339589 9.072694 8.544667 8.807069 8.544667 8.492616 L 8.544667 2.26996 C 8.544667 2.049257 8.445057 1.844179 8.288807 1.70746 C 8.126698 1.562929 7.927479 1.504335 7.73412 1.508241 Z M 5.839589 4.631288 L 5.839589 6.131288 L 4.814198 5.381288 Z M 5.839589 4.631288 " transform="matrix(2,0,0,2,-0.464334,0.0811737)"/>
<path style=" stroke:none;fill-rule:evenodd;fill:rgb(61.56863%,22.745098%,60.784316%);fill-opacity:1;" d="M 15.003906 3.097656 C 14.683594 3.109375 14.367188 3.210938 14.101562 3.40625 L 5.605469 9.625 C 5.230469 9.898438 4.980469 10.347656 4.980469 10.84375 C 4.980469 11.339844 5.230469 11.789062 5.605469 12.0625 L 14.101562 18.28125 C 14.578125 18.628906 15.179688 18.679688 15.699219 18.449219 C 16.214844 18.226562 16.625 17.695312 16.625 17.066406 L 16.625 4.621094 C 16.625 4.179688 16.425781 3.769531 16.113281 3.496094 C 15.789062 3.207031 15.390625 3.089844 15.003906 3.097656 Z M 11.214844 9.34375 L 11.214844 12.34375 L 9.164062 10.84375 Z M 11.214844 9.34375 "/>
<path style=" stroke:none;fill-rule:evenodd;fill:rgb(95.294118%,71.764708%,85.09804%);fill-opacity:1;" d="M 14.605469 5.609375 L 7 10.933594 L 14.535156 16.082031 L 14.605469 12.707031 Z M 14.605469 5.609375 "/>
<path style="fill-rule:nonzero;fill:rgb(95.294118%,71.764708%,85.09804%);fill-opacity:1;stroke-width:0.388796;stroke-linecap:butt;stroke-linejoin:miter;stroke:rgb(61.56863%,22.745098%,60.784316%);stroke-opacity:1;stroke-miterlimit:4;" d="M 13.900538 1.910207 L 12.697848 3.509418 L 14.298037 4.711342 L 15.498178 3.11213 L 14.998756 2.111366 Z M 13.900538 1.910207 " transform="matrix(1.533023,0,0,1.5535,5.666725,-0.209694)"/>
<path style="fill-rule:nonzero;fill:rgb(95.294118%,71.764708%,85.09804%);fill-opacity:1;stroke-width:0.259197;stroke-linecap:butt;stroke-linejoin:miter;stroke:rgb(61.56863%,22.745098%,60.784316%);stroke-opacity:1;stroke-miterlimit:4;" d="M 7.792812 11.706634 L 8.195407 9.506461 L 8.896127 9.408396 L 8.786559 9.951525 L 9.30127 9.712649 L 9.186607 10.250748 L 9.703865 10.014387 L 9.793047 10.708384 L 7.792812 11.706634 " transform="matrix(1.533023,0,0,1.5535,5.666725,-0.209694)"/>
<path style="fill-rule:nonzero;fill:rgb(61.56863%,22.745098%,60.784316%);fill-opacity:1;stroke-width:0.129599;stroke-linecap:butt;stroke-linejoin:miter;stroke:rgb(61.56863%,22.745098%,60.784316%);stroke-opacity:1;stroke-miterlimit:4;" d="M 8.134253 10.592718 L 8.676992 11.042811 L 7.79536 11.714178 Z M 8.134253 10.592718 " transform="matrix(1.533023,0,0,1.5535,5.666725,-0.209694)"/>
<path style="fill-rule:nonzero;fill:rgb(90.196079%,0.784314%,70.588237%);fill-opacity:1;stroke-width:0.129599;stroke-linecap:butt;stroke-linejoin:miter;stroke:rgb(61.56863%,22.745098%,60.784316%);stroke-opacity:1;stroke-miterlimit:4;" d="M 12.697848 3.509418 L 14.298037 4.711342 L 9.793047 10.708384 L 9.703865 10.014387 L 9.186607 10.250748 L 9.229924 9.795627 L 8.786559 9.951525 L 8.840069 9.481316 L 8.195407 9.506461 Z M 12.697848 3.509418 " transform="matrix(1.533023,0,0,1.5535,5.666725,-0.209694)"/>
<path style="fill:none;stroke-width:0.90719;stroke-linecap:butt;stroke-linejoin:round;stroke:rgb(61.56863%,22.745098%,60.784316%);stroke-opacity:1;stroke-miterlimit:4;" d="M 13.599865 2.31001 L 8.195407 9.506461 L 7.492139 12.106437 L 9.793047 10.708384 L 15.200054 3.511933 C 15.9976 2.47848 14.433084 1.233811 13.599865 2.31001 Z M 13.599865 2.31001 " transform="matrix(1.533023,0,0,1.5535,5.666725,-0.209694)"/>
</g>
</svg>
