<?xml version="1.0" encoding="UTF-8"?>
<svg xmlns="http://www.w3.org/2000/svg" xmlns:xlink="http://www.w3.org/1999/xlink" width="32px" height="32px" viewBox="0 0 32 32" version="1.1">
<defs>
<clipPath id="clip1">
  <path d="M 3 11 L 29 11 L 29 25 L 3 25 Z M 3 11 "/>
</clipPath>
<clipPath id="clip2">
  <path d="M 6.449219 25.515625 L 6.449219 18.644531 L 25.550781 18.644531 L 25.550781 25.515625 L 31.542969 25.625 L 31.542969 9.871094 L 0.457031 9.871094 L 0.457031 25.625 Z M 6.449219 25.515625 "/>
</clipPath>
<clipPath id="clip3">
  <path d="M 0 9 L 32 9 L 32 26 L 0 26 Z M 0 9 "/>
</clipPath>
<clipPath id="clip4">
  <path d="M 6.449219 25.515625 L 6.449219 18.644531 L 25.550781 18.644531 L 25.550781 25.515625 L 31.542969 25.625 L 31.542969 9.871094 L 0.457031 9.871094 L 0.457031 25.625 Z M 6.449219 25.515625 "/>
</clipPath>
<clipPath id="clip5">
  <path d="M 6 18 L 26 18 L 26 29 L 6 29 Z M 6 18 "/>
</clipPath>
<clipPath id="clip6">
  <path d="M 5.953125 18.035156 L 26.082031 18.035156 L 26.082031 29.589844 L 5.953125 30.3125 Z M 5.953125 18.035156 "/>
</clipPath>
<clipPath id="clip7">
  <path d="M 5 18 L 27 18 L 27 31 L 5 31 Z M 5 18 "/>
</clipPath>
<clipPath id="clip8">
  <path d="M 5.953125 18.035156 L 26.082031 18.035156 L 26.082031 29.589844 L 5.953125 30.3125 Z M 5.953125 18.035156 "/>
</clipPath>
<clipPath id="clip9">
  <path d="M 6 3 L 26 3 L 26 11 L 6 11 Z M 6 3 "/>
</clipPath>
<clipPath id="clip10">
  <path d="M 5.503906 10.609375 L 26.46875 10.609375 L 26.46875 1.417969 C 26.46875 1.417969 6.816406 -0.417969 5.503906 1.417969 C 4.195312 3.257812 4.195312 3.257812 4.195312 3.257812 Z M 5.503906 10.609375 "/>
</clipPath>
<clipPath id="clip11">
  <path d="M 4 0 L 27 0 L 27 11 L 4 11 Z M 4 0 "/>
</clipPath>
<clipPath id="clip12">
  <path d="M 5.503906 10.609375 L 26.46875 10.609375 L 26.46875 1.417969 C 26.46875 1.417969 6.816406 -0.417969 5.503906 1.417969 C 4.195312 3.257812 4.195312 3.257812 4.195312 3.257812 Z M 5.503906 10.609375 "/>
</clipPath>
</defs>
<g id="surface1">
<path style="fill-rule:nonzero;fill:rgb(11.372549%,11.372549%,11.372549%);fill-opacity:1;stroke-width:0.429767;stroke-linecap:butt;stroke-linejoin:miter;stroke:rgb(90.196079%,0.784314%,70.588237%);stroke-opacity:1;stroke-miterlimit:4;" d="M -5.145337 2.01232 L -1.210522 2.01232 C -0.914218 2.01232 -0.673995 2.237914 -0.673995 2.51654 C -0.673995 2.795165 -0.914218 3.020759 -1.210522 3.020759 L -5.145337 3.020759 C -5.442478 3.020759 -5.682702 2.795165 -5.682702 2.51654 C -5.682702 2.237914 -5.442478 2.01232 -5.145337 2.01232 Z M -5.145337 2.01232 " transform="matrix(4.666873,0,0,-4.640529,30.817323,25.873389)"/>
<g clip-path="url(#clip1)" clip-rule="nonzero">
<g clip-path="url(#clip2)" clip-rule="nonzero">
<path style=" stroke:none;fill-rule:nonzero;fill:rgb(95.294118%,71.764708%,85.09804%);fill-opacity:1;" d="M 6.914062 11.128906 L 25.085938 11.128906 C 27.222656 11.128906 28.953125 13.101562 28.953125 15.53125 L 28.953125 20.558594 C 28.953125 22.988281 27.222656 24.960938 25.085938 24.960938 L 6.914062 24.960938 C 4.777344 24.960938 3.046875 22.988281 3.046875 20.558594 L 3.046875 15.53125 C 3.046875 13.101562 4.777344 11.128906 6.914062 11.128906 Z M 6.914062 11.128906 "/>
</g>
</g>
<g clip-path="url(#clip3)" clip-rule="nonzero">
<g clip-path="url(#clip4)" clip-rule="nonzero">
<path style="fill:none;stroke-width:0.484949;stroke-linecap:butt;stroke-linejoin:miter;stroke:rgb(90.196079%,0.784314%,70.588237%);stroke-opacity:1;stroke-miterlimit:4;" d="M 1.032247 -0.226457 L 5.363917 -0.226457 C 5.873252 -0.226457 6.285748 0.260093 6.285748 0.859369 L 6.285748 2.099349 C 6.285748 2.698625 5.873252 3.185175 5.363917 3.185175 L 1.032247 3.185175 C 0.522912 3.185175 0.110417 2.698625 0.110417 2.099349 L 0.110417 0.859369 C 0.110417 0.260093 0.522912 -0.226457 1.032247 -0.226457 Z M 1.032247 -0.226457 " transform="matrix(4.195119,0,0,4.054374,2.583664,12.047046)"/>
</g>
</g>
<g clip-path="url(#clip5)" clip-rule="nonzero">
<g clip-path="url(#clip6)" clip-rule="nonzero">
<path style=" stroke:none;fill-rule:nonzero;fill:rgb(94.117647%,89.019608%,92.54902%);fill-opacity:0.996078;" d="M 8.351562 15.988281 L 23.667969 15.988281 C 24.558594 15.988281 25.28125 16.765625 25.28125 17.722656 L 25.28125 27.195312 C 25.28125 28.152344 24.558594 28.929688 23.667969 28.929688 L 8.351562 28.929688 C 7.460938 28.929688 6.738281 28.152344 6.738281 27.195312 L 6.738281 17.722656 C 6.738281 16.765625 7.460938 15.988281 8.351562 15.988281 Z M 8.351562 15.988281 "/>
</g>
</g>
<g clip-path="url(#clip7)" clip-rule="nonzero">
<g clip-path="url(#clip8)" clip-rule="nonzero">
<path style="fill:none;stroke-width:0.450622;stroke-linecap:butt;stroke-linejoin:miter;stroke:rgb(90.196079%,0.784314%,70.588237%);stroke-opacity:1;stroke-miterlimit:4;" d="M 1.38619 1.053968 L 4.954709 1.053968 C 5.162213 1.053968 5.330582 1.223342 5.330582 1.431867 L 5.330582 3.495844 C 5.330582 3.70437 5.162213 3.873744 4.954709 3.873744 L 1.38619 3.873744 C 1.178686 3.873744 1.010317 3.70437 1.010317 3.495844 L 1.010317 1.431867 C 1.010317 1.223342 1.178686 1.053968 1.38619 1.053968 Z M 1.38619 1.053968 " transform="matrix(4.29209,0,0,4.589516,2.401912,11.151077)"/>
</g>
</g>
<g clip-path="url(#clip9)" clip-rule="nonzero">
<g clip-path="url(#clip10)" clip-rule="nonzero">
<path style=" stroke:none;fill-rule:nonzero;fill:rgb(94.117647%,89.019608%,92.54902%);fill-opacity:0.996078;" d="M 8.648438 3.257812 L 23.328125 3.257812 C 24.339844 3.257812 25.160156 4.035156 25.160156 4.992188 L 25.160156 11.632812 C 25.160156 12.589844 24.339844 13.367188 23.328125 13.367188 L 8.648438 13.367188 C 7.636719 13.367188 6.816406 12.589844 6.816406 11.632812 L 6.816406 4.992188 C 6.816406 4.035156 7.636719 3.257812 8.648438 3.257812 Z M 8.648438 3.257812 "/>
</g>
</g>
<g clip-path="url(#clip11)" clip-rule="nonzero">
<g clip-path="url(#clip12)" clip-rule="nonzero">
<path style="fill:none;stroke-width:0.404233;stroke-linecap:butt;stroke-linejoin:miter;stroke:rgb(90.196079%,0.784314%,70.588237%);stroke-opacity:1;stroke-miterlimit:4;" d="M 1.420918 -2.118738 L 4.923633 -2.118738 C 5.165039 -2.118738 5.360773 -1.985653 5.360773 -1.821805 L 5.360773 -0.684902 C 5.360773 -0.521054 5.165039 -0.387969 4.923633 -0.387969 L 1.420918 -0.387969 C 1.179512 -0.387969 0.983777 -0.521054 0.983777 -0.684902 L 0.983777 -1.821805 C 0.983777 -1.985653 1.179512 -2.118738 1.420918 -2.118738 Z M 1.420918 -2.118738 " transform="matrix(4.190945,0,0,5.840975,2.693449,15.633307)"/>
</g>
</g>
<path style="fill-rule:evenodd;fill:rgb(61.56863%,22.745098%,60.784316%);fill-opacity:1;stroke-width:0.214884;stroke-linecap:round;stroke-linejoin:round;stroke:rgb(90.196079%,0.784314%,70.588237%);stroke-opacity:1;stroke-miterlimit:4;" d="M -0.927611 -2.657957 C -0.927611 -2.566204 -1.002942 -2.492128 -1.095014 -2.492128 C -1.187923 -2.492128 -1.263254 -2.566204 -1.263254 -2.657957 C -1.263254 -2.748868 -1.187923 -2.822943 -1.095014 -2.822943 C -1.002942 -2.822943 -0.927611 -2.748868 -0.927611 -2.657957 Z M -0.927611 -2.657957 " transform="matrix(4.666873,0,0,4.640529,30.817323,25.873389)"/>
<path style="fill-rule:evenodd;fill:rgb(61.56863%,22.745098%,60.784316%);fill-opacity:1;stroke-width:0.214884;stroke-linecap:round;stroke-linejoin:round;stroke:rgb(90.196079%,0.784314%,70.588237%);stroke-opacity:1;stroke-miterlimit:4;" d="M -1.773834 -2.655431 C -1.773834 -2.56452 -1.849166 -2.490445 -1.942075 -2.490445 C -2.034147 -2.490445 -2.109478 -2.56452 -2.109478 -2.655431 C -2.109478 -2.747184 -2.034147 -2.82126 -1.942075 -2.82126 C -1.849166 -2.82126 -1.773834 -2.747184 -1.773834 -2.655431 Z M -1.773834 -2.655431 " transform="matrix(4.666873,0,0,4.640529,30.817323,25.873389)"/>
<path style="fill:none;stroke-width:0.429767;stroke-linecap:butt;stroke-linejoin:miter;stroke:rgb(90.196079%,0.784314%,70.588237%);stroke-opacity:1;stroke-miterlimit:4;" d="M -5.291815 -1.710126 L -1.058185 -1.710126 " transform="matrix(4.666873,0,0,4.640529,30.817323,25.873389)"/>
<path style="fill:none;stroke-width:0.429767;stroke-linecap:round;stroke-linejoin:miter;stroke:rgb(90.196079%,0.784314%,70.588237%);stroke-opacity:1;stroke-miterlimit:4;" d="M -4.630572 -1.190755 L -1.706873 -1.190755 " transform="matrix(4.666873,0,0,4.640529,30.817323,25.873389)"/>
<path style="fill:none;stroke-width:0.429767;stroke-linecap:round;stroke-linejoin:miter;stroke:rgb(90.196079%,0.784314%,70.588237%);stroke-opacity:1;stroke-miterlimit:4;" d="M -4.636431 -0.66465 L -1.713569 -0.66465 " transform="matrix(4.666873,0,0,4.640529,30.817323,25.873389)"/>
<path style="fill-rule:nonzero;fill:rgb(61.56863%,22.745098%,60.784316%);fill-opacity:1;stroke-width:0.107442;stroke-linecap:round;stroke-linejoin:round;stroke:rgb(61.56863%,22.745098%,60.784316%);stroke-opacity:1;stroke-miterlimit:4;" d="M -4.641453 0.0668469 C -4.632246 0.167859 -4.5611 0.241935 -4.471539 0.241935 C -4.412948 0.241935 -4.358542 0.209106 -4.327572 0.157758 C -4.297439 0.209948 -4.245544 0.241935 -4.186953 0.241935 C -4.09823 0.241935 -4.027083 0.167859 -4.017876 0.0668469 C -4.017039 0.0626381 -4.014528 0.0390686 -4.023735 0.000347234 C -4.03629 -0.0543677 -4.066423 -0.104874 -4.109948 -0.144437 L -4.327572 -0.343936 L -4.549381 -0.145279 C -4.592906 -0.104874 -4.623039 -0.0543677 -4.635594 0.000347234 C -4.644801 0.0390686 -4.641453 0.0626381 -4.641453 0.0668469 Z M -4.612158 0.00623961 C -4.600439 -0.0442665 -4.572818 -0.0905637 -4.533478 -0.12676 L -4.327572 -0.311107 L -4.125851 -0.12676 C -4.085674 -0.0905637 -4.05889 -0.0442665 -4.046335 0.00623961 C -4.037964 0.0424356 -4.042149 0.0626381 -4.042149 0.0634798 L -4.042149 0.0643216 C -4.049683 0.152707 -4.110785 0.217523 -4.186953 0.217523 C -4.24387 0.217523 -4.293254 0.182169 -4.316691 0.126612 L -4.327572 0.0996759 L -4.338453 0.126612 C -4.36189 0.181327 -4.414622 0.217523 -4.471539 0.217523 C -4.548544 0.217523 -4.609647 0.152707 -4.61718 0.0634798 C -4.61718 0.0626381 -4.620528 0.0424356 -4.612158 0.00623961 Z M -4.612158 0.00623961 " transform="matrix(4.666873,0,0,4.640529,30.817323,25.873389)"/>
<path style=" stroke:none;fill-rule:nonzero;fill:rgb(90.196079%,0.784314%,70.588237%);fill-opacity:1;" d="M 22.675781 22.148438 C 22.230469 22.597656 20.597656 23.289062 21.03125 23.75 L 22.585938 25.445312 L 23.410156 24.644531 L 27.554688 29.160156 C 28.589844 30.320312 30.265625 28.6875 29.199219 27.558594 L 25.050781 23.039062 L 25.875 22.238281 L 24.320312 20.546875 C 23.886719 20.0625 23.132812 21.691406 22.675781 22.148438 Z M 22.675781 22.148438 "/>
<path style="fill-rule:nonzero;fill:rgb(95.294118%,71.764708%,85.09804%);fill-opacity:1;stroke-width:1.624349;stroke-linecap:square;stroke-linejoin:miter;stroke:rgb(90.196079%,0.784314%,70.588237%);stroke-opacity:1;stroke-miterlimit:4;" d="M 6.906442 18.143664 C 6.908236 21.259194 4.384208 23.785429 1.26991 23.786176 C -1.842211 23.78462 -4.36886 21.258213 -4.368346 18.144867 C -4.367965 15.027036 -1.843936 12.5008 1.270493 12.50454 C 4.384791 12.503793 6.909131 15.028017 6.906442 18.143664 Z M 6.906442 18.143664 " transform="matrix(0.893261,-0.847689,0.844546,0.895701,1.21461,1.345403)"/>
<path style="fill-rule:nonzero;fill:rgb(95.294118%,71.764708%,85.09804%);fill-opacity:1;stroke-width:1.624317;stroke-linecap:round;stroke-linejoin:miter;stroke:rgb(61.56863%,22.745098%,60.784316%);stroke-opacity:1;stroke-miterlimit:4;" d="M 11.205402 9.123155 C 11.860252 8.700018 12.63848 8.467769 13.467324 8.496403 C 14.552414 8.537762 15.523617 9.018166 16.222756 9.765816 " transform="matrix(1.234777,0,0,1.227807,1.21461,1.345403)"/>
<path style="fill:none;stroke-width:1.624317;stroke-linecap:round;stroke-linejoin:miter;stroke:rgb(61.56863%,22.745098%,60.784316%);stroke-opacity:1;stroke-miterlimit:4;" d="M 19.120547 16.271954 L 16.804845 18.670794 " transform="matrix(1.234777,0,0,1.227807,1.21461,1.345403)"/>
</g>
</svg>
