<?xml version="1.0" encoding="UTF-8"?>
<svg xmlns="http://www.w3.org/2000/svg" xmlns:xlink="http://www.w3.org/1999/xlink" width="32px" height="32px" viewBox="0 0 32 32" version="1.1">
<g id="surface1">
<path style="fill-rule:nonzero;fill:rgb(94.117647%,89.019608%,92.54902%);fill-opacity:1;stroke-width:1;stroke-linecap:butt;stroke-linejoin:miter;stroke:rgb(90.196079%,0.784314%,70.588237%);stroke-opacity:1;stroke-miterlimit:4;" d="M 7.982422 10.694416 L 6.966797 10.999104 C 7.056641 11.186604 7.089844 12.569416 6.892578 12.754963 C 6.755859 12.885822 6.404297 12.942463 6.126953 12.965901 C 5.292969 13.03426 4.482422 13.393635 4.482422 13.737385 C 4.482422 14.352619 6.453125 14.670979 7.982422 14.670979 C 9.503906 14.670979 11.482422 14.352619 11.482422 13.737385 C 11.482422 13.37801 10.669922 13.03426 9.837891 12.965901 C 9.558594 12.942463 9.199219 12.891682 9.072266 12.754963 C 8.871094 12.540119 8.912109 11.161213 9 10.999104 Z M 7.982422 10.694416 " transform="matrix(2,0,0,2,0,-0.365395)"/>
<path style="fill-rule:nonzero;fill:rgb(95.294118%,71.764708%,85.09804%);fill-opacity:1;stroke-width:1;stroke-linecap:butt;stroke-linejoin:miter;stroke:rgb(90.196079%,0.784314%,70.588237%);stroke-opacity:1;stroke-miterlimit:4;" d="M 3.378906 1.694416 L 12.621094 1.694416 C 13.644531 1.694416 14.474609 2.522541 14.474609 3.547932 L 14.474609 8.87801 C 14.474609 9.901447 13.644531 10.731526 12.621094 10.731526 L 3.378906 10.731526 C 2.355469 10.731526 1.525391 9.901447 1.525391 8.87801 L 1.525391 3.547932 C 1.525391 2.522541 2.355469 1.694416 3.378906 1.694416 Z M 3.378906 1.694416 " transform="matrix(2,0,0,2,0,-0.365395)"/>
<path style="fill-rule:evenodd;fill:rgb(94.117647%,89.019608%,92.54902%);fill-opacity:1;stroke-width:2;stroke-linecap:round;stroke-linejoin:round;stroke:rgb(94.117647%,89.019608%,92.54902%);stroke-opacity:1;stroke-miterlimit:4;" d="M 7.545277 4.923941 L 13.570667 4.923941 C 14.123402 4.923941 14.570667 5.371206 14.570667 5.923941 L 14.570667 13.390738 C 14.570667 13.943472 14.123402 14.390738 13.570667 14.390738 L 7.545277 14.390738 C 6.992542 14.390738 6.545277 13.943472 6.545277 13.390738 L 6.545277 5.923941 C 6.545277 5.371206 6.992542 4.923941 7.545277 4.923941 Z M 7.545277 4.923941 " transform="matrix(2,0,0,2,-1.141335,-0.781475)"/>
<path style="fill-rule:evenodd;fill:rgb(94.117647%,89.019608%,92.54902%);fill-opacity:1;stroke-width:1;stroke-linecap:round;stroke-linejoin:round;stroke:rgb(90.196079%,0.784314%,70.588237%);stroke-opacity:1;stroke-miterlimit:4;" d="M 7.545277 4.923941 L 13.570667 4.923941 C 14.123402 4.923941 14.570667 5.371206 14.570667 5.923941 L 14.570667 13.390738 C 14.570667 13.943472 14.123402 14.390738 13.570667 14.390738 L 7.545277 14.390738 C 6.992542 14.390738 6.545277 13.943472 6.545277 13.390738 L 6.545277 5.923941 C 6.545277 5.371206 6.992542 4.923941 7.545277 4.923941 Z M 7.545277 4.923941 " transform="matrix(2,0,0,2,-1.141335,-0.781475)"/>
<path style="fill-rule:nonzero;fill:rgb(61.56863%,22.745098%,60.784316%);fill-opacity:1;stroke-width:0.25;stroke-linecap:butt;stroke-linejoin:miter;stroke:rgb(61.56863%,22.745098%,60.784316%);stroke-opacity:1;stroke-miterlimit:4;" d="M 7.719105 6.588003 C 7.744495 6.300894 7.949574 6.091909 8.205433 6.091909 C 8.375355 6.091909 8.531605 6.183706 8.619495 6.330191 C 8.707386 6.181753 8.855824 6.091909 9.023792 6.091909 C 9.279652 6.091909 9.48473 6.300894 9.51012 6.588003 C 9.514027 6.601675 9.521839 6.668081 9.496449 6.777456 C 9.459339 6.935659 9.371449 7.078238 9.246449 7.191519 L 8.619495 7.757925 L 7.982777 7.191519 C 7.857777 7.078238 7.771839 6.935659 7.732777 6.777456 C 7.707386 6.668081 7.717152 6.601675 7.719105 6.588003 Z M 7.801136 6.761831 C 7.834339 6.906363 7.914417 7.037222 8.029652 7.140738 L 8.619495 7.666128 L 9.199574 7.140738 C 9.314808 7.037222 9.394886 6.906363 9.428089 6.761831 C 9.45348 6.658316 9.443714 6.599722 9.443714 6.599722 L 9.441761 6.595816 C 9.420277 6.343863 9.244495 6.160269 9.023792 6.160269 C 8.861683 6.160269 8.719105 6.259878 8.650745 6.420034 L 8.619495 6.494253 L 8.588245 6.420034 C 8.521839 6.261831 8.371449 6.160269 8.205433 6.160269 C 7.98473 6.160269 7.808949 6.343863 7.787464 6.599722 C 7.787464 6.599722 7.775745 6.658316 7.801136 6.761831 Z M 7.801136 6.761831 " transform="matrix(2,0,0,2,-1.141335,-0.781475)"/>
<path style="fill:none;stroke-width:1;stroke-linecap:round;stroke-linejoin:miter;stroke:rgb(90.196079%,0.784314%,70.588237%);stroke-opacity:1;stroke-miterlimit:4;" d="M 8.318714 8.545034 L 12.998402 8.545034 " transform="matrix(2,0,0,2,-1.141335,-0.781475)"/>
<path style="fill:none;stroke-width:1;stroke-linecap:round;stroke-linejoin:miter;stroke:rgb(90.196079%,0.784314%,70.588237%);stroke-opacity:1;stroke-miterlimit:4;" d="M 8.000355 10.000113 L 13.348011 10.000113 " transform="matrix(2,0,0,2,-1.141335,-0.781475)"/>
<path style="fill:none;stroke-width:1;stroke-linecap:round;stroke-linejoin:miter;stroke:rgb(90.196079%,0.784314%,70.588237%);stroke-opacity:1;stroke-miterlimit:4;" d="M 8.000355 11.46105 L 13.348011 11.46105 " transform="matrix(2,0,0,2,-1.141335,-0.781475)"/>
</g>
</svg>
