<?xml version="1.0" encoding="UTF-8"?>
<svg xmlns="http://www.w3.org/2000/svg" xmlns:xlink="http://www.w3.org/1999/xlink" width="32px" height="32px" viewBox="0 0 32 32" version="1.1">
<defs>
<clipPath id="clip1">
  <path d="M 3 10 L 30 10 L 30 25 L 3 25 Z M 3 10 "/>
</clipPath>
<clipPath id="clip2">
  <path d="M 6.453125 25.363281 L 6.453125 18.488281 L 25.648438 18.488281 L 25.648438 25.363281 L 31.671875 25.472656 L 31.671875 9.710938 L 0.429688 9.710938 L 0.429688 25.472656 Z M 6.453125 25.363281 "/>
</clipPath>
<clipPath id="clip3">
  <path d="M 0 9 L 32 9 L 32 26 L 0 26 Z M 0 9 "/>
</clipPath>
<clipPath id="clip4">
  <path d="M 6.453125 25.363281 L 6.453125 18.488281 L 25.648438 18.488281 L 25.648438 25.363281 L 31.671875 25.472656 L 31.671875 9.710938 L 0.429688 9.710938 L 0.429688 25.472656 Z M 6.453125 25.363281 "/>
</clipPath>
<clipPath id="clip5">
  <path d="M 6 17 L 26 17 L 26 29 L 6 29 Z M 6 17 "/>
</clipPath>
<clipPath id="clip6">
  <path d="M 5.953125 17 L 26.183594 17 L 26.183594 29.421875 L 5.953125 30.199219 Z M 5.953125 17 "/>
</clipPath>
<clipPath id="clip7">
  <path d="M 5 17 L 27 17 L 27 31 L 5 31 Z M 5 17 "/>
</clipPath>
<clipPath id="clip8">
  <path d="M 5.953125 17 L 26.183594 17 L 26.183594 29.421875 L 5.953125 30.199219 Z M 5.953125 17 "/>
</clipPath>
<clipPath id="clip9">
  <path d="M 6 3 L 26 3 L 26 10 L 6 10 Z M 6 3 "/>
</clipPath>
<clipPath id="clip10">
  <path d="M 5.503906 10 L 26.574219 10 L 26.574219 1.367188 C 26.574219 1.367188 6.820312 -0.359375 5.503906 1.367188 C 4.1875 3.09375 4.1875 3.09375 4.1875 3.09375 Z M 5.503906 10 "/>
</clipPath>
<clipPath id="clip11">
  <path d="M 4 0 L 27 0 L 27 10 L 4 10 Z M 4 0 "/>
</clipPath>
<clipPath id="clip12">
  <path d="M 5.503906 10 L 26.574219 10 L 26.574219 1.367188 C 26.574219 1.367188 6.820312 -0.359375 5.503906 1.367188 C 4.1875 3.09375 4.1875 3.09375 4.1875 3.09375 Z M 5.503906 10 "/>
</clipPath>
</defs>
<g id="surface1">
<path style="fill-rule:nonzero;fill:rgb(11.372549%,11.372549%,11.372549%);fill-opacity:1;stroke-width:0.443437;stroke-linecap:butt;stroke-linejoin:miter;stroke:rgb(90.196079%,0.784314%,70.588237%);stroke-opacity:1;stroke-miterlimit:4;" d="M 1.135857 -1.128735 L 5.198685 -1.128735 C 5.503612 -1.128735 5.75013 -0.894695 5.75013 -0.606511 C 5.75013 -0.317454 5.503612 -0.0834132 5.198685 -0.0834132 L 1.135857 -0.0834132 C 0.831789 -0.0834132 0.585271 -0.317454 0.585271 -0.606511 C 0.585271 -0.894695 0.831789 -1.128735 1.135857 -1.128735 Z M 1.135857 -1.128735 " transform="matrix(4.54771,0,0,-4.473053,1.631328,11.326107)"/>
<g clip-path="url(#clip1)" clip-rule="nonzero">
<g clip-path="url(#clip2)" clip-rule="nonzero">
<path style=" stroke:none;fill-rule:nonzero;fill:rgb(95.294118%,71.764708%,85.09804%);fill-opacity:1;" d="M 6.160156 10.96875 L 25.941406 10.96875 C 27.667969 10.96875 29.066406 12.519531 29.066406 14.429688 L 29.066406 21.347656 C 29.066406 23.257812 27.667969 24.804688 25.941406 24.804688 L 6.160156 24.804688 C 4.433594 24.804688 3.035156 23.257812 3.035156 21.347656 L 3.035156 14.429688 C 3.035156 12.519531 4.433594 10.96875 6.160156 10.96875 Z M 6.160156 10.96875 "/>
</g>
</g>
<g clip-path="url(#clip3)" clip-rule="nonzero">
<g clip-path="url(#clip4)" clip-rule="nonzero">
<path style="fill:none;stroke-width:0.483669;stroke-linecap:butt;stroke-linejoin:miter;stroke:rgb(90.196079%,0.784314%,70.588237%);stroke-opacity:1;stroke-miterlimit:4;" d="M 0.851901 -0.226665 L 5.544097 -0.226665 C 5.953644 -0.226665 6.28536 0.155688 6.28536 0.626647 L 6.28536 2.33231 C 6.28536 2.803269 5.953644 3.18466 5.544097 3.18466 L 0.851901 3.18466 C 0.442353 3.18466 0.110638 2.803269 0.110638 2.33231 L 0.110638 0.626647 C 0.110638 0.155688 0.442353 -0.226665 0.851901 -0.226665 Z M 0.851901 -0.226665 " transform="matrix(4.215777,0,0,4.055884,2.568733,11.888078)"/>
</g>
</g>
<g clip-path="url(#clip5)" clip-rule="nonzero">
<g clip-path="url(#clip6)" clip-rule="nonzero">
<path style=" stroke:none;fill-rule:nonzero;fill:rgb(94.117647%,89.019608%,92.54902%);fill-opacity:0.996078;" d="M 8.359375 14.800781 L 23.765625 14.800781 C 24.65625 14.800781 25.378906 15.578125 25.378906 16.535156 L 25.378906 26.980469 C 25.378906 27.9375 24.65625 28.710938 23.765625 28.710938 L 8.359375 28.710938 C 7.46875 28.710938 6.746094 27.9375 6.746094 26.980469 L 6.746094 16.535156 C 6.746094 15.578125 7.46875 14.800781 8.359375 14.800781 Z M 8.359375 14.800781 "/>
</g>
</g>
<g clip-path="url(#clip7)" clip-rule="nonzero">
<g clip-path="url(#clip8)" clip-rule="nonzero">
<path style="fill:none;stroke-width:0.433521;stroke-linecap:butt;stroke-linejoin:miter;stroke:rgb(90.196079%,0.784314%,70.588237%);stroke-opacity:1;stroke-miterlimit:4;" d="M 1.384878 1.054362 L 4.956742 1.054362 C 5.163229 1.054362 5.330773 1.211897 5.330773 1.405846 L 5.330773 3.522664 C 5.330773 3.716613 5.163229 3.873356 4.956742 3.873356 L 1.384878 3.873356 C 1.178391 3.873356 1.010847 3.716613 1.010847 3.522664 L 1.010847 1.405846 C 1.010847 1.211897 1.178391 1.054362 1.384878 1.054362 Z M 1.384878 1.054362 " transform="matrix(4.313225,0,0,4.93444,2.386084,9.598094)"/>
</g>
</g>
<g clip-path="url(#clip9)" clip-rule="nonzero">
<g clip-path="url(#clip10)" clip-rule="nonzero">
<path style=" stroke:none;fill-rule:nonzero;fill:rgb(94.117647%,89.019608%,92.54902%);fill-opacity:0.996078;" d="M 8.652344 3.09375 L 23.421875 3.09375 C 24.433594 3.09375 25.253906 3.871094 25.253906 4.828125 L 25.253906 10.855469 C 25.253906 11.8125 24.433594 12.589844 23.421875 12.589844 L 8.652344 12.589844 C 7.640625 12.589844 6.820312 11.8125 6.820312 10.855469 L 6.820312 4.828125 C 6.820312 3.871094 7.640625 3.09375 8.652344 3.09375 Z M 8.652344 3.09375 "/>
</g>
</g>
<g clip-path="url(#clip11)" clip-rule="nonzero">
<g clip-path="url(#clip12)" clip-rule="nonzero">
<path style="fill:none;stroke-width:0.416095;stroke-linecap:butt;stroke-linejoin:miter;stroke:rgb(90.196079%,0.784314%,70.588237%);stroke-opacity:1;stroke-miterlimit:4;" d="M 1.4183 -2.119063 L 4.925184 -2.119063 C 5.165407 -2.119063 5.360182 -1.977358 5.360182 -1.802898 L 5.360182 -0.704154 C 5.360182 -0.529694 5.165407 -0.387989 4.925184 -0.387989 L 1.4183 -0.387989 C 1.178077 -0.387989 0.983302 -0.529694 0.983302 -0.704154 L 0.983302 -1.802898 C 0.983302 -1.977358 1.178077 -2.119063 1.4183 -2.119063 Z M 1.4183 -2.119063 " transform="matrix(4.211582,0,0,5.485668,2.679057,14.718224)"/>
</g>
</g>
<path style="fill-rule:evenodd;fill:rgb(61.56863%,22.745098%,60.784316%);fill-opacity:1;stroke-width:0.221718;stroke-linecap:round;stroke-linejoin:round;stroke:rgb(90.196079%,0.784314%,70.588237%);stroke-opacity:1;stroke-miterlimit:4;" d="M 5.48901 0.459799 C 5.48901 0.554114 5.410845 0.630963 5.315502 0.630963 C 5.2193 0.630963 5.141994 0.554114 5.141994 0.459799 C 5.141994 0.364611 5.2193 0.287762 5.315502 0.287762 C 5.410845 0.287762 5.48901 0.364611 5.48901 0.459799 Z M 5.48901 0.459799 " transform="matrix(4.54771,0,0,4.473053,1.631328,11.326107)"/>
<path style="fill-rule:evenodd;fill:rgb(61.56863%,22.745098%,60.784316%);fill-opacity:1;stroke-width:0.221718;stroke-linecap:round;stroke-linejoin:round;stroke:rgb(90.196079%,0.784314%,70.588237%);stroke-opacity:1;stroke-miterlimit:4;" d="M 4.615459 0.461546 C 4.615459 0.556734 4.538153 0.633583 4.44281 0.633583 C 4.346608 0.633583 4.269302 0.556734 4.269302 0.461546 C 4.269302 0.367231 4.346608 0.290382 4.44281 0.290382 C 4.538153 0.290382 4.615459 0.367231 4.615459 0.461546 Z M 4.615459 0.461546 " transform="matrix(4.54771,0,0,4.473053,1.631328,11.326107)"/>
<path style="fill:none;stroke-width:0.443437;stroke-linecap:butt;stroke-linejoin:miter;stroke:rgb(90.196079%,0.784314%,70.588237%);stroke-opacity:1;stroke-miterlimit:4;" d="M 0.960631 1.492022 L 5.326668 1.492022 " transform="matrix(4.54771,0,0,4.473053,1.631328,11.326107)"/>
<path style="fill:none;stroke-width:0.443437;stroke-linecap:round;stroke-linejoin:miter;stroke:rgb(90.196079%,0.784314%,70.588237%);stroke-opacity:1;stroke-miterlimit:4;" d="M 1.670123 1.981935 L 4.685034 1.981935 " transform="matrix(4.54771,0,0,4.473053,1.631328,11.326107)"/>
<path style="fill:none;stroke-width:0.443437;stroke-linecap:round;stroke-linejoin:miter;stroke:rgb(90.196079%,0.784314%,70.588237%);stroke-opacity:1;stroke-miterlimit:4;" d="M 1.663251 2.528611 L 4.678162 2.528611 " transform="matrix(4.54771,0,0,4.473053,1.631328,11.326107)"/>
<path style="fill-rule:nonzero;fill:rgb(61.56863%,22.745098%,60.784316%);fill-opacity:1;stroke-width:0.110859;stroke-linecap:round;stroke-linejoin:round;stroke:rgb(61.56863%,22.745098%,60.784316%);stroke-opacity:1;stroke-miterlimit:4;" d="M 1.658957 3.287496 C 1.668405 3.39229 1.741416 3.468266 1.833323 3.468266 C 1.894309 3.468266 1.95014 3.435081 1.981921 3.381811 C 2.012844 3.435955 2.066957 3.468266 2.127084 3.468266 C 2.218991 3.468266 2.292002 3.39229 2.30145 3.287496 C 2.302309 3.28313 2.304886 3.258678 2.296297 3.218507 C 2.282554 3.16087 2.251631 3.108473 2.206966 3.067428 L 1.981921 2.86046 L 1.753441 3.067428 C 1.708776 3.108473 1.677854 3.16087 1.66411 3.218507 C 1.655521 3.258678 1.658098 3.28313 1.658957 3.287496 Z M 1.688161 3.22462 C 1.701045 3.172222 1.729391 3.124192 1.77062 3.085767 L 1.981921 2.894518 L 2.189787 3.085767 C 2.231017 3.124192 2.259362 3.172222 2.271387 3.22462 C 2.280836 3.262171 2.276541 3.28313 2.276541 3.28313 L 2.276541 3.284876 C 2.26881 3.376571 2.206107 3.443814 2.127084 3.443814 C 2.068675 3.443814 2.017997 3.407136 1.993088 3.348626 L 1.981921 3.321554 L 1.970755 3.348626 C 1.946705 3.406263 1.892591 3.443814 1.833323 3.443814 C 1.7543 3.443814 1.691597 3.376571 1.683007 3.28313 C 1.683007 3.28313 1.679571 3.262171 1.688161 3.22462 Z M 1.688161 3.22462 " transform="matrix(4.54771,0,0,4.473053,1.631328,11.326107)"/>
<path style="fill-rule:evenodd;fill:rgb(94.117647%,89.019608%,92.54902%);fill-opacity:1;stroke-width:1.620031;stroke-linecap:round;stroke-linejoin:round;stroke:rgb(90.196079%,0.784314%,70.588237%);stroke-opacity:1;stroke-miterlimit:4;" d="M 15.97941 8.511674 L 20.040363 8.511674 C 21.375126 8.511674 22.458047 9.602517 22.458047 10.954145 L 22.458047 20.056169 C 22.458047 21.407797 21.375126 22.498641 20.040363 22.498641 L 15.97941 22.498641 C 14.644647 22.498641 13.561726 21.407797 13.561726 20.056169 L 13.561726 10.954145 C 13.561726 9.602517 14.644647 8.511674 15.97941 8.511674 Z M 15.97941 8.511674 " transform="matrix(1.240857,0,0,1.228264,1.183556,1.275887)"/>
<path style="fill-rule:evenodd;fill:rgb(95.294118%,71.764708%,85.09804%);fill-opacity:1;stroke-width:1.620031;stroke-linecap:round;stroke-linejoin:round;stroke:rgb(90.196079%,0.784314%,70.588237%);stroke-opacity:1;stroke-miterlimit:4;" d="M 16.80734 11.501157 L 19.193544 11.501157 C 19.914442 11.501157 20.499975 12.448887 20.499975 13.616058 L 20.499975 18.38333 C 20.499975 19.553681 19.914442 20.501411 19.193544 20.501411 L 16.80734 20.501411 C 16.086442 20.501411 15.50091 19.553681 15.50091 18.38333 L 15.50091 13.616058 C 15.50091 12.448887 16.086442 11.501157 16.80734 11.501157 Z M 16.80734 11.501157 " transform="matrix(1.240857,0,0,1.228264,1.183556,1.275887)"/>
<path style="fill:none;stroke-width:1.620031;stroke-linecap:round;stroke-linejoin:round;stroke:rgb(61.56863%,22.745098%,60.784316%);stroke-opacity:1;stroke-miterlimit:4;" d="M 18.41913 14.185332 C 18.41913 14.411133 18.236544 14.595591 18.006738 14.598771 C 17.776932 14.598771 17.588051 14.417494 17.588051 14.191693 C 17.584903 13.965891 17.767488 13.778253 17.997294 13.775073 C 18.2271 13.771893 18.415982 13.94999 18.41913 14.175791 L 18.00359 14.185332 Z M 18.41913 14.185332 " transform="matrix(1.240857,0,0,1.228264,1.183556,1.275887)"/>
<path style="fill:none;stroke-width:1.620031;stroke-linecap:round;stroke-linejoin:round;stroke:rgb(90.196079%,0.784314%,70.588237%);stroke-opacity:1;stroke-miterlimit:4;" d="M 17.946926 16.90131 L 17.946926 18.501001 " transform="matrix(1.240857,0,0,1.228264,1.183556,1.275887)"/>
</g>
</svg>
