<?xml version="1.0" encoding="UTF-8"?>
<svg xmlns="http://www.w3.org/2000/svg" xmlns:xlink="http://www.w3.org/1999/xlink" width="32px" height="32px" viewBox="0 0 32 32" version="1.1">
<defs>
<clipPath id="clip1">
  <path d="M 6 3 L 26 3 L 26 11 L 6 11 Z M 6 3 "/>
</clipPath>
<clipPath id="clip2">
  <path d="M 5.480469 10.191406 L 26.496094 10.191406 L 26.496094 1.367188 C 26.496094 1.367188 6.792969 -0.398438 5.480469 1.367188 C 4.164062 3.128906 4.164062 3.128906 4.164062 3.128906 Z M 5.480469 10.191406 "/>
</clipPath>
<clipPath id="clip3">
  <path d="M 4 0 L 27 0 L 27 11 L 4 11 Z M 4 0 "/>
</clipPath>
<clipPath id="clip4">
  <path d="M 5.480469 10.191406 L 26.496094 10.191406 L 26.496094 1.367188 C 26.496094 1.367188 6.792969 -0.398438 5.480469 1.367188 C 4.164062 3.128906 4.164062 3.128906 4.164062 3.128906 Z M 5.480469 10.191406 "/>
</clipPath>
<clipPath id="clip5">
  <path d="M 3 11 L 29 11 L 29 25 L 3 25 Z M 3 11 "/>
</clipPath>
<clipPath id="clip6">
  <path d="M 6.425781 25.535156 L 6.425781 18.636719 L 25.574219 18.636719 L 25.574219 25.535156 L 31.582031 25.648438 L 31.582031 9.824219 L 0.417969 9.824219 L 0.417969 25.648438 Z M 6.425781 25.535156 "/>
</clipPath>
<clipPath id="clip7">
  <path d="M 0 9 L 32 9 L 32 26 L 0 26 Z M 0 9 "/>
</clipPath>
<clipPath id="clip8">
  <path d="M 6.425781 25.535156 L 6.425781 18.636719 L 25.574219 18.636719 L 25.574219 25.535156 L 31.582031 25.648438 L 31.582031 9.824219 L 0.417969 9.824219 L 0.417969 25.648438 Z M 6.425781 25.535156 "/>
</clipPath>
<clipPath id="clip9">
  <path d="M 7 17 L 26 17 L 26 29 L 7 29 Z M 7 17 "/>
</clipPath>
<clipPath id="clip10">
  <path d="M 5.550781 17.546875 L 26.832031 17.433594 L 28.410156 31.015625 L 3.128906 31.496094 Z M 5.550781 17.546875 "/>
</clipPath>
<clipPath id="clip11">
  <path d="M 3 17 L 29 17 L 29 32 L 3 32 Z M 3 17 "/>
</clipPath>
<clipPath id="clip12">
  <path d="M 5.550781 17.546875 L 26.832031 17.433594 L 28.410156 31.015625 L 3.128906 31.496094 Z M 5.550781 17.546875 "/>
</clipPath>
</defs>
<g id="surface1">
<path style="fill-rule:nonzero;fill:rgb(11.372549%,11.372549%,11.372549%);fill-opacity:1;stroke-width:0.443128;stroke-linecap:butt;stroke-linejoin:miter;stroke:rgb(90.196079%,0.784314%,70.588237%);stroke-opacity:1;stroke-miterlimit:4;" d="M 1.137663 -1.129073 L 5.197877 -1.129073 C 5.502716 -1.129073 5.74986 -0.895079 5.74986 -0.606284 C 5.74986 -0.317488 5.502716 -0.0834946 5.197877 -0.0834946 L 1.137663 -0.0834946 C 0.831963 -0.0834946 0.584819 -0.317488 0.584819 -0.606284 C 0.584819 -0.895079 0.831963 -1.129073 1.137663 -1.129073 Z M 1.137663 -1.129073 " transform="matrix(4.536206,0,0,-4.490639,1.616671,11.445368)"/>
<g clip-path="url(#clip1)" clip-rule="nonzero">
<g clip-path="url(#clip2)" clip-rule="nonzero">
<path style=" stroke:none;fill-rule:nonzero;fill:rgb(94.117647%,89.019608%,92.54902%);fill-opacity:0.996078;" d="M 8.625 3.128906 L 23.347656 3.128906 C 24.359375 3.128906 25.179688 3.90625 25.179688 4.863281 L 25.179688 11.101562 C 25.179688 12.0625 24.359375 12.835938 23.347656 12.835938 L 8.625 12.835938 C 7.613281 12.835938 6.792969 12.0625 6.792969 11.101562 L 6.792969 4.863281 C 6.792969 3.90625 7.613281 3.128906 8.625 3.128906 Z M 8.625 3.128906 "/>
</g>
</g>
<g clip-path="url(#clip3)" clip-rule="nonzero">
<g clip-path="url(#clip4)" clip-rule="nonzero">
<path style="fill:none;stroke-width:0.41203;stroke-linecap:butt;stroke-linejoin:miter;stroke:rgb(90.196079%,0.784314%,70.588237%);stroke-opacity:1;stroke-miterlimit:4;" d="M 1.419508 -2.119112 L 4.924127 -2.119112 C 5.164959 -2.119112 5.360228 -1.980514 5.360228 -1.809879 L 5.360228 -0.697612 C 5.360228 -0.52628 5.164959 -0.388378 4.924127 -0.388378 L 1.419508 -0.388378 C 1.178676 -0.388378 0.983406 -0.52628 0.983406 -0.697612 L 0.983406 -1.809879 C 0.983406 -1.980514 1.178676 -2.119112 1.419508 -2.119112 Z M 1.419508 -2.119112 " transform="matrix(4.200929,0,0,5.608621,2.661749,15.014204)"/>
</g>
</g>
<g clip-path="url(#clip5)" clip-rule="nonzero">
<g clip-path="url(#clip6)" clip-rule="nonzero">
<path style=" stroke:none;fill-rule:nonzero;fill:rgb(95.294118%,71.764708%,85.09804%);fill-opacity:1;" d="M 5.917969 11.085938 L 26.082031 11.085938 C 27.683594 11.085938 28.984375 12.457031 28.984375 14.148438 L 28.984375 21.917969 C 28.984375 23.605469 27.683594 24.976562 26.082031 24.976562 L 5.917969 24.976562 C 4.316406 24.976562 3.015625 23.605469 3.015625 21.917969 L 3.015625 14.148438 C 3.015625 12.457031 4.316406 11.085938 5.917969 11.085938 Z M 5.917969 11.085938 "/>
</g>
</g>
<g clip-path="url(#clip7)" clip-rule="nonzero">
<g clip-path="url(#clip8)" clip-rule="nonzero">
<path style="fill:none;stroke-width:0.483333;stroke-linecap:butt;stroke-linejoin:miter;stroke:rgb(90.196079%,0.784314%,70.588237%);stroke-opacity:1;stroke-miterlimit:4;" d="M 0.800517 -0.22683 L 5.595647 -0.22683 C 5.976507 -0.22683 6.285841 0.109897 6.285841 0.525289 L 6.285841 2.433407 C 6.285841 2.84784 5.976507 3.184567 5.595647 3.184567 L 0.800517 3.184567 C 0.419656 3.184567 0.110323 2.84784 0.110323 2.433407 L 0.110323 0.525289 C 0.110323 0.109897 0.419656 -0.22683 0.800517 -0.22683 Z M 0.800517 -0.22683 " transform="matrix(4.205113,0,0,4.07183,2.551704,12.009549)"/>
</g>
</g>
<g clip-path="url(#clip9)" clip-rule="nonzero">
<g clip-path="url(#clip10)" clip-rule="nonzero">
<path style=" stroke:none;fill-rule:nonzero;fill:rgb(94.117647%,89.019608%,92.54902%);fill-opacity:0.996078;" d="M 8.617188 15.277344 L 23.488281 15.277344 C 24.378906 15.277344 25.101562 16.054688 25.101562 17.011719 L 25.101562 27.179688 C 25.101562 28.136719 24.378906 28.914062 23.488281 28.914062 L 8.617188 28.914062 C 7.726562 28.914062 7.003906 28.136719 7.003906 27.179688 L 7.003906 17.011719 C 7.003906 16.054688 7.726562 15.277344 8.617188 15.277344 Z M 8.617188 15.277344 "/>
</g>
</g>
<g clip-path="url(#clip11)" clip-rule="nonzero">
<g clip-path="url(#clip12)" clip-rule="nonzero">
<path style="fill:none;stroke-width:0.444334;stroke-linecap:butt;stroke-linejoin:miter;stroke:rgb(90.196079%,0.784314%,70.588237%);stroke-opacity:1;stroke-miterlimit:4;" d="M 1.395479 1.054165 L 4.945236 1.054165 C 5.15783 1.054165 5.33033 1.214903 5.33033 1.412796 L 5.33033 3.515308 C 5.33033 3.713201 5.15783 3.873938 4.945236 3.873938 L 1.395479 3.873938 C 1.182885 3.873938 1.010386 3.713201 1.010386 3.515308 L 1.010386 1.412796 C 1.010386 1.214903 1.182885 1.054165 1.395479 1.054165 Z M 1.395479 1.054165 " transform="matrix(4.189326,0,0,4.836105,2.771071,10.17929)"/>
</g>
</g>
<path style="fill-rule:evenodd;fill:rgb(61.56863%,22.745098%,60.784316%);fill-opacity:1;stroke-width:0.221564;stroke-linecap:round;stroke-linejoin:round;stroke:rgb(90.196079%,0.784314%,70.588237%);stroke-opacity:1;stroke-miterlimit:4;" d="M 5.488938 0.459276 C 5.488938 0.554092 5.411437 0.63151 5.31499 0.63151 C 5.219405 0.63151 5.141904 0.554092 5.141904 0.459276 C 5.141904 0.364461 5.219405 0.287913 5.31499 0.287913 C 5.411437 0.287913 5.488938 0.364461 5.488938 0.459276 Z M 5.488938 0.459276 " transform="matrix(4.536206,0,0,4.490639,1.616671,11.445368)"/>
<path style="fill-rule:evenodd;fill:rgb(61.56863%,22.745098%,60.784316%);fill-opacity:1;stroke-width:0.221564;stroke-linecap:round;stroke-linejoin:round;stroke:rgb(90.196079%,0.784314%,70.588237%);stroke-opacity:1;stroke-miterlimit:4;" d="M 4.615755 0.461886 C 4.615755 0.556701 4.538254 0.633249 4.442669 0.633249 C 4.347084 0.633249 4.269582 0.556701 4.269582 0.461886 C 4.269582 0.367071 4.347084 0.289653 4.442669 0.289653 C 4.538254 0.289653 4.615755 0.367071 4.615755 0.461886 Z M 4.615755 0.461886 " transform="matrix(4.536206,0,0,4.490639,1.616671,11.445368)"/>
<path style="fill:none;stroke-width:0.443128;stroke-linecap:butt;stroke-linejoin:miter;stroke:rgb(90.196079%,0.784314%,70.588237%);stroke-opacity:1;stroke-miterlimit:4;" d="M 0.975771 1.251724 L 5.376992 1.251724 " transform="matrix(4.536206,0,0,4.490639,1.616671,11.445368)"/>
<path style="fill:none;stroke-width:0.443128;stroke-linecap:round;stroke-linejoin:miter;stroke:rgb(90.196079%,0.784314%,70.588237%);stroke-opacity:1;stroke-miterlimit:4;" d="M 1.693951 1.910211 L 4.708757 1.910211 " transform="matrix(4.536206,0,0,4.490639,1.616671,11.445368)"/>
<path style="fill:none;stroke-width:0.443128;stroke-linecap:round;stroke-linejoin:miter;stroke:rgb(90.196079%,0.784314%,70.588237%);stroke-opacity:1;stroke-miterlimit:4;" d="M 1.663812 2.575658 L 4.677756 2.575658 " transform="matrix(4.536206,0,0,4.490639,1.616671,11.445368)"/>
<path style="fill-rule:nonzero;fill:rgb(61.56863%,22.745098%,60.784316%);fill-opacity:1;stroke-width:0.110782;stroke-linecap:round;stroke-linejoin:round;stroke:rgb(61.56863%,22.745098%,60.784316%);stroke-opacity:1;stroke-miterlimit:4;" d="M 1.623339 3.359407 C 1.632811 3.463791 1.706007 3.540339 1.798147 3.540339 C 1.859287 3.540339 1.915261 3.507284 1.946261 3.453352 C 1.977262 3.507284 2.031513 3.540339 2.091792 3.540339 C 2.183071 3.540339 2.256267 3.463791 2.265739 3.359407 C 2.2666 3.354188 2.270045 3.329831 2.260573 3.289818 C 2.246795 3.232406 2.215794 3.180215 2.171015 3.139331 L 1.946261 2.932303 L 1.718063 3.139331 C 1.673284 3.180215 1.642283 3.232406 1.628505 3.289818 C 1.619894 3.329831 1.622477 3.354188 1.623339 3.359407 Z M 1.653478 3.295907 C 1.665534 3.243715 1.693951 3.195872 1.734424 3.157598 L 1.946261 2.966228 L 2.154654 3.157598 C 2.195988 3.195872 2.224405 3.243715 2.236461 3.295907 C 2.245072 3.333311 2.241628 3.355057 2.241628 3.355057 L 2.241628 3.355927 C 2.233017 3.448133 2.170154 3.515113 2.091792 3.515113 C 2.033235 3.515113 1.982429 3.478578 1.958317 3.420297 L 1.946261 3.393332 L 1.935067 3.420297 C 1.910955 3.477708 1.857565 3.515113 1.798147 3.515113 C 1.718924 3.515113 1.656061 3.448133 1.648311 3.355057 C 1.648311 3.355057 1.644006 3.333311 1.653478 3.295907 Z M 1.653478 3.295907 " transform="matrix(4.536206,0,0,4.490639,1.616671,11.445368)"/>
</g>
</svg>
