<?xml version="1.0" encoding="UTF-8"?>
<svg xmlns="http://www.w3.org/2000/svg" xmlns:xlink="http://www.w3.org/1999/xlink" width="32px" height="32px" viewBox="0 0 32 32" version="1.1">
<defs>
<clipPath id="clip1">
  <path d="M 3 11 L 29 11 L 29 26 L 3 26 Z M 3 11 "/>
</clipPath>
<clipPath id="clip2">
  <path d="M 6.410156 25.59375 L 6.410156 18.703125 L 25.441406 18.703125 L 25.441406 25.59375 L 31.414062 25.703125 L 31.414062 9.902344 L 0.4375 9.902344 L 0.4375 25.703125 Z M 6.410156 25.59375 "/>
</clipPath>
<clipPath id="clip3">
  <path d="M 0 9 L 32 9 L 32 26 L 0 26 Z M 0 9 "/>
</clipPath>
<clipPath id="clip4">
  <path d="M 6.410156 25.59375 L 6.410156 18.703125 L 25.441406 18.703125 L 25.441406 25.59375 L 31.414062 25.703125 L 31.414062 9.902344 L 0.4375 9.902344 L 0.4375 25.703125 Z M 6.410156 25.59375 "/>
</clipPath>
<clipPath id="clip5">
  <path d="M 6 18 L 26 18 L 26 30 L 6 30 Z M 6 18 "/>
</clipPath>
<clipPath id="clip6">
  <path d="M 5.914062 18.089844 L 25.972656 18.089844 L 25.972656 29.679688 L 5.914062 30.40625 Z M 5.914062 18.089844 "/>
</clipPath>
<clipPath id="clip7">
  <path d="M 5 18 L 26 18 L 26 31 L 5 31 Z M 5 18 "/>
</clipPath>
<clipPath id="clip8">
  <path d="M 5.914062 18.089844 L 25.972656 18.089844 L 25.972656 29.679688 L 5.914062 30.40625 Z M 5.914062 18.089844 "/>
</clipPath>
<clipPath id="clip9">
  <path d="M 6 3 L 26 3 L 26 11 L 6 11 Z M 6 3 "/>
</clipPath>
<clipPath id="clip10">
  <path d="M 5.46875 10.640625 L 26.359375 10.640625 L 26.359375 1.421875 C 26.359375 1.421875 6.773438 -0.421875 5.46875 1.421875 C 4.164062 3.265625 4.164062 3.265625 4.164062 3.265625 Z M 5.46875 10.640625 "/>
</clipPath>
<clipPath id="clip11">
  <path d="M 4 0 L 27 0 L 27 11 L 4 11 Z M 4 0 "/>
</clipPath>
<clipPath id="clip12">
  <path d="M 5.46875 10.640625 L 26.359375 10.640625 L 26.359375 1.421875 C 26.359375 1.421875 6.773438 -0.421875 5.46875 1.421875 C 4.164062 3.265625 4.164062 3.265625 4.164062 3.265625 Z M 5.46875 10.640625 "/>
</clipPath>
</defs>
<g id="surface1">
<path style="fill-rule:nonzero;fill:rgb(11.372549%,11.372549%,11.372549%);fill-opacity:1;stroke-width:0.444708;stroke-linecap:butt;stroke-linejoin:miter;stroke:rgb(90.196079%,0.784314%,70.588237%);stroke-opacity:1;stroke-miterlimit:4;" d="M 1.140951 -1.12874 L 5.194197 -1.12874 C 5.501721 -1.12874 5.750338 -0.895343 5.750338 -0.606209 C 5.750338 -0.317076 5.501721 -0.082808 5.194197 -0.082808 L 1.140951 -0.082808 C 0.833428 -0.082808 0.58481 -0.317076 0.58481 -0.606209 C 0.58481 -0.895343 0.833428 -1.12874 1.140951 -1.12874 Z M 1.140951 -1.12874 " transform="matrix(4.50931,0,0,-4.485385,1.628535,11.519199)"/>
<g clip-path="url(#clip1)" clip-rule="nonzero">
<g clip-path="url(#clip2)" clip-rule="nonzero">
<path style=" stroke:none;fill-rule:nonzero;fill:rgb(95.294118%,71.764708%,85.09804%);fill-opacity:1;" d="M 6.886719 11.160156 L 24.964844 11.160156 C 27.101562 11.160156 28.832031 13.132812 28.832031 15.566406 L 28.832031 20.632812 C 28.832031 23.066406 27.101562 25.035156 24.964844 25.035156 L 6.886719 25.035156 C 4.75 25.035156 3.019531 23.066406 3.019531 20.632812 L 3.019531 15.566406 C 3.019531 13.132812 4.75 11.160156 6.886719 11.160156 Z M 6.886719 11.160156 "/>
</g>
</g>
<g clip-path="url(#clip3)" clip-rule="nonzero">
<g clip-path="url(#clip4)" clip-rule="nonzero">
<path style="fill:none;stroke-width:0.485056;stroke-linecap:butt;stroke-linejoin:miter;stroke:rgb(90.196079%,0.784314%,70.588237%);stroke-opacity:1;stroke-miterlimit:4;" d="M 1.035528 -0.226838 L 5.360252 -0.226838 C 5.871407 -0.226838 6.285377 0.258194 6.285377 0.85656 L 6.285377 2.102275 C 6.285377 2.700641 5.871407 3.184713 5.360252 3.184713 L 1.035528 3.184713 C 0.524373 3.184713 0.110404 2.700641 0.110404 2.102275 L 0.110404 0.85656 C 0.110404 0.258194 0.524373 -0.226838 1.035528 -0.226838 Z M 1.035528 -0.226838 " transform="matrix(4.18018,0,0,4.067066,2.558025,12.08272)"/>
</g>
</g>
<g clip-path="url(#clip5)" clip-rule="nonzero">
<g clip-path="url(#clip6)" clip-rule="nonzero">
<path style=" stroke:none;fill-rule:nonzero;fill:rgb(94.117647%,89.019608%,92.54902%);fill-opacity:0.996078;" d="M 8.3125 16.039062 L 23.5625 16.039062 C 24.453125 16.039062 25.175781 16.8125 25.175781 17.773438 L 25.175781 27.285156 C 25.175781 28.242188 24.453125 29.019531 23.5625 29.019531 L 8.3125 29.019531 C 7.421875 29.019531 6.699219 28.242188 6.699219 27.285156 L 6.699219 17.773438 C 6.699219 16.8125 7.421875 16.039062 8.3125 16.039062 Z M 8.3125 16.039062 "/>
</g>
</g>
<g clip-path="url(#clip7)" clip-rule="nonzero">
<g clip-path="url(#clip8)" clip-rule="nonzero">
<path style="fill:none;stroke-width:0.450721;stroke-linecap:butt;stroke-linejoin:miter;stroke:rgb(90.196079%,0.784314%,70.588237%);stroke-opacity:1;stroke-miterlimit:4;" d="M 1.387854 1.05457 L 4.9536 1.05457 C 5.161845 1.05457 5.330816 1.222566 5.330816 1.43129 L 5.330816 3.497311 C 5.330816 3.705185 5.161845 3.874031 4.9536 3.874031 L 1.387854 3.874031 C 1.179609 3.874031 1.010638 3.705185 1.010638 3.497311 L 1.010638 1.43129 C 1.010638 1.222566 1.179609 1.05457 1.387854 1.05457 Z M 1.387854 1.05457 " transform="matrix(4.276805,0,0,4.603883,2.376918,11.183947)"/>
</g>
</g>
<g clip-path="url(#clip9)" clip-rule="nonzero">
<g clip-path="url(#clip10)" clip-rule="nonzero">
<path style=" stroke:none;fill-rule:nonzero;fill:rgb(94.117647%,89.019608%,92.54902%);fill-opacity:0.996078;" d="M 8.605469 3.265625 L 23.21875 3.265625 C 24.234375 3.265625 25.054688 4.042969 25.054688 5 L 25.054688 11.671875 C 25.054688 12.628906 24.234375 13.40625 23.21875 13.40625 L 8.605469 13.40625 C 7.59375 13.40625 6.773438 12.628906 6.773438 11.671875 L 6.773438 5 C 6.773438 4.042969 7.59375 3.265625 8.605469 3.265625 Z M 8.605469 3.265625 "/>
</g>
</g>
<g clip-path="url(#clip11)" clip-rule="nonzero">
<g clip-path="url(#clip12)" clip-rule="nonzero">
<path style="fill:none;stroke-width:0.404322;stroke-linecap:butt;stroke-linejoin:miter;stroke:rgb(90.196079%,0.784314%,70.588237%);stroke-opacity:1;stroke-miterlimit:4;" d="M 1.42194 -2.118797 L 4.921271 -2.118797 C 5.164475 -2.118797 5.360909 -1.986128 5.360909 -1.822791 L 5.360909 -0.684102 C 5.360909 -0.520765 5.164475 -0.388096 4.921271 -0.388096 L 1.42194 -0.388096 C 1.179671 -0.388096 0.983237 -0.520765 0.983237 -0.684102 L 0.983237 -1.822791 C 0.983237 -1.986128 1.179671 -2.118797 1.42194 -2.118797 Z M 1.42194 -2.118797 " transform="matrix(4.176021,0,0,5.85926,2.667417,15.680206)"/>
</g>
</g>
<path style="fill-rule:evenodd;fill:rgb(61.56863%,22.745098%,60.784316%);fill-opacity:1;stroke-width:0.222354;stroke-linecap:round;stroke-linejoin:round;stroke:rgb(90.196079%,0.784314%,70.588237%);stroke-opacity:1;stroke-miterlimit:4;" d="M 5.488727 0.45903 C 5.488727 0.553956 5.410763 0.631465 5.315474 0.631465 C 5.219319 0.631465 5.142221 0.553956 5.142221 0.45903 C 5.142221 0.364974 5.219319 0.287466 5.315474 0.287466 C 5.410763 0.287466 5.488727 0.364974 5.488727 0.45903 Z M 5.488727 0.45903 " transform="matrix(4.50931,0,0,4.485385,1.628535,11.519199)"/>
<path style="fill-rule:evenodd;fill:rgb(61.56863%,22.745098%,60.784316%);fill-opacity:1;stroke-width:0.222354;stroke-linecap:round;stroke-linejoin:round;stroke:rgb(90.196079%,0.784314%,70.588237%);stroke-opacity:1;stroke-miterlimit:4;" d="M 4.615533 0.461643 C 4.615533 0.556569 4.538436 0.633207 4.442281 0.633207 C 4.346992 0.633207 4.269028 0.556569 4.269028 0.461643 C 4.269028 0.366716 4.346992 0.290078 4.442281 0.290078 C 4.538436 0.290078 4.615533 0.366716 4.615533 0.461643 Z M 4.615533 0.461643 " transform="matrix(4.50931,0,0,4.485385,1.628535,11.519199)"/>
<path style="fill:none;stroke-width:0.444708;stroke-linecap:butt;stroke-linejoin:miter;stroke:rgb(90.196079%,0.784314%,70.588237%);stroke-opacity:1;stroke-miterlimit:4;" d="M 0.987622 1.442258 L 5.35359 1.442258 " transform="matrix(4.50931,0,0,4.485385,1.628535,11.519199)"/>
<path style="fill:none;stroke-width:0.444708;stroke-linecap:round;stroke-linejoin:miter;stroke:rgb(90.196079%,0.784314%,70.588237%);stroke-opacity:1;stroke-miterlimit:4;" d="M 1.670238 1.982206 L 4.684834 1.982206 " transform="matrix(4.50931,0,0,4.485385,1.628535,11.519199)"/>
<path style="fill:none;stroke-width:0.444708;stroke-linecap:round;stroke-linejoin:miter;stroke:rgb(90.196079%,0.784314%,70.588237%);stroke-opacity:1;stroke-miterlimit:4;" d="M 1.663308 2.52825 L 4.677904 2.52825 " transform="matrix(4.50931,0,0,4.485385,1.628535,11.519199)"/>
<path style="fill-rule:nonzero;fill:rgb(61.56863%,22.745098%,60.784316%);fill-opacity:1;stroke-width:0.111177;stroke-linecap:round;stroke-linejoin:round;stroke:rgb(61.56863%,22.745098%,60.784316%);stroke-opacity:1;stroke-miterlimit:4;" d="M 1.658977 3.287661 C 1.668505 3.392167 1.741272 3.468805 1.833095 3.468805 C 1.8946 3.468805 1.950041 3.434841 1.982093 3.381717 C 2.013278 3.435712 2.066987 3.468805 2.126759 3.468805 C 2.218583 3.468805 2.292215 3.392167 2.301744 3.287661 C 2.301744 3.282436 2.305209 3.258051 2.29568 3.218861 C 2.282686 3.161383 2.251501 3.10913 2.206455 3.067328 L 1.982093 2.860928 L 1.753399 3.067328 C 1.708354 3.10913 1.678034 3.161383 1.664174 3.218861 C 1.655512 3.258051 1.65811 3.282436 1.658977 3.287661 Z M 1.68843 3.224087 C 1.700557 3.171834 1.729144 3.123935 1.769858 3.086487 L 1.982093 2.894893 L 2.189996 3.086487 C 2.231577 3.123935 2.259297 3.171834 2.271425 3.224087 C 2.280954 3.261535 2.276622 3.283307 2.276622 3.283307 L 2.276622 3.285049 C 2.268826 3.376491 2.205589 3.44355 2.126759 3.44355 C 2.068719 3.44355 2.01761 3.406972 1.993354 3.348623 L 1.982093 3.321626 L 1.970831 3.348623 C 1.946576 3.406102 1.892868 3.44355 1.833095 3.44355 C 1.754266 3.44355 1.691895 3.376491 1.683232 3.283307 C 1.683232 3.283307 1.679767 3.261535 1.68843 3.224087 Z M 1.68843 3.224087 " transform="matrix(4.50931,0,0,4.485385,1.628535,11.519199)"/>
<path style="fill-rule:nonzero;fill:rgb(94.117647%,89.019608%,92.54902%);fill-opacity:1;stroke-width:0.429862;stroke-linecap:round;stroke-linejoin:round;stroke:rgb(61.56863%,22.745098%,60.784316%);stroke-opacity:1;stroke-miterlimit:4;" d="M 3.606591 3.84621 L 4.426439 1.385848 L 3.867834 1.385848 L 4.658281 -1.181086 L 5.988014 -1.181086 L 4.932964 0.793414 L 5.55625 0.793414 Z M 3.606591 3.84621 " transform="matrix(4.650254,0,0,4.655056,1.162028,11.169896)"/>
</g>
</svg>
