<?xml version="1.0" encoding="UTF-8"?>
<svg xmlns="http://www.w3.org/2000/svg" xmlns:xlink="http://www.w3.org/1999/xlink" width="32px" height="32px" viewBox="0 0 32 32" version="1.1">
<defs>
<clipPath id="clip1">
  <path d="M 3 10 L 21 10 L 21 22 L 3 22 Z M 3 10 "/>
</clipPath>
<clipPath id="clip2">
  <path d="M 3 4.882812 L 19.09375 4.882812 C 20.121094 4.882812 20.953125 5.761719 20.953125 6.847656 L 20.953125 25.152344 C 20.953125 26.238281 20.121094 27.117188 19.09375 27.117188 L 3 27.117188 C 1.972656 27.117188 1.144531 26.238281 1.144531 25.152344 L 1.144531 6.847656 C 1.144531 5.761719 1.972656 4.882812 3 4.882812 Z M 3 4.882812 "/>
</clipPath>
<clipPath id="clip3">
  <path d="M 1 4 L 21 4 L 21 28 L 1 28 Z M 1 4 "/>
</clipPath>
<clipPath id="clip4">
  <path d="M 3 4.882812 L 19.09375 4.882812 C 20.121094 4.882812 20.953125 5.761719 20.953125 6.847656 L 20.953125 25.152344 C 20.953125 26.238281 20.121094 27.117188 19.09375 27.117188 L 3 27.117188 C 1.972656 27.117188 1.144531 26.238281 1.144531 25.152344 L 1.144531 6.847656 C 1.144531 5.761719 1.972656 4.882812 3 4.882812 Z M 3 4.882812 "/>
</clipPath>
</defs>
<g id="surface1">
<path style="fill-rule:nonzero;fill:rgb(94.117647%,89.019608%,92.54902%);fill-opacity:1;stroke-width:0.415875;stroke-linecap:butt;stroke-linejoin:miter;stroke:rgb(90.196079%,0.784314%,70.588237%);stroke-opacity:1;stroke-miterlimit:4;" d="M 1.03798 -0.131927 L 5.312018 -0.131927 C 5.665962 -0.131927 5.953124 0.139161 5.953124 0.475058 L 5.953124 1.641608 C 5.953124 1.977505 5.665962 2.248594 5.312018 2.248594 L 1.03798 2.248594 C 0.684037 2.248594 0.396875 1.977505 0.396875 1.641608 L 0.396875 0.475058 C 0.396875 0.139161 0.684037 -0.131927 1.03798 -0.131927 Z M 1.03798 -0.131927 " transform="matrix(4.679415,0,0,4.942458,1.142859,10.769232)"/>
<path style="fill-rule:nonzero;fill:rgb(95.294118%,71.764708%,85.09804%);fill-opacity:1;stroke-width:0.415875;stroke-linecap:butt;stroke-linejoin:miter;stroke:rgb(90.196079%,0.784314%,70.588237%);stroke-opacity:1;stroke-miterlimit:4;" d="M 1.03798 -0.131927 L 5.312018 -0.131927 C 5.665962 -0.131927 5.953124 0.139161 5.953124 0.475058 L 5.953124 1.641608 C 5.953124 1.977505 5.665962 2.248594 5.312018 2.248594 L 1.03798 2.248594 C 0.684037 2.248594 0.396875 1.977505 0.396875 1.641608 L 0.396875 0.475058 C 0.396875 0.139161 0.684037 -0.131927 1.03798 -0.131927 Z M 1.03798 -0.131927 " transform="matrix(4.679415,0,0,4.942458,1.142859,10.769232)"/>
<g clip-path="url(#clip1)" clip-rule="nonzero">
<g clip-path="url(#clip2)" clip-rule="nonzero">
<path style=" stroke:none;fill-rule:nonzero;fill:rgb(61.56863%,22.745098%,60.784316%);fill-opacity:1;" d="M 6 10.117188 L 26 10.117188 C 27.65625 10.117188 29 11.457031 29 13.117188 L 29 18.882812 C 29 20.542969 27.65625 21.882812 26 21.882812 L 6 21.882812 C 4.34375 21.882812 3 20.542969 3 18.882812 L 3 13.117188 C 3 11.457031 4.34375 10.117188 6 10.117188 Z M 6 10.117188 "/>
</g>
</g>
<g clip-path="url(#clip3)" clip-rule="nonzero">
<g clip-path="url(#clip4)" clip-rule="nonzero">
<path style="fill:none;stroke-width:0.415875;stroke-linecap:butt;stroke-linejoin:miter;stroke:rgb(90.196079%,0.784314%,70.588237%);stroke-opacity:1;stroke-miterlimit:4;" d="M 1.03798 1.98474 L 5.312018 1.98474 C 5.665962 1.98474 5.953124 2.255828 5.953124 2.591725 L 5.953124 3.758275 C 5.953124 4.094172 5.665962 4.36526 5.312018 4.36526 L 1.03798 4.36526 C 0.684037 4.36526 0.396875 4.094172 0.396875 3.758275 L 0.396875 2.591725 C 0.396875 2.255828 0.684037 1.98474 1.03798 1.98474 Z M 1.03798 1.98474 " transform="matrix(4.679415,0,0,4.942458,1.142859,0.307695)"/>
</g>
</g>
</g>
</svg>
