<?xml version="1.0" encoding="UTF-8"?>
<svg xmlns="http://www.w3.org/2000/svg" xmlns:xlink="http://www.w3.org/1999/xlink" width="32px" height="32px" viewBox="0 0 32 32" version="1.1">
<g id="surface1">
<path style="fill-rule:evenodd;fill:rgb(94.117647%,89.019608%,92.54902%);fill-opacity:1;stroke-width:0.956911;stroke-linecap:round;stroke-linejoin:round;stroke:rgb(90.196079%,0.784314%,70.588237%);stroke-opacity:1;stroke-miterlimit:4;" d="M 2.500391 2.5 L 14.499985 2.5 L 14.499985 13.499118 L 2.500391 13.499118 Z M 2.500391 2.5 " transform="matrix(2.173576,0,0,2.009749,-2.520727,-0.0243736)"/>
<path style="fill:none;stroke-width:0.956911;stroke-linecap:round;stroke-linejoin:round;stroke:rgb(90.196079%,0.784314%,70.588237%);stroke-opacity:1;stroke-miterlimit:4;" d="M 2.500391 4.999535 L 14.499985 4.999535 L 14.499985 10.999583 L 2.500391 10.999583 Z M 2.500391 4.999535 " transform="matrix(2.173576,0,0,2.009749,-2.520727,-0.0243736)"/>
<path style="fill:none;stroke-width:0.956911;stroke-linecap:round;stroke-linejoin:round;stroke:rgb(90.196079%,0.784314%,70.588237%);stroke-opacity:1;stroke-miterlimit:4;" d="M 5.49984 2.5 L 11.500536 2.5 L 11.500536 13.499118 L 5.49984 13.499118 Z M 5.49984 2.5 " transform="matrix(2.173576,0,0,2.009749,-2.520727,-0.0243736)"/>
<path style="fill:none;stroke-width:0.956911;stroke-linecap:butt;stroke-linejoin:miter;stroke:rgb(90.196079%,0.784314%,70.588237%);stroke-opacity:1;stroke-miterlimit:4;" d="M 8.499289 2.5 C 8.499289 13.499118 8.499289 13.499118 8.499289 13.499118 " transform="matrix(2.173576,0,0,2.009749,-2.520727,-0.0243736)"/>
<path style="fill:none;stroke-width:0.956911;stroke-linecap:butt;stroke-linejoin:miter;stroke:rgb(90.196079%,0.784314%,70.588237%);stroke-opacity:1;stroke-miterlimit:4;" d="M 14.000377 8.000531 C 2.999999 8.000531 2.999999 8.000531 2.999999 8.000531 " transform="matrix(2.173576,0,0,2.009749,-2.520727,-0.0243736)"/>
<path style="fill-rule:nonzero;fill:rgb(95.294118%,71.764708%,85.09804%);fill-opacity:1;stroke-width:0.493855;stroke-linecap:round;stroke-linejoin:round;stroke:rgb(61.56863%,22.745098%,60.784316%);stroke-opacity:1;stroke-miterlimit:4;" d="M -2.588791 0.264106 C -3.25048 0.264106 -3.77713 0.544794 -3.780024 1.851774 L -3.118335 1.851774 C -3.118335 1.19105 -2.98619 0.925795 -2.588791 0.925795 C -2.192357 0.925795 -2.060212 1.19105 -2.060212 1.455339 L -1.398523 1.455339 C -1.398523 0.529361 -1.928067 0.264106 -2.588791 0.264106 Z M -2.588791 0.264106 " transform="matrix(4.04977,0,0,4.04977,32.96057,12.809336)"/>
<path style="fill-rule:nonzero;fill:rgb(95.294118%,71.764708%,85.09804%);fill-opacity:1;stroke-width:0.493855;stroke-linecap:round;stroke-linejoin:round;stroke:rgb(61.56863%,22.745098%,60.784316%);stroke-opacity:1;stroke-miterlimit:4;" d="M -3.623765 1.86142 L -1.553817 1.86142 C -1.249016 1.86142 -1.001124 2.109312 -1.001124 2.414113 L -1.001124 3.416292 C -1.001124 3.721093 -1.249016 3.968985 -1.553817 3.968985 L -3.623765 3.968985 C -3.929531 3.968985 -4.176459 3.721093 -4.176459 3.416292 L -4.176459 2.414113 C -4.176459 2.109312 -3.929531 1.86142 -3.623765 1.86142 Z M -3.623765 1.86142 " transform="matrix(4.04977,0,0,4.04977,32.96057,12.809336)"/>
<path style=" stroke:none;fill-rule:nonzero;fill:rgb(94.117647%,89.019608%,92.54902%);fill-opacity:1;" d="M 20.847656 21.75 C 20.5625 21.765625 20.265625 21.871094 19.984375 22.105469 C 19.472656 22.539062 19.175781 23.464844 19.269531 24.109375 C 19.429688 25.171875 20.5 26.15625 22.480469 27.644531 C 24.460938 26.15625 25.53125 25.171875 25.691406 24.109375 C 25.785156 23.464844 25.488281 22.539062 24.976562 22.105469 C 23.851562 21.160156 22.480469 22.335938 22.480469 22.972656 C 22.480469 22.492188 21.707031 21.714844 20.847656 21.75 Z M 20.847656 21.75 "/>
<path style=" stroke:none;fill-rule:nonzero;fill:rgb(90.196079%,0.784314%,70.588237%);fill-opacity:1;" d="M 21.222656 22.589844 C 21.003906 22.597656 20.777344 22.679688 20.5625 22.863281 C 20.167969 23.195312 19.941406 23.902344 20.015625 24.398438 C 20.136719 25.210938 20.957031 25.964844 22.476562 27.105469 C 23.996094 25.964844 24.816406 25.210938 24.9375 24.398438 C 25.011719 23.902344 24.78125 23.195312 24.390625 22.863281 C 23.527344 22.136719 22.476562 23.035156 22.476562 23.523438 C 22.476562 23.160156 21.882812 22.558594 21.222656 22.589844 Z M 21.222656 22.589844 "/>
</g>
</svg>
