<?xml version="1.0" encoding="UTF-8"?>
<svg xmlns="http://www.w3.org/2000/svg" xmlns:xlink="http://www.w3.org/1999/xlink" width="32px" height="32px" viewBox="0 0 32 32" version="1.1">
<g id="surface1">
<path style=" stroke:none;fill-rule:nonzero;fill:rgb(33.333334%,34.117648%,32.549021%);fill-opacity:1;" d="M 16 2 C 8.269531 2 2 8.269531 2 16 C 2 23.730469 8.269531 30 16 30 C 23.730469 30 30 23.730469 30 16 C 30 8.269531 23.730469 2 16 2 Z M 16 6 C 16.546875 6.003906 17.097656 6.050781 17.636719 6.144531 L 15.738281 7.820312 L 16.871094 8.804688 L 17.246094 8.203125 L 17.515625 8.96875 L 18.265625 8.257812 L 17.785156 7.984375 L 18.84375 7.4375 L 18.453125 9.097656 L 18.066406 9.542969 L 16.316406 10.351562 L 15.820312 11.089844 L 14.636719 11.4375 L 13.839844 12.40625 L 14.867188 12.925781 L 15.414062 11.898438 L 16.316406 12.0625 L 16.933594 11.488281 L 17.730469 12.0625 L 18.066406 13.035156 L 17.609375 13.378906 L 18.789062 13.089844 L 18.628906 12.585938 L 19.300781 12.925781 L 18.453125 11.832031 L 18.347656 11.148438 L 20.03125 11.21875 L 20.417969 13.324219 L 21.089844 13.324219 L 20.539062 14.695312 C 20.046875 14.667969 19.46875 14.5625 18.804688 14.378906 C 17.683594 14.054688 17.113281 13.898438 17.105469 13.898438 C 16.710938 13.84375 16.320312 13.785156 15.925781 13.71875 C 15.472656 13.644531 15.089844 13.507812 14.792969 13.296875 C 13.53125 13.835938 12.5625 14.203125 11.882812 14.402344 L 11.476562 16.488281 L 12.082031 17.921875 L 14.417969 18.480469 L 15.46875 19.992188 C 15.933594 21.78125 16.222656 23.550781 16.328125 25.3125 L 17.230469 25.914062 C 16.824219 25.96875 16.410156 25.996094 16 26 C 10.476562 26 6 21.523438 6 16 C 6 10.476562 10.476562 6 16 6 Z M 12.941406 6.984375 L 12.660156 7.960938 L 13.398438 7.847656 L 13.839844 7.507812 L 13.679688 6.984375 Z M 15.324219 8.011719 L 15.121094 8.535156 L 15.484375 9.207031 L 15.820312 9.324219 L 15.308594 9.957031 L 15.875 10.011719 L 16.476562 9.378906 Z M 14.636719 8.917969 L 14.355469 9.378906 L 14.53125 9.886719 L 14.917969 9.4375 Z M 16.597656 12.871094 L 17.105469 13.433594 L 17.164062 12.871094 Z M 20.886719 15.105469 L 21.867188 17.359375 L 23.589844 16.730469 L 22.921875 15.417969 C 24.050781 15.300781 24.640625 15.238281 24.695312 15.238281 C 24.699219 15.238281 25.652344 15.34375 25.980469 15.378906 C 25.992188 15.585938 26 15.792969 26 16 C 25.996094 20.765625 22.628906 24.863281 17.957031 25.796875 L 19.289062 24.628906 C 19.621094 23.367188 19.777344 21.972656 19.769531 20.425781 C 20.34375 19.707031 20.917969 19 21.492188 18.304688 C 21.441406 17.335938 21.136719 16.335938 20.582031 15.296875 Z M 20.886719 15.105469 "/>
</g>
</svg>
