<?xml version="1.0" encoding="UTF-8"?>
<svg xmlns="http://www.w3.org/2000/svg" xmlns:xlink="http://www.w3.org/1999/xlink" width="32px" height="32px" viewBox="0 0 32 32" version="1.1">
<defs>
<clipPath id="clip1">
  <path d="M 3 3 L 29 3 L 29 29 L 3 29 Z M 3 3 "/>
</clipPath>
<clipPath id="clip2">
  <path d="M 8.328125 1.804688 L 1.726562 8.386719 L 1.726562 30.324219 L 31.433594 30.324219 L 31.433594 1.804688 Z M 8.328125 1.804688 "/>
</clipPath>
<clipPath id="clip3">
  <path d="M 2 2 L 30 2 L 30 30 L 2 30 Z M 2 2 "/>
</clipPath>
<clipPath id="clip4">
  <path d="M 8.328125 1.804688 L 1.726562 8.386719 L 1.726562 30.324219 L 31.433594 30.324219 L 31.433594 1.804688 Z M 8.328125 1.804688 "/>
</clipPath>
<clipPath id="clip5">
  <path d="M 12 4 L 22 4 L 22 10 L 12 10 Z M 12 4 "/>
</clipPath>
<clipPath id="clip6">
  <path d="M 5.628906 4.125 L 26.726562 4.125 C 28.882812 4.125 30.636719 5.992188 30.636719 8.292969 L 30.636719 23.914062 C 30.636719 26.21875 28.882812 28.082031 26.726562 28.082031 L 5.628906 28.082031 C 3.46875 28.082031 1.714844 26.21875 1.714844 23.914062 L 1.714844 8.292969 C 1.714844 5.992188 3.46875 4.125 5.628906 4.125 Z M 5.628906 4.125 "/>
</clipPath>
<clipPath id="clip7">
  <path d="M 12 4 L 23 4 L 23 11 L 12 11 Z M 12 4 "/>
</clipPath>
<clipPath id="clip8">
  <path d="M 5.628906 4.125 L 26.726562 4.125 C 28.882812 4.125 30.636719 5.992188 30.636719 8.292969 L 30.636719 23.914062 C 30.636719 26.21875 28.882812 28.082031 26.726562 28.082031 L 5.628906 28.082031 C 3.46875 28.082031 1.714844 26.21875 1.714844 23.914062 L 1.714844 8.292969 C 1.714844 5.992188 3.46875 4.125 5.628906 4.125 Z M 5.628906 4.125 "/>
</clipPath>
<clipPath id="clip9">
  <path d="M 8 15 L 25 15 L 25 29 L 8 29 Z M 8 15 "/>
</clipPath>
<clipPath id="clip10">
  <path d="M 3.816406 3.277344 L 27.085938 3.277344 C 29.46875 3.277344 31.398438 5.203125 31.398438 7.585938 L 31.398438 23.738281 C 31.398438 26.117188 29.46875 28.046875 27.085938 28.046875 L 3.816406 28.046875 C 1.4375 28.046875 -0.496094 26.117188 -0.496094 23.738281 L -0.496094 7.585938 C -0.496094 5.203125 1.4375 3.277344 3.816406 3.277344 Z M 3.816406 3.277344 "/>
</clipPath>
<clipPath id="clip11">
  <path d="M 7 14 L 26 14 L 26 29 L 7 29 Z M 7 14 "/>
</clipPath>
<clipPath id="clip12">
  <path d="M 3.816406 3.277344 L 27.085938 3.277344 C 29.46875 3.277344 31.398438 5.203125 31.398438 7.585938 L 31.398438 23.738281 C 31.398438 26.117188 29.46875 28.046875 27.085938 28.046875 L 3.816406 28.046875 C 1.4375 28.046875 -0.496094 26.117188 -0.496094 23.738281 L -0.496094 7.585938 C -0.496094 5.203125 1.4375 3.277344 3.816406 3.277344 Z M 3.816406 3.277344 "/>
</clipPath>
</defs>
<g id="surface1">
<g clip-path="url(#clip1)" clip-rule="nonzero">
<g clip-path="url(#clip2)" clip-rule="nonzero">
<path style=" stroke:none;fill-rule:evenodd;fill:rgb(95.294118%,71.764708%,85.09804%);fill-opacity:1;" d="M 6.90625 3.164062 L 25.210938 3.164062 C 27.289062 3.164062 28.972656 4.847656 28.972656 6.925781 L 28.972656 25.226562 C 28.972656 27.304688 27.289062 28.988281 25.210938 28.988281 L 6.90625 28.988281 C 4.828125 28.988281 3.144531 27.304688 3.144531 25.226562 L 3.144531 6.925781 C 3.144531 4.847656 4.828125 3.164062 6.90625 3.164062 Z M 6.90625 3.164062 "/>
</g>
</g>
<g clip-path="url(#clip3)" clip-rule="nonzero">
<g clip-path="url(#clip4)" clip-rule="nonzero">
<path style="fill:none;stroke-width:0.910248;stroke-linecap:round;stroke-linejoin:round;stroke:rgb(90.196079%,0.784314%,70.588237%);stroke-opacity:1;stroke-miterlimit:4;" d="M 3.853126 2.119855 L 12.171364 2.119855 C 13.115731 2.119855 13.88081 2.887266 13.88081 3.834511 L 13.88081 12.176323 C 13.88081 13.123568 13.115731 13.890979 12.171364 13.890979 L 3.853126 13.890979 C 2.908759 13.890979 2.14368 13.123568 2.14368 12.176323 L 2.14368 3.834511 C 2.14368 2.887266 2.908759 2.119855 3.853126 2.119855 Z M 3.853126 2.119855 " transform="matrix(2.200549,0,0,2.193862,-1.572741,-1.486606)"/>
</g>
</g>
<path style="fill:none;stroke-width:0.590495;stroke-linecap:butt;stroke-linejoin:bevel;stroke:rgb(90.196079%,0.784314%,70.588237%);stroke-opacity:1;stroke-miterlimit:4;" d="M 1.693656 16.422937 L 3.597401 14.536005 " transform="matrix(3.414323,0,0,3.359869,-2.728,-45.768761)"/>
<g clip-path="url(#clip5)" clip-rule="nonzero">
<g clip-path="url(#clip6)" clip-rule="nonzero">
<path style=" stroke:none;fill-rule:evenodd;fill:rgb(94.117647%,89.019608%,92.54902%);fill-opacity:1;" d="M 14.292969 1.472656 L 20.28125 1.472656 C 21.003906 1.472656 21.59375 2.242188 21.59375 3.191406 L 21.59375 7.351562 C 21.59375 8.300781 21.003906 9.070312 20.28125 9.070312 L 14.292969 9.070312 C 13.570312 9.070312 12.984375 8.300781 12.984375 7.351562 L 12.984375 3.191406 C 12.984375 2.242188 13.570312 1.472656 14.292969 1.472656 Z M 14.292969 1.472656 "/>
</g>
</g>
<g clip-path="url(#clip7)" clip-rule="nonzero">
<g clip-path="url(#clip8)" clip-rule="nonzero">
<path style="fill:none;stroke-width:0.931591;stroke-linecap:butt;stroke-linejoin:bevel;stroke:rgb(90.196079%,0.784314%,70.588237%);stroke-opacity:1;stroke-miterlimit:4;" d="M 6.938772 9.361847 L 9.818052 9.361847 C 10.165519 9.361847 10.449127 9.709091 10.449127 10.137418 L 10.449127 12.014654 C 10.449127 12.44298 10.165519 12.790225 9.818052 12.790225 L 6.938772 12.790225 C 6.591306 12.790225 6.309576 12.44298 6.309576 12.014654 L 6.309576 10.137418 C 6.309576 9.709091 6.591306 9.361847 6.938772 9.361847 Z M 6.938772 9.361847 " transform="matrix(2.079784,0,0,2.216108,-0.138182,-19.274205)"/>
</g>
</g>
<g clip-path="url(#clip9)" clip-rule="nonzero">
<g clip-path="url(#clip10)" clip-rule="nonzero">
<path style=" stroke:none;fill-rule:evenodd;fill:rgb(94.117647%,89.019608%,92.54902%);fill-opacity:1;" d="M 9.417969 15.164062 L 22.785156 15.164062 C 23.507812 15.164062 24.09375 15.933594 24.09375 16.882812 L 24.09375 29.53125 C 24.09375 30.480469 23.507812 31.25 22.785156 31.25 L 9.417969 31.25 C 8.695312 31.25 8.105469 30.480469 8.105469 29.53125 L 8.105469 16.882812 C 8.105469 15.933594 8.695312 15.164062 9.417969 15.164062 Z M 9.417969 15.164062 "/>
</g>
</g>
<g clip-path="url(#clip11)" clip-rule="nonzero">
<g clip-path="url(#clip12)" clip-rule="nonzero">
<path style="fill:none;stroke-width:0.872399;stroke-linecap:butt;stroke-linejoin:bevel;stroke:rgb(90.196079%,0.784314%,70.588237%);stroke-opacity:1;stroke-miterlimit:4;" d="M 5.213399 15.747326 L 11.041022 15.747326 C 11.356074 15.747326 11.611522 16.083176 11.611522 16.497448 L 11.611522 22.017661 C 11.611522 22.431933 11.356074 22.767783 11.041022 22.767783 L 5.213399 22.767783 C 4.898347 22.767783 4.641196 22.431933 4.641196 22.017661 L 4.641196 16.497448 C 4.641196 16.083176 4.898347 15.747326 5.213399 15.747326 Z M 5.213399 15.747326 " transform="matrix(2.293763,0,0,2.291295,-2.540336,-20.917707)"/>
</g>
</g>
<path style="fill-rule:nonzero;fill:rgb(61.56863%,22.745098%,60.784316%);fill-opacity:1;stroke-width:0.147624;stroke-linecap:round;stroke-linejoin:round;stroke:rgb(61.56863%,22.745098%,60.784316%);stroke-opacity:1;stroke-miterlimit:4;" d="M 3.859394 19.120215 C 3.875411 18.956285 3.996684 18.837698 4.14999 18.837698 C 4.251813 18.837698 4.344483 18.890016 4.397111 18.973725 C 4.449738 18.888853 4.538976 18.837698 4.638511 18.837698 C 4.791817 18.837698 4.914234 18.956285 4.929107 19.120215 C 4.930251 19.128353 4.935971 19.165557 4.919954 19.228338 C 4.898217 19.31786 4.846733 19.399244 4.771224 19.46435 L 4.397111 19.786396 L 4.017277 19.46435 C 3.941768 19.399244 3.890284 19.31786 3.868547 19.228338 C 3.85253 19.165557 3.85825 19.128353 3.859394 19.120215 Z M 3.90859 19.219037 C 3.929183 19.301583 3.97609 19.375991 4.044735 19.435285 L 4.397111 19.734078 L 4.743766 19.435285 C 4.812411 19.375991 4.859318 19.301583 4.879911 19.219037 C 4.894784 19.160906 4.889064 19.12719 4.889064 19.12719 L 4.88792 19.124865 C 4.875335 18.981863 4.77008 18.877227 4.638511 18.877227 C 4.542409 18.877227 4.456603 18.934196 4.41656 19.02488 L 4.397111 19.067897 L 4.378805 19.02488 C 4.338763 18.935358 4.249525 18.877227 4.14999 18.877227 C 4.018421 18.877227 3.91431 18.981863 3.900581 19.12719 C 3.900581 19.12719 3.893717 19.160906 3.90859 19.219037 Z M 3.90859 19.219037 " transform="matrix(3.414323,0,0,3.359869,-2.728,-45.768761)"/>
<path style="fill:none;stroke-width:0.590495;stroke-linecap:round;stroke-linejoin:miter;stroke:rgb(90.196079%,0.784314%,70.588237%);stroke-opacity:1;stroke-miterlimit:4;" d="M 3.906301 20.177036 L 7.13832 20.177036 " transform="matrix(3.414323,0,0,3.359869,-2.728,-45.768761)"/>
<path style="fill:none;stroke-width:0.590495;stroke-linecap:round;stroke-linejoin:miter;stroke:rgb(90.196079%,0.784314%,70.588237%);stroke-opacity:1;stroke-miterlimit:4;" d="M 3.893717 21.360583 L 7.125735 21.360583 " transform="matrix(3.414323,0,0,3.359869,-2.728,-45.768761)"/>
<path style="fill-rule:evenodd;fill:rgb(95.294118%,71.764708%,85.09804%);fill-opacity:1;stroke-width:0.295248;stroke-linecap:round;stroke-linejoin:bevel;stroke:rgb(90.196079%,0.784314%,70.588237%);stroke-opacity:1;stroke-miterlimit:4;" d="M 5.373009 15.112665 L 5.382161 15.112665 C 5.448518 15.112665 5.50229 15.176609 5.50229 15.254504 L 5.50229 15.619567 C 5.50229 15.697462 5.448518 15.761406 5.382161 15.761406 L 5.373009 15.761406 C 5.307796 15.761406 5.254025 15.697462 5.254025 15.619567 L 5.254025 15.254504 C 5.254025 15.176609 5.307796 15.112665 5.373009 15.112665 Z M 5.373009 15.112665 " transform="matrix(3.414323,0,0,3.359869,-2.728,-45.768761)"/>
<path style="fill-rule:evenodd;fill:rgb(95.294118%,71.764708%,85.09804%);fill-opacity:1;stroke-width:1;stroke-linecap:butt;stroke-linejoin:round;stroke:rgb(61.56863%,22.745098%,60.784316%);stroke-opacity:1;stroke-miterlimit:4;" d="M 1.511719 1.455078 L 8 6 L 1.570312 10.392578 L 1.511719 7.515625 Z M 1.511719 1.455078 " transform="matrix(2,0,0,2,0,0)"/>
</g>
</svg>
