<?xml version="1.0" encoding="UTF-8"?>
<svg xmlns="http://www.w3.org/2000/svg" xmlns:xlink="http://www.w3.org/1999/xlink" width="32px" height="32px" viewBox="0 0 32 32" version="1.1">
<g id="surface1">
<path style="fill-rule:evenodd;fill:rgb(94.117647%,89.019608%,92.54902%);fill-opacity:1;stroke-width:1;stroke-linecap:round;stroke-linejoin:round;stroke:rgb(90.196079%,0.784314%,70.588237%);stroke-opacity:1;stroke-miterlimit:4;" d="M 3.5 1.533203 L 12.494141 1.533203 C 13.044922 1.533203 13.494141 1.980469 13.494141 2.533203 L 13.494141 13.5 C 13.494141 14.052734 13.044922 14.5 12.494141 14.5 L 3.5 14.5 C 2.947266 14.5 2.5 14.052734 2.5 13.5 L 2.5 2.533203 C 2.5 1.980469 2.947266 1.533203 3.5 1.533203 Z M 3.5 1.533203 " transform="matrix(2,0,0,2,0,0)"/>
<path style=" stroke:none;fill-rule:nonzero;fill:rgb(100%,0%,0%);fill-opacity:1;" d="M 8 18 L 16 18 L 16 24 L 8 24 Z M 8 18 "/>
<path style=" stroke:none;fill-rule:nonzero;fill:rgb(100%,0%,0%);fill-opacity:1;" d="M 12 12 L 22 12 L 22 16 L 12 16 Z M 12 12 "/>
<path style=" stroke:none;fill-rule:nonzero;fill:rgb(100%,0%,0%);fill-opacity:1;" d="M 8 6 L 18 6 L 18 10 L 8 10 Z M 8 6 "/>
<path style="fill-rule:nonzero;fill:rgb(95.294118%,71.764708%,85.09804%);fill-opacity:1;stroke-width:0.388796;stroke-linecap:butt;stroke-linejoin:miter;stroke:rgb(61.56863%,22.745098%,60.784316%);stroke-opacity:1;stroke-miterlimit:4;" d="M 13.899206 1.911953 L 12.699065 3.511164 L 14.299253 4.710573 L 15.499394 3.111361 L 14.999973 2.113111 Z M 13.899206 1.911953 " transform="matrix(1.533023,0,0,1.5535,1.532048,0.455563)"/>
<path style="fill-rule:nonzero;fill:rgb(95.294118%,71.764708%,85.09804%);fill-opacity:1;stroke-width:0.259197;stroke-linecap:butt;stroke-linejoin:miter;stroke:rgb(61.56863%,22.745098%,60.784316%);stroke-opacity:1;stroke-miterlimit:4;" d="M 7.794028 11.70838 L 8.194075 9.508207 L 8.894795 9.407628 L 8.787776 9.950756 L 9.302486 9.714395 L 9.185275 10.252494 L 9.702533 10.016133 L 9.794264 10.707615 L 7.794028 11.70838 " transform="matrix(1.533023,0,0,1.5535,1.532048,0.455563)"/>
<path style="fill-rule:nonzero;fill:rgb(61.56863%,22.745098%,60.784316%);fill-opacity:1;stroke-width:0.129599;stroke-linecap:butt;stroke-linejoin:miter;stroke:rgb(61.56863%,22.745098%,60.784316%);stroke-opacity:1;stroke-miterlimit:4;" d="M 8.132922 10.591949 L 8.675661 11.042042 L 7.794028 11.713409 Z M 8.132922 10.591949 " transform="matrix(1.533023,0,0,1.5535,1.532048,0.455563)"/>
<path style="fill-rule:nonzero;fill:rgb(90.196079%,0.784314%,70.588237%);fill-opacity:1;stroke-width:0.129599;stroke-linecap:butt;stroke-linejoin:miter;stroke:rgb(61.56863%,22.745098%,60.784316%);stroke-opacity:1;stroke-miterlimit:4;" d="M 12.699065 3.511164 L 14.299253 4.710573 L 9.794264 10.707615 L 9.702533 10.016133 L 9.185275 10.252494 L 9.228592 9.797372 L 8.787776 9.950756 L 8.838737 9.483062 L 8.194075 9.508207 Z M 12.699065 3.511164 " transform="matrix(1.533023,0,0,1.5535,1.532048,0.455563)"/>
<path style="fill:none;stroke-width:0.90719;stroke-linecap:butt;stroke-linejoin:round;stroke:rgb(61.56863%,22.745098%,60.784316%);stroke-opacity:1;stroke-miterlimit:4;" d="M 13.601082 2.311756 L 8.194075 9.508207 L 7.493356 12.108183 L 9.794264 10.707615 L 15.198722 3.511164 C 15.998816 2.480226 14.434301 1.235557 13.601082 2.311756 Z M 13.601082 2.311756 " transform="matrix(1.533023,0,0,1.5535,1.532048,0.455563)"/>
</g>
</svg>
