<?xml version="1.0" encoding="UTF-8"?>
<svg xmlns="http://www.w3.org/2000/svg" xmlns:xlink="http://www.w3.org/1999/xlink" width="32px" height="32px" viewBox="0 0 32 32" version="1.1">
<g id="surface1">
<path style="fill:none;stroke-width:1;stroke-linecap:round;stroke-linejoin:miter;stroke:rgb(90.196079%,0.784314%,70.588237%);stroke-opacity:1;stroke-miterlimit:4;" d="M 6.627889 12.628034 L 6.627889 17.628034 " transform="matrix(2,0,0,2,-6.345623,-22.334192)"/>
<path style="fill:none;stroke-width:1;stroke-linecap:round;stroke-linejoin:miter;stroke:rgb(90.196079%,0.784314%,70.588237%);stroke-opacity:1;stroke-miterlimit:4;" d="M 6.627889 21.628034 L 6.627889 25.628034 " transform="matrix(2,0,0,2,-6.345623,-22.334192)"/>
<path style="fill-rule:evenodd;fill:rgb(61.56863%,22.745098%,60.784316%);fill-opacity:1;stroke-width:1;stroke-linecap:round;stroke-linejoin:round;stroke:rgb(90.196079%,0.784314%,70.588237%);stroke-opacity:1;stroke-miterlimit:4;" d="M 7.659139 20.460065 C 7.659139 21.012799 7.211874 21.460065 6.659139 21.460065 C 6.106405 21.460065 5.659139 21.012799 5.659139 20.460065 C 5.659139 19.907331 6.106405 19.460065 6.659139 19.460065 C 7.211874 19.460065 7.659139 19.907331 7.659139 20.460065 Z M 7.659139 20.460065 " transform="matrix(2,0,0,2,-6.345623,-22.334192)"/>
<path style="fill:none;stroke-width:1;stroke-linecap:round;stroke-linejoin:miter;stroke:rgb(90.196079%,0.784314%,70.588237%);stroke-opacity:1;stroke-miterlimit:4;" d="M 9.627889 25.706159 L 9.627889 19.128034 " transform="matrix(2,0,0,2,-6.345623,-22.334192)"/>
<path style="fill:none;stroke-width:1;stroke-linecap:round;stroke-linejoin:miter;stroke:rgb(90.196079%,0.784314%,70.588237%);stroke-opacity:1;stroke-miterlimit:4;" d="M 9.627889 14.628034 L 9.627889 12.628034 " transform="matrix(2,0,0,2,-6.345623,-22.334192)"/>
<path style="fill-rule:evenodd;fill:rgb(61.56863%,22.745098%,60.784316%);fill-opacity:1;stroke-width:1;stroke-linecap:round;stroke-linejoin:round;stroke:rgb(90.196079%,0.784314%,70.588237%);stroke-opacity:1;stroke-miterlimit:4;" d="M 10.610311 -17.719831 C 10.610311 -17.169049 10.163046 -16.719831 9.610311 -16.719831 C 9.05953 -16.719831 8.610311 -17.169049 8.610311 -17.719831 C 8.610311 -18.272565 9.05953 -18.719831 9.610311 -18.719831 C 10.163046 -18.719831 10.610311 -18.272565 10.610311 -17.719831 Z M 10.610311 -17.719831 " transform="matrix(2,0,0,-2,-6.345623,-22.334192)"/>
<path style="fill:none;stroke-width:1;stroke-linecap:round;stroke-linejoin:miter;stroke:rgb(90.196079%,0.784314%,70.588237%);stroke-opacity:1;stroke-miterlimit:4;" d="M 12.627889 12.628034 L 12.627889 18.628034 " transform="matrix(2,0,0,2,-6.345623,-22.334192)"/>
<path style="fill:none;stroke-width:1;stroke-linecap:round;stroke-linejoin:miter;stroke:rgb(90.196079%,0.784314%,70.588237%);stroke-opacity:1;stroke-miterlimit:4;" d="M 12.627889 23.128034 L 12.627889 25.628034 " transform="matrix(2,0,0,2,-6.345623,-22.334192)"/>
<path style="fill-rule:evenodd;fill:rgb(61.56863%,22.745098%,60.784316%);fill-opacity:1;stroke-width:1;stroke-linecap:round;stroke-linejoin:round;stroke:rgb(90.196079%,0.784314%,70.588237%);stroke-opacity:1;stroke-miterlimit:4;" d="M 13.686483 21.610456 C 13.686483 22.16319 13.239218 22.610456 12.686483 22.610456 C 12.133749 22.610456 11.686483 22.16319 11.686483 21.610456 C 11.686483 21.057721 12.133749 20.610456 12.686483 20.610456 C 13.239218 20.610456 13.686483 21.057721 13.686483 21.610456 Z M 13.686483 21.610456 " transform="matrix(2,0,0,2,-6.345623,-22.334192)"/>
<path style="fill:none;stroke-width:1;stroke-linecap:round;stroke-linejoin:miter;stroke:rgb(90.196079%,0.784314%,70.588237%);stroke-opacity:1;stroke-miterlimit:4;" d="M 15.627889 12.628034 L 15.627889 14.628034 " transform="matrix(2,0,0,2,-6.345623,-22.334192)"/>
<path style="fill:none;stroke-width:1;stroke-linecap:round;stroke-linejoin:miter;stroke:rgb(90.196079%,0.784314%,70.588237%);stroke-opacity:1;stroke-miterlimit:4;" d="M 15.627889 19.128034 L 15.627889 25.628034 " transform="matrix(2,0,0,2,-6.345623,-22.334192)"/>
<path style="fill-rule:evenodd;fill:rgb(61.56863%,22.745098%,60.784316%);fill-opacity:1;stroke-width:1;stroke-linecap:round;stroke-linejoin:round;stroke:rgb(90.196079%,0.784314%,70.588237%);stroke-opacity:1;stroke-miterlimit:4;" d="M 16.686483 16.145612 C 16.686483 16.698346 16.239218 17.145612 15.686483 17.145612 C 15.133749 17.145612 14.686483 16.698346 14.686483 16.145612 C 14.686483 15.592877 15.133749 15.145612 15.686483 15.145612 C 16.239218 15.145612 16.686483 15.592877 16.686483 16.145612 Z M 16.686483 16.145612 " transform="matrix(2,0,0,2,-6.345623,-22.334192)"/>
<path style="fill-rule:evenodd;fill:rgb(94.117647%,89.019608%,92.54902%);fill-opacity:1;stroke-width:0.5;stroke-linecap:round;stroke-linejoin:round;stroke:rgb(61.56863%,22.745098%,60.784316%);stroke-opacity:1;stroke-miterlimit:4;" d="M 14.714844 10.974609 C 14.714844 13.044922 13.035156 14.724609 10.964844 14.724609 C 8.892578 14.724609 7.214844 13.044922 7.214844 10.974609 C 7.214844 8.902344 8.892578 7.224609 10.964844 7.224609 C 13.035156 7.224609 14.714844 8.902344 14.714844 10.974609 Z M 14.714844 10.974609 " transform="matrix(2,0,0,2,0,0)"/>
<path style="fill:none;stroke-width:0.941832;stroke-linecap:round;stroke-linejoin:round;stroke:rgb(90.196079%,0.784314%,70.588237%);stroke-opacity:1;stroke-miterlimit:4;" d="M -19.71258 0.571542 C -20.514612 -0.674986 -20.383201 -2.336379 -19.39609 -3.428832 C -18.412573 -4.520557 -16.832658 -4.75357 -15.600117 -3.985894 " transform="matrix(1.044351,0.209809,-0.211294,1.037012,39.28183,26.703341)"/>
<path style="fill:none;stroke-width:0.941832;stroke-linecap:round;stroke-linejoin:round;stroke:rgb(90.196079%,0.784314%,70.588237%);stroke-opacity:1;stroke-miterlimit:4;" d="M 2.780758 17.623124 C 1.979001 16.37634 2.107697 14.714215 3.096257 13.622555 C 4.081133 12.531143 5.656756 12.300205 6.892389 13.065851 " transform="matrix(-0.0715264,-1.055637,-1.063108,0.0710237,39.28183,26.703341)"/>
<path style="fill:none;stroke-width:0.941832;stroke-linecap:round;stroke-linejoin:round;stroke:rgb(90.196079%,0.784314%,70.588237%);stroke-opacity:1;stroke-miterlimit:4;" d="M -14.701531 -4.858911 L -13.462395 -6.169581 L -11.574363 -5.338875 " transform="matrix(1.065511,0,0,1.058023,39.28183,26.703341)"/>
<path style="fill:none;stroke-width:0.941832;stroke-linecap:round;stroke-linejoin:round;stroke:rgb(90.196079%,0.784314%,70.588237%);stroke-opacity:1;stroke-miterlimit:4;" d="M -18.231967 -4.294031 L -18.939521 -2.636311 L -20.999858 -2.76184 " transform="matrix(1.065511,0,0,1.058023,39.28183,26.703341)"/>
</g>
</svg>
