<?xml version="1.0" encoding="UTF-8"?>
<svg xmlns="http://www.w3.org/2000/svg" xmlns:xlink="http://www.w3.org/1999/xlink" width="32px" height="32px" viewBox="0 0 32 32" version="1.1">
<g id="surface1">
<path style="fill-rule:evenodd;fill:rgb(94.117647%,89.019608%,92.54902%);fill-opacity:1;stroke-width:1;stroke-linecap:round;stroke-linejoin:round;stroke:rgb(90.196079%,0.784314%,70.588237%);stroke-opacity:1;stroke-miterlimit:4;" d="M -7.493573 14.547298 L 1.500567 14.547298 C 2.051349 14.547298 2.500567 14.994564 2.500567 15.547298 L 2.500567 26.514095 C 2.500567 27.06683 2.051349 27.514095 1.500567 27.514095 L -7.493573 27.514095 C -8.046308 27.514095 -8.493573 27.06683 -8.493573 26.514095 L -8.493573 15.547298 C -8.493573 14.994564 -8.046308 14.547298 -7.493573 14.547298 Z M -7.493573 14.547298 " transform="matrix(2,0,0,2,21.987146,-26.028191)"/>
<path style="fill-rule:nonzero;fill:rgb(61.56863%,22.745098%,60.784316%);fill-opacity:1;stroke-width:0.25;stroke-linecap:butt;stroke-linejoin:miter;stroke:rgb(61.56863%,22.745098%,60.784316%);stroke-opacity:1;stroke-miterlimit:4;" d="M -1.727948 16.643002 C -1.692792 16.24847 -1.411542 15.961361 -1.061933 15.961361 C -0.827558 15.961361 -0.614667 16.086361 -0.493573 16.287533 C -0.374433 16.084408 -0.169354 15.961361 0.0611143 15.961361 C 0.410724 15.961361 0.691974 16.24847 0.72713 16.643002 C 0.729083 16.66058 0.740802 16.752377 0.705646 16.900814 C 0.654864 17.117611 0.537677 17.312923 0.365802 17.469173 L -0.493573 18.244564 L -1.36662 17.469173 C -1.538495 17.312923 -1.655683 17.117611 -1.706464 16.900814 C -1.743573 16.752377 -1.731854 16.66058 -1.727948 16.643002 Z M -1.614667 16.87933 C -1.567792 17.076595 -1.46037 17.256283 -1.302167 17.398861 L -0.493573 18.117611 L 0.301349 17.398861 C 0.459552 17.256283 0.566974 17.076595 0.613849 16.87933 C 0.647052 16.738705 0.63338 16.658627 0.63338 16.656673 L 0.63338 16.652767 C 0.60213 16.307064 0.361896 16.057064 0.0611143 16.057064 C -0.161542 16.057064 -0.356854 16.19183 -0.450604 16.41058 L -0.493573 16.514095 L -0.536542 16.41058 C -0.628339 16.195736 -0.833417 16.057064 -1.061933 16.057064 C -1.362714 16.057064 -1.602948 16.307064 -1.634198 16.656673 C -1.634198 16.658627 -1.64787 16.738705 -1.614667 16.87933 Z M -1.614667 16.87933 " transform="matrix(2,0,0,2,21.987146,-26.028191)"/>
<path style="fill:none;stroke-width:1;stroke-linecap:round;stroke-linejoin:miter;stroke:rgb(90.196079%,0.784314%,70.588237%);stroke-opacity:1;stroke-miterlimit:4;" d="M -6.499433 19.500423 L 0.824786 19.500423 " transform="matrix(2,0,0,2,21.987146,-26.028191)"/>
<path style="fill:none;stroke-width:1;stroke-linecap:round;stroke-linejoin:miter;stroke:rgb(90.196079%,0.784314%,70.588237%);stroke-opacity:1;stroke-miterlimit:4;" d="M -6.499433 21.500423 L 0.824786 21.500423 " transform="matrix(2,0,0,2,21.987146,-26.028191)"/>
<path style="fill:none;stroke-width:1;stroke-linecap:round;stroke-linejoin:miter;stroke:rgb(90.196079%,0.784314%,70.588237%);stroke-opacity:1;stroke-miterlimit:4;" d="M -6.499433 23.500423 L 0.824786 23.500423 " transform="matrix(2,0,0,2,21.987146,-26.028191)"/>
<path style="fill-rule:nonzero;fill:rgb(94.117647%,89.019608%,92.54902%);fill-opacity:1;stroke-width:1.5;stroke-linecap:round;stroke-linejoin:miter;stroke:rgb(94.117647%,89.019608%,92.54902%);stroke-opacity:1;stroke-miterlimit:4;" d="M -0.999056 1.00012 L -4.999056 5.00012 " transform="matrix(2,0,0,2,13.52155,1.558354)"/>
<path style="fill:none;stroke-width:1.5;stroke-linecap:round;stroke-linejoin:miter;stroke:rgb(94.117647%,89.019608%,92.54902%);stroke-opacity:1;stroke-miterlimit:4;" d="M -4.999056 1.00012 L -0.999056 5.00012 " transform="matrix(2,0,0,2,13.52155,1.558354)"/>
<path style="fill-rule:nonzero;fill:rgb(61.56863%,22.745098%,60.784316%);fill-opacity:1;stroke-width:1;stroke-linecap:round;stroke-linejoin:miter;stroke:rgb(61.56863%,22.745098%,60.784316%);stroke-opacity:1;stroke-miterlimit:4;" d="M -4.999056 1.00012 L -0.999056 5.00012 " transform="matrix(2,0,0,2,13.52155,1.558354)"/>
<path style="fill:none;stroke-width:1;stroke-linecap:round;stroke-linejoin:miter;stroke:rgb(61.56863%,22.745098%,60.784316%);stroke-opacity:1;stroke-miterlimit:4;" d="M -0.999056 1.00012 L -4.999056 5.00012 " transform="matrix(2,0,0,2,13.52155,1.558354)"/>
<path style="fill-rule:nonzero;fill:rgb(94.117647%,89.019608%,92.54902%);fill-opacity:1;stroke-width:1.5;stroke-linecap:round;stroke-linejoin:miter;stroke:rgb(94.117647%,89.019608%,92.54902%);stroke-opacity:1;stroke-miterlimit:4;" d="M -1.000185 1.000944 L -5.000185 5.000944 " transform="matrix(2,0,0,2,13.484746,13.52155)"/>
<path style="fill:none;stroke-width:1.5;stroke-linecap:round;stroke-linejoin:miter;stroke:rgb(94.117647%,89.019608%,92.54902%);stroke-opacity:1;stroke-miterlimit:4;" d="M -5.000185 1.000944 L -1.000185 5.000944 " transform="matrix(2,0,0,2,13.484746,13.52155)"/>
<path style="fill-rule:nonzero;fill:rgb(61.56863%,22.745098%,60.784316%);fill-opacity:1;stroke-width:1;stroke-linecap:round;stroke-linejoin:miter;stroke:rgb(61.56863%,22.745098%,60.784316%);stroke-opacity:1;stroke-miterlimit:4;" d="M -5.000185 1.000944 L -1.000185 5.000944 " transform="matrix(2,0,0,2,13.484746,13.52155)"/>
<path style="fill:none;stroke-width:1;stroke-linecap:round;stroke-linejoin:miter;stroke:rgb(61.56863%,22.745098%,60.784316%);stroke-opacity:1;stroke-miterlimit:4;" d="M -1.000185 1.000944 L -5.000185 5.000944 " transform="matrix(2,0,0,2,13.484746,13.52155)"/>
</g>
</svg>
