<?xml version="1.0" encoding="UTF-8"?>
<svg xmlns="http://www.w3.org/2000/svg" xmlns:xlink="http://www.w3.org/1999/xlink" width="32px" height="32px" viewBox="0 0 32 32" version="1.1">
<g id="surface1">
<path style="fill-rule:evenodd;fill:rgb(94.117647%,89.019608%,92.54902%);fill-opacity:1;stroke-width:1;stroke-linecap:round;stroke-linejoin:round;stroke:rgb(90.196079%,0.784314%,70.588237%);stroke-opacity:1;stroke-miterlimit:4;" d="M 3.5 1.488281 L 12.494141 1.488281 C 13.044922 1.488281 13.494141 1.935547 13.494141 2.488281 L 13.494141 13.455078 C 13.494141 14.005859 13.044922 14.455078 12.494141 14.455078 L 3.5 14.455078 C 2.947266 14.455078 2.5 14.005859 2.5 13.455078 L 2.5 2.488281 C 2.5 1.935547 2.947266 1.488281 3.5 1.488281 Z M 3.5 1.488281 " transform="matrix(2,0,0,2,0,0)"/>
<path style=" stroke:none;fill-rule:nonzero;fill:rgb(90.196079%,0.784314%,70.588237%);fill-opacity:1;" d="M 8 18.089844 L 22 18.089844 L 22 22 L 8 22 Z M 8 18.089844 "/>
<path style="fill-rule:nonzero;fill:rgb(95.294118%,71.764708%,85.09804%);fill-opacity:1;stroke-width:0.388796;stroke-linecap:butt;stroke-linejoin:miter;stroke:rgb(61.56863%,22.745098%,60.784316%);stroke-opacity:1;stroke-miterlimit:4;" d="M 13.899206 1.91015 L 12.699065 3.509362 L 14.299253 4.711285 L 15.499394 3.112073 L 14.999973 2.111309 Z M 13.899206 1.91015 " transform="matrix(1.533023,0,0,1.5535,1.532048,0.364612)"/>
<path style="fill-rule:nonzero;fill:rgb(95.294118%,71.764708%,85.09804%);fill-opacity:1;stroke-width:0.259197;stroke-linecap:butt;stroke-linejoin:miter;stroke:rgb(61.56863%,22.745098%,60.784316%);stroke-opacity:1;stroke-miterlimit:4;" d="M 7.794028 11.706577 L 8.194075 9.506405 L 8.894795 9.40834 L 8.787776 9.951468 L 9.302486 9.712592 L 9.185275 10.250692 L 9.702533 10.01433 L 9.794264 10.708328 L 7.794028 11.706577 " transform="matrix(1.533023,0,0,1.5535,1.532048,0.364612)"/>
<path style="fill-rule:nonzero;fill:rgb(61.56863%,22.745098%,60.784316%);fill-opacity:1;stroke-width:0.129599;stroke-linecap:butt;stroke-linejoin:miter;stroke:rgb(61.56863%,22.745098%,60.784316%);stroke-opacity:1;stroke-miterlimit:4;" d="M 8.132922 10.592661 L 8.675661 11.042754 L 7.794028 11.714121 Z M 8.132922 10.592661 " transform="matrix(1.533023,0,0,1.5535,1.532048,0.364612)"/>
<path style="fill-rule:nonzero;fill:rgb(90.196079%,0.784314%,70.588237%);fill-opacity:1;stroke-width:0.129599;stroke-linecap:butt;stroke-linejoin:miter;stroke:rgb(61.56863%,22.745098%,60.784316%);stroke-opacity:1;stroke-miterlimit:4;" d="M 12.699065 3.509362 L 14.299253 4.711285 L 9.794264 10.708328 L 9.702533 10.01433 L 9.185275 10.250692 L 9.228592 9.79557 L 8.787776 9.951468 L 8.838737 9.48126 L 8.194075 9.506405 Z M 12.699065 3.509362 " transform="matrix(1.533023,0,0,1.5535,1.532048,0.364612)"/>
<path style="fill:none;stroke-width:0.90719;stroke-linecap:butt;stroke-linejoin:round;stroke:rgb(61.56863%,22.745098%,60.784316%);stroke-opacity:1;stroke-miterlimit:4;" d="M 13.601082 2.309953 L 8.194075 9.506405 L 7.493356 12.10638 L 9.794264 10.708328 L 15.198722 3.511876 C 15.998816 2.478424 14.434301 1.233754 13.601082 2.309953 Z M 13.601082 2.309953 " transform="matrix(1.533023,0,0,1.5535,1.532048,0.364612)"/>
<path style="fill-rule:nonzero;fill:rgb(94.117647%,89.019608%,92.54902%);fill-opacity:1;stroke-width:1.5;stroke-linecap:round;stroke-linejoin:miter;stroke:rgb(94.117647%,89.019608%,92.54902%);stroke-opacity:1;stroke-miterlimit:4;" d="M -0.999295 0.999598 L -4.999295 4.999598 " transform="matrix(2,0,0,2,13.510308,1.500804)"/>
<path style="fill:none;stroke-width:1.5;stroke-linecap:round;stroke-linejoin:miter;stroke:rgb(94.117647%,89.019608%,92.54902%);stroke-opacity:1;stroke-miterlimit:4;" d="M -4.999295 0.999598 L -0.999295 4.999598 " transform="matrix(2,0,0,2,13.510308,1.500804)"/>
<path style="fill-rule:nonzero;fill:rgb(61.56863%,22.745098%,60.784316%);fill-opacity:1;stroke-width:1;stroke-linecap:round;stroke-linejoin:miter;stroke:rgb(61.56863%,22.745098%,60.784316%);stroke-opacity:1;stroke-miterlimit:4;" d="M -4.999295 0.999598 L -0.999295 4.999598 " transform="matrix(2,0,0,2,13.510308,1.500804)"/>
<path style="fill:none;stroke-width:1;stroke-linecap:round;stroke-linejoin:miter;stroke:rgb(61.56863%,22.745098%,60.784316%);stroke-opacity:1;stroke-miterlimit:4;" d="M -0.999295 0.999598 L -4.999295 4.999598 " transform="matrix(2,0,0,2,13.510308,1.500804)"/>
</g>
</svg>
