<?xml version="1.0" encoding="UTF-8"?>
<svg xmlns="http://www.w3.org/2000/svg" xmlns:xlink="http://www.w3.org/1999/xlink" width="32px" height="32px" viewBox="0 0 32 32" version="1.1">
<g id="surface1">
<path style="fill-rule:evenodd;fill:rgb(94.117647%,89.019608%,92.54902%);fill-opacity:1;stroke-width:1;stroke-linecap:round;stroke-linejoin:round;stroke:rgb(90.196079%,0.784314%,70.588237%);stroke-opacity:1;stroke-miterlimit:4;" d="M 3.5 1.533203 L 12.494141 1.533203 C 13.044922 1.533203 13.494141 1.980469 13.494141 2.533203 L 13.494141 13.5 C 13.494141 14.052734 13.044922 14.5 12.494141 14.5 L 3.5 14.5 C 2.947266 14.5 2.5 14.052734 2.5 13.5 L 2.5 2.533203 C 2.5 1.980469 2.947266 1.533203 3.5 1.533203 Z M 3.5 1.533203 " transform="matrix(2,0,0,2,0,0)"/>
<path style=" stroke:none;fill-rule:nonzero;fill:rgb(90.196079%,0.784314%,70.588237%);fill-opacity:1;" d="M 8 18.089844 L 23 18.089844 L 23 22 L 8 22 Z M 8 18.089844 "/>
<path style="fill-rule:evenodd;fill:rgb(94.117647%,89.019608%,92.54902%);fill-opacity:1;stroke-width:1;stroke-linecap:butt;stroke-linejoin:miter;stroke:rgb(94.117647%,89.019608%,92.54902%);stroke-opacity:1;stroke-miterlimit:4;" d="M 7.733778 1.509488 C 7.575575 1.513394 7.415419 1.566128 7.284559 1.661831 L 3.034559 4.771206 C 2.847059 4.909878 2.722059 5.132535 2.722059 5.380581 C 2.722059 5.630581 2.847059 5.853238 3.034559 5.989956 L 7.284559 9.099331 C 7.520887 9.275113 7.821669 9.29855 8.083387 9.185269 C 8.339247 9.071988 8.544325 8.806363 8.544325 8.49191 L 8.544325 2.269253 C 8.544325 2.04855 8.444715 1.845425 8.288465 1.706753 C 8.128309 1.564175 7.92909 1.503628 7.733778 1.509488 Z M 5.839247 4.630581 L 5.839247 6.132535 L 4.813856 5.380581 Z M 5.839247 4.630581 " transform="matrix(-2,0,0,2,32.381618,10.473212)"/>
<path style=" stroke:none;fill-rule:evenodd;fill:rgb(61.56863%,22.745098%,60.784316%);fill-opacity:1;" d="M 16.914062 13.492188 C 17.230469 13.5 17.550781 13.605469 17.8125 13.796875 L 26.3125 20.015625 C 26.6875 20.292969 26.9375 20.738281 26.9375 21.234375 C 26.9375 21.734375 26.6875 22.179688 26.3125 22.453125 L 17.8125 28.671875 C 17.339844 29.023438 16.738281 29.070312 16.214844 28.84375 C 15.703125 28.617188 15.292969 28.085938 15.292969 27.457031 L 15.292969 15.011719 C 15.292969 14.570312 15.492188 14.164062 15.804688 13.886719 C 16.125 13.601562 16.523438 13.480469 16.914062 13.492188 Z M 20.703125 19.734375 L 20.703125 22.738281 L 22.753906 21.234375 Z M 20.703125 19.734375 "/>
<path style=" stroke:none;fill-rule:evenodd;fill:rgb(95.294118%,71.764708%,85.09804%);fill-opacity:1;" d="M 17.3125 16 L 24.917969 21.324219 L 17.382812 26.472656 L 17.3125 23.101562 Z M 17.3125 16 "/>
<path style="fill-rule:nonzero;fill:rgb(95.294118%,71.764708%,85.09804%);fill-opacity:1;stroke-width:0.388796;stroke-linecap:butt;stroke-linejoin:miter;stroke:rgb(61.56863%,22.745098%,60.784316%);stroke-opacity:1;stroke-miterlimit:4;" d="M 13.899206 1.911953 L 12.699065 3.511164 L 14.299253 4.710573 L 15.499394 3.111361 L 14.999973 2.113111 Z M 13.899206 1.911953 " transform="matrix(1.533023,0,0,1.5535,1.532048,0.455562)"/>
<path style="fill-rule:nonzero;fill:rgb(95.294118%,71.764708%,85.09804%);fill-opacity:1;stroke-width:0.259197;stroke-linecap:butt;stroke-linejoin:miter;stroke:rgb(61.56863%,22.745098%,60.784316%);stroke-opacity:1;stroke-miterlimit:4;" d="M 7.794028 11.70838 L 8.194075 9.508207 L 8.894795 9.407628 L 8.787776 9.950756 L 9.302486 9.714395 L 9.185275 10.252494 L 9.702533 10.016133 L 9.794264 10.707615 L 7.794028 11.70838 " transform="matrix(1.533023,0,0,1.5535,1.532048,0.455562)"/>
<path style="fill-rule:nonzero;fill:rgb(61.56863%,22.745098%,60.784316%);fill-opacity:1;stroke-width:0.129599;stroke-linecap:butt;stroke-linejoin:miter;stroke:rgb(61.56863%,22.745098%,60.784316%);stroke-opacity:1;stroke-miterlimit:4;" d="M 8.132922 10.591949 L 8.675661 11.042042 L 7.794028 11.713409 Z M 8.132922 10.591949 " transform="matrix(1.533023,0,0,1.5535,1.532048,0.455562)"/>
<path style="fill-rule:nonzero;fill:rgb(90.196079%,0.784314%,70.588237%);fill-opacity:1;stroke-width:0.129599;stroke-linecap:butt;stroke-linejoin:miter;stroke:rgb(61.56863%,22.745098%,60.784316%);stroke-opacity:1;stroke-miterlimit:4;" d="M 12.699065 3.511164 L 14.299253 4.710573 L 9.794264 10.707615 L 9.702533 10.016133 L 9.185275 10.252494 L 9.228592 9.797373 L 8.787776 9.950756 L 8.838737 9.483062 L 8.194075 9.508207 Z M 12.699065 3.511164 " transform="matrix(1.533023,0,0,1.5535,1.532048,0.455562)"/>
<path style="fill:none;stroke-width:0.90719;stroke-linecap:butt;stroke-linejoin:round;stroke:rgb(61.56863%,22.745098%,60.784316%);stroke-opacity:1;stroke-miterlimit:4;" d="M 13.601082 2.311756 L 8.194075 9.508207 L 7.493356 12.108183 L 9.794264 10.707615 L 15.198722 3.511164 C 15.998816 2.480226 14.434301 1.235557 13.601082 2.311756 Z M 13.601082 2.311756 " transform="matrix(1.533023,0,0,1.5535,1.532048,0.455562)"/>
<path style="fill-rule:nonzero;fill:rgb(94.117647%,89.019608%,92.54902%);fill-opacity:1;stroke-width:1.5;stroke-linecap:round;stroke-linejoin:miter;stroke:rgb(94.117647%,89.019608%,92.54902%);stroke-opacity:1;stroke-miterlimit:4;" d="M -0.999294 0.999045 L -4.999294 4.999045 " transform="matrix(2,0,0,2,13.510307,1.591754)"/>
<path style="fill:none;stroke-width:1.5;stroke-linecap:round;stroke-linejoin:miter;stroke:rgb(94.117647%,89.019608%,92.54902%);stroke-opacity:1;stroke-miterlimit:4;" d="M -4.999294 0.999045 L -0.999294 4.999045 " transform="matrix(2,0,0,2,13.510307,1.591754)"/>
<path style="fill-rule:nonzero;fill:rgb(61.56863%,22.745098%,60.784316%);fill-opacity:1;stroke-width:1;stroke-linecap:round;stroke-linejoin:miter;stroke:rgb(61.56863%,22.745098%,60.784316%);stroke-opacity:1;stroke-miterlimit:4;" d="M -4.999294 0.999045 L -0.999294 4.999045 " transform="matrix(2,0,0,2,13.510307,1.591754)"/>
<path style="fill:none;stroke-width:1;stroke-linecap:round;stroke-linejoin:miter;stroke:rgb(61.56863%,22.745098%,60.784316%);stroke-opacity:1;stroke-miterlimit:4;" d="M -0.999294 0.999045 L -4.999294 4.999045 " transform="matrix(2,0,0,2,13.510307,1.591754)"/>
</g>
</svg>
