<?xml version="1.0" encoding="UTF-8"?>
<svg xmlns="http://www.w3.org/2000/svg" xmlns:xlink="http://www.w3.org/1999/xlink" width="32px" height="32px" viewBox="0 0 32 32" version="1.1">
<g id="surface1">
<path style="fill-rule:evenodd;fill:rgb(94.117647%,89.019608%,92.54902%);fill-opacity:1;stroke-width:1;stroke-linecap:round;stroke-linejoin:round;stroke:rgb(90.196079%,0.784314%,70.588237%);stroke-opacity:1;stroke-miterlimit:4;" d="M 3.46875 1.5 L 12.462891 1.5 C 13.013672 1.5 13.462891 1.947266 13.462891 2.5 L 13.462891 13.466797 C 13.462891 14.019531 13.013672 14.466797 12.462891 14.466797 L 3.46875 14.466797 C 2.916016 14.466797 2.46875 14.019531 2.46875 13.466797 L 2.46875 2.5 C 2.46875 1.947266 2.916016 1.5 3.46875 1.5 Z M 3.46875 1.5 " transform="matrix(2,0,0,2,0,0)"/>
<path style=" stroke:none;fill-rule:nonzero;fill:rgb(90.196079%,0.784314%,70.588237%);fill-opacity:1;" d="M 21.9375 6 L 12.0625 6 L 12.0625 8 L 21.9375 8 Z M 21.9375 6 "/>
<path style=" stroke:none;fill-rule:nonzero;fill:rgb(90.196079%,0.784314%,70.588237%);fill-opacity:1;" d="M 7.9375 6 L 10 6 L 10 8.0625 L 7.9375 8.0625 Z M 7.9375 6 "/>
<path style=" stroke:none;fill-rule:nonzero;fill:rgb(61.56863%,22.745098%,60.784316%);fill-opacity:1;" d="M 22 24 L 12 24 L 12 26 L 22 26 Z M 22 24 "/>
<path style=" stroke:none;fill-rule:nonzero;fill:rgb(61.56863%,22.745098%,60.784316%);fill-opacity:1;" d="M 8 24 L 10 24 L 10 26 L 8 26 Z M 8 24 "/>
<path style="fill-rule:nonzero;fill:rgb(94.117647%,89.019608%,92.54902%);fill-opacity:1;stroke-width:1.5;stroke-linecap:round;stroke-linejoin:miter;stroke:rgb(94.117647%,89.019608%,92.54902%);stroke-opacity:1;stroke-miterlimit:4;" d="M -1.000392 1.000745 L -5.000392 5.000745 " transform="matrix(2,0,0,2,30.789846,20.537573)"/>
<path style="fill:none;stroke-width:1.5;stroke-linecap:round;stroke-linejoin:miter;stroke:rgb(94.117647%,89.019608%,92.54902%);stroke-opacity:1;stroke-miterlimit:4;" d="M -5.000392 1.000745 L -1.000392 5.000745 " transform="matrix(2,0,0,2,30.789846,20.537573)"/>
<path style="fill-rule:nonzero;fill:rgb(61.56863%,22.745098%,60.784316%);fill-opacity:1;stroke-width:1;stroke-linecap:round;stroke-linejoin:miter;stroke:rgb(61.56863%,22.745098%,60.784316%);stroke-opacity:1;stroke-miterlimit:4;" d="M -5.000392 1.000745 L -1.000392 5.000745 " transform="matrix(2,0,0,2,30.789846,20.537573)"/>
<path style="fill:none;stroke-width:1;stroke-linecap:round;stroke-linejoin:miter;stroke:rgb(61.56863%,22.745098%,60.784316%);stroke-opacity:1;stroke-miterlimit:4;" d="M -1.000392 1.000745 L -5.000392 5.000745 " transform="matrix(2,0,0,2,30.789846,20.537573)"/>
<path style=" stroke:none;fill-rule:nonzero;fill:rgb(90.196079%,0.784314%,70.588237%);fill-opacity:1;" d="M 22 18 L 12.125 18 L 12.125 20 L 22 20 Z M 22 18 "/>
<path style=" stroke:none;fill-rule:nonzero;fill:rgb(90.196079%,0.784314%,70.588237%);fill-opacity:1;" d="M 8 18 L 10.0625 18 L 10.0625 20.0625 L 8 20.0625 Z M 8 18 "/>
<path style=" stroke:none;fill-rule:nonzero;fill:rgb(61.56863%,22.745098%,60.784316%);fill-opacity:1;" d="M 22 12 L 12 12 L 12 14 L 22 14 Z M 22 12 "/>
<path style=" stroke:none;fill-rule:nonzero;fill:rgb(61.56863%,22.745098%,60.784316%);fill-opacity:1;" d="M 8 12 L 10 12 L 10 14 L 8 14 Z M 8 12 "/>
</g>
</svg>
