<?xml version="1.0" encoding="UTF-8"?>
<svg xmlns="http://www.w3.org/2000/svg" xmlns:xlink="http://www.w3.org/1999/xlink" width="32px" height="32px" viewBox="0 0 32 32" version="1.1">
<g id="surface1">
<path style="fill-rule:nonzero;fill:rgb(94.117647%,89.019608%,92.54902%);fill-opacity:1;stroke-width:0.894407;stroke-linecap:butt;stroke-linejoin:miter;stroke:rgb(90.196079%,0.784314%,70.588237%);stroke-opacity:1;stroke-miterlimit:4;" d="M 3.935078 5.51567 C 3.399387 5.51743 2.969447 5.908206 2.969447 6.395795 L 2.969447 13.637463 C 2.969447 14.125053 3.399387 14.510547 3.935078 14.517588 L 9.567635 14.512308 L 13.546312 14.507027 C 14.082003 14.507027 14.513676 14.114491 14.513676 13.626902 L 14.513676 6.383473 C 14.513676 5.897644 14.082003 5.503348 13.546312 5.503348 L 12.86673 5.499828 L 12.86673 6.020862 C 12.86673 6.1476 12.754044 6.249694 12.615354 6.249694 L 11.467692 6.249694 C 11.327268 6.249694 11.216316 6.1476 11.216316 6.020862 L 11.216316 5.499828 Z M 3.935078 5.51567 " transform="matrix(2.253223,0,0,2.219145,-3.675201,-3.181478)"/>
<path style="fill-rule:nonzero;fill:rgb(95.294118%,71.764708%,85.09804%);fill-opacity:1;stroke-width:0.447203;stroke-linecap:butt;stroke-linejoin:miter;stroke:rgb(61.56863%,22.745098%,60.784316%);stroke-opacity:1;stroke-miterlimit:4;" d="M 4.465568 7.267119 L 12.707236 7.267119 C 12.868463 7.267119 13.000219 7.400898 13.000219 7.564601 L 13.000219 12.679887 C 13.000219 12.843591 12.868463 12.97737 12.707236 12.97737 L 4.465568 12.97737 C 4.302607 12.97737 4.172585 12.843591 4.172585 12.679887 L 4.172585 7.564601 C 4.172585 7.400898 4.302607 7.267119 4.465568 7.267119 Z M 4.465568 7.267119 " transform="matrix(2.253223,0,0,2.219145,-3.675201,-3.181478)"/>
<path style="fill-rule:nonzero;fill:rgb(95.294118%,71.764708%,85.09804%);fill-opacity:1;stroke-width:1;stroke-linecap:butt;stroke-linejoin:miter;stroke:rgb(61.56863%,22.745098%,60.784316%);stroke-opacity:1;stroke-miterlimit:4;" d="M 1.625 2.5 L 11.375 2.5 C 11.443359 2.5 11.5 2.556641 11.5 2.625 L 11.5 5.375 C 11.5 5.443359 11.443359 5.5 11.375 5.5 L 1.625 5.5 C 1.556641 5.5 1.5 5.443359 1.5 5.375 L 1.5 2.625 C 1.5 2.556641 1.556641 2.5 1.625 2.5 Z M 1.625 2.5 " transform="matrix(2,0,0,2,0,0)"/>
<path style="fill:none;stroke-width:0.75;stroke-linecap:round;stroke-linejoin:miter;stroke:rgb(90.196079%,0.784314%,70.588237%);stroke-opacity:1;stroke-miterlimit:4;" d="M 2.875 1.5 L 5.125 1.5 " transform="matrix(2.666667,0,0,2.666667,-1.666667,-1)"/>
<path style="fill:none;stroke-width:0.75;stroke-linecap:butt;stroke-linejoin:miter;stroke:rgb(90.196079%,0.784314%,70.588237%);stroke-opacity:1;stroke-miterlimit:4;" d="M 4 1.5 L 4 4.875 " transform="matrix(2.666667,0,0,2.666667,-1.666667,-1)"/>
<path style="fill:none;stroke-width:0.75;stroke-linecap:round;stroke-linejoin:miter;stroke:rgb(90.196079%,0.784314%,70.588237%);stroke-opacity:1;stroke-miterlimit:4;" d="M 2.875 5.25 L 5.125 5.25 " transform="matrix(2.666667,0,0,2.666667,-1.666667,-1)"/>
</g>
</svg>
