<?xml version="1.0" encoding="UTF-8"?>
<svg xmlns="http://www.w3.org/2000/svg" xmlns:xlink="http://www.w3.org/1999/xlink" width="32px" height="32px" viewBox="0 0 32 32" version="1.1">
<g id="surface1">
<path style="fill-rule:evenodd;fill:rgb(90.196079%,0.784314%,70.588237%);fill-opacity:1;stroke-width:0.264583;stroke-linecap:round;stroke-linejoin:round;stroke:rgb(90.196079%,0.784314%,70.588237%);stroke-opacity:1;stroke-miterlimit:4;" d="M -3.255577 1.276121 L -1.403494 1.276121 C -1.257249 1.276121 -1.13891 1.39446 -1.13891 1.540705 L -1.13891 4.451122 C -1.13891 4.597366 -1.257249 4.715705 -1.403494 4.715705 L -3.255577 4.715705 C -3.401821 4.715705 -3.52016 4.597366 -3.52016 4.451122 L -3.52016 1.540705 C -3.52016 1.39446 -3.401821 1.276121 -3.255577 1.276121 Z M -3.255577 1.276121 " transform="matrix(7.559055,0,0,7.559055,33.609084,-6.646271)"/>
<path style="fill-rule:evenodd;fill:rgb(94.117647%,89.019608%,92.54902%);fill-opacity:1;stroke-width:0.264583;stroke-linecap:round;stroke-linejoin:round;stroke:rgb(94.117647%,89.019608%,92.54902%);stroke-opacity:1;stroke-miterlimit:4;" d="M -2.990994 1.540705 L -1.668077 1.540705 C -1.521833 1.540705 -1.403494 1.659044 -1.403494 1.805288 L -1.403494 4.186538 C -1.403494 4.332782 -1.521833 4.451122 -1.668077 4.451122 L -2.990994 4.451122 C -3.137238 4.451122 -3.255577 4.332782 -3.255577 4.186538 L -3.255577 1.805288 C -3.255577 1.659044 -3.137238 1.540705 -2.990994 1.540705 Z M -2.990994 1.540705 " transform="matrix(7.559055,0,0,7.559055,33.609084,-6.646271)"/>
<path style="fill-rule:evenodd;fill:rgb(95.294118%,71.764708%,85.09804%);fill-opacity:1;stroke-width:0.264583;stroke-linecap:round;stroke-linejoin:round;stroke:rgb(95.294118%,71.764708%,85.09804%);stroke-opacity:1;stroke-miterlimit:4;" d="M -2.72641 1.785134 L -1.93266 1.785134 C -1.786416 1.785134 -1.668077 1.903473 -1.668077 2.049718 L -1.668077 3.901801 C -1.668077 4.048045 -1.786416 4.166384 -1.93266 4.166384 L -2.72641 4.166384 C -2.872655 4.166384 -2.990994 4.048045 -2.990994 3.901801 L -2.990994 2.049718 C -2.990994 1.903473 -2.872655 1.785134 -2.72641 1.785134 Z M -2.72641 1.785134 " transform="matrix(7.559055,0,0,7.559055,33.609084,-6.646271)"/>
<path style="fill:none;stroke-width:0.264583;stroke-linecap:round;stroke-linejoin:miter;stroke:rgb(90.196079%,0.784314%,70.588237%);stroke-opacity:1;stroke-miterlimit:4;" d="M -2.792556 2.446593 L -1.866514 2.446593 " transform="matrix(7.559055,0,0,7.559055,33.609084,-6.646271)"/>
<path style="fill:none;stroke-width:0.264583;stroke-linecap:round;stroke-linejoin:miter;stroke:rgb(90.196079%,0.784314%,70.588237%);stroke-opacity:1;stroke-miterlimit:4;" d="M -2.792556 2.975759 L -1.866514 2.975759 " transform="matrix(7.559055,0,0,7.559055,33.609084,-6.646271)"/>
<path style="fill:none;stroke-width:0.264583;stroke-linecap:round;stroke-linejoin:miter;stroke:rgb(90.196079%,0.784314%,70.588237%);stroke-opacity:1;stroke-miterlimit:4;" d="M -2.792556 3.504926 L -1.866514 3.504926 " transform="matrix(7.559055,0,0,7.559055,33.609084,-6.646271)"/>
<path style=" stroke:none;fill-rule:nonzero;fill:rgb(61.56863%,22.745098%,60.784316%);fill-opacity:1;" d="M 2.320312 6 L 23.679688 6 C 23.855469 6 24 6.144531 24 6.320312 L 24 15.679688 C 24 15.855469 23.855469 16 23.679688 16 L 2.320312 16 C 2.144531 16 2 15.855469 2 15.679688 L 2 6.320312 C 2 6.144531 2.144531 6 2.320312 6 Z M 2.320312 6 "/>
<path style=" stroke:none;fill-rule:nonzero;fill:rgb(94.117647%,89.019608%,92.54902%);fill-opacity:1;" d="M 4.25 8 L 21.75 8 C 21.886719 8 22 8.113281 22 8.25 L 22 13.75 C 22 13.886719 21.886719 14 21.75 14 L 4.25 14 C 4.113281 14 4 13.886719 4 13.75 L 4 8.25 C 4 8.113281 4.113281 8 4.25 8 Z M 4.25 8 "/>
<path style="fill:none;stroke-width:0.264583;stroke-linecap:round;stroke-linejoin:miter;stroke:rgb(61.56863%,22.745098%,60.784316%);stroke-opacity:1;stroke-miterlimit:4;" d="M 1.984375 0.661458 L 2.513542 0.661458 " transform="matrix(7.559055,0,0,7.559055,0.00000180222,0)"/>
<path style="fill:none;stroke-width:0.264583;stroke-linecap:round;stroke-linejoin:miter;stroke:rgb(61.56863%,22.745098%,60.784316%);stroke-opacity:1;stroke-miterlimit:4;" d="M 2.248958 0.661458 L 2.248958 2.248958 " transform="matrix(7.559055,0,0,7.559055,0.00000180222,0)"/>
<path style="fill:none;stroke-width:0.264583;stroke-linecap:round;stroke-linejoin:miter;stroke:rgb(61.56863%,22.745098%,60.784316%);stroke-opacity:1;stroke-miterlimit:4;" d="M 1.984375 2.248958 L 2.513542 2.248958 " transform="matrix(7.559055,0,0,7.559055,0.00000180222,0)"/>
</g>
</svg>
