<?xml version="1.0" encoding="UTF-8"?>
<svg xmlns="http://www.w3.org/2000/svg" xmlns:xlink="http://www.w3.org/1999/xlink" width="32px" height="32px" viewBox="0 0 32 32" version="1.1">
<g id="surface1">
<path style=" stroke:none;fill-rule:nonzero;fill:rgb(33.333334%,34.117648%,32.549021%);fill-opacity:1;" d="M 0 0 L 0 30 L 4 30 L 4 10 L 10 10 L 10 12 L 12 12 L 12 10 L 18 10 L 18 12 L 20 12 L 20 10 L 26 10 L 26 12 L 30 12 L 30 0 Z M 4 4 L 10 4 L 10 8 L 4 8 Z M 12 4 L 18 4 L 18 8 L 12 8 Z M 20 4 L 26 4 L 26 8 L 20 8 Z M 8 14 C 6.890625 14 6 14.890625 6 16 L 6 30 C 6 31.109375 6.890625 32 8 32 L 30 32 C 31.109375 32 32 31.109375 32 30 L 32 16 C 32 14.890625 31.109375 14 30 14 Z M 20 16 L 22 16 L 22 20 L 26 20 C 28.210938 20 30 22.238281 30 25 C 30 27.761719 28.210938 30 26 30 L 20 30 Z M 10 20 L 16 20 C 17.105469 20 18 20.894531 18 22 L 18 30 L 11 30 C 9.34375 30 8 28.65625 8 27 C 8 25.34375 9.34375 24 11 24 L 16 24 L 16 22 L 10 22 Z M 22 22 L 22 28 L 26 28 C 27.105469 28 28 26.65625 28 25 C 28 23.34375 27.105469 22 26 22 Z M 11 26 C 10.449219 26 10 26.449219 10 27 C 10 27.550781 10.449219 28 11 28 L 16 28 L 16 26 Z M 11 26 "/>
</g>
</svg>
