<?xml version="1.0" encoding="UTF-8"?>
<svg xmlns="http://www.w3.org/2000/svg" xmlns:xlink="http://www.w3.org/1999/xlink" width="32px" height="32px" viewBox="0 0 32 32" version="1.1">
<g id="surface1">
<path style=" stroke:none;fill-rule:nonzero;fill:rgb(61.56863%,22.745098%,60.784316%);fill-opacity:1;" d="M 9.941406 0 C 9.566406 0.0117188 9.222656 0.15625 8.914062 0.363281 C 8.800781 0.40625 8.699219 0.476562 8.613281 0.558594 L 1.289062 7.578125 C 1.164062 7.699219 1.066406 7.835938 0.996094 7.980469 L 1.191406 7.707031 C 0.667969 8.234375 0.183594 8.996094 0.183594 9.945312 C 0.183594 10.917969 0.644531 11.714844 1.144531 12.308594 C 1.164062 12.328125 1.183594 12.351562 1.203125 12.371094 L 1.148438 12.308594 C 1.1875 12.359375 1.234375 12.410156 1.285156 12.457031 L 1.296875 12.464844 L 8.597656 19.425781 C 8.597656 19.425781 8.601562 19.429688 8.601562 19.429688 C 8.613281 19.445312 8.621094 19.441406 8.625 19.449219 C 8.65625 19.46875 8.710938 19.503906 8.785156 19.554688 C 8.71875 19.507812 8.6875 19.484375 8.644531 19.457031 C 9.25 20.019531 10.089844 20.136719 10.78125 19.84375 C 11.484375 19.546875 12 18.851562 12 18 L 12 14 L 23.902344 14 C 23.925781 14.015625 23.957031 14.035156 23.960938 14.039062 C 23.964844 14.042969 23.984375 14.074219 24 14.101562 L 24 24 C 24 25.097656 24.902344 26 26 26 L 30 26 C 31.097656 26 32 25.097656 32 24 L 32 16 C 32 15.820312 31.980469 15.808594 31.957031 15.730469 C 31.976562 15.507812 32 15.269531 32 14.980469 L 32 14 C 32 11.367188 31.46875 9.304688 30.082031 7.917969 C 28.695312 6.53125 26.632812 6 24 6 L 12 6 L 12 2 C 12 0.878906 11.0625 -0.03125 9.941406 0 Z M 9.941406 0 "/>
<path style="fill-rule:nonzero;fill:rgb(94.117647%,89.019608%,92.54902%);fill-opacity:0.913725;stroke-width:0.0496094;stroke-linecap:butt;stroke-linejoin:miter;stroke:rgb(94.117647%,89.019608%,92.54902%);stroke-opacity:1;stroke-miterlimit:4;" d="M 1.318782 0.126091 C 1.284159 0.127124 1.251086 0.141077 1.226282 0.165365 L 0.257348 1.09399 L 0.262516 1.089339 C 0.199988 1.144116 0.150378 1.225765 0.150378 1.315682 C 0.150378 1.405082 0.192753 1.481047 0.248047 1.547192 C 0.251147 1.55081 0.254248 1.55391 0.257865 1.557528 L 1.226282 2.480986 C 1.314132 2.565735 1.461409 2.503723 1.461409 2.38125 L 1.461409 1.725993 L 3.175 1.725993 C 3.195154 1.725993 3.230811 1.740462 3.258716 1.768368 C 3.286621 1.796273 3.30109 1.83193 3.30109 1.852083 L 3.30109 3.175 C 3.30109 3.251481 3.363102 3.313493 3.439583 3.313493 L 3.96875 3.313493 C 4.045231 3.313493 4.107243 3.251481 4.107243 3.175 L 4.107243 2.116667 C 4.107243 2.103231 4.105693 2.090312 4.101558 2.077393 C 4.104142 2.04587 4.107243 2.014347 4.107243 1.981791 L 4.107243 1.981275 C 4.107243 1.25057 3.96875 0.926042 2.645833 0.919841 C 2.61276 0.919841 2.581238 0.922941 2.549715 0.925525 C 2.536796 0.921391 2.523877 0.919841 2.510441 0.919841 L 1.461409 0.919841 L 1.461409 0.264583 C 1.461409 0.186552 1.396814 0.123507 1.318782 0.126091 Z M 1.318782 0.126091 " transform="matrix(7.559055,0,0,7.559055,0.00000180222,0)"/>
<path style=" stroke:none;fill-rule:nonzero;fill:rgb(90.196079%,0.784314%,70.588237%);fill-opacity:1;" d="M 22.058594 32 C 22.433594 31.988281 22.777344 31.84375 23.085938 31.640625 C 23.199219 31.59375 23.300781 31.523438 23.386719 31.441406 L 30.710938 24.421875 C 30.835938 24.300781 30.933594 24.164062 31.003906 24.019531 L 30.808594 24.292969 C 31.332031 23.765625 31.816406 23.003906 31.816406 22.054688 C 31.816406 21.082031 31.355469 20.285156 30.855469 19.691406 C 30.835938 19.671875 30.816406 19.648438 30.796875 19.628906 L 30.851562 19.691406 C 30.8125 19.640625 30.765625 19.589844 30.714844 19.542969 L 30.703125 19.535156 L 23.402344 12.574219 C 23.402344 12.574219 23.398438 12.570312 23.398438 12.570312 C 23.386719 12.554688 23.378906 12.558594 23.375 12.550781 C 23.34375 12.53125 23.289062 12.496094 23.214844 12.445312 C 23.28125 12.492188 23.3125 12.515625 23.355469 12.542969 C 22.75 11.980469 21.910156 11.863281 21.21875 12.15625 C 20.515625 12.453125 20 13.148438 20 14 L 20 18 L 8.097656 18 C 8.074219 17.984375 8.042969 17.964844 8.039062 17.960938 C 8.035156 17.957031 8.015625 17.925781 8 17.898438 L 8 8 C 8 6.902344 7.097656 6 6 6 L 2 6 C 0.902344 6 0 6.902344 0 8 L 0 16 C 0 16.179688 0.0195312 16.191406 0.0429688 16.269531 C 0.0234375 16.492188 0 16.730469 0 17.019531 L 0 18 C 0 20.632812 0.53125 22.695312 1.917969 24.082031 C 3.304688 25.46875 5.367188 26 8 26 L 20 26 L 20 30 C 20 31.121094 20.9375 32.03125 22.058594 32 Z M 22.058594 32 "/>
<path style=" stroke:none;fill-rule:nonzero;fill:rgb(95.294118%,71.764708%,85.09804%);fill-opacity:1;" d="M 22.03125 31.046875 C 22.292969 31.039062 22.542969 30.933594 22.730469 30.75 L 30.054688 23.730469 L 30.015625 23.765625 C 30.488281 23.351562 30.863281 22.734375 30.863281 22.054688 C 30.863281 21.378906 30.542969 20.804688 30.125 20.304688 C 30.101562 20.277344 30.078125 20.253906 30.054688 20.226562 L 22.730469 13.246094 C 22.066406 12.605469 20.953125 13.074219 20.953125 14 L 20.953125 18.953125 L 8 18.953125 C 7.847656 18.953125 7.578125 18.84375 7.367188 18.632812 C 7.15625 18.421875 7.046875 18.152344 7.046875 18 L 7.046875 8 C 7.046875 7.421875 6.578125 6.953125 6 6.953125 L 2 6.953125 C 1.421875 6.953125 0.953125 7.421875 0.953125 8 L 0.953125 16 C 0.953125 16.101562 0.964844 16.199219 0.996094 16.296875 C 0.976562 16.535156 0.953125 16.773438 0.953125 17.019531 L 0.953125 17.023438 C 0.953125 22.546875 2 25 12 25.046875 C 12.25 25.046875 12.488281 25.023438 12.726562 25.003906 C 12.824219 25.035156 12.921875 25.046875 13.023438 25.046875 L 20.953125 25.046875 L 20.953125 30 C 20.953125 30.589844 21.441406 31.066406 22.03125 31.046875 Z M 22.03125 31.046875 "/>
</g>
</svg>
