<?xml version="1.0" encoding="UTF-8"?>
<svg xmlns="http://www.w3.org/2000/svg" xmlns:xlink="http://www.w3.org/1999/xlink" width="32px" height="32px" viewBox="0 0 32 32" version="1.1">
<g id="surface1">
<path style="fill-rule:evenodd;fill:rgb(94.117647%,89.019608%,92.54902%);fill-opacity:0.950495;stroke-width:1;stroke-linecap:round;stroke-linejoin:round;stroke:rgb(90.196079%,0.784314%,70.588237%);stroke-opacity:1;stroke-miterlimit:4;" d="M 4 1.5 L 12 1.5 C 12.828125 1.5 13.5 2.171875 13.5 3 L 13.5 13 C 13.5 13.828125 12.828125 14.5 12 14.5 L 4 14.5 C 3.171875 14.5 2.5 13.828125 2.5 13 L 2.5 3 C 2.5 2.171875 3.171875 1.5 4 1.5 Z M 4 1.5 " transform="matrix(2,0,0,2,0,0)"/>
<path style=" stroke:none;fill-rule:nonzero;fill:rgb(90.196079%,0.784314%,70.588237%);fill-opacity:1;" d="M 6 4 L 8 4 L 8 6 L 6 6 Z M 6 4 "/>
<path style=" stroke:none;fill-rule:nonzero;fill:rgb(90.196079%,0.784314%,70.588237%);fill-opacity:1;" d="M 6 8 L 8 8 L 8 10 L 6 10 Z M 6 8 "/>
<path style=" stroke:none;fill-rule:nonzero;fill:rgb(90.196079%,0.784314%,70.588237%);fill-opacity:1;" d="M 6 12 L 8 12 L 8 14 L 6 14 Z M 6 12 "/>
<path style=" stroke:none;fill-rule:nonzero;fill:rgb(90.196079%,0.784314%,70.588237%);fill-opacity:1;" d="M 6 16 L 8 16 L 8 18 L 6 18 Z M 6 16 "/>
<path style=" stroke:none;fill-rule:nonzero;fill:rgb(90.196079%,0.784314%,70.588237%);fill-opacity:1;" d="M 6 20 L 8 20 L 8 22 L 6 22 Z M 6 20 "/>
<path style=" stroke:none;fill-rule:nonzero;fill:rgb(90.196079%,0.784314%,70.588237%);fill-opacity:1;" d="M 6 24 L 8 24 L 8 26 L 6 26 Z M 6 24 "/>
<path style=" stroke:none;fill-rule:nonzero;fill:rgb(90.196079%,0.784314%,70.588237%);fill-opacity:0.331551;" d="M 6 28 L 8 28 L 8 30 L 6 30 Z M 6 28 "/>
<path style=" stroke:none;fill-rule:nonzero;fill:rgb(90.196079%,0.784314%,70.588237%);fill-opacity:1;" d="M 24 4 L 26 4 L 26 6 L 24 6 Z M 24 4 "/>
<path style=" stroke:none;fill-rule:nonzero;fill:rgb(90.196079%,0.784314%,70.588237%);fill-opacity:1;" d="M 24 8 L 26 8 L 26 10 L 24 10 Z M 24 8 "/>
<path style=" stroke:none;fill-rule:nonzero;fill:rgb(90.196079%,0.784314%,70.588237%);fill-opacity:1;" d="M 24 12 L 26 12 L 26 14 L 24 14 Z M 24 12 "/>
<path style=" stroke:none;fill-rule:nonzero;fill:rgb(90.196079%,0.784314%,70.588237%);fill-opacity:1;" d="M 24 16 L 26 16 L 26 18 L 24 18 Z M 24 16 "/>
<path style=" stroke:none;fill-rule:nonzero;fill:rgb(90.196079%,0.784314%,70.588237%);fill-opacity:1;" d="M 24 20 L 26 20 L 26 22 L 24 22 Z M 24 20 "/>
<path style=" stroke:none;fill-rule:nonzero;fill:rgb(90.196079%,0.784314%,70.588237%);fill-opacity:1;" d="M 24 24 L 26 24 L 26 26 L 24 26 Z M 24 24 "/>
<path style="fill-rule:nonzero;fill:rgb(94.117647%,89.019608%,92.54902%);fill-opacity:1;stroke-width:2;stroke-linecap:butt;stroke-linejoin:miter;stroke:rgb(94.117647%,89.019608%,92.54902%);stroke-opacity:1;stroke-miterlimit:4;" d="M 15.409677 11.658343 C 15.409677 13.730608 13.729989 15.408343 11.659677 15.408343 C 9.587411 15.408343 7.909677 13.730608 7.909677 11.658343 C 7.909677 9.58803 9.587411 7.908343 11.659677 7.908343 C 13.729989 7.908343 15.409677 9.58803 15.409677 11.658343 Z M 15.409677 11.658343 " transform="matrix(2,0,0,2,-2.741229,-2.789341)"/>
<path style="fill-rule:nonzero;fill:rgb(61.56863%,22.745098%,60.784316%);fill-opacity:1;stroke-width:1.282111;stroke-linecap:butt;stroke-linejoin:round;stroke:rgb(94.117647%,89.019608%,92.54902%);stroke-opacity:1;stroke-miterlimit:4;" d="M 1.81245 4.366198 L 2.737723 3.002703 L 3.174693 3.439673 Z M 1.81245 4.366198 " transform="matrix(3.119855,0,0,3.119855,11.353232,10.479659)"/>
<path style="fill-rule:nonzero;fill:rgb(61.56863%,22.745098%,60.784316%);fill-opacity:1;stroke-width:1.282111;stroke-linecap:butt;stroke-linejoin:round;stroke:rgb(94.117647%,89.019608%,92.54902%);stroke-opacity:1;stroke-miterlimit:4;" d="M 4.101218 2.076178 L 2.737723 3.002703 L 3.174693 3.439673 Z M 4.101218 2.076178 " transform="matrix(3.119855,0,0,3.119855,11.353232,10.479659)"/>
<path style="fill-rule:nonzero;fill:rgb(94.117647%,89.019608%,92.54902%);fill-opacity:1;stroke-width:1.282111;stroke-linecap:butt;stroke-linejoin:miter;stroke:rgb(94.117647%,89.019608%,92.54902%);stroke-opacity:1;stroke-miterlimit:4;" d="M 3.530186 3.112013 C 3.530186 3.374945 3.317335 3.587796 3.055655 3.587796 C 2.792722 3.587796 2.579871 3.374945 2.579871 3.112013 C 2.579871 2.850332 2.792722 2.637481 3.055655 2.637481 C 3.317335 2.637481 3.530186 2.850332 3.530186 3.112013 Z M 3.530186 3.112013 " transform="matrix(3.119855,0,0,3.119855,11.044927,10.818317)"/>
<path style="fill-rule:nonzero;fill:rgb(95.294118%,71.764708%,85.09804%);fill-opacity:1;stroke-width:1.282111;stroke-linecap:butt;stroke-linejoin:miter;stroke:rgb(94.117647%,89.019608%,92.54902%);stroke-opacity:1;stroke-miterlimit:4;" d="M 3.309823 3.112013 C 3.309823 3.253495 3.195885 3.367433 3.055655 3.367433 C 2.914172 3.367433 2.800234 3.253495 2.800234 3.112013 C 2.800234 2.971782 2.914172 2.857844 3.055655 2.857844 C 3.195885 2.857844 3.309823 2.971782 3.309823 3.112013 Z M 3.309823 3.112013 " transform="matrix(3.119855,0,0,3.119855,11.044927,10.818317)"/>
<path style="fill:none;stroke-width:2;stroke-linecap:round;stroke-linejoin:round;stroke:rgb(94.117647%,89.019608%,92.54902%);stroke-opacity:1;stroke-miterlimit:4;" d="M 11.659677 9.158343 L 11.659677 9.873186 " transform="matrix(2,0,0,2,-2.741229,-2.789341)"/>
<path style="fill:none;stroke-width:2;stroke-linecap:round;stroke-linejoin:round;stroke:rgb(94.117647%,89.019608%,92.54902%);stroke-opacity:1;stroke-miterlimit:4;" d="M 11.659677 13.445452 L 11.659677 14.158343 " transform="matrix(2,0,0,2,-2.741229,-2.789341)"/>
<path style="fill:none;stroke-width:2;stroke-linecap:round;stroke-linejoin:round;stroke:rgb(94.117647%,89.019608%,92.54902%);stroke-opacity:1;stroke-miterlimit:4;" d="M 9.874521 11.658343 L 9.159677 11.658343 " transform="matrix(2,0,0,2,-2.741229,-2.789341)"/>
<path style="fill:none;stroke-width:2;stroke-linecap:round;stroke-linejoin:round;stroke:rgb(94.117647%,89.019608%,92.54902%);stroke-opacity:1;stroke-miterlimit:4;" d="M 14.159677 11.658343 L 13.444833 11.658343 " transform="matrix(2,0,0,2,-2.741229,-2.789341)"/>
<path style="fill-rule:nonzero;fill:rgb(94.117647%,89.019608%,92.54902%);fill-opacity:1;stroke-width:1;stroke-linecap:butt;stroke-linejoin:miter;stroke:rgb(90.196079%,0.784314%,70.588237%);stroke-opacity:1;stroke-miterlimit:4;" d="M 15.409677 11.658343 C 15.409677 13.730608 13.729989 15.408343 11.659677 15.408343 C 9.587411 15.408343 7.909677 13.730608 7.909677 11.658343 C 7.909677 9.58803 9.587411 7.908343 11.659677 7.908343 C 13.729989 7.908343 15.409677 9.58803 15.409677 11.658343 Z M 15.409677 11.658343 " transform="matrix(2,0,0,2,-2.741229,-2.789341)"/>
<path style="fill-rule:nonzero;fill:rgb(61.56863%,22.745098%,60.784316%);fill-opacity:1;stroke-width:0.320528;stroke-linecap:butt;stroke-linejoin:round;stroke:rgb(90.196079%,0.784314%,70.588237%);stroke-opacity:1;stroke-miterlimit:4;" d="M 1.81245 4.366198 L 2.737723 3.002703 L 3.174693 3.439673 Z M 1.81245 4.366198 " transform="matrix(3.119855,0,0,3.119855,11.353232,10.479659)"/>
<path style="fill-rule:nonzero;fill:rgb(61.56863%,22.745098%,60.784316%);fill-opacity:1;stroke-width:0.320528;stroke-linecap:butt;stroke-linejoin:round;stroke:rgb(90.196079%,0.784314%,70.588237%);stroke-opacity:1;stroke-miterlimit:4;" d="M 4.101218 2.076178 L 2.737723 3.002703 L 3.174693 3.439673 Z M 4.101218 2.076178 " transform="matrix(3.119855,0,0,3.119855,11.353232,10.479659)"/>
<path style="fill-rule:nonzero;fill:rgb(94.117647%,89.019608%,92.54902%);fill-opacity:1;stroke-width:0.320528;stroke-linecap:butt;stroke-linejoin:miter;stroke:rgb(90.196079%,0.784314%,70.588237%);stroke-opacity:1;stroke-miterlimit:4;" d="M 3.530186 3.112013 C 3.530186 3.374945 3.317335 3.587796 3.055655 3.587796 C 2.792722 3.587796 2.579871 3.374945 2.579871 3.112013 C 2.579871 2.850332 2.792722 2.637481 3.055655 2.637481 C 3.317335 2.637481 3.530186 2.850332 3.530186 3.112013 Z M 3.530186 3.112013 " transform="matrix(3.119855,0,0,3.119855,11.044927,10.818317)"/>
<path style="fill-rule:nonzero;fill:rgb(95.294118%,71.764708%,85.09804%);fill-opacity:1;stroke-width:0.320528;stroke-linecap:butt;stroke-linejoin:miter;stroke:rgb(90.196079%,0.784314%,70.588237%);stroke-opacity:1;stroke-miterlimit:4;" d="M 3.309823 3.112013 C 3.309823 3.253495 3.195885 3.367433 3.055655 3.367433 C 2.914172 3.367433 2.800234 3.253495 2.800234 3.112013 C 2.800234 2.971782 2.914172 2.857844 3.055655 2.857844 C 3.195885 2.857844 3.309823 2.971782 3.309823 3.112013 Z M 3.309823 3.112013 " transform="matrix(3.119855,0,0,3.119855,11.044927,10.818317)"/>
<path style="fill:none;stroke-width:1;stroke-linecap:round;stroke-linejoin:round;stroke:rgb(61.56863%,22.745098%,60.784316%);stroke-opacity:1;stroke-miterlimit:4;" d="M 11.659677 9.158343 L 11.659677 9.873186 " transform="matrix(2,0,0,2,-2.741229,-2.789341)"/>
<path style="fill:none;stroke-width:1;stroke-linecap:round;stroke-linejoin:round;stroke:rgb(61.56863%,22.745098%,60.784316%);stroke-opacity:1;stroke-miterlimit:4;" d="M 11.659677 13.445452 L 11.659677 14.158343 " transform="matrix(2,0,0,2,-2.741229,-2.789341)"/>
<path style="fill:none;stroke-width:1;stroke-linecap:round;stroke-linejoin:round;stroke:rgb(61.56863%,22.745098%,60.784316%);stroke-opacity:1;stroke-miterlimit:4;" d="M 9.874521 11.658343 L 9.159677 11.658343 " transform="matrix(2,0,0,2,-2.741229,-2.789341)"/>
<path style="fill:none;stroke-width:1;stroke-linecap:round;stroke-linejoin:round;stroke:rgb(61.56863%,22.745098%,60.784316%);stroke-opacity:1;stroke-miterlimit:4;" d="M 14.159677 11.658343 L 13.444833 11.658343 " transform="matrix(2,0,0,2,-2.741229,-2.789341)"/>
</g>
</svg>
