<?xml version="1.0" encoding="UTF-8"?>
<svg xmlns="http://www.w3.org/2000/svg" xmlns:xlink="http://www.w3.org/1999/xlink" width="32px" height="32px" viewBox="0 0 32 32" version="1.1">
<g id="surface1">
<path style=" stroke:none;fill-rule:nonzero;fill:rgb(33.333334%,34.117648%,32.549021%);fill-opacity:1;" d="M 12 28 C 11.382812 28 10.894531 27.820312 10.5 27.4375 L 4 21.75 L 4 18.339844 C 6.167969 16.421875 8.332031 14.203125 10.5 12.5625 C 10.894531 12.179688 11.382812 12 12 12 L 14 12 L 14 14 C 14 14.515625 13.742188 15.058594 13.375 15.4375 L 10.355469 18 L 20 18 C 22.210938 18 24 16.210938 24 14 C 24 11.789062 22.210938 10 20 10 L 18 10 L 18 6 L 20 6 C 24.417969 6 28 9.582031 28 14 C 28 18.417969 24.417969 22 20 22 L 10.355469 22 L 13.375 24.5625 C 13.742188 24.941406 14 25.484375 14 26 L 14 28 Z M 12 28 "/>
</g>
</svg>
