<?xml version="1.0" encoding="UTF-8"?>
<svg xmlns="http://www.w3.org/2000/svg" xmlns:xlink="http://www.w3.org/1999/xlink" width="32px" height="32px" viewBox="0 0 32 32" version="1.1">
<g id="surface1">
<path style=" stroke:none;fill-rule:nonzero;fill:rgb(61.56863%,22.745098%,60.784316%);fill-opacity:1;" d="M 4.808594 4.140625 C 4.105469 4.140625 3.535156 4.695312 3.535156 5.382812 L 3.535156 7.289062 C 3.535156 7.976562 4.105469 8.53125 4.808594 8.53125 L 4.832031 8.53125 L 4.832031 9.851562 L 4.808594 9.851562 C 4.105469 9.851562 3.535156 10.410156 3.535156 11.097656 L 3.535156 13 C 3.535156 13.6875 4.105469 14.246094 4.808594 14.246094 L 9.347656 14.246094 C 10.050781 14.246094 10.617188 13.6875 10.617188 13 L 10.617188 11.097656 C 10.617188 10.410156 10.050781 9.851562 9.347656 9.851562 L 9.320312 9.851562 L 9.320312 8.53125 L 9.347656 8.53125 C 10.050781 8.53125 10.617188 7.976562 10.617188 7.289062 L 10.617188 5.382812 C 10.617188 4.695312 10.050781 4.140625 9.347656 4.140625 Z M 4.808594 4.140625 "/>
<path style=" stroke:none;fill-rule:nonzero;fill:rgb(95.294118%,71.764708%,85.09804%);fill-opacity:1;" d="M 4.808594 5.382812 L 4.808594 7.289062 L 6.105469 7.289062 L 6.105469 11.097656 L 4.808594 11.097656 L 4.808594 13 L 9.347656 13 L 9.347656 11.097656 L 8.050781 11.097656 L 8.050781 7.289062 L 9.347656 7.289062 L 9.347656 5.382812 Z M 4.808594 5.382812 "/>
<path style=" stroke:none;fill-rule:nonzero;fill:rgb(61.56863%,22.745098%,60.784316%);fill-opacity:1;" d="M 3.296875 18.050781 C 2.640625 18.050781 2.109375 18.609375 2.109375 19.296875 L 2.109375 21.199219 C 2.109375 21.886719 2.640625 22.441406 3.296875 22.441406 L 3.320312 22.441406 L 3.320312 23.757812 L 3.296875 23.757812 C 2.640625 23.757812 2.109375 24.316406 2.109375 25.003906 L 2.109375 26.90625 C 2.109375 27.59375 2.640625 28.148438 3.296875 28.148438 L 7.542969 28.148438 C 8.199219 28.148438 8.730469 27.59375 8.730469 26.90625 L 8.730469 25.003906 C 8.730469 24.316406 8.199219 23.757812 7.542969 23.757812 L 7.519531 23.757812 L 7.519531 22.441406 L 7.542969 22.441406 C 8.199219 22.441406 8.730469 21.886719 8.730469 21.199219 L 8.730469 19.296875 C 8.730469 18.609375 8.199219 18.050781 7.542969 18.050781 Z M 3.296875 18.050781 "/>
<path style=" stroke:none;fill-rule:nonzero;fill:rgb(61.56863%,22.745098%,60.784316%);fill-opacity:1;" d="M 7.34375 18.039062 C 6.765625 18.039062 6.296875 18.597656 6.296875 19.285156 L 6.296875 21.1875 C 6.296875 21.875 6.765625 22.429688 7.34375 22.429688 L 7.363281 22.429688 L 7.363281 23.75 L 7.34375 23.75 C 6.765625 23.75 6.296875 24.304688 6.296875 24.992188 L 6.296875 26.894531 C 6.296875 27.582031 6.765625 28.140625 7.34375 28.140625 L 11.078125 28.140625 C 11.652344 28.140625 12.121094 27.582031 12.121094 26.894531 L 12.121094 24.992188 C 12.121094 24.304688 11.652344 23.75 11.078125 23.75 L 11.054688 23.75 L 11.054688 22.429688 L 11.078125 22.429688 C 11.652344 22.429688 12.121094 21.875 12.121094 21.1875 L 12.121094 19.285156 C 12.121094 18.597656 11.652344 18.039062 11.078125 18.039062 Z M 7.34375 18.039062 "/>
<path style=" stroke:none;fill-rule:nonzero;fill:rgb(95.294118%,71.764708%,85.09804%);fill-opacity:1;" d="M 3.609375 19.289062 L 3.609375 21.191406 L 4.824219 21.191406 L 4.824219 24.996094 L 3.609375 24.996094 L 3.609375 26.902344 L 7.855469 26.902344 L 7.855469 24.996094 L 6.640625 24.996094 L 6.640625 21.191406 L 7.855469 21.191406 L 7.855469 19.289062 Z M 3.609375 19.289062 "/>
<path style=" stroke:none;fill-rule:nonzero;fill:rgb(95.294118%,71.764708%,85.09804%);fill-opacity:1;" d="M 6.375 19.289062 L 6.375 21.191406 L 7.585938 21.191406 L 7.585938 24.996094 L 6.375 24.996094 L 6.375 26.902344 L 10.621094 26.902344 L 10.621094 24.996094 L 9.40625 24.996094 L 9.40625 21.191406 L 10.621094 21.191406 L 10.621094 19.289062 Z M 6.375 19.289062 "/>
<path style="fill:none;stroke-width:0.264583;stroke-linecap:round;stroke-linejoin:miter;stroke:rgb(90.196079%,0.784314%,70.588237%);stroke-opacity:1;stroke-miterlimit:4;" d="M 1.984375 0.926042 L 3.836458 0.926042 " transform="matrix(7.559055,0,0,7.559055,0.00000180222,0)"/>
<path style="fill:none;stroke-width:0.264583;stroke-linecap:round;stroke-linejoin:miter;stroke:rgb(90.196079%,0.784314%,70.588237%);stroke-opacity:1;stroke-miterlimit:4;" d="M 1.984375 1.447974 L 3.836458 1.447974 " transform="matrix(7.559055,0,0,7.559055,0.00000180222,0)"/>
<path style="fill:none;stroke-width:0.264583;stroke-linecap:round;stroke-linejoin:miter;stroke:rgb(90.196079%,0.784314%,70.588237%);stroke-opacity:1;stroke-miterlimit:4;" d="M 1.984375 3.307292 L 3.836458 3.307292 " transform="matrix(7.559055,0,0,7.559055,0.00000180222,0)"/>
<path style="fill:none;stroke-width:0.264583;stroke-linecap:round;stroke-linejoin:miter;stroke:rgb(90.196079%,0.784314%,70.588237%);stroke-opacity:1;stroke-miterlimit:4;" d="M 1.984375 2.778125 L 3.836458 2.778125 " transform="matrix(7.559055,0,0,7.559055,0.00000180222,0)"/>
</g>
</svg>
