<?xml version="1.0" encoding="UTF-8"?>
<svg xmlns="http://www.w3.org/2000/svg" xmlns:xlink="http://www.w3.org/1999/xlink" width="32px" height="32px" viewBox="0 0 32 32" version="1.1">
<g id="surface1">
<path style=" stroke:none;fill-rule:nonzero;fill:rgb(61.56863%,22.745098%,60.784316%);fill-opacity:1;" d="M 6.5 4 C 5.671875 4 5 4.671875 5 5.5 L 5 7 C 5 7.261719 5.070312 7.523438 5.203125 7.75 C 5.070312 7.976562 5 8.238281 5 8.5 L 5 13 C 5 13.828125 5.671875 14.5 6.5 14.5 L 8 14.5 C 8.828125 14.5 9.5 13.828125 9.5 13 L 9.5 8.5 C 9.5 8.238281 9.429688 7.976562 9.296875 7.75 C 9.429688 7.523438 9.5 7.261719 9.5 7 L 9.5 5.5 C 9.5 4.671875 8.828125 4 8 4 Z M 6.5 4 "/>
<path style=" stroke:none;fill-rule:nonzero;fill:rgb(95.294118%,71.764708%,85.09804%);fill-opacity:1;" d="M 6.5 5.5 L 6.5 7 L 8 7 L 8 5.5 Z M 6.5 8.5 L 6.5 13 L 8 13 L 8 8.5 Z M 6.5 8.5 "/>
<path style=" stroke:none;fill-rule:nonzero;fill:rgb(61.56863%,22.745098%,60.784316%);fill-opacity:1;" d="M 3.5 17.5 C 2.671875 17.5 2 18.171875 2 19 L 2 20.5 C 2 20.761719 2.070312 21.023438 2.203125 21.25 C 2.070312 21.476562 2 21.738281 2 22 L 2 26.5 C 2 27.328125 2.671875 28 3.5 28 L 5 28 C 5.828125 28 6.5 27.328125 6.5 26.5 C 6.5 27.328125 7.171875 28 8 28 L 9.5 28 C 10.328125 28 11 27.328125 11 26.5 L 11 22 C 11 21.738281 10.929688 21.476562 10.796875 21.25 C 10.929688 21.023438 11 20.761719 11 20.5 L 11 19 C 11 18.171875 10.328125 17.5 9.5 17.5 L 8 17.5 C 7.171875 17.5 6.5 18.171875 6.5 19 C 6.5 18.171875 5.828125 17.5 5 17.5 Z M 6.5 20.5 C 6.5 20.761719 6.570312 21.023438 6.703125 21.25 C 6.570312 21.476562 6.5 21.738281 6.5 22 C 6.5 21.738281 6.429688 21.476562 6.296875 21.25 C 6.429688 21.023438 6.5 20.761719 6.5 20.5 Z M 6.5 20.5 "/>
<path style=" stroke:none;fill-rule:nonzero;fill:rgb(95.294118%,71.764708%,85.09804%);fill-opacity:1;" d="M 3.5 19 L 3.5 20.5 L 5 20.5 L 5 19 Z M 8 19 L 8 20.5 L 9.5 20.5 L 9.5 19 Z M 3.5 22 L 3.5 26.5 L 5 26.5 L 5 22 Z M 8 22 L 8 26.5 L 9.5 26.5 L 9.5 22 Z M 8 22 "/>
<path style="fill:none;stroke-width:0.264583;stroke-linecap:round;stroke-linejoin:miter;stroke:rgb(90.196079%,0.784314%,70.588237%);stroke-opacity:1;stroke-miterlimit:4;" d="M 1.984375 0.926042 L 3.836458 0.926042 " transform="matrix(7.559055,0,0,7.559055,0.00000180222,0)"/>
<path style="fill:none;stroke-width:0.264583;stroke-linecap:round;stroke-linejoin:miter;stroke:rgb(90.196079%,0.784314%,70.588237%);stroke-opacity:1;stroke-miterlimit:4;" d="M 1.984375 1.455208 L 3.836458 1.455208 " transform="matrix(7.559055,0,0,7.559055,0.00000180222,0)"/>
<path style="fill:none;stroke-width:0.264583;stroke-linecap:round;stroke-linejoin:miter;stroke:rgb(90.196079%,0.784314%,70.588237%);stroke-opacity:1;stroke-miterlimit:4;" d="M 1.984375 2.778125 L 3.836458 2.778125 " transform="matrix(7.559055,0,0,7.559055,0.00000180222,0)"/>
<path style="fill:none;stroke-width:0.264583;stroke-linecap:round;stroke-linejoin:miter;stroke:rgb(90.196079%,0.784314%,70.588237%);stroke-opacity:1;stroke-miterlimit:4;" d="M 1.984375 3.307292 L 3.836458 3.307292 " transform="matrix(7.559055,0,0,7.559055,0.00000180222,0)"/>
</g>
</svg>
