<?xml version="1.0" encoding="UTF-8"?>
<svg xmlns="http://www.w3.org/2000/svg" xmlns:xlink="http://www.w3.org/1999/xlink" width="32px" height="32px" viewBox="0 0 32 32" version="1.1">
<defs>
<filter id="alpha" filterUnits="objectBoundingBox" x="0%" y="0%" width="100%" height="100%">
  <feColorMatrix type="matrix" in="SourceGraphic" values="0 0 0 0 1 0 0 0 0 1 0 0 0 0 1 0 0 0 1 0"/>
</filter>
<mask id="mask0">
  <g filter="url(#alpha)">
<rect x="0" y="0" width="32" height="32" style="fill:rgb(0%,0%,0%);fill-opacity:0.35;stroke:none;"/>
  </g>
</mask>
<clipPath id="clip1">
  <rect x="0" y="0" width="32" height="32"/>
</clipPath>
<g id="surface5" clip-path="url(#clip1)">
<path style=" stroke:none;fill-rule:nonzero;fill:rgb(33.333334%,34.117648%,32.549021%);fill-opacity:1;" d="M 30 4.960938 L 2 16 L 2 2 L 30 2 Z M 30 4.960938 "/>
</g>
</defs>
<g id="surface1">
<path style=" stroke:none;fill-rule:nonzero;fill:rgb(33.333334%,34.117648%,32.549021%);fill-opacity:1;" d="M 2 2 L 2 30 L 4.960938 30 L 16 2 Z M 18.375 16 C 17.050781 16 16 17.097656 16 18.4375 L 16 27.5625 C 16 28.902344 17.050781 30 18.375 30 L 28 30 C 29.324219 30 30 28.902344 30 27.5625 L 30 18.4375 C 30 17.097656 29.324219 16 28 16 Z M 18 18 L 20 18 L 23 21 L 26 18 L 28 18 L 28 20 L 25 23 L 28 26 L 28 28 L 26 28 L 23 25 L 20 28 L 18 28 L 18 26 L 21 23 L 18 20 Z M 18 18 "/>
<use xlink:href="#surface5" mask="url(#mask0)"/>
</g>
</svg>
