<?xml version="1.0" encoding="UTF-8"?>
<svg xmlns="http://www.w3.org/2000/svg" xmlns:xlink="http://www.w3.org/1999/xlink" width="32px" height="32px" viewBox="0 0 32 32" version="1.1">
<defs>
<filter id="alpha" filterUnits="objectBoundingBox" x="0%" y="0%" width="100%" height="100%">
  <feColorMatrix type="matrix" in="SourceGraphic" values="0 0 0 0 1 0 0 0 0 1 0 0 0 0 1 0 0 0 1 0"/>
</filter>
<mask id="mask0">
  <g filter="url(#alpha)">
<rect x="0" y="0" width="32" height="32" style="fill:rgb(0%,0%,0%);fill-opacity:0.35;stroke:none;"/>
  </g>
</mask>
<clipPath id="clip1">
  <rect x="0" y="0" width="32" height="32"/>
</clipPath>
<g id="surface5" clip-path="url(#clip1)">
<path style=" stroke:none;fill-rule:nonzero;fill:rgb(33.333334%,34.117648%,32.549021%);fill-opacity:1;" d="M 30 27.039062 L 2 16 L 2 30 L 30 30 Z M 30 27.039062 "/>
</g>
</defs>
<g id="surface1">
<path style=" stroke:none;fill-rule:nonzero;fill:rgb(33.333334%,34.117648%,32.549021%);fill-opacity:1;" d="M 2 2 L 2 30 L 16 30 L 4.960938 2 Z M 20 2 C 19.46875 2 18.9375 2 18.5625 2.5625 L 14 7.125 L 14 8.875 L 18.5625 13.4375 C 18.9375 13.800781 19.46875 14 20 14 L 22 14 L 22 12 C 22 11.46875 21.800781 10.9375 21.4375 10.5625 L 20.875 10 L 22 10 C 24.199219 10 26 11.800781 26 14 C 26 16.210938 24.199219 18 22 18 L 22 22 C 26.398438 22 30 18.398438 30 14 C 30 9.601562 26.398438 6 22 6 L 20.875 6 L 21.4375 5.4375 C 21.800781 5.0625 22 4.53125 22 4 L 22 2 Z M 20 2 "/>
<use xlink:href="#surface5" mask="url(#mask0)"/>
</g>
</svg>
