<?xml version="1.0" encoding="UTF-8"?>
<svg xmlns="http://www.w3.org/2000/svg" xmlns:xlink="http://www.w3.org/1999/xlink" width="32px" height="32px" viewBox="0 0 32 32" version="1.1">
<g id="surface1">
<path style=" stroke:none;fill-rule:nonzero;fill:rgb(90.196079%,0.784314%,70.588237%);fill-opacity:1;" d="M 10 10 L 10 20 L 30 20 L 30 18 L 28 18 L 28 12 L 30 12 L 30 10 Z M 12 12 L 18 12 L 18 18 L 12 18 Z M 20 12 L 26 12 L 26 18 L 20 18 Z M 20 12 "/>
<path style="fill:none;stroke-width:1;stroke-linecap:round;stroke-linejoin:miter;stroke:rgb(61.56863%,22.745098%,60.784316%);stroke-opacity:1;stroke-miterlimit:4;" d="M -4 5 L -2 5 " transform="matrix(2,0,0,2,11,1)"/>
<path style="fill:none;stroke-width:1;stroke-linecap:round;stroke-linejoin:miter;stroke:rgb(61.56863%,22.745098%,60.784316%);stroke-opacity:1;stroke-miterlimit:4;" d="M -3 5.5 L -3 9 " transform="matrix(2,0,0,2,11,1)"/>
<path style="fill:none;stroke-width:1;stroke-linecap:round;stroke-linejoin:miter;stroke:rgb(61.56863%,22.745098%,60.784316%);stroke-opacity:1;stroke-miterlimit:4;" d="M -4 9 L -2 9 " transform="matrix(2,0,0,2,11,1)"/>
</g>
</svg>
