<?xml version="1.0" encoding="UTF-8"?>
<svg xmlns="http://www.w3.org/2000/svg" xmlns:xlink="http://www.w3.org/1999/xlink" width="32px" height="32px" viewBox="0 0 32 32" version="1.1">
<g id="surface1">
<path style="fill:none;stroke-width:1.610738;stroke-linecap:round;stroke-linejoin:miter;stroke:rgb(90.196079%,0.784314%,70.588237%);stroke-opacity:1;stroke-miterlimit:4;" d="M 1.5 -6.5 L 22.499365 -6.5 " transform="matrix(1.241667,0,0,1.241667,1.137499,11.070836)"/>
<path style="fill:none;stroke-width:1.610738;stroke-linecap:round;stroke-linejoin:miter;stroke:rgb(61.56863%,22.745098%,60.784316%);stroke-opacity:1;stroke-miterlimit:4;" d="M 1.440227 -3.278525 L 22.439591 -3.278525 " transform="matrix(1.241667,0,0,1.241667,1.137499,11.070836)"/>
<path style="fill:none;stroke-width:1.610738;stroke-linecap:round;stroke-linejoin:miter;stroke:rgb(61.56863%,22.745098%,60.784316%);stroke-opacity:1;stroke-miterlimit:4;" d="M 1.440227 -0.0570492 L 22.439591 -0.0570492 " transform="matrix(1.241667,0,0,1.241667,1.137499,11.070836)"/>
<path style="fill:none;stroke-width:1.610738;stroke-linecap:round;stroke-linejoin:miter;stroke:rgb(61.56863%,22.745098%,60.784316%);stroke-opacity:1;stroke-miterlimit:4;" d="M 1.5 3.164426 L 22.499365 3.164426 " transform="matrix(1.241667,0,0,1.241667,1.137499,11.070836)"/>
<path style="fill:none;stroke-width:1.610738;stroke-linecap:round;stroke-linejoin:miter;stroke:rgb(90.196079%,0.784314%,70.588237%);stroke-opacity:1;stroke-miterlimit:4;" d="M 1.5 6.385902 L 22.499365 6.385902 " transform="matrix(1.241667,0,0,1.241667,1.137499,11.070836)"/>
<path style="fill-rule:evenodd;fill:rgb(94.117647%,89.019608%,92.54902%);fill-opacity:1;stroke-width:1.610738;stroke-linecap:round;stroke-linejoin:round;stroke:rgb(90.196079%,0.784314%,70.588237%);stroke-opacity:1;stroke-miterlimit:4;" d="M 15.976185 8.510986 L 20.040781 8.510986 C 21.374673 8.510986 22.456888 9.593201 22.456888 10.927093 L 22.456888 20.085018 C 22.456888 21.41891 21.374673 22.501125 20.040781 22.501125 L 15.976185 22.501125 C 14.642293 22.501125 13.560078 21.41891 13.560078 20.085018 L 13.560078 10.927093 C 13.560078 9.593201 14.642293 8.510986 15.976185 8.510986 Z M 15.976185 8.510986 " transform="matrix(1.241667,0,0,1.241667,1.201961,1.260314)"/>
<path style="fill-rule:evenodd;fill:rgb(95.294118%,71.764708%,85.09804%);fill-opacity:1;stroke-width:1.610738;stroke-linecap:round;stroke-linejoin:round;stroke:rgb(90.196079%,0.784314%,70.588237%);stroke-opacity:1;stroke-miterlimit:4;" d="M 17.91725 11.49966 L 18.083986 11.49966 C 19.417878 11.49966 20.500093 12.581874 20.500093 13.915766 L 20.500093 18.08418 C 20.500093 19.418072 19.417878 20.500286 18.083986 20.500286 L 17.91725 20.500286 C 16.580211 20.500286 15.501143 19.418072 15.501143 18.08418 L 15.501143 13.915766 C 15.501143 12.581874 16.580211 11.49966 17.91725 11.49966 Z M 17.91725 11.49966 " transform="matrix(1.241667,0,0,1.241667,1.201961,1.260314)"/>
<path style="fill:none;stroke-width:1.610738;stroke-linecap:round;stroke-linejoin:round;stroke:rgb(61.56863%,22.745098%,60.784316%);stroke-opacity:1;stroke-miterlimit:4;" d="M 18.420605 14.18632 C 18.420605 14.41283 18.234993 14.595296 18.005337 14.598442 C 17.775681 14.598442 17.590069 14.415976 17.586923 14.192612 C 17.583777 13.966102 17.766243 13.78049 17.995899 13.774198 C 18.225555 13.771052 18.414313 13.950372 18.420605 14.176882 L 18.002191 14.18632 Z M 18.420605 14.18632 " transform="matrix(1.241667,0,0,1.241667,1.201961,1.260314)"/>
<path style="fill:none;stroke-width:1.610738;stroke-linecap:round;stroke-linejoin:round;stroke:rgb(90.196079%,0.784314%,70.588237%);stroke-opacity:1;stroke-miterlimit:4;" d="M 17.948709 16.901294 L 17.948709 19.424364 " transform="matrix(1.241667,0,0,1.241667,1.201961,1.260314)"/>
</g>
</svg>
