<?xml version="1.0" encoding="UTF-8"?>
<svg xmlns="http://www.w3.org/2000/svg" xmlns:xlink="http://www.w3.org/1999/xlink" width="32px" height="32px" viewBox="0 0 32 32" version="1.1">
<g id="surface1">
<path style="fill-rule:evenodd;fill:rgb(94.117647%,89.019608%,92.54902%);fill-opacity:1;stroke-width:1;stroke-linecap:round;stroke-linejoin:round;stroke:rgb(90.196079%,0.784314%,70.588237%);stroke-opacity:1;stroke-miterlimit:4;" d="M 3.505859 1.5 L 12.5 1.5 C 13.052734 1.5 13.5 1.947266 13.5 2.5 L 13.5 13.466797 C 13.5 14.019531 13.052734 14.466797 12.5 14.466797 L 3.505859 14.466797 C 2.955078 14.466797 2.505859 14.019531 2.505859 13.466797 L 2.505859 2.5 C 2.505859 1.947266 2.955078 1.5 3.505859 1.5 Z M 3.505859 1.5 " transform="matrix(2,0,0,2,0,0)"/>
<path style="fill-rule:nonzero;fill:rgb(61.56863%,22.745098%,60.784316%);fill-opacity:1;stroke-width:0.25;stroke-linecap:butt;stroke-linejoin:miter;stroke:rgb(61.56863%,22.745098%,60.784316%);stroke-opacity:1;stroke-miterlimit:4;" d="M 4.113281 3.779297 C 4.150391 3.384766 4.429688 3.099609 4.78125 3.099609 C 5.013672 3.099609 5.228516 3.224609 5.349609 3.425781 C 5.46875 3.222656 5.673828 3.099609 5.902344 3.099609 C 6.253906 3.099609 6.533203 3.384766 6.570312 3.779297 C 6.572266 3.796875 6.583984 3.888672 6.548828 4.039062 C 6.498047 4.253906 6.378906 4.451172 6.207031 4.605469 L 5.349609 5.382812 L 4.476562 4.605469 C 4.304688 4.451172 4.185547 4.253906 4.134766 4.039062 C 4.099609 3.888672 4.111328 3.796875 4.113281 3.779297 Z M 4.226562 4.017578 C 4.273438 4.214844 4.382812 4.392578 4.539062 4.535156 L 5.349609 5.255859 L 6.144531 4.535156 C 6.302734 4.392578 6.410156 4.214844 6.457031 4.017578 C 6.490234 3.875 6.476562 3.794922 6.476562 3.794922 L 6.474609 3.791016 C 6.445312 3.445312 6.203125 3.193359 5.902344 3.193359 C 5.681641 3.193359 5.486328 3.330078 5.392578 3.548828 L 5.349609 3.652344 L 5.304688 3.548828 C 5.214844 3.333984 5.007812 3.193359 4.78125 3.193359 C 4.480469 3.193359 4.238281 3.445312 4.207031 3.794922 C 4.207031 3.794922 4.193359 3.875 4.226562 4.017578 Z M 4.226562 4.017578 " transform="matrix(2,0,0,2,0,0)"/>
<path style="fill:none;stroke-width:1;stroke-linecap:round;stroke-linejoin:miter;stroke:rgb(90.196079%,0.784314%,70.588237%);stroke-opacity:1;stroke-miterlimit:4;" d="M 4.9375 6.458984 L 11.345703 6.458984 " transform="matrix(2,0,0,2,0,0)"/>
<path style="fill:none;stroke-width:1;stroke-linecap:round;stroke-linejoin:miter;stroke:rgb(90.196079%,0.784314%,70.588237%);stroke-opacity:1;stroke-miterlimit:4;" d="M 4.5 8.453125 L 11.824219 8.453125 " transform="matrix(2,0,0,2,0,0)"/>
<path style=" stroke:none;fill-rule:nonzero;fill:rgb(61.56863%,22.745098%,60.784316%);fill-opacity:1;" d="M 4 10 L 28 10 C 29.105469 10 30 10.726562 30 11.625 L 30 14.375 C 30 15.273438 29.105469 16 28 16 L 4 16 C 2.894531 16 2 15.273438 2 14.375 L 2 11.625 C 2 10.726562 2.894531 10 4 10 Z M 4 10 "/>
<path style=" stroke:none;fill-rule:nonzero;fill:rgb(95.294118%,71.764708%,85.09804%);fill-opacity:1;" d="M 4 12 L 28 12 L 28 14 L 4 14 Z M 4 12 "/>
<path style="fill:none;stroke-width:1;stroke-linecap:round;stroke-linejoin:miter;stroke:rgb(90.196079%,0.784314%,70.588237%);stroke-opacity:1;stroke-miterlimit:4;" d="M 4.5 10.453125 L 11.824219 10.453125 " transform="matrix(2,0,0,2,0,0)"/>
</g>
</svg>
