<?xml version="1.0" encoding="UTF-8"?>
<svg xmlns="http://www.w3.org/2000/svg" xmlns:xlink="http://www.w3.org/1999/xlink" width="32px" height="32px" viewBox="0 0 32 32" version="1.1">
<g id="surface1">
<path style="fill-rule:nonzero;fill:rgb(95.294118%,71.764708%,85.09804%);fill-opacity:1;stroke-width:1;stroke-linecap:round;stroke-linejoin:round;stroke:rgb(90.196079%,0.784314%,70.588237%);stroke-opacity:1;stroke-miterlimit:4;" d="M 8 1.5 C 7.644531 1.501953 7.417969 1.519531 7.066406 1.568359 C 6.960938 1.583984 6.876953 1.652344 6.876953 1.757812 L 6.8125 2.779297 C 6.802734 2.882812 6.730469 2.951172 6.652344 2.976562 C 6.650391 2.976562 6.648438 2.978516 6.646484 2.978516 C 6.199219 3.099609 5.777344 3.273438 5.386719 3.5 C 5.316406 3.53125 5.224609 3.529297 5.150391 3.466797 L 4.380859 2.789062 C 4.306641 2.714844 4.199219 2.728516 4.113281 2.789062 C 3.830078 3.003906 3.654297 3.152344 3.402344 3.402344 C 3.152344 3.654297 3.003906 3.830078 2.789062 4.113281 C 2.728516 4.199219 2.714844 4.306641 2.789062 4.380859 L 3.466797 5.150391 C 3.517578 5.210938 3.546875 5.291016 3.517578 5.349609 L 3.511719 5.363281 C 3.267578 5.773438 3.078125 6.222656 2.955078 6.697266 C 2.955078 6.699219 2.953125 6.701172 2.953125 6.703125 C 2.917969 6.759766 2.859375 6.804688 2.779297 6.8125 L 1.757812 6.876953 C 1.652344 6.876953 1.583984 6.960938 1.568359 7.066406 C 1.519531 7.417969 1.501953 7.644531 1.5 8 C 1.501953 8.355469 1.519531 8.582031 1.568359 8.933594 C 1.583984 9.039062 1.652344 9.123047 1.757812 9.123047 L 2.779297 9.1875 C 2.873047 9.197266 2.935547 9.257812 2.966797 9.326172 C 3.085938 9.775391 3.265625 10.201172 3.494141 10.59375 C 3.535156 10.666016 3.535156 10.767578 3.466797 10.849609 L 2.789062 11.619141 C 2.714844 11.693359 2.728516 11.800781 2.789062 11.886719 C 3.003906 12.169922 3.152344 12.345703 3.402344 12.597656 C 3.654297 12.847656 3.830078 12.996094 4.113281 13.210938 C 4.199219 13.271484 4.306641 13.285156 4.380859 13.210938 L 5.150391 12.533203 C 5.232422 12.464844 5.333984 12.464844 5.40625 12.505859 L 5.416016 12.496094 C 5.798828 12.714844 6.210938 12.886719 6.646484 13.003906 L 6.646484 13.021484 C 6.726562 13.042969 6.802734 13.113281 6.8125 13.220703 L 6.876953 14.242188 C 6.876953 14.347656 6.960938 14.416016 7.066406 14.431641 C 7.417969 14.480469 7.644531 14.498047 8 14.5 C 8.355469 14.498047 8.582031 14.480469 8.933594 14.431641 C 9.039062 14.416016 9.123047 14.347656 9.123047 14.242188 L 9.1875 13.220703 C 9.197266 13.113281 9.273438 13.042969 9.353516 13.021484 L 9.353516 13.003906 C 9.789062 12.886719 10.201172 12.714844 10.583984 12.496094 L 10.59375 12.505859 C 10.666016 12.464844 10.767578 12.464844 10.849609 12.533203 L 11.619141 13.210938 C 11.693359 13.285156 11.800781 13.271484 11.886719 13.210938 C 12.169922 12.996094 12.345703 12.847656 12.597656 12.597656 C 12.847656 12.345703 12.996094 12.169922 13.210938 11.886719 C 13.271484 11.800781 13.285156 11.693359 13.210938 11.619141 L 12.533203 10.849609 C 12.464844 10.767578 12.464844 10.666016 12.505859 10.59375 C 12.734375 10.201172 12.914062 9.775391 13.033203 9.326172 C 13.064453 9.257812 13.126953 9.197266 13.220703 9.1875 L 14.242188 9.123047 C 14.347656 9.123047 14.416016 9.039062 14.431641 8.933594 C 14.480469 8.582031 14.498047 8.355469 14.5 8 C 14.498047 7.644531 14.480469 7.417969 14.431641 7.066406 C 14.416016 6.960938 14.347656 6.876953 14.242188 6.876953 L 13.220703 6.8125 C 13.140625 6.804688 13.082031 6.759766 13.046875 6.703125 C 13.046875 6.701172 13.044922 6.699219 13.044922 6.697266 C 12.921875 6.222656 12.703125 5.791016 12.488281 5.363281 L 12.482422 5.349609 C 12.453125 5.291016 12.482422 5.210938 12.533203 5.150391 L 13.210938 4.380859 C 13.285156 4.306641 13.271484 4.199219 13.210938 4.113281 C 12.996094 3.830078 12.847656 3.654297 12.597656 3.402344 C 12.345703 3.152344 12.169922 3.003906 11.886719 2.789062 C 11.800781 2.728516 11.693359 2.714844 11.619141 2.789062 L 10.849609 3.466797 C 10.775391 3.529297 10.683594 3.53125 10.613281 3.5 C 10.222656 3.273438 9.800781 3.099609 9.353516 2.978516 C 9.351562 2.978516 9.349609 2.976562 9.347656 2.976562 C 9.269531 2.951172 9.197266 2.882812 9.1875 2.779297 L 9.123047 1.757812 C 9.123047 1.652344 9.039062 1.583984 8.933594 1.568359 C 8.582031 1.519531 8.355469 1.501953 8 1.5 Z M 8 6.267578 C 8.957031 6.267578 9.734375 7.042969 9.734375 8 C 9.734375 8.957031 8.957031 9.732422 8 9.732422 C 7.042969 9.732422 6.267578 8.957031 6.267578 8 C 6.267578 7.042969 7.042969 6.267578 8 6.267578 Z M 8 6.267578 " transform="matrix(2,0,0,2,0,0)"/>
<path style=" stroke:none;fill-rule:nonzero;fill:rgb(61.56863%,22.745098%,60.784316%);fill-opacity:1;" d="M 19.984375 15.921875 C 19.984375 18.105469 18.210938 19.875 16.027344 19.875 C 13.84375 19.875 12.070312 18.105469 12.070312 15.921875 C 12.070312 13.738281 13.84375 11.964844 16.027344 11.964844 C 18.210938 11.964844 19.984375 13.738281 19.984375 15.921875 Z M 19.984375 15.921875 "/>
<path style="fill:none;stroke-width:1;stroke-linecap:round;stroke-linejoin:miter;stroke:rgb(61.56863%,22.745098%,60.784316%);stroke-opacity:1;stroke-miterlimit:4;" d="M 8.884766 7.902344 L 14.384766 7.902344 " transform="matrix(2,0,0,2,0,0)"/>
<path style="fill:none;stroke-width:1;stroke-linecap:round;stroke-linejoin:round;stroke:rgb(61.56863%,22.745098%,60.784316%);stroke-opacity:1;stroke-miterlimit:4;" d="M 12.384766 5.902344 L 14.384766 7.902344 L 12.384766 9.902344 " transform="matrix(2,0,0,2,0,0)"/>
</g>
</svg>
