<?xml version="1.0" encoding="UTF-8"?>
<svg xmlns="http://www.w3.org/2000/svg" xmlns:xlink="http://www.w3.org/1999/xlink" width="32px" height="32px" viewBox="0 0 32 32" version="1.1">
<g id="surface1">
<path style=" stroke:none;fill-rule:evenodd;fill:rgb(90.196079%,0.784314%,70.588237%);fill-opacity:1;" d="M 14.414062 6.484375 C 12.476562 8.417969 8.417969 10.148438 7 10.539062 C 7 16.625 11.082031 25.816406 16 25.816406 C 20.90625 25.816406 25 16.625 25 10.539062 C 23.582031 10.148438 19.523438 8.417969 17.585938 6.484375 C 17.035156 6.082031 14.964844 6.082031 14.414062 6.484375 Z M 14.414062 6.484375 "/>
<path style="fill-rule:nonzero;fill:rgb(95.294118%,71.764708%,85.09804%);fill-opacity:1;stroke-width:1;stroke-linecap:round;stroke-linejoin:round;stroke:rgb(90.196079%,0.784314%,70.588237%);stroke-opacity:1;stroke-miterlimit:4;" d="M 7.03125 2.183594 C 5.847656 3.367188 3.365234 4.423828 2.5 4.664062 C 2.5 8.380859 4.994141 14 8 14 C 10.998047 14 13.5 8.380859 13.5 4.664062 C 12.634766 4.423828 10.152344 3.367188 8.96875 2.183594 C 8.632812 1.939453 7.367188 1.939453 7.03125 2.183594 Z M 7.03125 2.183594 " transform="matrix(2,0,0,2,0,0)"/>
<path style="fill:none;stroke-width:1;stroke-linecap:round;stroke-linejoin:round;stroke:rgb(61.56863%,22.745098%,60.784316%);stroke-opacity:1;stroke-miterlimit:4;" d="M 5.5 7.5 L 7.5 10 L 11 6.5 " transform="matrix(2,0,0,2,0,0)"/>
</g>
</svg>
