<?xml version="1.0" encoding="UTF-8"?>
<svg xmlns="http://www.w3.org/2000/svg" xmlns:xlink="http://www.w3.org/1999/xlink" width="32px" height="32px" viewBox="0 0 32 32" version="1.1">
<g id="surface1">
<path style=" stroke:none;fill-rule:nonzero;fill:rgb(33.333334%,34.117648%,32.549021%);fill-opacity:1;" d="M 4 2 C 2.890625 2 2 2.890625 2 4 L 2 28 C 2 29.109375 2.890625 30 4 30 L 6 30 L 6 18 L 26 18 L 26 30 L 28 30 C 29.109375 30 30 29.109375 30 28 L 30 4 C 30 2.890625 29.109375 2 28 2 Z M 6 6 L 26 6 L 26 14 L 6 14 Z M 8 20 L 8 30 L 24 30 L 24 20 Z M 12 22 L 16 22 L 16 28 L 12 28 Z M 12 22 "/>
</g>
</svg>
