<?xml version="1.0" encoding="UTF-8"?>
<svg xmlns="http://www.w3.org/2000/svg" xmlns:xlink="http://www.w3.org/1999/xlink" width="32px" height="32px" viewBox="0 0 32 32" version="1.1">
<defs>
<clipPath id="clip1">
  <path d="M 12 12 L 30 12 L 30 30 L 12 30 Z M 12 12 "/>
</clipPath>
<clipPath id="clip2">
  <path d="M 15.976562 11.703125 L 11.652344 15.96875 L 11.652344 30.1875 L 31.109375 30.1875 L 31.109375 11.703125 Z M 15.976562 11.703125 "/>
</clipPath>
<clipPath id="clip3">
  <path d="M 19 13 L 25 13 L 25 17 L 19 17 Z M 19 13 "/>
</clipPath>
<clipPath id="clip4">
  <path d="M 14.207031 13.207031 L 28.027344 13.207031 C 29.441406 13.207031 30.585938 14.417969 30.585938 15.90625 L 30.585938 26.035156 C 30.585938 27.527344 29.441406 28.734375 28.027344 28.734375 L 14.207031 28.734375 C 12.792969 28.734375 11.644531 27.527344 11.644531 26.035156 L 11.644531 15.90625 C 11.644531 14.417969 12.792969 13.207031 14.207031 13.207031 Z M 14.207031 13.207031 "/>
</clipPath>
<clipPath id="clip5">
  <path d="M 18 13 L 26 13 L 26 17 L 18 17 Z M 18 13 "/>
</clipPath>
<clipPath id="clip6">
  <path d="M 14.207031 13.207031 L 28.027344 13.207031 C 29.441406 13.207031 30.585938 14.417969 30.585938 15.90625 L 30.585938 26.035156 C 30.585938 27.527344 29.441406 28.734375 28.027344 28.734375 L 14.207031 28.734375 C 12.792969 28.734375 11.644531 27.527344 11.644531 26.035156 L 11.644531 15.90625 C 11.644531 14.417969 12.792969 13.207031 14.207031 13.207031 Z M 14.207031 13.207031 "/>
</clipPath>
<clipPath id="clip7">
  <path d="M 15 20 L 27 20 L 27 29 L 15 29 Z M 15 20 "/>
</clipPath>
<clipPath id="clip8">
  <path d="M 13.019531 12.65625 L 28.261719 12.65625 C 29.824219 12.65625 31.085938 13.90625 31.085938 15.449219 L 31.085938 25.917969 C 31.085938 27.460938 29.824219 28.710938 28.261719 28.710938 L 13.019531 28.710938 C 11.460938 28.710938 10.195312 27.460938 10.195312 25.917969 L 10.195312 15.449219 C 10.195312 13.90625 11.460938 12.65625 13.019531 12.65625 Z M 13.019531 12.65625 "/>
</clipPath>
<clipPath id="clip9">
  <path d="M 15 19 L 27 19 L 27 29 L 15 29 Z M 15 19 "/>
</clipPath>
<clipPath id="clip10">
  <path d="M 13.019531 12.65625 L 28.261719 12.65625 C 29.824219 12.65625 31.085938 13.90625 31.085938 15.449219 L 31.085938 25.917969 C 31.085938 27.460938 29.824219 28.710938 28.261719 28.710938 L 13.019531 28.710938 C 11.460938 28.710938 10.195312 27.460938 10.195312 25.917969 L 10.195312 15.449219 C 10.195312 13.90625 11.460938 12.65625 13.019531 12.65625 Z M 13.019531 12.65625 "/>
</clipPath>
</defs>
<g id="surface1">
<path style="fill-rule:evenodd;fill:rgb(94.117647%,89.019608%,92.54902%);fill-opacity:1;stroke-width:1.009451;stroke-linecap:round;stroke-linejoin:round;stroke:rgb(90.196079%,0.784314%,70.588237%);stroke-opacity:1;stroke-miterlimit:4;" d="M 2.261378 5.170133 L 12.299489 5.170133 C 12.854439 5.170133 13.303496 5.624074 13.303496 6.185058 L 13.303496 17.242191 C 13.303496 17.803175 12.854439 18.257116 12.299489 18.257116 L 2.261378 18.257116 C 1.706428 18.257116 1.257371 17.803175 1.257371 17.242191 L 1.257371 6.185058 C 1.257371 5.624074 1.706428 5.170133 2.261378 5.170133 Z M 2.261378 5.170133 " transform="matrix(1.992018,0,0,1.970589,0.546077,-7.16477)"/>
<path style="fill-rule:nonzero;fill:rgb(61.56863%,22.745098%,60.784316%);fill-opacity:1;stroke-width:0.252363;stroke-linecap:butt;stroke-linejoin:miter;stroke:rgb(61.56863%,22.745098%,60.784316%);stroke-opacity:1;stroke-miterlimit:4;" d="M 3.673263 8.002805 C 3.70856 7.586527 3.99682 7.283239 4.355674 7.283239 C 4.592949 7.283239 4.812576 7.416051 4.936116 7.628155 C 5.057695 7.412087 5.267517 7.283239 5.502831 7.283239 C 5.861685 7.283239 6.147984 7.586527 6.185242 8.002805 C 6.187203 8.020645 6.198969 8.117777 6.163672 8.276359 C 6.110726 8.504321 5.989147 8.71246 5.814622 8.876988 L 4.936116 9.69765 L 4.043883 8.876988 C 3.867397 8.71246 3.745818 8.504321 3.694833 8.276359 C 3.657575 8.117777 3.669341 8.020645 3.673263 8.002805 Z M 3.788959 8.254554 C 3.836022 8.462693 3.947796 8.652991 4.108594 8.803644 L 4.936116 9.564838 L 5.749911 8.803644 C 5.910709 8.652991 6.020522 8.462693 6.069546 8.254554 C 6.102882 8.103901 6.089155 8.018663 6.089155 8.018663 L 6.087194 8.014699 C 6.055819 7.647978 5.8107 7.382353 5.502831 7.382353 C 5.27536 7.382353 5.075343 7.527059 4.981218 7.758985 L 4.936116 7.86801 L 4.891014 7.758985 C 4.796888 7.531023 4.587066 7.382353 4.355674 7.382353 C 4.047805 7.382353 3.800725 7.647978 3.76935 8.018663 C 3.76935 8.018663 3.753662 8.103901 3.788959 8.254554 Z M 3.788959 8.254554 " transform="matrix(1.992018,0,0,1.970589,0.546077,-7.16477)"/>
<path style="fill:none;stroke-width:1.009451;stroke-linecap:round;stroke-linejoin:miter;stroke:rgb(90.196079%,0.784314%,70.588237%);stroke-opacity:1;stroke-miterlimit:4;" d="M 3.792881 10.777991 L 11.132723 10.777991 " transform="matrix(1.992018,0,0,1.970589,0.546077,-7.16477)"/>
<path style="fill:none;stroke-width:1.009451;stroke-linecap:round;stroke-linejoin:miter;stroke:rgb(90.196079%,0.784314%,70.588237%);stroke-opacity:1;stroke-miterlimit:4;" d="M 3.792881 12.647276 L 11.132723 12.647276 " transform="matrix(1.992018,0,0,1.970589,0.546077,-7.16477)"/>
<path style="fill:none;stroke-width:1.009451;stroke-linecap:round;stroke-linejoin:miter;stroke:rgb(90.196079%,0.784314%,70.588237%);stroke-opacity:1;stroke-miterlimit:4;" d="M 3.792881 14.518544 L 11.132723 14.518544 " transform="matrix(1.992018,0,0,1.970589,0.546077,-7.16477)"/>
<g clip-path="url(#clip1)" clip-rule="nonzero">
<g clip-path="url(#clip2)" clip-rule="nonzero">
<path style="fill-rule:evenodd;fill:rgb(95.294118%,71.764708%,85.09804%);fill-opacity:1;stroke-width:0.69846;stroke-linecap:round;stroke-linejoin:round;stroke:rgb(90.196079%,0.784314%,70.588237%);stroke-opacity:1;stroke-miterlimit:4;" d="M 3.714288 2.118754 L 12.310361 2.118754 C 13.177557 2.118754 13.879443 2.788987 13.879443 3.61579 L 13.879443 12.394739 C 13.879443 13.221543 13.177557 13.891776 12.310361 13.891776 L 3.714288 13.891776 C 2.847092 13.891776 2.142496 13.221543 2.142496 12.394739 L 2.142496 3.61579 C 2.142496 2.788987 2.847092 2.118754 3.714288 2.118754 Z M 3.714288 2.118754 " transform="matrix(1.441428,0,0,1.422081,9.48987,9.568991)"/>
</g>
</g>
<path style="fill:none;stroke-width:0.453104;stroke-linecap:butt;stroke-linejoin:bevel;stroke:rgb(90.196079%,0.784314%,70.588237%);stroke-opacity:1;stroke-miterlimit:4;" d="M 2.144638 15.813308 L 3.63798 14.258268 " transform="matrix(2.236489,0,0,2.177897,7.980885,-18.638979)"/>
<g clip-path="url(#clip3)" clip-rule="nonzero">
<g clip-path="url(#clip4)" clip-rule="nonzero">
<path style=" stroke:none;fill-rule:evenodd;fill:rgb(94.117647%,89.019608%,92.54902%);fill-opacity:1;" d="M 20 11.484375 L 23.6875 11.484375 C 24.226562 11.484375 24.664062 11.824219 24.664062 12.242188 L 24.664062 15.65625 C 24.664062 16.074219 24.226562 16.414062 23.6875 16.414062 L 20 16.414062 C 19.460938 16.414062 19.023438 16.074219 19.023438 15.65625 L 19.023438 12.242188 C 19.023438 11.824219 19.460938 11.484375 20 11.484375 Z M 20 11.484375 "/>
</g>
</g>
<g clip-path="url(#clip5)" clip-rule="nonzero">
<g clip-path="url(#clip6)" clip-rule="nonzero">
<path style="fill:none;stroke-width:0.714837;stroke-linecap:butt;stroke-linejoin:bevel;stroke:rgb(90.196079%,0.784314%,70.588237%);stroke-opacity:1;stroke-miterlimit:4;" d="M 7.025089 9.359873 L 9.731861 9.359873 C 10.127554 9.359873 10.448696 9.59645 10.448696 9.887413 L 10.448696 12.264065 C 10.448696 12.555028 10.127554 12.791605 9.731861 12.791605 L 7.025089 12.791605 C 6.629396 12.791605 6.308253 12.555028 6.308253 12.264065 L 6.308253 9.887413 C 6.308253 9.59645 6.629396 9.359873 7.025089 9.359873 Z M 7.025089 9.359873 " transform="matrix(1.362324,0,0,1.436501,10.429552,-1.961091)"/>
</g>
</g>
<g clip-path="url(#clip7)" clip-rule="nonzero">
<g clip-path="url(#clip8)" clip-rule="nonzero">
<path style=" stroke:none;fill-rule:evenodd;fill:rgb(94.117647%,89.019608%,92.54902%);fill-opacity:1;" d="M 17.140625 20.359375 L 24.992188 20.359375 C 25.714844 20.359375 26.304688 21.128906 26.304688 22.082031 L 26.304688 29.070312 C 26.304688 30.019531 25.714844 30.789062 24.992188 30.789062 L 17.140625 30.789062 C 16.417969 30.789062 15.832031 30.019531 15.832031 29.070312 L 15.832031 22.082031 C 15.832031 21.128906 16.417969 20.359375 17.140625 20.359375 Z M 17.140625 20.359375 "/>
</g>
</g>
<g clip-path="url(#clip9)" clip-rule="nonzero">
<g clip-path="url(#clip10)" clip-rule="nonzero">
<path style="fill:none;stroke-width:0.669417;stroke-linecap:butt;stroke-linejoin:bevel;stroke:rgb(90.196079%,0.784314%,70.588237%);stroke-opacity:1;stroke-miterlimit:4;" d="M 5.513897 15.745489 L 10.739608 15.745489 C 11.220581 15.745489 11.613159 16.263609 11.613159 16.905341 L 11.613159 21.610501 C 11.613159 22.249603 11.220581 22.767723 10.739608 22.767723 L 5.513897 22.767723 C 5.032924 22.767723 4.642946 22.249603 4.642946 21.610501 L 4.642946 16.905341 C 4.642946 16.263609 5.032924 15.745489 5.513897 15.745489 Z M 5.513897 15.745489 " transform="matrix(1.502487,0,0,1.485238,8.856065,-3.026424)"/>
</g>
</g>
<path style="fill-rule:nonzero;fill:rgb(61.56863%,22.745098%,60.784316%);fill-opacity:1;stroke-width:0.226552;stroke-linecap:round;stroke-linejoin:round;stroke:rgb(61.56863%,22.745098%,60.784316%);stroke-opacity:1;stroke-miterlimit:4;" d="M 4.195146 18.892899 C 4.210865 18.729682 4.333127 18.609512 4.486828 18.609512 C 4.58813 18.609512 4.6807 18.661526 4.733098 18.745824 C 4.785496 18.661526 4.874573 18.609512 4.975876 18.609512 C 5.12783 18.609512 5.250092 18.729682 5.265811 18.892899 C 5.267558 18.900073 5.272797 18.937738 5.257078 19.000514 C 5.234372 19.090193 5.183721 19.170905 5.108617 19.235474 L 4.734845 19.55832 L 4.354086 19.235474 C 4.278982 19.170905 4.226584 19.090193 4.205625 19.000514 C 4.189906 18.937738 4.195146 18.900073 4.195146 18.892899 Z M 4.245797 18.991546 C 4.26501 19.074051 4.312168 19.147588 4.382032 19.206777 L 4.733098 19.506306 L 5.080671 19.206777 C 5.148789 19.147588 5.195947 19.074051 5.216906 18.991546 C 5.230879 18.932358 5.225639 18.900073 5.225639 18.898279 L 5.225639 18.896486 C 5.211666 18.752999 5.10687 18.648971 4.975876 18.648971 C 4.878066 18.648971 4.792483 18.706366 4.752311 18.796045 L 4.733098 18.839091 L 4.715632 18.796045 C 4.67546 18.708159 4.584637 18.648971 4.486828 18.648971 C 4.355833 18.648971 4.251037 18.752999 4.237064 18.898279 C 4.237064 18.900073 4.230078 18.932358 4.245797 18.991546 Z M 4.245797 18.991546 " transform="matrix(2.236489,0,0,2.177897,7.980885,-18.638979)"/>
<path style="fill:none;stroke-width:0.453104;stroke-linecap:round;stroke-linejoin:miter;stroke:rgb(90.196079%,0.784314%,70.588237%);stroke-opacity:1;stroke-miterlimit:4;" d="M 4.242304 19.949322 L 7.475259 19.949322 " transform="matrix(2.236489,0,0,2.177897,7.980885,-18.638979)"/>
<path style="fill:none;stroke-width:0.453104;stroke-linecap:round;stroke-linejoin:miter;stroke:rgb(90.196079%,0.784314%,70.588237%);stroke-opacity:1;stroke-miterlimit:4;" d="M 4.230078 21.13309 L 7.461286 21.13309 " transform="matrix(2.236489,0,0,2.177897,7.980885,-18.638979)"/>
<path style="fill-rule:evenodd;fill:rgb(95.294118%,71.764708%,85.09804%);fill-opacity:1;stroke-width:0.453104;stroke-linecap:round;stroke-linejoin:bevel;stroke:rgb(90.196079%,0.784314%,70.588237%);stroke-opacity:1;stroke-miterlimit:4;" d="M 5.714687 14.886023 C 5.782804 14.886023 5.838696 14.973909 5.838696 15.081525 C 5.838696 15.18914 5.782804 15.277026 5.714687 15.277026 C 5.64657 15.277026 5.590679 15.18914 5.590679 15.081525 C 5.590679 14.973909 5.64657 14.886023 5.714687 14.886023 Z M 5.714687 14.886023 " transform="matrix(2.236489,0,0,2.177897,7.980885,-18.638979)"/>
</g>
</svg>
