<?xml version="1.0" encoding="UTF-8"?>
<svg xmlns="http://www.w3.org/2000/svg" xmlns:xlink="http://www.w3.org/1999/xlink" width="32px" height="32px" viewBox="0 0 32 32" version="1.1">
<defs>
<clipPath id="clip1">
  <path d="M 3 2 L 30 2 L 30 29 L 3 29 Z M 3 2 "/>
</clipPath>
<clipPath id="clip2">
  <path d="M 8.234375 1.617188 L 1.585938 8.246094 L 1.585938 30.335938 L 31.492188 30.335938 L 31.492188 1.617188 Z M 8.234375 1.617188 "/>
</clipPath>
<clipPath id="clip3">
  <path d="M 2 1 L 31 1 L 31 30 L 2 30 Z M 2 1 "/>
</clipPath>
<clipPath id="clip4">
  <path d="M 8.234375 1.617188 L 1.585938 8.246094 L 1.585938 30.335938 L 31.492188 30.335938 L 31.492188 1.617188 Z M 8.234375 1.617188 "/>
</clipPath>
<clipPath id="clip5">
  <path d="M 12 3 L 22 3 L 22 9 L 12 9 Z M 12 3 "/>
</clipPath>
<clipPath id="clip6">
  <path d="M 5.511719 3.957031 L 26.75 3.957031 C 28.921875 3.957031 30.683594 5.835938 30.683594 8.152344 L 30.683594 23.882812 C 30.683594 26.199219 28.921875 28.078125 26.75 28.078125 L 5.511719 28.078125 C 3.335938 28.078125 1.574219 26.199219 1.574219 23.882812 L 1.574219 8.152344 C 1.574219 5.835938 3.335938 3.957031 5.511719 3.957031 Z M 5.511719 3.957031 "/>
</clipPath>
<clipPath id="clip7">
  <path d="M 11 3 L 23 3 L 23 10 L 11 10 Z M 11 3 "/>
</clipPath>
<clipPath id="clip8">
  <path d="M 5.511719 3.957031 L 26.75 3.957031 C 28.921875 3.957031 30.683594 5.835938 30.683594 8.152344 L 30.683594 23.882812 C 30.683594 26.199219 28.921875 28.078125 26.75 28.078125 L 5.511719 28.078125 C 3.335938 28.078125 1.574219 26.199219 1.574219 23.882812 L 1.574219 8.152344 C 1.574219 5.835938 3.335938 3.957031 5.511719 3.957031 Z M 5.511719 3.957031 "/>
</clipPath>
<clipPath id="clip9">
  <path d="M 8 15 L 25 15 L 25 29 L 8 29 Z M 8 15 "/>
</clipPath>
<clipPath id="clip10">
  <path d="M 3.691406 3.101562 L 27.113281 3.101562 C 29.511719 3.101562 31.453125 5.042969 31.453125 7.4375 L 31.453125 23.703125 C 31.453125 26.101562 29.511719 28.042969 27.113281 28.042969 L 3.691406 28.042969 C 1.292969 28.042969 -0.652344 26.101562 -0.652344 23.703125 L -0.652344 7.4375 C -0.652344 5.042969 1.292969 3.101562 3.691406 3.101562 Z M 3.691406 3.101562 "/>
</clipPath>
<clipPath id="clip11">
  <path d="M 7 14 L 26 14 L 26 29 L 7 29 Z M 7 14 "/>
</clipPath>
<clipPath id="clip12">
  <path d="M 3.691406 3.101562 L 27.113281 3.101562 C 29.511719 3.101562 31.453125 5.042969 31.453125 7.4375 L 31.453125 23.703125 C 31.453125 26.101562 29.511719 28.042969 27.113281 28.042969 L 3.691406 28.042969 C 1.292969 28.042969 -0.652344 26.101562 -0.652344 23.703125 L -0.652344 7.4375 C -0.652344 5.042969 1.292969 3.101562 3.691406 3.101562 Z M 3.691406 3.101562 "/>
</clipPath>
</defs>
<g id="surface1">
<g clip-path="url(#clip1)" clip-rule="nonzero">
<g clip-path="url(#clip2)" clip-rule="nonzero">
<path style=" stroke:none;fill-rule:evenodd;fill:rgb(95.294118%,71.764708%,85.09804%);fill-opacity:1;" d="M 6.773438 2.988281 L 25.25 2.988281 C 27.328125 2.988281 29.011719 4.671875 29.011719 6.746094 L 29.011719 25.230469 C 29.011719 27.304688 27.328125 28.988281 25.25 28.988281 L 6.773438 28.988281 C 4.695312 28.988281 3.011719 27.304688 3.011719 25.230469 L 3.011719 6.746094 C 3.011719 4.671875 4.695312 2.988281 6.773438 2.988281 Z M 6.773438 2.988281 "/>
</g>
</g>
<g clip-path="url(#clip3)" clip-rule="nonzero">
<g clip-path="url(#clip4)" clip-rule="nonzero">
<path style="fill:none;stroke-width:0.904136;stroke-linecap:round;stroke-linejoin:round;stroke:rgb(90.196079%,0.784314%,70.588237%);stroke-opacity:1;stroke-miterlimit:4;" d="M 3.84131 2.120167 L 12.182607 2.120167 C 13.120783 2.120167 13.880846 2.882303 13.880846 3.821267 L 13.880846 12.18884 C 13.880846 13.127805 13.120783 13.88994 12.182607 13.88994 L 3.84131 13.88994 C 2.903134 13.88994 2.143071 13.127805 2.143071 12.18884 L 2.143071 3.821267 C 2.143071 2.882303 2.903134 2.120167 3.84131 2.120167 Z M 3.84131 2.120167 " transform="matrix(2.215071,0,0,2.209049,-1.735334,-1.695272)"/>
</g>
</g>
<path style="fill:none;stroke-width:0.58653;stroke-linecap:butt;stroke-linejoin:bevel;stroke:rgb(90.196079%,0.784314%,70.588237%);stroke-opacity:1;stroke-miterlimit:4;" d="M 1.80823 16.04088 L 3.301692 14.486752 " transform="matrix(3.436855,0,0,3.383128,-2.898217,-46.28397)"/>
<g clip-path="url(#clip5)" clip-rule="nonzero">
<g clip-path="url(#clip6)" clip-rule="nonzero">
<path style=" stroke:none;fill-rule:evenodd;fill:rgb(94.117647%,89.019608%,92.54902%);fill-opacity:1;" d="M 14.226562 1.28125 L 20.269531 1.28125 C 20.996094 1.28125 21.582031 2.050781 21.582031 3.003906 L 21.582031 7.214844 C 21.582031 8.164062 20.996094 8.9375 20.269531 8.9375 L 14.226562 8.9375 C 13.503906 8.9375 12.917969 8.164062 12.917969 7.214844 L 12.917969 3.003906 C 12.917969 2.050781 13.503906 1.28125 14.226562 1.28125 Z M 14.226562 1.28125 "/>
</g>
</g>
<g clip-path="url(#clip7)" clip-rule="nonzero">
<g clip-path="url(#clip8)" clip-rule="nonzero">
<path style="fill:none;stroke-width:0.925335;stroke-linecap:butt;stroke-linejoin:bevel;stroke:rgb(90.196079%,0.784314%,70.588237%);stroke-opacity:1;stroke-miterlimit:4;" d="M 6.934705 9.360401 L 9.821231 9.360401 C 10.168286 9.360401 10.448168 9.705258 10.448168 10.132391 L 10.448168 12.019478 C 10.448168 12.44486 10.168286 12.791468 9.821231 12.791468 L 6.934705 12.791468 C 6.589516 12.791468 6.309633 12.44486 6.309633 12.019478 L 6.309633 10.132391 C 6.309633 9.705258 6.589516 9.360401 6.934705 9.360401 Z M 6.934705 9.360401 " transform="matrix(2.093509,0,0,2.231449,-0.291308,-19.606005)"/>
</g>
</g>
<g clip-path="url(#clip9)" clip-rule="nonzero">
<g clip-path="url(#clip10)" clip-rule="nonzero">
<path style=" stroke:none;fill-rule:evenodd;fill:rgb(94.117647%,89.019608%,92.54902%);fill-opacity:1;" d="M 9.320312 15.070312 L 22.789062 15.070312 C 23.515625 15.070312 24.101562 15.839844 24.101562 16.789062 L 24.101562 29.550781 C 24.101562 30.5 23.515625 31.269531 22.789062 31.269531 L 9.320312 31.269531 C 8.59375 31.269531 8.007812 30.5 8.007812 29.550781 L 8.007812 16.789062 C 8.007812 15.839844 8.59375 15.070312 9.320312 15.070312 Z M 9.320312 15.070312 "/>
</g>
</g>
<g clip-path="url(#clip11)" clip-rule="nonzero">
<g clip-path="url(#clip12)" clip-rule="nonzero">
<path style="fill:none;stroke-width:0.866541;stroke-linecap:butt;stroke-linejoin:bevel;stroke:rgb(90.196079%,0.784314%,70.588237%);stroke-opacity:1;stroke-miterlimit:4;" d="M 5.21011 15.747175 L 11.043514 15.747175 C 11.358193 15.747175 11.611967 16.080716 11.611967 16.49214 L 11.611967 22.023502 C 11.611967 22.434926 11.358193 22.768467 11.043514 22.768467 L 5.21011 22.768467 C 4.895431 22.768467 4.641658 22.434926 4.641658 22.023502 L 4.641658 16.49214 C 4.641658 16.080716 4.895431 15.747175 5.21011 15.747175 Z M 5.21011 15.747175 " transform="matrix(2.308901,0,0,2.307157,-2.709314,-21.260885)"/>
</g>
</g>
<path style="fill-rule:nonzero;fill:rgb(61.56863%,22.745098%,60.784316%);fill-opacity:1;stroke-width:0.146632;stroke-linecap:round;stroke-linejoin:round;stroke:rgb(61.56863%,22.745098%,60.784316%);stroke-opacity:1;stroke-miterlimit:4;" d="M 3.859751 19.12027 C 3.874526 18.956313 3.997277 18.837386 4.149578 18.837386 C 4.25187 18.837386 4.345069 18.890499 4.397352 18.973632 C 4.449634 18.889344 4.538287 18.837386 4.639443 18.837386 C 4.791744 18.837386 4.913358 18.956313 4.92927 19.12027 C 4.930406 19.128352 4.936089 19.166455 4.920177 19.22765 C 4.898582 19.317711 4.8463 19.399689 4.771286 19.464348 L 4.397352 19.786489 L 4.017735 19.464348 C 3.942721 19.399689 3.890439 19.317711 3.868844 19.22765 C 3.852932 19.166455 3.858614 19.128352 3.859751 19.12027 Z M 3.908624 19.219568 C 3.929082 19.301546 3.975682 19.375442 4.045013 19.434328 L 4.397352 19.733376 L 4.744008 19.434328 C 4.813339 19.375442 4.859939 19.301546 4.880397 19.219568 C 4.895172 19.160682 4.888353 19.127197 4.888353 19.127197 L 4.888353 19.124888 C 4.874714 18.981714 4.770149 18.876643 4.639443 18.876643 C 4.541697 18.876643 4.456454 18.93322 4.416674 19.024436 L 4.397352 19.067157 L 4.37803 19.024436 C 4.33825 18.935529 4.249597 18.877798 4.149578 18.877798 C 4.018872 18.877798 3.914307 18.981714 3.900668 19.127197 C 3.900668 19.127197 3.893848 19.160682 3.908624 19.219568 Z M 3.908624 19.219568 " transform="matrix(3.436855,0,0,3.383128,-2.898217,-46.28397)"/>
<path style="fill:none;stroke-width:0.58653;stroke-linecap:round;stroke-linejoin:miter;stroke:rgb(90.196079%,0.784314%,70.588237%);stroke-opacity:1;stroke-miterlimit:4;" d="M 3.906351 20.176753 L 7.138775 20.176753 " transform="matrix(3.436855,0,0,3.383128,-2.898217,-46.28397)"/>
<path style="fill:none;stroke-width:0.58653;stroke-linecap:round;stroke-linejoin:miter;stroke:rgb(90.196079%,0.784314%,70.588237%);stroke-opacity:1;stroke-miterlimit:4;" d="M 3.893848 21.3614 L 7.125136 21.3614 " transform="matrix(3.436855,0,0,3.383128,-2.898217,-46.28397)"/>
<path style="fill-rule:evenodd;fill:rgb(95.294118%,71.764708%,85.09804%);fill-opacity:1;stroke-width:0.293265;stroke-linecap:round;stroke-linejoin:bevel;stroke:rgb(90.196079%,0.784314%,70.588237%);stroke-opacity:1;stroke-miterlimit:4;" d="M 5.372535 15.11256 L 5.382764 15.11256 C 5.448685 15.11256 5.502105 15.176064 5.502105 15.253424 L 5.502105 15.620596 C 5.502105 15.697956 5.448685 15.76146 5.382764 15.76146 L 5.372535 15.76146 C 5.306613 15.76146 5.254331 15.697956 5.254331 15.620596 L 5.254331 15.253424 C 5.254331 15.176064 5.306613 15.11256 5.372535 15.11256 Z M 5.372535 15.11256 " transform="matrix(3.436855,0,0,3.383128,-2.898217,-46.28397)"/>
<path style="fill-rule:nonzero;fill:rgb(94.117647%,89.019608%,92.54902%);fill-opacity:1;stroke-width:0.817946;stroke-linecap:butt;stroke-linejoin:round;stroke:rgb(61.56863%,22.745098%,60.784316%);stroke-opacity:1;stroke-miterlimit:4;" d="M 8.675333 11.233328 C 9.33583 9.972665 9.33583 9.972665 10.663215 9.457326 L 11.668875 12.581301 Z M 8.675333 11.233328 " transform="matrix(1.833374,0,0,-1.834352,0.415184,31.426186)"/>
<path style="fill:none;stroke-width:0.817946;stroke-linecap:round;stroke-linejoin:miter;stroke:rgb(61.56863%,22.745098%,60.784316%);stroke-opacity:1;stroke-miterlimit:4;" d="M 11.668875 12.581301 L 12.668143 13.701418 " transform="matrix(1.833374,0,0,-1.834352,0.415184,31.426186)"/>
<path style="fill-rule:nonzero;fill:rgb(95.294118%,71.764708%,85.09804%);fill-opacity:1;stroke-width:0.817946;stroke-linecap:round;stroke-linejoin:round;stroke:rgb(61.56863%,22.745098%,60.784316%);stroke-opacity:1;stroke-miterlimit:4;" d="M 1.840257 1.918899 L 2.172636 1.622899 C 2.630722 1.211905 3.372183 1.297085 3.8324 1.814554 L 10.330836 9.084664 C 10.791053 9.600002 12.293151 12.023373 11.832934 12.434366 L 11.502685 12.730366 C 11.042468 13.14136 8.803171 11.378134 8.340823 10.860666 L 1.844518 3.590556 C 1.384301 3.073088 1.38217 2.327763 1.840257 1.918899 Z M 1.840257 1.918899 " transform="matrix(1.833374,0,0,-1.834352,0.415184,31.426186)"/>
<path style="fill:none;stroke-width:0.817946;stroke-linecap:butt;stroke-linejoin:miter;stroke:rgb(61.56863%,22.745098%,60.784316%);stroke-opacity:1;stroke-miterlimit:4;" d="M 8.675333 11.233328 C 9.003451 9.600002 9.003451 9.600002 10.663215 9.457326 " transform="matrix(1.833374,0,0,-1.834352,0.415184,31.426186)"/>
<path style="fill-rule:nonzero;fill:rgb(94.117647%,89.019608%,92.54902%);fill-opacity:1;stroke-width:0.817946;stroke-linecap:round;stroke-linejoin:round;stroke:rgb(61.56863%,22.745098%,60.784316%);stroke-opacity:1;stroke-miterlimit:4;" d="M 5.332367 3.49047 C 3.847315 3.82906 3.847315 3.82906 3.344485 5.268601 C 3.506413 5.449609 4.194608 6.220487 4.343752 6.386588 C 4.67187 4.753262 4.67187 4.753262 6.331635 4.610586 C 6.222972 4.489205 5.558214 3.74388 5.332367 3.49047 Z M 5.332367 3.49047 " transform="matrix(1.833374,0,0,-1.834352,0.415184,31.426186)"/>
<path style="fill-rule:nonzero;fill:rgb(94.117647%,89.019608%,92.54902%);fill-opacity:1;stroke-width:0.817946;stroke-linecap:round;stroke-linejoin:round;stroke:rgb(61.56863%,22.745098%,60.784316%);stroke-opacity:1;stroke-miterlimit:4;" d="M 10.330836 9.084664 C 10.840058 9.655369 12.293151 12.023373 11.832934 12.434366 L 11.502685 12.730366 C 11.042468 13.14136 8.811694 11.388782 8.340823 10.860666 C 9.003451 9.600002 9.003451 9.600002 10.330836 9.084664 Z M 10.330836 9.084664 " transform="matrix(1.833374,0,0,-1.834352,0.415184,31.426186)"/>
<path style="fill:none;stroke-width:0.817946;stroke-linecap:round;stroke-linejoin:round;stroke:rgb(61.56863%,22.745098%,60.784316%);stroke-opacity:1;stroke-miterlimit:4;" d="M 4.00072 1.99982 L 4.330969 1.70382 C 4.66974 1.401431 5.334498 1.492999 5.660485 1.857144 L 9.325177 5.958559 " transform="matrix(1.833374,0,0,-1.834352,0.415184,31.426186)"/>
<path style="fill-rule:nonzero;fill:rgb(61.56863%,22.745098%,60.784316%);fill-opacity:1;stroke-width:0.817946;stroke-linecap:round;stroke-linejoin:round;stroke:rgb(61.56863%,22.745098%,60.784316%);stroke-opacity:1;stroke-miterlimit:4;" d="M 3.484018 10.655773 C 3.483016 10.931891 3.258887 11.157131 2.982751 11.155982 C 2.708204 11.156253 2.482831 10.932018 2.483834 10.655899 C 2.483418 10.381369 2.707547 10.156129 2.983683 10.157278 C 3.259649 10.155419 3.483602 10.381242 3.484018 10.655773 Z M 3.484018 10.655773 " transform="matrix(1.367091,1.222258,1.221606,-1.36782,0.415184,31.426186)"/>
</g>
</svg>
