<?xml version="1.0" encoding="UTF-8"?>
<svg xmlns="http://www.w3.org/2000/svg" xmlns:xlink="http://www.w3.org/1999/xlink" width="32px" height="32px" viewBox="0 0 32 32" version="1.1">
<defs>
<clipPath id="clip1">
  <path d="M 3 3 L 29 3 L 29 29 L 3 29 Z M 3 3 "/>
</clipPath>
<clipPath id="clip2">
  <path d="M 8.222656 1.628906 L 1.574219 8.257812 L 1.574219 30.347656 L 31.480469 30.347656 L 31.480469 1.628906 Z M 8.222656 1.628906 "/>
</clipPath>
<clipPath id="clip3">
  <path d="M 2 2 L 30 2 L 30 30 L 2 30 Z M 2 2 "/>
</clipPath>
<clipPath id="clip4">
  <path d="M 8.222656 1.628906 L 1.574219 8.257812 L 1.574219 30.347656 L 31.480469 30.347656 L 31.480469 1.628906 Z M 8.222656 1.628906 "/>
</clipPath>
<clipPath id="clip5">
  <path d="M 12 3 L 22 3 L 22 9 L 12 9 Z M 12 3 "/>
</clipPath>
<clipPath id="clip6">
  <path d="M 5.5 3.96875 L 26.738281 3.96875 C 28.910156 3.96875 30.675781 5.847656 30.675781 8.164062 L 30.675781 23.894531 C 30.675781 26.210938 28.910156 28.089844 26.738281 28.089844 L 5.5 28.089844 C 3.328125 28.089844 1.5625 26.210938 1.5625 23.894531 L 1.5625 8.164062 C 1.5625 5.847656 3.328125 3.96875 5.5 3.96875 Z M 5.5 3.96875 "/>
</clipPath>
<clipPath id="clip7">
  <path d="M 11 3 L 23 3 L 23 10 L 11 10 Z M 11 3 "/>
</clipPath>
<clipPath id="clip8">
  <path d="M 5.5 3.96875 L 26.738281 3.96875 C 28.910156 3.96875 30.675781 5.847656 30.675781 8.164062 L 30.675781 23.894531 C 30.675781 26.210938 28.910156 28.089844 26.738281 28.089844 L 5.5 28.089844 C 3.328125 28.089844 1.5625 26.210938 1.5625 23.894531 L 1.5625 8.164062 C 1.5625 5.847656 3.328125 3.96875 5.5 3.96875 Z M 5.5 3.96875 "/>
</clipPath>
<clipPath id="clip9">
  <path d="M 7 15 L 25 15 L 25 29 L 7 29 Z M 7 15 "/>
</clipPath>
<clipPath id="clip10">
  <path d="M 3.679688 3.113281 L 27.101562 3.113281 C 29.5 3.113281 31.441406 5.054688 31.441406 7.449219 L 31.441406 23.714844 C 31.441406 26.109375 29.5 28.054688 27.101562 28.054688 L 3.679688 28.054688 C 1.28125 28.054688 -0.660156 26.109375 -0.660156 23.714844 L -0.660156 7.449219 C -0.660156 5.054688 1.28125 3.113281 3.679688 3.113281 Z M 3.679688 3.113281 "/>
</clipPath>
<clipPath id="clip11">
  <path d="M 6 14 L 26 14 L 26 29 L 6 29 Z M 6 14 "/>
</clipPath>
<clipPath id="clip12">
  <path d="M 3.679688 3.113281 L 27.101562 3.113281 C 29.5 3.113281 31.441406 5.054688 31.441406 7.449219 L 31.441406 23.714844 C 31.441406 26.109375 29.5 28.054688 27.101562 28.054688 L 3.679688 28.054688 C 1.28125 28.054688 -0.660156 26.109375 -0.660156 23.714844 L -0.660156 7.449219 C -0.660156 5.054688 1.28125 3.113281 3.679688 3.113281 Z M 3.679688 3.113281 "/>
</clipPath>
</defs>
<g id="surface1">
<g clip-path="url(#clip1)" clip-rule="nonzero">
<g clip-path="url(#clip2)" clip-rule="nonzero">
<path style=" stroke:none;fill-rule:evenodd;fill:rgb(95.294118%,71.764708%,85.09804%);fill-opacity:1;" d="M 6.761719 3 L 25.238281 3 C 27.316406 3 29 4.683594 29 6.757812 L 29 25.242188 C 29 27.316406 27.316406 29 25.238281 29 L 6.761719 29 C 4.683594 29 3 27.316406 3 25.242188 L 3 6.757812 C 3 4.683594 4.683594 3 6.761719 3 Z M 6.761719 3 "/>
</g>
</g>
<g clip-path="url(#clip3)" clip-rule="nonzero">
<g clip-path="url(#clip4)" clip-rule="nonzero">
<path style="fill:none;stroke-width:0.904136;stroke-linecap:round;stroke-linejoin:round;stroke:rgb(90.196079%,0.784314%,70.588237%);stroke-opacity:1;stroke-miterlimit:4;" d="M 3.84118 2.120297 L 12.182477 2.120297 C 13.120653 2.120297 13.880716 2.882432 13.880716 3.821397 L 13.880716 12.188969 C 13.880716 13.127934 13.120653 13.890069 12.182477 13.890069 L 3.84118 13.890069 C 2.903004 13.890069 2.142941 13.127934 2.142941 12.188969 L 2.142941 3.821397 C 2.142941 2.882432 2.903004 2.120297 3.84118 2.120297 Z M 3.84118 2.120297 " transform="matrix(2.215071,0,0,2.209049,-1.746766,-1.683839)"/>
</g>
</g>
<path style="fill:none;stroke-width:0.58653;stroke-linecap:butt;stroke-linejoin:bevel;stroke:rgb(90.196079%,0.784314%,70.588237%);stroke-opacity:1;stroke-miterlimit:4;" d="M 1.808146 16.040964 L 3.301608 14.486837 " transform="matrix(3.436855,0,0,3.383128,-2.909648,-46.272537)"/>
<g clip-path="url(#clip5)" clip-rule="nonzero">
<g clip-path="url(#clip6)" clip-rule="nonzero">
<path style=" stroke:none;fill-rule:evenodd;fill:rgb(94.117647%,89.019608%,92.54902%);fill-opacity:1;" d="M 14.214844 1.292969 L 20.261719 1.292969 C 20.984375 1.292969 21.570312 2.0625 21.570312 3.011719 L 21.570312 7.226562 C 21.570312 8.175781 20.984375 8.945312 20.261719 8.945312 L 14.214844 8.945312 C 13.492188 8.945312 12.90625 8.175781 12.90625 7.226562 L 12.90625 3.011719 C 12.90625 2.0625 13.492188 1.292969 14.214844 1.292969 Z M 14.214844 1.292969 "/>
</g>
</g>
<g clip-path="url(#clip7)" clip-rule="nonzero">
<g clip-path="url(#clip8)" clip-rule="nonzero">
<path style="fill:none;stroke-width:0.925335;stroke-linecap:butt;stroke-linejoin:bevel;stroke:rgb(90.196079%,0.784314%,70.588237%);stroke-opacity:1;stroke-miterlimit:4;" d="M 6.934568 9.360529 L 9.822959 9.360529 C 10.168148 9.360529 10.448031 9.705386 10.448031 10.130769 L 10.448031 12.019606 C 10.448031 12.444988 10.168148 12.789846 9.822959 12.789846 L 6.934568 12.789846 C 6.589379 12.789846 6.309496 12.444988 6.309496 12.019606 L 6.309496 10.130769 C 6.309496 9.705386 6.589379 9.360529 6.934568 9.360529 Z M 6.934568 9.360529 " transform="matrix(2.093509,0,0,2.231449,-0.302739,-19.594573)"/>
</g>
</g>
<g clip-path="url(#clip9)" clip-rule="nonzero">
<g clip-path="url(#clip10)" clip-rule="nonzero">
<path style=" stroke:none;fill-rule:evenodd;fill:rgb(94.117647%,89.019608%,92.54902%);fill-opacity:1;" d="M 9.308594 15.082031 L 22.78125 15.082031 C 23.503906 15.082031 24.089844 15.851562 24.089844 16.800781 L 24.089844 29.5625 C 24.089844 30.511719 23.503906 31.28125 22.78125 31.28125 L 9.308594 31.28125 C 8.582031 31.28125 7.996094 30.511719 7.996094 29.5625 L 7.996094 16.800781 C 7.996094 15.851562 8.582031 15.082031 9.308594 15.082031 Z M 9.308594 15.082031 "/>
</g>
</g>
<g clip-path="url(#clip11)" clip-rule="nonzero">
<g clip-path="url(#clip12)" clip-rule="nonzero">
<path style="fill:none;stroke-width:0.866541;stroke-linecap:butt;stroke-linejoin:bevel;stroke:rgb(90.196079%,0.784314%,70.588237%);stroke-opacity:1;stroke-miterlimit:4;" d="M 5.209986 15.747299 L 11.045082 15.747299 C 11.358069 15.747299 11.611842 16.08084 11.611842 16.492264 L 11.611842 22.023626 C 11.611842 22.43505 11.358069 22.768591 11.045082 22.768591 L 5.209986 22.768591 C 4.895307 22.768591 4.641533 22.43505 4.641533 22.023626 L 4.641533 16.492264 C 4.641533 16.08084 4.895307 15.747299 5.209986 15.747299 Z M 5.209986 15.747299 " transform="matrix(2.308901,0,0,2.307157,-2.720746,-21.249452)"/>
</g>
</g>
<path style="fill-rule:nonzero;fill:rgb(61.56863%,22.745098%,60.784316%);fill-opacity:1;stroke-width:0.146632;stroke-linecap:round;stroke-linejoin:round;stroke:rgb(61.56863%,22.745098%,60.784316%);stroke-opacity:1;stroke-miterlimit:4;" d="M 3.859667 19.120354 C 3.875579 18.956397 3.997193 18.837471 4.149494 18.837471 C 4.251786 18.837471 4.344986 18.889429 4.397268 18.973717 C 4.449551 18.889429 4.53934 18.837471 4.639359 18.837471 C 4.79166 18.837471 4.914411 18.956397 4.929186 19.120354 C 4.930323 19.128437 4.936006 19.166539 4.920094 19.227734 C 4.898499 19.317795 4.846216 19.399774 4.771202 19.464433 L 4.397268 19.786574 L 4.017651 19.464433 C 3.942637 19.399774 3.890355 19.317795 3.86876 19.227734 C 3.852848 19.166539 3.858531 19.128437 3.859667 19.120354 Z M 3.90854 19.219652 C 3.928998 19.300476 3.976735 19.375527 4.044929 19.434413 L 4.397268 19.733461 L 4.743924 19.434413 C 4.813255 19.375527 4.859855 19.300476 4.880313 19.219652 C 4.895089 19.160766 4.888269 19.127282 4.888269 19.127282 L 4.888269 19.124973 C 4.87463 18.981799 4.770065 18.876728 4.639359 18.876728 C 4.54275 18.876728 4.457507 18.933305 4.41659 19.02452 L 4.397268 19.067241 L 4.379083 19.02452 C 4.339303 18.935614 4.249513 18.876728 4.149494 18.876728 C 4.018788 18.876728 3.914223 18.981799 3.900584 19.127282 C 3.900584 19.127282 3.893765 19.160766 3.90854 19.219652 Z M 3.90854 19.219652 " transform="matrix(3.436855,0,0,3.383128,-2.909648,-46.272537)"/>
<path style="fill:none;stroke-width:0.58653;stroke-linecap:round;stroke-linejoin:miter;stroke:rgb(90.196079%,0.784314%,70.588237%);stroke-opacity:1;stroke-miterlimit:4;" d="M 3.906267 20.176838 L 7.138692 20.176838 " transform="matrix(3.436855,0,0,3.383128,-2.909648,-46.272537)"/>
<path style="fill:none;stroke-width:0.58653;stroke-linecap:round;stroke-linejoin:miter;stroke:rgb(90.196079%,0.784314%,70.588237%);stroke-opacity:1;stroke-miterlimit:4;" d="M 3.893765 21.361485 L 7.126189 21.361485 " transform="matrix(3.436855,0,0,3.383128,-2.909648,-46.272537)"/>
<path style="fill-rule:evenodd;fill:rgb(95.294118%,71.764708%,85.09804%);fill-opacity:1;stroke-width:0.293265;stroke-linecap:round;stroke-linejoin:bevel;stroke:rgb(90.196079%,0.784314%,70.588237%);stroke-opacity:1;stroke-miterlimit:4;" d="M 5.372451 15.112644 L 5.38268 15.112644 C 5.448602 15.112644 5.502021 15.176149 5.502021 15.253509 L 5.502021 15.62068 C 5.502021 15.69804 5.448602 15.761545 5.38268 15.761545 L 5.372451 15.761545 C 5.30653 15.761545 5.254247 15.69804 5.254247 15.62068 L 5.254247 15.253509 C 5.254247 15.176149 5.30653 15.112644 5.372451 15.112644 Z M 5.372451 15.112644 " transform="matrix(3.436855,0,0,3.383128,-2.909648,-46.272537)"/>
</g>
</svg>
