<?xml version="1.0" encoding="UTF-8"?>
<svg xmlns="http://www.w3.org/2000/svg" xmlns:xlink="http://www.w3.org/1999/xlink" width="32px" height="32px" viewBox="0 0 32 32" version="1.1">
<defs>
<clipPath id="clip1">
  <path d="M 12 12 L 30 12 L 30 30 L 12 30 Z M 12 12 "/>
</clipPath>
<clipPath id="clip2">
  <path d="M 15.910156 11.730469 L 11.585938 15.996094 L 11.585938 30.21875 L 31.042969 30.21875 L 31.042969 11.730469 Z M 15.910156 11.730469 "/>
</clipPath>
<clipPath id="clip3">
  <path d="M 18 13 L 25 13 L 25 17 L 18 17 Z M 18 13 "/>
</clipPath>
<clipPath id="clip4">
  <path d="M 14.136719 13.058594 L 27.957031 13.058594 C 29.371094 13.058594 30.519531 14.265625 30.519531 15.757812 L 30.519531 25.886719 C 30.519531 27.378906 29.371094 28.585938 27.957031 28.585938 L 14.136719 28.585938 C 12.722656 28.585938 11.578125 27.378906 11.578125 25.886719 L 11.578125 15.757812 C 11.578125 14.265625 12.722656 13.058594 14.136719 13.058594 Z M 14.136719 13.058594 "/>
</clipPath>
<clipPath id="clip5">
  <path d="M 18 13 L 26 13 L 26 17 L 18 17 Z M 18 13 "/>
</clipPath>
<clipPath id="clip6">
  <path d="M 14.136719 13.058594 L 27.957031 13.058594 C 29.371094 13.058594 30.519531 14.265625 30.519531 15.757812 L 30.519531 25.886719 C 30.519531 27.378906 29.371094 28.585938 27.957031 28.585938 L 14.136719 28.585938 C 12.722656 28.585938 11.578125 27.378906 11.578125 25.886719 L 11.578125 15.757812 C 11.578125 14.265625 12.722656 13.058594 14.136719 13.058594 Z M 14.136719 13.058594 "/>
</clipPath>
<clipPath id="clip7">
  <path d="M 15 20 L 27 20 L 27 29 L 15 29 Z M 15 20 "/>
</clipPath>
<clipPath id="clip8">
  <path d="M 12.953125 12.804688 L 28.195312 12.804688 C 29.753906 12.804688 31.019531 14.054688 31.019531 15.597656 L 31.019531 26.066406 C 31.019531 27.609375 29.753906 28.859375 28.195312 28.859375 L 12.953125 28.859375 C 11.394531 28.859375 10.128906 27.609375 10.128906 26.066406 L 10.128906 15.597656 C 10.128906 14.054688 11.394531 12.804688 12.953125 12.804688 Z M 12.953125 12.804688 "/>
</clipPath>
</defs>
<g id="surface1">
<path style="fill-rule:evenodd;fill:rgb(94.117647%,89.019608%,92.54902%);fill-opacity:1;stroke-width:1;stroke-linecap:round;stroke-linejoin:round;stroke:rgb(90.196079%,0.784314%,70.588237%);stroke-opacity:1;stroke-miterlimit:4;" d="M 3 1.552734 L 13 1.552734 C 13.550781 1.552734 14 2 14 2.552734 L 14 13.447266 C 14 14 13.550781 14.447266 13 14.447266 L 3 14.447266 C 2.449219 14.447266 2 14 2 13.447266 L 2 2.552734 C 2 2 2.449219 1.552734 3 1.552734 Z M 3 1.552734 " transform="matrix(2,0,0,2,0,0)"/>
<path style="fill:none;stroke-width:0.5;stroke-linecap:butt;stroke-linejoin:miter;stroke:rgb(61.56863%,22.745098%,60.784316%);stroke-opacity:1;stroke-miterlimit:4;" d="M 7.957031 6.169922 L 8.042969 13.078125 " transform="matrix(2,0,0,2,0,0)"/>
<path style="fill-rule:nonzero;fill:rgb(90.196079%,0.784314%,70.588237%);fill-opacity:1;stroke-width:1.830177;stroke-linecap:butt;stroke-linejoin:miter;stroke:rgb(90.196079%,0.784314%,70.588237%);stroke-opacity:1;stroke-miterlimit:4;" d="M -1.068227 15.47404 C -2.7951 16.167362 -3.249164 14.09097 -3.249164 14.09097 C -3.249164 14.09097 -4.164442 16.346053 -5.680371 15.013017 C -7.196301 13.679981 -4.968886 12.611408 -4.968886 12.611408 C -4.968886 12.611408 -7.535955 12.414847 -6.645704 10.695839 C -5.755453 8.97683 -4.02858 10.595772 -4.02858 10.595772 C -4.02858 10.595772 -4.732915 8.269213 -2.630636 8.487216 C -0.524781 8.708793 -1.722508 10.82807 -1.722508 10.82807 C -1.722508 10.82807 0.458428 9.70589 0.815959 11.442768 C 1.177065 13.176072 -1.239842 12.986659 -1.239842 12.986659 C -1.239842 12.986659 0.65507 14.780718 -1.068227 15.47404 Z M -1.068227 15.47404 " transform="matrix(1.092564,0,0,1.093017,19.264763,-2.81183)"/>
<path style="fill-rule:nonzero;fill:rgb(95.294118%,71.764708%,85.09804%);fill-opacity:1;stroke-width:1.830177;stroke-linecap:butt;stroke-linejoin:miter;stroke:rgb(95.294118%,71.764708%,85.09804%);stroke-opacity:1;stroke-miterlimit:4;" d="M -1.915575 13.965887 C -2.880907 14.355433 -3.134754 13.190367 -3.134754 13.190367 C -3.134754 13.190367 -3.646022 14.451927 -4.496945 13.708571 C -5.344293 12.961642 -4.100086 12.364814 -4.100086 12.364814 C -4.100086 12.364814 -5.533784 12.250452 -5.036816 11.289093 C -4.536274 10.327735 -3.570941 11.235486 -3.570941 11.235486 C -3.570941 11.235486 -3.9678 9.931041 -2.787949 10.052551 C -1.608098 10.177634 -2.280256 11.364144 -2.280256 11.364144 C -2.280256 11.364144 -1.061077 10.735151 -0.857284 11.707231 C -0.657067 12.67931 -2.008533 12.572096 -2.008533 12.572096 C -2.008533 12.572096 -0.946667 13.57634 -1.915575 13.965887 Z M -1.915575 13.965887 " transform="matrix(1.092564,0,0,1.093017,19.264763,-2.81183)"/>
<path style=" stroke:none;fill-rule:nonzero;fill:rgb(61.56863%,22.745098%,60.784316%);fill-opacity:1;" d="M 17.296875 10.351562 C 17.296875 11.070312 16.714844 11.648438 16 11.648438 C 15.285156 11.648438 14.703125 11.070312 14.703125 10.351562 C 14.703125 9.636719 15.285156 9.054688 16 9.054688 C 16.714844 9.054688 17.296875 9.636719 17.296875 10.351562 Z M 17.296875 10.351562 "/>
<path style="fill-rule:nonzero;fill:rgb(95.294118%,71.764708%,85.09804%);fill-opacity:1;stroke-width:1;stroke-linecap:butt;stroke-linejoin:round;stroke:rgb(61.56863%,22.745098%,60.784316%);stroke-opacity:1;stroke-miterlimit:4;" d="M 6.476562 11.085938 L 9.648438 11.023438 L 10.519531 11.023438 L 9.523438 13.013672 L 6.476562 13.013672 L 5.480469 11.085938 Z M 6.476562 11.085938 " transform="matrix(2,0,0,2,0,0)"/>
<g clip-path="url(#clip1)" clip-rule="nonzero">
<g clip-path="url(#clip2)" clip-rule="nonzero">
<path style="fill-rule:evenodd;fill:rgb(95.294118%,71.764708%,85.09804%);fill-opacity:1;stroke-width:0.69846;stroke-linecap:round;stroke-linejoin:round;stroke:rgb(90.196079%,0.784314%,70.588237%);stroke-opacity:1;stroke-miterlimit:4;" d="M 3.712648 2.119913 L 12.308722 2.119913 C 13.175917 2.119913 13.880513 2.790146 13.880513 3.616949 L 13.880513 12.393151 C 13.880513 13.219955 13.175917 13.890188 12.308722 13.890188 L 3.712648 13.890188 C 2.845452 13.890188 2.143566 13.219955 2.143566 12.393151 L 2.143566 3.616949 C 2.143566 2.790146 2.845452 2.119913 3.712648 2.119913 Z M 3.712648 2.119913 " transform="matrix(1.441428,0,0,1.422081,9.421922,9.598593)"/>
</g>
</g>
<path style="fill:none;stroke-width:0.453104;stroke-linecap:butt;stroke-linejoin:bevel;stroke:rgb(90.196079%,0.784314%,70.588237%);stroke-opacity:1;stroke-miterlimit:4;" d="M 2.064984 15.785368 L 3.558327 14.232121 " transform="matrix(2.236489,0,0,2.177897,7.912936,-18.609377)"/>
<g clip-path="url(#clip3)" clip-rule="nonzero">
<g clip-path="url(#clip4)" clip-rule="nonzero">
<path style=" stroke:none;fill-rule:evenodd;fill:rgb(94.117647%,89.019608%,92.54902%);fill-opacity:1;" d="M 19.929688 11.335938 L 23.621094 11.335938 C 24.160156 11.335938 24.597656 11.675781 24.597656 12.09375 L 24.597656 15.507812 C 24.597656 15.925781 24.160156 16.265625 23.621094 16.265625 L 19.929688 16.265625 C 19.394531 16.265625 18.957031 15.925781 18.957031 15.507812 L 18.957031 12.09375 C 18.957031 11.675781 19.394531 11.335938 19.929688 11.335938 Z M 19.929688 11.335938 "/>
</g>
</g>
<g clip-path="url(#clip5)" clip-rule="nonzero">
<g clip-path="url(#clip6)" clip-rule="nonzero">
<path style="fill:none;stroke-width:0.714837;stroke-linecap:butt;stroke-linejoin:bevel;stroke:rgb(90.196079%,0.784314%,70.588237%);stroke-opacity:1;stroke-miterlimit:4;" d="M 7.023354 9.36015 L 9.732993 9.36015 C 10.128686 9.36015 10.449829 9.596728 10.449829 9.887691 L 10.449829 12.264343 C 10.449829 12.555306 10.128686 12.791883 9.732993 12.791883 L 7.023354 12.791883 C 6.630528 12.791883 6.309386 12.555306 6.309386 12.264343 L 6.309386 9.887691 C 6.309386 9.596728 6.630528 9.36015 7.023354 9.36015 Z M 7.023354 9.36015 " transform="matrix(1.362324,0,0,1.436501,10.361603,-2.109927)"/>
</g>
</g>
<g clip-path="url(#clip7)" clip-rule="nonzero">
<g clip-path="url(#clip8)" clip-rule="nonzero">
<path style="fill-rule:evenodd;fill:rgb(94.117647%,89.019608%,92.54902%);fill-opacity:1;stroke-width:0.669417;stroke-linecap:butt;stroke-linejoin:bevel;stroke:rgb(90.196079%,0.784314%,70.588237%);stroke-opacity:1;stroke-miterlimit:4;" d="M 5.514924 15.745406 L 10.740634 15.745406 C 11.221608 15.745406 11.611586 16.266156 11.611586 16.905258 L 11.611586 21.610417 C 11.611586 22.249519 11.221608 22.767639 10.740634 22.767639 L 5.514924 22.767639 C 5.031351 22.767639 4.641372 22.249519 4.641372 21.610417 L 4.641372 16.905258 C 4.641372 16.266156 5.031351 15.745406 5.514924 15.745406 Z M 5.514924 15.745406 " transform="matrix(1.502487,0,0,1.485238,8.788117,-2.877862)"/>
</g>
</g>
<path style="fill-rule:nonzero;fill:rgb(61.56863%,22.745098%,60.784316%);fill-opacity:1;stroke-width:0.226552;stroke-linecap:round;stroke-linejoin:round;stroke:rgb(61.56863%,22.745098%,60.784316%);stroke-opacity:1;stroke-miterlimit:4;" d="M 4.195835 18.893655 C 4.211555 18.728645 4.333817 18.610268 4.485771 18.610268 C 4.58882 18.610268 4.68139 18.662283 4.733788 18.744788 C 4.786186 18.660489 4.875262 18.610268 4.974819 18.610268 C 5.128519 18.610268 5.250781 18.728645 5.266501 18.893655 C 5.266501 18.90083 5.271741 18.938495 5.256021 19.001271 C 5.235062 19.089156 5.182664 19.171661 5.10756 19.236231 L 4.733788 19.559076 L 4.353029 19.236231 C 4.277925 19.171661 4.227274 19.09095 4.204568 19.001271 C 4.188849 18.938495 4.194089 18.90083 4.195835 18.893655 Z M 4.24474 18.990509 C 4.265699 19.073014 4.312857 19.148345 4.380975 19.207533 L 4.733788 19.505269 L 5.079615 19.207533 C 5.149479 19.148345 5.196637 19.073014 5.215849 18.990509 C 5.231569 18.933114 5.224582 18.899036 5.224582 18.899036 L 5.224582 18.897243 C 5.21061 18.753756 5.105814 18.649727 4.974819 18.649727 C 4.878756 18.649727 4.793172 18.705329 4.753001 18.796802 L 4.733788 18.839848 L 4.714575 18.796802 C 4.674404 18.707122 4.585327 18.649727 4.485771 18.649727 C 4.354776 18.649727 4.24998 18.753756 4.236007 18.899036 C 4.236007 18.899036 4.230767 18.933114 4.24474 18.992303 Z M 4.24474 18.990509 " transform="matrix(2.236489,0,0,2.177897,7.912936,-18.609377)"/>
<path style="fill:none;stroke-width:0.453104;stroke-linecap:round;stroke-linejoin:miter;stroke:rgb(90.196079%,0.784314%,70.588237%);stroke-opacity:1;stroke-miterlimit:4;" d="M 4.242994 19.948285 L 7.474202 19.948285 " transform="matrix(2.236489,0,0,2.177897,7.912936,-18.609377)"/>
<path style="fill:none;stroke-width:0.453104;stroke-linecap:round;stroke-linejoin:miter;stroke:rgb(90.196079%,0.784314%,70.588237%);stroke-opacity:1;stroke-miterlimit:4;" d="M 4.230767 21.133847 L 7.461976 21.133847 " transform="matrix(2.236489,0,0,2.177897,7.912936,-18.609377)"/>
<path style="fill-rule:evenodd;fill:rgb(95.294118%,71.764708%,85.09804%);fill-opacity:1;stroke-width:0.453104;stroke-linecap:round;stroke-linejoin:bevel;stroke:rgb(90.196079%,0.784314%,70.588237%);stroke-opacity:1;stroke-miterlimit:4;" d="M 5.71363 14.88678 C 5.783494 14.88678 5.837639 14.972872 5.837639 15.080488 C 5.837639 15.188103 5.783494 15.275989 5.71363 15.275989 C 5.645513 15.275989 5.589622 15.188103 5.589622 15.080488 C 5.589622 14.972872 5.645513 14.88678 5.71363 14.88678 Z M 5.71363 14.88678 " transform="matrix(2.236489,0,0,2.177897,7.912936,-18.609377)"/>
</g>
</svg>
