<?xml version="1.0" encoding="UTF-8"?>
<svg xmlns="http://www.w3.org/2000/svg" xmlns:xlink="http://www.w3.org/1999/xlink" width="32px" height="32px" viewBox="0 0 32 32" version="1.1">
<defs>
<clipPath id="clip1">
  <path d="M 9 2 L 30 2 L 30 23 L 9 23 Z M 9 2 "/>
</clipPath>
<clipPath id="clip2">
  <path d="M 13.148438 1.917969 L 8.070312 7.007812 L 8.070312 23.972656 L 30.917969 23.972656 L 30.917969 1.917969 Z M 13.148438 1.917969 "/>
</clipPath>
<clipPath id="clip3">
  <path d="M 8 1 L 31 1 L 31 24 L 8 24 Z M 8 1 "/>
</clipPath>
<clipPath id="clip4">
  <path d="M 13.148438 1.917969 L 8.070312 7.007812 L 8.070312 23.972656 L 30.917969 23.972656 L 30.917969 1.917969 Z M 13.148438 1.917969 "/>
</clipPath>
<clipPath id="clip5">
  <path d="M 16 3 L 24 3 L 24 8 L 16 8 Z M 16 3 "/>
</clipPath>
<clipPath id="clip6">
  <path d="M 11.070312 3.710938 L 27.292969 3.710938 C 28.957031 3.710938 30.300781 5.15625 30.300781 6.933594 L 30.300781 19.015625 C 30.300781 20.796875 28.957031 22.238281 27.292969 22.238281 L 11.070312 22.238281 C 9.40625 22.238281 8.0625 20.796875 8.0625 19.015625 L 8.0625 6.933594 C 8.0625 5.15625 9.40625 3.710938 11.070312 3.710938 Z M 11.070312 3.710938 "/>
</clipPath>
<clipPath id="clip7">
  <path d="M 15 3 L 25 3 L 25 9 L 15 9 Z M 15 3 "/>
</clipPath>
<clipPath id="clip8">
  <path d="M 11.070312 3.710938 L 27.292969 3.710938 C 28.957031 3.710938 30.300781 5.15625 30.300781 6.933594 L 30.300781 19.015625 C 30.300781 20.796875 28.957031 22.238281 27.292969 22.238281 L 11.070312 22.238281 C 9.40625 22.238281 8.0625 20.796875 8.0625 19.015625 L 8.0625 6.933594 C 8.0625 5.15625 9.40625 3.710938 11.070312 3.710938 Z M 11.070312 3.710938 "/>
</clipPath>
<clipPath id="clip9">
  <path d="M 12 12 L 26 12 L 26 23 L 12 23 Z M 12 12 "/>
</clipPath>
<clipPath id="clip10">
  <path d="M 9.675781 3.054688 L 27.574219 3.054688 C 29.40625 3.054688 30.890625 4.546875 30.890625 6.386719 L 30.890625 18.878906 C 30.890625 20.71875 29.40625 22.210938 27.574219 22.210938 L 9.675781 22.210938 C 7.84375 22.210938 6.359375 20.71875 6.359375 18.878906 L 6.359375 6.386719 C 6.359375 4.546875 7.84375 3.054688 9.675781 3.054688 Z M 9.675781 3.054688 "/>
</clipPath>
<clipPath id="clip11">
  <path d="M 11 11 L 27 11 L 27 23 L 11 23 Z M 11 11 "/>
</clipPath>
<clipPath id="clip12">
  <path d="M 9.675781 3.054688 L 27.574219 3.054688 C 29.40625 3.054688 30.890625 4.546875 30.890625 6.386719 L 30.890625 18.878906 C 30.890625 20.71875 29.40625 22.210938 27.574219 22.210938 L 9.675781 22.210938 C 7.84375 22.210938 6.359375 20.71875 6.359375 18.878906 L 6.359375 6.386719 C 6.359375 4.546875 7.84375 3.054688 9.675781 3.054688 Z M 9.675781 3.054688 "/>
</clipPath>
<clipPath id="clip13">
  <path d="M 3 9 L 23 9 L 23 30 L 3 30 Z M 3 9 "/>
</clipPath>
<clipPath id="clip14">
  <path d="M 7.078125 7.988281 L 2 13.078125 L 2 30.042969 L 24.847656 30.042969 L 24.847656 7.988281 Z M 7.078125 7.988281 "/>
</clipPath>
<clipPath id="clip15">
  <path d="M 2 8 L 24 8 L 24 31 L 2 31 Z M 2 8 "/>
</clipPath>
<clipPath id="clip16">
  <path d="M 7.078125 7.988281 L 2 13.078125 L 2 30.042969 L 24.847656 30.042969 L 24.847656 7.988281 Z M 7.078125 7.988281 "/>
</clipPath>
<clipPath id="clip17">
  <path d="M 10 9 L 18 9 L 18 14 L 10 14 Z M 10 9 "/>
</clipPath>
<clipPath id="clip18">
  <path d="M 5 9.78125 L 21.222656 9.78125 C 22.886719 9.78125 24.230469 11.226562 24.230469 13.003906 L 24.230469 25.085938 C 24.230469 26.867188 22.886719 28.308594 21.222656 28.308594 L 5 28.308594 C 3.335938 28.308594 1.992188 26.867188 1.992188 25.085938 L 1.992188 13.003906 C 1.992188 11.226562 3.335938 9.78125 5 9.78125 Z M 5 9.78125 "/>
</clipPath>
<clipPath id="clip19">
  <path d="M 9 9 L 19 9 L 19 15 L 9 15 Z M 9 9 "/>
</clipPath>
<clipPath id="clip20">
  <path d="M 5 9.78125 L 21.222656 9.78125 C 22.886719 9.78125 24.230469 11.226562 24.230469 13.003906 L 24.230469 25.085938 C 24.230469 26.867188 22.886719 28.308594 21.222656 28.308594 L 5 28.308594 C 3.335938 28.308594 1.992188 26.867188 1.992188 25.085938 L 1.992188 13.003906 C 1.992188 11.226562 3.335938 9.78125 5 9.78125 Z M 5 9.78125 "/>
</clipPath>
<clipPath id="clip21">
  <path d="M 6 18 L 20 18 L 20 29 L 6 29 Z M 6 18 "/>
</clipPath>
<clipPath id="clip22">
  <path d="M 3.605469 9.125 L 21.503906 9.125 C 23.335938 9.125 24.820312 10.617188 24.820312 12.457031 L 24.820312 24.949219 C 24.820312 26.789062 23.335938 28.28125 21.503906 28.28125 L 3.605469 28.28125 C 1.773438 28.28125 0.289062 26.789062 0.289062 24.949219 L 0.289062 12.457031 C 0.289062 10.617188 1.773438 9.125 3.605469 9.125 Z M 3.605469 9.125 "/>
</clipPath>
<clipPath id="clip23">
  <path d="M 5 17 L 21 17 L 21 29 L 5 29 Z M 5 17 "/>
</clipPath>
<clipPath id="clip24">
  <path d="M 3.605469 9.125 L 21.503906 9.125 C 23.335938 9.125 24.820312 10.617188 24.820312 12.457031 L 24.820312 24.949219 C 24.820312 26.789062 23.335938 28.28125 21.503906 28.28125 L 3.605469 28.28125 C 1.773438 28.28125 0.289062 26.789062 0.289062 24.949219 L 0.289062 12.457031 C 0.289062 10.617188 1.773438 9.125 3.605469 9.125 Z M 3.605469 9.125 "/>
</clipPath>
</defs>
<g id="surface1">
<g clip-path="url(#clip1)" clip-rule="nonzero">
<g clip-path="url(#clip2)" clip-rule="nonzero">
<path style=" stroke:none;fill-rule:evenodd;fill:rgb(95.294118%,71.764708%,85.09804%);fill-opacity:1;" d="M 12.917969 2.96875 L 25.261719 2.96875 C 27.339844 2.96875 29.023438 4.652344 29.023438 6.730469 L 29.023438 19.179688 C 29.023438 21.253906 27.339844 22.9375 25.261719 22.9375 L 12.917969 22.9375 C 10.84375 22.9375 9.160156 21.253906 9.160156 19.179688 L 9.160156 6.730469 C 9.160156 4.652344 10.84375 2.96875 12.917969 2.96875 Z M 12.917969 2.96875 "/>
</g>
</g>
<g clip-path="url(#clip3)" clip-rule="nonzero">
<g clip-path="url(#clip4)" clip-rule="nonzero">
<path style="fill:none;stroke-width:1.180274;stroke-linecap:round;stroke-linejoin:round;stroke:rgb(90.196079%,0.784314%,70.588237%);stroke-opacity:1;stroke-miterlimit:4;" d="M 4.364661 2.120114 L 11.658161 2.120114 C 12.886054 2.120114 13.880832 3.11244 13.880832 4.337307 L 13.880832 11.674998 C 13.880832 12.897562 12.886054 13.889889 11.658161 13.889889 L 4.364661 13.889889 C 3.139076 13.889889 2.144298 12.897562 2.144298 11.674998 L 2.144298 4.337307 C 2.144298 3.11244 3.139076 2.120114 4.364661 2.120114 Z M 4.364661 2.120114 " transform="matrix(1.692432,0,0,1.696613,5.531078,-0.628262)"/>
</g>
</g>
<path style="fill:none;stroke-width:0.765667;stroke-linecap:butt;stroke-linejoin:bevel;stroke:rgb(90.196079%,0.784314%,70.588237%);stroke-opacity:1;stroke-miterlimit:4;" d="M 1.693592 16.422235 L 3.597672 14.537017 " transform="matrix(2.62594,0,0,2.598339,4.642573,-34.873661)"/>
<g clip-path="url(#clip5)" clip-rule="nonzero">
<g clip-path="url(#clip6)" clip-rule="nonzero">
<path style=" stroke:none;fill-rule:evenodd;fill:rgb(94.117647%,89.019608%,92.54902%);fill-opacity:1;" d="M 18.035156 1.660156 L 22.035156 1.660156 C 22.761719 1.660156 23.347656 2.429688 23.347656 3.378906 L 23.347656 5.816406 C 23.347656 6.765625 22.761719 7.535156 22.035156 7.535156 L 18.035156 7.535156 C 17.3125 7.535156 16.726562 6.765625 16.726562 5.816406 L 16.726562 3.378906 C 16.726562 2.429688 17.3125 1.660156 18.035156 1.660156 Z M 18.035156 1.660156 "/>
</g>
</g>
<g clip-path="url(#clip7)" clip-rule="nonzero">
<g clip-path="url(#clip8)" clip-rule="nonzero">
<path style="fill:none;stroke-width:1.207949;stroke-linecap:butt;stroke-linejoin:bevel;stroke:rgb(90.196079%,0.784314%,70.588237%);stroke-opacity:1;stroke-miterlimit:4;" d="M 7.127472 9.361781 L 9.628171 9.361781 C 10.0824 9.361781 10.448713 9.810797 10.448713 10.364659 L 10.448713 11.786923 C 10.448713 12.340786 10.0824 12.789802 9.628171 12.789802 L 7.127472 12.789802 C 6.675685 12.789802 6.309372 12.340786 6.309372 11.786923 L 6.309372 10.364659 C 6.309372 9.810797 6.675685 9.361781 7.127472 9.361781 Z M 7.127472 9.361781 " transform="matrix(1.599553,0,0,1.713817,6.634391,-14.384219)"/>
</g>
</g>
<g clip-path="url(#clip9)" clip-rule="nonzero">
<g clip-path="url(#clip10)" clip-rule="nonzero">
<path style=" stroke:none;fill-rule:evenodd;fill:rgb(94.117647%,89.019608%,92.54902%);fill-opacity:1;" d="M 14.285156 12.246094 L 23.960938 12.246094 C 24.683594 12.246094 25.273438 13.015625 25.273438 13.964844 L 25.273438 22.96875 C 25.273438 23.917969 24.683594 24.6875 23.960938 24.6875 L 14.285156 24.6875 C 13.5625 24.6875 12.976562 23.917969 12.976562 22.96875 L 12.976562 13.964844 C 12.976562 13.015625 13.5625 12.246094 14.285156 12.246094 Z M 14.285156 12.246094 "/>
</g>
</g>
<g clip-path="url(#clip11)" clip-rule="nonzero">
<g clip-path="url(#clip12)" clip-rule="nonzero">
<path style="fill:none;stroke-width:1.131198;stroke-linecap:butt;stroke-linejoin:bevel;stroke:rgb(90.196079%,0.784314%,70.588237%);stroke-opacity:1;stroke-miterlimit:4;" d="M 5.384121 15.745994 L 10.868876 15.745994 C 11.278516 15.745994 11.612872 16.180276 11.612872 16.715963 L 11.612872 21.797283 C 11.612872 22.33297 11.278516 22.767252 10.868876 22.767252 L 5.384121 22.767252 C 4.974481 22.767252 4.64234 22.33297 4.64234 21.797283 L 4.64234 16.715963 C 4.64234 16.180276 4.974481 15.745994 5.384121 15.745994 Z M 5.384121 15.745994 " transform="matrix(1.764123,0,0,1.771962,4.786905,-15.655214)"/>
</g>
</g>
<path style="fill-rule:nonzero;fill:rgb(61.56863%,22.745098%,60.784316%);fill-opacity:1;stroke-width:0.191417;stroke-linecap:round;stroke-linejoin:round;stroke:rgb(61.56863%,22.745098%,60.784316%);stroke-opacity:1;stroke-miterlimit:4;" d="M 3.859483 19.120774 C 3.874358 18.956907 3.997826 18.838142 4.149557 18.838142 C 4.252199 18.838142 4.344428 18.889256 4.39798 18.973444 C 4.450045 18.889256 4.539299 18.838142 4.638965 18.838142 C 4.792184 18.838142 4.914165 18.956907 4.92904 19.120774 C 4.930528 19.128291 4.936478 19.165875 4.920115 19.227513 C 4.897801 19.317715 4.847224 19.398897 4.771359 19.463541 L 4.39798 19.786765 L 4.017164 19.463541 C 3.942786 19.398897 3.890722 19.317715 3.868408 19.227513 C 3.853532 19.165875 3.857995 19.128291 3.859483 19.120774 Z M 3.908572 19.218493 C 3.929398 19.301178 3.975513 19.376346 4.045428 19.434977 L 4.39798 19.734147 L 4.744582 19.434977 C 4.81301 19.374843 4.859125 19.301178 4.879951 19.218493 C 4.894826 19.159862 4.888876 19.126788 4.888876 19.126788 L 4.888876 19.125284 C 4.875488 18.980961 4.769871 18.877229 4.638965 18.877229 C 4.542274 18.877229 4.457483 18.934357 4.415831 19.024559 L 4.39798 19.068156 L 4.378642 19.024559 C 4.338478 18.934357 4.249224 18.877229 4.149557 18.877229 C 4.018652 18.877229 3.914523 18.980961 3.899647 19.126788 C 3.899647 19.126788 3.893697 19.159862 3.908572 19.219996 Z M 3.908572 19.218493 " transform="matrix(2.62594,0,0,2.598339,4.642573,-34.873661)"/>
<path style="fill:none;stroke-width:0.765666;stroke-linecap:round;stroke-linejoin:miter;stroke:rgb(90.196079%,0.784314%,70.588237%);stroke-opacity:1;stroke-miterlimit:4;" d="M 3.907085 20.177639 L 7.13807 20.177639 " transform="matrix(2.62594,0,0,2.598339,4.642573,-34.873661)"/>
<path style="fill:none;stroke-width:0.765666;stroke-linecap:round;stroke-linejoin:miter;stroke:rgb(90.196079%,0.784314%,70.588237%);stroke-opacity:1;stroke-miterlimit:4;" d="M 3.893697 21.360787 L 7.12617 21.360787 " transform="matrix(2.62594,0,0,2.598339,4.642573,-34.873661)"/>
<path style="fill-rule:evenodd;fill:rgb(95.294118%,71.764708%,85.09804%);fill-opacity:1;stroke-width:0.382833;stroke-linecap:round;stroke-linejoin:bevel;stroke:rgb(90.196079%,0.784314%,70.588237%);stroke-opacity:1;stroke-miterlimit:4;" d="M 5.378284 15.112805 C 5.446712 15.112805 5.501752 15.19549 5.501752 15.296216 L 5.501752 15.577345 C 5.501752 15.679573 5.446712 15.760755 5.378284 15.760755 C 5.309856 15.760755 5.253329 15.679573 5.253329 15.577345 L 5.253329 15.296216 C 5.253329 15.19549 5.309856 15.112805 5.378284 15.112805 Z M 5.378284 15.112805 " transform="matrix(2.62594,0,0,2.598339,4.642573,-34.873661)"/>
<g clip-path="url(#clip13)" clip-rule="nonzero">
<g clip-path="url(#clip14)" clip-rule="nonzero">
<path style=" stroke:none;fill-rule:evenodd;fill:rgb(95.294118%,71.764708%,85.09804%);fill-opacity:1;" d="M 6.847656 9.039062 L 19.191406 9.039062 C 21.269531 9.039062 22.953125 10.722656 22.953125 12.800781 L 22.953125 25.25 C 22.953125 27.324219 21.269531 29.007812 19.191406 29.007812 L 6.847656 29.007812 C 4.773438 29.007812 3.089844 27.324219 3.089844 25.25 L 3.089844 12.800781 C 3.089844 10.722656 4.773438 9.039062 6.847656 9.039062 Z M 6.847656 9.039062 "/>
</g>
</g>
<g clip-path="url(#clip15)" clip-rule="nonzero">
<g clip-path="url(#clip16)" clip-rule="nonzero">
<path style="fill:none;stroke-width:1.180274;stroke-linecap:round;stroke-linejoin:round;stroke:rgb(90.196079%,0.784314%,70.588237%);stroke-opacity:1;stroke-miterlimit:4;" d="M 4.364635 2.12014 L 11.658134 2.12014 C 12.886027 2.12014 13.880805 3.112466 13.880805 4.337333 L 13.880805 11.675024 C 13.880805 12.897588 12.886027 13.889915 11.658134 13.889915 L 4.364635 13.889915 C 3.13905 13.889915 2.144272 12.897588 2.144272 11.675024 L 2.144272 4.337333 C 2.144272 3.112466 3.13905 2.12014 4.364635 2.12014 Z M 4.364635 2.12014 " transform="matrix(1.692432,0,0,1.696613,-0.53919,5.442006)"/>
</g>
</g>
<path style="fill:none;stroke-width:0.765667;stroke-linecap:butt;stroke-linejoin:bevel;stroke:rgb(90.196079%,0.784314%,70.588237%);stroke-opacity:1;stroke-miterlimit:4;" d="M 1.693575 16.422252 L 3.597655 14.537034 " transform="matrix(2.62594,0,0,2.598339,-1.427694,-28.803392)"/>
<g clip-path="url(#clip17)" clip-rule="nonzero">
<g clip-path="url(#clip18)" clip-rule="nonzero">
<path style=" stroke:none;fill-rule:evenodd;fill:rgb(94.117647%,89.019608%,92.54902%);fill-opacity:1;" d="M 11.964844 7.730469 L 15.964844 7.730469 C 16.691406 7.730469 17.277344 8.5 17.277344 9.449219 L 17.277344 11.886719 C 17.277344 12.835938 16.691406 13.605469 15.964844 13.605469 L 11.964844 13.605469 C 11.242188 13.605469 10.65625 12.835938 10.65625 11.886719 L 10.65625 9.449219 C 10.65625 8.5 11.242188 7.730469 11.964844 7.730469 Z M 11.964844 7.730469 "/>
</g>
</g>
<g clip-path="url(#clip19)" clip-rule="nonzero">
<g clip-path="url(#clip20)" clip-rule="nonzero">
<path style="fill:none;stroke-width:1.207949;stroke-linecap:butt;stroke-linejoin:bevel;stroke:rgb(90.196079%,0.784314%,70.588237%);stroke-opacity:1;stroke-miterlimit:4;" d="M 7.127444 9.361806 L 9.628143 9.361806 C 10.082372 9.361806 10.448685 9.810822 10.448685 10.364685 L 10.448685 11.786949 C 10.448685 12.340811 10.082372 12.789827 9.628143 12.789827 L 7.127444 12.789827 C 6.675657 12.789827 6.309344 12.340811 6.309344 11.786949 L 6.309344 10.364685 C 6.309344 9.810822 6.675657 9.361806 7.127444 9.361806 Z M 7.127444 9.361806 " transform="matrix(1.599553,0,0,1.713817,0.564123,-8.313951)"/>
</g>
</g>
<g clip-path="url(#clip21)" clip-rule="nonzero">
<g clip-path="url(#clip22)" clip-rule="nonzero">
<path style=" stroke:none;fill-rule:evenodd;fill:rgb(94.117647%,89.019608%,92.54902%);fill-opacity:1;" d="M 8.214844 18.316406 L 17.890625 18.316406 C 18.613281 18.316406 19.203125 19.085938 19.203125 20.035156 L 19.203125 29.039062 C 19.203125 29.988281 18.613281 30.757812 17.890625 30.757812 L 8.214844 30.757812 C 7.492188 30.757812 6.90625 29.988281 6.90625 29.039062 L 6.90625 20.035156 C 6.90625 19.085938 7.492188 18.316406 8.214844 18.316406 Z M 8.214844 18.316406 "/>
</g>
</g>
<g clip-path="url(#clip23)" clip-rule="nonzero">
<g clip-path="url(#clip24)" clip-rule="nonzero">
<path style="fill:none;stroke-width:1.131198;stroke-linecap:butt;stroke-linejoin:bevel;stroke:rgb(90.196079%,0.784314%,70.588237%);stroke-opacity:1;stroke-miterlimit:4;" d="M 5.384096 15.746018 L 10.86885 15.746018 C 11.278491 15.746018 11.612846 16.1803 11.612846 16.715988 L 11.612846 21.797307 C 11.612846 22.332995 11.278491 22.767277 10.86885 22.767277 L 5.384096 22.767277 C 4.974455 22.767277 4.642314 22.332995 4.642314 21.797307 L 4.642314 16.715988 C 4.642314 16.1803 4.974455 15.746018 5.384096 15.746018 Z M 5.384096 15.746018 " transform="matrix(1.764123,0,0,1.771962,-1.283363,-9.584946)"/>
</g>
</g>
<path style="fill-rule:nonzero;fill:rgb(61.56863%,22.745098%,60.784316%);fill-opacity:1;stroke-width:0.191417;stroke-linecap:round;stroke-linejoin:round;stroke:rgb(61.56863%,22.745098%,60.784316%);stroke-opacity:1;stroke-miterlimit:4;" d="M 3.859466 19.120791 C 3.874341 18.956924 3.997809 18.838159 4.14954 18.838159 C 4.252182 18.838159 4.344411 18.889273 4.397963 18.973461 C 4.450028 18.889273 4.539282 18.838159 4.638948 18.838159 C 4.792167 18.838159 4.914147 18.956924 4.929023 19.120791 C 4.930511 19.128308 4.936461 19.165892 4.920098 19.22753 C 4.897784 19.317732 4.847207 19.398913 4.771341 19.463558 L 4.397963 19.786781 L 4.017147 19.463558 C 3.942769 19.398913 3.890704 19.317732 3.868391 19.22753 C 3.853515 19.165892 3.857978 19.128308 3.859466 19.120791 Z M 3.908555 19.21851 C 3.929381 19.301195 3.975496 19.37486 4.045411 19.434994 L 4.397963 19.734164 L 4.744565 19.434994 C 4.812993 19.37486 4.860595 19.301195 4.879934 19.21851 C 4.894809 19.159879 4.888859 19.126805 4.888859 19.126805 L 4.888859 19.125301 C 4.875471 18.980978 4.769854 18.877246 4.638948 18.877246 C 4.542257 18.877246 4.457466 18.934374 4.417302 19.024576 L 4.397963 19.068173 L 4.378625 19.024576 C 4.338461 18.934374 4.249207 18.877246 4.14954 18.877246 C 4.018635 18.877246 3.914505 18.980978 3.89963 19.126805 C 3.89963 19.126805 3.89368 19.159879 3.908555 19.21851 Z M 3.908555 19.21851 " transform="matrix(2.62594,0,0,2.598339,-1.427694,-28.803392)"/>
<path style="fill:none;stroke-width:0.765666;stroke-linecap:round;stroke-linejoin:miter;stroke:rgb(90.196079%,0.784314%,70.588237%);stroke-opacity:1;stroke-miterlimit:4;" d="M 3.907068 20.177656 L 7.138053 20.177656 " transform="matrix(2.62594,0,0,2.598339,-1.427694,-28.803392)"/>
<path style="fill:none;stroke-width:0.765666;stroke-linecap:round;stroke-linejoin:miter;stroke:rgb(90.196079%,0.784314%,70.588237%);stroke-opacity:1;stroke-miterlimit:4;" d="M 3.89368 21.360804 L 7.126153 21.360804 " transform="matrix(2.62594,0,0,2.598339,-1.427694,-28.803392)"/>
<path style="fill-rule:evenodd;fill:rgb(95.294118%,71.764708%,85.09804%);fill-opacity:1;stroke-width:0.382833;stroke-linecap:round;stroke-linejoin:bevel;stroke:rgb(90.196079%,0.784314%,70.588237%);stroke-opacity:1;stroke-miterlimit:4;" d="M 5.378267 15.112822 C 5.446695 15.112822 5.501735 15.195507 5.501735 15.296232 L 5.501735 15.577362 C 5.501735 15.67959 5.446695 15.760772 5.378267 15.760772 C 5.309839 15.760772 5.253312 15.67959 5.253312 15.577362 L 5.253312 15.296232 C 5.253312 15.195507 5.309839 15.112822 5.378267 15.112822 Z M 5.378267 15.112822 " transform="matrix(2.62594,0,0,2.598339,-1.427694,-28.803392)"/>
</g>
</svg>
