<?xml version="1.0" encoding="UTF-8"?>
<svg xmlns="http://www.w3.org/2000/svg" xmlns:xlink="http://www.w3.org/1999/xlink" width="32px" height="32px" viewBox="0 0 32 32" version="1.1">
<defs>
<linearGradient id="linear0" gradientUnits="userSpaceOnUse" x1="38.033909" y1="86.916695" x2="48.341999" y2="86.916695" gradientTransform="matrix(0.341891,0,0,-0.0116262,1.221422,25.250401)">
<stop offset="0" style="stop-color:rgb(18.431373%,18.431373%,18.431373%);stop-opacity:1;"/>
<stop offset="0.1224" style="stop-color:rgb(71.372551%,71.372551%,71.372551%);stop-opacity:1;"/>
<stop offset="0.278568" style="stop-color:rgb(95.294118%,95.294118%,95.294118%);stop-opacity:1;"/>
<stop offset="0.478117" style="stop-color:rgb(79.607844%,79.607844%,79.607844%);stop-opacity:1;"/>
<stop offset="0.6568" style="stop-color:rgb(100%,100%,100%);stop-opacity:1;"/>
<stop offset="0.7202" style="stop-color:rgb(94.509804%,94.509804%,94.509804%);stop-opacity:1;"/>
<stop offset="0.8387" style="stop-color:rgb(73.333335%,73.333335%,73.333335%);stop-opacity:1;"/>
<stop offset="1" style="stop-color:rgb(18.431373%,18.431373%,18.431373%);stop-opacity:1;"/>
</linearGradient>
<linearGradient id="linear1" gradientUnits="userSpaceOnUse" x1="46.05291" y1="114.455017" x2="78.560844" y2="114.455017" gradientTransform="matrix(0,0.140404,-0.157652,0,33.015827,18.120281)">
<stop offset="0" style="stop-color:rgb(100%,100%,100%);stop-opacity:1;"/>
<stop offset="1" style="stop-color:rgb(100%,100%,100%);stop-opacity:0;"/>
</linearGradient>
<filter id="alpha" filterUnits="objectBoundingBox" x="0%" y="0%" width="100%" height="100%">
  <feColorMatrix type="matrix" in="SourceGraphic" values="0 0 0 0 1 0 0 0 0 1 0 0 0 0 1 0 0 0 1 0"/>
</filter>
<mask id="mask0">
  <g filter="url(#alpha)">
<rect x="0" y="0" width="32" height="32" style="fill:rgb(0%,0%,0%);fill-opacity:0.537143;stroke:none;"/>
  </g>
</mask>
<clipPath id="clip1">
  <rect x="0" y="0" width="32" height="32"/>
</clipPath>
<g id="surface5" clip-path="url(#clip1)">
<path style=" stroke:none;fill-rule:nonzero;fill:rgb(95.294118%,71.764708%,85.09804%);fill-opacity:1;" d="M 11.285156 27.941406 L 11.78125 27.941406 C 11.917969 27.941406 12.027344 28.015625 12.027344 28.109375 L 12.027344 31.769531 C 12.027344 31.863281 11.917969 31.9375 11.78125 31.9375 L 11.285156 31.9375 C 11.148438 31.9375 11.035156 31.863281 11.035156 31.769531 L 11.035156 28.109375 C 11.035156 28.015625 11.148438 27.941406 11.285156 27.941406 Z M 11.285156 27.941406 "/>
</g>
<mask id="mask1">
  <g filter="url(#alpha)">
<rect x="0" y="0" width="32" height="32" style="fill:rgb(0%,0%,0%);fill-opacity:0.537143;stroke:none;"/>
  </g>
</mask>
<clipPath id="clip2">
  <rect x="0" y="0" width="32" height="32"/>
</clipPath>
<g id="surface8" clip-path="url(#clip2)">
<path style=" stroke:none;fill-rule:nonzero;fill:rgb(90.196079%,0.784314%,70.588237%);fill-opacity:1;" d="M 15.867188 11.695312 L 16.132812 11.695312 C 16.269531 11.695312 16.378906 11.769531 16.378906 11.859375 L 16.378906 14.65625 C 16.378906 14.746094 16.269531 14.824219 16.132812 14.824219 L 15.867188 14.824219 C 15.730469 14.824219 15.621094 14.746094 15.621094 14.65625 L 15.621094 11.859375 C 15.621094 11.769531 15.730469 11.695312 15.867188 11.695312 Z M 15.867188 11.695312 "/>
</g>
<clipPath id="clip3">
  <path d="M 6 3 L 26 3 L 26 24 L 6 24 Z M 6 3 "/>
</clipPath>
<clipPath id="clip4">
  <path d="M 10.054688 2 L 4.980469 7.191406 L 4.980469 24.496094 L 27.828125 24.496094 L 27.828125 2 Z M 10.054688 2 "/>
</clipPath>
<clipPath id="clip5">
  <path d="M 5 2 L 27 2 L 27 25 L 5 25 Z M 5 2 "/>
</clipPath>
<clipPath id="clip6">
  <path d="M 10.054688 2 L 4.980469 7.191406 L 4.980469 24.496094 L 27.828125 24.496094 L 27.828125 2 Z M 10.054688 2 "/>
</clipPath>
<clipPath id="clip7">
  <path d="M 13 3 L 21 3 L 21 8 L 13 8 Z M 13 3 "/>
</clipPath>
<clipPath id="clip8">
  <path d="M 7.976562 3.832031 L 24.203125 3.832031 C 25.863281 3.832031 27.210938 5.304688 27.210938 7.117188 L 27.210938 19.441406 C 27.210938 21.257812 25.863281 22.730469 24.203125 22.730469 L 7.976562 22.730469 C 6.316406 22.730469 4.96875 21.257812 4.96875 19.441406 L 4.96875 7.117188 C 4.96875 5.304688 6.316406 3.832031 7.976562 3.832031 Z M 7.976562 3.832031 "/>
</clipPath>
<clipPath id="clip9">
  <path d="M 12 3 L 22 3 L 22 9 L 12 9 Z M 12 3 "/>
</clipPath>
<clipPath id="clip10">
  <path d="M 7.976562 3.832031 L 24.203125 3.832031 C 25.863281 3.832031 27.210938 5.304688 27.210938 7.117188 L 27.210938 19.441406 C 27.210938 21.257812 25.863281 22.730469 24.203125 22.730469 L 7.976562 22.730469 C 6.316406 22.730469 4.96875 21.257812 4.96875 19.441406 L 4.96875 7.117188 C 4.96875 5.304688 6.316406 3.832031 7.976562 3.832031 Z M 7.976562 3.832031 "/>
</clipPath>
<clipPath id="clip11">
  <path d="M 9 12 L 23 12 L 23 23 L 9 23 Z M 9 12 "/>
</clipPath>
<clipPath id="clip12">
  <path d="M 6.585938 3.160156 L 24.480469 3.160156 C 26.3125 3.160156 27.800781 4.683594 27.800781 6.558594 L 27.800781 19.300781 C 27.800781 21.179688 26.3125 22.699219 24.480469 22.699219 L 6.585938 22.699219 C 4.753906 22.699219 3.269531 21.179688 3.269531 19.300781 L 3.269531 6.558594 C 3.269531 4.683594 4.753906 3.160156 6.585938 3.160156 Z M 6.585938 3.160156 "/>
</clipPath>
<clipPath id="clip13">
  <path d="M 8 11 L 24 11 L 24 23 L 8 23 Z M 8 11 "/>
</clipPath>
<clipPath id="clip14">
  <path d="M 6.585938 3.160156 L 24.480469 3.160156 C 26.3125 3.160156 27.800781 4.683594 27.800781 6.558594 L 27.800781 19.300781 C 27.800781 21.179688 26.3125 22.699219 24.480469 22.699219 L 6.585938 22.699219 C 4.753906 22.699219 3.269531 21.179688 3.269531 19.300781 L 3.269531 6.558594 C 3.269531 4.683594 4.753906 3.160156 6.585938 3.160156 Z M 6.585938 3.160156 "/>
</clipPath>
<mask id="mask2">
  <g filter="url(#alpha)">
<rect x="0" y="0" width="32" height="32" style="fill:rgb(0%,0%,0%);fill-opacity:0.537143;stroke:none;"/>
  </g>
</mask>
<clipPath id="clip15">
  <rect x="0" y="0" width="32" height="32"/>
</clipPath>
<g id="surface11" clip-path="url(#clip15)">
<path style=" stroke:none;fill-rule:nonzero;fill:rgb(95.294118%,71.764708%,85.09804%);fill-opacity:1;" d="M 19.285156 27.941406 L 19.78125 27.941406 C 19.917969 27.941406 20.027344 28.015625 20.027344 28.109375 L 20.027344 31.769531 C 20.027344 31.863281 19.917969 31.9375 19.78125 31.9375 L 19.285156 31.9375 C 19.148438 31.9375 19.035156 31.863281 19.035156 31.769531 L 19.035156 28.109375 C 19.035156 28.015625 19.148438 27.941406 19.285156 27.941406 Z M 19.285156 27.941406 "/>
</g>
</defs>
<g id="surface1">
<path style="fill:none;stroke-width:1;stroke-linecap:round;stroke-linejoin:miter;stroke:rgb(90.196079%,0.784314%,70.588237%);stroke-opacity:1;stroke-miterlimit:4;" d="M 1 15 L 15 15 " transform="matrix(2,0,0,2,0,0)"/>
<path style=" stroke:none;fill-rule:nonzero;fill:url(#linear0);" d="M 14.335938 29.71875 L 17.636719 29.71875 C 17.828125 29.71875 17.984375 29.710938 17.984375 29.703125 L 17.984375 23.824219 C 17.984375 23.8125 17.828125 23.804688 17.636719 23.804688 L 14.335938 23.804688 C 14.144531 23.804688 13.992188 23.8125 13.992188 23.824219 L 13.992188 29.703125 C 13.992188 29.710938 14.144531 29.71875 14.335938 29.71875 Z M 14.335938 29.71875 "/>
<path style=" stroke:none;fill-rule:nonzero;fill:url(#linear1);" d="M 15.292969 24.585938 L 15.292969 29.152344 L 14.652344 29.152344 L 14.652344 24.585938 Z M 15.292969 24.585938 "/>
<path style=" stroke:none;fill-rule:nonzero;fill:rgb(90.196079%,0.784314%,70.588237%);fill-opacity:1;" d="M 14.335938 29.71875 L 17.636719 29.71875 C 17.828125 29.71875 17.984375 29.710938 17.984375 29.703125 L 17.984375 23.824219 C 17.984375 23.8125 17.828125 23.804688 17.636719 23.804688 L 14.335938 23.804688 C 14.144531 23.804688 13.992188 23.8125 13.992188 23.824219 L 13.992188 29.703125 C 13.992188 29.710938 14.144531 29.71875 14.335938 29.71875 Z M 14.335938 29.71875 "/>
<path style=" stroke:none;fill-rule:nonzero;fill:rgb(61.56863%,22.745098%,60.784316%);fill-opacity:1;" d="M 21.945312 31.527344 L 21.945312 28.351562 C 21.945312 28.125 21.683594 27.941406 21.363281 27.941406 L 10.625 27.941406 C 10.304688 27.941406 10.046875 28.125 10.046875 28.351562 L 10.046875 31.527344 C 10.046875 31.753906 10.304688 31.9375 10.625 31.9375 L 21.363281 31.9375 C 21.683594 31.9375 21.945312 31.753906 21.945312 31.527344 Z M 21.945312 31.527344 "/>
<use xlink:href="#surface5" mask="url(#mask0)"/>
<use xlink:href="#surface8" mask="url(#mask1)"/>
<g clip-path="url(#clip3)" clip-rule="nonzero">
<g clip-path="url(#clip4)" clip-rule="nonzero">
<path style=" stroke:none;fill-rule:evenodd;fill:rgb(95.294118%,71.764708%,85.09804%);fill-opacity:1;" d="M 9.828125 3.074219 L 22.171875 3.074219 C 24.25 3.074219 25.933594 4.757812 25.933594 6.832031 L 25.933594 19.683594 C 25.933594 21.757812 24.25 23.445312 22.171875 23.445312 L 9.828125 23.445312 C 7.75 23.445312 6.066406 21.757812 6.066406 19.683594 L 6.066406 6.832031 C 6.066406 4.757812 7.75 3.074219 9.828125 3.074219 Z M 9.828125 3.074219 "/>
</g>
</g>
<g clip-path="url(#clip5)" clip-rule="nonzero">
<g clip-path="url(#clip6)" clip-rule="nonzero">
<path style="fill:none;stroke-width:1.168625;stroke-linecap:round;stroke-linejoin:round;stroke:rgb(90.196079%,0.784314%,70.588237%);stroke-opacity:1;stroke-miterlimit:4;" d="M 4.365079 2.120718 L 11.658579 2.120718 C 12.886472 2.120718 13.88125 3.093552 13.88125 4.292102 L 13.88125 11.718145 C 13.88125 12.916695 12.886472 13.891786 11.658579 13.891786 L 4.365079 13.891786 C 3.137186 13.891786 2.142408 12.916695 2.142408 11.718145 L 2.142408 4.292102 C 2.142408 3.093552 3.137186 2.120718 4.365079 2.120718 Z M 4.365079 2.120718 " transform="matrix(1.692432,0,0,1.730607,2.440526,-0.595911)"/>
</g>
</g>
<path style="fill:none;stroke-width:0.758109;stroke-linecap:butt;stroke-linejoin:bevel;stroke:rgb(90.196079%,0.784314%,70.588237%);stroke-opacity:1;stroke-miterlimit:4;" d="M 1.693861 16.422976 L 3.597941 14.536469 " transform="matrix(2.62594,0,0,2.650401,1.552022,-35.52747)"/>
<g clip-path="url(#clip7)" clip-rule="nonzero">
<g clip-path="url(#clip8)" clip-rule="nonzero">
<path style=" stroke:none;fill-rule:evenodd;fill:rgb(94.117647%,89.019608%,92.54902%);fill-opacity:1;" d="M 14.945312 1.738281 L 18.945312 1.738281 C 19.667969 1.738281 20.257812 2.507812 20.257812 3.457031 L 20.257812 6.011719 C 20.257812 6.960938 19.667969 7.734375 18.945312 7.734375 L 14.945312 7.734375 C 14.222656 7.734375 13.636719 6.960938 13.636719 6.011719 L 13.636719 3.457031 C 13.636719 2.507812 14.222656 1.738281 14.945312 1.738281 Z M 14.945312 1.738281 "/>
</g>
</g>
<g clip-path="url(#clip9)" clip-rule="nonzero">
<g clip-path="url(#clip10)" clip-rule="nonzero">
<path style="fill:none;stroke-width:1.196026;stroke-linecap:butt;stroke-linejoin:bevel;stroke:rgb(90.196079%,0.784314%,70.588237%);stroke-opacity:1;stroke-miterlimit:4;" d="M 7.127914 9.361736 L 9.628613 9.361736 C 10.0804 9.361736 10.449155 9.801932 10.449155 10.344915 L 10.449155 11.806276 C 10.449155 12.349259 10.0804 12.79169 9.628613 12.79169 L 7.127914 12.79169 C 6.676127 12.79169 6.309814 12.349259 6.309814 11.806276 L 6.309814 10.344915 C 6.309814 9.801932 6.676127 9.361736 7.127914 9.361736 Z M 7.127914 9.361736 " transform="matrix(1.599553,0,0,1.748156,3.543839,-14.62749)"/>
</g>
</g>
<g clip-path="url(#clip11)" clip-rule="nonzero">
<g clip-path="url(#clip12)" clip-rule="nonzero">
<path style=" stroke:none;fill-rule:evenodd;fill:rgb(94.117647%,89.019608%,92.54902%);fill-opacity:1;" d="M 11.195312 12.539062 L 20.871094 12.539062 C 21.59375 12.539062 22.183594 13.308594 22.183594 14.257812 L 22.183594 23.507812 C 22.183594 24.460938 21.59375 25.230469 20.871094 25.230469 L 11.195312 25.230469 C 10.472656 25.230469 9.886719 24.460938 9.886719 23.507812 L 9.886719 14.257812 C 9.886719 13.308594 10.472656 12.539062 11.195312 12.539062 Z M 11.195312 12.539062 "/>
</g>
</g>
<g clip-path="url(#clip13)" clip-rule="nonzero">
<g clip-path="url(#clip14)" clip-rule="nonzero">
<path style="fill:none;stroke-width:1.120032;stroke-linecap:butt;stroke-linejoin:bevel;stroke:rgb(90.196079%,0.784314%,70.588237%);stroke-opacity:1;stroke-miterlimit:4;" d="M 5.384522 15.747465 L 10.869277 15.747465 C 11.278917 15.747465 11.613273 16.173216 11.613273 16.698382 L 11.613273 21.816042 C 11.613273 22.343369 11.278917 22.76912 10.869277 22.76912 L 5.384522 22.76912 C 4.974882 22.76912 4.642741 22.343369 4.642741 21.816042 L 4.642741 16.698382 C 4.642741 16.173216 4.974882 15.747465 5.384522 15.747465 Z M 5.384522 15.747465 " transform="matrix(1.764123,0,0,1.807466,1.696354,-15.923951)"/>
</g>
</g>
<path style="fill-rule:nonzero;fill:rgb(61.56863%,22.745098%,60.784316%);fill-opacity:1;stroke-width:0.189527;stroke-linecap:round;stroke-linejoin:round;stroke:rgb(61.56863%,22.745098%,60.784316%);stroke-opacity:1;stroke-miterlimit:4;" d="M 3.859752 19.120091 C 3.874628 18.956496 3.996608 18.838589 4.149827 18.838589 C 4.252469 18.838589 4.344698 18.890173 4.396762 18.972708 C 4.448827 18.8887 4.538081 18.838589 4.639235 18.838589 C 4.792454 18.838589 4.914434 18.956496 4.92931 19.120091 C 4.930797 19.127461 4.93526 19.16578 4.920384 19.227681 C 4.898071 19.317585 4.846006 19.398646 4.771628 19.463495 L 4.39825 19.786264 L 4.017434 19.463495 C 3.941568 19.398646 3.890991 19.317585 3.868678 19.227681 C 3.853802 19.16578 3.858265 19.127461 3.859752 19.120091 Z M 3.908842 19.218838 C 3.929668 19.301373 3.975782 19.375065 4.04421 19.434018 L 4.396762 19.733206 L 4.743364 19.435492 C 4.81328 19.375065 4.859394 19.301373 4.88022 19.218838 C 4.895096 19.159885 4.889145 19.127461 4.889145 19.127461 L 4.889145 19.124513 C 4.875757 18.981551 4.77014 18.876909 4.639235 18.876909 C 4.542543 18.876909 4.456265 18.934388 4.416101 19.024292 L 4.39825 19.067033 L 4.378911 19.024292 C 4.338747 18.934388 4.249494 18.876909 4.149827 18.876909 C 4.018921 18.876909 3.913304 18.981551 3.899916 19.127461 C 3.899916 19.127461 3.893966 19.159885 3.908842 19.218838 Z M 3.908842 19.218838 " transform="matrix(2.62594,0,0,2.650401,1.552022,-35.52747)"/>
<path style="fill:none;stroke-width:0.758109;stroke-linecap:round;stroke-linejoin:miter;stroke:rgb(90.196079%,0.784314%,70.588237%);stroke-opacity:1;stroke-miterlimit:4;" d="M 3.905867 20.17683 L 7.13834 20.17683 " transform="matrix(2.62594,0,0,2.650401,1.552022,-35.52747)"/>
<path style="fill:none;stroke-width:0.758109;stroke-linecap:round;stroke-linejoin:miter;stroke:rgb(90.196079%,0.784314%,70.588237%);stroke-opacity:1;stroke-miterlimit:4;" d="M 3.893966 21.360319 L 7.124952 21.360319 " transform="matrix(2.62594,0,0,2.650401,1.552022,-35.52747)"/>
<path style="fill-rule:evenodd;fill:rgb(95.294118%,71.764708%,85.09804%);fill-opacity:1;stroke-width:0.379055;stroke-linecap:round;stroke-linejoin:bevel;stroke:rgb(90.196079%,0.784314%,70.588237%);stroke-opacity:1;stroke-miterlimit:4;" d="M 5.378553 15.112738 C 5.446981 15.112738 5.502021 15.193799 5.502021 15.292545 L 5.502021 15.581417 C 5.502021 15.680164 5.446981 15.761225 5.378553 15.761225 C 5.310126 15.761225 5.253598 15.680164 5.253598 15.581417 L 5.253598 15.292545 C 5.253598 15.193799 5.310126 15.112738 5.378553 15.112738 Z M 5.378553 15.112738 " transform="matrix(2.62594,0,0,2.650401,1.552022,-35.52747)"/>
<path style="fill-rule:nonzero;fill:rgb(94.117647%,89.019608%,92.54902%);fill-opacity:1;stroke-width:1.057222;stroke-linecap:butt;stroke-linejoin:round;stroke:rgb(61.56863%,22.745098%,60.784316%);stroke-opacity:1;stroke-miterlimit:4;" d="M 8.67608 11.232224 C 9.336977 9.97097 9.336977 9.97097 10.664348 9.457227 L 11.668242 12.583178 Z M 8.67608 11.232224 " transform="matrix(1.400795,0,0,-1.437063,6.073151,24.086721)"/>
<path style="fill:none;stroke-width:1.057222;stroke-linecap:round;stroke-linejoin:miter;stroke:rgb(61.56863%,22.745098%,60.784316%);stroke-opacity:1;stroke-miterlimit:4;" d="M 11.668242 12.583178 L 12.666559 13.700366 " transform="matrix(1.400795,0,0,-1.437063,6.073151,24.086721)"/>
<path style="fill-rule:nonzero;fill:rgb(95.294118%,71.764708%,85.09804%);fill-opacity:1;stroke-width:1.057222;stroke-linecap:round;stroke-linejoin:round;stroke:rgb(61.56863%,22.745098%,60.784316%);stroke-opacity:1;stroke-miterlimit:4;" d="M 1.841235 1.916889 L 2.173078 1.620604 C 2.630407 1.212871 3.372173 1.297136 3.832291 1.813597 L 10.329717 9.084831 C 10.792624 9.601293 12.292888 12.023225 11.832769 12.433676 L 11.500927 12.729962 C 11.043597 13.140413 8.804356 11.376289 8.341449 10.859828 L 1.844024 3.591312 C 1.383905 3.07485 1.381117 2.32734 1.841235 1.916889 Z M 1.841235 1.916889 " transform="matrix(1.400795,0,0,-1.437063,6.073151,24.086721)"/>
<path style="fill:none;stroke-width:1.057222;stroke-linecap:butt;stroke-linejoin:miter;stroke:rgb(61.56863%,22.745098%,60.784316%);stroke-opacity:1;stroke-miterlimit:4;" d="M 8.67608 11.232224 C 9.002346 9.598575 9.002346 9.598575 10.664348 9.457227 " transform="matrix(1.400795,0,0,-1.437063,6.073151,24.086721)"/>
<path style="fill-rule:nonzero;fill:rgb(94.117647%,89.019608%,92.54902%);fill-opacity:1;stroke-width:1.057222;stroke-linecap:round;stroke-linejoin:round;stroke:rgb(61.56863%,22.745098%,60.784316%);stroke-opacity:1;stroke-miterlimit:4;" d="M 5.332555 3.490738 C 3.846234 3.830515 3.846234 3.830515 3.344287 5.268453 C 3.506026 5.450573 4.194809 6.219829 4.342604 6.38564 C 4.671658 4.751991 4.671658 4.751991 6.330872 4.610644 C 6.224906 4.488324 5.558432 3.743532 5.332555 3.490738 Z M 5.332555 3.490738 " transform="matrix(1.400795,0,0,-1.437063,6.073151,24.086721)"/>
<path style="fill-rule:nonzero;fill:rgb(94.117647%,89.019608%,92.54902%);fill-opacity:1;stroke-width:1.057222;stroke-linecap:round;stroke-linejoin:round;stroke:rgb(61.56863%,22.745098%,60.784316%);stroke-opacity:1;stroke-miterlimit:4;" d="M 10.329717 9.084831 C 10.84003 9.655657 12.292888 12.023225 11.832769 12.433676 L 11.500927 12.729962 C 11.043597 13.140413 8.812721 11.387162 8.341449 10.859828 C 9.002346 9.598575 9.002346 9.598575 10.329717 9.084831 Z M 10.329717 9.084831 " transform="matrix(1.400795,0,0,-1.437063,6.073151,24.086721)"/>
<path style="fill:none;stroke-width:1.057222;stroke-linecap:round;stroke-linejoin:round;stroke:rgb(61.56863%,22.745098%,60.784316%);stroke-opacity:1;stroke-miterlimit:4;" d="M 3.999607 2.001154 L 4.33145 1.704868 C 4.66887 1.403146 5.335344 1.492847 5.66161 1.857089 L 9.325823 5.95888 " transform="matrix(1.400795,0,0,-1.437063,6.073151,24.086721)"/>
<path style="fill-rule:nonzero;fill:rgb(61.56863%,22.745098%,60.784316%);fill-opacity:1;stroke-width:1.057222;stroke-linecap:round;stroke-linejoin:round;stroke:rgb(61.56863%,22.745098%,60.784316%);stroke-opacity:1;stroke-miterlimit:4;" d="M 3.484897 10.656976 C 3.482405 10.931795 3.259831 11.155766 2.982796 11.156096 C 2.705762 11.156427 2.483471 10.932275 2.483884 10.655598 C 2.482485 10.380947 2.70687 10.154949 2.982094 10.156646 C 3.259128 10.156315 3.483498 10.382325 3.484897 10.656976 Z M 3.484897 10.656976 " transform="matrix(1.04453,0.957538,0.933372,-1.071574,6.073151,24.086721)"/>
<use xlink:href="#surface11" mask="url(#mask2)"/>
</g>
</svg>
