<?xml version="1.0" encoding="UTF-8"?>
<svg xmlns="http://www.w3.org/2000/svg" xmlns:xlink="http://www.w3.org/1999/xlink" width="32px" height="32px" viewBox="0 0 32 32" version="1.1">
<defs>
<clipPath id="clip1">
  <path d="M 12 12 L 30 12 L 30 30 L 12 30 Z M 12 12 "/>
</clipPath>
<clipPath id="clip2">
  <path d="M 16.09375 11.75 L 11.800781 16.03125 L 11.800781 30.300781 L 31.117188 30.300781 L 31.117188 11.75 Z M 16.09375 11.75 "/>
</clipPath>
<clipPath id="clip3">
  <path d="M 12 12 L 31 12 L 31 30 L 12 30 Z M 12 12 "/>
</clipPath>
<clipPath id="clip4">
  <path d="M 16.09375 11.75 L 11.800781 16.03125 L 11.800781 30.300781 L 31.117188 30.300781 L 31.117188 11.75 Z M 16.09375 11.75 "/>
</clipPath>
<clipPath id="clip5">
  <path d="M 19 13 L 25 13 L 25 17 L 19 17 Z M 19 13 "/>
</clipPath>
<clipPath id="clip6">
  <path d="M 14.335938 13.261719 L 28.054688 13.261719 C 29.460938 13.261719 30.597656 14.472656 30.597656 15.96875 L 30.597656 26.132812 C 30.597656 27.628906 29.460938 28.84375 28.054688 28.84375 L 14.335938 28.84375 C 12.933594 28.84375 11.792969 27.628906 11.792969 26.132812 L 11.792969 15.96875 C 11.792969 14.472656 12.933594 13.261719 14.335938 13.261719 Z M 14.335938 13.261719 "/>
</clipPath>
<clipPath id="clip7">
  <path d="M 18 13 L 26 13 L 26 17 L 18 17 Z M 18 13 "/>
</clipPath>
<clipPath id="clip8">
  <path d="M 14.335938 13.261719 L 28.054688 13.261719 C 29.460938 13.261719 30.597656 14.472656 30.597656 15.96875 L 30.597656 26.132812 C 30.597656 27.628906 29.460938 28.84375 28.054688 28.84375 L 14.335938 28.84375 C 12.933594 28.84375 11.792969 27.628906 11.792969 26.132812 L 11.792969 15.96875 C 11.792969 14.472656 12.933594 13.261719 14.335938 13.261719 Z M 14.335938 13.261719 "/>
</clipPath>
<clipPath id="clip9">
  <path d="M 15 20 L 27 20 L 27 29 L 15 29 Z M 15 20 "/>
</clipPath>
<clipPath id="clip10">
  <path d="M 13.160156 12.707031 L 28.292969 12.707031 C 29.839844 12.707031 31.09375 13.960938 31.09375 15.511719 L 31.09375 26.015625 C 31.09375 27.5625 29.839844 28.820312 28.292969 28.820312 L 13.160156 28.820312 C 11.613281 28.820312 10.355469 27.5625 10.355469 26.015625 L 10.355469 15.511719 C 10.355469 13.960938 11.613281 12.707031 13.160156 12.707031 Z M 13.160156 12.707031 "/>
</clipPath>
<clipPath id="clip11">
  <path d="M 15 19 L 27 19 L 27 29 L 15 29 Z M 15 19 "/>
</clipPath>
<clipPath id="clip12">
  <path d="M 13.160156 12.707031 L 28.292969 12.707031 C 29.839844 12.707031 31.09375 13.960938 31.09375 15.511719 L 31.09375 26.015625 C 31.09375 27.5625 29.839844 28.820312 28.292969 28.820312 L 13.160156 28.820312 C 11.613281 28.820312 10.355469 27.5625 10.355469 26.015625 L 10.355469 15.511719 C 10.355469 13.960938 11.613281 12.707031 13.160156 12.707031 Z M 13.160156 12.707031 "/>
</clipPath>
</defs>
<g id="surface1">
<path style="fill-rule:evenodd;fill:rgb(94.117647%,89.019608%,92.54902%);fill-opacity:1;stroke-width:1.602536;stroke-linecap:round;stroke-linejoin:round;stroke:rgb(90.196079%,0.784314%,70.588237%);stroke-opacity:1;stroke-miterlimit:4;" d="M 3.128088 1.900221 L 18.847106 1.900221 C 19.746698 1.900221 20.474636 2.605972 20.474636 3.478146 L 20.474636 20.92162 C 20.474636 21.793794 19.746698 22.499545 18.847106 22.499545 L 3.128088 22.499545 C 2.228497 22.499545 1.500558 21.793794 1.500558 20.92162 L 1.500558 3.478146 C 1.500558 2.605972 2.228497 1.900221 3.128088 1.900221 Z M 3.128088 1.900221 " transform="matrix(1.228856,0,0,1.267487,1.245874,0.536808)"/>
<path style="fill:none;stroke-width:1.602536;stroke-linecap:round;stroke-linejoin:miter;stroke:rgb(90.196079%,0.784314%,70.588237%);stroke-opacity:1;stroke-miterlimit:4;" d="M 3.404641 10.865426 L 14.70199 10.865426 " transform="matrix(1.228856,0,0,1.267487,1.245874,0.536808)"/>
<path style="fill:none;stroke-width:1.602536;stroke-linecap:round;stroke-linejoin:miter;stroke:rgb(90.196079%,0.784314%,70.588237%);stroke-opacity:1;stroke-miterlimit:4;" d="M 3.391926 13.814791 L 14.692453 13.814791 " transform="matrix(1.228856,0,0,1.267487,1.245874,0.536808)"/>
<path style="fill:none;stroke-width:1.602536;stroke-linecap:round;stroke-linejoin:miter;stroke:rgb(90.196079%,0.784314%,70.588237%);stroke-opacity:1;stroke-miterlimit:4;" d="M 3.350602 16.865858 L 14.651129 16.865858 " transform="matrix(1.228856,0,0,1.267487,1.245874,0.536808)"/>
<path style="fill-rule:evenodd;fill:rgb(61.56863%,22.745098%,60.784316%);fill-opacity:1;stroke-width:0.801268;stroke-linecap:round;stroke-linejoin:round;stroke:rgb(61.56863%,22.745098%,60.784316%);stroke-opacity:1;stroke-miterlimit:4;" d="M 1.500558 1.998841 C 1.777111 1.998841 1.999625 3.05901 1.999625 4.365729 L 1.999625 19.633392 C 1.999625 20.940111 1.777111 22.00028 1.500558 22.00028 C 1.224005 22.00028 1.001491 20.940111 1.001491 19.633392 L 1.001491 4.365729 C 1.001491 3.05901 1.224005 1.998841 1.500558 1.998841 Z M 1.500558 1.998841 " transform="matrix(1.228856,0,0,1.267487,1.245874,0.536808)"/>
<g clip-path="url(#clip1)" clip-rule="nonzero">
<g clip-path="url(#clip2)" clip-rule="nonzero">
<path style=" stroke:none;fill-rule:evenodd;fill:rgb(95.294118%,71.764708%,85.09804%);fill-opacity:1;" d="M 16.484375 12.632812 L 25.757812 12.632812 C 27.832031 12.632812 29.515625 14.316406 29.515625 16.394531 L 29.515625 25.671875 C 29.515625 27.746094 27.832031 29.429688 25.757812 29.429688 L 16.484375 29.429688 C 14.40625 29.429688 12.722656 27.746094 12.722656 25.671875 L 12.722656 16.394531 C 12.722656 14.316406 14.40625 12.632812 16.484375 12.632812 Z M 16.484375 12.632812 "/>
</g>
</g>
<g clip-path="url(#clip3)" clip-rule="nonzero">
<g clip-path="url(#clip4)" clip-rule="nonzero">
<path style="fill:none;stroke-width:0.699837;stroke-linecap:round;stroke-linejoin:round;stroke:rgb(90.196079%,0.784314%,70.588237%);stroke-opacity:1;stroke-miterlimit:4;" d="M 4.772127 2.118491 L 11.25319 2.118491 C 12.702829 2.118491 13.879467 3.298337 13.879467 4.754666 L 13.879467 11.256134 C 13.879467 12.709725 12.702829 13.88957 11.25319 13.88957 L 4.772127 13.88957 C 3.319757 13.88957 2.143119 12.709725 2.143119 11.256134 L 2.143119 4.754666 C 2.143119 3.298337 3.319757 2.118491 4.772127 2.118491 Z M 4.772127 2.118491 " transform="matrix(1.430851,0,0,1.426961,9.656172,9.609807)"/>
</g>
</g>
<path style="fill:none;stroke-width:0.453997;stroke-linecap:butt;stroke-linejoin:bevel;stroke:rgb(90.196079%,0.784314%,70.588237%);stroke-opacity:1;stroke-miterlimit:4;" d="M 1.807583 16.041242 L 3.301408 14.486157 " transform="matrix(2.220078,0,0,2.185372,8.904994,-19.192795)"/>
<g clip-path="url(#clip5)" clip-rule="nonzero">
<g clip-path="url(#clip6)" clip-rule="nonzero">
<path style=" stroke:none;fill-rule:evenodd;fill:rgb(94.117647%,89.019608%,92.54902%);fill-opacity:1;" d="M 20.433594 11.535156 L 23.40625 11.535156 C 24.132812 11.535156 24.71875 12.304688 24.71875 13.253906 L 24.71875 14.757812 C 24.71875 15.707031 24.132812 16.476562 23.40625 16.476562 L 20.433594 16.476562 C 19.707031 16.476562 19.121094 15.707031 19.121094 14.757812 L 19.121094 13.253906 C 19.121094 12.304688 19.707031 11.535156 20.433594 11.535156 Z M 20.433594 11.535156 "/>
</g>
</g>
<g clip-path="url(#clip7)" clip-rule="nonzero">
<g clip-path="url(#clip8)" clip-rule="nonzero">
<path style="fill:none;stroke-width:0.716246;stroke-linecap:butt;stroke-linejoin:bevel;stroke:rgb(90.196079%,0.784314%,70.588237%);stroke-opacity:1;stroke-miterlimit:4;" d="M 7.279773 9.362225 L 9.47795 9.362225 C 10.015219 9.362225 10.448499 9.896091 10.448499 10.554616 L 10.448499 11.597959 C 10.448499 12.256484 10.015219 12.79035 9.47795 12.79035 L 7.279773 12.79035 C 6.742504 12.79035 6.309224 12.256484 6.309224 11.597959 L 6.309224 10.554616 C 6.309224 9.896091 6.742504 9.362225 7.279773 9.362225 Z M 7.279773 9.362225 " transform="matrix(1.352327,0,0,1.441431,10.588958,-1.959845)"/>
</g>
</g>
<g clip-path="url(#clip9)" clip-rule="nonzero">
<g clip-path="url(#clip10)" clip-rule="nonzero">
<path style=" stroke:none;fill-rule:evenodd;fill:rgb(94.117647%,89.019608%,92.54902%);fill-opacity:1;" d="M 17.261719 20.4375 L 25.035156 20.4375 C 25.757812 20.4375 26.347656 21.207031 26.347656 22.160156 L 26.347656 29.183594 C 26.347656 30.132812 25.757812 30.902344 25.035156 30.902344 L 17.261719 30.902344 C 16.535156 30.902344 15.949219 30.132812 15.949219 29.183594 L 15.949219 22.160156 C 15.949219 21.207031 16.535156 20.4375 17.261719 20.4375 Z M 17.261719 20.4375 "/>
</g>
</g>
<g clip-path="url(#clip11)" clip-rule="nonzero">
<g clip-path="url(#clip12)" clip-rule="nonzero">
<path style="fill:none;stroke-width:0.670736;stroke-linecap:butt;stroke-linejoin:bevel;stroke:rgb(90.196079%,0.784314%,70.588237%);stroke-opacity:1;stroke-miterlimit:4;" d="M 5.521228 15.745674 L 10.733186 15.745674 C 11.217715 15.745674 11.613195 16.262022 11.613195 16.901559 L 11.613195 21.614215 C 11.613195 22.251132 11.217715 22.767479 10.733186 22.767479 L 5.521228 22.767479 C 5.03408 22.767479 4.641219 22.251132 4.641219 21.614215 L 4.641219 16.901559 C 4.641219 16.262022 5.03408 15.745674 5.521228 15.745674 Z M 5.521228 15.745674 " transform="matrix(1.491462,0,0,1.490335,9.027018,-3.028834)"/>
</g>
</g>
<path style="fill-rule:nonzero;fill:rgb(61.56863%,22.745098%,60.784316%);fill-opacity:1;stroke-width:0.453997;stroke-linecap:round;stroke-linejoin:round;stroke:rgb(61.56863%,22.745098%,60.784316%);stroke-opacity:1;stroke-miterlimit:4;" d="M 3.859173 19.121024 C 3.875008 18.956578 3.996414 18.838606 4.149492 18.838606 C 4.251544 18.838606 4.344798 18.890442 4.397583 18.972665 C 4.448609 18.888655 4.538344 18.838606 4.638636 18.838606 C 4.791713 18.838606 4.91312 18.956578 4.928955 19.121024 C 4.930715 19.128174 4.935993 19.16571 4.920158 19.228271 C 4.897284 19.317644 4.846258 19.399866 4.772359 19.464215 L 4.397583 19.785956 L 4.017529 19.464215 C 3.94187 19.399866 3.890844 19.317644 3.86797 19.228271 C 3.853894 19.16571 3.857413 19.128174 3.859173 19.121024 Z M 3.908439 19.219334 C 3.929553 19.301557 3.9753 19.374842 4.045681 19.433828 L 4.397583 19.73412 L 4.744206 19.435616 C 4.812827 19.374842 4.860334 19.301557 4.879689 19.219334 C 4.895524 19.160348 4.888486 19.126386 4.888486 19.126386 L 4.888486 19.124599 C 4.87441 18.981602 4.770599 18.87793 4.638636 18.87793 C 4.541863 18.87793 4.457406 18.933341 4.416938 19.024501 L 4.397583 19.0674 L 4.378228 19.024501 C 4.339519 18.935129 4.249784 18.87793 4.149492 18.87793 C 4.019288 18.87793 3.913717 18.981602 3.899641 19.126386 C 3.899641 19.126386 3.894363 19.160348 3.908439 19.219334 Z M 3.908439 19.219334 " transform="matrix(2.220078,0,0,2.185372,8.904994,-19.192795)"/>
<path style="fill:none;stroke-width:0.453997;stroke-linecap:round;stroke-linejoin:miter;stroke:rgb(90.196079%,0.784314%,70.588237%);stroke-opacity:1;stroke-miterlimit:4;" d="M 3.906679 20.177409 L 7.1389 20.177409 " transform="matrix(2.220078,0,0,2.185372,8.904994,-19.192795)"/>
<path style="fill:none;stroke-width:0.453997;stroke-linecap:round;stroke-linejoin:miter;stroke:rgb(90.196079%,0.784314%,70.588237%);stroke-opacity:1;stroke-miterlimit:4;" d="M 3.894363 21.360703 L 7.124824 21.360703 " transform="matrix(2.220078,0,0,2.185372,8.904994,-19.192795)"/>
<path style="fill-rule:evenodd;fill:rgb(95.294118%,71.764708%,85.09804%);fill-opacity:1;stroke-width:0.453997;stroke-linecap:round;stroke-linejoin:bevel;stroke:rgb(90.196079%,0.784314%,70.588237%);stroke-opacity:1;stroke-miterlimit:4;" d="M 5.37763 15.113553 C 5.446251 15.113553 5.502556 15.210076 5.502556 15.331623 L 5.502556 15.542542 C 5.502556 15.664089 5.446251 15.760611 5.37763 15.760611 C 5.309009 15.760611 5.254465 15.664089 5.254465 15.542542 L 5.254465 15.331623 C 5.254465 15.210076 5.309009 15.113553 5.37763 15.113553 Z M 5.37763 15.113553 " transform="matrix(2.220078,0,0,2.185372,8.904994,-19.192795)"/>
<path style="fill-rule:nonzero;fill:rgb(94.117647%,89.019608%,92.54902%);fill-opacity:1;stroke-width:0.844163;stroke-linecap:butt;stroke-linejoin:round;stroke:rgb(61.56863%,22.745098%,60.784316%);stroke-opacity:1;stroke-miterlimit:4;" d="M 8.676076 11.232557 C 9.335754 9.973243 9.335754 9.973243 10.661707 9.455672 L 11.667717 12.58088 Z M 8.676076 11.232557 " transform="matrix(1.18429,0,0,-1.184921,11.045325,31.005008)"/>
<path style="fill:none;stroke-width:0.844163;stroke-linecap:round;stroke-linejoin:miter;stroke:rgb(61.56863%,22.745098%,60.784316%);stroke-opacity:1;stroke-miterlimit:4;" d="M 11.667717 12.58088 L 12.667129 13.701735 " transform="matrix(1.18429,0,0,-1.184921,11.045325,31.005008)"/>
<path style="fill-rule:nonzero;fill:rgb(95.294118%,71.764708%,85.09804%);fill-opacity:1;stroke-width:0.844163;stroke-linecap:round;stroke-linejoin:round;stroke:rgb(61.56863%,22.745098%,60.784316%);stroke-opacity:1;stroke-miterlimit:4;" d="M 1.841811 1.91957 L 2.17165 1.622873 C 2.630126 1.210794 3.372264 1.296507 3.834039 1.814078 L 10.32857 9.083152 C 10.790345 9.600724 12.291112 12.023749 11.832636 12.432531 L 11.502797 12.729228 C 11.044321 13.141307 8.801415 11.377609 8.342939 10.860037 L 1.845109 3.590963 C 1.383335 3.073391 1.380036 2.328352 1.841811 1.91957 Z M 1.841811 1.91957 " transform="matrix(1.18429,0,0,-1.184921,11.045325,31.005008)"/>
<path style="fill:none;stroke-width:0.844163;stroke-linecap:butt;stroke-linejoin:miter;stroke:rgb(61.56863%,22.745098%,60.784316%);stroke-opacity:1;stroke-miterlimit:4;" d="M 8.676076 11.232557 C 9.002617 9.600724 9.002617 9.600724 10.661707 9.455672 " transform="matrix(1.18429,0,0,-1.184921,11.045325,31.005008)"/>
<path style="fill-rule:nonzero;fill:rgb(94.117647%,89.019608%,92.54902%);fill-opacity:1;stroke-width:0.844163;stroke-linecap:round;stroke-linejoin:round;stroke:rgb(61.56863%,22.745098%,60.784316%);stroke-opacity:1;stroke-miterlimit:4;" d="M 5.331508 3.492064 C 3.847232 3.831617 3.847232 3.831617 3.342579 5.268949 C 3.507498 5.450263 4.193563 6.218379 4.345289 6.386507 C 4.67183 4.751377 4.67183 4.751377 6.330921 4.609622 C 6.225372 4.487647 5.555799 3.742608 5.331508 3.492064 Z M 5.331508 3.492064 " transform="matrix(1.18429,0,0,-1.184921,11.045325,31.005008)"/>
<path style="fill-rule:nonzero;fill:rgb(94.117647%,89.019608%,92.54902%);fill-opacity:1;stroke-width:0.844163;stroke-linecap:round;stroke-linejoin:round;stroke:rgb(61.56863%,22.745098%,60.784316%);stroke-opacity:1;stroke-miterlimit:4;" d="M 10.32857 9.083152 C 10.839821 9.656767 12.291112 12.023749 11.832636 12.432531 L 11.502797 12.729228 C 11.044321 13.141307 8.81131 11.387499 8.342939 10.860037 C 9.002617 9.600724 9.002617 9.600724 10.32857 9.083152 Z M 10.32857 9.083152 " transform="matrix(1.18429,0,0,-1.184921,11.045325,31.005008)"/>
<path style="fill:none;stroke-width:0.844163;stroke-linecap:round;stroke-linejoin:round;stroke:rgb(61.56863%,22.745098%,60.784316%);stroke-opacity:1;stroke-miterlimit:4;" d="M 3.998958 1.998689 L 4.332096 1.705289 C 4.668532 1.401999 5.334807 1.491008 5.661347 1.856934 L 9.325859 5.957945 " transform="matrix(1.18429,0,0,-1.184921,11.045325,31.005008)"/>
<path style="fill-rule:nonzero;fill:rgb(61.56863%,22.745098%,60.784316%);fill-opacity:1;stroke-width:0.844163;stroke-linecap:round;stroke-linejoin:round;stroke:rgb(61.56863%,22.745098%,60.784316%);stroke-opacity:1;stroke-miterlimit:4;" d="M 3.483916 10.656697 C 3.483263 10.934639 3.259829 11.154981 2.98433 11.156378 C 2.706371 11.155578 2.483701 10.934498 2.484354 10.656557 C 2.482811 10.381073 2.705982 10.156075 2.98394 10.156876 C 3.259439 10.155478 3.482373 10.381213 3.483916 10.656697 Z M 3.483916 10.656697 " transform="matrix(0.883089,0.789532,0.789111,-0.88356,11.045325,31.005008)"/>
</g>
</svg>
