<?xml version="1.0" encoding="UTF-8"?>
<svg xmlns="http://www.w3.org/2000/svg" xmlns:xlink="http://www.w3.org/1999/xlink" width="32px" height="32px" viewBox="0 0 32 32" version="1.1">
<defs>
<radialGradient id="radial0" gradientUnits="userSpaceOnUse" cx="949.332092" cy="517.870239" fx="941.931152" fy="440.161255" r="119.397293" gradientTransform="matrix(0.0947301,0.0034794,-0.00289044,0.0532213,-72.432801,-20.398355)">
<stop offset="0" style="stop-color:rgb(100%,100%,100%);stop-opacity:1;"/>
<stop offset="1" style="stop-color:rgb(100%,100%,100%);stop-opacity:0;"/>
</radialGradient>
</defs>
<g id="surface1">
<path style=" stroke:none;fill-rule:nonzero;fill:rgb(95.294118%,71.764708%,85.09804%);fill-opacity:1;" d="M 30 20.722656 C 30 24.347656 23.730469 27.285156 16 27.285156 C 8.269531 27.285156 2 24.347656 2 20.722656 C 2 17.101562 8.269531 14.164062 16 14.164062 C 23.730469 14.164062 30 17.101562 30 20.722656 Z M 30 20.722656 "/>
<path style=" stroke:none;fill-rule:nonzero;fill:rgb(95.294118%,71.764708%,85.09804%);fill-opacity:1;" d="M 30 16.800781 C 30 20.421875 23.730469 23.359375 16 23.359375 C 8.269531 23.359375 2 20.421875 2 16.800781 C 2 13.175781 8.269531 10.238281 16 10.238281 C 23.730469 10.238281 30 13.175781 30 16.800781 Z M 30 16.800781 "/>
<path style=" stroke:none;fill-rule:nonzero;fill:rgb(61.56863%,22.745098%,60.784316%);fill-opacity:1;" d="M 30 20.773438 C 30 24.394531 23.726562 27.332031 16 27.332031 C 8.3125 27.332031 2.066406 24.425781 2 20.828125 L 2.054688 23.4375 C 2.054688 27.058594 8.273438 30 16 30 C 23.730469 30 29.945312 27.058594 29.945312 23.4375 Z M 30 20.773438 "/>
<path style=" stroke:none;fill-rule:nonzero;fill:rgb(61.56863%,22.745098%,60.784316%);fill-opacity:1;" d="M 30 13.019531 C 30 16.640625 23.726562 19.578125 16 19.578125 C 8.3125 19.578125 2.066406 16.671875 2 13.074219 L 2.054688 15.683594 C 2.054688 19.304688 8.273438 22.246094 16 22.246094 C 23.730469 22.246094 29.945312 19.304688 29.945312 15.683594 Z M 30 13.019531 "/>
<path style=" stroke:none;fill-rule:nonzero;fill:rgb(95.294118%,71.764708%,85.09804%);fill-opacity:1;" d="M 30 8.851562 C 30 12.632812 23.730469 15.699219 16 15.699219 C 8.269531 15.699219 2 12.632812 2 8.851562 C 2 5.066406 8.269531 2 16 2 C 23.730469 2 30 5.066406 30 8.851562 Z M 30 8.851562 "/>
<path style=" stroke:none;fill-rule:nonzero;fill:rgb(61.56863%,22.745098%,60.784316%);fill-opacity:1;" d="M 30 16.796875 C 30 20.421875 23.726562 23.359375 16 23.359375 C 8.3125 23.359375 2.066406 20.449219 2 16.855469 L 2.054688 19.464844 C 2.054688 23.085938 8.273438 26.027344 16 26.027344 C 23.730469 26.027344 29.945312 23.085938 29.945312 19.464844 Z M 30 16.796875 "/>
<path style=" stroke:none;fill-rule:nonzero;fill:url(#radial0);" d="M 25.957031 11.070312 C 26.664062 13.167969 22.429688 15.003906 16.027344 15.003906 C 9.316406 15.003906 5.15625 13.109375 6.101562 11.070312 C 7.332031 8.410156 11.777344 7.136719 16.027344 7.136719 C 20.125 7.136719 25.15625 8.707031 25.957031 11.070312 Z M 25.957031 11.070312 "/>
<path style=" stroke:none;fill-rule:nonzero;fill:rgb(95.294118%,71.764708%,85.09804%);fill-opacity:1;" d="M 30 13.019531 C 30 16.640625 23.730469 19.578125 16 19.578125 C 8.269531 19.578125 2 16.640625 2 13.019531 C 2 9.394531 8.269531 6.457031 16 6.457031 C 23.730469 6.457031 30 9.394531 30 13.019531 Z M 30 13.019531 "/>
<path style=" stroke:none;fill-rule:nonzero;fill:rgb(61.56863%,22.745098%,60.784316%);fill-opacity:1;" d="M 30 8.800781 C 30 12.582031 23.726562 15.652344 16 15.652344 C 8.3125 15.652344 2.066406 12.613281 2 8.859375 L 2.054688 11.585938 C 2.054688 15.367188 8.273438 18.433594 16 18.433594 C 23.730469 18.433594 29.945312 15.367188 29.945312 11.585938 Z M 30 8.800781 "/>
<path style="fill-rule:nonzero;fill:rgb(94.117647%,89.019608%,92.54902%);fill-opacity:1;stroke-width:1.138526;stroke-linecap:round;stroke-linejoin:round;stroke:rgb(94.117647%,89.019608%,92.54902%);stroke-opacity:1;stroke-miterlimit:4;" d="M 5.264506 8.510455 C 4.964371 8.510455 4.770951 8.526024 4.47304 8.566059 C 4.386334 8.581628 4.312968 8.637232 4.312968 8.726198 L 4.259611 9.591391 C 4.250718 9.680357 4.190691 9.738185 4.123995 9.758203 C 4.121771 9.758203 4.121771 9.760427 4.119548 9.760427 C 3.741601 9.862738 3.383663 10.011756 3.052403 10.203032 C 2.992376 10.227498 2.916787 10.227498 2.852313 10.174118 L 2.203134 9.600288 C 2.13866 9.538012 2.047508 9.549133 1.976365 9.600288 C 1.736258 9.782668 1.587302 9.907221 1.373873 10.118515 C 1.162667 10.332033 1.038167 10.481051 0.855863 10.721259 C 0.802506 10.792432 0.793613 10.883622 0.855863 10.948122 L 1.429453 11.597574 C 1.471695 11.648729 1.49615 11.717678 1.471695 11.766609 L 1.465025 11.77773 C 1.260489 12.126921 1.100417 12.505026 0.995926 12.905373 C 0.995926 12.907597 0.993702 12.909821 0.993702 12.912045 C 0.964801 12.958753 0.91589 12.996563 0.84697 13.003235 L -0.0178621 13.058839 C -0.106791 13.058839 -0.164595 13.130012 -0.177934 13.218978 C -0.220175 13.517014 -0.233514 13.708291 -0.235738 14.008551 C -0.233514 14.308811 -0.220175 14.502312 -0.177934 14.800348 C -0.164595 14.887089 -0.106791 14.960486 -0.0178621 14.960486 L 0.84697 15.013866 C 0.927006 15.022763 0.980363 15.073918 1.004819 15.131746 C 1.107087 15.512075 1.258266 15.872387 1.451686 16.203785 C 1.485034 16.263837 1.487257 16.350579 1.429453 16.421752 L 0.855863 17.071203 C 0.793613 17.13348 0.802506 17.22467 0.855863 17.298067 C 1.038167 17.538275 1.162667 17.685068 1.373873 17.898587 C 1.587302 18.109881 1.736258 18.236657 1.976365 18.416813 C 2.047508 18.470193 2.13866 18.481314 2.203134 18.416813 L 2.852313 17.845207 C 2.921233 17.787379 3.007939 17.787379 3.070189 17.822966 L 3.079082 17.814069 C 3.401448 17.998673 3.750494 18.145467 4.119548 18.24333 L 4.119548 18.256675 C 4.186245 18.276692 4.250718 18.336744 4.259611 18.42571 L 4.312968 19.290904 C 4.312968 19.37987 4.386334 19.437698 4.47304 19.451043 C 4.770951 19.493301 4.964371 19.50887 5.264506 19.50887 C 5.56464 19.506646 5.75806 19.493301 6.055972 19.451043 C 6.142677 19.437698 6.216044 19.37987 6.216044 19.290904 L 6.269401 18.42571 C 6.278294 18.336744 6.342767 18.276692 6.409464 18.256675 L 6.409464 18.24333 C 6.778518 18.145467 7.127563 17.998673 7.44993 17.814069 L 7.458823 17.822966 C 7.521073 17.787379 7.607778 17.787379 7.676698 17.845207 L 8.325878 18.416813 C 8.390352 18.481314 8.481503 18.470193 8.552646 18.416813 C 8.792754 18.236657 8.94171 18.109881 9.155139 17.898587 C 9.366345 17.685068 9.490845 17.538275 9.673149 17.298067 C 9.726506 17.22467 9.735399 17.13348 9.673149 17.071203 L 9.099558 16.421752 C 9.041755 16.350579 9.043978 16.263837 9.077326 16.203785 C 9.270746 15.872387 9.424148 15.512075 9.524193 15.131746 C 9.548649 15.073918 9.602006 15.022763 9.682042 15.013866 L 10.546874 14.960486 C 10.635803 14.960486 10.693606 14.887089 10.706946 14.800348 C 10.749187 14.502312 10.762526 14.308811 10.764749 14.008551 C 10.762526 13.708291 10.749187 13.517014 10.706946 13.218978 C 10.693606 13.130012 10.635803 13.058839 10.546874 13.058839 L 9.682042 13.003235 C 9.613122 12.996563 9.564211 12.958753 9.535309 12.912045 C 9.535309 12.909821 9.533086 12.907597 9.533086 12.905373 C 9.428595 12.505026 9.244068 12.140266 9.063987 11.77773 L 9.057317 11.766609 C 9.032862 11.717678 9.057317 11.648729 9.099558 11.597574 L 9.673149 10.948122 C 9.735399 10.883622 9.726506 10.792432 9.673149 10.721259 C 9.490845 10.481051 9.366345 10.332033 9.155139 10.118515 C 8.94171 9.907221 8.792754 9.782668 8.552646 9.600288 C 8.481503 9.549133 8.390352 9.538012 8.325878 9.600288 L 7.676698 10.174118 C 7.612225 10.227498 7.536635 10.227498 7.476609 10.203032 C 7.145349 10.011756 6.787411 9.862738 6.409464 9.760427 C 6.40724 9.760427 6.40724 9.758203 6.405017 9.758203 C 6.338321 9.738185 6.278294 9.680357 6.269401 9.591391 L 6.216044 8.726198 C 6.216044 8.637232 6.142677 8.581628 6.055972 8.566059 C 5.75806 8.526024 5.56464 8.510455 5.264506 8.508231 Z M 5.264506 12.542837 C 6.073757 12.542837 6.73183 13.198961 6.73183 14.008551 C 6.73183 14.818141 6.073757 15.476489 5.264506 15.476489 C 4.455254 15.476489 3.797181 14.818141 3.797181 14.008551 C 3.797181 13.198961 4.455254 12.542837 5.264506 12.542837 Z M 5.264506 12.542837 " transform="matrix(1.757025,0,0,1.75629,1.750134,-3.778858)"/>
<path style="fill:none;stroke-width:0.704878;stroke-linecap:round;stroke-linejoin:miter;stroke:rgb(94.117647%,89.019608%,92.54902%);stroke-opacity:1;stroke-miterlimit:4;" d="M 2.380931 2.116417 L 3.836322 2.116417 " transform="matrix(5.687367,0,0,5.662148,-0.342011,8.840752)"/>
<path style="fill-rule:nonzero;fill:rgb(94.117647%,89.019608%,92.54902%);fill-opacity:1;stroke-width:0.704878;stroke-linecap:round;stroke-linejoin:round;stroke:rgb(94.117647%,89.019608%,92.54902%);stroke-opacity:1;stroke-miterlimit:4;" d="M 3.307464 1.587273 L 3.836322 2.116417 L 3.307464 2.645561 " transform="matrix(5.687367,0,0,5.662148,-0.342011,8.840752)"/>
<path style="fill-rule:evenodd;fill:rgb(94.117647%,89.019608%,92.54902%);fill-opacity:1;stroke-width:0.528658;stroke-linecap:round;stroke-linejoin:round;stroke:rgb(94.117647%,89.019608%,92.54902%);stroke-opacity:1;stroke-miterlimit:4;" d="M 2.650168 2.112278 C 2.650168 2.40479 2.413212 2.641422 2.120623 2.641422 C 1.828721 2.641422 1.591764 2.40479 1.591764 2.112278 C 1.591764 1.820455 1.828721 1.583133 2.120623 1.583133 C 2.413212 1.583133 2.650168 1.820455 2.650168 2.112278 Z M 2.650168 2.112278 " transform="matrix(5.687367,0,0,5.662148,-0.342011,8.840752)"/>
<path style="fill:none;stroke-width:0.352439;stroke-linecap:round;stroke-linejoin:miter;stroke:rgb(94.117647%,89.019608%,92.54902%);stroke-opacity:1;stroke-miterlimit:4;" d="M 2.380931 2.116417 L 3.836322 2.116417 " transform="matrix(5.687367,0,0,5.662148,-0.342011,8.840752)"/>
<path style="fill-rule:nonzero;fill:rgb(94.117647%,89.019608%,92.54902%);fill-opacity:1;stroke-width:0.352439;stroke-linecap:round;stroke-linejoin:round;stroke:rgb(94.117647%,89.019608%,92.54902%);stroke-opacity:1;stroke-miterlimit:4;" d="M 3.307464 1.587273 L 3.836322 2.116417 L 3.307464 2.645561 " transform="matrix(5.687367,0,0,5.662148,-0.342011,8.840752)"/>
<path style=" stroke:none;fill-rule:evenodd;fill:rgb(94.117647%,89.019608%,92.54902%);fill-opacity:1;" d="M 14.730469 20.800781 C 14.730469 22.457031 13.382812 23.796875 11.71875 23.796875 C 10.058594 23.796875 8.710938 22.457031 8.710938 20.800781 C 8.710938 19.148438 10.058594 17.804688 11.71875 17.804688 C 13.382812 17.804688 14.730469 19.148438 14.730469 20.800781 Z M 14.730469 20.800781 "/>
<path style="fill-rule:nonzero;fill:rgb(95.294118%,71.764708%,85.09804%);fill-opacity:1;stroke-width:1.340744;stroke-linecap:round;stroke-linejoin:round;stroke:rgb(90.196079%,0.784314%,70.588237%);stroke-opacity:1;stroke-miterlimit:4;" d="M 5.264464 8.51051 C 4.963683 8.51051 4.772752 8.526241 4.474586 8.565568 C 4.385659 8.581299 4.312425 8.638978 4.312425 8.728119 L 4.260116 9.593311 C 4.249654 9.67983 4.189497 9.737509 4.12411 9.758483 C 4.121495 9.758483 4.121495 9.761105 4.118879 9.761105 C 3.742248 9.863355 3.383926 10.010175 3.051759 10.201566 C 2.994218 10.227784 2.915753 10.227784 2.852981 10.172727 L 2.201724 9.601176 C 2.138952 9.538253 2.04741 9.54874 1.976792 9.601176 C 1.736166 9.78208 1.587083 9.907926 1.375228 10.120291 C 1.163374 10.332656 1.03783 10.482098 0.854746 10.720681 C 0.802436 10.794091 0.791974 10.883232 0.854746 10.946155 L 1.430154 11.59636 C 1.472002 11.648795 1.495541 11.716962 1.472002 11.766776 L 1.466771 11.777263 C 1.260147 12.125962 1.100602 12.506121 0.995982 12.907256 C 0.995982 12.907256 0.993367 12.909877 0.993367 12.912499 C 0.964596 12.959691 0.914902 12.996397 0.846899 13.004262 L -0.0188285 13.05932 C -0.107755 13.05932 -0.165296 13.130108 -0.178374 13.219249 C -0.220221 13.515511 -0.233299 13.709524 -0.235914 14.008408 C -0.233299 14.309914 -0.220221 14.501305 -0.178374 14.800189 C -0.165296 14.88933 -0.107755 14.960119 -0.0188285 14.960119 L 0.846899 15.015176 C 0.927979 15.023042 0.980289 15.072856 1.003829 15.133157 C 1.105833 15.513317 1.257531 15.872502 1.451078 16.202848 C 1.485079 16.265771 1.487695 16.35229 1.427538 16.420457 L 0.854746 17.070661 C 0.791974 17.133584 0.802436 17.225347 0.854746 17.298757 C 1.03783 17.53734 1.163374 17.686782 1.375228 17.899147 C 1.587083 18.111513 1.736166 18.237359 1.976792 18.418262 C 2.04741 18.470698 2.138952 18.481185 2.201724 18.418262 L 2.852981 17.84409 C 2.920984 17.78641 3.009911 17.789032 3.070067 17.823115 L 3.077913 17.812628 C 3.402234 17.998776 3.750095 18.145596 4.118879 18.242602 L 4.118879 18.258333 C 4.186882 18.276685 4.249654 18.336987 4.260116 18.426128 L 4.312425 19.291319 C 4.312425 19.38046 4.385659 19.438139 4.474586 19.451248 C 4.772752 19.493197 4.963683 19.508928 5.264464 19.508928 C 5.565246 19.508928 5.756177 19.493197 6.054343 19.451248 C 6.14327 19.438139 6.216503 19.38046 6.216503 19.291319 L 6.268813 18.426128 C 6.279275 18.336987 6.342047 18.276685 6.41005 18.258333 L 6.41005 18.242602 C 6.778834 18.145596 7.126694 17.998776 7.451015 17.812628 L 7.458862 17.823115 C 7.519018 17.789032 7.607945 17.78641 7.675948 17.84409 L 8.327205 18.418262 C 8.389977 18.481185 8.481519 18.470698 8.552137 18.418262 C 8.792762 18.237359 8.941845 18.111513 9.1537 17.899147 C 9.365555 17.686782 9.491099 17.53734 9.674183 17.298757 C 9.726493 17.225347 9.736955 17.133584 9.674183 17.070661 L 9.10139 16.420457 C 9.041234 16.35229 9.04385 16.265771 9.077851 16.202848 C 9.271397 15.872502 9.423096 15.513317 9.5251 15.133157 C 9.548639 15.072856 9.600949 15.023042 9.68203 15.015176 L 10.547757 14.960119 C 10.636684 14.960119 10.694225 14.88933 10.707302 14.800189 C 10.74915 14.501305 10.762228 14.309914 10.764843 14.008408 C 10.762228 13.709524 10.74915 13.515511 10.707302 13.219249 C 10.694225 13.130108 10.636684 13.05932 10.547757 13.05932 L 9.68203 13.004262 C 9.614027 12.996397 9.564332 12.959691 9.535562 12.912499 C 9.535562 12.909877 9.532947 12.907256 9.532947 12.907256 C 9.428327 12.506121 9.242627 12.139071 9.062158 11.777263 L 9.056927 11.766776 C 9.033388 11.716962 9.056927 11.648795 9.098775 11.59636 L 9.674183 10.946155 C 9.736955 10.883232 9.726493 10.794091 9.674183 10.720681 C 9.491099 10.482098 9.365555 10.332656 9.1537 10.120291 C 8.941845 9.907926 8.792762 9.78208 8.552137 9.601176 C 8.481519 9.54874 8.389977 9.538253 8.327205 9.601176 L 7.675948 10.172727 C 7.613176 10.227784 7.534711 10.227784 7.47717 10.201566 C 7.145003 10.010175 6.78668 9.863355 6.41005 9.761105 C 6.407434 9.761105 6.407434 9.758483 6.404819 9.758483 C 6.339431 9.737509 6.279275 9.67983 6.268813 9.593311 L 6.216503 8.728119 C 6.216503 8.638978 6.14327 8.581299 6.054343 8.565568 C 5.756177 8.526241 5.565246 8.51051 5.264464 8.51051 Z M 5.264464 12.542826 C 6.075267 12.542826 6.731755 13.200896 6.731755 14.008408 C 6.731755 14.818542 6.075267 15.476612 5.264464 15.476612 C 4.453662 15.476612 3.797174 14.818542 3.797174 14.008408 C 3.797174 13.200896 4.453662 12.542826 5.264464 12.542826 Z M 5.264464 12.542826 " transform="matrix(1.493505,0,0,1.489916,3.285933,-0.047134)"/>
<path style="fill:none;stroke-width:0.830074;stroke-linecap:round;stroke-linejoin:miter;stroke:rgb(94.117647%,89.019608%,92.54902%);stroke-opacity:1;stroke-miterlimit:4;" d="M 2.381273 2.116373 L 3.83651 2.116373 " transform="matrix(4.834373,0,0,4.803379,1.507569,10.658479)"/>
<path style="fill-rule:nonzero;fill:rgb(94.117647%,89.019608%,92.54902%);fill-opacity:1;stroke-width:0.830074;stroke-linecap:round;stroke-linejoin:round;stroke:rgb(94.117647%,89.019608%,92.54902%);stroke-opacity:1;stroke-miterlimit:4;" d="M 3.307259 1.587774 L 3.83651 2.116373 L 3.307259 2.645785 " transform="matrix(4.834373,0,0,4.803379,1.507569,10.658479)"/>
<path style="fill-rule:evenodd;fill:rgb(94.117647%,89.019608%,92.54902%);fill-opacity:1;stroke-width:0.622555;stroke-linecap:round;stroke-linejoin:round;stroke:rgb(94.117647%,89.019608%,92.54902%);stroke-opacity:1;stroke-miterlimit:4;" d="M 2.650342 2.112307 C 2.650342 2.404256 2.412786 2.641719 2.121092 2.641719 C 1.82859 2.641719 1.591842 2.404256 1.591842 2.112307 C 1.591842 1.820357 1.82859 1.582894 2.121092 1.582894 C 2.412786 1.582894 2.650342 1.820357 2.650342 2.112307 Z M 2.650342 2.112307 " transform="matrix(4.834373,0,0,4.803379,1.507569,10.658479)"/>
<path style="fill:none;stroke-width:0.415037;stroke-linecap:round;stroke-linejoin:miter;stroke:rgb(61.56863%,22.745098%,60.784316%);stroke-opacity:1;stroke-miterlimit:4;" d="M 2.381273 2.116373 L 3.83651 2.116373 " transform="matrix(4.834373,0,0,4.803379,1.507569,10.658479)"/>
<path style="fill:none;stroke-width:0.415037;stroke-linecap:round;stroke-linejoin:round;stroke:rgb(61.56863%,22.745098%,60.784316%);stroke-opacity:1;stroke-miterlimit:4;" d="M 3.307259 1.587774 L 3.83651 2.116373 L 3.307259 2.645785 " transform="matrix(4.834373,0,0,4.803379,1.507569,10.658479)"/>
<path style=" stroke:none;fill-rule:evenodd;fill:rgb(61.56863%,22.745098%,60.784316%);fill-opacity:1;" d="M 14.320312 20.804688 C 14.320312 22.207031 13.171875 23.347656 11.761719 23.347656 C 10.347656 23.347656 9.203125 22.207031 9.203125 20.804688 C 9.203125 19.402344 10.347656 18.261719 11.761719 18.261719 C 13.171875 18.261719 14.320312 19.402344 14.320312 20.804688 Z M 14.320312 20.804688 "/>
</g>
</svg>
