<?xml version="1.0" encoding="UTF-8" standalone="no"?>
<svg
   xmlns:dc="http://purl.org/dc/elements/1.1/"
   xmlns:cc="http://creativecommons.org/ns#"
   xmlns:rdf="http://www.w3.org/1999/02/22-rdf-syntax-ns#"
   xmlns:svg="http://www.w3.org/2000/svg"
   xmlns="http://www.w3.org/2000/svg"
   xmlns:sodipodi="http://sodipodi.sourceforge.net/DTD/sodipodi-0.dtd"
   xmlns:inkscape="http://www.inkscape.org/namespaces/inkscape"
   height="16"
   viewBox="0 0 4.2333333 4.2333335"
   width="16"
   version="1.1"
   id="svg11"
   sodipodi:docname="sc_arc.svg"
   inkscape:version="0.92.4 (unknown)">
  <metadata
     id="metadata17">
    <rdf:RDF>
      <cc:Work
         rdf:about="">
        <dc:format>image/svg+xml</dc:format>
        <dc:type
           rdf:resource="http://purl.org/dc/dcmitype/StillImage" />
      </cc:Work>
    </rdf:RDF>
  </metadata>
  <defs
     id="defs15" />
  <sodipodi:namedview
     pagecolor="#ffffff"
     bordercolor="#666666"
     borderopacity="1"
     objecttolerance="10"
     gridtolerance="10"
     guidetolerance="10"
     inkscape:pageopacity="0"
     inkscape:pageshadow="2"
     inkscape:window-width="1366"
     inkscape:window-height="707"
     id="namedview13"
     showgrid="true"
     showguides="false"
     inkscape:zoom="48.909089"
     inkscape:cx="8.0000002"
     inkscape:cy="7.9999997"
     inkscape:window-x="0"
     inkscape:window-y="0"
     inkscape:window-maximized="1"
     inkscape:current-layer="svg11">
    <inkscape:grid
       type="xygrid"
       id="grid824" />
  </sodipodi:namedview>
  <linearGradient
     id="a"
     gradientUnits="userSpaceOnUse"
     x1="7.999999"
     x2="7.999999"
     y1="15.237093"
     y2=".76291">
    <stop
       offset="0"
       stop-color="#7c9fcf"
       id="stop2" />
    <stop
       offset=".5"
       stop-color="#7c9ece"
       id="stop4" />
    <stop
       offset="1"
       stop-color="#7b9dcf"
       id="stop6" />
  </linearGradient>
  <path
     d="M 2.1166667,0.52916671 C 1.6491143,0.52917296 1.1827573,0.68284383 0.83612466,0.96583255 0.48949207,1.24882 0.26454949,1.6733818 0.2645833,2.1166666 0.26454999,2.5599504 0.48949215,2.9845132 0.83612466,3.2675007 1.1827571,3.5504881 1.6491147,3.7041603 2.1166667,3.7041667 2.5842187,3.7041603 3.0505763,3.5504881 3.3972088,3.2675007 3.7438412,2.9845132 3.9687835,2.5599504 3.9687501,2.1166666 H 3.7372397 A 1.6205731,1.3229163 0 0 1 2.1166667,3.4395833 1.6205731,1.3229163 0 0 1 0.49609372,2.1166666 1.6205731,1.3229163 0 0 1 2.1166667,0.79375004 Z"
     id="path9"
     style="fill:#e602b4;stroke-width:0.12500003"
     inkscape:connector-curvature="0" />
</svg>
