<?xml version="1.0" encoding="UTF-8" standalone="no"?>
<svg
   xmlns:dc="http://purl.org/dc/elements/1.1/"
   xmlns:cc="http://creativecommons.org/ns#"
   xmlns:rdf="http://www.w3.org/1999/02/22-rdf-syntax-ns#"
   xmlns:svg="http://www.w3.org/2000/svg"
   xmlns="http://www.w3.org/2000/svg"
   xmlns:sodipodi="http://sodipodi.sourceforge.net/DTD/sodipodi-0.dtd"
   xmlns:inkscape="http://www.inkscape.org/namespaces/inkscape"
   height="16"
   viewBox="0 0 4.2333333 4.2333335"
   width="16"
   version="1.1"
   id="svg18"
   sodipodi:docname="sc_autosum.svg"
   inkscape:version="0.92.4 (unknown)">
  <metadata
     id="metadata24">
    <rdf:RDF>
      <cc:Work
         rdf:about="">
        <dc:format>image/svg+xml</dc:format>
        <dc:type
           rdf:resource="http://purl.org/dc/dcmitype/StillImage" />
      </cc:Work>
    </rdf:RDF>
  </metadata>
  <defs
     id="defs22" />
  <sodipodi:namedview
     pagecolor="#ffffff"
     bordercolor="#666666"
     borderopacity="1"
     objecttolerance="10"
     gridtolerance="10"
     guidetolerance="10"
     inkscape:pageopacity="0"
     inkscape:pageshadow="2"
     inkscape:window-width="1366"
     inkscape:window-height="707"
     id="namedview20"
     showgrid="true"
     inkscape:zoom="33.625"
     inkscape:cx="8"
     inkscape:cy="8"
     inkscape:window-x="0"
     inkscape:window-y="0"
     inkscape:window-maximized="1"
     inkscape:current-layer="svg18">
    <inkscape:grid
       type="xygrid"
       id="grid834" />
  </sodipodi:namedview>
  <linearGradient
     id="a"
     gradientUnits="userSpaceOnUse"
     x1="11.773879"
     x2="23.672378"
     y1="-5.474802"
     y2="19.351187">
    <stop
       offset="0"
       stop-color="#3b3e22"
       id="stop2" />
    <stop
       offset="1"
       stop-color="#454545"
       stop-opacity="0"
       id="stop4" />
  </linearGradient>
  <linearGradient
     id="b"
     gradientUnits="userSpaceOnUse"
     x1="18.981823"
     x2="20.202982"
     y1="31.58723"
     y2="3.50059">
    <stop
       offset="0"
       stop-color="#555"
       id="stop7" />
    <stop
       offset="1"
       id="stop9" />
  </linearGradient>
  <g
     transform="matrix(0.125,0,0,0.11685861,-0.026713,0.10539565)"
     id="g16"
     style="fill:#e602b4;stroke:#e602b4;stroke-width:2.18915796;stroke-linejoin:round;stroke-miterlimit:4;stroke-dasharray:none">
    <path
       d="M 28.788702,32.027816 H 5.3668912 L 19.625988,17.147038 5.5053697,2.3944837 H 28.328814 L 28.8417,10.712948 H 28.157852 C 27.958396,8.8893518 27.146326,7.393433 25.721642,6.2251918 24.296957,5.0569506 22.644323,4.47283 20.76374,4.47283 h -7.009447 c -0.911798,0 -1.127573,-0.04514 -1.127573,0.4677462 0,0.1139747 0.327677,0.5271332 0.983032,1.2394754 0.655354,0.6838485 1.481671,1.5386591 2.478951,2.5644319 1.025772,0.9972788 1.782927,1.5285045 2.751713,2.4972895 0.968785,0.940292 1.89483,1.852091 2.778135,2.735395 0.911798,0.85481 1.46942,2.058616 1.640382,2.229579 L 11.73523,27.802031 h 13.035862 c 0.99728,0 1.780856,-0.356171 2.35073,-1.068514 0.598368,-0.712342 0.897551,-1.059794 0.897551,-2.057073 v -0.299183 h 0.769329 z"
       id="path12"
       inkscape:connector-curvature="0"
       style="fill:#e602b4;stroke:#e602b4;stroke-width:2.18915796;stroke-linejoin:round;stroke-miterlimit:4;stroke-dasharray:none" />
    <path
       d="m 28.167128,12.093728 48.160997,50.556663 c 1.188033,1.188223 1.188033,3.114511 0,4.302734 l -7.126953,7.126953 c 0.578087,-0.0654 1.154938,-0.13376 1.730469,-0.205078 L 83.548828,61.306641 c -1.044983,-0.995169 -1.736301,-4.208072 -3.922716,-6.257835 -0.02254,-0.02438 -0.04468,-0.04912 -0.06641,-0.07422 -3.326721,-3.326724 -6.815097,-6.752584 -10.466793,-10.296874 -0.01052,-0.01229 -0.02093,-0.02466 -0.03125,-0.03711 -3.650839,-3.650837 -6.504455,-5.641896 -10.371743,-9.401759 -0.02248,-0.02179 -0.04462,-0.04393 -0.06641,-0.06641 -3.772932,-3.880731 -6.896799,-7.116918 -9.38086,-9.708984 -0.0125,-0.01421 -0.02487,-0.02853 -0.03711,-0.04297 -1.265499,-1.375543 -2.234658,-2.471722 -2.939453,-3.359375 -0.352399,-0.443827 -0.633518,-0.832125 -0.892578,-1.248047 -0.25906,-0.415922 -0.69336,-0.569129 -0.69336,-2.140625 0,-1.873548 0.324766,-2.785495 1.942056,-3.694141 0.0534,-0.03 0.1221,-0.0086 0.175781,-0.03711 z m 56.74414,2.847458 c 5.164332,1.017107 10.0592,2.808428 14.232422,6.230469 2.51616,2.063252 4.3634,4.566122 5.99414,7.181641 l -0.9082,-13.41211 z"
       transform="scale(0.26458334)"
       id="path14"
       inkscape:connector-curvature="0"
       style="fill:#e602b4;stroke:#e602b4;stroke-width:8.273983;stroke-linejoin:round;stroke-miterlimit:4;stroke-dasharray:none" />
  </g>
</svg>
