<?xml version="1.0" encoding="UTF-8" standalone="no"?>
<svg
   xmlns:dc="http://purl.org/dc/elements/1.1/"
   xmlns:cc="http://creativecommons.org/ns#"
   xmlns:rdf="http://www.w3.org/1999/02/22-rdf-syntax-ns#"
   xmlns:svg="http://www.w3.org/2000/svg"
   xmlns="http://www.w3.org/2000/svg"
   xmlns:sodipodi="http://sodipodi.sourceforge.net/DTD/sodipodi-0.dtd"
   xmlns:inkscape="http://www.inkscape.org/namespaces/inkscape"
   height="16"
   viewBox="0 0 16 16"
   width="16"
   version="1.1"
   id="svg24"
   sodipodi:docname="sc_arrowshapes.down-arrow-callout.svg"
   inkscape:version="0.92.4 (unknown)">
  <metadata
     id="metadata30">
    <rdf:RDF>
      <cc:Work
         rdf:about="">
        <dc:format>image/svg+xml</dc:format>
        <dc:type
           rdf:resource="http://purl.org/dc/dcmitype/StillImage" />
      </cc:Work>
    </rdf:RDF>
  </metadata>
  <defs
     id="defs28" />
  <sodipodi:namedview
     pagecolor="#ffffff"
     bordercolor="#666666"
     borderopacity="1"
     objecttolerance="10"
     gridtolerance="10"
     guidetolerance="10"
     inkscape:pageopacity="0"
     inkscape:pageshadow="2"
     inkscape:window-width="1366"
     inkscape:window-height="707"
     id="namedview26"
     showgrid="true"
     inkscape:zoom="29.5"
     inkscape:cx="6.1627291"
     inkscape:cy="-0.77688216"
     inkscape:window-x="0"
     inkscape:window-y="0"
     inkscape:window-maximized="1"
     inkscape:current-layer="g848">
    <inkscape:grid
       type="xygrid"
       id="grid840" />
  </sodipodi:namedview>
  <linearGradient
     id="a"
     gradientTransform="matrix(0.125,0,0,-0.125,-2.9999999e-8,15.999662)"
     gradientUnits="userSpaceOnUse"
     x1="32.002338"
     x2="95.997658"
     y1="63.999783"
     y2="63.999783">
    <stop
       offset="0"
       stop-color="#7c9fcf"
       id="stop2" />
    <stop
       offset=".5"
       stop-color="#7c9ece"
       id="stop4" />
    <stop
       offset="1"
       stop-color="#7b9dcf"
       id="stop6" />
  </linearGradient>
  <linearGradient
     id="b"
     gradientTransform="matrix(0.125,0,0,-0.125,0,15.999662)"
     gradientUnits="userSpaceOnUse"
     x1="64"
     x2="64"
     y1="7.9973"
     y2="127.9973">
    <stop
       offset="0"
       stop-color="#fff"
       id="stop9" />
    <stop
       offset=".397158"
       stop-color="#fff"
       id="stop11" />
    <stop
       offset=".799705"
       stop-color="#f1f1f1"
       id="stop13" />
    <stop
       offset=".902344"
       stop-color="#eaeaea"
       id="stop15" />
    <stop
       offset="1"
       stop-color="#dfdfdf"
       id="stop17" />
  </linearGradient>
  <g
     id="g848">
    <g
       id="g852">
      <path
         d="m 7.9863279,14.999908 c -0.2255848,-0.0034 -0.4443333,-0.0957 -0.6049761,-0.256347 L 4.7563691,12.118578 C 4.5068582,11.869068 4.4316638,11.493096 4.5683816,11.164973 4.7016819,10.83685 5.0195506,10.624937 5.3750171,10.624937 H 6.2500113 V 8.8749483 H 4.5000228 c -0.4819303,0 -0.8749943,-0.3930639 -0.8749943,-0.8749942 V 1.8749943 C 3.6250285,1.393064 4.0180925,1 4.5000228,1 h 3.5068125 0.010254 3.4828887 c 0.48193,0 0.874993,0.393064 0.874993,0.8749943 v 6.1249598 c 0,0.4819303 -0.393064,0.8749942 -0.874994,0.8749942 H 9.7499884 v 1.7499887 h 0.8749946 c 0.355467,0 0.673335,0.211913 0.806635,0.540036 0.136718,0.328123 0.06152,0.704095 -0.187988,0.953605 l -2.6249821,2.624983 c -0.1674791,0.167481 -0.3964818,0.259765 -0.63232,0.256347 z m 0,0"
         id="path20"
         inkscape:connector-curvature="0"
         style="fill:#e602b4;stroke-width:1" />
      <path
         sodipodi:type="inkscape:offset"
         inkscape:radius="-1"
         inkscape:original="M 4.5 1 C 4.0180697 1 3.625 1.3930697 3.625 1.875 L 3.625 8 C 3.625 8.4819303 4.0180697 8.875 4.5 8.875 L 6.25 8.875 L 6.25 10.625 L 5.375 10.625 C 5.0195335 10.625 4.7016597 10.83594 4.5683594 11.164062 C 4.4316416 11.492186 4.5063485 11.869631 4.7558594 12.119141 L 7.3808594 14.744141 C 7.5415022 14.904788 7.7607433 14.9966 7.9863281 15 C 8.2221663 15.003418 8.4516615 14.911622 8.6191406 14.744141 L 11.244141 12.119141 C 11.493649 11.869631 11.568359 11.492185 11.431641 11.164062 C 11.298341 10.835939 10.980467 10.625 10.625 10.625 L 9.75 10.625 L 9.75 8.875 L 11.5 8.875 C 11.98193 8.875 12.375 8.4819303 12.375 8 L 12.375 1.875 C 12.375 1.3930697 11.98193 1 11.5 1 L 8.0175781 1 L 8.0058594 1 L 4.5 1 z "
         style="fill:#f0e3ec;stroke-width:1"
         id="path842"
         d="M 4.625,2 V 7.875 H 6.25 a 1.0001,1.0001 0 0 1 1,1 v 1.75 a 1.0001,1.0001 0 0 1 -1,1 H 5.6757812 L 8,13.949219 10.324219,11.625 H 9.75 a 1.0001,1.0001 0 0 1 -1,-1 v -1.75 a 1.0001,1.0001 0 0 1 1,-1 h 1.625 V 2 H 8.0175781 8.0058594 Z" />
    </g>
  </g>
</svg>
