<?xml version="1.0" encoding="UTF-8" standalone="no"?>
<svg
   xmlns:dc="http://purl.org/dc/elements/1.1/"
   xmlns:cc="http://creativecommons.org/ns#"
   xmlns:rdf="http://www.w3.org/1999/02/22-rdf-syntax-ns#"
   xmlns:svg="http://www.w3.org/2000/svg"
   xmlns="http://www.w3.org/2000/svg"
   xmlns:xlink="http://www.w3.org/1999/xlink"
   xmlns:sodipodi="http://sodipodi.sourceforge.net/DTD/sodipodi-0.dtd"
   xmlns:inkscape="http://www.inkscape.org/namespaces/inkscape"
   height="16"
   viewBox="0 0 16 16"
   width="16"
   version="1.1"
   id="svg114"
   sodipodi:docname="sc_bezieredge.svg"
   inkscape:version="0.92.4 (unknown)">
  <metadata
     id="metadata120">
    <rdf:RDF>
      <cc:Work
         rdf:about="">
        <dc:format>image/svg+xml</dc:format>
        <dc:type
           rdf:resource="http://purl.org/dc/dcmitype/StillImage" />
      </cc:Work>
    </rdf:RDF>
  </metadata>
  <defs
     id="defs118" />
  <sodipodi:namedview
     pagecolor="#ffffff"
     bordercolor="#666666"
     borderopacity="1"
     objecttolerance="10"
     gridtolerance="10"
     guidetolerance="10"
     inkscape:pageopacity="0"
     inkscape:pageshadow="2"
     inkscape:window-width="1366"
     inkscape:window-height="707"
     id="namedview116"
     showgrid="true"
     inkscape:zoom="14.75"
     inkscape:cx="0.13559322"
     inkscape:cy="8"
     inkscape:window-x="0"
     inkscape:window-y="0"
     inkscape:window-maximized="1"
     inkscape:current-layer="svg114">
    <inkscape:grid
       type="xygrid"
       id="grid927" />
  </sodipodi:namedview>
  <filter
     id="a"
     height="100%"
     width="100%"
     x="0%"
     y="0%">
    <feColorMatrix
       in="SourceGraphic"
       type="matrix"
       values="0 0 0 0 1 0 0 0 0 1 0 0 0 0 1 0 0 0 1 0"
       id="feColorMatrix2" />
  </filter>
  <mask
     id="b">
    <g
       filter="url(#a)"
       id="g7">
      <path
         d="m0 0h16v16h-16z"
         fill-opacity=".988235"
         id="path5" />
    </g>
  </mask>
  <clipPath
     id="c">
    <path
       d="m0 0h16v16h-16z"
       id="path10" />
  </clipPath>
  <mask
     id="d">
    <g
       filter="url(#a)"
       id="g15">
      <path
         d="m0 0h16v16h-16z"
         fill-opacity=".988235"
         id="path13" />
    </g>
  </mask>
  <clipPath
     id="e">
    <path
       d="m0 0h16v16h-16z"
       id="path18" />
  </clipPath>
  <mask
     id="f">
    <g
       filter="url(#a)"
       id="g23">
      <path
         d="m0 0h16v16h-16z"
         fill-opacity=".988235"
         id="path21" />
    </g>
  </mask>
  <clipPath
     id="g">
    <path
       d="m0 0h16v16h-16z"
       id="path26" />
  </clipPath>
  <mask
     id="h">
    <g
       filter="url(#a)"
       id="g31">
      <path
         d="m0 0h16v16h-16z"
         fill-opacity=".988235"
         id="path29" />
    </g>
  </mask>
  <clipPath
     id="i">
    <path
       d="m0 0h16v16h-16z"
       id="path34" />
  </clipPath>
  <mask
     id="j">
    <g
       filter="url(#a)"
       id="g39">
      <path
         d="m0 0h16v16h-16z"
         fill-opacity=".988235"
         id="path37" />
    </g>
  </mask>
  <clipPath
     id="k">
    <path
       d="m0 0h16v16h-16z"
       id="path42" />
  </clipPath>
  <mask
     id="l">
    <g
       filter="url(#a)"
       id="g47">
      <path
         d="m0 0h16v16h-16z"
         fill-opacity=".988235"
         id="path45" />
    </g>
  </mask>
  <clipPath
     id="m">
    <path
       d="m0 0h16v16h-16z"
       id="path50" />
  </clipPath>
  <linearGradient
     id="n">
    <stop
       offset="0"
       stop-color="#fd0000"
       id="stop53" />
    <stop
       offset="1"
       stop-color="#8f0000"
       id="stop55" />
  </linearGradient>
  <linearGradient
     id="o"
     gradientUnits="userSpaceOnUse"
     x1="3.500003"
     x2="4"
     xlink:href="#n"
     y1="-.500001"
     y2="4" />
  <radialGradient
     id="p"
     cx="72.631729"
     cy="22.787588"
     gradientTransform="matrix(1.185546 0 0 1.185549 -82.608261 -24.015791)"
     gradientUnits="userSpaceOnUse"
     r="1.265237"
     xlink:href="#n" />
  <linearGradient
     id="q">
    <stop
       offset="0"
       stop-color="#fff"
       id="stop60" />
    <stop
       offset="1"
       stop-color="#fff"
       stop-opacity="0"
       id="stop62" />
  </linearGradient>
  <linearGradient
     id="r"
     gradientUnits="userSpaceOnUse"
     x1="2.951386"
     x2="3.645003"
     xlink:href="#q"
     y1=".523261"
     y2="3.111875" />
  <linearGradient
     id="s"
     gradientUnits="userSpaceOnUse"
     x1="6.999998"
     x2="7.499995"
     xlink:href="#n"
     y1="9.499999"
     y2="14" />
  <radialGradient
     id="t"
     cx="72.631729"
     cy="22.787588"
     gradientTransform="matrix(1.185546 0 0 1.185549 -79.108265 -14.015791)"
     gradientUnits="userSpaceOnUse"
     r="1.265237"
     xlink:href="#n" />
  <linearGradient
     id="u"
     gradientUnits="userSpaceOnUse"
     x1="6.451381"
     x2="7.144998"
     xlink:href="#q"
     y1="10.523261"
     y2="13.111875" />
  <linearGradient
     id="v"
     gradientUnits="userSpaceOnUse"
     x1="13.493753"
     x2="13.99375"
     xlink:href="#n"
     y1="2.867187"
     y2="7.367188" />
  <radialGradient
     id="w"
     cx="72.631729"
     cy="22.787588"
     gradientTransform="matrix(1.185546 0 0 1.185549 -72.61451 -20.648604)"
     gradientUnits="userSpaceOnUse"
     r="1.265237"
     xlink:href="#n" />
  <linearGradient
     id="x"
     gradientUnits="userSpaceOnUse"
     x1="12.945136"
     x2="13.638753"
     xlink:href="#q"
     y1="3.890449"
     y2="6.479063" />
  <g
     clip-path="url(#c)"
     mask="url(#b)"
     id="g74"
     style="fill:#e602b4">
    <path
       d="M 3,2.5 V 10 H 3.5 V 2.5 Z m 0,0"
       id="path72"
       inkscape:connector-curvature="0"
       style="fill:#e602b4" />
  </g>
  <g
     clip-path="url(#e)"
     mask="url(#d)"
     id="g78"
     style="fill:#9d3a9b">
    <path
       d="m 2,10 h 2.5 v 2.5 H 2 Z m 0.5,0.5 V 12 H 4 v -1.5 z m 0,0"
       id="path76"
       inkscape:connector-curvature="0"
       style="fill:#9d3a9b" />
  </g>
  <g
     clip-path="url(#g)"
     mask="url(#f)"
     id="g82"
     style="fill:#e602b4">
    <path
       d="M 3.5,2 H 11 V 2.5 H 3.5 Z m 0,0"
       id="path80"
       inkscape:connector-curvature="0"
       style="fill:#e602b4" />
  </g>
  <g
     clip-path="url(#i)"
     mask="url(#h)"
     id="g86">
    <path
       d="m 11,1 v 2.5 h 2.5 V 1 Z m 0.5,0.5 H 13 V 3 h -1.5 z m 0,0"
       id="path84"
       inkscape:connector-curvature="0"
       style="fill:#9d3a9b" />
  </g>
  <g
     clip-path="url(#k)"
     mask="url(#j)"
     id="g90"
     style="fill:#e602b4">
    <path
       d="M 13.191406,6.585938 2.855469,2.824219 3.199219,1.882812 13.535156,5.644531 Z m 0,0"
       id="path88"
       inkscape:connector-curvature="0"
       style="fill:#e602b4;fill-opacity:0.99215698" />
  </g>
  <g
     clip-path="url(#m)"
     mask="url(#l)"
     id="g94"
     style="fill:#e602b4">
    <path
       d="m 6.445312,12.070312 -3.589843,-9.867187 0.941406,-0.34375 3.59375,9.867187 z m 0,0"
       id="path92"
       inkscape:connector-curvature="0"
       style="fill:#e602b4;fill-opacity:0.99215698" />
  </g>
  <path
     d="m2.28125 1h2.4375c.15625 0 .28125.125.28125.28125v2.4375c0 .15625-.125.28125-.28125.28125h-2.4375c-.15625 0-.28125-.125-.28125-.28125v-2.4375c0-.15625.125-.28125.28125-.28125zm0 0"
     fill="url(#o)"
     id="path96"
     style="fill:#9d3a9b" />
  <path
     d="m5.78125 11h2.4375c.15625 0 .28125.125.28125.28125v2.4375c0 .15625-.125.28125-.28125.28125h-2.4375c-.15625 0-.28125-.125-.28125-.28125v-2.4375c0-.15625.125-.28125.28125-.28125zm0 0"
     fill="url(#s)"
     id="path102"
     style="fill:#9d3a9b" />
  <path
     d="m12.273438 4.367188h2.4375c.15625 0 .28125.125.28125.28125v2.4375c0 .15625-.125.28125-.28125.28125h-2.4375c-.152344 0-.28125-.125-.28125-.28125v-2.4375c0-.15625.128906-.28125.28125-.28125zm0 0"
     fill="url(#v)"
     id="path108"
     style="fill:#9d3a9b" />
</svg>
