<?xml version="1.0" encoding="UTF-8" standalone="no"?>
<svg
   xmlns:dc="http://purl.org/dc/elements/1.1/"
   xmlns:cc="http://creativecommons.org/ns#"
   xmlns:rdf="http://www.w3.org/1999/02/22-rdf-syntax-ns#"
   xmlns:svg="http://www.w3.org/2000/svg"
   xmlns="http://www.w3.org/2000/svg"
   xmlns:xlink="http://www.w3.org/1999/xlink"
   xmlns:sodipodi="http://sodipodi.sourceforge.net/DTD/sodipodi-0.dtd"
   xmlns:inkscape="http://www.inkscape.org/namespaces/inkscape"
   height="16"
   viewBox="0 0 16 16"
   width="16"
   version="1.1"
   id="svg79"
   sodipodi:docname="sc_beziermove.svg"
   inkscape:version="0.92.4 (unknown)">
  <metadata
     id="metadata85">
    <rdf:RDF>
      <cc:Work
         rdf:about="">
        <dc:format>image/svg+xml</dc:format>
        <dc:type
           rdf:resource="http://purl.org/dc/dcmitype/StillImage" />
      </cc:Work>
    </rdf:RDF>
  </metadata>
  <defs
     id="defs83" />
  <sodipodi:namedview
     pagecolor="#ffffff"
     bordercolor="#666666"
     borderopacity="1"
     objecttolerance="10"
     gridtolerance="10"
     guidetolerance="10"
     inkscape:pageopacity="0"
     inkscape:pageshadow="2"
     inkscape:window-width="1366"
     inkscape:window-height="707"
     id="namedview81"
     showgrid="true"
     inkscape:zoom="29.5"
     inkscape:cx="0.13559322"
     inkscape:cy="8"
     inkscape:window-x="0"
     inkscape:window-y="0"
     inkscape:window-maximized="1"
     inkscape:current-layer="svg79">
    <inkscape:grid
       type="xygrid"
       id="grid895" />
  </sodipodi:namedview>
  <filter
     id="a"
     height="100%"
     width="100%"
     x="0%"
     y="0%">
    <feColorMatrix
       in="SourceGraphic"
       type="matrix"
       values="0 0 0 0 1 0 0 0 0 1 0 0 0 0 1 0 0 0 1 0"
       id="feColorMatrix2" />
  </filter>
  <mask
     id="b">
    <g
       filter="url(#a)"
       id="g7">
      <path
         d="m0 0h16v16h-16z"
         fill-opacity=".501961"
         id="path5" />
    </g>
  </mask>
  <clipPath
     id="c">
    <path
       d="m0 0h16v16h-16z"
       id="path10" />
  </clipPath>
  <linearGradient
     id="d">
    <stop
       offset="0"
       stop-color="#fd0000"
       id="stop13" />
    <stop
       offset="1"
       stop-color="#8f0000"
       id="stop15" />
  </linearGradient>
  <linearGradient
     id="e"
     gradientUnits="userSpaceOnUse"
     x1="3.500003"
     x2="4"
     xlink:href="#d"
     y1="-.500001"
     y2="4" />
  <radialGradient
     id="f"
     cx="72.631729"
     cy="22.787588"
     gradientTransform="matrix(1.185546 0 0 1.185549 -82.608261 -24.015791)"
     gradientUnits="userSpaceOnUse"
     r="1.265237"
     xlink:href="#d" />
  <linearGradient
     id="g">
    <stop
       offset="0"
       stop-color="#fff"
       id="stop20" />
    <stop
       offset="1"
       stop-color="#fff"
       stop-opacity="0"
       id="stop22" />
  </linearGradient>
  <linearGradient
     id="h"
     gradientUnits="userSpaceOnUse"
     x1="2.951386"
     x2="3.645003"
     xlink:href="#g"
     y1=".523261"
     y2="3.111875" />
  <linearGradient
     id="i"
     gradientUnits="userSpaceOnUse"
     x1="13.499998"
     x2="13.999995"
     xlink:href="#d"
     y1="4.499999"
     y2="9" />
  <radialGradient
     id="j"
     cx="72.631729"
     cy="22.787588"
     gradientTransform="matrix(1.185546 0 0 1.185549 -72.608265 -19.015791)"
     gradientUnits="userSpaceOnUse"
     r="1.265237"
     xlink:href="#d" />
  <linearGradient
     id="k"
     gradientUnits="userSpaceOnUse"
     x1="12.951381"
     x2="13.644998"
     xlink:href="#g"
     y1="5.523261"
     y2="8.111875" />
  <mask
     id="l">
    <g
       filter="url(#a)"
       id="g31">
      <path
         d="m0 0h16v16h-16z"
         fill-opacity=".501961"
         id="path29" />
    </g>
  </mask>
  <linearGradient
     id="m"
     gradientUnits="userSpaceOnUse"
     x1="3.5"
     x2="3.999997"
     xlink:href="#d"
     y1="10.499999"
     y2="15" />
  <radialGradient
     id="n"
     cx="72.631729"
     cy="22.787588"
     gradientTransform="matrix(1.185546 0 0 1.185549 -82.608263 -13.015791)"
     gradientUnits="userSpaceOnUse"
     r="1.265237"
     xlink:href="#d" />
  <linearGradient
     id="o"
     gradientUnits="userSpaceOnUse"
     x1="2.951383"
     x2="3.645"
     xlink:href="#g"
     y1="11.523261"
     y2="14.111875" />
  <clipPath
     id="p">
    <path
       d="m0 0h16v16h-16z"
       id="path37" />
  </clipPath>
  <linearGradient
     id="q"
     gradientTransform="matrix(.0605264 .104835 .0615622 -.0355429 2.825748 12.096632)"
     gradientUnits="userSpaceOnUse"
     x1="10.135816"
     x2="9.692278"
     y1="29.107889"
     y2="103.48482">
    <stop
       offset="0"
       stop-color="#72d13d"
       id="stop40" />
    <stop
       offset=".3553"
       stop-color="#35ac1c"
       id="stop42" />
    <stop
       offset=".6194"
       stop-color="#0f9508"
       id="stop44" />
    <stop
       offset=".7574"
       stop-color="#008c00"
       id="stop46" />
    <stop
       offset="1"
       stop-color="#007a00"
       id="stop48" />
  </linearGradient>
  <g
     clip-path="url(#c)"
     mask="url(#b)"
     id="g53"
     style="fill:#e602b4">
    <path
       d="m 2.996094,12.5 v -9 H 4 v 9 z m 0,0"
       id="path51"
       inkscape:connector-curvature="0"
       style="fill:#e602b4;fill-opacity:0.99215698" />
  </g>
  <path
     d="m3.359375 1.28125 11.261719 6.5-.503906.871094-11.257813-6.5zm0 0"
     fill="#4d4d4d"
     fill-opacity=".992157"
     id="path55"
     style="fill:#e602b4" />
  <path
     d="m2.28125 1h2.4375c.15625 0 .28125.125.28125.28125v2.4375c0 .15625-.125.28125-.28125.28125h-2.4375c-.15625 0-.28125-.125-.28125-.28125v-2.4375c0-.15625.125-.28125.28125-.28125zm0 0"
     fill="url(#e)"
     id="path57"
     style="fill:#9d3a9b" />
  <path
     d="m12.28125 6h2.4375c.15625 0 .28125.125.28125.28125v2.4375c0 .15625-.125.28125-.28125.28125h-2.4375c-.15625 0-.28125-.125-.28125-.28125v-2.4375c0-.15625.125-.28125.28125-.28125zm0 0"
     fill="url(#i)"
     id="path63"
     style="fill:#9d3a9b" />
  <g
     clip-path="url(#p)"
     mask="url(#l)"
     id="g75"
     style="fill:#9d3a9b">
    <path
       d="m 2.28125,12 h 2.4375 C 4.875,12 5,12.125 5,12.28125 v 2.4375 C 5,14.875 4.875,15 4.71875,15 H 2.28125 C 2.125,15 2,14.875 2,14.71875 v -2.4375 C 2,12.125 2.125,12 2.28125,12 Z m 0,0"
       id="path69"
       inkscape:connector-curvature="0"
       style="fill:#9d3a9b" />
    <path
       d="m 2.6875,12.5 h 1.625 C 4.417969,12.5 4.5,12.58203 4.5,12.6875 v 1.625 C 4.5,14.417969 4.417969,14.5 4.3125,14.5 H 2.6875 C 2.582031,14.5 2.5,14.417969 2.5,14.3125 v -1.625 C 2.5,12.582031 2.582031,12.5 2.6875,12.5 Z m 0,0"
       id="path71"
       inkscape:connector-curvature="0"
       style="fill:#9d3a9b" />
    <path
       d="m 2.695312,12.5 c -0.105468,0 -0.1875,0.08203 -0.1875,0.1875 v 0.945312 c 0.152344,0.01563 0.308594,0.02344 0.46875,0.02344 0.574219,0 1.105469,-0.09766 1.53125,-0.261719 V 12.6875 c 0,-0.105469 -0.085937,-0.1875 -0.1875,-0.1875 z m 0,0"
       id="path73"
       inkscape:connector-curvature="0"
       style="fill:#9d3a9b" />
  </g>
  <path
     style="fill:none;stroke:#e602b4;stroke-width:1px;stroke-linecap:round;stroke-linejoin:round;stroke-opacity:1"
     d="m 7,13.5 4.5,-4"
     id="path897"
     inkscape:connector-curvature="0"
     sodipodi:nodetypes="cc" />
  <path
     style="fill:none;stroke:#e602b4;stroke-width:1px;stroke-linecap:round;stroke-linejoin:round;stroke-opacity:1"
     d="m 8,9.5 h 3.5 V 13"
     id="path899"
     inkscape:connector-curvature="0"
     sodipodi:nodetypes="ccc" />
</svg>
