<?xml version="1.0" encoding="UTF-8" standalone="no"?>
<svg
   xmlns:dc="http://purl.org/dc/elements/1.1/"
   xmlns:cc="http://creativecommons.org/ns#"
   xmlns:rdf="http://www.w3.org/1999/02/22-rdf-syntax-ns#"
   xmlns:svg="http://www.w3.org/2000/svg"
   xmlns="http://www.w3.org/2000/svg"
   xmlns:xlink="http://www.w3.org/1999/xlink"
   xmlns:sodipodi="http://sodipodi.sourceforge.net/DTD/sodipodi-0.dtd"
   xmlns:inkscape="http://www.inkscape.org/namespaces/inkscape"
   height="16"
   viewBox="0 0 16 16"
   width="16"
   version="1.1"
   id="svg78"
   sodipodi:docname="sc_bezierclose.svg"
   inkscape:version="0.92.4 (unknown)">
  <metadata
     id="metadata84">
    <rdf:RDF>
      <cc:Work
         rdf:about="">
        <dc:format>image/svg+xml</dc:format>
        <dc:type
           rdf:resource="http://purl.org/dc/dcmitype/StillImage" />
      </cc:Work>
    </rdf:RDF>
  </metadata>
  <defs
     id="defs82" />
  <sodipodi:namedview
     pagecolor="#ffffff"
     bordercolor="#666666"
     borderopacity="1"
     objecttolerance="10"
     gridtolerance="10"
     guidetolerance="10"
     inkscape:pageopacity="0"
     inkscape:pageshadow="2"
     inkscape:window-width="1366"
     inkscape:window-height="707"
     id="namedview80"
     showgrid="true"
     inkscape:zoom="14.75"
     inkscape:cx="-3.3220339"
     inkscape:cy="8"
     inkscape:window-x="0"
     inkscape:window-y="0"
     inkscape:window-maximized="1"
     inkscape:current-layer="svg78">
    <inkscape:grid
       type="xygrid"
       id="grid891" />
  </sodipodi:namedview>
  <filter
     id="a"
     height="100%"
     width="100%"
     x="0%"
     y="0%">
    <feColorMatrix
       in="SourceGraphic"
       type="matrix"
       values="0 0 0 0 1 0 0 0 0 1 0 0 0 0 1 0 0 0 1 0"
       id="feColorMatrix2" />
  </filter>
  <mask
     id="b">
    <g
       filter="url(#a)"
       id="g7">
      <path
         d="m0 0h16v16h-16z"
         fill-opacity=".988235"
         id="path5" />
    </g>
  </mask>
  <clipPath
     id="c">
    <path
       d="m0 0h16v16h-16z"
       id="path10" />
  </clipPath>
  <mask
     id="d">
    <g
       filter="url(#a)"
       id="g15">
      <path
         d="m0 0h16v16h-16z"
         fill-opacity=".988235"
         id="path13" />
    </g>
  </mask>
  <clipPath
     id="e">
    <path
       d="m0 0h16v16h-16z"
       id="path18" />
  </clipPath>
  <linearGradient
     id="f">
    <stop
       offset="0"
       stop-color="#fd0000"
       id="stop21" />
    <stop
       offset="1"
       stop-color="#8f0000"
       id="stop23" />
  </linearGradient>
  <linearGradient
     id="g"
     gradientUnits="userSpaceOnUse"
     x1="3.500003"
     x2="4"
     xlink:href="#f"
     y1="-.500001"
     y2="4" />
  <radialGradient
     id="h"
     cx="72.631729"
     cy="22.787588"
     gradientTransform="matrix(1.185546 0 0 1.185549 -82.608261 -24.015791)"
     gradientUnits="userSpaceOnUse"
     r="1.265237"
     xlink:href="#f" />
  <linearGradient
     id="i">
    <stop
       offset="0"
       stop-color="#fff"
       id="stop28" />
    <stop
       offset="1"
       stop-color="#fff"
       stop-opacity="0"
       id="stop30" />
  </linearGradient>
  <linearGradient
     id="j"
     gradientUnits="userSpaceOnUse"
     x1="2.951386"
     x2="3.645003"
     xlink:href="#i"
     y1=".523261"
     y2="3.111875" />
  <linearGradient
     id="k"
     gradientUnits="userSpaceOnUse"
     x1="13.499998"
     x2="13.999995"
     xlink:href="#f"
     y1="4.499999"
     y2="9" />
  <radialGradient
     id="l"
     cx="72.631729"
     cy="22.787588"
     gradientTransform="matrix(1.185546 0 0 1.185549 -72.608265 -19.015791)"
     gradientUnits="userSpaceOnUse"
     r="1.265237"
     xlink:href="#f" />
  <linearGradient
     id="m"
     gradientUnits="userSpaceOnUse"
     x1="12.951381"
     x2="13.644998"
     xlink:href="#i"
     y1="5.523261"
     y2="8.111875" />
  <mask
     id="n">
    <g
       filter="url(#a)"
       id="g39">
      <path
         d="m0 0h16v16h-16z"
         fill-opacity=".988235"
         id="path37" />
    </g>
  </mask>
  <clipPath
     id="o">
    <path
       d="m0 0h16v16h-16z"
       id="path42" />
  </clipPath>
  <linearGradient
     id="p"
     gradientUnits="userSpaceOnUse"
     x1="3.5"
     x2="3.999997"
     xlink:href="#f"
     y1="10.499999"
     y2="15" />
  <radialGradient
     id="q"
     cx="72.631729"
     cy="22.787588"
     gradientTransform="matrix(1.185546 0 0 1.185549 -82.608263 -13.015791)"
     gradientUnits="userSpaceOnUse"
     r="1.265237"
     xlink:href="#f" />
  <linearGradient
     id="r"
     gradientUnits="userSpaceOnUse"
     x1="2.951383"
     x2="3.645"
     xlink:href="#i"
     y1="11.523261"
     y2="14.111875" />
  <g
     clip-path="url(#c)"
     mask="url(#b)"
     id="g50"
     style="fill:#e602b4">
    <path
       d="m 3.359375,14.152344 11.261719,-6.5 -0.503906,-0.871094 -11.257813,6.5 z m 0,0"
       id="path48"
       inkscape:connector-curvature="0"
       style="fill:#e602b4;fill-opacity:0.99215698" />
  </g>
  <g
     clip-path="url(#e)"
     mask="url(#d)"
     id="g54"
     style="fill:#e602b4">
    <path
       d="m 3.359375,1.28125 11.261719,6.5 -0.503906,0.871094 -11.257813,-6.5 z m 0,0"
       id="path52"
       inkscape:connector-curvature="0"
       style="fill:#e602b4;fill-opacity:0.99215698" />
  </g>
  <g
     clip-path="url(#o)"
     mask="url(#n)"
     id="g70"
     style="fill:#e602b4">
    <path
       d="m 2.996094,12.5 v -9 H 4 v 9 z m 0,0"
       id="path68"
       inkscape:connector-curvature="0"
       style="fill:#e602b4;fill-opacity:0.99215698" />
  </g>
  <path
     d="m2.28125 1h2.4375c.15625 0 .28125.125.28125.28125v2.4375c0 .15625-.125.28125-.28125.28125h-2.4375c-.15625 0-.28125-.125-.28125-.28125v-2.4375c0-.15625.125-.28125.28125-.28125zm0 0"
     fill="url(#g)"
     id="path56"
     style="fill:#9d3a9b" />
  <path
     d="m12.28125 6h2.4375c.15625 0 .28125.125.28125.28125v2.4375c0 .15625-.125.28125-.28125.28125h-2.4375c-.15625 0-.28125-.125-.28125-.28125v-2.4375c0-.15625.125-.28125.28125-.28125zm0 0"
     fill="url(#k)"
     id="path62"
     style="fill:#9d3a9b" />
  <path
     d="m2.28125 12h2.4375c.15625 0 .28125.125.28125.28125v2.4375c0 .15625-.125.28125-.28125.28125h-2.4375c-.15625 0-.28125-.125-.28125-.28125v-2.4375c0-.15625.125-.28125.28125-.28125zm0 0"
     fill="url(#p)"
     id="path72"
     style="fill:#9d3a9b" />
</svg>
