<?xml version="1.0" encoding="UTF-8" standalone="no"?>
<svg
   xmlns:dc="http://purl.org/dc/elements/1.1/"
   xmlns:cc="http://creativecommons.org/ns#"
   xmlns:rdf="http://www.w3.org/1999/02/22-rdf-syntax-ns#"
   xmlns:svg="http://www.w3.org/2000/svg"
   xmlns="http://www.w3.org/2000/svg"
   xmlns:xlink="http://www.w3.org/1999/xlink"
   xmlns:sodipodi="http://sodipodi.sourceforge.net/DTD/sodipodi-0.dtd"
   xmlns:inkscape="http://www.inkscape.org/namespaces/inkscape"
   height="16"
   viewBox="0 0 16 16"
   width="16"
   version="1.1"
   id="svg62"
   sodipodi:docname="sc_bezier_unfilled.svg"
   inkscape:version="0.92.4 (unknown)">
  <metadata
     id="metadata68">
    <rdf:RDF>
      <cc:Work
         rdf:about="">
        <dc:format>image/svg+xml</dc:format>
        <dc:type
           rdf:resource="http://purl.org/dc/dcmitype/StillImage" />
      </cc:Work>
    </rdf:RDF>
  </metadata>
  <defs
     id="defs66" />
  <sodipodi:namedview
     pagecolor="#ffffff"
     bordercolor="#666666"
     borderopacity="1"
     objecttolerance="10"
     gridtolerance="10"
     guidetolerance="10"
     inkscape:pageopacity="0"
     inkscape:pageshadow="2"
     inkscape:window-width="1366"
     inkscape:window-height="707"
     id="namedview64"
     showgrid="true"
     inkscape:zoom="14.75"
     inkscape:cx="-3.3220339"
     inkscape:cy="8"
     inkscape:window-x="0"
     inkscape:window-y="0"
     inkscape:window-maximized="1"
     inkscape:current-layer="svg62">
    <inkscape:grid
       type="xygrid"
       id="grid875" />
  </sodipodi:namedview>
  <filter
     id="a"
     height="100%"
     width="100%"
     x="0%"
     y="0%">
    <feColorMatrix
       in="SourceGraphic"
       type="matrix"
       values="0 0 0 0 1 0 0 0 0 1 0 0 0 0 1 0 0 0 1 0"
       id="feColorMatrix2" />
  </filter>
  <mask
     id="b">
    <g
       filter="url(#a)"
       id="g7">
      <path
         d="m0 0h16v16h-16z"
         fill-opacity=".988235"
         id="path5" />
    </g>
  </mask>
  <clipPath
     id="c">
    <path
       d="m0 0h16v16h-16z"
       id="path10" />
  </clipPath>
  <linearGradient
     id="d">
    <stop
       offset="0"
       stop-color="#fd0000"
       id="stop13" />
    <stop
       offset="1"
       stop-color="#8f0000"
       id="stop15" />
  </linearGradient>
  <linearGradient
     id="e"
     gradientUnits="userSpaceOnUse"
     x1="1.500003"
     x2="2"
     xlink:href="#d"
     y1=".503773"
     y2="5.003774" />
  <radialGradient
     id="f"
     cx="72.631729"
     cy="22.787588"
     gradientTransform="matrix(1.185546 0 0 1.185549 -84.608261 -23.012017)"
     gradientUnits="userSpaceOnUse"
     r="1.265237"
     xlink:href="#d" />
  <linearGradient
     id="g">
    <stop
       offset="0"
       stop-color="#fff"
       id="stop20" />
    <stop
       offset="1"
       stop-color="#fff"
       stop-opacity="0"
       id="stop22" />
  </linearGradient>
  <linearGradient
     id="h"
     gradientUnits="userSpaceOnUse"
     x1=".951386"
     x2="1.645003"
     xlink:href="#g"
     y1="1.527035"
     y2="4.115649" />
  <linearGradient
     id="i"
     gradientUnits="userSpaceOnUse"
     x1="14.493753"
     x2="14.99375"
     xlink:href="#d"
     y1=".503773"
     y2="5.003774" />
  <radialGradient
     id="j"
     cx="72.631729"
     cy="22.787588"
     gradientTransform="matrix(1.185546 0 0 1.185549 -71.61451 -23.012017)"
     gradientUnits="userSpaceOnUse"
     r="1.265237"
     xlink:href="#d" />
  <linearGradient
     id="k"
     gradientUnits="userSpaceOnUse"
     x1="13.945136"
     x2="14.638753"
     xlink:href="#g"
     y1="1.527035"
     y2="4.115649" />
  <linearGradient
     id="l"
     gradientUnits="userSpaceOnUse"
     x1="8.486417"
     x2="8.986414"
     xlink:href="#d"
     y1="9.45908"
     y2="13.959081" />
  <radialGradient
     id="m"
     cx="72.631729"
     cy="22.787588"
     gradientTransform="matrix(1.185546 0 0 1.185549 -77.621846 -14.05671)"
     gradientUnits="userSpaceOnUse"
     r="1.265237"
     xlink:href="#d" />
  <linearGradient
     id="n"
     gradientUnits="userSpaceOnUse"
     x1="7.9378"
     x2="8.631417"
     xlink:href="#g"
     y1="10.482342"
     y2="13.070956" />
  <path
     d="m4 12h9v1h-9z"
     fill="#c80000"
     fill-opacity=".984314"
     id="path32"
     style="fill:#e602b4" />
  <path
     d="m1 11v3h3v-3zm1 1h1v1h-1z"
     fill="#c80000"
     fill-opacity=".984314"
     id="path34"
     style="fill:#e602b4" />
  <g
     clip-path="url(#c)"
     mask="url(#b)"
     transform="translate(0,-0.101695)"
     id="g38"
     style="fill:#9d3a9b">
    <path
       d="m 1.7494551,3.6044834 c -0.046875,0 -0.089843,0.019531 -0.121093,0.054687 -0.03125,0.035157 -0.046876,0.082032 -0.042969,0.132813 0.121093,2.179687 0.828125,4.300781 2.019531,5.902344 1.316406,1.7617186 2.8471263,2.8619566 4.8744703,2.8619566 2.0273436,0 3.4854496,-1.189096 4.8018556,-2.950815 1.191406,-1.601563 1.898438,-3.722657 2.019531,-5.902344 0.0039,-0.050781 -0.01172,-0.097656 -0.04297,-0.132813 -0.03125,-0.035156 -0.07422,-0.054687 -0.121093,-0.054687 h -0.714844 c -0.08984,0 -0.160156,0.070313 -0.164063,0.164063 -0.253905,4.429687 -2.516698,7.888315 -5.7784166,7.892221 -3.265625,0 -5.6010323,-3.3697696 -5.8549393,-7.8033626 -0.00391,-0.09375 -0.078125,-0.164063 -0.164062,-0.164063 z"
       id="path36"
       inkscape:connector-curvature="0"
       style="fill:#9d3a9b" />
  </g>
  <g
     transform="translate(1)"
     id="g46"
     style="fill:#e602b4">
    <path
       d="m 0.28125,2.0037741 h 2.4375 c 0.15625,0 0.28125,0.125 0.28125,0.28125 v 2.4375 c 0,0.15625 -0.125,0.28125 -0.28125,0.28125 H 0.28125 C 0.125,5.0037741 0,4.8787741 0,4.7225241 v -2.4375 c 0,-0.15625 0.125,-0.28125 0.28125,-0.28125 z m 0,0"
       id="path40"
       inkscape:connector-curvature="0"
       style="fill:#e602b4" />
  </g>
  <path
     d="m13.273438 2.0037741h2.4375c.15625 0 .28125.125.28125.28125v2.4375c0 .15625-.125.28125-.28125.28125h-2.4375c-.152344 0-.28125-.125-.28125-.28125v-2.4375c0-.15625.128906-.28125.28125-.28125zm0 0"
     fill="url(#i)"
     id="path48"
     style="fill:#e602b4" />
  <path
     d="m7.2676649 10.959081h2.4375c.15625 0 .28125.125.28125.28125v2.4375c0 .15625-.125.28125-.28125.28125h-2.4375c-.15625 0-.28125-.125-.28125-.28125v-2.4375c0-.15625.125-.28125.28125-.28125zm0 0"
     fill="url(#l)"
     id="path54"
     style="fill:#e602b4" />
  <path
     d="m13 11v3h3v-3zm1 1h1v1h-1z"
     fill="#c80000"
     fill-opacity=".984314"
     id="path60"
     style="fill:#e602b4" />
</svg>
