<?xml version="1.0" encoding="UTF-8" standalone="no"?>
<svg
   xmlns:dc="http://purl.org/dc/elements/1.1/"
   xmlns:cc="http://creativecommons.org/ns#"
   xmlns:rdf="http://www.w3.org/1999/02/22-rdf-syntax-ns#"
   xmlns:svg="http://www.w3.org/2000/svg"
   xmlns="http://www.w3.org/2000/svg"
   xmlns:xlink="http://www.w3.org/1999/xlink"
   xmlns:sodipodi="http://sodipodi.sourceforge.net/DTD/sodipodi-0.dtd"
   xmlns:inkscape="http://www.inkscape.org/namespaces/inkscape"
   height="16"
   viewBox="0 0 16 16"
   width="16"
   version="1.1"
   id="svg52"
   sodipodi:docname="sc_beziersymmetric.svg"
   inkscape:version="0.92.4 (unknown)">
  <metadata
     id="metadata58">
    <rdf:RDF>
      <cc:Work
         rdf:about="">
        <dc:format>image/svg+xml</dc:format>
        <dc:type
           rdf:resource="http://purl.org/dc/dcmitype/StillImage" />
      </cc:Work>
    </rdf:RDF>
  </metadata>
  <defs
     id="defs56" />
  <sodipodi:namedview
     pagecolor="#ffffff"
     bordercolor="#666666"
     borderopacity="1"
     objecttolerance="10"
     gridtolerance="10"
     guidetolerance="10"
     inkscape:pageopacity="0"
     inkscape:pageshadow="2"
     inkscape:window-width="1366"
     inkscape:window-height="707"
     id="namedview54"
     showgrid="true"
     inkscape:zoom="29.5"
     inkscape:cx="5.9784614"
     inkscape:cy="8"
     inkscape:window-x="0"
     inkscape:window-y="0"
     inkscape:window-maximized="1"
     inkscape:current-layer="svg52">
    <inkscape:grid
       type="xygrid"
       id="grid868" />
  </sodipodi:namedview>
  <filter
     id="a"
     height="100%"
     width="100%"
     x="0%"
     y="0%">
    <feColorMatrix
       in="SourceGraphic"
       type="matrix"
       values="0 0 0 0 1 0 0 0 0 1 0 0 0 0 1 0 0 0 1 0"
       id="feColorMatrix2" />
  </filter>
  <mask
     id="b">
    <g
       filter="url(#a)"
       id="g7">
      <path
         d="m0 0h16v16h-16z"
         fill-opacity=".988235"
         id="path5" />
    </g>
  </mask>
  <clipPath
     id="c">
    <path
       d="m0 0h16v16h-16z"
       id="path10" />
  </clipPath>
  <linearGradient
     id="d">
    <stop
       offset="0"
       stop-color="#fd0000"
       id="stop13" />
    <stop
       offset="1"
       stop-color="#8f0000"
       id="stop15" />
  </linearGradient>
  <linearGradient
     id="e"
     gradientUnits="userSpaceOnUse"
     x1="7.998586"
     x2="8.498583"
     xlink:href="#d"
     y1="8.998999"
     y2="13.499" />
  <radialGradient
     id="f"
     cx="72.631729"
     cy="22.787588"
     gradientTransform="matrix(1.185546 0 0 1.185549 -78.109677 -14.516791)"
     gradientUnits="userSpaceOnUse"
     r="1.265237"
     xlink:href="#d" />
  <linearGradient
     id="g"
     gradientUnits="userSpaceOnUse"
     x1="7.449969"
     x2="8.143586"
     y1="10.022261"
     y2="12.610875">
    <stop
       offset="0"
       stop-color="#fff"
       id="stop20" />
    <stop
       offset="1"
       stop-color="#fff"
       stop-opacity="0"
       id="stop22" />
  </linearGradient>
  <linearGradient
     id="h">
    <stop
       offset="0"
       stop-color="#72d13d"
       id="stop25" />
    <stop
       offset=".3553"
       stop-color="#35ac1c"
       id="stop27" />
    <stop
       offset=".6194"
       stop-color="#0f9508"
       id="stop29" />
    <stop
       offset=".7574"
       stop-color="#008c00"
       id="stop31" />
    <stop
       offset="1"
       stop-color="#007a00"
       id="stop33" />
  </linearGradient>
  <linearGradient
     id="i"
     gradientTransform="matrix(.00000001 .121053 -.0710858 0 9.076971 11.046598)"
     gradientUnits="userSpaceOnUse"
     x1="10.135816"
     x2="9.692278"
     xlink:href="#h"
     y1="29.107889"
     y2="103.48482" />
  <linearGradient
     id="j"
     gradientTransform="matrix(-.00000001 .121053 .0710858 0 6.921612 11.045598)"
     gradientUnits="userSpaceOnUse"
     x1="10.135816"
     x2="9.692278"
     xlink:href="#h"
     y1="29.107889"
     y2="103.48482" />
  <g
     clip-path="url(#c)"
     mask="url(#b)"
     id="g40"
     style="fill:#e602b4">
    <path
       d="m 0.859375,3.011719 c -0.042969,0 -0.085937,0.023437 -0.117187,0.058593 C 0.710938,3.105469 0.695312,3.152344 0.699219,3.203125 0.820312,5.382812 1.527344,7.503906 2.71875,9.101562 4.035156,10.867188 5.972656,11.984375 8,11.984375 c 2.023438,0 3.960938,-1.117187 5.277344,-2.882813 1.191406,-1.597656 1.898437,-3.71875 2.023437,-5.898437 0,-0.050781 -0.01563,-0.097656 -0.04687,-0.132813 -0.03125,-0.035156 -0.07422,-0.058593 -0.117187,-0.058593 h -0.71875 c -0.08594,0 -0.15625,0.074219 -0.164063,0.167969 C 14.003906,7.609375 11.261719,10.996094 8,11 4.734375,11 1.992188,7.613281 1.738281,3.179688 1.730469,3.085938 1.660156,3.011719 1.574219,3.011719 Z m 0,0"
       id="path38"
       inkscape:connector-curvature="0"
       style="fill:#e602b4" />
  </g>
  <path
     d="m6.78125 10.5h2.4375c.152344 0 .28125.125.28125.28125v2.4375c0 .15625-.128906.28125-.28125.28125h-2.4375c-.15625 0-.28125-.125-.28125-.28125v-2.4375c0-.15625.125-.28125.28125-.28125zm0 0"
     fill="url(#e)"
     id="path42"
     style="fill:#9d3a9b" />
  <path
     d="m7.1875 11h1.625c.101562 0 .1875.082031.1875.1875v1.625c0 .101562-.085938.1875-.1875.1875h-1.625c-.105469 0-.1875-.085938-.1875-.1875v-1.625c0-.105469.082031-.1875.1875-.1875zm0 0"
     fill="url(#f)"
     id="path44"
     style="fill:#9d3a9b" />
  <g
     id="g876"
     transform="matrix(-1,0,0,1,16.5,0.5)">
    <path
       inkscape:connector-curvature="0"
       id="path870"
       d="M 6.5,12 H 3"
       style="fill:none;stroke:#e602b4;stroke-width:1px;stroke-linecap:round;stroke-linejoin:round;stroke-opacity:1" />
    <path
       inkscape:connector-curvature="0"
       id="path872"
       d="m 4,10 -2,2 2,2"
       style="fill:none;stroke:#e602b4;stroke-width:1px;stroke-linecap:round;stroke-linejoin:round;stroke-opacity:1" />
  </g>
  <g
     id="g882"
     transform="translate(-0.5,0.5)">
    <path
       style="fill:none;stroke:#e602b4;stroke-width:1px;stroke-linecap:round;stroke-linejoin:round;stroke-opacity:1"
       d="M 6.5,12 H 3"
       id="path878"
       inkscape:connector-curvature="0" />
    <path
       style="fill:none;stroke:#e602b4;stroke-width:1px;stroke-linecap:round;stroke-linejoin:round;stroke-opacity:1"
       d="m 4,10 -2,2 2,2"
       id="path880"
       inkscape:connector-curvature="0" />
  </g>
</svg>
