<?xml version="1.0" encoding="UTF-8" standalone="no"?>
<svg
   xmlns:dc="http://purl.org/dc/elements/1.1/"
   xmlns:cc="http://creativecommons.org/ns#"
   xmlns:rdf="http://www.w3.org/1999/02/22-rdf-syntax-ns#"
   xmlns:svg="http://www.w3.org/2000/svg"
   xmlns="http://www.w3.org/2000/svg"
   xmlns:xlink="http://www.w3.org/1999/xlink"
   xmlns:sodipodi="http://sodipodi.sourceforge.net/DTD/sodipodi-0.dtd"
   xmlns:inkscape="http://www.inkscape.org/namespaces/inkscape"
   height="16"
   viewBox="0 0 16 16"
   width="16"
   version="1.1"
   id="svg26"
   sodipodi:docname="sc_beziersmooth.svg"
   inkscape:version="0.92.4 (unknown)">
  <metadata
     id="metadata32">
    <rdf:RDF>
      <cc:Work
         rdf:about="">
        <dc:format>image/svg+xml</dc:format>
        <dc:type
           rdf:resource="http://purl.org/dc/dcmitype/StillImage" />
      </cc:Work>
    </rdf:RDF>
  </metadata>
  <defs
     id="defs30" />
  <sodipodi:namedview
     pagecolor="#ffffff"
     bordercolor="#666666"
     borderopacity="1"
     objecttolerance="10"
     gridtolerance="10"
     guidetolerance="10"
     inkscape:pageopacity="0"
     inkscape:pageshadow="2"
     inkscape:window-width="1366"
     inkscape:window-height="707"
     id="namedview28"
     showgrid="false"
     inkscape:zoom="14.75"
     inkscape:cx="0.13559322"
     inkscape:cy="8"
     inkscape:window-x="0"
     inkscape:window-y="0"
     inkscape:window-maximized="1"
     inkscape:current-layer="svg26" />
  <linearGradient
     id="a">
    <stop
       offset="0"
       stop-color="#fd0000"
       id="stop2" />
    <stop
       offset="1"
       stop-color="#8f0000"
       id="stop4" />
  </linearGradient>
  <linearGradient
     id="b"
     gradientUnits="userSpaceOnUse"
     x1="8.000002"
     x2="8.499999"
     xlink:href="#a"
     y1="9.499999"
     y2="14" />
  <radialGradient
     id="c"
     cx="72.631729"
     cy="22.787588"
     gradientTransform="matrix(1.185546 0 0 1.185549 -78.108261 -14.015791)"
     gradientUnits="userSpaceOnUse"
     r="1.265237"
     xlink:href="#a" />
  <linearGradient
     id="d"
     gradientUnits="userSpaceOnUse"
     x1="7.451385"
     x2="8.145002"
     y1="10.523261"
     y2="13.111875">
    <stop
       offset="0"
       stop-color="#fff"
       id="stop9" />
    <stop
       offset="1"
       stop-color="#fff"
       stop-opacity="0"
       id="stop11" />
  </linearGradient>
  <path
     d="m2.1165254 3.0058262c-.046875 0-.089843.019531-.121093.054687-.03125.035157-.046876.082032-.042969.132813.121093 2.179687.3561306 5.7207358 1.5475366 7.3222988 1.316406 1.761719 2.972656 2.484375 5 2.484375v-.984375c-2 0-3-.5-4.1361181-2.1073961-1.0404483-1.4720412-1.3349037-4.1899359-1.3723565-6.7383397-.00391-.09375-.078125-.164063-.164062-.164063z"
     fill="#4d4d4d"
     id="path14"
     style="fill:#e602b4" />
  <path
     d="m14.866525 3.0058262c.04687 0 .08984.019531.121093.054687.03125.035157.04688.082032.04297.132813-.121094 2.179687-.339182 5.7207358-1.530588 7.3222988-1.316406 1.761719-2.972656 2.484375-5 2.484375v-.984375c2 0 3-.5 4.136118-2.1073961 1.040448-1.4720412 1.317954-4.1899359 1.355407-6.7383397.0039-.09375.07813-.164063.164062-.164063z"
     fill="#4d4d4d"
     id="path16"
     style="fill:#e602b4" />
  <g
     transform="translate(0.5)"
     id="g24"
     style="fill:#9d3a9b">
    <path
       d="m 6.78125,11 h 2.4375 C 9.375,11 9.5,11.125 9.5,11.28125 v 2.4375 C 9.5,13.875 9.375,14 9.21875,14 H 6.78125 C 6.625,14 6.5,13.875 6.5,13.71875 v -2.4375 C 6.5,11.125 6.625,11 6.78125,11 Z m 0,0"
       id="path18"
       inkscape:connector-curvature="0"
       style="fill:#9d3a9b" />
    <path
       d="m 7.1875,11.5 h 1.625 C 8.917969,11.5 9,11.582031 9,11.6875 v 1.625 C 9,13.417969 8.917969,13.5 8.8125,13.5 H 7.1875 C 7.082031,13.5 7,13.417969 7,13.3125 v -1.625 C 7,11.582031 7.082031,11.5 7.1875,11.5 Z m 0,0"
       id="path20"
       inkscape:connector-curvature="0"
       style="fill:#9d3a9b" />
    <path
       d="m 7.195312,11.5 c -0.105468,0 -0.1875,0.08203 -0.1875,0.1875 v 0.945312 c 0.152344,0.01563 0.308594,0.02344 0.46875,0.02344 0.574219,0 1.105469,-0.09766 1.53125,-0.261719 V 11.6875 c 0,-0.105469 -0.085937,-0.1875 -0.1875,-0.1875 z m 0,0"
       id="path22"
       inkscape:connector-curvature="0"
       style="fill:#9d3a9b" />
  </g>
</svg>
