<?xml version="1.0" encoding="UTF-8" standalone="no"?>
<svg
   xmlns:dc="http://purl.org/dc/elements/1.1/"
   xmlns:cc="http://creativecommons.org/ns#"
   xmlns:rdf="http://www.w3.org/1999/02/22-rdf-syntax-ns#"
   xmlns:svg="http://www.w3.org/2000/svg"
   xmlns="http://www.w3.org/2000/svg"
   xmlns:xlink="http://www.w3.org/1999/xlink"
   xmlns:sodipodi="http://sodipodi.sourceforge.net/DTD/sodipodi-0.dtd"
   xmlns:inkscape="http://www.inkscape.org/namespaces/inkscape"
   height="16"
   width="16"
   version="1.1"
   id="svg56"
   sodipodi:docname="sc_combine.svg"
   inkscape:version="0.92.4 (unknown)">
  <metadata
     id="metadata62">
    <rdf:RDF>
      <cc:Work
         rdf:about="">
        <dc:format>image/svg+xml</dc:format>
        <dc:type
           rdf:resource="http://purl.org/dc/dcmitype/StillImage" />
      </cc:Work>
    </rdf:RDF>
  </metadata>
  <defs
     id="defs60" />
  <sodipodi:namedview
     pagecolor="#ffffff"
     bordercolor="#666666"
     borderopacity="1"
     objecttolerance="10"
     gridtolerance="10"
     guidetolerance="10"
     inkscape:pageopacity="0"
     inkscape:pageshadow="2"
     inkscape:window-width="1366"
     inkscape:window-height="707"
     id="namedview58"
     showgrid="true"
     inkscape:zoom="83.4386"
     inkscape:cx="8.685995"
     inkscape:cy="9.4100231"
     inkscape:window-x="0"
     inkscape:window-y="0"
     inkscape:window-maximized="1"
     inkscape:current-layer="svg56">
    <inkscape:grid
       type="xygrid"
       id="grid885" />
  </sodipodi:namedview>
  <linearGradient
     id="a">
    <stop
       offset="0"
       stop-color="#717174"
       id="stop2" />
    <stop
       offset=".5"
       stop-color="#9c9ca1"
       id="stop4" />
    <stop
       offset="1"
       stop-color="#bdbdc2"
       id="stop6" />
  </linearGradient>
  <linearGradient
     id="b"
     gradientTransform="matrix(0,0.57141947,0.76189347,0,-2.475975,42.984941)"
     gradientUnits="userSpaceOnUse"
     x1="119.57646"
     x2="15.999996"
     xlink:href="#c"
     y1="23.792561"
     y2="109.6508" />
  <linearGradient
     id="c">
    <stop
       offset="0"
       stop-color="#fff"
       id="stop10" />
    <stop
       offset=".42597079"
       stop-color="#fff"
       id="stop12" />
    <stop
       offset=".5892781"
       stop-color="#e5e5e5"
       id="stop14" />
    <stop
       offset=".80219781"
       stop-color="#eaeaea"
       id="stop16" />
    <stop
       offset="1"
       stop-color="#eee"
       id="stop18" />
  </linearGradient>
  <linearGradient
     id="d"
     gradientTransform="matrix(0,-1.3692663,-1.7142582,0,101.14142,195.38729)"
     gradientUnits="userSpaceOnUse"
     x1="102.31124"
     x2="74.330322"
     xlink:href="#e"
     y1="-5.830213"
     y2="32" />
  <linearGradient
     id="e">
    <stop
       offset="0"
       stop-color="#fff"
       id="stop22" />
    <stop
       offset="1"
       stop-color="#fff"
       stop-opacity="0"
       id="stop24" />
  </linearGradient>
  <linearGradient
     id="f"
     gradientUnits="userSpaceOnUse"
     x1="129.65916"
     x2="99.298172"
     xlink:href="#e"
     y1="16.993765"
     y2="48.481419" />
  <linearGradient
     id="g"
     gradientUnits="userSpaceOnUse"
     x1="43.517578"
     x2="112"
     xlink:href="#a"
     y1="45.241211"
     y2="44.185516"
     gradientTransform="scale(0.125)" />
  <linearGradient
     id="h"
     gradientUnits="userSpaceOnUse"
     x1="46.591778"
     x2="118.24603"
     y1="39.999996"
     y2="39.999996"
     gradientTransform="scale(0.125)">
    <stop
       offset="0"
       stop-color="#b4b4b6"
       id="stop29" />
    <stop
       offset=".5"
       stop-color="#9c9ca1"
       id="stop31" />
    <stop
       offset="1"
       stop-color="#cdcdd1"
       id="stop33" />
  </linearGradient>
  <linearGradient
     id="i"
     gradientUnits="userSpaceOnUse"
     x1="61.112431"
     x2="126.06644"
     xlink:href="#c"
     y1="74.825134"
     y2="-16"
     gradientTransform="scale(0.125)" />
  <linearGradient
     id="j"
     gradientTransform="matrix(0.00867537,0,0,-0.01394114,1.095793,22.160976)"
     gradientUnits="userSpaceOnUse"
     x1="-11.041996"
     x2="1141.647"
     xlink:href="#a"
     y1="904.03656"
     y2="872.30853" />
  <path
     style="fill:#e602b4;stroke-width:0.125"
     inkscape:connector-curvature="0"
     id="path38"
     d="M 10.048704,1.0000001 C 7.4386666,1.0003331 5.2547211,3.4327054 5,6 L 5.8177156,6.1362836 10.206831,5.5250557 c 0.18484,-0.025741 0.336806,0.1726087 0.336806,0.3871244 L 10.339894,10.206432 10.5,10.667672 V 11 C 13.096013,10.748402 15.119621,8.5922719 15.122071,6.0142186 15.121954,3.2449897 12.850598,1.0001153 10.048704,1.0000001 Z"
     sodipodi:nodetypes="cccssccccc" />
  <path
     style="fill:#f0e3ec;stroke-width:0.12499999"
     inkscape:connector-curvature="0"
     id="path40"
     d="M 10.029419,2 C 7.9707389,2.001396 6.2390261,3.9772211 6,6 l 4.14334,-0.00683 c 0.177703,-2.927e-4 0.318691,0.1525334 0.320705,0.3569725 L 10.5,10 C 12.544338,9.7640611 14.08671,8.0520213 14.089226,6.0159424 14.089181,3.7979282 12.271533,1.9999186 10.029419,2 Z"
     sodipodi:nodetypes="ccssccc" />
  <path
     style="opacity:1;fill:#e602b4;stroke-width:0.12499999"
     inkscape:connector-curvature="0"
     id="path42"
     d="m 1.9490169,5.9999996 c -0.1668097,0 -0.3010468,0.1576414 -0.3010468,0.3535575 V 14.58577 c 0,0.195916 0.1342371,0.353558 0.3010468,0.353558 h 8.2499361 c 0.16681,0 0.301047,-0.157642 0.301047,-0.353558 V 10.264513 A 3.8108142,3.8483961 0 0 1 10.058263,10.295282 3.8108142,3.8483961 0 0 1 6.2475247,6.4467443 3.8108142,3.8483961 0 0 1 6.2758362,5.999996 Z m 0.724198,0.8939328 H 5.544938 A 4.5349101,4.5796329 0 0 0 9.6147973,11 v 2.875163 c 0,0.09433 -0.062438,0.170232 -0.140042,0.170232 H 2.6732149 c -0.077603,0 -0.1400418,-0.0759 -0.1400418,-0.170232 V 7.064164 c 0,-0.09433 0.062439,-0.1702316 0.1400418,-0.1702316 z" />
  <g
     style="fill-rule:evenodd"
     id="g50"
     transform="scale(0.125)" />
  <path
     style="opacity:1;fill:#e602b4;stroke-width:0.125"
     inkscape:connector-curvature="0"
     id="path52"
     d="M 4.99951,5.9999999 C 4.981823,6.1512425 4.972128,6.3031958 4.970459,6.4553156 c 2.214e-4,0.1522028 0.00847,0.3043048 0.02473,0.4557607 0.2369985,2.2154041 2.12987,3.9673647 4.521397,4.1848127 0.1634099,0.0164 0.3275892,0.02538 0.491947,0.02692 0.164128,-2.16e-4 0.328146,-0.0079 0.491467,-0.02291 V 10.346302 6.3098511 C 10.5,6.1381657 10.326579,6.000005 10.111052,6.000005 H 5.8071769 Z m 0.8103078,0.9110764 h 3.5194965 c 0.103772,0 0.1872711,0.064267 0.1872711,0.1441349 v 2.9556598 l 1.967e-4,0.340176 c 3e-6,0.0051 -0.6869296,-0.09504 -0.8652452,-0.184697 C 7.1061294,9.6795202 6.0004761,8.4129618 5.8098178,6.9110763 Z" />
</svg>
