<?xml version="1.0" encoding="UTF-8" standalone="no"?>
<svg
   xmlns:dc="http://purl.org/dc/elements/1.1/"
   xmlns:cc="http://creativecommons.org/ns#"
   xmlns:rdf="http://www.w3.org/1999/02/22-rdf-syntax-ns#"
   xmlns:svg="http://www.w3.org/2000/svg"
   xmlns="http://www.w3.org/2000/svg"
   xmlns:xlink="http://www.w3.org/1999/xlink"
   xmlns:sodipodi="http://sodipodi.sourceforge.net/DTD/sodipodi-0.dtd"
   xmlns:inkscape="http://www.inkscape.org/namespaces/inkscape"
   height="16"
   width="16"
   version="1.1"
   id="svg29"
   sodipodi:docname="sc_connectorcurve.svg"
   inkscape:version="0.92.4 (unknown)">
  <metadata
     id="metadata35">
    <rdf:RDF>
      <cc:Work
         rdf:about="">
        <dc:format>image/svg+xml</dc:format>
        <dc:type
           rdf:resource="http://purl.org/dc/dcmitype/StillImage" />
      </cc:Work>
    </rdf:RDF>
  </metadata>
  <defs
     id="defs33" />
  <sodipodi:namedview
     pagecolor="#ffffff"
     bordercolor="#666666"
     borderopacity="1"
     objecttolerance="10"
     gridtolerance="10"
     guidetolerance="10"
     inkscape:pageopacity="0"
     inkscape:pageshadow="2"
     inkscape:window-width="1366"
     inkscape:window-height="707"
     id="namedview31"
     showgrid="true"
     inkscape:zoom="23.776467"
     inkscape:cx="8.0615492"
     inkscape:cy="8.0000006"
     inkscape:window-x="0"
     inkscape:window-y="0"
     inkscape:window-maximized="1"
     inkscape:current-layer="svg29">
    <inkscape:grid
       type="xygrid"
       id="grid842" />
  </sodipodi:namedview>
  <linearGradient
     id="a"
     gradientTransform="matrix(9.6349438,0,0,9.6349383,-690.65973,-204.31902)"
     gradientUnits="userSpaceOnUse"
     x1="71.994354"
     x2="73.261963"
     xlink:href="#b"
     y1="24.686638"
     y2="18.982378" />
  <linearGradient
     id="b">
    <stop
       offset="0"
       stop-color="#0968ef"
       id="stop3" />
    <stop
       offset="1"
       stop-color="#aecffc"
       id="stop5" />
  </linearGradient>
  <linearGradient
     id="c"
     gradientTransform="matrix(9.6349438,0,0,9.6349383,-580.94548,-94.60474)"
     gradientUnits="userSpaceOnUse"
     x1="71.994354"
     x2="73.261963"
     xlink:href="#b"
     y1="24.686638"
     y2="18.982378" />
  <g
     style="fill:#e602b4;stroke-width:1.12122381"
     id="g19"
     transform="matrix(0.109375,0,0,0.11363636,1,0.68181815)">
    <path
       style="opacity:0.98999999;fill:#e602b4;fill-opacity:0.99215698;stroke-width:1.12122381"
       inkscape:connector-curvature="0"
       id="path9"
       d="M 32.009764,64 C 25.823349,64 16.463149,67.41567 13.117186,71.876953 9.771223,76.338237 8.01953,77.957892 8.01953,84 v 4 c 0,6.042108 1.761459,11.661763 5.107422,16.12305 C 16.472915,108.58433 25.833115,112 32.01953,112 L 32,104 h 0.01953 c -6.648,0 -16,-7.136 -16,-16 v -4 c 0,-8.864 9.342234,-12 15.990234,-12 z" />
    <path
       style="opacity:0.98999999;fill:#e602b4;stroke-width:1.12122381"
       inkscape:connector-curvature="0"
       id="path11"
       d="m 16,16 h 80 v 8 H 16 Z" />
    <path
       style="opacity:0.98999999;fill:#e602b4;stroke-width:1.12122381"
       inkscape:connector-curvature="0"
       id="path13"
       d="m 95.996108,64.000005 -64.02937,3.49e-4 0.0235,7.999651 64.02937,-3.5e-4 z" />
    <path
       style="opacity:0.98999999;fill:#e602b4;stroke-width:1.12122381"
       inkscape:connector-curvature="0"
       id="path15"
       d="m 32,104 h 72 v 8 H 32 Z" />
    <path
       style="opacity:0.98999999;fill:#e602b4;fill-opacity:0.99215698;stroke-width:1.12122381"
       inkscape:connector-curvature="0"
       id="path17"
       d="m 96,16 v 8 c 6.648,0 16,7.136 16,16 v 4 c 0,8.859623 -9.35657,19.992957 -16,20 l 0.01953,7.998047 c 6.17392,-0.01086 15.52265,-3.420826 18.86328,-7.875 C 118.22877,59.661763 120,50.042108 120,44 V 40 C 120,33.957892 118.23854,28.338237 114.89258,23.876953 111.54662,19.41567 102.18641,16 96,16 Z" />
  </g>
  <g
     style="fill:#9d3a9b;stroke-width:9.6349411"
     id="g25"
     transform="matrix(0.109375,0,0,0.109375,1,1.0000005)">
    <path
       style="fill:#9d3a9b;stroke-width:9.6349411"
       inkscape:connector-curvature="0"
       id="path21"
       d="M 0,0 H 32.000029 V 31.999994 H 0 Z" />
    <path
       style="fill:#9d3a9b;stroke-width:9.6349411"
       inkscape:connector-curvature="0"
       id="path23"
       d="M 95.999971,96 H 128 v 31.99999 H 95.999971 Z" />
  </g>
</svg>
