<?xml version="1.0" encoding="UTF-8" standalone="no"?>
<svg
   xmlns:dc="http://purl.org/dc/elements/1.1/"
   xmlns:cc="http://creativecommons.org/ns#"
   xmlns:rdf="http://www.w3.org/1999/02/22-rdf-syntax-ns#"
   xmlns:svg="http://www.w3.org/2000/svg"
   xmlns="http://www.w3.org/2000/svg"
   xmlns:xlink="http://www.w3.org/1999/xlink"
   xmlns:sodipodi="http://sodipodi.sourceforge.net/DTD/sodipodi-0.dtd"
   xmlns:inkscape="http://www.inkscape.org/namespaces/inkscape"
   height="16"
   viewBox="0 0 16 16"
   width="16"
   version="1.1"
   id="svg80"
   sodipodi:docname="sc_changebezier.svg"
   inkscape:version="0.92.4 (unknown)">
  <metadata
     id="metadata86">
    <rdf:RDF>
      <cc:Work
         rdf:about="">
        <dc:format>image/svg+xml</dc:format>
        <dc:type
           rdf:resource="http://purl.org/dc/dcmitype/StillImage" />
      </cc:Work>
    </rdf:RDF>
  </metadata>
  <defs
     id="defs84" />
  <sodipodi:namedview
     pagecolor="#ffffff"
     bordercolor="#666666"
     borderopacity="1"
     objecttolerance="10"
     gridtolerance="10"
     guidetolerance="10"
     inkscape:pageopacity="0"
     inkscape:pageshadow="2"
     inkscape:window-width="1366"
     inkscape:window-height="707"
     id="namedview82"
     showgrid="true"
     inkscape:zoom="14.75"
     inkscape:cx="0.13559322"
     inkscape:cy="8"
     inkscape:window-x="0"
     inkscape:window-y="0"
     inkscape:window-maximized="1"
     inkscape:current-layer="svg80">
    <inkscape:grid
       type="xygrid"
       id="grid898" />
  </sodipodi:namedview>
  <filter
     id="a"
     color-interpolation-filters="sRGB"
     height="1.306617"
     width="1.43589"
     x="-.217945"
     y="-.153309">
    <feGaussianBlur
       stdDeviation="3.1542391"
       id="feGaussianBlur2" />
  </filter>
  <linearGradient
     id="b"
     gradientUnits="userSpaceOnUse"
     x1="32.81356"
     x2="28.745762"
     y1="44.474575"
     y2="19.254236"
     gradientTransform="matrix(0.1875,0,0,0.1875,4.641579,4.166948)">
    <stop
       offset="0"
       stop-color="#070707"
       id="stop5" />
    <stop
       offset="1"
       stop-color="#474747"
       id="stop7" />
  </linearGradient>
  <filter
     id="c"
     height="100%"
     width="100%"
     x="0%"
     y="0%">
    <feColorMatrix
       in="SourceGraphic"
       type="matrix"
       values="0 0 0 0 1 0 0 0 0 1 0 0 0 0 1 0 0 0 1 0"
       id="feColorMatrix10" />
  </filter>
  <mask
     id="d">
    <g
       filter="url(#c)"
       id="g15">
      <path
         d="m0 0h16v16h-16z"
         fill-opacity=".988235"
         id="path13" />
    </g>
  </mask>
  <clipPath
     id="e">
    <path
       d="m0 0h16v16h-16z"
       id="path18" />
  </clipPath>
  <linearGradient
     id="f">
    <stop
       offset="0"
       stop-color="#fd0000"
       id="stop21" />
    <stop
       offset="1"
       stop-color="#8f0000"
       id="stop23" />
  </linearGradient>
  <linearGradient
     id="g"
     gradientUnits="userSpaceOnUse"
     x1="1.500003"
     x2="2"
     xlink:href="#f"
     y1=".503773"
     y2="5.003774" />
  <radialGradient
     id="h"
     cx="72.631729"
     cy="22.787588"
     gradientTransform="matrix(1.185546,0,0,1.185549,-84.608261,-23.012017)"
     gradientUnits="userSpaceOnUse"
     r="1.265237"
     xlink:href="#f" />
  <linearGradient
     id="i">
    <stop
       offset="0"
       stop-color="#fff"
       id="stop28" />
    <stop
       offset="1"
       stop-color="#fff"
       stop-opacity="0"
       id="stop30" />
  </linearGradient>
  <linearGradient
     id="j"
     gradientUnits="userSpaceOnUse"
     x1=".951386"
     x2="1.645003"
     xlink:href="#i"
     y1="1.527035"
     y2="4.115649" />
  <linearGradient
     id="k"
     gradientUnits="userSpaceOnUse"
     x1="14.493753"
     x2="14.99375"
     xlink:href="#f"
     y1=".503773"
     y2="5.003774"
     gradientTransform="translate(-1,-2)" />
  <radialGradient
     id="l"
     cx="72.631729"
     cy="22.787588"
     gradientTransform="matrix(1.185546,0,0,1.185549,-72.61451,-25.012017)"
     gradientUnits="userSpaceOnUse"
     r="1.265237"
     xlink:href="#f" />
  <linearGradient
     id="m"
     gradientUnits="userSpaceOnUse"
     x1="13.945136"
     x2="14.638753"
     xlink:href="#i"
     y1="1.527035"
     y2="4.115649"
     gradientTransform="translate(-1,-2)" />
  <linearGradient
     id="n"
     gradientUnits="userSpaceOnUse"
     x1="8.486417"
     x2="8.986414"
     xlink:href="#f"
     y1="9.45908"
     y2="13.959081"
     gradientTransform="translate(-1,-2)" />
  <radialGradient
     id="o"
     cx="72.631729"
     cy="22.787588"
     gradientTransform="matrix(1.185546,0,0,1.185549,-78.621846,-16.05671)"
     gradientUnits="userSpaceOnUse"
     r="1.265237"
     xlink:href="#f" />
  <linearGradient
     id="p"
     gradientUnits="userSpaceOnUse"
     x1="7.9378"
     x2="8.631417"
     xlink:href="#i"
     y1="10.482342"
     y2="13.070956"
     gradientTransform="translate(-1,-2)" />
  <path
     style="fill:#9d3a9b;fill-opacity:0.98431402"
     inkscape:connector-curvature="0"
     id="path40"
     d="m 3,10 h 9 v 1 H 3 Z" />
  <path
     style="fill:#9d3a9b;fill-opacity:0.98431402"
     inkscape:connector-curvature="0"
     id="path42"
     d="m 0,9 v 3 H 3 V 9 Z m 1,1 h 1 v 1 H 1 Z" />
  <g
     id="g46"
     transform="translate(-1,-2.101695)"
     mask="url(#d)"
     clip-path="url(#e)"
     style="fill:#e602b4">
    <path
       style="fill:#e602b4"
       inkscape:connector-curvature="0"
       id="path44"
       d="m 1.7494551,3.6044834 c -0.046875,0 -0.089843,0.019531 -0.121093,0.054687 -0.03125,0.035157 -0.046876,0.082032 -0.042969,0.132813 0.121093,2.179687 0.828125,4.300781 2.019531,5.902344 1.316406,1.7617186 2.8471263,2.8619566 4.8744703,2.8619566 2.0273436,0 3.4854496,-1.189096 4.8018556,-2.950815 1.191406,-1.601563 1.898438,-3.722657 2.019531,-5.902344 0.0039,-0.050781 -0.01172,-0.097656 -0.04297,-0.132813 -0.03125,-0.035156 -0.07422,-0.054687 -0.121093,-0.054687 h -0.714844 c -0.08984,0 -0.160156,0.070313 -0.164063,0.164063 -0.253905,4.429687 -2.516698,7.888315 -5.7784166,7.892221 -3.265625,0 -5.6010323,-3.3697696 -5.8549393,-7.8033626 -0.00391,-0.09375 -0.078125,-0.164063 -0.164062,-0.164063 z" />
  </g>
  <g
     id="g54"
     transform="translate(0,-2)"
     style="fill:#9d3a9b">
    <path
       style="fill:#9d3a9b"
       inkscape:connector-curvature="0"
       id="path48"
       d="m 0.28125,2.0037741 h 2.4375 c 0.15625,0 0.28125,0.125 0.28125,0.28125 v 2.4375 c 0,0.15625 -0.125,0.28125 -0.28125,0.28125 H 0.28125 C 0.125,5.0037741 0,4.8787741 0,4.7225241 v -2.4375 c 0,-0.15625 0.125,-0.28125 0.28125,-0.28125 z m 0,0" />
  </g>
  <path
     style="fill:#9d3a9b"
     inkscape:connector-curvature="0"
     id="path56"
     d="m 12.273438,0.0037741 h 2.4375 c 0.15625,0 0.28125,0.125 0.28125,0.28125 v 2.4375 c 0,0.15625 -0.125,0.28125 -0.28125,0.28125 h -2.4375 c -0.152344,0 -0.28125,-0.125 -0.28125,-0.28125 v -2.4375 c 0,-0.15625 0.128906,-0.28125 0.28125,-0.28125 z m 0,0" />
  <path
     style="fill:#9d3a9b"
     inkscape:connector-curvature="0"
     id="path62"
     d="m 6.2676649,8.959081 h 2.4375 c 0.15625,0 0.28125,0.125 0.28125,0.28125 v 2.4375 c 0,0.15625 -0.125,0.28125 -0.28125,0.28125 h -2.4375 c -0.15625,0 -0.28125,-0.125 -0.28125,-0.28125 v -2.4375 c 0,-0.15625 0.125,-0.28125 0.28125,-0.28125 z m 0,0" />
  <path
     style="fill:#9d3a9b;fill-opacity:0.98431402"
     inkscape:connector-curvature="0"
     id="path68"
     d="m 12,9 v 3 h 3 V 9 Z m 1,1 h 1 v 1 h -1 z" />
  <g
     id="g903"
     transform="matrix(0.79580466,0,0,0.79580466,2.0530036,1.7769748)"
     style="stroke-width:1.25658977">
    <path
       style="fill:#f0e3ec;stroke-width:0.23561056"
       inkscape:connector-curvature="0"
       id="path896"
       d="M 8.4481601,3.9999998 C 7.8665643,4.0059216 7.3417365,4.536284 7.3417312,5.1179098 V 14.68244 c 7.64e-5,0.661937 0.697809,1.229541 1.3458291,1.094523 l 2.3514807,-0.489431 1.016744,1.216389 c 0.29967,0.216613 0.710164,0.269754 1.055401,0.137347 h 4.36e-4 c 0.0028,-0.001 0.250298,-0.09327 0.521748,-0.245354 0.125732,-0.07045 0.300932,-0.174828 0.472848,-0.339327 0.08013,-0.07667 0.20695,-0.215273 0.299356,-0.400135 0.111818,-0.223688 -0.16866,-1.250077 -0.25602,-1.599514 -0.0084,-0.03331 -0.0457,-0.217197 -0.07229,-0.34443 l 1.561843,-1.055403 c 0.542826,-0.366814 0.629334,-1.248512 0.167963,-1.713647 L 9.2535316,4.3308229 C 9.0437319,4.1191855 8.746575,3.9970673 8.4485853,3.9999998 h -4.354e-4 z" />
    <path
       d="m 8.902735,4.8821517 c -0.500883,0.0051 -0.9528762,0.4618597 -0.9528808,0.9627685 v 8.2371828 c 6.58e-5,0.570074 0.6009684,1.058907 1.1590575,0.942627 l 2.0251463,-0.421509 0.875642,1.047581 c 0.258083,0.186552 0.611609,0.232318 0.908935,0.118286 h 3.75e-4 c 0.0024,-9e-4 0.215562,-0.08033 0.449341,-0.211304 0.108283,-0.06067 0.259169,-0.150566 0.407227,-0.292236 0.06901,-0.06603 0.17823,-0.185398 0.257812,-0.344605 0.0963,-0.192645 -0.145254,-1.076594 -0.22049,-1.377536 -0.0072,-0.02869 -0.03936,-0.187055 -0.06226,-0.296631 l 1.345093,-0.908936 c 0.467494,-0.315908 0.541996,-1.075246 0.144653,-1.47583 L 9.5963385,5.1670638 C 9.4156544,4.984797 9.1597364,4.8796262 8.9031012,4.8821517 h -3.75e-4 z"
       id="path74"
       inkscape:connector-curvature="0"
       style="fill:#e602b4;stroke-width:0.23561059" />
    <path
       d="m 9.0924323,6.2821762 v 7.5787348 l 2.2243647,-0.463256 c 0.04941,-0.0102 0.100841,8.25e-4 0.141724,0.0304 l 1.223902,1.247792 c 0.05357,-0.02221 0.11248,-0.04393 0.216431,-0.102172 0.07218,-0.04044 0.140453,-0.08705 0.175781,-0.12085 0.01135,-0.01086 0.01263,-0.01384 0.01648,-0.01904 -0.06015,-0.250904 -0.591821,-1.587636 -0.591821,-1.587636 -0.01424,-0.07099 0.0155,-0.143594 0.07544,-0.184204 l 1.701416,-1.149536 z"
       id="path76"
       inkscape:connector-curvature="0"
       style="fill:#f3b7d9;stroke-width:0.23561059" />
  </g>
</svg>
