<?xml version="1.0" encoding="UTF-8" standalone="no"?>
<svg
   xmlns:dc="http://purl.org/dc/elements/1.1/"
   xmlns:cc="http://creativecommons.org/ns#"
   xmlns:rdf="http://www.w3.org/1999/02/22-rdf-syntax-ns#"
   xmlns:svg="http://www.w3.org/2000/svg"
   xmlns="http://www.w3.org/2000/svg"
   xmlns:xlink="http://www.w3.org/1999/xlink"
   xmlns:sodipodi="http://sodipodi.sourceforge.net/DTD/sodipodi-0.dtd"
   xmlns:inkscape="http://www.inkscape.org/namespaces/inkscape"
   height="16"
   viewBox="0 0 4.2333333 4.2333335"
   width="16"
   version="1.1"
   id="svg90"
   sodipodi:docname="sc_color.svg"
   inkscape:version="0.92.4 (5da689c313, 2019-01-14)"
   inkscape:export-filename="/home/ing/Documents/PROJECT_SRIKANDI/3_272 (mba alita)/ikon utama/folder mba lil/sc_color.svg.png"
   inkscape:export-xdpi="96"
   inkscape:export-ydpi="96">
  <metadata
     id="metadata96">
    <rdf:RDF>
      <cc:Work
         rdf:about="">
        <dc:format>image/svg+xml</dc:format>
        <dc:type
           rdf:resource="http://purl.org/dc/dcmitype/StillImage" />
        <dc:title />
      </cc:Work>
    </rdf:RDF>
  </metadata>
  <defs
     id="defs94">
    <clipPath
       clipPathUnits="userSpaceOnUse"
       id="clipPath1075">
      <text
         id="text1079"
         y="4.1427546"
         x="6.609292"
         style="font-style:normal;font-variant:normal;font-weight:normal;font-stretch:normal;font-size:5.29166698px;line-height:1.25;font-family:Nunito;-inkscape-font-specification:Nunito;letter-spacing:0px;word-spacing:0px;fill:#000000;fill-opacity:1;stroke:none;stroke-width:0.26458332"
         xml:space="preserve"><tspan
           style="font-style:normal;font-variant:normal;font-weight:normal;font-stretch:normal;font-size:5.29166698px;font-family:Nunito;-inkscape-font-specification:Nunito;stroke-width:0.26458332"
           y="4.1427546"
           x="6.609292"
           id="tspan1077"
           sodipodi:role="line">A</tspan></text>
    </clipPath>
    <clipPath
       clipPathUnits="userSpaceOnUse"
       id="clipPath1123">
      <text
         id="text1127"
         y="3.2645371"
         x="7.3665709"
         style="font-style:normal;font-variant:normal;font-weight:bold;font-stretch:normal;font-size:3.14228821px;line-height:1.25;font-family:Nunito;-inkscape-font-specification:'Nunito Bold';letter-spacing:0px;word-spacing:0px;fill:#000000;fill-opacity:1;stroke:none;stroke-width:0.26458332"
         xml:space="preserve"><tspan
           style="font-style:normal;font-variant:normal;font-weight:bold;font-stretch:normal;font-size:3.14228821px;font-family:Nunito;-inkscape-font-specification:'Nunito Bold';stroke-width:0.26458332"
           y="3.2645371"
           x="7.3665709"
           id="tspan1125"
           sodipodi:role="line">A</tspan></text>
    </clipPath>
  </defs>
  <sodipodi:namedview
     pagecolor="#ffffff"
     bordercolor="#666666"
     borderopacity="1"
     objecttolerance="10"
     gridtolerance="10"
     guidetolerance="10"
     inkscape:pageopacity="0"
     inkscape:pageshadow="2"
     inkscape:window-width="1600"
     inkscape:window-height="836"
     id="namedview92"
     showgrid="true"
     inkscape:snap-smooth-nodes="true"
     inkscape:snap-center="true"
     inkscape:zoom="29.5"
     inkscape:cx="1.5505272"
     inkscape:cy="5.3706804"
     inkscape:window-x="0"
     inkscape:window-y="27"
     inkscape:window-maximized="1"
     inkscape:current-layer="svg90"
     inkscape:snap-object-midpoints="true">
    <inkscape:grid
       type="xygrid"
       id="grid903"
       spacingx="0.13229167"
       spacingy="0.13229167"
       empspacing="2" />
  </sodipodi:namedview>
  <radialGradient
     id="a"
     cx="51.767773"
     cy="14.017021"
     gradientTransform="matrix(1.72893,2e-8,0,0.08175904,-35.735084,6.887999)"
     gradientUnits="userSpaceOnUse"
     r="46"
     xlink:href="#b" />
  <linearGradient
     id="b">
    <stop
       offset="0"
       stop-color="#fff"
       id="stop3" />
    <stop
       offset="1"
       stop-color="#fff"
       stop-opacity="0"
       id="stop5" />
  </linearGradient>
  <radialGradient
     id="c"
     cx="50"
     cy="106.01698"
     gradientTransform="matrix(0.8043478,2.1e-7,-6e-8,0.2293229,11.782615,87.687866)"
     gradientUnits="userSpaceOnUse"
     r="46"
     xlink:href="#b" />
  <radialGradient
     id="d"
     cx="52"
     cy="98.397842"
     gradientTransform="matrix(1,0,0,1.1459883,2,-8.762777)"
     gradientUnits="userSpaceOnUse"
     r="41.838463">
    <stop
       offset="0"
       stop-color="#5e5e5e"
       id="stop9" />
    <stop
       offset="1"
       stop-opacity="0"
       id="stop11" />
  </radialGradient>
  <linearGradient
     id="e"
     gradientUnits="userSpaceOnUse"
     x1="62"
     x2="62"
     xlink:href="#b"
     y1="140"
     y2="28" />
  <filter
     id="f">
    <feGaussianBlur
       stdDeviation=".13617728"
       id="feGaussianBlur15" />
  </filter>
  <linearGradient
     id="g"
     gradientUnits="userSpaceOnUse"
     x1="91.095451"
     x2="96.487144"
     xlink:href="#b"
     y1="14.023225"
     y2="4.300506" />
  <filter
     id="h"
     height="1.317541"
     width="1.244662"
     x="-.122331"
     y="-.15877">
    <feGaussianBlur
       stdDeviation=".27482165"
       id="feGaussianBlur19" />
  </filter>
  <linearGradient
     id="i"
     gradientUnits="userSpaceOnUse"
     x1="12.518213"
     x2="12.518213"
     xlink:href="#b"
     y1="12.211263"
     y2="-1.444737" />
  <filter
     id="j"
     height="1.317541"
     width="1.271353"
     x="-.135676"
     y="-.15877">
    <feGaussianBlur
       stdDeviation=".27482165"
       id="feGaussianBlur23" />
  </filter>
  <linearGradient
     id="k"
     gradientUnits="userSpaceOnUse"
     x1="42"
     x2="58"
     xlink:href="#b"
     y1="-104"
     y2="64" />
  <linearGradient
     id="l"
     gradientUnits="userSpaceOnUse"
     x1="78.225001"
     x2="46.225001"
     xlink:href="#b"
     y1="63.975"
     y2="-32.025" />
  <linearGradient
     id="m"
     gradientUnits="userSpaceOnUse"
     x1="54.000002"
     x2="57.725"
     xlink:href="#b"
     y1="0"
     y2="63.975" />
  <linearGradient
     id="n"
     gradientUnits="userSpaceOnUse"
     x1="80.125"
     x2="76.8125"
     xlink:href="#b"
     y1="106.1875"
     y2="101.125" />
  <filter
     id="o"
     height="1.260297"
     width="1.097377"
     x="-.048689"
     y="-.130148">
    <feGaussianBlur
       stdDeviation=".17624262"
       id="feGaussianBlur30" />
  </filter>
  <linearGradient
     id="p"
     gradientUnits="userSpaceOnUse"
     x1="78.125"
     x2="74.8125"
     xlink:href="#b"
     y1="106.1875"
     y2="101.125" />
  <path
     style="fill:#f0e3ec;stroke:#e602b4;stroke-width:0.26458335px;stroke-linecap:round;stroke-linejoin:round;stroke-opacity:1"
     d="m 0.396875,0.88824403 c 0,-0.24568454 0.24568454,-0.49136906 0.49136906,-0.49136906 H 3.3450893 c 0.2456846,0 0.4913691,0.24568452 0.4913691,0.49136906 V 3.3450893 c 0,0.2456845 -0.2456845,0.4913691 -0.4913691,0.4913691 H 0.88824406 C 0.64255954,3.8364584 0.396875,3.5907738 0.396875,3.3450893 Z"
     id="path1129"
     inkscape:connector-curvature="0"
     sodipodi:nodetypes="ccccccccc" />
  <g
     transform="matrix(1.3938417,0,0,1.3938417,-9.7767234,-0.88573351)"
     id="g1105"
     style="stroke-width:0.71744156"
     clip-path="url(#clipPath1123)">
    <path
       style="opacity:1;fill:#ff6600;fill-opacity:1;stroke:none;stroke-width:0.09491158;stroke-linecap:round;stroke-linejoin:round;stroke-miterlimit:4;stroke-dasharray:none;stroke-opacity:1"
       d="m 8.5328127,0.66145831 a 0.79375005,0.79375005 0 0 0 -0.79375,0.79374999 0.79375005,0.79375005 0 0 0 0.79375,0.79375 A 0.79375005,0.79375005 0 0 1 8.2423912,1.1647868 0.79375005,0.79375005 0 0 1 8.9296877,0.76842853 0.79375005,0.79375005 0 0 0 8.5328127,0.66145831 Z"
       id="path1081"
       inkscape:connector-curvature="0" />
    <path
       style="opacity:1;fill:#ff9900;fill-opacity:1;stroke:none;stroke-width:0.09491158;stroke-linecap:round;stroke-linejoin:round;stroke-miterlimit:4;stroke-dasharray:none;stroke-opacity:1"
       d="M 8.8924807,0.76842853 A 0.79375005,0.79375005 0 0 0 8.2423912,1.1647868 0.79375005,0.79375005 0 0 0 8.5328127,2.2489583 0.79375005,0.79375005 0 0 1 8.8232342,1.1647868 0.79375005,0.79375005 0 0 1 9.6169842,1.1658203 0.79375005,0.79375005 0 0 0 9.3265627,0.87436522 0.79375005,0.79375005 0 0 0 8.8924807,0.76842853 Z"
       id="path1083"
       inkscape:connector-curvature="0" />
    <path
       style="opacity:1;fill:#ffcc00;fill-opacity:1;stroke:none;stroke-width:0.09491158;stroke-linecap:round;stroke-linejoin:round;stroke-miterlimit:4;stroke-dasharray:none;stroke-opacity:1"
       d="M 9.2015058,1.0583333 A 0.79375005,0.79375005 0 0 0 8.8232342,1.1647868 0.79375005,0.79375005 0 0 0 8.5328127,2.2489583 0.79375005,0.79375005 0 0 1 9.3270795,1.4557251 0.79375005,0.79375005 0 0 1 10.013343,1.8536336 0.79375005,0.79375005 0 0 0 9.9074057,1.4552083 0.79375005,0.79375005 0 0 0 9.2015058,1.0583333 Z"
       id="path1085"
       inkscape:connector-curvature="0" />
    <path
       style="opacity:1;fill:#669900;fill-opacity:1;stroke:none;stroke-width:0.09491158;stroke-linecap:round;stroke-linejoin:round;stroke-miterlimit:4;stroke-dasharray:none;stroke-opacity:1"
       d="M 9.3270795,1.4557251 A 0.79375005,0.79375005 0 0 0 8.5328127,2.2489583 0.79375005,0.79375005 0 0 1 9.6237023,1.984375 0.79375005,0.79375005 0 0 1 10.003524,2.6618531 0.79375005,0.79375005 0 0 0 10.120313,2.2499919 0.79375005,0.79375005 0 0 0 9.3270795,1.4557251 Z"
       id="path1087"
       inkscape:connector-curvature="0" />
    <path
       style="opacity:1;fill:#00cc00;fill-opacity:1;stroke:none;stroke-width:0.09491158;stroke-linecap:round;stroke-linejoin:round;stroke-miterlimit:4;stroke-dasharray:none;stroke-opacity:1"
       d="M 9.1922041,1.8686198 A 0.79375005,0.79375005 0 0 0 8.5328127,2.2489583 0.79375005,0.79375005 0 0 1 9.6237023,2.5135417 0.79375005,0.79375005 0 0 1 9.624219,3.3388144 0.79375005,0.79375005 0 0 0 9.8882856,3.0752646 0.79375005,0.79375005 0 0 0 9.6237023,1.984375 0.79375005,0.79375005 0 0 0 9.1922041,1.8686198 Z"
       id="path1089"
       inkscape:connector-curvature="0" />
    <path
       style="opacity:1;fill:#99cc33;fill-opacity:1;stroke:none;stroke-width:0.09491158;stroke-linecap:round;stroke-linejoin:round;stroke-miterlimit:4;stroke-dasharray:none;stroke-opacity:1"
       d="M 8.9085004,2.1337199 A 0.79375005,0.79375005 0 0 0 8.5328127,2.2489583 0.79375005,0.79375005 0 0 1 9.3270795,3.0421916 0.79375005,0.79375005 0 0 1 8.9467409,3.7196697 0.79375005,0.79375005 0 0 0 9.3591189,3.6044312 0.79375005,0.79375005 0 0 0 9.6237023,2.5135417 0.79375005,0.79375005 0 0 0 8.9085004,2.1337199 Z"
       id="path1091"
       inkscape:connector-curvature="0" />
    <path
       style="opacity:1;fill:#6699ff;fill-opacity:1;stroke:none;stroke-width:0.09491158;stroke-linecap:round;stroke-linejoin:round;stroke-miterlimit:4;stroke-dasharray:none;stroke-opacity:1"
       d="M 8.5328127,2.2489583 A 0.79375005,0.79375005 0 0 1 8.8232342,3.3331299 0.79375005,0.79375005 0 0 1 8.1359377,3.7294881 0.79375005,0.79375005 0 0 0 8.5343629,3.8364584 0.79375005,0.79375005 0 0 0 9.3270795,3.0421916 0.79375005,0.79375005 0 0 0 8.5328127,2.2489583 Z"
       id="path1093"
       inkscape:connector-curvature="0" />
    <path
       style="opacity:1;fill:#3366cc;fill-opacity:1;stroke:none;stroke-width:0.09491158;stroke-linecap:round;stroke-linejoin:round;stroke-miterlimit:4;stroke-dasharray:none;stroke-opacity:1"
       d="M 8.5328127,2.2489583 A 0.79375005,0.79375005 0 0 1 8.2423912,3.3331299 0.79375005,0.79375005 0 0 1 7.4486412,3.3320964 0.79375005,0.79375005 0 0 0 7.7390627,3.6235514 0.79375005,0.79375005 0 0 0 8.8232342,3.3331299 0.79375005,0.79375005 0 0 0 8.5328127,2.2489583 Z"
       id="path1095"
       inkscape:connector-curvature="0" />
    <path
       style="opacity:1;fill:#003399;fill-opacity:1;stroke:none;stroke-width:0.09491158;stroke-linecap:round;stroke-linejoin:round;stroke-miterlimit:4;stroke-dasharray:none;stroke-opacity:1"
       d="M 8.5328127,2.2489583 A 0.79375005,0.79375005 0 0 1 7.738546,3.0421916 0.79375005,0.79375005 0 0 1 7.0522829,2.6442831 0.79375005,0.79375005 0 0 0 7.1582197,3.0427084 0.79375005,0.79375005 0 0 0 8.2423912,3.3331299 0.79375005,0.79375005 0 0 0 8.5328127,2.2489583 Z"
       id="path1097"
       inkscape:connector-curvature="0" />
    <path
       style="opacity:1;fill:#2c0059;fill-opacity:1;stroke:none;stroke-width:0.09491158;stroke-linecap:round;stroke-linejoin:round;stroke-miterlimit:4;stroke-dasharray:none;stroke-opacity:1"
       d="m 7.0522829,1.8520833 a 0.79375005,0.79375005 0 0 0 -0.1069702,0.396875 0.79375005,0.79375005 0 0 0 0.79375,0.7937501 0.79375005,0.79375005 0 0 0 0.79375,-0.7937501 A 0.79375005,0.79375005 0 0 1 7.4486412,2.5393799 0.79375005,0.79375005 0 0 1 7.0522829,1.8520833 Z"
       id="path1099"
       inkscape:connector-curvature="0" />
    <path
       style="opacity:1;fill:#730055;fill-opacity:1;stroke:none;stroke-width:0.09491158;stroke-linecap:round;stroke-linejoin:round;stroke-miterlimit:4;stroke-dasharray:none;stroke-opacity:1"
       d="M 7.4496747,1.1647868 A 0.79375005,0.79375005 0 0 0 7.1582197,1.4552083 0.79375005,0.79375005 0 0 0 7.4486412,2.5393799 0.79375005,0.79375005 0 0 0 8.5328127,2.2489583 0.79375005,0.79375005 0 0 1 7.4486412,1.9585368 a 0.79375005,0.79375005 0 0 1 0.00103,-0.79375 z"
       id="path1101"
       inkscape:connector-curvature="0" />
    <path
       style="opacity:1;fill:#cc0000;fill-opacity:1;stroke:none;stroke-width:0.09491158;stroke-linecap:round;stroke-linejoin:round;stroke-miterlimit:4;stroke-dasharray:none;stroke-opacity:1"
       d="M 8.1173343,0.76791178 A 0.79375005,0.79375005 0 0 0 7.7390627,0.87436522 0.79375005,0.79375005 0 0 0 7.4486412,1.9585368 0.79375005,0.79375005 0 0 0 8.5328127,2.2489583 0.79375005,0.79375005 0 0 1 7.7390627,1.4552083 0.79375005,0.79375005 0 0 1 8.1369712,0.76842853 0.79375005,0.79375005 0 0 0 8.1173343,0.76791178 Z"
       id="path1103"
       inkscape:connector-curvature="0" />
  </g>
</svg>
