<?xml version="1.0" encoding="UTF-8" standalone="no"?>
<svg
   xmlns:dc="http://purl.org/dc/elements/1.1/"
   xmlns:cc="http://creativecommons.org/ns#"
   xmlns:rdf="http://www.w3.org/1999/02/22-rdf-syntax-ns#"
   xmlns:svg="http://www.w3.org/2000/svg"
   xmlns="http://www.w3.org/2000/svg"
   xmlns:sodipodi="http://sodipodi.sourceforge.net/DTD/sodipodi-0.dtd"
   xmlns:inkscape="http://www.inkscape.org/namespaces/inkscape"
   height="16"
   viewBox="0 0 16 16"
   width="16"
   version="1.1"
   id="svg26"
   sodipodi:docname="sc_calloutshapes.cloud-callout.svg"
   inkscape:version="0.92.4 (unknown)">
  <metadata
     id="metadata32">
    <rdf:RDF>
      <cc:Work
         rdf:about="">
        <dc:format>image/svg+xml</dc:format>
        <dc:type
           rdf:resource="http://purl.org/dc/dcmitype/StillImage" />
      </cc:Work>
    </rdf:RDF>
  </metadata>
  <defs
     id="defs30" />
  <sodipodi:namedview
     pagecolor="#ffffff"
     bordercolor="#666666"
     borderopacity="1"
     objecttolerance="10"
     gridtolerance="10"
     guidetolerance="10"
     inkscape:pageopacity="0"
     inkscape:pageshadow="2"
     inkscape:window-width="1366"
     inkscape:window-height="707"
     id="namedview28"
     showgrid="true"
     inkscape:zoom="14.75"
     inkscape:cx="0.13559322"
     inkscape:cy="8"
     inkscape:window-x="0"
     inkscape:window-y="0"
     inkscape:window-maximized="1"
     inkscape:current-layer="svg26">
    <inkscape:grid
       type="xygrid"
       id="grid839" />
  </sodipodi:namedview>
  <linearGradient
     id="a"
     gradientUnits="userSpaceOnUse"
     x1="56"
     x2="64"
     y1="128"
     y2="0"
     gradientTransform="scale(0.125)">
    <stop
       offset="0"
       stop-color="#fff"
       id="stop2" />
    <stop
       offset=".59375"
       stop-color="#fff"
       id="stop4" />
    <stop
       offset=".84375"
       stop-color="#f1f1f1"
       id="stop6" />
    <stop
       offset=".90625"
       stop-color="#eaeaea"
       id="stop8" />
    <stop
       offset="1"
       stop-color="#dfdfdf"
       id="stop10" />
  </linearGradient>
  <linearGradient
     id="b"
     gradientUnits="userSpaceOnUse"
     x1="11.96461"
     x2="114.45124"
     y1="62.868782"
     y2="62.868782"
     gradientTransform="scale(0.125)">
    <stop
       offset="0"
       stop-color="#7c9fcf"
       id="stop13" />
    <stop
       offset=".5"
       stop-color="#7c9ece"
       id="stop15" />
    <stop
       offset="1"
       stop-color="#7b9dcf"
       id="stop17" />
  </linearGradient>
  <path
     style="fill:#e602b4;stroke-width:0.125"
     inkscape:connector-curvature="0"
     id="path20"
     d="M 10.494629,0.96386719 C 10.205339,0.96436969 9.9219828,1.0214813 9.6560059,1.1242676 9.4790034,1.071112 9.2959732,1.0346369 9.1071778,1.0344238 a 1.0913572,1.0913572 0 0 0 -0.00195,0 c -0.4955764,3.6e-4 -0.9296956,0.2036921 -1.2800294,0.5039063 -0.3318339,-0.03674 -0.669311,-0.00425 -0.9946289,0.089355 a 1.0913572,1.0913572 0 0 0 -0.00147,2.5e-4 C 6.6961071,1.666406 6.573494,1.7294315 6.4489739,1.7878475 6.1957282,1.7028419 5.9327427,1.6475319 5.6618645,1.63233 a 1.0913572,1.0913572 0 0 0 -0.00195,0 C 5.0528556,1.5994497 4.4569176,1.7537849 3.9802233,2.1225644 3.6664851,2.3652779 3.4275538,2.7236671 3.2963854,3.1228085 2.9285474,3.4739654 2.7025871,3.959839 2.6555162,4.4689999 2.4944177,4.5504295 2.3398623,4.645342 2.2001939,4.7658749 1.7140315,5.1854302 1.4219636,5.889104 1.5117174,6.571539 a 1.0913572,1.0913572 0 0 0 2.5e-4,9.75e-4 C 1.5576741,6.9175965 1.6853737,7.2252396 1.860356,7.5000042 1.4966832,8.2908999 1.5082476,9.2412778 2.0683639,9.9516644 a 1.0913572,1.0913572 0 0 0 0.0022,0.00293 c 0.297722,0.3751556 0.6875287,0.6391356 1.1174316,0.8105466 0.00188,0.0029 0.00373,0.0057 0.00561,0.0085 -0.260678,0.366212 -0.3769048,0.876086 -0.3017578,1.355225 -0.066259,0.06367 -0.1307483,0.130647 -0.1879883,0.209961 -0.2688548,0.372533 -0.3507739,0.976868 -0.1450195,1.431153 0.411316,0.908271 1.2321077,1.088712 2.0026856,0.933594 0.3854506,-0.07756 0.7649602,-0.270612 1.0339355,-0.643067 0.046672,-0.06463 0.079613,-0.143373 0.114502,-0.219971 0.050368,-0.0073 0.100869,-0.0024 0.151123,-0.01245 a 1.0913572,1.0913572 0 0 0 0.00146,-2.5e-4 c 0.5608761,-0.112945 1.0758127,-0.389783 1.421875,-0.869141 0.088953,-0.123215 0.160091,-0.264072 0.2145996,-0.414063 0.152241,0.03153 0.3018225,0.07353 0.4611816,0.07373 a 1.0913572,1.0913572 0 0 0 0.00146,0 c 0.8153803,-2.4e-5 1.538519,-0.432763 1.9584962,-1.076173 0.062909,0.0052 0.1241606,0.01969 0.1877436,0.01977 a 1.0913572,1.0913572 0 0 0 0.0015,0 c 1.094564,-3.1e-5 2.023339,-0.778071 2.27124,-1.8032224 0.247959,-0.1016031 0.485617,-0.2295224 0.702637,-0.3923339 a 1.0913572,1.0913572 0 0 0 0.0015,-9.75e-4 c 1.217255,-0.9161749 1.649099,-2.6547815 0.720704,-3.8996582 0.1548,-0.7284341 0.03697,-1.50288 -0.427735,-2.1213379 a 1.0913572,1.0913572 0 0 0 -0.0013,-0.00171 C 13.206691,3.1177366 13.000149,2.9260819 12.769288,2.7712403 12.522884,1.743867 11.59253,0.96372826 10.496338,0.96386719 a 1.0913572,1.0913572 0 0 0 -0.0017,0 z" />
  <path
     style="fill:#f0e3ec;stroke-width:0.125"
     inkscape:connector-curvature="0"
     id="path22"
     d="M 10.496695,2.055229 C 10.201425,2.0557415 9.9158669,2.1607541 9.6906216,2.3516709 9.519235,2.2047804 9.3151255,2.1258798 9.1059075,2.1256436 8.7277953,2.1259186 8.3807611,2.3819514 8.2039381,2.7910819 7.9063018,2.6102984 7.5094961,2.5678015 7.1323511,2.6763176 6.9017626,2.7430191 6.6917489,2.8625445 6.5274074,3.0206104 6.2494782,2.8450446 5.9240335,2.7401618 5.600929,2.7220289 4.838219,2.6807179 4.2640306,3.1247614 4.275888,3.7467375 3.8754623,3.9460225 3.6657518,4.3207104 3.7205458,4.7389621 c 0.025109,0.1906071 0.104196,0.3814954 0.23089,0.5572875 -0.013561,-0.00145 -0.027114,-0.00275 -0.040654,-0.00389 C 3.0949979,5.24795 2.5053083,5.7569068 2.5937163,6.4291094 2.6421554,6.7948211 2.8875691,7.151871 3.2620721,7.4014934 2.6147034,7.9312414 2.4755074,8.70574 2.925171,9.2760413 3.155047,9.5657054 3.516217,9.7730425 3.9454057,9.861728 c 0.043769,0.142825 0.1152254,0.27774 0.2120223,0.400313 0.2622229,0.330666 0.6939649,0.552388 1.1984113,0.615448 l -0.033846,0.0603 c -0.1646763,-0.01324 -0.3298551,-0.0039 -0.4866784,0.02743 -0.6803836,0.137123 -1.050219,0.64951 -0.8261081,1.144532 0.066778,0.14674 0.1820657,0.281198 0.3357341,0.391559 -0.029626,0.09601 -0.05572,0.178635 -0.083253,0.259485 -0.1030089,-0.01694 -0.2090549,-0.01534 -0.308502,0.0047 -0.3295748,0.0664 -0.5087154,0.3146 -0.4001188,0.55437 0.108567,0.239739 0.4636868,0.380288 0.7932352,0.313949 0.3296574,-0.06634 0.5088992,-0.314559 0.4003132,-0.55437 -0.0214,-0.04662 -0.052993,-0.09083 -0.093562,-0.130909 L 4.840178,12.73026 c 0.2621766,0.07048 0.544876,0.08023 0.8070457,0.02782 C 6.3278318,12.62102 6.6978035,12.108478 6.4735264,11.613349 6.4116085,11.477498 6.3080438,11.35205 6.1706655,11.246488 l 0.6121409,-0.558065 c 0.1748387,0.501583 0.6475836,0.837887 1.1787651,0.838557 0.6903245,-2e-5 1.2499381,-0.559634 1.249958,-1.249958 -4.11e-5,-0.06922 -0.00583,-0.138315 -0.017312,-0.206576 0.2361732,0.254831 0.5677539,0.399867 0.9151965,0.400313 0.690324,-1.9e-5 1.249938,-0.5596331 1.249958,-1.2499575 -1.88e-4,-0.1087774 -0.01457,-0.2170647 -0.04279,-0.322118 0.39159,-0.015784 0.7832,-0.1584245 1.111848,-0.4049817 C 13.236351,7.8856149 13.45999,6.8195911 12.927946,6.112635 12.824386,5.9763849 12.696525,5.8599504 12.549225,5.7677588 12.890099,5.1752974 12.873114,4.4893007 12.505459,4 12.316706,3.7498056 12.048215,3.5683545 11.733231,3.4781143 c 0.0085,-0.057257 0.01309,-0.1150372 0.01362,-0.1729244 -2e-5,-0.6904004 -0.559752,-1.2500454 -1.250152,-1.2499579 z" />
</svg>
