<?xml version="1.0" encoding="UTF-8" standalone="no"?>
<svg
   xmlns:dc="http://purl.org/dc/elements/1.1/"
   xmlns:cc="http://creativecommons.org/ns#"
   xmlns:rdf="http://www.w3.org/1999/02/22-rdf-syntax-ns#"
   xmlns:svg="http://www.w3.org/2000/svg"
   xmlns="http://www.w3.org/2000/svg"
   xmlns:sodipodi="http://sodipodi.sourceforge.net/DTD/sodipodi-0.dtd"
   xmlns:inkscape="http://www.inkscape.org/namespaces/inkscape"
   height="16"
   width="16"
   version="1.1"
   id="svg61"
   sodipodi:docname="sc_datadatapilotrun.svg"
   inkscape:version="0.92.3 (2405546, 2018-03-11)">
  <metadata
     id="metadata67">
    <rdf:RDF>
      <cc:Work
         rdf:about="">
        <dc:format>image/svg+xml</dc:format>
        <dc:type
           rdf:resource="http://purl.org/dc/dcmitype/StillImage" />
        <dc:title></dc:title>
      </cc:Work>
    </rdf:RDF>
  </metadata>
  <defs
     id="defs65" />
  <sodipodi:namedview
     pagecolor="#ffffff"
     bordercolor="#666666"
     borderopacity="1"
     objecttolerance="10"
     gridtolerance="10"
     guidetolerance="10"
     inkscape:pageopacity="0"
     inkscape:pageshadow="2"
     inkscape:window-width="1366"
     inkscape:window-height="705"
     id="namedview63"
     showgrid="true"
     inkscape:zoom="29.5"
     inkscape:cx="6.2516619"
     inkscape:cy="7.4628461"
     inkscape:window-x="-8"
     inkscape:window-y="-8"
     inkscape:window-maximized="1"
     inkscape:current-layer="svg61">
    <inkscape:grid
       type="xygrid"
       id="grid877" />
  </sodipodi:namedview>
  <linearGradient
     id="a"
     gradientTransform="matrix(.30523238 0 0 1.3043803 6.372135 -.351998)"
     gradientUnits="userSpaceOnUse"
     x1="46.048"
     x2="46.048"
     y1="128.01709"
     y2="16.6203">
    <stop
       offset="0"
       stop-color="#c7cdd7"
       id="stop2" />
    <stop
       offset="1"
       stop-color="#fff"
       id="stop4" />
  </linearGradient>
  <linearGradient
     id="b"
     gradientUnits="userSpaceOnUse"
     x1="67.266975"
     x2="67.266975"
     y1="288.20084"
     y2="-56">
    <stop
       offset="0"
       id="stop7" />
    <stop
       offset="1"
       stop-color="#fff"
       id="stop9" />
  </linearGradient>
  <linearGradient
     id="c"
     gradientTransform="matrix(-1 0 0 1 154.9807 67.757363)"
     gradientUnits="userSpaceOnUse"
     x1="71.227066"
     x2="28.9296"
     y1="10.599652"
     y2="70.897705">
    <stop
       offset="0"
       stop-color="#bbd6ff"
       id="stop12" />
    <stop
       offset="1"
       stop-color="#0057ae"
       id="stop14" />
  </linearGradient>
  <linearGradient
     id="d"
     gradientTransform="matrix(1.037037 0 0 1.2158938 -.296299 -21.49932)"
     gradientUnits="userSpaceOnUse"
     x1="8"
     x2="80"
     y1="36"
     y2="112">
    <stop
       offset="0"
       stop-color="#c8ffa5"
       id="stop17" />
    <stop
       offset="1"
       stop-color="#dfffcb"
       id="stop19" />
  </linearGradient>
  <linearGradient
     id="e"
     gradientUnits="userSpaceOnUse"
     x1="67.266975"
     x2="67.266975"
     y1="288.20084"
     y2="-56">
    <stop
       offset="0"
       stop-color="#48940b"
       stop-opacity=".831373"
       id="stop22" />
    <stop
       offset="1"
       stop-color="#48940b"
       stop-opacity=".831373"
       id="stop24" />
  </linearGradient>
  <linearGradient
     id="f"
     gradientTransform="matrix(5.4921716 0 0 -5.4921716 -467.24293 446.32459)"
     gradientUnits="userSpaceOnUse"
     x1="101.99715"
     x2="104"
     y1="83.220375"
     y2="57.11084">
    <stop
       offset="0"
       stop-color="#d4e2f3"
       id="stop27" />
    <stop
       offset="1"
       stop-color="#fff"
       stop-opacity="0"
       id="stop29" />
  </linearGradient>
  <linearGradient
     id="g"
     gradientUnits="userSpaceOnUse"
     x1="46.825066"
     x2="123.00084"
     y1="77.669472"
     y2="77.669472">
    <stop
       offset="0"
       stop-color="#2c72c7"
       id="stop32" />
    <stop
       offset="1"
       stop-color="#00438a"
       id="stop34" />
  </linearGradient>
  <g
     id="g904">
    <path
       d="M 1,1 H 4.9679222 V 14.060662 H 1 Z"
       id="path37"
       inkscape:connector-curvature="0"
       style="fill:#f0e3ec;stroke-width:0.125" />
    <path
       d="M 0,1 V 1.5883789 4 4.5 7 7.5249024 10 10.5 13.51416 14 H 1 5 6 6.00488 V 13.51416 H 6 V 10.5 H 6.00488 V 10 H 6 V 7.5249024 H 6.00488 V 7 H 6 V 4.5 H 6.00488 V 4.4873047 H 16 V 1 H 1 Z M 1,1.5883789 H 5 V 4 H 1 Z m 5,0 h 4 V 4 H 6 Z m 5,0 h 4 V 4 H 11 Z M 1,4.5 H 5 V 7 H 1 Z M 1,7.5249024 H 5 V 10 H 1 Z M 1,10.5 h 4 v 3.01416 H 1 Z"
       id="path41"
       inkscape:connector-curvature="0"
       style="fill:#9d3a9b;fill-opacity:1;stroke-width:0.125" />
    <path
       d="M 1,1.5682125 H 15 V 4 H 1 Z"
       id="path43"
       inkscape:connector-curvature="0"
       style="fill:#f3b7d9;fill-opacity:1;stroke-width:0.125" />
    <path
       d="M 0,1 V 1.5883789 4 4.5 H 1 5 6 6.00488 V 4.4873047 H 16 V 1 H 1 Z M 1,1.5883789 H 5 V 4 H 1 Z m 5,0 h 4 V 4 H 6 Z m 5,0 h 4 V 4 h -4 z"
       id="path45"
       inkscape:connector-curvature="0"
       style="fill:#9d3a9b;fill-opacity:0.83137297;stroke-width:0.125" />
    <g
       transform="matrix(0.13536395,0,0,0.13536395,-1.3372226,-1.6067151)"
       id="g57">
      <path
         d="m 103.00085,39.581578 -20.000003,24 16,-3.824219 c 4.320943,36.554361 -15.129056,32.049812 -32,32 l 3.824219,-16 -24,20 24,20.000001 -3.824219,-16 c 29.28178,3.57202 44.038973,-8.252026 40.000003,-40.000001 l 16,3.824219 z"
         id="path49"
         inkscape:connector-curvature="0"
         style="fill:#e602b4;fill-opacity:1;stroke:#d90bb0;stroke-width:10;stroke-linecap:round;stroke-linejoin:round;stroke-opacity:1" />
      <g
         id="g55"
         style="fill-rule:evenodd">
        <path
           d="m 103.00085,39.581578 -20.000003,24 16,-3.824219 c 4.320943,36.554361 -15.129056,32.049812 -32,32 l 3.824219,-16 -24,20 24,20.000001 -3.824219,-16 c 29.28178,3.57202 44.038973,-8.252026 40.000003,-40.000001 l 16,3.824219 z"
           id="path51"
           inkscape:connector-curvature="0"
           style="fill:#f3b7d9" />
      </g>
    </g>
  </g>
</svg>
