<?xml version="1.0" encoding="UTF-8" standalone="no"?>
<svg
   xmlns:dc="http://purl.org/dc/elements/1.1/"
   xmlns:cc="http://creativecommons.org/ns#"
   xmlns:rdf="http://www.w3.org/1999/02/22-rdf-syntax-ns#"
   xmlns:svg="http://www.w3.org/2000/svg"
   xmlns="http://www.w3.org/2000/svg"
   xmlns:xlink="http://www.w3.org/1999/xlink"
   xmlns:sodipodi="http://sodipodi.sourceforge.net/DTD/sodipodi-0.dtd"
   xmlns:inkscape="http://www.inkscape.org/namespaces/inkscape"
   height="16"
   viewBox="0 0 4.2333333 4.2333335"
   width="16"
   version="1.1"
   id="svg81"
   sodipodi:docname="sc_dataconsolidate.svg"
   inkscape:version="0.92.3 (2405546, 2018-03-11)">
  <metadata
     id="metadata87">
    <rdf:RDF>
      <cc:Work
         rdf:about="">
        <dc:format>image/svg+xml</dc:format>
        <dc:type
           rdf:resource="http://purl.org/dc/dcmitype/StillImage" />
        <dc:title></dc:title>
      </cc:Work>
    </rdf:RDF>
  </metadata>
  <defs
     id="defs85" />
  <sodipodi:namedview
     pagecolor="#ffffff"
     bordercolor="#666666"
     borderopacity="1"
     objecttolerance="10"
     gridtolerance="10"
     guidetolerance="10"
     inkscape:pageopacity="0"
     inkscape:pageshadow="2"
     inkscape:window-width="1366"
     inkscape:window-height="705"
     id="namedview83"
     showgrid="true"
     showguides="false"
     inkscape:zoom="29.5"
     inkscape:cx="6.4955144"
     inkscape:cy="8.7817606"
     inkscape:window-x="-8"
     inkscape:window-y="-8"
     inkscape:window-maximized="1"
     inkscape:current-layer="svg81">
    <inkscape:grid
       type="xygrid"
       id="grid894" />
  </sodipodi:namedview>
  <linearGradient
     id="a"
     gradientTransform="translate(0 8.000013)"
     gradientUnits="userSpaceOnUse"
     x1="72"
     x2="67.266975"
     xlink:href="#b"
     y1="159.99998"
     y2="-35.950958" />
  <radialGradient
     id="b"
     cx="265.3931"
     cy="-6078.353"
     fx="369.5242"
     gradientTransform="matrix(.183616 0 0 -.01462967 -.962917 -7.25873)"
     gradientUnits="userSpaceOnUse"
     r="253.01871">
    <stop
       offset="0"
       id="stop3" />
    <stop
       offset="1"
       stop-color="#fff"
       id="stop5" />
  </radialGradient>
  <linearGradient
     id="c"
     gradientTransform="matrix(.08141228 0 0 .10353495 1.682479 267.5504)"
     gradientUnits="userSpaceOnUse"
     x1="46.048"
     x2="46.048"
     xlink:href="#d"
     y1="128.01709"
     y2="16.6203" />
  <linearGradient
     id="d">
    <stop
       offset="0"
       stop-color="#c7cdd7"
       id="stop9" />
    <stop
       offset="1"
       stop-color="#fff"
       id="stop11" />
  </linearGradient>
  <linearGradient
     id="e"
     gradientTransform="matrix(.08141228 0 0 .10353495 1.682478 280.23989)"
     gradientUnits="userSpaceOnUse"
     x1="46.048"
     x2="46.048"
     xlink:href="#d"
     y1="128.01709"
     y2="16.6203" />
  <linearGradient
     id="f"
     gradientTransform="matrix(.08141228 0 0 .10353495 22.849148 273.89866)"
     gradientUnits="userSpaceOnUse"
     x1="46.048"
     x2="46.048"
     xlink:href="#d"
     y1="128.01709"
     y2="16.6203" />
  <linearGradient
     id="g"
     gradientTransform="translate(0 8.000013)"
     gradientUnits="userSpaceOnUse"
     x1="64"
     x2="67.266975"
     xlink:href="#b"
     y1="175.99998"
     y2="-35.950958" />
  <linearGradient
     id="h"
     gradientTransform="translate(0 8.000013)"
     gradientUnits="userSpaceOnUse"
     x1="64.000008"
     x2="67.266975"
     xlink:href="#b"
     y1="199.95621"
     y2="-35.950958" />
  <linearGradient
     id="i"
     gradientTransform="matrix(.26458333 0 0 -.26458333 -5.30106 286.41665)"
     gradientUnits="userSpaceOnUse"
     x1="113.15723"
     x2="32.035503"
     y1="25.786163"
     y2="23.999985">
    <stop
       offset="0"
       stop-color="#0968ef"
       id="stop18" />
    <stop
       offset="1"
       stop-color="#aecffc"
       id="stop20" />
  </linearGradient>
  <linearGradient
     id="j"
     gradientUnits="userSpaceOnUse"
     x1="30.588758"
     x2="32.056913"
     y1="275.882553"
     y2="281.361784">
    <stop
       offset="0"
       stop-color="#fff"
       id="stop23" />
    <stop
       offset="1"
       stop-color="#fff"
       stop-opacity="0"
       id="stop25" />
  </linearGradient>
  <radialGradient
     id="k"
     cx="71.942093"
     cy="23.085808"
     gradientTransform="matrix(4.2766232 -.06879796 .08639685 5.3706053 -279.64433 162.83805)"
     gradientUnits="userSpaceOnUse"
     r="1.265237"
     xlink:href="#l" />
  <linearGradient
     id="l">
    <stop
       offset="0"
       stop-color="#fd0000"
       id="stop29" />
    <stop
       offset="1"
       stop-color="#8f0000"
       id="stop31" />
  </linearGradient>
  <linearGradient
     id="m"
     gradientUnits="userSpaceOnUse"
     x1="31.749992"
     x2="32.808318"
     xlink:href="#l"
     y1="273.716647"
     y2="283.241648" />
  <g
     id="g918">
    <g
       style="stroke-width:0.26458299"
       id="g41"
       transform="matrix(0.125,0,0,0.125,-0.132291,-33.156314)">
      <rect
         style="fill:#e602b4"
         id="rect35"
         y="276.89166"
         x="24.341661"
         width="10.583334"
         rx="0.595312"
         height="8.4666672" />
      <rect
         style="fill:#f3b7d9;fill-opacity:1"
         id="rect37"
         y="277.95001"
         x="25.399994"
         width="8.4666662"
         rx="0.39687499"
         height="6.3499851" />
    </g>
    <g
       id="g47"
       transform="matrix(0.125,0,0,0.125,-2.910417,-33.420763)">
      <path
         style="fill:#e602b4;fill-opacity:1"
         inkscape:connector-curvature="0"
         id="path43"
         transform="matrix(0.26458333,0,0,0.26458333,0,263.13332)"
         d="m 88.000002,47.999999 v 3.996094 0.0039 20 l 4e-6,8 L 128,80 V 48 h -8 l -23.999998,-10e-7 z m 8.000003,8 L 120,56 v 16 l -23.999998,-10e-7 z" />
      <path
         style="fill:#f3b7d9"
         inkscape:connector-curvature="0"
         id="path45"
         d="m 25.400001,277.94715 h 6.35 l -1e-6,4.23439 H 25.4 Z" />
    </g>
    <g
       id="g53"
       transform="matrix(0.125,0,0,0.125,0,-33.685347)">
      <path
         style="fill:#f3b7d9"
         inkscape:connector-curvature="0"
         id="path49"
         d="m 2.1166668,271.59892 h 6.3499999 v 4.2344 H 2.1166668 Z" />
      <path
         style="fill:#e602b4;fill-opacity:1"
         inkscape:connector-curvature="0"
         id="path51"
         transform="matrix(0.26458333,0,0,0.26458333,0,263.13332)"
         d="m 0,24 v 4 20 l 1.3e-7,8 40.00000087,-10e-7 v -8 -20 -4 L 8,24 Z m 7.9999999,7.999999 24.0000011,-10e-7 V 47.999999 L 8,48 Z" />
    </g>
    <g
       id="g59"
       transform="matrix(0.125,0,0,0.125,0,-33.154732)">
      <path
         style="fill:#f3b7d9"
         inkscape:connector-curvature="0"
         id="path55"
         d="m 2.1166668,284.2884 h 6.3500009 v 4.23439 H 2.1166668 Z" />
      <path
         style="fill:#e602b4;fill-opacity:1"
         inkscape:connector-curvature="0"
         id="path57"
         transform="matrix(0.26458333,0,0,0.26458333,0,263.13332)"
         d="m 0,72 v 4 L 1.13e-6,96.000001 2.7e-7,104 h 7.99999993 24.0000008 8 l 1e-6,-7.999999 L 40.000001,76 V 75.943359 72 h -8 H 8 Z m 7.9999999,8 H 32.000001 l 1e-6,16.000001 H 8.0000011 Z" />
    </g>
    <g
       id="g65"
       transform="matrix(0.125,0,0,0.125,0,-32.09798)">
      <path
         style="fill:#f3b7d9"
         inkscape:connector-curvature="0"
         id="path61"
         d="m 2.1166668,284.2884 h 6.3500009 v 4.23439 H 2.1166668 Z" />
      <path
         style="fill:#e602b4;fill-opacity:1"
         inkscape:connector-curvature="0"
         id="path63"
         transform="matrix(0.26458333,0,0,0.26458333,0,263.13332)"
         d="m 0,72 v 4 L 1.13e-6,96.000001 2.7e-7,104 h 7.99999993 24.0000008 8 l 1e-6,-7.999999 L 40.000001,76 V 75.943359 72 h -8 H 8 Z m 7.9999999,8 H 32.000001 l 1e-6,16.000001 H 8.0000011 Z" />
    </g>
    <g
       style="stroke-width:0.26458299"
       id="g79"
       transform="matrix(0.125,0,0,0.125,0,-32.89173)">
      <path
         style="fill:#9d3a9b;fill-opacity:1"
         inkscape:connector-curvature="0"
         id="path67"
         d="m 23.31521,279.00831 -6.35,5.29167 -1.05168,-1.05167 2.06342,-3.18166 h -7.393617 v -2.11667 h 7.393617 l -2.06342,-3.12841 1.05168,-1.10492 z" />
      <g
         style="fill:none;stroke:#8f8f8f"
         id="g77">
        <path
           style="stroke:#9d3a9b;stroke-opacity:1"
           inkscape:connector-curvature="0"
           id="path69"
           d="m 3.2080729,267.39973 1.0252601,-1.09141 1.0583333,1.05833 1.0583334,-1.05833 1.0583333,1.05833" />
        <path
           style="stroke:#9d3a9b;stroke-opacity:1"
           inkscape:connector-curvature="0"
           id="path71"
           d="m 3.2080731,275.8664 1.0252601,-1.09141 1.0583333,1.05833 1.0583334,-1.05833 1.0583333,1.05833" />
        <path
           style="stroke:#9d3a9b;stroke-opacity:1"
           inkscape:connector-curvature="0"
           id="path73"
           d="m 3.2080731,284.33307 1.0252601,-1.09141 1.0583333,1.05833 1.0583334,-1.05833 1.0583333,1.05833" />
        <path
           style="stroke:#9d3a9b;stroke-opacity:1"
           inkscape:connector-curvature="0"
           id="path75"
           d="m 3.2080731,292.79973 1.0252601,-1.09141 1.0583333,1.05833 1.0583334,-1.05833 1.0583333,1.05833" />
      </g>
    </g>
  </g>
</svg>
