<?xml version="1.0" encoding="UTF-8" standalone="no"?>
<svg
   xmlns:dc="http://purl.org/dc/elements/1.1/"
   xmlns:cc="http://creativecommons.org/ns#"
   xmlns:rdf="http://www.w3.org/1999/02/22-rdf-syntax-ns#"
   xmlns:svg="http://www.w3.org/2000/svg"
   xmlns="http://www.w3.org/2000/svg"
   xmlns:xlink="http://www.w3.org/1999/xlink"
   xmlns:sodipodi="http://sodipodi.sourceforge.net/DTD/sodipodi-0.dtd"
   xmlns:inkscape="http://www.inkscape.org/namespaces/inkscape"
   height="16"
   viewBox="0 0 4.2333333 4.2333335"
   width="16"
   version="1.1"
   id="svg205"
   sodipodi:docname="sc_datasubtotals.svg"
   inkscape:version="0.92.3 (2405546, 2018-03-11)">
  <metadata
     id="metadata211">
    <rdf:RDF>
      <cc:Work
         rdf:about="">
        <dc:format>image/svg+xml</dc:format>
        <dc:type
           rdf:resource="http://purl.org/dc/dcmitype/StillImage" />
        <dc:title></dc:title>
      </cc:Work>
    </rdf:RDF>
  </metadata>
  <defs
     id="defs209" />
  <sodipodi:namedview
     pagecolor="#ffffff"
     bordercolor="#666666"
     borderopacity="1"
     objecttolerance="10"
     gridtolerance="10"
     guidetolerance="10"
     inkscape:pageopacity="0"
     inkscape:pageshadow="2"
     inkscape:window-width="1366"
     inkscape:window-height="705"
     id="namedview207"
     showgrid="true"
     inkscape:zoom="16"
     inkscape:cx="2.6233575"
     inkscape:cy="15.772182"
     inkscape:window-x="-8"
     inkscape:window-y="-8"
     inkscape:window-maximized="1"
     inkscape:current-layer="svg205">
    <inkscape:grid
       type="xygrid"
       id="grid1018" />
  </sodipodi:namedview>
  <linearGradient
     id="a"
     gradientTransform="translate(0,8.000013)"
     gradientUnits="userSpaceOnUse"
     x1="72"
     x2="67.266975"
     xlink:href="#b"
     y1="159.99998"
     y2="-35.950958" />
  <radialGradient
     id="b"
     cx="265.3931"
     cy="-6078.353"
     fx="369.5242"
     gradientTransform="matrix(.183616 0 0 -.01462967 -.962917 -7.25873)"
     gradientUnits="userSpaceOnUse"
     r="253.01871">
    <stop
       offset="0"
       id="stop3" />
    <stop
       offset="1"
       stop-color="#fff"
       id="stop5" />
  </radialGradient>
  <linearGradient
     id="c"
     gradientTransform="matrix(0.08141228,0,0,0.10353495,1.682479,267.5504)"
     gradientUnits="userSpaceOnUse"
     x1="46.048"
     x2="46.048"
     xlink:href="#d"
     y1="128.01709"
     y2="16.6203" />
  <linearGradient
     id="d">
    <stop
       offset="0"
       stop-color="#c7cdd7"
       id="stop9" />
    <stop
       offset="1"
       stop-color="#fff"
       id="stop11" />
  </linearGradient>
  <linearGradient
     id="e"
     gradientTransform="matrix(0.08141228,0,0,0.10353495,1.682478,280.23989)"
     gradientUnits="userSpaceOnUse"
     x1="46.048"
     x2="46.048"
     xlink:href="#d"
     y1="128.01709"
     y2="16.6203" />
  <linearGradient
     id="f"
     gradientTransform="matrix(0.08141228,0,0,0.10353495,22.849148,273.89866)"
     gradientUnits="userSpaceOnUse"
     x1="46.048"
     x2="46.048"
     xlink:href="#d"
     y1="128.01709"
     y2="16.6203" />
  <linearGradient
     id="g"
     gradientTransform="translate(0,8.000013)"
     gradientUnits="userSpaceOnUse"
     x1="64"
     x2="67.266975"
     xlink:href="#b"
     y1="175.99998"
     y2="-35.950958" />
  <linearGradient
     id="h"
     gradientTransform="translate(0,8.000013)"
     gradientUnits="userSpaceOnUse"
     x1="64.000008"
     x2="67.266975"
     xlink:href="#b"
     y1="199.95621"
     y2="-35.950958" />
  <linearGradient
     id="i">
    <stop
       offset="0"
       stop-color="#011701"
       id="stop18" />
    <stop
       offset=".80671918"
       stop-color="#145703"
       id="stop20" />
    <stop
       offset="1"
       stop-color="#2fa207"
       stop-opacity=".384314"
       id="stop22" />
  </linearGradient>
  <linearGradient
     id="j"
     gradientTransform="scale(1.0975951,0.9110828)"
     gradientUnits="userSpaceOnUse"
     x1="26.091133"
     x2="31.500689"
     xlink:href="#k"
     y1="14.856744"
     y2="14.856744" />
  <linearGradient
     id="k">
    <stop
       offset="0"
       stop-color="#fff"
       id="stop26" />
    <stop
       offset="1"
       stop-color="#fff"
       stop-opacity="0"
       id="stop28" />
  </linearGradient>
  <linearGradient
     id="l"
     gradientUnits="userSpaceOnUse"
     x1="21.405156"
     x2="24.815938"
     xlink:href="#k"
     y1="275.907004"
     y2="292.390246" />
  <radialGradient
     id="m"
     cx="84.903702"
     cy="-130.14005"
     gradientTransform="matrix(0.08147617,0.08147617,-0.08147617,0.08147617,11.283714,291.5947)"
     gradientUnits="userSpaceOnUse"
     r="57.039597"
     xlink:href="#i" />
  <radialGradient
     id="n"
     cx="43.084476"
     cy="-121.92532"
     gradientTransform="matrix(0.0802945,0.08264095,-0.09601599,0.09328978,9.561855,292.98489)"
     gradientUnits="userSpaceOnUse"
     r="57.039597"
     xlink:href="#i" />
  <radialGradient
     id="o"
     cx="51.991096"
     cy="-78.028419"
     gradientTransform="matrix(0.07469784,0.08773236,-0.14847119,0.12641263,6.408613,294.77575)"
     gradientUnits="userSpaceOnUse"
     r="57.039597"
     xlink:href="#i" />
  <filter
     id="p"
     height="1.277481"
     width="1.279832"
     x="-.139916"
     y="-.138741">
    <feGaussianBlur
       stdDeviation=".28784801"
       id="feGaussianBlur35" />
  </filter>
  <linearGradient
     id="q"
     gradientUnits="userSpaceOnUse"
     spreadMethod="reflect"
     x1="88.606247"
     x2="91.575104"
     y1="13.510336"
     y2="13.510336">
    <stop
       offset="0"
       stop-color="#c8ff87"
       id="stop38" />
    <stop
       offset="1"
       stop-color="#abff87"
       stop-opacity="0"
       id="stop40" />
  </linearGradient>
  <filter
     id="r"
     color-interpolation-filters="sRGB"
     height="1.024"
     width="1.024"
     x="-.012"
     y="-.012">
    <feGaussianBlur
       stdDeviation=".28192153"
       id="feGaussianBlur43" />
  </filter>
  <linearGradient
     id="s"
     gradientUnits="userSpaceOnUse"
     x1="304.88663"
     x2="345.62039"
     y1="385.86127"
     y2="384.62384">
    <stop
       offset="0"
       stop-color="#765c44"
       id="stop46" />
    <stop
       offset="1"
       stop-color="#765c44"
       stop-opacity="0"
       id="stop48" />
  </linearGradient>
  <linearGradient
     id="t"
     gradientUnits="userSpaceOnUse"
     spreadMethod="reflect"
     x1="31.606251"
     x2="34.575108"
     y1="13.510336"
     y2="13.510336">
    <stop
       offset="0"
       stop-color="#fff"
       id="stop51" />
    <stop
       offset="1"
       stop-color="#790000"
       stop-opacity="0"
       id="stop53" />
  </linearGradient>
  <radialGradient
     id="u"
     cx="50.424522"
     cy="-81.945961"
     gradientTransform="matrix(.08147617 .08147617 -.08147617 .08147617 11.283714 291.5947)"
     gradientUnits="userSpaceOnUse"
     r="50.15279">
    <stop
       offset="0"
       stop-color="#7ae91e"
       stop-opacity=".996078"
       id="stop56" />
    <stop
       offset="1"
       stop-color="#62c916"
       id="stop58" />
  </radialGradient>
  <g
     id="g1150"
     transform="matrix(0.99874916,0,0,1,2.1031989e-5,0)">
    <g
       transform="matrix(0.125,0,0,0.125,0.005564,-33.420693)"
       id="g65">
      <path
         d="m 88.000002,47.999999 v 3.996094 0.0039 20 l 4e-6,8 L 128,80 V 48 h -8 l -23.999998,-10e-7 z m 8.000003,8 L 120,56 v 16 l -23.999998,-10e-7 z"
         transform="matrix(0.26458333,0,0,0.26458333,0,263.13332)"
         id="path61"
         inkscape:connector-curvature="0"
         style="fill:#f3b7d9" />
      <path
         d="m 25.400001,277.94715 h 6.35 l -1e-6,4.23439 H 25.4 Z"
         id="path63"
         inkscape:connector-curvature="0"
         style="fill:#f0e3ec;fill-opacity:1" />
    </g>
    <g
       transform="matrix(0.125,0,0,0.125,2.9159808,-33.685277)"
       id="g71">
      <path
         d="m 2.1166668,271.59892 h 6.3499999 v 4.2344 H 2.1166668 Z"
         id="path67"
         inkscape:connector-curvature="0"
         style="fill:#f0e3ec;fill-opacity:1" />
      <path
         d="m 0,24 v 4 20 l 1.3e-7,8 40.00000087,-10e-7 v -8 -20 -4 L 8,24 Z m 7.9999999,7.999999 24.0000011,-10e-7 V 47.999999 L 8,48 Z"
         transform="matrix(0.26458333,0,0,0.26458333,0,263.13332)"
         id="path69"
         inkscape:connector-curvature="0"
         style="fill:#f3b7d9" />
    </g>
    <g
       transform="matrix(0.125,0,0,0.125,2.9159806,-33.154662)"
       id="g77">
      <path
         d="m 2.1166668,284.2884 h 6.3500009 v 4.23439 H 2.1166668 Z"
         id="path73"
         inkscape:connector-curvature="0"
         style="fill:#f0e3ec;fill-opacity:1" />
      <path
         d="m 0,72 v 4 L 1.13e-6,96.000001 2.7e-7,104 h 7.99999993 24.0000008 8 l 1e-6,-7.999999 L 40.000001,76 V 75.943359 72 h -8 H 8 Z m 7.9999999,8 H 32.000001 l 1e-6,16.000001 H 8.0000011 Z"
         transform="matrix(0.26458333,0,0,0.26458333,0,263.13332)"
         id="path75"
         inkscape:connector-curvature="0"
         style="fill:#f3b7d9" />
    </g>
    <g
       transform="matrix(0.125,0,0,0.125,2.9159808,-32.09791)"
       id="g83">
      <path
         d="m 2.1166668,284.2884 h 6.3500009 v 4.23439 H 2.1166668 Z"
         id="path79"
         inkscape:connector-curvature="0"
         style="fill:#f0e3ec;fill-opacity:1" />
      <path
         d="m 0,72 v 4 L 1.13e-6,96.000001 2.7e-7,104 h 7.99999993 24.0000008 8 l 1e-6,-7.999999 L 40.000001,76 V 75.943359 72 h -8 H 8 Z m 7.9999999,8 H 32.000001 l 1e-6,16.000001 H 8.0000011 Z"
         transform="matrix(0.26458333,0,0,0.26458333,0,263.13332)"
         id="path81"
         inkscape:connector-curvature="0"
         style="fill:#f3b7d9;fill-opacity:1" />
    </g>
    <path
       d="M 1.593064,0.26459 H 0.53473062 V 0.52917125 H 1.593064 Z"
       id="path85"
       inkscape:connector-curvature="0"
       style="fill:#9d3a9b;stroke-width:0.125" />
    <g
       style="opacity:0.98000004;fill:#f3b7d9"
       transform="matrix(0.09457108,0,0,0.09457108,-1.4306417,-25.379855)"
       id="g123">
      <g
         id="g101"
         style="fill:#f3b7d9;stroke-width:0.26458299" />
      <g
         id="g115"
         style="fill:#f3b7d9;fill-rule:evenodd" />
      <path
         d="m 30.398619,286.21718 h -6.054474 v -6.0547 h -2.809277 v 6.0547 h -6.054474 v 2.80927 h 6.054474 v 6.05448 h 2.809277 v -6.05448 h 6.054474 z"
         id="path117"
         inkscape:connector-curvature="0"
         style="fill:#e602b4;stroke:#9d3a9b;stroke-width:0.69942987;stroke-linecap:round;stroke-linejoin:round;stroke-miterlimit:4;stroke-dasharray:none;stroke-opacity:1" />
    </g>
    <path
       d="m 0.79931775,1.0583375 v -0.52917 h -0.264587 v 0.52917 z"
       id="path125"
       inkscape:connector-curvature="0"
       style="fill:#9d3a9b;stroke-width:0.125" />
    <g
       transform="matrix(0.125,0,0,0.125,-1.3173528,-33.420827)"
       id="g131">
      <path
         d="m 88.000002,47.999999 v 3.996094 0.0039 20 l 4e-6,8 L 128,80 V 48 h -8 l -23.999998,-10e-7 z m 8.000003,8 L 120,56 v 16 l -23.999998,-10e-7 z"
         transform="matrix(0.26458333,0,0,0.26458333,0,263.13332)"
         id="path127"
         inkscape:connector-curvature="0"
         style="fill:#f3b7d9" />
      <path
         d="m 25.400001,277.94715 h 6.35 l -1e-6,4.23439 H 25.4 Z"
         id="path129"
         inkscape:connector-curvature="0"
         style="fill:#f0e3ec;fill-opacity:1" />
    </g>
    <g
       transform="matrix(0.125,0,0,0.125,1.593064,-33.68541)"
       id="g137">
      <path
         d="m 2.1166668,271.59892 h 6.3499999 v 4.2344 H 2.1166668 Z"
         id="path133"
         inkscape:connector-curvature="0"
         style="fill:#f0e3ec;fill-opacity:1" />
      <path
         d="m 0,24 v 4 20 l 1.3e-7,8 40.00000087,-10e-7 v -8 -20 -4 L 8,24 Z m 7.9999999,7.999999 24.0000011,-10e-7 V 47.999999 L 8,48 Z"
         transform="matrix(0.26458333,0,0,0.26458333,0,263.13332)"
         id="path135"
         inkscape:connector-curvature="0"
         style="fill:#f3b7d9" />
    </g>
    <g
       transform="matrix(0.125,0,0,0.125,1.5930639,-33.154795)"
       id="g143">
      <path
         d="m 2.1166668,284.2884 h 6.3500009 v 4.23439 H 2.1166668 Z"
         id="path139"
         inkscape:connector-curvature="0"
         style="fill:#f0e3ec;fill-opacity:1" />
      <path
         d="m 0,72 v 4 L 1.13e-6,96.000001 2.7e-7,104 h 7.99999993 24.0000008 8 l 1e-6,-7.999999 L 40.000001,76 V 75.943359 72 h -8 H 8 Z m 7.9999999,8 H 32.000001 l 1e-6,16.000001 H 8.0000011 Z"
         transform="matrix(0.26458333,0,0,0.26458333,0,263.13332)"
         id="path141"
         inkscape:connector-curvature="0"
         style="fill:#f3b7d9" />
    </g>
    <g
       transform="matrix(0.125,0,0,0.125,1.593064,-32.098043)"
       id="g149">
      <path
         d="m 2.1166668,284.2884 h 6.3500009 v 4.23439 H 2.1166668 Z"
         id="path145"
         inkscape:connector-curvature="0"
         style="fill:#f0e3ec;fill-opacity:1" />
      <path
         d="m 0,72 v 4 L 1.13e-6,96.000001 2.7e-7,104 h 7.99999993 24.0000008 8 l 1e-6,-7.999999 L 40.000001,76 V 75.943359 72 h -8 H 8 Z m 7.9999999,8 H 32.000001 l 1e-6,16.000001 H 8.0000011 Z"
         transform="matrix(0.26458333,0,0,0.26458333,0,263.13332)"
         id="path147"
         inkscape:connector-curvature="0"
         style="fill:#f3b7d9" />
    </g>
    <g
       style="opacity:0.98000004"
       transform="matrix(0.09457108,0,0,0.09457108,-1.4147429,-23.70599)"
       id="g187">
      <g
         id="g165"
         style="stroke-width:0.26458299" />
      <g
         id="g179"
         style="fill-rule:evenodd" />
      <path
         d="M 30.230504,286.21718 H 24.17603 v -6.0547 h -2.809277 v 6.0547 h -6.054474 v 2.80927 h 6.054474 v 6.05448 h 2.809277 v -6.05448 h 6.054474 z"
         id="path181"
         inkscape:connector-curvature="0"
         style="fill:#e602b4;stroke:#9d3a9b;stroke-width:0.69942981;stroke-linecap:round;stroke-linejoin:round;stroke-miterlimit:4;stroke-dasharray:none;stroke-opacity:1" />
    </g>
    <path
       d="M 2.1222308,0.52917 H 2.386814 V 0.793755 H 2.1222308 Z"
       id="path189"
       inkscape:connector-curvature="0"
       style="fill:#9d3a9b;stroke-width:0.125" />
    <path
       d="M 2.1222308,1.5875037 H 2.386814 V 1.8520875 H 2.1222308 Z"
       id="path191"
       inkscape:connector-curvature="0"
       style="fill:#e602b4;stroke-width:0.125" />
    <path
       d="M 3.4451475,1.5875037 H 3.7097307 V 1.8520875 H 3.4451475 Z"
       id="path193"
       inkscape:connector-curvature="0"
       style="fill:#e602b4;stroke-width:0.125" />
    <path
       d="m 2.122231,2.6458387 h 0.2645833 v 0.264585 H 2.122231 Z"
       id="path195"
       inkscape:connector-curvature="0"
       style="fill:#9d3a9b;stroke-width:0.125" />
    <g
       transform="matrix(0.125,0,0,0.125,0.005564,-32.89166)"
       id="g201"
       style="fill:#0066ff">
      <path
         style="fill:#e602b4"
         d="m 16.933336,292.76666 h 2.116666 v 2.11667 h -2.116666 z"
         id="path197"
         inkscape:connector-curvature="0" />
      <path
         style="fill:#e602b4"
         d="m 27.51667,292.76666 h 2.116666 v 2.11667 H 27.51667 Z"
         id="path199"
         inkscape:connector-curvature="0" />
    </g>
    <rect
       y="0.032487728"
       x="1.6252211"
       height="4.1679549"
       width="2.5804856"
       id="rect1106"
       style="opacity:0.98000004;fill:none;fill-opacity:1;stroke:#9d3a9b;stroke-width:0.0648175;stroke-linecap:round;stroke-linejoin:round;stroke-miterlimit:4;stroke-dasharray:none;stroke-opacity:1" />
  </g>
</svg>
