<?xml version="1.0" encoding="UTF-8" standalone="no"?>
<svg
   xmlns:dc="http://purl.org/dc/elements/1.1/"
   xmlns:cc="http://creativecommons.org/ns#"
   xmlns:rdf="http://www.w3.org/1999/02/22-rdf-syntax-ns#"
   xmlns:svg="http://www.w3.org/2000/svg"
   xmlns="http://www.w3.org/2000/svg"
   xmlns:xlink="http://www.w3.org/1999/xlink"
   xmlns:sodipodi="http://sodipodi.sourceforge.net/DTD/sodipodi-0.dtd"
   xmlns:inkscape="http://www.inkscape.org/namespaces/inkscape"
   height="16"
   viewBox="0 0 4.2333333 4.2333335"
   width="16"
   version="1.1"
   id="svg127"
   sodipodi:docname="sc_dataarearefresh.svg"
   inkscape:version="0.92.3 (2405546, 2018-03-11)">
  <metadata
     id="metadata133">
    <rdf:RDF>
      <cc:Work
         rdf:about="">
        <dc:format>image/svg+xml</dc:format>
        <dc:type
           rdf:resource="http://purl.org/dc/dcmitype/StillImage" />
        <dc:title></dc:title>
      </cc:Work>
    </rdf:RDF>
  </metadata>
  <defs
     id="defs131" />
  <sodipodi:namedview
     pagecolor="#ffffff"
     bordercolor="#666666"
     borderopacity="1"
     objecttolerance="10"
     gridtolerance="10"
     guidetolerance="10"
     inkscape:pageopacity="0"
     inkscape:pageshadow="2"
     inkscape:window-width="1366"
     inkscape:window-height="705"
     id="namedview129"
     showgrid="true"
     inkscape:zoom="29.5"
     inkscape:cx="8.7713656"
     inkscape:cy="9.0112355"
     inkscape:window-x="-8"
     inkscape:window-y="-8"
     inkscape:window-maximized="1"
     inkscape:current-layer="svg127">
    <inkscape:grid
       type="xygrid"
       id="grid4645" />
  </sodipodi:namedview>
  <mask
     id="a"
     maskUnits="userSpaceOnUse">
    <path
       d="m2.778125 295.8755.1286275-.17268.7974142.0404.8837099-.0464s-.8750292 1.075-.9068935 1.13463c-.031864.0596-.1752539.16856-.1752539.16856z"
       fill="url(#b)"
       fill-rule="evenodd"
       stroke-width=".120238"
       id="path2" />
  </mask>
  <linearGradient
     id="b"
     gradientTransform="matrix(-.1202386 -.01552063 0 .1202386 50.206103 228.09465)"
     gradientUnits="userSpaceOnUse"
     x1="391.14813"
     x2="385.39752"
     y1="618.61072"
     y2="613.20654">
    <stop
       offset="0"
       stop-color="#fff"
       id="stop5" />
    <stop
       offset="1"
       stop-opacity="0"
       id="stop7" />
  </linearGradient>
  <linearGradient
     id="c"
     gradientTransform="matrix(.0789558 0 0 .07841556 27.361627 7.365724)"
     gradientUnits="userSpaceOnUse"
     x1="17"
     x2="17"
     y1="8"
     y2="17">
    <stop
       offset="0"
       stop-color="#00008c"
       id="stop10" />
    <stop
       offset=".3553"
       stop-color="#1c1cac"
       id="stop12" />
    <stop
       offset=".6194"
       stop-color="#080895"
       id="stop14" />
    <stop
       offset=".7574"
       stop-color="#00008c"
       id="stop16" />
    <stop
       offset="1"
       stop-color="#00004d"
       id="stop18" />
  </linearGradient>
  <radialGradient
     id="d"
     cx="10.000115"
     cy="14.246079"
     gradientTransform="matrix(1 -.00000005 .00000008 1.8331696 -.000116 -11.865479)"
     gradientUnits="userSpaceOnUse"
     r="4.500402">
    <stop
       offset="0"
       stop-color="#5757ff"
       id="stop21" />
    <stop
       offset=".3553"
       stop-color="#223fd1"
       id="stop23" />
    <stop
       offset=".6194"
       stop-color="#0f1af2"
       id="stop25" />
    <stop
       offset=".7574"
       stop-color="#0000cf"
       id="stop27" />
    <stop
       offset="1"
       stop-color="#00008e"
       id="stop29" />
  </radialGradient>
  <radialGradient
     id="e"
     cx="6"
     cy="9.999972"
     gradientTransform="matrix(.44440479 0 0 .9999445 3.333571 .000583)"
     gradientUnits="userSpaceOnUse"
     r="4.500402"
     xlink:href="#f" />
  <linearGradient
     id="f">
    <stop
       offset="0"
       id="stop33" />
    <stop
       offset="1"
       stop-opacity="0"
       id="stop35" />
  </linearGradient>
  <radialGradient
     id="g"
     cx="10.499598"
     cy="10.500055"
     gradientTransform="matrix(1 0 0 .9999445 0 .000583)"
     gradientUnits="userSpaceOnUse"
     r="4.500402"
     xlink:href="#f" />
  <radialGradient
     id="h"
     cx="13"
     cy="9.999972"
     gradientTransform="matrix(.70266574 .00000006 -.00000005 .66660712 3.865346 3.333947)"
     gradientUnits="userSpaceOnUse"
     r="4.500402">
    <stop
       offset="0"
       stop-color="#00f"
       id="stop39" />
    <stop
       offset="1"
       stop-color="#00004d"
       stop-opacity="0"
       id="stop41" />
  </radialGradient>
  <radialGradient
     id="i"
     cx="10.25"
     cy="13.250153"
     gradientTransform="matrix(1 0 0 .9999445 0 .000583)"
     gradientUnits="userSpaceOnUse"
     r="4.500402">
    <stop
       offset="0"
       stop-color="#2c41be"
       id="stop44" />
    <stop
       offset="1"
       stop-color="#2c41be"
       stop-opacity="0"
       id="stop46" />
  </radialGradient>
  <linearGradient
     id="j"
     gradientUnits="userSpaceOnUse"
     x1="17.443756"
     x2="17.524389"
     y1="5.924313"
     y2="6.65001">
    <stop
       offset="0"
       stop-color="#bfbfff"
       id="stop49" />
    <stop
       offset="1"
       stop-color="#bfbfff"
       stop-opacity="0"
       id="stop51" />
  </linearGradient>
  <radialGradient
     id="k"
     cx="10.720569"
     cy="6.389769"
     gradientTransform="matrix(.45075749 .01596601 -.01621215 .45770648 5.991784 3.294194)"
     gradientUnits="userSpaceOnUse"
     r="4.500402">
    <stop
       offset="0"
       stop-color="#fff"
       id="stop54" />
    <stop
       offset="1"
       stop-color="#fff"
       stop-opacity="0"
       id="stop56" />
  </radialGradient>
  <filter
     id="l"
     color-interpolation-filters="sRGB"
     height="1.036001"
     width="1.035999"
     x="-.018"
     y="-.018">
    <feGaussianBlur
       stdDeviation=".067504158"
       id="feGaussianBlur59" />
  </filter>
  <clipPath
     id="m">
    <path
       d="m2.7874267 294.08995c-.6536123-.004-1.2297545.42813-1.4086995 1.05678-.1898565.66692.1172257 1.37515.7338053 1.6924.4171572.21458.8956189.20527 1.2965618.0119l-.5896282-.91106a.396875.396875 0 0 1 -.2227254-.0419.396875.396875 0 0 1 -.2005046-.46147.396875.396875 0 0 1 .4134116-.28732.396875.396875 0 0 1 .1834513.063l-.2413289.24133a.13030278.13030278 0 0 0 .091984.22273h1.2578043a.13030278.13030278 0 0 0 .1307415-.13126v-1.25781a.13030278.13030278 0 0 0 -.1348756-.13074.13030278.13030278 0 0 0 -.08785.0393l-.2640666.26406c-.236479-.21133-.5355238-.33962-.8516276-.36535-.035416-.003-.070924-.004-.1064535-.005z"
       id="path62" />
  </clipPath>
  <linearGradient
     id="n"
     gradientUnits="userSpaceOnUse"
     x1="17.79772"
     x2="17.79772"
     y1="337.269796"
     y2="246.199986">
    <stop
       offset="0"
       id="stop65" />
    <stop
       offset="1"
       stop-color="#fff"
       id="stop67" />
  </linearGradient>
  <linearGradient
     id="o"
     gradientTransform="matrix(.28494299 0 0 .34511728 .597009 260.92352)"
     gradientUnits="userSpaceOnUse"
     x1="46.048"
     x2="46.048"
     y1="128.01709"
     y2="16.6203">
    <stop
       offset="0"
       stop-color="#c7cdd7"
       id="stop70" />
    <stop
       offset="1"
       stop-color="#fff"
       id="stop72" />
  </linearGradient>
  <g
     transform="matrix(0.125,0,0,0.125,0,-32.891665)"
     id="g125">
    <path
       d="m 0,263.13332 v 1.2454 5.1046 1.05833 11.64167 1.05833 6.37997 1.02837 H 2.1166666 10.583333 12.7 v -1.02837 -6.37997 -1.05833 -11.64167 h 8.466666 2.116667 8.466667 2.116666 v -7.40833 H 2.1166666 Z m 2.1166666,1.2454 h 8.4666664 v 5.1046 H 2.1166666 Z m 10.5833334,0 h 8.466666 v 5.1046 H 12.7 Z m 10.583333,0 H 31.75 v 5.1046 h -8.466667 z m -21.1666664,6.16293 h 8.4666664 v 11.64167 H 2.1166666 Z m 0,12.7 h 8.4666664 v 6.37997 H 2.1166666 Z"
       id="path77"
       inkscape:connector-curvature="0"
       style="fill:#9d3a9b;fill-opacity:1;stroke-width:0.26458299" />
    <rect
       height="5.2916679"
       rx="0.076451004"
       ry="0.065958001"
       width="29.633333"
       x="2.116667"
       y="264.19165"
       id="rect79"
       style="opacity:0.77999998;fill:#f3b7d9" />
    <path
       d="M 0.05477702,263.13332 C 0.0245241,263.13332 0,263.16292 0,263.19947 v 1.17925 5.1046 1.05833 H 2.1166666 10.583333 12.7 v -0.0661 c 0,0.0365 0.02452,0.0661 0.05478,0.0661 h 21.05711 c 0.03025,0 0.05478,-0.0296 0.05478,-0.0661 v -7.27604 c 0,-0.0366 -0.02452,-0.0661 -0.05478,-0.0661 H 12.754777 c -0.03025,0 -0.05478,0.0296 -0.05478,0.0661 0,-0.0366 -0.02452,-0.0661 -0.05478,-0.0661 H 2.1166666 Z m 2.06188958,1.2454 h 8.4666664 v 5.1046 H 2.1166666 Z m 10.5833334,0 h 8.466666 v 5.1046 H 12.7 Z m 10.583333,0 H 31.75 v 5.1046 h -8.466667 z"
       id="path81"
       inkscape:connector-curvature="0"
       style="fill:#9d3a9b;stroke-width:0.26458299" />
    <path
       d="m 2.116667,275.83331 h 8.466666 v 1.05833 H 2.116667 Z"
       id="path83"
       inkscape:connector-curvature="0"
       style="fill:#9d3a9b" />
    <g
       clip-path="url(#m)"
       transform="matrix(8.0000002,0,0,8.0000002,-1e-6,-2078.9999)"
       id="g103">
      <path
         d="M 10.535156,5 C 8.0648102,4.9845713 5.8872651,6.6181292 5.2109375,8.9941406 4.4933695,11.514761 5.6539954,14.191557 7.984375,15.390625 c 2.331422,1.199238 5.185208,0.586136 6.818359,-1.464844 L 11.671875,11.4375 A 1.5,1.5 0 0 1 9.8144531,11.833984 1.5,1.5 0 0 1 9.0566406,10.089844 1.5,1.5 0 0 1 10.619141,9.0039062 1.5,1.5 0 0 1 11.3125,9.2421875 l -0.912109,0.9121095 a 0.49248295,0.49248295 0 0 0 0.347656,0.841797 h 4.753906 A 0.49248295,0.49248295 0 0 0 15.996094,10.5 V 5.7460938 A 0.49248295,0.49248295 0 0 0 15.486328,5.2519531 0.49248295,0.49248295 0 0 0 15.154297,5.4003906 L 14.15625,6.3984375 C 13.262472,5.5997004 12.132224,5.1148183 10.9375,5.0175781 10.803645,5.0068089 10.66944,5.0009456 10.535156,5 Z"
         transform="matrix(0.26458333,0,0,0.26458333,0,292.76665)"
         id="path85"
         inkscape:connector-curvature="0"
         style="opacity:0.95;fill:#e602b4" />
      <path
         d="M 10.529297,6 C 8.5077435,5.9867714 6.7254894,7.3232624 6.171875,9.2675781 5.5843536,11.330267 6.5341893,13.520938 8.4414062,14.501953 c 1.9075568,0.980741 4.2421708,0.478832 5.5781248,-1.199219 l -1.564453,-1.246093 c -0.742097,0.93151 -2.038276,1.210196 -3.0976561,0.666015 C 8.2983158,12.17808 7.7703755,10.96202 8.0957031,9.8164062 8.4215268,8.6700503 9.5112305,7.9130614 10.699219,8.0078125 c 0.86083,0.069496 1.599835,0.5743868 1.99414,1.2988281 L 12,10 h 3 V 7 L 14.140625,7.859375 C 13.387922,6.8227418 12.206849,6.1212163 10.857422,6.0136719 10.74825,6.0051237 10.638802,6.0005634 10.529297,6 Z"
         transform="matrix(0.26458333,0,0,0.26458333,0,292.76665)"
         id="path87"
         inkscape:connector-curvature="0"
         style="opacity:0.95;fill:url(#c)" />
      <path
         d="M 10.529297,6 C 8.5077435,5.9867714 6.7254894,7.3232624 6.171875,9.2675781 5.5843536,11.330267 6.5341893,13.520938 8.4414062,14.501953 c 1.9075568,0.980741 4.2421708,0.478832 5.5781248,-1.199219 l -1.564453,-1.246093 c -0.742097,0.93151 -2.038276,1.210196 -3.0976561,0.666015 C 8.2983158,12.17808 7.7703755,10.96202 8.0957031,9.8164062 8.4215268,8.6700503 9.5112305,7.9130614 10.699219,8.0078125 c 0.86083,0.069496 1.599835,0.5743868 1.99414,1.2988281 L 12,10 h 3 V 7 L 14.140625,7.859375 C 13.387922,6.8227418 12.206849,6.1212163 10.857422,6.0136719 10.74825,6.0051237 10.638802,6.0005634 10.529297,6 Z"
         transform="matrix(0.26458333,0,0,0.26458333,0,292.76665)"
         id="path89"
         inkscape:connector-curvature="0"
         style="opacity:0.95;fill:url(#d)" />
      <path
         d="M 10.529297,6 C 8.5077435,5.9867714 6.7254894,7.3232624 6.171875,9.2675781 5.5843536,11.330267 6.5341893,13.520938 8.4414062,14.501953 c 1.9075568,0.980741 4.2421708,0.478832 5.5781248,-1.199219 l -1.564453,-1.246093 c -0.742097,0.93151 -2.038276,1.210196 -3.0976561,0.666015 C 8.2983158,12.17808 7.7703755,10.96202 8.0957031,9.8164062 8.4215268,8.6700503 9.5112305,7.9130614 10.699219,8.0078125 c 0.86083,0.069496 1.599835,0.5743868 1.99414,1.2988281 L 12,10 h 3 V 7 L 14.140625,7.859375 C 13.387922,6.8227418 12.206849,6.1212163 10.857422,6.0136719 10.74825,6.0051237 10.638802,6.0005634 10.529297,6 Z"
         transform="matrix(0.26458333,0,0,0.26458333,0,292.76665)"
         id="path91"
         inkscape:connector-curvature="0"
         style="opacity:0.42000002;fill:url(#e)" />
      <path
         d="M 10.529297,6 C 8.5077435,5.9867714 6.7254894,7.3232624 6.171875,9.2675781 5.5843536,11.330267 6.5341893,13.520938 8.4414062,14.501953 c 1.9075568,0.980741 4.2421708,0.478832 5.5781248,-1.199219 l -1.564453,-1.246093 c -0.742097,0.93151 -2.038276,1.210196 -3.0976561,0.666015 C 8.2983158,12.17808 7.7703755,10.96202 8.0957031,9.8164062 8.4215268,8.6700503 9.5112305,7.9130614 10.699219,8.0078125 c 0.86083,0.069496 1.599835,0.5743868 1.99414,1.2988281 L 12,10 h 3 V 7 L 14.140625,7.859375 C 13.387922,6.8227418 12.206849,6.1212163 10.857422,6.0136719 10.74825,6.0051237 10.638802,6.0005634 10.529297,6 Z"
         transform="matrix(0.26458333,0,0,0.26458333,0,292.76665)"
         id="path93"
         inkscape:connector-curvature="0"
         style="opacity:0.79799996;fill:url(#g)" />
      <path
         d="M 10.529297,6 C 8.5077435,5.9867714 6.7254894,7.3232624 6.171875,9.2675781 5.5843536,11.330267 6.5341893,13.520938 8.4414062,14.501953 c 1.9075568,0.980741 4.2421708,0.478832 5.5781248,-1.199219 l -1.564453,-1.246093 c -0.742097,0.93151 -2.038276,1.210196 -3.0976561,0.666015 C 8.2983158,12.17808 7.7703755,10.96202 8.0957031,9.8164062 8.4215268,8.6700503 9.5112305,7.9130614 10.699219,8.0078125 c 0.86083,0.069496 1.599835,0.5743868 1.99414,1.2988281 L 12,10 h 3 V 7 L 14.140625,7.859375 C 13.387922,6.8227418 12.206849,6.1212163 10.857422,6.0136719 10.74825,6.0051237 10.638802,6.0005634 10.529297,6 Z"
         transform="matrix(0.26458333,0,0,0.26458333,0,292.76665)"
         id="path97"
         inkscape:connector-curvature="0"
         style="opacity:0.95;fill:#f3b7d9;fill-opacity:1" />
    </g>
    <g
       mask="url(#a)"
       transform="matrix(8.0000002,0,0,8.0000002,-1e-6,-2078.9999)"
       id="g123" />
  </g>
</svg>
