<?xml version="1.0" encoding="UTF-8" standalone="no"?>
<svg
   xmlns:dc="http://purl.org/dc/elements/1.1/"
   xmlns:cc="http://creativecommons.org/ns#"
   xmlns:rdf="http://www.w3.org/1999/02/22-rdf-syntax-ns#"
   xmlns:svg="http://www.w3.org/2000/svg"
   xmlns="http://www.w3.org/2000/svg"
   xmlns:sodipodi="http://sodipodi.sourceforge.net/DTD/sodipodi-0.dtd"
   xmlns:inkscape="http://www.inkscape.org/namespaces/inkscape"
   height="16"
   width="16"
   version="1.1"
   id="svg51"
   sodipodi:docname="sc_dbquerydelete.svg"
   inkscape:version="0.92.4 (5da689c313, 2019-01-14)">
  <metadata
     id="metadata57">
    <rdf:RDF>
      <cc:Work
         rdf:about="">
        <dc:format>image/svg+xml</dc:format>
        <dc:type
           rdf:resource="http://purl.org/dc/dcmitype/StillImage" />
        <dc:title></dc:title>
      </cc:Work>
    </rdf:RDF>
  </metadata>
  <defs
     id="defs55">
    <radialGradient
       id="l"
       cx="-32"
       cy="9.6000004"
       gradientTransform="matrix(-0.45052565,0.45052565,2.2526284,2.2526284,-12.705504,0.9695258)"
       gradientUnits="userSpaceOnUse"
       r="5.5999999">
      <stop
         offset="0"
         stop-color="#a50606"
         id="stop39" />
      <stop
         offset="1"
         stop-color="#f20909"
         id="stop41" />
    </radialGradient>
  </defs>
  <sodipodi:namedview
     pagecolor="#ffffff"
     bordercolor="#666666"
     borderopacity="1"
     objecttolerance="10"
     gridtolerance="10"
     guidetolerance="10"
     inkscape:pageopacity="0"
     inkscape:pageshadow="2"
     inkscape:window-width="1366"
     inkscape:window-height="704"
     id="namedview53"
     showgrid="true"
     showguides="true"
     inkscape:zoom="29.5"
     inkscape:cx="10.403602"
     inkscape:cy="3.5529063"
     inkscape:window-x="0"
     inkscape:window-y="27"
     inkscape:window-maximized="1"
     inkscape:current-layer="svg51"
     inkscape:snap-object-midpoints="true"
     inkscape:snap-smooth-nodes="true"
     inkscape:snap-center="true">
    <inkscape:grid
       type="xygrid"
       id="grid59"
       spacingx="0.5"
       spacingy="0.5"
       empspacing="2" />
  </sodipodi:namedview>
  <radialGradient
     id="a"
     cx="-32"
     cy="9.6"
     gradientTransform="matrix(0.38451191,0.38451191,-1.9225596,1.9225596,9.307642,21.32343)"
     gradientUnits="userSpaceOnUse"
     r="5.6">
    <stop
       offset="0"
       stop-color="#a50606"
       id="stop2" />
    <stop
       offset="1"
       stop-color="#f20909"
       id="stop4" />
  </radialGradient>
  <filter
     id="b">
    <feGaussianBlur
       stdDeviation="2.4"
       id="feGaussianBlur7" />
  </filter>
  <linearGradient
     id="c"
     gradientTransform="matrix(0.1133598,0,0,0.1691546,80.271445,159.92147)"
     gradientUnits="userSpaceOnUse"
     x1="399.77466"
     x2="399.77466"
     y1="681.00012"
     y2="549.33234">
    <stop
       offset="0"
       stop-color="#cbcbcd"
       id="stop10" />
    <stop
       offset=".5"
       stop-color="#e0e0e2"
       id="stop12" />
    <stop
       offset="1"
       stop-color="#fff"
       id="stop14" />
  </linearGradient>
  <rect
     style="fill:#f0e3ec;stroke:#e602b4"
     id="rect61"
     width="13"
     height="11"
     x="1.5"
     y="2.5"
     ry="1.5" />
  <rect
     ry="0.27272728"
     y="2.5"
     x="1.5"
     height="2"
     width="13"
     id="rect873"
     style="fill:#e602b4;stroke:#e602b4;stroke-width:0.99999982" />
  <path
     style="fill:none;stroke:#9d3a9b;stroke-width:1px;stroke-linecap:round;stroke-linejoin:miter;stroke-opacity:1"
     d="m 3.5,6.5 h 9"
     id="path875"
     inkscape:connector-curvature="0" />
  <path
     inkscape:connector-curvature="0"
     id="path877"
     d="m 3.5,8.5 h 9"
     style="fill:none;stroke:#9d3a9b;stroke-width:1px;stroke-linecap:round;stroke-linejoin:miter;stroke-opacity:1" />
  <path
     style="fill:none;stroke:#9d3a9b;stroke-width:1px;stroke-linecap:round;stroke-linejoin:miter;stroke-opacity:1"
     d="m 3.5,10.5 h 9"
     id="path879"
     inkscape:connector-curvature="0" />
  <circle
     style="fill:#f3b7d9;stroke:none;stroke-linecap:round"
     id="path881"
     cx="2.5"
     cy="3.5"
     r="0.5" />
  <circle
     r="0.5"
     cy="3.5"
     cx="11.5"
     id="circle883"
     style="fill:#f3b7d9;stroke:none;stroke-linecap:round" />
  <circle
     style="fill:#f3b7d9;stroke:none;stroke-linecap:round"
     id="circle885"
     cx="13.5"
     cy="3.5"
     r="0.5" />
  <g
     id="g910"
     transform="translate(-13.320459,0.020928)">
    <path
       id="path139"
       d="m 21.660156,5.1816406 a 1.339546,1.339546 0 0 0 -0.09375,0.00586 1.339546,1.339546 0 0 0 -0.115234,0.015625 1.339546,1.339546 0 0 0 -0.03125,0.00586 1.339546,1.339546 0 0 0 -0.07031,0.015625 1.339546,1.339546 0 0 0 -0.07031,0.019531 1.339546,1.339546 0 0 0 -0.03711,0.011719 1.339546,1.339546 0 0 0 -0.0918,0.035156 1.339546,1.339546 0 0 0 -0.03516,0.017578 1.339546,1.339546 0 0 0 -0.08203,0.039062 1.339546,1.339546 0 0 0 -0.04297,0.027344 1.339546,1.339546 0 0 0 -0.07227,0.044922 1.339546,1.339546 0 0 0 -0.05273,0.039063 1.339546,1.339546 0 0 0 -0.04102,0.033203 1.339546,1.339546 0 0 0 -0.0918,0.082031 L 20.521474,5.785157 19.574209,6.7324227 a 1.339546,1.339546 0 0 0 0,1.8945312 L 20.521484,9.5742188 20.947266,10 l -0.425782,0.425781 -0.947265,0.947266 a 1.339546,1.339546 0 0 0 0,1.894531 l 0.947265,0.947266 0.210938,0.210937 a 1.339546,1.339546 0 0 0 0.0918,0.08203 1.339546,1.339546 0 0 0 0.04102,0.0332 1.339546,1.339546 0 0 0 0.05273,0.03906 1.339546,1.339546 0 0 0 0.07227,0.04492 1.339546,1.339546 0 0 0 0.04297,0.02734 1.339546,1.339546 0 0 0 0.08203,0.03906 1.339546,1.339546 0 0 0 0.03516,0.01758 1.339546,1.339546 0 0 0 0.0918,0.03516 1.339546,1.339546 0 0 0 0.03711,0.01172 1.339546,1.339546 0 0 0 0.07031,0.01953 1.339546,1.339546 0 0 0 0.06445,0.01563 1.339546,1.339546 0 0 0 0.101563,0.01563 1.339546,1.339546 0 0 0 0.0098,0.002 1.339546,1.339546 0 0 0 0.002,0 1.339546,1.339546 0 0 0 0.105468,0.0078 1.339546,1.339546 0 0 0 0.02734,0.002 1.339546,1.339546 0 0 0 0.01563,0 1.339546,1.339546 0 0 0 0.117188,-0.0059 1.339546,1.339546 0 0 0 0.111328,-0.01563 1.339546,1.339546 0 0 0 0.02148,-0.002 1.339546,1.339546 0 0 0 0.01563,-0.0039 1.339546,1.339546 0 0 0 0.06836,-0.01563 1.339546,1.339546 0 0 0 0.07031,-0.01953 1.339546,1.339546 0 0 0 0.03711,-0.01172 1.339546,1.339546 0 0 0 0.0918,-0.03516 1.339546,1.339546 0 0 0 0.03516,-0.01758 1.339546,1.339546 0 0 0 0.08203,-0.03906 1.339546,1.339546 0 0 0 0.03711,-0.02344 1.339546,1.339546 0 0 0 0.08789,-0.05664 1.339546,1.339546 0 0 0 0.09766,-0.07617 1.339546,1.339546 0 0 0 0.0078,-0.0059 1.339546,1.339546 0 0 0 0.07031,-0.06445 L 24,13.052734 l 1.373047,1.373047 a 1.339546,1.339546 0 0 0 0.07813,0.07031 1.339546,1.339546 0 0 0 0.09766,0.07617 1.339546,1.339546 0 0 0 0.08789,0.05664 1.339546,1.339546 0 0 0 0.03711,0.02344 1.339546,1.339546 0 0 0 0.08203,0.03906 1.339546,1.339546 0 0 0 0.03516,0.01758 1.339546,1.339546 0 0 0 0.0918,0.03516 1.339546,1.339546 0 0 0 0.03711,0.01172 1.339546,1.339546 0 0 0 0.07031,0.01953 1.339546,1.339546 0 0 0 0.06836,0.01563 1.339546,1.339546 0 0 0 0.03711,0.0059 1.339546,1.339546 0 0 0 0.111328,0.01563 1.339546,1.339546 0 0 0 0.117188,0.0059 1.339546,1.339546 0 0 0 0.01563,0 1.339546,1.339546 0 0 0 0.02734,-0.002 1.339546,1.339546 0 0 0 0.105468,-0.0078 1.339546,1.339546 0 0 0 0.002,0 1.339546,1.339546 0 0 0 0.0098,-0.002 1.339546,1.339546 0 0 0 0.101563,-0.01563 1.339546,1.339546 0 0 0 0.06445,-0.01563 1.339546,1.339546 0 0 0 0.07031,-0.01953 1.339546,1.339546 0 0 0 0.01367,-0.0039 1.339546,1.339546 0 0 0 0.02344,-0.0078 1.339546,1.339546 0 0 0 0.0918,-0.03516 1.339546,1.339546 0 0 0 0.0098,-0.0039 1.339546,1.339546 0 0 0 0.02539,-0.01367 1.339546,1.339546 0 0 0 0.08203,-0.03906 1.339546,1.339546 0 0 0 0.01367,-0.0078 1.339546,1.339546 0 0 0 0.0293,-0.01953 1.339546,1.339546 0 0 0 0.07227,-0.04492 1.339546,1.339546 0 0 0 0.05273,-0.03906 1.339546,1.339546 0 0 0 0.0332,-0.02539 1.339546,1.339546 0 0 0 0.0078,-0.0078 1.339546,1.339546 0 0 0 0.0918,-0.08203 l 0.210938,-0.210937 0.947265,-0.947266 a 1.339546,1.339546 0 0 0 0,-1.894531 L 27.478516,10.425781 27.052734,10 27.478516,9.5742188 28.425781,8.6269531 a 1.339546,1.339546 0 0 0 0,-1.8945312 L 27.478516,5.7851562 27.267578,5.5742188 a 1.339546,1.339546 0 0 0 -0.0918,-0.082031 1.339546,1.339546 0 0 0 -0.0078,-0.00781 1.339546,1.339546 0 0 0 -0.07422,-0.056641 1.339546,1.339546 0 0 0 -0.01172,-0.00781 1.339546,1.339546 0 0 0 -0.07227,-0.044922 1.339546,1.339546 0 0 0 -0.0293,-0.019531 1.339546,1.339546 0 0 0 -0.01367,-0.00781 1.339546,1.339546 0 0 0 -0.08203,-0.039062 1.339546,1.339546 0 0 0 -0.02539,-0.013672 1.339546,1.339546 0 0 0 -0.0098,-0.00391 1.339546,1.339546 0 0 0 -0.0918,-0.035156 1.339546,1.339546 0 0 0 -0.02344,-0.00781 1.339546,1.339546 0 0 0 -0.01367,-0.00391 1.339546,1.339546 0 0 0 -0.07031,-0.019531 1.339546,1.339546 0 0 0 -0.07031,-0.015625 1.339546,1.339546 0 0 0 -0.03125,-0.00586 1.339546,1.339546 0 0 0 -0.115234,-0.015625 1.339546,1.339546 0 0 0 -0.09375,-0.00586 1.339546,1.339546 0 0 0 -0.02344,0 1.339546,1.339546 0 0 0 -0.04297,0.00195 1.339546,1.339546 0 0 0 -0.105469,0.00781 1.339546,1.339546 0 0 0 -0.002,0 1.339546,1.339546 0 0 0 -0.0098,0.00195 1.339546,1.339546 0 0 0 -0.101562,0.015625 1.339546,1.339546 0 0 0 -0.06445,0.015625 1.339546,1.339546 0 0 0 -0.07031,0.019531 1.339546,1.339546 0 0 0 -0.03711,0.011719 1.339546,1.339546 0 0 0 -0.0918,0.035156 1.339546,1.339546 0 0 0 -0.03516,0.017578 1.339546,1.339546 0 0 0 -0.08203,0.039062 1.339546,1.339546 0 0 0 -0.04297,0.027344 1.339546,1.339546 0 0 0 -0.07227,0.044922 1.339546,1.339546 0 0 0 -0.05273,0.039063 1.339546,1.339546 0 0 0 -0.04102,0.033203 1.339546,1.339546 0 0 0 -0.0918,0.082031 L 24,6.9472656 22.626953,5.5742188 a 1.339546,1.339546 0 0 0 -0.0918,-0.082031 1.339546,1.339546 0 0 0 -0.04102,-0.033203 1.339546,1.339546 0 0 0 -0.05273,-0.039063 1.339546,1.339546 0 0 0 -0.07227,-0.044922 1.339546,1.339546 0 0 0 -0.04297,-0.027344 1.339546,1.339546 0 0 0 -0.08203,-0.039062 1.339546,1.339546 0 0 0 -0.03516,-0.017578 1.339546,1.339546 0 0 0 -0.0918,-0.035156 1.339546,1.339546 0 0 0 -0.03711,-0.011719 1.339546,1.339546 0 0 0 -0.07031,-0.019531 1.339546,1.339546 0 0 0 -0.06445,-0.015625 1.339546,1.339546 0 0 0 -0.101562,-0.015625 1.339546,1.339546 0 0 0 -0.0098,-0.00195 1.339546,1.339546 0 0 0 -0.002,0 1.339546,1.339546 0 0 0 -0.105469,-0.00781 1.339546,1.339546 0 0 0 -0.04297,-0.00195 1.339546,1.339546 0 0 0 -0.02344,0 z"
       style="fill:#f0e3ec;fill-opacity:1;stroke-width:0.125"
       inkscape:connector-curvature="0" />
    <path
       style="fill:#ec0606;fill-opacity:1;stroke-width:0.125"
       inkscape:connector-curvature="0"
       id="path141"
       d="m 21.679539,6.5209283 2.32046,2.3204599 2.32046,-2.3204599 1.158611,1.1586087 -2.320459,2.3204607 2.320459,2.3204613 -1.158611,1.158613 -2.32046,-2.32046 -2.32046,2.32046 L 20.52093,12.320458 22.841388,9.9999977 20.52093,7.679537 Z" />
  </g>
</svg>
