<?xml version="1.0" encoding="UTF-8" standalone="no"?>
<svg
   xmlns:dc="http://purl.org/dc/elements/1.1/"
   xmlns:cc="http://creativecommons.org/ns#"
   xmlns:rdf="http://www.w3.org/1999/02/22-rdf-syntax-ns#"
   xmlns:svg="http://www.w3.org/2000/svg"
   xmlns="http://www.w3.org/2000/svg"
   xmlns:sodipodi="http://sodipodi.sourceforge.net/DTD/sodipodi-0.dtd"
   xmlns:inkscape="http://www.inkscape.org/namespaces/inkscape"
   height="16"
   width="16"
   version="1.1"
   id="svg45"
   sodipodi:docname="sc_dbtabledelete.svg"
   inkscape:version="0.92.4 (5da689c313, 2019-01-14)">
  <metadata
     id="metadata51">
    <rdf:RDF>
      <cc:Work
         rdf:about="">
        <dc:format>image/svg+xml</dc:format>
        <dc:type
           rdf:resource="http://purl.org/dc/dcmitype/StillImage" />
        <dc:title></dc:title>
      </cc:Work>
    </rdf:RDF>
  </metadata>
  <defs
     id="defs49" />
  <sodipodi:namedview
     pagecolor="#ffffff"
     bordercolor="#666666"
     borderopacity="1"
     objecttolerance="10"
     gridtolerance="10"
     guidetolerance="10"
     inkscape:pageopacity="0"
     inkscape:pageshadow="2"
     inkscape:window-width="1366"
     inkscape:window-height="704"
     id="namedview47"
     showgrid="true"
     inkscape:zoom="41.7193"
     inkscape:cx="12.129771"
     inkscape:cy="2.3753198"
     inkscape:window-x="0"
     inkscape:window-y="27"
     inkscape:window-maximized="1"
     inkscape:current-layer="svg45">
    <inkscape:grid
       type="xygrid"
       id="grid858"
       spacingx="0.5"
       spacingy="0.5"
       empspacing="2" />
  </sodipodi:namedview>
  <radialGradient
     id="a"
     cx="-32"
     cy="9.6"
     gradientTransform="matrix(3.0760953 3.0760953 -15.380477 15.380477 354.61753 -37.56895)"
     gradientUnits="userSpaceOnUse"
     r="5.6">
    <stop
       offset="0"
       stop-color="#a50606"
       id="stop2" />
    <stop
       offset="1"
       stop-color="#f20909"
       id="stop4" />
  </radialGradient>
  <filter
     id="b">
    <feGaussianBlur
       stdDeviation="2.4"
       id="feGaussianBlur7" />
  </filter>
  <linearGradient
     id="c"
     gradientTransform="matrix(.1133598 0 0 .1691546 .642795 -76.95463)"
     gradientUnits="userSpaceOnUse"
     x1="399.77466"
     x2="399.77466"
     y1="681.00012"
     y2="549.33234">
    <stop
       offset="0"
       stop-color="#cbcbcd"
       id="stop10" />
    <stop
       offset=".5"
       stop-color="#e0e0e2"
       id="stop12" />
    <stop
       offset="1"
       stop-color="#fff"
       id="stop14" />
  </linearGradient>
  <rect
     style="fill:#f3b7d9;stroke:#9d3a9b"
     id="rect61"
     width="13"
     height="11"
     x="1.5000001"
     y="2.5"
     ry="1.5" />
  <path
     style="fill:#9d3a9b;stroke:#9d3a9b"
     d="m 3,2.5 h 10 c 0.831,0 1.5,1.5 1.5,1.5 V 4 4.5 H 1.5000001 V 4 4 C 1.5000001,4 2.169,2.5 3,2.5 Z"
     id="rect871"
     inkscape:connector-curvature="0"
     sodipodi:nodetypes="ssssccsss" />
  <path
     style="fill:none;stroke:#9d3a9b;stroke-width:1px;stroke-linecap:round;stroke-linejoin:miter;stroke-opacity:1"
     d="M 1.5000001,7.5 H 14.5"
     id="path875"
     inkscape:connector-curvature="0"
     sodipodi:nodetypes="cc" />
  <path
     style="fill:none;stroke:#9d3a9b;stroke-width:1px;stroke-linecap:round;stroke-linejoin:miter;stroke-opacity:1"
     d="M 1.5000001,10.5 H 14.5"
     id="path879"
     inkscape:connector-curvature="0"
     sodipodi:nodetypes="cc" />
  <path
     style="fill:none;stroke:#9d3a9b;stroke-width:1px;stroke-linecap:round;stroke-linejoin:miter;stroke-opacity:1"
     d="m 5.5000001,2.5 v 11"
     id="path867"
     inkscape:connector-curvature="0"
     sodipodi:nodetypes="cc" />
  <path
     style="fill:none;stroke:#9d3a9b;stroke-width:1px;stroke-linecap:round;stroke-linejoin:miter;stroke-opacity:1"
     d="m 9.5000001,2.5 v 11"
     id="path869"
     inkscape:connector-curvature="0"
     sodipodi:nodetypes="cc" />
  <g
     id="g910"
     transform="translate(-13.175894,-0.125041)">
    <path
       id="path139"
       d="m 21.660156,5.1816406 a 1.339546,1.339546 0 0 0 -0.09375,0.00586 1.339546,1.339546 0 0 0 -0.115234,0.015625 1.339546,1.339546 0 0 0 -0.03125,0.00586 1.339546,1.339546 0 0 0 -0.07031,0.015625 1.339546,1.339546 0 0 0 -0.07031,0.019531 1.339546,1.339546 0 0 0 -0.03711,0.011719 1.339546,1.339546 0 0 0 -0.0918,0.035156 1.339546,1.339546 0 0 0 -0.03516,0.017578 1.339546,1.339546 0 0 0 -0.08203,0.039062 1.339546,1.339546 0 0 0 -0.04297,0.027344 1.339546,1.339546 0 0 0 -0.07227,0.044922 1.339546,1.339546 0 0 0 -0.05273,0.039063 1.339546,1.339546 0 0 0 -0.04102,0.033203 1.339546,1.339546 0 0 0 -0.0918,0.082031 L 20.521474,5.785157 19.574209,6.7324227 a 1.339546,1.339546 0 0 0 0,1.8945312 L 20.521484,9.5742188 20.947266,10 l -0.425782,0.425781 -0.947265,0.947266 a 1.339546,1.339546 0 0 0 0,1.894531 l 0.947265,0.947266 0.210938,0.210937 a 1.339546,1.339546 0 0 0 0.0918,0.08203 1.339546,1.339546 0 0 0 0.04102,0.0332 1.339546,1.339546 0 0 0 0.05273,0.03906 1.339546,1.339546 0 0 0 0.07227,0.04492 1.339546,1.339546 0 0 0 0.04297,0.02734 1.339546,1.339546 0 0 0 0.08203,0.03906 1.339546,1.339546 0 0 0 0.03516,0.01758 1.339546,1.339546 0 0 0 0.0918,0.03516 1.339546,1.339546 0 0 0 0.03711,0.01172 1.339546,1.339546 0 0 0 0.07031,0.01953 1.339546,1.339546 0 0 0 0.06445,0.01563 1.339546,1.339546 0 0 0 0.101563,0.01563 1.339546,1.339546 0 0 0 0.0098,0.002 1.339546,1.339546 0 0 0 0.002,0 1.339546,1.339546 0 0 0 0.105468,0.0078 1.339546,1.339546 0 0 0 0.02734,0.002 1.339546,1.339546 0 0 0 0.01563,0 1.339546,1.339546 0 0 0 0.117188,-0.0059 1.339546,1.339546 0 0 0 0.111328,-0.01563 1.339546,1.339546 0 0 0 0.02148,-0.002 1.339546,1.339546 0 0 0 0.01563,-0.0039 1.339546,1.339546 0 0 0 0.06836,-0.01563 1.339546,1.339546 0 0 0 0.07031,-0.01953 1.339546,1.339546 0 0 0 0.03711,-0.01172 1.339546,1.339546 0 0 0 0.0918,-0.03516 1.339546,1.339546 0 0 0 0.03516,-0.01758 1.339546,1.339546 0 0 0 0.08203,-0.03906 1.339546,1.339546 0 0 0 0.03711,-0.02344 1.339546,1.339546 0 0 0 0.08789,-0.05664 1.339546,1.339546 0 0 0 0.09766,-0.07617 1.339546,1.339546 0 0 0 0.0078,-0.0059 1.339546,1.339546 0 0 0 0.07031,-0.06445 L 24,13.052734 l 1.373047,1.373047 a 1.339546,1.339546 0 0 0 0.07813,0.07031 1.339546,1.339546 0 0 0 0.09766,0.07617 1.339546,1.339546 0 0 0 0.08789,0.05664 1.339546,1.339546 0 0 0 0.03711,0.02344 1.339546,1.339546 0 0 0 0.08203,0.03906 1.339546,1.339546 0 0 0 0.03516,0.01758 1.339546,1.339546 0 0 0 0.0918,0.03516 1.339546,1.339546 0 0 0 0.03711,0.01172 1.339546,1.339546 0 0 0 0.07031,0.01953 1.339546,1.339546 0 0 0 0.06836,0.01563 1.339546,1.339546 0 0 0 0.03711,0.0059 1.339546,1.339546 0 0 0 0.111328,0.01563 1.339546,1.339546 0 0 0 0.117188,0.0059 1.339546,1.339546 0 0 0 0.01563,0 1.339546,1.339546 0 0 0 0.02734,-0.002 1.339546,1.339546 0 0 0 0.105468,-0.0078 1.339546,1.339546 0 0 0 0.002,0 1.339546,1.339546 0 0 0 0.0098,-0.002 1.339546,1.339546 0 0 0 0.101563,-0.01563 1.339546,1.339546 0 0 0 0.06445,-0.01563 1.339546,1.339546 0 0 0 0.07031,-0.01953 1.339546,1.339546 0 0 0 0.01367,-0.0039 1.339546,1.339546 0 0 0 0.02344,-0.0078 1.339546,1.339546 0 0 0 0.0918,-0.03516 1.339546,1.339546 0 0 0 0.0098,-0.0039 1.339546,1.339546 0 0 0 0.02539,-0.01367 1.339546,1.339546 0 0 0 0.08203,-0.03906 1.339546,1.339546 0 0 0 0.01367,-0.0078 1.339546,1.339546 0 0 0 0.0293,-0.01953 1.339546,1.339546 0 0 0 0.07227,-0.04492 1.339546,1.339546 0 0 0 0.05273,-0.03906 1.339546,1.339546 0 0 0 0.0332,-0.02539 1.339546,1.339546 0 0 0 0.0078,-0.0078 1.339546,1.339546 0 0 0 0.0918,-0.08203 l 0.210938,-0.210937 0.947265,-0.947266 a 1.339546,1.339546 0 0 0 0,-1.894531 L 27.478516,10.425781 27.052734,10 27.478516,9.5742188 28.425781,8.6269531 a 1.339546,1.339546 0 0 0 0,-1.8945312 L 27.478516,5.7851562 27.267578,5.5742188 a 1.339546,1.339546 0 0 0 -0.0918,-0.082031 1.339546,1.339546 0 0 0 -0.0078,-0.00781 1.339546,1.339546 0 0 0 -0.07422,-0.056641 1.339546,1.339546 0 0 0 -0.01172,-0.00781 1.339546,1.339546 0 0 0 -0.07227,-0.044922 1.339546,1.339546 0 0 0 -0.0293,-0.019531 1.339546,1.339546 0 0 0 -0.01367,-0.00781 1.339546,1.339546 0 0 0 -0.08203,-0.039062 1.339546,1.339546 0 0 0 -0.02539,-0.013672 1.339546,1.339546 0 0 0 -0.0098,-0.00391 1.339546,1.339546 0 0 0 -0.0918,-0.035156 1.339546,1.339546 0 0 0 -0.02344,-0.00781 1.339546,1.339546 0 0 0 -0.01367,-0.00391 1.339546,1.339546 0 0 0 -0.07031,-0.019531 1.339546,1.339546 0 0 0 -0.07031,-0.015625 1.339546,1.339546 0 0 0 -0.03125,-0.00586 1.339546,1.339546 0 0 0 -0.115234,-0.015625 1.339546,1.339546 0 0 0 -0.09375,-0.00586 1.339546,1.339546 0 0 0 -0.02344,0 1.339546,1.339546 0 0 0 -0.04297,0.00195 1.339546,1.339546 0 0 0 -0.105469,0.00781 1.339546,1.339546 0 0 0 -0.002,0 1.339546,1.339546 0 0 0 -0.0098,0.00195 1.339546,1.339546 0 0 0 -0.101562,0.015625 1.339546,1.339546 0 0 0 -0.06445,0.015625 1.339546,1.339546 0 0 0 -0.07031,0.019531 1.339546,1.339546 0 0 0 -0.03711,0.011719 1.339546,1.339546 0 0 0 -0.0918,0.035156 1.339546,1.339546 0 0 0 -0.03516,0.017578 1.339546,1.339546 0 0 0 -0.08203,0.039062 1.339546,1.339546 0 0 0 -0.04297,0.027344 1.339546,1.339546 0 0 0 -0.07227,0.044922 1.339546,1.339546 0 0 0 -0.05273,0.039063 1.339546,1.339546 0 0 0 -0.04102,0.033203 1.339546,1.339546 0 0 0 -0.0918,0.082031 L 24,6.9472656 22.626953,5.5742188 a 1.339546,1.339546 0 0 0 -0.0918,-0.082031 1.339546,1.339546 0 0 0 -0.04102,-0.033203 1.339546,1.339546 0 0 0 -0.05273,-0.039063 1.339546,1.339546 0 0 0 -0.07227,-0.044922 1.339546,1.339546 0 0 0 -0.04297,-0.027344 1.339546,1.339546 0 0 0 -0.08203,-0.039062 1.339546,1.339546 0 0 0 -0.03516,-0.017578 1.339546,1.339546 0 0 0 -0.0918,-0.035156 1.339546,1.339546 0 0 0 -0.03711,-0.011719 1.339546,1.339546 0 0 0 -0.07031,-0.019531 1.339546,1.339546 0 0 0 -0.06445,-0.015625 1.339546,1.339546 0 0 0 -0.101562,-0.015625 1.339546,1.339546 0 0 0 -0.0098,-0.00195 1.339546,1.339546 0 0 0 -0.002,0 1.339546,1.339546 0 0 0 -0.105469,-0.00781 1.339546,1.339546 0 0 0 -0.04297,-0.00195 1.339546,1.339546 0 0 0 -0.02344,0 z"
       style="fill:#f0e3ec;fill-opacity:1;stroke-width:0.125"
       inkscape:connector-curvature="0" />
    <path
       style="fill:#ec0606;fill-opacity:1;stroke-width:0.125"
       inkscape:connector-curvature="0"
       id="path141"
       d="m 21.679539,6.5209283 2.32046,2.3204599 2.32046,-2.3204599 1.158611,1.1586087 -2.320459,2.3204607 2.320459,2.3204613 -1.158611,1.158613 -2.32046,-2.32046 -2.32046,2.32046 L 20.52093,12.320458 22.841388,9.9999977 20.52093,7.679537 Z" />
  </g>
</svg>
