<?xml version="1.0" encoding="UTF-8" standalone="no"?>
<svg
   xmlns:dc="http://purl.org/dc/elements/1.1/"
   xmlns:cc="http://creativecommons.org/ns#"
   xmlns:rdf="http://www.w3.org/1999/02/22-rdf-syntax-ns#"
   xmlns:svg="http://www.w3.org/2000/svg"
   xmlns="http://www.w3.org/2000/svg"
   xmlns:sodipodi="http://sodipodi.sourceforge.net/DTD/sodipodi-0.dtd"
   xmlns:inkscape="http://www.inkscape.org/namespaces/inkscape"
   height="16"
   viewBox="0 0 16 16"
   width="16"
   version="1.1"
   id="svg111"
   sodipodi:docname="sc_dbformopen.svg"
   inkscape:version="0.92.3 (2405546, 2018-03-11)">
  <metadata
     id="metadata117">
    <rdf:RDF>
      <cc:Work
         rdf:about="">
        <dc:format>image/svg+xml</dc:format>
        <dc:type
           rdf:resource="http://purl.org/dc/dcmitype/StillImage" />
        <dc:title></dc:title>
      </cc:Work>
    </rdf:RDF>
  </metadata>
  <defs
     id="defs115" />
  <sodipodi:namedview
     pagecolor="#ffffff"
     bordercolor="#666666"
     borderopacity="1"
     objecttolerance="10"
     gridtolerance="10"
     guidetolerance="10"
     inkscape:pageopacity="0"
     inkscape:pageshadow="2"
     inkscape:window-width="1366"
     inkscape:window-height="705"
     id="namedview113"
     showgrid="true"
     inkscape:zoom="32"
     inkscape:cx="7.4802389"
     inkscape:cy="8.5546501"
     inkscape:window-x="-8"
     inkscape:window-y="-8"
     inkscape:window-maximized="1"
     inkscape:current-layer="svg111">
    <inkscape:grid
       type="xygrid"
       id="grid924" />
  </sodipodi:namedview>
  <clipPath
     id="a">
    <rect
       height="40.457153"
       rx="4"
       width="80.914307"
       x="30.971436"
       y="939.09216"
       id="rect2" />
  </clipPath>
  <filter
     id="b">
    <feGaussianBlur
       stdDeviation="2.4"
       id="feGaussianBlur5" />
  </filter>
  <linearGradient
     id="c"
     gradientTransform="matrix(.1133598 0 0 .1691546 .642795 -76.95463)"
     gradientUnits="userSpaceOnUse"
     x1="417.76013"
     x2="417.76013"
     y1="691.40674"
     y2="549.52472">
    <stop
       offset="0"
       stop-color="#cbcbcd"
       id="stop8" />
    <stop
       offset=".5"
       stop-color="#e0e0e2"
       id="stop10" />
    <stop
       offset="1"
       stop-color="#fff"
       id="stop12" />
  </linearGradient>
  <linearGradient
     id="d"
     gradientTransform="matrix(1.25 0 0 1 -145.53581 -244.8761)"
     gradientUnits="userSpaceOnUse"
     x1="167.62865"
     x2="167.62865"
     y1="340.8761"
     y2="308.8761">
    <stop
       offset="0"
       stop-color="#cbcbcd"
       id="stop15" />
    <stop
       offset=".66545075"
       stop-color="#e0e0e2"
       id="stop17" />
    <stop
       offset="1"
       stop-color="#fff"
       id="stop19" />
  </linearGradient>
  <linearGradient
     id="e"
     gradientUnits="userSpaceOnUse"
     x1="8"
     x2="8"
     y1="5"
     y2="15">
    <stop
       offset="0"
       stop-color="#5678c8"
       id="stop22" />
    <stop
       offset=".94117647"
       stop-color="#3f59ae"
       id="stop24" />
    <stop
       offset="1"
       stop-color="#3d7cdb"
       id="stop26" />
  </linearGradient>
  <linearGradient
     id="f"
     gradientUnits="userSpaceOnUse"
     x1="5.5"
     x2="5.5"
     y1="12"
     y2="13">
    <stop
       offset="0"
       stop-color="#174072"
       id="stop29" />
    <stop
       offset="1"
       stop-color="#174072"
       stop-opacity="0"
       id="stop31" />
  </linearGradient>
  <linearGradient
     id="g"
     gradientUnits="userSpaceOnUse"
     x1="9"
     x2="9"
     y1="-1"
     y2="10">
    <stop
       offset="0"
       stop-color="#102134"
       id="stop34" />
    <stop
       offset="1"
       stop-color="#102134"
       stop-opacity="0"
       id="stop36" />
  </linearGradient>
  <filter
     id="h"
     color-interpolation-filters="sRGB"
     height="1.267833"
     width="1.129187"
     x="-.064594"
     y="-.133917">
    <feGaussianBlur
       stdDeviation="3.1247207"
       id="feGaussianBlur39" />
  </filter>
  <linearGradient
     id="i"
     gradientUnits="userSpaceOnUse"
     x1=".37741"
     x2=".37741"
     y1="5.214652"
     y2="3.309088">
    <stop
       offset="0"
       stop-color="#34608f"
       id="stop42" />
    <stop
       offset="1"
       stop-color="#34608f"
       stop-opacity="0"
       id="stop44" />
  </linearGradient>
  <linearGradient
     id="j"
     gradientTransform="matrix(.21345221 0 0 .1138394 -11.411169 -103.22724)"
     gradientUnits="userSpaceOnUse"
     x1="124.01234"
     x2="124.01234"
     y1="966.51019"
     y2="935.34326">
    <stop
       offset="0"
       id="stop47" />
    <stop
       offset="1"
       stop-color="#34608f"
       stop-opacity="0"
       id="stop49" />
  </linearGradient>
  <linearGradient
     id="k"
     gradientUnits="userSpaceOnUse"
     x1="55"
     x2="55"
     y1="1036.4132"
     y2="1032.4822">
    <stop
       offset="0"
       stop-color="#003d7b"
       id="stop52" />
    <stop
       offset="1"
       stop-color="#003d7b"
       stop-opacity="0"
       id="stop54" />
  </linearGradient>
  <filter
     id="l"
     color-interpolation-filters="sRGB"
     height="1.697208"
     width="1.027888"
     x="-.013944"
     y="-.348604">
    <feGaussianBlur
       stdDeviation=".70882694"
       id="feGaussianBlur57" />
  </filter>
  <filter
     id="m"
     color-interpolation-filters="sRGB"
     height="1.869989"
     width="1.027669"
     x="-.013834"
     y="-.434994">
    <feGaussianBlur
       stdDeviation=".70324038"
       id="feGaussianBlur60" />
  </filter>
  <g
     id="g943">
    <g
       id="g81"
       transform="matrix(0.125,0,0,0.125,0,-1)">
      <rect
         style="fill:#f0e3ec;stroke:#9d3a9b;stroke-width:0.99484539;stroke-linecap:round;stroke-linejoin:round;stroke-opacity:1"
         id="rect65"
         y="16.497421"
         x="8.0599194"
         width="111.42268"
         rx="9.9484532e-007"
         height="95.505157" />
      <rect
         style="fill:#9d3a9b;fill-opacity:0.16763;stroke:none;stroke-width:0.99484539;stroke-linecap:round;stroke-linejoin:round;stroke-opacity:1"
         id="rect67"
         y="32.414948"
         x="16.018681"
         width="95.505157"
         ry="9.9484532e-007"
         rx="1.9896906e-006"
         height="23.876291" />
      <rect
         style="fill:#ffffff;stroke:none;stroke-width:0.99484539;stroke-linecap:round;stroke-linejoin:round;stroke-opacity:1"
         id="rect69"
         y="40.373711"
         x="23.977444"
         width="79.587631"
         ry="0"
         rx="1.9896906e-006"
         height="15.917527" />
      <rect
         style="fill:#9d3a9b;fill-opacity:0.375;stroke:none;stroke-width:0.99484539;stroke-linecap:round;stroke-linejoin:round;stroke-opacity:1"
         id="rect71"
         y="-104.04382"
         x="23.977444"
         width="79.587631"
         transform="scale(1,-1)"
         ry="9.9484532e-007"
         rx="1.9896906e-006"
         height="31.835054" />
      <rect
         style="fill:#ffffff;fill-opacity:1;stroke:none;stroke-width:0.99484539;stroke-linecap:round;stroke-linejoin:round;stroke-opacity:1"
         id="rect73"
         y="72.208763"
         x="23.977444"
         width="79.587631"
         ry="9.9484532e-007"
         rx="1.9896906e-006"
         height="23.876291" />
      <g
         style="stroke-width:0.65700603"
         id="g79">
        <path
           inkscape:connector-curvature="0"
           id="path75"
           d="m 44.782489,91.387859 q -2.522902,-2.811985 -2.522902,-7.227064 0,-4.415079 2.522902,-7.227064 2.549183,-2.811985 6.675179,-2.811985 4.152277,0 6.701459,2.811985 2.549183,2.785705 2.549183,7.358465 0,4.257398 -2.522903,7.095663 -2.496622,2.811984 -6.701459,2.811984 -4.178556,0 -6.701459,-2.811984 z m 6.701459,-13.902243 q -2.391501,0 -3.836913,1.839616 -1.445413,1.813336 -1.445413,4.835563 0,3.022226 1.445413,4.861843 1.445412,1.813336 3.836913,1.813336 2.365221,0 3.810634,-1.813336 1.471693,-1.813336 1.471693,-4.756722 0,-3.101068 -1.445413,-4.940684 -1.419132,-1.839616 -3.836914,-1.839616 z" />
        <path
           inkscape:connector-curvature="0"
           id="path77"
           d="m 72.784262,87.183021 v 6.412377 H 68.842228 V 74.437109 h 3.942034 v 8.409674 l 7.489866,-8.409674 h 4.651601 l -7.647547,8.251993 8.462234,10.906296 H 81.036255 L 74.75528,85.133163 Z" />
      </g>
    </g>
    <path
       style="fill:#f3b7d9"
       id="path87"
       d="M 4.5,5 C 4,5 4,5.3826937 4,5.5 V 7 l -10e-8,2.9999993 c 0,0.5539997 0.446,0.9999997 1,0.9999997 L 15,11 c 0.554,0 1,-0.446 1,-1 V 7.0000007 c 0,-0.554 -0.446,-0.9999999 -1,-1 L 9.9042969,6 C 9.8200959,5.5140493 9.7262959,5 9.5,5 Z"
       inkscape:connector-curvature="0" />
    <path
       id="path89"
       d="m 4.9999999,5.9999993 h 3 v 0.9999999 h -3 z"
       inkscape:connector-curvature="0"
       style="fill:#fcf9e9" />
    <path
       style="opacity:0.25;fill:#e602b4;fill-opacity:1"
       id="path91"
       d="m 4.4999999,4.9999993 c -0.5,0 -0.5,0.3826937 -0.5,0.5 v 1.5 3 c 0,0.5539997 0.446,0.9999997 1,0.9999997 v -3.9999997 -1 h 3.8828125 c 0.013345,0.068527 0.023996,0.094239 0.037109,0.1699219 0.082673,0.4792195 0.4980774,0.8295107 0.9843754,0.8300781 H 11 L 15,7 v 4 c 0.554,0 1,-0.446 1,-1 V 7 C 16,6.446 15.554,6.0000001 15,6 l -5.0957032,-7e-7 c -0.084201,-0.4859507 -0.178001,-1 -0.4042969,-1 z"
       inkscape:connector-curvature="0" />
    <path
       style="fill:#e602b4"
       id="path93"
       d="M 7,6 H 8 V 6.9999999 H 7 Z"
       inkscape:connector-curvature="0" />
    <path
       style="fill:#f3b7d9;fill-opacity:1"
       id="path97"
       d="m 4.9999999,9.9999993 h 2.5 l 1,-1 L 15,9 c 0.554,10e-8 1,0.446 1,1 v 4 c 0,0.554 -0.446,1 -1,1 l -10.0000001,-10e-7 c -0.554,0 -1,-0.446 -1,-1 v -3 c 0,-0.554 0.5673986,-1.3460808 1,-0.9999997 z"
       inkscape:connector-curvature="0" />
    <path
       style="fill:#9d3a9b"
       id="path99"
       d="m 8.4999999,8.9999993 -1,1 h -2.5 c -0.554,0 -1,0.4459997 -1,0.9999997 v 1 c 0,-0.554 0.5673987,-1.346081 1,-1 h 2.5 l 1,-0.9999997 L 15,10 c 0.554,0 1,0.446 1,1 V 10 C 16,9.446 15.554,9 15,9 Z"
       inkscape:connector-curvature="0" />
    <path
       style="fill:#9d3a9b"
       id="path101"
       d="M 3.9999999,11.999999 16,12 v 1 l -12.0000001,-10e-7 z"
       inkscape:connector-curvature="0" />
    <path
       style="fill:#e602b4"
       id="path105"
       d="M 3.9999999,12.999999 16,13 v 0.5 l -12.0000001,-10e-7 z"
       inkscape:connector-curvature="0" />
  </g>
</svg>
