<?xml version="1.0" encoding="UTF-8" standalone="no"?>
<svg
   xmlns:dc="http://purl.org/dc/elements/1.1/"
   xmlns:cc="http://creativecommons.org/ns#"
   xmlns:rdf="http://www.w3.org/1999/02/22-rdf-syntax-ns#"
   xmlns:svg="http://www.w3.org/2000/svg"
   xmlns="http://www.w3.org/2000/svg"
   xmlns:sodipodi="http://sodipodi.sourceforge.net/DTD/sodipodi-0.dtd"
   xmlns:inkscape="http://www.inkscape.org/namespaces/inkscape"
   enable-background="new 0 0 128 128"
   height="16"
   viewBox="0 0 16 16"
   width="16"
   version="1.1"
   id="svg110"
   sodipodi:docname="sc_deletepage.svg"
   inkscape:version="0.92.4 (5da689c313, 2019-01-14)">
  <metadata
     id="metadata116">
    <rdf:RDF>
      <cc:Work
         rdf:about="">
        <dc:format>image/svg+xml</dc:format>
        <dc:type
           rdf:resource="http://purl.org/dc/dcmitype/StillImage" />
        <dc:title />
      </cc:Work>
    </rdf:RDF>
  </metadata>
  <defs
     id="defs114" />
  <sodipodi:namedview
     pagecolor="#ffffff"
     bordercolor="#666666"
     borderopacity="1"
     objecttolerance="10"
     gridtolerance="10"
     guidetolerance="10"
     inkscape:pageopacity="0"
     inkscape:pageshadow="2"
     inkscape:window-width="1366"
     inkscape:window-height="704"
     id="namedview112"
     showgrid="true"
     inkscape:zoom="29.5"
     inkscape:cx="7.396503"
     inkscape:cy="8.3768275"
     inkscape:window-x="0"
     inkscape:window-y="27"
     inkscape:window-maximized="1"
     inkscape:current-layer="svg110">
    <inkscape:grid
       type="xygrid"
       id="grid118"
       spacingx="0.5"
       spacingy="0.5"
       empspacing="2" />
  </sodipodi:namedview>
  <radialGradient
     id="a"
     cx="-32"
     cy="9.6"
     gradientTransform="matrix(0.45052565,0.45052565,-2.2526284,2.2526284,41.046891,-4.530471)"
     gradientUnits="userSpaceOnUse"
     r="5.6">
    <stop
       offset="0"
       stop-color="#a50606"
       id="stop2" />
    <stop
       offset="1"
       stop-color="#f20909"
       id="stop4" />
  </radialGradient>
  <linearGradient
     id="b"
     gradientUnits="userSpaceOnUse"
     x1="85.219681"
     x2="61.336319"
     y1="93.219681"
     y2="69.336319">
    <stop
       offset="0"
       id="stop7" />
    <stop
       offset="1"
       stop-color="#393b38"
       id="stop9" />
  </linearGradient>
  <linearGradient
     id="c"
     gradientUnits="userSpaceOnUse"
     x1="96"
     x2="88.000198"
     y1="104"
     y2="96.000198">
    <stop
       offset="0"
       stop-color="#888a85"
       id="stop12" />
    <stop
       offset=".0072"
       stop-color="#8c8e89"
       id="stop14" />
    <stop
       offset=".0673"
       stop-color="#abaca9"
       id="stop16" />
    <stop
       offset=".1347"
       stop-color="#c5c6c4"
       id="stop18" />
    <stop
       offset=".2115"
       stop-color="#dbdbda"
       id="stop20" />
    <stop
       offset=".3012"
       stop-color="#ebebeb"
       id="stop22" />
    <stop
       offset=".4122"
       stop-color="#f7f7f6"
       id="stop24" />
    <stop
       offset=".5679"
       stop-color="#fdfdfd"
       id="stop26" />
    <stop
       offset="1"
       stop-color="#fff"
       id="stop28" />
  </linearGradient>
  <radialGradient
     id="d"
     cx="102"
     cy="112.3047"
     gradientTransform="matrix(0.12234042,0,0,0.12272727,17.191694,0.1454665)"
     gradientUnits="userSpaceOnUse"
     r="139.55859">
    <stop
       offset="0"
       stop-color="#535557"
       id="stop31" />
    <stop
       offset=".11366145"
       stop-color="#898a8c"
       id="stop33" />
    <stop
       offset=".20296688"
       stop-color="#ececec"
       id="stop35" />
    <stop
       offset=".2363"
       stop-color="#fafafa"
       id="stop37" />
    <stop
       offset=".2722"
       stop-color="#fff"
       id="stop39" />
    <stop
       offset=".5313"
       stop-color="#fafafa"
       id="stop41" />
    <stop
       offset=".8449"
       stop-color="#ebecec"
       id="stop43" />
    <stop
       offset="1"
       stop-color="#e1e2e3"
       id="stop45" />
  </radialGradient>
  <radialGradient
     id="e"
     cx="102"
     cy="112.3047"
     gradientUnits="userSpaceOnUse"
     r="139.5585"
     gradientTransform="matrix(0.125,0,0,0.125,17.021481,1.2e-5)">
    <stop
       offset="0"
       stop-color="#00537d"
       id="stop48" />
    <stop
       offset=".0151"
       stop-color="#186389"
       id="stop50" />
    <stop
       offset=".0558"
       stop-color="#558ca8"
       id="stop52" />
    <stop
       offset=".0964"
       stop-color="#89afc3"
       id="stop54" />
    <stop
       offset=".1357"
       stop-color="#b3ccd8"
       id="stop56" />
    <stop
       offset=".1737"
       stop-color="#d4e2e9"
       id="stop58" />
    <stop
       offset=".2099"
       stop-color="#ecf2f5"
       id="stop60" />
    <stop
       offset=".2435"
       stop-color="#fafcfd"
       id="stop62" />
    <stop
       offset=".2722"
       stop-color="#fff"
       id="stop64" />
  </radialGradient>
  <filter
     id="f">
    <feGaussianBlur
       stdDeviation="1.0394514"
       id="feGaussianBlur67" />
  </filter>
  <filter
     id="g">
    <feGaussianBlur
       stdDeviation=".50063244"
       id="feGaussianBlur70" />
  </filter>
  <filter
     id="h">
    <feGaussianBlur
       stdDeviation=".4901192"
       id="feGaussianBlur73" />
  </filter>
  <filter
     id="i">
    <feGaussianBlur
       stdDeviation=".90565481"
       id="feGaussianBlur76" />
  </filter>
  <filter
     id="j"
     height="1.247155"
     width="1.247155"
     x="-.123577"
     y="-.123577">
    <feGaussianBlur
       stdDeviation="1.7720846"
       id="feGaussianBlur79" />
  </filter>
  <path
     style="fill:#f0e3ec;stroke:#e602b4;stroke-width:1px;stroke-linecap:butt;stroke-linejoin:round;stroke-opacity:1"
     d="m 4,1.5 h 8 c 1,0 1.5,0.5 1.5,1.5 v 8 c 0,1 -2.5,3.5 -3.5,3.5 H 4 C 3,14.5 2.5,14 2.5,13 V 3 C 2.5,2 3,1.5 4,1.5 Z"
     id="path4577"
     inkscape:connector-curvature="0"
     sodipodi:nodetypes="ccccccccc" />
  <path
     style="fill:none;stroke:#e602b4;stroke-width:1px;stroke-linecap:butt;stroke-linejoin:miter;stroke-opacity:1"
     d="m 10.5,14.5 c 0,-3 0,-3 3,-3"
     id="path4579"
     inkscape:connector-curvature="0"
     sodipodi:nodetypes="cc" />
  <g
     id="g910"
     transform="translate(-18.160062,-5.1816498)">
    <path
       id="path139"
       d="m 21.660156,5.1816406 a 1.339546,1.339546 0 0 0 -0.09375,0.00586 1.339546,1.339546 0 0 0 -0.115234,0.015625 1.339546,1.339546 0 0 0 -0.03125,0.00586 1.339546,1.339546 0 0 0 -0.07031,0.015625 1.339546,1.339546 0 0 0 -0.07031,0.019531 1.339546,1.339546 0 0 0 -0.03711,0.011719 1.339546,1.339546 0 0 0 -0.0918,0.035156 1.339546,1.339546 0 0 0 -0.03516,0.017578 1.339546,1.339546 0 0 0 -0.08203,0.039062 1.339546,1.339546 0 0 0 -0.04297,0.027344 1.339546,1.339546 0 0 0 -0.07227,0.044922 1.339546,1.339546 0 0 0 -0.05273,0.039063 1.339546,1.339546 0 0 0 -0.04102,0.033203 1.339546,1.339546 0 0 0 -0.0918,0.082031 L 20.521474,5.785157 19.574209,6.7324227 a 1.339546,1.339546 0 0 0 0,1.8945312 L 20.521484,9.5742188 20.947266,10 l -0.425782,0.425781 -0.947265,0.947266 a 1.339546,1.339546 0 0 0 0,1.894531 l 0.947265,0.947266 0.210938,0.210937 a 1.339546,1.339546 0 0 0 0.0918,0.08203 1.339546,1.339546 0 0 0 0.04102,0.0332 1.339546,1.339546 0 0 0 0.05273,0.03906 1.339546,1.339546 0 0 0 0.07227,0.04492 1.339546,1.339546 0 0 0 0.04297,0.02734 1.339546,1.339546 0 0 0 0.08203,0.03906 1.339546,1.339546 0 0 0 0.03516,0.01758 1.339546,1.339546 0 0 0 0.0918,0.03516 1.339546,1.339546 0 0 0 0.03711,0.01172 1.339546,1.339546 0 0 0 0.07031,0.01953 1.339546,1.339546 0 0 0 0.06445,0.01563 1.339546,1.339546 0 0 0 0.101563,0.01563 1.339546,1.339546 0 0 0 0.0098,0.002 1.339546,1.339546 0 0 0 0.002,0 1.339546,1.339546 0 0 0 0.105468,0.0078 1.339546,1.339546 0 0 0 0.02734,0.002 1.339546,1.339546 0 0 0 0.01563,0 1.339546,1.339546 0 0 0 0.117188,-0.0059 1.339546,1.339546 0 0 0 0.111328,-0.01563 1.339546,1.339546 0 0 0 0.02148,-0.002 1.339546,1.339546 0 0 0 0.01563,-0.0039 1.339546,1.339546 0 0 0 0.06836,-0.01563 1.339546,1.339546 0 0 0 0.07031,-0.01953 1.339546,1.339546 0 0 0 0.03711,-0.01172 1.339546,1.339546 0 0 0 0.0918,-0.03516 1.339546,1.339546 0 0 0 0.03516,-0.01758 1.339546,1.339546 0 0 0 0.08203,-0.03906 1.339546,1.339546 0 0 0 0.03711,-0.02344 1.339546,1.339546 0 0 0 0.08789,-0.05664 1.339546,1.339546 0 0 0 0.09766,-0.07617 1.339546,1.339546 0 0 0 0.0078,-0.0059 1.339546,1.339546 0 0 0 0.07031,-0.06445 L 24,13.052734 l 1.373047,1.373047 a 1.339546,1.339546 0 0 0 0.07813,0.07031 1.339546,1.339546 0 0 0 0.09766,0.07617 1.339546,1.339546 0 0 0 0.08789,0.05664 1.339546,1.339546 0 0 0 0.03711,0.02344 1.339546,1.339546 0 0 0 0.08203,0.03906 1.339546,1.339546 0 0 0 0.03516,0.01758 1.339546,1.339546 0 0 0 0.0918,0.03516 1.339546,1.339546 0 0 0 0.03711,0.01172 1.339546,1.339546 0 0 0 0.07031,0.01953 1.339546,1.339546 0 0 0 0.06836,0.01563 1.339546,1.339546 0 0 0 0.03711,0.0059 1.339546,1.339546 0 0 0 0.111328,0.01563 1.339546,1.339546 0 0 0 0.117188,0.0059 1.339546,1.339546 0 0 0 0.01563,0 1.339546,1.339546 0 0 0 0.02734,-0.002 1.339546,1.339546 0 0 0 0.105468,-0.0078 1.339546,1.339546 0 0 0 0.002,0 1.339546,1.339546 0 0 0 0.0098,-0.002 1.339546,1.339546 0 0 0 0.101563,-0.01563 1.339546,1.339546 0 0 0 0.06445,-0.01563 1.339546,1.339546 0 0 0 0.07031,-0.01953 1.339546,1.339546 0 0 0 0.01367,-0.0039 1.339546,1.339546 0 0 0 0.02344,-0.0078 1.339546,1.339546 0 0 0 0.0918,-0.03516 1.339546,1.339546 0 0 0 0.0098,-0.0039 1.339546,1.339546 0 0 0 0.02539,-0.01367 1.339546,1.339546 0 0 0 0.08203,-0.03906 1.339546,1.339546 0 0 0 0.01367,-0.0078 1.339546,1.339546 0 0 0 0.0293,-0.01953 1.339546,1.339546 0 0 0 0.07227,-0.04492 1.339546,1.339546 0 0 0 0.05273,-0.03906 1.339546,1.339546 0 0 0 0.0332,-0.02539 1.339546,1.339546 0 0 0 0.0078,-0.0078 1.339546,1.339546 0 0 0 0.0918,-0.08203 l 0.210938,-0.210937 0.947265,-0.947266 a 1.339546,1.339546 0 0 0 0,-1.894531 L 27.478516,10.425781 27.052734,10 27.478516,9.5742188 28.425781,8.6269531 a 1.339546,1.339546 0 0 0 0,-1.8945312 L 27.478516,5.7851562 27.267578,5.5742188 a 1.339546,1.339546 0 0 0 -0.0918,-0.082031 1.339546,1.339546 0 0 0 -0.0078,-0.00781 1.339546,1.339546 0 0 0 -0.07422,-0.056641 1.339546,1.339546 0 0 0 -0.01172,-0.00781 1.339546,1.339546 0 0 0 -0.07227,-0.044922 1.339546,1.339546 0 0 0 -0.0293,-0.019531 1.339546,1.339546 0 0 0 -0.01367,-0.00781 1.339546,1.339546 0 0 0 -0.08203,-0.039062 1.339546,1.339546 0 0 0 -0.02539,-0.013672 1.339546,1.339546 0 0 0 -0.0098,-0.00391 1.339546,1.339546 0 0 0 -0.0918,-0.035156 1.339546,1.339546 0 0 0 -0.02344,-0.00781 1.339546,1.339546 0 0 0 -0.01367,-0.00391 1.339546,1.339546 0 0 0 -0.07031,-0.019531 1.339546,1.339546 0 0 0 -0.07031,-0.015625 1.339546,1.339546 0 0 0 -0.03125,-0.00586 1.339546,1.339546 0 0 0 -0.115234,-0.015625 1.339546,1.339546 0 0 0 -0.09375,-0.00586 1.339546,1.339546 0 0 0 -0.02344,0 1.339546,1.339546 0 0 0 -0.04297,0.00195 1.339546,1.339546 0 0 0 -0.105469,0.00781 1.339546,1.339546 0 0 0 -0.002,0 1.339546,1.339546 0 0 0 -0.0098,0.00195 1.339546,1.339546 0 0 0 -0.101562,0.015625 1.339546,1.339546 0 0 0 -0.06445,0.015625 1.339546,1.339546 0 0 0 -0.07031,0.019531 1.339546,1.339546 0 0 0 -0.03711,0.011719 1.339546,1.339546 0 0 0 -0.0918,0.035156 1.339546,1.339546 0 0 0 -0.03516,0.017578 1.339546,1.339546 0 0 0 -0.08203,0.039062 1.339546,1.339546 0 0 0 -0.04297,0.027344 1.339546,1.339546 0 0 0 -0.07227,0.044922 1.339546,1.339546 0 0 0 -0.05273,0.039063 1.339546,1.339546 0 0 0 -0.04102,0.033203 1.339546,1.339546 0 0 0 -0.0918,0.082031 L 24,6.9472656 22.626953,5.5742188 a 1.339546,1.339546 0 0 0 -0.0918,-0.082031 1.339546,1.339546 0 0 0 -0.04102,-0.033203 1.339546,1.339546 0 0 0 -0.05273,-0.039063 1.339546,1.339546 0 0 0 -0.07227,-0.044922 1.339546,1.339546 0 0 0 -0.04297,-0.027344 1.339546,1.339546 0 0 0 -0.08203,-0.039062 1.339546,1.339546 0 0 0 -0.03516,-0.017578 1.339546,1.339546 0 0 0 -0.0918,-0.035156 1.339546,1.339546 0 0 0 -0.03711,-0.011719 1.339546,1.339546 0 0 0 -0.07031,-0.019531 1.339546,1.339546 0 0 0 -0.06445,-0.015625 1.339546,1.339546 0 0 0 -0.101562,-0.015625 1.339546,1.339546 0 0 0 -0.0098,-0.00195 1.339546,1.339546 0 0 0 -0.002,0 1.339546,1.339546 0 0 0 -0.105469,-0.00781 1.339546,1.339546 0 0 0 -0.04297,-0.00195 1.339546,1.339546 0 0 0 -0.02344,0 z"
       style="fill:#f0e3ec;fill-opacity:1;stroke-width:0.125"
       inkscape:connector-curvature="0" />
    <path
       style="fill:#ec0606;fill-opacity:1;stroke-width:0.125"
       inkscape:connector-curvature="0"
       id="path141"
       d="m 21.679539,6.5209283 2.32046,2.3204599 2.32046,-2.3204599 1.158611,1.1586087 -2.320459,2.3204607 2.320459,2.3204613 -1.158611,1.158613 -2.32046,-2.32046 -2.32046,2.32046 L 20.52093,12.320458 22.841388,9.9999977 20.52093,7.679537 Z" />
  </g>
</svg>
