<?xml version="1.0" encoding="UTF-8" standalone="no"?>
<svg
   xmlns:dc="http://purl.org/dc/elements/1.1/"
   xmlns:cc="http://creativecommons.org/ns#"
   xmlns:rdf="http://www.w3.org/1999/02/22-rdf-syntax-ns#"
   xmlns:svg="http://www.w3.org/2000/svg"
   xmlns="http://www.w3.org/2000/svg"
   xmlns:sodipodi="http://sodipodi.sourceforge.net/DTD/sodipodi-0.dtd"
   xmlns:inkscape="http://www.inkscape.org/namespaces/inkscape"
   height="16"
   width="16"
   version="1.1"
   id="svg48"
   sodipodi:docname="sc_dbtablerename.svg"
   inkscape:version="0.92.3 (2405546, 2018-03-11)">
  <metadata
     id="metadata54">
    <rdf:RDF>
      <cc:Work
         rdf:about="">
        <dc:format>image/svg+xml</dc:format>
        <dc:type
           rdf:resource="http://purl.org/dc/dcmitype/StillImage" />
        <dc:title></dc:title>
      </cc:Work>
    </rdf:RDF>
  </metadata>
  <defs
     id="defs52" />
  <sodipodi:namedview
     pagecolor="#ffffff"
     bordercolor="#666666"
     borderopacity="1"
     objecttolerance="10"
     gridtolerance="10"
     guidetolerance="10"
     inkscape:pageopacity="0"
     inkscape:pageshadow="2"
     inkscape:window-width="1366"
     inkscape:window-height="705"
     id="namedview50"
     showgrid="true"
     inkscape:zoom="29.5"
     inkscape:cx="8.7902547"
     inkscape:cy="8.7059896"
     inkscape:window-x="-8"
     inkscape:window-y="-8"
     inkscape:window-maximized="1"
     inkscape:current-layer="svg48">
    <inkscape:grid
       type="xygrid"
       id="grid56" />
  </sodipodi:namedview>
  <filter
     id="a">
    <feGaussianBlur
       stdDeviation="2.4"
       id="feGaussianBlur2" />
  </filter>
  <linearGradient
     id="b"
     gradientTransform="matrix(.1133598 0 0 .1691546 .642795 -76.95463)"
     gradientUnits="userSpaceOnUse"
     x1="399.77466"
     x2="399.77466"
     y1="681.00012"
     y2="549.33234">
    <stop
       offset="0"
       stop-color="#cbcbcd"
       id="stop5" />
    <stop
       offset=".5"
       stop-color="#e0e0e2"
       id="stop7" />
    <stop
       offset="1"
       stop-color="#fff"
       id="stop9" />
  </linearGradient>
  <g
     transform="scale(0.125)"
     id="g30">
    <path
       d="M 7.999997,16 H 120 v 96 H 7.999997 Z"
       id="path14"
       inkscape:connector-curvature="0"
       style="fill:#f3b7d9" />
    <path
       d="m 78.20266,37.61897 v -2.7448 z"
       id="path16"
       inkscape:connector-curvature="0"
       style="fill:#ffffff;fill-opacity:0.756881" />
    <path
       d="m 8,48 h 112 v 64 H 8 Z"
       id="path18"
       inkscape:connector-curvature="0"
       style="fill:#f0e3ec" />
    <g
       id="g28"
       style="fill:#cacacc">
      <path
         d="M 7.999997,88 H 120 v 8 H 7.999997 Z"
         id="path20"
         inkscape:connector-curvature="0"
         style="fill:#f3b7d9" />
      <path
         d="M 7.999997,64 H 120 v 8 H 7.999997 Z"
         id="path22"
         inkscape:connector-curvature="0"
         style="fill:#f3b7d9" />
      <path
         d="m 40,48 h 8 v 64 h -8 z"
         id="path24"
         inkscape:connector-curvature="0"
         style="fill:#f3b7d9" />
      <path
         d="m 80,48 h 8 v 64 h -8 z"
         id="path26"
         inkscape:connector-curvature="0"
         style="fill:#f3b7d9" />
    </g>
  </g>
  <path
     d="m1 6h10v6.118644h-10z"
     fill="#55acd1"
     stroke-width=".199588"
     id="path32"
     style="fill:#e602b4" />
  <g
     transform="scale(0.125)"
     id="g38"
     style="fill:#ffffff;stroke-width:1.07042098">
    <path
       d="M 35.336439,81.787234 H 23.647447 l -2.098024,6.294072 H 14.99845 l 11.089556,-31.21346 h 7.107592 l 10.789838,31.21346 h -6.59379 z m -1.75549,-5.352102 -4.067597,-12.202793 -4.067598,12.202793 z"
       id="path34"
       inkscape:connector-curvature="0" />
    <path
       d="m 81.00155,79.089775 q 0,1.541405 -0.513802,2.997177 -0.513802,1.455772 -1.669856,2.868727 -1.113237,1.412955 -3.382529,2.269291 -2.269291,0.856336 -5.394919,0.856336 H 55.996528 v -31.21346 h 13.915466 q 2.911543,0 5.009567,0.856336 2.140841,0.856337 3.168445,2.226475 1.07042,1.327321 1.541405,2.611826 0.470985,1.284504 0.470985,2.526192 0,2.012391 -0.984786,3.468162 -0.984787,1.455772 -3.296895,2.954361 5.180835,3.039994 5.180835,7.578577 z M 62.41905,62.219948 v 7.064775 h 6.979142 q 4.538583,0 4.538583,-3.510979 0,-3.553796 -4.538583,-3.553796 z m 0,12.416878 v 8.092378 h 7.664211 q 4.752667,0 4.752667,-4.024781 0,-4.067597 -4.752667,-4.067597 z"
       id="path36"
       inkscape:connector-curvature="0" />
  </g>
  <g
     id="g46"
     style="stroke-width:0.25">
    <path
       d="m 10,5 h 5 v 1 h -5 z"
       id="path40"
       inkscape:connector-curvature="0"
       style="fill:#9d3a9b" />
    <path
       d="m 10,14.000008 h 5 v 0.999995 h -5 z"
       id="path42"
       inkscape:connector-curvature="0"
       style="fill:#9d3a9b" />
    <path
       d="m 13,6 v 8 H 12 V 6 Z"
       id="path44"
       inkscape:connector-curvature="0"
       style="fill:#9d3a9b" />
  </g>
</svg>
