<?xml version="1.0" encoding="UTF-8" standalone="no"?>
<svg
   xmlns:dc="http://purl.org/dc/elements/1.1/"
   xmlns:cc="http://creativecommons.org/ns#"
   xmlns:rdf="http://www.w3.org/1999/02/22-rdf-syntax-ns#"
   xmlns:svg="http://www.w3.org/2000/svg"
   xmlns="http://www.w3.org/2000/svg"
   xmlns:sodipodi="http://sodipodi.sourceforge.net/DTD/sodipodi-0.dtd"
   xmlns:inkscape="http://www.inkscape.org/namespaces/inkscape"
   height="16"
   viewBox="0 0 4.2333333 4.2333335"
   width="16"
   version="1.1"
   id="svg24"
   sodipodi:docname="sc_ellipsecut.svg"
   inkscape:version="0.92.4 (5da689c313, 2019-01-14)">
  <metadata
     id="metadata30">
    <rdf:RDF>
      <cc:Work
         rdf:about="">
        <dc:format>image/svg+xml</dc:format>
        <dc:type
           rdf:resource="http://purl.org/dc/dcmitype/StillImage" />
        <dc:title></dc:title>
      </cc:Work>
    </rdf:RDF>
  </metadata>
  <defs
     id="defs28" />
  <sodipodi:namedview
     pagecolor="#ffffff"
     bordercolor="#666666"
     borderopacity="1"
     objecttolerance="10"
     gridtolerance="10"
     guidetolerance="10"
     inkscape:pageopacity="0"
     inkscape:pageshadow="2"
     inkscape:window-width="1600"
     inkscape:window-height="836"
     id="namedview26"
     showgrid="true"
     inkscape:zoom="29.5"
     inkscape:cx="6.5777533"
     inkscape:cy="6.9650891"
     inkscape:window-x="0"
     inkscape:window-y="27"
     inkscape:window-maximized="1"
     inkscape:current-layer="svg24">
    <inkscape:grid
       type="xygrid"
       id="grid840"
       spacingx="0.13229167"
       spacingy="0.13229167"
       empspacing="2" />
  </sodipodi:namedview>
  <linearGradient
     id="a"
     gradientUnits="userSpaceOnUse"
     x1="63.999996"
     x2="63.999996"
     y1="121.89668"
     y2="6.103257">
    <stop
       offset="0"
       stop-color="#fff"
       id="stop2" />
    <stop
       offset=".50643778"
       stop-color="#fff"
       id="stop4" />
    <stop
       offset=".82296139"
       stop-color="#f1f1f1"
       id="stop6" />
    <stop
       offset=".90625"
       stop-color="#eaeaea"
       id="stop8" />
    <stop
       offset="1"
       stop-color="#dfdfdf"
       id="stop10" />
  </linearGradient>
  <linearGradient
     id="b"
     gradientUnits="userSpaceOnUse"
     x1="63.999996"
     x2="63.999996"
     y1="121.89668"
     y2="6.103257">
    <stop
       offset="0"
       stop-color="#7c9fcf"
       id="stop13" />
    <stop
       offset=".5"
       stop-color="#7c9ece"
       id="stop15" />
    <stop
       offset="1"
       stop-color="#7b9dcf"
       id="stop17" />
  </linearGradient>
  <path
     d="m 2.1166667,0.72505507 c -0.4684103,5.47e-6 -0.9356234,0.13471425 -1.28289206,0.38278383 -0.3472687,0.2480685 -0.5726241,0.6202417 -0.5725902,1.0088279 -3.34e-5,0.3885851 0.2253216,0.7607594 0.5725902,1.0088279 0.34726866,0.2480684 0.81448206,0.3827781 1.28289206,0.3827837 0.46841,-5.6e-6 0.9356235,-0.1347153 1.282892,-0.3827837 0.3472685,-0.2480685 0.5726237,-0.6202428 0.5725904,-1.0088279 3.1e-6,-0.038718 -0.00233,-0.077246 -0.0068,-0.1155147 L 2.2303694,0.72777307 c -0.037852,-0.001856 -0.075744,-0.002718 -0.1137027,-0.002718 z m 0,0.23193526 1.623547,1.15967647 c 3e-7,0.6404715 -0.7268866,1.1596764 -1.623547,1.1596764 -0.8966603,0 -1.62354716,-0.5192049 -1.62354696,-1.1596764 -2e-7,-0.6404715 0.72688666,-1.15967647 1.62354696,-1.15967647 z"
     id="path9"
     style="fill:#e602b4;stroke-width:0.03307292"
     inkscape:connector-curvature="0" />
</svg>
