<?xml version="1.0" encoding="UTF-8" standalone="no"?>
<svg
   xmlns:dc="http://purl.org/dc/elements/1.1/"
   xmlns:cc="http://creativecommons.org/ns#"
   xmlns:rdf="http://www.w3.org/1999/02/22-rdf-syntax-ns#"
   xmlns:svg="http://www.w3.org/2000/svg"
   xmlns="http://www.w3.org/2000/svg"
   xmlns:sodipodi="http://sodipodi.sourceforge.net/DTD/sodipodi-0.dtd"
   xmlns:inkscape="http://www.inkscape.org/namespaces/inkscape"
   height="16"
   viewBox="0 0 4.2333333 4.2333333"
   width="16"
   version="1.1"
   id="svg57"
   sodipodi:docname="sc_extrusiontiltright.svg"
   inkscape:version="0.92.4 (5da689c313, 2019-01-14)">
  <metadata
     id="metadata63">
    <rdf:RDF>
      <cc:Work
         rdf:about="">
        <dc:format>image/svg+xml</dc:format>
        <dc:type
           rdf:resource="http://purl.org/dc/dcmitype/StillImage" />
        <dc:title></dc:title>
      </cc:Work>
    </rdf:RDF>
  </metadata>
  <defs
     id="defs61" />
  <sodipodi:namedview
     pagecolor="#ffffff"
     bordercolor="#666666"
     borderopacity="1"
     objecttolerance="10"
     gridtolerance="10"
     guidetolerance="10"
     inkscape:pageopacity="0"
     inkscape:pageshadow="2"
     inkscape:window-width="1600"
     inkscape:window-height="836"
     id="namedview59"
     showgrid="true"
     inkscape:zoom="29.5"
     inkscape:cx="12.817834"
     inkscape:cy="7.0633771"
     inkscape:window-x="0"
     inkscape:window-y="27"
     inkscape:window-maximized="1"
     inkscape:current-layer="svg57">
    <inkscape:grid
       type="xygrid"
       id="grid888"
       spacingx="0.13229167"
       spacingy="0.13229167"
       empspacing="2" />
  </sodipodi:namedview>
  <radialGradient
     id="a"
     cx="280"
     cy="343"
     gradientTransform="matrix(1 0 0 1.1666667 112 252.19551)"
     gradientUnits="userSpaceOnUse"
     r="6">
    <stop
       offset="0"
       stop-color="#1d0a55"
       id="stop2" />
    <stop
       offset="1"
       stop-color="#7248cc"
       id="stop4" />
  </radialGradient>
  <linearGradient
     id="b"
     gradientUnits="userSpaceOnUse"
     x1="394.97141"
     x2="394.97141"
     y1="659.85504"
     y2="650.76632">
    <stop
       offset="0"
       id="stop7" />
    <stop
       offset="1"
       stop-opacity="0"
       id="stop9" />
  </linearGradient>
  <radialGradient
     id="c"
     cx="280"
     cy="346.72141"
     gradientTransform="matrix(1.3757144 0 0 1.6508572 6.79998 84.44032)"
     gradientUnits="userSpaceOnUse"
     r="5">
    <stop
       offset="0"
       stop-color="#d8cee7"
       id="stop12" />
    <stop
       offset="1"
       stop-color="#644a9b"
       id="stop14" />
  </radialGradient>
  <linearGradient
     id="d"
     gradientUnits="userSpaceOnUse"
     x1="397"
     x2="397"
     y1="645.04803"
     y2="657.36218">
    <stop
       offset="0"
       stop-color="#fff"
       id="stop17" />
    <stop
       offset="1"
       stop-color="#fff"
       stop-opacity="0"
       id="stop19" />
  </linearGradient>
  <linearGradient
     id="e"
     gradientUnits="userSpaceOnUse"
     x1="388.920101"
     x2="386.099188"
     y1="655.829579"
     y2="651.660306">
    <stop
       offset="0"
       stop-color="#fff"
       id="stop22" />
    <stop
       offset="1"
       stop-opacity="0"
       id="stop24" />
  </linearGradient>
  <mask
     id="f"
     maskUnits="userSpaceOnUse">
    <path
       d="m390.79903 653.66287c-2.88714-3.38449-6.07109-4.9881-9.10664-7.48214l-3.69592 1.04058s5.19984 10.92752 5.46485 11.45756c.26501.53001 1.45756 1.59005 1.45756 1.59005z"
       fill="url(#e)"
       fill-rule="evenodd"
       id="path27" />
  </mask>
  <clipPath
     id="g">
    <path
       d="m391.97266 645.34069a1.0214869 1.0214869 0 0 0 -.53906.16992l-4.50391 3.00391a1.0214869 1.0214869 0 0 0 -.35351 1.28516c.47257.35438.94336.72614 1.41015 1.11523l3.44727 2.29492a1.0214869 1.0214869 0 0 0 1.58789-.84961v-.56054c.54148.35149.95898.86044.95898 1.56445 0 1.10608-.87244 1.97851-1.97851 1.97851-.77103 0-1.4242-.42921-1.75391-1.06054l-2.73828 3.07422c1.10542 1.23881 2.70979 2.02343 4.49219 2.02343 3.3128 0 6.01562-2.70279 6.01562-6.01562 0-2.95219-2.18279-5.31229-4.99609-5.81641v-1.18945a1.0214869 1.0214869 0 0 0 -1.04883-1.01758z"
       id="path30" />
  </clipPath>
  <g
     id="g894"
     transform="rotate(90,4.2333335,-1.1e-7)">
    <path
       inkscape:connector-curvature="0"
       id="path912"
       d="M 4.4979169,1.5875001 V 2.6458335 H 8.2020837 V 1.5875001 Z"
       style="opacity:1;vector-effect:none;fill:#9d3a9b;fill-opacity:1;stroke:none;stroke-width:13.22916698;stroke-linecap:round;stroke-linejoin:round;stroke-miterlimit:4;stroke-dasharray:none;stroke-dashoffset:0;stroke-opacity:1" />
    <path
       inkscape:connector-curvature="0"
       id="path914"
       d="M 4.4979169,1.8520834 V 2.38125 H 8.2020837 V 1.8520834 Z"
       style="opacity:1;vector-effect:none;fill:#f3b7d9;fill-opacity:1;stroke:none;stroke-width:13.22916698;stroke-linecap:round;stroke-linejoin:round;stroke-miterlimit:4;stroke-dasharray:none;stroke-dashoffset:0;stroke-opacity:1" />
    <path
       d="M 7.9375004,2.1166666 7.1437504,0.92604166 6.3500003,2.1166666 H 6.879167 c 0,0.438375 -0.3553751,0.7937501 -0.79375,0.7937501 -0.4383749,0 -0.79375,-0.3553751 -0.79375,-0.7937501 0,-0.4383749 0.3553751,-0.79375 0.79375,-0.79375 V 0.79374998 c -0.7306258,0 -1.3229167,0.59229092 -1.3229167,1.32291662 0,0.7306257 0.5922909,1.3229167 1.3229167,1.3229167 0.7306257,0 1.3229167,-0.592291 1.3229167,-1.3229167 z"
       id="path47-3"
       style="fill:#e602b4;stroke:#e602b4;stroke-width:0.52916664;stroke-linecap:round;stroke-linejoin:round"
       inkscape:connector-curvature="0" />
    <path
       d="M 7.9375004,2.1166666 7.1437504,0.92604166 6.3500003,2.1166666 H 6.879167 c 0,0.438375 -0.3553751,0.7937501 -0.79375,0.7937501 -0.4383749,0 -0.79375,-0.3553751 -0.79375,-0.7937501 0,-0.4383749 0.3553751,-0.79375 0.79375,-0.79375 V 0.79374998 c -0.7306258,0 -1.3229167,0.59229092 -1.3229167,1.32291662 0,0.7306257 0.5922909,1.3229167 1.3229167,1.3229167 0.7306257,0 1.3229167,-0.592291 1.3229167,-1.3229167 z"
       id="path51-6"
       style="fill:#f0e3ec;stroke-width:0.26458332"
       inkscape:connector-curvature="0" />
    <path
       id="path928"
       d="m 4.4979168,1.5875001 v 1.0583334 h 1.5875 c 0.084616,-0.00715 0.1692093,-0.014311 0.2645833,-0.067179 0.068418,-0.056249 0.1540235,-0.112427 0.1932699,-0.197404 H 6.3500001 c -0.039278,-0.00767 -0.060514,0.00149 -0.1322916,-0.036173 -0.032957,-0.015184 -0.065745,-0.047863 -0.098702,-0.096118 -0.014612,-0.036179 -0.03858,-0.078854 -0.03359,-0.1322917 0.00388,-0.043064 0.00302,-0.088195 0.036174,-0.1322917 l 0.2661336,-0.396875 z"
       style="opacity:1;vector-effect:none;fill:#9d3a9b;fill-opacity:1;stroke:none;stroke-width:13.22916698;stroke-linecap:round;stroke-linejoin:round;stroke-miterlimit:4;stroke-dasharray:none;stroke-dashoffset:0;stroke-opacity:1"
       inkscape:connector-curvature="0" />
    <path
       id="path930"
       d="m 4.4979168,1.8520835 v 0.5291666 h 1.8520833 c -0.039278,-0.00767 -0.060514,0.00149 -0.1322916,-0.036173 -0.032957,-0.015184 -0.065745,-0.047863 -0.098702,-0.096118 -0.014612,-0.036179 -0.03858,-0.078854 -0.03359,-0.1322917 0.00388,-0.043064 0.00302,-0.088195 0.036174,-0.1322917 l 0.088883,-0.1322916 z"
       style="opacity:1;vector-effect:none;fill:#f3b7d9;fill-opacity:1;stroke:none;stroke-width:13.22916508;stroke-linecap:round;stroke-linejoin:round;stroke-miterlimit:4;stroke-dasharray:none;stroke-dashoffset:0;stroke-opacity:1"
       inkscape:connector-curvature="0" />
  </g>
</svg>
