<?xml version="1.0" encoding="UTF-8" standalone="no"?>
<svg
   xmlns:dc="http://purl.org/dc/elements/1.1/"
   xmlns:cc="http://creativecommons.org/ns#"
   xmlns:rdf="http://www.w3.org/1999/02/22-rdf-syntax-ns#"
   xmlns:svg="http://www.w3.org/2000/svg"
   xmlns="http://www.w3.org/2000/svg"
   xmlns:sodipodi="http://sodipodi.sourceforge.net/DTD/sodipodi-0.dtd"
   xmlns:inkscape="http://www.inkscape.org/namespaces/inkscape"
   height="16"
   viewBox="0 0 4.2333333 4.2333335"
   width="16"
   version="1.1"
   id="svg11"
   sodipodi:docname="sc_ellipsecut_unfilled.svg"
   inkscape:version="0.92.4 (5da689c313, 2019-01-14)">
  <metadata
     id="metadata17">
    <rdf:RDF>
      <cc:Work
         rdf:about="">
        <dc:format>image/svg+xml</dc:format>
        <dc:type
           rdf:resource="http://purl.org/dc/dcmitype/StillImage" />
        <dc:title></dc:title>
      </cc:Work>
    </rdf:RDF>
  </metadata>
  <defs
     id="defs15" />
  <sodipodi:namedview
     pagecolor="#ffffff"
     bordercolor="#666666"
     borderopacity="1"
     objecttolerance="10"
     gridtolerance="10"
     guidetolerance="10"
     inkscape:pageopacity="0"
     inkscape:pageshadow="2"
     inkscape:window-width="1600"
     inkscape:window-height="836"
     id="namedview13"
     showgrid="true"
     inkscape:zoom="29.5"
     inkscape:cx="6.6116516"
     inkscape:cy="8.3130384"
     inkscape:window-x="0"
     inkscape:window-y="27"
     inkscape:window-maximized="1"
     inkscape:current-layer="svg11">
    <inkscape:grid
       type="xygrid"
       id="grid824"
       spacingx="0.13229167"
       spacingy="0.13229167"
       empspacing="2" />
  </sodipodi:namedview>
  <linearGradient
     id="a"
     gradientUnits="userSpaceOnUse"
     x1="7.999878"
     x2="7.999878"
     y1="15.237208"
     y2=".76303">
    <stop
       offset="0"
       stop-color="#7c9fcf"
       id="stop2" />
    <stop
       offset=".5"
       stop-color="#7c9ece"
       id="stop4" />
    <stop
       offset="1"
       stop-color="#7b9dcf"
       id="stop6" />
  </linearGradient>
  <path
     d="M 2.1200656,0.725055 C 1.6516553,0.72506047 1.1844423,0.85976925 0.83717357,1.1078388 0.48990487,1.3559073 0.26454946,1.7280805 0.26458334,2.1166667 0.26454998,2.5052518 0.48990494,2.8774261 0.83717357,3.1254946 1.1844422,3.373563 1.6516556,3.5082728 2.1200656,3.5082784 2.5884756,3.5082728 3.0556891,3.373563 3.4029577,3.1254946 3.7502263,2.8774261 3.9755813,2.5052518 3.9755479,2.1166667 c 3.4e-6,-0.038718 -0.00234,-0.077246 -0.0068,-0.1155147 L 2.2337683,0.727773 C 2.1959163,0.725917 2.1580243,0.725055 2.1200656,0.725055 Z m 0,0.23193528 1.623547,1.15967642 c 3e-7,0.6404715 -0.7268866,1.1596764 -1.623547,1.1596764 -0.8966603,0 -1.62354715,-0.5192049 -1.62354698,-1.1596764 -1.7e-7,-0.6404715 0.72688668,-1.1596764 1.62354698,-1.15967642 z"
     id="path9"
     style="fill:#e602b4;stroke-width:0.03307292"
     inkscape:connector-curvature="0" />
</svg>
