<?xml version="1.0" encoding="UTF-8" standalone="no"?>
<svg
   xmlns:dc="http://purl.org/dc/elements/1.1/"
   xmlns:cc="http://creativecommons.org/ns#"
   xmlns:rdf="http://www.w3.org/1999/02/22-rdf-syntax-ns#"
   xmlns:svg="http://www.w3.org/2000/svg"
   xmlns="http://www.w3.org/2000/svg"
   xmlns:sodipodi="http://sodipodi.sourceforge.net/DTD/sodipodi-0.dtd"
   xmlns:inkscape="http://www.inkscape.org/namespaces/inkscape"
   height="16"
   viewBox="0 0 4.2333333 4.2333335"
   width="16"
   version="1.1"
   id="svg11"
   sodipodi:docname="sc_ellipse_unfilled.svg"
   inkscape:version="0.92.4 (5da689c313, 2019-01-14)">
  <metadata
     id="metadata17">
    <rdf:RDF>
      <cc:Work
         rdf:about="">
        <dc:format>image/svg+xml</dc:format>
        <dc:type
           rdf:resource="http://purl.org/dc/dcmitype/StillImage" />
        <dc:title></dc:title>
      </cc:Work>
    </rdf:RDF>
  </metadata>
  <defs
     id="defs15" />
  <sodipodi:namedview
     pagecolor="#ffffff"
     bordercolor="#666666"
     borderopacity="1"
     objecttolerance="10"
     gridtolerance="10"
     guidetolerance="10"
     inkscape:pageopacity="0"
     inkscape:pageshadow="2"
     inkscape:window-width="1600"
     inkscape:window-height="836"
     id="namedview13"
     showgrid="true"
     inkscape:zoom="29.5"
     inkscape:cx="8.3667938"
     inkscape:cy="7.9760511"
     inkscape:window-x="0"
     inkscape:window-y="27"
     inkscape:window-maximized="1"
     inkscape:current-layer="svg11">
    <inkscape:grid
       type="xygrid"
       id="grid824"
       spacingx="0.13229167"
       spacingy="0.13229167"
       empspacing="2" />
  </sodipodi:namedview>
  <linearGradient
     id="a"
     gradientUnits="userSpaceOnUse"
     x1="7.999999"
     x2="7.999999"
     y1="15.237093"
     y2=".76291">
    <stop
       offset="0"
       stop-color="#7c9fcf"
       id="stop2" />
    <stop
       offset=".5"
       stop-color="#7c9ece"
       id="stop4" />
    <stop
       offset="1"
       stop-color="#7b9dcf"
       id="stop6" />
  </linearGradient>
  <path
     d="M 2.1166667,0.72760419 C 1.6491144,0.72760965 1.1827572,0.86207167 0.83612469,1.1096868 0.48949212,1.3573009 0.26454953,1.7287923 0.26458334,2.1166667 0.26455004,2.50454 0.48949218,2.8760325 0.83612469,3.1236466 1.1827572,3.3712605 1.6491147,3.5057236 2.1166667,3.5057292 2.5842187,3.5057236 3.0505763,3.3712605 3.3972087,3.1236466 3.7438412,2.8760325 3.9687834,2.50454 3.96875,2.1166667 3.9687838,1.7287923 3.7438412,1.3573009 3.3972087,1.1096868 3.0505763,0.86207167 2.5842189,0.72760965 2.1166667,0.72760419 Z m 0,0.23151042 A 1.620573,1.1575518 0 0 1 3.7372396,2.1166667 1.620573,1.1575518 0 0 1 2.1166667,3.2742188 1.620573,1.1575518 0 0 1 0.49609376,2.1166667 1.620573,1.1575518 0 0 1 2.1166667,0.95911461 Z"
     id="path9"
     style="fill:#e602b4;stroke-width:0.12500001"
     inkscape:connector-curvature="0" />
</svg>
