<?xml version="1.0" encoding="UTF-8" standalone="no"?>
<svg
   xmlns:dc="http://purl.org/dc/elements/1.1/"
   xmlns:cc="http://creativecommons.org/ns#"
   xmlns:rdf="http://www.w3.org/1999/02/22-rdf-syntax-ns#"
   xmlns:svg="http://www.w3.org/2000/svg"
   xmlns="http://www.w3.org/2000/svg"
   xmlns:sodipodi="http://sodipodi.sourceforge.net/DTD/sodipodi-0.dtd"
   xmlns:inkscape="http://www.inkscape.org/namespaces/inkscape"
   height="16"
   viewBox="0 0 4.2333333 4.2333335"
   width="16"
   version="1.1"
   id="svg26"
   sodipodi:docname="sc_flowchartshapes.flowchart-document.svg"
   inkscape:version="0.92.4 (5da689c313, 2019-01-14)">
  <metadata
     id="metadata32">
    <rdf:RDF>
      <cc:Work
         rdf:about="">
        <dc:format>image/svg+xml</dc:format>
        <dc:type
           rdf:resource="http://purl.org/dc/dcmitype/StillImage" />
      </cc:Work>
    </rdf:RDF>
  </metadata>
  <defs
     id="defs30" />
  <sodipodi:namedview
     pagecolor="#ffffff"
     bordercolor="#666666"
     borderopacity="1"
     objecttolerance="10"
     gridtolerance="10"
     guidetolerance="10"
     inkscape:pageopacity="0"
     inkscape:pageshadow="2"
     inkscape:window-width="1600"
     inkscape:window-height="836"
     id="namedview28"
     showgrid="false"
     inkscape:zoom="14.75"
     inkscape:cx="8"
     inkscape:cy="7.8644068"
     inkscape:window-x="0"
     inkscape:window-y="27"
     inkscape:window-maximized="1"
     inkscape:current-layer="svg26" />
  <linearGradient
     id="a"
     gradientUnits="userSpaceOnUse"
     x1="16.933334"
     x2="16.933334"
     y1="294.58096"
     y2="265.55237"
     gradientTransform="matrix(0.125,0,0,0.125,2e-6,-32.891663)">
    <stop
       offset="0"
       stop-color="#fff"
       id="stop2" />
    <stop
       offset=".50643778"
       stop-color="#fff"
       id="stop4" />
    <stop
       offset=".82296139"
       stop-color="#f1f1f1"
       id="stop6" />
    <stop
       offset=".90625"
       stop-color="#eaeaea"
       id="stop8" />
    <stop
       offset="1"
       stop-color="#dfdfdf"
       id="stop10" />
  </linearGradient>
  <linearGradient
     id="b"
     gradientUnits="userSpaceOnUse"
     x1="2.115234"
     x2="31.75"
     y1="280.35254"
     y2="280.35254"
     gradientTransform="matrix(0.47244094,0,0,0.47244094,7.559055e-6,-124.31494)">
    <stop
       offset="0"
       stop-color="#7c9fcf"
       id="stop13" />
    <stop
       offset=".5"
       stop-color="#7c9ece"
       id="stop15" />
    <stop
       offset="1"
       stop-color="#7b9dcf"
       id="stop17" />
  </linearGradient>
  <path
     style="fill:#e602b4;stroke-width:0.47244093"
     d="M 2 1 A 1.0003526 1.0003526 0 0 0 1 2 L 1 14 A 1.0003526 1.0003526 0 0 0 1.796875 14.980469 C 3.9693512 15.429992 5.5061664 15.344889 6.6699219 14.802734 C 7.7221986 14.312511 8.3086582 13.476939 8.7324219 12.701172 C 9.4594809 12.05972 10.100736 11.787856 10.859375 11.710938 C 11.63954 11.631832 12.577033 11.77992 13.730469 12.101562 A 1.0003526 1.0003526 0 0 0 15 11.138672 L 15 2 A 1.0003526 1.0003526 0 0 0 14 1 L 2 1 z M 2 2 L 14 2 L 14 11.138672 C 11.585071 10.46525 9.7689039 10.397164 8 12 C 7.2159646 13.540809 6.110489 14.850535 2 14 L 2 2 z "
     transform="scale(0.26458334)"
     id="path20" />
</svg>
