<?xml version="1.0" encoding="UTF-8" standalone="no"?>
<svg
   xmlns:dc="http://purl.org/dc/elements/1.1/"
   xmlns:cc="http://creativecommons.org/ns#"
   xmlns:rdf="http://www.w3.org/1999/02/22-rdf-syntax-ns#"
   xmlns:svg="http://www.w3.org/2000/svg"
   xmlns="http://www.w3.org/2000/svg"
   xmlns:sodipodi="http://sodipodi.sourceforge.net/DTD/sodipodi-0.dtd"
   xmlns:inkscape="http://www.inkscape.org/namespaces/inkscape"
   height="16"
   viewBox="0 0 16 16"
   width="16"
   version="1.1"
   id="svg26"
   sodipodi:docname="sc_fontworkshapetype.fontwork-circle-curve.svg"
   inkscape:version="0.92.4 (5da689c313, 2019-01-14)">
  <metadata
     id="metadata32">
    <rdf:RDF>
      <cc:Work
         rdf:about="">
        <dc:format>image/svg+xml</dc:format>
        <dc:type
           rdf:resource="http://purl.org/dc/dcmitype/StillImage" />
        <dc:title></dc:title>
      </cc:Work>
    </rdf:RDF>
  </metadata>
  <defs
     id="defs30" />
  <sodipodi:namedview
     pagecolor="#ffffff"
     bordercolor="#666666"
     borderopacity="1"
     objecttolerance="10"
     gridtolerance="10"
     guidetolerance="10"
     inkscape:pageopacity="0"
     inkscape:pageshadow="2"
     inkscape:window-width="1600"
     inkscape:window-height="836"
     id="namedview28"
     showgrid="true"
     inkscape:zoom="29.5"
     inkscape:cx="13.084616"
     inkscape:cy="9.4242131"
     inkscape:window-x="0"
     inkscape:window-y="27"
     inkscape:window-maximized="1"
     inkscape:current-layer="svg26">
    <inkscape:grid
       type="xygrid"
       id="grid839"
       spacingx="0.5"
       spacingy="0.5"
       empspacing="2" />
  </sodipodi:namedview>
  <linearGradient
     id="a"
     gradientUnits="userSpaceOnUse"
     x1="0"
     x2="128"
     y1="64"
     y2="64"
     gradientTransform="scale(0.125)">
    <stop
       offset="0"
       stop-color="#7c9fcf"
       id="stop2" />
    <stop
       offset=".5"
       stop-color="#7c9ece"
       id="stop4" />
    <stop
       offset="1"
       stop-color="#7b9dcf"
       id="stop6" />
  </linearGradient>
  <linearGradient
     id="b"
     gradientUnits="userSpaceOnUse"
     x1="64"
     x2="64"
     y1="128"
     y2="0"
     gradientTransform="scale(0.125)">
    <stop
       offset="0"
       stop-color="#fff"
       id="stop9" />
    <stop
       offset=".53340602"
       stop-color="#fff"
       id="stop11" />
    <stop
       offset=".9375"
       stop-color="#f1f1f1"
       id="stop13" />
    <stop
       offset=".96875"
       stop-color="#eaeaea"
       id="stop15" />
    <stop
       offset="1"
       stop-color="#dfdfdf"
       id="stop17" />
  </linearGradient>
  <path
     style="fill:#e602b4;stroke-width:0.125"
     d="M 8,1 A 7.0423729,7.0423729 0 0 0 0.95762711,8.0423729 7.0423729,7.0423729 0 0 0 8,15.084746 7.0423729,7.0423729 0 0 0 15.042373,8.0423729 7.0423729,7.0423729 0 0 0 8,1 Z M 8,1.8802966 A 6.1620763,6.1620763 0 0 1 14.162076,8.0423729 6.1620763,6.1620763 0 0 1 8,14.204449 6.1620763,6.1620763 0 0 1 1.8379237,8.0423729 6.1620763,6.1620763 0 0 1 8,1.8802966 Z M 8,2.7605932 A 5.2817797,5.2817797 0 0 0 2.7182203,8.0423729 5.2817797,5.2817797 0 0 0 8,13.324153 5.2817797,5.2817797 0 0 0 13.28178,8.0423729 5.2817797,5.2817797 0 0 0 8,2.7605932 Z M 8,3.6408898 A 4.4014831,4.4014831 0 0 1 12.401483,8.0423729 4.4014831,4.4014831 0 0 1 8,12.443856 4.4014831,4.4014831 0 0 1 3.598517,8.0423729 4.4014831,4.4014831 0 0 1 8,3.6408898 Z"
     id="path20"
     inkscape:connector-curvature="0" />
</svg>
