<?xml version="1.0" encoding="UTF-8" standalone="no"?>
<svg
   xmlns:dc="http://purl.org/dc/elements/1.1/"
   xmlns:cc="http://creativecommons.org/ns#"
   xmlns:rdf="http://www.w3.org/1999/02/22-rdf-syntax-ns#"
   xmlns:svg="http://www.w3.org/2000/svg"
   xmlns="http://www.w3.org/2000/svg"
   xmlns:sodipodi="http://sodipodi.sourceforge.net/DTD/sodipodi-0.dtd"
   xmlns:inkscape="http://www.inkscape.org/namespaces/inkscape"
   height="16"
   viewBox="0 0 16 16"
   width="16"
   id="svg2"
   version="1.1"
   inkscape:version="0.92.4 (unknown)"
   sodipodi:docname="sc_fontworkshapetype.fontwork-wave.svg"
   inkscape:export-filename="/home/tamara/Desktop/IKON/5_258 (tamara)/sc (222)/Tanggal 10/sc_fontworkshapetype.fontwork-wave.png"
   inkscape:export-xdpi="90"
   inkscape:export-ydpi="90">
  <metadata
     id="metadata32">
    <rdf:RDF>
      <cc:Work
         rdf:about="">
        <dc:format>image/svg+xml</dc:format>
        <dc:type
           rdf:resource="http://purl.org/dc/dcmitype/StillImage" />
        <dc:title />
      </cc:Work>
    </rdf:RDF>
  </metadata>
  <defs
     id="defs30" />
  <sodipodi:namedview
     pagecolor="#ffffff"
     bordercolor="#666666"
     borderopacity="1"
     objecttolerance="10"
     gridtolerance="10"
     guidetolerance="10"
     inkscape:pageopacity="0"
     inkscape:pageshadow="2"
     inkscape:window-width="1366"
     inkscape:window-height="707"
     id="namedview28"
     showgrid="true"
     inkscape:zoom="29.5"
     inkscape:cx="9.6388517"
     inkscape:cy="8.1875275"
     inkscape:window-x="0"
     inkscape:window-y="0"
     inkscape:window-maximized="1"
     inkscape:current-layer="svg2"
     inkscape:snap-global="false">
    <inkscape:grid
       type="xygrid"
       id="grid4160" />
  </sodipodi:namedview>
  <linearGradient
     id="a"
     gradientUnits="userSpaceOnUse"
     x1="64"
     x2="64"
     y1="128"
     y2="0"
     gradientTransform="scale(0.125,0.125)">
    <stop
       offset="0"
       stop-color="#fff"
       id="stop5" />
    <stop
       offset=".46428573"
       stop-color="#fff"
       id="stop7" />
    <stop
       offset=".78125"
       stop-color="#f1f1f1"
       id="stop9" />
    <stop
       offset=".90625"
       stop-color="#eaeaea"
       id="stop11" />
    <stop
       offset="1"
       stop-color="#dfdfdf"
       id="stop13" />
  </linearGradient>
  <linearGradient
     id="b"
     gradientUnits="userSpaceOnUse"
     x1="64"
     x2="64"
     y1="128"
     y2="0"
     gradientTransform="scale(0.125,0.125)">
    <stop
       offset="0"
       stop-color="#7c9fcf"
       id="stop16" />
    <stop
       offset=".5"
       stop-color="#7c9ece"
       id="stop18" />
    <stop
       offset="1"
       stop-color="#7b9dcf"
       id="stop20" />
  </linearGradient>
  <path
     sodipodi:nodetypes="sacccsccsccccsccs"
     inkscape:connector-curvature="0"
     style="fill:#e602b4;fill-opacity:1;stroke:none;stroke-width:0.24593377;stroke-miterlimit:4;stroke-dasharray:none;stroke-opacity:1"
     id="path24"
     d="M 5.3012182,3.0249631 C 3.540078,2.9979615 2.5382935,3.5451864 1.493004,4.3437107 1.2589998,4.5224725 1.0181472,4.759589 1.0181765,5.0624899 v 5.8836271 c 4.295e-4,0.788854 1.0984356,1.109659 1.58951,0.46441 0.7095926,-0.933425 1.2544955,-1.077666 2.0297966,-0.995809 0.7753011,0.08184 1.8038575,0.560653 2.8943791,1.210378 l -0.014072,-0.0088 c 1.6264381,1.010915 3.0170628,1.47355 4.2824018,1.403867 1.265336,-0.06967 2.287562,-0.722387 3.008449,-1.577652 0.119565,-0.141923 0.184468,-0.31666 0.184427,-0.496525 V 5.0624892 C 14.992663,4.3125935 13.983111,3.9676877 13.454945,4.5370024 12.735078,5.313663 12.072339,5.6329558 11.346472,5.6459071 10.620606,5.6588587 9.701329,5.3335914 8.5717068,4.4467593 l 0.046695,0.039603 C 7.5128797,3.4820814 6.3578418,3.0411631 5.3012182,3.0249631 Z" />
  <path
     sodipodi:nodetypes="ccccccc"
     inkscape:connector-curvature="0"
     style="fill:#f0e3ec;fill-opacity:1;stroke:none;stroke-width:0.24593377;stroke-linecap:round;stroke-linejoin:round;stroke-miterlimit:4;stroke-dasharray:none;stroke-opacity:1"
     id="path26"
     d="m 2.0129186,5.0741931 v 5.9171359 c 1.6502318,-2.2291844 3.7823251,-1.3488942 5.987036,0 3.0068794,1.919216 4.7715804,1.480827 5.9870364,0 V 5.0741931 c -1.617901,1.7925162 -3.582872,1.93822 -5.9870364,0 -2.6063307,-2.6229316 -6.0813257,-0.1457689 -5.987036,0 z" />
</svg>
