<?xml version="1.0" encoding="UTF-8" standalone="no"?>
<svg
   xmlns:dc="http://purl.org/dc/elements/1.1/"
   xmlns:cc="http://creativecommons.org/ns#"
   xmlns:rdf="http://www.w3.org/1999/02/22-rdf-syntax-ns#"
   xmlns:svg="http://www.w3.org/2000/svg"
   xmlns="http://www.w3.org/2000/svg"
   xmlns:xlink="http://www.w3.org/1999/xlink"
   xmlns:sodipodi="http://sodipodi.sourceforge.net/DTD/sodipodi-0.dtd"
   xmlns:inkscape="http://www.inkscape.org/namespaces/inkscape"
   height="16"
   viewBox="0 0 16 16"
   width="16"
   version="1.1"
   id="svg31"
   sodipodi:docname="sc_flowchartshapes.flowchart-direct-access-storage.svg"
   inkscape:version="0.92.4 (5da689c313, 2019-01-14)">
  <metadata
     id="metadata37">
    <rdf:RDF>
      <cc:Work
         rdf:about="">
        <dc:format>image/svg+xml</dc:format>
        <dc:type
           rdf:resource="http://purl.org/dc/dcmitype/StillImage" />
      </cc:Work>
    </rdf:RDF>
  </metadata>
  <defs
     id="defs35" />
  <sodipodi:namedview
     pagecolor="#ffffff"
     bordercolor="#666666"
     borderopacity="1"
     objecttolerance="10"
     gridtolerance="10"
     guidetolerance="10"
     inkscape:pageopacity="0"
     inkscape:pageshadow="2"
     inkscape:window-width="1600"
     inkscape:window-height="836"
     id="namedview33"
     showgrid="false"
     inkscape:snap-page="true"
     inkscape:zoom="20.85965"
     inkscape:cx="4.5475335"
     inkscape:cy="8.9965074"
     inkscape:window-x="0"
     inkscape:window-y="27"
     inkscape:window-maximized="1"
     inkscape:current-layer="svg31" />
  <linearGradient
     id="a"
     gradientTransform="matrix(0,0.96251936,-1.0130824,0,205.87466,2.678031)"
     gradientUnits="userSpaceOnUse"
     x1="130.20201"
     x2="-27.716877"
     xlink:href="#b"
     y1="67.666222"
     y2="67.666222" />
  <linearGradient
     id="b"
     gradientTransform="matrix(0 .9625194 -1 0 123.66622 2.678031)"
     gradientUnits="userSpaceOnUse"
     x1="130.20201"
     x2="-27.716877"
     y1="67.666222"
     y2="67.666222">
    <stop
       offset="0"
       stop-color="#fff"
       id="stop3" />
    <stop
       offset=".42597079"
       stop-color="#fff"
       id="stop5" />
    <stop
       offset=".5892781"
       stop-color="#f1f1f1"
       id="stop7" />
    <stop
       offset=".80219781"
       stop-color="#eaeaea"
       id="stop9" />
    <stop
       offset="1"
       stop-color="#dfdfdf"
       id="stop11" />
  </linearGradient>
  <linearGradient
     id="c"
     gradientTransform="rotate(90,64.000002,64.27832)"
     gradientUnits="userSpaceOnUse"
     x1="-.009766"
     x2="128.00977"
     y1="64.27832"
     y2="64.27832">
    <stop
       offset="0"
       stop-color="#7c9fcf"
       id="stop14" />
    <stop
       offset=".5"
       stop-color="#7c9ece"
       id="stop16" />
    <stop
       offset="1"
       stop-color="#7b9dcf"
       id="stop18" />
  </linearGradient>
  <path
     style="fill:#e602b4;stroke-width:0.125"
     d="m 15.000972,8.0000021 c -4e-6,-1.907399 -0.216764,-2.795783 -0.625,-4.224609 -0.204118,-0.714414 -0.446983,-1.317449 -0.78711,-1.810547 C 13.248736,1.4717472 12.72092,1.0000022 12.000972,1.0000022 h -1.21875 c -0.01041,-8.1404e-4 -0.02082,-0.0015 -0.03125,-0.002 h -5.6445308 -0.95308 -0.199219 -0.107422 c -0.0033,6.35e-4 -0.0065,0.0013 -0.0098,0.002 -0.0059,-7.0304e-4 -0.01171,-0.0014 -0.01758,-0.002 -0.0041,0 -0.0076,0.0019 -0.01172,0.002 -0.09025,0.0036 -0.179603,0.01934 -0.265626,0.04687 -0.607438,0.113058 -1.022124,0.5501719 -1.285156,0.9785159 -0.302634,0.492832 -0.513275,1.080095 -0.693359,1.773437 -0.360167,1.386684 -0.56446005,2.197903 -0.56445305,4.201172 1.2e-5,2.0032209 0.20428905,2.8144819 0.56445305,4.2011719 0.180081,0.693344 0.390734,1.2806 0.693359,1.773437 0.270597,0.440678 0.700716,0.892832 1.337891,0.988282 0.06878,0.01987 0.1395,0.03232 0.210937,0.03711 0.0046,3.9e-5 0.009,0.002 0.01367,0.002 0.0078,-5.59e-4 0.01563,-0.0012 0.02344,-0.002 0.0091,7.76e-4 0.01822,0.0014 0.02734,0.002 h 0.10551 l -0.0098,-0.002 c 0.0072,7.7e-5 0.01432,7.7e-5 0.02148,0 l -0.0098,0.002 h 6.7734658 c 0.0078,-6.06e-4 0.01563,-0.0013 0.02344,-0.002 h 1.226562 c 0.719948,0 1.247764,-0.471746 1.58789,-0.964844 0.340127,-0.493121 0.582992,-1.096129 0.78711,-1.810543 0.408236,-1.428826 0.624996,-2.3172099 0.625,-4.2246089 z m -1,0 c -7e-6,3.8659999 -0.895436,5.9999999 -2,5.9999999 -1.104565,0 -1.999993,-2.134 -2,-5.9999999 7e-6,-3.866 0.895435,-6 2,-6 1.104564,0 1.999993,2.134 2,6 z m -3.681641,-6 c -0.6786961,0.606504 -1.3152051,2.139913 -1.3183594,6 0.0022,3.8554049 0.5446513,4.8910899 1.3183594,5.9999999 h -6.3417518 -0.002 -0.105468 v -0.0059 c -0.01708,0.0032 0.664062,0.0059 -0.05078,0.0059 -1.004108,-8.6e-5 -1.818336,-2.134105 -1.818359,-5.9999999 -1.1e-5,-3.865987 0.814227,-5.999915 1.818359,-6 0.0095,0.0015 0.01784,0.0038 0.02734,0.0059 v -0.0059 h 0.107471 0.199219 0.95308 z"
     id="path22"
     inkscape:connector-curvature="0"
     sodipodi:nodetypes="cssscccccccccccsccscccccccccccscsccscsccccccccccccccccc" />
</svg>
