<?xml version="1.0" encoding="UTF-8" standalone="no"?>
<svg
   xmlns:dc="http://purl.org/dc/elements/1.1/"
   xmlns:cc="http://creativecommons.org/ns#"
   xmlns:rdf="http://www.w3.org/1999/02/22-rdf-syntax-ns#"
   xmlns:svg="http://www.w3.org/2000/svg"
   xmlns="http://www.w3.org/2000/svg"
   xmlns:sodipodi="http://sodipodi.sourceforge.net/DTD/sodipodi-0.dtd"
   xmlns:inkscape="http://www.inkscape.org/namespaces/inkscape"
   height="16"
   viewBox="0 0 16 16"
   width="16"
   version="1.1"
   id="svg26"
   sodipodi:docname="sc_flowchartshapes.flowchart-sequential-access.svg"
   inkscape:version="0.92.4 (5da689c313, 2019-01-14)">
  <metadata
     id="metadata32">
    <rdf:RDF>
      <cc:Work
         rdf:about="">
        <dc:format>image/svg+xml</dc:format>
        <dc:type
           rdf:resource="http://purl.org/dc/dcmitype/StillImage" />
      </cc:Work>
    </rdf:RDF>
  </metadata>
  <defs
     id="defs30" />
  <sodipodi:namedview
     pagecolor="#ffffff"
     bordercolor="#666666"
     borderopacity="1"
     objecttolerance="10"
     gridtolerance="10"
     guidetolerance="10"
     inkscape:pageopacity="0"
     inkscape:pageshadow="2"
     inkscape:window-width="1600"
     inkscape:window-height="836"
     id="namedview28"
     showgrid="false"
     inkscape:zoom="29.5"
     inkscape:cx="11.189063"
     inkscape:cy="6.0102918"
     inkscape:window-x="0"
     inkscape:window-y="27"
     inkscape:window-maximized="1"
     inkscape:current-layer="svg26" />
  <linearGradient
     id="a"
     gradientUnits="userSpaceOnUse"
     x1="75.303001"
     x2="72.844147"
     y1="201.00064"
     y2="-34.318104"
     gradientTransform="scale(0.125)">
    <stop
       offset="0"
       stop-color="#fff"
       id="stop2" />
    <stop
       offset=".42597079"
       stop-color="#fff"
       id="stop4" />
    <stop
       offset=".5892781"
       stop-color="#f1f1f1"
       id="stop6" />
    <stop
       offset=".80219781"
       stop-color="#eaeaea"
       id="stop8" />
    <stop
       offset="1"
       stop-color="#dfdfdf"
       id="stop10" />
  </linearGradient>
  <linearGradient
     id="b"
     gradientUnits="userSpaceOnUse"
     x1="8"
     x2="120"
     y1="64"
     y2="64"
     gradientTransform="scale(0.125)">
    <stop
       offset="0"
       stop-color="#7c9fcf"
       id="stop13" />
    <stop
       offset=".5"
       stop-color="#7c9ece"
       id="stop15" />
    <stop
       offset="1"
       stop-color="#7b9dcf"
       id="stop17" />
  </linearGradient>
  <path
     style="fill:#e602b4;stroke-width:0.125"
     d="M 8 1 C 6.1674042 1 4.3466221 1.7549404 3.0507812 3.0507812 C 1.7549404 4.3466221 1 6.1674042 1 8 C 1 9.8325957 1.7549404 11.653377 3.0507812 12.949219 C 4.3466221 14.245059 6.1674042 15 8 15 L 14 15 A 1.0001 1.0001 0 0 0 15 14 L 15 12 A 1.0001 1.0001 0 0 0 14.265625 11.037109 C 14.723681 10.090422 14.998334 9.0538971 15 8.0019531 A 1.0001 1.0001 0 0 0 15 8 C 15 6.1674042 14.245059 4.3466221 12.949219 3.0507812 C 11.653377 1.7549404 9.8325957 1 8 1 z M 8 2 A 6 6 0 0 1 14 8 A 6 6 0 0 1 12.462891 12 L 14 12 L 14 14 L 8 14 A 6 6 0 0 1 2 8 A 6 6 0 0 1 8 2 z "
     id="path20" />
</svg>
