<?xml version="1.0" encoding="UTF-8" standalone="no"?>
<svg
   xmlns:dc="http://purl.org/dc/elements/1.1/"
   xmlns:cc="http://creativecommons.org/ns#"
   xmlns:rdf="http://www.w3.org/1999/02/22-rdf-syntax-ns#"
   xmlns:svg="http://www.w3.org/2000/svg"
   xmlns="http://www.w3.org/2000/svg"
   xmlns:xlink="http://www.w3.org/1999/xlink"
   xmlns:sodipodi="http://sodipodi.sourceforge.net/DTD/sodipodi-0.dtd"
   xmlns:inkscape="http://www.inkscape.org/namespaces/inkscape"
   height="16"
   viewBox="0 0 4.2333333 4.2333335"
   width="16"
   id="svg2"
   version="1.1"
   inkscape:version="0.92.4 (unknown)"
   sodipodi:docname="sc_formatpaintbrush.svg"
   inkscape:export-filename="/home/tamara/Desktop/IKON/5_258 (tamara)/sc (222)/Tanggal 12/sc_formatpaintbrush.png"
   inkscape:export-xdpi="90"
   inkscape:export-ydpi="90">
  <metadata
     id="metadata157">
    <rdf:RDF>
      <cc:Work
         rdf:about="">
        <dc:format>image/svg+xml</dc:format>
        <dc:type
           rdf:resource="http://purl.org/dc/dcmitype/StillImage" />
      </cc:Work>
    </rdf:RDF>
  </metadata>
  <defs
     id="defs155">
    <linearGradient
       y2="274.96338"
       y1="274.96338"
       x2="29.653122"
       x1="11.927835"
       gradientUnits="userSpaceOnUse"
       id="y-6">
      <stop
         id="stop4408"
         stop-color="#6e4920"
         offset="0" />
      <stop
         id="stop4410"
         stop-color="#89643c"
         offset="1" />
    </linearGradient>
  </defs>
  <sodipodi:namedview
     pagecolor="#ffffff"
     bordercolor="#666666"
     borderopacity="1"
     objecttolerance="10"
     gridtolerance="10"
     guidetolerance="10"
     inkscape:pageopacity="0"
     inkscape:pageshadow="2"
     inkscape:window-width="1366"
     inkscape:window-height="707"
     id="namedview153"
     showgrid="true"
     showguides="true"
     inkscape:zoom="11.313709"
     inkscape:cx="-0.9632144"
     inkscape:cy="9.5493664"
     inkscape:window-x="0"
     inkscape:window-y="0"
     inkscape:window-maximized="1"
     inkscape:current-layer="svg2">
    <inkscape:grid
       type="xygrid"
       id="grid4285" />
  </sodipodi:namedview>
  <filter
     id="a"
     color-interpolation-filters="sRGB"
     height="1.080656"
     width="1.077795"
     x="-.038898"
     y="-.040328">
    <feGaussianBlur
       stdDeviation="1.7988508"
       id="feGaussianBlur5" />
  </filter>
  <linearGradient
     id="b"
     gradientUnits="userSpaceOnUse"
     x1="19.816209"
     x2="20.606821"
     y1="273.146075"
     y2="263.82444">
    <stop
       offset=".0057"
       stop-color="#ecce91"
       id="stop8" />
    <stop
       offset="1"
       stop-color="#fff"
       id="stop10" />
  </linearGradient>
  <linearGradient
     id="c"
     gradientTransform="matrix(0.03045223,0.02261284,-0.02261284,0.03045223,-0.10343062,1.9980874)"
     gradientUnits="userSpaceOnUse"
     x1="17.921068"
     x2="73.562057"
     y1="-43.164703"
     y2="-33.862148">
    <stop
       offset="0"
       stop-color="#bdbdbe"
       id="stop13" />
    <stop
       offset=".06657774"
       stop-color="#bdbdbe"
       id="stop15" />
    <stop
       offset=".21500437"
       stop-color="#f3f3f3"
       stop-opacity=".996078"
       id="stop17" />
    <stop
       offset=".38446414"
       stop-color="#a7a7a9"
       id="stop19" />
    <stop
       offset=".58162361"
       stop-color="#8e8e91"
       id="stop21" />
    <stop
       offset=".80252987"
       stop-color="#dcdcdc"
       stop-opacity=".992157"
       id="stop23" />
    <stop
       offset="1"
       stop-color="#a7a7aa"
       stop-opacity=".968627"
       id="stop25" />
  </linearGradient>
  <radialGradient
     id="d"
     cx="9.630568"
     cy="284.93066"
     gradientTransform="matrix(0.18916789,-0.0014283,0.00100768,0.13346054,-0.86354873,-35.4129)"
     gradientUnits="userSpaceOnUse"
     r="9.402158">
    <stop
       offset="0"
       stop-color="#333"
       stop-opacity=".977941"
       id="stop28" />
    <stop
       offset="1"
       stop-color="#050505"
       id="stop30" />
  </radialGradient>
  <clipPath
     id="e">
    <path
       d="m120.468 31.013c-9.048-10.351-19.449-15.8-30.928-16.208-22.555-.803-42.092 18.311-42.287 18.504l-.035.035-.04.032c-.1.081-10.134 8.301-22.742 25.508-8.723 11.904-9.328 29.413-4.874 39.464 1.875 4.231 4.528 6.731 7.469 7.039 4.525.473 6.196-5.706 7.966-12.247 2.234-8.262 4.767-17.626 13.995-15.864 8.873 2.168 7.748 12.052 6.556 22.516-1.11 9.747-2.258 19.826 3.973 25.097 12.762 10.797 51.125-19.841 51.511-20.152.263-.187 21.165-15.141 23.602-37.027 1.386-12.43-3.381-24.776-14.166-36.697zm-41.889 64.762c-3.363.844-6.751.425-9.295-1.149-1.887-1.167-3.169-2.914-3.612-4.92-1.067-4.838 2.772-9.989 8.742-11.729 3.434-.999 6.937-.682 9.612.873 1.958 1.138 3.305 2.89 3.793 4.931 1.2 5.034-2.944 10.414-9.24 11.994z"
       height="143"
       width="150"
       id="path33" />
  </clipPath>
  <linearGradient
     id="f">
    <stop
       offset="0"
       stop-color="#dccba5"
       id="stop36" />
    <stop
       offset="1"
       stop-color="#fff0d0"
       id="stop38" />
  </linearGradient>
  <linearGradient
     id="g"
     gradientUnits="userSpaceOnUse"
     x1="20.800301"
     x2="64.228996"
     xlink:href="#f"
     y1="52.936501"
     y2="52.936501" />
  <linearGradient
     id="h">
    <stop
       offset=".0457"
       stop-color="#b3925d"
       id="stop42" />
    <stop
       offset=".28"
       stop-color="#debc85"
       id="stop44" />
    <stop
       offset=".5657"
       stop-color="#b3925d"
       id="stop46" />
    <stop
       offset=".7886"
       stop-color="#debc85"
       id="stop48" />
    <stop
       offset="1"
       stop-color="#b3925d"
       id="stop50" />
  </linearGradient>
  <radialGradient
     id="i"
     cx="19.8696"
     cy="15.9043"
     gradientUnits="userSpaceOnUse"
     r="121.0827"
     xlink:href="#h" />
  <linearGradient
     id="j"
     gradientUnits="userSpaceOnUse"
     x1="15.8696"
     x2="106.5405"
     xlink:href="#f"
     y1="57.2397"
     y2="57.2397" />
  <linearGradient
     id="k"
     gradientUnits="userSpaceOnUse"
     x1="105.061"
     x2="135.8696"
     xlink:href="#f"
     y1="28.248501"
     y2="28.248501" />
  <radialGradient
     id="l"
     cx="19.8696"
     cy="15.9043"
     gradientUnits="userSpaceOnUse"
     r="121.0831"
     xlink:href="#h" />
  <linearGradient
     id="m"
     gradientUnits="userSpaceOnUse"
     x1="36.2593"
     x2="135.8696"
     xlink:href="#f"
     y1="82.099602"
     y2="82.099602" />
  <linearGradient
     id="n"
     gradientUnits="userSpaceOnUse"
     x1="71.478996"
     x2="112.5698"
     xlink:href="#f"
     y1="102.4473"
     y2="102.4473" />
  <linearGradient
     id="o">
    <stop
       offset=".0457"
       stop-color="#e8c48b"
       id="stop59" />
    <stop
       offset=".28"
       stop-color="#ccad7a"
       id="stop61" />
    <stop
       offset=".5657"
       stop-color="#e8c48b"
       id="stop63" />
    <stop
       offset=".7886"
       stop-color="#debc85"
       id="stop65" />
    <stop
       offset="1"
       stop-color="#e8c48b"
       id="stop67" />
  </linearGradient>
  <linearGradient
     id="p"
     gradientUnits="userSpaceOnUse"
     x1="-66.382301"
     x2="205.61771"
     xlink:href="#o"
     y1="23.2729"
     y2="67.273003" />
  <linearGradient
     id="q"
     gradientUnits="userSpaceOnUse"
     x1="-68.921402"
     x2="203.0784"
     xlink:href="#o"
     y1="38.9678"
     y2="82.967796" />
  <linearGradient
     id="r"
     gradientUnits="userSpaceOnUse"
     x1="-70.087898"
     x2="201.91499"
     xlink:href="#o"
     y1="46.171398"
     y2="90.171898" />
  <linearGradient
     id="s"
     gradientUnits="userSpaceOnUse"
     x1="-75.0532"
     x2="196.94679"
     xlink:href="#o"
     y1="76.873001"
     y2="120.8731" />
  <linearGradient
     id="t"
     gradientUnits="userSpaceOnUse"
     x1="-80.172897"
     x2="191.9644"
     xlink:href="#o"
     y1="108.0762"
     y2="152.0984" />
  <linearGradient
     id="u"
     gradientUnits="userSpaceOnUse"
     x1="-73.517601"
     x2="198.4873"
     xlink:href="#o"
     y1="67.361801"
     y2="111.3626" />
  <radialGradient
     id="v"
     cx="19.8696"
     cy="15.9048"
     gradientUnits="userSpaceOnUse"
     r="121.0829"
     xlink:href="#h" />
  <linearGradient
     id="w"
     gradientUnits="userSpaceOnUse"
     x1="39.5737"
     x2="135.8696"
     xlink:href="#f"
     y1="83.755898"
     y2="83.755898" />
  <clipPath
     id="x">
    <path
       d="m46.243822 51.059525c14.005576-8.690472 18.413161-4.490119 34.461838-3.674705 7.192113-1.127314 11.312323-7.652592 16.770628-12.251464 9.266992-10.429605 16.790782-9.19166 23.771722-1.891258 6.36735 8.868133 1.88666 13.004899-6.94657 19.416596-8.28898 7.317841-10.46119 7.325845-10.46119 17.808306 1.23856 10.905618.34644 12.15179-9.489701 27.284322z"
       id="path78" />
  </clipPath>
  <linearGradient
     id="y"
     gradientUnits="userSpaceOnUse"
     x1="11.927835"
     x2="29.653122"
     y1="274.96338"
     y2="274.96338"
     xlink:href="#h">
    <stop
       offset="0"
       stop-color="#6e4920"
       id="stop81" />
    <stop
       offset="1"
       stop-color="#89643c"
       id="stop83" />
  </linearGradient>
  <filter
     id="z"
     color-interpolation-filters="sRGB"
     height="1.102185"
     width="1.090521"
     x="-.04526"
     y="-.051093">
    <feGaussianBlur
       stdDeviation=".33427295"
       id="feGaussianBlur86" />
  </filter>
  <clipPath
     id="A">
    <path
       d="m11.927835 272.37274c3.182816-1.94344 4.184455-1.00412 7.831573-.82177 1.634433-.2521 2.570765-1.71134 3.811184-2.73978 2.105956-2.33236 3.815764-2.05552 5.402206-.42294 1.447004 1.98317.428751 2.90827-1.578631 4.34211-1.883699 1.63648-2.377342 1.63827-2.377342 3.98245.281466 2.43881.07873 2.71749-2.156568 6.10156z"
       id="path89" />
  </clipPath>
  <g
     id="g914"
     transform="matrix(0.7012888,0,0,0.68696398,1.3796483,0.15983969)"
     style="stroke-width:1.44073641">
    <path
       style="fill:none;stroke:#e602b4;stroke-width:0.38119495;stroke-linecap:round;stroke-linejoin:round;stroke-miterlimit:4;stroke-dasharray:none;stroke-opacity:1"
       d="M 0.52765298,0.87169355 -0.00176572,0.34964896 -1.0606037,1.3937379 0.79236238,3.2208938 -0.53118482,4.5260051"
       id="path973"
       inkscape:connector-curvature="0" />
    <rect
       style="opacity:1;fill:#9d3a9b;fill-opacity:1;fill-rule:evenodd;stroke:#e602b4;stroke-width:0.38121364;stroke-linecap:round;stroke-linejoin:round;stroke-miterlimit:4;stroke-dasharray:none;stroke-opacity:1;paint-order:markers fill stroke"
       id="rect971"
       width="3.7175751"
       height="1.115273"
       x="-4.7088437"
       y="-0.62198955"
       rx="0.39207858"
       ry="0.53853029"
       transform="matrix(-0.71204848,-0.7021303,0.71204848,-0.7021303,0,0)" />
    <rect
       style="opacity:1;fill:#f3b7d9;fill-opacity:1;fill-rule:evenodd;stroke:#e602b4;stroke-width:0.38121364;stroke-linecap:round;stroke-linejoin:round;stroke-miterlimit:4;stroke-dasharray:none;stroke-opacity:1;paint-order:markers fill stroke"
       id="rect975"
       width="0.74351519"
       height="2.2305455"
       x="2.4782972"
       y="2.4807773"
       rx="0.76219845"
       ry="0.53215331"
       transform="matrix(0.71204848,0.7021303,-0.71204848,0.7021303,0,0)" />
  </g>
</svg>
