<?xml version="1.0" encoding="UTF-8" standalone="no"?>
<svg
   xmlns:dc="http://purl.org/dc/elements/1.1/"
   xmlns:cc="http://creativecommons.org/ns#"
   xmlns:rdf="http://www.w3.org/1999/02/22-rdf-syntax-ns#"
   xmlns:svg="http://www.w3.org/2000/svg"
   xmlns="http://www.w3.org/2000/svg"
   xmlns:xlink="http://www.w3.org/1999/xlink"
   xmlns:sodipodi="http://sodipodi.sourceforge.net/DTD/sodipodi-0.dtd"
   xmlns:inkscape="http://www.inkscape.org/namespaces/inkscape"
   height="16"
   viewBox="0 0 4.2333333 4.2333335"
   width="16"
   id="svg2"
   version="1.1"
   inkscape:version="0.92.4 (unknown)"
   sodipodi:docname="sc_framelinecolor.svg"
   inkscape:export-filename="/home/tamara/Desktop/IKON/5_258 (tamara)/sc (222)/Tanggal 13/sc_framelinecolor.png"
   inkscape:export-xdpi="90"
   inkscape:export-ydpi="90">
  <metadata
     id="metadata157">
    <rdf:RDF>
      <cc:Work
         rdf:about="">
        <dc:format>image/svg+xml</dc:format>
        <dc:type
           rdf:resource="http://purl.org/dc/dcmitype/StillImage" />
        <dc:title />
      </cc:Work>
    </rdf:RDF>
  </metadata>
  <defs
     id="defs155" />
  <sodipodi:namedview
     pagecolor="#ffffff"
     bordercolor="#666666"
     borderopacity="1"
     objecttolerance="10"
     gridtolerance="10"
     guidetolerance="10"
     inkscape:pageopacity="0"
     inkscape:pageshadow="2"
     inkscape:window-width="1366"
     inkscape:window-height="707"
     id="namedview153"
     showgrid="true"
     inkscape:zoom="14.75"
     inkscape:cx="-0.75120692"
     inkscape:cy="7.4883398"
     inkscape:window-x="0"
     inkscape:window-y="0"
     inkscape:window-maximized="1"
     inkscape:current-layer="svg2">
    <inkscape:grid
       type="xygrid"
       id="grid4305" />
  </sodipodi:namedview>
  <radialGradient
     id="a"
     cx="29.962149"
     cy="131.46768"
     gradientTransform="matrix(0.18778643,-0.00430591,9.7263e-4,0.04241826,2.109254,290.26002)"
     gradientUnits="userSpaceOnUse"
     r="27.01967"
     xlink:href="#b" />
  <linearGradient
     id="b">
    <stop
       offset="0"
       stop-color="#fff"
       id="stop6" />
    <stop
       offset="1"
       stop-color="#fff"
       stop-opacity="0"
       id="stop8" />
  </linearGradient>
  <radialGradient
     id="c"
     cx="27.565985"
     cy="130.94269"
     gradientTransform="matrix(0.26458333,0,0,0.0741725,0,285.69667)"
     gradientUnits="userSpaceOnUse"
     r="27.01967"
     xlink:href="#d" />
  <linearGradient
     id="d">
    <stop
       offset="0"
       id="stop12" />
    <stop
       offset="1"
       stop-opacity="0"
       id="stop14" />
  </linearGradient>
  <linearGradient
     id="e"
     gradientUnits="userSpaceOnUse"
     x1="6.522222"
     x2="6.600205"
     xlink:href="#b"
     y1="292.512989"
     y2="295.555922" />
  <linearGradient
     id="f"
     gradientUnits="userSpaceOnUse"
     x1="6.09146"
     x2="5.99793"
     xlink:href="#d"
     y1="290.848175"
     y2="299.046853" />
  <linearGradient
     id="g"
     gradientUnits="userSpaceOnUse"
     x1="20.788102"
     x2="10.963702"
     xlink:href="#d"
     y1="268.967757"
     y2="278.9582" />
  <radialGradient
     id="h"
     cx="-16.60284"
     cy="73.863823"
     gradientTransform="matrix(0.25473422,0.02748889,0.02789079,1.846495,8.739394,148.46325)"
     gradientUnits="userSpaceOnUse"
     r="4.390625"
     xlink:href="#b" />
  <linearGradient
     id="i"
     gradientUnits="userSpaceOnUse"
     x1="26.106408"
     x2="19.665187"
     y1="294.20518"
     y2="287.146715">
    <stop
       offset="0"
       stop-opacity=".447653"
       id="stop21" />
    <stop
       offset=".5"
       stop-opacity=".133574"
       id="stop23" />
    <stop
       offset="1"
       stop-opacity="0"
       id="stop25" />
  </linearGradient>
  <linearGradient
     id="j"
     gradientTransform="matrix(0.25473422,0.02748889,0.00409549,0.27114288,0.312576,262.44581)"
     gradientUnits="userSpaceOnUse"
     x1="95.84687"
     x2="76.361786"
     xlink:href="#k"
     y1="117.20569"
     y2="88.409065" />
  <linearGradient
     id="k">
    <stop
       offset="0"
       stop-color="#393a38"
       id="stop29" />
    <stop
       offset="1"
       stop-color="#393a38"
       stop-opacity="0"
       id="stop31" />
  </linearGradient>
  <linearGradient
     id="l"
     gradientTransform="matrix(0.25473422,0.02748889,0.00409549,0.27114288,0.312576,262.44581)"
     gradientUnits="userSpaceOnUse"
     x1="87.068436"
     x2="105.05599"
     xlink:href="#k"
     y1="146.89471"
     y2="58.65321" />
  <radialGradient
     id="m"
     cx="104.66048"
     cy="65.847801"
     fx="115.7285"
     fy="56.281128"
     gradientTransform="matrix(0.12000256,-0.06913218,0.27307381,0.47401268,-5.347457,256.70822)"
     gradientUnits="userSpaceOnUse"
     r="29.998838"
     xlink:href="#b" />
  <linearGradient
     id="n"
     gradientTransform="matrix(0.25438602,-0.01155329,-0.00145997,0.29661167,2.120812,262.343)"
     gradientUnits="userSpaceOnUse"
     spreadMethod="reflect"
     x1="106.2739"
     x2="79.54409"
     y1="52.468563"
     y2="69.991898">
    <stop
       offset="0"
       stop-color="#9a7600"
       id="stop36" />
    <stop
       offset=".09292036"
       stop-color="#e3ad00"
       id="stop38" />
    <stop
       offset=".5043171"
       stop-color="#ffcd2c"
       id="stop40" />
    <stop
       offset=".91571385"
       stop-color="#e3ad00"
       id="stop42" />
    <stop
       offset="1"
       stop-color="#b98d00"
       id="stop44" />
  </linearGradient>
  <linearGradient
     id="o"
     gradientTransform="matrix(0.29713891,0,0,0.20078083,-85.654012,234.56977)"
     gradientUnits="userSpaceOnUse"
     x1="-113.6435"
     x2="-118.30019"
     xlink:href="#d"
     y1="78.293831"
     y2="33.764427" />
  <linearGradient
     id="p"
     gradientTransform="matrix(0.29713891,0,0,0.20078083,-85.654012,234.56977)"
     gradientUnits="userSpaceOnUse"
     x1="-82.509743"
     x2="-118.91476"
     xlink:href="#q"
     y1="64.065186"
     y2="63.447075" />
  <linearGradient
     id="q">
    <stop
       offset="0"
       id="stop49" />
    <stop
       offset=".40659341"
       stop-opacity=".682353"
       id="stop51" />
    <stop
       offset=".45329672"
       stop-opacity=".487365"
       id="stop53" />
    <stop
       offset=".5"
       stop-opacity=".361011"
       id="stop55" />
    <stop
       offset=".70604396"
       stop-opacity=".151625"
       id="stop57" />
    <stop
       offset="1"
       stop-opacity="0"
       id="stop59" />
  </linearGradient>
  <linearGradient
     id="r"
     gradientTransform="matrix(0.29713891,0,0,0.20078083,-85.445361,234.71771)"
     gradientUnits="userSpaceOnUse"
     x1="-146.75171"
     x2="-123.66653"
     xlink:href="#q"
     y1="74.959991"
     y2="73.415115" />
  <linearGradient
     id="s"
     gradientTransform="matrix(0.29885269,0.02243057,0.01404722,0.31925895,39.69721,260.36754)"
     gradientUnits="userSpaceOnUse"
     x1="-116.78745"
     x2="-84.77729"
     xlink:href="#d"
     y1="116.55856"
     y2="93.56797" />
  <radialGradient
     id="t"
     cx="70.623695"
     cy="53.380299"
     fx="70.964447"
     fy="76.702087"
     gradientTransform="matrix(0.29801846,-0.15293049,0.1869776,0.35408102,-14.863487,266.76096)"
     gradientUnits="userSpaceOnUse"
     r="53.565186">
    <stop
       offset="0"
       stop-color="#fff"
       stop-opacity="0"
       id="stop64" />
    <stop
       offset=".5"
       stop-color="#7f7f7f"
       stop-opacity="0"
       id="stop66" />
    <stop
       offset="1"
       id="stop68" />
  </radialGradient>
  <linearGradient
     id="u"
     gradientTransform="matrix(0.29885269,0.02243057,0.01404722,0.31925895,39.69721,260.36754)"
     gradientUnits="userSpaceOnUse"
     x1="-70.057068"
     x2="-27.8897"
     y1="95.781326"
     y2="66.671455">
    <stop
       offset="0"
       stop-color="#fff"
       id="stop71" />
    <stop
       offset=".42597079"
       stop-color="#fff"
       id="stop73" />
    <stop
       offset=".5892781"
       stop-color="#f1f1f1"
       id="stop75" />
    <stop
       offset=".80219781"
       stop-color="#eaeaea"
       id="stop77" />
    <stop
       offset="1"
       stop-color="#dfdfdf"
       id="stop79" />
  </linearGradient>
  <radialGradient
     id="v"
     cx="63.84724"
     cy="121.47017"
     fx="95.480644"
     gradientTransform="matrix(0.26458333,0,0,0.02705973,0,291.98536)"
     gradientUnits="userSpaceOnUse"
     r="63.84724"
     xlink:href="#d" />
  <linearGradient
     id="w"
     gradientUnits="userSpaceOnUse"
     x1="4.233333"
     x2="23.283333"
     y1="267.366693"
     y2="284.299986"
     gradientTransform="matrix(0.125,0,0,0.125,0,-32.89167)">
    <stop
       offset="0"
       stop-color="#4d4d4d"
       id="stop83" />
    <stop
       offset="1"
       stop-color="#4d4d4d"
       stop-opacity="0"
       id="stop85" />
  </linearGradient>
  <path
     d="M 1.8988051,1.1010757 C 1.7730761,1.3249255 1.115419,2.4958351 0.9896905,2.719685 0.86396167,2.9435348 1.139692,3.3355624 1.6053024,3.5948269 2.0709129,3.8540915 2.550723,3.8827696 2.6764518,3.6589197 2.8021801,3.4350698 3.4598377,2.2641603 3.5855667,2.0403104 3.7112953,1.8164605 3.4355649,1.424433 2.9699542,1.1651684 2.504344,0.90590389 2.0245337,0.87722583 1.8988051,1.1010757 Z"
     id="path120"
     style="fill:#f0e3ec;fill-opacity:1;stroke:#e602b4;stroke-width:0.26458334;stroke-miterlimit:4;stroke-dasharray:none;stroke-opacity:1"
     inkscape:connector-curvature="0" />
  <path
     d="m 2.1458525,0.94899906 c 0.041042,-0.004452 0.08549,-0.005665 0.1326382,-0.002823 0.1885922,0.0113383 0.413346,0.0656919 0.6419148,0.19318104 0.1462155,0.081555 0.326556,0.1924522 0.4274996,0.2906357 C 3.2505554,1.3389634 3.0771572,1.2361178 2.9409063,1.1601212 2.7123375,1.0326322 2.4875837,0.97827851 2.2989915,0.96693921 2.1103993,0.95559991 1.9621916,1.0026934 1.9059621,1.1113344 1.8524759,1.2146743 1.8939759,1.3624131 2.0023691,1.5167237 2.0400069,1.5703055 2.0822499,1.6200025 2.1363387,1.6732992 2.07304,1.6134211 2.0243654,1.5564597 1.9818684,1.4959599 1.8734748,1.3416493 1.8273058,1.2006239 1.8871714,1.0939006 1.9320704,1.0138591 2.0227277,0.96237051 2.1458525,0.94899906 Z M 3.3435689,1.426147 c 0.062364,0.05993 0.1163183,0.1212655 0.1591374,0.1822242 0.1141846,0.1625546 0.1538665,0.3230402 0.088173,0.4401532 C 3.5251857,2.1656374 3.4163841,2.2070474 3.217716,2.1951028 3.019048,2.1831582 2.7782259,2.109411 2.5418353,1.9775589 2.3838699,1.8894508 2.2480698,1.7865541 2.140842,1.6794768 2.2446392,1.7790774 2.3735902,1.8743886 2.5213344,1.956796 2.7577251,2.0886472 2.9977626,2.1632994 3.1964306,2.1752449 3.3950987,2.1871895 3.5039128,2.144957 3.5696063,2.027844 3.6352998,1.910731 3.595618,1.7502464 3.4814334,1.5876908 3.4435197,1.5337161 3.3969329,1.4794931 3.3435689,1.426147 Z"
     id="path144"
     inkscape:connector-curvature="0"
     style="fill:#f0e3ec;fill-opacity:1;stroke:#e602b4;stroke-width:0.26458334;stroke-linecap:round;stroke-linejoin:round;stroke-miterlimit:4;stroke-dasharray:none;stroke-opacity:1"
     sodipodi:nodetypes="ccscsssscssccsssscssssc" />
  <path
     d="M 3.4395834,3.9686766 C 3.31876,3.9700928 3.2168709,3.9505852 3.1919949,3.9514785 3.0274367,3.9573858 2.6331805,3.8463208 2.7908518,3.7097894 2.9631059,3.5606296 3.4365566,3.5646366 3.6209012,3.7084605 3.82208,3.8654172 3.5603871,3.9672575 3.4395834,3.9686776 Z"
     id="path152"
     inkscape:connector-curvature="0"
     style="fill:#f3b7d9;fill-opacity:1;fill-rule:evenodd;stroke:none;stroke-width:0.01930203" />
  <path
     d="M 2.5815943,2.4883002 1.9441603,3.5636919 C 1.5630172,3.3924529 1.1145143,2.9924005 1.0417785,2.7268252 L 1.6626363,1.6324845 c 0.076635,0.3894658 0.542996,0.6759854 0.918958,0.8558157 z"
     id="path136"
     style="fill:#e601b4;fill-opacity:1"
     inkscape:connector-curvature="0" />
  <g
     id="g4453"
     style="fill:#f3b7d9;fill-opacity:1;stroke:none"
     transform="translate(-0.12082935,0.8631029)">
    <path
       style="fill:#f3b7d9;fill-opacity:1;stroke:none"
       inkscape:connector-curvature="0"
       id="path140"
       d="M 3.7171581,0.95408207 C 3.7242625,1.0137477 3.7165121,1.0691813 3.6907528,1.1164921 3.5691149,1.3399006 3.1178903,1.2848162 2.6554289,1.0480082 2.5317667,0.9846846 2.5290025,0.87916661 2.5020794,0.85668879 2.6948277,0.73569485 3.6459093,0.65630558 3.7171581,0.95408207 Z"
       sodipodi:nodetypes="ccccc" />
    <path
       style="fill:#f3b7d9;fill-opacity:1;fill-rule:evenodd;stroke:none;stroke-width:0.00256643"
       inkscape:connector-curvature="0"
       id="path158"
       d="m 3.2958294,1.2535638 c 0.1471797,-0.00352 0.2013097,0.1147084 0.210761,0.2297184 0.02825,0.343769 -0.030661,0.584751 -0.010962,0.8598023 0.004,0.055786 0.1032841,0.111876 0.1149539,-0.012405 0.027081,-0.2884043 -0.018947,-0.4907833 0.01343,-0.8891391 0.010694,-0.1315766 0.051078,-0.2579744 0.086505,-0.4083885" />
  </g>
  <g
     id="g4351">
    <rect
       ry="0.26458335"
       rx="0.26458332"
       y="0.25367954"
       x="0.26458332"
       height="0.27548715"
       width="3.7041667"
       id="rect4347"
       style="opacity:1;fill:#9d3a9b;fill-opacity:1;fill-rule:nonzero;stroke:none;stroke-width:0.13229167;stroke-linecap:round;stroke-linejoin:round;stroke-miterlimit:4;stroke-dasharray:none;stroke-dashoffset:0;stroke-opacity:1" />
    <rect
       transform="rotate(90)"
       style="opacity:1;fill:#9d3a9b;fill-opacity:1;fill-rule:nonzero;stroke:none;stroke-width:0.13229167;stroke-linecap:round;stroke-linejoin:round;stroke-miterlimit:4;stroke-dasharray:none;stroke-dashoffset:0;stroke-opacity:1"
       id="rect4349"
       width="3.7041669"
       height="0.26458323"
       x="0.26458335"
       y="-0.52916658"
       rx="0.26458332"
       ry="0.26458335" />
  </g>
</svg>
