<?xml version="1.0" encoding="UTF-8" standalone="no"?>
<svg
   xmlns:dc="http://purl.org/dc/elements/1.1/"
   xmlns:cc="http://creativecommons.org/ns#"
   xmlns:rdf="http://www.w3.org/1999/02/22-rdf-syntax-ns#"
   xmlns:svg="http://www.w3.org/2000/svg"
   xmlns="http://www.w3.org/2000/svg"
   xmlns:sodipodi="http://sodipodi.sourceforge.net/DTD/sodipodi-0.dtd"
   xmlns:inkscape="http://www.inkscape.org/namespaces/inkscape"
   height="16"
   viewBox="0 0 4.2333333 4.2333335"
   width="16"
   id="svg2"
   version="1.1"
   inkscape:version="0.91 r13725"
   sodipodi:docname="sc_graphicfiltersobel.svg"
   inkscape:export-filename="/home/tamara/Desktop/IKON/5_258 (tamara)/sc (222)/Tanggal 18/sc_graphicfiltersobel.png"
   inkscape:export-xdpi="90"
   inkscape:export-ydpi="90">
  <metadata
     id="metadata131">
    <rdf:RDF>
      <cc:Work
         rdf:about="">
        <dc:format>image/svg+xml</dc:format>
        <dc:type
           rdf:resource="http://purl.org/dc/dcmitype/StillImage" />
      </cc:Work>
    </rdf:RDF>
  </metadata>
  <defs
     id="defs129">
    <clipPath
       clipPathUnits="userSpaceOnUse"
       id="clipPath4333">
      <rect
         style="opacity:1;fill:#e602b4;fill-opacity:1;fill-rule:nonzero;stroke:none;stroke-width:3;stroke-linecap:round;stroke-linejoin:round;stroke-miterlimit:4;stroke-dasharray:3, 6;stroke-dashoffset:0;stroke-opacity:1"
         id="rect4335"
         width="1.0996991"
         height="8.7975931"
         x="2.5607188"
         y="-8.8786325"
         transform="matrix(0.7655581,0.64336677,-0.64336677,0.7655581,0,0)" />
    </clipPath>
  </defs>
  <sodipodi:namedview
     pagecolor="#ffffff"
     bordercolor="#666666"
     borderopacity="1"
     objecttolerance="10"
     gridtolerance="10"
     guidetolerance="10"
     inkscape:pageopacity="0"
     inkscape:pageshadow="2"
     inkscape:window-width="1366"
     inkscape:window-height="718"
     id="namedview127"
     showgrid="true"
     inkscape:zoom="29.5"
     inkscape:cx="10.54945"
     inkscape:cy="6.1672468"
     inkscape:window-x="0"
     inkscape:window-y="0"
     inkscape:window-maximized="1"
     inkscape:current-layer="svg2">
    <inkscape:grid
       type="xygrid"
       id="grid4316" />
  </sodipodi:namedview>
  <linearGradient
     id="a"
     gradientTransform="matrix(-0.13662361,-0.12760884,0.12760884,-0.13662361,-0.27610203,-49.621622)"
     gradientUnits="userSpaceOnUse"
     x1="-203.24332"
     x2="-193.88841"
     y1="-176.39243"
     y2="-176.39243">
    <stop
       offset="0"
       stop-color="#a6a6a6"
       id="stop5" />
    <stop
       offset=".19872831"
       stop-color="#8e8e8e"
       id="stop7" />
    <stop
       offset=".75"
       stop-color="#f1f1f1"
       id="stop9" />
    <stop
       offset=".875"
       stop-color="#ccc"
       id="stop11" />
    <stop
       offset="1"
       stop-color="#a6a6a6"
       id="stop13" />
  </linearGradient>
  <linearGradient
     id="b"
     gradientUnits="userSpaceOnUse"
     x1="13.251663"
     x2="8.438765"
     y1="7.266298"
     y2="2.659335"
     gradientTransform="matrix(0.26458334,0,0,0.26458334,4.7469214e-7,-6.750276e-7)">
    <stop
       offset="0"
       stop-color="#0a0a0a"
       id="stop16" />
    <stop
       offset=".1257111"
       stop-color="#050505"
       id="stop18" />
    <stop
       offset=".4977861"
       stop-color="#6d6d6d"
       id="stop20" />
    <stop
       offset=".74167585"
       stop-color="#c3c3c3"
       id="stop22" />
    <stop
       offset="1"
       stop-color="#393939"
       id="stop24" />
  </linearGradient>
  <filter
     id="c"
     color-interpolation-filters="sRGB"
     height="1.571718"
     width="1.57172"
     x="-.28586"
     y="-.285859">
    <feGaussianBlur
       stdDeviation=".37816896"
       id="feGaussianBlur27" />
  </filter>
  <filter
     id="d"
     color-interpolation-filters="sRGB"
     height="1.437616"
     width="1.788685"
     x="-.394342"
     y="-.218808">
    <feGaussianBlur
       stdDeviation=".37816896"
       id="feGaussianBlur30" />
  </filter>
  <filter
     id="e"
     color-interpolation-filters="sRGB"
     height="1.876355"
     width="1.936783"
     x="-.468392"
     y="-.438177">
    <feGaussianBlur
       stdDeviation=".37816896"
       id="feGaussianBlur33" />
  </filter>
  <filter
     id="f"
     color-interpolation-filters="sRGB"
     height="1.405473"
     width="1.617426"
     x="-.308713"
     y="-.202737">
    <feGaussianBlur
       stdDeviation=".37816896"
       id="feGaussianBlur36" />
  </filter>
  <filter
     id="g"
     color-interpolation-filters="sRGB"
     height="2.358345"
     width="3.263895"
     x="-1.131948"
     y="-.679173">
    <feGaussianBlur
       stdDeviation=".37816896"
       id="feGaussianBlur39" />
  </filter>
  <filter
     id="h"
     color-interpolation-filters="sRGB"
     height="2.11969"
     width="2.297999"
     x="-.648999"
     y="-.559845">
    <feGaussianBlur
       stdDeviation=".37816896"
       id="feGaussianBlur42" />
  </filter>
  <filter
     id="i"
     color-interpolation-filters="sRGB"
     height="1.168078"
     width="1.32932"
     x="-.16466"
     y="-.084039">
    <feGaussianBlur
       stdDeviation=".37816896"
       id="feGaussianBlur45" />
  </filter>
  <filter
     id="j"
     color-interpolation-filters="sRGB"
     height="1.234939"
     width="1.848961"
     x="-.42448"
     y="-.117469">
    <feGaussianBlur
       stdDeviation=".37816896"
       id="feGaussianBlur48" />
  </filter>
  <filter
     id="k"
     color-interpolation-filters="sRGB"
     height="1.343883"
     width="1.20738"
     x="-.10369"
     y="-.171942">
    <feGaussianBlur
       stdDeviation=".37816896"
       id="feGaussianBlur51" />
  </filter>
  <filter
     id="l"
     color-interpolation-filters="sRGB"
     height="1.34927"
     width="1.207818"
     x="-.103909"
     y="-.174635">
    <feGaussianBlur
       stdDeviation=".37816896"
       id="feGaussianBlur54" />
  </filter>
  <filter
     id="m"
     color-interpolation-filters="sRGB"
     height="1.305244"
     width="1.295291"
     x="-.147645"
     y="-.152622">
    <feGaussianBlur
       stdDeviation=".37816896"
       id="feGaussianBlur57" />
  </filter>
  <filter
     id="n"
     color-interpolation-filters="sRGB"
     height="1.857579"
     width="2.715161"
     x="-.85758"
     y="-.428789">
    <feGaussianBlur
       stdDeviation=".37816896"
       id="feGaussianBlur60" />
  </filter>
  <filter
     id="o"
     color-interpolation-filters="sRGB"
     height="1.857583"
     width="1.57172"
     x="-.28586"
     y="-.428791">
    <feGaussianBlur
       stdDeviation=".37816896"
       id="feGaussianBlur63" />
  </filter>
  <filter
     id="p"
     color-interpolation-filters="sRGB"
     height="1.343032"
     width="1.57172"
     x="-.28586"
     y="-.171516">
    <feGaussianBlur
       stdDeviation=".37816896"
       id="feGaussianBlur66" />
  </filter>
  <filter
     id="q"
     color-interpolation-filters="sRGB"
     height="1.57172"
     width="1.85758"
     x="-.42879"
     y="-.28586">
    <feGaussianBlur
       stdDeviation=".37816896"
       id="feGaussianBlur69" />
  </filter>
  <filter
     id="r"
     color-interpolation-filters="sRGB"
     height="1.42879"
     width="1.85758"
     x="-.42879"
     y="-.214395">
    <feGaussianBlur
       stdDeviation=".37816896"
       id="feGaussianBlur72" />
  </filter>
  <filter
     id="s"
     color-interpolation-filters="sRGB"
     height="1.57172"
     width="1.57172"
     x="-.28586"
     y="-.28586">
    <feGaussianBlur
       stdDeviation=".37816896"
       id="feGaussianBlur75" />
  </filter>
  <g
     id="g5025">
    <g
       transform="matrix(1.0517691,0,0,1.0517691,-0.16774839,-0.07388645)"
       id="g4337">
      <path
         d="m 12.699999,277.94999 0,1.05833 1.058334,0 1.058333,1.05833 1.058333,0 0,-1.05833 0,-1.05833 -2.116666,-1.05834 z"
         id="path81"
         style="fill:#e602b4;fill-rule:evenodd;filter:url(#s)"
         inkscape:connector-curvature="0"
         transform="matrix(0.16638484,0,0,0.16638484,-0.29562227,-43.639168)" />
      <path
         d="m 13.758333,279.00832 0,1.05833 -1.058334,0 0,1.05834 0,1.05833 0,1.05833 1.058334,-1.05833 c 0,0 1.058333,-1.05833 1.058333,-1.05833 l 0,-1.05834 z"
         id="path83"
         style="fill:#e602b4;fill-rule:evenodd;filter:url(#r)"
         inkscape:connector-curvature="0"
         transform="matrix(0.16638484,0,0,0.16638484,-0.29562227,-43.639168)" />
      <path
         d="m 15.874999,279.00832 1.058334,1.05833 1.058333,-1.05833 1.76389,-1.76388 -3.527778,-1.41111 -0.352779,2.11666 z"
         id="path85"
         style="fill:#e602b4;fill-rule:evenodd;filter:url(#q)"
         inkscape:connector-curvature="0"
         transform="matrix(0.16638484,0,0,0.16638484,-0.29562227,-43.639168)" />
      <path
         d="M 6.3730469,12.521484 5.625,13.269531 l 0,0.748047 -1.4960938,0.748047 c 0,0.747795 0.7480469,0.748047 0.7480469,0.748047 L 5.3632812,16 l 0.3925782,0 0.6171875,-1.234375 0,-0.748047 z"
         transform="matrix(0.23547917,0,0,0.23547917,0.31682187,0.18705556)"
         id="path87"
         style="fill:#e602b4;fill-rule:evenodd;stroke-width:0.70657998;filter:url(#p)"
         inkscape:connector-curvature="0" />
      <path
         d="m 12.699999,283.24165 1.058334,0 1.058333,0 1.058333,-1.05833 -1.058333,-1.05833 z"
         id="path89"
         style="fill:#e602b4;fill-rule:evenodd;filter:url(#o)"
         inkscape:connector-curvature="0"
         transform="matrix(0.16638484,0,0,0.16638484,-0.29562227,-43.639168)" />
      <path
         d="m 16.933333,282.18332 0,2.11667 1.058333,0 0,-2.11667 z"
         id="path91"
         style="fill:#e602b4;fill-rule:evenodd;filter:url(#n)"
         inkscape:connector-curvature="0"
         transform="matrix(0.16638484,0,0,0.16638484,-0.29562227,-43.639168)" />
      <g
         id="g93"
         style="fill-rule:evenodd;stroke-width:0.70657998"
         transform="matrix(0.16638484,0,0,0.16638484,-0.29562227,-43.639168)">
        <path
           d="M 8.6835938,13.304688 7.7382812,14.107422 6.4160156,14.060547 6.3691406,14.580078 5.8535156,16 9.4453125,16 10.146484,15.052734 9.25,14.769531 Z"
           transform="matrix(1.4152682,0,0,1.4152682,3.680889,263.40274)"
           id="path95"
           style="fill:#e602b4;filter:url(#m)"
           inkscape:connector-curvature="0" />
        <path
           d="m 9.6171875,15.425781 -0.2324219,0.501953 c 0,0 -0.3296858,0.02426 -0.6191406,0.07227 l 1.517578,0 C 9.9407982,15.708721 9.6171875,15.425781 9.6171875,15.425781 Z"
           transform="matrix(1.4152682,0,0,1.4152682,3.680889,263.40274)"
           id="path97"
           inkscape:connector-curvature="0"
           style="fill:#616161;filter:url(#l)" />
        <path
           d="M 11.65625,15.052734 10.759766,15.193359 9.9101562,15.429688 10.390625,16 l 3.427734,0 -0.273437,-0.523438 -0.94336,-0.236328 z"
           transform="matrix(1.4152682,0,0,1.4152682,3.680889,263.40274)"
           id="path99"
           style="fill:#e602b4;fill-opacity:0.859649;filter:url(#k)"
           inkscape:connector-curvature="0" />
      </g>
      <path
         d="m 18.909319,284.57195 0.267269,-1.73725 -0.400904,-0.4009 0.26727,-1.33635 0.801808,-1.46998 -0.801808,0.0668 c 0,0 -1.069078,0.20046 -0.601357,0 0.467722,-0.20045 0.868626,-2.00452 0.868626,-2.00452 0,0 -0.534539,-0.4009 -0.534539,0.33409 0,0.73499 0,2.20497 -0.334087,2.53906 -0.334087,0.33409 -0.734991,1.87089 -0.734991,1.87089 0,0 0.734991,1.40316 0.734991,1.73725 0,0.33409 -0.200452,1.13589 -0.200452,1.13589 z"
         id="path101"
         style="fill:#e602b4;fill-rule:evenodd;filter:url(#j)"
         inkscape:connector-curvature="0"
         transform="matrix(0.16638484,0,0,0.16638484,-0.29562227,-43.639168)" />
      <g
         id="g103"
         style="fill:#696969;fill-rule:evenodd"
         transform="matrix(0.16638484,0,0,0.16638484,-0.29562227,-43.639168)">
        <path
           d="m 9.2207986,283.77014 0.1336347,-1.26953 -0.4677217,-0.60135 c 0,0 -0.4677216,-1.26953 -0.1336346,-1.5368 0.3340869,-0.26727 1.069078,-1.33635 1.5368,-1.5368 0.467721,-0.20045 1.00226,0 0.868626,-0.46772 -0.133635,-0.46772 -1.135896,-0.80181 -0.601357,-1.5368 0.534539,-0.73499 1.875584,-3.87685 2.142854,-3.81003 0.856183,-0.3791 2.380229,1.97565 0.663476,3.27549 l 0.734991,0.4009 -1.26953,1.33635 0.133635,1.06908 c 0,0 1.069078,0.0668 0.935443,0.4009 -0.133635,0.33409 -0.334087,0.53454 -0.334087,0.53454 l -1.069078,0.0668 -1.069078,-0.60136 -0.267269,0.93545 c 0,0 0.734991,0.0668 0.133634,0.4009 -0.601356,0.33409 -1.5367993,0.0668 -1.4031646,0.46772 0.1336346,0.40091 1.8708866,1.33635 1.6036166,1.46998 -0.267269,0.13364 -1.202712,0.60136 -1.202712,0.60136 z"
           id="path105"
           style="fill:#e602b4;filter:url(#i)"
           inkscape:connector-curvature="0" />
        <path
           d="m 3.5371094,15.289062 c -0.094424,0.377689 -0.5206095,0.141505 -0.095703,0.566407 0.053504,0.0535 0.081336,0.09618 0.1210938,0.144531 l 0.5390625,0 c 0.057913,-0.115826 0.1425781,-0.287109 0.1425781,-0.287109 z"
           transform="matrix(1.4152682,0,0,1.4152682,3.680889,263.40274)"
           id="path107"
           style="fill:#e602b4;stroke-width:0.70657998;filter:url(#h)"
           inkscape:connector-curvature="0" />
        <path
           d="m 6.5481032,282.70107 0.2004523,1.33634 0.6013564,-0.73499 -0.1336347,-0.46772 z"
           id="path109"
           style="fill:#e602b4;filter:url(#g)"
           inkscape:connector-curvature="0" />
      </g>
      <path
         d="m 17.706606,281.89926 c -0.267269,0.20045 -1.069078,-0.20045 -1.002261,0.33409 0.06682,0.53453 0.334087,2.27179 0.334087,2.27179 l -1.202713,-1.93771 -1.069078,-1.40316 0.26727,-1.1359 1.069078,0.46772 -0.200452,1.06908 0.668174,1.06908 z"
         id="path111"
         style="fill:#e602b4;fill-rule:evenodd;filter:url(#f)"
         inkscape:connector-curvature="0"
         transform="matrix(0.16638484,0,0,0.16638484,-0.29562227,-43.639168)" />
      <path
         d="m 16.503893,281.23108 0.868626,-0.0668 0.534539,-1.1359 0.06682,-0.66817 c 0,0 -0.668174,0.73499 -0.935444,0.60135 -0.267269,-0.13363 -0.935443,-0.8018 -0.935443,-0.8018 l -0.06682,1.33634 z"
         id="path113"
         style="fill:#e602b4;fill-rule:evenodd;filter:url(#e)"
         inkscape:connector-curvature="0"
         transform="matrix(0.16638484,0,0,0.16638484,-0.29562227,-43.639168)" />
      <path
         d="m 11.091685,283.25231 0.217157,-0.43431 c 0,0 0.400904,-0.0167 0.317382,-0.11693 -0.08352,-0.10023 -0.718286,-0.56795 -0.718286,-0.56795 0,0 -0.334087,-0.40091 -0.300679,-0.53454 0.03341,-0.13363 0.551244,-0.61806 0.551244,-0.61806 l 0.451017,-0.31738 c 0,0 -0.400904,-0.13364 -0.3842,-0.3675 0.01671,-0.23386 0.116931,-0.81851 0.217157,-0.75169 0.100226,0.0668 1.018965,0.36749 1.018965,0.36749 0,0 0.23386,-0.23386 0.23386,0.13364 0,0.36749 0.26727,0.63476 0.200452,0.75169 -0.06682,0.11693 -0.250565,0.55124 -0.517834,0.68488 -0.26727,0.13363 -0.684878,0.7517 -0.684878,0.7517 0,0 -0.0167,0.53453 -0.05011,0.60135 -0.03341,0.0668 -0.116931,0.41761 -0.116931,0.41761 l -0.651469,0.43431 z"
         id="path115"
         style="fill:#e602b4;fill-rule:evenodd;filter:url(#d)"
         inkscape:connector-curvature="0"
         transform="matrix(0.16638484,0,0,0.16638484,-0.29562227,-43.639168)" />
      <path
         inkscape:connector-curvature="0"
         style="fill:#e602b4;fill-rule:evenodd;filter:url(#c)"
         id="path125"
         d="m 13.052778,275.83333 0,1.05833 1.763889,1.05834 c 1.158733,-1.12586 0.07931,-0.49829 0.352778,-10e-6 l 1.058333,0 0,-1.05833 0,-1.05833 -2.116666,-1.05834 z"
         transform="matrix(0.16638484,0,0,0.16638484,-0.29562227,-43.639168)" />
    </g>
    <rect
       clip-path="url(#clipPath4333)"
       ry="0"
       y="0"
       x="0"
       height="4.2333336"
       width="4.2333336"
       id="rect4318"
       style="opacity:1;fill:#f3b7d9;fill-opacity:1;fill-rule:nonzero;stroke:none;stroke-width:0.06614584;stroke-linecap:round;stroke-linejoin:round;stroke-miterlimit:4;stroke-dasharray:none;stroke-dashoffset:0;stroke-opacity:1" />
    <ellipse
       transform="matrix(0.7655581,0.64336677,-0.64336677,0.7655581,0,0)"
       style="opacity:1;fill:#9d3a9b;fill-opacity:1;fill-rule:nonzero;stroke:none;stroke-width:3;stroke-linecap:round;stroke-linejoin:round;stroke-miterlimit:4;stroke-dasharray:3, 6;stroke-dashoffset:0;stroke-opacity:1"
       id="ellipse4508"
       cx="3.1105683"
       cy="-0.081039637"
       rx="0.54984957"
       ry="0.27492478" />
    <ellipse
       transform="matrix(0.7655581,0.64336677,-0.64336677,0.7655581,0,0)"
       ry="0.27492478"
       rx="0.54984957"
       cy="-8.8786325"
       cx="3.1105683"
       id="path4504"
       style="opacity:1;fill:#e602b4;fill-opacity:1;fill-rule:nonzero;stroke:none;stroke-width:3;stroke-linecap:round;stroke-linejoin:round;stroke-miterlimit:4;stroke-dasharray:3, 6;stroke-dashoffset:0;stroke-opacity:1" />
  </g>
</svg>
