<?xml version="1.0" encoding="UTF-8" standalone="no"?>
<svg
   xmlns:dc="http://purl.org/dc/elements/1.1/"
   xmlns:cc="http://creativecommons.org/ns#"
   xmlns:rdf="http://www.w3.org/1999/02/22-rdf-syntax-ns#"
   xmlns:svg="http://www.w3.org/2000/svg"
   xmlns="http://www.w3.org/2000/svg"
   xmlns:sodipodi="http://sodipodi.sourceforge.net/DTD/sodipodi-0.dtd"
   xmlns:inkscape="http://www.inkscape.org/namespaces/inkscape"
   height="16"
   width="16"
   id="svg2"
   version="1.1"
   inkscape:version="0.91 r13725"
   sodipodi:docname="sc_gluevertaligntop.svg"
   inkscape:export-filename="/home/tamara/Desktop/IKON/5_258 (tamara)/sc (222)/Tanggal 15/sc_gluevertaligntop.png"
   inkscape:export-xdpi="90"
   inkscape:export-ydpi="90">
  <metadata
     id="metadata56">
    <rdf:RDF>
      <cc:Work
         rdf:about="">
        <dc:format>image/svg+xml</dc:format>
        <dc:type
           rdf:resource="http://purl.org/dc/dcmitype/StillImage" />
      </cc:Work>
    </rdf:RDF>
  </metadata>
  <defs
     id="defs54" />
  <sodipodi:namedview
     pagecolor="#ffffff"
     bordercolor="#666666"
     borderopacity="1"
     objecttolerance="10"
     gridtolerance="10"
     guidetolerance="10"
     inkscape:pageopacity="0"
     inkscape:pageshadow="2"
     inkscape:window-width="1366"
     inkscape:window-height="718"
     id="namedview52"
     showgrid="true"
     inkscape:zoom="14.75"
     inkscape:cx="-0.6779661"
     inkscape:cy="8"
     inkscape:window-x="0"
     inkscape:window-y="0"
     inkscape:window-maximized="1"
     inkscape:current-layer="svg2">
    <inkscape:grid
       type="xygrid"
       id="grid4184" />
  </sodipodi:namedview>
  <linearGradient
     id="a"
     gradientTransform="matrix(.06477706 0 0 .1431311 -68.204115 -54.65389)"
     gradientUnits="userSpaceOnUse"
     x1="399.77466"
     x2="399.77466"
     y1="1164.6696"
     y2="549.06134">
    <stop
       offset="0"
       stop-color="#a7a7a9"
       id="stop5" />
    <stop
       offset=".5"
       stop-color="#7d7d83"
       id="stop7" />
    <stop
       offset="1"
       stop-color="#aaaab1"
       id="stop9" />
  </linearGradient>
  <linearGradient
     id="b"
     gradientTransform="matrix(.5000001 0 0 1.0000001 -64.000001 -132)"
     gradientUnits="userSpaceOnUse"
     x1="-63.999985"
     x2="124.09152"
     y1="135.99998"
     y2="27.999992">
    <stop
       offset="0"
       stop-color="#fff"
       id="stop12" />
    <stop
       offset=".42597079"
       stop-color="#fff"
       id="stop14" />
    <stop
       offset=".5892781"
       stop-color="#f1f1f1"
       id="stop16" />
    <stop
       offset=".80219781"
       stop-color="#eaeaea"
       id="stop18" />
    <stop
       offset="1"
       stop-color="#dfdfdf"
       id="stop20" />
  </linearGradient>
  <linearGradient
     id="c"
     gradientTransform="matrix(1.9227921 0 0 2.0000003 -98.656196 -16)"
     gradientUnits="userSpaceOnUse"
     x1="102.31124"
     x2="74.330322"
     y1="-5.830213"
     y2="32">
    <stop
       offset="0"
       stop-color="#fff"
       id="stop23" />
    <stop
       offset="1"
       stop-color="#fff"
       stop-opacity="0"
       id="stop25" />
  </linearGradient>
  <linearGradient
     id="d"
     gradientTransform="matrix(-.540151 -.540151 -.48613592 .48613592 3.671372 79.955834)"
     gradientUnits="userSpaceOnUse"
     x1="-21.213205"
     x2="25.455845"
     y1="-80.024391"
     y2="-104.6518">
    <stop
       offset="0"
       stop-color="#0968ef"
       id="stop28" />
    <stop
       offset="1"
       stop-color="#aecffc"
       id="stop30" />
  </linearGradient>
  <g
     id="g4210"
     transform="translate(-6,-6)">
    <g
       id="g4215"
       transform="matrix(0,1,-1,0,22,6)">
      <rect
         height="14"
         rx="0.47620806"
         ry="0.55383754"
         transform="matrix(0,1,1,0,0,0)"
         width="14"
         x="1"
         y="1"
         id="rect54"
         style="opacity:1;fill:#9e3a9c;fill-opacity:1" />
      <rect
         style="fill:#f0e3ec;fill-opacity:1;fill-rule:evenodd"
         id="rect58"
         y="2"
         x="2"
         width="12"
         transform="matrix(0,1,1,0,0,0)"
         ry="0.75"
         rx="0.74999928"
         height="12" />
    </g>
    <g
       id="g4886"
       transform="matrix(0,1,-1,0,22,6.0000038)">
      <path
         style="opacity:1;fill:#f3b7d9;fill-opacity:1;fill-rule:nonzero;stroke:#9d3a9b;stroke-width:0.25;stroke-linecap:round;stroke-linejoin:round;stroke-miterlimit:4;stroke-dasharray:none;stroke-dashoffset:0;stroke-opacity:1"
         d="m 9.3789062,5.5 c -0.2769999,0 -0.5,0.223 -0.5,0.5 l 0,5 -5,0 c -0.00133,0 -0.00258,-10e-6 -0.00391,0 l 0,-0.5 c 0,-0.207486 -0.1675136,-0.375 -0.375,-0.375 l -2,0 c -0.2074864,0 -0.375,0.167514 -0.375,0.375 l 0,2 c 0,0.207486 0.1675136,0.375 0.375,0.375 l 2,0 c 0.2074864,0 0.375,-0.167514 0.375,-0.375 l 0,-0.5 c 0.00133,10e-6 0.00257,0 0.00391,0 l 5.5,0 c 0.06925,0 0.1354532,-0.01383 0.1953126,-0.03906 C 9.7537969,11.885234 9.8789062,11.70775 9.8789062,11.5 l 0,-5.5 c 0,-0.277 -0.223,-0.5 -0.5,-0.5 z"
         id="rect4240"
         inkscape:connector-curvature="0" />
      <path
         inkscape:connector-curvature="0"
         style="fill:#e602b4;fill-opacity:1;stroke:#9d3a9b;stroke-width:0.25;stroke-miterlimit:4;stroke-dasharray:none;stroke-opacity:1"
         id="path44-6"
         d="m 6.550253,3.7071071 2.1213201,2.12132 -2.1213201,2.121321 0.707107,0.707107 2.1213202,-2.121321 2.1213208,2.121321 0.707106,-0.707107 -2.121319,-2.121321 2.121319,-2.12132 L 11.5,2.9999992 9.3786801,5.1213211 7.25736,2.9999992 Z" />
    </g>
  </g>
</svg>
