<?xml version="1.0" encoding="UTF-8" standalone="no"?>
<svg
   xmlns:dc="http://purl.org/dc/elements/1.1/"
   xmlns:cc="http://creativecommons.org/ns#"
   xmlns:rdf="http://www.w3.org/1999/02/22-rdf-syntax-ns#"
   xmlns:svg="http://www.w3.org/2000/svg"
   xmlns="http://www.w3.org/2000/svg"
   xmlns:sodipodi="http://sodipodi.sourceforge.net/DTD/sodipodi-0.dtd"
   xmlns:inkscape="http://www.inkscape.org/namespaces/inkscape"
   height="16"
   width="16"
   id="svg2"
   version="1.1"
   inkscape:version="0.91 r13725"
   sodipodi:docname="sc_gluehorzaligncenter.svg"
   inkscape:export-filename="/home/tamara/Desktop/IKON/5_258 (tamara)/sc (222)/Tanggal 15/sc_gluehorzaligncenter.png"
   inkscape:export-xdpi="90"
   inkscape:export-ydpi="90">
  <metadata
     id="metadata50">
    <rdf:RDF>
      <cc:Work
         rdf:about="">
        <dc:format>image/svg+xml</dc:format>
        <dc:type
           rdf:resource="http://purl.org/dc/dcmitype/StillImage" />
      </cc:Work>
    </rdf:RDF>
  </metadata>
  <defs
     id="defs48" />
  <sodipodi:namedview
     pagecolor="#ffffff"
     bordercolor="#666666"
     borderopacity="1"
     objecttolerance="10"
     gridtolerance="10"
     guidetolerance="10"
     inkscape:pageopacity="0"
     inkscape:pageshadow="2"
     inkscape:window-width="1366"
     inkscape:window-height="718"
     id="namedview46"
     showgrid="true"
     inkscape:zoom="29.5"
     inkscape:cx="8.5012975"
     inkscape:cy="7.2931457"
     inkscape:window-x="0"
     inkscape:window-y="0"
     inkscape:window-maximized="1"
     inkscape:current-layer="svg2">
    <inkscape:grid
       type="xygrid"
       id="grid4178" />
  </sodipodi:namedview>
  <linearGradient
     id="a"
     gradientTransform="matrix(0.00809713,0,0,0.01789139,-8.5255144,-6.8317362)"
     gradientUnits="userSpaceOnUse"
     x1="399.77466"
     x2="399.77466"
     y1="1164.6696"
     y2="549.06134">
    <stop
       offset="0"
       stop-color="#a7a7a9"
       id="stop5" />
    <stop
       offset=".5"
       stop-color="#7d7d83"
       id="stop7" />
    <stop
       offset="1"
       stop-color="#aaaab1"
       id="stop9" />
  </linearGradient>
  <linearGradient
     id="b"
     gradientTransform="matrix(0.06250001,0,0,0.12500001,-8.0000001,-16.5)"
     gradientUnits="userSpaceOnUse"
     x1="-63.999985"
     x2="124.09152"
     y1="135.99998"
     y2="27.999992">
    <stop
       offset="0"
       stop-color="#fff"
       id="stop12" />
    <stop
       offset=".42597079"
       stop-color="#fff"
       id="stop14" />
    <stop
       offset=".5892781"
       stop-color="#f1f1f1"
       id="stop16" />
    <stop
       offset=".80219781"
       stop-color="#eaeaea"
       id="stop18" />
    <stop
       offset="1"
       stop-color="#dfdfdf"
       id="stop20" />
  </linearGradient>
  <linearGradient
     id="c"
     gradientTransform="matrix(0.24034901,0,0,0.25000004,-12.332024,-2)"
     gradientUnits="userSpaceOnUse"
     x1="102.31124"
     x2="74.330322"
     y1="-5.830213"
     y2="32">
    <stop
       offset="0"
       stop-color="#fff"
       id="stop23" />
    <stop
       offset="1"
       stop-color="#fff"
       stop-opacity="0"
       id="stop25" />
  </linearGradient>
  <linearGradient
     id="d"
     gradientTransform="matrix(0.06751888,-0.06751888,0.06076699,0.06076699,13.662399,11.958945)"
     gradientUnits="userSpaceOnUse"
     x1="-21.213205"
     x2="25.455845"
     y1="-80.024391"
     y2="-104.6518">
    <stop
       offset="0"
       stop-color="#0968ef"
       id="stop28" />
    <stop
       offset="1"
       stop-color="#aecffc"
       id="stop30" />
  </linearGradient>
  <g
     id="g5055">
    <g
       id="g4215"
       transform="matrix(0,-1,1,0,0,16)">
      <rect
         height="14"
         rx="0.47620806"
         ry="0.55383754"
         transform="matrix(0,1,1,0,0,0)"
         width="14"
         x="1"
         y="1"
         id="rect54"
         style="opacity:1;fill:#9e3a9c;fill-opacity:1" />
      <rect
         style="fill:#f0e3ec;fill-opacity:1;fill-rule:evenodd"
         id="rect58"
         y="2"
         x="2"
         width="12"
         transform="matrix(0,1,1,0,0,0)"
         ry="0.75"
         rx="0.74999928"
         height="12" />
    </g>
    <path
       id="path40-3"
       d="M 7.8359375 7.34375 C 7.6701195 7.34375 7.532825 7.4614174 7.5 7.6171875 C 7.4952 7.6401475 7.4921875 7.66308 7.4921875 7.6875 L 7.4921875 7.953125 L 7.4921875 12.125 L 7 12.125 C 6.7925136 12.125 6.625 12.292514 6.625 12.5 L 6.625 14.5 C 6.625 14.707486 6.7925136 14.875 7 14.875 L 9 14.875 C 9.2074864 14.875 9.375 14.707486 9.375 14.5 L 9.375 12.5 C 9.375 12.292514 9.2074864 12.125 9 12.125 L 8.5078125 12.125 L 8.5058594 11.101562 L 8.5078125 9.8632812 L 8.5039062 9.8632812 L 8.5 7.6171875 L 8.484375 7.6152344 C 8.451085 7.4600804 8.3138215 7.34375 8.1484375 7.34375 L 7.8359375 7.34375 z "
       style="fill:#f3b7d9;stroke:#9d3a9b;stroke-width:0.25;stroke-linecap:round;stroke-linejoin:round;stroke-miterlimit:4;stroke-dasharray:none;stroke-opacity:1" />
    <path
       d="M 5.1715732,5.8786802 7.2928931,8.0000002 5.171573,10.121321 5.8786798,10.828428 8.0000002,8.7071072 10.121321,10.828428 10.828427,10.121321 8.7071071,8.0000002 10.828427,5.8786802 10.12132,5.1715723 8.0000001,7.2928942 5.8786801,5.1715723 Z"
       id="path44-6"
       style="fill:#e602b4;fill-opacity:1;stroke:#9d3a9b;stroke-width:0.25;stroke-miterlimit:4;stroke-dasharray:none;stroke-opacity:1"
       inkscape:connector-curvature="0" />
  </g>
</svg>
