<?xml version="1.0" encoding="UTF-8" standalone="no"?>
<svg
   xmlns:dc="http://purl.org/dc/elements/1.1/"
   xmlns:cc="http://creativecommons.org/ns#"
   xmlns:rdf="http://www.w3.org/1999/02/22-rdf-syntax-ns#"
   xmlns:svg="http://www.w3.org/2000/svg"
   xmlns="http://www.w3.org/2000/svg"
   xmlns:sodipodi="http://sodipodi.sourceforge.net/DTD/sodipodi-0.dtd"
   xmlns:inkscape="http://www.inkscape.org/namespaces/inkscape"
   height="16"
   width="16"
   id="svg2"
   version="1.1"
   inkscape:version="0.91 r13725"
   sodipodi:docname="sc_glueescapedirectionbottom.svg"
   inkscape:export-filename="/home/tamara/Desktop/IKON/5_258 (tamara)/sc (222)/Tanggal 14/sc_glueescapedirectionbottom.png"
   inkscape:export-xdpi="90"
   inkscape:export-ydpi="90">
  <metadata
     id="metadata50">
    <rdf:RDF>
      <cc:Work
         rdf:about="">
        <dc:format>image/svg+xml</dc:format>
        <dc:type
           rdf:resource="http://purl.org/dc/dcmitype/StillImage" />
      </cc:Work>
    </rdf:RDF>
  </metadata>
  <defs
     id="defs48" />
  <sodipodi:namedview
     pagecolor="#ffffff"
     bordercolor="#666666"
     borderopacity="1"
     objecttolerance="10"
     gridtolerance="10"
     guidetolerance="10"
     inkscape:pageopacity="0"
     inkscape:pageshadow="2"
     inkscape:window-width="1366"
     inkscape:window-height="718"
     id="namedview46"
     showgrid="true"
     inkscape:zoom="20.85965"
     inkscape:cx="-0.63046942"
     inkscape:cy="6.0620515"
     inkscape:window-x="0"
     inkscape:window-y="0"
     inkscape:window-maximized="1"
     inkscape:current-layer="svg2">
    <inkscape:grid
       type="xygrid"
       id="grid4178" />
  </sodipodi:namedview>
  <linearGradient
     id="a"
     gradientTransform="matrix(0.00809713,0,0,0.01789139,-8.5255144,-6.8317362)"
     gradientUnits="userSpaceOnUse"
     x1="399.77466"
     x2="399.77466"
     y1="1164.6696"
     y2="549.06134">
    <stop
       offset="0"
       stop-color="#a7a7a9"
       id="stop5" />
    <stop
       offset=".5"
       stop-color="#7d7d83"
       id="stop7" />
    <stop
       offset="1"
       stop-color="#aaaab1"
       id="stop9" />
  </linearGradient>
  <linearGradient
     id="b"
     gradientTransform="matrix(0.06250001,0,0,0.12500001,-8.0000001,-16.5)"
     gradientUnits="userSpaceOnUse"
     x1="-63.999985"
     x2="124.09152"
     y1="135.99998"
     y2="27.999992">
    <stop
       offset="0"
       stop-color="#fff"
       id="stop12" />
    <stop
       offset=".42597079"
       stop-color="#fff"
       id="stop14" />
    <stop
       offset=".5892781"
       stop-color="#f1f1f1"
       id="stop16" />
    <stop
       offset=".80219781"
       stop-color="#eaeaea"
       id="stop18" />
    <stop
       offset="1"
       stop-color="#dfdfdf"
       id="stop20" />
  </linearGradient>
  <linearGradient
     id="c"
     gradientTransform="matrix(0.24034901,0,0,0.25000004,-12.332024,-2)"
     gradientUnits="userSpaceOnUse"
     x1="102.31124"
     x2="74.330322"
     y1="-5.830213"
     y2="32">
    <stop
       offset="0"
       stop-color="#fff"
       id="stop23" />
    <stop
       offset="1"
       stop-color="#fff"
       stop-opacity="0"
       id="stop25" />
  </linearGradient>
  <linearGradient
     id="d"
     gradientTransform="matrix(0.06751888,0.06751888,0.06076699,-0.06076699,14.662399,3.833948)"
     gradientUnits="userSpaceOnUse"
     x1="-21.213205"
     x2="48.161743"
     y1="-80.024391"
     y2="-154.92334">
    <stop
       offset="0"
       stop-color="#0968ef"
       id="stop28" />
    <stop
       offset="1"
       stop-color="#aecffc"
       id="stop30" />
  </linearGradient>
  <g
     id="g4154">
    <g
       id="g4215">
      <rect
         height="14"
         rx="0.47620806"
         ry="0.55383754"
         transform="matrix(0,1,1,0,0,0)"
         width="14"
         x="1"
         y="1"
         id="rect54"
         style="opacity:1;fill:#9e3a9c;fill-opacity:1" />
      <rect
         style="fill:#f0e3ec;fill-opacity:1;fill-rule:evenodd"
         id="rect58"
         y="2"
         x="2"
         width="12"
         transform="matrix(0,1,1,0,0,0)"
         ry="0.75"
         rx="0.74999928"
         height="12" />
    </g>
    <path
       d="m 7.8365517,8.4855969 c -0.165818,0 -0.303113,0.1164475 -0.3359376,0.2722167 l -2.5e-4,0 0,4.875e-4 c -0.0048,0.022963 -0.00757,0.046615 -0.00757,0.071045 l 0,0.2644043 0,6.2980956 0,0.264404 c 0,0.02443 0.00277,0.04808 0.00757,0.07104 l 0,5e-4 2.5e-4,0 C 7.5334387,15.883553 7.6707337,16 7.8365517,16 l 0.3125,0 c 0.1653835,0 0.3026513,-0.115841 0.3359375,-0.270996 l 0.015381,-7.5e-4 0.00317,-2.246339 0.00366,0 -0.00171,-1.238994 0.00172,-1.239258 -0.00366,0 -0.00317,-2.2463376 -0.015381,-7.375e-4 C 8.4517028,8.6014339 8.3144349,8.4855918 8.1490514,8.4855918 Z"
       id="path40"
       inkscape:connector-curvature="0"
       style="fill:#f3b7d9;stroke:#9d3a9b;stroke-width:0.25;stroke-linecap:round;stroke-linejoin:round;stroke-miterlimit:4;stroke-dasharray:none;stroke-opacity:1" />
    <path
       d="M 10.12132,5.171573 7.9999992,7.2928932 5.8786792,5.1715729 5.1715722,5.8786797 7.2928924,8.0000001 5.1715722,10.121321 5.8786792,10.828427 7.9999992,8.7071069 10.12132,10.828427 10.828428,10.12132 8.7071061,8.0000001 10.828428,5.87868 Z"
       id="path44"
       style="fill:#e602b4;fill-opacity:1;stroke:#9d3a9b;stroke-width:0.25;stroke-miterlimit:4;stroke-dasharray:none;stroke-opacity:1"
       inkscape:connector-curvature="0" />
  </g>
</svg>
