<?xml version="1.0" encoding="UTF-8" standalone="no"?>
<svg
   xmlns:dc="http://purl.org/dc/elements/1.1/"
   xmlns:cc="http://creativecommons.org/ns#"
   xmlns:rdf="http://www.w3.org/1999/02/22-rdf-syntax-ns#"
   xmlns:svg="http://www.w3.org/2000/svg"
   xmlns="http://www.w3.org/2000/svg"
   xmlns:sodipodi="http://sodipodi.sourceforge.net/DTD/sodipodi-0.dtd"
   xmlns:inkscape="http://www.inkscape.org/namespaces/inkscape"
   height="16"
   viewBox="0 0 4.2333333 4.2333335"
   width="16"
   id="svg2"
   version="1.1"
   inkscape:version="0.91 r13725"
   sodipodi:docname="sc_grow.svg"
   inkscape:export-filename="/home/tamara/Desktop/IKON/5_258 (tamara)/sc (222)/Tanggal 19/sc_grow.png"
   inkscape:export-xdpi="90"
   inkscape:export-ydpi="90">
  <metadata
     id="metadata42">
    <rdf:RDF>
      <cc:Work
         rdf:about="">
        <dc:format>image/svg+xml</dc:format>
        <dc:type
           rdf:resource="http://purl.org/dc/dcmitype/StillImage" />
      </cc:Work>
    </rdf:RDF>
  </metadata>
  <defs
     id="defs40" />
  <sodipodi:namedview
     pagecolor="#ffffff"
     bordercolor="#666666"
     borderopacity="1"
     objecttolerance="10"
     gridtolerance="10"
     guidetolerance="10"
     inkscape:pageopacity="0"
     inkscape:pageshadow="2"
     inkscape:window-width="1366"
     inkscape:window-height="718"
     id="namedview38"
     showgrid="true"
     inkscape:zoom="14.75"
     inkscape:cx="-0.6779661"
     inkscape:cy="2.5762712"
     inkscape:window-x="0"
     inkscape:window-y="0"
     inkscape:window-maximized="1"
     inkscape:current-layer="svg2">
    <inkscape:grid
       type="xygrid"
       id="grid4170" />
  </sodipodi:namedview>
  <linearGradient
     id="a"
     gradientUnits="userSpaceOnUse"
     x1="15.712173"
     x2="16.933331"
     y1="294.720557"
     y2="266.633917">
    <stop
       offset="0"
       stop-color="#555"
       id="stop5" />
    <stop
       offset="1"
       id="stop7" />
  </linearGradient>
  <radialGradient
     id="b"
     cx="34.35376"
     cy="561.81543"
     gradientTransform="matrix(1.3532032 0 0 1.3528358 2.86614 -717.2286)"
     gradientUnits="userSpaceOnUse"
     r="4">
    <stop
       offset="0"
       stop-color="#033a13"
       id="stop10" />
    <stop
       offset="1"
       stop-color="#398c37"
       id="stop12" />
  </radialGradient>
  <linearGradient
     id="c"
     gradientUnits="userSpaceOnUse"
     x1="49.625347"
     x2="46.194677"
     y1="42.3078"
     y2="45.73846">
    <stop
       offset="0"
       stop-color="#bbf10e"
       id="stop15" />
    <stop
       offset="1"
       stop-color="#5f9207"
       id="stop17" />
  </linearGradient>
  <linearGradient
     id="d"
     gradientUnits="userSpaceOnUse"
     x1="15.712174"
     x2="16.933332"
     y1="262.97046"
     y2="288.61478">
    <stop
       offset="0"
       stop-color="#3b3e22"
       id="stop20" />
    <stop
       offset="1"
       stop-color="#454545"
       stop-opacity="0"
       id="stop22" />
  </linearGradient>
  <g
     id="g4183">
    <g
       style="fill:#e602b4"
       id="g24"
       transform="matrix(.12864448 0 0 .12864448 -.061713 -33.912364)">
      <path
         d="m 19.11858,270.01614 -2.940441,2.94044 3.735806,8.99807 a 4.110274,4.110274 0 0 0 4.000927,-1.00425 z m -2.336103,-3.70778 -7.3555686,17.36214 a 28.086634,12.822159 0 0 0 0.7173116,0.0161 0.64386597,0.64386597 0 0 1 0.01729,-0.44959 l 4.915041,-11.75245 a 0.64386597,0.64386597 0 0 1 0.610579,-0.39652 0.64386597,0.64386597 0 0 1 0.577187,0.39413 l 4.86913,11.54257 a 28.086634,12.822159 0 0 0 2.763704,-0.50743 L 16.78963,266.30835 Z m -0.42759,-0.64664 -8.8896118,20.9888 c -1.3107097,3.10581 -2.2657505,5.04327 -2.8641181,5.81259 -0.5698734,0.74082 -1.3800329,1.13605 -2.4342993,1.19305 l 0,0.81545 8.4638102,0 0,-0.81545 c -1.9375708,0 -2.9083051,-0.58317 -2.9083051,-1.75141 0,-0.51289 0.113495,-1.06868 0.3414446,-1.66705 l 2.4905375,-6.05763 10.287526,0 2.141058,5.16184 c 0.541382,1.22522 0.811433,2.18026 0.811435,2.86412 0,0.54138 -0.215316,0.90923 -0.64272,1.10869 -0.427407,0.19948 -1.210196,0.31297 -2.349943,0.34144 l 0,0.81545 10.89811,0 0,-0.81545 c -0.968787,-0.057 -1.681144,-0.29566 -2.137042,-0.72306 -0.455899,-0.4274 -1.023376,-1.42551 -1.707223,-2.99266 L 17.210507,265.66172 Z m -0.68289,6.06968 4.314254,10.39197 -8.588337,0 z"
         style="fill:#e602b4"
         id="path30" />
    </g>
    <g
       transform="matrix(0,-0.99934301,0.99934303,0,1.5885852,2.9091571)"
       id="g4242">
      <path
         inkscape:connector-curvature="0"
         d="m 0.79388021,0.26367188 a 0.26474003,0.26474003 0 0 0 -0.265625,0.265625 l 0,0.26367187 a 0.26474003,0.26474003 0 0 0 0.078125,0.1875 l 0.86914069,0.87109375 -0.1523437,0 a 0.26474003,0.26474003 0 0 0 -0.2656251,0.265625 l 0,0.2636719 a 0.26474003,0.26474003 0 0 0 0.2656251,0.265625 l 1.3222656,0 a 0.26474003,0.26474003 0 0 0 0.265625,-0.265625 l 0,-0.2636719 0,-1.0585937 A 0.26474003,0.26474003 0 0 0 2.6454428,0.79296875 l -0.2636719,0 A 0.26474003,0.26474003 0 0 0 2.1161459,1.0585938 l 0,0.1523437 -0.8710938,-0.86914062 a 0.26474003,0.26474003 0 0 0 -0.1875,-0.078125 z"
         id="path32"
         style="fill:#9d3a9b;fill-opacity:1" />
      <path
         inkscape:connector-curvature="0"
         d="m 0.79374998,0.52916668 0,0.2645833 1.32291672,1.32291662 -0.79375,0 0,0.2645834 1.3229167,0 0,-0.2645834 0,-1.0583333 -0.2645834,0 0,0.79375 -1.3229167,-1.32291662 z"
         id="path34-3"
         style="fill:#e602b4" />
    </g>
  </g>
</svg>
