<?xml version="1.0" encoding="UTF-8" standalone="no"?>
<svg
   xmlns:dc="http://purl.org/dc/elements/1.1/"
   xmlns:cc="http://creativecommons.org/ns#"
   xmlns:rdf="http://www.w3.org/1999/02/22-rdf-syntax-ns#"
   xmlns:svg="http://www.w3.org/2000/svg"
   xmlns="http://www.w3.org/2000/svg"
   xmlns:sodipodi="http://sodipodi.sourceforge.net/DTD/sodipodi-0.dtd"
   xmlns:inkscape="http://www.inkscape.org/namespaces/inkscape"
   height="16"
   viewBox="0 0 4.2333333 4.2333335"
   width="16"
   id="svg2"
   version="1.1"
   inkscape:version="0.91 r13725"
   sodipodi:docname="sc_hyphenate.svg"
   inkscape:export-filename="/home/tamara/Desktop/IKON/5_258 (tamara)/sc (222)/Tanggal 21/sc_hyphenate.png"
   inkscape:export-xdpi="90"
   inkscape:export-ydpi="90">
  <metadata
     id="metadata22">
    <rdf:RDF>
      <cc:Work
         rdf:about="">
        <dc:format>image/svg+xml</dc:format>
        <dc:type
           rdf:resource="http://purl.org/dc/dcmitype/StillImage" />
      </cc:Work>
    </rdf:RDF>
  </metadata>
  <defs
     id="defs20" />
  <sodipodi:namedview
     pagecolor="#ffffff"
     bordercolor="#666666"
     borderopacity="1"
     objecttolerance="10"
     gridtolerance="10"
     guidetolerance="10"
     inkscape:pageopacity="0"
     inkscape:pageshadow="2"
     inkscape:window-width="1366"
     inkscape:window-height="718"
     id="namedview18"
     showgrid="true"
     inkscape:zoom="20.85965"
     inkscape:cx="3.3331817"
     inkscape:cy="8.7545724"
     inkscape:window-x="0"
     inkscape:window-y="0"
     inkscape:window-maximized="1"
     inkscape:current-layer="svg2">
    <inkscape:grid
       type="xygrid"
       id="grid4150" />
  </sodipodi:namedview>
  <g
     id="g4757">
    <path
       d="m 3.4395834,0.79374957 0.79375,0 0,0.26458383 -0.79375,0 z"
       id="path6"
       style="fill:#9d3a9b;fill-opacity:0.94289204"
       inkscape:connector-curvature="0" />
    <path
       inkscape:connector-curvature="0"
       style="fill:#9d3a9b;stroke-width:0.474581"
       id="path10"
       d="m 1.6396786,1.8069984 0,0.045085 -0.6050912,0 0,-0.045085 q 0.094916,-0.00237 0.1305099,-0.018984 0.035594,-0.01661 0.035594,-0.061695 0,-0.05695 -0.045085,-0.158985 l -0.097289,-0.2277987 -0.62170162,0 -0.10915373,0.27763 q -0.0189832,0.04983 -0.0189832,0.092542 0,0.09729 0.16135766,0.09729 l 0,0.045085 -0.46983556,0 0,-0.045085 q 0.08779755,-0.00475 0.13525569,-0.066441 0.049831,-0.064069 0.15898476,-0.3227163 l 0.49356465,-1.16509745 0.0474581,0 L 1.426117,1.6005546 q 0.05695,0.13051 0.094916,0.1661037 0.037967,0.035594 0.1186452,0.04034 z m -1.16272431,-0.5647525 0.54814151,0 -0.27525721,-0.6525488 z" />
    <path
       inkscape:connector-curvature="0"
       style="fill:#9d3a9b;stroke-width:0.474581"
       id="path12"
       d="m 3.0769559,1.4249597 q 0,0.071187 -0.026102,0.1400013 -0.026102,0.068815 -0.087798,0.1376287 -0.059323,0.066441 -0.177968,0.1091537 -0.1186454,0.04034 -0.2823759,0.04034 l -0.7925509,0 0,-0.045085 q 0.1471201,-0.00475 0.1874596,-0.042713 0.040339,-0.037966 0.040339,-0.17085 l 0,-1.05356995 q 0,-0.13051 -0.040339,-0.16610375 -0.037966,-0.0379657 -0.1874592,-0.047457 l 0,-0.0450862 0.6644139,0 q 0.6217016,0 0.6217016,0.403395 0,0.078305 -0.028475,0.14000125 -0.028475,0.0593225 -0.059323,0.0925438 -0.028475,0.0308475 -0.09017,0.0593225 -0.061696,0.028475 -0.078306,0.03322 -0.01661,0.00238 -0.068814,0.016611 0.054577,0.014236 0.080679,0.021355 0.028475,0.00713 0.099662,0.04034 0.07356,0.033221 0.1138997,0.071187 0.040339,0.037966 0.075933,0.1091537 0.035594,0.068814 0.035594,0.1566113 z M 2.3294901,1.764286 q 0.1067809,0 0.1850868,-0.014237 Q 2.5928829,1.735811 2.6616971,1.70259 2.7305111,1.666996 2.766105,1.5981825 2.804072,1.5293685 2.804072,1.4273338 q 0,-0.09729 -0.037967,-0.1637313 Q 2.7305114,1.1947885 2.6783075,1.1591947 2.6261035,1.123601 2.5335601,1.1046172 2.4410167,1.0856347 2.3698296,1.083261 2.2986424,1.078511 2.179997,1.078511 l 0,0.58848 q 0,0.05695 0.030848,0.078306 0.030848,0.018984 0.1186454,0.018984 z M 2.179997,0.9835997 l 0.2254261,0 q 0.1661035,0 0.256274,-0.07356 0.092543,-0.0759337 0.092543,-0.215935 0,-0.158985 -0.1067809,-0.24203625 -0.1067807,-0.0830525 -0.3108507,-0.0830525 l -0.1044079,0 q -0.052204,0 -0.052204,0.0711875 z" />
    <path
       inkscape:connector-curvature="0"
       style="fill:#9d3a9b;stroke-width:0.474581"
       id="path14"
       d="m 0.07282609,3.1643343 q 0,-0.3701725 0.22779906,-0.600345 0.22779907,-0.232545 0.56712476,-0.232545 0.15186599,0 0.28474879,0.04034 0.1328828,0.037966 0.154239,0.037966 0.078306,0 0.099662,-0.078306 l 0.049831,0 0.021356,0.5362775 -0.054577,0 Q 1.2925002,2.4263605 0.91283514,2.4263605 q -0.25864685,0 -0.4128858,0.192205 -0.15186604,0.1922063 -0.15186604,0.5149213 0,0.2064425 0.052204,0.3583087 0.0545769,0.1494937 0.14474732,0.2278 0.0901705,0.075932 0.18508674,0.1115263 0.0972892,0.03322 0.2064429,0.03322 0.28000299,0 0.52915829,-0.2396638 l 0.042712,0.042713 q -0.1091537,0.1447475 -0.27763,0.2230538 -0.1684764,0.078306 -0.37017351,0.078306 -0.35119023,0 -0.56949767,-0.2206812 Q 0.07282609,3.5273892 0.07282609,3.1643343 Z" />
    <path
       inkscape:connector-curvature="0"
       style="fill:#9d3a9b;stroke-width:0.474581"
       id="path16"
       d="m 3.202505,3.142978 q 0,0.1067812 -0.023729,0.2088162 -0.023729,0.102035 -0.087798,0.2111888 -0.064068,0.1091537 -0.1637307,0.1898325 -0.099662,0.078306 -0.2657655,0.13051 -0.1637306,0.052204 -0.3725463,0.052204 l -0.6739057,0 0,-0.045085 q 0.1352558,-0.00949 0.1708494,-0.047459 0.037967,-0.037966 0.037967,-0.1661025 l 0,-1.0535713 q 0,-0.13051 -0.035594,-0.1661037 -0.033221,-0.035594 -0.1732223,-0.047458 l 0,-0.045085 0.6406849,0 q 0.2159345,0 0.3844109,0.04983 0.1708494,0.047459 0.2728844,0.125765 0.1044079,0.075932 0.1708492,0.1827138 0.068814,0.1044075 0.092543,0.2064425 0.026102,0.102035 0.026102,0.2135612 z m -0.2586469,0.016611 q 0,-0.102035 -0.021356,-0.1945787 Q 2.9035188,2.8700943 2.8513147,2.775178 2.7991109,2.6778892 2.7160591,2.6090742 2.6330074,2.5402605 2.4977516,2.497548 2.362496,2.452463 2.1892738,2.452463 q -0.07356,0 -0.099662,0.018983 -0.023729,0.018984 -0.023729,0.07356 l 0,1.2054375 q 0,0.05695 0.026102,0.078305 0.026102,0.018984 0.097289,0.018984 0.7545843,0 0.7545843,-0.6881425 z" />
  </g>
</svg>
