<?xml version="1.0" encoding="UTF-8" standalone="no"?>
<svg
   xmlns:dc="http://purl.org/dc/elements/1.1/"
   xmlns:cc="http://creativecommons.org/ns#"
   xmlns:rdf="http://www.w3.org/1999/02/22-rdf-syntax-ns#"
   xmlns:svg="http://www.w3.org/2000/svg"
   xmlns="http://www.w3.org/2000/svg"
   xmlns:sodipodi="http://sodipodi.sourceforge.net/DTD/sodipodi-0.dtd"
   xmlns:inkscape="http://www.inkscape.org/namespaces/inkscape"
   height="16"
   viewBox="0 0 16 16"
   width="16"
   id="svg2"
   version="1.1"
   inkscape:version="0.92.4 (unknown)"
   sodipodi:docname="sc_hidenote.svg"
   inkscape:export-filename="/home/tamara/Desktop/IKON/5_258 (tamara)/sc (222)/Tanggal 21/sc_hidenote.png"
   inkscape:export-xdpi="90"
   inkscape:export-ydpi="90">
  <metadata
     id="metadata68">
    <rdf:RDF>
      <cc:Work
         rdf:about="">
        <dc:format>image/svg+xml</dc:format>
        <dc:type
           rdf:resource="http://purl.org/dc/dcmitype/StillImage" />
      </cc:Work>
    </rdf:RDF>
  </metadata>
  <defs
     id="defs66" />
  <sodipodi:namedview
     pagecolor="#ffffff"
     bordercolor="#666666"
     borderopacity="1"
     objecttolerance="10"
     gridtolerance="10"
     guidetolerance="10"
     inkscape:pageopacity="0"
     inkscape:pageshadow="2"
     inkscape:window-width="1366"
     inkscape:window-height="707"
     id="namedview64"
     showgrid="true"
     inkscape:zoom="20.85965"
     inkscape:cx="0.45256012"
     inkscape:cy="8.1787145"
     inkscape:window-x="0"
     inkscape:window-y="0"
     inkscape:window-maximized="1"
     inkscape:current-layer="svg2"
     showguides="false">
    <inkscape:grid
       type="xygrid"
       id="grid4196" />
  </sodipodi:namedview>
  <radialGradient
     id="a"
     cx="7.977352"
     cy="8.22044"
     gradientTransform="matrix(2.6101946,0,0,2.6007842,-8.822441,914.98257)"
     gradientUnits="userSpaceOnUse"
     r="56">
    <stop
       offset=".0765"
       stop-color="#f3c300"
       id="stop5" />
    <stop
       offset=".1887"
       stop-color="#f7d21f"
       id="stop7" />
    <stop
       offset=".3467"
       stop-color="#fde446"
       id="stop9" />
    <stop
       offset=".4294"
       stop-color="#ffeb55"
       id="stop11" />
    <stop
       offset=".6882"
       stop-color="#ffeb55"
       id="stop13" />
    <stop
       offset=".7281"
       stop-color="#fee951"
       id="stop15" />
    <stop
       offset=".7641"
       stop-color="#fde446"
       id="stop17" />
    <stop
       offset=".7987"
       stop-color="#fadb34"
       id="stop19" />
    <stop
       offset=".8322"
       stop-color="#f7cf1a"
       id="stop21" />
    <stop
       offset=".8588"
       stop-color="#f3c300"
       id="stop23" />
    <stop
       offset=".9208"
       stop-color="#fbd400"
       id="stop25" />
    <stop
       offset=".9706"
       stop-color="#fd0"
       id="stop27" />
  </radialGradient>
  <linearGradient
     id="b"
     gradientUnits="userSpaceOnUse"
     x1="69.982056"
     x2="99.040398"
     y1="929.22302"
     y2="975.71637">
    <stop
       offset="0"
       stop-color="#fff"
       stop-opacity=".462094"
       id="stop30" />
    <stop
       offset=".5"
       stop-color="#fff"
       id="stop32" />
    <stop
       offset="1"
       stop-color="#fff"
       stop-opacity=".350181"
       id="stop34" />
  </linearGradient>
  <rect
     style="opacity:1;fill:#f3b7d9;fill-opacity:1;fill-rule:nonzero;stroke:#e602b4;stroke-width:0.99999994;stroke-linecap:round;stroke-linejoin:round;stroke-miterlimit:4;stroke-dasharray:none;stroke-dashoffset:0;stroke-opacity:1"
     id="rect4238"
     width="13"
     height="13"
     x="-14.5"
     y="1.5"
     rx="0.86821705"
     ry="0.992248"
     transform="scale(-1,1)" />
  <g
     id="g4224"
     transform="matrix(1.0087817,0,0,0.99041039,0.01093693,0.22418472)">
    <path
       inkscape:connector-curvature="0"
       d="M 13.707309,5.0021651 C 13.640083,4.9623563 13.574344,4.9203137 13.509786,4.8763295 13.388996,4.7927372 13.265804,4.7127857 13.145481,4.6285099 13.004818,4.5323813 12.858633,4.4445958 12.713484,4.3554524 12.577985,4.272814 12.438848,4.1965351 12.298358,4.122813 12.174088,4.05416 12.045498,3.9994259 11.906706,3.9693134 c -0.140209,-0.026965 -0.271339,-0.00106 -0.399187,0.05716 -0.115129,0.058587 -0.205548,0.1474461 -0.284686,0.2476843 -0.07544,0.1019734 -0.130947,0.2165276 -0.184665,0.3308943 -0.04537,0.098052 -0.08339,0.1992142 -0.121786,0.3001207 -0.02651,0.078539 -0.06564,0.1512917 -0.106761,0.2228821 -0.03854,0.060466 -0.08619,0.1149906 -0.143765,0.1578043 -0.06423,0.038232 -0.137406,0.048974 -0.210857,0.051002 -0.102448,-0.0041 -0.197603,-0.043865 -0.289952,-0.084913 C 10.030304,5.1896039 9.9059154,5.10846 9.7835935,5.0250092 9.640285,4.9330402 9.5034911,4.8315179 9.3666276,4.7303568 9.2340509,4.6332067 9.0977995,4.5413807 8.958255,4.4545725 8.8403649,4.3841166 8.7246092,4.3102048 8.6084778,4.2368957 8.5108787,4.1766548 8.4114312,4.1195024 8.3098811,4.0662252 8.2032792,4.0056087 8.0870445,3.9885433 7.9665489,3.988122 7.85003,3.989154 7.7492252,4.0351429 7.6534107,4.0969299 7.5591105,4.162954 7.4856974,4.2519479 7.4194726,4.3449523 7.3584806,4.4375732 7.3105057,4.5380143 7.2638226,4.6383806 7.2285272,4.7190057 7.1948613,4.8001734 7.1565847,4.8794098 7.1265359,4.9500168 7.0972422,5.01743 7.0485519,5.0767904 7.0100965,5.1285432 6.9680241,5.1663408 6.9048459,5.1812202 6.8232648,5.2005174 6.7423594,5.1840422 6.6638071,5.160339 6.5603253,5.1268401 6.4679529,5.071196 6.3761467,5.0144032 6.2727842,4.9479281 6.1793982,4.8674301 6.0893967,4.784145 5.9984353,4.6965343 5.9090041,4.6073675 5.8194636,4.5183133 5.7422547,4.4403154 5.6683846,4.3592768 5.5903846,4.2820161 5.5234504,4.2143385 5.4550257,4.1481793 5.3867241,4.0819005 5.3242216,4.0232376 5.2580028,3.9692013 5.1857146,3.9231562 5.1070549,3.8696763 5.0188162,3.8478094 4.9252394,3.8421773 4.8290118,3.8386413 4.7393617,3.8645607 4.6535177,3.905648 4.5728708,3.9486128 4.5108651,4.0135933 4.4552786,4.0846871 c -0.051452,0.0661 -0.090922,0.139477 -0.1258992,0.2152208 -0.027644,0.070531 -0.059343,0.139131 -0.090485,0.2081299 -0.026511,0.071659 -0.059263,0.1405143 -0.092969,0.2090314 -0.02667,0.057612 -0.059721,0.1118208 -0.091657,0.1665407 -0.027723,0.038082 -0.054315,0.079258 -0.094519,0.1052565 -0.047399,0.032523 -0.098633,0.059263 -0.1512381,0.082361 -0.05664,0.016594 -0.112246,0.020657 -0.1705551,0.015998 -0.067749,-0.00457 -0.131583,-0.02877 -0.1915019,-0.05949 C 3.3692265,4.9899532 3.2992715,4.9386893 3.235058,4.8818349 3.1584651,4.8174643 3.0893249,4.7451821 3.0222337,4.6711735 2.9585387,4.5987641 2.8883651,4.5327023 2.8235772,4.4613085 2.7659637,4.3967868 2.7101188,4.3306713 2.6499814,4.2684571 2.5930435,4.2131748 2.5421473,4.1526716 2.4828643,4.0998595 2.4270593,4.0544165 2.3691477,4.0116923 2.3125675,3.9672112 2.2795972,3.9413716 2.2465474,3.9156094 2.2135374,3.8898751 1.9912493,3.7130677 1.8662245,3.8702797 2.0885126,4.0470553 v 0 c 0.032831,0.026591 0.065643,0.053255 0.098712,0.07956 0.053778,0.042289 0.1087682,0.08306 0.1614331,0.1267597 0.056262,0.047772 0.1004015,0.1072916 0.1542788,0.1576533 0.058449,0.06009 0.1106362,0.1260621 0.1669978,0.1880896 0.064152,0.072258 0.1337293,0.1392145 0.1969671,0.2122386 0.07234,0.08049 0.1486346,0.1576095 0.2315214,0.2273513 0.078541,0.067527 0.1630827,0.1293453 0.2571484,0.1736913 0.083926,0.040186 0.1725227,0.071958 0.2662743,0.077592 0.092213,0.00733 0.1825191,-9.464e-4 0.2695953,-0.034477 0.066179,-0.030345 0.1315234,-0.063019 0.1904486,-0.1061269 0.057156,-0.046345 0.1061846,-0.100306 0.1456337,-0.1627549 0.035295,-0.058287 0.069557,-0.1171985 0.099865,-0.1783178 0.036349,-0.070756 0.071803,-0.1420822 0.098056,-0.2174139 0.030049,-0.068877 0.061887,-0.1369529 0.090107,-0.2066652 0.027485,-0.062044 0.058965,-0.122014 0.1014547,-0.1753507 0.035295,-0.04717 0.074367,-0.090572 0.1258793,-0.1205194 0.053858,-0.027343 0.1102984,-0.04229 0.1710917,-0.042589 0.059343,0.00284 0.1131404,0.013514 0.1624269,0.049875 0.060237,0.037857 0.1142334,0.082979 0.1658054,0.1321077 0.066556,0.067227 0.1330338,0.1345721 0.2003477,0.2010544 0.076831,0.078606 0.1504629,0.1600421 0.2268113,0.2390841 0.090823,0.091818 0.1811875,0.1841606 0.2748219,0.2731327 0.1002624,0.092734 0.2049445,0.1812174 0.3208513,0.254069 0.1085495,0.066249 0.2188858,0.1293373 0.3411859,0.1672462 0.1173138,0.031998 0.2367858,0.04965 0.3563275,0.016078 0.1010771,-0.032299 0.1812471,-0.086943 0.2453097,-0.1725267 0.057753,-0.071882 0.098772,-0.1513374 0.1334313,-0.236673 0.039131,-0.080085 0.074069,-0.162093 0.1111728,-0.243155 0.041456,-0.089158 0.086629,-0.1770181 0.1377836,-0.261002 0.05032,-0.072559 0.1068803,-0.1419035 0.1776899,-0.1955562 0.060615,-0.041838 0.1230771,-0.073234 0.1987856,-0.073837 0.086529,-5.829e-4 0.1681703,0.011785 0.2451606,0.054682 0.095791,0.051677 0.1892562,0.1073353 0.2814478,0.1652251 0.115406,0.075804 0.231581,0.1503676 0.3487498,0.2234155 0.1336897,0.085208 0.2658828,0.1727513 0.3928472,0.2677997 0.1389363,0.1046027 0.2790512,0.2080473 0.4260461,0.3011797 0.1347828,0.088664 0.2707817,0.1762887 0.4194169,0.2404885 0.122182,0.051153 0.248149,0.096431 0.382489,0.096301 0.116877,-0.00527 0.230401,-0.029294 0.328917,-0.095851 0.07717,-0.060917 0.142892,-0.133483 0.194782,-0.2173388 0.04778,-0.080282 0.09116,-0.1626952 0.122759,-0.2508842 0.03861,-0.095828 0.07623,-0.1921996 0.119738,-0.2859395 0.0471,-0.1001927 0.09687,-0.2001155 0.160102,-0.2912573 0.05731,-0.07512 0.121944,-0.142106 0.206704,-0.1866547 0.08532,-0.040711 0.171965,-0.058514 0.26656,-0.040035 0.119321,0.024862 0.227636,0.077666 0.334147,0.1359552 0.135298,0.073986 0.269638,0.1495567 0.400937,0.2305061 0.141574,0.087816 0.285902,0.1713401 0.423336,0.2656663 0.122771,0.083609 0.247737,0.1638897 0.373032,0.243636 0.07709,0.049048 0.155432,0.097669 0.240835,0.1309888 0.256615,0.1026491 0.329204,-0.078808 0.07256,-0.1814578 z"
       id="path4253"
       style="opacity:1;fill:#9e3a9c;fill-opacity:1;fill-rule:nonzero;stroke:none;stroke-width:0.06614584;stroke-linecap:round;stroke-linejoin:round;stroke-miterlimit:4;stroke-dasharray:none;stroke-dashoffset:0;stroke-opacity:1" />
    <path
       style="opacity:1;fill:#9e3a9c;fill-opacity:1;fill-rule:nonzero;stroke:none;stroke-width:0.06614584;stroke-linecap:round;stroke-linejoin:round;stroke-miterlimit:4;stroke-dasharray:none;stroke-dashoffset:0;stroke-opacity:1"
       id="path4255"
       d="M 13.707309,7.8603517 C 13.640083,7.820543 13.574344,7.7785003 13.509786,7.7345161 13.388996,7.6509238 13.265804,7.5709724 13.145481,7.4866967 13.004818,7.3905681 12.858633,7.3027824 12.713484,7.213639 12.577985,7.1310006 12.438848,7.0547238 12.298358,6.9809998 12.174088,6.9123464 12.045498,6.8576125 11.906706,6.8275 11.766497,6.800535 11.635367,6.82644 11.507519,6.88466 11.39239,6.943247 11.301971,7.0321062 11.222833,7.1323444 c -0.07544,0.1019734 -0.130947,0.2165276 -0.184665,0.3308943 -0.04537,0.098052 -0.08339,0.1992141 -0.121786,0.3001207 -0.02651,0.078539 -0.06564,0.1512917 -0.106761,0.2228821 -0.03854,0.060466 -0.08619,0.1149907 -0.143765,0.1578043 -0.06423,0.038232 -0.137406,0.048974 -0.210857,0.051002 -0.102448,-0.0041 -0.197603,-0.043865 -0.289952,-0.084914 C 10.030304,8.0477905 9.9059154,7.9666466 9.7835935,7.8831956 9.640285,7.7912266 9.5034911,7.6897043 9.3666276,7.5885432 9.2340509,7.4913931 9.0977995,7.3995672 8.958255,7.3127592 8.8403649,7.2423033 8.7246092,7.1683934 8.6084778,7.0950823 8.5108787,7.0348415 8.4114312,6.977689 8.3098811,6.9244119 8.2032792,6.8637955 8.0870445,6.84673 7.9665489,6.8463087 7.85003,6.8473407 7.7492252,6.8933296 7.6534107,6.9551166 7.5591107,7.0211406 7.4856974,7.1101345 7.4194726,7.2031388 7.3584806,7.2957598 7.3105057,7.3962008 7.2638226,7.496567 7.2285276,7.577192 7.1948616,7.6583599 7.1565847,7.7375964 7.1265357,7.8082034 7.0972427,7.8756165 7.0485519,7.9349769 7.0100969,7.9867299 6.9680239,8.0245249 6.9048459,8.0394066 6.8232649,8.0587036 6.7423594,8.0422266 6.6638071,8.0185256 6.5603253,7.9850266 6.4679529,7.9293824 6.3761467,7.8725898 6.2727842,7.8061145 6.1793982,7.7256165 6.0893967,7.6423314 5.9984353,7.5547207 5.9090041,7.4655539 5.8194636,7.3764997 5.7422547,7.2985018 5.6683846,7.2174633 5.5903846,7.1402025 5.5234504,7.072525 5.4550257,7.0063658 5.3867241,6.940087 5.3242216,6.8814241 5.2580028,6.8273878 5.1857146,6.7813427 5.1070546,6.7278627 5.0188162,6.7059957 4.9252394,6.7003637 4.8290114,6.6968237 4.7393617,6.7227467 4.6535177,6.7638347 4.5728707,6.8067997 4.5108651,6.8717802 4.4552786,6.942874 c -0.051452,0.0661 -0.090922,0.1394768 -0.1258992,0.2152206 -0.027644,0.070531 -0.059343,0.1391311 -0.090485,0.20813 -0.026511,0.071658 -0.059263,0.1405142 -0.092969,0.2090314 -0.02667,0.057612 -0.059721,0.1118208 -0.091657,0.1665407 -0.027723,0.038082 -0.054315,0.07926 -0.094519,0.1052545 -0.047399,0.032523 -0.098633,0.059265 -0.1512381,0.082363 -0.05664,0.016595 -0.112246,0.020657 -0.1705551,0.015998 -0.067749,-0.00457 -0.131583,-0.02877 -0.1915019,-0.05949 C 3.3692265,7.8481396 3.2992715,7.7968757 3.235058,7.7400213 3.1584651,7.6756507 3.0893249,7.6033685 3.0222337,7.5293601 2.9585387,7.4569506 2.8883651,7.3908888 2.8235772,7.3194949 2.7659637,7.2549753 2.7101188,7.1888598 2.6499814,7.1266436 2.5930435,7.0713612 2.5421473,7.010858 2.4828643,6.9580459 2.4270593,6.912603 2.3691477,6.8698787 2.3125675,6.8253976 2.2795972,6.799558 2.2465474,6.7737959 2.2135374,6.7480616 1.9912493,6.5712542 1.8662245,6.7284662 2.0885126,6.9052418 v 0 c 0.032831,0.026589 0.065643,0.053255 0.098712,0.07956 0.053778,0.042289 0.1087682,0.08306 0.1614331,0.1267597 0.056262,0.047772 0.1004015,0.1072915 0.1542788,0.1576532 0.058449,0.06009 0.1106362,0.1260622 0.1669978,0.1880897 0.064152,0.072258 0.1337293,0.1392145 0.1969671,0.2122386 0.07234,0.08049 0.1486346,0.1576096 0.2315195,0.2273516 0.078541,0.067527 0.1630826,0.1293432 0.2571483,0.1736911 0.083926,0.040184 0.1725227,0.071958 0.2662763,0.077592 0.092213,0.00733 0.1825191,-9.466e-4 0.2695932,-0.034477 0.066179,-0.030345 0.1315235,-0.063019 0.1904487,-0.106127 0.057156,-0.046345 0.1061846,-0.100306 0.1456337,-0.1627547 0.035295,-0.058288 0.069557,-0.1171986 0.099865,-0.1783178 0.036349,-0.070756 0.071803,-0.1420823 0.098056,-0.2174139 0.030049,-0.068878 0.061887,-0.1369529 0.090107,-0.2066654 0.027485,-0.062044 0.058965,-0.1220139 0.1014547,-0.1753506 0.035296,-0.04717 0.074367,-0.090572 0.1258794,-0.1205194 0.053858,-0.027341 0.1102985,-0.042289 0.1710918,-0.042589 0.059343,0.00284 0.1131403,0.013514 0.1624268,0.049875 0.060237,0.037857 0.1142335,0.082978 0.1658054,0.1321077 0.066556,0.067227 0.1330338,0.134572 0.2003496,0.2010544 0.076831,0.078606 0.150463,0.160042 0.2268094,0.2390839 0.090822,0.091818 0.1811876,0.1841606 0.2748239,0.2731327 0.1002624,0.092734 0.2049445,0.1812173 0.3208513,0.2540689 0.1085495,0.066248 0.2188858,0.1293374 0.3411838,0.1672463 0.1173139,0.031998 0.236786,0.04965 0.3563276,0.016078 0.1010771,-0.032299 0.1812472,-0.086943 0.2453117,-0.1725267 0.057772,-0.071882 0.098772,-0.1513373 0.1334313,-0.236673 0.039131,-0.080084 0.074069,-0.1620929 0.1111728,-0.243155 0.041456,-0.089158 0.086629,-0.177018 0.1377836,-0.2610018 0.05032,-0.072559 0.1068803,-0.1419034 0.1776899,-0.1955561 0.060615,-0.041838 0.1230771,-0.073234 0.1987856,-0.073836 0.086529,-5.829e-4 0.1681703,0.011785 0.2451606,0.054682 0.095791,0.051677 0.1892562,0.1073354 0.2814478,0.1652251 0.115406,0.075804 0.231581,0.1503676 0.3487498,0.2234156 0.1336897,0.085208 0.2658828,0.1727512 0.3928472,0.2677996 0.1389363,0.1046027 0.2790512,0.2080473 0.4260461,0.3011798 0.1347828,0.088662 0.2707817,0.1762887 0.4194148,0.2404885 0.122182,0.051153 0.248151,0.096431 0.382491,0.096301 0.116877,-0.00527 0.230401,-0.029294 0.328918,-0.095853 0.07717,-0.060917 0.142911,-0.133483 0.194781,-0.2173388 0.04778,-0.080282 0.09116,-0.1626952 0.122759,-0.2508842 0.03861,-0.095829 0.07623,-0.1921996 0.119739,-0.2859395 0.0471,-0.1001927 0.09687,-0.2001154 0.160101,-0.2912573 0.05731,-0.07512 0.121944,-0.1421061 0.206704,-0.1866548 0.08532,-0.04071 0.171965,-0.058514 0.26656,-0.040035 0.119321,0.024862 0.227636,0.077666 0.334147,0.1359553 0.135299,0.073986 0.269638,0.1495567 0.400935,0.2305061 0.141576,0.087813 0.285904,0.1713401 0.423338,0.2656663 0.122771,0.083608 0.247737,0.1638876 0.373032,0.2436359 0.07709,0.049048 0.155431,0.097669 0.240835,0.1309889 0.256614,0.1026491 0.329204,-0.078808 0.07256,-0.1814578 z"
       inkscape:connector-curvature="0" />
    <path
       inkscape:connector-curvature="0"
       d="m 13.707309,10.337448 c -0.06723,-0.03981 -0.132965,-0.08186 -0.197523,-0.12584 -0.12079,-0.08359 -0.243982,-0.16354 -0.364305,-0.2478176 C 13.004818,9.8676619 12.858633,9.7798803 12.713484,9.6907312 12.577985,9.6080969 12.438848,9.531822 12.298358,9.458093 12.174088,9.38943 12.045498,9.3346979 11.906706,9.3045894 c -0.140209,-0.026969 -0.271339,-0.00106 -0.399187,0.057156 -0.115129,0.058587 -0.205548,0.1474422 -0.284686,0.2476846 -0.07544,0.1019714 -0.130947,0.2165267 -0.184665,0.3308933 -0.04537,0.098057 -0.08339,0.1992147 -0.121786,0.3001217 -0.02651,0.07854 -0.06564,0.151297 -0.106761,0.222882 -0.03854,0.06045 -0.08619,0.114989 -0.143765,0.157796 -0.06423,0.03824 -0.137406,0.04897 -0.210857,0.051 -0.102448,-0.0042 -0.197603,-0.04387 -0.289952,-0.08492 C 10.030304,10.524856 9.9059154,10.443712 9.7835935,10.36026 9.640285,10.268286 9.5034911,10.166771 9.3666276,10.065609 9.2340509,9.9684667 9.0977995,9.8766308 8.958255,9.7898249 8.8403649,9.7193731 8.7246092,9.6454632 8.6084778,9.5721475 8.5108787,9.5119107 8.4114312,9.4547542 8.3098811,9.4014731 8.2032792,9.3408586 8.0870445,9.3237872 7.9665489,9.3233699 7.85003,9.3244013 7.7492252,9.3703908 7.6534107,9.4321778 c -0.0943,0.066021 -0.1677133,0.1550141 -0.2339381,0.2480225 -0.060992,0.092611 -0.1089669,0.193052 -0.15565,0.2934276 -0.035295,0.080627 -0.068962,0.1617911 -0.1072379,0.2410291 -0.030049,0.07061 -0.059343,0.138022 -0.1080328,0.197384 -0.038455,0.05175 -0.080528,0.08955 -0.143706,0.104436 -0.081581,0.01928 -0.1624865,0.0028 -0.2410388,-0.02089 C 6.5603253,10.462083 6.4679529,10.406437 6.3761467,10.349658 6.2727842,10.283181 6.1793982,10.202693 6.0893967,10.119401 5.9984353,10.031798 5.9090041,9.9426251 5.8194636,9.8535695 5.7422547,9.7755657 5.6683846,9.694541 5.5903846,9.6172725 5.5234504,9.549603 5.4550257,9.4834438 5.3867241,9.4171554 5.3242216,9.3584885 5.2580028,9.3044522 5.1857146,9.2584051 5.1070549,9.2049253 5.0188162,9.1830644 4.9252394,9.1774202 4.8290118,9.1738455 4.7393617,9.1997978 4.6535177,9.2408967 4.5728708,9.2838635 4.5108651,9.3488501 4.4552786,9.419938 c -0.051452,0.0661 -0.090922,0.1394729 -0.1258992,0.215221 -0.027644,0.070531 -0.059343,0.1391351 -0.090485,0.2081302 -0.026511,0.071665 -0.059263,0.1405063 -0.092969,0.2090328 -0.02667,0.05761 -0.059721,0.111828 -0.091657,0.16654 -0.027723,0.03807 -0.054315,0.07925 -0.094519,0.105251 -0.047399,0.03253 -0.098633,0.05926 -0.1512381,0.08235 -0.05664,0.01669 -0.112246,0.02064 -0.1705551,0.0161 -0.067749,-0.0046 -0.1315831,-0.02877 -0.191502,-0.05948 C 3.3692261,10.325305 3.2992714,10.274037 3.2350579,10.217195 3.1584651,10.152822 3.0893249,10.080542 3.0222337,10.006531 2.9585387,9.9341112 2.8883651,9.8680514 2.8235772,9.7966655 2.7659637,9.7321359 2.7101188,9.6660363 2.6499814,9.6038121 2.5930435,9.5485238 2.5421473,9.4880285 2.4828643,9.4352245 2.4270593,9.3897735 2.3691477,9.3470651 2.3125675,9.3025682 2.2795972,9.2767326 2.2465474,9.2509764 2.2135374,9.22524 1.9912493,9.0484326 1.8662245,9.2055652 2.0885126,9.3824203 v 0 c 0.032831,0.026591 0.065643,0.053261 0.098712,0.079554 0.053778,0.042291 0.1087682,0.083051 0.1614331,0.1267538 0.056262,0.047776 0.1004015,0.1072975 0.1542788,0.1576571 0.058449,0.060097 0.1106362,0.1260583 0.1669978,0.1880838 0.064152,0.07226 0.1337293,0.139215 0.1969671,0.212238 0.07234,0.08049 0.1486346,0.157618 0.2315214,0.227352 0.078541,0.06753 0.1630827,0.129338 0.2571484,0.173696 0.083926,0.04018 0.1725227,0.07196 0.2662743,0.07759 0.092213,0.0074 0.1825191,-9.46e-4 0.2695953,-0.03448 0.066179,-0.03035 0.1315234,-0.06302 0.1904486,-0.106125 0.057156,-0.04635 0.1061846,-0.100302 0.1456337,-0.162745 0.035295,-0.05829 0.069557,-0.117194 0.099865,-0.178326 0.036349,-0.07075 0.071803,-0.142076 0.098056,-0.2174129 0.030049,-0.068882 0.061887,-0.136949 0.090107,-0.2066655 0.027485,-0.06205 0.058965,-0.122009 0.1014547,-0.1753497 0.035295,-0.04718 0.074367,-0.090564 0.1258793,-0.1205135 0.053857,-0.027346 0.1102984,-0.042291 0.1710917,-0.042589 0.059343,0.00278 0.1131404,0.013514 0.1624269,0.049883 0.060237,0.037859 0.1142334,0.082972 0.1658054,0.1320997 0.066556,0.067232 0.1330338,0.1345642 0.2003477,0.2010532 0.076831,0.0786 0.1504629,0.160042 0.2268113,0.2390857 0.090823,0.09182 0.1811875,0.184168 0.2748219,0.273132 0.1002624,0.09273 0.2049445,0.181228 0.3208513,0.254068 0.1085495,0.06624 0.2188858,0.129337 0.3411859,0.167236 0.1173138,0.032 0.2367858,0.04964 0.3563275,0.0161 0.1010771,-0.0323 0.1812471,-0.08695 0.2453097,-0.172523 0.057753,-0.07188 0.098772,-0.151337 0.1334313,-0.236672 0.039131,-0.08009 0.074069,-0.162089 0.1111728,-0.243156 0.041456,-0.089152 0.086629,-0.1770136 0.1377836,-0.2610014 0.05032,-0.072559 0.1068803,-0.1418975 0.1776899,-0.1955562 0.060615,-0.041834 0.1230771,-0.073234 0.1987856,-0.073831 0.086529,-5.823e-4 0.1681703,0.011726 0.2451606,0.054672 0.095791,0.051671 0.1892562,0.1073373 0.2814478,0.1652291 0.115406,0.075798 0.231581,0.1503636 0.3487498,0.223417 0.1336897,0.085197 0.2658828,0.1727405 0.3928472,0.2677975 0.1389363,0.104595 0.2790512,0.208047 0.4260461,0.301181 0.1347828,0.08865 0.2707817,0.176279 0.4194169,0.240488 0.122182,0.05115 0.248149,0.09643 0.382489,0.09631 0.116877,-0.0053 0.230401,-0.02929 0.328917,-0.09585 0.07717,-0.06092 0.142892,-0.13349 0.194782,-0.217339 0.04778,-0.08029 0.09116,-0.162686 0.122759,-0.250884 0.03861,-0.09583 0.07623,-0.192198 0.119738,-0.285939 0.0471,-0.1001829 0.09687,-0.2001153 0.160102,-0.2912576 0.05731,-0.075122 0.121944,-0.1421161 0.206704,-0.1866528 0.08532,-0.040721 0.171965,-0.058508 0.26656,-0.040045 0.119321,0.024862 0.227636,0.077666 0.334147,0.1359552 0.135298,0.07399 0.269638,0.1495488 0.400937,0.2305059 0.141574,0.087822 0.285902,0.1713303 0.423336,0.2656663 0.122771,0.0836 0.247737,0.163897 0.373032,0.243636 0.07709,0.04905 0.155432,0.09766 0.240835,0.130987 0.256615,0.102647 0.329204,-0.0788 0.07256,-0.181466 z"
       id="path4257"
       style="opacity:1;fill:#9e3a9c;fill-opacity:1;fill-rule:nonzero;stroke:none;stroke-width:0.06614584;stroke-linecap:round;stroke-linejoin:round;stroke-miterlimit:4;stroke-dasharray:none;stroke-dashoffset:0;stroke-opacity:1" />
  </g>
  <path
     inkscape:connector-curvature="0"
     style="opacity:0.46500017;fill:#000000;fill-opacity:1;fill-rule:nonzero;stroke:none;stroke-width:0.25;stroke-linecap:round;stroke-linejoin:round;stroke-miterlimit:4;stroke-dasharray:none;stroke-dashoffset:0;stroke-opacity:1"
     d="m 1.7743933,0.90308104 c -0.4430381,0 -0.79970771,0.39876866 -0.79970771,0.89410006 V 14.202819 c 0,0.495331 0.35666961,0.8941 0.79970771,0.8941 H 5 C 4.733751,14.968105 4.4774316,14.84427 4.2092175,14.714482 4.5468262,14.006627 10.964037,1.6547998 11.322689,0.90308104 Z"
     id="rect4249" />
  <path
     style="fill:#555555;stroke-width:2"
     inkscape:connector-curvature="0"
     id="path62"
     d="M 3.665,15.446846 C 4.0445149,15.634571 4.3863313,15.803765 4.783304,16 5.1759754,15.15925 12.196138,1.345095 12.565532,0.55315895 12.185765,0.36543324 11.843948,0.19623033 11.446975,0 11.054556,0.8407547 4.0343945,14.655151 3.665,15.446846 Z" />
</svg>
