<?xml version="1.0" encoding="UTF-8" standalone="no"?>
<svg
   xmlns:dc="http://purl.org/dc/elements/1.1/"
   xmlns:cc="http://creativecommons.org/ns#"
   xmlns:rdf="http://www.w3.org/1999/02/22-rdf-syntax-ns#"
   xmlns:svg="http://www.w3.org/2000/svg"
   xmlns="http://www.w3.org/2000/svg"
   xmlns:xlink="http://www.w3.org/1999/xlink"
   xmlns:sodipodi="http://sodipodi.sourceforge.net/DTD/sodipodi-0.dtd"
   xmlns:inkscape="http://www.inkscape.org/namespaces/inkscape"
   height="16"
   viewBox="0 0 4.2333333 4.2333335"
   width="16"
   id="svg2"
   version="1.1"
   inkscape:version="0.92.4 (unknown)"
   sodipodi:docname="sc_hideallnotes.svg"
   inkscape:export-filename="/home/tamara/Desktop/IKON/5_258 (tamara)/sc (222)/Tanggal 21/sc_hideallnotes.png"
   inkscape:export-xdpi="90"
   inkscape:export-ydpi="90">
  <metadata
     id="metadata95">
    <rdf:RDF>
      <cc:Work
         rdf:about="">
        <dc:format>image/svg+xml</dc:format>
        <dc:type
           rdf:resource="http://purl.org/dc/dcmitype/StillImage" />
        <dc:title />
      </cc:Work>
    </rdf:RDF>
  </metadata>
  <defs
     id="defs93" />
  <sodipodi:namedview
     pagecolor="#ffffff"
     bordercolor="#666666"
     borderopacity="1"
     objecttolerance="10"
     gridtolerance="10"
     guidetolerance="10"
     inkscape:pageopacity="0"
     inkscape:pageshadow="2"
     inkscape:window-width="1366"
     inkscape:window-height="707"
     id="namedview91"
     showgrid="true"
     inkscape:zoom="14.75"
     inkscape:cx="-11.823051"
     inkscape:cy="-0.31955317"
     inkscape:window-x="0"
     inkscape:window-y="0"
     inkscape:window-maximized="1"
     inkscape:current-layer="svg2"
     inkscape:snap-global="false"
     showguides="true"
     inkscape:guide-bbox="true">
    <inkscape:grid
       type="xygrid"
       id="grid4223" />
    <sodipodi:guide
       position="4.3768361,-0.62782488"
       orientation="0,1"
       id="guide911"
       inkscape:locked="false" />
  </sodipodi:namedview>
  <linearGradient
     id="a"
     gradientTransform="matrix(.55208684 .00232113 -.00157791 .81673255 7.781307 47.782885)"
     gradientUnits="userSpaceOnUse"
     x1="-19.342056"
     x2="152.20572"
     xlink:href="#e"
     y1="-36.226715"
     y2="93.202377" />
  <radialGradient
     id="b"
     cx="11.026738"
     cy="7.9995"
     gradientTransform="matrix(.5501517 .00170856 -.0015724 .6011785 6.342241 52.205711)"
     gradientUnits="userSpaceOnUse"
     r="156.98399"
     xlink:href="#d" />
  <linearGradient
     id="c"
     gradientTransform="matrix(.5520917 0 0 .8167341 7.874148 48.018828)"
     gradientUnits="userSpaceOnUse"
     x1="-19.342056"
     x2="152.20572"
     xlink:href="#e"
     y1="-36.226715"
     y2="93.202377" />
  <radialGradient
     id="d"
     cx="11.026738"
     cy="7.9995"
     gradientTransform="matrix(.5501517 .00170856 -.0015724 .6011785 7.426983 48.544705)"
     gradientUnits="userSpaceOnUse"
     r="156.98399">
    <stop
       offset=".0765"
       stop-color="#ffce05"
       id="stop8" />
    <stop
       offset=".18870001"
       stop-color="#f9d940"
       id="stop10" />
    <stop
       offset=".3467"
       stop-color="#fde446"
       id="stop12" />
    <stop
       offset=".4294"
       stop-color="#ffeb55"
       id="stop14" />
    <stop
       offset=".6882"
       stop-color="#ffeb55"
       id="stop16" />
    <stop
       offset=".7281"
       stop-color="#fee951"
       id="stop18" />
    <stop
       offset=".7641"
       stop-color="#fde446"
       id="stop20" />
    <stop
       offset=".7987"
       stop-color="#fadb34"
       id="stop22" />
    <stop
       offset=".8322"
       stop-color="#f7cf1a"
       id="stop24" />
    <stop
       offset=".8588"
       stop-color="#f3c300"
       id="stop26" />
    <stop
       offset=".9208"
       stop-color="#fbd400"
       id="stop28" />
    <stop
       offset=".9706"
       stop-color="#fd0"
       id="stop30" />
  </radialGradient>
  <linearGradient
     id="e"
     gradientTransform="matrix(.5520917 0 0 .8167341 7.874148 48.018828)"
     gradientUnits="userSpaceOnUse"
     x1="-19.342056"
     x2="152.20572"
     y1="-36.226715"
     y2="93.202377">
    <stop
       offset="0"
       stop-color="#fff"
       id="stop33" />
    <stop
       offset=".25"
       stop-color="#fff"
       stop-opacity=".449275"
       id="stop35" />
    <stop
       offset=".45480227"
       stop-color="#fff"
       stop-opacity=".698039"
       id="stop37" />
    <stop
       offset=".5"
       stop-color="#fff"
       stop-opacity=".942029"
       id="stop39" />
    <stop
       offset="1"
       stop-color="#fff"
       stop-opacity="0"
       id="stop41" />
  </linearGradient>
  <g
     id="g928"
     transform="translate(-0.09627582,-0.06026401)">
    <g
       transform="matrix(-1,0,0,1,4.2276258,0)"
       id="g4255" />
    <g
       style="fill:#f0e3ec;stroke:#e602b4;stroke-width:1.122648"
       transform="matrix(-0.62985622,0.62985622,0.62985622,0.62985622,2.4344284,-1.5365644)"
       id="g4266">
      <rect
         ry="0.23013353"
         rx="0.24373636"
         y="1.3448362"
         x="1.4904695"
         height="2.869885"
         width="2.6053014"
         id="rect4268-3"
         style="opacity:1;fill:#f0e3ec;fill-opacity:1;fill-rule:nonzero;stroke:#e602b4;stroke-width:0.07425848;stroke-linecap:round;stroke-linejoin:round;stroke-miterlimit:4;stroke-dasharray:none;stroke-dashoffset:0;stroke-opacity:1" />
      <rect
         style="opacity:1;fill:#f0e3ec;fill-opacity:1;fill-rule:nonzero;stroke:#e602b4;stroke-width:0.280662;stroke-linecap:round;stroke-linejoin:round;stroke-miterlimit:4;stroke-dasharray:none;stroke-dashoffset:0;stroke-opacity:1"
         id="rect4270-6"
         width="2.3812501"
         height="2.6458335"
         x="1.5942268"
         y="1.4485937"
         rx="0.22277546"
         ry="0.21216708" />
      <path
         inkscape:connector-curvature="0"
         d="m 2.1379638,2.1023441 c 0.00895,-0.0053 0.017702,-0.010897 0.026297,-0.016753 0.016081,-0.011129 0.032482,-0.021773 0.048501,-0.032993 0.018727,-0.012798 0.038189,-0.024485 0.057513,-0.036353 0.018039,-0.011002 0.036563,-0.021157 0.055267,-0.030972 0.016544,-0.00914 0.033664,-0.016427 0.052142,-0.020436 0.018666,-0.00359 0.036124,-1.406e-4 0.053145,0.00761 0.015327,0.0078 0.027365,0.01963 0.037901,0.032975 0.010045,0.013576 0.017433,0.028827 0.024586,0.044053 0.00604,0.013054 0.011102,0.026522 0.016213,0.039956 0.00353,0.010456 0.00874,0.020142 0.014214,0.029673 0.00513,0.00805 0.011474,0.015309 0.019141,0.021009 0.00855,0.00509 0.018293,0.00652 0.028072,0.00679 0.01364,-5.451e-4 0.026306,-0.00584 0.038602,-0.011305 0.017939,-0.0083 0.034499,-0.019103 0.050784,-0.030213 0.019079,-0.012244 0.037291,-0.02576 0.055512,-0.039228 0.01765,-0.012934 0.03579,-0.025159 0.054368,-0.036716 0.015695,-0.00938 0.031106,-0.01922 0.046567,-0.02898 0.012994,-0.00802 0.026233,-0.015629 0.039753,-0.022722 0.014192,-0.00807 0.029667,-0.010342 0.045709,-0.010398 0.015513,1.374e-4 0.028933,0.00626 0.041689,0.014486 0.012554,0.00879 0.022328,0.020638 0.031145,0.03302 0.00812,0.012331 0.014507,0.025703 0.020722,0.039065 0.0047,0.010734 0.00918,0.02154 0.014277,0.032089 0.004,0.0094 0.0079,0.018375 0.014383,0.026278 0.00512,0.00689 0.010721,0.011922 0.019132,0.013903 0.010861,0.00257 0.021632,3.757e-4 0.03209,-0.00278 0.013777,-0.00446 0.026075,-0.011868 0.038297,-0.019429 0.013761,-0.00885 0.026194,-0.019567 0.038176,-0.030655 0.01211,-0.011664 0.024016,-0.023535 0.035937,-0.035391 0.010279,-0.010384 0.020114,-0.021173 0.030498,-0.031459 0.00891,-0.00901 0.018021,-0.017818 0.027114,-0.026642 0.00832,-0.00781 0.017137,-0.015004 0.026761,-0.021134 0.010472,-0.00712 0.02222,-0.010031 0.034678,-0.010781 0.012811,-4.71e-4 0.024747,0.00298 0.036175,0.00845 0.010737,0.00572 0.018992,0.014371 0.026392,0.023836 0.00685,0.0088 0.012105,0.018569 0.016761,0.028653 0.00368,0.00939 0.0079,0.018523 0.012046,0.027709 0.00353,0.00954 0.00789,0.018707 0.012377,0.027829 0.00355,0.00767 0.00795,0.014887 0.012203,0.022172 0.00369,0.00507 0.00723,0.010552 0.012584,0.014013 0.00631,0.00433 0.013131,0.00789 0.020135,0.010965 0.00754,0.00221 0.014944,0.00275 0.022707,0.00213 0.00902,-6.085e-4 0.017518,-0.00383 0.025495,-0.00792 0.010282,-0.00503 0.019595,-0.011855 0.028144,-0.019424 0.010197,-0.00857 0.019402,-0.018193 0.028334,-0.028046 0.00848,-0.00964 0.017822,-0.018435 0.026448,-0.02794 0.00767,-0.00859 0.015105,-0.017392 0.023111,-0.025675 0.00758,-0.00736 0.014356,-0.015415 0.022249,-0.022446 0.00743,-0.00605 0.015139,-0.011738 0.022672,-0.01766 0.00439,-0.00344 0.00879,-0.00687 0.013184,-0.010296 0.029594,-0.023539 0.046239,-0.00261 0.016645,0.020926 v 0 c -0.00437,0.00354 -0.00874,0.00709 -0.013142,0.010592 -0.00716,0.00563 -0.014481,0.011058 -0.021492,0.016876 -0.00749,0.00636 -0.013367,0.014284 -0.02054,0.020989 -0.00778,0.008 -0.014729,0.016783 -0.022233,0.025041 -0.00854,0.00962 -0.017804,0.018534 -0.026223,0.028256 -0.00963,0.010716 -0.019788,0.020983 -0.030823,0.030268 -0.010456,0.00899 -0.021712,0.01722 -0.034235,0.023124 -0.011173,0.00535 -0.022969,0.00958 -0.03545,0.01033 -0.012277,9.763e-4 -0.024299,-1.26e-4 -0.035892,-0.00459 -0.00881,-0.00404 -0.01751,-0.00839 -0.025355,-0.014129 -0.00761,-0.00617 -0.014137,-0.013354 -0.019389,-0.021668 -0.0047,-0.00776 -0.00926,-0.015603 -0.013295,-0.02374 -0.00484,-0.00942 -0.00956,-0.018916 -0.013055,-0.028945 -0.004,-0.00917 -0.00824,-0.018233 -0.011996,-0.027514 -0.00366,-0.00826 -0.00785,-0.016244 -0.013507,-0.023345 -0.0047,-0.00628 -0.0099,-0.012058 -0.016759,-0.016045 -0.00717,-0.00364 -0.014684,-0.00563 -0.022778,-0.00567 -0.0079,3.783e-4 -0.015063,0.0018 -0.021624,0.00664 -0.00802,0.00504 -0.015208,0.011047 -0.022074,0.017588 -0.00886,0.00895 -0.017711,0.017916 -0.026673,0.026767 -0.010229,0.010465 -0.020032,0.021307 -0.030196,0.03183 -0.012091,0.012224 -0.024122,0.024518 -0.036588,0.036363 -0.013348,0.012346 -0.027285,0.024126 -0.042716,0.033825 -0.014452,0.00882 -0.029141,0.017219 -0.045423,0.022266 -0.015618,0.00426 -0.031524,0.00661 -0.047439,0.00214 -0.013457,-0.0043 -0.02413,-0.011575 -0.032659,-0.022969 -0.00769,-0.00957 -0.01315,-0.020148 -0.017764,-0.031509 -0.00521,-0.010662 -0.00986,-0.02158 -0.014801,-0.032372 -0.00552,-0.01187 -0.011533,-0.023567 -0.018344,-0.034748 -0.0067,-0.00966 -0.014229,-0.018892 -0.023656,-0.026035 -0.00807,-0.00557 -0.016386,-0.00975 -0.026465,-0.00983 -0.01152,-7.76e-5 -0.022389,0.00157 -0.032639,0.00728 -0.012753,0.00688 -0.025196,0.01429 -0.03747,0.021997 -0.015364,0.010092 -0.030831,0.020019 -0.04643,0.029744 -0.017799,0.011344 -0.035398,0.022999 -0.052301,0.035653 -0.018497,0.013926 -0.037151,0.027698 -0.056721,0.040097 -0.017944,0.011804 -0.03605,0.02347 -0.055838,0.032017 -0.016266,0.00681 -0.033037,0.012838 -0.050922,0.012821 -0.015559,-7.005e-4 -0.030674,-0.0039 -0.04379,-0.012761 -0.010273,-0.00811 -0.019025,-0.017771 -0.025933,-0.028935 -0.00636,-0.010688 -0.012137,-0.02166 -0.016343,-0.033401 -0.00514,-0.012758 -0.010149,-0.025588 -0.015941,-0.038068 -0.00627,-0.013339 -0.012895,-0.026642 -0.021314,-0.038776 -0.00763,-0.010001 -0.016235,-0.018919 -0.027519,-0.02485 -0.01136,-0.00542 -0.022895,-0.00779 -0.035488,-0.00533 -0.015886,0.00331 -0.030306,0.01034 -0.044486,0.0181 -0.018012,0.00985 -0.035898,0.019911 -0.053378,0.030688 -0.018848,0.011691 -0.038063,0.022811 -0.05636,0.035369 -0.016345,0.011131 -0.032982,0.021819 -0.049663,0.032436 -0.010262,0.00653 -0.020693,0.013003 -0.032063,0.017439 -0.034164,0.013666 -0.043828,-0.010492 -0.00966,-0.024158 z"
         id="path4272-7"
         style="opacity:1;fill:#f0e3ec;fill-opacity:1;fill-rule:nonzero;stroke:#e602b4;stroke-width:0.07425848;stroke-linecap:round;stroke-linejoin:round;stroke-miterlimit:4;stroke-dasharray:none;stroke-dashoffset:0;stroke-opacity:1" />
      <path
         style="opacity:1;fill:#f0e3ec;fill-opacity:1;fill-rule:nonzero;stroke:#e602b4;stroke-width:0.07425848;stroke-linecap:round;stroke-linejoin:round;stroke-miterlimit:4;stroke-dasharray:none;stroke-dashoffset:0;stroke-opacity:1"
         id="path4274-5"
         d="m 2.1379638,2.4828634 c 0.00895,-0.0053 0.017702,-0.010897 0.026297,-0.016753 0.016081,-0.011129 0.032482,-0.021773 0.048501,-0.032993 0.018727,-0.012798 0.038189,-0.024485 0.057513,-0.036353 0.018039,-0.011002 0.036563,-0.021157 0.055267,-0.030972 0.016544,-0.00914 0.033664,-0.016427 0.052142,-0.020436 0.018666,-0.00359 0.036124,-1.406e-4 0.053145,0.00761 0.015327,0.0078 0.027365,0.01963 0.037901,0.032975 0.010045,0.013576 0.017433,0.028827 0.024586,0.044053 0.00604,0.013054 0.011102,0.026522 0.016213,0.039956 0.00353,0.010456 0.00874,0.020142 0.014214,0.029673 0.00513,0.00805 0.011474,0.015309 0.019141,0.021009 0.00855,0.00509 0.018293,0.00652 0.028072,0.00679 0.01364,-5.451e-4 0.026306,-0.00584 0.038602,-0.011305 0.017939,-0.0083 0.034499,-0.019103 0.050784,-0.030213 0.019079,-0.012244 0.037291,-0.02576 0.055512,-0.039228 0.01765,-0.012934 0.03579,-0.025159 0.054368,-0.036716 0.015695,-0.00938 0.031106,-0.01922 0.046567,-0.02898 0.012994,-0.00802 0.026233,-0.015629 0.039753,-0.022722 0.014192,-0.00807 0.029667,-0.010342 0.045709,-0.010398 0.015513,1.374e-4 0.028933,0.00626 0.041689,0.014486 0.012554,0.00879 0.022328,0.020638 0.031145,0.03302 0.00812,0.012331 0.014507,0.025703 0.020722,0.039065 0.0047,0.010734 0.00918,0.02154 0.014277,0.032089 0.004,0.0094 0.0079,0.018375 0.014383,0.026278 0.00512,0.00689 0.010721,0.011922 0.019132,0.013903 0.010861,0.00257 0.021632,3.757e-4 0.03209,-0.00278 0.013777,-0.00446 0.026075,-0.011868 0.038297,-0.019429 0.013761,-0.00885 0.026194,-0.019567 0.038176,-0.030655 0.01211,-0.011664 0.024016,-0.023535 0.035937,-0.035391 0.010279,-0.010384 0.020114,-0.021173 0.030498,-0.031459 0.00891,-0.00901 0.018021,-0.017818 0.027114,-0.026642 0.00832,-0.00781 0.017137,-0.015004 0.026761,-0.021134 0.010472,-0.00712 0.02222,-0.010031 0.034678,-0.010781 0.012811,-4.71e-4 0.024747,0.00298 0.036175,0.00845 0.010737,0.00572 0.018992,0.014371 0.026392,0.023836 0.00685,0.0088 0.012105,0.018569 0.016761,0.028653 0.00368,0.00939 0.0079,0.018523 0.012046,0.027709 0.00353,0.00954 0.00789,0.018707 0.012377,0.027829 0.00355,0.00767 0.00795,0.014887 0.012203,0.022172 0.00369,0.00507 0.00723,0.010552 0.012584,0.014013 0.00631,0.00433 0.013131,0.00789 0.020135,0.010965 0.00754,0.00221 0.014944,0.00275 0.022707,0.00213 0.00902,-6.085e-4 0.017518,-0.00383 0.025495,-0.00792 0.010282,-0.00503 0.019595,-0.011855 0.028144,-0.019424 0.010197,-0.00857 0.019402,-0.018193 0.028334,-0.028046 0.00848,-0.00964 0.017822,-0.018435 0.026448,-0.02794 0.00767,-0.00859 0.015105,-0.017392 0.023111,-0.025675 0.00758,-0.00736 0.014356,-0.015415 0.022249,-0.022446 0.00743,-0.00605 0.015139,-0.011738 0.022672,-0.01766 0.00439,-0.00344 0.00879,-0.00687 0.013184,-0.010296 0.029594,-0.023539 0.046239,-0.00261 0.016645,0.020926 v 0 c -0.00437,0.00354 -0.00874,0.00709 -0.013142,0.010592 -0.00716,0.00563 -0.014481,0.011058 -0.021492,0.016876 -0.00749,0.00636 -0.013367,0.014284 -0.02054,0.020989 -0.00778,0.008 -0.014729,0.016783 -0.022233,0.025041 -0.00854,0.00962 -0.017804,0.018534 -0.026223,0.028256 -0.00963,0.010716 -0.019788,0.020983 -0.030823,0.030268 -0.010456,0.00899 -0.021712,0.01722 -0.034235,0.023124 -0.011173,0.00535 -0.022969,0.00958 -0.03545,0.01033 -0.012277,9.763e-4 -0.024299,-1.26e-4 -0.035892,-0.00459 -0.00881,-0.00404 -0.01751,-0.00839 -0.025355,-0.014129 -0.00761,-0.00617 -0.014137,-0.013354 -0.019389,-0.021668 -0.0047,-0.00776 -0.00926,-0.015603 -0.013295,-0.02374 -0.00484,-0.00942 -0.00956,-0.018916 -0.013055,-0.028945 -0.004,-0.00917 -0.00824,-0.018233 -0.011996,-0.027514 -0.00366,-0.00826 -0.00785,-0.016244 -0.013507,-0.023345 -0.0047,-0.00628 -0.0099,-0.012058 -0.016759,-0.016045 -0.00717,-0.00364 -0.014684,-0.00563 -0.022778,-0.00567 -0.0079,3.783e-4 -0.015063,0.0018 -0.021624,0.00664 -0.00802,0.00504 -0.015208,0.011047 -0.022074,0.017588 -0.00886,0.00895 -0.017711,0.017916 -0.026673,0.026767 -0.010229,0.010465 -0.020032,0.021307 -0.030196,0.03183 -0.012091,0.012224 -0.024122,0.024518 -0.036588,0.036363 -0.013348,0.012346 -0.027285,0.024126 -0.042716,0.033825 -0.014452,0.00882 -0.029141,0.017219 -0.045423,0.022266 -0.015618,0.00426 -0.031524,0.00661 -0.047439,0.00214 -0.013457,-0.0043 -0.02413,-0.011575 -0.032659,-0.022969 -0.00769,-0.00957 -0.01315,-0.020148 -0.017764,-0.031509 -0.00521,-0.010662 -0.00986,-0.02158 -0.014801,-0.032372 -0.00552,-0.01187 -0.011533,-0.023567 -0.018344,-0.034748 -0.0067,-0.00966 -0.014229,-0.018892 -0.023656,-0.026035 -0.00807,-0.00557 -0.016386,-0.00975 -0.026465,-0.00983 -0.01152,-7.76e-5 -0.022389,0.00157 -0.032639,0.00728 -0.012753,0.00688 -0.025196,0.01429 -0.03747,0.021997 -0.015364,0.010092 -0.030831,0.020019 -0.04643,0.029744 -0.017799,0.011344 -0.035398,0.022999 -0.052301,0.035653 -0.018497,0.013926 -0.037151,0.027698 -0.056721,0.040097 -0.017944,0.011804 -0.03605,0.02347 -0.055838,0.032017 -0.016266,0.00681 -0.033037,0.012838 -0.050922,0.012821 -0.015559,-7.005e-4 -0.030674,-0.0039 -0.04379,-0.012761 -0.010273,-0.00811 -0.019025,-0.017771 -0.025933,-0.028935 -0.00636,-0.010688 -0.012137,-0.02166 -0.016343,-0.033401 -0.00514,-0.012758 -0.010149,-0.025588 -0.015941,-0.038068 -0.00627,-0.013339 -0.012895,-0.026642 -0.021314,-0.038776 -0.00763,-0.010001 -0.016235,-0.018919 -0.027519,-0.02485 -0.01136,-0.00542 -0.022895,-0.00779 -0.035488,-0.00533 -0.015886,0.00331 -0.030306,0.01034 -0.044486,0.0181 -0.018012,0.00985 -0.035898,0.019911 -0.053378,0.030688 -0.018848,0.011691 -0.038063,0.022811 -0.05636,0.035369 -0.016345,0.011131 -0.032982,0.021819 -0.049663,0.032436 -0.010262,0.00653 -0.020693,0.013003 -0.032063,0.017439 -0.034164,0.013666 -0.043828,-0.010492 -0.00966,-0.024158 z"
         inkscape:connector-curvature="0" />
      <path
         inkscape:connector-curvature="0"
         d="m 2.1379638,2.8126468 c 0.00895,-0.0053 0.017702,-0.010897 0.026297,-0.016753 0.016081,-0.011129 0.032482,-0.021773 0.048501,-0.032993 0.018727,-0.012798 0.038189,-0.024485 0.057513,-0.036353 0.018039,-0.011002 0.036563,-0.021157 0.055267,-0.030972 0.016544,-0.00914 0.033664,-0.016427 0.052142,-0.020436 0.018666,-0.00359 0.036124,-1.406e-4 0.053145,0.00761 0.015327,0.0078 0.027365,0.01963 0.037901,0.032975 0.010045,0.013576 0.017433,0.028827 0.024586,0.044053 0.00604,0.013054 0.011102,0.026522 0.016213,0.039956 0.00353,0.010456 0.00874,0.020142 0.014214,0.029673 0.00513,0.00805 0.011474,0.015309 0.019141,0.021009 0.00855,0.00509 0.018293,0.00652 0.028072,0.00679 0.01364,-5.451e-4 0.026306,-0.00584 0.038602,-0.011305 0.017939,-0.0083 0.034499,-0.019103 0.050784,-0.030213 0.019079,-0.012244 0.037291,-0.02576 0.055512,-0.039228 0.01765,-0.012934 0.03579,-0.025159 0.054368,-0.036716 0.015695,-0.00938 0.031106,-0.01922 0.046567,-0.02898 0.012994,-0.00802 0.026233,-0.015629 0.039753,-0.022722 0.014192,-0.00807 0.029667,-0.010342 0.045709,-0.010398 0.015513,1.374e-4 0.028933,0.00626 0.041689,0.014486 0.012554,0.00879 0.022328,0.020638 0.031145,0.03302 0.00812,0.012331 0.014507,0.025703 0.020722,0.039065 0.0047,0.010734 0.00918,0.02154 0.014277,0.032089 0.004,0.0094 0.0079,0.018375 0.014383,0.026278 0.00512,0.00689 0.010721,0.011922 0.019132,0.013903 0.010861,0.00257 0.021632,3.757e-4 0.03209,-0.00278 0.013777,-0.00446 0.026075,-0.011868 0.038297,-0.019429 0.013761,-0.00885 0.026194,-0.019567 0.038176,-0.030655 0.01211,-0.011664 0.024016,-0.023535 0.035937,-0.035391 0.010279,-0.010384 0.020114,-0.021173 0.030498,-0.031459 0.00891,-0.00901 0.018021,-0.017818 0.027114,-0.026642 0.00832,-0.00781 0.017137,-0.015004 0.026761,-0.021134 0.010472,-0.00712 0.02222,-0.010031 0.034678,-0.010781 0.012811,-4.71e-4 0.024747,0.00298 0.036175,0.00845 0.010737,0.00572 0.018992,0.014371 0.026392,0.023836 0.00685,0.0088 0.012105,0.018569 0.016761,0.028653 0.00368,0.00939 0.0079,0.018523 0.012046,0.027709 0.00353,0.00954 0.00789,0.018707 0.012377,0.027829 0.00355,0.00767 0.00795,0.014887 0.012203,0.022172 0.00369,0.00507 0.00723,0.010552 0.012584,0.014013 0.00631,0.00433 0.013131,0.00789 0.020135,0.010965 0.00754,0.00221 0.014944,0.00275 0.022707,0.00213 0.00902,-6.085e-4 0.017518,-0.00383 0.025495,-0.00792 0.010282,-0.00503 0.019595,-0.011855 0.028144,-0.019424 0.010197,-0.00857 0.019402,-0.018193 0.028334,-0.028046 0.00848,-0.00964 0.017822,-0.018435 0.026448,-0.02794 0.00767,-0.00859 0.015105,-0.017392 0.023111,-0.025675 0.00758,-0.00736 0.014356,-0.015415 0.022249,-0.022446 0.00743,-0.00605 0.015139,-0.011738 0.022672,-0.01766 0.00439,-0.00344 0.00879,-0.00687 0.013184,-0.010296 0.029594,-0.023539 0.046239,-0.00261 0.016645,0.020926 v 0 c -0.00437,0.00354 -0.00874,0.00709 -0.013142,0.010592 -0.00716,0.00563 -0.014481,0.011058 -0.021492,0.016876 -0.00749,0.00636 -0.013367,0.014284 -0.02054,0.020989 -0.00778,0.008 -0.014729,0.016783 -0.022233,0.025041 -0.00854,0.00962 -0.017804,0.018534 -0.026223,0.028256 -0.00963,0.010716 -0.019788,0.020983 -0.030823,0.030268 -0.010456,0.00899 -0.021712,0.01722 -0.034235,0.023124 -0.011173,0.00535 -0.022969,0.00958 -0.03545,0.01033 -0.012277,9.763e-4 -0.024299,-1.26e-4 -0.035892,-0.00459 -0.00881,-0.00404 -0.01751,-0.00839 -0.025355,-0.014129 -0.00761,-0.00617 -0.014137,-0.013354 -0.019389,-0.021668 -0.0047,-0.00776 -0.00926,-0.015603 -0.013295,-0.02374 -0.00484,-0.00942 -0.00956,-0.018916 -0.013055,-0.028945 -0.004,-0.00917 -0.00824,-0.018233 -0.011996,-0.027514 -0.00366,-0.00826 -0.00785,-0.016244 -0.013507,-0.023345 -0.0047,-0.00628 -0.0099,-0.012058 -0.016759,-0.016045 -0.00717,-0.00364 -0.014684,-0.00563 -0.022778,-0.00567 -0.0079,3.783e-4 -0.015063,0.0018 -0.021624,0.00664 -0.00802,0.00504 -0.015208,0.011047 -0.022074,0.017588 -0.00886,0.00895 -0.017711,0.017916 -0.026673,0.026767 -0.010229,0.010465 -0.020032,0.021307 -0.030196,0.03183 -0.012091,0.012224 -0.024122,0.024518 -0.036588,0.036363 -0.013348,0.012346 -0.027285,0.024126 -0.042716,0.033825 -0.014452,0.00882 -0.029141,0.017219 -0.045423,0.022266 -0.015618,0.00426 -0.031524,0.00661 -0.047439,0.00214 -0.013457,-0.0043 -0.02413,-0.011575 -0.032659,-0.022969 -0.00769,-0.00957 -0.01315,-0.020148 -0.017764,-0.031509 -0.00521,-0.010662 -0.00986,-0.02158 -0.014801,-0.032372 -0.00552,-0.01187 -0.011533,-0.023567 -0.018344,-0.034748 -0.0067,-0.00966 -0.014229,-0.018892 -0.023656,-0.026035 -0.00807,-0.00557 -0.016386,-0.00975 -0.026465,-0.00983 -0.01152,-7.76e-5 -0.022389,0.00157 -0.032639,0.00728 -0.012753,0.00688 -0.025196,0.01429 -0.03747,0.021997 -0.015364,0.010092 -0.030831,0.020019 -0.04643,0.029744 -0.017799,0.011344 -0.035398,0.022999 -0.052301,0.035653 -0.018497,0.013926 -0.037151,0.027698 -0.056721,0.040097 -0.017944,0.011804 -0.03605,0.02347 -0.055838,0.032017 -0.016266,0.00681 -0.033037,0.012838 -0.050922,0.012821 -0.015559,-7.005e-4 -0.030674,-0.0039 -0.04379,-0.012761 -0.010273,-0.00811 -0.019025,-0.017771 -0.025933,-0.028935 -0.00636,-0.010688 -0.012137,-0.02166 -0.016343,-0.033401 -0.00514,-0.012758 -0.010149,-0.025588 -0.015941,-0.038068 -0.00627,-0.013339 -0.012895,-0.026642 -0.021314,-0.038776 -0.00763,-0.010001 -0.016235,-0.018919 -0.027519,-0.02485 -0.01136,-0.00542 -0.022895,-0.00779 -0.035488,-0.00533 -0.015886,0.00331 -0.030306,0.01034 -0.044486,0.0181 -0.018012,0.00985 -0.035898,0.019911 -0.053378,0.030688 -0.018848,0.011691 -0.038063,0.022811 -0.05636,0.035369 -0.016345,0.011131 -0.032982,0.021819 -0.049663,0.032436 -0.010262,0.00653 -0.020693,0.013003 -0.032063,0.017439 -0.034164,0.013666 -0.043828,-0.010492 -0.00966,-0.024158 z"
         id="path4276-3"
         style="opacity:1;fill:#f0e3ec;fill-opacity:1;fill-rule:nonzero;stroke:#e602b4;stroke-width:0.07425848;stroke-linecap:round;stroke-linejoin:round;stroke-miterlimit:4;stroke-dasharray:none;stroke-dashoffset:0;stroke-opacity:1" />
    </g>
    <g
       style="fill:#f0e3ec;stroke:#e602b4;stroke-width:1.122648"
       transform="matrix(-0.89075121,0,0,0.89075121,4.0065756,0.28462961)"
       id="g4259">
      <rect
         style="opacity:1;fill:#f0e3ec;fill-opacity:1;fill-rule:nonzero;stroke:#e602b4;stroke-width:0.07425848;stroke-linecap:round;stroke-linejoin:round;stroke-miterlimit:4;stroke-dasharray:none;stroke-dashoffset:0;stroke-opacity:1"
         id="rect4238-5"
         width="2.6053014"
         height="2.869885"
         x="1.4822012"
         y="1.336568"
         rx="0.24373636"
         ry="0.23013353" />
      <rect
         ry="0.21216708"
         rx="0.22277546"
         y="1.4485937"
         x="1.5942268"
         height="2.6458335"
         width="2.3812501"
         id="rect4240-6"
         style="opacity:1;fill:#f0e3ec;fill-opacity:1;fill-rule:nonzero;stroke:#e602b4;stroke-width:0.280662;stroke-linecap:round;stroke-linejoin:round;stroke-miterlimit:4;stroke-dasharray:none;stroke-dashoffset:0;stroke-opacity:1" />
      <path
         style="opacity:1;fill:#f0e3ec;fill-opacity:1;fill-rule:nonzero;stroke:#e602b4;stroke-width:0.07425848;stroke-linecap:round;stroke-linejoin:round;stroke-miterlimit:4;stroke-dasharray:none;stroke-dashoffset:0;stroke-opacity:1"
         id="path4253-2"
         d="m 2.1379638,2.1023441 c 0.00895,-0.0053 0.017702,-0.010897 0.026297,-0.016753 0.016081,-0.011129 0.032482,-0.021773 0.048501,-0.032993 0.018727,-0.012798 0.038189,-0.024485 0.057513,-0.036353 0.018039,-0.011002 0.036563,-0.021157 0.055267,-0.030972 0.016544,-0.00914 0.033664,-0.016427 0.052142,-0.020436 0.018666,-0.00359 0.036124,-1.406e-4 0.053145,0.00761 0.015327,0.0078 0.027365,0.01963 0.037901,0.032975 0.010045,0.013576 0.017433,0.028827 0.024586,0.044053 0.00604,0.013054 0.011102,0.026522 0.016213,0.039956 0.00353,0.010456 0.00874,0.020142 0.014214,0.029673 0.00513,0.00805 0.011474,0.015309 0.019141,0.021009 0.00855,0.00509 0.018293,0.00652 0.028072,0.00679 0.01364,-5.451e-4 0.026306,-0.00584 0.038602,-0.011305 0.017939,-0.0083 0.034499,-0.019103 0.050784,-0.030213 0.019079,-0.012244 0.037291,-0.02576 0.055512,-0.039228 0.01765,-0.012934 0.03579,-0.025159 0.054368,-0.036716 0.015695,-0.00938 0.031106,-0.01922 0.046567,-0.02898 0.012994,-0.00802 0.026233,-0.015629 0.039753,-0.022722 0.014192,-0.00807 0.029667,-0.010342 0.045709,-0.010398 0.015513,1.374e-4 0.028933,0.00626 0.041689,0.014486 0.012554,0.00879 0.022328,0.020638 0.031145,0.03302 0.00812,0.012331 0.014507,0.025703 0.020722,0.039065 0.0047,0.010734 0.00918,0.02154 0.014277,0.032089 0.004,0.0094 0.0079,0.018375 0.014383,0.026278 0.00512,0.00689 0.010721,0.011922 0.019132,0.013903 0.010861,0.00257 0.021632,3.757e-4 0.03209,-0.00278 0.013777,-0.00446 0.026075,-0.011868 0.038297,-0.019429 0.013761,-0.00885 0.026194,-0.019567 0.038176,-0.030655 0.01211,-0.011664 0.024016,-0.023535 0.035937,-0.035391 0.010279,-0.010384 0.020114,-0.021173 0.030498,-0.031459 0.00891,-0.00901 0.018021,-0.017818 0.027114,-0.026642 0.00832,-0.00781 0.017137,-0.015004 0.026761,-0.021134 0.010472,-0.00712 0.02222,-0.010031 0.034678,-0.010781 0.012811,-4.71e-4 0.024747,0.00298 0.036175,0.00845 0.010737,0.00572 0.018992,0.014371 0.026392,0.023836 0.00685,0.0088 0.012105,0.018569 0.016761,0.028653 0.00368,0.00939 0.0079,0.018523 0.012046,0.027709 0.00353,0.00954 0.00789,0.018707 0.012377,0.027829 0.00355,0.00767 0.00795,0.014887 0.012203,0.022172 0.00369,0.00507 0.00723,0.010552 0.012584,0.014013 0.00631,0.00433 0.013131,0.00789 0.020135,0.010965 0.00754,0.00221 0.014944,0.00275 0.022707,0.00213 0.00902,-6.085e-4 0.017518,-0.00383 0.025495,-0.00792 0.010282,-0.00503 0.019595,-0.011855 0.028144,-0.019424 0.010197,-0.00857 0.019402,-0.018193 0.028334,-0.028046 0.00848,-0.00964 0.017822,-0.018435 0.026448,-0.02794 0.00767,-0.00859 0.015105,-0.017392 0.023111,-0.025675 0.00758,-0.00736 0.014356,-0.015415 0.022249,-0.022446 0.00743,-0.00605 0.015139,-0.011738 0.022672,-0.01766 0.00439,-0.00344 0.00879,-0.00687 0.013184,-0.010296 0.029594,-0.023539 0.046239,-0.00261 0.016645,0.020926 v 0 c -0.00437,0.00354 -0.00874,0.00709 -0.013142,0.010592 -0.00716,0.00563 -0.014481,0.011058 -0.021492,0.016876 -0.00749,0.00636 -0.013367,0.014284 -0.02054,0.020989 -0.00778,0.008 -0.014729,0.016783 -0.022233,0.025041 -0.00854,0.00962 -0.017804,0.018534 -0.026223,0.028256 -0.00963,0.010716 -0.019788,0.020983 -0.030823,0.030268 -0.010456,0.00899 -0.021712,0.01722 -0.034235,0.023124 -0.011173,0.00535 -0.022969,0.00958 -0.03545,0.01033 -0.012277,9.763e-4 -0.024299,-1.26e-4 -0.035892,-0.00459 -0.00881,-0.00404 -0.01751,-0.00839 -0.025355,-0.014129 -0.00761,-0.00617 -0.014137,-0.013354 -0.019389,-0.021668 -0.0047,-0.00776 -0.00926,-0.015603 -0.013295,-0.02374 -0.00484,-0.00942 -0.00956,-0.018916 -0.013055,-0.028945 -0.004,-0.00917 -0.00824,-0.018233 -0.011996,-0.027514 -0.00366,-0.00826 -0.00785,-0.016244 -0.013507,-0.023345 -0.0047,-0.00628 -0.0099,-0.012058 -0.016759,-0.016045 -0.00717,-0.00364 -0.014684,-0.00563 -0.022778,-0.00567 -0.0079,3.783e-4 -0.015063,0.0018 -0.021624,0.00664 -0.00802,0.00504 -0.015208,0.011047 -0.022074,0.017588 -0.00886,0.00895 -0.017711,0.017916 -0.026673,0.026767 -0.010229,0.010465 -0.020032,0.021307 -0.030196,0.03183 -0.012091,0.012224 -0.024122,0.024518 -0.036588,0.036363 -0.013348,0.012346 -0.027285,0.024126 -0.042716,0.033825 -0.014452,0.00882 -0.029141,0.017219 -0.045423,0.022266 -0.015618,0.00426 -0.031524,0.00661 -0.047439,0.00214 -0.013457,-0.0043 -0.02413,-0.011575 -0.032659,-0.022969 -0.00769,-0.00957 -0.01315,-0.020148 -0.017764,-0.031509 -0.00521,-0.010662 -0.00986,-0.02158 -0.014801,-0.032372 -0.00552,-0.01187 -0.011533,-0.023567 -0.018344,-0.034748 -0.0067,-0.00966 -0.014229,-0.018892 -0.023656,-0.026035 -0.00807,-0.00557 -0.016386,-0.00975 -0.026465,-0.00983 -0.01152,-7.76e-5 -0.022389,0.00157 -0.032639,0.00728 -0.012753,0.00688 -0.025196,0.01429 -0.03747,0.021997 -0.015364,0.010092 -0.030831,0.020019 -0.04643,0.029744 -0.017799,0.011344 -0.035398,0.022999 -0.052301,0.035653 -0.018497,0.013926 -0.037151,0.027698 -0.056721,0.040097 -0.017944,0.011804 -0.03605,0.02347 -0.055838,0.032017 -0.016266,0.00681 -0.033037,0.012838 -0.050922,0.012821 -0.015559,-7.005e-4 -0.030674,-0.0039 -0.04379,-0.012761 -0.010273,-0.00811 -0.019025,-0.017771 -0.025933,-0.028935 -0.00636,-0.010688 -0.012137,-0.02166 -0.016343,-0.033401 -0.00514,-0.012758 -0.010149,-0.025588 -0.015941,-0.038068 -0.00627,-0.013339 -0.012895,-0.026642 -0.021314,-0.038776 -0.00763,-0.010001 -0.016235,-0.018919 -0.027519,-0.02485 -0.01136,-0.00542 -0.022895,-0.00779 -0.035488,-0.00533 -0.015886,0.00331 -0.030306,0.01034 -0.044486,0.0181 -0.018012,0.00985 -0.035898,0.019911 -0.053378,0.030688 -0.018848,0.011691 -0.038063,0.022811 -0.05636,0.035369 -0.016345,0.011131 -0.032982,0.021819 -0.049663,0.032436 -0.010262,0.00653 -0.020693,0.013003 -0.032063,0.017439 -0.034164,0.013666 -0.043828,-0.010492 -0.00966,-0.024158 z"
         inkscape:connector-curvature="0" />
      <path
         inkscape:connector-curvature="0"
         d="m 2.1379638,2.4828634 c 0.00895,-0.0053 0.017702,-0.010897 0.026297,-0.016753 0.016081,-0.011129 0.032482,-0.021773 0.048501,-0.032993 0.018727,-0.012798 0.038189,-0.024485 0.057513,-0.036353 0.018039,-0.011002 0.036563,-0.021157 0.055267,-0.030972 0.016544,-0.00914 0.033664,-0.016427 0.052142,-0.020436 0.018666,-0.00359 0.036124,-1.406e-4 0.053145,0.00761 0.015327,0.0078 0.027365,0.01963 0.037901,0.032975 0.010045,0.013576 0.017433,0.028827 0.024586,0.044053 0.00604,0.013054 0.011102,0.026522 0.016213,0.039956 0.00353,0.010456 0.00874,0.020142 0.014214,0.029673 0.00513,0.00805 0.011474,0.015309 0.019141,0.021009 0.00855,0.00509 0.018293,0.00652 0.028072,0.00679 0.01364,-5.451e-4 0.026306,-0.00584 0.038602,-0.011305 0.017939,-0.0083 0.034499,-0.019103 0.050784,-0.030213 0.019079,-0.012244 0.037291,-0.02576 0.055512,-0.039228 0.01765,-0.012934 0.03579,-0.025159 0.054368,-0.036716 0.015695,-0.00938 0.031106,-0.01922 0.046567,-0.02898 0.012994,-0.00802 0.026233,-0.015629 0.039753,-0.022722 0.014192,-0.00807 0.029667,-0.010342 0.045709,-0.010398 0.015513,1.374e-4 0.028933,0.00626 0.041689,0.014486 0.012554,0.00879 0.022328,0.020638 0.031145,0.03302 0.00812,0.012331 0.014507,0.025703 0.020722,0.039065 0.0047,0.010734 0.00918,0.02154 0.014277,0.032089 0.004,0.0094 0.0079,0.018375 0.014383,0.026278 0.00512,0.00689 0.010721,0.011922 0.019132,0.013903 0.010861,0.00257 0.021632,3.757e-4 0.03209,-0.00278 0.013777,-0.00446 0.026075,-0.011868 0.038297,-0.019429 0.013761,-0.00885 0.026194,-0.019567 0.038176,-0.030655 0.01211,-0.011664 0.024016,-0.023535 0.035937,-0.035391 0.010279,-0.010384 0.020114,-0.021173 0.030498,-0.031459 0.00891,-0.00901 0.018021,-0.017818 0.027114,-0.026642 0.00832,-0.00781 0.017137,-0.015004 0.026761,-0.021134 0.010472,-0.00712 0.02222,-0.010031 0.034678,-0.010781 0.012811,-4.71e-4 0.024747,0.00298 0.036175,0.00845 0.010737,0.00572 0.018992,0.014371 0.026392,0.023836 0.00685,0.0088 0.012105,0.018569 0.016761,0.028653 0.00368,0.00939 0.0079,0.018523 0.012046,0.027709 0.00353,0.00954 0.00789,0.018707 0.012377,0.027829 0.00355,0.00767 0.00795,0.014887 0.012203,0.022172 0.00369,0.00507 0.00723,0.010552 0.012584,0.014013 0.00631,0.00433 0.013131,0.00789 0.020135,0.010965 0.00754,0.00221 0.014944,0.00275 0.022707,0.00213 0.00902,-6.085e-4 0.017518,-0.00383 0.025495,-0.00792 0.010282,-0.00503 0.019595,-0.011855 0.028144,-0.019424 0.010197,-0.00857 0.019402,-0.018193 0.028334,-0.028046 0.00848,-0.00964 0.017822,-0.018435 0.026448,-0.02794 0.00767,-0.00859 0.015105,-0.017392 0.023111,-0.025675 0.00758,-0.00736 0.014356,-0.015415 0.022249,-0.022446 0.00743,-0.00605 0.015139,-0.011738 0.022672,-0.01766 0.00439,-0.00344 0.00879,-0.00687 0.013184,-0.010296 0.029594,-0.023539 0.046239,-0.00261 0.016645,0.020926 v 0 c -0.00437,0.00354 -0.00874,0.00709 -0.013142,0.010592 -0.00716,0.00563 -0.014481,0.011058 -0.021492,0.016876 -0.00749,0.00636 -0.013367,0.014284 -0.02054,0.020989 -0.00778,0.008 -0.014729,0.016783 -0.022233,0.025041 -0.00854,0.00962 -0.017804,0.018534 -0.026223,0.028256 -0.00963,0.010716 -0.019788,0.020983 -0.030823,0.030268 -0.010456,0.00899 -0.021712,0.01722 -0.034235,0.023124 -0.011173,0.00535 -0.022969,0.00958 -0.03545,0.01033 -0.012277,9.763e-4 -0.024299,-1.26e-4 -0.035892,-0.00459 -0.00881,-0.00404 -0.01751,-0.00839 -0.025355,-0.014129 -0.00761,-0.00617 -0.014137,-0.013354 -0.019389,-0.021668 -0.0047,-0.00776 -0.00926,-0.015603 -0.013295,-0.02374 -0.00484,-0.00942 -0.00956,-0.018916 -0.013055,-0.028945 -0.004,-0.00917 -0.00824,-0.018233 -0.011996,-0.027514 -0.00366,-0.00826 -0.00785,-0.016244 -0.013507,-0.023345 -0.0047,-0.00628 -0.0099,-0.012058 -0.016759,-0.016045 -0.00717,-0.00364 -0.014684,-0.00563 -0.022778,-0.00567 -0.0079,3.783e-4 -0.015063,0.0018 -0.021624,0.00664 -0.00802,0.00504 -0.015208,0.011047 -0.022074,0.017588 -0.00886,0.00895 -0.017711,0.017916 -0.026673,0.026767 -0.010229,0.010465 -0.020032,0.021307 -0.030196,0.03183 -0.012091,0.012224 -0.024122,0.024518 -0.036588,0.036363 -0.013348,0.012346 -0.027285,0.024126 -0.042716,0.033825 -0.014452,0.00882 -0.029141,0.017219 -0.045423,0.022266 -0.015618,0.00426 -0.031524,0.00661 -0.047439,0.00214 -0.013457,-0.0043 -0.02413,-0.011575 -0.032659,-0.022969 -0.00769,-0.00957 -0.01315,-0.020148 -0.017764,-0.031509 -0.00521,-0.010662 -0.00986,-0.02158 -0.014801,-0.032372 -0.00552,-0.01187 -0.011533,-0.023567 -0.018344,-0.034748 -0.0067,-0.00966 -0.014229,-0.018892 -0.023656,-0.026035 -0.00807,-0.00557 -0.016386,-0.00975 -0.026465,-0.00983 -0.01152,-7.76e-5 -0.022389,0.00157 -0.032639,0.00728 -0.012753,0.00688 -0.025196,0.01429 -0.03747,0.021997 -0.015364,0.010092 -0.030831,0.020019 -0.04643,0.029744 -0.017799,0.011344 -0.035398,0.022999 -0.052301,0.035653 -0.018497,0.013926 -0.037151,0.027698 -0.056721,0.040097 -0.017944,0.011804 -0.03605,0.02347 -0.055838,0.032017 -0.016266,0.00681 -0.033037,0.012838 -0.050922,0.012821 -0.015559,-7.005e-4 -0.030674,-0.0039 -0.04379,-0.012761 -0.010273,-0.00811 -0.019025,-0.017771 -0.025933,-0.028935 -0.00636,-0.010688 -0.012137,-0.02166 -0.016343,-0.033401 -0.00514,-0.012758 -0.010149,-0.025588 -0.015941,-0.038068 -0.00627,-0.013339 -0.012895,-0.026642 -0.021314,-0.038776 -0.00763,-0.010001 -0.016235,-0.018919 -0.027519,-0.02485 -0.01136,-0.00542 -0.022895,-0.00779 -0.035488,-0.00533 -0.015886,0.00331 -0.030306,0.01034 -0.044486,0.0181 -0.018012,0.00985 -0.035898,0.019911 -0.053378,0.030688 -0.018848,0.011691 -0.038063,0.022811 -0.05636,0.035369 -0.016345,0.011131 -0.032982,0.021819 -0.049663,0.032436 -0.010262,0.00653 -0.020693,0.013003 -0.032063,0.017439 -0.034164,0.013666 -0.043828,-0.010492 -0.00966,-0.024158 z"
         id="path4255-9"
         style="opacity:1;fill:#f0e3ec;fill-opacity:1;fill-rule:nonzero;stroke:#e602b4;stroke-width:0.07425848;stroke-linecap:round;stroke-linejoin:round;stroke-miterlimit:4;stroke-dasharray:none;stroke-dashoffset:0;stroke-opacity:1" />
      <path
         style="opacity:1;fill:#f0e3ec;fill-opacity:1;fill-rule:nonzero;stroke:#e602b4;stroke-width:0.07425848;stroke-linecap:round;stroke-linejoin:round;stroke-miterlimit:4;stroke-dasharray:none;stroke-dashoffset:0;stroke-opacity:1"
         id="path4257-1"
         d="m 2.1379638,2.8126468 c 0.00895,-0.0053 0.017702,-0.010897 0.026297,-0.016753 0.016081,-0.011129 0.032482,-0.021773 0.048501,-0.032993 0.018727,-0.012798 0.038189,-0.024485 0.057513,-0.036353 0.018039,-0.011002 0.036563,-0.021157 0.055267,-0.030972 0.016544,-0.00914 0.033664,-0.016427 0.052142,-0.020436 0.018666,-0.00359 0.036124,-1.406e-4 0.053145,0.00761 0.015327,0.0078 0.027365,0.01963 0.037901,0.032975 0.010045,0.013576 0.017433,0.028827 0.024586,0.044053 0.00604,0.013054 0.011102,0.026522 0.016213,0.039956 0.00353,0.010456 0.00874,0.020142 0.014214,0.029673 0.00513,0.00805 0.011474,0.015309 0.019141,0.021009 0.00855,0.00509 0.018293,0.00652 0.028072,0.00679 0.01364,-5.451e-4 0.026306,-0.00584 0.038602,-0.011305 0.017939,-0.0083 0.034499,-0.019103 0.050784,-0.030213 0.019079,-0.012244 0.037291,-0.02576 0.055512,-0.039228 0.01765,-0.012934 0.03579,-0.025159 0.054368,-0.036716 0.015695,-0.00938 0.031106,-0.01922 0.046567,-0.02898 0.012994,-0.00802 0.026233,-0.015629 0.039753,-0.022722 0.014192,-0.00807 0.029667,-0.010342 0.045709,-0.010398 0.015513,1.374e-4 0.028933,0.00626 0.041689,0.014486 0.012554,0.00879 0.022328,0.020638 0.031145,0.03302 0.00812,0.012331 0.014507,0.025703 0.020722,0.039065 0.0047,0.010734 0.00918,0.02154 0.014277,0.032089 0.004,0.0094 0.0079,0.018375 0.014383,0.026278 0.00512,0.00689 0.010721,0.011922 0.019132,0.013903 0.010861,0.00257 0.021632,3.757e-4 0.03209,-0.00278 0.013777,-0.00446 0.026075,-0.011868 0.038297,-0.019429 0.013761,-0.00885 0.026194,-0.019567 0.038176,-0.030655 0.01211,-0.011664 0.024016,-0.023535 0.035937,-0.035391 0.010279,-0.010384 0.020114,-0.021173 0.030498,-0.031459 0.00891,-0.00901 0.018021,-0.017818 0.027114,-0.026642 0.00832,-0.00781 0.017137,-0.015004 0.026761,-0.021134 0.010472,-0.00712 0.02222,-0.010031 0.034678,-0.010781 0.012811,-4.71e-4 0.024747,0.00298 0.036175,0.00845 0.010737,0.00572 0.018992,0.014371 0.026392,0.023836 0.00685,0.0088 0.012105,0.018569 0.016761,0.028653 0.00368,0.00939 0.0079,0.018523 0.012046,0.027709 0.00353,0.00954 0.00789,0.018707 0.012377,0.027829 0.00355,0.00767 0.00795,0.014887 0.012203,0.022172 0.00369,0.00507 0.00723,0.010552 0.012584,0.014013 0.00631,0.00433 0.013131,0.00789 0.020135,0.010965 0.00754,0.00221 0.014944,0.00275 0.022707,0.00213 0.00902,-6.085e-4 0.017518,-0.00383 0.025495,-0.00792 0.010282,-0.00503 0.019595,-0.011855 0.028144,-0.019424 0.010197,-0.00857 0.019402,-0.018193 0.028334,-0.028046 0.00848,-0.00964 0.017822,-0.018435 0.026448,-0.02794 0.00767,-0.00859 0.015105,-0.017392 0.023111,-0.025675 0.00758,-0.00736 0.014356,-0.015415 0.022249,-0.022446 0.00743,-0.00605 0.015139,-0.011738 0.022672,-0.01766 0.00439,-0.00344 0.00879,-0.00687 0.013184,-0.010296 0.029594,-0.023539 0.046239,-0.00261 0.016645,0.020926 v 0 c -0.00437,0.00354 -0.00874,0.00709 -0.013142,0.010592 -0.00716,0.00563 -0.014481,0.011058 -0.021492,0.016876 -0.00749,0.00636 -0.013367,0.014284 -0.02054,0.020989 -0.00778,0.008 -0.014729,0.016783 -0.022233,0.025041 -0.00854,0.00962 -0.017804,0.018534 -0.026223,0.028256 -0.00963,0.010716 -0.019788,0.020983 -0.030823,0.030268 -0.010456,0.00899 -0.021712,0.01722 -0.034235,0.023124 -0.011173,0.00535 -0.022969,0.00958 -0.03545,0.01033 -0.012277,9.763e-4 -0.024299,-1.26e-4 -0.035892,-0.00459 -0.00881,-0.00404 -0.01751,-0.00839 -0.025355,-0.014129 -0.00761,-0.00617 -0.014137,-0.013354 -0.019389,-0.021668 -0.0047,-0.00776 -0.00926,-0.015603 -0.013295,-0.02374 -0.00484,-0.00942 -0.00956,-0.018916 -0.013055,-0.028945 -0.004,-0.00917 -0.00824,-0.018233 -0.011996,-0.027514 -0.00366,-0.00826 -0.00785,-0.016244 -0.013507,-0.023345 -0.0047,-0.00628 -0.0099,-0.012058 -0.016759,-0.016045 -0.00717,-0.00364 -0.014684,-0.00563 -0.022778,-0.00567 -0.0079,3.783e-4 -0.015063,0.0018 -0.021624,0.00664 -0.00802,0.00504 -0.015208,0.011047 -0.022074,0.017588 -0.00886,0.00895 -0.017711,0.017916 -0.026673,0.026767 -0.010229,0.010465 -0.020032,0.021307 -0.030196,0.03183 -0.012091,0.012224 -0.024122,0.024518 -0.036588,0.036363 -0.013348,0.012346 -0.027285,0.024126 -0.042716,0.033825 -0.014452,0.00882 -0.029141,0.017219 -0.045423,0.022266 -0.015618,0.00426 -0.031524,0.00661 -0.047439,0.00214 -0.013457,-0.0043 -0.02413,-0.011575 -0.032659,-0.022969 -0.00769,-0.00957 -0.01315,-0.020148 -0.017764,-0.031509 -0.00521,-0.010662 -0.00986,-0.02158 -0.014801,-0.032372 -0.00552,-0.01187 -0.011533,-0.023567 -0.018344,-0.034748 -0.0067,-0.00966 -0.014229,-0.018892 -0.023656,-0.026035 -0.00807,-0.00557 -0.016386,-0.00975 -0.026465,-0.00983 -0.01152,-7.76e-5 -0.022389,0.00157 -0.032639,0.00728 -0.012753,0.00688 -0.025196,0.01429 -0.03747,0.021997 -0.015364,0.010092 -0.030831,0.020019 -0.04643,0.029744 -0.017799,0.011344 -0.035398,0.022999 -0.052301,0.035653 -0.018497,0.013926 -0.037151,0.027698 -0.056721,0.040097 -0.017944,0.011804 -0.03605,0.02347 -0.055838,0.032017 -0.016266,0.00681 -0.033037,0.012838 -0.050922,0.012821 -0.015559,-7.005e-4 -0.030674,-0.0039 -0.04379,-0.012761 -0.010273,-0.00811 -0.019025,-0.017771 -0.025933,-0.028935 -0.00636,-0.010688 -0.012137,-0.02166 -0.016343,-0.033401 -0.00514,-0.012758 -0.010149,-0.025588 -0.015941,-0.038068 -0.00627,-0.013339 -0.012895,-0.026642 -0.021314,-0.038776 -0.00763,-0.010001 -0.016235,-0.018919 -0.027519,-0.02485 -0.01136,-0.00542 -0.022895,-0.00779 -0.035488,-0.00533 -0.015886,0.00331 -0.030306,0.01034 -0.044486,0.0181 -0.018012,0.00985 -0.035898,0.019911 -0.053378,0.030688 -0.018848,0.011691 -0.038063,0.022811 -0.05636,0.035369 -0.016345,0.011131 -0.032982,0.021819 -0.049663,0.032436 -0.010262,0.00653 -0.020693,0.013003 -0.032063,0.017439 -0.034164,0.013666 -0.043828,-0.010492 -0.00966,-0.024158 z"
         inkscape:connector-curvature="0" />
    </g>
    <path
       sodipodi:nodetypes="cccssssccccccc"
       id="path4310"
       d="m 2.3646261,0.30417131 c -0.054003,0.00132 -0.1621843,0.1115737 -0.2047088,0.1494012 L 1.1166314,1.450614 0.58000231,1.468726 c -0.1202109,0.00406 -0.217041,0.081473 -0.217041,0.182493 v 2.1880782 c 0,0.1010206 0.096763,0.1824931 0.217041,0.1824931 H 1.4548844 C 1.3786584,3.9878933 1.3053222,3.9552703 1.2285416,3.9211203 1.2570016,3.8662733 1.6145875,3.231527 1.8279882,2.8509848 2.0754351,2.4104404 2.2287023,2.1352608 2.4419042,1.7551072 2.5125572,1.6294119 2.5346332,1.5897258 2.602618,1.4687264 2.7463636,1.2120996 2.7807189,0.97735091 2.8743747,0.80872491 2.7069789,0.49927641 2.241681,0.25797781 2.3646261,0.30417131 Z"
       style="opacity:0.678;fill:#aba2a8;fill-opacity:1;fill-rule:nonzero;stroke:#aba2a8;stroke-width:0.06614584;stroke-linecap:round;stroke-linejoin:round;stroke-miterlimit:4;stroke-dasharray:none;stroke-dashoffset:0;stroke-opacity:1"
       inkscape:connector-curvature="0" />
    <path
       d="M 0.97010463,4.1448976 C 1.0693236,4.1945076 1.1586864,4.2392196 1.2624691,4.2910789 1.3651275,4.068895 3.2004483,0.41824871 3.2970212,0.20896501 3.1977362,0.15935501 3.1083733,0.11464001 3.0045904,0.06278251 2.9019982,0.28496751 1.0666775,3.9356776 0.97010463,4.1448976 Z"
       id="path4281"
       inkscape:connector-curvature="0"
       style="fill:#555555;stroke-width:0.066146" />
  </g>
</svg>
