<?xml version="1.0" encoding="UTF-8" standalone="no"?>
<svg
   xmlns:dc="http://purl.org/dc/elements/1.1/"
   xmlns:cc="http://creativecommons.org/ns#"
   xmlns:rdf="http://www.w3.org/1999/02/22-rdf-syntax-ns#"
   xmlns:svg="http://www.w3.org/2000/svg"
   xmlns="http://www.w3.org/2000/svg"
   xmlns:xlink="http://www.w3.org/1999/xlink"
   xmlns:sodipodi="http://sodipodi.sourceforge.net/DTD/sodipodi-0.dtd"
   xmlns:inkscape="http://www.inkscape.org/namespaces/inkscape"
   height="16"
   width="16"
   id="svg2"
   version="1.1"
   inkscape:version="0.91 r13725"
   sodipodi:docname="sc_insertsound.svg"
   inkscape:export-filename="/home/tamara/Desktop/IKON/5_258 (tamara)/sc (222)/Tanggal 7/sc_insertsound.png"
   inkscape:export-xdpi="90"
   inkscape:export-ydpi="90">
  <metadata
     id="metadata184">
    <rdf:RDF>
      <cc:Work
         rdf:about="">
        <dc:format>image/svg+xml</dc:format>
        <dc:type
           rdf:resource="http://purl.org/dc/dcmitype/StillImage" />
      </cc:Work>
    </rdf:RDF>
  </metadata>
  <defs
     id="defs182" />
  <sodipodi:namedview
     pagecolor="#ffffff"
     bordercolor="#666666"
     borderopacity="1"
     objecttolerance="10"
     gridtolerance="10"
     guidetolerance="10"
     inkscape:pageopacity="0"
     inkscape:pageshadow="2"
     inkscape:window-width="1366"
     inkscape:window-height="718"
     id="namedview180"
     showgrid="true"
     inkscape:zoom="14.75"
     inkscape:cx="-0.6779661"
     inkscape:cy="8"
     inkscape:window-x="0"
     inkscape:window-y="0"
     inkscape:window-maximized="1"
     inkscape:current-layer="svg2">
    <inkscape:grid
       type="xygrid"
       id="grid4312" />
  </sodipodi:namedview>
  <radialGradient
     id="a"
     cx="90.750004"
     cy="110.252967"
     gradientUnits="userSpaceOnUse"
     r="24.501278"
     xlink:href="#b" />
  <linearGradient
     id="b">
    <stop
       offset="0"
       stop-color="#fff"
       id="stop6" />
    <stop
       offset="1"
       stop-color="#fff"
       stop-opacity="0"
       id="stop8" />
  </linearGradient>
  <clipPath
     id="c">
    <path
       d="m112 82.502986c0 4.465301-2.79749 6.409952-5.27972 8.093625-5.10854 3.46508-14.939114 3.32536-20.720284 3.40638-.081 5.781159.16586 15.504599-3.29922 20.613139-1.68367 2.48224-5.29051 5.38687-8.20078 5.38687 2.31803 0 4.74284-1.33476 7.58402-4.08481 9.14197-8.84873 17.36714-16.13535 25.673154-25.297529 1.91895-2.116745 4.24283-3.641881 4.24283-8.117675z"
       id="path11" />
  </clipPath>
  <filter
     id="d"
     color-interpolation-filters="sRGB">
    <feGaussianBlur
       stdDeviation=".43040059"
       id="feGaussianBlur14" />
  </filter>
  <linearGradient
     id="e"
     gradientTransform="matrix(0.16680885,0,0,0.17050628,-4.6548309,-5.3840009)"
     gradientUnits="userSpaceOnUse"
     x1="82.15696"
     x2="94.220871"
     y1="90.381706"
     y2="102.18401">
    <stop
       offset="0"
       stop-color="#fcfcfc"
       id="stop17" />
    <stop
       offset=".52275378"
       stop-color="#f8f8f8"
       id="stop19" />
    <stop
       offset=".72337759"
       stop-color="#f0efef"
       id="stop21" />
    <stop
       offset=".89024991"
       stop-color="#e3e1e1"
       id="stop23" />
    <stop
       offset="1"
       stop-color="#cecbcb"
       id="stop25" />
  </linearGradient>
  <clipPath
     id="f">
    <path
       d="m17.000001 8 .782827 110h57.5c1.675283 0 3.119418.18058 4.9-1.6 8.797935-8.79794 21.481402-23.383226 28.739972-30.707378 2.44056-2.462612 2.80096-4.47117 2.80096-6.724043l-1.72376-70.968579z"
       id="path28" />
  </clipPath>
  <radialGradient
     id="g"
     cx="68.138977"
     cy="89.42041"
     fx="67.932365"
     fy="72.691223"
     gradientTransform="matrix(0.19825899,-0.00992035,0.00810634,0.16192215,-5.234037,-1.8124021)"
     gradientUnits="userSpaceOnUse"
     r="47.5"
     xlink:href="#b" />
  <filter
     id="h"
     color-interpolation-filters="sRGB"
     height="2.025501"
     width="1.957419"
     x="-.478709"
     y="-.512751">
    <feGaussianBlur
       stdDeviation="10.140743"
       id="feGaussianBlur32" />
  </filter>
  <linearGradient
     id="i"
     gradientTransform="matrix(0.11771628,0,0,0.11768585,0.4395345,0.38399638)"
     gradientUnits="userSpaceOnUse"
     x1="47.236164"
     x2="72"
     y1="22.150356"
     y2="116.40091">
    <stop
       offset="0"
       stop-color="#eeecec"
       id="stop35" />
    <stop
       offset=".40000001"
       stop-color="#f4f4f4"
       id="stop37" />
    <stop
       offset="1"
       stop-color="#f6f5f5"
       id="stop39" />
  </linearGradient>
  <filter
     id="j">
    <feGaussianBlur
       stdDeviation="2.028"
       id="feGaussianBlur42" />
  </filter>
  <filter
     id="k">
    <feGaussianBlur
       stdDeviation="2.7153804"
       id="feGaussianBlur45" />
  </filter>
  <filter
     id="l"
     height="1.2101"
     width="1.169467"
     x="-.084733"
     y="-.10505">
    <feGaussianBlur
       stdDeviation="2.1734796"
       id="feGaussianBlur48" />
  </filter>
  <filter
     id="m"
     color-interpolation-filters="sRGB">
    <feGaussianBlur
       stdDeviation=".37043075"
       id="feGaussianBlur51" />
  </filter>
  <filter
     id="n"
     color-interpolation-filters="sRGB">
    <feGaussianBlur
       stdDeviation=".69944247"
       id="feGaussianBlur54" />
  </filter>
  <filter
     id="o"
     color-interpolation-filters="sRGB"
     height="1.278057"
     width="1.146622"
     x="-.073311"
     y="-.139028">
    <feGaussianBlur
       stdDeviation=".73249726"
       id="feGaussianBlur57" />
  </filter>
  <filter
     id="p"
     color-interpolation-filters="sRGB">
    <feGaussianBlur
       stdDeviation=".61029092"
       id="feGaussianBlur60" />
  </filter>
  <filter
     id="q"
     color-interpolation-filters="sRGB"
     height="1.355011"
     width="1.245126"
     x="-.122563"
     y="-.177505">
    <feGaussianBlur
       stdDeviation="2.0368781"
       id="feGaussianBlur63" />
  </filter>
  <filter
     id="r"
     color-interpolation-filters="sRGB"
     height="1.024527"
     width="2.117884"
     x="-.558942"
     y="-.012263">
    <feGaussianBlur
       stdDeviation=".465785"
       id="feGaussianBlur66" />
  </filter>
  <linearGradient
     id="s"
     gradientUnits="userSpaceOnUse"
     x1="40.117199"
     x2="48.117199"
     y1="49"
     y2="49">
    <stop
       offset="0"
       stop-color="#008e00"
       id="stop69" />
    <stop
       offset=".2294"
       stop-color="#008700"
       id="stop71" />
    <stop
       offset=".5127"
       stop-color="#007800"
       id="stop73" />
    <stop
       offset=".8231"
       stop-color="#005f00"
       id="stop75" />
    <stop
       offset="1"
       stop-color="#004d00"
       id="stop77" />
  </linearGradient>
  <filter
     id="t"
     color-interpolation-filters="sRGB"
     height="1.448597"
     width="1.128466"
     x="-.064233"
     y="-.224299">
    <feGaussianBlur
       stdDeviation="1.8073251"
       id="feGaussianBlur80" />
  </filter>
  <linearGradient
     id="u"
     gradientUnits="userSpaceOnUse"
     x1="62.246101"
     x2="52.913101"
     y1="8.6162"
     y2="19.949699">
    <stop
       offset="0"
       id="stop83" />
    <stop
       offset="1"
       stop-opacity="0"
       id="stop85" />
  </linearGradient>
  <linearGradient
     id="v"
     gradientTransform="matrix(0.09276308,0,0,0.09474907,5.3243841,1.4016212)"
     gradientUnits="userSpaceOnUse"
     x1="54.103237"
     x2="32.584381"
     xlink:href="#s"
     y1="32.580181"
     y2="31.295557" />
  <linearGradient
     id="w"
     gradientTransform="matrix(0.08243638,0,0,0.09877354,4.8928801,0.72255187)"
     gradientUnits="userSpaceOnUse"
     x1="44.117001"
     x2="44.117001"
     xlink:href="#u"
     y1="88.249001"
     y2="83.652809" />
  <linearGradient
     id="x"
     gradientTransform="matrix(0.09104416,0,0,0.11856706,4.4465606,2.0800245)"
     gradientUnits="userSpaceOnUse"
     x1="40.117199"
     x2="48.117199"
     xlink:href="#s"
     y1="49"
     y2="49" />
  <radialGradient
     id="y"
     cx="78.879628"
     cy="28.174702"
     gradientUnits="userSpaceOnUse"
     r="16.492849">
    <stop
       offset=".33140001"
       stop-color="#f0ff80"
       id="stop91" />
    <stop
       offset=".67438829"
       stop-color="#0f0"
       stop-opacity="0"
       id="stop93" />
  </radialGradient>
  <linearGradient
     id="z"
     gradientUnits="userSpaceOnUse"
     x1="44.142799"
     x2="44.142799"
     y1="3.493313"
     y2="94.157005">
    <stop
       offset="0"
       stop-color="#00a208"
       id="stop96" />
    <stop
       offset=".5"
       stop-color="#dfffa8"
       id="stop98" />
    <stop
       offset="1"
       stop-color="#8aff47"
       stop-opacity=".632911"
       id="stop100" />
  </linearGradient>
  <linearGradient
     id="A"
     gradientTransform="matrix(0.6433337,0,0,0.5432152,37.044465,32.23032)"
     gradientUnits="userSpaceOnUse"
     x1=".117412"
     x2="43.927124"
     y1="101.0003"
     y2="92.500053">
    <stop
       offset="0"
       stop-color="#287f00"
       id="stop103" />
    <stop
       offset=".5"
       stop-color="#3cf000"
       id="stop105" />
    <stop
       offset="1"
       stop-color="#003a00"
       id="stop107" />
  </linearGradient>
  <linearGradient
     id="B"
     gradientUnits="userSpaceOnUse"
     x1="3.988547"
     x2="43.87418"
     y1="100.01298"
     y2="100.01298">
    <stop
       offset="0"
       stop-color="#080"
       id="stop110" />
    <stop
       offset="1"
       stop-color="#0aa800"
       stop-opacity=".607595"
       id="stop112" />
  </linearGradient>
  <radialGradient
     id="C"
     cx="22.501722"
     cy="91.356857"
     fx="19.835222"
     fy="86.023857"
     gradientTransform="matrix(0.6862309,-0.2788753,0.2607269,0.6833644,-0.067421,33.863485)"
     gradientUnits="userSpaceOnUse"
     r="14">
    <stop
       offset="0"
       stop-color="#fff"
       id="stop115" />
    <stop
       offset=".5"
       stop-color="#fff"
       stop-opacity=".708861"
       id="stop117" />
    <stop
       offset="1"
       stop-color="#fff"
       stop-opacity="0"
       id="stop119" />
  </radialGradient>
  <radialGradient
     id="D"
     cx="27.127048"
     cy="113.89391"
     gradientTransform="matrix(1,-0.02648657,0.0139617,0.5271235,18.16764,52.58348)"
     gradientUnits="userSpaceOnUse"
     r="11.990002">
    <stop
       offset="0"
       stop-color="#c3ff6a"
       id="stop122" />
    <stop
       offset="1"
       stop-color="#a6ff88"
       stop-opacity="0"
       id="stop124" />
  </radialGradient>
  <linearGradient
     id="E"
     gradientTransform="matrix(1,0,0,-1,39.75779,128)"
     gradientUnits="userSpaceOnUse"
     x1="22.025112"
     x2="21.785669"
     y1="29.212114"
     y2="7.972616">
    <stop
       offset="0"
       stop-opacity="0"
       id="stop127" />
    <stop
       offset="1"
       stop-color="#07631a"
       id="stop129" />
  </linearGradient>
  <radialGradient
     id="F"
     cx="39.890652"
     cy="94.426834"
     gradientTransform="matrix(1,0,0,0.2670157,0,81.512404)"
     gradientUnits="userSpaceOnUse"
     r="33.764351"
     xlink:href="#u" />
  <g
     id="g4372">
    <g
       id="g5014">
      <path
         sodipodi:nodetypes="sssccssss"
         inkscape:connector-curvature="0"
         id="path4246"
         d="m 3,1 10,0 c 0.554,0 1,0.446 1,1 L 14,10.281992 9.2282365,15 3,15 C 2.446,15 2,14.554 2,14 L 2,2 C 2,1.446 2.446,1 3,1 Z"
         style="opacity:1;fill:#f3b7d9;fill-opacity:1;fill-rule:nonzero;stroke:none;stroke-width:0.25;stroke-linecap:round;stroke-linejoin:round;stroke-miterlimit:4;stroke-dasharray:none;stroke-dashoffset:0;stroke-opacity:1" />
      <path
         inkscape:connector-curvature="0"
         style="opacity:1;fill:#f0e3ec;fill-opacity:1;fill-rule:nonzero;stroke:none;stroke-width:0.25;stroke-linecap:round;stroke-linejoin:round;stroke-miterlimit:4;stroke-dasharray:none;stroke-dashoffset:0;stroke-opacity:1"
         d="m 3.011774,2 0,12 6.5,0 0,-3.5 3.5,0 0,-8.5 -3.5,0 -2.5,0 -4,0 z"
         id="rect4255" />
      <path
         style="opacity:1;fill:#e602b4;fill-opacity:1;fill-rule:nonzero;stroke:none;stroke-width:0.25;stroke-linecap:round;stroke-linejoin:round;stroke-miterlimit:4;stroke-dasharray:none;stroke-dashoffset:0;stroke-opacity:1"
         d="m 10.000055,10 c -0.5539998,0 -0.9999998,0.446 -0.9999998,1 l 0,4 0.533799,0 c 1.6595818,-1.095353 3.5616938,-2.904973 4.4662008,-4.515029 l 0,-0.484971 z"
         id="rect4244"
         inkscape:connector-curvature="0"
         sodipodi:nodetypes="ssccccs" />
    </g>
    <g
       style="fill:#9d3a9b"
       transform="matrix(0.17211964,-0.02071653,0.02028941,0.16365627,-4.59221,-1.6126871)"
       id="g164">
      <path
         d="m 37.422745,90.448873 c 1.672024,5.389239 9.805048,8.256329 18.16517,6.40451 8.360764,-1.852368 13.780851,-7.722891 12.10947,-13.112134 C 66.02536,78.352554 57.892979,75.48492 49.532858,77.337284 41.172737,79.189648 35.750721,85.060176 37.422745,90.448873 Z"
         id="path166"
         style="fill:#9d3a9b"
         inkscape:connector-curvature="0" />
      <path
         d="M 43.576,95.141 C 41.685,87.924 31.358,84.38 20.508,87.226 9.659,90.072 2.397,98.231 4.288,105.45 c 1.104,4.218 5.1,7.166 10.387,8.333 -3.231,-1.651 -5.652,-4.326 -6.545,-7.736 -1.904,-7.269 3.803,-15.064 12.748,-17.412 8.945,-2.347 17.741,1.644 19.645,8.912 0.894,3.41 0.095,6.931 -1.911,9.956 4.034,-3.612 6.069,-8.145 4.964,-12.362 z"
         transform="matrix(0.686105,0,0,0.5432152,36.321363,32.23032)"
         id="path168"
         style="opacity:0.9;fill:#9d3a9b;filter:url(#q)"
         inkscape:connector-curvature="0" />
      <path
         d="m 34.447549,87.550082 c -7.626375,4.164496 -12.096252,10.313936 -9.566387,13.160718 1.100762,1.23833 3.231368,1.53678 4.823819,1.56891 4.124595,0.0834 9.446953,-1.428 14.234531,-4.042258 7.625626,-4.163549 12.09604,-10.314544 9.565214,-13.160989 -1.100763,-1.238336 -3.231366,-1.536781 -4.823822,-1.568919 -4.125344,-0.0825 -9.445778,1.428283 -14.233355,4.042538 z"
         transform="matrix(0.7077814,0,0,0.6148065,20.645198,26.252134)"
         id="path170"
         style="opacity:0.8;fill:#9d3a9b;filter:url(#p)"
         inkscape:connector-curvature="0" />
      <path
         d="m 46.87479,109 c -7.172,1.882 -12.588,0.601 -11.925,3.134 0.273,1.045 1.302,1.832 2.116,2.308 2.241,1.311 6.431,2.239 11.471,0.917 7.171,-1.882 10.926,-6.96 10.263,-9.492 -0.273,-1.046 -1.302,-1.832 -2.116,-2.309 -2.241,-1.31 -4.77,4.12 -9.809,5.442 z"
         transform="matrix(0.7114081,0.1240747,-0.1849201,0.7638422,40.01216,0.650991)"
         id="path172"
         style="opacity:0.6;fill:#9d3a9b;filter:url(#o)"
         inkscape:connector-curvature="0" />
      <path
         d="m 87.84375,97.625 c -0.647929,8.38965 -8.33824,16.48063 -19.25,19.34375 -12.995,3.409 -25.651001,-1.86025 -28.25,-11.78125 -0.232934,-0.88908 -0.377065,-1.79014 -0.4375,-2.6875 -0.107691,1.56171 0.03141,3.1375 0.4375,4.6875 2.598999,9.921 15.255,15.19025 28.25,11.78125 11.777624,-3.09031 19.782779,-12.26827 19.25,-21.34375 z"
         transform="matrix(0.6181529,0,0,0.5432152,13.113494,32.23032)"
         id="path174"
         style="opacity:0.8;fill:#9d3a9b;filter:url(#n)"
         inkscape:connector-curvature="0" />
    </g>
    <path
       d="m 8.0989792,2.0800245 0.7511145,0 0,8.7406575 -0.7511145,-0.635392 z"
       id="path158"
       style="fill:#9d3a9b"
       inkscape:connector-curvature="0" />
    <path
       d="M 9.7416689,3.6646078 C 9.2708041,3.1021774 9.0250447,2.4172365 8.8500937,2.0800245 l 0,2.2568167 C 12.035949,5.6778249 9.9781228,9.24078 9.9781228,9.24078 12.331615,6.8166254 10.175059,4.1822221 9.7416689,3.6646078 Z"
       id="path176"
       style="fill:#9d3a9b"
       inkscape:connector-curvature="0" />
  </g>
</svg>
