<?xml version="1.0" encoding="UTF-8" standalone="no"?>
<svg
   xmlns:dc="http://purl.org/dc/elements/1.1/"
   xmlns:cc="http://creativecommons.org/ns#"
   xmlns:rdf="http://www.w3.org/1999/02/22-rdf-syntax-ns#"
   xmlns:svg="http://www.w3.org/2000/svg"
   xmlns="http://www.w3.org/2000/svg"
   xmlns:xlink="http://www.w3.org/1999/xlink"
   xmlns:sodipodi="http://sodipodi.sourceforge.net/DTD/sodipodi-0.dtd"
   xmlns:inkscape="http://www.inkscape.org/namespaces/inkscape"
   height="16"
   width="16"
   id="svg2"
   version="1.1"
   inkscape:version="0.91 r13725"
   sodipodi:docname="sc_insertrowsafter.svg"
   inkscape:export-filename="/home/tamara/Desktop/IKON/5_258 (tamara)/sc (222)/Tanggal 7/sc_insertrowsafter.png"
   inkscape:export-xdpi="90"
   inkscape:export-ydpi="90">
  <metadata
     id="metadata98">
    <rdf:RDF>
      <cc:Work
         rdf:about="">
        <dc:format>image/svg+xml</dc:format>
        <dc:type
           rdf:resource="http://purl.org/dc/dcmitype/StillImage" />
      </cc:Work>
    </rdf:RDF>
  </metadata>
  <defs
     id="defs96">
    <linearGradient
       id="a-3"
       gradientTransform="matrix(0,1,1,0,-29.34375,-1.70665)"
       gradientUnits="userSpaceOnUse"
       x1="105.70665"
       x2="25.307646"
       xlink:href="#h"
       y1="37.34375"
       y2="37.34375" />
    <linearGradient
       id="linearGradient4252">
      <stop
         offset="0"
         stop-color="#0968ef"
         id="stop34-6" />
      <stop
         offset="1"
         stop-color="#aecffc"
         id="stop36-7" />
    </linearGradient>
  </defs>
  <sodipodi:namedview
     pagecolor="#ffffff"
     bordercolor="#666666"
     borderopacity="1"
     objecttolerance="10"
     gridtolerance="10"
     guidetolerance="10"
     inkscape:pageopacity="0"
     inkscape:pageshadow="2"
     inkscape:window-width="1366"
     inkscape:window-height="718"
     id="namedview94"
     showgrid="true"
     inkscape:zoom="14.75"
     inkscape:cx="8.024425"
     inkscape:cy="6.5291502"
     inkscape:window-x="0"
     inkscape:window-y="0"
     inkscape:window-maximized="1"
     inkscape:current-layer="svg2">
    <inkscape:grid
       type="xygrid"
       id="grid4226" />
  </sodipodi:namedview>
  <linearGradient
     id="a">
    <stop
       offset="0"
       stop-color="#fff"
       id="stop5" />
    <stop
       offset="1"
       stop-color="#fff"
       stop-opacity="0"
       id="stop7" />
  </linearGradient>
  <linearGradient
     id="b"
     gradientTransform="matrix(0.13461874,0,0,0.19565705,0.29455138,0.35970025)"
     gradientUnits="userSpaceOnUse"
     x1="46.048"
     x2="46.048"
     y1="110.69923"
     y2="16.6203">
    <stop
       offset="0"
       stop-color="#c7cdd7"
       id="stop10" />
    <stop
       offset="1"
       stop-color="#fff"
       id="stop12" />
  </linearGradient>
  <linearGradient
     id="c"
     gradientUnits="userSpaceOnUse"
     x1="67.266975"
     x2="67.266975"
     y1="168.02724"
     y2="-88.020844"
     gradientTransform="matrix(0.125,0,0,0.125,0.0125,1.0125)">
    <stop
       offset="0"
       id="stop15" />
    <stop
       offset="1"
       stop-color="#fff"
       id="stop17" />
  </linearGradient>
  <linearGradient
     id="d"
     gradientUnits="userSpaceOnUse"
     x1="80"
     x2="128.00005"
     xlink:href="#a"
     y1="72"
     y2="72" />
  <mask
     id="e"
     maskUnits="userSpaceOnUse">
    <path
       d="m0 16h128.00005v112h-128.00005z"
       fill="url(#d)"
       id="path21" />
  </mask>
  <linearGradient
     id="f"
     gradientTransform="matrix(0,1,1,0,-29.34375,-1.70665)"
     gradientUnits="userSpaceOnUse"
     x1="105.70665"
     x2="25.307646"
     xlink:href="#h"
     y1="37.34375"
     y2="37.34375" />
  <linearGradient
     id="g"
     gradientTransform="matrix(0,-0.22765655,0.22765655,0,-3.830546,28.91823)"
     gradientUnits="userSpaceOnUse"
     x1="74.667397"
     x2="74.667397"
     y1="80.639534"
     y2="18.585112">
    <stop
       offset="0"
       stop-color="#0c69ed"
       stop-opacity="0"
       id="stop25" />
    <stop
       offset=".14999999"
       stop-color="#1b77ef"
       id="stop27" />
    <stop
       offset=".5"
       stop-color="#4aa3f6"
       id="stop29" />
    <stop
       offset="1"
       stop-color="#89ddff"
       id="stop31" />
  </linearGradient>
  <linearGradient
     id="h">
    <stop
       offset="0"
       stop-color="#0968ef"
       id="stop34" />
    <stop
       offset="1"
       stop-color="#aecffc"
       id="stop36" />
  </linearGradient>
  <linearGradient
     id="i"
     gradientTransform="matrix(0 -1 -1 0 64.00001 203.97987)"
     gradientUnits="userSpaceOnUse"
     x1="113.15723"
     x2="39.268185"
     xlink:href="#h"
     y1="25.786163"
     y2="25.786163" />
  <radialGradient
     id="j"
     cx="343.99899"
     cy="92"
     gradientUnits="userSpaceOnUse"
     r="36">
    <stop
       offset="0"
       stop-color="#96ff00"
       id="stop40" />
    <stop
       offset="1"
       stop-color="#609800"
       id="stop42" />
  </radialGradient>
  <radialGradient
     id="k"
     cx="343.99899"
     cy="92"
     gradientTransform="matrix(0 1 -1 0 -39.9985 140.0029)"
     gradientUnits="userSpaceOnUse"
     r="36">
    <stop
       offset="0"
       stop-color="#e5ff00"
       id="stop45" />
    <stop
       offset="1"
       stop-color="#bff500"
       stop-opacity="0"
       id="stop47" />
  </radialGradient>
  <linearGradient
     id="l"
     gradientTransform="matrix(0 .7388168 -.7388168 0 -1.522665 63.255682)"
     gradientUnits="userSpaceOnUse"
     x1="-80.00296"
     x2="-45.096584"
     xlink:href="#a"
     y1="-131.93112"
     y2="-131.93112" />
  <linearGradient
     id="m"
     gradientUnits="userSpaceOnUse"
     x1="96.000008"
     x2="96.000008"
     y1="58"
     y2="5.932847">
    <stop
       offset="0"
       stop-color="#004d00"
       stop-opacity="0"
       id="stop51" />
    <stop
       offset=".5"
       stop-color="#004d00"
       id="stop53" />
    <stop
       offset="1"
       stop-color="#004d00"
       stop-opacity="0"
       id="stop55" />
  </linearGradient>
  <filter
     id="n">
    <feGaussianBlur
       stdDeviation="1.04"
       id="feGaussianBlur58" />
  </filter>
  <g
     id="g4328">
    <path
       inkscape:connector-curvature="0"
       style="fill:#f0e3ec"
       id="path64-5"
       d="m 0,3.9999996 15.999999,0 L 15.999999,15 0,15 Z" />
    <path
       inkscape:connector-curvature="0"
       style="fill:#9d3a9b"
       id="path68"
       d="m 0,3.9999996 0,0.5 0,2.5 0,0.5 L 0,11 0,11.5 0,14 0,14.5 0,14.789063 0,15 l 16,0 0,-8.0000004 0,-3 -15,0 z m 0.625,1 3.75,0 0,2 -3.75,0 z m 4.375,0 3.375,0 0,2 -3.375,0 z m 4,0 7,0 0,2 -7,0 z m -8.375,3 3.75,0 0,3.0000004 -3.75,0 z m 4.375,0 3.375,0 L 8.375,11 5,11 Z m 4,0 7,0 L 16,11 9,11 Z M 0.625,12 l 3.75,0 0,2 -3.75,0 z M 5,12 l 3.375,0 0,2 L 5,14 Z m 4,0 7,0 0,2 -7,0 z m -8.375,3 3.75,0 z M 5,15 8.375,15 Z m 4,0 7,0 z" />
    <path
       sodipodi:nodetypes="ccccccccccccccccccccccccccccccccccccccccccccccccccccccccccccccccccc"
       d="m 1.2221967,11 1.9674982,1.992123 0.00391,0 0.9954603,1.007872 1.0266904,0 L 4.2124878,12.992123 3.2365425,12.007872 2.2371784,11 Z m 2.4945067,0 0.9993641,1.007872 0.9759415,0.984251 0.9954603,1.007872 1.0305943,0 L 6.7147957,12.992123 5.7388542,12.007872 4.7394901,11 Z m 2.2758956,0 0.9993641,1.007872 0.9759415,0.984251 0.9993643,1.007872 1.0227867,0 L 8.9867878,12.992123 8.0108462,12.007872 7.0114821,11 Z m 2.5023142,0 0.9993642,1.007872 0.9759416,0.984251 0.999364,1.007872 1.022787,0 L 11.489102,12.992123 9.5098924,11 Z m 2.5023148,0 0.999364,1.007872 0.975941,0.984251 0.995461,1.007872 1.030594,0 L 13.99532,12.992123 12.016111,11 Z m 2.275895,0 0.999364,1.007872 0.0078,0.01181 c 0.0079,0.0092 0.01711,0.01715 0.02732,0.02363 l 1.65474,1.515736 c 0.06791,0.07292 0.02425,-0.71538 0.01917,-0.8153 l -0.323386,-0.347089 c 0.0022,-0.03459 -0.178614,-0.202747 -0.202819,-0.227359 l -0.160034,-0.161425 -0.827598,0 c 0.01653,-0.02277 0.0248,-0.05057 0.02342,-0.07875 l 0,-0.673227 c 0.0022,-0.03512 -0.01057,-0.0695 -0.03514,-0.09449 L 14.29591,11 Z M 0.5,11.779527 l 0,1.027557 0.10149792,0.106299 0.0780753,0.07874 L 1.6789374,14 2.7095317,14 1.70236,12.992128 l 0.0078,0 z"
       id="path64"
       style="fill:#e602b4;fill-opacity:1"
       inkscape:connector-curvature="0" />
    <g
       transform="matrix(0.125,0,0,0.125,0,1)"
       id="g68"
       style="fill:#e602b4">
      <path
         d="m 0,48 128,0 0,8 -120,0 0,48 120,0 0,8 -128,0 z"
         id="path70"
         style="fill:#e602b4"
         inkscape:connector-curvature="0" />
      <path
         d="m 0,48 128,0 0,8 -120,0 0,24 120,0 0,8 -128,0 z"
         id="path72"
         style="fill:#e602b4"
         inkscape:connector-curvature="0" />
    </g>
    <g
       transform="matrix(1.0068818,0,0,-0.99093128,-0.03146338,16.827004)"
       id="g4256">
      <path
         style="opacity:1;fill:#9d3a9b;fill-rule:evenodd"
         inkscape:connector-curvature="0"
         id="path76-6"
         d="m 7.9765638,12.383342 c -5e-4,0.254536 -0.1053863,0.507306 -0.2851563,0.6875 l -0.4960937,0.496094 c -0.3118126,0.312993 -0.8468401,0.371297 -1.2187513,0.132813 l 0,2.304689 C 5.9766588,16.515791 5.5113538,16.981096 5,16.981 l -1,0 c -0.5113537,9.6e-5 -0.9766587,-0.465209 -0.9765625,-0.976563 l 0,-2.29297 C 2.6612625,13.927886 2.158035,13.872531 1.8515625,13.582561 L 1.328125,13.086467 C 1.15065,12.917807 1.0403612,12.680294 1.0260262,12.43588 1.0116912,12.191465 1.0934575,11.942689 1.25,11.754436 L 3.75,8.7544366 C 3.9325312,8.5354521 4.2149175,8.4032104 4.5,8.4032104 c 0.2850825,0 0.5674687,0.1322417 0.75,0.3512262 l 2.5000013,2.9999994 c 0.1456662,0.17465 0.2273837,0.401486 0.2265625,0.628906 z" />
      <path
         inkscape:connector-curvature="0"
         style="fill:#f0e3ec;fill-rule:evenodd"
         id="path78-2"
         d="M 4.5,9.4849415 7.0000013,12.484941 6.5031463,12.981796 5,12.006954 5,16 4,16 4,12.006954 2.5220125,12.981796 2,12.484941 Z" />
    </g>
    <g
       id="g4205"
       transform="matrix(2.9396324,0,0,2.9396324,9,1.9999999)">
      <circle
         style="opacity:1;fill:#9d3a9b;fill-opacity:1;fill-rule:nonzero;stroke:none;stroke-width:5;stroke-linecap:round;stroke-linejoin:round;stroke-miterlimit:4;stroke-dasharray:none;stroke-dashoffset:0;stroke-opacity:1"
         id="path4253"
         cx="1.1906251"
         cy="1.1906251"
         r="1.1906251" />
      <rect
         style="opacity:1;fill:#f3b7d9;fill-opacity:1;fill-rule:nonzero;stroke:none;stroke-width:5;stroke-linecap:round;stroke-linejoin:round;stroke-miterlimit:4;stroke-dasharray:none;stroke-dashoffset:0;stroke-opacity:1"
         id="rect4245"
         width="0.39687517"
         height="2.116667"
         x="0.9921875"
         y="0.13229167"
         rx="0"
         ry="0" />
      <rect
         ry="0"
         rx="0"
         y="-2.2489583"
         x="0.9921875"
         height="2.1166666"
         width="0.39687517"
         id="rect4249"
         style="opacity:1;fill:#f3b7d9;fill-opacity:1;fill-rule:nonzero;stroke:none;stroke-width:5;stroke-linecap:round;stroke-linejoin:round;stroke-miterlimit:4;stroke-dasharray:none;stroke-dashoffset:0;stroke-opacity:1"
         transform="matrix(0,1,-1,0,0,0)" />
    </g>
  </g>
</svg>
