<?xml version="1.0" encoding="UTF-8" standalone="no"?>
<svg
   xmlns:dc="http://purl.org/dc/elements/1.1/"
   xmlns:cc="http://creativecommons.org/ns#"
   xmlns:rdf="http://www.w3.org/1999/02/22-rdf-syntax-ns#"
   xmlns:svg="http://www.w3.org/2000/svg"
   xmlns="http://www.w3.org/2000/svg"
   xmlns:xlink="http://www.w3.org/1999/xlink"
   xmlns:sodipodi="http://sodipodi.sourceforge.net/DTD/sodipodi-0.dtd"
   xmlns:inkscape="http://www.inkscape.org/namespaces/inkscape"
   height="16"
   width="16"
   id="svg2"
   version="1.1"
   inkscape:version="0.92.4 (unknown)"
   sodipodi:docname="sc_intersect.svg"
   inkscape:export-filename="/home/tamara/Desktop/IKON/5_258 (tamara)/sc (222)/Tanggal 7-03/sc_intersect.png"
   inkscape:export-xdpi="90"
   inkscape:export-ydpi="90">
  <metadata
     id="metadata45">
    <rdf:RDF>
      <cc:Work
         rdf:about="">
        <dc:format>image/svg+xml</dc:format>
        <dc:type
           rdf:resource="http://purl.org/dc/dcmitype/StillImage" />
        <dc:title />
      </cc:Work>
    </rdf:RDF>
  </metadata>
  <defs
     id="defs43" />
  <sodipodi:namedview
     pagecolor="#ffffff"
     bordercolor="#666666"
     borderopacity="1"
     objecttolerance="10"
     gridtolerance="10"
     guidetolerance="10"
     inkscape:pageopacity="0"
     inkscape:pageshadow="2"
     inkscape:window-width="1366"
     inkscape:window-height="707"
     id="namedview41"
     showgrid="true"
     inkscape:zoom="20.85965"
     inkscape:cx="-2.2767017"
     inkscape:cy="6.8606427"
     inkscape:window-x="0"
     inkscape:window-y="0"
     inkscape:window-maximized="1"
     inkscape:current-layer="svg2">
    <inkscape:grid
       type="xygrid"
       id="grid4173" />
  </sodipodi:namedview>
  <linearGradient
     id="a">
    <stop
       offset="0"
       stop-color="#717174"
       id="stop5" />
    <stop
       offset=".5"
       stop-color="#9c9ca1"
       id="stop7" />
    <stop
       offset="1"
       stop-color="#bdbdc2"
       id="stop9" />
  </linearGradient>
  <linearGradient
     id="b"
     gradientUnits="userSpaceOnUse"
     x1="43.517578"
     x2="112"
     xlink:href="#a"
     y1="45.241211"
     y2="44.185516" />
  <linearGradient
     id="c"
     gradientUnits="userSpaceOnUse"
     x1="56"
     x2="83.993576"
     y1="73.839844"
     y2="42.689865">
    <stop
       offset="0"
       stop-color="#fff"
       id="stop13" />
    <stop
       offset=".42597079"
       stop-color="#fff"
       id="stop15" />
    <stop
       offset=".5892781"
       stop-color="#e5e5e5"
       id="stop17" />
    <stop
       offset=".80219781"
       stop-color="#eaeaea"
       id="stop19" />
    <stop
       offset="1"
       stop-color="#eee"
       id="stop21" />
  </linearGradient>
  <linearGradient
     id="d"
     gradientTransform="matrix(.06940294 0 0 -.11152913 8.766347 177.28781)"
     gradientUnits="userSpaceOnUse"
     x1="-11.041996"
     x2="1141.647"
     xlink:href="#a"
     y1="904.03656"
     y2="872.30853" />
  <linearGradient
     id="e"
     gradientUnits="userSpaceOnUse"
     x1="91.591782"
     x2="232"
     y1="31.999998"
     y2="-4.547726">
    <stop
       offset="0"
       stop-color="#b4b4b6"
       id="stop25" />
    <stop
       offset=".5"
       stop-color="#9c9ca1"
       id="stop27" />
    <stop
       offset="1"
       stop-color="#cdcdd1"
       id="stop29" />
  </linearGradient>
  <path
     inkscape:connector-curvature="0"
     style="opacity:1;fill:#e602b4;stroke-width:1"
     id="path35"
     d="M 1.3400879,5.0000002 C 1.1516456,5.0000002 1,5.1763465 1,5.3955079 V 6.0000002 H 2.1582032 3 v -1 z m 2.6599122,0 v 1 h 1 v -1 z m 2.0000001,0 v 1 H 6.230713 A 4.3050173,4.3050173 0 0 1 6.196045,5.499756 4.3050173,4.3050173 0 0 1 6.2280276,5.0000002 Z M 1,7.0000002 V 8.0000003 H 2 V 7.0000002 Z m 5.0000002,0 V 7.942383 A 5.1230171,5.1230171 0 0 0 6.0349119,8 H 6.9999997 V 7.99585 A 4.3050173,4.3050173 0 0 1 6.4687501,7.0000002 Z M 1,9.0000003 V 10 H 2 V 9.0000003 Z m 5.7729494,0 A 5.1230171,5.1230171 0 0 0 7.0000002,9.2299808 V 9.0000003 Z m 1.2270508,0 v 0.9592285 a 5.1230171,5.1230171 0 0 0 0.071045,0.040767 h 0.928955 V 9.5290531 A 4.3050173,4.3050173 0 0 1 8.0004885,9.0000003 Z M 11,9.770508 A 4.3050173,4.3050173 0 0 1 10.500977,9.8049323 4.3050173,4.3050173 0 0 1 10,9.7727054 V 10 h 1 z M 1,11.000001 V 12 h 1 v -0.999999 z m 9,0 V 12 h 1 v -0.999999 z m -9,2 v 1.604491 C 1,14.823655 1.1516456,15 1.3400879,15 H 3 V 14 H 2.1582032 C 2.0705361,14 2,13.9151 2,13.80957 v -0.809569 z m 9,0 V 13.80957 15 h 0.659912 C 10.848355,15 11,14.823655 11,14.604492 V 13.000001 Z M 4.0000001,14 v 1 h 1 v -1 z m 2.0000001,0 v 1 h 1 v -1 z m 2,0 v 1 h 1.0000001 v -1 z" />
  <path
     inkscape:connector-curvature="0"
     style="opacity:1;fill:#9d3a9b;stroke-width:0.99999994"
     id="path37"
     d="M 5.1662959,4.9638273 C 5.1477295,5.1358365 5.1375511,5.3086539 5.1358005,5.4816607 5.136033,5.6547619 5.1446912,5.8277484 5.1617598,6 c 0.2487885,2.5195926 2.2358243,4.512109 4.7463225,4.759413 0.1715387,0.01865 0.3438857,0.02887 0.5164207,0.03061 0.172292,-2.45e-4 0.344469,-0.0089 0.515914,-0.02606 v -0.8570659 -4.59068 c 0,-0.1952587 -0.182047,-0.3523898 -0.408295,-0.3523898 H 6.0141416 Z M 6.0169139,6 h 3.6945805 c 0.1089343,0 0.1965873,0.073087 0.1965873,0.1639257 v 3.3614899 l 2.065e-4,0.3868838 C 9.9082913,9.9181448 9.187186,9.8042187 8.9999998,9.7022429 7.3777131,9.1485685 6.2170569,7.7081033 6.0169139,6 Z" />
  <path
     inkscape:connector-curvature="0"
     style="opacity:1;fill:#f3b7d9;stroke-width:0.99999994"
     id="path33"
     d="M 5.9827227,5.9999999 A 4.6308468,4.6311318 0 0 0 10,10.014636 V 6.1701872 C 10,6.0758782 9.9086665,5.9999999 9.7951577,5.9999999 Z" />
  <path
     inkscape:connector-curvature="0"
     style="opacity:1;fill:#e602b4;stroke-width:1.05664062"
     id="path39"
     d="M 9.6561786,0.95977451 A 4.9273055,4.9273055 0 0 0 8.7521452,1.1377634 l 0.3019707,0.7290972 c 0.197551,-0.056021 0.3987834,-0.096696 0.6020627,-0.1228077 z m 0.9617974,0.004226 V 1.7222147 c 0.206545,0.025722 0.410555,0.067587 0.610751,0.1239817 L 11.52248,1.1375286 A 4.9273055,4.9273055 0 0 0 10.617976,0.96400051 Z m 1.796796,0.53208829 -0.293048,0.7072594 c 0.186504,0.098467 0.365898,0.2094775 0.535141,0.3350794 L 13.195294,2 A 4.9273055,4.9273055 0 0 0 12.414772,1.4960888 Z m -4.5544499,0.00188 A 4.9273055,4.9273055 0 0 0 7.0826185,2.003757 L 7.6449977,2.5661362 C 7.809227,2.4414013 7.9819453,2.3282356 8.163232,2.2291783 Z m 6.0267329,1.1705478 -0.549934,0.549934 c 0.05134,0.062674 0.101005,0.1266535 0.148638,0.1923127 l 0.01761,-0.016202 c 0.07929,0.1095894 0.150479,0.2233101 0.217908,0.3386016 l 0.703738,-0.2916388 a 4.9273055,4.9273055 0 0 0 -0.53796,-0.7730075 z m -7.4961981,0.00352 A 4.9273055,4.9273055 0 0 0 5.8526634,3.4431665 l 0.7342631,0.304084 c 0.01986,-0.033966 0.03788,-0.068988 0.058703,-0.1023789 0.00567,-0.0091 0.011393,-0.018181 0.017141,-0.027238 0.084849,-0.1371232 0.1796969,-0.2675352 0.279899,-0.3937833 z M 14.813395,4.32184 14.108015,4.6139485 c 0.06432,0.2109025 0.111207,0.4259822 0.141122,0.64339 h 0.773478 A 4.9273055,4.9273055 0 0 0 14.813395,4.32184 Z M 5.4640465,4.32302 A 4.9273055,4.9273055 0 0 0 5.2510704,5.2573427 H 6.0480286 C 6.0806335,5.0430561 6.1299064,4.8321963 6.1954918,4.6259282 Z m 8.8043465,1.8961221 c -0.02139,0.2221848 -0.05997,0.4432583 -0.117642,0.6612359 l 0.731916,0.3031446 a 4.9273055,4.9273055 0 0 0 0.16836,-0.9643805 z M 13.79806,7.7752518 c -0.03226,0.061772 -0.0654,0.1230862 -0.100735,0.1831549 -0.05501,0.092415 -0.113603,0.1826523 -0.17564,0.2705055 -0.0071,0.010443 -0.01435,0.020854 -0.0216,0.031231 -0.02225,0.031244 -0.04548,0.061698 -0.06857,0.092282 l 0.566136,0.5661363 a 4.9273055,4.9273055 0 0 0 0.53608,-0.8385205 z m -1.031538,1.2724564 c -0.05645,0.046715 -0.113638,0.092699 -0.172586,0.1364268 l 0.01033,0.011271 c -0.131004,0.093625 -0.267755,0.1785291 -0.408574,0.2561819 l 0.302674,0.7305061 a 4.9273055,4.9273055 0 0 0 0.830302,-0.5722415 z m -1.457488,0.7762947 -0.0012,2.405e-4 C 11.08247,9.8924469 10.851672,9.941309 10.617976,9.9702871 v 0.4414509 0.350107 a 4.9273055,4.9273055 0 0 0 0.994907,-0.204288 z" />
</svg>
