<?xml version="1.0" encoding="UTF-8" standalone="no"?>
<svg
   xmlns:dc="http://purl.org/dc/elements/1.1/"
   xmlns:cc="http://creativecommons.org/ns#"
   xmlns:rdf="http://www.w3.org/1999/02/22-rdf-syntax-ns#"
   xmlns:svg="http://www.w3.org/2000/svg"
   xmlns="http://www.w3.org/2000/svg"
   xmlns:sodipodi="http://sodipodi.sourceforge.net/DTD/sodipodi-0.dtd"
   xmlns:inkscape="http://www.inkscape.org/namespaces/inkscape"
   enable-background="new 0 0 128 128"
   height="16"
   viewBox="0 0 16 16"
   width="16"
   id="svg2"
   version="1.1"
   inkscape:version="0.92.4 (unknown)"
   sodipodi:docname="sc_insertmultiindex.svg"
   inkscape:export-filename="/home/tamara/Desktop/IKON/5_258 (tamara)/sc (222)/Tanggal 5/sc_insertmultiindex.png"
   inkscape:export-xdpi="90"
   inkscape:export-ydpi="90">
  <metadata
     id="metadata128">
    <rdf:RDF>
      <cc:Work
         rdf:about="">
        <dc:format>image/svg+xml</dc:format>
        <dc:type
           rdf:resource="http://purl.org/dc/dcmitype/StillImage" />
      </cc:Work>
    </rdf:RDF>
  </metadata>
  <defs
     id="defs126" />
  <sodipodi:namedview
     pagecolor="#ffffff"
     bordercolor="#666666"
     borderopacity="1"
     objecttolerance="10"
     gridtolerance="10"
     guidetolerance="10"
     inkscape:pageopacity="0"
     inkscape:pageshadow="2"
     inkscape:window-width="1366"
     inkscape:window-height="707"
     id="namedview124"
     showgrid="true"
     inkscape:zoom="29.5"
     inkscape:cx="-0.55095458"
     inkscape:cy="8"
     inkscape:window-x="0"
     inkscape:window-y="0"
     inkscape:window-maximized="1"
     inkscape:current-layer="svg2">
    <inkscape:grid
       type="xygrid"
       id="grid4256" />
  </sodipodi:namedview>
  <linearGradient
     id="a"
     gradientUnits="userSpaceOnUse"
     x1="26.169329"
     x2="26.169329"
     y1="273.90939"
     y2="266.21255">
    <stop
       offset="0"
       stop-color="#06f"
       id="stop5" />
    <stop
       offset="1"
       stop-color="#80b3ff"
       id="stop7" />
  </linearGradient>
  <linearGradient
     id="b"
     gradientUnits="userSpaceOnUse"
     x1="85.219681"
     x2="61.336319"
     y1="93.219681"
     y2="69.336319">
    <stop
       offset="0"
       id="stop10" />
    <stop
       offset="1"
       stop-color="#393b38"
       id="stop12" />
  </linearGradient>
  <linearGradient
     id="c"
     gradientUnits="userSpaceOnUse"
     x1="96"
     x2="88.000198"
     y1="104"
     y2="96.000198">
    <stop
       offset="0"
       stop-color="#888a85"
       id="stop15" />
    <stop
       offset=".0072"
       stop-color="#8c8e89"
       id="stop17" />
    <stop
       offset=".0673"
       stop-color="#abaca9"
       id="stop19" />
    <stop
       offset=".1347"
       stop-color="#c5c6c4"
       id="stop21" />
    <stop
       offset=".2115"
       stop-color="#dbdbda"
       id="stop23" />
    <stop
       offset=".3012"
       stop-color="#ebebeb"
       id="stop25" />
    <stop
       offset=".4122"
       stop-color="#f7f7f6"
       id="stop27" />
    <stop
       offset=".5679"
       stop-color="#fdfdfd"
       id="stop29" />
    <stop
       offset="1"
       stop-color="#fff"
       id="stop31" />
  </linearGradient>
  <radialGradient
     id="d"
     cx="102"
     cy="112.3047"
     gradientTransform="matrix(0.9787234,0,0,0.9818182,1.361705,1.163636)"
     gradientUnits="userSpaceOnUse"
     r="139.55859">
    <stop
       offset="0"
       stop-color="#535557"
       id="stop34" />
    <stop
       offset=".11366145"
       stop-color="#898a8c"
       id="stop36" />
    <stop
       offset=".20296688"
       stop-color="#ececec"
       id="stop38" />
    <stop
       offset=".2363"
       stop-color="#fafafa"
       id="stop40" />
    <stop
       offset=".2722"
       stop-color="#fff"
       id="stop42" />
    <stop
       offset=".5313"
       stop-color="#fafafa"
       id="stop44" />
    <stop
       offset=".8449"
       stop-color="#ebecec"
       id="stop46" />
    <stop
       offset="1"
       stop-color="#e1e2e3"
       id="stop48" />
  </radialGradient>
  <radialGradient
     id="e"
     cx="102"
     cy="112.3047"
     gradientUnits="userSpaceOnUse"
     r="139.5585">
    <stop
       offset="0"
       stop-color="#00537d"
       id="stop51" />
    <stop
       offset=".0151"
       stop-color="#186389"
       id="stop53" />
    <stop
       offset=".0558"
       stop-color="#558ca8"
       id="stop55" />
    <stop
       offset=".0964"
       stop-color="#89afc3"
       id="stop57" />
    <stop
       offset=".1357"
       stop-color="#b3ccd8"
       id="stop59" />
    <stop
       offset=".1737"
       stop-color="#d4e2e9"
       id="stop61" />
    <stop
       offset=".2099"
       stop-color="#ecf2f5"
       id="stop63" />
    <stop
       offset=".2435"
       stop-color="#fafcfd"
       id="stop65" />
    <stop
       offset=".2722"
       stop-color="#fff"
       id="stop67" />
  </radialGradient>
  <filter
     id="f">
    <feGaussianBlur
       stdDeviation="1.0394514"
       id="feGaussianBlur70" />
  </filter>
  <filter
     id="g">
    <feGaussianBlur
       stdDeviation=".50063244"
       id="feGaussianBlur73" />
  </filter>
  <filter
     id="h">
    <feGaussianBlur
       stdDeviation=".4901192"
       id="feGaussianBlur76" />
  </filter>
  <filter
     id="i">
    <feGaussianBlur
       stdDeviation=".90565481"
       id="feGaussianBlur79" />
  </filter>
  <filter
     id="j"
     height="1.247155"
     width="1.247155"
     x="-.123577"
     y="-.123577">
    <feGaussianBlur
       stdDeviation="1.7720846"
       id="feGaussianBlur82" />
  </filter>
  <rect
     style="opacity:1;fill:#f0e3ec;fill-opacity:1;fill-rule:evenodd;stroke:#e602b4;stroke-width:0.99999994;stroke-linecap:round;stroke-linejoin:round;stroke-miterlimit:4;stroke-dasharray:none;stroke-opacity:1;paint-order:markers fill stroke"
     id="rect927"
     width="11"
     height="13"
     x="2.5"
     y="1.5"
     rx="0.99999952"
     ry="0.99999988" />
  <rect
     style="opacity:1;fill:#e602b4;fill-opacity:1;fill-rule:nonzero;stroke:none;stroke-width:5;stroke-linecap:round;stroke-linejoin:round;stroke-miterlimit:4;stroke-dasharray:none;stroke-dashoffset:0;stroke-opacity:1"
     id="rect4274"
     width="4"
     height="1"
     x="4"
     y="4"
     ry="0.5"
     rx="0.5" />
  <rect
     style="opacity:1;fill:#e602b4;fill-opacity:1;fill-rule:nonzero;stroke:none;stroke-width:5;stroke-linecap:round;stroke-linejoin:round;stroke-miterlimit:4;stroke-dasharray:none;stroke-dashoffset:0;stroke-opacity:1"
     id="rect4284"
     width="4"
     height="1"
     x="4"
     y="8"
     ry="0.5"
     rx="0.5" />
  <rect
     style="opacity:1;fill:#e602b4;fill-opacity:1;fill-rule:nonzero;stroke:none;stroke-width:5;stroke-linecap:round;stroke-linejoin:round;stroke-miterlimit:4;stroke-dasharray:none;stroke-dashoffset:0;stroke-opacity:1"
     id="rect4286"
     width="4"
     height="1"
     x="4"
     y="12"
     ry="0.5"
     rx="0.5" />
  <path
     style="fill:#9d3a9b;fill-opacity:1;stroke:#9d3a9b;stroke-width:0.25;stroke-miterlimit:4;stroke-dasharray:none;stroke-opacity:1"
     id="path2"
     d="M 9.7804288,4.3518796 C 9.8159088,3.9604145 10.092721,3.6763766 10.439083,3.6763766 10.669841,3.6763766 10.88112,3.8006734 11,4 c 0.117816,-0.2018056 0.320433,-0.3236234 0.547489,-0.3236234 0.346314,0 0.623128,0.2840406 0.658607,0.675503 0.0029,0.01725 0.01431,0.1083285 -0.02074,0.2567539 -0.0505,0.2140963 -0.166997,0.408778 -0.336937,0.5629813 L 11.000539,5.9419775 10.138094,5.1716584 C 9.9681408,5.0174552 9.8515968,4.8227774 9.8011438,4.6086772 9.7661138,4.4603241 9.7776538,4.3693139 9.7804038,4.3519982 Z m 0.111856,0.2352355 c 0.04605,0.1955068 0.1528252,0.3736217 0.3084522,0.5147802 l 0.799256,0.7139608 0.785542,-0.7137344 c 0.155911,-0.1414585 0.262626,-0.3194984 0.308727,-0.5150052 0.03316,-0.1404058 0.01952,-0.2197963 0.01947,-0.2203172 l -7.57e-4,-0.00463 C 12.082543,4.019211 11.844767,3.7701794 11.54746,3.7701794 c -0.219383,0 -0.412507,0.1349335 -0.504149,0.3521797 l -0.04311,0.1023148 -0.04311,-0.1023148 c -0.09014,-0.2138739 -0.29349,-0.3521087 -0.518057,-0.3521087 -0.297268,0 -0.5351292,0.2489594 -0.5661622,0.5964167 -9e-5,7.506e-4 -0.013658,0.080142 0.019448,0.2205448 z"
     inkscape:connector-curvature="0" />
  <path
     inkscape:connector-curvature="0"
     d="M 9.7804288,8.3518796 C 9.8159088,7.9604145 10.092721,7.6763766 10.439083,7.6763766 10.669841,7.6763766 10.88112,7.8006734 11,8 c 0.117816,-0.2018056 0.320433,-0.3236234 0.547489,-0.3236234 0.346314,0 0.623128,0.2840406 0.658607,0.675503 0.0029,0.01725 0.01431,0.1083285 -0.02074,0.2567539 -0.0505,0.2140963 -0.166997,0.408778 -0.336937,0.5629813 L 11.000539,9.9419771 10.138094,9.1716584 C 9.9681408,9.0174552 9.8515968,8.8227774 9.8011438,8.6086772 9.7661138,8.4603241 9.7776538,8.3693139 9.7804038,8.3519982 Z m 0.111856,0.2352355 c 0.04605,0.1955068 0.1528252,0.3736217 0.3084522,0.5147802 l 0.799256,0.7139608 0.785542,-0.7137344 c 0.155911,-0.1414585 0.262626,-0.3194984 0.308727,-0.5150052 0.03316,-0.1404058 0.01952,-0.2197963 0.01947,-0.2203172 l -7.57e-4,-0.00463 C 12.082543,8.019211 11.844767,7.7701794 11.54746,7.7701794 c -0.219383,0 -0.412507,0.1349335 -0.504149,0.3521797 l -0.04311,0.1023148 -0.04311,-0.1023148 c -0.09014,-0.2138739 -0.29349,-0.3521087 -0.518057,-0.3521087 -0.297268,0 -0.5351292,0.2489594 -0.5661622,0.5964167 -9e-5,7.506e-4 -0.013658,0.080142 0.019448,0.2205448 z"
     id="path909"
     style="fill:#9d3a9b;fill-opacity:1;stroke:#9d3a9b;stroke-width:0.25;stroke-miterlimit:4;stroke-dasharray:none;stroke-opacity:1" />
</svg>
