<?xml version="1.0" encoding="UTF-8" standalone="no"?>
<svg
   xmlns:dc="http://purl.org/dc/elements/1.1/"
   xmlns:cc="http://creativecommons.org/ns#"
   xmlns:rdf="http://www.w3.org/1999/02/22-rdf-syntax-ns#"
   xmlns:svg="http://www.w3.org/2000/svg"
   xmlns="http://www.w3.org/2000/svg"
   xmlns:xlink="http://www.w3.org/1999/xlink"
   xmlns:sodipodi="http://sodipodi.sourceforge.net/DTD/sodipodi-0.dtd"
   xmlns:inkscape="http://www.inkscape.org/namespaces/inkscape"
   height="16"
   width="16"
   id="svg2"
   version="1.1"
   inkscape:version="0.91 r13725"
   sodipodi:docname="sc_inputlinevisible.svg"
   inkscape:export-filename="/home/tamara/Desktop/IKON/5_258 (tamara)/sc (222)/Tanggal 23/sc_inputlinevisible.png"
   inkscape:export-xdpi="90"
   inkscape:export-ydpi="90">
  <metadata
     id="metadata70">
    <rdf:RDF>
      <cc:Work
         rdf:about="">
        <dc:format>image/svg+xml</dc:format>
        <dc:type
           rdf:resource="http://purl.org/dc/dcmitype/StillImage" />
      </cc:Work>
    </rdf:RDF>
  </metadata>
  <defs
     id="defs68" />
  <sodipodi:namedview
     pagecolor="#ffffff"
     bordercolor="#666666"
     borderopacity="1"
     objecttolerance="10"
     gridtolerance="10"
     guidetolerance="10"
     inkscape:pageopacity="0"
     inkscape:pageshadow="2"
     inkscape:window-width="1366"
     inkscape:window-height="718"
     id="namedview66"
     showgrid="true"
     inkscape:zoom="14.75"
     inkscape:cx="5.326923"
     inkscape:cy="10.314107"
     inkscape:window-x="0"
     inkscape:window-y="0"
     inkscape:window-maximized="1"
     inkscape:current-layer="svg2">
    <inkscape:grid
       type="xygrid"
       id="grid4198" />
  </sodipodi:namedview>
  <filter
     id="a">
    <feGaussianBlur
       stdDeviation="1.177891"
       id="feGaussianBlur5" />
  </filter>
  <linearGradient
     id="b">
    <stop
       offset="0"
       stop-color="#6f6f6f"
       id="stop8" />
    <stop
       offset="1"
       stop-color="#fff"
       id="stop10" />
  </linearGradient>
  <linearGradient
     id="c"
     gradientUnits="userSpaceOnUse"
     x1="1052.916"
     x2="1055.8423"
     xlink:href="#b"
     y1="-481.74805"
     y2="-476.67953"
     gradientTransform="matrix(0.18999673,0,0,0.19359826,-197.50359,95.657128)" />
  <linearGradient
     id="d"
     gradientUnits="userSpaceOnUse"
     x1="1053.9857"
     x2="1057.7916"
     xlink:href="#b"
     y1="-483.13486"
     y2="-476.54285"
     gradientTransform="matrix(0.1935983,0,0,0.19509374,-200.30433,98.372866)" />
  <linearGradient
     id="e"
     gradientUnits="userSpaceOnUse"
     x1="1052.3214"
     x2="1055.2821"
     xlink:href="#b"
     y1="-481.76657"
     y2="-476.63852"
     gradientTransform="matrix(0.19599021,0,0,0.19761705,-203.8285,101.58054)" />
  <linearGradient
     id="f"
     gradientTransform="matrix(0.01518212,0,0,0.02195756,14.452844,34.348984)"
     gradientUnits="userSpaceOnUse"
     x1="-333.0289"
     x2="-333.0289"
     y1="-1473.6504"
     y2="-1301.7214">
    <stop
       offset="0"
       stop-color="#fff"
       id="stop16" />
    <stop
       offset=".49140647"
       stop-color="#fff"
       id="stop18" />
    <stop
       offset="1"
       stop-color="#dcdcdc"
       id="stop20" />
  </linearGradient>
  <linearGradient
     id="g"
     gradientTransform="matrix(0.01518212,0,0,0.02195756,-0.4775285,-10.065278)"
     gradientUnits="userSpaceOnUse"
     x1="399.77466"
     x2="399.77466"
     y1="727.07941"
     y2="480.60214">
    <stop
       offset="0"
       stop-color="#cbcbcd"
       id="stop23" />
    <stop
       offset=".5"
       stop-color="#e0e0e2"
       id="stop25" />
    <stop
       offset="1"
       stop-color="#f2f2f2"
       id="stop27" />
  </linearGradient>
  <linearGradient
     id="h"
     gradientUnits="userSpaceOnUse"
     x1="15.093026"
     x2="25.320713"
     xlink:href="#i"
     y1="292.12253"
     y2="263.66364" />
  <linearGradient
     id="i">
    <stop
       offset="0"
       stop-color="#555"
       id="stop31" />
    <stop
       offset="1"
       id="stop33" />
  </linearGradient>
  <linearGradient
     id="j"
     gradientUnits="userSpaceOnUse"
     x1="21.34454"
     x2="27.9718"
     xlink:href="#i"
     y1="288.04095"
     y2="269.6004" />
  <g
     id="g4222">
    <rect
       height="8"
       rx="0.25927651"
       ry="0.30607849"
       width="14.000001"
       x="0.99999899"
       y="1"
       id="rect40"
       style="fill:#e602b4" />
    <path
       d="M 1.2578125,1.0000037 C 1.1141738,1.0000037 1,1.1351237 1,1.30469 L 1,8.6953125 C 1,8.8648812 1.1141738,9 1.2578125,9 L 14.742188,9 c 0.143641,0 0.257813,-0.1351188 0.257813,-0.3046875 l 0,-7.3906225 c 0,-0.1695663 -0.114172,-0.3046863 -0.257813,-0.3046863 z m 0.5507812,0.9945313 12.3828123,0 c 0.136457,0 0.246094,0.1280075 0.246094,0.28711 l 0,6.2437462 c 0,0.1591 -0.109637,0.2871088 -0.246094,0.2871088 l -12.3828123,0 C 1.6721362,8.8125 1.5625,8.6844912 1.5625,8.5253912 l 0,-6.2437462 c 0,-0.1591025 0.1096363,-0.28711 0.2460937,-0.28711 z"
       id="path42"
       style="fill:#f3b7d9"
       inkscape:connector-curvature="0" />
    <ellipse
       ry="0.97966313"
       rx="0.96143836"
       cx="2.9999917"
       cy="3.0000012"
       id="circle44"
       style="fill:#f0e3ec" />
    <ellipse
       ry="0.98723066"
       rx="0.97966331"
       cx="3.999989"
       cy="4.9999948"
       id="circle46"
       style="fill:#f0e3ec" />
    <ellipse
       ry="0.99999934"
       rx="0.99176711"
       cx="3.0000021"
       cy="6.9999995"
       id="circle48"
       style="fill:#f0e3ec" />
    <rect
       height="5"
       ry="0.6875"
       width="8"
       x="5.999999"
       y="3"
       id="rect50"
       style="fill:#f0e3ec;fill-opacity:0.91176506" />
    <path
       d="m 6.4822996,2.3948356 c -0.2444516,0 -0.4387569,0.2299535 -0.4387569,0.5185309 l 0,4.581664 c 0,0.2885775 0.1943055,0.5185309 0.4387569,0.5185309 l 7.0789434,0 c 0.244451,0 0.438756,-0.2299537 0.438756,-0.5185309 l 0,-4.581664 c 0,-0.2885775 -0.194305,-0.5185309 -0.438756,-0.5185309 z m 0.2393219,0.5983048 6.5870025,0 c 0.244451,0 0.438757,0.2299532 0.438757,0.5185309 l 0,3.837107 c 0,0.2885773 -0.194304,0.5185307 -0.438757,0.5185307 l -6.5870025,0 c -0.2444513,0 -0.4387568,-0.2299531 -0.4387568,-0.5185307 l 0,-3.837107 c 0,-0.2885774 0.194305,-0.5185309 0.4387568,-0.5185309 z"
       id="path52"
       inkscape:connector-curvature="0"
       style="opacity:0.39108899;fill:#e602b4" />
    <g
       transform="matrix(0.92803685,0,0,0.92921752,0.32331846,0.30334723)"
       id="g4214">
      <path
         style="opacity:1;fill:#f3b7d9;stroke-width:2.85513091"
         inkscape:connector-curvature="0"
         id="path54"
         d="m 7.9101552,2.2167969 c -0.5876107,0 -1.1558243,0.1239179 -1.6574707,0.3879395 C 5.7544491,2.8669671 5.3330681,3.2611582 5.0134267,3.7399903 4.7388085,4.1422224 4.5073187,4.555515 4.3225087,4.9794922 4.2218734,5.2103622 4.1391861,5.5045641 4.0493154,5.7714844 l -0.4077149,0 A 0.89248074,0.89248074 0 0 0 2.769042,6.4768066 L 2.640624,7.0761719 a 0.89248074,0.89248074 0 0 0 0.802002,1.076416 C 3.2693934,8.920802 3.1031959,9.6531664 2.8840322,10.656006 2.5927594,11.981543 2.3748736,12.877641 2.2011709,13.548584 1.93769,13.355831 1.6189945,13.208985 1.2861318,13.208985 c -0.42218027,0 -0.86930847,0.203144 -1.154541,0.501464 -0.29114535,0.297147 -0.47998047,0.741557 -0.47998047,1.161866 0,0.562674 0.2755104,1.159806 0.72387695,1.512206 0.44390605,0.357306 1.01202202,0.507813 1.58154302,0.507813 0.5671093,0 1.1237086,-0.139934 1.6062011,-0.421387 a 0.89248074,0.89248074 0 0 0 0.00659,-0.0039 c 1.0994958,-0.65413 1.749612,-1.927995 2.2827148,-3.708252 0.1000801,-0.333599 0.2437388,-0.920724 0.3935547,-1.542236 0.05828,0.289377 0.1250508,0.576222 0.2258301,0.851074 a 0.89248074,0.89248074 0 0 0 0.00122,0.0032 c 0.2416642,0.65176 0.6202385,1.311983 1.1242677,2.001709 a 0.89248074,0.89248074 0 0 0 1.2080077,0.220703 L 9.0183071,14.15433 a 0.89248074,0.89248074 0 0 0 0.2878418,-1.188965 c -0.034466,-0.06053 -0.053511,-0.109347 -0.083984,-0.166993 0.1832517,0.06734 0.373721,0.104248 0.552246,0.104248 0.4068231,0 0.8500281,-0.142365 1.1723631,-0.426025 0.02184,-0.01922 0.03541,-0.04343 0.05615,-0.06299 0.289877,0.287342 0.70927,0.489014 1.102539,0.489014 0.07816,0 0.154462,-0.01286 0.230957,-0.02368 a 0.89248074,0.89248074 0 0 0 0.06958,1.059815 l 0.157226,0.185058 a 0.89248074,0.89248074 0 0 0 1.175293,0.164551 c 0.04976,-0.03318 0.07953,-0.05639 0.118409,-0.08569 l 0.0046,-0.0032 c 0.0064,-0.0048 0.01191,-0.0086 0.01904,-0.01392 0.159958,-0.112115 0.276857,-0.195012 0.363282,-0.259277 0.165023,-0.114461 0.302633,-0.23783 0.521728,-0.432618 0.247868,-0.208007 0.451742,-0.397173 0.621827,-0.592773 0.150292,-0.172837 0.315147,-0.385294 0.508788,-0.649903 2.5e-4,-2.75e-4 5e-4,-4.5e-4 7.5e-4,-7.37e-4 0.222429,-0.301778 0.403139,-0.608359 0.535157,-0.927246 0.131066,-0.302174 0.233253,-0.632927 0.315918,-0.996582 0.09561,-0.3930425 0.144287,-0.795719 0.144287,-1.2021485 0,-0.7772563 -0.13227,-1.513839 -0.408203,-2.1862794 C 16.228799,6.3009524 15.864071,5.6667227 15.398213,5.0278319 A 0.89248074,0.89248074 0 0 0 14.190204,4.8059081 L 13.977314,4.94458 a 0.89248074,0.89248074 0 0 0 -0.2771,1.208496 C 13.874595,6.442294 13.98166,6.691539 14.056171,6.9140624 13.854613,6.8039721 13.634176,6.724121 13.409686,6.724121 c -0.418933,0 -0.812088,0.1812339 -1.122069,0.4267577 -0.0072,-0.010959 -0.009,-0.023478 -0.01636,-0.034424 A 0.89248074,0.89248074 0 0 0 11.405048,6.7331541 l -1.398193,0.2009278 c 0.0094,-0.010716 0.03171,-0.044683 0.04004,-0.053711 a 0.89248074,0.89248074 0 0 0 0.01123,-0.012451 c 0.121963,-0.1372076 0.279364,-0.2955143 0.470703,-0.4699706 a 0.89248074,0.89248074 0 0 0 0.06177,-1.256836 L 10.424091,4.9562987 a 0.89248074,0.89248074 0 0 0 -0.304199,-0.21875 c 0.04925,-0.1616098 0.09595,-0.3262116 0.09595,-0.4863281 0,-0.5665897 -0.2704884,-1.1700533 -0.7241212,-1.5266113 C 9.0478111,2.3673018 8.4796953,2.2167968 7.9101748,2.2167968 Z M 7.2595205,3.449707 c -0.00129,0.00235 -0.00181,0.00364 -0.00317,0.0061 0.00132,-0.0038 0.00183,-0.00296 0.00317,-0.0061 z m 2.5019531,1.9528809 -0.02124,0.022217 c 0.0039,-0.0039 0.00664,-0.00899 0.010498,-0.012939 0.00324,-0.00339 0.00755,-0.00585 0.010742,-0.00928 z M 7.5595692,5.5058594 c 0.1360932,0.113105 0.2879152,0.2126327 0.4592287,0.2788086 -0.017396,0.015723 -0.037936,0.032728 -0.054687,0.04834 A 0.89248074,0.89248074 0 0 0 7.638915,5.7714844 l -0.1611328,0 c 0.026989,-0.1008933 0.054312,-0.1747858 0.081787,-0.265625 z m 6.8513188,1.6552733 0.03393,0.036133 c -0.005,-0.00562 -0.01435,-0.00859 -0.01953,-0.01416 -0.0059,-0.00613 -0.0084,-0.016002 -0.0144,-0.021973 z M 9.1538076,8.4050293 a 0.89248074,0.89248074 0 0 0 0.8222657,0.574463 l 0.1870117,0.958496 -0.108154,0.1718747 c -0.1111716,-0.03072 -0.2279651,-0.05566 -0.3637699,-0.05566 -0.3207492,0 -0.6594837,0.153075 -0.9064941,0.366455 0.017272,-0.362204 0.047989,-0.7107071 0.1054688,-1.0302731 0.08133,-0.4207275 0.173451,-0.7321551 0.2636718,-0.9853516 z m 4.9855954,0.9379883 c -0.02801,0.1861284 -0.05174,0.3708505 -0.09351,0.5615234 a 0.89248074,0.89248074 0 0 0 -0.0017,0.00781 c -0.01686,0.080469 -0.0396,0.143195 -0.05786,0.219727 L 13.802974,10.009766 A 0.89248074,0.89248074 0 0 0 13.069575,9.8933105 L 12.99731,9.5419923 c 0.0098,-0.014367 0.01804,-0.02584 0.0271,-0.038818 0.106946,0.035761 0.233249,0.060058 0.403809,0.060059 0.2397,-10e-8 0.487691,-0.091959 0.711181,-0.2202148 z M 8.6992178,10.472656 c -0.00326,0.0033 -0.00458,0.0087 -0.00781,0.01196 -0.00297,0.0031 -0.00807,0.0045 -0.010986,0.0076 z m 4.6210942,1.96753 -0.01001,0.0078 c 0.0017,-0.0014 0.0032,-0.0033 0.0049,-0.0046 0.0015,-0.0012 0.0036,-0.0019 0.0051,-0.0032 z M 2.6223135,15.655761 c -0.018445,0.05666 -0.038062,0.06465 -0.038574,0.06567 -7.125e-4,0.0014 0.018166,-0.0314 0.038574,-0.06567 z" />
      <g
         style="font-family:sans-serif;letter-spacing:0;word-spacing:0;fill:#e602b4"
         id="g56"
         word-spacing="0"
         transform="matrix(0.47244094,0,0,0.47244094,0.14384237,-122.82139)"
         letter-spacing="0">
        <text
           style="font-size:30.21681786px;fill:#9d3a9b;stroke-width:0.75542003"
           id="text58"
           y="287.64417"
           x="3.717278"
           font-size="30.216818">
          <tspan
             id="tspan60"
             y="287.64417"
             x="3.717278"
             style="font-style:italic;font-weight:bold;font-family:FreeSerif;letter-spacing:-1.22497463;fill:#9d3a9b;stroke-width:0.75542003">f</tspan>
        </text>
        <text
           style="font-size:19.57966995px;fill:#9d3a9b;stroke-width:0.489492"
           id="text62"
           y="285.13913"
           x="13.973368"
           font-size="19.57967">
          <tspan
             id="tspan64"
             y="285.13913"
             x="13.973368"
             style="font-style:italic;font-weight:bold;font-family:FreeSerif;letter-spacing:-0.79374999;fill:#9d3a9b;stroke-width:0.489492">(x)</tspan>
        </text>
      </g>
    </g>
  </g>
</svg>
