<?xml version="1.0" encoding="UTF-8" standalone="no"?>
<svg
   xmlns:dc="http://purl.org/dc/elements/1.1/"
   xmlns:cc="http://creativecommons.org/ns#"
   xmlns:rdf="http://www.w3.org/1999/02/22-rdf-syntax-ns#"
   xmlns:svg="http://www.w3.org/2000/svg"
   xmlns="http://www.w3.org/2000/svg"
   xmlns:xlink="http://www.w3.org/1999/xlink"
   xmlns:sodipodi="http://sodipodi.sourceforge.net/DTD/sodipodi-0.dtd"
   xmlns:inkscape="http://www.inkscape.org/namespaces/inkscape"
   enable-background="new 0 0 128 128"
   height="16"
   viewBox="0 0 16 16"
   width="16"
   id="svg2"
   version="1.1"
   inkscape:version="0.92.4 (unknown)"
   sodipodi:docname="sc_insertgraphic.svg"
   inkscape:export-filename="/home/tamara/Desktop/IKON/5_258 (tamara)/sc (222)/Tanggal 25/sc_insertgraphic.png"
   inkscape:export-xdpi="90"
   inkscape:export-ydpi="90">
  <metadata
     id="metadata292">
    <rdf:RDF>
      <cc:Work
         rdf:about="">
        <dc:format>image/svg+xml</dc:format>
        <dc:type
           rdf:resource="http://purl.org/dc/dcmitype/StillImage" />
      </cc:Work>
    </rdf:RDF>
  </metadata>
  <defs
     id="defs290" />
  <sodipodi:namedview
     pagecolor="#ffffff"
     bordercolor="#666666"
     borderopacity="1"
     objecttolerance="10"
     gridtolerance="10"
     guidetolerance="10"
     inkscape:pageopacity="0"
     inkscape:pageshadow="2"
     inkscape:window-width="1366"
     inkscape:window-height="707"
     id="namedview288"
     showgrid="true"
     inkscape:zoom="29.5"
     inkscape:cx="-0.60911894"
     inkscape:cy="8.0198572"
     inkscape:window-x="0"
     inkscape:window-y="0"
     inkscape:window-maximized="1"
     inkscape:current-layer="svg2">
    <inkscape:grid
       type="xygrid"
       id="grid4420" />
  </sodipodi:namedview>
  <radialGradient
     id="a"
     cx="110"
     cy="112.3047"
     gradientUnits="userSpaceOnUse"
     r="139.55859">
    <stop
       offset="0"
       stop-color="#ececec"
       id="stop5" />
    <stop
       offset=".2363"
       stop-color="#fafafa"
       id="stop7" />
    <stop
       offset=".2722"
       stop-color="#fff"
       id="stop9" />
    <stop
       offset=".5313"
       stop-color="#fafafa"
       id="stop11" />
    <stop
       offset=".8449"
       stop-color="#ebecec"
       id="stop13" />
    <stop
       offset="1"
       stop-color="#e1e2e3"
       id="stop15" />
  </radialGradient>
  <radialGradient
     id="b"
     cx="110"
     cy="112.3047"
     gradientUnits="userSpaceOnUse"
     r="139.5585">
    <stop
       offset="0"
       stop-color="#fcfcfc"
       id="stop18" />
    <stop
       offset=".2722"
       stop-color="#fff"
       id="stop20" />
  </radialGradient>
  <linearGradient
     id="c">
    <stop
       offset="0"
       stop-color="#fff"
       id="stop23" />
    <stop
       offset="1"
       stop-color="#fff"
       stop-opacity="0"
       id="stop25" />
  </linearGradient>
  <radialGradient
     id="d"
     cx="84.903702"
     cy="-130.14005"
     gradientTransform="matrix(.30794145 .30794145 -.30794145 .30794145 46.491338 107.57052)"
     gradientUnits="userSpaceOnUse"
     r="57.039597"
     xlink:href="#e" />
  <linearGradient
     id="e">
    <stop
       offset="0"
       stop-color="#011701"
       id="stop29" />
    <stop
       offset=".80671918"
       stop-color="#145703"
       id="stop31" />
    <stop
       offset="1"
       stop-color="#2fa207"
       stop-opacity=".384314"
       id="stop33" />
  </linearGradient>
  <radialGradient
     id="f"
     cx="43.084476"
     cy="-121.92532"
     gradientTransform="matrix(.30347528 .31234377 -.3628951 .35259129 39.983519 112.82479)"
     gradientUnits="userSpaceOnUse"
     r="57.039597"
     xlink:href="#e" />
  <radialGradient
     id="g"
     cx="51.991096"
     cy="-78.028419"
     gradientTransform="matrix(.28232256 .33158686 -.56115095 .47778001 28.065755 119.5934)"
     gradientUnits="userSpaceOnUse"
     r="57.039597"
     xlink:href="#e" />
  <linearGradient
     id="h"
     gradientTransform="scale(1.0975951 .9110828)"
     gradientUnits="userSpaceOnUse"
     x1="26.091133"
     x2="31.500689"
     xlink:href="#c"
     y1="14.856744"
     y2="14.856744" />
  <filter
     id="i"
     height="1.277481"
     width="1.279832"
     x="-.139916"
     y="-.138741">
    <feGaussianBlur
       stdDeviation=".28784801"
       id="feGaussianBlur39" />
  </filter>
  <linearGradient
     id="j"
     gradientUnits="userSpaceOnUse"
     x1="304.88663"
     x2="345.62039"
     y1="385.86127"
     y2="384.62384">
    <stop
       offset="0"
       stop-color="#765c44"
       id="stop42" />
    <stop
       offset="1"
       stop-color="#765c44"
       stop-opacity="0"
       id="stop44" />
  </linearGradient>
  <linearGradient
     id="k"
     gradientUnits="userSpaceOnUse"
     spreadMethod="reflect"
     x1="88.60625"
     x2="91.575107"
     y1="13.510336"
     y2="13.510336">
    <stop
       offset="0"
       stop-color="#c8ff87"
       id="stop47" />
    <stop
       offset="1"
       stop-color="#abff87"
       stop-opacity="0"
       id="stop49" />
  </linearGradient>
  <linearGradient
     id="l"
     gradientUnits="userSpaceOnUse"
     spreadMethod="reflect"
     x1="31.60625"
     x2="34.575107"
     y1="13.510336"
     y2="13.510336">
    <stop
       offset="0"
       stop-color="#fff"
       id="stop52" />
    <stop
       offset="1"
       stop-color="#790000"
       stop-opacity="0"
       id="stop54" />
  </linearGradient>
  <radialGradient
     id="m"
     cx="50.424522"
     cy="-81.945961"
     gradientTransform="matrix(.30794145 .30794145 -.30794145 .30794145 46.491337 107.57052)"
     gradientUnits="userSpaceOnUse"
     r="50.15279">
    <stop
       offset="0"
       stop-color="#7ae91e"
       stop-opacity=".996078"
       id="stop57" />
    <stop
       offset="1"
       stop-color="#62c916"
       id="stop59" />
  </radialGradient>
  <filter
     id="n"
     color-interpolation-filters="sRGB"
     height="1.024"
     width="1.024"
     x="-.012"
     y="-.012">
    <feGaussianBlur
       stdDeviation=".28192153"
       id="feGaussianBlur62" />
  </filter>
  <linearGradient
     id="o"
     gradientUnits="userSpaceOnUse"
     x1="84.745605"
     x2="97.63675"
     xlink:href="#c"
     y1="48.278452"
     y2="110.577319" />
  <clipPath
     id="p">
    <path
       d="m4.233333 270.54166h25.4v20.108334h-25.4z"
       id="path66" />
  </clipPath>
  <linearGradient
     id="q"
     gradientUnits="userSpaceOnUse"
     x1="9.455072"
     x2="10.211025"
     y1="270.415833"
     y2="290.314981">
    <stop
       offset="0"
       stop-color="#3a65c7"
       id="stop69" />
    <stop
       offset="1"
       stop-color="#c7eefe"
       id="stop71" />
  </linearGradient>
  <linearGradient
     id="r"
     gradientUnits="userSpaceOnUse"
     x1="50.262516"
     x2="48.958763"
     y1="27.631233"
     y2="77.988373">
    <stop
       offset="0"
       stop-color="#7d9ada"
       id="stop74" />
    <stop
       offset="1"
       stop-color="#7d9ada"
       stop-opacity="0"
       id="stop76" />
  </linearGradient>
  <clipPath
     id="s">
    <path
       d="m15.999999 28.000011h96v76h-96z"
       id="path79" />
  </clipPath>
  <filter
     id="t"
     color-interpolation-filters="sRGB"
     height="1.234078"
     width="1.056632"
     x="-.028316"
     y="-.117039">
    <feGaussianBlur
       stdDeviation="1.1658536"
       id="feGaussianBlur82" />
  </filter>
  <filter
     id="u"
     color-interpolation-filters="sRGB"
     height="1.54858"
     width="1.654486"
     x="-.327243"
     y="-.27429">
    <feGaussianBlur
       stdDeviation="6.2008372"
       id="feGaussianBlur85" />
  </filter>
  <filter
     id="v"
     color-interpolation-filters="sRGB"
     height="1.401414"
     width="1.437294"
     x="-.218647"
     y="-.200707">
    <feGaussianBlur
       stdDeviation="6.2008372"
       id="feGaussianBlur88" />
  </filter>
  <filter
     id="w"
     color-interpolation-filters="sRGB"
     height="1.329368"
     width="1.807635"
     x="-.403818"
     y="-.164684">
    <feGaussianBlur
       stdDeviation="6.2008372"
       id="feGaussianBlur91" />
  </filter>
  <filter
     id="x"
     color-interpolation-filters="sRGB"
     height="4.168199"
     width="3.973627"
     x="-1.486814"
     y="-1.5841">
    <feGaussianBlur
       stdDeviation="3.9084235"
       id="feGaussianBlur94" />
  </filter>
  <filter
     id="y"
     color-interpolation-filters="sRGB"
     height="2.503604"
     width="1.801696"
     x="-.400848"
     y="-.751802">
    <feGaussianBlur
       stdDeviation="3.9084235"
       id="feGaussianBlur97" />
  </filter>
  <filter
     id="z"
     color-interpolation-filters="sRGB"
     height="4.02769"
     width="4.04425"
     x="-1.522125"
     y="-1.513845">
    <feGaussianBlur
       stdDeviation="3.9084235"
       id="feGaussianBlur100" />
  </filter>
  <filter
     id="A"
     color-interpolation-filters="sRGB"
     height="2.261324"
     width="2.49848"
     x="-.74924"
     y="-.630662">
    <feGaussianBlur
       stdDeviation="3.9084235"
       id="feGaussianBlur103" />
  </filter>
  <filter
     id="B"
     color-interpolation-filters="sRGB"
     height="2.415904"
     width="1.705177"
     x="-.352589"
     y="-.707952">
    <feGaussianBlur
       stdDeviation="3.9084235"
       id="feGaussianBlur106" />
  </filter>
  <filter
     id="C"
     color-interpolation-filters="sRGB"
     height="3.952408"
     width="2.667857"
     x="-.833928"
     y="-1.476204">
    <feGaussianBlur
       stdDeviation="3.9084235"
       id="feGaussianBlur109" />
  </filter>
  <filter
     id="D"
     color-interpolation-filters="sRGB"
     height="6.124016"
     width="3.437769"
     x="-1.218885"
     y="-2.562008">
    <feGaussianBlur
       stdDeviation="3.9084235"
       id="feGaussianBlur112" />
  </filter>
  <filter
     id="E"
     color-interpolation-filters="sRGB"
     height="2.964758"
     width="2.667434"
     x="-.833717"
     y="-.982379">
    <feGaussianBlur
       stdDeviation="3.9084235"
       id="feGaussianBlur115" />
  </filter>
  <filter
     id="F"
     color-interpolation-filters="sRGB"
     height="4.719097"
     width="5.988298"
     x="-2.494149"
     y="-1.859548">
    <feGaussianBlur
       stdDeviation="3.9084235"
       id="feGaussianBlur118" />
  </filter>
  <filter
     id="G"
     color-interpolation-filters="sRGB"
     height="2.439562"
     width="2.100482"
     x="-.550241"
     y="-.719781">
    <feGaussianBlur
       stdDeviation="3.9084235"
       id="feGaussianBlur121" />
  </filter>
  <filter
     id="H"
     color-interpolation-filters="sRGB"
     height="3.309327"
     width="3.671603"
     x="-1.335802"
     y="-1.154663">
    <feGaussianBlur
       stdDeviation="3.9084235"
       id="feGaussianBlur124" />
  </filter>
  <filter
     id="I"
     color-interpolation-filters="sRGB"
     height="3.325226"
     width="2.951175"
     x="-.975587"
     y="-1.162613">
    <feGaussianBlur
       stdDeviation="3.9084235"
       id="feGaussianBlur127" />
  </filter>
  <filter
     id="J"
     color-interpolation-filters="sRGB"
     height="6.885996"
     width="3.160702"
     x="-1.080351"
     y="-2.942998">
    <feGaussianBlur
       stdDeviation="3.9084235"
       id="feGaussianBlur130" />
  </filter>
  <filter
     id="K"
     color-interpolation-filters="sRGB"
     height="2.213699"
     width="1.430317"
     x="-.215158"
     y="-.606849">
    <feGaussianBlur
       stdDeviation="3.9084235"
       id="feGaussianBlur133" />
  </filter>
  <filter
     id="L"
     color-interpolation-filters="sRGB"
     height="2.185171"
     width="2.018197"
     x="-.509098"
     y="-.592585">
    <feGaussianBlur
       stdDeviation="3.9084235"
       id="feGaussianBlur136" />
  </filter>
  <filter
     id="M"
     color-interpolation-filters="sRGB"
     height="3.019521"
     width="2.257273"
     x="-.628636"
     y="-1.00976">
    <feGaussianBlur
       stdDeviation="3.9084235"
       id="feGaussianBlur139" />
  </filter>
  <filter
     id="N"
     color-interpolation-filters="sRGB"
     height="1.954888"
     width="1.878727"
     x="-.439364"
     y="-.477444">
    <feGaussianBlur
       stdDeviation="3.9084235"
       id="feGaussianBlur142" />
  </filter>
  <filter
     id="O"
     color-interpolation-filters="sRGB"
     height="2.379112"
     width="1.809167"
     x="-.404583"
     y="-.689556">
    <feGaussianBlur
       stdDeviation="3.9084235"
       id="feGaussianBlur145" />
  </filter>
  <filter
     id="P"
     color-interpolation-filters="sRGB"
     height="2.752373"
     width="1.872004"
     x="-.436002"
     y="-.876187">
    <feGaussianBlur
       stdDeviation="3.9084235"
       id="feGaussianBlur148" />
  </filter>
  <clipPath
     id="Q">
    <path
       d="m388.30313-28.762096h335.05991v243.39862h-335.05991z"
       id="path151" />
  </clipPath>
  <filter
     id="R"
     color-interpolation-filters="sRGB"
     height="1.579226"
     width="1.344449"
     x="-.172225"
     y="-.289613">
    <feGaussianBlur
       stdDeviation=".4837061"
       id="feGaussianBlur154" />
  </filter>
  <filter
     id="S"
     color-interpolation-filters="sRGB"
     height="1.580422"
     width="1.484263"
     x="-.242131"
     y="-.290211">
    <feGaussianBlur
       stdDeviation="2.9365916"
       id="feGaussianBlur157" />
  </filter>
  <filter
     id="T"
     color-interpolation-filters="sRGB"
     height="1.634819"
     width="1.327399"
     x="-.1637"
     y="-.317409">
    <feGaussianBlur
       stdDeviation=".23018881"
       id="feGaussianBlur160" />
  </filter>
  <rect
     style="opacity:1;fill:#e602b4;fill-opacity:1;fill-rule:nonzero;stroke:none;stroke-width:0.25;stroke-linecap:round;stroke-linejoin:round;stroke-miterlimit:4;stroke-dasharray:none;stroke-dashoffset:0;stroke-opacity:1"
     id="rect7267"
     width="14"
     height="12"
     x="1"
     y="2"
     ry="1.0909091" />
  <rect
     style="opacity:1;fill:#f0e3ec;fill-opacity:1;fill-rule:nonzero;stroke:none;stroke-width:0.25;stroke-linecap:round;stroke-linejoin:round;stroke-miterlimit:4;stroke-dasharray:none;stroke-dashoffset:0;stroke-opacity:1"
     id="rect7269"
     width="12"
     height="10"
     x="2"
     y="3"
     ry="1" />
  <path
     sodipodi:nodetypes="cc"
     inkscape:connector-curvature="0"
     id="path1032"
     d="m 9.4393774,8.088333 c -1.045861,1.258347 -1.6929472,2.527159 -1.9037122,3.807423 0,0 -0.6345702,-1.903712 -1.9037112,-1.903712"
     style="fill:none;stroke:#9d3a9b;stroke-width:0.5;stroke-linecap:butt;stroke-linejoin:miter;stroke-miterlimit:4;stroke-dasharray:none;stroke-opacity:1" />
  <g
     id="g972"
     transform="matrix(-0.51906085,0,0,0.54217485,8.2204334,-0.5409022)"
     style="stroke-width:1.88504267">
    <path
       sodipodi:nodetypes="zczczczczcz"
       inkscape:connector-curvature="0"
       id="path889-3"
       d="m -1.0691253,15.474398 c -1.7253432,0.694682 -2.1784305,-1.384549 -2.1784305,-1.384549 0,0 -0.9172255,2.256017 -2.433258,0.923187 -1.5160326,-1.332829 0.7102425,-2.399878 0.7102425,-2.399878 0,0 -2.5650869,-0.199422 -1.6743485,-1.917427 0.8907385,-1.7180062 2.6173855,-0.09866 2.6173855,-0.09866 0,0 -0.7068845,-2.328595 1.3984543,-2.1082233 2.10533926,0.2203717 0.9073896,2.3389043 0.9073896,2.3389043 0,0 2.17856966,-1.1208121 2.53864166,0.614475 0.36007204,1.735288 -2.05658756,1.544178 -2.05658756,1.544178 0,0 1.89585456,1.793308 0.170511,2.487989 z"
       inkscape:transform-center-y="-0.24122452"
       inkscape:transform-center-x="-0.127413"
       style="fill:#e602b4;fill-opacity:1;stroke:#e602b4;stroke-width:1.88504267;stroke-miterlimit:4;stroke-dasharray:none;stroke-opacity:1" />
    <path
       style="fill:#f3b7d9;fill-opacity:1;stroke:#f3b7d9;stroke-width:1.88504267;stroke-miterlimit:4;stroke-dasharray:none;stroke-opacity:1"
       inkscape:transform-center-x="-0.071351346"
       inkscape:transform-center-y="-0.13508561"
       d="m -1.9141895,13.965599 c -0.9661919,0.38902 -1.2199209,-0.775348 -1.2199209,-0.775348 0,0 -0.5136464,1.263369 -1.3626247,0.516984 -0.8489784,-0.746384 0.3977359,-1.343931 0.3977359,-1.343931 0,0 -1.4364489,-0.111677 -0.9376353,-1.07376 0.4988136,-0.962083 1.465736,-0.05525 1.465736,-0.05525 0,0 -0.3958553,-1.3040132 0.7831346,-1.180605 1.1789897,0.123408 0.5081382,1.309787 0.5081382,1.309787 0,0 1.2199994,-0.627655 1.42163936,0.344106 0.2016406,0.971761 -1.15168886,0.864739 -1.15168886,0.864739 0,0 1.06167886,1.004254 0.095486,1.393275 z"
       id="path836-6"
       inkscape:connector-curvature="0"
       sodipodi:nodetypes="zczczczczcz" />
    <path
       id="path907"
       d="m -1.8023726,12.044505 a 1.1865013,1.1865013 0 0 1 -1.186501,1.186501 1.1865013,1.1865013 0 0 1 -1.186501,-1.186501 1.1865013,1.1865013 0 0 1 1.186501,-1.186501 1.1865013,1.1865013 0 0 1 1.186501,1.186501 z"
       style="fill:#9d3a9b;fill-opacity:1;stroke:none;stroke-width:0.56551278;stroke-miterlimit:4;stroke-dasharray:none;stroke-opacity:1"
       inkscape:connector-curvature="0" />
  </g>
  <g
     style="stroke-width:1.88504267"
     transform="matrix(-0.51906085,0,0,0.54217485,3.541417,2.3428665)"
     id="g1030">
    <path
       style="fill:#e602b4;fill-opacity:1;stroke:#e602b4;stroke-width:1.88504267;stroke-miterlimit:4;stroke-dasharray:none;stroke-opacity:1"
       inkscape:transform-center-x="-0.127413"
       inkscape:transform-center-y="-0.24122452"
       d="m -1.0691253,15.474398 c -1.7253432,0.694682 -2.1784305,-1.384549 -2.1784305,-1.384549 0,0 -0.9172255,2.256017 -2.433258,0.923187 -1.5160326,-1.332829 0.7102425,-2.399878 0.7102425,-2.399878 0,0 -2.5650869,-0.199422 -1.6743485,-1.917427 0.8907385,-1.7180062 2.6173855,-0.09866 2.6173855,-0.09866 0,0 -0.7068845,-2.328595 1.3984543,-2.1082233 2.10533926,0.2203717 0.9073896,2.3389043 0.9073896,2.3389043 0,0 2.17856966,-1.1208121 2.53864166,0.614475 0.36007204,1.735288 -2.05658756,1.544178 -2.05658756,1.544178 0,0 1.89585456,1.793308 0.170511,2.487989 z"
       id="path1024"
       inkscape:connector-curvature="0"
       sodipodi:nodetypes="zczczczczcz" />
    <path
       sodipodi:nodetypes="zczczczczcz"
       inkscape:connector-curvature="0"
       id="path1026"
       d="m -1.9141895,13.965599 c -0.9661919,0.38902 -1.2199209,-0.775348 -1.2199209,-0.775348 0,0 -0.5136464,1.263369 -1.3626247,0.516984 -0.8489784,-0.746384 0.3977359,-1.343931 0.3977359,-1.343931 0,0 -1.4364489,-0.111677 -0.9376353,-1.07376 0.4988136,-0.962083 1.465736,-0.05525 1.465736,-0.05525 0,0 -0.3958553,-1.3040132 0.7831346,-1.180605 1.1789897,0.123408 0.5081382,1.309787 0.5081382,1.309787 0,0 1.2199994,-0.627655 1.42163936,0.344106 0.2016406,0.971761 -1.15168886,0.864739 -1.15168886,0.864739 0,0 1.06167886,1.004254 0.095486,1.393275 z"
       inkscape:transform-center-y="-0.13508561"
       inkscape:transform-center-x="-0.071351346"
       style="fill:#f3b7d9;fill-opacity:1;stroke:#f3b7d9;stroke-width:1.88504267;stroke-miterlimit:4;stroke-dasharray:none;stroke-opacity:1" />
    <path
       inkscape:connector-curvature="0"
       style="fill:#9d3a9b;fill-opacity:1;stroke:none;stroke-width:0.56551278;stroke-miterlimit:4;stroke-dasharray:none;stroke-opacity:1"
       d="m -1.8023726,12.044505 a 1.1865013,1.1865013 0 0 1 -1.186501,1.186501 1.1865013,1.1865013 0 0 1 -1.186501,-1.186501 1.1865013,1.1865013 0 0 1 1.186501,-1.186501 1.1865013,1.1865013 0 0 1 1.186501,1.186501 z"
       id="path1028" />
  </g>
  <g
     transform="matrix(0.87608578,0,0,0.87608578,0.75773372,1.4965444)"
     id="g911"
     style="stroke-width:1.14144075">
    <circle
       style="opacity:1;fill:#f3b7d9;fill-opacity:1;fill-rule:evenodd;stroke:#9d3a9b;stroke-width:1.14144075;stroke-linecap:round;stroke-linejoin:round;stroke-miterlimit:4;stroke-dasharray:none;stroke-opacity:1;paint-order:markers fill stroke"
       id="path891"
       cx="11.69094"
       cy="11.443166"
       r="3.6015363" />
    <g
       id="g883"
       style="fill:#e602b4;stroke:#e602b4;stroke-width:1.93037784"
       transform="matrix(0.59130433,0,0,0.59130433,4.871329,4.7553919)">
      <path
         inkscape:connector-curvature="0"
         id="path877"
         d="M 11.533166,8.4566042 V 14.163808"
         style="fill:#e602b4;stroke:#e602b4;stroke-width:1.93037784px;stroke-linecap:round;stroke-linejoin:miter;stroke-opacity:1" />
      <path
         inkscape:connector-curvature="0"
         id="path879"
         d="M 8.6795638,11.310206 H 14.386768"
         style="fill:#e602b4;stroke:#e602b4;stroke-width:1.93037784px;stroke-linecap:round;stroke-linejoin:miter;stroke-opacity:1" />
    </g>
  </g>
</svg>
