<?xml version="1.0" encoding="UTF-8" standalone="no"?>
<svg
   xmlns:dc="http://purl.org/dc/elements/1.1/"
   xmlns:cc="http://creativecommons.org/ns#"
   xmlns:rdf="http://www.w3.org/1999/02/22-rdf-syntax-ns#"
   xmlns:svg="http://www.w3.org/2000/svg"
   xmlns="http://www.w3.org/2000/svg"
   xmlns:xlink="http://www.w3.org/1999/xlink"
   xmlns:sodipodi="http://sodipodi.sourceforge.net/DTD/sodipodi-0.dtd"
   xmlns:inkscape="http://www.inkscape.org/namespaces/inkscape"
   height="16"
   width="16"
   id="svg2"
   version="1.1"
   inkscape:version="0.91 r13725"
   sodipodi:docname="sc_insertobjectchartfromfile.svg"
   inkscape:export-filename="/home/tamara/Desktop/IKON/5_258 (tamara)/sc (222)/Tanggal 6/sc_insertobjectchartfromfile.png"
   inkscape:export-xdpi="90"
   inkscape:export-ydpi="90">
  <metadata
     id="metadata61">
    <rdf:RDF>
      <cc:Work
         rdf:about="">
        <dc:format>image/svg+xml</dc:format>
        <dc:type
           rdf:resource="http://purl.org/dc/dcmitype/StillImage" />
      </cc:Work>
    </rdf:RDF>
  </metadata>
  <defs
     id="defs59" />
  <sodipodi:namedview
     pagecolor="#ffffff"
     bordercolor="#666666"
     borderopacity="1"
     objecttolerance="10"
     gridtolerance="10"
     guidetolerance="10"
     inkscape:pageopacity="0"
     inkscape:pageshadow="2"
     inkscape:window-width="1366"
     inkscape:window-height="718"
     id="namedview57"
     showgrid="true"
     inkscape:zoom="20.85965"
     inkscape:cx="2.658038"
     inkscape:cy="6.8681415"
     inkscape:window-x="0"
     inkscape:window-y="0"
     inkscape:window-maximized="1"
     inkscape:current-layer="svg2">
    <inkscape:grid
       type="xygrid"
       id="grid4189" />
  </sodipodi:namedview>
  <linearGradient
     id="a"
     gradientUnits="userSpaceOnUse"
     x1="39.738617"
     x2="39.738617"
     xlink:href="#d"
     y1="117.45376"
     y2="15.999665"
     gradientTransform="matrix(0.125,0,0,0.125,0,-8.54e-4)" />
  <linearGradient
     id="b"
     gradientUnits="userSpaceOnUse"
     x1="52.000004"
     x2="52.000004"
     xlink:href="#f"
     y1="92.000015"
     y2="24.000015"
     gradientTransform="matrix(0.125,0,0,0.125,0,-8.54e-4)" />
  <linearGradient
     id="c"
     gradientUnits="userSpaceOnUse"
     x1="31.87549"
     x2="52.465851"
     xlink:href="#h"
     y1="48.071537"
     y2="83.735085"
     gradientTransform="matrix(0.125,0,0,0.125,0,-8.54e-4)" />
  <linearGradient
     id="d"
     gradientUnits="userSpaceOnUse"
     x1="3.9985"
     x2="47.998501"
     y1="60"
     y2="60">
    <stop
       offset="0"
       stop-color="#245795"
       id="stop8" />
    <stop
       offset="1"
       stop-color="#afd4ff"
       id="stop10" />
  </linearGradient>
  <linearGradient
     id="e"
     gradientUnits="userSpaceOnUse"
     x1="79.738617"
     x2="79.738617"
     xlink:href="#d"
     y1="117.45376"
     y2="-8.000272"
     gradientTransform="matrix(0.125,0,0,0.125,0,-8.54e-4)" />
  <linearGradient
     id="f">
    <stop
       offset="0"
       stop-color="#9fbde2"
       id="stop14" />
    <stop
       offset="1"
       stop-color="#fff"
       id="stop16" />
  </linearGradient>
  <linearGradient
     id="g"
     gradientUnits="userSpaceOnUse"
     x1="91.999992"
     x2="91.999992"
     xlink:href="#f"
     y1="83.999969"
     y2="23.999971"
     gradientTransform="matrix(0.125,0,0,0.125,0,-8.54e-4)" />
  <linearGradient
     id="h">
    <stop
       offset="0"
       stop-color="#fff"
       id="stop20" />
    <stop
       offset="1"
       stop-color="#fff"
       stop-opacity="0"
       id="stop22" />
  </linearGradient>
  <linearGradient
     id="i"
     gradientUnits="userSpaceOnUse"
     x1="54.441917"
     x2="87.999992"
     xlink:href="#h"
     y1="17.875681"
     y2="75.999969"
     gradientTransform="matrix(0.125,0,0,0.125,0,-8.54e-4)" />
  <g
     id="g4206">
    <path
       d="m 0,11.999146 2,0 0,1 -2,0 z"
       id="path27"
       inkscape:connector-curvature="0"
       style="fill:#e602b4;fill-opacity:1" />
    <path
       d="m 1.5,-8.54e-4 -0.5,1 -1,2 1,0 0,12 1,0 0,-12 1,0 -1,-2 z"
       id="path31"
       style="opacity:1;fill:#f3b7d9"
       inkscape:connector-curvature="0" />
    <path
       d="m 4,15.999146 0,-2 1,0 0,2 z"
       id="path29"
       style="fill:#e602b4;fill-opacity:1"
       inkscape:connector-curvature="0" />
    <path
       d="m 16,14.499146 -1,0.5 -2,1 0,-1 -11,0 0,-1 11,0 0,-1 2,1 z"
       id="path33"
       style="opacity:1;fill:#f3b7d9"
       inkscape:connector-curvature="0" />
    <g
       transform="matrix(0.125,0,0,0.125,0,-8.54e-4)"
       id="g35"
       style="fill:#787878;fill-opacity:0.61568598">
      <path
         d="m -128,56 16,0 0,8 -16,0 z"
         transform="matrix(0,-1,1,0,0,0)"
         id="path37"
         style="fill:#e602b4;fill-opacity:1"
         inkscape:connector-curvature="0" />
      <path
         d="m -128,80 16,0 0,8 -16,0 z"
         transform="matrix(0,-1,1,0,0,0)"
         id="path39"
         style="fill:#e602b4;fill-opacity:1"
         inkscape:connector-curvature="0" />
      <path
         style="fill:#e602b4;fill-opacity:1"
         d="m 0,72 16,0 0,8 -16,0 z"
         id="path41"
         inkscape:connector-curvature="0" />
      <path
         style="fill:#e602b4;fill-opacity:1"
         d="m 0,48 16,0 0,8 -16,0 z"
         id="path43"
         inkscape:connector-curvature="0" />
    </g>
    <rect
       height="7.9999986"
       rx="0.79549515"
       width="4"
       x="3"
       y="5.999146"
       id="rect45"
       style="fill:#9d3a9b" />
    <rect
       height="6"
       rx="0.22097087"
       width="1.9999998"
       x="4"
       y="6.999146"
       id="rect47"
       style="fill:#f0e3ec" />
    <rect
       height="11"
       rx="0.79549515"
       width="4"
       x="8"
       y="2.999146"
       id="rect51"
       style="fill:#9d3a9b" />
    <rect
       height="9.0000048"
       rx="0.22097087"
       width="2.0000005"
       x="9"
       y="3.999146"
       id="rect53"
       style="fill:#f0e3ec" />
  </g>
</svg>
