<?xml version="1.0" encoding="UTF-8" standalone="no"?>
<svg
   xmlns:dc="http://purl.org/dc/elements/1.1/"
   xmlns:cc="http://creativecommons.org/ns#"
   xmlns:rdf="http://www.w3.org/1999/02/22-rdf-syntax-ns#"
   xmlns:svg="http://www.w3.org/2000/svg"
   xmlns="http://www.w3.org/2000/svg"
   xmlns:xlink="http://www.w3.org/1999/xlink"
   xmlns:sodipodi="http://sodipodi.sourceforge.net/DTD/sodipodi-0.dtd"
   xmlns:inkscape="http://www.inkscape.org/namespaces/inkscape"
   enable-background="new 0 0 128 128"
   height="16"
   viewBox="0 0 16 16"
   width="16"
   id="svg2"
   version="1.1"
   inkscape:version="0.92.4 (unknown)"
   sodipodi:docname="sc_lastpage.svg"
   inkscape:export-filename="/home/tamara/Desktop/IKON/5_258 (tamara)/sc (222)/Tanggal 7-03/sc_lastpage.png"
   inkscape:export-xdpi="90"
   inkscape:export-ydpi="90">
  <metadata
     id="metadata267">
    <rdf:RDF>
      <cc:Work
         rdf:about="">
        <dc:format>image/svg+xml</dc:format>
        <dc:type
           rdf:resource="http://purl.org/dc/dcmitype/StillImage" />
        <dc:title />
      </cc:Work>
    </rdf:RDF>
  </metadata>
  <defs
     id="defs265" />
  <sodipodi:namedview
     pagecolor="#ffffff"
     bordercolor="#666666"
     borderopacity="1"
     objecttolerance="10"
     gridtolerance="10"
     guidetolerance="10"
     inkscape:pageopacity="0"
     inkscape:pageshadow="2"
     inkscape:window-width="1366"
     inkscape:window-height="707"
     id="namedview263"
     showgrid="true"
     inkscape:zoom="29.5"
     inkscape:cx="4.3957219"
     inkscape:cy="7.8644068"
     inkscape:window-x="0"
     inkscape:window-y="0"
     inkscape:window-maximized="1"
     inkscape:current-layer="svg2">
    <inkscape:grid
       type="xygrid"
       id="grid4395" />
  </sodipodi:namedview>
  <radialGradient
     id="a"
     cx="91.793747"
     cy="99.892967"
     gradientUnits="userSpaceOnUse"
     r="105.20497">
    <stop
       offset="0"
       stop-color="#00537d"
       id="stop5" />
    <stop
       offset=".0151"
       stop-color="#186389"
       id="stop7" />
    <stop
       offset=".0558"
       stop-color="#558ca8"
       id="stop9" />
    <stop
       offset=".0964"
       stop-color="#89afc3"
       id="stop11" />
    <stop
       offset=".1357"
       stop-color="#b3ccd8"
       id="stop13" />
    <stop
       offset=".1737"
       stop-color="#d4e2e9"
       id="stop15" />
    <stop
       offset=".2099"
       stop-color="#ecf2f5"
       id="stop17" />
    <stop
       offset=".2435"
       stop-color="#fafcfd"
       id="stop19" />
    <stop
       offset=".2722"
       stop-color="#fff"
       id="stop21" />
  </radialGradient>
  <radialGradient
     id="b"
     cx="113.03709"
     cy="112.88172"
     gradientTransform="matrix(.9787234 0 0 .9818182 -18.638296 -6.836364)"
     gradientUnits="userSpaceOnUse"
     r="139.55859">
    <stop
       offset="0"
       stop-color="#535557"
       id="stop24" />
    <stop
       offset=".11366145"
       stop-color="#898a8c"
       id="stop26" />
    <stop
       offset=".20296688"
       stop-color="#ececec"
       id="stop28" />
    <stop
       offset=".2363"
       stop-color="#fafafa"
       id="stop30" />
    <stop
       offset=".2722"
       stop-color="#fff"
       id="stop32" />
    <stop
       offset=".5313"
       stop-color="#fafafa"
       id="stop34" />
    <stop
       offset=".8449"
       stop-color="#ebecec"
       id="stop36" />
    <stop
       offset="1"
       stop-color="#e1e2e3"
       id="stop38" />
  </radialGradient>
  <linearGradient
     id="c"
     gradientUnits="userSpaceOnUse"
     x1="71.993744"
     x2="55.993748"
     y1="85.496582"
     y2="67.992966">
    <stop
       offset="0"
       id="stop41" />
    <stop
       offset="1"
       stop-color="#555753"
       id="stop43" />
  </linearGradient>
  <linearGradient
     id="d"
     gradientUnits="userSpaceOnUse"
     x1="95"
     x2="87.292999"
     y1="103"
     y2="95.292999">
    <stop
       offset="0"
       stop-color="#fff"
       id="stop46" />
    <stop
       offset="1"
       stop-color="#393b38"
       id="stop48" />
  </linearGradient>
  <linearGradient
     id="e"
     gradientUnits="userSpaceOnUse"
     x1="95.993744"
     x2="79.993744"
     y1="107.99297"
     y2="91.992966">
    <stop
       offset="0"
       stop-color="#888a85"
       id="stop51" />
    <stop
       offset=".06730022"
       stop-color="#8c8e89"
       id="stop53" />
    <stop
       offset=".06730022"
       stop-color="#abaca9"
       id="stop55" />
    <stop
       offset=".1347"
       stop-color="#c5c6c4"
       id="stop57" />
    <stop
       offset=".2115"
       stop-color="#dbdbda"
       id="stop59" />
    <stop
       offset=".3012"
       stop-color="#ebebeb"
       id="stop61" />
    <stop
       offset=".4122"
       stop-color="#f7f7f6"
       id="stop63" />
    <stop
       offset=".5679"
       stop-color="#fdfdfd"
       id="stop65" />
    <stop
       offset="1"
       stop-color="#fff"
       id="stop67" />
  </linearGradient>
  <radialGradient
     id="f"
     cx="71.775223"
     cy="16.0865"
     gradientTransform="matrix(0.9650814,0.2619502,-0.9201984,3.3902106,33.309062,-57.693239)"
     gradientUnits="userSpaceOnUse"
     r="3.15625"
     xlink:href="#j" />
  <radialGradient
     id="g"
     cx="71.775223"
     cy="16.0865"
     gradientTransform="matrix(0.9650814,0.2619502,-0.9201984,3.3902106,17.309062,-57.693239)"
     gradientUnits="userSpaceOnUse"
     r="3.15625"
     xlink:href="#q" />
  <linearGradient
     id="h"
     gradientUnits="userSpaceOnUse"
     x1="121.85139"
     x2="120"
     xlink:href="#p"
     y1="64"
     y2="44" />
  <radialGradient
     id="i"
     cx="114"
     cy="26"
     gradientTransform="matrix(0.7071068,-0.7071068,2.6709373,2.6709373,-36.054544,37.165802)"
     gradientUnits="userSpaceOnUse"
     r="2.5"
     xlink:href="#p" />
  <linearGradient
     id="j">
    <stop
       offset="0"
       stop-color="#fff"
       id="stop74" />
    <stop
       offset="1"
       stop-color="#fff"
       stop-opacity="0"
       id="stop76" />
  </linearGradient>
  <filter
     id="k"
     height="1.598266"
     width="1.90393"
     x="-.451965"
     y="-.299133">
    <feGaussianBlur
       stdDeviation="1.3476562"
       id="feGaussianBlur79" />
  </filter>
  <filter
     id="l"
     height="1.157943"
     width="1.244782"
     x="-.122391"
     y="-.078971">
    <feGaussianBlur
       stdDeviation=".321914"
       id="feGaussianBlur82" />
  </filter>
  <filter
     id="m">
    <feGaussianBlur
       stdDeviation="1.0600355"
       id="feGaussianBlur85" />
  </filter>
  <filter
     id="n">
    <feGaussianBlur
       stdDeviation=".495"
       id="feGaussianBlur88" />
  </filter>
  <linearGradient
     id="o">
    <stop
       offset="0"
       stop-color="#cbff10"
       id="stop91" />
    <stop
       offset="1"
       stop-color="#004d00"
       id="stop93" />
  </linearGradient>
  <linearGradient
     id="p">
    <stop
       offset="0"
       stop-color="#e5ff00"
       id="stop96" />
    <stop
       offset="1"
       stop-color="#e5ff00"
       stop-opacity="0"
       id="stop98" />
  </linearGradient>
  <linearGradient
     id="q">
    <stop
       offset="0"
       stop-color="#f0ff80"
       id="stop101" />
    <stop
       offset="1"
       stop-color="#f0ff80"
       stop-opacity="0"
       id="stop103" />
  </linearGradient>
  <linearGradient
     id="r"
     gradientTransform="matrix(-0.06583333,0,0,0.05762466,8.7666666,2.3129671)"
     gradientUnits="userSpaceOnUse"
     x1="73.739265"
     x2="35.568035"
     xlink:href="#j"
     y1="69.923088"
     y2="48.212151" />
  <linearGradient
     id="s"
     gradientTransform="matrix(-0.06583333,0,0,0.05762466,8.7666666,2.3129671)"
     gradientUnits="userSpaceOnUse"
     x1="63.159035"
     x2="63.159035"
     xlink:href="#j"
     y1="21.171064"
     y2="80.12056" />
  <radialGradient
     id="t"
     cx="11.578125"
     cy="64.53125"
     gradientTransform="matrix(6.5079869,0,0,1.510917,-63.772161,-32.970115)"
     gradientUnits="userSpaceOnUse"
     r="3.578125"
     xlink:href="#j" />
  <linearGradient
     id="u"
     gradientTransform="matrix(-0.06583332,0,0,0.05762466,11.766666,2.3129671)"
     gradientUnits="userSpaceOnUse"
     x1="63.159035"
     x2="63.159035"
     xlink:href="#j"
     y1="21.171064"
     y2="80.12056" />
  <linearGradient
     id="v"
     gradientTransform="matrix(-0.06583332,0,0,0.05762466,11.766666,2.3129671)"
     gradientUnits="userSpaceOnUse"
     x1="73.739265"
     x2="35.568035"
     xlink:href="#j"
     y1="69.923088"
     y2="48.212151" />
  <linearGradient
     id="w"
     gradientTransform="matrix(-0.06583332,0,0,0.05762466,11.766666,2.3129671)"
     gradientUnits="userSpaceOnUse"
     x1="63.159035"
     x2="63.159035"
     y1="21.171064"
     y2="80.12056">
    <stop
       offset="0"
       stop-color="#edffbf"
       id="stop111" />
    <stop
       offset="1"
       stop-color="#edffbf"
       stop-opacity="0"
       id="stop113" />
  </linearGradient>
  <linearGradient
     id="x"
     gradientTransform="matrix(-0.5266666,0,0,0.4609973,94.13333,18.503737)"
     gradientUnits="userSpaceOnUse"
     x1="91.785248"
     x2="91.992706"
     xlink:href="#p"
     y1="112.5"
     y2="44.287056" />
  <radialGradient
     id="y"
     cx="72.222832"
     cy="81.225037"
     fx="75.65107"
     fy="93.974243"
     gradientTransform="matrix(-0.09499681,0,0,0.07982571,7.5962195,0.36555728)"
     gradientUnits="userSpaceOnUse"
     r="50"
     xlink:href="#o" />
  <linearGradient
     id="z"
     gradientTransform="matrix(-0.06583332,0,0,0.05762466,12.029999,2.3129671)"
     gradientUnits="userSpaceOnUse"
     x1="43.799026"
     x2="58.606159"
     y1="32.051865"
     y2="96.363052">
    <stop
       offset="0"
       stop-color="#37a42c"
       id="stop118" />
    <stop
       offset="1"
       stop-color="#bff500"
       id="stop120" />
  </linearGradient>
  <radialGradient
     id="A"
     cx="122.17677"
     cy="53.333336"
     gradientTransform="matrix(2.717484,0.35826501,-0.68363455,1.2553261,-280.99554,-102.72592)"
     gradientUnits="userSpaceOnUse"
     r="2"
     xlink:href="#o" />
  <linearGradient
     id="B"
     gradientTransform="matrix(0.25360551,0,0,0.12477963,-16.427372,-0.4885405)"
     gradientUnits="userSpaceOnUse"
     x1="122.12132"
     x2="122.12132"
     xlink:href="#q"
     y1="24"
     y2="60.048988" />
  <linearGradient
     id="C"
     gradientTransform="matrix(0.25360551,0,0,0.12477963,-16.427372,-0.4885405)"
     gradientUnits="userSpaceOnUse"
     x1="132"
     x2="116"
     xlink:href="#j"
     y1="52"
     y2="28" />
  <filter
     id="D"
     height="1.028862"
     width="1.331226"
     x="-.165613"
     y="-.014431">
    <feGaussianBlur
       stdDeviation=".28982301"
       id="feGaussianBlur126" />
  </filter>
  <filter
     id="E">
    <feGaussianBlur
       stdDeviation=".1159292"
       id="feGaussianBlur129" />
  </filter>
  <linearGradient
     id="F"
     gradientUnits="userSpaceOnUse"
     x1="116"
     x2="124"
     xlink:href="#j"
     y1="29.274029"
     y2="74.399025" />
  <radialGradient
     id="G"
     cx="114"
     cy="26"
     gradientTransform="matrix(0.7071068,-0.7071068,2.6709373,2.6709373,-40.054544,33.165802)"
     gradientUnits="userSpaceOnUse"
     r="2.5"
     xlink:href="#j" />
  <filter
     id="H"
     height="1.499115"
     width="1.499115"
     x="-.249558"
     y="-.249558">
    <feGaussianBlur
       stdDeviation=".4159292"
       id="feGaussianBlur134" />
  </filter>
  <radialGradient
     id="I"
     cx="114"
     cy="26"
     gradientTransform="matrix(0.7071068,-0.7071068,2.6709373,2.6709373,-36.054544,37.165802)"
     gradientUnits="userSpaceOnUse"
     r="2.5"
     xlink:href="#j" />
  <linearGradient
     id="J"
     gradientTransform="matrix(-0.07357842,0,0,0.06732616,12.398774,1.692086)"
     gradientUnits="userSpaceOnUse"
     x1="71.626404"
     x2="46.225941"
     y1="123.73875"
     y2="28.942928">
    <stop
       offset="0"
       stop-color="#003c13"
       id="stop138" />
    <stop
       offset="1"
       stop-color="#43943c"
       id="stop140" />
  </linearGradient>
  <filter
     id="K">
    <feGaussianBlur
       stdDeviation=".40750996"
       id="feGaussianBlur143" />
  </filter>
  <filter
     id="L">
    <feGaussianBlur
       stdDeviation=".4901192"
       id="feGaussianBlur146" />
  </filter>
  <filter
     id="M">
    <feGaussianBlur
       stdDeviation=".90565481"
       id="feGaussianBlur149" />
  </filter>
  <filter
     id="N">
    <feGaussianBlur
       stdDeviation=".50063244"
       id="feGaussianBlur152" />
  </filter>
  <filter
     id="O">
    <feGaussianBlur
       stdDeviation="1.0394514"
       id="feGaussianBlur155" />
  </filter>
  <rect
     style="opacity:1;fill:#f0e3ec;fill-opacity:1;fill-rule:evenodd;stroke:#e602b4;stroke-width:0.99999994;stroke-linecap:round;stroke-linejoin:round;stroke-miterlimit:4;stroke-dasharray:none;stroke-opacity:1;paint-order:markers fill stroke"
     id="rect927"
     width="10.985283"
     height="12.999999"
     x="2.5147171"
     y="1.5"
     rx="0.99999946"
     ry="0.99999964" />
  <path
     style="fill:#9d3a9b;fill-opacity:1;stroke:#9d3a9b;stroke-width:0.24999997;stroke-miterlimit:4;stroke-dasharray:none;stroke-opacity:1"
     id="path2"
     d="m 4.5387131,4.8480825 c 0.031052,-0.3762342 0.2733087,-0.6492209 0.5764338,-0.6492209 0.201953,0 0.3868577,0.1194607 0.4908983,0.3110321 0.103109,-0.1939538 0.2804334,-0.3110321 0.479146,-0.3110321 0.3030838,0 0.5453432,0.2729895 0.5763934,0.6492209 0.00253,0.016578 0.012523,0.1041136 -0.018151,0.2467641 C 6.5992462,5.300613 6.4972835,5.4877201 6.3485561,5.6359236 L 5.6065169,6.3763134 4.8517304,5.6359656 C 4.702993,5.487762 4.6009971,5.3006587 4.5568422,5.0948887 4.5261811,4.9523077 4.5362836,4.8648383 4.5386902,4.8481964 Z m 0.097893,0.2260829 c 0.040298,0.1879001 0.1337471,0.3590851 0.2699476,0.4947513 L 5.606039,6.255099 6.2935221,5.5691343 C 6.4299716,5.4331798 6.5233646,5.2620669 6.5637108,5.0741669 6.5927314,4.9392239 6.580794,4.8629222 6.5807503,4.8624217 l -6.625e-4,-0.00445 C 6.5534581,4.5283571 6.3453601,4.2890148 6.085165,4.2890148 c -0.1919975,0 -0.3610129,0.1296835 -0.4412162,0.3384772 L 5.606222,4.725826 5.5684953,4.627492 C 5.4896034,4.4219394 5.3116413,4.289083 5.1151066,4.289083 c -0.2601596,0 -0.4683291,0.239273 -0.4954879,0.5732116 -8.15e-5,7.213e-4 -0.011955,0.077024 0.017018,0.2119639 z"
     inkscape:connector-curvature="0" />
  <path
     inkscape:connector-curvature="0"
     id="path946"
     d="M 4.7204595,7.1593031 H 11.5"
     style="fill:none;stroke:#e602b4;stroke-width:0.99999994;stroke-linecap:round;stroke-linejoin:miter;stroke-miterlimit:4;stroke-dasharray:none;stroke-opacity:1" />
  <path
     style="fill:none;stroke:#e602b4;stroke-width:0.99999994;stroke-linecap:round;stroke-linejoin:miter;stroke-miterlimit:4;stroke-dasharray:none;stroke-opacity:1"
     d="M 4.7008057,9.0247194 H 11.480346"
     id="path908"
     inkscape:connector-curvature="0" />
  <path
     inkscape:connector-curvature="0"
     id="path910"
     d="M 4.7512022,10.860656 H 11.530743"
     style="fill:none;stroke:#e602b4;stroke-width:0.99999994;stroke-linecap:round;stroke-linejoin:miter;stroke-miterlimit:4;stroke-dasharray:none;stroke-opacity:1" />
  <path
     inkscape:connector-curvature="0"
     id="path203"
     transform="matrix(-0.06024607,0,0,0.05818931,11.986978,2.6169028)"
     style="opacity:0.90526303;fill:none;stroke:#638000;stroke-width:1.05558741;stroke-linejoin:round;filter:url(#m)"
     d="m 87.875,12 c -0.865503,0.02693 -1.698899,0.333976 -2.375,0.875 l -60,48 C 24.550144,61.634129 24,62.784063 24,64 c 0,1.215937 0.550144,2.365871 1.5,3.125 l 60,48 c 1.200963,0.96113 2.832437,1.13525 4.21875,0.46875 C 91.105067,114.92725 92.000642,113.53821 92,112 V 88.3125 78.0625 L 90.5,76.875 C 89.299037,75.91387 87.667563,75.739753 86.28125,76.40625 84.894933,77.072748 83.999358,78.461793 84,80 v 23.6875 L 34.40625,64 84,24.3125 V 48 c -6.42e-4,1.538207 0.894936,2.927253 2.28125,3.59375 1.38631,0.666496 3.017787,0.49238 4.21875,-0.46875 L 92,49.9375 V 39.6875 16 C 92.000417,14.917152 91.558627,13.878821 90.78125,13.125 90.003873,12.37118 88.957323,11.966273 87.875,12 Z" />
  <path
     d="M 3.7631005,2.6669583 C 3.5812449,2.6617725 3.3955685,2.7188305 3.2443746,2.8529842 3.0950372,2.9854906 3.0045998,3.1727572 3.0046874,3.378865 v 1.4595875 0.3291227 0.3040807 1.7350489 0.357742 0.271884 1.4631649 C 3.00455,9.5924439 3.2021413,9.8398687 3.4375553,9.9434314 3.6790799,10.049682 3.9619858,10.025593 4.1816587,9.8647282 L 5.7521463,8.029512 V 9.2994962 C 5.752009,9.592443 5.9496004,9.8398688 6.1850142,9.9434318 6.4265368,10.049681 6.7094465,10.025592 6.9291176,9.8647291 L 10.97518,6.9062014 c 0.178742,-0.1307105 0.289771,-0.3440309 0.289771,-0.5688098 0,-0.2247787 -0.111031,-0.4380996 -0.289771,-0.5688098 L 6.9291176,2.8100551 C 6.8099693,2.7228123 6.659929,2.6712119 6.5105594,2.6669583 6.3287033,2.6617725 6.1430301,2.718827 5.9918334,2.8529842 5.842499,2.9854895 5.7520586,3.1727544 5.7521463,3.378865 V 4.7597492 L 4.1816587,2.8100551 C 4.0625114,2.7228138 3.9124703,2.6712119 3.7631005,2.6669583 Z m 9.2368995,0 c -0.456161,0 -0.837117,0.3809555 -0.837117,0.8371165 v 5.6666338 c 0,0.4561609 0.380956,0.8371174 0.837117,0.8371174 h 1.087536 c 0.456161,0 0.837115,-0.3809565 0.837115,-0.8371174 V 3.5040748 c 0,-0.456161 -0.380954,-0.8371165 -0.837115,-0.8371165 z M 5.5518108,5.5968656 5.7521463,5.7435399 V 6.9312435 L 5.5518108,7.0779177 Z m 2.7474588,0 1.0124099,0.740526 -1.0124099,0.7405261 V 6.8203434 c 0.128333,-0.1301715 0.2182233,-0.296522 0.2182226,-0.4829518 9e-7,-0.1864307 -0.08989,-0.3527814 -0.2182226,-0.4829518 z"
     id="path207"
     style="fill:#9d3a9b;fill-rule:evenodd;stroke-width:1"
     inkscape:connector-curvature="0" />
  <path
     d="M 3.9405507,3.8092471 V 8.8710618 L 6.6859417,6.9478582 V 8.8710618 L 10.299991,6.3401544 6.6859417,3.8092471 v 1.9232036 z"
     id="path213"
     style="fill:#f3b7d9;fill-rule:evenodd;stroke-width:1"
     inkscape:connector-curvature="0" />
  <path
     inkscape:connector-curvature="0"
     style="fill:#f3b7d9;stroke-width:1"
     id="path239"
     d="M 13.071672,3.5996036 H 14 v 5.4811017 h -0.928328 z" />
</svg>
