<?xml version="1.0" encoding="UTF-8" standalone="no"?>
<svg
   xmlns:dc="http://purl.org/dc/elements/1.1/"
   xmlns:cc="http://creativecommons.org/ns#"
   xmlns:rdf="http://www.w3.org/1999/02/22-rdf-syntax-ns#"
   xmlns:svg="http://www.w3.org/2000/svg"
   xmlns="http://www.w3.org/2000/svg"
   xmlns:sodipodi="http://sodipodi.sourceforge.net/DTD/sodipodi-0.dtd"
   xmlns:inkscape="http://www.inkscape.org/namespaces/inkscape"
   enable-background="new 0 0 64 50.576"
   height="16"
   viewBox="0 0 16 12.644"
   width="16"
   version="1.1"
   id="svg35"
   sodipodi:docname="sc_menubar.svg"
   inkscape:version="0.92.4 (unknown)"
   inkscape:export-filename="/home/annisaauliarasyidah/Desktop/4_242 (aulia)/revisi/lc svg/sc_menubar.png"
   inkscape:export-xdpi="96"
   inkscape:export-ydpi="96">
  <metadata
     id="metadata41">
    <rdf:RDF>
      <cc:Work
         rdf:about="">
        <dc:format>image/svg+xml</dc:format>
        <dc:type
           rdf:resource="http://purl.org/dc/dcmitype/StillImage" />
        <dc:title></dc:title>
      </cc:Work>
    </rdf:RDF>
  </metadata>
  <defs
     id="defs39" />
  <sodipodi:namedview
     pagecolor="#ffffff"
     bordercolor="#666666"
     borderopacity="1"
     objecttolerance="10"
     gridtolerance="10"
     guidetolerance="10"
     inkscape:pageopacity="0"
     inkscape:pageshadow="2"
     inkscape:window-width="1366"
     inkscape:window-height="707"
     id="namedview37"
     showgrid="true"
     inkscape:zoom="11.36688"
     inkscape:cx="-0.63868363"
     inkscape:cy="1.8798844"
     inkscape:window-x="0"
     inkscape:window-y="0"
     inkscape:window-maximized="1"
     inkscape:current-layer="svg35"
     inkscape:snap-global="false">
    <inkscape:grid
       type="xygrid"
       id="grid860" />
  </sodipodi:namedview>
  <linearGradient
     id="a"
     gradientUnits="userSpaceOnUse"
     x1="22.0005"
     x2="22.0005"
     y1="38.833"
     y2="14.1477">
    <stop
       offset="0"
       stop-color="#cbcbcd"
       id="stop2" />
    <stop
       offset=".5"
       stop-color="#e0e0e2"
       id="stop4" />
    <stop
       offset="1"
       stop-color="#f2f2f2"
       id="stop6" />
  </linearGradient>
  <g
     id="g824"
     transform="matrix(0.619915,0,0,0.62078894,0.53485567,5.3341506)"
     style="stroke-width:1.61198854">
    <path
       inkscape:connector-curvature="0"
       d="m 8.3765081,-8.1912602 c -1.1683747,-0.9237775 -2.6387978,-0.9327153 -3.4978402,-0.020343 -0.5723271,0.6078575 -0.7533056,1.4873966 -0.4980544,2.3185103 -0.8491473,-0.2140573 -1.6878692,0.00312 -2.2510136,0.601222 -0.8589275,0.9122505 -0.7615833,2.3795259 0.2307775,3.4902276 0.040462,0.052397 0.2634585,0.3192084 0.7600113,0.6125803 0.7161114,0.4233186 1.5423293,0.6223386 2.389387,0.5753957 L 9.7387418,-0.845292 9.7518478,-5.1188542 C 9.7477953,-5.9672453 9.4995773,-6.7801282 9.0338407,-7.4693842 8.7113173,-7.9471896 8.4315182,-8.153282 8.3768965,-8.1910199 Z m 0.3717779,0.9059238 c 0.4253651,0.6293237 0.6520834,1.3734481 0.6556644,2.1502087 L 9.3920222,-1.1744686 5.4739634,-0.959912 C 4.6968753,-0.9168042 3.9408522,-1.0983506 3.2869528,-1.4849503 2.8172202,-1.7624617 2.631957,-2.0047001 2.6306374,-2.0061842 l -0.011092,-0.014071 C 1.7485279,-2.9915965 1.650998,-4.2650825 2.3883786,-5.0482403 2.9324919,-5.6261327 3.7838661,-5.7842188 4.6107113,-5.4610912 L 5,-5.308774 4.82455,-5.6882052 c -0.3666652,-0.7932275 -0.2438326,-1.6880787 0.3131394,-2.2796281 0.737282,-0.7830531 2.0143023,-0.7626824 3.050177,0.058464 0.00234,0.00174 0.2550689,0.1722777 0.5604252,0.624335 z"
       id="path835"
       style="fill:#e602b4;fill-opacity:1;stroke:#e602b4;stroke-width:1.61198854;stroke-linejoin:round;stroke-miterlimit:4;stroke-dasharray:none;stroke-opacity:1" />
    <path
       style="fill:#e602b4;fill-opacity:1;stroke:#e602b4;stroke-width:1.61198854;stroke-linejoin:round;stroke-miterlimit:4;stroke-dasharray:none;stroke-opacity:1"
       id="path853"
       d="m 15.619929,-8.046816 c 1.168375,-0.9237776 2.638798,-0.9327153 3.497841,-0.020343 0.572327,0.6078576 0.753305,1.4873967 0.498054,2.3185104 0.849147,-0.2140573 1.687869,0.00312 2.251014,0.601222 0.858927,0.9122505 0.761583,2.3795259 -0.230778,3.4902276 -0.04046,0.052397 -0.263458,0.3192084 -0.760011,0.6125803 -0.716112,0.4233186 -1.54233,0.6223386 -2.389387,0.5753957 l -4.228966,-0.2316247 -0.01311,-4.2735622 c 0.0041,-0.8483914 0.25227,-1.6612743 0.718007,-2.3505303 0.322523,-0.4778054 0.602322,-0.6838978 0.656944,-0.7216358 z m -0.371777,0.9059238 c -0.425366,0.6293237 -0.652084,1.3734481 -0.655665,2.1502087 l 0.01193,3.9606591 3.918059,0.2145566 c 0.777086,0.043108 1.533109,-0.1384386 2.187009,-0.5250383 0.469732,-0.2775114 0.654995,-0.5197498 0.656315,-0.5212339 l 0.01109,-0.014071 c 0.87102,-0.9713413 0.96855,-2.2448273 0.231169,-3.0279851 -0.544113,-0.5778924 -1.395488,-0.7359785 -2.222333,-0.4128509 l -0.389289,0.1523172 0.175451,-0.3794312 c 0.366665,-0.7932275 0.243832,-1.6880787 -0.31314,-2.2796281 -0.737282,-0.7830531 -2.014302,-0.7626824 -3.050177,0.058464 -0.0023,0.00175 -0.255069,0.1722777 -0.560425,0.624335 z"
       inkscape:connector-curvature="0" />
    <path
       style="fill:#e602b4;fill-opacity:1;stroke:#e602b4;stroke-width:1.61198854;stroke-linejoin:round;stroke-miterlimit:4;stroke-dasharray:none;stroke-opacity:1"
       id="path855"
       d="M 8.464483,11.373821 C 7.2961083,12.297599 5.8256852,12.306537 4.9666428,11.394164 4.3943157,10.786307 4.2133372,9.906767 4.4685884,9.075654 3.6194411,9.289711 2.7807192,9.072537 2.2175748,8.474432 1.3586473,7.562181 1.4559915,6.094906 2.4483523,4.984204 2.4888143,4.931804 2.7118108,4.664996 3.2083636,4.371624 3.924475,3.948305 4.7506929,3.749285 5.5977506,3.796228 l 4.2289661,0.231625 0.013106,4.273562 c -0.00405,0.848392 -0.2522705,1.661274 -0.7180071,2.35053 -0.3225234,0.477806 -0.6023225,0.683898 -0.6569442,0.721636 z M 8.8362609,10.467898 C 9.261626,9.838574 9.4883443,9.09445 9.4919253,8.317689 L 9.4799971,4.35703 5.5619383,4.142473 C 4.7848502,4.099363 4.0288271,4.280912 3.3749277,4.667512 2.9051951,4.945023 2.7199319,5.187261 2.7186123,5.188745 l -0.011092,0.01407 C 1.8365028,6.174157 1.7389729,7.447643 2.4763535,8.230801 3.0204668,8.808693 3.871841,8.966779 4.6986862,8.643651 l 0.3892887,-0.152316 -0.17545,0.379431 c -0.3666652,0.793228 -0.2438326,1.688079 0.3131394,2.279629 0.737282,0.783053 2.0143023,0.762682 3.050177,-0.05846 0.00234,-0.0017 0.2550689,-0.172278 0.5604252,-0.624335 z"
       inkscape:connector-curvature="0" />
    <path
       inkscape:connector-curvature="0"
       d="m 15.707904,11.229377 c 1.168375,0.923778 2.638798,0.932716 3.497841,0.02034 0.572327,-0.607857 0.753305,-1.487396 0.498054,-2.31851 0.849147,0.214057 1.687869,-0.0031 2.251014,-0.601222 C 22.81374,7.417737 22.716396,5.950462 21.724035,4.83976 21.683575,4.78736 21.460577,4.520552 20.964024,4.22718 20.247912,3.803861 19.421694,3.604841 18.574637,3.651784 l -4.228966,0.231625 -0.01311,4.273562 c 0.0041,0.848391 0.25227,1.661274 0.718007,2.35053 0.322523,0.477806 0.602322,0.683898 0.656944,0.721636 z M 15.336127,10.323453 C 14.910761,9.69413 14.684043,8.950005 14.680462,8.173245 l 0.01193,-3.960659 3.918059,-0.214557 c 0.777086,-0.04311 1.533109,0.138439 2.187009,0.525038 0.469732,0.277512 0.654995,0.51975 0.656315,0.521234 l 0.01109,0.01407 c 0.87102,0.971342 0.96855,2.244828 0.231169,3.027985 -0.544113,0.577893 -1.395488,0.735979 -2.222333,0.412851 L 19.084412,8.34689 19.259863,8.726321 c 0.366665,0.793228 0.243832,1.688079 -0.31314,2.279628 -0.737282,0.783053 -2.014302,0.762683 -3.050177,-0.05846 -0.0023,-0.0017 -0.255069,-0.172277 -0.560425,-0.624335 z"
       id="path857"
       style="fill:#e602b4;fill-opacity:1;stroke:#e602b4;stroke-width:1.61198854;stroke-linejoin:round;stroke-miterlimit:4;stroke-dasharray:none;stroke-opacity:1" />
  </g>
</svg>
