<?xml version="1.0" encoding="UTF-8" standalone="no"?>
<svg
   xmlns:dc="http://purl.org/dc/elements/1.1/"
   xmlns:cc="http://creativecommons.org/ns#"
   xmlns:rdf="http://www.w3.org/1999/02/22-rdf-syntax-ns#"
   xmlns:svg="http://www.w3.org/2000/svg"
   xmlns="http://www.w3.org/2000/svg"
   xmlns:sodipodi="http://sodipodi.sourceforge.net/DTD/sodipodi-0.dtd"
   xmlns:inkscape="http://www.inkscape.org/namespaces/inkscape"
   height="16"
   viewBox="0 0 4.2333333 4.2333335"
   width="16"
   version="1.1"
   id="svg42"
   sodipodi:docname="sc_macrorecorder.svg"
   inkscape:export-filename="/home/annisaauliarasyidah/Desktop/4_242 (aulia)/sc 222/sc_macrorecorder.png"
   inkscape:export-xdpi="96"
   inkscape:export-ydpi="96"
   inkscape:version="0.92.4 (unknown)">
  <metadata
     id="metadata48">
    <rdf:RDF>
      <cc:Work
         rdf:about="">
        <dc:format>image/svg+xml</dc:format>
        <dc:type
           rdf:resource="http://purl.org/dc/dcmitype/StillImage" />
        <dc:title />
      </cc:Work>
    </rdf:RDF>
  </metadata>
  <defs
     id="defs46" />
  <sodipodi:namedview
     pagecolor="#ffffff"
     bordercolor="#666666"
     borderopacity="1"
     objecttolerance="10"
     gridtolerance="10"
     guidetolerance="10"
     inkscape:pageopacity="0"
     inkscape:pageshadow="2"
     inkscape:window-width="1366"
     inkscape:window-height="707"
     id="namedview44"
     showgrid="true"
     inkscape:zoom="20.85965"
     inkscape:cx="5.6650166"
     inkscape:cy="11.718523"
     inkscape:window-x="0"
     inkscape:window-y="0"
     inkscape:window-maximized="1"
     inkscape:current-layer="g830">
    <inkscape:grid
       type="xygrid"
       id="grid826" />
  </sodipodi:namedview>
  <filter
     id="a"
     color-interpolation-filters="sRGB"
     height="1.0168"
     width="1.0168"
     x="-.0084"
     y="-.0084">
    <feGaussianBlur
       stdDeviation=".050000868"
       id="feGaussianBlur2" />
  </filter>
  <clipPath
     id="b">
    <path
       d="m9.5933918 111.19854-.4711621 1.3139v.0218l.2786801 1.27958a.22777108.22777108 0 0 1 -.136411.25943l-1.5306499.62348a.22777108.22777108 0 0 1 -.2753328-.0845l-.7372894-1.10552a.22777108.22777108 0 0 1 -.0008389-.002l-.021759-.0318-1.2151468-.58246-.5933465.59334.5833039 1.21515.033475.0226 1.1046788.73645a.22777108.22777108 0 0 1 .084525.27533l-.6234741 1.53065a.22777108.22777108 0 0 1 -.2594321.13641l-1.279583-.27868h-.020922l-1.3138984.47117v.81344l1.3138984.47116h.020922l1.2795866-.27847a.22777108.22777108 0 0 1 .2594321.13641l.6234741 1.53065a.22777108.22777108 0 0 1 -.084525.27534l-1.1046788.73729a.22777108.22777108 0 0 1 -.00168.00086l-.031802.0218-.5833039 1.21432.5933465.59418 1.2151467-.5833.021759-.0318a.22777108.22777108 0 0 1 .0008389-.002l.7372894-1.10551a.22777108.22777108 0 0 1 .2753328-.0845l1.5306499.62348a.22777108.22777108 0 0 1 .136411.25943l-.2786801 1.27959v.0218l.4711621 1.3139h.8134447l.471163-1.3139v-.0218l-.27868-1.27959a.22777108.22777108 0 0 1 .136411-.25943l1.530649-.62348a.22777108.22777108 0 0 1 .275333.0845l.736453 1.10551.02259.0335 1.215147.5833.594183-.59418-.583304-1.21432-.0318-.0218a.22777108.22777108 0 0 1 -.0017-.00086l-1.105515-.73729a.22777108.22777108 0 0 1 -.08452-.27534l.623474-1.53065a.22777108.22777108 0 0 1 .259432-.13641l1.279587.27868h.02176l1.313899-.47116v-.81344l-1.313899-.47117h-.02176l-1.279587.27868a.22777108.22777108 0 0 1 -.25944-.13641l-.623474-1.53065a.22777108.22777108 0 0 1 .08453-.27533l1.105515-.73645.03348-.0226.583304-1.21515-.594184-.59335-1.215146.58247-.02259.0335-.736453 1.10552a.22777108.22777108 0 0 1 -.275333.0845l-1.530649-.62347a.22777108.22777108 0 0 1 -.136411-.25943l.27868-1.27959v-.0218l-.471162-1.3139zm.4067232 4.64635c1.184509 0 2.15496.97153 2.15496 2.15496-.000011 1.18338-.970446 2.15496-2.15496 2.15496-1.1845114 0-2.1549612-.97157-2.1549612-2.15496 0-1.18346.9704589-2.15496 2.1549612-2.15496z"
       id="path5" />
  </clipPath>
  <radialGradient
     id="c"
     cx="63.75"
     cy="63.875"
     gradientTransform="matrix(.16266285 0 0 .16266287 6.563576 6.543234)"
     gradientUnits="userSpaceOnUse"
     r="24.25"
     spreadMethod="pad">
    <stop
       offset="0"
       stop-color="#f40000"
       stop-opacity=".941176"
       id="stop8" />
    <stop
       offset="1"
       stop-color="#cb0006"
       id="stop10" />
  </radialGradient>
  <linearGradient
     id="d"
     gradientUnits="userSpaceOnUse"
     x1="12.700234"
     x2="21.166649"
     y1="15.34587"
     y2="15.34587">
    <stop
       offset="0"
       stop-color="#fff"
       id="stop13" />
    <stop
       offset=".80000001"
       stop-color="#fff"
       stop-opacity="0"
       id="stop15" />
  </linearGradient>
  <g
     id="g830">
    <path
       style="fill:#f0e3ec;fill-opacity:1;stroke:#e602b4;stroke-width:0.26458335;stroke-linecap:round;stroke-linejoin:round;stroke-miterlimit:4;stroke-dasharray:none"
       id="path20"
       d="M 2.014377,0.40617209 1.8958808,0.73661472 v 0.005475 L 1.965968,1.0639023 a 0.05728386,0.05728386 0 0 1 -0.034307,0.065245 L 1.5467065,1.2859501 A 0.05728386,0.05728386 0 0 1 1.477461,1.264693 L 1.2920345,0.98665612 a 0.05728386,0.05728386 0 0 1 -2.101e-4,-4.312e-4 l -0.00547,-0.008 -0.30560639,-0.14648844 -0.14922519,0.14922454 0.14669951,0.30560668 0.008419,0.00568 0.27782397,0.1852161 a 0.05728386,0.05728386 0 0 1 0.021258,0.069244 l -0.1568056,0.384956 a 0.05728386,0.05728386 0 0 1 -0.065247,0.034308 L 0.74185909,1.8958865 h -0.005262 L 0.40615506,2.0143827 v 0.2045788 l 0.33044222,0.1184962 h 0.005262 L 1.0636718,2.2673705 a 0.05728386,0.05728386 0 0 1 0.065247,0.034307 l 0.1568019,0.3849558 a 0.05728386,0.05728386 0 0 1 -0.021258,0.069245 l -0.27782349,0.185426 a 0.05728386,0.05728386 0 0 1 -4.2135e-4,2.155e-4 l -0.007998,0.00547 -0.14669952,0.3053966 0.1492252,0.1494358 0.30560636,-0.1466997 0.00547,-0.008 A 0.05728386,0.05728386 0 0 1 1.292032,3.2466913 L 1.4774605,2.9686664 a 0.05728386,0.05728386 0 0 1 0.069246,-0.021258 l 0.3849547,0.1568023 a 0.05728386,0.05728386 0 0 1 0.034307,0.065246 l -0.070087,0.3218131 v 0.00547 L 2.0143775,3.827185 H 2.218956 L 2.3374522,3.4967446 v -0.00547 L 2.2673647,3.1694572 a 0.05728386,0.05728386 0 0 1 0.034307,-0.065246 L 2.6866261,2.9474084 a 0.05728386,0.05728386 0 0 1 0.069246,0.021258 L 2.9410881,3.2467 2.9467681,3.25512 3.2523746,3.4018181 3.4018103,3.2523823 3.2551109,2.9469857 l -0.008,-0.00547 a 0.05728386,0.05728386 0 0 1 -4.163e-4,-2.22e-4 L 2.96866,2.7558675 A 0.05728386,0.05728386 0 0 1 2.9474023,2.6866216 L 3.1042045,2.3016664 a 0.05728386,0.05728386 0 0 1 0.065246,-0.034307 l 0.3218128,0.070087 h 0.00547 L 3.8271783,2.2189507 V 2.014372 L 3.4967361,1.8958757 h -0.00547 l -0.321815,0.070087 A 0.05728386,0.05728386 0 0 1 3.1042044,1.931656 L 2.9474022,1.5467009 a 0.05728386,0.05728386 0 0 1 0.021258,-0.069245 l 0.2780343,-0.185216 0.00842,-0.00568 L 3.4018136,0.98095462 3.2523779,0.83173 2.9467716,0.97821852 2.9410929,0.98663812 2.755877,1.2646727 a 0.05728386,0.05728386 0 0 1 -0.069246,0.021257 L 2.301673,1.129124 A 0.05728386,0.05728386 0 0 1 2.267366,1.063879 L 2.337453,0.74206601 v -0.005475 L 2.2189571,0.40614838 Z M 2.1166667,1.5747169 c 0.2979013,0 0.5419675,0.2443395 0.5419675,0.5419676 -3e-6,0.2976183 -0.2440651,0.5419666 -0.5419675,0.5419666 -0.2979015,0 -0.5419674,-0.2443472 -0.5419674,-0.5419666 0,-0.2976356 0.2440682,-0.5419676 0.5419674,-0.5419676 z"
       inkscape:connector-curvature="0" />
    <g
       style="fill:#d30404;fill-opacity:1"
       id="g40"
       transform="scale(.125)">
      <ellipse
         style="fill:#d30404;fill-opacity:1"
         id="ellipse36"
         ry="3.944575"
         rx="3.944574"
         fill-rule="evenodd"
         fill="url(#c)"
         cy="16.933331"
         cx="16.933332" />
    </g>
  </g>
</svg>
