<?xml version="1.0" encoding="UTF-8" standalone="no"?>
<svg
   xmlns:dc="http://purl.org/dc/elements/1.1/"
   xmlns:cc="http://creativecommons.org/ns#"
   xmlns:rdf="http://www.w3.org/1999/02/22-rdf-syntax-ns#"
   xmlns:svg="http://www.w3.org/2000/svg"
   xmlns="http://www.w3.org/2000/svg"
   xmlns:sodipodi="http://sodipodi.sourceforge.net/DTD/sodipodi-0.dtd"
   xmlns:inkscape="http://www.inkscape.org/namespaces/inkscape"
   height="16"
   viewBox="0 0 4.2333333 4.2333335"
   width="16"
   version="1.1"
   id="svg101"
   sodipodi:docname="lc_moduledialog.svg"
   inkscape:version="0.92.4 (unknown)"
   inkscape:export-filename="/home/annisaauliarasyidah/Desktop/4_242 (aulia)/revisi/sc svg/sc_moduledialog.png"
   inkscape:export-xdpi="96"
   inkscape:export-ydpi="96">
  <metadata
     id="metadata107">
    <rdf:RDF>
      <cc:Work
         rdf:about="">
        <dc:format>image/svg+xml</dc:format>
        <dc:type
           rdf:resource="http://purl.org/dc/dcmitype/StillImage" />
        <dc:title></dc:title>
      </cc:Work>
    </rdf:RDF>
  </metadata>
  <defs
     id="defs105" />
  <sodipodi:namedview
     pagecolor="#ffffff"
     bordercolor="#666666"
     borderopacity="1"
     objecttolerance="10"
     gridtolerance="10"
     guidetolerance="10"
     inkscape:pageopacity="0"
     inkscape:pageshadow="2"
     inkscape:window-width="1366"
     inkscape:window-height="707"
     id="namedview103"
     showgrid="true"
     inkscape:snap-global="false"
     inkscape:zoom="16.075194"
     inkscape:cx="-2.2884557"
     inkscape:cy="5.7468462"
     inkscape:window-x="0"
     inkscape:window-y="0"
     inkscape:window-maximized="1"
     inkscape:current-layer="g890">
    <inkscape:grid
       type="xygrid"
       id="grid872" />
  </sodipodi:namedview>
  <linearGradient
     id="a"
     gradientUnits="userSpaceOnUse"
     x1="102.30765"
     x2="106.01008"
     y1="39.141762"
     y2="209.45338">
    <stop
       offset="0"
       stop-color="#99999c"
       id="stop2" />
    <stop
       offset=".5"
       stop-color="#9c9ca1"
       id="stop4" />
    <stop
       offset="1"
       stop-color="#cdcdd1"
       id="stop6" />
  </linearGradient>
  <linearGradient
     id="b"
     gradientUnits="userSpaceOnUse"
     x1="78.610847"
     x2="120.3435"
     y1="88.852417"
     y2="111.54715">
    <stop
       offset="0"
       stop-color="#fff"
       id="stop9" />
    <stop
       offset="1"
       stop-color="#ccc"
       id="stop11" />
  </linearGradient>
  <linearGradient
     id="c"
     gradientUnits="userSpaceOnUse"
     x1="88.38102"
     x2="130.48599"
     y1="1008.9966"
     y2="1015.6953">
    <stop
       offset="0"
       stop-color="#7b7b7b"
       id="stop14" />
    <stop
       offset="1"
       stop-color="#797979"
       stop-opacity="0"
       id="stop16" />
  </linearGradient>
  <clipPath
     id="d">
    <path
       d="M 41.355614,933.74432 H 125.29961 V 1051.266 H 41.355614 Z"
       id="path19"
       inkscape:connector-curvature="0" />
  </clipPath>
  <filter
     id="e"
     height="1.073732"
     width="1.13754"
     x="-0.068769999"
     y="-0.036866002"
     style="color-interpolation-filters:sRGB">
    <feGaussianBlur
       stdDeviation="1.0557314"
       id="feGaussianBlur22" />
  </filter>
  <linearGradient
     id="f"
     gradientUnits="userSpaceOnUse"
     x1="98.40847"
     x2="115.25523"
     y1="30.758501"
     y2="77.140503">
    <stop
       offset="0"
       stop-color="#fff"
       stop-opacity=".683453"
       id="stop25" />
    <stop
       offset="1"
       stop-color="#fff"
       stop-opacity="0"
       id="stop27" />
  </linearGradient>
  <linearGradient
     id="g"
     gradientTransform="matrix(0.58291629,0,0,0.66676377,62.177025,-566.68964)"
     gradientUnits="userSpaceOnUse"
     x1="63.011921"
     x2="63.011921"
     y1="945.89801"
     y2="1033.1569">
    <stop
       offset="0"
       stop-color="#545454"
       stop-opacity=".988"
       id="stop30" />
    <stop
       offset="1"
       stop-color="#ebebeb"
       id="stop32" />
  </linearGradient>
  <linearGradient
     id="h"
     gradientTransform="matrix(0.48045402,0,0,0.66178602,128.73476,-578.51587)"
     gradientUnits="userSpaceOnUse"
     x1="-60.535713"
     x2="-60.357143"
     y1="979.50507"
     y2="1009.505">
    <stop
       offset="0"
       stop-color="#979797"
       id="stop35" />
    <stop
       offset=".148461"
       stop-color="#f6f6f6"
       id="stop37" />
    <stop
       offset=".28399727"
       stop-color="#e2e2e2"
       id="stop39" />
    <stop
       offset=".41198727"
       stop-color="#dedede"
       id="stop41" />
    <stop
       offset=".41198727"
       stop-color="#f6f6f6"
       id="stop43" />
    <stop
       offset="1"
       stop-color="#6b6b6b"
       id="stop45" />
  </linearGradient>
  <linearGradient
     id="i"
     gradientTransform="matrix(0.480454,0,0,0.58309338,128.76683,499.76645)"
     gradientUnits="userSpaceOnUse"
     x1="-61.078979"
     x2="-60.6413"
     y1="-1056.658"
     y2="-1010.9131">
    <stop
       offset="0"
       stop-color="#777"
       id="stop48" />
    <stop
       offset=".18176934"
       stop-color="#a8a8a8"
       id="stop50" />
    <stop
       offset=".22864534"
       stop-color="#cdcdcd"
       id="stop52" />
    <stop
       offset=".34561315"
       stop-color="#f7f7f7"
       id="stop54" />
    <stop
       offset="1"
       stop-color="#fff"
       id="stop56" />
  </linearGradient>
  <filter
     id="j"
     height="1.0168"
     width="1.0168"
     x="-0.0083999997"
     y="-0.0083999997"
     style="color-interpolation-filters:sRGB">
    <feGaussianBlur
       stdDeviation=".050000868"
       id="feGaussianBlur59" />
  </filter>
  <clipPath
     id="k">
    <path
       d="m 9.5933918,111.19854 -0.4711621,1.3139 v 0.0218 l 0.2786801,1.27958 a 0.22777108,0.22777108 0 0 1 -0.136411,0.25943 l -1.5306499,0.62348 a 0.22777108,0.22777108 0 0 1 -0.2753328,-0.0845 l -0.7372894,-1.10552 a 0.22777108,0.22777108 0 0 1 -8.389e-4,-0.002 l -0.021759,-0.0318 -1.2151468,-0.58246 -0.5933465,0.59334 0.5833039,1.21515 0.033475,0.0226 1.1046788,0.73645 a 0.22777108,0.22777108 0 0 1 0.084525,0.27533 l -0.6234741,1.53065 A 0.22777108,0.22777108 0 0 1 5.813212,117.40038 L 4.533629,117.1217 H 4.512707 l -1.3138984,0.47117 v 0.81344 l 1.3138984,0.47116 H 4.533629 L 5.8132156,118.599 a 0.22777108,0.22777108 0 0 1 0.2594321,0.13641 l 0.6234741,1.53065 a 0.22777108,0.22777108 0 0 1 -0.084525,0.27534 l -1.1046788,0.73729 a 0.22777108,0.22777108 0 0 1 -0.00168,8.6e-4 l -0.031802,0.0218 -0.5833039,1.21432 0.5933465,0.59418 1.2151467,-0.5833 0.021759,-0.0318 a 0.22777108,0.22777108 0 0 1 8.389e-4,-0.002 l 0.7372894,-1.10551 a 0.22777108,0.22777108 0 0 1 0.2753328,-0.0845 l 1.5306499,0.62348 a 0.22777108,0.22777108 0 0 1 0.136411,0.25943 l -0.2786801,1.27959 v 0.0218 l 0.4711621,1.3139 h 0.8134447 l 0.471163,-1.3139 v -0.0218 l -0.27868,-1.27959 a 0.22777108,0.22777108 0 0 1 0.136411,-0.25943 l 1.530649,-0.62348 a 0.22777108,0.22777108 0 0 1 0.275333,0.0845 l 0.736453,1.10551 0.02259,0.0335 1.215147,0.5833 0.594183,-0.59418 -0.583304,-1.21432 -0.0318,-0.0218 a 0.22777108,0.22777108 0 0 1 -0.0017,-8.6e-4 l -1.105515,-0.73729 a 0.22777108,0.22777108 0 0 1 -0.08452,-0.27534 l 0.623474,-1.53065 a 0.22777108,0.22777108 0 0 1 0.259432,-0.13641 l 1.279587,0.27868 h 0.02176 l 1.313899,-0.47116 v -0.81344 l -1.313899,-0.47117 h -0.02176 l -1.279587,0.27868 a 0.22777108,0.22777108 0 0 1 -0.25944,-0.13641 l -0.623474,-1.53065 a 0.22777108,0.22777108 0 0 1 0.08453,-0.27533 l 1.105515,-0.73645 0.03348,-0.0226 0.583304,-1.21515 -0.594184,-0.59335 -1.215146,0.58247 -0.02259,0.0335 -0.736453,1.10552 a 0.22777108,0.22777108 0 0 1 -0.275333,0.0845 l -1.530649,-0.62347 a 0.22777108,0.22777108 0 0 1 -0.136411,-0.25943 l 0.27868,-1.27959 v -0.0218 l -0.471162,-1.3139 z m 0.4067232,4.64635 c 1.184509,0 2.15496,0.97153 2.15496,2.15496 -1.1e-5,1.18338 -0.970446,2.15496 -2.15496,2.15496 -1.1845114,0 -2.1549612,-0.97157 -2.1549612,-2.15496 0,-1.18346 0.9704589,-2.15496 2.1549612,-2.15496 z"
       id="path62"
       inkscape:connector-curvature="0" />
  </clipPath>
  <path
     style="fill:#f0f0f0;stroke:#e602b4;stroke-width:0.26458335;stroke-linecap:round;stroke-linejoin:round;stroke-miterlimit:4;stroke-dasharray:none"
     inkscape:connector-curvature="0"
     d="M 2.034286,0.35352985 1.9136393,0.69000693 v 0.005573 L 1.9849983,1.02327 a 0.05832356,0.05832997 0 0 1 -0.03493,0.066437 L 1.5581274,1.2493741 A 0.05832356,0.05832997 0 0 1 1.4876251,1.2277287 L 1.2988332,0.94461448 a 0.05832356,0.05832997 0 0 1 -2.14e-4,-4.3897e-4 L 1.2930462,0.93603357 0.9818931,0.78686996 0.82995954,0.93881964 0.97932157,1.2500072 0.98789355,1.2557928 1.27076,1.4443912 a 0.05832356,0.05832997 0 0 1 0.021644,0.070509 L 1.1327552,1.9068826 a 0.05832356,0.05832997 0 0 1 -0.066431,0.034934 L 0.73867215,1.870449 h -0.005357 L 0.39687501,1.9911092 v 0.2083146 l 0.33643968,0.1206601 h 0.005357 L 1.0663259,2.2487167 a 0.05832356,0.05832997 0 0 1 0.066431,0.034934 L 1.292405,2.6756356 a 0.05832356,0.05832997 0 0 1 -0.021644,0.07051 L 0.98789468,2.934958 a 0.05832356,0.05832997 0 0 1 -4.2904e-4,2.195e-4 l -0.008143,0.00558 -0.14936202,0.3109737 0.15193356,0.1521648 0.31115312,-0.1493787 0.00557,-0.00814 A 0.05832356,0.05832997 0 0 1 1.298834,3.2459352 L 1.4876246,2.9628196 a 0.05832356,0.05832997 0 0 1 0.070502,-0.021646 l 0.3919415,0.1596658 a 0.05832356,0.05832997 0 0 1 0.03493,0.066438 l -0.071359,0.3276899 v 0.00558 L 2.0342856,3.8370191 H 2.2425782 L 2.363225,3.5005431 v -0.00558 L 2.2918655,3.1672772 a 0.05832356,0.05832997 0 0 1 0.03493,-0.066438 L 2.7187368,2.9411731 a 0.05832356,0.05832997 0 0 1 0.070502,0.021646 l 0.1885776,0.2831111 0.00579,0.00857 0.3111496,0.149379 0.1521479,-0.1521648 -0.1493621,-0.3109736 -0.00814,-0.00557 A 0.05832356,0.05832997 0 0 1 3.28897,2.934947 L 3.0058891,2.7461347 a 0.05832356,0.05832997 0 0 1 -0.021644,-0.07051 L 3.1438937,2.2836393 a 0.05832356,0.05832997 0 0 1 0.066431,-0.034934 l 0.3276537,0.071367 h 0.00557 l 0.3364382,-0.12066 V 1.9910981 L 3.5435497,1.870438 h -0.00557 L 3.2103245,1.9418053 A 0.05832356,0.05832997 0 0 1 3.1438937,1.9068716 L 2.9842456,1.5148866 a 0.05832356,0.05832997 0 0 1 0.021644,-0.070509 L 3.2889702,1.255779 3.2975421,1.2499965 3.4469042,0.93880898 3.2947563,0.7868593 2.9836032,0.93602292 2.9778171,0.94459285 2.7892395,1.2277049 A 0.05832356,0.05832997 0 0 1 2.7187371,1.24935 L 2.3267956,1.0896844 a 0.05832356,0.05832997 0 0 1 -0.03493,-0.066437 l 0.07136,-0.32769024 v -0.005573 L 2.2425792,0.35350571 Z M 2.1384324,1.5434142 c 0.3033081,0 0.551804,0.2488017 0.551804,0.5518649 -3e-6,0.3030533 -0.2484948,0.5518638 -0.551804,0.5518638 -0.3033085,0 -0.551804,-0.2488094 -0.551804,-0.5518638 0,-0.3030709 0.2484978,-0.5518649 0.551804,-0.5518649 z"
     id="path67" />
  <g
     style="stroke-width:1.59526408"
     transform="matrix(0.16586259,0,0,0.16584844,0.16694287,0.09865866)"
     id="g890">
    <rect
       ry="2.3929982"
       rx="2.3927939"
       y="8.5102797"
       x="13.561262"
       height="13.98972"
       width="8.8956928"
       id="rect887"
       style="opacity:1;fill:#f0e3ec;fill-opacity:1;fill-rule:evenodd;stroke:#e602b4;stroke-width:1.59526384;stroke-linecap:round;stroke-linejoin:round;stroke-miterlimit:4;stroke-dasharray:none;stroke-opacity:1;paint-order:markers fill stroke" />
    <rect
       style="opacity:1;fill:#f3b7d9;fill-opacity:1;fill-rule:evenodd;stroke:#e602b4;stroke-width:1.59526396;stroke-linecap:round;stroke-linejoin:round;stroke-miterlimit:4;stroke-dasharray:none;stroke-opacity:1;paint-order:markers fill stroke"
       id="rect891"
       width="4.9999995"
       height="9"
       x="15.5"
       y="11.5"
       rx="1.6981599"
       ry="1.4998211" />
    <path
       d="m 18.420669,14.186417 a 0.41698554,0.41131407 0 0 1 -0.414596,0.411307 0.41698554,0.41131407 0 0 1 -0.419348,-0.406593 0.41698554,0.41131407 0 0 1 0.40979,-0.415968 0.41698554,0.41131407 0 0 1 0.424044,0.401826 l -0.416876,0.0094 z"
       sodipodi:end="6.2602636"
       sodipodi:start="0"
       sodipodi:ry="0.41131407"
       sodipodi:rx="0.41698554"
       sodipodi:cy="14.186417"
       sodipodi:cx="18.003683"
       sodipodi:type="arc"
       id="path895"
       style="opacity:1;fill:none;fill-opacity:1;fill-rule:evenodd;stroke:#9d3a9b;stroke-width:1.59526408;stroke-linecap:round;stroke-linejoin:round;stroke-miterlimit:4;stroke-dasharray:none;stroke-opacity:1;paint-order:markers fill stroke" />
    <path
       inkscape:connector-curvature="0"
       id="path897"
       d="m 17.948085,16.687806 v 1.857632"
       style="fill:none;stroke:#e602b4;stroke-width:1.59526408px;stroke-linecap:round;stroke-linejoin:round;stroke-opacity:1" />
  </g>
</svg>
