<?xml version="1.0" encoding="UTF-8" standalone="no"?>
<svg
   xmlns:dc="http://purl.org/dc/elements/1.1/"
   xmlns:cc="http://creativecommons.org/ns#"
   xmlns:rdf="http://www.w3.org/1999/02/22-rdf-syntax-ns#"
   xmlns:svg="http://www.w3.org/2000/svg"
   xmlns="http://www.w3.org/2000/svg"
   xmlns:xlink="http://www.w3.org/1999/xlink"
   xmlns:sodipodi="http://sodipodi.sourceforge.net/DTD/sodipodi-0.dtd"
   xmlns:inkscape="http://www.inkscape.org/namespaces/inkscape"
   height="16"
   viewBox="0 0 16 16"
   width="16"
   version="1.1"
   id="svg145"
   sodipodi:docname="lc_open.svg"
   inkscape:version="0.92.4 (unknown)"
   inkscape:export-filename="/home/annisaauliarasyidah/Desktop/4_242 (aulia)/revisi/sc svg/sc_open.png"
   inkscape:export-xdpi="96"
   inkscape:export-ydpi="96">
  <metadata
     id="metadata151">
    <rdf:RDF>
      <cc:Work
         rdf:about="">
        <dc:format>image/svg+xml</dc:format>
        <dc:type
           rdf:resource="http://purl.org/dc/dcmitype/StillImage" />
        <dc:title></dc:title>
      </cc:Work>
    </rdf:RDF>
  </metadata>
  <defs
     id="defs149">
    <linearGradient
       id="linearGradient1015"
       gradientUnits="userSpaceOnUse"
       x1="55"
       x2="55"
       y1="1036.4132"
       y2="1032.4822">
      <stop
         offset="0"
         stop-color="#003d7b"
         id="stop32-3" />
      <stop
         offset="1"
         stop-color="#003d7b"
         stop-opacity="0"
         id="stop34-6" />
    </linearGradient>
    <filter
       style="color-interpolation-filters:sRGB"
       id="h-7"
       height="1.697208"
       width="1.0278879"
       x="-0.013944"
       y="-0.34860399">
      <feGaussianBlur
         stdDeviation=".70882694"
         id="feGaussianBlur37-5" />
    </filter>
    <mask
       id="m-3"
       maskUnits="userSpaceOnUse">
      <path
         style="fill:url(#n-5)"
         inkscape:connector-curvature="0"
         d="m -83.999999,4 c -3.273853,0.017276 -5.375768,0.1739184 -8.625,0.625 -0.96195,0.153184 -1.75,0.7805494 -1.75,1.75 l -0.59375,9.4375 c -0.08851,0.955194 -0.756643,1.58433 -1.46875,1.8125 -0.02183,0.007 -0.0406,0.02503 -0.0625,0.03125 -4.116841,1.105169 -8.022931,2.722102 -11.625001,4.8125 -0.65155,0.281931 -1.49213,0.264937 -2.1875,-0.3125 l -7.09375,-6.25 c -0.6855,-0.685498 -1.68023,-0.57188 -2.46875,0 -2.61651,1.978592 -4.23532,3.353505 -6.5625,5.65625 -2.30274,2.327183 -3.67766,3.945984 -5.65625,6.5625 -0.57188,0.788521 -0.6855,1.783252 0,2.46875 l 6.25,7.09375 c 0.47372,0.570479 0.7362,1.308846 0.46875,1.84375 l -0.0625,0.125 c -2.24552,3.7996 -3.99486,7.936313 -5.125,12.3125 -0.0118,0.02064 -0.0187,0.04216 -0.0312,0.0625 -0.31721,0.512841 -0.85539,0.931584 -1.59375,1 l -9.4375,0.59375 c -0.96944,0 -1.59681,0.78805 -1.75,1.75 -0.45108,3.249232 -0.60772,5.351147 -0.625,8.625 0.0173,3.273853 0.17392,5.375768 0.625,8.625 0.15319,0.961946 0.78056,1.75 1.75,1.75 l 9.4375,0.59375 c 0.86735,0.08037 1.44344,0.646567 1.71875,1.28125 1.10323,4.143354 2.76625,8.064208 4.875,11.6875 0.37292,0.668507 0.38163,1.614364 -0.25,2.375 l -6.25,7.09375 c -0.6855,0.685496 -0.57188,1.680227 0,2.46875 1.97859,2.61651 3.35351,4.23531 5.65625,6.5625 2.32718,2.30274 3.94598,3.67766 6.5625,5.65625 0.78852,0.57188 1.78325,0.6855 2.46875,0 l 7.09375,-6.25 c 0.76064,-0.63163 1.70649,-0.62292 2.375,-0.25 l 0.0937,-0.0937 c 3.52766,2.01717 7.32819,3.60952 11.343751,4.6875 v 0.15625 c 0.736401,0.20901 1.440029,0.85927 1.53125,1.84375 l 0.59375,9.4375 c 0,0.96944 0.78805,1.59681 1.75,1.75 3.249232,0.45108 5.351147,0.60772 8.625,0.625 3.273853,-0.0173 5.375768,-0.17392 8.625,-0.625 0.961946,-0.15319 1.75,-0.78056 1.75,-1.75 l 0.59375,-9.4375 c 0.09122,-0.98448 0.794849,-1.63474 1.53125,-1.84375 v -0.15625 c 4.015557,-1.07798 7.816095,-2.67033 11.34375,-4.6875 l 0.09375,0.0937 c 0.668507,-0.37292 1.614362,-0.38163 2.375,0.25 l 7.09375,6.25 c 0.685503,0.68551 1.680237,0.57189 2.46875,0 2.61651,-1.97859 4.23531,-3.35351 6.5625,-5.65625 2.30274,-2.32719 3.67766,-3.94599 5.65625,-6.5625 0.57189,-0.788513 0.68551,-1.783245 0,-2.46875 l -6.25,-7.09375 c -0.63163,-0.76064 -0.62292,-1.706493 -0.25,-2.375 2.10875,-3.623292 3.77177,-7.544146 4.875,-11.6875 0.27531,-0.634683 0.8514,-1.20088 1.71875,-1.28125 l 9.4375,-0.59375 c 0.96945,0 1.59682,-0.788054 1.75,-1.75 0.45108,-3.249232 0.60772,-5.351147 0.625,-8.625 -0.01728,-3.273853 -0.17392,-5.375768 -0.625,-8.625 -0.15318,-0.96195 -0.78055,-1.75 -1.75,-1.75 l -9.4375,-0.59375 c -0.73836,-0.06842 -1.27654,-0.487159 -1.59375,-1 -0.0056,-0.02192 -0.02559,-0.04059 -0.03125,-0.0625 -1.13014,-4.376187 -3.15121,-8.364911 -5.125,-12.3125 l -0.0625,-0.125 c -0.26745,-0.534904 -0.005,-1.273273 0.46875,-1.84375 l 6.25,-7.09375 c 0.68551,-0.685506 0.57188,-1.680234 0,-2.46875 -1.97859,-2.616516 -3.35351,-4.23532 -5.65625,-6.5625 -2.32718,-2.302747 -3.94598,-3.677659 -6.5625,-5.65625 -0.788516,-0.571884 -1.783244,-0.685505 -2.46875,0 l -7.09375,6.25 c -0.695376,0.577435 -1.535955,0.594432 -2.1875,0.3125 -3.602075,-2.090398 -7.508163,-3.707331 -11.625,-4.8125 -0.0219,-0.0062 -0.04067,-0.02426 -0.0625,-0.03125 -0.712107,-0.22817 -1.380239,-0.857306 -1.46875,-1.8125 l -0.59375,-9.4375 c 0,-0.9694506 -0.788054,-1.596816 -1.75,-1.75 -3.249232,-0.4510816 -5.351147,-0.6077236 -8.625,-0.625 z m 0,44 c 8.831999,-10e-7 16,7.168 16,16 -10e-7,8.832 -7.168001,16 -16,16 -8.832,0 -16,-7.168 -16,-16 10e-7,-8.832001 7.168001,-16 16,-16 z"
         id="path64" />
    </mask>
    <radialGradient
       id="n-5"
       cx="-84"
       cy="64"
       gradientUnits="userSpaceOnUse"
       r="60"
       xlink:href="#o-6" />
    <linearGradient
       id="o-6">
      <stop
         offset="0"
         stop-color="#fff"
         id="stop68" />
      <stop
         offset="1"
         stop-color="#fff"
         stop-opacity="0"
         id="stop70" />
    </linearGradient>
    <clipPath
       id="q-2">
      <path
         inkscape:connector-curvature="0"
         d="m 76.90625,-70.062499 c -2.912256,3.972096 -7.607051,6.5625 -12.90625,6.5625 -4.895788,0 -9.283068,-2.188651 -12.21875,-5.65625 -23.139626,-4.28557 -26.617645,14.039708 -31.5,30.75 0.408832,0.434 0.807117,0.86458 1.28125,1.34375 2.32718,2.30274 3.94598,3.67766 6.5625,5.65625 0.78852,0.57188 1.78325,0.6855 2.46875,0 l 7.09375,-6.25 c 0.76064,-0.63163 1.70649,-0.62292 2.375,-0.25 l 0.09375,-0.09375 c 3.52766,2.01717 7.328189,3.60952 11.34375,4.6875 v 0.15625 c 0.736402,0.20901 1.440029,0.85927 1.53125,1.84375 l 0.59375,9.4375 c 10e-7,0.96944 0.78805,1.59681 1.75,1.75 3.249233,0.45108 5.351147,0.60772 8.625,0.625 3.273854,-0.01728 5.375768,-0.17392 8.625,-0.625 0.961947,-0.15319 1.75,-0.78056 1.75,-1.75 l 0.59375,-9.4375 c 0.09122,-0.98448 0.794849,-1.63474 1.53125,-1.84375 v -0.15625 c 4.015558,-1.07798 7.816095,-2.67033 11.34375,-4.6875 l 0.09375,0.09375 c 0.668508,-0.37292 1.614362,-0.38163 2.375,0.25 l 7.09375,6.25 c 0.685504,0.68551 1.680237,0.57189 2.46875,0 2.61651,-1.97859 4.23531,-3.35351 6.5625,-5.65625 0.48542,-0.49057 0.8952,-0.93141 1.3125,-1.375 3.92353,-7.086674 -25.609227,-43.434539 -30.84375,-31.625 z"
         id="path74" />
    </clipPath>
    <filter
       id="r-9">
      <feGaussianBlur
         stdDeviation="1.2828183"
         id="feGaussianBlur77" />
    </filter>
    <filter
       id="E">
      <feGaussianBlur
         stdDeviation=".11909804"
         id="feGaussianBlur112" />
    </filter>
    <filter
       id="filter973">
      <feGaussianBlur
         stdDeviation=".11909804"
         id="feGaussianBlur971" />
    </filter>
    <filter
       id="H">
      <feGaussianBlur
         stdDeviation=".069666275"
         id="feGaussianBlur121" />
    </filter>
    <filter
       id="filter979">
      <feGaussianBlur
         stdDeviation=".069666275"
         id="feGaussianBlur977" />
    </filter>
    <clipPath
       clipPathUnits="userSpaceOnUse"
       id="clipPath943">
      <rect
         style="opacity:1;fill:#f3b7d9;fill-opacity:1;fill-rule:evenodd;stroke:#e602b4;stroke-width:0.25;stroke-linecap:round;stroke-linejoin:round;stroke-miterlimit:4;stroke-dasharray:none;stroke-opacity:1;paint-order:markers fill stroke"
         id="rect945"
         width="21.109726"
         height="7.8774977"
         x="0.96442467"
         y="-7.4724622"
         rx="0.14431879"
         ry="0.14431883"
         transform="scale(1,-1)" />
    </clipPath>
  </defs>
  <sodipodi:namedview
     pagecolor="#ffffff"
     bordercolor="#666666"
     borderopacity="1"
     objecttolerance="10"
     gridtolerance="10"
     guidetolerance="10"
     inkscape:pageopacity="0"
     inkscape:pageshadow="2"
     inkscape:window-width="1366"
     inkscape:window-height="707"
     id="namedview147"
     showgrid="true"
     inkscape:snap-global="true"
     inkscape:zoom="46.751512"
     inkscape:cx="10.195866"
     inkscape:cy="15.483606"
     inkscape:window-x="0"
     inkscape:window-y="0"
     inkscape:window-maximized="1"
     inkscape:current-layer="svg145">
    <inkscape:grid
       type="xygrid"
       id="grid1078" />
  </sodipodi:namedview>
  <linearGradient
     id="a"
     gradientUnits="userSpaceOnUse"
     x1="8"
     x2="8"
     y1="5"
     y2="15">
    <stop
       offset="0"
       stop-color="#5678c8"
       id="stop2" />
    <stop
       offset=".94117647"
       stop-color="#3f59ae"
       id="stop4" />
    <stop
       offset="1"
       stop-color="#3d7cdb"
       id="stop6" />
  </linearGradient>
  <linearGradient
     id="b"
     gradientUnits="userSpaceOnUse"
     x1="5.5"
     x2="5.5"
     y1="12"
     y2="13">
    <stop
       offset="0"
       stop-color="#174072"
       id="stop9" />
    <stop
       offset="1"
       stop-color="#174072"
       stop-opacity="0"
       id="stop11" />
  </linearGradient>
  <linearGradient
     id="c"
     gradientUnits="userSpaceOnUse"
     x1="9"
     x2="9"
     y1="-1"
     y2="10">
    <stop
       offset="0"
       stop-color="#102134"
       id="stop14" />
    <stop
       offset="1"
       stop-color="#102134"
       stop-opacity="0"
       id="stop16" />
  </linearGradient>
  <filter
     id="d"
     height="1.267833"
     width="1.129187"
     x="-0.064594001"
     y="-0.133917"
     style="color-interpolation-filters:sRGB">
    <feGaussianBlur
       stdDeviation="3.1247207"
       id="feGaussianBlur19" />
  </filter>
  <linearGradient
     id="e"
     gradientUnits="userSpaceOnUse"
     x1="0.37740999"
     x2="0.37740999"
     y1="5.2146521"
     y2="3.309088">
    <stop
       offset="0"
       stop-color="#34608f"
       id="stop22" />
    <stop
       offset="1"
       stop-color="#34608f"
       stop-opacity="0"
       id="stop24" />
  </linearGradient>
  <linearGradient
     id="f"
     gradientTransform="matrix(0.21345221,0,0,0.1138394,-11.411169,-103.22724)"
     gradientUnits="userSpaceOnUse"
     x1="124.01234"
     x2="124.01234"
     y1="966.51019"
     y2="935.34326">
    <stop
       offset="0"
       id="stop27" />
    <stop
       offset="1"
       stop-color="#34608f"
       stop-opacity="0"
       id="stop29" />
  </linearGradient>
  <linearGradient
     id="g"
     gradientUnits="userSpaceOnUse"
     x1="55"
     x2="55"
     y1="1036.4132"
     y2="1032.4822">
    <stop
       offset="0"
       stop-color="#003d7b"
       id="stop32" />
    <stop
       offset="1"
       stop-color="#003d7b"
       stop-opacity="0"
       id="stop34" />
  </linearGradient>
  <filter
     id="h"
     height="1.697208"
     width="1.0278879"
     x="-0.013944"
     y="-0.34860399"
     style="color-interpolation-filters:sRGB">
    <feGaussianBlur
       stdDeviation=".70882694"
       id="feGaussianBlur37" />
  </filter>
  <filter
     id="i"
     height="1.869989"
     width="1.027669"
     x="-0.013834"
     y="-0.43499401"
     style="color-interpolation-filters:sRGB">
    <feGaussianBlur
       stdDeviation=".70324038"
       id="feGaussianBlur40" />
  </filter>
  <clipPath
     id="j">
    <rect
       height="28.072842"
       rx="4"
       width="101.14289"
       x="4"
       y="941.36218"
       id="rect43" />
  </clipPath>
  <clipPath
     id="k">
    <rect
       height="102.29915"
       ry="1.433656"
       width="120"
       x="5.9362898"
       y="48"
       id="rect46" />
  </clipPath>
  <filter
     id="l">
    <feGaussianBlur
       stdDeviation="2.028"
       id="feGaussianBlur49" />
  </filter>
  <filter
     id="m">
    <feGaussianBlur
       stdDeviation="2.7153804"
       id="feGaussianBlur52" />
  </filter>
  <linearGradient
     id="n"
     gradientTransform="matrix(0.11771628,0,0,-0.11768585,0.4304885,15.553833)"
     gradientUnits="userSpaceOnUse"
     x1="47.236164"
     x2="72"
     y1="22.150356"
     y2="116.40091">
    <stop
       offset="0"
       stop-color="#eeecec"
       id="stop55" />
    <stop
       offset=".40000001"
       stop-color="#f4f4f4"
       id="stop57" />
    <stop
       offset="1"
       stop-color="#f6f5f5"
       id="stop59" />
  </linearGradient>
  <radialGradient
     id="o"
     cx="68.138977"
     cy="89.42041"
     fx="67.932365"
     fy="72.691223"
     gradientTransform="matrix(0.19825899,0.00992035,0.00810634,-0.16192215,-5.243083,17.750231)"
     gradientUnits="userSpaceOnUse"
     r="47.5"
     xlink:href="#p" />
  <linearGradient
     id="p">
    <stop
       offset="0"
       stop-color="#fff"
       id="stop63" />
    <stop
       offset="1"
       stop-color="#fff"
       stop-opacity="0"
       id="stop65" />
  </linearGradient>
  <clipPath
     id="q">
    <path
       d="m 17.000001,8 0.782827,110 h 57.5 c 1.675283,0 3.119418,0.18058 4.9,-1.6 8.797935,-8.79794 21.481402,-23.383226 28.739972,-30.707378 2.44056,-2.462612 2.80096,-4.47117 2.80096,-6.724043 L 110,8 Z"
       id="path68"
       inkscape:connector-curvature="0" />
  </clipPath>
  <filter
     id="r"
     height="2.025501"
     width="1.957419"
     x="-0.47870901"
     y="-0.51275098"
     style="color-interpolation-filters:sRGB">
    <feGaussianBlur
       stdDeviation="10.140743"
       id="feGaussianBlur71" />
  </filter>
  <filter
     id="s"
     height="1.2101001"
     width="1.169467"
     x="-0.084733002"
     y="-0.10505">
    <feGaussianBlur
       stdDeviation="2.1734796"
       id="feGaussianBlur74" />
  </filter>
  <linearGradient
     id="t"
     gradientTransform="matrix(0.16680885,0,0,-0.17050628,-27.379682,26.796071)"
     gradientUnits="userSpaceOnUse"
     x1="82.15696"
     x2="94.220871"
     y1="90.381706"
     y2="102.18401">
    <stop
       offset="0"
       stop-color="#fcfcfc"
       id="stop77" />
    <stop
       offset=".52275378"
       stop-color="#f8f8f8"
       id="stop79" />
    <stop
       offset=".72337759"
       stop-color="#f0efef"
       id="stop81" />
    <stop
       offset=".89024991"
       stop-color="#e3e1e1"
       id="stop83" />
    <stop
       offset="1"
       stop-color="#cecbcb"
       id="stop85" />
  </linearGradient>
  <radialGradient
     id="u"
     cx="90.750008"
     cy="110.25297"
     gradientUnits="userSpaceOnUse"
     r="24.501278"
     xlink:href="#p" />
  <clipPath
     id="v">
    <path
       d="m 112,82.502986 c 0,4.465301 -2.79749,6.409952 -5.27972,8.093625 -5.10854,3.46508 -14.939114,3.32536 -20.720284,3.40638 -0.081,5.781159 0.16586,15.504599 -3.29922,20.613139 -1.68367,2.48224 -5.29051,5.38687 -8.20078,5.38687 2.31803,0 4.74284,-1.33476 7.58402,-4.08481 9.14197,-8.84873 17.36714,-16.13535 25.673154,-25.297529 C 109.67612,88.503916 112,86.97878 112,82.502986 Z"
       id="path89"
       inkscape:connector-curvature="0" />
  </clipPath>
  <filter
     id="w"
     style="color-interpolation-filters:sRGB">
    <feGaussianBlur
       stdDeviation=".43040059"
       id="feGaussianBlur92" />
  </filter>
  <g
     id="g936"
     transform="matrix(0.98931181,0,0,0.98931181,0.01603229,0.1549777)"
     style="stroke-width:1.0108037">
    <rect
       rx="0.14587817"
       ry="0.14587817"
       y="3.4534705"
       x="5.3898206"
       height="2.414314"
       width="2.6483872"
       id="rect947"
       style="opacity:1;fill:#f3b7d9;fill-opacity:1;fill-rule:evenodd;stroke:none;stroke-width:1.0108037;stroke-linecap:round;stroke-linejoin:round;stroke-miterlimit:4;stroke-dasharray:none;stroke-opacity:1;paint-order:markers fill stroke" />
    <rect
       style="opacity:1;fill:#f3b7d9;fill-opacity:1;fill-rule:evenodd;stroke:#e602b4;stroke-width:1.0108037;stroke-linecap:round;stroke-linejoin:round;stroke-miterlimit:4;stroke-dasharray:none;stroke-opacity:1;paint-order:markers fill stroke"
       id="rect925"
       width="13.101964"
       height="11.048597"
       x="1.5"
       y="3.3659401"
       rx="1.9551975"
       ry="2.2250719" />
    <rect
       transform="matrix(0.65638076,0,0,0.71514032,0.15140023,-0.17250687)"
       clip-path="url(#clipPath943)"
       ry="2.385788"
       rx="2.2540884"
       y="2.2152748"
       x="2.0604992"
       height="6.9662223"
       width="8"
       id="rect927"
       style="opacity:1;fill:#f3b7d9;fill-opacity:1;fill-rule:evenodd;stroke:#e602b4;stroke-width:1.47534394;stroke-linecap:round;stroke-linejoin:round;stroke-miterlimit:4;stroke-dasharray:none;stroke-opacity:1;paint-order:markers fill stroke" />
    <rect
       ry="1.7061758"
       rx="1.4795436"
       y="2"
       x="2.8099351"
       height="7.0819879"
       width="10.593549"
       id="rect949"
       style="opacity:1;fill:#f0e3ec;fill-opacity:1;fill-rule:evenodd;stroke:#e602b4;stroke-width:1.0108037;stroke-linecap:round;stroke-linejoin:round;stroke-miterlimit:4;stroke-dasharray:none;stroke-opacity:1;paint-order:markers fill stroke" />
    <rect
       ry="1.8182607"
       rx="1.5787098"
       y="6.7011733"
       x="1.5283742"
       height="7.7987237"
       width="13.033463"
       id="rect923"
       style="opacity:1;fill:#f3b7d9;fill-opacity:1;fill-rule:evenodd;stroke:#e602b4;stroke-width:1.0108037;stroke-linecap:round;stroke-linejoin:round;stroke-miterlimit:4;stroke-dasharray:none;stroke-opacity:1;paint-order:markers fill stroke" />
    <path
       inkscape:connector-curvature="0"
       id="path963"
       d="M 2,11 H 14"
       style="fill:#9d3a9b;stroke:#9d3a9b;stroke-width:1.0108037;stroke-linecap:butt;stroke-linejoin:miter;stroke-miterlimit:4;stroke-dasharray:none;stroke-opacity:1" />
    <path
       style="fill:#9d3a9b;stroke:#9d3a9b;stroke-width:1.0108037;stroke-linecap:butt;stroke-linejoin:miter;stroke-miterlimit:4;stroke-dasharray:none;stroke-opacity:1"
       d="M 2,12.628252 H 14"
       id="path965"
       inkscape:connector-curvature="0" />
    <path
       style="fill:#9d3a9b;fill-opacity:1;stroke:#9d3a9b;stroke-width:0.25270092;stroke-miterlimit:4;stroke-dasharray:none;stroke-opacity:1"
       id="path2"
       d="m 11.083499,3.07966 c 0.01622,-0.1704035 0.142745,-0.2940442 0.301065,-0.2940442 0.105477,0 0.20205,0.054104 0.25639,0.1408717 0.05385,-0.087845 0.146467,-0.1408717 0.250252,-0.1408717 0.158298,0 0.284826,0.1236416 0.301044,0.2940442 0.0012,0.00751 0.0066,0.047153 -0.0095,0.111764 -0.02308,0.093195 -0.07633,0.1779395 -0.15401,0.2450635 L 11.64118,3.7718236 11.246965,3.4365069 c -0.07769,-0.067125 -0.130956,-0.1518671 -0.154018,-0.245064 -0.01601,-0.064578 -0.01073,-0.1041942 -0.0095,-0.1117319 z m 0.05113,0.102397 c 0.02104,0.085104 0.06985,0.1626357 0.140991,0.2240819 l 0.365332,0.3107845 0.359065,-0.3106859 c 0.07126,-0.061577 0.120044,-0.1390763 0.141117,-0.22418 0.01515,-0.061118 0.0089,-0.095677 0.0089,-0.095904 l -3.22e-4,-0.00203 c -0.01391,-0.1492856 -0.122608,-0.2576886 -0.258505,-0.2576886 -0.100278,0 -0.188552,0.058736 -0.230441,0.1533032 l -0.0197,0.044536 -0.0197,-0.044538 c -0.04123,-0.093098 -0.134172,-0.1532707 -0.236819,-0.1532707 -0.135879,0 -0.244603,0.1083705 -0.258788,0.259618 -4.3e-5,3.258e-4 -0.0063,0.034884 0.0089,0.096002 z"
       inkscape:connector-curvature="0" />
    <path
       inkscape:connector-curvature="0"
       id="path957"
       d="m 4.5,5 h 7"
       style="fill:none;stroke:#e602b4;stroke-width:1.0108037;stroke-linecap:round;stroke-linejoin:miter;stroke-miterlimit:4;stroke-dasharray:none;stroke-opacity:1" />
  </g>
</svg>
