<?xml version="1.0" encoding="UTF-8" standalone="no"?>
<svg
   xmlns:dc="http://purl.org/dc/elements/1.1/"
   xmlns:cc="http://creativecommons.org/ns#"
   xmlns:rdf="http://www.w3.org/1999/02/22-rdf-syntax-ns#"
   xmlns:svg="http://www.w3.org/2000/svg"
   xmlns="http://www.w3.org/2000/svg"
   xmlns:sodipodi="http://sodipodi.sourceforge.net/DTD/sodipodi-0.dtd"
   xmlns:inkscape="http://www.inkscape.org/namespaces/inkscape"
   height="16"
   viewBox="0 0 4.2333332 4.2333335"
   width="16"
   version="1.1"
   id="svg4"
   sodipodi:docname="sc_outlinefont.svg"
   inkscape:export-filename="/home/annisaauliarasyidah/Desktop/4_242 (aulia)/sc 222/sc_outlinefont.png"
   inkscape:export-xdpi="96"
   inkscape:export-ydpi="96"
   inkscape:version="0.92.4 (unknown)">
  <metadata
     id="metadata10">
    <rdf:RDF>
      <cc:Work
         rdf:about="">
        <dc:format>image/svg+xml</dc:format>
        <dc:type
           rdf:resource="http://purl.org/dc/dcmitype/StillImage" />
      </cc:Work>
    </rdf:RDF>
  </metadata>
  <defs
     id="defs8" />
  <sodipodi:namedview
     pagecolor="#ffffff"
     bordercolor="#666666"
     borderopacity="1"
     objecttolerance="10"
     gridtolerance="10"
     guidetolerance="10"
     inkscape:pageopacity="0"
     inkscape:pageshadow="2"
     inkscape:window-width="1366"
     inkscape:window-height="707"
     id="namedview6"
     showgrid="true"
     inkscape:zoom="14.75"
     inkscape:cx="0.13559322"
     inkscape:cy="8"
     inkscape:window-x="0"
     inkscape:window-y="0"
     inkscape:window-maximized="1"
     inkscape:current-layer="svg4">
    <inkscape:grid
       type="xygrid"
       id="grid817" />
  </sodipodi:namedview>
  <path
     d="m4.1631957 296.81356v.11243h-1.5090475v-.11243q.2367134-.006.3254809-.0473.088767-.0414.088767-.15386 0-.14203-.1124389-.3965l-.2426306-.56816h-1.5504724l-.27222029.69239q-.0473427.12427-.0473427.23079 0 .24264.40241265.24264v.11243h-1.17173094v-.11243q.21895983-.0118.3373165-.1657.1242745-.15978.39649483-.80483l1.23090935-2.90565h.1183566l1.4735405 3.36132q.142028.32549.2367134.41425.094685.0888.2958916.10061zm-2.8997383-1.40845h1.3670195l-.6864687-1.6274z"
     fill="none"
     stroke="#000"
     stroke-width=".147946"
     transform="translate(0 -292.76665)"
     id="path2"
     style="fill:#f3b7d9;stroke:#9d3a9b" />
</svg>
