<?xml version="1.0" encoding="UTF-8" standalone="no"?>
<svg
   xmlns:dc="http://purl.org/dc/elements/1.1/"
   xmlns:cc="http://creativecommons.org/ns#"
   xmlns:rdf="http://www.w3.org/1999/02/22-rdf-syntax-ns#"
   xmlns:svg="http://www.w3.org/2000/svg"
   xmlns="http://www.w3.org/2000/svg"
   xmlns:xlink="http://www.w3.org/1999/xlink"
   xmlns:sodipodi="http://sodipodi.sourceforge.net/DTD/sodipodi-0.dtd"
   xmlns:inkscape="http://www.inkscape.org/namespaces/inkscape"
   height="16"
   width="16"
   version="1.1"
   id="svg399"
   sodipodi:docname="sc_photoalbumdialog.svg"
   inkscape:version="0.92.4 (unknown)"
   inkscape:export-filename="/home/annisaauliarasyidah/Desktop/4_242 (aulia)/sc 222/sc_photoalbumdialog.png"
   inkscape:export-xdpi="96"
   inkscape:export-ydpi="96">
  <metadata
     id="metadata405">
    <rdf:RDF>
      <cc:Work
         rdf:about="">
        <dc:format>image/svg+xml</dc:format>
        <dc:type
           rdf:resource="http://purl.org/dc/dcmitype/StillImage" />
      </cc:Work>
    </rdf:RDF>
  </metadata>
  <defs
     id="defs403">
    <radialGradient
       inkscape:collect="always"
       xlink:href="#c"
       id="radialGradient1248"
       gradientUnits="userSpaceOnUse"
       gradientTransform="matrix(0.16667084,0,0,0.17333764,1.113332,-2.19178)"
       cx="20.31949"
       cy="87.642738"
       r="47.998798" />
    <radialGradient
       inkscape:collect="always"
       xlink:href="#ah"
       id="radialGradient1250"
       gradientUnits="userSpaceOnUse"
       cx="50.269897"
       cy="47.169552"
       r="15.723184" />
    <radialGradient
       inkscape:collect="always"
       xlink:href="#ah"
       id="radialGradient1252"
       gradientUnits="userSpaceOnUse"
       cx="50.269897"
       cy="47.169552"
       r="15.723184" />
    <radialGradient
       inkscape:collect="always"
       xlink:href="#ah"
       id="radialGradient1254"
       gradientUnits="userSpaceOnUse"
       cx="50.269897"
       cy="47.169552"
       r="15.723184" />
    <radialGradient
       inkscape:collect="always"
       xlink:href="#ah"
       id="radialGradient1256"
       gradientUnits="userSpaceOnUse"
       cx="50.269897"
       cy="47.169552"
       r="15.723184" />
    <radialGradient
       inkscape:collect="always"
       xlink:href="#c"
       id="radialGradient1272"
       gradientUnits="userSpaceOnUse"
       gradientTransform="matrix(0.16667084,0,0,0.17333764,-0.886668,-4.19178)"
       cx="20.31949"
       cy="87.642738"
       r="47.998798" />
    <radialGradient
       inkscape:collect="always"
       xlink:href="#C"
       id="radialGradient1274"
       gradientUnits="userSpaceOnUse"
       gradientTransform="matrix(0.696437,0,0,1.188967,-175.09425,-439.0428)"
       cx="312"
       cy="431.38034"
       fx="311.27777"
       fy="433.70554"
       r="16.25" />
    <radialGradient
       inkscape:collect="always"
       xlink:href="#C"
       id="radialGradient1276"
       gradientUnits="userSpaceOnUse"
       gradientTransform="matrix(-0.696437,0,0,1.188967,285.63744,-439.0428)"
       cx="312"
       cy="431.38034"
       fx="311.27777"
       fy="433.70554"
       r="16.25" />
    <radialGradient
       inkscape:collect="always"
       xlink:href="#I"
       id="radialGradient1278"
       gradientUnits="userSpaceOnUse"
       gradientTransform="matrix(1.0059645,0,0,1.4472234,-271.44676,-535.35257)"
       cx="324.39758"
       cy="396.09259"
       fx="330.04404"
       fy="392.75388"
       r="22.444885" />
    <linearGradient
       inkscape:collect="always"
       xlink:href="#J"
       id="linearGradient1280"
       gradientUnits="userSpaceOnUse"
       x1="412.78592"
       y1="400.84558"
       x2="412.78592"
       y2="422.63611" />
    <linearGradient
       inkscape:collect="always"
       xlink:href="#K"
       id="linearGradient1282"
       gradientUnits="userSpaceOnUse"
       x1="-55.48749"
       y1="106.6243"
       x2="-41.07938"
       y2="94.15884" />
    <radialGradient
       inkscape:collect="always"
       xlink:href="#x"
       id="radialGradient1284"
       gradientUnits="userSpaceOnUse"
       gradientTransform="matrix(1,0,0,2.5768702,43.133514,-626.29699)"
       cx="303.71942"
       cy="397.17728"
       r=".796219" />
    <radialGradient
       inkscape:collect="always"
       xlink:href="#x"
       id="radialGradient1286"
       gradientUnits="userSpaceOnUse"
       gradientTransform="matrix(1,0,0,2.5768702,-372.5,-950.79699)"
       cx="303.71942"
       cy="397.17728"
       r=".796219" />
    <linearGradient
       inkscape:collect="always"
       xlink:href="#l"
       id="linearGradient1288"
       gradientUnits="userSpaceOnUse"
       x1="324.65039"
       y1="398.85446"
       x2="325.7691"
       y2="370.57019" />
    <radialGradient
       inkscape:collect="always"
       xlink:href="#O"
       id="radialGradient1290"
       gradientUnits="userSpaceOnUse"
       gradientTransform="matrix(-0.7020433,-0.1106778,0.08385981,-0.5312371,265.2384,247.24451)"
       cx="332.49338"
       cy="369.61789"
       r="22.779818" />
    <linearGradient
       inkscape:collect="always"
       xlink:href="#P"
       id="linearGradient1292"
       gradientUnits="userSpaceOnUse"
       x1="304.88663"
       y1="385.86127"
       x2="345.62039"
       y2="384.62384" />
    <linearGradient
       inkscape:collect="always"
       xlink:href="#l"
       id="linearGradient1294"
       gradientUnits="userSpaceOnUse"
       x1="-42.40665"
       y1="82.89011"
       x2="-52.13577"
       y2="42.89182" />
    <linearGradient
       inkscape:collect="always"
       xlink:href="#R"
       id="linearGradient1296"
       gradientUnits="userSpaceOnUse"
       x1="-19.05484"
       y1="66.36218"
       x2="-32.73215"
       y2="49.11218" />
    <linearGradient
       inkscape:collect="always"
       xlink:href="#S"
       id="linearGradient1298"
       gradientUnits="userSpaceOnUse"
       gradientTransform="matrix(0.5366445,0,0,1.8634309,-372.5,-324.5)"
       x1="563.64667"
       y1="214.96599"
       x2="568.98871"
       y2="214.96599" />
    <linearGradient
       inkscape:collect="always"
       xlink:href="#T"
       id="linearGradient1300"
       gradientUnits="userSpaceOnUse"
       x1="52.461521"
       y1="127.04261"
       x2="60.561855"
       y2="86.540939" />
    <linearGradient
       inkscape:collect="always"
       xlink:href="#f"
       id="linearGradient1302"
       gradientUnits="userSpaceOnUse"
       x1="-88.99353"
       y1="138.53894"
       x2="-59.71616"
       y2="118.53894" />
    <linearGradient
       inkscape:collect="always"
       xlink:href="#V"
       id="linearGradient1304"
       gradientUnits="userSpaceOnUse"
       x1="414.41586"
       y1="458.62646"
       x2="461.90625"
       y2="458.62646" />
    <linearGradient
       inkscape:collect="always"
       xlink:href="#l"
       id="linearGradient1306"
       gradientUnits="userSpaceOnUse"
       x1="-46.5"
       y1="151.90894"
       x2="-61.96805"
       y2="105.23987" />
    <linearGradient
       inkscape:collect="always"
       xlink:href="#g"
       id="linearGradient1308"
       gradientUnits="userSpaceOnUse"
       x1="-56.77682"
       y1="128.5892"
       x2="-81.87909"
       y2="109.85086" />
    <linearGradient
       inkscape:collect="always"
       xlink:href="#g"
       id="linearGradient1310"
       gradientUnits="userSpaceOnUse"
       x1="374.22318"
       y1="479.5892"
       x2="349.12091"
       y2="460.85086" />
    <linearGradient
       inkscape:collect="always"
       xlink:href="#f"
       id="linearGradient1312"
       gradientUnits="userSpaceOnUse"
       x1="284.67853"
       y1="460.62231"
       x2="299.28384"
       y2="441.53894" />
    <linearGradient
       inkscape:collect="always"
       xlink:href="#aa"
       id="linearGradient1314"
       gradientUnits="userSpaceOnUse"
       x1="-58.75171"
       y1="119.95746"
       x2="-66.82275"
       y2="138.63513" />
    <linearGradient
       inkscape:collect="always"
       xlink:href="#ab"
       id="linearGradient1316"
       gradientUnits="userSpaceOnUse"
       x1="-58.75171"
       y1="119.95746"
       x2="-66.82275"
       y2="138.63513" />
    <radialGradient
       inkscape:collect="always"
       xlink:href="#I"
       id="radialGradient1318"
       gradientUnits="userSpaceOnUse"
       gradientTransform="matrix(1.0059645,0,0,1.4472234,-271.44676,-535.35257)"
       cx="324.39758"
       cy="396.09259"
       fx="330.04404"
       fy="392.75388"
       r="22.444885" />
    <linearGradient
       inkscape:collect="always"
       xlink:href="#J"
       id="linearGradient1320"
       gradientUnits="userSpaceOnUse"
       x1="412.78592"
       y1="400.84558"
       x2="412.78592"
       y2="422.63611" />
    <linearGradient
       inkscape:collect="always"
       xlink:href="#K"
       id="linearGradient1322"
       gradientUnits="userSpaceOnUse"
       x1="-55.48749"
       y1="106.6243"
       x2="-41.07938"
       y2="94.15884" />
    <radialGradient
       inkscape:collect="always"
       xlink:href="#O"
       id="radialGradient1324"
       gradientUnits="userSpaceOnUse"
       gradientTransform="matrix(-0.7020433,-0.1106778,0.08385981,-0.5312371,265.2384,247.24451)"
       cx="332.49338"
       cy="369.61789"
       r="22.779818" />
    <linearGradient
       inkscape:collect="always"
       xlink:href="#P"
       id="linearGradient1326"
       gradientUnits="userSpaceOnUse"
       x1="304.88663"
       y1="385.86127"
       x2="345.62039"
       y2="384.62384" />
    <linearGradient
       inkscape:collect="always"
       xlink:href="#R"
       id="linearGradient1328"
       gradientUnits="userSpaceOnUse"
       x1="-19.05484"
       y1="66.36218"
       x2="-32.73215"
       y2="49.11218" />
    <linearGradient
       inkscape:collect="always"
       xlink:href="#S"
       id="linearGradient1330"
       gradientUnits="userSpaceOnUse"
       gradientTransform="matrix(0.5366445,0,0,1.8634309,-372.5,-324.5)"
       x1="563.64667"
       y1="214.96599"
       x2="568.98871"
       y2="214.96599" />
    <linearGradient
       inkscape:collect="always"
       xlink:href="#T"
       id="linearGradient1332"
       gradientUnits="userSpaceOnUse"
       x1="52.461521"
       y1="127.04261"
       x2="60.561855"
       y2="86.540939" />
    <linearGradient
       inkscape:collect="always"
       xlink:href="#V"
       id="linearGradient1334"
       gradientUnits="userSpaceOnUse"
       x1="414.41586"
       y1="458.62646"
       x2="461.90625"
       y2="458.62646" />
    <linearGradient
       inkscape:collect="always"
       xlink:href="#aa"
       id="linearGradient1336"
       gradientUnits="userSpaceOnUse"
       x1="-58.75171"
       y1="119.95746"
       x2="-66.82275"
       y2="138.63513" />
    <linearGradient
       inkscape:collect="always"
       xlink:href="#ab"
       id="linearGradient1338"
       gradientUnits="userSpaceOnUse"
       x1="-58.75171"
       y1="119.95746"
       x2="-66.82275"
       y2="138.63513" />
  </defs>
  <sodipodi:namedview
     pagecolor="#ffffff"
     bordercolor="#666666"
     borderopacity="1"
     objecttolerance="10"
     gridtolerance="10"
     guidetolerance="10"
     inkscape:pageopacity="0"
     inkscape:pageshadow="2"
     inkscape:window-width="1366"
     inkscape:window-height="707"
     id="namedview401"
     showgrid="true"
     inkscape:zoom="14.75"
     inkscape:cx="-3.7966102"
     inkscape:cy="8"
     inkscape:window-x="0"
     inkscape:window-y="0"
     inkscape:window-maximized="1"
     inkscape:current-layer="svg399"
     inkscape:snap-global="false">
    <inkscape:grid
       type="xygrid"
       id="grid1410" />
  </sodipodi:namedview>
  <filter
     id="a">
    <feGaussianBlur
       stdDeviation=".80626257"
       id="feGaussianBlur2" />
  </filter>
  <linearGradient
     id="b"
     gradientTransform="matrix(0.11979467,0,0,0.11932115,0.083332,0.09053)"
     gradientUnits="userSpaceOnUse"
     x1="61.331799"
     x2="74.664803"
     y1="21.336"
     y2="101.334">
    <stop
       offset="0"
       stop-color="#96ccff"
       id="stop5" />
    <stop
       offset="1"
       stop-color="#5b88c1"
       id="stop7" />
  </linearGradient>
  <radialGradient
     id="c"
     cx="20.31949"
     cy="87.642738"
     gradientTransform="matrix(.16667084 0 0 .17333764 -39.194499 107.80822)"
     gradientUnits="userSpaceOnUse"
     r="47.998798">
    <stop
       offset="0"
       stop-color="#d8d8d8"
       id="stop10" />
    <stop
       offset=".52275378"
       stop-color="#f8f8f8"
       id="stop12" />
    <stop
       offset=".72337759"
       stop-color="#f0efef"
       id="stop14" />
    <stop
       offset=".89024991"
       stop-color="#e3e1e1"
       id="stop16" />
    <stop
       offset="1"
       stop-color="#cecbcb"
       id="stop18" />
  </radialGradient>
  <filter
     id="d">
    <feGaussianBlur
       stdDeviation="3.0902304"
       id="feGaussianBlur21" />
  </filter>
  <filter
     id="e"
     height="1.14804"
     width="1.342587"
     x="-.171293"
     y="-.07402">
    <feGaussianBlur
       stdDeviation=".57604943"
       id="feGaussianBlur24" />
  </filter>
  <linearGradient
     id="f">
    <stop
       offset="0"
       stop-color="#f9ccca"
       id="stop27" />
    <stop
       offset="1"
       stop-color="#c8cddc"
       stop-opacity="0"
       id="stop29" />
  </linearGradient>
  <linearGradient
     id="g">
    <stop
       offset="0"
       stop-color="#f9ccca"
       id="stop32" />
    <stop
       offset="1"
       stop-color="#bbc1d4"
       stop-opacity="0"
       id="stop34" />
  </linearGradient>
  <filter
     id="h"
     height="1.85337"
     width="1.166511"
     x="-.083256"
     y="-.426685">
    <feGaussianBlur
       stdDeviation=".50285367"
       id="feGaussianBlur37" />
  </filter>
  <filter
     id="i"
     height="1.263864"
     width="1.041627"
     x="-.020814"
     y="-.131932">
    <feGaussianBlur
       stdDeviation=".60896269"
       id="feGaussianBlur40" />
  </filter>
  <clipPath
     id="j">
    <path
       d="m463.75 435.375c-1.27779.21006-2.03383 1.22613-2 2-.0793.0317-.87749 1.12269-.95711 1.15441 1.25202 4.0018 5.15727 8.27208 16.75 7.96875 11.50018-.3009 15.9101-5.26943 17.17586-8.93566-.15115-.06-.3189-.12753-.46875-.1875.0338-.77387-.72221-1.78994-2-2-2.41363 3.74264-4.00719 7.40137-14.25 7.6875-10.24281.28614-13.36749-3.94879-14.25-7.6875zm-4.625 3.03125c-5.44302 2.09883-11.45793 4.26384-17.21875 6.875 5.89563-2.22917 11.62166-3.16524 16.85447-5.12684-.0106-.22696.25035-1.50511.36428-1.74816zm38.34375.21875c.0532.16802.10109.31159.0937.46875 4.20807 1.57746 8.83741 3.15593 13.5625 4.875-4.63354-1.95913-9.30506-3.67529-13.65625-5.34375z"
       filter="url(#i)"
       id="path43" />
  </clipPath>
  <filter
     id="k">
    <feGaussianBlur
       stdDeviation=".49977699"
       id="feGaussianBlur46" />
  </filter>
  <linearGradient
     id="l">
    <stop
       offset="0"
       stop-color="#fff"
       id="stop49" />
    <stop
       offset="1"
       stop-color="#fff"
       stop-opacity="0"
       id="stop51" />
  </linearGradient>
  <linearGradient
     id="m"
     xlink:href="#l" />
  <filter
     id="n">
    <feGaussianBlur
       stdDeviation="1.5449742"
       id="feGaussianBlur55" />
  </filter>
  <clipPath
     id="o">
    <path
       d="m410.16587 443.06739c-10.24281.28613-13.36749-3.95368-14.25-7.69239-1.27779.21006-2.03383 1.22613-2 2-7.08333 2.83488-15.64784 5.69235-23.25 9.5-2.82182 1.41335-6.03661 5.72037-6.875 8-2.55698 6.95256-5.375 16.75-5.375 16.75l1.5 1.75c15.64476 8.91215 36.87916 8.5 50.25 8.5s34.60524.41215 50.25-8.5l1.5-1.75s-2.81802-9.79744-5.375-16.75c-.83839-2.27963-4.05318-6.58665-6.875-8-7.60216-3.80765-16.16667-6.66512-23.25-9.5.0338-.77387-.72221-1.78994-2-2-2.41363 3.74264-4.00719 7.40626-14.25 7.69239z"
       id="path58" />
  </clipPath>
  <filter
     id="p">
    <feGaussianBlur
       stdDeviation="1.105682"
       id="feGaussianBlur61" />
  </filter>
  <filter
     id="q"
     height="1.118108"
     width="1.376196"
     x="-.188098"
     y="-.059054">
    <feGaussianBlur
       stdDeviation=".26451311"
       id="feGaussianBlur64" />
  </filter>
  <filter
     id="r"
     height="1.173597"
     width="1.229718"
     x="-.114859"
     y="-.086798">
    <feGaussianBlur
       stdDeviation=".6238629"
       id="feGaussianBlur67" />
  </filter>
  <filter
     id="s">
    <feGaussianBlur
       stdDeviation=".34264273"
       id="feGaussianBlur70" />
  </filter>
  <filter
     id="t"
     height="1.21231"
     width="1.057013"
     x="-.028506"
     y="-.106155">
    <feGaussianBlur
       stdDeviation=".4439284"
       id="feGaussianBlur73" />
  </filter>
  <filter
     id="u">
    <feGaussianBlur
       stdDeviation="1.110954"
       id="feGaussianBlur76" />
  </filter>
  <clipPath
     id="v">
    <path
       d="m303.70236 398.81874-.17678-13.25825 2.65166-7.24784 5.3033-1.76777 8.48528 2.65165 7.42462 1.41421 7.24784-3.71231h5.3033l3.71231 5.12653 1.94455 8.13172-.17678 5.3033.35355 1.94455-7.77817-15.02602-9.54594 3.71231-6.89429.17678-10.42983-4.94975z"
       id="path79" />
  </clipPath>
  <filter
     id="w"
     height="1.143371"
     width="1.3186"
     x="-.1593"
     y="-.071686">
    <feGaussianBlur
       stdDeviation=".10560268"
       id="feGaussianBlur82" />
  </filter>
  <linearGradient
     id="x">
    <stop
       offset="0"
       stop-color="#f1e4d4"
       id="stop85" />
    <stop
       offset="1"
       stop-color="#f1e4d4"
       stop-opacity="0"
       id="stop87" />
  </linearGradient>
  <filter
     id="y">
    <feGaussianBlur
       stdDeviation=".16076312"
       id="feGaussianBlur90" />
  </filter>
  <mask
     id="z"
     maskUnits="userSpaceOnUse">
    <path
       d="m412.56716 362.7206c-7.77656.205-16.77771 5.86053-19.90625 12.8125-3.18672 7.08121-2.72281 15.53626-.8125 25.3125 1.91032 9.77623 8.18827 19.94656 11.375 23.625 3.0204 3.48645 6.88924 2.85632 9.34375 2.78125.1258 0 .30234-.004.4375 0 2.45451.0751 6.32335.7052 9.34375-2.78125 3.18673-3.67844 9.46468-13.84877 11.375-23.625 1.91033-9.77624 2.37422-18.23129-.8125-25.3125-3.12855-6.95197-12.12969-12.6075-19.90625-12.8125z"
       fill="none"
       id="path93" />
  </mask>
  <filter
     id="A">
    <feGaussianBlur
       stdDeviation="1.640636"
       id="feGaussianBlur96" />
  </filter>
  <clipPath
     id="B">
    <path
       d="m341.25 409.625c-1.51321 7.20236-5.74124 23.3964-.5 27.25-.64647 6.99978-7.0786 9.64392-15 11.1875h-1.5c-7.9214-1.54358-14.35353-4.18772-15-11.1875 5.24124-3.8536 1.01321-20.04764-.5-27.25l16.25 7.40625z"
       id="path99" />
  </clipPath>
  <linearGradient
     id="C">
    <stop
       offset="0"
       stop-color="#f9ede0"
       id="stop102" />
    <stop
       offset=".5"
       stop-color="#f9ede0"
       stop-opacity=".805755"
       id="stop104" />
    <stop
       offset="1"
       stop-color="#f9ede0"
       stop-opacity="0"
       id="stop106" />
  </linearGradient>
  <filter
     id="D">
    <feGaussianBlur
       stdDeviation="1.1236176"
       id="feGaussianBlur109" />
  </filter>
  <filter
     id="E">
    <feBlend
       in2="SourceGraphic"
       mode="multiply"
       id="feBlend112" />
  </filter>
  <clipPath
     id="F">
    <path
       d="m8 9.471922h38.139709v45.767651h-38.139709z"
       id="path115" />
  </clipPath>
  <radialGradient
     id="G"
     cx="312"
     cy="431.38034"
     fx="311.27777"
     fy="433.70554"
     gradientTransform="matrix(0.696437,0,0,1.188967,-175.09425,-439.0428)"
     gradientUnits="userSpaceOnUse"
     r="16.25"
     xlink:href="#C" />
  <radialGradient
     id="H"
     cx="312"
     cy="431.38034"
     fx="311.27777"
     fy="433.70554"
     gradientTransform="matrix(-0.696437,0,0,1.188967,285.63744,-439.0428)"
     gradientUnits="userSpaceOnUse"
     r="16.25"
     xlink:href="#C" />
  <radialGradient
     id="I"
     cx="324.39758"
     cy="396.09259"
     fx="330.04404"
     fy="392.75388"
     gradientTransform="matrix(1.0059645 0 0 1.4472234 -271.44676 -535.35257)"
     gradientUnits="userSpaceOnUse"
     r="22.444885">
    <stop
       offset="0"
       stop-color="#faf0e4"
       id="stop120" />
    <stop
       offset=".591133"
       stop-color="#f8e7d4"
       id="stop122" />
    <stop
       offset="1"
       stop-color="#f1cfa9"
       id="stop124" />
  </radialGradient>
  <linearGradient
     id="J"
     gradientUnits="userSpaceOnUse"
     x1="412.78592"
     x2="412.78592"
     y1="400.84558"
     y2="422.63611">
    <stop
       offset="0"
       stop-color="#fff5e4"
       id="stop127" />
    <stop
       offset=".25"
       stop-color="#ffecd0"
       id="stop129" />
    <stop
       offset=".5"
       stop-color="#ffd390"
       id="stop131" />
    <stop
       offset="1"
       stop-color="#ffc46a"
       id="stop133" />
  </linearGradient>
  <linearGradient
     id="K"
     gradientUnits="userSpaceOnUse"
     x1="-55.48749"
     x2="-41.07938"
     y1="106.6243"
     y2="94.15884">
    <stop
       offset="0"
       stop-color="#f9eee2"
       id="stop136" />
    <stop
       offset="1"
       stop-color="#f9eee2"
       stop-opacity="0"
       id="stop138" />
  </linearGradient>
  <radialGradient
     id="L"
     cx="303.71942"
     cy="397.17728"
     gradientTransform="matrix(1,0,0,2.5768702,43.133514,-626.29699)"
     gradientUnits="userSpaceOnUse"
     r=".796219"
     xlink:href="#x" />
  <radialGradient
     id="M"
     cx="303.71942"
     cy="397.17728"
     gradientTransform="matrix(1,0,0,2.5768702,-372.5,-950.79699)"
     gradientUnits="userSpaceOnUse"
     r=".796219"
     xlink:href="#x" />
  <linearGradient
     id="N"
     gradientUnits="userSpaceOnUse"
     x1="324.65039"
     x2="325.7691"
     xlink:href="#l"
     y1="398.85446"
     y2="370.57019" />
  <radialGradient
     id="O"
     cx="332.49338"
     cy="369.61789"
     gradientTransform="matrix(-.7020433 -.1106778 .08385981 -.5312371 265.2384 247.24451)"
     gradientUnits="userSpaceOnUse"
     r="22.779818">
    <stop
       offset="0"
       stop-color="#e5d3c3"
       id="stop144" />
    <stop
       offset="1"
       stop-color="#e5d3c3"
       stop-opacity="0"
       id="stop146" />
  </radialGradient>
  <linearGradient
     id="P"
     gradientUnits="userSpaceOnUse"
     x1="304.88663"
     x2="345.62039"
     y1="385.86127"
     y2="384.62384">
    <stop
       offset="0"
       stop-color="#765c44"
       id="stop149" />
    <stop
       offset="1"
       stop-color="#765c44"
       stop-opacity="0"
       id="stop151" />
  </linearGradient>
  <linearGradient
     id="Q"
     gradientUnits="userSpaceOnUse"
     x1="-42.40665"
     x2="-52.13577"
     xlink:href="#l"
     y1="82.89011"
     y2="42.89182" />
  <linearGradient
     id="R"
     gradientUnits="userSpaceOnUse"
     x1="-19.05484"
     x2="-32.73215"
     y1="66.36218"
     y2="49.11218">
    <stop
       offset="0"
       stop-color="#dfcbba"
       id="stop155" />
    <stop
       offset="1"
       stop-color="#dfcbba"
       stop-opacity="0"
       id="stop157" />
  </linearGradient>
  <linearGradient
     id="S"
     gradientTransform="matrix(.5366445 0 0 1.8634309 -372.5 -324.5)"
     gradientUnits="userSpaceOnUse"
     x1="563.64667"
     x2="568.98871"
     y1="214.96599"
     y2="214.96599">
    <stop
       offset="0"
       stop-color="#e2e2e2"
       id="stop160" />
    <stop
       offset="1"
       stop-color="#fff"
       id="stop162" />
  </linearGradient>
  <linearGradient
     id="T"
     gradientUnits="userSpaceOnUse"
     x1="52.461521"
     x2="60.561855"
     y1="127.04261"
     y2="86.540939">
    <stop
       offset="0"
       stop-color="#bf0303"
       id="stop165" />
    <stop
       offset="1"
       stop-color="#f08682"
       id="stop167" />
  </linearGradient>
  <linearGradient
     id="U"
     gradientUnits="userSpaceOnUse"
     x1="-88.99353"
     x2="-59.71616"
     xlink:href="#f"
     y1="138.53894"
     y2="118.53894" />
  <linearGradient
     id="V"
     gradientUnits="userSpaceOnUse"
     x1="414.41586"
     x2="461.90625"
     y1="458.62646"
     y2="458.62646">
    <stop
       offset="0"
       stop-color="#9c0f0f"
       id="stop171" />
    <stop
       offset="1"
       stop-color="#8d97b7"
       stop-opacity="0"
       id="stop173" />
  </linearGradient>
  <linearGradient
     id="W"
     gradientUnits="userSpaceOnUse"
     x1="-46.5"
     x2="-61.96805"
     xlink:href="#l"
     y1="151.90894"
     y2="105.23987" />
  <linearGradient
     id="X"
     gradientUnits="userSpaceOnUse"
     x1="-56.77682"
     x2="-81.87909"
     xlink:href="#g"
     y1="128.5892"
     y2="109.85086" />
  <linearGradient
     id="Y"
     gradientUnits="userSpaceOnUse"
     x1="374.22318"
     x2="349.12091"
     xlink:href="#g"
     y1="479.5892"
     y2="460.85086" />
  <linearGradient
     id="Z"
     gradientUnits="userSpaceOnUse"
     x1="284.67853"
     x2="299.28384"
     xlink:href="#f"
     y1="460.62231"
     y2="441.53894" />
  <linearGradient
     id="aa"
     gradientUnits="userSpaceOnUse"
     x1="-58.75171"
     x2="-66.82275"
     y1="119.95746"
     y2="138.63513">
    <stop
       offset="0"
       stop-color="#c8cddc"
       id="stop180" />
    <stop
       offset="1"
       stop-color="#c8cddc"
       stop-opacity="0"
       id="stop182" />
  </linearGradient>
  <linearGradient
     id="ab"
     gradientUnits="userSpaceOnUse"
     x1="-58.75171"
     x2="-66.82275"
     y1="119.95746"
     y2="138.63513">
    <stop
       offset="0"
       id="stop185" />
    <stop
       offset="1"
       stop-opacity="0"
       id="stop187" />
  </linearGradient>
  <clipPath
     id="ac">
    <path
       d="m154.6628 75.189789h58.595661v42.143814h-58.595661z"
       id="path190" />
  </clipPath>
  <linearGradient
     id="ad"
     gradientTransform="matrix(0.4103611,0,0,0.4330773,11.197909,27.054412)"
     gradientUnits="userSpaceOnUse"
     x1="190.0625"
     x2="193"
     y1="187.73239"
     y2="122.8568">
    <stop
       offset="0"
       stop-color="#323232"
       id="stop193" />
    <stop
       offset="1"
       stop-color="#101010"
       id="stop195" />
  </linearGradient>
  <linearGradient
     id="ae"
     gradientTransform="matrix(0.4103611,0,0,0.3192147,11.197909,26.844654)"
     gradientUnits="userSpaceOnUse"
     x1="150.04311"
     x2="150.04311"
     xlink:href="#l"
     y1=".059548"
     y2="51.622837" />
  <clipPath
     id="af">
    <path
       d="m11.546064 26.991963h87.075179v81.090227h-87.075179z"
       id="path199" />
  </clipPath>
  <radialGradient
     id="ag"
     cx="96.675285"
     cy="93.389153"
     gradientTransform="matrix(1.9592408,0,0,0.7057335,-92.63189,3.684153)"
     gradientUnits="userSpaceOnUse"
     r="63.998783">
    <stop
       offset="0"
       stop-color="#ff7e00"
       id="stop202" />
    <stop
       offset="1"
       stop-color="#ffd500"
       id="stop204" />
  </radialGradient>
  <radialGradient
     id="ah"
     cx="50.269897"
     cy="47.169552"
     gradientUnits="userSpaceOnUse"
     r="15.723184">
    <stop
       offset="0"
       stop-color="#fff8de"
       id="stop207" />
    <stop
       offset="1"
       stop-color="#ff0"
       id="stop209" />
  </radialGradient>
  <filter
     id="ai">
    <feGaussianBlur
       stdDeviation=".61145714"
       id="feGaussianBlur212" />
  </filter>
  <filter
     id="aj"
     height="1.333333"
     width="1.333333"
     x="-.166667"
     y="-.166667">
    <feGaussianBlur
       stdDeviation="2.1837755"
       id="feGaussianBlur215" />
  </filter>
  <filter
     id="ak"
     height="1.546667"
     width="1.546667"
     x="-.273333"
     y="-.273333">
    <feGaussianBlur
       stdDeviation="3.5813918"
       id="feGaussianBlur218" />
  </filter>
  <filter
     id="al"
     height="1.48"
     width="1.48"
     x="-.24"
     y="-.24">
    <feGaussianBlur
       stdDeviation="3.1446367"
       id="feGaussianBlur221" />
  </filter>
  <filter
     id="am"
     height="1.604646"
     width="1.604646"
     x="-.302323"
     y="-.302323">
    <feGaussianBlur
       stdDeviation="3.9612318"
       id="feGaussianBlur224" />
  </filter>
  <path
     style="fill:#f3b7d9;stroke:#9d3a9b;stroke-width:0.5;stroke-miterlimit:4;stroke-dasharray:none"
     inkscape:connector-curvature="0"
     id="path231"
     d="M 1,1 H 13 V 13 H 1 Z" />
  <path
     inkscape:connector-curvature="0"
     style="opacity:0.29946504;fill:url(#radialGradient1272)"
     id="path233"
     d="M 2,2 H 12 V 12 H 2 Z" />
  <path
     inkscape:connector-curvature="0"
     style="fill:url(#b)"
     id="path235"
     d="m 2,2 h 10 v 9 H 2 Z" />
  <g
     id="g363"
     transform="matrix(0.23469834,0,0,0.23469834,-36.441238,-16.402408)"
     clip-path="url(#ac)">
    <g
       id="g297"
       transform="matrix(0.35249676,0,0,0.35249676,163.55763,76.569774)">
      <g
         style="fill-rule:evenodd"
         id="g261">
        <path
           style="fill:#c8cddc;filter:url(#D)"
           inkscape:connector-curvature="0"
           id="path237"
           transform="matrix(1.0059645,0,0,1.0053055,103.05489,-34.059089)"
           d="m -98.9545,147.40533 1.14644,1.21967 c 15.64476,8.91215 36.43722,8.5 49.80806,8.5 13.37084,0 34.60524,0.41215 50.25,-8.5 l 1.5,-1.75 c -32.9308,-25.78368 -88.77254,-47.21838 -102.7045,0.53033 z" />
        <path
           style="fill:#ddc2a4"
           inkscape:connector-curvature="0"
           id="path239"
           d="m 73.403249,48.295662 c 1.923342,-0.162934 3.799245,-1.52128 5.957331,-11.640304 0.208847,-2.106673 -2.601866,-2.306109 -2.756373,-0.444288 -2.089812,4.028202 -3.005488,8.056411 -3.200958,12.084592 z" />
        <path
           style="fill:#ddc2a4"
           inkscape:connector-curvature="0"
           id="path241"
           d="m 35.980896,49.717379 c -1.923346,-0.162934 -3.799249,-1.521314 -5.957334,-11.640293 -0.208848,-2.106674 2.601865,-2.306137 2.756372,-0.444288 2.089812,4.028202 3.005492,8.056366 3.200962,12.084581 z" />
        <path
           style="fill:#cbb7a2"
           inkscape:connector-curvature="0"
           id="path243"
           d="m 38.924665,51.517533 c 1.522237,7.240557 5.775484,23.520516 0.502983,27.394571 0.650325,7.036923 7.120818,9.695095 15.089463,11.246857 h 1.508948 C 63.994707,88.607199 70.465197,85.949027 71.115526,78.912104 65.843025,75.038049 70.096272,58.75809 71.618505,51.517533 l -16.346916,7.445532 z" />
        <path
           inkscape:connector-curvature="0"
           style="fill:url(#radialGradient1274)"
           id="path245"
           d="m 38.924665,51.517533 c 1.522237,7.240557 5.775484,23.520516 0.502983,27.394571 0.650325,7.036923 7.120818,9.695095 15.089463,11.246857 h 1.508948 C 63.994707,88.607199 70.465197,85.949027 71.115526,78.912104 65.843025,75.038049 70.096272,58.75809 71.618505,51.517533 l -16.346916,7.445532 z" />
        <path
           inkscape:connector-curvature="0"
           style="opacity:0.74906401;fill:url(#radialGradient1276)"
           id="path247"
           d="m 71.618505,51.517533 c -1.522233,7.240557 -5.77548,23.520516 -0.502979,27.394571 -0.650329,7.036923 -7.120819,9.695095 -15.089467,11.246857 H 54.517111 C 46.548466,88.607199 40.077973,85.949027 39.427648,78.912104 44.700149,75.038049 40.446902,58.75809 38.924665,51.517533 l 16.346924,7.445532 z" />
        <path
           style="fill:#382509;filter:url(#A)"
           inkscape:connector-curvature="0"
           id="path249"
           transform="matrix(1.0059645,0,0,1.0053055,-271.46562,-360.28069)"
           d="m 324.17882,363.78125 c -7.77656,0.205 -13.87771,5.86053 -17.00625,12.8125 -3.18672,7.08121 -2.72281,15.53626 -0.8125,25.3125 1.91032,9.77623 5.28827,19.94656 8.475,23.625 3.0204,3.48645 6.88924,2.85632 9.34375,2.78125 0.1258,0 0.30234,-0.004 0.4375,0 2.45451,0.0751 6.32335,0.7052 9.34375,-2.78125 3.18673,-3.67844 7.56468,-13.84877 9.475,-23.625 1.91033,-9.77624 2.37422,-18.23129 -0.8125,-25.3125 -3.12855,-6.95197 -10.22969,-12.6075 -18.00625,-12.8125 z"
           clip-path="url(#B)" />
        <path
           inkscape:connector-curvature="0"
           style="fill:url(#radialGradient1278)"
           id="path251"
           d="M 54.665563,5.3991564 C 46.842622,5.6052254 37.787786,11.290762 34.640587,18.279618 31.43486,25.39839 31.901537,33.898301 33.823241,43.72642 c 1.921714,9.828099 8.237108,20.052352 11.442841,23.75033 3.038417,3.504942 6.93033,2.871473 9.399481,2.795993 0.126549,0 0.304142,-0.0041 0.44011,0 2.469151,0.07548 6.361064,0.708949 9.399481,-2.795993 C 67.710887,63.778772 74.026281,53.554519 75.947995,43.72642 77.869723,33.898301 78.336376,25.39839 75.130649,18.279618 71.98344,11.290762 62.928614,5.6052254 55.105673,5.3991564 Z" />
        <path
           inkscape:connector-curvature="0"
           style="fill:url(#linearGradient1280)"
           id="path253"
           transform="matrix(1.0059645,0,0,1.0053055,-360.33441,-359.22512)"
           mask="url(#z)"
           d="m 391.84841,400.84559 c 3.67809,10.12978 8.18827,19.94656 11.375,23.625 3.0204,3.48645 6.88924,2.85632 9.34375,2.78125 0.1258,0 0.30234,-0.004 0.4375,0 2.45451,0.0751 6.32335,0.7052 9.34375,-2.78125 3.18673,-3.67844 8.05047,-13.84877 11.375,-23.625 z" />
        <path
           inkscape:connector-curvature="0"
           style="fill:url(#linearGradient1282);filter:url(#y)"
           id="path255"
           transform="matrix(1.0059645,0,0,1.0053055,103.05489,-34.059089)"
           d="m -34.57938,94.15885 c -2.03036,3.63213 -3.0434,3.30165 -5.10812,5.8099 -2.86612,3.30838 -6.79588,2.25873 -9.125,2.1875 -0.12825,-0.004 -0.28689,-1e-5 -0.40625,0 -2.32915,0.0712 -6.30889,0.68335 -9.175,-2.625 -0.32265,-0.37242 -0.71291,-0.83899 -1.09375,-1.34375 0.74015,1.06708 1.48636,2.02247 2.0625,2.6875 2.86612,3.30835 6.81462,2.69624 9.14375,2.625 0.11936,1e-5 0.30924,-0.004 0.4375,0 2.32911,0.0713 5.97763,0.68336 8.84375,-2.625 1.4015,-1.61776 2.41748,-3.10243 4.42062,-6.71615 z" />
        <path
           inkscape:connector-curvature="0"
           style="fill:url(#radialGradient1284);filter:url(#w)"
           id="path257"
           transform="matrix(-1.0059645,0,0,1.0053055,424.44171,-361.70241)"
           d="m 347.29991,395.43789 c -0.0925,-0.73861 -1.15458,-0.0553 -1.23744,0.88388 -0.0829,0.93913 0.75464,3.21422 0.90599,2.87262 1.21215,-2.73577 0.46272,-2.70792 0.33145,-3.7565 z" />
        <path
           inkscape:connector-curvature="0"
           style="fill:url(#radialGradient1286);filter:url(#w)"
           id="path259"
           transform="matrix(1.0059645,0,0,1.0053055,103.05489,-34.059089)"
           d="m -68.3336,70.93789 c -0.09247,-0.73861 -1.15458,-0.05525 -1.23744,0.88388 -0.08286,0.93913 0.75464,3.21422 0.90599,2.87262 1.21215,-2.73577 0.46272,-2.70792 0.33145,-3.7565 z" />
      </g>
      <path
         inkscape:connector-curvature="0"
         style="fill:url(#linearGradient1288);filter:url(#u)"
         id="path263"
         transform="matrix(1.0059645,0,0,1.0053055,-271.84166,-360.28069)"
         d="m 324.5,363.375 c -12.558,0 -22.74999,10.19201 -22.75,22.75 0,3.49706 -0.34202,6.96567 1.0697,9.92678 L 304,396.91529 c 2.57247,-4.54407 0.92256,-8.09951 2,-12.04029 1,-2.5 2.58874,-4.663 5,-5.5 4.29826,-1.49201 10.81729,4.17868 13.5,4.25 2.90006,0.0771 9.05852,-5.34646 13.46875,-4.05 2.43629,0.71618 4.44027,3.0071 5,5.5 1.04798,4.66743 1.59553,6.25655 2.0026,11.27963 l 1.18306,-0.60463 c 1.37425,-2.92891 1.09559,-6.17758 1.09559,-9.625 0,-12.558 -10.19199,-22.74999 -22.75,-22.75 z"
         clip-path="url(#v)" />
      <path
         style="fill:#b09278"
         inkscape:connector-curvature="0"
         id="path265"
         d="m 54.768603,5.0221546 c -12.632899,0 -22.885676,10.2460854 -22.885687,22.8707024 0,3.5156 -0.344062,7.002607 1.076081,9.979453 l 1.187338,0.868075 c 2.587813,-4.568186 0.928062,-8.645127 2.01193,-12.60682 1.005965,-2.513269 2.604179,-4.687741 5.029819,-5.529181 4.323899,-1.499916 10.88181,4.200858 13.580519,4.272562 2.917358,0.0775 9.112547,-2.135552 13.549081,-0.83223 2.450822,0.719992 4.466756,3.02306 5.029822,5.52918 1.054231,4.692193 1.605048,3.55312 2.014547,8.602853 l 1.190116,-0.607845 c 1.382446,-2.944439 1.102123,-6.210335 1.102123,-9.676047 0,-12.624617 -10.252777,-22.8707024 -22.885689,-22.8707024 z" />
      <path
         inkscape:connector-curvature="0"
         style="fill:url(#radialGradient1290)"
         id="path267"
         d="M 54.768603,5.0221546 C 46.69594,9.4065202 45.000549,12.012847 41.188084,20.604384 c 4.323899,-1.499916 10.88181,4.200858 13.580519,4.272562 2.917358,0.0775 9.704242,-2.511838 14.140776,-1.208517 2.450822,0.719993 4.466756,3.023061 5.029822,5.529181 1.05423,4.692193 1.013353,3.929406 1.422852,8.979139 l 1.190116,-0.607845 c 1.382446,-2.944439 1.102123,-6.210335 1.102123,-9.676047 0,-12.624617 -10.252777,-22.8707024 -22.885689,-22.8707024 z" />
      <path
         inkscape:connector-curvature="0"
         style="fill:url(#linearGradient1292);filter:url(#t)"
         id="path269"
         transform="matrix(1.0059645,0,0,1.0053055,-272.17782,-360.28069)"
         d="m 312.54197,377.13598 c -0.59485,-0.0263 -1.18147,0.0448 -1.71875,0.21875 -2.41126,0.78087 -4.44194,3.60538 -5.44194,6.08211 -0.92612,4.1784 0.39346,5.94573 -0.49464,11.15501 0.84705,-3.03043 0.69815,-9.51676 0.93658,-10.42462 1,-2.50001 2.58874,-4.663 5,-5.5 4.29826,-1.49202 10.81729,4.17868 13.5,4.25 2.90006,0.0771 9.05852,-2.12428 13.46875,-0.82782 2.43629,0.71617 4.44027,3.0071 5,5.5 v -0.5625 c -0.55973,-2.50593 -2.56371,-4.8521 -5,-5.625 -4.41023,-1.39914 -10.12675,-0.66589 -13.02681,-0.81051 -2.34737,-0.11705 -8.05923,-3.27163 -12.22319,-3.45542 z"
         clip-path="none" />
      <g
         style="fill-rule:evenodd"
         id="g295">
        <path
           inkscape:connector-curvature="0"
           style="opacity:0.88014981;fill:url(#linearGradient1294);filter:url(#s)"
           id="path271"
           transform="matrix(1.0059645,0,0,1.0053055,103.05489,-34.059089)"
           d="m -39.6875,56.221855 c 5.490352,-0.197478 -5.37217,-1.720195 -9.01956,-2.301355 -5.891562,-0.938737 -13.74889,-4.05702 -14.84149,-6.96579 -0.71516,-1.90391 4.892,-4.76519 4.54855,-3.84253 -0.65577,1.86233 -1.47583,3.56833 3.125,7.625 2.30198,1.77729 4.87994,3.83927 8.375,4.125 2.5,0.26777 5.3125,1.832065 7.8125,1.359675 z" />
        <path
           inkscape:connector-curvature="0"
           style="fill:url(#linearGradient1296);filter:url(#r)"
           id="path273"
           transform="matrix(1.0059645,0,0,1.0053055,102.2077,-34.059089)"
           d="m -29.75,50.61218 2.25,4.5 c 1.52892,6.14118 0.92245,5.35732 0.73483,8.33318 C -28.54202,59.02869 -27.22154,56.27885 -33,53.11218 l -6.25,-4 z" />
        <path
           inkscape:connector-curvature="0"
           style="opacity:0.33333297;fill:url(#linearGradient1298);filter:url(#q)"
           id="path275"
           transform="matrix(1.0059645,0,0,1.0053055,103.05489,-34.059089)"
           d="m -68.53033,81.05152 1.375,-2.5 c 0,0 -1.25,-3.125 -1.25,-4 0,-0.875 -0.88886,-3.4545 -0.88886,-3.4545 l -0.72791,0.47032 z" />
        <path
           inkscape:connector-curvature="0"
           style="fill:url(#linearGradient1300)"
           id="path277"
           d="m 55.570237,85.133393 c -10.3039,0.287646 -13.447219,-3.97465 -14.33499,-7.733178 -1.285414,0.211168 -2.04596,1.232637 -2.01193,2.010599 -7.125576,2.849902 -15.741169,5.722579 -23.388669,9.550396 -2.83865,1.420857 -6.072616,5.75072 -6.916005,8.042463 -2.572232,6.989447 -5.407061,16.838837 -5.407061,16.838837 l 1.508948,1.75932 c 15.73807,8.95942 37.099121,8.5451 50.549707,8.5451 13.450588,0 34.811639,0.41432 50.549703,-8.5451 l 1.50895,-1.75932 c 0,0 -2.83483,-9.84939 -5.40706,-16.838837 -0.84339,-2.291743 -4.07735,-6.621606 -6.916,-8.042463 -7.647505,-3.827817 -16.263098,-6.700494 -23.388674,-9.550396 0.03403,-0.777962 -0.726516,-1.799431 -2.01193,-2.010599 -2.428022,3.762485 -4.031087,7.445532 -14.334989,7.733178 z" />
        <path
           inkscape:connector-curvature="0"
           style="opacity:0.322097;fill:url(#linearGradient1302);filter:url(#p)"
           id="path279"
           transform="matrix(1.0059645,0,0,1.0053055,103.05489,-34.059089)"
           d="m -78.34358,152.98437 c -3.91725,-13.01958 -5.49592,-19.83203 3.53553,-26.87006 l 19.09189,-5.65686 -8.48528,-6.36395 -19.79899,7.77817 -10.6066,12.72792 c 0,0 -4.24265,9.8995 -1.41422,11.31371 2.82843,1.41422 9.8995,5.65686 9.8995,5.65686 z" />
        <path
           inkscape:connector-curvature="0"
           style="fill:url(#linearGradient1304);filter:url(#n)"
           id="path281"
           transform="matrix(1.0059645,0,0,1.0053055,-357.03287,-360.28069)"
           d="m 395.90625,435.375 c -1.27778,0.21006 -2.03383,1.22613 -2,2 -7.08332,2.83488 -15.64784,5.69235 -23.25,9.5 -2.82181,1.41335 -6.03661,5.72037 -6.875,8 -2.55697,6.95256 -5.375,16.75 -5.375,16.75 l 1.5,1.75 c 15.64477,8.91215 36.87916,8.5 50.25,8.5 13.37085,0 34.60524,0.41215 50.25,-8.5 l 1.5,-1.75 c 10e-6,0 -2.81802,-9.79744 -5.375,-16.75 -0.83838,-2.27963 -4.05318,-6.58665 -6.875,-8 -7.60215,-3.80765 -16.16667,-6.66512 -23.25,-9.5 0.0338,-0.77387 -0.72221,-1.78994 -2,-2 -2.41362,3.74264 -4.00719,7.40137 -14.25,7.6875 -0.64018,0.0179 -1.25799,0.0163 -1.84375,0 0.80243,0.0468 1.64422,0.0883 2.5625,0.0625 9.79135,-0.27525 11.31776,-3.80588 13.625,-7.40625 1.22147,0.20208 1.93858,1.19304 1.90625,1.9375 6.77112,2.72711 14.95165,5.46211 22.21875,9.125 2.69745,1.35963 5.79232,5.52579 6.59375,7.71875 2.44429,6.68826 5.12499,16.09377 5.125,16.09375 l -1.4375,1.6875 c -14.95522,8.57336 -35.24974,8.18749 -48.03125,8.1875 -12.78153,0 -34.57865,1.62329 -49.53385,-6.95006 l -1.52589,-3.01333 c 0,0 3.74138,-14.97395 6.89277,-17.2428 1.89483,-1.36419 3.71952,-5.12167 6.41697,-6.48131 7.2671,-3.6629 15.44762,-6.39789 22.21875,-9.125 -0.0206,-0.47514 0.25339,-1.06595 0.78125,-1.46875 -0.0867,-0.26793 -0.15627,-0.54781 -0.21875,-0.8125 z"
           clip-path="url(#o)" />
        <path
           inkscape:connector-curvature="0"
           style="fill:url(#linearGradient1306);filter:url(#k)"
           id="path283"
           transform="matrix(1.0059645,0,0,1.0053055,103.05489,-34.059089)"
           d="m -84.125,124.875 -1,1.75 c 4.03714,8.1176 5.20663,18.14697 7.4375,27.46875 -6.98354,-1.21816 -13.72843,-3.25291 -19.8125,-6.71875 v 0.4375 c 15.64477,8.91216 36.87916,8.5 50.25,8.5 13.37085,1e-5 34.60524,0.41215 50.25,-8.5 l 1.5,-1.75 -1.833441,1.48405 c -15.64475,8.91216 -36.545719,8.46226 -49.916559,8.46226 -7.45098,0 -17.33699,-0.57992 -27.34375,-2.00881 -3.17708,-14.39161 -6.35417,-22.16587 -9.53125,-29.125 z" />
        <path
           style="fill:#f9ccca;stroke:#9c0f0f;stroke-width:0.07738;filter:url(#i)"
           inkscape:connector-curvature="0"
           id="path285"
           transform="matrix(1.0059645,0,0,1.0053055,-425.2807,-360.27676)"
           d="m 463.75,435.375 c -1.27779,0.21006 -2.03383,1.22613 -2,2 -0.0793,0.0317 -0.17038,0.062 -0.25,0.0937 1.25202,4.0018 5.15727,8.27208 16.75,7.96875 11.50018,-0.3009 13.82799,-3.95877 16.46875,-7.875 -0.15115,-0.06 -0.3189,-0.12753 -0.46875,-0.1875 0.0338,-0.77387 -0.72221,-1.78994 -2,-2 -2.41363,3.74264 -4.00719,7.40137 -14.25,7.6875 -10.24281,0.28614 -13.36749,-3.94879 -14.25,-7.6875 z m 33.71875,3.25 c 0.0532,0.16802 0.10109,0.31159 0.0937,0.46875 4.20807,1.57746 8.83741,3.15593 13.5625,4.875 -4.63354,-1.95913 -9.30506,-3.67529 -13.65625,-5.34375 z"
           clip-path="url(#j)" />
        <path
           inkscape:connector-curvature="0"
           style="fill:url(#linearGradient1308);filter:url(#h)"
           id="path287"
           transform="matrix(1.0059645,0,0,1.0053055,103.05489,-34.059089)"
           d="m -59.25169,118.68969 -17.32412,0.70711 15.20279,-2.12132 z" />
        <path
           inkscape:connector-curvature="0"
           style="fill:url(#linearGradient1310);filter:url(#h)"
           id="path289"
           transform="matrix(0.3417414,0.9455184,0.9461381,-0.3415175,-540.77608,-70.969975)"
           d="m 371.74831,469.68969 -17.32412,0.70711 15.20279,-2.12132 z" />
        <path
           inkscape:connector-curvature="0"
           style="opacity:0.5;fill:url(#linearGradient1312);filter:url(#p)"
           id="path291"
           transform="matrix(-1.0059645,0,0,1.0053055,383.00502,-360.28069)"
           d="m 294.15642,477.48437 c -3.91725,-13.01958 -5.49592,-19.83203 3.53553,-26.87006 l 19.09189,-5.65686 -8.48528,-6.36395 -19.79899,7.77817 -10.6066,12.72792 c 0,0 -4.24265,9.8995 -1.41422,11.31371 2.82843,1.41422 9.8995,5.65686 9.8995,5.65686 z" />
        <path
           inkscape:connector-curvature="0"
           style="opacity:0.06367002;fill:url(#linearGradient1314);stroke:url(#linearGradient1316);stroke-width:0.15476;filter:url(#e)"
           id="path293"
           transform="matrix(1.0059645,0,0,1.0053055,103.05489,-34.059089)"
           d="m -59.2517,120.45746 -7.07106,17.67767 z" />
      </g>
    </g>
    <g
       style="opacity:0.712871;filter:url(#E)"
       id="g361"
       transform="matrix(1.0487757,0,0,1.0487757,154.27139,59.399679)"
       clip-path="url(#F)">
      <g
         id="g359"
         transform="matrix(0.3361031,0,0,0.3361031,8.727204,16.371561)">
        <g
           style="fill-rule:evenodd"
           id="g323">
          <path
             style="fill:#c8cddc;filter:url(#D)"
             inkscape:connector-curvature="0"
             id="path299"
             transform="matrix(1.0059645,0,0,1.0053055,103.05489,-34.059089)"
             d="m -98.9545,147.40533 1.14644,1.21967 c 15.64476,8.91215 36.43722,8.5 49.80806,8.5 13.37084,0 34.60524,0.41215 50.25,-8.5 l 1.5,-1.75 c -32.9308,-25.78368 -88.77254,-47.21838 -102.7045,0.53033 z" />
          <path
             style="fill:#ddc2a4"
             inkscape:connector-curvature="0"
             id="path301"
             d="m 73.403249,48.295662 c 1.923342,-0.162934 3.799245,-1.52128 5.957331,-11.640304 0.208847,-2.106673 -2.601866,-2.306109 -2.756373,-0.444288 -2.089812,4.028202 -3.005488,8.056411 -3.200958,12.084592 z" />
          <path
             style="fill:#ddc2a4"
             inkscape:connector-curvature="0"
             id="path303"
             d="m 35.980896,49.717379 c -1.923346,-0.162934 -3.799249,-1.521314 -5.957334,-11.640293 -0.208848,-2.106674 2.601865,-2.306137 2.756372,-0.444288 2.089812,4.028202 3.005492,8.056366 3.200962,12.084581 z" />
          <path
             style="fill:#cbb7a2"
             inkscape:connector-curvature="0"
             id="path305"
             d="m 38.924665,51.517533 c 1.522237,7.240557 5.775484,23.520516 0.502983,27.394571 0.650325,7.036923 7.120818,9.695095 15.089463,11.246857 h 1.508948 C 63.994707,88.607199 70.465197,85.949027 71.115526,78.912104 65.843025,75.038049 70.096272,58.75809 71.618505,51.517533 l -16.346916,7.445532 z" />
          <path
             inkscape:connector-curvature="0"
             style="fill:url(#G)"
             id="path307"
             d="m 38.924665,51.517533 c 1.522237,7.240557 5.775484,23.520516 0.502983,27.394571 0.650325,7.036923 7.120818,9.695095 15.089463,11.246857 h 1.508948 C 63.994707,88.607199 70.465197,85.949027 71.115526,78.912104 65.843025,75.038049 70.096272,58.75809 71.618505,51.517533 l -16.346916,7.445532 z" />
          <path
             inkscape:connector-curvature="0"
             style="opacity:0.74906401;fill:url(#H)"
             id="path309"
             d="m 71.618505,51.517533 c -1.522233,7.240557 -5.77548,23.520516 -0.502979,27.394571 -0.650329,7.036923 -7.120819,9.695095 -15.089467,11.246857 H 54.517111 C 46.548466,88.607199 40.077973,85.949027 39.427648,78.912104 44.700149,75.038049 40.446902,58.75809 38.924665,51.517533 l 16.346924,7.445532 z" />
          <path
             style="fill:#382509;filter:url(#A)"
             inkscape:connector-curvature="0"
             id="path311"
             transform="matrix(1.0059645,0,0,1.0053055,-271.46562,-360.28069)"
             d="m 324.17882,363.78125 c -7.77656,0.205 -13.87771,5.86053 -17.00625,12.8125 -3.18672,7.08121 -2.72281,15.53626 -0.8125,25.3125 1.91032,9.77623 5.28827,19.94656 8.475,23.625 3.0204,3.48645 6.88924,2.85632 9.34375,2.78125 0.1258,0 0.30234,-0.004 0.4375,0 2.45451,0.0751 6.32335,0.7052 9.34375,-2.78125 3.18673,-3.67844 7.56468,-13.84877 9.475,-23.625 1.91033,-9.77624 2.37422,-18.23129 -0.8125,-25.3125 -3.12855,-6.95197 -10.22969,-12.6075 -18.00625,-12.8125 z"
             clip-path="url(#B)" />
          <path
             inkscape:connector-curvature="0"
             style="fill:url(#radialGradient1318)"
             id="path313"
             d="M 54.665563,5.3991564 C 46.842622,5.6052254 37.787786,11.290762 34.640587,18.279618 31.43486,25.39839 31.901537,33.898301 33.823241,43.72642 c 1.921714,9.828099 8.237108,20.052352 11.442841,23.75033 3.038417,3.504942 6.93033,2.871473 9.399481,2.795993 0.126549,0 0.304142,-0.0041 0.44011,0 2.469151,0.07548 6.361064,0.708949 9.399481,-2.795993 C 67.710887,63.778772 74.026281,53.554519 75.947995,43.72642 77.869723,33.898301 78.336376,25.39839 75.130649,18.279618 71.98344,11.290762 62.928614,5.6052254 55.105673,5.3991564 Z" />
          <path
             inkscape:connector-curvature="0"
             style="fill:url(#linearGradient1320)"
             id="path315"
             transform="matrix(1.0059645,0,0,1.0053055,-360.33441,-359.22512)"
             mask="url(#z)"
             d="m 391.84841,400.84559 c 3.67809,10.12978 8.18827,19.94656 11.375,23.625 3.0204,3.48645 6.88924,2.85632 9.34375,2.78125 0.1258,0 0.30234,-0.004 0.4375,0 2.45451,0.0751 6.32335,0.7052 9.34375,-2.78125 3.18673,-3.67844 8.05047,-13.84877 11.375,-23.625 z" />
          <path
             inkscape:connector-curvature="0"
             style="fill:url(#linearGradient1322);filter:url(#y)"
             id="path317"
             transform="matrix(1.0059645,0,0,1.0053055,103.05489,-34.059089)"
             d="m -34.57938,94.15885 c -2.03036,3.63213 -3.0434,3.30165 -5.10812,5.8099 -2.86612,3.30838 -6.79588,2.25873 -9.125,2.1875 -0.12825,-0.004 -0.28689,-1e-5 -0.40625,0 -2.32915,0.0712 -6.30889,0.68335 -9.175,-2.625 -0.32265,-0.37242 -0.71291,-0.83899 -1.09375,-1.34375 0.74015,1.06708 1.48636,2.02247 2.0625,2.6875 2.86612,3.30835 6.81462,2.69624 9.14375,2.625 0.11936,1e-5 0.30924,-0.004 0.4375,0 2.32911,0.0713 5.97763,0.68336 8.84375,-2.625 1.4015,-1.61776 2.41748,-3.10243 4.42062,-6.71615 z" />
          <path
             inkscape:connector-curvature="0"
             style="fill:url(#L);filter:url(#w)"
             id="path319"
             transform="matrix(-1.0059645,0,0,1.0053055,424.44171,-361.70241)"
             d="m 347.29991,395.43789 c -0.0925,-0.73861 -1.15458,-0.0553 -1.23744,0.88388 -0.0829,0.93913 0.75464,3.21422 0.90599,2.87262 1.21215,-2.73577 0.46272,-2.70792 0.33145,-3.7565 z" />
          <path
             inkscape:connector-curvature="0"
             style="fill:url(#M);filter:url(#w)"
             id="path321"
             transform="matrix(1.0059645,0,0,1.0053055,103.05489,-34.059089)"
             d="m -68.3336,70.93789 c -0.09247,-0.73861 -1.15458,-0.05525 -1.23744,0.88388 -0.08286,0.93913 0.75464,3.21422 0.90599,2.87262 1.21215,-2.73577 0.46272,-2.70792 0.33145,-3.7565 z" />
        </g>
        <path
           inkscape:connector-curvature="0"
           style="fill:url(#N);filter:url(#u)"
           id="path325"
           transform="matrix(1.0059645,0,0,1.0053055,-271.84166,-360.28069)"
           d="m 324.5,363.375 c -12.558,0 -22.74999,10.19201 -22.75,22.75 0,3.49706 -0.34202,6.96567 1.0697,9.92678 L 304,396.91529 c 2.57247,-4.54407 0.92256,-8.09951 2,-12.04029 1,-2.5 2.58874,-4.663 5,-5.5 4.29826,-1.49201 10.81729,4.17868 13.5,4.25 2.90006,0.0771 9.05852,-5.34646 13.46875,-4.05 2.43629,0.71618 4.44027,3.0071 5,5.5 1.04798,4.66743 1.59553,6.25655 2.0026,11.27963 l 1.18306,-0.60463 c 1.37425,-2.92891 1.09559,-6.17758 1.09559,-9.625 0,-12.558 -10.19199,-22.74999 -22.75,-22.75 z"
           clip-path="url(#v)" />
        <path
           style="fill:#b09278"
           inkscape:connector-curvature="0"
           id="path327"
           d="m 54.768603,5.0221546 c -12.632899,0 -22.885676,10.2460854 -22.885687,22.8707024 0,3.5156 -0.344062,7.002607 1.076081,9.979453 l 1.187338,0.868075 c 2.587813,-4.568186 0.928062,-8.645127 2.01193,-12.60682 1.005965,-2.513269 2.604179,-4.687741 5.029819,-5.529181 4.323899,-1.499916 10.88181,4.200858 13.580519,4.272562 2.917358,0.0775 9.112547,-2.135552 13.549081,-0.83223 2.450822,0.719992 4.466756,3.02306 5.029822,5.52918 1.054231,4.692193 1.605048,3.55312 2.014547,8.602853 l 1.190116,-0.607845 c 1.382446,-2.944439 1.102123,-6.210335 1.102123,-9.676047 0,-12.624617 -10.252777,-22.8707024 -22.885689,-22.8707024 z" />
        <path
           inkscape:connector-curvature="0"
           style="fill:url(#radialGradient1324)"
           id="path329"
           d="M 54.768603,5.0221546 C 46.69594,9.4065202 45.000549,12.012847 41.188084,20.604384 c 4.323899,-1.499916 10.88181,4.200858 13.580519,4.272562 2.917358,0.0775 9.704242,-2.511838 14.140776,-1.208517 2.450822,0.719993 4.466756,3.023061 5.029822,5.529181 1.05423,4.692193 1.013353,3.929406 1.422852,8.979139 l 1.190116,-0.607845 c 1.382446,-2.944439 1.102123,-6.210335 1.102123,-9.676047 0,-12.624617 -10.252777,-22.8707024 -22.885689,-22.8707024 z" />
        <path
           inkscape:connector-curvature="0"
           style="fill:url(#linearGradient1326);filter:url(#t)"
           id="path331"
           transform="matrix(1.0059645,0,0,1.0053055,-272.17782,-360.28069)"
           d="m 312.54197,377.13598 c -0.59485,-0.0263 -1.18147,0.0448 -1.71875,0.21875 -2.41126,0.78087 -4.44194,3.60538 -5.44194,6.08211 -0.92612,4.1784 0.39346,5.94573 -0.49464,11.15501 0.84705,-3.03043 0.69815,-9.51676 0.93658,-10.42462 1,-2.50001 2.58874,-4.663 5,-5.5 4.29826,-1.49202 10.81729,4.17868 13.5,4.25 2.90006,0.0771 9.05852,-2.12428 13.46875,-0.82782 2.43629,0.71617 4.44027,3.0071 5,5.5 v -0.5625 c -0.55973,-2.50593 -2.56371,-4.8521 -5,-5.625 -4.41023,-1.39914 -10.12675,-0.66589 -13.02681,-0.81051 -2.34737,-0.11705 -8.05923,-3.27163 -12.22319,-3.45542 z"
           clip-path="none" />
        <g
           style="fill-rule:evenodd"
           id="g357">
          <path
             inkscape:connector-curvature="0"
             style="opacity:0.88014981;fill:url(#Q);filter:url(#s)"
             id="path333"
             transform="matrix(1.0059645,0,0,1.0053055,103.05489,-34.059089)"
             d="m -39.6875,56.221855 c 5.490352,-0.197478 -5.37217,-1.720195 -9.01956,-2.301355 -5.891562,-0.938737 -13.74889,-4.05702 -14.84149,-6.96579 -0.71516,-1.90391 4.892,-4.76519 4.54855,-3.84253 -0.65577,1.86233 -1.47583,3.56833 3.125,7.625 2.30198,1.77729 4.87994,3.83927 8.375,4.125 2.5,0.26777 5.3125,1.832065 7.8125,1.359675 z" />
          <path
             inkscape:connector-curvature="0"
             style="fill:url(#linearGradient1328);filter:url(#r)"
             id="path335"
             transform="matrix(1.0059645,0,0,1.0053055,102.2077,-34.059089)"
             d="m -29.75,50.61218 2.25,4.5 c 1.52892,6.14118 0.92245,5.35732 0.73483,8.33318 C -28.54202,59.02869 -27.22154,56.27885 -33,53.11218 l -6.25,-4 z" />
          <path
             inkscape:connector-curvature="0"
             style="opacity:0.33333297;fill:url(#linearGradient1330);filter:url(#q)"
             id="path337"
             transform="matrix(1.0059645,0,0,1.0053055,103.05489,-34.059089)"
             d="m -68.53033,81.05152 1.375,-2.5 c 0,0 -1.25,-3.125 -1.25,-4 0,-0.875 -0.88886,-3.4545 -0.88886,-3.4545 l -0.72791,0.47032 z" />
          <path
             inkscape:connector-curvature="0"
             style="fill:url(#linearGradient1332)"
             id="path339"
             d="m 55.570237,85.133393 c -10.3039,0.287646 -13.447219,-3.97465 -14.33499,-7.733178 -1.285414,0.211168 -2.04596,1.232637 -2.01193,2.010599 -7.125576,2.849902 -15.741169,5.722579 -23.388669,9.550396 -2.83865,1.420857 -6.072616,5.75072 -6.916005,8.042463 -2.572232,6.989447 -5.407061,16.838837 -5.407061,16.838837 l 1.508948,1.75932 c 15.73807,8.95942 37.099121,8.5451 50.549707,8.5451 13.450588,0 34.811639,0.41432 50.549703,-8.5451 l 1.50895,-1.75932 c 0,0 -2.83483,-9.84939 -5.40706,-16.838837 -0.84339,-2.291743 -4.07735,-6.621606 -6.916,-8.042463 -7.647505,-3.827817 -16.263098,-6.700494 -23.388674,-9.550396 0.03403,-0.777962 -0.726516,-1.799431 -2.01193,-2.010599 -2.428022,3.762485 -4.031087,7.445532 -14.334989,7.733178 z" />
          <path
             inkscape:connector-curvature="0"
             style="opacity:0.322097;fill:url(#U);filter:url(#p)"
             id="path341"
             transform="matrix(1.0059645,0,0,1.0053055,103.05489,-34.059089)"
             d="m -78.34358,152.98437 c -3.91725,-13.01958 -5.49592,-19.83203 3.53553,-26.87006 l 19.09189,-5.65686 -8.48528,-6.36395 -19.79899,7.77817 -10.6066,12.72792 c 0,0 -4.24265,9.8995 -1.41422,11.31371 2.82843,1.41422 9.8995,5.65686 9.8995,5.65686 z" />
          <path
             inkscape:connector-curvature="0"
             style="fill:url(#linearGradient1334);filter:url(#n)"
             id="path343"
             transform="matrix(1.0059645,0,0,1.0053055,-357.03287,-360.28069)"
             d="m 395.90625,435.375 c -1.27778,0.21006 -2.03383,1.22613 -2,2 -7.08332,2.83488 -15.64784,5.69235 -23.25,9.5 -2.82181,1.41335 -6.03661,5.72037 -6.875,8 -2.55697,6.95256 -5.375,16.75 -5.375,16.75 l 1.5,1.75 c 15.64477,8.91215 36.87916,8.5 50.25,8.5 13.37085,0 34.60524,0.41215 50.25,-8.5 l 1.5,-1.75 c 10e-6,0 -2.81802,-9.79744 -5.375,-16.75 -0.83838,-2.27963 -4.05318,-6.58665 -6.875,-8 -7.60215,-3.80765 -16.16667,-6.66512 -23.25,-9.5 0.0338,-0.77387 -0.72221,-1.78994 -2,-2 -2.41362,3.74264 -4.00719,7.40137 -14.25,7.6875 -0.64018,0.0179 -1.25799,0.0163 -1.84375,0 0.80243,0.0468 1.64422,0.0883 2.5625,0.0625 9.79135,-0.27525 11.31776,-3.80588 13.625,-7.40625 1.22147,0.20208 1.93858,1.19304 1.90625,1.9375 6.77112,2.72711 14.95165,5.46211 22.21875,9.125 2.69745,1.35963 5.79232,5.52579 6.59375,7.71875 2.44429,6.68826 5.12499,16.09377 5.125,16.09375 l -1.4375,1.6875 c -14.95522,8.57336 -35.24974,8.18749 -48.03125,8.1875 -12.78153,0 -34.57865,1.62329 -49.53385,-6.95006 l -1.52589,-3.01333 c 0,0 3.74138,-14.97395 6.89277,-17.2428 1.89483,-1.36419 3.71952,-5.12167 6.41697,-6.48131 7.2671,-3.6629 15.44762,-6.39789 22.21875,-9.125 -0.0206,-0.47514 0.25339,-1.06595 0.78125,-1.46875 -0.0867,-0.26793 -0.15627,-0.54781 -0.21875,-0.8125 z"
             clip-path="url(#o)" />
          <path
             inkscape:connector-curvature="0"
             style="fill:url(#W);filter:url(#k)"
             id="path345"
             transform="matrix(1.0059645,0,0,1.0053055,103.05489,-34.059089)"
             d="m -84.125,124.875 -1,1.75 c 4.03714,8.1176 5.20663,18.14697 7.4375,27.46875 -6.98354,-1.21816 -13.72843,-3.25291 -19.8125,-6.71875 v 0.4375 c 15.64477,8.91216 36.87916,8.5 50.25,8.5 13.37085,1e-5 34.60524,0.41215 50.25,-8.5 l 1.5,-1.75 -1.833441,1.48405 c -15.64475,8.91216 -36.545719,8.46226 -49.916559,8.46226 -7.45098,0 -17.33699,-0.57992 -27.34375,-2.00881 -3.17708,-14.39161 -6.35417,-22.16587 -9.53125,-29.125 z" />
          <path
             style="fill:#f9ccca;stroke:#9c0f0f;stroke-width:0.07738;filter:url(#i)"
             inkscape:connector-curvature="0"
             id="path347"
             transform="matrix(1.0059645,0,0,1.0053055,-425.2807,-360.27676)"
             d="m 463.75,435.375 c -1.27779,0.21006 -2.03383,1.22613 -2,2 -0.0793,0.0317 -0.17038,0.062 -0.25,0.0937 1.25202,4.0018 5.15727,8.27208 16.75,7.96875 11.50018,-0.3009 13.82799,-3.95877 16.46875,-7.875 -0.15115,-0.06 -0.3189,-0.12753 -0.46875,-0.1875 0.0338,-0.77387 -0.72221,-1.78994 -2,-2 -2.41363,3.74264 -4.00719,7.40137 -14.25,7.6875 -10.24281,0.28614 -13.36749,-3.94879 -14.25,-7.6875 z m 33.71875,3.25 c 0.0532,0.16802 0.10109,0.31159 0.0937,0.46875 4.20807,1.57746 8.83741,3.15593 13.5625,4.875 -4.63354,-1.95913 -9.30506,-3.67529 -13.65625,-5.34375 z"
             clip-path="url(#j)" />
          <path
             inkscape:connector-curvature="0"
             style="fill:url(#X);filter:url(#h)"
             id="path349"
             transform="matrix(1.0059645,0,0,1.0053055,103.05489,-34.059089)"
             d="m -59.25169,118.68969 -17.32412,0.70711 15.20279,-2.12132 z" />
          <path
             inkscape:connector-curvature="0"
             style="fill:url(#Y);filter:url(#h)"
             id="path351"
             transform="matrix(0.3417414,0.9455184,0.9461381,-0.3415175,-540.77608,-70.969975)"
             d="m 371.74831,469.68969 -17.32412,0.70711 15.20279,-2.12132 z" />
          <path
             inkscape:connector-curvature="0"
             style="opacity:0.5;fill:url(#Z);filter:url(#p)"
             id="path353"
             transform="matrix(-1.0059645,0,0,1.0053055,383.00502,-360.28069)"
             d="m 294.15642,477.48437 c -3.91725,-13.01958 -5.49592,-19.83203 3.53553,-26.87006 l 19.09189,-5.65686 -8.48528,-6.36395 -19.79899,7.77817 -10.6066,12.72792 c 0,0 -4.24265,9.8995 -1.41422,11.31371 2.82843,1.41422 9.8995,5.65686 9.8995,5.65686 z" />
          <path
             inkscape:connector-curvature="0"
             style="opacity:0.06367002;fill:url(#linearGradient1336);stroke:url(#linearGradient1338);stroke-width:0.15476;filter:url(#e)"
             id="path355"
             transform="matrix(1.0059645,0,0,1.0053055,103.05489,-34.059089)"
             d="m -59.2517,120.45746 -7.07106,17.67767 z" />
        </g>
      </g>
    </g>
  </g>
  <path
     style="fill:#f0e3ec;stroke:#9d3a9b;stroke-width:0.5;stroke-miterlimit:4;stroke-dasharray:none"
     inkscape:connector-curvature="0"
     id="path373"
     d="M 3,3 H 15 V 15 H 3 Z" />
  <path
     inkscape:connector-curvature="0"
     style="opacity:0.29946504;fill:url(#radialGradient1248)"
     id="path375"
     d="M 4,4 H 14 V 14 H 4 Z" />
  <g
     id="g395"
     transform="matrix(0.11484329,0,0,0.11098748,2.674012,1.00423)"
     clip-path="url(#af)">
    <path
       inkscape:connector-curvature="0"
       style="fill:#ff7e00;fill-opacity:1"
       id="path377"
       d="M 11.223557,27.0802 H 116.25035 V 67.681717 H 11.223557 Z" />
    <path
       inkscape:connector-curvature="0"
       style="fill:#ffc185;fill-opacity:1"
       id="path379"
       d="M 11.223557,67.755539 H 98.835314 V 108.35706 H 11.223557 Z" />
    <g
       style="fill:url(#radialGradient1256)"
       id="g387">
      <circle
         style="fill:url(#radialGradient1250);filter:url(#ai)"
         id="circle381"
         transform="matrix(0.6022433,0,0,0.6355815,11.185916,27.042353)"
         r="15.723184"
         cy="47.169552"
         cx="50.269897" />
      <circle
         style="fill:url(#radialGradient1252);filter:url(#aj)"
         id="circle383"
         transform="matrix(0.6022433,0,0,0.6355815,11.185916,27.042353)"
         r="15.723184"
         cy="47.169552"
         cx="50.269897" />
      <circle
         style="fill:url(#radialGradient1254);filter:url(#al)"
         id="circle385"
         transform="matrix(0.709197,0,0,0.7484557,5.809368,21.718126)"
         r="15.723184"
         cy="47.169552"
         cx="50.269897" />
    </g>
    <circle
       style="opacity:0.627778;fill:#ff7e00;filter:url(#am)"
       id="circle389"
       transform="matrix(3.060609,0,0,0.2647755,-90.409629,32.491805)"
       r="15.723184"
       cy="47.169552"
       cx="50.269897" />
    <circle
       style="opacity:0.627778;fill:#ffeb55;"
       id="circle391"
       transform="matrix(0.903365,0,0,0.9533723,-3.95144,12.052305)"
       r="15.723184"
       cy="47.169552"
       cx="50.269897" />
    <path
       inkscape:connector-curvature="0"
       style="opacity:0.522222;fill:#ffffff;fill-opacity:1"
       id="path393"
       d="M 11.223557,26.863663 H 98.835314 V 56.790417 H 11.223557 Z" />
  </g>
</svg>
