<?xml version="1.0" encoding="UTF-8" standalone="no"?>
<svg
   xmlns:dc="http://purl.org/dc/elements/1.1/"
   xmlns:cc="http://creativecommons.org/ns#"
   xmlns:rdf="http://www.w3.org/1999/02/22-rdf-syntax-ns#"
   xmlns:svg="http://www.w3.org/2000/svg"
   xmlns="http://www.w3.org/2000/svg"
   xmlns:sodipodi="http://sodipodi.sourceforge.net/DTD/sodipodi-0.dtd"
   xmlns:inkscape="http://www.inkscape.org/namespaces/inkscape"
   height="16"
   viewBox="0 0 4.2333333 4.2333335"
   width="16"
   version="1.1"
   id="svg11"
   sodipodi:docname="sc_pie_unfilled.svg"
   inkscape:version="0.92.4 (unknown)"
   inkscape:export-filename="/home/annisaauliarasyidah/Desktop/4_242 (aulia)/sc 222/sc_pie_unfilled.png"
   inkscape:export-xdpi="96"
   inkscape:export-ydpi="96">
  <metadata
     id="metadata17">
    <rdf:RDF>
      <cc:Work
         rdf:about="">
        <dc:format>image/svg+xml</dc:format>
        <dc:type
           rdf:resource="http://purl.org/dc/dcmitype/StillImage" />
      </cc:Work>
    </rdf:RDF>
  </metadata>
  <defs
     id="defs15" />
  <sodipodi:namedview
     pagecolor="#ffffff"
     bordercolor="#666666"
     borderopacity="1"
     objecttolerance="10"
     gridtolerance="10"
     guidetolerance="10"
     inkscape:pageopacity="0"
     inkscape:pageshadow="2"
     inkscape:window-width="1366"
     inkscape:window-height="707"
     id="namedview13"
     showgrid="true"
     inkscape:snap-global="true"
     inkscape:zoom="20.85965"
     inkscape:cx="3.5921413"
     inkscape:cy="8"
     inkscape:window-x="0"
     inkscape:window-y="0"
     inkscape:window-maximized="1"
     inkscape:current-layer="svg11">
    <inkscape:grid
       type="xygrid"
       id="grid824" />
  </sodipodi:namedview>
  <linearGradient
     id="a"
     gradientUnits="userSpaceOnUse"
     x1="7.999878"
     x2="7.999878"
     y1="15.237208"
     y2=".76303">
    <stop
       offset="0"
       stop-color="#7c9fcf"
       id="stop2" />
    <stop
       offset=".5"
       stop-color="#7c9ece"
       id="stop4" />
    <stop
       offset="1"
       stop-color="#7b9dcf"
       id="stop6" />
  </linearGradient>
  <path
     d="M 2.1166666,0.78622986 C 1.6658126,0.78623517 1.2161112,0.91502216 0.88185836,1.1521866 0.54760553,1.38935 0.33069659,1.7451626 0.33072919,2.1166668 0.33069707,2.4881698 0.54760559,2.8439833 0.88185836,3.0811466 1.2161111,3.3183101 1.665813,3.4470982 2.1166666,3.4471035 2.5675204,3.4470982 3.0172223,3.3183101 3.3514751,3.0811466 3.6857278,2.8439833 3.9026364,2.4881698 3.9026042,2.1166668 3.9026109,2.0418124 3.8932305,1.9676544 3.876443,1.8949272 H 2.3399089 V 0.79705701 C 2.2658572,0.79008765 2.1913035,0.78623094 2.1166666,0.78622986 Z m 0,0.22173944 V 2.1166668 H 3.679362 A 1.5626954,1.108697 0 0 1 2.1166666,3.225364 1.5626954,1.108697 0 0 1 0.55397139,2.1166668 1.5626954,1.108697 0 0 1 2.1166666,1.0079693 Z"
     id="path9"
     style="fill:#f3b7d9;stroke:#e602b4;stroke-width:0.13229167;stroke-miterlimit:4;stroke-dasharray:none"
     inkscape:connector-curvature="0" />
</svg>
