<?xml version="1.0" encoding="UTF-8" standalone="no"?>
<svg
   xmlns:dc="http://purl.org/dc/elements/1.1/"
   xmlns:cc="http://creativecommons.org/ns#"
   xmlns:rdf="http://www.w3.org/1999/02/22-rdf-syntax-ns#"
   xmlns:svg="http://www.w3.org/2000/svg"
   xmlns="http://www.w3.org/2000/svg"
   xmlns:sodipodi="http://sodipodi.sourceforge.net/DTD/sodipodi-0.dtd"
   xmlns:inkscape="http://www.inkscape.org/namespaces/inkscape"
   height="24"
   width="24"
   version="1.1"
   id="svg128"
   sodipodi:docname="lc_pasteonlyvalue.svg"
   inkscape:version="0.92.4 (unknown)"
   inkscape:export-filename="/home/annisaauliarasyidah/Desktop/4_242 (aulia)/revisi/sc svg/sc_pasteonlyvalue.png"
   inkscape:export-xdpi="96"
   inkscape:export-ydpi="96">
  <metadata
     id="metadata134">
    <rdf:RDF>
      <cc:Work
         rdf:about="">
        <dc:format>image/svg+xml</dc:format>
        <dc:type
           rdf:resource="http://purl.org/dc/dcmitype/StillImage" />
        <dc:title />
      </cc:Work>
    </rdf:RDF>
  </metadata>
  <defs
     id="defs132" />
  <sodipodi:namedview
     pagecolor="#ffffff"
     bordercolor="#666666"
     borderopacity="1"
     objecttolerance="10"
     gridtolerance="10"
     guidetolerance="10"
     inkscape:pageopacity="0"
     inkscape:pageshadow="2"
     inkscape:window-width="1366"
     inkscape:window-height="707"
     id="namedview130"
     showgrid="true"
     inkscape:zoom="22.081896"
     inkscape:cx="4.8632986"
     inkscape:cy="13.570102"
     inkscape:window-x="0"
     inkscape:window-y="0"
     inkscape:window-maximized="1"
     inkscape:current-layer="svg128"
     inkscape:snap-global="false">
    <inkscape:grid
       type="xygrid"
       id="grid987" />
  </sodipodi:namedview>
  <linearGradient
     id="a"
     gradientUnits="userSpaceOnUse"
     x1="112"
     x2="87.003235"
     y1="112"
     y2="92.992432"
     gradientTransform="scale(0.125)">
    <stop
       offset="0"
       stop-color="#8c8c8c"
       id="stop2" />
    <stop
       offset=".25"
       stop-color="#a8a8a8"
       id="stop4" />
    <stop
       offset=".5"
       stop-color="#c5c5c5"
       id="stop6" />
    <stop
       offset=".75"
       stop-color="#e2e2e2"
       id="stop8" />
    <stop
       offset="1"
       stop-color="#fff"
       id="stop10" />
  </linearGradient>
  <linearGradient
     id="b"
     gradientTransform="matrix(0.11478468,0,0,0.18752649,0.8609315,-1.861014)"
     gradientUnits="userSpaceOnUse"
     x1="80.523918"
     x2="80.523918"
     y1="15.676145"
     y2="32.142143">
    <stop
       offset="0"
       stop-color="#fff"
       id="stop13" />
    <stop
       offset=".50551778"
       stop-color="#8b8b8b"
       id="stop15" />
    <stop
       offset=".50551778"
       stop-color="#a5a5a5"
       id="stop17" />
    <stop
       offset=".65644157"
       stop-color="#f4f4f4"
       id="stop19" />
    <stop
       offset=".80480587"
       stop-color="#bbb"
       id="stop21" />
    <stop
       offset="1"
       stop-color="#b1b1b1"
       id="stop23" />
  </linearGradient>
  <filter
     id="c"
     height="1.227488"
     width="1.075829"
     x="-0.037914999"
     y="-0.113744">
    <feGaussianBlur
       stdDeviation=".75827487"
       id="feGaussianBlur26" />
  </filter>
  <radialGradient
     id="d"
     cx="61.331802"
     cy="49.168488"
     gradientTransform="matrix(0.17435024,0,0,0.24014464,-3.5267387,-10.640524)"
     gradientUnits="userSpaceOnUse"
     r="50.665401">
    <stop
       offset="0"
       id="stop29" />
    <stop
       offset=".43397453"
       stop-color="#171717"
       id="stop31" />
    <stop
       offset=".66038471"
       stop-color="#424242"
       id="stop33" />
    <stop
       offset=".75739998"
       stop-color="#292929"
       id="stop35" />
    <stop
       offset="1"
       stop-color="#1c1c1c"
       id="stop37" />
  </radialGradient>
  <radialGradient
     id="e"
     cx="61.331802"
     cy="66.66819"
     gradientTransform="matrix(0.2072688,0,0,0.47427403,-5.2914391,-24.080916)"
     gradientUnits="userSpaceOnUse"
     r="50.665401">
    <stop
       offset="0"
       stop-color="#878787"
       id="stop40" />
    <stop
       offset=".35530001"
       stop-color="#646464"
       id="stop42" />
    <stop
       offset=".61940002"
       stop-color="#2d2d2d"
       id="stop44" />
    <stop
       offset=".75739998"
       stop-color="#232323"
       id="stop46" />
    <stop
       offset="1"
       stop-color="#1f1f1f"
       id="stop48" />
  </radialGradient>
  <linearGradient
     id="f"
     gradientUnits="userSpaceOnUse"
     x1="78.204185"
     x2="78.204185"
     y1="114.27974"
     y2="59.956783"
     gradientTransform="scale(0.125)">
    <stop
       offset="0"
       stop-color="#343434"
       id="stop51" />
    <stop
       offset="1"
       stop-opacity="0"
       id="stop53" />
  </linearGradient>
  <radialGradient
     id="g"
     cx="106.664"
     cy="117.3336"
     fy="121.10474"
     gradientTransform="matrix(0.50000015,-0.5000004,0.70710696,0.70710661,-29.635422,87.698281)"
     gradientUnits="userSpaceOnUse"
     r="5.3332">
    <stop
       offset="0"
       stop-color="#eefcff"
       id="stop56" />
    <stop
       offset="1"
       stop-color="#eefcff"
       stop-opacity="0"
       id="stop58" />
  </radialGradient>
  <filter
     id="h">
    <feGaussianBlur
       stdDeviation=".20220663"
       id="feGaussianBlur61" />
  </filter>
  <radialGradient
     id="i"
     cx="91.455429"
     cy="103.26143"
     gradientTransform="matrix(0.30324275,0,0,0.31447578,-16.801268,-20.235832)"
     gradientUnits="userSpaceOnUse"
     r="37.361931">
    <stop
       offset="0"
       stop-color="#ededed"
       id="stop64" />
    <stop
       offset=".25000003"
       stop-color="#fff"
       id="stop66" />
    <stop
       offset=".5"
       stop-color="#f6f6f6"
       id="stop68" />
    <stop
       offset="1"
       stop-color="#eee"
       id="stop70" />
  </radialGradient>
  <filter
     id="j">
    <feGaussianBlur
       stdDeviation="2.1720601"
       id="feGaussianBlur73" />
  </filter>
  <linearGradient
     id="k"
     gradientTransform="matrix(0.14955599,0,0,-0.23182204,-1.166564,4.4678124)"
     gradientUnits="userSpaceOnUse"
     x1="74.664803"
     x2="74.664803"
     y1="18.669399"
     y2="8.0030003">
    <stop
       offset="0"
       stop-color="#fff"
       id="stop76" />
    <stop
       offset="1"
       stop-color="#555"
       id="stop78" />
  </linearGradient>
  <filter
     id="l"
     height="1.232813"
     width="1.128976"
     x="-0.064488001"
     y="-0.116406">
    <feGaussianBlur
       stdDeviation=".80190058"
       id="feGaussianBlur81" />
  </filter>
  <g
     id="g879"
     transform="matrix(1,0,0,1.0194051,0,-0.44036586)"
     style="stroke-width:0.99043643">
    <g
       style="stroke-width:1.01966989"
       id="g925"
       transform="matrix(0.94348278,0,0,1,0.32576556,7.8652678)">
      <rect
         ry="1.4714464"
         rx="1.5898544"
         y="-4.3137088"
         x="1.2445743"
         height="18.948441"
         width="17.95443"
         id="rect925"
         style="opacity:1;fill:#f3b7d9;fill-opacity:1;fill-rule:evenodd;stroke:#e602b4;stroke-width:1.01966989;stroke-linecap:round;stroke-linejoin:round;stroke-miterlimit:4;stroke-dasharray:none;stroke-opacity:1;paint-order:markers fill stroke" />
      <rect
         style="opacity:1;fill:#f0e3ec;fill-opacity:1;fill-rule:evenodd;stroke:#9d3a9b;stroke-width:0.50983495;stroke-linecap:round;stroke-linejoin:round;stroke-miterlimit:4;stroke-dasharray:none;stroke-opacity:1;paint-order:markers fill stroke"
         id="rect938"
         width="12.456886"
         height="13.565733"
         x="3.8943312"
         y="-1.3652678"
         rx="1.5357093"
         ry="1.5153774" />
      <rect
         ry="0.70332664"
         rx="0.52995139"
         y="-5.0389757"
         x="6.0850048"
         height="0.79995584"
         width="7.0735903"
         id="rect929"
         style="opacity:1;fill:#f3b7d9;fill-opacity:1;fill-rule:evenodd;stroke:#e602b4;stroke-width:1.01966989;stroke-linecap:round;stroke-linejoin:round;stroke-miterlimit:4;stroke-dasharray:none;stroke-opacity:1;paint-order:markers fill stroke" />
      <ellipse
         ry="1.1453328"
         rx="1.1749656"
         cy="-5.0940809"
         cx="9.9232969"
         id="path934"
         style="opacity:1;fill:#f0e3ec;fill-opacity:1;fill-rule:evenodd;stroke:#e602b4;stroke-width:0.50983495;stroke-linecap:round;stroke-linejoin:round;stroke-miterlimit:4;stroke-dasharray:none;stroke-opacity:1;paint-order:markers fill stroke" />
    </g>
    <path
       inkscape:connector-curvature="0"
       id="path112"
       d="m 12.742824,11.59231 c -0.560437,0 -1.125815,0.104661 -1.641451,0.334439 a 1.484056,1.4393398 0 0 0 -0.01403,0.0064 c -0.417639,0.191286 -0.808077,0.434257 -1.1415542,0.773088 a 1.484056,1.4393398 0 0 0 -0.0015,0.0011 c -0.287105,0.292375 -0.510645,0.621762 -0.699998,0.978254 a 1.484056,1.4393398 0 0 0 -0.0081,0.01575 c -0.150832,0.292568 -0.264185,0.523681 -0.354801,0.822492 -0.02608,0.08601 -0.04835,0.186468 -0.072362,0.27894 v -1.747727 a 1.484056,1.4393398 0 0 0 -1.1275269,-1.3972 l -0.098576,-0.02363 a 1.484056,1.4393398 0 0 0 -1.02563,0.112802 l -2.2162927,1.086729 a 1.484056,1.4393398 0 0 0 -0.814449,1.284407 v 0.167221 a 1.484056,1.4393398 0 0 0 1.2560091,1.421191 v 3.813118 a 1.484056,1.4393398 0 0 0 -1.169617,1.405078 v 0.179395 a 1.484056,1.4393398 0 0 0 1.4838038,1.439094 h 3.3980912 a 1.484056,1.4393398 0 0 0 0.8388165,-0.251724 1.484056,1.4393398 0 0 0 0.8358622,0.251724 h 4.802149 a 1.484056,1.4393398 0 0 0 0.958804,-0.340884 c 0.07592,0.055 0.151792,0.120604 0.226689,0.159343 a 1.484056,1.4393398 0 0 0 0.05169,0.02578 c 0.546473,0.256455 1.098235,0.322982 1.668404,0.322982 1.239029,0 2.430869,-0.345918 3.357848,-1.072071 a 1.484056,1.4393398 0 0 0 0.002,-0.0014 c 0.959614,-0.753984 1.522571,-1.946618 1.522571,-3.148176 0,-0.811865 -0.196346,-1.642646 -0.767192,-2.298113 -0.01969,-0.0229 -0.047,-0.03777 -0.06719,-0.06016 0.261297,-0.451679 0.415717,-0.963864 0.415717,-1.463085 0,-0.829062 -0.39529,-1.714146 -1.050737,-2.266243 -0.647761,-0.551462 -1.518604,-0.808887 -2.354,-0.808887 -0.95052,0 -1.939929,0.303381 -2.624255,0.981836 a 1.484056,1.4393398 0 0 0 -3.78e-4,3.67e-4 c -0.173856,0.1723 -0.309774,0.375895 -0.45423,0.572525 -0.139836,-0.198807 -0.299231,-0.383251 -0.477741,-0.547491 -0.696825,-0.647817 -1.675233,-1.007258 -2.636807,-1.007258 z m -0.569671,3.760482 c 0.01139,4.03e-4 0.0075,0.0014 0.05243,0.0014 0.211406,0 0.169488,0.0079 0.20675,0.04404 0.03767,0.03653 0.04578,-0.0038 0.04578,0.200521 0,0.459923 -0.279783,1.173363 -1.197307,2.118002 L 9.3233188,19.732382 A 1.484056,1.4393398 0 0 0 8.8090273,19.520044 V 15.95328 a 1.484056,1.4393398 0 0 0 1.0289525,0.854361 l 0.2588082,0.0598 a 1.484056,1.4393398 0 0 0 1.716397,-0.852926 c 0.196408,-0.463527 0.386482,-0.681013 0.359968,-0.661719 z m 4.109904,1.043782 0.03176,0.0082 a 1.484056,1.4393398 0 0 0 0.164662,0.03187 1.484056,1.4393398 0 0 0 -0.122944,0.571126 v 0.155404 a 1.484056,1.4393398 0 0 0 1.483803,1.439096 c 0.186954,0 0.350356,0.0098 0.488078,0.02578 a 1.484056,1.4393398 0 0 0 0.0067,7.16e-4 c 0.07045,0.0079 0.178578,0.03061 0.321203,0.08307 a 1.484056,1.4393398 0 0 0 0.04246,0.01503 c 0.09823,0.03285 0.143284,0.06255 0.16577,0.08021 a 1.484056,1.4393398 0 0 0 0.03434,0.02614 c -0.0667,-0.04929 -0.07278,-0.08832 -0.04357,-0.02292 a 1.484056,1.4393398 0 0 0 0.017,0.03652 c 0.01089,0.02247 0.03322,0.07703 0.03322,0.215203 0,0.211725 -0.02224,0.231258 -0.09636,0.312596 -0.0343,0.03765 -0.02247,0.0132 -0.01482,0.01217 -0.04202,-0.01467 -0.118302,-0.04239 -0.231486,-0.109208 l 0.01225,0.0072 c -0.465621,-0.280988 -0.829818,-0.551431 -1.621146,-0.551431 -0.0085,0 -0.01874,0.0048 -0.02733,0.005 a 1.484056,1.4393398 0 0 0 -0.745083,-0.613362 l -0.160231,-0.0598 a 1.484056,1.4393398 0 0 0 -0.563025,-0.09489 c 0.367685,-0.506792 0.648892,-1.029968 0.824786,-1.573731 z m -0.66677,2.825553 c -0.0012,0.0011 -0.0021,0.0025 -0.0033,0.0035 -6.61e-4,5.67e-4 -0.0015,8.61e-4 -0.0023,0.0014 z"
       style="fill:#f0e3ec;stroke:#e602b4;stroke-width:0.49521822;stroke-linejoin:round;stroke-miterlimit:4;stroke-dasharray:none" />
    <g
       transform="matrix(0.18902899,0,0,0.18333334,-1.2353529,3.7752197)"
       id="g124"
       style="fill:#9d3a9b;stroke-width:1.08298564">
      <path
         style="fill:#9d3a9b;stroke-width:1.08298564"
         d="m 37.731054,55.894196 q -1.172474,0 -4.689897,1.433024 v -0.911924 l 11.724744,-5.92751 0.521099,0.130275 v 39.08248 q 0,2.344949 1.172475,3.061461 1.172474,0.716512 5.015585,0.78165 v 0.977062 H 33.497119 v -0.977062 q 3.647698,-0.130275 4.88531,-1.0422 1.302749,-0.977062 1.302749,-4.038523 V 58.955657 q 0,-3.061461 -1.954124,-3.061461 z"
         id="path118"
         inkscape:connector-curvature="0" />
      <path
         style="fill:#9d3a9b;stroke-width:1.08298564"
         d="m 60.398893,63.450142 q 0.325687,-1.498161 0.651374,-2.605498 0.325687,-1.107337 1.367887,-3.191736 1.107337,-2.149537 2.410086,-3.517423 1.367887,-1.433025 3.712836,-2.540362 2.410086,-1.107337 5.40641,-1.107337 5.080722,0 8.533008,3.322011 3.517423,3.322011 3.517423,8.207321 0,7.360534 -8.337596,16.088954 L 66.717227,89.570266 h 15.567854 q 2.214674,0 3.256874,-0.716512 1.107336,-0.781649 2.931186,-3.58256 l 0.846787,0.325687 -3.582561,8.923833 H 60.333755 v -0.78165 L 71.928224,81.428083 q 8.467871,-8.98897 8.467871,-16.935741 0,-4.103661 -2.540361,-6.644022 -2.540362,-2.540361 -6.644022,-2.540361 -3.387148,0 -5.471547,1.888987 -2.019262,1.823849 -3.973386,6.578884 z"
         id="path120"
         inkscape:connector-curvature="0" />
      <path
         style="fill:#9d3a9b;stroke-width:1.08298564"
         d="m 96.224499,89.439991 q 1.498162,0 4.429351,1.823849 2.99632,1.82385 5.21099,1.82385 3.58256,0 6.05779,-2.800912 2.47522,-2.800911 2.47522,-6.904571 0,-2.540361 -0.91192,-4.494485 -0.84679,-1.954124 -2.21468,-2.996324 -1.36788,-1.107337 -3.25687,-1.758711 -1.88899,-0.716512 -3.58256,-0.911925 -1.62844,-0.195412 -3.51742,-0.195412 v -0.846787 q 2.21467,-0.78165 3.77797,-1.498162 1.62844,-0.78165 3.38715,-2.019261 1.75871,-1.30275 2.67063,-3.126599 0.97707,-1.823849 0.97707,-4.168798 0,-3.061461 -2.01927,-5.015585 -1.95412,-1.954124 -5.14586,-1.954124 -3.06146,0 -5.406405,1.693575 -2.279811,1.628436 -4.299073,5.210997 l -0.977062,-0.26055 q 1.693574,-4.62476 4.559623,-7.555946 2.931187,-2.996324 8.272457,-2.996324 4.49449,0 7.2954,2.475224 2.86605,2.475224 2.86605,6.448609 0,2.670637 -1.36789,4.689898 -1.36789,2.019261 -4.75504,4.299073 3.90825,1.693574 6.12293,4.36421 2.21467,2.605499 2.21467,7.490809 0,6.904571 -5.14586,11.073369 -5.08072,4.10366 -12.83208,4.10366 -3.387149,0 -5.406411,-0.977062 -1.954124,-1.042199 -1.954124,-2.735773 0,-1.0422 0.651375,-1.628437 0.716512,-0.651375 1.823849,-0.651375 z"
         id="path122"
         inkscape:connector-curvature="0" />
    </g>
  </g>
</svg>
