<?xml version="1.0" encoding="UTF-8" standalone="no"?>
<svg
   xmlns:dc="http://purl.org/dc/elements/1.1/"
   xmlns:cc="http://creativecommons.org/ns#"
   xmlns:rdf="http://www.w3.org/1999/02/22-rdf-syntax-ns#"
   xmlns:svg="http://www.w3.org/2000/svg"
   xmlns="http://www.w3.org/2000/svg"
   xmlns:sodipodi="http://sodipodi.sourceforge.net/DTD/sodipodi-0.dtd"
   xmlns:inkscape="http://www.inkscape.org/namespaces/inkscape"
   height="16"
   viewBox="0 0 16 16"
   width="16"
   version="1.1"
   id="svg14"
   sodipodi:docname="sc_position.svg"
   inkscape:version="0.92.4 (unknown)"
   inkscape:export-filename="/home/annisaauliarasyidah/Desktop/4_242 (aulia)/sc 222/sc_position.png"
   inkscape:export-xdpi="96"
   inkscape:export-ydpi="96">
  <metadata
     id="metadata20">
    <rdf:RDF>
      <cc:Work
         rdf:about="">
        <dc:format>image/svg+xml</dc:format>
        <dc:type
           rdf:resource="http://purl.org/dc/dcmitype/StillImage" />
      </cc:Work>
    </rdf:RDF>
  </metadata>
  <defs
     id="defs18" />
  <sodipodi:namedview
     pagecolor="#ffffff"
     bordercolor="#666666"
     borderopacity="1"
     objecttolerance="10"
     gridtolerance="10"
     guidetolerance="10"
     inkscape:pageopacity="0"
     inkscape:pageshadow="2"
     inkscape:window-width="1366"
     inkscape:window-height="707"
     id="namedview16"
     showgrid="true"
     inkscape:zoom="14.75"
     inkscape:cx="0.13559322"
     inkscape:cy="8"
     inkscape:window-x="0"
     inkscape:window-y="0"
     inkscape:window-maximized="1"
     inkscape:current-layer="svg14">
    <inkscape:grid
       type="xygrid"
       id="grid827" />
  </sodipodi:namedview>
  <path
     d="m10 6v1h1v-1zm2 0v1h1v-1zm2 0v1h1v-1zm0 2v1h1v-1zm0 2v1h1v-1zm-10 2v1h1v-1zm2 0v1h1v-1zm2 0v1h1v-1zm2 0v1h1v-1zm2 0v1h1v-1zm2 0v1h1v-1z"
     fill="#565656"
     id="path2"
     style="fill:#e602b4" />
  <g
     fill="#3689e6"
     id="g12"
     style="fill:#9d3a9b">
    <path
       d="m4 2v1 1 1h1v-1-1-1zm-4 4v1h1 1 1v-1h-1-1z"
       id="path4"
       style="fill:#9d3a9b" />
    <path
       d="m6 6h3v1h-3z"
       id="path6"
       style="fill:#9d3a9b" />
    <path
       d="m4 8h1v3.5h-1z"
       id="path8"
       style="fill:#9d3a9b" />
    <path
       d="m4 6h1v1h-1z"
       id="path10"
       style="fill:#9d3a9b" />
  </g>
</svg>
