<?xml version="1.0" encoding="UTF-8" standalone="no"?>
<svg
   xmlns:dc="http://purl.org/dc/elements/1.1/"
   xmlns:cc="http://creativecommons.org/ns#"
   xmlns:rdf="http://www.w3.org/1999/02/22-rdf-syntax-ns#"
   xmlns:svg="http://www.w3.org/2000/svg"
   xmlns="http://www.w3.org/2000/svg"
   xmlns:xlink="http://www.w3.org/1999/xlink"
   xmlns:sodipodi="http://sodipodi.sourceforge.net/DTD/sodipodi-0.dtd"
   xmlns:inkscape="http://www.inkscape.org/namespaces/inkscape"
   height="16"
   viewBox="0 0 4.2333333 4.2333335"
   width="16"
   version="1.1"
   id="svg166"
   sodipodi:docname="sc_previousannotation.svg"
   inkscape:version="0.92.4 (unknown)"
   inkscape:export-filename="/home/annisaauliarasyidah/Desktop/4_242 (aulia)/sc 222/sc_previousannotation.png"
   inkscape:export-xdpi="96"
   inkscape:export-ydpi="96">
  <metadata
     id="metadata172">
    <rdf:RDF>
      <cc:Work
         rdf:about="">
        <dc:format>image/svg+xml</dc:format>
        <dc:type
           rdf:resource="http://purl.org/dc/dcmitype/StillImage" />
      </cc:Work>
    </rdf:RDF>
  </metadata>
  <defs
     id="defs170" />
  <sodipodi:namedview
     pagecolor="#ffffff"
     bordercolor="#666666"
     borderopacity="1"
     objecttolerance="10"
     gridtolerance="10"
     guidetolerance="10"
     inkscape:pageopacity="0"
     inkscape:pageshadow="2"
     inkscape:window-width="1366"
     inkscape:window-height="707"
     id="namedview168"
     showgrid="true"
     inkscape:zoom="20.784725"
     inkscape:cx="-2.4002627"
     inkscape:cy="6.06335"
     inkscape:window-x="0"
     inkscape:window-y="0"
     inkscape:window-maximized="1"
     inkscape:current-layer="svg166">
    <inkscape:grid
       type="xygrid"
       id="grid887" />
  </sodipodi:namedview>
  <radialGradient
     id="a"
     cx="11.026738"
     cy="7.9995"
     gradientTransform="matrix(0.01173561,0.01453785,-0.01587994,0.01283185,2.0318664,0.14988452)"
     gradientUnits="userSpaceOnUse"
     r="156.98399">
    <stop
       offset=".0765"
       stop-color="#ffce05"
       id="stop2" />
    <stop
       offset=".18870001"
       stop-color="#f9d940"
       id="stop4" />
    <stop
       offset=".3467"
       stop-color="#fde446"
       id="stop6" />
    <stop
       offset=".4294"
       stop-color="#ffeb55"
       id="stop8" />
    <stop
       offset=".6882"
       stop-color="#ffeb55"
       id="stop10" />
    <stop
       offset=".7281"
       stop-color="#fee951"
       id="stop12" />
    <stop
       offset=".7641"
       stop-color="#fde446"
       id="stop14" />
    <stop
       offset=".7987"
       stop-color="#fadb34"
       id="stop16" />
    <stop
       offset=".8322"
       stop-color="#f7cf1a"
       id="stop18" />
    <stop
       offset=".8588"
       stop-color="#f3c300"
       id="stop20" />
    <stop
       offset=".9208"
       stop-color="#fbd400"
       id="stop22" />
    <stop
       offset=".9706"
       stop-color="#fd0"
       id="stop24" />
  </radialGradient>
  <linearGradient
     id="b"
     gradientTransform="matrix(.5520917 0 0 .8167341 7.874148 48.018828)"
     gradientUnits="userSpaceOnUse"
     x1="-19.342056"
     x2="152.20572"
     y1="-36.226715"
     y2="93.202377">
    <stop
       offset="0"
       stop-color="#fff"
       id="stop27" />
    <stop
       offset=".25"
       stop-color="#fff"
       stop-opacity=".449275"
       id="stop29" />
    <stop
       offset=".45480227"
       stop-color="#fff"
       stop-opacity=".698039"
       id="stop31" />
    <stop
       offset=".5"
       stop-color="#fff"
       stop-opacity=".942029"
       id="stop33" />
    <stop
       offset="1"
       stop-color="#fff"
       stop-opacity="0"
       id="stop35" />
  </linearGradient>
  <filter
     id="c">
    <feGaussianBlur
       stdDeviation="1.0600355"
       id="feGaussianBlur38" />
  </filter>
  <linearGradient
     id="d"
     gradientTransform="matrix(0.01873958,0,0,0.0171472,0.4899268,0.38054435)"
     gradientUnits="userSpaceOnUse"
     x1="71.626404"
     x2="46.225941"
     y1="123.73875"
     y2="28.942928">
    <stop
       offset="0"
       stop-color="#005f1e"
       id="stop41" />
    <stop
       offset="1"
       stop-color="#43943c"
       id="stop43" />
  </linearGradient>
  <radialGradient
     id="e"
     cx="71.775223"
     cy="16.0865"
     gradientTransform="matrix(0.9650814,0.2619502,-0.9201984,3.3902106,33.309062,-57.693239)"
     gradientUnits="userSpaceOnUse"
     r="3.15625"
     xlink:href="#f" />
  <linearGradient
     id="f">
    <stop
       offset="0"
       stop-color="#fff"
       id="stop47" />
    <stop
       offset="1"
       stop-color="#fff"
       stop-opacity="0"
       id="stop49" />
  </linearGradient>
  <filter
     id="g"
     height="1.157943"
     width="1.244782"
     x="-.122391"
     y="-.078971">
    <feGaussianBlur
       stdDeviation=".321914"
       id="feGaussianBlur52" />
  </filter>
  <linearGradient
     id="h"
     gradientTransform="matrix(0.01873958,0,0,0.0171472,0.56672938,0.32496135)"
     gradientUnits="userSpaceOnUse"
     x1="96.373123"
     x2="96.373123"
     y1="120.42788"
     y2="46.089832">
    <stop
       offset="0"
       stop-color="#002a0d"
       id="stop55" />
    <stop
       offset="1"
       stop-color="#002a0d"
       stop-opacity="0"
       id="stop57" />
  </linearGradient>
  <radialGradient
     id="i"
     cx="71.775223"
     cy="16.0865"
     gradientTransform="matrix(0.9650814,0.2619502,-0.9201984,3.3902106,17.309062,-57.693239)"
     gradientUnits="userSpaceOnUse"
     r="3.15625">
    <stop
       offset="0"
       stop-color="#f0ff80"
       id="stop60" />
    <stop
       offset="1"
       stop-color="#f0ff80"
       stop-opacity="0"
       id="stop62" />
  </radialGradient>
  <linearGradient
     id="j"
     gradientTransform="matrix(0.01676699,0,0,0.01467634,0.58066581,0.5386756)"
     gradientUnits="userSpaceOnUse"
     x1="43.799026"
     x2="58.606159"
     y1="32.051865"
     y2="96.363052">
    <stop
       offset="0"
       stop-color="#37a42c"
       id="stop65" />
    <stop
       offset="1"
       stop-color="#bff500"
       id="stop67" />
  </linearGradient>
  <radialGradient
     id="k"
     cx="11.578125"
     cy="64.53125"
     gradientTransform="matrix(6.5079869,0,0,1.510917,-63.772161,-32.970115)"
     gradientUnits="userSpaceOnUse"
     r="3.578125"
     xlink:href="#f" />
  <filter
     id="l"
     height="1.598266"
     width="1.90393"
     x="-.451965"
     y="-.299133">
    <feGaussianBlur
       stdDeviation="1.3476562"
       id="feGaussianBlur71" />
  </filter>
  <radialGradient
     id="m"
     cx="53.630272"
     cy="79.055809"
     fx="57.058514"
     fy="91.805016"
     gradientTransform="matrix(1.519949,7e-8,-8e-8,1.2772114,-20.224726,-23.996639)"
     gradientUnits="userSpaceOnUse"
     r="50">
    <stop
       offset="0"
       stop-color="#cbff10"
       id="stop74" />
    <stop
       offset="1"
       stop-color="#004d00"
       id="stop76" />
  </radialGradient>
  <linearGradient
     id="n"
     gradientUnits="userSpaceOnUse"
     x1="111.785248"
     x2="111.992706"
     y1="112.5"
     y2="44.287056">
    <stop
       offset="0"
       stop-color="#e5ff00"
       id="stop79" />
    <stop
       offset="1"
       stop-color="#e5ff00"
       stop-opacity="0"
       id="stop81" />
  </linearGradient>
  <filter
     id="o">
    <feGaussianBlur
       stdDeviation=".495"
       id="feGaussianBlur84" />
  </filter>
  <linearGradient
     id="p"
     gradientTransform="matrix(1.0533333 0 0 .9219945 11.76 4.992427)"
     gradientUnits="userSpaceOnUse"
     x1="63.159035"
     x2="63.159035"
     y1="21.171064"
     y2="80.12056">
    <stop
       offset="0"
       stop-color="#edffbf"
       id="stop87" />
    <stop
       offset="1"
       stop-color="#edffbf"
       stop-opacity="0"
       id="stop89" />
  </linearGradient>
  <linearGradient
     id="q"
     gradientTransform="matrix(1.0533333 0 0 .9219945 11.76 4.992427)"
     gradientUnits="userSpaceOnUse"
     x1="73.739265"
     x2="35.568035"
     xlink:href="#f"
     y1="69.923088"
     y2="48.212151" />
  <linearGradient
     id="r"
     gradientTransform="matrix(1.0533333 0 0 .9219945 11.76 4.992427)"
     gradientUnits="userSpaceOnUse"
     x1="63.159035"
     x2="63.159035"
     xlink:href="#f"
     y1="21.171064"
     y2="80.12056" />
  <path
     style="fill:#f3b7d9;stroke:#e602b4;stroke-width:0.26458332;stroke-linecap:butt;stroke-linejoin:round;stroke-miterlimit:4;stroke-dasharray:none;stroke-opacity:1"
     d="M 0.39687473,2.5135417 V 3.4206848 3.5718751 L 1.1906247,2.8159229 Z"
     id="path919"
     inkscape:connector-curvature="0" />
  <rect
     style="opacity:1;fill:#f0e3ec;fill-opacity:1;fill-rule:nonzero;stroke:#e602b4;stroke-width:0.26458332;stroke-linecap:round;stroke-linejoin:round;stroke-miterlimit:4;stroke-dasharray:none;stroke-dashoffset:0;stroke-opacity:1"
     id="rect4238"
     width="3.4395833"
     height="2.6036627"
     x="-3.8364582"
     y="0.39687499"
     rx="0.22971576"
     ry="0.26253232"
     transform="scale(-1,1)" />
  <g
     id="g894"
     transform="translate(0.00184426,-0.055583)">
    <path
       d="m 87.875,12 c -0.865503,0.02693 -1.698899,0.333976 -2.375,0.875 l -60,48 C 24.550144,61.634129 24,62.784063 24,64 c 0,1.215937 0.550144,2.365871 1.5,3.125 l 60,48 c 1.200963,0.96113 2.832437,1.13525 4.21875,0.46875 C 91.105067,114.92725 92.000642,113.53821 92,112 V 88.3125 78.0625 L 90.5,76.875 C 89.299037,75.91387 87.667563,75.739753 86.28125,76.40625 84.894933,77.072748 83.999358,78.461793 84,80 v 23.6875 L 34.40625,64 84,24.3125 V 48 c -6.42e-4,1.538207 0.894936,2.927253 2.28125,3.59375 1.38631,0.666496 3.017787,0.49238 4.21875,-0.46875 L 92,49.9375 V 39.6875 16 C 92.000417,14.917152 91.558627,13.878821 90.78125,13.125 90.003873,12.37118 88.957323,11.966273 87.875,12 Z"
       style="opacity:0.90526303;fill:none;stroke:#638000;stroke-width:0.96600002;stroke-linejoin:round;filter:url(#c)"
       transform="matrix(0.01676699,0,0,0.01619458,0.04493694,0.32331062)"
       id="path134"
       inkscape:connector-curvature="0" />
    <path
       inkscape:connector-curvature="0"
       style="fill:url(#d);fill-rule:evenodd;stroke-width:0.01591803"
       id="path136"
       d="m 1.5733721,0.34004469 c -0.041231,0.001174 -0.082194,0.0146015 -0.1164317,0.0396707 L 0.33276062,1.2024475 c -0.0484722,0.035464 -0.080927,0.093163 -0.080927,0.1573149 0,0.064168 0.0324662,0.1218843 0.0809581,0.157346 L 1.4569715,2.3398405 c 0.061456,0.044985 0.139266,0.051474 0.2065924,0.021856 0.066342,-0.029185 0.1194566,-0.097742 0.1194474,-0.1786737 V 2.1829594 1.7766144 1.7005063 1.6010186 1.1185033 1.0339388 0.94290758 0.53656253 0.53650045 C 1.7830164,0.4795652 1.7569885,0.42677868 1.7169453,0.39124843 1.6751525,0.35416583 1.6236657,0.3386093 1.5733721,0.34004336 Z M 1.0765866,1.1516777 V 1.5678471 L 0.79242487,1.3597624 Z" />
    <path
       inkscape:connector-curvature="0"
       style="opacity:0.90526303;fill:#9d3a9b;fill-rule:evenodd;stroke-width:0.01591803"
       id="path140"
       d="m 1.5732478,0.33522576 c -0.042169,0.001201 -0.084121,0.0149418 -0.1191676,0.0406034 L 0.32990035,1.1985613 c -0.0496236,0.036306 -0.0828857,0.095424 -0.0828857,0.1612011 0,0.065793 0.0332736,0.1249285 0.0829168,0.1612322 L 1.4541113,2.3437267 c 0.062917,0.046055 0.1425023,0.052685 0.2113802,0.022385 0.067857,-0.029851 0.122349,-0.1001091 0.1223388,-0.1830884 v -6.36e-5 -0.406345 -0.076108 -0.011939 -0.087549 -0.4825153 -0.084564 -0.00298 -0.088047 -0.40634505 -6.208e-5 c 5.7e-6,-0.0583741 -0.026683,-0.1124784 -0.067683,-0.14885712 -0.042814,-0.0379888 -0.09548,-0.0538837 -0.1468997,-0.0524176 z M 1.0717676,1.1611912 V 1.5583336 L 0.80060147,1.3597624 Z" />
    <path
       inkscape:connector-curvature="0"
       style="fill:url(#j);fill-rule:evenodd;stroke-width:0.01591803"
       id="path144"
       d="M 0.5144127,1.3597636 1.5204322,0.65529946 1.5138176,2.044384 Z" />
    <path
       inkscape:connector-curvature="0"
       style="fill:#f3b7d9;fill-rule:evenodd;stroke-width:0.01591803"
       id="path148"
       d="M 1.5204322,0.65529946 0.5144127,1.3597636 1.5113185,2.0408182 1.5204322,1.594585 V 1.1249422 Z" />
  </g>
</svg>
