<?xml version="1.0" encoding="UTF-8" standalone="no"?>
<svg
   xmlns:dc="http://purl.org/dc/elements/1.1/"
   xmlns:cc="http://creativecommons.org/ns#"
   xmlns:rdf="http://www.w3.org/1999/02/22-rdf-syntax-ns#"
   xmlns:svg="http://www.w3.org/2000/svg"
   xmlns="http://www.w3.org/2000/svg"
   xmlns:sodipodi="http://sodipodi.sourceforge.net/DTD/sodipodi-0.dtd"
   xmlns:inkscape="http://www.inkscape.org/namespaces/inkscape"
   height="16"
   viewBox="0 0 4.2333333 4.2333335"
   width="16"
   version="1.1"
   id="svg32"
   sodipodi:docname="sc_preformattedparastyle.svg"
   inkscape:version="0.92.4 (unknown)"
   inkscape:export-filename="/home/annisaauliarasyidah/Desktop/4_242 (aulia)/sc 222/sc_preformattedparastyle.svg.png"
   inkscape:export-xdpi="96"
   inkscape:export-ydpi="96">
  <metadata
     id="metadata38">
    <rdf:RDF>
      <cc:Work
         rdf:about="">
        <dc:format>image/svg+xml</dc:format>
        <dc:type
           rdf:resource="http://purl.org/dc/dcmitype/StillImage" />
      </cc:Work>
    </rdf:RDF>
  </metadata>
  <defs
     id="defs36" />
  <sodipodi:namedview
     pagecolor="#ffffff"
     bordercolor="#666666"
     borderopacity="1"
     objecttolerance="10"
     gridtolerance="10"
     guidetolerance="10"
     inkscape:pageopacity="0"
     inkscape:pageshadow="2"
     inkscape:window-width="1366"
     inkscape:window-height="707"
     id="namedview34"
     showgrid="true"
     inkscape:zoom="20.85965"
     inkscape:cx="7.9633233"
     inkscape:cy="8.0520648"
     inkscape:window-x="0"
     inkscape:window-y="0"
     inkscape:window-maximized="1"
     inkscape:current-layer="svg32">
    <inkscape:grid
       type="xygrid"
       id="grid826" />
  </sodipodi:namedview>
  <filter
     id="a"
     color-interpolation-filters="sRGB"
     height="1.005726"
     width="1.009696"
     x="-.004848"
     y="-.002863">
    <feGaussianBlur
       stdDeviation=".12613919"
       id="feGaussianBlur2" />
  </filter>
  <linearGradient
     id="b"
     gradientUnits="userSpaceOnUse"
     x1="39.054226"
     x2="46.698284"
     y1="78.860413"
     y2="-95.683258">
    <stop
       offset="0"
       stop-color="#06f"
       id="stop5" />
    <stop
       offset="1"
       stop-color="#80b3ff"
       id="stop7" />
  </linearGradient>
  <linearGradient
     id="c"
     gradientUnits="userSpaceOnUse"
     x1="13.640021"
     x2="14.869683"
     y1="294.8226"
     y2="266.54037"
     gradientTransform="matrix(0.15815215,0,0,0.15815215,-0.021821,-42.674503)">
    <stop
       offset="0"
       stop-color="#555"
       id="stop10" />
    <stop
       offset="1"
       id="stop12" />
  </linearGradient>
  <linearGradient
     id="d"
     gradientUnits="userSpaceOnUse"
     x1="9.236234"
     x2="10.775606"
     y1="270.83066"
     y2="284.685"
     gradientTransform="matrix(0.15815215,0,0,0.15815215,-0.021821,-42.674503)">
    <stop
       offset="0"
       stop-color="#3b3e22"
       id="stop15" />
    <stop
       offset="1"
       stop-color="#454545"
       stop-opacity="0"
       id="stop17" />
  </linearGradient>
  <path
     style="fill:none;stroke:#9d3a9b;stroke-width:0.26458335px;stroke-linecap:round;stroke-linejoin:round;stroke-opacity:1"
     d="M 3.5710075,0.66145831 0.66059074,2.1166666 3.5710075,3.5718749"
     id="path828"
     inkscape:connector-curvature="0" />
  <path
     d="m 25.113281,-14.748047 c -2.336094,9.4e-4 -4.657928,0.363974 -6.882812,1.076172 -23.0768169,4.3318031 -40.493044,24.669281 -40.53125,48.433594 v 0.0078 c -1.1e-4,0.07119 -1.06e-4,0.07238 0,0.0039 -1.8e-5,0.01628 -1.8e-5,0.03255 0,0.04883 -4.2e-5,-0.04223 -4.7e-5,-0.04044 0,0.0059 v 0.0039 c 0.02011,19.17918 7.954597,32.838339 24.4404088,40.999411 v 22.658632 c 0.00152,12.482948 13.5297682,22.602138 26.0127162,22.603658 h 4.857422 c 2.942976,-0.004 5.856869,-0.58246 8.578125,-1.70313 2.717,1.11892 5.626079,1.69742 8.564453,1.70313 h 4.857422 c 12.482948,-0.002 22.601997,-10.12057 22.603515,-22.603516 V 33.544922 C 86.749725,30.420315 92.892899,21.837605 92.904297,12.181641 V 7.8554688 C 92.902778,-4.6274793 82.783729,-14.746529 70.300781,-14.748047 H 67.052734 47.662109 35.5 Z m -3.517578,0.363281 c -0.217842,0.02502 -0.415859,0.106895 -0.632812,0.134766 0.176843,-0.02653 0.343812,-0.0998 0.521484,-0.121094 z m 45.462891,49.169922 h 0.242187 c -0.008,0.0035 -0.01423,0.0087 -0.02148,0.01172 -0.223575,-8.99e-4 0.0657,-0.01179 -0.220703,-0.01172 z"
     transform="matrix(0.0175154,0,0,0.0175154,2.3437736,1.8467817)"
     id="path28"
     style="fill:#e602b4;filter:url(#a)"
     inkscape:connector-curvature="0"
     sodipodi:nodetypes="ccccccccccccccccccccccccccccccccc" />
  <path
     d="m 25.113282,7.8556102 c -0.304465,0.1057657 -0.61943,0.17845 -0.939453,0.2167969 C 10.550919,9.6367477 0.32477862,21.087636 0.30273462,34.79897 c 2e-6,0.002 -2e-6,0.0039 0,0.0059 -2e-6,0.0013 2e-6,0.0026 0,0.0039 0.01438,13.717156 10.24240938,25.177175 23.87109438,26.742187 2.266783,0.260505 3.978015,2.179234 3.978516,4.460937 v 32.47823 h 8.63386 l 0.713796,-73.029045 h 8.162109 l 0.713797,73.029015 h 8.63386 V 16.672017 c 5.83e-4,-2.479647 9.563464,-4.489651 12.04311,-4.490235 h 3.248047 V 7.8556102 H 67.052877 47.66211 35.500001 Z"
     transform="matrix(0.0175154,0,0,0.0175154,2.3437736,1.8467817)"
     id="path30"
     style="fill:#f3b7d9;filter:url(#a)"
     inkscape:connector-curvature="0" />
</svg>
