<?xml version="1.0" encoding="UTF-8" standalone="no"?>
<svg
   xmlns:dc="http://purl.org/dc/elements/1.1/"
   xmlns:cc="http://creativecommons.org/ns#"
   xmlns:rdf="http://www.w3.org/1999/02/22-rdf-syntax-ns#"
   xmlns:svg="http://www.w3.org/2000/svg"
   xmlns="http://www.w3.org/2000/svg"
   xmlns:xlink="http://www.w3.org/1999/xlink"
   xmlns:sodipodi="http://sodipodi.sourceforge.net/DTD/sodipodi-0.dtd"
   xmlns:inkscape="http://www.inkscape.org/namespaces/inkscape"
   height="16"
   width="16"
   version="1.1"
   id="svg64"
   sodipodi:docname="sc_removehyperlink.svg"
   inkscape:version="0.92.4 (unknown)"
   inkscape:export-filename="/home/annisaauliarasyidah/Desktop/4_242 (aulia)/sc 222/sc_removehyperlink.png"
   inkscape:export-xdpi="96"
   inkscape:export-ydpi="96">
  <metadata
     id="metadata70">
    <rdf:RDF>
      <cc:Work
         rdf:about="">
        <dc:format>image/svg+xml</dc:format>
        <dc:type
           rdf:resource="http://purl.org/dc/dcmitype/StillImage" />
      </cc:Work>
    </rdf:RDF>
  </metadata>
  <defs
     id="defs68">
    <clipPath
       clipPathUnits="userSpaceOnUse"
       id="clipPath865">
      <rect
         style="opacity:1;fill:#ff8080;fill-opacity:1;fill-rule:evenodd;stroke:none;stroke-width:3.1612184;stroke-linecap:round;stroke-linejoin:round;stroke-miterlimit:4;stroke-dasharray:none;stroke-opacity:1;paint-order:stroke markers fill"
         id="rect867"
         width="16"
         height="16"
         x="0.020057322"
         y="0.06779661" />
    </clipPath>
  </defs>
  <sodipodi:namedview
     pagecolor="#ffffff"
     bordercolor="#666666"
     borderopacity="1"
     objecttolerance="10"
     gridtolerance="10"
     guidetolerance="10"
     inkscape:pageopacity="0"
     inkscape:pageshadow="2"
     inkscape:window-width="1366"
     inkscape:window-height="707"
     id="namedview66"
     showgrid="false"
     inkscape:zoom="20.784725"
     inkscape:cx="1.9175585"
     inkscape:cy="8"
     inkscape:window-x="0"
     inkscape:window-y="0"
     inkscape:window-maximized="1"
     inkscape:current-layer="g863" />
  <radialGradient
     id="a"
     cx="-32"
     cy="9.6"
     gradientTransform="matrix(0.45052565,0.45052565,-2.2526284,2.2526284,49.226433,3.490457)"
     gradientUnits="userSpaceOnUse"
     r="5.6">
    <stop
       offset="0"
       stop-color="#a50606"
       id="stop2" />
    <stop
       offset="1"
       stop-color="#f20909"
       id="stop4" />
  </radialGradient>
  <linearGradient
     id="b"
     gradientUnits="userSpaceOnUse"
     x1="64"
     x2="64"
     xlink:href="#g"
     y1="83.729706"
     y2="-62.169582" />
  <linearGradient
     id="c"
     gradientUnits="userSpaceOnUse"
     x1="64"
     x2="64"
     xlink:href="#e"
     y1="24"
     y2="-52" />
  <radialGradient
     id="d"
     cx="66"
     cy="-10.851176"
     gradientTransform="matrix(45.999965 -.000001 .00000122 14.035668 -2969.9975 154.88897)"
     gradientUnits="userSpaceOnUse"
     r="2"
     spreadMethod="reflect"
     xlink:href="#f" />
  <linearGradient
     id="e">
    <stop
       offset="0"
       stop-color="#c8c8c8"
       id="stop10" />
    <stop
       offset="1"
       stop-color="#e4e4e4"
       id="stop12" />
  </linearGradient>
  <linearGradient
     id="f">
    <stop
       offset="0"
       stop-color="#fff"
       id="stop15" />
    <stop
       offset="1"
       stop-color="#fff"
       stop-opacity="0"
       id="stop17" />
  </linearGradient>
  <linearGradient
     id="g">
    <stop
       offset="0"
       id="stop20" />
    <stop
       offset="1"
       stop-color="#7c7c7c"
       id="stop22" />
  </linearGradient>
  <linearGradient
     id="h"
     gradientUnits="userSpaceOnUse"
     x1="70"
     x2="70"
     xlink:href="#g"
     y1="127"
     y2="32.952141"
     gradientTransform="matrix(0.14285714,0,0,0.125,-20.633342,-8.1767757)" />
  <linearGradient
     id="i"
     gradientTransform="matrix(0.14285715,0,0,0.125,-20.633342,-8.1767752)"
     gradientUnits="userSpaceOnUse"
     x1="64"
     x2="64"
     xlink:href="#e"
     y1="100"
     y2="28" />
  <radialGradient
     id="j"
     cx="64"
     cy="54.400002"
     gradientTransform="matrix(0.96428573,0,0,0.21875001,-73.204771,-13.576776)"
     gradientUnits="userSpaceOnUse"
     r="16"
     spreadMethod="reflect"
     xlink:href="#f" />
  <radialGradient
     id="k"
     cx="89.923889"
     cy="-1.414208"
     gradientUnits="userSpaceOnUse"
     r="113.80746">
    <stop
       offset="0"
       stop-color="#fff"
       id="stop28" />
    <stop
       offset=".5"
       stop-color="#fff"
       id="stop30" />
    <stop
       offset="1"
       stop-opacity="0"
       id="stop32" />
  </radialGradient>
  <mask
     id="l"
     maskUnits="userSpaceOnUse">
    <path
       d="m9.923884-81.414215h159.999996v160h-159.999996z"
       fill="url(#k)"
       opacity=".6"
       transform="matrix(.70710683 .70710673 -.70710673 .70710683 0 0)"
       id="path35" />
  </mask>
  <clipPath
     id="m">
    <rect
       height="128"
       rx="4.83346"
       ry="4.62318"
       transform="matrix(-.70710683 -.70710673 -.70710673 .70710683 0 0)"
       width="128"
       x="-157.92387"
       y="-65.414215"
       id="rect38" />
  </clipPath>
  <g
     transform="translate(0.01468929,-0.1506555)"
     id="g863"
     clip-path="url(#clipPath865)">
    <rect
       height="12.727922"
       rx="1.9722724"
       ry="2.8284266"
       style="opacity:0.85;fill:#9d3a9b;stroke:#9d3a9b;stroke-width:3;stroke-linecap:round;stroke-linejoin:round;stroke-opacity:1"
       transform="matrix(-0.70710682,-0.70710675,-0.70710674,0.70710682,0,0)"
       width="4.2426419"
       x="-13.43503"
       y="-6.3639612"
       id="rect41" />
    <rect
       transform="matrix(-0.70710682,-0.70710674,-0.70710674,0.70710682,0,0)"
       height="12.727922"
       rx="1.9722723"
       ry="2.8284259"
       width="4.2426414"
       x="-13.435029"
       y="-6.3639607"
       id="rect43"
       style="fill:#f0e3ec;stroke:#e602b4;stroke-width:0.99999994;stroke-linecap:round;stroke-linejoin:round;stroke-opacity:1" />
    <rect
       transform="matrix(-0.70710682,-0.70710674,-0.70710674,0.70710682,0,0)"
       height="12.727922"
       rx="1.7677672"
       ry="2.828428"
       width="4.2426414"
       x="-13.435029"
       y="-6.3639607"
       id="rect45"
       style="fill:none;stroke:none;stroke-width:1.50000012;stroke-linecap:round;stroke-linejoin:round" />
    <rect
       transform="matrix(-0.70710682,-0.70710674,-0.70710674,0.70710682,0,0)"
       id="rect47"
       y="-14.772654"
       x="-11.644607"
       width="0.49999997"
       style="opacity:1;fill:#f3b7d9;stroke:#e602b4;stroke-width:2.00000024;stroke-linecap:round;stroke-linejoin:round"
       rx="0.24999999"
       height="11" />
    <rect
       transform="matrix(-0.70710682,-0.70710674,-0.70710674,0.70710682,0,0)"
       style="fill:#f3b7d9;stroke:#e602b4;stroke-width:0.12499999"
       id="rect49"
       y="-14.772654"
       x="-11.644607"
       width="0.49999997"
       rx="0.24999999"
       height="11" />
    <g
       transform="matrix(0.08838835,0.08838834,0.08838834,-0.08838835,-3.0903226,7.3340774)"
       id="use54"
       style="fill:#f3b7d9;stroke:#e602b4">
      <rect
         id="rect920"
         y="-56"
         x="64"
         width="4"
         style="opacity:1;fill:#f3b7d9;stroke:#e602b4;stroke-width:16.00000191;stroke-linecap:round;stroke-linejoin:round"
         rx="2"
         height="88" />
      <rect
         style="fill:#f3b7d9;stroke:#e602b4"
         id="rect922"
         y="-56"
         x="64"
         width="4"
         rx="2"
         height="88" />
    </g>
    <path
       d="M 0.03944896,1.1536519 C 0.04542146,0.54930262 0.56598571,0.07874437 1.1678669,0.13363237 l 3.8886718,0.35546875 c 0.5324982,0.0488855 0.9399875,0.49553627 0.9399415,1.03027348 v 0.7026367 c -5e-4,0.4479543 -0.2892315,0.8447008 -0.715332,0.9829101 l 2.989981,2.7283135 C 8.674773,6.3374921 8.6743365,6.9924066 8.2701542,7.3961256 L 7.5626344,8.1026686 C 7.1583772,8.5063121 6.5034629,8.5058756 6.0997439,8.1016936 L 3.1190387,5.3826558 c -0.1434935,0.4034213 -0.5206843,0.6767535 -0.9487305,0.6875 l -0.720703,0.01709 C 0.90519099,6.1000833 0.44403621,5.6886733 0.39491771,5.1463276 l -0.3515625,-3.88916 c -0.00303,-0.034418 -0.004335,-0.068967 -0.0039063,-0.1035157 z"
       id="path58-3"
       inkscape:connector-curvature="0"
       style="fill:#f3b7d9;fill-opacity:0.99418604;fill-rule:evenodd;stroke-width:0.25" />
    <path
       d="m 1.0735595,1.1640213 3.8889139,0.355461 -3.5e-4,0.7026591 -1.752385,0.3727064 4.3296303,4.0691728 -0.7074598,0.7067528 -4.32963,-4.0691725 -0.3566212,1.7342449 -0.7204578,0.017435 z"
       id="path60-6"
       style="fill:#9d3a9b;fill-rule:evenodd;stroke:none;stroke-width:0.25"
       inkscape:connector-curvature="0" />
  </g>
  <path
     style="fill:#f3b7d9;fill-opacity:1;stroke-width:0.125"
     inkscape:connector-curvature="0"
     id="path58"
     d="M 10.185547,7.9589844 A 1.083165,1.083165 0 0 0 9.4355469,8.2753906 L 8.2753906,9.4355469 a 1.083165,1.083165 0 0 0 0,1.5312501 L 9.296875,11.988281 11.982422,9.2929688 10.966797,8.2753906 a 1.083165,1.083165 0 0 0 -0.78125,-0.3164062 z" />
  <path
     inkscape:connector-curvature="0"
     style="fill:#cb0808;stroke-width:0.125;fill-opacity:1"
     id="path60"
     d="M 14.841389,9.0418591 12.520929,11.362318 10.20047,9.0418591 9.0418589,10.20047 11.362318,12.520929 9.0418589,14.841389 10.20047,16 12.520929,13.679541 14.841389,16 16,14.841389 13.679541,12.520929 16,10.20047 Z" />
</svg>
