<?xml version="1.0" encoding="UTF-8" standalone="no"?>
<svg
   xmlns:dc="http://purl.org/dc/elements/1.1/"
   xmlns:cc="http://creativecommons.org/ns#"
   xmlns:rdf="http://www.w3.org/1999/02/22-rdf-syntax-ns#"
   xmlns:svg="http://www.w3.org/2000/svg"
   xmlns="http://www.w3.org/2000/svg"
   xmlns:xlink="http://www.w3.org/1999/xlink"
   xmlns:sodipodi="http://sodipodi.sourceforge.net/DTD/sodipodi-0.dtd"
   xmlns:inkscape="http://www.inkscape.org/namespaces/inkscape"
   height="16"
   width="16"
   version="1.1"
   id="svg211"
   sodipodi:docname="sc_runbasic.svg"
   inkscape:version="0.92.4 (unknown)"
   inkscape:export-filename="/home/annisaauliarasyidah/Desktop/4_242 (aulia)/sc 222/sc_runbasic.png"
   inkscape:export-xdpi="96"
   inkscape:export-ydpi="96">
  <metadata
     id="metadata217">
    <rdf:RDF>
      <cc:Work
         rdf:about="">
        <dc:format>image/svg+xml</dc:format>
        <dc:type
           rdf:resource="http://purl.org/dc/dcmitype/StillImage" />
      </cc:Work>
    </rdf:RDF>
  </metadata>
  <defs
     id="defs215" />
  <sodipodi:namedview
     pagecolor="#ffffff"
     bordercolor="#666666"
     borderopacity="1"
     objecttolerance="10"
     gridtolerance="10"
     guidetolerance="10"
     inkscape:pageopacity="0"
     inkscape:pageshadow="2"
     inkscape:window-width="1366"
     inkscape:window-height="707"
     id="namedview213"
     showgrid="true"
     inkscape:snap-global="false"
     inkscape:zoom="14.69702"
     inkscape:cx="-3.9339679"
     inkscape:cy="8.721423"
     inkscape:window-x="0"
     inkscape:window-y="0"
     inkscape:window-maximized="1"
     inkscape:current-layer="svg211">
    <inkscape:grid
       type="xygrid"
       id="grid1138" />
  </sodipodi:namedview>
  <linearGradient
     id="a"
     gradientUnits="userSpaceOnUse"
     x1="78.560501"
     x2="40.480499"
     y1="8.0806"
     y2="36.640598">
    <stop
       offset="0"
       stop-color="#8e79b9"
       id="stop2" />
    <stop
       offset="1"
       stop-color="#462886"
       id="stop4" />
  </linearGradient>
  <linearGradient
     id="b"
     gradientTransform="matrix(0,0.125,0.125,0,-22.371351,-2.9423092)"
     gradientUnits="userSpaceOnUse"
     x1="172.56801"
     x2="178.04466"
     xlink:href="#a"
     y1="233.48956"
     y2="367.96475" />
  <radialGradient
     id="c"
     cx="64.303313"
     cy="64.505531"
     fx="64.886924"
     fy="77.36248"
     gradientUnits="userSpaceOnUse"
     r="16.808167"
     gradientTransform="matrix(0.10867019,0,0,0.10867019,0.05134736,0.9978671)">
    <stop
       offset="0"
       stop-color="#6ccb34"
       id="stop8" />
    <stop
       offset="1"
       stop-color="#afe41f"
       id="stop10" />
  </radialGradient>
  <radialGradient
     id="d"
     cx="64.303315"
     cy="64.505532"
     fx="63.994744"
     fy="51.545619"
     gradientUnits="userSpaceOnUse"
     r="19.637235"
     xlink:href="#a" />
  <linearGradient
     id="e"
     gradientTransform="matrix(0.16224605,0,0,0.17560346,-3.8994094,-3.3503118)"
     gradientUnits="userSpaceOnUse"
     x1="80.092743"
     x2="80.092743"
     y1="69.24884"
     y2="56.05217">
    <stop
       offset="0"
       stop-color="#bce93f"
       stop-opacity=".285714"
       id="stop14" />
    <stop
       offset="1"
       stop-color="#eefacd"
       id="stop16" />
  </linearGradient>
  <filter
     id="f">
    <feGaussianBlur
       stdDeviation=".69107036"
       id="feGaussianBlur19" />
  </filter>
  <filter
     id="g">
    <feGaussianBlur
       stdDeviation=".45973757"
       id="feGaussianBlur22" />
  </filter>
  <filter
     id="h">
    <feGaussianBlur
       stdDeviation=".41550345"
       id="feGaussianBlur25" />
  </filter>
  <linearGradient
     id="i"
     gradientUnits="userSpaceOnUse"
     x1="63.993221"
     x2="63.993221"
     xlink:href="#j"
     y1="80.369598"
     y2="66.131996" />
  <linearGradient
     id="j">
    <stop
       offset="0"
       stop-color="#fff"
       id="stop29" />
    <stop
       offset="1"
       stop-color="#fff"
       stop-opacity="0"
       id="stop31" />
  </linearGradient>
  <linearGradient
     id="k">
    <stop
       offset="0"
       stop-color="#fff"
       id="stop34" />
    <stop
       offset=".5"
       stop-color="#fff"
       stop-opacity=".503597"
       id="stop36" />
    <stop
       offset="1"
       stop-color="#fff"
       id="stop38" />
  </linearGradient>
  <radialGradient
     id="l"
     cx="-84"
     cy="64"
     gradientUnits="userSpaceOnUse"
     r="60"
     xlink:href="#j" />
  <mask
     id="m"
     maskUnits="userSpaceOnUse">
    <path
       d="m-83.999999 4c-3.273853.017276-5.375768.1739184-8.625.625-.96195.153184-1.75.7805494-1.75 1.75l-.59375 9.4375c-.08851.955194-.756643 1.58433-1.46875 1.8125-.02183.007-.0406.02503-.0625.03125-4.116841 1.105169-8.022931 2.722102-11.625001 4.8125-.65155.281931-1.49213.264937-2.1875-.3125l-7.09375-6.25c-.6855-.685498-1.68023-.57188-2.46875 0-2.61651 1.978592-4.23532 3.353505-6.5625 5.65625-2.30274 2.327183-3.67766 3.945984-5.65625 6.5625-.57188.788521-.6855 1.783252 0 2.46875l6.25 7.09375c.47372.570479.7362 1.308846.46875 1.84375l-.0625.125c-2.24552 3.7996-3.99486 7.936313-5.125 12.3125-.0118.02064-.0187.04216-.0312.0625-.31721.512841-.85539.931584-1.59375 1l-9.4375.59375c-.96944 0-1.59681.78805-1.75 1.75-.45108 3.249232-.60772 5.351147-.625 8.625.0173 3.273853.17392 5.375768.625 8.625.15319.961946.78056 1.75 1.75 1.75l9.4375.59375c.86735.08037 1.44344.646567 1.71875 1.28125 1.10323 4.143354 2.76625 8.064208 4.875 11.6875.37292.668507.38163 1.614364-.25 2.375l-6.25 7.09375c-.6855.685496-.57188 1.680227 0 2.46875 1.97859 2.61651 3.35351 4.23531 5.65625 6.5625 2.32718 2.30274 3.94598 3.67766 6.5625 5.65625.78852.57188 1.78325.6855 2.46875 0l7.09375-6.25c.76064-.63163 1.70649-.62292 2.375-.25l.0937-.0937c3.52766 2.01717 7.32819 3.60952 11.343751 4.6875v.15625c.736401.20901 1.440029.85927 1.53125 1.84375l.59375 9.4375c0 .96944.78805 1.59681 1.75 1.75 3.249232.45108 5.351147.60772 8.625.625 3.273853-.0173 5.375768-.17392 8.625-.625.961946-.15319 1.75-.78056 1.75-1.75l.59375-9.4375c.09122-.98448.794849-1.63474 1.53125-1.84375v-.15625c4.015557-1.07798 7.816095-2.67033 11.34375-4.6875l.09375.0937c.668507-.37292 1.614362-.38163 2.375.25l7.09375 6.25c.685503.68551 1.680237.57189 2.46875 0 2.61651-1.97859 4.23531-3.35351 6.5625-5.65625 2.30274-2.32719 3.67766-3.94599 5.65625-6.5625.57189-.788513.68551-1.783245 0-2.46875l-6.25-7.09375c-.63163-.76064-.62292-1.706493-.25-2.375 2.10875-3.623292 3.77177-7.544146 4.875-11.6875.27531-.634683.8514-1.20088 1.71875-1.28125l9.4375-.59375c.96945 0 1.59682-.788054 1.75-1.75.45108-3.249232.60772-5.351147.625-8.625-.01728-3.273853-.17392-5.375768-.625-8.625-.15318-.96195-.78055-1.75-1.75-1.75l-9.4375-.59375c-.73836-.06842-1.27654-.487159-1.59375-1-.0056-.02192-.02559-.04059-.03125-.0625-1.13014-4.376187-3.15121-8.364911-5.125-12.3125l-.0625-.125c-.26745-.534904-.005-1.273273.46875-1.84375l6.25-7.09375c.68551-.685506.57188-1.680234 0-2.46875-1.97859-2.616516-3.35351-4.23532-5.65625-6.5625-2.32718-2.302747-3.94598-3.677659-6.5625-5.65625-.788516-.571884-1.783244-.685505-2.46875 0l-7.09375 6.25c-.695376.577435-1.535955.594432-2.1875.3125-3.602075-2.090398-7.508163-3.707331-11.625-4.8125-.0219-.0062-.04067-.02426-.0625-.03125-.712107-.22817-1.380239-.857306-1.46875-1.8125l-.59375-9.4375c0-.9694506-.788054-1.596816-1.75-1.75-3.249232-.4510816-5.351147-.6077236-8.625-.625zm0 44c8.831999-.000001 16 7.168 16 16-.000001 8.832-7.168001 16-16 16-8.832 0-16-7.168-16-16 .000001-8.832001 7.168001-16 16-16z"
       fill="url(#l)"
       id="path42" />
  </mask>
  <filter
     id="n">
    <feGaussianBlur
       stdDeviation="1.2828183"
       id="feGaussianBlur45" />
  </filter>
  <clipPath
     id="o">
    <path
       d="m76.90625-70.062499c-2.912256 3.972096-7.607051 6.5625-12.90625 6.5625-4.895788 0-9.283068-2.188651-12.21875-5.65625-23.139626-4.28557-26.617645 14.039708-31.5 30.75.408832.434.807117.86458 1.28125 1.34375 2.32718 2.30274 3.94598 3.67766 6.5625 5.65625.78852.57188 1.78325.6855 2.46875 0l7.09375-6.25c.76064-.63163 1.70649-.62292 2.375-.25l.09375-.09375c3.52766 2.01717 7.328189 3.60952 11.34375 4.6875v.15625c.736402.20901 1.440029.85927 1.53125 1.84375l.59375 9.4375c.000001.96944.78805 1.59681 1.75 1.75 3.249233.45108 5.351147.60772 8.625.625 3.273854-.01728 5.375768-.17392 8.625-.625.961947-.15319 1.75-.78056 1.75-1.75l.59375-9.4375c.09122-.98448.794849-1.63474 1.53125-1.84375v-.15625c4.015558-1.07798 7.816095-2.67033 11.34375-4.6875l.09375.09375c.668508-.37292 1.614362-.38163 2.375.25l7.09375 6.25c.685504.68551 1.680237.57189 2.46875 0 2.61651-1.97859 4.23531-3.35351 6.5625-5.65625.48542-.49057.8952-.93141 1.3125-1.375 3.92353-7.086674-25.609227-43.434539-30.84375-31.625z"
       id="path48" />
  </clipPath>
  <radialGradient
     id="p"
     cx="94.818924"
     cy="67.895119"
     gradientTransform="matrix(1,0,0,0.5780636,0,-101.84696)"
     gradientUnits="userSpaceOnUse"
     r="43.734375"
     xlink:href="#j" />
  <filter
     id="q">
    <feGaussianBlur
       stdDeviation=".60500001"
       id="feGaussianBlur52" />
  </filter>
  <linearGradient
     id="r"
     gradientUnits="userSpaceOnUse"
     x1="62.90738"
     x2="62.991143"
     xlink:href="#j"
     y1="3.391029"
     y2="9.393529" />
  <radialGradient
     id="s"
     cx="54.672985"
     cy="6.849921"
     fx="54.045624"
     fy="6.341433"
     gradientTransform="matrix(1 0 0 1.9019608 0 -6.17836)"
     gradientUnits="userSpaceOnUse"
     r="1.2891">
    <stop
       offset="0"
       stop-color="#fff"
       id="stop56" />
    <stop
       offset=".5"
       stop-color="#fff"
       stop-opacity=".791367"
       id="stop58" />
    <stop
       offset="1"
       stop-color="#fff"
       stop-opacity="0"
       id="stop60" />
  </radialGradient>
  <filter
     id="t">
    <feGaussianBlur
       stdDeviation=".022901589"
       id="feGaussianBlur63" />
  </filter>
  <linearGradient
     id="u"
     gradientUnits="userSpaceOnUse"
     x1="43.713863"
     x2="18.252157"
     xlink:href="#k"
     y1="11.36219"
     y2="21.728621" />
  <filter
     id="v">
    <feGaussianBlur
       stdDeviation=".093056358"
       id="feGaussianBlur67" />
  </filter>
  <linearGradient
     id="w"
     gradientUnits="userSpaceOnUse"
     x1="52.721935"
     x2="38.62756"
     xlink:href="#k"
     y1="17.796528"
     y2="22.658024" />
  <radialGradient
     id="x"
     cx="54.672985"
     cy="6.849921"
     gradientTransform="matrix(1 0 0 1.9019608 0 -6.17836)"
     gradientUnits="userSpaceOnUse"
     r="1.2891">
    <stop
       offset="0"
       stop-color="#474747"
       id="stop71" />
    <stop
       offset="1"
       stop-color="#474747"
       stop-opacity="0"
       id="stop73" />
  </radialGradient>
  <filter
     id="y"
     height="1.133383"
     width="1.225559"
     x="-.112779"
     y="-.066691">
    <feGaussianBlur
       stdDeviation=".13268874"
       id="feGaussianBlur76" />
  </filter>
  <linearGradient
     id="z"
     gradientUnits="userSpaceOnUse"
     x1="114.2963"
     x2="114.2963"
     y1="49.937351"
     y2="61.877388">
    <stop
       offset="0"
       stop-color="#fff"
       stop-opacity="0"
       id="stop79" />
    <stop
       offset=".32512316"
       stop-color="#fff"
       id="stop81" />
    <stop
       offset="1"
       stop-color="#fff"
       stop-opacity="0"
       id="stop83" />
  </linearGradient>
  <filter
     id="A">
    <feGaussianBlur
       stdDeviation=".20386597"
       id="feGaussianBlur86" />
  </filter>
  <filter
     id="B">
    <feGaussianBlur
       stdDeviation=".48701799"
       id="feGaussianBlur89" />
  </filter>
  <filter
     id="C">
    <feGaussianBlur
       stdDeviation=".12356379"
       id="feGaussianBlur92" />
  </filter>
  <filter
     id="D">
    <feGaussianBlur
       stdDeviation=".11909804"
       id="feGaussianBlur95" />
  </filter>
  <filter
     id="E">
    <feGaussianBlur
       stdDeviation=".069666275"
       id="feGaussianBlur98" />
  </filter>
  <linearGradient
     id="F"
     gradientUnits="userSpaceOnUse"
     x1="53.46933"
     x2="52.46933"
     y1="-13.03309"
     y2="167.96691">
    <stop
       offset="0"
       stop-color="#767676"
       id="stop101" />
    <stop
       offset="1"
       stop-color="#767676"
       stop-opacity="0"
       id="stop103" />
  </linearGradient>
  <radialGradient
     id="G"
     cx="64"
     cy="64"
     gradientUnits="userSpaceOnUse"
     r="60"
     xlink:href="#j" />
  <linearGradient
     id="H"
     gradientUnits="userSpaceOnUse"
     spreadMethod="reflect"
     x1="64.000002"
     x2="64.000002"
     y1="81.5"
     y2="12.678303">
    <stop
       offset="0"
       stop-color="#b4b4b4"
       id="stop107" />
    <stop
       offset=".5"
       stop-color="#d1d1d1"
       id="stop109" />
    <stop
       offset="1"
       stop-color="#fafafa"
       id="stop111" />
  </linearGradient>
  <linearGradient
     id="I"
     gradientUnits="userSpaceOnUse"
     x1="310.84995"
     x2="310.84995"
     y1="-27.656115"
     y2="270.16995">
    <stop
       offset="0"
       id="stop114" />
    <stop
       offset=".5"
       stop-color="#fff"
       id="stop116" />
    <stop
       offset="1"
       stop-color="#fff"
       id="stop118" />
  </linearGradient>
  <filter
     id="J">
    <feGaussianBlur
       stdDeviation=".11377897"
       id="feGaussianBlur121" />
  </filter>
  <radialGradient
     id="K"
     cx="-1.249402"
     cy="23.725372"
     fy="61.40414"
     gradientTransform="matrix(1.3581356,1.5026073,-1.6333333,1.4762927,-61.051702,-44.648234)"
     gradientUnits="userSpaceOnUse"
     r="60">
    <stop
       offset="0"
       stop-opacity="0"
       id="stop124" />
    <stop
       offset=".61052197"
       stop-opacity="0"
       id="stop126" />
    <stop
       offset=".68472904"
       stop-opacity=".377698"
       id="stop128" />
    <stop
       offset=".7499575"
       stop-opacity="0"
       id="stop130" />
    <stop
       offset="1"
       stop-opacity="0"
       id="stop132" />
  </radialGradient>
  <path
     inkscape:connector-curvature="0"
     id="path165"
     style="fill:#f3b7d9;fill-opacity:1;stroke:#e602b4;stroke-width:0.99999994;stroke-linecap:round;stroke-linejoin:round;stroke-miterlimit:4;stroke-dasharray:none;stroke-dashoffset:1.08780003;stroke-opacity:1;paint-order:markers fill stroke"
     d="m 8.0000626,1.4999897 c -0.3546673,0.00189 -0.582376,0.018839 -0.9343765,0.067704 -0.1042112,0.016597 -0.1895836,0.084557 -0.1895836,0.1895837 l -0.064319,1.0223977 c -0.00959,0.1034783 -0.081966,0.1716357 -0.1591143,0.1963541 -0.00236,7.585e-4 -0.00444,0.00275 -0.00681,0.00341 -0.4459911,0.1197067 -0.8691516,0.2948747 -1.2593763,0.521335 -0.070589,0.030537 -0.161648,0.028703 -0.2369796,-0.033857 L 4.3810456,2.7898326 c -0.074258,-0.074268 -0.1820245,-0.061954 -0.2674479,0 C 3.8301424,3.0041801 3.6547711,3.1531287 3.402659,3.4025938 3.1531949,3.6547058 3.0042452,3.8300762 2.7898978,4.1135324 c -0.061954,0.085428 -0.074258,0.1931859 0,0.267449 l 0.6770846,0.7684907 c 0.051324,0.061804 0.079753,0.1417924 0.050786,0.1997398 l -0.00681,0.013542 C 3.2676937,5.7743787 3.078181,6.222523 2.9557494,6.6966111 c -0.00132,0.00223 -0.00199,0.00457 -0.00341,0.00677 -0.034367,0.055558 -0.092672,0.1009213 -0.1726571,0.1083335 l -1.0223967,0.064323 c -0.1050236,0 -0.1729881,0.085373 -0.1895846,0.1895836 -0.048866,0.3520005 -0.065832,0.5797089 -0.067705,0.9343766 0.00189,0.3546677 0.018839,0.5823761 0.067705,0.9343771 0.016597,0.1042112 0.084557,0.1895836 0.1895846,0.1895836 l 1.0223967,0.064322 c 0.093967,0.0087 0.1563736,0.07004 0.1861989,0.1388029 0.1195168,0.4488628 0.2996773,0.8736236 0.5281255,1.2661466 0.040402,0.07242 0.041347,0.17489 -0.027086,0.257294 l -0.6770837,0.76849 c -0.074258,0.07426 -0.061954,0.182025 0,0.267448 0.2143474,0.283457 0.3632971,0.458827 0.6127612,0.710938 0.2521121,0.249464 0.4274825,0.398415 0.7109387,0.612762 0.085428,0.06196 0.1931859,0.07425 0.267448,0 l 0.7684916,-0.677084 c 0.082401,-0.06842 0.1848702,-0.06749 0.2572919,-0.02708 l 0.010157,-0.01015 c 0.3821643,0.218528 0.7938891,0.391032 1.2289081,0.507814 v 0.01693 c 0.079771,0.02264 0.1560037,0.09309 0.1658857,0.199739 l 0.064319,1.022398 c 0,0.105023 0.085371,0.172987 0.1895837,0.189583 0.3520004,0.04886 0.5797091,0.06584 0.9343765,0.06771 0.3546683,-0.0019 0.5823769,-0.01884 0.9343771,-0.06771 0.1042113,-0.0166 0.1895837,-0.08455 0.1895837,-0.189583 l 0.064319,-1.022398 c 0.00988,-0.106652 0.086108,-0.177097 0.1658857,-0.199739 v -0.01693 c 0.435021,-0.116781 0.8467471,-0.289285 1.2289091,-0.507813 l 0.01016,0.01015 c 0.07242,-0.04041 0.17489,-0.04135 0.257292,0.02708 l 0.76849,0.677084 c 0.07425,0.07426 0.182025,0.06196 0.267448,0 0.283456,-0.214347 0.458827,-0.363298 0.710939,-0.612762 0.249464,-0.252111 0.398413,-0.427481 0.612761,-0.710938 0.06196,-0.08542 0.07426,-0.193185 0,-0.267448 l -0.677084,-0.768491 c -0.06842,-0.0824 -0.06749,-0.184872 -0.02709,-0.257294 0.228448,-0.392523 0.408609,-0.8172838 0.528126,-1.2661477 0.02983,-0.068754 0.09224,-0.1300948 0.186198,-0.138802 l 1.022398,-0.064319 c 0.105024,0 0.172989,-0.085371 0.189583,-0.1895836 0.04886,-0.3520005 0.06583,-0.5797089 0.06771,-0.9343767 -0.0019,-0.3546676 -0.01883,-0.5823759 -0.06771,-0.9343765 -0.0166,-0.1042114 -0.08456,-0.1895837 -0.189583,-0.1895837 l -1.022398,-0.064323 c -0.07998,-0.00741 -0.138291,-0.052776 -0.172657,-0.1083336 -6.49e-4,-0.00237 -0.0028,-0.0044 -0.0034,-0.00677 -0.12238,-0.4740913 -0.341329,-0.9062034 -0.555157,-1.3338596 l -0.0068,-0.013542 c -0.02897,-0.057944 -5.42e-4,-0.1379376 0.05078,-0.1997397 l 0.677084,-0.7684907 c 0.07425,-0.074268 0.06196,-0.1820255 0,-0.267449 -0.214385,-0.2834579 -0.363336,-0.4588274 -0.6128,-0.7109394 -0.252111,-0.2494651 -0.427481,-0.3984137 -0.710938,-0.6127612 -0.08542,-0.061954 -0.193185,-0.074268 -0.267449,0 L 10.85052,3.4669172 c -0.07534,0.06256 -0.166394,0.064394 -0.236979,0.033857 C 10.223316,3.2743139 9.8001557,3.0991459 9.3541636,2.9794191 c -0.00236,-6.715e-4 -0.00444,-0.00265 -0.00681,-0.00341 C 9.2702117,2.9512933 9.1978278,2.8831349 9.1882391,2.7796595 L 9.1239205,1.7572626 c 0,-0.1050245 -0.08537,-0.172989 -0.1895837,-0.1895836 C 8.5823365,1.5188134 8.3546279,1.5018376 7.9999605,1.4999746 Z m 0,4.7666746 c 0.9568013,0 1.7333364,0.7765347 1.7333364,1.7333364 0,0.9568021 -0.7765351,1.7333365 -1.7333364,1.7333365 -0.9568015,0 -1.7333365,-0.7765344 -1.7333365,-1.7333365 0,-0.9568017 0.776535,-1.7333364 1.7333365,-1.7333364 z" />
  <circle
     cx="8.0137463"
     cy="7.9606652"
     r="1.9776943"
     id="circle203"
     style="fill:#9d3a9b;fill-opacity:1;stroke-width:0.10867019" />
  <path
     style="fill:none;stroke:#9d3a9b;stroke-width:1px;stroke-linecap:round;stroke-linejoin:miter;stroke-opacity:1"
     d="M 8.8850118,7.9031208 H 14.385011"
     id="path846"
     inkscape:connector-curvature="0" />
  <path
     style="fill:none;stroke:#9d3a9b;stroke-width:1px;stroke-linecap:round;stroke-linejoin:round;stroke-opacity:1"
     d="m 12.385012,5.9031205 1.999999,2.0000003 -1.999999,2"
     id="path848"
     inkscape:connector-curvature="0" />
</svg>
