<?xml version="1.0" encoding="UTF-8" standalone="no"?>
<svg
   xmlns:dc="http://purl.org/dc/elements/1.1/"
   xmlns:cc="http://creativecommons.org/ns#"
   xmlns:rdf="http://www.w3.org/1999/02/22-rdf-syntax-ns#"
   xmlns:svg="http://www.w3.org/2000/svg"
   xmlns="http://www.w3.org/2000/svg"
   xmlns:sodipodi="http://sodipodi.sourceforge.net/DTD/sodipodi-0.dtd"
   xmlns:inkscape="http://www.inkscape.org/namespaces/inkscape"
   enable-background="new 0 0 128 128"
   height="16"
   viewBox="0 0 16 16"
   width="16"
   version="1.1"
   id="svg155"
   sodipodi:docname="sc_renameobject.svg"
   inkscape:version="0.92.4 (unknown)"
   inkscape:export-filename="/home/annisaauliarasyidah/Desktop/4_242 (aulia)/sc 222/sc_renameobject.png"
   inkscape:export-xdpi="96"
   inkscape:export-ydpi="96">
  <metadata
     id="metadata161">
    <rdf:RDF>
      <cc:Work
         rdf:about="">
        <dc:format>image/svg+xml</dc:format>
        <dc:type
           rdf:resource="http://purl.org/dc/dcmitype/StillImage" />
      </cc:Work>
    </rdf:RDF>
  </metadata>
  <defs
     id="defs159" />
  <sodipodi:namedview
     pagecolor="#ffffff"
     bordercolor="#666666"
     borderopacity="1"
     objecttolerance="10"
     gridtolerance="10"
     guidetolerance="10"
     inkscape:pageopacity="0"
     inkscape:pageshadow="2"
     inkscape:window-width="1366"
     inkscape:window-height="707"
     id="namedview157"
     showgrid="true"
     inkscape:snap-global="true"
     inkscape:zoom="22.652103"
     inkscape:cx="4.5221731"
     inkscape:cy="5.0170402"
     inkscape:window-x="0"
     inkscape:window-y="0"
     inkscape:window-maximized="1"
     inkscape:current-layer="svg155">
    <inkscape:grid
       type="xygrid"
       id="grid1024" />
  </sodipodi:namedview>
  <linearGradient
     id="a"
     gradientUnits="userSpaceOnUse"
     x1="85.219681"
     x2="61.336319"
     y1="93.219681"
     y2="69.336319">
    <stop
       offset="0"
       id="stop2" />
    <stop
       offset="1"
       stop-color="#393b38"
       id="stop4" />
  </linearGradient>
  <linearGradient
     id="b"
     gradientUnits="userSpaceOnUse"
     x1="96"
     x2="88.000198"
     y1="104"
     y2="96.000198">
    <stop
       offset="0"
       stop-color="#888a85"
       id="stop7" />
    <stop
       offset=".0072"
       stop-color="#8c8e89"
       id="stop9" />
    <stop
       offset=".0673"
       stop-color="#abaca9"
       id="stop11" />
    <stop
       offset=".1347"
       stop-color="#c5c6c4"
       id="stop13" />
    <stop
       offset=".2115"
       stop-color="#dbdbda"
       id="stop15" />
    <stop
       offset=".3012"
       stop-color="#ebebeb"
       id="stop17" />
    <stop
       offset=".4122"
       stop-color="#f7f7f6"
       id="stop19" />
    <stop
       offset=".5679"
       stop-color="#fdfdfd"
       id="stop21" />
    <stop
       offset="1"
       stop-color="#fff"
       id="stop23" />
  </linearGradient>
  <radialGradient
     id="c"
     cx="102"
     cy="112.3047"
     gradientTransform="matrix(0.12234042,0,0,0.12272727,0.17021313,0.1454665)"
     gradientUnits="userSpaceOnUse"
     r="139.55859">
    <stop
       offset="0"
       stop-color="#535557"
       id="stop26" />
    <stop
       offset=".11366145"
       stop-color="#898a8c"
       id="stop28" />
    <stop
       offset=".20296688"
       stop-color="#ececec"
       id="stop30" />
    <stop
       offset=".2363"
       stop-color="#fafafa"
       id="stop32" />
    <stop
       offset=".2722"
       stop-color="#fff"
       id="stop34" />
    <stop
       offset=".5313"
       stop-color="#fafafa"
       id="stop36" />
    <stop
       offset=".8449"
       stop-color="#ebecec"
       id="stop38" />
    <stop
       offset="1"
       stop-color="#e1e2e3"
       id="stop40" />
  </radialGradient>
  <radialGradient
     id="d"
     cx="102"
     cy="112.3047"
     gradientUnits="userSpaceOnUse"
     r="139.5585"
     gradientTransform="matrix(0.125,0,0,0.125,0,1.2e-5)">
    <stop
       offset="0"
       stop-color="#00537d"
       id="stop43" />
    <stop
       offset=".0151"
       stop-color="#186389"
       id="stop45" />
    <stop
       offset=".0558"
       stop-color="#558ca8"
       id="stop47" />
    <stop
       offset=".0964"
       stop-color="#89afc3"
       id="stop49" />
    <stop
       offset=".1357"
       stop-color="#b3ccd8"
       id="stop51" />
    <stop
       offset=".1737"
       stop-color="#d4e2e9"
       id="stop53" />
    <stop
       offset=".2099"
       stop-color="#ecf2f5"
       id="stop55" />
    <stop
       offset=".2435"
       stop-color="#fafcfd"
       id="stop57" />
    <stop
       offset=".2722"
       stop-color="#fff"
       id="stop59" />
  </radialGradient>
  <filter
     id="e">
    <feGaussianBlur
       stdDeviation="1.0394514"
       id="feGaussianBlur62" />
  </filter>
  <filter
     id="f">
    <feGaussianBlur
       stdDeviation=".50063244"
       id="feGaussianBlur65" />
  </filter>
  <filter
     id="g">
    <feGaussianBlur
       stdDeviation=".4901192"
       id="feGaussianBlur68" />
  </filter>
  <filter
     id="h">
    <feGaussianBlur
       stdDeviation=".90565481"
       id="feGaussianBlur71" />
  </filter>
  <filter
     id="i"
     height="1.247155"
     width="1.247155"
     x="-.123577"
     y="-.123577">
    <feGaussianBlur
       stdDeviation="1.7720846"
       id="feGaussianBlur74" />
  </filter>
  <filter
     id="j"
     color-interpolation-filters="sRGB"
     height="1.081416"
     width="1.047504"
     x="-.023752"
     y="-.040708">
    <feGaussianBlur
       stdDeviation="1.0608009"
       id="feGaussianBlur77" />
  </filter>
  <linearGradient
     id="k"
     gradientUnits="userSpaceOnUse"
     x1="73.884003"
     x2="83.571121"
     y1="135.42368"
     y2="-20.739262">
    <stop
       offset="0"
       stop-color="#0d0"
       id="stop80" />
    <stop
       offset="1"
       stop-color="#000e00"
       id="stop82" />
  </linearGradient>
  <radialGradient
     id="l"
     cx="73.72036"
     cy="101.74702"
     gradientTransform="matrix(4.1052304,-0.37601167,0.29689698,3.2414698,-264.18097,-192.83082)"
     gradientUnits="userSpaceOnUse"
     r="18.978512">
    <stop
       offset="0"
       stop-color="#0f0"
       id="stop85" />
    <stop
       offset="1"
       stop-color="#004d00"
       id="stop87" />
  </radialGradient>
  <radialGradient
     id="m"
     cx="57.522243"
     cy="63.842773"
     gradientTransform="matrix(7.2611355,0,0,7.0240393,-399.44582,-454.49493)"
     gradientUnits="userSpaceOnUse"
     r="18.978512">
    <stop
       offset="0"
       stop-color="#bfffbf"
       id="stop90" />
    <stop
       offset="1"
       stop-color="#bfffbf"
       stop-opacity="0"
       id="stop92" />
  </radialGradient>
  <linearGradient
     id="n"
     gradientUnits="userSpaceOnUse"
     x1="63.14854"
     x2="69.310593"
     y1="117.01452"
     y2="36.40435">
    <stop
       offset="0"
       stop-color="#f0ff80"
       id="stop95" />
    <stop
       offset="1"
       stop-color="#f0ff80"
       stop-opacity="0"
       id="stop97" />
  </linearGradient>
  <clipPath
     id="o">
    <path
       d="m14.349982-.517543c-.584216 0-1.060283.477572-1.060283 1.063636l.325 101.872727c0 .58714.476067 1.06364 1.060283 1.06364h56.239107c.278855 0 .552408-.11274.74962-.31164l28.306991-28.417063c.19828-.1989.31066-.472254.31066-.75199v-73.455674c0-.586064-.47501-1.063636-1.06028-1.063636z"
       id="path100" />
  </clipPath>
  <g
     id="g125"
     transform="matrix(0.125,0,0,0.125,1.2198441,1.0835823)"
     clip-path="url(#o)" />
  <rect
     ry="0.99999994"
     rx="0.99999952"
     y="1.5"
     x="1.5"
     height="12.966523"
     width="10.993576"
     id="rect927-3"
     style="opacity:1;fill:#f0e3ec;fill-opacity:1;fill-rule:evenodd;stroke:#e602b4;stroke-width:0.99999988;stroke-linecap:round;stroke-linejoin:round;stroke-miterlimit:4;stroke-dasharray:none;stroke-opacity:1;paint-order:markers fill stroke" />
  <path
     inkscape:connector-curvature="0"
     d="m 2.848482,3.894307 c 0.03592,-0.394437 0.316134,-0.68063 0.666756,-0.68063 0.233598,0 0.447475,0.125236 0.567819,0.326079 0.119265,-0.203336 0.324375,-0.326079 0.554225,-0.326079 0.350574,0 0.630794,0.286196 0.666709,0.68063 0.0028,0.01738 0.01449,0.109149 -0.02099,0.258702 -0.05111,0.215721 -0.16905,0.41188 -0.341082,0.567254 L 4.083599,5.496472 3.210544,4.720308 C 3.038499,4.564934 2.920522,4.368778 2.869448,4.153053 2.833978,4.003574 2.845668,3.911873 2.848448,3.894427 Z m 0.113231,0.23702 C 3.008333,4.32832 3.116417,4.507785 3.273959,4.650014 L 4.083049,5.369395 4.878256,4.650243 C 5.036087,4.507711 5.144114,4.32832 5.190782,4.131329 5.224342,3.989858 5.210542,3.909864 5.210482,3.909341 l -7.41e-4,-0.0047 C 5.178951,3.559083 4.938244,3.308161 4.637278,3.308161 c -0.222082,0 -0.417582,0.13596 -0.510352,0.354853 L 4.083296,3.766109 4.039656,3.663014 C 3.948366,3.44754 3.74252,3.308256 3.515189,3.308256 c -0.300925,0 -0.541712,0.250849 -0.573127,0.600943 -9.4e-5,7.53e-4 -0.01382,0.08074 0.01968,0.222219 z"
     id="path2-6"
     style="fill:#9d3a9b;fill-opacity:1;stroke:#9d3a9b;stroke-width:0.25;stroke-miterlimit:4;stroke-dasharray:none;stroke-opacity:1" />
  <path
     style="fill:none;stroke:#e602b4;stroke-width:0.99999988;stroke-linecap:round;stroke-linejoin:miter;stroke-miterlimit:4;stroke-dasharray:none;stroke-opacity:1"
     d="m 3.5,7.5 h 7.324282"
     id="path946-7"
     inkscape:connector-curvature="0" />
  <path
     inkscape:connector-curvature="0"
     id="path948-5"
     d="m 3.5,9.5 h 7.324281"
     style="fill:none;stroke:#e602b4;stroke-width:0.99999988;stroke-linecap:round;stroke-linejoin:miter;stroke-miterlimit:4;stroke-dasharray:none;stroke-opacity:1" />
  <path
     style="fill:none;stroke:#e602b4;stroke-width:0.99999988;stroke-linecap:round;stroke-linejoin:miter;stroke-miterlimit:4;stroke-dasharray:none;stroke-opacity:1"
     d="m 3.5,11.500001 h 7.324281"
     id="path913-3"
     inkscape:connector-curvature="0" />
  <path
     inkscape:connector-curvature="0"
     style="fill:#9d3a9b;stroke:#f0e3ec;stroke-width:0.5;stroke-miterlimit:4;stroke-dasharray:none"
     id="path123"
     d="m 14.471737,12.122543 c -0.0049,-0.331314 -0.124177,-0.669522 -0.397138,-0.693553 -0.206776,-0.0182 -1.019784,0.304002 -1.217689,0.17467 -0.298157,-0.194848 -0.132379,-0.862154 -0.132379,-1.323667 l -0.22034,-6.15e-4 -7.69e-4,-0.01063 -1.327046,0.0054 -1.455296,-0.0054 -6.15e-4,0.01063 L 9.5,10.279993 c 0,0.461513 0.165778,1.128819 -0.13238,1.323667 -0.197904,0.129332 -0.8827882,-0.192874 -1.0895637,-0.17467 -0.2729607,0.02403 -0.392237,0.362239 -0.3971375,0.693553 -0.00492,0.331875 0.057262,0.539771 0.2647587,0.65126 C 8.3644183,12.891331 9.234649,12.44739 9.388891,12.625534 9.60156,12.871157 9.502652,13.526341 9.5,14 L 11.176386,13.9971 12.724523,14 c -0.0027,-0.473659 -0.101435,-1.128843 0.111233,-1.374466 0.154242,-0.178144 1.152474,0.265796 1.371214,0.148268 0.207499,-0.111488 0.269666,-0.319384 0.264759,-0.651259 z" />
  <path
     d="M 1,3 H 11.5 V 9.118645 H 1 Z"
     id="path97"
     inkscape:connector-curvature="0"
     style="fill:#f0e3ec;stroke-width:0.19958825" />
  <text
     style="font-size:5.47262526px;font-family:sans-serif;letter-spacing:0;word-spacing:0;fill:#f3b7d9;stroke-width:0.13380262"
     x="1.8520775"
     y="7.9092302"
     id="text101">
    <tspan
       font-weight="600"
       letter-spacing="8.14620304"
       x="1.8520775"
       y="7.9092302"
       id="tspan99"
       style="font-style:normal;font-variant:normal;font-weight:bold;font-stretch:normal;font-family:Nunito;-inkscape-font-specification:'Nunito Bold';letter-spacing:1.04120576;fill:#9d3a9b;stroke-width:0.13380262">AB</tspan>
  </text>
  <path
     inkscape:connector-curvature="0"
     id="path884"
     d="M 9.5000005,2.5 H 14.5"
     style="fill:none;stroke:#9d3a9b;stroke-width:1px;stroke-linecap:round;stroke-linejoin:miter;stroke-opacity:1" />
  <path
     inkscape:connector-curvature="0"
     id="path886"
     d="M 12,2.6882426 V 9.5"
     style="fill:none;stroke:#9d3a9b;stroke-width:1px;stroke-linecap:round;stroke-linejoin:miter;stroke-opacity:1" />
  <path
     inkscape:connector-curvature="0"
     id="path888"
     d="m 9.5,9.5 h 4.999999"
     style="fill:none;stroke:#9d3a9b;stroke-width:1px;stroke-linecap:round;stroke-linejoin:miter;stroke-opacity:1" />
</svg>
