<?xml version="1.0" encoding="UTF-8" standalone="no"?>
<svg
   xmlns:dc="http://purl.org/dc/elements/1.1/"
   xmlns:cc="http://creativecommons.org/ns#"
   xmlns:rdf="http://www.w3.org/1999/02/22-rdf-syntax-ns#"
   xmlns:svg="http://www.w3.org/2000/svg"
   xmlns="http://www.w3.org/2000/svg"
   xmlns:xlink="http://www.w3.org/1999/xlink"
   xmlns:sodipodi="http://sodipodi.sourceforge.net/DTD/sodipodi-0.dtd"
   xmlns:inkscape="http://www.inkscape.org/namespaces/inkscape"
   height="16"
   viewBox="0 0 4.2333333 4.2333335"
   width="16"
   version="1.1"
   id="svg29"
   sodipodi:docname="sc_romanlowliststyle.svg"
   inkscape:version="0.92.4 (unknown)"
   inkscape:export-filename="/home/annisaauliarasyidah/Desktop/4_242 (aulia)/sc 222/sc_romanlowliststyle.png"
   inkscape:export-xdpi="96"
   inkscape:export-ydpi="96">
  <metadata
     id="metadata35">
    <rdf:RDF>
      <cc:Work
         rdf:about="">
        <dc:format>image/svg+xml</dc:format>
        <dc:type
           rdf:resource="http://purl.org/dc/dcmitype/StillImage" />
      </cc:Work>
    </rdf:RDF>
  </metadata>
  <defs
     id="defs33" />
  <sodipodi:namedview
     pagecolor="#ffffff"
     bordercolor="#666666"
     borderopacity="1"
     objecttolerance="10"
     gridtolerance="10"
     guidetolerance="10"
     inkscape:pageopacity="0"
     inkscape:pageshadow="2"
     inkscape:window-width="1366"
     inkscape:window-height="707"
     id="namedview31"
     showgrid="true"
     inkscape:zoom="29.39404"
     inkscape:cx="1.9175585"
     inkscape:cy="8"
     inkscape:window-x="0"
     inkscape:window-y="0"
     inkscape:window-maximized="1"
     inkscape:current-layer="svg29">
    <inkscape:grid
       type="xygrid"
       id="grid842" />
  </sodipodi:namedview>
  <linearGradient
     id="a"
     gradientUnits="userSpaceOnUse"
     x1="4"
     x2="4"
     xlink:href="#c"
     y1="8"
     y2="-.5" />
  <linearGradient
     id="b"
     gradientUnits="userSpaceOnUse"
     x1="4"
     x2="4"
     xlink:href="#c"
     y1="16"
     y2="7.5"
     gradientTransform="scale(0.26458334)" />
  <linearGradient
     id="c">
    <stop
       offset="0"
       stop-color="#06f"
       id="stop4" />
    <stop
       offset="1"
       stop-color="#80b3ff"
       id="stop6" />
  </linearGradient>
  <path
     d="m4 1c-.5522619.0000552-.9999448.4477381-1 1v1c.0002451.1756079.0467252.3480556.1347656.5-.0880404.1519444-.1345205.3243921-.1347656.5v3c.0000552.5522619.4477381.9999448 1 1h1c.5522619-.0000552.9999448-.4477381 1-1v-3c-.0002451-.1756079-.0467252-.3480556-.1347656-.5.0880404-.1519444.1345205-.3243921.1347656-.5v-1c-.0000552-.5522619-.4477381-.9999448-1-1z"
     fill="url(#a)"
     transform="scale(.26458334)"
     id="path9"
     style="fill:#e602b4" />
  <path
     d="m4 2v1h1v-1zm0 2v3h1v-3z"
     fill="#bfd9ff"
     transform="scale(.26458334)"
     id="path11"
     style="fill:#f3b7d9" />
  <path
     inkscape:connector-curvature="0"
     style="fill:#e602b4;stroke-width:0.26458335"
     id="path23"
     d="M 0.26458334,2.3812501 C 0.11846404,2.3812647 1.4605e-5,2.4997141 0,2.6458334 v 0.2645833 c 6.4849377e-5,0.046463 0.01236272,0.09209 0.03565674,0.1322917 C 0.01236272,3.0829103 6.4849377e-5,3.1285371 0,3.1750001 v 0.79375 c 1.4605e-5,0.1461193 0.11846404,0.2645688 0.26458334,0.2645833 h 0.26458334 c 0.1461193,-1.45e-5 0.26456873,-0.118464 0.26458334,-0.2645833 1.461e-5,0.1461193 0.11846404,0.2645688 0.26458338,0.2645833 H 1.3229167 C 1.469036,4.2333189 1.5874854,4.1148694 1.5875,3.9687501 v -0.79375 C 1.5874352,3.1285371 1.5751373,3.0829103 1.5518433,3.0427084 1.5751373,3.0025066 1.5874352,2.9568797 1.5875,2.9104167 V 2.6458334 C 1.5874854,2.4997141 1.469036,2.3812647 1.3229167,2.3812501 H 1.0583334 C 0.91221406,2.3812647 0.79376463,2.4997141 0.79375002,2.6458334 0.79373541,2.4997141 0.67528598,2.3812647 0.52916668,2.3812501 Z m 0.52916668,0.5291666 c 6.485e-5,0.046463 0.0123627,0.09209 0.0356567,0.1322917 -0.023294,0.040202 -0.0355919,0.085829 -0.0356567,0.1322917 -6.485e-5,-0.046463 -0.0123627,-0.09209 -0.0356567,-0.1322917 0.023294,-0.040202 0.0355919,-0.085829 0.0356567,-0.1322917 z" />
  <path
     style="fill:#f3b7d9;stroke-width:0.26458335"
     inkscape:connector-curvature="0"
     id="path25"
     d="M 0.26458334,2.6458334 V 2.9104167 H 0.52916668 V 2.6458334 Z m 0.79375006,0 V 2.9104167 H 1.3229167 V 2.6458334 Z M 0.26458334,3.1750001 v 0.79375 h 0.26458334 v -0.79375 z m 0.79375006,0 v 0.79375 h 0.2645833 v -0.79375 z" />
  <path
     style="fill:#9d3a9b;stroke:#9d3a9b;stroke-width:0.26458334;stroke-linecap:round;stroke-linejoin:miter;stroke-opacity:1;stroke-miterlimit:4;stroke-dasharray:none"
     d="M 1.984375,0.92604169 H 3.8364584"
     id="path844"
     inkscape:connector-curvature="0" />
  <path
     inkscape:connector-curvature="0"
     id="path846"
     d="M 1.984375,1.4552084 H 3.8364584"
     style="fill:#9d3a9b;stroke:#9d3a9b;stroke-width:0.26458334;stroke-linecap:round;stroke-linejoin:miter;stroke-opacity:1;stroke-miterlimit:4;stroke-dasharray:none" />
  <path
     style="fill:#9d3a9b;stroke:#9d3a9b;stroke-width:0.26458334;stroke-linecap:round;stroke-linejoin:miter;stroke-opacity:1;stroke-miterlimit:4;stroke-dasharray:none"
     d="M 1.984375,2.5135417 H 3.8364584"
     id="path848"
     inkscape:connector-curvature="0" />
  <path
     inkscape:connector-curvature="0"
     id="path850"
     d="M 1.984375,3.0427084 H 3.8364584"
     style="fill:#9d3a9b;stroke:#9d3a9b;stroke-width:0.26458334;stroke-linecap:round;stroke-linejoin:miter;stroke-opacity:1;stroke-miterlimit:4;stroke-dasharray:none" />
</svg>
