<?xml version="1.0" encoding="UTF-8" standalone="no"?>
<svg
   xmlns:dc="http://purl.org/dc/elements/1.1/"
   xmlns:cc="http://creativecommons.org/ns#"
   xmlns:rdf="http://www.w3.org/1999/02/22-rdf-syntax-ns#"
   xmlns:svg="http://www.w3.org/2000/svg"
   xmlns="http://www.w3.org/2000/svg"
   xmlns:xlink="http://www.w3.org/1999/xlink"
   xmlns:sodipodi="http://sodipodi.sourceforge.net/DTD/sodipodi-0.dtd"
   xmlns:inkscape="http://www.inkscape.org/namespaces/inkscape"
   height="16"
   width="16"
   version="1.1"
   id="svg166"
   sodipodi:docname="sc_recalcpivottable.svg"
   inkscape:version="0.92.4 (unknown)"
   inkscape:export-filename="/home/annisaauliarasyidah/Desktop/4_242 (aulia)/sc 222/sc_recalcpivottable.png"
   inkscape:export-xdpi="96"
   inkscape:export-ydpi="96">
  <metadata
     id="metadata172">
    <rdf:RDF>
      <cc:Work
         rdf:about="">
        <dc:format>image/svg+xml</dc:format>
        <dc:type
           rdf:resource="http://purl.org/dc/dcmitype/StillImage" />
      </cc:Work>
    </rdf:RDF>
  </metadata>
  <defs
     id="defs170">
    <mask
       id="v"
       maskUnits="userSpaceOnUse">
      <g
         transform="translate(248.01637,30.885255)"
         id="g91">
        <path
           style="fill:url(#r-3)"
           inkscape:connector-curvature="0"
           d="m -184.42232,-32.47243 c -33.12519,0 -64,32.374805 -64,65.5 0,33.12519 31.37481,64 64.5,64 30.28912,0 55.33661,-26.21626 59.40625,-55.34375 l -35.03125,-5.03125 c -1.62468,11.96113 -11.93007,20.96875 -24.375,20.96875 -13.57163,0 -22.09375,-11.52212 -22.09375,-25.09375 0,-13.571634 6.02212,-20.09375 19.59375,-20.09375 6.78582,-1e-6 9.92129,-2.234956 14.375,2.21875 l -4.82718,11.327179 c -2.05587,2.05587 -2.24372,3.30578 -1.67961,4.615529 0.50857,1.180779 1.52073,2.526042 4.20973,2.526042 h 43.95331 c 3.84589,0 6.45899,-2.654379 6.45899,-6.250131 l -0.0689,-44.078018 c 0,-2.480755 -0.90251,-3.843229 -2.18147,-4.349615 -1.31432,-0.520385 -3.03321,-0.122678 -5.10709,1.9512 l -10.19531,0.195314 c -10.85935,-10.859351 -26.3749,-13.0625 -42.9375,-13.0625 z"
           id="path83" />
        <path
           style="fill:url(#s-5);fill-rule:evenodd;filter:url(#q-5)"
           inkscape:connector-curvature="0"
           d="M -161.5,34.5 C -162,37 -180,54 -180,54 l 47.5,26 20.5,-41.5 z"
           id="path85" />
        <path
           style="fill:url(#t-6);fill-rule:evenodd;filter:url(#q-5)"
           inkscape:connector-curvature="0"
           d="m -161.5,34.5 c -0.5,2.5 -19.77817,19.889087 -19.77817,19.889087 L -151.62742,97.591883 -112,38.5 Z"
           id="path87" />
        <path
           style="fill:url(#u);fill-rule:evenodd;filter:url(#q-5)"
           inkscape:connector-curvature="0"
           d="m -161.5,34.5 c -0.5,2.5 -19.77817,19.889087 -19.77817,19.889087 L -151.62742,97.591883 -112,38.5 Z"
           id="path89" />
      </g>
    </mask>
    <radialGradient
       id="r-3"
       cx="-112.17241"
       cy="118.60459"
       fx="-113.14772"
       fy="59.708473"
       gradientTransform="matrix(0.6484284,0.1017206,-0.03125715,0.1992521,-4.56257,53.15916)"
       gradientUnits="userSpaceOnUse"
       r="59.995121">
      <stop
         offset="0"
         stop-color="#fff"
         stop-opacity="0"
         id="stop73" />
      <stop
         offset=".5"
         stop-color="#fff"
         stop-opacity=".18705"
         id="stop75-6" />
      <stop
         offset="1"
         stop-color="#fff"
         id="stop77-7" />
    </radialGradient>
    <linearGradient
       id="s-5"
       gradientUnits="userSpaceOnUse"
       x1="-151.43935"
       x2="-152.26776"
       xlink:href="#f-3"
       y1="37.68198"
       y2="57.25" />
    <linearGradient
       id="f-3">
      <stop
         offset="0"
         id="stop17" />
      <stop
         offset="1"
         stop-opacity="0"
         id="stop19" />
    </linearGradient>
    <filter
       id="q-5">
      <feGaussianBlur
         stdDeviation="1.3342697"
         id="feGaussianBlur70" />
    </filter>
    <linearGradient
       id="t-6"
       gradientUnits="userSpaceOnUse"
       x1="-132.51041"
       x2="-158.92462"
       xlink:href="#f-3"
       y1="39.803303"
       y2="72.881729" />
    <filter
       id="filter918">
      <feGaussianBlur
         stdDeviation="1.3342697"
         id="feGaussianBlur916" />
    </filter>
    <linearGradient
       id="u"
       gradientUnits="userSpaceOnUse"
       x1="-83.012932"
       x2="-158.92462"
       xlink:href="#f-3"
       y1="44.753052"
       y2="72.881729" />
    <filter
       id="filter929">
      <feGaussianBlur
         stdDeviation="1.3342697"
         id="feGaussianBlur927" />
    </filter>
    <radialGradient
       id="o-2"
       cx="66.01458"
       cy="126.69183"
       gradientTransform="matrix(0.675025,0,0,0.3583625,19.527377,41.004647)"
       gradientUnits="userSpaceOnUse"
       r="59.995121">
      <stop
         offset="0"
         stop-color="#2c41be"
         id="stop60-9" />
      <stop
         offset="1"
         stop-color="#2c41be"
         stop-opacity="0"
         id="stop62-1" />
    </radialGradient>
    <linearGradient
       id="i-2"
       gradientTransform="matrix(0.9792,0,0,0.9725,133.0002,20.8762)"
       gradientUnits="userSpaceOnUse"
       x1="64.088867"
       x2="64.088867"
       y1="9.6794214"
       y2="123.90625">
      <stop
         offset="0"
         stop-color="#00008c"
         id="stop28-7" />
      <stop
         offset=".3553"
         stop-color="#1c1cac"
         id="stop30-0" />
      <stop
         offset=".6194"
         stop-color="#080895"
         id="stop32" />
      <stop
         offset=".7574"
         stop-color="#00008c"
         id="stop34-9" />
      <stop
         offset="1"
         stop-color="#00004d"
         id="stop36-3" />
    </linearGradient>
    <linearGradient
       id="m-6"
       gradientUnits="userSpaceOnUse"
       spreadMethod="reflect"
       x1="120.0625"
       x2="125.30366"
       xlink:href="#h-0"
       y1="12.569496"
       y2="14.444496" />
    <linearGradient
       id="h-0">
      <stop
         offset="0"
         stop-color="#fff"
         id="stop23" />
      <stop
         offset="1"
         stop-color="#fff"
         stop-opacity="0"
         id="stop25" />
    </linearGradient>
    <filter
       id="n-6"
       height="1.274647"
       width="1.301924"
       x="-0.150962"
       y="-0.13732401">
      <feGaussianBlur
         stdDeviation=".39257441"
         id="feGaussianBlur57" />
    </filter>
    <linearGradient
       id="p-2"
       gradientUnits="userSpaceOnUse"
       spreadMethod="reflect"
       x1="120.0625"
       x2="125.30366"
       y1="12.569496"
       y2="14.444496">
      <stop
         offset="0"
         stop-color="#baff63"
         id="stop65-6" />
      <stop
         offset="1"
         stop-color="#fff"
         stop-opacity="0"
         id="stop67-1" />
    </linearGradient>
    <filter
       id="filter951"
       height="1.274647"
       width="1.301924"
       x="-0.150962"
       y="-0.13732401">
      <feGaussianBlur
         stdDeviation=".39257441"
         id="feGaussianBlur949" />
    </filter>
    <radialGradient
       id="j-8"
       cx="67.09375"
       cy="116.90626"
       gradientUnits="userSpaceOnUse"
       r="71.590965">
      <stop
         offset="0"
         stop-color="#5757ff"
         id="stop39-7" />
      <stop
         offset=".3553"
         stop-color="#223fd1"
         id="stop41-9" />
      <stop
         offset=".6194"
         stop-color="#0f1af2"
         id="stop43" />
      <stop
         offset=".7574"
         stop-color="#0000cf"
         id="stop45" />
      <stop
         offset="1"
         stop-color="#00008e"
         id="stop47" />
    </radialGradient>
    <linearGradient
       id="k-2"
       gradientUnits="userSpaceOnUse"
       x1="75.097969"
       x2="75.097969"
       xlink:href="#h-0"
       y1="4.5336752"
       y2="80.174454" />
    <linearGradient
       id="l-0"
       gradientUnits="userSpaceOnUse"
       x1="71.59375"
       x2="71.59375"
       y1="130.40625"
       y2="63.426777">
      <stop
         offset="0"
         stop-color="#f0ff80"
         id="stop51-2" />
      <stop
         offset="1"
         stop-color="#f0ff80"
         stop-opacity="0"
         id="stop53" />
    </linearGradient>
    <filter
       id="w">
      <feGaussianBlur
         stdDeviation=".565"
         id="feGaussianBlur94" />
    </filter>
  </defs>
  <sodipodi:namedview
     pagecolor="#ffffff"
     bordercolor="#666666"
     borderopacity="1"
     objecttolerance="10"
     gridtolerance="10"
     guidetolerance="10"
     inkscape:pageopacity="0"
     inkscape:pageshadow="2"
     inkscape:window-width="1366"
     inkscape:window-height="707"
     id="namedview168"
     showgrid="true"
     inkscape:zoom="29.39404"
     inkscape:cx="1.9175585"
     inkscape:cy="8"
     inkscape:window-x="0"
     inkscape:window-y="0"
     inkscape:window-maximized="1"
     inkscape:current-layer="svg166"
     inkscape:snap-global="true">
    <inkscape:grid
       type="xygrid"
       id="grid1216" />
  </sodipodi:namedview>
  <clipPath
     id="a">
    <path
       d="m2.7874267 294.08995c-.6536123-.004-1.2297545.42813-1.4086995 1.05678-.1898565.66692.1172257 1.37515.7338053 1.6924.4171572.21458.8956189.20527 1.2965618.0119l-.5896282-.91106a.396875.396875 0 0 1 -.2227254-.0419.396875.396875 0 0 1 -.2005046-.46147.396875.396875 0 0 1 .4134116-.28732.396875.396875 0 0 1 .1834513.063l-.2413289.24133a.13030278.13030278 0 0 0 .091984.22273h1.2578043a.13030278.13030278 0 0 0 .1307415-.13126v-1.25781a.13030278.13030278 0 0 0 -.1348756-.13074.13030278.13030278 0 0 0 -.08785.0393l-.2640666.26406c-.236479-.21133-.5355238-.33962-.8516276-.36535-.035416-.003-.070924-.004-.1064535-.005z"
       id="path2" />
  </clipPath>
  <linearGradient
     id="b"
     gradientTransform="matrix(.0789558 0 0 .07841556 27.361627 7.365724)"
     gradientUnits="userSpaceOnUse"
     x1="17"
     x2="17"
     y1="8"
     y2="17">
    <stop
       offset="0"
       stop-color="#00008c"
       id="stop5" />
    <stop
       offset=".3553"
       stop-color="#1c1cac"
       id="stop7" />
    <stop
       offset=".6194"
       stop-color="#080895"
       id="stop9" />
    <stop
       offset=".7574"
       stop-color="#00008c"
       id="stop11" />
    <stop
       offset="1"
       stop-color="#00004d"
       id="stop13" />
  </linearGradient>
  <radialGradient
     id="c"
     cx="10.000115"
     cy="14.246079"
     gradientTransform="matrix(1 -.00000005 .00000008 1.8331696 -.000116 -11.865479)"
     gradientUnits="userSpaceOnUse"
     r="4.500402">
    <stop
       offset="0"
       stop-color="#5757ff"
       id="stop16" />
    <stop
       offset=".3553"
       stop-color="#223fd1"
       id="stop18" />
    <stop
       offset=".6194"
       stop-color="#0f1af2"
       id="stop20" />
    <stop
       offset=".7574"
       stop-color="#0000cf"
       id="stop22" />
    <stop
       offset="1"
       stop-color="#00008e"
       id="stop24" />
  </radialGradient>
  <radialGradient
     id="d"
     cx="6"
     cy="9.999972"
     gradientTransform="matrix(0.44440479,0,0,0.9999445,3.333571,5.83e-4)"
     gradientUnits="userSpaceOnUse"
     r="4.500402"
     xlink:href="#e" />
  <linearGradient
     id="e">
    <stop
       offset="0"
       id="stop28" />
    <stop
       offset="1"
       stop-opacity="0"
       id="stop30" />
  </linearGradient>
  <radialGradient
     id="f"
     cx="10.499598"
     cy="10.500055"
     gradientTransform="matrix(1,0,0,0.9999445,0,5.83e-4)"
     gradientUnits="userSpaceOnUse"
     r="4.500402"
     xlink:href="#e" />
  <radialGradient
     id="g"
     cx="13"
     cy="9.999972"
     gradientTransform="matrix(.70266574 .00000006 -.00000005 .66660712 3.865346 3.333947)"
     gradientUnits="userSpaceOnUse"
     r="4.500402">
    <stop
       offset="0"
       stop-color="#00f"
       id="stop34" />
    <stop
       offset="1"
       stop-color="#00004d"
       stop-opacity="0"
       id="stop36" />
  </radialGradient>
  <radialGradient
     id="h"
     cx="10.25"
     cy="13.250153"
     gradientTransform="matrix(1 0 0 .9999445 0 .000583)"
     gradientUnits="userSpaceOnUse"
     r="4.500402">
    <stop
       offset="0"
       stop-color="#2c41be"
       id="stop39" />
    <stop
       offset="1"
       stop-color="#2c41be"
       stop-opacity="0"
       id="stop41" />
  </radialGradient>
  <linearGradient
     id="i"
     gradientUnits="userSpaceOnUse"
     x1="17.443756"
     x2="17.524389"
     y1="5.924313"
     y2="6.65001">
    <stop
       offset="0"
       stop-color="#bfbfff"
       id="stop44" />
    <stop
       offset="1"
       stop-color="#bfbfff"
       stop-opacity="0"
       id="stop46" />
  </linearGradient>
  <radialGradient
     id="j"
     cx="10.720569"
     cy="6.389769"
     gradientTransform="matrix(.45075749 .01596601 -.01621215 .45770648 5.991784 3.294194)"
     gradientUnits="userSpaceOnUse"
     r="4.500402">
    <stop
       offset="0"
       stop-color="#fff"
       id="stop49" />
    <stop
       offset="1"
       stop-color="#fff"
       stop-opacity="0"
       id="stop51" />
  </radialGradient>
  <filter
     id="k"
     color-interpolation-filters="sRGB"
     height="1.036001"
     width="1.035999"
     x="-.018"
     y="-.018">
    <feGaussianBlur
       stdDeviation=".067504158"
       id="feGaussianBlur54" />
  </filter>
  <mask
     id="l"
     maskUnits="userSpaceOnUse">
    <path
       d="m2.778125 295.8755.1286275-.17268.7974142.0404.8837099-.0464s-.8750292 1.075-.9068935 1.13463c-.031864.0596-.1752539.16856-.1752539.16856z"
       fill="url(#m)"
       fill-rule="evenodd"
       stroke-width=".120238"
       id="path57" />
  </mask>
  <linearGradient
     id="m"
     gradientTransform="matrix(-.1202386 -.01552063 0 .1202386 50.206103 228.09465)"
     gradientUnits="userSpaceOnUse"
     x1="391.14813"
     x2="385.39752"
     y1="618.61072"
     y2="613.20654">
    <stop
       offset="0"
       stop-color="#fff"
       id="stop60" />
    <stop
       offset="1"
       stop-opacity="0"
       id="stop62" />
  </linearGradient>
  <linearGradient
     id="n"
     gradientTransform="matrix(0.03815405,0,0,0.16304754,0.79651687,-0.04399975)"
     gradientUnits="userSpaceOnUse"
     x1="46.048"
     x2="46.048"
     y1="128.01709"
     y2="16.6203">
    <stop
       offset="0"
       stop-color="#c7cdd7"
       id="stop65" />
    <stop
       offset="1"
       stop-color="#fff"
       id="stop67" />
  </linearGradient>
  <linearGradient
     id="o"
     gradientUnits="userSpaceOnUse"
     x1="67.266975"
     x2="67.266975"
     y1="288.20084"
     y2="-56"
     gradientTransform="scale(0.125)">
    <stop
       offset="0"
       id="stop70" />
    <stop
       offset="1"
       stop-color="#fff"
       id="stop72" />
  </linearGradient>
  <linearGradient
     id="p"
     gradientTransform="matrix(-0.13536395,0,0,0.13536395,19.641577,7.5651892)"
     gradientUnits="userSpaceOnUse"
     x1="71.227066"
     x2="28.9296"
     y1="10.599652"
     y2="70.897705">
    <stop
       offset="0"
       stop-color="#bbd6ff"
       id="stop75" />
    <stop
       offset="1"
       stop-color="#0057ae"
       id="stop77" />
  </linearGradient>
  <linearGradient
     id="q"
     gradientTransform="matrix(0.12962962,0,0,0.15198672,-0.03703737,-2.687415)"
     gradientUnits="userSpaceOnUse"
     x1="8"
     x2="80"
     y1="36"
     y2="112">
    <stop
       offset="0"
       stop-color="#c8ffa5"
       id="stop80" />
    <stop
       offset="1"
       stop-color="#dfffcb"
       id="stop82" />
  </linearGradient>
  <linearGradient
     id="r"
     gradientUnits="userSpaceOnUse"
     x1="67.266975"
     x2="67.266975"
     y1="288.20084"
     y2="-56"
     gradientTransform="scale(0.125)">
    <stop
       offset="0"
       stop-color="#48940b"
       stop-opacity=".831373"
       id="stop85" />
    <stop
       offset="1"
       stop-color="#48940b"
       stop-opacity=".831373"
       id="stop87" />
  </linearGradient>
  <linearGradient
     id="s"
     gradientTransform="matrix(0.74344204,0,0,-0.74344204,-64.585071,58.809544)"
     gradientUnits="userSpaceOnUse"
     x1="101.99715"
     x2="104"
     y1="83.220375"
     y2="57.11084">
    <stop
       offset="0"
       stop-color="#d4e2f3"
       id="stop90" />
    <stop
       offset="1"
       stop-color="#fff"
       stop-opacity="0"
       id="stop92" />
  </linearGradient>
  <linearGradient
     id="t"
     gradientUnits="userSpaceOnUse"
     x1="46.825066"
     x2="123.00084"
     y1="77.669472"
     y2="77.669472"
     gradientTransform="matrix(0.13536395,0,0,0.13536395,-1.3372226,-1.6067151)">
    <stop
       offset="0"
       stop-color="#2c72c7"
       id="stop95" />
    <stop
       offset="1"
       stop-color="#00438a"
       id="stop97" />
  </linearGradient>
  <path
     inkscape:connector-curvature="0"
     style="fill:#f0e3ec;stroke-width:0.125"
     id="path100"
     d="M 1,1 H 4.9679222 V 14.060662 H 1 Z" />
  <path
     style="opacity:0.26291103;fill:#ffffff;stroke-width:0.125"
     inkscape:connector-curvature="0"
     id="path102"
     d="M 2.1817875,16 H 16.681787 v 0.5 H 2.1817875 Z" />
  <path
     inkscape:connector-curvature="0"
     style="fill:#e602b4;stroke-width:0.125"
     id="path104"
     d="M 0,1 V 1.5883789 4 4.5 7 7.5249024 10 10.5 13.51416 14 H 1 5 6 6.00488 V 13.51416 H 6 V 10.5 H 6.00488 V 10 H 6 V 7.5249024 H 6.00488 V 7 H 6 V 4.5 H 6.00488 V 4.4873047 H 16 V 1 H 1 Z M 1,1.5883789 H 5 V 4 H 1 Z m 5,0 h 4 V 4 H 6 Z m 5,0 h 4 V 4 H 11 Z M 1,4.5 H 5 V 7 H 1 Z M 1,7.5249024 H 5 V 10 H 1 Z M 1,10.5 h 4 v 3.01416 H 1 Z" />
  <path
     inkscape:connector-curvature="0"
     style="fill:#f3b7d9;stroke-width:0.125"
     id="path106"
     d="M 1,1.5682125 H 15 V 4 H 1 Z" />
  <path
     inkscape:connector-curvature="0"
     style="fill:#9d3a9b;stroke-width:0.125"
     id="path108"
     d="M 0,1 V 1.5883789 4 4.5 H 1 5 6 6.00488 V 4.4873047 H 16 V 1 H 1 Z M 1,1.5883789 H 5 V 4 H 1 Z m 5,0 h 4 V 4 H 6 Z m 5,0 h 4 V 4 h -4 z" />
  <path
     style="fill:#f0e3ec;fill-opacity:1"
     inkscape:connector-curvature="0"
     id="path110"
     d="M 12.5625,2.0019531 A 1.7514399,1.7514399 0 0 0 11.259766,2.6308594 L 9.7011719,4.5 H 15.509766 L 13.951172,2.6308594 A 1.7514399,1.7514399 0 0 0 12.5625,2.0019531 Z M 6,8.2441406 3.8808594,10.009766 a 1.7514399,1.7514399 0 0 0 0,2.691406 L 6,14.466797 Z" />
  <path
     d="M 12.605379,3.7512036 9.8980999,6.9999384 12.063923,6.4822771 c 0.5849,4.9481429 -2.047929,4.3383889 -4.3316463,4.3316459 L 8.2499381,8.6481003 5.0012033,11.355379 8.2499381,14.062658 7.7322767,11.896835 c 3.9636973,0.483523 5.9612893,-1.117027 5.4145583,-5.4145579 l 2.165823,0.5176613 z"
     id="path112"
     style="fill:none;stroke:#e602b4;stroke-width:1.35363948;stroke-linecap:round;stroke-linejoin:round"
     inkscape:connector-curvature="0" />
  <path
     inkscape:connector-curvature="0"
     style="fill:#f0e3ec;fill-rule:evenodd;stroke-width:0.13536395;stroke:none"
     id="path114"
     d="M 12.605379,3.7512036 9.8980999,6.9999384 12.063923,6.4822771 c 0.5849,4.9481429 -2.047929,4.3383889 -4.3316463,4.3316459 L 8.2499381,8.6481003 5.0012033,11.355379 8.2499381,14.062658 7.7322767,11.896835 c 3.9636973,0.483523 5.9612893,-1.117027 5.4145583,-5.4145579 l 2.165823,0.5176613 z" />
  <g
     id="g1214"
     transform="matrix(0.70651424,0,0,0.70651424,-5.4213332,-8.4219621)">
    <g
       id="g120"
       mask="url(#v)"
       transform="matrix(0.125,0,0,0.125,8.2164984,12.149372)">
      <path
         id="path106-3"
         d="m 64.09375,3.90625 c -33.125192,-10e-8 -60.0000001,26.874805 -60,60 1e-7,33.125192 26.87481,60 60,60 30.289116,0 55.33661,-22.21626 59.40625,-51.34375 L 88.46875,67.53125 C 86.844066,79.492379 76.538676,88.5 64.09375,88.5 50.522122,88.499999 39.5,77.477881 39.5,63.90625 39.500001,50.334616 50.522119,39.3125 64.09375,39.3125 c 6.785818,-10e-7 12.921294,2.765044 17.375,7.21875 L 71.141571,56.858429 c -2.05587,2.05587 -2.243725,3.30578 -1.679608,4.615529 C 69.970531,62.654737 70.982695,64 73.671688,64 H 117.625 c 3.84589,0 6.45899,-2.654379 6.45899,-6.250131 l -0.0689,-44.078018 c 0,-2.480755 -0.90251,-3.8432292 -2.18147,-4.3496147 -1.31432,-0.5203849 -3.03321,-0.1226787 -5.10709,1.9511997 L 106.53125,21.46875 C 95.671902,10.609399 80.656349,3.90625 64.09375,3.90625 Z"
         inkscape:connector-curvature="0"
         style="opacity:0.79775295;fill:url(#o-2)" />
      <path
         id="path108-7"
         d="m 64.09375,3.90625 c -33.125192,-10e-8 -60.0000001,26.874805 -60,60 1e-7,33.125192 26.87481,60 60,60 30.289116,0 55.33661,-22.21626 59.40625,-51.34375 L 88.46875,67.53125 C 86.844066,79.492379 76.538676,88.5 64.09375,88.5 50.522122,88.499999 39.5,77.477881 39.5,63.90625 39.500001,50.334616 50.522119,39.3125 64.09375,39.3125 c 6.785818,-10e-7 12.921294,2.765044 17.375,7.21875 L 71.141571,56.858429 c -2.05587,2.05587 -2.243725,3.30578 -1.679608,4.615529 C 69.970531,62.654737 70.982695,64 73.671688,64 H 117.625 c 3.84589,0 6.45899,-2.654379 6.45899,-6.250131 l -0.0689,-44.078018 c 0,-2.480755 -0.90251,-3.8432292 -2.18147,-4.3496147 -1.31432,-0.5203849 -3.03321,-0.1226787 -5.10709,1.9511997 L 106.53125,21.46875 C 95.671902,10.609399 80.656349,3.90625 64.09375,3.90625 Z"
         inkscape:connector-curvature="0"
         style="fill:url(#i-2)" />
      <path
         id="path110-5"
         d="m 117.6875,10.75 0.9375,4.375 1.25,0.875 4,-2.625 c 0.24688,-1.723751 -0.35117,-3.347429 -1.9375,-4.0000001 -1.58634,-0.6525714 -3.16128,0.1267033 -4.25,1.3750001 z"
         inkscape:connector-curvature="0"
         style="opacity:0.82022502;fill:url(#m-6);fill-rule:evenodd;filter:url(#n-6)" />
      <path
         id="path112-9"
         transform="matrix(0,1,1,0,60.363582,-60.363586)"
         d="m 117.6875,10.75 2.1875,3.125 0.5,-0.125 3.5,-0.375 c 0.24688,-1.723751 -0.35117,-3.347429 -1.9375,-4.0000001 -1.58634,-0.6525714 -3.16128,0.1267033 -4.25,1.3750001 z"
         inkscape:connector-curvature="0"
         style="opacity:0.82022502;fill:url(#p-2);fill-rule:evenodd;filter:url(#n-6)" />
      <path
         id="path114-2"
         d="m 64.09375,7.90625 c -30.961698,-1e-7 -56.0000001,25.038299 -56,56 10e-8,30.961698 25.038304,56 56,56 26.932896,0 49.12173,-18.80675 54.53125,-44 L 91.5,72.03125 C 88.061436,83.928551 77.059621,92.5 64.09375,92.5 48.356404,92.499999 35.5,79.643599 35.5,63.90625 35.500001,48.168899 48.356402,35.3125 64.09375,35.3125 c 7.872416,-10e-7 15.051554,3.207804 20.21875,8.375 0.759464,0.751409 1.187497,1.775386 1.1875,2.84375 0,1.068364 -0.428036,2.092341 -1.1875,2.84375 L 73.6875,60 h 43.9375 c 2.00539,0 2.46875,-0.592164 2.46875,-2.25 L 120,13.65625 109.375,24.3125 c -0.75141,0.759464 -1.77539,1.1875 -2.84375,1.1875 -1.06836,0 -2.09234,-0.428036 -2.84375,-1.1875 C 93.549835,14.174833 79.577106,7.90625 64.09375,7.90625 Z"
         inkscape:connector-curvature="0"
         style="fill:url(#j-8)" />
      <path
         id="path116"
         d="m 64.099866,7.9087646 c -30.96169,-2e-7 -55.9999999,25.0382984 -55.9999999,55.9999994 10e-6,0.178712 -0.00249,0.354295 0,0.53125 C 8.3531061,33.696509 33.295846,8.9087645 64.099866,8.9087646 c 15.48337,-10e-8 29.45608,6.2685824 39.593744,16.4062494 0.75142,0.759465 1.77539,1.1875 2.84375,1.1875 1.06837,10e-7 2.09234,-0.428036 2.84375,-1.1875 l 10.125,-10.15625 0.49375,37.55 c -6.90754,2.75053 -14.56555,3.86086 -22.493744,5.8875 l -18.65625,0.40625 h 19.15625 c 7.928194,-2.02663 15.186204,-3.43697 22.093744,-6.1875 l -0.0937,-38.15625 v -1 l -0.5,0.5 -10.125,10.15625 c -0.7514,0.759465 -1.77539,1.1875 -2.84375,1.1875 -1.06835,10e-7 -2.09234,-0.428036 -2.84375,-1.1875 -0.0105,-0.01047 -0.0208,-0.02079 -0.0312,-0.03125 -0.0524,-0.05229 -0.10367,-0.104166 -0.15625,-0.15625 -0.5738,-0.567871 -1.15087,-1.11515 -1.75,-1.65625 -0.0815,-0.07412 -0.16804,-0.145107 -0.25,-0.21875 C 91.590066,13.342335 78.496526,7.9087646 64.099866,7.9087646 Z m -0.65625,19.2187494 c -9.23817,0.25052 -18.40344,3.79268 -25.59375,10.6875 -7.63208,7.318434 -11.12755,17.372917 -11.3125,27.21875 0.23988,-9.80188 4.18042,-19.494066 11.8125,-26.8125 13.31613,-12.7689 33.45333,-14.098057 48.15625,-4.1875 -6.87906,-4.805074 -14.98746,-7.12523 -23.0625,-6.90625 z"
         inkscape:connector-curvature="0"
         style="fill:url(#k-2)" />
      <path
         id="path118"
         style="fill:none;stroke:url(#l-0);stroke-linecap:round;stroke-linejoin:round;stroke-dashoffset:1.08780003;filter:url(#w)"
         d="m 63.59375,7.90625 c -30.9617,-1e-7 -56,25.038299 -56,56 0,30.961698 25.0383,56 56,56 26.9329,0 49.12173,-18.80675 54.53125,-44 L 91,72.03125 C 87.56144,83.928551 76.55962,92.5 63.59375,92.5 47.8564,92.499999 35,79.643599 35,63.90625 35,48.168899 47.8564,35.3125 63.59375,35.3125 c 7.87242,-10e-7 15.05155,3.207804 20.21875,8.375 C 84.57196,44.438909 85,45.462886 85,46.53125 85,47.599614 84.57196,48.623591 83.8125,49.375 L 73.1875,60 h 43.9375 c 2.00539,0 2.46875,-0.592164 2.46875,-2.25 L 119.5,13.65625 108.875,24.3125 c -0.75141,0.759464 -1.77539,1.1875 -2.84375,1.1875 -1.06836,0 -2.09234,-0.428036 -2.84375,-1.1875 C 93.04984,14.174833 79.07711,7.90625 63.59375,7.90625 Z"
         inkscape:connector-curvature="0" />
    </g>
    <path
       inkscape:connector-curvature="0"
       style="opacity:1;fill:#9d3a9b;stroke-width:0.125"
       id="path122"
       d="m 16.228217,12.656402 c -4.140649,0 -7.4999997,3.359351 -7.4999996,7.5 0,4.140649 3.3593516,7.5 7.4999996,7.5 3.78614,0 6.917076,-2.777034 7.425781,-6.417969 l -4.378906,-0.628906 c -0.203085,1.495141 -1.491259,2.621094 -3.046875,2.621094 -1.696453,0 -3.074218,-1.377766 -3.074218,-3.074219 0,-1.696454 1.377765,-3.074219 3.074218,-3.074219 0.848228,0 1.615162,0.345631 2.171875,0.902344 l -1.290897,1.290897 c -0.256984,0.256984 -0.280466,0.413223 -0.209951,0.576941 0.06357,0.147598 0.190092,0.315756 0.526216,0.315756 h 5.494163 c 0.480738,0 0.807374,-0.331798 0.807374,-0.781267 l -0.0086,-5.509752 c 0,-0.310094 -0.112814,-0.480404 -0.272684,-0.543702 -0.16429,-0.06505 -0.379151,-0.01533 -0.638386,0.2439 l -1.274421,1.274414 c -1.35742,-1.357418 -3.234364,-2.195312 -5.304689,-2.195312 z" />
    <path
       inkscape:connector-curvature="0"
       style="fill:#f3b7d9;stroke-width:0.125"
       id="path128"
       d="m 16.227607,13.156395 c -3.870212,0 -6.9999994,3.129789 -6.9999994,6.999988 0,3.870236 3.1297874,7.000025 6.9999994,7.000025 3.366612,0 6.140215,-2.350866 6.816405,-5.500007 l -3.390624,-0.484384 c -0.42982,1.487168 -1.805047,2.558589 -3.425781,2.558589 -1.967168,0 -3.574218,-1.607055 -3.574218,-3.574223 0,-1.967169 1.607049,-3.574224 3.574218,-3.574224 0.984052,0 1.881444,0.401008 2.527344,1.046891 0.09493,0.09411 0.148437,0.221859 0.148437,0.355276 0,0.133417 -0.05351,0.261543 -0.148437,0.355654 l -1.328125,1.328126 h 5.492186 c 0.250674,0 0.308595,-0.07408 0.308595,-0.281197 l -0.01173,-5.511723 -1.328125,1.332019 c -0.09393,0.09487 -0.221923,0.148535 -0.355469,0.148535 -0.133546,0 -0.261544,-0.05367 -0.355469,-0.148535 -1.267197,-1.2672 -3.013788,-2.050772 -4.949208,-2.050772 z" />
  </g>
</svg>
