<?xml version="1.0" encoding="UTF-8" standalone="no"?>
<svg
   xmlns:dc="http://purl.org/dc/elements/1.1/"
   xmlns:cc="http://creativecommons.org/ns#"
   xmlns:rdf="http://www.w3.org/1999/02/22-rdf-syntax-ns#"
   xmlns:svg="http://www.w3.org/2000/svg"
   xmlns="http://www.w3.org/2000/svg"
   xmlns:xlink="http://www.w3.org/1999/xlink"
   xmlns:sodipodi="http://sodipodi.sourceforge.net/DTD/sodipodi-0.dtd"
   xmlns:inkscape="http://www.inkscape.org/namespaces/inkscape"
   height="16"
   viewBox="0 0 4.2333333 4.2333335"
   width="16"
   version="1.1"
   id="svg44"
   sodipodi:docname="sc_runmacro.svg"
   inkscape:version="0.92.4 (unknown)"
   inkscape:export-filename="/home/annisaauliarasyidah/Desktop/4_242 (aulia)/sc 222/sc_runmacro.png"
   inkscape:export-xdpi="96"
   inkscape:export-ydpi="96">
  <metadata
     id="metadata50">
    <rdf:RDF>
      <cc:Work
         rdf:about="">
        <dc:format>image/svg+xml</dc:format>
        <dc:type
           rdf:resource="http://purl.org/dc/dcmitype/StillImage" />
      </cc:Work>
    </rdf:RDF>
  </metadata>
  <defs
     id="defs48" />
  <sodipodi:namedview
     pagecolor="#ffffff"
     bordercolor="#666666"
     borderopacity="1"
     objecttolerance="10"
     gridtolerance="10"
     guidetolerance="10"
     inkscape:pageopacity="0"
     inkscape:pageshadow="2"
     inkscape:window-width="1366"
     inkscape:window-height="707"
     id="namedview46"
     showgrid="true"
     inkscape:zoom="22.733759"
     inkscape:cx="15.680658"
     inkscape:cy="8"
     inkscape:window-x="0"
     inkscape:window-y="0"
     inkscape:window-maximized="1"
     inkscape:current-layer="svg44">
    <inkscape:grid
       type="xygrid"
       id="grid842" />
  </sodipodi:namedview>
  <filter
     id="a"
     color-interpolation-filters="sRGB"
     height="1.0168"
     width="1.0168"
     x="-.0084"
     y="-.0084">
    <feGaussianBlur
       stdDeviation=".050000868"
       id="feGaussianBlur2" />
  </filter>
  <clipPath
     id="b">
    <path
       d="m9.5933918 111.19854-.4711621 1.3139v.0218l.2786801 1.27958a.22777108.22777108 0 0 1 -.136411.25943l-1.5306499.62348a.22777108.22777108 0 0 1 -.2753328-.0845l-.7372894-1.10552a.22777108.22777108 0 0 1 -.0008389-.002l-.021759-.0318-1.2151468-.58246-.5933465.59334.5833039 1.21515.033475.0226 1.1046788.73645a.22777108.22777108 0 0 1 .084525.27533l-.6234741 1.53065a.22777108.22777108 0 0 1 -.2594321.13641l-1.279583-.27868h-.020922l-1.3138984.47117v.81344l1.3138984.47116h.020922l1.2795866-.27847a.22777108.22777108 0 0 1 .2594321.13641l.6234741 1.53065a.22777108.22777108 0 0 1 -.084525.27534l-1.1046788.73729a.22777108.22777108 0 0 1 -.00168.00086l-.031802.0218-.5833039 1.21432.5933465.59418 1.2151467-.5833.021759-.0318a.22777108.22777108 0 0 1 .0008389-.002l.7372894-1.10551a.22777108.22777108 0 0 1 .2753328-.0845l1.5306499.62348a.22777108.22777108 0 0 1 .136411.25943l-.2786801 1.27959v.0218l.4711621 1.3139h.8134447l.471163-1.3139v-.0218l-.27868-1.27959a.22777108.22777108 0 0 1 .136411-.25943l1.530649-.62348a.22777108.22777108 0 0 1 .275333.0845l.736453 1.10551.02259.0335 1.215147.5833.594183-.59418-.583304-1.21432-.0318-.0218a.22777108.22777108 0 0 1 -.0017-.00086l-1.105515-.73729a.22777108.22777108 0 0 1 -.08452-.27534l.623474-1.53065a.22777108.22777108 0 0 1 .259432-.13641l1.279587.27868h.02176l1.313899-.47116v-.81344l-1.313899-.47117h-.02176l-1.279587.27868a.22777108.22777108 0 0 1 -.25944-.13641l-.623474-1.53065a.22777108.22777108 0 0 1 .08453-.27533l1.105515-.73645.03348-.0226.583304-1.21515-.594184-.59335-1.215146.58247-.02259.0335-.736453 1.10552a.22777108.22777108 0 0 1 -.275333.0845l-1.530649-.62347a.22777108.22777108 0 0 1 -.136411-.25943l.27868-1.27959v-.0218l-.471162-1.3139zm.4067232 4.64635c1.184509 0 2.15496.97153 2.15496 2.15496-.000011 1.18338-.970446 2.15496-2.15496 2.15496-1.1845114 0-2.1549612-.97157-2.1549612-2.15496 0-1.18346.9704589-2.15496 2.1549612-2.15496z"
       id="path5" />
  </clipPath>
  <radialGradient
     id="c"
     cx="64.303314"
     cy="64.505531"
     fx="63.994743"
     fy="51.54562"
     gradientUnits="userSpaceOnUse"
     r="19.637234"
     xlink:href="#d" />
  <linearGradient
     id="d"
     gradientUnits="userSpaceOnUse"
     x1="78.560501"
     x2="40.480499"
     y1="8.0806"
     y2="36.640598">
    <stop
       offset="0"
       stop-color="#8e79b9"
       id="stop9" />
    <stop
       offset="1"
       stop-color="#462886"
       id="stop11" />
  </linearGradient>
  <filter
     id="e">
    <feGaussianBlur
       stdDeviation=".41550345"
       id="feGaussianBlur14" />
  </filter>
  <linearGradient
     id="f"
     gradientTransform="matrix(0,0.03307292,0.03307292,0,-8.3240518,-0.87669412)"
     gradientUnits="userSpaceOnUse"
     x1="172.56801"
     x2="178.04466"
     xlink:href="#d"
     y1="233.48956"
     y2="367.96475" />
  <g
     transform="translate(-0.1225577,3.045e-5)"
     id="g864"
     style="stroke:#e602b4">
    <g
       id="g830"
       style="stroke:#e602b4">
      <path
         d="m 2.1047165,0.39684592 a 0.05107757,0.05107757 0 0 0 -0.048081,0.0337759 L 1.9286842,0.78725598 a 0.05107757,0.05107757 0 0 0 -0.00298,0.0172851 v 0.0202654 a 0.05107757,0.05107757 0 0 0 0.00119,0.010927 L 1.9851075,1.1031605 1.6999988,1.2193886 1.5482058,0.99169918 1.535093,0.97163284 A 0.05107757,0.05107757 0 0 0 1.5144306,0.9535522 L 1.1778651,0.79222314 a 0.05107757,0.05107757 0 0 0 -0.058214,0.009924 L 0.92454556,0.99725737 a 0.05107757,0.05107757 0 0 0 -0.009935,0.0582143 L 1.0761394,1.3918452 a 0.05107757,0.05107757 0 0 0 0.017683,0.020464 l 0.020265,0.01351 0.2276895,0.151594 -0.116228,0.2851093 -0.26742591,-0.058214 a 0.05107757,0.05107757 0 0 0 -0.0109277,-0.00119 h -0.0200667 a 0.05107757,0.05107757 0 0 0 -0.0172847,0.00299 L 0.55320896,1.9340497 a 0.05107757,0.05107757 0 0 0 -0.033776,0.048081 V 2.251146 a 0.05107757,0.05107757 0 0 0 0.033776,0.048081 l 0.35663415,0.1279509 a 0.05107757,0.05107757 0 0 0 0.0172852,0.00298 h 0.0200667 a 0.05107757,0.05107757 0 0 0 0.0109277,-0.00119 L 1.2255488,2.370746 1.3417777,2.6558552 1.1142868,2.8076485 1.0942201,2.820761 a 0.05107757,0.05107757 0 0 0 -0.01808,0.020664 L 0.91461133,3.1777974 a 0.05107757,0.05107757 0 0 0 0.009935,0.058212 L 1.119651,3.4313144 a 0.05107757,0.05107757 0 0 0 0.058213,0.00993 L 1.514432,3.2797211 a 0.05107757,0.05107757 0 0 0 0.020663,-0.01808 L 1.548208,3.2415731 1.7000009,3.0138836 1.9851096,3.1301127 1.9268966,3.3975381 a 0.05107757,0.05107757 0 0 0 -0.0012,0.010928 v 0.020266 a 0.05107757,0.05107757 0 0 0 0.00298,0.017286 l 0.1279573,0.3566325 a 0.05107757,0.05107757 0 0 0 0.048081,0.033776 h 0.2690154 a 0.05107757,0.05107757 0 0 0 0.048081,-0.033776 l 0.127953,-0.3566322 a 0.05107757,0.05107757 0 0 0 0.00298,-0.017286 v -0.020265 a 0.05107757,0.05107757 0 0 0 -0.0012,-0.010928 l -0.058208,-0.2674247 0.2849098,-0.1162292 0.1517931,0.2278879 0.013511,0.020266 a 0.05107757,0.05107757 0 0 0 0.020464,0.017683 l 0.3363686,0.1615284 a 0.05107757,0.05107757 0 0 0 0.058213,-0.00993 l 0.1953,-0.1953089 a 0.05107757,0.05107757 0 0 0 0.00993,-0.058212 L 3.402309,2.8414251 A 0.05107757,0.05107757 0 0 0 3.384229,2.8207611 L 3.364162,2.8076491 3.1364724,2.6558558 l 0.116229,-0.2851092 0.267426,0.058214 a 0.05107757,0.05107757 0 0 0 0.010928,0.00119 h 0.020266 a 0.05107757,0.05107757 0 0 0 0.017285,-0.00298 L 3.9252398,2.2992197 a 0.05107757,0.05107757 0 0 0 0.033776,-0.048081 V 1.9821229 A 0.05107757,0.05107757 0 0 0 3.9252398,1.9340415 L 3.5686057,1.8060906 a 0.05107757,0.05107757 0 0 0 -0.017285,-0.00298 h -0.020266 a 0.05107757,0.05107757 0 0 0 -0.010928,0.00119 l -0.2674261,0.058219 -0.116229,-0.2849099 0.2278883,-0.1517933 0.020265,-0.01351 a 0.05107757,0.05107757 0 0 0 0.017683,-0.020464 L 3.5638372,1.0554737 A 0.05107757,0.05107757 0 0 0 3.5539072,0.9972594 L 3.3585985,0.80215666 a 0.05107757,0.05107757 0 0 0 -0.058213,-0.009924 L 2.9640163,0.95355725 a 0.05107757,0.05107757 0 0 0 -0.020464,0.0176824 L 2.9300414,0.99150583 2.7782485,1.2193936 2.4933385,1.1031655 2.5515522,0.83573919 a 0.05107757,0.05107757 0 0 0 0.0012,-0.010927 v -0.020266 a 0.05107757,0.05107757 0 0 0 -0.00298,-0.0172852 L 2.4218189,0.43062681 A 0.05107757,0.05107757 0 0 0 2.3737379,0.39685096 Z M 2.2392242,1.7101333 c 0.2238085,0 0.4065032,0.1829414 0.4065033,0.4065039 -2.2e-6,0.2235533 -0.1826957,0.4065029 -0.4065033,0.4065029 -0.2238066,0 -0.4065033,-0.1829496 -0.4065033,-0.4065029 0,-0.2235716 0.1826946,-0.4065039 0.4065033,-0.4065039 z"
         id="path18-3"
         style="fill:#f0e3ec;fill-opacity:1;stroke:#e602b4;stroke-width:0.26458335;stroke-miterlimit:4;stroke-dasharray:none"
         inkscape:connector-curvature="0" />
      <circle
         style="opacity:1;fill:#f0e3ec;fill-opacity:1;fill-rule:evenodd;stroke:#9d3a9b;stroke-width:0;stroke-linecap:round;stroke-linejoin:round;stroke-miterlimit:4;stroke-dasharray:none;stroke-opacity:1;paint-order:markers fill stroke"
         id="path844"
         cx="2.2361255"
         cy="2.1197357"
         r="0.39687452" />
    </g>
  </g>
  <path
     style="fill:none;stroke:#9d3a9b;stroke-width:0.26458335px;stroke-linecap:round;stroke-linejoin:miter;stroke-opacity:1"
     d="M 2.3812501,2.1166667 H 3.8364584"
     id="path846"
     inkscape:connector-curvature="0" />
  <path
     style="fill:none;stroke:#9d3a9b;stroke-width:0.26458335px;stroke-linecap:round;stroke-linejoin:round;stroke-opacity:1"
     d="M 3.3072917,1.5875 3.8364584,2.1166667 3.3072917,2.6458334"
     id="path848"
     inkscape:connector-curvature="0" />
  <circle
     style="opacity:1;fill:#9d3a9b;fill-opacity:1;fill-rule:evenodd;stroke:#9d3a9b;stroke-width:0;stroke-linecap:round;stroke-linejoin:round;stroke-miterlimit:4;stroke-dasharray:none;stroke-opacity:1;paint-order:markers fill stroke"
     id="path852"
     cx="2.1209362"
     cy="2.1123974"
     r="0.52916616" />
</svg>
