<?xml version="1.0" encoding="UTF-8" standalone="no"?>
<svg
   xmlns:dc="http://purl.org/dc/elements/1.1/"
   xmlns:cc="http://creativecommons.org/ns#"
   xmlns:rdf="http://www.w3.org/1999/02/22-rdf-syntax-ns#"
   xmlns:svg="http://www.w3.org/2000/svg"
   xmlns="http://www.w3.org/2000/svg"
   xmlns:sodipodi="http://sodipodi.sourceforge.net/DTD/sodipodi-0.dtd"
   xmlns:inkscape="http://www.inkscape.org/namespaces/inkscape"
   height="16"
   viewBox="0 0 16 16"
   width="16"
   version="1.1"
   id="svg26"
   sodipodi:docname="sc_symbolshapes.puzzle.svg"
   inkscape:version="0.92.4 (5da689c313, 2019-01-14)">
  <metadata
     id="metadata32">
    <rdf:RDF>
      <cc:Work
         rdf:about="">
        <dc:format>image/svg+xml</dc:format>
        <dc:type
           rdf:resource="http://purl.org/dc/dcmitype/StillImage" />
        <dc:title></dc:title>
      </cc:Work>
    </rdf:RDF>
  </metadata>
  <defs
     id="defs30" />
  <sodipodi:namedview
     pagecolor="#ffffff"
     bordercolor="#666666"
     borderopacity="1"
     objecttolerance="10"
     gridtolerance="10"
     guidetolerance="10"
     inkscape:pageopacity="0"
     inkscape:pageshadow="2"
     inkscape:window-width="1600"
     inkscape:window-height="836"
     id="namedview28"
     showgrid="true"
     inkscape:zoom="20.85965"
     inkscape:cx="4.1303382"
     inkscape:cy="2.9385901"
     inkscape:window-x="0"
     inkscape:window-y="27"
     inkscape:window-maximized="1"
     inkscape:current-layer="svg26"
     showguides="false">
    <inkscape:grid
       type="xygrid"
       id="grid823"
       spacingx="0.5"
       spacingy="0.5"
       empspacing="2" />
  </sodipodi:namedview>
  <linearGradient
     id="a"
     gradientUnits="userSpaceOnUse"
     x1="64"
     x2="64"
     y1="128"
     y2="0"
     gradientTransform="scale(0.125)">
    <stop
       offset="0"
       stop-color="#fff"
       id="stop2" />
    <stop
       offset=".59375"
       stop-color="#fff"
       id="stop4" />
    <stop
       offset=".84375"
       stop-color="#f1f1f1"
       id="stop6" />
    <stop
       offset=".90625"
       stop-color="#eaeaea"
       id="stop8" />
    <stop
       offset="1"
       stop-color="#dfdfdf"
       id="stop10" />
  </linearGradient>
  <linearGradient
     id="b"
     gradientUnits="userSpaceOnUse"
     x1=".207031"
     x2="127.79297"
     y1="64.01252"
     y2="64.01252"
     gradientTransform="scale(0.125)">
    <stop
       offset="0"
       stop-color="#7c9fcf"
       id="stop13" />
    <stop
       offset=".5"
       stop-color="#7c9ece"
       id="stop15" />
    <stop
       offset="1"
       stop-color="#7b9dcf"
       id="stop17" />
  </linearGradient>
  <path
     id="path830"
     style="fill:#f0e3ec;stroke:#e602b4;stroke-width:1px;stroke-linecap:round;stroke-linejoin:round;stroke-opacity:1"
     d="m 9,10.5 c -0.3810187,0.901399 -0.347398,2.066107 0,3.5 1.506127,0.227944 2.668683,-0.0035 3.5,-0.677966 C 12.597079,12.196858 12.616265,11.076947 12,10 c 0.79306,0.224776 1.633012,1.002873 2.322034,0 C 14.521086,8.8383784 14.655663,7.6324547 14.169492,6 13.735877,5.7918848 12.790626,6.246013 12,6.5 12.409,5.2387598 12.706237,3.9924745 12.5,2.8135593 11.359911,2.4595548 10.236843,1.945778 9,2.5 8.5078222,3.5508601 8.7395192,4.7720437 9,6 H 7.9110168 6.8220337 c 0.260481,-1.2279563 0.492178,-2.4491399 0,-3.5 C 5.5851907,1.945778 4.4621227,2.4595548 3.322034,2.8135593 3.115797,3.9924745 3.4130337,5.2387598 3.8220337,6.5 3.031408,6.246013 2.086157,5.7918848 1.652542,6 1.166371,7.6324547 1.300948,8.8383784 1.5,10 2.189022,11.002873 3.028974,10.224776 3.8220337,10 3.205769,11.076947 3.224955,12.196858 3.322034,13.322034 4.1533507,13.996459 5.3159067,14.227944 6.8220337,14 c 0.347398,-1.433893 0.381019,-2.598601 0,-3.5 h 1.0889831 z"
     inkscape:connector-curvature="0"
     sodipodi:nodetypes="ccccccccccccccccccccccc" />
</svg>
