<?xml version="1.0" encoding="UTF-8" standalone="no"?>
<svg
   xmlns:dc="http://purl.org/dc/elements/1.1/"
   xmlns:cc="http://creativecommons.org/ns#"
   xmlns:rdf="http://www.w3.org/1999/02/22-rdf-syntax-ns#"
   xmlns:svg="http://www.w3.org/2000/svg"
   xmlns="http://www.w3.org/2000/svg"
   xmlns:sodipodi="http://sodipodi.sourceforge.net/DTD/sodipodi-0.dtd"
   xmlns:inkscape="http://www.inkscape.org/namespaces/inkscape"
   height="16"
   viewBox="0 0 16 16"
   width="16"
   version="1.1"
   id="svg24"
   sodipodi:docname="sc_selecttextmode.svg"
   inkscape:version="0.92.4 (5da689c313, 2019-01-14)"
   inkscape:export-filename="C:\Users\ING\Documents\libreeee\3_272 (mba alita)\_SC_PNG\sc_selecttextmode.png"
   inkscape:export-xdpi="96"
   inkscape:export-ydpi="96">
  <metadata
     id="metadata30">
    <rdf:RDF>
      <cc:Work
         rdf:about="">
        <dc:format>image/svg+xml</dc:format>
        <dc:type
           rdf:resource="http://purl.org/dc/dcmitype/StillImage" />
        <dc:title></dc:title>
      </cc:Work>
    </rdf:RDF>
  </metadata>
  <defs
     id="defs28" />
  <sodipodi:namedview
     pagecolor="#ffffff"
     bordercolor="#666666"
     borderopacity="1"
     objecttolerance="10"
     gridtolerance="10"
     guidetolerance="10"
     inkscape:pageopacity="0"
     inkscape:pageshadow="2"
     inkscape:window-width="1600"
     inkscape:window-height="836"
     id="namedview26"
     showgrid="true"
     inkscape:zoom="14.75"
     inkscape:cx="9.0051083"
     inkscape:cy="0.92471926"
     inkscape:window-x="0"
     inkscape:window-y="27"
     inkscape:window-maximized="1"
     inkscape:current-layer="svg24"
     inkscape:snap-text-baseline="false"
     inkscape:snap-smooth-nodes="true">
    <inkscape:grid
       type="xygrid"
       id="grid822"
       spacingx="0.5"
       spacingy="0.5"
       empspacing="2" />
  </sodipodi:namedview>
  <filter
     id="a"
     color-interpolation-filters="sRGB"
     height="1.112605"
     width="1.128434"
     x="-.064217"
     y="-.056303">
    <feGaussianBlur
       stdDeviation=".22231445"
       id="feGaussianBlur2" />
  </filter>
  <filter
     id="b"
     color-interpolation-filters="sRGB"
     height="1.038131"
     width="1.06476"
     x="-.03238"
     y="-.019066">
    <feGaussianBlur
       stdDeviation=".46367188"
       id="feGaussianBlur5" />
  </filter>
  <g
     id="g846"
     transform="translate(5.999999,-1.000076)">
    <path
       sodipodi:nodetypes="ccccccccccccccccccccccccccc"
       inkscape:connector-curvature="0"
       id="path853"
       d="M 2.5,11.5 H 1.516949 C 1,11.5 0.5,12 0.5,12.5 v 2 c 0,0.5 0.5,1 1,1 h 2 c 0.491525,0 1,-0.454545 1,-1 0,0.545455 0.508475,1 1,1 h 2 c 0.5,0 1,-0.510015 1,-1 v -2 c 0,-0.5 -0.5,-1 -1,-1 h -1 v -5 h 1 c 0.483051,0 1,-0.5 1,-1 v -2 C 8.5,3 8,2.5 7.5,2.5 h -2 c -0.474576,0 -1,0.4545455 -1,1 0,-0.5454545 -0.474576,-1 -1,-1 h -2 c -0.508475,0 -1,0.5 -1,1 v 2 c 0,0.5 0.5,1 1,1 h 1 z"
       style="fill:#f0e3ec;stroke:#9d3a9b;stroke-width:0.99999994px;stroke-linecap:butt;stroke-linejoin:round;stroke-opacity:1" />
    <path
       style="fill:#9d3a9b;stroke-width:3.77952766"
       inkscape:connector-curvature="0"
       id="path851"
       d="M 1.500001,4 V 5 H 4 V 3.9999623 Z"
       sodipodi:nodetypes="ccccc" />
    <path
       sodipodi:nodetypes="ccccc"
       d="m 5,4 v 1 l 2.500001,3.77e-5 V 4 Z"
       id="path888"
       inkscape:connector-curvature="0"
       style="fill:#9d3a9b;stroke-width:3.77952743" />
    <path
       sodipodi:nodetypes="ccccc"
       d="m 4,5 v 7.999699 L 5,13 V 5 Z"
       id="path894"
       inkscape:connector-curvature="0"
       style="fill:#9d3a9b;stroke-width:3.7795279" />
    <path
       sodipodi:nodetypes="ccccc"
       d="m 1.500001,13.000038 v 1 H 4 V 13 Z"
       id="path896"
       inkscape:connector-curvature="0"
       style="fill:#9d3a9b;stroke-width:3.77952766" />
    <path
       style="fill:#9d3a9b;stroke-width:3.77952743"
       inkscape:connector-curvature="0"
       id="path898"
       d="m 5,13.000038 v 1 l 2.500001,3.8e-5 v -1.000038 z"
       sodipodi:nodetypes="ccccc" />
  </g>
  <path
     style="opacity:1;fill:#f0e3ec;fill-opacity:1;stroke:#e602b4;stroke-width:0.99999994;stroke-linecap:round;stroke-linejoin:round;stroke-miterlimit:4;stroke-dasharray:none;stroke-opacity:1"
     d="m 4.0681821,5.8409093 h 1.3636364 c 1.5109091,0 3.0681818,0.8754545 3.0681818,2.3863636 V 13 c 0,1.363637 -0.3409091,1.704546 -1.3636364,1.704546 -0.6818181,0 -1.0227272,-0.340909 -1.0227272,-0.681819 0,0.34091 -0.3409091,0.681819 -1.0227273,0.681819 -0.081004,0.0015 -0.5828421,4.47e-4 -1.0227273,0 -1.7045452,0 -3.0681818,-1.704546 -3.0681818,-3.068182 0,-1.363637 0.8813331,-2.0408504 1.7045457,-2.3863638 -0.6818183,0 -1.7045457,-0.3409091 -1.7045457,-1.0227273 0,-1.3636363 1.7045457,-2.3863636 3.0681818,-2.3863636 z"
     id="rect852"
     inkscape:connector-curvature="0"
     sodipodi:nodetypes="cccccccccccc" />
  <text
     xml:space="preserve"
     style="font-style:normal;font-variant:normal;font-weight:normal;font-stretch:normal;font-size:13.63636303px;line-height:1.25;font-family:Nunito;-inkscape-font-specification:Nunito;letter-spacing:0px;word-spacing:0px;fill:#9d3a9b;fill-opacity:1;stroke:none;stroke-width:1.18181813;"
     x="1.7004555"
     y="13.062891"
     id="text850"><tspan
       style="font-size:12px;stroke-width:0.99999994;fill:#9d3a9b;"
       sodipodi:role="line"
       id="tspan848"
       x="1.7004555"
       y="13.062891">a</tspan></text>
</svg>
