<?xml version="1.0" encoding="UTF-8" standalone="no"?>
<svg
   xmlns:dc="http://purl.org/dc/elements/1.1/"
   xmlns:cc="http://creativecommons.org/ns#"
   xmlns:rdf="http://www.w3.org/1999/02/22-rdf-syntax-ns#"
   xmlns:svg="http://www.w3.org/2000/svg"
   xmlns="http://www.w3.org/2000/svg"
   xmlns:xlink="http://www.w3.org/1999/xlink"
   xmlns:sodipodi="http://sodipodi.sourceforge.net/DTD/sodipodi-0.dtd"
   xmlns:inkscape="http://www.inkscape.org/namespaces/inkscape"
   height="16"
   viewBox="0 0 16 16"
   width="16"
   version="1.1"
   id="svg39"
   sodipodi:docname="sc_symbolshapes.octagon-bevel.svg"
   inkscape:version="0.92.4 (5da689c313, 2019-01-14)">
  <metadata
     id="metadata45">
    <rdf:RDF>
      <cc:Work
         rdf:about="">
        <dc:format>image/svg+xml</dc:format>
        <dc:type
           rdf:resource="http://purl.org/dc/dcmitype/StillImage" />
      </cc:Work>
    </rdf:RDF>
  </metadata>
  <defs
     id="defs43" />
  <sodipodi:namedview
     pagecolor="#ffffff"
     bordercolor="#666666"
     borderopacity="1"
     objecttolerance="10"
     gridtolerance="10"
     guidetolerance="10"
     inkscape:pageopacity="0"
     inkscape:pageshadow="2"
     inkscape:window-width="1600"
     inkscape:window-height="836"
     id="namedview41"
     showgrid="false"
     inkscape:zoom="20.85965"
     inkscape:cx="11.307325"
     inkscape:cy="6.6051092"
     inkscape:window-x="0"
     inkscape:window-y="27"
     inkscape:window-maximized="1"
     inkscape:current-layer="svg39" />
  <linearGradient
     id="a"
     gradientUnits="userSpaceOnUse"
     x1="16.871439"
     x2="109.96104"
     xlink:href="#e"
     y1="60.428368"
     y2="60.428368" />
  <linearGradient
     id="b"
     gradientUnits="userSpaceOnUse"
     x1="55.106628"
     x2="58.608353"
     y1="112.6795"
     y2="7.739506">
    <stop
       offset="0"
       stop-color="#fff"
       id="stop3" />
    <stop
       offset=".59375"
       stop-color="#fff"
       id="stop5" />
    <stop
       offset=".84375"
       stop-color="#f1f1f1"
       id="stop7" />
    <stop
       offset=".90625"
       stop-color="#eaeaea"
       id="stop9" />
    <stop
       offset="1"
       stop-color="#dfdfdf"
       id="stop11" />
  </linearGradient>
  <linearGradient
     id="c"
     gradientUnits="userSpaceOnUse"
     x1="29.905518"
     x2="37.905518"
     xlink:href="#e"
     y1="83.919106"
     y2="83.919106" />
  <linearGradient
     id="d"
     gradientUnits="userSpaceOnUse"
     x1="79.919106"
     x2="87.919106"
     xlink:href="#e"
     y1="33.905518"
     y2="33.905518" />
  <linearGradient
     id="e">
    <stop
       offset="0"
       stop-color="#7c9fcf"
       id="stop16" />
    <stop
       offset=".5"
       stop-color="#7c9ece"
       id="stop18" />
    <stop
       offset="1"
       stop-color="#7b9dcf"
       id="stop20" />
  </linearGradient>
  <path
     d="m46.181641 7.4140625a6.4727375 6.4727375 0 0 0 -4.636719 1.7402344l-27.800781 25.9746091a6.4727375 6.4727375 0 0 0 -2.050782 4.509766l-1.291015 38.02539a6.4727375 6.4727375 0 0 0 1.740234 4.636719l25.97461 27.798829a6.4727375 6.4727375 0 0 0 4.509765 2.05078l38.025391 1.29102a6.4727375 6.4727375 0 0 0 4.636718-1.74024l27.798828-25.974608a6.4727375 6.4727375 0 0 0 2.05078-4.509765l1.29102-38.023438a6.4727375 6.4727375 0 0 0 -1.74024-4.636718l-25.974606-27.800782a6.4727375 6.4727375 0 0 0 -4.509766-2.0507809z"
     fill="url(#a)"
     transform="matrix(.1522985 -.00508203 .00508203 .1522985 -1.965265 -.880767)"
     id="path23"
     style="fill:#e602b4" />
  <path
     d="m80.870539 106.97317-38.024391-1.2906-25.974709-27.799904 1.290604-38.024391 27.799899-25.974709 38.024391 1.290604 25.974707 27.799899-1.2906 38.024391z"
     fill="url(#b)"
     transform="matrix(.1522985 -.00508203 .00508203 .1522985 -1.965265 -.880767)"
     id="path25" />
  <path
     d="m29.905518 19.919104h8v127.999996h-8z"
     fill="url(#c)"
     transform="matrix(.11506311 .04884139 .04884139 -.11506311 .000032 16.000099)"
     id="path27"
     style="fill:#e602b4" />
  <path
     d="m79.919106-30.094481h8v128h-8z"
     id="path29"
     transform="matrix(.11506311 -.04884139 -.04884139 -.11506311 .000032 16.000099)"
     fill="url(#d)"
     style="fill:#e602b4" />
  <path
     d="m29.905518 19.919104h8v127.999996h-8z"
     fill="url(#c)"
     transform="matrix(.04884139 .11506311 -.11506311 .04884139 16.000032 .000099)"
     id="path31"
     style="fill:#e602b4" />
  <path
     d="m79.919106-30.094481h8v128h-8z"
     fill="url(#d)"
     transform="matrix(-.04884139 .11506311 -.11506311 -.04884139 16.000032 .000099)"
     id="path33"
     style="fill:#e602b4" />
  <path
     d="m46.181641 7.4140625a6.4727375 6.4727375 0 0 0 -4.636719 1.7402344l-27.800781 25.9746091a6.4727375 6.4727375 0 0 0 -2.050782 4.509766l-1.291015 38.02539a6.4727375 6.4727375 0 0 0 1.740234 4.636719l25.97461 27.798829a6.4727375 6.4727375 0 0 0 4.509765 2.05078l38.025391 1.29102a6.4727375 6.4727375 0 0 0 4.636718-1.74024l27.798828-25.974608a6.4727375 6.4727375 0 0 0 2.05078-4.509765l1.29102-38.023438a6.4727375 6.4727375 0 0 0 -1.74024-4.636718l-25.974606-27.800782a6.4727375 6.4727375 0 0 0 -4.509766-2.0507809z"
     fill="url(#a)"
     transform="matrix(.09544078 -.00318475 .00318475 .09544078 1.755075 2.434697)"
     id="path35"
     style="fill:#e602b4" />
  <path
     d="m80.870539 106.97317-38.024391-1.2906-25.974709-27.799904 1.290604-38.024391 27.799899-25.974709 38.024391 1.290604 25.974707 27.799899-1.2906 38.024391z"
     id="path37"
     transform="matrix(.08678702 -.00289598 .00289598 .08678702 2.321314 2.939317)"
     fill="url(#b)" />
</svg>
