<?xml version="1.0" encoding="UTF-8" standalone="no"?>
<svg
   xmlns:dc="http://purl.org/dc/elements/1.1/"
   xmlns:cc="http://creativecommons.org/ns#"
   xmlns:rdf="http://www.w3.org/1999/02/22-rdf-syntax-ns#"
   xmlns:svg="http://www.w3.org/2000/svg"
   xmlns="http://www.w3.org/2000/svg"
   xmlns:xlink="http://www.w3.org/1999/xlink"
   xmlns:sodipodi="http://sodipodi.sourceforge.net/DTD/sodipodi-0.dtd"
   xmlns:inkscape="http://www.inkscape.org/namespaces/inkscape"
   height="16"
   viewBox="0 0 4.2333333 4.2333335"
   width="16"
   version="1.1"
   id="svg53"
   sodipodi:docname="sc_solverdialog.svg"
   inkscape:version="0.92.4 (5da689c313, 2019-01-14)">
  <metadata
     id="metadata59">
    <rdf:RDF>
      <cc:Work
         rdf:about="">
        <dc:format>image/svg+xml</dc:format>
        <dc:type
           rdf:resource="http://purl.org/dc/dcmitype/StillImage" />
        <dc:title></dc:title>
      </cc:Work>
    </rdf:RDF>
  </metadata>
  <defs
     id="defs57" />
  <sodipodi:namedview
     pagecolor="#ffffff"
     bordercolor="#666666"
     borderopacity="1"
     objecttolerance="10"
     gridtolerance="10"
     guidetolerance="10"
     inkscape:pageopacity="0"
     inkscape:pageshadow="2"
     inkscape:window-width="1600"
     inkscape:window-height="836"
     id="namedview55"
     showgrid="true"
     inkscape:zoom="29.5"
     inkscape:cx="10.192142"
     inkscape:cy="6.1085797"
     inkscape:window-x="0"
     inkscape:window-y="27"
     inkscape:window-maximized="1"
     inkscape:current-layer="svg53">
    <inkscape:grid
       type="xygrid"
       id="grid866"
       spacingx="0.13229167"
       spacingy="0.13229167"
       empspacing="2" />
  </sodipodi:namedview>
  <radialGradient
     id="a"
     cx="7.67292"
     cy="292.766653"
     gradientUnits="userSpaceOnUse"
     r="1.352562"
     gradientTransform="translate(-4.233326,-289.59162)">
    <stop
       offset="0"
       stop-color="#033a13"
       id="stop2" />
    <stop
       offset="1"
       stop-color="#398c37"
       id="stop4" />
  </radialGradient>
  <linearGradient
     id="b"
     gradientUnits="userSpaceOnUse"
     x1="7.752362"
     x2="7.752362"
     y1="293.250788"
     y2="292.766574">
    <stop
       offset="0"
       stop-color="#bbf10e"
       id="stop7" />
    <stop
       offset="1"
       stop-color="#5f9207"
       id="stop9" />
  </linearGradient>
  <linearGradient
     id="c"
     gradientUnits="userSpaceOnUse"
     x1="7.937502"
     x2="7.937502"
     y1="291.972896"
     y2="293.583335">
    <stop
       offset="0"
       stop-color="#e0f4b8"
       id="stop12" />
    <stop
       offset="1"
       stop-color="#92c441"
       stop-opacity=".214592"
       id="stop14" />
  </linearGradient>
  <radialGradient
     id="d"
     cx="499.27826"
     cy="92.140617"
     gradientTransform="matrix(0.0257033,-0.00163217,0.00197344,0.0310775,-11.739006,-0.64120201)"
     gradientUnits="userSpaceOnUse"
     r="29.834906">
    <stop
       offset="0"
       stop-color="#0069c4"
       id="stop17" />
    <stop
       offset="1"
       stop-color="#0059a7"
       id="stop19" />
  </radialGradient>
  <linearGradient
     id="e"
     gradientUnits="userSpaceOnUse"
     x1="503.24423"
     x2="497.52887"
     xlink:href="#f"
     y1="47.628471"
     y2="86.970459"
     gradientTransform="matrix(0.02692468,0,0,0.02692468,-11.486305,0.05340419)" />
  <linearGradient
     id="f">
    <stop
       offset="0"
       stop-color="#fff"
       id="stop23" />
    <stop
       offset="1"
       stop-color="#fcf3f3"
       stop-opacity="0"
       id="stop25" />
  </linearGradient>
  <linearGradient
     id="g"
     gradientUnits="userSpaceOnUse"
     x1="497.28656"
     x2="496.11801"
     xlink:href="#f"
     y1="146.162986"
     y2="163.181486"
     gradientTransform="matrix(0.02692468,0,0,0.02692468,-11.895437,-0.45291834)" />
  <g
     style="fill-rule:evenodd;fill:#e602b4"
     id="g35"
     transform="translate(-4.233326,-289.59162)">
    <path
       style="fill:#e602b4"
       inkscape:connector-curvature="0"
       id="path31"
       d="m 6.3500033,292.50206 v 0.52917 h 1.0583334 v 0.52917 l 0.79375,-0.79375 -0.79375,-0.79375 v 0.52916 z" />
    <path
       style="fill:#e602b4"
       inkscape:connector-curvature="0"
       id="path33"
       d="m 6.3500033,292.50206 v 0.26459 h 1.8520834 l -0.79375,-0.79375 v 0.52916 z" />
  </g>
  <path
     style="fill:#9d3a9b;fill-opacity:0.88627499;stroke-width:0.02692468"
     inkscape:connector-curvature="0"
     id="path39"
     d="m 1.2485049,0.29622093 c -0.26354661,0 -0.48932109,0.064033 -0.66869977,0.1953091 -0.18608131,0.13624246 -0.2869689,0.32611393 -0.2869689,0.54648687 0,0.088791 0.021939,0.1723137 0.065892,0.2446885 a 0.07540077,0.07540077 0 0 0 6.8388e-4,0.00116 c 0.0723531,0.1143737 0.19116873,0.1796907 0.32667203,0.1796907 0.0671211,0 0.13126724,-0.014797 0.18831498,-0.044857 A 0.07540077,0.07540077 0 0 0 0.87518801,1.418331 C 0.991739,1.355181 1.0564562,1.2336936 1.0564562,1.0922345 c 0,-0.033976 -0.00364,-0.067017 -0.011201,-0.0987589 a 0.07540077,0.07540077 0 0 0 -4.2e-4,-0.001578 c -0.017045,-0.0652557 -0.05758,-0.12536569 -0.11569177,-0.18778865 -0.03732,-0.0406855 -0.0464871,-0.0693171 -0.0464871,-0.0800904 0,-0.0138162 0.003113,-0.0250714 0.0126734,-0.039756 l 5.385e-5,-5.385e-5 c 0.0279101,-0.042228 0.0832904,-0.0699936 0.19767562,-0.0699936 0.053225,0 0.097836,0.0121136 0.1394087,0.0366533 0.1123249,0.0686995 0.1784288,0.22024773 0.1784288,0.4887986 0,0.1577731 -0.029221,0.3062662 -0.087926,0.447728 a 0.07540077,0.07540077 0 0 0 -5.38e-5,1.05e-4 c -0.00929,0.022441 -0.058118,0.1195794 -0.1386726,0.2712454 -0.080062,0.1503078 -0.1231594,0.2895493 -0.1231594,0.4194358 0,0.051374 0.00316,0.1229793 0.00931,0.2171853 a 0.07540077,0.07540077 0 0 0 0.075252,0.07052 h 0.1933109 a 0.07540077,0.07540077 0 0 0 0.07541,-0.07541 v -0.068837 c 0.00294,-0.1318768 0.027553,-0.2201639 0.057163,-0.2626732 0.02645,-0.037035 0.1087267,-0.10642 0.240534,-0.1868952 a 0.07540077,0.07540077 0 0 0 3.15e-4,-2.154e-4 C 1.9046152,1.8531509 1.9948029,1.7373729 2.0777538,1.6437109 A 0.07540077,0.07540077 0 0 0 2.078023,1.6433958 C 2.1981596,1.5063141 2.259081,1.3340465 2.259081,1.1396623 a 0.07540077,0.07540077 0 0 0 0,-5.783e-4 C 2.2574332,0.91599863 2.1783955,0.72122248 2.0263298,0.57098373 A 0.07540077,0.07540077 0 0 0 2.0260605,0.57077372 C 1.8376126,0.38623799 1.5730848,0.29621562 1.2485054,0.29621562 Z" />
  <path
     style="fill:#e602b4;stroke-width:0.02692468"
     inkscape:connector-curvature="0"
     id="path41"
     d="m 1.2813193,0.47833063 c 0.014271,0.00648 0.029732,0.0100594 0.043279,0.01809 a 0.10441282,0.10441282 0 0 1 0.0011,6.8362e-4 c 0.1858573,0.11330008 0.2649873,0.343246 0.2649873,0.64256385 0,0.1801568 -0.033909,0.3534304 -0.1016512,0.5166699 -0.019852,0.047937 -0.064942,0.1340803 -0.1460348,0.2867583 a 0.10441282,0.10441282 0 0 1 -5.39e-5,1.077e-4 c -0.070851,0.1329988 -0.102072,0.2455216 -0.102072,0.3349807 0,0.012413 0.00205,0.041788 0.00252,0.058267 0.00943,-0.1105536 0.029529,-0.2072355 0.080879,-0.2807108 a 0.10441282,0.10441282 0 0 1 4.738e-4,-7.351e-4 C 1.3827664,1.9734415 1.477509,1.9046471 1.6179279,1.8188887 l 4.2e-4,-2.692e-4 C 1.7877699,1.7139145 1.8543775,1.6247575 1.9428116,1.5248671 2.0344492,1.4203041 2.0791388,1.2980592 2.0792228,1.1400861 2.0777904,0.95728859 2.020101,0.8177268 1.9001107,0.69908926 1.7563477,0.55838551 1.5552454,0.48422229 1.2813164,0.47832794 Z M 0.73483232,0.60722201 c -0.016105,0.0100062 -0.0336381,0.0182611 -0.0488535,0.0293963 -0.14941528,0.10940855 -0.21334658,0.23252345 -0.21334658,0.40139859 0,0.059929 0.0133549,0.1074425 0.0394931,0.1507151 0.0449623,0.070592 0.0894236,0.095025 0.17395847,0.095025 0.0412311,0 0.0739414,-0.00822 0.1038073,-0.023822 0.0636381,-0.034598 0.0867691,-0.072912 0.0867691,-0.1677007 0,-0.02064 -0.002278,-0.038894 -0.006153,-0.055637 -0.00564,-0.020878 -0.0272847,-0.0609617 -0.0733065,-0.11032804 a 0.10441282,0.10441282 0 0 1 -5.7888e-4,-6.3111e-4 c -0.053736,-0.0585821 -0.0937631,-0.12316394 -0.0937631,-0.20161957 0,-0.0409269 0.0128913,-0.0807977 0.0319736,-0.11679657 z" />
  <circle
     style="fill:#9d3a9b;stroke-width:0.02692468"
     id="circle43"
     r="0.53004849"
     cy="3.3359437"
     cx="1.2492032" />
  <circle
     style="fill:#e602b4;fill-opacity:0.98039198;stroke-width:0.02692468"
     id="circle45"
     r="0.33195448"
     cy="3.3359437"
     cx="1.2492032" />
</svg>
