<?xml version="1.0" encoding="UTF-8" standalone="no"?>
<svg
   xmlns:dc="http://purl.org/dc/elements/1.1/"
   xmlns:cc="http://creativecommons.org/ns#"
   xmlns:rdf="http://www.w3.org/1999/02/22-rdf-syntax-ns#"
   xmlns:svg="http://www.w3.org/2000/svg"
   xmlns="http://www.w3.org/2000/svg"
   xmlns:sodipodi="http://sodipodi.sourceforge.net/DTD/sodipodi-0.dtd"
   xmlns:inkscape="http://www.inkscape.org/namespaces/inkscape"
   height="16"
   viewBox="0 0 16 16"
   width="16"
   version="1.1"
   id="svg31"
   sodipodi:docname="sc_scan.svg"
   inkscape:export-filename="/home/annisaauliarasyidah/Desktop/4_242 (aulia)/sc 222/sc_scan.png"
   inkscape:export-xdpi="96"
   inkscape:export-ydpi="96"
   inkscape:version="0.92.4 (unknown)">
  <metadata
     id="metadata37">
    <rdf:RDF>
      <cc:Work
         rdf:about="">
        <dc:format>image/svg+xml</dc:format>
        <dc:type
           rdf:resource="http://purl.org/dc/dcmitype/StillImage" />
      </cc:Work>
    </rdf:RDF>
  </metadata>
  <defs
     id="defs35" />
  <sodipodi:namedview
     pagecolor="#ffffff"
     bordercolor="#666666"
     borderopacity="1"
     objecttolerance="10"
     gridtolerance="10"
     guidetolerance="10"
     inkscape:pageopacity="0"
     inkscape:pageshadow="2"
     inkscape:window-width="1366"
     inkscape:window-height="707"
     id="namedview33"
     showgrid="true"
     inkscape:zoom="14.69702"
     inkscape:cx="-6.3577494"
     inkscape:cy="8"
     inkscape:window-x="0"
     inkscape:window-y="0"
     inkscape:window-maximized="1"
     inkscape:current-layer="g852">
    <inkscape:grid
       type="xygrid"
       id="grid854" />
  </sodipodi:namedview>
  <filter
     id="a"
     color-interpolation-filters="sRGB"
     height="1.10145"
     width="1.055801"
     x="-.027901"
     y="-.050725">
    <feGaussianBlur
       stdDeviation=".1395035"
       id="feGaussianBlur2" />
  </filter>
  <clipPath
     id="b">
    <path
       d="m2 2h12v5.7572458c-3.770831 1.3692251-7.7164657 1.6940439-12 0z"
       id="path5" />
  </clipPath>
  <filter
     id="c"
     color-interpolation-filters="sRGB"
     height="1.046436"
     width="1.049673"
     x="-.024837"
     y="-.023218">
    <feGaussianBlur
       stdDeviation=".14888193"
       id="feGaussianBlur8" />
  </filter>
  <g
     id="g852">
    <path
       style="fill:#e602b4"
       id="path13"
       fill="#808080"
       d="m1 5.5h14v8.51937c-3.949647 1.303523-9.9473543 1.362873-14 0z" />
    <path
       style="fill:#f3b7d9"
       id="path15"
       fill="#a6a6a6"
       d="m2 6.5h12v6.51937c-3.949647 1.303523-7.9473543 1.362873-12 0z" />
    <path
       style="fill:#9d3a9b"
       id="path17"
       fill="#0c1114"
       d="m3 3h10v8.01937h-10z" />
    <path
       style="fill:#f3b7d9"
       id="path19"
       fill="#bce7ff"
       d="m4 4h8v6.01937h-8z" />
    <path
       style="fill:#e602b4"
       id="path21"
       fill="#5d5e5e"
       d="m1.5 1h13c.277 0 .5.223.5.5v5.5c0 .277-.242017.3991349-.5.5-3.817717 1.4926354-7.818218 2.4561388-13 0-.2503053-.1186435-.5-.223-.5-.5v-5.5c0-.277.223-.5.5-.5z" />
    <path
       style="fill:#f3b7d9"
       id="path25"
       fill="#c4c7c9"
       d="m2 2h12v5c-3.770831 1.1891321-7.7164657 1.4712277-12 0z" />
    <path
       style="fill:#f0e3ec"
       id="path27"
       fill="#e2e4e5"
       d="m2 6c4.5 1 7 1 12 0v1c-3.770831 1.1891321-7.7164657 1.4712277-12 0z" />
    <path
       style="fill:#9d3a9b"
       id="path29"
       fill="#474848"
       d="m3 12.01937h10c-1.5 1.5-8.5 1.5-10 0z" />
  </g>
</svg>
