<?xml version="1.0" encoding="UTF-8" standalone="no"?>
<svg
   xmlns:dc="http://purl.org/dc/elements/1.1/"
   xmlns:cc="http://creativecommons.org/ns#"
   xmlns:rdf="http://www.w3.org/1999/02/22-rdf-syntax-ns#"
   xmlns:svg="http://www.w3.org/2000/svg"
   xmlns="http://www.w3.org/2000/svg"
   xmlns:xlink="http://www.w3.org/1999/xlink"
   xmlns:sodipodi="http://sodipodi.sourceforge.net/DTD/sodipodi-0.dtd"
   xmlns:inkscape="http://www.inkscape.org/namespaces/inkscape"
   height="16"
   width="16"
   version="1.1"
   id="svg146"
   sodipodi:docname="sc_signaturesmenu.svg"
   inkscape:version="0.92.4 (5da689c313, 2019-01-14)">
  <metadata
     id="metadata152">
    <rdf:RDF>
      <cc:Work
         rdf:about="">
        <dc:format>image/svg+xml</dc:format>
        <dc:type
           rdf:resource="http://purl.org/dc/dcmitype/StillImage" />
        <dc:title />
      </cc:Work>
    </rdf:RDF>
  </metadata>
  <defs
     id="defs150" />
  <sodipodi:namedview
     pagecolor="#ffffff"
     bordercolor="#666666"
     borderopacity="1"
     objecttolerance="10"
     gridtolerance="10"
     guidetolerance="10"
     inkscape:pageopacity="0"
     inkscape:pageshadow="2"
     inkscape:window-width="1235"
     inkscape:window-height="832"
     id="namedview148"
     showgrid="true"
     inkscape:zoom="16"
     inkscape:cx="1.3080096"
     inkscape:cy="5.7319496"
     inkscape:window-x="363"
     inkscape:window-y="27"
     inkscape:window-maximized="0"
     inkscape:current-layer="svg146"
     inkscape:snap-smooth-nodes="true">
    <inkscape:grid
       type="xygrid"
       id="grid204"
       spacingx="0.5"
       spacingy="0.5"
       empspacing="2" />
  </sodipodi:namedview>
  <linearGradient
     id="a">
    <stop
       offset="0"
       id="stop2" />
    <stop
       offset="1"
       stop-opacity="0"
       id="stop4" />
  </linearGradient>
  <linearGradient
     id="b">
    <stop
       offset="0"
       id="stop7" />
    <stop
       offset=".25824177"
       stop-opacity=".494585"
       id="stop9" />
    <stop
       offset="1"
       stop-opacity="0"
       id="stop11" />
  </linearGradient>
  <linearGradient
     id="c">
    <stop
       offset="0"
       stop-color="#323232"
       id="stop14" />
    <stop
       offset=".07692308"
       stop-color="#dfe1e1"
       id="stop16" />
    <stop
       offset=".26289096"
       stop-color="#b6b1b1"
       id="stop18" />
    <stop
       offset=".38144547"
       stop-color="#a19999"
       id="stop20" />
    <stop
       offset=".5"
       stop-color="#645b5b"
       id="stop22" />
    <stop
       offset=".78201604"
       stop-color="#fff"
       id="stop24" />
    <stop
       offset=".9005897"
       stop-color="#dfd9df"
       id="stop26" />
    <stop
       offset="1"
       stop-color="#3a3a3a"
       id="stop28" />
  </linearGradient>
  <linearGradient
     id="d"
     gradientUnits="userSpaceOnUse"
     x1="64.154052"
     x2="35.455438"
     xlink:href="#a"
     y1="143.996398"
     y2="-5.056072"
     gradientTransform="matrix(0.125,0,0,0.125,0,0.023)" />
  <linearGradient
     id="e"
     gradientTransform="matrix(-0.11011445,0.09939316,0.08504636,0.09421984,-26.365644,-4.3855528)"
     gradientUnits="userSpaceOnUse"
     x1="-113.99815"
     x2="-102.01393"
     y1="261.99951"
     y2="265.21066">
    <stop
       offset="0"
       stop-color="#fafafa"
       id="stop32" />
    <stop
       offset="1"
       stop-color="#fafafa"
       stop-opacity="0"
       id="stop34" />
  </linearGradient>
  <linearGradient
     id="f"
     gradientTransform="matrix(-0.12870906,-0.03190091,-0.05283916,0.13318664,7.2334789,-30.982355)"
     gradientUnits="userSpaceOnUse"
     x1="-128.77939"
     x2="-133.02272"
     xlink:href="#b"
     y1="286.37796"
     y2="277.25986" />
  <linearGradient
     id="g"
     gradientTransform="matrix(-0.12870906,-0.03190091,-0.05283916,0.13318664,6.9070465,-28.20691)"
     gradientUnits="userSpaceOnUse"
     x1="-119.93997"
     x2="-123.91203"
     xlink:href="#b"
     y1="274.45004"
     y2="276.74332" />
  <linearGradient
     id="h"
     gradientTransform="matrix(-0.01859476,-0.1312938,0.13788561,-0.03896662,-31.838654,5.9047248)"
     gradientUnits="userSpaceOnUse"
     x1="-135.90878"
     x2="-134.63533"
     xlink:href="#b"
     y1="273.1312"
     y2="274.5062" />
  <linearGradient
     id="i"
     gradientTransform="matrix(-0.12870906,-0.03190091,-0.05283916,0.13318664,7.0934566,-29.108026)"
     gradientUnits="userSpaceOnUse"
     x1="-203.8418"
     x2="-120.47014"
     xlink:href="#b"
     y1="321.43585"
     y2="273.30142" />
  <linearGradient
     id="j"
     gradientTransform="matrix(0.04159257,-0.03803387,-0.032278,-0.0363958,20.616122,11.187013)"
     gradientUnits="userSpaceOnUse"
     x1="-162.56029"
     x2="-118.89805"
     xlink:href="#c"
     y1="167.36592"
     y2="161.92447" />
  <linearGradient
     id="k"
     gradientTransform="matrix(0.09846546,0.10908696,-0.12748922,0.11507594,0.10473913,-0.06624828)"
     gradientUnits="userSpaceOnUse"
     x1="22.22868"
     x2="27.94627"
     y1="-5.351574"
     y2="-5.351574">
    <stop
       offset="0"
       stop-color="#e2dcdc"
       id="stop42" />
    <stop
       offset=".39074388"
       stop-color="#fff"
       id="stop44" />
    <stop
       offset=".82692307"
       stop-color="#dfd9df"
       id="stop46" />
    <stop
       offset="1"
       stop-color="#c3c3c3"
       id="stop48" />
  </linearGradient>
  <linearGradient
     id="l"
     gradientTransform="matrix(-0.14400824,0.1638294,0.10017621,0.10797288,-19.524417,-6.7947862)"
     gradientUnits="userSpaceOnUse"
     x1="-71.804848"
     x2="-56.400097"
     xlink:href="#a"
     y1="128.92874"
     y2="224.42052" />
  <linearGradient
     id="m"
     gradientTransform="matrix(0.11037077,-0.09910553,0.05166683,0.05674844,-22.466242,13.757855)"
     gradientUnits="userSpaceOnUse"
     x1="98.411324"
     x2="166.32983"
     xlink:href="#a"
     y1="185.68851"
     y2="155.59846" />
  <linearGradient
     id="n"
     gradientTransform="matrix(0.11011462,-0.09939306,0.08504623,0.0942202,-6.6186311,-15.729699)"
     gradientUnits="userSpaceOnUse"
     x1="-53.739216"
     x2="-53.739216"
     xlink:href="#a"
     y1="145.54308"
     y2="146.01439" />
  <linearGradient
     id="o"
     gradientTransform="matrix(0.14833816,0,0,0.12692639,6.6119778,-16.910315)"
     gradientUnits="userSpaceOnUse"
     x1="-44.999382"
     x2="-45.039631"
     xlink:href="#a"
     y1="132.86296"
     y2="137.0005" />
  <linearGradient
     id="p"
     gradientTransform="matrix(0.11011462,-0.09939306,0.08504623,0.0942202,-5.8689262,-16.605497)"
     gradientUnits="userSpaceOnUse"
     x1="-40.931931"
     x2="-44.212151"
     xlink:href="#a"
     y1="154.80533"
     y2="142.56337" />
  <linearGradient
     id="q"
     gradientTransform="matrix(0.14833582,0,0,0.06499425,-29.404577,1.4769334)"
     gradientUnits="userSpaceOnUse"
     x1="190.03462"
     x2="208.7153"
     xlink:href="#c"
     y1="90.22673"
     y2="90.22673" />
  <linearGradient
     id="r"
     gradientTransform="matrix(0.1483382,0,0,0.1269264,-28.628675,-16.472262)"
     gradientUnits="userSpaceOnUse"
     x1="254.01285"
     x2="183.3956"
     xlink:href="#a"
     y1="282.73343"
     y2="212.11615" />
  <linearGradient
     id="s"
     gradientTransform="matrix(0.12374752,0,0,0.04926244,-24.497852,0.39962552)"
     gradientUnits="userSpaceOnUse"
     x1="190.03462"
     x2="207.94772"
     xlink:href="#c"
     y1="90.22673"
     y2="90.22673" />
  <linearGradient
     id="t"
     gradientTransform="matrix(0.13539203,0,0,0.05389763,-26.778337,3.9026325)"
     gradientUnits="userSpaceOnUse"
     x1="190.03462"
     x2="207.94772"
     xlink:href="#c"
     y1="90.22673"
     y2="90.22673" />
  <linearGradient
     id="u"
     gradientTransform="matrix(0.912724,0,0,0.424636,-6.403316,173.8027)"
     gradientUnits="userSpaceOnUse"
     x1="190.03462"
     x2="208.77219"
     xlink:href="#c"
     y1="90.22673"
     y2="90.22673" />
  <linearGradient
     id="v"
     gradientTransform="matrix(0.192457,0.327601,0.333345,-0.189141,-161.4249,355.0328)"
     gradientUnits="userSpaceOnUse"
     x1="-161.94588"
     x2="-115.94351"
     xlink:href="#c"
     y1="164.39458"
     y2="160.49312" />
  <linearGradient
     id="w"
     gradientUnits="userSpaceOnUse"
     x1="-135.90878"
     x2="-134.63533"
     xlink:href="#b"
     y1="273.1312"
     y2="274.5062" />
  <linearGradient
     id="x"
     gradientTransform="matrix(0.5,-0.866025,-0.866025,-0.5,175.1251,303.2683)"
     gradientUnits="userSpaceOnUse"
     x1="-128.98389"
     x2="-129.63054"
     xlink:href="#b"
     y1="289.60529"
     y2="280.78455" />
  <linearGradient
     id="y"
     gradientUnits="userSpaceOnUse"
     x1="-151.52597"
     x2="-151.82185"
     xlink:href="#a"
     y1="289.93997"
     y2="290.10934"
     gradientTransform="matrix(0.14230231,0,0,0.15376504,6.1596927,-34.808056)" />
  <radialGradient
     id="z"
     cx="-151.73438"
     cy="289.98047"
     fx="-151.62585"
     fy="290.38544"
     gradientUnits="userSpaceOnUse"
     r=".632813"
     gradientTransform="matrix(0.14230231,0,0,0.15376504,6.1596927,-34.808056)">
    <stop
       offset="0"
       stop-color="#fff"
       id="stop65" />
    <stop
       offset=".3598901"
       stop-color="#b9abb9"
       id="stop67" />
    <stop
       offset=".71978021"
       stop-color="#dfd9df"
       id="stop69" />
    <stop
       offset="1"
       stop-color="#3a3a3a"
       id="stop71" />
  </radialGradient>
  <linearGradient
     id="A"
     gradientTransform="matrix(0.577491,1.44816,-1.045249,0.603475,204.2967,164.9777)"
     gradientUnits="userSpaceOnUse"
     x1="-52.954453"
     x2="-49.3125"
     y1="182.06993"
     y2="182.0625">
    <stop
       offset="0"
       stop-color="#323232"
       id="stop74" />
    <stop
       offset=".07692308"
       stop-color="#dfe1e1"
       id="stop76" />
    <stop
       offset=".5"
       stop-color="#e2dcdc"
       id="stop78" />
    <stop
       offset=".78201604"
       stop-color="#fff"
       id="stop80" />
    <stop
       offset=".9005897"
       stop-color="#dfd9df"
       id="stop82" />
    <stop
       offset="1"
       stop-color="#3a3a3a"
       id="stop84" />
  </linearGradient>
  <linearGradient
     id="B"
     gradientTransform="matrix(0.603475,1.045249,-1.045249,0.603475,205.9786,145.2615)"
     gradientUnits="userSpaceOnUse"
     x1="-52.533428"
     x2="-52.218658"
     xlink:href="#a"
     y1="212.26097"
     y2="210.21022" />
  <path
     style="fill:#9d3a9b;fill-rule:evenodd;stroke-width:0.125"
     d="m 2.4089694,9.3449839 c 0.00819,-0.022499 -0.04592,-0.00988 -0.1511569,-0.00319 C 2.1092827,9.3539373 1.9509955,9.3593769 1.78125,9.359375 1.62211,9.3553291 1.4638237,9.3480779 1.3046875,9.3359375 1.0288465,9.3157064 0.890625,9.2498798 0.890625,9.140625 0.890625,8.8371467 1.4195465,8.4753763 2.4804688,8.0585938 2.9684904,7.8643694 3.4943493,7.6872502 4.0566406,7.5253906 4.6189252,7.3635383 5.2339578,7.2083152 5.9023438,7.0585938 7.2284881,6.7753501 8.2581905,6.6420216 8.9902344,6.6582031 c 0.7744628,0.024283 1.1620996,0.2051677 1.1621096,0.5410157 -10e-6,0.056653 -0.01701,0.1131356 -0.04883,0.1738281 -0.02123,0.0607 -0.05829,0.1247142 -0.1113285,0.1894531 -0.4562053,0.5503141 -1.9727503,1.6353448 -4.5507813,3.253906 -0.021224,0.02023 -0.041285,0.03656 -0.0625,0.05274 -0.010617,0.01214 -0.017578,0.02497 -0.017578,0.03711 -4.8e-6,0.04452 0.069111,0.06836 0.2070313,0.06836 0.148524,0 0.2817308,-0.0329 0.3984375,-0.09766 C 6.1259284,10.7758 6.3483106,10.649718 6.6347656,10.5 6.9318166,10.350284 7.2974371,10.171352 7.7324219,9.9609375 8.2522627,9.7100687 8.7731087,9.474367 9.2929688,9.2558594 c 0.5198418,-0.2185036 1.0487622,-0.4267237 1.5898432,-0.625 1.336749,-0.4734264 2.477644,-0.7876398 3.421876,-0.9414063 0.22278,-0.036414 0.415068,-0.054684 0.574218,-0.054687 0.243997,3.3e-6 0.36522,0.041983 0.365235,0.1269532 -1.5e-5,0.068792 -0.05714,0.1454973 -0.173829,0.2304687 l -2.308593,1.7851563 c -0.169759,0.1335323 -0.377094,0.3124637 -0.621094,0.5390627 -0.244024,0.226598 -0.503469,0.475125 -0.779297,0.742188 -0.265241,0.271109 -0.531655,0.548782 -0.796875,0.832031 -0.265241,0.287294 -0.502669,0.551995 -0.7148436,0.798828 -0.2121933,0.250874 -0.3874801,0.470254 -0.5253906,0.652344 -0.1202741,0.175832 -0.1870097,0.295772 -0.203125,0.363281 -1.4396256,0.578904 -1.7965127,1.100964 -2.9824219,1.607422 1.0416395,-0.118434 1.9485522,-0.830267 3.1679687,-1.324219 l 0.00195,0.002 c 0.063646,0.04046 0.1377732,0.07324 0.2226562,0.101563 0.084865,0.02832 0.1860241,0.04297 0.3027344,0.04297 0.2864378,-3e-6 0.7091858,-0.08396 1.2714848,-0.253907 0.500812,-0.155935 0.845513,-0.289528 1.03125,-0.40039 2.764073,-1.377083 0.390722,-1.102657 -2.7089848,0.101562 0.00591,-0.06223 0.033663,-0.138764 0.085937,-0.230469 0.116692,-0.18209 0.2869631,-0.397562 0.5097658,-0.648437 0.233399,-0.250879 0.504823,-0.52116 0.8125,-0.8125 0.318265,-0.287296 0.636791,-0.568595 0.955078,-0.84375 0.318266,-0.275156 0.621742,-0.52912 0.908203,-0.759766 0.297048,-0.230687 0.53949,-0.4133425 0.730469,-0.5468751 0.371309,-0.2711079 0.748912,-0.5339968 1.130859,-0.7929688 0.381915,-0.2630147 0.762584,-0.5316222 1.144531,-0.8027344 0.02121,-0.016183 0.03124,-0.036266 0.03125,-0.060547 0.01059,-0.024276 0.01756,-0.047984 0.01758,-0.072266 -1.5e-5,-0.056647 -0.01006,-0.1114561 -0.03125,-0.1640626 C 15.701414,7.7910631 15.615309,7.730809 15.466795,7.6660635 15.350079,7.6134655 15.238887,7.5732985 15.13281,7.5449698 15.026705,7.5126018 14.900467,7.5015838 14.751951,7.5137198 13.818326,7.5703728 12.490162,7.9211252 10.771482,8.564501 10.134919,8.7991945 9.5519339,9.0256841 9.0214827,9.2441885 8.5016227,9.462696 8.0248114,9.6763549 7.5898421,9.8867667 c -0.09549,0.064744 -0.1816022,0.097658 -0.2558594,0.097656 -0.042448,1e-6 -0.06251,-0.00725 -0.0625,-0.023437 -7.6e-6,-0.028324 0.037059,-0.066816 0.1113281,-0.1113281 0.8487288,-0.5422161 1.5108581,-0.998822 1.9882813,-1.3710938 0.4880148,-0.3763131 0.8084919,-0.6721157 0.9570309,-0.890625 0.05304,-0.093063 0.07812,-0.1862266 0.07813,-0.2792968 -7e-6,-0.2144555 -0.121232,-0.388089 -0.365234,-0.5175782 -0.26524,-0.1578064 -0.6328133,-0.2419036 -1.0996095,-0.25 -0.051679,-9.165e-4 -0.1030733,-1.238e-4 -0.15625,0 l -3.3e-6,-4.82e-5 C 8.3689104,6.5419677 7.9064293,6.5760452 7.3984375,6.640625 6.8255331,6.7134645 6.1904367,6.8229429 5.4902344,6.9726562 4.8642856,7.1142844 4.2693158,7.2695081 3.7070312,7.4394531 3.1553501,7.6053597 2.6294903,7.7936363 2.1308594,8 1.1335919,8.4046439 0.61971748,8.7351729 0.58789062,8.9941406 c -0.0318316,0.2670647 0.2075548,0.4206153 0.71679688,0.4570313 0.2652289,0.020234 0.5818015,0.00741 0.953125,-0.037109 0.097389,-0.00929 0.1585901,0.023732 0.1667819,0.00123 m 0,0 C 2.4288813,9.459623 3.6976913,9.0385679 4.3105469,9.5 4.9490463,9.9804694 4.5,13 3.8359375,14.335938 2.9720914,13.057499 1,12.581621 1,11.701248 1,11.335749 1.5,10.280189 2.5947663,11.87315 2.6299703,11.91328 3.5156288,8.8365482 4.5,10.5 3.4140625,8.3984377 2.5402142,11.701688 2.5,11.638107 1.74553,10.445245 0.72105102,10.66294 0.87695312,12.068359 1.041165,13.548689 3.3105469,14.011718 3.8105469,15.011718 4.734375,12 5.3731711,9.8623374 4.671875,9.2246094 4.171875,8.7699311 3.5,9.2591223 2.4089694,9.3449839 M 13.027344,12.679688 c 0.24594,0.0028 0.003,0.223794 -0.972656,0.724609 -0.0083,0.003 -0.01672,0.0065 -0.02539,0.0098 -1.10337,0.416775 -1.878641,0.624996 -2.3242189,0.625 -0.1371999,-2e-6 -0.2178339,-0.03985 -0.2441406,-0.11914 1.7324205,-0.759588 3.1977535,-1.244416 3.5664065,-1.240234 z"
     id="path88"
     inkscape:connector-curvature="0"
     sodipodi:nodetypes="ccccsccccccccccscccccccccccccccccccsccccccccccccccccccccccccccccccccccccccccccsccsscscccccccc" />
  <path
     style="fill:#f0e3ec;stroke:#f0e3ec;stroke-width:0.99999994px;stroke-linecap:butt;stroke-linejoin:round;stroke-opacity:1"
     d="M 8.6747073,11.233538 C 9.3357753,9.9722818 9.3357753,9.9722818 10.663159,9.4566953 l 1.004722,3.1254297 z"
     id="path4598"
     inkscape:connector-curvature="0"
     sodipodi:nodetypes="cccc" />
  <path
     style="opacity:1;vector-effect:none;fill:none;fill-opacity:1;stroke:#9d3a9b;stroke-width:0.5;stroke-linecap:round;stroke-linejoin:miter;stroke-miterlimit:4;stroke-dasharray:none;stroke-dashoffset:0;stroke-opacity:1"
     d="m 11.667881,12.582125 0.999474,1.118504"
     id="path4594"
     inkscape:connector-curvature="0" />
  <path
     style="fill:#f3b7d9;fill-opacity:1;stroke:#e602b4;stroke-width:0.99999994;stroke-linecap:round;stroke-linejoin:round;stroke-miterlimit:4;stroke-dasharray:none;stroke-opacity:1"
     d="M 1.8405953,1.9179873 2.172004,1.6218469 C 2.631005,1.2116924 3.3719969,1.2972065 3.8334207,1.8135827 l 6.4965803,7.2702778 c 0.461424,0.5163761 1.962586,2.9400395 1.503584,3.3501945 l -0.331408,0.29614 C 11.043176,13.14035 8.8029731,11.377079 8.3415493,10.860703 L 1.8449686,3.5904253 C 1.3835448,3.0740491 1.3815943,2.3281418 1.8405953,1.9179873 Z"
     id="rect4591"
     inkscape:connector-curvature="0"
     sodipodi:nodetypes="sssssssss" />
  <path
     style="fill:none;stroke:#e602b4;stroke-width:0.99999994px;stroke-linecap:butt;stroke-linejoin:miter;stroke-opacity:1"
     d="m 8.6747073,11.233538 c 0.32791,-1.6340909 0.32791,-1.6340909 1.9884517,-1.7768427"
     id="path4596"
     inkscape:connector-curvature="0"
     sodipodi:nodetypes="cc" />
  <path
     sodipodi:nodetypes="ccccc"
     inkscape:connector-curvature="0"
     id="path4600"
     d="M 5.3326316,3.4913391 C 3.8471387,3.8299872 3.8471387,3.8299872 3.3441795,5.2681817 3.5067195,5.450079 4.1944944,6.2197631 4.3436535,6.386686 4.6715635,4.7525952 4.6715635,4.7525952 6.3321056,4.6098434 6.2237534,4.4885872 5.5573546,3.742825 5.3326316,3.4913391 Z"
     style="fill:#f0e3ec;stroke:#e602b4;stroke-width:0.99999994px;stroke-linecap:round;stroke-linejoin:round;stroke-opacity:1" />
  <path
     sodipodi:nodetypes="csscc"
     inkscape:connector-curvature="0"
     id="path4604"
     d="m 10.330001,9.0838605 c 0.511085,0.5719516 1.962586,2.9400395 1.503584,3.3501945 l -0.331408,0.29614 C 11.043176,13.14035 8.812706,11.387971 8.3415493,10.860703 9.0026173,9.5994471 9.0026173,9.5994471 10.330001,9.0838605 Z"
     style="fill:#f0e3ec;fill-opacity:1;stroke:#e602b4;stroke-width:0.99999994;stroke-linecap:round;stroke-linejoin:round;stroke-miterlimit:4;stroke-dasharray:none;stroke-opacity:1" />
  <path
     style="fill:none;stroke:#e602b4;stroke-width:0.99999994px;stroke-linecap:round;stroke-linejoin:round;stroke-opacity:1"
     d="M 3.9999997,2 4.3314083,1.7038596 C 4.6692277,1.4019908 5.3342482,1.4920956 5.6605417,1.8572483 l 3.6647378,4.1011824"
     id="path4606"
     inkscape:connector-curvature="0"
     sodipodi:nodetypes="cccc" />
  <circle
     style="fill:#9d3a9b;fill-opacity:1;stroke:none;stroke-width:0.5;stroke-linecap:round;stroke-linejoin:round;stroke-miterlimit:4;stroke-dasharray:none;stroke-opacity:1"
     id="path4608"
     cx="2.9833791"
     cy="10.656603"
     r="0.5"
     transform="rotate(-41.783362)" />
</svg>
