<?xml version="1.0" encoding="UTF-8" standalone="no"?>
<svg
   xmlns:dc="http://purl.org/dc/elements/1.1/"
   xmlns:cc="http://creativecommons.org/ns#"
   xmlns:rdf="http://www.w3.org/1999/02/22-rdf-syntax-ns#"
   xmlns:svg="http://www.w3.org/2000/svg"
   xmlns="http://www.w3.org/2000/svg"
   xmlns:xlink="http://www.w3.org/1999/xlink"
   xmlns:sodipodi="http://sodipodi.sourceforge.net/DTD/sodipodi-0.dtd"
   xmlns:inkscape="http://www.inkscape.org/namespaces/inkscape"
   height="16"
   width="16"
   version="1.1"
   id="svg229"
   sodipodi:docname="sc_setdocumentproperties.svg"
   inkscape:version="0.92.4 (5da689c313, 2019-01-14)"
   inkscape:export-filename="/home/ing/Documents/PROJECT SRIKANDI/3_272 (mba alita)/REVISI_SC/sc_setdocumentproperties.png"
   inkscape:export-xdpi="96"
   inkscape:export-ydpi="96">
  <metadata
     id="metadata235">
    <rdf:RDF>
      <cc:Work
         rdf:about="">
        <dc:format>image/svg+xml</dc:format>
        <dc:type
           rdf:resource="http://purl.org/dc/dcmitype/StillImage" />
        <dc:title />
      </cc:Work>
    </rdf:RDF>
  </metadata>
  <defs
     id="defs233" />
  <sodipodi:namedview
     pagecolor="#ffffff"
     bordercolor="#666666"
     borderopacity="1"
     objecttolerance="10"
     gridtolerance="10"
     guidetolerance="10"
     inkscape:pageopacity="0"
     inkscape:pageshadow="2"
     inkscape:window-width="1600"
     inkscape:window-height="836"
     id="namedview231"
     showgrid="true"
     inkscape:snap-object-midpoints="true"
     inkscape:zoom="29.5"
     inkscape:cx="6.0286478"
     inkscape:cy="7.0671296"
     inkscape:window-x="0"
     inkscape:window-y="27"
     inkscape:window-maximized="1"
     inkscape:current-layer="svg229">
    <inkscape:grid
       type="xygrid"
       id="grid913"
       spacingx="0.5"
       spacingy="0.5"
       empspacing="2" />
  </sodipodi:namedview>
  <linearGradient
     id="a">
    <stop
       offset="0"
       stop-color="#fff"
       id="stop2" />
    <stop
       offset="1"
       stop-color="#fff"
       stop-opacity="0"
       id="stop4" />
  </linearGradient>
  <linearGradient
     id="b">
    <stop
       offset="0"
       stop-color="#fff"
       id="stop7" />
    <stop
       offset=".5"
       stop-color="#fff"
       stop-opacity=".503597"
       id="stop9" />
    <stop
       offset="1"
       stop-color="#fff"
       id="stop11" />
  </linearGradient>
  <filter
     id="c">
    <feGaussianBlur
       stdDeviation="1.2828183"
       id="feGaussianBlur14" />
  </filter>
  <clipPath
     id="d">
    <path
       d="m76.90625-70.062499c-2.912256 3.972096-7.607051 6.5625-12.90625 6.5625-4.895788 0-9.283068-2.188651-12.21875-5.65625-23.139626-4.28557-26.617645 14.039708-31.5 30.75.408832.434.807117.86458 1.28125 1.34375 2.32718 2.30274 3.94598 3.67766 6.5625 5.65625.78852.57188 1.78325.6855 2.46875 0l7.09375-6.25c.76064-.63163 1.70649-.62292 2.375-.25l.09375-.09375c3.52766 2.01717 7.328189 3.60952 11.34375 4.6875v.15625c.736402.20901 1.440029.85927 1.53125 1.84375l.59375 9.4375c.000001.96944.78805 1.59681 1.75 1.75 3.249233.45108 5.351147.60772 8.625.625 3.273854-.01728 5.375768-.17392 8.625-.625.961947-.15319 1.75-.78056 1.75-1.75l.59375-9.4375c.09122-.98448.794849-1.63474 1.53125-1.84375v-.15625c4.015558-1.07798 7.816095-2.67033 11.34375-4.6875l.09375.09375c.668508-.37292 1.614362-.38163 2.375.25l7.09375 6.25c.685504.68551 1.680237.57189 2.46875 0 2.61651-1.97859 4.23531-3.35351 6.5625-5.65625.48542-.49057.8952-.93141 1.3125-1.375 3.92353-7.086674-25.609227-43.434539-30.84375-31.625z"
       id="path17" />
  </clipPath>
  <radialGradient
     id="e"
     cx="94.818924"
     cy="67.895119"
     gradientTransform="matrix(1,0,0,0.5780636,0,-101.84696)"
     gradientUnits="userSpaceOnUse"
     r="43.734375"
     xlink:href="#a" />
  <filter
     id="f">
    <feGaussianBlur
       stdDeviation=".60500001"
       id="feGaussianBlur21" />
  </filter>
  <filter
     id="g">
    <feGaussianBlur
       stdDeviation=".022901589"
       id="feGaussianBlur24" />
  </filter>
  <filter
     id="h">
    <feGaussianBlur
       stdDeviation=".093056358"
       id="feGaussianBlur27" />
  </filter>
  <filter
     id="i"
     height="1.133383"
     width="1.225559"
     x="-.112779"
     y="-.066691">
    <feGaussianBlur
       stdDeviation=".13268874"
       id="feGaussianBlur30" />
  </filter>
  <filter
     id="j">
    <feGaussianBlur
       stdDeviation=".20386597"
       id="feGaussianBlur33" />
  </filter>
  <filter
     id="k">
    <feGaussianBlur
       stdDeviation=".12356379"
       id="feGaussianBlur36" />
  </filter>
  <filter
     id="l">
    <feGaussianBlur
       stdDeviation=".11909804"
       id="feGaussianBlur39" />
  </filter>
  <filter
     id="m">
    <feGaussianBlur
       stdDeviation=".069666275"
       id="feGaussianBlur42" />
  </filter>
  <filter
     id="n">
    <feGaussianBlur
       stdDeviation=".11377897"
       id="feGaussianBlur45" />
  </filter>
  <filter
     id="o">
    <feGaussianBlur
       stdDeviation=".6636789"
       id="feGaussianBlur48" />
  </filter>
  <clipPath
     id="p">
    <path
       d="m63.969328 3.96691c-3.27385.01728-5.37577.17392-8.625.625-.96195.15318-1.75.78055-1.75 1.75l-.59375 9.4375c-.08851.95519-.75664 1.58433-1.46875 1.8125-.02183.007-.0406.02503-.0625.03125-4.11684 1.10517-8.02293 2.7221-11.625 4.8125-.65155.28193-1.49213.26494-2.1875-.3125l-7.09375-6.25c-.6855-.6855-1.68023-.57188-2.46875 0-2.61651 1.97859-4.23532 3.3535-6.5625 5.65625-2.30274 2.32718-3.67766 3.94598-5.65625 6.5625-.57188.78852-.6855 1.78325 0 2.46875l6.25 7.09375c.47372.57048.7362 1.30885.46875 1.84375l-.0625.125c-2.24552 3.7996-3.99486 7.936315-5.125 12.312505-.01184.02064-.01867.04216-.03125.0625-.31721.512841-.85539.931584-1.59375 1l-9.4375003.59375c-.9694401 0-1.5968101.78805-1.7500001 1.75-.45108 3.249232-.60772 5.351147-.625 8.625.01728 3.273853.17392 5.375768.625 8.625.15319.961946.78056 1.75 1.7500001 1.75l9.4375003.59375c.86735.08037 1.44344.646567 1.71875 1.28125 1.10323 4.143354 2.76625 8.064208 4.875 11.6875.37292.668507.38163 1.614364-.25 2.375l-6.25 7.09375c-.6855.685496-.57188 1.680225 0 2.468755 1.97859 2.61651 3.35351 4.23531 5.65625 6.5625 2.32718 2.30274 3.94598 3.67766 6.5625 5.65625.78852.57188 1.78325.6855 2.46875 0l7.09375-6.25c.76064-.63163 1.70649-.62292 2.375-.25l.09375-.0937c3.52766 2.01717 7.32819 3.60952 11.34375 4.6875v.15625c.7364.20901 1.44003.85927 1.53125 1.84375l.59375 9.4375c0 .96944.78805 1.59681 1.75 1.75 3.24923.45108 5.35115.60772 8.625.625 3.27385-.0173 5.37577-.17392 8.625-.625.96195-.15319 1.75-.78056 1.75-1.75l.59375-9.4375c.09122-.98448.79485-1.63474 1.53125-1.84375v-.15625c4.01556-1.07798 7.8161-2.67033 11.34375-4.6875l.09375.0937c.66851-.37292 1.61436-.38163 2.375.25l7.09375 6.25c.6855.68551 1.68024.57189 2.46875 0 2.616512-1.97859 4.235312-3.35351 6.562502-5.65625 2.30274-2.32719 3.67766-3.94599 5.65625-6.5625.57189-.78852.68551-1.78325 0-2.468755l-6.25-7.09375c-.63163-.76064-.62292-1.706493-.25-2.375 2.10875-3.623292 3.77177-7.544146 4.875-11.6875.27531-.634683.8514-1.20088 1.71875-1.28125l9.4375-.59375c.96945 0 1.59682-.788054 1.75-1.75.45108-3.249232.60772-5.351147.625-8.625-.0173-3.273853-.17392-5.375768-.625-8.625-.15318-.96195-.78055-1.75-1.75-1.75l-9.4375-.59375c-.73836-.06842-1.27654-.487159-1.59375-1-.006-.02192-.0256-.04059-.0313-.0625-1.13014-4.37619-3.15121-8.36491-5.125-12.312505l-.0625-.125c-.26745-.5349-.005-1.27327.46875-1.84375l6.25-7.09375c.68551-.68551.57188-1.68023 0-2.46875-1.97859-2.61652-3.35351-4.23532-5.65625-6.5625-2.32718-2.30275-3.94598-3.67766-6.562502-5.65625-.78852-.57188-1.78324-.68551-2.46875 0l-7.09375 6.25c-.69538.57744-1.53595.59443-2.1875.3125-3.60207-2.0904-7.50816-3.70733-11.625-4.8125-.0219-.0062-.04067-.02425-.0625-.03125-.71211-.22817-1.38024-.85731-1.46875-1.8125l-.59375-9.4375c0-.96945-.78805-1.59682-1.75-1.75-3.24923-.45108-5.35115-.60772-8.625-.625zm0 44.000005c8.832 0 16 7.168 16 16s-7.168 16-16 16-16-7.168-16-16c0-8.832001 7.168-16 16-16z"
       filter="url(#f)"
       id="path51" />
  </clipPath>
  <linearGradient
     id="q"
     gradientUnits="userSpaceOnUse"
     x1="53.46933"
     x2="52.46933"
     y1="-13.03309"
     y2="167.96691">
    <stop
       offset="0"
       stop-color="#767676"
       id="stop54" />
    <stop
       offset="1"
       stop-color="#767676"
       stop-opacity="0"
       id="stop56" />
  </linearGradient>
  <filter
     id="r">
    <feGaussianBlur
       stdDeviation=".13496047"
       id="feGaussianBlur59" />
  </filter>
  <clipPath
     id="s">
    <path
       d="m201.50395 3.7c-3.27385.01728-5.37577.17392-8.625.625-.96195.15318-1.75.78055-1.75 1.75l-.59375 9.4375c-.0885.95519-.75664 1.58433-1.46875 1.8125-.0218.007-.0406.02503-.0625.03125-4.11684 1.10517-8.02293 2.7221-11.625 4.8125-.65155.28193-1.49213.26494-2.1875-.3125l-7.09375-6.25c-.6855-.6855-1.68023-.57188-2.46875 0-2.61651 1.97859-4.23532 3.3535-6.5625 5.65625-2.30274 2.32718-3.67766 3.94598-5.65625 6.5625-.57188.78852-.6855 1.78325 0 2.46875l6.25 7.09375c.47372.57048.7362 1.30885.46875 1.84375l-.0625.125c-2.24552 3.7996-3.99486 7.936313-5.125 12.3125-.0118.02064-.0187.04216-.0313.0625-.31721.512841-.85539.931584-1.59375 1l-9.4375.59375c-.96944 0-1.59681.78805-1.75 1.75-.45108 3.249232-.60772 5.351147-.625 8.625.0173 3.273853.17392 5.375768.625 8.625.15319.961946.78056 1.75 1.75 1.75l9.4375.59375c.86735.08037 1.44344.646567 1.71875 1.28125 1.10323 4.143354 2.76625 8.064208 4.875 11.6875.37292.668507.38163 1.614364-.25 2.375l-6.25 7.09375c-.6855.685496-.57188 1.68023 0 2.46875 1.97859 2.61651 3.35351 4.23531 5.65625 6.5625 2.32718 2.30274 3.94598 3.67766 6.5625 5.65625.78852.57188 1.78325.6855 2.46875 0l7.09375-6.25c.76064-.63163 1.70649-.62292 2.375-.25l.0937-.0937c3.52766 2.01717 7.32819 3.60952 11.34375 4.6875v.15625c.7364.20901 1.44003.85927 1.53125 1.84375l.59375 9.4375c0 .96944.78805 1.59681 1.75 1.75 3.24923.45108 5.35115.60772 8.625.625 3.27385-.0173 5.37577-.17392 8.625-.625.96195-.15319 1.75-.78056 1.75-1.75l.59375-9.4375c.0912-.98448.79485-1.63474 1.53125-1.84375v-.15625c4.01556-1.07798 7.8161-2.67033 11.34375-4.6875l.0937.0937c.66851-.37292 1.61436-.38163 2.375.25l7.09374 6.25c.6855.68551 1.68024.57189 2.46875 0 2.61652-1.97859 4.23532-3.35351 6.56251-5.65625 2.30274-2.32719 3.67766-3.94599 5.65625-6.5625.57189-.78851.68551-1.783245 0-2.46875l-6.25-7.09375c-.63163-.76064-.62292-1.706493-.25-2.375 2.10875-3.623292 3.77177-7.544146 4.875-11.6875.27531-.634683.8514-1.20088 1.71875-1.28125l9.4375-.59375c.96945 0 1.59682-.788054 1.75-1.75.45108-3.249232.60772-5.351147.625-8.625-.0173-3.273853-.17392-5.375768-.625-8.625-.15318-.96195-.78055-1.75-1.75-1.75l-9.4375-.59375c-.73836-.06842-1.27654-.487159-1.59375-1-.006-.02192-.0256-.04059-.0313-.0625-1.13014-4.376187-3.15121-8.364911-5.125-12.3125l-.0625-.125c-.26745-.5349-.005-1.27327.46875-1.84375l6.25-7.09375c.68551-.68551.57188-1.68023 0-2.46875-1.97859-2.61652-3.35351-4.23532-5.65625-6.5625-2.32718-2.30275-3.94598-3.67766-6.56251-5.65625-.78852-.57188-1.78324-.68551-2.46875 0l-7.09374 6.25c-.69538.57744-1.53595.59443-2.1875.3125-3.60207-2.0904-7.50816-3.70733-11.625-4.8125-.0219-.0062-.0407-.02425-.0625-.03125-.71211-.22817-1.38024-.85731-1.46875-1.8125l-.59355-9.4375c0-.96945-.78805-1.59682-1.75-1.75-3.24923-.45108-5.35115-.60772-8.625-.625zm0 44c8.832-.000001 16 7.168 16 16s-7.168 16-16 16-16-7.168-16-16c0-8.832001 7.168-16 16-16z"
       id="path62" />
  </clipPath>
  <filter
     id="t">
    <feGaussianBlur
       stdDeviation=".30424851"
       id="feGaussianBlur65" />
  </filter>
  <filter
     id="u">
    <feGaussianBlur
       stdDeviation=".23999995"
       id="feGaussianBlur68" />
  </filter>
  <filter
     id="v">
    <feGaussianBlur
       stdDeviation="1.114836"
       id="feGaussianBlur71" />
  </filter>
  <linearGradient
     id="w"
     gradientUnits="userSpaceOnUse"
     spreadMethod="reflect"
     x1="63.997028"
     x2="63.997028"
     y1="81.352318"
     y2="14.150011">
    <stop
       offset="0"
       stop-color="#b4b4b4"
       id="stop74" />
    <stop
       offset=".5"
       stop-color="#d1d1d1"
       id="stop76" />
    <stop
       offset="1"
       stop-color="#fafafa"
       id="stop78" />
  </linearGradient>
  <radialGradient
     id="x"
     cx="166.72354"
     cy="31.650595"
     gradientTransform="matrix(.63330532 0 0 .63330609 61.136635 11.60604)"
     gradientUnits="userSpaceOnUse"
     r="60.49995"
     spreadMethod="reflect">
    <stop
       offset="0"
       stop-color="#525252"
       id="stop81" />
    <stop
       offset=".25"
       id="stop83" />
    <stop
       offset=".3137491"
       stop-color="#545454"
       id="stop85" />
    <stop
       offset=".42412069"
       stop-color="#282828"
       id="stop87" />
    <stop
       offset=".72457671"
       id="stop89" />
    <stop
       offset=".80783582"
       stop-color="#8e8e8e"
       id="stop91" />
    <stop
       offset=".875"
       id="stop93" />
    <stop
       offset="1"
       id="stop95" />
  </radialGradient>
  <radialGradient
     id="y"
     cx="66.307831"
     cy="65.130651"
     gradientUnits="userSpaceOnUse"
     r="58.588187"
     xlink:href="#a"
     gradientTransform="matrix(0.12655307,0,0,0.12655307,-0.097126,-0.101426)" />
  <linearGradient
     id="z"
     gradientUnits="userSpaceOnUse"
     x1="62.90738"
     x2="62.991143"
     xlink:href="#a"
     y1="3.091029"
     y2="9.093529" />
  <radialGradient
     id="A"
     cx="54.672985"
     cy="6.849921"
     fx="54.045624"
     fy="6.341433"
     gradientTransform="matrix(1 0 0 1.9019608 0 -6.17836)"
     gradientUnits="userSpaceOnUse"
     r="1.2891">
    <stop
       offset="0"
       stop-color="#fff"
       id="stop100" />
    <stop
       offset=".5"
       stop-color="#fff"
       stop-opacity=".791367"
       id="stop102" />
    <stop
       offset="1"
       stop-color="#fff"
       stop-opacity="0"
       id="stop104" />
  </radialGradient>
  <linearGradient
     id="B"
     gradientUnits="userSpaceOnUse"
     x1="43.713863"
     x2="18.252157"
     xlink:href="#b"
     y1="11.36219"
     y2="21.728621" />
  <linearGradient
     id="C"
     gradientUnits="userSpaceOnUse"
     x1="52.721935"
     x2="38.62756"
     xlink:href="#b"
     y1="17.796528"
     y2="22.658024" />
  <radialGradient
     id="D"
     cx="54.672985"
     cy="6.849921"
     gradientTransform="matrix(1 0 0 1.9019608 0 -6.17836)"
     gradientUnits="userSpaceOnUse"
     r="1.2891">
    <stop
       offset="0"
       stop-color="#474747"
       id="stop109" />
    <stop
       offset="1"
       stop-color="#474747"
       stop-opacity="0"
       id="stop111" />
  </radialGradient>
  <radialGradient
     id="E"
     cx="54.672985"
     cy="6.849921"
     gradientTransform="matrix(1,0,0,1.9019608,0,-6.17836)"
     gradientUnits="userSpaceOnUse"
     r="1.2891"
     xlink:href="#a" />
  <linearGradient
     id="F"
     gradientUnits="userSpaceOnUse"
     x1="114.2963"
     x2="114.2963"
     y1="49.937351"
     y2="61.877388">
    <stop
       offset="0"
       stop-color="#fff"
       stop-opacity="0"
       id="stop115" />
    <stop
       offset=".32512316"
       stop-color="#fff"
       id="stop117" />
    <stop
       offset="1"
       stop-color="#fff"
       stop-opacity="0"
       id="stop119" />
  </linearGradient>
  <linearGradient
     id="G"
     gradientUnits="userSpaceOnUse"
     x1="63.993221"
     x2="63.993221"
     xlink:href="#a"
     y1="80.369598"
     y2="66.131996" />
  <radialGradient
     id="H"
     cx="111.71961"
     cy="98.040695"
     gradientTransform="matrix(1,0,0,1.9647663,0,-94.072811)"
     gradientUnits="userSpaceOnUse"
     r="3.255813"
     xlink:href="#a" />
  <radialGradient
     id="I"
     cx="113.15629"
     cy="97.951111"
     gradientTransform="matrix(1,0,0,1.9270561,0,-90.303049)"
     gradientUnits="userSpaceOnUse"
     r="3.388251"
     xlink:href="#a" />
  <filter
     id="J">
    <feGaussianBlur
       stdDeviation="1.8899412"
       id="feGaussianBlur125" />
  </filter>
  <radialGradient
     id="K"
     cx="64"
     cy="64"
     gradientTransform="matrix(.10053982 -.00138297 .00147849 .10748402 1.472722 1.240924)"
     gradientUnits="userSpaceOnUse"
     r="38.153908">
    <stop
       offset="0"
       stop-color="#9ffbff"
       id="stop128" />
    <stop
       offset=".78157365"
       stop-color="#14b5ff"
       id="stop130" />
    <stop
       offset="1"
       stop-color="#00438a"
       id="stop132" />
  </radialGradient>
  <linearGradient
     id="L"
     gradientUnits="userSpaceOnUse"
     x1="62.881638"
     x2="63.895714"
     xlink:href="#a"
     y1="15.080078"
     y2="60.580078" />
  <radialGradient
     id="M"
     cx="263.74509"
     cy="83.663239"
     gradientUnits="userSpaceOnUse"
     r="55.667721"
     spreadMethod="reflect">
    <stop
       offset="0"
       stop-color="#525252"
       id="stop136" />
    <stop
       offset=".1290234"
       stop-color="#adadad"
       id="stop138" />
    <stop
       offset=".39293489"
       stop-color="#fff"
       id="stop140" />
    <stop
       offset=".61567938"
       stop-color="#282828"
       id="stop142" />
    <stop
       offset=".61567938"
       id="stop144" />
    <stop
       offset=".80783582"
       stop-color="#fff"
       id="stop146" />
    <stop
       offset="1"
       id="stop148" />
  </radialGradient>
  <mask
     id="N"
     maskUnits="userSpaceOnUse">
    <circle
       cx="310.84995"
       cy="108.83997"
       r="55.192307"
       style="opacity:.497908;fill:none;stroke-width:.678871;stroke-linecap:round;stroke-linejoin:round;stroke-dashoffset:1.0878;stroke:url(#M);filter:url(#n)"
       transform="matrix(.56732864 0 0 .56732864 -112.35407 2.25197)"
       id="circle151" />
  </mask>
  <filter
     id="O"
     color-interpolation-filters="sRGB"
     height="1.055201"
     width="1.055199"
     x="-.0276"
     y="-.0276">
    <feGaussianBlur
       stdDeviation=".75083545"
       id="feGaussianBlur154" />
  </filter>
  <path
     style="opacity:0.97489498;fill:#f3b7d9;stroke:#e602b4;stroke-width:0.99999976;stroke-miterlimit:4;stroke-dasharray:none"
     d="M 7.9902296,1.5 C 7.6372654,1.50186 7.4101536,1.517823 7.0598437,1.566456 6.9561329,1.58297 6.8724032,1.65108 6.8724032,1.7556003 L 6.807651,2.7848187 c -0.00953,0.1029822 -0.081697,0.1952168 -0.1584723,0.2198164 -0.00235,7.509e-4 -0.00447,0.00274 -0.00682,0.00342 -0.4438553,0.1191456 -0.8640944,0.2568522 -1.252445,0.4822248 -0.070246,0.030395 -0.1618866,0.02988 -0.2368565,-0.032377 L 4.3879663,2.7831148 c -0.073906,-0.073906 -0.1808116,-0.061656 -0.2658246,0 C 3.8400476,2.996433 3.6658812,3.1448811 3.4149802,3.393148 3.1667146,3.6440488 3.0182651,3.8182138 2.8049471,4.1003093 c -0.061656,0.085012 -0.073906,0.1919187 0,0.2658247 l 0.6730813,0.7650975 c 0.051072,0.061505 0.079954,0.1416991 0.051121,0.1993684 l -0.00682,0.013633 C 3.2802312,5.7538791 3.0920782,6.19984 2.970234,6.6716509 c -0.00126,0.00222 -0.00207,0.00462 -0.00342,0.00682 -0.034198,0.055295 -0.092499,0.099978 -0.1721035,0.1073544 l -1.0172867,0.064755 c -0.1045183,0 -0.1726286,0.083729 -0.1891444,0.1874404 -0.048633,0.3503105 -0.064593,0.5774213 -0.066456,0.9303858 0.00185,0.3529646 0.017825,0.5800757 0.066456,0.9303859 0.016516,0.1037104 0.084627,0.1891445 0.1891444,0.1891445 l 1.01729,0.063047 c 0.093512,0.00867 0.1560542,0.069598 0.1857365,0.1380243 0.1189425,0.4467087 0.297482,0.870324 0.524833,1.260962 0.040206,0.07206 0.040835,0.173594 -0.027265,0.255599 l -0.6730749,0.765095 c -0.073906,0.07391 -0.061656,0.180812 0,0.265825 0.2133182,0.282095 0.3617678,0.456259 0.6100332,0.707161 0.2509009,0.248268 0.4250663,0.396714 0.7071615,0.610034 0.085013,0.06166 0.1919188,0.07391 0.2658246,0 l 0.7650975,-0.67308 c 0.082006,-0.06811 0.1835263,-0.06747 0.2556005,-0.02726 l 0.010224,-0.01023 c 0.3803286,0.217478 0.7905443,0.388164 1.2234746,0.504385 v 0.01704 c 0.079394,0.02254 0.1554537,0.09323 0.1652884,0.199369 l 0.064752,1.01729 c 0,0.10452 0.083729,0.172628 0.1874404,0.189145 0.3503098,0.04862 0.5774215,0.0646 0.9303859,0.06646 0.3529643,-0.0018 0.5800757,-0.01782 0.9303858,-0.06646 0.1037109,-0.01651 0.1874403,-0.08463 0.1874403,-0.189145 l 0.064753,-1.017284 c 0.00984,-0.10614 0.085896,-0.176834 0.1652884,-0.199369 v -0.01704 C 9.771025,12.83128 10.181243,12.660593 10.56157,12.443115 l 0.01023,0.01023 c 0.07206,-0.0402 0.173593,-0.04084 0.255599,0.02726 l 0.765096,0.673078 c 0.07391,0.07391 0.180813,0.06166 0.265824,0 0.282095,-0.213319 0.456259,-0.361765 0.707162,-0.610032 0.248267,-0.250902 0.396716,-0.425066 0.610034,-0.707162 0.06166,-0.085 0.07391,-0.191918 0,-0.265825 L 12.50073,10.805566 c -0.0681,-0.082 -0.06578,-0.183527 -0.02556,-0.2556 C 12.702519,10.159326 12.881055,9.7357112 13,9.2890031 13.02969,9.2205761 13.09222,9.1596435 13.185736,9.1509788 l 1.01729,-0.063047 c 0.104524,0 0.172632,-0.085433 0.189145,-0.1891446 0.04862,-0.3503101 0.06459,-0.5774212 0.06646,-0.9303858 C 14.456831,7.6154369 14.440811,7.388326 14.392171,7.0380156 14.37566,6.9343047 14.30755,6.8505752 14.203027,6.8505752 l -1.01729,-0.064752 c -0.0796,-0.00737 -0.137904,-0.052062 -0.172104,-0.1073521 -6.64e-4,-0.00236 -0.0027,-0.00447 -0.0034,-0.00682 -0.121809,-0.4718093 -0.339296,-0.901812 -0.552097,-1.3274144 l -0.0069,-0.013633 c -0.02884,-0.05767 -0.0015,-0.1378633 0.04941,-0.1993685 l 0.674785,-0.7650975 c 0.07391,-0.073906 0.06166,-0.1808118 0,-0.2658247 C 12.962199,3.8182137 12.813766,3.6440484 12.565499,3.3931476 12.3146,3.1448807 12.140432,2.9964327 11.858338,2.7831144 c -0.08501,-0.061656 -0.191919,-0.073907 -0.265825,0 l -0.765098,0.6747853 c -0.07497,0.062256 -0.16661,0.062772 -0.236856,0.032377 C 10.202189,3.2649039 9.7819462,3.091411 9.3380963,2.9722591 c -0.00236,-6.844e-4 -0.00446,-0.00265 -0.00682,-0.00342 C 9.2545023,2.9442494 9.1823506,2.8758728 9.172808,2.7728909 L 9.1080559,1.7556006 c 0,-0.1045195 -0.083729,-0.1726296 -0.1874404,-0.1891444 C 8.5703056,1.5178239 8.3431939,1.5018632 7.9902296,1.5 Z m 0,2.9785982 A 3.489799,3.489799 0 0 1 11.480029,7.9683973 3.489799,3.489799 0 0 1 7.9902296,11.458196 3.489799,3.489799 0 0 1 4.5004304,7.9683973 3.489799,3.489799 0 0 1 7.9902296,4.4785982 Z"
     id="path173"
     inkscape:connector-curvature="0" />
</svg>
