<?xml version="1.0" encoding="UTF-8" standalone="no"?>
<svg
   xmlns:dc="http://purl.org/dc/elements/1.1/"
   xmlns:cc="http://creativecommons.org/ns#"
   xmlns:rdf="http://www.w3.org/1999/02/22-rdf-syntax-ns#"
   xmlns:svg="http://www.w3.org/2000/svg"
   xmlns="http://www.w3.org/2000/svg"
   xmlns:xlink="http://www.w3.org/1999/xlink"
   xmlns:sodipodi="http://sodipodi.sourceforge.net/DTD/sodipodi-0.dtd"
   xmlns:inkscape="http://www.inkscape.org/namespaces/inkscape"
   height="16"
   width="16"
   version="1.1"
   id="svg188"
   sodipodi:docname="sc_saveacopy.svg"
   inkscape:version="0.92.4 (unknown)"
   inkscape:export-filename="/home/annisaauliarasyidah/Desktop/4_242 (aulia)/revisi/sc svg/sc_saveacopy.png"
   inkscape:export-xdpi="96"
   inkscape:export-ydpi="96">
  <metadata
     id="metadata194">
    <rdf:RDF>
      <cc:Work
         rdf:about="">
        <dc:format>image/svg+xml</dc:format>
        <dc:type
           rdf:resource="http://purl.org/dc/dcmitype/StillImage" />
      </cc:Work>
    </rdf:RDF>
  </metadata>
  <defs
     id="defs192">
    <filter
       id="u-3">
      <feGaussianBlur
         stdDeviation=".0231875"
         id="feGaussianBlur110" />
    </filter>
    <radialGradient
       id="d-7"
       cx="102"
       cy="112.3047"
       gradientUnits="userSpaceOnUse"
       r="139.5585"
       gradientTransform="matrix(0.125,0,0,0.125,-0.90377546,-0.90377489)">
      <stop
         offset="0"
         stop-color="#00537d"
         id="stop13" />
      <stop
         offset=".0151"
         stop-color="#186389"
         id="stop15" />
      <stop
         offset=".0558"
         stop-color="#558ca8"
         id="stop17" />
      <stop
         offset=".0964"
         stop-color="#89afc3"
         id="stop19" />
      <stop
         offset=".1357"
         stop-color="#b3ccd8"
         id="stop21-5" />
      <stop
         offset=".1737"
         stop-color="#d4e2e9"
         id="stop23-3" />
      <stop
         offset=".2099"
         stop-color="#ecf2f5"
         id="stop25-5" />
      <stop
         offset=".2435"
         stop-color="#fafcfd"
         id="stop27-6" />
      <stop
         offset=".2722"
         stop-color="#fff"
         id="stop29" />
    </radialGradient>
    <clipPath
       clipPathUnits="userSpaceOnUse"
       id="clipPath896">
      <path
         style="fill:#f3b7d9;fill-opacity:1;stroke:none;stroke-width:1px;stroke-linecap:butt;stroke-linejoin:miter;stroke-opacity:1"
         d="m 4.5,1.5 -3,3 v 10 H 15 v -13 z"
         id="path898"
         inkscape:connector-curvature="0" />
    </clipPath>
    <clipPath
       clipPathUnits="userSpaceOnUse"
       id="clipPath911">
      <g
         transform="matrix(1.1847004,0,0,0.91839918,-1.6475178,8.6123299)"
         style="fill:#9d3a9b;stroke:none;stroke-width:0.95869386"
         id="g915">
        <rect
           style="opacity:1;fill:#9d3a9b;fill-opacity:1;fill-rule:evenodd;stroke:none;stroke-width:0.23967347;stroke-linecap:round;stroke-linejoin:round;stroke-miterlimit:4;stroke-dasharray:none;stroke-opacity:1;paint-order:markers fill stroke"
           id="rect913"
           width="11.737074"
           height="11.771093"
           x="2.1432917"
           y="2.1196351"
           rx="1.5872076"
           ry="2.0474374"
           clip-path="url(#clipPath896)" />
      </g>
    </clipPath>
    <clipPath
       clipPathUnits="userSpaceOnUse"
       id="clipPath905">
      <g
         transform="matrix(1.1847004,0,0,0.91839918,-1.6475178,8.6123299)"
         style="fill:#9d3a9b;stroke:none;stroke-width:0.95869386"
         id="g909">
        <rect
           style="opacity:1;fill:#9d3a9b;fill-opacity:1;fill-rule:evenodd;stroke:none;stroke-width:0.23967347;stroke-linecap:round;stroke-linejoin:round;stroke-miterlimit:4;stroke-dasharray:none;stroke-opacity:1;paint-order:markers fill stroke"
           id="rect907"
           width="11.737074"
           height="11.771093"
           x="2.1432917"
           y="2.1196351"
           rx="1.5872076"
           ry="2.0474374"
           clip-path="url(#clipPath896)" />
      </g>
    </clipPath>
  </defs>
  <sodipodi:namedview
     pagecolor="#ffffff"
     bordercolor="#666666"
     borderopacity="1"
     objecttolerance="10"
     gridtolerance="10"
     guidetolerance="10"
     inkscape:pageopacity="0"
     inkscape:pageshadow="2"
     inkscape:window-width="1366"
     inkscape:window-height="707"
     id="namedview190"
     showgrid="true"
     inkscape:zoom="20.784725"
     inkscape:cx="-1.9812246"
     inkscape:cy="5.7518887"
     inkscape:window-x="0"
     inkscape:window-y="0"
     inkscape:window-maximized="1"
     inkscape:current-layer="svg188"
     inkscape:snap-global="false">
    <inkscape:grid
       type="xygrid"
       id="grid1054" />
  </sodipodi:namedview>
  <linearGradient
     id="a">
    <stop
       offset="0"
       id="stop2" />
    <stop
       offset="1"
       stop-opacity="0"
       id="stop4" />
  </linearGradient>
  <linearGradient
     id="b">
    <stop
       offset="0"
       stop-color="#fff"
       id="stop7" />
    <stop
       offset="1"
       stop-color="#fff"
       stop-opacity="0"
       id="stop9" />
  </linearGradient>
  <linearGradient
     id="c"
     gradientTransform="matrix(2.5599786 0 0 2.5618328 317.24891 -4847.794)"
     gradientUnits="userSpaceOnUse"
     x1="-97.742668"
     x2="-97.742668"
     y1="1937.9885"
     y2="1895.421">
    <stop
       offset="0"
       stop-color="#141313"
       id="stop12" />
    <stop
       offset=".33497536"
       stop-color="#2b292a"
       id="stop14" />
    <stop
       offset=".63281107"
       stop-color="#3f3e3e"
       id="stop16" />
    <stop
       offset="1"
       stop-color="#6b696a"
       id="stop18" />
  </linearGradient>
  <radialGradient
     id="d"
     cx="100.16534"
     cy="37.468983"
     gradientTransform="matrix(4.8110826 .00000075 -.00000031 1.9257147 -441.90372 -88.154647)"
     gradientUnits="userSpaceOnUse"
     r="38">
    <stop
       offset="0"
       stop-color="#d0ced9"
       id="stop21" />
    <stop
       offset=".25"
       stop-color="#ecf1f9"
       id="stop23" />
    <stop
       offset=".5"
       stop-color="#fff"
       id="stop25" />
    <stop
       offset="1"
       stop-color="#c6d5e3"
       id="stop27" />
  </radialGradient>
  <filter
     id="e"
     height="1.240511"
     width="1.138013"
     x="-.069006"
     y="-.120256">
    <feGaussianBlur
       stdDeviation="1.9228365"
       id="feGaussianBlur30" />
  </filter>
  <radialGradient
     id="f"
     cx="84"
     cy="91.983192"
     gradientTransform="matrix(1 0 0 .6210279 0 37.87587)"
     gradientUnits="userSpaceOnUse"
     r="32"
     xlink:href="#b" />
  <linearGradient
     id="g"
     gradientUnits="userSpaceOnUse"
     x1="47.608696"
     x2="47.608696"
     xlink:href="#a"
     y1="104.35009"
     y2="176.35008" />
  <linearGradient
     id="h"
     gradientUnits="userSpaceOnUse"
     x1="89.604726"
     x2="114.175"
     xlink:href="#b"
     y1="42.336197"
     y2="106.7981" />
  <filter
     id="i">
    <feGaussianBlur
       stdDeviation=".0231875"
       id="feGaussianBlur36" />
  </filter>
  <clipPath
     id="j">
    <path
       d="m18.189713 132.42089c-1.419208 0-2.5625 1.1433-2.5625 2.5625v37.18328h72.000002v-37.18328c0-1.4192-1.14329-2.5625-2.5625-2.5625z"
       id="path39" />
  </clipPath>
  <linearGradient
     id="k"
     gradientTransform="matrix(1 0 0 .9968924 0 -.225228)"
     gradientUnits="userSpaceOnUse"
     x1="52"
     x2="52"
     y1="112"
     y2="80">
    <stop
       offset="0"
       stop-color="#8a8a8a"
       id="stop42" />
    <stop
       offset="1"
       stop-color="#c6c6c6"
       id="stop44" />
  </linearGradient>
  <filter
     id="l"
     height="1.185769"
     width="1.247692"
     x="-.123846"
     y="-.092885">
    <feGaussianBlur
       stdDeviation="1.2384615"
       id="feGaussianBlur47" />
  </filter>
  <linearGradient
     id="m"
     gradientUnits="userSpaceOnUse"
     x1="68"
     x2="36"
     xlink:href="#a"
     y1="120"
     y2="84" />
  <linearGradient
     id="n"
     gradientUnits="userSpaceOnUse"
     x1="87.693916"
     x2="91.051781"
     xlink:href="#a"
     y1="100.83184"
     y2="100.83184" />
  <filter
     id="o"
     height="1.045223"
     width="1.50979"
     x="-.254895"
     y="-.022612">
    <feGaussianBlur
       stdDeviation=".35662617"
       id="feGaussianBlur52" />
  </filter>
  <filter
     id="p"
     height="1.203077"
     width="1.293333"
     x="-.146667"
     y="-.101538">
    <feGaussianBlur
       stdDeviation=".55"
       id="feGaussianBlur55" />
  </filter>
  <clipPath
     id="q">
    <rect
       height="12"
       rx="1.079258"
       width="8"
       x="12"
       y="12"
       id="rect58" />
  </clipPath>
  <clipPath
     id="r">
    <rect
       height="12"
       rx="1.079258"
       width="8"
       x="12"
       y="12"
       id="rect61" />
  </clipPath>
  <filter
     id="s">
    <feGaussianBlur
       stdDeviation=".04177847"
       id="feGaussianBlur64" />
  </filter>
  <radialGradient
     id="t"
     cx="16"
     cy="18"
     gradientTransform="matrix(1 0 0 1.5 0 -9)"
     gradientUnits="userSpaceOnUse"
     r="4">
    <stop
       offset="0"
       stop-color="#7a7a7a"
       id="stop67" />
    <stop
       offset="1"
       stop-opacity=".490909"
       id="stop69" />
  </radialGradient>
  <linearGradient
     id="u"
     gradientUnits="userSpaceOnUse"
     x1="16"
     x2="16"
     xlink:href="#a"
     y1="1.595278"
     y2="18.75548" />
  <radialGradient
     id="v"
     cx="16.03512"
     cy="19.49425"
     fy="18.539073"
     gradientUnits="userSpaceOnUse"
     r="2.378519">
    <stop
       offset="0"
       stop-color="#868385"
       id="stop73" />
    <stop
       offset="1"
       stop-color="#4a4949"
       id="stop75" />
  </radialGradient>
  <linearGradient
     id="w"
     gradientUnits="userSpaceOnUse"
     x1="13.731525"
     x2="13.731525"
     y1="17.127984"
     y2="19.868869">
    <stop
       offset="0"
       stop-color="#fff"
       id="stop78" />
    <stop
       offset="1"
       id="stop80" />
  </linearGradient>
  <filter
     id="x">
    <feGaussianBlur
       stdDeviation="2.028"
       id="feGaussianBlur83" />
  </filter>
  <filter
     id="y">
    <feGaussianBlur
       stdDeviation="2.7153804"
       id="feGaussianBlur86" />
  </filter>
  <linearGradient
     id="z"
     gradientTransform="matrix(.94173025 0 0 .94148681 3.516276 3.145731)"
     gradientUnits="userSpaceOnUse"
     x1="47.236164"
     x2="72"
     y1="22.150356"
     y2="116.40091">
    <stop
       offset="0"
       stop-color="#eeecec"
       id="stop89" />
    <stop
       offset=".40000001"
       stop-color="#f4f4f4"
       id="stop91" />
    <stop
       offset="1"
       stop-color="#f6f5f5"
       id="stop93" />
  </linearGradient>
  <radialGradient
     id="A"
     cx="68.138977"
     cy="89.42041"
     fx="67.932365"
     fy="72.691223"
     gradientTransform="matrix(1.5860719 -.07936281 .06485072 1.2953772 -41.872296 -14.425457)"
     gradientUnits="userSpaceOnUse"
     r="47.5"
     xlink:href="#b" />
  <clipPath
     id="B">
    <path
       d="m17.000001 8 .782827 110h57.5c1.675283 0 3.119418.18058 4.9-1.6 8.797935-8.79794 21.481402-23.383226 28.739972-30.707378 2.44056-2.462612 2.80096-4.47117 2.80096-6.724043l-1.72376-70.968579z"
       id="path97" />
  </clipPath>
  <filter
     id="C"
     color-interpolation-filters="sRGB"
     height="2.025501"
     width="1.957419"
     x="-.478709"
     y="-.512751">
    <feGaussianBlur
       stdDeviation="10.140743"
       id="feGaussianBlur100" />
  </filter>
  <filter
     id="D"
     height="1.2101"
     width="1.169467"
     x="-.084733"
     y="-.10505">
    <feGaussianBlur
       stdDeviation="2.1734796"
       id="feGaussianBlur103" />
  </filter>
  <linearGradient
     id="E"
     gradientTransform="matrix(1.3344708 0 0 1.3640502 -37.238647 -42.998247)"
     gradientUnits="userSpaceOnUse"
     x1="82.15696"
     x2="94.220871"
     y1="90.381706"
     y2="102.18401">
    <stop
       offset="0"
       stop-color="#fcfcfc"
       id="stop106" />
    <stop
       offset=".52275378"
       stop-color="#f8f8f8"
       id="stop108" />
    <stop
       offset=".72337759"
       stop-color="#f0efef"
       id="stop110" />
    <stop
       offset=".89024991"
       stop-color="#e3e1e1"
       id="stop112" />
    <stop
       offset="1"
       stop-color="#cecbcb"
       id="stop114" />
  </linearGradient>
  <radialGradient
     id="F"
     cx="90.750004"
     cy="110.252967"
     gradientUnits="userSpaceOnUse"
     r="24.501278"
     xlink:href="#b" />
  <clipPath
     id="G">
    <path
       d="m112 82.502986c0 4.465301-2.79749 6.409952-5.27972 8.093625-5.10854 3.46508-14.939114 3.32536-20.720284 3.40638-.081 5.781159.16586 15.504599-3.29922 20.613139-1.68367 2.48224-5.29051 5.38687-8.20078 5.38687 2.31803 0 4.74284-1.33476 7.58402-4.08481 9.14197-8.84873 17.36714-16.13535 25.673154-25.297529 1.91895-2.116745 4.24283-3.641881 4.24283-8.117675z"
       id="path118" />
  </clipPath>
  <filter
     id="H"
     color-interpolation-filters="sRGB">
    <feGaussianBlur
       stdDeviation=".43040059"
       id="feGaussianBlur121" />
  </filter>
  <g
     id="g928"
     transform="matrix(0.99600873,0,0,0.98529444,0.27303853,-3.5823851)"
     style="stroke-width:1.00945139">
    <rect
       style="opacity:1;fill:#f0e3ec;fill-opacity:1;fill-rule:evenodd;stroke:#e602b4;stroke-width:1.00945127;stroke-linecap:round;stroke-linejoin:round;stroke-miterlimit:4;stroke-dasharray:none;stroke-opacity:1;paint-order:markers fill stroke"
       id="rect909"
       width="12.046926"
       height="13.086824"
       x="1.2569246"
       y="5.1700044"
       rx="1.0040067"
       ry="1.0149248" />
    <path
       style="fill:#9d3a9b;fill-opacity:1;stroke:#9d3a9b;stroke-width:0.25236282;stroke-miterlimit:4;stroke-dasharray:none;stroke-opacity:1"
       id="path911"
       d="m 3.6727922,8.0030116 c 0.036741,-0.4173993 0.3233603,-0.7202544 0.6819962,-0.7202544 0.2389369,0 0.4577034,0.1325313 0.5807967,0.3450623 0.1219916,-0.2151743 0.3317895,-0.3450623 0.5668927,-0.3450623 0.3585875,0 0.6452114,0.3028583 0.6819476,0.7202544 0.00298,0.018392 0.014824,0.115505 -0.021472,0.2737639 -0.052289,0.2282797 -0.1729168,0.435859 -0.3488802,0.6002786 L 4.9361399,9.6984528 4.0431301,8.8770997 C 3.8671543,8.7126812 3.7464794,8.5051061 3.6942381,8.2768221 3.6579598,8.1186405 3.6699117,8.0216006 3.6727632,8.0031376 Z m 0.1158201,0.2508195 c 0.047675,0.2084596 0.1582401,0.3983737 0.3193834,0.5488838 L 4.9355778,9.5639752 5.7489596,8.8029565 C 5.9103973,8.6521264 6.020893,8.4622918 6.0686283,8.2538331 6.1029608,8.1041251 6.0888366,8.0194753 6.0887851,8.0189192 l -7.798e-4,-0.00499 C 6.0565001,7.6482605 5.81029,7.3827307 5.5024459,7.3827307 c -0.2271578,0 -0.4271263,0.1438727 -0.5220163,0.3755108 L 4.935792,7.8673348 4.8911544,7.7582415 C 4.7978128,7.5301991 4.5872633,7.3828069 4.3547369,7.3828069 c -0.3078029,0 -0.5540943,0.2654526 -0.586227,0.6359279 -9.57e-5,7.977e-4 -0.014145,0.085455 0.020137,0.2351567 z"
       inkscape:connector-curvature="0" />
    <path
       inkscape:connector-curvature="0"
       id="path913"
       d="M 3.7931194,10.778644 H 11.133452"
       style="fill:none;stroke:#e602b4;stroke-width:1.00945127;stroke-linecap:round;stroke-linejoin:miter;stroke-miterlimit:4;stroke-dasharray:none;stroke-opacity:1" />
    <path
       style="fill:none;stroke:#e602b4;stroke-width:1.00945127;stroke-linecap:round;stroke-linejoin:miter;stroke-miterlimit:4;stroke-dasharray:none;stroke-opacity:1"
       d="M 3.7931194,12.64819 H 11.133453"
       id="path915"
       inkscape:connector-curvature="0" />
    <path
       inkscape:connector-curvature="0"
       id="path917"
       d="M 3.7931194,14.517737 H 11.133453"
       style="fill:none;stroke:#e602b4;stroke-width:1.00945127;stroke-linecap:round;stroke-linejoin:miter;stroke-miterlimit:4;stroke-dasharray:none;stroke-opacity:1" />
  </g>
  <g
     transform="matrix(1.1182444,0,0,1.0889486,3.9904424,-9.3194897)"
     style="stroke-width:0.45310408;stroke-miterlimit:4;stroke-dasharray:none"
     id="g917">
    <rect
       transform="matrix(0.64450509,0,0,0.65296046,0.67471179,12.951929)"
       style="opacity:1;fill:#f3b7d9;fill-opacity:1;fill-rule:evenodd;stroke:#e602b4;stroke-width:0.69845968;stroke-linecap:round;stroke-linejoin:round;stroke-miterlimit:4;stroke-dasharray:none;stroke-opacity:1;paint-order:markers fill stroke"
       id="rect892"
       width="11.737074"
       height="11.771093"
       x="2.1432917"
       y="2.1196351"
       rx="1.5705454"
       ry="1.4962196"
       clip-path="url(#clipPath896)" />
    <path
       style="fill:none;stroke:#e602b4;stroke-width:0.45310408;stroke-linecap:butt;stroke-linejoin:bevel;stroke-miterlimit:4;stroke-dasharray:none;stroke-opacity:1"
       d="M 2.1447916,15.813021 3.6377286,14.25895"
       id="path900"
       inkscape:connector-curvature="0"
       sodipodi:nodetypes="cc" />
    <rect
       transform="matrix(0.60913523,0,0,0.6595816,1.094871,7.6577941)"
       clip-path="url(#clipPath911)"
       style="opacity:1;fill:#f0e3ec;fill-opacity:1;fill-rule:evenodd;stroke:#e602b4;stroke-width:0.71483666;stroke-linecap:butt;stroke-linejoin:bevel;stroke-miterlimit:4;stroke-dasharray:none;stroke-opacity:1;paint-order:markers fill stroke"
       id="rect912"
       width="4.1395307"
       height="3.4296572"
       x="6.3088732"
       y="9.3610325"
       rx="0.71530622"
       ry="0.52714497" />
    <rect
       transform="matrix(0.67180624,0,0,0.68195964,0.39131896,7.1686373)"
       clip-path="url(#clipPath905)"
       ry="1.1577199"
       rx="0.87272912"
       y="15.746533"
       x="4.6417227"
       height="7.0217319"
       width="6.9705358"
       id="rect914"
       style="opacity:1;fill:#f0e3ec;fill-opacity:1;fill-rule:evenodd;stroke:#e602b4;stroke-width:0.66941679;stroke-linecap:butt;stroke-linejoin:bevel;stroke-miterlimit:4;stroke-dasharray:none;stroke-opacity:1;paint-order:markers fill stroke" />
    <path
       inkscape:connector-curvature="0"
       d="m 4.1957581,18.892916 c 0.01566,-0.163888 0.1377716,-0.282801 0.2905755,-0.282801 0.1018027,0 0.1950115,0.05203 0.2474579,0.135485 0.051976,-0.08449 0.1413643,-0.135485 0.2415332,-0.135485 0.1527825,0 0.2749033,0.118914 0.2905558,0.282801 0.00123,0.0072 0.0063,0.04535 -0.00915,0.107491 -0.022273,0.08963 -0.073673,0.171135 -0.1486455,0.235693 L 4.7340283,19.558613 4.3535466,19.236118 c -0.074978,-0.06456 -0.1263935,-0.14606 -0.148651,-0.235693 -0.015458,-0.06211 -0.01036,-0.100211 -0.00915,-0.10746 z m 0.049351,0.09848 c 0.020315,0.08185 0.06742,0.156417 0.1360785,0.215513 L 4.733793,19.50581 5.0803473,19.207004 c 0.06878,-0.05922 0.1158625,-0.133758 0.1362001,-0.215608 0.01463,-0.05878 0.00861,-0.09202 0.00859,-0.09224 l -3.093e-4,-0.0019 c -0.013428,-0.143593 -0.118337,-0.247851 -0.2494989,-0.247851 -0.096785,0 -0.1819827,0.05649 -0.2224136,0.147441 l -0.019015,0.04284 -0.019016,-0.04284 c -0.039791,-0.08954 -0.1294941,-0.14741 -0.2285656,-0.14741 -0.131145,0 -0.2360809,0.104227 -0.2497718,0.249691 -4.13e-5,3.14e-4 -0.00605,0.03355 0.00858,0.09233 z"
       id="path2"
       style="fill:#9d3a9b;fill-opacity:1;stroke:#9d3a9b;stroke-width:0.22655202;stroke-linecap:round;stroke-linejoin:round;stroke-miterlimit:4;stroke-dasharray:none;stroke-opacity:1" />
    <path
       style="fill:#e602b4;stroke:#e602b4;stroke-width:0.45310408;stroke-linecap:round;stroke-linejoin:miter;stroke-miterlimit:4;stroke-dasharray:none;stroke-opacity:1"
       d="M 4.2428017,19.949157 H 7.4746941"
       id="path939"
       inkscape:connector-curvature="0" />
    <path
       style="fill:#e602b4;stroke:#e602b4;stroke-width:0.45310408;stroke-linecap:round;stroke-linejoin:miter;stroke-miterlimit:4;stroke-dasharray:none;stroke-opacity:1"
       d="M 4.2300955,21.133243 H 7.4619879"
       id="path943"
       inkscape:connector-curvature="0" />
    <rect
       style="opacity:1;fill:#f3b7d9;fill-opacity:1;fill-rule:evenodd;stroke:#e602b4;stroke-width:0.45310408;stroke-linecap:round;stroke-linejoin:bevel;stroke-miterlimit:4;stroke-dasharray:none;stroke-opacity:1;paint-order:markers fill stroke"
       id="rect945"
       width="0.24814543"
       height="0.39013097"
       x="5.5902305"
       y="14.88612"
       rx="0.18253884"
       ry="0.21869121" />
  </g>
</svg>
