<?xml version="1.0" encoding="UTF-8" standalone="no"?>
<svg
   xmlns:dc="http://purl.org/dc/elements/1.1/"
   xmlns:cc="http://creativecommons.org/ns#"
   xmlns:rdf="http://www.w3.org/1999/02/22-rdf-syntax-ns#"
   xmlns:svg="http://www.w3.org/2000/svg"
   xmlns="http://www.w3.org/2000/svg"
   xmlns:sodipodi="http://sodipodi.sourceforge.net/DTD/sodipodi-0.dtd"
   xmlns:inkscape="http://www.inkscape.org/namespaces/inkscape"
   height="16"
   width="16"
   version="1.1"
   id="svg46"
   sodipodi:docname="sc_wrapcontour.svg"
   inkscape:version="0.92.4 (5da689c313, 2019-01-14)"
   inkscape:export-filename="/home/ing/Documents/PROJECT SRIKANDI/3_272 (mba alita)/REVISI_SC/sc_wrapcontour.png"
   inkscape:export-xdpi="96"
   inkscape:export-ydpi="96">
  <metadata
     id="metadata52">
    <rdf:RDF>
      <cc:Work
         rdf:about="">
        <dc:format>image/svg+xml</dc:format>
        <dc:type
           rdf:resource="http://purl.org/dc/dcmitype/StillImage" />
        <dc:title />
      </cc:Work>
    </rdf:RDF>
  </metadata>
  <defs
     id="defs50" />
  <sodipodi:namedview
     pagecolor="#ffffff"
     bordercolor="#666666"
     borderopacity="1"
     objecttolerance="10"
     gridtolerance="10"
     guidetolerance="10"
     inkscape:pageopacity="0"
     inkscape:pageshadow="2"
     inkscape:window-width="1600"
     inkscape:window-height="836"
     id="namedview48"
     showgrid="true"
     showguides="false"
     inkscape:guide-bbox="true"
     inkscape:zoom="32"
     inkscape:cx="9.1423527"
     inkscape:cy="5.1427584"
     inkscape:window-x="0"
     inkscape:window-y="27"
     inkscape:window-maximized="1"
     inkscape:current-layer="svg46"
     inkscape:snap-nodes="true">
    <sodipodi:guide
       position="1.9960938,13.664062"
       orientation="1,0"
       id="guide914"
       inkscape:locked="false" />
    <inkscape:grid
       type="xygrid"
       id="grid916"
       spacingx="0.5"
       spacingy="0.5"
       empspacing="2" />
  </sodipodi:namedview>
  <filter
     id="a">
    <feGaussianBlur
       stdDeviation="2.0786429"
       id="feGaussianBlur2" />
  </filter>
  <radialGradient
     id="b"
     cx="108"
     cy="128.54001"
     gradientTransform="matrix(0.125,0,0,0.12495816,-0.24999975,1.500377)"
     gradientUnits="userSpaceOnUse"
     r="139.55859">
    <stop
       offset="0"
       stop-color="#b7b8b9"
       id="stop5" />
    <stop
       offset=".18851049"
       stop-color="#ececec"
       id="stop7" />
    <stop
       offset=".25718147"
       stop-color="#fafafa"
       id="stop9" />
    <stop
       offset=".30111277"
       stop-color="#fff"
       id="stop11" />
    <stop
       offset=".5313"
       stop-color="#fafafa"
       id="stop13" />
    <stop
       offset=".8449"
       stop-color="#ebecec"
       id="stop15" />
    <stop
       offset="1"
       stop-color="#e1e2e3"
       id="stop17" />
  </radialGradient>
  <path
     style="fill:#f3b7d9;stroke:#e602b4;stroke-width:1;stroke-miterlimit:4;stroke-dasharray:none"
     inkscape:connector-curvature="0"
     id="path22-3"
     d="M 1,2.9964261 V 13.016949 C 1,14.5 1.5,15 3.016949,15 h 9.949153 C 14.5,15 15,14.5 15,13 V 3.008411 C 15,1.5 14.5,1 13,1 H 2.960261 C 1.5,1 1,1.5 1,2.9964261 Z"
     sodipodi:nodetypes="ccccccccc" />
  <path
     style="fill:#f0e3ec;fill-opacity:1;stroke-width:0.125"
     inkscape:connector-curvature="0"
     id="path24-6"
     d="M 2.125,2 C 2.05613,2 2,2.056148 2,2.125 V 14 H 13.84375 C 13.989021,14.0044 14,13.799986 14,13.769531 V 2.125 C 14,2.056148 13.944,2 13.875,2 Z" />
  <path
     style="fill:#e602b4;stroke:#9d3a9b;stroke-width:0.99999994;stroke-linecap:round;stroke-linejoin:miter;stroke-miterlimit:4;stroke-dasharray:none;stroke-opacity:1"
     d="M 3,3 H 13"
     id="path835"
     inkscape:connector-curvature="0" />
  <path
     inkscape:connector-curvature="0"
     id="path837"
     d="M 3,13 H 13"
     style="fill:#e602b4;stroke:#9d3a9b;stroke-width:0.99999994;stroke-linecap:round;stroke-linejoin:miter;stroke-miterlimit:4;stroke-dasharray:none;stroke-opacity:1" />
  <path
     inkscape:connector-curvature="0"
     id="path860"
     d="m 3,5 h 2.53125 m 4.953125,0 H 13"
     style="fill:#e602b4;stroke:#9d3a9b;stroke-width:0.99999994;stroke-linecap:round;stroke-linejoin:miter;stroke-miterlimit:4;stroke-dasharray:none;stroke-opacity:1"
     sodipodi:nodetypes="cccc" />
  <path
     style="fill:#e602b4;stroke:#9d3a9b;stroke-width:0.99999994;stroke-linecap:round;stroke-linejoin:miter;stroke-miterlimit:4;stroke-dasharray:none;stroke-opacity:1"
     d="M 2.8671875,7 V 7 M 12.796875,7 H 13"
     id="path862"
     inkscape:connector-curvature="0"
     sodipodi:nodetypes="cccc" />
  <path
     inkscape:connector-curvature="0"
     id="path864"
     d="m 3,9 v 0 m 9.739038,0 H 13"
     style="fill:#e602b4;stroke:#9d3a9b;stroke-width:0.99999994;stroke-linecap:round;stroke-linejoin:miter;stroke-miterlimit:4;stroke-dasharray:none;stroke-opacity:1"
     sodipodi:nodetypes="cccc" />
  <path
     style="fill:#e602b4;stroke:#9d3a9b;stroke-width:0.99999994;stroke-linecap:round;stroke-linejoin:miter;stroke-miterlimit:4;stroke-dasharray:none;stroke-opacity:1"
     d="m 3,11 h 0.5 m 8.178311,0 H 13"
     id="path866"
     inkscape:connector-curvature="0"
     sodipodi:nodetypes="cccc" />
  <g
     id="g858"
     transform="translate(0,0.2890847)">
    <path
       sodipodi:nodetypes="zczczczczcz"
       inkscape:connector-curvature="0"
       id="path889-7"
       d="M 9.7105,11.487989 C 7.985157,12.182671 7.53207,10.10344 7.53207,10.10344 c 0,0 -0.917226,2.256017 -2.433258,0.923187 -1.516033,-1.3328292 0.710242,-2.3998775 0.710242,-2.3998775 0,0 -2.565087,-0.1994228 -1.674348,-1.9174279 0.890738,-1.7180058 2.617385,-0.098656 2.617385,-0.098656 0,0 -0.706884,-2.3285946 1.398455,-2.1082229 2.105339,0.2203717 0.907389,2.3389046 0.907389,2.3389046 0,0 2.17857,-1.1208124 2.538642,0.6144751 C 11.956649,9.1911102 9.539989,9 9.539989,9 c 0,0 1.895855,1.793308 0.170511,2.487989 z"
       inkscape:transform-center-y="-0.24122452"
       inkscape:transform-center-x="-0.127413"
       style="fill:#e602b4;fill-opacity:1;stroke:#e602b4;stroke-width:1;stroke-miterlimit:4;stroke-dasharray:none;stroke-opacity:1" />
    <path
       style="fill:#f3b7d9;fill-opacity:1;stroke:#f3b7d9;stroke-width:1;stroke-miterlimit:4;stroke-dasharray:none;stroke-opacity:1"
       inkscape:transform-center-x="-0.071351346"
       inkscape:transform-center-y="-0.13508561"
       d="M 8.865436,9.9791898 C 7.899244,10.36821 7.645515,9.2038416 7.645515,9.2038416 c 0,0 -0.513646,1.2633694 -1.362624,0.5169844 -0.848979,-0.7463838 0.397735,-1.3439312 0.397735,-1.3439312 0,0 -1.436448,-0.1116768 -0.937635,-1.0737598 0.498814,-0.9620833 1.465736,-0.055247 1.465736,-0.055247 0,0 -0.395855,-1.3040132 0.783135,-1.180605 C 9.170851,6.1906911 8.5,7.3770697 8.5,7.3770697 c 0,0 1.219999,-0.6276551 1.421639,0.3441061 0.201641,0.9717613 -1.151689,0.8647395 -1.151689,0.8647395 0,0 1.061679,1.0042533 0.09549,1.3932745 z"
       id="path836"
       inkscape:connector-curvature="0"
       sodipodi:nodetypes="zczczczczcz" />
    <path
       id="path907-5"
       d="M 8.977253,8.058096 A 1.1865013,1.1865013 0 0 1 7.790752,9.244597 1.1865013,1.1865013 0 0 1 6.604251,8.058096 1.1865013,1.1865013 0 0 1 7.790752,6.8715948 1.1865013,1.1865013 0 0 1 8.977253,8.058096 Z"
       style="fill:#9d3a9b;fill-opacity:1;stroke:none;stroke-width:0.30000001;stroke-miterlimit:4;stroke-dasharray:none;stroke-opacity:1"
       inkscape:connector-curvature="0" />
  </g>
</svg>
