<?xml version="1.0" encoding="UTF-8" standalone="no"?>
<svg
   xmlns:dc="http://purl.org/dc/elements/1.1/"
   xmlns:cc="http://creativecommons.org/ns#"
   xmlns:rdf="http://www.w3.org/1999/02/22-rdf-syntax-ns#"
   xmlns:svg="http://www.w3.org/2000/svg"
   xmlns="http://www.w3.org/2000/svg"
   xmlns:xlink="http://www.w3.org/1999/xlink"
   xmlns:sodipodi="http://sodipodi.sourceforge.net/DTD/sodipodi-0.dtd"
   xmlns:inkscape="http://www.inkscape.org/namespaces/inkscape"
   enable-background="new 0 0 128 128"
   height="16"
   viewBox="0 0 16 16"
   width="16"
   version="1.1"
   id="svg159"
   sodipodi:docname="sc_xlinecolor.svg"
   inkscape:version="0.92.4 (5da689c313, 2019-01-14)"
   inkscape:export-filename="/home/ing/Documents/PROJECT_SRIKANDI/3_272 (mba alita)/REVISI_SC/sc_xlinecolor.png"
   inkscape:export-xdpi="96"
   inkscape:export-ydpi="96">
  <metadata
     id="metadata165">
    <rdf:RDF>
      <cc:Work
         rdf:about="">
        <dc:format>image/svg+xml</dc:format>
        <dc:type
           rdf:resource="http://purl.org/dc/dcmitype/StillImage" />
        <dc:title />
      </cc:Work>
    </rdf:RDF>
  </metadata>
  <defs
     id="defs163" />
  <sodipodi:namedview
     pagecolor="#ffffff"
     bordercolor="#666666"
     borderopacity="1"
     objecttolerance="10"
     gridtolerance="10"
     guidetolerance="10"
     inkscape:pageopacity="0"
     inkscape:pageshadow="2"
     inkscape:window-width="1600"
     inkscape:window-height="836"
     id="namedview161"
     showgrid="true"
     inkscape:zoom="29.5"
     inkscape:cx="0.63789565"
     inkscape:cy="6.1275758"
     inkscape:window-x="0"
     inkscape:window-y="27"
     inkscape:window-maximized="1"
     inkscape:current-layer="svg159">
    <inkscape:grid
       type="xygrid"
       id="grid972"
       spacingx="0.5"
       spacingy="0.5"
       empspacing="2" />
  </sodipodi:namedview>
  <linearGradient
     id="a">
    <stop
       offset="0"
       id="stop2" />
    <stop
       offset="1"
       stop-opacity="0"
       id="stop4" />
  </linearGradient>
  <radialGradient
     id="b"
     cx="65.693123"
     cy="124.27513"
     gradientTransform="matrix(0.13897062,0,0,0.01609397,16.750364,13.124918)"
     gradientUnits="userSpaceOnUse"
     r="57.566139"
     xlink:href="#a" />
  <radialGradient
     id="c"
     cx="49.011971"
     cy="2.674308"
     gradientTransform="matrix(1.568562,0,0,0.290103,-174.115,-81.53982)"
     gradientUnits="userSpaceOnUse"
     r="1.724619">
    <stop
       offset="0"
       stop-color="#fff"
       stop-opacity=".55036"
       id="stop8" />
    <stop
       offset="1"
       stop-opacity="0"
       id="stop10" />
  </radialGradient>
  <linearGradient
     id="d"
     gradientTransform="matrix(1.837915,0,0,1.838421,38.9227,-73.63438)"
     gradientUnits="userSpaceOnUse"
     x1="46.051746"
     x2="46.051746"
     xlink:href="#q"
     y1="3.099999"
     y2="2.395859" />
  <radialGradient
     id="e"
     cx="49.011971"
     cy="2.674308"
     gradientTransform="matrix(1.580908,0,0,0.290103,6.107237,-81.53982)"
     gradientUnits="userSpaceOnUse"
     r="1.724619">
    <stop
       offset="0"
       stop-color="#fff"
       stop-opacity=".55036"
       id="stop14" />
    <stop
       offset="1"
       stop-color="#fff"
       stop-opacity="0"
       id="stop16" />
  </radialGradient>
  <linearGradient
     id="f"
     gradientTransform="matrix(2.370782,0,0,2.384561,-25.79109,-87.0782)"
     gradientUnits="userSpaceOnUse"
     x1="46.051746"
     x2="46.051746"
     xlink:href="#q"
     y1="3.099999"
     y2="2.395859" />
  <linearGradient
     id="g"
     gradientTransform="matrix(1.676097,1.695197,-1.689549,1.682718,43.1284,-80.23005)"
     gradientUnits="userSpaceOnUse"
     x1="48.498562"
     x2="48.732723"
     xlink:href="#p"
     y1=".811505"
     y2="2.365727" />
  <radialGradient
     id="h"
     cx="49.011971"
     cy="2.674308"
     gradientTransform="matrix(2.383905,0,0,0.290103,-26.41162,-81.53982)"
     gradientUnits="userSpaceOnUse"
     r="1.724619">
    <stop
       offset="0"
       stop-color="#fff"
       id="stop21" />
    <stop
       offset="1"
       stop-color="#252525"
       stop-opacity="0"
       id="stop23" />
  </radialGradient>
  <linearGradient
     id="i"
     gradientTransform="matrix(2.383905,0,0,2.384561,-26.41162,-87.0782)"
     gradientUnits="userSpaceOnUse"
     x1="48.914677"
     x2="48.913002"
     y1="2.971903"
     y2="2.55485">
    <stop
       offset="0"
       stop-color="#252525"
       id="stop26" />
    <stop
       offset="1"
       stop-color="#252525"
       stop-opacity="0"
       id="stop28" />
  </linearGradient>
  <radialGradient
     id="j"
     cx="49.009884"
     cy="8.495312"
     fx="47.370888"
     fy="6.77017"
     gradientTransform="matrix(1.676097,1.695197,-0.636537,0.633964,34.18276,-71.32053)"
     gradientUnits="userSpaceOnUse"
     r="3.97504">
    <stop
       offset="0"
       stop-color="#fff"
       id="stop31" />
    <stop
       offset="1"
       stop-color="#aeaeae"
       id="stop33" />
  </radialGradient>
  <radialGradient
     id="k"
     cx="34.677639"
     cy="7.462277"
     gradientTransform="matrix(-1.5103,0.00264127,-1.1671e-4,-0.00911022,87.0522,7.438666)"
     gradientUnits="userSpaceOnUse"
     r="47.595196"
     xlink:href="#p" />
  <radialGradient
     id="l"
     cx="34.677639"
     cy="7.462277"
     gradientTransform="matrix(0.999914,-0.00784165,5.6661e-4,0.02048306,-0.001242,7.581357)"
     gradientUnits="userSpaceOnUse"
     r="47.595196">
    <stop
       offset="0"
       stop-color="#fff"
       stop-opacity=".683453"
       id="stop37" />
    <stop
       offset="1"
       stop-color="#fff"
       stop-opacity="0"
       id="stop39" />
  </radialGradient>
  <radialGradient
     id="m"
     cx="89.454559"
     cy="100.74671"
     gradientTransform="matrix(0.0808702,0.08102772,-1.035432,1.040959,187.5974,-63.00773)"
     gradientUnits="userSpaceOnUse"
     r="47.746403">
    <stop
       offset="0"
       stop-color="#2d2d2d"
       id="stop42" />
    <stop
       offset=".5"
       id="stop44" />
    <stop
       offset="1"
       id="stop46" />
  </radialGradient>
  <radialGradient
     id="n"
     cx="15.727077"
     cy="58.089687"
     gradientTransform="matrix(2.331342,2.403265,-34.46994,34.18483,2042.51,-1974.86)"
     gradientUnits="userSpaceOnUse"
     r="2.614397">
    <stop
       offset="0"
       stop-color="#252525"
       id="stop49" />
    <stop
       offset=".5"
       stop-color="#252525"
       id="stop51" />
    <stop
       offset=".75"
       stop-color="#252525"
       id="stop53" />
    <stop
       offset="1"
       id="stop55" />
  </radialGradient>
  <radialGradient
     id="o"
     cx="42.617531"
     cy="120.64188"
     gradientTransform="matrix(1.846219,2.10415,-19.07412,16.75756,2262.469,-2019.342)"
     gradientUnits="userSpaceOnUse"
     r="3.406888">
    <stop
       offset="0"
       stop-color="#b4942a"
       id="stop58" />
    <stop
       offset="1"
       stop-color="#e4dcc9"
       id="stop60" />
  </radialGradient>
  <linearGradient
     id="p">
    <stop
       offset="0"
       stop-color="#fff"
       id="stop63" />
    <stop
       offset="1"
       stop-color="#fff"
       stop-opacity="0"
       id="stop65" />
  </linearGradient>
  <linearGradient
     id="q">
    <stop
       offset="0"
       id="stop68" />
    <stop
       offset="1"
       stop-color="#131313"
       stop-opacity="0"
       id="stop70" />
  </linearGradient>
  <linearGradient
     id="r"
     gradientUnits="userSpaceOnUse"
     x1="-119.747534"
     x2="-19.279516"
     y1="170.73323"
     y2="170.73323"
     gradientTransform="matrix(0.125,0,0,0.12500005,1.4684414,-0.51455265)">
    <stop
       offset="0"
       stop-color="#b7ff4c"
       id="stop73" />
    <stop
       offset=".5"
       stop-color="#4c70db"
       id="stop75" />
    <stop
       offset="1"
       stop-color="#ff4c4c"
       id="stop77" />
  </linearGradient>
  <linearGradient
     id="s"
     gradientUnits="userSpaceOnUse"
     x1="-71.697614"
     x2="-71.697614"
     xlink:href="#a"
     y1="173.821999"
     y2="168.752529"
     gradientTransform="matrix(0.125,0,0,0.12500005,12.468441,6.5565086)" />
  <g
     id="g1029"
     transform="matrix(3.7795275,0,0,3.7795275,-24.25,-0.49999974)">
    <path
       inkscape:connector-curvature="0"
       id="path941"
       d="m 8.5328127,0.66145831 a 0.79375005,0.79375005 0 0 0 -0.79375,0.79374999 0.79375005,0.79375005 0 0 0 0.79375,0.79375 A 0.79375005,0.79375005 0 0 1 8.2423912,1.1647868 0.79375005,0.79375005 0 0 1 8.9296877,0.76842853 0.79375005,0.79375005 0 0 0 8.5328127,0.66145831 Z"
       style="opacity:1;fill:#ff6600;fill-opacity:1;stroke:none;stroke-width:0.13229167;stroke-linecap:round;stroke-linejoin:round;stroke-miterlimit:4;stroke-dasharray:none;stroke-opacity:1" />
    <path
       inkscape:connector-curvature="0"
       id="circle943"
       d="M 8.8924807,0.76842853 A 0.79375005,0.79375005 0 0 0 8.2423912,1.1647868 0.79375005,0.79375005 0 0 0 8.5328127,2.2489583 0.79375005,0.79375005 0 0 1 8.8232342,1.1647868 0.79375005,0.79375005 0 0 1 9.6169842,1.1658203 0.79375005,0.79375005 0 0 0 9.3265627,0.87436522 0.79375005,0.79375005 0 0 0 8.8924807,0.76842853 Z"
       style="opacity:1;fill:#ff9900;fill-opacity:1;stroke:none;stroke-width:0.13229167;stroke-linecap:round;stroke-linejoin:round;stroke-miterlimit:4;stroke-dasharray:none;stroke-opacity:1" />
    <path
       inkscape:connector-curvature="0"
       id="circle945"
       d="M 9.2015058,1.0583333 A 0.79375005,0.79375005 0 0 0 8.8232342,1.1647868 0.79375005,0.79375005 0 0 0 8.5328127,2.2489583 0.79375005,0.79375005 0 0 1 9.3270795,1.4557251 0.79375005,0.79375005 0 0 1 10.013343,1.8536336 0.79375005,0.79375005 0 0 0 9.9074057,1.4552083 0.79375005,0.79375005 0 0 0 9.2015058,1.0583333 Z"
       style="opacity:1;fill:#ffcc00;fill-opacity:1;stroke:none;stroke-width:0.13229167;stroke-linecap:round;stroke-linejoin:round;stroke-miterlimit:4;stroke-dasharray:none;stroke-opacity:1" />
    <path
       inkscape:connector-curvature="0"
       id="circle947"
       d="M 9.3270795,1.4557251 A 0.79375005,0.79375005 0 0 0 8.5328127,2.2489583 0.79375005,0.79375005 0 0 1 9.6237023,1.984375 0.79375005,0.79375005 0 0 1 10.003524,2.6618531 0.79375005,0.79375005 0 0 0 10.120313,2.2499919 0.79375005,0.79375005 0 0 0 9.3270795,1.4557251 Z"
       style="opacity:1;fill:#669900;fill-opacity:1;stroke:none;stroke-width:0.13229167;stroke-linecap:round;stroke-linejoin:round;stroke-miterlimit:4;stroke-dasharray:none;stroke-opacity:1" />
    <path
       inkscape:connector-curvature="0"
       id="circle951"
       d="M 9.1922041,1.8686198 A 0.79375005,0.79375005 0 0 0 8.5328127,2.2489583 0.79375005,0.79375005 0 0 1 9.6237023,2.5135417 0.79375005,0.79375005 0 0 1 9.624219,3.3388144 0.79375005,0.79375005 0 0 0 9.8882856,3.0752646 0.79375005,0.79375005 0 0 0 9.6237023,1.984375 0.79375005,0.79375005 0 0 0 9.1922041,1.8686198 Z"
       style="opacity:1;fill:#00cc00;fill-opacity:1;stroke:none;stroke-width:0.13229167;stroke-linecap:round;stroke-linejoin:round;stroke-miterlimit:4;stroke-dasharray:none;stroke-opacity:1" />
    <path
       inkscape:connector-curvature="0"
       id="circle953"
       d="M 8.9085004,2.1337199 A 0.79375005,0.79375005 0 0 0 8.5328127,2.2489583 0.79375005,0.79375005 0 0 1 9.3270795,3.0421916 0.79375005,0.79375005 0 0 1 8.9467409,3.7196697 0.79375005,0.79375005 0 0 0 9.3591189,3.6044312 0.79375005,0.79375005 0 0 0 9.6237023,2.5135417 0.79375005,0.79375005 0 0 0 8.9085004,2.1337199 Z"
       style="opacity:1;fill:#99cc33;fill-opacity:1;stroke:none;stroke-width:0.13229167;stroke-linecap:round;stroke-linejoin:round;stroke-miterlimit:4;stroke-dasharray:none;stroke-opacity:1" />
    <path
       inkscape:connector-curvature="0"
       id="circle949"
       d="M 8.5328127,2.2489583 A 0.79375005,0.79375005 0 0 1 8.8232342,3.3331299 0.79375005,0.79375005 0 0 1 8.1359377,3.7294881 0.79375005,0.79375005 0 0 0 8.5343629,3.8364584 0.79375005,0.79375005 0 0 0 9.3270795,3.0421916 0.79375005,0.79375005 0 0 0 8.5328127,2.2489583 Z"
       style="opacity:1;fill:#6699ff;fill-opacity:1;stroke:none;stroke-width:0.13229167;stroke-linecap:round;stroke-linejoin:round;stroke-miterlimit:4;stroke-dasharray:none;stroke-opacity:1" />
    <path
       inkscape:connector-curvature="0"
       id="circle957"
       d="M 8.5328127,2.2489583 A 0.79375005,0.79375005 0 0 1 8.2423912,3.3331299 0.79375005,0.79375005 0 0 1 7.4486412,3.3320964 0.79375005,0.79375005 0 0 0 7.7390627,3.6235514 0.79375005,0.79375005 0 0 0 8.8232342,3.3331299 0.79375005,0.79375005 0 0 0 8.5328127,2.2489583 Z"
       style="opacity:1;fill:#3366cc;fill-opacity:1;stroke:none;stroke-width:0.13229167;stroke-linecap:round;stroke-linejoin:round;stroke-miterlimit:4;stroke-dasharray:none;stroke-opacity:1" />
    <path
       inkscape:connector-curvature="0"
       id="circle959"
       d="M 8.5328127,2.2489583 A 0.79375005,0.79375005 0 0 1 7.738546,3.0421916 0.79375005,0.79375005 0 0 1 7.0522829,2.6442831 0.79375005,0.79375005 0 0 0 7.1582197,3.0427084 0.79375005,0.79375005 0 0 0 8.2423912,3.3331299 0.79375005,0.79375005 0 0 0 8.5328127,2.2489583 Z"
       style="opacity:1;fill:#003399;fill-opacity:1;stroke:none;stroke-width:0.13229167;stroke-linecap:round;stroke-linejoin:round;stroke-miterlimit:4;stroke-dasharray:none;stroke-opacity:1" />
    <path
       inkscape:connector-curvature="0"
       id="circle955"
       d="m 7.0522829,1.8520833 a 0.79375005,0.79375005 0 0 0 -0.1069702,0.396875 0.79375005,0.79375005 0 0 0 0.79375,0.7937501 0.79375005,0.79375005 0 0 0 0.79375,-0.7937501 A 0.79375005,0.79375005 0 0 1 7.4486412,2.5393799 0.79375005,0.79375005 0 0 1 7.0522829,1.8520833 Z"
       style="opacity:1;fill:#2c0059;fill-opacity:1;stroke:none;stroke-width:0.13229167;stroke-linecap:round;stroke-linejoin:round;stroke-miterlimit:4;stroke-dasharray:none;stroke-opacity:1" />
    <path
       inkscape:connector-curvature="0"
       id="circle961"
       d="M 7.4496747,1.1647868 A 0.79375005,0.79375005 0 0 0 7.1582197,1.4552083 0.79375005,0.79375005 0 0 0 7.4486412,2.5393799 0.79375005,0.79375005 0 0 0 8.5328127,2.2489583 0.79375005,0.79375005 0 0 1 7.4486412,1.9585368 a 0.79375005,0.79375005 0 0 1 0.00103,-0.79375 z"
       style="opacity:1;fill:#730055;fill-opacity:1;stroke:none;stroke-width:0.13229167;stroke-linecap:round;stroke-linejoin:round;stroke-miterlimit:4;stroke-dasharray:none;stroke-opacity:1" />
    <path
       inkscape:connector-curvature="0"
       id="path977"
       d="M 8.1173343,0.76791178 A 0.79375005,0.79375005 0 0 0 7.7390627,0.87436522 0.79375005,0.79375005 0 0 0 7.4486412,1.9585368 0.79375005,0.79375005 0 0 0 8.5328127,2.2489583 0.79375005,0.79375005 0 0 1 7.7390627,1.4552083 0.79375005,0.79375005 0 0 1 8.1369712,0.76842853 0.79375005,0.79375005 0 0 0 8.1173343,0.76791178 Z"
       style="opacity:1;fill:#cc0000;fill-opacity:1;stroke:none;stroke-width:0.13229167;stroke-linecap:round;stroke-linejoin:round;stroke-miterlimit:4;stroke-dasharray:none;stroke-opacity:1" />
  </g>
  <rect
     height="0.77219206"
     rx="0.19983238"
     ry="0.28260583"
     transform="matrix(1,0,0.70710678,0.70710678,0,0)"
     width="12.558501"
     x="-13.5"
     y="20.441011"
     id="rect83"
     style="fill:url(#r);stroke-width:0.12500003" />
  <g
     id="g1051"
     transform="matrix(-1.1920639,0,0,1.2655399,20.044445,-1.0621568)"
     style="stroke-width:0.8141647">
    <path
       sodipodi:nodetypes="cccccc"
       inkscape:connector-curvature="0"
       id="path975"
       d="M 13.900134,1.9112539 12.699065,3.5104521 14.298264,4.7115205 15.499332,3.1123223 15,2.1119886 Z"
       style="fill:#f3b7d9;stroke:#9d3a9b;stroke-width:0.24424942;stroke-linecap:butt;stroke-linejoin:miter;stroke-miterlimit:4;stroke-dasharray:none;stroke-opacity:1" />
    <path
       sodipodi:nodetypes="ccccccccc"
       inkscape:connector-curvature="0"
       id="path973"
       d="M 7.7935896,11.707178 8.1950589,9.5074452 8.8951256,9.4079127 8.78652,9.9516585 9.3018176,9.7133564 9.1863195,10.251926 l 0.5173998,-0.236724 0.090538,0.693312 -2.0006675,0.998664"
       style="fill:#f3b7d9;stroke:#9d3a9b;stroke-width:0.16283295;stroke-linecap:butt;stroke-linejoin:miter;stroke-miterlimit:4;stroke-dasharray:none;stroke-opacity:1" />
    <path
       inkscape:connector-curvature="0"
       id="path979"
       d="M 8.1339621,10.592525 8.6762049,11.041861 7.794211,11.714616 Z"
       style="fill:#9d3a9b;stroke:#9d3a9b;stroke-width:0.08141647;stroke-linecap:butt;stroke-linejoin:miter;stroke-miterlimit:4;stroke-dasharray:none;stroke-opacity:1" />
    <path
       inkscape:connector-curvature="0"
       id="path977-3"
       d="M 12.699065,3.5104521 14.298264,4.7115205 9.7942571,10.708514 9.7037193,10.015202 9.1863195,10.251926 9.2287648,9.7962708 8.78652,9.9516585 8.8391438,9.4824513 8.1950589,9.5074452 Z"
       style="fill:#e602b4;stroke:#9d3a9b;stroke-width:0.08141647;stroke-linecap:butt;stroke-linejoin:miter;stroke-miterlimit:4;stroke-dasharray:none;stroke-opacity:1" />
    <path
       sodipodi:nodetypes="cccccc"
       inkscape:connector-curvature="0"
       id="path971"
       d="M 13.599867,2.3110535 8.1950589,9.5074452 7.4933225,12.106977 9.7942571,10.708514 15.199065,3.5121219 C 15.998017,2.4794054 14.43303,1.2349124 13.599867,2.3110535 Z"
       style="fill:none;stroke:#9d3a9b;stroke-width:0.56991524;stroke-linecap:butt;stroke-linejoin:round;stroke-miterlimit:4;stroke-dasharray:none;stroke-opacity:1" />
  </g>
</svg>
