<?xml version="1.0" encoding="UTF-8"?>
<svg xmlns="http://www.w3.org/2000/svg" xmlns:xlink="http://www.w3.org/1999/xlink" width="32px" height="32px" viewBox="0 0 32 32" version="1.1">
<g id="surface1">
<path style=" stroke:none;fill-rule:nonzero;fill:rgb(33.333334%,34.117648%,32.549021%);fill-opacity:1;" d="M 4 2 C 2.890625 2 2 2.890625 2 4 L 2 12 C 2 13.109375 2.890625 14 4 14 L 12 14 C 13.109375 14 14 13.109375 14 12 L 14 4 C 14 2.890625 13.109375 2 12 2 Z M 22 2 L 22 4 C 22 4.53125 22.1875 5.0625 22.5625 5.4375 L 23.125 6 L 16 6 L 16 10 L 23.125 10 L 22.5625 10.5625 C 22.199219 10.9375 22 11.46875 22 12 L 22 14 L 24 14 C 24.53125 14 25.0625 13.800781 25.4375 13.4375 L 30 8.875 L 30 7.125 L 25.4375 2.5625 C 25.0625 2.1875 24.53125 2 24 2 Z M 6 6 L 10 6 L 10 10 L 6 10 Z M 8 18 L 8 20 C 8 20.53125 8.1875 21.0625 8.5625 21.4375 L 9.125 22 L 2 22 L 2 26 L 9.125 26 L 8.5625 26.5625 C 8.199219 26.9375 8 27.097656 8 28 L 8 30 L 10 30 C 10 30 11.0625 29.800781 11.4375 29.4375 L 16 24.875 L 16 23.125 L 11.4375 18.5625 C 11.0625 18.199219 10.53125 18 10 18 Z M 20 18 C 18.890625 18 18 18.890625 18 20 L 18 28 C 18 29.109375 18.890625 30 20 30 L 28 30 C 29.109375 30 30 29.109375 30 28 L 30 20 C 30 18.890625 29.109375 18 28 18 Z M 22 22 L 26 22 L 26 26 L 22 26 Z M 22 22 "/>
</g>
</svg>
