<?xml version="1.0" encoding="UTF-8"?>
<svg xmlns="http://www.w3.org/2000/svg" xmlns:xlink="http://www.w3.org/1999/xlink" width="32px" height="32px" viewBox="0 0 32 32" version="1.1">
<g id="surface1">
<path style="fill-rule:evenodd;fill:rgb(94.117647%,89.019608%,92.54902%);fill-opacity:1;stroke-width:1;stroke-linecap:round;stroke-linejoin:round;stroke:rgb(90.196079%,0.784314%,70.588237%);stroke-opacity:1;stroke-miterlimit:4;" d="M 2.496094 1.503906 L 12.265625 1.503906 C 12.818359 1.503906 13.265625 1.951172 13.265625 2.503906 L 13.265625 13.496094 C 13.265625 14.048828 12.818359 14.496094 12.265625 14.496094 L 2.496094 14.496094 C 1.943359 14.496094 1.496094 14.048828 1.496094 13.496094 L 1.496094 2.503906 C 1.496094 1.951172 1.943359 1.503906 2.496094 1.503906 Z M 2.496094 1.503906 " transform="matrix(2,0,0,2,0,0)"/>
<path style="fill:none;stroke-width:1;stroke-linecap:round;stroke-linejoin:miter;stroke:rgb(90.196079%,0.784314%,70.588237%);stroke-opacity:1;stroke-miterlimit:4;" d="M 3.917969 7.158203 L 10.925781 7.158203 " transform="matrix(2,0,0,2,0,0)"/>
<path style="fill-rule:nonzero;fill:rgb(95.294118%,71.764708%,85.09804%);fill-opacity:1;stroke-width:1;stroke-linecap:butt;stroke-linejoin:miter;stroke:rgb(61.56863%,22.745098%,60.784316%);stroke-opacity:1;stroke-miterlimit:4;" d="M 3.488281 2.427734 L 4.177734 2.427734 C 4.347656 2.427734 4.486328 2.548828 4.486328 2.695312 L 4.486328 4.796875 C 4.486328 4.945312 4.347656 5.064453 4.177734 5.064453 L 3.488281 5.064453 C 3.318359 5.064453 3.177734 4.945312 3.177734 4.796875 L 3.177734 2.695312 C 3.177734 2.548828 3.318359 2.427734 3.488281 2.427734 Z M 3.488281 2.427734 " transform="matrix(2,0,0,2,0,0)"/>
<path style="fill-rule:nonzero;fill:rgb(90.196079%,0.784314%,70.588237%);fill-opacity:1;stroke-width:1;stroke-linecap:butt;stroke-linejoin:miter;stroke:rgb(61.56863%,22.745098%,60.784316%);stroke-opacity:1;stroke-miterlimit:4;" d="M 2.662109 3.736328 L 4.349609 3.736328 C 4.605469 3.736328 4.814453 3.964844 4.814453 4.246094 L 4.814453 7.019531 C 4.814453 7.300781 4.605469 7.529297 4.349609 7.529297 L 2.662109 7.529297 C 2.40625 7.529297 2.197266 7.300781 2.197266 7.019531 L 2.197266 4.246094 C 2.197266 3.964844 2.40625 3.736328 2.662109 3.736328 Z M 2.662109 3.736328 " transform="matrix(2,0,0,2,0,0)"/>
<path style="fill-rule:nonzero;fill:rgb(95.294118%,71.764708%,85.09804%);fill-opacity:1;stroke-width:1;stroke-linecap:butt;stroke-linejoin:miter;stroke:rgb(61.56863%,22.745098%,60.784316%);stroke-opacity:1;stroke-miterlimit:4;" d="M 2.195312 6.394531 L 3.833984 6.394531 C 4.195312 6.394531 4.486328 6.685547 4.486328 7.046875 L 4.486328 7.734375 C 4.486328 8.095703 4.195312 8.386719 3.833984 8.386719 L 2.195312 8.386719 C 1.835938 8.386719 1.542969 8.095703 1.542969 7.734375 L 1.542969 7.046875 C 1.542969 6.685547 1.835938 6.394531 2.195312 6.394531 Z M 2.195312 6.394531 " transform="matrix(2,0,0,2,0,0)"/>
<path style="fill-rule:nonzero;fill:rgb(94.117647%,89.019608%,92.54902%);fill-opacity:1;stroke-width:1;stroke-linecap:butt;stroke-linejoin:miter;stroke:rgb(61.56863%,22.745098%,60.784316%);stroke-opacity:1;stroke-miterlimit:4;" d="M 3.162109 1.744141 L 4.177734 1.744141 C 4.347656 1.744141 4.486328 1.863281 4.486328 2.011719 L 4.486328 2.84375 C 4.486328 2.992188 4.347656 3.111328 4.177734 3.111328 L 3.162109 3.111328 C 2.990234 3.111328 2.851562 2.992188 2.851562 2.84375 L 2.851562 2.011719 C 2.851562 1.863281 2.990234 1.744141 3.162109 1.744141 Z M 3.162109 1.744141 " transform="matrix(2,0,0,2,0,0)"/>
<path style="fill-rule:nonzero;fill:rgb(95.294118%,71.764708%,85.09804%);fill-opacity:1;stroke-width:1;stroke-linecap:butt;stroke-linejoin:miter;stroke:rgb(61.56863%,22.745098%,60.784316%);stroke-opacity:1;stroke-miterlimit:4;" d="M -6.792969 2.365234 L -6.105469 2.365234 C -5.933594 2.365234 -5.794922 2.486328 -5.794922 2.634766 L -5.794922 4.796875 C -5.794922 4.945312 -5.933594 5.064453 -6.105469 5.064453 L -6.792969 5.064453 C -6.964844 5.064453 -7.103516 4.945312 -7.103516 4.796875 L -7.103516 2.634766 C -7.103516 2.486328 -6.964844 2.365234 -6.792969 2.365234 Z M -6.792969 2.365234 " transform="matrix(-2,0,0,2,0,0)"/>
<path style="fill-rule:nonzero;fill:rgb(90.196079%,0.784314%,70.588237%);fill-opacity:1;stroke-width:1;stroke-linecap:butt;stroke-linejoin:miter;stroke:rgb(61.56863%,22.745098%,60.784316%);stroke-opacity:1;stroke-miterlimit:4;" d="M -7.619141 3.736328 L -5.931641 3.736328 C -5.675781 3.736328 -5.466797 3.964844 -5.466797 4.246094 L -5.466797 7.019531 C -5.466797 7.300781 -5.675781 7.529297 -5.931641 7.529297 L -7.619141 7.529297 C -7.875 7.529297 -8.083984 7.300781 -8.083984 7.019531 L -8.083984 4.246094 C -8.083984 3.964844 -7.875 3.736328 -7.619141 3.736328 Z M -7.619141 3.736328 " transform="matrix(-2,0,0,2,0,0)"/>
<path style="fill-rule:nonzero;fill:rgb(95.294118%,71.764708%,85.09804%);fill-opacity:1;stroke-width:1;stroke-linecap:butt;stroke-linejoin:miter;stroke:rgb(61.56863%,22.745098%,60.784316%);stroke-opacity:1;stroke-miterlimit:4;" d="M -8.085938 6.394531 L -6.447266 6.394531 C -6.087891 6.394531 -5.794922 6.685547 -5.794922 7.046875 L -5.794922 7.734375 C -5.794922 8.095703 -6.087891 8.386719 -6.447266 8.386719 L -8.085938 8.386719 C -8.445312 8.386719 -8.738281 8.095703 -8.738281 7.734375 L -8.738281 7.046875 C -8.738281 6.685547 -8.445312 6.394531 -8.085938 6.394531 Z M -8.085938 6.394531 " transform="matrix(-2,0,0,2,0,0)"/>
<path style="fill-rule:nonzero;fill:rgb(94.117647%,89.019608%,92.54902%);fill-opacity:1;stroke-width:1;stroke-linecap:butt;stroke-linejoin:miter;stroke:rgb(61.56863%,22.745098%,60.784316%);stroke-opacity:1;stroke-miterlimit:4;" d="M -7.119141 1.744141 L -6.105469 1.744141 C -5.933594 1.744141 -5.794922 1.863281 -5.794922 2.011719 L -5.794922 2.84375 C -5.794922 2.992188 -5.933594 3.111328 -6.105469 3.111328 L -7.119141 3.111328 C -7.291016 3.111328 -7.429688 2.992188 -7.429688 2.84375 L -7.429688 2.011719 C -7.429688 1.863281 -7.291016 1.744141 -7.119141 1.744141 Z M -7.119141 1.744141 " transform="matrix(-2,0,0,2,0,0)"/>
<path style="fill-rule:nonzero;fill:rgb(95.294118%,71.764708%,85.09804%);fill-opacity:0.994505;stroke-width:1;stroke-linecap:butt;stroke-linejoin:miter;stroke:rgb(61.56863%,22.745098%,60.784316%);stroke-opacity:1;stroke-miterlimit:4;" d="M 4.486328 3.736328 L 5.794922 3.736328 L 5.794922 4.400391 L 4.486328 4.400391 Z M 4.486328 3.736328 " transform="matrix(2,0,0,2,0,0)"/>
<path style="fill-rule:nonzero;fill:rgb(95.294118%,71.764708%,85.09804%);fill-opacity:1;stroke-width:1;stroke-linecap:butt;stroke-linejoin:miter;stroke:rgb(61.56863%,22.745098%,60.784316%);stroke-opacity:1;stroke-miterlimit:4;" d="M 4.486328 6.394531 L 5.794922 6.394531 L 5.794922 7.058594 L 4.486328 7.058594 Z M 4.486328 6.394531 " transform="matrix(2,0,0,2,0,0)"/>
<path style="fill:none;stroke-width:1;stroke-linecap:round;stroke-linejoin:miter;stroke:rgb(90.196079%,0.784314%,70.588237%);stroke-opacity:1;stroke-miterlimit:4;" d="M 3.884766 11.568359 L 10.894531 11.568359 " transform="matrix(2,0,0,2,0,0)"/>
<path style="fill-rule:nonzero;fill:rgb(95.294118%,71.764708%,85.09804%);fill-opacity:1;stroke-width:0.388796;stroke-linecap:butt;stroke-linejoin:miter;stroke:rgb(61.56863%,22.745098%,60.784316%);stroke-opacity:1;stroke-miterlimit:4;" d="M 13.899435 1.911268 L 12.699294 3.510479 L 14.299482 4.712402 L 15.499624 3.113191 L 15.000202 2.112426 Z M 13.899435 1.911268 " transform="matrix(1.533023,0,0,1.5535,5.668415,2.835533)"/>
<path style="fill-rule:nonzero;fill:rgb(95.294118%,71.764708%,85.09804%);fill-opacity:1;stroke-width:0.259197;stroke-linecap:butt;stroke-linejoin:miter;stroke:rgb(61.56863%,22.745098%,60.784316%);stroke-opacity:1;stroke-miterlimit:4;" d="M 7.794258 11.707695 L 8.194305 9.507522 L 8.895024 9.406942 L 8.785457 9.952585 L 9.302716 9.713709 L 9.185504 10.251809 L 9.702763 10.015447 L 9.794493 10.709445 L 7.794258 11.707695 " transform="matrix(1.533023,0,0,1.5535,5.668415,2.835533)"/>
<path style="fill-rule:nonzero;fill:rgb(61.56863%,22.745098%,60.784316%);fill-opacity:1;stroke-width:0.129599;stroke-linecap:butt;stroke-linejoin:miter;stroke:rgb(61.56863%,22.745098%,60.784316%);stroke-opacity:1;stroke-miterlimit:4;" d="M 8.133151 10.593779 L 8.67589 11.041357 L 7.794258 11.715238 Z M 8.133151 10.593779 " transform="matrix(1.533023,0,0,1.5535,5.668415,2.835533)"/>
<path style="fill-rule:nonzero;fill:rgb(90.196079%,0.784314%,70.588237%);fill-opacity:1;stroke-width:0.129599;stroke-linecap:butt;stroke-linejoin:miter;stroke:rgb(61.56863%,22.745098%,60.784316%);stroke-opacity:1;stroke-miterlimit:4;" d="M 12.699294 3.510479 L 14.299482 4.712402 L 9.794493 10.709445 L 9.702763 10.015447 L 9.185504 10.251809 L 9.228821 9.796687 L 8.785457 9.952585 L 8.838967 9.482377 L 8.194305 9.507522 Z M 12.699294 3.510479 " transform="matrix(1.533023,0,0,1.5535,5.668415,2.835533)"/>
<path style="fill:none;stroke-width:0.90719;stroke-linecap:butt;stroke-linejoin:round;stroke:rgb(61.56863%,22.745098%,60.784316%);stroke-opacity:1;stroke-miterlimit:4;" d="M 13.598763 2.31107 L 8.194305 9.507522 L 7.493585 12.107498 L 9.794493 10.709445 L 15.198951 3.512994 C 15.999046 2.479541 14.431982 1.234872 13.598763 2.31107 Z M 13.598763 2.31107 " transform="matrix(1.533023,0,0,1.5535,5.668415,2.835533)"/>
</g>
</svg>
