<?xml version="1.0" encoding="UTF-8"?>
<svg xmlns="http://www.w3.org/2000/svg" xmlns:xlink="http://www.w3.org/1999/xlink" width="32px" height="32px" viewBox="0 0 32 32" version="1.1">
<g id="surface1">
<path style="fill-rule:evenodd;fill:rgb(95.294118%,71.764708%,85.09804%);fill-opacity:1;stroke-width:1;stroke-linecap:butt;stroke-linejoin:miter;stroke:rgb(90.196079%,0.784314%,70.588237%);stroke-opacity:1;stroke-miterlimit:4;" d="M -19.03155 -10.842076 L -15.072566 -10.842076 C -14.96905 -10.842076 -14.885066 -10.761998 -14.885066 -10.662389 L -14.885066 -7.554967 C -14.885066 -7.455358 -14.96905 -7.375279 -15.072566 -7.375279 L -19.03155 -7.375279 C -19.135066 -7.375279 -19.21905 -7.455358 -19.21905 -7.554967 L -19.21905 -10.662389 C -19.21905 -10.761998 -19.135066 -10.842076 -19.03155 -10.842076 Z M -19.03155 -10.842076 " transform="matrix(2,-0.000000000000000122,-0.000000000000000122,-2,47.438101,4.315847)"/>
<path style="fill-rule:evenodd;fill:rgb(95.294118%,71.764708%,85.09804%);fill-opacity:1;stroke-width:1;stroke-linecap:butt;stroke-linejoin:miter;stroke:rgb(90.196079%,0.784314%,70.588237%);stroke-opacity:1;stroke-miterlimit:4;" d="M -19.03741 -3.910436 L -12.476863 -3.910436 C -12.373347 -3.910436 -12.289363 -3.828404 -12.289363 -3.728795 L -12.289363 -0.623326 C -12.289363 -0.523717 -12.373347 -0.441686 -12.476863 -0.441686 L -19.03741 -0.441686 C -19.140925 -0.441686 -19.22491 -0.523717 -19.22491 -0.623326 L -19.22491 -3.728795 C -19.22491 -3.828404 -19.140925 -3.910436 -19.03741 -3.910436 Z M -19.03741 -3.910436 " transform="matrix(2,-0.000000000000000122,-0.000000000000000122,-2,47.438101,4.315847)"/>
<path style="fill:none;stroke-width:1;stroke-linecap:round;stroke-linejoin:round;stroke:rgb(61.56863%,22.745098%,60.784316%);stroke-opacity:1;stroke-miterlimit:4;" d="M 8.93235 1.494279 L 9.00071 5.000139 " transform="matrix(0.000000000000000122,2,-2,0.000000000000000122,31.988559,-1.864701)"/>
<path style="fill:none;stroke-width:1;stroke-linecap:round;stroke-linejoin:round;stroke:rgb(61.56863%,22.745098%,60.784316%);stroke-opacity:1;stroke-miterlimit:4;" d="M 7.43235 2.994279 L 9.00071 5.000139 L 10.43235 2.994279 " transform="matrix(0.000000000000000122,2,-2,0.000000000000000122,31.988559,-1.864701)"/>
<path style="fill:none;stroke-width:1;stroke-linecap:round;stroke-linejoin:miter;stroke:rgb(61.56863%,22.745098%,60.784316%);stroke-opacity:1;stroke-miterlimit:4;" d="M -0.589564 22.22491 L 12.410436 22.22491 " transform="matrix(0.000000000000000122,2,-2,0.000000000000000122,47.438101,4.315847)"/>
</g>
</svg>
