<?xml version="1.0" encoding="UTF-8"?>
<svg xmlns="http://www.w3.org/2000/svg" xmlns:xlink="http://www.w3.org/1999/xlink" width="32px" height="32px" viewBox="0 0 32 32" version="1.1">
<g id="surface1">
<path style=" stroke:none;fill-rule:nonzero;fill:rgb(90.196079%,0.784314%,70.588237%);fill-opacity:1;" d="M 30 14.734375 L 30 15.265625 C 30 15.671875 29.609375 16 29.125 16 L 2.875 16 C 2.390625 16 2 15.671875 2 15.265625 L 2 14.734375 C 2 14.328125 2.390625 14 2.875 14 L 29.125 14 C 29.609375 14 30 14.328125 30 14.734375 Z M 30 14.734375 "/>
<path style=" stroke:none;fill-rule:evenodd;fill:rgb(90.196079%,0.784314%,70.588237%);fill-opacity:1;" d="M 15 16 L 10.003906 21.144531 L 10.996094 21.996094 L 14.003906 20.324219 L 14 28 L 16 28 L 16.003906 20.324219 L 18.960938 21.992188 L 20.003906 21.140625 Z M 15 16 "/>
<path style=" stroke:none;fill-rule:evenodd;fill:rgb(90.196079%,0.784314%,70.588237%);fill-opacity:1;" d="M 14.996094 14 L 10 7.996094 L 10.996094 7.003906 L 14 8.957031 L 14 1.957031 L 16 1.957031 L 16 8.957031 L 18.957031 7.007812 L 20 8.003906 Z M 14.996094 14 "/>
</g>
</svg>
