<?xml version="1.0" encoding="UTF-8"?>
<svg xmlns="http://www.w3.org/2000/svg" xmlns:xlink="http://www.w3.org/1999/xlink" width="32px" height="32px" viewBox="0 0 32 32" version="1.1">
<g id="surface1">
<path style="fill-rule:evenodd;fill:rgb(95.294118%,71.764708%,85.09804%);fill-opacity:1;stroke-width:1;stroke-linecap:butt;stroke-linejoin:miter;stroke:rgb(90.196079%,0.784314%,70.588237%);stroke-opacity:1;stroke-miterlimit:4;" d="M 3.687639 -22.99929 L 7.646624 -22.99929 C 7.750139 -22.99929 7.834124 -22.919212 7.834124 -22.819603 L 7.834124 -19.712181 C 7.834124 -19.612572 7.750139 -19.532494 7.646624 -19.532494 L 3.687639 -19.532494 C 3.584124 -19.532494 3.500139 -19.612572 3.500139 -19.712181 L 3.500139 -22.819603 C 3.500139 -22.919212 3.584124 -22.99929 3.687639 -22.99929 Z M 3.687639 -22.99929 " transform="matrix(-2,0,0,-2,29.98856,-20.1353)"/>
<path style="fill-rule:evenodd;fill:rgb(95.294118%,71.764708%,85.09804%);fill-opacity:1;stroke-width:1;stroke-linecap:butt;stroke-linejoin:miter;stroke:rgb(90.196079%,0.784314%,70.588237%);stroke-opacity:1;stroke-miterlimit:4;" d="M 3.68178 -16.06765 L 10.242327 -16.06765 C 10.345842 -16.06765 10.429827 -15.987572 10.429827 -15.887962 L 10.429827 -12.78054 C 10.429827 -12.680931 10.345842 -12.600853 10.242327 -12.600853 L 3.68178 -12.600853 C 3.578264 -12.600853 3.49428 -12.680931 3.49428 -12.78054 L 3.49428 -15.887962 C 3.49428 -15.987572 3.578264 -16.06765 3.68178 -16.06765 Z M 3.68178 -16.06765 " transform="matrix(-2,0,0,-2,29.98856,-20.1353)"/>
<path style="fill:none;stroke-width:1;stroke-linecap:round;stroke-linejoin:round;stroke:rgb(61.56863%,22.745098%,60.784316%);stroke-opacity:1;stroke-miterlimit:4;" d="M 8.93164 1.49414 L 9 5 " transform="matrix(-0.000000000000000122,2,2,0.000000000000000122,0.000000953674,-1.999999)"/>
<path style="fill:none;stroke-width:1;stroke-linecap:round;stroke-linejoin:round;stroke:rgb(61.56863%,22.745098%,60.784316%);stroke-opacity:1;stroke-miterlimit:4;" d="M 7.43164 2.99414 L 9 5 L 10.43164 2.99414 " transform="matrix(-0.000000000000000122,2,2,0.000000000000000122,0.000000953674,-1.999999)"/>
<path style="fill:none;stroke-width:1;stroke-linecap:round;stroke-linejoin:miter;stroke:rgb(61.56863%,22.745098%,60.784316%);stroke-opacity:1;stroke-miterlimit:4;" d="M 0.49428 11.56765 L 0.49428 24.56765 " transform="matrix(-2,0,0,2,29.98856,-20.1353)"/>
</g>
</svg>
