<?xml version="1.0" encoding="UTF-8"?>
<svg xmlns="http://www.w3.org/2000/svg" xmlns:xlink="http://www.w3.org/1999/xlink" width="32px" height="32px" viewBox="0 0 32 32" version="1.1">
<g id="surface1">
<path style="fill-rule:evenodd;fill:rgb(95.294118%,71.764708%,85.09804%);fill-opacity:1;stroke-width:1;stroke-linecap:butt;stroke-linejoin:miter;stroke:rgb(90.196079%,0.784314%,70.588237%);stroke-opacity:1;stroke-miterlimit:4;" d="M 4.688174 -12.999291 L 8.647159 -12.999291 C 8.750674 -12.999291 8.834659 -12.919213 8.834659 -12.819604 L 8.834659 -9.712182 C 8.834659 -9.612573 8.750674 -9.532495 8.647159 -9.532495 L 4.688174 -9.532495 C 4.584659 -9.532495 4.500674 -9.612573 4.500674 -9.712182 L 4.500674 -12.819604 C 4.500674 -12.919213 4.584659 -12.999291 4.688174 -12.999291 Z M 4.688174 -12.999291 " transform="matrix(0.000000000000000122,2,2,-0.000000000000000122,32.135302,-0.0013485)"/>
<path style="fill-rule:evenodd;fill:rgb(95.294118%,71.764708%,85.09804%);fill-opacity:1;stroke-width:1;stroke-linecap:butt;stroke-linejoin:miter;stroke:rgb(90.196079%,0.784314%,70.588237%);stroke-opacity:1;stroke-miterlimit:4;" d="M 4.682315 -6.067651 L 11.240909 -6.067651 C 11.344424 -6.067651 11.428409 -5.987573 11.428409 -5.887963 L 11.428409 -2.780541 C 11.428409 -2.680932 11.344424 -2.600854 11.240909 -2.600854 L 4.682315 -2.600854 C 4.578799 -2.600854 4.494815 -2.680932 4.494815 -2.780541 L 4.494815 -5.887963 C 4.494815 -5.987573 4.578799 -6.067651 4.682315 -6.067651 Z M 4.682315 -6.067651 " transform="matrix(0.000000000000000122,2,2,-0.000000000000000122,32.135302,-0.0013485)"/>
<path style="fill:none;stroke-width:1;stroke-linecap:round;stroke-linejoin:round;stroke:rgb(61.56863%,22.745098%,60.784316%);stroke-opacity:1;stroke-miterlimit:4;" d="M 8.931641 1.493605 L 9 4.999464 " transform="matrix(-2,0.000000000000000245,-0.000000000000000245,-2,34,31.987209)"/>
<path style="fill:none;stroke-width:1;stroke-linecap:round;stroke-linejoin:round;stroke:rgb(61.56863%,22.745098%,60.784316%);stroke-opacity:1;stroke-miterlimit:4;" d="M 7.431641 2.993605 L 9 4.999464 L 10.431641 2.993605 " transform="matrix(-2,0.000000000000000245,-0.000000000000000245,-2,34,31.987209)"/>
<path style="fill:none;stroke-width:1;stroke-linecap:round;stroke-linejoin:miter;stroke:rgb(61.56863%,22.745098%,60.784316%);stroke-opacity:1;stroke-miterlimit:4;" d="M 1.494815 1.567651 L 1.494815 14.567651 " transform="matrix(0.000000000000000122,2,-2,0.000000000000000122,32.135302,-0.0013485)"/>
</g>
</svg>
