<?xml version="1.0" encoding="UTF-8"?>
<svg xmlns="http://www.w3.org/2000/svg" xmlns:xlink="http://www.w3.org/1999/xlink" width="32px" height="32px" viewBox="0 0 32 32" version="1.1">
<g id="surface1">
<path style="fill-rule:nonzero;fill:rgb(95.294118%,71.764708%,85.09804%);fill-opacity:1;stroke-width:1.278937;stroke-linecap:butt;stroke-linejoin:round;stroke:rgb(90.196079%,0.784314%,70.588237%);stroke-opacity:1;stroke-miterlimit:4;" d="M 7.501484 17.99971 L 12.499999 29 C 12.499999 29 9.201008 27.999842 7.499623 28.000255 C 5.801546 27.999428 2.500694 29.001447 2.500694 29.001447 Z M 7.501484 17.99971 " transform="matrix(1.42363,-0.647105,0.647105,1.42363,-6.561408,-9.196464)"/>
<path style=" stroke:none;fill-rule:nonzero;fill:rgb(61.56863%,22.745098%,60.784316%);fill-opacity:1;" d="M 18.027344 16.558594 L 25.148438 22.769531 C 25.148438 22.769531 22.472656 23.125 21.265625 23.675781 C 20.054688 24.226562 18.027344 26.007812 18.027344 26.007812 Z M 18.027344 16.558594 "/>
<path style=" stroke:none;fill-rule:nonzero;fill:rgb(61.56863%,22.745098%,60.784316%);fill-opacity:1;" d="M 0 2 L 32 2 L 32 10 L 0 10 Z M 0 2 "/>
<path style=" stroke:none;fill-rule:nonzero;fill:rgb(90.196079%,0.784314%,70.588237%);fill-opacity:1;" d="M 2 4 L 10 4 L 10 8 L 2 8 Z M 2 4 "/>
<path style=" stroke:none;fill-rule:nonzero;fill:rgb(90.196079%,0.784314%,70.588237%);fill-opacity:1;" d="M 22 4 L 30 4 L 30 8 L 22 8 Z M 22 4 "/>
<path style=" stroke:none;fill-rule:nonzero;fill:rgb(90.196079%,0.784314%,70.588237%);fill-opacity:1;" d="M 12 4 L 20 4 L 20 8 L 12 8 Z M 12 4 "/>
<path style=" stroke:none;fill-rule:nonzero;fill:rgb(90.196079%,0.784314%,70.588237%);fill-opacity:1;" d="M 12 10 L 12 28 L 0 28 L 0 10 Z M 12 10 "/>
<path style=" stroke:none;fill-rule:nonzero;fill:rgb(95.294118%,71.764708%,85.09804%);fill-opacity:1;" d="M 2 10 L 10 10 L 10 14 L 2 14 Z M 2 10 "/>
<path style=" stroke:none;fill-rule:nonzero;fill:rgb(95.294118%,71.764708%,85.09804%);fill-opacity:1;" d="M 2 16 L 10 16 L 10 20 L 2 20 Z M 2 16 "/>
<path style=" stroke:none;fill-rule:nonzero;fill:rgb(95.294118%,71.764708%,85.09804%);fill-opacity:1;" d="M 2 22 L 10 22 L 10 26 L 2 26 Z M 2 22 "/>
</g>
</svg>
