<?xml version="1.0" encoding="UTF-8"?>
<svg xmlns="http://www.w3.org/2000/svg" xmlns:xlink="http://www.w3.org/1999/xlink" width="32px" height="32px" viewBox="0 0 32 32" version="1.1">
<g id="surface1">
<path style="fill-rule:nonzero;fill:rgb(95.294118%,71.764708%,85.09804%);fill-opacity:1;stroke-width:1;stroke-linecap:butt;stroke-linejoin:round;stroke:rgb(90.196079%,0.784314%,70.588237%);stroke-opacity:1;stroke-miterlimit:4;" d="M 1.5 1.5 L 11.171875 10.103516 C 11.171875 10.103516 7.539062 10.587891 5.896484 11.333984 C 4.251953 12.082031 1.5 14.5 1.5 14.5 Z M 1.5 1.5 " transform="matrix(2,0,0,2,0,0)"/>
<path style=" stroke:none;fill-rule:nonzero;fill:rgb(61.56863%,22.745098%,60.784316%);fill-opacity:1;" d="M 6.078125 10.097656 L 15.75 18.539062 C 15.75 18.539062 12.117188 19.019531 10.472656 19.769531 C 8.828125 20.515625 6.078125 22.933594 6.078125 22.933594 Z M 6.078125 10.097656 "/>
<path style="fill-rule:nonzero;fill:rgb(95.294118%,71.764708%,85.09804%);fill-opacity:1;stroke-width:1;stroke-linecap:butt;stroke-linejoin:round;stroke:rgb(90.196079%,0.784314%,70.588237%);stroke-opacity:1;stroke-miterlimit:4;" d="M 8.5 10.5 L 7.517578 10.5 C 7 10.5 6.5 11 6.5 11.5 L 6.5 13.5 C 6.5 14 7 14.5 7.5 14.5 L 9.5 14.5 C 9.992188 14.5 10.5 14.044922 10.5 13.5 C 10.5 14.044922 11.007812 14.5 11.5 14.5 L 13.5 14.5 C 14 14.5 14.5 13.990234 14.5 13.5 L 14.5 11.5 C 14.5 11 14 10.5 13.5 10.5 L 12.5 10.5 L 12.5 5.5 L 13.5 5.5 C 13.982422 5.5 14.5 5 14.5 4.5 L 14.5 2.5 C 14.5 2 14 1.5 13.5 1.5 L 11.5 1.5 C 11.025391 1.5 10.5 1.955078 10.5 2.5 C 10.5 1.955078 10.025391 1.5 9.5 1.5 L 7.5 1.5 C 6.992188 1.5 6.5 2 6.5 2.5 L 6.5 4.5 C 6.5 5 7 5.5 7.5 5.5 L 8.5 5.5 Z M 8.5 10.5 " transform="matrix(2,0,0,2,0,0)"/>
<path style=" stroke:none;fill-rule:nonzero;fill:rgb(61.56863%,22.745098%,60.784316%);fill-opacity:1;" d="M 15 6 L 15 8 L 20 8 L 20 6 Z M 15 6 "/>
<path style=" stroke:none;fill-rule:nonzero;fill:rgb(61.56863%,22.745098%,60.784316%);fill-opacity:1;" d="M 22 6 L 22 8 L 27 8 L 27 6 Z M 22 6 "/>
<path style=" stroke:none;fill-rule:nonzero;fill:rgb(61.56863%,22.745098%,60.784316%);fill-opacity:1;" d="M 20 8 L 20 24 L 22 24 L 22 8 Z M 20 8 "/>
<path style=" stroke:none;fill-rule:nonzero;fill:rgb(61.56863%,22.745098%,60.784316%);fill-opacity:1;" d="M 15 24 L 15 26 L 20 26 L 20 24 Z M 15 24 "/>
<path style=" stroke:none;fill-rule:nonzero;fill:rgb(61.56863%,22.745098%,60.784316%);fill-opacity:1;" d="M 22 24 L 22 26 L 27 26 L 27 24 Z M 22 24 "/>
</g>
</svg>
