<?xml version="1.0" encoding="UTF-8"?>
<svg xmlns="http://www.w3.org/2000/svg" xmlns:xlink="http://www.w3.org/1999/xlink" width="32px" height="32px" viewBox="0 0 32 32" version="1.1">
<g id="surface1">
<path style=" stroke:none;fill-rule:nonzero;fill:rgb(33.333334%,34.117648%,32.549021%);fill-opacity:1;" d="M 2 4 L 2 28 L 16.183594 28 L 16.164062 24 L 12 24 L 12 20 L 16 20 C 16 19.273438 16.207031 18.617188 16.496094 18 L 12 18 L 12 14 L 30 14 L 30 4 Z M 6 8 L 10 8 L 10 12 L 6 12 Z M 12 8 L 20 8 L 20 12 L 12 12 Z M 22 8 L 26 8 L 26 12 L 22 12 Z M 6 14 L 10 14 L 10 18 L 6 18 Z M 24 16 C 20.6875 16 18 17.789062 18 20 C 18.003906 21.074219 18.65625 22.105469 19.800781 22.855469 C 18.660156 23.417969 18 24.199219 18 25 C 18 25.738281 18.546875 26.449219 19.535156 27 C 18.546875 27.550781 18.003906 28.261719 18 29 C 18 30.65625 20.6875 32 24 32 C 27.3125 32 30 30.65625 30 29 C 29.996094 28.261719 29.453125 27.550781 28.464844 27 C 29.453125 26.449219 29.996094 25.738281 30 25 C 30 24.195312 29.351562 23.421875 28.199219 22.859375 C 29.351562 22.105469 30 21.074219 30 20 C 30 17.789062 27.3125 16 24 16 Z M 6 20 L 10 20 L 10 24 L 6 24 Z M 24 24 C 26.210938 24 28 24.449219 28 25 C 28 25.550781 26.210938 26 24 26 C 21.789062 26 20 25.550781 20 25 C 20 24.449219 21.789062 24 24 24 Z M 24 28 C 26.210938 28 28 28.449219 28 29 C 28 29.550781 26.210938 30 24 30 C 21.789062 30 20 29.550781 20 29 C 20 28.449219 21.789062 28 24 28 Z M 24 28 "/>
</g>
</svg>
