<?xml version="1.0" encoding="UTF-8"?>
<svg xmlns="http://www.w3.org/2000/svg" xmlns:xlink="http://www.w3.org/1999/xlink" width="32px" height="32px" viewBox="0 0 32 32" version="1.1">
<g id="surface1">
<path style=" stroke:none;fill-rule:nonzero;fill:rgb(33.333334%,34.117648%,32.549021%);fill-opacity:1;" d="M 6 6 L 6 10 L 14 10 C 15.105469 10 16 10.894531 16 12 L 16 14 L 8 14 C 4.6875 14 2 16.6875 2 20 C 2 23.3125 4.6875 26 8 26 L 20 26 L 20 12 C 20 8.6875 17.3125 6 14 6 Z M 8 18 L 16 18 L 16 22 L 8 22 C 6.894531 22 6 21.105469 6 20 C 6 18.894531 6.894531 18 8 18 Z M 8 18 "/>
<path style=" stroke:none;fill-rule:nonzero;fill:rgb(33.333334%,34.117648%,32.549021%);fill-opacity:1;" d="M 22 10 L 22 14 L 24 14 L 24 26 L 22 26 L 22 30 L 30 30 L 30 26 L 28 26 L 28 14 L 30 14 L 30 10 Z M 22 10 "/>
</g>
</svg>
