<?xml version="1.0" encoding="UTF-8"?>
<svg xmlns="http://www.w3.org/2000/svg" xmlns:xlink="http://www.w3.org/1999/xlink" width="32px" height="32px" viewBox="0 0 32 32" version="1.1">
<g id="surface1">
<path style="fill-rule:nonzero;fill:rgb(95.294118%,71.764708%,85.09804%);fill-opacity:1;stroke-width:0.264583;stroke-linecap:butt;stroke-linejoin:round;stroke:rgb(90.196079%,0.784314%,70.588237%);stroke-opacity:1;stroke-miterlimit:4;" d="M 0.494026 0.396875 L 2.41639 0.396875 C 2.464966 0.396875 2.513542 0.519865 2.513542 0.642338 L 2.513542 3.590995 C 2.513542 3.713469 2.464966 3.836459 2.41639 3.836459 L 0.494026 3.836459 C 0.445451 3.836459 0.396875 3.713469 0.396875 3.590995 L 0.396875 0.642338 C 0.396875 0.519865 0.445451 0.396875 0.494026 0.396875 Z M 0.494026 0.396875 " transform="matrix(7.559055,0,0,7.559055,0.00000180222,0)"/>
<path style="fill-rule:nonzero;fill:rgb(94.117647%,89.019608%,92.54902%);fill-opacity:1;stroke-width:0.264583;stroke-linecap:butt;stroke-linejoin:round;stroke:rgb(90.196079%,0.784314%,70.588237%);stroke-opacity:1;stroke-miterlimit:4;" d="M 0.494026 1.455208 L 2.41639 1.455208 C 2.464966 1.455208 2.513542 1.540475 2.513542 1.625224 L 2.513542 3.666443 C 2.513542 3.751192 2.464966 3.836459 2.41639 3.836459 L 0.494026 3.836459 C 0.445451 3.836459 0.396875 3.751192 0.396875 3.666443 L 0.396875 1.625224 C 0.396875 1.540475 0.445451 1.455208 0.494026 1.455208 Z M 0.494026 1.455208 " transform="matrix(7.559055,0,0,7.559055,0.00000180222,0)"/>
<path style="fill:none;stroke-width:0.264583;stroke-linecap:butt;stroke-linejoin:miter;stroke:rgb(61.56863%,22.745098%,60.784316%);stroke-opacity:1;stroke-miterlimit:4;" d="M 0.529166 3.042709 L 2.38125 3.042709 " transform="matrix(7.559055,0,0,7.559055,0.00000180222,0)"/>
<path style="fill:none;stroke-width:0.264583;stroke-linecap:butt;stroke-linejoin:miter;stroke:rgb(61.56863%,22.745098%,60.784316%);stroke-opacity:1;stroke-miterlimit:4;" d="M 0.529166 2.248958 L 2.38125 2.248958 " transform="matrix(7.559055,0,0,7.559055,0.00000180222,0)"/>
<path style="fill:none;stroke-width:0.264583;stroke-linecap:butt;stroke-linejoin:miter;stroke:rgb(61.56863%,22.745098%,60.784316%);stroke-opacity:1;stroke-miterlimit:4;" d="M 0.529166 1.455208 L 2.38125 1.455208 " transform="matrix(7.559055,0,0,7.559055,0.00000180222,0)"/>
<path style="fill:none;stroke-width:0.264583;stroke-linecap:butt;stroke-linejoin:miter;stroke:rgb(61.56863%,22.745098%,60.784316%);stroke-opacity:1;stroke-miterlimit:4;" d="M 1.455208 3.704167 L 1.455208 1.322917 " transform="matrix(7.559055,0,0,7.559055,0.00000180222,0)"/>
<path style="fill-rule:nonzero;fill:rgb(95.294118%,71.764708%,85.09804%);fill-opacity:1;stroke-width:1.278937;stroke-linecap:butt;stroke-linejoin:round;stroke:rgb(90.196079%,0.784314%,70.588237%);stroke-opacity:1;stroke-miterlimit:4;" d="M 7.500362 17.9992 L 12.498877 28.99949 C 12.498877 28.99949 9.199886 27.999332 7.500775 28.000779 C 5.800424 27.998918 2.499572 29.000937 2.499572 29.000937 Z M 7.500362 17.9992 " transform="matrix(1.42363,-0.647105,0.647105,1.42363,-7.325106,-11.196464)"/>
<path style=" stroke:none;fill-rule:nonzero;fill:rgb(61.56863%,22.745098%,60.784316%);fill-opacity:1;" d="M 17.265625 14.558594 L 24.382812 20.769531 C 24.382812 20.769531 21.710938 21.125 20.5 21.675781 C 19.289062 22.226562 17.265625 24.007812 17.265625 24.007812 Z M 17.265625 14.558594 "/>
</g>
</svg>
