<?xml version="1.0" encoding="UTF-8"?>
<svg xmlns="http://www.w3.org/2000/svg" xmlns:xlink="http://www.w3.org/1999/xlink" width="32px" height="32px" viewBox="0 0 32 32" version="1.1">
<g id="surface1">
<path style=" stroke:none;fill-rule:nonzero;fill:rgb(33.333334%,34.117648%,32.549021%);fill-opacity:1;" d="M 4 0 L 4 30 L 5.601562 30 L 12 23.398438 L 15.601562 28.398438 C 15.722656 28.574219 15.855469 28.726562 16 28.871094 L 16 24 L 20 24 L 20 23.46875 L 17.800781 20 L 20 20 L 20 16 L 16 16 L 16 8.722656 L 5.398438 0 Z M 18 10 L 18 14 L 22 14 L 22 26 L 18 26 L 18 30 L 30 30 L 30 26 L 26 26 L 26 14 L 30 14 L 30 10 Z M 18 10 "/>
</g>
</svg>
