<?xml version="1.0" encoding="UTF-8"?>
<svg xmlns="http://www.w3.org/2000/svg" xmlns:xlink="http://www.w3.org/1999/xlink" width="32px" height="32px" viewBox="0 0 32 32" version="1.1">
<g id="surface1">
<path style="fill-rule:nonzero;fill:rgb(94.117647%,89.019608%,92.54902%);fill-opacity:1;stroke-width:1;stroke-linecap:butt;stroke-linejoin:round;stroke:rgb(90.196079%,0.784314%,70.588237%);stroke-opacity:1;stroke-miterlimit:4;" d="M 4.333984 1.5 L 11.666016 1.5 C 12.583984 1.5 13.5 2.427734 13.5 3.357422 L 13.5 10.785156 C 13.5 11.714844 10.75 14.5 9.833984 14.5 L 4.333984 14.5 C 3.416016 14.5 2.5 13.572266 2.5 12.642578 L 2.5 3.357422 C 2.5 2.427734 3.416016 1.5 4.333984 1.5 Z M 4.333984 1.5 " transform="matrix(2,0,0,2,0,0)"/>
<path style="fill-rule:nonzero;fill:rgb(94.117647%,89.019608%,92.54902%);fill-opacity:1;stroke-width:1;stroke-linecap:round;stroke-linejoin:round;stroke:rgb(90.196079%,0.784314%,70.588237%);stroke-opacity:1;stroke-miterlimit:4;" d="M 10.195312 7.347656 C 10.195312 9.195312 8.695312 10.693359 6.847656 10.693359 C 4.998047 10.693359 3.5 9.195312 3.5 7.347656 C 3.5 5.498047 4.998047 4 6.847656 4 C 8.695312 4 10.195312 5.498047 10.195312 7.347656 Z M 10.195312 7.347656 " transform="matrix(2,0,0,2,0,0)"/>
<path style="fill-rule:nonzero;fill:rgb(95.294118%,71.764708%,85.09804%);fill-opacity:1;stroke-width:1;stroke-linecap:round;stroke-linejoin:round;stroke:rgb(90.196079%,0.784314%,70.588237%);stroke-opacity:1;stroke-miterlimit:4;" d="M 2.5 9.773438 C 2.5625 9.773438 4 8 4.5 8 C 5 8 5.5 9.181641 6 9.181641 C 6.5 9.181641 7.5 8 8 8 C 8.5 8 9.5 9.181641 10 9.181641 C 10.5 9.181641 11 8 11.5 8 C 12 8 12.978516 9.181641 13.5 9.181641 L 13.5 10.111328 C 13.5 10.955078 10.75 14.5 9.833984 14.5 L 4.333984 14.5 C 3.416016 14.5 2.5 13.402344 2.5 12.304688 C 2.427734 12.806641 2.5 10.363281 2.5 9.773438 Z M 2.5 9.773438 " transform="matrix(2,0,0,2,0,0)"/>
<path style="fill-rule:nonzero;fill:rgb(94.117647%,89.019608%,92.54902%);fill-opacity:1;stroke-width:1;stroke-linecap:butt;stroke-linejoin:round;stroke:rgb(90.196079%,0.784314%,70.588237%);stroke-opacity:1;stroke-miterlimit:4;" d="M 13.5 11 L 10 14.5 L 10 11 L 13.5 11 " transform="matrix(2,0,0,2,0,0)"/>
</g>
</svg>
