<?xml version="1.0" encoding="UTF-8"?>
<svg xmlns="http://www.w3.org/2000/svg" xmlns:xlink="http://www.w3.org/1999/xlink" width="32px" height="32px" viewBox="0 0 32 32" version="1.1">
<defs>
<filter id="alpha" filterUnits="objectBoundingBox" x="0%" y="0%" width="100%" height="100%">
  <feColorMatrix type="matrix" in="SourceGraphic" values="0 0 0 0 1 0 0 0 0 1 0 0 0 0 1 0 0 0 1 0"/>
</filter>
<mask id="mask0">
  <g filter="url(#alpha)">
<rect x="0" y="0" width="32" height="32" style="fill:rgb(0%,0%,0%);fill-opacity:0.35;stroke:none;"/>
  </g>
</mask>
<clipPath id="clip1">
  <rect x="0" y="0" width="32" height="32"/>
</clipPath>
<g id="surface5" clip-path="url(#clip1)">
<path style=" stroke:none;fill-rule:nonzero;fill:rgb(33.333334%,34.117648%,32.549021%);fill-opacity:1;" d="M 12 6 L 12 28 L 20 28 L 20 6 Z M 12 6 "/>
</g>
</defs>
<g id="surface1">
<use xlink:href="#surface5" mask="url(#mask0)"/>
<path style=" stroke:none;fill-rule:nonzero;fill:rgb(33.333334%,34.117648%,32.549021%);fill-opacity:1;" d="M 7.9375 2 L 8 4 L 2 4 L 2 30 L 8 30 L 8 32 L 24.0625 32 L 24 30 L 30 30 L 30 4 L 24 4 L 24 2 Z M 4 6 L 8 6 L 8 12 L 4 12 Z M 12 6 L 20 6 L 20 10 L 12 10 Z M 24 6 L 28 6 L 28 12 L 24 12 Z M 12 14 L 20 14 L 20 20 L 12 20 Z M 4 14 L 8 14 L 8 20 L 4 20 Z M 24 14 L 28 14 L 28 20 L 24 20 Z M 4 22 L 8 22 L 8 28 L 4 28 Z M 24 22 L 28 22 L 28 28 L 24 28 Z M 12 24 L 20 24 L 20 28 L 12 28 Z M 12 24 "/>
</g>
</svg>
