<?xml version="1.0" encoding="UTF-8"?>
<svg xmlns="http://www.w3.org/2000/svg" xmlns:xlink="http://www.w3.org/1999/xlink" width="32px" height="32px" viewBox="0 0 32 32" version="1.1">
<defs>
<filter id="alpha" filterUnits="objectBoundingBox" x="0%" y="0%" width="100%" height="100%">
  <feColorMatrix type="matrix" in="SourceGraphic" values="0 0 0 0 1 0 0 0 0 1 0 0 0 0 1 0 0 0 1 0"/>
</filter>
<mask id="mask0">
  <g filter="url(#alpha)">
<rect x="0" y="0" width="32" height="32" style="fill:rgb(0%,0%,0%);fill-opacity:0.35;stroke:none;"/>
  </g>
</mask>
<clipPath id="clip1">
  <rect x="0" y="0" width="32" height="32"/>
</clipPath>
<g id="surface5" clip-path="url(#clip1)">
<path style=" stroke:none;fill-rule:nonzero;fill:rgb(33.333334%,34.117648%,32.549021%);fill-opacity:1;" d="M 6 4 L 6 26 L 28 26 L 28 4 Z M 6 4 "/>
</g>
</defs>
<g id="surface1">
<use xlink:href="#surface5" mask="url(#mask0)"/>
<path style=" stroke:none;fill-rule:nonzero;fill:rgb(33.333334%,34.117648%,32.549021%);fill-opacity:1;" d="M 2 0 L 2 30 L 32 30 L 32 0 Z M 6 4 L 12 4 L 12 8 L 6 8 Z M 14 4 L 20 4 L 20 8 L 14 8 Z M 22 4 L 28 4 L 28 8 L 22 8 Z M 6 10 L 12 10 L 12 14 L 6 14 Z M 14 10 L 20 10 L 20 14 L 14 14 Z M 22 10 L 28 10 L 28 14 L 22 14 Z M 6 16 L 12 16 L 12 20 L 6 20 Z M 14 16 L 20 16 L 20 20 L 14 20 Z M 22 16 L 28 16 L 28 20 L 22 20 Z M 6 22 L 12 22 L 12 26 L 6 26 Z M 14 22 L 20 22 L 20 26 L 14 26 Z M 22 22 L 28 22 L 28 26 L 22 26 Z M 22 22 "/>
</g>
</svg>
