<?xml version="1.0" encoding="UTF-8"?>
<svg xmlns="http://www.w3.org/2000/svg" xmlns:xlink="http://www.w3.org/1999/xlink" width="32px" height="32px" viewBox="0 0 32 32" version="1.1">
<g id="surface1">
<path style="fill-rule:nonzero;fill:rgb(94.117647%,89.019608%,92.54902%);fill-opacity:1;stroke-width:1;stroke-linecap:butt;stroke-linejoin:round;stroke:rgb(90.196079%,0.784314%,70.588237%);stroke-opacity:1;stroke-miterlimit:4;" d="M 3.000109 12.571978 C 2.999188 13.428191 3.857225 14.285015 4.713438 14.285935 L 13.285617 14.285668 C 14.143047 14.285061 15.00018 13.429769 15.000791 12.570811 L 15.000206 7.428664 C 14.999599 6.571233 14.141562 5.714409 13.285349 5.713489 L 4.714698 5.714974 C 3.857267 5.715581 3.000134 6.570873 3.000741 7.428304 " transform="matrix(1.563509,-1.247173,1.247173,1.563509,-10.612313,11.249318)"/>
<path style="fill-rule:nonzero;fill:rgb(94.117647%,89.019608%,92.54902%);fill-opacity:1;stroke-width:1;stroke-linecap:round;stroke-linejoin:round;stroke:rgb(90.196079%,0.784314%,70.588237%);stroke-opacity:1;stroke-miterlimit:4;" d="M 4.286738 7.000051 L 9 10.857143 L 13.713602 6.999486 " transform="matrix(1.563509,-1.247173,1.247173,1.563509,-10.612313,11.249318)"/>
<path style="fill-rule:nonzero;fill:rgb(94.117647%,89.019608%,92.54902%);fill-opacity:1;stroke-width:1;stroke-linecap:round;stroke-linejoin:miter;stroke:rgb(90.196079%,0.784314%,70.588237%);stroke-opacity:1;stroke-miterlimit:4;" d="M 13.713576 13.000591 L 10.713643 10.857456 " transform="matrix(1.563509,-1.247173,1.247173,1.563509,-10.612313,11.249318)"/>
<path style="fill-rule:nonzero;fill:rgb(94.117647%,89.019608%,92.54902%);fill-opacity:1;stroke-width:1;stroke-linecap:round;stroke-linejoin:miter;stroke:rgb(90.196079%,0.784314%,70.588237%);stroke-opacity:1;stroke-miterlimit:4;" d="M 4.285185 12.999938 L 7.286357 10.856829 " transform="matrix(1.563509,-1.247173,1.247173,1.563509,-10.612313,11.249318)"/>
<path style="fill:none;stroke-width:1.106403;stroke-linecap:round;stroke-linejoin:miter;stroke:rgb(61.56863%,22.745098%,60.784316%);stroke-opacity:1;stroke-miterlimit:4;" d="M -10.000196 26.500668 L -7.001316 26.500072 " transform="matrix(1.47081,-1.050881,1.050881,1.47081,-10.390667,-27.216936)"/>
<path style="fill:none;stroke-width:1.106403;stroke-linecap:round;stroke-linejoin:miter;stroke:rgb(61.56863%,22.745098%,60.784316%);stroke-opacity:1;stroke-miterlimit:4;" d="M -10.500297 27.999789 L -7.499659 28.000449 " transform="matrix(1.47081,-1.050881,1.050881,1.47081,-10.390667,-27.216936)"/>
<path style="fill:none;stroke-width:1.106403;stroke-linecap:round;stroke-linejoin:miter;stroke:rgb(61.56863%,22.745098%,60.784316%);stroke-opacity:1;stroke-miterlimit:4;" d="M -9.9996 29.499548 L -6.998961 29.500208 " transform="matrix(1.47081,-1.050881,1.050881,1.47081,-10.390667,-27.216936)"/>
</g>
</svg>
