<?xml version="1.0" encoding="UTF-8"?>
<svg xmlns="http://www.w3.org/2000/svg" xmlns:xlink="http://www.w3.org/1999/xlink" width="32px" height="32px" viewBox="0 0 32 32" version="1.1">
<g id="surface1">
<path style="fill-rule:nonzero;fill:rgb(94.117647%,89.019608%,92.54902%);fill-opacity:1;stroke-width:0.945312;stroke-linecap:round;stroke-linejoin:round;stroke:rgb(61.56863%,22.745098%,60.784316%);stroke-opacity:1;stroke-miterlimit:4;" d="M 7.767441 5.609375 L 3.803406 5.609375 C 2.54422 5.609375 1.530594 6.623001 1.530594 7.882187 L 1.530594 10.022064 C 1.530594 11.137238 1.995865 12.097321 3.05011 12.294876 C 3.188583 12.320724 2.62915 14.203964 2.747314 14.119034 L 5.199219 12.294876 L 7.767441 12.294876 C 9.026627 12.294876 10.040253 11.28125 10.040253 10.022064 L 10.040253 7.882187 C 10.040253 6.623001 9.026627 5.609375 7.767441 5.609375 Z M 7.767441 5.609375 " transform="matrix(2.115702,0,0,2.115702,0,0.132231)"/>
<path style=" stroke:none;fill-rule:nonzero;fill:rgb(90.196079%,0.784314%,70.588237%);fill-opacity:1;" d="M 6.003906 18 C 5.832031 18.007812 5.648438 18.074219 5.476562 18.214844 C 5.164062 18.480469 4.984375 19.046875 5.042969 19.4375 C 5.140625 20.085938 5.792969 20.683594 7 21.59375 C 8.207031 20.683594 8.859375 20.085938 8.957031 19.4375 C 9.015625 19.046875 8.835938 18.480469 8.523438 18.214844 C 7.835938 17.640625 7 18.355469 7 18.742188 C 7 18.453125 6.527344 17.976562 6.003906 18 Z M 6.003906 18 "/>
<path style=" stroke:none;fill-rule:nonzero;fill:rgb(90.196079%,0.784314%,70.588237%);fill-opacity:1;" d="M 11.003906 18 C 10.832031 18.007812 10.648438 18.074219 10.476562 18.214844 C 10.164062 18.480469 9.984375 19.046875 10.042969 19.4375 C 10.140625 20.085938 10.792969 20.683594 12 21.59375 C 13.207031 20.683594 13.859375 20.085938 13.957031 19.4375 C 14.015625 19.046875 13.835938 18.480469 13.523438 18.214844 C 12.835938 17.640625 12 18.355469 12 18.742188 C 12 18.453125 11.527344 17.976562 11.003906 18 Z M 11.003906 18 "/>
<path style=" stroke:none;fill-rule:nonzero;fill:rgb(90.196079%,0.784314%,70.588237%);fill-opacity:1;" d="M 16.003906 18 C 15.832031 18.007812 15.648438 18.074219 15.476562 18.214844 C 15.164062 18.480469 14.984375 19.046875 15.042969 19.4375 C 15.140625 20.085938 15.792969 20.683594 17 21.59375 C 18.207031 20.683594 18.859375 20.085938 18.957031 19.4375 C 19.015625 19.046875 18.835938 18.480469 18.523438 18.214844 C 17.835938 17.640625 17 18.355469 17 18.742188 C 17 18.453125 16.527344 17.976562 16.003906 18 Z M 16.003906 18 "/>
<path style="fill-rule:nonzero;fill:rgb(95.294118%,71.764708%,85.09804%);fill-opacity:1;stroke-width:0.945312;stroke-linecap:round;stroke-linejoin:round;stroke:rgb(90.196079%,0.784314%,70.588237%);stroke-opacity:1;stroke-miterlimit:4;" d="M 7.357559 1.355469 L 11.321594 1.355469 C 12.58078 1.355469 13.594406 2.369095 13.594406 3.628281 L 13.594406 5.768158 C 13.594406 6.883331 13.129135 7.843414 12.07489 8.04097 C 11.936417 8.066818 12.49585 9.950058 12.377686 9.865128 L 9.925781 8.04097 L 7.357559 8.04097 C 6.098373 8.04097 5.084747 7.027344 5.084747 5.768158 L 5.084747 3.628281 C 5.084747 2.369095 6.098373 1.355469 7.357559 1.355469 Z M 7.357559 1.355469 " transform="matrix(2.115702,0,0,2.115702,0,0.132231)"/>
<path style=" stroke:none;fill-rule:nonzero;fill:rgb(61.56863%,22.745098%,60.784316%);fill-opacity:1;" d="M 17.664062 6.253906 C 17.253906 6.273438 16.828125 6.425781 16.429688 6.761719 C 15.691406 7.382812 15.269531 8.707031 15.40625 9.632812 C 15.632812 11.148438 17.164062 12.554688 20 14.6875 C 22.835938 12.554688 24.367188 11.148438 24.59375 9.632812 C 24.730469 8.707031 24.308594 7.382812 23.570312 6.761719 C 21.964844 5.410156 20 7.089844 20 8 C 20 7.316406 18.894531 6.199219 17.664062 6.253906 Z M 17.664062 6.253906 "/>
</g>
</svg>
