<?xml version="1.0" encoding="UTF-8"?>
<svg xmlns="http://www.w3.org/2000/svg" xmlns:xlink="http://www.w3.org/1999/xlink" width="32px" height="32px" viewBox="0 0 32 32" version="1.1">
<g id="surface1">
<path style="fill-rule:nonzero;fill:rgb(94.117647%,89.019608%,92.54902%);fill-opacity:1;stroke-width:1;stroke-linecap:butt;stroke-linejoin:round;stroke:rgb(90.196079%,0.784314%,70.588237%);stroke-opacity:1;stroke-miterlimit:4;" d="M -17.5 15 L -7.5 15 C -6.5 15 -5.5 14 -5.5 13 L -5.5 7 C -5.5 6 -6.5 5 -7.5 5 L -17.5 5 C -18.5 5 -19.5 6 -19.5 7 L -19.5 13 C -19.5 14 -18.5 15 -17.5 15 Z M -17.5 15 " transform="matrix(2,0,0,2,41,-1)"/>
<path style="fill:none;stroke-width:1;stroke-linecap:round;stroke-linejoin:round;stroke:rgb(90.196079%,0.784314%,70.588237%);stroke-opacity:1;stroke-miterlimit:4;" d="M -18 6.5 L -12.5 11 L -7 6.5 " transform="matrix(2,0,0,2,41,-1)"/>
<path style="fill:none;stroke-width:1;stroke-linecap:round;stroke-linejoin:miter;stroke:rgb(90.196079%,0.784314%,70.588237%);stroke-opacity:1;stroke-miterlimit:4;" d="M -7 13.5 L -10.5 11 " transform="matrix(2,0,0,2,41,-1)"/>
<path style="fill:none;stroke-width:1;stroke-linecap:round;stroke-linejoin:miter;stroke:rgb(90.196079%,0.784314%,70.588237%);stroke-opacity:1;stroke-miterlimit:4;" d="M -18 13.5 L -14.5 11 " transform="matrix(2,0,0,2,41,-1)"/>
<path style="fill-rule:nonzero;fill:rgb(61.56863%,22.745098%,60.784316%);fill-opacity:1;stroke-width:1;stroke-linecap:round;stroke-linejoin:round;stroke:rgb(95.294118%,71.764708%,85.09804%);stroke-opacity:1;stroke-miterlimit:4;" d="M 1.572266 2.999999 L 8.927734 2.999999 C 9.244141 2.999999 9.5 3.255858 9.5 3.572265 L 9.5 10.427733 C 9.5 10.74414 9.244141 10.999999 8.927734 10.999999 L 1.572266 10.999999 C 1.255859 10.999999 1 10.74414 1 10.427733 L 1 3.572265 C 1 3.255858 1.255859 2.999999 1.572266 2.999999 Z M 1.572266 2.999999 " transform="matrix(2,0,0,2,0.000000119209,-3.999998)"/>
<path style="fill-rule:nonzero;fill:rgb(61.56863%,22.745098%,60.784316%);fill-opacity:1;stroke-width:0.5;stroke-linecap:round;stroke-linejoin:round;stroke:rgb(94.117647%,89.019608%,92.54902%);stroke-opacity:1;stroke-miterlimit:4;" d="M 7.4375 6.230468 C 7.570312 5.009765 2.464844 9.359374 3.921875 9.499999 C 5.380859 9.640624 3.546875 3.927733 2.847656 4.822265 C 2.148437 5.714843 7.302734 7.449218 7.4375 6.230468 Z M 7.4375 6.230468 " transform="matrix(2,0,0,2,0.000000119209,-3.999998)"/>
</g>
</svg>
