<?xml version="1.0" encoding="UTF-8"?>
<svg xmlns="http://www.w3.org/2000/svg" xmlns:xlink="http://www.w3.org/1999/xlink" width="32px" height="32px" viewBox="0 0 32 32" version="1.1">
<g id="surface1">
<path style="fill-rule:nonzero;fill:rgb(94.117647%,89.019608%,92.54902%);fill-opacity:1;stroke-width:0.264583;stroke-linecap:butt;stroke-linejoin:round;stroke:rgb(90.196079%,0.784314%,70.588237%);stroke-opacity:1;stroke-miterlimit:4;" d="M 0.264583 1.852083 L 0.264583 3.439584 C 0.264583 3.704167 0.529166 3.96875 0.79375 3.96875 L 3.439583 3.96875 C 3.704167 3.96875 3.96875 3.704167 3.96875 3.439584 L 3.96875 1.852083 C 3.96875 1.5875 3.704167 1.322917 3.439583 1.322917 L 0.79375 1.322917 C 0.529166 1.322917 0.264583 1.5875 0.264583 1.852083 Z M 0.264583 1.852083 " transform="matrix(7.559055,0,0,7.559055,0.00000180222,0)"/>
<path style="fill-rule:nonzero;fill:rgb(61.56863%,22.745098%,60.784316%);fill-opacity:1;stroke-width:0.264583;stroke-linecap:round;stroke-linejoin:round;stroke:rgb(61.56863%,22.745098%,60.784316%);stroke-opacity:1;stroke-miterlimit:4;" d="M 0.846819 0.79375 L 1.005219 0.79375 C 1.180469 0.79375 1.322692 0.971697 1.322692 1.19076 L 1.322692 2.778125 C 1.322692 2.997188 1.180469 3.175135 1.005219 3.175135 L 0.846819 3.175135 C 0.671569 3.175135 0.529346 2.997188 0.529346 2.778125 L 0.529346 1.19076 C 0.529346 0.971697 0.671569 0.79375 0.846819 0.79375 Z M 0.846819 0.79375 " transform="matrix(5.795276,0,0,5.795276,1.166668,8.4)"/>
<path style="fill:none;stroke-width:0.264583;stroke-linecap:round;stroke-linejoin:miter;stroke:rgb(90.196079%,0.784314%,70.588237%);stroke-opacity:1;stroke-miterlimit:4;" d="M 0.635171 1.19076 L 1.19058 1.19076 " transform="matrix(5.795276,0,0,5.795276,1.166668,8.4)"/>
<path style="fill:none;stroke-width:0.264583;stroke-linecap:round;stroke-linejoin:miter;stroke:rgb(90.196079%,0.784314%,70.588237%);stroke-opacity:1;stroke-miterlimit:4;" d="M 0.635171 2.778125 L 1.19058 2.778125 " transform="matrix(5.795276,0,0,5.795276,1.166668,8.4)"/>
<path style="fill:none;stroke-width:0.264583;stroke-linecap:round;stroke-linejoin:miter;stroke:rgb(61.56863%,22.745098%,60.784316%);stroke-opacity:1;stroke-miterlimit:4;" d="M 1.455208 1.852083 L 3.571875 1.852083 " transform="matrix(7.559055,0,0,7.559055,0.00000180222,0)"/>
<path style=" stroke:none;fill-rule:nonzero;fill:rgb(61.56863%,22.745098%,60.784316%);fill-opacity:1;" d="M 15.5 17 C 15.5 17.828125 14.828125 18.5 14 18.5 C 13.171875 18.5 12.5 17.828125 12.5 17 C 12.5 16.171875 13.171875 15.5 14 15.5 C 14.828125 15.5 15.5 16.171875 15.5 17 Z M 15.5 17 "/>
<path style=" stroke:none;fill-rule:nonzero;fill:rgb(61.56863%,22.745098%,60.784316%);fill-opacity:1;" d="M 25.5 17 C 25.5 17.828125 24.828125 18.5 24 18.5 C 23.171875 18.5 22.5 17.828125 22.5 17 C 22.5 16.171875 23.171875 15.5 24 15.5 C 24.828125 15.5 25.5 16.171875 25.5 17 Z M 25.5 17 "/>
<path style=" stroke:none;fill-rule:nonzero;fill:rgb(61.56863%,22.745098%,60.784316%);fill-opacity:1;" d="M 20.5 17 C 20.5 17.828125 19.828125 18.5 19 18.5 C 18.171875 18.5 17.5 17.828125 17.5 17 C 17.5 16.171875 18.171875 15.5 19 15.5 C 19.828125 15.5 20.5 16.171875 20.5 17 Z M 20.5 17 "/>
<path style=" stroke:none;fill-rule:nonzero;fill:rgb(61.56863%,22.745098%,60.784316%);fill-opacity:1;" d="M 15.5 21.5 C 15.5 22.328125 14.828125 23 14 23 C 13.171875 23 12.5 22.328125 12.5 21.5 C 12.5 20.671875 13.171875 20 14 20 C 14.828125 20 15.5 20.671875 15.5 21.5 Z M 15.5 21.5 "/>
<path style=" stroke:none;fill-rule:nonzero;fill:rgb(61.56863%,22.745098%,60.784316%);fill-opacity:1;" d="M 25.5 21.5 C 25.5 22.328125 24.828125 23 24 23 C 23.171875 23 22.5 22.328125 22.5 21.5 C 22.5 20.671875 23.171875 20 24 20 C 24.828125 20 25.5 20.671875 25.5 21.5 Z M 25.5 21.5 "/>
<path style=" stroke:none;fill-rule:nonzero;fill:rgb(61.56863%,22.745098%,60.784316%);fill-opacity:1;" d="M 20.5 21.5 C 20.5 22.328125 19.828125 23 19 23 C 18.171875 23 17.5 22.328125 17.5 21.5 C 17.5 20.671875 18.171875 20 19 20 C 19.828125 20 20.5 20.671875 20.5 21.5 Z M 20.5 21.5 "/>
<path style=" stroke:none;fill-rule:nonzero;fill:rgb(61.56863%,22.745098%,60.784316%);fill-opacity:1;" d="M 15.5 26.5 C 15.5 27.328125 14.828125 28 14 28 C 13.171875 28 12.5 27.328125 12.5 26.5 C 12.5 25.671875 13.171875 25 14 25 C 14.828125 25 15.5 25.671875 15.5 26.5 Z M 15.5 26.5 "/>
<path style=" stroke:none;fill-rule:nonzero;fill:rgb(61.56863%,22.745098%,60.784316%);fill-opacity:1;" d="M 25.5 26.5 C 25.5 27.328125 24.828125 28 24 28 C 23.171875 28 22.5 27.328125 22.5 26.5 C 22.5 25.671875 23.171875 25 24 25 C 24.828125 25 25.5 25.671875 25.5 26.5 Z M 25.5 26.5 "/>
<path style=" stroke:none;fill-rule:nonzero;fill:rgb(61.56863%,22.745098%,60.784316%);fill-opacity:1;" d="M 20.5 26.5 C 20.5 27.328125 19.828125 28 19 28 C 18.171875 28 17.5 27.328125 17.5 26.5 C 17.5 25.671875 18.171875 25 19 25 C 19.828125 25 20.5 25.671875 20.5 26.5 Z M 20.5 26.5 "/>
<path style="fill-rule:nonzero;fill:rgb(95.294118%,71.764708%,85.09804%);fill-opacity:1;stroke-width:0.264583;stroke-linecap:butt;stroke-linejoin:miter;stroke:rgb(61.56863%,22.745098%,60.784316%);stroke-opacity:1;stroke-miterlimit:4;" d="M 1.719792 1.852083 L 1.719792 0.529167 C 1.719792 0.396875 1.852083 0.264583 1.984375 0.264583 L 3.042708 0.264583 C 3.175 0.264583 3.307292 0.396875 3.307292 0.529167 L 3.307292 1.852083 Z M 1.719792 1.852083 " transform="matrix(7.559055,0,0,7.559055,0.00000180222,0)"/>
<path style="fill:none;stroke-width:0.264583;stroke-linecap:round;stroke-linejoin:miter;stroke:rgb(61.56863%,22.745098%,60.784316%);stroke-opacity:1;stroke-miterlimit:4;" d="M 2.116667 0.661458 L 2.910417 0.661458 " transform="matrix(7.559055,0,0,7.559055,0.00000180222,0)"/>
<path style="fill:none;stroke-width:0.264583;stroke-linecap:round;stroke-linejoin:miter;stroke:rgb(61.56863%,22.745098%,60.784316%);stroke-opacity:1;stroke-miterlimit:4;" d="M 2.116667 1.058333 L 2.910417 1.058333 " transform="matrix(7.559055,0,0,7.559055,0.00000180222,0)"/>
<path style="fill:none;stroke-width:0.264583;stroke-linecap:round;stroke-linejoin:miter;stroke:rgb(61.56863%,22.745098%,60.784316%);stroke-opacity:1;stroke-miterlimit:4;" d="M 2.116667 1.455208 L 2.910417 1.455208 " transform="matrix(7.559055,0,0,7.559055,0.00000180222,0)"/>
</g>
</svg>
