<?xml version="1.0" encoding="UTF-8"?>
<svg xmlns="http://www.w3.org/2000/svg" xmlns:xlink="http://www.w3.org/1999/xlink" width="32px" height="32px" viewBox="0 0 32 32" version="1.1">
<g id="surface1">
<path style="fill-rule:nonzero;fill:rgb(61.56863%,22.745098%,60.784316%);fill-opacity:1;stroke-width:1;stroke-linecap:round;stroke-linejoin:round;stroke:rgb(90.196079%,0.784314%,70.588237%);stroke-opacity:1;stroke-miterlimit:4;" d="M 15 8 C 15 11.865234 11.865234 15 8 15 C 4.134766 15 1 11.865234 1 8 C 1 4.134766 4.134766 1 8 1 C 11.865234 1 15 4.134766 15 8 Z M 15 8 " transform="matrix(2,0,0,2,0,0)"/>
<path style="fill:none;stroke-width:1;stroke-linecap:round;stroke-linejoin:round;stroke:rgb(94.117647%,89.019608%,92.54902%);stroke-opacity:1;stroke-miterlimit:4;" d="M 4.5 6.5 L 10.5 10.5 L 7.5 12.5 L 7.5 3.5 L 10.5 6.5 L 4.5 10.5 " transform="matrix(2,0,0,2,0,0)"/>
<path style="fill:none;stroke-width:1;stroke-linecap:round;stroke-linejoin:round;stroke:rgb(94.117647%,89.019608%,92.54902%);stroke-opacity:1;stroke-miterlimit:4;" d="M 14 8 C 14 11.314453 11.314453 14 8 14 C 4.685547 14 2 11.314453 2 8 C 2 4.685547 4.685547 2 8 2 C 11.314453 2 14 4.685547 14 8 Z M 14 8 " transform="matrix(2,0,0,2,0,0)"/>
</g>
</svg>
