<?xml version="1.0" encoding="UTF-8"?>
<svg xmlns="http://www.w3.org/2000/svg" xmlns:xlink="http://www.w3.org/1999/xlink" width="32px" height="32px" viewBox="0 0 32 32" version="1.1">
<g id="surface1">
<path style=" stroke:none;fill-rule:evenodd;fill:rgb(90.196079%,0.784314%,70.588237%);fill-opacity:1;" d="M 16.46875 2 L 12 7.359375 L 12.886719 8.25 L 15.574219 6.507812 L 15.574219 10.078125 C 15.574219 10.972656 17.359375 10.972656 17.359375 10.078125 L 17.359375 6.507812 L 20 8.25 L 20.933594 7.359375 Z M 16.46875 2 "/>
<path style="fill-rule:nonzero;fill:rgb(94.117647%,89.019608%,92.54902%);fill-opacity:1;stroke-width:1;stroke-linecap:butt;stroke-linejoin:round;stroke:rgb(61.56863%,22.745098%,60.784316%);stroke-opacity:1;stroke-miterlimit:4;" d="M -14.857422 1.5 L -11.642578 1.5 C -11.322266 1.5 -11 2 -11 2.5 L -11 14.5 C -11 15 -11.322266 15.5 -11.642578 15.5 L -14.857422 15.5 C -15.177734 15.5 -15.5 15 -15.5 14.5 L -15.5 2.5 C -15.5 2 -15.177734 1.5 -14.857422 1.5 Z M -14.857422 1.5 " transform="matrix(0.000000000000000122,2,-2,0.000000000000000122,33,43)"/>
<path style="fill:none;stroke-width:1;stroke-linecap:butt;stroke-linejoin:miter;stroke:rgb(90.196079%,0.784314%,70.588237%);stroke-opacity:1;stroke-miterlimit:4;" d="M -15 5 L -11.5 5 " transform="matrix(0.000000000000000122,2,-2,0.000000000000000122,33,43)"/>
<path style="fill:none;stroke-width:1;stroke-linecap:butt;stroke-linejoin:miter;stroke:rgb(90.196079%,0.784314%,70.588237%);stroke-opacity:1;stroke-miterlimit:4;" d="M -15 8.5 L -11.5 8.5 " transform="matrix(0.000000000000000122,2,-2,0.000000000000000122,33,43)"/>
<path style="fill:none;stroke-width:1;stroke-linecap:butt;stroke-linejoin:miter;stroke:rgb(90.196079%,0.784314%,70.588237%);stroke-opacity:1;stroke-miterlimit:4;" d="M -15 12 L -11.5 12 " transform="matrix(0.000000000000000122,2,-2,0.000000000000000122,33,43)"/>
<path style=" stroke:none;fill-rule:evenodd;fill:rgb(90.196079%,0.784314%,70.588237%);fill-opacity:1;" d="M 16.46875 30 L 12 24.640625 L 12.886719 23.75 L 15.574219 25.492188 L 15.574219 23 C 15.574219 22.105469 17.359375 22.105469 17.359375 23 L 17.359375 25.492188 L 20 23.75 L 20.933594 24.640625 Z M 16.46875 30 "/>
</g>
</svg>
