<?xml version="1.0" encoding="UTF-8"?>
<svg xmlns="http://www.w3.org/2000/svg" xmlns:xlink="http://www.w3.org/1999/xlink" width="32px" height="32px" viewBox="0 0 32 32" version="1.1">
<g id="surface1">
<path style="fill-rule:nonzero;fill:rgb(94.117647%,89.019608%,92.54902%);fill-opacity:1;stroke-width:1;stroke-linecap:round;stroke-linejoin:round;stroke:rgb(90.196079%,0.784314%,70.588237%);stroke-opacity:1;stroke-miterlimit:4;" d="M 5 1 L 13 1 C 14 1 15 2 15 3 L 15 13 C 15 14 14 15 13 15 L 5 15 C 4 15 3 14 3 13 L 3 3 C 3 2 4 1 5 1 Z M 5 1 " transform="matrix(2,0,0,2,0,0)"/>
<path style="fill:none;stroke-width:1;stroke-linecap:round;stroke-linejoin:miter;stroke:rgb(61.56863%,22.745098%,60.784316%);stroke-opacity:1;stroke-miterlimit:4;" d="M 5 5 L 13 5 " transform="matrix(2,0,0,2,0,0)"/>
<path style="fill:none;stroke-width:1;stroke-linecap:round;stroke-linejoin:miter;stroke:rgb(61.56863%,22.745098%,60.784316%);stroke-opacity:1;stroke-miterlimit:4;" d="M 5 7 L 13 7 " transform="matrix(2,0,0,2,0,0)"/>
<path style="fill:none;stroke-width:1;stroke-linecap:round;stroke-linejoin:miter;stroke:rgb(61.56863%,22.745098%,60.784316%);stroke-opacity:1;stroke-miterlimit:4;" d="M 5 9 L 13 9 " transform="matrix(2,0,0,2,0,0)"/>
<path style="fill:none;stroke-width:1;stroke-linecap:round;stroke-linejoin:miter;stroke:rgb(61.56863%,22.745098%,60.784316%);stroke-opacity:1;stroke-miterlimit:4;" d="M 5 11 L 13 11 " transform="matrix(2,0,0,2,0,0)"/>
<path style="fill:none;stroke-width:1;stroke-linecap:round;stroke-linejoin:miter;stroke:rgb(61.56863%,22.745098%,60.784316%);stroke-opacity:1;stroke-miterlimit:4;" d="M 5 13 L 13 13 " transform="matrix(2,0,0,2,0,0)"/>
<path style="fill:none;stroke-width:1;stroke-linecap:round;stroke-linejoin:miter;stroke:rgb(61.56863%,22.745098%,60.784316%);stroke-opacity:1;stroke-miterlimit:4;" d="M 5 3 L 13 3 " transform="matrix(2,0,0,2,0,0)"/>
<path style="fill-rule:nonzero;fill:rgb(90.196079%,0.784314%,70.588237%);fill-opacity:1;stroke-width:1;stroke-linecap:butt;stroke-linejoin:miter;stroke:rgb(61.56863%,22.745098%,60.784316%);stroke-opacity:1;stroke-miterlimit:4;" d="M 3.654297 1 C 2.464844 1 1.5 1.964844 1.5 3.154297 L 1.5 8.896484 C 1.5 10.085938 2.464844 11.050781 3.654297 11.050781 L 9.402344 11.050781 C 10.591797 11.050781 11.556641 10.085938 11.556641 8.896484 L 11.556641 3.154297 C 11.556641 1.964844 10.591797 1 9.402344 1 Z M 3.654297 1 " transform="matrix(2,0,0,2,0,0)"/>
<path style=" stroke:none;fill-rule:nonzero;fill:rgb(94.117647%,89.019608%,92.54902%);fill-opacity:1;" d="M 19.707031 6.992188 C 19.707031 8.394531 18.570312 9.535156 17.167969 9.535156 C 15.761719 9.535156 14.625 8.394531 14.625 6.992188 C 14.625 5.589844 15.761719 4.449219 17.167969 4.449219 C 18.570312 4.449219 19.707031 5.589844 19.707031 6.992188 Z M 19.707031 6.992188 "/>
<path style=" stroke:none;fill-rule:nonzero;fill:rgb(94.117647%,89.019608%,92.54902%);fill-opacity:1;" d="M 19.707031 16.519531 C 19.707031 17.925781 18.570312 19.0625 17.167969 19.0625 C 15.761719 19.0625 14.625 17.925781 14.625 16.519531 C 14.625 15.117188 15.761719 13.976562 17.167969 13.976562 C 18.570312 13.976562 19.707031 15.117188 19.707031 16.519531 Z M 19.707031 16.519531 "/>
<path style=" stroke:none;fill-rule:nonzero;fill:rgb(94.117647%,89.019608%,92.54902%);fill-opacity:1;" d="M 10.007812 11.757812 C 10.007812 13.160156 8.867188 14.296875 7.464844 14.296875 C 6.0625 14.296875 4.921875 13.160156 4.921875 11.757812 C 4.921875 10.351562 6.0625 9.214844 7.464844 9.214844 C 8.867188 9.214844 10.007812 10.351562 10.007812 11.757812 Z M 10.007812 11.757812 "/>
<path style=" stroke:none;fill-rule:evenodd;fill:rgb(94.117647%,89.019608%,92.54902%);fill-opacity:1;" d="M 9.539062 11.492188 L 10 11.402344 L 15.941406 8.460938 L 15.296875 7.085938 L 8.773438 10.359375 Z M 9.539062 11.492188 "/>
<path style=" stroke:none;fill-rule:evenodd;fill:rgb(94.117647%,89.019608%,92.54902%);fill-opacity:1;" d="M 9.539062 12.097656 L 10 12.1875 L 15.941406 15.128906 L 15.296875 16.507812 L 8.773438 13.230469 Z M 9.539062 12.097656 "/>
</g>
</svg>
