<?xml version="1.0" encoding="UTF-8"?>
<svg xmlns="http://www.w3.org/2000/svg" xmlns:xlink="http://www.w3.org/1999/xlink" width="32px" height="32px" viewBox="0 0 32 32" version="1.1">
<defs>
<filter id="alpha" filterUnits="objectBoundingBox" x="0%" y="0%" width="100%" height="100%">
  <feColorMatrix type="matrix" in="SourceGraphic" values="0 0 0 0 1 0 0 0 0 1 0 0 0 0 1 0 0 0 1 0"/>
</filter>
<mask id="mask0">
  <g filter="url(#alpha)">
<rect x="0" y="0" width="32" height="32" style="fill:rgb(0%,0%,0%);fill-opacity:0.35;stroke:none;"/>
  </g>
</mask>
<clipPath id="clip1">
  <rect x="0" y="0" width="32" height="32"/>
</clipPath>
<g id="surface5" clip-path="url(#clip1)">
<path style=" stroke:none;fill-rule:nonzero;fill:rgb(33.333334%,34.117648%,32.549021%);fill-opacity:1;" d="M 28 13 C 28 15.761719 22.628906 18 16 18 C 9.371094 18 4 15.761719 4 13 C 4 10.238281 9.371094 8 16 8 C 22.628906 8 28 10.238281 28 13 Z M 28 13 "/>
</g>
</defs>
<g id="surface1">
<path style=" stroke:none;fill-rule:nonzero;fill:rgb(33.333334%,34.117648%,32.549021%);fill-opacity:1;" d="M 16 4 C 7.164062 4 0 8.03125 0 13 C 0 22.390625 7.164062 30 16 30 C 24.835938 30 32 22.390625 32 13 C 32 8.03125 24.835938 4 16 4 Z M 16 8 C 22.628906 8 28 10.238281 28 13 C 28 15.761719 22.628906 18 16 18 C 9.371094 18 4 15.761719 4 13 C 4 10.238281 9.371094 8 16 8 Z M 16 8 "/>
<use xlink:href="#surface5" mask="url(#mask0)"/>
</g>
</svg>
