<?xml version="1.0" encoding="UTF-8"?>
<svg xmlns="http://www.w3.org/2000/svg" xmlns:xlink="http://www.w3.org/1999/xlink" width="32px" height="32px" viewBox="0 0 32 32" version="1.1">
<g id="surface1">
<path style="fill-rule:nonzero;fill:rgb(94.117647%,89.019608%,92.54902%);fill-opacity:1;stroke-width:1;stroke-linecap:butt;stroke-linejoin:round;stroke:rgb(90.196079%,0.784314%,70.588237%);stroke-opacity:1;stroke-miterlimit:4;" d="M 1 5 L 1 11 C 1 12 2 13 3 13 L 13 13 C 14 13 15 12 15 11 L 15 5 C 15 4 14 3 13 3 L 3 3 C 2 3 1 4 1 5 Z M 1 5 " transform="matrix(2,0,0,2,0,0)"/>
<path style="fill:none;stroke-width:1;stroke-linecap:round;stroke-linejoin:miter;stroke:rgb(95.294118%,71.764708%,85.09804%);stroke-opacity:1;stroke-miterlimit:4;" d="M 3.5 4 L 3.5 12 " transform="matrix(2,0,0,2,0,0)"/>
<path style="fill:none;stroke-width:1;stroke-linecap:round;stroke-linejoin:miter;stroke:rgb(95.294118%,71.764708%,85.09804%);stroke-opacity:1;stroke-miterlimit:4;" d="M 4.5 5 L 14 5 " transform="matrix(2,0,0,2,0,0)"/>
<path style="fill:none;stroke-width:1;stroke-linecap:round;stroke-linejoin:miter;stroke:rgb(95.294118%,71.764708%,85.09804%);stroke-opacity:1;stroke-miterlimit:4;" d="M 4.5 7 L 14 7 " transform="matrix(2,0,0,2,0,0)"/>
<path style="fill:none;stroke-width:1;stroke-linecap:round;stroke-linejoin:miter;stroke:rgb(95.294118%,71.764708%,85.09804%);stroke-opacity:1;stroke-miterlimit:4;" d="M 4.5 9 L 14 9 " transform="matrix(2,0,0,2,0,0)"/>
<path style="fill:none;stroke-width:1;stroke-linecap:round;stroke-linejoin:miter;stroke:rgb(95.294118%,71.764708%,85.09804%);stroke-opacity:1;stroke-miterlimit:4;" d="M 4.5 11 L 14 11 " transform="matrix(2,0,0,2,0,0)"/>
<path style="fill:none;stroke-width:0.5;stroke-linecap:round;stroke-linejoin:round;stroke:rgb(61.56863%,22.745098%,60.784316%);stroke-opacity:1;stroke-miterlimit:4;" d="M 2.140625 4.636719 L 2.990234 6.447266 C 3.306641 7.126953 3.888672 7.117188 4.453125 6.853516 C 5.132812 6.535156 5.238281 5.945312 5.027344 5.494141 L 3.542969 2.324219 C 3.332031 1.871094 2.892578 1.523438 2.439453 1.736328 C 1.986328 1.947266 1.972656 2.505859 2.185547 2.958984 C 2.396484 3.412109 2.763672 4.197266 3.033203 4.771484 C 3.148438 5.019531 3.451172 5.666016 3.558594 5.892578 C 3.734375 6.271484 4.449219 6.027344 4.236328 5.574219 L 3.5 4 " transform="matrix(2,0,0,2,0,0)"/>
</g>
</svg>
