<?xml version="1.0" encoding="UTF-8"?>
<svg xmlns="http://www.w3.org/2000/svg" xmlns:xlink="http://www.w3.org/1999/xlink" width="32px" height="32px" viewBox="0 0 32 32" version="1.1">
<g id="surface1">
<path style=" stroke:none;fill-rule:nonzero;fill:rgb(33.333334%,34.117648%,32.549021%);fill-opacity:1;" d="M 16 2 C 8.269531 2 2 8.269531 2 16 C 2 23.730469 8.269531 30 16 30 C 23.730469 30 30 23.730469 30 16 C 30 8.269531 23.730469 2 16 2 Z M 16 6 C 21.523438 6 26 10.476562 26 16 C 26 21.523438 21.523438 26 16 26 C 10.476562 26 6 21.523438 6 16 C 6 10.476562 10.476562 6 16 6 Z M 16 10 C 13.789062 10 12 11.789062 12 14 L 14 14 C 14 12.894531 14.894531 12 16 12 L 18 12 C 19.105469 12 20 12.894531 20 14 L 20 18 C 20 19.105469 19.105469 20 18 20 L 16 20 C 14.894531 20 14 19.105469 14 18 L 12 18 C 12 20.210938 13.789062 22 16 22 L 18 22 C 20.210938 22 22 20.210938 22 18 L 22 14 C 22 11.789062 20.210938 10 18 10 Z M 16 10 "/>
</g>
</svg>
