<?xml version="1.0" encoding="UTF-8"?>
<svg xmlns="http://www.w3.org/2000/svg" xmlns:xlink="http://www.w3.org/1999/xlink" width="32px" height="32px" viewBox="0 0 32 32" version="1.1">
<g id="surface1">
<path style="fill-rule:nonzero;fill:rgb(94.117647%,89.019608%,92.54902%);fill-opacity:1;stroke-width:1;stroke-linecap:butt;stroke-linejoin:round;stroke:rgb(90.196079%,0.784314%,70.588237%);stroke-opacity:1;stroke-miterlimit:4;" d="M 2 3.007812 L 2 12.994141 C 2 14 3 15 3.976562 15 L 11.964844 15 C 13 15 14 14 14 13.017578 L 14 3.029297 C 14 2 13 1 12.009766 1 L 3.966797 1 C 3 1 2 2 2 3.007812 Z M 2 3.007812 " transform="matrix(2,0,0,2,0,0)"/>
<path style="fill:none;stroke-width:1;stroke-linecap:round;stroke-linejoin:miter;stroke:rgb(61.56863%,22.745098%,60.784316%);stroke-opacity:1;stroke-miterlimit:4;" d="M 3.5 11.5 L 9.763672 11.5 " transform="matrix(2,0,0,2,0,0)"/>
<path style="fill:none;stroke-width:1;stroke-linecap:round;stroke-linejoin:miter;stroke:rgb(61.56863%,22.745098%,60.784316%);stroke-opacity:1;stroke-miterlimit:4;" d="M 3.5 13 L 12 13 " transform="matrix(2,0,0,2,0,0)"/>
<path style="fill:none;stroke-width:1;stroke-linecap:round;stroke-linejoin:miter;stroke:rgb(61.56863%,22.745098%,60.784316%);stroke-opacity:1;stroke-miterlimit:4;" d="M 3.5 10 L 9.763672 10 " transform="matrix(2,0,0,2,0,0)"/>
<path style="fill-rule:nonzero;fill:rgb(95.294118%,71.764708%,85.09804%);fill-opacity:1;stroke-width:0.3;stroke-linecap:butt;stroke-linejoin:miter;stroke:rgb(61.56863%,22.745098%,60.784316%);stroke-opacity:1;stroke-miterlimit:4;" d="M 13.900985 1.911686 L 12.699813 3.511296 L 14.297469 4.712468 L 15.498641 3.112858 L 15.000594 2.112858 Z M 13.900985 1.911686 " transform="matrix(2,0,0,2,0.592561,-1.030404)"/>
<path style="fill-rule:nonzero;fill:rgb(95.294118%,71.764708%,85.09804%);fill-opacity:1;stroke-width:0.2;stroke-linecap:butt;stroke-linejoin:miter;stroke:rgb(61.56863%,22.745098%,60.784316%);stroke-opacity:1;stroke-miterlimit:4;" d="M 7.793563 11.706608 L 8.195907 9.507389 L 8.895126 9.40778 L 8.785751 9.950749 L 9.301376 9.712468 L 9.186141 10.25153 L 9.703719 10.015202 L 9.793563 10.708561 L 7.793563 11.706608 " transform="matrix(2,0,0,2,0.592561,-1.030404)"/>
<path style="fill-rule:nonzero;fill:rgb(61.56863%,22.745098%,60.784316%);fill-opacity:1;stroke-width:0.1;stroke-linecap:butt;stroke-linejoin:miter;stroke:rgb(61.56863%,22.745098%,60.784316%);stroke-opacity:1;stroke-miterlimit:4;" d="M 8.133407 10.593327 L 8.676376 11.042546 L 7.793563 11.714421 Z M 8.133407 10.593327 " transform="matrix(2,0,0,2,0.592561,-1.030404)"/>
<path style="fill-rule:nonzero;fill:rgb(90.196079%,0.784314%,70.588237%);fill-opacity:1;stroke-width:0.1;stroke-linecap:butt;stroke-linejoin:miter;stroke:rgb(61.56863%,22.745098%,60.784316%);stroke-opacity:1;stroke-miterlimit:4;" d="M 12.699813 3.511296 L 14.297469 4.712468 L 9.793563 10.708561 L 9.703719 10.015202 L 9.186141 10.25153 L 9.22911 9.796452 L 8.785751 9.950749 L 8.838485 9.481999 L 8.195907 9.507389 Z M 12.699813 3.511296 " transform="matrix(2,0,0,2,0.592561,-1.030404)"/>
<path style="fill:none;stroke-width:0.7;stroke-linecap:butt;stroke-linejoin:round;stroke:rgb(61.56863%,22.745098%,60.784316%);stroke-opacity:1;stroke-miterlimit:4;" d="M 13.600204 2.310124 L 8.195907 9.507389 L 7.492782 12.106999 L 9.793563 10.708561 L 15.199813 3.511296 C 15.998641 2.480046 14.432235 1.233952 13.600204 2.310124 Z M 13.600204 2.310124 " transform="matrix(2,0,0,2,0.592561,-1.030404)"/>
<path style="fill-rule:nonzero;fill:rgb(90.196079%,0.784314%,70.588237%);fill-opacity:1;stroke-width:0.1;stroke-linecap:round;stroke-linejoin:round;stroke:rgb(90.196079%,0.784314%,70.588237%);stroke-opacity:1;stroke-miterlimit:4;" d="M 8.849529 4.062517 C 8.849412 5.285475 7.856893 6.277123 6.633936 6.277007 C 5.411097 6.278839 4.419448 5.286321 4.419565 4.063364 C 4.419564 2.838457 5.410133 1.846926 6.635039 1.846925 C 7.857997 1.847042 8.849646 2.83956 8.849529 4.062517 Z M 8.849529 4.062517 " transform="matrix(1.996325,0.121185,-0.121185,1.996325,1.146092,0.399495)"/>
<path style=" stroke:none;fill-rule:nonzero;fill:rgb(61.56863%,22.745098%,60.784316%);fill-opacity:1;" d="M 14.847656 2.800781 C 10.40625 2.425781 6.390625 4.6875 4.5625 8.902344 C 9.976562 2.21875 18.269531 5.054688 24.453125 9.882812 C 24.460938 9.886719 24.472656 9.890625 24.480469 9.894531 C 15.144531 16.398438 9.144531 14.398438 4.5625 8.902344 C 10.144531 19.398438 19.144531 14.398438 22.433594 11.714844 C 23.835938 12.15625 23.808594 12.226562 24.625 12.8125 C 24.414062 11.964844 23.632812 11.578125 23.144531 11.398438 C 24.09375 11.441406 24.6875 11.457031 25.402344 12.171875 C 24.964844 11.140625 24.335938 11.085938 23.710938 11.066406 C 24.53125 10.636719 24.507812 10.476562 24.535156 9.929688 C 25.542969 10.636719 27.796875 10.125 28.128906 8.820312 C 27.050781 10.289062 24.75 9.6875 24.6875 9.140625 C 24.625 9.054688 26.191406 8.671875 26.835938 8.039062 C 25.136719 8.640625 23.796875 8.023438 23.796875 8.023438 C 23.65625 7.855469 25.6875 7.894531 26.511719 6.523438 C 24.636719 7.898438 22.605469 6.601562 22.46875 6.453125 C 22.285156 6.257812 25.816406 6.675781 26.375 4.707031 C 24.609375 6.054688 21.308594 5.285156 21 5 C 18.972656 3.679688 16.867188 2.96875 14.847656 2.800781 Z M 14.847656 2.800781 "/>
<path style="fill-rule:nonzero;fill:rgb(61.56863%,22.745098%,60.784316%);fill-opacity:1;stroke-width:0.1;stroke-linecap:round;stroke-linejoin:round;stroke:rgb(90.196079%,0.784314%,70.588237%);stroke-opacity:1;stroke-miterlimit:4;" d="M 8.273942 4.089631 C 8.274149 4.99558 7.539891 5.728918 6.633942 5.729125 C 5.727993 5.729331 4.994655 4.995073 4.994448 4.089124 C 4.994241 3.183175 5.728381 2.447888 6.63433 2.447681 C 7.540279 2.447474 8.273735 3.183682 8.273942 4.089631 Z M 8.273942 4.089631 " transform="matrix(1.996325,0.121185,-0.121185,1.996325,1.146092,0.399495)"/>
<path style="fill-rule:nonzero;fill:rgb(95.294118%,71.764708%,85.09804%);fill-opacity:1;stroke-width:0.1;stroke-linecap:round;stroke-linejoin:round;stroke:rgb(95.294118%,71.764708%,85.09804%);stroke-opacity:1;stroke-miterlimit:4;" d="M 6.961405 3.29074 C 6.961225 3.867983 6.49267 4.336689 5.915427 4.336509 C 5.338183 4.336329 4.869596 3.869724 4.869658 3.290531 C 4.869838 2.713287 5.338511 2.246531 5.915636 2.244762 C 6.49288 2.244942 6.961585 2.713497 6.961405 3.29074 Z M 6.961405 3.29074 " transform="matrix(1.996325,0.121185,-0.121185,1.996325,1.146092,0.399495)"/>
</g>
</svg>
