<?xml version="1.0" encoding="UTF-8"?>
<svg xmlns="http://www.w3.org/2000/svg" xmlns:xlink="http://www.w3.org/1999/xlink" width="32px" height="32px" viewBox="0 0 32 32" version="1.1">
<g id="surface1">
<path style="fill-rule:nonzero;fill:rgb(94.117647%,89.019608%,92.54902%);fill-opacity:1;stroke-width:0.45;stroke-linecap:butt;stroke-linejoin:round;stroke:rgb(90.196079%,0.784314%,70.588237%);stroke-opacity:1;stroke-miterlimit:4;" d="M 2.900391 7.800781 L 6.5 7.800781 C 6.949219 7.800781 7.400391 7.349609 7.400391 6.900391 L 7.400391 3.300781 C 7.400391 2.849609 6.050781 1.5 5.599609 1.5 L 2.900391 1.5 C 2.449219 1.5 2 1.949219 2 2.400391 L 2 6.900391 C 2 7.349609 2.449219 7.800781 2.900391 7.800781 Z M 2.900391 7.800781 " transform="matrix(2,0,0,2,0,0)"/>
<path style="fill-rule:nonzero;fill:rgb(90.196079%,0.784314%,70.588237%);fill-opacity:1;stroke-width:0.45;stroke-linecap:butt;stroke-linejoin:round;stroke:rgb(90.196079%,0.784314%,70.588237%);stroke-opacity:1;stroke-miterlimit:4;" d="M 7.400391 3.300781 C 6.914062 2.425781 6.287109 1.890625 5.599609 1.5 L 5.599609 3.300781 L 7.400391 3.300781 " transform="matrix(2,0,0,2,0,0)"/>
<path style="fill:none;stroke-width:0.45;stroke-linecap:round;stroke-linejoin:miter;stroke:rgb(61.56863%,22.745098%,60.784316%);stroke-opacity:1;stroke-miterlimit:4;" d="M 2.900391 6.900391 L 6.5 6.900391 " transform="matrix(2,0,0,2,0,0)"/>
<path style="fill:none;stroke-width:0.45;stroke-linecap:round;stroke-linejoin:miter;stroke:rgb(61.56863%,22.745098%,60.784316%);stroke-opacity:1;stroke-miterlimit:4;" d="M 2.900391 6 L 6.5 6 " transform="matrix(2,0,0,2,0,0)"/>
<path style="fill:none;stroke-width:0.45;stroke-linecap:round;stroke-linejoin:miter;stroke:rgb(61.56863%,22.745098%,60.784316%);stroke-opacity:1;stroke-miterlimit:4;" d="M 2.900391 5.099609 L 6.5 5.099609 " transform="matrix(2,0,0,2,0,0)"/>
<path style="fill:none;stroke-width:0.45;stroke-linecap:round;stroke-linejoin:miter;stroke:rgb(61.56863%,22.745098%,60.784316%);stroke-opacity:1;stroke-miterlimit:4;" d="M 2.900391 4.199219 L 6.5 4.199219 " transform="matrix(2,0,0,2,0,0)"/>
<path style="fill:none;stroke-width:0.45;stroke-linecap:round;stroke-linejoin:miter;stroke:rgb(61.56863%,22.745098%,60.784316%);stroke-opacity:1;stroke-miterlimit:4;" d="M 2.900391 3.300781 L 4.699219 3.300781 " transform="matrix(2,0,0,2,0,0)"/>
<path style="fill:none;stroke-width:0.45;stroke-linecap:round;stroke-linejoin:miter;stroke:rgb(61.56863%,22.745098%,60.784316%);stroke-opacity:1;stroke-miterlimit:4;" d="M 2.900391 2.400391 L 4.699219 2.400391 " transform="matrix(2,0,0,2,0,0)"/>
<path style="fill-rule:nonzero;fill:rgb(94.117647%,89.019608%,92.54902%);fill-opacity:1;stroke-width:0.45;stroke-linecap:butt;stroke-linejoin:round;stroke:rgb(90.196079%,0.784314%,70.588237%);stroke-opacity:1;stroke-miterlimit:4;" d="M 2.900391 14.800781 L 6.5 14.800781 C 6.949219 14.800781 7.400391 14.349609 7.400391 13.900391 L 7.400391 10.300781 C 7.400391 9.849609 6.050781 8.5 5.599609 8.5 L 2.900391 8.5 C 2.449219 8.5 2 8.949219 2 9.400391 L 2 13.900391 C 2 14.349609 2.449219 14.800781 2.900391 14.800781 Z M 2.900391 14.800781 " transform="matrix(2,0,0,2,0,0)"/>
<path style="fill-rule:nonzero;fill:rgb(90.196079%,0.784314%,70.588237%);fill-opacity:1;stroke-width:0.45;stroke-linecap:butt;stroke-linejoin:round;stroke:rgb(90.196079%,0.784314%,70.588237%);stroke-opacity:1;stroke-miterlimit:4;" d="M 7.400391 10.300781 L 5.599609 8.5 L 5.599609 10.300781 L 7.400391 10.300781 " transform="matrix(2,0,0,2,0,0)"/>
<path style="fill:none;stroke-width:0.45;stroke-linecap:round;stroke-linejoin:miter;stroke:rgb(61.56863%,22.745098%,60.784316%);stroke-opacity:1;stroke-miterlimit:4;" d="M 2.900391 13.900391 L 6.5 13.900391 " transform="matrix(2,0,0,2,0,0)"/>
<path style="fill:none;stroke-width:0.45;stroke-linecap:round;stroke-linejoin:miter;stroke:rgb(61.56863%,22.745098%,60.784316%);stroke-opacity:1;stroke-miterlimit:4;" d="M 2.900391 13 L 6.5 13 " transform="matrix(2,0,0,2,0,0)"/>
<path style="fill:none;stroke-width:0.45;stroke-linecap:round;stroke-linejoin:miter;stroke:rgb(61.56863%,22.745098%,60.784316%);stroke-opacity:1;stroke-miterlimit:4;" d="M 2.900391 12.099609 L 6.5 12.099609 " transform="matrix(2,0,0,2,0,0)"/>
<path style="fill:none;stroke-width:0.45;stroke-linecap:round;stroke-linejoin:miter;stroke:rgb(61.56863%,22.745098%,60.784316%);stroke-opacity:1;stroke-miterlimit:4;" d="M 2.900391 11.199219 L 6.5 11.199219 " transform="matrix(2,0,0,2,0,0)"/>
<path style="fill:none;stroke-width:0.45;stroke-linecap:round;stroke-linejoin:miter;stroke:rgb(61.56863%,22.745098%,60.784316%);stroke-opacity:1;stroke-miterlimit:4;" d="M 2.900391 10.300781 L 4.699219 10.300781 " transform="matrix(2,0,0,2,0,0)"/>
<path style="fill:none;stroke-width:0.45;stroke-linecap:round;stroke-linejoin:miter;stroke:rgb(61.56863%,22.745098%,60.784316%);stroke-opacity:1;stroke-miterlimit:4;" d="M 2.900391 9.400391 L 4.699219 9.400391 " transform="matrix(2,0,0,2,0,0)"/>
<path style="fill-rule:nonzero;fill:rgb(94.117647%,89.019608%,92.54902%);fill-opacity:1;stroke-width:0.45;stroke-linecap:butt;stroke-linejoin:round;stroke:rgb(90.196079%,0.784314%,70.588237%);stroke-opacity:1;stroke-miterlimit:4;" d="M 9.400391 7.800781 L 13 7.800781 C 13.449219 7.800781 13.900391 7.349609 13.900391 6.900391 L 13.900391 3.300781 C 13.900391 2.849609 12.550781 1.5 12.099609 1.5 L 9.400391 1.5 C 8.949219 1.5 8.5 1.949219 8.5 2.400391 L 8.5 6.900391 C 8.5 7.349609 8.949219 7.800781 9.400391 7.800781 Z M 9.400391 7.800781 " transform="matrix(2,0,0,2,0,0)"/>
<path style="fill-rule:nonzero;fill:rgb(90.196079%,0.784314%,70.588237%);fill-opacity:1;stroke-width:0.45;stroke-linecap:butt;stroke-linejoin:round;stroke:rgb(90.196079%,0.784314%,70.588237%);stroke-opacity:1;stroke-miterlimit:4;" d="M 13.900391 3.300781 L 12.099609 1.5 L 12.099609 3.300781 L 13.900391 3.300781 " transform="matrix(2,0,0,2,0,0)"/>
<path style="fill:none;stroke-width:0.45;stroke-linecap:round;stroke-linejoin:miter;stroke:rgb(61.56863%,22.745098%,60.784316%);stroke-opacity:1;stroke-miterlimit:4;" d="M 9.400391 6.900391 L 13 6.900391 " transform="matrix(2,0,0,2,0,0)"/>
<path style="fill:none;stroke-width:0.45;stroke-linecap:round;stroke-linejoin:miter;stroke:rgb(61.56863%,22.745098%,60.784316%);stroke-opacity:1;stroke-miterlimit:4;" d="M 9.400391 6 L 13 6 " transform="matrix(2,0,0,2,0,0)"/>
<path style="fill:none;stroke-width:0.45;stroke-linecap:round;stroke-linejoin:miter;stroke:rgb(61.56863%,22.745098%,60.784316%);stroke-opacity:1;stroke-miterlimit:4;" d="M 9.400391 5.099609 L 13 5.099609 " transform="matrix(2,0,0,2,0,0)"/>
<path style="fill:none;stroke-width:0.45;stroke-linecap:round;stroke-linejoin:miter;stroke:rgb(61.56863%,22.745098%,60.784316%);stroke-opacity:1;stroke-miterlimit:4;" d="M 9.400391 4.199219 L 13 4.199219 " transform="matrix(2,0,0,2,0,0)"/>
<path style="fill:none;stroke-width:0.45;stroke-linecap:round;stroke-linejoin:miter;stroke:rgb(61.56863%,22.745098%,60.784316%);stroke-opacity:1;stroke-miterlimit:4;" d="M 9.400391 3.300781 L 11.199219 3.300781 " transform="matrix(2,0,0,2,0,0)"/>
<path style="fill:none;stroke-width:0.45;stroke-linecap:round;stroke-linejoin:miter;stroke:rgb(61.56863%,22.745098%,60.784316%);stroke-opacity:1;stroke-miterlimit:4;" d="M 9.400391 2.400391 L 11.199219 2.400391 " transform="matrix(2,0,0,2,0,0)"/>
<path style="fill-rule:nonzero;fill:rgb(94.117647%,89.019608%,92.54902%);fill-opacity:1;stroke-width:0.45;stroke-linecap:butt;stroke-linejoin:round;stroke:rgb(90.196079%,0.784314%,70.588237%);stroke-opacity:1;stroke-miterlimit:4;" d="M 9.400391 14.699219 L 13 14.699219 C 13.449219 14.699219 13.900391 14.25 13.900391 13.800781 L 13.900391 10.199219 C 13.900391 9.75 12.550781 8.400391 12.099609 8.400391 L 9.400391 8.400391 C 8.949219 8.400391 8.5 8.849609 8.5 9.300781 L 8.5 13.800781 C 8.5 14.25 8.949219 14.699219 9.400391 14.699219 Z M 9.400391 14.699219 " transform="matrix(2,0,0,2,0,0)"/>
<path style="fill-rule:nonzero;fill:rgb(90.196079%,0.784314%,70.588237%);fill-opacity:1;stroke-width:0.45;stroke-linecap:butt;stroke-linejoin:round;stroke:rgb(90.196079%,0.784314%,70.588237%);stroke-opacity:1;stroke-miterlimit:4;" d="M 13.900391 10.199219 L 12.099609 8.5 L 12.099609 10.199219 L 13.900391 10.199219 " transform="matrix(2,0,0,2,0,0)"/>
<path style="fill:none;stroke-width:0.45;stroke-linecap:round;stroke-linejoin:miter;stroke:rgb(61.56863%,22.745098%,60.784316%);stroke-opacity:1;stroke-miterlimit:4;" d="M 9.400391 13.800781 L 13 13.800781 " transform="matrix(2,0,0,2,0,0)"/>
<path style="fill:none;stroke-width:0.45;stroke-linecap:round;stroke-linejoin:miter;stroke:rgb(61.56863%,22.745098%,60.784316%);stroke-opacity:1;stroke-miterlimit:4;" d="M 9.400391 12.900391 L 13 12.900391 " transform="matrix(2,0,0,2,0,0)"/>
<path style="fill:none;stroke-width:0.45;stroke-linecap:round;stroke-linejoin:miter;stroke:rgb(61.56863%,22.745098%,60.784316%);stroke-opacity:1;stroke-miterlimit:4;" d="M 9.400391 12 L 13 12 " transform="matrix(2,0,0,2,0,0)"/>
<path style="fill:none;stroke-width:0.45;stroke-linecap:round;stroke-linejoin:miter;stroke:rgb(61.56863%,22.745098%,60.784316%);stroke-opacity:1;stroke-miterlimit:4;" d="M 9.400391 11.099609 L 13 11.099609 " transform="matrix(2,0,0,2,0,0)"/>
<path style="fill:none;stroke-width:0.45;stroke-linecap:round;stroke-linejoin:miter;stroke:rgb(61.56863%,22.745098%,60.784316%);stroke-opacity:1;stroke-miterlimit:4;" d="M 9.400391 10.199219 L 11.199219 10.199219 " transform="matrix(2,0,0,2,0,0)"/>
<path style="fill:none;stroke-width:0.45;stroke-linecap:round;stroke-linejoin:miter;stroke:rgb(61.56863%,22.745098%,60.784316%);stroke-opacity:1;stroke-miterlimit:4;" d="M 9.400391 9.300781 L 11.199219 9.300781 " transform="matrix(2,0,0,2,0,0)"/>
</g>
</svg>
