<?xml version="1.0" encoding="UTF-8"?>
<svg xmlns="http://www.w3.org/2000/svg" xmlns:xlink="http://www.w3.org/1999/xlink" width="32px" height="32px" viewBox="0 0 32 32" version="1.1">
<g id="surface1">
<path style=" stroke:none;fill-rule:nonzero;fill:rgb(61.56863%,22.745098%,60.784316%);fill-opacity:1;" d="M 21.609375 11.179688 L 14.59375 12.007812 L 14.332031 10.761719 L 17.292969 9.449219 L 12 6 L 12.988281 4.484375 L 18.28125 7.933594 L 18.261719 4.730469 L 19.53125 4.429688 Z M 21.609375 11.179688 "/>
<path style="fill-rule:nonzero;fill:rgb(94.117647%,89.019608%,92.54902%);fill-opacity:1;stroke-width:0.264583;stroke-linecap:square;stroke-linejoin:miter;stroke:rgb(90.196079%,0.784314%,70.588237%);stroke-opacity:1;stroke-miterlimit:4;" d="M 0.529166 0.396875 L 1.058333 0.396875 C 1.131197 0.396875 1.190625 0.456303 1.190625 0.529167 L 1.190625 1.058333 C 1.190625 1.131197 1.131197 1.190625 1.058333 1.190625 L 0.529166 1.190625 C 0.456303 1.190625 0.396875 1.131197 0.396875 1.058333 L 0.396875 0.529167 C 0.396875 0.456303 0.456303 0.396875 0.529166 0.396875 Z M 0.529166 0.396875 " transform="matrix(7.559055,0,0,7.559055,0.00000180222,0)"/>
<path style="fill-rule:nonzero;fill:rgb(94.117647%,89.019608%,92.54902%);fill-opacity:1;stroke-width:0.264583;stroke-linecap:square;stroke-linejoin:miter;stroke:rgb(90.196079%,0.784314%,70.588237%);stroke-opacity:1;stroke-miterlimit:4;" d="M 0.529166 3.042709 L 1.058333 3.042709 C 1.131197 3.042709 1.190625 3.102136 1.190625 3.175 L 1.190625 3.704167 C 1.190625 3.777031 1.131197 3.836459 1.058333 3.836459 L 0.529166 3.836459 C 0.456303 3.836459 0.396875 3.777031 0.396875 3.704167 L 0.396875 3.175 C 0.396875 3.102136 0.456303 3.042709 0.529166 3.042709 Z M 0.529166 3.042709 " transform="matrix(7.559055,0,0,7.559055,0.00000180222,0)"/>
<path style="fill:none;stroke-width:0.264583;stroke-linecap:round;stroke-linejoin:round;stroke:rgb(90.196079%,0.784314%,70.588237%);stroke-opacity:1;stroke-miterlimit:4;" d="M 0.926041 1.5875 L 0.926041 2.645833 " transform="matrix(7.559055,0,0,7.559055,0.00000180222,0)"/>
<path style="fill:none;stroke-width:0.264583;stroke-linecap:round;stroke-linejoin:round;stroke:rgb(90.196079%,0.784314%,70.588237%);stroke-opacity:1;stroke-miterlimit:4;" d="M 0.396875 2.116667 L 1.455208 2.116667 " transform="matrix(7.559055,0,0,7.559055,0.00000180222,0)"/>
<path style="fill-rule:nonzero;fill:rgb(94.117647%,89.019608%,92.54902%);fill-opacity:1;stroke-width:0.264583;stroke-linecap:square;stroke-linejoin:miter;stroke:rgb(90.196079%,0.784314%,70.588237%);stroke-opacity:1;stroke-miterlimit:4;" d="M 3.175 1.719792 L 3.704167 1.719792 C 3.77703 1.719792 3.836458 1.77922 3.836458 1.852083 L 3.836458 2.38125 C 3.836458 2.454114 3.77703 2.513542 3.704167 2.513542 L 3.175 2.513542 C 3.102136 2.513542 3.042708 2.454114 3.042708 2.38125 L 3.042708 1.852083 C 3.042708 1.77922 3.102136 1.719792 3.175 1.719792 Z M 3.175 1.719792 " transform="matrix(7.559055,0,0,7.559055,0.00000180222,0)"/>
<path style=" stroke:none;fill-rule:nonzero;fill:rgb(61.56863%,22.745098%,60.784316%);fill-opacity:1;" d="M 21.609375 20.820312 L 14.59375 19.992188 L 14.332031 21.238281 L 17.292969 22.550781 L 12 26 L 12.988281 27.515625 L 18.28125 24.066406 L 18.261719 27.269531 L 19.53125 27.570312 Z M 21.609375 20.820312 "/>
</g>
</svg>
