<?xml version="1.0" encoding="UTF-8"?>
<svg xmlns="http://www.w3.org/2000/svg" xmlns:xlink="http://www.w3.org/1999/xlink" width="32px" height="32px" viewBox="0 0 32 32" version="1.1">
<g id="surface1">
<path style=" stroke:none;fill-rule:nonzero;fill:rgb(33.333334%,34.117648%,32.549021%);fill-opacity:1;" d="M 14 2 L 14 6 L 30 6 L 30 2 Z M 14 8 L 14 12 L 22 12 L 22 8 Z M 4 10 L 4 14 L 0 14 L 0 18 L 4 18 L 4 22 L 8 22 L 8 18 L 12 18 L 12 14 L 8 14 L 8 10 Z M 14 20 L 14 24 L 30 24 L 30 20 Z M 14 26 L 14 30 L 22 30 L 22 26 Z M 14 26 "/>
</g>
</svg>
