<?xml version="1.0" encoding="UTF-8"?>
<svg xmlns="http://www.w3.org/2000/svg" xmlns:xlink="http://www.w3.org/1999/xlink" width="32px" height="32px" viewBox="0 0 32 32" version="1.1">
<g id="surface1">
<path style="fill:none;stroke-width:1;stroke-linecap:round;stroke-linejoin:miter;stroke:rgb(61.56863%,22.745098%,60.784316%);stroke-opacity:1;stroke-miterlimit:4;" d="M -21.208961 6.796227 C -22.259743 7.649743 -23.550758 8.229821 -24.990211 8.419274 C -29.138649 8.962243 -32.943336 6.040368 -33.486305 1.89193 C -33.585915 1.126305 -33.568336 0.370446 -33.447243 -0.354164 M -32.53318 -2.883461 C -31.999977 -3.807289 -31.273415 -4.611976 -30.402321 -5.240882 " transform="matrix(2,0,0,2,68.882767,13.102859)"/>
<path style="fill-rule:nonzero;fill:rgb(95.294118%,71.764708%,85.09804%);fill-opacity:1;stroke-width:1;stroke-linecap:round;stroke-linejoin:miter;stroke:rgb(61.56863%,22.745098%,60.784316%);stroke-opacity:1;stroke-miterlimit:4;" d="M -20.640602 3.86068 C -21.546852 5.493493 -23.18943 6.690758 -25.183571 6.952477 C -28.521461 7.389977 -31.582008 5.038414 -32.019508 1.700524 C -32.457008 -1.637367 -30.105446 -4.697914 -26.767555 -5.135414 C -23.429665 -5.572914 -20.369118 -3.221351 -19.931618 0.116539 C -19.874977 0.540368 -19.865211 0.962243 -19.896461 1.372399 " transform="matrix(2,0,0,2,68.882767,13.102859)"/>
<path style="fill:none;stroke-width:1;stroke-linecap:round;stroke-linejoin:miter;stroke:rgb(61.56863%,22.745098%,60.784316%);stroke-opacity:1;stroke-miterlimit:4;" d="M -32.00193 -5.865882 L -30.18943 -3.582679 " transform="matrix(2,0,0,2,68.882767,13.102859)"/>
<path style="fill:none;stroke-width:1;stroke-linecap:round;stroke-linejoin:miter;stroke:rgb(61.56863%,22.745098%,60.784316%);stroke-opacity:1;stroke-miterlimit:4;" d="M -22.812477 6.544274 L -20.999977 8.82943 " transform="matrix(2,0,0,2,68.882767,13.102859)"/>
<path style=" stroke:none;fill-rule:nonzero;fill:rgb(61.56863%,22.745098%,60.784316%);fill-opacity:1;" d="M 3.695312 9.816406 C 3.695312 10.449219 3.183594 10.964844 2.546875 10.964844 C 1.914062 10.964844 1.398438 10.449219 1.398438 9.816406 C 1.398438 9.179688 1.914062 8.667969 2.546875 8.667969 C 3.183594 8.667969 3.695312 9.179688 3.695312 9.816406 Z M 3.695312 9.816406 "/>
<path style=" stroke:none;fill-rule:nonzero;fill:rgb(61.56863%,22.745098%,60.784316%);fill-opacity:1;" d="M 29.882812 18.527344 C 29.882812 19.164062 29.367188 19.675781 28.734375 19.675781 C 28.097656 19.675781 27.585938 19.164062 27.585938 18.527344 C 27.585938 17.894531 28.097656 17.378906 28.734375 17.378906 C 29.367188 17.378906 29.882812 17.894531 29.882812 18.527344 Z M 29.882812 18.527344 "/>
<path style="fill-rule:nonzero;fill:rgb(61.56863%,22.745098%,60.784316%);fill-opacity:1;stroke-width:1;stroke-linecap:butt;stroke-linejoin:miter;stroke:rgb(61.56863%,22.745098%,60.784316%);stroke-opacity:1;stroke-miterlimit:4;" d="M -31.642555 5.233727 C -29.00779 4.708336 -28.062477 3.663414 -26.785133 1.968102 L -27.427711 1.202477 L -25.499977 0.999352 L -25.499977 3.499352 L -26.142555 2.733727 C -27.480446 4.284508 -28.003883 5.73568 -30.999977 5.999352 Z M -31.642555 5.233727 " transform="matrix(2,0,0,2,68.882767,13.102859)"/>
<path style=" stroke:none;fill-rule:nonzero;fill:rgb(61.56863%,22.745098%,60.784316%);fill-opacity:1;" d="M 15.882812 13.101562 L 19.882812 13.101562 L 19.882812 17.101562 C 24.882812 11.101562 24.882812 10.101562 24.882812 5.101562 C 22.882812 5.101562 24.882812 5.101562 20.882812 3.101562 C 20.882812 8.101562 19.882812 11.101562 15.882812 13.101562 Z M 15.882812 13.101562 "/>
<path style="fill:none;stroke-width:1;stroke-linecap:butt;stroke-linejoin:miter;stroke:rgb(61.56863%,22.745098%,60.784316%);stroke-opacity:1;stroke-miterlimit:4;" d="M -29.999977 -3.500648 L -21.999977 5.499352 " transform="matrix(2,0,0,2,68.882767,13.102859)"/>
<path style="fill:none;stroke-width:1;stroke-linecap:butt;stroke-linejoin:miter;stroke:rgb(61.56863%,22.745098%,60.784316%);stroke-opacity:1;stroke-miterlimit:4;" d="M -29.941383 -3.551429 C -26.999977 -6.500648 -17.999977 1.999352 -21.999977 5.499352 C -25.999977 8.999352 -32.88279 -0.602211 -29.941383 -3.551429 Z M -29.941383 -3.551429 " transform="matrix(2,0,0,2,68.882767,13.102859)"/>
<path style="fill:none;stroke-width:1;stroke-linecap:butt;stroke-linejoin:miter;stroke:rgb(61.56863%,22.745098%,60.784316%);stroke-opacity:1;stroke-miterlimit:4;" d="M -31.999977 2.499352 L -24.499977 -5.000648 " transform="matrix(2,0,0,2,68.882767,13.102859)"/>
<path style="fill:none;stroke-width:1;stroke-linecap:butt;stroke-linejoin:miter;stroke:rgb(61.56863%,22.745098%,60.784316%);stroke-opacity:1;stroke-miterlimit:4;" d="M -26.499977 6.999352 L -19.999977 -0.500648 " transform="matrix(2,0,0,2,68.882767,13.102859)"/>
<path style="fill-rule:nonzero;fill:rgb(95.294118%,71.764708%,85.09804%);fill-opacity:1;stroke-width:0.89504;stroke-linecap:butt;stroke-linejoin:round;stroke:rgb(90.196079%,0.784314%,70.588237%);stroke-opacity:1;stroke-miterlimit:4;" d="M 7.499748 18.000554 L 12.499843 29.000346 C 12.499843 29.000346 9.200321 27.999185 7.499402 28.000397 C 5.799349 27.999704 2.5 29 2.5 29 Z M 7.499748 18.000554 " transform="matrix(1.7,-0.772727,0.772727,1.7,-13.659091,-17.368183)"/>
<path style=" stroke:none;fill-rule:nonzero;fill:rgb(61.56863%,22.745098%,60.784316%);fill-opacity:1;" d="M 15.703125 13.386719 L 24.203125 20.804688 C 24.203125 20.804688 21.011719 21.230469 19.566406 21.886719 C 18.125 22.542969 15.703125 24.667969 15.703125 24.667969 Z M 15.703125 13.386719 "/>
</g>
</svg>
