<?xml version="1.0" encoding="UTF-8"?>
<svg xmlns="http://www.w3.org/2000/svg" xmlns:xlink="http://www.w3.org/1999/xlink" width="32px" height="32px" viewBox="0 0 32 32" version="1.1">
<g id="surface1">
<path style="fill-rule:nonzero;fill:rgb(90.196079%,0.784314%,70.588237%);fill-opacity:1;stroke-width:0.0838989;stroke-linecap:round;stroke-linejoin:round;stroke:rgb(90.196079%,0.784314%,70.588237%);stroke-opacity:1;stroke-miterlimit:4;" d="M 8.849184 4.062559 C 8.849551 5.285579 7.857502 6.278268 6.634482 6.278635 C 5.411363 6.277367 4.418674 5.285318 4.418307 4.062298 C 4.419575 2.839178 5.409988 1.846589 6.634743 1.847758 C 7.857763 1.847391 8.848816 2.839539 8.849184 4.062559 Z M 8.849184 4.062559 " transform="matrix(2.37944,0.144442,-0.144442,2.37944,-2.070863,6.64113)"/>
<path style=" stroke:none;fill-rule:nonzero;fill:rgb(61.56863%,22.745098%,60.784316%);fill-opacity:1;" d="M 14.261719 9.5 C 8.96875 9.058594 4.179688 11.75 2 16.773438 C 8.453125 8.808594 18.339844 12.1875 25.707031 17.945312 C 25.71875 17.949219 25.730469 17.953125 25.738281 17.960938 C 14.617188 25.710938 7.464844 23.328125 2 16.773438 C 8.65625 29.289062 19.382812 23.328125 23.304688 20.128906 C 24.972656 20.652344 24.941406 20.738281 25.914062 21.4375 C 25.660156 20.429688 24.730469 19.964844 24.152344 19.753906 C 25.28125 19.800781 25.988281 19.820312 26.839844 20.671875 C 26.316406 19.445312 25.570312 19.378906 24.824219 19.355469 C 25.804688 18.84375 25.773438 18.652344 25.808594 18 C 27.007812 18.84375 29.695312 18.234375 30.089844 16.679688 C 28.804688 18.429688 26.0625 17.710938 25.992188 17.0625 C 25.914062 16.957031 27.78125 16.5 28.546875 15.746094 C 26.523438 16.464844 24.929688 15.726562 24.929688 15.726562 C 24.761719 15.527344 27.179688 15.578125 28.164062 13.941406 C 25.925781 15.578125 23.507812 14.035156 23.34375 13.859375 C 23.125 13.625 27.332031 14.125 28 11.777344 C 25.894531 13.382812 21.960938 12.464844 21.59375 12.125 C 19.175781 10.550781 16.667969 9.703125 14.261719 9.5 Z M 14.261719 9.5 "/>
<path style="fill-rule:nonzero;fill:rgb(61.56863%,22.745098%,60.784316%);fill-opacity:1;stroke-width:0.0838989;stroke-linecap:round;stroke-linejoin:round;stroke:rgb(90.196079%,0.784314%,70.588237%);stroke-opacity:1;stroke-miterlimit:4;" d="M 8.274577 4.089232 C 8.27531 4.993746 7.540182 5.729513 6.633933 5.72871 C 5.727783 5.729542 4.993651 4.994314 4.994455 4.088065 C 4.993623 3.181915 5.72885 2.447783 6.633464 2.448686 C 7.539614 2.447854 8.275381 3.182982 8.274577 4.089232 Z M 8.274577 4.089232 " transform="matrix(2.37944,0.144442,-0.144442,2.37944,-2.070863,6.64113)"/>
<path style="fill-rule:nonzero;fill:rgb(95.294118%,71.764708%,85.09804%);fill-opacity:1;stroke-width:0.0838989;stroke-linecap:round;stroke-linejoin:round;stroke:rgb(95.294118%,71.764708%,85.09804%);stroke-opacity:1;stroke-miterlimit:4;" d="M 6.960379 3.290717 C 6.96098 3.868547 6.493627 4.336884 5.915796 4.337486 C 5.337866 4.336452 4.869529 3.869098 4.868928 3.291268 C 4.869962 2.713338 5.337315 2.245001 5.915245 2.246035 C 6.493075 2.245433 6.961512 2.714423 6.960379 3.290717 Z M 6.960379 3.290717 " transform="matrix(2.37944,0.144442,-0.144442,2.37944,-2.070863,6.64113)"/>
</g>
</svg>
