<?xml version="1.0" encoding="UTF-8"?>
<svg xmlns="http://www.w3.org/2000/svg" xmlns:xlink="http://www.w3.org/1999/xlink" width="32px" height="32px" viewBox="0 0 32 32" version="1.1">
<g id="surface1">
<path style=" stroke:none;fill-rule:nonzero;fill:rgb(33.333334%,34.117648%,32.549021%);fill-opacity:1;" d="M 2 0 L 2 30 L 12.113281 30 C 12.136719 29.894531 12.132812 29.785156 12.167969 29.679688 L 14 24.179688 L 14 22 L 14.691406 22 C 14.777344 21.304688 14.945312 20.636719 15.195312 20 L 14 20 L 14 16 L 18.414062 16 C 19.515625 15.269531 20.796875 14.808594 22.171875 14.667969 L 24.179688 14 L 22 14 L 22 10 L 28 10 L 28 12.726562 L 29.671875 12.171875 C 30.003906 12.0625 30.339844 12.003906 30.679688 12 L 30.6875 12 C 31.160156 11.996094 31.597656 12.113281 32 12.296875 L 32 0 Z M 6 4 L 12 4 L 12 8 L 6 8 Z M 14 4 L 20 4 L 20 8 L 14 8 Z M 22 4 L 28 4 L 28 8 L 22 8 Z M 6 10 L 12 10 L 12 14 L 6 14 Z M 14 10 L 20 10 L 20 14 L 14 14 Z M 30.703125 14 C 30.570312 14 30.4375 14.023438 30.308594 14.066406 L 22.699219 16.601562 C 19.464844 16.765625 16.765625 19.464844 16.601562 22.699219 L 14.066406 30.308594 C 13.734375 31.3125 14.6875 32.265625 15.691406 31.933594 L 23.300781 29.398438 C 26.535156 29.234375 29.234375 26.535156 29.398438 23.300781 L 31.933594 15.691406 C 32.210938 14.855469 31.585938 13.992188 30.703125 14 Z M 6 16 L 12 16 L 12 20 L 6 20 Z M 23 20 C 24.65625 20 26 21.34375 26 23 C 26 24.65625 24.65625 26 23 26 C 21.34375 26 20 24.65625 20 23 C 20 21.34375 21.34375 20 23 20 Z M 6 22 L 12 22 L 12 26 L 6 26 Z M 6 22 "/>
</g>
</svg>
