<?xml version="1.0" encoding="UTF-8"?>
<svg xmlns="http://www.w3.org/2000/svg" xmlns:xlink="http://www.w3.org/1999/xlink" width="32px" height="32px" viewBox="0 0 32 32" version="1.1">
<g id="surface1">
<path style="fill-rule:nonzero;fill:rgb(94.117647%,89.019608%,92.54902%);fill-opacity:1;stroke-width:0.5625;stroke-linecap:butt;stroke-linejoin:round;stroke:rgb(90.196079%,0.784314%,70.588237%);stroke-opacity:1;stroke-miterlimit:4;" d="M 2.125 15.5 L 6.625 15.5 C 7.1875 15.5 7.75 14.9375 7.75 14.375 L 7.75 9.875 C 7.75 9.3125 6.0625 7.625 5.5 7.625 L 2.125 7.625 C 1.5625 7.625 1 8.1875 1 8.75 L 1 14.375 C 1 14.9375 1.5625 15.5 2.125 15.5 Z M 2.125 15.5 " transform="matrix(2,0,0,2,-0.25,-7)"/>
<path style="fill-rule:nonzero;fill:rgb(90.196079%,0.784314%,70.588237%);fill-opacity:1;stroke-width:0.5625;stroke-linecap:butt;stroke-linejoin:round;stroke:rgb(90.196079%,0.784314%,70.588237%);stroke-opacity:1;stroke-miterlimit:4;" d="M 7.75 9.875 L 5.5 7.625 L 5.5 9.875 L 7.75 9.875 " transform="matrix(2,0,0,2,-0.25,-7)"/>
<path style="fill:none;stroke-width:0.5625;stroke-linecap:round;stroke-linejoin:miter;stroke:rgb(61.56863%,22.745098%,60.784316%);stroke-opacity:1;stroke-miterlimit:4;" d="M 2.125 14.375 L 6.625 14.375 " transform="matrix(2,0,0,2,-0.25,-7)"/>
<path style="fill:none;stroke-width:0.5625;stroke-linecap:round;stroke-linejoin:miter;stroke:rgb(61.56863%,22.745098%,60.784316%);stroke-opacity:1;stroke-miterlimit:4;" d="M 2.125 13.25 L 6.625 13.25 " transform="matrix(2,0,0,2,-0.25,-7)"/>
<path style="fill:none;stroke-width:0.5625;stroke-linecap:round;stroke-linejoin:miter;stroke:rgb(61.56863%,22.745098%,60.784316%);stroke-opacity:1;stroke-miterlimit:4;" d="M 2.125 12.125 L 6.625 12.125 " transform="matrix(2,0,0,2,-0.25,-7)"/>
<path style="fill:none;stroke-width:0.5625;stroke-linecap:round;stroke-linejoin:miter;stroke:rgb(61.56863%,22.745098%,60.784316%);stroke-opacity:1;stroke-miterlimit:4;" d="M 2.125 11 L 6.625 11 " transform="matrix(2,0,0,2,-0.25,-7)"/>
<path style="fill:none;stroke-width:0.5625;stroke-linecap:round;stroke-linejoin:miter;stroke:rgb(61.56863%,22.745098%,60.784316%);stroke-opacity:1;stroke-miterlimit:4;" d="M 2.125 9.875 L 4.375 9.875 " transform="matrix(2,0,0,2,-0.25,-7)"/>
<path style="fill:none;stroke-width:0.5625;stroke-linecap:round;stroke-linejoin:miter;stroke:rgb(61.56863%,22.745098%,60.784316%);stroke-opacity:1;stroke-miterlimit:4;" d="M 2.125 8.75 L 4.375 8.75 " transform="matrix(2,0,0,2,-0.25,-7)"/>
<path style="fill-rule:nonzero;fill:rgb(94.117647%,89.019608%,92.54902%);fill-opacity:1;stroke-width:0.5625;stroke-linecap:butt;stroke-linejoin:round;stroke:rgb(90.196079%,0.784314%,70.588237%);stroke-opacity:1;stroke-miterlimit:4;" d="M 2.125 15.5 L 6.625 15.5 C 7.1875 15.5 7.75 14.9375 7.75 14.375 L 7.75 9.875 C 7.75 9.3125 6.0625 7.625 5.5 7.625 L 2.125 7.625 C 1.5625 7.625 1 8.1875 1 8.75 L 1 14.375 C 1 14.9375 1.5625 15.5 2.125 15.5 Z M 2.125 15.5 " transform="matrix(2,0,0,2,14.75,-7)"/>
<path style="fill-rule:nonzero;fill:rgb(90.196079%,0.784314%,70.588237%);fill-opacity:1;stroke-width:0.5625;stroke-linecap:butt;stroke-linejoin:round;stroke:rgb(90.196079%,0.784314%,70.588237%);stroke-opacity:1;stroke-miterlimit:4;" d="M 7.75 9.875 L 5.5 7.625 L 5.5 9.875 L 7.75 9.875 " transform="matrix(2,0,0,2,14.75,-7)"/>
<path style="fill:none;stroke-width:0.5625;stroke-linecap:round;stroke-linejoin:miter;stroke:rgb(61.56863%,22.745098%,60.784316%);stroke-opacity:1;stroke-miterlimit:4;" d="M 2.125 14.375 L 6.625 14.375 " transform="matrix(2,0,0,2,14.75,-7)"/>
<path style="fill:none;stroke-width:0.5625;stroke-linecap:round;stroke-linejoin:miter;stroke:rgb(61.56863%,22.745098%,60.784316%);stroke-opacity:1;stroke-miterlimit:4;" d="M 2.125 13.25 L 6.625 13.25 " transform="matrix(2,0,0,2,14.75,-7)"/>
<path style="fill:none;stroke-width:0.5625;stroke-linecap:round;stroke-linejoin:miter;stroke:rgb(61.56863%,22.745098%,60.784316%);stroke-opacity:1;stroke-miterlimit:4;" d="M 2.125 12.125 L 6.625 12.125 " transform="matrix(2,0,0,2,14.75,-7)"/>
<path style="fill:none;stroke-width:0.5625;stroke-linecap:round;stroke-linejoin:miter;stroke:rgb(61.56863%,22.745098%,60.784316%);stroke-opacity:1;stroke-miterlimit:4;" d="M 2.125 11 L 6.625 11 " transform="matrix(2,0,0,2,14.75,-7)"/>
<path style="fill:none;stroke-width:0.5625;stroke-linecap:round;stroke-linejoin:miter;stroke:rgb(61.56863%,22.745098%,60.784316%);stroke-opacity:1;stroke-miterlimit:4;" d="M 2.125 9.875 L 4.375 9.875 " transform="matrix(2,0,0,2,14.75,-7)"/>
<path style="fill:none;stroke-width:0.5625;stroke-linecap:round;stroke-linejoin:miter;stroke:rgb(61.56863%,22.745098%,60.784316%);stroke-opacity:1;stroke-miterlimit:4;" d="M 2.125 8.75 L 4.375 8.75 " transform="matrix(2,0,0,2,14.75,-7)"/>
</g>
</svg>
