<?xml version="1.0" encoding="UTF-8"?>
<svg xmlns="http://www.w3.org/2000/svg" xmlns:xlink="http://www.w3.org/1999/xlink" width="32px" height="32px" viewBox="0 0 32 32" version="1.1">
<g id="surface1">
<path style=" stroke:none;fill-rule:nonzero;fill:rgb(33.333334%,34.117648%,32.549021%);fill-opacity:1;" d="M 24 0 L 24 5.125 L 23.4375 4.5625 C 23.0625 4.1875 22.53125 4 22 4 L 20 4 L 20 6 C 20 6.53125 20.1875 7.0625 20.5625 7.4375 L 25.125 12 L 26.875 12 L 31.4375 7.4375 C 31.8125 7.0625 32 6.53125 32 6 L 32 4 L 30 4 C 29.46875 4 28.9375 4.1875 28.5625 4.5625 L 28 5.125 L 28 0 Z M 4 6 L 4 10 L 14 10 C 15.105469 10 16 10.894531 16 12 L 16 14 L 6 14 C 2.6875 14 0 16.6875 0 20 C 0 23.3125 2.6875 26 6 26 L 20 26 L 20 12 C 20 8.6875 17.3125 6 14 6 Z M 6 18 L 16 18 L 16 22 L 6 22 C 4.894531 22 4 21.105469 4 20 C 4 18.894531 4.894531 18 6 18 Z M 6 18 "/>
</g>
</svg>
