<?xml version="1.0" encoding="UTF-8"?>
<svg xmlns="http://www.w3.org/2000/svg" xmlns:xlink="http://www.w3.org/1999/xlink" width="32px" height="32px" viewBox="0 0 32 32" version="1.1">
<g id="surface1">
<path style="fill-rule:nonzero;fill:rgb(94.117647%,89.019608%,92.54902%);fill-opacity:1;stroke-width:1;stroke-linecap:round;stroke-linejoin:round;stroke:rgb(90.196079%,0.784314%,70.588237%);stroke-opacity:1;stroke-miterlimit:4;" d="M 5 1 L 14 1 C 14.554688 1 15 1.445312 15 2 L 15 12 C 14 13 13 14 12 15 L 5 15 C 4.445312 15 4 14.554688 4 14 L 4 2 C 4 1.445312 4.445312 1 5 1 Z M 5 1 " transform="matrix(2,0,0,2,0,0)"/>
<path style="fill-rule:nonzero;fill:rgb(61.56863%,22.745098%,60.784316%);fill-opacity:1;stroke-width:1;stroke-linecap:round;stroke-linejoin:round;stroke:rgb(95.294118%,71.764708%,85.09804%);stroke-opacity:1;stroke-miterlimit:4;" d="M 1.572266 3 L 8.927734 3 C 9.244141 3 9.5 3.255859 9.5 3.572266 L 9.5 10.427734 C 9.5 10.744141 9.244141 11 8.927734 11 L 1.572266 11 C 1.255859 11 1 10.744141 1 10.427734 L 1 3.572266 C 1 3.255859 1.255859 3 1.572266 3 Z M 1.572266 3 " transform="matrix(2,0,0,2,0,0)"/>
<path style="fill:none;stroke-width:0.5;stroke-linecap:round;stroke-linejoin:round;stroke:rgb(94.117647%,89.019608%,92.54902%);stroke-opacity:1;stroke-miterlimit:4;" d="M 7.4375 6.230469 C 7.570312 5.009766 2.464844 9.359375 3.921875 9.5 C 5.380859 9.640625 3.546875 3.927734 2.847656 4.822266 C 2.148438 5.714844 7.302734 7.449219 7.4375 6.230469 Z M 7.4375 6.230469 " transform="matrix(2,0,0,2,0,0)"/>
<path style="fill-rule:nonzero;fill:rgb(94.117647%,89.019608%,92.54902%);fill-opacity:1;stroke-width:1.104222;stroke-linecap:butt;stroke-linejoin:round;stroke:rgb(94.117647%,89.019608%,92.54902%);stroke-opacity:1;stroke-miterlimit:4;" d="M 8.674488 11.233904 C 9.336038 9.972185 9.336038 9.972185 10.662831 9.456054 L 11.666784 12.58201 Z M 8.674488 11.233904 " transform="matrix(-1.699666,0.625852,0.625852,1.699666,29.888756,-2.2572)"/>
<path style="fill:none;stroke-width:0.552111;stroke-linecap:round;stroke-linejoin:miter;stroke:rgb(61.56863%,22.745098%,60.784316%);stroke-opacity:1;stroke-miterlimit:4;" d="M 11.666784 12.58201 L 12.667044 13.700659 " transform="matrix(-1.699666,0.625852,0.625852,1.699666,29.888756,-2.2572)"/>
<path style="fill-rule:nonzero;fill:rgb(95.294118%,71.764708%,85.09804%);fill-opacity:1;stroke-width:1.104222;stroke-linecap:round;stroke-linejoin:round;stroke:rgb(90.196079%,0.784314%,70.588237%);stroke-opacity:1;stroke-miterlimit:4;" d="M 1.84079 1.918841 L 2.172731 1.621947 C 2.630801 1.21196 3.372422 1.297407 3.83331 1.812575 L 10.330582 9.084272 C 10.791471 9.599441 12.292848 12.022831 11.832754 12.433563 L 11.502837 12.729712 C 11.042743 13.140444 8.803128 11.377291 8.341494 10.860098 L 1.844968 3.590425 C 1.383334 3.073233 1.38272 2.328827 1.84079 1.918841 Z M 1.84079 1.918841 " transform="matrix(-1.699666,0.625852,0.625852,1.699666,29.888756,-2.2572)"/>
<path style="fill:none;stroke-width:1.104222;stroke-linecap:butt;stroke-linejoin:miter;stroke:rgb(90.196079%,0.784314%,70.588237%);stroke-opacity:1;stroke-miterlimit:4;" d="M 8.674488 11.233904 C 9.003044 9.598379 9.003044 9.598379 10.662831 9.456054 " transform="matrix(-1.699666,0.625852,0.625852,1.699666,29.888756,-2.2572)"/>
<path style="fill-rule:nonzero;fill:rgb(94.117647%,89.019608%,92.54902%);fill-opacity:1;stroke-width:1.104222;stroke-linecap:round;stroke-linejoin:round;stroke:rgb(90.196079%,0.784314%,70.588237%);stroke-opacity:1;stroke-miterlimit:4;" d="M 5.33205 3.492306 C 3.847546 3.82979 3.847546 3.82979 3.344986 5.267387 C 3.506211 5.449336 4.19403 6.218787 4.343222 6.386781 C 4.672524 4.75328 4.672524 4.75328 6.331565 4.608931 C 6.222732 4.488128 5.557489 3.74254 5.33205 3.492306 Z M 5.33205 3.492306 " transform="matrix(-1.699666,0.625852,0.625852,1.699666,29.888756,-2.2572)"/>
<path style="fill-rule:nonzero;fill:rgb(94.117647%,89.019608%,92.54902%);fill-opacity:1;stroke-width:1.104222;stroke-linecap:round;stroke-linejoin:round;stroke:rgb(90.196079%,0.784314%,70.588237%);stroke-opacity:1;stroke-miterlimit:4;" d="M 10.330582 9.084272 C 10.841628 9.654516 12.292848 12.022831 11.832754 12.433563 L 11.502837 12.729712 C 11.042743 13.140444 8.811647 11.387943 8.341494 10.860098 C 9.003044 9.598379 9.003044 9.598379 10.330582 9.084272 Z M 10.330582 9.084272 " transform="matrix(-1.699666,0.625852,0.625852,1.699666,29.888756,-2.2572)"/>
<path style="fill:none;stroke-width:1.104222;stroke-linecap:round;stroke-linejoin:round;stroke:rgb(90.196079%,0.784314%,70.588237%);stroke-opacity:1;stroke-miterlimit:4;" d="M 4.000819 1.999106 L 4.331481 1.704981 C 4.670027 1.401058 5.333362 1.492349 5.660606 1.856781 L 9.324605 5.959061 " transform="matrix(-1.699666,0.625852,0.625852,1.699666,29.888756,-2.2572)"/>
<path style=" stroke:none;fill-rule:nonzero;fill:rgb(61.56863%,22.745098%,60.784316%);fill-opacity:1;" d="M 16.925781 13.375 C 16.742188 13.839844 16.96875 14.363281 17.433594 14.546875 C 17.898438 14.734375 18.425781 14.503906 18.609375 14.039062 C 18.792969 13.574219 18.566406 13.046875 18.101562 12.863281 C 17.636719 12.679688 17.109375 12.910156 16.925781 13.375 Z M 16.925781 13.375 "/>
</g>
</svg>
