<?xml version="1.0" encoding="UTF-8"?>
<svg xmlns="http://www.w3.org/2000/svg" xmlns:xlink="http://www.w3.org/1999/xlink" width="32px" height="32px" viewBox="0 0 32 32" version="1.1">
<g id="surface1">
<path style=" stroke:none;fill-rule:evenodd;fill:rgb(61.56863%,22.745098%,60.784316%);fill-opacity:1;" d="M 4.816406 18.691406 C 4.835938 18.644531 4.726562 18.671875 4.515625 18.683594 C 4.21875 18.707031 3.902344 18.71875 3.5625 18.71875 C 3.246094 18.710938 2.925781 18.695312 2.609375 18.671875 C 2.058594 18.632812 1.78125 18.5 1.78125 18.28125 C 1.78125 17.675781 2.839844 16.949219 4.960938 16.117188 C 5.9375 15.730469 6.988281 15.375 8.113281 15.050781 C 9.238281 14.726562 10.46875 14.417969 11.804688 14.117188 C 14.457031 13.550781 16.515625 13.285156 17.980469 13.316406 C 19.53125 13.363281 20.304688 13.726562 20.304688 14.398438 C 20.304688 14.511719 20.269531 14.625 20.207031 14.746094 C 20.164062 14.867188 20.089844 14.996094 19.984375 15.125 C 19.070312 16.226562 16.039062 18.394531 10.882812 21.632812 C 10.839844 21.671875 10.800781 21.707031 10.757812 21.738281 C 10.738281 21.761719 10.722656 21.789062 10.722656 21.8125 C 10.722656 21.902344 10.859375 21.949219 11.136719 21.949219 C 11.433594 21.949219 11.699219 21.882812 11.933594 21.753906 C 12.25 21.550781 12.695312 21.300781 13.269531 21 C 13.863281 20.699219 14.59375 20.34375 15.464844 19.921875 C 16.503906 19.421875 17.546875 18.949219 18.585938 18.511719 C 19.625 18.074219 20.683594 17.660156 21.765625 17.261719 C 24.4375 16.316406 26.722656 15.6875 28.609375 15.378906 C 29.054688 15.304688 29.441406 15.269531 29.757812 15.269531 C 30.246094 15.269531 30.488281 15.351562 30.488281 15.523438 C 30.488281 15.660156 30.375 15.8125 30.140625 15.984375 L 25.523438 19.554688 C 25.183594 19.820312 24.769531 20.179688 24.28125 20.632812 C 23.792969 21.085938 23.273438 21.582031 22.722656 22.117188 C 22.191406 22.660156 21.660156 23.214844 21.128906 23.78125 C 20.597656 24.355469 20.125 24.886719 19.699219 25.378906 C 19.273438 25.878906 18.925781 26.320312 18.648438 26.683594 C 18.40625 27.035156 18.273438 27.273438 18.242188 27.410156 C 15.363281 28.566406 14.648438 29.613281 12.277344 30.625 C 14.359375 30.386719 16.175781 28.964844 18.613281 27.976562 L 18.617188 27.980469 C 18.746094 28.0625 18.894531 28.128906 19.0625 28.183594 C 19.230469 28.242188 19.433594 28.269531 19.667969 28.269531 C 20.242188 28.269531 21.085938 28.101562 22.210938 27.761719 C 23.210938 27.449219 23.902344 27.183594 24.273438 26.960938 C 29.800781 24.207031 25.054688 24.753906 18.855469 27.164062 C 18.867188 27.039062 18.921875 26.886719 19.027344 26.703125 C 19.261719 26.339844 19.601562 25.90625 20.046875 25.40625 C 20.511719 24.90625 21.054688 24.363281 21.671875 23.78125 C 22.308594 23.207031 22.945312 22.644531 23.582031 22.09375 C 24.21875 21.542969 24.824219 21.035156 25.398438 20.574219 C 25.992188 20.113281 26.476562 19.746094 26.859375 19.480469 C 27.601562 18.9375 28.355469 18.414062 29.121094 17.894531 C 29.886719 17.367188 30.644531 16.832031 31.410156 16.289062 C 31.453125 16.257812 31.472656 16.214844 31.472656 16.167969 C 31.492188 16.121094 31.507812 16.070312 31.507812 16.023438 C 31.507812 15.910156 31.488281 15.800781 31.445312 15.695312 C 31.402344 15.582031 31.230469 15.460938 30.933594 15.332031 C 30.699219 15.226562 30.476562 15.148438 30.265625 15.089844 C 30.054688 15.023438 29.800781 15.003906 29.503906 15.027344 C 27.636719 15.140625 24.980469 15.84375 21.542969 17.128906 C 20.269531 17.597656 19.105469 18.050781 18.042969 18.488281 C 17.003906 18.925781 16.050781 19.351562 15.179688 19.773438 C 14.988281 19.902344 14.816406 19.96875 14.667969 19.96875 C 14.582031 19.96875 14.542969 19.953125 14.542969 19.921875 C 14.542969 19.867188 14.617188 19.789062 14.765625 19.699219 C 16.464844 18.613281 17.789062 17.703125 18.742188 16.957031 C 19.71875 16.203125 20.359375 15.613281 20.65625 15.175781 C 20.761719 14.988281 20.8125 14.804688 20.8125 14.617188 C 20.8125 14.1875 20.570312 13.839844 20.082031 13.582031 C 19.550781 13.265625 18.816406 13.097656 17.882812 13.082031 C 17.78125 13.082031 17.675781 13.082031 17.570312 13.082031 C 16.738281 13.082031 15.8125 13.152344 14.796875 13.28125 C 13.652344 13.425781 12.382812 13.644531 10.980469 13.945312 C 9.730469 14.230469 8.539062 14.539062 7.414062 14.878906 C 6.3125 15.210938 5.257812 15.585938 4.261719 16 C 2.265625 16.808594 1.238281 17.46875 1.175781 17.988281 C 1.113281 18.523438 1.589844 18.828125 2.609375 18.902344 C 3.140625 18.941406 3.773438 18.917969 4.515625 18.828125 C 4.710938 18.808594 4.832031 18.875 4.847656 18.832031 M 4.847656 18.832031 C 4.859375 18.917969 7.394531 18.078125 8.621094 19 C 9.898438 19.960938 9 26 7.671875 28.671875 C 5.945312 26.113281 2 25.164062 2 23.402344 C 2 22.671875 3 20.558594 5.191406 23.746094 C 5.261719 23.828125 7.03125 17.671875 9 21 C 6.828125 16.796875 5.082031 23.402344 5 23.277344 C 3.492188 20.890625 1.441406 21.324219 1.753906 24.136719 C 2.082031 27.097656 6.621094 28.023438 7.621094 30.023438 C 9.46875 24 10.746094 19.726562 9.34375 18.449219 C 8.34375 17.539062 7 18.519531 4.816406 18.691406 M 26.054688 25.359375 C 26.546875 25.363281 26.0625 25.808594 24.109375 26.808594 C 24.09375 26.816406 24.074219 26.820312 24.058594 26.828125 C 21.851562 27.660156 20.300781 28.078125 19.410156 28.078125 C 19.136719 28.078125 18.972656 28 18.921875 27.839844 C 22.386719 26.320312 25.316406 25.351562 26.054688 25.359375 Z M 26.054688 25.359375 "/>
<path style="fill-rule:nonzero;fill:rgb(94.117647%,89.019608%,92.54902%);fill-opacity:1;stroke-width:1;stroke-linecap:butt;stroke-linejoin:round;stroke:rgb(94.117647%,89.019608%,92.54902%);stroke-opacity:1;stroke-miterlimit:4;" d="M 8.673828 11.234375 C 9.335938 9.972656 9.335938 9.972656 10.664062 9.457031 L 11.667969 12.582031 Z M 8.673828 11.234375 " transform="matrix(2,0,0,2,0,0)"/>
<path style="fill:none;stroke-width:0.5;stroke-linecap:round;stroke-linejoin:miter;stroke:rgb(61.56863%,22.745098%,60.784316%);stroke-opacity:1;stroke-miterlimit:4;" d="M 11.667969 12.582031 L 12.667969 13.701172 " transform="matrix(2,0,0,2,0,0)"/>
<path style="fill-rule:nonzero;fill:rgb(95.294118%,71.764708%,85.09804%);fill-opacity:1;stroke-width:1;stroke-linecap:round;stroke-linejoin:round;stroke:rgb(90.196079%,0.784314%,70.588237%);stroke-opacity:1;stroke-miterlimit:4;" d="M 1.839844 1.917969 L 2.171875 1.621094 C 2.630859 1.210938 3.371094 1.296875 3.833984 1.814453 L 10.330078 9.083984 C 10.791016 9.599609 12.292969 12.023438 11.833984 12.433594 L 11.501953 12.730469 C 11.042969 13.140625 8.802734 11.376953 8.341797 10.861328 L 1.845703 3.589844 C 1.382812 3.074219 1.380859 2.328125 1.839844 1.917969 Z M 1.839844 1.917969 " transform="matrix(2,0,0,2,0,0)"/>
<path style="fill:none;stroke-width:1;stroke-linecap:butt;stroke-linejoin:miter;stroke:rgb(90.196079%,0.784314%,70.588237%);stroke-opacity:1;stroke-miterlimit:4;" d="M 8.673828 11.234375 C 9.001953 9.599609 9.001953 9.599609 10.664062 9.457031 " transform="matrix(2,0,0,2,0,0)"/>
<path style="fill-rule:nonzero;fill:rgb(94.117647%,89.019608%,92.54902%);fill-opacity:1;stroke-width:1;stroke-linecap:round;stroke-linejoin:round;stroke:rgb(90.196079%,0.784314%,70.588237%);stroke-opacity:1;stroke-miterlimit:4;" d="M 5.332031 3.492188 C 3.847656 3.830078 3.847656 3.830078 3.34375 5.267578 C 3.505859 5.449219 4.195312 6.220703 4.34375 6.386719 C 4.671875 4.751953 4.671875 4.751953 6.332031 4.609375 C 6.224609 4.488281 5.556641 3.742188 5.332031 3.492188 Z M 5.332031 3.492188 " transform="matrix(2,0,0,2,0,0)"/>
<path style="fill-rule:nonzero;fill:rgb(94.117647%,89.019608%,92.54902%);fill-opacity:1;stroke-width:1;stroke-linecap:round;stroke-linejoin:round;stroke:rgb(90.196079%,0.784314%,70.588237%);stroke-opacity:1;stroke-miterlimit:4;" d="M 10.330078 9.083984 C 10.841797 9.65625 12.292969 12.023438 11.833984 12.433594 L 11.501953 12.730469 C 11.042969 13.140625 8.8125 11.388672 8.341797 10.861328 C 9.001953 9.599609 9.001953 9.599609 10.330078 9.083984 Z M 10.330078 9.083984 " transform="matrix(2,0,0,2,0,0)"/>
<path style="fill:none;stroke-width:1;stroke-linecap:round;stroke-linejoin:round;stroke:rgb(90.196079%,0.784314%,70.588237%);stroke-opacity:1;stroke-miterlimit:4;" d="M 4 2 L 4.332031 1.703125 C 4.669922 1.402344 5.333984 1.492188 5.660156 1.857422 L 9.326172 5.958984 " transform="matrix(2,0,0,2,0,0)"/>
<path style=" stroke:none;fill-rule:nonzero;fill:rgb(61.56863%,22.745098%,60.784316%);fill-opacity:1;" d="M 19.394531 11.25 C 19.765625 11.664062 19.730469 12.292969 19.316406 12.664062 C 18.90625 13.03125 18.273438 12.996094 17.90625 12.582031 C 17.535156 12.171875 17.574219 11.539062 17.984375 11.171875 C 18.394531 10.804688 19.027344 10.839844 19.394531 11.25 Z M 19.394531 11.25 "/>
</g>
</svg>
