<?xml version="1.0" encoding="UTF-8"?>
<svg xmlns="http://www.w3.org/2000/svg" xmlns:xlink="http://www.w3.org/1999/xlink" width="32px" height="32px" viewBox="0 0 32 32" version="1.1">
<g id="surface1">
<path style=" stroke:none;fill-rule:nonzero;fill:rgb(33.333334%,34.117648%,32.549021%);fill-opacity:1;" d="M 8 0 L 8 18 L 24 18 L 24 0 Z M 12 4 L 20 4 L 20 14 L 12 14 Z M 4 20 L 4 22 C 4 22.515625 4.257812 23.058594 4.625 23.4375 L 5.367188 24 L 0 24 L 0 28 L 5.367188 28 L 4.625 28.5625 C 4.257812 28.941406 4 29.550781 4 30 L 4 32 L 6 32 C 6.617188 32 7.105469 31.820312 7.5 31.4375 C 9.53125 29.898438 10.550781 28.796875 12 27.558594 L 12 24.328125 L 7.5 20.5625 C 7.105469 20.179688 6.617188 20 6 20 Z M 26 20 C 25.382812 20 24.894531 20.179688 24.5 20.5625 L 20 24.328125 L 20 27.558594 C 21.449219 28.796875 22.46875 29.898438 24.5 31.4375 C 24.894531 31.820312 25.382812 32 26 32 L 28 32 L 28 30 C 28 29.550781 27.742188 28.941406 27.375 28.5625 L 26.632812 28 L 32 28 L 32 24 L 26.632812 24 L 27.375 23.4375 C 27.742188 23.058594 28 22.515625 28 22 L 28 20 Z M 26 20 "/>
</g>
</svg>
