<?xml version="1.0" encoding="UTF-8"?>
<svg xmlns="http://www.w3.org/2000/svg" xmlns:xlink="http://www.w3.org/1999/xlink" width="32px" height="32px" viewBox="0 0 32 32" version="1.1">
<g id="surface1">
<path style="fill-rule:nonzero;fill:rgb(95.294118%,71.764708%,85.09804%);fill-opacity:1;stroke-width:1;stroke-linecap:butt;stroke-linejoin:miter;stroke:rgb(90.196079%,0.784314%,70.588237%);stroke-opacity:1;stroke-miterlimit:4;" d="M 8.453125 5 L 13.546875 5 C 13.796875 5 14 5.203125 14 5.453125 L 14 10.546875 C 14 10.796875 13.796875 11 13.546875 11 L 8.453125 11 C 8.203125 11 8 10.796875 8 10.546875 L 8 5.453125 C 8 5.203125 8.203125 5 8.453125 5 Z M 8.453125 5 " transform="matrix(2,0,0,2,0,0)"/>
<path style=" stroke:none;fill-rule:evenodd;fill:rgb(61.56863%,22.745098%,60.784316%);fill-opacity:1;" d="M 9.015625 13.992188 L 14.011719 7.992188 L 13.019531 6.996094 L 10.011719 8.949219 L 10 2 L 8 2 L 8.011719 8.949219 L 5.054688 7 L 4.011719 7.996094 Z M 9.015625 13.992188 "/>
<path style=" stroke:none;fill-rule:evenodd;fill:rgb(61.56863%,22.745098%,60.784316%);fill-opacity:1;" d="M 9.015625 17.507812 L 14.011719 23.507812 L 13.019531 24.5 L 10.011719 22.550781 L 10 30 L 8 30 L 8.011719 22.550781 L 5.054688 24.496094 L 4.011719 23.503906 Z M 9.015625 17.507812 "/>
</g>
</svg>
