<?xml version="1.0" encoding="UTF-8"?>
<svg xmlns="http://www.w3.org/2000/svg" xmlns:xlink="http://www.w3.org/1999/xlink" width="32px" height="32px" viewBox="0 0 32 32" version="1.1">
<g id="surface1">
<path style=" stroke:none;fill-rule:nonzero;fill:rgb(33.333334%,34.117648%,32.549021%);fill-opacity:1;" d="M 12 2 L 12 6 L 16 6 L 16 2 Z M 18 2 L 18 6 L 24 6 C 26.199219 6 28 7.800781 28 10 C 28 12.199219 26.199219 14 24 14 L 18 14 L 18 18 L 24 18 C 28.398438 18 32 14.398438 32 10 C 32 5.601562 28.398438 2 24 2 Z M 10 4 L 4 10 L 4 30 L 28 30 L 28 20 L 24 20 L 24 26 L 8 26 L 8 12 L 10 12 Z M 12 14 L 12 18 L 16 18 L 16 14 Z M 12 14 "/>
</g>
</svg>
