<?xml version="1.0" encoding="UTF-8"?>
<svg xmlns="http://www.w3.org/2000/svg" xmlns:xlink="http://www.w3.org/1999/xlink" width="32px" height="32px" viewBox="0 0 32 32" version="1.1">
<g id="surface1">
<path style=" stroke:none;fill-rule:evenodd;fill:rgb(90.196079%,0.784314%,70.588237%);fill-opacity:1;" d="M 16 22 L 16 26 L 24 26 L 24 30 L 30 24 L 24 18 L 24 22 Z M 16 22 "/>
<path style=" stroke:none;fill-rule:evenodd;fill:rgb(90.196079%,0.784314%,70.588237%);fill-opacity:1;" d="M 16 22 L 16 24 L 30 24 L 24 18 L 24 22 Z M 16 22 "/>
<path style=" stroke:none;fill-rule:nonzero;fill:rgb(61.56863%,22.745098%,60.784316%);fill-opacity:0.886275;" d="M 9.4375 2.238281 C 7.445312 2.238281 5.738281 2.722656 4.382812 3.714844 C 2.976562 4.746094 2.214844 6.179688 2.214844 7.847656 C 2.214844 8.519531 2.378906 9.148438 2.710938 9.695312 C 3.265625 10.570312 4.160156 11.0625 5.1875 11.0625 C 5.695312 11.0625 6.179688 10.953125 6.609375 10.722656 C 7.496094 10.242188 7.984375 9.324219 7.984375 8.257812 C 7.984375 8 7.957031 7.75 7.902344 7.507812 C 7.769531 7.003906 7.460938 6.550781 7.023438 6.078125 C 6.742188 5.769531 6.671875 5.554688 6.671875 5.472656 C 6.671875 5.367188 6.695312 5.285156 6.769531 5.171875 C 6.980469 4.851562 7.398438 4.644531 8.261719 4.644531 C 8.664062 4.644531 9.003906 4.734375 9.316406 4.921875 C 10.164062 5.4375 10.664062 6.585938 10.664062 8.613281 C 10.664062 9.808594 10.445312 10.929688 10 12 C 9.929688 12.167969 9.5625 12.902344 8.953125 14.050781 C 8.347656 15.1875 8.019531 16.238281 8.019531 17.222656 C 8.019531 17.609375 8.042969 18.152344 8.089844 18.863281 C 8.109375 19.164062 8.359375 19.394531 8.660156 19.394531 L 10.121094 19.394531 C 10.4375 19.394531 10.691406 19.140625 10.691406 18.824219 L 10.691406 18.304688 C 10.714844 17.308594 10.898438 16.640625 11.125 16.320312 C 11.324219 16.039062 11.945312 15.515625 12.941406 14.90625 C 14.398438 14.007812 15.078125 13.132812 15.707031 12.425781 C 16.617188 11.386719 17.078125 10.085938 17.078125 8.613281 C 17.0625 6.925781 16.464844 5.453125 15.316406 4.316406 C 13.890625 2.917969 11.890625 2.238281 9.4375 2.238281 Z M 9.4375 2.238281 "/>
<path style=" stroke:none;fill-rule:nonzero;fill:rgb(90.196079%,0.784314%,70.588237%);fill-opacity:1;" d="M 9.6875 3.617188 C 9.792969 3.664062 9.910156 3.691406 10.011719 3.753906 C 11.425781 4.613281 12.023438 6.351562 12.023438 8.613281 C 12.023438 9.976562 11.769531 11.285156 11.253906 12.519531 C 11.105469 12.882812 10.765625 13.535156 10.152344 14.6875 C 9.617188 15.695312 9.378906 16.542969 9.378906 17.222656 C 9.378906 17.316406 9.394531 17.535156 9.398438 17.660156 C 9.46875 16.824219 9.621094 16.09375 10.011719 15.539062 C 10.453125 14.917969 11.167969 14.398438 12.230469 13.75 L 12.234375 13.746094 C 13.515625 12.957031 14.015625 12.28125 14.6875 11.527344 C 15.378906 10.734375 15.714844 9.8125 15.71875 8.617188 C 15.707031 7.234375 15.269531 6.179688 14.363281 5.285156 C 13.277344 4.222656 11.757812 3.660156 9.683594 3.617188 Z M 5.554688 4.589844 C 5.433594 4.664062 5.300781 4.726562 5.183594 4.8125 C 4.054688 5.640625 3.574219 6.570312 3.574219 7.847656 C 3.574219 8.300781 3.671875 8.660156 3.871094 8.984375 C 4.210938 9.519531 4.546875 9.703125 5.1875 9.703125 C 5.496094 9.703125 5.746094 9.640625 5.972656 9.523438 C 6.453125 9.261719 6.625 8.972656 6.625 8.257812 C 6.625 8.101562 6.609375 7.960938 6.582031 7.835938 C 6.539062 7.679688 6.375 7.375 6.027344 7 C 5.617188 6.554688 5.3125 6.066406 5.3125 5.472656 C 5.3125 5.164062 5.410156 4.863281 5.554688 4.589844 Z M 5.554688 4.589844 "/>
<path style=" stroke:none;fill-rule:nonzero;fill:rgb(61.56863%,22.745098%,60.784316%);fill-opacity:1;" d="M 13.449219 25.214844 C 13.449219 27.429688 11.65625 29.222656 9.441406 29.222656 C 7.230469 29.222656 5.4375 27.429688 5.4375 25.214844 C 5.4375 23.003906 7.230469 21.210938 9.441406 21.210938 C 11.65625 21.210938 13.449219 23.003906 13.449219 25.214844 Z M 13.449219 25.214844 "/>
<path style=" stroke:none;fill-rule:nonzero;fill:rgb(90.196079%,0.784314%,70.588237%);fill-opacity:0.980392;" d="M 11.953125 25.214844 C 11.953125 26.601562 10.828125 27.726562 9.441406 27.726562 C 8.058594 27.726562 6.933594 26.601562 6.933594 25.214844 C 6.933594 23.832031 8.058594 22.707031 9.441406 22.707031 C 10.828125 22.707031 11.953125 23.832031 11.953125 25.214844 Z M 11.953125 25.214844 "/>
</g>
</svg>
