<?xml version="1.0" encoding="UTF-8"?>
<svg xmlns="http://www.w3.org/2000/svg" xmlns:xlink="http://www.w3.org/1999/xlink" width="32px" height="32px" viewBox="0 0 32 32" version="1.1">
<g id="surface1">
<path style="fill-rule:nonzero;fill:rgb(94.117647%,89.019608%,92.54902%);fill-opacity:1;stroke-width:1;stroke-linecap:round;stroke-linejoin:round;stroke:rgb(90.196079%,0.784314%,70.588237%);stroke-opacity:1;stroke-miterlimit:4;" d="M 3.5 14.5 L 11.5 14.5 C 12.5 14.5 13.5 13.572266 13.5 12.642578 L 13.5 3.357422 C 13.5 2.427734 12.5 1.5 11.5 1.5 L 3.5 1.5 C 2.5 1.5 1.5 2.427734 1.5 3.357422 L 1.5 12.642578 C 1.5 13.572266 2.5 14.5 3.5 14.5 Z M 3.5 14.5 " transform="matrix(2,0,0,-2,0,32)"/>
<path style="fill:none;stroke-width:1;stroke-linecap:round;stroke-linejoin:miter;stroke:rgb(61.56863%,22.745098%,60.784316%);stroke-opacity:1;stroke-miterlimit:4;" d="M 3.5 9.5 L 8.5 9.5 " transform="matrix(2,0,0,-2,0,32)"/>
<path style="fill:none;stroke-width:1;stroke-linecap:round;stroke-linejoin:miter;stroke:rgb(61.56863%,22.745098%,60.784316%);stroke-opacity:1;stroke-miterlimit:4;" d="M 3.5 6.5 L 6.5 6.5 " transform="matrix(2,0,0,-2,0,32)"/>
<path style="fill:none;stroke-width:1;stroke-linecap:round;stroke-linejoin:miter;stroke:rgb(61.56863%,22.745098%,60.784316%);stroke-opacity:1;stroke-miterlimit:4;" d="M 3.5 3.5 L 4.5 3.5 " transform="matrix(2,0,0,-2,0,32)"/>
<path style="fill:none;stroke-width:1;stroke-linecap:round;stroke-linejoin:miter;stroke:rgb(61.56863%,22.745098%,60.784316%);stroke-opacity:1;stroke-miterlimit:4;" d="M 3.5 12.5 L 10.5 12.5 " transform="matrix(2,0,0,-2,0,32)"/>
<path style="fill-rule:nonzero;fill:rgb(90.196079%,0.784314%,70.588237%);fill-opacity:1;stroke-width:1;stroke-linecap:round;stroke-linejoin:round;stroke:rgb(61.56863%,22.745098%,60.784316%);stroke-opacity:1;stroke-miterlimit:4;" d="M 11.5 1.5 L 8.5 6 L 10 6 L 10 11.5 L 13 11.5 L 13 6 L 14.5 6 Z M 11.5 1.5 " transform="matrix(2,0,0,-2,0,32)"/>
</g>
</svg>
