<?xml version="1.0" encoding="UTF-8"?>
<svg xmlns="http://www.w3.org/2000/svg" xmlns:xlink="http://www.w3.org/1999/xlink" width="32px" height="32px" viewBox="0 0 32 32" version="1.1">
<g id="surface1">
<path style=" stroke:none;fill-rule:nonzero;fill:rgb(33.333334%,34.117648%,32.549021%);fill-opacity:1;" d="M 6 2 L 6 23.367188 L 5.4375 22.625 C 5.058594 22.257812 4.515625 22 4 22 L 2 22 L 2 24 C 2 24.617188 2.179688 25.105469 2.5625 25.5 L 6.328125 30 L 9.558594 30 C 10.796875 28.550781 11.898438 27.53125 13.4375 25.5 C 13.820312 25.105469 14 24.617188 14 24 L 14 22 L 12 22 C 11.550781 22 10.941406 22.257812 10.5625 22.625 L 10 23.367188 L 10 2 Z M 18.328125 2 L 14.5625 6.5 C 14.179688 6.894531 14 7.382812 14 8 L 14 10 L 16 10 C 16.515625 10 17.058594 9.742188 17.4375 9.375 L 18 8.632812 L 18 22 L 22 22 L 22 8.632812 L 22.5625 9.375 C 22.941406 9.742188 23.550781 10 24 10 L 26 10 L 26 8 C 26 7.382812 25.820312 6.894531 25.4375 6.5 C 23.898438 4.46875 22.796875 3.449219 21.558594 2 Z M 24 18 L 24 20 C 27.121094 23.199219 22.867188 27 20 24 L 18 24 L 18 26 C 19.601562 27.539062 21.28125 28 22.800781 28 L 26 28 L 30 32 L 32 32 L 32 30 L 28 26 L 28 22.800781 C 28 21 27.601562 19.601562 26 18 Z M 24 18 "/>
</g>
</svg>
