<?xml version="1.0" encoding="UTF-8"?>
<svg xmlns="http://www.w3.org/2000/svg" xmlns:xlink="http://www.w3.org/1999/xlink" width="32px" height="32px" viewBox="0 0 32 32" version="1.1">
<g id="surface1">
<path style=" stroke:none;fill-rule:evenodd;fill:rgb(90.196079%,0.784314%,70.588237%);fill-opacity:1;" d="M 6.996094 8.007812 L 2 14.007812 L 2.996094 15.003906 L 6 13.050781 L 6.011719 18 L 8.011719 18 L 8 13.050781 L 10.957031 15 L 12 14.003906 Z M 6.996094 8.007812 "/>
<path style=" stroke:none;fill-rule:evenodd;fill:rgb(90.196079%,0.784314%,70.588237%);fill-opacity:1;" d="M 7.011719 25.042969 L 2.011719 19.042969 L 3.007812 18.046875 L 6.011719 20 L 6.027344 15.050781 L 8.027344 15.050781 L 8.011719 20 L 10.96875 18.050781 L 12.011719 19.046875 Z M 7.011719 25.042969 "/>
<path style="fill:none;stroke-width:1;stroke-linecap:round;stroke-linejoin:miter;stroke:rgb(61.56863%,22.745098%,60.784316%);stroke-opacity:1;stroke-miterlimit:4;" d="M 6.5 3.5 L 14.5 3.5 " transform="matrix(2,0,0,2,0,0)"/>
<path style="fill:none;stroke-width:1;stroke-linecap:round;stroke-linejoin:miter;stroke:rgb(61.56863%,22.745098%,60.784316%);stroke-opacity:1;stroke-miterlimit:4;" d="M 6.5 5.5 L 14.5 5.5 " transform="matrix(2,0,0,2,0,0)"/>
<path style="fill:none;stroke-width:1;stroke-linecap:round;stroke-linejoin:miter;stroke:rgb(61.56863%,22.745098%,60.784316%);stroke-opacity:1;stroke-miterlimit:4;" d="M 6.5 7.5 L 14.5 7.5 " transform="matrix(2,0,0,2,0,0)"/>
<path style="fill:none;stroke-width:1;stroke-linecap:round;stroke-linejoin:miter;stroke:rgb(61.56863%,22.745098%,60.784316%);stroke-opacity:1;stroke-miterlimit:4;" d="M 6.5 9.5 L 14.5 9.5 " transform="matrix(2,0,0,2,0,0)"/>
<path style="fill:none;stroke-width:1;stroke-linecap:round;stroke-linejoin:miter;stroke:rgb(61.56863%,22.745098%,60.784316%);stroke-opacity:1;stroke-miterlimit:4;" d="M 6.5 11.5 L 14.5 11.5 " transform="matrix(2,0,0,2,0,0)"/>
<path style="fill:none;stroke-width:1;stroke-linecap:round;stroke-linejoin:miter;stroke:rgb(61.56863%,22.745098%,60.784316%);stroke-opacity:1;stroke-miterlimit:4;" d="M 6.5 13.5 L 11.205078 13.5 " transform="matrix(2,0,0,2,0,0)"/>
</g>
</svg>
