<?xml version="1.0" encoding="UTF-8"?>
<svg xmlns="http://www.w3.org/2000/svg" xmlns:xlink="http://www.w3.org/1999/xlink" width="32px" height="32px" viewBox="0 0 32 32" version="1.1">
<defs>
<filter id="alpha" filterUnits="objectBoundingBox" x="0%" y="0%" width="100%" height="100%">
  <feColorMatrix type="matrix" in="SourceGraphic" values="0 0 0 0 1 0 0 0 0 1 0 0 0 0 1 0 0 0 1 0"/>
</filter>
<mask id="mask0">
  <g filter="url(#alpha)">
<rect x="0" y="0" width="32" height="32" style="fill:rgb(0%,0%,0%);fill-opacity:0.35;stroke:none;"/>
  </g>
</mask>
<clipPath id="clip1">
  <rect x="0" y="0" width="32" height="32"/>
</clipPath>
<g id="surface5" clip-path="url(#clip1)">
<path style=" stroke:none;fill-rule:nonzero;fill:rgb(33.333334%,34.117648%,32.549021%);fill-opacity:1;" d="M 16 4 C 9.320312 4 4 9.320312 4 16 C 4 22.679688 9.320312 28 16 28 C 22.679688 28 28 22.679688 28 16 C 28 9.320312 22.679688 4 16 4 Z M 16 4 "/>
</g>
</defs>
<g id="surface1">
<path style=" stroke:none;fill-rule:nonzero;fill:rgb(33.333334%,34.117648%,32.549021%);fill-opacity:1;" d="M 16 0 C 7.164062 0 0 7.164062 0 16 C 0 24.835938 7.164062 32 16 32 C 24.835938 32 32 24.835938 32 16 C 32 7.164062 24.835938 0 16 0 Z M 16 4 C 16.199219 4 16.472656 4.070312 16.929688 4.523438 C 17.386719 4.976562 17.9375 5.789062 18.40625 6.886719 C 18.5625 7.253906 18.695312 7.691406 18.835938 8.117188 C 17.914062 8.042969 16.96875 8 16 8 C 15.03125 8 14.085938 8.042969 13.164062 8.117188 C 13.304688 7.691406 13.4375 7.253906 13.59375 6.886719 C 14.0625 5.789062 14.613281 4.976562 15.070312 4.523438 C 15.527344 4.070312 15.800781 4 16 4 Z M 9.769531 5.734375 C 9.390625 6.679688 9.078125 7.71875 8.816406 8.816406 C 7.71875 9.078125 6.679688 9.390625 5.734375 9.769531 C 6.734375 8.117188 8.117188 6.734375 9.769531 5.734375 Z M 22.230469 5.734375 C 23.882812 6.734375 25.265625 8.117188 26.265625 9.769531 C 25.320312 9.390625 24.28125 9.078125 23.183594 8.816406 C 22.921875 7.71875 22.609375 6.679688 22.230469 5.734375 Z M 16 12 C 17.3125 12 18.550781 12.109375 19.738281 12.261719 C 19.890625 13.449219 20 14.6875 20 16 C 20 17.3125 19.890625 18.550781 19.738281 19.738281 C 18.550781 19.890625 17.3125 20 16 20 C 14.6875 20 13.449219 19.890625 12.261719 19.738281 C 12.109375 18.550781 12 17.3125 12 16 C 12 14.6875 12.109375 13.449219 12.261719 12.261719 C 13.449219 12.109375 14.6875 12 16 12 Z M 8.117188 13.164062 C 8.042969 14.085938 8 15.03125 8 16 C 8 16.96875 8.042969 17.914062 8.117188 18.835938 C 7.691406 18.695312 7.253906 18.5625 6.886719 18.40625 C 5.789062 17.9375 4.976562 17.386719 4.523438 16.929688 C 4.070312 16.472656 4 16.199219 4 16 C 4 15.800781 4.070312 15.527344 4.523438 15.070312 C 4.976562 14.613281 5.789062 14.0625 6.886719 13.59375 C 7.253906 13.4375 7.691406 13.304688 8.117188 13.164062 Z M 23.882812 13.164062 C 24.308594 13.304688 24.746094 13.4375 25.113281 13.59375 C 26.199219 14.0625 27.023438 14.613281 27.476562 15.070312 C 27.929688 15.527344 28 15.800781 28 16 C 28 16.199219 27.929688 16.472656 27.476562 16.929688 C 27.023438 17.386719 26.199219 17.9375 25.113281 18.40625 C 24.746094 18.5625 24.308594 18.695312 23.882812 18.835938 C 23.957031 17.914062 24 16.96875 24 16 C 24 15.03125 23.957031 14.085938 23.882812 13.164062 Z M 5.734375 22.230469 C 6.679688 22.609375 7.71875 22.921875 8.816406 23.183594 C 9.078125 24.28125 9.390625 25.320312 9.769531 26.265625 C 8.117188 25.265625 6.734375 23.882812 5.734375 22.230469 Z M 26.265625 22.230469 C 25.265625 23.882812 23.882812 25.265625 22.230469 26.265625 C 22.609375 25.320312 22.921875 24.28125 23.183594 23.183594 C 24.28125 22.921875 25.320312 22.609375 26.265625 22.230469 Z M 13.164062 23.882812 C 14.085938 23.957031 15.03125 24 16 24 C 16.96875 24 17.914062 23.957031 18.835938 23.882812 C 18.695312 24.308594 18.5625 24.746094 18.40625 25.113281 C 17.9375 26.199219 17.386719 27.023438 16.929688 27.476562 C 16.472656 27.929688 16.199219 28 16 28 C 15.800781 28 15.527344 27.929688 15.070312 27.476562 C 14.613281 27.023438 14.0625 26.199219 13.59375 25.113281 C 13.4375 24.746094 13.304688 24.308594 13.164062 23.882812 Z M 13.164062 23.882812 "/>
<use xlink:href="#surface5" mask="url(#mask0)"/>
</g>
</svg>
