<?xml version="1.0" encoding="UTF-8"?>
<svg xmlns="http://www.w3.org/2000/svg" xmlns:xlink="http://www.w3.org/1999/xlink" width="32px" height="32px" viewBox="0 0 32 32" version="1.1">
<g id="surface1">
<path style=" stroke:none;fill-rule:nonzero;fill:rgb(33.333334%,34.117648%,32.549021%);fill-opacity:1;" d="M 14.453125 0 C 13.472656 0 12.589844 0.5 12.058594 1.015625 C 11.527344 1.53125 11.21875 2.054688 10.949219 2.503906 C 10.410156 3.402344 9.96875 3.859375 10.050781 3.824219 C 10.136719 3.789062 9.5 3.78125 8.480469 3.527344 C 7.972656 3.398438 7.382812 3.246094 6.644531 3.257812 C 5.90625 3.269531 4.925781 3.542969 4.234375 4.234375 C 3.542969 4.925781 3.269531 5.90625 3.257812 6.644531 C 3.246094 7.382812 3.398438 7.972656 3.527344 8.480469 C 3.78125 9.5 3.789062 10.136719 3.824219 10.050781 C 3.859375 9.96875 3.402344 10.410156 2.503906 10.949219 C 2.054688 11.21875 1.53125 11.527344 1.015625 12.058594 C 0.5 12.589844 0 13.472656 0 14.453125 C 0 15.433594 0.5 16.316406 1.015625 16.847656 C 1.53125 17.378906 2.054688 17.6875 2.503906 17.957031 C 3.402344 18.496094 3.859375 18.941406 3.824219 18.855469 L 3.828125 18.855469 C 3.792969 18.769531 3.78125 19.40625 3.527344 20.425781 C 3.398438 20.933594 3.246094 21.523438 3.257812 22.261719 C 3.269531 23 3.542969 23.980469 4.234375 24.671875 C 4.925781 25.363281 5.90625 25.636719 6.644531 25.648438 C 7.382812 25.660156 7.972656 25.507812 8.480469 25.378906 C 9.5 25.125 10.136719 25.117188 10.050781 25.082031 C 9.964844 25.046875 10.410156 25.503906 10.949219 26.402344 C 11.21875 26.851562 11.527344 27.375 12.058594 27.890625 C 12.589844 28.40625 13.472656 28.90625 14.453125 28.90625 C 15.433594 28.90625 16.316406 28.40625 16.847656 27.890625 C 17.378906 27.375 17.6875 26.851562 17.957031 26.402344 C 18.414062 25.640625 18.664062 25.382812 18.71875 25.285156 L 24.886719 31.449219 C 25.914062 32.476562 27.671875 32 28.039062 30.59375 L 28.566406 28.566406 L 30.59375 28.039062 C 32 27.671875 32.476562 25.914062 31.449219 24.886719 L 25.285156 18.71875 C 25.382812 18.664062 25.640625 18.414062 26.402344 17.957031 C 26.851562 17.6875 27.375 17.378906 27.890625 16.847656 C 28.40625 16.316406 28.90625 15.433594 28.90625 14.453125 C 28.90625 13.472656 28.40625 12.589844 27.890625 12.058594 C 27.375 11.527344 26.851562 11.21875 26.402344 10.949219 C 25.503906 10.410156 25.046875 9.964844 25.082031 10.050781 C 25.117188 10.136719 25.125 9.5 25.378906 8.480469 C 25.507812 7.972656 25.660156 7.382812 25.648438 6.644531 C 25.636719 5.90625 25.363281 4.925781 24.671875 4.234375 C 23.980469 3.542969 23 3.269531 22.261719 3.257812 C 21.523438 3.246094 20.933594 3.398438 20.425781 3.527344 C 19.40625 3.78125 18.769531 3.789062 18.855469 3.824219 C 18.9375 3.859375 18.496094 3.402344 17.957031 2.503906 C 17.6875 2.054688 17.378906 1.53125 16.847656 1.015625 C 16.316406 0.5 15.433594 0 14.453125 0 Z M 15 10 C 17.761719 10 20 12.238281 20 15 C 20 17.761719 17.761719 20 15 20 C 12.238281 20 10 17.761719 10 15 C 10 12.238281 12.238281 10 15 10 Z M 15 10 "/>
</g>
</svg>
