<?xml version="1.0" encoding="UTF-8"?>
<svg xmlns="http://www.w3.org/2000/svg" xmlns:xlink="http://www.w3.org/1999/xlink" width="32px" height="32px" viewBox="0 0 32 32" version="1.1">
<defs>
<filter id="alpha" filterUnits="objectBoundingBox" x="0%" y="0%" width="100%" height="100%">
  <feColorMatrix type="matrix" in="SourceGraphic" values="0 0 0 0 1 0 0 0 0 1 0 0 0 0 1 0 0 0 1 0"/>
</filter>
<mask id="mask0">
  <g filter="url(#alpha)">
<rect x="0" y="0" width="32" height="32" style="fill:rgb(0%,0%,0%);fill-opacity:0.35;stroke:none;"/>
  </g>
</mask>
<clipPath id="clip1">
  <rect x="0" y="0" width="32" height="32"/>
</clipPath>
<g id="surface5" clip-path="url(#clip1)">
<path style=" stroke:none;fill-rule:nonzero;fill:rgb(33.333334%,34.117648%,32.549021%);fill-opacity:1;" d="M 16 11.394531 L 17.726562 16 L 21.351562 16 L 18.621094 18.390625 L 20.675781 23.863281 L 16 21.527344 L 11.339844 23.863281 L 13.378906 18.390625 L 10.648438 16 L 14.273438 16 Z M 16 11.394531 "/>
</g>
</defs>
<g id="surface1">
<path style=" stroke:none;fill-rule:nonzero;fill:rgb(33.333334%,34.117648%,32.549021%);fill-opacity:1;" d="M 16 0 L 11.5 12 L 0 12 L 8.660156 19.601562 L 4 32 L 16 26 L 28 32 L 23.339844 19.601562 L 32 12 L 20.5 12 Z M 16 11.394531 L 17.71875 16 L 21.351562 16 L 18.621094 18.390625 L 20.675781 23.863281 L 16 21.527344 L 11.324219 23.859375 L 13.378906 18.390625 L 10.648438 16 L 14.273438 16 Z M 16 11.394531 "/>
<use xlink:href="#surface5" mask="url(#mask0)"/>
</g>
</svg>
