<?xml version="1.0" encoding="UTF-8"?>
<svg xmlns="http://www.w3.org/2000/svg" xmlns:xlink="http://www.w3.org/1999/xlink" width="32px" height="32px" viewBox="0 0 32 32" version="1.1">
<defs>
<filter id="alpha" filterUnits="objectBoundingBox" x="0%" y="0%" width="100%" height="100%">
  <feColorMatrix type="matrix" in="SourceGraphic" values="0 0 0 0 1 0 0 0 0 1 0 0 0 0 1 0 0 0 1 0"/>
</filter>
<mask id="mask0">
  <g filter="url(#alpha)">
<rect x="0" y="0" width="32" height="32" style="fill:rgb(0%,0%,0%);fill-opacity:0.35;stroke:none;"/>
  </g>
</mask>
<clipPath id="clip1">
  <rect x="0" y="0" width="32" height="32"/>
</clipPath>
<g id="surface5" clip-path="url(#clip1)">
<path style=" stroke:none;fill-rule:nonzero;fill:rgb(33.333334%,34.117648%,32.549021%);fill-opacity:1;" d="M 20 16 C 20 18.210938 18.210938 20 16 20 C 13.789062 20 12 18.210938 12 16 C 12 13.789062 13.789062 12 16 12 C 18.210938 12 20 13.789062 20 16 Z M 20 16 "/>
</g>
</defs>
<g id="surface1">
<path style=" stroke:none;fill-rule:nonzero;fill:rgb(33.333334%,34.117648%,32.549021%);fill-opacity:1;" d="M 15.003906 0 L 14.613281 5.472656 L 12.820312 0.285156 L 10.894531 0.804688 L 11.9375 6.191406 L 8.863281 1.644531 L 7.136719 2.640625 L 9.535156 7.578125 L 5.390625 3.980469 L 3.980469 5.390625 L 7.578125 9.535156 L 2.640625 7.136719 L 1.644531 8.863281 L 6.183594 11.933594 L 0.800781 10.894531 L 0.285156 12.824219 L 5.46875 14.617188 L -0.00390625 15.003906 L -0.00390625 17 L 5.46875 17.386719 L 0.285156 19.179688 L 0.800781 21.105469 L 6.1875 20.0625 L 1.644531 23.136719 L 2.640625 24.867188 L 7.574219 22.464844 L 3.980469 26.609375 L 5.390625 28.019531 L 9.535156 24.425781 L 7.136719 29.359375 L 8.863281 30.359375 L 11.9375 25.8125 L 10.894531 31.199219 L 12.820312 31.714844 L 14.613281 26.53125 L 15.003906 32.003906 L 16.996094 32.003906 L 17.386719 26.53125 L 19.179688 31.714844 L 21.105469 31.199219 L 20.0625 25.8125 L 23.136719 30.359375 L 24.863281 29.359375 L 22.464844 24.425781 L 26.609375 28.019531 L 28.019531 26.609375 L 24.425781 22.464844 L 29.359375 24.867188 L 30.355469 23.136719 L 25.8125 20.0625 L 31.199219 21.105469 L 31.714844 19.179688 L 26.53125 17.386719 L 32.003906 17 L 32.003906 15.003906 L 26.53125 14.617188 L 31.714844 12.824219 L 31.199219 10.894531 L 25.816406 11.933594 L 30.355469 8.863281 L 29.359375 7.136719 L 24.421875 9.535156 L 28.019531 5.390625 L 26.609375 3.980469 L 22.464844 7.578125 L 24.863281 2.640625 L 23.136719 1.644531 L 20.0625 6.191406 L 21.105469 0.804688 L 19.179688 0.285156 L 17.386719 5.472656 L 16.996094 0 Z M 16 12 C 18.210938 12 20 13.789062 20 16 C 20 18.210938 18.210938 20 16 20 C 13.789062 20 12 18.210938 12 16 C 12 13.789062 13.789062 12 16 12 Z M 16 12 "/>
<use xlink:href="#surface5" mask="url(#mask0)"/>
</g>
</svg>
