<?xml version="1.0" encoding="UTF-8"?>
<svg xmlns="http://www.w3.org/2000/svg" xmlns:xlink="http://www.w3.org/1999/xlink" width="32px" height="32px" viewBox="0 0 32 32" version="1.1">
<g id="surface1">
<path style="fill-rule:nonzero;fill:rgb(94.117647%,89.019608%,92.54902%);fill-opacity:1;stroke-width:1;stroke-linecap:butt;stroke-linejoin:miter;stroke:rgb(90.196079%,0.784314%,70.588237%);stroke-opacity:1;stroke-miterlimit:4;" d="M 4.720703 1.5 C 4.736328 1.603516 4.746094 1.708984 4.75 1.816406 L 4.75 1.904297 C 4.75 3.46875 3.476562 4.738281 1.90625 4.738281 C 1.767578 4.738281 1.632812 4.728516 1.5 4.708984 L 1.5 11.240234 C 1.632812 11.220703 1.767578 11.212891 1.90625 11.212891 C 3.445312 11.212891 4.701172 12.423828 4.75 13.957031 L 4.75 14.044922 C 4.75 14.199219 4.738281 14.351562 4.714844 14.5 L 11.285156 14.5 C 11.261719 14.351562 11.253906 14.199219 11.25 14.044922 C 11.199219 12.314453 12.384766 11.240234 14.5 11.240234 L 14.5 4.708984 C 14.367188 4.728516 14.232422 4.738281 14.09375 4.738281 C 12.523438 4.738281 11.25 3.46875 11.25 1.904297 C 11.25 1.767578 11.259766 1.632812 11.279297 1.5 Z M 4.720703 1.5 " transform="matrix(2,0,0,2,0,0)"/>
</g>
</svg>
