<?xml version="1.0" encoding="UTF-8"?>
<svg xmlns="http://www.w3.org/2000/svg" xmlns:xlink="http://www.w3.org/1999/xlink" width="32px" height="32px" viewBox="0 0 32 32" version="1.1">
<g id="surface1">
<path style=" stroke:none;fill-rule:nonzero;fill:rgb(33.333334%,34.117648%,32.549021%);fill-opacity:1;" d="M 30 4 L 2 4 L 2 18 L 8 18 L 8 14 L 6 14 L 6 8 L 26 8 L 26 14 L 24 14 L 24 18 L 30 18 Z M 30 20 L 24 20 L 24 22 L 8 22 L 8 20 L 2 20 L 2 28 L 30 28 Z M 22 16 C 22 15.382812 21.820312 14.894531 21.4375 14.5 L 17.75 10 L 14.339844 10 C 12.421875 12.199219 12.203125 12.332031 10.5625 14.5 C 10.179688 14.894531 10 15.382812 10 16 L 10 18 L 12 18 C 12.515625 18 13.058594 17.742188 13.4375 17.375 L 14 16.355469 L 14 20 L 18 20 L 18 16.355469 L 18.5625 17.375 C 18.941406 17.742188 19.484375 18 20 18 L 22 18 Z M 22 16 "/>
</g>
</svg>
