<?xml version="1.0" encoding="UTF-8"?>
<svg xmlns="http://www.w3.org/2000/svg" xmlns:xlink="http://www.w3.org/1999/xlink" width="32px" height="32px" viewBox="0 0 32 32" version="1.1">
<g id="surface1">
<path style="fill-rule:nonzero;fill:rgb(94.117647%,89.019608%,92.54902%);fill-opacity:1;stroke-width:1;stroke-linecap:square;stroke-linejoin:round;stroke:rgb(90.196079%,0.784314%,70.588237%);stroke-opacity:1;stroke-miterlimit:4;" d="M 2 1.5 L 14 1.5 C 14.275391 1.5 14.5 1.724609 14.5 2 L 14.5 14 C 14.5 14.275391 14.275391 14.5 14 14.5 L 2 14.5 C 1.724609 14.5 1.5 14.275391 1.5 14 L 1.5 2 C 1.5 1.724609 1.724609 1.5 2 1.5 Z M 2 1.5 " transform="matrix(2,0,0,2,0,0)"/>
<path style="fill-rule:nonzero;fill:rgb(90.196079%,0.784314%,70.588237%);fill-opacity:1;stroke-width:1;stroke-linecap:square;stroke-linejoin:round;stroke:rgb(90.196079%,0.784314%,70.588237%);stroke-opacity:1;stroke-miterlimit:4;" d="M 1.615234 1.5 L 14.384766 1.5 C 14.449219 1.5 14.5 1.550781 14.5 1.615234 L 14.5 4.384766 C 14.5 4.449219 14.449219 4.5 14.384766 4.5 L 1.615234 4.5 C 1.550781 4.5 1.5 4.449219 1.5 4.384766 L 1.5 1.615234 C 1.5 1.550781 1.550781 1.5 1.615234 1.5 Z M 1.615234 1.5 " transform="matrix(2,0,0,2,0,0)"/>
<path style="fill-rule:nonzero;fill:rgb(94.117647%,89.019608%,92.54902%);fill-opacity:1;stroke-width:1;stroke-linecap:square;stroke-linejoin:round;stroke:rgb(90.196079%,0.784314%,70.588237%);stroke-opacity:1;stroke-miterlimit:4;" d="M 1.615234 11.5 L 14.384766 11.5 C 14.449219 11.5 14.5 11.550781 14.5 11.615234 L 14.5 14.384766 C 14.5 14.449219 14.449219 14.5 14.384766 14.5 L 1.615234 14.5 C 1.550781 14.5 1.5 14.449219 1.5 14.384766 L 1.5 11.615234 C 1.5 11.550781 1.550781 11.5 1.615234 11.5 Z M 1.615234 11.5 " transform="matrix(2,0,0,2,0,0)"/>
<path style="fill:none;stroke-width:1;stroke-linecap:round;stroke-linejoin:round;stroke:rgb(90.196079%,0.784314%,70.588237%);stroke-opacity:1;stroke-miterlimit:4;" d="M 1.5 14.5 L 4.5 11.5 " transform="matrix(2,0,0,2,0,0)"/>
<path style="fill:none;stroke-width:1;stroke-linecap:round;stroke-linejoin:round;stroke:rgb(90.196079%,0.784314%,70.588237%);stroke-opacity:1;stroke-miterlimit:4;" d="M 4 14.5 L 7 11.5 " transform="matrix(2,0,0,2,0,0)"/>
<path style="fill:none;stroke-width:1;stroke-linecap:round;stroke-linejoin:round;stroke:rgb(90.196079%,0.784314%,70.588237%);stroke-opacity:1;stroke-miterlimit:4;" d="M 6.5 14.5 L 9.5 11.5 " transform="matrix(2,0,0,2,0,0)"/>
<path style="fill:none;stroke-width:1;stroke-linecap:round;stroke-linejoin:round;stroke:rgb(90.196079%,0.784314%,70.588237%);stroke-opacity:1;stroke-miterlimit:4;" d="M 9 14.5 L 12 11.5 " transform="matrix(2,0,0,2,0,0)"/>
<path style="fill:none;stroke-width:1;stroke-linecap:round;stroke-linejoin:round;stroke:rgb(90.196079%,0.784314%,70.588237%);stroke-opacity:1;stroke-miterlimit:4;" d="M 11.5 14.5 L 14.5 11.5 " transform="matrix(2,0,0,2,0,0)"/>
</g>
</svg>
