<?xml version="1.0" encoding="UTF-8"?>
<svg xmlns="http://www.w3.org/2000/svg" xmlns:xlink="http://www.w3.org/1999/xlink" width="32px" height="32px" viewBox="0 0 32 32" version="1.1">
<g id="surface1">
<path style=" stroke:none;fill-rule:nonzero;fill:rgb(61.56863%,22.745098%,60.784316%);fill-opacity:1;" d="M 8.039062 11.996094 C 7.960938 11.597656 7.921875 11.171875 7.921875 10.710938 C 7.921875 9.433594 8.261719 8.300781 8.945312 7.320312 C 9.648438 6.316406 10.617188 5.550781 11.855469 5.015625 C 13.113281 4.460938 14.542969 4.183594 16.144531 4.183594 C 17.636719 4.183594 19.023438 4.417969 20.304688 4.886719 C 21.605469 5.335938 22.691406 5.988281 23.566406 6.839844 C 23.910156 7.179688 24.078125 7.554688 24.078125 7.960938 C 24.078125 8.257812 23.996094 8.523438 23.824219 8.761719 C 23.652344 8.972656 23.449219 9.078125 23.214844 9.078125 C 22.980469 9.078125 22.671875 8.960938 22.289062 8.726562 C 21.242188 7.875 20.273438 7.277344 19.375 6.9375 C 18.480469 6.59375 17.402344 6.425781 16.144531 6.425781 C 14.375 6.425781 12.996094 6.796875 12.015625 7.542969 C 11.035156 8.269531 10.476562 9.382812 10.796875 10.667969 C 10.964844 11.332031 11.464844 11.609375 11.632812 12 M 23.152344 17.71875 C 23.898438 18.507812 24.273438 19.566406 24.273438 20.886719 C 24.273438 22.148438 23.921875 23.257812 23.214844 24.214844 C 22.535156 25.175781 21.5625 25.921875 20.304688 26.457031 C 19.046875 26.988281 17.605469 27.257812 15.984375 27.257812 C 14.382812 27.257812 12.847656 27.019531 11.375 26.550781 C 9.925781 26.0625 8.761719 25.410156 7.886719 24.601562 C 7.566406 24.300781 7.40625 23.929688 7.40625 23.480469 C 7.40625 23.179688 7.492188 22.925781 7.664062 22.710938 C 7.835938 22.476562 8.039062 22.359375 8.273438 22.359375 C 8.550781 22.359375 8.847656 22.476562 9.167969 22.710938 C 11.152344 24.246094 13.414062 25.015625 15.953125 25.015625 C 17.785156 25.015625 19.195312 24.664062 20.175781 23.960938 C 21.15625 23.257812 21.648438 22.253906 21.648438 20.953125 C 21.648438 20.207031 21.414062 19.609375 20.945312 19.160156 C 20.476562 18.691406 19.769531 17.933594 19 17.65625 "/>
<path style="fill:none;stroke-width:1;stroke-linecap:round;stroke-linejoin:miter;stroke:rgb(61.56863%,22.745098%,60.784316%);stroke-opacity:1;stroke-miterlimit:4;" d="M 2 7.5 L 14 7.5 " transform="matrix(2,0,0,2,0,0)"/>
</g>
</svg>
