<?xml version="1.0" encoding="UTF-8"?>
<svg xmlns="http://www.w3.org/2000/svg" xmlns:xlink="http://www.w3.org/1999/xlink" width="32px" height="32px" viewBox="0 0 32 32" version="1.1">
<g id="surface1">
<path style=" stroke:none;fill-rule:nonzero;fill:rgb(61.56863%,22.745098%,60.784316%);fill-opacity:1;" d="M 15.554688 1.703125 C 16.847656 1.703125 18.195312 1.933594 19.59375 2.390625 C 20.996094 2.820312 21.789062 3.035156 21.976562 3.035156 C 22.328125 3.035156 22.597656 2.941406 22.785156 2.753906 C 22.972656 2.539062 23.132812 2.175781 23.269531 1.664062 L 24.480469 1.664062 L 24.480469 10.425781 L 23.351562 10.425781 C 22.570312 7.871094 21.480469 5.984375 20.078125 4.773438 C 18.707031 3.5625 17.199219 2.957031 15.554688 2.957031 C 14.183594 2.957031 13.09375 3.320312 12.285156 4.046875 C 11.503906 4.773438 11.113281 5.753906 11.113281 6.996094 C 11.113281 7.964844 11.394531 8.769531 11.960938 9.417969 C 12.554688 10.035156 13.65625 10.75 15.273438 11.558594 L 21.210938 14.503906 C 22.5 15.152344 23.566406 16.160156 24.398438 17.535156 C 25.234375 18.90625 25.652344 20.347656 25.652344 21.855469 C 25.652344 24.386719 24.722656 26.445312 22.867188 28.035156 C 21.035156 29.597656 18.625 30.378906 15.636719 30.378906 C 14.183594 30.378906 12.730469 30.148438 11.273438 29.691406 C 9.847656 29.234375 9 29.003906 8.730469 29.003906 C 8.136719 29.003906 7.734375 29.460938 7.519531 30.378906 L 6.347656 30.378906 L 6.347656 20.402344 L 7.519531 20.402344 C 8.917969 26.164062 11.664062 29.042969 15.757812 29.042969 C 17.320312 29.042969 18.558594 28.628906 19.472656 27.792969 C 20.386719 26.957031 20.847656 25.839844 20.847656 24.441406 C 20.847656 23.390625 20.535156 22.527344 19.917969 21.855469 C 19.296875 21.183594 18.101562 20.429688 16.324219 19.59375 L 13.617188 18.300781 C 11.222656 17.144531 9.472656 15.90625 8.367188 14.585938 C 7.261719 13.242188 6.710938 11.679688 6.710938 9.902344 C 6.710938 7.34375 7.492188 5.339844 9.054688 3.882812 C 10.640625 2.429688 12.808594 1.703125 15.554688 1.703125 Z M 15.554688 1.703125 "/>
</g>
</svg>
