<?xml version="1.0" encoding="UTF-8"?>
<svg xmlns="http://www.w3.org/2000/svg" xmlns:xlink="http://www.w3.org/1999/xlink" width="32px" height="32px" viewBox="0 0 32 32" version="1.1">
<defs>
<linearGradient id="linear0" gradientUnits="userSpaceOnUse" x1="55.106628" y1="112.679497" x2="58.608353" y2="7.739506" gradientTransform="matrix(0.304597,-0.0101641,0.0101641,0.304597,-3.93053,-1.761534)">
<stop offset="0" style="stop-color:rgb(100%,100%,100%);stop-opacity:1;"/>
<stop offset="0.59375" style="stop-color:rgb(100%,100%,100%);stop-opacity:1;"/>
<stop offset="0.84375" style="stop-color:rgb(94.509804%,94.509804%,94.509804%);stop-opacity:1;"/>
<stop offset="0.90625" style="stop-color:rgb(91.764706%,91.764706%,91.764706%);stop-opacity:1;"/>
<stop offset="1" style="stop-color:rgb(87.450981%,87.450981%,87.450981%);stop-opacity:1;"/>
</linearGradient>
<linearGradient id="linear1" gradientUnits="userSpaceOnUse" x1="55.106628" y1="112.679497" x2="58.608353" y2="7.739506" gradientTransform="matrix(0.173574,-0.00579196,0.00579196,0.173574,4.642628,5.878634)">
<stop offset="0" style="stop-color:rgb(100%,100%,100%);stop-opacity:1;"/>
<stop offset="0.59375" style="stop-color:rgb(100%,100%,100%);stop-opacity:1;"/>
<stop offset="0.84375" style="stop-color:rgb(94.509804%,94.509804%,94.509804%);stop-opacity:1;"/>
<stop offset="0.90625" style="stop-color:rgb(91.764706%,91.764706%,91.764706%);stop-opacity:1;"/>
<stop offset="1" style="stop-color:rgb(87.450981%,87.450981%,87.450981%);stop-opacity:1;"/>
</linearGradient>
</defs>
<g id="surface1">
<path style=" stroke:none;fill-rule:nonzero;fill:rgb(90.196079%,0.784314%,70.588237%);fill-opacity:1;" d="M 10.210938 0.0273438 C 9.6875 0.0273438 9.1875 0.234375 8.816406 0.605469 L 0.613281 8.800781 C 0.242188 9.167969 0.0351562 9.671875 0.0351562 10.195312 L 0.0273438 21.789062 C 0.0273438 22.3125 0.234375 22.8125 0.605469 23.183594 L 8.800781 31.386719 C 9.167969 31.757812 9.671875 31.964844 10.195312 31.964844 L 21.789062 31.972656 C 22.3125 31.972656 22.8125 31.765625 23.183594 31.394531 L 31.386719 23.199219 C 31.757812 22.832031 31.964844 22.328125 31.964844 21.804688 L 31.972656 10.210938 C 31.972656 9.6875 31.765625 9.1875 31.394531 8.816406 L 23.199219 0.613281 C 22.832031 0.242188 22.328125 0.0351562 21.804688 0.0351562 Z M 10.210938 0.0273438 "/>
<path style=" stroke:none;fill-rule:nonzero;fill:url(#linear0);" d="M 21.789062 30 L 10.195312 29.992188 L 2 21.789062 L 2.007812 10.195312 L 10.210938 2 L 21.804688 2.007812 L 30 10.210938 L 29.992188 21.804688 Z M 21.789062 30 "/>
<path style=" stroke:none;fill-rule:nonzero;fill:rgb(90.196079%,0.784314%,70.588237%);fill-opacity:1;" d="M 8.828125 30.335938 L 10.667969 31.117188 L 23.171875 1.664062 L 21.332031 0.882812 Z M 8.828125 30.335938 "/>
<path style=" stroke:none;fill-rule:nonzero;fill:rgb(90.196079%,0.784314%,70.588237%);fill-opacity:1;" d="M 21.332031 31.117188 L 23.171875 30.335938 L 10.667969 0.882812 L 8.828125 1.664062 Z M 21.332031 31.117188 "/>
<path style=" stroke:none;fill-rule:nonzero;fill:rgb(90.196079%,0.784314%,70.588237%);fill-opacity:1;" d="M 30.335938 8.828125 L 31.117188 10.667969 L 1.664062 23.171875 L 0.882812 21.332031 Z M 30.335938 8.828125 "/>
<path style=" stroke:none;fill-rule:nonzero;fill:rgb(90.196079%,0.784314%,70.588237%);fill-opacity:1;" d="M 31.117188 21.332031 L 30.335938 23.171875 L 0.882812 10.667969 L 1.664062 8.828125 Z M 31.117188 21.332031 "/>
<path style=" stroke:none;fill-rule:nonzero;fill:rgb(90.196079%,0.784314%,70.588237%);fill-opacity:1;" d="M 12.371094 5.992188 C 12.042969 5.992188 11.730469 6.121094 11.5 6.351562 L 6.355469 11.488281 C 6.125 11.71875 5.996094 12.035156 5.996094 12.359375 L 5.992188 19.628906 C 5.992188 19.957031 6.121094 20.269531 6.351562 20.5 L 11.488281 25.644531 C 11.71875 25.875 12.035156 26.003906 12.359375 26.003906 L 19.628906 26.007812 C 19.957031 26.007812 20.269531 25.878906 20.5 25.648438 L 25.644531 20.511719 C 25.875 20.28125 26.003906 19.964844 26.003906 19.640625 L 26.007812 12.371094 C 26.007812 12.042969 25.878906 11.730469 25.648438 11.5 L 20.511719 6.355469 C 20.28125 6.125 19.964844 5.996094 19.640625 5.996094 Z M 12.371094 5.992188 "/>
<path style=" stroke:none;fill-rule:nonzero;fill:url(#linear1);" d="M 19.300781 23.976562 L 12.691406 23.972656 L 8.023438 19.300781 L 8.027344 12.691406 L 12.699219 8.023438 L 19.308594 8.027344 L 23.976562 12.699219 L 23.972656 19.308594 Z M 19.300781 23.976562 "/>
</g>
</svg>
