<?xml version="1.0" encoding="UTF-8"?>
<svg xmlns="http://www.w3.org/2000/svg" xmlns:xlink="http://www.w3.org/1999/xlink" width="32px" height="32px" viewBox="0 0 32 32" version="1.1">
<g id="surface1">
<path style="fill-rule:nonzero;fill:rgb(94.117647%,89.019608%,92.54902%);fill-opacity:1;stroke-width:1.303355;stroke-linecap:round;stroke-linejoin:round;stroke:rgb(90.196079%,0.784314%,70.588237%);stroke-opacity:1;stroke-miterlimit:4;" d="M -17.001323 0.500242 L -7.000403 0.500242 C -5.999591 0.500242 -5.499185 1.000648 -5.500985 1.99966 L -5.500985 12.00058 C -5.499185 12.999592 -5.999591 13.499998 -7.000403 13.499998 L -17.001323 13.499998 C -17.998535 13.499998 -18.498941 12.999592 -18.500741 12.00058 L -18.500741 1.99966 C -18.498941 1.000648 -17.998535 0.500242 -17.001323 0.500242 Z M -17.001323 0.500242 " transform="matrix(1.085056,-1.085056,1.085056,1.085056,21.404604,-4.677685)"/>
<path style="fill-rule:nonzero;fill:rgb(94.117647%,89.019608%,92.54902%);fill-opacity:1;stroke-width:1.303355;stroke-linecap:round;stroke-linejoin:round;stroke:rgb(90.196079%,0.784314%,70.588237%);stroke-opacity:1;stroke-miterlimit:4;" d="M -14.691895 3.500878 L -9.30803 3.499078 C -8.769824 3.500878 -8.501621 3.769081 -8.499821 4.307287 L -8.499821 9.692952 C -8.499821 10.229358 -8.769824 10.499362 -9.30803 10.501162 L -14.691895 10.499362 C -15.231901 10.499362 -15.500105 10.231158 -15.500105 9.691152 L -15.500105 4.309087 C -15.500105 3.769081 -15.230101 3.499078 -14.691895 3.500878 Z M -14.691895 3.500878 " transform="matrix(1.085056,-1.085056,1.085056,1.085056,21.404604,-4.677685)"/>
<path style="fill:none;stroke-width:1.303355;stroke-linecap:butt;stroke-linejoin:miter;stroke:rgb(90.196079%,0.784314%,70.588237%);stroke-opacity:1;stroke-miterlimit:4;" d="M -18.000335 0.998848 L -15.500105 3.499078 " transform="matrix(1.085056,-1.085056,1.085056,1.085056,21.404604,-4.677685)"/>
<path style="fill:none;stroke-width:1.303355;stroke-linecap:butt;stroke-linejoin:miter;stroke:rgb(90.196079%,0.784314%,70.588237%);stroke-opacity:1;stroke-miterlimit:4;" d="M -8.499821 3.500878 L -5.999591 1.000648 " transform="matrix(1.085056,-1.085056,1.085056,1.085056,21.404604,-4.677685)"/>
<path style="fill:none;stroke-width:1.303355;stroke-linecap:butt;stroke-linejoin:miter;stroke:rgb(90.196079%,0.784314%,70.588237%);stroke-opacity:1;stroke-miterlimit:4;" d="M -8.499821 10.499362 L -5.999591 12.999592 " transform="matrix(1.085056,-1.085056,1.085056,1.085056,21.404604,-4.677685)"/>
<path style="fill:none;stroke-width:1.303355;stroke-linecap:butt;stroke-linejoin:miter;stroke:rgb(90.196079%,0.784314%,70.588237%);stroke-opacity:1;stroke-miterlimit:4;" d="M -15.500105 10.501162 L -18.000335 13.001392 " transform="matrix(1.085056,-1.085056,1.085056,1.085056,21.404604,-4.677685)"/>
</g>
</svg>
