<?xml version="1.0" encoding="UTF-8"?>
<svg xmlns="http://www.w3.org/2000/svg" xmlns:xlink="http://www.w3.org/1999/xlink" width="32px" height="32px" viewBox="0 0 32 32" version="1.1">
<g id="surface1">
<path style=" stroke:none;fill-rule:nonzero;fill:rgb(33.333334%,34.117648%,32.549021%);fill-opacity:1;" d="M 10 2 L 10 6 L 14 6 C 15.105469 6 16 6.894531 16 8 L 16 12 C 16 14.011719 17.011719 15.890625 18.691406 17 C 17.011719 18.109375 16 19.988281 16 22 L 16 26 C 16 27.105469 15.105469 28 14 28 L 10 28 L 10 32 L 14 32 C 17.3125 32 20 29.3125 20 26 L 20 22 C 20 20.894531 20.894531 20 22 20 L 24 20 L 24 14 L 22 14 C 20.894531 14 20 13.105469 20 12 L 20 8 C 20 4.6875 17.3125 2 14 2 Z M 10 2 "/>
</g>
</svg>
