<?xml version="1.0" encoding="UTF-8"?>
<svg xmlns="http://www.w3.org/2000/svg" xmlns:xlink="http://www.w3.org/1999/xlink" width="32px" height="32px" viewBox="0 0 32 32" version="1.1">
<g id="surface1">
<path style="fill-rule:nonzero;fill:rgb(94.117647%,89.019608%,92.54902%);fill-opacity:1;stroke-width:1;stroke-linecap:round;stroke-linejoin:round;stroke:rgb(90.196079%,0.784314%,70.588237%);stroke-opacity:1;stroke-miterlimit:4;" d="M 3 1.5 L 13 1.5 C 14 1.5 14.5 2 14.5 3 L 14.5 13 C 14.5 14 14 14.5 13 14.5 L 3 14.5 C 2 14.5 1.5 14 1.5 13 L 1.5 3 C 1.5 2 2 1.5 3 1.5 Z M 3 1.5 " transform="matrix(2,0,0,2,0,0)"/>
<path style="fill-rule:nonzero;fill:rgb(94.117647%,89.019608%,92.54902%);fill-opacity:1;stroke-width:1;stroke-linecap:round;stroke-linejoin:round;stroke:rgb(90.196079%,0.784314%,70.588237%);stroke-opacity:1;stroke-miterlimit:4;" d="M 5.308594 4.5 L 10.691406 4.5 C 11.230469 4.5 11.5 4.769531 11.5 5.308594 L 11.5 10.691406 C 11.5 11.230469 11.230469 11.5 10.691406 11.5 L 5.308594 11.5 C 4.769531 11.5 4.5 11.230469 4.5 10.691406 L 4.5 5.308594 C 4.5 4.769531 4.769531 4.5 5.308594 4.5 Z M 5.308594 4.5 " transform="matrix(2,0,0,2,0,0)"/>
<path style="fill:none;stroke-width:1;stroke-linecap:butt;stroke-linejoin:miter;stroke:rgb(90.196079%,0.784314%,70.588237%);stroke-opacity:1;stroke-miterlimit:4;" d="M 2 2 L 4.5 4.5 " transform="matrix(2,0,0,2,0,0)"/>
<path style="fill:none;stroke-width:1;stroke-linecap:butt;stroke-linejoin:miter;stroke:rgb(90.196079%,0.784314%,70.588237%);stroke-opacity:1;stroke-miterlimit:4;" d="M 11.5 4.5 L 14 2 " transform="matrix(2,0,0,2,0,0)"/>
<path style="fill:none;stroke-width:1;stroke-linecap:butt;stroke-linejoin:miter;stroke:rgb(90.196079%,0.784314%,70.588237%);stroke-opacity:1;stroke-miterlimit:4;" d="M 11.5 11.5 L 14 14 " transform="matrix(2,0,0,2,0,0)"/>
<path style="fill:none;stroke-width:1;stroke-linecap:butt;stroke-linejoin:miter;stroke:rgb(90.196079%,0.784314%,70.588237%);stroke-opacity:1;stroke-miterlimit:4;" d="M 4.5 11.5 L 2 14 " transform="matrix(2,0,0,2,0,0)"/>
</g>
</svg>
