<?xml version="1.0" encoding="UTF-8"?>
<svg xmlns="http://www.w3.org/2000/svg" xmlns:xlink="http://www.w3.org/1999/xlink" width="32px" height="32px" viewBox="0 0 32 32" version="1.1">
<g id="surface1">
<path style="fill-rule:nonzero;fill:rgb(94.117647%,89.019608%,92.54902%);fill-opacity:1;stroke-width:1;stroke-linecap:round;stroke-linejoin:round;stroke:rgb(90.196079%,0.784314%,70.588237%);stroke-opacity:1;stroke-miterlimit:4;" d="M 9 10.5 C 8.619141 11.402344 8.652344 12.566406 9 14 C 10.505859 14.228516 11.667969 13.996094 12.5 13.322266 C 12.597656 12.197266 12.617188 11.076172 12 10 C 12.792969 10.224609 13.632812 11.001953 14.322266 10 C 14.521484 8.837891 14.65625 7.632812 14.169922 6 C 13.736328 5.791016 12.791016 6.246094 12 6.5 C 12.408203 5.238281 12.707031 3.992188 12.5 2.814453 C 11.359375 2.458984 10.236328 1.945312 9 2.5 C 8.507812 3.550781 8.740234 4.771484 9 6 L 6.822266 6 C 7.082031 4.771484 7.314453 3.550781 6.822266 2.5 C 5.585938 1.945312 4.462891 2.458984 3.322266 2.814453 C 3.115234 3.992188 3.412109 5.238281 3.822266 6.5 C 3.03125 6.246094 2.085938 5.791016 1.652344 6 C 1.166016 7.632812 1.300781 8.837891 1.5 10 C 2.189453 11.001953 3.029297 10.224609 3.822266 10 C 3.205078 11.076172 3.224609 12.197266 3.322266 13.322266 C 4.154297 13.996094 5.316406 14.228516 6.822266 14 C 7.169922 12.566406 7.203125 11.402344 6.822266 10.5 Z M 9 10.5 " transform="matrix(2,0,0,2,0,0)"/>
</g>
</svg>
