<?xml version="1.0" encoding="UTF-8"?>
<svg xmlns="http://www.w3.org/2000/svg" xmlns:xlink="http://www.w3.org/1999/xlink" width="32px" height="32px" viewBox="0 0 32 32" version="1.1">
<g id="surface1">
<path style=" stroke:none;fill-rule:nonzero;fill:rgb(33.333334%,34.117648%,32.549021%);fill-opacity:1;" d="M 10 2 C 6.6875 2 4 4.6875 4 8 L 4 12 C 4 13.105469 3.105469 14 2 14 L 0 14 L 0 20 L 2 20 C 3.105469 20 4 20.894531 4 22 L 4 26 C 4 29.3125 6.6875 32 10 32 L 14 32 L 14 28 L 10 28 C 8.894531 28 8 27.105469 8 26 L 8 22 C 8 19.988281 6.988281 18.109375 5.308594 17 C 6.988281 15.890625 8 14.011719 8 12 L 8 8 C 8 6.894531 8.894531 6 10 6 L 14 6 L 14 2 Z M 18 2 L 18 6 L 22 6 C 23.105469 6 24 6.894531 24 8 L 24 12 C 24 14.011719 25.011719 15.890625 26.691406 17 C 25.011719 18.109375 24 19.988281 24 22 L 24 26 C 24 27.105469 23.105469 28 22 28 L 18 28 L 18 32 L 22 32 C 25.3125 32 28 29.3125 28 26 L 28 22 C 28 20.894531 28.894531 20 30 20 L 32 20 L 32 14 L 30 14 C 28.894531 14 28 13.105469 28 12 L 28 8 C 28 4.6875 25.3125 2 22 2 Z M 18 2 "/>
</g>
</svg>
