<?xml version="1.0" encoding="UTF-8"?>
<svg xmlns="http://www.w3.org/2000/svg" xmlns:xlink="http://www.w3.org/1999/xlink" width="32px" height="32px" viewBox="0 0 32 32" version="1.1">
<g id="surface1">
<path style=" stroke:none;fill-rule:nonzero;fill:rgb(33.333334%,34.117648%,32.549021%);fill-opacity:1;" d="M 22 2 L 22 6 L 18 6 C 16.894531 6 16 6.894531 16 8 L 16 12 C 16 14.011719 14.988281 15.890625 13.308594 17 C 14.988281 18.109375 16 19.988281 16 22 L 16 26 C 16 27.105469 16.894531 28 18 28 L 22 28 L 22 32 L 18 32 C 14.6875 32 12 29.3125 12 26 L 12 22 C 12 20.894531 11.105469 20 10 20 L 8 20 L 8 14 L 10 14 C 11.105469 14 12 13.105469 12 12 L 12 8 C 12 4.6875 14.6875 2 18 2 Z M 22 2 "/>
</g>
</svg>
