<?xml version="1.0" encoding="UTF-8"?>
<svg xmlns="http://www.w3.org/2000/svg" xmlns:xlink="http://www.w3.org/1999/xlink" width="32px" height="32px" viewBox="0 0 32 32" version="1.1">
<g id="surface1">
<path style="fill-rule:nonzero;fill:rgb(94.117647%,89.019608%,92.54902%);fill-opacity:1;stroke-width:1;stroke-linecap:round;stroke-linejoin:round;stroke:rgb(90.196079%,0.784314%,70.588237%);stroke-opacity:1;stroke-miterlimit:4;" d="M 7.916016 1.501953 L 6.5 4.572266 L 3.330078 3.402344 L 4.5 6.572266 L 1.431641 7.986328 L 4.5 9.400391 L 3.330078 12.570312 L 6.5 11.400391 L 7.916016 14.470703 L 9.330078 11.400391 L 12.5 12.570312 L 11.330078 9.400391 L 14.398438 7.986328 L 11.330078 6.572266 L 12.5 3.402344 L 9.330078 4.572266 Z M 8 6 C 9.105469 6 10 6.894531 10 8 C 10 9.105469 9.105469 10 8 10 C 6.894531 10 6 9.105469 6 8 C 6 6.894531 6.894531 6 8 6 Z M 8 6 " transform="matrix(2,0,0,2,0,0)"/>
</g>
</svg>
