<?xml version="1.0" encoding="UTF-8"?>
<svg xmlns="http://www.w3.org/2000/svg" xmlns:xlink="http://www.w3.org/1999/xlink" width="32px" height="32px" viewBox="0 0 32 32" version="1.1">
<g id="surface1">
<path style=" stroke:none;fill-rule:nonzero;fill:rgb(33.333334%,34.117648%,32.549021%);fill-opacity:1;" d="M 3.871094 2 C 2.835938 2 2 2.835938 2 3.871094 L 2 18.128906 C 2 19.164062 2.835938 20 3.871094 20 L 4 20 L 4 4 L 16.878906 4 L 10 11.808594 L 6.636719 8.828125 L 4 12 L 8 16 L 11.761719 16 L 20 6.65625 L 17.246094 4 L 20 4 L 20 12.066406 C 20.332031 12.027344 20.664062 12.003906 21 12 C 21.335938 12.003906 21.667969 12.023438 22 12.0625 L 22 3.871094 C 22 2.835938 21.164062 2 20.128906 2 Z M 12 18 L 12 20 L 12.0625 20 C 12.140625 19.316406 12.296875 18.648438 12.527344 18 Z M 12 18 "/>
<path style=" stroke:none;fill-rule:nonzero;fill:rgb(33.333334%,34.117648%,32.549021%);fill-opacity:1;" d="M 21 12 C 16.421875 12.003906 12.574219 15.449219 12.066406 20 L 13.199219 20 C 13.472656 20 13.765625 20.058594 14.058594 20.144531 C 14.492188 16.636719 17.46875 14.003906 21 14 C 24.867188 14 28 17.132812 28 21 C 28 24.867188 24.867188 28 21 28 C 20.351562 28 19.707031 27.90625 19.082031 27.726562 C 18.4375 28.285156 17.925781 28.769531 17.441406 29.253906 C 18.566406 29.742188 19.777344 29.996094 21 30 C 25.96875 30 30 25.96875 30 21 C 30 16.03125 25.96875 12 21 12 Z M 21 16 C 18.238281 16 16 18.238281 16 21 C 16 21.140625 16.007812 21.285156 16.019531 21.425781 L 20.933594 25.996094 C 20.957031 25.996094 20.976562 26 21 26 C 23.761719 26 26 23.761719 26 21 C 26 18.238281 23.761719 16 21 16 Z M 21 16 "/>
<path style=" stroke:none;fill-rule:nonzero;fill:rgb(33.333334%,34.117648%,32.549021%);fill-opacity:1;" d="M 6 18 L 10 18 L 10 24 L 12.199219 24 C 12.085938 23.792969 12 23.5625 12 23.332031 L 12 22 L 13.199219 22 C 13.570312 22 13.863281 22.121094 14.101562 22.375 L 18 26 C 16.300781 27.429688 15.800781 28.195312 14.101562 29.625 C 13.863281 29.878906 13.570312 30 13.199219 30 L 12 30 L 12 28.667969 C 12 28.4375 12.085938 28.207031 12.199219 28 L 8 28 C 6.894531 28 6 27.105469 6 26 Z M 6 18 "/>
</g>
</svg>
