<?xml version="1.0" encoding="UTF-8"?>
<svg xmlns="http://www.w3.org/2000/svg" xmlns:xlink="http://www.w3.org/1999/xlink" width="32px" height="32px" viewBox="0 0 32 32" version="1.1">
<defs>
<filter id="alpha" filterUnits="objectBoundingBox" x="0%" y="0%" width="100%" height="100%">
  <feColorMatrix type="matrix" in="SourceGraphic" values="0 0 0 0 1 0 0 0 0 1 0 0 0 0 1 0 0 0 1 0"/>
</filter>
<mask id="mask0">
  <g filter="url(#alpha)">
<rect x="0" y="0" width="32" height="32" style="fill:rgb(0%,0%,0%);fill-opacity:0.35;stroke:none;"/>
  </g>
</mask>
<clipPath id="clip1">
  <rect x="0" y="0" width="32" height="32"/>
</clipPath>
<g id="surface5" clip-path="url(#clip1)">
<path style=" stroke:none;fill-rule:nonzero;fill:rgb(33.333334%,34.117648%,32.549021%);fill-opacity:1;" d="M 12 4 L 12 10 L 6 10 L 6 26 L 20 26 L 20 20 L 26 20 L 26 4 Z M 12 4 "/>
</g>
</defs>
<g id="surface1">
<use xlink:href="#surface5" mask="url(#mask0)"/>
<path style=" stroke:none;fill-rule:nonzero;fill:rgb(33.333334%,34.117648%,32.549021%);fill-opacity:1;" d="M 8 0 L 8 6 L 2 6 L 2 30 L 24 30 L 24 24 L 30 24 L 30 0 Z M 12 4 L 18 4 L 18 8 L 12 8 Z M 20 4 L 26 4 L 26 8 L 20 8 Z M 6 10 L 8 10 L 8 14 L 6 14 Z M 12 10 L 18 10 L 18 14 L 12 14 Z M 20 10 L 26 10 L 26 14 L 20 14 Z M 6 16 L 8 16 L 8 20 L 6 20 Z M 12 16 L 18 16 L 18 20 L 12 20 Z M 20 16 L 26 16 L 26 20 L 20 20 Z M 6 22 L 8 22 L 8 24 L 12 24 L 12 26 L 6 26 Z M 14 24 L 20 24 L 20 26 L 14 26 Z M 14 24 "/>
</g>
</svg>
