<?xml version="1.0" encoding="UTF-8"?>
<svg xmlns="http://www.w3.org/2000/svg" xmlns:xlink="http://www.w3.org/1999/xlink" width="32px" height="32px" viewBox="0 0 32 32" version="1.1">
<g id="surface1">
<path style="fill-rule:nonzero;fill:rgb(95.294118%,71.764708%,85.09804%);fill-opacity:1;stroke-width:1;stroke-linecap:round;stroke-linejoin:round;stroke:rgb(90.196079%,0.784314%,70.588237%);stroke-opacity:1;stroke-miterlimit:4;" d="M 1 5 L 1 15 L 11 15 Z M 2.5 8.5 L 7.5 13.5 L 2.5 13.5 Z M 2.5 8.5 " transform="matrix(2,0,0,2,0,0)"/>
<path style="fill-rule:nonzero;fill:rgb(95.294118%,71.764708%,85.09804%);fill-opacity:1;stroke-width:0.237703;stroke-linecap:butt;stroke-linejoin:miter;stroke:rgb(61.56863%,22.745098%,60.784316%);stroke-opacity:1;stroke-miterlimit:4;" d="M 13.899581 1.910623 L 12.698684 3.510787 L 14.298848 4.711684 L 15.499745 3.113067 L 14.999887 2.111804 Z M 13.899581 1.910623 " transform="matrix(2.524155,0,0,2.524155,-9.479234,-2.518021)"/>
<path style="fill-rule:nonzero;fill:rgb(95.294118%,71.764708%,85.09804%);fill-opacity:1;stroke-width:0.158469;stroke-linecap:butt;stroke-linejoin:miter;stroke:rgb(61.56863%,22.745098%,60.784316%);stroke-opacity:1;stroke-miterlimit:4;" d="M 7.792959 11.706598 L 8.195322 9.507533 L 8.894813 9.40849 L 8.786485 9.951679 L 9.301818 9.713357 L 9.185752 10.251903 L 9.70418 10.015128 L 9.793938 10.70843 L 7.792959 11.706598 " transform="matrix(2.524155,0,0,2.524155,-9.479234,-2.518021)"/>
<path style="fill-rule:nonzero;fill:rgb(61.56863%,22.745098%,60.784316%);fill-opacity:1;stroke-width:0.0792344;stroke-linecap:butt;stroke-linejoin:miter;stroke:rgb(61.56863%,22.745098%,60.784316%);stroke-opacity:1;stroke-miterlimit:4;" d="M 8.13342 10.592364 L 8.676609 11.041152 L 7.794507 11.714335 Z M 8.13342 10.592364 " transform="matrix(2.524155,0,0,2.524155,-9.479234,-2.518021)"/>
<path style="fill-rule:nonzero;fill:rgb(90.196079%,0.784314%,70.588237%);fill-opacity:1;stroke-width:0.0792344;stroke-linecap:butt;stroke-linejoin:miter;stroke:rgb(61.56863%,22.745098%,60.784316%);stroke-opacity:1;stroke-miterlimit:4;" d="M 12.698684 3.510787 L 14.298848 4.711684 L 9.793938 10.70843 L 9.70418 10.015128 L 9.185752 10.251903 L 9.229083 9.796924 L 8.786485 9.951679 L 8.839101 9.482772 L 8.195322 9.507533 Z M 12.698684 3.510787 " transform="matrix(2.524155,0,0,2.524155,-9.479234,-2.518021)"/>
<path style="fill:none;stroke-width:0.554641;stroke-linecap:butt;stroke-linejoin:round;stroke:rgb(61.56863%,22.745098%,60.784316%);stroke-opacity:1;stroke-miterlimit:4;" d="M 13.599357 2.311438 L 8.195322 9.507533 L 7.492735 12.107412 L 9.793938 10.70843 L 15.199521 3.512334 C 15.998055 2.48012 14.433485 1.234345 13.599357 2.311438 Z M 13.599357 2.311438 " transform="matrix(2.524155,0,0,2.524155,-9.479234,-2.518021)"/>
<path style="fill-rule:nonzero;fill:rgb(94.117647%,89.019608%,92.54902%);fill-opacity:1;stroke-width:1;stroke-linecap:round;stroke-linejoin:round;stroke:rgb(61.56863%,22.745098%,60.784316%);stroke-opacity:1;stroke-miterlimit:4;" d="M 1 12 L 15 12 L 15 15 L 1 15 Z M 1 12 " transform="matrix(2,0,0,2,0,0)"/>
<path style="fill:none;stroke-width:1;stroke-linecap:butt;stroke-linejoin:miter;stroke:rgb(61.56863%,22.745098%,60.784316%);stroke-opacity:1;stroke-miterlimit:4;" d="M 3 12 L 3 14 " transform="matrix(2,0,0,2,0,0)"/>
<path style="fill:none;stroke-width:1;stroke-linecap:butt;stroke-linejoin:miter;stroke:rgb(61.56863%,22.745098%,60.784316%);stroke-opacity:1;stroke-miterlimit:4;" d="M 5 12 L 5 13.5 " transform="matrix(2,0,0,2,0,0)"/>
<path style="fill:none;stroke-width:1;stroke-linecap:butt;stroke-linejoin:miter;stroke:rgb(61.56863%,22.745098%,60.784316%);stroke-opacity:1;stroke-miterlimit:4;" d="M 7 12 L 7 14 " transform="matrix(2,0,0,2,0,0)"/>
<path style="fill:none;stroke-width:1;stroke-linecap:butt;stroke-linejoin:miter;stroke:rgb(61.56863%,22.745098%,60.784316%);stroke-opacity:1;stroke-miterlimit:4;" d="M 9 12 L 9 13.5 " transform="matrix(2,0,0,2,0,0)"/>
<path style="fill:none;stroke-width:1;stroke-linecap:butt;stroke-linejoin:miter;stroke:rgb(61.56863%,22.745098%,60.784316%);stroke-opacity:1;stroke-miterlimit:4;" d="M 11 12 L 11 14 " transform="matrix(2,0,0,2,0,0)"/>
<path style="fill:none;stroke-width:1;stroke-linecap:butt;stroke-linejoin:miter;stroke:rgb(61.56863%,22.745098%,60.784316%);stroke-opacity:1;stroke-miterlimit:4;" d="M 13 12 L 13 13.5 " transform="matrix(2,0,0,2,0,0)"/>
</g>
</svg>
