<?xml version="1.0" encoding="UTF-8"?>
<svg xmlns="http://www.w3.org/2000/svg" xmlns:xlink="http://www.w3.org/1999/xlink" width="32px" height="32px" viewBox="0 0 32 32" version="1.1">
<g id="surface1">
<path style=" stroke:none;fill-rule:nonzero;fill:rgb(33.333334%,34.117648%,32.549021%);fill-opacity:1;" d="M 6 4 C 4.890625 4 4 4.890625 4 6 L 4 10 L 6 10 L 6 8 L 11 8 C 11.550781 8 12 8.449219 12 9 L 12 24 C 12 26.210938 10.210938 28 8 28 L 8 30 L 22.800781 30 C 20.871094 30 18.570312 29.328125 16.613281 27.441406 L 16 26.851562 L 16 22 L 20 22 L 20 9 C 20 8.449219 20.449219 8 21 8 L 26 8 L 26 10 L 28 10 L 28 6 C 28 4.890625 27.109375 4 26 4 Z M 24 18 L 24 20 C 27.121094 23.246094 22.867188 26.996094 20 24 L 18 24 L 18 26 C 19.601562 27.542969 21.269531 28 22.800781 28 L 26 28 L 30 32 L 32 32 L 32 30 L 28 26 L 28 22.800781 C 28 21.035156 27.570312 19.601562 26 18 Z M 24 18 "/>
</g>
</svg>
