<?xml version="1.0" encoding="UTF-8"?>
<svg xmlns="http://www.w3.org/2000/svg" xmlns:xlink="http://www.w3.org/1999/xlink" width="32px" height="32px" viewBox="0 0 32 32" version="1.1">
<g id="surface1">
<path style="fill-rule:nonzero;fill:rgb(95.294118%,71.764708%,85.09804%);fill-opacity:1;stroke-width:0.264583;stroke-linecap:butt;stroke-linejoin:miter;stroke:rgb(90.196079%,0.784314%,70.588237%);stroke-opacity:1;stroke-miterlimit:4;" d="M 0.529166 0.79375 L 0.529166 3.439584 C 0.529166 3.704167 0.79375 3.96875 1.058333 3.96875 L 3.175 3.96875 C 3.439583 3.96875 3.704167 3.704167 3.704167 3.439584 L 3.704167 0.79375 C 3.704167 0.529167 3.439583 0.264583 3.175 0.264583 L 1.058333 0.264583 C 0.79375 0.264583 0.529166 0.529167 0.529166 0.79375 Z M 0.529166 0.79375 " transform="matrix(7.559055,0,0,7.559055,0.00000180222,0)"/>
<path style=" stroke:none;fill-rule:nonzero;fill:rgb(61.56863%,22.745098%,60.784316%);fill-opacity:1;" d="M 18 0.957031 L 18 14 L 21 10.414062 L 24 14 L 24 1 Z M 18 0.957031 "/>
<path style="fill:none;stroke-width:0.264583;stroke-linecap:round;stroke-linejoin:miter;stroke:rgb(90.196079%,0.784314%,70.588237%);stroke-opacity:1;stroke-miterlimit:4;" d="M 1.322917 3.96875 L 1.322917 1.322917 " transform="matrix(7.559055,0,0,7.559055,0.00000180222,0)"/>
<path style="fill:none;stroke-width:0.264583;stroke-linecap:round;stroke-linejoin:miter;stroke:rgb(90.196079%,0.784314%,70.588237%);stroke-opacity:1;stroke-miterlimit:4;" d="M 1.322917 0.661458 L 1.322917 0.926042 " transform="matrix(7.559055,0,0,7.559055,0.00000180222,0)"/>
<path style=" stroke:none;fill-rule:nonzero;fill:rgb(61.56863%,22.745098%,60.784316%);fill-opacity:1;" d="M 8 5 C 8 5.550781 7.550781 6 7 6 C 6.449219 6 6 5.550781 6 5 C 6 4.449219 6.449219 4 7 4 C 7.550781 4 8 4.449219 8 5 Z M 8 5 "/>
<path style=" stroke:none;fill-rule:nonzero;fill:rgb(61.56863%,22.745098%,60.784316%);fill-opacity:1;" d="M 8 8 C 8 8.550781 7.550781 9 7 9 C 6.449219 9 6 8.550781 6 8 C 6 7.449219 6.449219 7 7 7 C 7.550781 7 8 7.449219 8 8 Z M 8 8 "/>
<path style=" stroke:none;fill-rule:nonzero;fill:rgb(61.56863%,22.745098%,60.784316%);fill-opacity:1;" d="M 8 11 C 8 11.550781 7.550781 12 7 12 C 6.449219 12 6 11.550781 6 11 C 6 10.449219 6.449219 10 7 10 C 7.550781 10 8 10.449219 8 11 Z M 8 11 "/>
<path style=" stroke:none;fill-rule:nonzero;fill:rgb(61.56863%,22.745098%,60.784316%);fill-opacity:1;" d="M 8 14 C 8 14.550781 7.550781 15 7 15 C 6.449219 15 6 14.550781 6 14 C 6 13.449219 6.449219 13 7 13 C 7.550781 13 8 13.449219 8 14 Z M 8 14 "/>
<path style=" stroke:none;fill-rule:nonzero;fill:rgb(61.56863%,22.745098%,60.784316%);fill-opacity:1;" d="M 8 17 C 8 17.550781 7.550781 18 7 18 C 6.449219 18 6 17.550781 6 17 C 6 16.449219 6.449219 16 7 16 C 7.550781 16 8 16.449219 8 17 Z M 8 17 "/>
<path style=" stroke:none;fill-rule:nonzero;fill:rgb(61.56863%,22.745098%,60.784316%);fill-opacity:1;" d="M 8 20 C 8 20.550781 7.550781 21 7 21 C 6.449219 21 6 20.550781 6 20 C 6 19.449219 6.449219 19 7 19 C 7.550781 19 8 19.449219 8 20 Z M 8 20 "/>
<path style=" stroke:none;fill-rule:nonzero;fill:rgb(61.56863%,22.745098%,60.784316%);fill-opacity:1;" d="M 8 23 C 8 23.550781 7.550781 24 7 24 C 6.449219 24 6 23.550781 6 23 C 6 22.449219 6.449219 22 7 22 C 7.550781 22 8 22.449219 8 23 Z M 8 23 "/>
<path style=" stroke:none;fill-rule:nonzero;fill:rgb(61.56863%,22.745098%,60.784316%);fill-opacity:1;" d="M 8 26 C 8 26.550781 7.550781 27 7 27 C 6.449219 27 6 26.550781 6 26 C 6 25.449219 6.449219 25 7 25 C 7.550781 25 8 25.449219 8 26 Z M 8 26 "/>
<path style=" stroke:none;fill-rule:nonzero;fill:rgb(61.56863%,22.745098%,60.784316%);fill-opacity:1;" d="M 16.796875 20.699219 C 16.417969 19.433594 16.570312 19.289062 16.125 18.070312 C 15.554688 19.238281 15.703125 19.445312 15.25 20.640625 C 16.148438 20.535156 15.890625 20.652344 16.796875 20.699219 Z M 17.796875 20.359375 C 17.835938 20.5 17.898438 20.707031 17.992188 20.972656 C 18.089844 21.238281 18.195312 21.53125 18.308594 21.847656 C 18.421875 22.160156 18.542969 22.476562 18.664062 22.804688 C 18.792969 23.128906 18.90625 23.429688 19.003906 23.703125 C 19.101562 23.96875 19.1875 24.1875 19.253906 24.363281 C 19.324219 24.53125 19.355469 24.617188 19.355469 24.625 C 19.371094 24.65625 19.378906 24.691406 19.378906 24.738281 C 19.378906 24.882812 19.3125 24.980469 19.175781 25.035156 C 19.152344 25.050781 18.535156 24.976562 18.480469 24.976562 C 18.417969 24.976562 18.359375 24.957031 18.296875 24.921875 C 17.761719 23.871094 17.324219 22.609375 16.933594 21.632812 C 15.878906 21.398438 15.988281 21.628906 14.941406 21.632812 C 14.433594 22.835938 13.988281 23.835938 13.519531 24.898438 C 13.460938 25.019531 13.359375 25.078125 13.222656 25.078125 C 13.171875 25.078125 12.558594 25.050781 12.53125 25.035156 C 12.402344 24.972656 12.335938 24.875 12.335938 24.738281 C 12.335938 24.699219 12.347656 24.660156 12.371094 24.613281 C 12.371094 24.605469 12.414062 24.511719 12.496094 24.328125 C 12.578125 24.140625 12.679688 23.902344 12.804688 23.625 C 12.933594 23.335938 13.070312 23.019531 13.222656 22.679688 C 13.375 22.328125 13.472656 22.304688 13.609375 21.984375 C 13.398438 22.007812 13.222656 22.03125 13.085938 22.054688 C 12.949219 22.066406 12.871094 22.074219 12.847656 22.074219 C 12.765625 22.074219 12.691406 22.050781 12.632812 21.996094 C 12.578125 21.941406 12.589844 21.554688 12.574219 21.449219 C 12.574219 21.367188 12.597656 21.296875 12.644531 21.246094 C 12.695312 21.183594 12.765625 21.148438 12.847656 21.132812 C 12.863281 21.132812 12.96875 21.121094 13.167969 21.097656 C 13.371094 21.066406 13.625 21.035156 13.929688 21.007812 C 13.988281 20.871094 14.039062 20.746094 14.078125 20.632812 C 14.121094 20.515625 14.160156 20.417969 14.191406 20.335938 C 14.257812 20.128906 14.359375 19.859375 14.488281 19.527344 C 14.625 19.1875 14.765625 18.832031 14.917969 18.46875 C 15.070312 18.097656 15.222656 17.742188 15.375 17.398438 C 15.535156 17.050781 15.671875 16.761719 15.785156 16.535156 C 15.800781 16.414062 15.859375 16.328125 15.964844 16.273438 C 15.996094 16.257812 16.046875 16.25 16.113281 16.25 C 16.175781 16.25 16.226562 16.261719 16.273438 16.285156 C 16.371094 16.335938 16.429688 16.425781 16.445312 16.546875 C 16.542969 16.773438 16.65625 17.0625 16.785156 17.410156 C 16.921875 17.761719 17.054688 18.121094 17.183594 18.492188 C 17.320312 18.855469 17.441406 19.207031 17.546875 19.550781 C 17.652344 19.882812 17.738281 20.152344 17.796875 20.359375 Z M 17.796875 20.359375 "/>
<path style=" stroke:none;fill-rule:nonzero;fill:rgb(61.56863%,22.745098%,60.784316%);fill-opacity:1;" d="M 22.78125 23.597656 C 23.640625 22.914062 23.449219 22.472656 23.804688 21.601562 C 23.734375 20.683594 23.902344 20.359375 23.804688 19.496094 C 23.691406 19.429688 23.5625 19.441406 23.453125 19.417969 C 22.816406 19.382812 22.871094 19.492188 22.347656 19.695312 C 21.425781 20.191406 21.578125 20.949219 21.261719 21.726562 C 21.246094 22.777344 21.265625 23.011719 21.652344 23.734375 C 22.0625 24.046875 22.464844 23.636719 22.78125 23.597656 Z M 24.941406 21.585938 C 25.011719 22.058594 25.089844 22.476562 25.183594 22.847656 C 25.273438 23.222656 25.355469 23.535156 25.433594 23.792969 C 25.515625 24.050781 25.585938 24.253906 25.636719 24.398438 C 25.699219 24.535156 25.726562 24.605469 25.726562 24.613281 C 25.734375 24.636719 25.738281 24.660156 25.738281 24.679688 C 25.746094 24.695312 25.75 24.714844 25.75 24.738281 C 25.75 24.875 25.691406 24.972656 25.570312 25.035156 C 25.507812 25.050781 25.1875 25.492188 25.160156 25.492188 C 25.015625 25.492188 24.921875 25.429688 24.875 25.308594 C 24.683594 25.023438 24.789062 25.101562 24.660156 24.773438 C 24.535156 24.441406 24.40625 23.976562 24.269531 23.386719 C 24.148438 23.683594 24.199219 23.488281 24.03125 23.738281 C 23.871094 23.988281 23.777344 24.238281 23.589844 24.417969 C 23.40625 24.601562 23.214844 24.742188 23.007812 24.839844 C 22.8125 24.945312 22.613281 25 22.417969 25 C 21.644531 25 21.070312 24.734375 20.699219 24.203125 C 20.328125 23.671875 20.140625 22.855469 20.140625 21.757812 C 20.140625 21.300781 20.210938 20.898438 20.347656 20.550781 C 20.484375 20.195312 20.65625 19.882812 20.871094 19.617188 C 21.089844 19.351562 21.332031 19.128906 21.597656 18.945312 C 21.871094 18.765625 22.136719 18.617188 22.394531 18.503906 C 22.652344 18.390625 22.890625 18.308594 23.109375 18.265625 C 23.332031 18.210938 23.503906 18.183594 23.632812 18.183594 C 23.863281 18.183594 24.058594 18.230469 24.226562 18.320312 C 24.394531 18.40625 24.53125 18.503906 24.636719 18.617188 C 24.75 18.722656 24.832031 18.824219 24.886719 18.925781 C 24.9375 19.015625 24.964844 19.066406 24.964844 19.070312 C 24.988281 19.109375 25 19.152344 25 19.199219 C 25 19.273438 24.964844 19.351562 24.898438 19.4375 C 24.964844 19.792969 25 20.261719 25 20.847656 C 25 20.96875 24.992188 21.089844 24.976562 21.210938 C 24.96875 21.332031 24.957031 21.457031 24.941406 21.585938 Z M 24.941406 21.585938 "/>
</g>
</svg>
