<?xml version="1.0" encoding="UTF-8"?>
<svg xmlns="http://www.w3.org/2000/svg" xmlns:xlink="http://www.w3.org/1999/xlink" width="32px" height="32px" viewBox="0 0 32 32" version="1.1">
<g id="surface1">
<path style=" stroke:none;fill-rule:nonzero;fill:rgb(33.333334%,34.117648%,32.549021%);fill-opacity:1;" d="M 6 4 C 4.894531 4 4 4.894531 4 6 L 4 28 C 4 29.105469 4.894531 30 6 30 L 22.800781 30 C 21.085938 30 19.0625 29.460938 17.253906 28 L 8 28 L 8 10 L 26 10 L 26 16 L 26.828125 16 L 27.398438 16.601562 C 27.625 16.800781 27.800781 17 28 17.234375 L 28 8 L 26 8 L 26 4 Z M 8 6 L 24 6 L 24 8 L 8 8 Z M 14 12 L 14 14 L 20 14 L 20 16 L 15 16 C 13.34375 16 12 17.34375 12 19 C 12 20.65625 13.34375 22 15 22 L 22 22 L 22 14 C 22 12.894531 21.105469 12 20 12 Z M 15 18 L 20 18 L 20 20 L 15 20 C 14.449219 20 14 19.550781 14 19 C 14 18.449219 14.449219 18 15 18 Z M 24 18 L 24 20 C 27.121094 23.199219 22.867188 27 20 24 L 18 24 L 18 26 C 19.601562 27.539062 21.28125 28 22.800781 28 L 26 28 L 30 32 L 32 32 L 32 30 L 28 26 L 28 22.800781 C 28 21 27.601562 19.601562 26 18 Z M 24 18 "/>
</g>
</svg>
