<?xml version="1.0" encoding="UTF-8"?>
<svg xmlns="http://www.w3.org/2000/svg" xmlns:xlink="http://www.w3.org/1999/xlink" width="32px" height="32px" viewBox="0 0 32 32" version="1.1">
<g id="surface1">
<path style="fill:none;stroke-width:1;stroke-linecap:round;stroke-linejoin:miter;stroke:rgb(90.196079%,0.784314%,70.588237%);stroke-opacity:1;stroke-miterlimit:4;" d="M 11.5 12.5 L 13.5 14.5 " transform="matrix(2,0,0,2,0,0)"/>
<path style="fill-rule:nonzero;fill:rgb(94.117647%,89.019608%,92.54902%);fill-opacity:1;stroke-width:1;stroke-linecap:round;stroke-linejoin:round;stroke:rgb(90.196079%,0.784314%,70.588237%);stroke-opacity:1;stroke-miterlimit:4;" d="M 5.5 3.5 C 5.5 4.328125 4.828125 5 4 5 C 3.171875 5 2.5 4.328125 2.5 3.5 C 2.5 2.671875 3.171875 2 4 2 C 4.828125 2 5.5 2.671875 5.5 3.5 Z M 5.5 3.5 " transform="matrix(2,0,0,2,0,0)"/>
<path style="fill-rule:nonzero;fill:rgb(94.117647%,89.019608%,92.54902%);fill-opacity:1;stroke-width:1;stroke-linecap:round;stroke-linejoin:round;stroke:rgb(90.196079%,0.784314%,70.588237%);stroke-opacity:1;stroke-miterlimit:4;" d="M 13.5 3.5 C 13.5 4.328125 12.828125 5 12 5 C 11.171875 5 10.5 4.328125 10.5 3.5 C 10.5 2.671875 11.171875 2 12 2 C 12.828125 2 13.5 2.671875 13.5 3.5 Z M 13.5 3.5 " transform="matrix(2,0,0,2,0,0)"/>
<path style="fill-rule:nonzero;fill:rgb(94.117647%,89.019608%,92.54902%);fill-opacity:1;stroke-width:0.869565;stroke-linecap:round;stroke-linejoin:round;stroke:rgb(90.196079%,0.784314%,70.588237%);stroke-opacity:1;stroke-miterlimit:4;" d="M 13.00068 8.00034 C 13.00068 10.761889 10.762228 13.00034 8.000679 13.00034 C 5.239131 13.00034 3.000679 10.761889 3.000679 8.00034 C 3.000679 5.238791 5.239131 3.00034 8.000679 3.00034 C 10.762228 3.00034 13.00068 5.238791 13.00068 8.00034 Z M 13.00068 8.00034 " transform="matrix(2.3,0,0,2.3,-2.55,-2.6)"/>
<path style="fill:none;stroke-width:0.869565;stroke-linecap:round;stroke-linejoin:round;stroke:rgb(61.56863%,22.745098%,60.784316%);stroke-opacity:1;stroke-miterlimit:4;" d="M 10.645041 4.999321 L 8.000679 8.00034 L 6.499321 6.67731 " transform="matrix(2.3,0,0,2.3,-2.55,-2.6)"/>
<path style=" stroke:none;fill-rule:nonzero;fill:rgb(61.56863%,22.745098%,60.784316%);fill-opacity:1;" d="M 17 6.601562 C 17 7.234375 16.484375 7.75 15.851562 7.75 C 15.214844 7.75 14.699219 7.234375 14.699219 6.601562 C 14.699219 5.964844 15.214844 5.449219 15.851562 5.449219 C 16.484375 5.449219 17 5.964844 17 6.601562 Z M 17 6.601562 "/>
<path style=" stroke:none;fill-rule:nonzero;fill:rgb(61.56863%,22.745098%,60.784316%);fill-opacity:1;" d="M 17 25 C 17 25.636719 16.484375 26.148438 15.851562 26.148438 C 15.214844 26.148438 14.699219 25.636719 14.699219 25 C 14.699219 24.363281 15.214844 23.851562 15.851562 23.851562 C 16.484375 23.851562 17 24.363281 17 25 Z M 17 25 "/>
<path style=" stroke:none;fill-rule:nonzero;fill:rgb(61.56863%,22.745098%,60.784316%);fill-opacity:1;" d="M 26.199219 15.800781 C 26.199219 16.433594 25.683594 16.949219 25.050781 16.949219 C 24.414062 16.949219 23.898438 16.433594 23.898438 15.800781 C 23.898438 15.164062 24.414062 14.648438 25.050781 14.648438 C 25.683594 14.648438 26.199219 15.164062 26.199219 15.800781 Z M 26.199219 15.800781 "/>
<path style=" stroke:none;fill-rule:nonzero;fill:rgb(61.56863%,22.745098%,60.784316%);fill-opacity:1;" d="M 7.800781 15.800781 C 7.800781 16.433594 7.285156 16.949219 6.648438 16.949219 C 6.015625 16.949219 5.5 16.433594 5.5 15.800781 C 5.5 15.164062 6.015625 14.648438 6.648438 14.648438 C 7.285156 14.648438 7.800781 15.164062 7.800781 15.800781 Z M 7.800781 15.800781 "/>
<path style="fill:none;stroke-width:1;stroke-linecap:round;stroke-linejoin:miter;stroke:rgb(90.196079%,0.784314%,70.588237%);stroke-opacity:1;stroke-miterlimit:4;" d="M 4.5 12.5 L 2.5 14.5 " transform="matrix(2,0,0,2,0,0)"/>
</g>
</svg>
