<?xml version="1.0" encoding="UTF-8"?>
<svg xmlns="http://www.w3.org/2000/svg" xmlns:xlink="http://www.w3.org/1999/xlink" width="32px" height="32px" viewBox="0 0 32 32" version="1.1">
<g id="surface1">
<path style=" stroke:none;fill-rule:nonzero;fill:rgb(33.333334%,34.117648%,32.549021%);fill-opacity:1;" d="M 6 2 C 3.800781 2 2 3.800781 2 6 C 2 7.933594 3.398438 9.589844 5.300781 10 L 9.171875 23.199219 C 8.421875 23.925781 8 24.941406 8 26 C 8 28.199219 9.800781 30 12 30 C 14.199219 30 16 28.199219 16 26 C 16 24.121094 14.683594 22.484375 12.839844 22.089844 L 8.933594 8.710938 C 9.136719 8.496094 9.3125 8.253906 9.460938 8 L 22.542969 8 C 23.257812 9.234375 24.574219 10 26 10 C 28.199219 10 30 8.199219 30 6 C 30 3.800781 28.199219 2 26 2 C 24.570312 2 23.253906 2.761719 22.539062 4 L 9.457031 4 C 8.742188 2.765625 7.425781 2 6 2 Z M 20 10 C 19.46875 10 19.160156 10 18.5625 10.5625 L 14 15.125 L 14 16.875 L 18.5625 21.4375 C 18.9375 21.800781 19.46875 22 20 22 L 22 22 L 22 20 C 22 19.46875 21.800781 18.9375 21.4375 18.5625 L 20.875 18 L 22 18 C 24.199219 18 26 19.800781 26 22 C 26 24.210938 24.199219 26 22 26 L 22 30 C 26.398438 30 30 26.398438 30 22 C 30 17.601562 26.398438 14 22 14 L 20.875 14 C 21.265625 13.652344 22 13.328125 22 12.847656 L 22 10 Z M 20 10 "/>
</g>
</svg>
