<?xml version="1.0" encoding="UTF-8"?>
<svg xmlns="http://www.w3.org/2000/svg" xmlns:xlink="http://www.w3.org/1999/xlink" width="32px" height="32px" viewBox="0 0 32 32" version="1.1">
<g id="surface1">
<path style=" stroke:none;fill-rule:nonzero;fill:rgb(33.333334%,34.117648%,32.549021%);fill-opacity:1;" d="M 16 2 C 8.199219 2 2 8.199219 2 16 C 2 23.800781 8.199219 30 16 30 L 16 26 C 10.480469 26 6 21.601562 6 16 C 6 10.480469 10.480469 6 16 6 C 21.230469 6 25.410156 9.90625 25.941406 14.917969 L 29.808594 18.234375 C 29.921875 17.503906 30 16.765625 30 16 C 30 8.199219 23.800781 2 16 2 Z M 16 10 C 12.6875 10 10 12.6875 10 16 C 10 19.3125 12.6875 22 16 22 Z M 18 10.746094 L 18 28.746094 L 22 24.746094 L 26 32 L 30 32 L 30 30 L 26 22.746094 L 32 22.746094 Z M 18 10.746094 "/>
</g>
</svg>
