<?xml version="1.0" encoding="UTF-8"?>
<svg xmlns="http://www.w3.org/2000/svg" xmlns:xlink="http://www.w3.org/1999/xlink" width="32px" height="32px" viewBox="0 0 32 32" version="1.1">
<g id="surface1">
<path style=" stroke:none;fill-rule:nonzero;fill:rgb(33.333334%,34.117648%,32.549021%);fill-opacity:1;" d="M 0 0 L 0 4 L 4 4 L 4 8 L 0 8 L 0 12 L 4 12 L 4 16 L 0 16 L 0 20 L 4 20 L 4 24 L 0 24 L 0 28 L 4 28 L 4 32 L 8 32 L 8 28 L 12 28 L 12 32 L 16 32 L 16 28 L 20 28 L 20 32 L 24 32 L 24 28 L 28 28 L 28 32 L 32 32 L 32 24 L 8 24 L 8 0 Z M 0 0 "/>
</g>
</svg>
