<?xml version="1.0" encoding="UTF-8"?>
<svg xmlns="http://www.w3.org/2000/svg" xmlns:xlink="http://www.w3.org/1999/xlink" width="32px" height="32px" viewBox="0 0 32 32" version="1.1">
<g id="surface1">
<path style="fill-rule:nonzero;fill:rgb(94.117647%,89.019608%,92.54902%);fill-opacity:1;stroke-width:1;stroke-linecap:round;stroke-linejoin:round;stroke:rgb(90.196079%,0.784314%,70.588237%);stroke-opacity:1;stroke-miterlimit:4;" d="M 5 1 L 13 1 C 14 1 15 2 15 3 L 15 13 C 15 14 14 15 13 15 L 5 15 C 4 15 3 14 3 13 L 3 3 C 3 2 4 1 5 1 Z M 5 1 " transform="matrix(2,0,0,2,0,0)"/>
<path style="fill:none;stroke-width:1;stroke-linecap:round;stroke-linejoin:miter;stroke:rgb(61.56863%,22.745098%,60.784316%);stroke-opacity:1;stroke-miterlimit:4;" d="M 5 5 L 13 5 " transform="matrix(2,0,0,2,0,0)"/>
<path style="fill:none;stroke-width:1;stroke-linecap:round;stroke-linejoin:miter;stroke:rgb(61.56863%,22.745098%,60.784316%);stroke-opacity:1;stroke-miterlimit:4;" d="M 5 7 L 13 7 " transform="matrix(2,0,0,2,0,0)"/>
<path style="fill:none;stroke-width:1;stroke-linecap:round;stroke-linejoin:miter;stroke:rgb(61.56863%,22.745098%,60.784316%);stroke-opacity:1;stroke-miterlimit:4;" d="M 5 9 L 13 9 " transform="matrix(2,0,0,2,0,0)"/>
<path style="fill:none;stroke-width:1;stroke-linecap:round;stroke-linejoin:miter;stroke:rgb(61.56863%,22.745098%,60.784316%);stroke-opacity:1;stroke-miterlimit:4;" d="M 5 11 L 13 11 " transform="matrix(2,0,0,2,0,0)"/>
<path style="fill:none;stroke-width:1;stroke-linecap:round;stroke-linejoin:miter;stroke:rgb(61.56863%,22.745098%,60.784316%);stroke-opacity:1;stroke-miterlimit:4;" d="M 5 13 L 13 13 " transform="matrix(2,0,0,2,0,0)"/>
<path style="fill:none;stroke-width:1;stroke-linecap:round;stroke-linejoin:miter;stroke:rgb(61.56863%,22.745098%,60.784316%);stroke-opacity:1;stroke-miterlimit:4;" d="M 5 3 L 13 3 " transform="matrix(2,0,0,2,0,0)"/>
<path style="fill-rule:nonzero;fill:rgb(95.294118%,71.764708%,85.09804%);fill-opacity:1;stroke-width:1;stroke-linecap:round;stroke-linejoin:round;stroke:rgb(90.196079%,0.784314%,70.588237%);stroke-opacity:1;stroke-miterlimit:4;" d="M 26.168134 -0.127186 C 23.667437 -0.127186 21.676287 0.931103 21.668448 5.872396 L 24.166531 5.872396 C 24.166531 3.371699 24.668239 2.373511 26.168134 2.373511 C 27.668029 2.373511 28.167123 3.371699 28.167123 5.872396 L 30.66782 5.872396 C 30.66782 0.873615 28.668831 -0.127186 26.168134 -0.127186 Z M 26.168134 -0.127186 " transform="matrix(1.494896,0,0,1.494896,-28.087387,2.19013)"/>
<path style="fill-rule:nonzero;fill:rgb(95.294118%,71.764708%,85.09804%);fill-opacity:1;stroke-width:1;stroke-linecap:round;stroke-linejoin:round;stroke:rgb(90.196079%,0.784314%,70.588237%);stroke-opacity:1;stroke-miterlimit:4;" d="M 21.286941 5.908978 L 31.049327 5.908978 C 31.666008 5.908978 32.167715 6.410686 32.167715 7.027367 L 32.167715 12.752578 C 32.167715 13.371872 31.666008 13.87358 31.049327 13.87358 L 21.286941 13.87358 C 20.667647 13.87358 20.168552 13.371872 20.168552 12.752578 L 20.168552 7.027367 C 20.168552 6.410686 20.667647 5.908978 21.286941 5.908978 Z M 21.286941 5.908978 " transform="matrix(1.494896,0,0,1.494896,-28.087387,2.19013)"/>
<path style=" stroke:none;fill-rule:nonzero;fill:rgb(94.117647%,89.019608%,92.54902%);fill-opacity:1;" d="M 8.761719 12.980469 C 8.363281 13 7.949219 13.148438 7.554688 13.476562 C 6.839844 14.082031 6.425781 15.375 6.558594 16.273438 C 6.78125 17.753906 8.273438 19.125 11.039062 21.199219 C 13.800781 19.125 15.292969 17.753906 15.515625 16.273438 C 15.648438 15.375 15.234375 14.082031 14.519531 13.476562 C 12.953125 12.15625 11.039062 13.792969 11.039062 14.683594 C 11.039062 14.015625 9.960938 12.925781 8.761719 12.980469 Z M 8.761719 12.980469 "/>
<path style=" stroke:none;fill-rule:nonzero;fill:rgb(61.56863%,22.745098%,60.784316%);fill-opacity:1;" d="M 9.285156 14.148438 C 8.976562 14.164062 8.660156 14.277344 8.359375 14.53125 C 7.8125 14.992188 7.492188 15.984375 7.597656 16.671875 C 7.765625 17.808594 8.910156 18.859375 11.03125 20.453125 C 13.152344 18.859375 14.296875 17.808594 14.464844 16.671875 C 14.566406 15.984375 14.25 14.992188 13.699219 14.53125 C 12.5 13.515625 11.03125 14.773438 11.03125 15.453125 C 11.03125 14.941406 10.203125 14.109375 9.285156 14.148438 Z M 9.285156 14.148438 "/>
</g>
</svg>
