<?xml version="1.0" encoding="UTF-8"?>
<svg xmlns="http://www.w3.org/2000/svg" xmlns:xlink="http://www.w3.org/1999/xlink" width="32px" height="32px" viewBox="0 0 32 32" version="1.1">
<g id="surface1">
<path style=" stroke:none;fill-rule:nonzero;fill:rgb(33.333334%,34.117648%,32.549021%);fill-opacity:1;" d="M 28 0 L 26 2 L 30 6 L 32 4 C 31.800781 1.28125 30.199219 0.199219 28 0 Z M 16 2 C 8.199219 2 2 8.199219 2 16 C 2 23.800781 8.199219 30 16 30 C 23.800781 30 30 23.71875 30 16 C 30 13.800781 29.539062 12 28.699219 10 L 25.601562 13.261719 C 25.800781 14.199219 26 15 26 16 C 26 21.601562 21.601562 26 16 26 C 13.800781 26 11.800781 25.199219 10 24 L 8 24 L 8 22 C 6.800781 20.199219 6 18.199219 6 16 C 6 10.398438 10.398438 6 16 6 C 17 6 17.800781 6.199219 18.800781 6.398438 L 21.800781 3.300781 C 20 2.480469 18 2 16 2 Z M 24 4 L 10 18 L 10 22 L 14 22 L 28 8 Z M 24 4 "/>
</g>
</svg>
