<?xml version="1.0" encoding="UTF-8"?>
<svg xmlns="http://www.w3.org/2000/svg" xmlns:xlink="http://www.w3.org/1999/xlink" width="32px" height="32px" viewBox="0 0 32 32" version="1.1">
<g id="surface1">
<path style="fill-rule:nonzero;fill:rgb(94.117647%,89.019608%,92.54902%);fill-opacity:1;stroke-width:1;stroke-linecap:round;stroke-linejoin:round;stroke:rgb(90.196079%,0.784314%,70.588237%);stroke-opacity:1;stroke-miterlimit:4;" d="M 2 3 L 2 13 C 2 14 3 15 4 15 C 6.330078 15 10 15 10.990234 15 C 12 14 13 13 14 12 L 14 3 C 14 2 13 1 12 1 L 4 1 C 3 1 2 2 2 3 Z M 2 3 " transform="matrix(2,0,0,2,0,0)"/>
<path style=" stroke:none;fill-rule:nonzero;fill:rgb(90.196079%,0.784314%,70.588237%);fill-opacity:1;" d="M 6 21 L 24 21 L 24 25 L 6 25 Z M 6 21 "/>
<path style="fill-rule:nonzero;fill:rgb(95.294118%,71.764708%,85.09804%);fill-opacity:1;stroke-width:1;stroke-linecap:round;stroke-linejoin:round;stroke:rgb(61.56863%,22.745098%,60.784316%);stroke-opacity:1;stroke-miterlimit:4;" d="M 14 11.25 C 14 13.320312 12.320312 15 10.25 15 C 8.179688 15 6.5 13.320312 6.5 11.25 C 6.5 9.179688 8.179688 7.5 10.25 7.5 C 12.320312 7.5 14 9.179688 14 11.25 Z M 14 11.25 " transform="matrix(2,0,0,2,0,0)"/>
<path style=" stroke:none;fill-rule:nonzero;fill:rgb(90.196079%,0.784314%,70.588237%);fill-opacity:1;" d="M 24 22.5 C 24 24.433594 22.433594 26 20.5 26 C 18.566406 26 17 24.433594 17 22.5 C 17 20.566406 18.566406 19 20.5 19 C 22.433594 19 24 20.566406 24 22.5 Z M 24 22.5 "/>
<path style="fill-rule:nonzero;fill:rgb(95.294118%,71.764708%,85.09804%);fill-opacity:1;stroke-width:0.278613;stroke-linecap:butt;stroke-linejoin:miter;stroke:rgb(61.56863%,22.745098%,60.784316%);stroke-opacity:1;stroke-miterlimit:4;" d="M 13.901022 1.910602 L 12.698414 3.510452 L 14.298264 4.711246 L 15.499058 3.11321 L 15.000239 2.111943 Z M 13.901022 1.910602 " transform="matrix(2.153522,0,0,2.153522,-7.791626,-2.559835)"/>
<path style="fill-rule:nonzero;fill:rgb(95.294118%,71.764708%,85.09804%);fill-opacity:1;stroke-width:0.185742;stroke-linecap:butt;stroke-linejoin:miter;stroke:rgb(61.56863%,22.745098%,60.784316%);stroke-opacity:1;stroke-miterlimit:4;" d="M 7.793658 11.707417 L 8.194527 9.507169 L 8.894688 9.407405 L 8.785855 9.951572 L 9.301 9.713952 L 9.186725 10.252677 L 9.703683 10.015058 L 9.794377 10.707964 L 7.793658 11.707417 " transform="matrix(2.153522,0,0,2.153522,-7.791626,-2.559835)"/>
<path style="fill-rule:nonzero;fill:rgb(61.56863%,22.745098%,60.784316%);fill-opacity:1;stroke-width:0.0928711;stroke-linecap:butt;stroke-linejoin:miter;stroke:rgb(61.56863%,22.745098%,60.784316%);stroke-opacity:1;stroke-miterlimit:4;" d="M 8.134669 10.591875 L 8.677022 11.041719 L 7.793658 11.714672 Z M 8.134669 10.591875 " transform="matrix(2.153522,0,0,2.153522,-7.791626,-2.559835)"/>
<path style="fill-rule:nonzero;fill:rgb(90.196079%,0.784314%,70.588237%);fill-opacity:1;stroke-width:0.0928711;stroke-linecap:butt;stroke-linejoin:miter;stroke:rgb(61.56863%,22.745098%,60.784316%);stroke-opacity:1;stroke-miterlimit:4;" d="M 12.698414 3.510452 L 14.298264 4.711246 L 9.794377 10.707964 L 9.703683 10.015058 L 9.186725 10.252677 L 9.228444 9.795577 L 8.785855 9.951572 L 8.838458 9.481775 L 8.194527 9.507169 Z M 12.698414 3.510452 " transform="matrix(2.153522,0,0,2.153522,-7.791626,-2.559835)"/>
<path style="fill:none;stroke-width:0.650098;stroke-linecap:butt;stroke-linejoin:round;stroke:rgb(61.56863%,22.745098%,60.784316%);stroke-opacity:1;stroke-miterlimit:4;" d="M 13.599917 2.311471 L 8.194527 9.507169 L 7.492552 12.106472 L 9.794377 10.707964 L 15.199767 3.512266 C 15.997878 2.480163 14.432492 1.234021 13.599917 2.311471 Z M 13.599917 2.311471 " transform="matrix(2.153522,0,0,2.153522,-7.791626,-2.559835)"/>
</g>
</svg>
