<?xml version="1.0" encoding="UTF-8"?>
<svg xmlns="http://www.w3.org/2000/svg" xmlns:xlink="http://www.w3.org/1999/xlink" width="32px" height="32px" viewBox="0 0 32 32" version="1.1">
<g id="surface1">
<path style="fill-rule:nonzero;fill:rgb(94.117647%,89.019608%,92.54902%);fill-opacity:1;stroke-width:1;stroke-linecap:round;stroke-linejoin:round;stroke:rgb(90.196079%,0.784314%,70.588237%);stroke-opacity:1;stroke-miterlimit:4;" d="M 2 3 L 2 13 C 2 14 3 15 4 15 C 6.330078 15 10 15 10.990234 15 C 12 14 13 13 14 12 L 14 3 C 14 2 13 1 12 1 L 4 1 C 3 1 2 2 2 3 Z M 2 3 " transform="matrix(2,0,0,2,0,0)"/>
<path style=" stroke:none;fill-rule:nonzero;fill:rgb(90.196079%,0.784314%,70.588237%);fill-opacity:1;" d="M 6 21 L 24 21 L 24 25 L 6 25 Z M 6 21 "/>
<path style="fill-rule:nonzero;fill:rgb(95.294118%,71.764708%,85.09804%);fill-opacity:1;stroke-width:0.278613;stroke-linecap:butt;stroke-linejoin:miter;stroke:rgb(61.56863%,22.745098%,60.784316%);stroke-opacity:1;stroke-miterlimit:4;" d="M 13.899859 1.910602 L 12.699065 3.510452 L 14.298915 4.711247 L 15.49971 3.11321 L 15.00089 2.111944 Z M 13.899859 1.910602 " transform="matrix(2.153522,0,0,2.153522,-3.347716,-2.559836)"/>
<path style="fill-rule:nonzero;fill:rgb(95.294118%,71.764708%,85.09804%);fill-opacity:1;stroke-width:0.185742;stroke-linecap:butt;stroke-linejoin:miter;stroke:rgb(61.56863%,22.745098%,60.784316%);stroke-opacity:1;stroke-miterlimit:4;" d="M 7.794309 11.707417 L 8.195178 9.507169 L 8.89534 9.407405 L 8.786506 9.951572 L 9.301651 9.713953 L 9.185562 10.252678 L 9.704334 10.015058 L 9.795029 10.707964 L 7.794309 11.707417 " transform="matrix(2.153522,0,0,2.153522,-3.347716,-2.559836)"/>
<path style="fill-rule:nonzero;fill:rgb(61.56863%,22.745098%,60.784316%);fill-opacity:1;stroke-width:0.0928711;stroke-linecap:butt;stroke-linejoin:miter;stroke:rgb(61.56863%,22.745098%,60.784316%);stroke-opacity:1;stroke-miterlimit:4;" d="M 8.133506 10.591875 L 8.675859 11.041719 L 7.794309 11.714672 Z M 8.133506 10.591875 " transform="matrix(2.153522,0,0,2.153522,-3.347716,-2.559836)"/>
<path style="fill-rule:nonzero;fill:rgb(90.196079%,0.784314%,70.588237%);fill-opacity:1;stroke-width:0.0928711;stroke-linecap:butt;stroke-linejoin:miter;stroke:rgb(61.56863%,22.745098%,60.784316%);stroke-opacity:1;stroke-miterlimit:4;" d="M 12.699065 3.510452 L 14.298915 4.711247 L 9.795029 10.707964 L 9.704334 10.015058 L 9.185562 10.252678 L 9.229095 9.795578 L 8.786506 9.951572 L 8.839109 9.481775 L 8.195178 9.507169 Z M 12.699065 3.510452 " transform="matrix(2.153522,0,0,2.153522,-3.347716,-2.559836)"/>
<path style="fill:none;stroke-width:0.650098;stroke-linecap:butt;stroke-linejoin:round;stroke:rgb(61.56863%,22.745098%,60.784316%);stroke-opacity:1;stroke-miterlimit:4;" d="M 13.600568 2.311471 L 8.195178 9.507169 L 7.493203 12.106472 L 9.795029 10.707964 L 15.198604 3.512266 C 15.998529 2.480163 14.433143 1.234021 13.600568 2.311471 Z M 13.600568 2.311471 " transform="matrix(2.153522,0,0,2.153522,-3.347716,-2.559836)"/>
</g>
</svg>
