<?xml version="1.0" encoding="UTF-8"?>
<svg xmlns="http://www.w3.org/2000/svg" xmlns:xlink="http://www.w3.org/1999/xlink" width="32px" height="32px" viewBox="0 0 32 32" version="1.1">
<g id="surface1">
<path style=" stroke:none;fill-rule:nonzero;fill:rgb(33.333334%,34.117648%,32.549021%);fill-opacity:1;" d="M 18 0 L 18 10 L 30 10 L 30 0 Z M 22 4 L 26 4 L 26 6 L 22 6 Z M 4.375 8 C 3.050781 8 2 9.097656 2 10.4375 L 2 19.5625 C 2 20.902344 3.050781 22 4.375 22 L 14 22 C 15.324219 22 16 20.902344 16 19.5625 L 16 10.4375 C 16 9.097656 15.324219 8 14 8 Z M 4 10 L 6 10 L 9 13 L 12 10 L 14 10 L 14 12 L 11 15 L 14 18 L 14 20 L 12 20 L 9 17 L 6 20 L 4 20 L 4 18 L 7 15 L 4 12 Z M 18 20 L 18 30 L 30 30 L 30 20 Z M 22 24 L 26 24 L 26 26 L 22 26 Z M 22 24 "/>
</g>
</svg>
