<?xml version="1.0" encoding="UTF-8"?>
<svg xmlns="http://www.w3.org/2000/svg" xmlns:xlink="http://www.w3.org/1999/xlink" width="32px" height="32px" viewBox="0 0 32 32" version="1.1">
<g id="surface1">
<path style="fill-rule:nonzero;fill:rgb(95.294118%,71.764708%,85.09804%);fill-opacity:1;stroke-width:1;stroke-linecap:round;stroke-linejoin:round;stroke:rgb(90.196079%,0.784314%,70.588237%);stroke-opacity:1;stroke-miterlimit:4;" d="M 8 1 C 5.5 1 3.509766 2.058594 3.5 7 L 6 7 C 6 4.5 6.5 3.5 8 3.5 C 9.5 3.5 10 4.5 10 5.5 L 12.5 5.5 C 12.5 2 10.5 1 8 1 Z M 8 1 " transform="matrix(2,0,0,2,0,0)"/>
<path style="fill-rule:nonzero;fill:rgb(95.294118%,71.764708%,85.09804%);fill-opacity:1;stroke-width:1;stroke-linecap:round;stroke-linejoin:round;stroke:rgb(90.196079%,0.784314%,70.588237%);stroke-opacity:1;stroke-miterlimit:4;" d="M 3.119141 7.035156 L 12.880859 7.035156 C 13.498047 7.035156 14 7.537109 14 8.154297 L 14 13.880859 C 14 14.498047 13.498047 15 12.880859 15 L 3.119141 15 C 2.501953 15 2 14.498047 2 13.880859 L 2 8.154297 C 2 7.537109 2.501953 7.035156 3.119141 7.035156 Z M 3.119141 7.035156 " transform="matrix(2,0,0,2,0,0)"/>
<path style=" stroke:none;fill-rule:nonzero;fill:rgb(94.117647%,89.019608%,92.54902%);fill-opacity:1;" d="M 12.964844 16.691406 C 12.429688 16.714844 11.875 16.914062 11.351562 17.355469 C 10.394531 18.164062 9.839844 19.890625 10.019531 21.09375 C 10.3125 23.074219 12.308594 24.910156 16.007812 27.6875 C 19.707031 24.910156 21.703125 23.074219 22 21.09375 C 22.179688 19.890625 21.625 18.164062 20.667969 17.355469 C 18.570312 15.589844 16.007812 17.78125 16.007812 18.96875 C 16.007812 18.078125 14.566406 16.617188 12.964844 16.691406 Z M 12.964844 16.691406 "/>
<path style=" stroke:none;fill-rule:nonzero;fill:rgb(61.56863%,22.745098%,60.784316%);fill-opacity:1;" d="M 13.664062 18.253906 C 13.253906 18.273438 12.828125 18.425781 12.429688 18.761719 C 11.691406 19.382812 11.269531 20.707031 11.40625 21.632812 C 11.632812 23.148438 13.164062 24.554688 16 26.6875 C 18.835938 24.554688 20.367188 23.148438 20.59375 21.632812 C 20.730469 20.707031 20.308594 19.382812 19.570312 18.761719 C 17.964844 17.410156 16 19.089844 16 20 C 16 19.316406 14.894531 18.199219 13.664062 18.253906 Z M 13.664062 18.253906 "/>
</g>
</svg>
