<?xml version="1.0" encoding="UTF-8"?>
<svg xmlns="http://www.w3.org/2000/svg" xmlns:xlink="http://www.w3.org/1999/xlink" width="32px" height="32px" viewBox="0 0 32 32" version="1.1">
<g id="surface1">
<path style="fill-rule:evenodd;fill:rgb(94.117647%,89.019608%,92.54902%);fill-opacity:1;stroke-width:1;stroke-linecap:round;stroke-linejoin:round;stroke:rgb(90.196079%,0.784314%,70.588237%);stroke-opacity:1;stroke-miterlimit:4;" d="M 4.505859 1.546875 L 13.5 1.546875 C 14.052734 1.546875 14.5 1.994141 14.5 2.546875 L 14.5 13.525391 C 14.5 14.076172 14.052734 14.525391 13.5 14.525391 L 4.505859 14.525391 C 3.955078 14.525391 3.505859 14.076172 3.505859 13.525391 L 3.505859 2.546875 C 3.505859 1.994141 3.955078 1.546875 4.505859 1.546875 Z M 4.505859 1.546875 " transform="matrix(2,0,0,2,0,0)"/>
<path style="fill-rule:nonzero;fill:rgb(61.56863%,22.745098%,60.784316%);fill-opacity:1;stroke-width:0.25;stroke-linecap:butt;stroke-linejoin:miter;stroke:rgb(61.56863%,22.745098%,60.784316%);stroke-opacity:1;stroke-miterlimit:4;" d="M 5.066406 4.878906 C 5.103516 4.486328 5.378906 4.203125 5.726562 4.203125 C 5.957031 4.203125 6.167969 4.328125 6.287109 4.527344 C 6.404297 4.324219 6.607422 4.203125 6.833984 4.203125 C 7.179688 4.203125 7.457031 4.486328 7.492188 4.878906 C 7.496094 4.896484 7.507812 4.986328 7.472656 5.134766 C 7.421875 5.349609 7.304688 5.544922 7.134766 5.699219 L 6.287109 6.46875 L 5.425781 5.699219 C 5.255859 5.544922 5.138672 5.349609 5.087891 5.134766 C 5.052734 4.986328 5.064453 4.896484 5.066406 4.878906 Z M 5.179688 5.113281 C 5.224609 5.308594 5.332031 5.488281 5.488281 5.628906 L 6.287109 6.341797 L 7.072266 5.628906 C 7.228516 5.488281 7.335938 5.308594 7.380859 5.113281 C 7.414062 4.972656 7.400391 4.894531 7.400391 4.894531 L 7.400391 4.888672 C 7.369141 4.546875 7.130859 4.296875 6.833984 4.296875 C 6.615234 4.296875 6.421875 4.431641 6.330078 4.648438 L 6.287109 4.751953 L 6.244141 4.648438 C 6.154297 4.435547 5.951172 4.296875 5.726562 4.296875 C 5.427734 4.296875 5.191406 4.546875 5.160156 4.892578 C 5.160156 4.894531 5.146484 4.974609 5.179688 5.113281 Z M 5.179688 5.113281 " transform="matrix(2,0,0,2,0,0)"/>
<path style="fill:none;stroke-width:1;stroke-linecap:round;stroke-linejoin:miter;stroke:rgb(90.196079%,0.784314%,70.588237%);stroke-opacity:1;stroke-miterlimit:4;" d="M 8.492188 7.470703 L 12.533203 7.470703 " transform="matrix(2,0,0,2,0,0)"/>
<path style="fill:none;stroke-width:1;stroke-linecap:round;stroke-linejoin:miter;stroke:rgb(90.196079%,0.784314%,70.588237%);stroke-opacity:1;stroke-miterlimit:4;" d="M 8.480469 9.248047 L 12.521484 9.248047 " transform="matrix(2,0,0,2,0,0)"/>
<path style="fill:none;stroke-width:1;stroke-linecap:round;stroke-linejoin:miter;stroke:rgb(90.196079%,0.784314%,70.588237%);stroke-opacity:1;stroke-miterlimit:4;" d="M 8.511719 10.996094 L 12.550781 10.996094 " transform="matrix(2,0,0,2,0,0)"/>
<path style="fill-rule:evenodd;fill:rgb(94.117647%,89.019608%,92.54902%);fill-opacity:1;stroke-width:1;stroke-linecap:round;stroke-linejoin:miter;stroke:rgb(94.117647%,89.019608%,92.54902%);stroke-opacity:1;stroke-miterlimit:4;" d="M 3.5 7.5 L 6 7.5 L 6 11.5 L 3.5 11.5 Z M 3.5 7.5 " transform="matrix(2,0,0,2,0,0)"/>
<path style="fill-rule:evenodd;fill:rgb(61.56863%,22.745098%,60.784316%);fill-opacity:1;stroke-width:1;stroke-linecap:round;stroke-linejoin:round;stroke:rgb(61.56863%,22.745098%,60.784316%);stroke-opacity:1;stroke-miterlimit:4;" d="M 2.601562 8.570312 L 5 8.570312 C 5.552734 8.570312 6 8.962891 6 9.445312 L 6 9.626953 C 6 10.109375 5.552734 10.5 5 10.5 L 2.601562 10.5 C 2.048828 10.5 1.601562 10.109375 1.601562 9.626953 L 1.601562 9.445312 C 1.601562 8.962891 2.048828 8.570312 2.601562 8.570312 Z M 2.601562 8.570312 " transform="matrix(2,0,0,2,0,0)"/>
</g>
</svg>
