<?xml version="1.0" encoding="UTF-8"?>
<svg xmlns="http://www.w3.org/2000/svg" xmlns:xlink="http://www.w3.org/1999/xlink" width="32px" height="32px" viewBox="0 0 32 32" version="1.1">
<g id="surface1">
<path style="fill-rule:nonzero;fill:rgb(94.117647%,89.019608%,92.54902%);fill-opacity:1;stroke-width:1;stroke-linecap:round;stroke-linejoin:miter;stroke:rgb(90.196079%,0.784314%,70.588237%);stroke-opacity:1;stroke-miterlimit:4;" d="M 3 2.5 L 13 2.5 C 13.828125 2.5 14.5 3.171875 14.5 4 L 14.5 12 C 14.5 12.828125 13.828125 13.5 13 13.5 L 3 13.5 C 2.171875 13.5 1.5 12.828125 1.5 12 L 1.5 4 C 1.5 3.171875 2.171875 2.5 3 2.5 Z M 3 2.5 " transform="matrix(2,0,0,2,0,0)"/>
<path style="fill:none;stroke-width:1;stroke-linecap:round;stroke-linejoin:miter;stroke:rgb(61.56863%,22.745098%,60.784316%);stroke-opacity:1;stroke-miterlimit:4;" d="M 36.792434 11.797486 C 35.740083 12.650372 34.450437 13.231572 33.009472 13.420721 C 28.861971 13.964091 25.058375 11.040894 24.515004 6.893392 C 24.411832 6.126483 24.432466 5.36989 24.552833 4.647689 M 25.467622 2.116543 C 26.000676 1.194876 26.726317 0.386698 27.596398 -0.23921 " transform="matrix(1.135849,0,0,1.135849,-19.454729,8.935769)"/>
<path style="fill-rule:nonzero;fill:rgb(95.294118%,71.764708%,85.09804%);fill-opacity:1;stroke-width:1;stroke-linecap:round;stroke-linejoin:miter;stroke:rgb(61.56863%,22.745098%,60.784316%);stroke-opacity:1;stroke-miterlimit:4;" d="M 37.359878 8.860532 C 36.451967 10.494084 34.811537 11.690875 32.816885 11.952244 C 29.477562 12.389004 26.416802 10.036689 25.980042 6.700805 C 25.543281 3.361482 27.895596 0.300722 31.23148 -0.136038 C 34.570804 -0.572798 37.631563 1.779516 38.068324 5.1154 C 38.123348 5.541843 38.133666 5.961408 38.102714 6.374095 " transform="matrix(1.135849,0,0,1.135849,-19.454729,8.935769)"/>
<path style="fill:none;stroke-width:1;stroke-linecap:round;stroke-linejoin:miter;stroke:rgb(61.56863%,22.745098%,60.784316%);stroke-opacity:1;stroke-miterlimit:4;" d="M 25.997237 -0.865118 L 27.809619 1.418415 " transform="matrix(1.135849,0,0,1.135849,-19.454729,8.935769)"/>
<path style="fill:none;stroke-width:1;stroke-linecap:round;stroke-linejoin:miter;stroke:rgb(61.56863%,22.745098%,60.784316%);stroke-opacity:1;stroke-miterlimit:4;" d="M 35.186395 11.546435 L 36.998777 13.829968 " transform="matrix(1.135849,0,0,1.135849,-19.454729,8.935769)"/>
<path style=" stroke:none;fill-rule:nonzero;fill:rgb(61.56863%,22.745098%,60.784316%);fill-opacity:1;" d="M 9.402344 12.746094 C 9.402344 13.109375 9.113281 13.402344 8.75 13.402344 C 8.390625 13.402344 8.097656 13.109375 8.097656 12.746094 C 8.097656 12.386719 8.390625 12.09375 8.75 12.09375 C 9.113281 12.09375 9.402344 12.386719 9.402344 12.746094 Z M 9.402344 12.746094 "/>
<path style=" stroke:none;fill-rule:nonzero;fill:rgb(61.56863%,22.745098%,60.784316%);fill-opacity:1;" d="M 24.277344 17.695312 C 24.277344 18.054688 23.984375 18.347656 23.621094 18.347656 C 23.261719 18.347656 22.96875 18.054688 22.96875 17.695312 C 22.96875 17.335938 23.261719 17.042969 23.621094 17.042969 C 23.984375 17.042969 24.277344 17.335938 24.277344 17.695312 Z M 24.277344 17.695312 "/>
<path style="fill-rule:nonzero;fill:rgb(61.56863%,22.745098%,60.784316%);fill-opacity:1;stroke-width:1;stroke-linecap:butt;stroke-linejoin:miter;stroke:rgb(61.56863%,22.745098%,60.784316%);stroke-opacity:1;stroke-miterlimit:4;" d="M 26.358338 10.232716 C 28.992655 9.70654 29.938395 8.664506 31.214285 6.969051 L 30.571181 6.202142 L 32.500492 5.999238 L 32.500492 8.499431 L 31.857388 7.732522 C 30.519596 9.283536 29.996859 10.734818 27.001441 10.999625 Z M 26.358338 10.232716 " transform="matrix(1.135849,0,0,1.135849,-19.454729,8.935769)"/>
<path style=" stroke:none;fill-rule:nonzero;fill:rgb(61.56863%,22.745098%,60.784316%);fill-opacity:1;" d="M 16.324219 14.613281 L 18.597656 14.613281 L 18.597656 16.886719 C 21.4375 13.480469 21.4375 12.910156 21.4375 10.070312 C 20.300781 10.070312 21.4375 10.070312 19.164062 8.9375 C 19.164062 11.777344 18.597656 13.480469 16.324219 14.613281 Z M 16.324219 14.613281 "/>
<path style="fill:none;stroke-width:1;stroke-linecap:butt;stroke-linejoin:miter;stroke:rgb(61.56863%,22.745098%,60.784316%);stroke-opacity:1;stroke-miterlimit:4;" d="M 27.998767 1.500952 L 36.001451 10.500962 " transform="matrix(1.135849,0,0,1.135849,-19.454729,8.935769)"/>
<path style="fill:none;stroke-width:1;stroke-linecap:butt;stroke-linejoin:miter;stroke:rgb(61.56863%,22.745098%,60.784316%);stroke-opacity:1;stroke-miterlimit:4;" d="M 28.057231 1.449366 C 31.001063 -1.501344 40.001073 7.000003 36.001451 10.500962 C 31.99839 13.998482 25.116838 4.396638 28.057231 1.449366 Z M 28.057231 1.449366 " transform="matrix(1.135849,0,0,1.135849,-19.454729,8.935769)"/>
<path style="fill:none;stroke-width:1;stroke-linecap:butt;stroke-linejoin:miter;stroke:rgb(61.56863%,22.745098%,60.784316%);stroke-opacity:1;stroke-miterlimit:4;" d="M 26.000676 7.498666 L 33.501257 0.0015239 " transform="matrix(1.135849,0,0,1.135849,-19.454729,8.935769)"/>
<path style="fill:none;stroke-width:1;stroke-linecap:butt;stroke-linejoin:miter;stroke:rgb(61.56863%,22.745098%,60.784316%);stroke-opacity:1;stroke-miterlimit:4;" d="M 31.499726 12.00039 L 37.999542 4.499809 " transform="matrix(1.135849,0,0,1.135849,-19.454729,8.935769)"/>
</g>
</svg>
