<?xml version="1.0" encoding="UTF-8"?>
<svg xmlns="http://www.w3.org/2000/svg" xmlns:xlink="http://www.w3.org/1999/xlink" width="32px" height="32px" viewBox="0 0 32 32" version="1.1">
<g id="surface1">
<path style="fill-rule:nonzero;fill:rgb(95.294118%,71.764708%,85.09804%);fill-opacity:1;stroke-width:0.7;stroke-linecap:round;stroke-linejoin:round;stroke:rgb(90.196079%,0.784314%,70.588237%);stroke-opacity:1;stroke-miterlimit:4;" d="M 3.757812 4.453125 L 4.835938 3.408203 L 14.585938 13.464844 C 15.277344 14.175781 14.201172 15.220703 13.5 14.5 Z M 3.757812 4.453125 " transform="matrix(2,0,0,2,0,0)"/>
<path style="fill-rule:nonzero;fill:rgb(95.294118%,71.764708%,85.09804%);fill-opacity:1;stroke-width:1;stroke-linecap:butt;stroke-linejoin:miter;stroke:rgb(90.196079%,0.784314%,70.588237%);stroke-opacity:1;stroke-miterlimit:4;" d="M 6.544922 7.322266 L 7.621094 6.279297 " transform="matrix(2,0,0,2,0,0)"/>
<path style="fill-rule:nonzero;fill:rgb(95.294118%,71.764708%,85.09804%);fill-opacity:1;stroke-width:1;stroke-linecap:butt;stroke-linejoin:miter;stroke:rgb(90.196079%,0.784314%,70.588237%);stroke-opacity:1;stroke-miterlimit:4;" d="M 7.587891 8.400391 L 8.666016 7.355469 " transform="matrix(2,0,0,2,0,0)"/>
<path style=" stroke:none;fill-rule:nonzero;fill:rgb(90.196079%,0.784314%,70.588237%);fill-opacity:1;" d="M 20.808594 7.546875 L 19 6 L 16.660156 6.433594 L 18.203125 4.625 L 17.773438 2.28125 L 19.582031 3.828125 L 21.921875 3.394531 L 20.375 5.203125 Z M 20.808594 7.546875 "/>
<path style=" stroke:none;fill-rule:nonzero;fill:rgb(90.196079%,0.784314%,70.588237%);fill-opacity:1;" d="M 28.78125 6.359375 L 27.628906 5.378906 L 26.144531 5.652344 L 27.125 4.503906 L 26.851562 3.019531 L 28 4 L 29.484375 3.726562 L 28.503906 4.875 Z M 28.78125 6.359375 "/>
<path style=" stroke:none;fill-rule:nonzero;fill:rgb(95.294118%,71.764708%,85.09804%);fill-opacity:1;" d="M 24.519531 7.109375 C 24.441406 7.25 24.363281 7.386719 24.257812 7.519531 C 24.277344 7.519531 24.300781 7.523438 24.320312 7.527344 C 26.863281 7.828125 28.25 9.289062 28.5625 10.429688 C 28.875 11.570312 27.84375 12.722656 25.765625 14.113281 C 23.6875 15.5 20.535156 16.835938 16.863281 17.699219 C 13.195312 18.566406 9.734375 18.789062 7.191406 18.488281 C 4.648438 18.1875 3.152344 17.632812 2.839844 16.492188 C 2.527344 15.351562 2.976562 13.449219 5.054688 12.0625 C 7.132812 10.671875 10.667969 8.984375 14.339844 8.117188 C 15.28125 8.105469 15.03125 7.621094 14.296875 7.789062 C 10.1875 8.757812 6.410156 10.066406 3.898438 11.746094 C 1.386719 13.425781 -0.0976562 15.363281 0.371094 17.070312 C 0.839844 18.777344 3.144531 19.828125 6.214844 20.191406 C 9.289062 20.554688 13.257812 20.5 17.367188 19.53125 C 21.476562 18.5625 24.992188 16.851562 27.503906 15.175781 C 30.015625 13.496094 30.226562 11.628906 29.757812 9.921875 C 29.296875 8.246094 27.546875 7.167969 24.519531 7.109375 Z M 24.519531 7.109375 "/>
<path style="fill-rule:nonzero;fill:rgb(95.294118%,71.764708%,85.09804%);fill-opacity:1;stroke-width:0.7;stroke-linecap:butt;stroke-linejoin:miter;stroke:rgb(90.196079%,0.784314%,70.588237%);stroke-opacity:1;stroke-miterlimit:4;" d="M 2.388672 1.601562 C 2.820312 1.207031 3.830078 2.201172 4.410156 2.136719 C 4.992188 2.070312 5.755859 0.876953 6.263672 1.166016 C 6.771484 1.455078 6.138672 2.722656 6.378906 3.253906 C 6.621094 3.785156 7.992188 4.144531 7.875 4.714844 C 7.757812 5.287109 6.355469 5.078125 5.923828 5.470703 C 5.494141 5.865234 5.576172 7.279297 4.996094 7.345703 C 4.416016 7.410156 4.183594 6.011719 3.675781 5.724609 C 3.167969 5.435547 1.847656 5.951172 1.605469 5.419922 C 1.365234 4.888672 2.623047 4.234375 2.740234 3.662109 C 2.857422 3.089844 1.958984 1.996094 2.388672 1.601562 Z M 2.388672 1.601562 " transform="matrix(2,0,0,2,0,0)"/>
<path style=" stroke:none;fill-rule:nonzero;fill:rgb(61.56863%,22.745098%,60.784316%);fill-opacity:1;" d="M 7.40625 6.117188 C 7.777344 5.773438 8.65625 6.636719 9.15625 6.578125 C 9.660156 6.523438 10.324219 5.488281 10.765625 5.738281 C 11.203125 5.988281 10.65625 7.085938 10.863281 7.550781 C 11.074219 8.011719 12.265625 8.320312 12.160156 8.816406 C 12.058594 9.3125 10.84375 9.128906 10.472656 9.472656 C 10.097656 9.8125 10.167969 11.039062 9.664062 11.097656 C 9.164062 11.152344 8.960938 9.941406 8.519531 9.691406 C 8.078125 9.441406 6.933594 9.890625 6.726562 9.429688 C 6.515625 8.964844 7.605469 8.398438 7.707031 7.902344 C 7.808594 7.40625 7.03125 6.457031 7.40625 6.117188 Z M 7.40625 6.117188 "/>
<path style=" stroke:none;fill-rule:nonzero;fill:rgb(90.196079%,0.784314%,70.588237%);fill-opacity:1;" d="M 4.148438 16.980469 L 3 16 L 1.515625 16.273438 L 2.496094 15.125 L 2.21875 13.640625 L 3.371094 14.621094 L 4.855469 14.347656 L 3.875 15.496094 Z M 4.148438 16.980469 "/>
<path style=" stroke:none;fill-rule:nonzero;fill:rgb(90.196079%,0.784314%,70.588237%);fill-opacity:1;" d="M 9.492188 24.664062 L 7.433594 22.90625 L 4.769531 23.398438 L 6.527344 21.339844 L 6.035156 18.675781 L 8.09375 20.433594 L 10.757812 19.941406 L 9 22 Z M 9.492188 24.664062 "/>
<path style=" stroke:none;fill-rule:nonzero;fill:rgb(90.196079%,0.784314%,70.588237%);fill-opacity:1;" d="M 26.433594 14.339844 L 24.625 12.796875 L 22.28125 13.226562 L 23.828125 11.417969 L 23.394531 9.078125 L 25.203125 10.625 L 27.546875 10.191406 L 26 12 Z M 26.433594 14.339844 "/>
</g>
</svg>
