<?xml version="1.0" encoding="UTF-8"?>
<svg xmlns="http://www.w3.org/2000/svg" xmlns:xlink="http://www.w3.org/1999/xlink" width="32px" height="32px" viewBox="0 0 32 32" version="1.1">
<g id="surface1">
<path style="fill-rule:nonzero;fill:rgb(94.117647%,89.019608%,92.54902%);fill-opacity:1;stroke-width:1;stroke-linecap:butt;stroke-linejoin:round;stroke:rgb(90.196079%,0.784314%,70.588237%);stroke-opacity:1;stroke-miterlimit:4;" d="M 5.5 4 L 12.5 4 C 13.5 4 14.5 5 14.5 6 L 14.5 11 C 14.5 12 11.5 15 10.5 15 L 5.5 15 C 4.5 15 3.5 14 3.5 13 L 3.5 6 C 3.5 5 4.5 4 5.5 4 Z M 5.5 4 " transform="matrix(2,0,0,2,-5,-6)"/>
<path style="fill-rule:nonzero;fill:rgb(94.117647%,89.019608%,92.54902%);fill-opacity:1;stroke-width:1;stroke-linecap:butt;stroke-linejoin:round;stroke:rgb(90.196079%,0.784314%,70.588237%);stroke-opacity:1;stroke-miterlimit:4;" d="M 14.5 11 L 10.5 15 L 10.5 11 L 14.5 11 " transform="matrix(2,0,0,2,-5,-6)"/>
<path style="fill-rule:nonzero;fill:rgb(94.117647%,89.019608%,92.54902%);fill-opacity:1;stroke-width:1;stroke-linecap:butt;stroke-linejoin:round;stroke:rgb(90.196079%,0.784314%,70.588237%);stroke-opacity:1;stroke-miterlimit:4;" d="M 5.5 4 L 12.5 4 C 13.5 4 14.5 5 14.5 6 L 14.5 11 C 14.5 12 11.5 15 10.5 15 L 5.5 15 C 4.5 15 3.5 14 3.5 13 L 3.5 6 C 3.5 5 4.5 4 5.5 4 Z M 5.5 4 " transform="matrix(2,0,0,2,-2,-3)"/>
<path style="fill-rule:nonzero;fill:rgb(94.117647%,89.019608%,92.54902%);fill-opacity:1;stroke-width:1;stroke-linecap:butt;stroke-linejoin:round;stroke:rgb(90.196079%,0.784314%,70.588237%);stroke-opacity:1;stroke-miterlimit:4;" d="M 14.5 11 L 10.5 15 L 10.5 11 L 14.5 11 " transform="matrix(2,0,0,2,-2,-3)"/>
<path style="fill-rule:nonzero;fill:rgb(95.294118%,71.764708%,85.09804%);fill-opacity:1;stroke-width:1;stroke-linecap:butt;stroke-linejoin:round;stroke:rgb(90.196079%,0.784314%,70.588237%);stroke-opacity:1;stroke-miterlimit:4;" d="M 5.5 4 L 12.5 4 C 13.5 4 14.5 5 14.5 6 L 14.5 11 C 14.5 12 11.5 15 10.5 15 L 5.5 15 C 4.5 15 3.5 14 3.5 13 L 3.5 6 C 3.5 5 4.5 4 5.5 4 Z M 5.5 4 " transform="matrix(2,0,0,2,1,0)"/>
<path style="fill-rule:nonzero;fill:rgb(95.294118%,71.764708%,85.09804%);fill-opacity:1;stroke-width:1;stroke-linecap:butt;stroke-linejoin:round;stroke:rgb(90.196079%,0.784314%,70.588237%);stroke-opacity:1;stroke-miterlimit:4;" d="M 14.5 11 L 10.5 15 L 10.5 11 L 14.5 11 " transform="matrix(2,0,0,2,1,0)"/>
</g>
</svg>
