<?xml version="1.0" encoding="UTF-8"?>
<svg xmlns="http://www.w3.org/2000/svg" xmlns:xlink="http://www.w3.org/1999/xlink" width="32px" height="32px" viewBox="0 0 32 32" version="1.1">
<g id="surface1">
<path style=" stroke:none;fill-rule:nonzero;fill:rgb(61.56863%,22.745098%,60.784316%);fill-opacity:1;" d="M 16.929688 2 L 17.070312 2 C 17.585938 2 18 2.390625 18 2.875 L 18 29.125 C 18 29.609375 17.585938 30 17.070312 30 L 16.929688 30 C 16.414062 30 16 29.609375 16 29.125 L 16 2.875 C 16 2.390625 16.414062 2 16.929688 2 Z M 16.929688 2 "/>
<path style=" stroke:none;fill-rule:nonzero;fill:rgb(90.196079%,0.784314%,70.588237%);fill-opacity:1;" d="M 20.699219 4 L 29.300781 4 C 29.6875 4 30 4.40625 30 4.90625 L 30 5.09375 C 30 5.59375 29.6875 6 29.300781 6 L 20.699219 6 C 20.3125 6 20 5.59375 20 5.09375 L 20 4.90625 C 20 4.40625 20.3125 4 20.699219 4 Z M 20.699219 4 "/>
<path style=" stroke:none;fill-rule:nonzero;fill:rgb(90.196079%,0.784314%,70.588237%);fill-opacity:1;" d="M 20.699219 8 L 27.761719 8 C 28.148438 8 28.460938 8.40625 28.460938 8.90625 L 28.460938 9.09375 C 28.460938 9.59375 28.148438 10 27.761719 10 L 20.699219 10 C 20.3125 10 20 9.59375 20 9.09375 L 20 8.90625 C 20 8.40625 20.3125 8 20.699219 8 Z M 20.699219 8 "/>
<path style=" stroke:none;fill-rule:nonzero;fill:rgb(90.196079%,0.784314%,70.588237%);fill-opacity:1;" d="M 20.699219 12 L 29.300781 12 C 29.6875 12 30 12.40625 30 12.90625 L 30 13.09375 C 30 13.59375 29.6875 14 29.300781 14 L 20.699219 14 C 20.3125 14 20 13.59375 20 13.09375 L 20 12.90625 C 20 12.40625 20.3125 12 20.699219 12 Z M 20.699219 12 "/>
<path style=" stroke:none;fill-rule:nonzero;fill:rgb(90.196079%,0.784314%,70.588237%);fill-opacity:1;" d="M 20.699219 16 L 27.761719 16 C 28.148438 16 28.460938 16.222656 28.460938 16.5 L 28.460938 17.5 C 28.460938 17.777344 28.148438 18 27.761719 18 L 20.699219 18 C 20.3125 18 20 17.777344 20 17.5 L 20 16.5 C 20 16.222656 20.3125 16 20.699219 16 Z M 20.699219 16 "/>
<path style=" stroke:none;fill-rule:nonzero;fill:rgb(90.196079%,0.784314%,70.588237%);fill-opacity:1;" d="M 20.699219 20 L 29.300781 20 C 29.6875 20 30 20.40625 30 20.90625 L 30 21.09375 C 30 21.59375 29.6875 22 29.300781 22 L 20.699219 22 C 20.3125 22 20 21.59375 20 21.09375 L 20 20.90625 C 20 20.40625 20.3125 20 20.699219 20 Z M 20.699219 20 "/>
<path style=" stroke:none;fill-rule:nonzero;fill:rgb(90.196079%,0.784314%,70.588237%);fill-opacity:1;" d="M 20.699219 24 L 27.761719 24 C 28.148438 24 28.460938 24.386719 28.460938 24.867188 L 28.460938 25.132812 C 28.460938 25.613281 28.148438 26 27.761719 26 L 20.699219 26 C 20.3125 26 20 25.613281 20 25.132812 L 20 24.867188 C 20 24.386719 20.3125 24 20.699219 24 Z M 20.699219 24 "/>
<path style=" stroke:none;fill-rule:nonzero;fill:rgb(90.196079%,0.784314%,70.588237%);fill-opacity:1;" d="M 20.699219 28 L 29.300781 28 C 29.6875 28 30 28.40625 30 28.90625 L 30 29.09375 C 30 29.59375 29.6875 30 29.300781 30 L 20.699219 30 C 20.3125 30 20 29.59375 20 29.09375 L 20 28.90625 C 20 28.40625 20.3125 28 20.699219 28 Z M 20.699219 28 "/>
<path style=" stroke:none;fill-rule:nonzero;fill:rgb(90.196079%,0.784314%,70.588237%);fill-opacity:1;" d="M 12.257812 4 L 3.105469 4 C 2.695312 4 2.363281 4.40625 2.363281 4.90625 L 2.363281 5.09375 C 2.363281 5.59375 2.695312 6 3.105469 6 L 12.257812 6 C 12.667969 6 13 5.59375 13 5.09375 L 13 4.90625 C 13 4.40625 12.667969 4 12.257812 4 Z M 12.257812 4 "/>
<path style=" stroke:none;fill-rule:nonzero;fill:rgb(90.196079%,0.784314%,70.588237%);fill-opacity:1;" d="M 12.257812 8 L 4.742188 8 C 4.332031 8 4 8.40625 4 8.90625 L 4 9.09375 C 4 9.59375 4.332031 10 4.742188 10 L 12.257812 10 C 12.667969 10 13 9.59375 13 9.09375 L 13 8.90625 C 13 8.40625 12.667969 8 12.257812 8 Z M 12.257812 8 "/>
<path style=" stroke:none;fill-rule:nonzero;fill:rgb(90.196079%,0.784314%,70.588237%);fill-opacity:1;" d="M 12.257812 12 L 3.105469 12 C 2.695312 12 2.363281 12.40625 2.363281 12.90625 L 2.363281 13.09375 C 2.363281 13.59375 2.695312 14 3.105469 14 L 12.257812 14 C 12.667969 14 13 13.59375 13 13.09375 L 13 12.90625 C 13 12.40625 12.667969 12 12.257812 12 Z M 12.257812 12 "/>
<path style=" stroke:none;fill-rule:nonzero;fill:rgb(90.196079%,0.784314%,70.588237%);fill-opacity:1;" d="M 12.257812 16 L 4.742188 16 C 4.332031 16 4 16.222656 4 16.5 L 4 17.5 C 4 17.777344 4.332031 18 4.742188 18 L 12.257812 18 C 12.667969 18 13 17.777344 13 17.5 L 13 16.5 C 13 16.222656 12.667969 16 12.257812 16 Z M 12.257812 16 "/>
<path style=" stroke:none;fill-rule:nonzero;fill:rgb(90.196079%,0.784314%,70.588237%);fill-opacity:1;" d="M 12.257812 20 L 3.105469 20 C 2.695312 20 2.363281 20.40625 2.363281 20.90625 L 2.363281 21.09375 C 2.363281 21.59375 2.695312 22 3.105469 22 L 12.257812 22 C 12.667969 22 13 21.59375 13 21.09375 L 13 20.90625 C 13 20.40625 12.667969 20 12.257812 20 Z M 12.257812 20 "/>
<path style=" stroke:none;fill-rule:nonzero;fill:rgb(90.196079%,0.784314%,70.588237%);fill-opacity:1;" d="M 12.257812 24 L 4.742188 24 C 4.332031 24 4 24.386719 4 24.867188 L 4 25.132812 C 4 25.613281 4.332031 26 4.742188 26 L 12.257812 26 C 12.667969 26 13 25.613281 13 25.132812 L 13 24.867188 C 13 24.386719 12.667969 24 12.257812 24 Z M 12.257812 24 "/>
<path style=" stroke:none;fill-rule:nonzero;fill:rgb(90.196079%,0.784314%,70.588237%);fill-opacity:1;" d="M 12.257812 28 L 3.105469 28 C 2.695312 28 2.363281 28.40625 2.363281 28.90625 L 2.363281 29.09375 C 2.363281 29.59375 2.695312 30 3.105469 30 L 12.257812 30 C 12.667969 30 13 29.59375 13 29.09375 L 13 28.90625 C 13 28.40625 12.667969 28 12.257812 28 Z M 12.257812 28 "/>
</g>
</svg>
