<?xml version="1.0" encoding="UTF-8"?>
<svg xmlns="http://www.w3.org/2000/svg" xmlns:xlink="http://www.w3.org/1999/xlink" width="32px" height="32px" viewBox="0 0 32 32" version="1.1">
<g id="surface1">
<path style=" stroke:none;fill-rule:nonzero;fill:rgb(33.333334%,34.117648%,32.549021%);fill-opacity:1;" d="M 4 2 C 2.890625 2 2 2.890625 2 4 L 2 28 C 2 29.109375 2.890625 30 4 30 L 10 30 L 10 26 L 6 26 L 6 22 L 10 22 L 10 18 L 6 18 L 6 14 L 26 14 L 26 16 L 30 16 L 30 4 C 30 2.890625 29.109375 2 28 2 Z M 6 6 L 16 6 L 16 10 L 6 10 Z M 12 18 L 12 32 L 32 32 L 32 18 Z M 14 20 L 18 20 L 18 24 L 14 24 Z M 20 20 L 24 20 L 24 24 L 20 24 Z M 26 20 L 30 20 L 30 24 L 26 24 Z M 14 26 L 18 26 L 18 30 L 14 30 Z M 20 26 L 24 26 L 24 30 L 20 30 Z M 26 26 L 30 26 L 30 30 L 26 30 Z M 26 26 "/>
</g>
</svg>
