<?xml version="1.0" encoding="UTF-8"?>
<svg xmlns="http://www.w3.org/2000/svg" xmlns:xlink="http://www.w3.org/1999/xlink" width="32px" height="32px" viewBox="0 0 32 32" version="1.1">
<g id="surface1">
<path style=" stroke:none;fill-rule:nonzero;fill:rgb(61.56863%,22.745098%,60.784316%);fill-opacity:1;" d="M 10.355469 18.960938 C 10.355469 17.546875 10.648438 16.09375 11.238281 14.597656 C 11.824219 13.105469 12.730469 11.796875 13.957031 10.675781 C 15.210938 9.53125 16.613281 8.957031 18.160156 8.957031 C 18.855469 8.957031 19.390625 9.089844 19.761719 9.355469 C 20.164062 9.621094 20.574219 10.167969 21.003906 10.996094 L 21.402344 9.515625 L 24.164062 9.515625 L 21.5625 19.601562 C 21.484375 19.894531 21.441406 20.175781 21.441406 20.441406 C 21.441406 21.5625 21.9375 22.125 22.925781 22.125 C 24.472656 22.125 25.726562 21.269531 26.6875 19.5625 C 27.671875 17.828125 28.167969 16.066406 28.167969 14.277344 C 28.167969 11.34375 27.046875 8.824219 24.804688 6.714844 C 22.5625 4.605469 19.882812 3.550781 16.761719 3.550781 C 13.503906 3.550781 10.824219 4.765625 8.714844 7.195312 C 6.609375 9.621094 5.554688 12.703125 5.554688 16.441406 C 5.554688 19.855469 6.648438 22.65625 8.835938 24.84375 C 11.050781 27.03125 13.867188 28.128906 17.28125 28.128906 C 19.601562 28.128906 22.164062 27.5 24.964844 26.246094 L 25.445312 27.40625 C 23.578125 28.289062 22.03125 28.886719 20.804688 29.207031 C 19.574219 29.527344 18.242188 29.6875 16.800781 29.6875 C 12.71875 29.6875 9.261719 28.394531 6.433594 25.804688 C 3.632812 23.191406 2.230469 19.988281 2.230469 16.199219 C 2.230469 12.332031 3.632812 9.050781 6.433594 6.355469 C 9.261719 3.660156 12.703125 2.3125 16.761719 2.3125 C 20.414062 2.3125 23.496094 3.433594 26.007812 5.675781 C 28.515625 7.914062 29.769531 10.664062 29.769531 13.917969 C 29.769531 16.480469 29.035156 18.707031 27.566406 20.601562 C 26.097656 22.496094 24.378906 23.445312 22.402344 23.445312 C 21.46875 23.445312 20.667969 23.175781 20.003906 22.644531 C 19.335938 22.109375 18.949219 21.417969 18.839844 20.5625 C 17.320312 22.457031 15.679688 23.40625 13.917969 23.40625 C 12.90625 23.40625 12.050781 22.976562 11.355469 22.125 C 10.691406 21.269531 10.355469 20.214844 10.355469 18.960938 Z M 20.324219 12.957031 C 20.324219 12.15625 20.148438 11.585938 19.800781 11.238281 C 19.457031 10.890625 19.054688 10.71875 18.601562 10.71875 C 17.453125 10.71875 16.265625 11.464844 15.039062 12.957031 C 13.8125 14.453125 13.199219 16.253906 13.199219 18.363281 C 13.199219 19.402344 13.398438 20.230469 13.796875 20.84375 C 14.226562 21.429688 14.8125 21.722656 15.558594 21.722656 C 16.8125 21.722656 17.921875 20.734375 18.882812 18.761719 C 19.84375 16.789062 20.324219 14.851562 20.324219 12.957031 Z M 20.324219 12.957031 "/>
</g>
</svg>
