<?xml version="1.0" encoding="UTF-8"?>
<svg xmlns="http://www.w3.org/2000/svg" xmlns:xlink="http://www.w3.org/1999/xlink" width="32px" height="32px" viewBox="0 0 32 32" version="1.1">
<g id="surface1">
<path style="fill-rule:nonzero;fill:rgb(95.294118%,71.764708%,85.09804%);fill-opacity:1;stroke-width:1;stroke-linecap:round;stroke-linejoin:round;stroke:rgb(90.196079%,0.784314%,70.588237%);stroke-opacity:1;stroke-miterlimit:4;" d="M 8.855469 2.513672 L 14.107422 11.490234 C 14.589844 12.453125 14.066406 13.5 12.986328 13.5 L 2.503906 13.5 C 1.509766 13.5 0.988281 12.453125 1.5 11.427734 L 6.744141 2.46875 C 7.265625 1.425781 8.3125 1.425781 8.855469 2.513672 Z M 8.855469 2.513672 " transform="matrix(2,0,0,2,0,0)"/>
<path style=" stroke:none;fill-rule:nonzero;fill:rgb(61.56863%,22.745098%,60.784316%);fill-opacity:1;" d="M 16.960938 9.40625 L 23.9375 21.332031 C 24.578125 22.609375 23.882812 24 22.449219 24 L 8.523438 24 C 7.207031 24 6.511719 22.609375 7.191406 21.25 L 14.15625 9.347656 C 14.847656 7.960938 16.238281 7.960938 16.960938 9.40625 Z M 16.960938 9.40625 "/>
<path style=" stroke:none;fill-rule:nonzero;fill:rgb(94.117647%,89.019608%,92.54902%);fill-opacity:1;" d="M 15.546875 10.179688 C 12.402344 10.085938 14.417969 15.859375 14.417969 18.492188 C 14.398438 19.738281 16.734375 19.738281 16.710938 18.492188 C 16.492188 15.675781 18.691406 10.273438 15.546875 10.179688 Z M 15.546875 10.179688 "/>
<path style=" stroke:none;fill-rule:nonzero;fill:rgb(94.117647%,89.019608%,92.54902%);fill-opacity:1;" d="M 17.015625 21.78125 C 17.015625 22.617188 16.339844 23.292969 15.507812 23.292969 C 14.675781 23.292969 14 22.617188 14 21.78125 C 14 20.949219 14.675781 20.273438 15.507812 20.273438 C 16.339844 20.273438 17.015625 20.949219 17.015625 21.78125 Z M 17.015625 21.78125 "/>
</g>
</svg>
