<?xml version="1.0" encoding="UTF-8"?>
<svg xmlns="http://www.w3.org/2000/svg" xmlns:xlink="http://www.w3.org/1999/xlink" width="32px" height="32px" viewBox="0 0 32 32" version="1.1">
<g id="surface1">
<path style="fill:none;stroke-width:1;stroke-linecap:round;stroke-linejoin:miter;stroke:rgb(61.56863%,22.745098%,60.784316%);stroke-opacity:1;stroke-miterlimit:4;" d="M 12.791016 13.796875 C 11.740234 14.648438 10.449219 15.230469 9.009766 15.419922 C 4.861328 15.962891 1.056641 13.041016 0.513672 8.892578 C 0.414062 8.125 0.431641 7.371094 0.552734 6.646484 M 1.466797 4.117188 C 2 3.193359 2.726562 2.386719 3.597656 1.759766 " transform="matrix(2,0,0,2,0,0)"/>
<path style="fill-rule:nonzero;fill:rgb(95.294118%,71.764708%,85.09804%);fill-opacity:1;stroke-width:1;stroke-linecap:round;stroke-linejoin:miter;stroke:rgb(61.56863%,22.745098%,60.784316%);stroke-opacity:1;stroke-miterlimit:4;" d="M 11.835299 12.502984 C 10.724342 14.006155 8.940137 14.979869 6.928895 14.980291 C 3.562455 14.980425 0.833362 12.251168 0.833482 8.882791 C 0.833348 5.51635 3.562606 2.787258 6.929046 2.787124 C 10.295487 2.78699 13.024579 5.516248 13.024713 8.882688 C 13.025556 9.312219 12.980683 9.729851 12.896156 10.134408 " transform="matrix(1.983049,-0.25984,0.25984,1.983049,0,0)"/>
<path style="fill:none;stroke-width:1;stroke-linecap:round;stroke-linejoin:miter;stroke:rgb(61.56863%,22.745098%,60.784316%);stroke-opacity:1;stroke-miterlimit:4;" d="M 1.998047 1.132812 L 3.810547 3.417969 " transform="matrix(2,0,0,2,0,0)"/>
<path style="fill:none;stroke-width:1;stroke-linecap:round;stroke-linejoin:miter;stroke:rgb(61.56863%,22.745098%,60.784316%);stroke-opacity:1;stroke-miterlimit:4;" d="M 11.1875 13.544922 L 13 15.828125 " transform="matrix(2,0,0,2,0,0)"/>
<path style=" stroke:none;fill-rule:nonzero;fill:rgb(61.56863%,22.745098%,60.784316%);fill-opacity:1;" d="M 2.8125 10.710938 C 2.8125 11.347656 2.300781 11.863281 1.664062 11.863281 C 1.03125 11.863281 0.515625 11.347656 0.515625 10.710938 C 0.515625 10.078125 1.03125 9.5625 1.664062 9.5625 C 2.300781 9.5625 2.8125 10.078125 2.8125 10.710938 Z M 2.8125 10.710938 "/>
<path style=" stroke:none;fill-rule:nonzero;fill:rgb(61.56863%,22.745098%,60.784316%);fill-opacity:1;" d="M 29 19.425781 C 29 20.058594 28.484375 20.574219 27.851562 20.574219 C 27.214844 20.574219 26.703125 20.058594 26.703125 19.425781 C 26.703125 18.789062 27.214844 18.277344 27.851562 18.277344 C 28.484375 18.277344 29 18.789062 29 19.425781 Z M 29 19.425781 "/>
<path style="fill-rule:nonzero;fill:rgb(61.56863%,22.745098%,60.784316%);fill-opacity:1;stroke-width:1;stroke-linecap:butt;stroke-linejoin:miter;stroke:rgb(61.56863%,22.745098%,60.784316%);stroke-opacity:1;stroke-miterlimit:4;" d="M 2.357422 12.234375 C 4.992188 11.708984 5.9375 10.664062 7.214844 8.96875 L 6.572266 8.201172 L 8.5 8 L 8.5 10.5 L 7.857422 9.734375 C 6.519531 11.285156 5.996094 12.734375 3 13 Z M 2.357422 12.234375 " transform="matrix(2,0,0,2,0,0)"/>
<path style=" stroke:none;fill-rule:nonzero;fill:rgb(61.56863%,22.745098%,60.784316%);fill-opacity:1;" d="M 15 14 L 19 14 L 19 18 C 24 12 24 11 24 6 C 22 6 24 6 20 4 C 20 9 19 12 15 14 Z M 15 14 "/>
<path style="fill:none;stroke-width:1;stroke-linecap:butt;stroke-linejoin:miter;stroke:rgb(61.56863%,22.745098%,60.784316%);stroke-opacity:1;stroke-miterlimit:4;" d="M 4 3.5 L 12 12.5 " transform="matrix(2,0,0,2,0,0)"/>
<path style="fill:none;stroke-width:1;stroke-linecap:butt;stroke-linejoin:miter;stroke:rgb(61.56863%,22.745098%,60.784316%);stroke-opacity:1;stroke-miterlimit:4;" d="M 4.058594 3.449219 C 7 0.5 16 9 12 12.5 C 8 16 1.117188 6.396484 4.058594 3.449219 Z M 4.058594 3.449219 " transform="matrix(2,0,0,2,0,0)"/>
<path style="fill:none;stroke-width:1;stroke-linecap:butt;stroke-linejoin:miter;stroke:rgb(61.56863%,22.745098%,60.784316%);stroke-opacity:1;stroke-miterlimit:4;" d="M 2 9.5 L 9.5 2 " transform="matrix(2,0,0,2,0,0)"/>
<path style="fill:none;stroke-width:1;stroke-linecap:butt;stroke-linejoin:miter;stroke:rgb(61.56863%,22.745098%,60.784316%);stroke-opacity:1;stroke-miterlimit:4;" d="M 7.5 14 L 14 6.5 " transform="matrix(2,0,0,2,0,0)"/>
</g>
</svg>
