<?xml version="1.0" encoding="UTF-8"?>
<svg xmlns="http://www.w3.org/2000/svg" xmlns:xlink="http://www.w3.org/1999/xlink" width="32px" height="32px" viewBox="0 0 32 32" version="1.1">
<g id="surface1">
<path style="fill-rule:nonzero;fill:rgb(95.294118%,71.764708%,85.09804%);fill-opacity:1;stroke-width:1;stroke-linecap:butt;stroke-linejoin:miter;stroke:rgb(90.196079%,0.784314%,70.588237%);stroke-opacity:1;stroke-miterlimit:4;" d="M 1 2.996094 L 1 13.017578 C 1 14.5 1.5 15 3.017578 15 L 12.966797 15 C 14.5 15 15 14.5 15 13 L 15 3.007812 C 15 1.5 14.5 1 13 1 L 2.960938 1 C 1.5 1 1 1.5 1 2.996094 Z M 1 2.996094 " transform="matrix(2,0,0,2,0,0)"/>
<path style=" stroke:none;fill-rule:nonzero;fill:rgb(94.117647%,89.019608%,92.54902%);fill-opacity:1;" d="M 4.25 4 C 4.113281 4 4 4.113281 4 4.25 L 4 28 L 27.6875 28 C 27.976562 28.007812 28 27.601562 28 27.539062 L 28 4.25 C 28 4.113281 27.886719 4 27.75 4 Z M 4.25 4 "/>
<path style="fill:none;stroke-width:1;stroke-linecap:round;stroke-linejoin:miter;stroke:rgb(61.56863%,22.745098%,60.784316%);stroke-opacity:1;stroke-miterlimit:4;" d="M 2.5 3 L 13.5 3 " transform="matrix(2,0,0,2,0,0)"/>
<path style="fill:none;stroke-width:1;stroke-linecap:round;stroke-linejoin:miter;stroke:rgb(61.56863%,22.745098%,60.784316%);stroke-opacity:1;stroke-miterlimit:4;" d="M 2.5 13 L 13.5 13 " transform="matrix(2,0,0,2,0,0)"/>
<path style="fill:none;stroke-width:1;stroke-linecap:round;stroke-linejoin:miter;stroke:rgb(61.56863%,22.745098%,60.784316%);stroke-opacity:1;stroke-miterlimit:4;" d="M 2.5 4.876953 L 13.5 4.876953 " transform="matrix(2,0,0,2,0,0)"/>
<path style="fill:none;stroke-width:1;stroke-linecap:round;stroke-linejoin:miter;stroke:rgb(61.56863%,22.745098%,60.784316%);stroke-opacity:1;stroke-miterlimit:4;" d="M 2.5 6.876953 L 13.5 6.876953 " transform="matrix(2,0,0,2,0,0)"/>
<path style="fill:none;stroke-width:1;stroke-linecap:round;stroke-linejoin:miter;stroke:rgb(61.56863%,22.745098%,60.784316%);stroke-opacity:1;stroke-miterlimit:4;" d="M 2.5 8.876953 L 13.5 8.876953 " transform="matrix(2,0,0,2,0,0)"/>
<path style="fill:none;stroke-width:1;stroke-linecap:round;stroke-linejoin:miter;stroke:rgb(61.56863%,22.745098%,60.784316%);stroke-opacity:1;stroke-miterlimit:4;" d="M 2.5 10.876953 L 13.5 10.876953 " transform="matrix(2,0,0,2,0,0)"/>
<path style="fill-rule:nonzero;fill:rgb(90.196079%,0.784314%,70.588237%);fill-opacity:1;stroke-width:1;stroke-linecap:butt;stroke-linejoin:miter;stroke:rgb(90.196079%,0.784314%,70.588237%);stroke-opacity:1;stroke-miterlimit:4;" d="M 9.711356 11.611212 C 7.984794 12.306524 7.531669 10.226446 7.531669 10.226446 C 7.531669 10.226446 6.615653 12.482305 5.098075 11.150274 C 3.58245 9.81629 5.809013 8.749883 5.809013 8.749883 C 5.809013 8.749883 3.244559 8.550665 4.135184 6.831915 C 5.025809 5.115118 6.752372 6.734258 6.752372 6.734258 C 6.752372 6.734258 6.045341 4.40418 8.150809 4.624883 C 10.256278 4.845587 9.057059 6.964727 9.057059 6.964727 C 9.057059 6.964727 11.236747 5.843633 11.596122 7.578008 C 11.95745 9.314337 9.539481 9.12293 9.539481 9.12293 C 9.539481 9.12293 11.435966 10.915899 9.711356 11.611212 Z M 9.711356 11.611212 " transform="matrix(2,0,0,2,0.4601,-0.245861)"/>
<path style="fill-rule:nonzero;fill:rgb(95.294118%,71.764708%,85.09804%);fill-opacity:1;stroke-width:1;stroke-linecap:butt;stroke-linejoin:miter;stroke:rgb(95.294118%,71.764708%,85.09804%);stroke-opacity:1;stroke-miterlimit:4;" d="M 8.865653 10.101446 C 7.898856 10.492071 7.64495 9.326055 7.64495 9.326055 C 7.64495 9.326055 7.131278 10.589727 6.283622 9.843633 C 5.434013 9.09754 6.680106 8.499883 6.680106 8.499883 C 6.680106 8.499883 5.244559 8.388555 5.742606 7.425665 C 6.242606 6.464727 7.209403 7.370977 7.209403 7.370977 C 7.209403 7.370977 6.812919 6.06629 7.992606 6.189337 C 9.170341 6.314337 8.500419 7.499883 8.500419 7.499883 C 8.500419 7.499883 9.719169 6.87293 9.922294 7.843633 C 10.123466 8.81629 8.76995 8.708868 8.76995 8.708868 C 8.76995 8.708868 9.83245 9.712774 8.865653 10.101446 Z M 8.865653 10.101446 " transform="matrix(2,0,0,2,0.4601,-0.245861)"/>
<path style=" stroke:none;fill-rule:nonzero;fill:rgb(61.56863%,22.745098%,60.784316%);fill-opacity:1;" d="M 18.414062 16.117188 C 18.414062 17.425781 17.351562 18.488281 16.042969 18.488281 C 14.730469 18.488281 13.667969 17.425781 13.667969 16.117188 C 13.667969 14.804688 14.730469 13.742188 16.042969 13.742188 C 17.351562 13.742188 18.414062 14.804688 18.414062 16.117188 Z M 18.414062 16.117188 "/>
</g>
</svg>
