<?xml version="1.0" encoding="UTF-8"?>
<svg xmlns="http://www.w3.org/2000/svg" xmlns:xlink="http://www.w3.org/1999/xlink" width="32px" height="32px" viewBox="0 0 32 32" version="1.1">
<g id="surface1">
<path style="fill-rule:nonzero;fill:rgb(95.294118%,71.764708%,85.09804%);fill-opacity:1;stroke-width:1;stroke-linecap:butt;stroke-linejoin:miter;stroke:rgb(90.196079%,0.784314%,70.588237%);stroke-opacity:1;stroke-miterlimit:4;" d="M 1 2.996094 L 1 13.017578 C 1 14.5 1.5 15 3.017578 15 L 12.966797 15 C 14.5 15 15 14.5 15 13 L 15 3.007812 C 15 1.5 14.5 1 13 1 L 2.960938 1 C 1.5 1 1 1.5 1 2.996094 Z M 1 2.996094 " transform="matrix(2,0,0,2,0,0)"/>
<path style=" stroke:none;fill-rule:nonzero;fill:rgb(94.117647%,89.019608%,92.54902%);fill-opacity:1;" d="M 4.25 4 C 4.113281 4 4 4.113281 4 4.25 L 4 28 L 27.6875 28 C 27.976562 28.007812 28 27.601562 28 27.539062 L 28 4.25 C 28 4.113281 27.886719 4 27.75 4 Z M 4.25 4 "/>
<path style="fill:none;stroke-width:1;stroke-linecap:round;stroke-linejoin:miter;stroke:rgb(61.56863%,22.745098%,60.784316%);stroke-opacity:1;stroke-miterlimit:4;" d="M 3 3 L 13 3 " transform="matrix(2,0,0,2,0,0)"/>
<path style="fill:none;stroke-width:1;stroke-linecap:round;stroke-linejoin:miter;stroke:rgb(61.56863%,22.745098%,60.784316%);stroke-opacity:1;stroke-miterlimit:4;" d="M 3 13 L 13 13 " transform="matrix(2,0,0,2,0,0)"/>
<path style="fill:none;stroke-width:1;stroke-linecap:round;stroke-linejoin:miter;stroke:rgb(61.56863%,22.745098%,60.784316%);stroke-opacity:1;stroke-miterlimit:4;" d="M 3 5 L 5.53125 5 M 10.484375 5 L 13 5 " transform="matrix(2,0,0,2,0,0)"/>
<path style="fill:none;stroke-width:1;stroke-linecap:round;stroke-linejoin:miter;stroke:rgb(61.56863%,22.745098%,60.784316%);stroke-opacity:1;stroke-miterlimit:4;" d="M 2.867188 7 L 2.867188 7 M 12.796875 7 L 13 7 " transform="matrix(2,0,0,2,0,0)"/>
<path style="fill:none;stroke-width:1;stroke-linecap:round;stroke-linejoin:miter;stroke:rgb(61.56863%,22.745098%,60.784316%);stroke-opacity:1;stroke-miterlimit:4;" d="M 3 9 L 3 9 M 12.738281 9 L 13 9 " transform="matrix(2,0,0,2,0,0)"/>
<path style="fill:none;stroke-width:1;stroke-linecap:round;stroke-linejoin:miter;stroke:rgb(61.56863%,22.745098%,60.784316%);stroke-opacity:1;stroke-miterlimit:4;" d="M 3 11 L 3.5 11 M 11.677734 11 L 13 11 " transform="matrix(2,0,0,2,0,0)"/>
<path style="fill-rule:nonzero;fill:rgb(90.196079%,0.784314%,70.588237%);fill-opacity:1;stroke-width:1;stroke-linecap:butt;stroke-linejoin:miter;stroke:rgb(90.196079%,0.784314%,70.588237%);stroke-opacity:1;stroke-miterlimit:4;" d="M 9.710938 11.488259 C 7.984375 12.183572 7.53125 10.103493 7.53125 10.103493 C 7.53125 10.103493 6.615234 12.359353 5.099609 11.027322 C 3.582031 9.693337 5.808594 8.626931 5.808594 8.626931 C 5.808594 8.626931 3.244141 8.427712 4.134766 6.708962 C 5.025391 4.992165 6.751953 6.611306 6.751953 6.611306 C 6.751953 6.611306 6.044922 4.281228 8.150391 4.501931 C 10.255859 4.722634 9.058594 6.841775 9.058594 6.841775 C 9.058594 6.841775 11.236328 5.720681 11.595703 7.455056 C 11.957031 9.191384 9.539062 8.999978 9.539062 8.999978 C 9.539062 8.999978 11.435547 10.792947 9.710938 11.488259 Z M 9.710938 11.488259 " transform="matrix(2,0,0,2,0,0.578169)"/>
<path style="fill-rule:nonzero;fill:rgb(95.294118%,71.764708%,85.09804%);fill-opacity:1;stroke-width:1;stroke-linecap:butt;stroke-linejoin:miter;stroke:rgb(95.294118%,71.764708%,85.09804%);stroke-opacity:1;stroke-miterlimit:4;" d="M 8.865234 9.978493 C 7.898438 10.369118 7.646484 9.203103 7.646484 9.203103 C 7.646484 9.203103 7.132812 10.466775 6.283203 9.720681 C 5.433594 8.974587 6.679688 8.376931 6.679688 8.376931 C 6.679688 8.376931 5.244141 8.265603 5.742188 7.302712 C 6.242188 6.341775 7.208984 7.248025 7.208984 7.248025 C 7.208984 7.248025 6.8125 5.943337 7.992188 6.066384 C 9.169922 6.191384 8.5 7.376931 8.5 7.376931 C 8.5 7.376931 9.720703 6.749978 9.921875 7.720681 C 10.123047 8.693337 8.769531 8.585915 8.769531 8.585915 C 8.769531 8.585915 9.832031 9.589822 8.865234 9.978493 Z M 8.865234 9.978493 " transform="matrix(2,0,0,2,0,0.578169)"/>
<path style=" stroke:none;fill-rule:nonzero;fill:rgb(61.56863%,22.745098%,60.784316%);fill-opacity:1;" d="M 17.953125 16.695312 C 17.953125 18.003906 16.890625 19.066406 15.582031 19.066406 C 14.269531 19.066406 13.207031 18.003906 13.207031 16.695312 C 13.207031 15.382812 14.269531 14.320312 15.582031 14.320312 C 16.890625 14.320312 17.953125 15.382812 17.953125 16.695312 Z M 17.953125 16.695312 "/>
</g>
</svg>
