<?xml version="1.0" encoding="UTF-8"?>
<svg xmlns="http://www.w3.org/2000/svg" xmlns:xlink="http://www.w3.org/1999/xlink" width="32px" height="32px" viewBox="0 0 32 32" version="1.1">
<g id="surface1">
<path style="fill-rule:nonzero;fill:rgb(95.294118%,71.764708%,85.09804%);fill-opacity:1;stroke-width:1;stroke-linecap:butt;stroke-linejoin:miter;stroke:rgb(90.196079%,0.784314%,70.588237%);stroke-opacity:1;stroke-miterlimit:4;" d="M 1 3.119141 L 1 13.140625 C 1 14.623047 1.5 15.123047 3.017578 15.123047 L 12.966797 15.123047 C 14.5 15.123047 15 14.623047 15 13.123047 L 15 3.130859 C 15 1.623047 14.5 1.123047 13 1.123047 L 2.960938 1.123047 C 1.5 1.123047 1 1.623047 1 3.119141 Z M 1 3.119141 " transform="matrix(2,0,0,2,0,0)"/>
<path style=" stroke:none;fill-rule:nonzero;fill:rgb(94.117647%,89.019608%,92.54902%);fill-opacity:1;" d="M 4.25 4.246094 C 4.113281 4.246094 4 4.359375 4 4.496094 L 4 28.246094 L 27.6875 28.246094 C 27.976562 28.253906 28 27.847656 28 27.785156 L 28 4.496094 C 28 4.359375 27.886719 4.246094 27.75 4.246094 Z M 4.25 4.246094 "/>
<path style="fill:none;stroke-width:1;stroke-linecap:round;stroke-linejoin:miter;stroke:rgb(61.56863%,22.745098%,60.784316%);stroke-opacity:1;stroke-miterlimit:4;" d="M 2.5 3.123047 L 13.5 3.123047 " transform="matrix(2,0,0,2,0,0)"/>
<path style="fill:none;stroke-width:1;stroke-linecap:round;stroke-linejoin:miter;stroke:rgb(61.56863%,22.745098%,60.784316%);stroke-opacity:1;stroke-miterlimit:4;" d="M 2.5 13.123047 L 13.5 13.123047 " transform="matrix(2,0,0,2,0,0)"/>
<path style="fill-rule:nonzero;fill:rgb(90.196079%,0.784314%,70.588237%);fill-opacity:1;stroke-width:1;stroke-linecap:butt;stroke-linejoin:miter;stroke:rgb(90.196079%,0.784314%,70.588237%);stroke-opacity:1;stroke-miterlimit:4;" d="M 9.711356 11.611328 C 7.984794 12.304688 7.531669 10.226562 7.531669 10.226562 C 7.531669 10.226562 6.615653 12.482422 5.098075 11.150391 C 3.58245 9.816406 5.809013 8.75 5.809013 8.75 C 5.809013 8.75 3.244559 8.550781 4.135184 6.832031 C 5.025809 5.113281 6.752372 6.734375 6.752372 6.734375 C 6.752372 6.734375 6.045341 4.404297 8.150809 4.625 C 10.256278 4.845703 9.057059 6.964844 9.057059 6.964844 C 9.057059 6.964844 11.236747 5.84375 11.596122 7.578125 C 11.95745 9.314453 9.539481 9.123047 9.539481 9.123047 C 9.539481 9.123047 11.435966 10.916016 9.711356 11.611328 Z M 9.711356 11.611328 " transform="matrix(2,0,0,2,3.4601,0)"/>
<path style="fill-rule:nonzero;fill:rgb(95.294118%,71.764708%,85.09804%);fill-opacity:1;stroke-width:1;stroke-linecap:butt;stroke-linejoin:miter;stroke:rgb(95.294118%,71.764708%,85.09804%);stroke-opacity:1;stroke-miterlimit:4;" d="M 8.865653 10.101562 C 7.898856 10.490234 7.64495 9.326172 7.64495 9.326172 C 7.64495 9.326172 7.131278 10.589844 6.283622 9.84375 C 5.434013 9.097656 6.680106 8.5 6.680106 8.5 C 6.680106 8.5 5.244559 8.388672 5.742606 7.425781 C 6.242606 6.464844 7.209403 7.371094 7.209403 7.371094 C 7.209403 7.371094 6.812919 6.066406 7.992606 6.189453 C 9.170341 6.314453 8.500419 7.5 8.500419 7.5 C 8.500419 7.5 9.719169 6.873047 9.922294 7.84375 C 10.123466 8.816406 8.76995 8.708984 8.76995 8.708984 C 8.76995 8.708984 9.83245 9.712891 8.865653 10.101562 Z M 8.865653 10.101562 " transform="matrix(2,0,0,2,3.4601,0)"/>
<path style=" stroke:none;fill-rule:nonzero;fill:rgb(61.56863%,22.745098%,60.784316%);fill-opacity:1;" d="M 21.414062 16.363281 C 21.414062 17.671875 20.351562 18.734375 19.042969 18.734375 C 17.730469 18.734375 16.667969 17.671875 16.667969 16.363281 C 16.667969 15.050781 17.730469 13.988281 19.042969 13.988281 C 20.351562 13.988281 21.414062 15.050781 21.414062 16.363281 Z M 21.414062 16.363281 "/>
<path style="fill:none;stroke-width:1;stroke-linecap:round;stroke-linejoin:miter;stroke:rgb(61.56863%,22.745098%,60.784316%);stroke-opacity:1;stroke-miterlimit:4;" d="M 2.5 5 L 4.5 5 " transform="matrix(2,0,0,2,0,0)"/>
<path style="fill:none;stroke-width:1;stroke-linecap:round;stroke-linejoin:miter;stroke:rgb(61.56863%,22.745098%,60.784316%);stroke-opacity:1;stroke-miterlimit:4;" d="M 2.5 7 L 4.5 7 " transform="matrix(2,0,0,2,0,0)"/>
<path style="fill:none;stroke-width:1;stroke-linecap:round;stroke-linejoin:miter;stroke:rgb(61.56863%,22.745098%,60.784316%);stroke-opacity:1;stroke-miterlimit:4;" d="M 2.5 9 L 4.5 9 " transform="matrix(2,0,0,2,0,0)"/>
<path style="fill:none;stroke-width:1;stroke-linecap:round;stroke-linejoin:miter;stroke:rgb(61.56863%,22.745098%,60.784316%);stroke-opacity:1;stroke-miterlimit:4;" d="M 2.5 11 L 4.5 11 " transform="matrix(2,0,0,2,0,0)"/>
</g>
</svg>
