<?xml version="1.0" encoding="UTF-8"?>
<svg xmlns="http://www.w3.org/2000/svg" xmlns:xlink="http://www.w3.org/1999/xlink" width="32px" height="32px" viewBox="0 0 32 32" version="1.1">
<g id="surface1">
<path style="fill-rule:nonzero;fill:rgb(95.294118%,71.764708%,85.09804%);fill-opacity:1;stroke-width:1;stroke-linecap:butt;stroke-linejoin:miter;stroke:rgb(90.196079%,0.784314%,70.588237%);stroke-opacity:1;stroke-miterlimit:4;" d="M 0.97988 2.996094 L 0.97988 13.017578 C 0.97988 14.5 1.47988 15 2.995505 15 L 12.944724 15 C 14.47988 15 14.97988 14.5 14.97988 13 L 14.97988 3.007812 C 14.97988 1.5 14.47988 1 12.97988 1 L 2.938865 1 C 1.47988 1 0.97988 1.5 0.97988 2.996094 Z M 0.97988 2.996094 " transform="matrix(-2,0,0,2,31.916792,0)"/>
<path style=" stroke:none;fill-rule:nonzero;fill:rgb(94.117647%,89.019608%,92.54902%);fill-opacity:1;" d="M 27.707031 4 C 27.847656 4 27.957031 4.113281 27.957031 4.25 L 27.957031 28 L 4.269531 28 C 3.980469 28.007812 3.957031 27.601562 3.957031 27.539062 L 3.957031 4.25 C 3.957031 4.113281 4.070312 4 4.207031 4 Z M 27.707031 4 "/>
<path style="fill:none;stroke-width:1;stroke-linecap:round;stroke-linejoin:miter;stroke:rgb(61.56863%,22.745098%,60.784316%);stroke-opacity:1;stroke-miterlimit:4;" d="M 2.47988 3 L 13.47988 3 " transform="matrix(-2,0,0,2,31.916792,0)"/>
<path style="fill:none;stroke-width:1;stroke-linecap:round;stroke-linejoin:miter;stroke:rgb(61.56863%,22.745098%,60.784316%);stroke-opacity:1;stroke-miterlimit:4;" d="M 2.47988 13 L 13.47988 13 " transform="matrix(-2,0,0,2,31.916792,0)"/>
<path style="fill-rule:nonzero;fill:rgb(90.196079%,0.784314%,70.588237%);fill-opacity:1;stroke-width:1;stroke-linecap:butt;stroke-linejoin:miter;stroke:rgb(90.196079%,0.784314%,70.588237%);stroke-opacity:1;stroke-miterlimit:4;" d="M 9.710086 11.611211 C 7.985476 12.306524 7.532351 10.226446 7.532351 10.226446 C 7.532351 10.226446 6.614382 12.482305 5.098757 11.150274 C 3.583132 9.816289 5.809695 8.749883 5.809695 8.749883 C 5.809695 8.749883 3.243289 8.550664 4.133914 6.831914 C 5.024539 5.115117 6.753054 6.734258 6.753054 6.734258 C 6.753054 6.734258 6.046023 4.40418 8.151492 4.624883 C 10.255007 4.845586 9.057742 6.964727 9.057742 6.964727 C 9.057742 6.964727 11.237429 5.843633 11.596804 7.578008 C 11.956179 9.314336 9.540164 9.12293 9.540164 9.12293 C 9.540164 9.12293 11.436648 10.915899 9.710086 11.611211 Z M 9.710086 11.611211 " transform="matrix(-2,0,0,2,28.498296,-0.24586)"/>
<path style="fill-rule:nonzero;fill:rgb(95.294118%,71.764708%,85.09804%);fill-opacity:1;stroke-width:1;stroke-linecap:butt;stroke-linejoin:miter;stroke:rgb(95.294118%,71.764708%,85.09804%);stroke-opacity:1;stroke-miterlimit:4;" d="M 8.866336 10.101446 C 7.899539 10.492071 7.645632 9.326055 7.645632 9.326055 C 7.645632 9.326055 7.131961 10.589727 6.282351 9.843633 C 5.434695 9.097539 6.680789 8.499883 6.680789 8.499883 C 6.680789 8.499883 5.243289 8.388555 5.743289 7.425664 C 6.241336 6.464727 7.208132 7.370977 7.208132 7.370977 C 7.208132 7.370977 6.813601 6.066289 7.991336 6.189336 C 9.171023 6.314336 8.499148 7.499883 8.499148 7.499883 C 8.499148 7.499883 9.719851 6.87293 9.921023 7.843633 C 10.124148 8.816289 8.770632 8.708867 8.770632 8.708867 C 8.770632 8.708867 9.831179 9.712774 8.866336 10.101446 Z M 8.866336 10.101446 " transform="matrix(-2,0,0,2,28.498296,-0.24586)"/>
<path style=" stroke:none;fill-rule:nonzero;fill:rgb(61.56863%,22.745098%,60.784316%);fill-opacity:1;" d="M 10.542969 16.117188 C 10.542969 17.425781 11.605469 18.488281 12.917969 18.488281 C 14.226562 18.488281 15.289062 17.425781 15.289062 16.117188 C 15.289062 14.804688 14.226562 13.742188 12.917969 13.742188 C 11.605469 13.742188 10.542969 14.804688 10.542969 16.117188 Z M 10.542969 16.117188 "/>
<path style="fill:none;stroke-width:1;stroke-linecap:round;stroke-linejoin:miter;stroke:rgb(61.56863%,22.745098%,60.784316%);stroke-opacity:1;stroke-miterlimit:4;" d="M 2.47988 4.876953 L 4.47988 4.876953 " transform="matrix(-2,0,0,2,31.916792,0)"/>
<path style="fill:none;stroke-width:1;stroke-linecap:round;stroke-linejoin:miter;stroke:rgb(61.56863%,22.745098%,60.784316%);stroke-opacity:1;stroke-miterlimit:4;" d="M 2.47988 6.876953 L 4.47988 6.876953 " transform="matrix(-2,0,0,2,31.916792,0)"/>
<path style="fill:none;stroke-width:1;stroke-linecap:round;stroke-linejoin:miter;stroke:rgb(61.56863%,22.745098%,60.784316%);stroke-opacity:1;stroke-miterlimit:4;" d="M 2.47988 8.876953 L 4.47988 8.876953 " transform="matrix(-2,0,0,2,31.916792,0)"/>
<path style="fill:none;stroke-width:1;stroke-linecap:round;stroke-linejoin:miter;stroke:rgb(61.56863%,22.745098%,60.784316%);stroke-opacity:1;stroke-miterlimit:4;" d="M 2.47988 10.876953 L 4.47988 10.876953 " transform="matrix(-2,0,0,2,31.916792,0)"/>
</g>
</svg>
