<?xml version="1.0" encoding="UTF-8"?>
<svg xmlns="http://www.w3.org/2000/svg" xmlns:xlink="http://www.w3.org/1999/xlink" width="32px" height="32px" viewBox="0 0 32 32" version="1.1">
<g id="surface1">
<path style="fill-rule:nonzero;fill:rgb(95.294118%,71.764708%,85.09804%);fill-opacity:1;stroke-width:1;stroke-linecap:butt;stroke-linejoin:miter;stroke:rgb(90.196079%,0.784314%,70.588237%);stroke-opacity:1;stroke-miterlimit:4;" d="M 1 3.119141 L 1 13.140625 C 1 14.623047 1.5 15.123047 3.017578 15.123047 L 12.966797 15.123047 C 14.5 15.123047 15 14.623047 15 13.123047 L 15 3.130859 C 15 1.623047 14.5 1.123047 13 1.123047 L 2.960938 1.123047 C 1.5 1.123047 1 1.623047 1 3.119141 Z M 1 3.119141 " transform="matrix(2,0,0,2,0,0)"/>
<path style=" stroke:none;fill-rule:nonzero;fill:rgb(94.117647%,89.019608%,92.54902%);fill-opacity:1;" d="M 4.25 4.246094 C 4.113281 4.246094 4 4.359375 4 4.496094 L 4 28.246094 L 27.6875 28.246094 C 27.976562 28.253906 28 27.847656 28 27.785156 L 28 4.496094 C 28 4.359375 27.886719 4.246094 27.75 4.246094 Z M 4.25 4.246094 "/>
<path style="fill:none;stroke-width:1;stroke-linecap:round;stroke-linejoin:miter;stroke:rgb(61.56863%,22.745098%,60.784316%);stroke-opacity:1;stroke-miterlimit:4;" d="M 2.5 3.123047 L 13.5 3.123047 " transform="matrix(2,0,0,2,0,0)"/>
<path style="fill:none;stroke-width:1;stroke-linecap:round;stroke-linejoin:miter;stroke:rgb(61.56863%,22.745098%,60.784316%);stroke-opacity:1;stroke-miterlimit:4;" d="M 2.5 13.123047 L 13.5 13.123047 " transform="matrix(2,0,0,2,0,0)"/>
<path style="fill-rule:nonzero;fill:rgb(90.196079%,0.784314%,70.588237%);fill-opacity:1;stroke-width:1.142356;stroke-linecap:butt;stroke-linejoin:miter;stroke:rgb(90.196079%,0.784314%,70.588237%);stroke-opacity:1;stroke-miterlimit:4;" d="M 9.7112 11.611848 C 7.985337 12.306165 7.532688 10.225447 7.532688 10.225447 C 7.532688 10.225447 6.614011 12.482535 5.097749 11.149715 C 3.583717 9.816894 5.809055 8.749745 5.809055 8.749745 C 5.809055 8.749745 3.244788 8.551049 4.134477 6.832001 C 5.026396 5.115185 6.752259 6.73377 6.752259 6.73377 C 6.752259 6.73377 6.045413 4.40524 8.150342 4.626261 C 10.25527 4.845049 9.057869 6.96372 9.057869 6.96372 C 9.057869 6.96372 11.236381 5.84299 11.597608 7.577666 C 11.956606 9.314575 9.539505 9.122577 9.539505 9.122577 C 9.539505 9.122577 11.434833 10.915299 9.7112 11.611848 Z M 9.7112 11.611848 " transform="matrix(1.751841,0,0,1.749696,2.276586,1.92498)"/>
<path style="fill-rule:nonzero;fill:rgb(95.294118%,71.764708%,85.09804%);fill-opacity:1;stroke-width:1.142356;stroke-linecap:butt;stroke-linejoin:miter;stroke:rgb(95.294118%,71.764708%,85.09804%);stroke-opacity:1;stroke-miterlimit:4;" d="M 8.866107 10.102658 C 7.898375 10.491118 7.646408 9.325737 7.646408 9.325737 C 7.646408 9.325737 7.131324 10.58935 6.284001 9.843684 C 5.434449 9.098019 6.680905 8.499701 6.680905 8.499701 C 6.680905 8.499701 5.244916 8.388075 5.742161 7.425854 C 6.241635 6.463633 7.209367 7.370041 7.209367 7.370041 C 7.209367 7.370041 6.812463 6.066243 7.992026 6.191265 C 9.171589 6.314054 8.50042 7.499528 8.50042 7.499528 C 8.50042 7.499528 9.720119 6.872186 9.920801 7.843337 C 10.123712 8.81672 8.770225 8.709559 8.770225 8.709559 C 8.770225 8.709559 9.831609 9.714198 8.866107 10.102658 Z M 8.866107 10.102658 " transform="matrix(1.751841,0,0,1.749696,2.276586,1.92498)"/>
<path style=" stroke:none;fill-rule:nonzero;fill:rgb(61.56863%,22.745098%,60.784316%);fill-opacity:1;" d="M 18.003906 16.238281 C 18.003906 17.386719 17.074219 18.316406 15.925781 18.316406 C 14.777344 18.316406 13.847656 17.386719 13.847656 16.238281 C 13.847656 15.09375 14.777344 14.164062 15.925781 14.164062 C 17.074219 14.164062 18.003906 15.09375 18.003906 16.238281 Z M 18.003906 16.238281 "/>
<path style="fill:none;stroke-width:1;stroke-linecap:round;stroke-linejoin:miter;stroke:rgb(61.56863%,22.745098%,60.784316%);stroke-opacity:1;stroke-miterlimit:4;" d="M 2.501953 11 L 3.302734 11 " transform="matrix(2,0,0,2,0,0)"/>
<path style="fill:none;stroke-width:1;stroke-linecap:round;stroke-linejoin:miter;stroke:rgb(61.56863%,22.745098%,60.784316%);stroke-opacity:1;stroke-miterlimit:4;" d="M 2.501953 9 L 3.302734 9 " transform="matrix(2,0,0,2,0,0)"/>
<path style="fill:none;stroke-width:1;stroke-linecap:round;stroke-linejoin:miter;stroke:rgb(61.56863%,22.745098%,60.784316%);stroke-opacity:1;stroke-miterlimit:4;" d="M 2.501953 7 L 3.302734 7 " transform="matrix(2,0,0,2,0,0)"/>
<path style="fill:none;stroke-width:1;stroke-linecap:round;stroke-linejoin:miter;stroke:rgb(61.56863%,22.745098%,60.784316%);stroke-opacity:1;stroke-miterlimit:4;" d="M 2.501953 5 L 3.302734 5 " transform="matrix(2,0,0,2,0,0)"/>
<path style="fill:none;stroke-width:1;stroke-linecap:round;stroke-linejoin:miter;stroke:rgb(61.56863%,22.745098%,60.784316%);stroke-opacity:1;stroke-miterlimit:4;" d="M 12.699219 11 L 13.5 11 " transform="matrix(2,0,0,2,0,0)"/>
<path style="fill:none;stroke-width:1;stroke-linecap:round;stroke-linejoin:miter;stroke:rgb(61.56863%,22.745098%,60.784316%);stroke-opacity:1;stroke-miterlimit:4;" d="M 12.699219 9 L 13.5 9 " transform="matrix(2,0,0,2,0,0)"/>
<path style="fill:none;stroke-width:1;stroke-linecap:round;stroke-linejoin:miter;stroke:rgb(61.56863%,22.745098%,60.784316%);stroke-opacity:1;stroke-miterlimit:4;" d="M 12.699219 7 L 13.5 7 " transform="matrix(2,0,0,2,0,0)"/>
<path style="fill:none;stroke-width:1;stroke-linecap:round;stroke-linejoin:miter;stroke:rgb(61.56863%,22.745098%,60.784316%);stroke-opacity:1;stroke-miterlimit:4;" d="M 12.699219 5 L 13.5 5 " transform="matrix(2,0,0,2,0,0)"/>
</g>
</svg>
