<?xml version="1.0" encoding="UTF-8"?>
<svg xmlns="http://www.w3.org/2000/svg" xmlns:xlink="http://www.w3.org/1999/xlink" width="32px" height="32px" viewBox="0 0 32 32" version="1.1">
<defs>
<linearGradient id="linear0" gradientUnits="userSpaceOnUse" x1="-119.747536" y1="170.733231" x2="-19.279516" y2="170.733231" gradientTransform="matrix(0.25,0,0.176777,0.176777,2.209195,-0.727687)">
<stop offset="0" style="stop-color:rgb(71.764708%,100%,29.803923%);stop-opacity:1;"/>
<stop offset="0.5" style="stop-color:rgb(29.803923%,43.921569%,85.882354%);stop-opacity:1;"/>
<stop offset="1" style="stop-color:rgb(100%,29.803923%,29.803923%);stop-opacity:1;"/>
</linearGradient>
</defs>
<g id="surface1">
<path style=" stroke:none;fill-rule:nonzero;fill:rgb(100%,40.000001%,0%);fill-opacity:1;" d="M 16 4 C 12.6875 4 10 6.6875 10 10 C 10 13.3125 12.6875 16 16 16 C 13.132812 14.34375 12.148438 10.675781 13.804688 7.804688 C 14.878906 5.949219 16.859375 4.808594 19 4.808594 C 18.089844 4.28125 17.054688 4 16 4 Z M 16 4 "/>
<path style=" stroke:none;fill-rule:nonzero;fill:rgb(100%,60.000002%,0%);fill-opacity:1;" d="M 18.71875 4.808594 C 16.675781 4.90625 14.824219 6.035156 13.804688 7.804688 C 12.148438 10.675781 13.132812 14.34375 16 16 C 14.34375 13.128906 15.328125 9.460938 18.195312 7.804688 C 20.054688 6.734375 22.339844 6.738281 24.195312 7.8125 C 23.667969 6.898438 22.914062 6.136719 22 5.609375 C 21.003906 5.035156 19.867188 4.753906 18.71875 4.808594 Z M 18.71875 4.808594 "/>
<path style=" stroke:none;fill-rule:nonzero;fill:rgb(100%,80.000001%,0%);fill-opacity:1;" d="M 21.054688 7 C 20.050781 7.023438 19.066406 7.300781 18.195312 7.804688 C 15.328125 9.460938 14.34375 13.128906 16 16 C 16.003906 12.6875 18.691406 10 22.003906 10.003906 C 24.144531 10.007812 26.125 11.15625 27.191406 13.011719 C 27.195312 11.953125 26.917969 10.914062 26.390625 10 C 25.292969 8.101562 23.25 6.949219 21.054688 7 Z M 21.054688 7 "/>
<path style=" stroke:none;fill-rule:nonzero;fill:rgb(40.000001%,60.000002%,0%);fill-opacity:1;" d="M 22.003906 10.003906 C 18.691406 10 16.003906 12.6875 16 16 C 17.726562 13.171875 21.417969 12.273438 24.246094 14 C 26.03125 15.089844 27.117188 17.03125 27.117188 19.121094 C 27.691406 18.183594 27.996094 17.105469 28 16.007812 C 28.003906 12.695312 25.316406 10.007812 22.003906 10.003906 Z M 22.003906 10.003906 "/>
<path style=" stroke:none;fill-rule:nonzero;fill:rgb(0%,80.000001%,0%);fill-opacity:1;" d="M 20.984375 13.125 C 18.941406 13.171875 17.0625 14.253906 16 16 C 18.828125 14.273438 22.519531 15.171875 24.246094 18 C 25.414062 19.914062 25.414062 22.320312 24.25 24.238281 C 25.0625 23.742188 25.75 23.058594 26.246094 22.246094 C 27.972656 19.417969 27.074219 15.726562 24.246094 14 C 23.265625 13.402344 22.132812 13.097656 20.984375 13.125 Z M 20.984375 13.125 "/>
<path style=" stroke:none;fill-rule:nonzero;fill:rgb(60.000002%,80.000001%,20%);fill-opacity:1;" d="M 18.839844 15.128906 C 17.835938 15.175781 16.859375 15.476562 16 16 C 19.3125 15.996094 22 18.683594 22.003906 21.996094 C 22.003906 24.085938 20.914062 26.027344 19.128906 27.117188 C 20.226562 27.117188 21.304688 26.816406 22.246094 26.246094 C 25.074219 24.519531 25.972656 20.828125 24.246094 18 C 23.105469 16.125 21.03125 15.027344 18.839844 15.128906 Z M 18.839844 15.128906 "/>
<path style=" stroke:none;fill-rule:nonzero;fill:rgb(40.000001%,60.000002%,100%);fill-opacity:1;" d="M 16 16 C 18.867188 17.65625 19.851562 21.324219 18.195312 24.195312 C 17.121094 26.050781 15.140625 27.191406 13 27.191406 C 13.914062 27.722656 14.953125 28 16.011719 28 C 19.324219 27.996094 22.007812 25.308594 22.003906 21.996094 C 22 18.683594 19.3125 15.996094 16 16 Z M 16 16 "/>
<path style=" stroke:none;fill-rule:nonzero;fill:rgb(20%,40.000001%,80.000001%);fill-opacity:1;" d="M 16 16 C 17.65625 18.871094 16.671875 22.539062 13.804688 24.195312 C 11.945312 25.265625 9.660156 25.261719 7.804688 24.1875 C 8.332031 25.101562 9.085938 25.863281 10 26.390625 C 12.871094 28.046875 16.539062 27.0625 18.195312 24.195312 C 19.851562 21.324219 18.867188 17.65625 16 16 Z M 16 16 "/>
<path style=" stroke:none;fill-rule:nonzero;fill:rgb(0%,20%,60.000002%);fill-opacity:1;" d="M 16 16 C 15.996094 19.3125 13.308594 22 9.996094 21.996094 C 7.855469 21.992188 5.875 20.84375 4.808594 18.988281 C 4.804688 20.046875 5.082031 21.085938 5.609375 22 C 7.265625 24.867188 10.933594 25.851562 13.804688 24.195312 C 16.671875 22.539062 17.65625 18.871094 16 16 Z M 16 16 "/>
<path style=" stroke:none;fill-rule:nonzero;fill:rgb(17.254902%,0%,34.901962%);fill-opacity:1;" d="M 4.808594 13 C 4.28125 13.910156 4 14.945312 4 16 C 4 19.3125 6.6875 22 10 22 C 13.3125 22 16 19.3125 16 16 C 14.34375 18.867188 10.675781 19.851562 7.804688 18.195312 C 5.949219 17.121094 4.808594 15.140625 4.808594 13 Z M 4.808594 13 "/>
<path style=" stroke:none;fill-rule:nonzero;fill:rgb(45.09804%,0%,33.333334%);fill-opacity:1;" d="M 7.8125 7.804688 C 6.898438 8.332031 6.136719 9.085938 5.609375 10 C 3.953125 12.871094 4.9375 16.539062 7.804688 18.195312 C 10.675781 19.851562 14.34375 18.867188 16 16 C 13.128906 17.65625 9.460938 16.671875 7.804688 13.804688 C 6.734375 11.945312 6.738281 9.660156 7.8125 7.804688 Z M 7.8125 7.804688 "/>
<path style=" stroke:none;fill-rule:nonzero;fill:rgb(80.000001%,0%,0%);fill-opacity:1;" d="M 12.859375 4.804688 C 11.855469 4.828125 10.871094 5.105469 10 5.609375 C 7.132812 7.265625 6.148438 10.933594 7.804688 13.804688 C 9.460938 16.671875 13.128906 17.65625 16 16 C 12.6875 16 10 13.3125 10 10 C 10.003906 7.855469 11.148438 5.878906 13.007812 4.808594 C 12.957031 4.808594 12.910156 4.804688 12.859375 4.804688 Z M 12.859375 4.804688 "/>
<path style=" stroke:none;fill-rule:nonzero;fill:url(#linear0);" d="M 2.308594 28.90625 L 26.625 28.90625 C 26.847656 28.90625 27.203125 29.085938 27.425781 29.308594 L 27.71875 29.601562 C 27.9375 29.820312 27.9375 30 27.71875 30 L 3.398438 30 C 3.179688 30 2.820312 29.820312 2.601562 29.601562 L 2.308594 29.308594 C 2.085938 29.085938 2.085938 28.90625 2.308594 28.90625 Z M 2.308594 28.90625 "/>
<path style="fill-rule:nonzero;fill:rgb(95.294118%,71.764708%,85.09804%);fill-opacity:1;stroke-width:0.244249;stroke-linecap:butt;stroke-linejoin:miter;stroke:rgb(61.56863%,22.745098%,60.784316%);stroke-opacity:1;stroke-miterlimit:4;" d="M 13.900123 1.911894 L 12.699147 3.510767 L 14.298264 4.711465 L 15.499241 3.112592 L 14.999516 2.112525 Z M 13.900123 1.911894 " transform="matrix(-2.384128,0,0,2.53108,40.08889,-2.124314)"/>
<path style="fill-rule:nonzero;fill:rgb(95.294118%,71.764708%,85.09804%);fill-opacity:1;stroke-width:0.162833;stroke-linecap:butt;stroke-linejoin:miter;stroke:rgb(61.56863%,22.745098%,60.784316%);stroke-opacity:1;stroke-miterlimit:4;" d="M 7.793658 11.707306 L 8.195076 9.508084 L 8.89469 9.407769 L 8.786553 9.951015 L 9.301023 9.713345 L 9.186332 10.251961 L 9.704079 10.015835 L 9.794193 10.708782 L 7.793658 11.707306 " transform="matrix(-2.384128,0,0,2.53108,40.08889,-2.124314)"/>
<path style="fill-rule:nonzero;fill:rgb(61.56863%,22.745098%,60.784316%);fill-opacity:1;stroke-width:0.0814165;stroke-linecap:butt;stroke-linejoin:miter;stroke:rgb(61.56863%,22.745098%,60.784316%);stroke-opacity:1;stroke-miterlimit:4;" d="M 8.134454 10.593034 L 8.676777 11.042138 L 7.793658 11.715023 Z M 8.134454 10.593034 " transform="matrix(-2.384128,0,0,2.53108,40.08889,-2.124314)"/>
<path style="fill-rule:nonzero;fill:rgb(90.196079%,0.784314%,70.588237%);fill-opacity:1;stroke-width:0.0814165;stroke-linecap:butt;stroke-linejoin:miter;stroke:rgb(61.56863%,22.745098%,60.784316%);stroke-opacity:1;stroke-miterlimit:4;" d="M 12.699147 3.510767 L 14.298264 4.711465 L 9.794193 10.708782 L 9.704079 10.015835 L 9.186332 10.251961 L 9.228931 9.796684 L 8.786553 9.951015 L 8.838983 9.481848 L 8.195076 9.508084 Z M 12.699147 3.510767 " transform="matrix(-2.384128,0,0,2.53108,40.08889,-2.124314)"/>
<path style="fill:none;stroke-width:0.569915;stroke-linecap:butt;stroke-linejoin:round;stroke:rgb(61.56863%,22.745098%,60.784316%);stroke-opacity:1;stroke-miterlimit:4;" d="M 13.600289 2.311613 L 8.195076 9.508084 L 7.493824 12.107025 L 9.794193 10.708782 L 15.199406 3.512311 C 15.997326 2.479834 14.432616 1.23438 13.600289 2.311613 Z M 13.600289 2.311613 " transform="matrix(-2.384128,0,0,2.53108,40.08889,-2.124314)"/>
</g>
</svg>
