<?xml version="1.0" encoding="UTF-8"?>
<svg xmlns="http://www.w3.org/2000/svg" xmlns:xlink="http://www.w3.org/1999/xlink" width="32px" height="32px" viewBox="0 0 32 32" version="1.1">
<g id="surface1">
<path style="fill-rule:nonzero;fill:rgb(94.117647%,89.019608%,92.54902%);fill-opacity:1;stroke-width:0.945312;stroke-linecap:round;stroke-linejoin:round;stroke:rgb(61.56863%,22.745098%,60.784316%);stroke-opacity:1;stroke-miterlimit:4;" d="M 13.707031 7.5 C 13.707031 10.893524 10.956024 13.644531 7.5625 13.644531 C 4.168976 13.644531 1.417969 10.893524 1.417969 7.5 C 1.417969 4.106476 4.168976 1.355469 7.5625 1.355469 C 10.956024 1.355469 13.707031 4.106476 13.707031 7.5 Z M 13.707031 7.5 " transform="matrix(2.115702,0,0,2.115702,0,0.132231)"/>
<path style=" stroke:none;fill-rule:nonzero;fill:rgb(90.196079%,0.784314%,70.588237%);fill-opacity:1;" d="M 14 20 C 12.09375 18.042969 7.96875 13.8125 7.96875 13.8125 L 5.011719 16.847656 L 14 26.066406 L 27.484375 12.234375 L 24.527344 9.199219 C 24.527344 9.199219 16.273438 17.667969 14 20 Z M 14 20 "/>
</g>
</svg>
