<?xml version="1.0" encoding="UTF-8"?>
<svg xmlns="http://www.w3.org/2000/svg" xmlns:xlink="http://www.w3.org/1999/xlink" width="32px" height="32px" viewBox="0 0 32 32" version="1.1">
<g id="surface1">
<path style=" stroke:none;fill-rule:nonzero;fill:rgb(90.196079%,0.784314%,70.588237%);fill-opacity:1;" d="M 20.164062 20.035156 C 19.539062 20.644531 17.257812 21.582031 17.867188 22.207031 L 20.039062 24.507812 L 21.191406 23.421875 L 26.988281 29.550781 C 28.4375 31.125 30.78125 28.910156 29.289062 27.375 L 23.488281 21.246094 L 24.636719 20.160156 L 22.464844 17.859375 C 21.859375 17.203125 20.804688 19.410156 20.164062 20.035156 Z M 20.164062 20.035156 "/>
<path style="fill-rule:nonzero;fill:rgb(95.294118%,71.764708%,85.09804%);fill-opacity:1;stroke-width:1;stroke-linecap:square;stroke-linejoin:miter;stroke:rgb(90.196079%,0.784314%,70.588237%);stroke-opacity:1;stroke-miterlimit:4;" d="M 5.283804 9.119583 C 5.283595 11.797131 3.112606 13.967159 0.436476 13.968292 C -2.23973 13.966665 -4.4111 11.797094 -4.410891 9.119545 C -4.410682 6.441997 -2.239693 4.27197 0.437856 4.272178 C 3.112643 4.272464 5.284012 6.442035 5.283804 9.119583 Z M 5.283804 9.119583 " transform="matrix(1.452948,-1.374388,1.374388,1.452948,0,0)"/>
<path style="fill-rule:nonzero;fill:rgb(95.294118%,71.764708%,85.09804%);fill-opacity:1;stroke-width:1;stroke-linecap:round;stroke-linejoin:miter;stroke:rgb(90.196079%,0.784314%,70.588237%);stroke-opacity:1;stroke-miterlimit:4;" d="M 4.75 3.5 C 5.316406 3.148438 5.988281 2.955078 6.705078 2.980469 C 7.642578 3.011719 8.480469 3.412109 9.083984 4.037109 " transform="matrix(2,0,0,2,0,0)"/>
<path style="fill:none;stroke-width:1;stroke-linecap:round;stroke-linejoin:miter;stroke:rgb(61.56863%,22.745098%,60.784316%);stroke-opacity:1;stroke-miterlimit:4;" d="M 11.583984 9.457031 L 9.583984 11.457031 " transform="matrix(2,0,0,2,0,0)"/>
<path style="fill:none;stroke-width:1.538461;stroke-linecap:round;stroke-linejoin:miter;stroke:rgb(61.56863%,22.745098%,60.784316%);stroke-opacity:1;stroke-miterlimit:4;" d="M 20.5 1.5 L 20.5 6.5 " transform="matrix(1.3,0,0,1.3,-17.900002,5.8)"/>
<path style="fill:none;stroke-width:1.538461;stroke-linecap:round;stroke-linejoin:miter;stroke:rgb(61.56863%,22.745098%,60.784316%);stroke-opacity:1;stroke-miterlimit:4;" d="M 23 4 L 18 4 " transform="matrix(1.3,0,0,1.3,-17.900002,5.8)"/>
<path style="fill:none;stroke-width:1;stroke-linecap:round;stroke-linejoin:miter;stroke:rgb(61.56863%,22.745098%,60.784316%);stroke-opacity:1;stroke-miterlimit:4;" d="M 9.5 8.5 L 7 8.5 " transform="matrix(2,0,0,2,0,0)"/>
<path style="fill:none;stroke-width:1;stroke-linecap:round;stroke-linejoin:miter;stroke:rgb(61.56863%,22.745098%,60.784316%);stroke-opacity:1;stroke-miterlimit:4;" d="M 4.5 9.683594 L 9 3.298828 " transform="matrix(2,0,0,2,0,0)"/>
</g>
</svg>
