<?xml version="1.0" encoding="UTF-8"?>
<svg xmlns="http://www.w3.org/2000/svg" xmlns:xlink="http://www.w3.org/1999/xlink" width="32px" height="32px" viewBox="0 0 32 32" version="1.1">
<g id="surface1">
<path style=" stroke:none;fill-rule:nonzero;fill:rgb(90.196079%,0.784314%,70.588237%);fill-opacity:1;" d="M 20.527344 19.875 C 19.902344 20.484375 17.621094 21.425781 18.226562 22.050781 L 20.402344 24.347656 L 21.550781 23.261719 L 27.351562 29.390625 C 28.796875 30.964844 31.140625 28.75 29.648438 27.21875 L 23.851562 21.085938 L 25 20 L 22.824219 17.703125 C 22.222656 17.046875 21.164062 19.253906 20.527344 19.875 Z M 20.527344 19.875 "/>
<path style="fill-rule:nonzero;fill:rgb(95.294118%,71.764708%,85.09804%);fill-opacity:1;stroke-width:1;stroke-linecap:square;stroke-linejoin:miter;stroke:rgb(90.196079%,0.784314%,70.588237%);stroke-opacity:1;stroke-miterlimit:4;" d="M 5.47079 9.186231 C 5.470582 11.863779 3.299592 14.033806 0.622043 14.033598 C -2.054086 14.034731 -4.224113 11.863742 -4.223905 9.186193 C -4.225038 6.510064 -2.055467 4.338694 0.622081 4.338903 C 3.299629 4.339111 5.469657 6.510101 5.47079 9.186231 Z M 5.47079 9.186231 " transform="matrix(1.452948,-1.374388,1.374388,1.452948,0,0)"/>
<path style="fill-rule:nonzero;fill:rgb(95.294118%,71.764708%,85.09804%);fill-opacity:1;stroke-width:1;stroke-linecap:round;stroke-linejoin:miter;stroke:rgb(90.196079%,0.784314%,70.588237%);stroke-opacity:1;stroke-miterlimit:4;" d="M 4.931641 3.419922 C 5.496094 3.068359 6.169922 2.875 6.884766 2.900391 C 7.822266 2.933594 8.660156 3.333984 9.265625 3.957031 " transform="matrix(2,0,0,2,0,0)"/>
<path style="fill:none;stroke-width:1;stroke-linecap:round;stroke-linejoin:miter;stroke:rgb(61.56863%,22.745098%,60.784316%);stroke-opacity:1;stroke-miterlimit:4;" d="M 11.765625 9.378906 L 9.765625 11.378906 " transform="matrix(2,0,0,2,0,0)"/>
<path style="fill-rule:evenodd;fill:rgb(94.117647%,89.019608%,92.54902%);fill-opacity:1;stroke-width:0.696268;stroke-linecap:butt;stroke-linejoin:miter;stroke:rgb(61.56863%,22.745098%,60.784316%);stroke-opacity:1;stroke-miterlimit:4;" d="M 3.5 10 L 3.326172 8.197266 C 3.277344 7.796875 3.34375 7.84375 3.289062 7.539062 C 3.224609 7.171875 3.199219 8.683594 3.107422 8.814453 C 2.919922 8.53125 2.404297 7.314453 3.144531 5.677734 C 3.613281 5.445312 4.164062 5.630859 4.689453 5.677734 L 4.925781 6.857422 L 5.097656 8.560547 L 4.677734 5.332031 C 4.851562 4.837891 6.175781 4.683594 6.566406 5.207031 L 6.748047 8.25 L 6.566406 5.722656 C 7.769531 5.652344 7.775391 5.673828 8.292969 6.707031 L 8.292969 8.765625 L 8.292969 7.220703 C 9.388672 7.164062 9.322266 7.894531 9.322266 8.765625 C 9.46875 9.798828 9.431641 10.681641 8.990234 11.566406 C 8.972656 12.328125 8.957031 14.378906 8.292969 14.427734 C 6.263672 14.759766 6.695312 15.070312 4.873047 14.693359 C 3.212891 14.052734 3.126953 12.550781 2.628906 11.853516 C 2.080078 11.177734 2.4375 10.814453 1.107422 10.082031 C 0.478516 9.339844 1.240234 8.882812 1.431641 9.017578 C 2.632812 9.253906 2.978516 9.59375 3.5 10 Z M 3.5 10 " transform="matrix(2,0,0,2,0,0)"/>
</g>
</svg>
