<?xml version="1.0" encoding="UTF-8"?>
<svg xmlns="http://www.w3.org/2000/svg" xmlns:xlink="http://www.w3.org/1999/xlink" width="32px" height="32px" viewBox="0 0 32 32" version="1.1">
<g id="surface1">
<path style="fill-rule:evenodd;fill:rgb(94.117647%,89.019608%,92.54902%);fill-opacity:1;stroke-width:1;stroke-linecap:round;stroke-linejoin:round;stroke:rgb(90.196079%,0.784314%,70.588237%);stroke-opacity:1;stroke-miterlimit:4;" d="M 2.1875 1.5 L 13.8125 1.5 C 14.191406 1.5 14.5 1.791016 14.5 2.152344 L 14.5 13.847656 C 14.5 14.208984 14.191406 14.5 13.8125 14.5 L 2.1875 14.5 C 1.808594 14.5 1.5 14.208984 1.5 13.847656 L 1.5 2.152344 C 1.5 1.791016 1.808594 1.5 2.1875 1.5 Z M 2.1875 1.5 " transform="matrix(2,0,0,2,0,0)"/>
<path style=" stroke:none;fill-rule:nonzero;fill:rgb(90.196079%,0.784314%,70.588237%);fill-opacity:1;" d="M 5 14 L 5 18 C 5 19.066406 5.984375 20 7 20 L 11 20 C 11.984375 20 13 19 13 18 L 13 14 C 13 12.984375 12 12 11 12 L 7 12 C 5.984375 12 5 13.015625 5 14 Z M 10 14 C 10.984375 14 11 13.984375 11 15 L 11 17 C 11 18 10.984375 18 10 18 L 8 18.003906 C 7.015625 18 6.988281 18.035156 7 17 L 6.992188 15 C 6.988281 14.015625 7.015625 14 8 14 Z M 10 14 "/>
<path style=" stroke:none;fill-rule:evenodd;fill:rgb(61.56863%,22.745098%,60.784316%);fill-opacity:1;" d="M 8 20 L 8 23.929688 L 5.699219 23.949219 L 9 28 L 12.328125 24 L 10 23.929688 L 10 20 Z M 8 20 "/>
<path style=" stroke:none;fill-rule:evenodd;fill:rgb(61.56863%,22.745098%,60.784316%);fill-opacity:1;" d="M 8 12 L 8 8.070312 L 5.699219 8.050781 L 9 4 L 12.328125 8 L 10 8.070312 L 10 12 Z M 8 12 "/>
</g>
</svg>
