<?xml version="1.0" encoding="UTF-8"?>
<svg xmlns="http://www.w3.org/2000/svg" xmlns:xlink="http://www.w3.org/1999/xlink" width="32px" height="32px" viewBox="0 0 32 32" version="1.1">
<defs>
<filter id="alpha" filterUnits="objectBoundingBox" x="0%" y="0%" width="100%" height="100%">
  <feColorMatrix type="matrix" in="SourceGraphic" values="0 0 0 0 1 0 0 0 0 1 0 0 0 0 1 0 0 0 1 0"/>
</filter>
<mask id="mask0">
  <g filter="url(#alpha)">
<rect x="0" y="0" width="32" height="32" style="fill:rgb(0%,0%,0%);fill-opacity:0.38;stroke:none;"/>
  </g>
</mask>
<clipPath id="clip1">
  <rect x="0" y="0" width="32" height="32"/>
</clipPath>
<g id="surface5" clip-path="url(#clip1)">
<path style=" stroke:none;fill-rule:nonzero;fill:rgb(90.196079%,0.784314%,70.588237%);fill-opacity:1;" d="M 5 6.425781 L 5 10.375 C 5 11.445312 5.5 11.945312 6.515625 11.945312 L 10.515625 11.945312 C 11.5 11.945312 12 11.445312 12 10.445312 L 12 6.460938 C 12 5.445312 11.5 4.945312 10.5 4.945312 L 6.515625 4.945312 C 5.5 4.945312 5 5.445312 5 6.425781 Z M 9 6.933594 C 9.984375 6.933594 10 6.917969 10 7.933594 L 10 8.933594 C 10 9.933594 9.984375 9.933594 9 9.933594 L 8 9.9375 C 7.015625 9.933594 6.988281 9.96875 7 8.933594 L 6.992188 7.933594 C 6.988281 6.953125 7.015625 6.933594 8 6.933594 C 6.773438 6.933594 8.628906 6.933594 9 6.933594 Z M 9 6.933594 "/>
</g>
<mask id="mask1">
  <g filter="url(#alpha)">
<rect x="0" y="0" width="32" height="32" style="fill:rgb(0%,0%,0%);fill-opacity:0.38;stroke:none;"/>
  </g>
</mask>
<clipPath id="clip2">
  <rect x="0" y="0" width="32" height="32"/>
</clipPath>
<g id="surface8" clip-path="url(#clip2)">
<path style=" stroke:none;fill-rule:evenodd;fill:rgb(61.56863%,22.745098%,60.784316%);fill-opacity:1;" d="M 12.050781 9.933594 L 24.050781 9.933594 L 24 12 L 28.050781 8.933594 L 24.050781 5.609375 L 23.980469 7.933594 L 12.050781 7.933594 Z M 12.050781 9.933594 "/>
</g>
<mask id="mask2">
  <g filter="url(#alpha)">
<rect x="0" y="0" width="32" height="32" style="fill:rgb(0%,0%,0%);fill-opacity:0.38;stroke:none;"/>
  </g>
</mask>
<clipPath id="clip3">
  <rect x="0" y="0" width="32" height="32"/>
</clipPath>
<g id="surface11" clip-path="url(#clip3)">
<path style=" stroke:none;fill-rule:evenodd;fill:rgb(61.56863%,22.745098%,60.784316%);fill-opacity:1;" d="M 8.050781 11.933594 L 8.050781 23.867188 L 5.75 23.886719 L 9.050781 27.933594 L 12.375 23.933594 L 10.050781 23.867188 L 10.050781 11.933594 Z M 8.050781 11.933594 "/>
</g>
</defs>
<g id="surface1">
<path style="fill-rule:evenodd;fill:rgb(94.117647%,89.019608%,92.54902%);fill-opacity:1;stroke-width:1;stroke-linecap:round;stroke-linejoin:round;stroke:rgb(90.196079%,0.784314%,70.588237%);stroke-opacity:1;stroke-miterlimit:4;" d="M 2.212891 1.466797 L 13.837891 1.466797 C 14.216797 1.466797 14.525391 1.759766 14.525391 2.119141 L 14.525391 13.816406 C 14.525391 14.175781 14.216797 14.466797 13.837891 14.466797 L 2.212891 14.466797 C 1.832031 14.466797 1.525391 14.175781 1.525391 13.816406 L 1.525391 2.119141 C 1.525391 1.759766 1.832031 1.466797 2.212891 1.466797 Z M 2.212891 1.466797 " transform="matrix(2,0,0,2,0,0)"/>
<path style=" stroke:none;fill-rule:evenodd;fill:rgb(61.56863%,22.745098%,60.784316%);fill-opacity:1;" d="M 12.050781 9.933594 L 24.050781 9.933594 L 24 12 L 28.050781 8.933594 L 24.050781 5.609375 L 23.980469 7.933594 L 12.050781 7.933594 Z M 12.050781 9.933594 "/>
<path style=" stroke:none;fill-rule:nonzero;fill:rgb(90.196079%,0.784314%,70.588237%);fill-opacity:1;" d="M 5.050781 6.425781 L 5.050781 10.375 C 5.050781 11.445312 5.550781 11.945312 6.566406 11.945312 L 10.566406 11.945312 C 11.550781 11.945312 12.050781 11.445312 12.050781 10.445312 L 12.050781 6.460938 C 12.050781 5.445312 11.550781 4.945312 10.550781 4.945312 L 6.566406 4.945312 C 5.550781 4.945312 5.050781 5.445312 5.050781 6.425781 Z M 9.050781 6.933594 C 10.03125 6.933594 10.050781 6.917969 10.050781 7.933594 L 10.050781 8.933594 C 10.050781 9.933594 10.03125 9.933594 9.050781 9.933594 L 8.050781 9.9375 C 7.066406 9.933594 7.039062 9.96875 7.050781 8.933594 L 7.042969 7.933594 C 7.039062 6.953125 7.066406 6.933594 8.050781 6.933594 C 6.820312 6.933594 8.679688 6.933594 9.050781 6.933594 Z M 9.050781 6.933594 "/>
<path style=" stroke:none;fill-rule:evenodd;fill:rgb(61.56863%,22.745098%,60.784316%);fill-opacity:1;" d="M 8.050781 11.933594 L 8.050781 23.867188 L 5.75 23.886719 L 9.050781 27.933594 L 12.375 23.933594 L 10.050781 23.867188 L 10.050781 11.933594 Z M 8.050781 11.933594 "/>
<path style=" stroke:none;fill-rule:nonzero;fill:rgb(90.196079%,0.784314%,70.588237%);fill-opacity:1;" d="M 19.996094 20.117188 C 19.371094 20.726562 17.089844 21.667969 17.699219 22.292969 L 19.871094 24.59375 L 21.023438 23.503906 L 26.820312 29.636719 C 28.269531 31.210938 30.609375 28.992188 29.117188 27.460938 L 23.320312 21.332031 L 24.46875 20.242188 L 22.296875 17.945312 C 21.691406 17.289062 20.632812 19.496094 19.996094 20.117188 Z M 19.996094 20.117188 "/>
<path style="fill-rule:nonzero;fill:rgb(95.294118%,71.764708%,85.09804%);fill-opacity:1;stroke-width:1;stroke-linecap:square;stroke-linejoin:miter;stroke:rgb(90.196079%,0.784314%,70.588237%);stroke-opacity:1;stroke-miterlimit:4;" d="M 5.193263 9.093085 C 5.194397 11.769215 3.023407 13.939242 0.347278 13.940375 C -2.330271 13.940167 -4.50164 11.770596 -4.501431 9.093048 C -4.501223 6.415499 -2.330233 4.245472 0.345896 4.244338 C 3.023445 4.244547 5.193472 6.415537 5.193263 9.093085 Z M 5.193263 9.093085 " transform="matrix(1.452948,-1.374388,1.374388,1.452948,0,0)"/>
<path style="fill-rule:nonzero;fill:rgb(95.294118%,71.764708%,85.09804%);fill-opacity:1;stroke-width:1;stroke-linecap:round;stroke-linejoin:miter;stroke:rgb(90.196079%,0.784314%,70.588237%);stroke-opacity:1;stroke-miterlimit:4;" d="M 4.666016 3.542969 C 5.232422 3.191406 5.904297 2.998047 6.621094 3.021484 C 7.556641 3.054688 8.394531 3.455078 9 4.080078 " transform="matrix(2,0,0,2,0,0)"/>
<path style="fill:none;stroke-width:1;stroke-linecap:round;stroke-linejoin:miter;stroke:rgb(61.56863%,22.745098%,60.784316%);stroke-opacity:1;stroke-miterlimit:4;" d="M 11.5 9.5 L 9.5 11.5 " transform="matrix(2,0,0,2,0,0)"/>
<use xlink:href="#surface5" mask="url(#mask0)"/>
<use xlink:href="#surface8" mask="url(#mask1)"/>
<use xlink:href="#surface11" mask="url(#mask2)"/>
</g>
</svg>
