<?xml version="1.0" encoding="UTF-8" standalone="no"?>
<svg
   xmlns:dc="http://purl.org/dc/elements/1.1/"
   xmlns:cc="http://creativecommons.org/ns#"
   xmlns:rdf="http://www.w3.org/1999/02/22-rdf-syntax-ns#"
   xmlns:svg="http://www.w3.org/2000/svg"
   xmlns="http://www.w3.org/2000/svg"
   xmlns:xlink="http://www.w3.org/1999/xlink"
   xmlns:sodipodi="http://sodipodi.sourceforge.net/DTD/sodipodi-0.dtd"
   xmlns:inkscape="http://www.inkscape.org/namespaces/inkscape"
   height="24"
   viewBox="0 0 6.3499999 6.3500001"
   width="24"
   version="1.1"
   id="svg101"
   sodipodi:docname="lc_numberformatincdecimals.svg"
   inkscape:version="0.92.4 (unknown)"
   inkscape:export-filename="/home/annisaauliarasyidah/Desktop/4_242 (aulia)/de/lc_numberformatincdecimals.png"
   inkscape:export-xdpi="96"
   inkscape:export-ydpi="96">
  <metadata
     id="metadata107">
    <rdf:RDF>
      <cc:Work
         rdf:about="">
        <dc:format>image/svg+xml</dc:format>
        <dc:type
           rdf:resource="http://purl.org/dc/dcmitype/StillImage" />
      </cc:Work>
    </rdf:RDF>
  </metadata>
  <defs
     id="defs105" />
  <sodipodi:namedview
     pagecolor="#ffffff"
     bordercolor="#666666"
     borderopacity="1"
     objecttolerance="10"
     gridtolerance="10"
     guidetolerance="10"
     inkscape:pageopacity="0"
     inkscape:pageshadow="2"
     inkscape:window-width="1366"
     inkscape:window-height="707"
     id="namedview103"
     showgrid="true"
     inkscape:zoom="27.812867"
     inkscape:cx="13.70881"
     inkscape:cy="4.3776285"
     inkscape:window-x="0"
     inkscape:window-y="0"
     inkscape:window-maximized="1"
     inkscape:current-layer="svg101"
     inkscape:snap-global="false">
    <inkscape:grid
       type="xygrid"
       id="grid978" />
  </sodipodi:namedview>
  <linearGradient
     id="a"
     gradientUnits="userSpaceOnUse"
     x1="3.429087"
     x2="3.477079"
     y1="296.423227"
     y2="294.216187">
    <stop
       offset="0"
       stop-color="#555"
       id="stop2" />
    <stop
       offset="1"
       id="stop4" />
  </linearGradient>
  <radialGradient
     id="b"
     cx="84.903702"
     cy="-130.14005"
     gradientTransform="matrix(0.01527683,0.01527683,-0.01527683,0.01527683,-0.69921348,2.3221665)"
     gradientUnits="userSpaceOnUse"
     r="57.039597"
     xlink:href="#c" />
  <linearGradient
     id="c">
    <stop
       offset="0"
       stop-color="#011701"
       id="stop8" />
    <stop
       offset=".80671918"
       stop-color="#145703"
       id="stop10" />
    <stop
       offset="1"
       stop-color="#2fa207"
       stop-opacity=".384314"
       id="stop12" />
  </linearGradient>
  <radialGradient
     id="d"
     cx="43.084476"
     cy="-121.92532"
     gradientTransform="matrix(0.01505527,0.01549523,-0.01800306,0.01749189,-1.0220633,2.5828283)"
     gradientUnits="userSpaceOnUse"
     r="57.039597"
     xlink:href="#c" />
  <radialGradient
     id="e"
     cx="51.991096"
     cy="-78.028419"
     gradientTransform="matrix(0.01400589,0.01644987,-0.02783843,0.02370244,-1.613298,2.9186159)"
     gradientUnits="userSpaceOnUse"
     r="57.039597"
     xlink:href="#c" />
  <linearGradient
     id="f"
     gradientTransform="scale(1.0975951,0.9110828)"
     gradientUnits="userSpaceOnUse"
     x1="26.091133"
     x2="31.500689"
     xlink:href="#g"
     y1="14.856744"
     y2="14.856744" />
  <linearGradient
     id="g">
    <stop
       offset="0"
       stop-color="#fff"
       id="stop18" />
    <stop
       offset="1"
       stop-color="#fff"
       stop-opacity="0"
       id="stop20" />
  </linearGradient>
  <filter
     id="h"
     height="1.277481"
     width="1.279832"
     x="-.139916"
     y="-.138741">
    <feGaussianBlur
       stdDeviation=".28784801"
       id="feGaussianBlur23" />
  </filter>
  <linearGradient
     id="i"
     gradientUnits="userSpaceOnUse"
     spreadMethod="pad"
     x1="33.346737"
     x2="32.553017"
     xlink:href="#g"
     y1="11.842831"
     y2="16.361324" />
  <radialGradient
     id="j"
     cx="50.424522"
     cy="-81.945961"
     gradientTransform="matrix(0.01527683,0.01527683,-0.01527683,0.01527683,-0.69921353,2.3221665)"
     gradientUnits="userSpaceOnUse"
     r="50.15279">
    <stop
       offset="0"
       stop-color="#7ae91e"
       stop-opacity=".996078"
       id="stop27" />
    <stop
       offset="1"
       stop-color="#62c916"
       id="stop29" />
  </radialGradient>
  <filter
     id="k"
     color-interpolation-filters="sRGB"
     height="1.024"
     width="1.024"
     x="-.012"
     y="-.012">
    <feGaussianBlur
       stdDeviation=".28192153"
       id="feGaussianBlur32" />
  </filter>
  <linearGradient
     id="l"
     gradientUnits="userSpaceOnUse"
     x1="88.223732"
     x2="101.11488"
     xlink:href="#g"
     y1="51.615383"
     y2="113.91425"
     gradientTransform="matrix(0.04960953,0,0,0.04960953,-3.178175,-3.1799)" />
  <linearGradient
     id="m"
     gradientUnits="userSpaceOnUse"
     spreadMethod="reflect"
     x1="88.606247"
     x2="91.575104"
     y1="13.510336"
     y2="13.510336">
    <stop
       offset="0"
       stop-color="#c8ff87"
       id="stop36" />
    <stop
       offset="1"
       stop-color="#abff87"
       stop-opacity="0"
       id="stop38" />
  </linearGradient>
  <linearGradient
     id="n"
     gradientUnits="userSpaceOnUse"
     spreadMethod="reflect"
     x1="31.606251"
     x2="34.575108"
     y1="13.510336"
     y2="13.510336">
    <stop
       offset="0"
       stop-color="#fff"
       id="stop41" />
    <stop
       offset="1"
       stop-color="#790000"
       stop-opacity="0"
       id="stop43" />
  </linearGradient>
  <linearGradient
     id="o"
     gradientTransform="matrix(0.06403696,0,0,0.05170609,9.012704,-0.67825)"
     gradientUnits="userSpaceOnUse"
     x1="-17.097851"
     x2="-9.967231"
     y1="39.607578"
     y2="-1.835639">
    <stop
       offset="0"
       stop-color="#0968ef"
       id="stop46" />
    <stop
       offset="1"
       stop-color="#aecffc"
       id="stop48" />
  </linearGradient>
  <path
     d="m 2.1002061,5.5660338 q -0.213704,0.33089 -0.5652816,0.33089 -0.3515776,0 -0.56528168,-0.33779 -0.21370401,-0.33779 -0.21370401,-0.8686 0,-0.49979 0.21370401,-0.83414 0.21370408,-0.33779 0.57906908,-0.33779 0.3377902,0 0.5514942,0.3309 0.2137041,0.3309 0.2137041,0.86171 0,0.52392 -0.2137041,0.85482 z m -0.5618347,-1.95781 q -0.451536,0 -0.451536,1.11333 0,1.08575 0.4480891,1.08575 0.4480891,0 0.4480891,-1.0892 0,-0.54115 -0.1137457,-0.82379 -0.1137457,-0.28609 -0.3308965,-0.28609 z"
     id="path51"
     style="fill:#f3b7d9;fill-opacity:0.90588199;stroke:#e602b4;stroke-width:0.13229167;stroke-miterlimit:4;stroke-dasharray:none"
     inkscape:connector-curvature="0" />
  <path
     d="m 3.9612868,5.5755468 q -0.213704,0.33089 -0.5652816,0.33089 -0.3515776,0 -0.5652816,-0.33779 -0.213704,-0.33779 -0.213704,-0.8686 0,-0.49979 0.213704,-0.83414 0.213704,-0.33779 0.579069,-0.33779 0.3377902,0 0.5514942,0.3309 0.213704,0.3309 0.213704,0.86171 0,0.52392 -0.213704,0.85482 z m -0.5618347,-1.95781 q -0.451536,0 -0.451536,1.11333 0,1.08575 0.4480891,1.08575 0.4480891,0 0.4480891,-1.0892 0,-0.54115 -0.1137457,-0.82379 -0.1137457,-0.28609 -0.3308965,-0.28609 z"
     id="path53"
     style="fill:#f3b7d9;fill-opacity:0.90588199;stroke:#e602b4;stroke-width:0.13229167;stroke-miterlimit:4;stroke-dasharray:none"
     inkscape:connector-curvature="0" />
  <path
     d="m 5.7902683,5.5565209 q -0.213704,0.33089 -0.5652816,0.33089 -0.3515776,0 -0.5652816,-0.33779 -0.213704,-0.33779 -0.213704,-0.8686 0,-0.49979 0.213704,-0.83414 0.213704,-0.33779 0.579069,-0.33779 0.3377902,0 0.5514942,0.3309 0.213704,0.3309 0.213704,0.86171 0,0.52392 -0.213704,0.85482 z m -0.5618348,-1.95781 q -0.4515359,0 -0.4515359,1.11333 0,1.08575 0.4480891,1.08575 0.4480891,0 0.4480891,-1.0892 0,-0.54115 -0.1137457,-0.82379 -0.1137457,-0.28609 -0.3308966,-0.28609 z"
     id="path55"
     style="fill:#f3b7d9;fill-opacity:0.90588199;stroke:#e602b4;stroke-width:0.13229167;stroke-miterlimit:4;stroke-dasharray:none"
     inkscape:connector-curvature="0" />
  <path
     inkscape:connector-curvature="0"
     style="fill:#f3b7d9;stroke:#e602b4;stroke-width:0.13830689;stroke-miterlimit:4;stroke-dasharray:none"
     id="path59"
     d="m 5.2554992,2.7516663 q -0.223421,0.3459458 -0.5909846,0.3459458 -0.3675635,0 -0.5909845,-0.3531491 -0.223421,-0.3531491 -0.223421,-0.9080946 0,-0.5225151 0.223421,-0.87206784 0.223421,-0.35314908 0.6053989,-0.35314908 0.3531492,0 0.5765702,0.34594579 0.2234211,0.34593533 0.2234211,0.90089143 0,0.5477423 -0.2234211,0.8936776 z M 4.6681183,0.70484644 q -0.4720671,0 -0.4720671,1.16395236 0,1.1351183 0.4684634,1.1351183 0.4684635,0 0.4684635,-1.1387251 0,-0.5657558 -0.1189177,-0.8612472 Q 4.8951428,0.70484644 4.6681183,0.70484644 Z" />
  <path
     d="M 3.0791508,1.6408199 C 3.0791529,1.572296 3.0240786,1.5167464 2.9561413,1.5167485 l -0.7539919,-0.00757 0.00199,-0.75089857 c 3.8e-6,-0.0685254 -0.055072,-0.12407509 -0.1230079,-0.12407309 l -0.4354875,2e-7 c -0.067936,-2e-6 -0.1230115,0.0555479 -0.1230096,0.12407125 l -0.00199,0.75089851 -0.75196165,0.00757 c -0.0679372,-2e-6 -0.12301163,0.055547 -0.12300965,0.1240714 v 0.4392466 c -1.98e-6,0.068524 0.0550721,0.1240736 0.12300965,0.1240715 l 0.75196165,-0.00757 0.00201,0.7680575 c -1.9e-6,0.068524 0.055073,0.1240734 0.1230097,0.1240713 H 2.081145 c 0.067937,2.1e-6 0.1230116,-0.055547 0.1230096,-0.1240713 l -0.00201,-0.7680575 0.7539921,0.00757 c 0.067937,2.1e-6 0.1230116,-0.055548 0.1230095,-0.1240715 z"
     id="path61"
     inkscape:connector-curvature="0"
     style="fill:#f3b7d9;fill-opacity:0.90588199;stroke:#9d3a9b;stroke-width:0.21968839;stroke-miterlimit:4;stroke-dasharray:none" />
  <path
     inkscape:connector-curvature="0"
     id="path97"
     d="m 0.35873643,5.7164627 q 0,0 -0.0326761,0.00817 -0.0367606,0.00817 -0.0776057,0.00817 -0.11028181,0 -0.175634,-0.053099 -0.0653522,-0.057184 -0.0653522,-0.1552121 0,-0.1021129 0.0653522,-0.167465 0.0694367,-0.065352 0.175634,-0.065352 0.1388734,0 0.23281716,0.1061974 0.0939438,0.1021126 0.0939438,0.2573242 0,0.1838031 -0.12661986,0.3553524 Q 0.32197584,6.182097 0.11775026,6.2842097 L 0.08098966,6.206604 Q 0.4159196,5.9778714 0.4159196,5.7736459 q 0,-0.057183 -0.0571832,-0.057183 z"
     style="fill:#9d3a9b;fill-opacity:0.90588199;stroke-width:0.1875" />
</svg>
