<?xml version="1.0" encoding="UTF-8"?>
<svg xmlns="http://www.w3.org/2000/svg" xmlns:xlink="http://www.w3.org/1999/xlink" width="24px" height="24px" viewBox="0 0 24 24" version="1.1">
<g id="surface1">
<path style=" stroke:none;fill-rule:nonzero;fill:rgb(33.333334%,34.117648%,32.549021%);fill-opacity:1;" d="M 1.5 1.5 L 1.5 4.5 L 16.5 4.5 L 16.5 1.5 Z M 19.5 1.5 C 19.5 2.328125 18.828125 3 18 3 L 18 4.5 L 19.5 4.5 L 19.5 9 L 21 9 L 21 1.5 Z M 7.5 6 L 7.5 9 L 16.5 9 L 16.5 6 Z M 4.5 13.5 C 3.320312 14.699219 3 15.777344 3 17.101562 L 3 19.5 L 0 22.5 L 0 24 L 1.5 24 L 4.5 21 L 6.898438 21 C 8.046875 21 9.300781 20.65625 10.5 19.5 L 10.5 18 L 9 18 C 6.851562 20.246094 3.660156 17.4375 6 15 L 6 13.5 Z M 12 13.5 L 12 16.5 L 16.5 16.5 L 16.5 13.5 Z M 20.25 13.5 C 19.007812 13.5 18 14.507812 18 15.75 L 19.5 15.75 C 19.5 15.335938 19.835938 15 20.25 15 C 20.664062 15 21 15.335938 21 15.75 C 21 15.957031 20.953125 16.0625 20.867188 16.179688 L 18 19.769531 L 18 21 L 22.5 21 L 22.5 19.5 L 20.097656 19.5 L 21.988281 17.105469 C 22.214844 16.859375 22.5 16.5 22.5 15.75 C 22.5 14.507812 21.492188 13.5 20.25 13.5 Z M 12 18 L 12 21 L 16.5 21 L 16.5 18 Z M 12 18 "/>
</g>
</svg>
