<?xml version="1.0" encoding="UTF-8"?>
<svg xmlns="http://www.w3.org/2000/svg" xmlns:xlink="http://www.w3.org/1999/xlink" width="24px" height="24px" viewBox="0 0 24 24" version="1.1">
<g id="surface1">
<path style="fill-rule:nonzero;fill:rgb(95.294118%,71.764708%,85.09804%);fill-opacity:1;stroke-width:0.0653471;stroke-linecap:round;stroke-linejoin:round;stroke:rgb(90.196079%,0.392157%,70.588237%);stroke-opacity:1;stroke-miterlimit:4;" d="M 2.934244 0.306285 C 2.982966 0.307657 3.028256 0.326871 3.068743 0.353634 C 3.083154 0.35981 3.096192 0.368731 3.107858 0.37971 L 4.06514 1.297191 C 4.081609 1.312974 4.093961 1.33013 4.102882 1.35003 L 4.077492 1.31366 C 4.146114 1.382283 4.209246 1.482471 4.209246 1.605991 C 4.209246 1.733629 4.148859 1.837249 4.083668 1.914792 C 4.081609 1.918223 4.078864 1.920968 4.076119 1.923713 L 4.083668 1.915478 C 4.078178 1.921654 4.072002 1.928516 4.06514 1.934692 L 4.063767 1.936065 L 3.109917 2.845311 C 3.109917 2.845311 3.109231 2.845997 3.109231 2.845997 C 3.107858 2.847369 3.106486 2.847369 3.1058 2.848055 C 3.102368 2.8508 3.095506 2.855604 3.085213 2.862466 C 3.094134 2.85629 3.098251 2.853545 3.103741 2.849428 C 3.024139 2.922854 2.915029 2.937951 2.824448 2.900208 C 2.732494 2.861094 2.665244 2.769826 2.665244 2.659344 L 2.665244 2.136442 L 1.109576 2.136442 C 1.106145 2.138501 1.102028 2.141245 1.102028 2.141245 C 1.101341 2.141932 1.098597 2.146049 1.096538 2.14948 L 1.096538 3.443011 C 1.096538 3.587118 0.979194 3.704462 0.835087 3.704462 L 0.312871 3.704462 C 0.168764 3.704462 0.0514199 3.587118 0.0514199 3.443011 L 0.0514199 2.397893 C 0.0514199 2.373875 0.0541648 2.372503 0.0569097 2.362896 C 0.0541648 2.333388 0.0514199 2.302508 0.0514199 2.264079 L 0.0514199 2.136442 C 0.0514199 1.791958 0.120728 1.522272 0.301891 1.341109 C 0.483054 1.159946 0.75274 1.090638 1.096538 1.090638 L 2.665244 1.090638 L 2.665244 0.567736 C 2.665244 0.42157 2.788078 0.302167 2.934244 0.306285 Z M 2.934244 0.306285 " transform="matrix(-5.69239,0,0,5.69239,24.148171,-0.274741)"/>
</g>
</svg>
