<?xml version="1.0" encoding="UTF-8"?>
<svg xmlns="http://www.w3.org/2000/svg" xmlns:xlink="http://www.w3.org/1999/xlink" width="24px" height="24px" viewBox="0 0 24 24" version="1.1">
<g id="surface1">
<path style="fill-rule:nonzero;fill:rgb(95.294118%,71.764708%,85.09804%);fill-opacity:1;stroke-width:0.0653471;stroke-linecap:round;stroke-linejoin:round;stroke:rgb(90.196079%,0.392157%,70.588237%);stroke-opacity:1;stroke-miterlimit:4;" d="M 2.934186 0.306285 C 2.982908 0.307657 3.028199 0.326871 3.068686 0.353634 C 3.083097 0.35981 3.096135 0.368731 3.107801 0.37971 L 4.065082 1.297191 C 4.081551 1.312974 4.093903 1.33013 4.102824 1.35003 L 4.077434 1.31366 C 4.146056 1.382283 4.209189 1.482471 4.209189 1.605991 C 4.209189 1.733629 4.148801 1.837249 4.08361 1.914792 C 4.081551 1.918223 4.078806 1.920968 4.076062 1.923713 L 4.08361 1.915478 C 4.07812 1.921654 4.071944 1.928516 4.065082 1.934692 L 4.064396 1.936065 L 3.109859 2.845311 C 3.109859 2.845311 3.109173 2.845997 3.109173 2.845997 C 3.107801 2.847369 3.106428 2.847369 3.105742 2.848055 C 3.102311 2.8508 3.095449 2.855604 3.085841 2.862466 C 3.094076 2.85629 3.098193 2.853545 3.103683 2.849428 C 3.024081 2.922854 2.914972 2.937951 2.82439 2.900208 C 2.732436 2.861094 2.665187 2.769826 2.665187 2.659344 L 2.665187 2.136442 L 1.109518 2.136442 C 1.106774 2.138501 1.102656 2.141245 1.10197 2.141245 C 1.101284 2.141932 1.098539 2.146049 1.097166 2.14948 L 1.097166 3.443011 C 1.097166 3.587118 0.979136 3.704462 0.835029 3.704462 L 0.312813 3.704462 C 0.168706 3.704462 0.0513623 3.587118 0.0513623 3.443011 L 0.0513623 2.397893 C 0.0513623 2.373875 0.0541071 2.372503 0.056852 2.362896 C 0.0541071 2.333388 0.0513623 2.302508 0.0513623 2.264079 L 0.0513623 2.136442 C 0.0513623 1.791958 0.120671 1.522272 0.301834 1.341109 C 0.482997 1.159946 0.752682 1.090638 1.09648 1.090638 L 2.665187 1.090638 L 2.665187 0.567736 C 2.665187 0.42157 2.788021 0.302167 2.934186 0.306285 Z M 2.934186 0.306285 " transform="matrix(5.69239,0,0,5.69239,-0.104874,-0.274741)"/>
</g>
</svg>
