<?xml version="1.0" encoding="UTF-8" standalone="no"?>
<svg
   xmlns:dc="http://purl.org/dc/elements/1.1/"
   xmlns:cc="http://creativecommons.org/ns#"
   xmlns:rdf="http://www.w3.org/1999/02/22-rdf-syntax-ns#"
   xmlns:svg="http://www.w3.org/2000/svg"
   xmlns="http://www.w3.org/2000/svg"
   xmlns:xlink="http://www.w3.org/1999/xlink"
   xmlns:sodipodi="http://sodipodi.sourceforge.net/DTD/sodipodi-0.dtd"
   xmlns:inkscape="http://www.inkscape.org/namespaces/inkscape"
   height="16"
   viewBox="0 0 4.2333333 4.2333335"
   width="16"
   id="svg2"
   version="1.1"
   inkscape:version="0.91 r13725"
   sodipodi:docname="sc_alphalowliststyle.svg"
   inkscape:export-filename="/home/tamara/Desktop/IKON/5_258 (tamara)/ar/sc_alphalowliststyle.png"
   inkscape:export-xdpi="90"
   inkscape:export-ydpi="90">
  <metadata
     id="metadata41">
    <rdf:RDF>
      <cc:Work
         rdf:about="">
        <dc:format>image/svg+xml</dc:format>
        <dc:type
           rdf:resource="http://purl.org/dc/dcmitype/StillImage" />
      </cc:Work>
    </rdf:RDF>
  </metadata>
  <defs
     id="defs39" />
  <sodipodi:namedview
     pagecolor="#ffffff"
     bordercolor="#666666"
     borderopacity="1"
     objecttolerance="10"
     gridtolerance="10"
     guidetolerance="10"
     inkscape:pageopacity="0"
     inkscape:pageshadow="2"
     inkscape:window-width="1366"
     inkscape:window-height="718"
     id="namedview37"
     showgrid="true"
     inkscape:zoom="29.5"
     inkscape:cx="7.764245"
     inkscape:cy="5.3656911"
     inkscape:window-x="0"
     inkscape:window-y="0"
     inkscape:window-maximized="1"
     inkscape:current-layer="svg2">
    <inkscape:grid
       type="xygrid"
       id="grid4169" />
  </sodipodi:namedview>
  <linearGradient
     id="a">
    <stop
       offset="0"
       stop-color="#06f"
       id="stop5" />
    <stop
       offset="1"
       stop-color="#80b3ff"
       id="stop7" />
  </linearGradient>
  <linearGradient
     id="b"
     gradientUnits="userSpaceOnUse"
     x1="8.582896"
     x2="11.419547"
     xlink:href="#a"
     y1="276.631856"
     y2="259.125702"
     gradientTransform="matrix(0.15118184,0,0,0.15118184,2.201797,-40.043212)" />
  <linearGradient
     id="c"
     gradientUnits="userSpaceOnUse"
     x1="9.009091"
     x2="10.876233"
     xlink:href="#a"
     y1="291.081718"
     y2="279.455498"
     gradientTransform="matrix(0.14480508,0,0,0.14480508,2.179663,-38.453618)" />
  <g
     id="g11606">
    <rect
       ry="0.11504374"
       rx="0.13229226"
       y="3.1750062"
       x="0.79374993"
       height="0.26458335"
       width="1.5875"
       id="rect4185"
       style="opacity:1;fill:#9e3a9c;fill-opacity:1;fill-rule:evenodd;stroke:none;stroke-width:0.40900001;stroke-linecap:round;stroke-linejoin:round;stroke-miterlimit:4;stroke-dasharray:none;stroke-dashoffset:0;stroke-opacity:1" />
    <rect
       style="opacity:1;fill:#9e3a9c;fill-opacity:1;fill-rule:evenodd;stroke:none;stroke-width:0.40900001;stroke-linecap:round;stroke-linejoin:round;stroke-miterlimit:4;stroke-dasharray:none;stroke-dashoffset:0;stroke-opacity:1"
       id="rect4183"
       width="1.5875"
       height="0.26458335"
       x="0.79374993"
       y="1.3229198"
       rx="0.13229226"
       ry="0.11504374" />
    <rect
       style="opacity:1;fill:#9e3a9c;fill-opacity:1;fill-rule:evenodd;stroke:none;stroke-width:0.40900001;stroke-linecap:round;stroke-linejoin:round;stroke-miterlimit:4;stroke-dasharray:none;stroke-dashoffset:0;stroke-opacity:1"
       id="rect4181"
       width="2.1166668"
       height="0.26458335"
       x="0.26458323"
       y="2.6458411"
       rx="0.13229226"
       ry="0.13229167" />
    <rect
       ry="0.13229167"
       rx="0.13229226"
       y="0.79375076"
       x="0.26458323"
       height="0.26458335"
       width="2.1166668"
       id="rect4189"
       style="opacity:1;fill:#9e3a9c;fill-opacity:1;fill-rule:evenodd;stroke:none;stroke-width:0.40900001;stroke-linecap:round;stroke-linejoin:round;stroke-miterlimit:4;stroke-dasharray:none;stroke-dashoffset:0;stroke-opacity:1" />
    <path
       sodipodi:nodetypes="cccccsccccccccccssccccscscccccccsscccccc"
       d="m 3.5208318,0.52090453 c 2.116e-4,3.175e-5 4.142e-4,1.2397e-4 6.259e-4,1.5118e-4 z m 6.259e-4,1.5421e-4 c -6.259e-4,-1.5421e-4 0,-3.03e-6 -6.253e-4,-1.8596e-4 -0.046338,-0.007 -0.093071,-0.0103106 -0.1400788,-0.0103106 -0.057149,0 -0.1129518,0.004263 -0.1680477,0.0132889 -0.037706,0.005316 -3.104e-4,-1.21e-5 -3.104e-4,-1.21e-5 -0.030994,0.00508 -0.061837,0.0113235 -0.092344,0.0200785 -0.079237,0.022322 -0.1565802,0.0572919 -0.2250011,0.10890686 -6.909e-4,4.5355e-4 -0.00135,0.001058 -0.00203,0.001557 -0.063913,0.0490782 -0.1198296,0.11296458 -0.1597664,0.18632859 -0.036459,0.066393 -0.060385,0.13817718 -0.072657,0.21078227 -0.010773,0.064635 8.738e-4,0.1310429 0.033047,0.1881262 -0.00524,0.0089 -0.015624,0.014181 -0.020313,0.023281 -2.963e-4,4.535e-4 -6.44e-4,0.00106 -9.373e-4,0.00156 -0.046635,0.091857 -0.061953,0.1883439 -0.061953,0.2813298 0,0.077984 0.012177,0.1569706 0.040391,0.231798 0.027501,0.072938 0.071438,0.1437346 0.1299225,0.2008602 7.831e-4,7.559e-4 0.00163,0.00156 0.00242,0.00234 0.057028,0.054374 0.1262901,0.095648 0.1983604,0.1216409 l 0.00531,0.0018 c 0.073437,0.024875 0.1490321,0.035077 0.2238293,0.035077 0.099988,0 0.1986107,-0.035664 0.2911732,-0.08086 0.083562,0.04634 0.1728044,0.073204 0.2530483,0.073204 0.023697,0 0.047252,-6.048e-4 0.073516,-0.00296 0.019877,-0.00172 0.039236,-0.00396 0.058203,-0.0068 0.02369,-0.00355 0.045164,-0.00804 0.064922,-0.012971 0.011603,-0.0029 0.024761,-0.0062 0.03961,-0.00977 C 4.1201624,2.068169 4.2110646,1.95284 4.2110703,1.8201582 l 0,-0.1429696 C 4.2108738,1.5754553 4.1568408,1.4814641 4.0690383,1.4300789 l 0,-0.2678928 c 0,-0.088426 -0.013426,-0.17814658 -0.048125,-0.26429756 C 3.9875964,0.81517091 3.9342632,0.7380969 3.8673967,0.67820017 3.8007097,0.61795269 3.7200432,0.57355512 3.6364582,0.54710586 3.5975311,0.53347696 3.5555517,0.52878088 3.5214577,0.52105874 Z m -0.3090641,0.002812 c 1e-4,-1.663e-5 2.117e-4,1.663e-5 3.115e-4,0 -2.2e-6,-1.0381e-4 -2.077e-4,0 -3.115e-4,0 z"
       id="path13"
       style="fill:#f3b7d9;fill-opacity:1;stroke:#9e3a9c;stroke-width:0.06614584;stroke-linecap:butt;stroke-linejoin:miter;stroke-miterlimit:4;stroke-dasharray:none;stroke-opacity:1"
       inkscape:connector-curvature="0" />
    <text
       style="font-size:1.92525887px;font-family:sans-serif;letter-spacing:0;word-spacing:0;fill:#e601b4;stroke-width:0.31836799;fill-opacity:1;"
       x="2.8411124"
       y="1.8333871"
       id="text15">
      <tspan
         font-weight="bold"
         x="2.8411124"
         y="1.8333871"
         id="tspan17"
         style="font-weight:bold;font-family:'Liberation Sans';fill:#e601b4;stroke-width:0.31836799;fill-opacity:1;">a</tspan>
    </text>
    <path
       d="M 2.9104161,2.3812509 A 0.25121615,0.25121615 0 0 0 2.6592697,2.6323965 l 0,1.1137553 c 0,0.047321 -7.196e-4,0.088173 -0.00226,0.1216131 a 0.25121615,0.25121615 0 0 0 -2.824e-4,0.00368 c -0.00112,0.03582 -0.00256,0.06253 -0.00368,0.075513 a 0.25121615,0.25121615 0 0 0 0.2502978,0.2726404 l 0.2457723,0 a 0.25121615,0.25121615 0 0 0 0.1018161,-0.021777 c 0.023622,0.00833 0.046093,0.020384 0.070423,0.025454 0.044734,0.00933 0.090931,0.014423 0.1374517,0.014423 0.097106,0 0.1963846,-0.019974 0.2850851,-0.067594 0.081757,-0.043583 0.1538424,-0.1085705 0.2061775,-0.1855329 a 0.25121615,0.25121615 0 0 0 0.00113,-0.00116 c 0.049604,-0.073921 0.083242,-0.156918 0.1035129,-0.2437923 0.020146,-0.084319 0.02885,-0.1718822 0.02885,-0.2618656 0,-0.088401 -0.00834,-0.1737661 -0.026868,-0.2559531 C 4.03752,3.1367599 4.0055139,3.055139 3.9574247,2.9819661 3.9078175,2.9049501 3.8379674,2.838987 3.7574693,2.7947375 3.6697416,2.7459556 3.5709173,2.725163 3.4749296,2.725163 c -0.020703,0 -0.039527,0.012598 -0.060241,0.014423 l 0,-0.1071905 A 0.25121615,0.25121615 0 0 0 3.1635421,2.3812495 Z"
       id="path21"
       style="fill:#f3b7d9;fill-opacity:1;stroke:#9e3a9c;stroke-opacity:1;stroke-width:0.06614584;stroke-miterlimit:4;stroke-dasharray:none"
       inkscape:connector-curvature="0" />
    <text
       style="font-size:1.84405255px;font-family:sans-serif;letter-spacing:0;word-spacing:0;fill:#e601b4;stroke-width:0.31836799;fill-opacity:1;"
       x="2.7817385"
       y="3.9685521"
       id="text23">
      <tspan
         font-weight="bold"
         x="2.7817385"
         y="3.9685521"
         id="tspan25"
         style="font-weight:bold;font-family:'Liberation Sans';fill:#e601b4;stroke-width:0.31836799;fill-opacity:1;">b</tspan>
    </text>
  </g>
</svg>
