<?xml version="1.0" encoding="UTF-8" standalone="no"?>
<svg
   xmlns:dc="http://purl.org/dc/elements/1.1/"
   xmlns:cc="http://creativecommons.org/ns#"
   xmlns:rdf="http://www.w3.org/1999/02/22-rdf-syntax-ns#"
   xmlns:svg="http://www.w3.org/2000/svg"
   xmlns="http://www.w3.org/2000/svg"
   xmlns:xlink="http://www.w3.org/1999/xlink"
   xmlns:sodipodi="http://sodipodi.sourceforge.net/DTD/sodipodi-0.dtd"
   xmlns:inkscape="http://www.inkscape.org/namespaces/inkscape"
   height="16"
   viewBox="0 0 4.2333333 4.2333335"
   width="16"
   id="svg2"
   version="1.1"
   inkscape:version="0.91 r13725"
   sodipodi:docname="sc_undo.svg"
   inkscape:export-filename="/home/tamara/Desktop/IKON/5_258 (tamara)/ar/sc_undo.png"
   inkscape:export-xdpi="90"
   inkscape:export-ydpi="90">
  <metadata
     id="metadata76">
    <rdf:RDF>
      <cc:Work
         rdf:about="">
        <dc:format>image/svg+xml</dc:format>
        <dc:type
           rdf:resource="http://purl.org/dc/dcmitype/StillImage" />
        <dc:title />
      </cc:Work>
    </rdf:RDF>
  </metadata>
  <defs
     id="defs74" />
  <sodipodi:namedview
     pagecolor="#ffffff"
     bordercolor="#666666"
     borderopacity="1"
     objecttolerance="10"
     gridtolerance="10"
     guidetolerance="10"
     inkscape:pageopacity="0"
     inkscape:pageshadow="2"
     inkscape:window-width="1366"
     inkscape:window-height="718"
     id="namedview72"
     showgrid="true"
     inkscape:zoom="30.75"
     inkscape:cx="2.3713641"
     inkscape:cy="7.9529757"
     inkscape:window-x="0"
     inkscape:window-y="0"
     inkscape:window-maximized="1"
     inkscape:current-layer="svg2">
    <inkscape:grid
       type="xygrid"
       id="grid4204" />
  </sodipodi:namedview>
  <linearGradient
     id="a"
     gradientUnits="userSpaceOnUse"
     x1="38.895172"
     x2="121.59636"
     y1="66.665695"
     y2="66.665695"
     gradientTransform="matrix(-0.04960937,0,0,0.04960937,6.085448,-1.322884)">
    <stop
       offset="0"
       stop-color="#be9000"
       id="stop5" />
    <stop
       offset="1"
       stop-color="#b68a00"
       id="stop7" />
  </linearGradient>
  <radialGradient
     id="b"
     cx="130.66731"
     cy="99.297249"
     gradientTransform="matrix(-0.01871001,0.01559167,0.02595383,0.03114461,-0.52923273,-1.8226036)"
     gradientUnits="userSpaceOnUse"
     r="42.423828"
     xlink:href="#g" />
  <radialGradient
     id="c"
     cx="-24.423079"
     cy="155.70058"
     gradientTransform="matrix(0.01415604,0.01981845,0.02182834,-0.01559167,4.7186239,6.2570695)"
     gradientUnits="userSpaceOnUse"
     r="42.423828"
     xlink:href="#g" />
  <radialGradient
     id="d"
     cx="85.333977"
     cy="47.086971"
     gradientTransform="matrix(-0.04053834,-0.00311833,-9.5666114e-4,0.0124366,5.3564274,0.87112318)"
     gradientUnits="userSpaceOnUse"
     r="42.423828">
    <stop
       offset="0"
       stop-color="#fff"
       id="stop12" />
    <stop
       offset="1"
       stop-color="#fff"
       stop-opacity="0"
       id="stop14" />
  </radialGradient>
  <filter
     id="e"
     color-interpolation-filters="sRGB"
     height="1.027172"
     width="1.021491"
     x="-.010746"
     y="-.013586">
    <feGaussianBlur
       stdDeviation=".33210518"
       id="feGaussianBlur17" />
  </filter>
  <linearGradient
     id="f"
     gradientUnits="userSpaceOnUse"
     x1="85.333977"
     x2="80.000641"
     xlink:href="#h"
     y1="95.999352"
     y2="13.332676" />
  <linearGradient
     id="g">
    <stop
       offset="0"
       id="stop21" />
    <stop
       offset="1"
       stop-opacity="0"
       id="stop23" />
  </linearGradient>
  <linearGradient
     id="h">
    <stop
       offset="0"
       stop-color="#eaf209"
       id="stop26" />
    <stop
       offset="1"
       stop-color="#c7c634"
       stop-opacity="0"
       id="stop28" />
  </linearGradient>
  <linearGradient
     id="i"
     gradientUnits="userSpaceOnUse"
     x1="71.809433"
     x2="72.415733"
     y1="30.338589"
     y2="76.767159"
     gradientTransform="matrix(-0.04960937,0,0,0.04960937,6.085448,-1.322884)">
    <stop
       offset="0"
       stop-color="#fffe63"
       id="stop31" />
    <stop
       offset="1"
       stop-color="#fff"
       stop-opacity="0"
       id="stop33" />
  </linearGradient>
  <radialGradient
     id="j"
     cx="61.745636"
     cy="81.787704"
     gradientTransform="matrix(-0.02979338,-6.8500221e-4,-6.8601325e-4,0.02983736,4.1287388,1.9837109)"
     gradientUnits="userSpaceOnUse"
     r="53.588345"
     xlink:href="#h" />
  <radialGradient
     id="k"
     cx="68.344757"
     cy="79.286057"
     gradientTransform="matrix(-0.04428817,0.00118529,7.9846876e-4,0.02983456,5.790949,0.02644671)"
     gradientUnits="userSpaceOnUse"
     r="53.588345">
    <stop
       offset="0"
       stop-color="#fcff0f"
       id="stop37" />
    <stop
       offset="1"
       stop-color="#db8900"
       id="stop39" />
  </radialGradient>
  <radialGradient
     id="l"
     cx="64.245117"
     cy="66.666397"
     gradientTransform="matrix(-0.04950967,0.00314352,8.7420491e-4,0.01376852,7.6889834,1.2950493)"
     gradientUnits="userSpaceOnUse"
     r="55.883793"
     xlink:href="#g" />
  <radialGradient
     id="m"
     cx="79.842957"
     cy="8.71136"
     gradientTransform="matrix(0.00213801,0.04956328,0.01342852,-5.7926629e-4,0.20517694,-1.6421038)"
     gradientUnits="userSpaceOnUse"
     r="55.883793"
     xlink:href="#g" />
  <radialGradient
     id="n"
     cx="86.40406"
     cy="355.98929"
     gradientTransform="matrix(0.02485514,0.01961359,0.01280352,-0.01622515,0.24066332,7.5020191)"
     gradientUnits="userSpaceOnUse"
     r="55.883793"
     xlink:href="#g" />
  <g
     id="g4231"
     transform="matrix(1.0040743,0,0,1.0040743,-0.01849884,-0.04846125)">
    <path
       d="m 2.9341871,0.30655033 c 0.049011,0.001424 0.093945,0.0204913 0.1342998,0.0471916 a 0.13076449,0.13076449 0 0 1 0.039438,0.0257496 L 4.0649665,1.2969993 a 0.13076449,0.13076449 0 0 1 0.00106,9.573e-4 c 0.015267,0.014946 0.027795,0.032476 0.037045,0.051786 l -0.025371,-0.035896 c 0.068513,0.06861 0.131811,0.1682882 0.131811,0.2923391 0,0.1274272 -0.060498,0.2313443 -0.1256847,0.308899 a 0.13076449,0.13076449 0 0 1 -0.00766,0.00833 l 0.00737,-0.00814 c -0.00546,0.00648 -0.011482,0.013049 -0.018188,0.019527 a 0.13076449,0.13076449 0 0 1 -9.576e-4,8.656e-4 L 4.064102,1.9358585 3.1100279,2.8454212 c -2e-7,2e-7 -5.581e-4,3.724e-4 -5.743e-4,3.822e-4 a 0.13076449,0.13076449 0 0 1 -0.00124,0.00124 c -6.416e-4,6.2e-4 -0.00155,5.366e-4 -0.0022,0.00115 -0.00373,0.00256 -0.010795,0.00735 -0.020485,0.013975 0.00835,-0.00587 0.012637,-0.00892 0.018188,-0.012827 -0.079296,0.073602 -0.188715,0.088837 -0.2791276,0.050545 -0.091898,-0.038933 -0.1596,-0.1297656 -0.1595689,-0.240839 l 0,-0.5226492 -1.5552165,0 c -0.00335,0.00186 -0.00745,0.00467 -0.00785,0.00508 -4.411e-4,4.166e-4 -0.00323,0.00452 -0.00508,0.00785 l 0,1.279629 0,0.014263 c -2.59e-5,0.1436259 -0.11787171,0.2614707 -0.26150677,0.261507 l -0.52274465,0 C 0.16897881,3.7046912 0.0511325,3.5868464 0.05109721,3.4432113 l 0,-1.0454898 0,-9.8e-5 c 5.88e-6,-0.02357 0.0028279,-0.025238 0.0055519,-0.035035 -0.0025338,-0.029037 -0.0055073,-0.060347 -0.0055519,-0.098212 a 0.13076449,0.13076449 0 0 1 0,-1.911e-4 l 0,-9.8e-5 a 0.13076449,0.13076449 0 0 1 0,-9.8e-5 l 9.802e-5,-0.1277912 c 0,-0.3441669 0.06943195,-0.6136188 0.25069959,-0.7948862 C 0.48316245,1.1600451 0.75261389,1.0906133 1.0967811,1.0906133 l 0.5227422,0 1.0454899,2.891e-4 0,-0.52302748 C 2.664988,0.42129699 2.7877714,0.30228545 2.9341871,0.30655033 Z"
       id="path46"
       style="fill:#f3b7d9;fill-opacity:1;stroke:#e601b4;stroke-width:0.06534711;stroke-linecap:round;stroke-linejoin:round;stroke-miterlimit:4;stroke-dasharray:none;stroke-opacity:1"
       inkscape:connector-curvature="0" />
  </g>
</svg>
