<?xml version="1.0" encoding="UTF-8" standalone="no"?>
<svg
   xmlns:dc="http://purl.org/dc/elements/1.1/"
   xmlns:cc="http://creativecommons.org/ns#"
   xmlns:rdf="http://www.w3.org/1999/02/22-rdf-syntax-ns#"
   xmlns:svg="http://www.w3.org/2000/svg"
   xmlns="http://www.w3.org/2000/svg"
   xmlns:sodipodi="http://sodipodi.sourceforge.net/DTD/sodipodi-0.dtd"
   xmlns:inkscape="http://www.inkscape.org/namespaces/inkscape"
   height="16"
   viewBox="0 0 16 16"
   width="16"
   version="1.1"
   id="svg26"
   sodipodi:docname="sc_symbolshapes.forbidden.svg"
   inkscape:version="0.92.4 (5da689c313, 2019-01-14)">
  <metadata
     id="metadata32">
    <rdf:RDF>
      <cc:Work
         rdf:about="">
        <dc:format>image/svg+xml</dc:format>
        <dc:type
           rdf:resource="http://purl.org/dc/dcmitype/StillImage" />
        <dc:title></dc:title>
      </cc:Work>
    </rdf:RDF>
  </metadata>
  <defs
     id="defs30" />
  <sodipodi:namedview
     pagecolor="#ffffff"
     bordercolor="#666666"
     borderopacity="1"
     objecttolerance="10"
     gridtolerance="10"
     guidetolerance="10"
     inkscape:pageopacity="0"
     inkscape:pageshadow="2"
     inkscape:window-width="1600"
     inkscape:window-height="836"
     id="namedview28"
     showgrid="true"
     inkscape:zoom="20.85965"
     inkscape:cx="17.90046"
     inkscape:cy="6.8811189"
     inkscape:window-x="0"
     inkscape:window-y="27"
     inkscape:window-maximized="1"
     inkscape:current-layer="svg26">
    <inkscape:grid
       type="xygrid"
       id="grid823"
       spacingx="0.5"
       spacingy="0.5"
       empspacing="2" />
  </sodipodi:namedview>
  <linearGradient
     id="a"
     gradientUnits="userSpaceOnUse"
     x1="64"
     x2="64"
     y1="128"
     y2="0"
     gradientTransform="scale(0.125)">
    <stop
       offset="0"
       stop-color="#7c9fcf"
       id="stop2" />
    <stop
       offset=".5"
       stop-color="#7c9ece"
       id="stop4" />
    <stop
       offset="1"
       stop-color="#7b9dcf"
       id="stop6" />
  </linearGradient>
  <linearGradient
     id="b"
     gradientUnits="userSpaceOnUse"
     x1="72"
     x2="72"
     y1="128"
     y2="0"
     gradientTransform="matrix(0.125,0,0,0.125,20.256591,-0.3291015)">
    <stop
       offset="0"
       stop-color="#fff"
       id="stop9" />
    <stop
       offset=".59375"
       stop-color="#fff"
       id="stop11" />
    <stop
       offset=".84375"
       stop-color="#f1f1f1"
       id="stop13" />
    <stop
       offset=".90625"
       stop-color="#eaeaea"
       id="stop15" />
    <stop
       offset="1"
       stop-color="#dfdfdf"
       id="stop17" />
  </linearGradient>
  <path
     style="opacity:1;fill:#f0e3ec;fill-opacity:1;stroke:#e602b4;stroke-width:1;stroke-linecap:round;stroke-linejoin:round;stroke-miterlimit:4;stroke-dasharray:none;stroke-opacity:1"
     d="M 8 1.5 A 6.5 6.5 0 0 0 1.5 8 A 6.5 6.5 0 0 0 8 14.5 A 6.5 6.5 0 0 0 14.5 8 A 6.5 6.5 0 0 0 8 1.5 z M 8 4 A 4 4 0 0 1 12 8 A 4 4 0 0 1 11.441406 10.027344 L 5.9726562 4.5585938 A 4 4 0 0 1 8 4 z M 4.5585938 5.9726562 L 10.027344 11.441406 A 4 4 0 0 1 8 12 A 4 4 0 0 1 4 8 A 4 4 0 0 1 4.5585938 5.9726562 z "
     id="path827" />
</svg>
