<?xml version="1.0" encoding="UTF-8" standalone="no"?>
<svg
   xmlns:dc="http://purl.org/dc/elements/1.1/"
   xmlns:cc="http://creativecommons.org/ns#"
   xmlns:rdf="http://www.w3.org/1999/02/22-rdf-syntax-ns#"
   xmlns:svg="http://www.w3.org/2000/svg"
   xmlns="http://www.w3.org/2000/svg"
   xmlns:sodipodi="http://sodipodi.sourceforge.net/DTD/sodipodi-0.dtd"
   xmlns:inkscape="http://www.inkscape.org/namespaces/inkscape"
   height="16"
   width="16"
   version="1.1"
   id="svg36"
   sodipodi:docname="sc_wrapoff.svg"
   inkscape:version="0.92.4 (5da689c313, 2019-01-14)"
   inkscape:export-filename="/home/ing/Documents/PROJECT SRIKANDI/3_272 (mba alita)/REVISI_SC/sc_wrapoff.png"
   inkscape:export-xdpi="96"
   inkscape:export-ydpi="96">
  <metadata
     id="metadata42">
    <rdf:RDF>
      <cc:Work
         rdf:about="">
        <dc:format>image/svg+xml</dc:format>
        <dc:type
           rdf:resource="http://purl.org/dc/dcmitype/StillImage" />
        <dc:title />
      </cc:Work>
    </rdf:RDF>
  </metadata>
  <defs
     id="defs40" />
  <sodipodi:namedview
     pagecolor="#ffffff"
     bordercolor="#666666"
     borderopacity="1"
     objecttolerance="10"
     gridtolerance="10"
     guidetolerance="10"
     inkscape:pageopacity="0"
     inkscape:pageshadow="2"
     inkscape:window-width="1600"
     inkscape:window-height="836"
     id="namedview38"
     showgrid="true"
     inkscape:zoom="29.5"
     inkscape:cx="10.853932"
     inkscape:cy="7.722871"
     inkscape:window-x="0"
     inkscape:window-y="27"
     inkscape:window-maximized="1"
     inkscape:current-layer="svg36">
    <inkscape:grid
       type="xygrid"
       id="grid827"
       spacingx="0.5"
       spacingy="0.5"
       empspacing="2" />
  </sodipodi:namedview>
  <filter
     id="a">
    <feGaussianBlur
       stdDeviation="2.0786429"
       id="feGaussianBlur2" />
  </filter>
  <radialGradient
     id="b"
     cx="108"
     cy="128.54001"
     gradientTransform="matrix(0.125,0,0,0.12495816,-0.24999975,1.500377)"
     gradientUnits="userSpaceOnUse"
     r="139.55859">
    <stop
       offset="0"
       stop-color="#b7b8b9"
       id="stop5" />
    <stop
       offset=".18851049"
       stop-color="#ececec"
       id="stop7" />
    <stop
       offset=".25718147"
       stop-color="#fafafa"
       id="stop9" />
    <stop
       offset=".30111277"
       stop-color="#fff"
       id="stop11" />
    <stop
       offset=".5313"
       stop-color="#fafafa"
       id="stop13" />
    <stop
       offset=".8449"
       stop-color="#ebecec"
       id="stop15" />
    <stop
       offset="1"
       stop-color="#e1e2e3"
       id="stop17" />
  </radialGradient>
  <path
     style="fill:#f3b7d9;stroke:#e602b4;stroke-width:1;stroke-miterlimit:4;stroke-dasharray:none"
     inkscape:connector-curvature="0"
     id="path22"
     d="M 1,2.9964261 V 13.016949 C 1,14.5 1.5,15 3.0169492,15 H 12.966102 C 14.5,15 15,14.5 15,13 V 3.008411 C 15,1.5 14.5,1 13,1 H 2.9602606 C 1.5,1 1,1.5 1,2.9964261 Z"
     sodipodi:nodetypes="ccccccccc" />
  <path
     style="fill:#f0e3ec;stroke-width:0.125;fill-opacity:1"
     inkscape:connector-curvature="0"
     id="path24"
     d="M 2.125,2 C 2.056125,2 2,2.0561481 2,2.125 V 14 H 13.84375 C 13.989021,14.004438 14,13.799986 14,13.769531 V 2.125 C 14,2.0561481 13.944,2 13.875,2 Z" />
  <path
     style="fill:#e602b4;fill-opacity:1;stroke:#e602b4;stroke-width:1;stroke-miterlimit:4;stroke-dasharray:none;stroke-opacity:1"
     inkscape:transform-center-x="-0.127413"
     inkscape:transform-center-y="-0.24122452"
     d="M 9.7105004,11.487989 C 7.9851572,12.182671 7.5320699,10.10344 7.5320699,10.10344 c 0,0 -0.9172255,2.256017 -2.433258,0.923187 -1.5160326,-1.3328292 0.7102425,-2.3998775 0.7102425,-2.3998775 0,0 -2.5650869,-0.1994228 -1.6743485,-1.9174279 0.8907385,-1.7180058 2.6173855,-0.098656 2.6173855,-0.098656 0,0 -0.7068845,-2.3285946 1.3984543,-2.1082229 2.1053393,0.2203717 0.9073896,2.3389046 0.9073896,2.3389046 0,0 2.1785697,-1.1208124 2.5386417,0.6144751 C 11.956649,9.1911102 9.5399894,9 9.5399894,9 c 0,0 1.8958546,1.793308 0.170511,2.487989 z"
     id="path889"
     inkscape:connector-curvature="0"
     sodipodi:nodetypes="zczczczczcz" />
  <path
     style="fill:#e602b4;stroke:#9d3a9b;stroke-width:1;stroke-linecap:round;stroke-linejoin:miter;stroke-miterlimit:4;stroke-dasharray:none;stroke-opacity:1"
     d="m 2.5,3 h 11"
     id="path835"
     inkscape:connector-curvature="0" />
  <path
     inkscape:connector-curvature="0"
     id="path837"
     d="m 2.5,13 h 11"
     style="fill:#e602b4;stroke:#9d3a9b;stroke-width:1;stroke-linecap:round;stroke-linejoin:miter;stroke-miterlimit:4;stroke-dasharray:none;stroke-opacity:1" />
  <path
     sodipodi:nodetypes="zczczczczcz"
     inkscape:connector-curvature="0"
     id="path836"
     d="M 8.8654362,9.9791898 C 7.8992443,10.36821 7.6455153,9.2038416 7.6455153,9.2038416 c 0,0 -0.5136464,1.2633694 -1.3626247,0.5169844 -0.8489784,-0.7463838 0.3977359,-1.3439312 0.3977359,-1.3439312 0,0 -1.4364489,-0.1116768 -0.9376353,-1.0737598 0.4988136,-0.9620833 1.465736,-0.055247 1.465736,-0.055247 0,0 -0.3958553,-1.3040132 0.7831346,-1.180605 C 9.1708515,6.1906911 8.5,7.3770697 8.5,7.3770697 c 0,0 1.2199994,-0.6276551 1.4216394,0.3441061 0.2016406,0.9717613 -1.1516889,0.8647395 -1.1516889,0.8647395 0,0 1.0616789,1.0042533 0.095486,1.3932745 z"
     inkscape:transform-center-y="-0.13508561"
     inkscape:transform-center-x="-0.071351346"
     style="fill:#f3b7d9;fill-opacity:1;stroke:#f3b7d9;stroke-width:1;stroke-miterlimit:4;stroke-dasharray:none;stroke-opacity:1" />
  <path
     inkscape:connector-curvature="0"
     style="fill:#9d3a9b;fill-opacity:1;stroke:none;stroke-width:0.30000001;stroke-miterlimit:4;stroke-dasharray:none;stroke-opacity:1"
     d="M 8.9772531,8.058096 A 1.1865013,1.1865013 0 0 1 7.7907521,9.244597 1.1865013,1.1865013 0 0 1 6.6042511,8.058096 1.1865013,1.1865013 0 0 1 7.7907521,6.8715948 1.1865013,1.1865013 0 0 1 8.9772531,8.058096 Z"
     id="path907" />
</svg>
