<?xml version="1.0" encoding="UTF-8"?>
<svg xmlns="http://www.w3.org/2000/svg" xmlns:xlink="http://www.w3.org/1999/xlink" width="24px" height="24px" viewBox="0 0 24 24" version="1.1">
<g id="surface1">
<path style="fill-rule:nonzero;fill:rgb(95.294118%,71.764708%,85.09804%);fill-opacity:1;stroke-width:0.126922;stroke-linecap:butt;stroke-linejoin:miter;stroke:rgb(90.196079%,0.784314%,70.588237%);stroke-opacity:1;stroke-miterlimit:4;" d="M 2.0581 0.219797 C 2.225532 0.219797 2.381939 0.243224 2.528011 0.289388 C 2.677528 0.332107 2.802241 0.374826 2.902148 0.417546 C 3.002056 0.460265 3.078537 0.481624 3.131592 0.481624 C 3.18189 0.481624 3.224609 0.46371 3.259749 0.42857 C 3.295578 0.392741 3.331407 0.328662 3.366547 0.236334 L 3.511241 0.236334 L 3.511241 1.486214 L 3.377572 1.486214 C 3.285243 1.282954 3.199116 1.126546 3.121256 1.016303 C 3.046153 0.901926 2.951758 0.795128 2.83807 0.69522 C 2.606559 0.496094 2.369537 0.396186 2.127691 0.396186 C 1.803163 0.396186 1.557183 0.542258 1.389751 0.834402 C 1.226454 1.123101 1.144461 1.546848 1.144461 2.105642 C 1.144461 2.743674 1.260216 3.21014 1.491726 3.505729 C 1.662603 3.726216 1.908583 3.837148 2.228977 3.837148 C 2.406744 3.837148 2.536968 3.806831 2.618962 3.746197 C 2.700955 3.682118 2.741607 3.582211 2.741607 3.447163 L 2.741607 2.886301 C 2.741607 2.740229 2.707845 2.645833 2.640321 2.603114 C 2.576242 2.556261 2.43017 2.525944 2.202105 2.512164 L 2.202105 2.378494 L 4.034896 2.378494 L 4.034896 2.512164 C 3.83508 2.533523 3.70899 2.572797 3.655246 2.629297 C 3.602192 2.686486 3.57532 2.811198 3.57532 3.003434 L 3.57532 3.682118 C 3.404443 3.782026 3.185335 3.861952 2.917996 3.922586 C 2.650656 3.98322 2.378494 4.013536 2.100819 4.013536 C 1.541336 4.013536 1.083827 3.840593 0.727604 3.494705 C 0.374826 3.146061 0.198437 2.695443 0.198437 2.143539 C 0.198437 1.595079 0.374826 1.136882 0.727604 0.770323 C 1.083827 0.403765 1.526866 0.219797 2.0581 0.219797 Z M 2.0581 0.219797 " transform="matrix(5.669291,0,0,5.669291,0.00000135166,0)"/>
</g>
</svg>
