<?xml version="1.0" encoding="UTF-8"?>
<svg xmlns="http://www.w3.org/2000/svg" xmlns:xlink="http://www.w3.org/1999/xlink" width="32px" height="32px" viewBox="0 0 32 32" version="1.1">
<g id="surface1">
<path style="fill-rule:nonzero;fill:rgb(95.294118%,71.764708%,85.09804%);fill-opacity:1;stroke-width:0.131763;stroke-linecap:butt;stroke-linejoin:miter;stroke:rgb(90.196079%,0.784314%,70.588237%);stroke-opacity:1;stroke-miterlimit:4;" d="M 3.51038 1.41025 C 3.489193 1.315165 3.473173 1.248503 3.462321 1.209745 C 3.451469 1.167371 3.431832 1.107426 3.40341 1.029911 C 3.374988 0.948779 3.344499 0.890902 3.312459 0.855762 C 3.28042 0.820105 3.233911 0.778247 3.172933 0.728638 C 3.112471 0.675928 3.042708 0.638721 2.96416 0.617533 C 2.885612 0.593245 2.789494 0.572058 2.675289 0.554488 C 2.561084 0.536401 2.430859 0.527616 2.284615 0.527616 C 2.148706 0.527616 2.057755 0.545703 2.011247 0.580843 C 1.965255 0.612366 1.942 0.677478 1.942 0.77618 L 1.942 2.002462 C 2.209684 2.002462 2.40037 1.947685 2.514575 1.838648 C 2.62878 1.725993 2.710946 1.517737 2.761072 1.214913 L 2.894914 1.214913 L 2.894914 3.001367 L 2.761072 3.001367 C 2.725415 2.694926 2.648417 2.483569 2.530595 2.367298 C 2.412773 2.251026 2.216402 2.189014 1.942 2.182296 L 1.942 3.413745 C 1.942 3.557923 1.977657 3.655074 2.04897 3.704167 C 2.123901 3.750159 2.284615 3.778581 2.530595 3.788916 L 2.530595 3.921208 L 0.603581 3.921208 L 0.603581 3.788916 C 0.803052 3.767729 0.931726 3.734139 0.989087 3.688664 C 1.045931 3.642672 1.074353 3.551205 1.074353 3.413745 L 1.074353 0.855762 C 1.074353 0.718302 1.042313 0.624768 0.978235 0.575159 C 0.914156 0.522449 0.789099 0.490926 0.603581 0.480074 L 0.603581 0.348299 L 3.639054 0.348299 L 3.639054 1.41025 Z M 3.51038 1.41025 " transform="matrix(7.559055,0,0,7.559055,0.00000180222,0)"/>
</g>
</svg>
