<?xml version="1.0" encoding="UTF-8"?>
<svg xmlns="http://www.w3.org/2000/svg" xmlns:xlink="http://www.w3.org/1999/xlink" width="24px" height="24px" viewBox="0 0 24 24" version="1.1">
<g id="surface1">
<path style="fill-rule:nonzero;fill:rgb(95.294118%,71.764708%,85.09804%);fill-opacity:1;stroke-width:0.131763;stroke-linecap:butt;stroke-linejoin:miter;stroke:rgb(90.196079%,0.784314%,70.588237%);stroke-opacity:1;stroke-miterlimit:4;" d="M 3.510552 1.410422 C 3.489193 1.315338 3.472656 1.248503 3.462321 1.209918 C 3.451297 1.167198 3.432004 1.107254 3.403065 1.030084 C 3.374816 0.948779 3.344499 0.890902 3.312115 0.855762 C 3.28042 0.820622 3.233567 0.777903 3.172933 0.728982 C 3.112299 0.675928 3.042708 0.638721 2.96416 0.617361 C 2.885612 0.593245 2.789149 0.571886 2.675461 0.553971 C 2.561084 0.536746 2.430859 0.527789 2.284098 0.527789 C 2.14905 0.527789 2.0581 0.545703 2.011247 0.580843 C 1.965082 0.612538 1.941656 0.677306 1.941656 0.776525 L 1.941656 2.00229 C 2.209684 2.00229 2.400542 1.947857 2.51492 1.838303 C 2.628608 1.725993 2.710601 1.517909 2.760899 1.214741 L 2.894569 1.214741 L 2.894569 3.001367 L 2.760899 3.001367 C 2.72507 2.694754 2.648589 2.483225 2.530767 2.36747 C 2.412945 2.251026 2.216574 2.189014 1.941656 2.182124 L 1.941656 3.413401 C 1.941656 3.558095 1.977485 3.655247 2.049143 3.704167 C 2.123557 3.750331 2.284098 3.778581 2.530767 3.788916 L 2.530767 3.921208 L 0.603581 3.921208 L 0.603581 3.788916 C 0.803396 3.767557 0.931554 3.734484 0.988742 3.688319 C 1.045931 3.642844 1.07487 3.551205 1.07487 3.413401 L 1.07487 0.855762 C 1.07487 0.717958 1.042486 0.62494 0.978407 0.575331 C 0.913639 0.522277 0.788927 0.490582 0.603581 0.480246 L 0.603581 0.347955 L 3.63871 0.347955 L 3.63871 1.410422 Z M 3.510552 1.410422 " transform="matrix(5.669291,0,0,5.669291,0.00000135166,0)"/>
</g>
</svg>
