<?xml version="1.0" encoding="UTF-8"?>
<svg xmlns="http://www.w3.org/2000/svg" xmlns:xlink="http://www.w3.org/1999/xlink" width="24px" height="24px" viewBox="0 0 24 24" version="1.1">
<g id="surface1">
<path style="fill-rule:nonzero;fill:rgb(95.294118%,71.764708%,85.09804%);fill-opacity:1;stroke-width:0.132292;stroke-linecap:butt;stroke-linejoin:miter;stroke:rgb(90.196079%,0.784314%,70.588237%);stroke-opacity:1;stroke-miterlimit:4;" d="M 4.026628 0.37207 L 4.026628 0.457509 C 3.901915 0.478868 3.768245 0.542947 3.625618 0.650434 L 2.02296 1.857596 L 2.952447 3.476102 C 3.02755 3.600814 3.089562 3.677295 3.13986 3.706234 C 3.192914 3.734484 3.303847 3.75791 3.471278 3.775825 L 3.471278 3.861263 L 2.0016 3.861263 L 2.0016 3.775825 C 2.073258 3.764801 2.124935 3.759288 2.15663 3.759288 C 2.320616 3.745508 2.402609 3.698655 2.402609 3.620796 C 2.402609 3.513998 2.335086 3.344499 2.199349 3.112988 L 1.553049 2.001601 L 1.189936 3.332097 C 1.160997 3.428559 1.147217 3.497461 1.147217 3.54018 C 1.147217 3.622174 1.168576 3.677295 1.211295 3.706234 C 1.25746 3.734484 1.364258 3.75791 1.531689 3.775825 L 1.531689 3.861263 L 0.206706 3.861263 L 0.206706 3.775825 C 0.363113 3.750331 0.463021 3.718636 0.50574 3.679362 C 0.551904 3.640088 0.598757 3.54018 0.644922 3.380328 L 1.302246 1.019059 C 1.340831 0.879877 1.360813 0.769634 1.360813 0.687641 C 1.360813 0.609093 1.333941 0.556038 1.280886 0.5271 C 1.227143 0.49885 1.1169 0.475423 0.949468 0.457509 L 0.949468 0.37207 L 2.408122 0.37207 L 2.408122 0.457509 C 2.251025 0.468533 2.129758 0.504362 2.04432 0.564996 C 1.962326 0.62494 1.90376 0.721403 1.867931 0.853006 L 1.584744 1.88929 L 2.397097 1.323606 C 2.632053 1.159619 2.819466 1.010102 2.957959 0.874365 C 3.097141 0.739318 3.166732 0.63941 3.166732 0.575331 C 3.166732 0.518142 3.106098 0.48438 2.984831 0.474045 C 2.97794 0.474045 2.956581 0.471978 2.920752 0.468533 C 2.888368 0.465088 2.862185 0.461643 2.840826 0.457509 L 2.840826 0.37207 Z M 4.026628 0.37207 " transform="matrix(5.669291,0,0,5.669291,0.00000135166,0)"/>
</g>
</svg>
