<?xml version="1.0" encoding="UTF-8"?>
<svg xmlns="http://www.w3.org/2000/svg" xmlns:xlink="http://www.w3.org/1999/xlink" width="32px" height="32px" viewBox="0 0 32 32" version="1.1">
<g id="surface1">
<path style=" stroke:none;fill-rule:nonzero;fill:rgb(33.333334%,34.117648%,32.549021%);fill-opacity:1;" d="M 0.515625 4 L 4.945312 12.847656 C 5.273438 13.476562 5.613281 13.980469 5.957031 14.367188 C 6.300781 14.753906 6.714844 15.058594 7.203125 15.285156 C 6.527344 15.527344 5.976562 15.882812 5.546875 16.351562 C 5.132812 16.800781 4.757812 17.382812 4.429688 18.089844 L 0 28 L 3.742188 28 C 4.230469 28 4.652344 27.960938 5.011719 27.878906 C 5.371094 27.796875 5.675781 27.675781 5.933594 27.515625 C 6.207031 27.339844 6.445312 27.121094 6.644531 26.863281 C 6.84375 26.589844 7.027344 26.277344 7.183594 25.921875 L 9.675781 19.46875 C 9.90625 18.890625 10.214844 18.460938 10.601562 18.1875 C 10.988281 17.914062 11.433594 17.777344 11.933594 17.777344 L 13.332031 17.777344 L 13.332031 28 L 18.625 28 L 18.625 17.777344 L 20.023438 17.777344 C 20.523438 17.777344 20.96875 17.914062 21.355469 18.1875 C 21.757812 18.460938 22.066406 18.882812 22.28125 19.445312 L 24.796875 25.945312 C 25.113281 26.652344 25.523438 27.175781 26.023438 27.515625 C 26.523438 27.835938 27.25 28 28.195312 28 L 32 28 L 27.546875 18.089844 C 27.21875 17.382812 26.839844 16.800781 26.410156 16.351562 C 25.996094 15.882812 25.449219 15.527344 24.773438 15.285156 C 25.261719 15.058594 25.679688 14.753906 26.023438 14.367188 C 26.367188 13.980469 26.703125 13.476562 27.03125 12.847656 L 31.460938 4 L 27.160156 4 C 26.660156 4 26.199219 4.144531 25.785156 4.433594 C 25.382812 4.722656 25.058594 5.121094 24.816406 5.621094 L 21.804688 12.339844 C 21.589844 12.839844 21.316406 13.207031 20.988281 13.449219 C 20.660156 13.675781 20.21875 13.789062 19.675781 13.789062 L 18.625 13.789062 L 18.625 4 L 13.332031 4 L 13.332031 13.789062 L 12.214844 13.789062 C 11.671875 13.789062 11.246094 13.675781 10.945312 13.449219 C 10.644531 13.207031 10.382812 12.839844 10.152344 12.339844 L 7.160156 5.59375 C 6.917969 5.09375 6.585938 4.707031 6.171875 4.433594 C 5.769531 4.144531 5.316406 4 4.816406 4 Z M 0.515625 4 "/>
</g>
</svg>
