<?xml version="1.0" encoding="UTF-8"?>
<svg xmlns="http://www.w3.org/2000/svg" xmlns:xlink="http://www.w3.org/1999/xlink" width="24px" height="24px" viewBox="0 0 24 24" version="1.1">
<g id="surface1">
<path style=" stroke:none;fill-rule:nonzero;fill:rgb(33.333334%,34.117648%,32.549021%);fill-opacity:1;" d="M 0.386719 3 L 3.707031 9.636719 C 3.957031 10.105469 4.210938 10.484375 4.46875 10.777344 C 4.726562 11.066406 5.035156 11.292969 5.402344 11.464844 C 4.898438 11.644531 4.484375 11.914062 4.160156 12.261719 C 3.847656 12.601562 3.570312 13.035156 3.324219 13.566406 L 0 21 L 2.808594 21 C 3.171875 21 3.488281 20.96875 3.757812 20.910156 C 4.027344 20.847656 4.257812 20.757812 4.449219 20.636719 C 4.65625 20.503906 4.832031 20.339844 4.984375 20.148438 C 5.132812 19.941406 5.269531 19.707031 5.386719 19.441406 L 7.257812 14.601562 C 7.429688 14.167969 7.660156 13.847656 7.949219 13.640625 C 8.242188 13.433594 8.574219 13.332031 8.949219 13.332031 L 10 13.332031 L 10 21 L 13.96875 21 L 13.96875 13.332031 L 15.019531 13.332031 C 15.394531 13.332031 15.726562 13.433594 16.015625 13.640625 C 16.316406 13.847656 16.550781 14.160156 16.710938 14.582031 L 18.597656 19.457031 C 18.835938 19.992188 19.140625 20.382812 19.519531 20.636719 C 19.894531 20.878906 20.4375 21 21.144531 21 L 24 21 L 20.660156 13.566406 C 20.414062 13.035156 20.128906 12.601562 19.808594 12.261719 C 19.496094 11.914062 19.085938 11.644531 18.582031 11.464844 C 18.945312 11.292969 19.257812 11.066406 19.519531 10.777344 C 19.777344 10.484375 20.027344 10.105469 20.273438 9.636719 L 23.597656 3 L 20.371094 3 C 19.992188 3 19.652344 3.109375 19.339844 3.324219 C 19.039062 3.542969 18.796875 3.839844 18.613281 4.214844 L 16.355469 9.253906 C 16.191406 9.628906 15.988281 9.90625 15.742188 10.085938 C 15.492188 10.257812 15.164062 10.339844 14.757812 10.339844 L 13.96875 10.339844 L 13.96875 3 L 10 3 L 10 10.339844 L 9.160156 10.339844 C 8.753906 10.34375 8.433594 10.257812 8.207031 10.085938 C 7.984375 9.90625 7.785156 9.628906 7.613281 9.253906 L 5.371094 4.195312 C 5.1875 3.820312 4.941406 3.53125 4.628906 3.324219 C 4.328125 3.109375 3.988281 3 3.613281 3 Z M 0.386719 3 "/>
</g>
</svg>
