<?xml version="1.0" encoding="UTF-8"?>
<svg xmlns="http://www.w3.org/2000/svg" xmlns:xlink="http://www.w3.org/1999/xlink" width="24px" height="24px" viewBox="0 0 24 24" version="1.1">
<g id="surface1">
<path style=" stroke:none;fill-rule:nonzero;fill:rgb(33.333334%,34.117648%,32.549021%);fill-opacity:1;" d="M 4.5 3 L 4.5 8.945312 C 4.5 10.304688 4.796875 11.382812 5.394531 12.167969 C 5.988281 12.953125 6.804688 13.503906 7.835938 13.824219 C 8.882812 14.128906 10.101562 14.234375 11.492188 14.136719 C 12.898438 14.039062 14.898438 13.789062 16.5 13.398438 L 16.5 18 L 19.5 18 L 19.5 3 L 16.5 3 L 16.5 11.136719 C 15.1875 11.429688 13.535156 11.617188 12.527344 11.703125 C 11.535156 11.777344 10.203125 11.722656 9.527344 11.539062 C 8.863281 11.34375 8.359375 11 8.015625 10.507812 C 7.671875 10.003906 7.5 9.324219 7.5 8.464844 L 7.5 3 Z M 3 19.5 L 3 22.5 L 21 22.5 L 21 19.5 Z M 3 19.5 "/>
</g>
</svg>
