<?xml version="1.0" encoding="UTF-8"?>
<svg xmlns="http://www.w3.org/2000/svg" xmlns:xlink="http://www.w3.org/1999/xlink" width="32px" height="32px" viewBox="0 0 32 32" version="1.1">
<g id="surface1">
<path style="fill-rule:nonzero;fill:rgb(95.294118%,71.764708%,85.09804%);fill-opacity:1;stroke-width:0.529167;stroke-linecap:round;stroke-linejoin:round;stroke:rgb(90.196079%,0.392157%,70.588237%);stroke-opacity:1;stroke-miterlimit:4;" d="M 20.628613 2.527839 C 21.711751 2.527839 23.038802 2.701472 24.605632 3.044603 C 26.2014 3.3836 27.127442 3.557233 27.383757 3.557233 C 28.152702 3.557233 28.694271 3.243041 29.008464 2.614655 L 29.905567 2.614655 L 28.322201 11.122663 L 27.553255 10.990372 C 27.127442 6.3767 24.948763 4.069864 21.013086 4.069864 C 18.106803 4.069864 15.584993 5.165404 13.45179 7.360619 C 11.769205 9.096947 10.442154 11.192943 9.474771 13.640339 C 8.536327 16.062931 8.065038 18.5434 8.065038 21.077612 C 8.065038 23.843335 8.718228 25.993074 10.028743 27.530965 C 11.343391 29.07299 13.178938 29.841935 15.543652 29.841935 C 17.284114 29.841935 18.863346 29.469865 20.289616 28.729859 C 21.74069 27.989852 23.435677 26.679338 25.374577 24.798315 L 26.102181 25.397762 C 24.163281 27.64672 22.282259 29.271428 20.459114 30.267749 C 18.63597 31.264071 16.62679 31.764299 14.431575 31.764299 C 11.157356 31.764299 8.47845 30.722502 6.39899 28.643042 C 4.31953 26.563582 3.277733 23.884676 3.277733 20.610457 C 3.277733 17.501603 4.075617 14.553979 5.671386 11.763451 C 7.296093 8.96879 9.445832 6.732233 12.124739 5.049649 C 14.832584 3.371198 17.668587 2.527839 20.628613 2.527839 Z M 20.628613 2.527839 " transform="matrix(0.944882,0,0,0.944882,1.15293,-0.263509)"/>
</g>
</svg>
