<?xml version="1.0" encoding="UTF-8" standalone="no"?>
<svg
   xmlns:dc="http://purl.org/dc/elements/1.1/"
   xmlns:cc="http://creativecommons.org/ns#"
   xmlns:rdf="http://www.w3.org/1999/02/22-rdf-syntax-ns#"
   xmlns:svg="http://www.w3.org/2000/svg"
   xmlns="http://www.w3.org/2000/svg"
   xmlns:sodipodi="http://sodipodi.sourceforge.net/DTD/sodipodi-0.dtd"
   xmlns:inkscape="http://www.inkscape.org/namespaces/inkscape"
   height="16"
   viewBox="0 0 4.2333333 4.2333335"
   width="16"
   id="svg2"
   version="1.1"
   inkscape:version="0.91 r13725"
   sodipodi:docname="sc_italic.svg"
   inkscape:export-filename="/home/tamara/Desktop/IKON/5_258 (tamara)/ca/sc_italic.png"
   inkscape:export-xdpi="90"
   inkscape:export-ydpi="90">
  <metadata
     id="metadata24">
    <rdf:RDF>
      <cc:Work
         rdf:about="">
        <dc:format>image/svg+xml</dc:format>
        <dc:type
           rdf:resource="http://purl.org/dc/dcmitype/StillImage" />
      </cc:Work>
    </rdf:RDF>
  </metadata>
  <defs
     id="defs22" />
  <sodipodi:namedview
     pagecolor="#ffffff"
     bordercolor="#666666"
     borderopacity="1"
     objecttolerance="10"
     gridtolerance="10"
     guidetolerance="10"
     inkscape:pageopacity="0"
     inkscape:pageshadow="2"
     inkscape:window-width="1366"
     inkscape:window-height="718"
     id="namedview20"
     showgrid="true"
     inkscape:zoom="14.75"
     inkscape:cx="-11.79661"
     inkscape:cy="8"
     inkscape:window-x="0"
     inkscape:window-y="0"
     inkscape:window-maximized="1"
     inkscape:current-layer="svg2">
    <inkscape:grid
       type="xygrid"
       id="grid8018" />
  </sodipodi:namedview>
  <linearGradient
     id="a"
     gradientUnits="userSpaceOnUse"
     x1="15.626692"
     x2="16.847849"
     y1="31.245296"
     y2="3.158661">
    <stop
       offset="0"
       stop-color="#555"
       id="stop5" />
    <stop
       offset="1"
       id="stop7" />
  </linearGradient>
  <linearGradient
     id="b"
     gradientUnits="userSpaceOnUse"
     x1="4.205945"
     x2="28.765684"
     y1="11.532629"
     y2="11.532629">
    <stop
       offset="0"
       stop-color="#3b3e22"
       id="stop10" />
    <stop
       offset="1"
       stop-color="#454545"
       stop-opacity="0"
       id="stop12" />
  </linearGradient>
  <g
     transform="matrix(0.125,0,0,0.125,0.15252274,-0.03486003)"
     id="g14"
     style="fill:#f3b7d9;fill-opacity:1;stroke:#e601b4;stroke-width:0.5291667;stroke-linecap:round;stroke-linejoin:round;stroke-miterlimit:4;stroke-dasharray:none;stroke-opacity:1"
     inkscape:export-filename="/home/tamara/Desktop/IKON/5_258 (tamara)/ca/g14.png"
     inkscape:export-xdpi="90"
     inkscape:export-ydpi="90">
    <path
       d="m 20.63039,2.5297742 q 1.62414,0 3.974869,0.5128863 2.39347,0.5128864 2.778135,0.5128864 1.153994,0 1.62414,-0.9402917 l 0.897551,0 -1.581399,8.5053658 -0.76933,-0.128222 q -0.641108,-6.9239657 -6.539301,-6.9239657 -4.359535,0 -7.565075,3.291021 -2.521691,2.6071724 -3.974869,6.2828577 -1.4104376,3.632946 -1.4104376,7.436853 0,4.145832 1.9660646,6.45382 1.966064,2.307989 5.513529,2.307989 2.607172,0 4.744199,-1.111254 2.179767,-1.111254 5.086123,-3.932129 l 0.726589,0.598368 q -2.906356,3.376502 -5.64175,4.87242 -2.735394,1.495919 -6.026415,1.495919 -4.9151615,0 -8.0352203,-3.120059 -3.1200588,-3.120059 -3.1200588,-8.03522 0,-4.658718 2.3934697,-8.84729 Q 8.107414,7.5731569 12.125024,5.0514655 16.185374,2.5297742 20.63039,2.5297742 Z"
       id="path16"
       style="fill:#f3b7d9;fill-opacity:1;stroke:#e601b4;stroke-width:0.5291667;stroke-linecap:round;stroke-linejoin:round;stroke-miterlimit:4;stroke-dasharray:none;stroke-opacity:1"
       inkscape:connector-curvature="0" />
  </g>
</svg>
