<?xml version="1.0" encoding="UTF-8"?>
<svg xmlns="http://www.w3.org/2000/svg" xmlns:xlink="http://www.w3.org/1999/xlink" width="32px" height="32px" viewBox="0 0 32 32" version="1.1">
<g id="surface1">
<path style="fill-rule:nonzero;fill:rgb(95.294118%,71.764708%,85.09804%);fill-opacity:1;stroke-width:0.126922;stroke-linecap:butt;stroke-linejoin:miter;stroke:rgb(90.196079%,0.784314%,70.588237%);stroke-opacity:1;stroke-miterlimit:4;" d="M 2.057755 0.220142 C 2.225187 0.220142 2.381767 0.243396 2.528011 0.289388 C 2.677873 0.332279 2.802413 0.375171 2.902148 0.417546 C 3.001884 0.460437 3.078365 0.481624 3.131592 0.481624 C 3.181718 0.481624 3.224609 0.464054 3.259749 0.428398 C 3.295406 0.392741 3.331063 0.328662 3.36672 0.236161 L 3.510897 0.236161 L 3.510897 1.486214 L 3.377572 1.486214 C 3.285071 1.283126 3.199288 1.126546 3.121256 1.015959 C 3.046326 0.902271 2.951758 0.7953 2.83807 0.695565 C 2.606559 0.496094 2.369364 0.396358 2.127519 0.396358 C 1.802991 0.396358 1.557528 0.542603 1.390096 0.834574 C 1.226282 1.122929 1.144116 1.546676 1.144116 2.105815 C 1.144116 2.743502 1.259871 3.21014 1.491382 3.505729 C 1.662431 3.726388 1.908411 3.836975 2.228804 3.836975 C 2.407088 3.836975 2.536796 3.806486 2.618962 3.746025 C 2.70061 3.681946 2.741951 3.582211 2.741951 3.446818 L 2.741951 2.886129 C 2.741951 2.739885 2.707845 2.645833 2.640149 2.602942 C 2.57607 2.556433 2.430343 2.526461 2.201933 2.511992 L 2.201933 2.378666 L 4.034896 2.378666 L 4.034896 2.511992 C 3.835425 2.533179 3.708818 2.572453 3.655074 2.629297 C 3.601847 2.686658 3.574976 2.811198 3.574976 3.003434 L 3.574976 3.681946 C 3.404443 3.781682 3.185335 3.86178 2.918168 3.922241 C 2.651001 3.98322 2.378666 4.013192 2.100647 4.013192 C 1.541508 4.013192 1.083655 3.840593 0.727604 3.494877 C 0.375171 3.146061 0.198437 2.695443 0.198437 2.143539 C 0.198437 1.594735 0.375171 1.137398 0.727604 0.770496 C 1.083655 0.403593 1.527038 0.220142 2.057755 0.220142 Z M 2.057755 0.220142 " transform="matrix(7.559055,0,0,7.559055,0.00000180222,0)"/>
</g>
</svg>
