<?xml version="1.0" encoding="UTF-8" standalone="no"?>
<svg
   xmlns:dc="http://purl.org/dc/elements/1.1/"
   xmlns:cc="http://creativecommons.org/ns#"
   xmlns:rdf="http://www.w3.org/1999/02/22-rdf-syntax-ns#"
   xmlns:svg="http://www.w3.org/2000/svg"
   xmlns="http://www.w3.org/2000/svg"
   xmlns:sodipodi="http://sodipodi.sourceforge.net/DTD/sodipodi-0.dtd"
   xmlns:inkscape="http://www.inkscape.org/namespaces/inkscape"
   height="24"
   viewBox="0 0 6.3499999 6.3500002"
   width="24"
   id="svg2"
   version="1.1"
   inkscape:version="0.91 r13725"
   sodipodi:docname="lc_underline.svg"
   inkscape:export-filename="/home/tamara/Desktop/IKON/5_258 (tamara)/ca/lc_underline.png"
   inkscape:export-xdpi="90"
   inkscape:export-ydpi="90">
  <metadata
     id="metadata26">
    <rdf:RDF>
      <cc:Work
         rdf:about="">
        <dc:format>image/svg+xml</dc:format>
        <dc:type
           rdf:resource="http://purl.org/dc/dcmitype/StillImage" />
      </cc:Work>
    </rdf:RDF>
  </metadata>
  <defs
     id="defs24" />
  <sodipodi:namedview
     pagecolor="#ffffff"
     bordercolor="#666666"
     borderopacity="1"
     objecttolerance="10"
     gridtolerance="10"
     guidetolerance="10"
     inkscape:pageopacity="0"
     inkscape:pageshadow="2"
     inkscape:window-width="1366"
     inkscape:window-height="718"
     id="namedview22"
     showgrid="true"
     inkscape:zoom="39.333333"
     inkscape:cx="10.388708"
     inkscape:cy="3.1911268"
     inkscape:window-x="0"
     inkscape:window-y="0"
     inkscape:window-maximized="1"
     inkscape:current-layer="g14">
    <inkscape:grid
       type="xygrid"
       id="grid4165" />
  </sodipodi:namedview>
  <linearGradient
     id="a"
     gradientUnits="userSpaceOnUse"
     x1="17.796146"
     x2="18.759607"
     y1="27.898491"
     y2="5.738891">
    <stop
       offset="0"
       stop-color="#555"
       id="stop5" />
    <stop
       offset="1"
       id="stop7" />
  </linearGradient>
  <linearGradient
     id="b"
     gradientUnits="userSpaceOnUse"
     x1="10.702985"
     x2="21.628023"
     y1="12.439984"
     y2="12.439984">
    <stop
       offset="0"
       stop-color="#3b3e22"
       id="stop10" />
    <stop
       offset="1"
       stop-color="#454545"
       stop-opacity="0"
       id="stop12" />
  </linearGradient>
  <g
     transform="matrix(0.171875,0,0,0.171875,0.29766341,0.23150318)"
     id="g14"
     style="fill:#f3b7d9;fill-opacity:1;stroke:#e601b4;stroke-width:0.38484851;stroke-linecap:round;stroke-linejoin:round;stroke-miterlimit:4;stroke-dasharray:none;stroke-opacity:1">
    <g
       id="g4178"
       transform="matrix(0.9846759,0,0,0.9846759,0.04423027,0.47474604)">
      <path
         inkscape:connector-curvature="0"
         style="fill:#f3b7d9;fill-opacity:1;stroke:#e601b4;stroke-width:0.38484851;stroke-linecap:round;stroke-linejoin:round;stroke-miterlimit:4;stroke-dasharray:none;stroke-opacity:1"
         id="path16"
         transform="scale(1.0465633,0.95550839)"
         d="m 19.349728,23.14864 q 0,-1.584893 -1.112797,-2.798854 -1.112797,-1.247682 -2.697691,-2.124431 -1.584893,-0.876749 -3.169786,-1.78722 -1.551172,-0.944192 -2.6639692,-2.3942 -1.1127973,-1.450009 -1.1127973,-3.372113 0,-2.5628062 1.7197775,-4.1476993 1.753499,-1.6186142 4.113978,-1.6186142 1.416288,0 3.068623,0.5732592 1.652335,0.5732592 1.989547,0.5732592 0.876749,0 1.079076,-1.1465184 l 0.708144,0 0.741864,7.1826005 -0.843028,0 Q 20.361362,9.1206497 18.675306,7.7043623 17.02297,6.2880748 14.999702,6.2880748 q -1.551172,0 -2.529084,0.8767494 -0.977913,0.8767494 -0.977913,2.2593157 0,1.3488451 1.146518,2.5628061 1.146519,1.213961 3.810488,2.69769 3.338392,1.78722 4.822122,3.540719 1.483729,1.719778 1.483729,3.810488 0,2.596527 -1.989546,4.383747 -1.989547,1.753498 -4.889564,1.753498 -1.686057,0 -3.439556,-0.573259 -1.719777,-0.573259 -2.124431,-0.573259 -0.3709323,0 -0.6407013,0.337211 -0.269769,0.30349 -0.3034902,0.775586 l -0.7418648,0 -1.011634,-7.148879 0.775586,0 q 1.2476819,3.068623 2.9000173,4.518631 1.652335,1.450009 3.911651,1.450009 1.854662,0 3.001181,-1.045355 1.146518,-1.079076 1.146518,-2.765133 z" />
      <path
         inkscape:connector-curvature="0"
         style="fill:#f3b7d9;fill-opacity:1;stroke:#e601b4;stroke-width:0.38484851;stroke-linecap:round;stroke-linejoin:round;stroke-miterlimit:4;stroke-dasharray:none;stroke-opacity:1"
         id="path18"
         d="m 3.5508199,29.24855 26.7645521,0 c 0.26153,0 0.472075,0.270822 0.472075,0.607224 l 0,0.324924 c 0,0.336402 -0.210545,0.607224 -0.472075,0.607224 l -26.7645521,0 c -0.2615296,0 -0.472075,-0.270822 -0.472075,-0.607224 l 0,-0.324924 c 0,-0.336402 0.2105454,-0.607224 0.472075,-0.607224 z" />
    </g>
  </g>
</svg>
