<?xml version="1.0" encoding="UTF-8"?>
<svg xmlns="http://www.w3.org/2000/svg" xmlns:xlink="http://www.w3.org/1999/xlink" width="32px" height="32px" viewBox="0 0 32 32" version="1.1">
<g id="surface1">
<path style="fill-rule:nonzero;fill:rgb(95.294118%,71.764708%,85.09804%);fill-opacity:1;stroke-width:0.529167;stroke-linecap:round;stroke-linejoin:round;stroke:rgb(90.196079%,0.392157%,70.588237%);stroke-opacity:1;stroke-miterlimit:4;" d="M 20.701034 21.550245 C 20.701034 20.300686 20.262176 19.199992 19.388379 18.243651 C 18.510663 17.260244 17.448784 16.425701 16.198823 15.735511 C 14.95278 15.045322 13.702819 14.341599 12.456776 13.624344 C 11.234243 12.880022 10.184119 11.937214 9.310322 10.79592 C 8.432606 9.654627 7.993748 8.323869 7.993748 6.81267 C 7.993748 4.791723 8.671627 3.158726 10.027384 1.913678 C 11.406652 0.637053 13.02494 0.000996293 14.886168 0.000996293 C 15.998986 0.000996293 17.209763 0.226548 18.510663 0.677653 C 19.811563 1.128757 20.595238 1.354309 20.861688 1.354309 C 21.551321 1.354309 21.974506 0.903205 22.135159 0.000996293 L 22.973691 0.000996293 L 23.847488 8.486267 L 22.852222 8.486267 C 22.213527 6.149547 21.233933 4.421818 19.905604 3.30759 C 18.604704 2.188852 17.154906 1.633994 15.564046 1.633994 C 14.341514 1.633994 13.346247 1.976833 12.574327 2.667022 C 11.806326 3.357212 11.418407 4.250398 11.418407 5.337559 C 11.418407 6.402165 11.872938 7.408128 12.774164 8.364469 C 13.67539 9.320809 15.176127 10.385415 17.276376 11.553775 C 19.905604 12.961221 21.802097 14.355133 22.973691 15.735511 C 24.141366 17.088824 24.725204 18.591001 24.725204 20.237532 C 24.725204 22.281034 23.941529 24.008763 22.37418 25.416208 C 20.80683 26.796587 18.882909 27.486776 16.598497 27.486776 C 15.270168 27.486776 13.914411 27.261224 12.535143 26.81012 C 11.179386 26.359016 10.344773 26.128953 10.027384 26.128953 C 9.733506 26.128953 9.48273 26.264284 9.26722 26.530435 C 9.055628 26.769521 8.938076 27.07176 8.910648 27.446177 L 8.032932 27.446177 L 6.837828 19.001506 L 7.754727 19.001506 C 8.738239 21.419425 9.878486 23.196775 11.179386 24.338069 C 12.480286 25.479363 14.024125 26.052265 15.803067 26.052265 C 17.260702 26.052265 18.444051 25.64176 19.345277 24.816239 C 20.250421 23.968163 20.701034 22.876491 20.701034 21.550245 Z M 20.701034 21.550245 " transform="matrix(0.996906,0,0,0.865931,0.245829,0.2882)"/>
<path style="fill-rule:nonzero;fill:rgb(95.294118%,71.764708%,85.09804%);fill-opacity:1;stroke-width:0.529167;stroke-linecap:round;stroke-linejoin:round;stroke:rgb(90.196079%,0.392157%,70.588237%);stroke-opacity:1;stroke-miterlimit:4;" d="M 0.471164 31.751632 L 33.394862 31.751632 C 33.655527 31.751632 33.865741 32.020706 33.865741 32.357048 L 33.865741 33.260968 C 33.865741 33.593106 33.655527 33.866384 33.394862 33.866384 L 0.471164 33.866384 C 0.210499 33.866384 0.000285203 33.593106 0.000285203 33.260968 L 0.000285203 32.357048 C 0.000285203 32.020706 0.210499 31.751632 0.471164 31.751632 Z M 0.471164 31.751632 " transform="matrix(0.929113,0,0,0.929113,0.245829,0.2882)"/>
<path style="fill-rule:nonzero;fill:rgb(95.294118%,71.764708%,85.09804%);fill-opacity:1;stroke-width:0.529167;stroke-linecap:round;stroke-linejoin:round;stroke:rgb(90.196079%,0.392157%,70.588237%);stroke-opacity:1;stroke-miterlimit:4;" d="M 0.471164 27.517925 L 33.394862 27.517925 C 33.655527 27.517925 33.865741 27.786999 33.865741 28.123341 L 33.865741 29.027261 C 33.865741 29.359398 33.655527 29.632677 33.394862 29.632677 L 0.471164 29.632677 C 0.210499 29.632677 0.000285203 29.359398 0.000285203 29.027261 L 0.000285203 28.123341 C 0.000285203 27.786999 0.210499 27.517925 0.471164 27.517925 Z M 0.471164 27.517925 " transform="matrix(0.929113,0,0,0.929113,0.245829,0.2882)"/>
</g>
</svg>
