<?xml version="1.0" encoding="UTF-8"?>
<svg xmlns="http://www.w3.org/2000/svg" xmlns:xlink="http://www.w3.org/1999/xlink" width="32px" height="32px" viewBox="0 0 32 32" version="1.1">
<g id="surface1">
<path style="fill-rule:nonzero;fill:rgb(95.294118%,71.764708%,85.09804%);fill-opacity:1;stroke-width:0.132292;stroke-linecap:butt;stroke-linejoin:miter;stroke:rgb(90.196079%,0.784314%,70.588237%);stroke-opacity:1;stroke-miterlimit:4;" d="M 4.026628 0.37207 L 4.026628 0.457853 C 3.902087 0.479041 3.768245 0.543119 3.626135 0.65009 L 2.023132 1.857768 L 2.952791 3.476274 C 3.027722 3.600814 3.089734 3.677812 3.13986 3.706234 C 3.193087 3.734656 3.303674 3.75791 3.471106 3.77548 L 3.471106 3.861263 L 2.001945 3.861263 L 2.001945 3.77548 C 2.073258 3.764628 2.124935 3.759461 2.156974 3.759461 C 2.320788 3.745508 2.402437 3.698999 2.402437 3.620451 C 2.402437 3.513998 2.334741 3.344499 2.199349 3.112988 L 1.552877 2.001945 L 1.189591 3.332097 C 1.161169 3.428215 1.147217 3.497978 1.147217 3.540353 C 1.147217 3.622518 1.168404 3.677812 1.211295 3.706234 C 1.257287 3.734656 1.364258 3.75791 1.531689 3.77548 L 1.531689 3.861263 L 0.206706 3.861263 L 0.206706 3.77548 C 0.363285 3.750676 0.463021 3.718636 0.505912 3.679362 C 0.552421 3.640088 0.598413 3.540353 0.644922 3.380156 L 1.301729 1.018543 C 1.341003 0.88005 1.36064 0.769462 1.36064 0.687297 C 1.36064 0.609265 1.333769 0.555522 1.280542 0.5271 C 1.227315 0.498678 1.116728 0.475423 0.949296 0.457853 L 0.949296 0.37207 L 2.407605 0.37207 L 2.407605 0.457853 C 2.251025 0.468705 2.130102 0.503845 2.04432 0.564823 C 1.962671 0.625285 1.90376 0.721403 1.868103 0.853178 L 1.584916 1.889807 L 2.39727 1.323434 C 2.632397 1.159619 2.819466 1.009758 2.957959 0.874365 C 3.096969 0.738973 3.166732 0.639238 3.166732 0.575159 C 3.166732 0.518315 3.105754 0.484725 2.984831 0.473873 C 2.977596 0.473873 2.956409 0.471806 2.920752 0.468705 C 2.888713 0.465088 2.861841 0.461471 2.840653 0.457853 L 2.840653 0.37207 Z M 4.026628 0.37207 " transform="matrix(7.559055,0,0,7.559055,0.00000180222,0)"/>
</g>
</svg>
