<?xml version="1.0" encoding="UTF-8" standalone="no"?>
<svg
   xmlns:dc="http://purl.org/dc/elements/1.1/"
   xmlns:cc="http://creativecommons.org/ns#"
   xmlns:rdf="http://www.w3.org/1999/02/22-rdf-syntax-ns#"
   xmlns:svg="http://www.w3.org/2000/svg"
   xmlns="http://www.w3.org/2000/svg"
   xmlns:xlink="http://www.w3.org/1999/xlink"
   xmlns:sodipodi="http://sodipodi.sourceforge.net/DTD/sodipodi-0.dtd"
   xmlns:inkscape="http://www.inkscape.org/namespaces/inkscape"
   height="24"
   viewBox="0 0 6.3499999 6.3500001"
   width="24"
   version="1.1"
   id="svg94"
   sodipodi:docname="lc_numberformatdecdecimals.svg"
   inkscape:version="0.92.4 (unknown)"
   inkscape:export-filename="/home/annisaauliarasyidah/Desktop/4_242 (aulia)/de/lc_numberformatdecdecimals.png"
   inkscape:export-xdpi="96"
   inkscape:export-ydpi="96">
  <metadata
     id="metadata100">
    <rdf:RDF>
      <cc:Work
         rdf:about="">
        <dc:format>image/svg+xml</dc:format>
        <dc:type
           rdf:resource="http://purl.org/dc/dcmitype/StillImage" />
      </cc:Work>
    </rdf:RDF>
  </metadata>
  <defs
     id="defs98" />
  <sodipodi:namedview
     pagecolor="#ffffff"
     bordercolor="#666666"
     borderopacity="1"
     objecttolerance="10"
     gridtolerance="10"
     guidetolerance="10"
     inkscape:pageopacity="0"
     inkscape:pageshadow="2"
     inkscape:window-width="1366"
     inkscape:window-height="707"
     id="namedview96"
     showgrid="true"
     inkscape:zoom="6.9532167"
     inkscape:cx="-24.305085"
     inkscape:cy="12"
     inkscape:window-x="0"
     inkscape:window-y="0"
     inkscape:window-maximized="1"
     inkscape:current-layer="svg94"
     inkscape:snap-global="false">
    <inkscape:grid
       type="xygrid"
       id="grid907" />
  </sodipodi:namedview>
  <linearGradient
     id="a"
     gradientTransform="scale(1.0975951,0.9110828)"
     gradientUnits="userSpaceOnUse"
     x1="26.091133"
     x2="31.500689"
     xlink:href="#i"
     y1="14.856744"
     y2="14.856744" />
  <linearGradient
     id="b"
     gradientUnits="userSpaceOnUse"
     spreadMethod="reflect"
     x1="88.606247"
     x2="91.575104"
     y1="13.510336"
     y2="13.510336">
    <stop
       offset="0"
       stop-color="#ff8787"
       id="stop3" />
    <stop
       offset="1"
       stop-color="#ff8787"
       stop-opacity="0"
       id="stop5" />
  </linearGradient>
  <linearGradient
     id="c"
     gradientUnits="userSpaceOnUse"
     x1="1.852083"
     x2="1.719118"
     y1="293.560393"
     y2="291.271633"
     gradientTransform="translate(0,-290.64998)">
    <stop
       offset="0"
       stop-color="#0968ef"
       id="stop8" />
    <stop
       offset="1"
       stop-color="#aecffc"
       id="stop10" />
  </linearGradient>
  <linearGradient
     id="d"
     gradientUnits="userSpaceOnUse"
     x1="3.429087"
     x2="3.477079"
     y1="296.423227"
     y2="294.216187">
    <stop
       offset="0"
       stop-color="#555"
       id="stop13" />
    <stop
       offset="1"
       id="stop15" />
  </linearGradient>
  <radialGradient
     id="e"
     cx="84.903702"
     cy="-130.14005"
     gradientTransform="matrix(0.01828276,0,0,0.01828276,4.1107472,3.1376261)"
     gradientUnits="userSpaceOnUse"
     r="57.039597"
     xlink:href="#f" />
  <linearGradient
     id="f">
    <stop
       offset="0"
       stop-color="#3a0b02"
       id="stop19" />
    <stop
       offset="1"
       stop-color="#a21d07"
       stop-opacity=".382353"
       id="stop21" />
  </linearGradient>
  <radialGradient
     id="g"
     cx="2.720703"
     cy="-66.273438"
     gradientTransform="matrix(0.01828276,0,0,0.01828276,4.1107472,3.1376261)"
     gradientUnits="userSpaceOnUse"
     r="57.039597"
     xlink:href="#f" />
  <radialGradient
     id="h"
     cx="51.991096"
     cy="-78.028419"
     gradientTransform="matrix(0.01828276,0,0,0.01828276,4.1107472,3.1376261)"
     gradientUnits="userSpaceOnUse"
     r="57.039597"
     xlink:href="#f" />
  <linearGradient
     id="i">
    <stop
       offset="0"
       stop-color="#765c44"
       id="stop26" />
    <stop
       offset="1"
       stop-color="#765c44"
       stop-opacity="0"
       id="stop28" />
  </linearGradient>
  <filter
     id="j"
     height="1.277481"
     width="1.279832"
     x="-.139916"
     y="-.138741">
    <feGaussianBlur
       stdDeviation=".28784801"
       id="feGaussianBlur31" />
  </filter>
  <linearGradient
     id="k"
     gradientUnits="userSpaceOnUse"
     x1="304.88663"
     x2="345.62039"
     xlink:href="#i"
     y1="385.86127"
     y2="384.62384" />
  <linearGradient
     id="l"
     gradientUnits="userSpaceOnUse"
     spreadMethod="reflect"
     x1="31.606251"
     x2="34.575108"
     y1="13.510336"
     y2="13.510336">
    <stop
       offset="0"
       stop-color="#fff"
       id="stop35" />
    <stop
       offset="1"
       stop-color="#790000"
       stop-opacity="0"
       id="stop37" />
  </linearGradient>
  <radialGradient
     id="m"
     cx="50.424522"
     cy="-81.945961"
     gradientTransform="matrix(0.01828276,0,0,0.01828276,4.110747,3.1376259)"
     gradientUnits="userSpaceOnUse"
     r="50.15279">
    <stop
       offset="0"
       stop-color="#db3424"
       id="stop40" />
    <stop
       offset="1"
       stop-color="#b32016"
       id="stop42" />
  </radialGradient>
  <linearGradient
     id="n"
     gradientTransform="matrix(0.01828276,0,0,0.01828276,4.1107472,3.1376261)"
     gradientUnits="userSpaceOnUse"
     x1="50.06789"
     x2="59.441998"
     y1="-154.40843"
     y2="-71.617722">
    <stop
       offset="0"
       stop-color="#fff"
       id="stop45" />
    <stop
       offset="1"
       stop-color="#fcf3f3"
       stop-opacity="0"
       id="stop47" />
  </linearGradient>
  <path
     d="m 5.4637014,0.53519307 c -0.049169,-0.049173 -0.1288925,-0.049171 -0.1780618,8e-7 L 4.4979167,1.3229167 3.7101668,0.53516677 c -0.049171,-0.049171 -0.1288925,-0.049172 -0.178062,6e-7 l -0.3151915,0.3151919 c -0.049172,0.049169 -0.049173,0.1288929 -8e-7,0.17806183 L 4.0046624,1.816171 3.2169377,2.6038958 c -0.049172,0.049169 -0.049171,0.128891 1.1e-6,0.1780599 l 0.3151925,0.3151925 c 0.049169,0.049173 0.1288907,0.049173 0.17806,1.1e-6 L 4.497916,2.3094246 5.2856407,3.0971493 c 0.049169,0.049173 0.1288926,0.049171 0.1780618,-7e-7 L 5.7788943,2.7819568 c 0.049172,-0.049169 0.049171,-0.128891 7e-7,-0.1780618 L 4.9911703,1.8161703 5.7788932,1.0284474 c 0.049172,-0.049169 0.049173,-0.12889293 5e-7,-0.17806193 z"
     id="path50"
     style="fill:#f3b7d9;fill-opacity:1;stroke-width:0.26458333;stroke:#9d3a9b;stroke-miterlimit:4;stroke-dasharray:none"
     inkscape:connector-curvature="0" />
  <path
     d="m 2.2809527,5.48993 q -0.213704,0.33089 -0.5652816,0.33089 -0.3515776,0 -0.5652816,-0.33779 -0.21370401,-0.33779 -0.21370401,-0.8686 0,-0.49979 0.21370401,-0.83414 0.213704,-0.33779 0.579069,-0.33779 0.3377902,0 0.5514942,0.3309 0.2137041,0.3309 0.2137041,0.86171 0,0.52392 -0.2137041,0.85482 z M 1.719118,3.53212 q -0.451536,0 -0.451536,1.11333 0,1.08575 0.4480891,1.08575 0.4480891,0 0.4480891,-1.0892 0,-0.54115 -0.1137457,-0.82379 Q 1.9362688,3.53212 1.719118,3.53212 Z"
     id="path80"
     style="fill:#f3b7d9;fill-opacity:1;stroke:#e602b4;stroke-width:0.13229167;stroke-miterlimit:4;stroke-dasharray:none"
     inkscape:connector-curvature="0" />
  <path
     d="m 3.9612868,5.48993 q -0.213704,0.33089 -0.5652816,0.33089 -0.3515776,0 -0.5652816,-0.33779 -0.213704,-0.33779 -0.213704,-0.8686 0,-0.49979 0.213704,-0.83414 0.213704,-0.33779 0.579069,-0.33779 0.3377902,0 0.5514942,0.3309 0.213704,0.3309 0.213704,0.86171 0,0.52392 -0.213704,0.85482 z M 3.3994521,3.53212 q -0.451536,0 -0.451536,1.11333 0,1.08575 0.4480891,1.08575 0.4480891,0 0.4480891,-1.0892 0,-0.54115 -0.1137457,-0.82379 Q 3.6166029,3.53212 3.3994521,3.53212 Z"
     id="path82"
     style="fill:#f3b7d9;fill-opacity:1;stroke:#e602b4;stroke-width:0.13229167;stroke-miterlimit:4;stroke-dasharray:none"
     inkscape:connector-curvature="0" />
  <path
     d="m 5.6416209,5.48993 q -0.213704,0.33089 -0.5652816,0.33089 -0.3515776,0 -0.5652816,-0.33779 -0.213704,-0.33779 -0.213704,-0.8686 0,-0.49979 0.213704,-0.83414 0.213704,-0.33779 0.579069,-0.33779 0.3377902,0 0.5514942,0.3309 0.213704,0.3309 0.213704,0.86171 0,0.52392 -0.213704,0.85482 z M 5.0797861,3.53212 q -0.4515359,0 -0.4515359,1.11333 0,1.08575 0.4480891,1.08575 0.4480891,0 0.4480891,-1.0892 0,-0.54115 -0.1137457,-0.82379 Q 5.296937,3.53212 5.0797861,3.53212 Z"
     id="path84"
     style="fill:#f3b7d9;fill-opacity:1;stroke:#e602b4;stroke-width:0.13229167;stroke-miterlimit:4;stroke-dasharray:none"
     inkscape:connector-curvature="0" />
  <path
     inkscape:connector-curvature="0"
     style="fill:#f3b7d9;fill-opacity:1;stroke:#e602b4;stroke-width:0.13229167;stroke-miterlimit:4;stroke-dasharray:none"
     id="path88"
     d="m 2.2809527,2.57946 q -0.213704,0.3309 -0.5652816,0.3309 -0.3515776,0 -0.5652816,-0.33779 -0.21370401,-0.33779 -0.21370401,-0.8686 0,-0.49979 0.21370401,-0.83414 0.213704,-0.33779 0.579069,-0.33779 0.3377902,0 0.5514942,0.3309 0.2137041,0.33089 0.2137041,0.86171 0,0.52392 -0.2137041,0.85481 z M 1.719118,0.62166 q -0.451536,0 -0.451536,1.11333 0,1.08575 0.4480891,1.08575 0.4480891,0 0.4480891,-1.0892 0,-0.54115 -0.1137457,-0.82379 Q 1.9362688,0.62166 1.719118,0.62166 Z" />
  <path
     inkscape:connector-curvature="0"
     id="path90"
     d="m 0.35793297,5.8018074 q 0,0 -0.0326761,0.00817 -0.0367606,0.00817 -0.0776057,0.00817 -0.11028181,0 -0.175634,-0.053099 -0.0653522,-0.057184 -0.0653522,-0.1552121 0,-0.1021129 0.0653522,-0.167465 0.0694367,-0.065352 0.175634,-0.065352 0.1388734,0 0.23281716,0.1061974 0.0939438,0.1021126 0.0939438,0.2573242 0,0.1838031 -0.12661986,0.3553524 Q 0.32117238,6.2674417 0.1169468,6.3695544 L 0.0801862,6.2919487 q 0.33492994,-0.2287326 0.33492994,-0.4329581 0,-0.057183 -0.0571832,-0.057183 z"
     style="fill:#9d3a9b;stroke-width:0.1875" />
</svg>
