<?xml version="1.0" encoding="UTF-8"?>
<svg xmlns="http://www.w3.org/2000/svg" xmlns:xlink="http://www.w3.org/1999/xlink" width="24px" height="24px" viewBox="0 0 24 24" version="1.1">
<g id="surface1">
<path style="fill-rule:nonzero;fill:rgb(95.294118%,71.764708%,85.09804%);fill-opacity:1;stroke-width:0.0661458;stroke-linecap:butt;stroke-linejoin:miter;stroke:rgb(90.196079%,0.784314%,70.588237%);stroke-opacity:1;stroke-miterlimit:4;" d="M 1.657091 3.977018 C 1.562695 4.129981 1.438672 4.206462 1.284331 4.206462 C 1.129991 4.206462 1.005968 4.128603 0.912261 3.972195 C 0.818554 3.815788 0.771701 3.615283 0.771701 3.369304 C 0.771701 3.138482 0.818554 2.945557 0.912261 2.791217 C 1.005968 2.634809 1.133436 2.55695 1.293289 2.55695 C 1.442117 2.55695 1.562695 2.633431 1.657091 2.786393 C 1.750797 2.939356 1.797651 3.138482 1.797651 3.383773 C 1.797651 3.626308 1.750797 3.824056 1.657091 3.977018 Z M 1.287088 2.618962 C 1.08865 2.618962 0.989431 2.876655 0.989431 3.391352 C 0.989431 3.892958 1.087961 4.14445 1.284331 4.14445 C 1.481391 4.14445 1.579921 3.892269 1.579921 3.388596 C 1.579921 3.138482 1.554427 2.948313 1.504818 2.817399 C 1.454519 2.685108 1.382172 2.618962 1.287088 2.618962 Z M 1.287088 2.618962 " transform="matrix(5.669291,0,0,5.669291,0.00000135166,0)"/>
<path style="fill-rule:nonzero;fill:rgb(95.294118%,71.764708%,85.09804%);fill-opacity:1;stroke-width:0.0661458;stroke-linecap:butt;stroke-linejoin:miter;stroke:rgb(90.196079%,0.784314%,70.588237%);stroke-opacity:1;stroke-miterlimit:4;" d="M 2.724381 3.977018 C 2.630675 4.129981 2.506651 4.206462 2.352311 4.206462 C 2.197971 4.206462 2.073258 4.128603 1.979552 3.972195 C 1.885845 3.815788 1.838992 3.615283 1.838992 3.369304 C 1.838992 3.138482 1.885845 2.945557 1.979552 2.791217 C 2.073258 2.634809 2.200727 2.55695 2.361268 2.55695 C 2.509407 2.55695 2.630675 2.633431 2.724381 2.786393 C 2.818088 2.939356 2.864941 3.138482 2.864941 3.383773 C 2.864941 3.626308 2.818088 3.824056 2.724381 3.977018 Z M 2.354378 2.618962 C 2.155941 2.618962 2.056722 2.876655 2.056722 3.391352 C 2.056722 3.892958 2.155252 4.14445 2.352311 4.14445 C 2.548682 4.14445 2.647211 3.892269 2.647211 3.388596 C 2.647211 3.138482 2.622407 2.948313 2.572108 2.817399 C 2.522499 2.685108 2.449463 2.618962 2.354378 2.618962 Z M 2.354378 2.618962 " transform="matrix(5.669291,0,0,5.669291,0.00000135166,0)"/>
<path style="fill-rule:nonzero;fill:rgb(95.294118%,71.764708%,85.09804%);fill-opacity:1;stroke-width:0.0661458;stroke-linecap:butt;stroke-linejoin:miter;stroke:rgb(90.196079%,0.784314%,70.588237%);stroke-opacity:1;stroke-miterlimit:4;" d="M 3.791672 3.977018 C 3.697965 4.129981 3.573942 4.206462 3.419602 4.206462 C 3.265261 4.206462 3.141238 4.128603 3.047531 3.972195 C 2.953136 3.815788 2.906282 3.615283 2.906282 3.369304 C 2.906282 3.138482 2.953136 2.945557 3.047531 2.791217 C 3.141238 2.634809 3.268018 2.55695 3.428559 2.55695 C 3.576698 2.55695 3.697965 2.633431 3.791672 2.786393 C 3.886068 2.939356 3.932921 3.138482 3.932921 3.383773 C 3.932921 3.626308 3.886068 3.824056 3.791672 3.977018 Z M 3.421669 2.618962 C 3.22392 2.618962 3.124702 2.876655 3.124702 3.391352 C 3.124702 3.892958 3.222542 4.14445 3.419602 4.14445 C 3.616661 4.14445 3.714502 3.892269 3.714502 3.388596 C 3.714502 3.138482 3.689697 2.948313 3.640088 2.817399 C 3.589789 2.685108 3.517442 2.618962 3.421669 2.618962 Z M 3.421669 2.618962 " transform="matrix(5.669291,0,0,5.669291,0.00000135166,0)"/>
<path style="fill-rule:nonzero;fill:rgb(95.294118%,71.764708%,85.09804%);fill-opacity:1;stroke-width:0.0661458;stroke-linecap:butt;stroke-linejoin:miter;stroke:rgb(90.196079%,0.784314%,70.588237%);stroke-opacity:1;stroke-miterlimit:4;" d="M 3.713124 1.887912 C 3.602881 2.058789 3.456809 2.144228 3.275597 2.144228 C 3.094385 2.144228 2.948313 2.056722 2.83807 1.8824 C 2.727827 1.708078 2.672705 1.484147 2.672705 1.210607 C 2.672705 0.952913 2.727827 0.73725 2.83807 0.564996 C 2.948313 0.390674 3.09783 0.303857 3.286621 0.303857 C 3.460943 0.303857 3.602881 0.388607 3.713124 0.559484 C 3.823367 0.73036 3.878488 0.952913 3.878488 1.226454 C 3.878488 1.49655 3.823367 1.717036 3.713124 1.887912 Z M 3.278353 0.372759 C 3.045464 0.372759 2.92902 0.66008 2.92902 1.234722 C 2.92902 1.794895 3.044775 2.074637 3.275597 2.074637 C 3.507107 2.074637 3.622173 1.793517 3.622173 1.231966 C 3.622173 0.952913 3.593235 0.740007 3.534668 0.594624 C 3.475412 0.446484 3.390663 0.372759 3.278353 0.372759 Z M 3.278353 0.372759 " transform="matrix(5.669291,0,0,5.669291,0.00000135166,0)"/>
<path style="fill-rule:nonzero;fill:rgb(95.294118%,71.764708%,85.09804%);fill-opacity:1;stroke-width:0.13514;stroke-linecap:butt;stroke-linejoin:miter;stroke:rgb(61.56863%,22.745098%,60.784316%);stroke-opacity:1;stroke-miterlimit:4;" d="M 1.167198 0.328662 C 1.054888 0.328662 0.960492 0.422369 0.960492 0.535368 L 0.960492 0.96945 L 0.52641 0.96945 C 0.4141 0.96945 0.319705 1.063846 0.319705 1.176156 L 0.319705 1.473812 C 0.319705 1.586122 0.4141 1.680518 0.52641 1.680518 L 0.960492 1.680518 L 0.960492 2.1146 C 0.960492 2.227599 1.054888 2.321305 1.167198 2.321305 L 1.464854 2.321305 C 1.577165 2.321305 1.67156 2.227599 1.67156 2.1146 L 1.67156 1.680518 L 2.105642 1.680518 C 2.217952 1.680518 2.312348 1.586122 2.312348 1.473812 L 2.312348 1.176156 C 2.312348 1.063846 2.217952 0.96945 2.105642 0.96945 L 1.67156 0.96945 L 1.67156 0.535368 C 1.67156 0.422369 1.577165 0.328662 1.464854 0.328662 Z M 1.167198 0.328662 " transform="matrix(5.669291,0,0,5.669291,0.00000135166,0)"/>
<path style=" stroke:none;fill-rule:nonzero;fill:rgb(61.56863%,22.745098%,60.784316%);fill-opacity:1;" d="M 1.855469 21 C 1.855469 21 1.796875 21.015625 1.683594 21.042969 C 1.554688 21.070312 1.417969 21.085938 1.273438 21.085938 C 0.886719 21.085938 0.574219 20.992188 0.34375 20.804688 C 0.113281 20.605469 0 20.332031 0 19.984375 C 0 19.625 0.113281 19.332031 0.34375 19.101562 C 0.589844 18.871094 0.898438 18.753906 1.273438 18.753906 C 1.761719 18.753906 2.171875 18.941406 2.503906 19.316406 C 2.835938 19.675781 3 20.128906 3 20.675781 C 3 21.324219 2.777344 21.949219 2.332031 22.554688 C 1.886719 23.160156 1.300781 23.640625 0.582031 24 L 0.386719 23.589844 C 1.566406 22.785156 2.160156 22.023438 2.160156 21.300781 C 2.160156 21.101562 2.058594 21 1.855469 21 Z M 1.855469 21 "/>
</g>
</svg>
