<?xml version="1.0" encoding="UTF-8"?>
<svg xmlns="http://www.w3.org/2000/svg" xmlns:xlink="http://www.w3.org/1999/xlink" width="32px" height="32px" viewBox="0 0 32 32" version="1.1">
<g id="surface1">
<path style="fill-rule:nonzero;fill:rgb(95.294118%,71.764708%,85.09804%);fill-opacity:1;stroke-width:0.0661458;stroke-linecap:butt;stroke-linejoin:miter;stroke:rgb(90.196079%,0.784314%,70.588237%);stroke-opacity:1;stroke-miterlimit:4;" d="M 1.656746 3.977018 C 1.563212 4.129981 1.438672 4.206462 1.284676 4.206462 C 1.130163 4.206462 1.00614 4.12843 0.912089 3.972368 C 0.818554 3.815788 0.771529 3.615283 0.771529 3.36982 C 0.771529 3.13831 0.818554 2.945557 0.912089 2.791044 C 1.00614 2.634981 1.133264 2.55695 1.293461 2.55695 C 1.441772 2.55695 1.563212 2.633431 1.656746 2.786393 C 1.750797 2.939356 1.797823 3.13831 1.797823 3.383773 C 1.797823 3.626135 1.750797 3.824056 1.656746 3.977018 Z M 1.286743 2.618962 C 1.088305 2.618962 0.989603 2.87631 0.989603 3.391008 C 0.989603 3.893303 1.087789 4.14445 1.284676 4.14445 C 1.481046 4.14445 1.579748 3.892269 1.579748 3.388941 C 1.579748 3.13831 1.554944 2.948141 1.504818 2.817399 C 1.454691 2.685108 1.382344 2.618962 1.286743 2.618962 Z M 1.286743 2.618962 " transform="matrix(7.559055,0,0,7.559055,0.00000180222,0)"/>
<path style="fill-rule:nonzero;fill:rgb(95.294118%,71.764708%,85.09804%);fill-opacity:1;stroke-width:0.0661458;stroke-linecap:butt;stroke-linejoin:miter;stroke:rgb(90.196079%,0.784314%,70.588237%);stroke-opacity:1;stroke-miterlimit:4;" d="M 2.724381 3.977018 C 2.63033 4.129981 2.506307 4.206462 2.352311 4.206462 C 2.197799 4.206462 2.073775 4.12843 1.979724 3.972368 C 1.88619 3.815788 1.839164 3.615283 1.839164 3.36982 C 1.839164 3.13831 1.88619 2.945557 1.979724 2.791044 C 2.073775 2.634981 2.200899 2.55695 2.361096 2.55695 C 2.509407 2.55695 2.63033 2.633431 2.724381 2.786393 C 2.818433 2.939356 2.864941 3.13831 2.864941 3.383773 C 2.864941 3.626135 2.818433 3.824056 2.724381 3.977018 Z M 2.354378 2.618962 C 2.155941 2.618962 2.056722 2.87631 2.056722 3.391008 C 2.056722 3.893303 2.155424 4.14445 2.352311 4.14445 C 2.548682 4.14445 2.647384 3.892269 2.647384 3.388941 C 2.647384 3.13831 2.622062 2.948141 2.572453 2.817399 C 2.522327 2.685108 2.449463 2.618962 2.354378 2.618962 Z M 2.354378 2.618962 " transform="matrix(7.559055,0,0,7.559055,0.00000180222,0)"/>
<path style="fill-rule:nonzero;fill:rgb(95.294118%,71.764708%,85.09804%);fill-opacity:1;stroke-width:0.0661458;stroke-linecap:butt;stroke-linejoin:miter;stroke:rgb(90.196079%,0.784314%,70.588237%);stroke-opacity:1;stroke-miterlimit:4;" d="M 3.792017 3.977018 C 3.697965 4.129981 3.573942 4.206462 3.419429 4.206462 C 3.265434 4.206462 3.140894 4.12843 3.047359 3.972368 C 2.953308 3.815788 2.906282 3.615283 2.906282 3.36982 C 2.906282 3.13831 2.953308 2.945557 3.047359 2.791044 C 3.140894 2.634981 3.268018 2.55695 3.428731 2.55695 C 3.577043 2.55695 3.697965 2.633431 3.792017 2.786393 C 3.885551 2.939356 3.932576 3.13831 3.932576 3.383773 C 3.932576 3.626135 3.885551 3.824056 3.792017 3.977018 Z M 3.422013 2.618962 C 3.223576 2.618962 3.124357 2.87631 3.124357 3.391008 C 3.124357 3.893303 3.223059 4.14445 3.419429 4.14445 C 3.616317 4.14445 3.714502 3.892269 3.714502 3.388941 C 3.714502 3.13831 3.689697 2.948141 3.639571 2.817399 C 3.589962 2.685108 3.517098 2.618962 3.422013 2.618962 Z M 3.422013 2.618962 " transform="matrix(7.559055,0,0,7.559055,0.00000180222,0)"/>
<path style="fill-rule:nonzero;fill:rgb(95.294118%,71.764708%,85.09804%);fill-opacity:1;stroke-width:0.0661458;stroke-linecap:butt;stroke-linejoin:miter;stroke:rgb(90.196079%,0.784314%,70.588237%);stroke-opacity:1;stroke-miterlimit:4;" d="M 3.712952 1.88774 C 3.602881 2.058789 3.457153 2.144055 3.275769 2.144055 C 3.094385 2.144055 2.948657 2.056722 2.83807 1.882573 C 2.727999 1.708423 2.672705 1.484147 2.672705 1.210262 C 2.672705 0.952397 2.727999 0.737423 2.83807 0.564823 C 2.948657 0.390674 3.098002 0.303341 3.286621 0.303341 C 3.460771 0.303341 3.602881 0.389124 3.712952 0.559656 C 3.823539 0.730188 3.878316 0.952397 3.878316 1.226282 C 3.878316 1.49655 3.823539 1.717208 3.712952 1.88774 Z M 3.278353 0.373104 C 3.045292 0.373104 2.92902 0.659908 2.92902 1.23455 C 2.92902 1.794723 3.044775 2.074809 3.275769 2.074809 C 3.506763 2.074809 3.622518 1.793689 3.622518 1.231966 C 3.622518 0.952397 3.593062 0.740007 3.534668 0.594279 C 3.475757 0.446484 3.390491 0.373104 3.278353 0.373104 Z M 3.278353 0.373104 " transform="matrix(7.559055,0,0,7.559055,0.00000180222,0)"/>
<path style="fill-rule:nonzero;fill:rgb(95.294118%,71.764708%,85.09804%);fill-opacity:1;stroke-width:0.13514;stroke-linecap:butt;stroke-linejoin:miter;stroke:rgb(61.56863%,22.745098%,60.784316%);stroke-opacity:1;stroke-miterlimit:4;" d="M 1.16737 0.328662 C 1.054716 0.328662 0.960665 0.422713 0.960665 0.535368 L 0.960665 0.969967 L 0.526583 0.969967 C 0.413928 0.969967 0.319877 1.063501 0.319877 1.176156 L 0.319877 1.473812 C 0.319877 1.586467 0.413928 1.680001 0.526583 1.680001 L 0.960665 1.680001 L 0.960665 2.1146 C 0.960665 2.227254 1.054716 2.321305 1.16737 2.321305 L 1.46451 2.321305 C 1.577165 2.321305 1.671216 2.227254 1.671216 2.1146 L 1.671216 1.680001 L 2.105815 1.680001 C 2.217952 1.680001 2.312003 1.586467 2.312003 1.473812 L 2.312003 1.176156 C 2.312003 1.063501 2.217952 0.969967 2.105815 0.969967 L 1.671216 0.969967 L 1.671216 0.535368 C 1.671216 0.422713 1.577165 0.328662 1.46451 0.328662 Z M 1.16737 0.328662 " transform="matrix(7.559055,0,0,7.559055,0.00000180222,0)"/>
<path style=" stroke:none;fill-rule:nonzero;fill:rgb(61.56863%,22.745098%,60.784316%);fill-opacity:1;" d="M 2.476562 28 C 2.476562 28 2.398438 28.019531 2.246094 28.058594 C 2.070312 28.097656 1.890625 28.113281 1.699219 28.113281 C 1.179688 28.113281 0.765625 27.992188 0.460938 27.742188 C 0.152344 27.472656 0 27.109375 0 26.648438 C 0 26.167969 0.152344 25.773438 0.460938 25.46875 C 0.785156 25.160156 1.199219 25.007812 1.699219 25.007812 C 2.351562 25.007812 2.898438 25.257812 3.339844 25.753906 C 3.78125 26.234375 4 26.839844 4 27.570312 C 4 28.433594 3.703125 29.265625 3.109375 30.070312 C 2.511719 30.878906 1.734375 31.519531 0.777344 32 L 0.519531 31.453125 C 2.089844 30.378906 2.878906 29.363281 2.878906 28.402344 C 2.878906 28.132812 2.742188 28 2.476562 28 Z M 2.476562 28 "/>
</g>
</svg>
