<?xml version="1.0" encoding="UTF-8"?>
<svg xmlns="http://www.w3.org/2000/svg" xmlns:xlink="http://www.w3.org/1999/xlink" width="32px" height="32px" viewBox="0 0 32 32" version="1.1">
<g id="surface1">
<path style="fill-rule:nonzero;fill:rgb(95.294118%,71.764708%,85.09804%);fill-opacity:1;stroke-width:0.0585346;stroke-linecap:butt;stroke-linejoin:miter;stroke:rgb(90.196079%,0.784314%,70.588237%);stroke-opacity:1;stroke-miterlimit:4;" d="M 1.33997 3.726905 C 1.236617 3.866948 1.100191 3.937228 0.929659 3.937228 C 0.759643 3.937228 0.623218 3.865397 0.519865 3.722254 C 0.415995 3.57911 0.364319 3.395142 0.364319 3.169833 C 0.364319 2.957959 0.415995 2.781226 0.519865 2.639632 C 0.623218 2.496489 0.763261 2.424658 0.939994 2.424658 C 1.103292 2.424658 1.236617 2.494938 1.33997 2.635498 C 1.443323 2.775541 1.494999 2.957959 1.494999 3.183268 C 1.494999 3.40496 1.443323 3.586345 1.33997 3.726905 Z M 0.932243 2.482019 C 0.714168 2.482019 0.604614 2.717664 0.604614 3.18947 C 0.604614 3.649907 0.713135 3.879867 0.929659 3.879867 C 1.1467 3.879867 1.25522 3.64939 1.25522 3.187403 C 1.25522 2.957959 1.227315 2.783293 1.172538 2.66392 C 1.117244 2.542481 1.037663 2.482019 0.932243 2.482019 Z M 0.932243 2.482019 " transform="matrix(7.559055,0,0,7.559055,0.00000180222,0)"/>
<path style="fill-rule:nonzero;fill:rgb(95.294118%,71.764708%,85.09804%);fill-opacity:1;stroke-width:0.0585346;stroke-linecap:butt;stroke-linejoin:miter;stroke:rgb(90.196079%,0.784314%,70.588237%);stroke-opacity:1;stroke-miterlimit:4;" d="M 2.677356 3.726905 C 2.574003 3.866948 2.43706 3.937228 2.267045 3.937228 C 2.09703 3.937228 1.960087 3.865397 1.856734 3.722254 C 1.753381 3.57911 1.701705 3.395142 1.701705 3.169833 C 1.701705 2.957959 1.753381 2.781226 1.856734 2.639632 C 1.960087 2.496489 2.10013 2.424658 2.27738 2.424658 C 2.440678 2.424658 2.574003 2.494938 2.677356 2.635498 C 2.780709 2.775541 2.832385 2.957959 2.832385 3.183268 C 2.832385 3.40496 2.780709 3.586345 2.677356 3.726905 Z M 2.269629 2.482019 C 2.051037 2.482019 1.942 2.717664 1.942 3.18947 C 1.942 3.649907 2.050521 3.879867 2.267045 3.879867 C 2.484086 3.879867 2.59209 3.64939 2.59209 3.187403 C 2.59209 2.957959 2.564701 2.783293 2.509924 2.66392 C 2.45463 2.542481 2.374532 2.482019 2.269629 2.482019 Z M 2.269629 2.482019 " transform="matrix(7.559055,0,0,7.559055,0.00000180222,0)"/>
<path style="fill-rule:nonzero;fill:rgb(95.294118%,71.764708%,85.09804%);fill-opacity:1;stroke-width:0.0585346;stroke-linecap:butt;stroke-linejoin:miter;stroke:rgb(90.196079%,0.784314%,70.588237%);stroke-opacity:1;stroke-miterlimit:4;" d="M 3.96875 3.729488 C 3.865397 3.870048 3.728455 3.939811 3.558439 3.939811 C 3.388424 3.939811 3.251481 3.868498 3.148128 3.725354 C 3.044775 3.582211 2.993099 3.397726 2.993099 3.172933 C 2.993099 2.96106 3.044775 2.784326 3.148128 2.642733 C 3.251481 2.499072 3.391524 2.427759 3.568258 2.427759 C 3.732072 2.427759 3.865397 2.498039 3.96875 2.638082 C 4.072103 2.778642 4.123779 2.96106 4.123779 3.185852 C 4.123779 3.408061 4.072103 3.589445 3.96875 3.729488 Z M 3.561023 2.484603 C 3.342432 2.484603 3.233394 2.720764 3.233394 3.19257 C 3.233394 3.653007 3.341915 3.882967 3.558439 3.882967 C 3.77548 3.882967 3.883484 3.651974 3.883484 3.190503 C 3.883484 2.96106 3.856095 2.786393 3.801318 2.666504 C 3.746025 2.545581 3.665926 2.484603 3.561023 2.484603 Z M 3.561023 2.484603 " transform="matrix(7.559055,0,0,7.559055,0.00000180222,0)"/>
<path style="fill-rule:nonzero;fill:rgb(95.294118%,71.764708%,85.09804%);fill-opacity:1;stroke-width:0.0661458;stroke-linecap:butt;stroke-linejoin:miter;stroke:rgb(90.196079%,0.784314%,70.588237%);stroke-opacity:1;stroke-miterlimit:4;" d="M 1.56838 1.878438 C 1.458309 2.048971 1.312581 2.134237 1.131197 2.134237 C 0.949813 2.134237 0.804085 2.04742 0.693498 1.872754 C 0.583427 1.698604 0.528133 1.474845 0.528133 1.20096 C 0.528133 0.943095 0.583427 0.727604 0.693498 0.555522 C 0.804085 0.380855 0.95343 0.294039 1.141532 0.294039 C 1.316199 0.294039 1.458309 0.379305 1.56838 0.549837 C 1.678967 0.720886 1.733744 0.943095 1.733744 1.21698 C 1.733744 1.487248 1.678967 1.707389 1.56838 1.878438 Z M 1.133781 0.363285 C 0.90072 0.363285 0.784448 0.650606 0.784448 1.224732 C 0.784448 1.784904 0.899687 2.06499 1.131197 2.06499 C 1.362191 2.06499 1.477946 1.783871 1.477946 1.222148 C 1.477946 0.943095 1.44849 0.730705 1.389579 0.58446 C 1.331185 0.437183 1.245919 0.363285 1.133781 0.363285 Z M 1.133781 0.363285 " transform="matrix(7.559055,0,0,7.559055,0.00000180222,0)"/>
<path style="fill-rule:nonzero;fill:rgb(95.294118%,71.764708%,85.09804%);fill-opacity:1;stroke-width:0.132292;stroke-linecap:round;stroke-linejoin:round;stroke:rgb(61.56863%,22.745098%,60.784316%);stroke-opacity:1;stroke-miterlimit:4;" d="M 3.731038 0.331246 L 3.117122 0.945162 L 2.503206 0.331246 L 2.196765 0.637687 L 2.810681 1.251603 L 2.196765 1.866036 L 2.503206 2.172477 L 3.117122 1.558561 L 3.731038 2.172477 L 4.03748 1.866036 L 3.423564 1.251603 L 4.03748 0.637687 Z M 3.731038 0.331246 " transform="matrix(7.559055,0,0,7.559055,0.00000180222,0)"/>
<path style=" stroke:none;fill-rule:nonzero;fill:rgb(61.56863%,22.745098%,60.784316%);fill-opacity:1;" d="M 2 29 C 2 29 1.941406 29.015625 1.820312 29.042969 C 1.6875 29.074219 1.546875 29.089844 1.398438 29.089844 C 0.996094 29.089844 0.675781 28.992188 0.441406 28.800781 C 0.203125 28.589844 0.0820312 28.308594 0.0820312 27.953125 C 0.0820312 27.582031 0.203125 27.277344 0.441406 27.039062 C 0.691406 26.800781 1.011719 26.683594 1.398438 26.683594 C 1.902344 26.683594 2.328125 26.875 2.667969 27.261719 C 3.011719 27.632812 3.179688 28.101562 3.179688 28.664062 C 3.179688 29.335938 2.949219 29.980469 2.492188 30.605469 C 2.03125 31.230469 1.429688 31.726562 0.683594 32.097656 L 0.484375 31.675781 C 1.703125 30.84375 2.3125 30.054688 2.3125 29.3125 C 2.3125 29.105469 2.207031 29 2 29 Z M 2 29 "/>
</g>
</svg>
