<?xml version="1.0" encoding="UTF-8" standalone="no"?>
<svg
   xmlns:dc="http://purl.org/dc/elements/1.1/"
   xmlns:cc="http://creativecommons.org/ns#"
   xmlns:rdf="http://www.w3.org/1999/02/22-rdf-syntax-ns#"
   xmlns:svg="http://www.w3.org/2000/svg"
   xmlns="http://www.w3.org/2000/svg"
   xmlns:sodipodi="http://sodipodi.sourceforge.net/DTD/sodipodi-0.dtd"
   xmlns:inkscape="http://www.inkscape.org/namespaces/inkscape"
   height="16"
   viewBox="0 0 4.2333333 4.2333334"
   width="16"
   version="1.1"
   id="svg31"
   sodipodi:docname="sc_numberformatdecdecimals.svg"
   inkscape:version="0.92.4 (unknown)"
   inkscape:export-filename="/home/annisaauliarasyidah/Desktop/4_242 (aulia)/de/sc_numberformatdecdecimals.png"
   inkscape:export-xdpi="96"
   inkscape:export-ydpi="96">
  <metadata
     id="metadata37">
    <rdf:RDF>
      <cc:Work
         rdf:about="">
        <dc:format>image/svg+xml</dc:format>
        <dc:type
           rdf:resource="http://purl.org/dc/dcmitype/StillImage" />
      </cc:Work>
    </rdf:RDF>
  </metadata>
  <defs
     id="defs35" />
  <sodipodi:namedview
     pagecolor="#ffffff"
     bordercolor="#666666"
     borderopacity="1"
     objecttolerance="10"
     gridtolerance="10"
     guidetolerance="10"
     inkscape:pageopacity="0"
     inkscape:pageshadow="2"
     inkscape:window-width="1366"
     inkscape:window-height="707"
     id="namedview33"
     showgrid="true"
     inkscape:zoom="20.85965"
     inkscape:cx="1.2290233"
     inkscape:cy="11.571488"
     inkscape:window-x="0"
     inkscape:window-y="0"
     inkscape:window-maximized="1"
     inkscape:current-layer="svg31"
     inkscape:snap-global="false">
    <inkscape:grid
       type="xygrid"
       id="grid855" />
  </sodipodi:namedview>
  <linearGradient
     id="a"
     gradientUnits="userSpaceOnUse"
     x1="1.709535"
     x2="1.709535"
     y1="3.999728"
     y2="2.176602">
    <stop
       offset="0"
       stop-color="#555"
       id="stop2" />
    <stop
       offset="1"
       id="stop4" />
  </linearGradient>
  <linearGradient
     id="b"
     gradientUnits="userSpaceOnUse"
     x1="1.709535"
     x2="1.817162"
     y1="2.135997"
     y2="-1.732044">
    <stop
       offset="0"
       stop-color="#0968ef"
       id="stop7" />
    <stop
       offset="1"
       stop-color="#aecffc"
       id="stop9" />
  </linearGradient>
  <radialGradient
     id="c"
     cx="-32"
     cy="9.6"
     gradientTransform="matrix(.11920158 .11920158 -.59600792 .59600792 13.024494 -1.468809)"
     gradientUnits="userSpaceOnUse"
     r="5.6">
    <stop
       offset="0"
       stop-color="#a50606"
       id="stop12" />
    <stop
       offset="1"
       stop-color="#f20909"
       id="stop14" />
  </radialGradient>
  <path
     inkscape:connector-curvature="0"
     style="fill:#f3b7d9;stroke:#e602b4;stroke-width:0.05853463"
     id="path17"
     d="M 1.3401222,3.7266484 Q 1.1850315,3.9370399 0.92988226,3.9370399 0.674733,3.9370399 0.51964229,3.7222653 0.36455158,3.5074906 0.36455158,3.1699874 q 0,-0.3177788 0.15509071,-0.5303619 0.15509071,-0.2147747 0.42024577,-0.2147747 0.24514344,0 0.40023414,0.2103915 0.1550907,0.2103915 0.1550907,0.5478946 0,0.3331199 -0.1550907,0.5435115 z M 0.93238366,2.4818318 q -0.32769163,0 -0.32769163,0.7078798 0,0.6903473 0.32519023,0.6903473 0.32519024,0 0.32519024,-0.6925388 0,-0.3440779 -0.082549,-0.5237873 -0.082548,-0.181901 -0.24013984,-0.181901 z" />
  <path
     inkscape:connector-curvature="0"
     style="fill:#f3b7d9;stroke:#e602b4;stroke-width:0.05853463"
     id="path19"
     d="m 2.6773724,3.7266484 q -0.1550907,0.2103915 -0.41024,0.2103915 -0.2551491,0 -0.4102399,-0.2147746 -0.1550907,-0.2147747 -0.1550907,-0.5522779 0,-0.3177788 0.1550907,-0.5303619 0.1550908,-0.2147747 0.4202458,-0.2147747 0.2451434,0 0.4002341,0.2103915 0.1550907,0.2103915 0.1550907,0.5478946 0,0.3331199 -0.1550907,0.5435115 z M 2.2696339,2.4818318 q -0.3276917,0 -0.3276917,0.7078798 0,0.6903473 0.3251902,0.6903473 0.3251902,0 0.3251902,-0.6925388 0,-0.3440779 -0.082549,-0.5237873 -0.082548,-0.181901 -0.2401397,-0.181901 z" />
  <path
     inkscape:connector-curvature="0"
     style="fill:#f3b7d9;stroke:#e602b4;stroke-width:0.05853463"
     id="path21"
     d="m 3.96875,3.7295346 q -0.1550907,0.2103915 -0.4102399,0.2103915 -0.2551492,0 -0.4102399,-0.2147746 -0.1550907,-0.2147747 -0.1550907,-0.5522779 0,-0.3177788 0.1550907,-0.5303619 0.1550907,-0.2147747 0.4202457,-0.2147747 0.2451434,0 0.4002341,0.2103915 0.1550907,0.2103915 0.1550907,0.5478946 0,0.3331199 -0.1550907,0.5435115 z M 3.5610115,2.484718 q -0.3276915,0 -0.3276915,0.7078798 0,0.6903473 0.3251901,0.6903473 0.3251902,0 0.3251902,-0.6925388 0,-0.3440779 -0.082549,-0.5237873 Q 3.7186033,2.484718 3.5610115,2.484718 Z" />
  <path
     d="m 1.568474,1.8783414 q -0.1653724,0.2560605 -0.4374367,0.2560605 -0.27206422,0 -0.43743663,-0.2613951 Q 0.52822826,1.6116117 0.52822826,1.200848 q 0,-0.38675805 0.16537241,-0.64548584 0.16537241,-0.2613951 0.44810583,-0.2613951 0.2613951,0 0.4267675,0.2560605 0.1653724,0.2560605 0.1653724,0.66682424 0,0.4054291 -0.1653724,0.6614896 z M 1.1337046,0.36331678 q -0.34941584,0 -0.34941584,0.86153692 0,0.8401985 0.34674854,0.8401985 0.3467486,0 0.3467486,-0.8428658 0,-0.41876563 -0.088021,-0.63748398 Q 1.3017443,0.36331678 1.1337046,0.36331678 Z"
     id="path25"
     style="fill:#f3b7d9;stroke:#e602b4;stroke-width:0.06614583;stroke-miterlimit:4;stroke-dasharray:none"
     inkscape:connector-curvature="0" />
  <path
     d="M 3.7310726,0.33132136 3.1171176,0.94527606 2.5031628,0.33132136 2.1966136,0.63787057 2.8105684,1.2518253 2.1966136,1.8657803 2.5031628,2.1723296 3.1171176,1.5583748 3.7310726,2.1723296 4.0376218,1.8657803 3.423667,1.2518253 4.0376218,0.63787057 Z"
     id="path27"
     style="fill:#f3b7d9;stroke:#9d3a9b;stroke-width:0.13229167;stroke-linecap:round;stroke-linejoin:round;stroke-miterlimit:4;stroke-dasharray:none"
     inkscape:connector-curvature="0"
     inkscape:export-xdpi="96"
     inkscape:export-ydpi="96" />
  <path
     d="m 0.26458333,3.8364583 q 0,0 -0.0235895,0.0059 -0.0265382,0.0059 -0.0560251,0.0059 -0.0796146,0 -0.12679363,-0.038333 -0.04717904,-0.041287 -0.04717904,-0.1120555 0,-0.073717 0.04717903,-0.1208963 0.05012771,-0.047179 0.12679363,-0.047179 0.10025544,0 0.16807529,0.076666 0.0678199,0.073717 0.0678199,0.1857674 0,0.1326911 -0.0914094,0.2565359 -0.0914094,0.123845 -0.23884383,0.1975622 L 0.06407246,4.1903009 q 0.24179252,-0.1651265 0.24179252,-0.312561 0,-0.041282 -0.0412817,-0.041282 z"
     id="path29"
     style="fill:#9d3a9b;stroke:none;stroke-width:0.13546129;stroke-miterlimit:4;stroke-dasharray:none"
     inkscape:connector-curvature="0" />
</svg>
