<?xml version="1.0" encoding="UTF-8"?>
<svg xmlns="http://www.w3.org/2000/svg" xmlns:xlink="http://www.w3.org/1999/xlink" width="32px" height="32px" viewBox="0 0 32 32" version="1.1">
<g id="surface1">
<path style="fill-rule:nonzero;fill:rgb(95.294118%,71.764708%,85.09804%);fill-opacity:1;stroke-width:0.0661458;stroke-linecap:round;stroke-linejoin:round;stroke:rgb(90.196079%,0.392157%,70.588237%);stroke-opacity:1;stroke-miterlimit:4;" d="M 1.440739 0.227893 L 3.305741 2.519743 L 3.305741 0.890385 C 3.305741 0.701766 3.271635 0.571541 3.203939 0.500228 C 3.136243 0.425814 3.004468 0.379305 2.808614 0.361735 L 2.808614 0.227893 L 3.957381 0.227893 L 3.957381 0.361735 C 3.782715 0.390157 3.669027 0.430981 3.615283 0.484208 C 3.565674 0.534334 3.540352 0.63562 3.540352 0.789099 L 3.540352 3.935677 L 3.391007 3.935677 L 1.003039 1.029395 L 1.003039 3.177067 C 1.003039 3.365686 1.035079 3.495911 1.099158 3.567224 C 1.166854 3.63492 1.303796 3.680912 1.510502 3.705717 L 1.510502 3.839559 L 0.297656 3.839559 L 0.297656 3.705717 C 0.49351 3.680912 0.620117 3.641638 0.676961 3.588412 C 0.737422 3.535185 0.767912 3.431832 0.767912 3.278353 L 0.767912 0.746208 C 0.639754 0.593245 0.545186 0.491443 0.484725 0.441834 C 0.424263 0.38809 0.366902 0.361735 0.313676 0.361735 L 0.313676 0.227893 Z M 1.440739 0.227893 " transform="matrix(7.559055,0,0,7.559055,0.00000180222,0)"/>
</g>
</svg>
