<?xml version="1.0" encoding="UTF-8" standalone="no"?>
<svg
   xmlns:dc="http://purl.org/dc/elements/1.1/"
   xmlns:cc="http://creativecommons.org/ns#"
   xmlns:rdf="http://www.w3.org/1999/02/22-rdf-syntax-ns#"
   xmlns:svg="http://www.w3.org/2000/svg"
   xmlns="http://www.w3.org/2000/svg"
   xmlns:sodipodi="http://sodipodi.sourceforge.net/DTD/sodipodi-0.dtd"
   xmlns:inkscape="http://www.inkscape.org/namespaces/inkscape"
   height="24"
   viewBox="0 0 6.3499999 6.3500001"
   width="24"
   version="1.1"
   id="svg15"
   sodipodi:docname="lc_numberformatthousands.svg"
   inkscape:version="0.92.4 (unknown)"
   inkscape:export-filename="/home/annisaauliarasyidah/Desktop/4_242 (aulia)/de/lc_numberformatthousands.png"
   inkscape:export-xdpi="96"
   inkscape:export-ydpi="96">
  <metadata
     id="metadata21">
    <rdf:RDF>
      <cc:Work
         rdf:about="">
        <dc:format>image/svg+xml</dc:format>
        <dc:type
           rdf:resource="http://purl.org/dc/dcmitype/StillImage" />
      </cc:Work>
    </rdf:RDF>
  </metadata>
  <defs
     id="defs19" />
  <sodipodi:namedview
     pagecolor="#ffffff"
     bordercolor="#666666"
     borderopacity="1"
     objecttolerance="10"
     gridtolerance="10"
     guidetolerance="10"
     inkscape:pageopacity="0"
     inkscape:pageshadow="2"
     inkscape:window-width="1366"
     inkscape:window-height="707"
     id="namedview17"
     showgrid="true"
     inkscape:zoom="19.666667"
     inkscape:cx="0.23460736"
     inkscape:cy="12"
     inkscape:window-x="0"
     inkscape:window-y="0"
     inkscape:window-maximized="1"
     inkscape:current-layer="svg15">
    <inkscape:grid
       type="xygrid"
       id="grid831" />
  </sodipodi:namedview>
  <linearGradient
     id="a"
     gradientUnits="userSpaceOnUse"
     x1="3.303053"
     x2="2.948024"
     y1="6.536628"
     y2="1.266435">
    <stop
       offset="0"
       stop-color="#555"
       id="stop2" />
    <stop
       offset="1"
       id="stop4" />
  </linearGradient>
  <path
     inkscape:connector-curvature="0"
     style="fill:#f3b7d9;fill-opacity:1;stroke:#e602b4;stroke-width:0.13229167;stroke-miterlimit:4;stroke-dasharray:none;stroke-opacity:1;stroke-linecap:round;stroke-linejoin:round"
     id="path7"
     d="m 0.73544483,1.5713588 q -0.0952583,0 -0.38103316,0.1164268 v -0.07409 L 1.3069945,1.132112 1.3493315,1.142696 v 3.1752763 q 0,0.1905166 0.095258,0.24873 0.095258,0.058213 0.4074938,0.063506 v 0.079382 H 0.39145656 V 4.6302083 Q 0.68781573,4.619624 0.78836603,4.5455342 0.89420863,4.4661523 0.89420863,4.2174224 V 1.8200888 q 0,-0.24873 -0.1587638,-0.24873 z" />
  <path
     inkscape:connector-curvature="0"
     style="fill:#e602b4;fill-opacity:1;stroke:#9d3a9b;stroke-width:0.13229167;stroke-miterlimit:4;stroke-dasharray:none;stroke-opacity:1;stroke-linecap:round;stroke-linejoin:round"
     id="path9"
     d="m 2.778125,4.1010417 q 0.121719,0 0.206393,0.089966 0.089966,0.089966 0.089966,0.2116851 0,0.1164268 -0.089966,0.2011009 -0.089966,0.084674 -0.2116851,0.084674 -0.1164268,0 -0.2011008,-0.084674 -0.084674,-0.084674 -0.084674,-0.2011009 0,-0.1217189 0.084674,-0.2116851 0.089966,-0.089966 0.2063929,-0.089966 z" />
  <path
     inkscape:connector-curvature="0"
     style="fill:#f3b7d9;fill-opacity:1;stroke:#e602b4;stroke-width:0.13229167;stroke-miterlimit:4;stroke-dasharray:none;stroke-opacity:1;stroke-linecap:round;stroke-linejoin:round"
     id="path11"
     d="m 5.6885417,4.2333333 q -0.3281118,0.5080442 -0.8679088,0.5080442 -0.539797,0 -0.8679089,-0.5186285 -0.3281118,-0.5186285 -0.3281118,-1.333616 0,-0.7673585 0.3281118,-1.2806948 0.3281119,-0.5186285 0.8890774,-0.5186285 0.5186285,0 0.8467403,0.5080442 0.3281119,0.5080443 0.3281119,1.3230318 0,0.8044034 -0.3281119,1.3124476 z M 4.825925,1.2274051 q -0.6932686,0 -0.6932686,1.709357 0,1.6670201 0.6879765,1.6670201 0.6879765,0 0.6879765,-1.6723122 0,-0.830864 -0.1746402,-1.2648184 Q 5.159329,1.2274051 4.825925,1.2274051 Z" />
</svg>
