<?xml version="1.0" encoding="UTF-8"?>
<svg xmlns="http://www.w3.org/2000/svg" xmlns:xlink="http://www.w3.org/1999/xlink" width="24px" height="24px" viewBox="0 0 24 24" version="1.1">
<g id="surface1">
<path style="fill-rule:nonzero;fill:rgb(95.294118%,71.764708%,85.09804%);fill-opacity:1;stroke-width:0.0661458;stroke-linecap:round;stroke-linejoin:round;stroke:rgb(90.196079%,0.392157%,70.588237%);stroke-opacity:1;stroke-miterlimit:4;" d="M 1.440739 0.228065 L 3.305225 2.519743 L 3.305225 0.890213 C 3.305225 0.701421 3.271463 0.571886 3.203939 0.500228 C 3.136415 0.425814 3.004812 0.37965 2.808442 0.361735 L 2.808442 0.228065 L 3.957037 0.228065 L 3.957037 0.361735 C 3.782715 0.389985 3.669027 0.430637 3.615283 0.48438 C 3.565674 0.53399 3.540869 0.635965 3.540869 0.788927 L 3.540869 3.935677 L 3.390663 3.935677 L 1.003212 1.029395 L 1.003212 3.177067 C 1.003212 3.365858 1.034907 3.496083 1.098985 3.567052 C 1.166509 3.634576 1.303624 3.68074 1.51033 3.706234 L 1.51033 3.839215 L 0.297656 3.839215 L 0.297656 3.706234 C 0.493337 3.68074 0.620117 3.642155 0.677306 3.588412 C 0.73725 3.534668 0.767567 3.432004 0.767567 3.278353 L 0.767567 0.746208 C 0.63941 0.593245 0.545014 0.491271 0.48438 0.441661 C 0.424436 0.387918 0.367247 0.361735 0.313503 0.361735 L 0.313503 0.228065 Z M 1.440739 0.228065 " transform="matrix(5.669291,0,0,5.669291,0.00000135166,0)"/>
</g>
</svg>
