<?xml version="1.0" encoding="UTF-8" standalone="no"?>
<svg
   xmlns:dc="http://purl.org/dc/elements/1.1/"
   xmlns:cc="http://creativecommons.org/ns#"
   xmlns:rdf="http://www.w3.org/1999/02/22-rdf-syntax-ns#"
   xmlns:svg="http://www.w3.org/2000/svg"
   xmlns="http://www.w3.org/2000/svg"
   xmlns:sodipodi="http://sodipodi.sourceforge.net/DTD/sodipodi-0.dtd"
   xmlns:inkscape="http://www.inkscape.org/namespaces/inkscape"
   height="24"
   viewBox="0 0 6.3499999 6.3500002"
   width="24"
   id="svg2"
   version="1.1"
   inkscape:version="0.91 r13725"
   sodipodi:docname="lc_italic.svg"
   inkscape:export-filename="/home/tamara/Desktop/IKON/5_258 (tamara)/ca/lc_italic.png"
   inkscape:export-xdpi="90"
   inkscape:export-ydpi="90">
  <metadata
     id="metadata24">
    <rdf:RDF>
      <cc:Work
         rdf:about="">
        <dc:format>image/svg+xml</dc:format>
        <dc:type
           rdf:resource="http://purl.org/dc/dcmitype/StillImage" />
      </cc:Work>
    </rdf:RDF>
  </metadata>
  <defs
     id="defs22" />
  <sodipodi:namedview
     pagecolor="#ffffff"
     bordercolor="#666666"
     borderopacity="1"
     objecttolerance="10"
     gridtolerance="10"
     guidetolerance="10"
     inkscape:pageopacity="0"
     inkscape:pageshadow="2"
     inkscape:window-width="1366"
     inkscape:window-height="718"
     id="namedview20"
     showgrid="true"
     inkscape:zoom="9.8333333"
     inkscape:cx="-12.660878"
     inkscape:cy="15.568411"
     inkscape:window-x="0"
     inkscape:window-y="0"
     inkscape:window-maximized="1"
     inkscape:current-layer="svg2">
    <inkscape:grid
       type="xygrid"
       id="grid8014" />
  </sodipodi:namedview>
  <linearGradient
     id="a"
     gradientUnits="userSpaceOnUse"
     x1="8.155843"
     x2="25.13029"
     y1="13.550412"
     y2="13.550412">
    <stop
       offset="0"
       stop-color="#3b3e22"
       id="stop5" />
    <stop
       offset="1"
       stop-color="#454545"
       stop-opacity="0"
       id="stop7" />
  </linearGradient>
  <linearGradient
     id="b"
     gradientUnits="userSpaceOnUse"
     x1="15.854425"
     x2="16.862748"
     y1="28.750872"
     y2="5.559443">
    <stop
       offset="0"
       stop-color="#555"
       id="stop10" />
    <stop
       offset="1"
       id="stop12" />
  </linearGradient>
  <g
     transform="matrix(0.171875,0,0,0.171875,0.38356126,0.24338215)"
     id="g14"
     style="fill:#f3b7d9;fill-opacity:1;stroke:#e601b4;stroke-width:0.38484851;stroke-linecap:round;stroke-linejoin:round;stroke-miterlimit:4;stroke-dasharray:none;stroke-opacity:1">
    <path
       d="m 19.986031,5.040166 q 1.341069,0 3.28209,0.4234955 1.976313,0.4234956 2.293935,0.4234956 0.952865,0 1.341069,-0.7764085 l 0.741117,0 -1.305778,7.0229684 -0.635243,-0.105874 q -0.52937,-5.7171903 -5.399569,-5.7171903 -3.599712,0 -6.246559,2.7174299 -2.082187,2.1527694 -3.282091,5.1878204 -1.164613,2.999761 -1.164613,6.140686 0,3.423256 1.6234,5.328986 1.623399,1.90573 4.552577,1.90573 2.152769,0 3.917334,-0.917573 1.799856,-0.917574 4.199665,-3.2468 l 0.599952,0.494078 q -2.399809,2.788013 -4.658452,4.023208 -2.258643,1.235196 -4.976073,1.235196 -4.058499,0 -6.6347636,-2.576265 -2.5762648,-2.576265 -2.5762648,-6.634764 0,-3.846751 1.9763127,-7.305299 Q 9.6456803,9.2045391 12.963062,7.1223525 16.315736,5.040166 19.986031,5.040166 Z"
       id="path16"
       style="fill:#f3b7d9;fill-opacity:1;stroke:#e601b4;stroke-width:0.38484851;stroke-linecap:round;stroke-linejoin:round;stroke-miterlimit:4;stroke-dasharray:none;stroke-opacity:1"
       inkscape:connector-curvature="0" />
  </g>
</svg>
