<?xml version="1.0" encoding="UTF-8"?>
<svg xmlns="http://www.w3.org/2000/svg" xmlns:xlink="http://www.w3.org/1999/xlink" width="24px" height="24px" viewBox="0 0 24 24" version="1.1">
<g id="surface1">
<path style="fill-rule:nonzero;fill:rgb(95.294118%,71.764708%,85.09804%);fill-opacity:1;stroke-width:0.529167;stroke-linecap:round;stroke-linejoin:round;stroke:rgb(90.196079%,0.392157%,70.588237%);stroke-opacity:1;stroke-miterlimit:4;" d="M 20.629991 2.527839 C 21.715885 2.527839 23.038802 2.698715 24.604253 3.040469 C 26.202778 3.382222 27.12882 3.553099 27.382379 3.553099 C 28.15408 3.553099 28.694271 3.244419 29.008464 2.616033 L 29.906945 2.616033 L 28.324957 11.121285 L 27.553255 10.994506 C 27.12882 6.375322 24.946007 4.065729 21.015842 4.065729 C 18.110937 4.065729 15.586371 5.16816 13.447656 7.361997 C 11.766449 9.098325 10.443532 11.192943 9.473393 13.640339 C 8.536327 16.065687 8.062282 18.540643 8.062282 21.081746 C 8.062282 23.843335 8.718228 25.993074 10.030121 27.530965 C 11.342013 29.074368 13.17756 29.840557 15.542274 29.840557 C 17.284114 29.840557 18.866102 29.471243 20.288238 28.727102 C 21.743446 27.988474 23.435677 26.676581 25.375955 24.796937 L 26.103559 25.397762 C 24.163281 27.64672 22.283637 29.272806 20.459114 30.270505 C 18.634592 31.268205 16.628168 31.764299 14.434331 31.764299 C 11.1546 31.764299 8.475693 30.722502 6.397612 28.64442 C 4.31953 26.566338 3.277733 23.887432 3.277733 20.607701 C 3.277733 17.504359 4.076995 14.555357 5.670008 11.760695 C 7.296093 8.971546 9.445832 6.733612 12.124739 5.052405 C 14.831206 3.371198 17.664453 2.527839 20.629991 2.527839 Z M 20.629991 2.527839 " transform="matrix(0.708661,0,0,0.708661,0.864697,-0.197632)"/>
</g>
</svg>
