<?xml version="1.0" encoding="UTF-8"?>
<svg xmlns="http://www.w3.org/2000/svg" xmlns:xlink="http://www.w3.org/1999/xlink" width="24px" height="24px" viewBox="0 0 24 24" version="1.1">
<g id="surface1">
<path style="fill-rule:nonzero;fill:rgb(95.294118%,71.764708%,85.09804%);fill-opacity:1;stroke-width:0.132292;stroke-linecap:butt;stroke-linejoin:miter;stroke:rgb(90.196079%,0.784314%,70.588237%);stroke-opacity:1;stroke-miterlimit:4;" d="M 0.607026 1.070047 C 0.56155 1.070047 0.469911 1.098297 0.332107 1.155485 L 0.332107 1.101053 L 1.019748 0.748275 L 1.050754 0.755854 L 1.050754 3.084739 C 1.050754 3.177756 1.073492 3.239079 1.118967 3.267329 C 1.165131 3.295579 1.262972 3.311426 1.413178 3.313493 L 1.413178 3.37206 L 0.358979 3.37206 L 0.358979 3.313493 C 0.501606 3.30867 0.597379 3.287999 0.645611 3.251481 C 0.696598 3.212896 0.722092 3.13297 0.722092 3.011014 L 0.722092 1.252637 C 0.722092 1.131369 0.683507 1.070047 0.607026 1.070047 Z M 0.607026 1.070047 " transform="matrix(5.669291,0,0,5.669291,0.00000135166,0)"/>
<path style="fill-rule:nonzero;fill:rgb(95.294118%,71.764708%,85.09804%);fill-opacity:1;stroke-width:0.124168;stroke-linecap:butt;stroke-linejoin:miter;stroke:rgb(90.196079%,0.784314%,70.588237%);stroke-opacity:1;stroke-miterlimit:4;" d="M 1.855528 2.969672 C 1.912028 2.969672 1.960948 2.990343 2.000222 3.031684 C 2.042252 3.073714 2.063612 3.121946 2.063612 3.178445 C 2.063612 3.232189 2.042252 3.278353 2.000222 3.317627 C 1.958192 3.356212 1.908583 3.375505 1.851394 3.375505 C 1.796962 3.375505 1.750108 3.356212 1.710145 3.317627 C 1.670871 3.278353 1.65089 3.232189 1.65089 3.178445 C 1.65089 3.121946 1.670871 3.073714 1.710145 3.031684 C 1.752864 2.990343 1.801096 2.969672 1.855528 2.969672 Z M 1.855528 2.969672 " transform="matrix(5.669291,0,0,5.669291,0.00000135166,0)"/>
<path style="fill-rule:nonzero;fill:rgb(95.294118%,71.764708%,85.09804%);fill-opacity:1;stroke-width:0.132292;stroke-linecap:butt;stroke-linejoin:miter;stroke:rgb(90.196079%,0.784314%,70.588237%);stroke-opacity:1;stroke-miterlimit:4;" d="M 3.653868 3.006191 C 3.496083 3.254926 3.28731 3.37895 3.02755 3.37895 C 2.76779 3.37895 2.558328 3.25217 2.400542 2.998611 C 2.242757 2.745052 2.164209 2.418457 2.164209 2.020204 C 2.164209 1.644689 2.242757 1.331874 2.400542 1.081071 C 2.558328 0.827512 2.772613 0.700732 3.042708 0.700732 C 3.292133 0.700732 3.496083 0.824756 3.653868 1.072803 C 3.811654 1.321539 3.890891 1.644689 3.890891 2.043631 C 3.890891 2.437061 3.811654 2.757455 3.653868 3.006191 Z M 3.030995 0.801329 C 2.69751 0.801329 2.530767 1.219564 2.530767 2.055344 C 2.530767 2.870454 2.696132 3.277664 3.02755 3.277664 C 3.358279 3.277664 3.523644 2.869076 3.523644 2.05121 C 3.523644 1.644689 3.481613 1.336008 3.397553 1.12379 C 3.313493 0.908816 3.191536 0.801329 3.030995 0.801329 Z M 3.030995 0.801329 " transform="matrix(5.669291,0,0,5.669291,0.00000135166,0)"/>
</g>
</svg>
