<?xml version="1.0" encoding="UTF-8"?>
<svg xmlns="http://www.w3.org/2000/svg" xmlns:xlink="http://www.w3.org/1999/xlink" width="24px" height="24px" viewBox="0 0 24 24" version="1.1">
<g id="surface1">
<path style="fill-rule:nonzero;fill:rgb(95.294118%,71.764708%,85.09804%);fill-opacity:1;stroke-width:0.529167;stroke-linecap:round;stroke-linejoin:round;stroke:rgb(90.196079%,0.392157%,70.588237%);stroke-opacity:1;stroke-miterlimit:4;" d="M 20.703647 21.548741 C 20.703647 20.303694 20.264789 19.202999 19.387073 18.246658 C 18.509357 17.260244 17.448784 16.424197 16.200129 15.732504 C 14.951474 15.046826 13.702819 14.343103 12.454164 13.621336 C 11.231631 12.881525 10.186731 11.937214 9.309016 10.794417 C 8.4313 9.651619 7.992442 8.322365 7.992442 6.81267 C 7.992442 4.791723 8.671627 3.161733 10.024772 1.910671 C 11.409264 0.63555 13.028859 -0.00201107 14.883555 -0.00201107 C 16.001598 -0.00201107 17.208457 0.226548 18.509357 0.677653 C 19.810257 1.128757 20.593932 1.357316 20.860382 1.357316 C 21.550015 1.357316 21.978424 0.900197 22.135159 -0.00201107 L 22.971079 -0.00201107 L 23.848795 8.484763 L 22.850915 8.484763 C 22.213527 6.145036 21.231321 4.41881 19.904298 3.306087 C 18.603398 2.193363 17.156212 1.633994 15.56274 1.633994 C 14.340208 1.633994 13.347553 1.976833 12.574327 2.668526 C 11.806326 3.360219 11.419713 4.250398 11.419713 5.339063 C 11.419713 6.397654 11.86902 7.408128 12.772858 8.364469 C 13.676696 9.320809 15.176127 10.385415 17.276376 11.552272 C 19.904298 12.959717 21.800791 14.355133 22.971079 15.732504 C 24.141366 17.085817 24.72651 18.589497 24.72651 20.237532 C 24.72651 22.282537 23.942836 24.008763 22.375486 25.416208 C 20.808137 26.79358 18.880297 27.485273 16.597191 27.485273 C 15.270168 27.485273 13.917023 27.262728 12.537756 26.805609 C 11.179386 26.354505 10.343466 26.13196 10.024772 26.13196 C 9.7322 26.13196 9.481424 26.264284 9.26722 26.528932 C 9.05824 26.769521 8.938076 27.076272 8.911954 27.44317 L 8.034238 27.44317 L 6.837828 18.998499 L 7.75734 18.998499 C 8.739545 21.416417 9.878486 23.196775 11.179386 24.339573 C 12.480286 25.48237 14.021513 26.053769 15.803067 26.053769 C 17.260702 26.053769 18.446663 25.638753 19.345277 24.814736 C 20.249115 23.96666 20.703647 22.877995 20.703647 21.548741 Z M 20.703647 21.548741 " transform="matrix(0.747679,0,0,0.649448,0.184372,0.21615)"/>
<path style="fill-rule:nonzero;fill:rgb(95.294118%,71.764708%,85.09804%);fill-opacity:1;stroke-width:0.529167;stroke-linecap:round;stroke-linejoin:round;stroke:rgb(90.196079%,0.392157%,70.588237%);stroke-opacity:1;stroke-miterlimit:4;" d="M 0.469763 31.74883 L 33.392059 31.74883 C 33.655527 31.74883 33.868544 32.023509 33.868544 32.359851 L 33.868544 33.256764 C 33.868544 33.593106 33.655527 33.867785 33.392059 33.867785 L 0.469763 33.867785 C 0.211901 33.867785 -0.00111622 33.593106 -0.00111622 33.256764 L -0.00111622 32.359851 C -0.00111622 32.023509 0.211901 31.74883 0.469763 31.74883 Z M 0.469763 31.74883 " transform="matrix(0.696835,0,0,0.696835,0.184372,0.21615)"/>
<path style="fill-rule:nonzero;fill:rgb(95.294118%,71.764708%,85.09804%);fill-opacity:1;stroke-width:0.529167;stroke-linecap:round;stroke-linejoin:round;stroke:rgb(90.196079%,0.392157%,70.588237%);stroke-opacity:1;stroke-miterlimit:4;" d="M 0.469763 27.516524 L 33.392059 27.516524 C 33.655527 27.516524 33.868544 27.791203 33.868544 28.121939 L 33.868544 29.024458 C 33.868544 29.3608 33.655527 29.635479 33.392059 29.635479 L 0.469763 29.635479 C 0.211901 29.635479 -0.00111622 29.3608 -0.00111622 29.024458 L -0.00111622 28.121939 C -0.00111622 27.791203 0.211901 27.516524 0.469763 27.516524 Z M 0.469763 27.516524 " transform="matrix(0.696835,0,0,0.696835,0.184372,0.21615)"/>
</g>
</svg>
