<?xml version="1.0" encoding="UTF-8" standalone="no"?>
<svg
   xmlns:dc="http://purl.org/dc/elements/1.1/"
   xmlns:cc="http://creativecommons.org/ns#"
   xmlns:rdf="http://www.w3.org/1999/02/22-rdf-syntax-ns#"
   xmlns:svg="http://www.w3.org/2000/svg"
   xmlns="http://www.w3.org/2000/svg"
   xmlns:sodipodi="http://sodipodi.sourceforge.net/DTD/sodipodi-0.dtd"
   xmlns:inkscape="http://www.inkscape.org/namespaces/inkscape"
   height="16"
   viewBox="0 0 4.2333333 4.2333335"
   width="16"
   id="svg2"
   version="1.1"
   inkscape:version="0.91 r13725"
   sodipodi:docname="sc_underlinedouble.svg"
   inkscape:export-filename="/home/tamara/Desktop/IKON/5_258 (tamara)/ca/sc_underlinedouble.png"
   inkscape:export-xdpi="90"
   inkscape:export-ydpi="90">
  <metadata
     id="metadata30">
    <rdf:RDF>
      <cc:Work
         rdf:about="">
        <dc:format>image/svg+xml</dc:format>
        <dc:type
           rdf:resource="http://purl.org/dc/dcmitype/StillImage" />
      </cc:Work>
    </rdf:RDF>
  </metadata>
  <defs
     id="defs28" />
  <sodipodi:namedview
     pagecolor="#ffffff"
     bordercolor="#666666"
     borderopacity="1"
     objecttolerance="10"
     gridtolerance="10"
     guidetolerance="10"
     inkscape:pageopacity="0"
     inkscape:pageshadow="2"
     inkscape:window-width="1366"
     inkscape:window-height="718"
     id="namedview26"
     showgrid="true"
     inkscape:zoom="29.5"
     inkscape:cx="-1.3254702"
     inkscape:cy="7.7630249"
     inkscape:window-x="0"
     inkscape:window-y="0"
     inkscape:window-maximized="1"
     inkscape:current-layer="svg2">
    <inkscape:grid
       type="xygrid"
       id="grid8022" />
  </sodipodi:namedview>
  <linearGradient
     id="a"
     gradientTransform="matrix(.93199686 0 0 .93199687 1.175104 -247.51751)"
     gradientUnits="userSpaceOnUse"
     x1="18.981825"
     x2="20.202982"
     y1="294.72055"
     y2="266.63391">
    <stop
       offset="0"
       stop-color="#555"
       id="stop5" />
    <stop
       offset="1"
       id="stop7" />
  </linearGradient>
  <linearGradient
     id="b"
     gradientTransform="matrix(.26458334 0 0 .22982191 4.615978 -1.826154)"
     gradientUnits="userSpaceOnUse"
     x1="17.634766"
     x2="76.054688"
     y1="43.589844"
     y2="43.589844">
    <stop
       offset="0"
       stop-color="#3b3e22"
       id="stop10" />
    <stop
       offset="1"
       stop-color="#454545"
       stop-opacity="0"
       id="stop12" />
  </linearGradient>
  <g
     transform="matrix(0.12291395,0,0,0.12291395,0.03252086,0.03812643)"
     id="g14"
     style="fill:#f3b7d9;fill-opacity:1;stroke:#e601b4;stroke-width:0.5291667;stroke-linecap:round;stroke-linejoin:round;stroke-miterlimit:4;stroke-dasharray:none;stroke-opacity:1">
    <path
       d="m 20.701319,21.550218 q 0,-1.8722 -1.314523,-3.306225 -1.314524,-1.47386 -3.186724,-2.509545 -1.8722,-1.035685 -3.7444,-2.111205 Q 10.623306,12.50789 9.3087823,10.795026 7.9942588,9.0821621 7.9942588,6.8116216 q 0,-3.0273875 2.0315362,-4.8995876 Q 12.097165,-2.1e-7 14.885549,-2.1e-7 q 1.67303,0 3.624898,0.67717877 1.951868,0.67717874 2.350208,0.67717874 1.035686,0 1.27469,-1.35435751 l 0.836515,0 0.876349,8.48465171 -0.995851,0 q -0.956017,-3.505396 -2.94772,-5.1784259 -1.951868,-1.67303 -4.341911,-1.67303 -1.832366,0 -2.987553,1.0356852 -1.155187,1.0356852 -1.155187,2.6688811 0,1.5933618 1.354357,3.0273874 1.354358,1.4340257 4.501247,3.1867237 3.943571,2.111204 5.696269,4.182575 1.752698,2.031536 1.752698,4.501247 0,3.067221 -2.350209,5.178426 -2.350208,2.07137 -5.775936,2.07137 -1.991703,0 -4.063073,-0.677179 -2.031536,-0.677178 -2.509545,-0.677178 -0.4381744,0 -0.7568467,0.39834 -0.3186724,0.358506 -0.3585065,0.916183 l -0.876349,0 -1.1950213,-8.444818 0.916183,0 q 1.4738597,3.624899 3.4257275,5.337763 1.951869,1.712863 4.62075,1.712863 2.190872,0 3.54523,-1.234855 1.354357,-1.274689 1.354357,-3.266392 z"
       transform="scale(1.0729649,0.93199692)"
       id="path16"
       style="fill:#f3b7d9;fill-opacity:1;stroke:#e601b4;stroke-width:0.5291667;stroke-linecap:round;stroke-linejoin:round;stroke-miterlimit:4;stroke-dasharray:none;stroke-opacity:1"
       inkscape:connector-curvature="0" />
    <g
       id="g20"
       style="fill:#f3b7d9;fill-opacity:1;stroke:#e601b4;stroke-width:0.5291667;stroke-linecap:round;stroke-linejoin:round;stroke-miterlimit:4;stroke-dasharray:none;stroke-opacity:1">
      <rect
         height="2.116667"
         rx="0.47207499"
         ry="0.60722399"
         width="33.866669"
         y="31.750002"
         id="rect22"
         style="fill:#f3b7d9;fill-opacity:1;stroke:#e601b4;stroke-width:0.5291667;stroke-linecap:round;stroke-linejoin:round;stroke-miterlimit:4;stroke-dasharray:none;stroke-opacity:1"
         x="0" />
      <rect
         height="2.116667"
         rx="0.47207499"
         ry="0.60722399"
         width="33.866669"
         y="27.516666"
         id="rect24"
         style="fill:#f3b7d9;fill-opacity:1;stroke:#e601b4;stroke-width:0.5291667;stroke-linecap:round;stroke-linejoin:round;stroke-miterlimit:4;stroke-dasharray:none;stroke-opacity:1"
         x="0" />
    </g>
  </g>
</svg>
