<?xml version="1.0" encoding="UTF-8" standalone="no"?>
<svg
   xmlns:dc="http://purl.org/dc/elements/1.1/"
   xmlns:cc="http://creativecommons.org/ns#"
   xmlns:rdf="http://www.w3.org/1999/02/22-rdf-syntax-ns#"
   xmlns:svg="http://www.w3.org/2000/svg"
   xmlns="http://www.w3.org/2000/svg"
   xmlns:sodipodi="http://sodipodi.sourceforge.net/DTD/sodipodi-0.dtd"
   xmlns:inkscape="http://www.inkscape.org/namespaces/inkscape"
   height="32"
   width="32"
   version="1.1"
   id="svg115"
   sodipodi:docname="lc_dataprovider.svg"
   inkscape:version="0.92.3 (2405546, 2018-03-11)">
  <metadata
     id="metadata121">
    <rdf:RDF>
      <cc:Work
         rdf:about="">
        <dc:format>image/svg+xml</dc:format>
        <dc:type
           rdf:resource="http://purl.org/dc/dcmitype/StillImage" />
        <dc:title></dc:title>
      </cc:Work>
    </rdf:RDF>
  </metadata>
  <defs
     id="defs119" />
  <sodipodi:namedview
     pagecolor="#ffffff"
     bordercolor="#666666"
     borderopacity="1"
     objecttolerance="10"
     gridtolerance="10"
     guidetolerance="10"
     inkscape:pageopacity="0"
     inkscape:pageshadow="2"
     inkscape:window-width="1366"
     inkscape:window-height="705"
     id="namedview117"
     showgrid="true"
     inkscape:zoom="16"
     inkscape:cx="18.57241"
     inkscape:cy="15.340089"
     inkscape:window-x="-8"
     inkscape:window-y="-8"
     inkscape:window-maximized="1"
     inkscape:current-layer="svg115">
    <inkscape:grid
       type="xygrid"
       id="grid928" />
  </sodipodi:namedview>
  <filter
     id="a">
    <feGaussianBlur
       stdDeviation="1.0394514"
       id="feGaussianBlur2" />
  </filter>
  <filter
     id="b">
    <feGaussianBlur
       stdDeviation=".50063244"
       id="feGaussianBlur5" />
  </filter>
  <radialGradient
     id="c"
     cx="102"
     cy="112.3047"
     gradientUnits="userSpaceOnUse"
     r="139.5585">
    <stop
       offset="0"
       stop-color="#00537d"
       id="stop8" />
    <stop
       offset=".0151"
       stop-color="#186389"
       id="stop10" />
    <stop
       offset=".0558"
       stop-color="#558ca8"
       id="stop12" />
    <stop
       offset=".0964"
       stop-color="#89afc3"
       id="stop14" />
    <stop
       offset=".1357"
       stop-color="#b3ccd8"
       id="stop16" />
    <stop
       offset=".1737"
       stop-color="#d4e2e9"
       id="stop18" />
    <stop
       offset=".2099"
       stop-color="#ecf2f5"
       id="stop20" />
    <stop
       offset=".2435"
       stop-color="#fafcfd"
       id="stop22" />
    <stop
       offset=".2722"
       stop-color="#fff"
       id="stop24" />
  </radialGradient>
  <radialGradient
     id="d"
     cx="102"
     cy="112.3047"
     gradientTransform="matrix(0.9787234,0,0,0.9818182,1.361704,1.163632)"
     gradientUnits="userSpaceOnUse"
     r="139.55859">
    <stop
       offset="0"
       stop-color="#535557"
       id="stop27" />
    <stop
       offset=".11366145"
       stop-color="#898a8c"
       id="stop29" />
    <stop
       offset=".20296688"
       stop-color="#ececec"
       id="stop31" />
    <stop
       offset=".2363"
       stop-color="#fafafa"
       id="stop33" />
    <stop
       offset=".2722"
       stop-color="#fff"
       id="stop35" />
    <stop
       offset=".5313"
       stop-color="#fafafa"
       id="stop37" />
    <stop
       offset=".8449"
       stop-color="#ebecec"
       id="stop39" />
    <stop
       offset="1"
       stop-color="#e1e2e3"
       id="stop41" />
  </radialGradient>
  <filter
     id="e"
     height="1.247155"
     width="1.247155"
     x="-0.123577"
     y="-0.123577">
    <feGaussianBlur
       stdDeviation="1.7720846"
       id="feGaussianBlur44" />
  </filter>
  <filter
     id="f">
    <feGaussianBlur
       stdDeviation=".90565481"
       id="feGaussianBlur47" />
  </filter>
  <linearGradient
     id="g"
     gradientUnits="userSpaceOnUse"
     x1="85.219681"
     x2="61.336319"
     y1="93.219681"
     y2="69.336319">
    <stop
       offset="0"
       id="stop50" />
    <stop
       offset="1"
       stop-color="#393b38"
       id="stop52" />
  </linearGradient>
  <filter
     id="h">
    <feGaussianBlur
       stdDeviation=".4901192"
       id="feGaussianBlur55" />
  </filter>
  <linearGradient
     id="i"
     gradientUnits="userSpaceOnUse"
     x1="96"
     x2="88.000198"
     y1="104"
     y2="96.000198">
    <stop
       offset="0"
       stop-color="#888a85"
       id="stop58" />
    <stop
       offset=".0072"
       stop-color="#8c8e89"
       id="stop60" />
    <stop
       offset=".0673"
       stop-color="#abaca9"
       id="stop62" />
    <stop
       offset=".1347"
       stop-color="#c5c6c4"
       id="stop64" />
    <stop
       offset=".2115"
       stop-color="#dbdbda"
       id="stop66" />
    <stop
       offset=".3012"
       stop-color="#ebebeb"
       id="stop68" />
    <stop
       offset=".4122"
       stop-color="#f7f7f6"
       id="stop70" />
    <stop
       offset=".5679"
       stop-color="#fdfdfd"
       id="stop72" />
    <stop
       offset="1"
       stop-color="#fff"
       id="stop74" />
  </linearGradient>
  <linearGradient
     id="j"
     gradientTransform="matrix(0.28494299,0,0,0.34511728,0.597009,263.04019)"
     gradientUnits="userSpaceOnUse"
     x1="46.048"
     x2="46.048"
     y1="128.01709"
     y2="16.6203">
    <stop
       offset="0"
       stop-color="#c7cdd7"
       id="stop77" />
    <stop
       offset="1"
       stop-color="#fff"
       id="stop79" />
  </linearGradient>
  <linearGradient
     id="k"
     gradientUnits="userSpaceOnUse"
     x1="67.266975"
     x2="67.266975"
     y1="304.08835"
     y2="-40.112503">
    <stop
       offset="0"
       id="stop82" />
    <stop
       offset="1"
       stop-color="#fff"
       id="stop84" />
  </linearGradient>
  <g
     id="g941"
     transform="matrix(2.0000009,0,0,2.0000009,-1.3447047e-5,-32.000041)">
    <g
       id="g107"
       transform="matrix(0.125,0,0,0.125,0,16.000013)">
      <path
         style="fill:#9d3a9b"
         inkscape:connector-curvature="0"
         id="path93"
         d="M 16.000002,7.999995 V 120 h 61.172 c 0.53,0 1.039,-0.211 1.414,-0.586 L 111.414,86.585995 c 0.375,-0.375 0.586,-0.884 0.586,-1.414 v -77.172 z" />
      <path
         style="fill:#f0e3ec"
         inkscape:connector-curvature="0"
         id="path95"
         d="m 24.678725,15.999995 c -0.539276,0 -0.978723,0.440836 -0.978723,0.981818 l 0.3,94.036367 c 0,0.54197 0.439447,0.98182 0.978723,0.98182 h 51.913022 c 0.257404,0 0.509915,-0.10407 0.691957,-0.28767 L 103.71323,85.481195 C 103.89626,85.297595 104,85.045268 104,84.78705 V 16.981813 c 0,-0.540982 -0.43847,-0.981818 -0.97872,-0.981818 z" />
      <g
         id="g105"
         transform="translate(2e-6,-5e-6)">
        <path
           style="opacity:0.90684904;filter:url(#e)"
           inkscape:connector-curvature="0"
           id="path97"
           d="M 111.414,86.586 C 111.664,86.336 85.035,85 80,85 c -1.654,0 -3,1.346 -3,3 0,5.035 1.336,31.664 1.586,31.414 z" />
        <path
           style="opacity:0.2;filter:url(#f)"
           inkscape:connector-curvature="0"
           id="path99"
           d="M 111.414,86.586 C 111.789,86.211 89.444,86 80,86 c -1.103,0 -2,0.897 -2,2 0,9.444 0.211,31.789 0.586,31.414 z" />
        <path
           style="opacity:0.1;fill:url(#g);filter:url(#h)"
           inkscape:connector-curvature="0"
           id="path101"
           d="M 111.414,86.586 C 111.653,86.347 89.807,87 80,87 c -0.553,0 -1,0.447 -1,1 0,9.807 -0.653,31.653 -0.414,31.414 z" />
        <path
           style="fill:url(#i)"
           inkscape:connector-curvature="0"
           id="path103"
           d="m 78.586,119.414 c 0,0 11.914,-9.914 17.414,-15.414 5.5,-5.5 15.414,-17.414 15.414,-17.414 0,0 -21.164,1.414 -31.414,1.414 0,10.25 -1.414,31.414 -1.414,31.414 z" />
      </g>
    </g>
    <g
       id="g113"
       transform="matrix(0.47244095,0,0,0.47244095,0,-106.32901)">
      <path
         style="fill:#f3b7d9"
         inkscape:connector-curvature="0"
         id="path109"
         d="m 12.7,269.51309 h 19.050001 v 22.225 H 12.7 Z" />
      <path
         style="fill:#e602b4"
         inkscape:connector-curvature="0"
         id="path111"
         transform="matrix(0.26458333,0,0,0.26458333,0,258.92976)"
         d="m 40,35.999986 v 4.113266 24 4 27.886733 4 24.113285 3.88672 h 8 32 8 32 8 v -3.88672 -88.113284 z m 8,4.113266 h 32 v 24 H 48 Z m 40,0 h 32 v 24 H 88 Z m -40,28 H 80 V 95.999985 H 48 Z m 40,0 h 32 V 95.999985 H 88 Z M 48,99.999985 H 80 V 124.11327 H 48 Z m 40,0 h 32 V 124.11327 H 88 Z" />
    </g>
  </g>
</svg>
