<?xml version="1.0" encoding="UTF-8" standalone="no"?>
<svg
   xmlns:dc="http://purl.org/dc/elements/1.1/"
   xmlns:cc="http://creativecommons.org/ns#"
   xmlns:rdf="http://www.w3.org/1999/02/22-rdf-syntax-ns#"
   xmlns:svg="http://www.w3.org/2000/svg"
   xmlns="http://www.w3.org/2000/svg"
   xmlns:sodipodi="http://sodipodi.sourceforge.net/DTD/sodipodi-0.dtd"
   xmlns:inkscape="http://www.inkscape.org/namespaces/inkscape"
   height="32"
   viewBox="0 0 32 32"
   width="32"
   version="1.1"
   id="svg112"
   sodipodi:docname="lc_dbqueryopen.svg"
   inkscape:version="0.92.3 (2405546, 2018-03-11)">
  <metadata
     id="metadata118">
    <rdf:RDF>
      <cc:Work
         rdf:about="">
        <dc:format>image/svg+xml</dc:format>
        <dc:type
           rdf:resource="http://purl.org/dc/dcmitype/StillImage" />
        <dc:title></dc:title>
      </cc:Work>
    </rdf:RDF>
  </metadata>
  <defs
     id="defs116" />
  <sodipodi:namedview
     pagecolor="#ffffff"
     bordercolor="#666666"
     borderopacity="1"
     objecttolerance="10"
     gridtolerance="10"
     guidetolerance="10"
     inkscape:pageopacity="0"
     inkscape:pageshadow="2"
     inkscape:window-width="1366"
     inkscape:window-height="705"
     id="namedview114"
     showgrid="true"
     inkscape:zoom="14.75"
     inkscape:cx="14.62544"
     inkscape:cy="15.164338"
     inkscape:window-x="-8"
     inkscape:window-y="-8"
     inkscape:window-maximized="1"
     inkscape:current-layer="svg112">
    <inkscape:grid
       type="xygrid"
       id="grid925" />
  </sodipodi:namedview>
  <clipPath
     id="a">
    <rect
       height="40.457153"
       rx="4"
       width="80.914307"
       x="30.971436"
       y="939.09216"
       id="rect2" />
  </clipPath>
  <linearGradient
     id="b"
     gradientTransform="matrix(0.1133598,0,0,0.1691546,0.642795,-76.95463)"
     gradientUnits="userSpaceOnUse"
     x1="399.77466"
     x2="399.77466"
     y1="681.00012"
     y2="549.33234">
    <stop
       offset="0"
       stop-color="#cbcbcd"
       id="stop5" />
    <stop
       offset=".5"
       stop-color="#e0e0e2"
       id="stop7" />
    <stop
       offset="1"
       stop-color="#fff"
       id="stop9" />
  </linearGradient>
  <filter
     id="c">
    <feGaussianBlur
       stdDeviation="2.4"
       id="feGaussianBlur12" />
  </filter>
  <linearGradient
     id="d"
     gradientUnits="userSpaceOnUse"
     x1="8"
     x2="8"
     y1="5"
     y2="15">
    <stop
       offset="0"
       stop-color="#5678c8"
       id="stop15" />
    <stop
       offset=".94117647"
       stop-color="#3f59ae"
       id="stop17" />
    <stop
       offset="1"
       stop-color="#3d7cdb"
       id="stop19" />
  </linearGradient>
  <linearGradient
     id="e"
     gradientUnits="userSpaceOnUse"
     x1="5.5"
     x2="5.5"
     y1="12"
     y2="13">
    <stop
       offset="0"
       stop-color="#174072"
       id="stop22" />
    <stop
       offset="1"
       stop-color="#174072"
       stop-opacity="0"
       id="stop24" />
  </linearGradient>
  <linearGradient
     id="f"
     gradientUnits="userSpaceOnUse"
     x1="9"
     x2="9"
     y1="-1"
     y2="10">
    <stop
       offset="0"
       stop-color="#102134"
       id="stop27" />
    <stop
       offset="1"
       stop-color="#102134"
       stop-opacity="0"
       id="stop29" />
  </linearGradient>
  <filter
     id="g"
     height="1.267833"
     width="1.129187"
     x="-0.064594001"
     y="-0.133917"
     style="color-interpolation-filters:sRGB">
    <feGaussianBlur
       stdDeviation="3.1247207"
       id="feGaussianBlur32" />
  </filter>
  <linearGradient
     id="h"
     gradientUnits="userSpaceOnUse"
     x1="0.37740999"
     x2="0.37740999"
     y1="5.2146521"
     y2="3.309088">
    <stop
       offset="0"
       stop-color="#34608f"
       id="stop35" />
    <stop
       offset="1"
       stop-color="#34608f"
       stop-opacity="0"
       id="stop37" />
  </linearGradient>
  <linearGradient
     id="i"
     gradientTransform="matrix(0.21345221,0,0,0.1138394,-11.411169,-103.22724)"
     gradientUnits="userSpaceOnUse"
     x1="124.01234"
     x2="124.01234"
     y1="966.51019"
     y2="935.34326">
    <stop
       offset="0"
       id="stop40" />
    <stop
       offset="1"
       stop-color="#34608f"
       stop-opacity="0"
       id="stop42" />
  </linearGradient>
  <linearGradient
     id="j"
     gradientUnits="userSpaceOnUse"
     x1="55"
     x2="55"
     y1="1036.4132"
     y2="1032.4822">
    <stop
       offset="0"
       stop-color="#003d7b"
       id="stop45" />
    <stop
       offset="1"
       stop-color="#003d7b"
       stop-opacity="0"
       id="stop47" />
  </linearGradient>
  <filter
     id="k"
     height="1.697208"
     width="1.0278879"
     x="-0.013944"
     y="-0.34860399"
     style="color-interpolation-filters:sRGB">
    <feGaussianBlur
       stdDeviation=".70882694"
       id="feGaussianBlur50" />
  </filter>
  <filter
     id="l"
     height="1.869989"
     width="1.027669"
     x="-0.013834"
     y="-0.43499401"
     style="color-interpolation-filters:sRGB">
    <feGaussianBlur
       stdDeviation=".70324038"
       id="feGaussianBlur53" />
  </filter>
  <g
     id="g949"
     transform="matrix(2.0000002,0,0,2.0000002,0.0714247,-32.000004)">
    <g
       id="g82"
       transform="matrix(0.125,0,0,0.125,0,15)">
      <path
         style="fill:#f3b7d9"
         inkscape:connector-curvature="0"
         id="path58"
         d="M 7.999997,16 H 120 v 96 H 7.999997 Z" />
      <path
         style="fill:#ffffff;fill-opacity:0.756881"
         inkscape:connector-curvature="0"
         id="path60"
         d="m 78.20266,37.61897 v -2.7448 z" />
      <path
         style="fill:#f0e3ec"
         inkscape:connector-curvature="0"
         id="path62"
         d="m 8,40 h 112 v 72 H 8 Z" />
      <g
         style="fill:#cacacc"
         id="g80">
        <path
           style="fill:#f3b7d9"
           inkscape:connector-curvature="0"
           id="path64"
           d="M 15.999997,64 H 56 v 8 H 15.999997 Z" />
        <path
           style="fill:#f3b7d9"
           inkscape:connector-curvature="0"
           id="path66"
           d="M 15.999997,48 H 56 v 8 H 15.999997 Z" />
        <path
           style="fill:#f3b7d9"
           inkscape:connector-curvature="0"
           id="path68"
           d="m 72,48 h 40 v 8 H 72 Z" />
        <path
           inkscape:connector-curvature="0"
           id="path70"
           d="m 72,64 h 40 v 8 H 72 Z" />
        <path
           style="fill:#f3b7d9"
           inkscape:connector-curvature="0"
           id="path72"
           d="M 15.999997,80 H 56 v 8 H 15.999997 Z" />
        <path
           inkscape:connector-curvature="0"
           id="path74"
           d="m 72,80 h 40 v 8 H 72 Z" />
        <path
           style="fill:#f3b7d9"
           inkscape:connector-curvature="0"
           id="path76"
           d="M 15.999997,96 H 56 v 8 H 15.999997 Z" />
        <path
           inkscape:connector-curvature="0"
           id="path78"
           d="m 72,96 h 40 v 8 H 72 Z" />
      </g>
    </g>
    <path
       inkscape:connector-curvature="0"
       style="fill:#9d3a9b"
       id="path88"
       d="M 4.5,21 C 4,21 4,21.382694 4,21.5 V 23 l -10e-8,2.999999 c 0,0.554 0.446,1 1,1 L 15,27 c 0.554,0 1,-0.446 1,-1 v -2.999999 c 0,-0.554 -0.446,-1 -1,-1 L 9.9042969,22 C 9.8200959,21.514049 9.7262959,21 9.5,21 Z" />
    <path
       inkscape:connector-curvature="0"
       style="fill:#f0e3ec"
       id="path90"
       d="m 4.9999999,21.999999 h 3 v 1 h -3 z" />
    <path
       inkscape:connector-curvature="0"
       style="opacity:0.25;fill:#f3b7d9"
       id="path92"
       d="m 4.4999999,20.999999 c -0.5,0 -0.5,0.382694 -0.5,0.5 v 1.5 3 c 0,0.554 0.446,1 1,1 v -4 -1 h 3.8828125 c 0.013345,0.06853 0.023996,0.09424 0.037109,0.169922 0.082673,0.47922 0.4980774,0.829511 0.9843754,0.830078 H 11 L 15,23 v 4 c 0.554,0 1,-0.446 1,-1 v -3 c 0,-0.554 -0.446,-1 -1,-1 l -5.0957032,-1e-6 c -0.084201,-0.48595 -0.178001,-1 -0.4042969,-1 z" />
    <path
       inkscape:connector-curvature="0"
       style="fill:#e602b4"
       id="path94"
       d="m 7,22 h 1 v 1 H 7 Z" />
    <path
       inkscape:connector-curvature="0"
       style="fill:#9d3a9b;fill-opacity:1"
       id="path98"
       d="m 4.9999999,25.999999 h 2.5 l 1,-1 L 15,25 c 0.554,0 1,0.446 1,1 v 4 c 0,0.554 -0.446,1 -1,1 l -10.0000001,-1e-6 c -0.554,0 -1,-0.446 -1,-1 v -3 c 0,-0.554 0.5673986,-1.346081 1,-1 z" />
    <path
       inkscape:connector-curvature="0"
       style="fill:#e602b4"
       id="path100"
       d="m 8.4999999,24.999999 -1,1 h -2.5 c -0.554,0 -1,0.446 -1,1 v 1 c 0,-0.554 0.5673987,-1.346081 1,-1 h 2.5 l 1,-1 L 15,26 c 0.554,0 1,0.446 1,1 v -1 c 0,-0.554 -0.446,-1 -1,-1 z" />
    <path
       style="fill:#385da4"
       inkscape:connector-curvature="0"
       id="path102"
       d="M 3.9999999,27.999999 16,28 v 1 l -12.0000001,-1e-6 z" />
    <path
       inkscape:connector-curvature="0"
       style="fill:#e602b4;fill-opacity:1"
       id="path104"
       d="M 3.9999999,27.999999 H 11 L 16,28 v 1 l -12.0000001,-1e-6 z" />
    <path
       inkscape:connector-curvature="0"
       style="fill:#f3b7d9"
       id="path106"
       d="M 3.9999999,28.999999 16,29 v 0.5 l -12.0000001,-1e-6 z" />
  </g>
</svg>
