<?xml version="1.0" encoding="UTF-8" standalone="no"?>
<svg
   xmlns:dc="http://purl.org/dc/elements/1.1/"
   xmlns:cc="http://creativecommons.org/ns#"
   xmlns:rdf="http://www.w3.org/1999/02/22-rdf-syntax-ns#"
   xmlns:svg="http://www.w3.org/2000/svg"
   xmlns="http://www.w3.org/2000/svg"
   xmlns:sodipodi="http://sodipodi.sourceforge.net/DTD/sodipodi-0.dtd"
   xmlns:inkscape="http://www.inkscape.org/namespaces/inkscape"
   height="32"
   viewBox="0 0 8.4666666 8.466667"
   width="32"
   version="1.1"
   id="svg22"
   sodipodi:docname="lc_datainrows.svg"
   inkscape:version="0.92.3 (2405546, 2018-03-11)">
  <metadata
     id="metadata28">
    <rdf:RDF>
      <cc:Work
         rdf:about="">
        <dc:format>image/svg+xml</dc:format>
        <dc:type
           rdf:resource="http://purl.org/dc/dcmitype/StillImage" />
        <dc:title></dc:title>
      </cc:Work>
    </rdf:RDF>
  </metadata>
  <defs
     id="defs26" />
  <sodipodi:namedview
     pagecolor="#ffffff"
     bordercolor="#666666"
     borderopacity="1"
     objecttolerance="10"
     gridtolerance="10"
     guidetolerance="10"
     inkscape:pageopacity="0"
     inkscape:pageshadow="2"
     inkscape:window-width="1366"
     inkscape:window-height="705"
     id="namedview24"
     showgrid="true"
     inkscape:zoom="16"
     inkscape:cx="15.187984"
     inkscape:cy="16.750826"
     inkscape:window-x="-8"
     inkscape:window-y="-8"
     inkscape:window-maximized="1"
     inkscape:current-layer="svg22">
    <inkscape:grid
       type="xygrid"
       id="grid835" />
  </sodipodi:namedview>
  <linearGradient
     id="a"
     gradientUnits="userSpaceOnUse"
     x1="8"
     x2="8.4083719"
     y1="29.000006"
     y2="-6.9999981">
    <stop
       offset="0"
       id="stop2" />
    <stop
       offset="1"
       stop-color="#fff"
       id="stop4" />
  </linearGradient>
  <linearGradient
     id="b"
     gradientTransform="matrix(0.28494299,0,0,0.34511728,0.597009,263.04019)"
     gradientUnits="userSpaceOnUse"
     x1="46.048"
     x2="46.048"
     y1="128.01709"
     y2="16.6203">
    <stop
       offset="0"
       stop-color="#c7cdd7"
       id="stop7" />
    <stop
       offset="1"
       stop-color="#fff"
       id="stop9" />
  </linearGradient>
  <g
     id="g842"
     transform="matrix(2,0,0,2,0,-8.4666693)">
    <g
       id="g20"
       transform="matrix(0.125,0,0,0.125,0,-28.658332)">
      <path
         inkscape:connector-curvature="0"
         style="fill:#9d3a9b;stroke-width:0.99724329"
         id="path12"
         d="M 2.116667,265.25 H 31.75 v 27.49286 H 2.116667 Z" />
      <path
         inkscape:connector-curvature="0"
         style="fill:#f3b7d9;stroke-width:0.47244099"
         id="path14"
         transform="matrix(2.1166667,0,0,2.1166667,0,263.13332)"
         d="M 0,1 V 1.5878906 4 4.5 7 7.5 10 10.5 13.513672 14 h 1 14 1 V 13.513672 7.5 7 1 H 1 Z M 1,1.5878906 H 15 V 4 H 1 Z M 1,4.5 H 15 V 7 H 1 Z m 0,3 H 15 V 10 H 1 Z m 0,3 h 14 v 3.013672 H 1 Z" />
      <path
         inkscape:connector-curvature="0"
         style="fill:#f0e3ec;stroke-width:0.31524301"
         id="path16"
         d="m 10.583333,266.30832 v 25.42894 H 2.1166667 v -25.42894 z" />
      <path
         inkscape:connector-curvature="0"
         style="fill:#e602b4;stroke-width:0.26458299"
         id="path18"
         d="M 0.0537435,265.24999 C 0.02349058,265.24999 0,265.27959 0,265.31613 v 1.17823 5.10563 1.05833 5.29167 1.05833 5.29167 1.05833 6.37894 0.96325 c 0,0.0365 0.02349058,0.0661 0.0537435,0.0661 H 2.1166667 12.646257 c 0.03025,0 0.05374,-0.0296 0.05374,-0.0661 v -0.96325 -6.37894 -1.05833 -5.29167 -6.41615 -0.99218 -5.10563 -1.17823 c 0,-0.0365 -0.02349,-0.0661 -0.05374,-0.0661 H 2.1166667 Z m 2.0629232,1.24437 h 8.4666673 v 5.10563 H 2.1166667 Z m 0,6.16396 h 8.4666673 v 5.29167 H 2.1166667 Z m 0,6.35 h 8.4666673 v 5.29167 H 2.1166667 Z m 0,6.35 h 8.4666673 v 6.37894 H 2.1166667 Z" />
    </g>
  </g>
</svg>
