<?xml version="1.0" encoding="UTF-8" standalone="no"?>
<svg
   xmlns:dc="http://purl.org/dc/elements/1.1/"
   xmlns:cc="http://creativecommons.org/ns#"
   xmlns:rdf="http://www.w3.org/1999/02/22-rdf-syntax-ns#"
   xmlns:svg="http://www.w3.org/2000/svg"
   xmlns="http://www.w3.org/2000/svg"
   xmlns:xlink="http://www.w3.org/1999/xlink"
   xmlns:sodipodi="http://sodipodi.sourceforge.net/DTD/sodipodi-0.dtd"
   xmlns:inkscape="http://www.inkscape.org/namespaces/inkscape"
   height="32"
   width="32"
   version="1.1"
   id="svg194"
   sodipodi:docname="lc_dbnewquerysql.svg"
   inkscape:version="0.92.3 (2405546, 2018-03-11)">
  <metadata
     id="metadata200">
    <rdf:RDF>
      <cc:Work
         rdf:about="">
        <dc:format>image/svg+xml</dc:format>
        <dc:type
           rdf:resource="http://purl.org/dc/dcmitype/StillImage" />
        <dc:title></dc:title>
      </cc:Work>
    </rdf:RDF>
  </metadata>
  <defs
     id="defs198">
    <radialGradient
       inkscape:collect="always"
       xlink:href="#l"
       id="radialGradient1017"
       gradientUnits="userSpaceOnUse"
       gradientTransform="matrix(1.7097296,0.06452833,-0.05216787,0.9870304,-1209.4918,-86.255073)"
       cx="949.33209"
       cy="517.87024"
       fx="941.93115"
       fy="440.16125"
       r="119.39729" />
    <radialGradient
       inkscape:collect="always"
       xlink:href="#l"
       id="radialGradient1019"
       gradientUnits="userSpaceOnUse"
       gradientTransform="matrix(1.7097296,0.06452833,-0.05216787,0.9870304,-1209.4918,-86.255073)"
       cx="949.33209"
       cy="517.87024"
       fx="941.93115"
       fy="440.16125"
       r="119.39729" />
  </defs>
  <sodipodi:namedview
     pagecolor="#ffffff"
     bordercolor="#666666"
     borderopacity="1"
     objecttolerance="10"
     gridtolerance="10"
     guidetolerance="10"
     inkscape:pageopacity="0"
     inkscape:pageshadow="2"
     inkscape:window-width="1366"
     inkscape:window-height="705"
     id="namedview196"
     showgrid="true"
     inkscape:zoom="14.75"
     inkscape:cx="17.742437"
     inkscape:cy="17.282215"
     inkscape:window-x="-8"
     inkscape:window-y="-8"
     inkscape:window-maximized="1"
     inkscape:current-layer="svg194"
     inkscape:snap-global="false">
    <inkscape:grid
       type="xygrid"
       id="grid1007" />
  </sodipodi:namedview>
  <linearGradient
     id="a"
     gradientUnits="userSpaceOnUse"
     spreadMethod="reflect"
     x1="341.5318"
     x2="341.5318"
     y1="528.58008"
     y2="700.07751">
    <stop
       offset="0"
       stop-color="#fcfcfc"
       id="stop2" />
    <stop
       offset="1"
       stop-color="#c0c0c0"
       id="stop4" />
  </linearGradient>
  <radialGradient
     id="b"
     cx="902.44019"
     cy="573.33636"
     fy="777.67505"
     gradientTransform="matrix(1.0000001,0,0,0.7898656,-515.84706,106.14197)"
     gradientUnits="userSpaceOnUse"
     r="252.67184"
     xlink:href="#q" />
  <radialGradient
     id="c"
     cx="949.33209"
     cy="517.87024"
     fx="941.93115"
     fy="440.16125"
     gradientTransform="matrix(1.7097296,0.06452833,-0.05216787,0.9870304,-1209.4918,-86.255073)"
     gradientUnits="userSpaceOnUse"
     r="119.39729"
     xlink:href="#l" />
  <radialGradient
     id="d"
     cx="1302.5156"
     cy="396.677"
     gradientTransform="matrix(1.4615497,0,0,0.7922186,-1517.0981,316.29645)"
     gradientUnits="userSpaceOnUse"
     r="252.67184"
     xlink:href="#p" />
  <linearGradient
     id="e"
     gradientUnits="userSpaceOnUse"
     x1="1228.4824"
     x2="1228.4824"
     y1="349.26135"
     y2="687.31006">
    <stop
       offset="0"
       id="stop10" />
    <stop
       offset="1"
       stop-color="#474747"
       stop-opacity="0"
       id="stop12" />
  </linearGradient>
  <filter
     id="f"
     height="1.072142"
     width="1.071866"
     x="-0.035932999"
     y="-0.036070999"
     style="color-interpolation-filters:sRGB">
    <feGaussianBlur
       stdDeviation=".66434216"
       id="feGaussianBlur15" />
  </filter>
  <radialGradient
     id="g"
     cx="-55.685837"
     cy="-347.11612"
     gradientTransform="matrix(-0.91762954,-0.24587809,0.26650439,-0.99460792,-14.509941,-705.18366)"
     gradientUnits="userSpaceOnUse"
     r="22.14249">
    <stop
       offset="0"
       stop-color="#82c133"
       id="stop18" />
    <stop
       offset="1"
       stop-color="#72b028"
       id="stop20" />
  </radialGradient>
  <linearGradient
     id="h"
     gradientUnits="userSpaceOnUse"
     x1="328.12448"
     x2="336.98077"
     y1="120.81158"
     y2="87.759453">
    <stop
       offset="0"
       stop-color="#96ff00"
       id="stop23" />
    <stop
       offset="1"
       stop-color="#609800"
       id="stop25" />
  </linearGradient>
  <clipPath
     id="i">
    <circle
       cx="343.91208"
       cy="92.325096"
       r="36"
       transform="matrix(0.86602539,0.50000002,0.49999965,-0.86602561,0,0)"
       id="circle28" />
  </clipPath>
  <filter
     id="j">
    <feGaussianBlur
       stdDeviation="2.8805897"
       id="feGaussianBlur31" />
  </filter>
  <radialGradient
     id="k"
     cx="343.99899"
     cy="92"
     gradientTransform="matrix(0.46130197,0,0,0.46130166,-219.03541,-372.17548)"
     gradientUnits="userSpaceOnUse"
     r="36">
    <stop
       offset="0"
       stop-color="#e5ff00"
       id="stop34" />
    <stop
       offset="1"
       stop-color="#bff500"
       stop-opacity="0"
       id="stop36" />
  </radialGradient>
  <linearGradient
     id="l">
    <stop
       offset="0"
       stop-color="#fff"
       id="stop39" />
    <stop
       offset="1"
       stop-color="#fff"
       stop-opacity="0"
       id="stop41" />
  </linearGradient>
  <linearGradient
     id="m"
     gradientTransform="matrix(0,0.51133072,-0.51133109,0,76.138665,324.51289)"
     gradientUnits="userSpaceOnUse"
     x1="-80.00296"
     x2="-45.096584"
     xlink:href="#l"
     y1="-131.93112"
     y2="-131.93112" />
  <linearGradient
     id="n"
     gradientUnits="userSpaceOnUse"
     x1="122.00004"
     x2="122.00004"
     y1="61.999996"
     y2="9.9328432">
    <stop
       offset="0"
       stop-color="#314d00"
       stop-opacity="0"
       id="stop45" />
    <stop
       offset=".5"
       stop-color="#194d00"
       id="stop47" />
    <stop
       offset="1"
       stop-color="#2d4d00"
       stop-opacity="0"
       id="stop49" />
  </linearGradient>
  <filter
     id="o">
    <feGaussianBlur
       stdDeviation="1.04"
       id="feGaussianBlur52" />
  </filter>
  <linearGradient
     id="p"
     xlink:href="#l" />
  <linearGradient
     id="q">
    <stop
       offset="0"
       stop-color="#fff"
       id="stop56" />
    <stop
       offset=".13883302"
       stop-color="#bcbcbc"
       id="stop58" />
    <stop
       offset=".27766603"
       stop-color="#8f8f8f"
       id="stop60" />
    <stop
       offset=".34831479"
       stop-color="#f2f2f2"
       id="stop62" />
    <stop
       offset=".51983202"
       stop-color="#bbb"
       id="stop64" />
    <stop
       offset=".69134921"
       stop-color="#3f3f3f"
       id="stop66" />
    <stop
       offset=".71995538"
       stop-color="#8f8f8f"
       id="stop68" />
    <stop
       offset=".82474411"
       stop-color="#a4a4a4"
       id="stop70" />
    <stop
       offset=".91127253"
       stop-color="#5e5e5e"
       id="stop72" />
    <stop
       offset="1"
       stop-color="#acacac"
       id="stop74" />
  </linearGradient>
  <filter
     id="r">
    <feGaussianBlur
       stdDeviation="4.7167893"
       id="feGaussianBlur77" />
  </filter>
  <filter
     id="s">
    <feGaussianBlur
       stdDeviation="4.19576"
       id="feGaussianBlur80" />
  </filter>
  <filter
     id="t">
    <feGaussianBlur
       stdDeviation="1.6009629"
       id="feGaussianBlur83" />
  </filter>
  <filter
     id="u">
    <feGaussianBlur
       stdDeviation=".46407361"
       id="feGaussianBlur86" />
  </filter>
  <filter
     id="v">
    <feGaussianBlur
       stdDeviation="6.421369"
       id="feGaussianBlur89" />
  </filter>
  <linearGradient
     id="w"
     gradientUnits="userSpaceOnUse"
     x1="99.465668"
     x2="99.465668"
     y1="120.62987"
     y2="90.83989">
    <stop
       offset="0"
       id="stop92" />
    <stop
       offset="1"
       stop-opacity="0"
       id="stop94" />
  </linearGradient>
  <radialGradient
     id="x"
     cx="949.33209"
     cy="517.87024"
     fx="941.93115"
     fy="440.16125"
     gradientTransform="matrix(0.3791376,-0.00599606,-7e-8,0.2162218,-295.92749,-82.282556)"
     gradientUnits="userSpaceOnUse"
     r="119.39729"
     xlink:href="#p" />
  <radialGradient
     id="y"
     cx="902.44019"
     cy="573.33636"
     fy="777.67505"
     gradientTransform="matrix(0.2216259,0,0,0.1778449,-136.00416,-61.563674)"
     gradientUnits="userSpaceOnUse"
     r="252.67184"
     xlink:href="#q" />
  <linearGradient
     id="z"
     gradientUnits="userSpaceOnUse"
     x1="46.270016"
     x2="46.270016"
     y1="39.291824"
     y2="23.014645">
    <stop
       offset="0"
       stop-color="#222"
       id="stop99" />
    <stop
       offset="1"
       stop-opacity="0"
       id="stop101" />
  </linearGradient>
  <g
     transform="matrix(0.24987965,0,0,0.24987965,-0.23944763,0.0154045)"
     id="g192">
    <g
       transform="matrix(0.2216259,0,0,0.2156826,-21.67909,-30.789701)"
       id="g120">
      <path
         d="M 594.20979,637.24835 A 252.67799,126.339 0 0 1 341.5318,763.58735 252.67799,126.339 0 0 1 88.853806,637.24835 252.67799,126.339 0 0 1 341.5318,510.90936 252.67799,126.339 0 0 1 594.20979,637.24835 Z"
         transform="translate(45.061429,-113.57703)"
         id="path110"
         inkscape:connector-curvature="0"
         style="fill:#f0e3ec" />
      <path
         d="m 639.26508,523.65926 c 0,69.7391 -113.2092,126.34375 -252.6874,126.34375 -138.7519,-2e-5 -251.4856,-56.01143 -252.6563,-125.25 l 1,50.25 c 0,69.73913 112.2092,126.34376 251.6876,126.34375 139.4782,0 251.6561,-56.60462 251.6561,-126.34375 z"
         id="path112"
         inkscape:connector-curvature="0"
         style="fill:#f3b7d9;stroke:#e602b4;stroke-width:9.14770603;stroke-linecap:round;stroke-linejoin:round;stroke-miterlimit:4;stroke-dasharray:none;stroke-opacity:1" />
      <path
         d="m 566.27727,486.15744 c 12.7997,40.36672 -63.6135,75.70779 -179.1824,75.70779 -121.1539,0 -196.2125,-36.47311 -179.1823,-75.70779 22.2134,-51.17628 102.4871,-75.70779 179.1823,-75.70779 73.9186,0 164.7584,30.21836 179.1824,75.70779 z"
         id="path114"
         inkscape:connector-curvature="0"
         style="fill:url(#radialGradient1017)" />
    </g>
    <g
       transform="matrix(0.2216259,0,0,0.2156826,-21.67909,-47.289701)"
       id="g134">
      <path
         d="M 594.20979,637.24835 A 252.67799,126.339 0 0 1 341.5318,763.58735 252.67799,126.339 0 0 1 88.853806,637.24835 252.67799,126.339 0 0 1 341.5318,510.90936 252.67799,126.339 0 0 1 594.20979,637.24835 Z"
         transform="translate(45.061429,-113.57703)"
         id="path124"
         inkscape:connector-curvature="0"
         style="fill:#f0e3ec" />
      <path
         d="m 639.26508,523.65926 c 0,69.7391 -113.2092,126.34375 -252.6874,126.34375 -138.7519,-2e-5 -251.4856,-56.01143 -252.6563,-125.25 l 1,50.25 c 0,69.73913 112.2092,126.34376 251.6876,126.34375 139.4782,0 251.6561,-56.60462 251.6561,-126.34375 z"
         id="path126"
         inkscape:connector-curvature="0"
         style="fill:#f3b7d9;stroke:#e602b4;stroke-width:9.14770603;stroke-linecap:round;stroke-linejoin:round;stroke-miterlimit:4;stroke-dasharray:none;stroke-opacity:1" />
      <path
         d="m 566.27727,486.15744 c 12.7997,40.36672 -63.6135,75.70779 -179.1824,75.70779 -121.1539,0 -196.2125,-36.47311 -179.1823,-75.70779 22.2134,-51.17628 102.4871,-75.70779 179.1823,-75.70779 73.9186,0 164.7584,30.21836 179.1824,75.70779 z"
         id="path128"
         inkscape:connector-curvature="0"
         style="fill:url(#radialGradient1019)" />
    </g>
    <g
       transform="matrix(0.2216259,0,0,0.2156826,-21.67909,-62.989701)"
       id="g148">
      <path
         d="M 594.20979,637.24835 A 252.67799,126.339 0 0 1 341.5318,763.58735 252.67799,126.339 0 0 1 88.853806,637.24835 252.67799,126.339 0 0 1 341.5318,510.90936 252.67799,126.339 0 0 1 594.20979,637.24835 Z"
         transform="translate(45.061429,-113.57703)"
         id="path138"
         inkscape:connector-curvature="0"
         style="fill:#f0e3ec" />
      <path
         d="m 639.26508,523.65926 c 0,69.7391 -113.2092,126.34375 -252.6874,126.34375 -138.7519,-2e-5 -251.4856,-56.01143 -252.6563,-125.25 l 1,50.25 c 0,69.73913 112.2092,126.34376 251.6876,126.34375 139.4782,0 251.6561,-56.60462 251.6561,-126.34375 z"
         id="path140"
         inkscape:connector-curvature="0"
         style="fill:#f3b7d9;stroke:#e602b4;stroke-width:9.14770603;stroke-linecap:round;stroke-linejoin:round;stroke-miterlimit:4;stroke-dasharray:none;stroke-opacity:1" />
      <path
         d="m 566.27727,486.15744 c 12.7997,40.36672 -63.6135,75.70779 -179.1824,75.70779 -121.1539,0 -196.2125,-36.47311 -179.1823,-75.70779 22.2134,-51.17628 102.4871,-75.70779 179.1823,-75.70779 73.9186,0 164.7584,30.21836 179.1824,75.70779 z"
         id="path142"
         inkscape:connector-curvature="0"
         style="fill:url(#c)" />
    </g>
    <path
       d="m 594.20979,637.24835 a 252.67799,126.339 0 1 1 -505.355984,0 252.67799,126.339 0 1 1 505.355984,0 z"
       transform="matrix(0.2216259,0,0,0.2251584,-11.69231,-110.83553)"
       id="path152"
       inkscape:connector-curvature="0"
       style="fill:#f0e3ec;stroke:#e602b4;stroke-width:8.95314598;stroke-linecap:round;stroke-linejoin:round;stroke-miterlimit:4;stroke-dasharray:none;stroke-opacity:1" />
    <path
       d="m 119.99861,32.44385 c 0,15.702343 -25.090092,28.447356 -56.002074,28.447356 C 33.245522,60.891201 8.2608138,48.279762 8.0013564,32.690117 l 0.2216259,11.314209 c 0,15.702351 24.8684647,28.447359 55.7804907,28.447356 30.911982,0 55.773507,-12.745005 55.773507,-28.447356 z"
       id="path154"
       inkscape:connector-curvature="0"
       style="fill:#f3b7d9;stroke:#e602b4;stroke-width:2;stroke-linecap:round;stroke-linejoin:round;stroke-miterlimit:4;stroke-dasharray:none;stroke-opacity:1" />
    <path
       d="m 8.3261719,7.84375 c -0.5451014,0 -1.0718394,0.087983 -1.5566407,0.2988281 C 6.4702486,8.2718685 6.2010396,8.4588816 5.953125,8.671875 A 1.1441629,1.1441629 0 0 0 5.546875,8.3476562 C 5.390124,8.2737164 5.2343093,8.2077874 5.078125,8.1484375 4.9154189,8.086609 4.750676,8.0331812 4.5859375,7.9902344 4.4177956,7.9457436 4.2464933,7.9123276 4.0742188,7.8886719 3.8952885,7.8637752 3.7136748,7.8515625 3.53125,7.8515625 c -0.3662784,0 -0.7288678,0.049033 -1.0761719,0.1621094 a 1.1441629,1.1441629 0 0 0 -0.00391,0 C 2.1082403,8.1266375 1.7798427,8.307583 1.5039062,8.5546875 1.224619,8.8024309 1.004298,9.1191024 0.86132812,9.4570312 a 1.1441629,1.1441629 0 0 0 -0.001953,0.00586 c -0.14613643,0.35164 -0.2089845,0.7273598 -0.2089845,1.0976558 0,0.380588 0.0658662,0.769652 0.23828126,1.134765 a 1.1441629,1.1441629 0 0 0 0.001953,0.0059 c 0.0870438,0.181767 0.20036762,0.350024 0.32421882,0.511719 a 1.1441629,1.1441629 0 0 0 -0.62890632,1.021484 v 1.082031 a 1.1441629,1.1441629 0 0 0 0.61328132,1.013672 c 0.3037356,0.1591 0.6287896,0.276125 0.9648437,0.351563 a 1.1441629,1.1441629 0 0 0 0.00195,0 c 0.3324154,0.07387 0.6745514,0.109375 1.0195313,0.109375 0.3969891,0 0.783885,-0.04881 1.1542969,-0.167969 0.3563236,-0.113849 0.6977835,-0.289691 0.9902343,-0.541016 a 1.1441629,1.1441629 0 0 0 0.00195,0 c 0.1298722,-0.11189 0.2442082,-0.243485 0.3496094,-0.380859 0.3027031,0.333005 0.6688936,0.610495 1.0800782,0.791016 a 1.1441629,1.1441629 0 0 0 0.00195,0 c 0.3491394,0.152044 0.725538,0.22258 1.109375,0.259765 L 8.0742188,16 h 4.0097652 a 1.1441629,1.1441629 0 0 0 -0.0059,-0.283203 H 15.08785 A 1.1441629,1.1441629 0 0 0 16,15.261719 V 12.921875 A 1.1441629,1.1441629 0 0 0 15.087891,12.464844 H 14.230469 V 9.0742188 A 1.1441629,1.1441629 0 0 0 13.085938,7.9296875 H 11.921875 A 1.1441629,1.1441629 0 0 0 10.8125,8.7929688 C 10.537152,8.5258671 10.22834,8.2944997 9.8769531,8.1425781 9.3942281,7.9313937 8.8686141,7.84375 8.3261719,7.84375 Z m 2.7402341,1.1894531 0.0078,0.00977 c -0.0013,-0.00166 -0.0045,-0.00225 -0.0059,-0.00391 -0.0014,-0.00164 -5.96e-4,-0.00422 -0.002,-0.00586 z M 8.3125,11.099609 c -0.00899,0.0027 0.020309,-8.43e-4 0.015625,0.002 0.014572,0.02663 0.037062,0.06567 0.058594,0.169922 a 1.1441629,1.1441629 0 0 0 0.00391,0.01563 C 8.41906,11.41649 8.4375,11.594415 8.4375,11.816406 c 0,0.22199 -0.019745,0.401374 -0.048828,0.535156 a 1.1441629,1.1441629 0 0 0 -0.00195,0.0098 c -0.021077,0.100949 -0.043266,0.139924 -0.058594,0.167969 -0.00817,10e-4 0.018056,-0.0039 -0.00977,-0.0039 -0.02321,0 0.00121,0.0047 -0.00586,0.0039 C 8.295546,12.498621 8.271053,12.453691 8.248045,12.349643 8.219113,12.215995 8.199217,12.037719 8.199217,11.81644 c 0,-0.22199 0.020393,-0.399916 0.048828,-0.529297 a 1.1441629,1.1441629 0 0 0 0,-0.0039 c 0.023799,-0.109474 0.048268,-0.154581 0.064453,-0.183594 z m -2.75,0.177735 0.015625,0.01758 c -0.00192,-0.0022 -0.00393,-0.0017 -0.00586,-0.0039 -0.00343,-0.0038 -0.00632,-0.0099 -0.00977,-0.01367 z m 3.0585938,4.488281 -0.039063,0.0059 c -0.049123,0.0082 -0.09564,0.01172 -0.1386718,0.01172 0.054802,-0.0028 0.1048228,-0.0028 0.1777344,-0.01758 z"
       transform="scale(8)"
       id="path164"
       inkscape:connector-curvature="0"
       style="fill:#9d3a9b;fill-opacity:0.98897101;stroke-width:0.125" />
    <g
       id="g172"
       style="stroke-width:1.54020405">
      <path
         d="m 40.649814,104.3628 q 0,2.94805 -1.022792,5.32454 -0.99271,2.3464 -2.948047,4.031 -1.925255,1.65452 -4.752974,2.55698 -2.797636,0.90246 -6.437572,0.90246 -3.188704,0 -6.166833,-0.6618 -2.948047,-0.66181 -5.474944,-1.98542 v -8.66365 q 1.443941,0.69189 2.917965,1.35369 1.474023,0.63173 2.978129,1.14312 1.534188,0.5114 3.038293,0.81222 1.534188,0.30082 3.038293,0.30082 1.534188,0 2.617144,-0.3309 1.113038,-0.36099 1.774845,-0.96263 0.691888,-0.63172 0.99271,-1.47402 0.330903,-0.87238 0.330903,-1.89517 0,-1.23337 -0.541478,-2.16592 -0.511396,-0.96262 -1.474024,-1.77484 -0.932545,-0.8423 -2.28624,-1.624435 -1.323613,-0.782135 -2.978129,-1.654516 -1.383778,-0.721971 -3.098458,-1.744763 -1.71468,-1.022792 -3.248868,-2.526897 -1.504106,-1.534188 -2.526897,-3.670018 -1.022792,-2.165912 -1.022792,-5.174123 0,-2.948047 0.962627,-5.26437 0.99271,-2.346405 2.797637,-3.940757 1.804927,-1.624434 4.361906,-2.466733 2.587062,-0.842299 5.775766,-0.842299 1.594352,0 3.098457,0.210575 1.534188,0.210575 3.008211,0.601642 1.504106,0.391067 3.008212,0.962628 1.504105,0.57156 3.098457,1.323613 l -3.008211,7.249789 q -1.353695,-0.631725 -2.526898,-1.113039 -1.173202,-0.481313 -2.28624,-0.812217 -1.113038,-0.330903 -2.195994,-0.481313 -1.052874,-0.180493 -2.13583,-0.180493 -2.346405,0 -3.609854,1.263449 -1.233366,1.233366 -1.233366,3.309032 0,1.113038 0.360985,1.985419 0.391068,0.8423 1.203285,1.594352 0.842299,0.752053 2.13583,1.534188 1.323612,0.782135 3.188703,1.774845 2.256159,1.203284 4.151332,2.466733 1.895173,1.233366 3.248868,2.767554 1.383777,1.504106 2.13583,3.429361 0.752053,1.925253 0.752053,4.512313 z"
         id="path166"
         inkscape:connector-curvature="0"
         style="fill:#f3b7d9" />
      <path
         d="m 86.284378,94.525953 q 0,3.579771 -0.601643,6.738397 -0.57156,3.12854 -1.774844,5.7156 -1.173203,2.58706 -2.978129,4.60256 -1.774845,2.0155 -4.211496,3.33912 l 10.859643,12.12309 H 75.605228 l -8.062006,-9.9271 q -0.210575,0 -0.391068,0.0301 -0.15041,0.0301 -0.330903,0.0301 -0.15041,0 -0.270739,0 -5.053795,0 -8.783977,-1.62443 -3.700099,-1.62443 -6.136751,-4.60256 -2.406569,-2.97813 -3.609853,-7.15955 -1.173202,-4.211492 -1.173202,-9.325451 0,-5.113959 1.173202,-9.265291 1.203284,-4.181413 3.639936,-7.12946 2.436651,-2.948047 6.13675,-4.542399 3.730182,-1.624434 8.814059,-1.624434 5.053795,0 8.753895,1.624434 3.7001,1.594352 6.106669,4.572481 2.436651,2.948047 3.609853,7.12946 1.203285,4.151332 1.203285,9.295373 z m -29.841456,0 q 0,3.459443 0.601643,6.226997 0.601642,2.73747 1.835009,4.66273 1.263448,1.89517 3.158621,2.91796 1.895173,1.02279 4.512317,1.02279 2.677308,0 4.572481,-1.02279 1.925255,-1.02279 3.12854,-2.91796 1.233366,-1.92526 1.804927,-4.66273 0.601642,-2.767554 0.601642,-6.226997 0,-3.459443 -0.601642,-6.196915 -0.571561,-2.767554 -1.804927,-4.692809 -1.203285,-1.925256 -3.098458,-2.948047 -1.895173,-1.022792 -4.542399,-1.022792 -2.617143,0 -4.542399,1.022792 -1.925255,1.022791 -3.188703,2.948047 -1.233367,1.925255 -1.835009,4.692809 -0.601643,2.737472 -0.601643,6.196915 z"
         id="path168"
         inkscape:connector-curvature="0"
         style="fill:#f3b7d9" />
      <path
         d="M 95.369174,116.57614 V 72.596093 h 9.325456 v 36.279027 h 16.00368 v 7.70102 z"
         id="path170"
         inkscape:connector-curvature="0"
         style="fill:#f3b7d9" />
    </g>
    <g
       transform="matrix(1.6750985,0,0,1.6750985,-150.15016,-469.91239)"
       id="g190">
      <ellipse
         cx="-217.13077"
         cy="255.38551"
         rx="22.14249"
         ry="22.142477"
         transform="matrix(-0.96592586,-0.2588189,-0.25881915,0.9659258,0,0)"
         id="ellipse174"
         style="fill:none;stroke-width:0.61506897" />
      <ellipse
         cx="-60.347961"
         cy="-329.73572"
         rx="21.035366"
         ry="21.035353"
         transform="rotate(165.00001)"
         id="ellipse178"
         style="fill:#e602b4" />
      <path
         d="m 140.03421,285.26955 v 13.70421 h -13.7042 v 7.1987 h 13.7042 v 13.7042 h 7.1987 v -13.7042 h 13.70421 v -7.1987 h -13.70421 v -13.70421 z"
         id="path188"
         inkscape:connector-curvature="0"
         style="fill:#f0e3ec;fill-rule:evenodd" />
    </g>
  </g>
</svg>
