<?xml version="1.0" encoding="UTF-8" standalone="no"?>
<svg
   xmlns:dc="http://purl.org/dc/elements/1.1/"
   xmlns:cc="http://creativecommons.org/ns#"
   xmlns:rdf="http://www.w3.org/1999/02/22-rdf-syntax-ns#"
   xmlns:svg="http://www.w3.org/2000/svg"
   xmlns="http://www.w3.org/2000/svg"
   xmlns:sodipodi="http://sodipodi.sourceforge.net/DTD/sodipodi-0.dtd"
   xmlns:inkscape="http://www.inkscape.org/namespaces/inkscape"
   height="32"
   viewBox="0 0 32 32"
   width="32"
   version="1.1"
   id="svg158"
   sodipodi:docname="lc_dbreportopen.svg"
   inkscape:version="0.92.3 (2405546, 2018-03-11)"
   inkscape:export-filename="D:\RZKDNSWR\PORTFOLIO\PROJECT LIBRELADIES\ICON LC PNG\sc_dbreportopen.png"
   inkscape:export-xdpi="96"
   inkscape:export-ydpi="96">
  <metadata
     id="metadata164">
    <rdf:RDF>
      <cc:Work
         rdf:about="">
        <dc:format>image/svg+xml</dc:format>
        <dc:type
           rdf:resource="http://purl.org/dc/dcmitype/StillImage" />
        <dc:title></dc:title>
      </cc:Work>
    </rdf:RDF>
  </metadata>
  <defs
     id="defs162" />
  <sodipodi:namedview
     pagecolor="#ffffff"
     bordercolor="#666666"
     borderopacity="1"
     objecttolerance="10"
     gridtolerance="10"
     guidetolerance="10"
     inkscape:pageopacity="0"
     inkscape:pageshadow="2"
     inkscape:window-width="1366"
     inkscape:window-height="705"
     id="namedview160"
     showgrid="true"
     inkscape:zoom="14.75"
     inkscape:cx="16.677504"
     inkscape:cy="17.772539"
     inkscape:window-x="-8"
     inkscape:window-y="-8"
     inkscape:window-maximized="1"
     inkscape:current-layer="svg158">
    <inkscape:grid
       type="xygrid"
       id="grid166" />
  </sodipodi:namedview>
  <clipPath
     id="a">
    <rect
       height="40.457153"
       rx="4"
       width="80.914307"
       x="30.971436"
       y="939.09216"
       id="rect2" />
  </clipPath>
  <filter
     id="b">
    <feGaussianBlur
       stdDeviation="1.0394514"
       id="feGaussianBlur5" />
  </filter>
  <filter
     id="c">
    <feGaussianBlur
       stdDeviation=".50063244"
       id="feGaussianBlur8" />
  </filter>
  <radialGradient
     id="d"
     cx="102"
     cy="112.3047"
     gradientUnits="userSpaceOnUse"
     r="139.5585">
    <stop
       offset="0"
       stop-color="#ecf2f5"
       id="stop11" />
    <stop
       offset=".2435"
       stop-color="#fafcfd"
       id="stop13" />
    <stop
       offset=".2722"
       stop-color="#fff"
       id="stop15" />
  </radialGradient>
  <radialGradient
     id="e"
     cx="102"
     cy="112.3047"
     gradientTransform="matrix(0.9787234,0,0,0.9818182,1.361705,1.163636)"
     gradientUnits="userSpaceOnUse"
     r="139.55859">
    <stop
       offset="0"
       stop-color="#ececec"
       id="stop18" />
    <stop
       offset=".2363"
       stop-color="#fafafa"
       id="stop20" />
    <stop
       offset=".2722"
       stop-color="#fff"
       id="stop22" />
    <stop
       offset=".5313"
       stop-color="#fafafa"
       id="stop24" />
    <stop
       offset=".8449"
       stop-color="#ebecec"
       id="stop26" />
    <stop
       offset="1"
       stop-color="#e1e2e3"
       id="stop28" />
  </radialGradient>
  <linearGradient
     id="f"
     gradientUnits="userSpaceOnUse"
     x1="8"
     x2="8"
     y1="5"
     y2="15">
    <stop
       offset="0"
       stop-color="#5678c8"
       id="stop31" />
    <stop
       offset=".94117647"
       stop-color="#3f59ae"
       id="stop33" />
    <stop
       offset="1"
       stop-color="#3d7cdb"
       id="stop35" />
  </linearGradient>
  <linearGradient
     id="g"
     gradientUnits="userSpaceOnUse"
     x1="5.5"
     x2="5.5"
     y1="12"
     y2="13">
    <stop
       offset="0"
       stop-color="#174072"
       id="stop38" />
    <stop
       offset="1"
       stop-color="#174072"
       stop-opacity="0"
       id="stop40" />
  </linearGradient>
  <linearGradient
     id="h"
     gradientUnits="userSpaceOnUse"
     x1="9"
     x2="9"
     y1="-1"
     y2="10">
    <stop
       offset="0"
       stop-color="#102134"
       id="stop43" />
    <stop
       offset="1"
       stop-color="#102134"
       stop-opacity="0"
       id="stop45" />
  </linearGradient>
  <filter
     id="i"
     height="1.267833"
     width="1.129187"
     x="-0.064594001"
     y="-0.133917"
     style="color-interpolation-filters:sRGB">
    <feGaussianBlur
       stdDeviation="3.1247207"
       id="feGaussianBlur48" />
  </filter>
  <linearGradient
     id="j"
     gradientUnits="userSpaceOnUse"
     x1="0.37740999"
     x2="0.37740999"
     y1="5.2146521"
     y2="3.309088">
    <stop
       offset="0"
       stop-color="#34608f"
       id="stop51" />
    <stop
       offset="1"
       stop-color="#34608f"
       stop-opacity="0"
       id="stop53" />
  </linearGradient>
  <linearGradient
     id="k"
     gradientTransform="matrix(0.21345221,0,0,0.1138394,-11.411169,-103.22724)"
     gradientUnits="userSpaceOnUse"
     x1="124.01234"
     x2="124.01234"
     y1="966.51019"
     y2="935.34326">
    <stop
       offset="0"
       id="stop56" />
    <stop
       offset="1"
       stop-color="#34608f"
       stop-opacity="0"
       id="stop58" />
  </linearGradient>
  <linearGradient
     id="l"
     gradientUnits="userSpaceOnUse"
     x1="55"
     x2="55"
     y1="1036.4132"
     y2="1032.4822">
    <stop
       offset="0"
       stop-color="#003d7b"
       id="stop61" />
    <stop
       offset="1"
       stop-color="#003d7b"
       stop-opacity="0"
       id="stop63" />
  </linearGradient>
  <filter
     id="m"
     height="1.697208"
     width="1.0278879"
     x="-0.013944"
     y="-0.34860399"
     style="color-interpolation-filters:sRGB">
    <feGaussianBlur
       stdDeviation=".70882694"
       id="feGaussianBlur66" />
  </filter>
  <filter
     id="n"
     height="1.869989"
     width="1.027669"
     x="-0.013834"
     y="-0.43499401"
     style="color-interpolation-filters:sRGB">
    <feGaussianBlur
       stdDeviation=".70324038"
       id="feGaussianBlur69" />
  </filter>
  <g
     id="g203"
     transform="matrix(2.0000001,0,0,2.0000001,0.0714267,-32.000002)">
    <g
       id="g128"
       transform="matrix(0.125,0,0,0.125,-1,16)">
      <path
         style="fill:#f3b7d9"
         inkscape:connector-curvature="0"
         id="path78"
         d="M 16,8 V 120 H 77.171875 112 V 85.171875 42.828125 8 H 77.171875 Z" />
      <path
         style="fill:#f0e3ec"
         inkscape:connector-curvature="0"
         id="path80"
         d="m 24.679688,16 c -0.539277,0 -0.980469,0.44144 -0.980469,0.982422 L 23.849609,64 l -0.15039,47.01758 c 0,0.54098 0.441192,0.98242 0.980469,0.98242 h 0.298828 51.914062 26.128902 C 103.56173,112 104,111.55856 104,111.01758 V 84.787109 43.212891 16.982422 C 104,16.44144 103.56173,16 103.02148,16 H 76.892578 24.978516 Z" />
      <path
         style="opacity:0.36725703;fill:#4c9ac3;fill-opacity:0.50857101;fill-rule:evenodd"
         inkscape:connector-curvature="0"
         id="path82"
         d="m 40,96 h 48 v 8 H 40 Z" />
      <path
         style="opacity:0.36725703;fill:#4c9ac3;fill-opacity:0.50857101;fill-rule:evenodd"
         inkscape:connector-curvature="0"
         id="path84"
         d="m 40,80 h 48 v 8 H 40 Z" />
      <g
         style="fill:#2d2d2d"
         id="g100">
        <path
           style="opacity:0.38053104;fill:#9d3a9b"
           inkscape:connector-curvature="0"
           id="path86"
           d="m 24,15.999997 h 8 v 8 h -8 z" />
        <path
           style="opacity:0.38053104;fill:#9d3a9b"
           inkscape:connector-curvature="0"
           id="path88"
           d="m 24,31.999998 h 8 v 8 h -8 z" />
        <path
           style="opacity:0.38053104;fill:#9d3a9b"
           inkscape:connector-curvature="0"
           id="path90"
           d="m 24,47.999996 h 8 v 8 h -8 z" />
        <path
           style="opacity:0.38053104;fill:#9d3a9b"
           inkscape:connector-curvature="0"
           id="path92"
           d="m 24,63.999996 h 8 v 8 h -8 z" />
        <path
           style="opacity:0.38053104;fill:#9d3a9b"
           inkscape:connector-curvature="0"
           id="path94"
           d="m 24,80 h 8 v 8 h -8 z" />
        <path
           style="opacity:0.38053104;fill:#9d3a9b"
           inkscape:connector-curvature="0"
           id="path96"
           d="m 24,96 h 8 v 8 h -8 z" />
        <path
           style="opacity:0.38053104;fill:#e602b4;fill-opacity:0.33155099"
           inkscape:connector-curvature="0"
           id="path98"
           d="m 24,112 h 8 v 8 h -8 z" />
      </g>
      <g
         style="fill:#4c9ac3;fill-opacity:0.50857101;fill-rule:evenodd"
         id="g110">
        <path
           style="opacity:0.36725703;fill:#e602b4"
           inkscape:connector-curvature="0"
           id="path102"
           d="m 40,15.999997 h 48 v 8 H 40 Z" />
        <path
           style="opacity:0.36725703;fill:#e602b4"
           inkscape:connector-curvature="0"
           id="path104"
           d="m 40,31.999998 h 48 v 8 H 40 Z" />
        <path
           style="opacity:0.36725703"
           inkscape:connector-curvature="0"
           id="path106"
           d="m 40,47.999996 h 48 v 8 H 40 Z" />
        <path
           style="opacity:0.36725703"
           inkscape:connector-curvature="0"
           id="path108"
           d="m 40,63.999996 h 48 v 8 H 40 Z" />
      </g>
      <g
         style="fill:#2d2d2d"
         id="g126">
        <path
           style="opacity:0.38053104;fill:#9d3a9b"
           inkscape:connector-curvature="0"
           id="path112"
           d="m 96,16 h 8 v 8 h -8 z" />
        <path
           style="opacity:0.38053104;fill:#9d3a9b"
           inkscape:connector-curvature="0"
           id="path114"
           d="m 96,32 h 8 v 8 h -8 z" />
        <path
           style="opacity:0.38053104"
           inkscape:connector-curvature="0"
           id="path116"
           d="m 96,48 h 8 v 8 h -8 z" />
        <path
           style="opacity:0.38053104"
           inkscape:connector-curvature="0"
           id="path118"
           d="m 96,64 h 8 v 8 h -8 z" />
        <path
           style="opacity:0.38053104"
           inkscape:connector-curvature="0"
           id="path120"
           d="m 96,80 h 8 v 8 h -8 z" />
        <path
           style="opacity:0.38053104"
           inkscape:connector-curvature="0"
           id="path122"
           d="m 96,96 h 8 v 8 h -8 z" />
        <path
           style="opacity:0.38053104;fill-opacity:0.33155099"
           inkscape:connector-curvature="0"
           id="path124"
           d="m 96,112 h 8 v 8 h -8 z" />
      </g>
    </g>
    <path
       inkscape:connector-curvature="0"
       style="fill:#9d3a9b"
       id="path134"
       d="M 4.5,21 C 4,21 4,21.382694 4,21.5 V 23 l -10e-8,2.999999 c 0,0.554 0.446,1 1,1 L 15,27 c 0.554,0 1,-0.446 1,-1 v -2.999999 c 0,-0.554 -0.446,-1 -1,-1 L 9.9042969,22 C 9.8200959,21.514049 9.7262959,21 9.5,21 Z" />
    <path
       style="fill:#fcf9e9"
       inkscape:connector-curvature="0"
       id="path136"
       d="m 4.9999999,21.999999 h 3 v 1 h -3 z" />
    <path
       inkscape:connector-curvature="0"
       style="opacity:0.25;fill:#f3b7d9"
       id="path138"
       d="m 4.4999999,20.999999 c -0.5,0 -0.5,0.382694 -0.5,0.5 v 1.5 3 c 0,0.554 0.446,1 1,1 v -4 -1 h 3.8828125 c 0.013345,0.06853 0.023996,0.09424 0.037109,0.169922 0.082673,0.47922 0.4980774,0.829511 0.9843754,0.830078 H 11 L 15,23 v 4 c 0.554,0 1,-0.446 1,-1 v -3 c 0,-0.554 -0.446,-1 -1,-1 l -5.0957032,-1e-6 c -0.084201,-0.48595 -0.178001,-1 -0.4042969,-1 z" />
    <path
       inkscape:connector-curvature="0"
       style="fill:#e602b4"
       id="path140"
       d="m 7,22 h 1 v 1 H 7 Z" />
    <path
       inkscape:connector-curvature="0"
       style="fill:#e602b4"
       id="path144"
       d="m 4.9999999,25.999999 h 2.5 l 1,-1 L 15,25 c 0.554,0 1,0.446 1,1 v 4 c 0,0.554 -0.446,1 -1,1 l -10.0000001,-1e-6 c -0.554,0 -1,-0.446 -1,-1 v -3 c 0,-0.554 0.5673986,-1.346081 1,-1 z" />
    <path
       inkscape:connector-curvature="0"
       style="fill:#f3b7d9"
       id="path146"
       d="m 8.4999999,24.999999 -1,1 h -2.5 c -0.554,0 -1,0.446 -1,1 v 1 c 0,-0.554 0.5673987,-1.346081 1,-1 h 2.5 l 1,-1 L 15,26 c 0.554,0 1,0.446 1,1 v -1 c 0,-0.554 -0.446,-1 -1,-1 z" />
    <path
       style="fill:#385da4"
       inkscape:connector-curvature="0"
       id="path148"
       d="M 3.9999999,27.999999 16,28 v 1 l -12.0000001,-1e-6 z" />
    <path
       inkscape:connector-curvature="0"
       style="fill:#9d3a9b"
       id="path150"
       d="M 3.9999999,27.999999 H 11 L 16,28 v 1 l -12.0000001,-1e-6 z" />
    <path
       inkscape:connector-curvature="0"
       style="fill:#f3b7d9"
       id="path152"
       d="M 3.9999999,28.999999 16,29 v 0.5 l -12.0000001,-1e-6 z" />
  </g>
</svg>
