<?xml version="1.0" encoding="UTF-8" standalone="no"?>
<svg
   xmlns:dc="http://purl.org/dc/elements/1.1/"
   xmlns:cc="http://creativecommons.org/ns#"
   xmlns:rdf="http://www.w3.org/1999/02/22-rdf-syntax-ns#"
   xmlns:svg="http://www.w3.org/2000/svg"
   xmlns="http://www.w3.org/2000/svg"
   xmlns:sodipodi="http://sodipodi.sourceforge.net/DTD/sodipodi-0.dtd"
   xmlns:inkscape="http://www.inkscape.org/namespaces/inkscape"
   height="32"
   width="32"
   version="1.1"
   id="svg53"
   sodipodi:docname="lc_dbformrename.svg"
   inkscape:version="0.92.3 (2405546, 2018-03-11)">
  <metadata
     id="metadata59">
    <rdf:RDF>
      <cc:Work
         rdf:about="">
        <dc:format>image/svg+xml</dc:format>
        <dc:type
           rdf:resource="http://purl.org/dc/dcmitype/StillImage" />
        <dc:title></dc:title>
      </cc:Work>
    </rdf:RDF>
  </metadata>
  <defs
     id="defs57" />
  <sodipodi:namedview
     pagecolor="#ffffff"
     bordercolor="#666666"
     borderopacity="1"
     objecttolerance="10"
     gridtolerance="10"
     guidetolerance="10"
     inkscape:pageopacity="0"
     inkscape:pageshadow="2"
     inkscape:window-width="1366"
     inkscape:window-height="705"
     id="namedview55"
     showgrid="true"
     inkscape:zoom="14.75"
     inkscape:cx="17.580843"
     inkscape:cy="14.108959"
     inkscape:window-x="-8"
     inkscape:window-y="-8"
     inkscape:window-maximized="1"
     inkscape:current-layer="svg53">
    <inkscape:grid
       type="xygrid"
       id="grid866" />
  </sodipodi:namedview>
  <linearGradient
     id="a"
     gradientTransform="matrix(0.1133598,0,0,0.1691546,0.642795,-76.95463)"
     gradientUnits="userSpaceOnUse"
     x1="417.76013"
     x2="417.76013"
     y1="691.40674"
     y2="549.52472">
    <stop
       offset="0"
       stop-color="#cbcbcd"
       id="stop2" />
    <stop
       offset=".5"
       stop-color="#e0e0e2"
       id="stop4" />
    <stop
       offset="1"
       stop-color="#fff"
       id="stop6" />
  </linearGradient>
  <filter
     id="b">
    <feGaussianBlur
       stdDeviation="2.4"
       id="feGaussianBlur9" />
  </filter>
  <linearGradient
     id="c"
     gradientTransform="matrix(1.25,0,0,1,-145.53581,-244.8761)"
     gradientUnits="userSpaceOnUse"
     x1="167.62865"
     x2="167.62865"
     y1="340.8761"
     y2="308.8761">
    <stop
       offset="0"
       stop-color="#cbcbcd"
       id="stop12" />
    <stop
       offset=".66545075"
       stop-color="#e0e0e2"
       id="stop14" />
    <stop
       offset="1"
       stop-color="#fff"
       id="stop16" />
  </linearGradient>
  <g
     transform="matrix(0.25148809,0,0,0.25148809,-0.17857056,-2.0238092)"
     id="g51">
    <g
       id="g31">
      <rect
         height="96"
         rx="1e-006"
         width="112"
         x="7.9999971"
         y="15.999999"
         id="rect21"
         style="fill:#f3b7d9" />
      <rect
         height="24.000002"
         rx="2e-006"
         ry="1e-006"
         width="96"
         x="15.999997"
         y="31.999998"
         id="rect23"
         style="fill:#9d3a9b;fill-opacity:0.16763" />
      <rect
         height="16.000002"
         rx="2e-006"
         ry="0"
         width="80"
         x="23.999996"
         y="40"
         id="rect25"
         style="fill:#ffffff" />
      <rect
         height="32.000004"
         rx="2e-006"
         ry="1e-006"
         transform="scale(1,-1)"
         width="80"
         x="23.999996"
         y="-104"
         id="rect27"
         style="fill:#9d3a9b;fill-opacity:0.375" />
      <rect
         height="24.000002"
         rx="2e-006"
         ry="1e-006"
         width="80"
         x="23.999996"
         y="72"
         id="rect29"
         style="fill:#f0e3ec" />
    </g>
    <g
       id="g49">
      <path
         d="M 28,72 H 91.9991 V 96 H 28 Z"
         id="path33"
         inkscape:connector-curvature="0"
         style="fill:#9d3a9b" />
      <g
         id="g39"
         style="fill:#ffffff;stroke-width:0.65700603">
        <path
           d="m 44.782489,91.387859 q -2.522902,-2.811985 -2.522902,-7.227064 0,-4.415079 2.522902,-7.227064 2.549183,-2.811985 6.675179,-2.811985 4.152277,0 6.701459,2.811985 2.549183,2.785705 2.549183,7.358465 0,4.257398 -2.522903,7.095663 -2.496622,2.811984 -6.701459,2.811984 -4.178556,0 -6.701459,-2.811984 z m 6.701459,-13.902243 q -2.391501,0 -3.836913,1.839616 -1.445413,1.813336 -1.445413,4.835563 0,3.022226 1.445413,4.861843 1.445412,1.813336 3.836913,1.813336 2.365221,0 3.810634,-1.813336 1.471693,-1.813336 1.471693,-4.756722 0,-3.101068 -1.445413,-4.940684 -1.419132,-1.839616 -3.836914,-1.839616 z"
           id="path35"
           inkscape:connector-curvature="0" />
        <path
           d="m 72.784262,87.183021 v 6.412377 H 68.842228 V 74.437109 h 3.942034 v 8.409674 l 7.489866,-8.409674 h 4.651601 l -7.647547,8.251993 8.462234,10.906296 H 81.036255 L 74.75528,85.133163 Z"
           id="path37"
           inkscape:connector-curvature="0" />
      </g>
      <g
         id="g47"
         style="stroke-width:2">
        <path
           d="m 76.00001,44 h 40 v 8 h -40 z"
           id="path41"
           inkscape:connector-curvature="0"
           style="fill:#e602b4" />
        <path
           d="m 76.00001,116.00006 h 40 v 7.99996 h -40 z"
           id="path43"
           inkscape:connector-curvature="0"
           style="fill:#e602b4" />
        <path
           d="m 100.00001,52 v 64 h -8 V 52 Z"
           id="path45"
           inkscape:connector-curvature="0"
           style="fill:#e602b4" />
      </g>
    </g>
  </g>
</svg>
