<?xml version="1.0" encoding="UTF-8" standalone="no"?>
<svg
   xmlns:dc="http://purl.org/dc/elements/1.1/"
   xmlns:cc="http://creativecommons.org/ns#"
   xmlns:rdf="http://www.w3.org/1999/02/22-rdf-syntax-ns#"
   xmlns:svg="http://www.w3.org/2000/svg"
   xmlns="http://www.w3.org/2000/svg"
   xmlns:xlink="http://www.w3.org/1999/xlink"
   xmlns:sodipodi="http://sodipodi.sourceforge.net/DTD/sodipodi-0.dtd"
   xmlns:inkscape="http://www.inkscape.org/namespaces/inkscape"
   height="24"
   viewBox="0 0 6.3499999 6.3500002"
   width="24"
   id="svg2"
   version="1.1"
   inkscape:version="0.91 r13725"
   sodipodi:docname="lc_formatarea.svg"
   inkscape:export-filename="/home/tamara/Desktop/IKON/5_258 (tamara)/sc (222)/Tanggal 12/lc_formatarea.png"
   inkscape:export-xdpi="90"
   inkscape:export-ydpi="90">
  <metadata
     id="metadata178">
    <rdf:RDF>
      <cc:Work
         rdf:about="">
        <dc:format>image/svg+xml</dc:format>
        <dc:type
           rdf:resource="http://purl.org/dc/dcmitype/StillImage" />
        <dc:title />
      </cc:Work>
    </rdf:RDF>
  </metadata>
  <defs
     id="defs176">
    <linearGradient
       id="o-3"
       gradientTransform="matrix(0.125,0,0,0.09642857,-9.78519,2.8921475)"
       gradientUnits="userSpaceOnUse"
       x1="154.28152"
       x2="154.28152"
       y1="104.82231"
       y2="115.19268">
      <stop
         offset="0"
         stop-color="#4c78fd"
         id="stop93" />
      <stop
         offset="1"
         stop-color="#85a2fe"
         id="stop95" />
    </linearGradient>
  </defs>
  <sodipodi:namedview
     pagecolor="#ffffff"
     bordercolor="#666666"
     borderopacity="1"
     objecttolerance="10"
     gridtolerance="10"
     guidetolerance="10"
     inkscape:pageopacity="0"
     inkscape:pageshadow="2"
     inkscape:window-width="1366"
     inkscape:window-height="718"
     id="namedview174"
     showgrid="true"
     inkscape:zoom="10.429825"
     inkscape:cx="1.4708157"
     inkscape:cy="19.220863"
     inkscape:window-x="0"
     inkscape:window-y="0"
     inkscape:window-maximized="1"
     inkscape:current-layer="svg2">
    <inkscape:grid
       type="xygrid"
       id="grid4401" />
  </sodipodi:namedview>
  <radialGradient
     id="a"
     cx="29.962149"
     cy="131.46768"
     gradientTransform="matrix(-0.01821529,-4.1767336e-4,-9.4345129e-5,0.00411457,5.9553519,2.4541107)"
     gradientUnits="userSpaceOnUse"
     r="27.01967"
     xlink:href="#b" />
  <linearGradient
     id="b">
    <stop
       offset="0"
       stop-color="#fff"
       id="stop6" />
    <stop
       offset="1"
       stop-color="#fff"
       stop-opacity="0"
       id="stop8" />
  </linearGradient>
  <radialGradient
     id="c"
     cx="27.565985"
     cy="130.94269"
     gradientTransform="matrix(-0.02566459,0,0,0.00719473,6.1599496,2.0114657)"
     gradientUnits="userSpaceOnUse"
     r="27.01967"
     xlink:href="#d" />
  <linearGradient
     id="d">
    <stop
       offset="0"
       id="stop12" />
    <stop
       offset="1"
       stop-opacity="0"
       id="stop14" />
  </linearGradient>
  <linearGradient
     id="e"
     gradientUnits="userSpaceOnUse"
     x1="6.522222"
     x2="6.6002049"
     xlink:href="#b"
     y1="292.513"
     y2="295.55591"
     gradientTransform="matrix(-0.09700002,0,0,0.09700002,6.1853176,-25.701117)" />
  <linearGradient
     id="f"
     gradientUnits="userSpaceOnUse"
     x1="6.0914602"
     x2="5.99793"
     xlink:href="#d"
     y1="290.84818"
     y2="299.04684"
     gradientTransform="matrix(-0.09700002,0,0,0.09700002,5.4390751,-25.701117)" />
  <linearGradient
     id="g"
     gradientUnits="userSpaceOnUse"
     x1="20.788101"
     x2="10.963702"
     xlink:href="#d"
     y1="268.96774"
     y2="278.95819"
     gradientTransform="matrix(-0.09700002,0,0,0.09700002,6.9526983,-25.701117)" />
  <radialGradient
     id="h"
     cx="-16.60284"
     cy="73.863823"
     gradientTransform="matrix(-0.02470922,0.00266642,-0.00270541,0.17911005,5.1663625,-11.300179)"
     gradientUnits="userSpaceOnUse"
     r="4.390625"
     xlink:href="#b" />
  <linearGradient
     id="i"
     gradientUnits="userSpaceOnUse"
     x1="26.106407"
     x2="19.665188"
     y1="294.20517"
     y2="287.14673"
     gradientTransform="matrix(-0.09700002,0,0,0.09700002,6.9717242,-25.701117)">
    <stop
       offset="0"
       stop-opacity=".447653"
       id="stop21" />
    <stop
       offset=".5"
       stop-opacity=".133574"
       id="stop23" />
    <stop
       offset="1"
       stop-opacity="0"
       id="stop25" />
  </linearGradient>
  <linearGradient
     id="j"
     gradientTransform="matrix(-0.02470922,0.00266642,-3.9726261e-4,0.02630086,3.8084618,-0.24386818)"
     gradientUnits="userSpaceOnUse"
     x1="95.84687"
     x2="76.361786"
     xlink:href="#k"
     y1="117.20569"
     y2="88.409065" />
  <linearGradient
     id="k">
    <stop
       offset="0"
       stop-color="#393a38"
       id="stop29" />
    <stop
       offset="1"
       stop-color="#393a38"
       stop-opacity="0"
       id="stop31" />
  </linearGradient>
  <linearGradient
     id="l"
     gradientTransform="matrix(-0.02470922,0.00266642,-3.9726261e-4,0.02630086,3.9860375,-0.24386818)"
     gradientUnits="userSpaceOnUse"
     x1="87.068436"
     x2="105.05599"
     xlink:href="#k"
     y1="146.89471"
     y2="58.65321" />
  <radialGradient
     id="m"
     cx="104.66048"
     cy="65.847801"
     fx="115.7285"
     fy="56.281128"
     gradientTransform="matrix(-0.01164025,-0.00670582,-0.02648817,0.04597924,8.2514663,-0.80041453)"
     gradientUnits="userSpaceOnUse"
     r="29.998838"
     xlink:href="#b" />
  <linearGradient
     id="n"
     gradientTransform="matrix(-0.02467545,-0.00112067,1.4161712e-4,0.02877134,4.0135822,-0.25384075)"
     gradientUnits="userSpaceOnUse"
     spreadMethod="reflect"
     x1="106.2739"
     x2="79.54409"
     y1="52.468563"
     y2="69.991898">
    <stop
       offset="0"
       stop-color="#9a7600"
       id="stop36" />
    <stop
       offset=".09292036"
       stop-color="#e3ad00"
       id="stop38" />
    <stop
       offset=".5043171"
       stop-color="#ffcd2c"
       id="stop40" />
    <stop
       offset=".91571385"
       stop-color="#e3ad00"
       id="stop42" />
    <stop
       offset="1"
       stop-color="#b98d00"
       id="stop44" />
  </linearGradient>
  <linearGradient
     id="o"
     gradientTransform="matrix(0.02882248,0,0,0.01947574,2.9380297,-0.46964264)"
     gradientUnits="userSpaceOnUse"
     x1="-113.6435"
     x2="-118.30019"
     xlink:href="#d"
     y1="78.293831"
     y2="33.764427" />
  <linearGradient
     id="p"
     gradientTransform="matrix(0.02882248,0,0,0.01947574,3.6733234,-0.03879356)"
     gradientUnits="userSpaceOnUse"
     x1="-82.509743"
     x2="-118.91476"
     xlink:href="#q"
     y1="64.065186"
     y2="63.447075" />
  <linearGradient
     id="q">
    <stop
       offset="0"
       id="stop49" />
    <stop
       offset=".40659341"
       stop-opacity=".682353"
       id="stop51" />
    <stop
       offset=".45329672"
       stop-opacity=".487365"
       id="stop53" />
    <stop
       offset=".5"
       stop-opacity=".361011"
       id="stop55" />
    <stop
       offset=".70604396"
       stop-opacity=".151625"
       id="stop57" />
    <stop
       offset="1"
       stop-opacity="0"
       id="stop59" />
  </linearGradient>
  <linearGradient
     id="r"
     gradientTransform="matrix(0.02882248,0,0,0.01947574,4.3571065,0.34579754)"
     gradientUnits="userSpaceOnUse"
     x1="-146.75171"
     x2="-123.66653"
     xlink:href="#q"
     y1="74.959991"
     y2="73.415115" />
  <linearGradient
     id="s"
     gradientTransform="matrix(-0.02898872,0.00217577,-0.00136258,0.03096812,5.1124787,-0.44546041)"
     gradientUnits="userSpaceOnUse"
     x1="-116.78745"
     x2="-84.77729"
     xlink:href="#d"
     y1="116.55856"
     y2="93.56797" />
  <radialGradient
     id="t"
     cx="70.623695"
     cy="53.380299"
     fx="70.964447"
     fy="76.702087"
     gradientTransform="matrix(-0.0289078,-0.01483426,-0.01813683,0.03434587,9.1111015,0.17470146)"
     gradientUnits="userSpaceOnUse"
     r="53.565186">
    <stop
       offset="0"
       stop-color="#fff"
       stop-opacity="0"
       id="stop64" />
    <stop
       offset=".5"
       stop-color="#7f7f7f"
       stop-opacity="0"
       id="stop66" />
    <stop
       offset="1"
       id="stop68" />
  </radialGradient>
  <linearGradient
     id="u"
     gradientTransform="matrix(-0.02898872,0.00217577,-0.00136258,0.03096812,0.36867084,-0.44546041)"
     gradientUnits="userSpaceOnUse"
     x1="-70.057068"
     x2="-27.8897"
     y1="95.781326"
     y2="66.671455">
    <stop
       offset="0"
       stop-color="#fff"
       id="stop71" />
    <stop
       offset=".42597079"
       stop-color="#fff"
       id="stop73" />
    <stop
       offset=".5892781"
       stop-color="#f1f1f1"
       id="stop75" />
    <stop
       offset=".80219781"
       stop-color="#eaeaea"
       id="stop77" />
    <stop
       offset="1"
       stop-color="#dfdfdf"
       id="stop79" />
  </linearGradient>
  <radialGradient
     id="v"
     cx="63.84724"
     cy="121.47017"
     fx="95.480644"
     gradientTransform="matrix(0.02566459,0,0,0.00262479,-4.219301,2.6214688)"
     gradientUnits="userSpaceOnUse"
     r="63.84724"
     xlink:href="#d" />
  <g
     id="g5101">
    <g
       transform="matrix(1.5001256,0,0,1.5001256,0,0.00171272)"
       id="g4457">
      <path
         d="m 1.8989733,0.21364008 c 2e-7,0.11799242 -0.095652,0.73362196 -0.2136449,0.73362196 -0.1179929,0 -0.2136452,-0.61562845 -0.213645,-0.73362196 5e-7,-0.11799241 0.095652,-0.2136441127036 0.213645,-0.2136441127036 0.1179926,0 0.2136445,0.095651702704 0.2136449,0.2136441127036 z"
         id="path86"
         inkscape:connector-curvature="0"
         style="fill:#ff6600" />
      <path
         d="M 1.1342344,0.30445941 C 1.1932308,0.40664454 1.4182084,0.98762097 1.3160235,1.0466172 1.2138386,1.1056145 0.82318713,0.62029084 0.76419056,0.51810462 0.70519473,0.41592059 0.74020597,0.28525767 0.84239049,0.22626146 0.94457506,0.16726525 1.0752379,0.20227538 1.1342344,0.30445941 Z"
         id="path88"
         inkscape:connector-curvature="0"
         style="fill:#cc0000" />
      <path
         d="M 0.5173608,0.76548145 C 0.61954576,0.82447765 1.1048703,1.215129 1.0458736,1.3173141 0.98687764,1.4194992 0.40590165,1.1945231 0.30371603,1.1355258 0.20153213,1.0765296 0.16652128,0.9458667 0.22551756,0.84368158 0.2845139,0.74149755 0.41517628,0.70648524 0.5173608,0.76548145 Z"
         id="path90"
         inkscape:connector-curvature="0"
         style="fill:#730055" />
      <path
         d="m 0.21364359,1.473175 c 0.11799287,0 0.73362192,0.095652 0.73362181,0.2136441 5.5e-7,0.1179935 -0.61562742,0.2136463 -0.73362141,0.2136463 C 0.09565203,1.9004643 2.7654685e-7,1.8048126 0,1.6868202 3.0930129e-7,1.5688278 0.09565109,1.473175 0.21364359,1.473175 Z"
         id="path92"
         inkscape:connector-curvature="0"
         style="fill:#2c0059" />
      <path
         d="M 0.30446354,2.2379137 C 0.40664836,2.1789175 0.98762466,1.9539403 1.0466208,2.0561243 1.1056179,2.1583095 0.62029488,2.5489608 0.5181091,2.6079581 0.41592452,2.6669532 0.28526181,2.631942 0.22626537,2.5297579 0.16726943,2.4275739 0.20227904,2.2969099 0.30446354,2.2379137 Z"
         id="path94"
         inkscape:connector-curvature="0"
         style="fill:#003399" />
      <path
         d="M 0.76548526,2.8547868 C 0.82448182,2.7526028 1.2151335,2.267278 1.3173177,2.3262742 1.4195032,2.3852704 1.1945268,2.9662458 1.13553,3.068432 1.0765331,3.170616 0.94587017,3.2056262 0.84368578,3.146631 0.7415018,3.0876348 0.70648899,2.9569719 0.76548526,2.8547868 Z"
         id="path96"
         inkscape:connector-curvature="0"
         style="fill:#3366cc" />
      <path
         d="m 1.4731784,3.1585045 c 5e-7,-0.1179924 0.095652,-0.7336219 0.2136445,-0.7336219 0.1179934,-1.1e-6 0.2136459,0.6156273 0.2136462,0.7336208 -8e-7,0.1179925 -0.095653,0.2136442 -0.213645,0.2136452 -0.117992,0 -0.2136454,-0.095652 -0.2136457,-0.2136441 z"
         id="path98"
         inkscape:connector-curvature="0"
         style="fill:#6699ff" />
      <path
         d="M 2.2379175,3.0676852 C 2.1789217,2.9655001 1.9539439,2.3845236 2.056128,2.3255274 c 0.1021848,-0.058997 0.4928364,0.4263264 0.5518335,0.5285115 0.058996,0.102184 0.023984,0.232847 -0.078199,0.2918443 -0.1021841,0.058996 -0.2328483,0.023986 -0.2918447,-0.078198 z"
         id="path100"
         inkscape:connector-curvature="0"
         style="fill:#99cc33" />
      <path
         d="M 2.8547912,2.6066632 C 2.7526069,2.5476659 2.2672821,2.1570146 2.3262781,2.0548305 c 0.058996,-0.1021851 0.639972,0.122791 0.7421576,0.1817883 0.1021836,0.058995 0.1371941,0.1896591 0.078199,0.2918431 -0.058996,0.1021852 -0.1896595,0.1371975 -0.291844,0.078201 z"
         id="path102"
         inkscape:connector-curvature="0"
         style="fill:#00cc00" />
      <path
         d="M 3.1687219,1.9091825 C 3.050729,1.9091814 2.4350997,1.8135297 2.4350997,1.6955383 2.4350992,1.5775448 3.0507272,1.481892 3.1687212,1.481892 c 0.1179912,0 0.2136432,0.095653 0.2136443,0.2136442 7e-7,0.1179935 -0.095651,0.2136463 -0.2136436,0.2136463 z"
         id="path104"
         inkscape:connector-curvature="0"
         style="fill:#669900" />
      <path
         d="M 3.0676888,1.1342309 C 2.9655033,1.1932261 2.384527,1.4182043 2.3255313,1.3160203 2.2665341,1.2138352 2.7518572,0.82318385 2.8540429,0.76418655 c 0.1021834,-0.0589962 0.232847,-0.0239839 0.2918435,0.078199 0.058997,0.10218512 0.023987,0.23284905 -0.078198,0.29184525 z"
         id="path106"
         inkscape:connector-curvature="0"
         style="fill:#ffcc00" />
      <path
         d="M 2.6066672,0.51735673 C 2.5476696,0.61954076 2.1570184,1.1048666 2.0548347,1.0458704 1.952649,0.98687417 2.1776255,0.40589883 2.2366222,0.30371261 2.2956175,0.20152858 2.4262817,0.16651845 2.5284656,0.22551248 2.6306513,0.28450868 2.6656634,0.4151727 2.6066672,0.51735673 Z"
         id="path108"
         inkscape:connector-curvature="0"
         style="fill:#ff9900" />
    </g>
    <g
       transform="translate(-0.00634199,0.02219696)"
       id="g5092">
      <path
         d="M 3.0154469,0.27114999 C 2.8268376,0.60695281 1.8402693,2.3634642 1.6516609,2.6992672 1.4630518,3.03507 1.8766819,3.6231606 2.575156,4.0120899 3.2736302,4.4010194 3.9934056,4.4440401 4.1820147,4.1082372 4.3706229,3.7724342 5.3571919,2.0159228 5.5458012,1.6801199 5.7344098,1.3443171 5.3207797,0.75622656 4.6223051,0.36729709 3.9238313,-0.02163223 3.2040556,-0.06465298 3.0154469,0.27114999 Z"
         id="path120"
         style="fill:#f0e3ec;fill-opacity:1;stroke:#9e3a9c;stroke-width:0.06614584;stroke-miterlimit:4;stroke-dasharray:none;stroke-opacity:1"
         inkscape:connector-curvature="0" />
      <path
         d="M 3.386049,0.04301584 C 3.4476169,0.03634029 3.5142947,0.03452514 3.585023,0.03878554 3.867935,0.05579395 4.205094,0.1373318 4.5479758,0.32858145 4.7673175,0.45092415 5.0378508,0.61728388 5.189279,0.76457132 5.0432422,0.62801143 4.7831231,0.47373011 4.5787296,0.35972566 4.2358477,0.168476 3.8986888,0.08693876 3.6157768,0.0699284 3.3328648,0.05291801 3.1105346,0.12356419 3.0261834,0.28653933 2.9459472,0.44156217 3.0082025,0.66318892 3.1708059,0.89467421 3.2272674,0.9750536 3.2906372,1.0496054 3.3717772,1.1295571 3.2768212,1.0397323 3.2038031,0.9542832 3.1400522,0.86352575 2.9774482,0.63204062 2.908189,0.4204848 2.997995,0.26038644 3.065349,0.14031414 3.2013463,0.06307477 3.386049,0.04301584 Z M 5.1827741,0.75879779 C 5.2763281,0.84870106 5.3572662,0.94071127 5.4215002,1.0321569 5.5927914,1.2760093 5.6523193,1.5167577 5.5537707,1.6924419 5.4552221,1.8681261 5.2920061,1.9302464 4.993979,1.9123279 4.695952,1.8944095 4.3346886,1.7837795 3.980073,1.5859847 3.743105,1.4538117 3.5393879,1.2994537 3.3785326,1.1388243 3.5342415,1.2882377 3.7276842,1.4312165 3.949319,1.5548377 4.3039348,1.7526312 4.6640213,1.8646188 4.9620482,1.8825386 5.2600752,1.900457 5.4233101,1.8371029 5.5218585,1.6614188 5.6204071,1.4857347 5.5608795,1.2449877 5.3895882,1.0011338 5.3327129,0.92016495 5.2628268,0.83882364 5.1827741,0.75879779 Z"
         id="path144"
         inkscape:connector-curvature="0"
         style="fill:#f0e3ec;fill-opacity:1;stroke:#9e3a9c;stroke-width:0.06614584;stroke-linecap:round;stroke-linejoin:round;stroke-miterlimit:4;stroke-dasharray:none;stroke-opacity:1"
         sodipodi:nodetypes="ccscsssscssccsssscssssc" />
      <path
         d="M 5.7940645,4.5729114 C 5.5304251,4.5750359 5.3081005,4.5457721 5.2538205,4.5471121 4.8947506,4.5559738 4.0344742,4.3893625 4.3785169,4.1845481 4.7543793,3.9607897 5.7874599,3.9668006 6.1897042,4.1825546 6.6286811,4.4180094 6.057661,4.5707826 5.7940645,4.5729129 Z"
         id="path152"
         inkscape:connector-curvature="0"
         style="fill:#f3b7d9;fill-opacity:1;fill-rule:evenodd;stroke:none;stroke-width:0.01930203" />
      <path
         d="M 4.0397165,2.3521609 3.0834854,3.9653835 C 2.5117229,3.7085036 1.8389122,3.1083746 1.7297993,2.7099783 L 2.6611641,1.0683299 c 0.1149621,0.5842475 0.8145622,1.0140629 1.3785524,1.283831 z"
         id="path136"
         style="fill:#e601b4;fill-opacity:1"
         inkscape:connector-curvature="0" />
      <g
         id="g4453"
         style="fill:#f3b7d9;fill-opacity:1;stroke:none"
         transform="matrix(1.5001256,0,0,1.5001256,0.05381808,-0.02071115)">
        <path
           style="fill:#f3b7d9;fill-opacity:1;stroke:none"
           inkscape:connector-curvature="0"
           id="path140"
           d="M 3.7256134,0.97522026 C 3.7327178,1.0348859 3.7249674,1.0903195 3.6992081,1.1376303 3.5775702,1.3610388 3.1263456,1.3059544 2.6638842,1.0691464 2.540222,1.0058228 2.4380617,0.92942655 2.4111386,0.90694873 2.6038869,0.78595479 3.6543646,0.67744377 3.7256134,0.97522026 Z" />
        <path
           style="fill:#f3b7d9;fill-opacity:1;fill-rule:evenodd;stroke:none;stroke-width:0.00256643"
           inkscape:connector-curvature="0"
           id="path158"
           d="m 3.2958294,1.2535638 c 0.1471797,-0.00352 0.2013097,0.1147084 0.210761,0.2297184 0.02825,0.343769 -0.030661,0.584751 -0.010962,0.8598023 0.004,0.055786 0.1032841,0.111876 0.1149539,-0.012405 0.027081,-0.2884043 -0.018947,-0.4907833 0.01343,-0.8891391 0.010694,-0.1315766 0.051078,-0.2579744 0.086505,-0.4083885" />
      </g>
    </g>
    <path
       d="m 0,5.1592708 6.3504428,0 0,1.1907247 -6.3504428,0 z"
       id="path172"
       inkscape:connector-curvature="0"
       style="opacity:0.98999999;fill:#9e3a9c;fill-opacity:1;stroke:none" />
    <use
       height="100%"
       width="100%"
       transform="scale(0.99993031,1)"
       id="use5090"
       xlink:href="#path172"
       y="0"
       x="0" />
  </g>
</svg>
