<?xml version="1.0" encoding="UTF-8" standalone="no"?>
<svg
   xmlns:dc="http://purl.org/dc/elements/1.1/"
   xmlns:cc="http://creativecommons.org/ns#"
   xmlns:rdf="http://www.w3.org/1999/02/22-rdf-syntax-ns#"
   xmlns:svg="http://www.w3.org/2000/svg"
   xmlns="http://www.w3.org/2000/svg"
   xmlns:xlink="http://www.w3.org/1999/xlink"
   xmlns:sodipodi="http://sodipodi.sourceforge.net/DTD/sodipodi-0.dtd"
   xmlns:inkscape="http://www.inkscape.org/namespaces/inkscape"
   enable-background="new 0 0 128 128"
   height="24"
   viewBox="0 0 48 48"
   width="24"
   id="svg2"
   version="1.1"
   inkscape:version="0.91 r13725"
   sodipodi:docname="lc_helperdialog.svg"
   inkscape:export-filename="/home/tamara/Desktop/IKON/5_258 (tamara)/sc (222)/Tanggal 20/lc_helperdialog.png"
   inkscape:export-xdpi="90"
   inkscape:export-ydpi="90">
  <metadata
     id="metadata74">
    <rdf:RDF>
      <cc:Work
         rdf:about="">
        <dc:format>image/svg+xml</dc:format>
        <dc:type
           rdf:resource="http://purl.org/dc/dcmitype/StillImage" />
        <dc:title></dc:title>
      </cc:Work>
    </rdf:RDF>
  </metadata>
  <defs
     id="defs72" />
  <sodipodi:namedview
     pagecolor="#ffffff"
     bordercolor="#666666"
     borderopacity="1"
     objecttolerance="10"
     gridtolerance="10"
     guidetolerance="10"
     inkscape:pageopacity="0"
     inkscape:pageshadow="2"
     inkscape:window-width="1366"
     inkscape:window-height="718"
     id="namedview70"
     showgrid="true"
     inkscape:zoom="14.635466"
     inkscape:cx="17.001086"
     inkscape:cy="3.7210521"
     inkscape:window-x="0"
     inkscape:window-y="0"
     inkscape:window-maximized="1"
     inkscape:current-layer="svg2">
    <inkscape:grid
       type="xygrid"
       id="grid4202" />
  </sodipodi:namedview>
  <radialGradient
     id="a"
     cx="63.330601"
     cy="64.103996"
     gradientUnits="userSpaceOnUse"
     r="65.002899">
    <stop
       offset=".5325"
       stop-color="#2c72c7"
       id="stop5" />
    <stop
       offset=".68"
       stop-color="#bfd9ff"
       id="stop7" />
    <stop
       offset=".83"
       stop-color="#fff"
       id="stop9" />
    <stop
       offset=".8521"
       stop-color="#f9fbfd"
       id="stop11" />
    <stop
       offset=".87222821"
       stop-color="#eaf0f8"
       id="stop13" />
    <stop
       offset="1"
       stop-color="#346bae"
       id="stop15" />
  </radialGradient>
  <radialGradient
     id="b"
     cx="63.3335"
     cy="64.101097"
     gradientTransform="matrix(0.2700285,0,0,0.270033,-1.281823,-1.152225)"
     gradientUnits="userSpaceOnUse"
     r="65.003197"
     xlink:href="#a" />
  <radialGradient
     id="c"
     cx="63.3335"
     cy="64.103996"
     gradientTransform="matrix(0.2700285,0,0,0.270033,-1.281823,-1.152225)"
     gradientUnits="userSpaceOnUse"
     r="65"
     xlink:href="#a" />
  <radialGradient
     id="d"
     cx="63.3325"
     cy="64.103996"
     gradientTransform="matrix(0.2700285,0,0,0.270033,-1.281823,-1.152225)"
     gradientUnits="userSpaceOnUse"
     r="64.9991"
     xlink:href="#a" />
  <radialGradient
     id="e"
     cx="63.330601"
     cy="64.103996"
     gradientTransform="matrix(0.2700285,0,0,0.270033,-1.281823,-1.152225)"
     gradientUnits="userSpaceOnUse"
     r="65.002899"
     xlink:href="#a" />
  <radialGradient
     id="f"
     cx="64"
     cy="63.5186"
     gradientTransform="matrix(0.2700285,0,0,0.270033,-1.281823,-1.152225)"
     gradientUnits="userSpaceOnUse"
     r="59.252399">
    <stop
       offset=".5917"
       stop-color="#cf2413"
       id="stop22" />
    <stop
       offset=".7574"
       stop-color="#f00"
       id="stop24" />
    <stop
       offset=".7713"
       stop-color="#ff4326"
       id="stop26" />
    <stop
       offset=".7859"
       stop-color="#ff4747"
       id="stop28" />
    <stop
       offset=".801"
       stop-color="#ff6060"
       id="stop30" />
    <stop
       offset=".8167"
       stop-color="#ff7e72"
       id="stop32" />
    <stop
       offset=".8332"
       stop-color="#ff7d7d"
       id="stop34" />
    <stop
       offset=".8521"
       stop-color="#ff8080"
       id="stop36" />
    <stop
       offset=".91421801"
       stop-color="#ec3131"
       id="stop38" />
    <stop
       offset="1"
       stop-color="#9a430e"
       id="stop40" />
  </radialGradient>
  <linearGradient
     id="g"
     gradientUnits="userSpaceOnUse"
     x1="87.068398"
     x2="87.068398"
     y1="24.355499"
     y2="53.477501"
     gradientTransform="matrix(0.2700285,0,0,0.270033,-1.281823,-1.152225)">
    <stop
       offset="0"
       stop-color="#cf5f32"
       id="stop43" />
    <stop
       offset="1"
       stop-color="#803f00"
       id="stop45" />
  </linearGradient>
  <linearGradient
     id="h"
     gradientUnits="userSpaceOnUse"
     x1="40.932098"
     x2="40.932098"
     y1="24.355499"
     y2="53.477501"
     gradientTransform="matrix(0.2700285,0,0,0.270033,-1.281823,-1.152225)">
    <stop
       offset="0"
       stop-color="#cf4332"
       id="stop48" />
    <stop
       offset="1"
       stop-color="#800000"
       id="stop50" />
  </linearGradient>
  <g
     id="g4856">
    <g
       transform="matrix(1.5,0,0,1.4999992,1.0380607e-8,2.4081813e-5)"
       id="g4253">
      <path
         inkscape:connector-curvature="0"
         style="opacity:1;fill:#9d3a9b;fill-opacity:1;fill-rule:nonzero;stroke:none;stroke-width:0.49537489;stroke-linecap:round;stroke-linejoin:round;stroke-miterlimit:4;stroke-dasharray:none;stroke-dashoffset:0;stroke-opacity:1"
         d="M 16,1.6340949e-7 A 15.998382,15.999185 0 0 0 0,16 15.998382,15.999185 0 0 0 16,32 15.998382,15.999185 0 0 0 32,16 15.998382,15.999185 0 0 0 16,1.6340949e-7 Z M 16,4.1488739 A 11.999955,11.850102 0 0 1 28.000992,16 11.999955,11.850102 0 0 1 16,27.851127 11.999955,11.850102 0 0 1 3.9990082,16 11.999955,11.850102 0 0 1 16,4.1488739 Z"
         id="path4216" />
      <path
         inkscape:connector-curvature="0"
         style="opacity:1;fill:#f3b7d9;fill-opacity:1;fill-rule:nonzero;stroke:none;stroke-width:0.5;stroke-linecap:round;stroke-linejoin:round;stroke-miterlimit:4;stroke-dasharray:none;stroke-dashoffset:0;stroke-opacity:1"
         d="m 16,-1.6e-5 c -0.59395,0.00223797 -1.392038,0.03755223 -1.982061,0.10577875 l 0,4.18413535 C 14.480039,4.2466687 15.404832,4.1522821 16,4.1488608 c 0.767066,8.388e-4 1.327558,0.074306 1.985935,0.1564008 l 0,-4.18805306 C 17.229508,0.00257163 16.765045,0.00533718 16,-1.6e-5 Z M 0.11926071,14.021924 C 0.02482927,14.703571 0.00596848,15.31186 0,15.999992 c 0.00497725,0.653793 0.05002395,1.35391 0.13488668,2.002191 L 4.1656331,17.986433 C 4.0554686,17.340452 3.9997361,16.655067 3.9990082,15.99999 c 0.00405,-0.689884 0.037596,-1.315109 0.1628999,-1.993816 z M 27.818498,14.006174 c 0.121313,0.679054 0.182377,1.304276 0.182494,1.993816 -0.0047,0.655403 -0.06437,1.309295 -0.178527,1.954947 l 4.038681,0 C 31.947336,17.30674 31.993707,16.653866 32,15.999992 31.9953,15.311946 31.962058,14.687909 31.868959,14.006176 Z M 18.001683,27.686885 C 17.249076,27.834603 16.767321,27.847703 16,27.851123 c -0.595267,-0.0047 -1.394077,-0.05318 -1.982061,-0.144965 l 0,4.1763 c 0.589804,0.07215 1.387893,0.111388 1.982061,0.117524 0.765139,-0.0067 1.24535,0.01055 2.001683,-0.1054 l 0,-3.483309 z"
         id="rect4220"
         sodipodi:nodetypes="ccccccccccccccccccccccccccccc" />
      <text
         xml:space="preserve"
         style="font-style:normal;font-weight:normal;font-size:23.1313591px;line-height:125%;font-family:sans-serif;letter-spacing:0px;word-spacing:0px;fill:#e602b4;fill-opacity:1;stroke:none;stroke-width:1px;stroke-linecap:butt;stroke-linejoin:miter;stroke-opacity:1"
         x="9.5926971"
         y="24.630777"
         id="text4239"
         sodipodi:linespacing="125%"><tspan
           sodipodi:role="line"
           id="tspan4241"
           x="9.5926971"
           y="24.630777">?</tspan></text>
    </g>
  </g>
</svg>
