<?xml version="1.0" encoding="UTF-8" standalone="no"?>
<svg
   xmlns:dc="http://purl.org/dc/elements/1.1/"
   xmlns:cc="http://creativecommons.org/ns#"
   xmlns:rdf="http://www.w3.org/1999/02/22-rdf-syntax-ns#"
   xmlns:svg="http://www.w3.org/2000/svg"
   xmlns="http://www.w3.org/2000/svg"
   xmlns:xlink="http://www.w3.org/1999/xlink"
   xmlns:sodipodi="http://sodipodi.sourceforge.net/DTD/sodipodi-0.dtd"
   xmlns:inkscape="http://www.inkscape.org/namespaces/inkscape"
   height="24"
   viewBox="0 0 6.3499999 6.3500002"
   width="24"
   id="svg2"
   version="1.1"
   inkscape:version="0.91 r13725"
   sodipodi:docname="lc_insertlayer.svg"
   inkscape:export-filename="/home/tamara/Desktop/IKON/5_258 (tamara)/sc (222)/Tanggal 5/lc_insertlayer.png"
   inkscape:export-xdpi="90"
   inkscape:export-ydpi="90">
  <metadata
     id="metadata117">
    <rdf:RDF>
      <cc:Work
         rdf:about="">
        <dc:format>image/svg+xml</dc:format>
        <dc:type
           rdf:resource="http://purl.org/dc/dcmitype/StillImage" />
        <dc:title></dc:title>
      </cc:Work>
    </rdf:RDF>
  </metadata>
  <defs
     id="defs115">
    <linearGradient
       inkscape:collect="always"
       xlink:href="#b"
       id="linearGradient4267"
       gradientUnits="userSpaceOnUse"
       x1="16"
       y1="16.000004"
       x2="88"
       y2="72" />
  </defs>
  <sodipodi:namedview
     pagecolor="#ffffff"
     bordercolor="#666666"
     borderopacity="1"
     objecttolerance="10"
     gridtolerance="10"
     guidetolerance="10"
     inkscape:pageopacity="0"
     inkscape:pageshadow="2"
     inkscape:window-width="1366"
     inkscape:window-height="718"
     id="namedview113"
     showgrid="true"
     inkscape:zoom="14.75"
     inkscape:cx="7.3737435"
     inkscape:cy="13.085484"
     inkscape:window-x="0"
     inkscape:window-y="0"
     inkscape:window-maximized="1"
     inkscape:current-layer="svg2"
     showguides="false">
    <inkscape:grid
       type="xygrid"
       id="grid4245" />
  </sodipodi:namedview>
  <linearGradient
     id="a"
     gradientUnits="userSpaceOnUse"
     x1="56"
     x2="88"
     y1="52.000004"
     y2="96">
    <stop
       offset="0"
       stop-color="#dfe2e8"
       id="stop5" />
    <stop
       offset="1"
       stop-color="#fefefe"
       id="stop7" />
  </linearGradient>
  <linearGradient
     id="b"
     gradientUnits="userSpaceOnUse"
     x1="16"
     x2="88"
     y1="16.000004"
     y2="72">
    <stop
       offset="0"
       stop-color="#fefefe"
       id="stop10" />
    <stop
       offset="1"
       stop-color="#fefefe"
       stop-opacity="0"
       id="stop12" />
  </linearGradient>
  <linearGradient
     id="c"
     gradientUnits="userSpaceOnUse"
     x1="22.422276"
     x2="25.833057"
     xlink:href="#d"
     y1="275.90698"
     y2="292.39023" />
  <linearGradient
     id="d">
    <stop
       offset="0"
       stop-color="#fff"
       id="stop16" />
    <stop
       offset="1"
       stop-color="#fff"
       stop-opacity="0"
       id="stop18" />
  </linearGradient>
  <filter
     id="e"
     height="1.024"
     width="1.024"
     x="-0.012"
     y="-0.012"
     style="color-interpolation-filters:sRGB">
    <feGaussianBlur
       stdDeviation=".28192153"
       id="feGaussianBlur21" />
  </filter>
  <radialGradient
     id="f"
     cx="50.424522"
     cy="-81.945961"
     gradientTransform="matrix(0.08147617,0.08147617,-0.08147617,0.08147617,12.300833,291.59469)"
     gradientUnits="userSpaceOnUse"
     r="50.15279">
    <stop
       offset="0"
       stop-color="#7ae91e"
       stop-opacity=".996078"
       id="stop24" />
    <stop
       offset="1"
       stop-color="#62c916"
       id="stop26" />
  </radialGradient>
  <linearGradient
     id="g"
     gradientTransform="scale(1.0975951,0.9110828)"
     gradientUnits="userSpaceOnUse"
     x1="26.091133"
     x2="31.500689"
     xlink:href="#d"
     y1="14.856744"
     y2="14.856744" />
  <filter
     id="h"
     height="1.277481"
     width="1.279832"
     x="-0.139916"
     y="-0.138741">
    <feGaussianBlur
       stdDeviation=".28784801"
       id="feGaussianBlur30" />
  </filter>
  <linearGradient
     id="i"
     gradientUnits="userSpaceOnUse"
     x1="304.88663"
     x2="345.62039"
     y1="385.86127"
     y2="384.62384">
    <stop
       offset="0"
       stop-color="#765c44"
       id="stop33" />
    <stop
       offset="1"
       stop-color="#765c44"
       stop-opacity="0"
       id="stop35" />
  </linearGradient>
  <linearGradient
     id="j"
     gradientUnits="userSpaceOnUse"
     spreadMethod="reflect"
     x1="31.606251"
     x2="34.575108"
     y1="13.510336"
     y2="13.510336">
    <stop
       offset="0"
       stop-color="#fff"
       id="stop38" />
    <stop
       offset="1"
       stop-color="#790000"
       stop-opacity="0"
       id="stop40" />
  </linearGradient>
  <radialGradient
     id="k"
     cx="51.991096"
     cy="-78.028419"
     gradientTransform="matrix(0.07469784,0.08773236,-0.14847119,0.12641263,7.425731,294.77574)"
     gradientUnits="userSpaceOnUse"
     r="57.039597"
     xlink:href="#l" />
  <linearGradient
     id="l">
    <stop
       offset="0"
       stop-color="#011701"
       id="stop44" />
    <stop
       offset=".80671918"
       stop-color="#145703"
       id="stop46" />
    <stop
       offset="1"
       stop-color="#2fa207"
       stop-opacity=".384314"
       id="stop48" />
  </linearGradient>
  <radialGradient
     id="m"
     cx="43.084476"
     cy="-121.92532"
     gradientTransform="matrix(0.0802945,0.08264095,-0.09601599,0.09328978,10.578973,292.98488)"
     gradientUnits="userSpaceOnUse"
     r="57.039597"
     xlink:href="#l" />
  <radialGradient
     id="n"
     cx="84.903702"
     cy="-130.14005"
     gradientTransform="matrix(0.08147617,0.08147617,-0.08147617,0.08147617,12.300833,291.59469)"
     gradientUnits="userSpaceOnUse"
     r="57.039597"
     xlink:href="#l" />
  <linearGradient
     id="o"
     gradientUnits="userSpaceOnUse"
     spreadMethod="reflect"
     x1="88.606247"
     x2="91.575104"
     y1="13.510336"
     y2="13.510336">
    <stop
       offset="0"
       stop-color="#c8ff87"
       id="stop53" />
    <stop
       offset="1"
       stop-color="#abff87"
       stop-opacity="0"
       id="stop55" />
  </linearGradient>
  <g
     id="g4971"
     transform="matrix(0.99983408,0,0,1,5.2654904e-4,0)">
    <g
       transform="matrix(0.04960526,0,0,0.04960526,0.00105381,1.2571774)"
       id="g59"
       style="opacity:0.75">
      <path
         d="m 0,48 0,0.117188 0,3.765624 c 0,0.0249 0.02746211,0.04359 0.0546875,0.0625 L 0,52 32,100 32.05469,99.94531 C 32.098304,99.975593 32.159686,100 32.242188,100 L 124,100 l 3.75781,0 C 127.89183,100 128,99.947442 128,99.882812 l 0,-3.765624 c 0,-0.02484 -0.0275,-0.0436 -0.0547,-0.0625 L 128,96 96,48 95.94727,48.05273 C 95.903743,48.022104 95.840866,48 95.757812,48 Z M 6.6660156,52 92,52 121.33398,96 36,96 Z"
         id="path61"
         inkscape:connector-curvature="0"
         style="opacity:1;fill:#555555" />
      <path
         d="m 0,48 c 0.04198189,-0.03472 -0.08933211,0 0,0 z m 95.757812,0 c 0.08305,0 0.145931,0.0221 0.189454,0.05273 L 96,48 Z M 6.6660156,52 22.666016,76 108,76 92,52 Z"
         id="path65"
         style="opacity:1;fill:url(#linearGradient4267)"
         inkscape:connector-curvature="0" />
      <path
         d="M 95.757812,48 95.947266,48.05273 96,48 Z M 6.6660156,52 36,96 121.33398,96 92,52 Z"
         id="path63"
         style="fill:#f3b7d9;fill-opacity:1;fill-rule:evenodd"
         inkscape:connector-curvature="0" />
    </g>
    <path
       d="m 0.01306756,3.6382298 c -0.00664703,0 -0.01201378,0.00261 -0.01201378,0.00582 l 0,0.1867945 c 0,0.00131 0.00136226,0.00216 0.00271278,0.00309 l -0.00271278,0.00271 1.58736822,2.3810524 0.00271,-0.00271 c 0.00216,0.0015 0.0052,0.00271 0.0093,0.00271 l 4.5516699,0 0.1864072,0 c 0.00664,0 0.012014,-0.00261 0.012014,-0.00582 l 0,-0.1867945 c 0,-0.00131 -0.00137,-0.00216 -0.00271,-0.00309 l 0.00271,-0.00271 -1.5873684,-2.3810524 -0.00261,0.00262 c -0.00216,-0.0015 -0.00528,-0.00262 -0.0094,-0.00262 z m 0.31865563,0.1984205 4.23301431,0 1.4551196,2.1826319 -4.233014,0 z"
       id="path67"
       inkscape:connector-curvature="0"
       style="fill:#9d3a9b" />
    <g
       transform="matrix(0.04960526,0,0,0.04960526,0.00105381,0.06665118)"
       id="g69">
      <path
         d="m 0,48 0,3.882812 0.0546875,0.0625 L 0,52 32,100 32.05469,99.94531 32.24219,100 124,100 l 3.75781,0 0.24219,-0.117188 0,-3.765624 -0.0547,-0.0625 L 128,96 96,48 95.947266,48.052734 95.757812,48 Z M 6.6660156,52 92,52 121.33398,96 36,96 Z"
         id="path71"
         inkscape:connector-curvature="0"
         style="fill:#9d3a9b" />
      <path
         d="m 95.757812,48 c 0.08305,0 0.145931,0.0221 0.189454,0.05273 L 96,48 Z M 6.6660156,52 36,96 121.33398,96 92,52 Z"
         id="path73"
         style="fill:#f3b7d9;fill-opacity:1;fill-rule:evenodd"
         inkscape:connector-curvature="0" />
      <path
         d="m 95.757812,48 c 0.08305,0 0.145931,0.0221 0.189454,0.05273 L 96,48 Z M 6.6660156,52 22.666016,76 108,76 92,52 Z"
         id="path75"
         style="fill:#f3b7d9;fill-opacity:1"
         inkscape:connector-curvature="0" />
    </g>
  </g>
  <g
     transform="matrix(0.26458334,0,0,0.26458334,-2.6458337,-2.6458334)"
     id="g4198">
    <rect
       ry="1.0000001"
       y="10"
       x="15"
       height="14"
       width="4"
       id="rect4328-3"
       style="opacity:1;fill:#e602b4;fill-opacity:1;fill-rule:nonzero;stroke:none;stroke-width:0.25;stroke-linecap:round;stroke-linejoin:round;stroke-miterlimit:4;stroke-dasharray:none;stroke-dashoffset:0;stroke-opacity:1" />
    <rect
       ry="1.0000005"
       y="14.999999"
       x="10"
       height="4.0000005"
       width="14"
       id="rect4334-6"
       style="opacity:1;fill:#e602b4;fill-opacity:1;fill-rule:nonzero;stroke:none;stroke-width:0.25;stroke-linecap:round;stroke-linejoin:round;stroke-miterlimit:4;stroke-dasharray:none;stroke-dashoffset:0;stroke-opacity:1" />
    <rect
       ry="0.49999994"
       y="10.5"
       x="15.5"
       height="12.999998"
       width="3.0000005"
       id="rect4326-7"
       style="opacity:1;fill:#f3b7d9;fill-opacity:1;fill-rule:nonzero;stroke:none;stroke-width:0.25;stroke-linecap:round;stroke-linejoin:round;stroke-miterlimit:4;stroke-dasharray:none;stroke-dashoffset:0;stroke-opacity:1" />
    <rect
       ry="0.50000018"
       y="15.499999"
       x="10.5"
       height="3"
       width="13"
       id="rect4332-5"
       style="opacity:1;fill:#f3b7d9;fill-opacity:1;fill-rule:nonzero;stroke:none;stroke-width:0.25;stroke-linecap:round;stroke-linejoin:round;stroke-miterlimit:4;stroke-dasharray:none;stroke-dashoffset:0;stroke-opacity:1" />
    <rect
       ry="0"
       rx="0"
       y="11"
       x="16"
       height="11.5"
       width="2.0000002"
       id="rect4324-3"
       style="opacity:1;fill:#9d3a9b;fill-opacity:1;fill-rule:nonzero;stroke:none;stroke-width:0.25;stroke-linecap:round;stroke-linejoin:round;stroke-miterlimit:4;stroke-dasharray:none;stroke-dashoffset:0;stroke-opacity:1" />
    <rect
       ry="0"
       y="15.999999"
       x="11"
       height="2.0000014"
       width="12"
       id="rect4330-5"
       style="opacity:1;fill:#9d3a9b;fill-opacity:1;fill-rule:nonzero;stroke:none;stroke-width:0.25;stroke-linecap:round;stroke-linejoin:round;stroke-miterlimit:4;stroke-dasharray:none;stroke-dashoffset:0;stroke-opacity:1" />
  </g>
</svg>
