<?xml version="1.0" encoding="UTF-8" standalone="no"?>
<svg
   xmlns:dc="http://purl.org/dc/elements/1.1/"
   xmlns:cc="http://creativecommons.org/ns#"
   xmlns:rdf="http://www.w3.org/1999/02/22-rdf-syntax-ns#"
   xmlns:svg="http://www.w3.org/2000/svg"
   xmlns="http://www.w3.org/2000/svg"
   xmlns:xlink="http://www.w3.org/1999/xlink"
   xmlns:sodipodi="http://sodipodi.sourceforge.net/DTD/sodipodi-0.dtd"
   xmlns:inkscape="http://www.inkscape.org/namespaces/inkscape"
   height="24"
   width="24"
   id="svg2"
   version="1.1"
   inkscape:version="0.91 r13725"
   sodipodi:docname="lc_insertauthorfield.svg"
   inkscape:export-filename="/home/tamara/Desktop/IKON/5_258 (tamara)/sc (222)/Tanggal 23/lc_insertauthorfield.png"
   inkscape:export-xdpi="90"
   inkscape:export-ydpi="90">
  <metadata
     id="metadata310">
    <rdf:RDF>
      <cc:Work
         rdf:about="">
        <dc:format>image/svg+xml</dc:format>
        <dc:type
           rdf:resource="http://purl.org/dc/dcmitype/StillImage" />
        <dc:title />
      </cc:Work>
    </rdf:RDF>
  </metadata>
  <defs
     id="defs308" />
  <sodipodi:namedview
     pagecolor="#ffffff"
     bordercolor="#666666"
     borderopacity="1"
     objecttolerance="10"
     gridtolerance="10"
     guidetolerance="10"
     inkscape:pageopacity="0"
     inkscape:pageshadow="2"
     inkscape:window-width="1366"
     inkscape:window-height="718"
     id="namedview306"
     showgrid="true"
     inkscape:zoom="20.85965"
     inkscape:cx="2.8549825"
     inkscape:cy="14.55836"
     inkscape:window-x="0"
     inkscape:window-y="0"
     inkscape:window-maximized="1"
     inkscape:current-layer="svg2"
     showguides="false">
    <inkscape:grid
       type="xygrid"
       id="grid4438" />
  </sodipodi:namedview>
  <filter
     id="a"
     height="1.535705"
     width="1.063627"
     x="-0.031812999"
     y="-0.26785299">
    <feGaussianBlur
       stdDeviation="1.3951513"
       id="feGaussianBlur5" />
  </filter>
  <filter
     id="b"
     height="1.116366"
     width="1.417365"
     x="-0.208682"
     y="-0.058182999">
    <feGaussianBlur
       stdDeviation=".13891086"
       id="feGaussianBlur8" />
  </filter>
  <linearGradient
     id="c">
    <stop
       offset="0"
       stop-color="#2e2f34"
       id="stop11" />
    <stop
       offset="1"
       stop-color="#3b3944"
       id="stop13" />
  </linearGradient>
  <filter
     id="d">
    <feGaussianBlur
       stdDeviation="1.640636"
       id="feGaussianBlur16" />
  </filter>
  <clipPath
     id="e">
    <path
       d="m 341.25,409.625 c -1.51321,7.20236 -5.74124,23.3964 -0.5,27.25 -0.64647,6.99978 -7.0786,9.64392 -15,11.1875 l -1.5,0 c -7.9214,-1.54358 -14.35353,-4.18772 -15,-11.1875 5.24124,-3.8536 1.01321,-20.04764 -0.5,-27.25 l 16.25,7.40625 z"
       id="path19"
       inkscape:connector-curvature="0" />
  </clipPath>
  <filter
     id="f"
     height="1.143371"
     width="1.3186001"
     x="-0.1593"
     y="-0.071686">
    <feGaussianBlur
       stdDeviation=".10560268"
       id="feGaussianBlur22" />
  </filter>
  <linearGradient
     id="g">
    <stop
       offset="0"
       stop-color="#f1e4d4"
       id="stop25" />
    <stop
       offset="1"
       stop-color="#f1e4d4"
       stop-opacity="0"
       id="stop27" />
  </linearGradient>
  <filter
     id="h"
     height="1.173597"
     width="1.229718"
     x="-0.114859"
     y="-0.086797997">
    <feGaussianBlur
       stdDeviation=".6238629"
       id="feGaussianBlur30" />
  </filter>
  <linearGradient
     id="i">
    <stop
       offset="0"
       stop-color="#e2e2e2"
       id="stop33" />
    <stop
       offset="1"
       stop-color="#fff"
       id="stop35" />
  </linearGradient>
  <filter
     id="j">
    <feGaussianBlur
       stdDeviation="1.7299525"
       id="feGaussianBlur38" />
  </filter>
  <clipPath
     id="k">
    <path
       d="M 63.014463,7.3991564 C 55.191522,7.6052254 46.136686,11.290762 42.989487,18.279618 39.78376,25.39839 40.250437,33.898301 42.172141,43.72642 c 1.921714,9.828099 9.237108,20.052352 12.442841,23.75033 3.038417,3.504942 5.93033,2.871473 8.399481,2.795993 0.126549,0 0.304142,-0.0041 0.44011,0 2.469151,0.07548 5.361064,0.708949 8.399481,-2.795993 C 75.059787,63.778772 82.375181,53.554519 84.296895,43.72642 86.218623,33.898301 86.685276,25.39839 83.479549,18.279618 80.33234,11.290762 71.277514,7.6052254 63.454573,7.3991564 Z"
       id="path41"
       inkscape:connector-curvature="0" />
  </clipPath>
  <clipPath
     id="l">
    <path
       d="m 116.90282,7.3991564 c -7.82294,0.206069 -16.87778,3.8916056 -20.024977,10.8804616 -3.205727,7.118772 -1.731036,15.474338 -0.817346,25.446802 1.352471,14.76154 9.237113,20.052352 12.442843,23.75033 3.03842,3.504942 5.93033,2.871473 8.39948,2.795993 0.12655,0 0.30414,-0.0041 0.44011,0 2.46915,0.07548 5.36106,0.708949 8.39948,-2.795993 3.20573,-3.697978 11.65961,-9.558033 12.44284,-23.75033 0.55182,-9.999023 2.38838,-18.32803 -0.81734,-25.446802 C 134.2207,11.290762 125.16587,7.6052254 117.34293,7.3991564 Z"
       id="path44"
       inkscape:connector-curvature="0" />
  </clipPath>
  <filter
     id="m">
    <feGaussianBlur
       stdDeviation=".4247976"
       id="feGaussianBlur47" />
  </filter>
  <filter
     id="n"
     height="1.214237"
     width="1.080007"
     x="-0.040003002"
     y="-0.107118">
    <feGaussianBlur
       stdDeviation=".71204002"
       id="feGaussianBlur50" />
  </filter>
  <filter
     id="o"
     height="1.2457401"
     width="1.540483"
     x="-0.27024201"
     y="-0.12287">
    <feGaussianBlur
       stdDeviation=".33028573"
       id="feGaussianBlur53" />
  </filter>
  <clipPath
     id="p">
    <path
       d="m -114.0625,75.96875 -2,3.375 c -8.20863,15.645423 -3.26704,30.7977 4.34375,44.71875 3.22161,0.0667 6.31028,0.0969 9.0625,0.0937 0.48791,-5.5e-4 1.03079,0 1.5,0 0.33586,1.1e-4 0.6872,0 1,0 0.503792,-1.7e-4 1.000303,-5.3e-4 1.5,0 2.697894,0.003 5.724283,6e-5 8.875,-0.0625 5.586662,-13.36601 14.307038,-27.244721 4.375,-45.0625 L -87.25,75.96875 c -2.571273,4.488158 -7.164302,9.43602 -13.40625,12.03125 -5.30022,-2.350848 -11.59397,-8.491831 -13.40625,-12.03125 z"
       id="path56"
       inkscape:connector-curvature="0" />
  </clipPath>
  <filter
     id="q"
     height="1.050011"
     width="1.220838"
     x="-0.110419"
     y="-0.025005">
    <feGaussianBlur
       stdDeviation=".24685475"
       id="feGaussianBlur59" />
  </filter>
  <filter
     id="r"
     height="1.384095"
     width="1.04562"
     x="-0.022810001"
     y="-0.192047">
    <feGaussianBlur
       stdDeviation="1.0003101"
       id="feGaussianBlur62" />
  </filter>
  <filter
     id="s">
    <feGaussianBlur
       stdDeviation="1.1621363"
       id="feGaussianBlur65" />
  </filter>
  <clipPath
     id="t">
    <path
       d="m 80.238578,-11.752729 c -0.511071,16.9732834 -1.901288,33.077018 -4.645761,47.818158 13.394499,-0.26595 29.766403,-1.67761 42.674633,-9.02605 l 1.59283,-1.8583 c 0,0 0.70722,-7.37805 -2.02422,-14.800074 -0.89558,-2.4335746 -1.07294,-3.9617956 -4.148,-5.3426256 -8.9149,-4.0031822 -26.125688,-9.9734002 -31.956201,-14.3023082 z m -32.553512,0.298656 -1.327361,2.1901442 c -5.830509,4.328908 -23.041308,10.299126 -31.9562,14.3023082 -3.075058,1.38083 -3.252426,2.909051 -4.148001,5.3426256 -2.731442,7.422024 -2.0242244,14.800074 -2.0242244,14.800074 l 1.5928324,1.8583 c 12.84064,7.30996 29.117401,8.71615 42.475531,8.99287 -2.724285,-14.64522 -4.094631,-30.6358466 -4.612577,-47.486322 z m 4.612577,47.486322 c 3.42099,0.07087 6.700812,0.10285 9.623363,0.09955 -2.922551,0.0033 -6.202373,-0.02868 -9.623363,-0.09955 z"
       id="path68"
       inkscape:connector-curvature="0" />
  </clipPath>
  <filter
     id="u"
     height="1.202553"
     width="1.120946"
     x="-0.060472999"
     y="-0.101276">
    <feGaussianBlur
       stdDeviation=".91517985"
       id="feGaussianBlur71" />
  </filter>
  <filter
     id="v">
    <feGaussianBlur
       stdDeviation=".84705419"
       id="feGaussianBlur74" />
  </filter>
  <clipPath
     id="w">
    <path
       d="m 46.954016,51.150662 c 1.569963,6.607256 5.956559,21.463278 0.518753,24.998486 0.670714,6.421434 7.344073,8.847107 15.562555,10.263143 l 1.556257,0 c 8.218486,-1.416036 14.891842,-3.841709 15.56256,-10.263143 -5.437807,-3.535208 -1.05121,-18.39123 0.518749,-24.998486 l -16.859433,6.794303 z"
       id="path77"
       inkscape:connector-curvature="0" />
  </clipPath>
  <filter
     id="x">
    <feGaussianBlur
       stdDeviation="1.8223876"
       id="feGaussianBlur80" />
  </filter>
  <filter
     id="y"
     height="1.25272"
     width="1.079549"
     x="-0.039774999"
     y="-0.12636">
    <feGaussianBlur
       stdDeviation="1.8526222"
       id="feGaussianBlur83" />
  </filter>
  <linearGradient
     id="z"
     gradientUnits="userSpaceOnUse"
     x1="76.53524"
     x2="76.53524"
     xlink:href="#c"
     y1="34.147495"
     y2="-71.927269" />
  <radialGradient
     id="A"
     cx="-146.25349"
     cy="108.85666"
     gradientTransform="matrix(3.1926015,-1.5e-7,2.6e-7,5.2645424,320.6756,-464.22387)"
     gradientUnits="userSpaceOnUse"
     r="2.68274">
    <stop
       offset="0"
       stop-color="#252525"
       id="stop87" />
    <stop
       offset=".29354507"
       stop-color="#252525"
       id="stop89" />
    <stop
       offset=".45366704"
       stop-color="#252525"
       id="stop91" />
    <stop
       offset="1"
       id="stop93" />
  </radialGradient>
  <linearGradient
     id="B"
     gradientUnits="userSpaceOnUse"
     x1="76.53524"
     x2="76.53524"
     y1="34.147495"
     y2="-71.927269">
    <stop
       offset="0"
       stop-color="#fff"
       id="stop96" />
    <stop
       offset=".5"
       stop-color="#f9f9f9"
       id="stop98" />
    <stop
       offset="1"
       stop-color="#aeaeae"
       id="stop100" />
  </linearGradient>
  <linearGradient
     id="C"
     gradientUnits="userSpaceOnUse"
     x1="75.807281"
     x2="75.807281"
     xlink:href="#c"
     y1="119.12484"
     y2="80.701263" />
  <radialGradient
     id="D"
     cx="303.71942"
     cy="397.17728"
     gradientTransform="matrix(1,0,0,2.5768702,43.133514,-626.29699)"
     gradientUnits="userSpaceOnUse"
     r="0.79621899"
     xlink:href="#g" />
  <radialGradient
     id="E"
     cx="303.71942"
     cy="397.17728"
     gradientTransform="matrix(1,0,0,2.5768702,-372.5,-950.79699)"
     gradientUnits="userSpaceOnUse"
     r="0.79621899"
     xlink:href="#g" />
  <linearGradient
     id="F"
     gradientUnits="userSpaceOnUse"
     x1="76.833313"
     x2="147.89993"
     y1="64.511772"
     y2="13.937989">
    <stop
       offset="0"
       stop-color="#844d30"
       id="stop106" />
    <stop
       offset="1"
       stop-color="#844d30"
       stop-opacity="0"
       id="stop108" />
  </linearGradient>
  <linearGradient
     id="G"
     gradientUnits="userSpaceOnUse"
     x1="-19.05484"
     x2="-32.732151"
     y1="66.362183"
     y2="49.112179">
    <stop
       offset="0"
       stop-color="#dfcbba"
       id="stop111" />
    <stop
       offset="1"
       stop-color="#dfcbba"
       stop-opacity="0"
       id="stop113" />
  </linearGradient>
  <linearGradient
     id="H"
     gradientUnits="userSpaceOnUse"
     x1="66.529404"
     x2="66.529404"
     y1="22.188738"
     y2="2.3240459">
    <stop
       offset="0"
       stop-color="#4d2710"
       stop-opacity=".960784"
       id="stop116" />
    <stop
       offset="1"
       stop-color="#79523a"
       id="stop118" />
  </linearGradient>
  <radialGradient
     id="I"
     cx="-146.25349"
     cy="108.85666"
     gradientTransform="matrix(3.1926015,-1.5e-7,2.6e-7,5.2645424,485.37663,-468.01882)"
     gradientUnits="userSpaceOnUse"
     r="2.68274"
     xlink:href="#c" />
  <linearGradient
     id="J"
     gradientUnits="userSpaceOnUse"
     x1="76.306892"
     x2="76.306892"
     xlink:href="#i"
     y1="51.40979"
     y2="76.760468"
     gradientTransform="matrix(0.125,0,0,0.125,-3.000216,0)" />
  <linearGradient
     id="K"
     gradientUnits="userSpaceOnUse"
     x1="76.306892"
     x2="76.306892"
     xlink:href="#i"
     y1="44.87249"
     y2="81.013924"
     gradientTransform="matrix(0.125,0,0,0.125,-3.000216,0)" />
  <linearGradient
     id="L"
     gradientTransform="matrix(0.09601448,0,0,0.10442536,0.3551535,-0.2657585)"
     gradientUnits="userSpaceOnUse"
     x1="66.719147"
     x2="66.719147"
     y1="29.968395"
     y2="2.3240459">
    <stop
       offset="0"
       stop-color="#0d0602"
       id="stop124" />
    <stop
       offset=".5"
       stop-color="#28180e"
       id="stop126" />
    <stop
       offset="1"
       stop-color="#79523a"
       id="stop128" />
  </linearGradient>
  <radialGradient
     id="M"
     cx="324.39758"
     cy="396.09259"
     fx="330.69058"
     fy="384.50919"
     gradientTransform="matrix(0.08061196,-2.4198875e-4,2.6226875e-4,0.10092454,-19.799021,-36.206895)"
     gradientUnits="userSpaceOnUse"
     r="22.444885">
    <stop
       offset="0"
       stop-color="#faf0e5"
       id="stop131" />
    <stop
       offset=".38006186"
       stop-color="#f7e7d6"
       id="stop133" />
    <stop
       offset="1"
       stop-color="#ffd9b9"
       id="stop135" />
  </radialGradient>
  <linearGradient
     id="N"
     gradientTransform="matrix(0.11044409,0,0,0.09772025,-0.53557838,-0.02905125)"
     gradientUnits="userSpaceOnUse"
     x1="53.364258"
     x2="68.140564"
     y1="70.565567"
     y2="76.926865">
    <stop
       offset="0"
       stop-color="#c39577"
       id="stop138" />
    <stop
       offset="1"
       stop-color="#fcd9bc"
       stop-opacity="0"
       id="stop140" />
  </linearGradient>
  <linearGradient
     id="O"
     gradientTransform="matrix(0.11075309,0,0,0.09799365,-0.5552995,-0.0537005)"
     gradientUnits="userSpaceOnUse"
     x1="73.080742"
     x2="63.82048"
     y1="74.840172"
     y2="72.037125">
    <stop
       offset="0"
       stop-color="#fcd9bc"
       id="stop143" />
    <stop
       offset="1"
       stop-color="#fcd9bc"
       stop-opacity="0"
       id="stop145" />
  </linearGradient>
  <radialGradient
     id="P"
     cx="63.78125"
     cy="64.75444"
     gradientTransform="matrix(0.34378836,0,0,0.15737445,-15.368077,-2.2682603)"
     gradientUnits="userSpaceOnUse"
     r="45.881504">
    <stop
       offset="0"
       stop-color="#fff"
       id="stop148" />
    <stop
       offset=".54098803"
       stop-color="#f5f5f5"
       id="stop150" />
    <stop
       offset="1"
       stop-color="#aeaeae"
       id="stop152" />
  </radialGradient>
  <linearGradient
     id="Q"
     gradientTransform="matrix(0.12408983,0,0,0.12089661,33.128445,-1.1977549)"
     gradientUnits="userSpaceOnUse"
     x1="-158.7686"
     x2="-181.66037"
     xlink:href="#R"
     y1="114.56229"
     y2="92.122795" />
  <linearGradient
     id="R">
    <stop
       offset="0"
       stop-color="#fff"
       id="stop156" />
    <stop
       offset="1"
       stop-color="#fff"
       stop-opacity="0"
       id="stop158" />
  </linearGradient>
  <linearGradient
     id="S"
     gradientTransform="matrix(0.12408983,0,0,0.12089661,33.175778,-0.74953187)"
     gradientUnits="userSpaceOnUse"
     x1="-176.82246"
     x2="-176.14407"
     xlink:href="#R"
     y1="72.392433"
     y2="95.831161" />
  <linearGradient
     id="T"
     gradientTransform="matrix(0.12408983,0,0,0.12089661,33.175778,-0.74953187)"
     gradientUnits="userSpaceOnUse"
     x1="-176.82246"
     x2="-176.82246"
     xlink:href="#R"
     y1="5.9640589"
     y2="109.09552" />
  <filter
     id="U"
     style="color-interpolation-filters:sRGB">
    <feGaussianBlur
       stdDeviation=".55418773"
       id="feGaussianBlur163" />
  </filter>
  <linearGradient
     id="V"
     gradientTransform="matrix(0.13126857,0,0,0.12789063,33.854746,-0.7044225)"
     gradientUnits="userSpaceOnUse"
     x1="-150.48445"
     x2="-150.48445"
     y1="68.066399"
     y2="117.80468">
    <stop
       offset="0"
       stop-color="#a4c0e4"
       id="stop166" />
    <stop
       offset="1"
       stop-color="#a4c0e4"
       stop-opacity="0"
       id="stop168" />
  </linearGradient>
  <radialGradient
     id="W"
     cx="-166.53223"
     cy="116.62209"
     gradientTransform="matrix(0,0.11453273,-0.11755786,0,3.2996591,16.859877)"
     gradientUnits="userSpaceOnUse"
     r="31.190229">
    <stop
       offset="0"
       stop-color="#0081ec"
       id="stop171" />
    <stop
       offset="1"
       stop-color="#004c98"
       id="stop173" />
  </radialGradient>
  <radialGradient
     id="X"
     cx="-166.53223"
     cy="65.938202"
     gradientTransform="matrix(1,0,0,0.6578174,0,22.562908)"
     gradientUnits="userSpaceOnUse"
     r="31.190229"
     xlink:href="#R" />
  <clipPath
     id="Y">
    <circle
       cx="-166.53223"
       cy="93.331604"
       r="30.690229"
       id="circle177"
       style="filter:url(#Z)" />
  </clipPath>
  <filter
     id="Z"
     style="color-interpolation-filters:sRGB">
    <feGaussianBlur
       stdDeviation="1.9142018"
       id="feGaussianBlur180" />
  </filter>
  <radialGradient
     id="aa"
     cx="-166.53223"
     cy="84.275475"
     gradientTransform="matrix(0,0.14248655,-0.14625003,0,6.9301082,18.173542)"
     gradientUnits="userSpaceOnUse"
     r="31.190229">
    <stop
       offset="0"
       stop-color="#0081ec"
       id="stop183" />
    <stop
       offset="1"
       stop-color="#003871"
       id="stop185" />
  </radialGradient>
  <radialGradient
     id="ab"
     cx="-166.53223"
     cy="65.938202"
     gradientTransform="matrix(0.5375647,0,0,0.6578174,-77.010381,22.562908)"
     gradientUnits="userSpaceOnUse"
     r="31.190229">
    <stop
       offset="0"
       stop-color="#00c4cc"
       id="stop188" />
    <stop
       offset="1"
       stop-color="#fff"
       stop-opacity="0"
       id="stop190" />
  </radialGradient>
  <filter
     id="ac"
     style="color-interpolation-filters:sRGB">
    <feGaussianBlur
       stdDeviation=".61380459"
       id="feGaussianBlur193" />
  </filter>
  <linearGradient
     id="ad"
     gradientUnits="userSpaceOnUse"
     x1="-175.8602"
     x2="-174.98068"
     y1="125.05635"
     y2="67.385735">
    <stop
       offset="0"
       stop-color="#00316e"
       id="stop196" />
    <stop
       offset="1"
       stop-color="#00316e"
       stop-opacity="0"
       id="stop198" />
  </linearGradient>
  <g
     id="g4265">
    <path
       inkscape:connector-curvature="0"
       id="path4538"
       d="M 9.4704065,0.25618389 A 6.142815,6.153989 0 0 0 3.4235727,5.3845076 l -0.095981,0 c -0.5671868,0 -1.0238028,0.4574463 -1.0238028,1.0256658 l 0,1.0256644 c 0,0.5682182 0.456616,1.0256644 1.0238028,1.0256644 l 0.3559309,0 a 6.142815,6.153989 0 0 0 3.7392787,3.7420748 l 0,1.386251 -3.0714075,0 c -2.2687462,0 -4.09521009,1.829786 -4.09521009,4.102659 l 0,2.05133 18.42844529,0 0,-2.05133 c 0,-2.272873 -1.826463,-4.102659 -4.09521,-4.102659 l -3.071408,0 0,-1.382245 A 6.142815,6.153989 0 0 0 15.25329,8.4615022 l 0.359931,0 c 0.567187,0 1.023802,-0.4574462 1.023802,-1.0256644 l 0,-1.0256644 c 0,-0.5682195 -0.456615,-1.0256658 -1.023802,-1.0256658 l -0.08398,0 A 6.142815,6.153989 0 0 0 9.4704057,0.25618389 Z"
       style="opacity:1;fill:#f3b7d9;fill-opacity:1;fill-rule:nonzero;stroke:#9d3a9b;stroke-width:0.51236665;stroke-linecap:round;stroke-linejoin:round;stroke-miterlimit:4;stroke-dasharray:none;stroke-dashoffset:0;stroke-opacity:1" />
    <g
       transform="matrix(0.9982131,0,0,1,0.02107656,0.10354424)"
       id="g5249">
      <ellipse
         style="fill:#e602b4"
         id="circle284"
         transform="scale(-1,1)"
         cy="17.357183"
         cx="-17.309855"
         rx="6.7119937"
         ry="6.5392723" />
      <ellipse
         style="fill:#f3b7d9"
         id="circle288"
         transform="scale(-1,1)"
         cy="17.343689"
         cx="-17.309736"
         rx="5.395196"
         ry="5.256361" />
      <path
         style="fill:#9d3a9b"
         d="m 16.449003,13.583543 1.495393,0 0,4.48618 -1.495393,0 z"
         id="path302"
         inkscape:connector-curvature="0" />
      <rect
         style="fill:#9d3a9b"
         height="2.0621238"
         rx="1.0582952"
         ry="1.0310619"
         width="2.116591"
         x="16.175264"
         y="19.255934"
         id="rect304" />
    </g>
  </g>
</svg>
