<?xml version="1.0" encoding="UTF-8" standalone="no"?>
<svg
   xmlns:dc="http://purl.org/dc/elements/1.1/"
   xmlns:cc="http://creativecommons.org/ns#"
   xmlns:rdf="http://www.w3.org/1999/02/22-rdf-syntax-ns#"
   xmlns:svg="http://www.w3.org/2000/svg"
   xmlns="http://www.w3.org/2000/svg"
   xmlns:xlink="http://www.w3.org/1999/xlink"
   xmlns:sodipodi="http://sodipodi.sourceforge.net/DTD/sodipodi-0.dtd"
   xmlns:inkscape="http://www.inkscape.org/namespaces/inkscape"
   height="24"
   width="24"
   id="svg2"
   version="1.1"
   inkscape:version="0.91 r13725"
   sodipodi:docname="lc_inputlinevisible.svg"
   inkscape:export-filename="/home/tamara/Desktop/IKON/5_258 (tamara)/sc (222)/Tanggal 23/lc_inputlinevisible.png"
   inkscape:export-xdpi="90"
   inkscape:export-ydpi="90">
  <metadata
     id="metadata70">
    <rdf:RDF>
      <cc:Work
         rdf:about="">
        <dc:format>image/svg+xml</dc:format>
        <dc:type
           rdf:resource="http://purl.org/dc/dcmitype/StillImage" />
        <dc:title></dc:title>
      </cc:Work>
    </rdf:RDF>
  </metadata>
  <defs
     id="defs68" />
  <sodipodi:namedview
     pagecolor="#ffffff"
     bordercolor="#666666"
     borderopacity="1"
     objecttolerance="10"
     gridtolerance="10"
     guidetolerance="10"
     inkscape:pageopacity="0"
     inkscape:pageshadow="2"
     inkscape:window-width="1366"
     inkscape:window-height="718"
     id="namedview66"
     showgrid="true"
     inkscape:zoom="14.75"
     inkscape:cx="9.9897809"
     inkscape:cy="11.688713"
     inkscape:window-x="0"
     inkscape:window-y="0"
     inkscape:window-maximized="1"
     inkscape:current-layer="svg2">
    <inkscape:grid
       type="xygrid"
       id="grid4198" />
  </sodipodi:namedview>
  <filter
     id="a">
    <feGaussianBlur
       stdDeviation="1.177891"
       id="feGaussianBlur5" />
  </filter>
  <linearGradient
     id="b">
    <stop
       offset="0"
       stop-color="#6f6f6f"
       id="stop8" />
    <stop
       offset="1"
       stop-color="#fff"
       id="stop10" />
  </linearGradient>
  <linearGradient
     id="c"
     gradientUnits="userSpaceOnUse"
     x1="1052.916"
     x2="1055.8423"
     xlink:href="#b"
     y1="-481.74805"
     y2="-476.67953"
     gradientTransform="matrix(0.18999673,0,0,0.19359826,-197.50359,95.657128)" />
  <linearGradient
     id="d"
     gradientUnits="userSpaceOnUse"
     x1="1053.9857"
     x2="1057.7916"
     xlink:href="#b"
     y1="-483.13486"
     y2="-476.54285"
     gradientTransform="matrix(0.1935983,0,0,0.19509374,-200.30433,98.372866)" />
  <linearGradient
     id="e"
     gradientUnits="userSpaceOnUse"
     x1="1052.3214"
     x2="1055.2821"
     xlink:href="#b"
     y1="-481.76657"
     y2="-476.63852"
     gradientTransform="matrix(0.19599021,0,0,0.19761705,-203.8285,101.58054)" />
  <linearGradient
     id="f"
     gradientTransform="matrix(0.01518212,0,0,0.02195756,14.452844,34.348984)"
     gradientUnits="userSpaceOnUse"
     x1="-333.0289"
     x2="-333.0289"
     y1="-1473.6504"
     y2="-1301.7214">
    <stop
       offset="0"
       stop-color="#fff"
       id="stop16" />
    <stop
       offset=".49140647"
       stop-color="#fff"
       id="stop18" />
    <stop
       offset="1"
       stop-color="#dcdcdc"
       id="stop20" />
  </linearGradient>
  <linearGradient
     id="g"
     gradientTransform="matrix(0.01518212,0,0,0.02195756,-0.4775285,-10.065278)"
     gradientUnits="userSpaceOnUse"
     x1="399.77466"
     x2="399.77466"
     y1="727.07941"
     y2="480.60214">
    <stop
       offset="0"
       stop-color="#cbcbcd"
       id="stop23" />
    <stop
       offset=".5"
       stop-color="#e0e0e2"
       id="stop25" />
    <stop
       offset="1"
       stop-color="#f2f2f2"
       id="stop27" />
  </linearGradient>
  <linearGradient
     id="h"
     gradientUnits="userSpaceOnUse"
     x1="15.093026"
     x2="25.320713"
     xlink:href="#i"
     y1="292.12253"
     y2="263.66364" />
  <linearGradient
     id="i">
    <stop
       offset="0"
       stop-color="#555"
       id="stop31" />
    <stop
       offset="1"
       id="stop33" />
  </linearGradient>
  <linearGradient
     id="j"
     gradientUnits="userSpaceOnUse"
     x1="21.34454"
     x2="27.9718"
     xlink:href="#i"
     y1="288.04095"
     y2="269.6004" />
  <g
     id="g4881">
    <rect
       height="16"
       rx="1"
       ry="1"
       width="22"
       x="1"
       y="1"
       id="rect40"
       style="fill:#e602b4" />
    <path
       d="M 1.4051339,1 C 1.1794159,1 1,1.2702401 1,1.6093729 L 1,16.390624 C 1,16.729762 1.1794159,17 1.4051339,17 L 22.594865,17 C 22.820587,17 23,16.729762 23,16.390624 L 23,1.6093729 C 23,1.2702401 22.820587,1 22.594865,1 Z m 0.8655133,1.9890635 19.4587038,0 c 0.214432,0 0.386719,0.2560162 0.386719,0.5742203 l 0,12.4874982 c 0,0.3182 -0.172287,0.574218 -0.386719,0.574218 l -19.4587038,0 c -0.2144332,0 -0.3867187,-0.256018 -0.3867187,-0.574218 l 0,-12.4874982 c 0,-0.3182041 0.1722856,-0.5742203 0.3867187,-0.5742203 z"
       id="path42"
       style="fill:#f3b7d9"
       inkscape:connector-curvature="0" />
    <ellipse
       ry="1.5553734"
       rx="1.5264387"
       cx="4.0551429"
       cy="5.7977686"
       id="circle44"
       style="fill:#f0e3ec" />
    <ellipse
       ry="1.5673881"
       rx="1.5553738"
       cx="5.6427999"
       cy="8.9730816"
       id="circle46"
       style="fill:#f0e3ec" />
    <ellipse
       ry="1.5876604"
       rx="1.5745904"
       cx="4.0551596"
       cy="12.148414"
       id="circle48"
       style="fill:#f0e3ec" />
    <rect
       height="8.5"
       ry="1.0915173"
       width="13"
       x="8"
       y="5"
       id="rect50"
       style="fill:#f0e3ec;fill-opacity:0.91176506" />
    <path
       d="m 8.7012069,4.757605 c -0.3994078,0 -0.7168818,0.3683357 -0.7168818,0.8305762 l 0,7.3388498 c 0,0.462238 0.3174743,0.830574 0.7168818,0.830574 l 11.5662371,0 c 0.399407,0 0.716881,-0.368336 0.716881,-0.830574 l 0,-7.3388498 c 0,-0.4622405 -0.317474,-0.8305762 -0.716881,-0.8305762 z m 0.3910265,0.9583555 10.7624586,0 c 0.399407,0 0.716882,0.3683374 0.716882,0.8305762 l 0,6.1462283 c 0,0.46224 -0.317471,0.830575 -0.716882,0.830575 l -10.7624586,0 c -0.3994073,0 -0.7168818,-0.368335 -0.7168818,-0.830575 l 0,-6.1462283 c 0,-0.4622388 0.3174737,-0.8305762 0.7168818,-0.8305762 z"
       id="path52"
       inkscape:connector-curvature="0"
       style="opacity:0.39108899;fill:#e602b4" />
    <g
       transform="matrix(1.5,0,0,1.4973717,0,-11.936921)"
       id="g4874">
      <path
         style="opacity:1;fill:#f3b7d9;stroke-width:2.85513091"
         inkscape:connector-curvature="0"
         id="path54"
         d="m 7.664234,10.363234 c -0.5453244,0 -1.0726476,0.115146 -1.5381939,0.36048 -0.4623808,0.243669 -0.8534379,0.609959 -1.1500769,1.054898 -0.2548558,0.373761 -0.4696869,0.7578 -0.6411974,1.151767 -0.093393,0.214528 -0.1701301,0.487906 -0.2535334,0.735933 l -0.3783745,0 A 0.82825501,0.82930874 0 0 0 2.8930915,14.321709 L 2.7739148,14.87865 a 0.82825501,0.82930874 0 0 0 0.7442874,1.000225 c -0.1607662,0.713838 -0.3150036,1.394364 -0.5183956,2.32622 -0.2703119,1.231712 -0.4725179,2.064382 -0.6337204,2.687834 -0.24452,-0.17911 -0.5402812,-0.315562 -0.84919,-0.315562 -0.3917989,0 -0.80675033,0.188765 -1.07145663,0.46597 C 0.17524596,21.319451 0,21.732404 0,22.122963 0,22.645809 0.25568381,23.200675 0.67178449,23.528131 1.0837457,23.860146 1.6109782,24 2.1395147,24 2.665813,24 3.1823577,23.869971 3.6301285,23.60844 a 0.82825501,0.82930874 0 0 0 0.00612,-0.0036 c 1.0203726,-0.607829 1.6237044,-1.791527 2.1184434,-3.445773 0.092878,-0.309986 0.2261986,-0.855553 0.3652333,-1.433073 0.054086,0.268895 0.1160517,0.535436 0.2095786,0.790833 a 0.82825501,0.82930874 0 0 0 0.00113,0.003 c 0.2242733,0.605627 0.5756042,1.219117 1.0433619,1.860023 a 0.82825501,0.82930874 0 0 0 1.1210757,0.205081 l 0.1975704,-0.129082 a 0.82825501,0.82930874 0 0 0 0.2671278,-1.104807 c -0.031986,-0.05625 -0.04966,-0.101608 -0.07794,-0.155173 0.1700644,0.06257 0.3468269,0.09687 0.5125047,0.09687 0.3775468,0 0.7888567,-0.132288 1.0879957,-0.39587 0.02027,-0.01786 0.03286,-0.04036 0.05211,-0.05853 0.269017,0.267004 0.658229,0.454401 1.023197,0.454401 0.07254,0 0.143347,-0.01195 0.214337,-0.022 a 0.82825501,0.82930874 0 0 0 0.06457,0.984799 l 0.145911,0.171959 a 0.82825501,0.82930874 0 0 0 1.090715,0.152903 c 0.04618,-0.03083 0.07381,-0.0524 0.109888,-0.07962 l 0.0043,-0.003 c 0.0059,-0.0045 0.01105,-0.008 0.01767,-0.01293 0.148447,-0.10418 0.256934,-0.181209 0.337139,-0.240925 0.153148,-0.106359 0.280855,-0.220996 0.484183,-0.401996 0.230031,-0.193284 0.419233,-0.36906 0.577078,-0.550815 0.139477,-0.160604 0.292468,-0.358022 0.472174,-0.603902 2.32e-4,-2.55e-4 4.64e-4,-4.18e-4 6.96e-4,-6.85e-4 0.206423,-0.280417 0.374128,-0.565297 0.496646,-0.861613 0.121634,-0.280785 0.216467,-0.588127 0.293183,-0.926041 C 15.954826,17.533613 16,17.159439 16,16.781777 c 0,-0.72224 -0.122751,-1.406685 -0.378827,-2.031529 -0.236931,-0.591945 -0.575412,-1.181283 -1.007745,-1.774951 a 0.82825501,0.82930874 0 0 0 -1.121077,-0.206216 l -0.19757,0.128857 a 0.82825501,0.82930874 0 0 0 -0.257159,1.122955 c 0.161832,0.268747 0.261192,0.500349 0.330341,0.707122 -0.187053,-0.102298 -0.391627,-0.176497 -0.599962,-0.176497 -0.388785,0 -0.753647,0.168406 -1.041321,0.396551 -0.0067,-0.01018 -0.0084,-0.02182 -0.01518,-0.03199 a 0.82825501,0.82930874 0 0 0 -0.803874,-0.35617 l -1.2975743,0.186706 c 0.00872,-0.01 0.029428,-0.04152 0.037159,-0.04991 a 0.82825501,0.82930874 0 0 0 0.010422,-0.01157 C 9.7708189,14.557639 9.9168928,14.410538 10.094463,14.24843 a 0.82825501,0.82930874 0 0 0 0.05732,-1.167874 L 9.997259,12.908827 A 0.82825501,0.82930874 0 0 0 9.7149512,12.70556 c 0.045706,-0.15017 0.089045,-0.303121 0.089045,-0.451904 0,-0.526485 -0.2510232,-1.087234 -0.6720112,-1.418554 C 8.7200206,10.503086 8.1927882,10.363234 7.6642522,10.363234 Z m -0.603813,1.145641 c -0.0012,0.0022 -0.00168,0.0034 -0.00294,0.0057 0.00122,-0.0035 0.0017,-0.0028 0.00294,-0.0057 z m 2.3219047,1.814652 -0.019712,0.02064 c 0.00362,-0.0036 0.00616,-0.0084 0.00974,-0.01202 0.00301,-0.0031 0.00701,-0.0054 0.00997,-0.0086 z m -2.0434485,0.09596 c 0.1262996,0.105099 0.267196,0.197582 0.4261812,0.259074 -0.016144,0.01461 -0.035206,0.03041 -0.050751,0.04492 a 0.82825501,0.82930874 0 0 0 -0.3017938,-0.05717 l -0.1495372,0 c 0.025047,-0.09375 0.050403,-0.162414 0.075901,-0.246824 z m 6.3582768,1.538109 0.03149,0.03358 c -0.0046,-0.0052 -0.01332,-0.008 -0.01813,-0.01316 -0.0055,-0.0057 -0.0078,-0.01487 -0.01336,-0.02042 z m -4.8787648,1.155851 a 0.82825501,0.82930874 0 0 0 0.7630929,0.533801 L 9.7550358,17.5379 9.654665,17.697609 c -0.1031714,-0.02855 -0.2115601,-0.05172 -0.3375919,-0.05172 -0.2976671,0 -0.6120252,0.14224 -0.8412599,0.340516 0.016029,-0.336566 0.044536,-0.660401 0.097879,-0.957348 0.075477,-0.390947 0.1609689,-0.680331 0.2446971,-0.915606 z m 4.6268158,0.871595 c -0.02599,0.172954 -0.04802,0.344601 -0.08678,0.521777 a 0.82825501,0.82930874 0 0 0 -0.0016,0.0073 c -0.01565,0.07477 -0.03675,0.13306 -0.0537,0.204175 L 13.132961,17.604639 A 0.82825501,0.82930874 0 0 0 12.45234,17.496427 l -0.06706,-0.326451 c 0.0091,-0.01335 0.01674,-0.02401 0.02515,-0.03607 0.09925,0.03323 0.216464,0.05581 0.37475,0.05581 0.22245,0 0.452595,-0.08545 0.660002,-0.204627 z m -5.0486919,1.04968 c -0.00303,0.0031 -0.00425,0.0081 -0.00725,0.01111 -0.00276,0.0029 -0.00749,0.0042 -0.010195,0.0071 z m 4.2885459,1.828263 -0.0093,0.0072 c 0.0016,-0.0013 0.003,-0.0031 0.0045,-0.0043 0.0014,-0.0011 0.0033,-0.0018 0.0047,-0.003 z m -9.928137,2.987969 c -0.017118,0.05265 -0.035323,0.06007 -0.035798,0.06102 -6.612e-4,0.0013 0.016859,-0.02918 0.035798,-0.06102 z" />
      <text
         font-size="30.216818"
         x="2.0879495"
         y="20.438467"
         id="text58"
         style="font-size:13.25676537px;font-family:sans-serif;letter-spacing:0;word-spacing:0;fill:#9d3a9b;stroke-width:0.75542003"
         transform="scale(0.99936449,1.0006359)">
        <tspan
           style="font-style:italic;font-weight:bold;font-family:FreeSerif;letter-spacing:-0.5374226;fill:#9d3a9b;stroke-width:0.75542003"
           x="2.0879495"
           y="20.438467"
           id="tspan60">f</tspan>
      </text>
      <text
         font-size="19.57967"
         x="6.5875154"
         y="19.339455"
         id="text62"
         style="font-size:8.59002018px;font-family:sans-serif;letter-spacing:0;word-spacing:0;fill:#9d3a9b;stroke-width:0.489492"
         transform="scale(0.99936449,1.0006359)">
        <tspan
           style="font-style:italic;font-weight:bold;font-family:FreeSerif;letter-spacing:-0.3482351;fill:#9d3a9b;stroke-width:0.489492"
           x="6.5875154"
           y="19.339455"
           id="tspan64">(x)</tspan>
      </text>
    </g>
  </g>
</svg>
