<?xml version="1.0" encoding="UTF-8" standalone="no"?>
<svg
   xmlns:dc="http://purl.org/dc/elements/1.1/"
   xmlns:cc="http://creativecommons.org/ns#"
   xmlns:rdf="http://www.w3.org/1999/02/22-rdf-syntax-ns#"
   xmlns:svg="http://www.w3.org/2000/svg"
   xmlns="http://www.w3.org/2000/svg"
   xmlns:sodipodi="http://sodipodi.sourceforge.net/DTD/sodipodi-0.dtd"
   xmlns:inkscape="http://www.inkscape.org/namespaces/inkscape"
   height="24"
   viewBox="0 0 6.3499999 6.3500001"
   width="24"
   id="svg2"
   version="1.1"
   inkscape:version="0.91 r13725"
   sodipodi:docname="lc_insertfixedtext.svg"
   inkscape:export-filename="/home/tamara/Desktop/IKON/5_258 (tamara)/sc (222)/Tanggal 25/lc_insertfixedtext.png"
   inkscape:export-xdpi="90"
   inkscape:export-ydpi="90">
  <metadata
     id="metadata26">
    <rdf:RDF>
      <cc:Work
         rdf:about="">
        <dc:format>image/svg+xml</dc:format>
        <dc:type
           rdf:resource="http://purl.org/dc/dcmitype/StillImage" />
        <dc:title />
      </cc:Work>
    </rdf:RDF>
  </metadata>
  <defs
     id="defs24" />
  <sodipodi:namedview
     pagecolor="#ffffff"
     bordercolor="#666666"
     borderopacity="1"
     objecttolerance="10"
     gridtolerance="10"
     guidetolerance="10"
     inkscape:pageopacity="0"
     inkscape:pageshadow="2"
     inkscape:window-width="1366"
     inkscape:window-height="718"
     id="namedview22"
     showgrid="true"
     inkscape:zoom="10.429825"
     inkscape:cx="-17.378223"
     inkscape:cy="7.7116785"
     inkscape:window-x="0"
     inkscape:window-y="0"
     inkscape:window-maximized="1"
     inkscape:current-layer="svg2">
    <inkscape:grid
       type="xygrid"
       id="grid4154" />
  </sodipodi:namedview>
  <linearGradient
     id="a"
     gradientUnits="userSpaceOnUse"
     x1="1.14271"
     x2="1.124065"
     y1="-35.700256"
     y2="-35.979931">
    <stop
       offset="0"
       stop-color="#555"
       id="stop5" />
    <stop
       offset="1"
       id="stop7" />
  </linearGradient>
  <linearGradient
     id="b"
     gradientUnits="userSpaceOnUse"
     x1="3.6659009"
     x2="3.1465371"
     y1="0.87920201"
     y2="2.4372931">
    <stop
       offset="0"
       stop-color="#3b3e22"
       id="stop10" />
    <stop
       offset="1"
       stop-color="#454545"
       stop-opacity="0"
       id="stop12" />
  </linearGradient>
  <g
     id="g4156"
     style="fill:#e602b4;stroke:#9d3a9b;stroke-width:0.04328119;stroke-linecap:round;stroke-linejoin:round;stroke-miterlimit:4;stroke-dasharray:none;stroke-opacity:1"
     transform="matrix(1.5282811,0,0,1.5282811,-0.06061277,0.38407141)">
    <g
       style="fill:#e602b4;stroke:#9d3a9b;stroke-width:0.04409811;stroke-linecap:round;stroke-linejoin:round;stroke-miterlimit:4;stroke-dasharray:none;stroke-opacity:1"
       id="g14"
       transform="matrix(0.98147508,0,0,0.98147508,0.030354,-0.938572)">
      <path
         style="fill:#e602b4;stroke:#9d3a9b;stroke-width:0.04409811;stroke-linecap:round;stroke-linejoin:round;stroke-miterlimit:4;stroke-dasharray:none;stroke-opacity:1"
         id="path16"
         d="m 2.2594587,4.1358709 0,0.058515 -0.7853273,0 0,-0.058515 q 0.1231886,-0.00308 0.1693843,-0.024638 0.046196,-0.021558 0.046196,-0.080073 0,-0.073913 -0.058515,-0.2063408 l -0.1262681,-0.295652 -0.8068853,0 -0.14166688,0.3603267 q -0.0246377,0.064674 -0.0246377,0.1201088 0,0.1262683 0.20942061,0.1262683 l 0,0.058515 -0.60978355,0 0,-0.058515 q 0.11394945,-0.00616 0.17554374,-0.086232 0.064674,-0.083152 0.20634089,-0.4188412 l 0.64058069,-1.5121399 0.061594,0 0.766849,1.749278 q 0.073913,0.1693843 0.1231886,0.21558 0.049275,0.046196 0.153986,0.052355 z m -1.50906025,-0.7329721 0.71141415,0 -0.357247,-0.8469215 z"
         inkscape:connector-curvature="0" />
      <path
         style="fill:#e602b4;stroke:#9d3a9b;stroke-width:0.04409811;stroke-linecap:round;stroke-linejoin:round;stroke-miterlimit:4;stroke-dasharray:none;stroke-opacity:1"
         id="path18"
         d="m 4.1248516,3.6400369 q 0,0.092391 -0.033877,0.1817031 -0.033877,0.089312 -0.1139495,0.1786235 -0.076993,0.086232 -0.2309786,0.1416669 -0.1539857,0.052355 -0.366486,0.052355 l -1.0286246,0 0,-0.058515 q 0.1909423,-0.00616 0.2432975,-0.055435 0.052355,-0.049276 0.052355,-0.2217395 l 0,-1.3673926 q 0,-0.1693844 -0.052355,-0.2155801 -0.049275,-0.049275 -0.2432975,-0.061594 l 0,-0.058515 0.8623202,0 q 0.8068852,0 0.8068852,0.5235516 0,0.1016305 -0.036956,0.1817031 -0.036957,0.076993 -0.076993,0.1201089 -0.036957,0.040036 -0.1170292,0.076993 -0.080073,0.036957 -0.1016306,0.043116 -0.021558,0.00308 -0.089312,0.021558 0.070833,0.018478 0.1047103,0.027717 0.036957,0.00924 0.129348,0.052355 0.095471,0.043116 0.1478263,0.092391 0.052355,0.049276 0.098551,0.1416669 0.046196,0.089312 0.046196,0.2032612 z M 3.1547415,4.0804361 q 0.1385871,0 0.2402177,-0.018478 0.1016306,-0.018478 0.1909424,-0.061594 0.089312,-0.046196 0.1355074,-0.1355075 0.049275,-0.089312 0.049275,-0.2217394 0,-0.1262683 -0.049275,-0.2125003 Q 3.6752133,3.3413045 3.6074596,3.2951088 3.5397058,3.2489131 3.419597,3.2242754 3.2994881,3.1996377 3.2070966,3.1965579 3.1147052,3.1903985 2.9607195,3.1903985 l 0,0.7637693 q 0,0.073913 0.040036,0.1016306 0.040036,0.024638 0.153986,0.024638 z m -0.194022,-1.0132262 0.2925729,0 q 0.21558,0 0.3326092,-0.095471 0.1201088,-0.098551 0.1201088,-0.2802541 0,-0.2063409 -0.1385871,-0.3141309 -0.1385872,-0.10779 -0.4034427,-0.10779 l -0.1355074,0 q -0.067754,0 -0.067754,0.092391 z"
         inkscape:connector-curvature="0" />
    </g>
  </g>
</svg>
