<?xml version="1.0" encoding="UTF-8" standalone="no"?>
<svg
   xmlns:dc="http://purl.org/dc/elements/1.1/"
   xmlns:cc="http://creativecommons.org/ns#"
   xmlns:rdf="http://www.w3.org/1999/02/22-rdf-syntax-ns#"
   xmlns:svg="http://www.w3.org/2000/svg"
   xmlns="http://www.w3.org/2000/svg"
   xmlns:xlink="http://www.w3.org/1999/xlink"
   xmlns:sodipodi="http://sodipodi.sourceforge.net/DTD/sodipodi-0.dtd"
   xmlns:inkscape="http://www.inkscape.org/namespaces/inkscape"
   enable-background="new 0 0 128 128"
   height="24"
   viewBox="0 0 24 24"
   width="24"
   id="svg2"
   version="1.1"
   inkscape:version="0.91 r13725"
   sodipodi:docname="lc_lastpage.svg"
   inkscape:export-filename="/home/tamara/Desktop/IKON/5_258 (tamara)/sc (222)/Tanggal 7-03/lc_lastpage.png"
   inkscape:export-xdpi="90"
   inkscape:export-ydpi="90">
  <metadata
     id="metadata267">
    <rdf:RDF>
      <cc:Work
         rdf:about="">
        <dc:format>image/svg+xml</dc:format>
        <dc:type
           rdf:resource="http://purl.org/dc/dcmitype/StillImage" />
        <dc:title></dc:title>
      </cc:Work>
    </rdf:RDF>
  </metadata>
  <defs
     id="defs265" />
  <sodipodi:namedview
     pagecolor="#ffffff"
     bordercolor="#666666"
     borderopacity="1"
     objecttolerance="10"
     gridtolerance="10"
     guidetolerance="10"
     inkscape:pageopacity="0"
     inkscape:pageshadow="2"
     inkscape:window-width="1366"
     inkscape:window-height="718"
     id="namedview263"
     showgrid="true"
     inkscape:zoom="14.75"
     inkscape:cx="9.7599725"
     inkscape:cy="11.052501"
     inkscape:window-x="0"
     inkscape:window-y="0"
     inkscape:window-maximized="1"
     inkscape:current-layer="svg2">
    <inkscape:grid
       type="xygrid"
       id="grid4395" />
  </sodipodi:namedview>
  <radialGradient
     id="a"
     cx="91.793747"
     cy="99.892967"
     gradientUnits="userSpaceOnUse"
     r="105.20497">
    <stop
       offset="0"
       stop-color="#00537d"
       id="stop5" />
    <stop
       offset=".0151"
       stop-color="#186389"
       id="stop7" />
    <stop
       offset=".0558"
       stop-color="#558ca8"
       id="stop9" />
    <stop
       offset=".0964"
       stop-color="#89afc3"
       id="stop11" />
    <stop
       offset=".1357"
       stop-color="#b3ccd8"
       id="stop13" />
    <stop
       offset=".1737"
       stop-color="#d4e2e9"
       id="stop15" />
    <stop
       offset=".2099"
       stop-color="#ecf2f5"
       id="stop17" />
    <stop
       offset=".2435"
       stop-color="#fafcfd"
       id="stop19" />
    <stop
       offset=".2722"
       stop-color="#fff"
       id="stop21" />
  </radialGradient>
  <radialGradient
     id="b"
     cx="113.03709"
     cy="112.88172"
     gradientTransform="matrix(0.9787234,0,0,0.9818182,-18.638296,-6.836364)"
     gradientUnits="userSpaceOnUse"
     r="139.55859">
    <stop
       offset="0"
       stop-color="#535557"
       id="stop24" />
    <stop
       offset=".11366145"
       stop-color="#898a8c"
       id="stop26" />
    <stop
       offset=".20296688"
       stop-color="#ececec"
       id="stop28" />
    <stop
       offset=".2363"
       stop-color="#fafafa"
       id="stop30" />
    <stop
       offset=".2722"
       stop-color="#fff"
       id="stop32" />
    <stop
       offset=".5313"
       stop-color="#fafafa"
       id="stop34" />
    <stop
       offset=".8449"
       stop-color="#ebecec"
       id="stop36" />
    <stop
       offset="1"
       stop-color="#e1e2e3"
       id="stop38" />
  </radialGradient>
  <linearGradient
     id="c"
     gradientUnits="userSpaceOnUse"
     x1="71.993744"
     x2="55.993748"
     y1="85.496582"
     y2="67.992966">
    <stop
       offset="0"
       id="stop41" />
    <stop
       offset="1"
       stop-color="#555753"
       id="stop43" />
  </linearGradient>
  <linearGradient
     id="d"
     gradientUnits="userSpaceOnUse"
     x1="95"
     x2="87.292999"
     y1="103"
     y2="95.292999">
    <stop
       offset="0"
       stop-color="#fff"
       id="stop46" />
    <stop
       offset="1"
       stop-color="#393b38"
       id="stop48" />
  </linearGradient>
  <linearGradient
     id="e"
     gradientUnits="userSpaceOnUse"
     x1="95.993744"
     x2="79.993744"
     y1="107.99297"
     y2="91.992966">
    <stop
       offset="0"
       stop-color="#888a85"
       id="stop51" />
    <stop
       offset=".06730022"
       stop-color="#8c8e89"
       id="stop53" />
    <stop
       offset=".06730022"
       stop-color="#abaca9"
       id="stop55" />
    <stop
       offset=".1347"
       stop-color="#c5c6c4"
       id="stop57" />
    <stop
       offset=".2115"
       stop-color="#dbdbda"
       id="stop59" />
    <stop
       offset=".3012"
       stop-color="#ebebeb"
       id="stop61" />
    <stop
       offset=".4122"
       stop-color="#f7f7f6"
       id="stop63" />
    <stop
       offset=".5679"
       stop-color="#fdfdfd"
       id="stop65" />
    <stop
       offset="1"
       stop-color="#fff"
       id="stop67" />
  </linearGradient>
  <radialGradient
     id="f"
     cx="71.775223"
     cy="16.0865"
     gradientTransform="matrix(0.9650814,0.2619502,-0.9201984,3.3902106,33.309062,-57.693239)"
     gradientUnits="userSpaceOnUse"
     r="3.15625"
     xlink:href="#j" />
  <radialGradient
     id="g"
     cx="71.775223"
     cy="16.0865"
     gradientTransform="matrix(0.9650814,0.2619502,-0.9201984,3.3902106,17.309062,-57.693239)"
     gradientUnits="userSpaceOnUse"
     r="3.15625"
     xlink:href="#q" />
  <linearGradient
     id="h"
     gradientUnits="userSpaceOnUse"
     x1="121.85139"
     x2="120"
     xlink:href="#p"
     y1="64"
     y2="44" />
  <radialGradient
     id="i"
     cx="114"
     cy="26"
     gradientTransform="matrix(0.7071068,-0.7071068,2.6709373,2.6709373,-36.054544,37.165802)"
     gradientUnits="userSpaceOnUse"
     r="2.5"
     xlink:href="#p" />
  <linearGradient
     id="j">
    <stop
       offset="0"
       stop-color="#fff"
       id="stop74" />
    <stop
       offset="1"
       stop-color="#fff"
       stop-opacity="0"
       id="stop76" />
  </linearGradient>
  <filter
     id="k"
     height="1.598266"
     width="1.9039299"
     x="-0.451965"
     y="-0.299133">
    <feGaussianBlur
       stdDeviation="1.3476562"
       id="feGaussianBlur79" />
  </filter>
  <filter
     id="l"
     height="1.157943"
     width="1.244782"
     x="-0.122391"
     y="-0.078970999">
    <feGaussianBlur
       stdDeviation=".321914"
       id="feGaussianBlur82" />
  </filter>
  <filter
     id="m">
    <feGaussianBlur
       stdDeviation="1.0600355"
       id="feGaussianBlur85" />
  </filter>
  <filter
     id="n">
    <feGaussianBlur
       stdDeviation=".495"
       id="feGaussianBlur88" />
  </filter>
  <linearGradient
     id="o">
    <stop
       offset="0"
       stop-color="#cbff10"
       id="stop91" />
    <stop
       offset="1"
       stop-color="#004d00"
       id="stop93" />
  </linearGradient>
  <linearGradient
     id="p">
    <stop
       offset="0"
       stop-color="#e5ff00"
       id="stop96" />
    <stop
       offset="1"
       stop-color="#e5ff00"
       stop-opacity="0"
       id="stop98" />
  </linearGradient>
  <linearGradient
     id="q">
    <stop
       offset="0"
       stop-color="#f0ff80"
       id="stop101" />
    <stop
       offset="1"
       stop-color="#f0ff80"
       stop-opacity="0"
       id="stop103" />
  </linearGradient>
  <linearGradient
     id="r"
     gradientTransform="matrix(-0.06583333,0,0,0.05762466,8.7666666,2.3129671)"
     gradientUnits="userSpaceOnUse"
     x1="73.739265"
     x2="35.568035"
     xlink:href="#j"
     y1="69.923088"
     y2="48.212151" />
  <linearGradient
     id="s"
     gradientTransform="matrix(-0.06583333,0,0,0.05762466,8.7666666,2.3129671)"
     gradientUnits="userSpaceOnUse"
     x1="63.159035"
     x2="63.159035"
     xlink:href="#j"
     y1="21.171064"
     y2="80.12056" />
  <radialGradient
     id="t"
     cx="11.578125"
     cy="64.53125"
     gradientTransform="matrix(6.5079869,0,0,1.510917,-63.772161,-32.970115)"
     gradientUnits="userSpaceOnUse"
     r="3.578125"
     xlink:href="#j" />
  <linearGradient
     id="u"
     gradientTransform="matrix(-0.06583332,0,0,0.05762466,11.766666,2.3129671)"
     gradientUnits="userSpaceOnUse"
     x1="63.159035"
     x2="63.159035"
     xlink:href="#j"
     y1="21.171064"
     y2="80.12056" />
  <linearGradient
     id="v"
     gradientTransform="matrix(-0.06583332,0,0,0.05762466,11.766666,2.3129671)"
     gradientUnits="userSpaceOnUse"
     x1="73.739265"
     x2="35.568035"
     xlink:href="#j"
     y1="69.923088"
     y2="48.212151" />
  <linearGradient
     id="w"
     gradientTransform="matrix(-0.06583332,0,0,0.05762466,11.766666,2.3129671)"
     gradientUnits="userSpaceOnUse"
     x1="63.159035"
     x2="63.159035"
     y1="21.171064"
     y2="80.12056">
    <stop
       offset="0"
       stop-color="#edffbf"
       id="stop111" />
    <stop
       offset="1"
       stop-color="#edffbf"
       stop-opacity="0"
       id="stop113" />
  </linearGradient>
  <linearGradient
     id="x"
     gradientTransform="matrix(-0.5266666,0,0,0.4609973,94.13333,18.503737)"
     gradientUnits="userSpaceOnUse"
     x1="91.785248"
     x2="91.992706"
     xlink:href="#p"
     y1="112.5"
     y2="44.287056" />
  <radialGradient
     id="y"
     cx="72.222832"
     cy="81.225037"
     fx="75.65107"
     fy="93.974243"
     gradientTransform="matrix(-0.09499681,0,0,0.07982571,7.5962195,0.36555728)"
     gradientUnits="userSpaceOnUse"
     r="50"
     xlink:href="#o" />
  <linearGradient
     id="z"
     gradientTransform="matrix(-0.06583332,0,0,0.05762466,12.029999,2.3129671)"
     gradientUnits="userSpaceOnUse"
     x1="43.799026"
     x2="58.606159"
     y1="32.051865"
     y2="96.363052">
    <stop
       offset="0"
       stop-color="#37a42c"
       id="stop118" />
    <stop
       offset="1"
       stop-color="#bff500"
       id="stop120" />
  </linearGradient>
  <radialGradient
     id="A"
     cx="122.17677"
     cy="53.333336"
     gradientTransform="matrix(2.717484,0.35826501,-0.68363455,1.2553261,-280.99554,-102.72592)"
     gradientUnits="userSpaceOnUse"
     r="2"
     xlink:href="#o" />
  <linearGradient
     id="B"
     gradientTransform="matrix(0.25360551,0,0,0.12477963,-16.427372,-0.4885405)"
     gradientUnits="userSpaceOnUse"
     x1="122.12132"
     x2="122.12132"
     xlink:href="#q"
     y1="24"
     y2="60.048988" />
  <linearGradient
     id="C"
     gradientTransform="matrix(0.25360551,0,0,0.12477963,-16.427372,-0.4885405)"
     gradientUnits="userSpaceOnUse"
     x1="132"
     x2="116"
     xlink:href="#j"
     y1="52"
     y2="28" />
  <filter
     id="D"
     height="1.028862"
     width="1.331226"
     x="-0.165613"
     y="-0.014431">
    <feGaussianBlur
       stdDeviation=".28982301"
       id="feGaussianBlur126" />
  </filter>
  <filter
     id="E">
    <feGaussianBlur
       stdDeviation=".1159292"
       id="feGaussianBlur129" />
  </filter>
  <linearGradient
     id="F"
     gradientUnits="userSpaceOnUse"
     x1="116"
     x2="124"
     xlink:href="#j"
     y1="29.274029"
     y2="74.399025" />
  <radialGradient
     id="G"
     cx="114"
     cy="26"
     gradientTransform="matrix(0.7071068,-0.7071068,2.6709373,2.6709373,-40.054544,33.165802)"
     gradientUnits="userSpaceOnUse"
     r="2.5"
     xlink:href="#j" />
  <filter
     id="H"
     height="1.499115"
     width="1.499115"
     x="-0.249558"
     y="-0.249558">
    <feGaussianBlur
       stdDeviation=".4159292"
       id="feGaussianBlur134" />
  </filter>
  <radialGradient
     id="I"
     cx="114"
     cy="26"
     gradientTransform="matrix(0.7071068,-0.7071068,2.6709373,2.6709373,-36.054544,37.165802)"
     gradientUnits="userSpaceOnUse"
     r="2.5"
     xlink:href="#j" />
  <linearGradient
     id="J"
     gradientTransform="matrix(-0.07357842,0,0,0.06732616,12.398774,1.692086)"
     gradientUnits="userSpaceOnUse"
     x1="71.626404"
     x2="46.225941"
     y1="123.73875"
     y2="28.942928">
    <stop
       offset="0"
       stop-color="#003c13"
       id="stop138" />
    <stop
       offset="1"
       stop-color="#43943c"
       id="stop140" />
  </linearGradient>
  <filter
     id="K">
    <feGaussianBlur
       stdDeviation=".40750996"
       id="feGaussianBlur143" />
  </filter>
  <filter
     id="L">
    <feGaussianBlur
       stdDeviation=".4901192"
       id="feGaussianBlur146" />
  </filter>
  <filter
     id="M">
    <feGaussianBlur
       stdDeviation=".90565481"
       id="feGaussianBlur149" />
  </filter>
  <filter
     id="N">
    <feGaussianBlur
       stdDeviation=".50063244"
       id="feGaussianBlur152" />
  </filter>
  <filter
     id="O">
    <feGaussianBlur
       stdDeviation="1.0394514"
       id="feGaussianBlur155" />
  </filter>
  <g
     id="g5203">
    <g
       transform="translate(-13.5,0)"
       id="g5191">
      <g
         id="g5193"
         transform="translate(15.5,1)">
        <g
           id="g5195">
          <path
             sodipodi:nodetypes="sssssssss"
             inkscape:connector-curvature="0"
             id="path5197"
             d="m 4,1 16,0 c 1.108,0 2,0.892 2,2 l 0,12.098164 C 22,16.206164 14.036932,23 12.928932,23 L 4,23 C 2.892,23 2,22.108 2,21 L 2,3 C 2,1.892 2.892,1 4,1 Z"
             style="opacity:1;fill:#f3b7d9;fill-opacity:1;fill-rule:nonzero;stroke:none;stroke-width:0.25;stroke-linecap:round;stroke-linejoin:round;stroke-miterlimit:4;stroke-dasharray:none;stroke-dashoffset:0;stroke-opacity:1" />
          <path
             id="path5199"
             d="M 4.2734375,3 C 4.1218038,3 4,3.1218038 4,3.2734375 L 4,20.726562 C 4,20.878196 4.1218038,21 4.2734375,21 L 14.726562,21 C 14.878196,21 15,20.878196 15,20.726562 L 15,15.5 l 4.726562,0 C 19.878196,15.5 20,15.378196 20,15.226562 L 20,3.2734375 C 20,3.1218038 19.878196,3 19.726562,3 l -5,0 -2.453124,0 -8.0000005,0 z"
             style="opacity:1;fill:#f0e3ec;fill-opacity:1;fill-rule:nonzero;stroke:none;stroke-width:0.25;stroke-linecap:round;stroke-linejoin:round;stroke-miterlimit:4;stroke-dasharray:none;stroke-dashoffset:0;stroke-opacity:1"
             inkscape:connector-curvature="0" />
        </g>
        <path
           inkscape:connector-curvature="0"
           style="opacity:1;fill:#e602b4;fill-opacity:1;fill-rule:nonzero;stroke:none;stroke-width:0.25;stroke-linecap:round;stroke-linejoin:round;stroke-miterlimit:4;stroke-dasharray:none;stroke-dashoffset:0;stroke-opacity:1"
           d="m 14,15.019531 c -0.554,0 -1,0.446 -1,1 L 13,23 c 1.297139,-0.205052 9,-6.792044 9,-7.882813 l 0,-0.09766 -8,0 z"
           id="path5201" />
      </g>
    </g>
    <g
       id="g4230"
       transform="translate(-17.5,-2)">
      <g
         transform="translate(15.5,1)"
         id="g4892">
        <g
           id="g4188">
          <path
             style="opacity:1;fill:#f3b7d9;fill-opacity:1;fill-rule:nonzero;stroke:none;stroke-width:0.25;stroke-linecap:round;stroke-linejoin:round;stroke-miterlimit:4;stroke-dasharray:none;stroke-dashoffset:0;stroke-opacity:1"
             d="m 4,1 16,0 c 1.108,0 2,0.892 2,2 l 0,12.098164 C 22,16.206164 14.036932,23 12.928932,23 L 4,23 C 2.892,23 2,22.108 2,21 L 2,3 C 2,1.892 2.892,1 4,1 Z"
             id="rect4219"
             inkscape:connector-curvature="0"
             sodipodi:nodetypes="sssssssss" />
          <path
             inkscape:connector-curvature="0"
             style="opacity:1;fill:#f0e3ec;fill-opacity:1;fill-rule:nonzero;stroke:none;stroke-width:0.25;stroke-linecap:round;stroke-linejoin:round;stroke-miterlimit:4;stroke-dasharray:none;stroke-dashoffset:0;stroke-opacity:1"
             d="M 4.2734375,3 C 4.1218038,3 4,3.1218038 4,3.2734375 L 4,20.726562 C 4,20.878196 4.1218038,21 4.2734375,21 L 14.726562,21 C 14.878196,21 15,20.878196 15,20.726562 L 15,15.5 l 4.726562,0 C 19.878196,15.5 20,15.378196 20,15.226562 L 20,3.2734375 C 20,3.1218038 19.878196,3 19.726562,3 l -5,0 -2.453124,0 -8.0000005,0 z"
             id="rect4212" />
        </g>
        <path
           id="rect4214"
           d="m 14,15.019531 c -0.554,0 -1,0.446 -1,1 L 13,23 c 1.297139,-0.205052 9,-6.792044 9,-7.882813 l 0,-0.09766 -8,0 z"
           style="opacity:1;fill:#e602b4;fill-opacity:1;fill-rule:nonzero;stroke:none;stroke-width:0.25;stroke-linecap:round;stroke-linejoin:round;stroke-miterlimit:4;stroke-dasharray:none;stroke-dashoffset:0;stroke-opacity:1"
           inkscape:connector-curvature="0" />
      </g>
    </g>
    <path
       d="m 87.875,12 c -0.865503,0.02693 -1.698899,0.333976 -2.375,0.875 l -60,48 C 24.550144,61.634129 24,62.784063 24,64 c 0,1.215937 0.550144,2.365871 1.5,3.125 l 60,48 c 1.200963,0.96113 2.832437,1.13525 4.21875,0.46875 C 91.105067,114.92725 92.000642,113.53821 92,112 l 0,-23.6875 0,-10.25 -1.5,-1.1875 C 89.299037,75.91387 87.667563,75.739753 86.28125,76.40625 84.894933,77.072748 83.999358,78.461793 84,80 L 84,103.6875 34.40625,64 84,24.3125 84,48 c -6.42e-4,1.538207 0.894936,2.927253 2.28125,3.59375 1.38631,0.666496 3.017787,0.49238 4.21875,-0.46875 L 92,49.9375 92,39.6875 92,16 C 92.000417,14.917152 91.558627,13.878821 90.78125,13.125 90.003873,12.37118 88.957323,11.966273 87.875,12 Z"
       style="opacity:0.90526303;fill:none;stroke:#638000;stroke-width:0.96600002;stroke-linejoin:round;filter:url(#m)"
       transform="matrix(-0.0964397,0,0,0.09314732,18.315203,3.3908832)"
       id="path203"
       inkscape:connector-curvature="0" />
    <path
       inkscape:connector-curvature="0"
       style="fill:#9d3a9b;fill-rule:evenodd"
       id="path207"
       d="M 5.1498074,3.4798549 C 4.8589185,3.4715599 4.5619183,3.562828 4.3200749,3.7774149 4.0812009,3.9893665 3.9365409,4.2889093 3.9366811,4.618591 l 0,2.3346958 0,0.526451 0,0.4863961 0,2.7753121 0,0.572229 0,0.434895 0,2.340417 c -2.197e-4,0.468588 0.315839,0.864359 0.6923976,1.030013 0.3863327,0.169954 0.8388573,0.131417 1.1902369,-0.125894 l 2.512087,-2.935536 0,2.031413 c -2.197e-4,0.468586 0.3158394,0.864358 0.6923975,1.030013 0.3863297,0.169953 0.8388603,0.131417 1.1902369,-0.125894 l 6.471914,-4.732329 c 0.285909,-0.209079 0.463507,-0.550298 0.463507,-0.9098448 0,-0.3595468 -0.177601,-0.7007661 -0.463507,-0.909845 L 10.214037,3.7087474 C 10.023453,3.569196 9.7834542,3.4866588 9.5445289,3.4798549 9.2536393,3.4715599 8.9566442,3.5628222 8.7147962,3.7774149 8.475927,3.9893636 8.3312624,4.2889049 8.3314026,4.618591 l 0,2.2088061 -2.512087,-3.1186497 C 5.6287325,3.5691989 5.388733,3.4866588 5.1498074,3.4798549 Z m 14.7749626,0 c -0.729656,0 -1.339018,0.6093611 -1.339018,1.3390168 l 0,9.0641133 c 0,0.729655 0.609362,1.339017 1.339018,1.339017 l 1.739577,0 c 0.729655,0 1.339016,-0.609362 1.339016,-1.339017 l 0,-9.0641133 c 0,-0.7296557 -0.609361,-1.3390168 -1.339016,-1.3390168 z m -11.9138158,4.6865582 0.3204484,0.2346151 0,1.8998018 -0.3204484,0.234613 z m 4.3947218,0 1.619409,1.1845151 -1.619409,1.1845148 0,-0.412005 c 0.205276,-0.2082173 0.349061,-0.4743045 0.34906,-0.7725098 1e-6,-0.2982067 -0.143785,-0.5642954 -0.34906,-0.77251 z" />
    <path
       inkscape:connector-curvature="0"
       style="fill:#e602b4;fill-rule:evenodd"
       id="path213"
       d="m 5.4347766,5.2995443 0,8.1027677 4.3947216,-3.078593 0,3.078593 5.7852378,-4.0513838 -5.7852378,-4.0513839 0,3.0785947 z" />
    <path
       d="m 20.051541,4.9639546 1.486034,0 0,8.7739474 -1.486034,0 z"
       id="path239"
       style="fill:#e602b4"
       inkscape:connector-curvature="0" />
  </g>
</svg>
