<?xml version="1.0" encoding="UTF-8" standalone="no"?>
<svg
   xmlns:dc="http://purl.org/dc/elements/1.1/"
   xmlns:cc="http://creativecommons.org/ns#"
   xmlns:rdf="http://www.w3.org/1999/02/22-rdf-syntax-ns#"
   xmlns:svg="http://www.w3.org/2000/svg"
   xmlns="http://www.w3.org/2000/svg"
   xmlns:sodipodi="http://sodipodi.sourceforge.net/DTD/sodipodi-0.dtd"
   xmlns:inkscape="http://www.inkscape.org/namespaces/inkscape"
   height="24"
   viewBox="0 0 6.3499999 6.3500002"
   width="24"
   version="1.1"
   id="svg42"
   sodipodi:docname="lc_macrorecorder.svg"
   inkscape:export-filename="/home/annisaauliarasyidah/Desktop/4_242 (aulia)/sc 222/lc_macrorecorder.png"
   inkscape:export-xdpi="96"
   inkscape:export-ydpi="96"
   inkscape:version="0.92.4 (unknown)">
  <metadata
     id="metadata48">
    <rdf:RDF>
      <cc:Work
         rdf:about="">
        <dc:format>image/svg+xml</dc:format>
        <dc:type
           rdf:resource="http://purl.org/dc/dcmitype/StillImage" />
        <dc:title></dc:title>
      </cc:Work>
    </rdf:RDF>
  </metadata>
  <defs
     id="defs46" />
  <sodipodi:namedview
     pagecolor="#ffffff"
     bordercolor="#666666"
     borderopacity="1"
     objecttolerance="10"
     gridtolerance="10"
     guidetolerance="10"
     inkscape:pageopacity="0"
     inkscape:pageshadow="2"
     inkscape:window-width="1366"
     inkscape:window-height="707"
     id="namedview44"
     showgrid="false"
     inkscape:zoom="20.85965"
     inkscape:cx="8.8934135"
     inkscape:cy="11.718523"
     inkscape:window-x="0"
     inkscape:window-y="0"
     inkscape:window-maximized="1"
     inkscape:current-layer="svg42" />
  <filter
     id="a"
     height="1.0168"
     width="1.0168"
     x="-0.0083999997"
     y="-0.0083999997"
     style="color-interpolation-filters:sRGB">
    <feGaussianBlur
       stdDeviation=".050000868"
       id="feGaussianBlur2" />
  </filter>
  <clipPath
     id="b">
    <path
       d="m 9.5933918,111.19854 -0.4711621,1.3139 v 0.0218 l 0.2786801,1.27958 a 0.22777108,0.22777108 0 0 1 -0.136411,0.25943 l -1.5306499,0.62348 a 0.22777108,0.22777108 0 0 1 -0.2753328,-0.0845 l -0.7372894,-1.10552 a 0.22777108,0.22777108 0 0 1 -8.389e-4,-0.002 l -0.021759,-0.0318 -1.2151468,-0.58246 -0.5933465,0.59334 0.5833039,1.21515 0.033475,0.0226 1.1046788,0.73645 a 0.22777108,0.22777108 0 0 1 0.084525,0.27533 l -0.6234741,1.53065 A 0.22777108,0.22777108 0 0 1 5.813212,117.40038 L 4.533629,117.1217 H 4.512707 l -1.3138984,0.47117 v 0.81344 l 1.3138984,0.47116 H 4.533629 L 5.8132156,118.599 a 0.22777108,0.22777108 0 0 1 0.2594321,0.13641 l 0.6234741,1.53065 a 0.22777108,0.22777108 0 0 1 -0.084525,0.27534 l -1.1046788,0.73729 a 0.22777108,0.22777108 0 0 1 -0.00168,8.6e-4 l -0.031802,0.0218 -0.5833039,1.21432 0.5933465,0.59418 1.2151467,-0.5833 0.021759,-0.0318 a 0.22777108,0.22777108 0 0 1 8.389e-4,-0.002 l 0.7372894,-1.10551 a 0.22777108,0.22777108 0 0 1 0.2753328,-0.0845 l 1.5306499,0.62348 a 0.22777108,0.22777108 0 0 1 0.136411,0.25943 l -0.2786801,1.27959 v 0.0218 l 0.4711621,1.3139 h 0.8134447 l 0.471163,-1.3139 v -0.0218 l -0.27868,-1.27959 a 0.22777108,0.22777108 0 0 1 0.136411,-0.25943 l 1.530649,-0.62348 a 0.22777108,0.22777108 0 0 1 0.275333,0.0845 l 0.736453,1.10551 0.02259,0.0335 1.215147,0.5833 0.594183,-0.59418 -0.583304,-1.21432 -0.0318,-0.0218 a 0.22777108,0.22777108 0 0 1 -0.0017,-8.6e-4 l -1.105515,-0.73729 a 0.22777108,0.22777108 0 0 1 -0.08452,-0.27534 l 0.623474,-1.53065 a 0.22777108,0.22777108 0 0 1 0.259432,-0.13641 l 1.279587,0.27868 h 0.02176 l 1.313899,-0.47116 v -0.81344 l -1.313899,-0.47117 h -0.02176 l -1.279587,0.27868 a 0.22777108,0.22777108 0 0 1 -0.25944,-0.13641 l -0.623474,-1.53065 a 0.22777108,0.22777108 0 0 1 0.08453,-0.27533 l 1.105515,-0.73645 0.03348,-0.0226 0.583304,-1.21515 -0.594184,-0.59335 -1.215146,0.58247 -0.02259,0.0335 -0.736453,1.10552 a 0.22777108,0.22777108 0 0 1 -0.275333,0.0845 l -1.530649,-0.62347 a 0.22777108,0.22777108 0 0 1 -0.136411,-0.25943 l 0.27868,-1.27959 v -0.0218 l -0.471162,-1.3139 z m 0.4067232,4.64635 c 1.184509,0 2.15496,0.97153 2.15496,2.15496 -1.1e-5,1.18338 -0.970446,2.15496 -2.15496,2.15496 -1.1845114,0 -2.1549612,-0.97157 -2.1549612,-2.15496 0,-1.18346 0.9704589,-2.15496 2.1549612,-2.15496 z"
       id="path5"
       inkscape:connector-curvature="0" />
  </clipPath>
  <radialGradient
     id="c"
     cx="63.75"
     cy="63.875"
     gradientTransform="matrix(0.16266285,0,0,0.16266287,6.563576,6.543234)"
     gradientUnits="userSpaceOnUse"
     r="24.25"
     spreadMethod="pad">
    <stop
       offset="0"
       stop-color="#f40000"
       stop-opacity=".941176"
       id="stop8" />
    <stop
       offset="1"
       stop-color="#cb0006"
       id="stop10" />
  </radialGradient>
  <linearGradient
     id="d"
     gradientUnits="userSpaceOnUse"
     x1="12.700234"
     x2="21.166649"
     y1="15.34587"
     y2="15.34587">
    <stop
       offset="0"
       stop-color="#fff"
       id="stop13" />
    <stop
       offset=".80000001"
       stop-color="#fff"
       stop-opacity="0"
       id="stop15" />
  </linearGradient>
  <path
     style="fill:#f0f0f0;fill-opacity:1;filter:url(#a)"
     inkscape:connector-curvature="0"
     id="path22"
     d="m 10,110.85685 c -1.108458,0 -2.161526,0.25362 -3.098213,0.70536 l 2.67857,5.67857 -4.67857,-4.25 c -1.266825,1.28934 -2.044644,3.06112 -2.044644,5.00893 0,0.51502 0.05686,1.01573 0.160714,1.5 l 7.053572,-1.82143 -0.116072,-0.0982 4.553572,-5.11607 C 13.278925,111.46119 11.708561,110.85686 10,110.85686 Z m 6.883929,5.23215 -7.017857,1.67857 0.02679,0.0179 -6.098213,3.75 c 1.230798,2.15429 3.54954,3.60714 5.491071,3.60714 0.915572,0 1.1154,-0.0104 1.3125,-0.0268 -0.256744,-2.94147 -0.63406,-7.18725 -0.642857,-7.28571 l 5.669643,4.5625 c 0.948935,-1.2126 1.517858,-2.73582 1.517857,-4.39286 0,-0.66114 -0.09036,-1.30282 -0.258929,-1.91071 z"
     transform="matrix(0.29172788,0,0,0.29172789,-6.4869125,-30.477549)" />
  <g
     id="g917"
     transform="matrix(1.5055599,0,0,1.5055599,-0.00172798,-3.1958949)">
    <path
       inkscape:connector-curvature="0"
       style="fill:#9d3a9b;fill-opacity:1;stroke-width:0.125"
       id="path18"
       d="M 1.951416,2.1200217 A 0.06276418,0.06276418 0 0 0 1.892334,2.1615254 L 1.7351074,2.5997579 a 0.06276418,0.06276418 0 0 0 -0.00366,0.02124 v 0.024903 a 0.06276418,0.06276418 0 0 0 0.00146,0.013428 L 1.8044431,2.9879417 1.4541013,3.1307629 1.2675779,2.8509779 1.2514646,2.8263204 a 0.06276418,0.06276418 0 0 0 -0.02539,-0.022217 L 0.8125,2.6058617 a 0.06276418,0.06276418 0 0 0 -0.0715332,0.0122 L 0.5012207,2.8578079 a 0.06276418,0.06276418 0 0 0 -0.012207,0.071534 L 0.6875,3.3426779 a 0.06276418,0.06276418 0 0 0 0.0217285,0.025146 L 0.73413086,3.3844254 1.013916,3.5707042 0.87109375,3.9210467 0.54248048,3.8495129 a 0.06276418,0.06276418 0 0 0 -0.0134277,-0.00146 h -0.0246582 a 0.06276418,0.06276418 0 0 0 -0.0212402,0.00366 L 0.04492187,4.0089392 a 0.06276418,0.06276418 0 0 0 -0.0415039,0.059082 v 0.3305662 a 0.06276418,0.06276418 0 0 0 0.0415039,0.059082 L 0.4831543,4.6148967 a 0.06276418,0.06276418 0 0 0 0.0212402,0.00366 h 0.0246582 a 0.06276418,0.06276418 0 0 0 0.0134278,-0.00146 L 0.87109375,4.5455579 1.013916,4.8959004 0.734375,5.0824242 0.7097168,5.0985367 A 0.06276418,0.06276418 0 0 0 0.6875,5.1239279 l -0.19848632,0.41333 a 0.06276418,0.06276418 0 0 0 0.012207,0.071532 l 0.2397461,0.23999 A 0.06276418,0.06276418 0 0 0 0.8125,5.8609879 L 1.2260742,5.6625017 a 0.06276418,0.06276418 0 0 0 0.025391,-0.022216 l 0.016113,-0.024659 0.1865234,-0.279785 0.3503419,0.1428225 -0.071533,0.3286125 a 0.06276418,0.06276418 0 0 0 -0.00147,0.013428 v 0.024902 a 0.06276418,0.06276418 0 0 0 0.00366,0.021241 L 1.8923267,6.305079 a 0.06276418,0.06276418 0 0 0 0.059082,0.041505 H 2.2819751 A 0.06276418,0.06276418 0 0 0 2.3410571,6.305079 L 2.4982913,5.8668479 a 0.06276418,0.06276418 0 0 0 0.00366,-0.021241 v -0.024903 a 0.06276418,0.06276418 0 0 0 -0.00147,-0.013427 L 2.4289483,5.4786644 2.779046,5.3358419 l 0.1865233,0.2800287 0.016602,0.024903 a 0.06276418,0.06276418 0 0 0 0.025146,0.021729 l 0.41333,0.1984862 a 0.06276418,0.06276418 0 0 0 0.071533,-0.012212 l 0.2399903,-0.23999 a 0.06276418,0.06276418 0 0 0 0.012207,-0.071532 L 3.545899,5.1239229 A 0.06276418,0.06276418 0 0 0 3.5236821,5.0985317 L 3.499024,5.0824192 3.2192387,4.8958954 3.362061,4.5455529 3.6906744,4.6170867 a 0.06276418,0.06276418 0 0 0 0.013428,0.00146 h 0.024902 a 0.06276418,0.06276418 0 0 0 0.02124,-0.00366 L 4.188477,4.4576605 A 0.06276418,0.06276418 0 0 0 4.229981,4.398578 V 4.0680117 A 0.06276418,0.06276418 0 0 0 4.188477,4.0089292 L 3.7502446,3.851703 a 0.06276418,0.06276418 0 0 0 -0.02124,-0.00366 H 3.704102 A 0.06276418,0.06276418 0 0 0 3.690674,3.849503 L 3.362061,3.9210367 3.2192387,3.5709392 3.4992681,3.3844155 3.5241704,3.3678142 A 0.06276418,0.06276418 0 0 0 3.545899,3.342668 L 3.7443852,2.9293379 A 0.06276418,0.06276418 0 0 0 3.7321777,2.8578042 L 3.4921875,2.6180679 a 0.06276418,0.06276418 0 0 0 -0.071533,-0.0122 l -0.41333,0.1982413 A 0.06276418,0.06276418 0 0 0 2.9821785,2.825838 L 2.9655761,2.8507404 2.7790528,3.1307692 2.4289551,2.9879479 2.5004883,2.6593342 a 0.06276418,0.06276418 0 0 0 0.00146,-0.013428 v -0.024903 a 0.06276418,0.06276418 0 0 0 -0.00366,-0.02124 L 2.3410643,2.1615317 a 0.06276418,0.06276418 0 0 0 -0.059082,-0.041504 z m 0.1652833,1.6137687 c 0.2750159,0 0.4995116,0.2247988 0.4995117,0.4995125 -2.8e-6,0.2747025 -0.2244969,0.4995113 -0.4995117,0.4995113 -0.2750139,0 -0.4995118,-0.2248088 -0.4995118,-0.4995113 0,-0.274725 0.2244954,-0.4995125 0.4995118,-0.4995125 z" />
    <path
       inkscape:connector-curvature="0"
       style="fill:#f0e3ec;fill-opacity:1;stroke-width:0.125"
       id="path20"
       d="M 1.9980469,2.2491717 1.8605957,2.6324729 v 0.00635 l 0.081299,0.3732913 a 0.06644717,0.06644717 0 0 1 -0.039795,0.075683 L 1.4555664,3.2696817 A 0.06644717,0.06644717 0 0 1 1.3752441,3.2450242 L 1.1601562,2.9225117 a 0.06644717,0.06644717 0 0 1 -2.437e-4,-5e-4 l -0.00635,-0.00928 -0.35449221,-0.1699213 -0.1730957,0.173095 0.17016601,0.3544925 0.009766,0.00659 0.3222656,0.2148438 a 0.06644717,0.06644717 0 0 1 0.024658,0.080321 L 0.97094769,4.0186892 A 0.06644717,0.06644717 0 0 1 0.8952641,4.0584842 L 0.52197307,3.9771854 h -0.006104 L 0.1325688,4.1146367 v 0.2373037 l 0.38330077,0.1374513 h 0.006104 L 0.8952641,4.4080929 a 0.06644717,0.06644717 0 0 1 0.0756836,0.039795 l 0.1818847,0.4465338 a 0.06644717,0.06644717 0 0 1 -0.024658,0.080322 l -0.32226578,0.215088 a 0.06644717,0.06644717 0 0 1 -4.8875e-4,2.5e-4 l -0.009277,0.00635 -0.17016601,0.3542487 0.1730957,0.17334 0.35449224,-0.1701662 0.00635,-0.00927 a 0.06644717,0.06644717 0 0 1 2.437e-4,-5e-4 L 1.3752436,5.2215704 a 0.06644717,0.06644717 0 0 1 0.080322,-0.024659 l 0.4465332,0.181885 a 0.06644717,0.06644717 0 0 1 0.039795,0.075684 l -0.081299,0.373291 v 0.00635 l 0.1374512,0.3833 h 0.237305 l 0.1374513,-0.3833 v -0.00635 l -0.081299,-0.373291 a 0.06644717,0.06644717 0 0 1 0.039795,-0.075684 l 0.4465331,-0.181885 a 0.06644717,0.06644717 0 0 1 0.080322,0.024659 l 0.2148438,0.3225088 0.00659,0.00976 0.3544922,0.1701662 0.1733398,-0.17334 -0.170166,-0.3542487 -0.00928,-0.00635 a 0.06644717,0.06644717 0 0 1 -4.875e-4,-2.5e-4 L 3.10498,4.9747317 A 0.06644717,0.06644717 0 0 1 3.0803217,4.8944092 L 3.2622065,4.4478754 a 0.06644717,0.06644717 0 0 1 0.075684,-0.039795 l 0.373291,0.081299 h 0.00635 L 4.1008295,4.3519279 V 4.1146242 L 3.7175286,3.9771729 h -0.00635 L 3.3378901,4.0584717 A 0.06644717,0.06644717 0 0 1 3.2622065,4.0186767 L 3.0803218,3.5721429 A 0.06644717,0.06644717 0 0 1 3.10498,3.4918217 L 3.4274898,3.2769779 3.437256,3.2703904 3.607422,2.9158979 3.4340821,2.7428029 3.07959,2.9127242 3.073,2.9224842 2.8581562,3.2449942 a 0.06644717,0.06644717 0 0 1 -0.080323,0.02466 L 2.3312996,3.0877692 a 0.06644717,0.06644717 0 0 1 -0.039795,-0.075683 l 0.081299,-0.3732913 v -0.00635 L 2.2353523,2.2491442 Z m 0.1186524,1.3554687 c 0.3455545,0 0.6286621,0.283425 0.6286621,0.6286625 -3.4e-6,0.3452263 -0.2831064,0.6286613 -0.6286621,0.6286613 -0.3455549,0 -0.6286622,-0.2834338 -0.6286622,-0.6286613 0,-0.3452462 0.2831099,-0.6286625 0.6286622,-0.6286625 z" />
    <g
       style="fill:#d30404;fill-opacity:1"
       id="g40"
       transform="matrix(0.125,0,0,0.125,0,2.1166667)">
      <ellipse
         style="fill:#d30404;fill-opacity:1;fill-rule:evenodd"
         id="ellipse36"
         ry="3.9445751"
         rx="3.9445741"
         cy="16.933331"
         cx="16.933332" />
    </g>
  </g>
</svg>
