<?xml version="1.0" encoding="UTF-8" standalone="no"?>
<svg
   xmlns:dc="http://purl.org/dc/elements/1.1/"
   xmlns:cc="http://creativecommons.org/ns#"
   xmlns:rdf="http://www.w3.org/1999/02/22-rdf-syntax-ns#"
   xmlns:svg="http://www.w3.org/2000/svg"
   xmlns="http://www.w3.org/2000/svg"
   xmlns:sodipodi="http://sodipodi.sourceforge.net/DTD/sodipodi-0.dtd"
   xmlns:inkscape="http://www.inkscape.org/namespaces/inkscape"
   height="24"
   width="24"
   version="1.1"
   id="svg46"
   sodipodi:docname="lc_mirror.svg"
   inkscape:version="0.92.4 (unknown)"
   inkscape:export-filename="/home/annisaauliarasyidah/Desktop/4_242 (aulia)/lc 222/lc_mirror.png"
   inkscape:export-xdpi="96"
   inkscape:export-ydpi="96">
  <metadata
     id="metadata52">
    <rdf:RDF>
      <cc:Work
         rdf:about="">
        <dc:format>image/svg+xml</dc:format>
        <dc:type
           rdf:resource="http://purl.org/dc/dcmitype/StillImage" />
        <dc:title></dc:title>
      </cc:Work>
    </rdf:RDF>
  </metadata>
  <defs
     id="defs50">
    <clipPath
       clipPathUnits="userSpaceOnUse"
       id="clipPath890">
      <rect
         height="10"
         rx="0.51826203"
         ry="0.5"
         transform="matrix(0.96476382,-0.26311741,0,1,0,0)"
         width="11.401754"
         y="4.5"
         id="rect892"
         x="0"
         style="fill:#e602b4" />
    </clipPath>
    <clipPath
       clipPathUnits="userSpaceOnUse"
       id="clipPath896">
      <path
         d="m 1.5,5 8,-2 C 9.777,2.9308 10,3.098 10,3.375 v 7 C 10,10.652 9.777,10.93075 9.5,11 l -8,2 C 1.223,13.06925 1,12.902 1,12.625 v -7 C 1,5.348 1.223,5.06925 1.5,5 Z"
         id="path898"
         style="fill:#f0e3ec"
         inkscape:connector-curvature="0" />
    </clipPath>
  </defs>
  <sodipodi:namedview
     pagecolor="#ffffff"
     bordercolor="#666666"
     borderopacity="1"
     objecttolerance="10"
     gridtolerance="10"
     guidetolerance="10"
     inkscape:pageopacity="0"
     inkscape:pageshadow="2"
     inkscape:window-width="1366"
     inkscape:window-height="707"
     id="namedview48"
     showgrid="true"
     inkscape:zoom="16.075195"
     inkscape:cx="1.2043662"
     inkscape:cy="8"
     inkscape:window-x="0"
     inkscape:window-y="0"
     inkscape:window-maximized="1"
     inkscape:current-layer="svg46">
    <inkscape:grid
       type="xygrid"
       id="grid849" />
  </sodipodi:namedview>
  <linearGradient
     id="a"
     gradientUnits="userSpaceOnUse"
     x1="17.624693"
     x2="17.624693"
     y1="123.64167"
     y2="113.37623">
    <stop
       offset="0"
       stop-color="#dda2a2"
       id="stop2" />
    <stop
       offset=".5"
       stop-color="#c86868"
       id="stop4" />
    <stop
       offset="1"
       stop-color="#edcdcd"
       id="stop6" />
  </linearGradient>
  <linearGradient
     id="b"
     gradientUnits="userSpaceOnUse"
     x1="1"
     x2="12.5"
     y1="120.00001"
     y2="118.5"
     gradientTransform="translate(0,-112)">
    <stop
       offset="0"
       stop-color="#fff"
       id="stop9" />
    <stop
       offset=".42597079"
       stop-color="#fff"
       id="stop11" />
    <stop
       offset=".5892781"
       stop-color="#f1f1f1"
       id="stop13" />
    <stop
       offset=".80219781"
       stop-color="#eaeaea"
       id="stop15" />
    <stop
       offset="1"
       stop-color="#dfdfdf"
       id="stop17" />
  </linearGradient>
  <linearGradient
     id="c"
     gradientUnits="userSpaceOnUse"
     x1="27.623285"
     x2="19.673939"
     y1="119.22707"
     y2="112.00039">
    <stop
       offset="0"
       stop-color="#fff"
       id="stop20" />
    <stop
       offset="1"
       stop-color="#fff"
       stop-opacity="0"
       id="stop22" />
  </linearGradient>
  <mask
     id="d"
     maskUnits="userSpaceOnUse">
    <path
       d="m 18.95127,110.55506 11.562688,-2.89068 c 0.400358,-0.10001 0.722668,0.14165 0.722668,0.54201 v 10.11735 c 0,0.40036 -0.32231,0.80324 -0.722668,0.90333 l -11.562688,2.89067 c -0.400358,0.10002 -0.722667,-0.14164 -0.722667,-0.542 v -10.11735 c 0,-0.40036 0.322309,-0.80324 0.722667,-0.90333 z"
       id="path25"
       inkscape:connector-curvature="0"
       style="fill:url(#c)" />
  </mask>
  <g
     id="g847"
     transform="matrix(1.5,0,0,1.5,0,-12.455248)"
     style="stroke-width:0.66666663">
    <rect
       height="10"
       rx="0.51826203"
       ry="0.5"
       transform="matrix(0.96476382,-0.26311741,0,1,0,0)"
       width="11.401754"
       y="12.5"
       id="rect28"
       x="0"
       style="fill:#e602b4;stroke-width:0.66666663" />
    <path
       d="m 1.5,13 8,-2 c 0.277,-0.0692 0.5,0.098 0.5,0.375 v 7 C 10,18.652 9.777,18.93075 9.5,19 l -8,2 C 1.223,21.06925 1,20.902 1,20.625 v -7 C 1,13.348 1.223,13.06925 1.5,13 Z"
       id="path30"
       style="fill:#f0e3ec;stroke-width:0.66666663"
       inkscape:connector-curvature="0" />
    <circle
       style="fill:#9d3a9b;fill-opacity:0.975;stroke-width:0.46125376"
       id="circle32"
       r="4.4952474"
       cy="18.493917"
       cx="11.504752" />
    <circle
       style="fill:#dda2a2;fill-opacity:1;stroke-width:0.46125376"
       id="circle34"
       r="3.4919996"
       cy="18.493917"
       cx="11.504752" />
    <g
       transform="translate(0,8)"
       clip-path="url(#clipPath896)"
       id="g888"
       style="stroke-width:0.66666663">
      <circle
         cx="0.49524757"
         cy="10.493917"
         r="4.4952474"
         id="circle38"
         style="fill:#da9bd9;fill-opacity:0.975;stroke-width:0.46125376" />
      <circle
         cx="0.49524757"
         cy="10.493917"
         r="3.4919996"
         id="circle40"
         style="fill:#eac7c7;fill-opacity:1;stroke-width:0.46125376" />
    </g>
  </g>
</svg>
