<?xml version="1.0" encoding="UTF-8" standalone="no"?>
<svg
   xmlns:dc="http://purl.org/dc/elements/1.1/"
   xmlns:cc="http://creativecommons.org/ns#"
   xmlns:rdf="http://www.w3.org/1999/02/22-rdf-syntax-ns#"
   xmlns:svg="http://www.w3.org/2000/svg"
   xmlns="http://www.w3.org/2000/svg"
   xmlns:sodipodi="http://sodipodi.sourceforge.net/DTD/sodipodi-0.dtd"
   xmlns:inkscape="http://www.inkscape.org/namespaces/inkscape"
   height="24"
   viewBox="0 0 24 24"
   width="24"
   version="1.1"
   id="svg38"
   sodipodi:docname="lc_numericfield.svg"
   inkscape:version="0.92.4 (unknown)"
   inkscape:export-filename="/home/annisaauliarasyidah/Desktop/4_242 (aulia)/lc 222/lc_numericfield.png"
   inkscape:export-xdpi="96"
   inkscape:export-ydpi="96">
  <metadata
     id="metadata44">
    <rdf:RDF>
      <cc:Work
         rdf:about="">
        <dc:format>image/svg+xml</dc:format>
        <dc:type
           rdf:resource="http://purl.org/dc/dcmitype/StillImage" />
        <dc:title></dc:title>
      </cc:Work>
    </rdf:RDF>
  </metadata>
  <defs
     id="defs42" />
  <sodipodi:namedview
     pagecolor="#ffffff"
     bordercolor="#666666"
     borderopacity="1"
     objecttolerance="10"
     gridtolerance="10"
     guidetolerance="10"
     inkscape:pageopacity="0"
     inkscape:pageshadow="2"
     inkscape:window-width="1366"
     inkscape:window-height="707"
     id="namedview40"
     showgrid="true"
     inkscape:zoom="11.040948"
     inkscape:cx="-5.4362374"
     inkscape:cy="8"
     inkscape:window-x="0"
     inkscape:window-y="0"
     inkscape:window-maximized="1"
     inkscape:current-layer="svg38">
    <inkscape:grid
       type="xygrid"
       id="grid830" />
  </sodipodi:namedview>
  <linearGradient
     id="a"
     gradientTransform="matrix(0.9792,0,0,0.9725,133.0002,20.8762)"
     gradientUnits="userSpaceOnUse"
     x1="-135.2299"
     x2="-120.50674"
     y1="-21.610088"
     y2="-9.1271982">
    <stop
       offset="0"
       stop-color="#8dd8e4"
       id="stop2" />
    <stop
       offset=".04431298"
       stop-color="#a8e2f1"
       id="stop4" />
    <stop
       offset=".33793688"
       stop-color="#0a9dc4"
       id="stop6" />
    <stop
       offset=".73121971"
       stop-color="#00718c"
       id="stop8" />
    <stop
       offset="1"
       stop-color="#002b38"
       id="stop10" />
  </linearGradient>
  <mask
     id="b"
     maskUnits="userSpaceOnUse">
    <path
       d="M 12,16.312845 H 122.11765 V 51.686498 H 12 Z"
       id="path13"
       inkscape:connector-curvature="0"
       style="fill:#ffffff" />
  </mask>
  <filter
     id="c"
     height="2.168999"
     width="1.076726"
     x="-0.038362999"
     y="-0.58450001"
     style="color-interpolation-filters:sRGB">
    <feGaussianBlur
       stdDeviation="1.6184007"
       id="feGaussianBlur16" />
  </filter>
  <linearGradient
     id="d"
     gradientUnits="userSpaceOnUse"
     x1="64.822235"
     x2="64.716736"
     y1="17.727728"
     y2="25.233469">
    <stop
       offset="0"
       stop-color="#717171"
       id="stop19" />
    <stop
       offset="1"
       stop-color="#717171"
       stop-opacity="0"
       id="stop21" />
  </linearGradient>
  <g
     id="g838"
     transform="scale(1.5)"
     style="stroke-width:0.66666669">
    <rect
       style="fill:#9d3a9b;stroke-width:0.16666667"
       id="rect24"
       y="3"
       width="16"
       rx="1.5"
       height="10"
       x="0" />
    <path
       style="fill:#e602b4;stroke-width:0.66666669"
       id="path26"
       d="m 1,4 h 14 v 8 H 1 Z"
       inkscape:connector-curvature="0" />
    <g
       style="fill:#f3b7d9;stroke-width:0.13981"
       id="g36">
      <path
         style="fill:#f3b7d9;stroke-width:0.13981"
         id="path30"
         d="M 3.0488161,6.7611267 H 1.7318088 V 6.2326461 Q 2.5874441,6.1235945 2.8474902,5.9306571 3.1075362,5.7377198 3.3004735,5.0498561 H 3.7870113 V 10.99736 H 3.0488161 Z"
         inkscape:connector-curvature="0" />
      <path
         style="fill:#f3b7d9;stroke-width:0.13981"
         id="path32"
         d="m 5.9650276,7.1134471 q 0.05872,-2.063591 1.962928,-2.063591 0.8472468,0 1.3757274,0.4865377 0.5284806,0.4865377 0.5284806,1.2582872 0,1.1072927 -1.2582872,1.7951564 L 7.7350183,9.0428208 Q 7.1897605,9.3364211 6.9548802,9.6132443 6.7199999,9.8900675 6.6612799,10.267554 H 9.7902207 V 10.99736 H 5.8308103 Q 5.8811418,10.015896 6.2250736,9.4874156 6.5690055,8.9505464 7.500138,8.4220658 L 8.2718875,7.9858596 Q 9.0771913,7.5244876 9.0771913,6.8114582 9.0771913,6.333309 8.741648,6.014543 8.4061048,5.6957769 7.9027899,5.6957769 q -1.1156813,0 -1.1995671,1.4176702 z"
         inkscape:connector-curvature="0" />
      <path
         style="fill:#f3b7d9;stroke-width:0.13981"
         id="path34"
         d="m 12.479941,5.6957769 q -0.637533,0 -0.880802,0.3523204 -0.23488,0.3439318 -0.251657,0.9227439 h -0.738195 q 0.04194,-1.9209851 1.862265,-1.9209851 0.847247,0 1.325396,0.4362062 0.486537,0.4362063 0.486537,1.1995672 0,0.9059667 -0.830469,1.2331214 0.536869,0.1845488 0.771749,0.520092 0.234881,0.3271547 0.234881,0.8975782 0,0.8472469 -0.553647,1.3505619 -0.545257,0.503315 -1.459613,0.503315 -1.828711,0 -1.962928,-1.9209855 h 0.738195 q 0.04194,0.6459207 0.343932,0.9562985 0.301989,0.310377 0.905967,0.310377 0.578812,0 0.905967,-0.310377 0.327154,-0.3187663 0.327154,-0.8808013 0,-1.082127 -1.233121,-1.082127 l -0.310378,0.00839 H 12.0689 v -0.629145 q 0.796915,-0.016777 1.12407,-0.2013259 0.335543,-0.1845488 0.335543,-0.7298066 0,-0.4697606 -0.285212,-0.7381952 -0.276823,-0.2768231 -0.76336,-0.2768231 z"
         inkscape:connector-curvature="0" />
    </g>
  </g>
</svg>
