<?xml version="1.0" encoding="UTF-8" standalone="no"?>
<svg
   xmlns:dc="http://purl.org/dc/elements/1.1/"
   xmlns:cc="http://creativecommons.org/ns#"
   xmlns:rdf="http://www.w3.org/1999/02/22-rdf-syntax-ns#"
   xmlns:svg="http://www.w3.org/2000/svg"
   xmlns="http://www.w3.org/2000/svg"
   xmlns:sodipodi="http://sodipodi.sourceforge.net/DTD/sodipodi-0.dtd"
   xmlns:inkscape="http://www.inkscape.org/namespaces/inkscape"
   height="24"
   viewBox="0 0 6.3499998 6.3500002"
   width="24"
   version="1.1"
   id="svg15"
   sodipodi:docname="lc_numberformatthousands.svg"
   inkscape:export-filename="/home/annisaauliarasyidah/Desktop/4_242 (aulia)/lc 222/lc_numberformatthousands.png"
   inkscape:export-xdpi="96"
   inkscape:export-ydpi="96"
   inkscape:version="0.92.4 (unknown)">
  <metadata
     id="metadata21">
    <rdf:RDF>
      <cc:Work
         rdf:about="">
        <dc:format>image/svg+xml</dc:format>
        <dc:type
           rdf:resource="http://purl.org/dc/dcmitype/StillImage" />
        <dc:title></dc:title>
      </cc:Work>
    </rdf:RDF>
  </metadata>
  <defs
     id="defs19" />
  <sodipodi:namedview
     pagecolor="#ffffff"
     bordercolor="#666666"
     borderopacity="1"
     objecttolerance="10"
     gridtolerance="10"
     guidetolerance="10"
     inkscape:pageopacity="0"
     inkscape:pageshadow="2"
     inkscape:window-width="1366"
     inkscape:window-height="707"
     id="namedview17"
     showgrid="true"
     inkscape:snap-global="false"
     inkscape:zoom="15.614258"
     inkscape:cx="7.0654364"
     inkscape:cy="8"
     inkscape:window-x="0"
     inkscape:window-y="0"
     inkscape:window-maximized="1"
     inkscape:current-layer="svg15">
    <inkscape:grid
       type="xygrid"
       id="grid831" />
  </sodipodi:namedview>
  <linearGradient
     id="a"
     gradientUnits="userSpaceOnUse"
     x1="1.977236"
     x2="1.977236"
     y1="296.24164"
     y2="293.64841">
    <stop
       offset="0"
       stop-color="#555"
       id="stop2" />
    <stop
       offset="1"
       id="stop4" />
  </linearGradient>
  <g
     id="g826"
     transform="matrix(1.4750638,0,0,1.4616355,-0.1333295,-0.00283713)"
     style="stroke-width:0.6810438">
    <g
       style="fill:#f3b7d9;stroke:#9d3a9b;stroke-width:0.06685156;stroke-linecap:round;stroke-linejoin:bevel;stroke-miterlimit:4;stroke-dasharray:none"
       id="g13"
       transform="translate(-0.044677,-292.93961)">
      <path
         inkscape:connector-curvature="0"
         style="fill:#f3b7d9;stroke:#9d3a9b;stroke-width:0.06685156;stroke-linecap:round;stroke-linejoin:bevel;stroke-miterlimit:4;stroke-dasharray:none"
         id="path7"
         d="m 0.6276572,293.8543 q -0.0706962,0 -0.28278461,0.0864 v -0.055 l 0.70696151,-0.3574 0.031421,0.008 v 2.35654 q 0,0.14139 0.070696,0.1846 0.070696,0.0432 0.3024224,0.0471 v 0.0589 H 0.37236554 v -0.0589 q 0.21994358,-0.008 0.2945673,-0.0628 0.0785513,-0.0589 0.0785513,-0.24351 v -1.77919 q 0,-0.1846 -0.11782691,-0.1846 z" />
      <path
         inkscape:connector-curvature="0"
         style="fill:#f3b7d9;stroke:#9d3a9b;stroke-width:0.06685156;stroke-linecap:round;stroke-linejoin:bevel;stroke-miterlimit:4;stroke-dasharray:none"
         id="path9"
         d="m 2.1834348,296.1912 q 0,0 -0.031421,0.008 -0.035348,0.008 -0.074624,0.008 -0.1060443,0 -0.1688853,-0.051 -0.062841,-0.055 -0.062841,-0.14925 0,-0.0982 0.062841,-0.16103 0.066769,-0.0628 0.1688853,-0.0628 0.1335371,0 0.2238711,0.10211 0.090334,0.0982 0.090334,0.24744 0,0.17674 -0.1217545,0.3417 -0.1217545,0.16496 -0.3181327,0.26315 l -0.035348,-0.0746 q 0.3220602,-0.21994 0.3220602,-0.41632 0,-0.055 -0.054986,-0.055 z" />
      <path
         inkscape:connector-curvature="0"
         style="fill:#f3b7d9;stroke:#9d3a9b;stroke-width:0.06685156;stroke-linecap:round;stroke-linejoin:bevel;stroke-miterlimit:4;stroke-dasharray:none"
         id="path11"
         d="m 3.986649,295.86129 q -0.243509,0.37705 -0.6441205,0.37705 -0.4006115,0 -0.6441205,-0.38491 -0.2435089,-0.3849 -0.2435089,-0.98974 0,-0.5695 0.2435089,-0.95047 0.243509,-0.3849 0.6598308,-0.3849 0.3849012,0 0.6284102,0.37704 0.2435089,0.37705 0.2435089,0.98189 0,0.59699 -0.2435089,0.97404 z m -0.6401929,-2.23086 q -0.5145109,0 -0.5145109,1.26861 0,1.23718 0.5105833,1.23718 0.5105833,0 0.5105833,-1.24111 0,-0.61663 -0.1296096,-0.93869 -0.1296096,-0.32599 -0.3770461,-0.32599 z" />
    </g>
  </g>
</svg>
