<?xml version="1.0" encoding="UTF-8" standalone="no"?>
<svg
   xmlns:dc="http://purl.org/dc/elements/1.1/"
   xmlns:cc="http://creativecommons.org/ns#"
   xmlns:rdf="http://www.w3.org/1999/02/22-rdf-syntax-ns#"
   xmlns:svg="http://www.w3.org/2000/svg"
   xmlns="http://www.w3.org/2000/svg"
   xmlns:xlink="http://www.w3.org/1999/xlink"
   xmlns:sodipodi="http://sodipodi.sourceforge.net/DTD/sodipodi-0.dtd"
   xmlns:inkscape="http://www.inkscape.org/namespaces/inkscape"
   height="24"
   viewBox="0 0 6.3499998 6.3500002"
   width="24"
   version="1.1"
   id="svg15"
   sodipodi:docname="lc_numberformatstandard.svg"
   inkscape:export-filename="/home/annisaauliarasyidah/Desktop/4_242 (aulia)/lc 222/lc_numberformatstandard.png"
   inkscape:export-xdpi="96"
   inkscape:export-ydpi="96"
   inkscape:version="0.92.4 (unknown)">
  <metadata
     id="metadata21">
    <rdf:RDF>
      <cc:Work
         rdf:about="">
        <dc:format>image/svg+xml</dc:format>
        <dc:type
           rdf:resource="http://purl.org/dc/dcmitype/StillImage" />
        <dc:title />
      </cc:Work>
    </rdf:RDF>
  </metadata>
  <defs
     id="defs19" />
  <sodipodi:namedview
     pagecolor="#ffffff"
     bordercolor="#666666"
     borderopacity="1"
     objecttolerance="10"
     gridtolerance="10"
     guidetolerance="10"
     inkscape:pageopacity="0"
     inkscape:pageshadow="2"
     inkscape:window-width="1366"
     inkscape:window-height="707"
     id="namedview17"
     showgrid="true"
     inkscape:zoom="8.2645782"
     inkscape:cx="-12.879847"
     inkscape:cy="8"
     inkscape:window-x="0"
     inkscape:window-y="0"
     inkscape:window-maximized="1"
     inkscape:current-layer="svg15">
    <inkscape:grid
       type="xygrid"
       id="grid831" />
  </sodipodi:namedview>
  <linearGradient
     id="a"
     gradientUnits="userSpaceOnUse"
     x1="6.6428294"
     x2="6.6428294"
     xlink:href="#c"
     y1="12.546971"
     y2="3.5808017" />
  <linearGradient
     id="b"
     gradientTransform="matrix(1.0361904,0,0,1.0179331,-0.128783,-5.309627)"
     gradientUnits="userSpaceOnUse"
     x1="1.7575819"
     x2="1.7575819"
     xlink:href="#c"
     y1="296.08636"
     y2="293.71408" />
  <linearGradient
     id="c"
     gradientUnits="userSpaceOnUse"
     x1="1.7575819"
     x2="1.7575819"
     y1="296.08636"
     y2="293.71408">
    <stop
       offset="0"
       stop-color="#555"
       id="stop4" />
    <stop
       offset="1"
       id="stop6" />
  </linearGradient>
  <g
     transform="matrix(1.4836644,0,0,1.4836644,0.01694284,-434.33288)"
     id="g13"
     style="fill:#f3b7d9;stroke:#9d3a9b;stroke-width:0.04458274;stroke-miterlimit:4;stroke-dasharray:none">
    <path
       d="M 2,2 V 3.4355469 C 1.502733,3.5537857 1.1027472,3.7392159 0.80859375,3.9941406 0.40120574,4.3472241 0.19726563,4.8131766 0.19726562,5.3925781 0.19726563,5.9357466 0.37349291,6.4063505 0.7265625,6.8046875 0.99136429,7.0893563 1.4492668,7.413317 2,7.7558594 V 11.890625 C 1.6418868,11.813035 1.3360038,11.675608 1.09375,11.462891 0.72257425,11.127924 0.45592396,10.601906 0.29296875,9.8867188 h -0.203125 V 11.652344 C 0.49723176,11.9059 0.87739908,12.082113 1.2304688,12.181641 1.4431274,12.236427 1.7086205,12.274775 2,12.302734 V 14 h 1 v -1.65625 h 0.076172 c 0.8690945,-0.144857 1.520531,-0.393035 1.9550781,-0.746094 0.4436004,-0.362129 0.6660156,-0.881567 0.6660156,-1.560547 0,-0.208352 -0.023093,-0.4030706 -0.068359,-0.583984 C 5.5926956,9.2720604 5.5530786,9.1169745 5.5078125,8.9902344 5.4625464,8.8544485 5.3767427,8.7151944 5.25,8.5703125 5.1232573,8.4254306 5.0235977,8.3118545 4.9511719,8.2304688 4.8787483,8.1490829 4.7421372,8.0447088 4.5429688,7.9179688 4.3438005,7.7824097 4.1999048,7.6872377 4.109375,7.6328125 4.0278972,7.5786393 3.8543357,7.4788663 3.5917969,7.3339844 3.3383111,7.1893545 3.1667026,7.0895814 3.0761719,7.0351562 L 3,7 V 3.6953125 h 0.076172 c 0.5703432,0.072416 1.0151738,0.2578816 1.3320312,0.5566406 0.3168577,0.2896882 0.5327012,0.7233328 0.6503907,1.3027344 h 0.205078 V 4.0488281 C 4.8291247,3.6866738 4.0991685,3.4457943 3.0761719,3.328125 H 3 V 2 Z M 2,3.8847656 V 6.3789062 C 1.7697137,6.1989061 1.5833983,6.0376802 1.4746094,5.9082031 1.2935481,5.681885 1.203125,5.4106256 1.203125,5.09375 1.203125,4.5338568 1.4698251,4.1304134 2,3.8847656 Z M 3,8.328125 3.076172,8.367188 c 0.6337126,0.398337 1.0508315,0.7277084 1.25,0.9902344 C 4.5253404,9.6109274 4.625,9.9468532 4.625,10.363281 c 0,0.869216 -0.5167785,1.402508 -1.5488281,1.601563 H 3 Z"
       transform="matrix(0.26458333,0,0,0.26458333,0,292.76665)"
       id="path9"
       style="fill:#f3b7d9;stroke:#9d3a9b;stroke-width:0.16850172;stroke-miterlimit:4;stroke-dasharray:none"
       inkscape:connector-curvature="0" />
    <path
       d="m 3.8498683,294.67533 q 0.1824254,0 0.2829454,0.1024 0.1005196,0.10242 0.1005196,0.28894 0,0.21213 -0.085627,0.42059 -0.085627,0.20847 -0.2345469,0.35843 -0.1898711,0.18652 -0.435587,0.18652 -0.2010401,0 -0.323898,-0.128 -0.1228578,-0.13167 -0.1228578,-0.3438 0,-0.34379 0.2494387,-0.61443 0.2531616,-0.27065 0.569613,-0.27065 z m -0.3090062,1.24716 q 0.1600876,0 0.3015603,-0.13898 0.1414726,-0.13898 0.215932,-0.32916 0.078183,-0.19384 0.078183,-0.3694 0,-0.12069 -0.078183,-0.2048 -0.074459,-0.0878 -0.1824253,-0.0878 -0.1712564,0 -0.3090061,0.19018 -0.1377497,0.19018 -0.1973172,0.39134 -0.055844,0.19749 -0.055844,0.31453 0,0.10241 0.06329,0.16824 0.06329,0.0659 0.1638105,0.0659 z m -1.1317816,-2.31145 q 0.115412,0 0.1861483,0.0512 0.070736,0.0475 0.1563645,0.0987 0.089351,0.0475 0.2419928,0.0475 0.1749795,0 0.3015604,-0.0549 0.1303036,-0.0549 0.2792224,-0.19383 h 0.1451957 l -1.433342,2.51992 H 2.1075204 l 1.3067608,-2.28951 q -0.1935942,0.10972 -0.409526,0.10972 -0.1451959,0 -0.2419929,-0.0365 0.02606,0.0914 0.02606,0.16093 0,0.34013 -0.223378,0.64735 -0.2196549,0.30356 -0.53983,0.30356 -0.1824255,0 -0.3127291,-0.13532 -0.1265809,-0.13898 -0.1265809,-0.32916 0,-0.34745 0.2494386,-0.62175 0.2531619,-0.27796 0.5733369,-0.27796 z m 0,0.10971 q -0.1787023,0 -0.3611277,0.32185 -0.1787023,0.3182 -0.1787023,0.58518 0,0.0987 0.059567,0.16093 0.06329,0.0622 0.1600877,0.0622 0.2271008,0 0.416972,-0.25967 0.1898714,-0.26333 0.1898714,-0.57421 0,-0.0695 -0.033507,-0.17921 -0.074459,-0.0183 -0.1265807,-0.0402 -0.048399,-0.0256 -0.067014,-0.0402 -0.014892,-0.0147 -0.029785,-0.0256 -0.014892,-0.011 -0.029784,-0.011 z"
       id="path11"
       style="fill:#f3b7d9;stroke:#9d3a9b;stroke-width:0.04458274;stroke-miterlimit:4;stroke-dasharray:none"
       inkscape:connector-curvature="0" />
  </g>
</svg>
