<?xml version="1.0" encoding="UTF-8" standalone="no"?>
<svg
   xmlns:dc="http://purl.org/dc/elements/1.1/"
   xmlns:cc="http://creativecommons.org/ns#"
   xmlns:rdf="http://www.w3.org/1999/02/22-rdf-syntax-ns#"
   xmlns:svg="http://www.w3.org/2000/svg"
   xmlns="http://www.w3.org/2000/svg"
   xmlns:xlink="http://www.w3.org/1999/xlink"
   xmlns:sodipodi="http://sodipodi.sourceforge.net/DTD/sodipodi-0.dtd"
   xmlns:inkscape="http://www.inkscape.org/namespaces/inkscape"
   height="24"
   viewBox="0 0 6.3499998 6.3500002"
   width="24"
   version="1.1"
   id="svg105"
   sodipodi:docname="lc_numberformaincdecimals.svg"
   inkscape:version="0.92.4 (unknown)"
   inkscape:export-filename="/home/annisaauliarasyidah/Desktop/4_242 (aulia)/lc 222/lc_numberformatincdecimals.png"
   inkscape:export-xdpi="96"
   inkscape:export-ydpi="96">
  <metadata
     id="metadata111">
    <rdf:RDF>
      <cc:Work
         rdf:about="">
        <dc:format>image/svg+xml</dc:format>
        <dc:type
           rdf:resource="http://purl.org/dc/dcmitype/StillImage" />
        <dc:title></dc:title>
      </cc:Work>
    </rdf:RDF>
  </metadata>
  <defs
     id="defs109" />
  <sodipodi:namedview
     pagecolor="#ffffff"
     bordercolor="#666666"
     borderopacity="1"
     objecttolerance="10"
     gridtolerance="10"
     guidetolerance="10"
     inkscape:pageopacity="0"
     inkscape:pageshadow="2"
     inkscape:window-width="1366"
     inkscape:window-height="707"
     id="namedview107"
     showgrid="true"
     inkscape:zoom="15.614258"
     inkscape:cx="24.367753"
     inkscape:cy="8"
     inkscape:window-x="0"
     inkscape:window-y="0"
     inkscape:window-maximized="1"
     inkscape:current-layer="svg105"
     inkscape:snap-global="false">
    <inkscape:grid
       type="xygrid"
       id="grid967" />
  </sodipodi:namedview>
  <linearGradient
     id="a"
     gradientTransform="matrix(0.06403696,0,0,0.05170609,8.610835,289.97173)"
     gradientUnits="userSpaceOnUse"
     x1="-46.466766"
     x2="-44.050186"
     y1="-5584.7192"
     y2="-5685.4136">
    <stop
       offset="0"
       stop-color="#0968ef"
       id="stop2" />
    <stop
       offset="1"
       stop-color="#aecffc"
       id="stop4" />
  </linearGradient>
  <linearGradient
     id="b"
     gradientTransform="matrix(0.5991784,0,0,0.5991784,0.52054,1.780271)"
     gradientUnits="userSpaceOnUse"
     x1="1.984375"
     x2="1.984375"
     xlink:href="#c"
     y1="3.7041669"
     y2="0.66145802" />
  <linearGradient
     id="c"
     gradientTransform="matrix(0.70334532,0,0,0.70334532,-0.08266,-204.41091)"
     gradientUnits="userSpaceOnUse"
     x1="3.8259461"
     x2="3.8259461"
     y1="295.92435"
     y2="291.72922">
    <stop
       offset="0"
       stop-color="#555"
       id="stop8" />
    <stop
       offset="1"
       id="stop10" />
  </linearGradient>
  <radialGradient
     id="d"
     cx="84.903702"
     cy="-130.14005"
     gradientTransform="matrix(0.01018452,0.01018452,-0.01018452,0.01018452,-0.37242068,1.6703225)"
     gradientUnits="userSpaceOnUse"
     r="57.039597"
     xlink:href="#e" />
  <linearGradient
     id="e">
    <stop
       offset="0"
       stop-color="#011701"
       id="stop14" />
    <stop
       offset=".80671918"
       stop-color="#145703"
       id="stop16" />
    <stop
       offset="1"
       stop-color="#2fa207"
       stop-opacity=".384314"
       id="stop18" />
  </linearGradient>
  <radialGradient
     id="f"
     cx="43.084476"
     cy="-121.92532"
     gradientTransform="matrix(0.01003681,0.01033012,-0.012002,0.01166122,-0.480525,1.8614889)"
     gradientUnits="userSpaceOnUse"
     r="57.039597"
     xlink:href="#e" />
  <radialGradient
     id="g"
     cx="51.991096"
     cy="-78.028419"
     gradientTransform="matrix(0.00933723,0.01096655,-0.0185589,0.01580158,-0.87468021,2.0853466)"
     gradientUnits="userSpaceOnUse"
     r="57.039597"
     xlink:href="#e" />
  <linearGradient
     id="h"
     gradientTransform="scale(1.0975951,0.9110828)"
     gradientUnits="userSpaceOnUse"
     x1="26.091133"
     x2="31.500689"
     xlink:href="#i"
     y1="14.856744"
     y2="14.856744" />
  <linearGradient
     id="i">
    <stop
       offset="0"
       stop-color="#fff"
       id="stop24" />
    <stop
       offset="1"
       stop-color="#fff"
       stop-opacity="0"
       id="stop26" />
  </linearGradient>
  <filter
     id="j"
     height="1.277481"
     width="1.279832"
     x="-0.139916"
     y="-0.138741">
    <feGaussianBlur
       stdDeviation=".28784801"
       id="feGaussianBlur29" />
  </filter>
  <linearGradient
     id="k"
     gradientUnits="userSpaceOnUse"
     x1="304.88663"
     x2="345.62039"
     y1="385.86127"
     y2="384.62384">
    <stop
       offset="0"
       stop-color="#765c44"
       id="stop32" />
    <stop
       offset="1"
       stop-color="#765c44"
       stop-opacity="0"
       id="stop34" />
  </linearGradient>
  <linearGradient
     id="l"
     gradientUnits="userSpaceOnUse"
     spreadMethod="reflect"
     x1="31.606251"
     x2="34.575108"
     y1="13.510336"
     y2="13.510336">
    <stop
       offset="0"
       stop-color="#fff"
       id="stop37" />
    <stop
       offset="1"
       stop-color="#790000"
       stop-opacity="0"
       id="stop39" />
  </linearGradient>
  <radialGradient
     id="m"
     cx="50.424522"
     cy="-81.945961"
     gradientTransform="matrix(0.01018452,0.01018452,-0.01018452,0.01018452,-0.26529246,1.6877148)"
     gradientUnits="userSpaceOnUse"
     r="50.15279">
    <stop
       offset="0"
       stop-color="#7ae91e"
       stop-opacity=".996078"
       id="stop42" />
    <stop
       offset="1"
       stop-color="#62c916"
       id="stop44" />
  </radialGradient>
  <filter
     id="n"
     height="1.024"
     width="1.024"
     x="-0.012"
     y="-0.012"
     style="color-interpolation-filters:sRGB">
    <feGaussianBlur
       stdDeviation=".28192153"
       id="feGaussianBlur47" />
  </filter>
  <linearGradient
     id="o"
     gradientUnits="userSpaceOnUse"
     x1="84.745605"
     x2="97.636749"
     xlink:href="#i"
     y1="48.278454"
     y2="110.57732"
     gradientTransform="matrix(0.03307292,0,0,0.03307292,-1.8029128,-1.869926)" />
  <linearGradient
     id="p"
     gradientUnits="userSpaceOnUse"
     spreadMethod="reflect"
     x1="88.606247"
     x2="91.575104"
     y1="13.510336"
     y2="13.510336">
    <stop
       offset="0"
       stop-color="#c8ff87"
       id="stop51" />
    <stop
       offset="1"
       stop-color="#abff87"
       stop-opacity="0"
       id="stop53" />
  </linearGradient>
  <linearGradient
     id="q"
     gradientUnits="userSpaceOnUse"
     x1="3.5718751"
     x2="3.7041669"
     xlink:href="#c"
     y1="3.96875"
     y2="2.116667" />
  <g
     id="g868"
     transform="matrix(1.4836919,0,0,1.5878854,0.03707748,0.00331243)"
     style="stroke-width:0.65150625">
    <g
       id="g63"
       style="fill:#f3b7d9;stroke:#9d3a9b;stroke-width:0.02154721;stroke-miterlimit:4;stroke-dasharray:none">
      <path
         d="m 1.5594141,3.7126893 q -0.1653724,0.2560605 -0.4374367,0.2560605 -0.27206426,0 -0.43743667,-0.261395 -0.16537241,-0.2613951 -0.16537241,-0.6721589 0,-0.386758 0.16537241,-0.6454858 Q 0.84991314,2.128315 1.1326466,2.128315 q 0.2613951,0 0.4267675,0.2560605 0.1653724,0.2560605 0.1653724,0.6668242 0,0.4054291 -0.1653724,0.6614896 z M 1.1246447,2.1976647 q -0.34941588,0 -0.34941588,0.8615369 0,0.8401985 0.34674858,0.8401985 0.3467486,0 0.3467486,-0.8428658 0,-0.4187656 -0.088021,-0.6374839 Q 1.2926844,2.1976647 1.1246447,2.1976647 Z"
         id="path57"
         style="fill:#f3b7d9;stroke:#9d3a9b;stroke-width:0.02154721;stroke-miterlimit:4;stroke-dasharray:none"
         inkscape:connector-curvature="0" />
      <path
         d="m 2.8136875,3.7126893 q -0.1653724,0.2560605 -0.4374367,0.2560605 -0.2720642,0 -0.4374367,-0.261395 -0.1653724,-0.2613951 -0.1653724,-0.6721589 0,-0.386758 0.1653724,-0.6454858 Q 2.1041866,2.128315 2.38692,2.128315 q 0.2613951,0 0.4267675,0.2560605 0.1653724,0.2560605 0.1653724,0.6668242 0,0.4054291 -0.1653724,0.6614896 z M 2.3789181,2.1976647 q -0.3494159,0 -0.3494159,0.8615369 0,0.8401985 0.3467486,0.8401985 0.3467486,0 0.3467486,-0.8428658 0,-0.4187656 -0.088021,-0.6374839 Q 2.5469578,2.1976647 2.3789181,2.1976647 Z"
         id="path59"
         style="fill:#f3b7d9;stroke:#9d3a9b;stroke-width:0.02154721;stroke-miterlimit:4;stroke-dasharray:none"
         inkscape:connector-curvature="0" />
      <path
         d="m 4.0679609,3.7126893 q -0.1653724,0.2560605 -0.4374367,0.2560605 -0.2720642,0 -0.4374366,-0.261395 -0.1653724,-0.2613951 -0.1653724,-0.6721589 0,-0.386758 0.1653724,-0.6454858 Q 3.35846,2.128315 3.6411934,2.128315 q 0.2613951,0 0.4267675,0.2560605 0.1653724,0.2560605 0.1653724,0.6668242 0,0.4054291 -0.1653724,0.6614896 z M 3.6331915,2.1976647 q -0.3494158,0 -0.3494158,0.8615369 0,0.8401985 0.3467485,0.8401985 0.3467486,0 0.3467486,-0.8428658 0,-0.4187656 -0.088021,-0.6374839 Q 3.8012312,2.1976647 3.6331915,2.1976647 Z"
         id="path61"
         style="fill:#f3b7d9;stroke:#9d3a9b;stroke-width:0.02154721;stroke-miterlimit:4;stroke-dasharray:none"
         inkscape:connector-curvature="0" />
    </g>
    <path
       d="m 4.0679611,1.8489577 q -0.1653724,0.2560605 -0.4374367,0.2560605 -0.2720643,0 -0.4374367,-0.2613951 Q 3.0277153,1.582228 3.0277153,1.1714643 q 0,-0.38675804 0.1653724,-0.64548583 0.1653724,-0.2613951 0.4481059,-0.2613951 0.2613951,0 0.4267675,0.2560605 0.1653724,0.2560605 0.1653724,0.66682423 0,0.4054291 -0.1653724,0.6614896 z M 3.6331917,0.33393309 q -0.3494159,0 -0.3494159,0.86153691 0,0.8401985 0.3467486,0.8401985 0.3467486,0 0.3467486,-0.8428658 0,-0.41876562 -0.088021,-0.63748397 Q 3.8012314,0.33393309 3.6331917,0.33393309 Z"
       id="path65"
       style="fill:#f3b7d9;stroke:#e602b4;stroke-width:0.04309442;stroke-miterlimit:4;stroke-dasharray:none"
       inkscape:connector-curvature="0" />
    <circle
       cx="0.28252083"
       cy="3.7221131"
       r="0.26458299"
       id="circle67"
       style="fill:#f3b7d9;stroke:#9d3a9b;stroke-width:0.02154721;stroke-miterlimit:4;stroke-dasharray:none" />
    <path
       style="fill:#e602b4;stroke-width:0.02154721"
       inkscape:connector-curvature="0"
       id="path69"
       d="m 0.97571773,-0.00261271 c -0.1330342,-3.87e-6 -0.24391652,0.11087872 -0.24391275,0.24391278 V 0.75425329 H 0.21891635 C 0.08599619,0.75424945 -0.0250003,0.86506755 -0.02499643,0.99810151 V 1.3493074 c -3.87e-6,0.1330338 0.11099242,0.2438523 0.24391278,0.2438483 h 0.51288863 v 0.512953 c -4e-6,0.1330342 0.11099245,0.2438523 0.24391275,0.2438483 H 1.3268591 c 0.1329204,4e-6 0.2439167,-0.1108138 0.2439128,-0.2438483 v -0.512953 h 0.5128885 c 0.1329211,4e-6 0.2439171,-0.1108141 0.2439128,-0.2438483 V 0.99810151 C 2.3275775,0.86506699 2.2165808,0.75424945 2.0836604,0.75425329 H 1.5707719 V 0.24130007 c 3.9e-6,-0.13303453 -0.1108786,-0.24391665 -0.2439128,-0.24391278 z" />
    <path
       style="fill:#1f5623;fill-opacity:0.90588199;stroke-width:0.02154721"
       inkscape:connector-curvature="0"
       id="path71"
       d="m 2.1828686,0.99813191 c 1.6e-6,-0.0547819 -0.044408,-0.0991916 -0.09919,-0.0991901 H 1.4260593 V 0.24129443 c 1.6e-6,-0.0547818 -0.044408,-0.0991916 -0.09919,-0.09919 l -0.35115977,1.7e-7 c -0.054782,-1.59e-6 -0.099192,0.0444082 -0.09919,0.0991899 V 0.89894187 H 0.21890025 c -0.0547819,-1.58e-6 -0.0991916,0.0444082 -0.0991901,0.0991901 V 1.3492917 c -1.58e-6,0.054782 0.0444082,0.099192 0.0991901,0.09919 h 0.65761928 v 0.6576192 c -1.6e-6,0.054782 0.044408,0.099192 0.09919,0.09919 H 1.3268693 c 0.054782,1.6e-6 0.099192,-0.044408 0.09919,-0.09919 V 1.4484816 h 0.6576193 c 0.054782,1.6e-6 0.099192,-0.044408 0.09919,-0.09919 z" />
    <path
       inkscape:connector-curvature="0"
       style="fill:url(#d);stroke-width:0.02154721"
       id="path73"
       d="m 2.1828686,0.99813191 c 1.6e-6,-0.0547819 -0.044408,-0.0991916 -0.09919,-0.0991901 H 1.4260593 V 0.24129443 c 1.6e-6,-0.0547818 -0.044408,-0.0991916 -0.09919,-0.09919 l -0.35115977,1.7e-7 c -0.054782,-1.59e-6 -0.099192,0.0444082 -0.09919,0.0991899 V 0.89894187 H 0.21890025 c -0.0547819,-1.58e-6 -0.0991916,0.0444082 -0.0991901,0.0991901 V 1.3492917 c -1.58e-6,0.054782 0.0444082,0.099192 0.0991901,0.09919 h 0.65761928 v 0.6576192 c -1.6e-6,0.054782 0.044408,0.099192 0.09919,0.09919 H 1.3268693 c 0.054782,1.6e-6 0.099192,-0.044408 0.09919,-0.09919 V 1.4484816 h 0.6576193 c 0.054782,1.6e-6 0.099192,-0.044408 0.09919,-0.09919 z" />
    <path
       style="fill:#f3b7d9;stroke-width:0.02154721"
       inkscape:connector-curvature="0"
       id="path75"
       d="m 2.1828686,0.99813191 c 1.6e-6,-0.0547819 -0.044408,-0.0991916 -0.09919,-0.0991901 H 1.4260593 V 0.24129443 c 1.6e-6,-0.0547818 -0.044408,-0.0991916 -0.09919,-0.09919 l -0.35115977,1.7e-7 c -0.054782,-1.59e-6 -0.099192,0.0444082 -0.09919,0.0991899 V 0.89894187 H 0.21890025 c -0.0547819,-1.58e-6 -0.0991916,0.0444082 -0.0991901,0.0991901 V 1.3492917 c -1.58e-6,0.054782 0.0444082,0.099192 0.0991901,0.09919 h 0.65761928 v 0.6576192 c -1.6e-6,0.054782 0.044408,0.099192 0.09919,0.09919 H 1.3268693 c 0.054782,1.6e-6 0.099192,-0.044408 0.09919,-0.09919 V 1.4484816 h 0.6576193 c 0.054782,1.6e-6 0.099192,-0.044408 0.09919,-0.09919 z" />
  </g>
</svg>
