<?xml version="1.0" encoding="UTF-8" standalone="no"?>
<svg
   xmlns:dc="http://purl.org/dc/elements/1.1/"
   xmlns:cc="http://creativecommons.org/ns#"
   xmlns:rdf="http://www.w3.org/1999/02/22-rdf-syntax-ns#"
   xmlns:svg="http://www.w3.org/2000/svg"
   xmlns="http://www.w3.org/2000/svg"
   xmlns:sodipodi="http://sodipodi.sourceforge.net/DTD/sodipodi-0.dtd"
   xmlns:inkscape="http://www.inkscape.org/namespaces/inkscape"
   height="24"
   viewBox="0 0 6.3499999 6.3500001"
   width="24"
   version="1.1"
   id="svg31"
   sodipodi:docname="lc_numberformatdecdecimals.svg"
   inkscape:version="0.92.4 (unknown)"
   inkscape:export-filename="/home/annisaauliarasyidah/Desktop/4_242 (aulia)/lc 222/lc_numberformatdecdecimals.png"
   inkscape:export-xdpi="96"
   inkscape:export-ydpi="96">
  <metadata
     id="metadata37">
    <rdf:RDF>
      <cc:Work
         rdf:about="">
        <dc:format>image/svg+xml</dc:format>
        <dc:type
           rdf:resource="http://purl.org/dc/dcmitype/StillImage" />
        <dc:title></dc:title>
      </cc:Work>
    </rdf:RDF>
  </metadata>
  <defs
     id="defs35" />
  <sodipodi:namedview
     pagecolor="#ffffff"
     bordercolor="#666666"
     borderopacity="1"
     objecttolerance="10"
     gridtolerance="10"
     guidetolerance="10"
     inkscape:pageopacity="0"
     inkscape:pageshadow="2"
     inkscape:window-width="1366"
     inkscape:window-height="707"
     id="namedview33"
     showgrid="true"
     inkscape:zoom="11.040948"
     inkscape:cx="-5.4362374"
     inkscape:cy="8.4685832"
     inkscape:window-x="0"
     inkscape:window-y="0"
     inkscape:window-maximized="1"
     inkscape:current-layer="svg31">
    <inkscape:grid
       type="xygrid"
       id="grid844" />
  </sodipodi:namedview>
  <linearGradient
     id="a"
     gradientUnits="userSpaceOnUse"
     x1="1.709535"
     x2="1.709535"
     y1="3.999728"
     y2="2.1766019">
    <stop
       offset="0"
       stop-color="#555"
       id="stop2" />
    <stop
       offset="1"
       id="stop4" />
  </linearGradient>
  <linearGradient
     id="b"
     gradientUnits="userSpaceOnUse"
     x1="1.924789"
     x2="1.817162"
     y1="1.059726"
     y2="-1.732044">
    <stop
       offset="0"
       stop-color="#0968ef"
       id="stop7" />
    <stop
       offset="1"
       stop-color="#aecffc"
       id="stop9" />
  </linearGradient>
  <radialGradient
     id="c"
     cx="-32"
     cy="9.6000004"
     gradientTransform="matrix(0.11920158,0.11920158,-0.59600792,0.59600792,13.024494,-1.468809)"
     gradientUnits="userSpaceOnUse"
     r="5.5999999">
    <stop
       offset="0"
       stop-color="#a50606"
       id="stop12" />
    <stop
       offset="1"
       stop-color="#f20909"
       id="stop14" />
  </radialGradient>
  <g
     id="g838"
     transform="matrix(1.5049413,0,0,1.5090954,-0.03745448,-3.0663989)"
     style="stroke-width:0.6635626">
    <g
       transform="translate(0,2.1166667)"
       style="fill:#f3b7d9;stroke:#e602b4;stroke-width:0.02194595;stroke-miterlimit:4;stroke-dasharray:none"
       id="g23">
      <path
         inkscape:connector-curvature="0"
         style="fill:#f3b7d9;stroke:#e602b4;stroke-width:0.02194595;stroke-miterlimit:4;stroke-dasharray:none"
         id="path17"
         d="m 1.5594141,3.7126893 q -0.1653724,0.2560605 -0.4374367,0.2560605 -0.27206426,0 -0.43743667,-0.261395 -0.16537241,-0.2613951 -0.16537241,-0.6721589 0,-0.386758 0.16537241,-0.6454858 Q 0.84991314,2.128315 1.1326466,2.128315 q 0.2613951,0 0.4267675,0.2560605 0.1653724,0.2560605 0.1653724,0.6668242 0,0.4054291 -0.1653724,0.6614896 z M 1.1246447,2.1976647 q -0.34941588,0 -0.34941588,0.8615369 0,0.8401985 0.34674858,0.8401985 0.3467486,0 0.3467486,-0.8428658 0,-0.4187656 -0.088021,-0.6374839 Q 1.2926844,2.1976647 1.1246447,2.1976647 Z" />
      <path
         inkscape:connector-curvature="0"
         style="fill:#f3b7d9;stroke:#e602b4;stroke-width:0.02194595;stroke-miterlimit:4;stroke-dasharray:none"
         id="path19"
         d="m 2.8136875,3.7126893 q -0.1653724,0.2560605 -0.4374367,0.2560605 -0.2720642,0 -0.4374367,-0.261395 -0.1653724,-0.2613951 -0.1653724,-0.6721589 0,-0.386758 0.1653724,-0.6454858 Q 2.1041866,2.128315 2.38692,2.128315 q 0.2613951,0 0.4267675,0.2560605 0.1653724,0.2560605 0.1653724,0.6668242 0,0.4054291 -0.1653724,0.6614896 z M 2.3789181,2.1976647 q -0.3494159,0 -0.3494159,0.8615369 0,0.8401985 0.3467486,0.8401985 0.3467486,0 0.3467486,-0.8428658 0,-0.4187656 -0.088021,-0.6374839 Q 2.5469578,2.1976647 2.3789181,2.1976647 Z" />
      <path
         inkscape:connector-curvature="0"
         style="fill:#f3b7d9;stroke:#e602b4;stroke-width:0.02194595;stroke-miterlimit:4;stroke-dasharray:none"
         id="path21"
         d="m 4.0679609,3.7126893 q -0.1653724,0.2560605 -0.4374367,0.2560605 -0.2720642,0 -0.4374366,-0.261395 -0.1653724,-0.2613951 -0.1653724,-0.6721589 0,-0.386758 0.1653724,-0.6454858 Q 3.35846,2.128315 3.6411934,2.128315 q 0.2613951,0 0.4267675,0.2560605 0.1653724,0.2560605 0.1653724,0.6668242 0,0.4054291 -0.1653724,0.6614896 z M 3.6331915,2.1976647 q -0.3494158,0 -0.3494158,0.8615369 0,0.8401985 0.3467485,0.8401985 0.3467486,0 0.3467486,-0.8428658 0,-0.4187656 -0.088021,-0.6374839 Q 3.8012312,2.1976647 3.6331915,2.1976647 Z" />
    </g>
    <path
       inkscape:connector-curvature="0"
       style="fill:#f3b7d9;stroke:#9d3a9b;stroke-width:0.02194595;stroke-miterlimit:4;stroke-dasharray:none"
       id="path25"
       d="m 1.5594141,3.9656244 q -0.1653724,0.2560605 -0.4374367,0.2560605 -0.27206426,0 -0.43743667,-0.2613951 Q 0.51916832,3.6988947 0.51916832,3.288131 q 0,-0.3867581 0.16537241,-0.6454859 Q 0.84991314,2.38125 1.1326466,2.38125 q 0.2613951,0 0.4267675,0.2560605 0.1653724,0.2560605 0.1653724,0.6668243 0,0.4054291 -0.1653724,0.6614896 z M 1.1246447,2.4505998 q -0.34941588,0 -0.34941588,0.8615369 0,0.8401985 0.34674858,0.8401985 0.3467486,0 0.3467486,-0.8428658 0,-0.4187657 -0.088021,-0.637484 Q 1.2926844,2.4505998 1.1246447,2.4505998 Z" />
    <circle
       style="fill:#f3b7d9;stroke:#e602b4;stroke-width:0.02194595;stroke-miterlimit:4;stroke-dasharray:none"
       id="circle27"
       r="0.26458299"
       cy="5.8387713"
       cx="0.3004587" />
    <path
       inkscape:connector-curvature="0"
       style="fill:#f3b7d9;stroke:#9d3a9b;stroke-width:0.0438919;stroke-miterlimit:4;stroke-dasharray:none"
       id="path29"
       d="M 3.8909085,2.1884178 3.2769535,2.8023725 2.6629987,2.1884178 2.3564495,2.4949671 2.9704043,3.1089218 2.3564495,3.7228768 2.6629987,4.0294261 3.2769535,3.4154713 3.8909085,4.0294261 4.1974577,3.7228768 3.5835029,3.1089218 4.1974577,2.4949671 Z" />
  </g>
</svg>
