<?xml version="1.0" encoding="UTF-8" standalone="no"?>
<svg
   xmlns:dc="http://purl.org/dc/elements/1.1/"
   xmlns:cc="http://creativecommons.org/ns#"
   xmlns:rdf="http://www.w3.org/1999/02/22-rdf-syntax-ns#"
   xmlns:svg="http://www.w3.org/2000/svg"
   xmlns="http://www.w3.org/2000/svg"
   xmlns:sodipodi="http://sodipodi.sourceforge.net/DTD/sodipodi-0.dtd"
   xmlns:inkscape="http://www.inkscape.org/namespaces/inkscape"
   height="24"
   viewBox="0 0 24 24"
   width="24"
   version="1.1"
   id="svg21"
   sodipodi:docname="lc_outlineformat.svg"
   inkscape:export-filename="/home/annisaauliarasyidah/Desktop/4_242 (aulia)/lc 222/lc_outlineformat.png"
   inkscape:export-xdpi="96"
   inkscape:export-ydpi="96"
   inkscape:version="0.92.4 (unknown)">
  <metadata
     id="metadata27">
    <rdf:RDF>
      <cc:Work
         rdf:about="">
        <dc:format>image/svg+xml</dc:format>
        <dc:type
           rdf:resource="http://purl.org/dc/dcmitype/StillImage" />
        <dc:title></dc:title>
      </cc:Work>
    </rdf:RDF>
  </metadata>
  <defs
     id="defs25" />
  <sodipodi:namedview
     pagecolor="#ffffff"
     bordercolor="#666666"
     borderopacity="1"
     objecttolerance="10"
     gridtolerance="10"
     guidetolerance="10"
     inkscape:pageopacity="0"
     inkscape:pageshadow="2"
     inkscape:window-width="1366"
     inkscape:window-height="707"
     id="namedview23"
     showgrid="false"
     inkscape:zoom="32.624954"
     inkscape:cx="7.9999995"
     inkscape:cy="7.9999891"
     inkscape:window-x="0"
     inkscape:window-y="0"
     inkscape:window-maximized="1"
     inkscape:current-layer="g17" />
  <linearGradient
     id="a"
     gradientTransform="matrix(1,0,-0.10381176,0.97898755,1.490717,0.645764)"
     gradientUnits="userSpaceOnUse"
     x1="20.51808"
     x2="24.544996"
     y1="23.370901"
     y2="13.207738">
    <stop
       offset="0"
       stop-color="#07a6f6"
       id="stop2" />
    <stop
       offset="1"
       stop-color="#47d7fe"
       id="stop4" />
  </linearGradient>
  <g
     style="stroke-width:0.989438"
     id="g17"
     transform="matrix(0.57008874,0,0,0.57008874,-1.162024,6.479763)">
    <g
       id="g828"
       transform="matrix(1.5,0,0,1.5,-1.0191603,-15.366257)"
       style="stroke-width:0.65962535">
      <text
         transform="matrix(1.7541129,0,0,1.7541129,2.0383213,2.6666673)"
         font-size="14.444598"
         letter-spacing="0"
         word-spacing="0"
         x="-0.06433408"
         y="6.0031309"
         id="text9"
         style="font-size:8.23470306px;font-family:sans-serif;letter-spacing:0;word-spacing:0;fill:#9d3a9b;stroke-width:0.13724507">
        <tspan
           x="-0.06433408"
           y="6.0031309"
           id="tspan7"
           style="fill:#9d3a9b;stroke-width:0.13724507">A</tspan>
      </text>
      <path
         transform="matrix(1.7541129,0,0,1.7541129,2.0383213,2.6666673)"
         style="fill:#9d3a9b;stroke-width:0.34969628"
         d="M 10.239751,-5.1263096e-7 H 11.45665 L 1.8995275,15.202366 H 0.68262862 Z"
         id="path11"
         inkscape:connector-curvature="0" />
      <path
         d="M 23.273558,7.9290051 C 22.788619,7.9292903 22.320345,8.194067 22.06262,8.5924985 L 9.0450429,28.713369 c -1.2e-6,6.53e-4 -1.2e-6,0.0013 0,0.002 -0.2433026,0.37807 -0.2930809,0.88182 -0.085937,1.288745 0.2071434,0.406925 0.6674476,0.671977 1.1269521,0.673054 h 0.002 l 4.678239,0.05534 c 0.505771,0.0013 0.992344,-0.287478 1.24414,-0.713208 l 1.798828,-3.045951 5.620429,-0.05534 0.06445,2.560282 c 0.01716,0.631753 0.617226,1.197931 1.261719,1.198878 l 3.916681,0.05534 c 0.785068,0.0012 1.490096,-0.730782 1.427734,-1.499075 L 28.436172,9.1124771 C 28.385331,8.5041808 27.798031,7.9835095 27.176406,7.9843469 Z m -0.335947,9.7725529 0.329928,2.845299 -1.704412,0.05534 z"
         id="path13"
         inkscape:connector-curvature="0"
         style="fill:#e602b4;fill-opacity:0.77254896;stroke-width:0.65962535" />
      <path
         d="M 23.423828,9.6816406 10.966797,28.9375 l 3.640625,0.04297 2.089844,-3.541016 a 0.43535872,0.43535872 0 0 1 0.371093,-0.214844 l 7.671875,-0.05664 a 0.43535872,0.43535872 0 0 1 0.439454,0.423828 l 0.08398,3.341797 3.019531,0.04297 -1.591797,-19.2480464 z m 0.765625,2.9296874 a 0.43535872,0.43535872 0 0 1 0.419922,0.41211 l 0.472656,8.8125 a 0.43535872,0.43535872 0 0 1 -0.43164,0.458984 l -5.371094,0.05469 a 0.43535872,0.43535872 0 0 1 -0.384766,-0.646484 l 4.898438,-8.867187 a 0.43535872,0.43535872 0 0 1 0.396484,-0.22461 z"
         id="path15"
         style="fill:#f3b7d9;stroke-width:0.65962535"
         inkscape:connector-curvature="0" />
    </g>
  </g>
</svg>
