<?xml version="1.0" encoding="UTF-8" standalone="no"?>
<svg
   xmlns:dc="http://purl.org/dc/elements/1.1/"
   xmlns:cc="http://creativecommons.org/ns#"
   xmlns:rdf="http://www.w3.org/1999/02/22-rdf-syntax-ns#"
   xmlns:svg="http://www.w3.org/2000/svg"
   xmlns="http://www.w3.org/2000/svg"
   xmlns:sodipodi="http://sodipodi.sourceforge.net/DTD/sodipodi-0.dtd"
   xmlns:inkscape="http://www.inkscape.org/namespaces/inkscape"
   height="24"
   viewBox="0 0 6.3499999 6.3500002"
   width="24"
   version="1.1"
   id="svg20"
   sodipodi:docname="lc_overline.svg"
   inkscape:version="0.92.4 (unknown)"
   inkscape:export-filename="/home/annisaauliarasyidah/Desktop/4_242 (aulia)/lc 222/lc_overline.png"
   inkscape:export-xdpi="96"
   inkscape:export-ydpi="96">
  <metadata
     id="metadata26">
    <rdf:RDF>
      <cc:Work
         rdf:about="">
        <dc:format>image/svg+xml</dc:format>
        <dc:type
           rdf:resource="http://purl.org/dc/dcmitype/StillImage" />
        <dc:title></dc:title>
      </cc:Work>
    </rdf:RDF>
  </metadata>
  <defs
     id="defs24" />
  <sodipodi:namedview
     pagecolor="#ffffff"
     bordercolor="#666666"
     borderopacity="1"
     objecttolerance="10"
     gridtolerance="10"
     guidetolerance="10"
     inkscape:pageopacity="0"
     inkscape:pageshadow="2"
     inkscape:window-width="1366"
     inkscape:window-height="707"
     id="namedview22"
     showgrid="true"
     inkscape:zoom="15.614258"
     inkscape:cx="1.7827411"
     inkscape:cy="7.4576271"
     inkscape:window-x="0"
     inkscape:window-y="0"
     inkscape:window-maximized="1"
     inkscape:current-layer="svg20">
    <inkscape:grid
       type="xygrid"
       id="grid827" />
  </sodipodi:namedview>
  <linearGradient
     id="a"
     gradientTransform="matrix(0.26458334,0,0,-0.26458334,0,33.866667)"
     gradientUnits="userSpaceOnUse"
     x1="30.087261"
     x2="113.04102"
     y1="-7.0787191"
     y2="40.378906">
    <stop
       offset="0"
       stop-color="#3b3e22"
       id="stop2" />
    <stop
       offset="1"
       stop-color="#454545"
       stop-opacity="0"
       id="stop4" />
  </linearGradient>
  <linearGradient
     id="b"
     gradientUnits="userSpaceOnUse"
     x1="15.090875"
     x2="16.247894"
     y1="-5.90973"
     y2="-32.521187">
    <stop
       offset="0"
       stop-color="#555"
       id="stop7" />
    <stop
       offset="1"
       id="stop9" />
  </linearGradient>
  <g
     id="g825"
     transform="matrix(1.4999998,0,0,1.4994646,-1.1539334e-7,0.13370908)"
     style="stroke-width:0.66678572">
    <rect
       style="fill:#9d3a9b;stroke-width:0.17642015"
       id="rect12"
       y="-2.116667"
       x="2e-06"
       width="33.866669"
       transform="scale(0.125,-0.125)"
       ry="0.60722399"
       rx="0.47207499"
       height="2.116667" />
    <g
       style="fill:#9d3a9b;stroke-width:0.66678572"
       id="g18"
       transform="matrix(0.125,0,0,-0.125,0,4.631028)">
      <path
         style="fill:#9d3a9b;stroke-width:0.64147985"
         id="path14"
         transform="scale(1.0554341,-0.94747743)"
         d="m 16.065669,-5.5799648 q -5.466918,0 -9.2330171,-3.8470905 -3.7660991,-3.8875857 -3.7660991,-10.1239227 0,-6.114849 3.7256034,-10.042931 3.7256038,-3.928081 9.5164868,-3.928081 5.831379,0 9.516487,3.928081 3.725604,3.887587 3.725604,10.204914 0,6.114849 -3.766099,9.9619397 -3.725604,3.8470905 -9.718966,3.8470905 z m 8.868556,-13.8495262 q 0,-2.915689 -0.56694,-5.183448 -0.566939,-2.267758 -1.457844,-3.644612 -0.85041,-1.376853 -2.024785,-2.267758 -1.174375,-0.890906 -2.308254,-1.214871 -1.093384,-0.323966 -2.267759,-0.323966 -1.984289,0 -3.56362,0.85041 -1.579332,0.850409 -2.510733,2.146271 -0.8909054,1.255367 -1.4983407,2.996681 -0.6074353,1.741315 -0.8504095,3.361143 -0.2024784,1.579331 -0.2024784,3.239655 0,2.06528 0.4049569,4.049569 0.4049569,1.984288 1.295862,3.968577 0.8909047,1.984289 2.6322197,3.1991597 1.78181,1.2148707 4.211552,1.2148707 2.470237,0 4.252047,-1.2148707 1.822306,-1.2148707 2.713211,-3.1991597 0.931401,-1.984289 1.336358,-3.968577 0.404957,-1.984289 0.404957,-4.009074 z"
         inkscape:connector-curvature="0" />
      <path
         style="fill:#9d3a9b;stroke-width:0.66678572"
         id="path16"
         d="m 19.958472,31.177942 c 0.0022,-5.82e-4 0.0039,-0.003 0.0062,-0.0036 0.0013,-3.44e-4 0.0028,3.44e-4 0.0041,0 z m -8.746753,-1.8526 C 10.088423,28.791956 9.0354134,28.137023 8.0971805,27.248983 5.7037752,24.983619 4.5165204,22.152936 4.5165202,18.523934 c 2e-7,-1.012559 0.09296,-1.958992 0.2723348,-2.848405 A 21.346045,9.4711858 0 0 1 7.1204957,15.18822 c -0.1928315,1.071046 -0.2909382,2.158326 -0.2909382,3.259749 0,1.094535 0.072951,2.165528 0.2227254,3.214275 a 1.2796095,1.1487227 0 0 0 0.00362,0.02429 c 0.1843167,1.10309 0.5061961,2.233129 0.9565307,3.392041 0.459818,1.183317 1.0366266,2.229944 1.7461466,3.127458 a 1.2796095,1.1487227 0 0 0 0.00413,0.0052 c 0.3656628,0.45671 0.9708658,0.737004 1.4490068,1.114144 z m 12.199772,-0.08682 c 0.671651,-0.555364 1.339841,-1.117762 1.846916,-1.8526 0.730789,-1.016738 1.279596,-2.273799 1.700672,-3.785815 0.430276,-1.545064 0.636654,-3.274961 0.636654,-5.190898 0,-0.720184 -0.04378,-1.437322 -0.129191,-2.150773 a 21.346045,9.4711858 0 0 1 2.391069,0.866097 c 0.03319,0.404257 0.05116,0.819027 0.05116,1.245919 0,3.764382 -1.19456,6.643615 -3.576527,8.87491 a 1.2796095,1.1487227 0 0 0 -0.01033,0.0072 c -0.8762,0.838439 -1.861621,1.46405 -2.910417,1.985925 z"
         inkscape:connector-curvature="0" />
    </g>
  </g>
</svg>
