<?xml version="1.0" encoding="UTF-8" standalone="no"?>
<svg
   xmlns:dc="http://purl.org/dc/elements/1.1/"
   xmlns:cc="http://creativecommons.org/ns#"
   xmlns:rdf="http://www.w3.org/1999/02/22-rdf-syntax-ns#"
   xmlns:svg="http://www.w3.org/2000/svg"
   xmlns="http://www.w3.org/2000/svg"
   xmlns:sodipodi="http://sodipodi.sourceforge.net/DTD/sodipodi-0.dtd"
   xmlns:inkscape="http://www.inkscape.org/namespaces/inkscape"
   height="24"
   width="24"
   version="1.1"
   id="svg130"
   sodipodi:docname="lc_pasteonlytext.svg"
   inkscape:version="0.92.4 (unknown)"
   inkscape:export-filename="/home/annisaauliarasyidah/Desktop/4_242 (aulia)/lc 222/lc_pasteonlytext.png"
   inkscape:export-xdpi="96"
   inkscape:export-ydpi="96">
  <metadata
     id="metadata136">
    <rdf:RDF>
      <cc:Work
         rdf:about="">
        <dc:format>image/svg+xml</dc:format>
        <dc:type
           rdf:resource="http://purl.org/dc/dcmitype/StillImage" />
        <dc:title></dc:title>
      </cc:Work>
    </rdf:RDF>
  </metadata>
  <defs
     id="defs134" />
  <sodipodi:namedview
     pagecolor="#ffffff"
     bordercolor="#666666"
     borderopacity="1"
     objecttolerance="10"
     gridtolerance="10"
     guidetolerance="10"
     inkscape:pageopacity="0"
     inkscape:pageshadow="2"
     inkscape:window-width="1366"
     inkscape:window-height="707"
     id="namedview132"
     showgrid="true"
     inkscape:zoom="15.614258"
     inkscape:cx="-5.4362374"
     inkscape:cy="8"
     inkscape:window-x="0"
     inkscape:window-y="0"
     inkscape:window-maximized="1"
     inkscape:current-layer="svg130"
     inkscape:snap-global="false">
    <inkscape:grid
       type="xygrid"
       id="grid987" />
  </sodipodi:namedview>
  <linearGradient
     id="a"
     gradientUnits="userSpaceOnUse"
     x1="112"
     x2="87.003235"
     y1="112"
     y2="92.992432"
     gradientTransform="scale(0.125)">
    <stop
       offset="0"
       stop-color="#8c8c8c"
       id="stop2" />
    <stop
       offset=".25"
       stop-color="#a8a8a8"
       id="stop4" />
    <stop
       offset=".5"
       stop-color="#c5c5c5"
       id="stop6" />
    <stop
       offset=".75"
       stop-color="#e2e2e2"
       id="stop8" />
    <stop
       offset="1"
       stop-color="#fff"
       id="stop10" />
  </linearGradient>
  <linearGradient
     id="b"
     gradientTransform="matrix(0.11478468,0,0,0.18752649,0.8609315,-1.861014)"
     gradientUnits="userSpaceOnUse"
     x1="80.523918"
     x2="80.523918"
     y1="15.676145"
     y2="32.142143">
    <stop
       offset="0"
       stop-color="#fff"
       id="stop13" />
    <stop
       offset=".50551778"
       stop-color="#8b8b8b"
       id="stop15" />
    <stop
       offset=".50551778"
       stop-color="#a5a5a5"
       id="stop17" />
    <stop
       offset=".65644157"
       stop-color="#f4f4f4"
       id="stop19" />
    <stop
       offset=".80480587"
       stop-color="#bbb"
       id="stop21" />
    <stop
       offset="1"
       stop-color="#b1b1b1"
       id="stop23" />
  </linearGradient>
  <filter
     id="c"
     height="1.227488"
     width="1.075829"
     x="-0.037914999"
     y="-0.113744">
    <feGaussianBlur
       stdDeviation=".75827487"
       id="feGaussianBlur26" />
  </filter>
  <radialGradient
     id="d"
     cx="61.331802"
     cy="49.168488"
     gradientTransform="matrix(0.17435024,0,0,0.24014464,-3.5267387,-10.640524)"
     gradientUnits="userSpaceOnUse"
     r="50.665401">
    <stop
       offset="0"
       id="stop29" />
    <stop
       offset=".43397453"
       stop-color="#171717"
       id="stop31" />
    <stop
       offset=".66038471"
       stop-color="#424242"
       id="stop33" />
    <stop
       offset=".75739998"
       stop-color="#292929"
       id="stop35" />
    <stop
       offset="1"
       stop-color="#1c1c1c"
       id="stop37" />
  </radialGradient>
  <radialGradient
     id="e"
     cx="61.331802"
     cy="66.66819"
     gradientTransform="matrix(0.2072688,0,0,0.47427403,-5.2914391,-24.080916)"
     gradientUnits="userSpaceOnUse"
     r="50.665401">
    <stop
       offset="0"
       stop-color="#878787"
       id="stop40" />
    <stop
       offset=".35530001"
       stop-color="#646464"
       id="stop42" />
    <stop
       offset=".61940002"
       stop-color="#2d2d2d"
       id="stop44" />
    <stop
       offset=".75739998"
       stop-color="#232323"
       id="stop46" />
    <stop
       offset="1"
       stop-color="#1f1f1f"
       id="stop48" />
  </radialGradient>
  <linearGradient
     id="f"
     gradientUnits="userSpaceOnUse"
     x1="78.204185"
     x2="78.204185"
     y1="114.27974"
     y2="59.956783"
     gradientTransform="scale(0.125)">
    <stop
       offset="0"
       stop-color="#343434"
       id="stop51" />
    <stop
       offset="1"
       stop-opacity="0"
       id="stop53" />
  </linearGradient>
  <radialGradient
     id="g"
     cx="106.664"
     cy="117.3336"
     fy="121.10474"
     gradientTransform="matrix(0.50000015,-0.5000004,0.70710696,0.70710661,-29.635422,87.698281)"
     gradientUnits="userSpaceOnUse"
     r="5.3332">
    <stop
       offset="0"
       stop-color="#eefcff"
       id="stop56" />
    <stop
       offset="1"
       stop-color="#eefcff"
       stop-opacity="0"
       id="stop58" />
  </radialGradient>
  <filter
     id="h">
    <feGaussianBlur
       stdDeviation=".20220663"
       id="feGaussianBlur61" />
  </filter>
  <radialGradient
     id="i"
     cx="91.455429"
     cy="103.26143"
     gradientTransform="matrix(0.30324275,0,0,0.31447578,-16.801268,-20.235832)"
     gradientUnits="userSpaceOnUse"
     r="37.361931">
    <stop
       offset="0"
       stop-color="#ededed"
       id="stop64" />
    <stop
       offset=".25000003"
       stop-color="#fff"
       id="stop66" />
    <stop
       offset=".5"
       stop-color="#f6f6f6"
       id="stop68" />
    <stop
       offset="1"
       stop-color="#eee"
       id="stop70" />
  </radialGradient>
  <filter
     id="j">
    <feGaussianBlur
       stdDeviation="2.1720601"
       id="feGaussianBlur73" />
  </filter>
  <linearGradient
     id="k"
     gradientTransform="matrix(0.14955599,0,0,-0.23182204,-1.166564,4.4678124)"
     gradientUnits="userSpaceOnUse"
     x1="74.664803"
     x2="74.664803"
     y1="18.669399"
     y2="8.0030003">
    <stop
       offset="0"
       stop-color="#fff"
       id="stop76" />
    <stop
       offset="1"
       stop-color="#555"
       id="stop78" />
  </linearGradient>
  <filter
     id="l"
     height="1.232813"
     width="1.128976"
     x="-0.064488001"
     y="-0.116406">
    <feGaussianBlur
       stdDeviation=".80190058"
       id="feGaussianBlur81" />
  </filter>
  <g
     id="g885"
     transform="matrix(1.485927,0,0,1.5333333,-0.48541591,0.50000025)"
     style="stroke-width:0.66249555">
    <g
       id="g919"
       style="stroke-width:0.66249555">
      <path
         inkscape:connector-curvature="0"
         style="fill:#9d3a9b;stroke-width:0.08281194"
         id="path168"
         d="M 2,1 C 1.4460139,1 1,1.4460139 1,2 v 12 0.332031 C 1,14.701355 1.2986446,15 1.6679687,15 H 2 12 12.332031 C 12.701355,15 13,14.701355 13,14.332031 V 14 2 C 13,1.4460139 12.553986,1 12,1 Z" />
      <g
         id="g1067"
         style="stroke-width:0.66249555">
        <path
           d="M 3.9931803,0.99957625 H 9.9619836 V 3.9999999 H 3.9931803 Z"
           id="path188"
           style="fill:#e602b4;stroke-width:0.08281194"
           inkscape:connector-curvature="0" />
        <path
           d="M 5.0119439,2.472707 H 8.9999994 V 0 H 5.0119439 Z"
           id="path190"
           style="fill:#f3b7d9;stroke-width:0.08281194"
           inkscape:connector-curvature="0" />
        <path
           d="M 6,0 H 8 V 1 H 6 Z"
           id="path210"
           inkscape:connector-curvature="0"
           style="opacity:1;fill:#f0e3ec;fill-rule:evenodd;stroke-width:0.08281194" />
      </g>
      <path
         sodipodi:nodetypes="ccscscc"
         inkscape:connector-curvature="0"
         style="fill:#f0e3ec;stroke-width:0.08281194"
         id="path182"
         d="m 3,3 h 8 v 8 c 0,0.678389 -0.0066,1.640506 -0.101695,1.90678 C 10.737372,13.023565 10.66692,13 10,13 H 3 Z" />
    </g>
    <path
       style="opacity:0.51381202;fill:#f0e3ec;fill-rule:evenodd;stroke:#e602b4;stroke-width:0.08281194"
       inkscape:connector-curvature="0"
       id="path110"
       d="m 6.0512112,1.1472212 h 2.0000001 v 1 H 6.0512112 Z" />
    <path
       inkscape:connector-curvature="0"
       id="path116"
       d="M 8.7406644,6.4180322 A 0.84360494,0.84360494 0 0 0 8.4652738,6.4695459 C 8.1277165,6.5936478 7.7639795,6.7045469 7.373721,6.8008447 A 0.84360494,0.84360494 0 0 0 6.7323636,7.6196924 V 7.7498193 A 0.84360494,0.84360494 0 0 0 7.2697171,8.535708 V 8.818667 C 6.8793056,8.3788343 6.3046196,8.233462 5.7536039,8.233462 c -0.5155695,0 -1.0244465,0.1279152 -1.4465333,0.411621 -0.4187122,0.2798572 -0.7646483,0.8028206 -0.7646483,1.3439942 -2e-7,0.2935068 0.1435327,0.6057448 0.3315428,0.8083498 -0.055549,0.06821 -0.1107026,0.141642 -0.1665038,0.218994 -0.1208008,0.157797 -0.2108537,0.345463 -0.2597657,0.537842 -0.042087,0.160822 -0.060059,0.321377 -0.060059,0.478515 0,0.428525 0.1626804,0.891966 0.4731445,1.213135 a 0.84360494,0.84360494 0 0 0 0.01001,0.01025 c 0.315536,0.315536 0.7825495,0.491208 1.215332,0.491211 0.3378002,-3e-6 0.6391507,-0.08703 0.9248046,-0.231445 0.2469185,0.164994 0.541407,0.231445 0.7849122,0.231445 0.2476623,0 0.5124022,-0.05277 0.7512207,-0.178466 a 0.84360494,0.84360494 0 0 0 0.013672,-0.0073 c 0.1180615,-0.06493 0.2171059,-0.137957 0.3093261,-0.21704 0.114285,0.07051 0.2291334,0.129662 0.350586,0.17871 a 0.84360494,0.84360494 0 0 0 0.018066,0.0071 c 0.3861257,0.145709 0.7986078,0.217041 1.2180176,0.217041 0.7436967,0 1.4673397,-0.318116 1.9709467,-0.865722 0.01712,-0.01843 0.02883,-0.04072 0.04541,-0.05957 0.02897,0.03894 0.05065,0.08257 0.08203,0.119872 a 0.84360494,0.84360494 0 0 0 0.0095,0.01099 c 0.433661,0.497906 1.090815,0.794432 1.751465,0.794434 0.289468,0 0.580212,-0.05944 0.847167,-0.171387 a 0.84360494,0.84360494 0 0 0 0.021,-0.009 c 0.219385,-0.09908 0.420259,-0.213598 0.603517,-0.36792 0.167975,-0.14145 0.310188,-0.304386 0.442382,-0.484619 0.113749,-0.148014 0.198728,-0.261853 0.280517,-0.412109 0.05515,-0.09205 0.108137,-0.188193 0.163819,-0.299561 a 0.84360494,0.84360494 0 0 0 -0.298583,-1.086914 l -0.114014,-0.07324 a 0.84360494,0.84360494 0 0 0 -0.04736,-0.0271 c 0.0079,-0.0064 0.01895,-0.0086 0.02661,-0.01514 a 0.84360494,0.84360494 0 0 0 0.0249,-0.02222 c 0.209925,-0.194927 0.383545,-0.538339 0.383545,-0.8623048 0,-0.531119 -0.350586,-1.0214728 -0.74707,-1.284668 -0.394379,-0.2693096 -0.872785,-0.397705 -1.350343,-0.397705 -0.694995,0 -1.370396,0.30627 -1.85913,0.8098144 a 0.84360494,0.84360494 0 0 0 -0.0046,0.00464 c -0.01922,0.020107 -0.03181,0.045001 -0.05029,0.065674 -0.01304,-0.016839 -0.02214,-0.036212 -0.03564,-0.052734 -0.399254,-0.4996975 -1.032281,-0.8273925 -1.6735839,-0.8273925 -0.097039,0 -0.1918666,0.027034 -0.28833,0.040283 V 7.2776526 A 0.84360494,0.84360494 0 0 0 9.1110307,6.4946937 L 9.0702592,6.4783362 A 0.84360494,0.84360494 0 0 0 8.7406694,6.4180334 Z m -1.4807129,1.71167 c 0.00433,-0.00115 0.00977,0.00805 0.00977,0.027344 v 0.024902 c -0.00816,-0.028093 -0.014698,-0.050941 -0.00977,-0.052246 z m 0.4543457,0.4555664 c 0.036199,0 0.017233,0.018707 -0.041748,0.00195 a 0.84360494,0.84360494 0 0 0 0.012207,-9.75e-4 c 1.625e-4,-2.18e-5 0.010609,-9.75e-4 0.029541,-9.75e-4 z m -0.380127,0.2924805 0.00635,0.0083 c -8.5e-4,-0.0011 -0.00208,-0.00159 -0.00293,-0.00269 -0.0014,-0.00178 -0.00201,-0.00384 -0.00342,-0.00561 z m -1.4316406,0.7961425 7.375e-4,0.00391 c -2e-6,1.004e-4 -2.375e-4,1.5e-4 -2.5e-4,2.5e-4 -2.5e-4,-0.00115 -2.375e-4,-0.00297 -4.875e-4,-0.00415 z M 4.5714749,10.262026 c -0.011764,0.0069 -0.02703,0.01746 -0.039063,0.02466 -0.00129,8.5e-4 -0.00262,0.0011 -0.00391,0.002 z m 8.7380381,0.07764 c 0.0631,0.146407 0.143935,0.292325 0.281493,0.427002 0.142161,0.139182 0.340959,0.223969 0.542725,0.276611 a 0.84360494,0.84360494 0 0 0 -0.02124,0.02881 c -0.161119,0.232728 -0.299085,0.358533 -0.325195,0.376221 -0.01815,0.0123 -0.03309,0.02588 -0.129394,0.02588 -0.140602,0 -0.155613,-0.0058 -0.25,-0.12085 -0.100265,-0.130025 -0.168457,-0.300528 -0.168457,-0.623291 0,-0.193631 0.03116,-0.303863 0.07007,-0.390381 z m -3.6689462,0.135742 c 0.00257,0.0045 -0.00101,9.13e-4 0.0022,0.0061 a 0.84360494,0.84360494 0 0 0 0.00977,0.01514 c 0.07247,0.111811 0.149414,0.336313 0.149414,0.721924 0,0.335328 -0.071108,0.494083 -0.1115723,0.548828 -0.018662,0.02525 -0.045749,0.01366 -0.049805,0.01563 z"
       style="fill:#f0e3ec;stroke:#e602b4;stroke-width:0.08281194" />
    <g
       transform="matrix(0.125,0,0,0.125,-0.95207728,0.99348128)"
       id="g126"
       style="fill:#9d3a9b;stroke-width:1.07883239">
      <path
         style="fill:#9d3a9b;stroke-width:1.07883239"
         d="m 41.439334,88.20238 q 0,-1.172475 0.26055,-2.149537 0.26055,-1.042199 0.911925,-1.888986 0.651375,-0.911925 1.237612,-1.628437 0.586237,-0.716512 1.758711,-1.433024 1.172475,-0.78165 1.954124,-1.237612 0.78165,-0.5211 2.344949,-1.172475 1.628437,-0.716512 2.475224,-1.042199 0.846787,-0.390825 2.670636,-1.107337 1.823849,-0.716512 2.670636,-1.042199 v -3.973386 q 0,-5.40641 -4.950447,-5.40641 -1.954124,0 -3.322011,0.977062 -1.367887,0.911925 -1.367887,2.214674 0,0.5211 0.130275,1.433025 0.195412,0.911924 0.195412,1.172474 0,1.107337 -0.911924,1.954124 -0.846787,0.78165 -2.019262,0.78165 -1.107337,0 -1.954124,-0.846788 -0.846787,-0.846787 -0.846787,-1.954124 0,-3.06146 3.126599,-5.145859 3.191736,-2.149537 7.816496,-2.149537 5.341272,0 7.360533,2.605499 2.019262,2.540361 2.019262,7.816496 V 87.68128 q 0,2.149536 0.390825,2.996323 0.455962,0.78165 1.563299,0.78165 1.367887,0 2.866048,-1.237612 v 1.693574 q -1.693574,1.888987 -2.996323,2.605499 -1.237612,0.651374 -2.866049,0.651374 -2.019261,0 -2.996323,-1.107336 -0.911925,-1.107337 -1.172474,-3.647699 -5.601823,4.755035 -9.510071,4.755035 -2.996323,0 -4.950447,-1.954124 -1.888987,-1.954124 -1.888987,-5.015584 z m 16.284367,-1.693575 v -9.444932 q -5.862372,2.149536 -8.207321,4.168798 -2.344948,2.019261 -2.344948,4.88531 0,2.670636 1.302749,3.973385 1.302749,1.302749 2.800911,1.302749 2.214674,0 4.755035,-1.498161 1.042199,-0.586238 1.367887,-1.237612 0.325687,-0.651375 0.325687,-2.149537 z"
         id="path120"
         inkscape:connector-curvature="0" />
      <path
         style="fill:#9d3a9b;stroke-width:1.07883239"
         d="m 77.967205,50.162099 v 19.932065 q 0.977062,-2.410086 3.517423,-3.973386 2.540361,-1.563299 5.536684,-1.563299 4.88531,0 8.142184,4.103661 3.32201,4.038523 3.32201,10.031169 0,6.969709 -4.429347,11.724744 -4.364211,4.755035 -10.81282,4.755035 -3.908248,0 -7.360533,-1.302749 -3.387149,-1.367887 -3.387149,-2.866048 V 57.196946 q 0,-2.019262 -0.651374,-2.670637 -0.586238,-0.651374 -2.540362,-0.651374 -0.716512,0 -1.107336,0.06514 v -1.042199 q 5.015584,-1.237612 9.444932,-2.866049 z m 0,23.384351 v 16.414641 q 0,1.237612 1.888986,2.214674 1.888987,0.911925 4.429348,0.911925 4.038523,0 6.253197,-2.996324 2.214673,-2.996323 2.214673,-8.402733 0,-5.92751 -2.279811,-9.444933 -2.214674,-3.58256 -6.057784,-3.58256 -2.540362,0 -4.494485,1.498161 -1.954124,1.498162 -1.954124,3.387149 z"
         id="path122"
         inkscape:connector-curvature="0" />
      <path
         style="fill:#9d3a9b;stroke-width:1.07883239"
         d="m 101.74238,80.646433 q 0,-7.230258 4.23394,-11.659606 4.29907,-4.429348 10.03117,-4.429348 4.10366,0 7.03484,2.019262 2.99633,1.954124 2.99633,4.689897 0,1.107337 -0.91193,1.954124 -0.91192,0.78165 -2.21467,0.78165 -2.21468,0 -3.06146,-2.996324 l -0.39083,-1.433024 q -0.5211,-1.823849 -1.30275,-2.475224 -0.78165,-0.651374 -2.54036,-0.651374 -3.97338,0 -6.44861,3.191736 -2.41008,3.126598 -2.41008,8.142183 0,5.601822 2.80091,9.184383 2.86605,3.517423 7.29539,3.517423 2.80091,0 4.82018,-1.367887 2.01926,-1.367887 4.36421,-4.755035 l 0.91192,0.586237 q -0.65137,1.30275 -1.17247,2.149537 -0.45597,0.846787 -1.75871,2.540361 -1.23762,1.693574 -2.47523,2.735773 -1.23761,1.0422 -3.25687,1.954124 -2.01926,0.846787 -4.1688,0.846787 -5.40641,0 -8.92383,-4.038522 -3.45229,-4.103661 -3.45229,-10.487133 z"
         id="path124"
         inkscape:connector-curvature="0" />
    </g>
  </g>
</svg>
