<?xml version="1.0" encoding="UTF-8" standalone="no"?>
<svg
   xmlns:dc="http://purl.org/dc/elements/1.1/"
   xmlns:cc="http://creativecommons.org/ns#"
   xmlns:rdf="http://www.w3.org/1999/02/22-rdf-syntax-ns#"
   xmlns:svg="http://www.w3.org/2000/svg"
   xmlns="http://www.w3.org/2000/svg"
   xmlns:xlink="http://www.w3.org/1999/xlink"
   xmlns:sodipodi="http://sodipodi.sourceforge.net/DTD/sodipodi-0.dtd"
   xmlns:inkscape="http://www.inkscape.org/namespaces/inkscape"
   height="24"
   width="24"
   version="1.1"
   id="svg134"
   sodipodi:docname="lc_reload.svg"
   inkscape:version="0.92.4 (unknown)"
   inkscape:export-filename="/home/annisaauliarasyidah/Desktop/4_242 (aulia)/lc 222/lc_reload.png"
   inkscape:export-xdpi="96"
   inkscape:export-ydpi="96">
  <metadata
     id="metadata140">
    <rdf:RDF>
      <cc:Work
         rdf:about="">
        <dc:format>image/svg+xml</dc:format>
        <dc:type
           rdf:resource="http://purl.org/dc/dcmitype/StillImage" />
        <dc:title></dc:title>
      </cc:Work>
    </rdf:RDF>
  </metadata>
  <defs
     id="defs138" />
  <sodipodi:namedview
     pagecolor="#ffffff"
     bordercolor="#666666"
     borderopacity="1"
     objecttolerance="10"
     gridtolerance="10"
     guidetolerance="10"
     inkscape:pageopacity="0"
     inkscape:pageshadow="2"
     inkscape:window-width="1366"
     inkscape:window-height="707"
     id="namedview136"
     showgrid="true"
     inkscape:zoom="15.558174"
     inkscape:cx="-2.0365233"
     inkscape:cy="8"
     inkscape:window-x="0"
     inkscape:window-y="0"
     inkscape:window-maximized="1"
     inkscape:current-layer="g132">
    <inkscape:grid
       type="xygrid"
       id="grid947" />
  </sodipodi:namedview>
  <radialGradient
     id="a"
     cx="99.726295"
     cy="27.418272"
     fx="64.689766"
     fy="68.231934"
     gradientTransform="matrix(0.69373504,0.05867128,-0.03624296,0.42853888,33.939388,26.881188)"
     gradientUnits="userSpaceOnUse"
     r="56">
    <stop
       offset="0"
       stop-color="#00f"
       id="stop2" />
    <stop
       offset="1"
       stop-color="#00004d"
       stop-opacity="0"
       id="stop4" />
  </radialGradient>
  <radialGradient
     id="b"
     cx="64.088867"
     cy="7.4108429"
     gradientTransform="matrix(0.30938692,0,0,0.47792474,40.026738,3.0946249)"
     gradientUnits="userSpaceOnUse"
     r="59.995121"
     xlink:href="#h" />
  <filter
     id="c">
    <feGaussianBlur
       stdDeviation=".89883985"
       id="feGaussianBlur8" />
  </filter>
  <linearGradient
     id="d"
     gradientUnits="userSpaceOnUse"
     x1="75.09375"
     x2="75.09375"
     y1="4.531702"
     y2="80.172485">
    <stop
       offset="0"
       stop-color="#bfbfff"
       id="stop11" />
    <stop
       offset="1"
       stop-color="#bfbfff"
       stop-opacity="0"
       id="stop13" />
  </linearGradient>
  <radialGradient
     id="e"
     cx="46.25367"
     cy="86.72467"
     fx="46.253662"
     gradientTransform="matrix(-2.4e-7,1.1093034,-1.0633726,-1.4e-7,156.30951,-2.406118)"
     gradientUnits="userSpaceOnUse"
     r="59.995121"
     xlink:href="#f" />
  <linearGradient
     id="f">
    <stop
       offset="0"
       id="stop17" />
    <stop
       offset="1"
       stop-opacity="0"
       id="stop19" />
  </linearGradient>
  <radialGradient
     id="g"
     cx="-10.165252"
     cy="66.906013"
     gradientTransform="matrix(0.45828928,0,0,1.0000813,20.447953,-0.005199)"
     gradientUnits="userSpaceOnUse"
     r="59.995121"
     xlink:href="#f" />
  <linearGradient
     id="h">
    <stop
       offset="0"
       stop-color="#fff"
       id="stop23" />
    <stop
       offset="1"
       stop-color="#fff"
       stop-opacity="0"
       id="stop25" />
  </linearGradient>
  <linearGradient
     id="i"
     gradientTransform="matrix(0.9792,0,0,0.9725,133.0002,20.8762)"
     gradientUnits="userSpaceOnUse"
     x1="64.088867"
     x2="64.088867"
     y1="9.6794214"
     y2="123.90625">
    <stop
       offset="0"
       stop-color="#00008c"
       id="stop28" />
    <stop
       offset=".3553"
       stop-color="#1c1cac"
       id="stop30" />
    <stop
       offset=".6194"
       stop-color="#080895"
       id="stop32" />
    <stop
       offset=".7574"
       stop-color="#00008c"
       id="stop34" />
    <stop
       offset="1"
       stop-color="#00004d"
       id="stop36" />
  </linearGradient>
  <radialGradient
     id="j"
     cx="67.09375"
     cy="116.90626"
     gradientUnits="userSpaceOnUse"
     r="71.590965">
    <stop
       offset="0"
       stop-color="#5757ff"
       id="stop39" />
    <stop
       offset=".3553"
       stop-color="#223fd1"
       id="stop41" />
    <stop
       offset=".6194"
       stop-color="#0f1af2"
       id="stop43" />
    <stop
       offset=".7574"
       stop-color="#0000cf"
       id="stop45" />
    <stop
       offset="1"
       stop-color="#00008e"
       id="stop47" />
  </radialGradient>
  <linearGradient
     id="k"
     gradientUnits="userSpaceOnUse"
     x1="75.097969"
     x2="75.097969"
     xlink:href="#h"
     y1="4.5336752"
     y2="80.174454" />
  <linearGradient
     id="l"
     gradientUnits="userSpaceOnUse"
     x1="71.59375"
     x2="71.59375"
     y1="130.40625"
     y2="63.426777">
    <stop
       offset="0"
       stop-color="#f0ff80"
       id="stop51" />
    <stop
       offset="1"
       stop-color="#f0ff80"
       stop-opacity="0"
       id="stop53" />
  </linearGradient>
  <linearGradient
     id="m"
     gradientUnits="userSpaceOnUse"
     spreadMethod="reflect"
     x1="120.0625"
     x2="125.30366"
     xlink:href="#h"
     y1="12.569496"
     y2="14.444496" />
  <filter
     id="n"
     height="1.274647"
     width="1.301924"
     x="-0.150962"
     y="-0.13732401">
    <feGaussianBlur
       stdDeviation=".39257441"
       id="feGaussianBlur57" />
  </filter>
  <radialGradient
     id="o"
     cx="66.01458"
     cy="126.69183"
     gradientTransform="matrix(0.675025,0,0,0.3583625,19.527377,41.004647)"
     gradientUnits="userSpaceOnUse"
     r="59.995121">
    <stop
       offset="0"
       stop-color="#2c41be"
       id="stop60" />
    <stop
       offset="1"
       stop-color="#2c41be"
       stop-opacity="0"
       id="stop62" />
  </radialGradient>
  <linearGradient
     id="p"
     gradientUnits="userSpaceOnUse"
     spreadMethod="reflect"
     x1="120.0625"
     x2="125.30366"
     y1="12.569496"
     y2="14.444496">
    <stop
       offset="0"
       stop-color="#baff63"
       id="stop65" />
    <stop
       offset="1"
       stop-color="#fff"
       stop-opacity="0"
       id="stop67" />
  </linearGradient>
  <filter
     id="q">
    <feGaussianBlur
       stdDeviation="1.3342697"
       id="feGaussianBlur70" />
  </filter>
  <radialGradient
     id="r"
     cx="-112.17241"
     cy="118.60459"
     fx="-113.14772"
     fy="59.708473"
     gradientTransform="matrix(0.6484284,0.1017206,-0.03125715,0.1992521,-4.56257,53.15916)"
     gradientUnits="userSpaceOnUse"
     r="59.995121">
    <stop
       offset="0"
       stop-color="#fff"
       stop-opacity="0"
       id="stop73" />
    <stop
       offset=".5"
       stop-color="#fff"
       stop-opacity=".18705"
       id="stop75" />
    <stop
       offset="1"
       stop-color="#fff"
       id="stop77" />
  </radialGradient>
  <linearGradient
     id="s"
     gradientUnits="userSpaceOnUse"
     x1="-151.43935"
     x2="-152.26776"
     xlink:href="#f"
     y1="37.68198"
     y2="57.25" />
  <linearGradient
     id="t"
     gradientUnits="userSpaceOnUse"
     x1="-132.51041"
     x2="-158.92462"
     xlink:href="#f"
     y1="39.803303"
     y2="72.881729" />
  <linearGradient
     id="u"
     gradientUnits="userSpaceOnUse"
     x1="-83.012932"
     x2="-158.92462"
     xlink:href="#f"
     y1="44.753052"
     y2="72.881729" />
  <mask
     id="v"
     maskUnits="userSpaceOnUse">
    <g
       transform="translate(248.01637,30.885255)"
       id="g91">
      <path
         d="m -184.42232,-32.47243 c -33.12519,0 -64,32.374805 -64,65.5 0,33.12519 31.37481,64 64.5,64 30.28912,0 55.33661,-26.21626 59.40625,-55.34375 l -35.03125,-5.03125 c -1.62468,11.96113 -11.93007,20.96875 -24.375,20.96875 -13.57163,0 -22.09375,-11.52212 -22.09375,-25.09375 0,-13.571634 6.02212,-20.09375 19.59375,-20.09375 6.78582,-1e-6 9.92129,-2.234956 14.375,2.21875 l -4.82718,11.327179 c -2.05587,2.05587 -2.24372,3.30578 -1.67961,4.615529 0.50857,1.180779 1.52073,2.526042 4.20973,2.526042 h 43.95331 c 3.84589,0 6.45899,-2.654379 6.45899,-6.250131 l -0.0689,-44.078018 c 0,-2.480755 -0.90251,-3.843229 -2.18147,-4.349615 -1.31432,-0.520385 -3.03321,-0.122678 -5.10709,1.9512 l -10.19531,0.195314 c -10.85935,-10.859351 -26.3749,-13.0625 -42.9375,-13.0625 z"
         id="path83"
         inkscape:connector-curvature="0"
         style="fill:url(#r)" />
      <path
         d="M -161.5,34.5 C -162,37 -180,54 -180,54 l 47.5,26 20.5,-41.5 z"
         id="path85"
         inkscape:connector-curvature="0"
         style="fill:url(#s);fill-rule:evenodd;filter:url(#q)" />
      <path
         d="m -161.5,34.5 c -0.5,2.5 -19.77817,19.889087 -19.77817,19.889087 L -151.62742,97.591883 -112,38.5 Z"
         id="path87"
         inkscape:connector-curvature="0"
         style="fill:url(#t);fill-rule:evenodd;filter:url(#q)" />
      <path
         d="m -161.5,34.5 c -0.5,2.5 -19.77817,19.889087 -19.77817,19.889087 L -151.62742,97.591883 -112,38.5 Z"
         id="path89"
         inkscape:connector-curvature="0"
         style="fill:url(#u);fill-rule:evenodd;filter:url(#q)" />
    </g>
  </mask>
  <filter
     id="w">
    <feGaussianBlur
       stdDeviation=".565"
       id="feGaussianBlur94" />
  </filter>
  <linearGradient
     id="x"
     gradientTransform="matrix(0.693735,0.05867125,-0.0362428,0.4285387,33.939389,26.8809)"
     gradientUnits="userSpaceOnUse"
     x1="83.892097"
     x2="89.540657"
     y1="78.769623"
     y2="72.037933">
    <stop
       offset="0"
       stop-color="#00004d"
       id="stop97" />
    <stop
       offset="1"
       stop-color="#004d00"
       stop-opacity="0"
       id="stop99" />
  </linearGradient>
  <g
     transform="matrix(0.125,0,0,0.125,-0.011109,7.99297)"
     id="g132">
    <g
       id="g887"
       transform="matrix(1.5334581,0,0,1.4666667,-2.1887264,-61.892913)"
       style="stroke-width:0.66680419">
      <path
         inkscape:connector-curvature="0"
         style="opacity:1;fill:#9d3a9b;stroke-width:0.66680419"
         id="path122"
         d="m 64.093752,4.056239 c -33.125192,-10e-8 -60.0000001,26.874805 -60,60 10e-8,33.125192 26.87481,60.000001 60,60.000001 30.28912,0 55.336608,-22.21627 59.406248,-51.343751 l -35.031248,-5.03125 c -1.62468,11.961129 -11.930074,20.968752 -24.375,20.968752 -13.571628,0 -24.59375,-11.022121 -24.59375,-24.593752 10e-7,-13.571634 11.022119,-24.59375 24.59375,-24.59375 6.785818,-10e-7 12.921294,2.765044 17.375,7.21875 L 71.141573,57.008418 c -2.05587,2.05587 -2.243725,3.30578 -1.679608,4.615529 0.508568,1.180779 1.520732,2.526042 4.209725,2.526042 H 117.625 c 3.8459,0 6.45899,-2.654379 6.45899,-6.250131 l -0.0688,-44.078018 c 0,-2.480755 -0.90251,-3.8432292 -2.18147,-4.3496147 -1.31432,-0.5203848 -3.03321,-0.1226784 -5.10709,1.9511997 L 106.53126,21.618739 C 95.671904,10.759388 80.656351,4.056239 64.093752,4.056239 Z" />
      <path
         inkscape:connector-curvature="0"
         style="fill:#f3b7d9;stroke-width:0.66680419"
         id="path128"
         d="m 64.088868,8.0561857 c -30.961694,0 -55.999994,25.0383113 -55.999994,55.9998993 0,30.96189 25.0383,56.000205 55.999994,56.000205 26.932898,0 49.121722,-18.80693 54.531242,-44.000055 L 91.495118,72.181162 c -3.43856,11.897345 -14.440376,20.468713 -27.40625,20.468713 -15.737345,0 -28.593747,-12.85644 -28.593747,-28.59379 0,-15.737348 12.856399,-28.593789 28.593747,-28.593789 7.872417,0 15.051554,3.208063 20.218754,8.37513 0.75944,0.75288 1.187496,1.774867 1.187496,2.842205 0,1.067339 -0.42808,2.092346 -1.187496,2.845229 l -10.625,10.625008 h 43.937488 c 2.00539,0 2.46876,-0.592632 2.46876,-2.249575 l -0.0938,-44.093784 -10.625,10.656152 c -0.75144,0.758928 -1.77538,1.188284 -2.84375,1.188284 -1.06837,0 -2.09235,-0.429352 -2.84375,-1.188284 C 93.544954,14.325061 79.572222,8.0564887 64.088864,8.0564887 Z" />
    </g>
  </g>
</svg>
