<?xml version="1.0" encoding="UTF-8" standalone="no"?>
<svg
   xmlns:dc="http://purl.org/dc/elements/1.1/"
   xmlns:cc="http://creativecommons.org/ns#"
   xmlns:rdf="http://www.w3.org/1999/02/22-rdf-syntax-ns#"
   xmlns:svg="http://www.w3.org/2000/svg"
   xmlns="http://www.w3.org/2000/svg"
   xmlns:sodipodi="http://sodipodi.sourceforge.net/DTD/sodipodi-0.dtd"
   xmlns:inkscape="http://www.inkscape.org/namespaces/inkscape"
   height="24"
   viewBox="0 0 6.3499999 6.3500002"
   width="24"
   version="1.1"
   id="svg45"
   sodipodi:docname="lc_resetattributes.svg"
   inkscape:version="0.92.4 (unknown)"
   inkscape:export-filename="/home/annisaauliarasyidah/Desktop/4_242 (aulia)/lc 222/lc_resetattributes.png"
   inkscape:export-xdpi="96"
   inkscape:export-ydpi="96">
  <metadata
     id="metadata51">
    <rdf:RDF>
      <cc:Work
         rdf:about="">
        <dc:format>image/svg+xml</dc:format>
        <dc:type
           rdf:resource="http://purl.org/dc/dcmitype/StillImage" />
        <dc:title></dc:title>
      </cc:Work>
    </rdf:RDF>
  </metadata>
  <defs
     id="defs49" />
  <sodipodi:namedview
     pagecolor="#ffffff"
     bordercolor="#666666"
     borderopacity="1"
     objecttolerance="10"
     gridtolerance="10"
     guidetolerance="10"
     inkscape:pageopacity="0"
     inkscape:pageshadow="2"
     inkscape:window-width="1366"
     inkscape:window-height="707"
     id="namedview47"
     showgrid="true"
     inkscape:zoom="11.36688"
     inkscape:cx="-5.0950036"
     inkscape:cy="8"
     inkscape:window-x="0"
     inkscape:window-y="0"
     inkscape:window-maximized="1"
     inkscape:current-layer="svg45">
    <inkscape:grid
       type="xygrid"
       id="grid841" />
  </sodipodi:namedview>
  <linearGradient
     id="a"
     gradientUnits="userSpaceOnUse"
     x1="16.202049"
     x2="21.913328"
     y1="10.308693"
     y2="10.308693"
     gradientTransform="scale(0.125)">
    <stop
       offset="0"
       stop-color="#3b3e22"
       id="stop2" />
    <stop
       offset="1"
       stop-color="#454545"
       stop-opacity="0"
       id="stop4" />
  </linearGradient>
  <linearGradient
     id="b"
     gradientUnits="userSpaceOnUse"
     x1="-228.6404"
     x2="-311.9765"
     y1="149.28616"
     y2="65.950043"
     gradientTransform="matrix(0.01937847,0,0,0.01937847,7.98004,0.493996)">
    <stop
       offset="0"
       stop-color="#bf0303"
       id="stop7" />
    <stop
       offset="1"
       stop-color="#fe9494"
       id="stop9" />
  </linearGradient>
  <linearGradient
     id="c"
     gradientUnits="userSpaceOnUse"
     x1="22.742989"
     x2="23.964148"
     y1="31.14403"
     y2="3.05739"
     gradientTransform="scale(0.125)">
    <stop
       offset="0"
       stop-color="#555"
       id="stop12" />
    <stop
       offset="1"
       id="stop14" />
  </linearGradient>
  <g
     id="g839"
     transform="matrix(1.6605963,0,0,1.6309874,-0.70812276,-0.54030836)"
     style="stroke-width:0.60763478">
    <text
       font-size="40.615143"
       letter-spacing="0"
       word-spacing="0"
       x="1.0695237"
       y="3.8617127"
       id="text19"
       style="font-size:5.07689285px;font-family:sans-serif;letter-spacing:0;word-spacing:0;fill:#f3b7d9;stroke:#9d3a9b;stroke-width:0.07712238">
      <tspan
         font-size="42.740532"
         font-style="italic"
         x="1.0695237"
         y="3.8617127"
         id="tspan17"
         style="font-style:italic;font-size:5.34256649px;font-family:FreeSerif;fill:#f3b7d9;stroke:#9d3a9b;stroke-width:0.07712238">I</tspan>
    </text>
    <path
       style="fill:#f3b7d9;fill-rule:evenodd;stroke:#9d3a9b;stroke-width:0.0353251;stroke-opacity:0.70658701"
       inkscape:connector-curvature="0"
       id="path25"
       d="M 2.5186736,4.203924 1.7844699,3.4697196 2.2246383,3.0295514 3.0942122,3.9070881 2.8054479,4.1958521 Z" />
    <path
       inkscape:connector-curvature="0"
       style="fill:#e602b4;fill-rule:evenodd;stroke:#9d3a9b;stroke-width:0.0353251;stroke-linecap:round;stroke-linejoin:round;stroke-opacity:0.62275498"
       id="path27"
       d="M 3.1429375,3.883122 2.252584,2.9927697 3.1429375,2.1024176 4.033289,2.9927697 Z" />
    <path
       style="fill:#ffffff;fill-rule:evenodd;stroke:#9d3a9b;stroke-width:0.0353251;stroke-opacity:0.48502999"
       inkscape:connector-curvature="0"
       id="path29"
       d="M 2.8408446,3.5969549 2.5387517,3.2948622 3.4450304,2.3885845 3.7471213,2.6906772 Z" />
    <path
       d="m 2.9117523,3.2897281 -0.060831,-0.060129 0.062501,-0.061779 0.00645,0.00638 -0.046628,0.046091 0.019522,0.019298 0.039073,-0.038621 0.00637,0.0063 -0.039073,0.03862 0.022031,0.021777 0.049882,-0.049303 0.00645,0.00638 z M 2.9957967,3.2066593 2.93496,3.1465305 2.968818,3.1130639 c 0.010732,-0.010607 0.020235,-0.017452 0.028504,-0.020534 0.00832,-0.00313 0.014929,-0.00227 0.019836,0.00258 0.00811,0.00802 0.00633,0.021151 -0.00533,0.0394 l 0.065819,-0.00875 -0.019499,0.019273 -0.057546,0.00602 -0.014813,0.014642 0.025731,0.025433 -0.015718,0.015538 m -0.016466,-0.047349 0.00514,-0.00508 c 0.019952,-0.019721 0.025667,-0.033794 0.017146,-0.042217 -0.00627,-0.0062 -0.017776,-0.00104 -0.034503,0.015497 l -0.00998,0.00986 z m 0.1478286,-0.1284857 -0.045274,-0.0071 0.00711,0.044821 z m 0.040042,0.00641 -0.029021,-0.00463 -0.047386,0.046838 0.00453,0.028833 -0.014735,0.014567 -0.016474,-0.1039791 0.015722,-0.015538 0.1045159,0.016952 z m 0.056692,-0.053029 c -0.00751,0.00742 -0.017999,0.016027 -0.031471,0.025821 l -0.00855,-0.00845 c 0.015774,-0.00931 0.027715,-0.017972 0.035827,-0.02599 0.00625,-0.00618 0.010371,-0.012011 0.012369,-0.017507 0.00205,-0.00555 0.00163,-0.00975 -0.00128,-0.012624 -0.00239,-0.00236 -0.00567,-0.00312 -0.00986,-0.00228 -0.00414,7.887e-4 -0.010587,0.00348 -0.019342,0.00807 l -0.010137,0.00522 c -0.012482,0.00649 -0.021989,0.010387 -0.028523,0.011699 -0.00651,0.00123 -0.011503,1.356e-4 -0.014983,-0.00331 -0.00469,-0.00463 -0.00541,-0.011525 -0.00218,-0.020679 0.00321,-0.00918 0.00964,-0.018554 0.019318,-0.028116 0.00862,-0.00852 0.018491,-0.016732 0.029626,-0.024651 l 0.00789,0.0078 c -0.014313,0.00916 -0.024365,0.016606 -0.030159,0.022333 -0.00549,0.00543 -0.00923,0.010695 -0.011218,0.015803 -0.00199,0.00511 -0.00178,0.00885 6.395e-4,0.011235 0.00203,0.002 0.00513,0.00248 0.00932,0.00144 0.00418,-0.00105 0.010829,-0.00394 0.019948,-0.00867 l 0.010478,-0.00548 c 0.01266,-0.00661 0.022231,-0.010493 0.028721,-0.011651 0.00649,-0.00116 0.01159,9.69e-5 0.015319,0.00379 0.00529,0.00523 0.00593,0.012987 0.00194,0.023277 -0.00395,0.010241 -0.011842,0.021213 -0.02368,0.032916 m 0.059996,-0.062311 -0.060833,-0.060129 0.062501,-0.061778 0.00645,0.00638 -0.046628,0.046091 0.01952,0.019298 0.039075,-0.038621 0.00637,0.0063 -0.039071,0.038621 0.022031,0.021777 0.04988,-0.049303 0.00645,0.00638 z m 0.08404,-0.083068 -0.060833,-0.060129 0.033858,-0.033466 c 0.010732,-0.010608 0.020229,-0.017452 0.0285,-0.020534 0.00832,-0.00313 0.014931,-0.00227 0.019838,0.00258 0.00811,0.00802 0.00633,0.021151 -0.00533,0.0394 l 0.065819,-0.00875 -0.019499,0.019273 -0.057548,0.00602 -0.014813,0.014642 0.025733,0.025433 -0.01572,0.015538 m -0.016464,-0.047349 0.00514,-0.00508 c 0.019948,-0.019721 0.025667,-0.033793 0.017142,-0.042217 -0.00627,-0.0062 -0.017774,-0.00104 -0.034503,0.015497 l -0.00998,0.00986 z"
       id="path33"
       inkscape:connector-curvature="0"
       style="fill:#9d3a9b;stroke:#9d3a9b;stroke-width:0.01177503;stroke-opacity:0.652695" />
    <g
       transform="matrix(0.01937847,0,0,0.01937847,7.98004,0.493996)"
       id="g41"
       style="fill:#f3b7d9;fill-rule:evenodd;stroke:#9d3a9b;stroke-width:0.60763478">
      <path
         d="m -236.5014,70.467545 41.451,41.656495 -0.017,8.20218 -8.9473,8.80624 -45.695,-45.900475 13.2081,-12.76444 z"
         id="path35"
         inkscape:connector-curvature="0"
         style="fill:#f3b7d9;stroke:#9d3a9b;stroke-width:1.82290447;stroke-linejoin:round;stroke-opacity:0.70059904" />
    </g>
  </g>
</svg>
