<?xml version="1.0" encoding="UTF-8" standalone="no"?>
<svg
   xmlns:dc="http://purl.org/dc/elements/1.1/"
   xmlns:cc="http://creativecommons.org/ns#"
   xmlns:rdf="http://www.w3.org/1999/02/22-rdf-syntax-ns#"
   xmlns:svg="http://www.w3.org/2000/svg"
   xmlns="http://www.w3.org/2000/svg"
   xmlns:xlink="http://www.w3.org/1999/xlink"
   xmlns:sodipodi="http://sodipodi.sourceforge.net/DTD/sodipodi-0.dtd"
   xmlns:inkscape="http://www.inkscape.org/namespaces/inkscape"
   height="24"
   viewBox="0 0 6.3499999 6.3500002"
   width="24"
   version="1.1"
   id="svg107"
   sodipodi:docname="lc_repeat.svg"
   inkscape:version="0.92.4 (unknown)"
   inkscape:export-filename="/home/annisaauliarasyidah/Desktop/4_242 (aulia)/lc 222/lc_repeat.png"
   inkscape:export-xdpi="96"
   inkscape:export-ydpi="96">
  <metadata
     id="metadata113">
    <rdf:RDF>
      <cc:Work
         rdf:about="">
        <dc:format>image/svg+xml</dc:format>
        <dc:type
           rdf:resource="http://purl.org/dc/dcmitype/StillImage" />
        <dc:title></dc:title>
      </cc:Work>
    </rdf:RDF>
  </metadata>
  <defs
     id="defs111" />
  <sodipodi:namedview
     pagecolor="#ffffff"
     bordercolor="#666666"
     borderopacity="1"
     objecttolerance="10"
     gridtolerance="10"
     guidetolerance="10"
     inkscape:pageopacity="0"
     inkscape:pageshadow="2"
     inkscape:window-width="1366"
     inkscape:window-height="707"
     id="namedview109"
     showgrid="false"
     inkscape:zoom="10.392363"
     inkscape:cx="-9.9215762"
     inkscape:cy="8"
     inkscape:window-x="0"
     inkscape:window-y="0"
     inkscape:window-maximized="1"
     inkscape:current-layer="svg107" />
  <linearGradient
     id="a"
     gradientUnits="userSpaceOnUse"
     x1="38.895172"
     x2="121.59636"
     y1="66.665695"
     y2="66.665695"
     gradientTransform="matrix(0.04960937,0,0,0.04960937,-1.852115,-1.587467)">
    <stop
       offset="0"
       stop-color="#be9000"
       id="stop2" />
    <stop
       offset="1"
       stop-color="#b68a00"
       id="stop4" />
  </linearGradient>
  <radialGradient
     id="b"
     cx="130.66731"
     cy="99.297249"
     gradientTransform="matrix(-0.01871001,-0.01559167,0.02595383,-0.03114461,-0.52923273,6.3205206)"
     gradientUnits="userSpaceOnUse"
     r="42.423828"
     xlink:href="#c" />
  <linearGradient
     id="c">
    <stop
       offset="0"
       id="stop8" />
    <stop
       offset="1"
       stop-opacity="0"
       id="stop10" />
  </linearGradient>
  <radialGradient
     id="d"
     cx="-24.423079"
     cy="155.70058"
     gradientTransform="matrix(-0.01415604,0.01981845,-0.02182834,-0.01559167,3.3175341,5.2929102)"
     gradientUnits="userSpaceOnUse"
     r="42.423828"
     xlink:href="#c" />
  <radialGradient
     id="e"
     cx="85.333977"
     cy="47.086971"
     gradientTransform="matrix(0.81715093,-0.06285776,0.01928388,0.25069047,14.695219,44.225659)"
     gradientUnits="userSpaceOnUse"
     r="42.423828">
    <stop
       offset="0"
       stop-color="#fff"
       id="stop14" />
    <stop
       offset="1"
       stop-color="#fff"
       stop-opacity="0"
       id="stop16" />
  </radialGradient>
  <filter
     id="f"
     height="1.027172"
     width="1.0214911"
     x="-0.010746"
     y="-0.013586"
     style="color-interpolation-filters:sRGB">
    <feGaussianBlur
       stdDeviation=".33210518"
       id="feGaussianBlur19" />
  </filter>
  <linearGradient
     id="g"
     gradientUnits="userSpaceOnUse"
     x1="85.333977"
     x2="80.000641"
     xlink:href="#q"
     y1="95.999352"
     y2="13.332676" />
  <linearGradient
     id="h"
     gradientUnits="userSpaceOnUse"
     x1="38.895172"
     x2="121.59636"
     xlink:href="#i"
     y1="66.665695"
     y2="66.665695"
     gradientTransform="matrix(-0.04960937,0,0,-0.04960937,6.085448,5.820801)" />
  <linearGradient
     id="i"
     gradientTransform="matrix(-0.04960937,0,0,0.04960937,11.390131,-0.516099)"
     gradientUnits="userSpaceOnUse"
     x1="7.157289"
     x2="7.186738"
     y1="63.928764"
     y2="156.35773">
    <stop
       offset="0"
       stop-color="#50be00"
       id="stop24" />
    <stop
       offset="1"
       stop-color="#227a00"
       id="stop26" />
  </linearGradient>
  <radialGradient
     id="j"
     cx="80.245766"
     cy="66.666382"
     gradientTransform="matrix(-0.04960937,0,0,-0.03996286,6.085448,5.1777028)"
     gradientUnits="userSpaceOnUse"
     r="39.883144"
     xlink:href="#i" />
  <radialGradient
     id="k"
     cx="79.842957"
     cy="8.71136"
     gradientTransform="matrix(0.00213801,-0.04956328,0.01342852,5.7926629e-4,0.20517694,6.1400208)"
     gradientUnits="userSpaceOnUse"
     r="55.883793"
     xlink:href="#c" />
  <radialGradient
     id="l"
     cx="86.40406"
     cy="355.98929"
     gradientTransform="matrix(0.02485514,-0.01961359,0.01280352,0.01622515,-1.5351842,-2.0175201)"
     gradientUnits="userSpaceOnUse"
     r="55.883793"
     xlink:href="#c" />
  <radialGradient
     id="m"
     cx="-21.265898"
     cy="159.71365"
     gradientTransform="matrix(0.01415604,-0.01981845,0.02182834,0.01559167,0.91579892,-1.0595762)"
     gradientUnits="userSpaceOnUse"
     r="42.423828"
     xlink:href="#c" />
  <radialGradient
     id="n"
     cx="61.745636"
     cy="81.787704"
     gradientTransform="matrix(-0.02979338,6.8500221e-4,-6.8601325e-4,-0.02983736,4.9180044,4.3438672)"
     gradientUnits="userSpaceOnUse"
     r="53.588345"
     xlink:href="#q" />
  <radialGradient
     id="o"
     cx="59.158207"
     cy="76.780846"
     gradientTransform="matrix(-0.04960937,0,0,-0.03923695,6.085448,5.1293134)"
     gradientUnits="userSpaceOnUse"
     r="37.0877">
    <stop
       offset="0"
       stop-color="#8fe558"
       id="stop34" />
    <stop
       offset="1"
       stop-color="#149c06"
       id="stop36" />
  </radialGradient>
  <linearGradient
     id="p"
     gradientUnits="userSpaceOnUse"
     x1="71.809433"
     x2="72.415733"
     y1="30.338589"
     y2="76.767159">
    <stop
       offset="0"
       stop-color="#fffe63"
       id="stop39" />
    <stop
       offset="1"
       stop-color="#fff"
       stop-opacity="0"
       id="stop41" />
  </linearGradient>
  <linearGradient
     id="q">
    <stop
       offset="0"
       stop-color="#eaf209"
       id="stop44" />
    <stop
       offset="1"
       stop-color="#c7c634"
       stop-opacity="0"
       id="stop46" />
  </linearGradient>
  <radialGradient
     id="r"
     cx="68.344757"
     cy="79.286057"
     gradientTransform="matrix(0.04428817,0.00118529,-7.9846876e-4,0.02983456,-1.557616,-0.23813629)"
     gradientUnits="userSpaceOnUse"
     r="53.588345">
    <stop
       offset="0"
       stop-color="#fcff0f"
       id="stop49" />
    <stop
       offset="1"
       stop-color="#db8900"
       id="stop51" />
  </radialGradient>
  <radialGradient
     id="s"
     cx="64.245117"
     cy="66.666397"
     gradientTransform="matrix(0.04950967,0.00314352,-8.7420491e-4,0.01376852,-1.78743,0.59995781)"
     gradientUnits="userSpaceOnUse"
     r="55.883793"
     xlink:href="#c" />
  <g
     id="g855"
     transform="matrix(1.4999084,0,0,1.4999084,1.9419851e-4,-3.1744585)"
     style="stroke-width:0.6667074">
    <path
       d="m 1.3151332,2.1166995 c -0.04961,0.00144 -0.095093,0.020742 -0.1359413,0.047768 a 0.13236279,0.13236279 0 0 0 -0.03992,0.026064 l -0.96873926,0.928723 a 0.13236279,0.13236279 0 0 0 -0.001066,9.69e-4 c -0.0154536,0.015129 -0.0281345,0.032873 -0.0374977,0.052419 l 0.0256767,-0.036335 c -0.06934949,0.069449 -0.13342207,0.1703451 -0.13342207,0.2959122 0,0.1289848 0.06123686,0.234172 0.1272209,0.3126746 a 0.13236279,0.13236279 0 0 0 0.007751,0.00843 l -0.007461,-0.00824 c 0.005528,0.00656 0.0116223,0.013209 0.0184097,0.019766 a 0.13236279,0.13236279 0 0 0 9.6887e-4,8.721e-4 l 2.9269e-4,1.935e-4 0.96573557,0.9206801 c 2e-7,2e-7 5.65e-4,3.77e-4 5.814e-4,3.869e-4 a 0.13236279,0.13236279 0 0 0 0.00126,0.00126 c 6.494e-4,6.276e-4 0.00157,5.432e-4 0.00223,0.00116 0.00378,0.00259 0.010927,0.00744 0.020735,0.014146 -0.00845,-0.00594 -0.012792,-0.00903 -0.01841,-0.012984 0.080267,0.074498 0.1910231,0.089919 0.2825408,0.05116 0.093021,-0.039409 0.1615507,-0.1313517 0.1615193,-0.2437827 V 3.9689119 h 1.5742255 c 0.00339,0.00188 0.00754,0.00473 0.00795,0.00514 4.465e-4,4.217e-4 0.00327,0.00458 0.00514,0.00795 v 1.2952696 0.014437 c 3.57e-5,0.1453907 0.1193219,0.2646759 0.2647126,0.2647126 h 0.529134 C 4.11414,5.5563751 4.2334267,5.4370899 4.2334624,5.2916992 v -1.0582686 -9.92e-5 c -5.9e-6,-0.023858 -0.00286,-0.025547 -0.00562,-0.035463 0.00256,-0.029392 0.00557,-0.061085 0.00562,-0.099412 a 0.13236279,0.13236279 0 0 0 0,-1.935e-4 v -9.92e-5 a 0.13236279,0.13236279 0 0 0 0,-9.92e-5 L 4.2333632,3.9687119 C 4.2333632,3.6203383 4.1630822,3.347593 3.9795994,3.16411 3.7961162,2.9806264 3.5233713,2.9103459 3.1749974,2.9103459 H 2.6458658 L 1.5875972,2.9106386 V 2.3812182 C 1.5876227,2.2328487 1.4633385,2.1123825 1.3151332,2.1166995 Z"
       id="path55"
       style="fill:#9d3a9b;stroke-width:0.03307493"
       inkscape:connector-curvature="0" />
    <path
       d="m 1.3188469,2.2426929 c -0.034687,9.992e-4 -0.067738,0.014967 -0.09263,0.039145 l -0.96880382,0.9286578 0.004942,-0.00455 c -0.0623705,0.05509 -0.11210557,0.1365986 -0.11210557,0.2262458 0,0.089647 0.0422517,0.1656444 0.0976684,0.231575 0.003053,0.00359 0.006287,0.00701 0.009689,0.010271 L 1.2264106,4.5974307 c 0.087945,0.085185 0.235072,0.022927 0.2351601,-0.099509 V 3.8428213 l 1.7133969,3.24e-5 c 0.019948,3e-7 0.056088,0.014244 0.083909,0.042052 0.027822,0.027808 0.042052,0.063899 0.042052,0.083813 v 1.308544 0.014405 c 1.24e-5,0.076572 0.062083,0.1386423 0.1386542,0.1386542 H 3.9687496 C 4.0453216,5.43031 4.1073919,5.3682389 4.1074043,5.2916677 v -1.058334 c -2.53e-5,-0.013254 -0.00195,-0.026437 -0.00572,-0.039145 0.00244,-0.031767 0.00568,-0.063103 0.00572,-0.095924 V 4.0980709 C 4.1073897,3.3671931 3.9687498,3.0427087 2.6458332,3.0363464 H 2.645734 C 2.612839,3.036361 2.581445,3.0396364 2.549616,3.0420634 2.53694,3.0383064 2.523791,3.0363814 2.51057,3.0363464 H 1.4615708 V 2.3812504 C 1.4615371,2.3030993 1.3969647,2.2404119 1.3188469,2.2426929 Z"
       id="path57"
       inkscape:connector-curvature="0"
       style="fill:#f0e3ec;fill-opacity:0.91372501;stroke:#f0e3ec;stroke-width:0.03307493" />
    <path
       d="m 2.9181998,6.3499679 c 0.04961,-0.00144 0.095093,-0.020742 0.1359413,-0.047768 a 0.13236279,0.13236279 0 0 0 0.03992,-0.026064 l 0.9687393,-0.928723 a 0.13236279,0.13236279 0 0 0 0.00107,-9.69e-4 c 0.015454,-0.015128 0.028135,-0.032873 0.037498,-0.052419 l -0.025677,0.036335 c 0.06935,-0.069449 0.1334221,-0.1703451 0.1334221,-0.2959122 0,-0.1289848 -0.061237,-0.234172 -0.1272209,-0.3126746 a 0.13236279,0.13236279 0 0 0 -0.00775,-0.00843 l 0.00746,0.00824 c -0.00553,-0.00656 -0.011622,-0.013209 -0.01841,-0.019766 A 0.13236279,0.13236279 0 0 0 4.062219,4.7009407 L 4.0619263,4.7007472 3.0961908,3.7800671 c -2e-7,-2e-7 -5.65e-4,-3.77e-4 -5.814e-4,-3.869e-4 a 0.13236279,0.13236279 0 0 0 -0.00126,-0.00126 c -6.494e-4,-6.276e-4 -0.00157,-5.432e-4 -0.00223,-0.00116 -0.00378,-0.00259 -0.010927,-0.00744 -0.020735,-0.014146 0.00845,0.00594 0.012792,0.00903 0.01841,0.012984 C 3.009529,3.7015967 2.8987728,3.6861756 2.8072551,3.7249354 2.7142343,3.7643442 2.6457044,3.8562871 2.6457358,3.9687181 V 4.4977555 H 1.0715103 c -0.00339,-0.00188 -0.00754,-0.00473 -0.00795,-0.00514 -4.465e-4,-4.217e-4 -0.00327,-0.00458 -0.00514,-0.00795 V 3.1894053 3.1749682 C 1.0583941,3.0295775 0.93910789,2.9102923 0.79371721,2.9102556 H 0.26458317 C 0.11919299,2.9102923 -9.3730404e-5,3.0295775 -1.2944915e-4,3.1749682 v 1.0582686 9.92e-5 C -1.2349603e-4,4.257194 0.00273301,4.258883 0.0054903,4.268799 0.0029255,4.298191 -8.430555e-5,4.329884 -1.2944915e-4,4.368212 a 0.13236279,0.13236279 0 0 0 0,1.935e-4 v 9.92e-5 a 0.13236279,0.13236279 0 0 0 0,9.92e-5 l 9.921874e-5,0.1293526 c 0,0.3483736 0.07028060041,0.6211189 0.25376383041,0.8046019 0.18348323,0.1834831 0.45622811,0.2537636 0.804602,0.2537636 h 0.5291316 l 1.0582686,-2.927e-4 v 0.5294204 c -2.55e-5,0.1483695 0.1242587,0.2688357 0.272464,0.2645182 z"
       id="path83"
       style="fill:#e602b4;stroke-width:0.03307493"
       inkscape:connector-curvature="0" />
    <path
       d="m 2.9144861,6.2239744 c 0.034687,-9.991e-4 0.067738,-0.014967 0.09263,-0.039145 l 0.9688038,-0.9286578 -0.00494,0.00455 c 0.062371,-0.05509 0.1121056,-0.1365986 0.1121056,-0.2262458 0,-0.089647 -0.042252,-0.1656444 -0.097668,-0.231575 -0.00305,-0.00359 -0.00629,-0.00701 -0.00969,-0.010271 L 3.0069223,3.8692411 C 2.9189773,3.7840561 2.7718503,3.8463141 2.7717622,3.9687501 V 4.6238457 L 1.0583653,4.6238133 C 1.0384173,4.623813 1.0022773,4.6095693 0.9744561,4.5817613 0.9466342,4.5539537 0.9324042,4.5178627 0.9324042,4.4979487 V 3.1894053 3.1750003 C 0.93239177,3.0984288 0.87032152,3.036358 0.79374995,3.0363461 H 0.26458317 c -0.0765716,1.19e-5 -0.13864231,0.062083 -0.13865471,0.1386542 v 1.0583334 c 2.53e-5,0.013254 0.00195,0.026437 0.005717,0.039145 -0.002441,0.031768 -0.005678,0.063103 -0.005717,0.095924 v 1.935e-4 c 1.488e-5,0.7308778 0.13865471,1.0553622 1.46157134,1.0617245 h 9.92e-5 c 0.032895,-1.46e-5 0.064289,-0.00329 0.096118,-0.00572 0.012676,0.00376 0.025824,0.00568 0.039046,0.00572 h 1.0489994 v 0.6550957 c 3.37e-5,0.078151 0.064606,0.1408385 0.1427237,0.138558 z"
       id="path85"
       inkscape:connector-curvature="0"
       style="fill:#f3b7d9;stroke-width:0.03307493" />
  </g>
</svg>
