<?xml version="1.0" encoding="UTF-8" standalone="no"?>
<svg
   xmlns:dc="http://purl.org/dc/elements/1.1/"
   xmlns:cc="http://creativecommons.org/ns#"
   xmlns:rdf="http://www.w3.org/1999/02/22-rdf-syntax-ns#"
   xmlns:svg="http://www.w3.org/2000/svg"
   xmlns="http://www.w3.org/2000/svg"
   xmlns:xlink="http://www.w3.org/1999/xlink"
   xmlns:sodipodi="http://sodipodi.sourceforge.net/DTD/sodipodi-0.dtd"
   xmlns:inkscape="http://www.inkscape.org/namespaces/inkscape"
   height="24"
   width="24"
   version="1.1"
   id="svg166"
   sodipodi:docname="lc_recalcpivottable.svg"
   inkscape:version="0.92.4 (unknown)"
   inkscape:export-filename="/home/annisaauliarasyidah/Desktop/4_242 (aulia)/lc 222/lc_recalcpivottable.png"
   inkscape:export-xdpi="96"
   inkscape:export-ydpi="96">
  <metadata
     id="metadata172">
    <rdf:RDF>
      <cc:Work
         rdf:about="">
        <dc:format>image/svg+xml</dc:format>
        <dc:type
           rdf:resource="http://purl.org/dc/dcmitype/StillImage" />
        <dc:title></dc:title>
      </cc:Work>
    </rdf:RDF>
  </metadata>
  <defs
     id="defs170">
    <mask
       id="v"
       maskUnits="userSpaceOnUse">
      <g
         transform="translate(248.01637,30.885255)"
         id="g91">
        <path
           style="fill:url(#r-3)"
           inkscape:connector-curvature="0"
           d="m -184.42232,-32.47243 c -33.12519,0 -64,32.374805 -64,65.5 0,33.12519 31.37481,64 64.5,64 30.28912,0 55.33661,-26.21626 59.40625,-55.34375 l -35.03125,-5.03125 c -1.62468,11.96113 -11.93007,20.96875 -24.375,20.96875 -13.57163,0 -22.09375,-11.52212 -22.09375,-25.09375 0,-13.571634 6.02212,-20.09375 19.59375,-20.09375 6.78582,-1e-6 9.92129,-2.234956 14.375,2.21875 l -4.82718,11.327179 c -2.05587,2.05587 -2.24372,3.30578 -1.67961,4.615529 0.50857,1.180779 1.52073,2.526042 4.20973,2.526042 h 43.95331 c 3.84589,0 6.45899,-2.654379 6.45899,-6.250131 l -0.0689,-44.078018 c 0,-2.480755 -0.90251,-3.843229 -2.18147,-4.349615 -1.31432,-0.520385 -3.03321,-0.122678 -5.10709,1.9512 l -10.19531,0.195314 c -10.85935,-10.859351 -26.3749,-13.0625 -42.9375,-13.0625 z"
           id="path83" />
        <path
           style="fill:url(#s-5);fill-rule:evenodd;filter:url(#q-5)"
           inkscape:connector-curvature="0"
           d="M -161.5,34.5 C -162,37 -180,54 -180,54 l 47.5,26 20.5,-41.5 z"
           id="path85" />
        <path
           style="fill:url(#t-6);fill-rule:evenodd;filter:url(#q-5)"
           inkscape:connector-curvature="0"
           d="m -161.5,34.5 c -0.5,2.5 -19.77817,19.889087 -19.77817,19.889087 L -151.62742,97.591883 -112,38.5 Z"
           id="path87" />
        <path
           style="fill:url(#u);fill-rule:evenodd;filter:url(#q-5)"
           inkscape:connector-curvature="0"
           d="m -161.5,34.5 c -0.5,2.5 -19.77817,19.889087 -19.77817,19.889087 L -151.62742,97.591883 -112,38.5 Z"
           id="path89" />
      </g>
    </mask>
    <radialGradient
       id="r-3"
       cx="-112.17241"
       cy="118.60459"
       fx="-113.14772"
       fy="59.708473"
       gradientTransform="matrix(0.6484284,0.1017206,-0.03125715,0.1992521,-4.56257,53.15916)"
       gradientUnits="userSpaceOnUse"
       r="59.995121">
      <stop
         offset="0"
         stop-color="#fff"
         stop-opacity="0"
         id="stop73" />
      <stop
         offset=".5"
         stop-color="#fff"
         stop-opacity=".18705"
         id="stop75-6" />
      <stop
         offset="1"
         stop-color="#fff"
         id="stop77-7" />
    </radialGradient>
    <linearGradient
       id="s-5"
       gradientUnits="userSpaceOnUse"
       x1="-151.43935"
       x2="-152.26776"
       xlink:href="#f-3"
       y1="37.68198"
       y2="57.25" />
    <linearGradient
       id="f-3">
      <stop
         offset="0"
         id="stop17" />
      <stop
         offset="1"
         stop-opacity="0"
         id="stop19" />
    </linearGradient>
    <filter
       id="q-5">
      <feGaussianBlur
         stdDeviation="1.3342697"
         id="feGaussianBlur70" />
    </filter>
    <linearGradient
       id="t-6"
       gradientUnits="userSpaceOnUse"
       x1="-132.51041"
       x2="-158.92462"
       xlink:href="#f-3"
       y1="39.803303"
       y2="72.881729" />
    <filter
       id="filter918">
      <feGaussianBlur
         stdDeviation="1.3342697"
         id="feGaussianBlur916" />
    </filter>
    <linearGradient
       id="u"
       gradientUnits="userSpaceOnUse"
       x1="-83.012932"
       x2="-158.92462"
       xlink:href="#f-3"
       y1="44.753052"
       y2="72.881729" />
    <filter
       id="filter929">
      <feGaussianBlur
         stdDeviation="1.3342697"
         id="feGaussianBlur927" />
    </filter>
    <radialGradient
       id="o-2"
       cx="66.01458"
       cy="126.69183"
       gradientTransform="matrix(0.675025,0,0,0.3583625,86.97171,20.559746)"
       gradientUnits="userSpaceOnUse"
       r="59.995121">
      <stop
         offset="0"
         stop-color="#2c41be"
         id="stop60-9" />
      <stop
         offset="1"
         stop-color="#2c41be"
         stop-opacity="0"
         id="stop62-1" />
    </radialGradient>
    <linearGradient
       id="i-2"
       gradientTransform="matrix(0.9792,0,0,0.9725,133.0002,20.8762)"
       gradientUnits="userSpaceOnUse"
       x1="64.088867"
       x2="64.088867"
       y1="9.6794214"
       y2="123.90625">
      <stop
         offset="0"
         stop-color="#00008c"
         id="stop28-7" />
      <stop
         offset=".3553"
         stop-color="#1c1cac"
         id="stop30-0" />
      <stop
         offset=".6194"
         stop-color="#080895"
         id="stop32" />
      <stop
         offset=".7574"
         stop-color="#00008c"
         id="stop34-9" />
      <stop
         offset="1"
         stop-color="#00004d"
         id="stop36-3" />
    </linearGradient>
    <linearGradient
       id="m-6"
       gradientUnits="userSpaceOnUse"
       spreadMethod="reflect"
       x1="120.0625"
       x2="125.30366"
       xlink:href="#h-0"
       y1="12.569496"
       y2="14.444496"
       gradientTransform="translate(10.725121,30.891857)" />
    <linearGradient
       id="h-0">
      <stop
         offset="0"
         stop-color="#fff"
         id="stop23" />
      <stop
         offset="1"
         stop-color="#fff"
         stop-opacity="0"
         id="stop25" />
    </linearGradient>
    <filter
       id="n-6"
       height="1.274647"
       width="1.301924"
       x="-0.150962"
       y="-0.13732401">
      <feGaussianBlur
         stdDeviation=".39257441"
         id="feGaussianBlur57" />
    </filter>
    <linearGradient
       id="p-2"
       gradientUnits="userSpaceOnUse"
       spreadMethod="reflect"
       x1="120.0625"
       x2="125.30366"
       y1="12.569496"
       y2="14.444496">
      <stop
         offset="0"
         stop-color="#baff63"
         id="stop65-6" />
      <stop
         offset="1"
         stop-color="#fff"
         stop-opacity="0"
         id="stop67-1" />
    </linearGradient>
    <filter
       id="filter951"
       height="1.274647"
       width="1.301924"
       x="-0.150962"
       y="-0.13732401">
      <feGaussianBlur
         stdDeviation=".39257441"
         id="feGaussianBlur949" />
    </filter>
    <radialGradient
       id="j-8"
       cx="67.09375"
       cy="116.90626"
       gradientUnits="userSpaceOnUse"
       r="71.590965">
      <stop
         offset="0"
         stop-color="#5757ff"
         id="stop39-7" />
      <stop
         offset=".3553"
         stop-color="#223fd1"
         id="stop41-9" />
      <stop
         offset=".6194"
         stop-color="#0f1af2"
         id="stop43" />
      <stop
         offset=".7574"
         stop-color="#0000cf"
         id="stop45" />
      <stop
         offset="1"
         stop-color="#00008e"
         id="stop47" />
    </radialGradient>
    <linearGradient
       id="k-2"
       gradientUnits="userSpaceOnUse"
       x1="75.097969"
       x2="75.097969"
       xlink:href="#h-0"
       y1="4.5336752"
       y2="80.174454" />
    <linearGradient
       id="l-0"
       gradientUnits="userSpaceOnUse"
       x1="71.59375"
       x2="71.59375"
       y1="130.40625"
       y2="63.426777">
      <stop
         offset="0"
         stop-color="#f0ff80"
         id="stop51-2" />
      <stop
         offset="1"
         stop-color="#f0ff80"
         stop-opacity="0"
         id="stop53" />
    </linearGradient>
    <filter
       id="w">
      <feGaussianBlur
         stdDeviation=".565"
         id="feGaussianBlur94" />
    </filter>
  </defs>
  <sodipodi:namedview
     pagecolor="#ffffff"
     bordercolor="#666666"
     borderopacity="1"
     objecttolerance="10"
     gridtolerance="10"
     guidetolerance="10"
     inkscape:pageopacity="0"
     inkscape:pageshadow="2"
     inkscape:window-width="1366"
     inkscape:window-height="707"
     id="namedview168"
     showgrid="true"
     inkscape:zoom="22.00258"
     inkscape:cx="11.270929"
     inkscape:cy="11.557995"
     inkscape:window-x="0"
     inkscape:window-y="0"
     inkscape:window-maximized="1"
     inkscape:current-layer="g120"
     inkscape:snap-global="true">
    <inkscape:grid
       type="xygrid"
       id="grid1216" />
  </sodipodi:namedview>
  <clipPath
     id="a">
    <path
       d="m 2.7874267,294.08995 c -0.6536123,-0.004 -1.2297545,0.42813 -1.4086995,1.05678 -0.1898565,0.66692 0.1172257,1.37515 0.7338053,1.6924 0.4171572,0.21458 0.8956189,0.20527 1.2965618,0.0119 l -0.5896282,-0.91106 a 0.396875,0.396875 0 0 1 -0.2227254,-0.0419 0.396875,0.396875 0 0 1 -0.2005046,-0.46147 0.396875,0.396875 0 0 1 0.4134116,-0.28732 0.396875,0.396875 0 0 1 0.1834513,0.063 l -0.2413289,0.24133 a 0.13030278,0.13030278 0 0 0 0.091984,0.22273 h 1.2578043 a 0.13030278,0.13030278 0 0 0 0.1307415,-0.13126 v -1.25781 a 0.13030278,0.13030278 0 0 0 -0.1348756,-0.13074 0.13030278,0.13030278 0 0 0 -0.08785,0.0393 l -0.2640666,0.26406 c -0.236479,-0.21133 -0.5355238,-0.33962 -0.8516276,-0.36535 -0.035416,-0.003 -0.070924,-0.004 -0.1064535,-0.005 z"
       id="path2"
       inkscape:connector-curvature="0" />
  </clipPath>
  <linearGradient
     id="b"
     gradientTransform="matrix(0.0789558,0,0,0.07841556,27.361627,7.365724)"
     gradientUnits="userSpaceOnUse"
     x1="17"
     x2="17"
     y1="8"
     y2="17">
    <stop
       offset="0"
       stop-color="#00008c"
       id="stop5" />
    <stop
       offset=".3553"
       stop-color="#1c1cac"
       id="stop7" />
    <stop
       offset=".6194"
       stop-color="#080895"
       id="stop9" />
    <stop
       offset=".7574"
       stop-color="#00008c"
       id="stop11" />
    <stop
       offset="1"
       stop-color="#00004d"
       id="stop13" />
  </linearGradient>
  <radialGradient
     id="c"
     cx="10.000115"
     cy="14.246079"
     gradientTransform="matrix(1,-5e-8,8e-8,1.8331696,-1.16e-4,-11.865479)"
     gradientUnits="userSpaceOnUse"
     r="4.500402">
    <stop
       offset="0"
       stop-color="#5757ff"
       id="stop16" />
    <stop
       offset=".3553"
       stop-color="#223fd1"
       id="stop18" />
    <stop
       offset=".6194"
       stop-color="#0f1af2"
       id="stop20" />
    <stop
       offset=".7574"
       stop-color="#0000cf"
       id="stop22" />
    <stop
       offset="1"
       stop-color="#00008e"
       id="stop24" />
  </radialGradient>
  <radialGradient
     id="d"
     cx="6"
     cy="9.9999723"
     gradientTransform="matrix(0.44440479,0,0,0.9999445,3.333571,5.83e-4)"
     gradientUnits="userSpaceOnUse"
     r="4.500402"
     xlink:href="#e" />
  <linearGradient
     id="e">
    <stop
       offset="0"
       id="stop28" />
    <stop
       offset="1"
       stop-opacity="0"
       id="stop30" />
  </linearGradient>
  <radialGradient
     id="f"
     cx="10.499598"
     cy="10.500055"
     gradientTransform="matrix(1,0,0,0.9999445,0,5.83e-4)"
     gradientUnits="userSpaceOnUse"
     r="4.500402"
     xlink:href="#e" />
  <radialGradient
     id="g"
     cx="13"
     cy="9.9999723"
     gradientTransform="matrix(0.70266574,6e-8,-5e-8,0.66660712,3.865346,3.333947)"
     gradientUnits="userSpaceOnUse"
     r="4.500402">
    <stop
       offset="0"
       stop-color="#00f"
       id="stop34" />
    <stop
       offset="1"
       stop-color="#00004d"
       stop-opacity="0"
       id="stop36" />
  </radialGradient>
  <radialGradient
     id="h"
     cx="10.25"
     cy="13.250153"
     gradientTransform="matrix(1,0,0,0.9999445,0,5.83e-4)"
     gradientUnits="userSpaceOnUse"
     r="4.500402">
    <stop
       offset="0"
       stop-color="#2c41be"
       id="stop39" />
    <stop
       offset="1"
       stop-color="#2c41be"
       stop-opacity="0"
       id="stop41" />
  </radialGradient>
  <linearGradient
     id="i"
     gradientUnits="userSpaceOnUse"
     x1="17.443756"
     x2="17.524389"
     y1="5.9243131"
     y2="6.6500101">
    <stop
       offset="0"
       stop-color="#bfbfff"
       id="stop44" />
    <stop
       offset="1"
       stop-color="#bfbfff"
       stop-opacity="0"
       id="stop46" />
  </linearGradient>
  <radialGradient
     id="j"
     cx="10.720569"
     cy="6.3897691"
     gradientTransform="matrix(0.45075749,0.01596601,-0.01621215,0.45770648,5.991784,3.294194)"
     gradientUnits="userSpaceOnUse"
     r="4.500402">
    <stop
       offset="0"
       stop-color="#fff"
       id="stop49" />
    <stop
       offset="1"
       stop-color="#fff"
       stop-opacity="0"
       id="stop51" />
  </radialGradient>
  <filter
     id="k"
     height="1.036001"
     width="1.0359989"
     x="-0.017999999"
     y="-0.017999999"
     style="color-interpolation-filters:sRGB">
    <feGaussianBlur
       stdDeviation=".067504158"
       id="feGaussianBlur54" />
  </filter>
  <mask
     id="l"
     maskUnits="userSpaceOnUse">
    <path
       d="m 2.778125,295.8755 0.1286275,-0.17268 0.7974142,0.0404 0.8837099,-0.0464 c 0,0 -0.8750292,1.075 -0.9068935,1.13463 -0.031864,0.0596 -0.1752539,0.16856 -0.1752539,0.16856 z"
       id="path57"
       inkscape:connector-curvature="0"
       style="fill:url(#m);fill-rule:evenodd;stroke-width:0.120238" />
  </mask>
  <linearGradient
     id="m"
     gradientTransform="matrix(-0.1202386,-0.01552063,0,0.1202386,50.206103,228.09465)"
     gradientUnits="userSpaceOnUse"
     x1="391.14813"
     x2="385.39752"
     y1="618.61072"
     y2="613.20654">
    <stop
       offset="0"
       stop-color="#fff"
       id="stop60" />
    <stop
       offset="1"
       stop-opacity="0"
       id="stop62" />
  </linearGradient>
  <linearGradient
     id="n"
     gradientTransform="matrix(0.03815405,0,0,0.16304754,0.79651687,-0.04399975)"
     gradientUnits="userSpaceOnUse"
     x1="46.048"
     x2="46.048"
     y1="128.01709"
     y2="16.6203">
    <stop
       offset="0"
       stop-color="#c7cdd7"
       id="stop65" />
    <stop
       offset="1"
       stop-color="#fff"
       id="stop67" />
  </linearGradient>
  <linearGradient
     id="o"
     gradientUnits="userSpaceOnUse"
     x1="67.266975"
     x2="67.266975"
     y1="288.20084"
     y2="-56"
     gradientTransform="scale(0.125)">
    <stop
       offset="0"
       id="stop70" />
    <stop
       offset="1"
       stop-color="#fff"
       id="stop72" />
  </linearGradient>
  <linearGradient
     id="p"
     gradientTransform="matrix(-0.13536395,0,0,0.13536395,19.641577,7.5651892)"
     gradientUnits="userSpaceOnUse"
     x1="71.227066"
     x2="28.9296"
     y1="10.599652"
     y2="70.897705">
    <stop
       offset="0"
       stop-color="#bbd6ff"
       id="stop75" />
    <stop
       offset="1"
       stop-color="#0057ae"
       id="stop77" />
  </linearGradient>
  <linearGradient
     id="q"
     gradientTransform="matrix(0.12962962,0,0,0.15198672,-0.03703737,-2.687415)"
     gradientUnits="userSpaceOnUse"
     x1="8"
     x2="80"
     y1="36"
     y2="112">
    <stop
       offset="0"
       stop-color="#c8ffa5"
       id="stop80" />
    <stop
       offset="1"
       stop-color="#dfffcb"
       id="stop82" />
  </linearGradient>
  <linearGradient
     id="r"
     gradientUnits="userSpaceOnUse"
     x1="67.266975"
     x2="67.266975"
     y1="288.20084"
     y2="-56"
     gradientTransform="scale(0.125)">
    <stop
       offset="0"
       stop-color="#48940b"
       stop-opacity=".831373"
       id="stop85" />
    <stop
       offset="1"
       stop-color="#48940b"
       stop-opacity=".831373"
       id="stop87" />
  </linearGradient>
  <linearGradient
     id="s"
     gradientTransform="matrix(0.74344204,0,0,-0.74344204,-64.585071,58.809544)"
     gradientUnits="userSpaceOnUse"
     x1="101.99715"
     x2="104"
     y1="83.220375"
     y2="57.11084">
    <stop
       offset="0"
       stop-color="#d4e2f3"
       id="stop90" />
    <stop
       offset="1"
       stop-color="#fff"
       stop-opacity="0"
       id="stop92" />
  </linearGradient>
  <linearGradient
     id="t"
     gradientUnits="userSpaceOnUse"
     x1="46.825066"
     x2="123.00084"
     y1="77.669472"
     y2="77.669472"
     gradientTransform="matrix(0.13536395,0,0,0.13536395,-1.3372226,-1.6067151)">
    <stop
       offset="0"
       stop-color="#2c72c7"
       id="stop95" />
    <stop
       offset="1"
       stop-color="#00438a"
       id="stop97" />
  </linearGradient>
  <g
     id="g963"
     transform="translate(0,8)">
    <g
       transform="matrix(0.70651424,0,0,0.70651424,-5.4213332,-8.4219621)"
       id="g1214">
      <g
         transform="matrix(0.125,0,0,0.125,8.2164984,12.149372)"
         mask="url(#v)"
         id="g120">
        <path
           style="opacity:0.79775295;fill:url(#o-2)"
           inkscape:connector-curvature="0"
           d="m 131.53808,-16.538651 c -33.125189,0 -59.999998,26.874805 -59.999997,60 0,33.125192 26.87481,60.000001 59.999997,60.000001 30.28912,0 55.33661,-22.216261 59.40625,-51.343751 l -35.03125,-5.03125 c -1.62468,11.961129 -11.93007,20.96875 -24.375,20.96875 -13.57163,-10e-7 -24.59375,-11.022119 -24.59375,-24.59375 0,-13.571634 11.02212,-24.59375 24.59375,-24.59375 6.78582,-10e-7 12.9213,2.765044 17.375,7.21875 L 138.5859,36.413528 c -2.05587,2.05587 -2.24372,3.30578 -1.6796,4.615529 0.50856,1.180779 1.52073,2.526042 4.20972,2.526042 h 43.95331 c 3.84589,0 6.45899,-2.654379 6.45899,-6.250131 l -0.0689,-44.0780177 c 0,-2.480755 -0.90251,-3.8432293 -2.18147,-4.3496143 -1.31432,-0.520385 -3.03321,-0.122679 -5.10709,1.9511993 l -10.19528,10.195314 c -10.85935,-10.859351 -25.8749,-17.5625003 -42.4375,-17.5625003 z"
           id="path106-3" />
        <path
           style="opacity:0.82022502;fill:url(#m-6);fill-rule:evenodd;filter:url(#n-6)"
           inkscape:connector-curvature="0"
           d="m 128.41262,41.641857 0.9375,4.375 1.25,0.875 4,-2.625 c 0.24688,-1.723751 -0.35117,-3.347429 -1.9375,-4 -1.58634,-0.652572 -3.16128,0.126703 -4.25,1.375 z"
           id="path110-5" />
        <path
           style="opacity:0.82022502;fill:url(#p-2);fill-rule:evenodd;filter:url(#n-6)"
           inkscape:connector-curvature="0"
           d="m 117.6875,10.75 2.1875,3.125 0.5,-0.125 3.5,-0.375 c 0.24688,-1.723751 -0.35117,-3.347429 -1.9375,-4.0000001 -1.58634,-0.6525714 -3.16128,0.1267033 -4.25,1.3750001 z"
           transform="matrix(0,1,1,0,120.02621,-77.346732)"
           id="path112-9" />
      </g>
      <g
         id="g981"
         transform="matrix(1.5,0,0,1.5667798,-3.8366761,-17.753471)"
         style="stroke-width:0.65230453">
        <path
           transform="matrix(1.4153996,0,0,1.4153996,7.6733531,11.920442)"
           inkscape:connector-curvature="0"
           style="fill:#f0e3ec;stroke-width:0.08153807"
           id="path100"
           d="M 1,1 H 4.9679222 V 14.060662 H 1 Z" />
        <path
           transform="matrix(1.4153996,0,0,1.4153996,7.6733531,11.920442)"
           inkscape:connector-curvature="0"
           style="fill:#e602b4;stroke-width:0.08153807"
           id="path104"
           d="M 0,1 V 1.5883789 4 4.5 7 7.5249024 10 10.5 13.51416 14 H 1 5 6 6.00488 V 13.51416 H 6 V 10.5 H 6.00488 V 10 H 6 V 7.5249024 H 6.00488 V 7 H 6 V 4.5 H 6.00488 V 4.4873047 H 16 V 1 H 1 Z M 1,1.5883789 H 5 V 4 H 1 Z m 5,0 h 4 V 4 H 6 Z m 5,0 h 4 V 4 H 11 Z M 1,4.5 H 5 V 7 H 1 Z M 1,7.5249024 H 5 V 10 H 1 Z M 1,10.5 h 4 v 3.01416 H 1 Z" />
        <path
           transform="matrix(1.4153996,0,0,1.4153996,7.6733531,11.920442)"
           inkscape:connector-curvature="0"
           style="fill:#f3b7d9;stroke-width:0.08153807"
           id="path106"
           d="M 1,1.5682125 H 15 V 4 H 1 Z" />
        <path
           transform="matrix(1.4153996,0,0,1.4153996,7.6733531,11.920442)"
           inkscape:connector-curvature="0"
           style="fill:#9d3a9b;stroke-width:0.08153807"
           id="path108"
           d="M 0,1 V 1.5883789 4 4.5 H 1 5 6 6.00488 V 4.4873047 H 16 V 1 H 1 Z M 1,1.5883789 H 5 V 4 H 1 Z m 5,0 h 4 V 4 H 6 Z m 5,0 h 4 V 4 h -4 z" />
        <path
           transform="matrix(1.4153996,0,0,1.4153996,7.6733531,11.920442)"
           style="fill:#f0e3ec;fill-opacity:1;stroke-width:0.65230453"
           inkscape:connector-curvature="0"
           id="path110"
           d="M 12.5625,2.0019531 A 1.7514399,1.7514399 0 0 0 11.259766,2.6308594 L 9.7011719,4.5 H 15.509766 L 13.951172,2.6308594 A 1.7514399,1.7514399 0 0 0 12.5625,2.0019531 Z M 6,8.2441406 3.8808594,10.009766 a 1.7514399,1.7514399 0 0 0 0,2.691406 L 6,14.466797 Z" />
        <path
           transform="matrix(1.4153996,0,0,1.4153996,7.6733531,11.920442)"
           d="M 12.605379,3.7512036 9.8980999,6.9999384 12.063923,6.4822771 c 0.5849,4.9481429 -2.047929,4.3383889 -4.3316463,4.3316459 L 8.2499381,8.6481003 5.0012033,11.355379 8.2499381,14.062658 7.7322767,11.896835 c 3.9636973,0.483523 5.9612893,-1.117027 5.4145583,-5.4145579 l 2.165823,0.5176613 z"
           id="path112"
           style="fill:none;stroke:#e602b4;stroke-width:0.88298517;stroke-linecap:round;stroke-linejoin:round"
           inkscape:connector-curvature="0" />
        <path
           transform="matrix(1.4153996,0,0,1.4153996,7.6733531,11.920442)"
           inkscape:connector-curvature="0"
           style="fill:#f0e3ec;fill-rule:evenodd;stroke:none;stroke-width:0.08829851"
           id="path114"
           d="M 12.605379,3.7512036 9.8980999,6.9999384 12.063923,6.4822771 c 0.5849,4.9481429 -2.047929,4.3383889 -4.3316463,4.3316459 L 8.2499381,8.6481003 5.0012033,11.355379 8.2499381,14.062658 7.7322767,11.896835 c 3.9636973,0.483523 5.9612893,-1.117027 5.4145583,-5.4145579 l 2.165823,0.5176613 z" />
        <path
           inkscape:connector-curvature="0"
           style="opacity:1;fill:#9d3a9b;stroke-width:0.08153807"
           id="path122"
           d="m 16.228217,12.656402 c -4.140649,0 -7.4999997,3.359351 -7.4999996,7.5 0,4.140649 3.3593516,7.5 7.4999996,7.5 3.78614,0 6.917076,-2.777034 7.425781,-6.417969 l -4.378906,-0.628906 c -0.203085,1.495141 -1.491259,2.621094 -3.046875,2.621094 -1.696453,0 -3.074218,-1.377766 -3.074218,-3.074219 0,-1.696454 1.377765,-3.074219 3.074218,-3.074219 0.848228,0 1.615162,0.345631 2.171875,0.902344 l -1.290897,1.290897 c -0.256984,0.256984 -0.280466,0.413223 -0.209951,0.576941 0.06357,0.147598 0.190092,0.315756 0.526216,0.315756 h 5.494163 c 0.480738,0 0.807374,-0.331798 0.807374,-0.781267 l -0.0086,-5.509752 c 0,-0.310094 -0.112814,-0.480404 -0.272684,-0.543702 -0.16429,-0.06505 -0.379151,-0.01533 -0.638386,0.2439 l -1.274421,1.274414 c -1.35742,-1.357418 -3.234364,-2.195312 -5.304689,-2.195312 z" />
        <path
           inkscape:connector-curvature="0"
           style="fill:#f3b7d9;stroke-width:0.08153807"
           id="path128"
           d="m 16.227607,13.156395 c -3.870212,0 -6.9999994,3.129789 -6.9999994,6.999988 0,3.870236 3.1297874,7.000025 6.9999994,7.000025 3.366612,0 6.140215,-2.350866 6.816405,-5.500007 l -3.390624,-0.484384 c -0.42982,1.487168 -1.805047,2.558589 -3.425781,2.558589 -1.967168,0 -3.574218,-1.607055 -3.574218,-3.574223 0,-1.967169 1.607049,-3.574224 3.574218,-3.574224 0.984052,0 1.881444,0.401008 2.527344,1.046891 0.09493,0.09411 0.148437,0.221859 0.148437,0.355276 0,0.133417 -0.05351,0.261543 -0.148437,0.355654 l -1.328125,1.328126 h 5.492186 c 0.250674,0 0.308595,-0.07408 0.308595,-0.281197 l -0.01173,-5.511723 -1.328125,1.332019 c -0.09393,0.09487 -0.221923,0.148535 -0.355469,0.148535 -0.133546,0 -0.261544,-0.05367 -0.355469,-0.148535 -1.267197,-1.2672 -3.013788,-2.050772 -4.949208,-2.050772 z" />
      </g>
    </g>
  </g>
</svg>
