<?xml version="1.0" encoding="UTF-8" standalone="no"?>
<svg
   xmlns:dc="http://purl.org/dc/elements/1.1/"
   xmlns:cc="http://creativecommons.org/ns#"
   xmlns:rdf="http://www.w3.org/1999/02/22-rdf-syntax-ns#"
   xmlns:svg="http://www.w3.org/2000/svg"
   xmlns="http://www.w3.org/2000/svg"
   xmlns:xlink="http://www.w3.org/1999/xlink"
   xmlns:sodipodi="http://sodipodi.sourceforge.net/DTD/sodipodi-0.dtd"
   xmlns:inkscape="http://www.inkscape.org/namespaces/inkscape"
   height="24"
   viewBox="0 0 6.3499999 6.3500002"
   width="24"
   version="1.1"
   id="svg44"
   sodipodi:docname="lc_runmacro.svg"
   inkscape:version="0.92.4 (unknown)"
   inkscape:export-filename="/home/annisaauliarasyidah/Desktop/4_242 (aulia)/lc 222/lc_runmacro.png"
   inkscape:export-xdpi="96"
   inkscape:export-ydpi="96">
  <metadata
     id="metadata50">
    <rdf:RDF>
      <cc:Work
         rdf:about="">
        <dc:format>image/svg+xml</dc:format>
        <dc:type
           rdf:resource="http://purl.org/dc/dcmitype/StillImage" />
        <dc:title></dc:title>
      </cc:Work>
    </rdf:RDF>
  </metadata>
  <defs
     id="defs48" />
  <sodipodi:namedview
     pagecolor="#ffffff"
     bordercolor="#666666"
     borderopacity="1"
     objecttolerance="10"
     gridtolerance="10"
     guidetolerance="10"
     inkscape:pageopacity="0"
     inkscape:pageshadow="2"
     inkscape:window-width="1366"
     inkscape:window-height="707"
     id="namedview46"
     showgrid="false"
     inkscape:zoom="11.36688"
     inkscape:cx="-2.8241297"
     inkscape:cy="8"
     inkscape:window-x="0"
     inkscape:window-y="0"
     inkscape:window-maximized="1"
     inkscape:current-layer="svg44" />
  <filter
     id="a"
     height="1.0168"
     width="1.0168"
     x="-0.0083999997"
     y="-0.0083999997"
     style="color-interpolation-filters:sRGB">
    <feGaussianBlur
       stdDeviation=".050000868"
       id="feGaussianBlur2" />
  </filter>
  <clipPath
     id="b">
    <path
       d="m 9.5933918,111.19854 -0.4711621,1.3139 v 0.0218 l 0.2786801,1.27958 a 0.22777108,0.22777108 0 0 1 -0.136411,0.25943 l -1.5306499,0.62348 a 0.22777108,0.22777108 0 0 1 -0.2753328,-0.0845 l -0.7372894,-1.10552 a 0.22777108,0.22777108 0 0 1 -8.389e-4,-0.002 l -0.021759,-0.0318 -1.2151468,-0.58246 -0.5933465,0.59334 0.5833039,1.21515 0.033475,0.0226 1.1046788,0.73645 a 0.22777108,0.22777108 0 0 1 0.084525,0.27533 l -0.6234741,1.53065 A 0.22777108,0.22777108 0 0 1 5.813212,117.40038 L 4.533629,117.1217 H 4.512707 l -1.3138984,0.47117 v 0.81344 l 1.3138984,0.47116 H 4.533629 L 5.8132156,118.599 a 0.22777108,0.22777108 0 0 1 0.2594321,0.13641 l 0.6234741,1.53065 a 0.22777108,0.22777108 0 0 1 -0.084525,0.27534 l -1.1046788,0.73729 a 0.22777108,0.22777108 0 0 1 -0.00168,8.6e-4 l -0.031802,0.0218 -0.5833039,1.21432 0.5933465,0.59418 1.2151467,-0.5833 0.021759,-0.0318 a 0.22777108,0.22777108 0 0 1 8.389e-4,-0.002 l 0.7372894,-1.10551 a 0.22777108,0.22777108 0 0 1 0.2753328,-0.0845 l 1.5306499,0.62348 a 0.22777108,0.22777108 0 0 1 0.136411,0.25943 l -0.2786801,1.27959 v 0.0218 l 0.4711621,1.3139 h 0.8134447 l 0.471163,-1.3139 v -0.0218 l -0.27868,-1.27959 a 0.22777108,0.22777108 0 0 1 0.136411,-0.25943 l 1.530649,-0.62348 a 0.22777108,0.22777108 0 0 1 0.275333,0.0845 l 0.736453,1.10551 0.02259,0.0335 1.215147,0.5833 0.594183,-0.59418 -0.583304,-1.21432 -0.0318,-0.0218 a 0.22777108,0.22777108 0 0 1 -0.0017,-8.6e-4 l -1.105515,-0.73729 a 0.22777108,0.22777108 0 0 1 -0.08452,-0.27534 l 0.623474,-1.53065 a 0.22777108,0.22777108 0 0 1 0.259432,-0.13641 l 1.279587,0.27868 h 0.02176 l 1.313899,-0.47116 v -0.81344 l -1.313899,-0.47117 h -0.02176 l -1.279587,0.27868 a 0.22777108,0.22777108 0 0 1 -0.25944,-0.13641 l -0.623474,-1.53065 a 0.22777108,0.22777108 0 0 1 0.08453,-0.27533 l 1.105515,-0.73645 0.03348,-0.0226 0.583304,-1.21515 -0.594184,-0.59335 -1.215146,0.58247 -0.02259,0.0335 -0.736453,1.10552 a 0.22777108,0.22777108 0 0 1 -0.275333,0.0845 l -1.530649,-0.62347 a 0.22777108,0.22777108 0 0 1 -0.136411,-0.25943 l 0.27868,-1.27959 v -0.0218 l -0.471162,-1.3139 z m 0.4067232,4.64635 c 1.184509,0 2.15496,0.97153 2.15496,2.15496 -1.1e-5,1.18338 -0.970446,2.15496 -2.15496,2.15496 -1.1845114,0 -2.1549612,-0.97157 -2.1549612,-2.15496 0,-1.18346 0.9704589,-2.15496 2.1549612,-2.15496 z"
       id="path5"
       inkscape:connector-curvature="0" />
  </clipPath>
  <radialGradient
     id="c"
     cx="64.303314"
     cy="64.505531"
     fx="63.994743"
     fy="51.54562"
     gradientUnits="userSpaceOnUse"
     r="19.637234"
     xlink:href="#d" />
  <linearGradient
     id="d"
     gradientUnits="userSpaceOnUse"
     x1="78.560501"
     x2="40.480499"
     y1="8.0805998"
     y2="36.640598">
    <stop
       offset="0"
       stop-color="#8e79b9"
       id="stop9" />
    <stop
       offset="1"
       stop-color="#462886"
       id="stop11" />
  </linearGradient>
  <filter
     id="e">
    <feGaussianBlur
       stdDeviation=".41550345"
       id="feGaussianBlur14" />
  </filter>
  <linearGradient
     id="f"
     gradientTransform="matrix(0,0.03307292,0.03307292,0,-8.3240518,-0.87669412)"
     gradientUnits="userSpaceOnUse"
     x1="172.56801"
     x2="178.04466"
     xlink:href="#d"
     y1="233.48956"
     y2="367.96475" />
  <g
     id="g897"
     transform="matrix(1.4200693,0,0,1.502403,3.7489444,0.08792983)"
     style="stroke-width:0.68462384">
    <g
       id="g864"
       transform="translate(-2.6433909,-0.06413434)"
       style="stroke-width:0.68462384">
      <g
         id="g830"
         style="stroke-width:0.68462384">
        <path
           inkscape:connector-curvature="0"
           style="fill:#9d3a9b;fill-opacity:1;stroke-width:0.68462384"
           id="path18-3"
           transform="matrix(0.125,0,0,0.125,0,-32.891665)"
           d="m 15.611328,263.16016 a 0.50211348,0.50211348 0 0 0 -0.472656,0.33203 l -1.257813,3.50586 a 0.50211348,0.50211348 0 0 0 -0.0293,0.16992 v 0.19922 a 0.50211348,0.50211348 0 0 0 0.01172,0.10742 l 0.572266,2.62891 -2.802735,1.14257 -1.492187,-2.23828 -0.128906,-0.19726 A 0.50211348,0.50211348 0 0 0 9.8085938,268.63281 L 6.5,267.04688 a 0.50211348,0.50211348 0 0 0 -0.5722656,0.0976 l -1.9179688,1.91797 a 0.50211348,0.50211348 0 0 0 -0.097656,0.57227 L 5.5,272.94141 a 0.50211348,0.50211348 0 0 0 0.1738281,0.20117 l 0.1992188,0.13281 2.2382812,1.49023 -1.1425781,2.80274 -2.6289062,-0.57227 a 0.50211348,0.50211348 0 0 0 -0.1074219,-0.0117 H 4.0351562 a 0.50211348,0.50211348 0 0 0 -0.1699218,0.0293 L 0.359375,278.2715 a 0.50211348,0.50211348 0 0 0 -0.33203125,0.47266 v 2.64453 a 0.50211348,0.50211348 0 0 0 0.33203125,0.47266 l 3.5058594,1.25781 a 0.50211348,0.50211348 0 0 0 0.1699218,0.0293 h 0.1972657 a 0.50211348,0.50211348 0 0 0 0.1074219,-0.0117 L 6.96875,282.56445 8.1113281,285.36719 5.875,286.85938 5.6777344,286.98828 A 0.50211348,0.50211348 0 0 0 5.5,287.19141 l -1.5878906,3.30664 a 0.50211348,0.50211348 0 0 0 0.097656,0.57226 l 1.9179688,1.91992 A 0.50211348,0.50211348 0 0 0 6.5,293.08789 L 9.8085938,291.5 a 0.50211348,0.50211348 0 0 0 0.2031252,-0.17773 l 0.128906,-0.19727 1.492187,-2.23828 2.802735,1.14258 -0.572266,2.6289 a 0.50211348,0.50211348 0 0 0 -0.01172,0.10742 v 0.19922 a 0.50211348,0.50211348 0 0 0 0.0293,0.16993 l 1.257813,3.50585 a 0.50211348,0.50211348 0 0 0 0.472656,0.33204 h 2.644531 a 0.50211348,0.50211348 0 0 0 0.472657,-0.33204 l 1.257812,-3.50585 a 0.50211348,0.50211348 0 0 0 0.0293,-0.16993 v -0.19922 a 0.50211348,0.50211348 0 0 0 -0.01172,-0.10742 l -0.572265,-2.6289 2.800781,-1.14258 1.492187,2.24023 0.132813,0.19922 A 0.50211348,0.50211348 0 0 0 24.058594,291.5 l 3.30664,1.58789 a 0.50211348,0.50211348 0 0 0 0.572266,-0.0977 l 1.919922,-1.91992 a 0.50211348,0.50211348 0 0 0 0.09766,-0.57226 l -1.58789,-3.30664 a 0.50211348,0.50211348 0 0 0 -0.177735,-0.20313 l -0.197265,-0.1289 -2.238282,-1.49219 1.142578,-2.80274 2.628907,0.57227 a 0.50211348,0.50211348 0 0 0 0.107421,0.0117 h 0.199219 a 0.50211348,0.50211348 0 0 0 0.169922,-0.0293 l 3.505859,-1.25781 a 0.50211348,0.50211348 0 0 0 0.332032,-0.47266 v -2.64453 a 0.50211348,0.50211348 0 0 0 -0.332032,-0.47266 l -3.505859,-1.25781 a 0.50211348,0.50211348 0 0 0 -0.169922,-0.0293 h -0.199219 a 0.50211348,0.50211348 0 0 0 -0.107421,0.0117 l -2.628907,0.57227 -1.142578,-2.80078 2.240235,-1.49219 0.199218,-0.13281 a 0.50211348,0.50211348 0 0 0 0.173829,-0.20117 l 1.58789,-3.30664 a 0.50211348,0.50211348 0 0 0 -0.09766,-0.57227 L 27.9375,267.14453 a 0.50211348,0.50211348 0 0 0 -0.572266,-0.0976 l -3.30664,1.58593 a 0.50211348,0.50211348 0 0 0 -0.201172,0.17383 l -0.132813,0.19922 -1.492187,2.24023 -2.800781,-1.14257 0.572265,-2.62891 a 0.50211348,0.50211348 0 0 0 0.01172,-0.10742 v -0.19922 a 0.50211348,0.50211348 0 0 0 -0.0293,-0.16992 l -1.257812,-3.50586 a 0.50211348,0.50211348 0 0 0 -0.472657,-0.33203 z m 1.322266,12.91015 c 2.200128,0 3.996093,1.79839 3.996094,3.9961 -2.2e-5,2.19762 -1.795975,3.99609 -3.996094,3.99609 -2.200111,0 -3.996094,-1.79847 -3.996094,-3.99609 0,-2.1978 1.795963,-3.9961 3.996094,-3.9961 z" />
        <path
           inkscape:connector-curvature="0"
           style="fill:#f0e3ec;fill-opacity:1;stroke-width:0.68462384"
           id="path20-6"
           transform="matrix(0.125,0,0,0.125,0,-32.891665)"
           d="m 15.984375,264.19336 -1.099609,3.06641 v 0.0508 l 0.65039,2.98633 a 0.53157739,0.53157739 0 0 1 -0.318359,0.60546 l -3.572266,1.45508 a 0.53157739,0.53157739 0 0 1 -0.642578,-0.19726 l -1.720703,-2.5801 a 0.53157739,0.53157739 0 0 1 -0.00195,-0.004 l -0.050781,-0.0742 -2.8359375,-1.35937 -1.3847656,1.38476 1.3613281,2.83594 0.078125,0.0527 2.578125,1.71875 a 0.53157739,0.53157739 0 0 1 0.1972656,0.64257 l -1.4550781,3.57227 a 0.53157739,0.53157739 0 0 1 -0.6054687,0.31836 l -2.9863282,-0.65039 h -0.048828 l -3.0664062,1.09961 v 1.89843 l 3.0664062,1.09961 h 0.048828 l 2.9863282,-0.65039 a 0.53157739,0.53157739 0 0 1 0.6054687,0.31836 l 1.4550781,3.57227 a 0.53157739,0.53157739 0 0 1 -0.1972656,0.64258 l -2.578125,1.7207 a 0.53157739,0.53157739 0 0 1 -0.00391,0.002 l -0.074219,0.0508 -1.3613281,2.83399 1.3847656,1.38672 2.8359375,-1.36133 0.050781,-0.0742 a 0.53157739,0.53157739 0 0 1 0.00195,-0.004 l 1.720703,-2.58007 a 0.53157739,0.53157739 0 0 1 0.642578,-0.19727 l 3.572266,1.45508 a 0.53157739,0.53157739 0 0 1 0.318359,0.60547 l -0.65039,2.98633 v 0.0508 l 1.099609,3.0664 h 1.898437 l 1.09961,-3.0664 v -0.0508 l -0.650391,-2.98633 a 0.53157739,0.53157739 0 0 1 0.31836,-0.60547 l 3.572265,-1.45508 a 0.53157739,0.53157739 0 0 1 0.642578,0.19727 l 1.71875,2.58007 0.05273,0.0781 2.835937,1.36133 1.386719,-1.38672 -1.361328,-2.83399 -0.07422,-0.0508 a 0.53157739,0.53157739 0 0 1 -0.0039,-0.002 l -2.580078,-1.7207 a 0.53157739,0.53157739 0 0 1 -0.197266,-0.64258 l 1.455078,-3.57227 a 0.53157739,0.53157739 0 0 1 0.605469,-0.31836 l 2.986328,0.65039 h 0.05078 l 3.066407,-1.09961 v -1.89843 l -3.066407,-1.09961 h -0.05078 l -2.986328,0.65039 a 0.53157739,0.53157739 0 0 1 -0.605469,-0.31836 l -1.455078,-3.57227 a 0.53157739,0.53157739 0 0 1 0.197266,-0.64257 l 2.580078,-1.71875 0.07813,-0.0527 1.361328,-2.83594 -1.386719,-1.38476 -2.835937,1.35937 -0.05273,0.0781 -1.71875,2.58008 a 0.53157739,0.53157739 0 0 1 -0.642578,0.19726 l -3.572265,-1.45508 a 0.53157739,0.53157739 0 0 1 -0.31836,-0.60546 l 0.650391,-2.98633 v -0.0508 l -1.09961,-3.06641 z m 0.949219,10.84375 c 2.764436,0 5.029297,2.2674 5.029297,5.0293 -2.7e-5,2.76181 -2.264851,5.02929 -5.029297,5.02929 -2.764439,0 -5.029297,-2.26747 -5.029297,-5.02929 0,-2.76197 2.264879,-5.0293 5.029297,-5.0293 z" />
      </g>
      <path
         d="m 15.984375,264.19336 -1.099609,3.06641 v 0.0508 l 0.65039,2.98633 a 0.53157739,0.53157739 0 0 1 -0.318359,0.60546 l -3.572266,1.45508 a 0.53157739,0.53157739 0 0 1 -0.642578,-0.19726 l -1.720703,-2.5801 a 0.53157739,0.53157739 0 0 1 -0.00195,-0.004 l -0.050781,-0.0742 -2.8359375,-1.35937 -1.3847656,1.38476 1.3613281,2.83594 0.078125,0.0527 2.578125,1.71875 a 0.53157739,0.53157739 0 0 1 0.1972656,0.64257 l -1.4550781,3.57227 a 0.53157739,0.53157739 0 0 1 -0.6054687,0.31836 l -2.9863282,-0.65039 h -0.048828 l -3.0664062,1.09961 v 1.89843 l 3.0664062,1.09961 h 0.048828 l 2.9863282,-0.65039 a 0.53157739,0.53157739 0 0 1 0.6054687,0.31836 l 1.4550781,3.57227 a 0.53157739,0.53157739 0 0 1 -0.1972656,0.64258 l -2.578125,1.7207 a 0.53157739,0.53157739 0 0 1 -0.00391,0.002 l -0.074219,0.0508 -1.3613281,2.83399 1.3847656,1.38672 2.8359375,-1.36133 0.050781,-0.0742 a 0.53157739,0.53157739 0 0 1 0.00195,-0.004 l 1.720703,-2.58007 a 0.53157739,0.53157739 0 0 1 0.642578,-0.19727 l 3.572266,1.45508 a 0.53157739,0.53157739 0 0 1 0.318359,0.60547 l -0.65039,2.98633 v 0.0508 l 1.099609,3.0664 h 1.898437 l 1.09961,-3.0664 v -0.0508 l -0.650391,-2.98633 a 0.53157739,0.53157739 0 0 1 0.31836,-0.60547 l 3.572265,-1.45508 a 0.53157739,0.53157739 0 0 1 0.642578,0.19727 l 1.71875,2.58007 0.05273,0.0781 2.835937,1.36133 1.386719,-1.38672 -1.361328,-2.83399 -0.07422,-0.0508 a 0.53157739,0.53157739 0 0 1 -0.0039,-0.002 l -2.580078,-1.7207 a 0.53157739,0.53157739 0 0 1 -0.197266,-0.64258 l 1.455078,-3.57227 a 0.53157739,0.53157739 0 0 1 0.605469,-0.31836 l 2.986328,0.65039 h 0.05078 l 3.066407,-1.09961 v -1.89843 l -3.066407,-1.09961 h -0.05078 l -2.986328,0.65039 a 0.53157739,0.53157739 0 0 1 -0.605469,-0.31836 l -1.455078,-3.57227 a 0.53157739,0.53157739 0 0 1 0.197266,-0.64257 l 2.580078,-1.71875 0.07813,-0.0527 1.361328,-2.83594 -1.386719,-1.38476 -2.835937,1.35937 -0.05273,0.0781 -1.71875,2.58008 a 0.53157739,0.53157739 0 0 1 -0.642578,0.19726 l -3.572265,-1.45508 a 0.53157739,0.53157739 0 0 1 -0.31836,-0.60546 l 0.650391,-2.98633 v -0.0508 l -1.09961,-3.06641 z m 0.949219,10.84375 c 2.764436,0 5.029297,2.2674 5.029297,5.0293 -2.7e-5,2.76181 -2.264851,5.02929 -5.029297,5.02929 -2.764439,0 -5.029297,-2.26747 -5.029297,-5.02929 0,-2.76197 2.264879,-5.0293 5.029297,-5.0293 z"
         id="path67"
         transform="matrix(0.125,0,0,0.125,0,-32.891665)"
         inkscape:connector-curvature="0"
         style="fill:#f0f0f0;stroke-width:0.68462384" />
    </g>
    <path
       d="M 0.94614222,1.1916337 C 0.74408535,1.1850712 0.60230673,1.32831 0.5811521,1.5219563 H -0.05898453 A 0.23584041,0.23584041 0 0 0 -0.2948244,1.7577962 v 0.5292963 a 0.23584041,0.23584041 0 0 0 0.23583987,0.23584 H 0.57529273 C 0.58784243,2.6485662 0.65187983,2.75788 0.76889623,2.81639 0.89792873,2.880904 1.0396289,2.868296 1.1553707,2.781721 A 0.23584041,0.23584041 0 0 0 1.1692867,2.770496 L 1.6983393,2.307361 1.6846673,2.318348 C 1.7803653,2.246452 1.83164,2.140473 1.83164,2.0234267 1.83164,1.9063792 1.780368,1.8004042 1.6846673,1.7285042 l 0.013672,0.010988 -0.5290526,-0.46289 a 0.23584041,0.23584041 0 0 0 -0.012939,-0.0105 C 1.0952293,1.2198675 1.0235408,1.1944463 0.94711897,1.19164 a 0.23584041,0.23584041 0 0 0 -9.7499e-4,0 z"
       id="path36"
       inkscape:connector-curvature="0"
       style="fill:#f3b7d9;stroke-width:0.08557798" />
    <circle
       cx="-0.51050246"
       cy="2.0574293"
       r="0.52326494"
       id="circle38"
       style="fill:#e602b4;stroke-width:0.01968453" />
    <path
       d="m -0.05888677,2.319977 h 0.85989574 v 0.1994712 c 6.613e-5,0.049084 0.0294787,0.096905 0.0733805,0.1188562 0.0439017,0.02195 0.10022275,0.016999 0.13952653,-0.0124 L 1.5430825,2.1628832 c 0.032875,-0.024699 0.05271,-0.065334 0.05271,-0.1064538 0,-0.041119 -0.019835,-0.081754 -0.05271,-0.1064525 L 1.013916,1.4869557 C 0.9922902,1.4705957 0.9655665,1.4610797 0.9384683,1.4600847 0.8672699,1.4577747 0.80087667,1.5221737 0.80100892,1.5934097 v 0.1974035 h -0.85989574 z"
       id="path40"
       style="fill:#e602b4;stroke-width:0.08557798"
       inkscape:connector-curvature="0" />
  </g>
</svg>
