<?xml version="1.0" encoding="UTF-8" standalone="no"?>
<svg
   xmlns:dc="http://purl.org/dc/elements/1.1/"
   xmlns:cc="http://creativecommons.org/ns#"
   xmlns:rdf="http://www.w3.org/1999/02/22-rdf-syntax-ns#"
   xmlns:svg="http://www.w3.org/2000/svg"
   xmlns="http://www.w3.org/2000/svg"
   xmlns:xlink="http://www.w3.org/1999/xlink"
   xmlns:sodipodi="http://sodipodi.sourceforge.net/DTD/sodipodi-0.dtd"
   xmlns:inkscape="http://www.inkscape.org/namespaces/inkscape"
   height="24"
   viewBox="0 0 6.3499999 6.3500002"
   width="24"
   version="1.1"
   id="svg62"
   sodipodi:docname="lc_redo.svg"
   inkscape:version="0.92.4 (unknown)"
   inkscape:export-filename="/home/annisaauliarasyidah/Desktop/4_242 (aulia)/lc done/lc/lc_redo.png"
   inkscape:export-xdpi="96"
   inkscape:export-ydpi="96">
  <metadata
     id="metadata68">
    <rdf:RDF>
      <cc:Work
         rdf:about="">
        <dc:format>image/svg+xml</dc:format>
        <dc:type
           rdf:resource="http://purl.org/dc/dcmitype/StillImage" />
        <dc:title></dc:title>
      </cc:Work>
    </rdf:RDF>
  </metadata>
  <defs
     id="defs66" />
  <sodipodi:namedview
     pagecolor="#ffffff"
     bordercolor="#666666"
     borderopacity="1"
     objecttolerance="10"
     gridtolerance="10"
     guidetolerance="10"
     inkscape:pageopacity="0"
     inkscape:pageshadow="2"
     inkscape:window-width="1366"
     inkscape:window-height="707"
     id="namedview64"
     showgrid="true"
     inkscape:zoom="20.784725"
     inkscape:cx="6.8652847"
     inkscape:cy="13.775507"
     inkscape:window-x="0"
     inkscape:window-y="0"
     inkscape:window-maximized="1"
     inkscape:current-layer="svg62">
    <inkscape:grid
       type="xygrid"
       id="grid875" />
  </sodipodi:namedview>
  <linearGradient
     id="a"
     gradientUnits="userSpaceOnUse"
     x1="38.895172"
     x2="121.59636"
     xlink:href="#d"
     y1="66.665695"
     y2="66.665695"
     gradientTransform="matrix(-0.04960937,0,0,0.04960937,6.085448,-1.322884)" />
  <radialGradient
     id="b"
     cx="130.66731"
     cy="99.297249"
     gradientTransform="matrix(-0.01871001,0.01559167,0.02595383,0.03114461,-0.27782634,-2.0873485)"
     gradientUnits="userSpaceOnUse"
     r="42.423828"
     xlink:href="#h" />
  <radialGradient
     id="c"
     cx="-21.265898"
     cy="159.71365"
     gradientTransform="matrix(0.01415604,0.01981845,0.02182834,-0.01559167,-0.55258639,5.8219149)"
     gradientUnits="userSpaceOnUse"
     r="42.423828"
     xlink:href="#h" />
  <linearGradient
     id="d"
     gradientTransform="matrix(-0.04960937,0,0,0.04960937,11.390131,-0.516099)"
     gradientUnits="userSpaceOnUse"
     x1="7.157289"
     x2="7.186738"
     y1="63.928764"
     y2="156.35773">
    <stop
       offset="0"
       stop-color="#50be00"
       id="stop5" />
    <stop
       offset="1"
       stop-color="#227a00"
       id="stop7" />
  </linearGradient>
  <radialGradient
     id="e"
     cx="59.158207"
     cy="76.780846"
     gradientTransform="matrix(-0.04960937,0,0,0.03923695,4.4898091,-0.49910464)"
     gradientUnits="userSpaceOnUse"
     r="37.0877">
    <stop
       offset="0"
       stop-color="#8fe558"
       id="stop10" />
    <stop
       offset="1"
       stop-color="#149c06"
       id="stop12" />
  </radialGradient>
  <radialGradient
     id="f"
     cx="80.245766"
     cy="66.666382"
     gradientTransform="matrix(-0.04960937,0,0,0.03996286,6.085448,-0.67978578)"
     gradientUnits="userSpaceOnUse"
     r="39.883144"
     xlink:href="#d" />
  <radialGradient
     id="g"
     cx="85.333977"
     cy="47.086971"
     gradientTransform="matrix(-0.04053834,-0.00311833,-9.5666114e-4,0.0124366,5.3564274,0.87112308)"
     gradientUnits="userSpaceOnUse"
     r="42.423828">
    <stop
       offset="0"
       stop-color="#fff"
       id="stop16" />
    <stop
       offset="1"
       stop-color="#fff"
       stop-opacity="0"
       id="stop18" />
  </radialGradient>
  <linearGradient
     id="h">
    <stop
       offset="0"
       id="stop21" />
    <stop
       offset="1"
       stop-opacity="0"
       id="stop23" />
  </linearGradient>
  <linearGradient
     id="i"
     gradientUnits="userSpaceOnUse"
     x1="71.809433"
     x2="72.415733"
     y1="30.338589"
     y2="76.767159"
     gradientTransform="matrix(-0.04960937,0,0,0.04960937,6.085448,-1.322884)">
    <stop
       offset="0"
       stop-color="#fffe63"
       id="stop26" />
    <stop
       offset="1"
       stop-color="#fff"
       stop-opacity="0"
       id="stop28" />
  </linearGradient>
  <radialGradient
     id="j"
     cx="61.745636"
     cy="81.787704"
     gradientTransform="matrix(-0.02979338,-6.8500221e-4,-6.8601325e-4,0.02983736,4.9180044,0.1540498)"
     gradientUnits="userSpaceOnUse"
     r="53.588345">
    <stop
       offset="0"
       stop-color="#eaf209"
       id="stop31" />
    <stop
       offset="1"
       stop-color="#c7c634"
       stop-opacity="0"
       id="stop33" />
  </radialGradient>
  <radialGradient
     id="k"
     cx="79.842957"
     cy="8.71136"
     gradientTransform="matrix(0.00213801,0.04956328,0.01342852,-5.7926629e-4,-0.19105186,-1.4706671)"
     gradientUnits="userSpaceOnUse"
     r="55.883793"
     xlink:href="#h" />
  <radialGradient
     id="l"
     cx="86.40406"
     cy="355.98929"
     gradientTransform="matrix(0.02485514,0.01961359,0.01280352,-0.01622515,-1.2699547,6.9514571)"
     gradientUnits="userSpaceOnUse"
     r="55.883793"
     xlink:href="#h" />
  <path
     inkscape:connector-curvature="0"
     style="fill:#9d3a9b;stroke-width:0.04960938"
     id="path38"
     d="m 4.4024218,0.26492644 c 0.074841,0.002326 0.143456,0.033504 0.2050792,0.0771583 a 0.19968068,0.2138018 0 0 1 0.060223,0.0421004 L 6.1291508,1.8843235 a 0.19968068,0.2138018 0 0 1 0.00161,0.00157 c 0.023314,0.024438 0.042444,0.053099 0.056569,0.084671 l -0.038742,-0.058691 c 0.1046205,0.112179 0.2012788,0.2751536 0.2012788,0.4779785 0,0.2083454 -0.092381,0.3782513 -0.1919237,0.5050543 a 0.19968068,0.2138018 0 0 1 -0.011692,0.013617 l 0.011254,-0.01331 c -0.00834,0.010596 -0.017533,0.021336 -0.027773,0.031927 a 0.19968068,0.2138018 0 0 1 -0.00146,0.00142 l -4.396e-4,3.126e-4 -1.4568953,1.487148 c -3e-7,4e-7 -8.523e-4,6.09e-4 -8.771e-4,6.25e-4 a 0.19968068,0.2138018 0 0 1 -0.0019,0.00204 c -9.797e-4,0.00101 -0.00237,8.774e-4 -0.00336,0.00187 -0.0057,0.00418 -0.016484,0.012018 -0.031281,0.02285 0.012748,-0.00959 0.019298,-0.014586 0.027773,-0.020973 C 4.5401998,4.5427642 4.3731145,4.5676734 4.2350522,4.5050658 4.0947223,4.4414099 3.991339,4.2928972 3.9913864,4.1112907 V 3.2567518 H 1.6165315 c -0.00511,0.00304 -0.011375,0.00764 -0.011993,0.0083 -6.735e-4,6.811e-4 -0.00493,0.0074 -0.00775,0.012841 v 2.0922117 0.02332 C 1.5967446,5.6282574 1.4167911,5.8209354 1.1974567,5.8209947 H 0.39921237 C 0.17987875,5.8209354 -7.5546353e-5,5.6282574 -1.2943116e-4,5.393412 V 3.6840212 3.683861 C -1.2045037e-4,3.6453239 0.00418884,3.6425957 0.00834844,3.6265786 0.00447922,3.5791026 -6.132746e-5,3.5279098 -1.2943116e-4,3.4660013 a 0.19968068,0.2138018 0 0 1 0,-3.126e-4 v -1.602e-4 a 0.19968068,0.2138018 0 0 1 0,-1.602e-4 L 2.0248862e-5,3.2564279 C 2.0248862e-5,2.6937101 0.10604459,2.2531525 0.38284486,1.9567776 0.65964513,1.6604027 1.0711043,1.5468806 1.5966563,1.5468806 H 2.394897 l 1.5964894,4.728e-4 V 0.69219588 C 3.9913479,0.4525389 4.1788413,0.25795332 4.4024218,0.26492644 Z" />
  <path
     style="fill:#f3b7d9;stroke-width:0.04960938"
     inkscape:connector-curvature="0"
     id="path40"
     d="m 4.3968194,0.46843995 c 0.052328,0.001614 0.1021886,0.0241758 0.1397403,0.0632298 l 1.461524,1.50003415 -0.00745,-0.00735 c 0.094092,0.088985 0.169121,0.2206437 0.169121,0.3654483 0,0.1448042 -0.063741,0.2675606 -0.1473406,0.3740564 -0.0046,0.0058 -0.00949,0.011323 -0.014618,0.01659 L 4.5362673,4.271973 C 4.4035947,4.4095699 4.181641,4.3090063 4.1815081,4.111239 V 3.0530813 l -2.584807,5.23e-5 c -0.030093,5e-7 -0.084613,0.023008 -0.1265842,0.067925 -0.041972,0.044918 -0.063439,0.1032142 -0.063439,0.1353807 v 2.1136535 0.023268 C 1.4066593,5.5170457 1.3130209,5.617306 1.1975061,5.6173253 H 0.39921237 C 0.28369757,5.6173051 0.1900585,5.5170439 0.19003979,5.3933602 V 3.6838647 c 3.817e-5,-0.021409 0.002942,-0.042703 0.008625,-0.06323 -0.003682,-0.051312 -0.008566,-0.1019284 -0.008625,-0.1549433 v -3.13e-4 C 0.19006224,2.2848127 0.39921237,1.7606824 2.3949461,1.7504056 h 1.497e-4 c 0.049625,2.36e-5 0.096986,0.00531 0.1450023,0.00924 0.019123,-0.00607 0.038958,-0.00917 0.058904,-0.00924 H 4.1815079 V 0.69224789 c 5.08e-5,-0.12623506 0.097464,-0.22749237 0.2153115,-0.22380794 z" />
</svg>
