<?xml version="1.0" encoding="UTF-8" standalone="no"?>
<svg
   xmlns:dc="http://purl.org/dc/elements/1.1/"
   xmlns:cc="http://creativecommons.org/ns#"
   xmlns:rdf="http://www.w3.org/1999/02/22-rdf-syntax-ns#"
   xmlns:svg="http://www.w3.org/2000/svg"
   xmlns="http://www.w3.org/2000/svg"
   xmlns:xlink="http://www.w3.org/1999/xlink"
   xmlns:sodipodi="http://sodipodi.sourceforge.net/DTD/sodipodi-0.dtd"
   xmlns:inkscape="http://www.inkscape.org/namespaces/inkscape"
   height="24"
   width="24"
   version="1.1"
   id="svg71"
   sodipodi:docname="lc_scaletext.svg"
   inkscape:version="0.92.4 (unknown)"
   inkscape:export-filename="/home/annisaauliarasyidah/Desktop/4_242 (aulia)/lc 222/lc_scaletext.png"
   inkscape:export-xdpi="96"
   inkscape:export-ydpi="96">
  <metadata
     id="metadata77">
    <rdf:RDF>
      <cc:Work
         rdf:about="">
        <dc:format>image/svg+xml</dc:format>
        <dc:type
           rdf:resource="http://purl.org/dc/dcmitype/StillImage" />
        <dc:title></dc:title>
      </cc:Work>
    </rdf:RDF>
  </metadata>
  <defs
     id="defs75" />
  <sodipodi:namedview
     pagecolor="#ffffff"
     bordercolor="#666666"
     borderopacity="1"
     objecttolerance="10"
     gridtolerance="10"
     guidetolerance="10"
     inkscape:pageopacity="0"
     inkscape:pageshadow="2"
     inkscape:window-width="1366"
     inkscape:window-height="707"
     id="namedview73"
     showgrid="true"
     inkscape:zoom="16.075196"
     inkscape:cx="-2.6388623"
     inkscape:cy="8"
     inkscape:window-x="0"
     inkscape:window-y="0"
     inkscape:window-maximized="1"
     inkscape:current-layer="svg71">
    <inkscape:grid
       type="xygrid"
       id="grid884" />
  </sodipodi:namedview>
  <linearGradient
     id="a"
     gradientUnits="userSpaceOnUse"
     x1="8.2127934"
     x2="8.2127934"
     y1="-13.821526"
     y2="-1.400359">
    <stop
       offset="0"
       stop-color="#06f"
       id="stop2" />
    <stop
       offset="1"
       stop-color="#80b3ff"
       id="stop4" />
  </linearGradient>
  <linearGradient
     id="b"
     gradientUnits="userSpaceOnUse"
     x1="104.00001"
     x2="152"
     y1="123.99997"
     y2="79.999985"
     gradientTransform="scale(0.125)">
    <stop
       offset="0"
       stop-color="#0968ef"
       id="stop7" />
    <stop
       offset="1"
       stop-color="#aecffc"
       id="stop9" />
  </linearGradient>
  <g
     id="g874"
     transform="matrix(1.4666667,0,0,1.4666667,0.99999975,0.99999975)"
     style="stroke-width:0.68181819">
    <rect
       height="13"
       rx="0.022714125"
       ry="0.025329625"
       width="13"
       x="1"
       y="1"
       id="rect12"
       style="fill:#618fd2;fill-opacity:0.09195401;stroke-width:0.09643508" />
    <path
       d="M 14,7 V 7.9837932 H 13 V 7 Z"
       id="path14"
       inkscape:connector-curvature="0"
       style="fill:#f3b7d9;stroke-width:0.08522727" />
    <use
       style="fill:#9d3a9b;stroke-width:0.68181819"
       height="128"
       transform="translate(0,13)"
       width="128"
       xlink:href="#c"
       id="use16"
       x="0"
       y="0" />
    <use
       style="fill:#9d3a9b;stroke-width:0.68181819"
       height="128"
       transform="translate(13,13)"
       width="128"
       xlink:href="#c"
       id="use18"
       x="0"
       y="0" />
    <rect
       id="c"
       height="2"
       rx="0.025798749"
       ry="0.031160999"
       transform="scale(1,-1)"
       width="2"
       y="-2"
       style="fill:#9d3a9b;stroke-width:0.08522727"
       x="0" />
    <path
       inkscape:connector-curvature="0"
       id="path21"
       d="M 14,9.0162068 V 10 H 13 V 9.0162068 Z"
       style="fill:#f3b7d9;stroke-width:0.08522727" />
    <path
       inkscape:connector-curvature="0"
       id="path23"
       d="M 14.020024,11.016206 V 12 h -1 v -0.983794 z"
       style="fill:#f3b7d9;stroke-width:0.08522727" />
    <path
       inkscape:connector-curvature="0"
       id="path25"
       d="M 10,13.016206 V 14 H 9 v -0.983794 z"
       style="fill:#f3b7d9;stroke-width:0.08522727" />
    <path
       inkscape:connector-curvature="0"
       id="path27"
       d="M 8,13.016206 V 14 H 7 v -0.983794 z"
       style="fill:#f3b7d9;stroke-width:0.08522727" />
    <path
       inkscape:connector-curvature="0"
       id="path29"
       d="M 6,13.016206 V 14 H 5 v -0.983794 z"
       style="fill:#f3b7d9;stroke-width:0.08522727" />
    <path
       inkscape:connector-curvature="0"
       id="path31"
       d="M 4,13.016206 V 14 H 3 v -0.983794 z"
       style="fill:#f3b7d9;stroke-width:0.08522727" />
    <path
       inkscape:connector-curvature="0"
       id="path33"
       d="M 10,1.0000005 V 1.9837942 H 9 V 1.0000005 Z"
       style="fill:#f3b7d9;stroke-width:0.08522727" />
    <path
       inkscape:connector-curvature="0"
       id="path35"
       d="M 8,1.0000005 V 1.9837942 H 7 V 1.0000005 Z"
       style="fill:#f3b7d9;stroke-width:0.08522727" />
    <path
       inkscape:connector-curvature="0"
       id="path37"
       d="M 6,1.0000005 V 1.9837942 H 5 V 1.0000005 Z"
       style="fill:#f3b7d9;stroke-width:0.08522727" />
    <path
       inkscape:connector-curvature="0"
       id="path39"
       d="M 4,1.0000005 V 1.9837942 H 3 V 1.0000005 Z"
       style="fill:#f3b7d9;stroke-width:0.08522727" />
    <path
       inkscape:connector-curvature="0"
       id="path41"
       d="M 1.9837925,11 H 0.99999875 V 10 H 1.9837925 Z"
       style="fill:#f3b7d9;stroke-width:0.08522727" />
    <path
       inkscape:connector-curvature="0"
       id="path43"
       d="M 1.9837925,9 H 0.99999875 V 8 H 1.9837925 Z"
       style="fill:#f3b7d9;stroke-width:0.08522727" />
    <path
       inkscape:connector-curvature="0"
       id="path45"
       d="M 1.9837925,7 H 0.99999875 V 6 H 1.9837925 Z"
       style="fill:#f3b7d9;stroke-width:0.08522727" />
    <path
       inkscape:connector-curvature="0"
       id="path47"
       d="M 1.9837925,5 H 0.99999875 V 4 H 1.9837925 Z"
       style="fill:#f3b7d9;stroke-width:0.08522727" />
    <path
       inkscape:connector-curvature="0"
       id="path49"
       d="M 1.9837937,13 H 1 v -1 h 0.9837937 z"
       style="fill:#f3b7d9;stroke-width:0.08522727" />
    <path
       inkscape:connector-curvature="0"
       id="path51"
       d="M 2,2.0162067 V 3 H 1 V 2.0162068 Z"
       style="fill:#f3b7d9;stroke-width:0.08522727" />
    <path
       inkscape:connector-curvature="0"
       id="path53"
       d="M 14,5 V 5.9837932 H 13 V 5 Z"
       style="fill:#f3b7d9;stroke-width:0.08522727" />
    <path
       inkscape:connector-curvature="0"
       id="path55"
       d="M 14,3 V 3.9837932 H 13 V 3 Z"
       style="fill:#f3b7d9;stroke-width:0.08522727" />
    <use
       style="fill:#9d3a9b;stroke-width:0.68181819"
       height="128"
       transform="translate(13)"
       width="128"
       xlink:href="#c"
       id="use59"
       x="0"
       y="0" />
    <path
       d="m 12,13 v 0.983794 H 11 V 13 Z"
       id="path61"
       inkscape:connector-curvature="0"
       style="fill:#f3b7d9;stroke-width:0.08522727" />
    <path
       d="M 12,1.0162062 V 2 H 11 V 1.0162062 Z"
       id="path63"
       inkscape:connector-curvature="0"
       style="fill:#f3b7d9;stroke-width:0.08522727" />
    <path
       d="m 5,4.9999967 v 0.9999992 l 5,5.0000031 H 6.9999997 v 1 H 12 v -1 -4.0000039 H 11 V 10 L 5.9999999,4.9999967 Z"
       id="path65"
       style="fill:#9d3a9b;stroke-width:2.57695031"
       inkscape:connector-curvature="0" />
    <path
       d="M 4,2.5 H 3.3248143 C 2.6246219,2.5 2.1536585,2.5829984 1.911925,2.7489953 1.6785273,2.9150006 1.4868078,3.2939008 1.3367665,3.8857086 H 1.0366837 l 0.075021,-1.8403888 h 6.969743 l 0.075021,1.8403888 H 7.8563851 C 7.71468,3.2866739 7.5229604,2.9077738 7.2812262,2.7489953 7.0478299,2.5829984 6.5768666,2.5 5.8683375,2.5 H 5.1931519 v 4.6798005 0.8521853 c 0,0.3969548 0.070855,0.6531596 0.2125583,0.768641 C 5.5474155,8.916099 5.8766731,8.9846649 6.3934821,9.006316 V 9.2120095 H 2.8246765 V 9.006316 C 3.3414864,8.9774317 3.6665751,8.9052804 3.799945,8.789799 3.933315,8.6671039 4,8.3748115 4,7.9129041 Z"
       id="path67"
       inkscape:connector-curvature="0"
       style="fill:#9d3a9b;stroke-width:0.10086665" />
  </g>
</svg>
