<?xml version="1.0" encoding="UTF-8" standalone="no"?>
<svg
   xmlns:dc="http://purl.org/dc/elements/1.1/"
   xmlns:cc="http://creativecommons.org/ns#"
   xmlns:rdf="http://www.w3.org/1999/02/22-rdf-syntax-ns#"
   xmlns:svg="http://www.w3.org/2000/svg"
   xmlns="http://www.w3.org/2000/svg"
   xmlns:xlink="http://www.w3.org/1999/xlink"
   xmlns:sodipodi="http://sodipodi.sourceforge.net/DTD/sodipodi-0.dtd"
   xmlns:inkscape="http://www.inkscape.org/namespaces/inkscape"
   height="16"
   width="16"
   version="1.1"
   id="svg121"
   sodipodi:docname="sc_definename.svg"
   inkscape:version="0.92.3 (2405546, 2018-03-11)">
  <metadata
     id="metadata127">
    <rdf:RDF>
      <cc:Work
         rdf:about="">
        <dc:format>image/svg+xml</dc:format>
        <dc:type
           rdf:resource="http://purl.org/dc/dcmitype/StillImage" />
        <dc:title></dc:title>
      </cc:Work>
    </rdf:RDF>
  </metadata>
  <defs
     id="defs125" />
  <sodipodi:namedview
     pagecolor="#ffffff"
     bordercolor="#666666"
     borderopacity="1"
     objecttolerance="10"
     gridtolerance="10"
     guidetolerance="10"
     inkscape:pageopacity="0"
     inkscape:pageshadow="2"
     inkscape:window-width="1366"
     inkscape:window-height="705"
     id="namedview123"
     showgrid="true"
     inkscape:zoom="20.85965"
     inkscape:cx="5.8352607"
     inkscape:cy="7.4796654"
     inkscape:window-x="-8"
     inkscape:window-y="-8"
     inkscape:window-maximized="1"
     inkscape:current-layer="svg121">
    <inkscape:grid
       type="xygrid"
       id="grid934" />
  </sodipodi:namedview>
  <radialGradient
     id="a"
     cx="68.138977"
     cy="89.42041"
     fx="67.932365"
     fy="72.691223"
     gradientTransform="matrix(1.5860719 .07936281 .06485072 -1.2953772 -42.110576 142.50266)"
     gradientUnits="userSpaceOnUse"
     r="47.5"
     xlink:href="#b" />
  <linearGradient
     id="b">
    <stop
       offset="0"
       stop-color="#fff"
       id="stop3" />
    <stop
       offset="1"
       stop-color="#fff"
       stop-opacity="0"
       id="stop5" />
  </linearGradient>
  <linearGradient
     id="c"
     gradientTransform="matrix(.94173025 0 0 -.94148681 3.277996 124.93147)"
     gradientUnits="userSpaceOnUse"
     x1="47.236164"
     x2="72"
     xlink:href="#d"
     y1="22.150356"
     y2="116.40091" />
  <linearGradient
     id="d">
    <stop
       offset="0"
       stop-color="#eeecec"
       id="stop9" />
    <stop
       offset=".40000001"
       stop-color="#f4f4f4"
       id="stop11" />
    <stop
       offset="1"
       stop-color="#f6f5f5"
       id="stop13" />
  </linearGradient>
  <filter
     id="e">
    <feGaussianBlur
       stdDeviation="2.028"
       id="feGaussianBlur16" />
  </filter>
  <filter
     id="f">
    <feGaussianBlur
       stdDeviation="2.7153804"
       id="feGaussianBlur19" />
  </filter>
  <filter
     id="g">
    <feGaussianBlur
       stdDeviation="1.4118335"
       id="feGaussianBlur22" />
  </filter>
  <linearGradient
     id="h"
     gradientTransform="matrix(1 0 0 -.9166666 .000001 126.14751)"
     gradientUnits="userSpaceOnUse"
     x1="73.806656"
     x2="73.806656"
     y1="109.77973"
     y2="24">
    <stop
       offset="0"
       stop-color="#323232"
       id="stop25" />
    <stop
       offset="1"
       stop-color="#888"
       stop-opacity=".942308"
       id="stop27" />
  </linearGradient>
  <filter
     id="i"
     height="1.203789"
     width="1.062704"
     x="-.031352"
     y="-.101895">
    <feGaussianBlur
       stdDeviation="1.3585955"
       id="feGaussianBlur30" />
  </filter>
  <filter
     id="j"
     height="1.255"
     width="1.078462"
     x="-.039231"
     y="-.1275">
    <feGaussianBlur
       stdDeviation="1.5209435"
       id="feGaussianBlur33" />
  </filter>
  <linearGradient
     id="k"
     gradientTransform="matrix(1 0 0 -1 .000001 136.14751)"
     gradientUnits="userSpaceOnUse"
     x1="41.553089"
     x2="41.553089"
     y1="87.999931"
     y2="118.60538">
    <stop
       offset="0"
       stop-color="#bbb"
       id="stop36" />
    <stop
       offset="1"
       stop-color="#f6f6f6"
       id="stop38" />
  </linearGradient>
  <linearGradient
     id="l"
     gradientTransform="matrix(.94173025 0 0 -.94148681 -4.722004 140.93147)"
     gradientUnits="userSpaceOnUse"
     x1="47.236164"
     x2="72"
     xlink:href="#d"
     y1="22.150356"
     y2="116.40091" />
  <radialGradient
     id="m"
     cx="68.138977"
     cy="89.42041"
     fx="67.932365"
     fy="72.691223"
     gradientTransform="matrix(1.5860719 .07936281 .06485072 -1.2953772 -50.110576 158.50266)"
     gradientUnits="userSpaceOnUse"
     r="47.5"
     xlink:href="#b" />
  <g
     transform="matrix(0.125,0,0,-0.125,0,16.019768)"
     id="g119">
    <path
       d="m 12.000001,49.14751 16,55 H 100 l 16,-55 V 45.480844 L 112,16.14751 H 16.000001 l -4,29.333334 z"
       id="path43"
       inkscape:connector-curvature="0"
       style="fill:#f0e3ec;fill-rule:evenodd" />
    <path
       d="m 12.000001,48.14751 16,56 H 100 l 16,-56 h -4 l -13.999999,52 h -68 l -14,-52 z"
       id="path45"
       inkscape:connector-curvature="0"
       style="fill:#f3b7d9;fill-rule:evenodd" />
    <g
       transform="translate(-8)"
       id="g73">
      <g
         transform="matrix(1,0,0,-1,0,128.14751)"
         id="g57">
        <path
           d="m 72,8.5332031 -9.541016,0.044919 c -1.577682,0 -3.687814,0.5354618 -6.59375,3.4199219 -8.353294,8.2916 -14.207219,13.9539 -21.042969,20.914062 -2.29836,2.340224 -2.824218,4.247768 -2.824218,6.388672 L 32,120 h 39.761719 v 0.0332 L 112,120 112.002,39.300781 c 0,-2.140904 -0.52586,-4.048448 -2.82422,-6.388672 C 102.34198,25.951947 96.48806,20.289647 88.134766,11.998047 85.22883,9.1135869 83.118698,8.578125 81.541016,8.578125 L 72,8.5664062 Z"
           id="path51"
           inkscape:connector-curvature="0"
           style="fill:#e602b4" />
        <path
           d="m 64.349609,14.269531 c -1.578675,0.0833 -2.804636,0.726938 -3.912109,1.486328 -0.990574,0.274 -11.990455,12.654706 -20.580078,21.306641 -1.28302,1.292303 -2.058594,3.717372 -2.058594,4.609375 v 72.037105 c 0,0.24985 0.150663,0.47071 0.470703,0.47071 h 33.492188 v 0.0332 h 33.730471 c 0.32004,0 0.4707,-0.22085 0.4707,-0.4707 V 41.705078 c 0,-0.892003 -0.77557,-3.317072 -2.05859,-4.609375 -8.589626,-8.651935 -19.589507,-21.03264 -20.580081,-21.306641 -1.107473,-0.759389 -2.333435,-1.403028 -3.91211,-1.486328 h -0.861328 c -0.287135,0.007 -0.715918,0.01563 -0.742187,0.01563 L 72,14.314453 v -0.0332 l -6.046875,0.0039 c -0.02627,0 -0.455052,-0.0086 -0.742187,-0.01563 z"
           id="path53"
           inkscape:connector-curvature="0"
           style="fill:#f0e3ec" />
      </g>
      <path
         d="M 64,96.147507 H 80 V 112.14751 H 64 Z"
         id="path59"
         inkscape:connector-curvature="0"
         style="opacity:0.38053104;fill:#9d3a9b" />
      <g
         id="g71"
         style="fill:#4c9ac3;fill-opacity:0.50857101;fill-rule:evenodd">
        <path
           d="m 104,88.102592 v -8 H 40 v 8 z"
           id="path61"
           inkscape:connector-curvature="0"
           style="opacity:0.36725703;fill:#e602b4" />
        <path
           d="m 104,72.14751 v -8 H 40 v 8 z"
           id="path63"
           inkscape:connector-curvature="0"
           style="opacity:0.36725703" />
        <path
           d="m 104,56.14751 v -8 H 40 v 8 z"
           id="path65"
           inkscape:connector-curvature="0"
           style="opacity:0.36725703" />
        <path
           d="m 104,40.14751 v -8 H 40 v 8 z"
           id="path67"
           inkscape:connector-curvature="0"
           style="opacity:0.36725703" />
        <path
           d="m 104,24.14751 v -8 H 40 v 8 z"
           id="path69"
           inkscape:connector-curvature="0"
           style="opacity:0.36725703" />
      </g>
    </g>
    <g
       transform="translate(-8,-16)"
       id="g97">
      <g
         transform="matrix(1,0,0,-1,8,144.14751)"
         id="g85">
        <path
           d="m 64,24.533203 -9.541016,0.04492 c -1.577682,0 -3.687814,0.535462 -6.59375,3.419922 -8.353294,8.2916 -14.207218,13.9539 -21.042968,20.914062 -2.29836,2.340224 -2.824219,4.247768 -2.824219,6.388672 L 24,112 h 80 l 0.002,-56.699219 c 0,-2.140904 -0.52586,-4.048448 -2.82422,-6.388672 C 94.341934,41.951947 88.48806,36.289647 80.134766,27.998047 77.22883,25.113587 75.118698,24.578125 73.541016,24.578125 L 64,24.566406 Z"
           id="path79"
           inkscape:connector-curvature="0"
           style="fill:#9d3a9b" />
        <path
           d="m 56.349609,30.269531 c -1.578675,0.0833 -2.804636,0.726938 -3.912109,1.486328 -0.990574,0.274 -11.990455,12.654706 -20.580078,21.306641 -1.28302,1.292303 -2.058594,3.717372 -2.058594,4.609375 V 112 H 97.962891 V 57.705078 c 0,-0.892003 -0.775574,-3.317072 -2.058594,-4.609375 -8.589626,-8.651935 -19.589504,-21.03264 -20.580078,-21.306641 -1.107473,-0.759388 -2.333435,-1.403028 -3.91211,-1.486328 h -0.861328 c -0.287135,0.007 -0.715918,0.01563 -0.742187,0.01563 L 64,30.314453 v -0.0332 l -6.046875,0.0039 c -0.02627,0 -0.455052,-0.0086 -0.742187,-0.01563 z"
           id="path81"
           inkscape:connector-curvature="0"
           style="fill:#f0e3ec" />
      </g>
      <path
         d="M 64,96.147507 H 80 V 112.14751 H 64 Z"
         id="path87"
         inkscape:connector-curvature="0"
         style="opacity:0.38053104;fill:#9d3a9b" />
      <g
         id="g95"
         style="fill:#4c9ac3;fill-opacity:0.50857101;fill-rule:evenodd">
        <path
           d="m 104,88.102592 v -8 H 40 v 8 z"
           id="path89"
           inkscape:connector-curvature="0"
           style="opacity:0.36725703;fill:#e602b4" />
        <path
           d="m 104,72.14751 v -8 H 40 v 8 z"
           id="path91"
           inkscape:connector-curvature="0"
           style="opacity:0.36725703;fill:#e602b4" />
        <path
           d="m 104,56.14751 v -8 H 40 v 8 z"
           id="path93"
           inkscape:connector-curvature="0"
           style="opacity:0.36725703;fill:#e602b4" />
      </g>
    </g>
    <g
       transform="translate(-0.057054,-8.45127)"
       id="g117">
      <g
         id="g115"
         style="fill-rule:evenodd">
        <path
           d="m 12.000001,52.14751 v -4 l 52,-28 51.999999,28 v 4 h -16 l -15.999999,-16 h -40 l -16,16 z"
           id="path107"
           inkscape:connector-curvature="0"
           style="fill:#f3b7d9" />
        <path
           d="m 12.000001,48.14751 4,-32 H 112 l 4,32 h -16 l -15.999999,-16 h -40 l -16,16 z"
           id="path109"
           inkscape:connector-curvature="0"
           style="fill:#e602b4" />
        <path
           d="m 28.000001,48.14751 v 4 l 16,-16 v -4 z"
           id="path111"
           inkscape:connector-curvature="0"
           style="fill:#e602b4" />
        <path
           d="m 12.000001,48.14751 1,-8 h 15 l 16,-16 h 40 l 15.999999,16 h 15 l 1,8 h -16 l -15.999999,-16 h -40 l -16,16 z"
           id="path113"
           inkscape:connector-curvature="0"
           style="fill:#9d3a9b" />
      </g>
    </g>
  </g>
</svg>
