<?xml version="1.0" encoding="UTF-8" standalone="no"?>
<svg
   xmlns:dc="http://purl.org/dc/elements/1.1/"
   xmlns:cc="http://creativecommons.org/ns#"
   xmlns:rdf="http://www.w3.org/1999/02/22-rdf-syntax-ns#"
   xmlns:svg="http://www.w3.org/2000/svg"
   xmlns="http://www.w3.org/2000/svg"
   xmlns:xlink="http://www.w3.org/1999/xlink"
   xmlns:sodipodi="http://sodipodi.sourceforge.net/DTD/sodipodi-0.dtd"
   xmlns:inkscape="http://www.inkscape.org/namespaces/inkscape"
   height="16"
   width="16"
   version="1.1"
   id="svg169"
   sodipodi:docname="sc_dbnewtableautopilot.svg"
   inkscape:version="0.92.3 (2405546, 2018-03-11)">
  <metadata
     id="metadata175">
    <rdf:RDF>
      <cc:Work
         rdf:about="">
        <dc:format>image/svg+xml</dc:format>
        <dc:type
           rdf:resource="http://purl.org/dc/dcmitype/StillImage" />
        <dc:title></dc:title>
      </cc:Work>
    </rdf:RDF>
  </metadata>
  <defs
     id="defs173" />
  <sodipodi:namedview
     pagecolor="#ffffff"
     bordercolor="#666666"
     borderopacity="1"
     objecttolerance="10"
     gridtolerance="10"
     guidetolerance="10"
     inkscape:pageopacity="0"
     inkscape:pageshadow="2"
     inkscape:window-width="1366"
     inkscape:window-height="705"
     id="namedview171"
     showgrid="true"
     inkscape:zoom="20.85965"
     inkscape:cx="6.0190119"
     inkscape:cy="9.6014907"
     inkscape:window-x="-8"
     inkscape:window-y="-8"
     inkscape:window-maximized="1"
     inkscape:current-layer="svg169">
    <inkscape:grid
       type="xygrid"
       id="grid982" />
  </sodipodi:namedview>
  <linearGradient
     id="a"
     gradientTransform="matrix(.99823 -.06168429 .02721908 .849126 7.509698 12.850212)"
     gradientUnits="userSpaceOnUse"
     spreadMethod="reflect"
     x1="55.743965"
     x2="121.51667"
     y1="46.374126"
     y2="11.318704">
    <stop
       offset="0"
       stop-color="#ff5900"
       id="stop2" />
    <stop
       offset="1"
       stop-color="#ff0"
       id="stop4" />
  </linearGradient>
  <filter
     id="b">
    <feGaussianBlur
       stdDeviation="2.4"
       id="feGaussianBlur7" />
  </filter>
  <linearGradient
     id="c"
     gradientTransform="matrix(.1133598 0 0 .1691546 .642795 -76.95463)"
     gradientUnits="userSpaceOnUse"
     x1="399.77466"
     x2="399.77466"
     y1="681.00012"
     y2="549.33234">
    <stop
       offset="0"
       stop-color="#cbcbcd"
       id="stop10" />
    <stop
       offset=".5"
       stop-color="#e0e0e2"
       id="stop12" />
    <stop
       offset="1"
       stop-color="#fff"
       id="stop14" />
  </linearGradient>
  <radialGradient
     id="d"
     cx="49.009884"
     cy="8.495312"
     fx="47.370888"
     fy="6.77017"
     gradientTransform="matrix(.769753 1.181802 -7.650992 7.762471 62.39291 -29.03898)"
     gradientUnits="userSpaceOnUse"
     r="3.97504">
    <stop
       offset="0"
       stop-color="#fff"
       id="stop17" />
    <stop
       offset="1"
       stop-color="#aeaeae"
       id="stop19" />
  </radialGradient>
  <linearGradient
     id="e"
     gradientTransform="matrix(.981227 .967355 -1.189872 1.227494 77.89405 -44.83244)"
     gradientUnits="userSpaceOnUse"
     x1="48.498562"
     x2="48.732723"
     xlink:href="#f"
     y1=".811505"
     y2="2.365727" />
  <linearGradient
     id="f">
    <stop
       offset="0"
       stop-color="#fff"
       id="stop23" />
    <stop
       offset="1"
       stop-color="#fff"
       stop-opacity="0"
       id="stop25" />
  </linearGradient>
  <radialGradient
     id="g"
     cx="49.011971"
     cy="2.674308"
     gradientTransform="matrix(.913761 0 0 .207981 43.52233 -82.64466)"
     gradientUnits="userSpaceOnUse"
     r="1.724619"
     xlink:href="#f" />
  <radialGradient
     id="h"
     cx="49.011971"
     cy="2.674308"
     gradientTransform="matrix(3.15491 0 0 .208011 -61.469 -82.65113)"
     gradientUnits="userSpaceOnUse"
     r="1.724619"
     xlink:href="#i" />
  <linearGradient
     id="i">
    <stop
       offset="0"
       stop-color="#fff"
       id="stop30" />
    <stop
       offset="1"
       stop-color="#252525"
       stop-opacity="0"
       id="stop32" />
  </linearGradient>
  <radialGradient
     id="j"
     cx="49.011971"
     cy="2.674308"
     gradientTransform="matrix(.906625 0 0 .207981 -140.6272 -82.64466)"
     gradientUnits="userSpaceOnUse"
     r="1.724619"
     xlink:href="#k" />
  <linearGradient
     id="k">
    <stop
       offset="0"
       stop-color="#fff"
       stop-opacity=".55036"
       id="stop36" />
    <stop
       offset="1"
       stop-opacity="0"
       id="stop38" />
  </linearGradient>
  <radialGradient
     id="l"
     cx="34.677639"
     cy="7.462277"
     fx="11.254922"
     fy="18.452005"
     gradientTransform="matrix(1.135556 .00325649 -.00001156 .02608447 -4.700669 7.1547)"
     gradientUnits="userSpaceOnUse"
     r="47.595196"
     xlink:href="#f" />
  <linearGradient
     id="m"
     gradientTransform="matrix(1.37789 .0001263 .01423919 1.378513 65.76164 -93.88427)"
     gradientUnits="userSpaceOnUse"
     x1="48.498562"
     x2="48.732723"
     xlink:href="#f"
     y1=".811505"
     y2="2.365727" />
  <radialGradient
     id="n"
     cx="49.011971"
     cy="2.674308"
     gradientTransform="matrix(.913761 0 0 .167717 85.52731 -90.69359)"
     gradientUnits="userSpaceOnUse"
     r="1.724619"
     xlink:href="#f" />
  <radialGradient
     id="o"
     cx="49.011971"
     cy="2.674308"
     gradientTransform="matrix(3.15491 0 0 .167755 -19.14379 -90.70726)"
     gradientUnits="userSpaceOnUse"
     r="1.724619"
     xlink:href="#i" />
  <radialGradient
     id="p"
     cx="49.011971"
     cy="2.674308"
     gradientTransform="matrix(.906625 0 0 .167717 -182.6324 -90.69359)"
     gradientUnits="userSpaceOnUse"
     r="1.724619"
     xlink:href="#k" />
  <radialGradient
     id="q"
     cx="67.497665"
     cy="36.571056"
     fx="51.110146"
     fy="38.92115"
     gradientTransform="matrix(1.143352 -.288983 .145436 .486936 -6.906086 43.29656)"
     gradientUnits="userSpaceOnUse"
     r="59.66724">
    <stop
       offset="0"
       stop-opacity="0"
       id="stop46" />
    <stop
       offset=".87912089"
       stop-opacity="0"
       id="stop48" />
    <stop
       offset="1"
       id="stop50" />
  </radialGradient>
  <radialGradient
     id="r"
     cx="10.502676"
     cy="43.419136"
     gradientTransform="matrix(1.182169 -.07305034 .0190782 .595163 5.960047 24.89229)"
     gradientUnits="userSpaceOnUse"
     r="29.231159"
     spreadMethod="reflect"
     xlink:href="#f" />
  <linearGradient
     id="s"
     gradientTransform="matrix(.99823 -.06168429 .02721908 .849126 7.509698 12.850212)"
     gradientUnits="userSpaceOnUse"
     x1="92.518745"
     x2="95.046997"
     xlink:href="#f"
     y1="5.879021"
     y2="19.529158" />
  <linearGradient
     id="t"
     gradientTransform="matrix(-12.72707 .492126 -.05364729 3.971548 275.61158 -231.94983)"
     gradientUnits="userSpaceOnUse"
     spreadMethod="pad"
     x1="18.704878"
     x2="13.317425"
     xlink:href="#f"
     y1="74.448128"
     y2="64.212517" />
  <radialGradient
     id="u"
     cx="123.62269"
     cy="35.345421"
     fx="125.26403"
     fy="34.200359"
     gradientTransform="matrix(.64563816 0 0 1.3102233 48.801686 -4.037653)"
     gradientUnits="userSpaceOnUse"
     r="3.246656"
     xlink:href="#f" />
  <radialGradient
     id="v"
     cx="123.62269"
     cy="35.345421"
     fx="125.26403"
     fy="34.200359"
     gradientTransform="matrix(.64563816 0 0 1.3102233 -92.924101 9.164842)"
     gradientUnits="userSpaceOnUse"
     r="3.246656"
     xlink:href="#f" />
  <linearGradient
     id="w"
     gradientUnits="userSpaceOnUse"
     x1="154.5867"
     x2="61.973328"
     xlink:href="#f"
     y1="48.224529"
     y2="28.799097" />
  <radialGradient
     id="x"
     cx="103.12353"
     cy="24.956741"
     fx="101.56755"
     fy="22.07275"
     gradientTransform="matrix(1.015732 .401466 -.180613 .456961 10.559896 -23.83122)"
     gradientUnits="userSpaceOnUse"
     r="12.241624">
    <stop
       offset="0"
       id="stop59" />
    <stop
       offset="1"
       stop-opacity="0"
       id="stop61" />
  </radialGradient>
  <radialGradient
     id="y"
     cx="80.292313"
     cy="39.653671"
     gradientTransform="matrix(10.43391 -2.24727 .122988 .315112 -762.94462 214.34307)"
     gradientUnits="userSpaceOnUse"
     r="9.040999">
    <stop
       offset="0"
       stop-color="#ff5f00"
       id="stop64" />
    <stop
       offset="1"
       stop-color="#ff5f00"
       stop-opacity="0"
       id="stop66" />
  </radialGradient>
  <g
     transform="scale(0.125)"
     id="g87">
    <path
       d="M 7.999997,16 H 120 v 96 H 7.999997 Z"
       id="path71"
       inkscape:connector-curvature="0"
       style="fill:#f3b7d9" />
    <path
       d="m 78.20266,37.61897 v -2.7448 z"
       id="path73"
       inkscape:connector-curvature="0"
       style="fill:#ffffff;fill-opacity:0.756881" />
    <path
       d="m 8,48 h 112 v 64 H 8 Z"
       id="path75"
       inkscape:connector-curvature="0"
       style="fill:#f0e3ec" />
    <g
       id="g85"
       style="fill:#cacacc">
      <path
         d="M 7.999997,88 H 120 v 8 H 7.999997 Z"
         id="path77"
         inkscape:connector-curvature="0"
         style="fill:#f3b7d9" />
      <path
         d="M 7.999997,64 H 120 v 8 H 7.999997 Z"
         id="path79"
         inkscape:connector-curvature="0"
         style="fill:#f3b7d9" />
      <path
         d="m 40,48 h 8 v 64 h -8 z"
         id="path81"
         inkscape:connector-curvature="0"
         style="fill:#f3b7d9" />
      <path
         d="m 80,48 h 8 v 64 h -8 z"
         id="path83"
         inkscape:connector-curvature="0"
         style="fill:#f3b7d9" />
    </g>
  </g>
  <g
     transform="matrix(0.11346762,0,0,0.11346762,0.679987,0.625398)"
     id="g167">
    <path
       d="m 107.94864,20.043953 c -0.30371,0.553577 -0.62308,1.109263 -1.04163,1.633044 0.0823,0.0094 0.16968,0.02801 0.25126,0.03765 10.16858,1.201931 15.71739,7.049222 16.96927,11.607185 1.25187,4.557962 -2.87457,9.171649 -11.18651,14.7296 -8.31194,5.557949 -20.928879,10.890624 -35.609969,14.351084 -14.681087,3.46046 -28.519377,4.363649 -38.687968,3.161719 C 28.4745,64.362304 22.479021,62.131963 21.227144,57.574001 19.975267,53.016039 21.786515,45.408061 30.098461,39.85011 38.410405,34.292159 52.544549,27.536342 67.225639,24.075882 c 3.771104,-0.04608 2.764391,-1.98099 -0.16714,-1.313743 -16.43817,3.87462 -31.549301,9.115033 -41.594996,15.83229 -10.045695,6.717259 -15.9763622,14.465857 -14.10184,21.290814 1.874523,6.824957 11.084213,11.035006 23.373826,12.487638 12.28961,1.452637 28.173664,1.224238 44.611838,-2.650381 16.438171,-3.874618 30.498153,-10.703836 40.543863,-17.421096 10.04567,-6.717256 10.89077,-14.178187 9.01625,-21.003145 -1.84405,-6.713987 -8.85327,-11.015762 -20.9588,-11.254306 z"
       id="path89"
       inkscape:connector-curvature="0"
       style="fill:#e602b4" />
    <path
       d="M 59.258983,10.920266 V 8.1255573 Z"
       id="path91"
       inkscape:connector-curvature="0"
       style="fill:#ffffff;fill-opacity:0.756881" />
    <path
       d="m 40.123774,40.507884 c 0.147209,0.736045 -1.617347,1.187712 -1.930889,1.869713 -0.313542,0.682 0.492414,2.315431 -0.162117,2.682885 -0.65453,0.367455 -1.629369,-1.171165 -2.37488,-1.258611 -0.745511,-0.08745 -2.049941,1.183821 -2.601672,0.674875 -0.551732,-0.508946 0.610341,-1.911532 0.463132,-2.647577 -0.147209,-0.736046 -1.759348,-1.583789 -1.445806,-2.26579 0.313542,-0.682001 2.006581,-0.01023 2.661112,-0.377681 0.654531,-0.367455 0.962604,-2.162657 1.708115,-2.075211 0.745511,0.08745 0.629794,1.905212 1.181525,2.414158 0.551732,0.508946 2.354271,0.247193 2.50148,0.983239 z"
       transform="matrix(0.99823,-0.06168429,0.02721908,0.849126,29.326154,-10.58347)"
       id="path93"
       inkscape:connector-curvature="0"
       style="fill:#9d3a9b" />
    <path
       d="M 148.2043,23.112736 V 20.318027 Z"
       id="path95"
       inkscape:connector-curvature="0"
       style="fill:#ffffff;fill-opacity:0.756881" />
    <path
       d="m -43.86199,91.807774 c -5.746548,-2.915528 0.576848,-17.216398 -2.358502,-22.952846 -2.935351,-5.736449 -18.233065,-8.973759 -17.236014,-15.34 0.997051,-6.36624 16.552023,-4.771544 21.100637,-9.335889 4.548613,-4.564344 2.900225,-20.113718 9.262985,-21.132743 6.36276,-1.019024 9.652865,14.267421 15.399413,17.18295 5.746549,2.915528 20.0255027,-3.457203 22.9608536,2.279245 2.9353508,5.736449 -10.5862245,13.589296 -11.5832757,19.955536 -0.9970512,6.36624 9.4762156,17.97705 4.9276022,22.541395 -4.5486132,4.564344 -16.1955121,-5.868775 -22.5582711,-4.84975 -6.36276,1.019024 -14.168879,14.56763 -19.915428,11.652102 z"
       transform="matrix(0.233515,-0.103209,0.103209,0.233515,114.12828,77.91657)"
       id="path97"
       inkscape:connector-curvature="0"
       style="fill:#9d3a9b" />
    <g
       transform="matrix(-0.54205,0.865155,-0.96558,-0.334369,183.19578,28.07353)"
       id="g131">
      <path
         d="m 118.78907,2.0588973 c 0.53184,-0.547895 3.35709,-0.6241909 5.87615,1.8593065 2.54375,2.5078422 2.63975,5.1933474 1.97354,5.8796153 C 126.20515,10.244528 30.668446,107.18002 30.234832,107.62671 27.618242,105.04707 25.001673,102.46745 22.385097,99.887812 22.818716,99.441109 118.35543,2.5056202 118.78907,2.0588973 Z"
         id="path103"
         inkscape:connector-curvature="0"
         style="fill:#9d3a9b;fill-rule:evenodd" />
      <path
         d="M 42.529815,79.422833 C 41.154594,80.330809 30.189224,91.548774 29.382098,92.806737 l 6.297737,6.180851 13.147692,-13.383895 z m 5.636697,5.524761 -13.147697,13.383884 2.203352,2.187022 C 38.416108,99.757068 49.437991,88.600492 50.36985,87.134608 Z"
         id="path105"
         inkscape:connector-curvature="0"
         style="fill:#e602b4" />
      <path
         d="m 39.4289,97.1653 c -0.05449,0.05527 -0.08604,0.108899 -0.09468,0.160888 -0.0086,0.052 0.0065,0.09754 0.0453,0.13663 0.03867,0.03893 0.08372,0.05393 0.135138,0.045 0.05142,-0.0089 0.104373,-0.04102 0.158857,-0.09629 0.0548,-0.05558 0.08651,-0.10937 0.09515,-0.161365 0.0086,-0.052 -0.0064,-0.09745 -0.04506,-0.136379 -0.03884,-0.03909 -0.08396,-0.05417 -0.135385,-0.04525 -0.05142,0.0089 -0.104526,0.04118 -0.159321,0.09676 m -0.06887,-0.06933 c 0.111446,-0.113044 0.215692,-0.184537 0.312744,-0.214473 0.09705,-0.02994 0.175443,-0.01484 0.235176,0.04529 0.05957,0.05996 0.07473,0.139035 0.04548,0.237216 -0.02925,0.09818 -0.0996,0.203796 -0.211049,0.316844 -0.111135,0.112729 -0.215381,0.184222 -0.312744,0.214475 -0.09705,0.02993 -0.175359,0.01492 -0.234931,-0.04504 -0.05973,-0.06013 -0.07497,-0.139284 -0.04572,-0.237463 0.02956,-0.0985 0.09991,-0.20411 0.211047,-0.316846 m 1.031296,-0.667986 0.428626,-0.05466 -0.186208,0.188884 -0.287944,0.03767 -0.03478,0.289695 -0.187133,0.189821 0.05244,-0.433319 -0.411684,0.05294 0.18667,-0.189353 0.270571,-0.03451 0.03265,-0.273067 0.1876,-0.190294 -0.05081,0.416197 m 0.07031,-0.435981 0.195492,-0.198301 0.289196,-0.02797 0.02656,-0.292333 0.195956,-0.198771 -0.05095,0.482687 0.155263,0.156284 -0.178779,0.181349 -0.15526,-0.15629 -0.477483,0.05334 m 1.748121,-1.083825 c -0.03306,0.05681 -0.0707,0.112452 -0.112926,0.166922 -0.04222,0.05447 -0.08888,0.107615 -0.139954,0.159425 -0.11547,0.11713 -0.22406,0.192692 -0.325775,0.226696 -0.101877,0.03384 -0.182191,0.02119 -0.240939,-0.03795 -0.05941,-0.0598 -0.07178,-0.141698 -0.03712,-0.245695 0.03466,-0.104004 0.11174,-0.216606 0.231231,-0.337817 0.04613,-0.04679 0.09255,-0.08922 0.139254,-0.127286 0.04702,-0.03838 0.09378,-0.07201 0.140289,-0.100905 l 0.07627,0.07678 c -0.05038,0.02749 -0.09764,0.05781 -0.14179,0.09095 -0.04384,0.03282 -0.08495,0.06871 -0.123335,0.107648 -0.0712,0.07222 -0.115533,0.138644 -0.133003,0.199263 -0.01732,0.06014 -0.0063,0.110011 0.03301,0.149595 0.039,0.03926 0.08769,0.05073 0.146067,0.03442 0.05837,-0.01631 0.121768,-0.05917 0.190185,-0.128569 0.01857,-0.01884 0.03518,-0.03684 0.04981,-0.05402 0.01478,-0.01765 0.0272,-0.03424 0.03726,-0.04977 l -0.07158,-0.07206 -0.109125,0.110694 -0.06368,-0.0641 0.278612,-0.282614 0.17723,0.178399 m -0.184179,-0.502587 0.482463,-0.489396 0.07183,0.0723 -0.303687,0.308052 0.06862,0.06907 0.285578,-0.289681 0.07183,0.0723 -0.285578,0.289681 0.08442,0.08498 0.313903,-0.318412 0.07183,0.0723 -0.492681,0.49976 -0.368527,-0.370961 m 0.650096,-0.659438 0.199671,-0.202541 0.504906,-0.0013 -0.252761,-0.254428 0.169488,-0.171924 0.368529,0.370961 -0.199673,0.202542 -0.504906,0.0013 0.252762,0.254432 -0.169489,0.171922 -0.368527,-0.37096 m 1.125593,-1.141765 0.199671,-0.202539 0.504905,-0.0013 -0.252761,-0.254426 0.169489,-0.171926 0.368528,0.37096 -0.199671,0.202542 -0.504908,0.0013 0.252763,0.254432 -0.169489,0.171923 -0.368527,-0.37096 m 0.969405,-0.996805 c 0.06594,-0.06688 0.127078,-0.110447 0.183422,-0.130686 0.05665,-0.02055 0.100611,-0.01509 0.131878,0.01638 0.03126,0.03147 0.03691,0.07563 0.01693,0.132475 -0.01997,0.05685 -0.06309,0.118869 -0.129334,0.186068 -0.06625,0.0672 -0.127616,0.111159 -0.184105,0.131875 -0.05618,0.0204 -0.0999,0.01487 -0.131166,-0.0166 -0.03127,-0.03147 -0.03699,-0.07571 -0.01718,-0.132726 0.02012,-0.05732 0.06331,-0.119583 0.129552,-0.186785 m 0.04244,0.429361 0.382163,-0.387653 0.04937,0.04969 -0.382163,0.387655 -0.04937,-0.04969 m -4.81e-4,-0.387122 c -0.026,0.02638 -0.04094,0.05201 -0.04481,0.07689 -0.0036,0.02457 0.0042,0.04646 0.02329,0.06567 0.01909,0.01922 0.0407,0.02689 0.06483,0.02303 0.02444,-0.0042 0.04967,-0.01945 0.07567,-0.04583 0.0257,-0.02606 0.04041,-0.05129 0.04414,-0.07569 0.004,-0.02472 -0.0035,-0.04668 -0.02258,-0.06589 -0.01909,-0.01921 -0.04094,-0.02682 -0.06555,-0.02281 -0.0243,0.0037 -0.04929,0.01858 -0.07499,0.04464 m 1.174679,-0.919683 c 0.05316,-0.04095 0.0998,-0.06564 0.139906,-0.07407 0.04025,-0.0089 0.07264,-0.001 0.09716,0.02367 0.03653,0.03677 0.03803,0.09146 0.0045,0.164054 -0.0337,0.07243 -0.101015,0.159833 -0.201934,0.262202 -0.0356,0.03611 -0.07292,0.07081 -0.111956,0.104087 -0.03856,0.03313 -0.07838,0.06437 -0.119445,0.09373 l -0.07331,-0.0738 c 0.04232,-0.02497 0.08219,-0.05178 0.119613,-0.08042 0.03757,-0.02913 0.07229,-0.05986 0.104179,-0.0922 0.04736,-0.04805 0.07922,-0.08917 0.09558,-0.123389 0.01666,-0.03453 0.01685,-0.05999 5.55e-4,-0.07639 -0.01678,-0.01689 -0.04246,-0.01646 -0.07702,0.0013 -0.03442,0.01729 -0.07685,0.05152 -0.127313,0.102705 l -0.07151,0.07254 -0.06121,-0.06162 0.07522,-0.07631 c 0.04489,-0.04553 0.07462,-0.08317 0.08919,-0.112923 0.01441,-0.02991 0.01396,-0.05257 -0.0013,-0.06798 -0.01416,-0.01425 -0.03578,-0.01443 -0.06487,-5.47e-4 -0.02909,0.01388 -0.06314,0.04061 -0.10215,0.08017 -0.02879,0.02921 -0.05616,0.06046 -0.08212,0.09377 -0.02595,0.03331 -0.05011,0.06812 -0.07246,0.104429 l -0.06961,-0.07007 c 0.03002,-0.0411 0.06106,-0.08056 0.09309,-0.118379 0.03204,-0.03782 0.06478,-0.07368 0.09821,-0.107601 0.09009,-0.09137 0.165313,-0.151727 0.22569,-0.181043 0.06052,-0.02979 0.106578,-0.02879 0.138173,0.003 0.02156,0.0217 0.02857,0.05034 0.02103,0.08592 -0.0077,0.03541 -0.02965,0.07713 -0.06585,0.125157"
         id="path115"
         inkscape:connector-curvature="0"
         style="fill:#f0e3ec" />
      <g
         transform="matrix(0.712202,0.701974,0.870513,-0.883197,9.637176,-69.26202)"
         id="g129">
        <path
           d="m 127.80368,-90.294455 c -0.006,-0.563594 1.95277,-2.067585 5.4902,-2.067265 3.5721,3.32e-4 5.52563,1.362339 5.5329,2.068292 0.005,0.459498 0.01,-0.08101 0.0143,0.378492 -3.67438,-3.28e-4 -7.34874,-6.64e-4 -11.02311,-9.99e-4 -0.005,-0.459504 -0.01,0.081 -0.0143,-0.37852"
           id="path119"
           inkscape:connector-curvature="0"
           style="fill:#9d3a9b;fill-rule:evenodd" />
      </g>
    </g>
    <path
       d="m 96.860253,14.4035 c -6.511936,0.100995 -9.269092,2.65377 -9.590035,5.736742 -0.361725,3.474736 6.219464,5.980573 10.180074,4.734106 9.434128,-2.969073 23.912068,3.765868 25.696328,9.590066 1.38618,4.524799 -1.89365,8.029067 -10.20559,13.587018 -8.31194,5.557949 -20.928879,10.890624 -35.609969,14.351084 -14.681087,3.46046 -28.519377,4.363649 -38.687968,3.161719 C 28.4745,64.362304 22.479021,62.131963 21.227144,57.574001 20.713877,55.705247 20.759227,53.320294 21.509357,50.77668 l -8.828104,0.545522 c -1.540822,2.923614 -2.075349,5.811394 -1.31959,8.563041 1.874523,6.824957 11.084213,11.035006 23.373826,12.487638 12.28961,1.452637 28.173664,1.224238 44.611838,-2.650381 C 95.785498,65.847882 110.60023,58.755632 120.64594,52.03837 130.69161,45.321115 134.37106,38.767008 132.49654,31.942049 130.622,25.117093 123.57428,19.592247 111.24767,16.645106 104.71501,15.083228 99.526015,14.362157 96.860253,14.4035 Z"
       id="path137"
       inkscape:connector-curvature="0"
       style="opacity:0.93000034;fill:#e602b4" />
    <g
       id="g147"
       style="fill-rule:evenodd" />
    <g
       transform="matrix(0.99823,-0.06520605,0.02721908,0.897605,22.602694,-7.62869)"
       id="g159"
       style="fill:#eb7331">
      <path
         d="m 28.699643,66.421154 c -0.981394,1.079533 -3.723873,-1.159259 -5.152371,-0.862747 -1.428499,0.296512 -3.053401,3.441837 -4.383366,2.84207 -1.329965,-0.599767 -0.04822,-3.899844 -0.771649,-5.166799 -0.72343,-1.266956 -4.216935,-1.840371 -4.057504,-3.290581 0.15943,-1.45021 3.694072,-1.250977 4.675466,-2.33051 0.981394,-1.079534 0.447192,-4.57925 1.87569,-4.875762 1.428498,-0.296512 2.331281,3.126699 3.661246,3.726466 1.329964,0.599767 4.493315,-0.989762 5.216744,0.277194 0.72343,1.266955 -2.253261,3.183382 -2.412691,4.633592 -0.159431,1.45021 2.329829,3.967544 1.348435,5.047077 z"
         id="path153"
         inkscape:connector-curvature="0"
         style="fill:#9d3a9b" />
      <path
         d="M 7.8018446,39.950608 C 7.2620779,40.441305 6.0034111,39.196675 5.2783062,39.27639 4.5532013,39.356105 3.5949876,40.844451 2.9615099,40.482736 2.3280323,40.121021 3.1227963,38.539346 2.8229128,37.874364 2.5230293,37.209381 0.8114243,36.75799 0.95968028,36.043741 1.1079363,35.329492 2.8577942,35.596593 3.3975609,35.105896 c 0.5397668,-0.490697 0.4401504,-2.258018 1.1652553,-2.337733 0.7251049,-0.07972 1.0118125,1.667037 1.6452902,2.028752 0.6334777,0.361715 2.2835164,-0.279158 2.5833999,0.385824 0.2998835,0.664983 -1.2727794,1.477434 -1.4210354,2.191683 -0.148256,0.714249 0.9711404,2.085489 0.4313737,2.576186 z"
         id="path155"
         inkscape:connector-curvature="0"
         style="fill:#9d3a9b" />
      <path
         d="m 10.588219,92.891701 c -0.9813944,-1.226743 1.864575,-3.763067 1.791672,-5.332372 -0.0729,-1.569305 -3.1417619,-3.830851 -2.278328,-5.143297 0.863434,-1.312446 4.155075,0.610465 5.625044,0.05619 1.469969,-0.554277 2.672499,-4.171791 4.187524,-3.756185 1.515026,0.415607 0.703403,4.140356 1.684797,5.367098 0.981394,1.226743 4.793456,1.252543 4.86636,2.821848 0.0729,1.569304 -3.720349,1.948415 -4.583783,3.26086 -0.863434,1.312446 0.290021,4.945906 -1.179948,5.500183 -1.469969,0.554277 -3.002705,-2.936169 -4.51773,-3.351775 -1.515026,-0.415607 -4.614214,1.804194 -5.595608,0.577452 z"
         id="path157"
         inkscape:connector-curvature="0"
         style="fill:#9d3a9b" />
    </g>
  </g>
</svg>
