<?xml version="1.0" encoding="UTF-8" standalone="no"?>
<svg
   xmlns:dc="http://purl.org/dc/elements/1.1/"
   xmlns:cc="http://creativecommons.org/ns#"
   xmlns:rdf="http://www.w3.org/1999/02/22-rdf-syntax-ns#"
   xmlns:svg="http://www.w3.org/2000/svg"
   xmlns="http://www.w3.org/2000/svg"
   xmlns:xlink="http://www.w3.org/1999/xlink"
   xmlns:sodipodi="http://sodipodi.sourceforge.net/DTD/sodipodi-0.dtd"
   xmlns:inkscape="http://www.inkscape.org/namespaces/inkscape"
   height="16"
   width="16"
   version="1.1"
   id="svg208"
   sodipodi:docname="sc_dbnewviewsql.svg"
   inkscape:version="0.92.3 (2405546, 2018-03-11)">
  <metadata
     id="metadata214">
    <rdf:RDF>
      <cc:Work
         rdf:about="">
        <dc:format>image/svg+xml</dc:format>
        <dc:type
           rdf:resource="http://purl.org/dc/dcmitype/StillImage" />
        <dc:title></dc:title>
      </cc:Work>
    </rdf:RDF>
  </metadata>
  <defs
     id="defs212" />
  <sodipodi:namedview
     pagecolor="#ffffff"
     bordercolor="#666666"
     borderopacity="1"
     objecttolerance="10"
     gridtolerance="10"
     guidetolerance="10"
     inkscape:pageopacity="0"
     inkscape:pageshadow="2"
     inkscape:window-width="1366"
     inkscape:window-height="705"
     id="namedview210"
     showgrid="true"
     inkscape:zoom="20.85965"
     inkscape:cx="9.4371875"
     inkscape:cy="7.8040281"
     inkscape:window-x="-8"
     inkscape:window-y="-8"
     inkscape:window-maximized="1"
     inkscape:current-layer="svg208">
    <inkscape:grid
       type="xygrid"
       id="grid1021" />
  </sodipodi:namedview>
  <linearGradient
     id="a"
     gradientUnits="userSpaceOnUse"
     spreadMethod="reflect"
     x1="341.5318"
     x2="341.5318"
     y1="528.58008"
     y2="700.07751">
    <stop
       offset="0"
       stop-color="#fcfcfc"
       id="stop2" />
    <stop
       offset="1"
       stop-color="#c0c0c0"
       id="stop4" />
  </linearGradient>
  <radialGradient
     id="b"
     cx="902.44019"
     cy="573.33636"
     fy="777.67505"
     gradientTransform="matrix(1.0000001 0 0 .7898656 -515.84706 106.14197)"
     gradientUnits="userSpaceOnUse"
     r="252.67184"
     xlink:href="#u" />
  <radialGradient
     id="c"
     cx="949.33209"
     cy="517.87024"
     fx="941.93115"
     fy="440.16125"
     gradientTransform="matrix(1.7097296 .06452833 -.05216787 .9870304 -1209.4918 -86.255073)"
     gradientUnits="userSpaceOnUse"
     r="119.39729"
     xlink:href="#k" />
  <radialGradient
     id="d"
     cx="1302.5156"
     cy="396.677"
     gradientTransform="matrix(1.4615497 0 0 .7922186 -1517.0981 316.29645)"
     gradientUnits="userSpaceOnUse"
     r="252.67184"
     xlink:href="#k" />
  <linearGradient
     id="e"
     gradientUnits="userSpaceOnUse"
     x1="1228.4824"
     x2="1228.4824"
     y1="349.26135"
     y2="687.31006">
    <stop
       offset="0"
       id="stop10" />
    <stop
       offset="1"
       stop-color="#474747"
       stop-opacity="0"
       id="stop12" />
  </linearGradient>
  <linearGradient
     id="f"
     gradientUnits="userSpaceOnUse"
     x1="63.383484"
     x2="92.279503"
     y1="120.42094"
     y2="12.579539">
    <stop
       offset="0"
       stop-color="#33373f"
       id="stop15" />
    <stop
       offset="1"
       stop-color="#33373f"
       stop-opacity="0"
       id="stop17" />
  </linearGradient>
  <filter
     id="g">
    <feGaussianBlur
       stdDeviation="1.6296572"
       id="feGaussianBlur20" />
  </filter>
  <linearGradient
     id="h"
     gradientTransform="matrix(-.36414171 -1.3589955 1.3589955 -.36414171 568.59708 -140.9012)"
     gradientUnits="userSpaceOnUse"
     x1="9.978035"
     x2="-77.65287"
     y1="-367.08105"
     y2="-390.56168">
    <stop
       offset="0"
       stop-color="#81c837"
       id="stop23" />
    <stop
       offset="1"
       stop-color="#2a3d0c"
       id="stop25" />
  </linearGradient>
  <radialGradient
     id="i"
     cx="31.999201"
     cy="117.34788"
     gradientTransform="matrix(1.0577565 0 0 1.0572174 -1.848162 -6.72862)"
     gradientUnits="userSpaceOnUse"
     r="30.65625">
    <stop
       offset="0"
       stop-color="#b0d81d"
       id="stop28" />
    <stop
       offset="1"
       stop-color="#50740e"
       id="stop30" />
  </radialGradient>
  <linearGradient
     id="j"
     gradientUnits="userSpaceOnUse"
     x1="57.610355"
     x2="57.610355"
     xlink:href="#k"
     y1="-27.735687"
     y2="74.686096" />
  <linearGradient
     id="k">
    <stop
       offset="0"
       stop-color="#fff"
       id="stop34" />
    <stop
       offset="1"
       stop-color="#fff"
       stop-opacity="0"
       id="stop36" />
  </linearGradient>
  <linearGradient
     id="l"
     gradientUnits="userSpaceOnUse"
     x1="58.756977"
     x2="58.756977"
     xlink:href="#k"
     y1="11.896209"
     y2="75.65007" />
  <linearGradient
     id="m"
     gradientUnits="userSpaceOnUse"
     x1="106.49866"
     x2="59.799995"
     xlink:href="#k"
     y1="74.650566"
     y2="-6.233881" />
  <radialGradient
     id="n"
     cx="31.999201"
     cy="117.34788"
     gradientTransform="matrix(1.6778494 0 0 1.6769942 -13.68129 -84.769414)"
     gradientUnits="userSpaceOnUse"
     r="30.65625">
    <stop
       offset="0"
       stop-color="#d7ea00"
       id="stop41" />
    <stop
       offset="1"
       stop-color="#d7ea00"
       stop-opacity="0"
       id="stop43" />
  </radialGradient>
  <filter
     id="o"
     height="1.352204"
     width="1.036262"
     x="-.018131"
     y="-.176102">
    <feGaussianBlur
       stdDeviation=".46318493"
       id="feGaussianBlur46" />
  </filter>
  <filter
     id="p"
     color-interpolation-filters="sRGB"
     height="1.229964"
     width="1.691493"
     x="-.345746"
     y="-.114982">
    <feGaussianBlur
       stdDeviation="2.3085399"
       id="feGaussianBlur49" />
  </filter>
  <filter
     id="q"
     color-interpolation-filters="sRGB"
     height="1.538012"
     width="1.537181"
     x="-.268591"
     y="-.269006">
    <feGaussianBlur
       stdDeviation="2.3085399"
       id="feGaussianBlur52" />
  </filter>
  <linearGradient
     id="r"
     gradientUnits="userSpaceOnUse"
     x1="-78.441124"
     x2="153.15414"
     xlink:href="#s"
     y1="542.52728"
     y2="-321.79819" />
  <linearGradient
     id="s">
    <stop
       offset="0"
       stop-color="#0b2803"
       id="stop56" />
    <stop
       offset="1"
       stop-color="#36930d"
       id="stop58" />
  </linearGradient>
  <linearGradient
     id="t"
     gradientUnits="userSpaceOnUse"
     x1="-147.428991"
     x2="-147.428991"
     xlink:href="#s"
     y1="408.523104"
     y2="-1070.971166" />
  <linearGradient
     id="u">
    <stop
       offset="0"
       stop-color="#fff"
       id="stop62" />
    <stop
       offset=".13883302"
       stop-color="#bcbcbc"
       id="stop64" />
    <stop
       offset=".27766603"
       stop-color="#8f8f8f"
       id="stop66" />
    <stop
       offset=".34831479"
       stop-color="#f2f2f2"
       id="stop68" />
    <stop
       offset=".51983202"
       stop-color="#bbb"
       id="stop70" />
    <stop
       offset=".69134921"
       stop-color="#3f3f3f"
       id="stop72" />
    <stop
       offset=".71995538"
       stop-color="#8f8f8f"
       id="stop74" />
    <stop
       offset=".82474411"
       stop-color="#a4a4a4"
       id="stop76" />
    <stop
       offset=".91127253"
       stop-color="#5e5e5e"
       id="stop78" />
    <stop
       offset="1"
       stop-color="#acacac"
       id="stop80" />
  </linearGradient>
  <filter
     id="v">
    <feGaussianBlur
       stdDeviation="4.7167893"
       id="feGaussianBlur83" />
  </filter>
  <filter
     id="w">
    <feGaussianBlur
       stdDeviation="4.19576"
       id="feGaussianBlur86" />
  </filter>
  <filter
     id="x">
    <feGaussianBlur
       stdDeviation="1.6009629"
       id="feGaussianBlur89" />
  </filter>
  <filter
     id="y">
    <feGaussianBlur
       stdDeviation=".46407361"
       id="feGaussianBlur92" />
  </filter>
  <filter
     id="z">
    <feGaussianBlur
       stdDeviation="6.421369"
       id="feGaussianBlur95" />
  </filter>
  <linearGradient
     id="A"
     gradientUnits="userSpaceOnUse"
     x1="99.465668"
     x2="99.465668"
     y1="120.62987"
     y2="90.83989">
    <stop
       offset="0"
       id="stop98" />
    <stop
       offset="1"
       stop-opacity="0"
       id="stop100" />
  </linearGradient>
  <radialGradient
     id="B"
     cx="949.33209"
     cy="517.87024"
     fx="941.93115"
     fy="440.16125"
     gradientTransform="matrix(.3791376 -.00599606 -.00000007 .2162218 -295.92749 -82.282556)"
     gradientUnits="userSpaceOnUse"
     r="119.39729"
     xlink:href="#k" />
  <radialGradient
     id="C"
     cx="902.44019"
     cy="573.33636"
     fy="777.67505"
     gradientTransform="matrix(.2216259 0 0 .1778449 -136.00416 -61.563674)"
     gradientUnits="userSpaceOnUse"
     r="252.67184"
     xlink:href="#u" />
  <linearGradient
     id="D"
     gradientUnits="userSpaceOnUse"
     x1="46.270016"
     x2="46.270016"
     y1="39.291824"
     y2="23.014645">
    <stop
       offset="0"
       stop-color="#222"
       id="stop105" />
    <stop
       offset="1"
       stop-opacity="0"
       id="stop107" />
  </linearGradient>
  <g
     transform="scale(0.125)"
     id="g206">
    <g
       transform="matrix(0.2216259,0,0,0.2156826,-21.67909,-30.789701)"
       id="g126">
      <path
         d="M 594.20979,637.24835 A 252.67799,126.339 0 0 1 341.5318,763.58735 252.67799,126.339 0 0 1 88.853806,637.24835 252.67799,126.339 0 0 1 341.5318,510.90936 252.67799,126.339 0 0 1 594.20979,637.24835 Z"
         transform="translate(45.061429,-113.57703)"
         id="path116"
         inkscape:connector-curvature="0"
         style="fill:#f0e3ec" />
      <path
         d="m 639.26508,523.65926 c 0,69.7391 -113.2092,126.34375 -252.6874,126.34375 -138.7519,-2e-5 -251.4856,-56.01143 -252.6563,-125.25 l 1,50.25 c 0,69.73913 112.2092,126.34376 251.6876,126.34375 139.4782,0 251.6561,-56.60462 251.6561,-126.34375 z"
         id="path118"
         inkscape:connector-curvature="0"
         style="fill:#f3b7d9;stroke:#e602b4;stroke-width:9.14770603;stroke-linecap:round;stroke-linejoin:round;stroke-miterlimit:4;stroke-dasharray:none;stroke-opacity:1" />
      <path
         d="m 566.27727,486.15744 c 12.7997,40.36672 -63.6135,75.70779 -179.1824,75.70779 -121.1539,0 -196.2125,-36.47311 -179.1823,-75.70779 22.2134,-51.17628 102.4871,-75.70779 179.1823,-75.70779 73.9186,0 164.7584,30.21836 179.1824,75.70779 z"
         id="path120"
         inkscape:connector-curvature="0"
         style="fill:url(#c)" />
    </g>
    <g
       transform="matrix(0.2216259,0,0,0.2156826,-21.67909,-47.289701)"
       id="g140">
      <path
         d="M 594.20979,637.24835 A 252.67799,126.339 0 0 1 341.5318,763.58735 252.67799,126.339 0 0 1 88.853806,637.24835 252.67799,126.339 0 0 1 341.5318,510.90936 252.67799,126.339 0 0 1 594.20979,637.24835 Z"
         transform="translate(45.061429,-113.57703)"
         id="path130"
         inkscape:connector-curvature="0"
         style="fill:#f0e3ec" />
      <path
         d="m 639.26508,523.65926 c 0,69.7391 -113.2092,126.34375 -252.6874,126.34375 -138.7519,-2e-5 -251.4856,-56.01143 -252.6563,-125.25 l 1,50.25 c 0,69.73913 112.2092,126.34376 251.6876,126.34375 139.4782,0 251.6561,-56.60462 251.6561,-126.34375 z"
         id="path132"
         inkscape:connector-curvature="0"
         style="fill:#f3b7d9;stroke:#e602b4;stroke-width:9.14770603;stroke-linecap:round;stroke-linejoin:round;stroke-miterlimit:4;stroke-dasharray:none;stroke-opacity:1" />
      <path
         d="m 566.27727,486.15744 c 12.7997,40.36672 -63.6135,75.70779 -179.1824,75.70779 -121.1539,0 -196.2125,-36.47311 -179.1823,-75.70779 22.2134,-51.17628 102.4871,-75.70779 179.1823,-75.70779 73.9186,0 164.7584,30.21836 179.1824,75.70779 z"
         id="path134"
         inkscape:connector-curvature="0"
         style="fill:url(#c)" />
    </g>
    <g
       transform="matrix(0.2216259,0,0,0.2156826,-21.67909,-62.989701)"
       id="g154">
      <path
         d="M 594.20979,637.24835 A 252.67799,126.339 0 0 1 341.5318,763.58735 252.67799,126.339 0 0 1 88.853806,637.24835 252.67799,126.339 0 0 1 341.5318,510.90936 252.67799,126.339 0 0 1 594.20979,637.24835 Z"
         transform="translate(45.061429,-113.57703)"
         id="path144"
         inkscape:connector-curvature="0"
         style="fill:#f0e3ec" />
      <path
         d="m 639.26508,523.65926 c 0,69.7391 -113.2092,126.34375 -252.6874,126.34375 -138.7519,-2e-5 -251.4856,-56.01143 -252.6563,-125.25 l 1,50.25 c 0,69.73913 112.2092,126.34376 251.6876,126.34375 139.4782,0 251.6561,-56.60462 251.6561,-126.34375 z"
         id="path146"
         inkscape:connector-curvature="0"
         style="fill:#f3b7d9;stroke:#e602b4;stroke-width:9.14770603;stroke-linecap:round;stroke-linejoin:round;stroke-miterlimit:4;stroke-dasharray:none;stroke-opacity:1" />
      <path
         d="m 566.27727,486.15744 c 12.7997,40.36672 -63.6135,75.70779 -179.1824,75.70779 -121.1539,0 -196.2125,-36.47311 -179.1823,-75.70779 22.2134,-51.17628 102.4871,-75.70779 179.1823,-75.70779 73.9186,0 164.7584,30.21836 179.1824,75.70779 z"
         id="path148"
         inkscape:connector-curvature="0"
         style="fill:url(#c)" />
    </g>
    <path
       d="m 594.20979,637.24835 a 252.67799,126.339 0 1 1 -505.355984,0 252.67799,126.339 0 1 1 505.355984,0 z"
       transform="matrix(0.2216259,0,0,0.2251584,-11.69231,-110.83553)"
       id="path158"
       inkscape:connector-curvature="0"
       style="fill:#f0e3ec;stroke:#e602b4;stroke-width:8.95314598;stroke-linecap:round;stroke-linejoin:round;stroke-miterlimit:4;stroke-dasharray:none;stroke-opacity:1" />
    <path
       d="m 119.99861,32.44385 c 0,15.702343 -25.090092,28.447356 -56.002074,28.447356 C 33.245522,60.891201 8.2608138,48.279762 8.0013564,32.690117 l 0.2216259,11.314209 c 0,15.702351 24.8684647,28.447359 55.7804907,28.447356 30.911982,0 55.773507,-12.745005 55.773507,-28.447356 z"
       id="path160"
       inkscape:connector-curvature="0"
       style="fill:#f3b7d9;stroke:#e602b4;stroke-width:2;stroke-linecap:round;stroke-linejoin:round;stroke-miterlimit:4;stroke-dasharray:none;stroke-opacity:1" />
    <path
       d="m 8.3261719,7.84375 c -0.5451014,0 -1.0718394,0.087983 -1.5566407,0.2988281 C 6.4702486,8.2718685 6.2010396,8.4588816 5.953125,8.671875 A 1.1441629,1.1441629 0 0 0 5.546875,8.3476562 C 5.390124,8.2737164 5.2343093,8.2077874 5.078125,8.1484375 4.9154189,8.086609 4.750676,8.0331812 4.5859375,7.9902344 4.4177956,7.9457436 4.2464933,7.9123276 4.0742188,7.8886719 3.8952885,7.8637752 3.7136748,7.8515625 3.53125,7.8515625 c -0.3662784,0 -0.7288678,0.049033 -1.0761719,0.1621094 a 1.1441629,1.1441629 0 0 0 -0.00391,0 C 2.1082403,8.1266375 1.7798427,8.307583 1.5039062,8.5546875 1.224619,8.8024309 1.004298,9.1191024 0.86132812,9.4570312 a 1.1441629,1.1441629 0 0 0 -0.001953,0.00586 c -0.14613643,0.35164 -0.2089845,0.7273598 -0.2089845,1.0976558 0,0.380588 0.0658662,0.769652 0.23828126,1.134765 a 1.1441629,1.1441629 0 0 0 0.001953,0.0059 c 0.0870438,0.181767 0.20036762,0.350024 0.32421882,0.511719 a 1.1441629,1.1441629 0 0 0 -0.62890632,1.021484 v 1.082031 a 1.1441629,1.1441629 0 0 0 0.61328132,1.013672 c 0.3037356,0.1591 0.6287896,0.276125 0.9648437,0.351563 a 1.1441629,1.1441629 0 0 0 0.00195,0 c 0.3324154,0.07387 0.6745514,0.109375 1.0195313,0.109375 0.3969891,0 0.783885,-0.04881 1.1542969,-0.167969 0.3563236,-0.113849 0.6977835,-0.289691 0.9902343,-0.541016 a 1.1441629,1.1441629 0 0 0 0.00195,0 c 0.1298722,-0.11189 0.2442082,-0.243485 0.3496094,-0.380859 0.3027031,0.333005 0.6688936,0.610495 1.0800782,0.791016 a 1.1441629,1.1441629 0 0 0 0.00195,0 c 0.3491394,0.152044 0.725538,0.22258 1.109375,0.259765 L 8.0742188,16 h 4.0097652 a 1.1441629,1.1441629 0 0 0 -0.0059,-0.283203 H 15.08785 A 1.1441629,1.1441629 0 0 0 16,15.261719 V 12.921875 A 1.1441629,1.1441629 0 0 0 15.087891,12.464844 H 14.230469 V 9.0742188 A 1.1441629,1.1441629 0 0 0 13.085938,7.9296875 H 11.921875 A 1.1441629,1.1441629 0 0 0 10.8125,8.7929688 C 10.537152,8.5258671 10.22834,8.2944997 9.8769531,8.1425781 9.3942281,7.9313937 8.8686141,7.84375 8.3261719,7.84375 Z m 2.7402341,1.1894531 0.0078,0.00977 c -0.0013,-0.00166 -0.0045,-0.00225 -0.0059,-0.00391 -0.0014,-0.00164 -5.96e-4,-0.00422 -0.002,-0.00586 z M 8.3125,11.099609 c -0.00899,0.0027 0.020309,-8.43e-4 0.015625,0.002 0.014572,0.02663 0.037062,0.06567 0.058594,0.169922 a 1.1441629,1.1441629 0 0 0 0.00391,0.01563 C 8.41906,11.41649 8.4375,11.594415 8.4375,11.816406 c 0,0.22199 -0.019745,0.401374 -0.048828,0.535156 a 1.1441629,1.1441629 0 0 0 -0.00195,0.0098 c -0.021077,0.100949 -0.043266,0.139924 -0.058594,0.167969 -0.00817,10e-4 0.018056,-0.0039 -0.00977,-0.0039 -0.02321,0 0.00121,0.0047 -0.00586,0.0039 C 8.295546,12.498621 8.271053,12.453691 8.248045,12.349643 8.219113,12.215995 8.199217,12.037719 8.199217,11.81644 c 0,-0.22199 0.020393,-0.399916 0.048828,-0.529297 a 1.1441629,1.1441629 0 0 0 0,-0.0039 c 0.023799,-0.109474 0.048268,-0.154581 0.064453,-0.183594 z m -2.75,0.177735 0.015625,0.01758 c -0.00192,-0.0022 -0.00393,-0.0017 -0.00586,-0.0039 -0.00343,-0.0038 -0.00632,-0.0099 -0.00977,-0.01367 z m 3.0585938,4.488281 -0.039063,0.0059 c -0.049123,0.0082 -0.09564,0.01172 -0.1386718,0.01172 0.054802,-0.0028 0.1048228,-0.0028 0.1777344,-0.01758 z"
       transform="scale(8)"
       id="path170"
       inkscape:connector-curvature="0"
       style="fill:#9d3a9b;fill-opacity:0.98897101;stroke-width:0.125" />
    <g
       id="g178"
       style="stroke-width:1.54020405">
      <path
         d="m 40.649814,104.3628 q 0,2.94805 -1.022792,5.32454 -0.99271,2.3464 -2.948047,4.031 -1.925255,1.65452 -4.752974,2.55698 -2.797636,0.90246 -6.437572,0.90246 -3.188704,0 -6.166833,-0.6618 -2.948047,-0.66181 -5.474944,-1.98542 v -8.66365 q 1.443941,0.69189 2.917965,1.35369 1.474023,0.63173 2.978129,1.14312 1.534188,0.5114 3.038293,0.81222 1.534188,0.30082 3.038293,0.30082 1.534188,0 2.617144,-0.3309 1.113038,-0.36099 1.774845,-0.96263 0.691888,-0.63172 0.99271,-1.47402 0.330903,-0.87238 0.330903,-1.89517 0,-1.23337 -0.541478,-2.16592 -0.511396,-0.96262 -1.474024,-1.77484 -0.932545,-0.8423 -2.28624,-1.624435 -1.323613,-0.782135 -2.978129,-1.654516 -1.383778,-0.721971 -3.098458,-1.744763 -1.71468,-1.022792 -3.248868,-2.526897 -1.504106,-1.534188 -2.526897,-3.670018 -1.022792,-2.165912 -1.022792,-5.174123 0,-2.948047 0.962627,-5.26437 0.99271,-2.346405 2.797637,-3.940757 1.804927,-1.624434 4.361906,-2.466733 2.587062,-0.842299 5.775766,-0.842299 1.594352,0 3.098457,0.210575 1.534188,0.210575 3.008211,0.601642 1.504106,0.391067 3.008212,0.962628 1.504105,0.57156 3.098457,1.323613 l -3.008211,7.249789 q -1.353695,-0.631725 -2.526898,-1.113039 -1.173202,-0.481313 -2.28624,-0.812217 -1.113038,-0.330903 -2.195994,-0.481313 -1.052874,-0.180493 -2.13583,-0.180493 -2.346405,0 -3.609854,1.263449 -1.233366,1.233366 -1.233366,3.309032 0,1.113038 0.360985,1.985419 0.391068,0.8423 1.203285,1.594352 0.842299,0.752053 2.13583,1.534188 1.323612,0.782135 3.188703,1.774845 2.256159,1.203284 4.151332,2.466733 1.895173,1.233366 3.248868,2.767554 1.383777,1.504106 2.13583,3.429361 0.752053,1.925253 0.752053,4.512313 z"
         id="path172"
         inkscape:connector-curvature="0"
         style="fill:#f3b7d9" />
      <path
         d="m 86.284378,94.525953 q 0,3.579771 -0.601643,6.738397 -0.57156,3.12854 -1.774844,5.7156 -1.173203,2.58706 -2.978129,4.60256 -1.774845,2.0155 -4.211496,3.33912 l 10.859643,12.12309 H 75.605228 l -8.062006,-9.9271 q -0.210575,0 -0.391068,0.0301 -0.15041,0.0301 -0.330903,0.0301 -0.15041,0 -0.270739,0 -5.053795,0 -8.783977,-1.62443 -3.700099,-1.62443 -6.136751,-4.60256 -2.406569,-2.97813 -3.609853,-7.15955 -1.173202,-4.211492 -1.173202,-9.325451 0,-5.113959 1.173202,-9.265291 1.203284,-4.181413 3.639936,-7.12946 2.436651,-2.948047 6.13675,-4.542399 3.730182,-1.624434 8.814059,-1.624434 5.053795,0 8.753895,1.624434 3.7001,1.594352 6.106669,4.572481 2.436651,2.948047 3.609853,7.12946 1.203285,4.151332 1.203285,9.295373 z m -29.841456,0 q 0,3.459443 0.601643,6.226997 0.601642,2.73747 1.835009,4.66273 1.263448,1.89517 3.158621,2.91796 1.895173,1.02279 4.512317,1.02279 2.677308,0 4.572481,-1.02279 1.925255,-1.02279 3.12854,-2.91796 1.233366,-1.92526 1.804927,-4.66273 0.601642,-2.767554 0.601642,-6.226997 0,-3.459443 -0.601642,-6.196915 -0.571561,-2.767554 -1.804927,-4.692809 -1.203285,-1.925256 -3.098458,-2.948047 -1.895173,-1.022792 -4.542399,-1.022792 -2.617143,0 -4.542399,1.022792 -1.925255,1.022791 -3.188703,2.948047 -1.233367,1.925255 -1.835009,4.692809 -0.601643,2.737472 -0.601643,6.196915 z"
         id="path174"
         inkscape:connector-curvature="0"
         style="fill:#f3b7d9" />
      <path
         d="M 95.369174,116.57614 V 72.596093 h 9.325456 v 36.279027 h 16.00368 v 7.70102 z"
         id="path176"
         inkscape:connector-curvature="0"
         style="fill:#f3b7d9" />
    </g>
    <g
       transform="matrix(0.61896448,0,0,0.61896448,52.200142,-3.282402)"
       id="g204">
      <path
         d="m 27.466896,21.725018 c -6.375901,0 -11.509136,5.133235 -11.509136,11.509136 v 72.876216 c 0,6.37591 5.133235,11.50914 11.509136,11.50914 h 72.921174 c 6.3759,0 11.50913,-5.13323 11.50913,-11.50914 V 33.234154 c 0,-6.375901 -5.13323,-11.509136 -11.50913,-11.509136 z"
         transform="matrix(1.1653284,0,0,1.1653284,-10.569027,-16.960745)"
         id="path180"
         inkscape:connector-curvature="0"
         style="fill:url(#f);filter:url(#g)" />
      <path
         d="m 19.948522,5.3551937 c -7.751676,0 -13.9925468,6.2408713 -13.9925468,13.9925483 V 107.949 c 0,7.75169 6.2408708,13.99255 13.9925468,13.99255 h 88.655908 c 7.75168,0 13.99254,-6.24086 13.99254,-13.99255 V 19.347742 c 0,-7.751677 -6.24086,-13.9925483 -13.99254,-13.9925483 z"
         id="path182"
         inkscape:connector-curvature="0"
         style="fill:#e602b4;stroke-width:1.00400198" />
      <path
         d="m 10.65625,58.746094 c -2.9579571,0 -5.2539063,2.295949 -5.2539062,5.253906 v 50.65625 c 0,2.95796 2.2959487,5.25391 5.2539062,5.25391 h 50.6875 c 2.957958,0 5.253906,-2.29595 5.253906,-5.25391 V 64 c 0,-2.957957 -2.295949,-5.253906 -5.253906,-5.253906 z"
         transform="matrix(1.4913377,0,0,1.4913377,10.999794,-69.264715)"
         id="path184"
         inkscape:connector-curvature="0"
         style="fill:#f0e3ec" />
      <g
         transform="matrix(0.0584211,0,0,0.0584211,60.78472,59.623457)"
         id="g202">
        <rect
           height="287.20206"
           rx="143.601"
           width="287.64603"
           x="-78.441124"
           y="398.92636"
           id="rect198"
           style="fill:#e602b4" />
        <rect
           height="771.66992"
           rx="60.070717"
           width="219.95941"
           x="-49.15818"
           y="-484.68402"
           id="rect200"
           style="fill:#e602b4;stroke-width:0.99999899" />
      </g>
    </g>
  </g>
</svg>
