<?xml version="1.0" encoding="UTF-8" standalone="no"?>
<svg
   xmlns:dc="http://purl.org/dc/elements/1.1/"
   xmlns:cc="http://creativecommons.org/ns#"
   xmlns:rdf="http://www.w3.org/1999/02/22-rdf-syntax-ns#"
   xmlns:svg="http://www.w3.org/2000/svg"
   xmlns="http://www.w3.org/2000/svg"
   xmlns:sodipodi="http://sodipodi.sourceforge.net/DTD/sodipodi-0.dtd"
   xmlns:inkscape="http://www.inkscape.org/namespaces/inkscape"
   height="16"
   viewBox="0 0 16 16"
   width="16"
   version="1.1"
   id="svg158"
   sodipodi:docname="sc_dbreportopen.svg"
   inkscape:version="0.92.3 (2405546, 2018-03-11)">
  <metadata
     id="metadata164">
    <rdf:RDF>
      <cc:Work
         rdf:about="">
        <dc:format>image/svg+xml</dc:format>
        <dc:type
           rdf:resource="http://purl.org/dc/dcmitype/StillImage" />
        <dc:title></dc:title>
      </cc:Work>
    </rdf:RDF>
  </metadata>
  <defs
     id="defs162" />
  <sodipodi:namedview
     pagecolor="#ffffff"
     bordercolor="#666666"
     borderopacity="1"
     objecttolerance="10"
     gridtolerance="10"
     guidetolerance="10"
     inkscape:pageopacity="0"
     inkscape:pageshadow="2"
     inkscape:window-width="1366"
     inkscape:window-height="705"
     id="namedview160"
     showgrid="true"
     inkscape:zoom="29.5"
     inkscape:cx="6.5979036"
     inkscape:cy="7.2751167"
     inkscape:window-x="-8"
     inkscape:window-y="-8"
     inkscape:window-maximized="1"
     inkscape:current-layer="svg158">
    <inkscape:grid
       type="xygrid"
       id="grid166" />
  </sodipodi:namedview>
  <clipPath
     id="a">
    <rect
       height="40.457153"
       rx="4"
       width="80.914307"
       x="30.971436"
       y="939.09216"
       id="rect2" />
  </clipPath>
  <filter
     id="b">
    <feGaussianBlur
       stdDeviation="1.0394514"
       id="feGaussianBlur5" />
  </filter>
  <filter
     id="c">
    <feGaussianBlur
       stdDeviation=".50063244"
       id="feGaussianBlur8" />
  </filter>
  <radialGradient
     id="d"
     cx="102"
     cy="112.3047"
     gradientUnits="userSpaceOnUse"
     r="139.5585">
    <stop
       offset="0"
       stop-color="#ecf2f5"
       id="stop11" />
    <stop
       offset=".2435"
       stop-color="#fafcfd"
       id="stop13" />
    <stop
       offset=".2722"
       stop-color="#fff"
       id="stop15" />
  </radialGradient>
  <radialGradient
     id="e"
     cx="102"
     cy="112.3047"
     gradientTransform="matrix(.9787234 0 0 .9818182 1.361705 1.163636)"
     gradientUnits="userSpaceOnUse"
     r="139.55859">
    <stop
       offset="0"
       stop-color="#ececec"
       id="stop18" />
    <stop
       offset=".2363"
       stop-color="#fafafa"
       id="stop20" />
    <stop
       offset=".2722"
       stop-color="#fff"
       id="stop22" />
    <stop
       offset=".5313"
       stop-color="#fafafa"
       id="stop24" />
    <stop
       offset=".8449"
       stop-color="#ebecec"
       id="stop26" />
    <stop
       offset="1"
       stop-color="#e1e2e3"
       id="stop28" />
  </radialGradient>
  <linearGradient
     id="f"
     gradientUnits="userSpaceOnUse"
     x1="8"
     x2="8"
     y1="5"
     y2="15">
    <stop
       offset="0"
       stop-color="#5678c8"
       id="stop31" />
    <stop
       offset=".94117647"
       stop-color="#3f59ae"
       id="stop33" />
    <stop
       offset="1"
       stop-color="#3d7cdb"
       id="stop35" />
  </linearGradient>
  <linearGradient
     id="g"
     gradientUnits="userSpaceOnUse"
     x1="5.5"
     x2="5.5"
     y1="12"
     y2="13">
    <stop
       offset="0"
       stop-color="#174072"
       id="stop38" />
    <stop
       offset="1"
       stop-color="#174072"
       stop-opacity="0"
       id="stop40" />
  </linearGradient>
  <linearGradient
     id="h"
     gradientUnits="userSpaceOnUse"
     x1="9"
     x2="9"
     y1="-1"
     y2="10">
    <stop
       offset="0"
       stop-color="#102134"
       id="stop43" />
    <stop
       offset="1"
       stop-color="#102134"
       stop-opacity="0"
       id="stop45" />
  </linearGradient>
  <filter
     id="i"
     color-interpolation-filters="sRGB"
     height="1.267833"
     width="1.129187"
     x="-.064594"
     y="-.133917">
    <feGaussianBlur
       stdDeviation="3.1247207"
       id="feGaussianBlur48" />
  </filter>
  <linearGradient
     id="j"
     gradientUnits="userSpaceOnUse"
     x1=".37741"
     x2=".37741"
     y1="5.214652"
     y2="3.309088">
    <stop
       offset="0"
       stop-color="#34608f"
       id="stop51" />
    <stop
       offset="1"
       stop-color="#34608f"
       stop-opacity="0"
       id="stop53" />
  </linearGradient>
  <linearGradient
     id="k"
     gradientTransform="matrix(.21345221 0 0 .1138394 -11.411169 -103.22724)"
     gradientUnits="userSpaceOnUse"
     x1="124.01234"
     x2="124.01234"
     y1="966.51019"
     y2="935.34326">
    <stop
       offset="0"
       id="stop56" />
    <stop
       offset="1"
       stop-color="#34608f"
       stop-opacity="0"
       id="stop58" />
  </linearGradient>
  <linearGradient
     id="l"
     gradientUnits="userSpaceOnUse"
     x1="55"
     x2="55"
     y1="1036.4132"
     y2="1032.4822">
    <stop
       offset="0"
       stop-color="#003d7b"
       id="stop61" />
    <stop
       offset="1"
       stop-color="#003d7b"
       stop-opacity="0"
       id="stop63" />
  </linearGradient>
  <filter
     id="m"
     color-interpolation-filters="sRGB"
     height="1.697208"
     width="1.027888"
     x="-.013944"
     y="-.348604">
    <feGaussianBlur
       stdDeviation=".70882694"
       id="feGaussianBlur66" />
  </filter>
  <filter
     id="n"
     color-interpolation-filters="sRGB"
     height="1.869989"
     width="1.027669"
     x="-.013834"
     y="-.434994">
    <feGaussianBlur
       stdDeviation=".70324038"
       id="feGaussianBlur69" />
  </filter>
  <g
     transform="matrix(0.125,0,0,0.125,-1,0)"
     id="g128">
    <path
       d="M 16,8 V 120 H 77.171875 112 V 85.171875 42.828125 8 H 77.171875 Z"
       id="path78"
       inkscape:connector-curvature="0"
       style="fill:#f3b7d9" />
    <path
       d="m 24.679688,16 c -0.539277,0 -0.980469,0.44144 -0.980469,0.982422 L 23.849609,64 l -0.15039,47.01758 c 0,0.54098 0.441192,0.98242 0.980469,0.98242 h 0.298828 51.914062 26.128902 C 103.56173,112 104,111.55856 104,111.01758 V 84.787109 43.212891 16.982422 C 104,16.44144 103.56173,16 103.02148,16 H 76.892578 24.978516 Z"
       id="path80"
       inkscape:connector-curvature="0"
       style="fill:#f0e3ec" />
    <path
       d="m 40,96 h 48 v 8 H 40 Z"
       id="path82"
       inkscape:connector-curvature="0"
       style="opacity:0.36725703;fill:#4c9ac3;fill-opacity:0.50857101;fill-rule:evenodd" />
    <path
       d="m 40,80 h 48 v 8 H 40 Z"
       id="path84"
       inkscape:connector-curvature="0"
       style="opacity:0.36725703;fill:#4c9ac3;fill-opacity:0.50857101;fill-rule:evenodd" />
    <g
       id="g100"
       style="fill:#2d2d2d">
      <path
         d="m 24,15.999997 h 8 v 8 h -8 z"
         id="path86"
         inkscape:connector-curvature="0"
         style="opacity:0.38053104;fill:#9d3a9b" />
      <path
         d="m 24,31.999998 h 8 v 8 h -8 z"
         id="path88"
         inkscape:connector-curvature="0"
         style="opacity:0.38053104;fill:#9d3a9b" />
      <path
         d="m 24,47.999996 h 8 v 8 h -8 z"
         id="path90"
         inkscape:connector-curvature="0"
         style="opacity:0.38053104;fill:#9d3a9b" />
      <path
         d="m 24,63.999996 h 8 v 8 h -8 z"
         id="path92"
         inkscape:connector-curvature="0"
         style="opacity:0.38053104;fill:#9d3a9b" />
      <path
         d="m 24,80 h 8 v 8 h -8 z"
         id="path94"
         inkscape:connector-curvature="0"
         style="opacity:0.38053104;fill:#9d3a9b" />
      <path
         d="m 24,96 h 8 v 8 h -8 z"
         id="path96"
         inkscape:connector-curvature="0"
         style="opacity:0.38053104;fill:#9d3a9b" />
      <path
         d="m 24,112 h 8 v 8 h -8 z"
         id="path98"
         inkscape:connector-curvature="0"
         style="opacity:0.38053104;fill:#e602b4;fill-opacity:0.33155099" />
    </g>
    <g
       id="g110"
       style="fill:#4c9ac3;fill-opacity:0.50857101;fill-rule:evenodd">
      <path
         d="m 40,15.999997 h 48 v 8 H 40 Z"
         id="path102"
         inkscape:connector-curvature="0"
         style="opacity:0.36725703;fill:#e602b4" />
      <path
         d="m 40,31.999998 h 48 v 8 H 40 Z"
         id="path104"
         inkscape:connector-curvature="0"
         style="opacity:0.36725703;fill:#e602b4" />
      <path
         d="m 40,47.999996 h 48 v 8 H 40 Z"
         id="path106"
         inkscape:connector-curvature="0"
         style="opacity:0.36725703" />
      <path
         d="m 40,63.999996 h 48 v 8 H 40 Z"
         id="path108"
         inkscape:connector-curvature="0"
         style="opacity:0.36725703" />
    </g>
    <g
       id="g126"
       style="fill:#2d2d2d">
      <path
         d="m 96,16 h 8 v 8 h -8 z"
         id="path112"
         inkscape:connector-curvature="0"
         style="opacity:0.38053104;fill:#9d3a9b" />
      <path
         d="m 96,32 h 8 v 8 h -8 z"
         id="path114"
         inkscape:connector-curvature="0"
         style="opacity:0.38053104;fill:#9d3a9b" />
      <path
         d="m 96,48 h 8 v 8 h -8 z"
         id="path116"
         inkscape:connector-curvature="0"
         style="opacity:0.38053104" />
      <path
         d="m 96,64 h 8 v 8 h -8 z"
         id="path118"
         inkscape:connector-curvature="0"
         style="opacity:0.38053104" />
      <path
         d="m 96,80 h 8 v 8 h -8 z"
         id="path120"
         inkscape:connector-curvature="0"
         style="opacity:0.38053104" />
      <path
         d="m 96,96 h 8 v 8 h -8 z"
         id="path122"
         inkscape:connector-curvature="0"
         style="opacity:0.38053104" />
      <path
         d="m 96,112 h 8 v 8 h -8 z"
         id="path124"
         inkscape:connector-curvature="0"
         style="opacity:0.38053104;fill-opacity:0.33155099" />
    </g>
  </g>
  <path
     d="m4.5 5c-.5 0-.5.3826937-.5.5v1.5l-.0000001 2.9999993c0 .5539997.446.9999997 1 .9999997l10.0000001.000001c.554 0 1-.446 1-1v-2.9999993c0-.554-.446-.9999999-1-1l-5.0957031-.0000007c-.084201-.4859507-.178001-1-.4042969-1z"
     fill="#3b6ca9"
     id="path134"
     style="fill:#9d3a9b" />
  <path
     d="m4.9999999 5.9999993h3v.9999999h-3z"
     fill="#fcf9e9"
     id="path136" />
  <path
     d="m4.4999999 4.9999993c-.5 0-.5.3826937-.5.5v1.5 3c0 .5539997.446.9999997 1 .9999997v-3.9999997-1h3.8828125c.013345.068527.023996.094239.037109.1699219.082673.4792195.4980774.8295107.9843754.8300781h1.0957032l4 .0000007v4c.554 0 1-.446 1-1v-3c0-.554-.446-.9999999-1-1l-5.0957032-.0000007c-.084201-.4859507-.178001-1-.4042969-1z"
     fill="url(#h)"
     opacity=".25"
     id="path138"
     style="fill:#f3b7d9" />
  <path
     d="m7 6h1v.9999999h-1z"
     fill="#fbc66d"
     id="path140"
     style="fill:#e602b4" />
  <path
     d="m4.9999999 9.9999993h2.5l1-1 6.5000001.0000007c.554.0000001 1 .446 1 1v4c0 .554-.446 1-1 1l-10.0000001-.000001c-.554 0-1-.446-1-1v-3c0-.554.5673986-1.3460808 1-.9999997z"
     fill="url(#f)"
     id="path144"
     style="fill:#e602b4" />
  <path
     d="m8.4999999 8.9999993-1 1h-2.5c-.554 0-1 .4459997-1 .9999997v1c0-.554.5673987-1.346081 1-1h2.5l1-.9999997 6.5000001.0000007c.554 0 1 .446 1 1v-1c0-.554-.446-1-1-1z"
     fill="#a4c0e8"
     id="path146"
     style="fill:#f3b7d9" />
  <path
     d="m3.9999999 11.999999 12.0000001.000001v1l-12.0000001-.000001z"
     fill="#385da4"
     id="path148" />
  <path
     d="m3.9999999 11.999999h7.0000001l5 .000001v1l-12.0000001-.000001z"
     fill="url(#g)"
     id="path150"
     style="fill:#9d3a9b" />
  <path
     d="m3.9999999 12.999999 12.0000001.000001v.5l-12.0000001-.000001z"
     fill="#a4c0e8"
     id="path152"
     style="fill:#f3b7d9" />
</svg>
