<?xml version="1.0" encoding="UTF-8" standalone="no"?>
<svg
   xmlns:dc="http://purl.org/dc/elements/1.1/"
   xmlns:cc="http://creativecommons.org/ns#"
   xmlns:rdf="http://www.w3.org/1999/02/22-rdf-syntax-ns#"
   xmlns:svg="http://www.w3.org/2000/svg"
   xmlns="http://www.w3.org/2000/svg"
   xmlns:xlink="http://www.w3.org/1999/xlink"
   xmlns:sodipodi="http://sodipodi.sourceforge.net/DTD/sodipodi-0.dtd"
   xmlns:inkscape="http://www.inkscape.org/namespaces/inkscape"
   height="16"
   viewBox="0 0 4.2333332 4.2333335"
   width="16"
   version="1.1"
   id="svg222"
   sodipodi:docname="sc_dataproviderrefresh.svg"
   inkscape:version="0.92.3 (2405546, 2018-03-11)">
  <metadata
     id="metadata228">
    <rdf:RDF>
      <cc:Work
         rdf:about="">
        <dc:format>image/svg+xml</dc:format>
        <dc:type
           rdf:resource="http://purl.org/dc/dcmitype/StillImage" />
        <dc:title></dc:title>
      </cc:Work>
    </rdf:RDF>
  </metadata>
  <defs
     id="defs226" />
  <sodipodi:namedview
     pagecolor="#ffffff"
     bordercolor="#666666"
     borderopacity="1"
     objecttolerance="10"
     gridtolerance="10"
     guidetolerance="10"
     inkscape:pageopacity="0"
     inkscape:pageshadow="2"
     inkscape:window-width="1366"
     inkscape:window-height="705"
     id="namedview224"
     showgrid="true"
     inkscape:zoom="16"
     inkscape:cx="3.3267701"
     inkscape:cy="12.766207"
     inkscape:window-x="-8"
     inkscape:window-y="-8"
     inkscape:window-maximized="1"
     inkscape:current-layer="svg222"
     inkscape:snap-global="false">
    <inkscape:grid
       type="xygrid"
       id="grid1037" />
  </sodipodi:namedview>
  <linearGradient
     id="a">
    <stop
       offset="0"
       id="stop2" />
    <stop
       offset="1"
       stop-opacity="0"
       id="stop4" />
  </linearGradient>
  <radialGradient
     id="b"
     cx="10.720569"
     cy="6.389769"
     gradientTransform="matrix(.45075749 .01596601 -.01621215 .45770648 5.991784 3.294194)"
     gradientUnits="userSpaceOnUse"
     r="4.500402">
    <stop
       offset="0"
       stop-color="#fff"
       id="stop7" />
    <stop
       offset="1"
       stop-color="#fff"
       stop-opacity="0"
       id="stop9" />
  </radialGradient>
  <filter
     id="c"
     color-interpolation-filters="sRGB"
     height="1.036001"
     width="1.035999"
     x="-.018"
     y="-.018">
    <feGaussianBlur
       stdDeviation=".067504158"
       id="feGaussianBlur12" />
  </filter>
  <linearGradient
     id="d"
     gradientUnits="userSpaceOnUse"
     x1="17.443756"
     x2="17.524389"
     y1="5.924313"
     y2="6.65001">
    <stop
       offset="0"
       stop-color="#bfbfff"
       id="stop15" />
    <stop
       offset="1"
       stop-color="#bfbfff"
       stop-opacity="0"
       id="stop17" />
  </linearGradient>
  <radialGradient
     id="e"
     cx="10.25"
     cy="13.250153"
     gradientTransform="matrix(1 0 0 .9999445 0 .000583)"
     gradientUnits="userSpaceOnUse"
     r="4.500402">
    <stop
       offset="0"
       stop-color="#2c41be"
       id="stop20" />
    <stop
       offset="1"
       stop-color="#2c41be"
       stop-opacity="0"
       id="stop22" />
  </radialGradient>
  <radialGradient
     id="f"
     cx="13"
     cy="9.999972"
     gradientTransform="matrix(0.18591364,1.5875e-8,-1.3229166e-8,0.17637313,1.0227061,0.8821068)"
     gradientUnits="userSpaceOnUse"
     r="4.500402">
    <stop
       offset="0"
       stop-color="#00f"
       id="stop25" />
    <stop
       offset="1"
       stop-color="#00004d"
       stop-opacity="0"
       id="stop27" />
  </radialGradient>
  <radialGradient
     id="g"
     cx="10.499598"
     cy="10.500055"
     gradientTransform="matrix(0.26458333,0,0,0.26456865,0,1.5425208e-4)"
     gradientUnits="userSpaceOnUse"
     r="4.500402"
     xlink:href="#a" />
  <radialGradient
     id="h"
     cx="6"
     cy="9.999972"
     gradientTransform="matrix(0.1175821,0,0,0.26456865,0.88200732,1.5425208e-4)"
     gradientUnits="userSpaceOnUse"
     r="4.500402"
     xlink:href="#a" />
  <radialGradient
     id="i"
     cx="10.000115"
     cy="14.246079"
     gradientTransform="matrix(0.26458333,-1.3229166e-8,2.1166666e-8,0.48502612,-3.0691666e-5,-3.1394079)"
     gradientUnits="userSpaceOnUse"
     r="4.500402">
    <stop
       offset="0"
       stop-color="#5757ff"
       id="stop32" />
    <stop
       offset=".3553"
       stop-color="#223fd1"
       id="stop34" />
    <stop
       offset=".6194"
       stop-color="#0f1af2"
       id="stop36" />
    <stop
       offset=".7574"
       stop-color="#0000cf"
       id="stop38" />
    <stop
       offset="1"
       stop-color="#00008e"
       id="stop40" />
  </radialGradient>
  <linearGradient
     id="j"
     gradientTransform="matrix(0.02089039,0,0,0.02074745,7.2394304,1.9488478)"
     gradientUnits="userSpaceOnUse"
     x1="17"
     x2="17"
     y1="8"
     y2="17">
    <stop
       offset="0"
       stop-color="#00008c"
       id="stop43" />
    <stop
       offset=".3553"
       stop-color="#1c1cac"
       id="stop45" />
    <stop
       offset=".6194"
       stop-color="#080895"
       id="stop47" />
    <stop
       offset=".7574"
       stop-color="#00008c"
       id="stop49" />
    <stop
       offset="1"
       stop-color="#00004d"
       id="stop51" />
  </linearGradient>
  <clipPath
     id="k">
    <path
       d="m2.7874267 294.08995c-.6536123-.004-1.2297545.42813-1.4086995 1.05678-.1898565.66692.1172257 1.37515.7338053 1.6924.4171572.21458.8956189.20527 1.2965618.0119l-.5896282-.91106a.396875.396875 0 0 1 -.2227254-.0419.396875.396875 0 0 1 -.2005046-.46147.396875.396875 0 0 1 .4134116-.28732.396875.396875 0 0 1 .1834513.063l-.2413289.24133a.13030278.13030278 0 0 0 .091984.22273h1.2578043a.13030278.13030278 0 0 0 .1307415-.13126v-1.25781a.13030278.13030278 0 0 0 -.1348756-.13074.13030278.13030278 0 0 0 -.08785.0393l-.2640666.26406c-.236479-.21133-.5355238-.33962-.8516276-.36535-.035416-.003-.070924-.004-.1064535-.005z"
       id="path54" />
  </clipPath>
  <linearGradient
     id="l"
     gradientTransform="matrix(-.1202386 -.01552063 0 .1202386 50.206103 228.09465)"
     gradientUnits="userSpaceOnUse"
     x1="391.14813"
     x2="385.39752"
     y1="618.61072"
     y2="613.20654">
    <stop
       offset="0"
       stop-color="#fff"
       id="stop57" />
    <stop
       offset="1"
       stop-opacity="0"
       id="stop59" />
  </linearGradient>
  <mask
     id="m"
     maskUnits="userSpaceOnUse">
    <path
       d="m2.778125 295.8755.1286275-.17268.7974142.0404.8837099-.0464s-.8750292 1.075-.9068935 1.13463c-.031864.0596-.1752539.16856-.1752539.16856z"
       fill="url(#l)"
       fill-rule="evenodd"
       stroke-width=".120238"
       id="path62" />
  </mask>
  <filter
     id="n">
    <feGaussianBlur
       stdDeviation="1.0394514"
       id="feGaussianBlur65" />
  </filter>
  <filter
     id="o">
    <feGaussianBlur
       stdDeviation=".50063244"
       id="feGaussianBlur68" />
  </filter>
  <radialGradient
     id="p"
     cx="102"
     cy="112.3047"
     gradientUnits="userSpaceOnUse"
     r="139.5585">
    <stop
       offset="0"
       stop-color="#00537d"
       id="stop71" />
    <stop
       offset=".0151"
       stop-color="#186389"
       id="stop73" />
    <stop
       offset=".0558"
       stop-color="#558ca8"
       id="stop75" />
    <stop
       offset=".0964"
       stop-color="#89afc3"
       id="stop77" />
    <stop
       offset=".1357"
       stop-color="#b3ccd8"
       id="stop79" />
    <stop
       offset=".1737"
       stop-color="#d4e2e9"
       id="stop81" />
    <stop
       offset=".2099"
       stop-color="#ecf2f5"
       id="stop83" />
    <stop
       offset=".2435"
       stop-color="#fafcfd"
       id="stop85" />
    <stop
       offset=".2722"
       stop-color="#fff"
       id="stop87" />
  </radialGradient>
  <radialGradient
     id="q"
     cx="102"
     cy="112.3047"
     gradientTransform="matrix(0.03236924,0,0,0.03247159,0.04503553,0.03848471)"
     gradientUnits="userSpaceOnUse"
     r="139.55859">
    <stop
       offset="0"
       stop-color="#535557"
       id="stop90" />
    <stop
       offset=".11366145"
       stop-color="#898a8c"
       id="stop92" />
    <stop
       offset=".20296688"
       stop-color="#ececec"
       id="stop94" />
    <stop
       offset=".2363"
       stop-color="#fafafa"
       id="stop96" />
    <stop
       offset=".2722"
       stop-color="#fff"
       id="stop98" />
    <stop
       offset=".5313"
       stop-color="#fafafa"
       id="stop100" />
    <stop
       offset=".8449"
       stop-color="#ebecec"
       id="stop102" />
    <stop
       offset="1"
       stop-color="#e1e2e3"
       id="stop104" />
  </radialGradient>
  <filter
     id="r"
     height="1.247155"
     width="1.247155"
     x="-.123577"
     y="-.123577">
    <feGaussianBlur
       stdDeviation="1.7720846"
       id="feGaussianBlur107" />
  </filter>
  <filter
     id="s">
    <feGaussianBlur
       stdDeviation=".90565481"
       id="feGaussianBlur110" />
  </filter>
  <linearGradient
     id="t"
     gradientUnits="userSpaceOnUse"
     x1="85.219681"
     x2="61.336319"
     y1="93.219681"
     y2="69.336319">
    <stop
       offset="0"
       id="stop113" />
    <stop
       offset="1"
       stop-color="#393b38"
       id="stop115" />
  </linearGradient>
  <filter
     id="u">
    <feGaussianBlur
       stdDeviation=".4901192"
       id="feGaussianBlur118" />
  </filter>
  <linearGradient
     id="v"
     gradientUnits="userSpaceOnUse"
     x1="96"
     x2="88.000198"
     y1="104"
     y2="96.000198"
     gradientTransform="scale(0.03307292)">
    <stop
       offset="0"
       stop-color="#888a85"
       id="stop121" />
    <stop
       offset=".0072"
       stop-color="#8c8e89"
       id="stop123" />
    <stop
       offset=".0673"
       stop-color="#abaca9"
       id="stop125" />
    <stop
       offset=".1347"
       stop-color="#c5c6c4"
       id="stop127" />
    <stop
       offset=".2115"
       stop-color="#dbdbda"
       id="stop129" />
    <stop
       offset=".3012"
       stop-color="#ebebeb"
       id="stop131" />
    <stop
       offset=".4122"
       stop-color="#f7f7f6"
       id="stop133" />
    <stop
       offset=".5679"
       stop-color="#fdfdfd"
       id="stop135" />
    <stop
       offset="1"
       stop-color="#fff"
       id="stop137" />
  </linearGradient>
  <linearGradient
     id="w"
     gradientTransform="matrix(.28494299 0 0 .34511728 .597009 263.04019)"
     gradientUnits="userSpaceOnUse"
     x1="46.048"
     x2="46.048"
     y1="128.01709"
     y2="16.6203">
    <stop
       offset="0"
       stop-color="#c7cdd7"
       id="stop140" />
    <stop
       offset="1"
       stop-color="#fff"
       id="stop142" />
  </linearGradient>
  <linearGradient
     id="x"
     gradientUnits="userSpaceOnUse"
     x1="67.266975"
     x2="67.266975"
     y1="304.08835"
     y2="-40.112503">
    <stop
       offset="0"
       id="stop145" />
    <stop
       offset="1"
       stop-color="#fff"
       id="stop147" />
  </linearGradient>
  <g
     id="g1091">
    <path
       style="fill:#e602b4;stroke-width:0.03307292"
       inkscape:connector-curvature="0"
       id="path156"
       d="M 0.52916679,0.26458319 V 3.9687504 H 2.5523034 c 0.017529,0 0.034363,-0.00698 0.046765,-0.019381 l 1.0857177,-1.085718 c 0.012402,-0.012402 0.019381,-0.029237 0.019381,-0.046765 V 0.26458319 Z" />
    <path
       style="fill:#f0e3ec;stroke-width:0.03307292"
       inkscape:connector-curvature="0"
       id="path158"
       d="m 0.8161975,0.52916655 c -0.0178354,0 -0.0323692,0.0145797 -0.0323692,0.0324716 l 0.009922,3.11005725 c 0,0.017924 0.0145338,0.032472 0.0323692,0.032472 h 1.7169151 c 0.00851,0 0.016864,-0.00344 0.022885,-0.00951 L 3.4300994,2.8271127 c 0.00605,-0.00607 0.00948,-0.014417 0.00948,-0.022957 V 0.56163814 c 0,-0.0178919 -0.014502,-0.0324716 -0.032369,-0.0324716 z" />
    <path
       d="m 2.5990685,3.9493697 c 0,0 0.3940308,-0.327885 0.5759318,-0.509786 0.1819011,-0.1819011 0.509786,-0.5759318 0.509786,-0.5759318 0,0 -0.6999553,0.046765 -1.0389527,0.046765 0,0.3389974 -0.046765,1.0389527 -0.046765,1.0389528 z"
       id="path166"
       inkscape:connector-curvature="0"
       style="fill:#e602b4;stroke-width:0.03307292" />
    <path
       style="fill:#f0e3ec;fill-opacity:1;stroke-width:0.125"
       inkscape:connector-curvature="0"
       id="path172"
       d="M 0.264583,1.3229162 H 2.6458331 V 4.1010413 H 0.264583 Z" />
    <path
       style="fill:#f3b7d9;fill-opacity:1;stroke:#e602b4;stroke-width:0.06614583;stroke-linecap:round;stroke-linejoin:round;stroke-miterlimit:4;stroke-dasharray:none;stroke-opacity:1"
       inkscape:connector-curvature="0"
       id="path174"
       d="M 0.03307272,1.1565183 V 1.292556 2.0863061 2.2185977 3.1408934 3.2731851 4.0706818 4.199227 H 0.29765608 1.3559895 1.6205729 2.6789063 2.9434897 V 4.0706818 1.1565183 Z M 0.29765608,1.292556 H 1.3559895 V 2.0863061 H 0.29765608 Z m 1.32291682,0 H 2.6789063 V 2.0863061 H 1.6205729 Z M 0.29765608,2.2185977 H 1.3559895 V 3.1408934 H 0.29765608 Z m 1.32291682,0 H 2.6789063 V 3.1408934 H 1.6205729 Z M 0.29765608,3.2731851 H 1.3559895 V 4.0706818 H 0.29765608 Z m 1.32291682,0 H 2.6789063 V 4.0706818 H 1.6205729 Z" />
    <path
       style="opacity:0.95;fill:#9d3a9b;stroke-width:0.26458332"
       inkscape:connector-curvature="0"
       id="path180"
       d="M 2.7874267,1.3229166 C 2.1338143,1.3188345 1.5576722,1.7510467 1.3787272,2.3796997 1.1888707,3.0466138 1.4959529,3.7548494 2.1125325,4.0721028 2.7293879,4.3894012 3.4844521,4.2271846 3.9165567,3.6845295 L 3.0881836,3.0261718 A 0.396875,0.396875 0 0 1 2.5967407,3.1310749 0.396875,0.396875 0 0 1 2.3962361,2.6696045 0.396875,0.396875 0 0 1 2.8096477,2.3822835 0.396875,0.396875 0 0 1 2.9930989,2.4453287 l -0.2413288,0.241329 a 0.13030278,0.13030278 0 0 0 0.091984,0.2227255 H 4.1015583 A 0.13030278,0.13030278 0 0 0 4.2322998,2.778125 V 1.5203206 A 0.13030278,0.13030278 0 0 0 4.0974242,1.3895792 0.13030278,0.13030278 0 0 0 4.0095744,1.4288533 L 3.7455078,1.6929199 C 3.509029,1.4815874 3.2099842,1.3532957 2.8938802,1.3275675 c -0.035416,-0.00285 -0.070924,-0.0044 -0.1064535,-0.00465 z" />
    <path
       style="opacity:0.95;fill:url(#j);stroke-width:0.26458332"
       inkscape:connector-curvature="0"
       id="path182"
       d="M 2.7858765,1.5875 C 2.2510071,1.5839999 1.7794524,1.9376132 1.6329752,2.4520467 1.4775269,2.9977998 1.7288376,3.5774148 2.2334554,3.836975 2.7381631,4.0964627 3.355863,3.963666 3.7093342,3.5196817 L 3.295406,3.1899862 C 3.0990595,3.4364482 2.7561122,3.5101839 2.4758178,3.3662027 2.195596,3.222117 2.0559118,2.9003678 2.1419881,2.5972574 2.2281956,2.2939508 2.516513,2.0936641 2.830835,2.1187337 3.0585963,2.1371212 3.2541247,2.2707069 3.3584512,2.462382 L 3.175,2.6458333 h 0.79375 v -0.79375 L 3.7413737,2.0794596 C 3.542221,1.8051837 3.2297288,1.6195718 2.8726929,1.5911173 2.8438078,1.5888556 2.8148497,1.587649 2.7858765,1.5875 Z" />
    <path
       style="opacity:0.95;fill:url(#i);stroke-width:0.26458332"
       inkscape:connector-curvature="0"
       id="path184"
       d="M 2.7858765,1.5875 C 2.2510071,1.5839999 1.7794524,1.9376132 1.6329752,2.4520467 1.4775269,2.9977998 1.7288376,3.5774148 2.2334554,3.836975 2.7381631,4.0964627 3.355863,3.963666 3.7093342,3.5196817 L 3.295406,3.1899862 C 3.0990595,3.4364482 2.7561122,3.5101839 2.4758178,3.3662027 2.195596,3.222117 2.0559118,2.9003678 2.1419881,2.5972574 2.2281956,2.2939508 2.516513,2.0936641 2.830835,2.1187337 3.0585963,2.1371212 3.2541247,2.2707069 3.3584512,2.462382 L 3.175,2.6458333 h 0.79375 v -0.79375 L 3.7413737,2.0794596 C 3.542221,1.8051837 3.2297288,1.6195718 2.8726929,1.5911173 2.8438078,1.5888556 2.8148497,1.587649 2.7858765,1.5875 Z" />
    <path
       style="opacity:0.42000002;fill:url(#h);stroke-width:0.26458332"
       inkscape:connector-curvature="0"
       id="path186"
       d="M 2.7858765,1.5875 C 2.2510071,1.5839999 1.7794524,1.9376132 1.6329752,2.4520467 1.4775269,2.9977998 1.7288376,3.5774148 2.2334554,3.836975 2.7381631,4.0964627 3.355863,3.963666 3.7093342,3.5196817 L 3.295406,3.1899862 C 3.0990595,3.4364482 2.7561122,3.5101839 2.4758178,3.3662027 2.195596,3.222117 2.0559118,2.9003678 2.1419881,2.5972574 2.2281956,2.2939508 2.516513,2.0936641 2.830835,2.1187337 3.0585963,2.1371212 3.2541247,2.2707069 3.3584512,2.462382 L 3.175,2.6458333 h 0.79375 v -0.79375 L 3.7413737,2.0794596 C 3.542221,1.8051837 3.2297288,1.6195718 2.8726929,1.5911173 2.8438078,1.5888556 2.8148497,1.587649 2.7858765,1.5875 Z" />
    <path
       style="opacity:0.79799996;fill:url(#g);stroke-width:0.26458332"
       inkscape:connector-curvature="0"
       id="path188"
       d="M 2.7858765,1.5875 C 2.2510071,1.5839999 1.7794524,1.9376132 1.6329752,2.4520467 1.4775269,2.9977998 1.7288376,3.5774148 2.2334554,3.836975 2.7381631,4.0964627 3.355863,3.963666 3.7093342,3.5196817 L 3.295406,3.1899862 C 3.0990595,3.4364482 2.7561122,3.5101839 2.4758178,3.3662027 2.195596,3.222117 2.0559118,2.9003678 2.1419881,2.5972574 2.2281956,2.2939508 2.516513,2.0936641 2.830835,2.1187337 3.0585963,2.1371212 3.2541247,2.2707069 3.3584512,2.462382 L 3.175,2.6458333 h 0.79375 v -0.79375 L 3.7413737,2.0794596 C 3.542221,1.8051837 3.2297288,1.6195718 2.8726929,1.5911173 2.8438078,1.5888556 2.8148497,1.587649 2.7858765,1.5875 Z" />
    <path
       style="opacity:0.95;fill:url(#f);stroke-width:0.26458332"
       inkscape:connector-curvature="0"
       id="path190"
       d="M 2.7858765,1.5875 C 2.2510071,1.5839999 1.7794524,1.9376132 1.6329752,2.4520467 1.4775269,2.9977998 1.7288376,3.5774148 2.2334554,3.836975 2.7381631,4.0964627 3.355863,3.963666 3.7093342,3.5196817 L 3.295406,3.1899862 C 3.0990595,3.4364482 2.7561122,3.5101839 2.4758178,3.3662027 2.195596,3.222117 2.0559118,2.9003678 2.1419881,2.5972574 2.2281956,2.2939508 2.516513,2.0936641 2.830835,2.1187337 3.0585963,2.1371212 3.2541247,2.2707069 3.3584512,2.462382 L 3.175,2.6458333 h 0.79375 v -0.79375 L 3.7413737,2.0794596 C 3.542221,1.8051837 3.2297288,1.6195718 2.8726929,1.5911173 2.8438078,1.5888556 2.8148497,1.587649 2.7858765,1.5875 Z" />
    <path
       style="opacity:0.95;fill:#f0e3ec;fill-opacity:1;stroke-width:0.26458332"
       inkscape:connector-curvature="0"
       id="path192"
       d="M 2.7858765,1.5875 C 2.2510071,1.5839999 1.7794524,1.9376132 1.6329752,2.4520467 1.4775269,2.9977998 1.7288376,3.5774148 2.2334554,3.836975 2.7381631,4.0964627 3.355863,3.963666 3.7093342,3.5196817 L 3.295406,3.1899862 C 3.0990595,3.4364482 2.7561122,3.5101839 2.4758178,3.3662027 2.195596,3.222117 2.0559118,2.9003678 2.1419881,2.5972574 2.2281956,2.2939508 2.516513,2.0936641 2.830835,2.1187337 3.0585963,2.1371212 3.2541247,2.2707069 3.3584512,2.462382 L 3.175,2.6458333 h 0.79375 v -0.79375 L 3.7413737,2.0794596 C 3.542221,1.8051837 3.2297288,1.6195718 2.8726929,1.5911173 2.8438078,1.5888556 2.8148497,1.587649 2.7858765,1.5875 Z" />
  </g>
</svg>
