<?xml version="1.0" encoding="UTF-8" standalone="no"?>
<svg
   xmlns:dc="http://purl.org/dc/elements/1.1/"
   xmlns:cc="http://creativecommons.org/ns#"
   xmlns:rdf="http://www.w3.org/1999/02/22-rdf-syntax-ns#"
   xmlns:svg="http://www.w3.org/2000/svg"
   xmlns="http://www.w3.org/2000/svg"
   xmlns:sodipodi="http://sodipodi.sourceforge.net/DTD/sodipodi-0.dtd"
   xmlns:inkscape="http://www.inkscape.org/namespaces/inkscape"
   height="16"
   viewBox="0 0 4.2333333 4.2333335"
   width="16"
   version="1.1"
   id="svg77"
   sodipodi:docname="sc_dbaddrelation.svg"
   inkscape:version="0.92.3 (2405546, 2018-03-11)">
  <metadata
     id="metadata83">
    <rdf:RDF>
      <cc:Work
         rdf:about="">
        <dc:format>image/svg+xml</dc:format>
        <dc:type
           rdf:resource="http://purl.org/dc/dcmitype/StillImage" />
        <dc:title></dc:title>
      </cc:Work>
    </rdf:RDF>
  </metadata>
  <defs
     id="defs81" />
  <sodipodi:namedview
     pagecolor="#ffffff"
     bordercolor="#666666"
     borderopacity="1"
     objecttolerance="10"
     gridtolerance="10"
     guidetolerance="10"
     inkscape:pageopacity="0"
     inkscape:pageshadow="2"
     inkscape:window-width="1366"
     inkscape:window-height="705"
     id="namedview79"
     showgrid="true"
     inkscape:zoom="29.5"
     inkscape:cx="10.092151"
     inkscape:cy="8.4927897"
     inkscape:window-x="-8"
     inkscape:window-y="-8"
     inkscape:window-maximized="1"
     inkscape:current-layer="svg77">
    <inkscape:grid
       type="xygrid"
       id="grid4593" />
  </sodipodi:namedview>
  <linearGradient
     id="a"
     gradientTransform="matrix(.06470556 0 0 .11021838 95.499827 172.30263)"
     gradientUnits="userSpaceOnUse"
     x1="399.77466"
     x2="399.77466"
     y1="731.09662"
     y2="480.60214">
    <stop
       offset="0"
       stop-color="#cbcbcd"
       id="stop2" />
    <stop
       offset=".5"
       stop-color="#e0e0e2"
       id="stop4" />
    <stop
       offset="1"
       stop-color="#f2f2f2"
       id="stop6" />
  </linearGradient>
  <linearGradient
     id="b"
     gradientTransform="matrix(.06470556 0 0 .11021838 159.13243 395.2449)"
     gradientUnits="userSpaceOnUse"
     x1="-333.0289"
     x2="-333.0289"
     y1="-1473.6504"
     y2="-776.61371">
    <stop
       offset="0"
       stop-color="#fff"
       id="stop9" />
    <stop
       offset=".49140647"
       stop-color="#fff"
       id="stop11" />
    <stop
       offset="1"
       stop-color="#dcdcdc"
       id="stop13" />
  </linearGradient>
  <filter
     id="c"
     color-interpolation-filters="sRGB"
     height="1.229111"
     width="1.16223"
     x="-.081115"
     y="-.114556">
    <feGaussianBlur
       stdDeviation="1.0146845"
       id="feGaussianBlur16" />
  </filter>
  <linearGradient
     id="d"
     gradientUnits="userSpaceOnUse"
     x1="28"
     x2="28"
     y1="57.5"
     y2="0">
    <stop
       offset="0"
       stop-color="#ffea00"
       id="stop19" />
    <stop
       offset="1"
       stop-color="#fc0"
       id="stop21" />
  </linearGradient>
  <linearGradient
     id="e"
     gradientUnits="userSpaceOnUse"
     x1="32.009361"
     x2="32.009361"
     y1="34.594795"
     y2="9.844794">
    <stop
       offset="0"
       stop-color="#fff8a8"
       id="stop24" />
    <stop
       offset="1"
       stop-color="#fff"
       stop-opacity="0"
       id="stop26" />
  </linearGradient>
  <g
     transform="matrix(0.171875,0,0,0.171875,0.264624,-47.078127)"
     id="g75">
    <path
       d="m 4.6178982,280.06668 v -3.07879 -1.53892 h 1.5394411 l 6.1575757,-4.7e-4 v 1.53892 l -6.1575757,4.7e-4 v 3.07879 z"
       id="path29"
       inkscape:connector-curvature="0"
       style="fill:#9d3a9b" />
    <path
       d="m 4.6178983,287.76365 4.44e-5,4.61836 v 1.53893 h 1.539441 l 15.3937083,1.2e-4 v -1.53893 l -15.3937083,-1.2e-4 -4.44e-5,-4.61836 z"
       id="path31"
       inkscape:connector-curvature="0"
       style="fill:#9d3a9b" />
    <g
       transform="matrix(0.24052605,0,0,0.24052605,9.237006,272.3691)"
       id="g49">
      <g
         transform="matrix(0.857143,0,0,0.857143,7.999999,7.999999)"
         id="g45">
        <g
           id="g41"
           style="fill:none;stroke:#bf5e00;stroke-linejoin:round">
          <path
             d="M 3.751,42 14.562,31.601 0,28 14.562,24.399 3.751,14 18.163,18.163 14,3.751 24.399,14.562 28,0 31.601,14.562 42,3.751 37.837,18.163 52.249,14 41.438,24.399 56,28 41.438,31.601 52.249,42 37.837,37.837 42,52.249 31.601,41.438 28,56 24.399,41.438 14,52.249 18.163,37.837 Z"
             id="path39"
             inkscape:connector-curvature="0"
             style="opacity:1;fill:#9d3a9b;stroke:#9d3a9b;stroke-width:1.86669934;stroke-miterlimit:4;stroke-dasharray:none;stroke-opacity:1" />
        </g>
        <path
           d="M 3.751,42 14.562,31.601 0,28 14.562,24.399 3.751,14 18.163,18.163 14,3.751 24.399,14.562 28,0 31.601,14.562 42,3.751 37.837,18.163 52.249,14 41.438,24.399 56,28 41.438,31.601 52.249,42 37.837,37.837 42,52.249 31.601,41.438 28,56 24.399,41.438 14,52.249 18.163,37.837 Z"
           id="path43"
           inkscape:connector-curvature="0"
           style="fill:#f3b7d9" />
      </g>
    </g>
    <g
       transform="matrix(0.38484969,0,0,0.38484969,-38.342368,199.68083)"
       id="g61">
      <path
         d="m 124.97348,244.87477 h 27.25635 c 0.76597,0 1.38264,0.72808 1.38261,1.63246 l -5.6e-4,17.99325 c -3e-5,0.90439 -0.61664,1.63247 -1.38261,1.63247 h -27.25635 c -0.76596,0 -1.38264,-0.72808 -1.38261,-1.63247 l 5.6e-4,-17.99325 c 3e-5,-0.90438 0.61665,-1.63246 1.38261,-1.63246 z"
         style="opacity:1;fill:none;stroke:#9d3a9b;stroke-width:1.15307593;stroke-linecap:round;stroke-linejoin:round;stroke-miterlimit:4;stroke-dasharray:none;stroke-dashoffset:4;stroke-opacity:1"
         transform="matrix(0.79911685,0,0,0.9411767,32.87024,2.398693)"
         id="path51"
         inkscape:connector-curvature="0" />
      <path
         d="m 132.73422,232.87011 h 21.78989 c 0.61218,0 1.10504,0.68523 1.10502,1.53639 l -4.6e-4,16.93292 h -23.99992 l 4.5e-4,-16.93292 c 2e-5,-0.85116 0.49283,-1.53639 1.10502,-1.53639 z"
         id="path53"
         inkscape:connector-curvature="0"
         style="fill:#f3b7d9;fill-opacity:1" />
      <path
         d="m 137.53243,250.21906 v -1.80834 z"
         id="path55"
         inkscape:connector-curvature="0"
         style="fill:#ffffff;fill-opacity:0.756881" />
      <path
         d="m 132.72798,232.87011 c -0.61218,0 -1.09876,0.67825 -1.09878,1.52941 l -4.5e-4,16.94688 c -2e-5,0.85117 0.4866,1.52942 1.09878,1.52942 h 21.80236 c 0.61219,0 1.09876,-0.67825 1.09878,-1.52942 l 4.6e-4,-16.94688 c 2e-5,-0.85116 -0.48659,-1.52941 -1.09878,-1.52941 z m 0.74917,2.29411 h 20.30403 c 0.58157,0 1.04886,0.64256 1.04884,1.44118 l -4.6e-4,13.88806 c -2e-5,0.79863 -0.46727,1.44118 -1.04884,1.44118 H 133.4767 c -0.58157,0 -1.04887,-0.64255 -1.04884,-1.44118 l 4.5e-4,-13.88806 c 3e-5,-0.79862 0.46727,-1.44118 1.04884,-1.44118 z"
         id="path57"
         inkscape:connector-curvature="0"
         style="fill:#f0e3ec;fill-opacity:1" />
      <path
         d="m 131.6292,244.87584 h 23.99993 l -4.6e-4,7.99998 h -23.99992 z"
         id="path59"
         inkscape:connector-curvature="0"
         style="fill:#f0e3ec;fill-opacity:1" />
    </g>
    <g
       transform="matrix(0.38484969,0,0,0.38484969,-50.65752,190.44447)"
       id="g73">
      <path
         d="m 124.97348,244.87477 h 27.25635 c 0.76597,0 1.38264,0.72808 1.38261,1.63246 l -5.6e-4,17.99325 c -3e-5,0.90439 -0.61664,1.63247 -1.38261,1.63247 h -27.25635 c -0.76596,0 -1.38264,-0.72808 -1.38261,-1.63247 l 5.6e-4,-17.99325 c 3e-5,-0.90438 0.61665,-1.63246 1.38261,-1.63246 z"
         style="opacity:0.6;fill:none;fill-opacity:1;stroke:#9d3a9b;stroke-width:1.15307593;stroke-linecap:round;stroke-linejoin:round;stroke-miterlimit:4;stroke-dasharray:none;stroke-dashoffset:4;stroke-opacity:1"
         transform="matrix(0.79911685,0,0,0.9411767,32.87024,2.398693)"
         id="path63"
         inkscape:connector-curvature="0" />
      <path
         d="m 132.73422,232.87011 h 21.78989 c 0.61218,0 1.10504,0.68523 1.10502,1.53639 l -4.6e-4,16.93292 h -23.99992 l 4.5e-4,-16.93292 c 2e-5,-0.85116 0.49283,-1.53639 1.10502,-1.53639 z"
         id="path65"
         inkscape:connector-curvature="0"
         style="fill:#f3b7d9" />
      <path
         d="m 137.53243,250.21906 v -1.80834 z"
         id="path67"
         inkscape:connector-curvature="0"
         style="fill:#ffffff;fill-opacity:0.756881" />
      <path
         d="m 132.72798,232.87011 c -0.61218,0 -1.09876,0.67825 -1.09878,1.52941 l -4.5e-4,16.94688 c -2e-5,0.85117 0.4866,1.52942 1.09878,1.52942 h 21.80236 c 0.61219,0 1.09876,-0.67825 1.09878,-1.52942 l 4.6e-4,-16.94688 c 2e-5,-0.85116 -0.48659,-1.52941 -1.09878,-1.52941 z m 0.74917,2.29411 h 20.30403 c 0.58157,0 1.04886,0.64256 1.04884,1.44118 l -4.6e-4,13.88806 c -2e-5,0.79863 -0.46727,1.44118 -1.04884,1.44118 H 133.4767 c -0.58157,0 -1.04887,-0.64255 -1.04884,-1.44118 l 4.5e-4,-13.88806 c 3e-5,-0.79862 0.46727,-1.44118 1.04884,-1.44118 z"
         id="path69"
         inkscape:connector-curvature="0"
         style="fill:#f0e3ec" />
      <path
         d="m 131.6292,244.87584 h 23.99993 l -4.6e-4,7.99998 h -23.99992 z"
         id="path71"
         inkscape:connector-curvature="0"
         style="fill:#f0e3ec" />
    </g>
  </g>
</svg>
