<?xml version="1.0" encoding="UTF-8" standalone="no"?>
<svg
   xmlns:dc="http://purl.org/dc/elements/1.1/"
   xmlns:cc="http://creativecommons.org/ns#"
   xmlns:rdf="http://www.w3.org/1999/02/22-rdf-syntax-ns#"
   xmlns:svg="http://www.w3.org/2000/svg"
   xmlns="http://www.w3.org/2000/svg"
   xmlns:sodipodi="http://sodipodi.sourceforge.net/DTD/sodipodi-0.dtd"
   xmlns:inkscape="http://www.inkscape.org/namespaces/inkscape"
   height="16"
   viewBox="0 0 16 16"
   width="16"
   version="1.1"
   id="svg112"
   sodipodi:docname="sc_dbqueryopen.svg"
   inkscape:version="0.92.3 (2405546, 2018-03-11)"
   inkscape:export-filename="D:\RZKDNSWR\PORTFOLIO\PROJECT LIBRELADIES\ICON SC PNG\sc_dbqueryopen.png"
   inkscape:export-xdpi="96"
   inkscape:export-ydpi="96">
  <metadata
     id="metadata118">
    <rdf:RDF>
      <cc:Work
         rdf:about="">
        <dc:format>image/svg+xml</dc:format>
        <dc:type
           rdf:resource="http://purl.org/dc/dcmitype/StillImage" />
        <dc:title></dc:title>
      </cc:Work>
    </rdf:RDF>
  </metadata>
  <defs
     id="defs116" />
  <sodipodi:namedview
     pagecolor="#ffffff"
     bordercolor="#666666"
     borderopacity="1"
     objecttolerance="10"
     gridtolerance="10"
     guidetolerance="10"
     inkscape:pageopacity="0"
     inkscape:pageshadow="2"
     inkscape:window-width="1366"
     inkscape:window-height="705"
     id="namedview114"
     showgrid="true"
     inkscape:zoom="20.85965"
     inkscape:cx="3.6838343"
     inkscape:cy="10.094668"
     inkscape:window-x="-8"
     inkscape:window-y="-8"
     inkscape:window-maximized="1"
     inkscape:current-layer="svg112">
    <inkscape:grid
       type="xygrid"
       id="grid925" />
  </sodipodi:namedview>
  <clipPath
     id="a">
    <rect
       height="40.457153"
       rx="4"
       width="80.914307"
       x="30.971436"
       y="939.09216"
       id="rect2" />
  </clipPath>
  <linearGradient
     id="b"
     gradientTransform="matrix(.1133598 0 0 .1691546 .642795 -76.95463)"
     gradientUnits="userSpaceOnUse"
     x1="399.77466"
     x2="399.77466"
     y1="681.00012"
     y2="549.33234">
    <stop
       offset="0"
       stop-color="#cbcbcd"
       id="stop5" />
    <stop
       offset=".5"
       stop-color="#e0e0e2"
       id="stop7" />
    <stop
       offset="1"
       stop-color="#fff"
       id="stop9" />
  </linearGradient>
  <filter
     id="c">
    <feGaussianBlur
       stdDeviation="2.4"
       id="feGaussianBlur12" />
  </filter>
  <linearGradient
     id="d"
     gradientUnits="userSpaceOnUse"
     x1="8"
     x2="8"
     y1="5"
     y2="15">
    <stop
       offset="0"
       stop-color="#5678c8"
       id="stop15" />
    <stop
       offset=".94117647"
       stop-color="#3f59ae"
       id="stop17" />
    <stop
       offset="1"
       stop-color="#3d7cdb"
       id="stop19" />
  </linearGradient>
  <linearGradient
     id="e"
     gradientUnits="userSpaceOnUse"
     x1="5.5"
     x2="5.5"
     y1="12"
     y2="13">
    <stop
       offset="0"
       stop-color="#174072"
       id="stop22" />
    <stop
       offset="1"
       stop-color="#174072"
       stop-opacity="0"
       id="stop24" />
  </linearGradient>
  <linearGradient
     id="f"
     gradientUnits="userSpaceOnUse"
     x1="9"
     x2="9"
     y1="-1"
     y2="10">
    <stop
       offset="0"
       stop-color="#102134"
       id="stop27" />
    <stop
       offset="1"
       stop-color="#102134"
       stop-opacity="0"
       id="stop29" />
  </linearGradient>
  <filter
     id="g"
     color-interpolation-filters="sRGB"
     height="1.267833"
     width="1.129187"
     x="-.064594"
     y="-.133917">
    <feGaussianBlur
       stdDeviation="3.1247207"
       id="feGaussianBlur32" />
  </filter>
  <linearGradient
     id="h"
     gradientUnits="userSpaceOnUse"
     x1=".37741"
     x2=".37741"
     y1="5.214652"
     y2="3.309088">
    <stop
       offset="0"
       stop-color="#34608f"
       id="stop35" />
    <stop
       offset="1"
       stop-color="#34608f"
       stop-opacity="0"
       id="stop37" />
  </linearGradient>
  <linearGradient
     id="i"
     gradientTransform="matrix(.21345221 0 0 .1138394 -11.411169 -103.22724)"
     gradientUnits="userSpaceOnUse"
     x1="124.01234"
     x2="124.01234"
     y1="966.51019"
     y2="935.34326">
    <stop
       offset="0"
       id="stop40" />
    <stop
       offset="1"
       stop-color="#34608f"
       stop-opacity="0"
       id="stop42" />
  </linearGradient>
  <linearGradient
     id="j"
     gradientUnits="userSpaceOnUse"
     x1="55"
     x2="55"
     y1="1036.4132"
     y2="1032.4822">
    <stop
       offset="0"
       stop-color="#003d7b"
       id="stop45" />
    <stop
       offset="1"
       stop-color="#003d7b"
       stop-opacity="0"
       id="stop47" />
  </linearGradient>
  <filter
     id="k"
     color-interpolation-filters="sRGB"
     height="1.697208"
     width="1.027888"
     x="-.013944"
     y="-.348604">
    <feGaussianBlur
       stdDeviation=".70882694"
       id="feGaussianBlur50" />
  </filter>
  <filter
     id="l"
     color-interpolation-filters="sRGB"
     height="1.869989"
     width="1.027669"
     x="-.013834"
     y="-.434994">
    <feGaussianBlur
       stdDeviation=".70324038"
       id="feGaussianBlur53" />
  </filter>
  <g
     transform="matrix(0.125,0,0,0.125,0,-1)"
     id="g82">
    <path
       d="M 7.999997,16 H 120 v 96 H 7.999997 Z"
       id="path58"
       inkscape:connector-curvature="0"
       style="fill:#f3b7d9" />
    <path
       d="m 78.20266,37.61897 v -2.7448 z"
       id="path60"
       inkscape:connector-curvature="0"
       style="fill:#ffffff;fill-opacity:0.756881" />
    <path
       d="m 8,40 h 112 v 72 H 8 Z"
       id="path62"
       inkscape:connector-curvature="0"
       style="fill:#f0e3ec" />
    <g
       id="g80"
       style="fill:#cacacc">
      <path
         d="M 15.999997,64 H 56 v 8 H 15.999997 Z"
         id="path64"
         inkscape:connector-curvature="0"
         style="fill:#f3b7d9" />
      <path
         d="M 15.999997,48 H 56 v 8 H 15.999997 Z"
         id="path66"
         inkscape:connector-curvature="0"
         style="fill:#f3b7d9" />
      <path
         d="m 72,48 h 40 v 8 H 72 Z"
         id="path68"
         inkscape:connector-curvature="0"
         style="fill:#f3b7d9" />
      <path
         d="m 72,64 h 40 v 8 H 72 Z"
         id="path70"
         inkscape:connector-curvature="0" />
      <path
         d="M 15.999997,80 H 56 v 8 H 15.999997 Z"
         id="path72"
         inkscape:connector-curvature="0"
         style="fill:#f3b7d9" />
      <path
         d="m 72,80 h 40 v 8 H 72 Z"
         id="path74"
         inkscape:connector-curvature="0" />
      <path
         d="M 15.999997,96 H 56 v 8 H 15.999997 Z"
         id="path76"
         inkscape:connector-curvature="0"
         style="fill:#f3b7d9" />
      <path
         d="m 72,96 h 40 v 8 H 72 Z"
         id="path78"
         inkscape:connector-curvature="0" />
    </g>
  </g>
  <path
     d="m4.5 5c-.5 0-.5.3826937-.5.5v1.5l-.0000001 2.9999993c0 .5539997.446.9999997 1 .9999997l10.0000001.000001c.554 0 1-.446 1-1v-2.9999993c0-.554-.446-.9999999-1-1l-5.0957031-.0000007c-.084201-.4859507-.178001-1-.4042969-1z"
     fill="#3b6ca9"
     id="path88"
     style="fill:#f3b7d9" />
  <path
     d="m4.9999999 5.9999993h3v.9999999h-3z"
     fill="#fcf9e9"
     id="path90"
     style="fill:#f0e3ec" />
  <path
     d="m4.4999999 4.9999993c-.5 0-.5.3826937-.5.5v1.5 3c0 .5539997.446.9999997 1 .9999997v-3.9999997-1h3.8828125c.013345.068527.023996.094239.037109.1699219.082673.4792195.4980774.8295107.9843754.8300781h1.0957032l4 .0000007v4c.554 0 1-.446 1-1v-3c0-.554-.446-.9999999-1-1l-5.0957032-.0000007c-.084201-.4859507-.178001-1-.4042969-1z"
     fill="url(#f)"
     opacity=".25"
     id="path92"
     style="fill:#9d3a9b;opacity:1" />
  <path
     d="m7 6h1v.9999999h-1z"
     fill="#fbc66d"
     id="path94"
     style="fill:#e602b4" />
  <path
     d="m4.9999999 9.9999993h2.5l1-1 6.5000001.0000007c.554.0000001 1 .446 1 1v4c0 .554-.446 1-1 1l-10.0000001-.000001c-.554 0-1-.446-1-1v-3c0-.554.5673986-1.3460808 1-.9999997z"
     fill="url(#d)"
     id="path98"
     style="fill:#e602b4;fill-opacity:1" />
  <path
     d="m8.4999999 8.9999993-1 1h-2.5c-.554 0-1 .4459997-1 .9999997v1c0-.554.5673987-1.346081 1-1h2.5l1-.9999997 6.5000001.0000007c.554 0 1 .446 1 1v-1c0-.554-.446-1-1-1z"
     fill="#a4c0e8"
     id="path100"
     style="fill:#9d3a9b" />
  <path
     d="m3.9999999 11.999999 12.0000001.000001v1l-12.0000001-.000001z"
     fill="#385da4"
     id="path102" />
  <path
     d="m3.9999999 11.999999h7.0000001l5 .000001v1l-12.0000001-.000001z"
     fill="url(#e)"
     id="path104"
     style="fill:#9d3a9b;fill-opacity:1" />
  <path
     d="m3.9999999 12.999999 12.0000001.000001v.5l-12.0000001-.000001z"
     fill="#a4c0e8"
     id="path106"
     style="fill:#f3b7d9" />
</svg>
