<?xml version="1.0" encoding="UTF-8" standalone="no"?>
<svg
   xmlns:dc="http://purl.org/dc/elements/1.1/"
   xmlns:cc="http://creativecommons.org/ns#"
   xmlns:rdf="http://www.w3.org/1999/02/22-rdf-syntax-ns#"
   xmlns:svg="http://www.w3.org/2000/svg"
   xmlns="http://www.w3.org/2000/svg"
   xmlns:sodipodi="http://sodipodi.sourceforge.net/DTD/sodipodi-0.dtd"
   xmlns:inkscape="http://www.inkscape.org/namespaces/inkscape"
   height="16"
   viewBox="0 0 16 16"
   width="16"
   id="svg2"
   version="1.1"
   inkscape:version="0.91 r13725"
   sodipodi:docname="sc_fontworkshapetype.fontwork-inflate.svg"
   inkscape:export-filename="/home/tamara/Desktop/IKON/5_258 (tamara)/sc (222)/Tanggal 10/sc_fontworkshapetype.fontwork-inflate.png"
   inkscape:export-xdpi="90"
   inkscape:export-ydpi="90">
  <metadata
     id="metadata32">
    <rdf:RDF>
      <cc:Work
         rdf:about="">
        <dc:format>image/svg+xml</dc:format>
        <dc:type
           rdf:resource="http://purl.org/dc/dcmitype/StillImage" />
        <dc:title />
      </cc:Work>
    </rdf:RDF>
  </metadata>
  <defs
     id="defs30" />
  <sodipodi:namedview
     pagecolor="#ffffff"
     bordercolor="#666666"
     borderopacity="1"
     objecttolerance="10"
     gridtolerance="10"
     guidetolerance="10"
     inkscape:pageopacity="0"
     inkscape:pageshadow="2"
     inkscape:window-width="1366"
     inkscape:window-height="718"
     id="namedview28"
     showgrid="true"
     inkscape:zoom="20.85965"
     inkscape:cx="0.87043807"
     inkscape:cy="6.6012889"
     inkscape:window-x="0"
     inkscape:window-y="0"
     inkscape:window-maximized="1"
     inkscape:current-layer="svg2">
    <inkscape:grid
       type="xygrid"
       id="grid4170" />
  </sodipodi:namedview>
  <linearGradient
     id="a"
     gradientUnits="userSpaceOnUse"
     x1="64"
     x2="64.476852"
     y1="128"
     y2="-.504842"
     gradientTransform="scale(0.125,0.125)">
    <stop
       offset="0"
       stop-color="#fff"
       id="stop5" />
    <stop
       offset=".46428573"
       stop-color="#fff"
       id="stop7" />
    <stop
       offset=".78125"
       stop-color="#f1f1f1"
       id="stop9" />
    <stop
       offset=".90625"
       stop-color="#eaeaea"
       id="stop11" />
    <stop
       offset="1"
       stop-color="#dfdfdf"
       id="stop13" />
  </linearGradient>
  <linearGradient
     id="b"
     gradientUnits="userSpaceOnUse"
     x1=".076172"
     x2="127.92383"
     y1="64"
     y2="64"
     gradientTransform="scale(0.125,0.125)">
    <stop
       offset="0"
       stop-color="#7c9fcf"
       id="stop16" />
    <stop
       offset=".5"
       stop-color="#7c9ece"
       id="stop18" />
    <stop
       offset="1"
       stop-color="#7b9dcf"
       id="stop20" />
  </linearGradient>
  <g
     id="g4178"
     transform="matrix(0.98574633,0,0,0.98889269,0.11402908,0.08882443)">
    <path
       d="M 6.8354492,1.5517577 A 0.99049131,0.99049131 0 0 0 6.3703614,1.6679687 L 0.53491211,4.772461 A 0.99049131,0.99049131 0 0 0 0.00952148,5.6467285 l 0,4.7065435 a 0.99049131,0.99049131 0 0 0 0.52539063,0.874267 l 5.83544929,3.104492 a 0.99049131,0.99049131 0 0 0 0.4650878,0.116211 l 2.3291016,0 a 0.99049131,0.99049131 0 0 0 0.4650878,-0.116211 l 5.8354484,-3.104492 a 0.99049131,0.99049131 0 0 0 0.525392,-0.874267 l 0,-4.7065435 A 0.99049131,0.99049131 0 0 0 15.465087,4.772461 L 9.6296386,1.6679687 A 0.99049131,0.99049131 0 0 0 9.1645508,1.5517577 Z"
       id="path24"
       style="fill:#f3b7d9;fill-opacity:1;stroke:#e820bb;stroke-width:0.25;stroke-linecap:round;stroke-linejoin:round;stroke-miterlimit:4;stroke-dasharray:none;stroke-opacity:1"
       inkscape:connector-curvature="0" />
    <path
       inkscape:connector-curvature="0"
       style="fill:#f0e3ec;fill-opacity:1;stroke:#a0409e;stroke-width:0.24048468;stroke-linecap:round;stroke-linejoin:round;stroke-miterlimit:4;stroke-dasharray:none;stroke-opacity:1"
       id="path4174"
       d="m 6.8798409,2.7499201 -5.6134116,2.986451 0,4.5272589 5.6134116,2.98645 2.2403178,0 5.6134123,-2.98645 0,-4.5272589 -5.6134123,-2.986451 z" />
  </g>
</svg>
