<?xml version="1.0" encoding="UTF-8" standalone="no"?>
<svg
   xmlns:dc="http://purl.org/dc/elements/1.1/"
   xmlns:cc="http://creativecommons.org/ns#"
   xmlns:rdf="http://www.w3.org/1999/02/22-rdf-syntax-ns#"
   xmlns:svg="http://www.w3.org/2000/svg"
   xmlns="http://www.w3.org/2000/svg"
   xmlns:sodipodi="http://sodipodi.sourceforge.net/DTD/sodipodi-0.dtd"
   xmlns:inkscape="http://www.inkscape.org/namespaces/inkscape"
   height="16"
   viewBox="0 0 16 16"
   width="16"
   id="svg2"
   version="1.1"
   inkscape:version="0.91 r13725"
   sodipodi:docname="sc_fontworkshapetype.fontwork-stop.svg"
   inkscape:export-filename="/home/tamara/Desktop/IKON/5_258 (tamara)/sc (222)/Tanggal 10/sc_fontworkshapetype.fontwork-stop.png"
   inkscape:export-xdpi="90"
   inkscape:export-ydpi="90">
  <metadata
     id="metadata32">
    <rdf:RDF>
      <cc:Work
         rdf:about="">
        <dc:format>image/svg+xml</dc:format>
        <dc:type
           rdf:resource="http://purl.org/dc/dcmitype/StillImage" />
        <dc:title />
      </cc:Work>
    </rdf:RDF>
  </metadata>
  <defs
     id="defs30" />
  <sodipodi:namedview
     pagecolor="#ffffff"
     bordercolor="#666666"
     borderopacity="1"
     objecttolerance="10"
     gridtolerance="10"
     guidetolerance="10"
     inkscape:pageopacity="0"
     inkscape:pageshadow="2"
     inkscape:window-width="1366"
     inkscape:window-height="718"
     id="namedview28"
     showgrid="true"
     inkscape:zoom="41.7193"
     inkscape:cx="4.4093399"
     inkscape:cy="5.0384181"
     inkscape:window-x="0"
     inkscape:window-y="0"
     inkscape:window-maximized="1"
     inkscape:current-layer="svg2">
    <inkscape:grid
       type="xygrid"
       id="grid4170" />
  </sodipodi:namedview>
  <linearGradient
     id="a"
     gradientUnits="userSpaceOnUse"
     x1="56"
     x2="56"
     y1="128"
     y2="0"
     gradientTransform="scale(0.125,0.125)">
    <stop
       offset="0"
       stop-color="#fff"
       id="stop5" />
    <stop
       offset=".46428573"
       stop-color="#fff"
       id="stop7" />
    <stop
       offset=".78125"
       stop-color="#f1f1f1"
       id="stop9" />
    <stop
       offset=".90625"
       stop-color="#eaeaea"
       id="stop11" />
    <stop
       offset="1"
       stop-color="#dfdfdf"
       id="stop13" />
  </linearGradient>
  <linearGradient
     id="b"
     gradientUnits="userSpaceOnUse"
     x1="56"
     x2="56"
     y1="128"
     y2="0"
     gradientTransform="scale(0.125,0.125)">
    <stop
       offset="0"
       stop-color="#7c9fcf"
       id="stop16" />
    <stop
       offset=".5"
       stop-color="#7c9ece"
       id="stop18" />
    <stop
       offset="1"
       stop-color="#7b9dcf"
       id="stop20" />
  </linearGradient>
  <g
     id="g4174"
     transform="matrix(0.98366857,0,0,0.95102885,0.13065166,0.55929503)">
    <path
       d="m 4,1.9921875 a 1.0079889,1.0079889 0 0 0 -0.7126465,0.295166 l -2.99999999,3 A 1.0079889,1.0079889 0 0 0 -0.0078125,6 l 0,4 a 1.0079889,1.0079889 0 0 0 0.29516601,0.712647 L 3.2873535,13.712646 A 1.0079889,1.0079889 0 0 0 4,14.007813 l 8,0 a 1.0079889,1.0079889 0 0 0 0.712646,-0.295167 l 3,-2.999999 A 1.0079889,1.0079889 0 0 0 16.007812,10 l 0,-4 A 1.0079889,1.0079889 0 0 0 15.712646,5.2873535 l -3,-3 A 1.0079889,1.0079889 0 0 0 12,1.9921875 Z"
       id="path24"
       style="fill:#f3b7d9;fill-opacity:1;stroke:#e820bb;stroke-width:0.25;stroke-miterlimit:4;stroke-dasharray:none;stroke-opacity:1"
       inkscape:connector-curvature="0" />
    <path
       d="M 4,3 1.0000003,6 1,10 l 3,3 8,0 3,-3 0,-4 -3,-3 z"
       id="path26"
       style="fill:#f0e3ec;fill-opacity:1;stroke:#a0409e;stroke-width:0.25;stroke-miterlimit:4;stroke-dasharray:none;stroke-opacity:1"
       inkscape:connector-curvature="0" />
  </g>
</svg>
