<?xml version="1.0" encoding="UTF-8" standalone="no"?>
<svg
   xmlns:dc="http://purl.org/dc/elements/1.1/"
   xmlns:cc="http://creativecommons.org/ns#"
   xmlns:rdf="http://www.w3.org/1999/02/22-rdf-syntax-ns#"
   xmlns:svg="http://www.w3.org/2000/svg"
   xmlns="http://www.w3.org/2000/svg"
   xmlns:xlink="http://www.w3.org/1999/xlink"
   xmlns:sodipodi="http://sodipodi.sourceforge.net/DTD/sodipodi-0.dtd"
   xmlns:inkscape="http://www.inkscape.org/namespaces/inkscape"
   height="16"
   viewBox="0 0 4.2333333 4.2333335"
   width="16"
   id="svg2"
   version="1.1"
   inkscape:version="0.91 r13725"
   sodipodi:docname="sc_formatarea.svg"
   inkscape:export-filename="/home/tamara/Desktop/IKON/5_258 (tamara)/sc (222)/Tanggal 12/sc_formatarea.png"
   inkscape:export-xdpi="106.875"
   inkscape:export-ydpi="106.875">
  <metadata
     id="metadata178">
    <rdf:RDF>
      <cc:Work
         rdf:about="">
        <dc:format>image/svg+xml</dc:format>
        <dc:type
           rdf:resource="http://purl.org/dc/dcmitype/StillImage" />
      </cc:Work>
    </rdf:RDF>
  </metadata>
  <defs
     id="defs176">
    <linearGradient
       id="o-3"
       gradientTransform="matrix(0.125,0,0,0.09642857,-9.78519,2.8921475)"
       gradientUnits="userSpaceOnUse"
       x1="154.28152"
       x2="154.28152"
       y1="104.82231"
       y2="115.19268">
      <stop
         offset="0"
         stop-color="#4c78fd"
         id="stop93" />
      <stop
         offset="1"
         stop-color="#85a2fe"
         id="stop95" />
    </linearGradient>
  </defs>
  <sodipodi:namedview
     pagecolor="#ffffff"
     bordercolor="#666666"
     borderopacity="1"
     objecttolerance="10"
     gridtolerance="10"
     guidetolerance="10"
     inkscape:pageopacity="0"
     inkscape:pageshadow="2"
     inkscape:window-width="1366"
     inkscape:window-height="718"
     id="namedview174"
     showgrid="true"
     inkscape:zoom="20.85965"
     inkscape:cx="6.3384594"
     inkscape:cy="9.8480721"
     inkscape:window-x="0"
     inkscape:window-y="0"
     inkscape:window-maximized="1"
     inkscape:current-layer="svg2">
    <inkscape:grid
       type="xygrid"
       id="grid4401" />
  </sodipodi:namedview>
  <radialGradient
     id="a"
     cx="29.962149"
     cy="131.46768"
     gradientTransform="matrix(-0.01821529,-4.1767336e-4,-9.4345129e-5,0.00411457,5.9553519,2.4541107)"
     gradientUnits="userSpaceOnUse"
     r="27.01967"
     xlink:href="#b" />
  <linearGradient
     id="b">
    <stop
       offset="0"
       stop-color="#fff"
       id="stop6" />
    <stop
       offset="1"
       stop-color="#fff"
       stop-opacity="0"
       id="stop8" />
  </linearGradient>
  <radialGradient
     id="c"
     cx="27.565985"
     cy="130.94269"
     gradientTransform="matrix(-0.02566459,0,0,0.00719473,6.1599496,2.0114657)"
     gradientUnits="userSpaceOnUse"
     r="27.01967"
     xlink:href="#d" />
  <linearGradient
     id="d">
    <stop
       offset="0"
       id="stop12" />
    <stop
       offset="1"
       stop-opacity="0"
       id="stop14" />
  </linearGradient>
  <linearGradient
     id="e"
     gradientUnits="userSpaceOnUse"
     x1="6.522222"
     x2="6.600205"
     xlink:href="#b"
     y1="292.512989"
     y2="295.555922"
     gradientTransform="matrix(-0.09700002,0,0,0.09700002,6.1853176,-25.701117)" />
  <linearGradient
     id="f"
     gradientUnits="userSpaceOnUse"
     x1="6.09146"
     x2="5.99793"
     xlink:href="#d"
     y1="290.848175"
     y2="299.046853"
     gradientTransform="matrix(-0.09700002,0,0,0.09700002,5.4390751,-25.701117)" />
  <linearGradient
     id="g"
     gradientUnits="userSpaceOnUse"
     x1="20.788102"
     x2="10.963702"
     xlink:href="#d"
     y1="268.967757"
     y2="278.9582"
     gradientTransform="matrix(-0.09700002,0,0,0.09700002,6.9526983,-25.701117)" />
  <radialGradient
     id="h"
     cx="-16.60284"
     cy="73.863823"
     gradientTransform="matrix(-0.02470922,0.00266642,-0.00270541,0.17911005,5.1663625,-11.300179)"
     gradientUnits="userSpaceOnUse"
     r="4.390625"
     xlink:href="#b" />
  <linearGradient
     id="i"
     gradientUnits="userSpaceOnUse"
     x1="26.106408"
     x2="19.665187"
     y1="294.20518"
     y2="287.146715"
     gradientTransform="matrix(-0.09700002,0,0,0.09700002,6.9717242,-25.701117)">
    <stop
       offset="0"
       stop-opacity=".447653"
       id="stop21" />
    <stop
       offset=".5"
       stop-opacity=".133574"
       id="stop23" />
    <stop
       offset="1"
       stop-opacity="0"
       id="stop25" />
  </linearGradient>
  <linearGradient
     id="j"
     gradientTransform="matrix(-0.02470922,0.00266642,-3.9726261e-4,0.02630086,3.8084618,-0.24386818)"
     gradientUnits="userSpaceOnUse"
     x1="95.84687"
     x2="76.361786"
     xlink:href="#k"
     y1="117.20569"
     y2="88.409065" />
  <linearGradient
     id="k">
    <stop
       offset="0"
       stop-color="#393a38"
       id="stop29" />
    <stop
       offset="1"
       stop-color="#393a38"
       stop-opacity="0"
       id="stop31" />
  </linearGradient>
  <linearGradient
     id="l"
     gradientTransform="matrix(-0.02470922,0.00266642,-3.9726261e-4,0.02630086,3.9860375,-0.24386818)"
     gradientUnits="userSpaceOnUse"
     x1="87.068436"
     x2="105.05599"
     xlink:href="#k"
     y1="146.89471"
     y2="58.65321" />
  <radialGradient
     id="m"
     cx="104.66048"
     cy="65.847801"
     fx="115.7285"
     fy="56.281128"
     gradientTransform="matrix(-0.01164025,-0.00670582,-0.02648817,0.04597924,8.2514663,-0.80041453)"
     gradientUnits="userSpaceOnUse"
     r="29.998838"
     xlink:href="#b" />
  <linearGradient
     id="n"
     gradientTransform="matrix(-0.02467545,-0.00112067,1.4161712e-4,0.02877134,4.0135822,-0.25384075)"
     gradientUnits="userSpaceOnUse"
     spreadMethod="reflect"
     x1="106.2739"
     x2="79.54409"
     y1="52.468563"
     y2="69.991898">
    <stop
       offset="0"
       stop-color="#9a7600"
       id="stop36" />
    <stop
       offset=".09292036"
       stop-color="#e3ad00"
       id="stop38" />
    <stop
       offset=".5043171"
       stop-color="#ffcd2c"
       id="stop40" />
    <stop
       offset=".91571385"
       stop-color="#e3ad00"
       id="stop42" />
    <stop
       offset="1"
       stop-color="#b98d00"
       id="stop44" />
  </linearGradient>
  <linearGradient
     id="o"
     gradientTransform="matrix(0.02882248,0,0,0.01947574,2.9380297,-0.46964264)"
     gradientUnits="userSpaceOnUse"
     x1="-113.6435"
     x2="-118.30019"
     xlink:href="#d"
     y1="78.293831"
     y2="33.764427" />
  <linearGradient
     id="p"
     gradientTransform="matrix(0.02882248,0,0,0.01947574,3.6733234,-0.03879356)"
     gradientUnits="userSpaceOnUse"
     x1="-82.509743"
     x2="-118.91476"
     xlink:href="#q"
     y1="64.065186"
     y2="63.447075" />
  <linearGradient
     id="q">
    <stop
       offset="0"
       id="stop49" />
    <stop
       offset=".40659341"
       stop-opacity=".682353"
       id="stop51" />
    <stop
       offset=".45329672"
       stop-opacity=".487365"
       id="stop53" />
    <stop
       offset=".5"
       stop-opacity=".361011"
       id="stop55" />
    <stop
       offset=".70604396"
       stop-opacity=".151625"
       id="stop57" />
    <stop
       offset="1"
       stop-opacity="0"
       id="stop59" />
  </linearGradient>
  <linearGradient
     id="r"
     gradientTransform="matrix(0.02882248,0,0,0.01947574,4.3571065,0.34579754)"
     gradientUnits="userSpaceOnUse"
     x1="-146.75171"
     x2="-123.66653"
     xlink:href="#q"
     y1="74.959991"
     y2="73.415115" />
  <linearGradient
     id="s"
     gradientTransform="matrix(-0.02898872,0.00217577,-0.00136258,0.03096812,5.1124787,-0.44546041)"
     gradientUnits="userSpaceOnUse"
     x1="-116.78745"
     x2="-84.77729"
     xlink:href="#d"
     y1="116.55856"
     y2="93.56797" />
  <radialGradient
     id="t"
     cx="70.623695"
     cy="53.380299"
     fx="70.964447"
     fy="76.702087"
     gradientTransform="matrix(-0.0289078,-0.01483426,-0.01813683,0.03434587,9.1111015,0.17470146)"
     gradientUnits="userSpaceOnUse"
     r="53.565186">
    <stop
       offset="0"
       stop-color="#fff"
       stop-opacity="0"
       id="stop64" />
    <stop
       offset=".5"
       stop-color="#7f7f7f"
       stop-opacity="0"
       id="stop66" />
    <stop
       offset="1"
       id="stop68" />
  </radialGradient>
  <linearGradient
     id="u"
     gradientTransform="matrix(-0.02898872,0.00217577,-0.00136258,0.03096812,0.36867084,-0.44546041)"
     gradientUnits="userSpaceOnUse"
     x1="-70.057068"
     x2="-27.8897"
     y1="95.781326"
     y2="66.671455">
    <stop
       offset="0"
       stop-color="#fff"
       id="stop71" />
    <stop
       offset=".42597079"
       stop-color="#fff"
       id="stop73" />
    <stop
       offset=".5892781"
       stop-color="#f1f1f1"
       id="stop75" />
    <stop
       offset=".80219781"
       stop-color="#eaeaea"
       id="stop77" />
    <stop
       offset="1"
       stop-color="#dfdfdf"
       id="stop79" />
  </linearGradient>
  <radialGradient
     id="v"
     cx="63.84724"
     cy="121.47017"
     fx="95.480644"
     gradientTransform="matrix(0.02566459,0,0,0.00262479,-4.219301,2.6214688)"
     gradientUnits="userSpaceOnUse"
     r="63.84724"
     xlink:href="#d" />
  <g
     id="g5145">
    <g
       id="g4457">
      <path
         d="m 1.8989733,0.21364008 c 2e-7,0.11799242 -0.095652,0.73362196 -0.2136449,0.73362196 -0.1179929,0 -0.2136452,-0.61562845 -0.213645,-0.73362196 5e-7,-0.11799241 0.095652,-0.2136441127036 0.213645,-0.2136441127036 0.1179926,0 0.2136445,0.095651702704 0.2136449,0.2136441127036 z"
         id="path86"
         inkscape:connector-curvature="0"
         style="fill:#ff6600" />
      <path
         d="M 1.1342344,0.30445941 C 1.1932308,0.40664454 1.4182084,0.98762097 1.3160235,1.0466172 1.2138386,1.1056145 0.82318713,0.62029084 0.76419056,0.51810462 0.70519473,0.41592059 0.74020597,0.28525767 0.84239049,0.22626146 0.94457506,0.16726525 1.0752379,0.20227538 1.1342344,0.30445941 Z"
         id="path88"
         inkscape:connector-curvature="0"
         style="fill:#cc0000" />
      <path
         d="M 0.5173608,0.76548145 C 0.61954576,0.82447765 1.1048703,1.215129 1.0458736,1.3173141 0.98687764,1.4194992 0.40590165,1.1945231 0.30371603,1.1355258 0.20153213,1.0765296 0.16652128,0.9458667 0.22551756,0.84368158 0.2845139,0.74149755 0.41517628,0.70648524 0.5173608,0.76548145 Z"
         id="path90"
         inkscape:connector-curvature="0"
         style="fill:#730055" />
      <path
         d="m 0.21364359,1.473175 c 0.11799287,0 0.73362192,0.095652 0.73362181,0.2136441 5.5e-7,0.1179935 -0.61562742,0.2136463 -0.73362141,0.2136463 C 0.09565203,1.9004643 2.7654685e-7,1.8048126 0,1.6868202 3.0930129e-7,1.5688278 0.09565109,1.473175 0.21364359,1.473175 Z"
         id="path92"
         inkscape:connector-curvature="0"
         style="fill:#2c0059" />
      <path
         d="M 0.30446354,2.2379137 C 0.40664836,2.1789175 0.98762466,1.9539403 1.0466208,2.0561243 1.1056179,2.1583095 0.62029488,2.5489608 0.5181091,2.6079581 0.41592452,2.6669532 0.28526181,2.631942 0.22626537,2.5297579 0.16726943,2.4275739 0.20227904,2.2969099 0.30446354,2.2379137 Z"
         id="path94"
         inkscape:connector-curvature="0"
         style="fill:#003399" />
      <path
         d="M 0.76548526,2.8547868 C 0.82448182,2.7526028 1.2151335,2.267278 1.3173177,2.3262742 1.4195032,2.3852704 1.1945268,2.9662458 1.13553,3.068432 1.0765331,3.170616 0.94587017,3.2056262 0.84368578,3.146631 0.7415018,3.0876348 0.70648899,2.9569719 0.76548526,2.8547868 Z"
         id="path96"
         inkscape:connector-curvature="0"
         style="fill:#3366cc" />
      <path
         d="m 1.4731784,3.1585045 c 5e-7,-0.1179924 0.095652,-0.7336219 0.2136445,-0.7336219 0.1179934,-1.1e-6 0.2136459,0.6156273 0.2136462,0.7336208 -8e-7,0.1179925 -0.095653,0.2136442 -0.213645,0.2136452 -0.117992,0 -0.2136454,-0.095652 -0.2136457,-0.2136441 z"
         id="path98"
         inkscape:connector-curvature="0"
         style="fill:#6699ff" />
      <path
         d="M 2.2379175,3.0676852 C 2.1789217,2.9655001 1.9539439,2.3845236 2.056128,2.3255274 c 0.1021848,-0.058997 0.4928364,0.4263264 0.5518335,0.5285115 0.058996,0.102184 0.023984,0.232847 -0.078199,0.2918443 -0.1021841,0.058996 -0.2328483,0.023986 -0.2918447,-0.078198 z"
         id="path100"
         inkscape:connector-curvature="0"
         style="fill:#99cc33" />
      <path
         d="M 2.8547912,2.6066632 C 2.7526069,2.5476659 2.2672821,2.1570146 2.3262781,2.0548305 c 0.058996,-0.1021851 0.639972,0.122791 0.7421576,0.1817883 0.1021836,0.058995 0.1371941,0.1896591 0.078199,0.2918431 -0.058996,0.1021852 -0.1896595,0.1371975 -0.291844,0.078201 z"
         id="path102"
         inkscape:connector-curvature="0"
         style="fill:#00cc00" />
      <path
         d="M 3.1687219,1.9091825 C 3.050729,1.9091814 2.4350997,1.8135297 2.4350997,1.6955383 2.4350992,1.5775448 3.0507272,1.481892 3.1687212,1.481892 c 0.1179912,0 0.2136432,0.095653 0.2136443,0.2136442 7e-7,0.1179935 -0.095651,0.2136463 -0.2136436,0.2136463 z"
         id="path104"
         inkscape:connector-curvature="0"
         style="fill:#669900" />
      <path
         d="M 3.0676888,1.1342309 C 2.9655033,1.1932261 2.384527,1.4182043 2.3255313,1.3160203 2.2665341,1.2138352 2.7518572,0.82318385 2.8540429,0.76418655 c 0.1021834,-0.0589962 0.232847,-0.0239839 0.2918435,0.078199 0.058997,0.10218512 0.023987,0.2328491 -0.078198,0.2918453 z"
         id="path106"
         inkscape:connector-curvature="0"
         style="fill:#ffcc00" />
      <path
         d="M 2.6066672,0.51735673 C 2.5476696,0.61954076 2.1570184,1.1048666 2.0548347,1.0458704 1.952649,0.98687417 2.1776255,0.40589883 2.2366222,0.30371261 2.2956175,0.20152858 2.4262817,0.16651845 2.5284656,0.22551248 2.6306513,0.28450868 2.6656634,0.4151727 2.6066672,0.51735673 Z"
         id="path108"
         inkscape:connector-curvature="0"
         style="fill:#ff9900" />
    </g>
    <path
       inkscape:connector-curvature="0"
       style="fill:#f0e3ec;fill-opacity:1;stroke:#9e3a9c;stroke-opacity:1;stroke-width:0.06614584;stroke-miterlimit:4;stroke-dasharray:none"
       id="path120"
       d="M 2.0101296,0.18110443 C 1.8844006,0.40495428 1.2267435,1.5758638 1.101015,1.7997137 0.97528617,2.0235635 1.2510165,2.4155911 1.7166269,2.6748556 2.1822374,2.9341202 2.6620475,2.9627983 2.7877763,2.7389484 2.9135046,2.5150985 3.5711622,1.344189 3.6968912,1.1203391 3.8226198,0.89648927 3.5468894,0.50446175 3.0812787,0.24519719 2.6156685,-0.01406737 2.1358582,-0.04274543 2.0101296,0.18110443 Z" />
    <path
       sodipodi:nodetypes="ccscsssscssccsssscssssc"
       style="fill:#f0e3ec;fill-opacity:1;stroke:#9e3a9c;stroke-width:0.06614584;stroke-linecap:round;stroke-linejoin:round;stroke-miterlimit:4;stroke-dasharray:none;stroke-opacity:1"
       inkscape:connector-curvature="0"
       id="path144"
       d="M 2.257177,0.0290278 C 2.298219,0.0245755 2.342667,0.023363 2.3898152,0.0262051 2.5784074,0.03754344 2.8031612,0.09189708 3.03173,0.21938615 3.1779455,0.30094085 3.358286,0.41183838 3.4592296,0.5100218 3.3618799,0.41899213 3.1884817,0.31614657 3.0522308,0.24014996 2.823662,0.1126609 2.5989082,0.05830725 2.410316,0.04696795 2.2217238,0.03562865 2.0735161,0.08272216 2.0172866,0.19136315 1.9638004,0.29470309 2.0053004,0.44244188 2.1136936,0.59675242 2.1513314,0.65033426 2.1935744,0.70003125 2.2476632,0.75332791 2.1843645,0.6934498 2.1356899,0.63648848 2.0931929,0.5759886 1.9847993,0.42167806 1.9386303,0.28065264 1.9984959,0.17392934 2.0433949,0.09388783 2.1340522,0.04239925 2.257177,0.0290278 Z M 3.4548934,0.50617574 C 3.5172575,0.56610624 3.5712117,0.62744129 3.6140308,0.68839998 3.7282154,0.85095455 3.7678973,1.0114401 3.7022037,1.1285531 3.6365102,1.2456661 3.5277086,1.2870761 3.3290405,1.2751315 3.1303725,1.2631869 2.8895504,1.1894397 2.6531598,1.0575876 2.4951944,0.96947954 2.3593943,0.86658289 2.2521665,0.75950554 2.3559637,0.85910613 2.4849147,0.95441738 2.6326589,1.0368247 2.8690496,1.1686759 3.1090871,1.2433281 3.3077551,1.2552736 3.5064232,1.2672182 3.6152373,1.2249857 3.6809308,1.1078727 3.7466243,0.99075971 3.7069425,0.83027512 3.5927579,0.66771958 3.5548442,0.61374489 3.5082574,0.55952187 3.4548934,0.50617574 Z" />
    <path
       style="fill:#f3b7d9;fill-opacity:1;fill-rule:evenodd;stroke:none;stroke-width:0.01930203"
       inkscape:connector-curvature="0"
       id="path152"
       d="M 3.8623862,3.0487053 C 3.6866413,3.0501215 3.5384374,3.0306139 3.5022537,3.0315072 3.2628938,3.0374145 2.6894242,2.9263495 2.9187668,2.7898181 3.1693207,2.6406583 3.8579835,2.6446653 4.1261239,2.7884892 4.4187507,2.9454459 4.0381025,3.0472862 3.8623862,3.0487063 Z" />
    <path
       inkscape:connector-curvature="0"
       style="fill:#e601b4;fill-opacity:1"
       id="path136"
       d="M 2.6929188,1.5683289 2.0554848,2.6437206 C 1.6743417,2.4724816 1.2258388,2.0724292 1.153103,1.8068539 L 1.7739608,0.71251322 C 1.8505955,1.101979 2.3169568,1.3884986 2.6929188,1.5683289 Z" />
    <g
       transform="translate(0.03587571,-0.01345339)"
       style="fill:#f3b7d9;fill-opacity:1;stroke:none"
       id="g4453">
      <path
         d="M 3.7171581,0.95408207 C 3.7242625,1.0137477 3.7165121,1.0691813 3.6907528,1.1164921 3.5691149,1.3399006 3.1178903,1.2848162 2.6554289,1.0480082 2.5317667,0.9846846 2.4296064,0.90828836 2.4026833,0.88581054 2.5954316,0.7648166 3.6459093,0.65630558 3.7171581,0.95408207 Z"
         id="path140"
         inkscape:connector-curvature="0"
         style="fill:#f3b7d9;fill-opacity:1;stroke:none" />
      <path
         d="m 3.2958294,1.2535638 c 0.1471797,-0.00352 0.2013097,0.1147084 0.210761,0.2297184 0.02825,0.343769 -0.030661,0.584751 -0.010962,0.8598023 0.004,0.055786 0.1032841,0.111876 0.1149539,-0.012405 0.027081,-0.2884043 -0.018947,-0.4907833 0.01343,-0.8891391 0.010694,-0.1315766 0.051078,-0.2579744 0.086505,-0.4083885"
         id="path158"
         inkscape:connector-curvature="0"
         style="fill:#f3b7d9;fill-opacity:1;fill-rule:evenodd;stroke:none;stroke-width:0.00256643" />
    </g>
    <path
       d="m 0,3.4395788 4.233274,0 0,0.79375 -4.233274,0 z"
       id="path172"
       inkscape:connector-curvature="0"
       style="opacity:0.98999999;fill:#9e3a9c;fill-opacity:1;stroke:none" />
  </g>
</svg>
