<?xml version="1.0" encoding="UTF-8" standalone="no"?>
<svg
   xmlns:dc="http://purl.org/dc/elements/1.1/"
   xmlns:cc="http://creativecommons.org/ns#"
   xmlns:rdf="http://www.w3.org/1999/02/22-rdf-syntax-ns#"
   xmlns:svg="http://www.w3.org/2000/svg"
   xmlns="http://www.w3.org/2000/svg"
   xmlns:sodipodi="http://sodipodi.sourceforge.net/DTD/sodipodi-0.dtd"
   xmlns:inkscape="http://www.inkscape.org/namespaces/inkscape"
   height="16"
   width="16"
   id="svg2"
   version="1.1"
   inkscape:version="0.91 r13725"
   sodipodi:docname="sc_fontworkshapetype.svg"
   inkscape:export-filename="/home/tamara/Desktop/IKON/5_258 (tamara)/sc (222)/Tanggal 10/sc_fontworkshapetype.png"
   inkscape:export-xdpi="90"
   inkscape:export-ydpi="90">
  <metadata
     id="metadata12">
    <rdf:RDF>
      <cc:Work
         rdf:about="">
        <dc:format>image/svg+xml</dc:format>
        <dc:type
           rdf:resource="http://purl.org/dc/dcmitype/StillImage" />
        <dc:title />
      </cc:Work>
    </rdf:RDF>
  </metadata>
  <defs
     id="defs10" />
  <sodipodi:namedview
     pagecolor="#ffffff"
     bordercolor="#666666"
     borderopacity="1"
     objecttolerance="10"
     gridtolerance="10"
     guidetolerance="10"
     inkscape:pageopacity="0"
     inkscape:pageshadow="2"
     inkscape:window-width="1366"
     inkscape:window-height="718"
     id="namedview8"
     showgrid="true"
     inkscape:zoom="16"
     inkscape:cx="0.709943"
     inkscape:cy="4.3986772"
     inkscape:window-x="0"
     inkscape:window-y="0"
     inkscape:window-maximized="1"
     inkscape:current-layer="svg2">
    <inkscape:grid
       type="xygrid"
       id="grid4150" />
  </sodipodi:namedview>
  <g
     id="g4152">
    <path
       inkscape:connector-curvature="0"
       style="fill:#f3b7d9;fill-opacity:1;stroke:#e820bb;stroke-width:0.24675854;stroke-linecap:round;stroke-linejoin:round;stroke-miterlimit:4;stroke-dasharray:none;stroke-opacity:1"
       id="path4"
       d="M 15.873105,6.0335142 C 13.294138,6.033103 10.731147,7.092826 8.9069845,8.9143764 7.0823016,10.736438 6.0204071,13.299066 6.0198638,15.876621 l 1.1918774,0 A 8.6606067,8.6533933 0 0 1 9.7497847,9.7584016 8.6606067,8.6533933 0 0 1 15.873105,7.2243991 Z" />
    <path
       inkscape:connector-curvature="0"
       style="fill:#f0e3ec;fill-opacity:1;stroke:#a243a0;stroke-width:0.25;stroke-linecap:round;stroke-linejoin:round;stroke-miterlimit:4;stroke-dasharray:none;stroke-opacity:1"
       id="path6"
       d="M 10.675805,4.5622458 10.849074,4.7515896 8.3078809,7.0770364 8.1346123,6.8876926 Q 8.5241115,6.5129512 8.6097576,6.306402 8.6954038,6.0998528 8.5221352,5.910509 8.3032695,5.6713379 7.7217916,5.4160916 L 6.4377454,4.8333027 3.8267944,7.2225852 4.4353528,8.8080366 Q 4.5471364,9.0902665 4.7112856,9.2696449 5.0851809,9.6782287 5.7628324,9.0581096 L 5.936101,9.2474534 3.9629395,11.053095 3.7896709,10.863751 Q 4.1401543,10.506402 4.1023591,10.064911 4.06541,9.6043371 3.5298068,8.0986093 L 1.124998,1.3087325 1.3243072,1.1263445 8.9855258,4.5159966 q 0.7407381,0.3292348 1.0369762,0.3328064 0.296239,0.00357 0.653303,-0.2865572 z M 3.6223118,6.6589714 5.9243335,4.5523903 2.2605053,2.8697385 Z" />
  </g>
</svg>
