<?xml version="1.0" encoding="UTF-8" standalone="no"?>
<svg
   xmlns:dc="http://purl.org/dc/elements/1.1/"
   xmlns:cc="http://creativecommons.org/ns#"
   xmlns:rdf="http://www.w3.org/1999/02/22-rdf-syntax-ns#"
   xmlns:svg="http://www.w3.org/2000/svg"
   xmlns="http://www.w3.org/2000/svg"
   xmlns:sodipodi="http://sodipodi.sourceforge.net/DTD/sodipodi-0.dtd"
   xmlns:inkscape="http://www.inkscape.org/namespaces/inkscape"
   height="16"
   width="16"
   id="svg2"
   version="1.1"
   inkscape:version="0.91 r13725"
   sodipodi:docname="sc_heading5parastyle.svg"
   inkscape:export-filename="/home/tamara/Desktop/IKON/5_258 (tamara)/sc (222)/Tanggal 20/sc_heading5parastyle.png"
   inkscape:export-xdpi="90"
   inkscape:export-ydpi="90">
  <metadata
     id="metadata33">
    <rdf:RDF>
      <cc:Work
         rdf:about="">
        <dc:format>image/svg+xml</dc:format>
        <dc:type
           rdf:resource="http://purl.org/dc/dcmitype/StillImage" />
      </cc:Work>
    </rdf:RDF>
  </metadata>
  <defs
     id="defs31" />
  <sodipodi:namedview
     pagecolor="#ffffff"
     bordercolor="#666666"
     borderopacity="1"
     objecttolerance="10"
     gridtolerance="10"
     guidetolerance="10"
     inkscape:pageopacity="0"
     inkscape:pageshadow="2"
     inkscape:window-width="1366"
     inkscape:window-height="718"
     id="namedview29"
     showgrid="true"
     inkscape:zoom="31.75"
     inkscape:cx="8"
     inkscape:cy="8"
     inkscape:window-x="0"
     inkscape:window-y="0"
     inkscape:window-maximized="1"
     inkscape:current-layer="svg2">
    <inkscape:grid
       type="xygrid"
       id="grid4161" />
  </sodipodi:namedview>
  <linearGradient
     id="a"
     gradientUnits="userSpaceOnUse"
     x1="68.149132"
     x2="97.395569"
     y1="92.084953"
     y2="29.936712">
    <stop
       offset="0"
       stop-color="#06f"
       id="stop5" />
    <stop
       offset="1"
       stop-color="#80b3ff"
       id="stop7" />
  </linearGradient>
  <linearGradient
     id="b"
     gradientUnits="userSpaceOnUse"
     x1="15.712173"
     x2="16.933331"
     y1="294.72055"
     y2="266.63391"
     gradientTransform="matrix(0.36814326,0,0,0.49428269,-0.79757479,-130.54782)">
    <stop
       offset="0"
       stop-color="#555"
       id="stop10" />
    <stop
       offset="1"
       id="stop12" />
  </linearGradient>
  <linearGradient
     id="c"
     gradientTransform="matrix(0.125,0,0,0.13077897,0,-0.48557958)"
     gradientUnits="userSpaceOnUse"
     x1="34.167969"
     x2="44.113281"
     y1="20.28125"
     y2="80.78125">
    <stop
       offset="0"
       stop-color="#3b3e22"
       id="stop15" />
    <stop
       offset="1"
       stop-color="#454545"
       stop-opacity="0"
       id="stop17" />
  </linearGradient>
  <g
     id="g4165">
    <path
       sodipodi:nodetypes="cccccccccsssccccscccssccccssscccccccc"
       d="M 3,6.9962974 7.0336806,6.9799367 7.0232621,3.3010153 C 7.0211269,2.5404872 6.9445888,2.0545826 6.7872425,1.8433262 6.6298959,1.6179827 6.2470199,1.4701032 5.6386138,1.3996828 l 0,-0.4013921 4.8429792,0.016361 0,0.4013922 C 9.8731872,1.486464 9.4903112,1.6343484 9.3329646,1.859687 9.1756187,2.0709483 9.0969453,2.5568431 9.0969453,3.3173761 l 0,9.3799039 c 0,0.746451 0.083918,1.232345 0.2517541,1.457684 0.1678365,0.225343 0.5454675,0.373223 1.1328936,0.443643 l 0,0.401393 -4.8475835,0.0021 0.0046,-0.419809 C 6.2470199,14.525908 6.6298959,14.37803 6.7872425,14.138604 6.9445888,13.899174 7.0232621,13.33582 7.0232621,12.448533 L 7.0336806,7.9799348 3,7.9962955 2.9895816,12.69728 c -0.00166,0.746451 0.083918,1.232345 0.2517544,1.457684 0.1678361,0.225343 0.5454672,0.373223 1.1328938,0.443643 l 0,0.401393 -4.3742295800752,0 0,-0.401393 C 0.60840625,14.542274 0.6078195,14.36888 0.76516585,14.129449 0.92251227,13.890023 1.0011854,13.326665 1.0011854,12.439378 l 0,-9.1475168 c 0,-0.760533 -0.0786731,-1.2464277 -0.23601955,-1.4576891 C 0.6078195,1.6088336 0.60840625,1.486464 2.199248e-7,1.4160436 l 0,-0.4013922 4.3742295800752,0 0,0.4013922 C 3.7658238,1.486464 3.3829474,1.6343484 3.2256011,1.859687 3.0682549,2.0709483 2.9895816,2.5568431 2.9895816,3.3173761 Z"
       id="path21"
       style="fill:#9d3a9b;stroke-width:1.015378"
       inkscape:connector-curvature="0" />
    <path
       style="fill:#e602b4"
       id="path25"
       transform="matrix(.12497358 0 0 .12502643 .207933 -.028289)"
       fill="url(#a)"
       d="m82.917969 55.970703a11.698882 11.698882 0 0 0 -11.675781 10.976563l-1.673829 27.099609a11.698882 11.698882 0 0 0 .341797 3.591797 11.698882 11.698882 0 0 0 -1.605468 8.074218c.47683 2.86099 1.371596 5.67678 2.68164 8.29688a11.698882 11.698882 0 0 0 .0625.12304c1.497086 2.90863 3.603609 5.5283 6.070313 7.625a11.698882 11.698882 0 0 0 .160156.13477c2.666275 2.18548 5.70751 3.72754 8.845703 4.76172a11.698882 11.698882 0 0 0 .115234.0371c3.443139 1.09555 6.971895 1.50781 10.585938 1.50781 4.013378 0 7.976478-.55682 11.759768-1.96094a11.698882 11.698882 0 0 0 .0605-.0234c3.53366-1.33412 6.9039-3.35616 9.6836-6.09375a11.698882 11.698882 0 0 0 .0625-.0625c2.66619-2.66617 4.75619-5.95809 6.06445-9.47265 1.30157-3.46048 1.90625-7.14195 1.90625-10.794924 0-3.487417-.50921-6.98844-1.68555-10.330078-.88171-2.521899-2.27577-4.883407-3.92187-7.072266a11.698882 11.698882 0 0 0 2.80469-7.578125v-7.142608a11.698882 11.698882 0 0 0 -11.69723-11.697266zm7.148437 18.015625c-.03047.01238-.05938.03243-.08984.04492-.01793.0075-.03677.0081-.05469.01563z" />
    <path
       style="fill:#f3b7d9"
       id="path27"
       transform="matrix(.12497358 0 0 .12502643 -7.275226 -.028289)"
       fill="#ddebff"
       d="m174.54349 99.791367q0 3.622393-1.16189 6.698003-1.12773 3.04144-3.38318 5.29689-2.25545 2.22128-5.60445 3.4857-3.31483 1.23024-7.68904 1.23024-4.03247 0-7.03974-.95685-3.00726-.99104-5.09185-2.69971-2.0504-1.74285-3.24648-4.06665-1.1619-2.32379-1.60615-4.98932l9.60275-.786q.27339 1.12773.75182 2.18711.5126 1.05938 1.40111 1.87954.88851.82016 2.1871 1.33277 1.2986.47843 3.14396.47843 3.58822 0 5.70698-2.28963 2.15293-2.28962 2.15293-6.595482 0-1.913715-.54678-3.451522-.5126-1.537807-1.50363-2.631359-.95686-1.093552-2.39215-1.674501-1.40111-.580949-3.21231-.580949-2.39214 0-3.92995.922684-1.5378.888511-2.59718 2.187103h-9.36354l1.6745-27.099576h28.94495v7.142259h-20.23071l-.78599 12.165762q1.43529-1.264419 3.62239-2.15293 2.18711-.922684 5.09185-.922684 3.55405 0 6.35627 1.161898 2.80223 1.161899 4.75012 3.246482 1.94788 2.084583 2.97309 5.023503 1.0252 2.904746 1.0252 6.458789z" />
  </g>
</svg>
