<?xml version="1.0" encoding="UTF-8" standalone="no"?>
<svg
   xmlns:dc="http://purl.org/dc/elements/1.1/"
   xmlns:cc="http://creativecommons.org/ns#"
   xmlns:rdf="http://www.w3.org/1999/02/22-rdf-syntax-ns#"
   xmlns:svg="http://www.w3.org/2000/svg"
   xmlns="http://www.w3.org/2000/svg"
   xmlns:sodipodi="http://sodipodi.sourceforge.net/DTD/sodipodi-0.dtd"
   xmlns:inkscape="http://www.inkscape.org/namespaces/inkscape"
   height="16"
   width="16"
   id="svg2"
   version="1.1"
   inkscape:version="0.91 r13725"
   sodipodi:docname="sc_heading6parastyle.svg"
   inkscape:export-filename="/home/tamara/Desktop/IKON/5_258 (tamara)/sc (222)/Tanggal 20/sc_heading6parastyle.png"
   inkscape:export-xdpi="90"
   inkscape:export-ydpi="90">
  <metadata
     id="metadata35">
    <rdf:RDF>
      <cc:Work
         rdf:about="">
        <dc:format>image/svg+xml</dc:format>
        <dc:type
           rdf:resource="http://purl.org/dc/dcmitype/StillImage" />
      </cc:Work>
    </rdf:RDF>
  </metadata>
  <defs
     id="defs33" />
  <sodipodi:namedview
     pagecolor="#ffffff"
     bordercolor="#666666"
     borderopacity="1"
     objecttolerance="10"
     gridtolerance="10"
     guidetolerance="10"
     inkscape:pageopacity="0"
     inkscape:pageshadow="2"
     inkscape:window-width="1366"
     inkscape:window-height="718"
     id="namedview31"
     showgrid="true"
     inkscape:zoom="31.75"
     inkscape:cx="8"
     inkscape:cy="8"
     inkscape:window-x="0"
     inkscape:window-y="0"
     inkscape:window-maximized="1"
     inkscape:current-layer="svg2">
    <inkscape:grid
       type="xygrid"
       id="grid4165" />
  </sodipodi:namedview>
  <linearGradient
     id="a"
     gradientUnits="userSpaceOnUse"
     x1="105.35139"
     x2="111.41898"
     y1="102.10476"
     y2="33.939384"
     gradientTransform="matrix(0.12497358,0,0,0.12502643,0.421026,0.138254)">
    <stop
       offset="0"
       stop-color="#06f"
       id="stop5" />
    <stop
       offset="1"
       stop-color="#80b3ff"
       id="stop7" />
  </linearGradient>
  <linearGradient
     id="b"
     gradientUnits="userSpaceOnUse"
     x1="15.712173"
     x2="16.933331"
     y1="294.72055"
     y2="266.63391"
     gradientTransform="matrix(0.36814326,0,0,0.49428269,-0.79757479,-130.54782)">
    <stop
       offset="0"
       stop-color="#555"
       id="stop10" />
    <stop
       offset="1"
       id="stop12" />
  </linearGradient>
  <linearGradient
     id="c"
     gradientTransform="matrix(0.125,0,0,0.13077897,0,-0.48557958)"
     gradientUnits="userSpaceOnUse"
     x1="34.167969"
     x2="44.113281"
     y1="20.28125"
     y2="80.78125">
    <stop
       offset="0"
       stop-color="#3b3e22"
       id="stop15" />
    <stop
       offset="1"
       stop-color="#454545"
       stop-opacity="0"
       id="stop17" />
  </linearGradient>
  <g
     id="g4169">
    <path
       sodipodi:nodetypes="cccccccccsssccccscccssccccssscccccccc"
       d="M 3,6.9962974 7.0336806,6.9799367 7.0232621,3.3010153 C 7.0211269,2.5404872 6.9445888,2.0545826 6.7872425,1.8433262 6.6298959,1.6179827 6.2470199,1.4701032 5.6386138,1.3996828 l 0,-0.4013921 4.8429792,0.016361 0,0.4013922 C 9.8731872,1.486464 9.4903112,1.6343484 9.3329646,1.859687 9.1756187,2.0709483 9.0969453,2.5568431 9.0969453,3.3173761 l 0,9.3799039 c 0,0.746451 0.083918,1.232345 0.2517541,1.457684 0.1678365,0.225343 0.5454675,0.373223 1.1328936,0.443643 l 0,0.401393 -4.8309943,0.0016 -0.011985,-0.419369 C 6.2470199,14.525908 6.6298959,14.37803 6.7872425,14.138604 6.9445888,13.899174 7.0232621,13.33582 7.0232621,12.448533 L 7.0336806,7.9799348 3,7.9962955 2.9895816,12.69728 c -0.00166,0.746451 0.083918,1.232345 0.2517544,1.457684 0.1678361,0.225343 0.5454672,0.373223 1.1328938,0.443643 l 0,0.401393 -4.3742295800752,0 0,-0.401393 C 0.60840625,14.542274 0.6078195,14.36888 0.76516585,14.129449 0.92251227,13.890023 1.0011854,13.326665 1.0011854,12.439378 l 0,-9.1475168 c 0,-0.760533 -0.0786731,-1.2464277 -0.23601955,-1.4576891 C 0.6078195,1.6088336 0.60840625,1.486464 2.199248e-7,1.4160436 l 0,-0.4013922 4.3742295800752,0 0,0.4013922 C 3.7658238,1.486464 3.3829474,1.6343484 3.2256011,1.859687 3.0682549,2.0709483 2.9895816,2.5568431 2.9895816,3.3173761 Z"
       id="path21"
       style="fill:#9d3a9b;stroke-width:1.015378"
       inkscape:connector-curvature="0" />
    <path
       sodipodi:nodetypes="cccsccscccccsscccsccccccccccccc"
       d="m 12.665508,7.1233732 c -1.056055,0 -2.134633,0.5164483 -2.7486867,1.3791979 L 9.916084,8.5035463 C 9.289302,9.3860571 9.0917953,10.468871 9.0917953,11.702709 c 0,1.150244 0.2073033,2.189984 0.8411308,3.024321 l 0.00537,0.0066 c 0.6262059,0.813477 1.6759489,1.266382 2.6971839,1.266382 0.467133,0 0.931083,-0.07002 1.370072,-0.242728 l 0.01196,-0.0049 c 0.409607,-0.165755 0.796912,-0.417191 1.10792,-0.749426 0.303564,-0.324135 0.533201,-0.717924 0.674662,-1.133052 l 0.0015,-0.0044 C 15.938392,13.459391 16,13.032715 16,12.604253 16,12.182985 15.94072,11.763591 15.800823,11.363024 15.725483,11.147309 15.620556,10.939515 15.496933,10.741066 15.795874,10.406167 15.907388,9.9437898 15.79399,9.5093604 15.7023,9.1584004 15.571639,8.8218776 15.376597,8.5074396 15.186583,8.1983422 14.93373,7.9139326 14.628709,7.6935469 14.332369,7.4794324 13.992613,7.3278468 13.646006,7.241547 13.324659,7.1588339 12.996599,7.123358 12.6655,7.123358 Z m 1.457211,2.4607252 0.01977,0.00806 c -0.0033,-0.00137 -0.0069,-0.00157 -0.01025,-0.00293 -0.0033,-0.00133 -0.0062,-0.00381 -0.0095,-0.00513 z m 1.03152,0.7010756 0.01635,0.01758 c -0.0027,-0.0029 -0.0063,-0.0049 -0.009,-0.0078 -0.0028,-0.003 -0.0045,-0.0068 -0.0073,-0.0098 z"
       id="path27"
       style="fill:#e602b4"
       inkscape:connector-curvature="0" />
    <path
       d="m 14.659856,12.60419 q 0,0.452895 -0.128123,0.833155 -0.128124,0.375989 -0.384371,0.649434 -0.251976,0.269173 -0.632075,0.422987 -0.3801,0.14954 -0.879782,0.14954 -1.063425,0 -1.63571,-0.743431 -0.568014,-0.747703 -0.568014,-2.213201 0,-1.610766 0.576555,-2.422558 0.580827,-0.8160646 1.657064,-0.8160646 0.358745,0 0.653431,0.076907 0.294684,0.072634 0.525305,0.2392651 0.230622,0.166631 0.392913,0.4315315 0.162289,0.260628 0.260517,0.6366158 l -1.131758,0.1580856 q -0.08542,-0.3161714 -0.2776,-0.4528943 -0.192186,-0.1409954 -0.448433,-0.1409954 -0.482598,0 -0.760199,0.4828026 -0.27333,0.4828021 -0.27333,1.4654981 0.192185,-0.320444 0.533848,-0.491348 0.341662,-0.170903 0.773012,-0.170903 0.397183,0 0.717491,0.13245 0.324579,0.128178 0.550931,0.375988 0.230623,0.243537 0.354475,0.598162 0.123853,0.354625 0.123853,0.798974 z m -1.204361,0.03418 q 0,-0.243537 -0.05552,-0.435804 -0.05552,-0.196539 -0.170832,-0.333262 -0.11104,-0.136723 -0.2776,-0.209357 -0.166561,-0.07691 -0.384371,-0.07691 -0.158019,0 -0.316038,0.05127 -0.158019,0.05127 -0.281871,0.166631 -0.123853,0.111087 -0.200727,0.286263 -0.07687,0.175176 -0.07687,0.422986 0,0.256356 0.06406,0.47853 0.06406,0.222176 0.179373,0.388806 0.119582,0.162358 0.286143,0.256355 0.16656,0.08972 0.375829,0.08972 0.405724,0 0.632075,-0.286263 0.226352,-0.290536 0.226352,-0.798974 z"
       id="path29"
       inkscape:connector-curvature="0"
       style="fill:#f3b7d9" />
  </g>
</svg>
