<?xml version="1.0" encoding="UTF-8" standalone="no"?>
<svg
   xmlns:dc="http://purl.org/dc/elements/1.1/"
   xmlns:cc="http://creativecommons.org/ns#"
   xmlns:rdf="http://www.w3.org/1999/02/22-rdf-syntax-ns#"
   xmlns:svg="http://www.w3.org/2000/svg"
   xmlns="http://www.w3.org/2000/svg"
   xmlns:xlink="http://www.w3.org/1999/xlink"
   xmlns:sodipodi="http://sodipodi.sourceforge.net/DTD/sodipodi-0.dtd"
   xmlns:inkscape="http://www.inkscape.org/namespaces/inkscape"
   height="16"
   width="16"
   id="svg2"
   version="1.1"
   inkscape:version="0.91 r13725"
   sodipodi:docname="sc_hfixedline.svg"
   inkscape:export-filename="/home/tamara/Desktop/IKON/5_258 (tamara)/sc (222)/Tanggal 20/sc_hfixedline.png"
   inkscape:export-xdpi="90"
   inkscape:export-ydpi="90">
  <metadata
     id="metadata72">
    <rdf:RDF>
      <cc:Work
         rdf:about="">
        <dc:format>image/svg+xml</dc:format>
        <dc:type
           rdf:resource="http://purl.org/dc/dcmitype/StillImage" />
      </cc:Work>
    </rdf:RDF>
  </metadata>
  <defs
     id="defs70" />
  <sodipodi:namedview
     pagecolor="#ffffff"
     bordercolor="#666666"
     borderopacity="1"
     objecttolerance="10"
     gridtolerance="10"
     guidetolerance="10"
     inkscape:pageopacity="0"
     inkscape:pageshadow="2"
     inkscape:window-width="1366"
     inkscape:window-height="718"
     id="namedview68"
     showgrid="true"
     inkscape:zoom="14.75"
     inkscape:cx="-0.6779661"
     inkscape:cy="8"
     inkscape:window-x="0"
     inkscape:window-y="0"
     inkscape:window-maximized="1"
     inkscape:current-layer="svg2">
    <inkscape:grid
       type="xygrid"
       id="grid4200" />
  </sodipodi:namedview>
  <linearGradient
     id="a"
     gradientTransform="matrix(.05911826 0 0 .1431311 -6.291397 -134.65389)"
     gradientUnits="userSpaceOnUse"
     x1="399.77466"
     x2="399.77466"
     xlink:href="#k"
     y1="1164.6696"
     y2="549.06134" />
  <linearGradient
     id="b"
     gradientTransform="matrix(.05911826 0 0 .1431311 21.708603 -134.65389)"
     gradientUnits="userSpaceOnUse"
     x1="399.77466"
     x2="399.77466"
     xlink:href="#k"
     y1="1164.6696"
     y2="549.06134" />
  <linearGradient
     id="c"
     gradientTransform="matrix(.05911826 0 0 .1431311 53.708603 -134.65389)"
     gradientUnits="userSpaceOnUse"
     x1="399.77466"
     x2="399.77466"
     xlink:href="#k"
     y1="1164.6696"
     y2="549.06134" />
  <linearGradient
     id="d"
     gradientTransform="matrix(.05911826 0 0 .1431311 81.708603 -134.65389)"
     gradientUnits="userSpaceOnUse"
     x1="399.77466"
     x2="399.77466"
     xlink:href="#k"
     y1="1164.6696"
     y2="549.06134" />
  <linearGradient
     id="e"
     gradientTransform="matrix(.05911826 0 0 .1431311 -6.291397 -118.65389)"
     gradientUnits="userSpaceOnUse"
     x1="399.77466"
     x2="399.77466"
     xlink:href="#k"
     y1="1164.6696"
     y2="549.06134" />
  <linearGradient
     id="f"
     gradientTransform="matrix(.05911826 0 0 .1431311 29.708603 -118.65389)"
     gradientUnits="userSpaceOnUse"
     x1="399.77466"
     x2="399.77466"
     xlink:href="#k"
     y1="1164.6696"
     y2="549.06134" />
  <linearGradient
     id="g"
     gradientTransform="matrix(.05911826 0 0 .1431311 65.708603 -118.65389)"
     gradientUnits="userSpaceOnUse"
     x1="399.77466"
     x2="399.77466"
     xlink:href="#k"
     y1="1164.6696"
     y2="549.06134" />
  <linearGradient
     id="h"
     gradientTransform="matrix(.05911826 0 0 .1431311 -6.291397 -102.65389)"
     gradientUnits="userSpaceOnUse"
     x1="399.77466"
     x2="399.77466"
     xlink:href="#k"
     y1="1164.6696"
     y2="549.06134" />
  <linearGradient
     id="i"
     gradientTransform="matrix(.05911826 0 0 .1431311 29.708603 -102.65389)"
     gradientUnits="userSpaceOnUse"
     x1="399.77466"
     x2="399.77466"
     xlink:href="#k"
     y1="1164.6696"
     y2="549.06134" />
  <linearGradient
     id="j"
     gradientTransform="matrix(.05911826 0 0 .1431311 65.708603 -102.65389)"
     gradientUnits="userSpaceOnUse"
     x1="399.77466"
     x2="399.77466"
     xlink:href="#k"
     y1="1164.6696"
     y2="549.06134" />
  <linearGradient
     id="k">
    <stop
       offset="0"
       stop-color="#b4b4b6"
       id="stop15" />
    <stop
       offset=".5"
       stop-color="#9c9ca1"
       id="stop17" />
    <stop
       offset="1"
       stop-color="#cdcdd1"
       id="stop19" />
  </linearGradient>
  <linearGradient
     id="l"
     gradientTransform="matrix(1.9362358 0 0 1.1370159 40.510108 -137.09613)"
     gradientUnits="userSpaceOnUse"
     x1="16.26346"
     x2="28.913122"
     y1="29.107885"
     y2="-12.523698">
    <stop
       offset="0"
       stop-color="#0968ef"
       id="stop22" />
    <stop
       offset="1"
       stop-color="#aecffc"
       id="stop24" />
  </linearGradient>
  <g
     id="g4202">
    <rect
       style="fill:#e602b4"
       id="rect26"
       y="-128"
       x="64"
       width="8"
       transform="matrix(0 .125 -.125 0 0 0)"
       ry="4.000002"
       rx="3.716668"
       height="128"
       fill="url(#l)" />
    <rect
       style="fill:#f3b7d9"
       id="rect28"
       y="-48"
       x="8"
       width="24"
       transform="matrix(.125 0 0 -.125 0 1)"
       ry="3.632653"
       rx="3.302412"
       height="8"
       fill="url(#a)" />
    <rect
       style="fill:#f3b7d9"
       id="rect30"
       y="-48"
       x="36"
       width="24"
       transform="matrix(.125 0 0 -.125 0 1)"
       ry="3.632653"
       rx="3.302412"
       height="8"
       fill="url(#b)" />
    <rect
       style="fill:#f3b7d9"
       id="rect32"
       y="-48"
       x="68"
       width="24"
       transform="matrix(.125 0 0 -.125 0 1)"
       ry="3.632653"
       rx="3.302412"
       height="8"
       fill="url(#c)" />
    <rect
       style="fill:#f3b7d9"
       id="rect34"
       y="-48"
       x="96"
       width="24"
       transform="matrix(.125 0 0 -.125 0 1)"
       ry="3.632653"
       rx="3.302412"
       height="8"
       fill="url(#d)" />
    <rect
       style="fill:#f3b7d9"
       id="rect36"
       y="-32"
       x="8"
       width="32"
       transform="matrix(.125 0 0 -.125 0 1)"
       ry="3.632653"
       rx="3.302412"
       height="8"
       fill="url(#e)" />
    <rect
       style="fill:#f3b7d9"
       id="rect38"
       y="-32"
       x="44"
       width="32"
       transform="matrix(.125 0 0 -.125 0 1)"
       ry="3.632653"
       rx="3.302412"
       height="8"
       fill="url(#f)" />
    <rect
       style="fill:#f3b7d9"
       id="rect40"
       y="-32"
       x="80"
       width="40"
       transform="matrix(.125 0 0 -.125 0 1)"
       ry="3.632653"
       rx="3.302412"
       height="8"
       fill="url(#g)" />
    <rect
       style="fill:#f3b7d9"
       id="rect42"
       y="-16"
       x="8"
       width="32"
       transform="matrix(.125 0 0 -.125 0 1)"
       ry="3.632653"
       rx="3.302412"
       height="8"
       fill="url(#h)" />
    <rect
       style="fill:#f3b7d9"
       id="rect44"
       y="-16"
       x="44"
       width="32"
       transform="matrix(.125 0 0 -.125 0 1)"
       ry="3.632653"
       rx="3.302412"
       height="8"
       fill="url(#i)" />
    <rect
       style="fill:#f3b7d9"
       id="rect46"
       y="-16"
       x="80"
       width="40"
       transform="matrix(.125 0 0 -.125 0 1)"
       ry="3.632653"
       rx="3.302412"
       height="8"
       fill="url(#j)" />
    <rect
       style="fill:#f3b7d9"
       id="rect48"
       y="-48"
       x="8"
       width="24"
       transform="matrix(.125 0 0 .125 0 16)"
       ry="3.632653"
       rx="3.302412"
       height="8"
       fill="url(#a)" />
    <rect
       style="fill:#f3b7d9"
       id="rect50"
       y="-48"
       x="36"
       width="24"
       transform="matrix(.125 0 0 .125 0 16)"
       ry="3.632653"
       rx="3.302412"
       height="8"
       fill="url(#b)" />
    <rect
       style="fill:#f3b7d9"
       id="rect52"
       y="-48"
       x="68"
       width="24"
       transform="matrix(.125 0 0 .125 0 16)"
       ry="3.632653"
       rx="3.302412"
       height="8"
       fill="url(#c)" />
    <rect
       style="fill:#f3b7d9"
       id="rect54"
       y="-48"
       x="96"
       width="24"
       transform="matrix(.125 0 0 .125 0 16)"
       ry="3.632653"
       rx="3.302412"
       height="8"
       fill="url(#d)" />
    <rect
       style="fill:#f3b7d9"
       id="rect56"
       y="-32"
       x="8"
       width="32"
       transform="matrix(.125 0 0 .125 0 16)"
       ry="3.632653"
       rx="3.302412"
       height="8"
       fill="url(#e)" />
    <rect
       style="fill:#f3b7d9"
       id="rect58"
       y="-32"
       x="44"
       width="32"
       transform="matrix(.125 0 0 .125 0 16)"
       ry="3.632653"
       rx="3.302412"
       height="8"
       fill="url(#f)" />
    <rect
       style="fill:#f3b7d9"
       id="rect60"
       y="-32"
       x="80"
       width="40"
       transform="matrix(.125 0 0 .125 0 16)"
       ry="3.632653"
       rx="3.302412"
       height="8"
       fill="url(#g)" />
    <rect
       style="fill:#f3b7d9"
       id="rect62"
       y="-16"
       x="8"
       width="32"
       transform="matrix(.125 0 0 .125 0 16)"
       ry="3.632653"
       rx="3.302412"
       height="8"
       fill="url(#h)" />
    <rect
       style="fill:#f3b7d9"
       id="rect64"
       y="-16"
       x="44"
       width="32"
       transform="matrix(.125 0 0 .125 0 16)"
       ry="3.632653"
       rx="3.302412"
       height="8"
       fill="url(#i)" />
    <rect
       style="fill:#f3b7d9"
       id="rect66"
       y="-16"
       x="80"
       width="40"
       transform="matrix(.125 0 0 .125 0 16)"
       ry="3.632653"
       rx="3.302412"
       height="8"
       fill="url(#j)" />
  </g>
</svg>
