<?xml version="1.0" encoding="UTF-8" standalone="no"?>
<svg
   xmlns:dc="http://purl.org/dc/elements/1.1/"
   xmlns:cc="http://creativecommons.org/ns#"
   xmlns:rdf="http://www.w3.org/1999/02/22-rdf-syntax-ns#"
   xmlns:svg="http://www.w3.org/2000/svg"
   xmlns="http://www.w3.org/2000/svg"
   xmlns:sodipodi="http://sodipodi.sourceforge.net/DTD/sodipodi-0.dtd"
   xmlns:inkscape="http://www.inkscape.org/namespaces/inkscape"
   height="16"
   width="16"
   id="svg2"
   version="1.1"
   inkscape:version="0.91 r13725"
   sodipodi:docname="sc_heading2parastyle.svg"
   inkscape:export-filename="/home/tamara/Desktop/IKON/5_258 (tamara)/sc (222)/Tanggal 20/sc_heading2parastyle.png"
   inkscape:export-xdpi="90"
   inkscape:export-ydpi="90">
  <metadata
     id="metadata35">
    <rdf:RDF>
      <cc:Work
         rdf:about="">
        <dc:format>image/svg+xml</dc:format>
        <dc:type
           rdf:resource="http://purl.org/dc/dcmitype/StillImage" />
      </cc:Work>
    </rdf:RDF>
  </metadata>
  <defs
     id="defs33" />
  <sodipodi:namedview
     pagecolor="#ffffff"
     bordercolor="#666666"
     borderopacity="1"
     objecttolerance="10"
     gridtolerance="10"
     guidetolerance="10"
     inkscape:pageopacity="0"
     inkscape:pageshadow="2"
     inkscape:window-width="1366"
     inkscape:window-height="718"
     id="namedview31"
     showgrid="true"
     inkscape:zoom="31.75"
     inkscape:cx="8"
     inkscape:cy="8"
     inkscape:window-x="0"
     inkscape:window-y="0"
     inkscape:window-maximized="1"
     inkscape:current-layer="svg2">
    <inkscape:grid
       type="xygrid"
       id="grid4181" />
  </sodipodi:namedview>
  <linearGradient
     id="a"
     gradientUnits="userSpaceOnUse"
     x1="170.363534"
     x2="170.363534"
     y1="39.851386"
     y2="33.064191">
    <stop
       offset="0"
       stop-color="#06f"
       id="stop5" />
    <stop
       offset="1"
       stop-color="#80b3ff"
       id="stop7" />
  </linearGradient>
  <linearGradient
     id="b"
     gradientUnits="userSpaceOnUse"
     x1="15.712173"
     x2="16.933331"
     y1="294.72055"
     y2="266.63391">
    <stop
       offset="0"
       stop-color="#555"
       id="stop10" />
    <stop
       offset="1"
       id="stop12" />
  </linearGradient>
  <linearGradient
     id="c"
     gradientTransform="matrix(.26458334 0 0 .27681548 0 -1.027808)"
     gradientUnits="userSpaceOnUse"
     x1="34.167969"
     x2="44.113281"
     y1="20.28125"
     y2="80.78125">
    <stop
       offset="0"
       stop-color="#3b3e22"
       id="stop15" />
    <stop
       offset="1"
       stop-color="#454545"
       stop-opacity="0"
       id="stop17" />
  </linearGradient>
  <g
     id="g4190">
    <g
       id="g4183">
      <path
         sodipodi:nodetypes="ccsccccccsssccccccccssccccssscccccccc"
         inkscape:connector-curvature="0"
         style="fill:#9d3a9b;stroke-width:1.015378"
         id="path21-3"
         d="m 2.98406,7.0126587 4.0336803,-0.016365 0.00552,-3.6952821 C 7.0244036,2.5404833 6.9445891,2.0545836 6.7872428,1.8433272 6.6298962,1.6179838 6.2470202,1.4701043 5.6386142,1.3996838 l 0,-0.40139209 4.8429788,0.0163616 0,0.4013921 C 9.8731872,1.486465 9.4903113,1.6343495 9.3329647,1.859688 9.1756188,2.0709493 9.0969456,2.556844 9.0969456,3.317377 l 0,9.379903 c 0,0.746451 0.083917,1.232346 0.2517544,1.457684 0.1678374,0.225343 0.5454674,0.373225 1.132894,0.443644 l 0,0.401392 -4.8429794,-7.45e-4 0,-0.417016 c 0.608406,-0.05634 0.9912819,-0.20422 1.1486286,-0.443644 0.1573455,-0.239429 0.2360201,-0.802784 0.2360201,-1.690071 l -0.00552,-4.4522363 -4.0336803,0.016365 0.00552,4.6846233 c 8.835e-4,0.746451 0.083918,1.232346 0.2517543,1.457684 0.167836,0.225343 0.5454672,0.373225 1.1328938,0.443644 l 0,0.401392 -4.37423048,0 0,-0.401392 C 0.60840203,14.542274 0.60781526,14.368876 0.76516159,14.129445 0.92250801,13.89002 1.0011812,13.326661 1.0011812,12.439374 l 0,-9.1475162 c 0,-0.760533 -0.0786731,-1.2464276 -0.23601942,-1.457689 C 0.60781932,1.6088347 0.6084059,1.4864649 0,1.4160446 l 0,-0.4013922 4.3742296,0 0,0.4013922 C 3.7658232,1.486465 3.3829468,1.6343495 3.2256006,1.859688 3.0682543,2.0709493 2.989581,2.556844 2.989581,3.317377 Z" />
      <path
         inkscape:connector-curvature="0"
         style="opacity:0.75;fill:#9d3a9b"
         id="path23-6"
         d="m 1.1298069,1.2944898 c 8.457e-4,0.00113 6.189e-4,0.00269 0.00146,0.00383 0.00147,0.00221 0.00937,0.010552 0.010741,0.012518 z m 6.0224608,0.00869 c 0.00213,0.00285 0.00156,0.00685 0.00368,0.00971 0.0025,0.00356 0.00605,0.00304 0.00854,0.00664 z M 2.828049,1.3195216 2.8158411,1.336125 c 0.00251,-0.0036 0.00627,-0.00334 0.00879,-0.0069 0.0021,-0.00285 0.0013,-0.00686 0.00342,-0.00971 z m 6.1074217,0 -0.012208,0.016603 c 0.0025,-0.0036 0.00627,-0.00334 0.00877,-0.0069 0.00208,-0.00285 0.00128,-0.00686 0.0034,-0.00971 z M 7.3085179,1.7001083 C 7.4881135,2.1413199 7.5463107,2.6339621 7.5463107,3.272521 l 0,4.0991028 A 0.53924184,0.72400593 0 0 1 7.4198477,7.8370129 0.53924184,0.72400593 0 0 1 7.5463107,8.30138 l 0,0.091189 A 9.5000001,5.2311585 0 0 0 8.5414281,8.0886089 l 0,-4.7994846 c 0,-0.6440058 0.05828,-1.1407497 0.2424302,-1.5844178 z m -6.0148926,0.010473 c 0.1719715,0.4366395 0.2309571,0.923678 0.2309571,1.5532556 l 0,5.52158 a 9.5000001,5.2311585 0 0 0 0.9094237,0.075353 l 0,-0.5430391 A 0.53924184,0.72400593 0 0 1 2.5607151,7.8525948 0.53924184,0.72400593 0 0 1 2.434006,7.3882273 l 0,-4.099103 c 0,-0.6412823 0.058374,-1.1361006 0.2402347,-1.578543 z" />
      <g
         transform="matrix(1.4828809,0,0,1.4828809,-246.29105,-43.283556)"
         id="g25">
        <path
           d="m 169.2614,39.851395 0,-0.563593 q 0.15897,-0.349716 0.45088,-0.682091 0.2948,-0.332375 0.73989,-0.693652 0.42776,-0.346826 0.59828,-0.572263 0.17341,-0.225437 0.17341,-0.442204 0,-0.5318 -0.53469,-0.5318 -0.26012,0 -0.39885,0.141621 -0.13584,0.13873 -0.1763,0.419081 l -0.81793,-0.04624 q 0.0694,-0.566483 0.42197,-0.864175 0.35549,-0.297692 0.96533,-0.297692 0.65897,0 1.01158,0.300582 0.3526,0.300583 0.3526,0.843944 0,0.286131 -0.11272,0.517349 -0.11271,0.231217 -0.28902,0.427752 -0.1763,0.193644 -0.39307,0.364167 -0.21387,0.170523 -0.41619,0.332375 -0.20231,0.161852 -0.36995,0.326595 -0.16474,0.164742 -0.24566,0.352606 l 1.8902,0 0,0.667641 z"
           transform="scale(1.0218307,0.9786357)"
           id="path27"
           style="fill:none;stroke:#e602b4;stroke-width:2;stroke-linejoin:round"
           inkscape:connector-curvature="0" />
        <path
           d="m 173.04921,39 0,-0.551552 q 0.15557,-0.342245 0.44124,-0.667519 0.28851,-0.325274 0.72409,-0.678833 0.41861,-0.339416 0.58549,-0.560037 0.16971,-0.22062 0.16971,-0.432756 0,-0.520438 -0.52327,-0.520438 -0.25456,0 -0.39032,0.138595 -0.13294,0.135766 -0.17254,0.410128 l -0.80046,-0.04526 q 0.0679,-0.55438 0.41296,-0.845712 0.3479,-0.291333 0.94471,-0.291333 0.64489,0 0.98996,0.294161 0.34508,0.294161 0.34508,0.825914 0,0.280018 -0.11031,0.506296 -0.11032,0.226277 -0.28285,0.418613 -0.17254,0.189508 -0.38467,0.356388 -0.20931,0.166879 -0.4073,0.325274 -0.198,0.158394 -0.36205,0.319617 -0.16122,0.161223 -0.24042,0.345073 l 1.84982,0 0,0.653381 z"
           id="path29"
           style="fill:#f3b7d9"
           inkscape:connector-curvature="0" />
      </g>
    </g>
  </g>
</svg>
