<?xml version="1.0" encoding="UTF-8" standalone="no"?>
<svg
   xmlns:dc="http://purl.org/dc/elements/1.1/"
   xmlns:cc="http://creativecommons.org/ns#"
   xmlns:rdf="http://www.w3.org/1999/02/22-rdf-syntax-ns#"
   xmlns:svg="http://www.w3.org/2000/svg"
   xmlns="http://www.w3.org/2000/svg"
   xmlns:sodipodi="http://sodipodi.sourceforge.net/DTD/sodipodi-0.dtd"
   xmlns:inkscape="http://www.inkscape.org/namespaces/inkscape"
   height="16"
   width="16"
   id="svg2"
   version="1.1"
   inkscape:version="0.91 r13725"
   sodipodi:docname="sc_insertspreadsheet.svg"
   inkscape:export-filename="/home/tamara/Desktop/IKON/5_258 (tamara)/sc (222)/Tanggal 7-01/sc_insertspreadsheet.png"
   inkscape:export-xdpi="90"
   inkscape:export-ydpi="90">
  <metadata
     id="metadata24">
    <rdf:RDF>
      <cc:Work
         rdf:about="">
        <dc:format>image/svg+xml</dc:format>
        <dc:type
           rdf:resource="http://purl.org/dc/dcmitype/StillImage" />
      </cc:Work>
    </rdf:RDF>
  </metadata>
  <defs
     id="defs22" />
  <sodipodi:namedview
     pagecolor="#ffffff"
     bordercolor="#666666"
     borderopacity="1"
     objecttolerance="10"
     gridtolerance="10"
     guidetolerance="10"
     inkscape:pageopacity="0"
     inkscape:pageshadow="2"
     inkscape:window-width="1366"
     inkscape:window-height="718"
     id="namedview20"
     showgrid="true"
     inkscape:zoom="29.5"
     inkscape:cx="4.0735833"
     inkscape:cy="8.0719299"
     inkscape:window-x="0"
     inkscape:window-y="0"
     inkscape:window-maximized="1"
     inkscape:current-layer="svg2">
    <inkscape:grid
       type="xygrid"
       id="grid4152" />
  </sodipodi:namedview>
  <linearGradient
     id="a"
     gradientTransform="matrix(1.0769499 0 0 1.3043803 2.256411 -.351998)"
     gradientUnits="userSpaceOnUse"
     x1="46.048"
     x2="46.048"
     y1="128.01709"
     y2="16.6203">
    <stop
       offset="0"
       stop-color="#c7cdd7"
       id="stop5" />
    <stop
       offset="1"
       stop-color="#fff"
       id="stop7" />
  </linearGradient>
  <linearGradient
     id="b"
     gradientUnits="userSpaceOnUse"
     x1="73.775452"
     x2="67.266975"
     y1="210.09914"
     y2="-56">
    <stop
       offset="0"
       id="stop10" />
    <stop
       offset="1"
       stop-color="#fff"
       id="stop12" />
  </linearGradient>
  <g
     id="g4154">
    <g
       id="g14"
       transform="scale(.125)">
      <path
         style="fill:#f0e3ec"
         id="path16"
         fill="url(#a)"
         d="m8 8h112v104.4853h-112z" />
      <path
         style="fill:#9d3a9b"
         id="path18"
         fill="url(#b)"
         d="m0 8v4.707031 19.292969 4 44 4 24.11328 3.88672h8 32 8 32 8 32 8v-3.88672-100.11328h-120zm8 4.707031h32v19.292969h-32zm40 0h32v19.292969h-32zm40 0h32v19.292969h-32zm-80 23.292969h32v20h-32zm40 0h32v20h-32zm40 0h32v20h-32zm-80 24h32v20h-32zm40 0h32v20h-32zm40 0h32v20h-32zm-80 24h32v24.11328h-32zm40 0h32v24.11328h-32zm40 0h32v24.11328h-32z" />
    </g>
  </g>
</svg>
