<?xml version="1.0" encoding="UTF-8" standalone="no"?>
<svg
   xmlns:dc="http://purl.org/dc/elements/1.1/"
   xmlns:cc="http://creativecommons.org/ns#"
   xmlns:rdf="http://www.w3.org/1999/02/22-rdf-syntax-ns#"
   xmlns:svg="http://www.w3.org/2000/svg"
   xmlns="http://www.w3.org/2000/svg"
   xmlns:xlink="http://www.w3.org/1999/xlink"
   xmlns:sodipodi="http://sodipodi.sourceforge.net/DTD/sodipodi-0.dtd"
   xmlns:inkscape="http://www.inkscape.org/namespaces/inkscape"
   height="16"
   width="16"
   id="svg2"
   version="1.1"
   inkscape:version="0.91 r13725"
   sodipodi:docname="sc_insertrows.svg"
   inkscape:export-filename="/home/tamara/Desktop/IKON/5_258 (tamara)/sc (222)/Tanggal 7/sc_insertrows.png"
   inkscape:export-xdpi="90"
   inkscape:export-ydpi="90">
  <metadata
     id="metadata98">
    <rdf:RDF>
      <cc:Work
         rdf:about="">
        <dc:format>image/svg+xml</dc:format>
        <dc:type
           rdf:resource="http://purl.org/dc/dcmitype/StillImage" />
        <dc:title></dc:title>
      </cc:Work>
    </rdf:RDF>
  </metadata>
  <defs
     id="defs96" />
  <sodipodi:namedview
     pagecolor="#ffffff"
     bordercolor="#666666"
     borderopacity="1"
     objecttolerance="10"
     gridtolerance="10"
     guidetolerance="10"
     inkscape:pageopacity="0"
     inkscape:pageshadow="2"
     inkscape:window-width="1366"
     inkscape:window-height="718"
     id="namedview94"
     showgrid="true"
     inkscape:zoom="29.5"
     inkscape:cx="2.0483528"
     inkscape:cy="10.465883"
     inkscape:window-x="0"
     inkscape:window-y="0"
     inkscape:window-maximized="1"
     inkscape:current-layer="svg2">
    <inkscape:grid
       type="xygrid"
       id="grid4226" />
  </sodipodi:namedview>
  <linearGradient
     id="a"
     gradientTransform="matrix(0,1,1,0,-29.34375,-1.70665)"
     gradientUnits="userSpaceOnUse"
     x1="105.70665"
     x2="25.307646"
     xlink:href="#h"
     y1="37.34375"
     y2="37.34375" />
  <linearGradient
     id="b">
    <stop
       offset="0"
       stop-color="#fff"
       id="stop6" />
    <stop
       offset="1"
       stop-color="#fff"
       stop-opacity="0"
       id="stop8" />
  </linearGradient>
  <linearGradient
     id="c"
     gradientTransform="matrix(0.13461874,0,0,0.19565705,0.28205138,-1.6527997)"
     gradientUnits="userSpaceOnUse"
     x1="46.048"
     x2="46.048"
     y1="110.69923"
     y2="16.6203">
    <stop
       offset="0"
       stop-color="#c7cdd7"
       id="stop11" />
    <stop
       offset="1"
       stop-color="#fff"
       id="stop13" />
  </linearGradient>
  <linearGradient
     id="d"
     gradientUnits="userSpaceOnUse"
     x1="67.266975"
     x2="67.266975"
     y1="168.02724"
     y2="-88.020844">
    <stop
       offset="0"
       id="stop16" />
    <stop
       offset="1"
       stop-color="#fff"
       id="stop18" />
  </linearGradient>
  <linearGradient
     id="e"
     gradientUnits="userSpaceOnUse"
     x1="80"
     x2="128.00005"
     xlink:href="#b"
     y1="72"
     y2="72" />
  <mask
     id="f"
     maskUnits="userSpaceOnUse">
    <path
       d="m0 16h128.00005v112h-128.00005z"
       fill="url(#e)"
       id="path22" />
  </mask>
  <linearGradient
     id="g"
     gradientTransform="matrix(0 -1.8212524 1.8212524 0 -26.863118 199.34584)"
     gradientUnits="userSpaceOnUse"
     x1="74.667397"
     x2="74.667397"
     y1="80.639534"
     y2="18.585112">
    <stop
       offset="0"
       stop-color="#0c69ed"
       stop-opacity="0"
       id="stop25" />
    <stop
       offset=".14999999"
       stop-color="#1b77ef"
       id="stop27" />
    <stop
       offset=".5"
       stop-color="#4aa3f6"
       id="stop29" />
    <stop
       offset="1"
       stop-color="#89ddff"
       id="stop31" />
  </linearGradient>
  <linearGradient
     id="h">
    <stop
       offset="0"
       stop-color="#0968ef"
       id="stop34" />
    <stop
       offset="1"
       stop-color="#aecffc"
       id="stop36" />
  </linearGradient>
  <linearGradient
     id="i"
     gradientTransform="matrix(0,-0.125,-0.125,0,8.0000013,23.004437)"
     gradientUnits="userSpaceOnUse"
     x1="113.15723"
     x2="39.268185"
     xlink:href="#h"
     y1="25.786163"
     y2="25.786163" />
  <radialGradient
     id="j"
     cx="343.99899"
     cy="92"
     gradientUnits="userSpaceOnUse"
     r="36">
    <stop
       offset="0"
       stop-color="#96ff00"
       id="stop40" />
    <stop
       offset="1"
       stop-color="#609800"
       id="stop42" />
  </radialGradient>
  <radialGradient
     id="k"
     cx="343.99899"
     cy="92"
     gradientTransform="matrix(0,1,-1,0,-39.9985,140.0029)"
     gradientUnits="userSpaceOnUse"
     r="36">
    <stop
       offset="0"
       stop-color="#e5ff00"
       id="stop45" />
    <stop
       offset="1"
       stop-color="#bff500"
       stop-opacity="0"
       id="stop47" />
  </radialGradient>
  <linearGradient
     id="l"
     gradientTransform="matrix(0,0.7388168,-0.7388168,0,-1.522665,63.255682)"
     gradientUnits="userSpaceOnUse"
     x1="-80.00296"
     x2="-45.096584"
     xlink:href="#b"
     y1="-131.93112"
     y2="-131.93112" />
  <linearGradient
     id="m"
     gradientUnits="userSpaceOnUse"
     x1="96.000008"
     x2="96.000008"
     y1="58"
     y2="5.932847">
    <stop
       offset="0"
       stop-color="#004d00"
       stop-opacity="0"
       id="stop51" />
    <stop
       offset=".5"
       stop-color="#004d00"
       id="stop53" />
    <stop
       offset="1"
       stop-color="#004d00"
       stop-opacity="0"
       id="stop55" />
  </linearGradient>
  <filter
     id="n">
    <feGaussianBlur
       stdDeviation="1.04"
       id="feGaussianBlur58" />
  </filter>
  <g
     id="g4940">
    <g
       id="g4272">
      <path
         d="m 0,2 15.999999,0 0,11 L 0,13 Z"
         id="path64"
         style="fill:#f0e3ec"
         inkscape:connector-curvature="0" />
      <path
         d="m 1.6992187,6 1.9687501,1.9765625 0.00391,0 0.9960937,1 1.0273438,0 -1.0039063,-1 L 3.7148438,7 l -1,-1 z m 2.4960938,0 1,1 0.9765625,0.9765625 0.9960937,1 1.0312501,0 -1.0039063,-1 L 6.21875,7 l -1,-1 z m 2.2773437,0 1,1 0.9765626,0.9765625 1,1 1.0234372,0 -1.003906,-1 L 8.4921875,7 l -1,-1 z m 2.5039063,0 1,1 0.9765625,0.9765625 1,1 1.023438,0 -1.003907,-1 L 9.9921875,6 Z m 2.5039065,0 1,1 0.976562,0.9765625 0.996094,1 1.03125,0 -1.003906,-1 L 12.5,6 Z m 2.277344,0 1,1 0.0078,0.011719 c 0.0079,0.00912 0.01712,0.017019 0.02734,0.023437 l 1.164414,1.1443506 c 0.06795,0.072355 0.02427,-0.158498 0.01918,-0.257632 l 0,-0.6679688 c 0.0022,-0.034319 -0.01094,-0.069333 -0.03516,-0.09375 l 0.0077,0.031602 c 0,0 0.02746,0.062148 -0.01368,-0.030186 L 14.856716,6.0381787 c 0,0 -0.08249,0.026915 -0.107069,0.00213 L 14.78125,6 Z m -12.7812505,0.7734375 0,1.0195312 0.1015625,0.1054688 0.078125,0.078125 1,1 1.03125,0 -1.0078125,-1 0.00781,0 z"
         id="path66"
         style="fill:#e602b4"
         inkscape:connector-curvature="0"
         sodipodi:nodetypes="cccccccccccccccccccccccccccccccccccccccccccccccccccccccccccccccccc" />
      <path
         d="M 0,2 0,2.5 0,5 0,5.5 0,9 0,9.5 0,12 0,12.5 0,12.789063 0,13 16,13 16,5 16,2 1,2 Z m 0.625,1 3.75,0 0,2 -3.75,0 z M 5,3 8.375,3 8.375,5 5,5 Z m 4,0 7,0 0,2 -7,0 z m -8.375,3 3.75,0 0,3 -3.75,0 z M 5,6 8.375,6 8.375,9 5,9 Z m 4,0 7,0 0,3 -7,0 z m -8.375,4 3.75,0 0,2 -3.75,0 z M 5,10 l 3.375,0 0,2 L 5,12 Z m 4,0 7,0 0,2 -7,0 z m -8.375,3 3.75,0 z M 5,13 8.375,13 Z m 4,0 7,0 z"
         id="path68"
         style="fill:#9d3a9b"
         inkscape:connector-curvature="0" />
      <g
         id="g70"
         style="fill:url(#a)"
         transform="matrix(0.125,0,0,0.125,0,-1)">
        <path
           d="m 0,48 128,0 0,8 -120,0 0,48 120,0 0,8 -128,0 z"
           id="path72"
           style="fill:#e602b4"
           inkscape:connector-curvature="0" />
        <path
           d="m 0,48 128,0 0,8 -120,0 0,24 120,0 0,8 -128,0 z"
           id="path74"
           style="fill:#e602b4"
           inkscape:connector-curvature="0" />
      </g>
      <g
         id="g4256"
         transform="translate(-0.02441353,-0.98100001)">
        <path
           d="m 7.9765638,12.383342 c -5e-4,0.254536 -0.1053863,0.507306 -0.2851563,0.6875 l -0.4960937,0.496094 c -0.3118126,0.312993 -0.8468401,0.371297 -1.2187513,0.132813 l 0,2.304689 C 5.9766588,16.515791 5.5113538,16.981096 5,16.981 l -1,0 c -0.5113537,9.6e-5 -0.9766587,-0.465209 -0.9765625,-0.976563 l 0,-2.29297 C 2.6612625,13.927886 2.158035,13.872531 1.8515625,13.582561 L 1.328125,13.086467 C 1.15065,12.917807 1.0403612,12.680294 1.0260262,12.43588 1.0116912,12.191465 1.0934575,11.942689 1.25,11.754436 L 3.75,8.7544366 C 3.9325312,8.5354521 4.2149175,8.4032104 4.5,8.4032104 c 0.2850825,0 0.5674687,0.1322417 0.75,0.3512262 l 2.5000013,2.9999994 c 0.1456662,0.17465 0.2273837,0.401486 0.2265625,0.628906 z"
           id="path76"
           inkscape:connector-curvature="0"
           style="opacity:1;fill:#9d3a9b;fill-rule:evenodd" />
        <path
           d="M 4.5,9.4849415 7.0000013,12.484941 6.5031463,12.981796 5,12.006954 5,16 4,16 4,12.006954 2.5220125,12.981796 2,12.484941 Z"
           id="path78"
           style="fill:#f0e3ec;fill-rule:evenodd"
           inkscape:connector-curvature="0" />
      </g>
      <g
         transform="matrix(2.9396324,0,0,2.9396324,9,-1.1339362e-7)"
         id="g4205">
        <circle
           r="1.1906251"
           cy="1.1906251"
           cx="1.1906251"
           id="path4253"
           style="opacity:1;fill:#9d3a9b;fill-opacity:1;fill-rule:nonzero;stroke:none;stroke-width:5;stroke-linecap:round;stroke-linejoin:round;stroke-miterlimit:4;stroke-dasharray:none;stroke-dashoffset:0;stroke-opacity:1" />
        <rect
           ry="0"
           rx="0"
           y="0.13229167"
           x="0.9921875"
           height="2.116667"
           width="0.39687517"
           id="rect4245"
           style="opacity:1;fill:#f3b7d9;fill-opacity:1;fill-rule:nonzero;stroke:none;stroke-width:5;stroke-linecap:round;stroke-linejoin:round;stroke-miterlimit:4;stroke-dasharray:none;stroke-dashoffset:0;stroke-opacity:1" />
        <rect
           transform="matrix(0,1,-1,0,0,0)"
           style="opacity:1;fill:#f3b7d9;fill-opacity:1;fill-rule:nonzero;stroke:none;stroke-width:5;stroke-linecap:round;stroke-linejoin:round;stroke-miterlimit:4;stroke-dasharray:none;stroke-dashoffset:0;stroke-opacity:1"
           id="rect4249"
           width="0.39687517"
           height="2.1166666"
           x="0.9921875"
           y="-2.2489583"
           rx="0"
           ry="0" />
      </g>
    </g>
  </g>
</svg>
