<?xml version="1.0" encoding="UTF-8" standalone="no"?>
<svg
   xmlns:dc="http://purl.org/dc/elements/1.1/"
   xmlns:cc="http://creativecommons.org/ns#"
   xmlns:rdf="http://www.w3.org/1999/02/22-rdf-syntax-ns#"
   xmlns:svg="http://www.w3.org/2000/svg"
   xmlns="http://www.w3.org/2000/svg"
   xmlns:sodipodi="http://sodipodi.sourceforge.net/DTD/sodipodi-0.dtd"
   xmlns:inkscape="http://www.inkscape.org/namespaces/inkscape"
   height="16"
   width="16"
   id="svg2"
   version="1.1"
   inkscape:version="0.91 r13725"
   sodipodi:docname="sc_interactivetransparence.svg"
   inkscape:export-filename="/home/tamara/Desktop/IKON/5_258 (tamara)/sc (222)/Tanggal 7-01/sc_interactivetransparence.png"
   inkscape:export-xdpi="90"
   inkscape:export-ydpi="90">
  <metadata
     id="metadata45">
    <rdf:RDF>
      <cc:Work
         rdf:about="">
        <dc:format>image/svg+xml</dc:format>
        <dc:type
           rdf:resource="http://purl.org/dc/dcmitype/StillImage" />
      </cc:Work>
    </rdf:RDF>
  </metadata>
  <defs
     id="defs43" />
  <sodipodi:namedview
     pagecolor="#ffffff"
     bordercolor="#666666"
     borderopacity="1"
     objecttolerance="10"
     gridtolerance="10"
     guidetolerance="10"
     inkscape:pageopacity="0"
     inkscape:pageshadow="2"
     inkscape:window-width="1366"
     inkscape:window-height="718"
     id="namedview41"
     showgrid="true"
     inkscape:zoom="20.85965"
     inkscape:cx="3.0206276"
     inkscape:cy="7.2652848"
     inkscape:window-x="0"
     inkscape:window-y="0"
     inkscape:window-maximized="1"
     inkscape:current-layer="svg2">
    <inkscape:grid
       type="xygrid"
       id="grid4173" />
  </sodipodi:namedview>
  <linearGradient
     id="a"
     gradientUnits="userSpaceOnUse"
     x1="7.5"
     x2="112.5"
     y1="7.5"
     y2="112.5"
     gradientTransform="scale(0.125,0.125)">
    <stop
       offset="0"
       stop-color="#0968ef"
       id="stop5"
       style="stop-color:#e602b4;stop-opacity:1" />
    <stop
       offset="1"
       stop-color="#aecffc"
       stop-opacity="0"
       id="stop7" />
  </linearGradient>
  <g
     id="g4190">
    <path
       d="m 10,4.75e-6 5,0 L 15,5 10,5 Z"
       id="path15"
       style="fill:#f0e3ec"
       inkscape:connector-curvature="0" />
    <path
       d="M 5.0000005,0 10,0 10,5 5.0000005,5 Z"
       id="path11"
       style="fill:#f3b7d9"
       inkscape:connector-curvature="0" />
    <path
       d="m 5.0000005,10.000005 4.9999995,0 0,5 -4.9999995,0 z"
       id="path17"
       style="fill:#f3b7d9"
       inkscape:connector-curvature="0" />
    <path
       d="m 10,5 5,0 0,5 -5,0 z"
       id="path23"
       style="fill:#f3b7d9"
       inkscape:connector-curvature="0" />
    <path
       d="m 0,5 4.9999995,0 0,5 L 0,10 Z"
       id="path27"
       style="fill:#f3b7d9"
       inkscape:connector-curvature="0" />
    <path
       d="m 0,0 5,0 0,4.9999952 -5,0 z"
       id="path13"
       style="fill:#f0e3ec"
       inkscape:connector-curvature="0" />
    <path
       d="m 0,10.000005 5,0 L 5,15 0,15 Z"
       id="path19"
       style="fill:#f0e3ec"
       inkscape:connector-curvature="0" />
    <path
       d="m 10,10.00001 5,0 0,4.999995 -5,0 z"
       id="path21"
       style="fill:#f0e3ec"
       inkscape:connector-curvature="0" />
    <path
       d="m 5,5 5,0 0,4.9999953 -5,0 z"
       id="path25"
       style="fill:#f0e3ec"
       inkscape:connector-curvature="0" />
    <path
       d="M 0,0 15,0 15,15 0,15 Z"
       id="path29"
       style="fill:url(#a)"
       inkscape:connector-curvature="0" />
    <path
       d="M 1.636039,2.3431458 2.3431458,1.636039 14.363962,13.656855 13.656855,14.363962 Z"
       id="path31"
       inkscape:connector-curvature="0"
       style="fill:#9d3a9b" />
    <path
       d="m 11,11 4,0 0,4 -4,0 z"
       id="path33"
       inkscape:connector-curvature="0"
       style="fill:#9d3a9b" />
    <path
       d="m 12,12 2,0 0,2 -2,0 z"
       id="path35"
       inkscape:connector-curvature="0"
       style="fill:#f0e3ec" />
    <path
       d="M 0,0 4,0 4,4 0,4 Z"
       id="path37"
       inkscape:connector-curvature="0"
       style="fill:#9d3a9b" />
    <path
       d="M 1,1 3,1 3,3 1,3 Z"
       id="path39"
       inkscape:connector-curvature="0"
       style="fill:#f0e3ec" />
  </g>
</svg>
