<?xml version="1.0" encoding="UTF-8" standalone="no"?>
<svg
   xmlns:dc="http://purl.org/dc/elements/1.1/"
   xmlns:cc="http://creativecommons.org/ns#"
   xmlns:rdf="http://www.w3.org/1999/02/22-rdf-syntax-ns#"
   xmlns:svg="http://www.w3.org/2000/svg"
   xmlns="http://www.w3.org/2000/svg"
   xmlns:xlink="http://www.w3.org/1999/xlink"
   xmlns:sodipodi="http://sodipodi.sourceforge.net/DTD/sodipodi-0.dtd"
   xmlns:inkscape="http://www.inkscape.org/namespaces/inkscape"
   height="16"
   viewBox="0 0 4.2333333 4.2333335"
   width="16"
   id="svg2"
   version="1.1"
   inkscape:version="0.91 r13725"
   sodipodi:docname="sc_insertformula.svg"
   inkscape:export-filename="/home/tamara/Desktop/IKON/5_258 (tamara)/sc (222)/Tanggal 25/sc_insertformula.png"
   inkscape:export-xdpi="90"
   inkscape:export-ydpi="90">
  <metadata
     id="metadata27">
    <rdf:RDF>
      <cc:Work
         rdf:about="">
        <dc:format>image/svg+xml</dc:format>
        <dc:type
           rdf:resource="http://purl.org/dc/dcmitype/StillImage" />
      </cc:Work>
    </rdf:RDF>
  </metadata>
  <defs
     id="defs25" />
  <sodipodi:namedview
     pagecolor="#ffffff"
     bordercolor="#666666"
     borderopacity="1"
     objecttolerance="10"
     gridtolerance="10"
     guidetolerance="10"
     inkscape:pageopacity="0"
     inkscape:pageshadow="2"
     inkscape:window-width="1366"
     inkscape:window-height="718"
     id="namedview23"
     showgrid="true"
     inkscape:zoom="14.75"
     inkscape:cx="-3.2542373"
     inkscape:cy="8"
     inkscape:window-x="0"
     inkscape:window-y="0"
     inkscape:window-maximized="1"
     inkscape:current-layer="svg2">
    <inkscape:grid
       type="xygrid"
       id="grid4155" />
  </sodipodi:namedview>
  <linearGradient
     id="a">
    <stop
       offset="0"
       stop-color="#555"
       id="stop5" />
    <stop
       offset="1"
       id="stop7" />
  </linearGradient>
  <linearGradient
     id="b"
     gradientUnits="userSpaceOnUse"
     x1="21.34454"
     x2="27.9718"
     xlink:href="#a"
     y1="288.04095"
     y2="269.6004" />
  <linearGradient
     id="c"
     gradientUnits="userSpaceOnUse"
     x1="15.093026"
     x2="25.320713"
     xlink:href="#a"
     y1="292.12253"
     y2="263.66364" />
  <g
     transform="matrix(.125 0 0 .125 -.039717 -32.949346)"
     id="g11"
     style="fill:#9d3a9b;stroke:#e602b4;stroke-width:0.52916669;stroke-miterlimit:4;stroke-dasharray:none;stroke-linejoin:round;stroke-linecap:round">
    <path
       d="m16.408342 269.09104q0-.39282.241734-.78564.241735-.42303.241735-.48347 0-.39282-.513686-.39282-1.601492 0-2.749731 4.50231l-.543902 2.14539h2.779947l-.271952 1.26911h-2.719513q-1.873443 8.67223-2.598647 11.08957-1.6014909 5.34838-3.9886195 6.76857-1.0878054.63455-2.4475622.63455-1.3597568 0-2.1756109-.66477-.81585409-.63455-.81585409-1.72236 0-.66477.48346909-1.14823.4532523-.48347 1.0878054-.48347.5741196 0 1.0273718.45325.4532523.45325.4532523.99715 0 .42304-.2417345.81586-.2417346.39282-.2417346.48347 0 .33238.5439027.33238 1.0878055 0 1.6317082-1.63171.5741196-1.60149 2.0547436-8.33984.997155-4.56274 1.6921418-7.58442h-2.2058277l.2719514-1.26911h2.2058277q.4532525-1.6317.9669385-2.81016.513686-1.17846 1.299323-2.3267.785637-1.17845 1.933876-1.78279 1.148239-.60433 2.628863-.60433 1.359757 0 2.175611.66477.815854.63455.815854 1.75257 0 .69499-.453252 1.14824-.423035.45325-1.087805.45325-.604337 0-1.057589-.42303-.423035-.45325-.423035-1.05759z"
       fill="url(#c)"
       stroke-width=".75542"
       id="path13"
       style="fill:#9d3a9b;stroke:#e602b4;stroke-width:0.52916669;stroke-miterlimit:4;stroke-dasharray:none;stroke-linejoin:round;stroke-linecap:round" />
    <g
       fill="url(#b)"
       stroke-width=".489492"
       id="g15"
       style="fill:#9d3a9b;stroke:#e602b4;stroke-width:0.52916669;stroke-miterlimit:4;stroke-dasharray:none;stroke-linejoin:round;stroke-linecap:round">
      <path
         d="m20.708774 272.11865q-.665709.60697-1.135621 1.13562-.469912.50907-1.135621 1.50763-.646129.97899-1.057302 2.05587-.411173 1.0573-.724448 2.68241-.293695 1.62512-.293695 3.48519 0 1.70343.293695 2.81947.293696 1.13562 1.096462 2.54536l-.450332.29369q-1.488055-2.03629-2.134184-3.77888-.64613-1.76217-.64613-3.77887 0-.82235.137058-1.60553.137058-.78319.313275-1.40974.195797-.64613.548231-1.29226.352434-.64613.626549-1.09646.293695-.46991.763607-.99856.469912-.52866.744028-.82235.293695-.2937.802766-.70487.528651-.43075.724448-.58739.215376-.15664.665709-.46991.469912-.33285.509071-.37201z"
         id="path17"
         style="fill:#9d3a9b;stroke:#e602b4;stroke-width:0.52916669;stroke-miterlimit:4;stroke-dasharray:none;stroke-linejoin:round;stroke-linecap:round" />
      <path
         d="m28.1186 278.3254q-.215376 0-.60697-.19579-.391593-.1958-.509071-.1958-.274115 0-.567811.25454-.293695.23495-.489491.48949-.195797.25453-.450333.64613-.234956.39159-.293695.46991l.62655 3.05443q.215376 1.03772.724447 1.03772.254536 0 .489492-.1958.254536-.21537.822346-.9594l.411173.27412q-.900664 1.29225-1.585953 1.84048-.665709.54824-1.370577.54824-.783187 0-1.19436-.72445-.391593-.74403-.704868-2.3104l-.469912.7636q-.841926 1.40974-1.331417 1.84049-.489492.43076-1.23352.43076-.54823 0-.900664-.31328-.352434-.33285-.352434-.84193 0-.45033.313274-.7636.313275-.33286.763607-.33286.293695 0 .685289.21538.391593.1958.509071.1958.254536 0 .450333-.15664.195796-.17622.489491-.64613l.861506-1.37058-.58739-3.01527q-.156638-.72444-.391594-1.01814-.234956-.29369-.704868-.29369-.274115 0-.685288.0392v-.52866l3.269805-.46991q.450332.66571.881085 2.702 1.17478-1.62512 1.78175-2.15377.626549-.54823 1.311838-.54823.450332 0 .783187.37202.352434.35243.352434.84192 0 .41117-.332855.72445-.313275.29369-.763607.29369z"
         id="path19"
         style="fill:#9d3a9b;stroke:#e602b4;stroke-width:0.52916669;stroke-miterlimit:4;stroke-dasharray:none;stroke-linejoin:round;stroke-linecap:round" />
      <path
         d="m30.762306 271.72706q1.370577 1.87964 2.075445 3.64181.724448 1.76217.724448 3.91594 0 1.07688-.254536 2.1146-.234956 1.03773-.56781 1.80133-.313275.76361-.920245 1.58596-.58739.80276-.978983 1.25309-.391594.45034-1.116041 1.05731-.704869.62655-.959404.80276-.234956.17622-.822346.58739-.156638.11748-.215377.15664l-.332854-.39159q1.116041-1.03773 1.683851-1.74259.567811-.70487 1.037723-1.6447.724448-1.46847 1.1552-3.52434.450333-2.05586.450333-4.01383 0-1.66427-.313275-2.81947-.293695-1.1552-1.096461-2.48662z"
         id="path21"
         style="fill:#9d3a9b;stroke:#e602b4;stroke-width:0.52916669;stroke-miterlimit:4;stroke-dasharray:none;stroke-linejoin:round;stroke-linecap:round" />
    </g>
  </g>
</svg>
