<?xml version="1.0" encoding="UTF-8" standalone="no"?>
<svg
   xmlns:dc="http://purl.org/dc/elements/1.1/"
   xmlns:cc="http://creativecommons.org/ns#"
   xmlns:rdf="http://www.w3.org/1999/02/22-rdf-syntax-ns#"
   xmlns:svg="http://www.w3.org/2000/svg"
   xmlns="http://www.w3.org/2000/svg"
   xmlns:sodipodi="http://sodipodi.sourceforge.net/DTD/sodipodi-0.dtd"
   xmlns:inkscape="http://www.inkscape.org/namespaces/inkscape"
   height="16"
   viewBox="0 0 4.2333333 4.2333335"
   width="16"
   id="svg2"
   version="1.1"
   inkscape:version="0.91 r13725"
   sodipodi:docname="sc_insertcolumnbreak2.svg"
   inkscape:export-filename="/home/tamara/Desktop/IKON/5_258 (tamara)/sc (222)/Tanggal 24/sc_insertcolumnbreak2.png"
   inkscape:export-xdpi="90"
   inkscape:export-ydpi="90">
  <metadata
     id="metadata99">
    <rdf:RDF>
      <cc:Work
         rdf:about="">
        <dc:format>image/svg+xml</dc:format>
        <dc:type
           rdf:resource="http://purl.org/dc/dcmitype/StillImage" />
      </cc:Work>
    </rdf:RDF>
  </metadata>
  <defs
     id="defs97" />
  <sodipodi:namedview
     pagecolor="#ffffff"
     bordercolor="#666666"
     borderopacity="1"
     objecttolerance="10"
     gridtolerance="10"
     guidetolerance="10"
     inkscape:pageopacity="0"
     inkscape:pageshadow="2"
     inkscape:window-width="1366"
     inkscape:window-height="718"
     id="namedview95"
     showgrid="true"
     inkscape:zoom="29.5"
     inkscape:cx="6.2743928"
     inkscape:cy="7.7475024"
     inkscape:window-x="0"
     inkscape:window-y="0"
     inkscape:window-maximized="1"
     inkscape:current-layer="svg2">
    <inkscape:grid
       type="xygrid"
       id="grid4227" />
  </sodipodi:namedview>
  <linearGradient
     id="a"
     gradientUnits="userSpaceOnUse"
     x1="2.116667"
     x2="2.116667"
     y1="22.225001"
     y2="9.525001">
    <stop
       offset="0"
       stop-color="#06f"
       id="stop5" />
    <stop
       offset="1"
       stop-color="#80b3ff"
       id="stop7" />
  </linearGradient>
  <linearGradient
     id="b"
     gradientTransform="matrix(-0.10576925,0,0,-0.15810455,3.907692,46.942049)"
     gradientUnits="userSpaceOnUse"
     x1="-5.580285"
     x2="41.94849"
     y1="297.74185"
     y2="264.27243">
    <stop
       offset="0"
       stop-color="#cccdcf"
       id="stop10" />
    <stop
       offset=".11366145"
       stop-color="#e0e0e1"
       id="stop12" />
    <stop
       offset=".20296694"
       stop-color="#f2f2f2"
       id="stop14" />
    <stop
       offset=".21468808"
       stop-color="#fafafa"
       id="stop16" />
    <stop
       offset=".21468808"
       stop-color="#fff"
       id="stop18" />
    <stop
       offset=".63157898"
       stop-color="#fafafa"
       id="stop20" />
    <stop
       offset=".8449"
       stop-color="#ebecec"
       id="stop22" />
    <stop
       offset="1"
       stop-color="#e1e2e3"
       id="stop24" />
  </linearGradient>
  <filter
     id="c"
     color-interpolation-filters="sRGB"
     height="1.0264"
     width="1.022"
     x="-.011"
     y="-.0132">
    <feGaussianBlur
       stdDeviation=".1200918"
       id="feGaussianBlur27" />
  </filter>
  <filter
     id="d"
     color-interpolation-filters="sRGB"
     height="1.132"
     width="1.11"
     x="-.055"
     y="-.066">
    <feGaussianBlur
       stdDeviation=".600459"
       id="feGaussianBlur30" />
  </filter>
  <filter
     id="e"
     color-interpolation-filters="sRGB"
     height="1.0528"
     width="1.044"
     x="-.022"
     y="-.0264">
    <feGaussianBlur
       stdDeviation=".2401836"
       id="feGaussianBlur33" />
  </filter>
  <g
     id="g4259">
    <rect
       y="0.26458335"
       x="0.13229167"
       height="3.96875"
       width="3.96875"
       id="rect4231"
       style="opacity:1;fill:#9d3a9b;fill-opacity:1;fill-rule:nonzero;stroke:none;stroke-width:0.25;stroke-linecap:round;stroke-linejoin:round;stroke-miterlimit:4;stroke-dasharray:none;stroke-dashoffset:0;stroke-opacity:1" />
    <rect
       y="0.39687502"
       x="0.26458335"
       height="3.7041667"
       width="3.7041667"
       id="rect4229"
       style="opacity:1;fill:#f0e3ec;fill-opacity:1;fill-rule:nonzero;stroke:none;stroke-width:0.06614584;stroke-linecap:round;stroke-linejoin:round;stroke-miterlimit:4;stroke-dasharray:none;stroke-dashoffset:0;stroke-opacity:1" />
    <path
       d="m 3.5718745,3.704168 -2.9104175,0 0,-2.91041625 2.9104175,0 z"
       id="path45"
       style="opacity:0.98999999;fill:#f3b7d9"
       inkscape:connector-curvature="0" />
    <g
       transform="matrix(0.125,0,0,0.125,-2e-6,-32.759372)"
       id="g47"
       style="fill:#9d3a9b">
      <path
         style="fill:#9d3a9b"
         d="m 29.633342,292.76665 -1.05833,0 0,-25.4 1.05833,0 z"
         id="path49"
         inkscape:connector-curvature="0" />
      <path
         style="fill:#9d3a9b"
         d="m 5.291682,292.76665 -1.05834,0 0,-25.4 1.05834,0 z"
         id="path51"
         inkscape:connector-curvature="0" />
      <path
         style="fill:#9d3a9b"
         d="m 28.574999,286.41666 0,1.05833 -23.2833295,0 0,-1.05833 z"
         id="path53"
         inkscape:connector-curvature="0" />
      <path
         style="fill:#9d3a9b"
         d="m 29.633332,267.36665 0,1.05833 -25.3999988,0 0,-1.05833 z"
         id="path55"
         inkscape:connector-curvature="0" />
      <path
         style="fill:#9d3a9b"
         d="m 29.633332,272.65832 0,1.05833 -25.399998,0 0,-1.05833 z"
         id="path57"
         inkscape:connector-curvature="0" />
      <path
         style="fill:#9d3a9b"
         d="m 29.633332,276.89165 0,1.05833 -25.3999972,0 0,-1.05833 z"
         id="path59"
         inkscape:connector-curvature="0" />
      <path
         style="fill:#9d3a9b"
         d="m 29.633332,281.12499 0,1.05833 -25.3999964,0 0,-1.05833 z"
         id="path61"
         inkscape:connector-curvature="0" />
      <path
         style="fill:#9d3a9b"
         d="m 28.574999,291.70832 0,1.05833 -23.2833298,0 0,-1.05833 z"
         id="path63"
         inkscape:connector-curvature="0" />
      <path
         style="fill:#9d3a9b"
         d="m 9.5250064,292.76665 -1.05834,0 0,-25.4 1.05834,0 z"
         id="path65"
         inkscape:connector-curvature="0" />
      <path
         style="fill:#9d3a9b"
         d="m 13.75834,292.76665 -1.05834,0 0,-25.4 1.05834,0 z"
         id="path67"
         inkscape:connector-curvature="0" />
      <path
         style="fill:#9d3a9b"
         d="m 19.050006,292.76665 -1.05834,0 0,-25.4 1.05834,0 z"
         id="path69"
         inkscape:connector-curvature="0" />
      <path
         style="fill:#9d3a9b"
         d="m 24.341673,292.76665 -1.05834,0 0,-25.4 1.05834,0 z"
         id="path71"
         inkscape:connector-curvature="0" />
    </g>
    <g
       transform="matrix(0,0.125,-0.125,0,36.72812,-0.264582)"
       id="g73"
       style="fill:#258aff;fill-rule:evenodd">
      <path
         style="fill:#e602b4"
         d="m 8.4666713,279.00832 0,2.11667 4.2333327,0 0,-2.11667 z"
         id="path75"
         inkscape:connector-curvature="0" />
      <path
         style="fill:#e602b4"
         d="m 13.758337,279.00832 0,2.11667 3.175001,0 0,-2.11667 z"
         id="path77"
         inkscape:connector-curvature="0" />
      <path
         style="fill:#e602b4"
         d="m 17.991671,279.00832 0,2.11667 3.174999,0 0,-2.11667 z"
         id="path79"
         inkscape:connector-curvature="0" />
      <path
         style="fill:#e602b4"
         d="m 22.225003,279.00832 0,2.11667 4.233334,0 0,-2.11667 z"
         id="path81"
         inkscape:connector-curvature="0" />
      <path
         style="fill:#e602b4"
         d="m 27.51667,279.00831 0,2.11667 4.233333,1e-5 0,-2.11667 z"
         id="path83"
         inkscape:connector-curvature="0" />
      <path
         d="m 5.2916664,280.06664 0,2.11667 2.1166666,0 0,-2.11667 z"
         id="path85"
         inkscape:connector-curvature="0" />
      <path
         style="fill:#e602b4"
         d="m 32.808336,279.00832 0,2.11667 2.116667,0 0,-2.11667 z"
         id="path87"
         inkscape:connector-curvature="0" />
    </g>
    <g
       id="g89"
       transform="matrix(0 .125 -.125 0 3.704168 0)">
      <path
         style="fill:#e602b4"
         id="path91"
         d="m8.4666671 15.875001c-2.2163347 1.439211-6.2503322 4.910787-8.4666667 6.349999v-12.7000002c2.2163345 1.4392122 6.2503323 4.9107892 8.4666667 6.3500012z"
         fill="url(#a)" />
      <path
         style="fill:#f3b7d9"
         id="path93"
         transform="matrix(.26458334 0 0 .26458334 0 -1.058333)"
         d="m8 56.052734v15.894532c3.497188-2.745361 6.765701-5.232021 10.330078-7.947266-3.564377-2.715245-6.83289-5.201905-10.330078-7.947266z"
         fill="#bfd9ff" />
    </g>
  </g>
</svg>
