<?xml version="1.0" encoding="UTF-8" standalone="no"?>
<svg
   xmlns:dc="http://purl.org/dc/elements/1.1/"
   xmlns:cc="http://creativecommons.org/ns#"
   xmlns:rdf="http://www.w3.org/1999/02/22-rdf-syntax-ns#"
   xmlns:svg="http://www.w3.org/2000/svg"
   xmlns="http://www.w3.org/2000/svg"
   xmlns:sodipodi="http://sodipodi.sourceforge.net/DTD/sodipodi-0.dtd"
   xmlns:inkscape="http://www.inkscape.org/namespaces/inkscape"
   height="16"
   viewBox="0 0 4.2333333 4.2333335"
   width="16"
   id="svg2"
   version="1.1"
   inkscape:version="0.92.4 (unknown)"
   sodipodi:docname="sc_insertsymbol.svg"
   inkscape:export-filename="/home/tamara/Desktop/IKON/5_258 (tamara)/sc (222)/Tanggal 7-01/sc_insertsymbol.png"
   inkscape:export-xdpi="90"
   inkscape:export-ydpi="90">
  <metadata
     id="metadata22">
    <rdf:RDF>
      <cc:Work
         rdf:about="">
        <dc:format>image/svg+xml</dc:format>
        <dc:type
           rdf:resource="http://purl.org/dc/dcmitype/StillImage" />
      </cc:Work>
    </rdf:RDF>
  </metadata>
  <defs
     id="defs20" />
  <sodipodi:namedview
     pagecolor="#ffffff"
     bordercolor="#666666"
     borderopacity="1"
     objecttolerance="10"
     gridtolerance="10"
     guidetolerance="10"
     inkscape:pageopacity="0"
     inkscape:pageshadow="2"
     inkscape:window-width="1366"
     inkscape:window-height="707"
     id="namedview18"
     showgrid="true"
     inkscape:zoom="41.7193"
     inkscape:cx="7.5723738"
     inkscape:cy="1.9991212"
     inkscape:window-x="0"
     inkscape:window-y="0"
     inkscape:window-maximized="1"
     inkscape:current-layer="svg2"
     inkscape:snap-global="false">
    <inkscape:grid
       type="xygrid"
       id="grid4150" />
  </sodipodi:namedview>
  <linearGradient
     id="a"
     gradientUnits="userSpaceOnUse"
     x1="64"
     x2="64"
     y1="-263.133321"
     y2="-183.13332">
    <stop
       offset="0"
       stop-color="#3b3e22"
       id="stop5" />
    <stop
       offset="1"
       stop-color="#454545"
       stop-opacity="0"
       id="stop7" />
  </linearGradient>
  <linearGradient
     id="b"
     gradientTransform="matrix(1.0122175 0 0 1.0122174 0 -266.70825)"
     gradientUnits="userSpaceOnUse"
     x1="15.712173"
     x2="16.933331"
     y1="294.72055"
     y2="266.63391">
    <stop
       offset="0"
       stop-color="#555"
       id="stop10" />
    <stop
       offset="1"
       id="stop12" />
  </linearGradient>
  <g
     id="g4152"
     style="fill:#e602b4;stroke-width:1.16546857"
     transform="matrix(0.85802396,0,0,0.85802396,0.29593182,0.29965633)">
    <path
       style="fill:#e602b4;stroke-width:1.19784892"
       id="path14"
       transform="scale(0.12349125,0.12652719)"
       d="m 2.192949,24.740468 h 1.0383051 q 0.086525,1.557457 0.908517,2.336186 0.8219916,0.778729 2.5525002,0.778729 h 5.6674157 l -0.04326,-1.860297 Q 10.888755,25.692247 9.3745596,24.870256 7.9036273,24.048264 6.5192204,22.70712 5.1780763,21.322713 4.312822,19.20284 3.4475677,17.039705 3.4475677,14.530467 q 0,-5.2347883 3.8503816,-8.8255936 3.8503817,-3.5908053 10.0369497,-3.5908053 5.970255,0 9.777373,3.3744917 3.807119,3.331229 3.807119,8.8688562 0,4.369534 -2.336186,7.441187 -2.292924,3.02839 -6.359619,4.196483 l -0.216314,1.860297 h 5.797204 q 3.244703,0 3.331229,-3.114915 h 1.038305 l -0.259576,6.619195 H 20.146975 l 0.562416,-6.359619 q 5.278051,-1.687246 5.278051,-10.080212 0,-3.201441 -0.865254,-5.5376279 Q 24.256933,7.0460175 22.829264,5.8779242 21.444857,4.7098309 20.06045,4.1906784 18.676043,3.6715258 17.248374,3.6715258 q -3.98017,0 -6.446145,3.0716527 -2.4227119,3.0716527 -2.4227119,7.8738145 0,8.392966 5.4078389,10.383051 l 0.432628,6.359619 H 2.4525253 Z"
       inkscape:connector-curvature="0" />
    <path
       style="opacity:0.75;fill:#e602b4;stroke-width:1.35831702"
       id="path16"
       transform="scale(0.03307292)"
       d="m 89.46875,19.771484 c 3.836001,3.640679 6.861705,8.400363 9.013672,14.353516 2.411388,6.670815 3.542968,14.329673 3.542968,22.955078 0,2.740965 -0.10365,5.365057 -0.31055,7.882813 a 88.000004,48.000002 0 0 0 8.31055,-3.09961 c 0.28823,-2.207252 0.43945,-4.513291 0.43945,-6.935547 0,-12.951404 -4.06858,-22.511114 -12.515621,-30.083984 a 4.9868032,5.1094001 0 0 1 -0.0293,-0.02148 C 95.45139,22.580456 92.339551,21.367088 89.46875,19.771484 Z m -49.650391,0.06641 c -3.145855,1.758966 -6.508714,3.185528 -9.166015,5.724609 -8.70104,8.313941 -12.792969,17.931874 -12.792969,30.029297 0,4.274976 0.528487,8.25905 1.564453,12.011719 a 88.000004,48.000002 0 0 0 7.853516,1.710937 C 26.615952,65.1755 26.296875,60.712068 26.296875,55.921875 c 0,-13.108109 3.310859,-24.432035 10.123047,-33.28125 a 4.9868032,5.1094001 0 0 1 0.0293,-0.03711 c 0.946147,-1.207505 2.321331,-1.711305 3.36914,-2.765625 z"
       inkscape:connector-curvature="0" />
  </g>
  <g
     transform="matrix(0.2317977,0,0,0.2317977,0.28868137,0.33947299)"
     id="g911"
     style="stroke-width:1.14144075">
    <circle
       style="opacity:1;fill:#f3b7d9;fill-opacity:1;fill-rule:evenodd;stroke:#9d3a9b;stroke-width:1.14144075;stroke-linecap:round;stroke-linejoin:round;stroke-miterlimit:4;stroke-dasharray:none;stroke-opacity:1;paint-order:markers fill stroke"
       id="path891"
       cx="11.69094"
       cy="11.443166"
       r="3.6015363" />
    <g
       id="g883"
       style="fill:#e602b4;stroke:#e602b4;stroke-width:1.93037784"
       transform="matrix(0.59130433,0,0,0.59130433,4.871329,4.7553919)">
      <path
         inkscape:connector-curvature="0"
         id="path877"
         d="M 11.533166,8.4566042 V 14.163808"
         style="fill:#e602b4;stroke:#e602b4;stroke-width:1.93037784px;stroke-linecap:round;stroke-linejoin:miter;stroke-opacity:1" />
      <path
         inkscape:connector-curvature="0"
         id="path879"
         d="M 8.6795638,11.310206 H 14.386768"
         style="fill:#e602b4;stroke:#e602b4;stroke-width:1.93037784px;stroke-linecap:round;stroke-linejoin:miter;stroke-opacity:1" />
    </g>
  </g>
</svg>
