<?xml version="1.0" encoding="UTF-8" standalone="no"?>
<svg
   xmlns:dc="http://purl.org/dc/elements/1.1/"
   xmlns:cc="http://creativecommons.org/ns#"
   xmlns:rdf="http://www.w3.org/1999/02/22-rdf-syntax-ns#"
   xmlns:svg="http://www.w3.org/2000/svg"
   xmlns="http://www.w3.org/2000/svg"
   xmlns:sodipodi="http://sodipodi.sourceforge.net/DTD/sodipodi-0.dtd"
   xmlns:inkscape="http://www.inkscape.org/namespaces/inkscape"
   enable-background="new 0 0 128 128"
   height="16"
   viewBox="0 0 16 16"
   width="16"
   id="svg2"
   version="1.1"
   inkscape:version="0.91 r13725"
   sodipodi:docname="sc_insertexternaldatasource.svg"
   inkscape:export-filename="/home/tamara/Desktop/IKON/5_258 (tamara)/sc (222)/Tanggal 25/sc_insertexternaldatasource.png"
   inkscape:export-xdpi="90"
   inkscape:export-ydpi="90">
  <metadata
     id="metadata154">
    <rdf:RDF>
      <cc:Work
         rdf:about="">
        <dc:format>image/svg+xml</dc:format>
        <dc:type
           rdf:resource="http://purl.org/dc/dcmitype/StillImage" />
      </cc:Work>
    </rdf:RDF>
  </metadata>
  <defs
     id="defs152" />
  <sodipodi:namedview
     pagecolor="#ffffff"
     bordercolor="#666666"
     borderopacity="1"
     objecttolerance="10"
     gridtolerance="10"
     guidetolerance="10"
     inkscape:pageopacity="0"
     inkscape:pageshadow="2"
     inkscape:window-width="1366"
     inkscape:window-height="718"
     id="namedview150"
     showgrid="true"
     inkscape:zoom="20.85965"
     inkscape:cx="-1.4075207"
     inkscape:cy="9.8268594"
     inkscape:window-x="0"
     inkscape:window-y="0"
     inkscape:window-maximized="1"
     inkscape:current-layer="svg2">
    <inkscape:grid
       type="xygrid"
       id="grid4282" />
  </sodipodi:namedview>
  <linearGradient
     id="a"
     gradientUnits="userSpaceOnUse"
     x1="85.219681"
     x2="61.336319"
     y1="93.219681"
     y2="69.336319">
    <stop
       offset="0"
       id="stop5" />
    <stop
       offset="1"
       stop-color="#393b38"
       id="stop7" />
  </linearGradient>
  <linearGradient
     id="b"
     gradientUnits="userSpaceOnUse"
     x1="96"
     x2="88.000198"
     y1="104"
     y2="96.000198">
    <stop
       offset="0"
       stop-color="#888a85"
       id="stop10" />
    <stop
       offset=".0072"
       stop-color="#8c8e89"
       id="stop12" />
    <stop
       offset=".0673"
       stop-color="#abaca9"
       id="stop14" />
    <stop
       offset=".1347"
       stop-color="#c5c6c4"
       id="stop16" />
    <stop
       offset=".2115"
       stop-color="#dbdbda"
       id="stop18" />
    <stop
       offset=".3012"
       stop-color="#ebebeb"
       id="stop20" />
    <stop
       offset=".4122"
       stop-color="#f7f7f6"
       id="stop22" />
    <stop
       offset=".5679"
       stop-color="#fdfdfd"
       id="stop24" />
    <stop
       offset="1"
       stop-color="#fff"
       id="stop26" />
  </linearGradient>
  <radialGradient
     id="c"
     cx="102"
     cy="112.3047"
     gradientTransform="matrix(0.12234042,0,0,0.12272727,0.17021212,0.1454665)"
     gradientUnits="userSpaceOnUse"
     r="139.55859">
    <stop
       offset="0"
       stop-color="#535557"
       id="stop29" />
    <stop
       offset=".11366145"
       stop-color="#898a8c"
       id="stop31" />
    <stop
       offset=".20296688"
       stop-color="#ececec"
       id="stop33" />
    <stop
       offset=".2363"
       stop-color="#fafafa"
       id="stop35" />
    <stop
       offset=".2722"
       stop-color="#fff"
       id="stop37" />
    <stop
       offset=".5313"
       stop-color="#fafafa"
       id="stop39" />
    <stop
       offset=".8449"
       stop-color="#ebecec"
       id="stop41" />
    <stop
       offset="1"
       stop-color="#e1e2e3"
       id="stop43" />
  </radialGradient>
  <radialGradient
     id="d"
     cx="102"
     cy="112.3047"
     gradientUnits="userSpaceOnUse"
     r="139.5585"
     gradientTransform="matrix(0.125,0,0,0.125,-1e-6,1.2e-5)">
    <stop
       offset="0"
       stop-color="#00537d"
       id="stop46" />
    <stop
       offset=".0151"
       stop-color="#186389"
       id="stop48" />
    <stop
       offset=".0558"
       stop-color="#558ca8"
       id="stop50" />
    <stop
       offset=".0964"
       stop-color="#89afc3"
       id="stop52" />
    <stop
       offset=".1357"
       stop-color="#b3ccd8"
       id="stop54" />
    <stop
       offset=".1737"
       stop-color="#d4e2e9"
       id="stop56" />
    <stop
       offset=".2099"
       stop-color="#ecf2f5"
       id="stop58" />
    <stop
       offset=".2435"
       stop-color="#fafcfd"
       id="stop60" />
    <stop
       offset=".2722"
       stop-color="#fff"
       id="stop62" />
  </radialGradient>
  <filter
     id="e">
    <feGaussianBlur
       stdDeviation="1.0394514"
       id="feGaussianBlur65" />
  </filter>
  <filter
     id="f">
    <feGaussianBlur
       stdDeviation=".50063244"
       id="feGaussianBlur68" />
  </filter>
  <filter
     id="g">
    <feGaussianBlur
       stdDeviation=".4901192"
       id="feGaussianBlur71" />
  </filter>
  <filter
     id="h">
    <feGaussianBlur
       stdDeviation=".90565481"
       id="feGaussianBlur74" />
  </filter>
  <filter
     id="i"
     height="1.247155"
     width="1.247155"
     x="-.123577"
     y="-.123577">
    <feGaussianBlur
       stdDeviation="1.7720846"
       id="feGaussianBlur77" />
  </filter>
  <linearGradient
     id="j"
     gradientTransform="matrix(0.12561344,0,0,0.125,0.94110825,1.0197032)"
     gradientUnits="userSpaceOnUse"
     spreadMethod="reflect"
     x1="93.637222"
     x2="64.116623"
     y1="76.247704"
     y2="76.247704">
    <stop
       offset="0"
       stop-color="#777"
       id="stop80" />
    <stop
       offset="1"
       stop-color="#909090"
       id="stop82" />
  </linearGradient>
  <radialGradient
     id="k"
     cx="50.790016"
     cy="19.459543"
     gradientTransform="matrix(0.1291278,0,0,0.05085932,1.4415961,4.010313)"
     gradientUnits="userSpaceOnUse"
     r="25.617748">
    <stop
       offset="0"
       stop-color="#fefefe"
       id="stop85" />
    <stop
       offset="1"
       stop-color="#e7e7e7"
       id="stop87" />
  </radialGradient>
  <linearGradient
     id="l"
     gradientTransform="matrix(0.1354669,0,0,0.12180048,-1.6054511,1.1954576)"
     gradientUnits="userSpaceOnUse"
     x1="62.6875"
     x2="62.6875"
     y1="50.053383"
     y2="98.544846">
    <stop
       offset="0"
       stop-color="#fff"
       id="stop90" />
    <stop
       offset="1"
       stop-color="#fff"
       stop-opacity="0"
       id="stop92" />
  </linearGradient>
  <g
     id="g4350">
    <path
       style="opacity:1;fill:#f3b7d9;fill-opacity:1;fill-rule:nonzero;stroke:none;stroke-width:0.25;stroke-linecap:round;stroke-linejoin:round;stroke-miterlimit:4;stroke-dasharray:none;stroke-dashoffset:0;stroke-opacity:1"
       d="m 2,1 10,0 c 0.554,0 1,0.446 1,1 L 13,10.281992 8.2282365,15 2,15 C 1.446,15 1,14.554 1,14 L 1,2 C 1,1.446 1.446,1 2,1 Z"
       id="path4246"
       inkscape:connector-curvature="0"
       sodipodi:nodetypes="sssccssss" />
    <path
       id="rect4255"
       d="m 2.011774,2 0,12 6.5,0 0,-3.5 3.5,0 0,-8.5 -3.5,0 -2.5,0 -4,0 z"
       style="opacity:1;fill:#f0e3ec;fill-opacity:1;fill-rule:nonzero;stroke:none;stroke-width:0.25;stroke-linecap:round;stroke-linejoin:round;stroke-miterlimit:4;stroke-dasharray:none;stroke-dashoffset:0;stroke-opacity:1"
       inkscape:connector-curvature="0" />
    <path
       inkscape:connector-curvature="0"
       style="fill:#9d3a9b"
       id="path108"
       d="m 9.0078463,4.0236095 c -2.2036906,0 -3.9921521,0.8571611 -3.9921521,1.9140625 0,0.029071 0.00126,0.057181 0.00393,0.085937 l -0.019627,0 0,4.3710935 0.019627,0 c -0.00267,0.02876 -0.00393,0.05687 -0.00393,0.08594 0,1.056901 1.7884615,1.914062 3.9921521,1.914062 2.2036907,0 3.9921527,-0.857161 3.9921527,-1.914062 0,-0.02907 -0.0011,-0.05718 -0.0039,-0.08594 l 0.0039,0 0,-4.3710935 -0.0039,0 c 0.0027,-0.028756 0.0039,-0.056867 0.0039,-0.085937 0,-1.056901 -1.788462,-1.9140625 -3.9921527,-1.9140625 z" />
    <ellipse
       style="opacity:0.86725601;fill:url(#k)"
       id="ellipse110"
       ry="1.3029011"
       rx="3.3079634"
       cy="5.7679968"
       cx="8.9803677" />
    <path
       style="fill:#e4e4e4"
       inkscape:connector-curvature="0"
       id="path112"
       d="m 5.930317,7.2150157 c -0.1647885,0.1547985 -0.2590778,0.321723 -0.2590778,0.5 0,0.7192014 1.4831329,1.3046876 3.3091291,1.3046876 1.8259957,0 3.3091287,-0.5854859 3.3091287,-1.3046875 0,-0.178277 -0.09429,-0.3452015 -0.259077,-0.5 -0.498766,0.4707586 -1.67472,0.8046875 -3.0500517,0.8046875 -1.3753314,0 -2.5512869,-0.333929 -3.0500513,-0.8046875 z" />
    <path
       style="fill:#e4e4e4"
       inkscape:connector-curvature="0"
       id="path114"
       d="m 5.930317,9.2150157 c -0.1647885,0.1547985 -0.2590778,0.3217231 -0.2590778,0.5 0,0.7192013 1.4831329,1.3046873 3.3091291,1.3046873 1.8259957,0 3.3091287,-0.585486 3.3091287,-1.3046873 0,-0.1782769 -0.09429,-0.3452015 -0.259077,-0.5 -0.498766,0.4707587 -1.67472,0.8046873 -3.0500517,0.8046873 -1.3753314,0 -2.5512869,-0.3339287 -3.0500513,-0.8046873 z" />
    <path
       inkscape:connector-curvature="0"
       style="opacity:0.52808999;fill:url(#l)"
       id="path116"
       d="m 5.993835,6.5283807 0.050361,5.1690033 c 0.3772564,0.04684 0.7734714,0.572319 1.1853355,0.572319 0.2632025,0 0.5202619,-0.01083 0.7704679,-0.03045 L 8.0347449,7.0512184 C 7.1633767,7.342964 6.4182411,6.5810286 5.993835,6.5283807 Z" />
    <g
       transform="matrix(0.125,0,0,0.125,-1e-6,1.000012)"
       style="fill:#9d3a9b"
       id="g118">
      <path
         style="opacity:0.68539297;fill:#9d3a9b"
         inkscape:connector-curvature="0"
         id="path120"
         d="m 71.842954,23.68942 c -17.142365,0 -31.097998,7.034703 -31.685989,15.83927 2.630867,-4.285624 8.90968,-7.776241 17.114831,-9.720432 4.09117,-1.550349 9.114069,-2.478517 14.571158,-2.478517 5.457091,0 10.47999,0.92817 14.57116,2.478517 8.205151,1.94419 14.483966,5.434808 17.114826,9.720432 C 102.94095,30.72412 88.98532,23.68942 71.842954,23.68942 Z" />
      <path
         style="opacity:0.68539297;fill:#9d3a9b"
         inkscape:connector-curvature="0"
         id="path122"
         d="m 71.842954,91.13927 c -17.142365,0 -31.097998,-7.0347 -31.685989,-15.83927 2.630867,4.28562 8.90968,7.77624 17.114831,9.72043 4.09117,1.55035 9.114069,2.47852 14.571158,2.47852 5.457091,0 10.47999,-0.92817 14.57116,-2.47852 C 94.619265,83.07624 100.89808,79.58562 103.52894,75.3 102.94095,84.10457 88.98532,91.13927 71.842954,91.13927 Z" />
    </g>
    <path
       sodipodi:nodetypes="ssccccs"
       inkscape:connector-curvature="0"
       id="rect4244"
       d="m 9.0000552,10 c -0.554,0 -1,0.446 -1,1 l 0,4 0.533799,0 c 1.6595818,-1.095353 3.5616938,-2.904973 4.4662008,-4.515029 l 0,-0.484971 z"
       style="opacity:1;fill:#e602b4;fill-opacity:1;fill-rule:nonzero;stroke:none;stroke-width:0.25;stroke-linecap:round;stroke-linejoin:round;stroke-miterlimit:4;stroke-dasharray:none;stroke-dashoffset:0;stroke-opacity:1" />
    <g
       id="g4333">
      <path
         d="m 2.999999,2.000012 1,0 0,1 -1,0 z"
         id="path126"
         inkscape:connector-curvature="0"
         style="opacity:1;fill:#9d3a9b;fill-opacity:1;stroke:none" />
      <path
         d="m 2.999999,4.000012 1,0 0,1 -1,0 z"
         id="path128"
         inkscape:connector-curvature="0"
         style="opacity:1;fill:#9d3a9b;fill-opacity:1;stroke:none" />
      <path
         d="m 2.999999,6.000012 1,0 0,1 -1,0 z"
         id="path130"
         inkscape:connector-curvature="0"
         style="opacity:1;fill:#9d3a9b;fill-opacity:1;stroke:none" />
      <path
         d="m 2.999999,8.000012 1,0 0,1 -1,0 z"
         id="path132"
         inkscape:connector-curvature="0"
         style="opacity:1;fill:#9d3a9b;fill-opacity:1;stroke:none" />
      <path
         d="m 2.999999,10.000012 1,0 0,1 -1,0 z"
         id="path134"
         inkscape:connector-curvature="0"
         style="opacity:1;fill:#9d3a9b;fill-opacity:1;stroke:none" />
      <path
         d="m 2.999999,12.000012 1,0 0,1 -1,0 z"
         id="path136"
         inkscape:connector-curvature="0"
         style="opacity:1;fill:#9d3a9b;fill-opacity:1;stroke:none" />
      <path
         d="m 2.999999,14.000012 1,0 0,1 -1,0 z"
         id="path138"
         inkscape:connector-curvature="0"
         style="opacity:1;fill:#9d3a9b;fill-opacity:1;stroke:none" />
    </g>
  </g>
</svg>
