<?xml version="1.0" encoding="UTF-8" standalone="no"?>
<svg
   xmlns:dc="http://purl.org/dc/elements/1.1/"
   xmlns:cc="http://creativecommons.org/ns#"
   xmlns:rdf="http://www.w3.org/1999/02/22-rdf-syntax-ns#"
   xmlns:svg="http://www.w3.org/2000/svg"
   xmlns="http://www.w3.org/2000/svg"
   xmlns:xlink="http://www.w3.org/1999/xlink"
   xmlns:sodipodi="http://sodipodi.sourceforge.net/DTD/sodipodi-0.dtd"
   xmlns:inkscape="http://www.inkscape.org/namespaces/inkscape"
   enable-background="new 0 0 128 128"
   height="16"
   viewBox="0 0 16 16"
   width="16"
   id="svg2"
   version="1.1"
   inkscape:version="0.91 r13725"
   sodipodi:docname="sc_lastslide.svg"
   inkscape:export-filename="/home/tamara/Desktop/IKON/5_258 (tamara)/sc (222)/Tanggal 7-03/sc_lastslide.png"
   inkscape:export-xdpi="90"
   inkscape:export-ydpi="90">
  <metadata
     id="metadata217">
    <rdf:RDF>
      <cc:Work
         rdf:about="">
        <dc:format>image/svg+xml</dc:format>
        <dc:type
           rdf:resource="http://purl.org/dc/dcmitype/StillImage" />
      </cc:Work>
    </rdf:RDF>
  </metadata>
  <defs
     id="defs215" />
  <sodipodi:namedview
     pagecolor="#ffffff"
     bordercolor="#666666"
     borderopacity="1"
     objecttolerance="10"
     gridtolerance="10"
     guidetolerance="10"
     inkscape:pageopacity="0"
     inkscape:pageshadow="2"
     inkscape:window-width="1366"
     inkscape:window-height="718"
     id="namedview213"
     showgrid="true"
     inkscape:zoom="14.75"
     inkscape:cx="-0.6779661"
     inkscape:cy="8"
     inkscape:window-x="0"
     inkscape:window-y="0"
     inkscape:window-maximized="1"
     inkscape:current-layer="svg2">
    <inkscape:grid
       type="xygrid"
       id="grid4357" />
  </sodipodi:namedview>
  <linearGradient
     id="a">
    <stop
       offset="0"
       stop-color="#fff"
       id="stop5" />
    <stop
       offset="1"
       stop-color="#fff"
       stop-opacity="0"
       id="stop7" />
  </linearGradient>
  <linearGradient
     id="b"
     gradientUnits="userSpaceOnUse"
     x1="28"
     x2="28"
     xlink:href="#a"
     y1="57.5"
     y2="0" />
  <linearGradient
     id="c"
     xlink:href="#a" />
  <filter
     id="d"
     height="1.294962"
     width="1.106002"
     x="-.053001"
     y="-.147481">
    <feGaussianBlur
       stdDeviation="1.4133574"
       id="feGaussianBlur12" />
  </filter>
  <filter
     id="e">
    <feGaussianBlur
       stdDeviation="1.9"
       id="feGaussianBlur15" />
  </filter>
  <filter
     id="f">
    <feGaussianBlur
       stdDeviation="1.1263538"
       id="feGaussianBlur18" />
  </filter>
  <linearGradient
     id="g"
     gradientUnits="userSpaceOnUse"
     x1="56"
     x2="56"
     xlink:href="#b"
     y1="32"
     y2="88.117546" />
  <linearGradient
     id="h"
     gradientUnits="userSpaceOnUse"
     x1="52"
     x2="52"
     y1="64"
     y2="68">
    <stop
       offset="0"
       id="stop22" />
    <stop
       offset="1"
       stop-opacity="0"
       id="stop24" />
  </linearGradient>
  <radialGradient
     id="i"
     cx="48"
     cy="112"
     gradientTransform="matrix(1.2935346 -.00553408 .00454134 1.0614911 3.986491 -10.444275)"
     gradientUnits="userSpaceOnUse"
     r="32">
    <stop
       offset="0"
       stop-color="#ffea00"
       id="stop27" />
    <stop
       offset="1"
       stop-color="#ffa000"
       id="stop29" />
  </radialGradient>
  <radialGradient
     id="j"
     cx="100.88867"
     cy="155.99673"
     gradientTransform="matrix(6.2113128 0 0 5.5040777 -486.03133 -654.01913)"
     gradientUnits="userSpaceOnUse"
     r="40">
    <stop
       offset="0"
       stop-color="#fff"
       id="stop32" />
    <stop
       offset=".11366145"
       stop-color="#bdbebf"
       id="stop34" />
    <stop
       offset=".20296688"
       stop-color="#ececec"
       id="stop36" />
    <stop
       offset=".2363"
       stop-color="#fafafa"
       id="stop38" />
    <stop
       offset=".38818121"
       stop-color="#fff"
       id="stop40" />
    <stop
       offset=".5313"
       stop-color="#fafafa"
       id="stop42" />
    <stop
       offset=".8449"
       stop-color="#ebecec"
       id="stop44" />
    <stop
       offset="1"
       stop-color="#e1e2e3"
       id="stop46" />
  </radialGradient>
  <clipPath
     id="k">
    <path
       d="m14.530963 56.084772c-1.219674 0-2.1875.967827-2.1875 2.1875v17.0625c9.640301 2.396967 24.165833 3.665228 35.656537 3.665228s22.359699-1.353033 32-3.75v-17.0625c0-1.219674-.967827-2.1875-2.1875-2.1875z"
       filter="url(#d)"
       id="path49" />
  </clipPath>
  <filter
     id="l">
    <feGaussianBlur
       stdDeviation="1.0600355"
       id="feGaussianBlur52" />
  </filter>
  <linearGradient
     id="m"
     gradientTransform="matrix(-0.07357842,0,0,0.06732616,12.398774,1.692086)"
     gradientUnits="userSpaceOnUse"
     x1="71.626404"
     x2="46.225941"
     y1="123.73875"
     y2="28.942928">
    <stop
       offset="0"
       stop-color="#003c13"
       id="stop55" />
    <stop
       offset="1"
       stop-color="#43943c"
       id="stop57" />
  </linearGradient>
  <radialGradient
     id="n"
     cx="71.775223"
     cy="16.0865"
     gradientTransform="matrix(0.9650814,0.2619502,-0.9201984,3.3902106,33.309062,-57.693239)"
     gradientUnits="userSpaceOnUse"
     r="3.15625"
     xlink:href="#a" />
  <filter
     id="o"
     height="1.157943"
     width="1.244782"
     x="-.122391"
     y="-.078971">
    <feGaussianBlur
       stdDeviation=".321914"
       id="feGaussianBlur61" />
  </filter>
  <radialGradient
     id="p"
     cx="71.775223"
     cy="16.0865"
     gradientTransform="matrix(0.9650814,0.2619502,-0.9201984,3.3902106,17.309062,-57.693239)"
     gradientUnits="userSpaceOnUse"
     r="3.15625"
     xlink:href="#q" />
  <linearGradient
     id="q">
    <stop
       offset="0"
       stop-color="#f0ff80"
       id="stop65" />
    <stop
       offset="1"
       stop-color="#f0ff80"
       stop-opacity="0"
       id="stop67" />
  </linearGradient>
  <linearGradient
     id="r"
     gradientTransform="matrix(-0.06583332,0,0,0.05762466,12.029999,2.3129671)"
     gradientUnits="userSpaceOnUse"
     x1="43.799026"
     x2="58.606159"
     y1="32.051865"
     y2="96.363052">
    <stop
       offset="0"
       stop-color="#37a42c"
       id="stop70" />
    <stop
       offset="1"
       stop-color="#bff500"
       id="stop72" />
  </linearGradient>
  <radialGradient
     id="s"
     cx="11.578125"
     cy="64.53125"
     gradientTransform="matrix(6.5079869,0,0,1.510917,-63.772161,-32.970115)"
     gradientUnits="userSpaceOnUse"
     r="3.578125"
     xlink:href="#a" />
  <filter
     id="t"
     height="1.598266"
     width="1.90393"
     x="-.451965"
     y="-.299133">
    <feGaussianBlur
       stdDeviation="1.3476562"
       id="feGaussianBlur76" />
  </filter>
  <radialGradient
     id="u"
     cx="72.222832"
     cy="81.225037"
     fx="75.65107"
     fy="93.974243"
     gradientTransform="matrix(-0.09499681,0,0,0.07982571,6.7826602,0.5011505)"
     gradientUnits="userSpaceOnUse"
     r="50"
     xlink:href="#v" />
  <linearGradient
     id="v">
    <stop
       offset="0"
       stop-color="#cbff10"
       id="stop80" />
    <stop
       offset="1"
       stop-color="#004d00"
       id="stop82" />
  </linearGradient>
  <linearGradient
     id="w"
     gradientTransform="matrix(-0.5266666,0,0,0.4609973,94.13333,18.503737)"
     gradientUnits="userSpaceOnUse"
     x1="91.785248"
     x2="91.992706"
     xlink:href="#x"
     y1="112.5"
     y2="44.287056" />
  <linearGradient
     id="x">
    <stop
       offset="0"
       stop-color="#e5ff00"
       id="stop86" />
    <stop
       offset="1"
       stop-color="#e5ff00"
       stop-opacity="0"
       id="stop88" />
  </linearGradient>
  <filter
     id="y">
    <feGaussianBlur
       stdDeviation=".495"
       id="feGaussianBlur91" />
  </filter>
  <linearGradient
     id="z"
     gradientTransform="matrix(-0.06583332,0,0,0.05762466,11.766666,2.3129671)"
     gradientUnits="userSpaceOnUse"
     x1="63.159035"
     x2="63.159035"
     y1="21.171064"
     y2="80.12056">
    <stop
       offset="0"
       stop-color="#edffbf"
       id="stop94" />
    <stop
       offset="1"
       stop-color="#edffbf"
       stop-opacity="0"
       id="stop96" />
  </linearGradient>
  <linearGradient
     id="A"
     gradientTransform="matrix(-0.06583332,0,0,0.05762466,11.766666,2.3129671)"
     gradientUnits="userSpaceOnUse"
     x1="73.739265"
     x2="35.568035"
     xlink:href="#a"
     y1="69.923088"
     y2="48.212151" />
  <linearGradient
     id="B"
     gradientTransform="matrix(-0.06583332,0,0,0.05762466,11.766666,2.3129671)"
     gradientUnits="userSpaceOnUse"
     x1="63.159035"
     x2="63.159035"
     xlink:href="#a"
     y1="21.171064"
     y2="80.12056" />
  <linearGradient
     id="C"
     gradientTransform="matrix(1.0533333,0,0,0.9219945,11.76,4.992427)"
     gradientUnits="userSpaceOnUse"
     x1="73.739265"
     x2="35.568035"
     xlink:href="#a"
     y1="69.923088"
     y2="48.212151" />
  <linearGradient
     id="D"
     gradientTransform="matrix(1.0533333,0,0,0.9219945,11.76,4.992427)"
     gradientUnits="userSpaceOnUse"
     x1="63.159035"
     x2="63.159035"
     xlink:href="#a"
     y1="21.171064"
     y2="80.12056" />
  <radialGradient
     id="E"
     cx="122.17677"
     cy="53.333336"
     gradientTransform="matrix(2.717484,0.35826501,-0.68363455,1.2553261,-280.99554,-102.72592)"
     gradientUnits="userSpaceOnUse"
     r="2"
     xlink:href="#v" />
  <linearGradient
     id="F"
     gradientTransform="matrix(0.25360551,0,0,0.12477963,-16.427372,-0.4885405)"
     gradientUnits="userSpaceOnUse"
     x1="122.12132"
     x2="122.12132"
     xlink:href="#q"
     y1="24"
     y2="60.048988" />
  <linearGradient
     id="G"
     gradientTransform="matrix(0.25360551,0,0,0.12477963,-16.427372,-0.4885405)"
     gradientUnits="userSpaceOnUse"
     x1="132"
     x2="116"
     xlink:href="#a"
     y1="52"
     y2="28" />
  <linearGradient
     id="H"
     gradientUnits="userSpaceOnUse"
     x1="121.85139"
     x2="120"
     xlink:href="#x"
     y1="64"
     y2="44" />
  <filter
     id="I"
     height="1.028862"
     width="1.331226"
     x="-.165613"
     y="-.014431">
    <feGaussianBlur
       stdDeviation=".28982301"
       id="feGaussianBlur107" />
  </filter>
  <filter
     id="J">
    <feGaussianBlur
       stdDeviation=".1159292"
       id="feGaussianBlur110" />
  </filter>
  <linearGradient
     id="K"
     gradientUnits="userSpaceOnUse"
     x1="116"
     x2="124"
     xlink:href="#a"
     y1="29.274029"
     y2="74.399025" />
  <radialGradient
     id="L"
     cx="114"
     cy="26"
     gradientTransform="matrix(0.7071068,-0.7071068,2.6709373,2.6709373,-40.054544,33.165802)"
     gradientUnits="userSpaceOnUse"
     r="2.5"
     xlink:href="#a" />
  <filter
     id="M"
     height="1.499115"
     width="1.499115"
     x="-.249558"
     y="-.249558">
    <feGaussianBlur
       stdDeviation=".4159292"
       id="feGaussianBlur115" />
  </filter>
  <radialGradient
     id="N"
     cx="114"
     cy="26"
     gradientTransform="matrix(0.7071068,-0.7071068,2.6709373,2.6709373,-36.054544,37.165802)"
     gradientUnits="userSpaceOnUse"
     r="2.5"
     xlink:href="#a" />
  <radialGradient
     id="O"
     cx="114"
     cy="26"
     gradientTransform="matrix(0.7071068,-0.7071068,2.6709373,2.6709373,-36.054544,37.165802)"
     gradientUnits="userSpaceOnUse"
     r="2.5"
     xlink:href="#x" />
  <g
     id="g4450">
    <g
       id="g4232"
       transform="matrix(0.84503632,0,0,0.84503632,0.26059322,-0.93613802)">
      <path
         inkscape:connector-curvature="0"
         id="path4369"
         d="m 4.3896848,6.7106015 c -0.554,0 -1,0.446 -1,1 l 0,10.0000005 c 0,0.554 0.446,1 1,1 l 12.0000002,0 c 0.554,0 1,-0.446 1,-1 l 0,-10.0000005 c 0,-0.554 -0.446,-1 -1,-1 0,0.554 -0.446,1 -1,1 l -1,0 c -0.554,0 -1,-0.446 -1,-1 l -9.0000002,0 z"
         style="opacity:1;fill:#9d3a9b;fill-opacity:1;fill-rule:nonzero;stroke:#e602b4;stroke-width:0.29584527;stroke-linecap:round;stroke-linejoin:round;stroke-miterlimit:4;stroke-dasharray:none;stroke-dashoffset:0;stroke-opacity:1" />
      <path
         style="opacity:1;fill:#9d3a9b;fill-opacity:1;fill-rule:nonzero;stroke:#e602b4;stroke-width:0.29584527;stroke-linecap:round;stroke-linejoin:round;stroke-miterlimit:4;stroke-dasharray:none;stroke-dashoffset:0;stroke-opacity:1"
         d="M 2,2 C 1.446,2 1,2.446 1,3 l 0,10 c 0,0.554 0.446,1 1,1 l 12,0 c 0.554,0 1,-0.446 1,-1 L 15,3 C 15,2.446 14.554,2 14,2 14,2.554 13.554,3 13,3 L 12,3 C 11.446,3 11,2.554 11,2 L 2,2 Z"
         id="rect4200"
         inkscape:connector-curvature="0" />
      <rect
         style="opacity:1;fill:#f3b7d9;fill-opacity:1;fill-rule:nonzero;stroke:none;stroke-width:0.25;stroke-linecap:round;stroke-linejoin:round;stroke-miterlimit:4;stroke-dasharray:none;stroke-dashoffset:0;stroke-opacity:1"
         id="rect4230"
         width="12"
         height="8"
         x="2"
         y="5"
         ry="1" />
    </g>
    <path
       d="m 87.875,12 c -0.865503,0.02693 -1.698899,0.333976 -2.375,0.875 l -60,48 C 24.550144,61.634129 24,62.784063 24,64 c 0,1.215937 0.550144,2.365871 1.5,3.125 l 60,48 c 1.200963,0.96113 2.832437,1.13525 4.21875,0.46875 C 91.105067,114.92725 92.000642,113.53821 92,112 l 0,-23.6875 0,-10.25 -1.5,-1.1875 C 89.299037,75.91387 87.667563,75.739753 86.28125,76.40625 84.894933,77.072748 83.999358,78.461793 84,80 L 84,103.6875 34.40625,64 84,24.3125 84,48 c -6.42e-4,1.538207 0.894936,2.927253 2.28125,3.59375 1.38631,0.666496 3.017787,0.49238 4.21875,-0.46875 L 92,49.9375 92,39.6875 92,16 C 92.000417,14.917152 91.558627,13.878821 90.78125,13.125 90.003873,12.37118 88.957323,11.966273 87.875,12 Z"
       style="opacity:0.90526303;fill:none;stroke:#638000;stroke-width:0.96600002;stroke-linejoin:round;filter:url(#l)"
       transform="matrix(-0.06583332,0,0,0.06358582,12.82,1.9314521)"
       id="path153"
       inkscape:connector-curvature="0" />
    <path
       inkscape:connector-curvature="0"
       style="fill:#e602b4;fill-rule:evenodd"
       id="path157"
       d="M 3.8328125,1.9921875 C 3.634241,1.986525 3.4314976,2.0488276 3.2664063,2.1953125 3.1033421,2.3399986 3.0045918,2.5444784 3.0046875,2.7695313 l 0,1.5937499 0,0.359375 0,0.3320313 0,1.8945312 0,0.390625 0,0.296875 0,1.5976563 c -1.5e-4,0.3198754 0.2156034,0.590043 0.4726563,0.703125 0.263725,0.116017 0.5726351,0.089714 0.8124999,-0.085937 l 1.7148438,-2.0039063 0,1.3867188 c -1.5e-4,0.3198739 0.2156037,0.5900426 0.4726562,0.703125 0.263723,0.116015 0.5726372,0.089712 0.8125,-0.085937 L 11.707812,6.6210937 C 11.902984,6.4783685 12.024219,6.2454401 12.024219,6 c 0,-0.24544 -0.121237,-0.478369 -0.316407,-0.6210938 L 7.2898437,2.1484375 C 7.1597436,2.0531754 6.9959118,1.9968321 6.8328125,1.9921875 6.6342405,1.986525 6.4315006,2.0488238 6.2664062,2.1953125 6.1033452,2.3399974 6.0045918,2.5444754 6.0046875,2.7695313 l 0,1.5078124 L 4.2898437,2.1484375 C 4.1597446,2.053177 3.995912,1.9968321 3.8328125,1.9921875 Z m 10.0859375,0 c -0.49809,0 -0.914063,0.4159722 -0.914063,0.9140625 l 0,6.1875 c 0,0.4980903 0.415973,0.914063 0.914063,0.914063 l 1.1875,0 c 0.49809,0 0.914062,-0.4159727 0.914062,-0.914063 l 0,-6.1875 c 0,-0.4980903 -0.415972,-0.9140625 -0.914062,-0.9140625 z m -8.1328125,3.1992187 0.21875,0.1601563 0,1.296875 -0.21875,0.1601562 z m 3,0 L 9.8914062,6 8.7859375,6.8085937 l 0,-0.28125 C 8.9260666,6.3852071 9.0242194,6.203566 9.0242187,6 9.0242196,5.7964329 8.9260659,5.6147915 8.7859375,5.4726562 Z" />
    <path
       inkscape:connector-curvature="0"
       style="fill:#f3b7d9;fill-rule:evenodd"
       id="path163"
       d="m 4.0273431,3.234375 0,5.53125 3,-2.1015625 0,2.1015625 L 10.976561,6 7.0273431,3.234375 l 0,2.1015625 z" />
    <path
       d="m 14.005289,3.0052891 1.014422,0 0,5.9894219 -1.014422,0 z"
       id="path189"
       style="fill:#f3b7d9"
       inkscape:connector-curvature="0" />
  </g>
</svg>
