<?xml version="1.0" encoding="UTF-8" standalone="no"?>
<svg
   xmlns:dc="http://purl.org/dc/elements/1.1/"
   xmlns:cc="http://creativecommons.org/ns#"
   xmlns:rdf="http://www.w3.org/1999/02/22-rdf-syntax-ns#"
   xmlns:svg="http://www.w3.org/2000/svg"
   xmlns="http://www.w3.org/2000/svg"
   xmlns:xlink="http://www.w3.org/1999/xlink"
   xmlns:sodipodi="http://sodipodi.sourceforge.net/DTD/sodipodi-0.dtd"
   xmlns:inkscape="http://www.inkscape.org/namespaces/inkscape"
   height="16"
   viewBox="0 0 16 16"
   width="16"
   version="1.1"
   id="svg239"
   sodipodi:docname="lc_loadbasic.svg"
   inkscape:version="0.92.4 (unknown)"
   inkscape:export-filename="/home/annisaauliarasyidah/Desktop/4_242 (aulia)/sc done /sc_loadbasic.png"
   inkscape:export-xdpi="300"
   inkscape:export-ydpi="300">
  <metadata
     id="metadata245">
    <rdf:RDF>
      <cc:Work
         rdf:about="">
        <dc:format>image/svg+xml</dc:format>
        <dc:type
           rdf:resource="http://purl.org/dc/dcmitype/StillImage" />
        <dc:title />
      </cc:Work>
    </rdf:RDF>
  </metadata>
  <defs
     id="defs243">
    <radialGradient
       inkscape:collect="always"
       xlink:href="#o"
       id="radialGradient1113"
       gradientUnits="userSpaceOnUse"
       gradientTransform="matrix(1,0,0,0.5780636,0,-101.84696)"
       cx="94.818924"
       cy="67.895119"
       r="43.734375" />
    <linearGradient
       inkscape:collect="always"
       xlink:href="#o"
       id="linearGradient1131"
       gradientUnits="userSpaceOnUse"
       x1="63.993221"
       y1="80.369598"
       x2="63.993221"
       y2="66.131996" />
    <linearGradient
       inkscape:collect="always"
       xlink:href="#g"
       id="linearGradient1240"
       gradientUnits="userSpaceOnUse"
       x1="55"
       y1="1036.4132"
       x2="55"
       y2="1032.4822" />
  </defs>
  <sodipodi:namedview
     pagecolor="#ffffff"
     bordercolor="#666666"
     borderopacity="1"
     objecttolerance="10"
     gridtolerance="10"
     guidetolerance="10"
     inkscape:pageopacity="0"
     inkscape:pageshadow="2"
     inkscape:window-width="1366"
     inkscape:window-height="707"
     id="namedview241"
     showgrid="true"
     inkscape:zoom="20.85965"
     inkscape:cx="-0.67833418"
     inkscape:cy="7.9655855"
     inkscape:window-x="0"
     inkscape:window-y="0"
     inkscape:window-maximized="1"
     inkscape:current-layer="svg239"
     inkscape:snap-global="false">
    <inkscape:grid
       type="xygrid"
       id="grid1071"
       spacingx="0.5"
       spacingy="0.5"
       empspacing="2" />
  </sodipodi:namedview>
  <linearGradient
     id="a"
     gradientUnits="userSpaceOnUse"
     x1="8"
     x2="8"
     y1="5"
     y2="15">
    <stop
       offset="0"
       stop-color="#5678c8"
       id="stop2" />
    <stop
       offset=".94117647"
       stop-color="#3f59ae"
       id="stop4" />
    <stop
       offset="1"
       stop-color="#3d7cdb"
       id="stop6" />
  </linearGradient>
  <linearGradient
     id="b"
     gradientUnits="userSpaceOnUse"
     x1="5.5"
     x2="5.5"
     y1="12"
     y2="13">
    <stop
       offset="0"
       stop-color="#174072"
       id="stop9" />
    <stop
       offset="1"
       stop-color="#174072"
       stop-opacity="0"
       id="stop11" />
  </linearGradient>
  <linearGradient
     id="c"
     gradientUnits="userSpaceOnUse"
     x1="9"
     x2="9"
     y1="-1"
     y2="10">
    <stop
       offset="0"
       stop-color="#102134"
       id="stop14" />
    <stop
       offset="1"
       stop-color="#102134"
       stop-opacity="0"
       id="stop16" />
  </linearGradient>
  <filter
     id="d"
     color-interpolation-filters="sRGB"
     height="1.267833"
     width="1.129187"
     x="-.064594"
     y="-.133917">
    <feGaussianBlur
       stdDeviation="3.1247207"
       id="feGaussianBlur19" />
  </filter>
  <linearGradient
     id="e"
     gradientUnits="userSpaceOnUse"
     x1=".37741"
     x2=".37741"
     y1="5.214652"
     y2="3.309088">
    <stop
       offset="0"
       stop-color="#34608f"
       id="stop22" />
    <stop
       offset="1"
       stop-color="#34608f"
       stop-opacity="0"
       id="stop24" />
  </linearGradient>
  <linearGradient
     id="f"
     gradientTransform="matrix(.21345221 0 0 .1138394 -11.411169 -103.22724)"
     gradientUnits="userSpaceOnUse"
     x1="124.01234"
     x2="124.01234"
     y1="966.51019"
     y2="935.34326">
    <stop
       offset="0"
       id="stop27" />
    <stop
       offset="1"
       stop-color="#34608f"
       stop-opacity="0"
       id="stop29" />
  </linearGradient>
  <linearGradient
     id="g"
     gradientUnits="userSpaceOnUse"
     x1="55"
     x2="55"
     y1="1036.4132"
     y2="1032.4822">
    <stop
       offset="0"
       stop-color="#003d7b"
       id="stop32" />
    <stop
       offset="1"
       stop-color="#003d7b"
       stop-opacity="0"
       id="stop34" />
  </linearGradient>
  <filter
     id="h"
     color-interpolation-filters="sRGB"
     height="1.697208"
     width="1.027888"
     x="-.013944"
     y="-.348604">
    <feGaussianBlur
       stdDeviation=".70882694"
       id="feGaussianBlur37" />
  </filter>
  <filter
     id="i"
     color-interpolation-filters="sRGB"
     height="1.1375723"
     width="1.0049735"
     x="-0.0024867651"
     y="-0.068786174">
    <feGaussianBlur
       stdDeviation="0.12641058"
       id="feGaussianBlur40" />
  </filter>
  <clipPath
     id="j">
    <rect
       height="28.072842"
       rx="4"
       width="101.14289"
       x="4"
       y="941.36218"
       id="rect43" />
  </clipPath>
  <linearGradient
     id="k"
     gradientUnits="userSpaceOnUse"
     spreadMethod="reflect"
     x1="64"
     x2="64"
     y1="81.5"
     y2="12.678303"
     gradientTransform="matrix(0.11455086,0,0,0.11455086,-22.594789,7.4261854)">
    <stop
       offset="0"
       stop-color="#b4b4b4"
       id="stop46" />
    <stop
       offset=".5"
       stop-color="#d1d1d1"
       id="stop48" />
    <stop
       offset="1"
       stop-color="#fafafa"
       id="stop50" />
  </linearGradient>
  <radialGradient
     id="l"
     cx="-1.249402"
     cy="23.725372"
     fy="61.40414"
     gradientTransform="matrix(1.3581356,1.5026073,-1.6333333,1.4762927,-61.051702,-44.648234)"
     gradientUnits="userSpaceOnUse"
     r="60">
    <stop
       offset="0"
       stop-opacity="0"
       id="stop53" />
    <stop
       offset=".61052197"
       stop-opacity="0"
       id="stop55" />
    <stop
       offset=".68472904"
       stop-opacity=".377698"
       id="stop57" />
    <stop
       offset=".7499575"
       stop-opacity="0"
       id="stop59" />
    <stop
       offset="1"
       stop-opacity="0"
       id="stop61" />
  </radialGradient>
  <mask
     id="m"
     maskUnits="userSpaceOnUse">
    <path
       d="m-83.999999 4c-3.273853.017276-5.375768.1739184-8.625.625-.96195.153184-1.75.7805494-1.75 1.75l-.59375 9.4375c-.08851.955194-.756643 1.58433-1.46875 1.8125-.02183.007-.0406.02503-.0625.03125-4.116841 1.105169-8.022931 2.722102-11.625001 4.8125-.65155.281931-1.49213.264937-2.1875-.3125l-7.09375-6.25c-.6855-.685498-1.68023-.57188-2.46875 0-2.61651 1.978592-4.23532 3.353505-6.5625 5.65625-2.30274 2.327183-3.67766 3.945984-5.65625 6.5625-.57188.788521-.6855 1.783252 0 2.46875l6.25 7.09375c.47372.570479.7362 1.308846.46875 1.84375l-.0625.125c-2.24552 3.7996-3.99486 7.936313-5.125 12.3125-.0118.02064-.0187.04216-.0312.0625-.31721.512841-.85539.931584-1.59375 1l-9.4375.59375c-.96944 0-1.59681.78805-1.75 1.75-.45108 3.249232-.60772 5.351147-.625 8.625.0173 3.273853.17392 5.375768.625 8.625.15319.961946.78056 1.75 1.75 1.75l9.4375.59375c.86735.08037 1.44344.646567 1.71875 1.28125 1.10323 4.143354 2.76625 8.064208 4.875 11.6875.37292.668507.38163 1.614364-.25 2.375l-6.25 7.09375c-.6855.685496-.57188 1.680227 0 2.46875 1.97859 2.61651 3.35351 4.23531 5.65625 6.5625 2.32718 2.30274 3.94598 3.67766 6.5625 5.65625.78852.57188 1.78325.6855 2.46875 0l7.09375-6.25c.76064-.63163 1.70649-.62292 2.375-.25l.0937-.0937c3.52766 2.01717 7.32819 3.60952 11.343751 4.6875v.15625c.736401.20901 1.440029.85927 1.53125 1.84375l.59375 9.4375c0 .96944.78805 1.59681 1.75 1.75 3.249232.45108 5.351147.60772 8.625.625 3.273853-.0173 5.375768-.17392 8.625-.625.961946-.15319 1.75-.78056 1.75-1.75l.59375-9.4375c.09122-.98448.794849-1.63474 1.53125-1.84375v-.15625c4.015557-1.07798 7.816095-2.67033 11.34375-4.6875l.09375.0937c.668507-.37292 1.614362-.38163 2.375.25l7.09375 6.25c.685503.68551 1.680237.57189 2.46875 0 2.61651-1.97859 4.23531-3.35351 6.5625-5.65625 2.30274-2.32719 3.67766-3.94599 5.65625-6.5625.57189-.788513.68551-1.783245 0-2.46875l-6.25-7.09375c-.63163-.76064-.62292-1.706493-.25-2.375 2.10875-3.623292 3.77177-7.544146 4.875-11.6875.27531-.634683.8514-1.20088 1.71875-1.28125l9.4375-.59375c.96945 0 1.59682-.788054 1.75-1.75.45108-3.249232.60772-5.351147.625-8.625-.01728-3.273853-.17392-5.375768-.625-8.625-.15318-.96195-.78055-1.75-1.75-1.75l-9.4375-.59375c-.73836-.06842-1.27654-.487159-1.59375-1-.0056-.02192-.02559-.04059-.03125-.0625-1.13014-4.376187-3.15121-8.364911-5.125-12.3125l-.0625-.125c-.26745-.534904-.005-1.273273.46875-1.84375l6.25-7.09375c.68551-.685506.57188-1.680234 0-2.46875-1.97859-2.616516-3.35351-4.23532-5.65625-6.5625-2.32718-2.302747-3.94598-3.677659-6.5625-5.65625-.788516-.571884-1.783244-.685505-2.46875 0l-7.09375 6.25c-.695376.577435-1.535955.594432-2.1875.3125-3.602075-2.090398-7.508163-3.707331-11.625-4.8125-.0219-.0062-.04067-.02426-.0625-.03125-.712107-.22817-1.380239-.857306-1.46875-1.8125l-.59375-9.4375c0-.9694506-.788054-1.596816-1.75-1.75-3.249232-.4510816-5.351147-.6077236-8.625-.625zm0 44c8.831999-.000001 16 7.168 16 16-.000001 8.832-7.168001 16-16 16-8.832 0-16-7.168-16-16 .000001-8.832001 7.168001-16 16-16z"
       fill="url(#n)"
       id="path64" />
  </mask>
  <radialGradient
     id="n"
     cx="-84"
     cy="64"
     gradientUnits="userSpaceOnUse"
     r="60"
     xlink:href="#o" />
  <linearGradient
     id="o">
    <stop
       offset="0"
       stop-color="#fff"
       id="stop68" />
    <stop
       offset="1"
       stop-color="#fff"
       stop-opacity="0"
       id="stop70" />
  </linearGradient>
  <radialGradient
     id="p"
     cx="94.818924"
     cy="67.895119"
     gradientTransform="matrix(1,0,0,0.5780636,0,-101.84696)"
     gradientUnits="userSpaceOnUse"
     r="43.734375"
     xlink:href="#o" />
  <clipPath
     id="q">
    <path
       d="m76.90625-70.062499c-2.912256 3.972096-7.607051 6.5625-12.90625 6.5625-4.895788 0-9.283068-2.188651-12.21875-5.65625-23.139626-4.28557-26.617645 14.039708-31.5 30.75.408832.434.807117.86458 1.28125 1.34375 2.32718 2.30274 3.94598 3.67766 6.5625 5.65625.78852.57188 1.78325.6855 2.46875 0l7.09375-6.25c.76064-.63163 1.70649-.62292 2.375-.25l.09375-.09375c3.52766 2.01717 7.328189 3.60952 11.34375 4.6875v.15625c.736402.20901 1.440029.85927 1.53125 1.84375l.59375 9.4375c.000001.96944.78805 1.59681 1.75 1.75 3.249233.45108 5.351147.60772 8.625.625 3.273854-.01728 5.375768-.17392 8.625-.625.961947-.15319 1.75-.78056 1.75-1.75l.59375-9.4375c.09122-.98448.794849-1.63474 1.53125-1.84375v-.15625c4.015558-1.07798 7.816095-2.67033 11.34375-4.6875l.09375.09375c.668508-.37292 1.614362-.38163 2.375.25l7.09375 6.25c.685504.68551 1.680237.57189 2.46875 0 2.61651-1.97859 4.23531-3.35351 6.5625-5.65625.48542-.49057.8952-.93141 1.3125-1.375 3.92353-7.086674-25.609227-43.434539-30.84375-31.625z"
       id="path74" />
  </clipPath>
  <filter
     id="r">
    <feGaussianBlur
       stdDeviation="1.2828183"
       id="feGaussianBlur77" />
  </filter>
  <radialGradient
     id="s"
     cx="64"
     cy="64"
     gradientUnits="userSpaceOnUse"
     r="60"
     xlink:href="#o"
     gradientTransform="matrix(0.11455086,0,0,0.11455086,-0.327742,-0.318758)" />
  <linearGradient
     id="t"
     gradientUnits="userSpaceOnUse"
     x1="53.46933"
     x2="52.46933"
     y1="-13.03309"
     y2="167.9669">
    <stop
       offset="0"
       stop-color="#767676"
       id="stop81" />
    <stop
       offset="1"
       stop-color="#767676"
       stop-opacity="0"
       id="stop83" />
  </linearGradient>
  <filter
     id="u">
    <feGaussianBlur
       stdDeviation=".60500001"
       id="feGaussianBlur86" />
  </filter>
  <linearGradient
     id="v"
     gradientUnits="userSpaceOnUse"
     x1="62.907379"
     x2="62.991142"
     xlink:href="#o"
     y1="3.391029"
     y2="9.393529" />
  <filter
     id="w">
    <feGaussianBlur
       stdDeviation=".022901589"
       id="feGaussianBlur90" />
  </filter>
  <linearGradient
     id="x"
     gradientUnits="userSpaceOnUse"
     x1="43.713863"
     x2="18.252157"
     xlink:href="#y"
     y1="11.36219"
     y2="21.728621" />
  <linearGradient
     id="y">
    <stop
       offset="0"
       stop-color="#fff"
       id="stop94" />
    <stop
       offset=".5"
       stop-color="#fff"
       stop-opacity=".503597"
       id="stop96" />
    <stop
       offset="1"
       stop-color="#fff"
       id="stop98" />
  </linearGradient>
  <filter
     id="z">
    <feGaussianBlur
       stdDeviation=".093056358"
       id="feGaussianBlur101" />
  </filter>
  <linearGradient
     id="A"
     gradientUnits="userSpaceOnUse"
     x1="52.721935"
     x2="38.62756"
     xlink:href="#y"
     y1="17.796528"
     y2="22.658024" />
  <filter
     id="B"
     height="1.133383"
     width="1.225559"
     x="-.112779"
     y="-.066691">
    <feGaussianBlur
       stdDeviation=".13268874"
       id="feGaussianBlur105" />
  </filter>
  <filter
     id="C">
    <feGaussianBlur
       stdDeviation=".20386597"
       id="feGaussianBlur108" />
  </filter>
  <linearGradient
     id="D"
     gradientUnits="userSpaceOnUse"
     x1="63.993221"
     x2="63.993221"
     xlink:href="#o"
     y1="80.369598"
     y2="66.131996" />
  <filter
     id="E">
    <feGaussianBlur
       stdDeviation=".11909804"
       id="feGaussianBlur112" />
  </filter>
  <filter
     id="F">
    <feGaussianBlur
       stdDeviation=".48701799"
       id="feGaussianBlur115" />
  </filter>
  <filter
     id="G">
    <feGaussianBlur
       stdDeviation=".12356379"
       id="feGaussianBlur118" />
  </filter>
  <filter
     id="H">
    <feGaussianBlur
       stdDeviation=".069666275"
       id="feGaussianBlur121" />
  </filter>
  <linearGradient
     id="I"
     gradientUnits="userSpaceOnUse"
     x1="310.84995"
     x2="310.84995"
     y1="-27.656115"
     y2="270.16995">
    <stop
       offset="0"
       id="stop124" />
    <stop
       offset=".5"
       stop-color="#fff"
       id="stop126" />
    <stop
       offset="1"
       stop-color="#fff"
       id="stop128" />
  </linearGradient>
  <filter
     id="J">
    <feGaussianBlur
       stdDeviation=".11377897"
       id="feGaussianBlur131" />
  </filter>
  <radialGradient
     id="K"
     cx="54.672985"
     cy="6.849921"
     fx="54.045624"
     fy="6.341433"
     gradientTransform="matrix(1 0 0 1.9019608 0 -6.17836)"
     gradientUnits="userSpaceOnUse"
     r="1.2891">
    <stop
       offset="0"
       stop-color="#fff"
       id="stop134" />
    <stop
       offset=".5"
       stop-color="#fff"
       stop-opacity=".791367"
       id="stop136" />
    <stop
       offset="1"
       stop-color="#fff"
       stop-opacity="0"
       id="stop138" />
  </radialGradient>
  <radialGradient
     id="L"
     cx="54.672985"
     cy="6.849921"
     gradientTransform="matrix(1 0 0 1.9019608 0 -6.17836)"
     gradientUnits="userSpaceOnUse"
     r="1.2891">
    <stop
       offset="0"
       stop-color="#474747"
       id="stop141" />
    <stop
       offset="1"
       stop-color="#474747"
       stop-opacity="0"
       id="stop143" />
  </radialGradient>
  <linearGradient
     id="M"
     gradientUnits="userSpaceOnUse"
     x1="114.2963"
     x2="114.2963"
     y1="49.937351"
     y2="61.877388">
    <stop
       offset="0"
       stop-color="#fff"
       stop-opacity="0"
       id="stop146" />
    <stop
       offset=".32512316"
       stop-color="#fff"
       id="stop148" />
    <stop
       offset="1"
       stop-color="#fff"
       stop-opacity="0"
       id="stop150" />
  </linearGradient>
  <g
     id="g1255">
    <rect
       style="opacity:0.57714299;fill:url(#linearGradient1240);stroke-width:2.79427862;stroke-miterlimit:4;stroke-dasharray:none;filter:url(#h)"
       id="rect155"
       y="1032.4822"
       x="3.0000279"
       width="121.99997"
       transform="matrix(0.12134814,0,0,0.2563763,0.20002472,-251.17821)"
       ry="2.1959951"
       rx="2.4399951"
       height="4.3919902" />
    <path
       inkscape:connector-curvature="0"
       style="fill:#f0e3ec;fill-opacity:1"
       id="path157"
       d="m 0.48595887,1.1486365 c -0.5,0 -0.5,0.3826937 -0.5,0.5 v 1.5 5 c 0,0.554 0.446,1 1,1 H 13.985959 c 0.554,0 1,-0.446 1,-1 v -5 c 0,-0.554 -0.446,-1 -1,-1 H 5.8902558 c -0.084201,-0.4859507 -0.178001,-1 -0.4042969,-1 z" />
    <path
       style="fill:#fcf9e9"
       inkscape:connector-curvature="0"
       id="path159"
       d="M 0.98595887,2.1486365 H 3.9859589 V 3.1486364 H 0.98595887 Z" />
    <path
       inkscape:connector-curvature="0"
       style="opacity:1;fill:#9d3a9b;fill-opacity:1"
       id="path161"
       d="m 0.48595887,1.1486365 c -0.5,0 -0.5,0.3826937 -0.5,0.5 v 1.5 5 c 0,0.554 0.446,1 1,1 v -6 -1 H 4.8687714 c 0.013345,0.068527 0.023996,0.094239 0.037109,0.1699219 0.082673,0.4792195 0.4980774,0.8295107 0.9843754,0.8300781 h 1.0957031 7.0000001 v 6 c 0.554,0 1,-0.446 1,-1 v -5 c 0,-0.554 -0.446,-1 -1,-1 H 5.8902558 c -0.084201,-0.4859507 -0.178001,-1 -0.4042969,-1 z" />
    <path
       d="m 7.1333257,0.7060825 c -0.375022,0.002 -0.615799,0.01992 -0.988001,0.07159 -0.110192,0.01755 -0.200464,0.08941 -0.200464,0.200464 l -0.06801,1.0810739 c -0.01014,0.109417 -0.08667,0.181486 -0.168246,0.207623 -0.0025,8.02e-4 -0.0047,0.0029 -0.0072,0.0036 -0.471588,0.126582 -0.919034,0.311803 -1.331654,0.55126 -0.07464,0.03229 -0.170925,0.03035 -0.25058,-0.0358 l -0.81256,-0.715943 c -0.07852,-0.07853 -0.192471,-0.06551 -0.282797,0 -0.299723,0.226649 -0.485159,0.384146 -0.75174,0.647928 -0.263781,0.266581 -0.421279,0.452016 -0.647928,0.75174 -0.06551,0.09033 -0.07852,0.204273 0,0.282798 l 0.715943,0.812595 c 0.05427,0.06535 0.08433,0.14993 0.0537,0.211203 l -0.0072,0.01432 c -0.257226,0.4352474 -0.457615,0.9091111 -0.587073,1.4104074 -0.0014,0.00236 -0.0021,0.00483 -0.0036,0.00716 -0.03634,0.058746 -0.09799,0.1067133 -0.182566,0.1145509 l -1.08107305,0.068015 c -0.111051,0 -0.182916,0.090272 -0.200465,0.200464 -0.05167,0.3722021 -0.06961,0.6129788 -0.07159,0.9880011 0.002,0.3750224 0.01992,0.6157991 0.07159,0.9880017 0.01755,0.110192 0.08941,0.200464 0.200465,0.200464 l 1.08107305,0.068014 c 0.09936,0.0092 0.165348,0.07406 0.196885,0.146769 0.126376,0.474624 0.316876,0.923762 0.558435,1.3388135 0.04272,0.07658 0.04372,0.184927 -0.02864,0.27206 l -0.715942,0.812594 c -0.07852,0.07852 -0.06551,0.192471 0,0.282797 0.226649,0.299724 0.384147,0.485159 0.647928,0.75174 0.266581,0.263781 0.452016,0.421279 0.75174,0.647928 0.09033,0.06551 0.204273,0.07852 0.282797,0 l 0.812596,-0.715942 c 0.08713,-0.07235 0.19548,-0.07136 0.272058,-0.02864 l 0.01074,-0.01073 c 0.404097,0.231069 0.839451,0.413474 1.299436,0.536958 v 0.0179 c 0.08435,0.02394 0.164957,0.09843 0.175406,0.211203 l 0.06801,1.081074 c 0,0.11105 0.09027,0.182915 0.200464,0.200463 0.372202,0.05167 0.612979,0.06962 0.988001,0.07159 0.375023,-0.002 0.6158,-0.01992 0.988002,-0.07159 0.110192,-0.01755 0.200464,-0.08941 0.200464,-0.200463 l 0.06801,-1.081074 c 0.01045,-0.112773 0.09105,-0.187261 0.175406,-0.211203 v -0.0179 c 0.459986,-0.123484 0.895341,-0.305889 1.299436,-0.536958 l 0.01074,0.01073 c 0.07658,-0.04272 0.1849263,-0.04372 0.2720583,0.02864 l 0.812594,0.715942 c 0.07852,0.07853 0.192473,0.06551 0.282798,0 0.299724,-0.226649 0.485159,-0.384147 0.75174,-0.647928 0.263781,-0.266581 0.421279,-0.452016 0.647928,-0.75174 0.06551,-0.09032 0.07853,-0.204272 0,-0.282797 l -0.715942,-0.812595 c -0.07235,-0.08713 -0.07136,-0.195482 -0.02864,-0.27206 0.241559,-0.4150515 0.432059,-0.8641895 0.558435,-1.3388145 0.03154,-0.0727 0.09753,-0.137561 0.196885,-0.146768 l 1.081073,-0.06801 c 0.111052,0 0.182917,-0.09027 0.200464,-0.200464 0.05167,-0.372202 0.06961,-0.6129787 0.07159,-0.9880011 -0.002,-0.3750223 -0.01992,-0.615799 -0.07159,-0.9880011 -0.01755,-0.1101922 -0.08941,-0.200464 -0.200464,-0.200464 l -1.081073,-0.068015 c -0.08458,-0.00784 -0.146229,-0.055805 -0.182566,-0.1145509 -6.87e-4,-0.00251 -0.0029,-0.00465 -0.0036,-0.00716 -0.129443,-0.5012999 -0.360958,-0.9582112 -0.587057,-1.410411 l -0.0072,-0.01432 c -0.03064,-0.06127 -5.73e-4,-0.145854 0.0537,-0.211203 l 0.715943,-0.812595 c 0.07852,-0.07853 0.06551,-0.192472 0,-0.282798 -0.226649,-0.299725 -0.384148,-0.485159 -0.647929,-0.75174 -0.26658,-0.263782 -0.452015,-0.421279 -0.75174,-0.647928 -0.09032,-0.06551 -0.204271,-0.07853 -0.282797,0 l -0.812559,0.715943 c -0.07966,0.06615 -0.1759433,0.06809 -0.2505793,0.0358 -0.41262,-0.239457 -0.860066,-0.424678 -1.331654,-0.551276 -0.0025,-7.1e-4 -0.0047,-0.0028 -0.0072,-0.0036 -0.08157,-0.02614 -0.158108,-0.09821 -0.168247,-0.207624 l -0.06801,-1.0810729 c 0,-0.111052 -0.09027,-0.182917 -0.200464,-0.200464 -0.372202,-0.05167 -0.612979,-0.06962 -0.988001,-0.07159 z m 0,5.0402376 c 1.011713,0 1.832814,0.8211005 1.832814,1.8328137 0,1.0117137 -0.821101,1.8328137 -1.832814,1.8328137 -1.011713,0 -1.832814,-0.8211 -1.832814,-1.8328137 0,-1.0117132 0.821101,-1.8328137 1.832814,-1.8328137 z"
       style="fill:#e602b4;fill-opacity:1;stroke:#f3b7d9;stroke-width:0.5;stroke-linecap:round;stroke-linejoin:round;stroke-miterlimit:4;stroke-dasharray:none;stroke-dashoffset:1.08780003;stroke-opacity:1;paint-order:markers fill stroke"
       id="path165"
       inkscape:connector-curvature="0" />
    <path
       d="m -83.999999,4 c -3.273853,0.017276 -5.375768,0.1739184 -8.625,0.625 -0.96195,0.153184 -1.75,0.7805494 -1.75,1.75 l -0.59375,9.4375 c -0.08851,0.955194 -0.756643,1.58433 -1.46875,1.8125 -0.02183,0.007 -0.0406,0.02503 -0.0625,0.03125 -4.116841,1.105169 -8.022931,2.722102 -11.625001,4.8125 -0.65155,0.281931 -1.49213,0.264937 -2.1875,-0.3125 l -7.09375,-6.25 c -0.6855,-0.685498 -1.68023,-0.57188 -2.46875,0 -2.61651,1.978592 -4.23532,3.353505 -6.5625,5.65625 -2.30274,2.327183 -3.67766,3.945984 -5.65625,6.5625 -0.57188,0.788521 -0.6855,1.783252 0,2.46875 l 6.25,7.09375 c 0.47372,0.570479 0.7362,1.308846 0.46875,1.84375 l -0.0625,0.125 c -2.24552,3.7996 -3.99486,7.936313 -5.125,12.3125 -0.0118,0.02064 -0.0187,0.04216 -0.0313,0.0625 -0.31721,0.512841 -0.85539,0.931584 -1.59375,1 l -9.4375,0.59375 c -0.96944,0 -1.59681,0.78805 -1.75,1.75 -0.45108,3.249232 -0.60772,5.351147 -0.625,8.625 0.0173,3.273853 0.17392,5.375768 0.625,8.625 0.15319,0.961946 0.78056,1.75 1.75,1.75 l 9.4375,0.59375 c 0.86735,0.08037 1.44344,0.646567 1.71875,1.28125 1.10323,4.143354 2.76625,8.064208 4.875,11.6875 0.37292,0.668507 0.38163,1.614364 -0.25,2.375 l -6.25,7.09375 c -0.6855,0.685496 -0.57188,1.680227 0,2.46875 1.97859,2.61651 3.35351,4.23531 5.65625,6.5625 2.32718,2.30274 3.94598,3.67766 6.5625,5.65625 0.78852,0.57188 1.78325,0.6855 2.46875,0 l 7.09375,-6.25 c 0.76064,-0.63163 1.70649,-0.62292 2.375,-0.25 l 0.0937,-0.0937 c 3.52766,2.01717 7.32819,3.60952 11.343751,4.6875 v 0.15625 c 0.736401,0.20901 1.440029,0.85927 1.53125,1.84375 l 0.59375,9.4375 c 0,0.96944 0.78805,1.59681 1.75,1.75 3.249232,0.45108 5.351147,0.60772 8.625,0.625 3.273853,-0.0173 5.375768,-0.17392 8.625,-0.625 0.961946,-0.15319 1.75,-0.78056 1.75,-1.75 l 0.59375,-9.4375 c 0.09122,-0.98448 0.794849,-1.63474 1.53125,-1.84375 v -0.15625 c 4.015557,-1.07798 7.816095,-2.67033 11.34375,-4.6875 l 0.09375,0.0937 c 0.668507,-0.37292 1.614362,-0.38163 2.375,0.25 l 7.09375,6.25 c 0.685503,0.68551 1.680237,0.57189 2.46875,0 2.61651,-1.97859 4.23531,-3.35351 6.5625,-5.65625 2.30274,-2.32719 3.67766,-3.94599 5.65625,-6.5625 0.57189,-0.788513 0.68551,-1.783245 0,-2.46875 l -6.25,-7.09375 c -0.63163,-0.76064 -0.62292,-1.706493 -0.25,-2.375 2.10875,-3.623292 3.77177,-7.544146 4.875,-11.6875 0.27531,-0.634683 0.8514,-1.20088 1.71875,-1.28125 l 9.4375,-0.59375 c 0.96945,0 1.59682,-0.788054 1.75,-1.75 0.45108,-3.249232 0.60772,-5.351147 0.625,-8.625 -0.01728,-3.273853 -0.17392,-5.375768 -0.625,-8.625 -0.15318,-0.96195 -0.78055,-1.75 -1.75,-1.75 l -9.4375,-0.59375 c -0.73836,-0.06842 -1.27654,-0.487159 -1.59375,-1 -0.0056,-0.02192 -0.02559,-0.04059 -0.03125,-0.0625 -1.13014,-4.376187 -3.15121,-8.364911 -5.125,-12.3125 l -0.0625,-0.125 c -0.26745,-0.534904 -0.005,-1.273273 0.46875,-1.84375 l 6.25,-7.09375 c 0.68551,-0.685506 0.57188,-1.680234 0,-2.46875 -1.97859,-2.616516 -3.35351,-4.23532 -5.65625,-6.5625 -2.32718,-2.302747 -3.94598,-3.677659 -6.5625,-5.65625 -0.788516,-0.571884 -1.783244,-0.685505 -2.46875,0 l -7.09375,6.25 c -0.695376,0.577435 -1.535955,0.594432 -2.1875,0.3125 -3.602075,-2.090398 -7.508163,-3.707331 -11.625,-4.8125 -0.0219,-0.0062 -0.04067,-0.02426 -0.0625,-0.03125 -0.712107,-0.22817 -1.380239,-0.857306 -1.46875,-1.8125 l -0.59375,-9.4375 c 0,-0.9694506 -0.788054,-1.596816 -1.75,-1.75 -3.249232,-0.4510816 -5.351147,-0.6077236 -8.625,-0.625 z m 0,44 c 8.831999,-10e-7 16,7.168 16,16 -10e-7,8.832 -7.168001,16 -16,16 -8.832,0 -16,-7.168 -16,-16 10e-7,-8.832001 7.168001,-16 16,-16 z"
       mask="url(#m)"
       transform="matrix(0.11455086,0,0,0.11455086,16.611744,-0.17012151)"
       id="path169"
       style="fill:#000000;fill-opacity:0"
       inkscape:connector-curvature="0" />
    <path
       clip-path="url(#q)"
       d="m 76.90625,-70.062499 c -2.912256,3.972096 -7.607051,6.5625 -12.90625,6.5625 -4.895788,0 -9.283068,-2.188651 -12.21875,-5.65625 l -31.5,30.75 c 0.408832,0.434 0.807117,0.86458 1.28125,1.34375 2.32718,2.30274 3.94598,3.67766 6.5625,5.65625 0.78852,0.57188 1.78325,0.6855 2.46875,0 l 7.09375,-6.25 c 0.76064,-0.63163 1.70649,-0.62292 2.375,-0.25 l 0.09375,-0.09375 c 3.52766,2.01717 7.328189,3.60952 11.34375,4.6875 v 0.15625 c 0.736402,0.20901 1.440029,0.85927 1.53125,1.84375 l 0.59375,9.4375 c 10e-7,0.96944 0.78805,1.59681 1.75,1.75 3.249233,0.45108 5.351147,0.60772 8.625,0.625 3.273854,-0.01728 5.375768,-0.17392 8.625,-0.625 0.961947,-0.15319 1.75,-0.78056 1.75,-1.75 l 0.59375,-9.4375 c 0.09122,-0.98448 0.794849,-1.63474 1.53125,-1.84375 v -0.15625 c 4.015558,-1.07798 7.816095,-2.67033 11.34375,-4.6875 l 0.09375,0.09375 c 0.668508,-0.37292 1.614362,-0.38163 2.375,0.25 l 7.09375,6.25 c 0.685504,0.68551 1.680237,0.57189 2.46875,0 2.61651,-1.97859 4.23531,-3.35351 6.5625,-5.65625 0.48542,-0.49057 0.8952,-0.93141 1.3125,-1.375 z"
       transform="matrix(0.11120427,0,0,0.11465307,0.00320603,16.272495)"
       id="path171"
       style="opacity:0.43122702;fill:url(#radialGradient1113);stroke-width:4.36487341;stroke-miterlimit:4;stroke-dasharray:none;filter:url(#r)"
       inkscape:connector-curvature="0" />
    <path
       transform="matrix(0.11120427,0,0,0.11465307,0.0032058,-0.18022085)"
       d="m 48.310016,64.191133 c -0.0047,0.158737 -0.04717,0.311795 -0.04717,0.471676 0,8.676524 7.077434,15.70679 15.753958,15.70679 8.676524,0 15.706795,-7.030263 15.70679,-15.70679 0,-0.159881 -0.04242,-0.312939 -0.04717,-0.471676 -0.228367,8.47772 -7.127084,15.282283 -15.659622,15.282283 -8.53254,0 -15.478418,-6.804563 -15.70679,-15.282283 z"
       id="path205"
       style="opacity:0.873606;fill:url(#linearGradient1131);stroke-width:4.36487341;stroke-miterlimit:4;stroke-dasharray:none;filter:url(#E)"
       inkscape:connector-curvature="0" />
    <path
       transform="matrix(0.11120427,0,0,0.11465307,0.0032058,-0.18022085)"
       d="m 48.310016,64.191133 c -0.0047,0.158737 -0.04717,0.311795 -0.04717,0.471676 0,8.676524 7.077434,16.70679 15.753958,16.70679 8.676524,0 15.706795,-8.030263 15.70679,-16.70679 0,-0.159881 -0.04242,-0.312939 -0.04717,-0.471676 -0.228367,8.47772 -7.127084,15.282283 -15.659622,15.282283 -8.53254,0 -15.478418,-6.804563 -15.70679,-15.282283 z"
       id="path211"
       style="opacity:0.34572503;fill:url(#D);stroke-width:4.36487341;stroke-miterlimit:4;stroke-dasharray:none;filter:url(#E)"
       inkscape:connector-curvature="0" />
    <path
       transform="matrix(0.11120427,0,0,0.11465307,0.0032058,-0.18022085)"
       d="m 112.31492,97.901603 c 0.0523,0.557603 -0.12652,1.038158 -0.35746,1.501345 l -3.36016,4.361052 3.07419,-4.361052 c -0.13497,-0.516373 -0.19007,-1.072681 -0.50045,-1.501345 -1.78571,-2.200652 -4.06047,-4.319796 -5.07598,-6.648814 z"
       id="path213"
       inkscape:connector-curvature="0"
       style="fill:#ffffff;fill-rule:evenodd;stroke-width:4.36487341;stroke-miterlimit:4;stroke-dasharray:none;filter:url(#H)" />
    <path
       d="m 112.31492,97.901603 c 0.0523,0.557603 -0.12652,1.038158 -0.35746,1.501345 l -3.36016,4.361052 3.07419,-4.361052 c -0.13497,-0.516373 -0.19007,-1.072681 -0.50045,-1.501345 -1.78571,-2.200652 -4.06047,-4.319796 -5.07598,-6.648814 z"
       transform="matrix(-0.11120427,0,0,0.11465307,14.283963,-0.18022085)"
       id="path215"
       inkscape:connector-curvature="0"
       style="fill:#ffffff;fill-rule:evenodd;stroke-width:4.36487341;stroke-miterlimit:4;stroke-dasharray:none;filter:url(#H)" />
    <path
       inkscape:connector-curvature="0"
       style="fill:#f3b7d9;fill-opacity:1;stroke:#9d3a9b;stroke-width:0.49286187;stroke-miterlimit:4;stroke-dasharray:none;stroke-opacity:1"
       id="path225"
       d="M 1.292158,8.1459597 H 3.7191207 L 4.6899059,7.1450674 H 14.88315 c 0.537815,0 0.970785,0.446398 0.970785,1.0008923 v 6.0053543 c 0,0.554494 -0.43297,1.000892 -0.970785,1.000892 H 1.292158 c -0.53781498,0 -0.97078514,-0.446398 -0.97078514,-1.000892 V 9.1468519 c 0,-0.5544942 0.55082219,-1.3472821 0.97078514,-1.0008922 z" />
    <path
       inkscape:connector-curvature="0"
       style="fill:#9d3a9b;fill-opacity:1;stroke-width:0.49286187;stroke-miterlimit:4;stroke-dasharray:none"
       id="path233"
       d="M 0.32137286,13.150421 H 15.853935 v 0.500447 H 0.32137286 Z" />
  </g>
</svg>
