<?xml version="1.0" encoding="UTF-8" standalone="no"?>
<svg
   xmlns:dc="http://purl.org/dc/elements/1.1/"
   xmlns:cc="http://creativecommons.org/ns#"
   xmlns:rdf="http://www.w3.org/1999/02/22-rdf-syntax-ns#"
   xmlns:svg="http://www.w3.org/2000/svg"
   xmlns="http://www.w3.org/2000/svg"
   xmlns:xlink="http://www.w3.org/1999/xlink"
   xmlns:sodipodi="http://sodipodi.sourceforge.net/DTD/sodipodi-0.dtd"
   xmlns:inkscape="http://www.inkscape.org/namespaces/inkscape"
   height="16"
   viewBox="0 0 4.2333333 4.2333335"
   width="16"
   version="1.1"
   id="svg181"
   sodipodi:docname="sc_linewidth.svg"
   inkscape:version="0.92.4 (unknown)">
  <metadata
     id="metadata187">
    <rdf:RDF>
      <cc:Work
         rdf:about="">
        <dc:format>image/svg+xml</dc:format>
        <dc:type
           rdf:resource="http://purl.org/dc/dcmitype/StillImage" />
        <dc:title></dc:title>
      </cc:Work>
    </rdf:RDF>
  </metadata>
  <defs
     id="defs185">
    <linearGradient
       inkscape:collect="always"
       xlink:href="#u"
       id="linearGradient1002"
       gradientUnits="userSpaceOnUse"
       x1="115.87172"
       y1="15.978862"
       x2="115.87172"
       y2="21.070753" />
    <linearGradient
       inkscape:collect="always"
       xlink:href="#w"
       id="linearGradient1004"
       gradientUnits="userSpaceOnUse"
       x1="116.65481"
       y1="19.834764"
       x2="116.65481"
       y2="13.314766" />
    <radialGradient
       inkscape:collect="always"
       xlink:href="#f"
       id="radialGradient1008"
       gradientUnits="userSpaceOnUse"
       gradientTransform="matrix(1,0,0,2,0,-13.09375)"
       cx="115.73438"
       cy="13.09375"
       r=".234375" />
  </defs>
  <sodipodi:namedview
     pagecolor="#ffffff"
     bordercolor="#666666"
     borderopacity="1"
     objecttolerance="10"
     gridtolerance="10"
     guidetolerance="10"
     inkscape:pageopacity="0"
     inkscape:pageshadow="2"
     inkscape:window-width="1366"
     inkscape:window-height="707"
     id="namedview183"
     showgrid="true"
     inkscape:lockguides="false"
     inkscape:zoom="11.040948"
     inkscape:cx="11.110347"
     inkscape:cy="5.1560935"
     inkscape:window-x="0"
     inkscape:window-y="0"
     inkscape:window-maximized="1"
     inkscape:current-layer="svg181">
    <inkscape:grid
       type="xygrid"
       id="grid1096"
       spacingx="0.13229167"
       spacingy="0.13229167"
       empspacing="2" />
  </sodipodi:namedview>
  <clipPath
     id="a">
    <path
       d="m0 0h33.866669v33.866669h-33.866669z"
       id="path2" />
  </clipPath>
  <linearGradient
     id="b"
     gradientUnits="userSpaceOnUse"
     x1="115.87172"
     x2="115.87172"
     xlink:href="#u"
     y1="15.978862"
     y2="21.070753" />
  <linearGradient
     id="c"
     gradientUnits="userSpaceOnUse"
     x1="116.65481"
     x2="116.65481"
     xlink:href="#w"
     y1="19.834764"
     y2="13.314766" />
  <linearGradient
     id="d"
     gradientTransform="matrix(-0.6343044,9.7192e-4,9.7192e-4,0.6343044,502.08488,7.597355)"
     gradientUnits="userSpaceOnUse"
     x1="603.9809"
     x2="603.88495"
     xlink:href="#w"
     y1="8.632738"
     y2="-53.995659" />
  <radialGradient
     id="e"
     cx="115.73438"
     cy="13.09375"
     gradientTransform="matrix(1,0,0,2,0,-13.09375)"
     gradientUnits="userSpaceOnUse"
     r=".234375"
     xlink:href="#f" />
  <linearGradient
     id="f">
    <stop
       offset="0"
       id="stop9" />
    <stop
       offset="1"
       stop-opacity="0"
       id="stop11" />
  </linearGradient>
  <linearGradient
     id="g"
     gradientTransform="matrix(-0.39215953,6.0089e-4,6.0089e-4,0.39215953,256.98539,274.46338)"
     gradientUnits="userSpaceOnUse"
     x1="599.76892"
     x2="617.85608"
     y1="10.25"
     y2="10.25">
    <stop
       offset="0"
       stop-color="#dccc1c"
       id="stop14" />
    <stop
       offset=".03125"
       stop-color="#815804"
       id="stop16" />
    <stop
       offset=".25"
       stop-color="#f6eaa1"
       id="stop18" />
    <stop
       offset=".375"
       stop-color="#ecdf4c"
       id="stop20" />
    <stop
       offset=".5"
       stop-color="#d2ae11"
       id="stop22" />
    <stop
       offset=".625"
       stop-color="#ecc954"
       id="stop24" />
    <stop
       offset=".75"
       stop-color="#eeef8c"
       id="stop26" />
    <stop
       offset=".875"
       stop-color="#ecd333"
       id="stop28" />
    <stop
       offset="1"
       stop-color="#8d7012"
       id="stop30" />
  </linearGradient>
  <clipPath
     id="h">
    <path
       d="m609.5-9.7310634c-.92108 0-1.66967 1.7901359-.57279 3.0908208-1.6397 7.19232925-4.64407 12.6744227-7.78327 18.0141776 1.53423 5.966829 1.71386 12.435724 2.02162 18.857128h12.66888c.30775-6.421404.48739-12.890299 2.02162-18.857128-3.13921-5.3397549-6.14357-10.82184835-7.78327-18.0141776 1.09688-1.3006849.34829-3.0908208-.57279-3.0908208z"
       id="path33" />
  </clipPath>
  <filter
     id="i"
     color-interpolation-filters="sRGB">
    <feGaussianBlur
       stdDeviation=".21238951"
       id="feGaussianBlur36" />
  </filter>
  <radialGradient
     id="j"
     cx="607.97925"
     cy="14.200003"
     fx="607.80249"
     fy="12.992581"
     gradientTransform="matrix(1.3158649,-6.6e-7,3.95e-6,7.8761359,-192.03935,-97.640746)"
     gradientUnits="userSpaceOnUse"
     r="3.637785">
    <stop
       offset="0"
       stop-color="#ebe8c9"
       id="stop39" />
    <stop
       offset="1"
       stop-color="#ebe8c9"
       stop-opacity="0"
       id="stop41" />
  </radialGradient>
  <filter
     id="k"
     color-interpolation-filters="sRGB"
     height="1.041431"
     width="1.223493"
     x="-.111746"
     y="-.020715">
    <feGaussianBlur
       stdDeviation=".29219641"
       id="feGaussianBlur44" />
  </filter>
  <linearGradient
     id="l"
     gradientTransform="matrix(-0.28775091,4.4091e-4,4.4091e-4,0.28775091,149.85541,263.94008)"
     gradientUnits="userSpaceOnUse"
     x1="469.10562"
     x2="460.06363"
     xlink:href="#m"
     y1="108.02052"
     y2="108.02052" />
  <linearGradient
     id="m">
    <stop
       offset="0"
       stop-color="#848484"
       id="stop48" />
    <stop
       offset="1"
       stop-color="#848484"
       stop-opacity="0"
       id="stop50" />
  </linearGradient>
  <linearGradient
     id="n"
     gradientTransform="matrix(-0.07581202,1.1616e-4,0.00404329,0.28774541,54.517569,264.08616)"
     gradientUnits="userSpaceOnUse"
     x1="446.25714"
     x2="470.73825"
     y1="108.02052"
     y2="108.02052">
    <stop
       offset="0"
       stop-color="#8a8a8a"
       id="stop53" />
    <stop
       offset="1"
       stop-color="#8a8a8a"
       stop-opacity="0"
       id="stop55" />
  </linearGradient>
  <linearGradient
     id="o"
     gradientTransform="matrix(-0.07581202,1.1616e-4,0.00149602,0.28774931,53.38275,264.0879)"
     gradientUnits="userSpaceOnUse"
     x1="446.25714"
     x2="470.73825"
     xlink:href="#m"
     y1="108.02052"
     y2="108.02052" />
  <linearGradient
     id="p"
     gradientTransform="matrix(-0.06235523,1.1614526e-4,-1.7486133e-6,-0.00138749,33.871166,4.1507572)"
     gradientUnits="userSpaceOnUse"
     x1="496.73438"
     x2="521.59375"
     y1="210.5"
     y2="210.5">
    <stop
       offset="0"
       stop-color="#e7d511"
       id="stop59" />
    <stop
       offset=".03125"
       stop-color="#865a00"
       id="stop61" />
    <stop
       offset=".25"
       stop-color="#fff197"
       id="stop63" />
    <stop
       offset=".375"
       stop-color="#ffee39"
       id="stop65" />
    <stop
       offset=".5"
       stop-color="#e3b900"
       id="stop67" />
    <stop
       offset=".625"
       stop-color="#ffd341"
       id="stop69" />
    <stop
       offset=".75"
       stop-color="#feff7c"
       id="stop71" />
    <stop
       offset=".875"
       stop-color="#ffe120"
       id="stop73" />
    <stop
       offset="1"
       stop-color="#9f7a00"
       id="stop75" />
  </linearGradient>
  <linearGradient
     id="q"
     gradientTransform="matrix(-0.05923859,1.1034009e-4,-6.0228347e-5,-0.04778259,29.26315,-2.8907649)"
     gradientUnits="userSpaceOnUse"
     x1="458.41772"
     x2="458.41772"
     xlink:href="#r"
     y1="-140.25208"
     y2="-138.62123" />
  <linearGradient
     id="r">
    <stop
       offset="0"
       stop-color="#8e4900"
       id="stop79" />
    <stop
       offset=".5"
       stop-color="#c68c2f"
       stop-opacity="0"
       id="stop81" />
    <stop
       offset="1"
       stop-color="#ffd05e"
       stop-opacity="0"
       id="stop83" />
  </linearGradient>
  <linearGradient
     id="s"
     gradientTransform="matrix(-0.05923859,1.1034009e-4,-6.0228347e-5,-0.04778259,29.26315,-2.8907649)"
     gradientUnits="userSpaceOnUse"
     x1="458.41772"
     x2="458.41772"
     xlink:href="#r"
     y1="-136.2464"
     y2="-137.18941" />
  <linearGradient
     id="t"
     gradientTransform="matrix(-0.05923859,1.642272e-4,9.0768449e-5,0.10717979,29.258864,-11.246589)"
     gradientUnits="userSpaceOnUse"
     x1="471.79645"
     x2="471.80264"
     xlink:href="#f"
     y1="138.90254"
     y2="142.94009" />
  <linearGradient
     id="u">
    <stop
       offset="0"
       stop-color="#723700"
       id="stop88" />
    <stop
       offset="1"
       stop-color="#723700"
       stop-opacity="0"
       id="stop90" />
  </linearGradient>
  <filter
     id="v"
     color-interpolation-filters="sRGB">
    <feGaussianBlur
       stdDeviation=".019545487"
       id="feGaussianBlur93" />
  </filter>
  <linearGradient
     id="w">
    <stop
       offset="0"
       stop-color="#fffdc6"
       id="stop96" />
    <stop
       offset="1"
       stop-color="#fffdc6"
       stop-opacity="0"
       id="stop98" />
  </linearGradient>
  <linearGradient
     id="x"
     gradientTransform="matrix(0.23370027,0,0,0.15696935,-24.93044,-0.27045671)"
     gradientUnits="userSpaceOnUse"
     x1="115.95076"
     x2="115.95076"
     xlink:href="#w"
     y1="2.179006"
     y2="3.440277" />
  <filter
     id="y"
     color-interpolation-filters="sRGB">
    <feGaussianBlur
       stdDeviation=".011591528"
       id="feGaussianBlur102" />
  </filter>
  <linearGradient
     id="z"
     gradientTransform="matrix(-0.09149733,1.4019761e-4,1.4019761e-4,0.09149733,57.880045,0.91287665)"
     gradientUnits="userSpaceOnUse"
     x1="608.68866"
     x2="608.74402"
     xlink:href="#u"
     y1="-10.962992"
     y2="25.148411" />
  <filter
     id="A"
     color-interpolation-filters="sRGB">
    <feGaussianBlur
       stdDeviation=".0031015633"
       id="feGaussianBlur106" />
  </filter>
  <linearGradient
     id="B"
     gradientTransform="matrix(0.22201947,0,0,0.14912371,-23.581742,-0.21318625)"
     gradientUnits="userSpaceOnUse"
     x1="115.95076"
     x2="115.95076"
     xlink:href="#w"
     y1="2.179006"
     y2="3.440277" />
  <linearGradient
     id="C"
     gradientTransform="matrix(-0.09149733,1.401975e-4,1.401975e-4,0.09149733,57.882703,0.91287625)"
     gradientUnits="userSpaceOnUse"
     x1="608.68866"
     x2="608.74402"
     xlink:href="#u"
     y1="-10.962992"
     y2="25.148411" />
  <path
     d="M 2.8803728,4.0170079 1.352671,4.0198579 C 1.3311007,3.953854 1.3298261,3.8868492 1.3523763,3.8186705 l 1.5277016,-0.00285 c 0.021566,0.062945 0.02284,0.1297781 2.946e-4,0.2011863 z"
     id="path133"
     style="fill:url(#p);stroke-width:0.24559176"
     inkscape:connector-curvature="0" />
  <g
     transform="matrix(-0.15183742,0,0,-0.15183742,19.698997,4.9071183)"
     id="g145"
     style="fill-rule:evenodd">
    <path
       d="m 111.1875,13.975694 c 1.05235,0.728353 2.09162,1.922989 2.90625,3.210649 0.81463,1.287659 1.39177,2.686362 1.5,3.782407 0.0135,0.10674 0.11561,0.09025 0.125,0 0.10824,-1.096045 0.68537,-2.494748 1.5,-3.782407 0.81463,-1.28766 1.90077,-2.482296 2.95312,-3.210649 l -0.043,-0.08116 c -1.06789,0.739111 -2.14973,1.903073 -2.97266,3.203849 -0.78178,1.235736 -1.34712,2.538407 -1.5,3.650463 -0.15288,-1.112056 -0.71822,-2.414728 -1.5,-3.650463 -0.81525,-1.288645 -1.85011,-2.492854 -2.90763,-3.233827 l -0.0611,0.111141 z"
       id="path141"
       style="fill:url(#linearGradient1002);filter:url(#v)"
       inkscape:connector-curvature="0" />
    <path
       d="m 111.21731,13.940875 c 1.04215,0.671655 2.07623,1.835853 2.853,3.026148 0.7326,1.122612 1.36052,2.5799 1.55078,3.542364 l 0.0391,0.234375 0.0313,-0.226562 c 0.19027,-0.978089 0.80255,-2.427565 1.55468,-3.55799 0.7958,-1.193978 1.84609,-2.377078 2.89844,-3.045217 l -0.0508,-0.113224 c -1.06789,0.678007 -2.11457,1.892325 -2.9375,3.085563 -0.78178,1.133576 -1.34712,2.428552 -1.5,3.448672 -0.15288,-1.02012 -0.71822,-2.315097 -1.5,-3.448672 -0.80855,-1.172389 -1.8331,-2.365125 -2.88154,-3.049533 l -0.0574,0.104076 z"
       id="path143"
       style="fill:url(#linearGradient1004);filter:url(#v)"
       inkscape:connector-curvature="0" />
  </g>
  <ellipse
     cx="2.1190894"
     cy="0.16140606"
     rx="0.082625419"
     ry="0.089796208"
     id="ellipse147"
     style="opacity:0.93069296;fill:url(#x);stroke-width:0.24559176" />
  <ellipse
     cx="115.73438"
     cy="13.09375"
     rx="0.234375"
     ry="0.46875"
     transform="matrix(0.2657155,0,0,0.21510302,-28.631921,-1.0872606)"
     id="ellipse149"
     style="filter:url(#y)" />
  <ellipse
     cx="115.73438"
     cy="13.09375"
     rx="0.234375"
     ry="0.46875"
     transform="matrix(0.2657155,0,0,0.21510302,-28.631921,-1.0872606)"
     id="ellipse155"
     style="fill:url(#radialGradient1008);filter:url(#y)" />
  <path
     d="M 2.1196996,0.0675882 C 2.2084109,0.06745662 2.280772,0.23975072 2.1753222,0.36518386 2.3343053,1.0576417 2.694094,1.5851856 2.9972223,2.0989995 2.8503392,2.6738978 2.7643679,3.1577004 2.7356738,3.7761992 L 1.5155203,3.778157 C 1.4849326,3.159753 1.3970514,2.6760043 1.2484087,2.1015573 1.5499593,1.5868171 1.9081294,1.0583864 2.0649912,0.36544307 1.9591558,0.24033492 2.0309888,0.06781451 2.1196996,0.06767767 Z"
     id="path159"
     inkscape:connector-curvature="0"
     style="fill:#f3b7d9;fill-opacity:1;stroke:#9d3a9b;stroke-width:0.13157645;stroke-opacity:1" />
  <path
     d="m 2.8831703,4.156259 -1.5277018,0.00285 c -0.02157,-0.066 -0.022845,-0.2722566 -2.894e-4,-0.3404343 l 1.5277015,-0.00285 c 0.021566,0.062946 0.022841,0.2690304 2.894e-4,0.3404383 z"
     id="path161"
     inkscape:connector-curvature="0"
     style="fill:#e602b4;fill-opacity:1;stroke:#9d3a9b;stroke-width:0.15183738;stroke-opacity:1" />
  <path
     d="m 111.1875,14.892805 c 1.05235,0.728353 2.09162,1.922989 2.90625,3.210649 0.81463,1.287659 1.39177,2.686362 1.5,3.782407 0.0135,0.10674 0.11561,0.09025 0.125,0 0.10824,-1.096045 0.68537,-2.494748 1.5,-3.782407 0.81463,-1.28766 1.90077,-2.482296 2.95312,-3.210649 l -0.043,-0.998271 c -1.06789,0.739111 -2.14973,1.903073 -2.97266,3.203849 -0.78178,1.235736 -1.34712,2.538407 -1.5,3.650463 -0.15288,-1.112056 -0.71822,-2.414728 -1.5,-3.650463 -0.81525,-1.288645 -1.85011,-2.492854 -2.90763,-3.233827 l -0.0611,1.028252 z"
     transform="matrix(-0.15183742,0,0,-0.15183742,19.701795,4.9071184)"
     id="path163"
     style="fill:#e602b4;fill-opacity:1;fill-rule:evenodd;stroke:#9d3a9b;stroke-opacity:1;filter:url(#v)"
     inkscape:connector-curvature="0" />
  <path
     d="m 2.1326585,1.7338654 c -0.017498,0 -0.03543,-0.01021 -0.043431,-0.021428 -0.008,-0.011213 -0.010158,-0.022328 -0.010537,-0.032932 -5.434e-4,-0.01523 0.00708,-0.029483 0.014134,-0.043757 A 0.03409007,0.02992094 0 0 1 2.092568,1.6328084 L 2.094888,0.36540644 C 2.054911,0.34605734 2.031586,0.30411604 2.031669,0.25601136 c 5.43e-5,-0.0315657 0.010168,-0.060301 0.027241,-0.0825532 0.017074,-0.0222806 0.04397,-0.0397445 0.076325,-0.0396971 0.032172,4.263e-5 0.059378,0.0170997 0.076582,0.0396971 0.017159,0.0225417 0.026782,0.0514011 0.026727,0.0827784 -8.63e-5,0.0479159 -0.023472,0.089612 -0.063218,0.10894414 l -0.00232,1.2676297 a 0.03409007,0.02992094 0 0 1 -2.566e-4,0.00248 c 0.00669,0.014317 0.013453,0.028661 0.013106,0.044209 -2.315e-4,0.0104 -0.00189,0.021352 -0.00977,0.032707 -0.00787,0.011351 -0.026148,0.021653 -0.043431,0.021653 z m -0.039576,-0.098569 c 0.00273,-0.00544 0.00145,-0.011558 0.0054,-0.016691 l -0.0054,0.012181 c -1.921e-4,0.00104 -7.65e-5,0.00281 0,0.00452 z m 0.079408,-9.239e-4 c 2.28e-5,-0.00151 2.356e-4,-0.00285 0,-0.00406 l -0.00412,-0.00992 c 0.00283,0.00431 0.00195,0.00947 0.00412,0.013985 z"
     id="path175"
     style="fill:#e602b4;fill-opacity:1;stroke-width:0.12326839"
     inkscape:connector-curvature="0" />
</svg>
