<?xml version="1.0" encoding="UTF-8" standalone="no"?>
<svg
   xmlns:dc="http://purl.org/dc/elements/1.1/"
   xmlns:cc="http://creativecommons.org/ns#"
   xmlns:rdf="http://www.w3.org/1999/02/22-rdf-syntax-ns#"
   xmlns:svg="http://www.w3.org/2000/svg"
   xmlns="http://www.w3.org/2000/svg"
   xmlns:xlink="http://www.w3.org/1999/xlink"
   xmlns:sodipodi="http://sodipodi.sourceforge.net/DTD/sodipodi-0.dtd"
   xmlns:inkscape="http://www.inkscape.org/namespaces/inkscape"
   height="16"
   viewBox="0 0 16 16"
   width="16"
   version="1.1"
   id="svg116"
   sodipodi:docname="sc_listbox.svg"
   inkscape:version="0.92.4 (unknown)"
   inkscape:export-filename="/home/annisaauliarasyidah/Desktop/4_242 (aulia)/sc done /sc_listbox.png"
   inkscape:export-xdpi="96"
   inkscape:export-ydpi="96">
  <metadata
     id="metadata122">
    <rdf:RDF>
      <cc:Work
         rdf:about="">
        <dc:format>image/svg+xml</dc:format>
        <dc:type
           rdf:resource="http://purl.org/dc/dcmitype/StillImage" />
        <dc:title></dc:title>
      </cc:Work>
    </rdf:RDF>
  </metadata>
  <defs
     id="defs120" />
  <sodipodi:namedview
     pagecolor="#ffffff"
     bordercolor="#666666"
     borderopacity="1"
     objecttolerance="10"
     gridtolerance="10"
     guidetolerance="10"
     inkscape:pageopacity="0"
     inkscape:pageshadow="2"
     inkscape:window-width="1366"
     inkscape:window-height="707"
     id="namedview118"
     showgrid="true"
     inkscape:snap-global="true"
     inkscape:zoom="29.5"
     inkscape:cx="9.2486637"
     inkscape:cy="9.1811995"
     inkscape:window-x="0"
     inkscape:window-y="0"
     inkscape:window-maximized="1"
     inkscape:current-layer="svg116">
    <inkscape:grid
       type="xygrid"
       id="grid929"
       spacingx="0.5"
       spacingy="0.5"
       empspacing="2" />
  </sodipodi:namedview>
  <linearGradient
     id="a">
    <stop
       offset="0"
       stop-color="#9f9f9f"
       id="stop2" />
    <stop
       offset="1"
       stop-color="#828282"
       id="stop4" />
  </linearGradient>
  <linearGradient
     id="b">
    <stop
       offset="0"
       stop-color="#a19d9c"
       stop-opacity=".392157"
       id="stop7" />
    <stop
       offset=".5"
       stop-color="#605b59"
       id="stop9" />
    <stop
       offset="1"
       stop-color="#999493"
       stop-opacity=".639216"
       id="stop11" />
  </linearGradient>
  <linearGradient
     id="c">
    <stop
       offset="0"
       stop-color="#fff"
       id="stop14" />
    <stop
       offset="1"
       stop-color="#bbb"
       id="stop16" />
  </linearGradient>
  <linearGradient
     id="d"
     gradientTransform="matrix(0.0880669,0,0,0.08349097,7.7005555,-0.65593763)"
     gradientUnits="userSpaceOnUse"
     x1="21.416348"
     x2="27.068035"
     xlink:href="#b"
     y1="13.17709"
     y2="6.032567" />
  <linearGradient
     id="e"
     gradientTransform="matrix(-0.08835033,0,0,0.08375968,17.903729,-0.66031162)"
     gradientUnits="userSpaceOnUse"
     x1="21.416348"
     x2="27.068035"
     xlink:href="#b"
     y1="13.17709"
     y2="6.032567" />
  <linearGradient
     id="f"
     gradientTransform="matrix(0.09285557,0,0,-0.08392205,7.4312388,16.494806)"
     gradientUnits="userSpaceOnUse"
     x1="21.416348"
     x2="27.068035"
     xlink:href="#b"
     y1="13.17709"
     y2="6.032567" />
  <linearGradient
     id="g"
     gradientTransform="matrix(-0.08490968,0,0,-0.07674062,17.866717,16.377903)"
     gradientUnits="userSpaceOnUse"
     x1="21.416348"
     x2="27.068035"
     xlink:href="#b"
     y1="13.17709"
     y2="6.032567" />
  <filter
     id="h"
     height="1.127949"
     width="1.076818"
     x="-0.038408998"
     y="-0.063974001"
     style="color-interpolation-filters:sRGB">
    <feGaussianBlur
       stdDeviation=".65166516"
       id="feGaussianBlur23" />
  </filter>
  <linearGradient
     id="i">
    <stop
       offset="0"
       stop-color="#cbcbcd"
       id="stop26" />
    <stop
       offset=".5"
       stop-color="#e0e0e2"
       id="stop28" />
    <stop
       offset="1"
       stop-color="#f2f2f2"
       id="stop30" />
  </linearGradient>
  <linearGradient
     id="j"
     gradientTransform="matrix(0.20292409,0,0,0.1072422,-8.7814255,1.0752052)"
     gradientUnits="userSpaceOnUse"
     x1="108.18441"
     x2="110.46671"
     xlink:href="#i"
     y1="68"
     y2="-8.7429781" />
  <linearGradient
     id="k"
     gradientTransform="matrix(0.13163721,0,0,0.12565873,-2.0565063,-0.10254925)"
     gradientUnits="userSpaceOnUse"
     x1="15.545933"
     x2="91.512299"
     xlink:href="#a"
     y1="64.480598"
     y2="64.480598" />
  <linearGradient
     id="l"
     gradientTransform="matrix(0.17154299,0,0,0.1327001,-5.5301532,-0.27471625)"
     gradientUnits="userSpaceOnUse"
     x1="-52.973675"
     x2="121.62088"
     xlink:href="#a"
     y1="75.053032"
     y2="96" />
  <linearGradient
     id="m"
     gradientTransform="matrix(0.15950363,0,0,0.125,-4.4321141,-0.018043)"
     gradientUnits="userSpaceOnUse"
     x1="87.2715"
     x2="127.9982"
     xlink:href="#a"
     y1="17.4561"
     y2="17.4561" />
  <linearGradient
     id="n"
     gradientTransform="matrix(0.2400225,0,0,0.18810112,-6.6643952,-8.1132043)"
     gradientUnits="userSpaceOnUse"
     x1="108"
     x2="108.49657"
     xlink:href="#i"
     y1="16.285156"
     y2="0" />
  <linearGradient
     id="o"
     gradientTransform="matrix(0.15453905,0,0,0.125,-3.8960995,-0.24558213)"
     gradientUnits="userSpaceOnUse"
     x1="107.56683"
     x2="107.55835"
     xlink:href="#c"
     y1="7.446701"
     y2="30.97431" />
  <linearGradient
     id="p"
     gradientTransform="matrix(0.15453905,0,0,0.125,-3.8960995,-0.24558213)"
     gradientUnits="userSpaceOnUse"
     x1="107.42249"
     x2="107.41401"
     xlink:href="#i"
     y1="14.230735"
     y2="0.0018" />
  <linearGradient
     id="q"
     gradientTransform="matrix(0.16072378,0,0,0.125,-4.5884902,-0.018043)"
     gradientUnits="userSpaceOnUse"
     x1="110.5439"
     x2="112.96127"
     y1="34.9104"
     y2="99.802628">
    <stop
       offset="0"
       stop-color="#525252"
       id="stop40" />
    <stop
       offset="1"
       stop-color="#575757"
       id="stop42" />
  </linearGradient>
  <linearGradient
     id="r"
     gradientTransform="matrix(0.1447742,0,0,0.11259551,-2.8717601,0.84802625)"
     gradientUnits="userSpaceOnUse"
     x1="110.5439"
     x2="110.86439"
     xlink:href="#c"
     y1="34.9104"
     y2="102.11436" />
  <linearGradient
     id="s"
     gradientTransform="matrix(0.24019201,0,0,-0.18810112,-6.6863907,15.96374)"
     gradientUnits="userSpaceOnUse"
     x1="108"
     x2="108.49657"
     xlink:href="#i"
     y1="16.285156"
     y2="0" />
  <linearGradient
     id="t"
     gradientTransform="matrix(0.15961628,0,0,-0.125,-4.4467309,15.981957)"
     gradientUnits="userSpaceOnUse"
     x1="87.2715"
     x2="127.9982"
     xlink:href="#a"
     y1="17.4561"
     y2="17.4561" />
  <linearGradient
     id="u"
     gradientTransform="matrix(0.15513215,0,0,-0.12148836,-3.9640834,15.910442)"
     gradientUnits="userSpaceOnUse"
     x1="107.42249"
     x2="110.5439"
     xlink:href="#i"
     y1="14.230735"
     y2="49.605202" />
  <linearGradient
     id="v"
     gradientTransform="matrix(0.15513215,0,0,-0.12148836,-3.9640834,15.910442)"
     gradientUnits="userSpaceOnUse"
     x1="106.95444"
     x2="110.5439"
     xlink:href="#c"
     y1="46.5448"
     y2="5.8181" />
  <g
     id="g891"
     transform="matrix(0.66441198,0,0,0.66378761,0.00875476,5.3910777)">
    <path
       d="M -0.010083,-8.0860526 H 16.557989 V 16.018043 H -0.010083 Z"
       id="path50"
       style="fill:#81007f;fill-opacity:1;stroke-width:0.19726147"
       inkscape:connector-curvature="0" />
    <path
       d="M 2,-6 H 14.285603 V 14 H 2 Z"
       id="path52"
       inkscape:connector-curvature="0"
       style="fill:#f0e3ec;fill-opacity:1;stroke-width:0.17621918" />
    <path
       d="m 16.47056,14.868933 c -0.441759,0 -0.797513,-0.290377 -0.797513,-0.651373 v -1.537507 l -0.0069,-2.631256 V 9.397055 h 0.797513 5.399158 0.797511 v 0.651742 l 0.0069,2.631256 v 1.537507 c 0,0.360996 -0.35575,0.651373 -0.797511,0.651373 z"
       id="path54"
       style="fill:url(#s);stroke-width:0.18810113"
       inkscape:connector-curvature="0" />
    <path
       style="fill:#81007f;fill-opacity:1;stroke-width:0.21255678"
       inkscape:connector-curvature="0"
       id="path64"
       d="m 19.250968,13.547643 a 0.06309125,0.04940854 0 0 1 -0.04781,-0.02042 l -2.154136,-2.337394 a 0.06309125,0.04940854 0 0 1 0.05119,-0.07828 h 0.896228 a 0.06309125,0.04940854 0 0 1 0.05118,0.0208 l 1.206722,1.309562 1.206723,-1.309562 a 0.06309125,0.04940854 0 0 1 0.05118,-0.0208 h 0.896228 a 0.06309125,0.04940854 0 0 1 0.05119,0.07828 l -2.154136,2.337394 a 0.06309125,0.04940854 0 0 1 -0.05457,0.02042 z" />
    <path
       d="m 16.476212,-7.0183964 c -0.441448,0 -0.79695,0.2903774 -0.79695,0.6513736 v 1.5375064 l -0.0069,2.6312564 v 0.6517418 h 0.79695 5.395346 0.79695 V -2.19826 l 0.0069,-2.6312564 v -1.5375064 c 0,-0.3609962 -0.355497,-0.6513736 -0.796948,-0.6513736 z"
       id="path68"
       style="fill:url(#n);stroke-width:0.18810113"
       inkscape:connector-curvature="0" />
    <path
       d="M 15.428639,-8.0860526 C 14.637208,-8.0860526 14,-7.5964349 14,-6.9883158 V -2.5977378 -1.5 H 15.428639 22.571362 24 v -1.0977378 -4.390578 c 0,-0.6081191 -0.637214,-1.0977368 -1.428638,-1.0977368 z"
       id="path70"
       style="fill:#e602b4;fill-opacity:1;stroke-width:0.19053717"
       inkscape:connector-curvature="0" />
    <path
       sodipodi:nodetypes="ssccccccssssccccccsss"
       d="m 16.222684,-6.9446804 c -0.427707,0 -0.772144,0.2889366 -0.772144,0.6481415 v 1.5298772 l -0.0068,2.6181552 V -1.5 h 0.723545 l 0.0508,-0.1778489 v -2.7127689 l 0.02077,-1.2947014 c 0.0046,-0.2828425 0.163177,-0.5106902 0.500003,-0.5106902 h 4.116898 c 0.336826,0 0.608174,0.2278113 0.608174,0.5106902 v 1.2045273 L 21.5,-2.0106901 V -1.5 h 0.715368 v -0.6485065 l 0.0068,-2.6181552 v -1.5298772 c 0,-0.3592049 -0.344436,-0.6481415 -0.772146,-0.6481415 z"
       id="path84"
       style="fill:#f0e3ec;fill-opacity:1;stroke-width:0.18763387"
       inkscape:connector-curvature="0" />
    <g
       style="fill:#81007f;fill-opacity:1"
       transform="matrix(0.23330697,0,0,0.18283831,-6.1939635,-7.4333723)"
       id="g90">
      <path
         d="m 107.98633,10.574219 a 0.25518704,0.25518704 0 0 0 -0.19336,0.105469 l -8.712892,12.072265 a 0.25518704,0.25518704 0 0 0 0.207031,0.404297 h 3.625001 a 0.25518704,0.25518704 0 0 0 0.20703,-0.107422 L 108,16.285156 l 4.88086,6.763672 a 0.25518704,0.25518704 0 0 0 0.20703,0.107422 h 3.625 a 0.25518704,0.25518704 0 0 0 0.20703,-0.404297 l -8.71289,-12.072265 a 0.25518704,0.25518704 0 0 0 -0.2207,-0.105469 z"
         id="path88"
         inkscape:connector-curvature="0"
         style="fill:#81007f;fill-opacity:1" />
    </g>
    <rect
       height="10.533663"
       rx="1.4103104"
       ry="1.0943911"
       width="6.7868137"
       x="15.790411"
       y="-1.3415656"
       id="rect94"
       style="fill:#81007f;fill-opacity:1;stroke-width:0.18831176" />
    <path
       inkscape:connector-curvature="0"
       style="fill:#e602b4;fill-opacity:1;stroke-width:0.31093928"
       id="path1029"
       d="m 15.5,16 c -0.791431,0 -1.428639,-1.303913 -1.428639,-2.923412 V 1.3839259 -1.539489 H 15.5 22.642723 24.071361 V 1.3839259 13.076588 C 24.071361,14.696087 23.434147,16 22.642723,16 Z" />
    <rect
       height="9.0288544"
       rx="1.2675167"
       ry="0.98578817"
       width="5.2668314"
       x="16.542816"
       y="-0.58916092"
       id="rect96"
       style="fill:#ffffff;fill-opacity:1;stroke-width:0.18810113" />
    <path
       d="m 18.209204,0.1632458 c -0.506504,0 -0.913983,0.3059186 -0.913983,0.6857881 V 7.00187 c 0,0.281813 0.225048,0.522337 0.547716,0.628008 0.0093,3.57e-4 0.018,0.002 0.02736,0.0023 l 2.003101,0.05557 h 0.269857 c 0.506503,0 0.913984,-0.305919 0.913984,-0.685788 V 0.8490339 c 0,-0.3798695 -0.407481,-0.6857881 -0.913984,-0.6857881 z"
       id="path98"
       style="fill:#f3b7d9;fill-opacity:1;stroke-width:0.18810113"
       inkscape:connector-curvature="0" />
    <rect
       ry="0.50000006"
       y="-4"
       x="4"
       height="1.0000001"
       width="8.0435619"
       id="rect984"
       style="opacity:1;fill:#e602b4;fill-opacity:1;fill-rule:evenodd;stroke:none;stroke-width:0.31708759;stroke-linecap:round;stroke-linejoin:miter;stroke-miterlimit:4;stroke-dasharray:none;stroke-opacity:1;paint-order:stroke fill markers" />
    <rect
       style="opacity:1;fill:#e602b4;fill-opacity:1;fill-rule:evenodd;stroke:none;stroke-width:0.31708759;stroke-linecap:round;stroke-linejoin:miter;stroke-miterlimit:4;stroke-dasharray:none;stroke-opacity:1;paint-order:stroke fill markers"
       id="rect1019"
       width="8.0435619"
       height="1.0000001"
       x="3.9564381"
       y="-2"
       ry="0.50000006" />
    <rect
       ry="0.50000006"
       y="0"
       x="4"
       height="1.0000001"
       width="8.0435619"
       id="rect1021"
       style="opacity:1;fill:#e602b4;fill-opacity:1;fill-rule:evenodd;stroke:none;stroke-width:0.31708759;stroke-linecap:round;stroke-linejoin:miter;stroke-miterlimit:4;stroke-dasharray:none;stroke-opacity:1;paint-order:stroke fill markers" />
    <rect
       style="opacity:1;fill:#e602b4;fill-opacity:1;fill-rule:evenodd;stroke:none;stroke-width:0.31708759;stroke-linecap:round;stroke-linejoin:miter;stroke-miterlimit:4;stroke-dasharray:none;stroke-opacity:1;paint-order:stroke fill markers"
       id="rect1023"
       width="8.0435619"
       height="1.0000001"
       x="4"
       y="7"
       ry="0.50000006" />
    <rect
       ry="0.50000006"
       y="9"
       x="3.9564381"
       height="1.0000001"
       width="8.0435619"
       id="rect1025"
       style="opacity:1;fill:#e602b4;fill-opacity:1;fill-rule:evenodd;stroke:none;stroke-width:0.31708759;stroke-linecap:round;stroke-linejoin:miter;stroke-miterlimit:4;stroke-dasharray:none;stroke-opacity:1;paint-order:stroke fill markers" />
    <rect
       style="opacity:1;fill:#e602b4;fill-opacity:1;fill-rule:evenodd;stroke:none;stroke-width:0.31708759;stroke-linecap:round;stroke-linejoin:miter;stroke-miterlimit:4;stroke-dasharray:none;stroke-opacity:1;paint-order:stroke fill markers"
       id="rect1027"
       width="8.0435619"
       height="1.0000001"
       x="3.9564381"
       y="11"
       ry="0.50000006" />
    <g
       id="g1035"
       transform="matrix(0.23330697,0,0,-0.18283831,-5.9430065,15.481015)"
       style="fill:#81007f;fill-opacity:1">
      <path
         style="fill:#81007f;fill-opacity:1"
         inkscape:connector-curvature="0"
         id="path1033"
         d="m 107.98633,10.574219 a 0.25518704,0.25518704 0 0 0 -0.19336,0.105469 l -8.712892,12.072265 a 0.25518704,0.25518704 0 0 0 0.207031,0.404297 h 3.625001 a 0.25518704,0.25518704 0 0 0 0.20703,-0.107422 L 108,16.285156 l 4.88086,6.763672 a 0.25518704,0.25518704 0 0 0 0.20703,0.107422 h 3.625 a 0.25518704,0.25518704 0 0 0 0.20703,-0.404297 l -8.71289,-12.072265 a 0.25518704,0.25518704 0 0 0 -0.2207,-0.105469 z" />
    </g>
    <path
       sodipodi:nodetypes="sccccccccsscccccccss"
       d="m 16.613572,15.211336 c -0.45701,0 -0.821947,-0.282231 -0.825045,-0.633075 l -0.01689,-1.913575 -0.0072,-2.557294 V 9.473961 h 0.773117 V 9.97278 l 0.0019,2.579072 0.0024,1.408262 c 4.8e-4,0.276301 0.289942,0.498817 0.649844,0.498817 h 4.39895 c 0.359904,0 0.409833,-0.18263 0.409352,-0.458931 0,0 0.0013,-2.648082 0,-4 L 22.235693,9.473961 H 23 v 0.633431 l 0.0072,2.557294 0.01689,1.913575 c 0.0031,0.350844 -0.36804,0.633075 -0.825051,0.633075 z"
       id="path60"
       style="fill:#f0e3ec;fill-opacity:1;stroke-width:0.19406594"
       inkscape:connector-curvature="0" />
  </g>
</svg>
