<?xml version="1.0" encoding="UTF-8" standalone="no"?>
<svg
   xmlns:dc="http://purl.org/dc/elements/1.1/"
   xmlns:cc="http://creativecommons.org/ns#"
   xmlns:rdf="http://www.w3.org/1999/02/22-rdf-syntax-ns#"
   xmlns:svg="http://www.w3.org/2000/svg"
   xmlns="http://www.w3.org/2000/svg"
   xmlns:xlink="http://www.w3.org/1999/xlink"
   xmlns:sodipodi="http://sodipodi.sourceforge.net/DTD/sodipodi-0.dtd"
   xmlns:inkscape="http://www.inkscape.org/namespaces/inkscape"
   height="16"
   width="16"
   version="1.1"
   id="svg64"
   sodipodi:docname="sc_morphing.svg"
   inkscape:export-filename="/home/annisaauliarasyidah/Desktop/4_242 (aulia)/sc 222/sc_morphing.png"
   inkscape:export-xdpi="96"
   inkscape:export-ydpi="96"
   inkscape:version="0.92.4 (unknown)">
  <metadata
     id="metadata70">
    <rdf:RDF>
      <cc:Work
         rdf:about="">
        <dc:format>image/svg+xml</dc:format>
        <dc:type
           rdf:resource="http://purl.org/dc/dcmitype/StillImage" />
      </cc:Work>
    </rdf:RDF>
  </metadata>
  <defs
     id="defs68" />
  <sodipodi:namedview
     pagecolor="#ffffff"
     bordercolor="#666666"
     borderopacity="1"
     objecttolerance="10"
     gridtolerance="10"
     guidetolerance="10"
     inkscape:pageopacity="0"
     inkscape:pageshadow="2"
     inkscape:window-width="1366"
     inkscape:window-height="707"
     id="namedview66"
     showgrid="false"
     inkscape:zoom="14.75"
     inkscape:cx="0.13559322"
     inkscape:cy="8"
     inkscape:window-x="0"
     inkscape:window-y="0"
     inkscape:window-maximized="1"
     inkscape:current-layer="svg64" />
  <linearGradient
     id="a"
     gradientTransform="matrix(.76189483 0 0 1.0158609 -3.046726 -19.300523)"
     gradientUnits="userSpaceOnUse"
     x1="119.57646"
     x2="15.999996"
     y1="23.792561"
     y2="109.6508">
    <stop
       offset="0"
       stop-color="#fff"
       id="stop2" />
    <stop
       offset=".42597079"
       stop-color="#fff"
       id="stop4" />
    <stop
       offset=".5892781"
       stop-color="#e5e5e5"
       id="stop6" />
    <stop
       offset=".80219781"
       stop-color="#eaeaea"
       id="stop8" />
    <stop
       offset="1"
       stop-color="#eee"
       id="stop10" />
  </linearGradient>
  <linearGradient
     id="b"
     gradientTransform="matrix(0.00867537,0,0,0.01394114,6.095793,-1.1609768)"
     gradientUnits="userSpaceOnUse"
     x1="399.77466"
     x2="399.77466"
     y1="1164.6696"
     y2="549.06134">
    <stop
       offset="0"
       stop-color="#717174"
       id="stop13" />
    <stop
       offset=".5"
       stop-color="#9c9ca1"
       id="stop15" />
    <stop
       offset="1"
       stop-color="#bdbdc2"
       id="stop17" />
  </linearGradient>
  <linearGradient
     id="c"
     gradientTransform="matrix(0,-1.8256937,-2.2856842,0,118.85641,200.15699)"
     gradientUnits="userSpaceOnUse"
     x1="102.31124"
     x2="74.330322"
     xlink:href="#d"
     y1="-5.830213"
     y2="32" />
  <linearGradient
     id="d">
    <stop
       offset="0"
       stop-color="#fff"
       id="stop21" />
    <stop
       offset="1"
       stop-color="#fff"
       stop-opacity="0"
       id="stop23" />
  </linearGradient>
  <linearGradient
     id="e"
     gradientTransform="matrix(.09253752 0 0 .14870594 -6.00486 -81.716489)"
     gradientUnits="userSpaceOnUse"
     x1="399.77466"
     x2="399.77466"
     y1="1164.6696"
     y2="549.06134">
    <stop
       offset="0"
       stop-color="#0968ef"
       id="stop26" />
    <stop
       offset="1"
       stop-color="#aecffc"
       id="stop28" />
  </linearGradient>
  <linearGradient
     id="f"
     gradientTransform="matrix(0 -1.3692663 -1.7142582 0 125.14142 179.38729)"
     gradientUnits="userSpaceOnUse"
     x1="102.31124"
     x2="74.330322"
     xlink:href="#d"
     y1="-5.830213"
     y2="32" />
  <linearGradient
     id="g"
     gradientTransform="matrix(0.00867537,0,0,0.01394114,0.09579337,-7.1609769)"
     gradientUnits="userSpaceOnUse"
     x1="399.77466"
     x2="399.77466"
     y1="1164.6696"
     y2="549.06134">
    <stop
       offset="0"
       stop-color="#a9cbfc"
       id="stop32" />
    <stop
       offset="1"
       stop-color="#aecffc"
       id="stop34" />
  </linearGradient>
  <linearGradient
     id="h"
     gradientTransform="matrix(0,-1.3692663,-1.7142582,0,93.141424,155.38729)"
     gradientUnits="userSpaceOnUse"
     x1="102.31124"
     x2="74.330322"
     xlink:href="#d"
     y1="-5.830213"
     y2="32" />
  <rect
     style="fill:#e602b4;stroke-width:0.09374973"
     id="rect38"
     y="6.0759135e-08"
     x="-1.5162144e-08"
     width="10"
     transform="matrix(0,1,1,0,0,0)"
     rx="5"
     height="10" />
  <g
     style="fill-rule:evenodd;fill:#f0e3ec"
     id="g44"
     transform="scale(0.125)">
    <rect
       style="fill:#f0e3ec"
       id="rect40"
       y="5.3341818"
       x="3.640039"
       width="85.33358"
       transform="matrix(0,0.74999783,0.74999783,0,3.999375,5.269979)"
       rx="42.66679"
       height="85.33358" />
    <path
       inkscape:connector-curvature="0"
       style="fill:#f0e3ec"
       id="path42"
       d="M 63.167969,17.896484 C 47.686163,23.599277 27.035191,26.018815 10.419922,27.744141 8.8630983,31.516151 8,35.652914 8,40 8,48.40425 11.210056,56.028058 16.472656,61.726562 35.261722,53.586168 56.393841,42.476584 70.496094,30.253906 69.009055,25.568368 66.474577,21.362227 63.167969,17.896484 Z" />
  </g>
  <rect
     fill="url(#e)"
     height="106.66698"
     rx="40.972454"
     ry="38.251125"
     transform="matrix(0 .09374973 .09374973 0 3.499922 3.658747)"
     width="106.66698"
     x="-7.026659"
     y="-5.332515"
     id="rect48"
     style="fill:#e602b4" />
  <rect
     fill="url(#a)"
     fill-rule="evenodd"
     height="85.33358"
     rx="26.082153"
     ry="31.84684"
     transform="matrix(0 .09374973 .09374973 0 3.499922 3.658747)"
     width="85.33358"
     x="3.640039"
     y="5.334182"
     id="rect50"
     style="fill:#f0e3ec" />
  <path
     d="m99.535156 40.152344c-16.457479 7.287567-40.988052 9.94131-59.535156 11.847656v24.4375c0 4.132369 1.552867 7.956009 4.203125 11.107422 20.429092-8.535045 44.685288-20.915954 59.796875-34.59375v-1.388672c0-4.26609-1.65573-8.202179-4.464844-11.410156z"
     fill="url(#f)"
     fill-rule="evenodd"
     transform="matrix(.125 0 0 .125 -1 0)"
     id="path52" />
  <rect
     style="fill:#9d3a9b;stroke-width:0.09374973"
     id="rect54"
     y="6"
     x="5.9999995"
     width="10"
     transform="matrix(0,1,1,0,0,0)"
     ry="0.39559826"
     rx="0.3401486"
     height="10" />
  <g
     style="fill-rule:evenodd;fill:#f0e3ec"
     id="g60"
     transform="matrix(0.09374973,0,0,0.09374973,6.499922,6.658747)">
    <rect
       style="fill:#f0e3ec"
       id="rect56"
       y="5.3341818"
       x="3.640039"
       width="85.33358"
       transform="matrix(0,1,1,0,0,0)"
       ry="2.0317211"
       rx="1.6879669"
       height="85.33358" />
    <path
       inkscape:connector-curvature="0"
       style="fill:#f0e3ec"
       id="path58"
       d="M 90.667762,31.573906 C 69.118094,51.078937 33.618085,68.609288 5.3341821,79.999954 V 30.306782 C 32.41264,27.523549 69.066163,23.551079 90.667762,11.573906 Z" />
  </g>
</svg>
