<?xml version="1.0" encoding="UTF-8" standalone="no"?>
<svg
   xmlns:dc="http://purl.org/dc/elements/1.1/"
   xmlns:cc="http://creativecommons.org/ns#"
   xmlns:rdf="http://www.w3.org/1999/02/22-rdf-syntax-ns#"
   xmlns:svg="http://www.w3.org/2000/svg"
   xmlns="http://www.w3.org/2000/svg"
   xmlns:sodipodi="http://sodipodi.sourceforge.net/DTD/sodipodi-0.dtd"
   xmlns:inkscape="http://www.inkscape.org/namespaces/inkscape"
   height="16"
   width="16"
   version="1.1"
   id="svg34"
   sodipodi:docname="sc_mergecells.svg"
   inkscape:version="0.92.4 (unknown)"
   inkscape:export-filename="/home/annisaauliarasyidah/Desktop/4_242 (aulia)/sc 222/sc_mergecells.png"
   inkscape:export-xdpi="96"
   inkscape:export-ydpi="96">
  <metadata
     id="metadata40">
    <rdf:RDF>
      <cc:Work
         rdf:about="">
        <dc:format>image/svg+xml</dc:format>
        <dc:type
           rdf:resource="http://purl.org/dc/dcmitype/StillImage" />
      </cc:Work>
    </rdf:RDF>
  </metadata>
  <defs
     id="defs38" />
  <sodipodi:namedview
     pagecolor="#ffffff"
     bordercolor="#666666"
     borderopacity="1"
     objecttolerance="10"
     gridtolerance="10"
     guidetolerance="10"
     inkscape:pageopacity="0"
     inkscape:pageshadow="2"
     inkscape:window-width="1366"
     inkscape:window-height="707"
     id="namedview36"
     showgrid="true"
     inkscape:zoom="14.75"
     inkscape:cx="0.13559322"
     inkscape:cy="8"
     inkscape:window-x="0"
     inkscape:window-y="0"
     inkscape:window-maximized="1"
     inkscape:current-layer="svg34">
    <inkscape:grid
       type="xygrid"
       id="grid852" />
  </sodipodi:namedview>
  <linearGradient
     id="a"
     gradientTransform="matrix(0.13461874,0,0,0.16304754,0.28205138,-0.04399975)"
     gradientUnits="userSpaceOnUse"
     x1="46.048"
     x2="46.048"
     y1="128.01709"
     y2="16.6203">
    <stop
       offset="0"
       stop-color="#c7cdd7"
       id="stop2" />
    <stop
       offset="1"
       stop-color="#fff"
       id="stop4" />
  </linearGradient>
  <linearGradient
     id="b"
     gradientUnits="userSpaceOnUse"
     x1="67.266975"
     x2="67.266975"
     y1="288.20084"
     y2="-56"
     gradientTransform="scale(0.125)">
    <stop
       offset="0"
       id="stop7" />
    <stop
       offset="1"
       stop-color="#fff"
       id="stop9" />
  </linearGradient>
  <linearGradient
     id="c"
     gradientTransform="matrix(0.22826659,0,0,0.21716443,-5.6956514,-5.2152369)"
     gradientUnits="userSpaceOnUse"
     x1="58.665199"
     x2="58.665199"
     y1="53.335201"
     y2="48.001999">
    <stop
       offset="0"
       stop-color="#f1f1f1"
       id="stop12" />
    <stop
       offset="1"
       stop-color="#fff"
       id="stop14" />
  </linearGradient>
  <linearGradient
     id="d"
     gradientUnits="userSpaceOnUse"
     x1="56"
     x2="56"
     y1="88"
     y2="48.994846"
     gradientTransform="scale(0.125)">
    <stop
       offset="0"
       stop-color="#0968ef"
       id="stop17" />
    <stop
       offset="1"
       stop-color="#aecffc"
       id="stop19" />
  </linearGradient>
  <path
     inkscape:connector-curvature="0"
     style="fill:#f0e3ec;stroke-width:0.125"
     id="path22"
     d="M 1,1 H 15 V 14.060662 H 1 Z" />
  <path
     style="opacity:0.26291103;fill:#ffffff;stroke-width:0.125"
     inkscape:connector-curvature="0"
     id="path24"
     d="M 2.1817875,16 H 16.681787 v 0.5 H 2.1817875 Z" />
  <path
     inkscape:connector-curvature="0"
     style="fill:#9d3a9b;stroke-width:0.125;fill-opacity:1"
     id="path26"
     d="M 0,1 V 1.5883884 4 4.5 10 10.5 13.514063 14 h 1 4 1 4 1 4 1 V 13.514063 1 H 1 Z M 1,1.5883884 H 5 V 4 H 1 Z m 5,0 h 4 V 4 H 6 Z m 5,0 h 4 V 4 H 11 Z M 1,4.5 H 5 V 10 H 1 Z m 5,0 h 4 V 10 H 6 Z m 5,0 h 4 V 10 h -4 z m -10,6 h 4 v 3.014063 H 1 Z m 5,0 h 4 v 3.014063 H 6 Z m 5,0 h 4 v 3.014063 h -4 z" />
  <path
     inkscape:connector-curvature="0"
     style="fill:#f3b7d9;stroke-width:0.125"
     id="path28"
     d="m 1,4 h 13.999999 v 7 H 1 Z" />
  <path
     inkscape:connector-curvature="0"
     style="fill:#e602b4;stroke-width:0.125;fill-opacity:1"
     id="path30"
     d="m 0,4 v 7 H 16 V 4 Z m 1,0.625 h 14 v 5.75 H 1 Z" />
</svg>
