<?xml version="1.0" encoding="UTF-8" standalone="no"?>
<svg
   xmlns:dc="http://purl.org/dc/elements/1.1/"
   xmlns:cc="http://creativecommons.org/ns#"
   xmlns:rdf="http://www.w3.org/1999/02/22-rdf-syntax-ns#"
   xmlns:svg="http://www.w3.org/2000/svg"
   xmlns="http://www.w3.org/2000/svg"
   xmlns:sodipodi="http://sodipodi.sourceforge.net/DTD/sodipodi-0.dtd"
   xmlns:inkscape="http://www.inkscape.org/namespaces/inkscape"
   height="16"
   width="16"
   version="1.1"
   id="svg35"
   sodipodi:docname="sc_merge.svg"
   inkscape:version="0.92.4 (unknown)"
   inkscape:export-filename="/home/annisaauliarasyidah/Desktop/4_242 (aulia)/sc 222/sc_merge.png"
   inkscape:export-xdpi="96"
   inkscape:export-ydpi="96">
  <metadata
     id="metadata41">
    <rdf:RDF>
      <cc:Work
         rdf:about="">
        <dc:format>image/svg+xml</dc:format>
        <dc:type
           rdf:resource="http://purl.org/dc/dcmitype/StillImage" />
      </cc:Work>
    </rdf:RDF>
  </metadata>
  <defs
     id="defs39" />
  <sodipodi:namedview
     pagecolor="#ffffff"
     bordercolor="#666666"
     borderopacity="1"
     objecttolerance="10"
     gridtolerance="10"
     guidetolerance="10"
     inkscape:pageopacity="0"
     inkscape:pageshadow="2"
     inkscape:window-width="1366"
     inkscape:window-height="707"
     id="namedview37"
     showgrid="true"
     inkscape:snap-global="false"
     inkscape:zoom="14.75"
     inkscape:cx="-3.3898305"
     inkscape:cy="8"
     inkscape:window-x="0"
     inkscape:window-y="0"
     inkscape:window-maximized="1"
     inkscape:current-layer="svg35">
    <inkscape:grid
       type="xygrid"
       id="grid848" />
  </sodipodi:namedview>
  <linearGradient
     id="a"
     gradientTransform="matrix(0,0.00867537,0.01394114,0,-6.1357967,5.12562)"
     gradientUnits="userSpaceOnUse"
     x1="399.77466"
     x2="399.77466"
     y1="1164.6696"
     y2="549.06134">
    <stop
       offset="0"
       stop-color="#717174"
       id="stop2" />
    <stop
       offset=".5"
       stop-color="#9c9ca1"
       id="stop4" />
    <stop
       offset="1"
       stop-color="#bdbdc2"
       id="stop6" />
  </linearGradient>
  <linearGradient
     id="b"
     gradientTransform="matrix(0,0.57141947,0.76189347,0,-2.475975,42.984941)"
     gradientUnits="userSpaceOnUse"
     x1="119.57646"
     x2="-56.671597"
     y1="23.792561"
     y2="160.75211">
    <stop
       offset="0"
       stop-color="#fff"
       id="stop9" />
    <stop
       offset=".3866711"
       stop-color="#fff"
       id="stop11" />
    <stop
       offset=".78752875"
       stop-color="#e5e5e5"
       id="stop13" />
    <stop
       offset=".84666777"
       stop-color="#eaeaea"
       id="stop15" />
    <stop
       offset="1"
       stop-color="#eee"
       id="stop17" />
  </linearGradient>
  <linearGradient
     id="c"
     gradientTransform="matrix(0,-1.3692663,-1.7142582,0,101.14142,195.38729)"
     gradientUnits="userSpaceOnUse"
     x1="129.03444"
     x2="87.85688"
     y1="-11.001015"
     y2="21.666176">
    <stop
       offset="0"
       stop-color="#fff"
       id="stop20" />
    <stop
       offset="1"
       stop-color="#fff"
       stop-opacity="0"
       id="stop22" />
  </linearGradient>
  <path
     inkscape:connector-curvature="0"
     style="opacity:0.75;fill:#e602b4;stroke-width:0.125"
     id="path25"
     d="M 10.525424,0.40677966 A 5.1230169,5.1230169 0 0 0 5.4275237,5.0298266 h -4.006836 c -0.2191613,0 -0.3955077,0.1516456 -0.3955077,0.3400879 V 14.68974 c 0,0.188442 0.1763464,0.340087 0.3955077,0.340087 h 9.2089843 c 0.219162,0 0.395508,-0.151645 0.395508,-0.340087 V 10.623333 A 5.1230169,5.1230169 0 0 0 15.648228,5.5295825 5.1230169,5.1230169 0 0 0 10.525424,0.40677966 Z" />
  <g
     style="fill-rule:evenodd;fill:#f0e3ec"
     id="g31"
     transform="matrix(0.12275041,0,0,0.125,0.23938327,0.06779661)">
    <path
       inkscape:connector-curvature="0"
       style="fill:#f0e3ec"
       id="path27"
       d="M 84.007812,9.5585938 A 34.44014,34.44014 0 0 0 49.568359,43.998047 34.44014,34.44014 0 0 0 49.84375,48 H 17.523438 C 16.67926,48 16,48.564277 16,49.265625 V 110.73438 C 16,111.43572 16.67926,112 17.523438,112 H 78.476562 C 79.32074,112 80,111.43572 80,110.73438 V 78.181641 A 34.44014,34.44014 0 0 0 84.007812,78.439453 34.44014,34.44014 0 0 0 118.44922,43.998047 34.44014,34.44014 0 0 0 84.007812,9.5585938 Z" />
    <path
       inkscape:connector-curvature="0"
       style="fill:#f0e3ec"
       id="path29"
       d="M 110.57422,22.121094 C 92.35144,31.698733 69.344654,42.21766 49.580078,44.357422 a 34.44014,34.44014 0 0 0 5.433594,18.09375 C 41.995383,65.265088 27.791718,66.788 16,68 v 37.26953 C 33.882494,98.067785 55.587953,87.588016 71.652344,75.712891 A 34.811318,34.811318 0 0 0 72.257812,75.9375 C 88.8235,64.775754 105.04094,50.223943 117.99023,38.494141 a 34.44014,34.44014 0 0 0 -7.41601,-16.373047 z" />
  </g>
</svg>
