<?xml version="1.0" encoding="UTF-8" standalone="no"?>
<svg
   xmlns:dc="http://purl.org/dc/elements/1.1/"
   xmlns:cc="http://creativecommons.org/ns#"
   xmlns:rdf="http://www.w3.org/1999/02/22-rdf-syntax-ns#"
   xmlns:svg="http://www.w3.org/2000/svg"
   xmlns="http://www.w3.org/2000/svg"
   xmlns:xlink="http://www.w3.org/1999/xlink"
   xmlns:sodipodi="http://sodipodi.sourceforge.net/DTD/sodipodi-0.dtd"
   xmlns:inkscape="http://www.inkscape.org/namespaces/inkscape"
   height="16"
   width="16"
   version="1.1"
   id="svg52"
   sodipodi:docname="sc_matchgroup.svg"
   inkscape:version="0.92.4 (unknown)"
   inkscape:export-filename="/home/annisaauliarasyidah/Desktop/4_242 (aulia)/sc 222/sc_matchgroup.png"
   inkscape:export-xdpi="96"
   inkscape:export-ydpi="96">
  <metadata
     id="metadata58">
    <rdf:RDF>
      <cc:Work
         rdf:about="">
        <dc:format>image/svg+xml</dc:format>
        <dc:type
           rdf:resource="http://purl.org/dc/dcmitype/StillImage" />
      </cc:Work>
    </rdf:RDF>
  </metadata>
  <defs
     id="defs56" />
  <sodipodi:namedview
     pagecolor="#ffffff"
     bordercolor="#666666"
     borderopacity="1"
     objecttolerance="10"
     gridtolerance="10"
     guidetolerance="10"
     inkscape:pageopacity="0"
     inkscape:pageshadow="2"
     inkscape:window-width="1366"
     inkscape:window-height="707"
     id="namedview54"
     showgrid="true"
     inkscape:snap-global="false"
     inkscape:zoom="14.75"
     inkscape:cx="0.13559322"
     inkscape:cy="8"
     inkscape:window-x="0"
     inkscape:window-y="0"
     inkscape:window-maximized="1"
     inkscape:current-layer="svg52">
    <inkscape:grid
       type="xygrid"
       id="grid887" />
  </sodipodi:namedview>
  <linearGradient
     id="a">
    <stop
       offset="0"
       stop-color="#fff"
       id="stop2" />
    <stop
       offset="1"
       stop-color="#fff"
       stop-opacity="0"
       id="stop4" />
  </linearGradient>
  <linearGradient
     id="b"
     gradientUnits="userSpaceOnUse"
     x1="80.151077"
     x2="80.151077"
     y1="-112.00012"
     y2="8.000095"
     gradientTransform="matrix(0.125,0,0,0.125,-0.001953,0)">
    <stop
       offset="0"
       stop-color="#232221"
       id="stop7" />
    <stop
       offset=".20000003"
       stop-color="#555350"
       id="stop9" />
    <stop
       offset="1"
       stop-color="#918d88"
       id="stop11" />
  </linearGradient>
  <linearGradient
     id="c"
     gradientTransform="matrix(0.125,0,0,-0.125,-0.001953,1)"
     gradientUnits="userSpaceOnUse"
     x1="76"
     x2="76"
     xlink:href="#a"
     y1="-32"
     y2="-124" />
  <radialGradient
     id="d"
     cx="66.619843"
     cy="125.52064"
     gradientTransform="matrix(0.13028572,0,0,0.06514286,-1.1815675,4.8232259)"
     gradientUnits="userSpaceOnUse"
     r="48"
     xlink:href="#a" />
  <filter
     id="e"
     height="1.438356"
     width="1.438356"
     x="-.219178"
     y="-.219178">
    <feGaussianBlur
       stdDeviation="1.4611876"
       id="feGaussianBlur16" />
  </filter>
  <clipPath
     id="f">
    <path
       d="m108 8c-56.856851-6.4550541-20.421406 2.416483-4 8 3.30365-.176594 7.9579 2.481149 8 8-6.88851 24.743398 27.73448 21.859264 8-4 .007-5.611517-4.44397-11.868932-12-12z"
       id="path19" />
  </clipPath>
  <radialGradient
     id="g"
     cx="112.00771"
     cy="15.99981"
     gradientTransform="matrix(0.70727305,0.70694048,-1.9971123,1.9980518,64.741093,-95.151426)"
     gradientUnits="userSpaceOnUse"
     r="8.007706"
     xlink:href="#a" />
  <linearGradient
     id="h"
     gradientTransform="matrix(0,0.125,0.125,0,-21.115372,-7.9535812)"
     gradientUnits="userSpaceOnUse"
     x1="172.56801"
     x2="178.04466"
     y1="233.48956"
     y2="367.96475">
    <stop
       offset="0"
       stop-color="#8e79b9"
       id="stop23" />
    <stop
       offset="1"
       stop-color="#462886"
       id="stop25" />
  </linearGradient>
  <rect
     style="fill:#e602b4;stroke-width:0.125"
     id="rect28"
     y="-14"
     x="2.9980471"
     width="9"
     transform="scale(1,-1)"
     rx="1.5"
     height="9" />
  <path
     inkscape:connector-curvature="0"
     style="opacity:1;fill:#f3b7d9;stroke-width:0.125;fill-opacity:1"
     id="path30"
     d="m 4.998047,6 c -0.554,0 -1,0.446 -1,1 v 2.828125 c 1.5,0.171875 6,-0.328125 7,-1.2578125 V 7 c 0,-0.554 -0.446,-1 -1,-1 z" />
  <path
     inkscape:connector-curvature="0"
     style="opacity:1;fill:#f3b7d9;fill-opacity:1;stroke-width:0.125"
     id="path36"
     d="m 4.998047,12.932203 c -0.554,0 -1,-0.446 -1,-1 V 9.2290784 c 0.9537479,-0.1110489 0.9595045,-0.171875 2,-0.171875 3.72776,0 3.017935,-2.6659974 5,-1.5 v 4.3749996 c 0,0.554 -0.446,1 -1,1 z" />
  <path
     style="fill:#f0e3ec;stroke-width:0.125"
     inkscape:connector-curvature="0"
     id="path32"
     d="M 7.1060015,6 C 6.3961295,6.0034912 5.841065,6.0950894 5.5966265,6.3038352 5.3502567,6.5138659 5.2290815,6.9372605 5.2290839,7.5730824 V 7.9798295 C 5.2290815,8.4085134 5.1571336,8.7244699 4.9987572,8.8913352 4.8433091,9.0553301 4.658578,9.1363666 4.2391691,9.1363636 H 3.9696379 v 0.6272728 h 0.2695312 c 0.4164759,2.5e-6 0.6012071,0.073261 0.7595881,0.2401276 0.1583764,0.166871 0.2303243,0.45257 0.2303267,0.887003 v 0.404297 c -2.4e-6,0.635827 0.1211728,1.058795 0.3675426,1.271697 0.2444385,0.20875 0.799503,0.328656 1.509375,0.333239 V 12.272728 C 6.6990045,12.271028 6.1990196,12.199314 6.074432,12.074254 5.9483121,11.947664 5.8857567,11.681125 5.8857601,11.275461 V 10.83441 C 5.8857567,10.385593 5.8266171,10.073271 5.6946379,9.8689986 5.5626525,9.6647305 5.4468252,9.5276829 5.1212714,9.45 5.4438922,9.3780764 5.5577519,9.237725 5.6897374,9.0334517 5.8246494,8.8291845 5.8857567,8.4854359 5.8857601,8.0337358 V 7.5902344 C 5.8857567,7.1845761 5.9483121,6.9180376 6.074432,6.7914417 6.1990196,6.6663886 6.6990045,6.6284239 7.1060015,6.6272727 Z" />
  <path
     style="fill:#f0e3ec;stroke-width:0.125"
     inkscape:connector-curvature="0"
     id="path34"
     d="m 7.8900925,6 c 0.709872,0.00349 1.2649366,0.095089 1.509375,0.3038352 0.2463701,0.2100307 0.3675455,0.6334253 0.3675426,1.2692472 v 0.4067471 c 2.9e-6,0.4286839 0.07195,0.7446404 0.2303267,0.9115057 0.1554482,0.1639949 0.3401802,0.2450314 0.7595882,0.2450284 h 0.269531 v 0.6272728 h -0.269531 c -0.416476,2.5e-6 -0.601208,0.073261 -0.7595882,0.2401276 -0.1583765,0.166871 -0.2303238,0.45257 -0.2303267,0.887003 v 0.404297 c 2.9e-6,0.635827 -0.1211725,1.058795 -0.3675426,1.271697 -0.2444384,0.20875 -0.799503,0.328656 -1.509375,0.333239 v -0.627273 c 0.406997,-0.0017 0.9069819,-0.07341 1.0315695,-0.198473 0.1261199,-0.12659 0.1886749,-0.393129 0.1886719,-0.798793 V 10.83441 c 3e-6,-0.448817 0.059143,-0.761139 0.1911222,-0.9654114 C 9.4334411,9.6647305 9.549269,9.5276829 9.8748226,9.45 9.5522015,9.3780764 9.4383417,9.237725 9.3063566,9.0334517 9.171445,8.8291845 9.1103369,8.4854359 9.1103339,8.0337358 V 7.5902344 C 9.1103369,7.1845761 9.0477819,6.9180376 8.921662,6.7914417 8.7970744,6.6663886 8.2970895,6.6284239 7.8900925,6.6272727 Z" />
  <path
     inkscape:connector-curvature="0"
     style="fill:#f3b7d9;fill-opacity:1;stroke:#9d3a9b;stroke-width:0.25;stroke-miterlimit:4;stroke-dasharray:none;stroke-opacity:1"
     id="path48"
     d="m 1.1919891,3.8278874 10.9917049,0.00321 v 0.6190464 c 2.29e-4,0.1523277 0.102053,0.3007389 0.25404,0.3688618 0.151985,0.068123 0.346966,0.052755 0.483033,-0.03849 l 1.831951,-1.4369594 c 0.113813,-0.076652 0.182479,-0.2027599 0.182479,-0.330372 0,-0.1276121 -0.06867,-0.2537194 -0.182479,-0.330372 L 12.920767,1.2458574 C 12.845894,1.1950866 12.753385,1.1655514 12.65957,1.1624631 12.413085,1.1553048 12.183235,1.355155 12.183694,1.5762299 V 2.1888575 L 1.1955671,2.1856501 Z" />
</svg>
