<?xml version="1.0" encoding="UTF-8" standalone="no"?>
<svg
   xmlns:dc="http://purl.org/dc/elements/1.1/"
   xmlns:cc="http://creativecommons.org/ns#"
   xmlns:rdf="http://www.w3.org/1999/02/22-rdf-syntax-ns#"
   xmlns:svg="http://www.w3.org/2000/svg"
   xmlns="http://www.w3.org/2000/svg"
   xmlns:sodipodi="http://sodipodi.sourceforge.net/DTD/sodipodi-0.dtd"
   xmlns:inkscape="http://www.inkscape.org/namespaces/inkscape"
   enable-background="new 0 0 64 50.576"
   height="16"
   viewBox="0 0 16 12.644"
   width="16"
   version="1.1"
   id="svg35"
   sodipodi:docname="sc_menubar.svg"
   inkscape:version="0.92.4 (unknown)"
   inkscape:export-filename="/home/annisaauliarasyidah/Desktop/4_242 (aulia)/sc 222/sc_menubar.png"
   inkscape:export-xdpi="96"
   inkscape:export-ydpi="96">
  <metadata
     id="metadata41">
    <rdf:RDF>
      <cc:Work
         rdf:about="">
        <dc:format>image/svg+xml</dc:format>
        <dc:type
           rdf:resource="http://purl.org/dc/dcmitype/StillImage" />
      </cc:Work>
    </rdf:RDF>
  </metadata>
  <defs
     id="defs39" />
  <sodipodi:namedview
     pagecolor="#ffffff"
     bordercolor="#666666"
     borderopacity="1"
     objecttolerance="10"
     gridtolerance="10"
     guidetolerance="10"
     inkscape:pageopacity="0"
     inkscape:pageshadow="2"
     inkscape:window-width="1366"
     inkscape:window-height="707"
     id="namedview37"
     showgrid="true"
     inkscape:zoom="14.75"
     inkscape:cx="0.13559322"
     inkscape:cy="8"
     inkscape:window-x="0"
     inkscape:window-y="0"
     inkscape:window-maximized="1"
     inkscape:current-layer="svg35">
    <inkscape:grid
       type="xygrid"
       id="grid860" />
  </sodipodi:namedview>
  <linearGradient
     id="a"
     gradientUnits="userSpaceOnUse"
     x1="22.0005"
     x2="22.0005"
     y1="38.833"
     y2="14.1477">
    <stop
       offset="0"
       stop-color="#cbcbcd"
       id="stop2" />
    <stop
       offset=".5"
       stop-color="#e0e0e2"
       id="stop4" />
    <stop
       offset="1"
       stop-color="#f2f2f2"
       id="stop6" />
  </linearGradient>
  <g
     id="g13"
     transform="scale(0.25)">
    <path
       style="fill:#e602b4"
       inkscape:connector-curvature="0"
       id="path9"
       d="m 6,5.288 c -3.309,0 -6,2.691 -6,6 v 28 c 0,3.309 2.691,6 6,6 h 18 l 18,-40 z" />
    <path
       inkscape:connector-curvature="0"
       style="fill:#f0e3ec"
       id="path11"
       d="M 24,41.288 H 6 c -1.104,0 -2,-0.896 -2,-2 v -28 c 0,-1.104 0.896,-2 2,-2 h 34 z" />
  </g>
  <path
     style="fill:#e602b4;stroke-width:0.25"
     inkscape:connector-curvature="0"
     id="path15"
     d="m 2,4.322 v 4 h 1 v -1 -1 -0.5 l 1,1.5 1,-1.5 v 2.5 h 1 v -3 -1 H 5.0686523 L 4,5.822 2.9979542,4.322 Z" />
  <g
     style="opacity:1"
     id="g21"
     transform="scale(0.25)">
    <path
       style="fill:#e602b4;fill-opacity:1"
       inkscape:connector-curvature="0"
       id="path17"
       d="m 40,5.288 -18,40 h 36 c 3.309,0 6,-2.691 6,-6 v -28 c 0,-3.309 -2.691,-6 -6,-6 z" />
    <path
       style="opacity:1;fill:#f0e3ec"
       inkscape:connector-curvature="0"
       id="path19"
       d="m 60,39.288 c 0,1.104 -0.896,2 -2,2 H 22 l 18,-32 h 18 c 1.104,0 2,0.896 2,2 z" />
  </g>
  <g
     style="fill:#e602b4"
     id="g29"
     transform="matrix(0.25,0,0,0.25,-2,0)">
    <path
       style="stroke-width:0.86602497;fill:#e602b4"
       inkscape:connector-curvature="0"
       id="path23"
       d="m 52,33.288 v -12 h 4 v 12 z" />
    <path
       inkscape:connector-curvature="0"
       id="path25"
       d="m 44.428,29.37 3.392,0.504 c -0.437,1.112 -1.122,1.959 -2.062,2.541 -0.939,0.582 -2.116,0.873 -3.524,0.873 -2.236,0 -3.89,-0.652 -4.962,-1.957 C 36.424,30.285 36,28.967 36,27.374 c 0,-1.902 0.557,-3.393 1.67,-4.47 1.111,-1.078 2.519,-1.616 4.22,-1.616 1.913,0 3.419,0.563 4.524,1.691 1.103,1.127 1.632,2.854 1.583,5.182 h -8.51 c 0.024,0.899 0.298,1.6 0.822,2.101 0.522,0.5 1.176,0.75 1.957,0.75 0.531,0 0.979,-0.129 1.342,-0.389 0.362,-0.26 0.634,-0.677 0.82,-1.253 z m 0.194,-3.069 c -0.024,-0.879 -0.278,-1.548 -0.76,-2.007 -0.484,-0.458 -1.073,-0.687 -1.764,-0.687 -0.741,0 -1.354,0.241 -1.837,0.725 -0.483,0.484 -0.721,1.14 -0.714,1.969 z"
       style="fill:#e602b4" />
    <path
       style="stroke-width:0.86602497;fill:#e602b4"
       inkscape:connector-curvature="0"
       id="path27"
       d="m 60,33.288 v -8 c 0.380991,-0.002 -2.928529,-0.06575 -4,2 v -4 c 1.325014,-1.132568 2.658162,-1.809575 4,-2 h 2 c 0.981368,0.351966 1.691035,0.975631 2,2 v 10 z" />
  </g>
  <path
     style="fill:#f3b7d9;stroke-width:0.25;stroke:#9d3a9b;stroke-opacity:1;stroke-linecap:round;stroke-linejoin:round"
     inkscape:connector-curvature="0"
     id="path31"
     d="M 4.657,12.0915 C 5.032,12.279 5.36975,12.448 5.762,12.644 6.15,11.80425 10.978,1.3435 11.343,0.5525 10.96775,0.365 10.63,0.196 10.23775,0 9.85,0.83975 5.022,11.30075 4.657,12.0915 Z" />
</svg>
