<?xml version="1.0" encoding="UTF-8" standalone="no"?>
<svg
   xmlns:dc="http://purl.org/dc/elements/1.1/"
   xmlns:cc="http://creativecommons.org/ns#"
   xmlns:rdf="http://www.w3.org/1999/02/22-rdf-syntax-ns#"
   xmlns:svg="http://www.w3.org/2000/svg"
   xmlns="http://www.w3.org/2000/svg"
   xmlns:sodipodi="http://sodipodi.sourceforge.net/DTD/sodipodi-0.dtd"
   xmlns:inkscape="http://www.inkscape.org/namespaces/inkscape"
   height="16"
   viewBox="0 0 4.2333333 4.2333335"
   width="16"
   version="1.1"
   id="svg101"
   sodipodi:docname="sc_moduledialog.svg"
   inkscape:version="0.92.4 (unknown)"
   inkscape:export-filename="/home/annisaauliarasyidah/Desktop/4_242 (aulia)/sc 222/sc_moduledialog.png"
   inkscape:export-xdpi="96"
   inkscape:export-ydpi="96">
  <metadata
     id="metadata107">
    <rdf:RDF>
      <cc:Work
         rdf:about="">
        <dc:format>image/svg+xml</dc:format>
        <dc:type
           rdf:resource="http://purl.org/dc/dcmitype/StillImage" />
      </cc:Work>
    </rdf:RDF>
  </metadata>
  <defs
     id="defs105" />
  <sodipodi:namedview
     pagecolor="#ffffff"
     bordercolor="#666666"
     borderopacity="1"
     objecttolerance="10"
     gridtolerance="10"
     guidetolerance="10"
     inkscape:pageopacity="0"
     inkscape:pageshadow="2"
     inkscape:window-width="1366"
     inkscape:window-height="707"
     id="namedview103"
     showgrid="false"
     inkscape:snap-global="false"
     inkscape:zoom="20.85965"
     inkscape:cx="7.5878176"
     inkscape:cy="5.7468462"
     inkscape:window-x="0"
     inkscape:window-y="0"
     inkscape:window-maximized="1"
     inkscape:current-layer="svg101" />
  <linearGradient
     id="a"
     gradientUnits="userSpaceOnUse"
     x1="102.30765"
     x2="106.01008"
     y1="39.141762"
     y2="209.45338">
    <stop
       offset="0"
       stop-color="#99999c"
       id="stop2" />
    <stop
       offset=".5"
       stop-color="#9c9ca1"
       id="stop4" />
    <stop
       offset="1"
       stop-color="#cdcdd1"
       id="stop6" />
  </linearGradient>
  <linearGradient
     id="b"
     gradientUnits="userSpaceOnUse"
     x1="78.610847"
     x2="120.3435"
     y1="88.852417"
     y2="111.54715">
    <stop
       offset="0"
       stop-color="#fff"
       id="stop9" />
    <stop
       offset="1"
       stop-color="#ccc"
       id="stop11" />
  </linearGradient>
  <linearGradient
     id="c"
     gradientUnits="userSpaceOnUse"
     x1="88.38102"
     x2="130.48599"
     y1="1008.9966"
     y2="1015.6953">
    <stop
       offset="0"
       stop-color="#7b7b7b"
       id="stop14" />
    <stop
       offset="1"
       stop-color="#797979"
       stop-opacity="0"
       id="stop16" />
  </linearGradient>
  <clipPath
     id="d">
    <path
       d="m41.355614 933.74432h83.943996v117.52168h-83.943996z"
       id="path19" />
  </clipPath>
  <filter
     id="e"
     color-interpolation-filters="sRGB"
     height="1.073732"
     width="1.13754"
     x="-.06877"
     y="-.036866">
    <feGaussianBlur
       stdDeviation="1.0557314"
       id="feGaussianBlur22" />
  </filter>
  <linearGradient
     id="f"
     gradientUnits="userSpaceOnUse"
     x1="98.40847"
     x2="115.25523"
     y1="30.758501"
     y2="77.140503">
    <stop
       offset="0"
       stop-color="#fff"
       stop-opacity=".683453"
       id="stop25" />
    <stop
       offset="1"
       stop-color="#fff"
       stop-opacity="0"
       id="stop27" />
  </linearGradient>
  <linearGradient
     id="g"
     gradientTransform="matrix(.58291629 0 0 .66676377 62.177025 -566.68964)"
     gradientUnits="userSpaceOnUse"
     x1="63.011921"
     x2="63.011921"
     y1="945.89801"
     y2="1033.1569">
    <stop
       offset="0"
       stop-color="#545454"
       stop-opacity=".988"
       id="stop30" />
    <stop
       offset="1"
       stop-color="#ebebeb"
       id="stop32" />
  </linearGradient>
  <linearGradient
     id="h"
     gradientTransform="matrix(.48045402 0 0 .66178602 128.73476 -578.51587)"
     gradientUnits="userSpaceOnUse"
     x1="-60.535713"
     x2="-60.357143"
     y1="979.50507"
     y2="1009.505">
    <stop
       offset="0"
       stop-color="#979797"
       id="stop35" />
    <stop
       offset=".148461"
       stop-color="#f6f6f6"
       id="stop37" />
    <stop
       offset=".28399727"
       stop-color="#e2e2e2"
       id="stop39" />
    <stop
       offset=".41198727"
       stop-color="#dedede"
       id="stop41" />
    <stop
       offset=".41198727"
       stop-color="#f6f6f6"
       id="stop43" />
    <stop
       offset="1"
       stop-color="#6b6b6b"
       id="stop45" />
  </linearGradient>
  <linearGradient
     id="i"
     gradientTransform="matrix(.480454 0 0 .58309338 128.76683 499.76645)"
     gradientUnits="userSpaceOnUse"
     x1="-61.078979"
     x2="-60.6413"
     y1="-1056.658"
     y2="-1010.9131">
    <stop
       offset="0"
       stop-color="#777"
       id="stop48" />
    <stop
       offset=".18176934"
       stop-color="#a8a8a8"
       id="stop50" />
    <stop
       offset=".22864534"
       stop-color="#cdcdcd"
       id="stop52" />
    <stop
       offset=".34561315"
       stop-color="#f7f7f7"
       id="stop54" />
    <stop
       offset="1"
       stop-color="#fff"
       id="stop56" />
  </linearGradient>
  <filter
     id="j"
     color-interpolation-filters="sRGB"
     height="1.0168"
     width="1.0168"
     x="-.0084"
     y="-.0084">
    <feGaussianBlur
       stdDeviation=".050000868"
       id="feGaussianBlur59" />
  </filter>
  <clipPath
     id="k">
    <path
       d="m9.5933918 111.19854-.4711621 1.3139v.0218l.2786801 1.27958a.22777108.22777108 0 0 1 -.136411.25943l-1.5306499.62348a.22777108.22777108 0 0 1 -.2753328-.0845l-.7372894-1.10552a.22777108.22777108 0 0 1 -.0008389-.002l-.021759-.0318-1.2151468-.58246-.5933465.59334.5833039 1.21515.033475.0226 1.1046788.73645a.22777108.22777108 0 0 1 .084525.27533l-.6234741 1.53065a.22777108.22777108 0 0 1 -.2594321.13641l-1.279583-.27868h-.020922l-1.3138984.47117v.81344l1.3138984.47116h.020922l1.2795866-.27847a.22777108.22777108 0 0 1 .2594321.13641l.6234741 1.53065a.22777108.22777108 0 0 1 -.084525.27534l-1.1046788.73729a.22777108.22777108 0 0 1 -.00168.00086l-.031802.0218-.5833039 1.21432.5933465.59418 1.2151467-.5833.021759-.0318a.22777108.22777108 0 0 1 .0008389-.002l.7372894-1.10551a.22777108.22777108 0 0 1 .2753328-.0845l1.5306499.62348a.22777108.22777108 0 0 1 .136411.25943l-.2786801 1.27959v.0218l.4711621 1.3139h.8134447l.471163-1.3139v-.0218l-.27868-1.27959a.22777108.22777108 0 0 1 .136411-.25943l1.530649-.62348a.22777108.22777108 0 0 1 .275333.0845l.736453 1.10551.02259.0335 1.215147.5833.594183-.59418-.583304-1.21432-.0318-.0218a.22777108.22777108 0 0 1 -.0017-.00086l-1.105515-.73729a.22777108.22777108 0 0 1 -.08452-.27534l.623474-1.53065a.22777108.22777108 0 0 1 .259432-.13641l1.279587.27868h.02176l1.313899-.47116v-.81344l-1.313899-.47117h-.02176l-1.279587.27868a.22777108.22777108 0 0 1 -.25944-.13641l-.623474-1.53065a.22777108.22777108 0 0 1 .08453-.27533l1.105515-.73645.03348-.0226.583304-1.21515-.594184-.59335-1.215146.58247-.02259.0335-.736453 1.10552a.22777108.22777108 0 0 1 -.275333.0845l-1.530649-.62347a.22777108.22777108 0 0 1 -.136411-.25943l.27868-1.27959v-.0218l-.471162-1.3139zm.4067232 4.64635c1.184509 0 2.15496.97153 2.15496 2.15496-.000011 1.18338-.970446 2.15496-2.15496 2.15496-1.1845114 0-2.1549612-.97157-2.1549612-2.15496 0-1.18346.9704589-2.15496 2.1549612-2.15496z"
       id="path62" />
  </clipPath>
  <g
     id="g830">
    <path
       inkscape:connector-curvature="0"
       style="fill:#9d3a9b;fill-opacity:1"
       id="path18"
       transform="matrix(0.125,0,0,0.125,0,-32.891665)"
       d="m 15.611328,263.16016 a 0.50211348,0.50211348 0 0 0 -0.472656,0.33203 l -1.257813,3.50586 a 0.50211348,0.50211348 0 0 0 -0.0293,0.16992 v 0.19922 a 0.50211348,0.50211348 0 0 0 0.01172,0.10742 l 0.572266,2.62891 -2.802735,1.14257 -1.492187,-2.23828 -0.128906,-0.19726 A 0.50211348,0.50211348 0 0 0 9.8085938,268.63281 L 6.5,267.04688 a 0.50211348,0.50211348 0 0 0 -0.5722656,0.0976 l -1.9179688,1.91797 a 0.50211348,0.50211348 0 0 0 -0.097656,0.57227 L 5.5,272.94141 a 0.50211348,0.50211348 0 0 0 0.1738281,0.20117 l 0.1992188,0.13281 2.2382812,1.49023 -1.1425781,2.80274 -2.6289062,-0.57227 a 0.50211348,0.50211348 0 0 0 -0.1074219,-0.0117 H 4.0351562 a 0.50211348,0.50211348 0 0 0 -0.1699218,0.0293 L 0.359375,278.2715 a 0.50211348,0.50211348 0 0 0 -0.33203125,0.47266 v 2.64453 a 0.50211348,0.50211348 0 0 0 0.33203125,0.47266 l 3.5058594,1.25781 a 0.50211348,0.50211348 0 0 0 0.1699218,0.0293 h 0.1972657 a 0.50211348,0.50211348 0 0 0 0.1074219,-0.0117 L 6.96875,282.56445 8.1113281,285.36719 5.875,286.85938 5.6777344,286.98828 A 0.50211348,0.50211348 0 0 0 5.5,287.19141 l -1.5878906,3.30664 a 0.50211348,0.50211348 0 0 0 0.097656,0.57226 l 1.9179688,1.91992 A 0.50211348,0.50211348 0 0 0 6.5,293.08789 L 9.8085938,291.5 a 0.50211348,0.50211348 0 0 0 0.2031252,-0.17773 l 0.128906,-0.19727 1.492187,-2.23828 2.802735,1.14258 -0.572266,2.6289 a 0.50211348,0.50211348 0 0 0 -0.01172,0.10742 v 0.19922 a 0.50211348,0.50211348 0 0 0 0.0293,0.16993 l 1.257813,3.50585 a 0.50211348,0.50211348 0 0 0 0.472656,0.33204 h 2.644531 a 0.50211348,0.50211348 0 0 0 0.472657,-0.33204 l 1.257812,-3.50585 a 0.50211348,0.50211348 0 0 0 0.0293,-0.16993 v -0.19922 a 0.50211348,0.50211348 0 0 0 -0.01172,-0.10742 l -0.572265,-2.6289 2.800781,-1.14258 1.492187,2.24023 0.132813,0.19922 A 0.50211348,0.50211348 0 0 0 24.058594,291.5 l 3.30664,1.58789 a 0.50211348,0.50211348 0 0 0 0.572266,-0.0977 l 1.919922,-1.91992 a 0.50211348,0.50211348 0 0 0 0.09766,-0.57226 l -1.58789,-3.30664 a 0.50211348,0.50211348 0 0 0 -0.177735,-0.20313 l -0.197265,-0.1289 -2.238282,-1.49219 1.142578,-2.80274 2.628907,0.57227 a 0.50211348,0.50211348 0 0 0 0.107421,0.0117 h 0.199219 a 0.50211348,0.50211348 0 0 0 0.169922,-0.0293 l 3.505859,-1.25781 a 0.50211348,0.50211348 0 0 0 0.332032,-0.47266 v -2.64453 a 0.50211348,0.50211348 0 0 0 -0.332032,-0.47266 l -3.505859,-1.25781 a 0.50211348,0.50211348 0 0 0 -0.169922,-0.0293 h -0.199219 a 0.50211348,0.50211348 0 0 0 -0.107421,0.0117 l -2.628907,0.57227 -1.142578,-2.80078 2.240235,-1.49219 0.199218,-0.13281 a 0.50211348,0.50211348 0 0 0 0.173829,-0.20117 l 1.58789,-3.30664 a 0.50211348,0.50211348 0 0 0 -0.09766,-0.57227 L 27.9375,267.14453 a 0.50211348,0.50211348 0 0 0 -0.572266,-0.0976 l -3.30664,1.58593 a 0.50211348,0.50211348 0 0 0 -0.201172,0.17383 l -0.132813,0.19922 -1.492187,2.24023 -2.800781,-1.14257 0.572265,-2.62891 a 0.50211348,0.50211348 0 0 0 0.01172,-0.10742 v -0.19922 a 0.50211348,0.50211348 0 0 0 -0.0293,-0.16992 l -1.257812,-3.50586 a 0.50211348,0.50211348 0 0 0 -0.472657,-0.33203 z m 1.322266,12.91015 c 2.200128,0 3.996093,1.79839 3.996094,3.9961 -2.2e-5,2.19762 -1.795975,3.99609 -3.996094,3.99609 -2.200111,0 -3.996094,-1.79847 -3.996094,-3.99609 0,-2.1978 1.795963,-3.9961 3.996094,-3.9961 z" />
    <path
       inkscape:connector-curvature="0"
       style="fill:#f0e3ec;fill-opacity:1"
       id="path20"
       transform="matrix(0.125,0,0,0.125,0,-32.891665)"
       d="m 15.984375,264.19336 -1.099609,3.06641 v 0.0508 l 0.65039,2.98633 a 0.53157739,0.53157739 0 0 1 -0.318359,0.60546 l -3.572266,1.45508 a 0.53157739,0.53157739 0 0 1 -0.642578,-0.19726 l -1.720703,-2.5801 a 0.53157739,0.53157739 0 0 1 -0.00195,-0.004 l -0.050781,-0.0742 -2.8359375,-1.35937 -1.3847656,1.38476 1.3613281,2.83594 0.078125,0.0527 2.578125,1.71875 a 0.53157739,0.53157739 0 0 1 0.1972656,0.64257 l -1.4550781,3.57227 a 0.53157739,0.53157739 0 0 1 -0.6054687,0.31836 l -2.9863282,-0.65039 h -0.048828 l -3.0664062,1.09961 v 1.89843 l 3.0664062,1.09961 h 0.048828 l 2.9863282,-0.65039 a 0.53157739,0.53157739 0 0 1 0.6054687,0.31836 l 1.4550781,3.57227 a 0.53157739,0.53157739 0 0 1 -0.1972656,0.64258 l -2.578125,1.7207 a 0.53157739,0.53157739 0 0 1 -0.00391,0.002 l -0.074219,0.0508 -1.3613281,2.83399 1.3847656,1.38672 2.8359375,-1.36133 0.050781,-0.0742 a 0.53157739,0.53157739 0 0 1 0.00195,-0.004 l 1.720703,-2.58007 a 0.53157739,0.53157739 0 0 1 0.642578,-0.19727 l 3.572266,1.45508 a 0.53157739,0.53157739 0 0 1 0.318359,0.60547 l -0.65039,2.98633 v 0.0508 l 1.099609,3.0664 h 1.898437 l 1.09961,-3.0664 v -0.0508 l -0.650391,-2.98633 a 0.53157739,0.53157739 0 0 1 0.31836,-0.60547 l 3.572265,-1.45508 a 0.53157739,0.53157739 0 0 1 0.642578,0.19727 l 1.71875,2.58007 0.05273,0.0781 2.835937,1.36133 1.386719,-1.38672 -1.361328,-2.83399 -0.07422,-0.0508 a 0.53157739,0.53157739 0 0 1 -0.0039,-0.002 l -2.580078,-1.7207 a 0.53157739,0.53157739 0 0 1 -0.197266,-0.64258 l 1.455078,-3.57227 a 0.53157739,0.53157739 0 0 1 0.605469,-0.31836 l 2.986328,0.65039 h 0.05078 l 3.066407,-1.09961 v -1.89843 l -3.066407,-1.09961 h -0.05078 l -2.986328,0.65039 a 0.53157739,0.53157739 0 0 1 -0.605469,-0.31836 l -1.455078,-3.57227 a 0.53157739,0.53157739 0 0 1 0.197266,-0.64257 l 2.580078,-1.71875 0.07813,-0.0527 1.361328,-2.83594 -1.386719,-1.38476 -2.835937,1.35937 -0.05273,0.0781 -1.71875,2.58008 a 0.53157739,0.53157739 0 0 1 -0.642578,0.19726 l -3.572265,-1.45508 a 0.53157739,0.53157739 0 0 1 -0.31836,-0.60546 l 0.650391,-2.98633 v -0.0508 l -1.09961,-3.06641 z m 0.949219,10.84375 c 2.764436,0 5.029297,2.2674 5.029297,5.0293 -2.7e-5,2.76181 -2.264851,5.02929 -5.029297,5.02929 -2.764439,0 -5.029297,-2.26747 -5.029297,-5.02929 0,-2.76197 2.264879,-5.0293 5.029297,-5.0293 z" />
  </g>
  <path
     d="m15.984375 264.19336-1.099609 3.06641v.0508l.65039 2.98633a.53157739.53157739 0 0 1 -.318359.60546l-3.572266 1.45508a.53157739.53157739 0 0 1 -.642578-.19726l-1.720703-2.5801a.53157739.53157739 0 0 1 -.00195-.004l-.050781-.0742-2.8359375-1.35937-1.3847656 1.38476 1.3613281 2.83594.078125.0527 2.578125 1.71875a.53157739.53157739 0 0 1 .1972656.64257l-1.4550781 3.57227a.53157739.53157739 0 0 1 -.6054687.31836l-2.9863282-.65039h-.048828l-3.0664062 1.09961v1.89843l3.0664062 1.09961h.048828l2.9863282-.65039a.53157739.53157739 0 0 1 .6054687.31836l1.4550781 3.57227a.53157739.53157739 0 0 1 -.1972656.64258l-2.578125 1.7207a.53157739.53157739 0 0 1 -.00391.002l-.074219.0508-1.3613281 2.83399 1.3847656 1.38672 2.8359375-1.36133.050781-.0742a.53157739.53157739 0 0 1 .00195-.004l1.720703-2.58007a.53157739.53157739 0 0 1 .642578-.19727l3.572266 1.45508a.53157739.53157739 0 0 1 .318359.60547l-.65039 2.98633v.0508l1.099609 3.0664h1.898437l1.09961-3.0664v-.0508l-.650391-2.98633a.53157739.53157739 0 0 1 .31836-.60547l3.572265-1.45508a.53157739.53157739 0 0 1 .642578.19727l1.71875 2.58007.05273.0781 2.835937 1.36133 1.386719-1.38672-1.361328-2.83399-.07422-.0508a.53157739.53157739 0 0 1 -.0039-.002l-2.580078-1.7207a.53157739.53157739 0 0 1 -.197266-.64258l1.455078-3.57227a.53157739.53157739 0 0 1 .605469-.31836l2.986328.65039h.05078l3.066407-1.09961v-1.89843l-3.066407-1.09961h-.05078l-2.986328.65039a.53157739.53157739 0 0 1 -.605469-.31836l-1.455078-3.57227a.53157739.53157739 0 0 1 .197266-.64257l2.580078-1.71875.07813-.0527 1.361328-2.83594-1.386719-1.38476-2.835937 1.35937-.05273.0781-1.71875 2.58008a.53157739.53157739 0 0 1 -.642578.19726l-3.572265-1.45508a.53157739.53157739 0 0 1 -.31836-.60546l.650391-2.98633v-.0508l-1.09961-3.06641zm.949219 10.84375c2.764436 0 5.029297 2.2674 5.029297 5.0293-.000027 2.76181-2.264851 5.02929-5.029297 5.02929-2.764439 0-5.029297-2.26747-5.029297-5.02929 0-2.76197 2.264879-5.0293 5.029297-5.0293z"
     id="path67"
     transform="matrix(.125 0 0 .125 0 -32.891665)"
     fill="#f0f0f0" />
  <g
     transform="translate(0.00306831,-0.01738623)"
     id="g888">
    <path
       d="M 2.0964608,1.3002773 H 4.2050366 V 4.210696 H 2.0964608 Z"
       id="path94"
       style="fill:#e602b4;fill-opacity:1;stroke:#f3b7d9;stroke-width:0.06614583;stroke-linecap:round;stroke-linejoin:round;stroke-miterlimit:4;stroke-dasharray:none;stroke-opacity:1"
       inkscape:connector-curvature="0" />
    <path
       d="m 2.3610443,1.5648603 h 1.5875003 v 2.38125 H 2.3610443 Z"
       id="path96-3"
       style="fill:#f0e3ec;fill-opacity:1;stroke:#f3b7d9;stroke-width:0.06614583;stroke-linecap:round;stroke-linejoin:round;stroke-miterlimit:4;stroke-dasharray:none;stroke-opacity:1"
       inkscape:connector-curvature="0" />
    <path
       d="M 2.6256277,1.9617352 H 3.683961 V 3.6815268 H 2.6256277 Z"
       id="path102"
       style="fill:#9d3a9b;fill-opacity:1;stroke:#f3b7d9;stroke-width:0.06614583;stroke-linecap:round;stroke-linejoin:round;stroke-miterlimit:4;stroke-dasharray:none;stroke-opacity:1"
       inkscape:connector-curvature="0" />
    <path
       d="M 2.7579195,2.094027 H 3.5516696 V 3.5492353 H 2.7579195 Z"
       id="path104-6"
       inkscape:connector-curvature="0"
       style="fill:#f0e3ec;fill-opacity:1;stroke:#f3b7d9;stroke-width:0.06614583;stroke-linecap:round;stroke-linejoin:round;stroke-miterlimit:4;stroke-dasharray:none;stroke-opacity:1" />
    <path
       d="M 2.890211,3.8138186 H 3.4193781 V 2.7554854 H 2.890211 Z"
       id="path108-7"
       style="fill:#e602b4;fill-opacity:1;stroke:#f3b7d9;stroke-width:0.06614583;stroke-linecap:round;stroke-linejoin:round;stroke-miterlimit:4;stroke-dasharray:none;stroke-opacity:1"
       inkscape:connector-curvature="0" />
  </g>
</svg>
