<?xml version="1.0" encoding="UTF-8" standalone="no"?>
<svg
   xmlns:dc="http://purl.org/dc/elements/1.1/"
   xmlns:cc="http://creativecommons.org/ns#"
   xmlns:rdf="http://www.w3.org/1999/02/22-rdf-syntax-ns#"
   xmlns:svg="http://www.w3.org/2000/svg"
   xmlns="http://www.w3.org/2000/svg"
   xmlns:xlink="http://www.w3.org/1999/xlink"
   xmlns:sodipodi="http://sodipodi.sourceforge.net/DTD/sodipodi-0.dtd"
   xmlns:inkscape="http://www.inkscape.org/namespaces/inkscape"
   height="16"
   viewBox="0 0 16.000001 16.000001"
   width="16"
   version="1.1"
   id="svg137"
   sodipodi:docname="sc_mediamute.svg"
   inkscape:version="0.92.4 (unknown)"
   inkscape:export-filename="/home/annisaauliarasyidah/Desktop/4_242 (aulia)/sc 222/sc_mediamute.png"
   inkscape:export-xdpi="96"
   inkscape:export-ydpi="96">
  <metadata
     id="metadata143">
    <rdf:RDF>
      <cc:Work
         rdf:about="">
        <dc:format>image/svg+xml</dc:format>
        <dc:type
           rdf:resource="http://purl.org/dc/dcmitype/StillImage" />
      </cc:Work>
    </rdf:RDF>
  </metadata>
  <defs
     id="defs141" />
  <sodipodi:namedview
     pagecolor="#ffffff"
     bordercolor="#666666"
     borderopacity="1"
     objecttolerance="10"
     gridtolerance="10"
     guidetolerance="10"
     inkscape:pageopacity="0"
     inkscape:pageshadow="2"
     inkscape:window-width="1366"
     inkscape:window-height="707"
     id="namedview139"
     showgrid="true"
     inkscape:zoom="14.75"
     inkscape:cx="0.13559322"
     inkscape:cy="8"
     inkscape:window-x="0"
     inkscape:window-y="0"
     inkscape:window-maximized="1"
     inkscape:current-layer="svg137">
    <inkscape:grid
       type="xygrid"
       id="grid966" />
  </sodipodi:namedview>
  <linearGradient
     id="a"
     gradientUnits="userSpaceOnUse"
     x1="5.528801"
     x2="5.528801"
     y1="4.275406"
     y2="16.027247"
     gradientTransform="translate(0,-2.507952)">
    <stop
       offset="0"
       stop-color="#c2c2c2"
       id="stop2" />
    <stop
       offset=".27777779"
       stop-color="#fff"
       stop-opacity=".992157"
       id="stop4" />
    <stop
       offset=".5"
       stop-color="#797979"
       stop-opacity=".988235"
       id="stop6" />
    <stop
       offset=".77777779"
       stop-color="#fff"
       stop-opacity=".984314"
       id="stop8" />
    <stop
       offset="1"
       stop-color="#797979"
       stop-opacity=".984496"
       id="stop10" />
  </linearGradient>
  <linearGradient
     id="b"
     gradientTransform="matrix(0.6749772,0,0,0.65288008,-0.80005,-2.264339)"
     gradientUnits="userSpaceOnUse"
     x1="15"
     x2="15"
     y1="27"
     y2="5">
    <stop
       offset="0"
       stop-color="#bbb"
       id="stop13" />
    <stop
       offset=".1"
       stop-color="#fff"
       id="stop15" />
    <stop
       offset=".25"
       stop-color="#eee"
       id="stop17" />
    <stop
       offset=".5"
       stop-color="#888"
       id="stop19" />
    <stop
       offset=".73369998"
       stop-color="#eee"
       id="stop21" />
    <stop
       offset="1"
       stop-color="#bbb"
       id="stop23" />
  </linearGradient>
  <linearGradient
     id="c"
     gradientTransform="matrix(0.9180451,0,0,0.65288008,-5.688722,-2.272521)"
     gradientUnits="userSpaceOnUse"
     x1="15"
     x2="15"
     y1="5"
     y2="26">
    <stop
       offset="0"
       stop-color="#f8f8f8"
       id="stop26" />
    <stop
       offset="1"
       stop-color="#f8f8f8"
       stop-opacity="0"
       id="stop28" />
  </linearGradient>
  <linearGradient
     id="d"
     gradientUnits="userSpaceOnUse"
     x1="2.61152"
     x2="2.61152"
     y1="6.247762"
     y2="14.082323"
     gradientTransform="translate(0,-2.507952)">
    <stop
       offset="0"
       stop-color="#fff"
       id="stop31" />
    <stop
       offset=".5"
       stop-color="#ff7e00"
       id="stop33" />
    <stop
       offset=".75"
       stop-color="#f4c08d"
       id="stop35" />
    <stop
       offset="1"
       stop-color="#fee4ca"
       id="stop37" />
  </linearGradient>
  <linearGradient
     id="e"
     gradientUnits="userSpaceOnUse"
     x1=".65288"
     x2=".65288"
     y1="7.553522"
     y2="12.776563"
     gradientTransform="translate(0,-2.507952)">
    <stop
       offset="0"
       stop-color="#292929"
       id="stop40" />
    <stop
       offset=".25"
       stop-color="#797979"
       stop-opacity=".960784"
       id="stop42" />
    <stop
       offset=".5"
       stop-color="#292929"
       stop-opacity=".964706"
       id="stop44" />
    <stop
       offset=".75"
       stop-color="#797979"
       stop-opacity=".960784"
       id="stop46" />
    <stop
       offset="1"
       stop-color="#292929"
       stop-opacity=".930233"
       id="stop48" />
  </linearGradient>
  <linearGradient
     id="f"
     gradientUnits="userSpaceOnUse"
     x1="5.5"
     x2="6.5"
     y1="5.486284"
     y2="6.486284"
     gradientTransform="translate(0,-2.507952)">
    <stop
       offset=".2308"
       stop-color="#fff"
       id="stop51" />
    <stop
       offset="1"
       stop-color="#fff"
       stop-opacity="0"
       id="stop53" />
  </linearGradient>
  <linearGradient
     id="g"
     gradientUnits="userSpaceOnUse"
     x1="-197.22246"
     x2="-135.842"
     y1="93.331604"
     y2="93.331604">
    <stop
       offset="0"
       stop-color="#8c0000"
       id="stop56" />
    <stop
       offset="1"
       stop-color="#470000"
       id="stop58" />
  </linearGradient>
  <linearGradient
     id="h"
     gradientUnits="userSpaceOnUse"
     x1="-44.148221"
     x2="-45.430518"
     xlink:href="#g"
     y1="-5.289804"
     y2="2.99581"
     gradientTransform="translate(0,-2.507952)" />
  <radialGradient
     id="i"
     cx="19.188065"
     cy="13.46067"
     gradientUnits="userSpaceOnUse"
     r="7.071068"
     gradientTransform="matrix(0.58565781,-0.05977528,0.05977528,0.58565781,0.22887156,2.986324)">
    <stop
       offset="0"
       stop-color="#ff1212"
       id="stop62" />
    <stop
       offset="1"
       stop-color="#750000"
       id="stop64" />
  </radialGradient>
  <linearGradient
     id="j"
     gradientUnits="userSpaceOnUse"
     x1="16.696894"
     x2="17.271127"
     y1="5.257675"
     y2="12.148466"
     gradientTransform="translate(-5.0000002,-2.9999996)">
    <stop
       offset="0"
       stop-color="#ffb5b5"
       id="stop67" />
    <stop
       offset="1"
       stop-color="#ffbfbf"
       stop-opacity="0"
       id="stop69" />
  </linearGradient>
  <filter
     id="k"
     color-interpolation-filters="sRGB"
     height="1.048"
     width="1.048"
     x="-.024"
     y="-.024">
    <feGaussianBlur
       stdDeviation=".08"
       id="feGaussianBlur72" />
  </filter>
  <linearGradient
     id="l"
     gradientTransform="matrix(0.58565781,-0.05977528,0.05977528,0.58565781,0.2288718,2.9863234)"
     gradientUnits="userSpaceOnUse"
     x1="17.970076"
     x2="18.57435"
     y1="15.787584"
     y2="5.063852">
    <stop
       offset="0"
       stop-color="#cc3900"
       id="stop75" />
    <stop
       offset="1"
       stop-color="#fff"
       stop-opacity="0"
       id="stop77" />
  </linearGradient>
  <filter
     id="m"
     color-interpolation-filters="sRGB"
     height="1.024"
     width="1.024"
     x="-.012"
     y="-.012">
    <feGaussianBlur
       stdDeviation=".05852164"
       id="feGaussianBlur80" />
  </filter>
  <linearGradient
     id="n"
     gradientTransform="matrix(0.6749772,0,0,0.65288008,-0.80005,-2.264339)"
     gradientUnits="userSpaceOnUse"
     x1="15"
     x2="15"
     y1="27"
     y2="5">
    <stop
       offset="0"
       stop-color="#555"
       id="stop83" />
    <stop
       offset=".5"
       stop-color="#888"
       id="stop85" />
    <stop
       offset="1"
       stop-color="#555"
       id="stop87" />
  </linearGradient>
  <linearGradient
     id="o"
     gradientUnits="userSpaceOnUse"
     x1="2"
     x2="2"
     y1="14.75514"
     y2="6.070312"
     gradientTransform="translate(0,-2.507952)">
    <stop
       offset="0"
       stop-color="#555"
       id="stop90" />
    <stop
       offset="1"
       stop-color="#bc5d00"
       id="stop92" />
  </linearGradient>
  <linearGradient
     id="p"
     gradientUnits="userSpaceOnUse"
     x1="7"
     x2="4.5"
     y1="10.986284"
     y2="10.986284"
     gradientTransform="translate(0,-2.507952)">
    <stop
       offset="0"
       stop-color="#555"
       id="stop95" />
    <stop
       offset="1"
       stop-color="#323232"
       id="stop97" />
  </linearGradient>
  <linearGradient
     id="q"
     gradientUnits="userSpaceOnUse"
     x1="19.828781"
     x2="18.598301"
     xlink:href="#g"
     y1="2.72656"
     y2="19.18367"
     gradientTransform="matrix(0.58565781,-0.05977528,0.05977528,0.58565781,0.22887156,2.986324)" />
  <path
     inkscape:connector-curvature="0"
     style="fill:#9d3a9b;fill-opacity:1"
     id="path101"
     d="m 0,6 h 2 v 4 H 0 Z" />
  <path
     inkscape:connector-curvature="0"
     style="fill:#e602b4;fill-opacity:1"
     id="path103"
     d="m 2.0000001,3.9862839 c -0.5522619,5.52e-5 -0.9999448,0.4477381 -1,1 L 1,11 c 5.52e-5,0.552262 0.4477381,0.999945 1,1 h 2 l 1e-7,-8.0137161 z" />
  <path
     inkscape:connector-curvature="0"
     style="fill:#f0e3ec;fill-opacity:1"
     id="path105"
     d="m 2,5 h 1 v 6 H 2 Z" />
  <path
     inkscape:connector-curvature="0"
     style="fill:#e602b4"
     id="path107"
     d="m 6.9707031,0.0019531 c -0.254754,0.00704 -0.497193,0.1111438 -0.677734,0.2910157 L 3.2929687,3.8066849 C 3.1053644,3.9941512 2.9999707,4.2485012 2.9999999,4.5137161 L 3,11.5 c -2.91e-5,0.265215 0.1053646,0.519565 0.2929688,0.707031 l 3.0000003,3.5 C 6.5028171,15.917474 6.7486482,16.029361 7,16 H 8 V 15 1 0 Z" />
  <path
     inkscape:connector-curvature="0"
     style="fill:#f3b7d9;fill-opacity:1"
     id="path109"
     d="m 7,1 v 14 l -3,-3.5 -10e-8,-6.9862839 z" />
  <path
     inkscape:connector-curvature="0"
     style="fill:#e602b4"
     id="path111"
     d="M 7.999723,2.774e-4 C 7.447664,4.518e-4 7.000175,0.4479406 7,1 l 8.32e-4,14.000277 C 7.001006,15.552337 7.448495,15.999826 8.000555,16 l 1.000277,-2.77e-4 C 9.552892,15.999549 10.000381,15.55206 10.000555,15 L 9.999723,0.9997226 C 9.999548,0.4476632 9.552059,1.744e-4 9,0 Z" />
  <path
     inkscape:connector-curvature="0"
     style="fill:url(#b)"
     id="path113"
     d="M 7.999584,1.000061 H 9 V 15 H 7.999584 Z" />
  <path
     inkscape:connector-curvature="0"
     style="fill:#f0e3ec;fill-opacity:1"
     id="path115"
     d="M 8,1 H 9.000416 V 14.999939 H 8 Z" />
  <circle
     style="fill:url(#h);stroke-width:0.15157101"
     id="circle119"
     transform="scale(-1,1)"
     r="0"
     cy="-3.8499219"
     cx="-44.151012" />
  <path
     inkscape:connector-curvature="0"
     style="fill:#9d3a9b;stroke-width:0.58870041;fill-opacity:1"
     id="path123"
     d="m 16,9.6612637 -2.350947,2.3531603 -3.326306,0.0016 -2.3531603,-2.3509466 -0.00157,-3.3263057 2.3509473,-2.3531606 3.326305,-0.00157 2.353161,2.3509464 z" />
  <path
     inkscape:connector-curvature="0"
     style="fill:url(#i);stroke-width:0.58870041"
     id="path125"
     d="m 10.74191,5.0027056 -1.7566088,1.7569268 0.00141,2.4824686 1.7569268,1.756609 2.482469,-0.0014 1.756609,-1.7569272 -0.0014,-2.4824685 -1.756927,-1.7566085 z" />
  <path
     inkscape:connector-curvature="0"
     style="fill:url(#j)"
     id="path127"
     d="m 10.742188,5.0019535 -1.7578132,1.7578125 0.002,1.5507814 c 1.4986372,0.115567 3.9398672,-0.06053 5.9941412,-0.339844 V 6.7578129 l -1.75586,-1.7558594 z" />
  <path
     style="opacity:0.85;fill:#6a0303;fill-rule:evenodd;filter:url(#k)"
     inkscape:connector-curvature="0"
     id="path129"
     d="m 21.830078,11.6875 a 0.31326899,0.31326899 0 0 0 -0.216797,0.0918 l -1.333984,1.333984 a 0.31326899,0.31326899 0 0 0 0,0.441407 L 22.722656,16 20.279297,18.445312 a 0.31326899,0.31326899 0 0 0 0,0.441407 l 1.333984,1.333984 a 0.31326899,0.31326899 0 0 0 0.441407,0 L 24.5,17.775391 l 2.445312,2.445312 a 0.31326899,0.31326899 0 0 0 0.441407,0 l 1.333984,-1.333984 a 0.31326899,0.31326899 0 0 0 0,-0.441407 L 26.277344,16 28.720703,13.554688 a 0.31326899,0.31326899 0 0 0 0,-0.441407 l -1.333984,-1.333984 a 0.31326899,0.31326899 0 0 0 -0.441407,0 L 24.5,14.224609 22.054688,11.779297 a 0.31326899,0.31326899 0 0 0 -0.22461,-0.0918 z"
     transform="matrix(0.57423259,0,0,0.57423259,-2.084688,-1.187721)" />
  <path
     inkscape:connector-curvature="0"
     style="fill:#cc3900;stroke:#cc3900;stroke-width:0.28711599;stroke-opacity:1;fill-opacity:1"
     id="path133"
     d="m 10.742188,5.0019535 -1.7578132,1.7578125 0.002,2.4824224 1.7578132,1.7558586 h 2.482421 l 1.75586,-1.7578126 -0.002,-2.4824215 -1.75586,-1.7558594 z" />
  <path
     style="fill:#ffffff;fill-rule:evenodd;stroke-width:0.57423258"
     inkscape:connector-curvature="0"
     id="path131"
     d="M 10.452723,5.7030701 9.6870801,6.4687133 11.218367,8.0000004 9.6870801,9.5312875 10.452723,10.296931 11.98401,8.7656437 13.515298,10.296931 14.280941,9.5312875 12.749654,8.0000004 14.280941,6.4687133 13.515298,5.7030701 11.98401,7.2343572 Z" />
</svg>
