<?xml version="1.0" encoding="UTF-8" standalone="no"?>
<svg
   xmlns:dc="http://purl.org/dc/elements/1.1/"
   xmlns:cc="http://creativecommons.org/ns#"
   xmlns:rdf="http://www.w3.org/1999/02/22-rdf-syntax-ns#"
   xmlns:svg="http://www.w3.org/2000/svg"
   xmlns="http://www.w3.org/2000/svg"
   xmlns:xlink="http://www.w3.org/1999/xlink"
   xmlns:sodipodi="http://sodipodi.sourceforge.net/DTD/sodipodi-0.dtd"
   xmlns:inkscape="http://www.inkscape.org/namespaces/inkscape"
   height="16"
   width="16"
   version="1.1"
   id="svg49"
   sodipodi:docname="sc_navigateforward.svg"
   inkscape:version="0.92.4 (unknown)"
   inkscape:export-filename="/home/annisaauliarasyidah/Desktop/4_242 (aulia)/sc 222/sc_navigateforward.png"
   inkscape:export-xdpi="96"
   inkscape:export-ydpi="96">
  <metadata
     id="metadata55">
    <rdf:RDF>
      <cc:Work
         rdf:about="">
        <dc:format>image/svg+xml</dc:format>
        <dc:type
           rdf:resource="http://purl.org/dc/dcmitype/StillImage" />
      </cc:Work>
    </rdf:RDF>
  </metadata>
  <defs
     id="defs53">
    <linearGradient
       gradientTransform="matrix(-1,0,0,1,16.066969,0.06779559)"
       id="e-3"
       gradientUnits="userSpaceOnUse"
       x1="24.999807"
       x2="23.999807"
       y1="10.768957"
       y2="-4.2310429">
      <stop
         offset="0"
         stop-color="#005f1e"
         id="stop14-6" />
      <stop
         offset="1"
         stop-color="#43943c"
         id="stop16-7" />
    </linearGradient>
    <radialGradient
       id="g-5"
       cx="21.664968"
       cy="5.8065348"
       gradientTransform="matrix(-0.57622679,0.07202834,0.06452346,0.51618768,12.676247,4.0100416)"
       gradientUnits="userSpaceOnUse"
       r="7.7491202"
       xlink:href="#a" />
    <linearGradient
       id="linearGradient891">
      <stop
         offset="0"
         id="stop2-3" />
      <stop
         offset="1"
         stop-opacity="0"
         id="stop4-5" />
    </linearGradient>
    <radialGradient
       id="c-6"
       cx="6.5"
       cy="9.8599215"
       gradientTransform="matrix(-0.57622679,0.07202834,0.06452346,0.51618768,12.676247,4.0100416)"
       gradientUnits="userSpaceOnUse"
       r="7.7491202"
       xlink:href="#a" />
    <filter
       style="color-interpolation-filters:sRGB"
       id="i-2"
       height="1.0104001"
       width="1.0089144"
       x="-0.0044571427"
       y="-0.0052">
      <feGaussianBlur
         stdDeviation="0.026"
         id="feGaussianBlur30-9" />
    </filter>
  </defs>
  <sodipodi:namedview
     pagecolor="#ffffff"
     bordercolor="#666666"
     borderopacity="1"
     objecttolerance="10"
     gridtolerance="10"
     guidetolerance="10"
     inkscape:pageopacity="0"
     inkscape:pageshadow="2"
     inkscape:window-width="1366"
     inkscape:window-height="707"
     id="namedview51"
     showgrid="true"
     inkscape:snap-global="false"
     inkscape:zoom="14.75"
     inkscape:cx="-3.3898305"
     inkscape:cy="8"
     inkscape:window-x="0"
     inkscape:window-y="0"
     inkscape:window-maximized="1"
     inkscape:current-layer="svg49">
    <inkscape:grid
       type="xygrid"
       id="grid902" />
  </sodipodi:namedview>
  <linearGradient
     id="a">
    <stop
       offset="0"
       id="stop2" />
    <stop
       offset="1"
       stop-opacity="0"
       id="stop4" />
  </linearGradient>
  <radialGradient
     id="b"
     cx="5"
     cy="11.818009"
     gradientTransform="matrix(2.4993469 .00000008 -.00000005 1.470204 -7.496734 -6.374886)"
     gradientUnits="userSpaceOnUse"
     r="6.801777">
    <stop
       offset="0"
       stop-color="#83fc28"
       id="stop7" />
    <stop
       offset="1"
       stop-color="#102c07"
       id="stop9" />
  </radialGradient>
  <radialGradient
     id="c"
     cx="6.5"
     cy="9.859921"
     gradientTransform="matrix(.57622679 .07202834 -.06452346 .51618768 3.390722 3.942246)"
     gradientUnits="userSpaceOnUse"
     r="7.74912"
     xlink:href="#a" />
  <radialGradient
     id="d"
     cx="6.713591"
     cy="4.018276"
     gradientTransform="matrix(.57622679 .07202834 -.06452346 .51618768 3.390722 3.942246)"
     gradientUnits="userSpaceOnUse"
     r="7.74912"
     xlink:href="#a" />
  <linearGradient
     id="e"
     gradientUnits="userSpaceOnUse"
     x1="24.999807"
     x2="23.999807"
     y1="10.768957"
     y2="-4.231043">
    <stop
       offset="0"
       stop-color="#005f1e"
       id="stop14" />
    <stop
       offset="1"
       stop-color="#43943c"
       id="stop16" />
  </linearGradient>
  <linearGradient
     id="f"
     gradientUnits="userSpaceOnUse"
     x1="10.001761"
     x2="12.001761"
     y1="0"
     y2="11">
    <stop
       offset="0"
       stop-color="#edffbf"
       id="stop19" />
    <stop
       offset="1"
       stop-color="#edffbf"
       stop-opacity="0"
       id="stop21" />
  </linearGradient>
  <radialGradient
     id="g"
     cx="21.664968"
     cy="5.806535"
     gradientTransform="matrix(.57622679 .07202834 -.06452346 .51618768 3.390722 3.942246)"
     gradientUnits="userSpaceOnUse"
     r="7.74912"
     xlink:href="#a" />
  <linearGradient
     id="h"
     gradientUnits="userSpaceOnUse"
     x1="19.499807"
     x2="19.999807"
     y1="9.268957"
     y2="-1.231043">
    <stop
       offset="0"
       stop-color="#b2ff00"
       id="stop25" />
    <stop
       offset="1"
       stop-color="#acff00"
       stop-opacity="0"
       id="stop27" />
  </linearGradient>
  <filter
     id="i"
     color-interpolation-filters="sRGB"
     height="1.0552"
     width="1.042461"
     x="-.021231"
     y="-.0276">
    <feGaussianBlur
       stdDeviation=".115"
       id="feGaussianBlur30" />
  </filter>
  <path
     inkscape:connector-curvature="0"
     style="fill:url(#e-3)"
     d="m 8.582594,1.0677956 c 0.2418639,0.00335 0.4743159,0.094254 0.6542969,0.2558594 l 6.0000001,5.5 c 0.01269,0.012043 0.02507,0.024417 0.03711,0.037109 l 0.5,0.5 c 0.390369,0.3905299 0.390369,1.0235325 0,1.4140626 l -0.5,0.5 c -0.01204,0.01269 -0.02442,0.02507 -0.03711,0.03711 L 9.2368909,14.811938 C 8.841175,15.167994 8.2359012,15.151681 7.8599378,14.774828 l -1,-1 C 6.4942161,13.408891 6.4679577,12.824431 6.7993908,12.427172 L 8.9322034,10.067797 H 1.0669682 C 0.51470614,10.067742 0.06702314,9.6200586 0.06696814,9.0677966 v -2 c 5.5e-5,-0.5522619 0.447738,-0.9999448 1.00000006,-1 H 8.9322034 L 6.7993909,3.7084206 C 6.4679577,3.311162 6.494216,2.7267015 6.8599378,2.3607644 l 1,-1 C 8.0512611,1.1693526 8.3119911,1.0636512 8.582594,1.0677956 Z"
     id="path33" />
  <path
     inkscape:connector-curvature="0"
     style="fill:url(#g-5)"
     d="m 8.582594,1.0677956 c 0.2418639,0.00335 0.4743159,0.094254 0.6542969,0.2558594 l 6.0000001,5.5 c 0.01269,0.012043 0.02507,0.024417 0.03711,0.037109 l 0.5,0.5 c 0.390369,0.3905299 0.390369,1.0235325 0,1.4140626 l -0.5,0.5 c -0.01204,0.01269 -0.02442,0.02507 -0.03711,0.03711 L 9.2368909,14.811938 C 8.841175,15.167994 8.2359012,15.151681 7.8599378,14.774828 l -1,-1 C 6.4942161,13.408891 6.4679577,12.824431 6.7993908,12.427172 L 8.9322034,10.067797 H 1.0669682 C 0.51470614,10.067742 0.06702314,9.6200586 0.06696814,9.0677966 v -2 c 5.5e-5,-0.5522619 0.447738,-0.9999448 1.00000006,-1 H 8.9322034 L 6.7993909,3.7084206 C 6.4679577,3.311162 6.494216,2.7267015 6.8599378,2.3607644 l 1,-1 C 8.0512611,1.1693526 8.3119911,1.0636512 8.582594,1.0677956 Z"
     id="path35" />
  <path
     inkscape:connector-curvature="0"
     style="fill:url(#c-6)"
     d="m 8.582594,1.0677956 c 0.2418639,0.00335 0.4743159,0.094254 0.6542969,0.2558594 l 6.0000001,5.5 c 0.01269,0.012043 0.02507,0.024417 0.03711,0.037109 l 0.5,0.5 c 0.390369,0.3905299 0.390369,1.0235325 0,1.4140626 l -0.5,0.5 c -0.01204,0.01269 -0.02442,0.02507 -0.03711,0.03711 L 9.2368909,14.811938 C 8.841175,15.167994 8.2359012,15.151681 7.8599378,14.774828 l -1,-1 C 6.4942161,13.408891 6.4679577,12.824431 6.7993908,12.427172 L 8.9322034,10.067797 H 1.0669682 C 0.51470614,10.067742 0.06702314,9.6200586 0.06696814,9.0677966 v -2 c 5.5e-5,-0.5522619 0.447738,-0.9999448 1.00000006,-1 H 8.9322034 L 6.7993909,3.7084206 C 6.4679577,3.311162 6.494216,2.7267015 6.8599378,2.3607644 l 1,-1 C 8.0512611,1.1693526 8.3119911,1.0636512 8.582594,1.0677956 Z"
     id="path37" />
  <path
     inkscape:connector-curvature="0"
     d="m 8.582594,1.0677956 c 0.2418639,0.00335 0.4743159,0.094254 0.6542969,0.2558594 l 6.0000001,5.5 c 0.01269,0.012043 0.02507,0.024417 0.03711,0.037109 l 0.5,0.5 c 0.390369,0.3905299 0.390369,1.0235325 0,1.4140626 l -0.5,0.5 c -0.01204,0.01269 -0.02442,0.02507 -0.03711,0.03711 L 9.2368909,14.811938 C 8.841175,15.167994 8.2359012,15.151681 7.8599378,14.774828 l -1,-1 C 6.4942161,13.408891 6.4679577,12.824431 6.7993908,12.427172 L 8.9322034,10.067797 H 1.0669682 C 0.51470614,10.067742 0.06702314,9.6200586 0.06696814,9.0677966 v -2 c 5.5e-5,-0.5522619 0.447738,-0.9999448 1.00000006,-1 H 8.9322034 L 6.7993909,3.7084206 C 6.4679577,3.311162 6.494216,2.7267015 6.8599378,2.3607644 l 1,-1 C 8.0512611,1.1693526 8.3119911,1.0636512 8.582594,1.0677956 Z"
     id="path39"
     style="fill:#e602b4" />
  <path
     inkscape:connector-curvature="0"
     d="m 8.566969,2.0677956 6,5.5 0.5,0.5 -0.5,0.5 -6,5.5000004 -1,-1 3.5,-4.0000004 H 1.0669682 v -2 H 11.066969 l -3.5,-4 z"
     id="path41"
     style="fill:#9d3a9b" />
  <path
     inkscape:connector-curvature="0"
     d="m -4.9068762,3.558985 -5.9999998,5.5 -0.5,0.5 0.5,0.5 5.9999998,5.5 1,-1 -3.5,-4 H 2.5931243 v -2 H -7.4068762 l 3.5,-4 z"
     id="path45"
     style="fill:#f3b7d9;stroke:none;stroke-width:0.5;stroke-opacity:1;filter:url(#i-2)"
     transform="matrix(-1,0,0,1,3.6600928,-1.4911894)" />
</svg>
