<?xml version="1.0" encoding="UTF-8" standalone="no"?>
<svg
   xmlns:dc="http://purl.org/dc/elements/1.1/"
   xmlns:cc="http://creativecommons.org/ns#"
   xmlns:rdf="http://www.w3.org/1999/02/22-rdf-syntax-ns#"
   xmlns:svg="http://www.w3.org/2000/svg"
   xmlns="http://www.w3.org/2000/svg"
   xmlns:xlink="http://www.w3.org/1999/xlink"
   xmlns:sodipodi="http://sodipodi.sourceforge.net/DTD/sodipodi-0.dtd"
   xmlns:inkscape="http://www.inkscape.org/namespaces/inkscape"
   height="16"
   width="16"
   version="1.1"
   id="svg47"
   sodipodi:docname="sc_navigateback.svg"
   inkscape:version="0.92.4 (unknown)"
   inkscape:export-filename="/home/annisaauliarasyidah/Desktop/4_242 (aulia)/sc 222/sc_navigateback.png"
   inkscape:export-xdpi="96"
   inkscape:export-ydpi="96">
  <metadata
     id="metadata53">
    <rdf:RDF>
      <cc:Work
         rdf:about="">
        <dc:format>image/svg+xml</dc:format>
        <dc:type
           rdf:resource="http://purl.org/dc/dcmitype/StillImage" />
      </cc:Work>
    </rdf:RDF>
  </metadata>
  <defs
     id="defs51" />
  <sodipodi:namedview
     pagecolor="#ffffff"
     bordercolor="#666666"
     borderopacity="1"
     objecttolerance="10"
     gridtolerance="10"
     guidetolerance="10"
     inkscape:pageopacity="0"
     inkscape:pageshadow="2"
     inkscape:window-width="1366"
     inkscape:window-height="707"
     id="namedview49"
     showgrid="true"
     inkscape:zoom="14.75"
     inkscape:cx="0.13559322"
     inkscape:cy="8"
     inkscape:window-x="0"
     inkscape:window-y="0"
     inkscape:window-maximized="1"
     inkscape:current-layer="svg47">
    <inkscape:grid
       type="xygrid"
       id="grid860" />
  </sodipodi:namedview>
  <linearGradient
     id="a">
    <stop
       offset="0"
       id="stop2" />
    <stop
       offset="1"
       stop-opacity="0"
       id="stop4" />
  </linearGradient>
  <radialGradient
     id="b"
     cx="5"
     cy="11.818009"
     gradientTransform="matrix(2.4993469 .00000008 -.00000005 1.470204 -7.496734 -6.374886)"
     gradientUnits="userSpaceOnUse"
     r="6.801777">
    <stop
       offset="0"
       stop-color="#83fc28"
       id="stop7" />
    <stop
       offset="1"
       stop-color="#102c07"
       id="stop9" />
  </radialGradient>
  <radialGradient
     id="c"
     cx="6.5"
     cy="9.859921"
     gradientTransform="matrix(.57622679 .07202834 -.06452346 .51618768 3.390722 3.942246)"
     gradientUnits="userSpaceOnUse"
     r="7.74912"
     xlink:href="#a" />
  <radialGradient
     id="d"
     cx="6.713591"
     cy="4.018276"
     gradientTransform="matrix(.57622679 .07202834 -.06452346 .51618768 3.390722 3.942246)"
     gradientUnits="userSpaceOnUse"
     r="7.74912"
     xlink:href="#a" />
  <linearGradient
     id="e"
     gradientUnits="userSpaceOnUse"
     x1="24.999807"
     x2="23.999807"
     y1="10.768957"
     y2="-4.231043">
    <stop
       offset="0"
       stop-color="#005f1e"
       id="stop14" />
    <stop
       offset="1"
       stop-color="#43943c"
       id="stop16" />
  </linearGradient>
  <linearGradient
     id="f"
     gradientUnits="userSpaceOnUse"
     x1="23.999807"
     x2="25.999807"
     y1="-4.231043"
     y2="6.768957">
    <stop
       offset="0"
       stop-color="#edffbf"
       id="stop19" />
    <stop
       offset="1"
       stop-color="#edffbf"
       stop-opacity="0"
       id="stop21" />
  </linearGradient>
  <radialGradient
     id="g"
     cx="21.664968"
     cy="5.806535"
     gradientTransform="matrix(.57622679 .07202834 -.06452346 .51618768 3.390722 3.942246)"
     gradientUnits="userSpaceOnUse"
     r="7.74912"
     xlink:href="#a" />
  <linearGradient
     id="h"
     gradientUnits="userSpaceOnUse"
     x1="19.499807"
     x2="19.999807"
     y1="9.268957"
     y2="-1.231043">
    <stop
       offset="0"
       stop-color="#b2ff00"
       id="stop25" />
    <stop
       offset="1"
       stop-color="#acff00"
       stop-opacity="0"
       id="stop27" />
  </linearGradient>
  <filter
     id="i"
     color-interpolation-filters="sRGB"
     height="1.0104"
     width="1.0089143"
     x="-0.0044571429"
     y="-0.0052">
    <feGaussianBlur
       stdDeviation="0.026"
       id="feGaussianBlur30" />
  </filter>
  <path
     d="m7.484375 1c-.2418639.003355-.4743159.0942542-.6542969.2558594l-5.99999998 5.5c-.0126923.012043-.0250663.024417-.0371094.037109l-.5.5c-.39036833.3905299-.39036833 1.0235325 0 1.4140624l.5.5c.0120431.012692.0244171.025066.0371094.037109l5.99999998 5.5000012c.3957159.356056 1.0009897.339743 1.3769531-.03711l1-1c.3657217-.365937.3919801-.950397.060547-1.347656l-2.1328126-2.359375h7.8652344c.552262-.0000552.999945-.4477381 1-1v-2c-.000055-.5522619-.447738-.9999448-1-1h-7.8652344l2.1328125-2.359375c.3314332-.3972586.3051749-.9817191-.0605469-1.3476562l-1-1c-.1913233-.1914118-.4520533-.2971132-.7226562-.2929688z"
     fill="url(#e)"
     id="path33" />
  <path
     d="m7.484375 1c-.2418639.003355-.4743159.0942542-.6542969.2558594l-5.99999998 5.5c-.0126923.012043-.0250663.024417-.0371094.037109l-.5.5c-.39036833.3905299-.39036833 1.0235325 0 1.4140624l.5.5c.0120431.012692.0244171.025066.0371094.037109l5.99999998 5.5000012c.3957159.356056 1.0009897.339743 1.3769531-.03711l1-1c.3657217-.365937.3919801-.950397.060547-1.347656l-2.1328126-2.359375h7.8652344c.552262-.0000552.999945-.4477381 1-1v-2c-.000055-.5522619-.447738-.9999448-1-1h-7.8652344l2.1328125-2.359375c.3314332-.3972586.3051749-.9817191-.0605469-1.3476562l-1-1c-.1913233-.1914118-.4520533-.2971132-.7226562-.2929688z"
     fill="url(#g)"
     id="path35" />
  <path
     d="m7.484375 1c-.2418639.003355-.4743159.0942542-.6542969.2558594l-5.99999998 5.5c-.0126923.012043-.0250663.024417-.0371094.037109l-.5.5c-.39036833.3905299-.39036833 1.0235325 0 1.4140624l.5.5c.0120431.012692.0244171.025066.0371094.037109l5.99999998 5.5000012c.3957159.356056 1.0009897.339743 1.3769531-.03711l1-1c.3657217-.365937.3919801-.950397.060547-1.347656l-2.1328126-2.359375h7.8652344c.552262-.0000552.999945-.4477381 1-1v-2c-.000055-.5522619-.447738-.9999448-1-1h-7.8652344l2.1328125-2.359375c.3314332-.3972586.3051749-.9817191-.0605469-1.3476562l-1-1c-.1913233-.1914118-.4520533-.2971132-.7226562-.2929688z"
     fill="url(#c)"
     id="path37" />
  <path
     d="m7.484375 1c-.2418639.003355-.4743159.0942542-.6542969.2558594l-5.99999998 5.5c-.0126923.012043-.0250663.024417-.0371094.037109l-.5.5c-.39036833.3905299-.39036833 1.0235325 0 1.4140624l.5.5c.0120431.012692.0244171.025066.0371094.037109l5.99999998 5.5000012c.3957159.356056 1.0009897.339743 1.3769531-.03711l1-1c.3657217-.365937.3919801-.950397.060547-1.347656l-2.1328126-2.359375h7.8652344c.552262-.0000552.999945-.4477381 1-1v-2c-.000055-.5522619-.447738-.9999448-1-1h-7.8652344l2.1328125-2.359375c.3314332-.3972586.3051749-.9817191-.0605469-1.3476562l-1-1c-.1913233-.1914118-.4520533-.2971132-.7226562-.2929688z"
     fill="url(#d)"
     id="path39"
     style="fill:#e602b4" />
  <path
     d="m7.5 2-6 5.5-.5.5.5.5 6 5.5 1-1-3.5-4h10v-2h-10l3.5-4z"
     fill="url(#b)"
     id="path41"
     style="fill:#9d3a9b" />
  <path
     d="m7.5 2-6 5.5-.5.5.5.5 6 5.5 1-1-3.5-4h10v-2h-10l3.5-4z"
     fill="none"
     filter="url(#i)"
     stroke="url(#h)"
     stroke-width=".5"
     id="path45"
     style="stroke:none;stroke-opacity:1;fill:#f3b7d9;filter:url(#i)" />
</svg>
