<?xml version="1.0" encoding="UTF-8" standalone="no"?>
<svg
   xmlns:dc="http://purl.org/dc/elements/1.1/"
   xmlns:cc="http://creativecommons.org/ns#"
   xmlns:rdf="http://www.w3.org/1999/02/22-rdf-syntax-ns#"
   xmlns:svg="http://www.w3.org/2000/svg"
   xmlns="http://www.w3.org/2000/svg"
   xmlns:sodipodi="http://sodipodi.sourceforge.net/DTD/sodipodi-0.dtd"
   xmlns:inkscape="http://www.inkscape.org/namespaces/inkscape"
   height="16"
   viewBox="0 0 16 16"
   width="16"
   version="1.1"
   id="svg38"
   sodipodi:docname="sc_numericfield.svg"
   inkscape:version="0.92.4 (unknown)">
  <metadata
     id="metadata44">
    <rdf:RDF>
      <cc:Work
         rdf:about="">
        <dc:format>image/svg+xml</dc:format>
        <dc:type
           rdf:resource="http://purl.org/dc/dcmitype/StillImage" />
      </cc:Work>
    </rdf:RDF>
  </metadata>
  <defs
     id="defs42" />
  <sodipodi:namedview
     pagecolor="#ffffff"
     bordercolor="#666666"
     borderopacity="1"
     objecttolerance="10"
     gridtolerance="10"
     guidetolerance="10"
     inkscape:pageopacity="0"
     inkscape:pageshadow="2"
     inkscape:window-width="1366"
     inkscape:window-height="707"
     id="namedview40"
     showgrid="false"
     inkscape:zoom="14.75"
     inkscape:cx="0.13559322"
     inkscape:cy="8"
     inkscape:window-x="0"
     inkscape:window-y="0"
     inkscape:window-maximized="1"
     inkscape:current-layer="svg38" />
  <linearGradient
     id="a"
     gradientTransform="matrix(.9792 0 0 .9725 133.0002 20.8762)"
     gradientUnits="userSpaceOnUse"
     x1="-135.2299"
     x2="-120.50674"
     y1="-21.610088"
     y2="-9.127198">
    <stop
       offset="0"
       stop-color="#8dd8e4"
       id="stop2" />
    <stop
       offset=".04431298"
       stop-color="#a8e2f1"
       id="stop4" />
    <stop
       offset=".33793688"
       stop-color="#0a9dc4"
       id="stop6" />
    <stop
       offset=".73121971"
       stop-color="#00718c"
       id="stop8" />
    <stop
       offset="1"
       stop-color="#002b38"
       id="stop10" />
  </linearGradient>
  <mask
     id="b"
     maskUnits="userSpaceOnUse">
    <path
       d="m12 16.312845h110.11765v35.373653h-110.11765z"
       fill="#fff"
       id="path13" />
  </mask>
  <filter
     id="c"
     color-interpolation-filters="sRGB"
     height="2.168999"
     width="1.076726"
     x="-.038363"
     y="-.5845">
    <feGaussianBlur
       stdDeviation="1.6184007"
       id="feGaussianBlur16" />
  </filter>
  <linearGradient
     id="d"
     gradientUnits="userSpaceOnUse"
     x1="64.822235"
     x2="64.716736"
     y1="17.727728"
     y2="25.233469">
    <stop
       offset="0"
       stop-color="#717171"
       id="stop19" />
    <stop
       offset="1"
       stop-color="#717171"
       stop-opacity="0"
       id="stop21" />
  </linearGradient>
  <rect
     fill="url(#a)"
     height="10"
     rx="1.5"
     stroke-width=".25"
     width="16"
     y="3"
     id="rect24"
     style="fill:#9d3a9b" />
  <path
     d="m1 4h14v8h-14z"
     fill="#fff"
     id="path26"
     style="fill:#e602b4" />
  <g
     fill="#4d4d4d"
     stroke-width=".209715"
     id="g36"
     style="fill:#f3b7d9">
    <path
       d="m3.0488161 6.7611267h-1.3170073v-.5284806q.8556353-.1090516 1.1156814-.301989.260046-.1929373.4529833-.880801h.4865378v5.9475039h-.7381952z"
       id="path30"
       style="fill:#f3b7d9" />
    <path
       d="m5.9650276 7.1134471q.05872-2.063591 1.962928-2.063591.8472468 0 1.3757274.4865377.5284806.4865377.5284806 1.2582872 0 1.1072927-1.2582872 1.7951564l-.8388581.4529834q-.5452578.2936003-.7801381.5704235-.2348803.2768232-.2936003.6543097h3.1289408v.729806h-3.9594104q.0503315-.981464.3942633-1.5099444.3439319-.5368692 1.2750644-1.0653498l.7717495-.4362062q.8053038-.461372.8053038-1.1744014 0-.4781492-.3355433-.7969152-.3355432-.3187661-.8388581-.3187661-1.1156813 0-1.1995671 1.4176702z"
       id="path32"
       style="fill:#f3b7d9" />
    <path
       d="m12.479941 5.6957769q-.637533 0-.880802.3523204-.23488.3439318-.251657.9227439h-.738195q.04194-1.9209851 1.862265-1.9209851.847247 0 1.325396.4362062.486537.4362063.486537 1.1995672 0 .9059667-.830469 1.2331214.536869.1845488.771749.520092.234881.3271547.234881.8975782 0 .8472469-.553647 1.3505619-.545257.503315-1.459613.503315-1.828711 0-1.962928-1.9209855h.738195q.04194.6459207.343932.9562985.301989.310377.905967.310377.578812 0 .905967-.310377.327154-.3187663.327154-.8808013 0-1.082127-1.233121-1.082127l-.310378.00839h-.092274v-.629145q.796915-.016777 1.12407-.2013259.335543-.1845488.335543-.7298066 0-.4697606-.285212-.7381952-.276823-.2768231-.76336-.2768231z"
       id="path34"
       style="fill:#f3b7d9" />
  </g>
</svg>
