<?xml version="1.0" encoding="UTF-8" standalone="no"?>
<svg
   xmlns:dc="http://purl.org/dc/elements/1.1/"
   xmlns:cc="http://creativecommons.org/ns#"
   xmlns:rdf="http://www.w3.org/1999/02/22-rdf-syntax-ns#"
   xmlns:svg="http://www.w3.org/2000/svg"
   xmlns="http://www.w3.org/2000/svg"
   xmlns:sodipodi="http://sodipodi.sourceforge.net/DTD/sodipodi-0.dtd"
   xmlns:inkscape="http://www.inkscape.org/namespaces/inkscape"
   height="16"
   viewBox="0 0 4.2333332 4.2333335"
   width="16"
   version="1.1"
   id="svg9"
   sodipodi:docname="sc_numberformatpercent.svg"
   inkscape:export-filename="/home/annisaauliarasyidah/Desktop/4_242 (aulia)/sc 222/sc_numberformatpercent.png"
   inkscape:export-xdpi="96"
   inkscape:export-ydpi="96"
   inkscape:version="0.92.4 (unknown)">
  <metadata
     id="metadata15">
    <rdf:RDF>
      <cc:Work
         rdf:about="">
        <dc:format>image/svg+xml</dc:format>
        <dc:type
           rdf:resource="http://purl.org/dc/dcmitype/StillImage" />
      </cc:Work>
    </rdf:RDF>
  </metadata>
  <defs
     id="defs13" />
  <sodipodi:namedview
     pagecolor="#ffffff"
     bordercolor="#666666"
     borderopacity="1"
     objecttolerance="10"
     gridtolerance="10"
     guidetolerance="10"
     inkscape:pageopacity="0"
     inkscape:pageshadow="2"
     inkscape:window-width="1366"
     inkscape:window-height="707"
     id="namedview11"
     showgrid="false"
     inkscape:zoom="14.75"
     inkscape:cx="0.13559322"
     inkscape:cy="8"
     inkscape:window-x="0"
     inkscape:window-y="0"
     inkscape:window-maximized="1"
     inkscape:current-layer="svg9" />
  <linearGradient
     id="a"
     gradientUnits="userSpaceOnUse"
     x1="2.549159"
     x2="2.549159"
     y1="296.24165"
     y2="293.648407">
    <stop
       offset="0"
       stop-color="#555"
       id="stop2" />
    <stop
       offset="1"
       id="stop4" />
  </linearGradient>
  <path
     d="m3.1083763 294.72622q.1924506 0 .2984948.10998.1060442.10997.1060442.31027 0 .2278-.090334.45167-.090334.22387-.2474366.3849-.2003057.20031-.4595249.20031-.2120885 0-.3416981-.13747-.1296096-.14139-.1296096-.36919 0-.36919.2631468-.65983.2670743-.29064.6009173-.29064zm-.3259878 1.3393q.1688852 0 .3181326-.14924.1492475-.14925.2277987-.35349.082479-.20816.082479-.39668 0-.12961-.082479-.21994-.078551-.0943-.1924506-.0943-.1806679 0-.3259878.20423-.1453199.20423-.2081609.42025-.058913.21209-.058913.33777 0 .10997.066768.18067.066769.0707.1728129.0707zm-1.1939795-2.48222q.1217545 0 .1963782.055.074624.0511.1649577.10604.094261.0511.2552917.0511.1845955 0 .3181326-.0589.1374648-.0589.2945673-.20816h.153175l-1.5121121 2.70609h-.1885231l1.378575-2.45866q-.2042333.11783-.432032.11783-.153175 0-.2552917-.0393.027493.0982.027493.17282 0 .36526-.2356538.69518-.2317263.32598-.5694968.32598-.19245059 0-.32991532-.14532-.13353718-.14924-.13353718-.35348 0-.37312.26314678-.66768.26707432-.2985.60484482-.2985zm0 .11783q-.188523 0-.3809737.34562-.188523.3417-.188523.62842 0 .10604.062841.17281.066769.0668.1688852.0668.2395814 0 .4398872-.27886.2003057-.28279.2003057-.61663 0-.0746-.035348-.19245-.078551-.0196-.1335372-.0432-.051058-.0275-.070696-.0432-.01571-.0157-.031421-.0275-.01571-.0118-.031421-.0118z"
     fill="url(#a)"
     stroke-width=".098189"
     transform="translate(0 -292.76665)"
     id="path7"
     style="fill:#f3b7d9;stroke:#9d3a9b;stroke-width:0.06614583;stroke-miterlimit:4;stroke-dasharray:none" />
</svg>
