<?xml version="1.0" encoding="UTF-8" standalone="no"?>
<svg
   xmlns:dc="http://purl.org/dc/elements/1.1/"
   xmlns:cc="http://creativecommons.org/ns#"
   xmlns:rdf="http://www.w3.org/1999/02/22-rdf-syntax-ns#"
   xmlns:svg="http://www.w3.org/2000/svg"
   xmlns="http://www.w3.org/2000/svg"
   xmlns:sodipodi="http://sodipodi.sourceforge.net/DTD/sodipodi-0.dtd"
   xmlns:inkscape="http://www.inkscape.org/namespaces/inkscape"
   height="16"
   viewBox="0 0 4.2333333 4.2333334"
   width="16"
   version="1.1"
   id="svg31"
   sodipodi:docname="sc_numberformatdecdecimals.svg"
   inkscape:version="0.92.4 (unknown)"
   inkscape:export-filename="/home/annisaauliarasyidah/Desktop/4_242 (aulia)/sc 222/sc_numberformatdecdecimals.png"
   inkscape:export-xdpi="96"
   inkscape:export-ydpi="96">
  <metadata
     id="metadata37">
    <rdf:RDF>
      <cc:Work
         rdf:about="">
        <dc:format>image/svg+xml</dc:format>
        <dc:type
           rdf:resource="http://purl.org/dc/dcmitype/StillImage" />
      </cc:Work>
    </rdf:RDF>
  </metadata>
  <defs
     id="defs35" />
  <sodipodi:namedview
     pagecolor="#ffffff"
     bordercolor="#666666"
     borderopacity="1"
     objecttolerance="10"
     gridtolerance="10"
     guidetolerance="10"
     inkscape:pageopacity="0"
     inkscape:pageshadow="2"
     inkscape:window-width="1366"
     inkscape:window-height="707"
     id="namedview33"
     showgrid="true"
     inkscape:zoom="14.75"
     inkscape:cx="0.13559322"
     inkscape:cy="8.4685832"
     inkscape:window-x="0"
     inkscape:window-y="0"
     inkscape:window-maximized="1"
     inkscape:current-layer="svg31">
    <inkscape:grid
       type="xygrid"
       id="grid844" />
  </sodipodi:namedview>
  <linearGradient
     id="a"
     gradientUnits="userSpaceOnUse"
     x1="1.709535"
     x2="1.709535"
     y1="3.999728"
     y2="2.176602">
    <stop
       offset="0"
       stop-color="#555"
       id="stop2" />
    <stop
       offset="1"
       id="stop4" />
  </linearGradient>
  <linearGradient
     id="b"
     gradientUnits="userSpaceOnUse"
     x1="1.924789"
     x2="1.817162"
     y1="1.059726"
     y2="-1.732044">
    <stop
       offset="0"
       stop-color="#0968ef"
       id="stop7" />
    <stop
       offset="1"
       stop-color="#aecffc"
       id="stop9" />
  </linearGradient>
  <radialGradient
     id="c"
     cx="-32"
     cy="9.6"
     gradientTransform="matrix(.11920158 .11920158 -.59600792 .59600792 13.024494 -1.468809)"
     gradientUnits="userSpaceOnUse"
     r="5.6">
    <stop
       offset="0"
       stop-color="#a50606"
       id="stop12" />
    <stop
       offset="1"
       stop-color="#f20909"
       id="stop14" />
  </radialGradient>
  <g
     fill="url(#a)"
     stroke-width=".066682"
     id="g23"
     style="fill:#f3b7d9;stroke:#e602b4;stroke-width:0.03307292;stroke-miterlimit:4;stroke-dasharray:none">
    <path
       d="m1.5594141 3.7126893q-.1653724.2560605-.4374367.2560605-.27206426 0-.43743667-.261395-.16537241-.2613951-.16537241-.6721589 0-.386758.16537241-.6454858.16537241-.2613951.44810587-.2613951.2613951 0 .4267675.2560605.1653724.2560605.1653724.6668242 0 .4054291-.1653724.6614896zm-.4347694-1.5150246q-.34941588 0-.34941588.8615369 0 .8401985.34674858.8401985.3467486 0 .3467486-.8428658 0-.4187656-.088021-.6374839-.0880206-.2213857-.2560603-.2213857z"
       id="path17"
       style="fill:#f3b7d9;stroke:#e602b4;stroke-width:0.03307292;stroke-miterlimit:4;stroke-dasharray:none" />
    <path
       d="m2.8136875 3.7126893q-.1653724.2560605-.4374367.2560605-.2720642 0-.4374367-.261395-.1653724-.2613951-.1653724-.6721589 0-.386758.1653724-.6454858.1653725-.2613951.4481059-.2613951.2613951 0 .4267675.2560605.1653724.2560605.1653724.6668242 0 .4054291-.1653724.6614896zm-.4347694-1.5150246q-.3494159 0-.3494159.8615369 0 .8401985.3467486.8401985.3467486 0 .3467486-.8428658 0-.4187656-.088021-.6374839-.0880206-.2213857-.2560603-.2213857z"
       id="path19"
       style="fill:#f3b7d9;stroke:#e602b4;stroke-width:0.03307292;stroke-miterlimit:4;stroke-dasharray:none" />
    <path
       d="m4.0679609 3.7126893q-.1653724.2560605-.4374367.2560605-.2720642 0-.4374366-.261395-.1653724-.2613951-.1653724-.6721589 0-.386758.1653724-.6454858.1653724-.2613951.4481058-.2613951.2613951 0 .4267675.2560605.1653724.2560605.1653724.6668242 0 .4054291-.1653724.6614896zm-.4347694-1.5150246q-.3494158 0-.3494158.8615369 0 .8401985.3467485.8401985.3467486 0 .3467486-.8428658 0-.4187656-.088021-.6374839-.0880206-.2213857-.2560603-.2213857z"
       id="path21"
       style="fill:#f3b7d9;stroke:#e602b4;stroke-width:0.03307292;stroke-miterlimit:4;stroke-dasharray:none" />
  </g>
  <path
     d="m1.5594141 1.8489577q-.1653724.2560605-.4374367.2560605-.27206426 0-.43743667-.2613951-.16537241-.2613951-.16537241-.6721588 0-.38675804.16537241-.64548583.16537241-.2613951.44810587-.2613951.2613951 0 .4267675.2560605.1653724.2560605.1653724.66682423 0 .4054291-.1653724.6614896zm-.4347694-1.51502461q-.34941588 0-.34941588.86153691 0 .8401985.34674858.8401985.3467486 0 .3467486-.8428658 0-.41876562-.088021-.63748397-.0880206-.22138564-.2560603-.22138564z"
     fill="url(#b)"
     id="path25"
     style="fill:#f3b7d9;stroke:#9d3a9b;stroke-width:0.03307292;stroke-miterlimit:4;stroke-dasharray:none" />
  <circle
     cx="0.3004587"
     cy="3.7221048"
     r="0.26458299"
     id="circle27"
     style="fill:#f3b7d9;stroke:#e602b4;stroke-width:0.03307292;stroke-miterlimit:4;stroke-dasharray:none" />
  <path
     d="M 3.8909085,0.07175118 3.2769535,0.68570588 2.6629987,0.07175118 2.3564495,0.37830039 2.9704043,0.99225511 2.3564495,1.6062101 2.6629987,1.9127594 3.2769535,1.2988046 3.8909085,1.9127594 4.1974577,1.6062101 3.5835029,0.99225511 4.1974577,0.37830039 Z"
     id="path29"
     style="fill:#f3b7d9;stroke:#9d3a9b;stroke-width:0.06614583;stroke-miterlimit:4;stroke-dasharray:none"
     inkscape:connector-curvature="0" />
</svg>
