<?xml version="1.0" encoding="UTF-8" standalone="no"?>
<svg
   xmlns:dc="http://purl.org/dc/elements/1.1/"
   xmlns:cc="http://creativecommons.org/ns#"
   xmlns:rdf="http://www.w3.org/1999/02/22-rdf-syntax-ns#"
   xmlns:svg="http://www.w3.org/2000/svg"
   xmlns="http://www.w3.org/2000/svg"
   xmlns:sodipodi="http://sodipodi.sourceforge.net/DTD/sodipodi-0.dtd"
   xmlns:inkscape="http://www.inkscape.org/namespaces/inkscape"
   height="16"
   viewBox="0 0 16 16"
   width="16"
   version="1.1"
   id="svg36"
   sodipodi:docname="sc_navigationbar.svg"
   inkscape:version="0.92.4 (unknown)"
   inkscape:export-filename="/home/annisaauliarasyidah/Desktop/4_242 (aulia)/sc 222/sc_navigationbar.png"
   inkscape:export-xdpi="96"
   inkscape:export-ydpi="96">
  <metadata
     id="metadata42">
    <rdf:RDF>
      <cc:Work
         rdf:about="">
        <dc:format>image/svg+xml</dc:format>
        <dc:type
           rdf:resource="http://purl.org/dc/dcmitype/StillImage" />
      </cc:Work>
    </rdf:RDF>
  </metadata>
  <defs
     id="defs40" />
  <sodipodi:namedview
     pagecolor="#ffffff"
     bordercolor="#666666"
     borderopacity="1"
     objecttolerance="10"
     gridtolerance="10"
     guidetolerance="10"
     inkscape:pageopacity="0"
     inkscape:pageshadow="2"
     inkscape:window-width="1366"
     inkscape:window-height="707"
     id="namedview38"
     showgrid="true"
     inkscape:zoom="14.75"
     inkscape:cx="-3.3559322"
     inkscape:cy="8"
     inkscape:window-x="0"
     inkscape:window-y="0"
     inkscape:window-maximized="1"
     inkscape:current-layer="svg36">
    <inkscape:grid
       type="xygrid"
       id="grid857" />
  </sodipodi:namedview>
  <linearGradient
     id="a"
     gradientTransform="rotate(90,65.170062,65.407638)"
     gradientUnits="userSpaceOnUse"
     x1="26.221916"
     x2="96.5784"
     y1="59.536545"
     y2="57.715343">
    <stop
       offset="0"
       stop-color="#fff"
       id="stop2" />
    <stop
       offset="1"
       stop-color="#bbb"
       id="stop4" />
  </linearGradient>
  <filter
     id="b"
     color-interpolation-filters="sRGB"
     height="1.011497"
     width="1.00824"
     x="-.00412"
     y="-.005748">
    <feGaussianBlur
       stdDeviation=".13885547"
       id="feGaussianBlur7" />
  </filter>
  <linearGradient
     id="c"
     gradientTransform="matrix(0.1170195,0,0,0.12031047,0.48049762,-0.80656788)"
     gradientUnits="userSpaceOnUse"
     x1="72.618614"
     x2="73.819366"
     y1="101.35709"
     y2="47.875233">
    <stop
       offset="0"
       stop-color="#b3b3b7"
       id="stop10" />
    <stop
       offset="1"
       stop-color="#e5e5e5"
       stop-opacity=".996078"
       id="stop12" />
  </linearGradient>
  <filter
     id="d"
     color-interpolation-filters="sRGB"
     height="1.045747"
     width="1.050486"
     x="-.025243"
     y="-.022874">
    <feGaussianBlur
       stdDeviation=".38122712"
       id="feGaussianBlur15" />
  </filter>
  <path
     style="fill:#e602b4;fill-opacity:0.99586098;stroke-width:0.125"
     inkscape:connector-curvature="0"
     id="path18"
     d="m 1.8525223,2.999999 v 0.00624 H 1.4622906 C 0.93262061,3.0062353 1.175e-7,3.4838979 1.175e-7,4.0770875 v 7.8460355 c 0,0.593192 0.9326204925,1.070638 1.4622904825,1.070638 H 1.8525222 V 13 h 6.1476042 6.1473516 v -0.0062 h 0.390231 C 15.067379,12.993763 16,12.516316 16,11.923124 V 4.0770868 C 16,3.4838974 15.067379,3.0062346 14.537709,3.0062346 h -0.390231 v -0.00623 H 8.0001264 Z" />
  <path
     inkscape:connector-curvature="0"
     style="fill:#f0e3ec;stroke-width:0.1257941"
     id="path20"
     d="m 2.3756645,4.0918629 v 0.00496 H 2.0447189 c -0.4491582,-6e-7 -1.04471896,0.3778604 -1.04471896,0.8472594 V 11.152739 C 0.99999994,11.622139 1.5955608,12 2.0447189,12 h 0.3309456 v 0.005 h 5.3673551 0.040911 5.8354334 V 12 h 0.330947 c 0.449157,0 1.044717,-0.377861 1.044717,-0.847261 V 4.9440907 c 0,-0.4693986 -0.59556,-0.8472597 -1.044717,-0.8472597 H 13.619364 V 4.091871 H 7.7839306 7.7430196 Z" />
  <path
     inkscape:connector-curvature="0"
     style="fill:#f0e3ec;filter:url(#b)"
     id="path22"
     transform="matrix(0.11418387,0,0,0.09377408,0.674638,1.9516097)"
     d="m 16.195312,22.822266 c -0.105581,1.2e-5 -0.21046,0.01716 -0.310546,0.05078 h -2.517578 c -2.246364,0 -4.6422827,1.070615 -6.5527349,2.777344 -1.9104522,1.706728 -3.3496094,4.11354 -3.3496093,6.857421 V 95.96875 c 0,2.743882 1.4391572,5.15069 3.3496093,6.85742 1.9104521,1.70673 4.3063709,2.77735 6.5527349,2.77735 h 2.517578 c 0.100085,0.0336 0.204964,0.0508 0.310546,0.0508 H 66.0625 66.642578 112.2793 c 0.10558,-2e-5 0.21046,-0.0172 0.31054,-0.0508 h 2.51758 c 2.24637,0 4.64228,-1.07062 6.55274,-2.77735 1.91045,-1.70673 3.34961,-4.113541 3.34961,-6.85742 V 32.507812 c 0,-2.743882 -1.43916,-5.150693 -3.34961,-6.857421 -1.91046,-1.706729 -4.30638,-2.777344 -6.55274,-2.777344 h -2.51758 c -0.10008,-0.03362 -0.20496,-0.05077 -0.31054,-0.05078 H 66.642578 66.0625 Z m 4.552201,9.396938 44.95336,0.288609 h 0.580078 41.256789 c 0.0966,0.03106 0.19739,0.04688 0.29883,0.04687 h 2.73046 c 1.53667,0 1.49189,0.802137 3.04038,2.123046 1.54849,1.32091 2.58478,3.094212 2.61133,4.964844 l 0.70564,49.712112 c 0.0266,1.870631 -1.06284,3.643934 -2.61133,4.964843 -1.54849,1.320901 -1.50371,2.123051 -3.04038,2.123051 h -2.73046 c -0.10351,1e-6 -0.20636,0.01647 -0.30469,0.0488 H 66.986585 66.406507 L 21.457054,96.20277 c -0.09833,-0.03233 -0.201179,-0.0488 -0.304688,-0.0488 h -2.730469 c -1.536659,0 -1.949183,-0.905499 -3.497674,-2.22641 -1.54849,-1.320904 -2.584775,-3.094207 -2.611328,-4.964838 L 11.607261,39.25061 c -0.02655,-1.87063 1.062837,-3.643934 2.611329,-4.964844 1.54849,-1.320909 1.961014,-2.019687 3.497673,-2.019687 h 2.730469 c 0.102096,2.11e-4 0.203591,-0.01561 0.300781,-0.04687 z" />
  <g
     style="fill:#47474b"
     id="g32"
     transform="scale(0.125)">
    <path
       inkscape:connector-curvature="0"
       id="path28"
       d="m 72.279465,48 h 7.720533 v 39.999996 h -7.720533 z"
       style="fill:#9d3a9b" />
    <path
       inkscape:connector-curvature="0"
       id="path30"
       transform="matrix(1.7001836,0,0,2.295145,-45.00918,-79.545582)"
       d="M 65,64.339745 50,72.999999 V 55.679491 Z"
       style="fill:#9d3a9b" />
  </g>
</svg>
