<?xml version="1.0" encoding="UTF-8" standalone="no"?>
<svg
   xmlns:dc="http://purl.org/dc/elements/1.1/"
   xmlns:cc="http://creativecommons.org/ns#"
   xmlns:rdf="http://www.w3.org/1999/02/22-rdf-syntax-ns#"
   xmlns:svg="http://www.w3.org/2000/svg"
   xmlns="http://www.w3.org/2000/svg"
   xmlns:xlink="http://www.w3.org/1999/xlink"
   xmlns:sodipodi="http://sodipodi.sourceforge.net/DTD/sodipodi-0.dtd"
   xmlns:inkscape="http://www.inkscape.org/namespaces/inkscape"
   height="16"
   viewBox="0 0 4.2333333 4.2333335"
   width="16"
   version="1.1"
   id="svg44"
   sodipodi:docname="sc_optimizetable.svg"
   inkscape:version="0.92.4 (unknown)"
   inkscape:export-filename="/home/annisaauliarasyidah/Desktop/4_242 (aulia)/sc 222/sc_optimizetable.png"
   inkscape:export-xdpi="96"
   inkscape:export-ydpi="96">
  <metadata
     id="metadata50">
    <rdf:RDF>
      <cc:Work
         rdf:about="">
        <dc:format>image/svg+xml</dc:format>
        <dc:type
           rdf:resource="http://purl.org/dc/dcmitype/StillImage" />
      </cc:Work>
    </rdf:RDF>
  </metadata>
  <defs
     id="defs48" />
  <sodipodi:namedview
     pagecolor="#ffffff"
     bordercolor="#666666"
     borderopacity="1"
     objecttolerance="10"
     gridtolerance="10"
     guidetolerance="10"
     inkscape:pageopacity="0"
     inkscape:pageshadow="2"
     inkscape:window-width="1366"
     inkscape:window-height="707"
     id="namedview46"
     showgrid="false"
     inkscape:zoom="14.75"
     inkscape:cx="-3.3898305"
     inkscape:cy="8"
     inkscape:window-x="0"
     inkscape:window-y="0"
     inkscape:window-maximized="1"
     inkscape:current-layer="svg44" />
  <linearGradient
     id="a"
     gradientTransform="matrix(0.03307292,0,0,0.03307292,0,1.058334)"
     gradientUnits="userSpaceOnUse"
     x1="46.5"
     x2="72"
     xlink:href="#b"
     y1="-22.395977"
     y2="74.104019" />
  <radialGradient
     id="b"
     cx="48"
     cy="-.2148"
     gradientTransform="matrix(.9792 0 0 .9725 133.0002 20.8762)"
     gradientUnits="userSpaceOnUse"
     r="55.147999">
    <stop
       offset="0"
       stop-color="#72d13d"
       id="stop3" />
    <stop
       offset=".3553"
       stop-color="#35ac1c"
       id="stop5" />
    <stop
       offset=".6194"
       stop-color="#0f9508"
       id="stop7" />
    <stop
       offset=".7574"
       stop-color="#008c00"
       id="stop9" />
    <stop
       offset="1"
       stop-color="#007a00"
       id="stop11" />
  </radialGradient>
  <radialGradient
     id="c"
     cx="52.796875"
     cy="63.40625"
     fx="51.796875"
     fy="93.371971"
     gradientTransform="matrix(0.03307292,0,0,0.02152199,0,1.790735)"
     gradientUnits="userSpaceOnUse"
     r="34.671875"
     xlink:href="#b" />
  <linearGradient
     id="d"
     gradientUnits="userSpaceOnUse"
     x1="2.122931"
     x2="2.122931"
     y1=".429532"
     y2="2.770152"
     gradientTransform="translate(0,1.058334)">
    <stop
       offset="0"
       stop-color="#fff"
       id="stop15" />
    <stop
       offset="1"
       stop-color="#fff"
       stop-opacity="0"
       id="stop17" />
  </linearGradient>
  <linearGradient
     id="e"
     gradientUnits="userSpaceOnUse"
     x1="8.791887"
     x2="8.408372"
     y1="28.396006"
     y2="-6.000008"
     gradientTransform="matrix(0.26458334,0,0,0.26458334,0,-0.2645835)">
    <stop
       offset="0"
       id="stop20" />
    <stop
       offset="1"
       stop-color="#fff"
       id="stop22" />
  </linearGradient>
  <linearGradient
     id="f"
     gradientTransform="matrix(0.03561787,0,0,0.04313966,0.07462613,-0.01164225)"
     gradientUnits="userSpaceOnUse"
     x1="46.048"
     x2="46.048"
     y1="128.01709"
     y2="16.6203">
    <stop
       offset="0"
       stop-color="#c7cdd7"
       id="stop25" />
    <stop
       offset="1"
       stop-color="#fff"
       id="stop27" />
  </linearGradient>
  <path
     inkscape:connector-curvature="0"
     style="fill:#f0e3ec;stroke-width:0.125"
     id="path30"
     d="M 0.26458338,0.264584 H 3.96875 V 3.7202177 H 0.26458338 Z" />
  <path
     inkscape:connector-curvature="0"
     style="fill:#e602b4;stroke-width:0.12500001"
     id="path32"
     d="M 0,0.26458318 V 0.42012924 1.0583332 1.1906249 1.8520832 1.9843749 2.6458332 2.7781249 3.5754923 3.7041666 H 0.26458334 1.3229167 1.5875 2.6458334 2.9104167 3.9687501 4.2333334 V 3.5754923 0.26458318 H 0.26458334 Z M 0.26458334,0.42012924 H 1.3229167 V 1.0583332 H 0.26458334 Z m 1.32291666,0 H 2.6458334 V 1.0583332 H 1.5875 Z m 1.3229167,0 H 3.9687501 V 1.0583332 H 2.9104167 Z M 0.26458334,1.1906249 H 1.3229167 V 1.8520832 H 0.26458334 Z m 1.32291666,0 H 2.6458334 V 1.8520832 H 1.5875 Z m 1.3229167,0 H 3.9687501 V 1.8520832 H 2.9104167 Z m -2.64583336,0.79375 H 1.3229167 V 2.6458332 H 0.26458334 Z m 1.32291666,0 H 2.6458334 V 2.6458332 H 1.5875 Z m 1.3229167,0 H 3.9687501 V 2.6458332 H 2.9104167 Z m -2.64583336,0.79375 H 1.3229167 V 3.5754923 H 0.26458334 Z m 1.32291666,0 H 2.6458334 V 3.5754923 H 1.5875 Z m 1.3229167,0 H 3.9687501 V 3.5754923 H 2.9104167 Z" />
  <path
     inkscape:connector-curvature="0"
     style="opacity:1;fill:#9d3a9b;stroke-width:0.033073"
     id="path36"
     d="M 4.2333334,1.1644335 1.719025,2.8965361 0.95905957,2.254434 C 0.91353523,2.2275026 0.85379948,2.2375715 0.82526282,2.2779319 L 0.27937208,2.9993395 c -0.028537,0.04036 -0.0144835,0.094474 0.0310408,0.1214057 L 1.6612248,4.2182917 c 0.045524,0.026931 0.1052598,0.016862 0.1337968,-0.023498 z" />
  <path
     inkscape:connector-curvature="0"
     style="opacity:0.90636698;fill:#f3b7d9;stroke-width:0.033073"
     id="path38"
     d="M 2.8928467,2.409156 1.8686198,3.1140225 C 1.7705047,3.1815536 1.6393626,3.175208 1.5482259,3.0985196 L 0.93120931,2.5776212 0.59944663,3.0148038 1.6908529,3.9015714 Z" />
</svg>
