<?xml version="1.0" encoding="UTF-8" standalone="no"?>
<svg
   xmlns:dc="http://purl.org/dc/elements/1.1/"
   xmlns:cc="http://creativecommons.org/ns#"
   xmlns:rdf="http://www.w3.org/1999/02/22-rdf-syntax-ns#"
   xmlns:svg="http://www.w3.org/2000/svg"
   xmlns="http://www.w3.org/2000/svg"
   xmlns:xlink="http://www.w3.org/1999/xlink"
   xmlns:sodipodi="http://sodipodi.sourceforge.net/DTD/sodipodi-0.dtd"
   xmlns:inkscape="http://www.inkscape.org/namespaces/inkscape"
   height="16"
   viewBox="0 0 4.2333333 4.2333335"
   width="16"
   version="1.1"
   id="svg56"
   sodipodi:docname="sc_pararighttoleft.svg"
   inkscape:version="0.92.4 (unknown)"
   inkscape:export-filename="/home/annisaauliarasyidah/Desktop/4_242 (aulia)/sc 222/sc_pararighttoleft.png"
   inkscape:export-xdpi="96"
   inkscape:export-ydpi="96">
  <metadata
     id="metadata62">
    <rdf:RDF>
      <cc:Work
         rdf:about="">
        <dc:format>image/svg+xml</dc:format>
        <dc:type
           rdf:resource="http://purl.org/dc/dcmitype/StillImage" />
      </cc:Work>
    </rdf:RDF>
  </metadata>
  <defs
     id="defs60" />
  <sodipodi:namedview
     pagecolor="#ffffff"
     bordercolor="#666666"
     borderopacity="1"
     objecttolerance="10"
     gridtolerance="10"
     guidetolerance="10"
     inkscape:pageopacity="0"
     inkscape:pageshadow="2"
     inkscape:window-width="1366"
     inkscape:window-height="707"
     id="namedview58"
     showgrid="false"
     inkscape:zoom="14.75"
     inkscape:cx="6.9152542"
     inkscape:cy="8"
     inkscape:window-x="0"
     inkscape:window-y="0"
     inkscape:window-maximized="1"
     inkscape:current-layer="svg56" />
  <linearGradient
     id="a">
    <stop
       offset="0"
       stop-color="#fff"
       id="stop2" />
    <stop
       offset="1"
       stop-color="#fff"
       stop-opacity="0"
       id="stop4" />
  </linearGradient>
  <filter
     id="b"
     height="1.317541"
     width="1.244662"
     x="-.122331"
     y="-.15877">
    <feGaussianBlur
       stdDeviation=".27482165"
       id="feGaussianBlur7" />
  </filter>
  <linearGradient
     id="c"
     gradientUnits="userSpaceOnUse"
     x1="64"
     x2="100"
     xlink:href="#a"
     y1="-23.999996"
     y2="34"
     gradientTransform="matrix(0.03307292,0,0,0.03307292,-0.779991,0.009075)" />
  <linearGradient
     id="d"
     gradientUnits="userSpaceOnUse"
     x1="62.365497"
     x2="67.757182"
     xlink:href="#a"
     y1="6.805285"
     y2="-2.917434" />
  <linearGradient
     id="e"
     gradientUnits="userSpaceOnUse"
     x1="69.849998"
     x2="69.849998"
     y1="267.366666"
     y2="248.316668">
    <stop
       offset="0"
       stop-color="#5e5e5e"
       id="stop12" />
    <stop
       offset="1"
       stop-opacity="0"
       id="stop14" />
  </linearGradient>
  <linearGradient
     id="f"
     gradientTransform="matrix(-.26458333 0 0 .26458333 224.36667 140.36665)"
     gradientUnits="userSpaceOnUse"
     x1="430"
     x2="430"
     y1="269"
     y2="275.0867">
    <stop
       offset="0"
       stop-color="#e0f4b8"
       id="stop17" />
    <stop
       offset="1"
       stop-color="#92c441"
       stop-opacity=".214592"
       id="stop19" />
  </linearGradient>
  <linearGradient
     id="g"
     gradientTransform="matrix(-.26458333 0 0 .26458333 224.36667 140.36665)"
     gradientUnits="userSpaceOnUse"
     x1="429.30026"
     x2="429.30026"
     y1="273.82983"
     y2="271.99973">
    <stop
       offset="0"
       stop-color="#bbf10e"
       id="stop22" />
    <stop
       offset="1"
       stop-color="#5f9207"
       id="stop24" />
  </linearGradient>
  <radialGradient
     id="h"
     cx="429"
     cy="272"
     gradientTransform="matrix(-0.33814049,0,0,0.33814049,142.9187,-89.25652)"
     gradientUnits="userSpaceOnUse"
     r="4">
    <stop
       offset="0"
       stop-color="#033a13"
       id="stop27" />
    <stop
       offset="1"
       stop-color="#398c37"
       id="stop29" />
  </radialGradient>
  <path
     inkscape:connector-curvature="0"
     id="path32"
     d="M 1.0545871,0.009075 C 0.47215647,0.00906977 2.491862e-7,0.46439426 2.1611328e-7,1.0260673 2.491862e-7,1.5877403 0.47215647,2.0430648 1.0545871,2.0430596 c 0.00584,-1.455e-4 0.011672,-3.41e-4 0.017505,-5.814e-4 V 4.2424088 H 1.6012588 V 0.93511689 h 0.2645833 l 10e-8,3.30729191 H 2.3950093 V 0.53824172 H 2.6595927 V 0.009075 H 2.3950093 1.8658426 1.6012592 1.0720925 v 7.7515e-4 C 1.0662597,0.00954501 1.0604244,0.00928662 1.0545871,0.009075 Z"
     style="stroke-width:0.03307292;fill:#9d3a9b" />
  <path
     inkscape:connector-curvature="0"
     style="fill:#e602b4;stroke-width:0.03307292"
     id="path34"
     d="m 1.0850762,0.14136668 a 0.13230503,0.13230503 0 0 1 -0.019895,5.8136e-4 C 1.0613244,0.14174629 1.057477,0.14158652 1.0536182,0.14143127 0.81125821,0.14168693 0.57077022,0.23811833 0.40068641,0.40213892 0.23037483,0.5663791 0.13229193,0.79573183 0.1322919,1.0260673 c 3e-8,0.2303354 0.0980829,0.4596882 0.26839451,0.6239284 0.17021958,0.1641515 0.4109567,0.2606055 0.65351309,0.2607076 0.00414,-1.157e-4 0.00833,-2.183e-4 0.012467,-3.876e-4 A 0.13230503,0.13230503 0 0 1 1.2043842,2.0424782 V 4.1101171 H 1.4689676 V 0.53824172 A 0.13230503,0.13230503 0 0 1 1.6012592,0.40595004 H 1.8658426 A 0.13230503,0.13230503 0 0 1 1.9981343,0.53824172 V 4.1101171 H 2.2627176 V 0.53824172 A 0.13230503,0.13230503 0 0 1 2.3950093,0.40595004 H 2.527301 V 0.14136668 H 2.3950093 1.8658426 1.6012592 Z" />
  <g
     id="g880"
     transform="translate(4.8073447,0.46638419)">
    <path
       d="M -0.82066,2.4531 V 2.98227 H -1.87899 V 3.51144 L -2.67274,2.71769 -1.87899,1.92394 V 2.4531 Z"
       id="path46"
       style="fill:#9d3a9b;stroke:#9d3a9b;stroke-width:0.529167;stroke-linecap:round;stroke-linejoin:round"
       inkscape:connector-curvature="0" />
    <g
       transform="translate(-113.00399,-209.61563)"
       id="g52"
       style="fill:#f3b7d9;fill-rule:evenodd">
      <path
         d="m 112.18333,212.06873 v 0.52917 H 111.125 v 0.52917 l -0.79375,-0.79375 0.79375,-0.79375 v 0.52916 z"
         id="path48"
         style="fill:#f3b7d9"
         inkscape:connector-curvature="0" />
      <path
         d="m 112.18333,212.06873 v 0.26459 h -1.85208 l 0.79375,-0.79375 v 0.52916 z"
         id="path50"
         style="fill:#f3b7d9"
         inkscape:connector-curvature="0" />
    </g>
  </g>
</svg>
