<?xml version="1.0" encoding="UTF-8" standalone="no"?>
<svg
   xmlns:dc="http://purl.org/dc/elements/1.1/"
   xmlns:cc="http://creativecommons.org/ns#"
   xmlns:rdf="http://www.w3.org/1999/02/22-rdf-syntax-ns#"
   xmlns:svg="http://www.w3.org/2000/svg"
   xmlns="http://www.w3.org/2000/svg"
   xmlns:xlink="http://www.w3.org/1999/xlink"
   xmlns:sodipodi="http://sodipodi.sourceforge.net/DTD/sodipodi-0.dtd"
   xmlns:inkscape="http://www.inkscape.org/namespaces/inkscape"
   height="16"
   width="16"
   version="1.1"
   id="svg74"
   sodipodi:docname="sc_pickthrough.svg"
   inkscape:export-filename="/home/annisaauliarasyidah/Desktop/4_242 (aulia)/sc 222/sc_pickthrough.png"
   inkscape:export-xdpi="96"
   inkscape:export-ydpi="96"
   inkscape:version="0.92.4 (unknown)">
  <metadata
     id="metadata80">
    <rdf:RDF>
      <cc:Work
         rdf:about="">
        <dc:format>image/svg+xml</dc:format>
        <dc:type
           rdf:resource="http://purl.org/dc/dcmitype/StillImage" />
      </cc:Work>
    </rdf:RDF>
  </metadata>
  <defs
     id="defs78" />
  <sodipodi:namedview
     pagecolor="#ffffff"
     bordercolor="#666666"
     borderopacity="1"
     objecttolerance="10"
     gridtolerance="10"
     guidetolerance="10"
     inkscape:pageopacity="0"
     inkscape:pageshadow="2"
     inkscape:window-width="1366"
     inkscape:window-height="707"
     id="namedview76"
     showgrid="true"
     inkscape:zoom="29.5"
     inkscape:cx="10.711864"
     inkscape:cy="8"
     inkscape:window-x="0"
     inkscape:window-y="0"
     inkscape:window-maximized="1"
     inkscape:current-layer="svg74">
    <inkscape:grid
       type="xygrid"
       id="grid926" />
  </sodipodi:namedview>
  <linearGradient
     id="a"
     gradientUnits="userSpaceOnUse"
     x1="12.319189"
     x2="12.319189"
     y1="-20.732288"
     y2="-2.100539">
    <stop
       offset="0"
       stop-color="#06f"
       id="stop2" />
    <stop
       offset="1"
       stop-color="#80b3ff"
       id="stop4" />
  </linearGradient>
  <rect
     style="fill:#618fd2;fill-opacity:0.09195401;stroke-width:0.125"
     id="rect7"
     y="2"
     x="2"
     width="12"
     ry="0.02338125"
     rx="0.02096675"
     height="12" />
  <path
     style="fill:#9d3a9b;stroke-width:0.125"
     inkscape:connector-curvature="0"
     id="path9"
     d="M 14,7.0162067 V 8 H 13 V 7.0162067 Z" />
  <use
     y="0"
     x="0"
     id="use11"
     xlink:href="#b"
     width="128"
     transform="translate(0,13)"
     height="128"
     style="fill:#e602b4" />
  <use
     y="0"
     x="0"
     id="use13"
     xlink:href="#b"
     width="128"
     transform="translate(13,13)"
     height="128"
     style="fill:#e602b4" />
  <rect
     x="0"
     style="fill:#e602b4;stroke-width:0.125"
     y="-3"
     width="3"
     transform="scale(1,-1)"
     ry="0.0467415"
     rx="0.038698126"
     height="3"
     id="b" />
  <path
     inkscape:connector-curvature="0"
     id="path16"
     d="M 13.979976,9.0162068 V 10 h -1 V 9.0162068 Z"
     style="fill:#9d3a9b;stroke-width:0.125" />
  <path
     inkscape:connector-curvature="0"
     id="path18"
     d="M 14,11.016207 V 12 h -1 v -0.983793 z"
     style="fill:#9d3a9b;stroke-width:0.125" />
  <path
     inkscape:connector-curvature="0"
     id="path20"
     d="M 11,13.016206 V 14 h -1 v -0.983794 z"
     style="fill:#9d3a9b;stroke-width:0.125" />
  <path
     inkscape:connector-curvature="0"
     id="path22"
     d="M 9,13.016206 V 14 H 8 v -0.983794 z"
     style="fill:#9d3a9b;stroke-width:0.125" />
  <path
     inkscape:connector-curvature="0"
     id="path24"
     d="M 7,13.016206 V 14 H 6 v -0.983794 z"
     style="fill:#9d3a9b;stroke-width:0.125" />
  <path
     inkscape:connector-curvature="0"
     id="path26"
     d="M 5,13.016206 V 14 H 4 v -0.983794 z"
     style="fill:#9d3a9b;stroke-width:0.125" />
  <path
     inkscape:connector-curvature="0"
     id="path28"
     d="M 11,2.0162068 V 3 H 10 V 2.0162068 Z"
     style="fill:#9d3a9b;stroke-width:0.125" />
  <path
     inkscape:connector-curvature="0"
     id="path30"
     d="M 9,2.0162068 V 3 H 8 V 2.0162068 Z"
     style="fill:#9d3a9b;stroke-width:0.125" />
  <path
     inkscape:connector-curvature="0"
     id="path32"
     d="M 7,2.0162068 V 3 H 6 V 2.0162068 Z"
     style="fill:#9d3a9b;stroke-width:0.125" />
  <path
     inkscape:connector-curvature="0"
     id="path34"
     d="M 5,2.0162068 V 3 H 4 V 2.0162068 Z"
     style="fill:#9d3a9b;stroke-width:0.125" />
  <path
     inkscape:connector-curvature="0"
     id="path38"
     d="M 2.9837927,12 H 1.999999 v -1 h 0.9837937 z"
     style="fill:#9d3a9b;stroke-width:0.125" />
  <path
     inkscape:connector-curvature="0"
     id="path40"
     d="M 2.9837927,10 H 1.999999 V 9 h 0.9837937 z"
     style="fill:#9d3a9b;stroke-width:0.125" />
  <path
     inkscape:connector-curvature="0"
     id="path42"
     d="M 2.9837927,8 H 1.999999 V 7 h 0.9837937 z"
     style="fill:#9d3a9b;stroke-width:0.125" />
  <path
     inkscape:connector-curvature="0"
     id="path44"
     d="M 2.9837927,6 H 1.999999 V 5 h 0.9837937 z"
     style="fill:#9d3a9b;stroke-width:0.125" />
  <path
     inkscape:connector-curvature="0"
     id="path48"
     d="M 3,3.0162067 V 4 H 2 V 3.0162068 Z"
     style="fill:#9d3a9b;stroke-width:0.125" />
  <path
     inkscape:connector-curvature="0"
     id="path50"
     d="M 14,3 V 3.9837932 H 13 V 3 Z"
     style="fill:#9d3a9b;stroke-width:0.125" />
  <path
     inkscape:connector-curvature="0"
     id="path52"
     d="M 14,5 V 5.9837932 H 13 V 5 Z"
     style="fill:#9d3a9b;stroke-width:0.125" />
  <path
     inkscape:connector-curvature="0"
     id="path54"
     d="M 13,2.0162067 V 3 H 12 V 2.0162068 Z"
     style="fill:#9d3a9b;stroke-width:0.125" />
  <path
     inkscape:connector-curvature="0"
     id="path56"
     d="M 13,13.016206 V 14 h -1 v -0.983794 z"
     style="fill:#9d3a9b;stroke-width:0.125" />
  <use
     y="0"
     x="0"
     id="use62"
     xlink:href="#b"
     width="128"
     transform="translate(13)"
     height="128"
     style="fill:#e602b4" />
  <path
     style="fill:#f3b7d9;stroke-width:0.215104"
     inkscape:connector-curvature="0"
     id="path64"
     d="M 5.6503844,3.0430099 A 0.73364018,0.73364018 0 0 0 4.9746031,3.4902755 L 3.1835875,7.7148849 a 0.73364018,0.73364018 0 0 0 0,0.00195 C 2.9360471,8.3034009 2.7251101,8.6744119 2.72265,8.685588 A 0.73364018,0.73364018 0 0 0 2.0585875,9.4141037 v 0.1640624 a 0.73364018,0.73364018 0 0 0 0.734375,0.7343749 h 1.703125 A 0.73364018,0.73364018 0 0 0 5.2304625,9.5781661 V 9.4141037 A 0.73364018,0.73364018 0 0 0 4.7656188,8.732463 L 4.8769469,8.4531661 H 6.1464781 L 6.2656188,8.7363693 A 0.73364018,0.73364018 0 0 0 5.8105406,9.4141037 v 0.1640624 a 0.73364018,0.73364018 0 0 0 0.734375,0.7343749 h 1.4492188 0.7441406 2.128906 c 0.4563,0 0.877118,-0.05478 1.261719,-0.185547 a 0.73364018,0.73364018 0 0 0 0.01172,-0.0059 c 0.365583,-0.1316101 0.691732,-0.3158351 0.943359,-0.5976563 0.19446,-0.2171312 0.354569,-0.456441 0.457031,-0.7265626 0.09195,-0.2423983 0.144532,-0.5028401 0.144532,-0.7675781 0,-0.3134278 -0.06996,-0.6254951 -0.210938,-0.9003906 C 13.363055,6.9064602 13.232741,6.7042344 13.04687,6.529297 13.0331,6.516333 13.01404,6.512388 13,6.5 13.07562,6.3925773 13.159454,6.2893868 13.216797,6.1699219 a 0.73364018,0.73364018 0 0 0 0.0039,-0.011719 c 0.118092,-0.2558778 0.171875,-0.5355484 0.171875,-0.8144532 0,-0.6758989 -0.335477,-1.3474485 -0.898438,-1.7128906 -0.562961,-0.365442 -1.259054,-0.484375 -2.089843,-0.484375 H 7.9941344 a 0.73364018,0.73364018 0 0 0 -0.734375,0.734375 v 0.1640625 a 0.73364018,0.73364018 0 0 0 0.6875,0.7324219 c 0.068674,0.00436 0.08785,0.020048 0.1367187,0.033203 1.064e-4,0.00471 0.00195,0.00291 0.00195,0.00781 v 2.296875 L 6.4941344,3.482463 A 0.73364018,0.73364018 0 0 0 5.8222594,3.0430099 Z m 4.7812496,1.9257812 c 0.229677,0.026474 0.450042,0.062923 0.509766,0.109375 0.07753,0.060304 0.103516,0.080097 0.103516,0.3007813 0,0.1775953 -0.01422,0.1738867 -0.06445,0.2148437 -0.04595,0.037168 -0.17144,0.099609 -0.464844,0.099609 h -0.08399 z m 0,2.5625 c 0.109586,0.0074 0.236608,0.02069 0.402344,0.054688 0.162596,0.033353 0.245479,0.076907 0.255859,0.083984 0.0078,0.00533 0.03739,0.028796 0.08008,0.1113281 a 0.73364018,0.73364018 0 0 0 0.01563,0.025391 c 0.01635,0.02862 0.04101,0.092797 0.04101,0.2304687 0,0.1536829 -0.02788,0.2311927 -0.04687,0.265625 a 0.73364018,0.73364018 0 0 0 -0.0098,0.015625 c -0.02233,0.043167 -0.02547,0.044359 -0.06055,0.0625 -0.09896,0.046015 -0.20766,0.081258 -0.330078,0.1035156 -0.08697,0.015812 -0.22343,0.020511 -0.347657,0.027344 z" />
  <g
     style="stroke-width:1.72083294;fill:#9d3a9b"
     id="g70"
     transform="scale(0.125)">
    <path
       inkscape:connector-curvature="0"
       id="path66"
       d="m 70.752807,74.591703 v 1.307833 H 53.20031 v -1.307833 q 2.753333,-0.06883 3.785833,-0.550667 1.0325,-0.481833 1.0325,-1.789666 0,-1.652 -1.307833,-4.611832 L 53.888644,61.031539 H 35.854313 l -3.166332,8.053498 q -0.550667,1.4455 -0.550667,2.6845 0,2.822166 4.680666,2.822166 v 1.307833 H 23.188983 v -1.307833 q 2.546832,-0.137667 3.923499,-1.927333 1.4455,-1.8585 4.611832,-9.361332 l 14.317331,-33.79716 h 1.376666 l 17.139497,39.097326 q 1.652,3.785833 2.753333,4.818333 1.101333,1.032499 3.441666,1.170166 z M 37.02448,58.209373 H 52.924977 L 44.940312,39.28021 Z"
       style="fill:#9d3a9b" />
    <path
       inkscape:connector-curvature="0"
       id="path68"
       d="m 104.44537,63.509538 q 0,2.065 -0.75717,4.061166 -0.75717,1.996167 -2.54683,3.992333 -1.720836,1.927333 -5.162502,3.166333 -3.441666,1.170166 -8.191166,1.170166 H 64.797373 v -1.307833 q 4.267666,-0.137667 5.437833,-1.239 1.170166,-1.101333 1.170166,-4.955999 V 37.83471 q 0,-3.785833 -1.170166,-4.818333 -1.101333,-1.101333 -5.437833,-1.376666 v -1.307833 h 19.27333 q 18.034327,0 18.034327,11.701664 0,2.2715 -0.826,4.061166 -0.826,1.720833 -1.72083,2.6845 -0.826,0.894833 -2.615666,1.720833 -1.789666,0.826 -2.2715,0.963666 -0.481833,0.06883 -1.996166,0.481834 1.583167,0.412999 2.340333,0.619499 0.826,0.2065 2.891,1.170167 2.133829,0.963666 3.303999,2.065 1.17017,1.101333 2.20267,3.166332 1.0325,1.996167 1.0325,4.542999 z m -21.6825,9.843165 q 3.097499,0 5.368999,-0.413 2.2715,-0.413 4.267666,-1.376666 1.996166,-1.0325 3.028666,-3.028666 1.101333,-1.996166 1.101333,-4.955999 0,-2.822166 -1.101333,-4.749499 -1.0325,-1.996167 -2.546833,-3.028666 -1.514333,-1.0325 -4.198832,-1.583167 -2.6845,-0.550666 -4.7495,-0.6195 -2.064999,-0.137666 -5.506665,-0.137666 v 17.070663 q 0,1.652 0.894833,2.2715 0.894833,0.550666 3.441666,0.550666 z M 78.426371,50.706541 h 6.539165 q 4.818333,0 7.433999,-2.133833 2.684499,-2.202666 2.684499,-6.263832 0,-4.611833 -3.097499,-7.020999 -3.097499,-2.409166 -9.017165,-2.409166 h -3.028666 q -1.514333,0 -1.514333,2.064999 z"
       style="fill:#9d3a9b" />
  </g>
</svg>
