<?xml version="1.0" encoding="UTF-8" standalone="no"?>
<svg
   xmlns:dc="http://purl.org/dc/elements/1.1/"
   xmlns:cc="http://creativecommons.org/ns#"
   xmlns:rdf="http://www.w3.org/1999/02/22-rdf-syntax-ns#"
   xmlns:svg="http://www.w3.org/2000/svg"
   xmlns="http://www.w3.org/2000/svg"
   xmlns:xlink="http://www.w3.org/1999/xlink"
   xmlns:sodipodi="http://sodipodi.sourceforge.net/DTD/sodipodi-0.dtd"
   xmlns:inkscape="http://www.inkscape.org/namespaces/inkscape"
   height="16"
   width="16"
   version="1.1"
   id="svg115"
   sodipodi:docname="sc_quit.svg"
   inkscape:version="0.92.4 (unknown)"
   inkscape:export-filename="/home/annisaauliarasyidah/Desktop/4_242 (aulia)/sc 222/sc_quit.png"
   inkscape:export-xdpi="96"
   inkscape:export-ydpi="96">
  <metadata
     id="metadata121">
    <rdf:RDF>
      <cc:Work
         rdf:about="">
        <dc:format>image/svg+xml</dc:format>
        <dc:type
           rdf:resource="http://purl.org/dc/dcmitype/StillImage" />
      </cc:Work>
    </rdf:RDF>
  </metadata>
  <defs
     id="defs119" />
  <sodipodi:namedview
     pagecolor="#ffffff"
     bordercolor="#666666"
     borderopacity="1"
     objecttolerance="10"
     gridtolerance="10"
     guidetolerance="10"
     inkscape:pageopacity="0"
     inkscape:pageshadow="2"
     inkscape:window-width="1366"
     inkscape:window-height="707"
     id="namedview117"
     showgrid="false"
     inkscape:zoom="32.150391"
     inkscape:cx="2.5879351"
     inkscape:cy="8.0476933"
     inkscape:window-x="0"
     inkscape:window-y="0"
     inkscape:window-maximized="1"
     inkscape:current-layer="svg115" />
  <linearGradient
     id="a">
    <stop
       offset="0"
       stop-color="#bf0000"
       id="stop2" />
    <stop
       offset="1"
       stop-color="#f11"
       stop-opacity="0"
       id="stop4" />
  </linearGradient>
  <linearGradient
     id="b">
    <stop
       offset="0"
       stop-color="#fff"
       id="stop7" />
    <stop
       offset="1"
       stop-color="#fff"
       stop-opacity="0"
       id="stop9" />
  </linearGradient>
  <radialGradient
     id="c"
     cx="42.700352"
     cy="103.5803"
     gradientTransform="matrix(-0.1578056,0,0,0.1578056,14.741983,-4.65686)"
     gradientUnits="userSpaceOnUse"
     r="42.559486"
     spreadMethod="pad">
    <stop
       offset="0"
       stop-color="#ff5900"
       id="stop12" />
    <stop
       offset="1"
       stop-color="#8d0000"
       id="stop14" />
  </radialGradient>
  <linearGradient
     id="d"
     gradientUnits="userSpaceOnUse"
     x1="36.654837"
     x2="4.771536"
     y1="119.85945"
     y2="6.522464"
     gradientTransform="matrix(0.125,0,0,0.125,-1e-6,-6.9e-4)">
    <stop
       offset="0"
       stop-color="#700"
       id="stop17" />
    <stop
       offset="1"
       stop-color="#c10000"
       id="stop19" />
  </linearGradient>
  <linearGradient
     id="e"
     gradientUnits="userSpaceOnUse"
     spreadMethod="reflect"
     x1="13.507897"
     x2="7.602036"
     xlink:href="#b"
     y1="13.721349"
     y2="19.627209" />
  <filter
     id="f">
    <feGaussianBlur
       stdDeviation=".28444187"
       id="feGaussianBlur23" />
  </filter>
  <linearGradient
     id="g"
     gradientUnits="userSpaceOnUse"
     spreadMethod="reflect"
     x1="21.507897"
     x2="15.539791"
     xlink:href="#b"
     y1="21.721349"
     y2="27.689454" />
  <linearGradient
     id="h"
     gradientUnits="userSpaceOnUse"
     spreadMethod="reflect"
     x1="21.507897"
     x2="14.373943"
     xlink:href="#b"
     y1="21.721349"
     y2="28.855302" />
  <linearGradient
     id="i"
     gradientUnits="userSpaceOnUse"
     x1="54.22556"
     x2="54.22556"
     y1="118.114011"
     y2="76.307455"
     gradientTransform="matrix(0.125,0,0,0.125,-1e-6,-6.9e-4)">
    <stop
       offset="0"
       stop-color="#703700"
       id="stop28" />
    <stop
       offset="1"
       stop-color="#bf5e00"
       stop-opacity="0"
       id="stop30" />
  </linearGradient>
  <linearGradient
     id="j"
     gradientUnits="userSpaceOnUse"
     x1="61.789118"
     x2="61.789118"
     y1="9.799702"
     y2="49.045597"
     gradientTransform="matrix(0.125,0,0,0.125,-1e-6,-6.9e-4)">
    <stop
       offset="0"
       stop-color="#ff6565"
       id="stop33" />
    <stop
       offset="1"
       stop-color="#ffdfbf"
       stop-opacity="0"
       id="stop35" />
  </linearGradient>
  <linearGradient
     id="k"
     gradientUnits="userSpaceOnUse"
     x1="13.382356"
     x2="82.089943"
     xlink:href="#a"
     y1="48.878382"
     y2="67.271815"
     gradientTransform="matrix(0.125,0,0,0.125,-1e-6,-6.9e-4)" />
  <linearGradient
     id="l"
     gradientUnits="userSpaceOnUse"
     x1="58.960268"
     x2="58.960268"
     xlink:href="#b"
     y1="-37.607173"
     y2="100.28621"
     gradientTransform="matrix(0.125,0,0,0.125,-1e-6,-6.9e-4)" />
  <linearGradient
     id="m"
     gradientUnits="userSpaceOnUse"
     x1="59.48817"
     x2="59.48817"
     xlink:href="#b"
     y1="8.897322"
     y2="47.228859"
     gradientTransform="matrix(0.13271237,0,0,0.13271237,-0.489965,-0.62562512)" />
  <linearGradient
     id="n"
     gradientUnits="userSpaceOnUse"
     x1="-60.945251"
     x2="-59.415245"
     y1="105.83054"
     y2="45.631207">
    <stop
       offset="0"
       stop-color="#ffeb8b"
       id="stop41" />
    <stop
       offset="1"
       stop-color="#fff"
       stop-opacity="0"
       id="stop43" />
  </linearGradient>
  <filter
     id="o">
    <feGaussianBlur
       stdDeviation=".32872878"
       id="feGaussianBlur46" />
  </filter>
  <linearGradient
     id="p"
     gradientUnits="userSpaceOnUse"
     x1="60.402065"
     x2="60.402065"
     xlink:href="#a"
     y1="64.076149"
     y2="-20.962214" />
  <filter
     id="q">
    <feGaussianBlur
       stdDeviation="1.6179775"
       id="feGaussianBlur50" />
  </filter>
  <filter
     id="r">
    <feGaussianBlur
       stdDeviation=".33295155"
       id="feGaussianBlur53" />
  </filter>
  <filter
     id="s">
    <feGaussianBlur
       stdDeviation=".46608189"
       id="feGaussianBlur56" />
  </filter>
  <clipPath
     id="t">
    <path
       d="m-213.6585 29.550642c-1.28472-1.284722-3.35567-1.284722-4.64039 0l-23.13565 23.13565-23.13565-23.13565c-1.28472-1.284722-3.35567-1.284722-4.64039 0l-6.67332 6.67332c-1.28472 1.284721-1.28472 3.355667 0 4.640388l23.13565 23.13565-23.13565 23.13565c-1.28472 1.284721-1.28472 3.355667 0 4.640388l6.67332 6.67332c1.28472 1.284722 3.35567 1.284722 4.64039 0l23.13565-23.13565 23.13565 23.13565c1.28472 1.284722 3.35567 1.284722 4.64039 0l6.67332-6.67332c1.28472-1.284721 1.28472-3.355667 0-4.640388l-23.13565-23.13565 23.13565-23.13565c1.28472-1.284721 1.28472-3.355667 0-4.640388z"
       id="path59" />
  </clipPath>
  <clipPath
     id="u">
    <path
       d="m-121.2809 29.550642c-1.28472-1.284722-3.35567-1.284722-4.64039 0l-23.13565 23.13565-23.13565-23.13565c-1.28472-1.284722-3.35567-1.284722-4.64039 0l-6.67332 6.67332c-1.28472 1.284721-1.28472 3.355667 0 4.640388l23.13565 23.13565-23.13565 23.13565c-1.28472 1.284721-1.28472 3.355667 0 4.640388l6.67332 6.67332c1.28472 1.284722 3.35567 1.284722 4.64039 0l23.13565-23.13565 23.13565 23.13565c1.28472 1.284722 3.35567 1.284722 4.64039 0l6.67332-6.67332c1.28472-1.284721 1.28472-3.355667 0-4.640388l-23.13565-23.13565 23.13565-23.13565c1.28472-1.284721 1.28472-3.355667 0-4.640388z"
       id="path62" />
  </clipPath>
  <radialGradient
     id="v"
     cx="-60.754823"
     cy="63.999997"
     fx="-49.886871"
     fy="76.90569"
     gradientUnits="userSpaceOnUse"
     r="35.412899"
     gradientTransform="matrix(0.14993472,0,0,0.14993472,17.112393,-1.5951434)">
    <stop
       offset="0"
       stop-color="#ccc"
       id="stop65" />
    <stop
       offset="1"
       stop-color="#f1f1f1"
       id="stop67" />
  </radialGradient>
  <linearGradient
     id="w"
     gradientUnits="userSpaceOnUse"
     x1="-236"
     x2="-236"
     y1="17.767166"
     y2="89.767166">
    <stop
       offset="0"
       id="stop70" />
    <stop
       offset=".5"
       stop-opacity=".156364"
       id="stop72" />
    <stop
       offset=".62264121"
       stop-opacity=".687273"
       id="stop74" />
    <stop
       offset="1"
       stop-opacity=".363636"
       id="stop76" />
  </linearGradient>
  <path
     inkscape:connector-curvature="0"
     style="fill:#9d3a9b;stroke-width:0.125"
     id="path81"
     d="M 1.5300296,0.10917092 H 14.469969 c 0.787153,0 1.420855,0.63370176 1.420855,1.42085598 V 14.469966 c 0,0.787154 -0.633702,1.420855 -1.420855,1.420855 H 1.5300296 c -0.78715425,0 -1.42085602,-0.633701 -1.42085602,-1.420855 V 1.5300269 c 0,-0.78715423 0.63370177,-1.42085598 1.42085602,-1.42085598 z" />
  <path
     inkscape:connector-curvature="0"
     style="fill:#e602b4;stroke-width:0.125"
     id="path85"
     d="M 14.026627,1.181215 H 2.1133394 c -0.5147639,0 -0.9291766,0.4144126 -0.9291766,0.9291765 V 13.890966 c 0,0.514763 0.4144127,0.929176 0.9291766,0.929176 H 14.026627 c 0.514762,0 0.929176,-0.414413 0.929176,-0.929176 V 2.1103915 c 0,-0.5147639 -0.414414,-0.9291765 -0.929176,-0.9291765 z" />
  <path
     d="m 12.167728,2.8355238 c -0.192624,-0.1926244 -0.503131,-0.1926244 -0.695755,0 L 8.0031356,6.304361 4.5342984,2.8355238 c -0.1926243,-0.1926244 -0.503131,-0.1926244 -0.6957553,0 L 2.8379808,3.8360862 c -0.1926245,0.1926243 -0.1926245,0.503131 0,0.6957553 L 6.306818,8.0006787 2.8379808,11.469516 c -0.1926245,0.192624 -0.1926245,0.503131 0,0.695755 l 1.0005623,1.000563 c 0.1926243,0.192624 0.503131,0.192624 0.6957553,0 L 8.0031356,9.6969963 11.471973,13.165834 c 0.192624,0.192624 0.503131,0.192624 0.695755,0 l 1.000562,-1.000563 c 0.192625,-0.192624 0.192625,-0.503131 0,-0.695755 L 9.6994534,8.0006787 13.16829,4.5318415 c 0.192625,-0.1926243 0.192625,-0.503131 0,-0.6957553 z"
     id="path105"
     style="fill:#f0e3ec;stroke-width:0.14993472"
     inkscape:connector-curvature="0" />
</svg>
