<?xml version="1.0" encoding="UTF-8" standalone="no"?>
<svg
   xmlns:dc="http://purl.org/dc/elements/1.1/"
   xmlns:cc="http://creativecommons.org/ns#"
   xmlns:rdf="http://www.w3.org/1999/02/22-rdf-syntax-ns#"
   xmlns:svg="http://www.w3.org/2000/svg"
   xmlns="http://www.w3.org/2000/svg"
   xmlns:xlink="http://www.w3.org/1999/xlink"
   xmlns:sodipodi="http://sodipodi.sourceforge.net/DTD/sodipodi-0.dtd"
   xmlns:inkscape="http://www.inkscape.org/namespaces/inkscape"
   height="16"
   width="16"
   version="1.1"
   id="svg211"
   sodipodi:docname="sc_runbasic.svg"
   inkscape:version="0.92.4 (unknown)"
   inkscape:export-filename="/home/annisaauliarasyidah/Desktop/4_242 (aulia)/sc 222/sc_runbasic.png"
   inkscape:export-xdpi="96"
   inkscape:export-ydpi="96">
  <metadata
     id="metadata217">
    <rdf:RDF>
      <cc:Work
         rdf:about="">
        <dc:format>image/svg+xml</dc:format>
        <dc:type
           rdf:resource="http://purl.org/dc/dcmitype/StillImage" />
      </cc:Work>
    </rdf:RDF>
  </metadata>
  <defs
     id="defs215" />
  <sodipodi:namedview
     pagecolor="#ffffff"
     bordercolor="#666666"
     borderopacity="1"
     objecttolerance="10"
     gridtolerance="10"
     guidetolerance="10"
     inkscape:pageopacity="0"
     inkscape:pageshadow="2"
     inkscape:window-width="1366"
     inkscape:window-height="707"
     id="namedview213"
     showgrid="true"
     inkscape:snap-global="false"
     inkscape:zoom="29.39404"
     inkscape:cx="1.9175585"
     inkscape:cy="8.721423"
     inkscape:window-x="0"
     inkscape:window-y="0"
     inkscape:window-maximized="1"
     inkscape:current-layer="svg211">
    <inkscape:grid
       type="xygrid"
       id="grid1138" />
  </sodipodi:namedview>
  <linearGradient
     id="a"
     gradientUnits="userSpaceOnUse"
     x1="78.560501"
     x2="40.480499"
     y1="8.0806"
     y2="36.640598">
    <stop
       offset="0"
       stop-color="#8e79b9"
       id="stop2" />
    <stop
       offset="1"
       stop-color="#462886"
       id="stop4" />
  </linearGradient>
  <linearGradient
     id="b"
     gradientTransform="matrix(0,0.125,0.125,0,-22.371351,-2.9423092)"
     gradientUnits="userSpaceOnUse"
     x1="172.56801"
     x2="178.04466"
     xlink:href="#a"
     y1="233.48956"
     y2="367.96475" />
  <radialGradient
     id="c"
     cx="64.303313"
     cy="64.505531"
     fx="64.886924"
     fy="77.36248"
     gradientUnits="userSpaceOnUse"
     r="16.808167"
     gradientTransform="matrix(0.10867019,0,0,0.10867019,0.05134736,0.9978671)">
    <stop
       offset="0"
       stop-color="#6ccb34"
       id="stop8" />
    <stop
       offset="1"
       stop-color="#afe41f"
       id="stop10" />
  </radialGradient>
  <radialGradient
     id="d"
     cx="64.303315"
     cy="64.505532"
     fx="63.994744"
     fy="51.545619"
     gradientUnits="userSpaceOnUse"
     r="19.637235"
     xlink:href="#a" />
  <linearGradient
     id="e"
     gradientTransform="matrix(0.16224605,0,0,0.17560346,-3.8994094,-3.3503118)"
     gradientUnits="userSpaceOnUse"
     x1="80.092743"
     x2="80.092743"
     y1="69.24884"
     y2="56.05217">
    <stop
       offset="0"
       stop-color="#bce93f"
       stop-opacity=".285714"
       id="stop14" />
    <stop
       offset="1"
       stop-color="#eefacd"
       id="stop16" />
  </linearGradient>
  <filter
     id="f">
    <feGaussianBlur
       stdDeviation=".69107036"
       id="feGaussianBlur19" />
  </filter>
  <filter
     id="g">
    <feGaussianBlur
       stdDeviation=".45973757"
       id="feGaussianBlur22" />
  </filter>
  <filter
     id="h">
    <feGaussianBlur
       stdDeviation=".41550345"
       id="feGaussianBlur25" />
  </filter>
  <linearGradient
     id="i"
     gradientUnits="userSpaceOnUse"
     x1="63.993221"
     x2="63.993221"
     xlink:href="#j"
     y1="80.369598"
     y2="66.131996" />
  <linearGradient
     id="j">
    <stop
       offset="0"
       stop-color="#fff"
       id="stop29" />
    <stop
       offset="1"
       stop-color="#fff"
       stop-opacity="0"
       id="stop31" />
  </linearGradient>
  <linearGradient
     id="k">
    <stop
       offset="0"
       stop-color="#fff"
       id="stop34" />
    <stop
       offset=".5"
       stop-color="#fff"
       stop-opacity=".503597"
       id="stop36" />
    <stop
       offset="1"
       stop-color="#fff"
       id="stop38" />
  </linearGradient>
  <radialGradient
     id="l"
     cx="-84"
     cy="64"
     gradientUnits="userSpaceOnUse"
     r="60"
     xlink:href="#j" />
  <mask
     id="m"
     maskUnits="userSpaceOnUse">
    <path
       d="m-83.999999 4c-3.273853.017276-5.375768.1739184-8.625.625-.96195.153184-1.75.7805494-1.75 1.75l-.59375 9.4375c-.08851.955194-.756643 1.58433-1.46875 1.8125-.02183.007-.0406.02503-.0625.03125-4.116841 1.105169-8.022931 2.722102-11.625001 4.8125-.65155.281931-1.49213.264937-2.1875-.3125l-7.09375-6.25c-.6855-.685498-1.68023-.57188-2.46875 0-2.61651 1.978592-4.23532 3.353505-6.5625 5.65625-2.30274 2.327183-3.67766 3.945984-5.65625 6.5625-.57188.788521-.6855 1.783252 0 2.46875l6.25 7.09375c.47372.570479.7362 1.308846.46875 1.84375l-.0625.125c-2.24552 3.7996-3.99486 7.936313-5.125 12.3125-.0118.02064-.0187.04216-.0312.0625-.31721.512841-.85539.931584-1.59375 1l-9.4375.59375c-.96944 0-1.59681.78805-1.75 1.75-.45108 3.249232-.60772 5.351147-.625 8.625.0173 3.273853.17392 5.375768.625 8.625.15319.961946.78056 1.75 1.75 1.75l9.4375.59375c.86735.08037 1.44344.646567 1.71875 1.28125 1.10323 4.143354 2.76625 8.064208 4.875 11.6875.37292.668507.38163 1.614364-.25 2.375l-6.25 7.09375c-.6855.685496-.57188 1.680227 0 2.46875 1.97859 2.61651 3.35351 4.23531 5.65625 6.5625 2.32718 2.30274 3.94598 3.67766 6.5625 5.65625.78852.57188 1.78325.6855 2.46875 0l7.09375-6.25c.76064-.63163 1.70649-.62292 2.375-.25l.0937-.0937c3.52766 2.01717 7.32819 3.60952 11.343751 4.6875v.15625c.736401.20901 1.440029.85927 1.53125 1.84375l.59375 9.4375c0 .96944.78805 1.59681 1.75 1.75 3.249232.45108 5.351147.60772 8.625.625 3.273853-.0173 5.375768-.17392 8.625-.625.961946-.15319 1.75-.78056 1.75-1.75l.59375-9.4375c.09122-.98448.794849-1.63474 1.53125-1.84375v-.15625c4.015557-1.07798 7.816095-2.67033 11.34375-4.6875l.09375.0937c.668507-.37292 1.614362-.38163 2.375.25l7.09375 6.25c.685503.68551 1.680237.57189 2.46875 0 2.61651-1.97859 4.23531-3.35351 6.5625-5.65625 2.30274-2.32719 3.67766-3.94599 5.65625-6.5625.57189-.788513.68551-1.783245 0-2.46875l-6.25-7.09375c-.63163-.76064-.62292-1.706493-.25-2.375 2.10875-3.623292 3.77177-7.544146 4.875-11.6875.27531-.634683.8514-1.20088 1.71875-1.28125l9.4375-.59375c.96945 0 1.59682-.788054 1.75-1.75.45108-3.249232.60772-5.351147.625-8.625-.01728-3.273853-.17392-5.375768-.625-8.625-.15318-.96195-.78055-1.75-1.75-1.75l-9.4375-.59375c-.73836-.06842-1.27654-.487159-1.59375-1-.0056-.02192-.02559-.04059-.03125-.0625-1.13014-4.376187-3.15121-8.364911-5.125-12.3125l-.0625-.125c-.26745-.534904-.005-1.273273.46875-1.84375l6.25-7.09375c.68551-.685506.57188-1.680234 0-2.46875-1.97859-2.616516-3.35351-4.23532-5.65625-6.5625-2.32718-2.302747-3.94598-3.677659-6.5625-5.65625-.788516-.571884-1.783244-.685505-2.46875 0l-7.09375 6.25c-.695376.577435-1.535955.594432-2.1875.3125-3.602075-2.090398-7.508163-3.707331-11.625-4.8125-.0219-.0062-.04067-.02426-.0625-.03125-.712107-.22817-1.380239-.857306-1.46875-1.8125l-.59375-9.4375c0-.9694506-.788054-1.596816-1.75-1.75-3.249232-.4510816-5.351147-.6077236-8.625-.625zm0 44c8.831999-.000001 16 7.168 16 16-.000001 8.832-7.168001 16-16 16-8.832 0-16-7.168-16-16 .000001-8.832001 7.168001-16 16-16z"
       fill="url(#l)"
       id="path42" />
  </mask>
  <filter
     id="n">
    <feGaussianBlur
       stdDeviation="1.2828183"
       id="feGaussianBlur45" />
  </filter>
  <clipPath
     id="o">
    <path
       d="m76.90625-70.062499c-2.912256 3.972096-7.607051 6.5625-12.90625 6.5625-4.895788 0-9.283068-2.188651-12.21875-5.65625-23.139626-4.28557-26.617645 14.039708-31.5 30.75.408832.434.807117.86458 1.28125 1.34375 2.32718 2.30274 3.94598 3.67766 6.5625 5.65625.78852.57188 1.78325.6855 2.46875 0l7.09375-6.25c.76064-.63163 1.70649-.62292 2.375-.25l.09375-.09375c3.52766 2.01717 7.328189 3.60952 11.34375 4.6875v.15625c.736402.20901 1.440029.85927 1.53125 1.84375l.59375 9.4375c.000001.96944.78805 1.59681 1.75 1.75 3.249233.45108 5.351147.60772 8.625.625 3.273854-.01728 5.375768-.17392 8.625-.625.961947-.15319 1.75-.78056 1.75-1.75l.59375-9.4375c.09122-.98448.794849-1.63474 1.53125-1.84375v-.15625c4.015558-1.07798 7.816095-2.67033 11.34375-4.6875l.09375.09375c.668508-.37292 1.614362-.38163 2.375.25l7.09375 6.25c.685504.68551 1.680237.57189 2.46875 0 2.61651-1.97859 4.23531-3.35351 6.5625-5.65625.48542-.49057.8952-.93141 1.3125-1.375 3.92353-7.086674-25.609227-43.434539-30.84375-31.625z"
       id="path48" />
  </clipPath>
  <radialGradient
     id="p"
     cx="94.818924"
     cy="67.895119"
     gradientTransform="matrix(1,0,0,0.5780636,0,-101.84696)"
     gradientUnits="userSpaceOnUse"
     r="43.734375"
     xlink:href="#j" />
  <filter
     id="q">
    <feGaussianBlur
       stdDeviation=".60500001"
       id="feGaussianBlur52" />
  </filter>
  <linearGradient
     id="r"
     gradientUnits="userSpaceOnUse"
     x1="62.90738"
     x2="62.991143"
     xlink:href="#j"
     y1="3.391029"
     y2="9.393529" />
  <radialGradient
     id="s"
     cx="54.672985"
     cy="6.849921"
     fx="54.045624"
     fy="6.341433"
     gradientTransform="matrix(1 0 0 1.9019608 0 -6.17836)"
     gradientUnits="userSpaceOnUse"
     r="1.2891">
    <stop
       offset="0"
       stop-color="#fff"
       id="stop56" />
    <stop
       offset=".5"
       stop-color="#fff"
       stop-opacity=".791367"
       id="stop58" />
    <stop
       offset="1"
       stop-color="#fff"
       stop-opacity="0"
       id="stop60" />
  </radialGradient>
  <filter
     id="t">
    <feGaussianBlur
       stdDeviation=".022901589"
       id="feGaussianBlur63" />
  </filter>
  <linearGradient
     id="u"
     gradientUnits="userSpaceOnUse"
     x1="43.713863"
     x2="18.252157"
     xlink:href="#k"
     y1="11.36219"
     y2="21.728621" />
  <filter
     id="v">
    <feGaussianBlur
       stdDeviation=".093056358"
       id="feGaussianBlur67" />
  </filter>
  <linearGradient
     id="w"
     gradientUnits="userSpaceOnUse"
     x1="52.721935"
     x2="38.62756"
     xlink:href="#k"
     y1="17.796528"
     y2="22.658024" />
  <radialGradient
     id="x"
     cx="54.672985"
     cy="6.849921"
     gradientTransform="matrix(1 0 0 1.9019608 0 -6.17836)"
     gradientUnits="userSpaceOnUse"
     r="1.2891">
    <stop
       offset="0"
       stop-color="#474747"
       id="stop71" />
    <stop
       offset="1"
       stop-color="#474747"
       stop-opacity="0"
       id="stop73" />
  </radialGradient>
  <filter
     id="y"
     height="1.133383"
     width="1.225559"
     x="-.112779"
     y="-.066691">
    <feGaussianBlur
       stdDeviation=".13268874"
       id="feGaussianBlur76" />
  </filter>
  <linearGradient
     id="z"
     gradientUnits="userSpaceOnUse"
     x1="114.2963"
     x2="114.2963"
     y1="49.937351"
     y2="61.877388">
    <stop
       offset="0"
       stop-color="#fff"
       stop-opacity="0"
       id="stop79" />
    <stop
       offset=".32512316"
       stop-color="#fff"
       id="stop81" />
    <stop
       offset="1"
       stop-color="#fff"
       stop-opacity="0"
       id="stop83" />
  </linearGradient>
  <filter
     id="A">
    <feGaussianBlur
       stdDeviation=".20386597"
       id="feGaussianBlur86" />
  </filter>
  <filter
     id="B">
    <feGaussianBlur
       stdDeviation=".48701799"
       id="feGaussianBlur89" />
  </filter>
  <filter
     id="C">
    <feGaussianBlur
       stdDeviation=".12356379"
       id="feGaussianBlur92" />
  </filter>
  <filter
     id="D">
    <feGaussianBlur
       stdDeviation=".11909804"
       id="feGaussianBlur95" />
  </filter>
  <filter
     id="E">
    <feGaussianBlur
       stdDeviation=".069666275"
       id="feGaussianBlur98" />
  </filter>
  <linearGradient
     id="F"
     gradientUnits="userSpaceOnUse"
     x1="53.46933"
     x2="52.46933"
     y1="-13.03309"
     y2="167.96691">
    <stop
       offset="0"
       stop-color="#767676"
       id="stop101" />
    <stop
       offset="1"
       stop-color="#767676"
       stop-opacity="0"
       id="stop103" />
  </linearGradient>
  <radialGradient
     id="G"
     cx="64"
     cy="64"
     gradientUnits="userSpaceOnUse"
     r="60"
     xlink:href="#j" />
  <linearGradient
     id="H"
     gradientUnits="userSpaceOnUse"
     spreadMethod="reflect"
     x1="64.000002"
     x2="64.000002"
     y1="81.5"
     y2="12.678303">
    <stop
       offset="0"
       stop-color="#b4b4b4"
       id="stop107" />
    <stop
       offset=".5"
       stop-color="#d1d1d1"
       id="stop109" />
    <stop
       offset="1"
       stop-color="#fafafa"
       id="stop111" />
  </linearGradient>
  <linearGradient
     id="I"
     gradientUnits="userSpaceOnUse"
     x1="310.84995"
     x2="310.84995"
     y1="-27.656115"
     y2="270.16995">
    <stop
       offset="0"
       id="stop114" />
    <stop
       offset=".5"
       stop-color="#fff"
       id="stop116" />
    <stop
       offset="1"
       stop-color="#fff"
       id="stop118" />
  </linearGradient>
  <filter
     id="J">
    <feGaussianBlur
       stdDeviation=".11377897"
       id="feGaussianBlur121" />
  </filter>
  <radialGradient
     id="K"
     cx="-1.249402"
     cy="23.725372"
     fy="61.40414"
     gradientTransform="matrix(1.3581356,1.5026073,-1.6333333,1.4762927,-61.051702,-44.648234)"
     gradientUnits="userSpaceOnUse"
     r="60">
    <stop
       offset="0"
       stop-opacity="0"
       id="stop124" />
    <stop
       offset=".61052197"
       stop-opacity="0"
       id="stop126" />
    <stop
       offset=".68472904"
       stop-opacity=".377698"
       id="stop128" />
    <stop
       offset=".7499575"
       stop-opacity="0"
       id="stop130" />
    <stop
       offset="1"
       stop-opacity="0"
       id="stop132" />
  </radialGradient>
  <path
     inkscape:connector-curvature="0"
     id="path165"
     style="fill:#e602b4;fill-opacity:1;stroke:#f3b7d9;stroke-width:0.5;stroke-linecap:round;stroke-linejoin:round;stroke-miterlimit:4;stroke-dasharray:none;stroke-dashoffset:1.08780003;stroke-opacity:1;paint-order:markers fill stroke"
     d="m 7.1292755,1.2237011 c -0.375022,0.002 -0.615799,0.01992 -0.988001,0.07159 -0.110192,0.01755 -0.200464,0.08941 -0.200464,0.200464 l -0.06801,1.0810739 c -0.01014,0.109417 -0.08667,0.181486 -0.168246,0.207623 -0.0025,8.02e-4 -0.0047,0.0029 -0.0072,0.0036 -0.471588,0.126582 -0.919034,0.311803 -1.331654,0.55126 -0.07464,0.03229 -0.170925,0.03035 -0.25058,-0.0358 l -0.81256,-0.715943 c -0.07852,-0.07853 -0.192471,-0.06551 -0.282797,0 -0.299723,0.226649 -0.485159,0.384146 -0.75174,0.647928 -0.263781,0.2665809 -0.421279,0.4520159 -0.647928,0.7517399 -0.06551,0.09033 -0.07852,0.204273 0,0.282798 l 0.715943,0.812595 c 0.05427,0.06535 0.08433,0.14993 0.0537,0.211203 l -0.0072,0.01432 c -0.257226,0.4352474 -0.457615,0.9091111 -0.587073,1.4104074 -0.0014,0.00236 -0.0021,0.00483 -0.0036,0.00716 -0.03634,0.058746 -0.09799,0.1067133 -0.182566,0.1145509 l -1.08107278,0.068015 c -0.111051,0 -0.182916,0.090272 -0.200465,0.200464 -0.05167,0.3722021 -0.06961,0.6129788 -0.07159,0.9880011 0.002,0.3750224 0.01992,0.6157991 0.07159,0.9880017 0.01755,0.110192 0.08941,0.200464 0.200465,0.200464 L 1.6092995,9.353231 c 0.09936,0.0092 0.165348,0.07406 0.196885,0.146769 0.126376,0.474624 0.316876,0.923762 0.558435,1.338813 0.04272,0.07658 0.04372,0.184927 -0.02864,0.27206 l -0.715942,0.812594 c -0.07852,0.07852 -0.06551,0.192471 0,0.282797 0.226649,0.299724 0.384147,0.485159 0.647928,0.75174 0.266581,0.263781 0.452016,0.421279 0.75174,0.647928 0.09033,0.06551 0.204273,0.07852 0.282797,0 l 0.812596,-0.715942 c 0.08713,-0.07235 0.19548,-0.07136 0.272058,-0.02864 l 0.01074,-0.01073 c 0.404097,0.231069 0.839451,0.413474 1.299436,0.536958 v 0.0179 c 0.08435,0.02394 0.164957,0.09843 0.175406,0.211203 l 0.06801,1.081074 c 0,0.11105 0.09027,0.182915 0.200464,0.200463 0.372202,0.05167 0.612979,0.06962 0.988001,0.07159 0.375023,-0.002 0.6158,-0.01992 0.9880018,-0.07159 0.110192,-0.01755 0.200464,-0.08941 0.200464,-0.200463 l 0.06801,-1.081074 c 0.01045,-0.112773 0.09105,-0.187261 0.175406,-0.211203 v -0.0179 c 0.459986,-0.123484 0.895341,-0.305889 1.299436,-0.536958 l 0.01074,0.01073 c 0.07658,-0.04272 0.1849267,-0.04372 0.2720587,0.02864 l 0.812594,0.715942 c 0.07852,0.07853 0.192473,0.06551 0.282798,0 0.299724,-0.226649 0.485159,-0.384147 0.75174,-0.647928 0.263781,-0.266581 0.421279,-0.452016 0.647928,-0.75174 0.06551,-0.09032 0.07853,-0.204272 0,-0.282797 l -0.715942,-0.812595 c -0.07235,-0.08713 -0.07136,-0.195482 -0.02864,-0.27206 0.241559,-0.415051 0.432059,-0.864189 0.558435,-1.338814 0.03154,-0.0727 0.09753,-0.137561 0.196885,-0.146768 l 1.081073,-0.06801 c 0.111052,0 0.182917,-0.09027 0.200464,-0.200464 0.05167,-0.372202 0.06961,-0.6129787 0.07159,-0.9880011 -0.002,-0.3750223 -0.01992,-0.615799 -0.07159,-0.9880011 -0.01755,-0.1101922 -0.08941,-0.200464 -0.200464,-0.200464 l -1.081073,-0.068015 c -0.08458,-0.00784 -0.146229,-0.055805 -0.182566,-0.1145509 -6.87e-4,-0.00251 -0.0029,-0.00465 -0.0036,-0.00716 C 12.333519,6.217264 12.102004,5.7603527 11.875905,5.3081529 l -0.0072,-0.01432 c -0.03064,-0.06127 -5.73e-4,-0.145854 0.0537,-0.211203 l 0.715943,-0.812595 c 0.07852,-0.07853 0.06551,-0.192472 0,-0.282798 C 12.411699,3.6875119 12.2542,3.5020779 11.990419,3.235497 11.723839,2.971715 11.538404,2.814218 11.238679,2.587569 c -0.09032,-0.06551 -0.204271,-0.07853 -0.282797,0 l -0.812559,0.715943 c -0.07966,0.06615 -0.1759437,0.06809 -0.2505797,0.0358 -0.41262,-0.239457 -0.860066,-0.424678 -1.331654,-0.551276 -0.0025,-7.1e-4 -0.0047,-0.0028 -0.0072,-0.0036 -0.08157,-0.02614 -0.158108,-0.09821 -0.168247,-0.207624 l -0.06801,-1.0810729 c 0,-0.111052 -0.09027,-0.182917 -0.200464,-0.200464 -0.3722018,-0.05167 -0.6129788,-0.06962 -0.9880008,-0.07159 z m 0,5.0402375 c 1.0117128,0 1.8328138,0.8211005 1.8328138,1.8328137 0,1.0117137 -0.821101,1.8328137 -1.8328138,1.8328137 -1.011713,0 -1.832814,-0.8211 -1.832814,-1.8328137 0,-1.0117132 0.821101,-1.8328137 1.832814,-1.8328137 z" />
  <path
     inkscape:connector-curvature="0"
     style="fill:#9d3a9b;stroke:#f0e3ec;stroke-width:0.252;stroke-miterlimit:4;stroke-dasharray:none"
     id="path207"
     d="M 8.2499997,9 H 12.5 v 0.7539063 c 2.5e-4,0.1855125 0.111416,0.3662547 0.277344,0.4492187 0.165927,0.08296 0.378795,0.06425 0.527343,-0.04687 l 2,-1.75 c 0.124253,-0.093356 0.199219,-0.2469362 0.199219,-0.4023487 0,-0.1554126 -0.07497,-0.3089926 -0.199219,-0.4023438 l -2,-1.75 C 13.222947,5.7897315 13.12195,5.7537625 13.019531,5.75 12.750435,5.74129 12.4995,5.98467 12.5,6.2539062 V 7 H 8.2499997 Z" />
  <circle
     cx="7.1292133"
     cy="8.0967474"
     r="1.9776943"
     id="circle203"
     style="fill:#9d3a9b;fill-opacity:1;stroke-width:0.10867019" />
</svg>
