<?xml version="1.0" encoding="UTF-8" standalone="no"?>
<svg
   xmlns:dc="http://purl.org/dc/elements/1.1/"
   xmlns:cc="http://creativecommons.org/ns#"
   xmlns:rdf="http://www.w3.org/1999/02/22-rdf-syntax-ns#"
   xmlns:svg="http://www.w3.org/2000/svg"
   xmlns="http://www.w3.org/2000/svg"
   xmlns:xlink="http://www.w3.org/1999/xlink"
   xmlns:sodipodi="http://sodipodi.sourceforge.net/DTD/sodipodi-0.dtd"
   xmlns:inkscape="http://www.inkscape.org/namespaces/inkscape"
   height="16"
   width="16"
   version="1.1"
   id="svg227"
   sodipodi:docname="sc_recsearch.svg"
   inkscape:version="0.92.4 (unknown)"
   inkscape:export-filename="/home/annisaauliarasyidah/Desktop/4_242 (aulia)/sc 222/sc_recsearch.png"
   inkscape:export-xdpi="96"
   inkscape:export-ydpi="96">
  <metadata
     id="metadata233">
    <rdf:RDF>
      <cc:Work
         rdf:about="">
        <dc:format>image/svg+xml</dc:format>
        <dc:type
           rdf:resource="http://purl.org/dc/dcmitype/StillImage" />
      </cc:Work>
    </rdf:RDF>
  </metadata>
  <defs
     id="defs231" />
  <sodipodi:namedview
     pagecolor="#ffffff"
     bordercolor="#666666"
     borderopacity="1"
     objecttolerance="10"
     gridtolerance="10"
     guidetolerance="10"
     inkscape:pageopacity="0"
     inkscape:pageshadow="2"
     inkscape:window-width="1366"
     inkscape:window-height="707"
     id="namedview229"
     showgrid="false"
     inkscape:zoom="29.39404"
     inkscape:cx="6.8645628"
     inkscape:cy="8"
     inkscape:window-x="0"
     inkscape:window-y="0"
     inkscape:window-maximized="1"
     inkscape:current-layer="svg227" />
  <linearGradient
     id="a"
     gradientUnits="userSpaceOnUse"
     x1="924.45856"
     x2="922.51862"
     xlink:href="#d"
     y1="705.7738"
     y2="699.94611" />
  <radialGradient
     id="b"
     cx="13.5"
     cy="19.5"
     gradientUnits="userSpaceOnUse"
     r=".5"
     xlink:href="#e" />
  <linearGradient
     id="c"
     gradientTransform="matrix(0.47203435,0,0,0.54825175,-429.54533,-376.16641)"
     gradientUnits="userSpaceOnUse"
     x1="923.45856"
     x2="921.51862"
     xlink:href="#d"
     y1="706.2738"
     y2="700.44611" />
  <linearGradient
     id="d">
    <stop
       offset="0"
       id="stop5" />
    <stop
       offset="1"
       stop-opacity="0"
       id="stop7" />
  </linearGradient>
  <linearGradient
     id="e">
    <stop
       offset="0"
       stop-color="#fff"
       id="stop10" />
    <stop
       offset="1"
       stop-color="#fff"
       stop-opacity="0"
       id="stop12" />
  </linearGradient>
  <linearGradient
     id="f">
    <stop
       offset="0"
       stop-color="#ffdfbf"
       id="stop15" />
    <stop
       offset="1"
       stop-color="#ffdfbf"
       stop-opacity="0"
       id="stop17" />
  </linearGradient>
  <linearGradient
     id="g">
    <stop
       offset="0"
       stop-color="#001228"
       id="stop20" />
    <stop
       offset="1"
       stop-color="#00224d"
       stop-opacity="0"
       id="stop22" />
  </linearGradient>
  <linearGradient
     id="h">
    <stop
       offset="0"
       stop-color="#666"
       id="stop25" />
    <stop
       offset="1"
       stop-color="#101010"
       id="stop27" />
  </linearGradient>
  <linearGradient
     id="i">
    <stop
       offset="0"
       stop-color="#212121"
       id="stop30" />
    <stop
       offset=".3826898"
       stop-color="#b0b0b0"
       id="stop32" />
    <stop
       offset=".5927273"
       stop-color="#101010"
       id="stop34" />
    <stop
       offset="1"
       stop-color="#111"
       id="stop36" />
  </linearGradient>
  <linearGradient
     id="j">
    <stop
       offset="0"
       id="stop39" />
    <stop
       offset="1"
       stop-color="#414141"
       id="stop41" />
  </linearGradient>
  <linearGradient
     id="k">
    <stop
       offset="0"
       stop-color="#313131"
       id="stop44" />
    <stop
       offset=".5"
       stop-color="#3b3b3b"
       id="stop46" />
    <stop
       offset=".62842464"
       stop-color="#5a5a5a"
       id="stop48" />
    <stop
       offset=".875"
       stop-color="#181818"
       id="stop50" />
    <stop
       offset="1"
       stop-color="#151515"
       id="stop52" />
  </linearGradient>
  <linearGradient
     id="l">
    <stop
       offset="0"
       stop-color="#002f4d"
       id="stop55" />
    <stop
       offset="1"
       stop-color="#0055bf"
       id="stop57" />
  </linearGradient>
  <linearGradient
     id="m"
     gradientUnits="userSpaceOnUse"
     x1="16"
     x2="16"
     xlink:href="#e"
     y1="27"
     y2="32"
     gradientTransform="matrix(0.5,0,0,0.5,0.030495,-2)" />
  <linearGradient
     id="n"
     gradientTransform="matrix(0.47203435,0,0,0.54825175,0.949995,-0.454545)"
     gradientUnits="userSpaceOnUse"
     x1="4.270289"
     x2="14"
     xlink:href="#i"
     y1="14.550586"
     y2="17" />
  <linearGradient
     id="o"
     gradientTransform="matrix(0.47203435,0,0,0.54825175,0.47796,-0.454545)"
     gradientUnits="userSpaceOnUse"
     x1="16"
     x2="14.582785"
     xlink:href="#h"
     y1="13"
     y2="13" />
  <linearGradient
     id="p"
     gradientTransform="matrix(0.5091954,0,0,0.59141305,0.73168,-1.205)"
     gradientUnits="userSpaceOnUse"
     x1="16.695723"
     x2="10.450947"
     xlink:href="#j"
     y1="9.722409"
     y2="26.879789" />
  <linearGradient
     id="q"
     gradientTransform="matrix(0.47203435,0,0,0.49992605,0.95,0.22956)"
     gradientUnits="userSpaceOnUse"
     x1="0"
     x2="10.651972"
     xlink:href="#k"
     y1="20.078125"
     y2="22.835848" />
  <linearGradient
     id="r"
     gradientTransform="matrix(0.47203435,0,0,0.49992605,-430.01736,-342.11517)"
     gradientUnits="userSpaceOnUse"
     x1="921.06506"
     x2="918.18854"
     xlink:href="#d"
     y1="705.59735"
     y2="699.71765" />
  <linearGradient
     id="s"
     gradientTransform="matrix(0.6608482,0,0,0.68226865,-0.088475,-2.92777)"
     gradientUnits="userSpaceOnUse"
     x1="5.857142"
     x2="7.227147"
     xlink:href="#d"
     y1="16.482147"
     y2="25.223043" />
  <linearGradient
     id="t"
     gradientTransform="matrix(0.8373484,0,0,0.86448995,-1.05922,-6.884445)"
     gradientUnits="userSpaceOnUse"
     x1="5.347352"
     x2="6.037732"
     xlink:href="#l"
     y1="18.595242"
     y2="23" />
  <linearGradient
     id="u"
     gradientTransform="matrix(0.9440705,0,0,0.986853,-1.64619,-9.921735)"
     gradientUnits="userSpaceOnUse"
     spreadMethod="pad"
     x1="5.760162"
     x2="5.5"
     xlink:href="#e"
     y1="23.890432"
     y2="20.5" />
  <linearGradient
     id="v"
     gradientTransform="matrix(0.6608482,0,0,0.68226865,0.61958,-4.572525)"
     gradientUnits="userSpaceOnUse"
     x1="2.912473"
     x2="7.604515"
     xlink:href="#f"
     y1="22.103046"
     y2="22.103046" />
  <linearGradient
     id="w"
     gradientTransform="matrix(0.6608482,0,0,0.68226865,0.147545,-3.75015)"
     gradientUnits="userSpaceOnUse"
     x1="3.714285"
     x2="6.571428"
     xlink:href="#g"
     y1="21.705362"
     y2="21.705362" />
  <linearGradient
     id="x"
     gradientTransform="matrix(0.47203435,0,0,0.54825175,0.477965,-0.45455)"
     gradientUnits="userSpaceOnUse"
     x1="5.497561"
     x2="6.227271"
     xlink:href="#d"
     y1="17.875"
     y2="22.013391" />
  <radialGradient
     id="y"
     cx="13.5"
     cy="19.5"
     gradientTransform="matrix(1.3370469,0,0,1.4065605,-15.236555,-15.941285)"
     gradientUnits="userSpaceOnUse"
     r=".5"
     xlink:href="#e" />
  <radialGradient
     id="z"
     cx="13.5"
     cy="19.5"
     gradientTransform="matrix(1.165119,0,0,1.2256939,-11.527825,-13.47474)"
     gradientUnits="userSpaceOnUse"
     r=".5"
     xlink:href="#e" />
  <linearGradient
     id="A"
     gradientTransform="matrix(0.43216699,0,0,0.50194715,0.73586,0.57283)"
     gradientUnits="userSpaceOnUse"
     x1="7.682927"
     x2="6.46875"
     xlink:href="#e"
     y1="18.470274"
     y2="21.592226" />
  <linearGradient
     id="B"
     gradientTransform="matrix(0.9440705,0,0,0.986853,-1.64619,-9.171745)"
     gradientUnits="userSpaceOnUse"
     spreadMethod="pad"
     x1="6.332519"
     x2="5.803075"
     xlink:href="#e"
     y1="18.166855"
     y2="21.503107" />
  <linearGradient
     id="C"
     gradientTransform="matrix(0.7374977,0,0,0.73097625,-0.51005,-4.07906)"
     gradientUnits="userSpaceOnUse"
     x1="4.769843"
     x2="9.017461"
     xlink:href="#d"
     y1="19.071428"
     y2="20.5" />
  <linearGradient
     id="D"
     gradientTransform="matrix(0.56979645,0.45660581,-0.65029155,0.36690785,13.632305,1.1813915)"
     gradientUnits="userSpaceOnUse"
     spreadMethod="pad"
     x1="8.013529"
     x2="5.803075"
     xlink:href="#e"
     y1="22.279459"
     y2="21.503107" />
  <linearGradient
     id="E"
     gradientUnits="userSpaceOnUse"
     x1="917.27026"
     x2="927"
     xlink:href="#i"
     y1="699.34137"
     y2="701.79077"
     gradientTransform="matrix(-0.47203435,0,0,0.54825175,446.07834,-375.89229)" />
  <linearGradient
     id="F"
     gradientUnits="userSpaceOnUse"
     x1="16"
     x2="14.582785"
     xlink:href="#h"
     y1="13"
     y2="13"
     gradientTransform="matrix(-0.47203435,0,0,0.54825175,15.583013,-0.45455196)" />
  <linearGradient
     id="G"
     gradientUnits="userSpaceOnUse"
     x1="930.54761"
     x2="923.81122"
     xlink:href="#j"
     y1="693.90979"
     y2="712.41785" />
  <linearGradient
     id="H"
     gradientTransform="matrix(1,0,0,0.9118549,913,686.03857)"
     gradientUnits="userSpaceOnUse"
     x1="0"
     x2="10.651972"
     xlink:href="#k"
     y1="20.078125"
     y2="22.835848" />
  <linearGradient
     id="I"
     gradientTransform="matrix(1,0,0,0.9118549,0,61.608771)"
     gradientUnits="userSpaceOnUse"
     x1="921.06506"
     x2="918.18854"
     xlink:href="#d"
     y1="705.59735"
     y2="699.71765" />
  <linearGradient
     id="J"
     gradientUnits="userSpaceOnUse"
     x1="5.857142"
     x2="7.227147"
     xlink:href="#d"
     y1="16.482147"
     y2="25.223043"
     gradientTransform="matrix(0.66084818,0,0,0.68226866,-16.149454,-2.9277759)" />
  <linearGradient
     id="K"
     gradientUnits="userSpaceOnUse"
     x1="5.347352"
     x2="6.037732"
     xlink:href="#l"
     y1="18.595242"
     y2="23"
     gradientTransform="matrix(0.83734839,0,0,0.86448994,-17.120202,-6.8844485)" />
  <linearGradient
     id="L"
     gradientUnits="userSpaceOnUse"
     spreadMethod="pad"
     x1="5.760162"
     x2="5.5"
     xlink:href="#e"
     y1="23.890432"
     y2="20.5"
     gradientTransform="matrix(-0.94407049,0,0,0.98685299,17.707172,-9.9217413)" />
  <linearGradient
     id="M"
     gradientUnits="userSpaceOnUse"
     x1="2.912473"
     x2="7.604515"
     xlink:href="#f"
     y1="22.103046"
     y2="22.103046"
     gradientTransform="matrix(-0.66084818,0,0,0.68226866,15.441402,-4.5725312)" />
  <linearGradient
     id="N"
     gradientUnits="userSpaceOnUse"
     x1="3.714285"
     x2="6.571428"
     xlink:href="#g"
     y1="21.705362"
     y2="21.705362"
     gradientTransform="matrix(-0.66084818,0,0,0.68226866,15.913437,-3.7501535)" />
  <linearGradient
     id="O"
     gradientUnits="userSpaceOnUse"
     x1="5.497561"
     x2="6.227271"
     xlink:href="#d"
     y1="17.875"
     y2="22.013391" />
  <linearGradient
     id="P"
     gradientUnits="userSpaceOnUse"
     x1="919.58038"
     x2="918.46875"
     xlink:href="#e"
     y1="703.57501"
     y2="706.43329" />
  <linearGradient
     id="Q"
     gradientUnits="userSpaceOnUse"
     spreadMethod="pad"
     x1="6.332519"
     x2="5.803075"
     xlink:href="#e"
     y1="18.166855"
     y2="21.503107" />
  <linearGradient
     id="R"
     gradientUnits="userSpaceOnUse"
     x1="4.769843"
     x2="9.017461"
     xlink:href="#d"
     y1="19.071428"
     y2="20.5" />
  <linearGradient
     id="S"
     gradientUnits="userSpaceOnUse"
     spreadMethod="pad"
     x1="8.013529"
     x2="5.803075"
     xlink:href="#e"
     y1="22.279459"
     y2="21.503107" />
  <ellipse
     cx="-12.514786"
     cy="10.837595"
     transform="scale(-1,1)"
     id="circle125"
     style="fill:#9d3a9b;fill-rule:evenodd;stroke-width:0.85081095"
     rx="2.0933709"
     ry="2.1612248" />
  <path
     style="fill-rule:evenodd;stroke:#9d3a9b;stroke-width:1.89999986;stroke-linecap:round;stroke-linejoin:round;fill:#9d3a9b"
     inkscape:connector-curvature="0"
     id="path93"
     d="m 10.331631,3.931462 c 0.553696,0 1.003073,0.4912336 1.003073,1.0965035 l 0.250768,0.6681819 c 1.160756,0.1157852 2.097522,1.0478955 2.271665,2.2272727 0.840656,0.7477551 1.253841,2.0434878 1.253841,3.1353149 0,0.548252 -0.472034,1.991261 -2.360171,1.991261 h -0.472035 c -1.888137,0 -2.3601714,-1.443009 -2.3159182,-1.991261 L 8.9745319,9.5587344 V 9.0104827 8.0090844 c -0.1394956,-0.1442176 0.1738786,-0.2398601 0,-0.2398601 v -2.193007 c 0.5643595,0 -0.3608419,0.2231165 -0.014728,0.5653846 l 0.501537,-0.5825175 c -0.080312,-0.1576662 0.367238,-0.3379643 0.367238,-0.5311189 0,-0.6052699 -0.050621,-1.0965035 0.5030751,-1.0965035 z" />
  <path
     style="fill-rule:evenodd;stroke-width:0.50871766;fill:#e602b4"
     inkscape:connector-curvature="0"
     id="path95"
     d="m 8.0304632,5.0279655 c 0.5643595,0 0.5832268,0.2231166 0.9293176,0.5653847 l 0.014751,-0.017133 V 10.510483 H 8.5024976 V 9.9622313 7.4608327 C 8.363002,7.3166151 8.2043418,7.2209725 8.0304632,7.2209725 Z" />
  <path
     inkscape:connector-curvature="0"
     style="fill:#9d3a9b;fill-rule:evenodd;stroke-width:0.50871766;stroke:#9d3a9b"
     id="path97"
     d="m 10.331631,3.931462 c 0.553696,0 1.003073,0.4912336 1.003073,1.0965035 l 0.250768,0.6681819 c 1.288252,0.1285047 2.301167,1.2589559 2.301167,2.6213286 0,1.2549154 -0.863435,1.043504 -2.006146,1.3027997 L 11.806738,9.8087372 8.5024976,9.5587344 V 9.0104827 8.0090844 C 8.363002,7.8648668 8.2043418,7.7692243 8.0304632,7.7692243 v -2.193007 c 0.5643595,0 0.5832268,0.2231165 0.9293176,0.5653846 L 9.4613173,5.5590844 C 9.3810054,5.4014182 9.3285577,5.2211201 9.3285577,5.0279655 c 0,-0.6052699 0.4493767,-1.0965035 1.0030733,-1.0965035 z" />
  <path
     inkscape:connector-curvature="0"
     style="opacity:1;fill:#f0e3ec;stroke:#e602b4;stroke-width:0.99999988;stroke-linecap:round;stroke-linejoin:round;stroke-opacity:1"
     id="path147"
     d="M 14.839104,10.630324 A 2.3601762,2.4671325 0 0 0 12.924625,8.6290862 2.3601762,2.4671325 0 0 0 10.470812,9.8251708 2.3601762,2.4671325 0 0 0 10.706784,12.644579" />
  <ellipse
     style="fill:#f0e3ec;stroke:#e602b4;stroke-width:0.50000018;stroke-linecap:round;stroke-linejoin:round;stroke-opacity:1"
     id="circle149"
     transform="scale(-1,1)"
     cy="10.905948"
     cx="-12.514791"
     rx="1.8437443"
     ry="1.8274406" />
  <path
     inkscape:connector-curvature="0"
     style="fill:url(#F);fill-rule:evenodd;stroke-width:0.50871766"
     id="path99"
     d="m 8.0304634,5.5762173 c 0.5643595,0 0.5832268,0.2231165 0.9293176,0.5653846 L 8.9745321,6.124469 V 9.8087351 H 8.5024978 V 9.2604833 8.0090844 C 8.3630022,7.8648668 8.204342,7.7692243 8.0304634,7.7692243 Z" />
  <path
     style="fill-rule:evenodd;stroke-width:0.50871766"
     inkscape:connector-curvature="0"
     id="path101"
     d="m 8.0304632,7.2209725 c 0.5643595,0 0.5832268,0.2231166 0.9293176,0.5653847 l 0.014751,-0.017133 v 1.0965035 l -0.014728,0.017105 C 8.6137136,8.5405652 8.5948464,8.3174486 8.0304868,8.3174486 Z" />
  <path
     style="fill-rule:evenodd;stroke-width:0.50871766;fill:#e602b4"
     inkscape:connector-curvature="0"
     id="path103"
     d="m 8.0304632,6.124469 c 0.5643595,0 0.5832268,0.2231166 0.9293176,0.5653847 l 0.014751,-0.017133 V 10.510483 H 8.5024976 V 9.9622313 8.5573362 C 8.363002,8.4131186 8.2043418,8.317476 8.0304632,8.317476 Z" />
  <path
     style="opacity:1;fill:#f0e3ec;fill-rule:evenodd;stroke-width:0.50871766"
     inkscape:connector-curvature="0"
     id="path105"
     d="m 10.506279,3.931462 c 0.53556,0 0.970224,0.4912336 0.970224,1.0965035 l 0.242555,0.6681819 c 1.246071,0.1285047 2.225816,1.2589559 2.225816,2.6213286 0,0.087359 -0.02063,0.1719208 -0.02856,0.256993 -0.12968,-1.2270148 -1.042646,-2.2109951 -2.19728,-2.3300699 L 11.476479,5.5762173 c 0,-0.6052699 -0.434663,-1.0965035 -0.970224,-1.0965035 -0.451888,0 -0.8339572,0.3495214 -0.9416943,0.8223776 -0.022374,-0.088926 -0.028511,-0.1775513 -0.028511,-0.2741259 0,-0.6052699 0.4346634,-1.0965035 0.9702293,-1.0965035 z M 8.0304632,5.5762173 c 0.5458794,0 0.5641283,0.2231165 0.8988856,0.5653846 L 9.5503194,5.6961474 c 0.016474,0.1460433 0.053491,0.2880898 0.1141426,0.4111888 L 8.9293488,6.6898537 C 8.5945915,6.3475856 8.5763426,6.124469 8.0304632,6.124469 Z" />
  <path
     d="M 11.03863,6.2063691 A 1.5785883,1.6995815 0 0 0 10.030486,6.5981085"
     style="opacity:1;fill:#f3b7d9;stroke:#f3b7d9;stroke-width:1.99999964;stroke-linecap:round;stroke-linejoin:round"
     id="path109"
     inkscape:connector-curvature="0" />
  <ellipse
     cx="-9.2105494"
     cy="10.236358"
     id="circle129"
     style="opacity:0.62380999;fill:#f3b7d9;fill-rule:evenodd;stroke-width:0.50871766"
     transform="scale(-1,1)"
     rx="0.23601717"
     ry="0.27412587" />
  <path
     d="M 5.729345,3.93147 C 5.17565,3.93147 4.72627,4.422705 4.72627,5.027975 L 4.475505,5.696155 C 3.314745,5.81194 2.37798,6.74405 2.20384,7.92343 1.36318,8.671185 0.949995,9.966915 0.949995,11.058745 c 0,0.54825 0.472035,1.99126 2.360175,1.99126 h 0.472035 c 1.888135,0 2.36017,-1.44301 2.315915,-1.99126 l 0.988325,-1.5 V 9.01049 8.009095 c 0.139495,-0.14422 -0.17388,-0.23986 0,-0.23986 v -2.19301 c -0.56436,0 0.36084,0.22312 0.0147,0.565385 L 6.59961,5.559095 C 6.67992,5.401425 6.23237,5.22113 6.23237,5.027975 6.23237,4.422705 6.28299,3.93147 5.729295,3.93147 Z"
     id="path159"
     inkscape:connector-curvature="0"
     style="fill-rule:evenodd;stroke:#9d3a9b;stroke-width:1.89999998;stroke-linecap:round;stroke-linejoin:round" />
  <path
     style="fill-rule:evenodd;stroke-width:0.5;fill:#e602b4"
     d="m 8.03051,5.027975 c -0.56436,0 -0.583225,0.223115 -0.929315,0.565385 L 7.086445,5.57621 v 4.934265 h 0.47203 v -0.54825 -2.5014 c 0.1395,-0.144215 0.29816,-0.23986 0.472035,-0.23986 z"
     id="path161"
     inkscape:connector-curvature="0" />
  <path
     d="M 5.729345,3.93147 C 5.17565,3.93147 4.72627,4.422705 4.72627,5.027975 L 4.475505,5.696155 C 3.18725,5.82466 2.174335,6.95511 2.174335,8.317485 c 0,1.254915 0.863435,1.043505 2.006145,1.3028 l 0.073755,0.18846 3.30424,-0.25 V 9.01049 8.009095 c 0.1395,-0.14422 0.29816,-0.23986 0.472035,-0.23986 v -2.19301 c -0.56436,0 -0.583225,0.22312 -0.929315,0.565385 L 6.59966,5.559095 C 6.67997,5.401425 6.732415,5.22113 6.732415,5.027975 6.732415,4.422705 6.28304,3.93147 5.729345,3.93147 Z"
     id="path163"
     style="fill:#9d3a9b;fill-rule:evenodd;stroke-width:0.5"
     inkscape:connector-curvature="0" />
  <path
     d="m 8.03051,5.576225 c -0.56436,0 -0.583225,0.223115 -0.92932,0.565385 L 7.08644,6.12446 v 3.684265 h 0.472035 v -0.54825 -1.2514 C 7.69797,7.86486 7.85663,7.769215 8.03051,7.769215 Z"
     id="path165"
     style="fill:url(#o);fill-rule:evenodd;stroke-width:0.5"
     inkscape:connector-curvature="0" />
  <path
     style="fill-rule:evenodd;stroke-width:0.5"
     d="m 8.03051,7.22098 c -0.56436,0 -0.583225,0.22312 -0.929315,0.565385 l -0.01475,-0.01715 v 1.0965 l 0.0147,0.0171 c 0.34609,-0.342265 0.36496,-0.56538 0.92932,-0.56538 z"
     id="path167"
     inkscape:connector-curvature="0" />
  <path
     style="fill-rule:evenodd;stroke-width:0.5;fill:#e602b4"
     d="m 8.03051,6.12448 c -0.56436,0 -0.583225,0.223115 -0.929315,0.565385 l -0.01475,-0.01715 v 3.83776 h 0.47203 V 9.962225 8.55733 C 7.697975,8.413115 7.856635,8.31747 8.03051,8.31747 Z"
     id="path169"
     inkscape:connector-curvature="0" />
  <path
     d="m 5.554695,3.93147 c -0.53556,0 -0.970225,0.491235 -0.970225,1.096505 L 4.341915,5.696155 C 3.095845,5.82466 2.1161,6.95511 2.1161,8.317485 c 0,0.08736 0.02065,0.17192 0.02855,0.256995 C 2.27433,7.347465 3.187295,6.363485 4.34193,6.24441 L 4.584485,5.576225 c 0,-0.60527 0.434665,-1.0965 0.970225,-1.0965 0.45189,0 0.833955,0.34952 0.941695,0.822375 0.02235,-0.088925 0.0285,-0.17755 0.0285,-0.274125 0,-0.60527 -0.434665,-1.096505 -0.97023,-1.096505 z M 8.03051,5.576225 c -0.54588,0 -0.564125,0.22312 -0.898885,0.565385 L 6.510655,5.696155 c -0.0165,0.146045 -0.05349,0.28809 -0.11414,0.41119 l 0.73511,0.58252 C 7.466385,6.347595 7.48463,6.12448 8.03051,6.12448 Z"
     id="path171"
     inkscape:connector-curvature="0"
     style="opacity:1;fill:#f0e3ec;fill-rule:evenodd;stroke-width:0.5" />
  <path
     inkscape:connector-curvature="0"
     id="path175"
     style="opacity:1;fill:none;stroke:#f3b7d9;stroke-width:2;stroke-linecap:round;stroke-linejoin:round"
     d="M 5.022345,6.206365 A 1.5785882,1.6995815 0 0 1 6.03049,6.598105" />
  <ellipse
     style="fill:url(#t);fill-rule:evenodd;stroke-width:0.5"
     id="ellipse191"
     ry="2.1612251"
     rx="2.0933709"
     cy="10.837586"
     cx="3.546181" />
  <ellipse
     style="opacity:0.62380999;fill:#f3b7d9;fill-rule:evenodd;stroke-width:0.5"
     id="ellipse195"
     ry="0.27412599"
     rx="0.236017"
     cy="10.23636"
     cx="6.8504415" />
  <path
     inkscape:connector-curvature="0"
     style="fill:none;stroke:url(#w);stroke-width:0.5;stroke-linecap:round;stroke-linejoin:round"
     id="path199"
     d="M 4.608265,11.713515 A 1.6521204,1.7056716 0 0 1 3.08399,11.782225 1.6521204,1.7056716 0 0 1 2.155185,10.532545" />
  <path
     d="m 3.54619,9.34545 c -0.91197,0 -1.65212,0.771755 -1.65212,1.713285 0,0.353075 0.10207,0.6872 0.28027,0.95944 -0.0315,-0.131505 -0.04425,-0.26967 -0.04425,-0.411185 0,-0.94153 0.74015,-1.71329 1.65212,-1.71329 0.56184,0 1.058575,0.293865 1.3571,0.736715 C 4.95412,9.897485 4.31386,9.34545 3.546195,9.34545 Z"
     id="path201"
     style="opacity:0.63809503;fill:url(#x);fill-rule:evenodd;stroke-width:0.5"
     inkscape:connector-curvature="0" />
  <ellipse
     cx="2.813576"
     cy="11.486634"
     rx="0.66852349"
     ry="0.70328051"
     id="ellipse203"
     style="opacity:0.62380999;fill:url(#y);fill-rule:evenodd;stroke-width:0.5" />
  <path
     d="M 1.22189,10.630335 A 2.3601763,2.4671326 0 0 1 3.13637,8.629095 2.3601763,2.4671326 0 0 1 5.590185,9.82518 2.3601763,2.4671326 0 0 1 5.35421,12.64459"
     id="path213"
     style="opacity:1;fill:#e602b4;stroke:#e602b4;stroke-width:1;stroke-linecap:round;stroke-linejoin:round;fill-opacity:1;stroke-opacity:1"
     inkscape:connector-curvature="0" />
  <ellipse
     cx="3.546181"
     cy="10.905946"
     rx="1.8437445"
     ry="1.8274405"
     id="ellipse215"
     style="fill:#f0e3ec;stroke:#e602b4;stroke-width:0.5;stroke-linecap:round;stroke-linejoin:round" />
  <path
     inkscape:connector-curvature="0"
     style="opacity:0.36190503;fill:#f3b7d9;stroke:url(#m);stroke-width:0.5;stroke-linecap:round;stroke-linejoin:round"
     id="path223"
     d="m 7.780495,11.75 v 2" />
</svg>
