<?xml version="1.0" encoding="UTF-8" standalone="no"?>
<svg
   xmlns:dc="http://purl.org/dc/elements/1.1/"
   xmlns:cc="http://creativecommons.org/ns#"
   xmlns:rdf="http://www.w3.org/1999/02/22-rdf-syntax-ns#"
   xmlns:svg="http://www.w3.org/2000/svg"
   xmlns="http://www.w3.org/2000/svg"
   xmlns:sodipodi="http://sodipodi.sourceforge.net/DTD/sodipodi-0.dtd"
   xmlns:inkscape="http://www.inkscape.org/namespaces/inkscape"
   enable-background="new 0 0 128 128"
   height="16"
   viewBox="0 0 16 16"
   width="16"
   version="1.1"
   id="svg155"
   sodipodi:docname="sc_renameobject.svg"
   inkscape:version="0.92.4 (unknown)"
   inkscape:export-filename="/home/annisaauliarasyidah/Desktop/4_242 (aulia)/sc 222/sc_renameobject.png"
   inkscape:export-xdpi="96"
   inkscape:export-ydpi="96">
  <metadata
     id="metadata161">
    <rdf:RDF>
      <cc:Work
         rdf:about="">
        <dc:format>image/svg+xml</dc:format>
        <dc:type
           rdf:resource="http://purl.org/dc/dcmitype/StillImage" />
      </cc:Work>
    </rdf:RDF>
  </metadata>
  <defs
     id="defs159" />
  <sodipodi:namedview
     pagecolor="#ffffff"
     bordercolor="#666666"
     borderopacity="1"
     objecttolerance="10"
     gridtolerance="10"
     guidetolerance="10"
     inkscape:pageopacity="0"
     inkscape:pageshadow="2"
     inkscape:window-width="1366"
     inkscape:window-height="707"
     id="namedview157"
     showgrid="true"
     inkscape:snap-global="false"
     inkscape:zoom="22.652103"
     inkscape:cx="-1.9231446"
     inkscape:cy="5.0170402"
     inkscape:window-x="0"
     inkscape:window-y="0"
     inkscape:window-maximized="1"
     inkscape:current-layer="g125">
    <inkscape:grid
       type="xygrid"
       id="grid1024" />
  </sodipodi:namedview>
  <linearGradient
     id="a"
     gradientUnits="userSpaceOnUse"
     x1="85.219681"
     x2="61.336319"
     y1="93.219681"
     y2="69.336319">
    <stop
       offset="0"
       id="stop2" />
    <stop
       offset="1"
       stop-color="#393b38"
       id="stop4" />
  </linearGradient>
  <linearGradient
     id="b"
     gradientUnits="userSpaceOnUse"
     x1="96"
     x2="88.000198"
     y1="104"
     y2="96.000198">
    <stop
       offset="0"
       stop-color="#888a85"
       id="stop7" />
    <stop
       offset=".0072"
       stop-color="#8c8e89"
       id="stop9" />
    <stop
       offset=".0673"
       stop-color="#abaca9"
       id="stop11" />
    <stop
       offset=".1347"
       stop-color="#c5c6c4"
       id="stop13" />
    <stop
       offset=".2115"
       stop-color="#dbdbda"
       id="stop15" />
    <stop
       offset=".3012"
       stop-color="#ebebeb"
       id="stop17" />
    <stop
       offset=".4122"
       stop-color="#f7f7f6"
       id="stop19" />
    <stop
       offset=".5679"
       stop-color="#fdfdfd"
       id="stop21" />
    <stop
       offset="1"
       stop-color="#fff"
       id="stop23" />
  </linearGradient>
  <radialGradient
     id="c"
     cx="102"
     cy="112.3047"
     gradientTransform="matrix(0.12234042,0,0,0.12272727,0.17021313,0.1454665)"
     gradientUnits="userSpaceOnUse"
     r="139.55859">
    <stop
       offset="0"
       stop-color="#535557"
       id="stop26" />
    <stop
       offset=".11366145"
       stop-color="#898a8c"
       id="stop28" />
    <stop
       offset=".20296688"
       stop-color="#ececec"
       id="stop30" />
    <stop
       offset=".2363"
       stop-color="#fafafa"
       id="stop32" />
    <stop
       offset=".2722"
       stop-color="#fff"
       id="stop34" />
    <stop
       offset=".5313"
       stop-color="#fafafa"
       id="stop36" />
    <stop
       offset=".8449"
       stop-color="#ebecec"
       id="stop38" />
    <stop
       offset="1"
       stop-color="#e1e2e3"
       id="stop40" />
  </radialGradient>
  <radialGradient
     id="d"
     cx="102"
     cy="112.3047"
     gradientUnits="userSpaceOnUse"
     r="139.5585"
     gradientTransform="matrix(0.125,0,0,0.125,0,1.2e-5)">
    <stop
       offset="0"
       stop-color="#00537d"
       id="stop43" />
    <stop
       offset=".0151"
       stop-color="#186389"
       id="stop45" />
    <stop
       offset=".0558"
       stop-color="#558ca8"
       id="stop47" />
    <stop
       offset=".0964"
       stop-color="#89afc3"
       id="stop49" />
    <stop
       offset=".1357"
       stop-color="#b3ccd8"
       id="stop51" />
    <stop
       offset=".1737"
       stop-color="#d4e2e9"
       id="stop53" />
    <stop
       offset=".2099"
       stop-color="#ecf2f5"
       id="stop55" />
    <stop
       offset=".2435"
       stop-color="#fafcfd"
       id="stop57" />
    <stop
       offset=".2722"
       stop-color="#fff"
       id="stop59" />
  </radialGradient>
  <filter
     id="e">
    <feGaussianBlur
       stdDeviation="1.0394514"
       id="feGaussianBlur62" />
  </filter>
  <filter
     id="f">
    <feGaussianBlur
       stdDeviation=".50063244"
       id="feGaussianBlur65" />
  </filter>
  <filter
     id="g">
    <feGaussianBlur
       stdDeviation=".4901192"
       id="feGaussianBlur68" />
  </filter>
  <filter
     id="h">
    <feGaussianBlur
       stdDeviation=".90565481"
       id="feGaussianBlur71" />
  </filter>
  <filter
     id="i"
     height="1.247155"
     width="1.247155"
     x="-.123577"
     y="-.123577">
    <feGaussianBlur
       stdDeviation="1.7720846"
       id="feGaussianBlur74" />
  </filter>
  <filter
     id="j"
     color-interpolation-filters="sRGB"
     height="1.081416"
     width="1.047504"
     x="-.023752"
     y="-.040708">
    <feGaussianBlur
       stdDeviation="1.0608009"
       id="feGaussianBlur77" />
  </filter>
  <linearGradient
     id="k"
     gradientUnits="userSpaceOnUse"
     x1="73.884003"
     x2="83.571121"
     y1="135.42368"
     y2="-20.739262">
    <stop
       offset="0"
       stop-color="#0d0"
       id="stop80" />
    <stop
       offset="1"
       stop-color="#000e00"
       id="stop82" />
  </linearGradient>
  <radialGradient
     id="l"
     cx="73.72036"
     cy="101.74702"
     gradientTransform="matrix(4.1052304,-0.37601167,0.29689698,3.2414698,-264.18097,-192.83082)"
     gradientUnits="userSpaceOnUse"
     r="18.978512">
    <stop
       offset="0"
       stop-color="#0f0"
       id="stop85" />
    <stop
       offset="1"
       stop-color="#004d00"
       id="stop87" />
  </radialGradient>
  <radialGradient
     id="m"
     cx="57.522243"
     cy="63.842773"
     gradientTransform="matrix(7.2611355,0,0,7.0240393,-399.44582,-454.49493)"
     gradientUnits="userSpaceOnUse"
     r="18.978512">
    <stop
       offset="0"
       stop-color="#bfffbf"
       id="stop90" />
    <stop
       offset="1"
       stop-color="#bfffbf"
       stop-opacity="0"
       id="stop92" />
  </radialGradient>
  <linearGradient
     id="n"
     gradientUnits="userSpaceOnUse"
     x1="63.14854"
     x2="69.310593"
     y1="117.01452"
     y2="36.40435">
    <stop
       offset="0"
       stop-color="#f0ff80"
       id="stop95" />
    <stop
       offset="1"
       stop-color="#f0ff80"
       stop-opacity="0"
       id="stop97" />
  </linearGradient>
  <clipPath
     id="o">
    <path
       d="m14.349982-.517543c-.584216 0-1.060283.477572-1.060283 1.063636l.325 101.872727c0 .58714.476067 1.06364 1.060283 1.06364h56.239107c.278855 0 .552408-.11274.74962-.31164l28.306991-28.417063c.19828-.1989.31066-.472254.31066-.75199v-73.455674c0-.586064-.47501-1.063636-1.06028-1.063636z"
       id="path100" />
  </clipPath>
  <path
     d="M 2.1557522,1.1061652 V 14.949473 h 7.077657 c 0.070547,0 0.1383001,-0.02808 0.188216,-0.078 L 13.791319,10.50178 c 0.04991,-0.04991 0.078,-0.117668 0.078,-0.188215 V 1.1061652 Z"
     id="path1218"
     style="fill:#f0e3ec;stroke:#9d3a9b;stroke-width:0.26621747;stroke-miterlimit:4;stroke-dasharray:none"
     inkscape:connector-curvature="0" />
  <g
     id="g125"
     transform="matrix(0.125,0,0,0.125,1.2198441,1.0835823)"
     clip-path="url(#o)">
    <g
       style="fill:#e602b4;fill-rule:evenodd"
       id="g121"
       transform="translate(-16.245732)">
      <path
         inkscape:connector-curvature="0"
         style="fill:#e602b4"
         id="path115"
         d="m 66.76759,40.490234 c -1.12727,-0.0027 -2.06505,0.866053 -2.14844,1.990235 l 0.10547,-1.81836 -1.41992,0.0039 c -1.18408,0.0037 -2.14215,0.96435 -2.14258,2.148437 0,3.859363 0.64931,8.254153 0.71094,11.927735 0.0308,1.83679 -0.0916,3.477023 -0.41602,4.671874 -0.32446,1.194852 -0.77168,1.860468 -1.38867,2.263672 -0.31066,0.203018 -0.26937,0.172456 -0.5625,0.09961 -0.29313,-0.07285 -8.85247,-0.358545 -9.52539,-0.804688 -1.34585,-0.892285 -3.16245,-2.607066 -5.93164,-2.363281 -2.98054,0.262395 -5.18505,2.360886 -6.40235,4.792969 -1.21729,2.432082 -1.7159,5.309732 -1.75781,8.142578 -0.0404,2.731021 0.17151,5.088231 0.96289,7.167969 0.79138,2.079737 2.26952,3.830472 4.30078,4.921875 1.56565,0.84121 3.25906,0.609105 4.58399,0.166015 1.32493,-0.443089 2.4905,-1.112021 3.54101,-1.683593 1.05051,-0.571573 10.0016,-1.032024 10.50391,-1.158204 0.50231,-0.12618 0.1262,-0.175502 0.16992,-0.125 0.93301,1.077594 1.58063,4.19266 1.60352,8 0.0229,3.80734 -0.37107,8.196223 -0.39258,12.037103 -0.006,1.19171 0.95867,2.16083 2.15039,2.16016 l 26.16602,-0.0449 24.16406,0.0449 c 1.19172,6.7e-4 2.15645,-0.96845 2.15039,-2.16016 -0.0215,-3.84069 -0.41594,-8.229782 -0.39258,-12.037103 0.0234,-3.80732 0.67232,-6.922249 1.60547,-8 0.0438,-0.05061 -0.33408,-0.0011 0.16797,0.125 0.50204,0.126139 9.45363,0.586631 10.5039,1.158204 1.05027,0.571572 4.21622,1.240469 5.54102,1.683593 1.3248,0.443125 3.01841,0.675155 4.58398,-0.166015 2.03127,-1.091402 3.5094,-2.842136 4.30079,-4.921875 0.79138,-2.079739 1.00327,-4.436947 0.96289,-7.167969 -0.0419,-2.832846 -0.54052,-5.710496 -1.75782,-8.142578 -1.2173,-2.432083 -3.42181,-4.530574 -6.40234,-4.792969 -2.7692,-0.243785 -6.58579,1.470996 -7.93164,2.363281 -0.67292,0.446143 -9.23226,0.731842 -9.52539,0.804688 -0.29314,0.07285 -0.25184,0.10341 -0.5625,-0.09961 -0.61699,-0.403203 -1.06421,-1.06882 -1.38867,-2.263672 -0.32446,-1.194851 -0.44683,-2.835083 -0.41602,-4.671874 0.0616,-3.673583 0.71094,-8.068373 0.71094,-11.927735 -4.3e-4,-1.184087 -0.9585,-2.144777 -2.14258,-2.148437 l -1.44141,-0.0039 0.12891,1.826172 c -0.0795,-1.12802 -1.01957,-2.001461 -2.15039,-1.998047 l -20.70898,0.08398 z" />
    </g>
    <path
       inkscape:connector-curvature="0"
       style="fill:#f3b7d9;stroke:none;stroke-width:0.5"
       id="path123"
       d="m 124.91806,71.575291 c -0.0765,-5.17171 -1.93837,-10.45106 -6.19922,-10.82617 -3.22771,-0.28415 -15.91857,4.7454 -19.00781,2.72656 -4.65416,-3.04153 -2.06641,-13.45801 -2.06641,-20.66211 l -3.43945,-0.0098 -0.0117,-0.16601 -20.714845,0.08398 -22.7168,-0.08398 -0.01,0.16601 -3.44141,0.0098 c 0,7.2041 2.58776,17.62058 -2.06641,20.66211 -3.08923,2.01884 -13.7801,-3.01071 -17.00781,-2.72656 -4.26085,0.37511 -6.12272,5.65446 -6.19922,10.82617 -0.0766,5.18049 0.89384,8.4257 4.13282,10.16601 3.41449,1.83458 16.99857,-5.09523 19.40625,-2.31445 3.3197,3.83414 1.77577,14.06137 1.73437,21.455079 l 26.16797,-0.0449 24.166015,0.0449 c -0.0414,-7.393709 -1.58337,-17.620939 1.73633,-21.455079 2.40768,-2.78078 17.98981,4.14903 21.4043,2.31445 3.23899,-1.74031 4.20942,-4.98552 4.13281,-10.16601 z" />
  </g>
  <path
     d="M 1.0000002,1.0481243 H 11 V 7.1667684 H 1.0000002 Z"
     id="path137"
     inkscape:connector-curvature="0"
     style="fill:#e602b4;stroke-width:0.19958825" />
  <text
     style="font-size:5.35210228px;font-family:sans-serif;letter-spacing:0;word-spacing:0;fill:#f3b7d9;stroke-width:0.13380262;"
     x="1.8212854"
     y="6.0582876"
     id="text141">
    <tspan
       font-weight="600"
       letter-spacing="8.14620304"
       x="1.8212854"
       y="6.0582876"
       id="tspan139"
       style="font-weight:600;font-family:FreeSans;letter-spacing:1.01827538;fill:#f3b7d9;stroke-width:0.13380262;">AB</tspan>
  </text>
  <g
     id="g149"
     style="stroke-width:2;fill:#9d3a9b"
     transform="matrix(0.125,0,0,0.125,0.50000017,-2.9518757)">
    <path
       d="m 76,24 h 40 v 8 H 76 Z"
       id="path143"
       inkscape:connector-curvature="0"
       style="fill:#9d3a9b" />
    <path
       d="m 76,96.00006 h 40 v 7.99996 H 76 Z"
       id="path145"
       inkscape:connector-curvature="0"
       style="fill:#9d3a9b" />
    <path
       d="M 100,32 V 96 H 92 V 32 Z"
       id="path147"
       inkscape:connector-curvature="0"
       style="fill:#9d3a9b" />
  </g>
  <path
     inkscape:connector-curvature="0"
     style="fill:#f3b7d9;stroke:#9d3a9b;stroke-width:0.26621747;stroke-linejoin:bevel;stroke-miterlimit:4;stroke-dasharray:none"
     id="path1220"
     d="m 9.4216252,14.871471 c 0,0 1.5858578,-1.31964 2.3179558,-2.051738 0.732098,-0.732098 2.051738,-2.317955 2.051738,-2.317955 0,0 -2.817114,0.188216 -4.1814778,0.188216 0,1.364363 -0.188216,4.181477 -0.188216,4.181477 z" />
</svg>
