<?xml version="1.0" encoding="UTF-8" standalone="no"?>
<svg
   xmlns:dc="http://purl.org/dc/elements/1.1/"
   xmlns:cc="http://creativecommons.org/ns#"
   xmlns:rdf="http://www.w3.org/1999/02/22-rdf-syntax-ns#"
   xmlns:svg="http://www.w3.org/2000/svg"
   xmlns="http://www.w3.org/2000/svg"
   xmlns:xlink="http://www.w3.org/1999/xlink"
   xmlns:sodipodi="http://sodipodi.sourceforge.net/DTD/sodipodi-0.dtd"
   xmlns:inkscape="http://www.inkscape.org/namespaces/inkscape"
   height="16"
   width="16"
   version="1.1"
   id="svg403"
   sodipodi:docname="sc_saveasremote.svg"
   inkscape:version="0.92.4 (unknown)"
   inkscape:export-filename="/home/annisaauliarasyidah/Desktop/4_242 (aulia)/sc 222/sc_saveasremote.png"
   inkscape:export-xdpi="96"
   inkscape:export-ydpi="96">
  <metadata
     id="metadata409">
    <rdf:RDF>
      <cc:Work
         rdf:about="">
        <dc:format>image/svg+xml</dc:format>
        <dc:type
           rdf:resource="http://purl.org/dc/dcmitype/StillImage" />
      </cc:Work>
    </rdf:RDF>
  </metadata>
  <defs
     id="defs407">
    <filter
       id="u-3">
      <feGaussianBlur
         stdDeviation=".0231875"
         id="feGaussianBlur110" />
    </filter>
    <radialGradient
       id="x-3"
       cx="2435.4526"
       cy="-1290.9012"
       fx="2435.4968"
       fy="-1289.6638"
       gradientUnits="userSpaceOnUse"
       r="2.032932">
      <stop
         offset="0"
         stop-color="#fff"
         id="stop83" />
      <stop
         offset=".78260869"
         id="stop85" />
      <stop
         offset="1"
         id="stop87" />
    </radialGradient>
    <radialGradient
       id="y-6"
       cx="2435.4526"
       cy="-1290.9012"
       fx="2435.3201"
       fy="-1292.1829"
       gradientUnits="userSpaceOnUse"
       r="2.032932">
      <stop
         offset="0"
         stop-color="#fff"
         stop-opacity="0"
         id="stop90" />
      <stop
         offset=".71739131"
         stop-color="#fff"
         id="stop92" />
      <stop
         offset="1"
         stop-color="#fff"
         stop-opacity="0"
         id="stop94-7" />
    </radialGradient>
    <filter
       style="color-interpolation-filters:sRGB"
       id="R-5"
       height="1.62263"
       width="1.709918"
       x="-0.35495901"
       y="-0.311315">
      <feGaussianBlur
         stdDeviation=".22675612"
         id="feGaussianBlur167" />
    </filter>
    <linearGradient
       id="S-3"
       gradientTransform="matrix(-0.00593347,-0.00592274,-0.00197634,0.00197993,8.1966282,16.009397)"
       gradientUnits="userSpaceOnUse"
       x1="2205.9375"
       x2="2229.125"
       xlink:href="#A-5"
       y1="-1222.1377"
       y2="-1222.1377" />
    <linearGradient
       id="A-5">
      <stop
         offset="0"
         stop-color="#818181"
         id="stop98-6" />
      <stop
         offset=".16666667"
         stop-color="#fff"
         id="stop100" />
      <stop
         offset=".30087379"
         stop-color="#fafafa"
         id="stop102" />
      <stop
         offset=".41666666"
         stop-color="#d7d7d7"
         id="stop104" />
      <stop
         offset=".53107166"
         stop-color="#d5d5d5"
         id="stop106" />
      <stop
         offset=".65786362"
         stop-color="#c8c8c8"
         id="stop108" />
      <stop
         offset=".85640091"
         stop-color="#333"
         id="stop110" />
      <stop
         offset=".94971472"
         stop-color="#c1c1c1"
         id="stop112" />
      <stop
         offset="1"
         stop-color="#343434"
         id="stop114" />
    </linearGradient>
  </defs>
  <sodipodi:namedview
     pagecolor="#ffffff"
     bordercolor="#666666"
     borderopacity="1"
     objecttolerance="10"
     gridtolerance="10"
     guidetolerance="10"
     inkscape:pageopacity="0"
     inkscape:pageshadow="2"
     inkscape:window-width="1366"
     inkscape:window-height="707"
     id="namedview405"
     showgrid="true"
     inkscape:snap-global="false"
     inkscape:zoom="20.784725"
     inkscape:cx="3.5910353"
     inkscape:cy="8"
     inkscape:window-x="0"
     inkscape:window-y="0"
     inkscape:window-maximized="1"
     inkscape:current-layer="svg403">
    <inkscape:grid
       type="xygrid"
       id="grid1306" />
  </sodipodi:namedview>
  <linearGradient
     id="a"
     gradientTransform="matrix(0.17094551,0,0,0.00581312,0.610711,-12.6252)"
     gradientUnits="userSpaceOnUse"
     x1="38.033909"
     x2="48.341999"
     xlink:href="#b"
     y1="86.916695"
     y2="86.916695" />
  <linearGradient
     id="b"
     gradientUnits="userSpaceOnUse"
     x1="21"
     x2="107"
     y1="70.875"
     y2="70.875">
    <stop
       offset="0"
       stop-color="#2f2f2f"
       id="stop3" />
    <stop
       offset=".1224"
       stop-color="#b6b6b6"
       id="stop5" />
    <stop
       offset=".27856848"
       stop-color="#f3f3f3"
       id="stop7" />
    <stop
       offset=".47811708"
       stop-color="#cbcbcb"
       id="stop9" />
    <stop
       offset=".6568"
       stop-color="#fff"
       id="stop11" />
    <stop
       offset=".7202"
       stop-color="#f1f1f1"
       id="stop13" />
    <stop
       offset=".8387"
       stop-color="#bbb"
       id="stop15" />
    <stop
       offset="1"
       stop-color="#2f2f2f"
       id="stop17" />
  </linearGradient>
  <linearGradient
     id="c"
     gradientTransform="matrix(0,0.07020201,-0.07882608,0,16.507914,9.0601404)"
     gradientUnits="userSpaceOnUse"
     x1="46.05291"
     x2="78.560844"
     xlink:href="#d"
     y1="114.45502"
     y2="114.45502" />
  <linearGradient
     id="d">
    <stop
       offset="0"
       stop-color="#fff"
       id="stop21" />
    <stop
       offset="1"
       stop-color="#fff"
       stop-opacity="0"
       id="stop23" />
  </linearGradient>
  <linearGradient
     id="e"
     gradientTransform="matrix(0.15777917,0,0,0.11685943,-2.2291077,-1.144746)"
     gradientUnits="userSpaceOnUse"
     x1="66.740074"
     x2="70.104553"
     xlink:href="#f"
     y1="-85.311409"
     y2="-101.59357" />
  <linearGradient
     id="f">
    <stop
       offset="0"
       id="stop27" />
    <stop
       offset="1"
       stop-opacity="0"
       id="stop29" />
  </linearGradient>
  <mask
     id="g"
     maskUnits="userSpaceOnUse">
    <path
       d="m28 1032.3622h68v15h-68z"
       fill="#fff"
       filter="url(#h)"
       transform="matrix(.94117644 0 0 .94117643 3.647061 61.168402)"
       id="path32" />
  </mask>
  <filter
     id="h"
     color-interpolation-filters="sRGB"
     height="1.82305"
     width="1.181555"
     x="-.090778"
     y="-.411525">
    <feGaussianBlur
       stdDeviation="2.5720304"
       id="feGaussianBlur35" />
  </filter>
  <linearGradient
     id="i"
     gradientTransform="matrix(0.72077518,0,0,0.06279784,-1070.0129,-31.846871)"
     gradientUnits="userSpaceOnUse"
     x1="38.357395"
     x2="48.092773"
     xlink:href="#b"
     y1="86.916695"
     y2="86.916695" />
  <linearGradient
     id="j"
     gradientTransform="matrix(0.87424043,0,0,0.56484235,5.913597,971.67911)"
     gradientUnits="userSpaceOnUse"
     x1="46.449074"
     x2="47.910881"
     xlink:href="#k"
     y1="132.17882"
     y2="114.82433" />
  <linearGradient
     id="k">
    <stop
       offset="0"
       stop-color="#1f1f1f"
       id="stop40" />
    <stop
       offset="1"
       stop-color="#1f1f1f"
       stop-opacity="0"
       id="stop42" />
  </linearGradient>
  <linearGradient
     id="l"
     gradientTransform="matrix(0.68427848,0,0,0.46013134,-7.513011,985.14644)"
     gradientUnits="userSpaceOnUse"
     x1="46.05291"
     x2="78.560844"
     xlink:href="#d"
     y1="114.45502"
     y2="114.45502" />
  <linearGradient
     id="m"
     gradientTransform="matrix(0.87424043,0,0,0.56484235,9.362418,971.22724)"
     gradientUnits="userSpaceOnUse"
     x1="49.834194"
     x2="46.901009"
     xlink:href="#k"
     y1="119.69429"
     y2="119.69429" />
  <linearGradient
     id="n"
     gradientTransform="matrix(0.72077518,0,0,0.06279784,-1070.0129,-77.611743)"
     gradientUnits="userSpaceOnUse"
     x1="38.357395"
     x2="48.092773"
     xlink:href="#b"
     y1="86.916695"
     y2="86.916695" />
  <linearGradient
     id="o"
     gradientTransform="matrix(0.68427848,0,0,0.46013134,46.180455,985.14644)"
     gradientUnits="userSpaceOnUse"
     x1="46.05291"
     x2="78.560844"
     xlink:href="#d"
     y1="114.45502"
     y2="114.45502" />
  <filter
     id="p"
     color-interpolation-filters="sRGB"
     height="1.518766"
     width="1.043604"
     x="-.021802"
     y="-.259383">
    <feGaussianBlur
       stdDeviation=".20207452"
       id="feGaussianBlur49" />
  </filter>
  <linearGradient
     id="q"
     gradientTransform="matrix(0.56484235,0,0,0.87424043,-971.67911,-6.032468)"
     gradientUnits="userSpaceOnUse"
     x1="-112.72134"
     x2="-112.72134"
     xlink:href="#f"
     y1="-110.7662"
     y2="-105.82124" />
  <linearGradient
     id="r"
     gradientTransform="matrix(0.56484235,0,0,0.87424043,-971.22724,0.206087)"
     gradientUnits="userSpaceOnUse"
     x1="-120.916"
     x2="-121.06381"
     xlink:href="#d"
     y1="-116.70495"
     y2="-111.31748" />
  <linearGradient
     id="s"
     gradientTransform="matrix(0.56484235,0,0,0.87424043,-971.22724,-10.284799)"
     gradientUnits="userSpaceOnUse"
     x1="-117.58483"
     x2="-117.58483"
     y1="-13.913545"
     y2="-16.792545">
    <stop
       offset="0"
       stop-color="#2b2b2b"
       id="stop54" />
    <stop
       offset="1"
       stop-color="#2b2b2b"
       stop-opacity="0"
       id="stop56" />
  </linearGradient>
  <linearGradient
     id="t"
     gradientTransform="matrix(0.20895475,0,0,0.01237908,-24.059142,-6.6302906)"
     gradientUnits="userSpaceOnUse"
     x1="38.357395"
     x2="48.092773"
     y1="86.916695"
     y2="86.916695">
    <stop
       offset="0"
       stop-color="#303030"
       id="stop59" />
    <stop
       offset=".18975452"
       stop-color="#7e7e7e"
       id="stop61" />
    <stop
       offset=".37950903"
       stop-color="#9e9e9e"
       id="stop63" />
    <stop
       offset=".75901806"
       stop-color="#dedede"
       id="stop65" />
    <stop
       offset=".93379617"
       stop-color="#8d8d8d"
       id="stop67" />
    <stop
       offset="1"
       stop-color="#2f2f2f"
       id="stop69" />
  </linearGradient>
  <linearGradient
     id="u"
     gradientTransform="matrix(0.11933359,0,0,0.17233542,-0.76107325,3.1980806)"
     gradientUnits="userSpaceOnUse"
     x1="-116.85363"
     x2="-116.7804"
     xlink:href="#d"
     y1="-83.868286"
     y2="-80.228065" />
  <radialGradient
     id="v"
     cx="64.709709"
     cy="105.81721"
     gradientTransform="matrix(0.25331001,-0.00106115,4.3439e-4,0.04971974,-8.4742535,8.9853746)"
     gradientUnits="userSpaceOnUse"
     r="12.247135">
    <stop
       offset="0"
       stop-color="#87b7ff"
       stop-opacity="0"
       id="stop73" />
    <stop
       offset=".40384614"
       stop-color="#87b7ff"
       stop-opacity="0"
       id="stop75" />
    <stop
       offset=".40384614"
       stop-color="#87b7ff"
       stop-opacity=".498039"
       id="stop77" />
    <stop
       offset="1"
       stop-color="#87b7ff"
       stop-opacity="0"
       id="stop79" />
  </radialGradient>
  <linearGradient
     id="w"
     gradientTransform="matrix(1.1657281,0,0,0.7916667,-7.512541,23.013579)"
     gradientUnits="userSpaceOnUse"
     x1="46.05291"
     x2="78.560844"
     xlink:href="#d"
     y1="114.45502"
     y2="114.45502" />
  <filter
     id="x"
     color-interpolation-filters="sRGB"
     height="1.229753"
     width="1.019504"
     x="-.009752"
     y="-.114876">
    <feGaussianBlur
       stdDeviation=".15397884"
       id="feGaussianBlur83" />
  </filter>
  <linearGradient
     id="y"
     gradientTransform="matrix(1.1657281,0,0,0.2916667,-7.512541,90.061194)"
     gradientUnits="userSpaceOnUse"
     x1="46.05291"
     x2="78.560844"
     xlink:href="#d"
     y1="114.45502"
     y2="114.45502" />
  <filter
     id="z"
     color-interpolation-filters="sRGB"
     height="1.592796"
     width="1.01854"
     x="-.00927"
     y="-.296398">
    <feGaussianBlur
       stdDeviation=".14636931"
       id="feGaussianBlur87" />
  </filter>
  <linearGradient
     id="A"
     gradientTransform="matrix(0.1239437,0,0,0.16640802,-0.30690213,-157.82195)"
     gradientUnits="userSpaceOnUse"
     x1="51"
     x2="53"
     xlink:href="#f"
     y1="1038.8622"
     y2="1038.8622" />
  <linearGradient
     id="B"
     gradientTransform="matrix(0.24788741,0,0,0.16640802,-7.1238067,-4.000655)"
     gradientUnits="userSpaceOnUse"
     x1="50.796974"
     x2="53.194843"
     xlink:href="#b"
     y1="114.5"
     y2="114.5" />
  <linearGradient
     id="C"
     gradientTransform="matrix(0.1239437,0,0,0.16640802,4.1550716,-157.82195)"
     gradientUnits="userSpaceOnUse"
     x1="51"
     x2="53"
     xlink:href="#f"
     y1="1038.8622"
     y2="1038.8622" />
  <linearGradient
     id="D"
     gradientTransform="matrix(0.24788741,0,0,0.16640802,-2.4139422,-4.000655)"
     gradientUnits="userSpaceOnUse"
     x1="49.79678"
     x2="52.3125"
     xlink:href="#b"
     y1="114.5"
     y2="114.5" />
  <radialGradient
     id="E"
     cx="2435.4526"
     cy="-1290.9012"
     fx="2435.4968"
     fy="-1289.6638"
     gradientUnits="userSpaceOnUse"
     r="2.032932">
    <stop
       offset="0"
       stop-color="#fff"
       id="stop94" />
    <stop
       offset=".78260869"
       id="stop96" />
    <stop
       offset="1"
       id="stop98" />
  </radialGradient>
  <radialGradient
     id="F"
     cx="2435.4526"
     cy="-1290.9012"
     fx="2435.3201"
     fy="-1292.1829"
     gradientUnits="userSpaceOnUse"
     r="2.032932">
    <stop
       offset="0"
       stop-color="#fff"
       stop-opacity="0"
       id="stop101" />
    <stop
       offset=".71739131"
       stop-color="#fff"
       id="stop103" />
    <stop
       offset="1"
       stop-color="#fff"
       stop-opacity="0"
       id="stop105" />
  </radialGradient>
  <clipPath
     id="G">
    <path
       d="m2293.5055-1105.5521c-1.4712 14.3773 2.3108 28.8372 9.7339 39.8676h4.5462c7.4231-11.0304 11.2051-25.4903 9.7339-39.8676-5.89-4.6401-18.318-4.887-24.014 0z"
       id="path108" />
  </clipPath>
  <filter
     id="H"
     color-interpolation-filters="sRGB"
     height="1.099961"
     width="1.251677"
     x="-.125838"
     y="-.04998">
    <feGaussianBlur
       stdDeviation=".98477853"
       id="feGaussianBlur111" />
  </filter>
  <filter
     id="I"
     color-interpolation-filters="sRGB">
    <feGaussianBlur
       stdDeviation=".45592848"
       id="feGaussianBlur114" />
  </filter>
  <clipPath
     id="J">
    <path
       d="m2324.2623-1105.5521c-1.4712 14.3773 2.3108 28.8372 9.7339 39.8676h4.5462c7.4231-11.0304 11.2051-25.4903 9.7339-39.8676-5.89-4.6401-18.318-4.887-24.014 0z"
       id="path117" />
  </clipPath>
  <filter
     id="K"
     color-interpolation-filters="sRGB"
     height="1.051712"
     width="1.23169"
     x="-.115845"
     y="-.025856">
    <feGaussianBlur
       stdDeviation=".56878871"
       id="feGaussianBlur120" />
  </filter>
  <clipPath
     id="L">
    <path
       d="m2410.6562-1125.5312-.125 20.4062h.125v-.1875c2.1955-2.1403 6.6911-3.5937 11.875-3.5937 5.1841 0 9.6796 1.4533 11.875 3.5937v.1875h.125l-.125-20.4062z"
       id="path123" />
  </clipPath>
  <filter
     id="M"
     color-interpolation-filters="sRGB"
     height="1.739168"
     width="1.157863"
     x="-.078931"
     y="-.369584">
    <feGaussianBlur
       stdDeviation=".81808943"
       id="feGaussianBlur126" />
  </filter>
  <filter
     id="N"
     color-interpolation-filters="sRGB">
    <feGaussianBlur
       stdDeviation=".068662208"
       id="feGaussianBlur129" />
  </filter>
  <radialGradient
     id="O"
     cx="2227.7837"
     cy="-1254.6573"
     gradientTransform="matrix(-.84820576 .00076791 -.00528077 -5.8329386 1928.0936 -6785.0413)"
     gradientUnits="userSpaceOnUse"
     r="4.762933">
    <stop
       offset="0"
       stop-color="#5b5b5b"
       id="stop132" />
    <stop
       offset="1"
       stop-color="#202020"
       id="stop134" />
  </radialGradient>
  <clipPath
     id="P">
    <path
       d="m2280.8997-1313.6542c0-7.6699 16.7006-8.0051 16.7006 0l.7591 26.4365h-18.2188z"
       id="path137" />
  </clipPath>
  <filter
     id="Q"
     color-interpolation-filters="sRGB">
    <feGaussianBlur
       stdDeviation=".36237121"
       id="feGaussianBlur140" />
  </filter>
  <filter
     id="R"
     color-interpolation-filters="sRGB"
     height="1.042192"
     width="1.519834"
     x="-.259917"
     y="-.021096">
    <feGaussianBlur
       stdDeviation=".27727194"
       id="feGaussianBlur143" />
  </filter>
  <filter
     id="S"
     color-interpolation-filters="sRGB"
     height="1.62263"
     width="1.709918"
     x="-.354959"
     y="-.311315">
    <feGaussianBlur
       stdDeviation=".22675612"
       id="feGaussianBlur146" />
  </filter>
  <filter
     id="T"
     color-interpolation-filters="sRGB">
    <feGaussianBlur
       stdDeviation=".34076924"
       id="feGaussianBlur149" />
  </filter>
  <linearGradient
     id="U"
     gradientTransform="matrix(-.61263654 .00055464 -.00052416 -.5789688 1391.3532 -171.63775)"
     gradientUnits="userSpaceOnUse"
     x1="2205.9375"
     x2="2229.125"
     xlink:href="#aq"
     y1="-1222.1377"
     y2="-1222.1377" />
  <linearGradient
     id="V"
     gradientTransform="matrix(2.5599786 0 0 2.5618328 317.24891 -4847.794)"
     gradientUnits="userSpaceOnUse"
     x1="-97.742668"
     x2="-97.742668"
     y1="1937.9885"
     y2="1895.421">
    <stop
       offset="0"
       stop-color="#141313"
       id="stop153" />
    <stop
       offset=".33497536"
       stop-color="#2b292a"
       id="stop155" />
    <stop
       offset=".63281107"
       stop-color="#3f3e3e"
       id="stop157" />
    <stop
       offset="1"
       stop-color="#6b696a"
       id="stop159" />
  </linearGradient>
  <radialGradient
     id="W"
     cx="100.16534"
     cy="37.468983"
     gradientTransform="matrix(4.8110826 .00000075 -.00000031 1.9257147 -441.90372 -88.154647)"
     gradientUnits="userSpaceOnUse"
     r="38">
    <stop
       offset="0"
       stop-color="#d0ced9"
       id="stop162" />
    <stop
       offset=".25"
       stop-color="#ecf1f9"
       id="stop164" />
    <stop
       offset=".5"
       stop-color="#fff"
       id="stop166" />
    <stop
       offset="1"
       stop-color="#c6d5e3"
       id="stop168" />
  </radialGradient>
  <filter
     id="X"
     height="1.240511"
     width="1.138013"
     x="-.069006"
     y="-.120256">
    <feGaussianBlur
       stdDeviation="1.9228365"
       id="feGaussianBlur171" />
  </filter>
  <radialGradient
     id="Y"
     cx="84"
     cy="91.983192"
     gradientTransform="matrix(1 0 0 .6210279 0 37.87587)"
     gradientUnits="userSpaceOnUse"
     r="32"
     xlink:href="#d" />
  <linearGradient
     id="Z"
     gradientUnits="userSpaceOnUse"
     x1="47.608696"
     x2="47.608696"
     xlink:href="#f"
     y1="104.35009"
     y2="176.35008" />
  <linearGradient
     id="aa"
     gradientUnits="userSpaceOnUse"
     x1="89.604726"
     x2="114.175"
     xlink:href="#d"
     y1="42.336197"
     y2="106.7981" />
  <filter
     id="ab">
    <feGaussianBlur
       stdDeviation=".0231875"
       id="feGaussianBlur177" />
  </filter>
  <clipPath
     id="ac">
    <path
       d="m18.189713 132.42089c-1.419208 0-2.5625 1.1433-2.5625 2.5625v37.18328h72.000002v-37.18328c0-1.4192-1.14329-2.5625-2.5625-2.5625z"
       id="path180" />
  </clipPath>
  <linearGradient
     id="ad"
     gradientTransform="matrix(1 0 0 .9968924 0 -.225228)"
     gradientUnits="userSpaceOnUse"
     x1="52"
     x2="52"
     y1="112"
     y2="80">
    <stop
       offset="0"
       stop-color="#8a8a8a"
       id="stop183" />
    <stop
       offset="1"
       stop-color="#c6c6c6"
       id="stop185" />
  </linearGradient>
  <filter
     id="ae"
     height="1.185769"
     width="1.247692"
     x="-.123846"
     y="-.092885">
    <feGaussianBlur
       stdDeviation="1.2384615"
       id="feGaussianBlur188" />
  </filter>
  <linearGradient
     id="af"
     gradientUnits="userSpaceOnUse"
     x1="68"
     x2="36"
     xlink:href="#f"
     y1="120"
     y2="84" />
  <linearGradient
     id="ag"
     gradientUnits="userSpaceOnUse"
     x1="87.693916"
     x2="91.051781"
     xlink:href="#f"
     y1="100.83184"
     y2="100.83184" />
  <filter
     id="ah"
     height="1.045223"
     width="1.50979"
     x="-.254895"
     y="-.022612">
    <feGaussianBlur
       stdDeviation=".35662617"
       id="feGaussianBlur193" />
  </filter>
  <filter
     id="ai"
     height="1.203077"
     width="1.293333"
     x="-.146667"
     y="-.101538">
    <feGaussianBlur
       stdDeviation=".55"
       id="feGaussianBlur196" />
  </filter>
  <clipPath
     id="aj">
    <rect
       height="12"
       rx="1.079258"
       width="8"
       x="12"
       y="12"
       id="rect199" />
  </clipPath>
  <clipPath
     id="ak">
    <rect
       height="12"
       rx="1.079258"
       width="8"
       x="12"
       y="12"
       id="rect202" />
  </clipPath>
  <filter
     id="al">
    <feGaussianBlur
       stdDeviation=".04177847"
       id="feGaussianBlur205" />
  </filter>
  <radialGradient
     id="am"
     cx="16"
     cy="18"
     gradientTransform="matrix(1 0 0 1.5 0 -9)"
     gradientUnits="userSpaceOnUse"
     r="4">
    <stop
       offset="0"
       stop-color="#7a7a7a"
       id="stop208" />
    <stop
       offset="1"
       stop-opacity=".490909"
       id="stop210" />
  </radialGradient>
  <linearGradient
     id="an"
     gradientUnits="userSpaceOnUse"
     x1="16"
     x2="16"
     xlink:href="#f"
     y1="1.595278"
     y2="18.75548" />
  <radialGradient
     id="ao"
     cx="16.03512"
     cy="19.49425"
     fy="18.539073"
     gradientUnits="userSpaceOnUse"
     r="2.378519">
    <stop
       offset="0"
       stop-color="#868385"
       id="stop214" />
    <stop
       offset="1"
       stop-color="#4a4949"
       id="stop216" />
  </radialGradient>
  <linearGradient
     id="ap"
     gradientUnits="userSpaceOnUse"
     x1="13.731525"
     x2="13.731525"
     y1="17.127984"
     y2="19.868869">
    <stop
       offset="0"
       stop-color="#fff"
       id="stop219" />
    <stop
       offset="1"
       id="stop221" />
  </linearGradient>
  <linearGradient
     id="aq">
    <stop
       offset="0"
       stop-color="#818181"
       id="stop224" />
    <stop
       offset=".16666667"
       stop-color="#fff"
       id="stop226" />
    <stop
       offset=".30087379"
       stop-color="#fafafa"
       id="stop228" />
    <stop
       offset=".41666666"
       stop-color="#d7d7d7"
       id="stop230" />
    <stop
       offset=".53107166"
       stop-color="#d5d5d5"
       id="stop232" />
    <stop
       offset=".65786362"
       stop-color="#c8c8c8"
       id="stop234" />
    <stop
       offset=".85640091"
       stop-color="#333"
       id="stop236" />
    <stop
       offset=".94971472"
       stop-color="#c1c1c1"
       id="stop238" />
    <stop
       offset="1"
       stop-color="#343434"
       id="stop240" />
  </linearGradient>
  <linearGradient
     id="ar"
     gradientTransform="matrix(-.80703784 .00073064 -.00063737 -.70401858 1841.6543 -340.66945)"
     gradientUnits="userSpaceOnUse"
     x1="2243.146"
     x2="2242.3975"
     y1="-1322.632"
     y2="-1315.5718">
    <stop
       offset="0"
       stop-color="#181818"
       id="stop243" />
    <stop
       offset="1"
       stop-color="#181818"
       stop-opacity="0"
       id="stop245" />
  </linearGradient>
  <linearGradient
     id="as"
     gradientTransform="matrix(-.80703784 .00073064 -.00063737 -.70401858 1841.4045 -340.76257)"
     gradientUnits="userSpaceOnUse"
     x1="2237.4534"
     x2="2242.2593"
     y1="-1316.2021"
     y2="-1318.9421">
    <stop
       offset="0"
       stop-color="#fdfdfd"
       id="stop248" />
    <stop
       offset="1"
       stop-color="#fdfdfd"
       stop-opacity="0"
       id="stop250" />
  </linearGradient>
  <linearGradient
     id="at"
     gradientTransform="matrix(-.84820576 .00076791 -.0008319 -.91888955 1913.305 -634.46117)"
     gradientUnits="userSpaceOnUse"
     x1="2205.9375"
     x2="2229.125"
     xlink:href="#aq"
     y1="-1222.1377"
     y2="-1222.1377" />
  <linearGradient
     id="au"
     gradientUnits="userSpaceOnUse"
     x1="2229.0273"
     x2="2231.1499"
     xlink:href="#d"
     y1="-1270.7157"
     y2="-1270.7157" />
  <linearGradient
     id="av"
     gradientTransform="matrix(-.08942515 .00008096 .00002702 .02984004 231.55784 414.28718)"
     gradientUnits="userSpaceOnUse"
     x1="2205.9375"
     x2="2229.125"
     xlink:href="#aq"
     y1="-1222.1377"
     y2="-1222.1377" />
  <linearGradient
     id="aw"
     gradientTransform="matrix(-1.2624036 .0011429 -.0011429 -1.2624036 2861.8332 -968.64171)"
     gradientUnits="userSpaceOnUse"
     x1="2242.4668"
     x2="2242.4668"
     xlink:href="#f"
     y1="-1066.5438"
     y2="-1065.2577" />
  <rect
     style="fill:url(#a);stroke-width:0.125"
     id="rect257"
     y="-14.859606"
     x="6.9955344"
     width="1.9959265"
     transform="scale(1,-1)"
     ry="0.008442875"
     rx="0.17315625"
     height="2.9565928" />
  <path
     inkscape:connector-curvature="0"
     style="fill:url(#c);stroke-width:0.125"
     id="path259"
     d="m 7.6460271,12.293154 v 2.282124 H 7.325718 v -2.282124 z" />
  <rect
     style="fill:#e602b4;stroke-width:0.125"
     id="rect261"
     y="-14.859606"
     x="6.9955344"
     width="1.9959239"
     transform="scale(1,-1)"
     ry="0.008442875"
     rx="0.17315625"
     height="2.956506" />
  <g
     id="g281"
     transform="matrix(0.20779701,0,0,0.14746921,-4.9128611,-138.68156)"
     mask="url(#g)"
     style="fill:#e602b4">
    <rect
       style="fill:#e602b4"
       id="rect263"
       y="-54.235111"
       x="-1042.366"
       width="7.017025"
       transform="matrix(0,-1,-1,0,0,0)"
       ry="0.85318899"
       rx="0.53440899"
       height="30.267452" />
    <path
       inkscape:connector-curvature="0"
       style="opacity:0.27458999;fill:#e602b4"
       id="path265"
       d="m 45.669681,1035.3545 c -0.752454,3.1356 -2.990206,5.7036 -7.868164,7.0076 h 14.94619 c 0.642263,0 1.174761,-0.3264 1.174761,-0.7414 v -5.5248 c 0,-0.415 -0.532498,-0.7414 -1.174761,-0.7414 z" />
    <path
       inkscape:connector-curvature="0"
       style="fill:#e602b4"
       id="path267"
       d="m 24,1036.3622 h 22 v 2 H 24 Z" />
    <rect
       style="fill:#e602b4"
       id="rect269"
       y="1035.3276"
       x="50.365177"
       width="1.177488"
       ry="0"
       rx="9.5983782"
       height="7.015986" />
    <rect
       style="fill:#e602b4"
       id="rect271"
       y="-100"
       x="-1042.366"
       width="7.017025"
       transform="matrix(0,-1,-1,0,0,0)"
       ry="1.099292"
       rx="0.707802"
       height="30.267452"
       inkscape:transform-center-x="-0.14433677"
       inkscape:transform-center-y="3.4159701" />
    <rect
       style="fill:#e602b4"
       id="rect279"
       y="-30.266687"
       x="-1042.366"
       width="7.017025"
       transform="matrix(0,-1,-1,0,0,0)"
       ry="1.159319"
       rx="0.72615802"
       height="6.2990332" />
  </g>
  <rect
     style="fill:#9d3a9b;stroke-width:0.125"
     id="rect283"
     y="-10.971974"
     x="-15.968325"
     width="1.9968891"
     transform="matrix(0,-1,-1,0,0,0)"
     ry="0.28984949"
     rx="0.20519388"
     height="5.9492974" />
  <rect
     style="opacity:0.537143;fill:#e602b4;stroke-width:0.125"
     id="rect295"
     y="13.971435"
     x="5.5184522"
     width="0.49577475"
     ry="0.083204001"
     rx="0.123943"
     height="1.9968963" />
  <rect
     style="opacity:0.537143;fill:#e602b4;stroke-width:0.125"
     id="rect299"
     y="13.971435"
     x="9.9804258"
     width="0.49577376"
     ry="0.083204001"
     rx="0.12394375"
     height="1.9968874" />
  <g
     transform="matrix(1.3323497,0,0,1.3111608,-6.4437475,-8.1365327)"
     id="g1066"
     style="stroke-width:0.756594">
    <path
       inkscape:connector-curvature="0"
       style="fill:#f3b7d9;stroke:#9d3a9b;stroke-width:0.1891485;stroke-linejoin:bevel;stroke-miterlimit:4;stroke-dasharray:none"
       id="path98"
       d="M 8.8232502,13.92675 C 8.8232502,13.92675 10.3125,12.6875 11,12 11.6875,11.3125 12.92675,9.82325 12.92675,9.82325 12.92675,9.82325 10.28125,10 9,10 9,11.28125 8.8232502,13.92675 8.8232502,13.92675 Z" />
    <path
       d="m 6.6661557,6.5917263 c -0.1451005,0 -0.2696302,0.1293434 -0.2695548,0.2647305 l -0.028454,7.8782012 0.8535718,0.847758 h 7.8617543 c 0.236933,0 0.269533,-0.02763 0.269533,-0.264711 l 0.02845,-8.4612482 c 0,-0.144266 -0.124991,-0.2647305 -0.269534,-0.2647305 z"
       style="opacity:1;fill:#f3b7d9;fill-opacity:1;stroke:#e602b4;stroke-width:0.74348319;stroke-linecap:round;stroke-linejoin:round;stroke-dashoffset:1.08780003;stroke-opacity:1"
       id="path206"
       inkscape:connector-curvature="0" />
    <rect
       height="4.5"
       rx="0.11581321"
       ry="0.11409751"
       width="5.9999995"
       x="7.978168"
       y="6.5529509"
       id="rect208"
       style="fill:#e602b4;stroke:#9d3a9b;stroke-width:0.378297;stroke-miterlimit:4;stroke-dasharray:none" />
    <path
       d="m 112.08021,93.783789 v 6.718751 h -1.21875 -1.03125 l 4.34375,7.53125 4.34375,-7.53125 h -1.03125 -1.21875 v -6.718751 h -2.09375 z"
       style="opacity:1;fill:#f0e3ec;fill-rule:evenodd;stroke:#9d3a9b;stroke-width:2.11187458;stroke-miterlimit:4;stroke-dasharray:none;filter:url(#u-3)"
       transform="matrix(0.08080922,0,0,0.09926784,5.6729714,4.6045477)"
       id="path218"
       inkscape:connector-curvature="0" />
    <path
       d="m 8.978164,12.552953 c -0.10492,0 -0.122119,0.143345 -0.122119,0.247939 l -0.04878,3.252061 4.670903,-10e-7 v -3.499999 c 0,-0.104594 0.10492,0 0,0 z m 0.5,0.5 h 1 c 0.0463,0 0,-0.04616 0,0 v 2.000001 c 0,0.04616 0.0463,0 0,0 h -1 c -0.0463,0 0,0.04616 0,0 v -2.000001 c 0,-0.04616 -0.0463,0 0,0 z"
       id="path222"
       style="fill:#f0e3ec;stroke:#9d3a9b;stroke-width:0.1891485;stroke-miterlimit:4;stroke-dasharray:none"
       inkscape:connector-curvature="0" />
  </g>
  <g
     id="g1344"
     transform="translate(16.887402,1.1065819)">
    <g
       id="g221"
       transform="matrix(-0.01093773,-0.01091794,0.01091794,-0.01093773,38.360114,12.759699)">
      <circle
         style="fill:url(#x-3)"
         id="circle217"
         r="2.032932"
         cy="-1290.9012"
         cx="2435.4526" />
      <circle
         style="fill:url(#y-6)"
         id="circle219"
         r="2.032932"
         cy="-1290.9012"
         cx="2435.4526" />
    </g>
    <path
       inkscape:connector-curvature="0"
       style="fill:#9d3a9b;stroke-width:0.09375"
       id="path223"
       d="m -15.854801,14.697451 c -0.357632,0.358282 -1.267538,-0.518721 -0.894276,-0.89266 l 1.192029,-1.275491 0.975576,0.973814 z" />
    <path
       inkscape:connector-curvature="0"
       style="fill:#f3b7d9;stroke:#9d3a9b;stroke-width:0.09375"
       id="path231"
       d="m -15.272884,13.21961 c 0.270601,0.270071 0.580818,0.427099 0.806922,0.429767 l 10.2806252,-10.1866977 -0.007,-0.00702 -0.01053,0.010553 C -4.4466992,3.4633323 -4.7813572,3.2925762 -5.0731102,3.0013508 -5.3648652,2.7101267 -5.5362312,2.3757821 -5.5395442,2.1319891 l 0.01053,-0.010553 -0.007,-0.00702 -10.1680978,10.2990519 c 0.0031,0.226098 0.160647,0.53605 0.431228,0.806142 z" />
    <path
       style="opacity:0.80274;stroke-width:0.09375"
       inkscape:connector-curvature="0"
       id="path233"
       d="m -15.231281,13.181443 c 0.274649,0.27412 0.589483,0.433491 0.818954,0.436196 l 0.04455,-0.04464 c -0.229477,-0.0027 -0.544339,-0.162038 -0.818966,-0.43618 -0.274633,-0.274102 -0.43454,-0.588692 -0.437666,-0.818175 l -0.04455,0.04464 c 0.0031,0.229477 0.163061,0.544044 0.437677,0.818163 z" />
    <path
       style="opacity:0.80274;fill:#ffffff;fill-opacity:0.50304901;stroke-width:0.09375"
       inkscape:connector-curvature="0"
       id="path235"
       d="m -15.191373,13.141463 c 0.27465,0.274119 0.589489,0.433484 0.818966,0.436183 l 0.04454,-0.04462 c -0.229471,-0.0027 -0.544338,-0.162046 -0.81896,-0.436193 -0.274633,-0.274103 -0.43454,-0.588692 -0.437671,-0.81817 l -0.04454,0.04462 c 0.0031,0.229483 0.16305,0.544056 0.437666,0.818175 z" />
    <path
       style="fill:#9d3a9b;fill-rule:evenodd;stroke-width:0.09375"
       inkscape:connector-curvature="0"
       id="path237"
       d="m -4.2100228,3.4860254 c 0.890483,-0.7264992 1.489958,-1.7527594 1.691852,-2.79055814 l -0.255892,-0.2553614 c -1.037431,0.203773 -2.0626044,0.80510504 -2.7874904,1.69690144 0.07082,0.5920298 0.756388,1.304102 1.3514944,1.3490546 z" />
    <ellipse
       style="stroke-width:0.09375"
       id="ellipse239"
       transform="rotate(-135.05187)"
       ry="0.067094438"
       rx="0.17767604"
       cy="-2.272476"
       cx="1.4818158" />
    <path
       inkscape:connector-curvature="0"
       style="fill:#9d3a9b;fill-rule:evenodd;stroke-width:0.09375"
       id="path253"
       d="m -14.811266,13.446581 c 0.08172,0.02592 0.107982,0.03843 0.193642,0.06478 0.02568,0.0079 0.119436,0.0127 0.190964,-0.04934 1.535935,-1.331981 2.921162,-3.263222 3.516788,-3.311865 0.123694,-0.0101 0.253086,-0.0051 0.179314,0.09472 -1.149918,1.555528 -3.06022,3.095854 -3.394615,3.391087 -0.04914,0.04337 -0.148612,0.03074 -0.20491,0.01696 -0.176856,-0.0433 -0.342045,-0.11876 -0.481172,-0.206334 z" />
    <ellipse
       style="fill:#ffffff;filter:url(#R-5)"
       id="ellipse259"
       transform="matrix(-0.01773058,-0.07751741,0.07751741,-0.01773058,123.58609,161.32151)"
       ry="0.9375"
       rx="0.6875"
       cy="-1225.3253"
       cx="2229.25" />
    <path
       inkscape:connector-curvature="0"
       style="fill:url(#S-3);stroke-width:0.09375"
       id="path261"
       d="m -2.3519158,0.31502546 -0.0913,0.1809024 -0.180385,0.1807159 -7.31e-4,-7.305e-4 5.29e-4,-5.308e-4 c -0.01954,-0.015004 -0.04476,-0.034463 -0.0758,-0.064875 -0.03282,-0.032757 -0.04982,-0.053775 -0.06512,-0.075796 l -5.3e-4,5.309e-4 -7.32e-4,-7.306e-4 0.187705,-0.188049 0.180262,-0.075627 c 0.01385,0.0072 0.03884,0.034381 0.0461,0.044215 z" />
    <path
       style="stroke-width:0.09375"
       inkscape:connector-curvature="0"
       id="path263"
       d="m -2.7075838,0.61276296 c 0.06941,0.06929 0.147858,0.1051322 0.174025,0.078917 0.01962,-0.019659 0.0027,-0.067196 -0.03525,-0.1194542 0.02569,0.03901 0.0343,0.074686 0.01941,0.089599 -0.02174,0.021758 -0.08475,-0.00735 -0.142391,-0.064888 -0.05765,-0.057543 -0.08688,-0.1205038 -0.06515,-0.142273 0.01489,-0.014914 0.05058,-0.00637 0.08963,0.019251 -0.05233,-0.03784 -0.09814,-0.05294 -0.117762,-0.033282 -0.02617,0.026215 0.0081,0.1028403 0.07748,0.1721297 z" />
    <path
       inkscape:connector-curvature="0"
       style="fill:#f0e3ec;stroke-width:0.09375"
       id="path265-2"
       d="m -2.3519158,0.31502546 -0.0913,0.1809024 -0.180385,0.1807159 -7.31e-4,-7.305e-4 5.29e-4,-5.308e-4 c -0.01954,-0.015004 -0.04476,-0.034463 -0.0758,-0.064875 -0.03282,-0.032757 -0.04982,-0.053775 -0.06512,-0.075796 l -5.3e-4,5.309e-4 -7.32e-4,-7.306e-4 0.187705,-0.188049 0.180262,-0.075627 c 0.01385,0.0072 0.03884,0.034381 0.0461,0.044215 z" />
  </g>
</svg>
