<?xml version="1.0" encoding="UTF-8" standalone="no"?>
<svg
   xmlns:dc="http://purl.org/dc/elements/1.1/"
   xmlns:cc="http://creativecommons.org/ns#"
   xmlns:rdf="http://www.w3.org/1999/02/22-rdf-syntax-ns#"
   xmlns:svg="http://www.w3.org/2000/svg"
   xmlns="http://www.w3.org/2000/svg"
   xmlns:xlink="http://www.w3.org/1999/xlink"
   xmlns:sodipodi="http://sodipodi.sourceforge.net/DTD/sodipodi-0.dtd"
   xmlns:inkscape="http://www.inkscape.org/namespaces/inkscape"
   height="16"
   width="16"
   version="1.1"
   id="svg122"
   sodipodi:docname="sc_saveall.svg"
   inkscape:version="0.92.4 (unknown)"
   inkscape:export-filename="/home/annisaauliarasyidah/Desktop/4_242 (aulia)/sc 222/sc_saveall.png"
   inkscape:export-xdpi="96"
   inkscape:export-ydpi="96">
  <metadata
     id="metadata128">
    <rdf:RDF>
      <cc:Work
         rdf:about="">
        <dc:format>image/svg+xml</dc:format>
        <dc:type
           rdf:resource="http://purl.org/dc/dcmitype/StillImage" />
      </cc:Work>
    </rdf:RDF>
  </metadata>
  <defs
     id="defs126">
    <filter
       id="u-3">
      <feGaussianBlur
         stdDeviation=".0231875"
         id="feGaussianBlur110" />
    </filter>
  </defs>
  <sodipodi:namedview
     pagecolor="#ffffff"
     bordercolor="#666666"
     borderopacity="1"
     objecttolerance="10"
     gridtolerance="10"
     guidetolerance="10"
     inkscape:pageopacity="0"
     inkscape:pageshadow="2"
     inkscape:window-width="1366"
     inkscape:window-height="707"
     id="namedview124"
     showgrid="true"
     inkscape:snap-global="false"
     inkscape:zoom="22.733759"
     inkscape:cx="2.5879351"
     inkscape:cy="8"
     inkscape:window-x="0"
     inkscape:window-y="0"
     inkscape:window-maximized="1"
     inkscape:current-layer="svg122">
    <inkscape:grid
       type="xygrid"
       id="grid955" />
  </sodipodi:namedview>
  <linearGradient
     id="a">
    <stop
       offset="0"
       id="stop2" />
    <stop
       offset="1"
       stop-opacity="0"
       id="stop4" />
  </linearGradient>
  <linearGradient
     id="b">
    <stop
       offset="0"
       stop-color="#fff"
       id="stop7" />
    <stop
       offset="1"
       stop-color="#fff"
       stop-opacity="0"
       id="stop9" />
  </linearGradient>
  <filter
     id="c"
     height="1.240511"
     width="1.138013"
     x="-.069006"
     y="-.120256">
    <feGaussianBlur
       stdDeviation="1.9228365"
       id="feGaussianBlur12" />
  </filter>
  <filter
     id="d">
    <feGaussianBlur
       stdDeviation=".0231875"
       id="feGaussianBlur15" />
  </filter>
  <clipPath
     id="e">
    <path
       d="m18.189713 132.42089c-1.419208 0-2.5625 1.1433-2.5625 2.5625v37.18328h72.000002v-37.18328c0-1.4192-1.14329-2.5625-2.5625-2.5625z"
       id="path18" />
  </clipPath>
  <filter
     id="f"
     height="1.185769"
     width="1.247692"
     x="-.123846"
     y="-.092885">
    <feGaussianBlur
       stdDeviation="1.2384615"
       id="feGaussianBlur21" />
  </filter>
  <filter
     id="g"
     height="1.203077"
     width="1.293333"
     x="-.146667"
     y="-.101538">
    <feGaussianBlur
       stdDeviation=".55"
       id="feGaussianBlur24" />
  </filter>
  <clipPath
     id="h">
    <rect
       height="12"
       rx="1.079258"
       width="8"
       x="12"
       y="12"
       id="rect27" />
  </clipPath>
  <clipPath
     id="i">
    <rect
       height="12"
       rx="1.079258"
       width="8"
       x="12"
       y="12"
       id="rect30" />
  </clipPath>
  <filter
     id="j">
    <feGaussianBlur
       stdDeviation=".04177847"
       id="feGaussianBlur33" />
  </filter>
  <linearGradient
     id="k"
     gradientTransform="matrix(2.5599787 0 0 2.5618327 317.91555 -4848.4604)"
     gradientUnits="userSpaceOnUse"
     x1="-97.742668"
     x2="-97.742668"
     y1="1937.9885"
     y2="1895.421">
    <stop
       offset="0"
       stop-color="#2e2a2b"
       id="stop36" />
    <stop
       offset=".33497536"
       stop-color="#4c494a"
       id="stop38" />
    <stop
       offset=".66748768"
       stop-color="#5b595a"
       id="stop40" />
    <stop
       offset="1"
       stop-color="#6b696a"
       id="stop42" />
  </linearGradient>
  <radialGradient
     id="l"
     cx="100.30548"
     cy="42.449028"
     gradientTransform="matrix(4.4903063 .00000075 -.00000029 1.9257147 -407.50578 -88.154647)"
     gradientUnits="userSpaceOnUse"
     r="38">
    <stop
       offset="0"
       stop-color="#d0ced9"
       id="stop45" />
    <stop
       offset=".25"
       stop-color="#ecf1f9"
       id="stop47" />
    <stop
       offset=".5"
       stop-color="#fff"
       id="stop49" />
    <stop
       offset="1"
       stop-color="#c6d5e3"
       id="stop51" />
  </radialGradient>
  <linearGradient
     id="m"
     gradientUnits="userSpaceOnUse"
     x1="47.608696"
     x2="47.608696"
     xlink:href="#a"
     y1="104.35009"
     y2="176.35008" />
  <radialGradient
     id="n"
     cx="84"
     cy="91.983192"
     gradientTransform="matrix(1 0 0 .5891561 0 42.08115)"
     gradientUnits="userSpaceOnUse"
     r="32"
     xlink:href="#b" />
  <linearGradient
     id="o"
     gradientUnits="userSpaceOnUse"
     x1="68"
     x2="36"
     xlink:href="#a"
     y1="120"
     y2="84" />
  <linearGradient
     id="p"
     gradientUnits="userSpaceOnUse"
     x1="89.604726"
     x2="114.175"
     xlink:href="#b"
     y1="42.336197"
     y2="106.7981" />
  <linearGradient
     id="q"
     gradientTransform="matrix(1.0074934 0 0 .9968924 -5.325815 -.225228)"
     gradientUnits="userSpaceOnUse"
     x1="52"
     x2="52"
     y1="112"
     y2="80">
    <stop
       offset="0"
       stop-color="#8a8a8a"
       id="stop58" />
    <stop
       offset="1"
       stop-color="#c6c6c6"
       id="stop60" />
  </linearGradient>
  <radialGradient
     id="r"
     cx="16"
     cy="18"
     gradientTransform="matrix(1 0 0 1.5 0 -9)"
     gradientUnits="userSpaceOnUse"
     r="4">
    <stop
       offset="0"
       stop-color="#7a7a7a"
       id="stop63" />
    <stop
       offset="1"
       stop-opacity=".490909"
       id="stop65" />
  </radialGradient>
  <linearGradient
     id="s"
     gradientUnits="userSpaceOnUse"
     x1="16"
     x2="16"
     xlink:href="#a"
     y1="1.595278"
     y2="18.75548" />
  <radialGradient
     id="t"
     cx="16.03512"
     cy="19.49425"
     fy="18.539073"
     gradientUnits="userSpaceOnUse"
     r="2.378519">
    <stop
       offset="0"
       stop-color="#868385"
       id="stop69" />
    <stop
       offset="1"
       stop-color="#4a4949"
       id="stop71" />
  </radialGradient>
  <linearGradient
     id="u"
     gradientUnits="userSpaceOnUse"
     x1="13.731525"
     x2="13.731525"
     y1="17.127984"
     y2="19.868869">
    <stop
       offset="0"
       stop-color="#fff"
       id="stop74" />
    <stop
       offset="1"
       id="stop76" />
  </linearGradient>
  <g
     style="stroke-width:0.81482208"
     id="g967"
     transform="matrix(1.2272617,0,0,1.2272617,-3.3308195,-7.5648633)">
    <path
       d="M 8.8232502,13.92675 C 8.8232502,13.92675 10.3125,12.6875 11,12 11.6875,11.3125 12.92675,9.82325 12.92675,9.82325 12.92675,9.82325 10.28125,10 9,10 9,11.28125 8.8232502,13.92675 8.8232502,13.92675 Z"
       id="path957"
       style="fill:#f3b7d9;stroke:#9d3a9b;stroke-width:0.20370552;stroke-linejoin:bevel;stroke-miterlimit:4;stroke-dasharray:none"
       inkscape:connector-curvature="0" />
    <path
       inkscape:connector-curvature="0"
       id="path959"
       style="opacity:1;fill:#f3b7d9;fill-opacity:1;stroke:#e602b4;stroke-width:0.80070233;stroke-linecap:round;stroke-linejoin:round;stroke-dashoffset:1.08780003;stroke-opacity:1"
       d="m 6.6661557,6.5917263 c -0.1451005,0 -0.2696302,0.1293434 -0.2695548,0.2647305 l -0.028454,7.8782012 0.8535718,0.847758 h 7.8617543 c 0.236933,0 0.269533,-0.02763 0.269533,-0.264711 l 0.02845,-8.4612482 c 0,-0.144266 -0.124991,-0.2647305 -0.269534,-0.2647305 z" />
    <rect
       style="fill:#e602b4;stroke:#9d3a9b;stroke-width:0.40741104;stroke-miterlimit:4;stroke-dasharray:none"
       id="rect961"
       y="6.5529509"
       x="7.978168"
       width="5.9999995"
       ry="0.11409751"
       rx="0.11581321"
       height="4.5" />
    <path
       inkscape:connector-curvature="0"
       id="path963"
       transform="matrix(0.08080922,0,0,0.09926784,5.6729714,4.6045477)"
       style="opacity:1;fill:#f0e3ec;fill-rule:evenodd;stroke:#9d3a9b;stroke-width:2.27440643;stroke-miterlimit:4;stroke-dasharray:none;filter:url(#u-3)"
       d="m 112.08021,93.783789 v 6.718751 h -1.21875 -1.03125 l 4.34375,7.53125 4.34375,-7.53125 h -1.03125 -1.21875 v -6.718751 h -2.09375 z" />
    <path
       inkscape:connector-curvature="0"
       style="fill:#f0e3ec;stroke:#9d3a9b;stroke-width:0.20370552;stroke-miterlimit:4;stroke-dasharray:none"
       id="path965"
       d="m 8.978164,12.552953 c -0.10492,0 -0.122119,0.143345 -0.122119,0.247939 l -0.04878,3.252061 4.670903,-10e-7 v -3.499999 c 0,-0.104594 0.10492,0 0,0 z m 0.5,0.5 h 1 c 0.0463,0 0,-0.04616 0,0 v 2.000001 c 0,0.04616 0.0463,0 0,0 h -1 c -0.0463,0 0,0.04616 0,0 v -2.000001 c 0,-0.04616 -0.0463,0 0,0 z" />
  </g>
  <g
     transform="matrix(1.2272617,0,0,1.2272617,-7.3739862,-3.8124851)"
     id="g1066"
     style="stroke-width:0.81482208">
    <path
       inkscape:connector-curvature="0"
       style="fill:#f3b7d9;stroke:#9d3a9b;stroke-width:0.20370552;stroke-linejoin:bevel;stroke-miterlimit:4;stroke-dasharray:none"
       id="path98"
       d="M 8.8232502,13.92675 C 8.8232502,13.92675 10.3125,12.6875 11,12 11.6875,11.3125 12.92675,9.82325 12.92675,9.82325 12.92675,9.82325 10.28125,10 9,10 9,11.28125 8.8232502,13.92675 8.8232502,13.92675 Z" />
    <path
       d="m 6.6661557,6.5917263 c -0.1451005,0 -0.2696302,0.1293434 -0.2695548,0.2647305 l -0.028454,7.8782012 0.8535718,0.847758 h 7.8617543 c 0.236933,0 0.269533,-0.02763 0.269533,-0.264711 l 0.02845,-8.4612482 c 0,-0.144266 -0.124991,-0.2647305 -0.269534,-0.2647305 z"
       style="opacity:1;fill:#f3b7d9;fill-opacity:1;stroke:#e602b4;stroke-width:0.80070233;stroke-linecap:round;stroke-linejoin:round;stroke-dashoffset:1.08780003;stroke-opacity:1"
       id="path206"
       inkscape:connector-curvature="0" />
    <rect
       height="4.5"
       rx="0.11581321"
       ry="0.11409751"
       width="5.9999995"
       x="7.978168"
       y="6.5529509"
       id="rect208"
       style="fill:#e602b4;stroke:#9d3a9b;stroke-width:0.40741104;stroke-miterlimit:4;stroke-dasharray:none" />
    <path
       d="m 112.08021,93.783789 v 6.718751 h -1.21875 -1.03125 l 4.34375,7.53125 4.34375,-7.53125 h -1.03125 -1.21875 v -6.718751 h -2.09375 z"
       style="opacity:1;fill:#f0e3ec;fill-rule:evenodd;stroke:#9d3a9b;stroke-width:2.27440643;stroke-miterlimit:4;stroke-dasharray:none;filter:url(#u-3)"
       transform="matrix(0.08080922,0,0,0.09926784,5.6729714,4.6045477)"
       id="path218"
       inkscape:connector-curvature="0" />
    <path
       d="m 8.978164,12.552953 c -0.10492,0 -0.122119,0.143345 -0.122119,0.247939 l -0.04878,3.252061 4.670903,-10e-7 v -3.499999 c 0,-0.104594 0.10492,0 0,0 z m 0.5,0.5 h 1 c 0.0463,0 0,-0.04616 0,0 v 2.000001 c 0,0.04616 0.0463,0 0,0 h -1 c -0.0463,0 0,0.04616 0,0 v -2.000001 c 0,-0.04616 -0.0463,0 0,0 z"
       id="path222"
       style="fill:#f0e3ec;stroke:#9d3a9b;stroke-width:0.20370552;stroke-miterlimit:4;stroke-dasharray:none"
       inkscape:connector-curvature="0" />
  </g>
</svg>
