<?xml version="1.0" encoding="UTF-8"?>
<svg xmlns="http://www.w3.org/2000/svg" xmlns:xlink="http://www.w3.org/1999/xlink" width="32px" height="32px" viewBox="0 0 32 32" version="1.1">
<g id="surface1">
<path style=" stroke:none;fill-rule:nonzero;fill:rgb(33.333334%,34.117648%,32.549021%);fill-opacity:1;" d="M 8 4 L 8 18 L 12 18 L 12 16 L 18 16 C 21.3125 16 24 13.3125 24 10 C 24 6.6875 21.3125 4 18 4 Z M 12 8 L 18 8 C 19.105469 8 20 8.894531 20 10 C 20 11.105469 19.105469 12 18 12 L 12 12 Z M 4 20 L 4 24 L 28 24 L 28 20 Z M 4 26 L 4 30 L 28 30 L 28 26 Z M 4 26 "/>
</g>
</svg>
