<?xml version="1.0" encoding="UTF-8"?>
<svg xmlns="http://www.w3.org/2000/svg" xmlns:xlink="http://www.w3.org/1999/xlink" width="32px" height="32px" viewBox="0 0 32 32" version="1.1">
<g id="surface1">
<path style=" stroke:none;fill-rule:nonzero;fill:rgb(33.333334%,34.117648%,32.549021%);fill-opacity:1;" d="M 16 4 C 9.371094 4 4 9.371094 4 16 C 4 22.628906 9.371094 28 16 28 C 17.40625 27.996094 18.804688 27.742188 20.125 27.253906 C 20.402344 25.597656 20.675781 23.9375 20.953125 22.28125 C 19.542969 23.394531 17.796875 24 16 24 C 11.582031 24 8 20.417969 8 16 C 8 11.582031 11.582031 8 16 8 C 18.71875 8 21.25 9.378906 22.722656 11.664062 C 23 10.003906 23.28125 8.34375 23.554688 6.683594 C 21.417969 4.949219 18.75 4 16 4 Z M 16 4 "/>
</g>
</svg>
