<?xml version="1.0" encoding="UTF-8"?>
<svg xmlns="http://www.w3.org/2000/svg" xmlns:xlink="http://www.w3.org/1999/xlink" width="24px" height="24px" viewBox="0 0 24 24" version="1.1">
<g id="surface1">
<path style=" stroke:none;fill-rule:nonzero;fill:rgb(33.333334%,34.117648%,32.549021%);fill-opacity:1;" d="M 10.5 1.5 C 8.015625 1.5 6 3.515625 6 6 L 6 13.5 L 9 13.5 L 9 6 C 9 5.171875 9.671875 4.5 10.5 4.5 L 13.5 4.5 C 14.328125 4.5 15 5.171875 15 6 L 15 13.5 L 18 13.5 L 18 6 C 18 3.515625 15.984375 1.5 13.5 1.5 Z M 3 15 L 3 18 L 21 18 L 21 15 Z M 3 19.5 L 3 22.5 L 21 22.5 L 21 19.5 Z M 3 19.5 "/>
</g>
</svg>
