<?xml version="1.0" encoding="UTF-8"?>
<svg xmlns="http://www.w3.org/2000/svg" xmlns:xlink="http://www.w3.org/1999/xlink" width="24px" height="24px" viewBox="0 0 24 24" version="1.1">
<g id="surface1">
<path style=" stroke:none;fill-rule:nonzero;fill:rgb(33.333334%,34.117648%,32.549021%);fill-opacity:1;" d="M 3 22.5 L 3 19.5 L 21 19.5 L 21 22.5 Z M 10.5 18 C 8.015625 18 6 15.984375 6 13.5 L 6 6 C 6 3.515625 8.015625 1.5 10.5 1.5 L 13.5 1.5 C 15.984375 1.5 18 3.515625 18 6 L 18 13.5 C 18 15.984375 15.984375 18 13.5 18 Z M 10.5 15 L 13.5 15 C 14.328125 15 15 14.328125 15 13.5 L 15 6 C 15 5.171875 14.328125 4.5 13.5 4.5 L 10.5 4.5 C 9.671875 4.5 9 5.171875 9 6 L 9 13.5 C 9 14.328125 9.671875 15 10.5 15 Z M 10.5 15 "/>
</g>
</svg>
