<?xml version="1.0" encoding="UTF-8"?>
<svg xmlns="http://www.w3.org/2000/svg" xmlns:xlink="http://www.w3.org/1999/xlink" width="32px" height="32px" viewBox="0 0 32 32" version="1.1">
<g id="surface1">
<path style=" stroke:none;fill-rule:nonzero;fill:rgb(33.333334%,34.117648%,32.549021%);fill-opacity:1;" d="M 4 30 L 4 26 L 28 26 L 28 30 Z M 14 24 C 10.6875 24 8 21.3125 8 18 L 8 8 C 8 4.6875 10.6875 2 14 2 L 18 2 C 21.3125 2 24 4.6875 24 8 L 24 18 C 24 21.3125 21.3125 24 18 24 Z M 14 20 L 18 20 C 19.105469 20 20 19.105469 20 18 L 20 8 C 20 6.894531 19.105469 6 18 6 L 14 6 C 12.894531 6 12 6.894531 12 8 L 12 18 C 12 19.105469 12.894531 20 14 20 Z M 14 20 "/>
</g>
</svg>
