<?xml version="1.0" encoding="UTF-8" standalone="no"?>
<svg
   xmlns:dc="http://purl.org/dc/elements/1.1/"
   xmlns:cc="http://creativecommons.org/ns#"
   xmlns:rdf="http://www.w3.org/1999/02/22-rdf-syntax-ns#"
   xmlns:svg="http://www.w3.org/2000/svg"
   xmlns="http://www.w3.org/2000/svg"
   xmlns:sodipodi="http://sodipodi.sourceforge.net/DTD/sodipodi-0.dtd"
   xmlns:inkscape="http://www.inkscape.org/namespaces/inkscape"
   height="16"
   viewBox="0 0 4.2333333 4.2333335"
   width="16"
   id="svg2"
   version="1.1"
   inkscape:version="0.91 r13725"
   sodipodi:docname="sc_underline.svg"
   inkscape:export-filename="/home/tamara/Desktop/IKON/5_258 (tamara)/ca/sc_underline.png"
   inkscape:export-xdpi="90"
   inkscape:export-ydpi="90">
  <metadata
     id="metadata26">
    <rdf:RDF>
      <cc:Work
         rdf:about="">
        <dc:format>image/svg+xml</dc:format>
        <dc:type
           rdf:resource="http://purl.org/dc/dcmitype/StillImage" />
      </cc:Work>
    </rdf:RDF>
  </metadata>
  <defs
     id="defs24" />
  <sodipodi:namedview
     pagecolor="#ffffff"
     bordercolor="#666666"
     borderopacity="1"
     objecttolerance="10"
     gridtolerance="10"
     guidetolerance="10"
     inkscape:pageopacity="0"
     inkscape:pageshadow="2"
     inkscape:window-width="1366"
     inkscape:window-height="718"
     id="namedview22"
     showgrid="true"
     inkscape:zoom="166.8772"
     inkscape:cx="13.922174"
     inkscape:cy="-0.0034674827"
     inkscape:window-x="0"
     inkscape:window-y="0"
     inkscape:window-maximized="1"
     inkscape:current-layer="svg2">
    <inkscape:grid
       type="xygrid"
       id="grid8020" />
  </sodipodi:namedview>
  <linearGradient
     id="a"
     gradientUnits="userSpaceOnUse"
     x1="19.232454"
     x2="20.39267"
     y1="29.901342"
     y2="3.216375">
    <stop
       offset="0"
       stop-color="#555"
       id="stop5" />
    <stop
       offset="1"
       id="stop7" />
  </linearGradient>
  <linearGradient
     id="b"
     gradientTransform="matrix(.26458334 0 0 .23883413 4.615978 .204602)"
     gradientUnits="userSpaceOnUse"
     x1="17.634766"
     x2="76.054688"
     y1="43.589844"
     y2="43.589844">
    <stop
       offset="0"
       stop-color="#3b3e22"
       id="stop10" />
    <stop
       offset="1"
       stop-color="#454545"
       stop-opacity="0"
       id="stop12" />
  </linearGradient>
  <g
     transform="matrix(0.12303642,0,0,0.12303642,0.03255301,0.03394662)"
     id="g14"
     style="fill:#f3b7d9;fill-opacity:1;stroke:#e601b4;stroke-width:0.5291667;stroke-linecap:round;stroke-linejoin:round;stroke-miterlimit:4;stroke-dasharray:none;stroke-opacity:1">
    <path
       d="m 21.103307,24.181487 q 0,-1.908555 -1.34005,-3.370427 -1.340049,-1.50248 -3.248605,-2.558277 -1.908555,-1.055796 -3.81711,-2.1522 -1.867948,-1.137012 -3.2079973,-2.883137 -1.3400495,-1.746125 -1.3400495,-4.0607559 0,-3.0861745 2.0709858,-4.9947298 2.111593,-1.9491629 4.954122,-1.9491629 1.705517,0 3.695288,0.6903285 1.98977,0.6903286 2.395846,0.6903286 1.055796,0 1.299442,-1.3806571 l 0.852758,0 0.893367,8.6494106 -1.015189,0 q -0.974582,-3.5734657 -3.00496,-5.2789831 -1.98977,-1.7055175 -4.426224,-1.7055175 -1.867947,0 -3.045566,1.0557965 -1.17762,1.0557965 -1.17762,2.7207065 0,1.6243023 1.380657,3.0861746 1.380657,1.461872 4.588655,3.248605 4.020148,2.1522 5.80688,4.263793 1.786733,2.070986 1.786733,4.588655 0,3.126782 -2.395846,5.278982 -2.395846,2.111593 -5.888096,2.111593 -2.030378,0 -4.141971,-0.690328 -2.070986,-0.690329 -2.558276,-0.690329 -0.4466834,0 -0.7715439,0.406076 -0.3248605,0.365468 -0.365468,0.933974 l -0.8933663,0 -1.2182268,-8.608803 0.9339739,0 q 1.5024797,3.695288 3.4922501,5.441413 1.98977,1.746125 4.710477,1.746125 2.233416,0 3.614073,-1.258834 1.380657,-1.299442 1.380657,-3.32982 z"
       transform="scale(1.0525265,0.95009481)"
       id="path16"
       style="fill:#f3b7d9;fill-opacity:1;stroke:#e601b4;stroke-width:0.5291667;stroke-linecap:round;stroke-linejoin:round;stroke-miterlimit:4;stroke-dasharray:none;stroke-opacity:1"
       inkscape:connector-curvature="0" />
    <rect
       height="2.116667"
       rx="0.47207499"
       ry="0.60722399"
       width="33.866669"
       x="2e-06"
       y="31.75"
       id="rect20"
       style="fill:#f3b7d9;fill-opacity:1;stroke:#e601b4;stroke-width:0.5291667;stroke-linecap:round;stroke-linejoin:round;stroke-miterlimit:4;stroke-dasharray:none;stroke-opacity:1" />
  </g>
</svg>
