<?xml version="1.0" encoding="UTF-8" standalone="no"?>
<svg
   xmlns:dc="http://purl.org/dc/elements/1.1/"
   xmlns:cc="http://creativecommons.org/ns#"
   xmlns:rdf="http://www.w3.org/1999/02/22-rdf-syntax-ns#"
   xmlns:svg="http://www.w3.org/2000/svg"
   xmlns="http://www.w3.org/2000/svg"
   xmlns:sodipodi="http://sodipodi.sourceforge.net/DTD/sodipodi-0.dtd"
   xmlns:inkscape="http://www.inkscape.org/namespaces/inkscape"
   height="24"
   viewBox="0 0 6.3499999 6.3500002"
   width="24"
   id="svg2"
   version="1.1"
   inkscape:version="0.91 r13725"
   sodipodi:docname="lc_numberingstart.svg"
   inkscape:export-filename="/home/tamara/Desktop/IKON/5_258 (tamara)/ar/lc_numberingstart.png"
   inkscape:export-xdpi="90"
   inkscape:export-ydpi="90">
  <metadata
     id="metadata54">
    <rdf:RDF>
      <cc:Work
         rdf:about="">
        <dc:format>image/svg+xml</dc:format>
        <dc:type
           rdf:resource="http://purl.org/dc/dcmitype/StillImage" />
      </cc:Work>
    </rdf:RDF>
  </metadata>
  <defs
     id="defs52" />
  <sodipodi:namedview
     pagecolor="#ffffff"
     bordercolor="#666666"
     borderopacity="1"
     objecttolerance="10"
     gridtolerance="10"
     guidetolerance="10"
     inkscape:pageopacity="0"
     inkscape:pageshadow="2"
     inkscape:window-width="1366"
     inkscape:window-height="718"
     id="namedview50"
     showgrid="true"
     inkscape:zoom="13.906433"
     inkscape:cx="-15.028985"
     inkscape:cy="11.54802"
     inkscape:window-x="0"
     inkscape:window-y="0"
     inkscape:window-maximized="1"
     inkscape:current-layer="svg2">
    <inkscape:grid
       type="xygrid"
       id="grid4300" />
  </sodipodi:namedview>
  <linearGradient
     id="a"
     gradientUnits="userSpaceOnUse"
     x1="4.890964"
     x2="4.890964"
     y1="289.019339"
     y2="280.556658">
    <stop
       offset="0"
       stop-color="#808080"
       id="stop5" />
    <stop
       offset="1"
       stop-color="#bfbfbf"
       id="stop7" />
  </linearGradient>
  <linearGradient
     id="b"
     gradientUnits="userSpaceOnUse"
     x1="6.742572"
     x2="6.742572"
     y1="281.545294"
     y2="270.070142">
    <stop
       offset="0"
       stop-color="#06f"
       id="stop10" />
    <stop
       offset="1"
       stop-color="#80b3ff"
       id="stop12" />
  </linearGradient>
  <g
     id="g11710">
    <g
       transform="translate(1.919372,2.8523697)"
       id="g4271">
      <path
         style="color:#000000;font-style:normal;font-variant:normal;font-weight:normal;font-stretch:normal;font-size:2.0625px;line-height:normal;font-family:'Bitstream Vera Sans';text-indent:0;text-align:start;text-decoration:none;text-decoration-line:none;text-decoration-style:solid;text-decoration-color:#000000;letter-spacing:normal;word-spacing:normal;text-transform:none;direction:ltr;block-progression:tb;writing-mode:lr-tb;baseline-shift:baseline;text-anchor:start;white-space:normal;clip-rule:nonzero;display:inline;overflow:visible;visibility:visible;opacity:1;isolation:auto;mix-blend-mode:normal;color-interpolation:sRGB;color-interpolation-filters:linearRGB;solid-color:#000000;solid-opacity:1;fill:#f3b7d9;fill-opacity:1;fill-rule:nonzero;stroke:#9e3a9c;stroke-width:0.06614584;stroke-linecap:round;stroke-linejoin:round;stroke-miterlimit:4;stroke-dasharray:none;stroke-dashoffset:0;stroke-opacity:1;color-rendering:auto;image-rendering:auto;shape-rendering:auto;text-rendering:auto;enable-background:accumulate"
         d="M 3.1130416,0.82683184 A 0.29304698,0.27966542 0 0 0 2.9530971,0.87071609 L 2.6532012,1.0577011 A 0.29304698,0.27966542 0 0 0 2.5192477,1.2923865 l 0,0.179353 A 0.29304698,0.27966542 0 0 0 2.8071478,1.752217 l 0,0.049608 -0.004,0 A 0.29304698,0.27966542 0 0 0 2.5092512,2.0803949 l 0,0.169813 a 0.29304698,0.27966542 0 0 0 0.293898,0.2804775 l 0.8117182,0 A 0.29304698,0.27966542 0 0 0 3.9067662,2.2502079 l 0,-0.169813 A 0.29304698,0.27966542 0 0 0 3.6328612,1.8018254 l 0,-0.696424 A 0.29304698,0.27966542 0 0 0 3.3389632,0.82683184 l -0.2259216,0 z"
         id="text82"
         inkscape:connector-curvature="0" />
      <text
         x="2.7257953"
         y="2.2511315"
         id="text86"
         style="font-size:2.0625px;font-family:'Bitstream Vera Sans';fill:#e601b4;fill-opacity:1;stroke-width:1.66545105">
        <tspan
           font-size="9.493093"
           font-weight="bold"
           x="2.7257953"
           y="2.2511315"
           id="tspan88"
           style="font-weight:bold;font-size:1.63162529px;font-family:'Liberation Sans';fill:#e601b4;fill-opacity:1;stroke-width:1.66545105">1</tspan>
      </text>
    </g>
    <g
       transform="translate(1.8624924,-2.9683695)"
       id="g4276">
      <path
         style="color:#000000;font-style:normal;font-variant:normal;font-weight:normal;font-stretch:normal;font-size:2.72250009px;line-height:normal;font-family:'Bitstream Vera Sans';text-indent:0;text-align:start;text-decoration:none;text-decoration-line:none;text-decoration-style:solid;text-decoration-color:#000000;letter-spacing:normal;word-spacing:normal;text-transform:none;direction:ltr;block-progression:tb;writing-mode:lr-tb;baseline-shift:baseline;text-anchor:start;white-space:normal;clip-rule:nonzero;display:inline;overflow:visible;visibility:visible;opacity:1;isolation:auto;mix-blend-mode:normal;color-interpolation:sRGB;color-interpolation-filters:linearRGB;solid-color:#000000;solid-opacity:1;fill:#f3b7d9;fill-opacity:1;fill-rule:nonzero;stroke:#f3b7d9;stroke-width:0.06614584;stroke-linecap:round;stroke-linejoin:round;stroke-miterlimit:4;stroke-dasharray:none;stroke-dashoffset:0;stroke-opacity:1;color-rendering:auto;image-rendering:auto;shape-rendering:auto;text-rendering:auto;enable-background:accumulate"
         d="m 3.2361384,3.7360208 c -0.092768,0 -0.18394,0.010584 -0.2732228,0.042081 -0.079465,0.027679 -0.1570684,0.071586 -0.2213702,0.1300687 a 0.29231711,0.28036358 0 0 0 -0.00199,0.00191 C 2.6803814,3.964842 2.6320712,4.0307222 2.5999481,4.1032735 2.5715364,4.1674424 2.55474,4.235345 2.5461013,4.3041147 a 0.29231711,0.28036358 0 0 0 0.2153873,0.3041312 c -0.021924,0.02296 -0.045057,0.044336 -0.065813,0.06886 -0.054448,0.063947 -0.099517,0.1365835 -0.1356142,0.212318 a 0.29231711,0.28036358 0 0 0 -0.02792,0.116679 l 0,0.1549347 a 0.29231711,0.28036358 0 0 0 0.293166,0.2811778 l 0.823657,0 A 0.29231711,0.28036358 0 0 0 3.9401358,5.1610376 l 0,-0.1836263 A 0.29231711,0.28036358 0 0 0 3.7726124,4.7230123 c 0.031085,-0.039849 0.065003,-0.077663 0.08775,-0.1224175 0.042516,-0.083647 0.061824,-0.1781307 0.061824,-0.2677884 0,-0.080994 -0.014962,-0.1641083 -0.049858,-0.2429224 C 3.8382828,4.0130323 3.7836801,3.9416769 3.7167712,3.88713 3.6494961,3.8322846 3.5714392,3.7936448 3.4914123,3.7704508 c -0.082814,-0.02437 -0.168751,-0.03443 -0.2552739,-0.03443 z"
         id="text72"
         inkscape:connector-curvature="0" />
      <text
         x="2.7852764"
         y="5.1615062"
         id="text76"
         style="font-size:2.72250009px;font-family:'Bitstream Vera Sans';fill:#f0e3ec;fill-opacity:1;stroke-width:1.26170504">
        <tspan
           font-size="7.227894"
           font-weight="bold"
           x="2.7852764"
           y="5.1615062"
           id="tspan78"
           style="font-weight:bold;font-size:1.63982844px;font-family:'Liberation Sans';fill:#f0e3ec;fill-opacity:1;stroke-width:1.26170504">2</tspan>
      </text>
    </g>
    <g
       id="g4168">
      <rect
         style="opacity:1;fill:#9e3a9c;fill-opacity:1;fill-rule:evenodd;stroke:none;stroke-width:0.40900001;stroke-linecap:round;stroke-linejoin:round;stroke-miterlimit:4;stroke-dasharray:none;stroke-dashoffset:0;stroke-opacity:1"
         id="rect4223"
         width="2.6458335"
         height="0.2645835"
         x="1.3229165"
         y="2.3812499"
         rx="0.10176329"
         ry="0.13229175" />
      <rect
         ry="0.13229175"
         rx="0.13229226"
         y="1.5875"
         x="0.52916646"
         height="0.2645835"
         width="3.4395833"
         id="rect4221"
         style="opacity:1;fill:#9e3a9c;fill-opacity:1;fill-rule:evenodd;stroke:none;stroke-width:0.40900001;stroke-linecap:round;stroke-linejoin:round;stroke-miterlimit:4;stroke-dasharray:none;stroke-dashoffset:0;stroke-opacity:1" />
      <rect
         style="opacity:1;fill:#9e3a9c;fill-opacity:1;fill-rule:evenodd;stroke:none;stroke-width:0.40900001;stroke-linecap:round;stroke-linejoin:round;stroke-miterlimit:4;stroke-dasharray:none;stroke-dashoffset:0;stroke-opacity:1"
         id="rect4219"
         width="3.4395833"
         height="0.2645835"
         x="0.52916646"
         y="0.79374999"
         rx="0.13229226"
         ry="0.13229175" />
    </g>
    <rect
       style="opacity:1;fill:#9e3a9c;fill-opacity:1;fill-rule:evenodd;stroke:none;stroke-width:0.40900001;stroke-linecap:round;stroke-linejoin:round;stroke-miterlimit:4;stroke-dasharray:none;stroke-dashoffset:0;stroke-opacity:1"
       id="rect4232"
       width="2.6458335"
       height="0.26458335"
       x="1.3229165"
       y="5.2916656"
       rx="0.10176329"
       ry="0.13229167" />
    <rect
       ry="0.13229167"
       rx="0.13229227"
       y="4.4979162"
       x="0.52916646"
       height="0.26458335"
       width="3.4395835"
       id="rect4234"
       style="opacity:1;fill:#9e3a9c;fill-opacity:1;fill-rule:evenodd;stroke:none;stroke-width:0.40900001;stroke-linecap:round;stroke-linejoin:round;stroke-miterlimit:4;stroke-dasharray:none;stroke-dashoffset:0;stroke-opacity:1" />
    <rect
       style="opacity:1;fill:#9e3a9c;fill-opacity:1;fill-rule:evenodd;stroke:none;stroke-width:0.40900001;stroke-linecap:round;stroke-linejoin:round;stroke-miterlimit:4;stroke-dasharray:none;stroke-dashoffset:0;stroke-opacity:1"
       id="rect4236"
       width="3.4395835"
       height="0.26458335"
       x="0.52916646"
       y="3.7041664"
       rx="0.13229227"
       ry="0.13229167" />
  </g>
</svg>
