<?xml version="1.0" encoding="UTF-8" standalone="no"?>
<svg
   xmlns:dc="http://purl.org/dc/elements/1.1/"
   xmlns:cc="http://creativecommons.org/ns#"
   xmlns:rdf="http://www.w3.org/1999/02/22-rdf-syntax-ns#"
   xmlns:svg="http://www.w3.org/2000/svg"
   xmlns="http://www.w3.org/2000/svg"
   xmlns:xlink="http://www.w3.org/1999/xlink"
   xmlns:sodipodi="http://sodipodi.sourceforge.net/DTD/sodipodi-0.dtd"
   xmlns:inkscape="http://www.inkscape.org/namespaces/inkscape"
   height="16"
   viewBox="0 0 4.2333333 4.2333335"
   width="16"
   id="svg2"
   version="1.1"
   inkscape:version="0.91 r13725"
   sodipodi:docname="sc_alphaliststyle.svg"
   inkscape:export-filename="/home/tamara/Desktop/IKON/5_258 (tamara)/ar/sc_alphaliststyle.png"
   inkscape:export-xdpi="90"
   inkscape:export-ydpi="90">
  <metadata
     id="metadata41">
    <rdf:RDF>
      <cc:Work
         rdf:about="">
        <dc:format>image/svg+xml</dc:format>
        <dc:type
           rdf:resource="http://purl.org/dc/dcmitype/StillImage" />
      </cc:Work>
    </rdf:RDF>
  </metadata>
  <defs
     id="defs39" />
  <sodipodi:namedview
     pagecolor="#ffffff"
     bordercolor="#666666"
     borderopacity="1"
     objecttolerance="10"
     gridtolerance="10"
     guidetolerance="10"
     inkscape:pageopacity="0"
     inkscape:pageshadow="2"
     inkscape:window-width="1366"
     inkscape:window-height="718"
     id="namedview37"
     showgrid="true"
     inkscape:zoom="22.627417"
     inkscape:cx="-5.0747072"
     inkscape:cy="6.221556"
     inkscape:window-x="0"
     inkscape:window-y="0"
     inkscape:window-maximized="1"
     inkscape:current-layer="svg2">
    <inkscape:grid
       type="xygrid"
       id="grid4234" />
  </sodipodi:namedview>
  <linearGradient
     id="a">
    <stop
       offset="0"
       stop-color="#06f"
       id="stop5" />
    <stop
       offset="1"
       stop-color="#80b3ff"
       id="stop7" />
  </linearGradient>
  <linearGradient
     id="b"
     gradientUnits="userSpaceOnUse"
     x1="7.391858"
     x2="7.979656"
     xlink:href="#a"
     y1="275.60074"
     y2="259.69821" />
  <linearGradient
     id="c"
     gradientUnits="userSpaceOnUse"
     x1="8.563728"
     x2="10.039476"
     xlink:href="#a"
     y1="288.01697"
     y2="272.24805" />
  <g
     id="g11589">
    <g
       transform="matrix(1.2801255,0,0,1.2782108,4.1033273,-0.92925294)"
       id="g4255">
      <g
         id="g4908"
         transform="matrix(0.63380154,0,0,0.63380154,-3.7430437,0.30294774)">
        <path
           sodipodi:nodetypes="ccccsccccccscsccccc"
           d="M 4.3949473,3.6419429 C 4.2078963,3.6420492 4.0562881,3.7936575 4.0561819,3.9807085 l 0,1.4684199 c 1.062e-4,0.1870509 0.1517144,0.3386592 0.3387654,0.3387656 l 0.7348669,0 c 0.099019,0 0.1969014,-0.00943 0.2923711,-0.030638 l 0.00307,-8.964e-4 C 5.5264272,5.7328545 5.6245605,5.6943957 5.7132435,5.636871 l 0.00131,-8.963e-4 c 0.09482,-0.06195 0.1764421,-0.1483696 0.2324088,-0.247291 l 8.762e-4,-0.00134 c 0.06267,-0.1122279 0.087535,-0.2379261 0.087535,-0.3571479 0,-0.1488044 -0.072495,-0.3008021 -0.1720088,-0.4232375 0.035413,-0.086388 0.087536,-0.1689704 0.087536,-0.2573571 0,-0.1049024 -0.021726,-0.2166507 -0.074844,-0.3181939 C 5.8251521,3.9325353 5.7463882,3.847185 5.6563458,3.7880514 5.566583,3.729115 5.4693237,3.6941857 5.3709776,3.6729417 5.2746325,3.6512943 5.1738883,3.6418667 5.0672268,3.6418667 Z"
           id="path35-3"
           style="fill:#f3b7d9;fill-opacity:1;stroke:#9e3a9c;stroke-width:0.06587914;stroke-linecap:round;stroke-linejoin:round;stroke-miterlimit:4;stroke-dasharray:none;stroke-opacity:1"
           inkscape:connector-curvature="0" />
        <text
           style="font-size:2.37164903px;font-family:sans-serif;letter-spacing:0;word-spacing:0;fill:#e601b4;fill-opacity:1;stroke-width:0.26458299"
           x="4.252141"
           y="5.449286"
           id="text37">
          <tspan
             font-size="9.525"
             font-weight="bold"
             x="4.252141"
             y="5.449286"
             id="tspan39"
             style="font-weight:bold;font-size:2.13448405px;font-family:'Liberation Sans';fill:#e601b4;fill-opacity:1;stroke-width:0.26458299">B</tspan>
        </text>
      </g>
    </g>
    <g
       transform="matrix(1.3123438,0,0,1.3186293,4.1107841,-0.46669557)"
       id="g4250">
      <path
         inkscape:connector-curvature="0"
         style="fill:#f3b7d9;fill-opacity:1;stroke:#9e3a9c;stroke-width:0.0417543;stroke-linecap:round;stroke-linejoin:round;stroke-miterlimit:4;stroke-dasharray:none;stroke-opacity:1"
         id="path27"
         d="m -0.45824177,0.62076667 a 0.20074722,0.20074722 0 0 1 0.1886341,0.13204423 L 0.06993376,1.683776 a 0.20074722,0.20074722 0 0 1 -0.18863417,0.2696347 l -0.19473692,0 a 0.20074722,0.20074722 0 0 1 -0.18974376,-0.135095 l -0.0357851,-0.1029166 -0.0690733,0 -0.0355075,0.1029166 a 0.20074722,0.20074722 0 0 1 -0.18974377,0.135095 l -0.19307254,0 A 0.20074722,0.20074722 0 0 1 -1.2149973,1.684053 l 0.33843168,-0.93096515 a 0.20074722,0.20074722 0 0 1 0.1886341,-0.13232118 z" />
      <text
         id="text29"
         y="1.7524631"
         x="0.084946178"
         style="font-size:1.50315475px;font-family:sans-serif;letter-spacing:0;word-spacing:0;fill:#e601b4;fill-opacity:1;stroke-width:0.26458299"
         transform="scale(-1,1)">
        <tspan
           style="font-weight:bold;font-size:1.35283923px;font-family:'Liberation Sans';fill:#e601b4;fill-opacity:1;stroke-width:0.26458299"
           id="tspan31"
           y="1.7524631"
           x="0.084946178"
           font-weight="bold"
           font-size="9.525">A</tspan>
      </text>
    </g>
    <g
       style="stroke:none;stroke-opacity:1;stroke-width:0.06614584;stroke-miterlimit:4;stroke-dasharray:none;fill:#9e3a9c;fill-opacity:1"
       transform="translate(0,1.8520808)"
       id="g4244">
      <rect
         style="opacity:1;fill:#9e3a9c;fill-opacity:1;fill-rule:evenodd;stroke:none;stroke-width:0.06614584;stroke-linecap:round;stroke-linejoin:round;stroke-miterlimit:4;stroke-dasharray:none;stroke-dashoffset:0;stroke-opacity:1"
         id="rect4246"
         width="1.5875001"
         height="0.26458335"
         x="0.80709052"
         y="1.3229189"
         rx="0.08559718"
         ry="0.13229167" />
      <rect
         ry="0.13229167"
         rx="0.10882621"
         y="0.79375392"
         x="0.26469487"
         height="0.26458335"
         width="2.1298959"
         id="rect4248"
         style="opacity:1;fill:#9e3a9c;fill-opacity:1;fill-rule:evenodd;stroke:none;stroke-width:0.06614584;stroke-linecap:round;stroke-linejoin:round;stroke-miterlimit:4;stroke-dasharray:none;stroke-dashoffset:0;stroke-opacity:1" />
    </g>
    <g
       style="stroke:none;stroke-opacity:1;stroke-width:0.06614584;stroke-miterlimit:4;stroke-dasharray:none;fill:#9e3a9c;fill-opacity:1"
       id="g4240">
      <rect
         ry="0.13229167"
         rx="0.08559718"
         y="1.3229189"
         x="0.80709052"
         height="0.26458335"
         width="1.5875001"
         id="rect4238"
         style="opacity:1;fill:#9e3a9c;fill-opacity:1;fill-rule:evenodd;stroke:none;stroke-width:0.06614584;stroke-linecap:round;stroke-linejoin:round;stroke-miterlimit:4;stroke-dasharray:none;stroke-dashoffset:0;stroke-opacity:1" />
      <rect
         style="opacity:1;fill:#9e3a9c;fill-opacity:1;fill-rule:evenodd;stroke:none;stroke-width:0.06614584;stroke-linecap:round;stroke-linejoin:round;stroke-miterlimit:4;stroke-dasharray:none;stroke-dashoffset:0;stroke-opacity:1"
         id="rect4219"
         width="2.1298959"
         height="0.26458335"
         x="0.26469487"
         y="0.79375392"
         rx="0.10882621"
         ry="0.13229167" />
    </g>
  </g>
</svg>
