<?xml version="1.0" encoding="UTF-8"?>
<svg xmlns="http://www.w3.org/2000/svg" xmlns:xlink="http://www.w3.org/1999/xlink" width="32px" height="32px" viewBox="0 0 32 32" version="1.1">
<g id="surface1">
<path style="fill-rule:nonzero;fill:rgb(95.294118%,71.764708%,85.09804%);fill-opacity:1;stroke-width:0.132292;stroke-linecap:butt;stroke-linejoin:miter;stroke:rgb(90.196079%,0.784314%,70.588237%);stroke-opacity:1;stroke-miterlimit:4;" d="M 0.607198 1.070219 C 0.561206 1.070219 0.469739 1.098641 0.332279 1.155485 L 0.332279 1.101225 L 1.020093 0.747758 L 1.050582 0.756026 L 1.050582 3.084566 C 1.050582 3.178101 1.073319 3.238562 1.119311 3.267501 C 1.165303 3.295923 1.262972 3.311426 1.41335 3.31401 L 1.41335 3.371887 L 0.359151 3.371887 L 0.359151 3.31401 C 0.501778 3.308325 0.596863 3.287655 0.645438 3.251998 C 0.696598 3.212724 0.72192 3.132626 0.72192 3.011186 L 0.72192 1.252637 C 0.72192 1.131197 0.683679 1.070219 0.607198 1.070219 Z M 0.607198 1.070219 " transform="matrix(7.559055,0,0,7.559055,0.00000180222,0)"/>
<path style="fill-rule:nonzero;fill:rgb(95.294118%,71.764708%,85.09804%);fill-opacity:1;stroke-width:0.124168;stroke-linecap:butt;stroke-linejoin:miter;stroke:rgb(90.196079%,0.784314%,70.588237%);stroke-opacity:1;stroke-miterlimit:4;" d="M 1.855184 2.969845 C 1.912545 2.969845 1.960604 2.990515 2.000395 3.031856 C 2.042252 3.073714 2.06344 3.12229 2.06344 3.178101 C 2.06344 3.231844 2.042252 3.278353 2.000395 3.31711 C 1.95802 3.356384 1.908411 3.376022 1.851566 3.376022 C 1.797306 3.376022 1.750281 3.356384 1.71049 3.31711 C 1.670699 3.278353 1.651062 3.231844 1.651062 3.178101 C 1.651062 3.12229 1.670699 3.073714 1.71049 3.031856 C 1.752348 2.990515 1.800924 2.969845 1.855184 2.969845 Z M 1.855184 2.969845 " transform="matrix(7.559055,0,0,7.559055,0.00000180222,0)"/>
<path style="fill-rule:nonzero;fill:rgb(95.294118%,71.764708%,85.09804%);fill-opacity:1;stroke-width:0.132292;stroke-linecap:butt;stroke-linejoin:miter;stroke:rgb(90.196079%,0.784314%,70.588237%);stroke-opacity:1;stroke-miterlimit:4;" d="M 3.654041 3.006018 C 3.495911 3.254582 3.287138 3.378605 3.027205 3.378605 C 2.767273 3.378605 2.5585 3.251998 2.400887 2.998267 C 2.242757 2.745052 2.163692 2.418974 2.163692 2.020032 C 2.163692 1.644861 2.242757 1.331702 2.400887 1.081071 C 2.5585 0.82734 2.772441 0.700732 3.042708 0.700732 C 3.292305 0.700732 3.495911 0.824756 3.654041 1.07332 C 3.811654 1.321366 3.890719 1.644861 3.890719 2.043286 C 3.890719 2.437061 3.811654 2.757971 3.654041 3.006018 Z M 3.031339 0.801502 C 2.69751 0.801502 2.530595 1.219564 2.530595 2.055172 C 2.530595 2.870109 2.695959 3.277836 3.027205 3.277836 C 3.358451 3.277836 3.523816 2.869076 3.523816 2.051554 C 3.523816 1.644861 3.481958 1.335836 3.397725 1.123446 C 3.31401 0.908988 3.191536 0.801502 3.031339 0.801502 Z M 3.031339 0.801502 " transform="matrix(7.559055,0,0,7.559055,0.00000180222,0)"/>
</g>
</svg>
