<?xml version="1.0" encoding="UTF-8" standalone="no"?>
<svg
   xmlns:dc="http://purl.org/dc/elements/1.1/"
   xmlns:cc="http://creativecommons.org/ns#"
   xmlns:rdf="http://www.w3.org/1999/02/22-rdf-syntax-ns#"
   xmlns:svg="http://www.w3.org/2000/svg"
   xmlns="http://www.w3.org/2000/svg"
   xmlns:xlink="http://www.w3.org/1999/xlink"
   xmlns:sodipodi="http://sodipodi.sourceforge.net/DTD/sodipodi-0.dtd"
   xmlns:inkscape="http://www.inkscape.org/namespaces/inkscape"
   height="24"
   viewBox="0 0 6.3499999 6.3500002"
   width="24"
   id="svg2"
   version="1.1"
   inkscape:version="0.91 r13725"
   sodipodi:docname="lc_alphalowliststyle.svg"
   inkscape:export-filename="/home/tamara/Desktop/IKON/5_258 (tamara)/ar/svg/lc_alphalowliststyle.png"
   inkscape:export-xdpi="90"
   inkscape:export-ydpi="90">
  <metadata
     id="metadata45">
    <rdf:RDF>
      <cc:Work
         rdf:about="">
        <dc:format>image/svg+xml</dc:format>
        <dc:type
           rdf:resource="http://purl.org/dc/dcmitype/StillImage" />
        <dc:title />
      </cc:Work>
    </rdf:RDF>
  </metadata>
  <defs
     id="defs43" />
  <sodipodi:namedview
     pagecolor="#ffffff"
     bordercolor="#666666"
     borderopacity="1"
     objecttolerance="10"
     gridtolerance="10"
     guidetolerance="10"
     inkscape:pageopacity="0"
     inkscape:pageshadow="2"
     inkscape:window-width="1366"
     inkscape:window-height="718"
     id="namedview41"
     showgrid="true"
     inkscape:zoom="19.666667"
     inkscape:cx="-9.0329489"
     inkscape:cy="13.078708"
     inkscape:window-x="0"
     inkscape:window-y="0"
     inkscape:window-maximized="1"
     inkscape:current-layer="svg2">
    <inkscape:grid
       type="xygrid"
       id="grid4173"
       spacingx="0.13229166"
       spacingy="0.13229167"
       empspacing="2" />
  </sodipodi:namedview>
  <linearGradient
     id="a">
    <stop
       offset="0"
       stop-color="#06f"
       id="stop5" />
    <stop
       offset="1"
       stop-color="#80b3ff"
       id="stop7" />
  </linearGradient>
  <linearGradient
     id="b"
     gradientUnits="userSpaceOnUse"
     x1="6.7560906"
     x2="6.157489"
     xlink:href="#a"
     y1="272.62256"
     y2="263.13379"
     gradientTransform="matrix(0.225,0,0,0.225,4.0361294,-59.487989)" />
  <linearGradient
     id="c"
     gradientUnits="userSpaceOnUse"
     x1="6.157489"
     x2="4.618117"
     xlink:href="#a"
     y1="289.30313"
     y2="275.44876"
     gradientTransform="matrix(0.225,0,0,0.225,4.1056779,-60.3214)" />
  <g
     id="g11638">
    <g
       transform="translate(-0.10583046,-0.01573963)"
       id="g4191">
      <path
         inkscape:connector-curvature="0"
         style="fill:#f3b7d9;fill-opacity:1;stroke:#9e3a9c;stroke-width:0.0663017;stroke-linecap:round;stroke-linejoin:round;stroke-miterlimit:4;stroke-dasharray:none;stroke-opacity:1"
         id="path13"
         d="m 4.997518,0.75002192 c -0.1017858,2.25e-6 -0.2007048,0.010442 -0.2982108,0.0383244 -1.245e-4,3.383e-5 -3.157e-4,-3.608e-5 -4.398e-4,0 -0.091322,0.025654 -0.1811551,0.066139 -0.2616502,0.12686074 l -0.00265,0.001804 C 4.3591958,0.97489356 4.2943193,1.0504281 4.248688,1.134172 4.206714,1.2106 4.178434,1.2939195 4.164114,1.3786422 c -0.012159,0.072256 -0.00137,0.1465046 0.030835,0.2123164 -0.00331,0.00595 -0.010555,0.0094 -0.013655,0.015426 l -8.818e-4,0.0018 c -0.054527,0.1074041 -0.072681,0.2197791 -0.072681,0.3277246 0,0.089438 0.013373,0.1812135 0.046692,0.2695785 0.032114,0.085171 0.084146,0.1681012 0.1524091,0.2347815 l 0.00309,0.00309 c 0.067783,0.064628 0.1491301,0.1123367 0.2321375,0.142278 l 0.00661,0.00226 c 0.085425,0.028933 0.1730164,0.040525 0.2590074,0.040525 0.1235859,0 0.2502268,-0.039405 0.3656056,-0.1017525 0.083372,0.034775 0.1650581,0.093383 0.2418282,0.093383 0.029466,0 0.057207,-0.00113 0.085015,-0.00352 0.023249,-0.00203 0.045449,-0.00476 0.066513,-0.00794 0.025225,-0.00379 0.050339,-0.00884 0.074883,-0.014975 0.011641,-0.00291 0.026604,-0.00639 0.044049,-0.010577 0.1576053,-0.037875 0.2687053,-0.1788445 0.2686961,-0.3409368 l 0,-0.1594566 c 3.6e-6,-0.118087 -0.059435,-0.2282436 -0.1581353,-0.2930719 l 0,-0.2819128 c 0,-0.1020186 -0.015574,-0.2059158 -0.055942,-0.3061392 C 5.701681,1.1059311 5.6395089,1.0155431 5.560903,0.94515966 5.4818916,0.87377936 5.3877208,0.82297417 5.292205,0.79275087 5.1965632,0.76248697 5.0977599,0.75002417 4.997518,0.75002192 Z"
         sodipodi:nodetypes="ccccccccccscccccscscccccccsccsc" />
      <text
         id="text15"
         y="2.2566063"
         x="4.3954935"
         style="font-size:2.38686109px;font-family:sans-serif;letter-spacing:0;word-spacing:0;fill:#e601b4;fill-opacity:1;stroke-width:0.3175">
        <tspan
           style="font-weight:bold;font-size:2.14817476px;font-family:'Liberation Sans';fill:#e601b4;fill-opacity:1;stroke-width:0.3175"
           id="tspan17"
           y="2.2566063"
           x="4.3954935"
           font-weight="bold"
           font-size="11.429999">a</tspan>
      </text>
    </g>
    <g
       transform="translate(-0.19286158,0)"
       id="g4196">
      <g
         id="g4273"
         transform="matrix(1.0023564,0,0,1.0023564,-0.27972837,0.27087)">
        <path
           d="M 4.798256,3.2788933 A 0.32581377,0.32581377 0 0 0 4.4726213,3.6045268 l 0,1.2946297 c 0,0.054216 -0.00129,0.1010408 -0.00308,0.1397453 a 0.32581377,0.32581377 0 0 0 0,0.00484 c -0.00129,0.041233 -0.00319,0.072137 -0.00439,0.086132 a 0.32581377,0.32581377 0 0 0 0.3247559,0.3533198 l 0.2856445,0 a 0.32581377,0.32581377 0 0 0 0.1195312,-0.022851 c 0.024958,0.00835 0.047884,0.021397 0.073828,0.026806 0.057082,0.011903 0.1131775,0.016695 0.1669922,0.016695 0.1171172,0 0.2384273,-0.02416 0.3471679,-0.082618 l 4.388e-4,0 C 5.8823834,5.368367 5.9709156,5.2894078 6.0348765,5.1953465 a 0.32581377,0.32581377 0 0 0 0.00132,-0.0018 c 0.060539,-0.090214 0.1002065,-0.1910092 0.1243652,-0.2944327 3.7e-5,-1.553e-4 4.028e-4,-2.25e-4 4.388e-4,-4.5e-4 0.023806,-0.09985 0.034717,-0.2039355 0.034717,-0.3115733 0,-0.1053135 -0.01002,-0.2071485 -0.03208,-0.3049807 C 6.1407113,4.1804458 6.1018805,4.0818125 6.0432255,3.99251 5.9828492,3.8988515 5.8978839,3.8176895 5.7993291,3.7635568 5.6908852,3.7032635 5.5701549,3.6787408 5.4543583,3.6787408 c -0.012402,0 -0.024018,0.00826 -0.036475,0.0088 l 0,-0.083059 A 0.32581377,0.32581377 0 0 0 5.092249,3.278846 Z m 0.6060059,1.881738 -0.0022,0.015817 c 4.028e-4,-0.00268 4.973e-4,-0.00565 8.798e-4,-0.00835 2.134e-4,-0.00225 0.00109,-0.00517 0.00132,-0.00747 z"
           id="path21"
           style="fill:#f3b7d9;fill-opacity:1;stroke:#9e3a9c;stroke-width:0.06614584;stroke-linecap:round;stroke-linejoin:round;stroke-miterlimit:4;stroke-dasharray:none;stroke-opacity:1"
           inkscape:connector-curvature="0" />
        <text
           style="font-size:2.3812499px;font-family:sans-serif;letter-spacing:0;word-spacing:0;fill:#e601b4;fill-opacity:1;stroke:none;stroke-width:0.06614584;stroke-linecap:round;stroke-linejoin:round;stroke-miterlimit:4;stroke-dasharray:none;stroke-opacity:1"
           x="4.6487756"
           y="5.1574788"
           id="text23">
          <tspan
             font-size="11.429999"
             font-weight="bold"
             x="4.6487756"
             y="5.1574788"
             id="tspan25"
             style="font-weight:bold;font-size:2.14312482px;font-family:'Liberation Sans';fill:#e601b4;fill-opacity:1;stroke:none;stroke-width:0.06614584;stroke-linecap:round;stroke-linejoin:round;stroke-miterlimit:4;stroke-dasharray:none;stroke-opacity:1">b</tspan>
        </text>
      </g>
    </g>
    <g
       id="g4178"
       transform="translate(0,0.2645832)">
      <rect
         ry="0.13229167"
         rx="0.10176329"
         y="5.291667"
         x="1.0551329"
         height="0.26458335"
         width="2.6458335"
         id="rect4232-3"
         style="opacity:1;fill:#9e3a9c;fill-opacity:1;fill-rule:evenodd;stroke:none;stroke-width:0.40900001;stroke-linecap:round;stroke-linejoin:round;stroke-miterlimit:4;stroke-dasharray:none;stroke-dashoffset:0;stroke-opacity:1" />
      <rect
         style="opacity:1;fill:#9e3a9c;fill-opacity:1;fill-rule:evenodd;stroke:none;stroke-width:0.40900001;stroke-linecap:round;stroke-linejoin:round;stroke-miterlimit:4;stroke-dasharray:none;stroke-dashoffset:0;stroke-opacity:1"
         id="rect4234-6"
         width="3.4395835"
         height="0.26458335"
         x="0.26458308"
         y="4.4979167"
         rx="0.13229226"
         ry="0.13229167" />
      <rect
         ry="0.13229167"
         rx="0.13229226"
         y="3.7041669"
         x="0.26458308"
         height="0.26458335"
         width="3.4395835"
         id="rect4236-7"
         style="opacity:1;fill:#9e3a9c;fill-opacity:1;fill-rule:evenodd;stroke:none;stroke-width:0.40900001;stroke-linecap:round;stroke-linejoin:round;stroke-miterlimit:4;stroke-dasharray:none;stroke-dashoffset:0;stroke-opacity:1" />
    </g>
    <rect
       ry="0.13229167"
       rx="0.10176329"
       y="2.1166668"
       x="1.0551329"
       height="0.26458335"
       width="2.6458335"
       id="rect4185"
       style="opacity:1;fill:#9e3a9c;fill-opacity:1;fill-rule:evenodd;stroke:none;stroke-width:0.40900001;stroke-linecap:round;stroke-linejoin:round;stroke-miterlimit:4;stroke-dasharray:none;stroke-dashoffset:0;stroke-opacity:1" />
    <rect
       style="opacity:1;fill:#9e3a9c;fill-opacity:1;fill-rule:evenodd;stroke:none;stroke-width:0.40900001;stroke-linecap:round;stroke-linejoin:round;stroke-miterlimit:4;stroke-dasharray:none;stroke-dashoffset:0;stroke-opacity:1"
       id="rect4187"
       width="3.4395835"
       height="0.26458335"
       x="0.26458308"
       y="1.3229165"
       rx="0.13229226"
       ry="0.13229167" />
    <rect
       ry="0.13229167"
       rx="0.13229226"
       y="0.5291667"
       x="0.26458308"
       height="0.26458335"
       width="3.4395835"
       id="rect4189"
       style="opacity:1;fill:#9e3a9c;fill-opacity:1;fill-rule:evenodd;stroke:none;stroke-width:0.40900001;stroke-linecap:round;stroke-linejoin:round;stroke-miterlimit:4;stroke-dasharray:none;stroke-dashoffset:0;stroke-opacity:1" />
  </g>
</svg>
