<?xml version="1.0" encoding="UTF-8"?>
<svg xmlns="http://www.w3.org/2000/svg" xmlns:xlink="http://www.w3.org/1999/xlink" width="32px" height="32px" viewBox="0 0 32 32" version="1.1">
<g id="surface1">
<path style=" stroke:none;fill-rule:nonzero;fill:rgb(33.333334%,34.117648%,32.549021%);fill-opacity:1;" d="M 2 4 L 2 8 L 18 8 L 18 4 Z M 24 4 C 24 5.105469 23.105469 6 22 6 L 22 8 L 24 8 L 24 14 L 26 14 L 26 4 Z M 10 10 L 10 14 L 18 14 L 18 10 Z M 2 20 L 2 24 L 18 24 L 18 20 Z M 25 20 C 23.34375 20 22 21.34375 22 23 L 24 23 C 24 22.449219 24.449219 22 25 22 C 25.550781 22 26 22.449219 26 23 C 26 23.277344 25.9375 23.417969 25.824219 23.574219 L 22 28.359375 L 22 30 L 28 30 L 28 28 L 24.796875 28 L 27.320312 24.808594 C 27.621094 24.480469 28 23.945312 28 23 C 28 21.34375 26.65625 20 25 20 Z M 10 26 L 10 30 L 18 30 L 18 26 Z M 10 26 "/>
</g>
</svg>
