<?xml version="1.0" encoding="UTF-8"?>
<svg xmlns="http://www.w3.org/2000/svg" xmlns:xlink="http://www.w3.org/1999/xlink" width="32px" height="32px" viewBox="0 0 32 32" version="1.1">
<g id="surface1">
<path style="fill-rule:nonzero;fill:rgb(95.294118%,71.764708%,85.09804%);fill-opacity:1;stroke-width:0.126922;stroke-linecap:butt;stroke-linejoin:miter;stroke:rgb(90.196079%,0.784314%,70.588237%);stroke-opacity:1;stroke-miterlimit:4;" d="M 4.008024 1.809709 C 4.008024 2.39727 3.781681 2.886646 3.329512 3.27887 C 2.880444 3.66696 2.296501 3.861263 1.577165 3.861263 L 0.225309 3.861263 L 0.225309 3.77548 C 0.378788 3.747058 0.478524 3.712952 0.524516 3.674195 C 0.571024 3.631303 0.615466 3.533118 0.658358 3.380156 L 1.315165 1.018543 C 1.354439 0.88005 1.374076 0.765845 1.374076 0.676961 C 1.374076 0.605648 1.345654 0.555522 1.28881 0.5271 C 1.235067 0.49506 1.126546 0.471806 0.962732 0.457853 L 0.962732 0.37207 L 2.447913 0.37207 C 2.925403 0.37207 3.304708 0.502295 3.585828 0.762227 C 3.867464 1.02216 4.008024 1.371493 4.008024 1.809709 Z M 3.414779 1.681034 C 3.414779 1.546159 3.398759 1.419552 3.36672 1.301729 C 3.338297 1.180807 3.285071 1.059884 3.206523 0.938444 C 3.131592 0.813904 3.014286 0.716235 2.854089 0.644922 C 2.693892 0.569991 2.497522 0.532784 2.266011 0.532784 C 2.159558 0.532784 2.08101 0.545186 2.0314 0.569991 C 1.984892 0.591178 1.954403 0.630453 1.94045 0.687297 L 1.293978 2.995683 C 1.21543 3.273185 1.176155 3.442684 1.176155 3.503146 C 1.176155 3.63492 1.291911 3.70055 1.523421 3.70055 C 2.089795 3.70055 2.546098 3.515548 2.891296 3.145028 C 3.240629 2.774508 3.414779 2.286682 3.414779 1.681034 Z M 3.414779 1.681034 " transform="matrix(7.559055,0,0,7.559055,0.00000180222,0)"/>
</g>
</svg>
