<?xml version="1.0" encoding="UTF-8"?>
<svg xmlns="http://www.w3.org/2000/svg" xmlns:xlink="http://www.w3.org/1999/xlink" width="24px" height="24px" viewBox="0 0 24 24" version="1.1">
<g id="surface1">
<path style="fill-rule:nonzero;fill:rgb(95.294118%,71.764708%,85.09804%);fill-opacity:1;stroke-width:0.126922;stroke-linecap:butt;stroke-linejoin:miter;stroke:rgb(90.196079%,0.784314%,70.588237%);stroke-opacity:1;stroke-miterlimit:4;" d="M 4.008024 1.809364 C 4.008024 2.397098 3.782026 2.88699 3.32934 3.278353 C 2.880789 3.66696 2.296501 3.861263 1.577165 3.861263 L 0.225309 3.861263 L 0.225309 3.775825 C 0.378271 3.746886 0.478179 3.713124 0.524343 3.67385 C 0.571197 3.631131 0.615294 3.53329 0.658013 3.380328 L 1.315337 1.019059 C 1.354611 0.879877 1.373904 0.766189 1.373904 0.676617 C 1.373904 0.605648 1.345654 0.556038 1.288466 0.5271 C 1.235411 0.495405 1.126546 0.471978 0.962559 0.457509 L 0.962559 0.37207 L 2.448085 0.37207 C 2.924886 0.37207 3.304536 0.502295 3.585655 0.762055 C 3.867464 1.022504 4.008024 1.371148 4.008024 1.809364 Z M 3.414779 1.681207 C 3.414779 1.546159 3.398931 1.419379 3.366547 1.302246 C 3.338297 1.180979 3.285243 1.059711 3.206695 0.938444 C 3.131592 0.813732 3.014458 0.715891 2.853917 0.644922 C 2.693376 0.569819 2.497694 0.532612 2.266184 0.532612 C 2.159386 0.532612 2.080838 0.545014 2.031228 0.569819 C 1.985064 0.591178 1.954747 0.630453 1.940278 0.687641 L 1.293978 2.995855 C 1.21543 3.27353 1.176155 3.44234 1.176155 3.502973 C 1.176155 3.634576 1.291911 3.700722 1.523421 3.700722 C 2.089795 3.700722 2.545925 3.515376 2.891124 3.145372 C 3.240457 2.77468 3.414779 2.286855 3.414779 1.681207 Z M 3.414779 1.681207 " transform="matrix(5.669291,0,0,5.669291,0.00000135166,0)"/>
</g>
</svg>
