<?xml version="1.0" encoding="UTF-8"?>
<svg xmlns="http://www.w3.org/2000/svg" xmlns:xlink="http://www.w3.org/1999/xlink" width="24px" height="24px" viewBox="0 0 24 24" version="1.1">
<g id="surface1">
<path style=" stroke:none;fill-rule:nonzero;fill:rgb(61.56863%,22.745098%,60.784316%);fill-opacity:1;" d="M 0.335938 22.5 L 23.664062 22.5 C 23.851562 22.5 24 22.691406 24 22.929688 L 24 23.570312 C 24 23.808594 23.851562 24 23.664062 24 L 0.335938 24 C 0.148438 24 0 23.808594 0 23.570312 L 0 22.929688 C 0 22.691406 0.148438 22.5 0.335938 22.5 Z M 0.335938 22.5 "/>
<path style=" stroke:none;fill-rule:nonzero;fill:rgb(61.56863%,22.745098%,60.784316%);fill-opacity:1;" d="M 0.335938 19.5 L 23.664062 19.5 C 23.851562 19.5 24 19.691406 24 19.929688 L 24 20.570312 C 24 20.808594 23.851562 21 23.664062 21 L 0.335938 21 C 0.148438 21 0 20.808594 0 20.570312 L 0 19.929688 C 0 19.691406 0.148438 19.5 0.335938 19.5 Z M 0.335938 19.5 "/>
<path style="fill-rule:nonzero;fill:rgb(95.294118%,71.764708%,85.09804%);fill-opacity:1;stroke-width:0.0653871;stroke-linecap:butt;stroke-linejoin:miter;stroke:rgb(90.196079%,0.784314%,70.588237%);stroke-opacity:1;stroke-miterlimit:4;" d="M 3.950146 3.0558 L 3.950146 3.142616 L 2.595535 3.142616 L 2.595535 3.0558 C 2.737473 3.052355 2.834624 3.040641 2.887679 3.019282 C 2.941422 2.997922 2.967605 2.957959 2.967605 2.900082 C 2.967605 2.826357 2.933843 2.724382 2.867008 2.592779 L 2.648589 2.152496 L 1.25746 2.152496 L 1.012858 2.689242 C 0.984608 2.75332 0.970139 2.812576 0.970139 2.867698 C 0.970139 2.993099 1.090717 3.0558 1.331874 3.0558 L 1.331874 3.142616 L 0.279742 3.142616 L 0.279742 3.0558 C 0.410655 3.049599 0.511941 3.00688 0.582221 2.927642 C 0.656635 2.84496 0.775835 2.636876 0.938444 2.30408 L 2.043631 0.0537435 L 2.149739 0.0537435 L 3.471967 2.656858 C 3.557406 2.824978 3.628375 2.931776 3.684874 2.977941 C 3.741374 3.023416 3.830257 3.049599 3.950146 3.0558 Z M 1.347721 1.965083 L 2.574864 1.965083 L 1.958192 0.704867 Z M 1.347721 1.965083 " transform="matrix(5.669291,0,0,5.669291,0.00000135166,0)"/>
</g>
</svg>
