<?xml version="1.0" encoding="UTF-8" standalone="no"?>
<svg
   xmlns:dc="http://purl.org/dc/elements/1.1/"
   xmlns:cc="http://creativecommons.org/ns#"
   xmlns:rdf="http://www.w3.org/1999/02/22-rdf-syntax-ns#"
   xmlns:svg="http://www.w3.org/2000/svg"
   xmlns="http://www.w3.org/2000/svg"
   xmlns:sodipodi="http://sodipodi.sourceforge.net/DTD/sodipodi-0.dtd"
   xmlns:inkscape="http://www.inkscape.org/namespaces/inkscape"
   height="24"
   viewBox="0 0 6.3499999 6.3500002"
   width="24"
   version="1.1"
   id="svg22"
   sodipodi:docname="lc_underlinedouble.svg"
   inkscape:version="0.92.4 (unknown)"
   inkscape:export-filename="/home/annisaauliarasyidah/Desktop/4_242 (aulia)/hu/lc_underlinedouble.png"
   inkscape:export-xdpi="96"
   inkscape:export-ydpi="96">
  <metadata
     id="metadata28">
    <rdf:RDF>
      <cc:Work
         rdf:about="">
        <dc:format>image/svg+xml</dc:format>
        <dc:type
           rdf:resource="http://purl.org/dc/dcmitype/StillImage" />
      </cc:Work>
    </rdf:RDF>
  </metadata>
  <defs
     id="defs26" />
  <sodipodi:namedview
     pagecolor="#ffffff"
     bordercolor="#666666"
     borderopacity="1"
     objecttolerance="10"
     gridtolerance="10"
     guidetolerance="10"
     inkscape:pageopacity="0"
     inkscape:pageshadow="2"
     inkscape:window-width="1366"
     inkscape:window-height="707"
     id="namedview24"
     showgrid="true"
     inkscape:snap-global="false"
     inkscape:zoom="27.812867"
     inkscape:cx="-1.7050149"
     inkscape:cy="12"
     inkscape:window-x="0"
     inkscape:window-y="0"
     inkscape:window-maximized="1"
     inkscape:current-layer="svg22">
    <inkscape:grid
       type="xygrid"
       id="grid839" />
  </sodipodi:namedview>
  <linearGradient
     id="a"
     gradientUnits="userSpaceOnUse"
     x1="10.25343"
     x2="22.945162"
     y1="12.223802"
     y2="12.223802"
     gradientTransform="matrix(0.171875,0,0,0.171875,0.264583,0.264583)">
    <stop
       offset="0"
       stop-color="#3b3e22"
       id="stop2" />
    <stop
       offset="1"
       stop-color="#454545"
       stop-opacity="0"
       id="stop4" />
  </linearGradient>
  <linearGradient
     id="b"
     gradientUnits="userSpaceOnUse"
     x1="15.216479"
     x2="16.17994"
     y1="27.898503"
     y2="5.738897"
     gradientTransform="matrix(0.17987807,0,0,0.164228,0.264583,0.264583)">
    <stop
       offset="0"
       stop-color="#555"
       id="stop7" />
    <stop
       offset="1"
       id="stop9" />
  </linearGradient>
  <path
     inkscape:connector-curvature="0"
     style="fill:#f3b7d9;stroke:#e602b4;stroke-width:0.1376901"
     id="path12"
     d="M 5.3163174,4.601091 V 4.7063122 H 3.7695658 V 4.601091 Q 4.0121936,4.595551 4.103179,4.556787 4.194164,4.518021 4.194164,4.4128003 q 0,-0.1329109 -0.1152483,-0.3710429 L 3.8302228,3.510114 H 2.2410116 L 1.9619897,4.1580547 q -0.048526,0.1162969 -0.048526,0.2159802 0,0.2270561 0.4124669,0.2270561 V 4.7063122 H 1.1249242 V 4.601091 Q 1.3493548,4.5900154 1.4706687,4.4460282 1.5980482,4.2965035 1.87707,3.6928666 L 3.1387339,0.97373121 h 0.121314 L 4.770405,4.119289 q 0.1455766,0.3045875 0.2426277,0.3876568 0.097051,0.083069 0.3032847,0.094145 z M 2.3441283,3.283058 H 3.7453031 L 3.0416829,1.7601207 Z" />
  <path
     style="fill:#9d3a9b;stroke-width:0.0454752"
     inkscape:connector-curvature="0"
     id="path14"
     d="m 0.8748801,5.2916775 h 4.6001575 c 0.04495,0 0.081138,0.046548 0.081138,0.1043667 v 0.055846 c 0,0.057819 -0.036188,0.1043667 -0.081138,0.1043667 H 0.8748801 c -0.0449504,0 -0.0811379,-0.046548 -0.0811379,-0.1043667 v -0.055846 c 0,-0.057819 0.0361875,-0.1043667 0.0811379,-0.1043667 z" />
  <path
     style="fill:#9d3a9b;stroke-width:0.0454752"
     inkscape:connector-curvature="0"
     id="path18"
     d="m 0.8748801,5.8208442 h 4.6001575 c 0.04495,0 0.081138,0.046548 0.081138,0.1043666 v 0.055846 c 0,0.057819 -0.036188,0.1043667 -0.081138,0.1043667 H 0.8748801 c -0.0449504,0 -0.0811379,-0.046548 -0.0811379,-0.1043667 v -0.055846 c 0,-0.057819 0.0361875,-0.1043666 0.0811379,-0.1043666 z" />
</svg>
