<?xml version="1.0" encoding="UTF-8"?>
<svg xmlns="http://www.w3.org/2000/svg" xmlns:xlink="http://www.w3.org/1999/xlink" width="32px" height="32px" viewBox="0 0 32 32" version="1.1">
<g id="surface1">
<path style="fill-rule:nonzero;fill:rgb(95.294118%,71.764708%,85.09804%);fill-opacity:1;stroke-width:0.128434;stroke-linecap:butt;stroke-linejoin:miter;stroke:rgb(90.196079%,0.784314%,70.588237%);stroke-opacity:1;stroke-miterlimit:4;" d="M 3.904154 3.275769 L 3.904154 3.365169 L 2.583822 3.365169 L 2.583822 3.275769 C 2.721798 3.272669 2.816882 3.260266 2.868559 3.238562 C 2.920235 3.216341 2.946073 3.176034 2.946073 3.116606 C 2.946073 3.041675 2.913517 2.936772 2.847888 2.802413 L 2.635498 2.352311 L 1.278475 2.352311 L 1.040246 2.900598 C 1.012341 2.966227 0.998905 3.027206 0.998905 3.083533 C 0.998905 3.21169 1.116211 3.275769 1.350822 3.275769 L 1.350822 3.365169 L 0.325561 3.365169 L 0.325561 3.275769 C 0.453202 3.269568 0.551387 3.225643 0.620634 3.144511 C 0.692981 3.060279 0.808736 2.847888 0.967899 2.506824 L 2.044836 0.204639 L 2.148706 0.204639 L 3.438033 2.868042 C 3.521232 3.040125 3.589962 3.149162 3.645256 3.196188 C 3.700549 3.243213 3.786849 3.269568 3.904154 3.275769 Z M 1.366325 2.160075 L 2.563151 2.160075 L 1.962154 0.870748 Z M 1.366325 2.160075 " transform="matrix(7.559055,0,0,7.559055,0.00000180222,0)"/>
<path style=" stroke:none;fill-rule:nonzero;fill:rgb(61.56863%,22.745098%,60.784316%);fill-opacity:1;" d="M 0.445312 30 L 31.554688 30 C 31.800781 30 32 30.257812 32 30.574219 L 32 31.425781 C 32 31.742188 31.800781 32 31.554688 32 L 0.445312 32 C 0.199219 32 0 31.742188 0 31.425781 L 0 30.574219 C 0 30.257812 0.199219 30 0.445312 30 Z M 0.445312 30 "/>
</g>
</svg>
