<?xml version="1.0" encoding="UTF-8"?>
<svg xmlns="http://www.w3.org/2000/svg" xmlns:xlink="http://www.w3.org/1999/xlink" width="32px" height="32px" viewBox="0 0 32 32" version="1.1">
<g id="surface1">
<path style=" stroke:none;fill-rule:nonzero;fill:rgb(61.56863%,22.745098%,60.784316%);fill-opacity:1;" d="M 0.445312 30 L 31.554688 30 C 31.800781 30 32 30.257812 32 30.574219 L 32 31.425781 C 32 31.742188 31.800781 32 31.554688 32 L 0.445312 32 C 0.199219 32 0 31.742188 0 31.425781 L 0 30.574219 C 0 30.257812 0.199219 30 0.445312 30 Z M 0.445312 30 "/>
<path style=" stroke:none;fill-rule:nonzero;fill:rgb(61.56863%,22.745098%,60.784316%);fill-opacity:1;" d="M 0.445312 26 L 31.554688 26 C 31.800781 26 32 26.257812 32 26.574219 L 32 27.425781 C 32 27.742188 31.800781 28 31.554688 28 L 0.445312 28 C 0.199219 28 0 27.742188 0 27.425781 L 0 26.574219 C 0 26.257812 0.199219 26 0.445312 26 Z M 0.445312 26 "/>
<path style="fill-rule:nonzero;fill:rgb(95.294118%,71.764708%,85.09804%);fill-opacity:1;stroke-width:0.0653871;stroke-linecap:butt;stroke-linejoin:miter;stroke:rgb(90.196079%,0.784314%,70.588237%);stroke-opacity:1;stroke-miterlimit:4;" d="M 3.950146 3.055628 L 3.950146 3.142961 L 2.595707 3.142961 L 2.595707 3.055628 C 2.737301 3.052527 2.834969 3.040125 2.888196 3.018937 C 2.940906 2.99775 2.967777 2.957959 2.967777 2.899565 C 2.967777 2.826701 2.934188 2.724382 2.866492 2.592607 L 2.648934 2.15284 L 1.257287 2.15284 L 1.012858 2.689242 C 0.984436 2.75332 0.970483 2.812748 0.970483 2.867525 C 0.970483 2.993099 1.090889 3.055628 1.331702 3.055628 L 1.331702 3.142961 L 0.279569 3.142961 L 0.279569 3.055628 C 0.410827 3.049426 0.511596 3.006535 0.582393 2.92747 C 0.656807 2.844788 0.775663 2.637048 0.938444 2.304252 L 2.043286 0.0537435 L 2.149739 0.0537435 L 3.472139 2.656686 C 3.557406 2.825151 3.628202 2.932121 3.68453 2.977596 C 3.741374 3.023588 3.82974 3.049426 3.950146 3.055628 Z M 1.347721 1.964738 L 2.57452 1.964738 L 1.958537 0.704867 Z M 1.347721 1.964738 " transform="matrix(7.559055,0,0,7.559055,0.00000180222,0)"/>
</g>
</svg>
