<?xml version="1.0" encoding="UTF-8"?>
<svg xmlns="http://www.w3.org/2000/svg" xmlns:xlink="http://www.w3.org/1999/xlink" width="32px" height="32px" viewBox="0 0 32 32" version="1.1">
<g id="surface1">
<path style="fill-rule:evenodd;fill:rgb(95.294118%,71.764708%,85.09804%);fill-opacity:1;stroke-width:0.0723461;stroke-linecap:round;stroke-linejoin:round;stroke:rgb(61.960787%,22.745098%,61.176473%);stroke-opacity:1;stroke-miterlimit:4;" d="M 5.806751 4.30459 C 5.806751 4.667069 5.512689 4.960971 5.15034 4.960971 C 4.787377 4.960971 4.493315 4.667069 4.493315 4.30459 C 4.493315 3.941499 4.787377 3.647597 5.15034 3.647597 C 5.512689 3.647597 5.806751 3.941499 5.806751 4.30459 Z M 5.806751 4.30459 " transform="matrix(6.349639,0,0,6.379679,-7.187175,-4.29003)"/>
<path style=" stroke:none;fill-rule:nonzero;fill:rgb(90.196079%,0.392157%,70.588237%);fill-opacity:1;" d="M 24.125 23.171875 C 24.125 23.941406 24.746094 24.566406 25.515625 24.566406 C 26.28125 24.566406 26.902344 23.941406 26.902344 23.171875 C 26.902344 22.398438 26.28125 21.773438 25.515625 21.773438 C 24.746094 21.773438 24.125 22.398438 24.125 23.171875 Z M 24.125 23.171875 "/>
<path style="fill-rule:evenodd;fill:rgb(95.294118%,71.764708%,85.09804%);fill-opacity:1;stroke-width:0.0723461;stroke-linecap:round;stroke-linejoin:round;stroke:rgb(61.960787%,22.745098%,61.176473%);stroke-opacity:1;stroke-miterlimit:4;" d="M 5.80672 4.304462 C 5.80672 4.666941 5.512658 4.960843 5.150309 4.960843 C 4.787346 4.960843 4.493284 4.666941 4.493284 4.304462 C 4.493284 3.941983 4.787346 3.648081 5.150309 3.648081 C 5.512658 3.648081 5.80672 3.941983 5.80672 4.304462 Z M 5.80672 4.304462 " transform="matrix(6.349639,0,0,6.379679,-7.167446,-17.945463)"/>
<path style=" stroke:none;fill-rule:nonzero;fill:rgb(90.196079%,0.392157%,70.588237%);fill-opacity:1;" d="M 24.144531 9.515625 C 24.144531 10.285156 24.765625 10.910156 25.535156 10.910156 C 26.300781 10.910156 26.921875 10.285156 26.921875 9.515625 C 26.921875 8.746094 26.300781 8.117188 25.535156 8.117188 C 24.765625 8.117188 24.144531 8.746094 24.144531 9.515625 Z M 24.144531 9.515625 "/>
<path style=" stroke:none;fill-rule:evenodd;fill:rgb(61.960787%,22.745098%,61.176473%);fill-opacity:1;" d="M 7 24 L 17 24 C 17.550781 24 18 24.449219 18 25 C 18 25.550781 17.550781 26 17 26 L 7 26 C 6.449219 26 6 25.550781 6 25 C 6 24.449219 6.449219 24 7 24 Z M 7 24 "/>
<path style=" stroke:none;fill-rule:evenodd;fill:rgb(61.960787%,22.745098%,61.176473%);fill-opacity:1;" d="M 7 10 L 17 10 C 17.550781 10 18 10.449219 18 11 C 18 11.550781 17.550781 12 17 12 L 7 12 C 6.449219 12 6 11.550781 6 11 C 6 10.449219 6.449219 10 7 10 Z M 7 10 "/>
<path style=" stroke:none;fill-rule:evenodd;fill:rgb(61.960787%,22.745098%,61.176473%);fill-opacity:1;" d="M 3 20 L 17 20 C 17.550781 20 18 20.449219 18 21 C 18 21.550781 17.550781 22 17 22 L 3 22 C 2.449219 22 2 21.550781 2 21 C 2 20.449219 2.449219 20 3 20 Z M 3 20 "/>
<path style=" stroke:none;fill-rule:evenodd;fill:rgb(61.960787%,22.745098%,61.176473%);fill-opacity:1;" d="M 3 6 L 17 6 C 17.550781 6 18 6.449219 18 7 C 18 7.550781 17.550781 8 17 8 L 3 8 C 2.449219 8 2 7.550781 2 7 C 2 6.449219 2.449219 6 3 6 Z M 3 6 "/>
</g>
</svg>
