<?xml version="1.0" encoding="UTF-8"?>
<svg xmlns="http://www.w3.org/2000/svg" xmlns:xlink="http://www.w3.org/1999/xlink" width="32px" height="32px" viewBox="0 0 32 32" version="1.1">
<g id="surface1">
<path style=" stroke:none;fill-rule:evenodd;fill:rgb(90.196079%,0.392157%,70.588237%);fill-opacity:1;" d="M 3 20 L 17 20 C 17.550781 20 18 20.449219 18 21 C 18 21.550781 17.550781 22 17 22 L 3 22 C 2.449219 22 2 21.550781 2 21 C 2 20.449219 2.449219 20 3 20 Z M 3 20 "/>
<path style=" stroke:none;fill-rule:evenodd;fill:rgb(90.196079%,0.392157%,70.588237%);fill-opacity:1;" d="M 7 24 L 17 24 C 17.550781 24 18 24.449219 18 25 C 18 25.550781 17.550781 26 17 26 L 7 26 C 6.449219 26 6 25.550781 6 25 C 6 24.449219 6.449219 24 7 24 Z M 7 24 "/>
<path style="fill-rule:evenodd;fill:rgb(95.294118%,71.764708%,85.09804%);fill-opacity:1;stroke-width:0.0723461;stroke-linecap:round;stroke-linejoin:round;stroke:rgb(61.960787%,22.745098%,61.176473%);stroke-opacity:1;stroke-miterlimit:4;" d="M 5.806904 4.304419 C 5.806904 4.66681 5.51297 4.961253 5.150309 4.961253 C 4.787647 4.961253 4.493713 4.66681 4.493713 4.304419 C 4.493713 3.942027 4.787647 3.647585 5.150309 3.647585 C 5.51297 3.647585 5.806904 3.942027 5.806904 4.304419 Z M 5.806904 4.304419 " transform="matrix(6.365698,0,0,6.381224,-7.250154,-18.291678)"/>
<path style=" stroke:none;fill-rule:nonzero;fill:rgb(90.196079%,0.392157%,70.588237%);fill-opacity:1;" d="M 24.140625 9.175781 C 24.140625 9.945312 24.765625 10.570312 25.535156 10.570312 C 26.304688 10.570312 26.925781 9.945312 26.925781 9.175781 C 26.925781 8.40625 26.304688 7.777344 25.535156 7.777344 C 24.765625 7.777344 24.140625 8.40625 24.140625 9.175781 Z M 24.140625 9.175781 "/>
<path style=" stroke:none;fill-rule:evenodd;fill:rgb(90.196079%,0.392157%,70.588237%);fill-opacity:1;" d="M 3 20 L 17 20 C 17.550781 20 18 20.449219 18 21 C 18 21.550781 17.550781 22 17 22 L 3 22 C 2.449219 22 2 21.550781 2 21 C 2 20.449219 2.449219 20 3 20 Z M 3 20 "/>
<path style=" stroke:none;fill-rule:evenodd;fill:rgb(90.196079%,0.392157%,70.588237%);fill-opacity:1;" d="M 7 24 L 17 24 C 17.550781 24 18 24.449219 18 25 C 18 25.550781 17.550781 26 17 26 L 7 26 C 6.449219 26 6 25.550781 6 25 C 6 24.449219 6.449219 24 7 24 Z M 7 24 "/>
<path style=" stroke:none;fill-rule:evenodd;fill:rgb(61.960787%,22.745098%,61.176473%);fill-opacity:1;" d="M 3 6 L 17 6 C 17.550781 6 18 6.449219 18 7 C 18 7.550781 17.550781 8 17 8 L 3 8 C 2.449219 8 2 7.550781 2 7 C 2 6.449219 2.449219 6 3 6 Z M 3 6 "/>
<path style=" stroke:none;fill-rule:evenodd;fill:rgb(61.960787%,22.745098%,61.176473%);fill-opacity:1;" d="M 7 10 L 17 10 C 17.550781 10 18 10.449219 18 11 C 18 11.550781 17.550781 12 17 12 L 7 12 C 6.449219 12 6 11.550781 6 11 C 6 10.449219 6.449219 10 7 10 Z M 7 10 "/>
</g>
</svg>
