<?xml version="1.0" encoding="UTF-8"?>
<svg xmlns="http://www.w3.org/2000/svg" xmlns:xlink="http://www.w3.org/1999/xlink" width="24px" height="24px" viewBox="0 0 24 24" version="1.1">
<g id="surface1">
<path style=" stroke:none;fill-rule:nonzero;fill:rgb(33.333334%,34.117648%,32.549021%);fill-opacity:1;" d="M 1.5 3 L 1.5 6 L 13.5 6 L 13.5 3 Z M 18 3 C 18 3.828125 17.328125 4.5 16.5 4.5 L 16.5 6 L 18 6 L 18 10.5 L 19.5 10.5 L 19.5 3 Z M 7.5 7.5 L 7.5 10.5 L 13.5 10.5 L 13.5 7.5 Z M 1.5 15 L 1.5 18 L 13.5 18 L 13.5 15 Z M 18.75 15 C 17.507812 15 16.5 16.007812 16.5 17.25 L 18 17.25 C 18 16.835938 18.335938 16.5 18.75 16.5 C 19.164062 16.5 19.5 16.835938 19.5 17.25 C 19.5 17.457031 19.453125 17.5625 19.367188 17.679688 L 16.5 21.269531 L 16.5 22.5 L 21 22.5 L 21 21 L 18.597656 21 L 20.488281 18.605469 C 20.714844 18.359375 21 17.960938 21 17.25 C 21 16.007812 19.992188 15 18.75 15 Z M 7.5 19.5 L 7.5 22.5 L 13.5 22.5 L 13.5 19.5 Z M 7.5 19.5 "/>
</g>
</svg>
