<?xml version="1.0" encoding="UTF-8"?>
<svg xmlns="http://www.w3.org/2000/svg" xmlns:xlink="http://www.w3.org/1999/xlink" width="24px" height="24px" viewBox="0 0 24 24" version="1.1">
<g id="surface1">
<path style=" stroke:none;fill-rule:evenodd;fill:rgb(61.960787%,22.745098%,61.176473%);fill-opacity:1;" d="M 5.25 18 L 12.75 18 C 13.164062 18 13.5 18.335938 13.5 18.75 C 13.5 19.164062 13.164062 19.5 12.75 19.5 L 5.25 19.5 C 4.835938 19.5 4.5 19.164062 4.5 18.75 C 4.5 18.335938 4.835938 18 5.25 18 Z M 5.25 18 "/>
<path style=" stroke:none;fill-rule:evenodd;fill:rgb(61.960787%,22.745098%,61.176473%);fill-opacity:1;" d="M 2.25 15 L 12.75 15 C 13.164062 15 13.5 15.335938 13.5 15.75 C 13.5 16.164062 13.164062 16.5 12.75 16.5 L 2.25 16.5 C 1.835938 16.5 1.5 16.164062 1.5 15.75 C 1.5 15.335938 1.835938 15 2.25 15 Z M 2.25 15 "/>
<path style="fill-rule:evenodd;fill:rgb(95.294118%,71.764708%,85.09804%);fill-opacity:1;stroke-width:0.0723461;stroke-linecap:round;stroke-linejoin:round;stroke:rgb(61.960787%,22.745098%,61.176473%);stroke-opacity:1;stroke-miterlimit:4;" d="M 5.806546 4.30459 C 5.806546 4.667069 5.512894 4.960971 5.15034 4.960971 C 4.787787 4.960971 4.493315 4.667069 4.493315 4.30459 C 4.493315 3.942111 4.787787 3.647393 5.15034 3.647393 C 5.512894 3.647393 5.806546 3.942111 5.806546 4.30459 Z M 5.806546 4.30459 " transform="matrix(4.762229,0,0,4.78476,-5.390381,-3.217523)"/>
<path style=" stroke:none;fill-rule:nonzero;fill:rgb(90.196079%,0.392157%,70.588237%);fill-opacity:1;" d="M 18.09375 17.378906 C 18.09375 17.957031 18.558594 18.425781 19.136719 18.425781 C 19.710938 18.425781 20.179688 17.957031 20.179688 17.378906 C 20.179688 16.800781 19.710938 16.332031 19.136719 16.332031 C 18.558594 16.332031 18.09375 16.800781 18.09375 17.378906 Z M 18.09375 17.378906 "/>
<path style=" stroke:none;fill-rule:evenodd;fill:rgb(61.960787%,22.745098%,61.176473%);fill-opacity:1;" d="M 5.25 7.5 L 12.75 7.5 C 13.164062 7.5 13.5 7.835938 13.5 8.25 C 13.5 8.664062 13.164062 9 12.75 9 L 5.25 9 C 4.835938 9 4.5 8.664062 4.5 8.25 C 4.5 7.835938 4.835938 7.5 5.25 7.5 Z M 5.25 7.5 "/>
<path style=" stroke:none;fill-rule:evenodd;fill:rgb(61.960787%,22.745098%,61.176473%);fill-opacity:1;" d="M 2.25 4.5 L 12.75 4.5 C 13.164062 4.5 13.5 4.835938 13.5 5.25 C 13.5 5.664062 13.164062 6 12.75 6 L 2.25 6 C 1.835938 6 1.5 5.664062 1.5 5.25 C 1.5 4.835938 1.835938 4.5 2.25 4.5 Z M 2.25 4.5 "/>
<path style="fill-rule:evenodd;fill:rgb(95.294118%,71.764708%,85.09804%);fill-opacity:1;stroke-width:0.0723461;stroke-linecap:round;stroke-linejoin:round;stroke:rgb(61.960787%,22.745098%,61.176473%);stroke-opacity:1;stroke-miterlimit:4;" d="M 5.806771 4.304115 C 5.806771 4.667411 5.513119 4.961313 5.149745 4.961313 C 4.787192 4.961313 4.49354 4.667411 4.49354 4.304115 C 4.49354 3.941636 4.787192 3.647735 5.149745 3.647735 C 5.513119 3.647735 5.806771 3.941636 5.806771 4.304115 Z M 5.806771 4.304115 " transform="matrix(4.762229,0,0,4.78476,-5.55161,-13.273845)"/>
<path style=" stroke:none;fill-rule:nonzero;fill:rgb(90.196079%,0.392157%,70.588237%);fill-opacity:1;" d="M 17.933594 7.320312 C 17.933594 7.898438 18.398438 8.367188 18.972656 8.367188 C 19.550781 8.367188 20.015625 7.898438 20.015625 7.320312 C 20.015625 6.742188 19.550781 6.273438 18.972656 6.273438 C 18.398438 6.273438 17.933594 6.742188 17.933594 7.320312 Z M 17.933594 7.320312 "/>
<path style="fill-rule:nonzero;fill:rgb(94.117647%,89.019608%,92.54902%);fill-opacity:1;stroke-width:0.0632354;stroke-linecap:round;stroke-linejoin:round;stroke:rgb(61.960787%,22.745098%,61.176473%);stroke-opacity:1;stroke-miterlimit:4;" d="M 0.3411 2.677089 L 2.304032 2.677089 C 2.475433 2.677089 2.614105 2.788707 2.614105 2.924934 L 2.614105 6.070457 C 2.614105 6.207562 2.475433 6.318302 2.304032 6.318302 L 0.3411 6.318302 C 0.17056 6.318302 0.0318882 6.207562 0.0318882 6.070457 L 0.0318882 2.924934 C 0.0318882 2.788707 0.17056 2.677089 0.3411 2.677089 Z M 0.3411 2.677089 " transform="matrix(4.535227,0,0,4.444562,-0.0000887842,-4.222707)"/>
<path style="fill-rule:nonzero;fill:rgb(95.294118%,71.764708%,85.09804%);fill-opacity:1;stroke-width:0.0524509;stroke-linecap:round;stroke-linejoin:round;stroke:rgb(61.960787%,22.745098%,61.176473%);stroke-opacity:1;stroke-miterlimit:4;" d="M 0.480632 2.93636 L 2.16536 2.93636 C 2.269579 2.93636 2.354849 3.028642 2.354849 3.142018 L 2.354849 5.854251 C 2.354849 5.967627 2.269579 6.059031 2.16536 6.059031 L 0.480632 6.059031 C 0.375552 6.059031 0.291143 5.967627 0.291143 5.854251 L 0.291143 3.142018 C 0.291143 3.028642 0.375552 2.93636 0.480632 2.93636 Z M 0.480632 2.93636 " transform="matrix(4.535227,0,0,4.444562,-0.0000887842,-4.222707)"/>
<path style="fill-rule:nonzero;fill:rgb(61.960787%,22.745098%,61.176473%);fill-opacity:1;stroke-width:0.0302575;stroke-linecap:round;stroke-linejoin:round;stroke:rgb(61.960787%,22.745098%,61.176473%);stroke-opacity:1;stroke-miterlimit:4;" d="M 0.821712 3.454901 L 1.823419 3.454901 C 1.831171 3.454901 1.8372 3.463689 1.8372 3.474236 L 1.8372 5.522033 C 1.8372 5.53258 1.831171 5.541369 1.823419 5.541369 L 0.821712 5.541369 C 0.814822 5.541369 0.808792 5.53258 0.808792 5.522033 L 0.808792 3.474236 C 0.808792 3.463689 0.814822 3.454901 0.821712 3.454901 Z M 0.821712 3.454901 " transform="matrix(4.535227,0,0,4.444562,-0.0000887842,-4.222707)"/>
<path style=" stroke:none;fill-rule:nonzero;fill:rgb(94.117647%,89.019608%,92.54902%);fill-opacity:1;" d="M 4.277344 11.664062 L 7.722656 11.664062 C 7.746094 11.664062 7.765625 11.699219 7.765625 11.742188 L 7.765625 19.796875 C 7.765625 19.839844 7.746094 19.875 7.722656 19.875 L 4.277344 19.875 C 4.253906 19.875 4.230469 19.839844 4.230469 19.796875 L 4.230469 11.742188 C 4.230469 11.699219 4.253906 11.664062 4.277344 11.664062 Z M 4.277344 11.664062 "/>
<path style=" stroke:none;fill-rule:nonzero;fill:rgb(90.196079%,0.392157%,70.588237%);fill-opacity:1;" d="M 4.832031 12.242188 L 7.167969 12.242188 C 7.1875 12.242188 7.199219 12.253906 7.199219 12.273438 L 7.199219 15.734375 C 7.199219 15.753906 7.1875 15.769531 7.167969 15.769531 L 4.832031 15.769531 C 4.8125 15.769531 4.800781 15.753906 4.800781 15.734375 L 4.800781 12.273438 C 4.800781 12.253906 4.8125 12.242188 4.832031 12.242188 Z M 4.832031 12.242188 "/>
<path style=" stroke:none;fill-rule:nonzero;fill:rgb(61.960787%,22.745098%,61.176473%);fill-opacity:1;" d="M 4.832031 15.769531 L 7.167969 15.769531 C 7.1875 15.769531 7.199219 15.792969 7.199219 15.824219 L 7.199219 21.59375 C 7.199219 21.625 7.1875 21.648438 7.167969 21.648438 L 4.832031 21.648438 C 4.8125 21.648438 4.800781 21.625 4.800781 21.59375 L 4.800781 15.824219 C 4.800781 15.792969 4.8125 15.769531 4.832031 15.769531 Z M 4.832031 15.769531 "/>
<path style=" stroke:none;fill-rule:nonzero;fill:rgb(90.196079%,0.392157%,70.588237%);fill-opacity:1;" d="M 4.832031 12.242188 L 7.167969 12.242188 C 7.1875 12.242188 7.199219 12.253906 7.199219 12.273438 L 7.199219 15.734375 C 7.199219 15.753906 7.1875 15.769531 7.167969 15.769531 L 4.832031 15.769531 C 4.8125 15.769531 4.800781 15.753906 4.800781 15.734375 L 4.800781 12.273438 C 4.800781 12.253906 4.8125 12.242188 4.832031 12.242188 Z M 4.832031 12.242188 "/>
</g>
</svg>
