<?xml version="1.0" encoding="UTF-8" standalone="no"?>
<svg
   xmlns:dc="http://purl.org/dc/elements/1.1/"
   xmlns:cc="http://creativecommons.org/ns#"
   xmlns:rdf="http://www.w3.org/1999/02/22-rdf-syntax-ns#"
   xmlns:svg="http://www.w3.org/2000/svg"
   xmlns="http://www.w3.org/2000/svg"
   xmlns:xlink="http://www.w3.org/1999/xlink"
   xmlns:sodipodi="http://sodipodi.sourceforge.net/DTD/sodipodi-0.dtd"
   xmlns:inkscape="http://www.inkscape.org/namespaces/inkscape"
   height="24"
   viewBox="0 0 6.3499999 6.3500002"
   width="24"
   id="svg2"
   version="1.1"
   inkscape:version="0.91 r13725"
   sodipodi:docname="lc_romanliststyle.svg"
   inkscape:export-filename="/home/tamara/Desktop/IKON/5_258 (tamara)/ar/lc_romanliststyle.png"
   inkscape:export-xdpi="90"
   inkscape:export-ydpi="90">
  <metadata
     id="metadata46">
    <rdf:RDF>
      <cc:Work
         rdf:about="">
        <dc:format>image/svg+xml</dc:format>
        <dc:type
           rdf:resource="http://purl.org/dc/dcmitype/StillImage" />
      </cc:Work>
    </rdf:RDF>
  </metadata>
  <defs
     id="defs44" />
  <sodipodi:namedview
     pagecolor="#ffffff"
     bordercolor="#666666"
     borderopacity="1"
     objecttolerance="10"
     gridtolerance="10"
     guidetolerance="10"
     inkscape:pageopacity="0"
     inkscape:pageshadow="2"
     inkscape:window-width="1366"
     inkscape:window-height="718"
     id="namedview42"
     showgrid="true"
     inkscape:zoom="13.906433"
     inkscape:cx="7.6635508"
     inkscape:cy="13.937288"
     inkscape:window-x="0"
     inkscape:window-y="0"
     inkscape:window-maximized="1"
     inkscape:current-layer="svg2">
    <inkscape:grid
       type="xygrid"
       id="grid4174" />
  </sodipodi:namedview>
  <linearGradient
     id="a">
    <stop
       offset="0"
       stop-color="#06f"
       id="stop5" />
    <stop
       offset="1"
       stop-color="#80b3ff"
       id="stop7" />
  </linearGradient>
  <linearGradient
     id="b"
     gradientUnits="userSpaceOnUse"
     x1=".896507"
     x2="1.553645"
     xlink:href="#a"
     y1="2.116058"
     y2=".163738"
     gradientTransform="matrix(-1,0,0,1,6.35,-3.2e-5)" />
  <linearGradient
     id="c"
     gradientUnits="userSpaceOnUse"
     x1="1.161211"
     x2="1.818349"
     xlink:href="#a"
     y1="5.026835"
     y2="3.074515"
     gradientTransform="matrix(-1,0,0,1,6.35,-3.2e-5)" />
  <linearGradient
     id="d"
     gradientUnits="userSpaceOnUse"
     x1=".367496"
     x2="1.024634"
     xlink:href="#a"
     y1="5.026823"
     y2="3.074503"
     gradientTransform="matrix(-1,0,0,1,6.35,-3.2e-5)" />
  <g
     id="g4233">
    <g
       id="g4168"
       transform="translate(3.3996277e-7,-3.5950813e-4)">
      <rect
         style="opacity:1;fill:#9e3a9c;fill-opacity:1;fill-rule:evenodd;stroke:none;stroke-width:0.40900001;stroke-linecap:round;stroke-linejoin:round;stroke-miterlimit:4;stroke-dasharray:none;stroke-dashoffset:0;stroke-opacity:1"
         id="rect4223"
         width="2.6458335"
         height="0.2645835"
         x="1.3229165"
         y="2.3812499"
         rx="0.10176329"
         ry="0.13229175" />
      <rect
         ry="0.13229175"
         rx="0.13229226"
         y="1.5875"
         x="0.52916646"
         height="0.2645835"
         width="3.4395833"
         id="rect4221"
         style="opacity:1;fill:#9e3a9c;fill-opacity:1;fill-rule:evenodd;stroke:none;stroke-width:0.40900001;stroke-linecap:round;stroke-linejoin:round;stroke-miterlimit:4;stroke-dasharray:none;stroke-dashoffset:0;stroke-opacity:1" />
      <rect
         style="opacity:1;fill:#9e3a9c;fill-opacity:1;fill-rule:evenodd;stroke:none;stroke-width:0.40900001;stroke-linecap:round;stroke-linejoin:round;stroke-miterlimit:4;stroke-dasharray:none;stroke-dashoffset:0;stroke-opacity:1"
         id="rect4219"
         width="3.4395833"
         height="0.2645835"
         x="0.52916646"
         y="0.79374999"
         rx="0.13229226"
         ry="0.13229175" />
    </g>
    <g
       transform="translate(-0.03255618,-0.03358981)"
       id="g4229">
      <path
         inkscape:connector-curvature="0"
         style="fill:#f3b7d9;fill-opacity:1;stroke:#9e3a9c;stroke-width:0.25;stroke-miterlimit:4;stroke-dasharray:none;stroke-opacity:1"
         d="m 17,14 a 1.0006834,1.0006834 0 0 0 -1.001953,1 l 0,1 a 1.0006834,1.0006834 0 0 0 1,1.001953 l 0,1.998047 a 1.0006834,1.0006834 0 0 0 -1,1 l 0,1 A 1.0006834,1.0006834 0 0 0 17,22.001953 l 3,0 3,0 A 1.0006834,1.0006834 0 0 0 24,21 l 0,-1 a 1.0006834,1.0006834 0 0 0 -1,-1 l 0,-1.998047 A 1.0006834,1.0006834 0 0 0 24,16 l 0,-1 a 1.0006834,1.0006834 0 0 0 -1,-1 l -3,0 -3,0 z"
         id="path16"
         transform="scale(0.26458334,0.26458334)" />
      <path
         inkscape:connector-curvature="0"
         style="fill:#e601b4;fill-opacity:1;stroke-width:0.045475"
         d="m 17,15 0,1 1,0 0,4 -1,0 0,1 3,0 3,0 0,-1 -1,0 0,-4 1,0 0,-1 -3,0 -3,0 z m 2,1 1,0 1,0 0,4 -1,0 -1,0 0,-4 z"
         transform="scale(0.26458334,0.26458334)"
         id="path20" />
    </g>
    <path
       d="M 5.5562194,0.76034613 A 0.26476416,0.26476416 0 0 1 5.8209885,1.0251152 l 0,0.2645914 A 0.26476416,0.26476416 0 0 1 5.5564859,1.5544757 l 0,0.5287387 a 0.26476416,0.26476416 0 0 1 0.2645026,0.264769 l 0,0.2645914 A 0.26476416,0.26476416 0 0 1 5.5562194,2.8773439 l -0.7936853,0 A 0.26476416,0.26476416 0 0 1 4.497765,2.6125748 l 0,-0.2645914 a 0.26476416,0.26476416 0 0 1 0.2645914,-0.264769 l 0,-0.5287387 A 0.26476416,0.26476416 0 0 1 4.497765,1.2897066 l 0,-0.2645914 A 0.26476416,0.26476416 0 0 1 4.7625341,0.76034613 Z"
       id="path38"
       style="fill:#f3b7d9;fill-opacity:1;stroke:#9e3a9c;stroke-width:0.06614584;stroke-linecap:round;stroke-linejoin:round;stroke-miterlimit:4;stroke-dasharray:none;stroke-opacity:1"
       inkscape:connector-curvature="0" />
    <path
       d="m 5.5560418,1.058361 0,0.2645913 -0.2645025,0 0,1.0582773 0.2645025,0 0,0.2645913 -0.7936853,0 0,-0.2645913 0.2645913,0 0,-1.0582773 -0.2645913,0 0,-0.2645913 z"
       id="path40"
       inkscape:connector-curvature="0"
       style="fill:#e601b4;stroke-width:0.171875;fill-opacity:1" />
    <g
       transform="translate(3.3996277e-7,2.9103852)"
       id="g4202">
      <rect
         ry="0.13229175"
         rx="0.10176329"
         y="2.3812499"
         x="1.3229165"
         height="0.2645835"
         width="2.6458335"
         id="rect4204"
         style="opacity:1;fill:#9e3a9c;fill-opacity:1;fill-rule:evenodd;stroke:none;stroke-width:0.40900001;stroke-linecap:round;stroke-linejoin:round;stroke-miterlimit:4;stroke-dasharray:none;stroke-dashoffset:0;stroke-opacity:1" />
      <rect
         style="opacity:1;fill:#9e3a9c;fill-opacity:1;fill-rule:evenodd;stroke:none;stroke-width:0.40900001;stroke-linecap:round;stroke-linejoin:round;stroke-miterlimit:4;stroke-dasharray:none;stroke-dashoffset:0;stroke-opacity:1"
         id="rect4206"
         width="3.4395833"
         height="0.2645835"
         x="0.52916646"
         y="1.5875"
         rx="0.13229226"
         ry="0.13229175" />
      <rect
         ry="0.13229175"
         rx="0.13229226"
         y="0.79374999"
         x="0.52916646"
         height="0.2645835"
         width="3.4395833"
         id="rect4208"
         style="opacity:1;fill:#9e3a9c;fill-opacity:1;fill-rule:evenodd;stroke:none;stroke-width:0.40900001;stroke-linecap:round;stroke-linejoin:round;stroke-miterlimit:4;stroke-dasharray:none;stroke-dashoffset:0;stroke-opacity:1" />
    </g>
  </g>
</svg>
