<?xml version="1.0" encoding="UTF-8"?>
<svg xmlns="http://www.w3.org/2000/svg" xmlns:xlink="http://www.w3.org/1999/xlink" width="24px" height="24px" viewBox="0 0 24 24" version="1.1">
<g id="surface1">
<path style=" stroke:none;fill-rule:evenodd;fill:rgb(61.960787%,22.745098%,61.176473%);fill-opacity:1;" d="M 1.230469 15 L 11.898438 15 C 12.265625 15 12.566406 15.335938 12.566406 15.75 C 12.566406 16.164062 12.265625 16.5 11.898438 16.5 L 1.230469 16.5 C 0.863281 16.5 0.566406 16.164062 0.566406 15.75 C 0.566406 15.335938 0.863281 15 1.230469 15 Z M 1.230469 15 "/>
<path style=" stroke:none;fill-rule:evenodd;fill:rgb(61.960787%,22.745098%,61.176473%);fill-opacity:1;" d="M 4.394531 18 L 11.886719 18 C 12.304688 18 12.640625 18.335938 12.640625 18.75 C 12.640625 19.164062 12.304688 19.5 11.886719 19.5 L 4.394531 19.5 C 3.976562 19.5 3.640625 19.164062 3.640625 18.75 C 3.640625 18.335938 3.976562 18 4.394531 18 Z M 4.394531 18 "/>
<path style=" stroke:none;fill-rule:evenodd;fill:rgb(61.960787%,22.745098%,61.176473%);fill-opacity:1;" d="M 1.265625 4.5 L 11.867188 4.5 C 12.253906 4.5 12.566406 4.8125 12.566406 5.199219 L 12.566406 5.300781 C 12.566406 5.6875 12.253906 6 11.867188 6 L 1.265625 6 C 0.878906 6 0.566406 5.6875 0.566406 5.300781 L 0.566406 5.199219 C 0.566406 4.8125 0.878906 4.5 1.265625 4.5 Z M 1.265625 4.5 "/>
<path style=" stroke:none;fill-rule:evenodd;fill:rgb(61.960787%,22.745098%,61.176473%);fill-opacity:1;" d="M 4.292969 7.5 L 11.988281 7.5 C 12.347656 7.5 12.640625 7.835938 12.640625 8.25 C 12.640625 8.664062 12.347656 9 11.988281 9 L 4.292969 9 C 3.933594 9 3.640625 8.664062 3.640625 8.25 C 3.640625 7.835938 3.933594 7.5 4.292969 7.5 Z M 4.292969 7.5 "/>
<path style="fill-rule:nonzero;fill:rgb(95.294118%,71.764708%,85.09804%);fill-opacity:1;stroke-width:0.0661458;stroke-linecap:round;stroke-linejoin:round;stroke:rgb(61.960787%,22.745098%,61.176473%);stroke-opacity:1;stroke-miterlimit:4.1;" d="M 3.492638 0.215663 C 3.607015 0.215663 3.700033 0.308681 3.700033 0.423058 L 3.700033 0.740696 C 3.700033 0.855762 3.607015 0.94809 3.492638 0.94809 L 3.488504 0.94809 L 3.488504 1.168576 L 3.492638 1.168576 C 3.607015 1.168576 3.700033 1.260905 3.700033 1.375971 L 3.700033 1.693609 C 3.700033 1.807986 3.607015 1.901004 3.492638 1.901004 L 2.751942 1.901004 C 2.636876 1.901004 2.543858 1.807986 2.543858 1.693609 L 2.543858 1.375971 C 2.543858 1.260905 2.636876 1.168576 2.751942 1.168576 L 2.756076 1.168576 L 2.756076 0.94809 L 2.751942 0.94809 C 2.636876 0.94809 2.543858 0.855762 2.543858 0.740696 L 2.543858 0.423058 C 2.543858 0.308681 2.636876 0.215663 2.751942 0.215663 Z M 3.492638 0.215663 " transform="matrix(5.669291,0,0,5.669291,0.00000135166,0)"/>
<path style=" stroke:none;fill-rule:nonzero;fill:rgb(90.196079%,0.392157%,70.588237%);fill-opacity:1;" d="M 19.800781 2.398438 L 19.800781 4.199219 L 18.601562 4.199219 L 18.601562 7.800781 L 19.800781 7.800781 L 19.800781 9.601562 L 15.601562 9.601562 L 15.601562 7.800781 L 16.800781 7.800781 L 16.800781 4.199219 L 15.601562 4.199219 L 15.601562 2.398438 Z M 19.800781 2.398438 "/>
<path style="fill-rule:nonzero;fill:rgb(95.294118%,71.764708%,85.09804%);fill-opacity:1;stroke-width:0.25;stroke-linecap:round;stroke-linejoin:round;stroke:rgb(61.960787%,22.745098%,61.176473%);stroke-opacity:1;stroke-miterlimit:4;" d="M 9.791692 8.807292 C 9.583359 8.807292 9.382838 8.888021 9.2344 9.036458 C 9.088567 9.184896 9.005234 9.382812 9.005234 9.591146 L 9.005234 10.791667 C 9.005234 11 9.088567 11.197917 9.2344 11.346354 C 9.382838 11.494792 9.583359 11.575521 9.791692 11.575521 L 9.807317 11.575521 L 9.807317 12.408854 L 9.791692 12.408854 C 9.356796 12.408854 9.007838 12.757812 9.005234 13.190104 L 9.005234 14.393229 C 9.007838 14.825521 9.356796 15.177083 9.791692 15.174479 L 12.450546 15.174479 C 12.4844 15.179688 12.520859 15.182292 12.554713 15.182292 L 15.354192 15.182292 C 15.789088 15.182292 16.138046 14.830729 16.138046 14.398438 L 16.138046 13.197917 C 16.138046 12.765625 15.789088 12.414062 15.354192 12.414062 L 15.338567 12.414062 L 15.338567 11.583333 L 15.354192 11.583333 C 15.789088 11.583333 16.138046 11.231771 16.138046 10.799479 L 16.138046 9.598958 C 16.138046 9.166667 15.789088 8.815104 15.354192 8.815104 L 12.692734 8.815104 C 12.658879 8.809896 12.625025 8.807292 12.588567 8.807292 Z M 9.791692 8.807292 " transform="matrix(1.5,0,0,1.5,-0.406288,0)"/>
<path style=" stroke:none;fill-rule:nonzero;fill:rgb(90.196079%,0.392157%,70.588237%);fill-opacity:1;" d="M 22.625 14.398438 L 22.625 16.199219 L 21.425781 16.199219 L 21.425781 19.796875 L 22.625 19.796875 L 22.625 21.597656 L 18.425781 21.597656 L 18.425781 19.796875 L 19.625 19.796875 L 19.625 16.199219 L 18.425781 16.199219 L 18.425781 14.398438 Z M 22.625 14.398438 "/>
<path style=" stroke:none;fill-rule:nonzero;fill:rgb(90.196079%,0.392157%,70.588237%);fill-opacity:1;" d="M 18.480469 14.386719 L 18.480469 16.1875 L 17.28125 16.1875 L 17.28125 19.789062 L 18.480469 19.789062 L 18.480469 21.589844 L 14.28125 21.589844 L 14.28125 19.789062 L 15.480469 19.789062 L 15.480469 16.1875 L 14.28125 16.1875 L 14.28125 14.386719 Z M 18.480469 14.386719 "/>
</g>
</svg>
