<?xml version="1.0" encoding="UTF-8" standalone="no"?>
<svg
   xmlns:dc="http://purl.org/dc/elements/1.1/"
   xmlns:cc="http://creativecommons.org/ns#"
   xmlns:rdf="http://www.w3.org/1999/02/22-rdf-syntax-ns#"
   xmlns:svg="http://www.w3.org/2000/svg"
   xmlns="http://www.w3.org/2000/svg"
   xmlns:xlink="http://www.w3.org/1999/xlink"
   xmlns:sodipodi="http://sodipodi.sourceforge.net/DTD/sodipodi-0.dtd"
   xmlns:inkscape="http://www.inkscape.org/namespaces/inkscape"
   height="24"
   viewBox="0 0 6.3499999 6.3500002"
   width="24"
   id="svg2"
   version="1.1"
   inkscape:version="0.91 r13725"
   sodipodi:docname="lc_romanlowliststyle.svg"
   inkscape:export-filename="/home/tamara/Desktop/IKON/5_258 (tamara)/ar/lc_romanlowliststyle.png"
   inkscape:export-xdpi="90"
   inkscape:export-ydpi="90">
  <metadata
     id="metadata44">
    <rdf:RDF>
      <cc:Work
         rdf:about="">
        <dc:format>image/svg+xml</dc:format>
        <dc:type
           rdf:resource="http://purl.org/dc/dcmitype/StillImage" />
      </cc:Work>
    </rdf:RDF>
  </metadata>
  <defs
     id="defs42" />
  <sodipodi:namedview
     pagecolor="#ffffff"
     bordercolor="#666666"
     borderopacity="1"
     objecttolerance="10"
     gridtolerance="10"
     guidetolerance="10"
     inkscape:pageopacity="0"
     inkscape:pageshadow="2"
     inkscape:window-width="1366"
     inkscape:window-height="718"
     id="namedview40"
     showgrid="true"
     showguides="true"
     inkscape:guide-bbox="true"
     inkscape:zoom="19.666667"
     inkscape:cx="2.2310001"
     inkscape:cy="13.266289"
     inkscape:window-x="0"
     inkscape:window-y="0"
     inkscape:window-maximized="1"
     inkscape:current-layer="svg2">
    <inkscape:grid
       type="xygrid"
       id="grid4172" />
    <sodipodi:guide
       position="6.8791666,6.8791669"
       orientation="0,1"
       id="guide4232" />
  </sodipodi:namedview>
  <linearGradient
     id="a"
     gradientUnits="userSpaceOnUse"
     x1="1.286524"
     x2="1.220291"
     xlink:href="#d"
     y1="1.430544"
     y2="-.25113"
     gradientTransform="matrix(-1,0,0,1,6.35,-3.2e-5)" />
  <linearGradient
     id="b"
     gradientUnits="userSpaceOnUse"
     x1="1.286524"
     x2="1.220291"
     xlink:href="#d"
     y1="4.605544"
     y2="2.92387"
     gradientTransform="matrix(-1,0,0,1,6.35,-3.2e-5)" />
  <linearGradient
     id="c"
     gradientUnits="userSpaceOnUse"
     x1=".492774"
     x2=".426541"
     xlink:href="#d"
     y1="4.605544"
     y2="2.92387"
     gradientTransform="matrix(-1,0,0,1,6.35,-3.2e-5)" />
  <linearGradient
     id="d">
    <stop
       offset="0"
       stop-color="#06f"
       id="stop8" />
    <stop
       offset="1"
       stop-color="#80b3ff"
       id="stop10" />
  </linearGradient>
  <g
     id="g11760">
    <g
       transform="translate(3.3996277e-7,2.9103852)"
       id="g4202">
      <rect
         ry="0.13229175"
         rx="0.10176329"
         y="2.3812499"
         x="1.3229165"
         height="0.2645835"
         width="2.6458335"
         id="rect4204"
         style="opacity:1;fill:#9e3a9c;fill-opacity:1;fill-rule:evenodd;stroke:none;stroke-width:0.40900001;stroke-linecap:round;stroke-linejoin:round;stroke-miterlimit:4;stroke-dasharray:none;stroke-dashoffset:0;stroke-opacity:1" />
      <rect
         style="opacity:1;fill:#9e3a9c;fill-opacity:1;fill-rule:evenodd;stroke:none;stroke-width:0.40900001;stroke-linecap:round;stroke-linejoin:round;stroke-miterlimit:4;stroke-dasharray:none;stroke-dashoffset:0;stroke-opacity:1"
         id="rect4206"
         width="3.4395833"
         height="0.2645835"
         x="0.52916646"
         y="1.5875"
         rx="0.13229226"
         ry="0.13229175" />
      <rect
         ry="0.13229175"
         rx="0.13229226"
         y="0.79374999"
         x="0.52916646"
         height="0.2645835"
         width="3.4395833"
         id="rect4208"
         style="opacity:1;fill:#9e3a9c;fill-opacity:1;fill-rule:evenodd;stroke:none;stroke-width:0.40900001;stroke-linecap:round;stroke-linejoin:round;stroke-miterlimit:4;stroke-dasharray:none;stroke-dashoffset:0;stroke-opacity:1" />
    </g>
    <path
       d="m 5.0270833,0.26403456 a 0.26500919,0.26500919 0 0 1 0.2651001,0.26510011 l 0,0.26458334 a 0.26500919,0.26500919 0 0 1 -0.035657,0.13229167 0.26500919,0.26500919 0 0 1 0.035657,0.13229162 l 0,1.0583334 A 0.26500919,0.26500919 0 0 1 5.0270833,2.3817348 l -0.2645833,0 A 0.26500919,0.26500919 0 0 1 4.4973999,2.1166347 l 0,-1.0583334 A 0.26500919,0.26500919 0 0 1 4.5330566,0.92600968 0.26500919,0.26500919 0 0 1 4.4973999,0.79371801 l 0,-0.26458334 A 0.26500919,0.26500919 0 0 1 4.7625,0.26403456 Z"
       id="path14"
       style="fill:#f3b7d9;fill-opacity:1;stroke:#9e3a9c;stroke-opacity:1;stroke-width:0.06614584;stroke-miterlimit:4;stroke-dasharray:none;stroke-linejoin:round;stroke-linecap:round"
       inkscape:connector-curvature="0" />
    <path
       d="m 5.0270833,0.52913467 0,0.26458334 -0.2645833,0 0,-0.26458334 z m 0,0.52916663 0,1.0583334 -0.2645833,0 0,-1.0583334 z"
       id="path30"
       inkscape:connector-curvature="0"
       style="fill:#e601b4;fill-opacity:1" />
    <path
       d="m 5.0270834,3.4390345 a 0.26500919,0.26500919 0 0 1 0.2651,0.2651001 l 0,0.2645834 a 0.26500919,0.26500919 0 0 1 -0.035657,0.1322917 0.26500919,0.26500919 0 0 1 0.035657,0.1322916 l 0,1.0583334 a 0.26500919,0.26500919 0 0 1 -0.2651,0.2651001 l -0.2645833,0 A 0.26500919,0.26500919 0 0 1 4.4974,5.2916347 l 0,-1.0583334 A 0.26500919,0.26500919 0 0 1 4.5330567,4.1010097 0.26500919,0.26500919 0 0 1 4.4974,3.968718 l 0,-0.2645834 A 0.26500919,0.26500919 0 0 1 4.7625001,3.4390345 Z"
       id="path32"
       style="fill:#f3b7d9;fill-opacity:1;stroke:#9e3a9c;stroke-opacity:1;stroke-width:0.06614584;stroke-miterlimit:4;stroke-dasharray:none;stroke-linejoin:round;stroke-linecap:round"
       inkscape:connector-curvature="0" />
    <path
       d="m 5.0270834,3.7041346 0,0.2645834 -0.2645833,0 0,-0.2645834 z m 0,0.5291667 0,1.0583334 -0.2645833,0 0,-1.0583334 z"
       id="path34"
       inkscape:connector-curvature="0"
       style="fill:#e601b4;fill-opacity:1" />
    <path
       d="m 5.8208333,3.4390346 a 0.26500919,0.26500919 0 0 1 0.2651001,0.2651001 l 0,0.2645834 a 0.26500919,0.26500919 0 0 1 -0.035657,0.1322917 0.26500919,0.26500919 0 0 1 0.035657,0.1322916 l 0,1.0583334 A 0.26500919,0.26500919 0 0 1 5.8208333,5.5567349 l -0.2645833,0 A 0.26500919,0.26500919 0 0 1 5.2911499,5.2916348 l 0,-1.0583334 A 0.26500919,0.26500919 0 0 1 5.3268066,4.1010098 0.26500919,0.26500919 0 0 1 5.2911499,3.9687181 l 0,-0.2645834 A 0.26500919,0.26500919 0 0 1 5.55625,3.4390346 Z"
       id="path36"
       style="fill:#f3b7d9;fill-opacity:1;stroke:#9e3a9c;stroke-opacity:1;stroke-width:0.06614584;stroke-miterlimit:4;stroke-dasharray:none;stroke-linejoin:round;stroke-linecap:round"
       inkscape:connector-curvature="0" />
    <path
       d="m 5.8208333,3.7041347 0,0.2645834 -0.2645833,0 0,-0.2645834 z m 0,0.5291667 0,1.0583334 -0.2645833,0 0,-1.0583334 z"
       id="path38"
       inkscape:connector-curvature="0"
       style="fill:#e601b4;fill-opacity:1" />
    <g
       id="g4168">
      <rect
         style="opacity:1;fill:#9e3a9c;fill-opacity:1;fill-rule:evenodd;stroke:none;stroke-width:0.40900001;stroke-linecap:round;stroke-linejoin:round;stroke-miterlimit:4;stroke-dasharray:none;stroke-dashoffset:0;stroke-opacity:1"
         id="rect4223"
         width="2.6458335"
         height="0.2645835"
         x="1.3229165"
         y="2.3812499"
         rx="0.10176329"
         ry="0.13229175" />
      <rect
         ry="0.13229175"
         rx="0.13229226"
         y="1.5875"
         x="0.52916646"
         height="0.2645835"
         width="3.4395833"
         id="rect4221"
         style="opacity:1;fill:#9e3a9c;fill-opacity:1;fill-rule:evenodd;stroke:none;stroke-width:0.40900001;stroke-linecap:round;stroke-linejoin:round;stroke-miterlimit:4;stroke-dasharray:none;stroke-dashoffset:0;stroke-opacity:1" />
      <rect
         style="opacity:1;fill:#9e3a9c;fill-opacity:1;fill-rule:evenodd;stroke:none;stroke-width:0.40900001;stroke-linecap:round;stroke-linejoin:round;stroke-miterlimit:4;stroke-dasharray:none;stroke-dashoffset:0;stroke-opacity:1"
         id="rect4219"
         width="3.4395833"
         height="0.2645835"
         x="0.52916646"
         y="0.79374999"
         rx="0.13229226"
         ry="0.13229175" />
    </g>
  </g>
</svg>
