<?xml version="1.0" encoding="UTF-8"?>
<svg xmlns="http://www.w3.org/2000/svg" xmlns:xlink="http://www.w3.org/1999/xlink" width="24px" height="24px" viewBox="0 0 24 24" version="1.1">
<g id="surface1">
<path style=" stroke:none;fill-rule:evenodd;fill:rgb(61.960787%,22.745098%,61.176473%);fill-opacity:1;" d="M 5.1875 18 L 12.960938 18 C 13.300781 18 13.574219 18.335938 13.574219 18.75 C 13.574219 19.164062 13.300781 19.5 12.960938 19.5 L 5.1875 19.5 C 4.851562 19.5 4.574219 19.164062 4.574219 18.75 C 4.574219 18.335938 4.851562 18 5.1875 18 Z M 5.1875 18 "/>
<path style=" stroke:none;fill-rule:evenodd;fill:rgb(61.960787%,22.745098%,61.176473%);fill-opacity:1;" d="M 2.316406 15 L 12.683594 15 C 13.132812 15 13.5 15.335938 13.5 15.75 C 13.5 16.164062 13.132812 16.5 12.683594 16.5 L 2.316406 16.5 C 1.867188 16.5 1.5 16.164062 1.5 15.75 C 1.5 15.335938 1.867188 15 2.316406 15 Z M 2.316406 15 "/>
<path style=" stroke:none;fill-rule:evenodd;fill:rgb(61.960787%,22.745098%,61.176473%);fill-opacity:1;" d="M 5.1875 7.5 L 12.960938 7.5 C 13.300781 7.5 13.574219 7.835938 13.574219 8.25 C 13.574219 8.664062 13.300781 9 12.960938 9 L 5.1875 9 C 4.851562 9 4.574219 8.664062 4.574219 8.25 C 4.574219 7.835938 4.851562 7.5 5.1875 7.5 Z M 5.1875 7.5 "/>
<path style=" stroke:none;fill-rule:evenodd;fill:rgb(61.960787%,22.745098%,61.176473%);fill-opacity:1;" d="M 2.316406 4.5 L 12.683594 4.5 C 13.132812 4.5 13.5 4.835938 13.5 5.25 C 13.5 5.664062 13.132812 6 12.683594 6 L 2.316406 6 C 1.867188 6 1.5 5.664062 1.5 5.25 C 1.5 4.835938 1.867188 4.5 2.316406 4.5 Z M 2.316406 4.5 "/>
</g>
</svg>
