<?xml version="1.0" encoding="UTF-8"?>
<svg xmlns="http://www.w3.org/2000/svg" xmlns:xlink="http://www.w3.org/1999/xlink" width="32px" height="32px" viewBox="0 0 32 32" version="1.1">
<g id="surface1">
<path style=" stroke:none;fill-rule:nonzero;fill:rgb(33.333334%,34.117648%,32.549021%);fill-opacity:1;" d="M 2 2 L 2 6 L 22 6 L 22 2 Z M 26 2 C 26 3.105469 25.105469 4 24 4 L 24 6 L 26 6 L 26 12 L 28 12 L 28 2 Z M 10 8 L 10 12 L 22 12 L 22 8 Z M 6 18 C 4.429688 19.601562 4 21.035156 4 22.800781 L 4 26 L 0 30 L 0 32 L 2 32 L 6 28 L 9.199219 28 C 10.726562 28 12.398438 27.542969 14 26 L 14 24 L 12 24 C 9.132812 26.996094 4.878906 23.246094 8 20 L 8 18 Z M 16 18 L 16 22 L 22 22 L 22 18 Z M 27 18 C 25.34375 18 24 19.34375 24 21 L 26 21 C 26 20.449219 26.449219 20 27 20 C 27.550781 20 28 20.449219 28 21 C 28 21.277344 27.9375 21.417969 27.824219 21.574219 L 24 26.359375 L 24 28 L 30 28 L 30 26 L 26.796875 26 L 29.320312 22.808594 C 29.621094 22.480469 30 22 30 21 C 30 19.34375 28.65625 18 27 18 Z M 16 24 L 16 28 L 22 28 L 22 24 Z M 16 24 "/>
</g>
</svg>
