<?xml version="1.0" encoding="UTF-8"?>
<svg xmlns="http://www.w3.org/2000/svg" xmlns:xlink="http://www.w3.org/1999/xlink" width="32px" height="32px" viewBox="0 0 32 32" version="1.1">
<g id="surface1">
<path style="fill-rule:nonzero;fill:rgb(95.294118%,71.764708%,85.09804%);fill-opacity:1;stroke-width:0.0653471;stroke-linecap:round;stroke-linejoin:round;stroke:rgb(90.196079%,0.392157%,70.588237%);stroke-opacity:1;stroke-miterlimit:4;" d="M 2.934415 0.306628 C 2.983309 0.308172 3.028085 0.327214 3.068743 0.353977 C 3.083154 0.359638 3.096535 0.368388 3.107858 0.37971 L 4.06514 1.296848 C 4.081094 1.312802 4.093961 1.330301 4.103225 1.349859 L 4.077492 1.313832 C 4.146457 1.382283 4.209761 1.482128 4.209761 1.606163 C 4.209761 1.7338 4.14903 1.837763 4.083668 1.914963 C 4.081609 1.918051 4.079036 1.920625 4.075948 1.923198 L 4.083668 1.915478 C 4.078006 1.921654 4.07183 1.928345 4.06514 1.935035 L 4.06411 1.936065 L 3.109917 2.845482 C 3.109917 2.845482 3.109402 2.845997 3.109402 2.845997 C 3.107344 2.847541 3.106829 2.847541 3.1058 2.848055 C 3.102197 2.850629 3.094991 2.855775 3.085727 2.861951 C 3.093962 2.85629 3.098079 2.853202 3.103741 2.849085 C 3.024482 2.923197 2.914858 2.938122 2.824791 2.900037 C 2.732666 2.860922 2.665244 2.770341 2.665244 2.659172 L 2.665244 2.13627 L 1.109919 2.13627 C 1.106317 2.138329 1.102199 2.140902 1.102199 2.141417 C 1.101685 2.141932 1.098597 2.146049 1.097053 2.149137 L 1.097053 3.443011 C 1.097053 3.586603 0.979194 3.704462 0.835601 3.704977 L 0.312699 3.704977 C 0.169107 3.704462 0.0512483 3.586603 0.0512483 3.443011 L 0.0512483 2.397721 C 0.0512483 2.374047 0.0538217 2.372503 0.056395 2.362724 C 0.0543363 2.333388 0.0512483 2.301993 0.0512483 2.264423 L 0.0512483 2.13627 C 0.0512483 1.791958 0.120728 1.522787 0.301891 1.341109 C 0.483054 1.159946 0.75274 1.090466 1.096538 1.090466 L 1.61944 1.090466 L 2.665244 1.090981 L 2.665244 0.568079 C 2.665244 0.421398 2.787735 0.30251 2.934415 0.306628 Z M 2.934415 0.306628 " transform="matrix(-7.589853,0,0,7.589853,32.197561,-0.366321)"/>
</g>
</svg>
