<?xml version="1.0" encoding="UTF-8"?>
<svg xmlns="http://www.w3.org/2000/svg" xmlns:xlink="http://www.w3.org/1999/xlink" width="32px" height="32px" viewBox="0 0 32 32" version="1.1">
<g id="surface1">
<path style=" stroke:none;fill-rule:evenodd;fill:rgb(61.960787%,22.745098%,61.176473%);fill-opacity:1;" d="M 6.917969 24 L 17.285156 24 C 17.734375 24 18.101562 24.449219 18.101562 25 C 18.101562 25.550781 17.734375 26 17.285156 26 L 6.917969 26 C 6.46875 26 6.101562 25.550781 6.101562 25 C 6.101562 24.449219 6.46875 24 6.917969 24 Z M 6.917969 24 "/>
<path style=" stroke:none;fill-rule:evenodd;fill:rgb(61.960787%,22.745098%,61.176473%);fill-opacity:1;" d="M 3.089844 20 L 16.910156 20 C 17.511719 20 18 20.449219 18 21 C 18 21.550781 17.511719 22 16.910156 22 L 3.089844 22 C 2.488281 22 2 21.550781 2 21 C 2 20.449219 2.488281 20 3.089844 20 Z M 3.089844 20 "/>
<path style=" stroke:none;fill-rule:evenodd;fill:rgb(61.960787%,22.745098%,61.176473%);fill-opacity:1;" d="M 6.917969 10 L 17.285156 10 C 17.734375 10 18.101562 10.449219 18.101562 11 C 18.101562 11.550781 17.734375 12 17.285156 12 L 6.917969 12 C 6.46875 12 6.101562 11.550781 6.101562 11 C 6.101562 10.449219 6.46875 10 6.917969 10 Z M 6.917969 10 "/>
<path style=" stroke:none;fill-rule:evenodd;fill:rgb(61.960787%,22.745098%,61.176473%);fill-opacity:1;" d="M 3.089844 6 L 16.910156 6 C 17.511719 6 18 6.449219 18 7 C 18 7.550781 17.511719 8 16.910156 8 L 3.089844 8 C 2.488281 8 2 7.550781 2 7 C 2 6.449219 2.488281 6 3.089844 6 Z M 3.089844 6 "/>
</g>
</svg>
