<?xml version="1.0" encoding="UTF-8"?>
<svg xmlns="http://www.w3.org/2000/svg" xmlns:xlink="http://www.w3.org/1999/xlink" width="32px" height="32px" viewBox="0 0 32 32" version="1.1">
<g id="surface1">
<path style=" stroke:none;fill-rule:evenodd;fill:rgb(61.960787%,22.745098%,61.176473%);fill-opacity:1;" d="M 1.640625 20 L 15.867188 20 C 16.355469 20 16.753906 20.449219 16.753906 21 C 16.753906 21.550781 16.355469 22 15.867188 22 L 1.640625 22 C 1.152344 22 0.753906 21.550781 0.753906 21 C 0.753906 20.449219 1.152344 20 1.640625 20 Z M 1.640625 20 "/>
<path style=" stroke:none;fill-rule:evenodd;fill:rgb(61.960787%,22.745098%,61.176473%);fill-opacity:1;" d="M 5.859375 24 L 15.851562 24 C 16.40625 24 16.855469 24.449219 16.855469 25 C 16.855469 25.550781 16.40625 26 15.851562 26 L 5.859375 26 C 5.304688 26 4.855469 25.550781 4.855469 25 C 4.855469 24.449219 5.304688 24 5.859375 24 Z M 5.859375 24 "/>
<path style=" stroke:none;fill-rule:evenodd;fill:rgb(61.960787%,22.745098%,61.176473%);fill-opacity:1;" d="M 1.6875 6 L 15.820312 6 C 16.335938 6 16.753906 6.417969 16.753906 6.933594 L 16.753906 7.066406 C 16.753906 7.582031 16.335938 8 15.820312 8 L 1.6875 8 C 1.171875 8 0.753906 7.582031 0.753906 7.066406 L 0.753906 6.933594 C 0.753906 6.417969 1.171875 6 1.6875 6 Z M 1.6875 6 "/>
<path style=" stroke:none;fill-rule:evenodd;fill:rgb(61.960787%,22.745098%,61.176473%);fill-opacity:1;" d="M 5.722656 10 L 15.984375 10 C 16.464844 10 16.855469 10.449219 16.855469 11 C 16.855469 11.550781 16.464844 12 15.984375 12 L 5.722656 12 C 5.242188 12 4.855469 11.550781 4.855469 11 C 4.855469 10.449219 5.242188 10 5.722656 10 Z M 5.722656 10 "/>
<path style="fill-rule:nonzero;fill:rgb(95.294118%,71.764708%,85.09804%);fill-opacity:1;stroke-width:0.0661458;stroke-linecap:round;stroke-linejoin:round;stroke:rgb(61.960787%,22.745098%,61.176473%);stroke-opacity:1;stroke-miterlimit:4.1;" d="M 3.49281 0.216007 C 3.607015 0.216007 3.700033 0.308508 3.700033 0.42323 L 3.700033 0.74104 C 3.700033 0.855245 3.607015 0.948263 3.49281 0.948263 L 3.488676 0.948263 L 3.488676 1.168404 L 3.49281 1.168404 C 3.607015 1.168404 3.700033 1.261422 3.700033 1.375627 L 3.700033 1.693437 C 3.700033 1.808158 3.607015 1.901176 3.49281 1.901176 L 2.75177 1.901176 C 2.637048 1.901176 2.544031 1.808158 2.544031 1.693437 L 2.544031 1.375627 C 2.544031 1.261422 2.637048 1.168404 2.75177 1.168404 L 2.755904 1.168404 L 2.755904 0.948263 L 2.75177 0.948263 C 2.637048 0.948263 2.544031 0.855245 2.544031 0.74104 L 2.544031 0.42323 C 2.544031 0.308508 2.637048 0.216007 2.75177 0.216007 Z M 3.49281 0.216007 " transform="matrix(7.559055,0,0,7.559055,0.00000180222,0)"/>
<path style=" stroke:none;fill-rule:nonzero;fill:rgb(90.196079%,0.392157%,70.588237%);fill-opacity:1;" d="M 26.402344 3.199219 L 26.402344 5.601562 L 24.800781 5.601562 L 24.800781 10.398438 L 26.402344 10.398438 L 26.402344 12.800781 L 20.800781 12.800781 L 20.800781 10.398438 L 22.402344 10.398438 L 22.402344 5.601562 L 20.800781 5.601562 L 20.800781 3.199219 Z M 26.402344 3.199219 "/>
<path style="fill-rule:nonzero;fill:rgb(95.294118%,71.764708%,85.09804%);fill-opacity:1;stroke-width:0.25;stroke-linecap:round;stroke-linejoin:round;stroke:rgb(61.960787%,22.745098%,61.176473%);stroke-opacity:1;stroke-miterlimit:4;" d="M 9.79039 8.806641 C 9.583359 8.806641 9.382187 8.888672 9.235702 9.037109 C 9.089218 9.183594 9.005234 9.382812 9.005234 9.591797 L 9.005234 10.791016 C 9.005234 11 9.089218 11.199219 9.235702 11.345703 C 9.382187 11.494141 9.583359 11.576172 9.79039 11.576172 L 9.806015 11.576172 L 9.806015 12.408203 L 9.79039 12.408203 C 9.358749 12.408203 9.007187 12.757812 9.005234 13.191406 L 9.005234 14.392578 C 9.007187 14.826172 9.358749 15.175781 9.79039 15.175781 L 12.450546 15.175781 C 12.485702 15.179688 12.520859 15.183594 12.554062 15.183594 L 15.354843 15.183594 C 15.788437 15.183594 16.138046 14.832031 16.138046 14.398438 L 16.138046 13.199219 C 16.138046 12.765625 15.788437 12.414062 15.354843 12.414062 L 15.339218 12.414062 L 15.339218 11.583984 L 15.354843 11.583984 C 15.788437 11.583984 16.138046 11.232422 16.138046 10.798828 L 16.138046 9.599609 C 16.138046 9.166016 15.788437 8.814453 15.354843 8.814453 L 12.692734 8.814453 C 12.659531 8.808594 12.624374 8.806641 12.589218 8.806641 Z M 9.79039 8.806641 " transform="matrix(2,0,0,2,-0.541717,0)"/>
<path style=" stroke:none;fill-rule:nonzero;fill:rgb(90.196079%,0.392157%,70.588237%);fill-opacity:1;" d="M 30.167969 19.199219 L 30.167969 21.597656 L 28.566406 21.597656 L 28.566406 26.398438 L 30.167969 26.398438 L 30.167969 28.796875 L 24.566406 28.796875 L 24.566406 26.398438 L 26.167969 26.398438 L 26.167969 21.597656 L 24.566406 21.597656 L 24.566406 19.199219 Z M 30.167969 19.199219 "/>
<path style=" stroke:none;fill-rule:nonzero;fill:rgb(90.196079%,0.392157%,70.588237%);fill-opacity:1;" d="M 24.640625 19.183594 L 24.640625 21.582031 L 23.039062 21.582031 L 23.039062 26.382812 L 24.640625 26.382812 L 24.640625 28.785156 L 19.039062 28.785156 L 19.039062 26.382812 L 20.640625 26.382812 L 20.640625 21.582031 L 19.039062 21.582031 L 19.039062 19.183594 Z M 24.640625 19.183594 "/>
</g>
</svg>
