<?xml version="1.0" encoding="UTF-8"?>
<svg xmlns="http://www.w3.org/2000/svg" xmlns:xlink="http://www.w3.org/1999/xlink" width="32px" height="32px" viewBox="0 0 32 32" version="1.1">
<g id="surface1">
<path style=" stroke:none;fill-rule:evenodd;fill:rgb(61.960787%,22.745098%,61.176473%);fill-opacity:1;" d="M 2.835938 20 L 17.0625 20 C 17.550781 20 17.949219 20.449219 17.949219 21 C 17.949219 21.550781 17.550781 22 17.0625 22 L 2.835938 22 C 2.347656 22 1.949219 21.550781 1.949219 21 C 1.949219 20.449219 2.347656 20 2.835938 20 Z M 2.835938 20 "/>
<path style=" stroke:none;fill-rule:evenodd;fill:rgb(61.960787%,22.745098%,61.176473%);fill-opacity:1;" d="M 7.054688 24 L 17.046875 24 C 17.601562 24 18.050781 24.449219 18.050781 25 C 18.050781 25.550781 17.601562 26 17.046875 26 L 7.054688 26 C 6.5 26 6.050781 25.550781 6.050781 25 C 6.050781 24.449219 6.5 24 7.054688 24 Z M 7.054688 24 "/>
<path style=" stroke:none;fill-rule:evenodd;fill:rgb(61.960787%,22.745098%,61.176473%);fill-opacity:1;" d="M 2.882812 6 L 17.015625 6 C 17.53125 6 17.949219 6.417969 17.949219 6.933594 L 17.949219 7.066406 C 17.949219 7.582031 17.53125 8 17.015625 8 L 2.882812 8 C 2.367188 8 1.949219 7.582031 1.949219 7.066406 L 1.949219 6.933594 C 1.949219 6.417969 2.367188 6 2.882812 6 Z M 2.882812 6 "/>
<path style=" stroke:none;fill-rule:evenodd;fill:rgb(61.960787%,22.745098%,61.176473%);fill-opacity:1;" d="M 6.917969 10 L 17.183594 10 C 17.660156 10 18.050781 10.449219 18.050781 11 C 18.050781 11.550781 17.660156 12 17.183594 12 L 6.917969 12 C 6.4375 12 6.050781 11.550781 6.050781 11 C 6.050781 10.449219 6.4375 10 6.917969 10 Z M 6.917969 10 "/>
<path style="fill-rule:nonzero;fill:rgb(95.294118%,71.764708%,85.09804%);fill-opacity:1;stroke-width:0.25;stroke-linecap:round;stroke-linejoin:round;stroke:rgb(61.960787%,22.745098%,61.176473%);stroke-opacity:1;stroke-miterlimit:4;" d="M 3.999999 1 C 3.447265 1 2.999999 1.447266 2.999999 2 L 2.999999 3 C 2.999999 3.175781 3.046874 3.347656 3.134765 3.5 C 3.046874 3.652344 2.999999 3.824219 2.999999 4 L 2.999999 7 C 2.999999 7.552734 3.447265 8 3.999999 8 L 4.999999 8 C 5.552733 8 5.999999 7.552734 5.999999 7 L 5.999999 4 C 5.999999 3.824219 5.953124 3.652344 5.865233 3.5 C 5.953124 3.347656 5.999999 3.175781 5.999999 3 L 5.999999 2 C 5.999999 1.447266 5.552733 1 4.999999 1 Z M 3.999999 1 " transform="matrix(-2,0,0,2,31.999998,0)"/>
<path style=" stroke:none;fill-rule:nonzero;fill:rgb(90.196079%,0.392157%,70.588237%);fill-opacity:1;" d="M 24 4 L 24 6 L 22 6 L 22 4 Z M 24 8 L 24 14 L 22 14 L 22 8 Z M 24 8 "/>
<path style="fill-rule:nonzero;fill:rgb(95.294118%,71.764708%,85.09804%);fill-opacity:1;stroke-width:0.0661458;stroke-linecap:round;stroke-linejoin:round;stroke:rgb(61.960787%,22.745098%,61.176473%);stroke-opacity:1;stroke-miterlimit:4;" d="M 3.96875 2.381251 C 4.114994 2.381251 4.233333 2.49959 4.233333 2.645834 L 4.233333 2.910418 C 4.233333 2.956927 4.220931 3.002402 4.197676 3.042709 C 4.220931 3.083017 4.233333 3.128492 4.233333 3.175001 L 4.233333 3.968751 C 4.233333 4.114995 4.114994 4.233335 3.96875 4.233335 L 3.704166 4.233335 C 3.557922 4.233335 3.439583 4.114995 3.439583 3.968751 C 3.439583 4.114995 3.321244 4.233335 3.175 4.233335 L 2.910416 4.233335 C 2.764172 4.233335 2.645833 4.114995 2.645833 3.968751 L 2.645833 3.175001 C 2.645833 3.128492 2.658235 3.083017 2.68149 3.042709 C 2.658235 3.002402 2.645833 2.956927 2.645833 2.910418 L 2.645833 2.645834 C 2.645833 2.49959 2.764172 2.381251 2.910416 2.381251 L 3.175 2.381251 C 3.321244 2.381251 3.439583 2.49959 3.439583 2.645834 C 3.439583 2.49959 3.557922 2.381251 3.704166 2.381251 Z M 3.439583 2.910418 C 3.439583 2.956927 3.427181 3.002402 3.403926 3.042709 C 3.427181 3.083017 3.439583 3.128492 3.439583 3.175001 C 3.439583 3.128492 3.451985 3.083017 3.47524 3.042709 C 3.451985 3.002402 3.439583 2.956927 3.439583 2.910418 Z M 3.439583 2.910418 " transform="matrix(7.559055,0,0,7.559055,-0.249996,-0.250007)"/>
<path style=" stroke:none;fill-rule:nonzero;fill:rgb(90.196079%,0.392157%,70.588237%);fill-opacity:1;" d="M 29.75 19.75 L 29.75 21.75 L 27.75 21.75 L 27.75 19.75 Z M 23.75 19.75 L 23.75 21.75 L 21.75 21.75 L 21.75 19.75 Z M 29.75 23.75 L 29.75 29.75 L 27.75 29.75 L 27.75 23.75 Z M 23.75 23.75 L 23.75 29.75 L 21.75 29.75 L 21.75 23.75 Z M 23.75 23.75 "/>
</g>
</svg>
