<?xml version="1.0" encoding="UTF-8" standalone="no"?>
<svg
   xmlns:dc="http://purl.org/dc/elements/1.1/"
   xmlns:cc="http://creativecommons.org/ns#"
   xmlns:rdf="http://www.w3.org/1999/02/22-rdf-syntax-ns#"
   xmlns:svg="http://www.w3.org/2000/svg"
   xmlns="http://www.w3.org/2000/svg"
   xmlns:sodipodi="http://sodipodi.sourceforge.net/DTD/sodipodi-0.dtd"
   xmlns:inkscape="http://www.inkscape.org/namespaces/inkscape"
   height="16"
   viewBox="0 0 4.2333333 4.2333334"
   width="16"
   id="svg2"
   version="1.1"
   inkscape:version="0.91 r13725"
   sodipodi:docname="sc_numberingstart.svg"
   inkscape:export-filename="/home/tamara/Desktop/IKON/5_258 (tamara)/ar/sc_numberingstart.png"
   inkscape:export-xdpi="90"
   inkscape:export-ydpi="90">
  <metadata
     id="metadata52">
    <rdf:RDF>
      <cc:Work
         rdf:about="">
        <dc:format>image/svg+xml</dc:format>
        <dc:type
           rdf:resource="http://purl.org/dc/dcmitype/StillImage" />
      </cc:Work>
    </rdf:RDF>
  </metadata>
  <defs
     id="defs50" />
  <sodipodi:namedview
     pagecolor="#ffffff"
     bordercolor="#666666"
     borderopacity="1"
     objecttolerance="10"
     gridtolerance="10"
     guidetolerance="10"
     inkscape:pageopacity="0"
     inkscape:pageshadow="2"
     inkscape:window-width="1366"
     inkscape:window-height="718"
     id="namedview48"
     showgrid="true"
     inkscape:zoom="29.5"
     inkscape:cx="5.803932"
     inkscape:cy="6.4010345"
     inkscape:window-x="0"
     inkscape:window-y="0"
     inkscape:window-maximized="1"
     inkscape:current-layer="svg2">
    <inkscape:grid
       type="xygrid"
       id="grid4180" />
  </sodipodi:namedview>
  <linearGradient
     id="a"
     gradientTransform="matrix(0.36965781,0,0,0.35277777,-284.12503,-98.607329)"
     gradientUnits="userSpaceOnUse"
     x1="778.88196"
     x2="778.88196"
     y1="289.57986"
     y2="284.53162">
    <stop
       offset="0"
       stop-color="#06f"
       id="stop5" />
    <stop
       offset="1"
       stop-color="#80b3ff"
       id="stop7" />
  </linearGradient>
  <linearGradient
     id="b"
     gradientTransform="matrix(0.36699633,0,0,0.35148261,-282.01908,-101.82936)"
     gradientUnits="userSpaceOnUse"
     x1="778"
     x2="778"
     y1="295"
     y2="290">
    <stop
       offset="0"
       stop-color="#808080"
       id="stop10" />
    <stop
       offset="1"
       stop-color="#bdbfc2"
       id="stop12" />
  </linearGradient>
  <g
     id="g4268">
    <g
       transform="translate(0,1.8520788)"
       id="g4215">
      <rect
         transform="scale(1,-1)"
         style="opacity:1;fill:#9e3a9c;fill-opacity:1;fill-rule:evenodd;stroke:none;stroke-width:0.40900001;stroke-linecap:round;stroke-linejoin:round;stroke-miterlimit:4;stroke-dasharray:none;stroke-dashoffset:0;stroke-opacity:1"
         id="rect4217"
         width="1.5875"
         height="0.26458347"
         x="0.79374993"
         y="-1.58749"
         rx="0.11691263"
         ry="0.11691263" />
      <rect
         ry="0.11691263"
         rx="0.11691263"
         y="0.79374993"
         x="0.26458323"
         height="0.26458347"
         width="2.1166668"
         id="rect4220"
         style="opacity:1;fill:#9e3a9c;fill-opacity:1;fill-rule:evenodd;stroke:none;stroke-width:0.40900001;stroke-linecap:round;stroke-linejoin:round;stroke-miterlimit:4;stroke-dasharray:none;stroke-dashoffset:0;stroke-opacity:1" />
    </g>
    <g
       id="g4211">
      <rect
         ry="0.11691263"
         rx="0.11691263"
         y="-1.58749"
         x="0.79374993"
         height="0.26458347"
         width="1.5875"
         id="rect4209"
         style="opacity:1;fill:#9e3a9c;fill-opacity:1;fill-rule:evenodd;stroke:none;stroke-width:0.40900001;stroke-linecap:round;stroke-linejoin:round;stroke-miterlimit:4;stroke-dasharray:none;stroke-dashoffset:0;stroke-opacity:1"
         transform="scale(1,-1)" />
      <rect
         style="opacity:1;fill:#9e3a9c;fill-opacity:1;fill-rule:evenodd;stroke:none;stroke-width:0.40900001;stroke-linecap:round;stroke-linejoin:round;stroke-miterlimit:4;stroke-dasharray:none;stroke-dashoffset:0;stroke-opacity:1"
         id="rect4219"
         width="2.1166668"
         height="0.26458347"
         x="0.26458323"
         y="0.79374993"
         rx="0.11691263"
         ry="0.11691263" />
    </g>
    <g
       transform="matrix(1.0000356,0,0,1,-0.02544846,-0.00116375)"
       id="g4258">
      <path
         style="color:#000000;font-style:normal;font-variant:normal;font-weight:normal;font-stretch:normal;font-size:medium;line-height:normal;font-family:'Bitstream Vera Sans';text-indent:0;text-align:start;text-decoration:none;text-decoration-line:none;text-decoration-style:solid;text-decoration-color:#000000;letter-spacing:normal;word-spacing:normal;text-transform:none;direction:ltr;block-progression:tb;writing-mode:lr-tb;baseline-shift:baseline;text-anchor:start;white-space:normal;clip-rule:nonzero;display:inline;overflow:visible;visibility:visible;opacity:1;isolation:auto;mix-blend-mode:normal;color-interpolation:sRGB;color-interpolation-filters:linearRGB;solid-color:#000000;solid-opacity:1;fill:#f3b7d9;fill-opacity:1;fill-rule:nonzero;stroke:none;stroke-width:0.529167;stroke-linecap:butt;stroke-linejoin:round;stroke-miterlimit:4;stroke-dasharray:none;stroke-dashoffset:0;stroke-opacity:1;color-rendering:auto;image-rendering:auto;shape-rendering:auto;text-rendering:auto;enable-background:accumulate"
         d="m 3.5903778,0.5294572 c -0.086544,0 -0.1723399,0.0108597 -0.2554577,0.0401394 -0.073647,0.0257547 -0.14602,0.0644297 -0.2055636,0.11850667 a 0.27038658,0.25895675 0 0 0 0,0.001911 c -0.05508,0.0509006 -0.099822,0.1141426 -0.1297246,0.1815828 -0.02647,0.0596979 -0.043838,0.12139937 -0.05189,0.18540553 a 0.27038658,0.25895675 0 0 0 0.2035678,0.282887 c -0.021468,0.022324 -0.043586,0.042975 -0.063864,0.066899 l 0.002,0 c -0.051498,0.060043 -0.095688,0.1255664 -0.1297246,0.196874 a 0.27038658,0.25895675 0 0 0 -0.023949,0.1089496 l 0,0.1452662 a 0.27038658,0.25895675 0 0 0 0.2694281,0.2599502 l 0.7703645,0 A 0.27038658,0.25895675 0 0 0 4.2469838,1.8578787 l 0,-0.1720258 A 0.27038658,0.25895675 0 0 0 4.0893185,1.4488396 c 0.029514,-0.037565 0.060309,-0.074322 0.081826,-0.1165953 0.039566,-0.077729 0.057877,-0.1650885 0.057877,-0.2484817 0,-0.075362 -0.013435,-0.15232014 -0.045903,-0.22554497 C 4.1514334,0.78686889 4.101629,0.71962805 4.0394245,0.66898925 3.9762093,0.61752782 3.9031976,0.58155973 3.8278736,0.56003957 l -0.002,0 c -0.076538,-0.0222557 -0.155436,-0.0305824 -0.2355,-0.0305824 z"
         id="text18"
         inkscape:connector-curvature="0" />
      <text
         x="3.1774771"
         y="1.8580056"
         id="text22"
         style="font-size:medium;font-family:'Bitstream Vera Sans';fill:#f0e3ec;fill-opacity:1;stroke-width:0.26458299">
        <tspan
           font-size="1.532654"
           font-weight="bold"
           x="3.1774771"
           y="1.8580056"
           id="tspan24"
           style="font-weight:bold;font-size:1.53265405px;font-family:'Liberation Sans';fill:#f0e3ec;fill-opacity:1;stroke-width:0.26458299">2</tspan>
      </text>
    </g>
    <g
       transform="translate(-0.04591417,-0.02153789)"
       id="g4263">
      <path
         style="color:#000000;font-style:normal;font-variant:normal;font-weight:normal;font-stretch:normal;font-size:medium;line-height:normal;font-family:'Bitstream Vera Sans';text-indent:0;text-align:start;text-decoration:none;text-decoration-line:none;text-decoration-style:solid;text-decoration-color:#000000;letter-spacing:normal;word-spacing:normal;text-transform:none;direction:ltr;block-progression:tb;writing-mode:lr-tb;baseline-shift:baseline;text-anchor:start;white-space:normal;clip-rule:nonzero;display:inline;overflow:visible;visibility:visible;opacity:1;isolation:auto;mix-blend-mode:normal;color-interpolation:sRGB;color-interpolation-filters:linearRGB;solid-color:#000000;solid-opacity:1;fill:#f3b7d9;fill-opacity:1;fill-rule:nonzero;stroke:#9e3a9c;stroke-width:0.06614584;stroke-linecap:butt;stroke-linejoin:round;stroke-miterlimit:4;stroke-dasharray:none;stroke-dashoffset:0;stroke-opacity:1;color-rendering:auto;image-rendering:auto;shape-rendering:auto;text-rendering:auto;enable-background:accumulate"
         d="M 3.5007856,2.3811968 A 0.27086664,0.2584978 0 0 0 3.3528369,2.4231731 L 3.0749333,2.594894 A 0.27086664,0.2584978 0 0 0 2.9529756,2.8124071 l 0,0.1659969 a 0.27086664,0.2584978 0 0 0 0.2659077,0.2575814 l 0,0.0477 -0.004,0 A 0.27086664,0.2584978 0 0 0 2.9429791,3.5412671 l 0,0.1564568 a 0.27086664,0.2584978 0 0 0 0.2719057,0.2594894 l 0.7497399,0 A 0.27086664,0.2584978 0 0 0 4.2345311,3.6977239 l 0,-0.1564568 A 0.27086664,0.2584978 0 0 0 3.9806192,3.2836857 l 0,-0.6429995 A 0.27086664,0.2584978 0 0 0 3.7107128,2.3811968 l -0.2099272,0 z"
         id="text28"
         inkscape:connector-curvature="0" />
      <text
         x="3.1418631"
         y="3.6982391"
         id="text32"
         style="font-size:medium;font-family:'Bitstream Vera Sans';fill:#e601b4;fill-opacity:1;stroke-width:0.26458299">
        <tspan
           font-size="1.538301"
           font-weight="bold"
           x="3.1418631"
           y="3.6982391"
           id="tspan34"
           style="font-weight:bold;font-size:1.53830099px;font-family:'Liberation Sans';fill:#e601b4;fill-opacity:1;stroke-width:0.26458299">1</tspan>
      </text>
    </g>
  </g>
</svg>
