<?xml version="1.0" encoding="UTF-8"?>
<svg xmlns="http://www.w3.org/2000/svg" xmlns:xlink="http://www.w3.org/1999/xlink" width="32px" height="32px" viewBox="0 0 32 32" version="1.1">
<g id="surface1">
<path style=" stroke:none;fill-rule:nonzero;fill:rgb(61.56863%,22.745098%,60.784316%);fill-opacity:1;" d="M 24.40625 19.351562 L 23.707031 22.710938 C 22.621094 27.734375 18.792969 30.246094 12.214844 30.246094 C 5.640625 30.246094 2.898438 27.734375 3.980469 22.710938 L 4.757812 19.046875 L 9.464844 19.046875 L 8.6875 22.710938 C 8.070312 25.585938 9.480469 27.027344 12.917969 27.027344 C 16.355469 27.027344 18.382812 25.585938 19 22.710938 L 19.777344 19 L 16.972656 18.601562 C 8.3125 17.421875 4.480469 14.480469 5.484375 9.785156 C 5.949219 7.636719 7.175781 5.839844 9.164062 4.394531 C 11.132812 2.964844 14.203125 2.246094 18.375 2.246094 C 22.546875 2.246094 25.316406 2.964844 26.683594 4.394531 C 28.035156 5.839844 28.511719 7.480469 28.113281 9.316406 L 27.863281 10.484375 L 23.15625 10.484375 L 23.40625 9.316406 C 23.65625 8.199219 23.363281 7.273438 22.53125 6.539062 C 21.710938 5.824219 20.09375 5.46875 17.671875 5.46875 C 15.253906 5.46875 13.476562 5.824219 12.34375 6.539062 C 11.222656 7.273438 10.507812 8.351562 10.1875 9.785156 C 9.554688 12.738281 12.125 14.613281 17.898438 15.40625 L 20.675781 15.78125 C 20.910156 15.40625 21.226562 15.066406 21.628906 14.753906 C 22.347656 14.195312 23.140625 13.914062 24.007812 13.914062 C 24.875 13.914062 25.550781 14.203125 26.035156 14.777344 C 26.519531 15.335938 26.675781 16.019531 26.507812 16.832031 C 26.34375 17.640625 25.890625 18.324219 25.15625 18.882812 C 24.925781 19.070312 24.675781 19.226562 24.40625 19.351562 Z M 24.40625 19.351562 "/>
</g>
</svg>
