<?xml version="1.0" encoding="UTF-8"?>
<svg xmlns="http://www.w3.org/2000/svg" xmlns:xlink="http://www.w3.org/1999/xlink" width="24px" height="24px" viewBox="0 0 24 24" version="1.1">
<g id="surface1">
<path style=" stroke:none;fill-rule:nonzero;fill:rgb(61.56863%,22.745098%,60.784316%);fill-opacity:1;" d="M 5.367188 7.984375 L 9.1875 7.984375 L 9.1875 9.519531 L 13.328125 9.519531 C 14.316406 9.519531 14.8125 9.324219 14.8125 8.929688 L 14.8125 6.21875 L 18.632812 6.21875 L 18.632812 8.929688 C 18.632812 10.800781 17.570312 11.734375 15.449219 11.734375 L 5.367188 11.734375 Z M 9.1875 19.648438 L 12.011719 17.359375 L 14.8125 19.625 L 14.8125 13.019531 L 18.632812 13.019531 L 18.632812 22.726562 L 15.078125 22.726562 L 12.011719 20.25 L 8.933594 22.726562 L 5.367188 22.726562 L 5.367188 13.019531 L 9.1875 13.019531 Z M 9.1875 19.648438 "/>
<path style=" stroke:none;fill-rule:nonzero;fill:rgb(61.56863%,22.745098%,60.784316%);fill-opacity:1;" d="M 6.03125 4.449219 C 6.03125 2.484375 7.621094 1.5 10.804688 1.5 C 12.125 1.5 13.40625 1.792969 14.652344 2.382812 C 15.890625 2.972656 16.996094 3.660156 17.96875 4.449219 L 17.96875 6.21875 L 7.355469 6.21875 C 6.472656 6.21875 6.03125 5.628906 6.03125 4.449219 Z M 10.804688 3.621094 C 9.832031 3.621094 9.347656 3.976562 9.347656 4.683594 L 14.757812 4.683594 C 13.769531 3.976562 12.449219 3.621094 10.804688 3.621094 Z M 10.804688 3.621094 "/>
</g>
</svg>
