<?xml version="1.0" encoding="UTF-8"?>
<svg xmlns="http://www.w3.org/2000/svg" xmlns:xlink="http://www.w3.org/1999/xlink" width="24px" height="24px" viewBox="0 0 24 24" version="1.1">
<g id="surface1">
<path style=" stroke:none;fill-rule:nonzero;fill:rgb(61.56863%,22.745098%,60.784316%);fill-opacity:1;" d="M 18.304688 14.511719 L 17.78125 17.03125 C 16.964844 20.800781 14.09375 22.683594 9.164062 22.683594 C 4.230469 22.683594 2.171875 20.800781 2.984375 17.03125 L 3.566406 14.285156 L 7.097656 14.285156 L 6.515625 17.03125 C 6.050781 19.191406 7.109375 20.269531 9.6875 20.269531 C 12.265625 20.269531 13.789062 19.191406 14.25 17.03125 L 14.832031 14.25 L 12.730469 13.953125 C 6.234375 13.066406 3.363281 10.859375 4.113281 7.339844 C 4.460938 5.726562 5.382812 4.378906 6.871094 3.296875 C 8.347656 2.222656 10.652344 1.6875 13.78125 1.6875 C 16.910156 1.6875 18.988281 2.222656 20.015625 3.296875 C 21.027344 4.378906 21.382812 5.613281 21.082031 6.988281 L 20.894531 7.863281 L 17.367188 7.863281 L 17.554688 6.988281 C 17.742188 6.148438 17.523438 5.453125 16.898438 4.90625 C 16.285156 4.367188 15.070312 4.101562 13.253906 4.101562 C 11.441406 4.101562 10.109375 4.367188 9.257812 4.90625 C 8.417969 5.453125 7.878906 6.265625 7.640625 7.339844 C 7.167969 9.554688 9.09375 10.960938 13.425781 11.554688 L 15.507812 11.835938 C 15.683594 11.554688 15.921875 11.296875 16.222656 11.066406 C 16.757812 10.644531 17.355469 10.433594 18.003906 10.433594 C 18.65625 10.433594 19.164062 10.652344 19.527344 11.082031 C 19.886719 11.503906 20.007812 12.015625 19.882812 12.621094 C 19.757812 13.230469 19.417969 13.742188 18.867188 14.164062 C 18.691406 14.300781 18.503906 14.417969 18.304688 14.511719 Z M 18.304688 14.511719 "/>
</g>
</svg>
