<?xml version="1.0" encoding="UTF-8"?>
<svg xmlns="http://www.w3.org/2000/svg" xmlns:xlink="http://www.w3.org/1999/xlink" width="24px" height="24px" viewBox="0 0 24 24" version="1.1">
<g id="surface1">
<path style=" stroke:none;fill-rule:nonzero;fill:rgb(61.56863%,22.745098%,60.784316%);fill-opacity:1;" d="M 4.683594 6.941406 L 3.859375 5.996094 L 3.203125 5.234375 C 2.972656 4.980469 2.855469 4.726562 2.855469 4.472656 C 2.855469 4.226562 2.960938 3.984375 3.167969 3.738281 L 3.777344 2.992188 L 5.011719 1.5 L 10.410156 1.5 L 10.410156 4.363281 L 5.835938 4.363281 L 9.425781 6.984375 L 9.425781 12.253906 C 9.425781 13.625 10.585938 14.308594 12.914062 14.308594 C 15.238281 14.308594 16.402344 13.625 16.402344 12.253906 L 16.402344 7.503906 L 14.675781 5.996094 L 13.820312 5.234375 C 13.480469 4.9375 13.308594 4.648438 13.308594 4.363281 C 13.308594 4.152344 13.394531 3.945312 13.570312 3.738281 L 14.179688 2.992188 L 15.414062 1.5 L 21.144531 1.5 L 21.144531 4.363281 L 16.238281 4.363281 L 21.144531 6.984375 L 21.144531 12.253906 C 21.144531 15.535156 18.398438 17.175781 12.914062 17.175781 C 7.425781 17.175781 4.683594 15.535156 4.683594 12.253906 Z M 4.683594 6.941406 "/>
<path style=" stroke:none;fill-rule:nonzero;fill:rgb(61.56863%,22.745098%,60.784316%);fill-opacity:1;" d="M 1.792969 21 L 22.207031 21 C 22.371094 21 22.5 21.167969 22.5 21.375 L 22.5 22.125 C 22.5 22.332031 22.371094 22.5 22.207031 22.5 L 1.792969 22.5 C 1.628906 22.5 1.5 22.332031 1.5 22.125 L 1.5 21.375 C 1.5 21.167969 1.628906 21 1.792969 21 Z M 1.792969 21 "/>
<path style=" stroke:none;fill-rule:nonzero;fill:rgb(61.56863%,22.745098%,60.784316%);fill-opacity:1;" d="M 1.792969 18 L 22.207031 18 C 22.371094 18 22.5 18.167969 22.5 18.375 L 22.5 19.125 C 22.5 19.332031 22.371094 19.5 22.207031 19.5 L 1.792969 19.5 C 1.628906 19.5 1.5 19.332031 1.5 19.125 L 1.5 18.375 C 1.5 18.167969 1.628906 18 1.792969 18 Z M 1.792969 18 "/>
</g>
</svg>
