<?xml version="1.0" encoding="UTF-8" standalone="no"?>
<svg
   xmlns:dc="http://purl.org/dc/elements/1.1/"
   xmlns:cc="http://creativecommons.org/ns#"
   xmlns:rdf="http://www.w3.org/1999/02/22-rdf-syntax-ns#"
   xmlns:svg="http://www.w3.org/2000/svg"
   xmlns="http://www.w3.org/2000/svg"
   xmlns:sodipodi="http://sodipodi.sourceforge.net/DTD/sodipodi-0.dtd"
   xmlns:inkscape="http://www.inkscape.org/namespaces/inkscape"
   viewBox="0 0 16 16"
   version="1.1"
   id="svg13"
   sodipodi:docname="sc_italic.svg"
   inkscape:version="0.92.4 (5da689c313, 2019-01-14)">
  <metadata
     id="metadata19">
    <rdf:RDF>
      <cc:Work
         rdf:about="">
        <dc:format>image/svg+xml</dc:format>
        <dc:type
           rdf:resource="http://purl.org/dc/dcmitype/StillImage" />
        <dc:title></dc:title>
      </cc:Work>
    </rdf:RDF>
  </metadata>
  <defs
     id="defs17" />
  <sodipodi:namedview
     pagecolor="#ffffff"
     bordercolor="#666666"
     borderopacity="1"
     objecttolerance="10"
     gridtolerance="10"
     guidetolerance="10"
     inkscape:pageopacity="0"
     inkscape:pageshadow="2"
     inkscape:window-width="1600"
     inkscape:window-height="836"
     id="namedview15"
     showgrid="true"
     inkscape:zoom="29.5"
     inkscape:cx="8.4229584"
     inkscape:cy="9.0712598"
     inkscape:window-x="0"
     inkscape:window-y="27"
     inkscape:window-maximized="1"
     inkscape:current-layer="svg13">
    <inkscape:grid
       type="xygrid"
       id="grid826"
       spacingx="0.5"
       spacingy="0.5"
       empspacing="2" />
  </sodipodi:namedview>
  <linearGradient
     id="a"
     gradientUnits="userSpaceOnUse"
     x1="7.915254"
     x2="7.949153"
     y1="15.932203"
     y2=".271186">
    <stop
       offset="0"
       stop-color="#555"
       id="stop2" />
    <stop
       offset="1"
       id="stop4" />
  </linearGradient>
  <text
     transform="scale(.98518432 1.0150385)"
     x="20.576035"
     y="17.066408"
     id="text9">
    <tspan
       x="20.576035"
       y="17.066408"
       id="tspan7" />
  </text>
  <path
     d="m 12.203543,9.6749863 -0.350441,1.6798727 q -0.813526,3.768048 -5.7447425,3.768048 -4.9312163,0 -4.1176908,-3.768048 L 2.3786578,9.5233312 h 2.3529661 l -0.387989,1.8315278 q -0.4630838,2.15817 2.1151664,2.15817 2.5782501,0 3.041334,-2.15817 L 9.888125,9.5 8.4863572,9.3016813 Q 1.9906687,8.4150817 2.7416154,4.8920149 3.0920571,3.2821368 4.5814346,2.1972189 6.0582965,1.1239668 9.1872408,1.1239668 q 3.1289452,0 4.1552382,1.0732521 1.013778,1.0849179 0.7134,2.4614804 L 13.93072,5.2419885 H 11.577754 L 11.702912,4.6586993 Q 11.890649,3.8187628 11.26486,3.270471 10.651588,2.7338449 8.8367989,2.7338449 q -1.8147876,0 -2.6658604,0.5366261 Q 5.3323813,3.8187628 5.0945816,4.8920149 4.618982,7.1085138 8.9494411,7.7034688 l 1.3892519,0.1866526 q 0.175221,-0.2799788 0.475599,-0.5132945 0.538178,-0.4199683 1.188999,-0.4199683 0.650821,0 1.013778,0.4316342 0.362958,0.4199682 0.2378,1.0265889 -0.125157,0.6066208 -0.675853,1.0265889 -0.17522,0.1399891 -0.375473,0.2333157 z"
     id="path11"
     style="fill:#9d3a9b;stroke-width:1"
     inkscape:connector-curvature="0" />
</svg>
