<?xml version="1.0" encoding="UTF-8" standalone="no"?>
<svg
   xmlns:dc="http://purl.org/dc/elements/1.1/"
   xmlns:cc="http://creativecommons.org/ns#"
   xmlns:rdf="http://www.w3.org/1999/02/22-rdf-syntax-ns#"
   xmlns:svg="http://www.w3.org/2000/svg"
   xmlns="http://www.w3.org/2000/svg"
   xmlns:sodipodi="http://sodipodi.sourceforge.net/DTD/sodipodi-0.dtd"
   xmlns:inkscape="http://www.inkscape.org/namespaces/inkscape"
   viewBox="0 0 16 16"
   version="1.1"
   id="svg15"
   sodipodi:docname="sc_underline.svg"
   inkscape:version="0.92.4 (5da689c313, 2019-01-14)"><metadata
   id="metadata21">
  <rdf:RDF>
    <cc:Work
       rdf:about="">
      <dc:format>image/svg+xml</dc:format>
      <dc:type
         rdf:resource="http://purl.org/dc/dcmitype/StillImage" />
      <dc:title></dc:title>
    </cc:Work>
  </rdf:RDF>
</metadata>
<defs
   id="defs19" />
<sodipodi:namedview
   pagecolor="#ffffff"
   bordercolor="#666666"
   borderopacity="1"
   objecttolerance="10"
   gridtolerance="10"
   guidetolerance="10"
   inkscape:pageopacity="0"
   inkscape:pageshadow="2"
   inkscape:window-width="1600"
   inkscape:window-height="836"
   id="namedview17"
   showgrid="true"
   inkscape:zoom="14.75"
   inkscape:cx="5.0503997"
   inkscape:cy="8.8936728"
   inkscape:window-x="0"
   inkscape:window-y="27"
   inkscape:window-maximized="1"
   inkscape:current-layer="svg15">
  <inkscape:grid
     type="xygrid"
     id="grid831"
     spacingx="0.5"
     spacingy="0.5"
     empspacing="2" />
</sodipodi:namedview>
<linearGradient
   id="a"
   gradientUnits="userSpaceOnUse"
   x1="8.796611"
   x2="8.694915"
   y1="14.050846"
   y2=".152541"
   gradientTransform="matrix(0.86666661,0,0,0.86666661,1.0666673,1.0000009)">
  <stop
     offset="0"
     stop-color="#555"
     id="stop2" />
  <stop
     offset="1"
     id="stop4" />
</linearGradient>




/&amp;amp;amp;gt;<text
   x="20.271187"
   y="16.813559"
   id="text9">
  <tspan
     x="20.271187"
     y="16.813559"
     id="tspan7" />
</text>
<path
   d="M 3.1455752,4.6096665 2.5995207,3.9827778 2.162677,3.4772222 Q 1.933334,3.2244443 1.933334,2.9716666 q 0,-0.2426667 0.2075008,-0.4853333 L 2.5449152,1.9908889 3.363997,0.99999996 H 6.9461148 V 2.9008888 H 3.9100515 l 2.3807979,1.7391111 v 5.227445 q 0,1.3650001 2.3152713,1.3650001 2.3152713,0 2.3152713,-1.3650001 V 4.9837777 L 9.7746777,3.9827778 9.2067807,3.4772222 Q 8.8682268,3.184 8.8682268,2.9008888 q 0,-0.2123334 0.1747376,-0.4145555 L 9.4470447,1.9908889 10.266127,0.99999996 h 3.80054 V 2.9008888 h -3.254486 l 3.254486,1.7391111 v 5.227445 q 0,3.2658871 -5.4605463,3.2658871 -5.4605455,0 -5.4605455,-3.2658871 z"
   id="path11"
   inkscape:connector-curvature="0"
   style="fill:#9d3a9b;stroke-width:0.99999994" />
<rect
   height="1"
   rx="0.19329092"
   ry="0.24862672"
   width="13.999999"
   x="1"
   y="14"
   id="rect13"
   style="fill:#9d3a9b;stroke-width:0.12499999" />
</svg>
