<?xml version="1.0" encoding="UTF-8"?>
<svg xmlns="http://www.w3.org/2000/svg" xmlns:xlink="http://www.w3.org/1999/xlink" width="32px" height="32px" viewBox="0 0 32 32" version="1.1">
<g id="surface1">
<path style=" stroke:none;fill-rule:nonzero;fill:rgb(61.56863%,22.745098%,60.784316%);fill-opacity:1;" d="M 6.292969 9.21875 L 5.199219 7.964844 L 4.324219 6.953125 C 4.019531 6.617188 3.867188 6.28125 3.867188 5.941406 C 3.867188 5.621094 4.003906 5.296875 4.28125 4.972656 L 5.089844 3.980469 L 6.726562 2 L 13.890625 2 L 13.890625 5.800781 L 7.820312 5.800781 L 12.582031 9.28125 L 12.582031 19.734375 C 12.582031 21.554688 14.125 22.464844 17.210938 22.464844 C 20.300781 22.464844 21.84375 21.554688 21.84375 19.734375 L 21.84375 9.96875 L 19.550781 7.964844 L 18.414062 6.953125 C 17.960938 6.5625 17.738281 6.179688 17.738281 5.800781 C 17.738281 5.519531 17.851562 5.242188 18.085938 4.972656 L 18.894531 3.980469 L 20.53125 2 L 28.132812 2 L 28.132812 5.800781 L 21.625 5.800781 L 28.132812 9.28125 L 28.132812 19.734375 C 28.132812 24.089844 24.492188 26.265625 17.210938 26.265625 C 9.929688 26.265625 6.292969 24.089844 6.292969 19.734375 Z M 6.292969 9.21875 "/>
<path style=" stroke:none;fill-rule:nonzero;fill:rgb(61.56863%,22.745098%,60.784316%);fill-opacity:1;" d="M 2.386719 28 L 29.613281 28 C 29.828125 28 30 28.222656 30 28.496094 L 30 29.503906 C 30 29.777344 29.828125 30 29.613281 30 L 2.386719 30 C 2.171875 30 2 29.777344 2 29.503906 L 2 28.496094 C 2 28.222656 2.171875 28 2.386719 28 Z M 2.386719 28 "/>
</g>
</svg>
