<?xml version="1.0" encoding="UTF-8"?>
<svg xmlns="http://www.w3.org/2000/svg" xmlns:xlink="http://www.w3.org/1999/xlink" width="32px" height="32px" viewBox="0 0 32 32" version="1.1">
<g id="surface1">
<path style=" stroke:none;fill-rule:nonzero;fill:rgb(61.56863%,22.745098%,60.784316%);fill-opacity:1;" d="M 6.246094 9.253906 L 5.148438 7.996094 L 4.269531 6.976562 C 3.960938 6.640625 3.808594 6.300781 3.808594 5.960938 C 3.808594 5.636719 3.949219 5.3125 4.226562 4.988281 L 5.039062 3.992188 L 6.683594 2 L 13.882812 2 L 13.882812 5.820312 L 7.78125 5.820312 L 12.566406 9.316406 L 12.566406 16.335938 C 12.566406 18.164062 14.117188 19.078125 17.21875 19.078125 C 20.320312 19.078125 21.871094 18.164062 21.871094 16.335938 L 21.871094 10.007812 L 19.566406 7.996094 L 18.425781 6.976562 C 17.972656 6.585938 17.746094 6.199219 17.746094 5.820312 C 17.746094 5.535156 17.863281 5.257812 18.097656 4.988281 L 18.90625 3.992188 L 20.554688 2 L 28.191406 2 L 28.191406 5.820312 L 21.652344 5.820312 L 28.191406 9.316406 L 28.191406 16.335938 C 28.191406 20.710938 24.535156 22.898438 17.21875 22.898438 C 9.902344 22.898438 6.246094 20.710938 6.246094 16.335938 Z M 6.246094 9.253906 "/>
<path style=" stroke:none;fill-rule:nonzero;fill:rgb(61.56863%,22.745098%,60.784316%);fill-opacity:1;" d="M 2.386719 28 L 29.613281 28 C 29.824219 28 30 28.222656 30 28.5 L 30 29.5 C 30 29.777344 29.824219 30 29.613281 30 L 2.386719 30 C 2.175781 30 2 29.777344 2 29.5 L 2 28.5 C 2 28.222656 2.175781 28 2.386719 28 Z M 2.386719 28 "/>
<path style=" stroke:none;fill-rule:nonzero;fill:rgb(61.56863%,22.745098%,60.784316%);fill-opacity:1;" d="M 2.386719 24 L 29.613281 24 C 29.824219 24 30 24.222656 30 24.5 L 30 25.5 C 30 25.777344 29.824219 26 29.613281 26 L 2.386719 26 C 2.175781 26 2 25.777344 2 25.5 L 2 24.5 C 2 24.222656 2.175781 24 2.386719 24 Z M 2.386719 24 "/>
</g>
</svg>
