<?xml version="1.0" encoding="UTF-8" standalone="no"?>
<svg
   xmlns:dc="http://purl.org/dc/elements/1.1/"
   xmlns:cc="http://creativecommons.org/ns#"
   xmlns:rdf="http://www.w3.org/1999/02/22-rdf-syntax-ns#"
   xmlns:svg="http://www.w3.org/2000/svg"
   xmlns="http://www.w3.org/2000/svg"
   xmlns:xlink="http://www.w3.org/1999/xlink"
   xmlns:sodipodi="http://sodipodi.sourceforge.net/DTD/sodipodi-0.dtd"
   xmlns:inkscape="http://www.inkscape.org/namespaces/inkscape"
   enable-background="new 0 0 128 128"
   height="16"
   viewBox="0 0 16 16"
   width="16"
   version="1.1"
   id="svg191"
   sodipodi:docname="sc_exportdirecttopdf.svg"
   inkscape:version="0.92.4 (unknown)">
  <metadata
     id="metadata197">
    <rdf:RDF>
      <cc:Work
         rdf:about="">
        <dc:format>image/svg+xml</dc:format>
        <dc:type
           rdf:resource="http://purl.org/dc/dcmitype/StillImage" />
      </cc:Work>
    </rdf:RDF>
  </metadata>
  <defs
     id="defs195" />
  <sodipodi:namedview
     pagecolor="#ffffff"
     bordercolor="#666666"
     borderopacity="1"
     objecttolerance="10"
     gridtolerance="10"
     guidetolerance="10"
     inkscape:pageopacity="0"
     inkscape:pageshadow="2"
     inkscape:window-width="1366"
     inkscape:window-height="707"
     id="namedview193"
     showgrid="true"
     inkscape:snap-global="false"
     inkscape:zoom="41.7193"
     inkscape:cx="18.298628"
     inkscape:cy="5.8434342"
     inkscape:window-x="0"
     inkscape:window-y="0"
     inkscape:window-maximized="1"
     inkscape:current-layer="svg191">
    <inkscape:grid
       type="xygrid"
       id="grid1010" />
  </sodipodi:namedview>
  <linearGradient
     id="a">
    <stop
       offset="0"
       stop-color="#fff"
       id="stop2" />
    <stop
       offset="1"
       stop-color="#fff"
       stop-opacity="0"
       id="stop4" />
  </linearGradient>
  <linearGradient
     id="b"
     xlink:href="#a" />
  <linearGradient
     id="c"
     gradientUnits="userSpaceOnUse"
     x1="85.219681"
     x2="61.336319"
     y1="93.219681"
     y2="69.336319">
    <stop
       offset="0"
       id="stop8" />
    <stop
       offset="1"
       stop-color="#393b38"
       id="stop10" />
  </linearGradient>
  <linearGradient
     id="d"
     gradientUnits="userSpaceOnUse"
     x1="96"
     x2="88.000198"
     y1="104"
     y2="96.000198">
    <stop
       offset="0"
       stop-color="#888a85"
       id="stop13" />
    <stop
       offset=".0072"
       stop-color="#8c8e89"
       id="stop15" />
    <stop
       offset=".0673"
       stop-color="#abaca9"
       id="stop17" />
    <stop
       offset=".1347"
       stop-color="#c5c6c4"
       id="stop19" />
    <stop
       offset=".2115"
       stop-color="#dbdbda"
       id="stop21" />
    <stop
       offset=".3012"
       stop-color="#ebebeb"
       id="stop23" />
    <stop
       offset=".4122"
       stop-color="#f7f7f6"
       id="stop25" />
    <stop
       offset=".5679"
       stop-color="#fdfdfd"
       id="stop27" />
    <stop
       offset="1"
       stop-color="#fff"
       id="stop29" />
  </linearGradient>
  <filter
     id="e">
    <feGaussianBlur
       stdDeviation="1.0394514"
       id="feGaussianBlur32" />
  </filter>
  <filter
     id="f">
    <feGaussianBlur
       stdDeviation=".50063244"
       id="feGaussianBlur35" />
  </filter>
  <filter
     id="g">
    <feGaussianBlur
       stdDeviation=".4901192"
       id="feGaussianBlur38" />
  </filter>
  <filter
     id="h">
    <feGaussianBlur
       stdDeviation=".90565481"
       id="feGaussianBlur41" />
  </filter>
  <filter
     id="i"
     height="1.247155"
     width="1.247155"
     x="-.123577"
     y="-.123577">
    <feGaussianBlur
       stdDeviation="1.7720846"
       id="feGaussianBlur44" />
  </filter>
  <linearGradient
     id="j"
     gradientUnits="userSpaceOnUse"
     x1="15.700001"
     x2="128"
     y1="64"
     y2="120">
    <stop
       offset="0"
       stop-color="#9c0f0f"
       id="stop47" />
    <stop
       offset=".5"
       stop-color="#e81919"
       id="stop49" />
    <stop
       offset="1"
       stop-color="#cd1313"
       id="stop51" />
  </linearGradient>
  <filter
     id="k"
     color-interpolation-filters="sRGB"
     height="1.064774"
     width="1.075169"
     x="-.037584"
     y="-.032387">
    <feGaussianBlur
       stdDeviation="1.5635135"
       id="feGaussianBlur54" />
  </filter>
  <linearGradient
     id="l"
     gradientUnits="userSpaceOnUse"
     x1="61"
     x2="105"
     y1="44"
     y2="72"
     gradientTransform="translate(-66.898176,-5.574848)">
    <stop
       offset="0"
       stop-color="#382a23"
       id="stop57" />
    <stop
       offset="1"
       stop-color="#753919"
       stop-opacity="0"
       id="stop59" />
  </linearGradient>
  <filter
     id="m">
    <feGaussianBlur
       stdDeviation="1.5750545"
       id="feGaussianBlur62" />
  </filter>
  <radialGradient
     id="n"
     cx="59.940041"
     cy="56.035801"
     fx="59.940041"
     fy="56.035801"
     gradientTransform="matrix(1,0,0,1.8330946,-66.898176,-52.257969)"
     gradientUnits="userSpaceOnUse"
     r="24.090857"
     xlink:href="#o" />
  <radialGradient
     id="o"
     cx="48"
     cy="-.2148"
     gradientTransform="matrix(.9792 0 0 .9725 133.0002 20.8762)"
     gradientUnits="userSpaceOnUse"
     r="55.147999">
    <stop
       offset="0"
       stop-color="#fff718"
       id="stop66" />
    <stop
       offset="1"
       stop-color="#e77100"
       id="stop68" />
  </radialGradient>
  <radialGradient
     id="p"
     cx="92.609375"
     cy="2.384881"
     gradientTransform="matrix(3.49562,-2.4342373,0.6597955,0.94748129,-303.25924,221.82937)"
     gradientUnits="userSpaceOnUse"
     r="1.515625"
     xlink:href="#a" />
  <filter
     id="q"
     height="1.295681"
     width="1.265199"
     x="-.132599"
     y="-.147841">
    <feGaussianBlur
       stdDeviation=".16747573"
       id="feGaussianBlur72" />
  </filter>
  <linearGradient
     id="r"
     gradientUnits="userSpaceOnUse"
     x1="37.013638"
     x2="82.901695"
     y1="55.986382"
     y2="55.986382"
     gradientTransform="translate(-66.898176,-5.574848)">
    <stop
       offset="0"
       stop-color="#753919"
       id="stop75" />
    <stop
       offset="1"
       stop-color="#753919"
       stop-opacity="0"
       id="stop77" />
  </linearGradient>
  <radialGradient
     id="s"
     cx="92.504089"
     cy="1.991497"
     gradientTransform="matrix(1.6002822,-3.1923724,1.0321559,0.51740226,-4.9642152,301.28689)"
     gradientUnits="userSpaceOnUse"
     r="1.515625"
     xlink:href="#t" />
  <linearGradient
     id="t">
    <stop
       offset="0"
       stop-color="#fdff63"
       id="stop81" />
    <stop
       offset="1"
       stop-color="#fff"
       stop-opacity="0"
       id="stop83" />
  </linearGradient>
  <radialGradient
     id="u"
     cx="92.609375"
     cy="2.384881"
     gradientTransform="matrix(3.49562,-2.4342373,0.6597955,0.94748129,-310.62542,253.49951)"
     gradientUnits="userSpaceOnUse"
     r="1.515625"
     xlink:href="#a" />
  <radialGradient
     id="v"
     cx="47.98196"
     cy="64.88855"
     fx="45.620869"
     fy="43.625381"
     gradientTransform="matrix(0.25568275,0.1196198,-0.40782751,0.87171573,-6.8871002,6.93262)"
     gradientUnits="userSpaceOnUse"
     r="22.407845">
    <stop
       offset="0"
       stop-color="#31170a"
       id="stop87" />
    <stop
       offset="1"
       stop-color="#542912"
       stop-opacity="0"
       id="stop89" />
  </radialGradient>
  <radialGradient
     id="w"
     cx="77"
     cy="40.033596"
     gradientTransform="matrix(2.2388445,0,0,4.487111,-173.23486,-183.28724)"
     gradientUnits="userSpaceOnUse"
     r="19.958006">
    <stop
       offset="0"
       stop-color="#ffea00"
       id="stop92" />
    <stop
       offset="1"
       stop-color="#fc0"
       id="stop94" />
  </radialGradient>
  <radialGradient
     id="x"
     cx="92.609375"
     cy="2.384881"
     gradientTransform="matrix(3.49562,-2.4342373,0.6597955,0.94748129,-184.14634,229.67211)"
     gradientUnits="userSpaceOnUse"
     r="1.515625"
     xlink:href="#t" />
  <radialGradient
     id="y"
     cx="77"
     cy="43.275459"
     gradientTransform="matrix(1.8469014,0,0,3.7015753,-146.10959,-141.76222)"
     gradientUnits="userSpaceOnUse"
     r="19.958006">
    <stop
       offset="0"
       stop-color="#ffea00"
       id="stop98" />
    <stop
       offset="1"
       stop-color="#dea200"
       id="stop100" />
  </radialGradient>
  <radialGradient
     id="z"
     cx="54.0625"
     cy="56"
     fx="59.98452"
     fy="46.739941"
     gradientTransform="matrix(1.631111,0.28444492,-0.80286938,4.6039467,-70.056925,-234.77368)"
     gradientUnits="userSpaceOnUse"
     r="14.0625"
     xlink:href="#o" />
  <linearGradient
     id="A"
     gradientUnits="userSpaceOnUse"
     x1="43.000001"
     x2="47.244662"
     y1="76"
     y2="46.741943"
     gradientTransform="translate(-66.898176,-5.574848)">
    <stop
       offset="0"
       stop-color="#fffccf"
       id="stop104" />
    <stop
       offset="1"
       stop-color="#fff"
       stop-opacity="0"
       id="stop106" />
  </linearGradient>
  <linearGradient
     id="B"
     gradientUnits="userSpaceOnUse"
     x1="40.371115"
     x2="48.230422"
     y1="31.368244"
     y2="2.036914"
     gradientTransform="translate(-66.898176,-5.574848)">
    <stop
       offset="0"
       stop-color="#fff"
       stop-opacity="0"
       id="stop109" />
    <stop
       offset=".5"
       stop-color="#fff"
       stop-opacity=".18705"
       id="stop111" />
    <stop
       offset="1"
       stop-color="#fff"
       id="stop113" />
  </linearGradient>
  <linearGradient
     id="C"
     gradientUnits="userSpaceOnUse"
     x1="47.3"
     x2="39.374375"
     xlink:href="#a"
     y1="44"
     y2="30.272415"
     gradientTransform="translate(-66.898176,-5.574848)" />
  <linearGradient
     id="D"
     gradientUnits="userSpaceOnUse"
     x1="30.450985"
     x2="41.028702"
     y1="79.965019"
     y2="40.488441"
     gradientTransform="translate(-66.898176,-5.574848)">
    <stop
       offset="0"
       stop-color="#ffeb4a"
       id="stop117" />
    <stop
       offset="1"
       stop-color="#ffeb4a"
       stop-opacity="0"
       id="stop119" />
  </linearGradient>
  <filter
     id="E">
    <feGaussianBlur
       stdDeviation=".43658741"
       id="feGaussianBlur122" />
  </filter>
  <radialGradient
     id="F"
     cx="67.273438"
     cy="2.351479"
     gradientTransform="matrix(2.1582105,2.7612836,-0.9564263,0.74753972,-145.17572,-188.95444)"
     gradientUnits="userSpaceOnUse"
     r="1.351563"
     xlink:href="#a" />
  <filter
     id="G"
     height="1.284083"
     width="1.324416"
     x="-.162208"
     y="-.142041">
    <feGaussianBlur
       stdDeviation=".17107863"
       id="feGaussianBlur126" />
  </filter>
  <rect
     rx="0.99999994"
     ry="1"
     y="1.5"
     x="1.5"
     height="13"
     width="11"
     id="rect4214"
     style="opacity:1;fill:#f0e3ec;fill-opacity:1;fill-rule:nonzero;stroke:#e602b4;stroke-width:1;stroke-linecap:round;stroke-linejoin:round;stroke-miterlimit:4;stroke-dasharray:none;stroke-dashoffset:0;stroke-opacity:1" />
  <path
     d="M 9.5530481,8.1641285 C 9.1934421,8.2050073 8.7670017,8.2903653 8.3079055,8.4157073 8.0784429,8.3192863 7.8354265,8.2124963 7.6354892,8.0673308 7.1282266,7.6994983 6.6737344,7.1572589 6.3549163,6.525809 6.3631663,6.460504 6.3710103,6.396743 6.3772413,6.3324513 6.4059883,6.0284156 6.3308673,5.044799 6.3308673,5.044799 c 0,0 -0.094923,0.7578575 -0.1105279,0.8723239 -0.010041,0.07268 -0.024468,0.1506864 -0.04174,0.2321546 C 5.972269,5.6627803 5.8381885,5.1825792 5.7918546,4.8118701 5.7787399,4.7069445 5.7622509,4.5022594 5.7717998,4.3372892 c 3.28e-5,-0.1167984 0.0345,-0.1818335 0.074109,-0.2161224 0.088066,0.010124 0.1999059,0.1293259 0.3272192,0.3363936 0.1094861,0.1790198 0.1316263,0.3995552 0.1486374,0.5356491 0,0 0.04983,-0.3484669 0.00369,-0.5449292 C 6.2976093,4.3303367 6.1454253,4.0370713 5.904454,4.0709407 L 5.88479,4.0734007 5.7771005,4.0852517 C 5.6007188,4.1072937 5.4465562,4.2144599 5.4245197,4.3619982 5.3446731,4.9274675 5.6162036,5.7525669 6.0245561,6.7717648 L 5.9663103,6.9862392 C 5.8191342,7.5293922 5.618925,8.0771671 5.4431996,8.5630743 4.7174871,10.565652 4.096914,11.674756 3.6073885,11.808183 l -0.00469,-0.02022 c -0.040154,-0.23343 0.3172178,-0.893183 0.843845,-1.447886 0.054964,-0.05728 0.2842869,-0.3427377 0.2842869,-0.3427377 0,0 -0.3291501,0.2306707 -0.402289,0.2884517 -0.6802497,0.531392 -0.9912362,1.017225 -1.0143539,1.316881 -0.00682,0.08902 0.018176,0.194135 0.1000966,0.228401 l 0.1999732,0.07116 c 0.5437273,0.192485 1.0884251,-0.560309 1.7416355,-2.1327597 0.8163887,-0.385954 1.8455199,-0.782049 2.7948214,-1.045526 0.9275009,0.38697 1.9499538,0.498588 2.3186328,0.349053 0.07019,-0.02827 0.139607,-0.09479 0.171969,-0.152258 0.02455,-0.05222 0.04289,-0.251215 0.04289,-0.251215 0,0 -0.05931,0.107184 -0.114753,0.143369 -0.227304,0.144344 -1.0132029,0.04916 -1.8434338,-0.236186 0.6673479,-0.156592 1.2307109,-0.230092 1.5438728,-0.171361 0.397654,0.07438 0.413342,0.199903 0.411472,0.226072 0.0024,-0.0217 0.0093,-0.107949 0.0028,-0.1434 -0.02028,-0.090789 -0.05858,-0.16921 -0.136459,-0.228453 C 10.388632,8.1377084 10.03022,8.1108457 9.5530501,8.1641303 Z M 5.4101402,9.5797753 c 0.1126134,-0.27575 0.2344094,-0.575948 0.3571411,-0.898692 0.2371095,-0.627042 0.3688068,-1.1046778 0.4738429,-1.55178 0.3126217,0.4718139 0.7171267,0.9067793 1.2169758,1.233368 0.1114887,0.07278 0.2287147,0.140156 0.3485223,0.202663 -0.8018202,0.255406 -1.6372693,0.578252 -2.3964821,1.014441 z"
     id="path151"
     inkscape:connector-curvature="0"
     style="fill:#e602b4;stroke-width:0.19528665" />
  <g
     transform="matrix(0.13041816,0,0,0.13041816,14.807992,3.681343)"
     id="g189"
     style="fill:#f3b7d9;stroke:#9d3a9b;stroke-width:3.83382201;stroke-linecap:round;stroke-linejoin:round;stroke-miterlimit:4;stroke-dasharray:none">
    <path
       d="m -40.566022,84.728715 13.766383,-39.395754 h -9.383646 L -22.901552,4.2184572 H -0.57588792 L -18.290774,35.844998 h 10.4670591 z"
       id="path171"
       style="fill:#f3b7d9;stroke:#9d3a9b;stroke-width:3.83382201;stroke-linecap:round;stroke-linejoin:round;stroke-miterlimit:4;stroke-dasharray:none"
       inkscape:connector-curvature="0" />
  </g>
</svg>
