<?xml version="1.0" encoding="UTF-8" standalone="no"?>
<svg
   xmlns:dc="http://purl.org/dc/elements/1.1/"
   xmlns:cc="http://creativecommons.org/ns#"
   xmlns:rdf="http://www.w3.org/1999/02/22-rdf-syntax-ns#"
   xmlns:svg="http://www.w3.org/2000/svg"
   xmlns="http://www.w3.org/2000/svg"
   xmlns:sodipodi="http://sodipodi.sourceforge.net/DTD/sodipodi-0.dtd"
   xmlns:inkscape="http://www.inkscape.org/namespaces/inkscape"
   height="16"
   width="16"
   version="1.1"
   id="svg46"
   sodipodi:docname="sc_mirror.svg"
   inkscape:version="0.92.4 (unknown)"
   inkscape:export-filename="/home/annisaauliarasyidah/Desktop/4_242 (aulia)/sc 222/sc_mirror.png"
   inkscape:export-xdpi="96"
   inkscape:export-ydpi="96">
  <metadata
     id="metadata52">
    <rdf:RDF>
      <cc:Work
         rdf:about="">
        <dc:format>image/svg+xml</dc:format>
        <dc:type
           rdf:resource="http://purl.org/dc/dcmitype/StillImage" />
      </cc:Work>
    </rdf:RDF>
  </metadata>
  <defs
     id="defs50">
    <clipPath
       clipPathUnits="userSpaceOnUse"
       id="clipPath890">
      <rect
         height="10"
         rx="0.51826203"
         ry="0.5"
         transform="matrix(0.96476382,-0.26311741,0,1,0,0)"
         width="11.401754"
         y="4.5"
         id="rect892"
         x="0"
         style="fill:#e602b4" />
    </clipPath>
    <clipPath
       clipPathUnits="userSpaceOnUse"
       id="clipPath896">
      <path
         d="m 1.5,5 8,-2 C 9.777,2.9308 10,3.098 10,3.375 v 7 C 10,10.652 9.777,10.93075 9.5,11 l -8,2 C 1.223,13.06925 1,12.902 1,12.625 v -7 C 1,5.348 1.223,5.06925 1.5,5 Z"
         id="path898"
         style="fill:#f0e3ec"
         inkscape:connector-curvature="0" />
    </clipPath>
  </defs>
  <sodipodi:namedview
     pagecolor="#ffffff"
     bordercolor="#666666"
     borderopacity="1"
     objecttolerance="10"
     gridtolerance="10"
     guidetolerance="10"
     inkscape:pageopacity="0"
     inkscape:pageshadow="2"
     inkscape:window-width="1366"
     inkscape:window-height="707"
     id="namedview48"
     showgrid="true"
     inkscape:zoom="14.75"
     inkscape:cx="-16.474576"
     inkscape:cy="8"
     inkscape:window-x="0"
     inkscape:window-y="0"
     inkscape:window-maximized="1"
     inkscape:current-layer="g849">
    <inkscape:grid
       type="xygrid"
       id="grid840" />
  </sodipodi:namedview>
  <linearGradient
     id="a"
     gradientUnits="userSpaceOnUse"
     x1="17.624692"
     x2="17.624692"
     y1="123.641673"
     y2="113.376226">
    <stop
       offset="0"
       stop-color="#dda2a2"
       id="stop2" />
    <stop
       offset=".5"
       stop-color="#c86868"
       id="stop4" />
    <stop
       offset="1"
       stop-color="#edcdcd"
       id="stop6" />
  </linearGradient>
  <linearGradient
     id="b"
     gradientUnits="userSpaceOnUse"
     x1="1"
     x2="12.5"
     y1="120.00001"
     y2="118.5"
     gradientTransform="translate(0,-112)">
    <stop
       offset="0"
       stop-color="#fff"
       id="stop9" />
    <stop
       offset=".42597079"
       stop-color="#fff"
       id="stop11" />
    <stop
       offset=".5892781"
       stop-color="#f1f1f1"
       id="stop13" />
    <stop
       offset=".80219781"
       stop-color="#eaeaea"
       id="stop15" />
    <stop
       offset="1"
       stop-color="#dfdfdf"
       id="stop17" />
  </linearGradient>
  <linearGradient
     id="c"
     gradientUnits="userSpaceOnUse"
     x1="27.623286"
     x2="19.673938"
     y1="119.227072"
     y2="112.000392">
    <stop
       offset="0"
       stop-color="#fff"
       id="stop20" />
    <stop
       offset="1"
       stop-color="#fff"
       stop-opacity="0"
       id="stop22" />
  </linearGradient>
  <mask
     id="d"
     maskUnits="userSpaceOnUse">
    <path
       d="m18.95127 110.55506 11.562688-2.89068c.400358-.10001.722668.14165.722668.54201v10.11735c0 .40036-.32231.80324-.722668.90333l-11.562688 2.89067c-.400358.10002-.722667-.14164-.722667-.542v-10.11735c0-.40036.322309-.80324.722667-.90333z"
       fill="url(#c)"
       id="path25" />
  </mask>
  <g
     id="g849">
    <rect
       height="8.742548"
       rx="0.51826203"
       ry="0.5"
       transform="matrix(0.96476382,-0.2631174,0,1,0,0)"
       width="9.9680386"
       y="4.4107804"
       id="rect28"
       x="1.0365231"
       style="fill:#e602b4;stroke-width:1" />
    <path
       d="M 2.3113822,4.5751804 9.3054204,2.8266709 c 0.2421685,-0.060499 0.4371274,0.085677 0.4371274,0.3278455 v 6.1197835 c 0,0.2421689 -0.1949589,0.4858671 -0.4371274,0.5464091 l -6.9940382,1.74851 C 2.0692136,11.629761 1.8742548,11.483542 1.8742548,11.241373 V 5.1215897 c 0,-0.2421685 0.1949588,-0.4858671 0.4371274,-0.5464093 z"
       id="path30"
       style="fill:#f0e3ec;stroke-width:1"
       inkscape:connector-curvature="0" />
    <circle
       style="fill:#9d3a9b;fill-opacity:0.975;stroke-width:0.69188064"
       id="circle32"
       r="3.9299915"
       cy="9.3782644"
       cx="11.058084" />
    <circle
       style="fill:#f3b7d9;fill-opacity:1;stroke-width:0.69188064"
       id="circle34"
       r="3.0528975"
       cy="9.3782644"
       cx="11.058084" />
    <g
       style="stroke-width:1.14383137"
       transform="matrix(0.87425478,0,0,0.87425478,1,0.20390658)"
       clip-path="url(#clipPath896)"
       id="g888">
      <circle
         cx="0.49524757"
         cy="10.493917"
         r="4.4952474"
         id="circle38"
         style="fill:#da9bd9;fill-opacity:0.975;stroke-width:0.79139471" />
      <circle
         cx="0.49524757"
         cy="10.493917"
         r="3.4919996"
         id="circle40"
         style="fill:#f3b7d9;fill-opacity:1;stroke-width:0.79139471" />
    </g>
  </g>
</svg>
