<?xml version="1.0" encoding="UTF-8" standalone="no"?>
<svg
   xmlns:dc="http://purl.org/dc/elements/1.1/"
   xmlns:cc="http://creativecommons.org/ns#"
   xmlns:rdf="http://www.w3.org/1999/02/22-rdf-syntax-ns#"
   xmlns:svg="http://www.w3.org/2000/svg"
   xmlns="http://www.w3.org/2000/svg"
   xmlns:xlink="http://www.w3.org/1999/xlink"
   xmlns:sodipodi="http://sodipodi.sourceforge.net/DTD/sodipodi-0.dtd"
   xmlns:inkscape="http://www.inkscape.org/namespaces/inkscape"
   enable-background="new 0 0 128 128"
   height="16"
   viewBox="0 0 16 16"
   width="16"
   version="1.1"
   id="svg151"
   sodipodi:docname="sc_mailmergecreatedocuments.svg"
   inkscape:export-filename="/home/annisaauliarasyidah/Desktop/4_242 (aulia)/sc 222/sc_mailmergecreatedocuments.png"
   inkscape:export-xdpi="96"
   inkscape:export-ydpi="96"
   inkscape:version="0.92.4 (unknown)">
  <metadata
     id="metadata157">
    <rdf:RDF>
      <cc:Work
         rdf:about="">
        <dc:format>image/svg+xml</dc:format>
        <dc:type
           rdf:resource="http://purl.org/dc/dcmitype/StillImage" />
        <dc:title />
      </cc:Work>
    </rdf:RDF>
  </metadata>
  <defs
     id="defs155" />
  <sodipodi:namedview
     pagecolor="#ffffff"
     bordercolor="#666666"
     borderopacity="1"
     objecttolerance="10"
     gridtolerance="10"
     guidetolerance="10"
     inkscape:pageopacity="0"
     inkscape:pageshadow="2"
     inkscape:window-width="1366"
     inkscape:window-height="707"
     id="namedview153"
     showgrid="true"
     inkscape:zoom="29.5"
     inkscape:cx="10.443578"
     inkscape:cy="8.5762712"
     inkscape:window-x="0"
     inkscape:window-y="0"
     inkscape:window-maximized="1"
     inkscape:current-layer="svg151">
    <inkscape:grid
       type="xygrid"
       id="grid1025"
       spacingx="0.5"
       spacingy="0.5"
       empspacing="2" />
  </sodipodi:namedview>
  <linearGradient
     id="a">
    <stop
       offset="0"
       stop-color="#fff"
       id="stop2" />
    <stop
       offset="1"
       stop-color="#555753"
       id="stop4" />
  </linearGradient>
  <linearGradient
     id="b"
     gradientUnits="userSpaceOnUse"
     x1="94.343803"
     x2="86.535599"
     xlink:href="#a"
     y1="102.3447"
     y2="94.536598" />
  <linearGradient
     id="c"
     gradientUnits="userSpaceOnUse"
     x1="95"
     x2="86.586502"
     xlink:href="#a"
     y1="103"
     y2="94.586502" />
  <linearGradient
     id="d"
     gradientUnits="userSpaceOnUse"
     x1="95"
     x2="87.292999"
     y1="103"
     y2="95.292999">
    <stop
       offset="0"
       stop-color="#fff"
       id="stop9" />
    <stop
       offset="1"
       stop-color="#393b38"
       id="stop11" />
  </linearGradient>
  <filter
     id="e">
    <feGaussianBlur
       stdDeviation="2.2677902"
       id="feGaussianBlur14" />
  </filter>
  <radialGradient
     id="f"
     cx="110.000003"
     cy="116.3047"
     gradientUnits="userSpaceOnUse"
     r="139.5585">
    <stop
       offset="0"
       stop-color="#3e3e3e"
       id="stop17" />
    <stop
       offset=".1737"
       stop-color="#dfdfdf"
       id="stop19" />
    <stop
       offset=".2099"
       stop-color="#ecf2f5"
       id="stop21" />
    <stop
       offset=".2435"
       stop-color="#fafcfd"
       id="stop23" />
    <stop
       offset=".2722"
       stop-color="#fff"
       id="stop25" />
  </radialGradient>
  <radialGradient
     id="g"
     cx="102"
     cy="112.3047"
     gradientTransform="matrix(.7577494 .00000001 -.00000001 .7474952 24.959557 32.357472)"
     gradientUnits="userSpaceOnUse"
     r="139.55859">
    <stop
       offset="0"
       stop-color="#535557"
       id="stop28" />
    <stop
       offset=".11366145"
       stop-color="#898a8c"
       id="stop30" />
    <stop
       offset=".20296688"
       stop-color="#ececec"
       id="stop32" />
    <stop
       offset=".2363"
       stop-color="#fafafa"
       id="stop34" />
    <stop
       offset=".2722"
       stop-color="#fff"
       id="stop36" />
    <stop
       offset=".5313"
       stop-color="#fafafa"
       id="stop38" />
    <stop
       offset=".8449"
       stop-color="#ebecec"
       id="stop40" />
    <stop
       offset="1"
       stop-color="#e1e2e3"
       id="stop42" />
  </radialGradient>
  <linearGradient
     id="h"
     gradientUnits="userSpaceOnUse"
     x1="100.992697"
     x2="92.566533"
     xlink:href="#a"
     y1="105.262725"
     y2="96.836671" />
  <linearGradient
     id="i"
     gradientUnits="userSpaceOnUse"
     x1="101.700746"
     x2="92.621463"
     xlink:href="#a"
     y1="105.96973"
     y2="96.890447" />
  <linearGradient
     id="j"
     gradientTransform="matrix(1.0001522,0,0,1.0794114,7.983043,-5.205071)"
     gradientUnits="userSpaceOnUse"
     x1="95"
     x2="87.292999"
     xlink:href="#d"
     y1="103"
     y2="95.292999" />
  <linearGradient
     id="k"
     gradientUnits="userSpaceOnUse"
     x1="104.000003"
     x2="96.000201"
     y1="108"
     y2="100.000198">
    <stop
       offset="0"
       stop-color="#888a85"
       id="stop48" />
    <stop
       offset=".0072"
       stop-color="#8c8e89"
       id="stop50" />
    <stop
       offset=".0673"
       stop-color="#abaca9"
       id="stop52" />
    <stop
       offset=".1347"
       stop-color="#c5c6c4"
       id="stop54" />
    <stop
       offset=".2115"
       stop-color="#dbdbda"
       id="stop56" />
    <stop
       offset=".3012"
       stop-color="#ebebeb"
       id="stop58" />
    <stop
       offset=".4122"
       stop-color="#f7f7f6"
       id="stop60" />
    <stop
       offset=".5679"
       stop-color="#fdfdfd"
       id="stop62" />
    <stop
       offset="1"
       stop-color="#fff"
       id="stop64" />
  </linearGradient>
  <linearGradient
     id="l"
     gradientTransform="matrix(0.10000957,0.07498723,0.07498723,-0.10000957,-8.3829375,8.7147874)"
     gradientUnits="userSpaceOnUse"
     x1="113.15723"
     x2="39.268185"
     y1="25.786163"
     y2="25.786163">
    <stop
       offset="0"
       stop-color="#0968ef"
       id="stop67" />
    <stop
       offset="1"
       stop-color="#aecffc"
       id="stop69" />
  </linearGradient>
  <linearGradient
     id="m"
     gradientUnits="userSpaceOnUse"
     x1="102.343806"
     x2="94.535602"
     xlink:href="#a"
     y1="106.3447"
     y2="98.536598"
     gradientTransform="matrix(0.125,0,0,0.125,0,0.5)" />
  <linearGradient
     id="n"
     gradientUnits="userSpaceOnUse"
     x1="103.000003"
     x2="94.586505"
     xlink:href="#a"
     y1="107"
     y2="98.586502"
     gradientTransform="matrix(0.125,0,0,0.125,0,0.5)" />
  <linearGradient
     id="o"
     gradientUnits="userSpaceOnUse"
     x1="103.000003"
     x2="95.293002"
     xlink:href="#d"
     y1="107"
     y2="99.292999"
     gradientTransform="matrix(0.125,0,0,0.125,0,0.5)" />
  <path
     inkscape:connector-curvature="0"
     id="path900"
     d="M 3.120272,6.015332 H 7.4671455"
     style="fill:none;stroke:#e602b4;stroke-width:1px;stroke-linecap:round;stroke-linejoin:miter;stroke-opacity:1" />
  <rect
     rx="1"
     ry="1"
     y="1.5"
     x="1.5"
     height="8.6937685"
     width="7.3562665"
     id="rect902"
     style="opacity:1;fill:#f0e3ec;fill-opacity:1;fill-rule:nonzero;stroke:#e602b4;stroke-width:1;stroke-linecap:round;stroke-linejoin:round;stroke-miterlimit:4;stroke-dasharray:none;stroke-dashoffset:0;stroke-opacity:1" />
  <path
     inkscape:transform-center-y="-9.8604484"
     inkscape:transform-center-x="-11.030155"
     style="fill:#9d3a9b;fill-opacity:1;stroke:#9d3a9b;stroke-width:0.25;stroke-miterlimit:4;stroke-dasharray:none;stroke-opacity:1"
     id="path904"
     d="m 6.0975195,2.8375044 c 0.02079,-0.224779 0.182978,-0.387871 0.385917,-0.387871 0.135205,0 0.258997,0.07137 0.328652,0.18582 0.06903,-0.115881 0.187747,-0.18582 0.320784,-0.18582 0.202912,0 0.365101,0.163092 0.385889,0.387871 0.0017,0.0099 0.0084,0.0622 -0.01215,0.14743 -0.02958,0.12293 -0.09785,0.234719 -0.197418,0.323263 l -0.496792,0.442334 -0.505322,-0.442312 c -0.09958,-0.08854 -0.167864,-0.200327 -0.197424,-0.323263 -0.02053,-0.08519 -0.01376,-0.137436 -0.01215,-0.147393 z m 0.06554,0.135068 c 0.02698,0.112264 0.08954,0.214532 0.180727,0.295585 l 0.468299,0.409953 0.460264,-0.409823 c 0.09135,-0.08122 0.153877,-0.183454 0.180888,-0.295715 0.01943,-0.08063 0.01145,-0.126211 0.01141,-0.12651 l -4.13e-4,-0.0028 c -0.01783,-0.196924 -0.15716,-0.339916 -0.331358,-0.339916 -0.128539,0 -0.241695,0.07747 -0.29539,0.202221 l -0.02526,0.05876 -0.02526,-0.05876 c -0.05284,-0.122807 -0.171985,-0.202182 -0.303562,-0.202182 -0.174175,0 -0.313542,0.142955 -0.331724,0.342457 -5.5e-5,4.31e-4 -0.008,0.04601 0.0114,0.126641 z"
     inkscape:connector-curvature="0" />
  <path
     inkscape:connector-curvature="0"
     id="path906"
     d="M 2.967145,4.5153324 H 7.3140185"
     style="fill:#e602b4;stroke:#e602b4;stroke-width:1px;stroke-linecap:round;stroke-linejoin:miter;stroke-opacity:1" />
  <path
     style="fill:none;stroke:#e602b4;stroke-width:1px;stroke-linecap:round;stroke-linejoin:miter;stroke-opacity:1"
     d="M 2.967145,6.515332 H 7.3140185"
     id="path908"
     inkscape:connector-curvature="0" />
  <path
     inkscape:connector-curvature="0"
     id="path910"
     d="M 2.967145,8.515332 H 7.3140185"
     style="fill:none;stroke:#e602b4;stroke-width:1px;stroke-linecap:round;stroke-linejoin:miter;stroke-opacity:1" />
  <path
     style="fill:none;stroke:#e602b4;stroke-width:1px;stroke-linecap:round;stroke-linejoin:miter;stroke-opacity:1"
     d="M 8.8062535,10.5 H 13.153127"
     id="path933"
     inkscape:connector-curvature="0" />
  <rect
     style="opacity:1;fill:#f0e3ec;fill-opacity:1;fill-rule:nonzero;stroke:#e602b4;stroke-width:1;stroke-linecap:round;stroke-linejoin:round;stroke-miterlimit:4;stroke-dasharray:none;stroke-dashoffset:0;stroke-opacity:1"
     id="rect4214"
     width="7.3562665"
     height="8.6937685"
     x="7.1859818"
     y="5.9846678"
     ry="1"
     rx="1" />
  <path
     inkscape:connector-curvature="0"
     d="m 11.783501,7.3221724 c 0.02079,-0.224779 0.182978,-0.387871 0.385917,-0.387871 0.135205,0 0.258997,0.07137 0.328652,0.18582 0.06903,-0.115881 0.187747,-0.18582 0.320784,-0.18582 0.202912,0 0.365101,0.163092 0.385889,0.387871 0.0017,0.0099 0.0084,0.0622 -0.01215,0.14743 -0.02958,0.12293 -0.09785,0.234719 -0.197418,0.323263 l -0.496792,0.442334 -0.505322,-0.442312 c -0.09958,-0.08854 -0.167864,-0.200327 -0.197424,-0.323263 -0.02053,-0.08519 -0.01376,-0.137436 -0.01215,-0.147393 z m 0.06554,0.135068 c 0.02698,0.112264 0.08954,0.214532 0.180727,0.295585 l 0.468299,0.409953 0.460264,-0.409823 c 0.09135,-0.08122 0.153877,-0.183454 0.180888,-0.295715 0.01943,-0.08063 0.01145,-0.126211 0.01141,-0.12651 l -4.13e-4,-0.0028 c -0.01783,-0.196924 -0.15716,-0.339916 -0.331358,-0.339916 -0.128539,0 -0.241695,0.07747 -0.29539,0.202221 l -0.02526,0.05876 -0.02526,-0.05876 c -0.05284,-0.122807 -0.171985,-0.202182 -0.303562,-0.202182 -0.174175,0 -0.313542,0.142955 -0.331724,0.342457 -5.5e-5,4.31e-4 -0.008,0.04601 0.0114,0.126641 z"
     id="path2-3"
     style="fill:#9d3a9b;fill-opacity:1;stroke:#9d3a9b;stroke-width:0.25;stroke-miterlimit:4;stroke-dasharray:none;stroke-opacity:1"
     inkscape:transform-center-x="-11.030155"
     inkscape:transform-center-y="-9.8604484" />
  <path
     style="fill:#e602b4;stroke:#e602b4;stroke-width:1px;stroke-linecap:round;stroke-linejoin:miter;stroke-opacity:1"
     d="M 8.6531265,9.0000004 H 13"
     id="path927"
     inkscape:connector-curvature="0" />
  <path
     inkscape:connector-curvature="0"
     id="path929"
     d="M 8.6531265,11 H 13"
     style="fill:none;stroke:#e602b4;stroke-width:1px;stroke-linecap:round;stroke-linejoin:miter;stroke-opacity:1" />
  <path
     style="fill:none;stroke:#e602b4;stroke-width:1px;stroke-linecap:round;stroke-linejoin:miter;stroke-opacity:1"
     d="M 8.6531265,13 H 13"
     id="path931"
     inkscape:connector-curvature="0" />
  <g
     style="stroke-width:1.61538462;stroke-miterlimit:4;stroke-dasharray:none;stroke:#f0e3ec;stroke-opacity:1;fill:none"
     transform="matrix(0.64884574,-0.66426207,0.66426207,0.64884574,-4.1057788,4.7386109)"
     id="g920">
    <g
       transform="matrix(-1,0,0,1,4.6945382,0)"
       id="g918"
       style="stroke-width:1.61538462;stroke-miterlimit:4;stroke-dasharray:none;stroke:#f0e3ec;stroke-opacity:1;fill:none">
      <g
         transform="matrix(-1,0,0,1,5.078075,0)"
         id="g916"
         style="stroke-width:1.61538462;stroke-miterlimit:4;stroke-dasharray:none;stroke:#f0e3ec;stroke-opacity:1;fill:none">
        <path
           style="fill:none;stroke:#f0e3ec;stroke-width:1.61538462;stroke-linecap:round;stroke-linejoin:round;stroke-opacity:1;stroke-miterlimit:4;stroke-dasharray:none"
           d="M 3.772274,13.100005 2.1918309,15.445682 -0.15384595,13.865238"
           id="path912"
           inkscape:connector-curvature="0"
           sodipodi:nodetypes="ccc" />
        <path
           style="fill:none;stroke:#f0e3ec;stroke-width:1.61538462;stroke-linecap:round;stroke-linejoin:miter;stroke-opacity:1;stroke-miterlimit:4;stroke-dasharray:none"
           d="m 5.2307691,6.8488469 c 0,0 -5.3846155,-1.0769231 -3.2307693,7.5384621"
           id="path914"
           inkscape:connector-curvature="0" />
      </g>
    </g>
  </g>
  <g
     id="g883"
     transform="matrix(0.64884574,-0.66426207,0.66426207,0.64884574,-4.1057788,4.7386109)"
     style="stroke-width:1.07692313">
    <g
       id="g937"
       transform="matrix(-1,0,0,1,4.6945382,0)">
      <g
         id="g898"
         transform="matrix(-1,0,0,1,5.078075,0)">
        <path
           sodipodi:nodetypes="ccc"
           inkscape:connector-curvature="0"
           id="path857"
           d="M 3.772274,13.100005 2.1918309,15.445682 -0.15384595,13.865238"
           style="fill:none;stroke:#9d3a9b;stroke-width:1.07692313px;stroke-linecap:round;stroke-linejoin:round;stroke-opacity:1" />
        <path
           inkscape:connector-curvature="0"
           id="path894"
           d="m 5.2307691,6.8488469 c 0,0 -5.3846155,-1.0769231 -3.2307693,7.5384621"
           style="fill:none;stroke:#9d3a9b;stroke-width:1.07692313px;stroke-linecap:round;stroke-linejoin:miter;stroke-opacity:1" />
      </g>
    </g>
  </g>
</svg>
