<?xml version="1.0" encoding="UTF-8" standalone="no"?>
<svg
   xmlns:dc="http://purl.org/dc/elements/1.1/"
   xmlns:cc="http://creativecommons.org/ns#"
   xmlns:rdf="http://www.w3.org/1999/02/22-rdf-syntax-ns#"
   xmlns:svg="http://www.w3.org/2000/svg"
   xmlns="http://www.w3.org/2000/svg"
   xmlns:sodipodi="http://sodipodi.sourceforge.net/DTD/sodipodi-0.dtd"
   xmlns:inkscape="http://www.inkscape.org/namespaces/inkscape"
   height="16"
   viewBox="0 0 4.2333333 4.2333335"
   width="16"
   version="1.1"
   id="svg20"
   sodipodi:docname="sc_overline.svg"
   inkscape:version="0.92.4 (unknown)"
   inkscape:export-filename="/home/annisaauliarasyidah/Desktop/4_242 (aulia)/sc 222/sc_overline.png"
   inkscape:export-xdpi="96"
   inkscape:export-ydpi="96">
  <metadata
     id="metadata26">
    <rdf:RDF>
      <cc:Work
         rdf:about="">
        <dc:format>image/svg+xml</dc:format>
        <dc:type
           rdf:resource="http://purl.org/dc/dcmitype/StillImage" />
      </cc:Work>
    </rdf:RDF>
  </metadata>
  <defs
     id="defs24" />
  <sodipodi:namedview
     pagecolor="#ffffff"
     bordercolor="#666666"
     borderopacity="1"
     objecttolerance="10"
     gridtolerance="10"
     guidetolerance="10"
     inkscape:pageopacity="0"
     inkscape:pageshadow="2"
     inkscape:window-width="1366"
     inkscape:window-height="707"
     id="namedview22"
     showgrid="true"
     inkscape:zoom="10.429825"
     inkscape:cx="-15.389831"
     inkscape:cy="7.4576271"
     inkscape:window-x="0"
     inkscape:window-y="0"
     inkscape:window-maximized="1"
     inkscape:current-layer="g18">
    <inkscape:grid
       type="xygrid"
       id="grid821" />
  </sodipodi:namedview>
  <linearGradient
     id="a"
     gradientTransform="matrix(.26458334 0 0 -.26458334 0 33.866667)"
     gradientUnits="userSpaceOnUse"
     x1="30.087261"
     x2="113.04102"
     y1="-7.078719"
     y2="40.378906">
    <stop
       offset="0"
       stop-color="#3b3e22"
       id="stop2" />
    <stop
       offset="1"
       stop-color="#454545"
       stop-opacity="0"
       id="stop4" />
  </linearGradient>
  <linearGradient
     id="b"
     gradientUnits="userSpaceOnUse"
     x1="15.090875"
     x2="16.247895"
     y1="-5.90973"
     y2="-32.521185">
    <stop
       offset="0"
       stop-color="#555"
       id="stop7" />
    <stop
       offset="1"
       id="stop9" />
  </linearGradient>
  <rect
     height="0.26458338"
     rx="0.059009373"
     ry="0.075902998"
     transform="scale(1,-1)"
     width="3.7041667"
     x="0.26458335"
     y="-0.5291667"
     id="rect12"
     style="fill:#9d3a9b;stroke-width:0.03307287" />
  <g
     transform="matrix(.125 0 0 -.125 0 4.631028)"
     id="g18"
     style="fill:#9d3a9b">
    <path
       d="m16.065669-5.5799648q-5.466918 0-9.2330171-3.8470905-3.7660991-3.8875857-3.7660991-10.1239227 0-6.114849 3.7256034-10.042931 3.7256038-3.928081 9.5164868-3.928081 5.831379 0 9.516487 3.928081 3.725604 3.887587 3.725604 10.204914 0 6.114849-3.766099 9.9619397-3.725604 3.8470905-9.718966 3.8470905zm8.868556-13.8495262q0-2.915689-.56694-5.183448-.566939-2.267758-1.457844-3.644612-.85041-1.376853-2.024785-2.267758-1.174375-.890906-2.308254-1.214871-1.093384-.323966-2.267759-.323966-1.984289 0-3.56362.85041-1.579332.850409-2.510733 2.146271-.8909054 1.255367-1.4983407 2.996681-.6074353 1.741315-.8504095 3.361143-.2024784 1.579331-.2024784 3.239655 0 2.06528.4049569 4.049569.4049569 1.984288 1.295862 3.968577.8909047 1.984289 2.6322197 3.1991597 1.78181 1.2148707 4.211552 1.2148707 2.470237 0 4.252047-1.2148707 1.822306-1.2148707 2.713211-3.1991597.931401-1.984289 1.336358-3.968577.404957-1.984289.404957-4.009074z"
       fill="url(#b)"
       stroke-width=".962048"
       transform="scale(1.0554341 -.94747743)"
       id="path14"
       style="fill:#e602b4" />
  </g>
</svg>
