<?xml version="1.0" encoding="UTF-8"?>
<svg xmlns="http://www.w3.org/2000/svg" xmlns:xlink="http://www.w3.org/1999/xlink" width="24px" height="24px" viewBox="0 0 24 24" version="1.1">
<g id="surface1">
<path style=" stroke:none;fill-rule:nonzero;fill:rgb(33.333334%,34.117648%,32.549021%);fill-opacity:1;" d="M 7.5 3 L 7.5 6 L 13.5 6 C 14.328125 6 15 6.671875 15 7.5 L 15 9 L 9 9 C 6.515625 9 4.5 11.015625 4.5 13.5 C 4.5 15.984375 6.515625 18 9 18 L 18 18 L 18 7.5 C 18 5.015625 15.984375 3 13.5 3 Z M 9 12 L 15 12 L 15 15 L 9 15 C 8.171875 15 7.5 14.328125 7.5 13.5 C 7.5 12.671875 8.171875 12 9 12 Z M 3 19.5 L 3 22.5 L 21 22.5 L 21 19.5 Z M 3 19.5 "/>
</g>
</svg>
