<?xml version="1.0" encoding="UTF-8"?>
<svg xmlns="http://www.w3.org/2000/svg" xmlns:xlink="http://www.w3.org/1999/xlink" width="32px" height="32px" viewBox="0 0 32 32" version="1.1">
<defs>
<linearGradient id="linear0" gradientUnits="userSpaceOnUse" x1="59.971828" y1="128.450745" x2="59.971828" y2="-0.450739" gradientTransform="matrix(0.25,0,0,0.25,0,0)">
<stop offset="0" style="stop-color:rgb(100%,100%,100%);stop-opacity:1;"/>
<stop offset="0.464286" style="stop-color:rgb(100%,100%,100%);stop-opacity:1;"/>
<stop offset="0.78125" style="stop-color:rgb(94.509804%,94.509804%,94.509804%);stop-opacity:1;"/>
<stop offset="0.90625" style="stop-color:rgb(91.764706%,91.764706%,91.764706%);stop-opacity:1;"/>
<stop offset="1" style="stop-color:rgb(87.450981%,87.450981%,87.450981%);stop-opacity:1;"/>
</linearGradient>
</defs>
<g id="surface1">
<path style=" stroke:none;fill-rule:nonzero;fill:rgb(90.196079%,0.784314%,70.588237%);fill-opacity:1;" d="M 4 2 C 2.894531 2 2 2.894531 2 4 L 2 28 C 2 29.105469 2.894531 30 4 30 L 28 30 C 29.105469 30 30 29.105469 30 28 L 30 4 C 30 2.894531 29.105469 2 28 2 Z M 13.28125 12 L 18.71875 12 C 19.429688 12 20 12.628906 20 13.414062 L 20 18.585938 C 20 19.371094 19.429688 20 18.71875 20 L 13.28125 20 C 12.570312 20 12 19.371094 12 18.585938 L 12 13.414062 C 12 12.628906 12.570312 12 13.28125 12 Z M 13.28125 12 "/>
<path style=" stroke:none;fill-rule:nonzero;fill:url(#linear0);" d="M 4 4 L 4 28 L 28 28 L 28 4 Z M 10 10 L 22 10 L 22 22 L 10 22 Z M 10 10 "/>
</g>
</svg>
