<?xml version="1.0" encoding="UTF-8"?>
<svg xmlns="http://www.w3.org/2000/svg" xmlns:xlink="http://www.w3.org/1999/xlink" width="32px" height="32px" viewBox="0 0 32 32" version="1.1">
<defs>
<linearGradient id="linear0" gradientUnits="userSpaceOnUse" x1="23.636946" y1="74.526062" x2="104" y2="74.526062" gradientTransform="matrix(0.25,0,0,0.25,0.00000000647095,-0.0000000565554)">
<stop offset="0" style="stop-color:rgb(100%,100%,100%);stop-opacity:1;"/>
<stop offset="0.464286" style="stop-color:rgb(100%,100%,100%);stop-opacity:1;"/>
<stop offset="0.78125" style="stop-color:rgb(94.509804%,94.509804%,94.509804%);stop-opacity:1;"/>
<stop offset="0.90625" style="stop-color:rgb(91.764706%,91.764706%,91.764706%);stop-opacity:1;"/>
<stop offset="1" style="stop-color:rgb(87.450981%,87.450981%,87.450981%);stop-opacity:1;"/>
</linearGradient>
<linearGradient id="linear1" gradientUnits="userSpaceOnUse" x1="24.013371" y1="23.21471" x2="104" y2="23.21471" gradientTransform="matrix(0.25,0,0,0.25,0.00000000647095,-0.0000000565554)">
<stop offset="0" style="stop-color:rgb(100%,100%,100%);stop-opacity:1;"/>
<stop offset="0.464286" style="stop-color:rgb(100%,100%,100%);stop-opacity:1;"/>
<stop offset="0.78125" style="stop-color:rgb(94.509804%,94.509804%,94.509804%);stop-opacity:1;"/>
<stop offset="0.90625" style="stop-color:rgb(91.764706%,91.764706%,91.764706%);stop-opacity:1;"/>
<stop offset="1" style="stop-color:rgb(87.450981%,87.450981%,87.450981%);stop-opacity:1;"/>
</linearGradient>
</defs>
<g id="surface1">
<path style=" stroke:none;fill-rule:nonzero;fill:rgb(90.196079%,0.784314%,70.588237%);fill-opacity:1;" d="M 24.117188 5.796875 C 23.433594 5.816406 22.820312 6.1875 22.523438 6.765625 C 22.523438 6.769531 22.488281 6.8125 22.359375 6.882812 C 22.074219 7.03125 21.523438 7.238281 20.808594 7.410156 C 19.378906 7.75 17.296875 7.984375 14.984375 7.984375 C 12.675781 7.984375 10.605469 7.753906 9.183594 7.414062 C 8.472656 7.246094 7.925781 7.039062 7.640625 6.890625 C 7.507812 6.820312 7.46875 6.773438 7.46875 6.769531 C 6.664062 5.242188 4.277344 4.921875 4 6.492188 C 3.984375 6.589844 4.007812 7.417969 4.007812 7.523438 L 4 25.460938 L 4 26.335938 C 4.058594 27.019531 4.71875 27.488281 5.394531 28 C 6.375 28.675781 7.546875 28.992188 8.957031 29.273438 C 10.667969 29.613281 12.714844 29.796875 14.9375 29.796875 L 15 29.796875 C 17.222656 29.796875 19.214844 29.613281 20.933594 29.269531 C 22.34375 28.992188 23.515625 28.675781 24.5 28 C 25.378906 27.304688 25.96875 26.800781 25.949219 26.320312 L 26 25.949219 L 26 7.539062 C 26 7.46875 26.007812 6.5625 26 6.492188 C 25.886719 5.621094 25.070312 5.773438 24.117188 5.796875 Z M 24.117188 5.796875 "/>
<path style=" stroke:none;fill-rule:nonzero;fill:url(#linear0);" d="M 24.082031 8.324219 C 23.699219 9.566406 19.835938 10.511719 15.03125 10.511719 C 10.238281 10.511719 6.410156 9.574219 6.011719 8.335938 L 6 25.523438 L 6 26.09375 L 6.238281 26.324219 C 7.320312 27.367188 10.804688 28.078125 14.972656 28.078125 C 19.136719 28.074219 22.648438 27.363281 23.730469 26.320312 L 24.066406 26.035156 L 24.066406 25.5 Z M 24.082031 8.324219 "/>
<path style=" stroke:none;fill-rule:nonzero;fill:rgb(90.196079%,0.784314%,70.588237%);fill-opacity:1;" d="M 14.976562 2.179688 C 12.257812 2.179688 9.839844 2.453125 7.953125 2.949219 C 7.007812 3.199219 6.195312 3.492188 5.476562 3.945312 C 4.757812 4.394531 3.96875 5.332031 3.96875 6.5 C 3.96875 7.667969 4.808594 8.660156 5.527344 9.109375 C 6.25 9.554688 7.019531 9.84375 7.960938 10.085938 C 9.847656 10.578125 12.261719 10.839844 14.976562 10.839844 C 17.691406 10.839844 20.113281 10.574219 22.003906 10.085938 C 22.953125 9.839844 23.765625 9.554688 24.488281 9.105469 C 25.214844 8.660156 25.996094 7.675781 25.996094 6.5 C 25.996094 5.328125 25.21875 4.386719 24.496094 3.9375 C 23.773438 3.488281 22.960938 3.195312 22.011719 2.949219 C 20.117188 2.449219 17.691406 2.179688 14.976562 2.179688 Z M 14.976562 2.179688 "/>
<path style=" stroke:none;fill-rule:nonzero;fill:url(#linear1);" d="M 24.066406 6.492188 C 24.066406 7.808594 20.101562 9.082031 15.03125 9.082031 C 9.960938 9.082031 6.003906 7.8125 6.003906 6.5 C 6.003906 5.183594 9.960938 3.9375 15.03125 3.9375 C 20.101562 3.9375 24.066406 5.179688 24.066406 6.492188 Z M 24.066406 6.492188 "/>
</g>
</svg>
