<?xml version="1.0" encoding="UTF-8"?>
<svg xmlns="http://www.w3.org/2000/svg" xmlns:xlink="http://www.w3.org/1999/xlink" width="32px" height="32px" viewBox="0 0 32 32" version="1.1">
<defs>
<linearGradient id="linear0" gradientUnits="userSpaceOnUse" x1="63.999996" y1="121.896683" x2="63.999996" y2="6.103257" gradientTransform="matrix(0.25,0,0,0.25,-0.00024005,0.000241928)">
<stop offset="0" style="stop-color:rgb(100%,100%,100%);stop-opacity:1;"/>
<stop offset="0.506438" style="stop-color:rgb(100%,100%,100%);stop-opacity:1;"/>
<stop offset="0.822961" style="stop-color:rgb(94.509804%,94.509804%,94.509804%);stop-opacity:1;"/>
<stop offset="0.90625" style="stop-color:rgb(91.764706%,91.764706%,91.764706%);stop-opacity:1;"/>
<stop offset="1" style="stop-color:rgb(87.450981%,87.450981%,87.450981%);stop-opacity:1;"/>
</linearGradient>
</defs>
<g id="surface1">
<path style=" stroke:none;fill-rule:nonzero;fill:rgb(90.196079%,0.784314%,70.588237%);fill-opacity:1;" d="M 16 6 C 12.464844 6 8.941406 6.96875 6.320312 8.753906 C 3.699219 10.535156 2 13.207031 2 16 C 2 18.792969 3.699219 21.464844 6.320312 23.246094 C 8.941406 25.03125 12.464844 26 16 26 C 19.535156 26 23.058594 25.03125 25.679688 23.246094 C 28.300781 21.464844 30 18.792969 30 16 C 30 15.4375 30.132812 14.546875 30 14 L 18 14 L 18 6 C 17.417969 5.949219 16.585938 6 16 6 Z M 16 6 "/>
<path style=" stroke:none;fill-rule:nonzero;fill:url(#linear0);" d="M 16 8 C 9.234375 8 4.132812 11.589844 4.132812 16.191406 C 4.132812 20.792969 9.234375 24.046875 16 24.046875 C 22.765625 24.046875 28 20.601562 28 16 L 16 16 Z M 16 8 "/>
</g>
</svg>
