<?xml version="1.0" encoding="UTF-8"?>
<svg xmlns="http://www.w3.org/2000/svg" xmlns:xlink="http://www.w3.org/1999/xlink" width="32px" height="32px" viewBox="0 0 32 32" version="1.1">
<defs>
<linearGradient id="linear0" gradientUnits="userSpaceOnUse" x1="64.000145" y1="118.218857" x2="64.000145" y2="8.382498" gradientTransform="matrix(0.25,0,0,0.25,0,0)">
<stop offset="0" style="stop-color:rgb(100%,100%,100%);stop-opacity:1;"/>
<stop offset="0.4375" style="stop-color:rgb(100%,100%,100%);stop-opacity:1;"/>
<stop offset="0.71875" style="stop-color:rgb(94.509804%,94.509804%,94.509804%);stop-opacity:1;"/>
<stop offset="0.84375" style="stop-color:rgb(91.764706%,91.764706%,91.764706%);stop-opacity:1;"/>
<stop offset="1" style="stop-color:rgb(87.450981%,87.450981%,87.450981%);stop-opacity:1;"/>
</linearGradient>
</defs>
<g id="surface1">
<path style=" stroke:none;fill-rule:nonzero;fill:rgb(90.196079%,0.784314%,70.588237%);fill-opacity:1;" d="M 16.082031 2 C 15.664062 1.988281 15.25 2.121094 14.914062 2.378906 L 2.882812 11.554688 C 2.21875 12.0625 1.9375 12.960938 2.191406 13.785156 L 6.785156 28.628906 C 7.042969 29.449219 7.769531 30.007812 8.59375 30.007812 L 23.460938 30.007812 C 24.285156 30.007812 25.015625 29.453125 25.269531 28.628906 L 29.863281 13.785156 C 30.117188 12.964844 29.839844 12.0625 29.171875 11.554688 L 17.144531 2.378906 C 16.835938 2.144531 16.464844 2.011719 16.082031 2 Z M 16.082031 2 "/>
<path style=" stroke:none;fill-rule:nonzero;fill:url(#linear0);" d="M 23.460938 28.015625 L 8.59375 28.011719 L 4 13.167969 L 16.027344 3.992188 L 28.054688 13.167969 Z M 23.460938 28.015625 "/>
</g>
</svg>
