<?xml version="1.0" encoding="UTF-8"?>
<svg xmlns="http://www.w3.org/2000/svg" xmlns:xlink="http://www.w3.org/1999/xlink" width="32px" height="32px" viewBox="0 0 32 32" version="1.1">
<defs>
<linearGradient id="linear0" gradientUnits="userSpaceOnUse" x1="64" y1="128" x2="64" y2="0" gradientTransform="matrix(0.25,0,0,0.25,0.000244,-0.000244)">
<stop offset="0" style="stop-color:rgb(100%,100%,100%);stop-opacity:1;"/>
<stop offset="0.464286" style="stop-color:rgb(100%,100%,100%);stop-opacity:1;"/>
<stop offset="0.78125" style="stop-color:rgb(94.509804%,94.509804%,94.509804%);stop-opacity:1;"/>
<stop offset="0.90625" style="stop-color:rgb(91.764706%,91.764706%,91.764706%);stop-opacity:1;"/>
<stop offset="1" style="stop-color:rgb(87.450981%,87.450981%,87.450981%);stop-opacity:1;"/>
</linearGradient>
</defs>
<g id="surface1">
<path style=" stroke:none;fill-rule:nonzero;fill:rgb(90.196079%,0.784314%,70.588237%);fill-opacity:1;" d="M 11.5 2 C 10.96875 2 10.460938 2.210938 10.085938 2.585938 L 2.585938 10.085938 C 2.210938 10.460938 2 10.96875 2 11.5 L 2.007812 20.976562 C 2.007812 21.527344 2.234375 22.054688 2.636719 22.433594 L 10.132812 29.457031 C 10.503906 29.804688 10.992188 30 11.5 30 L 20.5 30 C 21.03125 30 21.539062 29.789062 21.914062 29.414062 L 29.414062 21.914062 C 29.789062 21.539062 30 21.03125 30 20.5 L 30 11.5 C 30 10.96875 29.789062 10.460938 29.414062 10.085938 L 21.914062 2.585938 C 21.539062 2.210938 21.03125 2 20.5 2 Z M 11.5 2 "/>
<path style=" stroke:none;fill-rule:nonzero;fill:url(#linear0);" d="M 20.5 28 L 11.5 28 L 4.003906 20.976562 L 4 11.5 L 11.5 4 L 20.5 4 L 28 11.5 L 28 20.5 Z M 20.5 28 "/>
</g>
</svg>
