<?xml version="1.0" encoding="UTF-8"?>
<svg xmlns="http://www.w3.org/2000/svg" xmlns:xlink="http://www.w3.org/1999/xlink" width="32px" height="32px" viewBox="0 0 32 32" version="1.1">
<defs>
<linearGradient id="linear0" gradientUnits="userSpaceOnUse" x1="64" y1="128" x2="64" y2="0" gradientTransform="matrix(0.25,0,0,0.25,0,0)">
<stop offset="0" style="stop-color:rgb(100%,100%,100%);stop-opacity:1;"/>
<stop offset="0.53125" style="stop-color:rgb(100%,100%,100%);stop-opacity:1;"/>
<stop offset="0.824219" style="stop-color:rgb(94.509804%,94.509804%,94.509804%);stop-opacity:1;"/>
<stop offset="0.902344" style="stop-color:rgb(91.764706%,91.764706%,91.764706%);stop-opacity:1;"/>
<stop offset="1" style="stop-color:rgb(87.450981%,87.450981%,87.450981%);stop-opacity:1;"/>
</linearGradient>
</defs>
<g id="surface1">
<path style=" stroke:none;fill-rule:nonzero;fill:rgb(90.196079%,0.784314%,70.588237%);fill-opacity:1;" d="M 4 2 C 2.894531 2 2 2.894531 2 4 L 2 28 C 2 29.105469 2.894531 30 4 30 L 16 30 C 16.46875 30 16.921875 29.835938 17.28125 29.535156 L 29.28125 19.535156 C 29.734375 19.15625 30 18.59375 30 18 L 30 4 C 30 2.894531 29.105469 2 28 2 Z M 4 2 "/>
<path style=" stroke:none;fill-rule:nonzero;fill:url(#linear0);" d="M 4 4 L 28 4 L 28 18 L 16 28 L 4 28 Z M 4 4 "/>
<path style=" stroke:none;fill-rule:nonzero;fill:rgb(90.196079%,0.784314%,70.588237%);fill-opacity:1;" d="M 16 16 C 14.894531 16 14 16.894531 14 18 L 14 28 C 14 28.773438 14.449219 29.480469 15.152344 29.808594 C 15.855469 30.136719 16.683594 30.03125 17.28125 29.535156 L 29.28125 19.535156 C 29.925781 18.996094 30.164062 18.109375 29.878906 17.320312 C 29.59375 16.527344 28.839844 16 28 16 Z M 16 16 "/>
<path style=" stroke:none;fill-rule:nonzero;fill:rgb(100%,100%,100%);fill-opacity:1;" d="M 16 18 L 28 18 L 16 28 Z M 16 18 "/>
</g>
</svg>
