<?xml version="1.0" encoding="UTF-8"?>
<svg xmlns="http://www.w3.org/2000/svg" xmlns:xlink="http://www.w3.org/1999/xlink" width="32px" height="32px" viewBox="0 0 32 32" version="1.1">
<defs>
<linearGradient id="linear0" gradientUnits="userSpaceOnUse" x1="64" y1="128" x2="64" y2="0" gradientTransform="matrix(0.25,0,0,0.25,-0.0000121221,0.00000599679)">
<stop offset="0" style="stop-color:rgb(100%,100%,100%);stop-opacity:1;"/>
<stop offset="0.464286" style="stop-color:rgb(100%,100%,100%);stop-opacity:1;"/>
<stop offset="0.78125" style="stop-color:rgb(94.509804%,94.509804%,94.509804%);stop-opacity:1;"/>
<stop offset="0.90625" style="stop-color:rgb(91.764706%,91.764706%,91.764706%);stop-opacity:1;"/>
<stop offset="1" style="stop-color:rgb(87.450981%,87.450981%,87.450981%);stop-opacity:1;"/>
</linearGradient>
</defs>
<g id="surface1">
<path style=" stroke:none;fill-rule:nonzero;fill:rgb(90.196079%,0.784314%,70.588237%);fill-opacity:1;" d="M 9.925781 4 C 9.304688 4 8.730469 4.324219 8.417969 4.851562 L 2.320312 15.175781 C 2.007812 15.703125 2.007812 16.355469 2.320312 16.882812 L 8.394531 27.21875 C 8.703125 27.746094 9.28125 28.074219 9.902344 28.074219 L 22.074219 28.085938 C 22.695312 28.085938 23.269531 27.761719 23.582031 27.234375 L 29.679688 16.910156 C 29.992188 16.382812 29.992188 15.730469 29.679688 15.203125 L 23.605469 4.867188 C 23.296875 4.339844 22.71875 4.011719 22.097656 4.011719 Z M 9.925781 4 "/>
<path style=" stroke:none;fill-rule:nonzero;fill:url(#linear0);" d="M 22.074219 26 L 9.902344 25.988281 L 4 16 L 9.925781 6 L 22.097656 6.011719 L 28.171875 16.011719 Z M 22.074219 26 "/>
</g>
</svg>
