<?xml version="1.0" encoding="UTF-8"?>
<svg xmlns="http://www.w3.org/2000/svg" xmlns:xlink="http://www.w3.org/1999/xlink" width="32px" height="32px" viewBox="0 0 32 32" version="1.1">
<g id="surface1">
<path style=" stroke:none;fill-rule:nonzero;fill:rgb(90.196079%,0.784314%,70.588237%);fill-opacity:1;" d="M 16.0625 2.167969 C 12.542969 2.167969 9.035156 3.117188 6.40625 4.894531 C 3.773438 6.667969 1.992188 9.386719 1.992188 12.3125 C 1.992188 15.53125 4.15625 18.429688 7.242188 20.226562 L 3.933594 27.160156 C 3.566406 27.9375 3.761719 28.875 4.402344 29.421875 C 5.046875 29.964844 5.960938 29.96875 6.609375 29.425781 L 15 22.386719 C 15.351562 22.40625 15.703125 22.453125 16.058594 22.453125 C 16.058594 22.453125 16.0625 22.453125 16.0625 22.453125 C 19.582031 22.453125 23.089844 21.503906 25.722656 19.730469 C 28.351562 17.957031 30.136719 15.234375 30.136719 12.3125 C 30.136719 9.386719 28.351562 6.667969 25.722656 4.894531 C 23.089844 3.117188 19.582031 2.167969 16.0625 2.167969 Z M 16.0625 2.167969 "/>
<path style=" stroke:none;fill-rule:nonzero;fill:rgb(94.117647%,89.019608%,92.54902%);fill-opacity:1;" d="M 15.875 4 C 9.230469 4 3.84375 7.71875 3.84375 12.308594 C 3.84375 15.023438 5.769531 17.570312 9 19.121094 L 9 20.617188 L 5.5625 28 L 14.15625 20.617188 L 13.78125 20.480469 C 14.472656 20.566406 15.175781 20.613281 15.875 20.617188 C 22.523438 20.617188 27.910156 16.894531 27.910156 12.308594 C 27.910156 7.71875 22.523438 4 15.875 4 Z M 15.875 4 "/>
</g>
</svg>
