<?xml version="1.0" encoding="UTF-8"?>
<svg xmlns="http://www.w3.org/2000/svg" xmlns:xlink="http://www.w3.org/1999/xlink" width="32px" height="32px" viewBox="0 0 32 32" version="1.1">
<g id="surface1">
<path style=" stroke:none;fill-rule:nonzero;fill:rgb(90.196079%,0.784314%,70.588237%);fill-opacity:1;" d="M 20.097656 2 C 14.878906 2 10.507812 6.867188 10 12 L 11.636719 12.273438 L 20.414062 11.050781 C 20.785156 11 21.085938 11.394531 21.085938 11.824219 L 20.679688 20.414062 L 21 21.335938 L 21 22 C 26.191406 21.496094 30.238281 17.183594 30.246094 12.027344 C 30.242188 6.488281 25.703125 2 20.097656 2 Z M 20.097656 2 "/>
<path style=" stroke:none;fill-rule:nonzero;fill:rgb(94.117647%,89.019608%,92.54902%);fill-opacity:1;" d="M 20.058594 4 C 15.941406 4.003906 12.476562 7.953125 12 12 L 20.285156 11.988281 C 20.640625 11.984375 20.925781 12.292969 20.929688 12.699219 L 21 20 C 25.089844 19.527344 28.171875 16.105469 28.179688 12.03125 C 28.179688 7.597656 24.542969 4 20.058594 4 Z M 20.058594 4 "/>
<path style=" stroke:none;fill-rule:nonzero;fill:rgb(90.196079%,0.784314%,70.588237%);fill-opacity:1;" d="M 3.898438 12 C 3.5625 12 3.296875 12.316406 3.296875 12.707031 L 3.296875 29.171875 C 3.296875 29.5625 3.5625 29.878906 3.898438 29.878906 L 20.398438 29.878906 C 20.730469 29.878906 21 29.5625 21 29.171875 L 21 20.527344 C 20.707031 20.566406 20.410156 20.585938 20.117188 20.589844 C 15.90625 20.589844 12.496094 17.144531 12.496094 12.894531 C 12.496094 12.59375 12.515625 12.296875 12.550781 12 Z M 5.347656 13.789062 L 11.089844 13.789062 C 11.515625 18.136719 14.925781 21.574219 19.230469 22 L 19.230469 27.75 C 19.230469 27.9375 19.105469 28.089844 18.949219 28.089844 L 5.347656 28.089844 C 5.191406 28.089844 5.066406 27.9375 5.066406 27.75 L 5.066406 14.128906 C 5.066406 13.941406 5.191406 13.789062 5.347656 13.789062 Z M 5.347656 13.789062 "/>
<path style=" stroke:none;fill-rule:nonzero;fill:rgb(90.196079%,0.784314%,70.588237%);fill-opacity:1;" d="M 10 12 C 9.964844 12.300781 9.945312 12.605469 9.941406 12.910156 C 9.941406 13.214844 9.957031 13.519531 9.992188 13.820312 C 10.464844 18.253906 14.25 21.757812 19.03125 22.191406 C 19.359375 22.222656 19.6875 22.242188 20.015625 22.246094 C 20.34375 22.246094 20.671875 22.230469 21 22.199219 L 21 12.621094 C 21 12.277344 20.652344 12 20.222656 12 Z M 11.621094 13.820312 L 18.660156 13.820312 C 18.867188 13.820312 19.03125 13.949219 19.03125 14.109375 L 19.03125 20.023438 L 19.035156 20.703125 C 19.035156 20.710938 17.660156 20.511719 17.304688 20.332031 C 14.210938 19.359375 12 16.824219 11.621094 13.820312 Z M 11.621094 13.820312 "/>
</g>
</svg>
