<?xml version="1.0" encoding="UTF-8"?>
<svg xmlns="http://www.w3.org/2000/svg" xmlns:xlink="http://www.w3.org/1999/xlink" width="32px" height="32px" viewBox="0 0 32 32" version="1.1">
<defs>
<filter id="alpha" filterUnits="objectBoundingBox" x="0%" y="0%" width="100%" height="100%">
  <feColorMatrix type="matrix" in="SourceGraphic" values="0 0 0 0 1 0 0 0 0 1 0 0 0 0 1 0 0 0 1 0"/>
</filter>
<mask id="mask0">
  <g filter="url(#alpha)">
<rect x="0" y="0" width="32" height="32" style="fill:rgb(0%,0%,0%);fill-opacity:0.99;stroke:none;"/>
  </g>
</mask>
<clipPath id="clip1">
  <rect x="0" y="0" width="32" height="32"/>
</clipPath>
<g id="surface5" clip-path="url(#clip1)">
<path style=" stroke:none;fill-rule:nonzero;fill:rgb(90.196079%,0.784314%,70.588237%);fill-opacity:1;" d="M 5.25 4 L 14 4 L 14 6 L 5.25 6 Z M 5.25 4 "/>
</g>
<mask id="mask1">
  <g filter="url(#alpha)">
<rect x="0" y="0" width="32" height="32" style="fill:rgb(0%,0%,0%);fill-opacity:0.99;stroke:none;"/>
  </g>
</mask>
<clipPath id="clip2">
  <rect x="0" y="0" width="32" height="32"/>
</clipPath>
<g id="surface8" clip-path="url(#clip2)">
<path style=" stroke:none;fill-rule:nonzero;fill:rgb(90.196079%,0.784314%,70.588237%);fill-opacity:1;" d="M 13.011719 4 L 16.714844 25.25 L 18.488281 25.25 L 14.785156 4 Z M 13.011719 4 "/>
</g>
<mask id="mask2">
  <g filter="url(#alpha)">
<rect x="0" y="0" width="32" height="32" style="fill:rgb(0%,0%,0%);fill-opacity:0.99;stroke:none;"/>
  </g>
</mask>
<clipPath id="clip3">
  <rect x="0" y="0" width="32" height="32"/>
</clipPath>
<g id="surface11" clip-path="url(#clip3)">
<path style=" stroke:none;fill-rule:nonzero;fill:rgb(90.196079%,0.784314%,70.588237%);fill-opacity:1;" d="M 17.5 23 L 24.5 23 L 24.5 25.25 L 17.5 25.25 Z M 17.5 23 "/>
</g>
</defs>
<g id="surface1">
<use xlink:href="#surface5" mask="url(#mask0)"/>
<use xlink:href="#surface8" mask="url(#mask1)"/>
<use xlink:href="#surface11" mask="url(#mask2)"/>
<path style=" stroke:none;fill-rule:evenodd;fill:rgb(90.196079%,0.784314%,70.588237%);fill-opacity:0.992157;" d="M 29.75 24.375 L 22.53125 20 L 24.28125 24.375 L 22.53125 28.75 Z M 29.75 24.375 "/>
<path style=" stroke:none;fill-rule:nonzero;fill:rgb(61.56863%,22.745098%,60.784316%);fill-opacity:1;" d="M 2 2 L 10 2 L 10 10 L 2 10 Z M 2 2 "/>
</g>
</svg>
