<?xml version="1.0" encoding="UTF-8"?>
<svg xmlns="http://www.w3.org/2000/svg" xmlns:xlink="http://www.w3.org/1999/xlink" width="24px" height="24px" viewBox="0 0 24 24" version="1.1">
<defs>
<linearGradient id="linear0" gradientUnits="userSpaceOnUse" x1="16.933332" y1="295.385162" x2="16.933332" y2="264.748138" gradientTransform="matrix(0.708661,0,0,0.708661,0.00000135166,-186.472428)">
<stop offset="0" style="stop-color:rgb(100%,100%,100%);stop-opacity:1;"/>
<stop offset="0.506438" style="stop-color:rgb(100%,100%,100%);stop-opacity:1;"/>
<stop offset="0.822961" style="stop-color:rgb(94.509804%,94.509804%,94.509804%);stop-opacity:1;"/>
<stop offset="0.90625" style="stop-color:rgb(91.764706%,91.764706%,91.764706%);stop-opacity:1;"/>
<stop offset="1" style="stop-color:rgb(87.450981%,87.450981%,87.450981%);stop-opacity:1;"/>
</linearGradient>
</defs>
<g id="surface1">
<path style=" stroke:none;fill-rule:nonzero;fill:rgb(90.196079%,0.784314%,70.588237%);fill-opacity:1;" d="M 22.5 12 C 22.5 17.796875 17.796875 22.5 12 22.5 C 6.203125 22.5 1.5 17.796875 1.5 12 C 1.5 6.203125 6.203125 1.5 12 1.5 C 17.796875 1.5 22.5 6.203125 22.5 12 Z M 22.5 12 "/>
<path style=" stroke:none;fill-rule:nonzero;fill:url(#linear0);" d="M 21 12 C 21 16.96875 16.96875 21 12 21 C 7.03125 21 3 16.96875 3 12 C 3 7.03125 7.03125 3 12 3 C 16.96875 3 21 7.03125 21 12 Z M 21 12 "/>
</g>
</svg>
