<?xml version="1.0" encoding="UTF-8"?>
<svg xmlns="http://www.w3.org/2000/svg" xmlns:xlink="http://www.w3.org/1999/xlink" width="24px" height="24px" viewBox="0 0 24 24" version="1.1">
<defs>
<linearGradient id="linear0" gradientUnits="userSpaceOnUse" x1="63.999992" y1="121.896683" x2="63.999992" y2="6.103257" gradientTransform="matrix(0.1875,0,0,0.1875,0.00000135166,0)">
<stop offset="0" style="stop-color:rgb(100%,100%,100%);stop-opacity:1;"/>
<stop offset="0.506438" style="stop-color:rgb(100%,100%,100%);stop-opacity:1;"/>
<stop offset="0.822961" style="stop-color:rgb(94.509804%,94.509804%,94.509804%);stop-opacity:1;"/>
<stop offset="0.90625" style="stop-color:rgb(91.764706%,91.764706%,91.764706%);stop-opacity:1;"/>
<stop offset="1" style="stop-color:rgb(87.450981%,87.450981%,87.450981%);stop-opacity:1;"/>
</linearGradient>
</defs>
<g id="surface1">
<path style=" stroke:none;fill-rule:nonzero;fill:rgb(90.196079%,0.784314%,70.588237%);fill-opacity:1;" d="M 12 1.5 C 6.203125 1.5 1.5 6.203125 1.5 12 C 1.5 17.796875 6.203125 22.5 12 22.5 C 17.796875 22.5 22.5 17.796875 22.5 12 C 22.5 6.203125 17.796875 1.5 12 1.5 Z M 12 9 C 12.300781 9 12.597656 9.046875 12.886719 9.132812 C 13.078125 9.195312 13.261719 9.273438 13.4375 9.367188 C 13.613281 9.464844 13.777344 9.578125 13.933594 9.707031 C 14.007812 9.769531 14.082031 9.839844 14.152344 9.910156 C 14.289062 10.054688 14.414062 10.210938 14.523438 10.378906 C 14.742188 10.71875 14.886719 11.09375 14.957031 11.492188 C 14.984375 11.660156 15 11.828125 15 12 C 15 12.300781 14.953125 12.597656 14.867188 12.886719 C 14.804688 13.078125 14.726562 13.261719 14.632812 13.4375 C 14.535156 13.613281 14.421875 13.777344 14.292969 13.933594 C 14.230469 14.007812 14.160156 14.082031 14.089844 14.152344 C 13.945312 14.289062 13.789062 14.414062 13.621094 14.523438 C 13.28125 14.742188 12.90625 14.886719 12.511719 14.957031 C 12.339844 14.984375 12.171875 15 12 15 C 11.699219 15 11.402344 14.953125 11.113281 14.867188 C 10.921875 14.804688 10.738281 14.726562 10.5625 14.632812 C 10.386719 14.535156 10.222656 14.421875 10.066406 14.292969 C 9.992188 14.230469 9.917969 14.160156 9.847656 14.089844 C 9.710938 13.945312 9.585938 13.789062 9.476562 13.621094 C 9.257812 13.28125 9.113281 12.90625 9.042969 12.511719 C 9.015625 12.339844 9 12.171875 9 12 C 9 11.898438 9.003906 11.800781 9.015625 11.699219 C 9.035156 11.5 9.074219 11.304688 9.136719 11.113281 C 9.195312 10.921875 9.273438 10.738281 9.367188 10.5625 C 9.464844 10.386719 9.578125 10.222656 9.707031 10.066406 C 9.769531 9.992188 9.839844 9.917969 9.910156 9.847656 C 10.054688 9.710938 10.210938 9.585938 10.378906 9.476562 C 10.71875 9.257812 11.09375 9.113281 11.492188 9.042969 C 11.660156 9.015625 11.828125 9 12 9 Z M 12 9 "/>
<path style=" stroke:none;fill-rule:nonzero;fill:url(#linear0);" d="M 12 3 C 7.03125 3 3 7.03125 3 12 C 3 16.96875 7.03125 21 12 21 C 16.96875 21 21 16.96875 21 12 C 21 7.03125 16.96875 3 12 3 Z M 12 7.507812 C 14.480469 7.507812 16.492188 9.519531 16.492188 12 C 16.492188 14.480469 14.480469 16.492188 12 16.492188 C 9.519531 16.492188 7.507812 14.480469 7.507812 12 C 7.507812 9.519531 9.519531 7.507812 12 7.507812 Z M 12 7.507812 "/>
</g>
</svg>
