<?xml version="1.0" encoding="UTF-8"?>
<svg xmlns="http://www.w3.org/2000/svg" xmlns:xlink="http://www.w3.org/1999/xlink" width="24px" height="24px" viewBox="0 0 24 24" version="1.1">
<defs>
<linearGradient id="linear0" gradientUnits="userSpaceOnUse" x1="64" y1="128" x2="64" y2="0" gradientTransform="matrix(0.1875,0,0,0.1875,0.000183,-0.000183)">
<stop offset="0" style="stop-color:rgb(100%,100%,100%);stop-opacity:1;"/>
<stop offset="0.464286" style="stop-color:rgb(100%,100%,100%);stop-opacity:1;"/>
<stop offset="0.78125" style="stop-color:rgb(94.509804%,94.509804%,94.509804%);stop-opacity:1;"/>
<stop offset="0.90625" style="stop-color:rgb(91.764706%,91.764706%,91.764706%);stop-opacity:1;"/>
<stop offset="1" style="stop-color:rgb(87.450981%,87.450981%,87.450981%);stop-opacity:1;"/>
</linearGradient>
</defs>
<g id="surface1">
<path style=" stroke:none;fill-rule:nonzero;fill:rgb(90.196079%,0.784314%,70.588237%);fill-opacity:1;" d="M 8.625 1.5 C 8.226562 1.5 7.847656 1.660156 7.566406 1.941406 L 1.941406 7.566406 C 1.660156 7.847656 1.5 8.226562 1.5 8.625 L 1.503906 15.730469 C 1.503906 16.144531 1.675781 16.542969 1.976562 16.824219 L 7.601562 22.09375 C 7.878906 22.355469 8.242188 22.5 8.625 22.5 L 15.375 22.5 C 15.773438 22.5 16.152344 22.339844 16.433594 22.058594 L 22.058594 16.433594 C 22.339844 16.152344 22.5 15.773438 22.5 15.375 L 22.5 8.625 C 22.5 8.226562 22.339844 7.847656 22.058594 7.566406 L 16.433594 1.941406 C 16.152344 1.660156 15.773438 1.5 15.375 1.5 Z M 8.625 1.5 "/>
<path style=" stroke:none;fill-rule:nonzero;fill:url(#linear0);" d="M 15.375 21 L 8.625 21 L 3.003906 15.730469 L 3 8.625 L 8.625 3 L 15.375 3 L 21 8.625 L 21 15.375 Z M 15.375 21 "/>
</g>
</svg>
