<?xml version="1.0" encoding="UTF-8"?>
<svg xmlns="http://www.w3.org/2000/svg" xmlns:xlink="http://www.w3.org/1999/xlink" width="24px" height="24px" viewBox="0 0 24 24" version="1.1">
<g id="surface1">
<path style=" stroke:none;fill-rule:nonzero;fill:rgb(90.196079%,0.784314%,70.588237%);fill-opacity:1;" d="M 6 4.5 C 3.535156 4.5 1.5 6.535156 1.5 9 L 1.5 15 C 1.5 17.464844 3.535156 19.5 6 19.5 L 18 19.5 C 20.464844 19.5 22.5 17.464844 22.5 15 L 22.5 9 C 22.5 6.535156 20.464844 4.5 18 4.5 Z M 6 4.5 "/>
<path style=" stroke:none;fill-rule:nonzero;fill:rgb(94.117647%,89.019608%,92.54902%);fill-opacity:1;" d="M 6 6 C 4.339844 6 3 7.339844 3 9 L 3 15 C 3 16.660156 4.339844 18 6 18 L 18 18 C 19.660156 18 21 16.660156 21 15 L 21 9 C 21 7.339844 19.660156 6 18 6 Z M 6 6 "/>
</g>
</svg>
