<?xml version="1.0" encoding="UTF-8"?>
<svg xmlns="http://www.w3.org/2000/svg" xmlns:xlink="http://www.w3.org/1999/xlink" width="24px" height="24px" viewBox="0 0 24 24" version="1.1">
<defs>
<linearGradient id="linear0" gradientUnits="userSpaceOnUse" x1="23.636946" y1="74.526062" x2="104" y2="74.526062" gradientTransform="matrix(0.1875,0,0,0.1875,0.00000000485321,-0.0000000424166)">
<stop offset="0" style="stop-color:rgb(100%,100%,100%);stop-opacity:1;"/>
<stop offset="0.464286" style="stop-color:rgb(100%,100%,100%);stop-opacity:1;"/>
<stop offset="0.78125" style="stop-color:rgb(94.509804%,94.509804%,94.509804%);stop-opacity:1;"/>
<stop offset="0.90625" style="stop-color:rgb(91.764706%,91.764706%,91.764706%);stop-opacity:1;"/>
<stop offset="1" style="stop-color:rgb(87.450981%,87.450981%,87.450981%);stop-opacity:1;"/>
</linearGradient>
<linearGradient id="linear1" gradientUnits="userSpaceOnUse" x1="24.013371" y1="23.21471" x2="104" y2="23.21471" gradientTransform="matrix(0.1875,0,0,0.1875,0.00000000485321,-0.0000000424166)">
<stop offset="0" style="stop-color:rgb(100%,100%,100%);stop-opacity:1;"/>
<stop offset="0.464286" style="stop-color:rgb(100%,100%,100%);stop-opacity:1;"/>
<stop offset="0.78125" style="stop-color:rgb(94.509804%,94.509804%,94.509804%);stop-opacity:1;"/>
<stop offset="0.90625" style="stop-color:rgb(91.764706%,91.764706%,91.764706%);stop-opacity:1;"/>
<stop offset="1" style="stop-color:rgb(87.450981%,87.450981%,87.450981%);stop-opacity:1;"/>
</linearGradient>
</defs>
<g id="surface1">
<path style=" stroke:none;fill-rule:nonzero;fill:rgb(90.196079%,0.784314%,70.588237%);fill-opacity:1;" d="M 18.085938 4.347656 C 17.578125 4.363281 17.117188 4.640625 16.894531 5.074219 C 16.890625 5.078125 16.867188 5.109375 16.769531 5.160156 C 16.554688 5.273438 16.144531 5.429688 15.605469 5.558594 C 14.535156 5.8125 12.972656 5.988281 11.238281 5.988281 C 9.507812 5.988281 7.953125 5.816406 6.886719 5.5625 C 6.355469 5.433594 5.945312 5.28125 5.730469 5.167969 C 5.628906 5.117188 5.601562 5.078125 5.601562 5.078125 C 4.996094 3.929688 3.207031 3.691406 3 4.871094 C 2.988281 4.941406 3.003906 5.566406 3.003906 5.644531 L 3 19.097656 L 3 19.753906 C 3.042969 20.265625 3.539062 20.617188 4.042969 21 C 4.78125 21.507812 5.660156 21.746094 6.71875 21.957031 C 8 22.210938 9.535156 22.347656 11.203125 22.347656 L 11.25 22.347656 C 12.917969 22.347656 14.410156 22.210938 15.699219 21.953125 C 16.757812 21.742188 17.636719 21.507812 18.375 21 C 19.03125 20.476562 19.476562 20.101562 19.460938 19.738281 L 19.5 19.460938 L 19.5 5.65625 C 19.5 5.601562 19.507812 4.921875 19.5 4.871094 C 19.414062 4.21875 18.800781 4.328125 18.085938 4.347656 Z M 18.085938 4.347656 "/>
<path style=" stroke:none;fill-rule:nonzero;fill:url(#linear0);" d="M 18.058594 6.242188 C 17.773438 7.175781 14.878906 7.882812 11.273438 7.882812 C 7.679688 7.882812 4.808594 7.179688 4.511719 6.25 L 4.5 19.144531 L 4.5 19.570312 L 4.679688 19.742188 C 5.492188 20.527344 8.101562 21.058594 11.230469 21.058594 C 14.351562 21.058594 16.984375 20.523438 17.796875 19.738281 L 18.050781 19.527344 L 18.050781 19.125 Z M 18.058594 6.242188 "/>
<path style=" stroke:none;fill-rule:nonzero;fill:rgb(90.196079%,0.784314%,70.588237%);fill-opacity:1;" d="M 11.230469 1.632812 C 9.195312 1.632812 7.378906 1.839844 5.964844 2.214844 C 5.257812 2.402344 4.648438 2.621094 4.109375 2.957031 C 3.570312 3.296875 2.976562 4 2.976562 4.875 C 2.976562 5.75 3.605469 6.496094 4.144531 6.832031 C 4.6875 7.167969 5.261719 7.382812 5.972656 7.566406 C 7.386719 7.933594 9.195312 8.128906 11.230469 8.128906 C 13.265625 8.128906 15.085938 7.929688 16.503906 7.5625 C 17.214844 7.378906 17.824219 7.164062 18.367188 6.828125 C 18.910156 6.496094 19.496094 5.757812 19.496094 4.875 C 19.496094 3.996094 18.914062 3.289062 18.371094 2.953125 C 17.832031 2.617188 17.21875 2.398438 16.507812 2.210938 C 15.089844 1.839844 13.269531 1.632812 11.230469 1.632812 Z M 11.230469 1.632812 "/>
<path style=" stroke:none;fill-rule:nonzero;fill:url(#linear1);" d="M 18.050781 4.871094 C 18.050781 5.855469 15.078125 6.8125 11.273438 6.8125 C 7.472656 6.8125 4.503906 5.859375 4.503906 4.875 C 4.503906 3.886719 7.472656 2.953125 11.273438 2.953125 C 15.078125 2.953125 18.050781 3.882812 18.050781 4.871094 Z M 18.050781 4.871094 "/>
</g>
</svg>
