<?xml version="1.0" encoding="UTF-8"?>
<svg xmlns="http://www.w3.org/2000/svg" xmlns:xlink="http://www.w3.org/1999/xlink" width="24px" height="24px" viewBox="0 0 24 24" version="1.1">
<defs>
<linearGradient id="linear0" gradientUnits="userSpaceOnUse" x1="16.933332" y1="295.385162" x2="16.933332" y2="264.748138" gradientTransform="matrix(0.708661,0,0,0.708661,0.00000135166,-186.472428)">
<stop offset="0" style="stop-color:rgb(100%,100%,100%);stop-opacity:1;"/>
<stop offset="0.506438" style="stop-color:rgb(100%,100%,100%);stop-opacity:1;"/>
<stop offset="0.822961" style="stop-color:rgb(94.509804%,94.509804%,94.509804%);stop-opacity:1;"/>
<stop offset="0.90625" style="stop-color:rgb(91.764706%,91.764706%,91.764706%);stop-opacity:1;"/>
<stop offset="1" style="stop-color:rgb(87.450981%,87.450981%,87.450981%);stop-opacity:1;"/>
</linearGradient>
</defs>
<g id="surface1">
<path style=" stroke:none;fill-rule:nonzero;fill:rgb(90.196079%,0.784314%,70.588237%);fill-opacity:1;" d="M 12 4.5 C 9.476562 4.5 6.957031 5.226562 5.085938 6.5625 C 3.214844 7.902344 2 9.90625 2 12 C 2 14.09375 3.214844 16.097656 5.085938 17.4375 C 6.957031 18.773438 9.476562 19.5 12 19.5 C 14.523438 19.5 17.042969 18.773438 18.914062 17.4375 C 20.785156 16.097656 22 14.09375 22 12 C 22 9.90625 20.785156 7.902344 18.914062 6.5625 C 17.042969 5.226562 14.523438 4.5 12 4.5 Z M 12 4.5 "/>
<path style=" stroke:none;fill-rule:nonzero;fill:url(#linear0);" d="M 20.75 12 C 20.75 15.453125 16.832031 18.25 12 18.25 C 7.167969 18.25 3.25 15.453125 3.25 12 C 3.25 8.546875 7.167969 5.75 12 5.75 C 16.832031 5.75 20.75 8.546875 20.75 12 Z M 20.75 12 "/>
</g>
</svg>
