<?xml version="1.0" encoding="UTF-8"?>
<svg xmlns="http://www.w3.org/2000/svg" xmlns:xlink="http://www.w3.org/1999/xlink" width="24px" height="24px" viewBox="0 0 24 24" version="1.1">
<defs>
<filter id="alpha" filterUnits="objectBoundingBox" x="0%" y="0%" width="100%" height="100%">
  <feColorMatrix type="matrix" in="SourceGraphic" values="0 0 0 0 1 0 0 0 0 1 0 0 0 0 1 0 0 0 1 0"/>
</filter>
<mask id="mask0">
  <g filter="url(#alpha)">
<rect x="0" y="0" width="24" height="24" style="fill:rgb(0%,0%,0%);fill-opacity:0.99;stroke:none;"/>
  </g>
</mask>
<clipPath id="clip1">
  <rect x="0" y="0" width="24" height="24"/>
</clipPath>
<g id="surface5" clip-path="url(#clip1)">
<path style=" stroke:none;fill-rule:nonzero;fill:rgb(90.196079%,0.784314%,70.588237%);fill-opacity:0.992157;" d="M 6.945312 11.984375 C 5.929688 11.984375 4.394531 12.558594 3.847656 13.308594 C 3.296875 14.058594 3.011719 14.332031 3.011719 15.347656 L 3.011719 16.023438 C 3.011719 17.039062 3.300781 17.984375 3.847656 18.738281 C 4.398438 19.488281 5.933594 20.0625 6.945312 20.0625 L 6.941406 18.714844 L 6.945312 18.714844 C 5.855469 18.714844 4.324219 17.515625 4.324219 16.023438 L 4.324219 15.347656 C 4.324219 13.855469 5.855469 13.328125 6.945312 13.328125 Z M 6.945312 11.984375 "/>
</g>
<mask id="mask1">
  <g filter="url(#alpha)">
<rect x="0" y="0" width="24" height="24" style="fill:rgb(0%,0%,0%);fill-opacity:0.99;stroke:none;"/>
  </g>
</mask>
<clipPath id="clip2">
  <rect x="0" y="0" width="24" height="24"/>
</clipPath>
<g id="surface8" clip-path="url(#clip2)">
<path style=" stroke:none;fill-rule:nonzero;fill:rgb(90.196079%,0.784314%,70.588237%);fill-opacity:1;" d="M 4.320312 3.902344 L 17.4375 3.902344 L 17.4375 5.25 L 4.320312 5.25 Z M 4.320312 3.902344 "/>
</g>
<mask id="mask2">
  <g filter="url(#alpha)">
<rect x="0" y="0" width="24" height="24" style="fill:rgb(0%,0%,0%);fill-opacity:0.99;stroke:none;"/>
  </g>
</mask>
<clipPath id="clip3">
  <rect x="0" y="0" width="24" height="24"/>
</clipPath>
<g id="surface11" clip-path="url(#clip3)">
<path style=" stroke:none;fill-rule:nonzero;fill:rgb(90.196079%,0.784314%,70.588237%);fill-opacity:1;" d="M 17.4375 11.984375 L 6.9375 11.984375 L 6.941406 13.328125 L 17.441406 13.328125 Z M 17.4375 11.984375 "/>
</g>
<mask id="mask3">
  <g filter="url(#alpha)">
<rect x="0" y="0" width="24" height="24" style="fill:rgb(0%,0%,0%);fill-opacity:0.99;stroke:none;"/>
  </g>
</mask>
<clipPath id="clip4">
  <rect x="0" y="0" width="24" height="24"/>
</clipPath>
<g id="surface14" clip-path="url(#clip4)">
<path style=" stroke:none;fill-rule:nonzero;fill:rgb(90.196079%,0.784314%,70.588237%);fill-opacity:1;" d="M 6.941406 18.714844 L 18.75 18.714844 L 18.75 20.0625 L 6.941406 20.0625 Z M 6.941406 18.714844 "/>
</g>
<mask id="mask4">
  <g filter="url(#alpha)">
<rect x="0" y="0" width="24" height="24" style="fill:rgb(0%,0%,0%);fill-opacity:0.99;stroke:none;"/>
  </g>
</mask>
<clipPath id="clip5">
  <rect x="0" y="0" width="24" height="24"/>
</clipPath>
<g id="surface17" clip-path="url(#clip5)">
<path style=" stroke:none;fill-rule:nonzero;fill:rgb(90.196079%,0.784314%,70.588237%);fill-opacity:0.992157;" d="M 17.4375 3.902344 L 17.4375 5.25 C 18.527344 5.25 20.0625 6.449219 20.0625 7.941406 L 20.0625 8.617188 C 20.0625 10.109375 18.527344 11.980469 17.4375 11.984375 L 17.441406 13.328125 C 18.453125 13.328125 19.988281 12.753906 20.535156 12.003906 C 21.082031 11.253906 21.375 9.632812 21.375 8.617188 L 21.375 7.941406 C 21.375 6.925781 21.085938 5.980469 20.535156 5.230469 C 19.988281 4.476562 18.453125 3.902344 17.4375 3.902344 Z M 17.4375 3.902344 "/>
</g>
<mask id="mask5">
  <g filter="url(#alpha)">
<rect x="0" y="0" width="24" height="24" style="fill:rgb(0%,0%,0%);fill-opacity:0.99;stroke:none;"/>
  </g>
</mask>
<clipPath id="clip6">
  <rect x="0" y="0" width="24" height="24"/>
</clipPath>
<g id="surface20" clip-path="url(#clip6)">
<path style=" stroke:none;fill-rule:nonzero;fill:rgb(61.56863%,22.745098%,60.784316%);fill-opacity:1;" d="M 15.933594 19.21875 C 15.933594 21.03125 17.402344 22.5 19.21875 22.5 C 21.03125 22.5 22.5 21.03125 22.5 19.21875 C 22.5 17.402344 21.03125 15.933594 19.21875 15.933594 C 17.402344 15.933594 15.933594 17.402344 15.933594 19.21875 Z M 15.933594 19.21875 "/>
</g>
</defs>
<g id="surface1">
<use xlink:href="#surface5" mask="url(#mask0)"/>
<use xlink:href="#surface8" mask="url(#mask1)"/>
<use xlink:href="#surface11" mask="url(#mask2)"/>
<use xlink:href="#surface14" mask="url(#mask3)"/>
<use xlink:href="#surface17" mask="url(#mask4)"/>
<use xlink:href="#surface20" mask="url(#mask5)"/>
<path style=" stroke:none;fill-rule:nonzero;fill:rgb(61.56863%,22.745098%,60.784316%);fill-opacity:1;" d="M 1.5 1.5 L 6.75 1.5 L 6.75 6.75 L 1.5 6.75 Z M 1.5 1.5 "/>
</g>
</svg>
