<?xml version="1.0" encoding="UTF-8"?>
<svg xmlns="http://www.w3.org/2000/svg" xmlns:xlink="http://www.w3.org/1999/xlink" width="24px" height="24px" viewBox="0 0 24 24" version="1.1">
<g id="surface1">
<path style=" stroke:none;fill-rule:nonzero;fill:rgb(90.196079%,0.784314%,70.588237%);fill-opacity:1;" d="M 15.074219 1.5 C 11.15625 1.5 7.882812 5.148438 7.5 9 L 8.726562 9.203125 L 15.308594 8.289062 C 15.585938 8.25 15.816406 8.546875 15.816406 8.867188 L 15.511719 15.308594 L 15.75 16 L 15.75 16.5 C 19.644531 16.121094 22.679688 12.886719 22.683594 9.019531 C 22.683594 4.867188 19.277344 1.5 15.074219 1.5 Z M 15.074219 1.5 "/>
<path style=" stroke:none;fill-rule:nonzero;fill:rgb(94.117647%,89.019608%,92.54902%);fill-opacity:1;" d="M 15.042969 3 C 11.957031 3.003906 9.359375 5.964844 9 9 L 15.214844 8.988281 C 15.480469 8.988281 15.691406 9.21875 15.695312 9.523438 L 15.75 15 C 18.816406 14.644531 21.128906 12.078125 21.132812 9.023438 C 21.132812 5.695312 18.40625 3 15.042969 3 Z M 15.042969 3 "/>
<path style=" stroke:none;fill-rule:nonzero;fill:rgb(90.196079%,0.784314%,70.588237%);fill-opacity:1;" d="M 2.921875 9 C 2.671875 9 2.472656 9.238281 2.472656 9.53125 L 2.472656 21.878906 C 2.472656 22.171875 2.671875 22.410156 2.921875 22.410156 L 15.296875 22.410156 C 15.546875 22.410156 15.75 22.171875 15.75 21.878906 L 15.75 15.398438 C 15.53125 15.425781 15.308594 15.441406 15.085938 15.441406 C 11.929688 15.441406 9.371094 12.859375 9.371094 9.671875 C 9.371094 9.445312 9.386719 9.222656 9.414062 9 Z M 4.011719 10.339844 L 8.316406 10.339844 C 8.636719 13.601562 11.191406 16.179688 14.421875 16.5 L 14.421875 20.8125 C 14.421875 20.953125 14.328125 21.066406 14.210938 21.066406 L 4.011719 21.066406 C 3.894531 21.066406 3.800781 20.953125 3.800781 20.8125 L 3.800781 10.597656 C 3.800781 10.453125 3.894531 10.339844 4.011719 10.339844 Z M 4.011719 10.339844 "/>
<path style=" stroke:none;fill-rule:nonzero;fill:rgb(90.196079%,0.784314%,70.588237%);fill-opacity:1;" d="M 7.5 9 C 7.472656 9.226562 7.457031 9.453125 7.457031 9.683594 C 7.457031 9.910156 7.46875 10.140625 7.492188 10.367188 C 7.847656 13.691406 10.6875 16.316406 14.273438 16.644531 C 14.519531 16.667969 14.765625 16.683594 15.011719 16.683594 C 15.257812 16.683594 15.503906 16.671875 15.75 16.648438 L 15.75 9.464844 C 15.75 9.207031 15.488281 9 15.167969 9 Z M 8.714844 10.367188 L 13.992188 10.367188 C 14.148438 10.367188 14.273438 10.464844 14.273438 10.582031 L 14.273438 15.527344 C 14.273438 15.535156 13.246094 15.382812 12.976562 15.25 C 10.660156 14.519531 9 12.621094 8.714844 10.367188 Z M 8.714844 10.367188 "/>
</g>
</svg>
