<?xml version="1.0" encoding="UTF-8"?>
<svg xmlns="http://www.w3.org/2000/svg" xmlns:xlink="http://www.w3.org/1999/xlink" width="24px" height="24px" viewBox="0 0 24 24" version="1.1">
<defs>
<filter id="alpha" filterUnits="objectBoundingBox" x="0%" y="0%" width="100%" height="100%">
  <feColorMatrix type="matrix" in="SourceGraphic" values="0 0 0 0 1 0 0 0 0 1 0 0 0 0 1 0 0 0 1 0"/>
</filter>
<mask id="mask0">
  <g filter="url(#alpha)">
<rect x="0" y="0" width="24" height="24" style="fill:rgb(0%,0%,0%);fill-opacity:0.891386;stroke:none;"/>
  </g>
</mask>
<clipPath id="clip1">
  <rect x="0" y="0" width="24" height="24"/>
</clipPath>
<g id="surface5" clip-path="url(#clip1)">
<path style=" stroke:none;fill-rule:nonzero;fill:rgb(90.196079%,0.784314%,70.588237%);fill-opacity:1;" d="M 20.894531 21.542969 C 21.066406 21.105469 21.023438 20.617188 20.777344 20.21875 L 12.527344 6.71875 C 11.945312 5.761719 10.558594 5.761719 9.972656 6.71875 L 1.722656 20.21875 C 1.113281 21.214844 1.828125 22.5 3 22.5 L 19.5 22.5 C 20.117188 22.5 20.671875 22.121094 20.894531 21.542969 Z M 20.894531 21.542969 "/>
</g>
<linearGradient id="linear0" gradientUnits="userSpaceOnUse" x1="119.233887" y1="6.297416" x2="63.741646" y2="41.850632" gradientTransform="matrix(0,-0.24649,-0.641376,0.25615,37.039015,26.276838)">
<stop offset="0" style="stop-color:rgb(100%,100%,100%);stop-opacity:1;"/>
<stop offset="1" style="stop-color:rgb(100%,100%,100%);stop-opacity:0;"/>
</linearGradient>
</defs>
<g id="surface1">
<path style=" stroke:none;fill-rule:nonzero;fill:rgb(90.196079%,0.784314%,70.588237%);fill-opacity:1;" d="M 9.742188 1.5 C 14.300781 1.5 17.992188 5.191406 17.992188 9.746094 C 17.992188 14.300781 14.300781 17.996094 9.742188 17.996094 C 5.1875 17.996094 1.492188 14.300781 1.492188 9.746094 C 1.492188 5.191406 5.1875 1.5 9.742188 1.5 Z M 9.742188 1.5 "/>
<path style=" stroke:none;fill-rule:evenodd;fill:rgb(94.117647%,89.019608%,92.54902%);fill-opacity:1;" d="M 9.742188 3 C 13.46875 3 16.488281 6.007812 16.488281 9.714844 C 16.488281 13.425781 13.46875 16.429688 9.742188 16.429688 C 6.019531 16.429688 3 13.425781 3 9.714844 C 3 6.007812 6.019531 3 9.742188 3 Z M 9.742188 3 "/>
<path style=" stroke:none;fill-rule:evenodd;fill:rgb(94.117647%,89.019608%,92.54902%);fill-opacity:1;" d="M 13.675781 4.34375 C 10.707031 4.652344 6.910156 7.15625 4.757812 11.554688 L 11.089844 14.871094 C 11.050781 11.785156 13.023438 7.464844 15.226562 5.816406 C 14.832031 5.277344 14.359375 4.796875 13.824219 4.402344 Z M 13.675781 4.34375 "/>
<path style=" stroke:none;fill-rule:nonzero;fill:rgb(90.196079%,0.784314%,70.588237%);fill-opacity:1;" d="M 9.8125 4.5 L 21.6875 4.5 C 22.136719 4.5 22.5 4.851562 22.5 5.285156 L 22.5 17.214844 C 22.5 17.648438 22.136719 18 21.6875 18 L 9.8125 18 C 9.363281 18 9 17.648438 9 17.214844 L 9 5.285156 C 9 4.851562 9.363281 4.5 9.8125 4.5 Z M 9.8125 4.5 "/>
<path style=" stroke:none;fill-rule:evenodd;fill:rgb(94.117647%,89.019608%,92.54902%);fill-opacity:1;" d="M 10.996094 6 L 20.503906 6 C 20.777344 6 21 6.222656 21 6.496094 L 21 16.003906 C 21 16.277344 20.777344 16.5 20.503906 16.5 L 10.996094 16.5 C 10.722656 16.5 10.5 16.277344 10.5 16.003906 L 10.5 6.496094 C 10.5 6.222656 10.722656 6 10.996094 6 Z M 10.996094 6 "/>
<path style=" stroke:none;fill-rule:evenodd;fill:rgb(94.117647%,89.019608%,92.54902%);fill-opacity:1;" d="M 13.125 6 C 8.03125 12.101562 10 9.804688 5.25 17.8125 L 15.75 17.8125 C 19.191406 10.144531 16.925781 12.117188 21 6 Z M 13.125 6 "/>
<use xlink:href="#surface5" mask="url(#mask0)"/>
<path style=" stroke:none;fill-rule:nonzero;fill:rgb(94.117647%,89.019608%,92.54902%);fill-opacity:1;" d="M 19.5 21 L 11.25 7.5 L 3 21 Z M 19.5 21 "/>
<path style=" stroke:none;fill-rule:evenodd;fill:url(#linear0);" d="M 15.75 15 C 9.664062 16.128906 8.867188 12.183594 5.796875 16.492188 L 11.324219 21 L 11.871094 21 C 15.339844 15.0625 11.871094 22.367188 17.09375 20.304688 Z M 15.75 15 "/>
</g>
</svg>
