<?xml version="1.0" encoding="UTF-8"?>
<svg xmlns="http://www.w3.org/2000/svg" xmlns:xlink="http://www.w3.org/1999/xlink" width="24px" height="24px" viewBox="0 0 24 24" version="1.1">
<defs>
<filter id="alpha" filterUnits="objectBoundingBox" x="0%" y="0%" width="100%" height="100%">
  <feColorMatrix type="matrix" in="SourceGraphic" values="0 0 0 0 1 0 0 0 0 1 0 0 0 0 1 0 0 0 1 0"/>
</filter>
<mask id="mask0">
  <g filter="url(#alpha)">
<rect x="0" y="0" width="24" height="24" style="fill:rgb(0%,0%,0%);fill-opacity:0.99;stroke:none;"/>
  </g>
</mask>
<clipPath id="clip1">
  <rect x="0" y="0" width="24" height="24"/>
</clipPath>
<g id="surface5" clip-path="url(#clip1)">
<path style=" stroke:none;fill-rule:nonzero;fill:rgb(90.196079%,0.784314%,70.588237%);fill-opacity:0.992157;" d="M 6.75 11.933594 C 5.738281 11.933594 4.199219 12.515625 3.652344 13.273438 C 3.101562 14.035156 2.816406 14.3125 2.816406 15.339844 L 2.816406 16.023438 C 2.816406 17.050781 3.105469 18.011719 3.652344 18.769531 C 4.203125 19.53125 5.738281 20.113281 6.753906 20.113281 L 6.75 18.75 L 6.753906 18.75 C 5.664062 18.75 4.128906 17.535156 4.128906 16.023438 L 4.128906 15.339844 C 4.128906 13.828125 5.660156 13.296875 6.75 13.296875 Z M 6.75 11.933594 "/>
</g>
<mask id="mask1">
  <g filter="url(#alpha)">
<rect x="0" y="0" width="24" height="24" style="fill:rgb(0%,0%,0%);fill-opacity:0.99;stroke:none;"/>
  </g>
</mask>
<clipPath id="clip2">
  <rect x="0" y="0" width="24" height="24"/>
</clipPath>
<g id="surface8" clip-path="url(#clip2)">
<path style=" stroke:none;fill-rule:nonzero;fill:rgb(90.196079%,0.784314%,70.588237%);fill-opacity:1;" d="M 4.125 3.75 L 17.25 3.75 L 17.25 5.113281 L 4.125 5.113281 Z M 4.125 3.75 "/>
</g>
<mask id="mask2">
  <g filter="url(#alpha)">
<rect x="0" y="0" width="24" height="24" style="fill:rgb(0%,0%,0%);fill-opacity:0.99;stroke:none;"/>
  </g>
</mask>
<clipPath id="clip3">
  <rect x="0" y="0" width="24" height="24"/>
</clipPath>
<g id="surface11" clip-path="url(#clip3)">
<path style=" stroke:none;fill-rule:nonzero;fill:rgb(90.196079%,0.784314%,70.588237%);fill-opacity:1;" d="M 17.25 11.933594 L 6.746094 11.933594 L 6.75 13.296875 L 17.253906 13.296875 Z M 17.25 11.933594 "/>
</g>
<mask id="mask3">
  <g filter="url(#alpha)">
<rect x="0" y="0" width="24" height="24" style="fill:rgb(0%,0%,0%);fill-opacity:0.99;stroke:none;"/>
  </g>
</mask>
<clipPath id="clip4">
  <rect x="0" y="0" width="24" height="24"/>
</clipPath>
<g id="surface14" clip-path="url(#clip4)">
<path style=" stroke:none;fill-rule:nonzero;fill:rgb(90.196079%,0.784314%,70.588237%);fill-opacity:1;" d="M 6.75 18.75 L 18.5625 18.75 L 18.5625 20.113281 L 6.75 20.113281 Z M 6.75 18.75 "/>
</g>
<mask id="mask4">
  <g filter="url(#alpha)">
<rect x="0" y="0" width="24" height="24" style="fill:rgb(0%,0%,0%);fill-opacity:0.99;stroke:none;"/>
  </g>
</mask>
<clipPath id="clip5">
  <rect x="0" y="0" width="24" height="24"/>
</clipPath>
<g id="surface17" clip-path="url(#clip5)">
<path style=" stroke:none;fill-rule:nonzero;fill:rgb(90.196079%,0.784314%,70.588237%);fill-opacity:0.992157;" d="M 17.25 3.75 L 17.25 5.113281 C 18.339844 5.113281 19.875 6.328125 19.875 7.839844 L 19.875 8.523438 C 19.875 10.03125 18.339844 11.929688 17.25 11.933594 L 17.253906 13.296875 C 18.265625 13.292969 19.800781 12.710938 20.347656 11.953125 C 20.898438 11.191406 21.1875 9.550781 21.1875 8.523438 L 21.1875 7.839844 C 21.1875 6.8125 20.898438 5.851562 20.347656 5.09375 C 19.800781 4.332031 18.265625 3.75 17.25 3.75 Z M 17.25 3.75 "/>
</g>
</defs>
<g id="surface1">
<use xlink:href="#surface5" mask="url(#mask0)"/>
<use xlink:href="#surface8" mask="url(#mask1)"/>
<use xlink:href="#surface11" mask="url(#mask2)"/>
<use xlink:href="#surface14" mask="url(#mask3)"/>
<use xlink:href="#surface17" mask="url(#mask4)"/>
<path style=" stroke:none;fill-rule:nonzero;fill:rgb(61.56863%,22.745098%,60.784316%);fill-opacity:1;" d="M 1.5 1.5 L 6.75 1.5 L 6.75 6.75 L 1.5 6.75 Z M 1.5 1.5 "/>
<path style=" stroke:none;fill-rule:nonzero;fill:rgb(61.56863%,22.745098%,60.784316%);fill-opacity:1;" d="M 17.25 17.25 L 22.5 17.25 L 22.5 22.5 L 17.25 22.5 Z M 17.25 17.25 "/>
</g>
</svg>
