<?xml version="1.0" encoding="UTF-8"?>
<svg xmlns="http://www.w3.org/2000/svg" xmlns:xlink="http://www.w3.org/1999/xlink" width="24px" height="24px" viewBox="0 0 24 24" version="1.1">
<g id="surface1">
<path style="fill-rule:nonzero;fill:rgb(94.117647%,89.019608%,92.54902%);fill-opacity:1;stroke-width:1;stroke-linecap:butt;stroke-linejoin:miter;stroke:rgb(90.196079%,0.784314%,70.588237%);stroke-opacity:1;stroke-miterlimit:4;" d="M 5.325521 1.492188 C 4.403646 1.492188 3.526042 2.091146 3.138021 2.919271 C 2.940104 3.007812 2.75 3.117188 2.580729 3.255208 C 2.580729 3.257812 2.580729 3.257812 2.580729 3.257812 C 1.726562 3.973958 1.520833 5.315104 2.041667 6.283854 C 1.864583 6.651042 1.770833 7.059896 1.794271 7.46875 C 1.856771 8.580729 2.809896 9.546875 3.898438 9.708333 C 4.088542 10.067708 4.359375 10.388021 4.700521 10.614583 C 5.630208 11.226562 6.976562 11.039062 7.752604 10.260417 C 8.15625 10.325521 8.575521 10.299479 8.958333 10.161458 C 10.005208 9.778646 10.658854 8.588542 10.5 7.5 C 10.791667 7.216146 11.020833 6.864583 11.138021 6.473958 C 11.458333 5.40625 10.893229 4.171875 9.924479 3.648438 C 9.872396 3.244792 9.726562 2.851562 9.484375 2.523438 C 8.817708 1.630208 7.489583 1.346354 6.492188 1.809896 C 6.135417 1.611979 5.734375 1.492188 5.325521 1.492188 Z M 6.445312 4.359375 C 7.486979 4.359375 8.330729 5.203125 8.330729 6.244792 C 8.330729 7.286458 7.486979 8.130208 6.445312 8.130208 C 5.403646 8.130208 4.559896 7.286458 4.559896 6.244792 C 4.559896 5.203125 5.403646 4.359375 6.445312 4.359375 Z M 6.445312 4.359375 " transform="matrix(1.5,0,0,1.5,0,0)"/>
<path style="fill-rule:evenodd;fill:rgb(94.117647%,89.019608%,92.54902%);fill-opacity:1;stroke-width:1;stroke-linecap:butt;stroke-linejoin:miter;stroke:rgb(90.196079%,0.784314%,70.588237%);stroke-opacity:1;stroke-miterlimit:4;" d="M 8.606771 7.973958 C 8.502604 7.96875 8.403646 7.981771 8.333333 8.010417 C 8.049479 8.200521 7.919271 8.265625 7.661458 8.453125 C 7.494792 8.557292 7.388021 8.734375 7.375 8.929688 C 7.265625 10.40625 7.161458 11.739583 6.96875 13.177083 C 6.927083 13.255208 6.835938 13.429688 6.734375 13.611979 C 6.669271 13.674479 6.598958 13.757812 6.544271 13.908854 C 6.533854 13.934896 6.523438 13.958333 6.515625 13.992188 C 6.505208 14.023438 6.484375 14.033854 6.489583 14.195312 C 6.489583 14.276042 6.460938 14.5 6.765625 14.700521 C 6.773438 14.705729 6.783854 14.705729 6.791667 14.710938 L 7.424479 14.710938 C 7.429688 14.708333 7.440104 14.705729 7.442708 14.703125 C 7.609375 14.596354 7.591146 14.572917 7.611979 14.544271 C 7.635417 14.513021 7.638021 14.5 7.653646 14.476562 C 7.679688 14.479167 7.984375 14.356771 8.286458 14.302083 C 8.617188 14.242188 8.908854 14.213542 8.908854 14.213542 C 9.208333 14.184896 9.442708 13.942708 9.463542 13.643229 C 9.513021 12.919271 9.53125 12.208333 9.5 11.5 C 9.903646 11.9375 10.286458 12.348958 10.502604 12.666667 L 10.481771 12.635417 C 10.585938 12.807292 10.747396 12.888021 10.848958 12.919271 C 10.947917 12.950521 11.015625 12.950521 11.067708 12.947917 C 11.174479 12.947917 11.236979 12.932292 11.302083 12.916667 C 11.432292 12.885417 11.5625 12.841146 11.708333 12.786458 C 12 12.677083 12.351562 12.526042 12.700521 12.369792 C 13.401042 12.054688 14.083333 11.723958 14.083333 11.723958 C 14.625 11.458333 14.502604 10.651042 13.90625 10.559896 C 11.96875 10.265625 10.78125 9.059896 8.903646 8.046875 C 8.817708 8 8.710938 7.976562 8.606771 7.973958 Z M 8.606771 7.973958 " transform="matrix(1.5,0,0,1.5,0,0)"/>
</g>
</svg>
