<?xml version="1.0" encoding="UTF-8"?>
<svg xmlns="http://www.w3.org/2000/svg" xmlns:xlink="http://www.w3.org/1999/xlink" width="24px" height="24px" viewBox="0 0 24 24" version="1.1">
<g id="surface1">
<path style="fill-rule:nonzero;fill:rgb(95.294118%,71.764708%,85.09804%);fill-opacity:1;stroke-width:1;stroke-linecap:butt;stroke-linejoin:miter;stroke:rgb(90.196079%,0.784314%,70.588237%);stroke-opacity:1;stroke-miterlimit:4;" d="M 8.453125 4.998795 L 13.546875 4.998795 C 13.796875 4.998795 14 5.20192 14 5.454524 L 14 10.54567 C 14 10.79567 13.796875 10.998795 13.546875 10.998795 L 8.453125 10.998795 C 8.203125 10.998795 8 10.79567 8 10.54567 L 8 5.454524 C 8 5.20192 8.203125 4.998795 8.453125 4.998795 Z M 8.453125 4.998795 " transform="matrix(0.000000000000000092,-1.5,1.5,0.000000000000000092,0.00571346,25.5)"/>
<path style=" stroke:none;fill-rule:evenodd;fill:rgb(61.56863%,22.745098%,60.784316%);fill-opacity:1;" d="M 10.5 18.738281 L 5.996094 14.992188 L 5.253906 15.734375 L 6.714844 17.988281 L 1.503906 18 L 1.503906 19.5 L 6.71875 19.488281 L 5.257812 21.707031 L 6 22.492188 Z M 10.5 18.738281 "/>
<path style=" stroke:none;fill-rule:evenodd;fill:rgb(61.56863%,22.745098%,60.784316%);fill-opacity:1;" d="M 13.136719 18.738281 L 17.636719 14.992188 L 18.382812 15.734375 L 16.917969 17.988281 L 22.503906 18 L 22.503906 19.5 L 16.917969 19.488281 L 18.378906 21.707031 L 17.632812 22.492188 Z M 13.136719 18.738281 "/>
</g>
</svg>
