<?xml version="1.0" encoding="UTF-8"?>
<svg xmlns="http://www.w3.org/2000/svg" xmlns:xlink="http://www.w3.org/1999/xlink" width="24px" height="24px" viewBox="0 0 24 24" version="1.1">
<g id="surface1">
<path style="fill-rule:nonzero;fill:rgb(95.294118%,71.764708%,85.09804%);fill-opacity:1;stroke-width:1;stroke-linecap:butt;stroke-linejoin:miter;stroke:rgb(61.56863%,22.745098%,60.784316%);stroke-opacity:1;stroke-miterlimit:4;" d="M 14.651042 8 C 14.651042 11.671875 11.671875 14.651042 8 14.651042 C 4.328125 14.651042 1.348958 11.671875 1.348958 8 C 1.348958 4.328125 4.328125 1.348958 8 1.348958 C 11.671875 1.348958 14.651042 4.328125 14.651042 8 Z M 14.651042 8 " transform="matrix(1.5,0,0,1.5,0,0)"/>
<path style=" stroke:none;fill-rule:evenodd;fill:rgb(95.686275%,0%,0%);fill-opacity:0.941176;" d="M 15.875 12 C 15.875 14.140625 14.140625 15.875 12 15.875 C 9.859375 15.875 8.125 14.140625 8.125 12 C 8.125 9.859375 9.859375 8.125 12 8.125 C 14.140625 8.125 15.875 9.859375 15.875 12 Z M 15.875 12 "/>
<path style="fill-rule:nonzero;fill:rgb(95.294118%,71.764708%,85.09804%);fill-opacity:1;stroke-width:1.278937;stroke-linecap:butt;stroke-linejoin:round;stroke:rgb(90.196079%,0.784314%,70.588237%);stroke-opacity:1;stroke-miterlimit:4;" d="M 7.498888 18.001273 L 12.501469 29.000667 C 12.501469 29.000667 9.198757 28.000647 7.501093 28.000923 C 5.800398 27.99982 2.500166 28.998462 2.500166 28.998462 Z M 7.498888 18.001273 " transform="matrix(1.067723,-0.485328,0.485328,1.067723,-4.942482,-6.897348)"/>
<path style=" stroke:none;fill-rule:nonzero;fill:rgb(61.56863%,22.745098%,60.784316%);fill-opacity:1;" d="M 13.5 12.417969 L 18.839844 17.078125 C 18.839844 17.078125 16.835938 17.34375 15.925781 17.757812 C 15.019531 18.167969 13.5 19.503906 13.5 19.503906 Z M 13.5 12.417969 "/>
</g>
</svg>
