<?xml version="1.0" encoding="UTF-8" standalone="no"?>
<svg
   xmlns:dc="http://purl.org/dc/elements/1.1/"
   xmlns:cc="http://creativecommons.org/ns#"
   xmlns:rdf="http://www.w3.org/1999/02/22-rdf-syntax-ns#"
   xmlns:svg="http://www.w3.org/2000/svg"
   xmlns="http://www.w3.org/2000/svg"
   xmlns:sodipodi="http://sodipodi.sourceforge.net/DTD/sodipodi-0.dtd"
   xmlns:inkscape="http://www.inkscape.org/namespaces/inkscape"
   height="16"
   viewBox="0 0 16 16"
   width="16"
   version="1.1"
   id="svg26"
   sodipodi:docname="sc_basicshapes.frame.svg"
   inkscape:version="0.92.4 (unknown)">
  <metadata
     id="metadata32">
    <rdf:RDF>
      <cc:Work
         rdf:about="">
        <dc:format>image/svg+xml</dc:format>
        <dc:type
           rdf:resource="http://purl.org/dc/dcmitype/StillImage" />
      </cc:Work>
    </rdf:RDF>
  </metadata>
  <defs
     id="defs30" />
  <sodipodi:namedview
     pagecolor="#ffffff"
     bordercolor="#666666"
     borderopacity="1"
     objecttolerance="10"
     gridtolerance="10"
     guidetolerance="10"
     inkscape:pageopacity="0"
     inkscape:pageshadow="2"
     inkscape:window-width="1366"
     inkscape:window-height="707"
     id="namedview28"
     showgrid="true"
     inkscape:zoom="14.75"
     inkscape:cx="-3.3220339"
     inkscape:cy="8"
     inkscape:window-x="0"
     inkscape:window-y="0"
     inkscape:window-maximized="1"
     inkscape:current-layer="g24">
    <inkscape:grid
       type="xygrid"
       id="grid839" />
  </sodipodi:namedview>
  <linearGradient
     id="a"
     gradientUnits="userSpaceOnUse"
     x1="59.971828"
     x2="59.971828"
     y1="128.45074"
     y2="-.450739">
    <stop
       offset="0"
       stop-color="#fff"
       id="stop2" />
    <stop
       offset=".46428573"
       stop-color="#fff"
       id="stop4" />
    <stop
       offset=".78125"
       stop-color="#f1f1f1"
       id="stop6" />
    <stop
       offset=".90625"
       stop-color="#eaeaea"
       id="stop8" />
    <stop
       offset="1"
       stop-color="#dfdfdf"
       id="stop10" />
  </linearGradient>
  <linearGradient
     id="b"
     gradientUnits="userSpaceOnUse"
     x1="8.002914"
     x2="119.99709"
     y1="64"
     y2="64">
    <stop
       offset="0"
       stop-color="#7c9fcf"
       id="stop13" />
    <stop
       offset=".5"
       stop-color="#7c9ece"
       id="stop15" />
    <stop
       offset="1"
       stop-color="#7b9dcf"
       id="stop17" />
  </linearGradient>
  <g
     transform="scale(0.125)"
     id="g24"
     style="stroke-width:1.15793204">
    <path
       d="M 16,8.0019531 A 7.9974177,7.9974177 0 0 0 8.0019531,16 v 96 A 7.9974177,7.9974177 0 0 0 16,119.99805 h 96 A 7.9974177,7.9974177 0 0 0 119.99805,112 V 16 A 7.9974177,7.9974177 0 0 0 112,8.0019531 Z M 53.126953,48 H 74.873047 C 77.713143,48 80,50.522352 80,53.65625 v 20.6875 C 80,77.477648 77.713143,80 74.873047,80 H 53.126953 C 50.286857,80 48,77.477648 48,74.34375 V 53.65625 C 48,50.522352 50.286857,48 53.126953,48 Z"
       id="path20"
       inkscape:connector-curvature="0"
       style="fill:#e602b4" />
    <path
       d="m 16,16 v 96 h 96 V 16 Z M 40,40 H 88 V 88 H 40 Z"
       id="path22"
       inkscape:connector-curvature="0"
       style="fill:url(#a)" />
  </g>
</svg>
