<?xml version="1.0" encoding="UTF-8" standalone="no"?>
<svg
   xmlns:dc="http://purl.org/dc/elements/1.1/"
   xmlns:cc="http://creativecommons.org/ns#"
   xmlns:rdf="http://www.w3.org/1999/02/22-rdf-syntax-ns#"
   xmlns:svg="http://www.w3.org/2000/svg"
   xmlns="http://www.w3.org/2000/svg"
   xmlns:xlink="http://www.w3.org/1999/xlink"
   xmlns:sodipodi="http://sodipodi.sourceforge.net/DTD/sodipodi-0.dtd"
   xmlns:inkscape="http://www.inkscape.org/namespaces/inkscape"
   height="16"
   viewBox="0 0 16 16"
   width="16"
   version="1.1"
   id="svg34"
   sodipodi:docname="sc_basicshapes.can.svg"
   inkscape:version="0.92.4 (unknown)">
  <metadata
     id="metadata40">
    <rdf:RDF>
      <cc:Work
         rdf:about="">
        <dc:format>image/svg+xml</dc:format>
        <dc:type
           rdf:resource="http://purl.org/dc/dcmitype/StillImage" />
      </cc:Work>
    </rdf:RDF>
  </metadata>
  <defs
     id="defs38" />
  <sodipodi:namedview
     pagecolor="#ffffff"
     bordercolor="#666666"
     borderopacity="1"
     objecttolerance="10"
     gridtolerance="10"
     guidetolerance="10"
     inkscape:pageopacity="0"
     inkscape:pageshadow="2"
     inkscape:window-width="1366"
     inkscape:window-height="707"
     id="namedview36"
     showgrid="true"
     inkscape:zoom="41.7193"
     inkscape:cx="4.1027826"
     inkscape:cy="7.4576271"
     inkscape:window-x="0"
     inkscape:window-y="0"
     inkscape:window-maximized="1"
     inkscape:current-layer="g32">
    <inkscape:grid
       type="xygrid"
       id="grid847" />
  </sodipodi:namedview>
  <linearGradient
     id="a">
    <stop
       offset="0"
       stop-color="#fff"
       id="stop2" />
    <stop
       offset=".46428573"
       stop-color="#fff"
       id="stop4" />
    <stop
       offset=".78125"
       stop-color="#f1f1f1"
       id="stop6" />
    <stop
       offset=".90625"
       stop-color="#eaeaea"
       id="stop8" />
    <stop
       offset="1"
       stop-color="#dfdfdf"
       id="stop10" />
  </linearGradient>
  <linearGradient
     id="b">
    <stop
       offset="0"
       stop-color="#7c9fcf"
       id="stop13" />
    <stop
       offset=".5"
       stop-color="#7c9ece"
       id="stop15" />
    <stop
       offset="1"
       stop-color="#7b9dcf"
       id="stop17" />
  </linearGradient>
  <linearGradient
     id="c"
     gradientUnits="userSpaceOnUse"
     x1="16.402344"
     x2="112"
     xlink:href="#b"
     y1="23.246094"
     y2="22.902344"
     gradientTransform="matrix(1.1070496,0,0,1.1586731,-2.5691895,-10.097554)" />
  <linearGradient
     id="d"
     gradientUnits="userSpaceOnUse"
     x1="15.667241"
     x2="111.96881"
     xlink:href="#b"
     y1="71.528763"
     y2="71.528763"
     gradientTransform="matrix(1.1070496,0,0,1.1586731,-2.5691895,-10.097554)" />
  <linearGradient
     id="e"
     gradientUnits="userSpaceOnUse"
     x1="24.013371"
     x2="104"
     xlink:href="#a"
     y1="23.21471"
     y2="23.21471"
     gradientTransform="matrix(1.1070496,0,0,1.1586731,-2.5691895,-10.097554)" />
  <linearGradient
     id="f"
     gradientUnits="userSpaceOnUse"
     x1="23.636946"
     x2="104"
     xlink:href="#a"
     y1="74.526062"
     y2="74.526062"
     gradientTransform="matrix(1.1070496,0,0,1.1586731,-2.5691895,-10.097554)" />
  <g
     transform="matrix(0.11291274,0,0,0.10788203,0.29009423,1.0893446)"
     id="g32"
     style="stroke-width:1.13256729">
    <path
       d="m 104.22347,16.771484 c -3.01784,0.08274 -5.737726,1.81484 -7.054006,4.492188 -0.0069,0.01164 -0.148029,0.217438 -0.72542,0.537109 -1.259208,0.69716 -3.702124,1.648648 -6.867696,2.441407 -6.330269,1.585298 -15.55299,2.667361 -25.793995,2.669921 C 53.561815,26.910659 44.391776,25.83848 38.099349,24.265625 34.953135,23.479197 32.525652,22.534791 31.267329,21.839844 30.675163,21.512801 30.509628,21.28689 30.504252,21.279297 26.933208,14.189489 16.369643,12.721696 15.143604,20 c -0.07438,0.441555 0.03089,4.291307 0.02774,4.771484 l -0.02774,83.142576 v 4.05274 c 0.264975,3.15784 3.176649,5.33075 6.167995,7.70898 4.35384,3.13362 9.531128,4.60558 15.778855,5.9043 7.582727,1.57623 16.645614,2.4188 26.489685,2.41992 h 0.273566 c 9.840774,-0.003 18.659755,-0.85298 26.2677,-2.43359 6.259748,-1.30051 11.443275,-2.76085 15.808585,-5.89258 3.87738,-3.22419 6.49068,-5.55124 6.40192,-7.79101 l 0.2319,-1.72266 3e-5,-2.17774 V 24.847656 c 6.7e-4,-0.331617 0.0394,-4.525838 -3e-5,-4.847656 -0.4959,-4.038294 -4.11901,-3.341929 -8.34027,-3.228516 z"
       id="path24"
       inkscape:connector-curvature="0"
       style="fill:#e602b4;stroke-width:1.13256717" />
    <path
       d="M 104.06292,28.474797 C 102.37466,34.236316 85.271285,38.619765 63.99139,38.624537 42.762982,38.621479 25.819454,34.281311 24.059672,28.535405 L 24,108.20418 v 2.63814 l 1.05632,1.0625 c 4.796262,4.84059 20.21772,8.12447 38.673932,8.12661 18.444035,-0.006 33.987907,-3.31034 38.780998,-8.14773 L 104,110.5712 v -2.49016 z"
       id="path26"
       inkscape:connector-curvature="0"
       style="fill:url(#f);stroke-width:1.13256729" />
    <path
       d="m 63.747193,0 c -12.033502,-6e-7 -22.7415,1.266952 -31.101826,3.5800781 -4.180162,1.156563 -7.77735,2.51369 -10.96111,4.605469 -3.183759,2.0917789 -6.68709,6.4232349 -6.68709,11.8351779 2e-6,5.411943 3.72083,10.021271 6.913932,12.095479 3.193101,2.074208 6.597346,3.406279 10.774419,4.539062 8.354149,2.265567 19.048289,3.488282 31.062104,3.488282 12.016458,-1e-6 22.743985,-1.229268 31.127643,-3.498047 4.191829,-1.13439 7.800055,-2.466972 11.002815,-4.53711 3.20276,-2.070138 6.66483,-6.635101 6.66483,-12.0779 0,-5.4428 -3.44344,-9.797077 -6.63944,-11.8800999 -3.196,-2.083024 -6.804759,-3.4341772 -10.998838,-4.585938 C 86.516467,1.2609314 75.778054,0 63.747193,0 Z"
       id="path28"
       inkscape:connector-curvature="0"
       style="fill:#e602b4;stroke-width:1.13256729" />
    <path
       d="M 104,20 C 104,26.0984 86.453161,31.999999 64,32 41.546839,32 24.013372,26.119432 24.01337,20.021032 24.01337,13.92263 41.546416,8.1432821 63.999578,8.1432831 86.45274,8.1432831 104,13.9016 104,20 Z"
       id="path30"
       inkscape:connector-curvature="0"
       style="fill:url(#e);stroke-width:1.13256729" />
  </g>
</svg>
