<?xml version="1.0" encoding="UTF-8" standalone="no"?>
<svg
   xmlns:dc="http://purl.org/dc/elements/1.1/"
   xmlns:cc="http://creativecommons.org/ns#"
   xmlns:rdf="http://www.w3.org/1999/02/22-rdf-syntax-ns#"
   xmlns:svg="http://www.w3.org/2000/svg"
   xmlns="http://www.w3.org/2000/svg"
   xmlns:sodipodi="http://sodipodi.sourceforge.net/DTD/sodipodi-0.dtd"
   xmlns:inkscape="http://www.inkscape.org/namespaces/inkscape"
   height="16"
   viewBox="0 0 4.2333333 4.2333335"
   width="16"
   version="1.1"
   id="svg11"
   sodipodi:docname="sc_circlecut_unfilled.svg"
   inkscape:version="0.92.4 (unknown)">
  <metadata
     id="metadata17">
    <rdf:RDF>
      <cc:Work
         rdf:about="">
        <dc:format>image/svg+xml</dc:format>
        <dc:type
           rdf:resource="http://purl.org/dc/dcmitype/StillImage" />
      </cc:Work>
    </rdf:RDF>
  </metadata>
  <defs
     id="defs15" />
  <sodipodi:namedview
     pagecolor="#ffffff"
     bordercolor="#666666"
     borderopacity="1"
     objecttolerance="10"
     gridtolerance="10"
     guidetolerance="10"
     inkscape:pageopacity="0"
     inkscape:pageshadow="2"
     inkscape:window-width="1366"
     inkscape:window-height="707"
     id="namedview13"
     showgrid="false"
     inkscape:zoom="14.75"
     inkscape:cx="-3.3220339"
     inkscape:cy="8"
     inkscape:window-x="0"
     inkscape:window-y="0"
     inkscape:window-maximized="1"
     inkscape:current-layer="svg11" />
  <linearGradient
     id="a"
     gradientUnits="userSpaceOnUse"
     x1="8"
     x2="8"
     y1="16.443092"
     y2="-.443065">
    <stop
       offset="0"
       stop-color="#7c9fcf"
       id="stop2" />
    <stop
       offset=".5"
       stop-color="#7c9ece"
       id="stop4" />
    <stop
       offset="1"
       stop-color="#7b9dcf"
       id="stop6" />
  </linearGradient>
  <path
     d="m8 1c-3.8654813-.00006631-7.00006631 3.1345187-7 7-.00006649 3.865481 3.1345186 6.998113 7 6.998047 3.865482.000066 6.998113-3.132565 6.998047-6.998047-.001125-.1565526-.005967-.3400688-.017578-.4960938l-6.4843752-6.4941406c-.125879-.0079075-.3698952-.0086727-.4960938-.0097656zm0 1 6 6c.000039 3.31332-2.68668 6.000039-6 6-3.3133202.000039-6.0000391-2.68668-6-6-.0000392-3.3133202 2.6866798-6.0000392 6-6z"
     fill="url(#a)"
     stroke-width=".125"
     transform="scale(.26458334)"
     id="path9"
     style="fill:#e602b4" />
</svg>
