<?xml version="1.0" encoding="UTF-8" standalone="no"?>
<svg
   xmlns:dc="http://purl.org/dc/elements/1.1/"
   xmlns:cc="http://creativecommons.org/ns#"
   xmlns:rdf="http://www.w3.org/1999/02/22-rdf-syntax-ns#"
   xmlns:svg="http://www.w3.org/2000/svg"
   xmlns="http://www.w3.org/2000/svg"
   xmlns:xlink="http://www.w3.org/1999/xlink"
   xmlns:sodipodi="http://sodipodi.sourceforge.net/DTD/sodipodi-0.dtd"
   xmlns:inkscape="http://www.inkscape.org/namespaces/inkscape"
   height="16"
   width="16"
   version="1.1"
   id="svg27"
   sodipodi:docname="sc_connectorcurvecircleend.svg"
   inkscape:version="0.92.4 (unknown)">
  <metadata
     id="metadata33">
    <rdf:RDF>
      <cc:Work
         rdf:about="">
        <dc:format>image/svg+xml</dc:format>
        <dc:type
           rdf:resource="http://purl.org/dc/dcmitype/StillImage" />
      </cc:Work>
    </rdf:RDF>
  </metadata>
  <defs
     id="defs31" />
  <sodipodi:namedview
     pagecolor="#ffffff"
     bordercolor="#666666"
     borderopacity="1"
     objecttolerance="10"
     gridtolerance="10"
     guidetolerance="10"
     inkscape:pageopacity="0"
     inkscape:pageshadow="2"
     inkscape:window-width="1366"
     inkscape:window-height="707"
     id="namedview29"
     showgrid="true"
     inkscape:zoom="20.85965"
     inkscape:cx="-0.15899671"
     inkscape:cy="8"
     inkscape:window-x="0"
     inkscape:window-y="0"
     inkscape:window-maximized="1"
     inkscape:current-layer="g25">
    <inkscape:grid
       type="xygrid"
       id="grid843" />
  </sodipodi:namedview>
  <linearGradient
     id="a">
    <stop
       offset="0"
       stop-color="#0968ef"
       id="stop2" />
    <stop
       offset="1"
       stop-color="#aecffc"
       id="stop4" />
  </linearGradient>
  <linearGradient
     id="b"
     gradientTransform="matrix(9.6349444,0,0,9.634939,-690.6598,-204.31904)"
     gradientUnits="userSpaceOnUse"
     x1="71.994354"
     x2="73.261963"
     xlink:href="#a"
     y1="24.686638"
     y2="18.982378" />
  <linearGradient
     id="c"
     gradientUnits="userSpaceOnUse"
     x1="-107.99999"
     x2="-107.99999"
     xlink:href="#a"
     y1="128"
     y2="60.000004"
     gradientTransform="matrix(1.1428572,0,0,1.1428572,9.1428683,-9.1428645)" />
  <g
     transform="matrix(0.10937499,0,0,0.10937499,1.0000011,1.0000006)"
     id="g25"
     style="stroke-width:1.14285719">
    <g
       id="g19"
       style="fill:#e602b4;stroke-width:1.12856925"
       transform="matrix(0.99951919,0,0,1.0259741,1.1928609,-1.7662392)">
      <path
         d="M 32.009764,64 C 25.823349,64 16.463149,67.41567 13.117186,71.876953 9.771223,76.338237 8.01953,77.957892 8.01953,84 v 4 c 0,6.042108 1.761459,11.661763 5.107422,16.12305 C 16.472915,108.58433 25.833115,112 32.01953,112 L 32,104 h 0.01953 c -6.648,0 -16,-7.136 -16,-16 v -4 c 0,-8.864 9.342234,-12 15.990234,-12 z"
         id="path9"
         inkscape:connector-curvature="0"
         style="opacity:0.98999999;fill:#e602b4;fill-opacity:0.99215698;stroke-width:1.12856925" />
      <path
         d="m 16,16 h 80 v 8 H 16 Z"
         id="path11"
         inkscape:connector-curvature="0"
         style="opacity:0.98999999;fill:#e602b4;stroke-width:1.12856925" />
      <path
         d="m 95.996108,64.000005 -64.02937,3.49e-4 0.0235,7.999651 64.02937,-3.5e-4 z"
         id="path13"
         inkscape:connector-curvature="0"
         style="opacity:0.98999999;fill:#e602b4;stroke-width:1.12856925" />
      <path
         d="m 32,104 h 72 v 8 H 32 Z"
         id="path15"
         inkscape:connector-curvature="0"
         style="opacity:0.98999999;fill:#e602b4;stroke-width:1.12856925" />
      <path
         d="m 96,16 v 8 c 6.648,0 16,7.136 16,16 v 4 c 0,8.859623 -9.35657,19.992957 -16,20 l 0.01953,7.998047 c 6.17392,-0.01086 15.52265,-3.420826 18.86328,-7.875 C 118.22877,59.661763 120,50.042108 120,44 V 40 C 120,33.957892 118.23854,28.338237 114.89258,23.876953 111.54662,19.41567 102.18641,16 96,16 Z"
         id="path17"
         inkscape:connector-curvature="0"
         style="opacity:0.98999999;fill:#e602b4;fill-opacity:0.99215698;stroke-width:1.12856925" />
    </g>
    <circle
       cx="-107.98959"
       cy="107.98959"
       r="20.010406"
       transform="scale(-1,1)"
       id="circle21"
       style="opacity:0.98999999;fill:#9d3a9b;stroke-width:1.14285719" />
    <path
       d="M -8.91e-6,0 H 32.00002 V 31.999994 H -8.91e-6 Z"
       id="path23"
       inkscape:connector-curvature="0"
       style="fill:#9d3a9b;stroke-width:9.63494205" />
  </g>
</svg>
