<?xml version="1.0" encoding="UTF-8" standalone="no"?>
<svg
   xmlns:dc="http://purl.org/dc/elements/1.1/"
   xmlns:cc="http://creativecommons.org/ns#"
   xmlns:rdf="http://www.w3.org/1999/02/22-rdf-syntax-ns#"
   xmlns:svg="http://www.w3.org/2000/svg"
   xmlns="http://www.w3.org/2000/svg"
   xmlns:sodipodi="http://sodipodi.sourceforge.net/DTD/sodipodi-0.dtd"
   xmlns:inkscape="http://www.inkscape.org/namespaces/inkscape"
   height="16"
   viewBox="0 0 16 16"
   width="16"
   version="1.1"
   id="svg32"
   sodipodi:docname="sc_starshapes.star24.svg"
   inkscape:version="0.92.4 (5da689c313, 2019-01-14)">
  <metadata
     id="metadata38">
    <rdf:RDF>
      <cc:Work
         rdf:about="">
        <dc:format>image/svg+xml</dc:format>
        <dc:type
           rdf:resource="http://purl.org/dc/dcmitype/StillImage" />
        <dc:title></dc:title>
      </cc:Work>
    </rdf:RDF>
  </metadata>
  <defs
     id="defs36" />
  <sodipodi:namedview
     pagecolor="#ffffff"
     bordercolor="#666666"
     borderopacity="1"
     objecttolerance="10"
     gridtolerance="10"
     guidetolerance="10"
     inkscape:pageopacity="0"
     inkscape:pageshadow="2"
     inkscape:window-width="1600"
     inkscape:window-height="836"
     id="namedview34"
     showgrid="true"
     inkscape:snap-center="true"
     inkscape:snap-object-midpoints="true"
     inkscape:zoom="29.5"
     inkscape:cx="6.4150757"
     inkscape:cy="7.3156882"
     inkscape:window-x="0"
     inkscape:window-y="27"
     inkscape:window-maximized="1"
     inkscape:current-layer="svg32">
    <inkscape:grid
       type="xygrid"
       id="grid845"
       spacingx="0.5"
       spacingy="0.5"
       empspacing="2" />
  </sodipodi:namedview>
  <linearGradient
     id="a"
     gradientUnits="userSpaceOnUse"
     x1="42.584549"
     x2="75.127121"
     y1="-119.57999"
     y2="-1.700043"
     gradientTransform="matrix(0.12632208,-0.03457673,-0.03457673,-0.12632208,-1.577382,2.3668423)">
    <stop
       offset="0"
       stop-color="#fff"
       id="stop2" />
    <stop
       offset=".59375"
       stop-color="#fff"
       id="stop4" />
    <stop
       offset=".84375"
       stop-color="#f1f1f1"
       id="stop6" />
    <stop
       offset=".90625"
       stop-color="#eaeaea"
       id="stop8" />
    <stop
       offset="1"
       stop-color="#dfdfdf"
       id="stop10" />
  </linearGradient>
  <linearGradient
     id="b"
     gradientUnits="userSpaceOnUse"
     x1="7.565487"
     x2="114.81899"
     y1="-61.194038"
     y2="-61.194038"
     gradientTransform="matrix(0.11128092,-0.03045968,-0.03045968,-0.11128092,-0.67350097,3.0541378)">
    <stop
       offset="0"
       stop-color="#7c9fcf"
       id="stop13" />
    <stop
       offset=".5"
       stop-color="#7c9ece"
       id="stop15" />
    <stop
       offset="1"
       stop-color="#7b9dcf"
       id="stop17" />
  </linearGradient>
  <path
     inkscape:connector-curvature="0"
     style="fill:#f0e3ec;stroke:#e602b4;stroke-width:0.88093001;stroke-miterlimit:4;stroke-dasharray:none;stroke-opacity:1"
     id="path20"
     d="M 9.8117235,14.623606 A 0.67998543,0.67998543 0 0 1 9.0775363,14.35941 L 8.7990969,13.964395 8.689068,14.366448 a 0.67998543,0.67998543 0 0 1 -1.2938769,0.05535 L 7.2281645,13.967777 7.0178754,14.327888 A 0.67998543,0.67998543 0 0 1 5.7537483,14.046377 L 5.7099226,13.56448 5.4134219,13.858008 A 0.67998543,0.67998543 0 0 1 4.2651332,13.258824 l 0.08241,-0.476499 -0.362117,0.206588 A 0.67998543,0.67998543 0 0 1 3.0315147,12.113175 L 3.2344182,11.674017 2.8311986,11.779946 A 0.67998543,0.67998543 0 0 1 2.1360703,10.687123 l 0.3099072,-0.371724 -0.4171538,-0.0022 A 0.67998543,0.67998543 0 0 1 1.6405922,9.0775322 L 2.0356088,8.7990926 1.6335537,8.6890639 A 0.67998543,0.67998543 0 0 1 1.5782073,7.3951871 L 2.0322225,7.2281605 1.6721121,7.0178712 A 0.67998543,0.67998543 0 0 1 1.9536256,5.7537442 L 2.4353051,5.7099778 2.1417781,5.4134773 A 0.67998543,0.67998543 0 0 1 2.7409613,4.2651886 L 3.2177371,4.3477562 3.0110899,3.9854216 A 0.67998543,0.67998543 0 0 1 3.8868275,3.0315104 L 4.3259857,3.2344143 4.220056,2.8311946 A 0.67998543,0.67998543 0 0 1 5.3128794,2.1360664 l 0.371665,0.3096898 0.00201,-0.4168771 A 0.67998543,0.67998543 0 0 1 6.9219758,1.6404898 L 7.200811,2.0360989 7.3109383,1.6335496 A 0.67998543,0.67998543 0 0 1 8.6048149,1.5782033 L 8.7718416,2.0322184 8.9821309,1.6721082 A 0.67998543,0.67998543 0 0 1 10.246258,1.9536215 L 10.290018,2.435301 10.5863,2.1418335 a 0.67998543,0.67998543 0 0 1 1.14829,0.599183 l -0.08251,0.4769934 0.362492,-0.2069241 a 0.67998543,0.67998543 0 0 1 0.953971,0.8759553 L 12.765519,4.3257644 13.169017,4.219992 a 0.67998543,0.67998543 0 0 1 0.694694,1.0929425 l -0.309749,0.3714475 0.416936,0.00223 a 0.67998543,0.67998543 0 0 1 0.388389,1.2354245 l -0.395391,0.2787757 0.402548,0.1101272 a 0.67998543,0.67998543 0 0 1 0.05535,1.2938768 l -0.454015,0.1670298 0.360109,0.2102895 a 0.67998543,0.67998543 0 0 1 -0.281512,1.2641275 l -0.48168,0.04377 0.29325,0.296342 a 0.67998543,0.67998543 0 0 1 -0.599183,1.14829 l -0.476499,-0.08242 0.206647,0.362335 a 0.67998543,0.67998543 0 0 1 -0.875737,0.953911 l -0.439159,-0.202904 0.10593,0.40322 a 0.67998543,0.67998543 0 0 1 -1.092883,0.69491 l -0.371724,-0.309906 -0.0022,0.417154 a 0.67998543,0.67998543 0 0 1 -0.5014534,0.652644 z" />
  <text
     xml:space="preserve"
     style="font-style:normal;font-variant:normal;font-weight:600;font-stretch:normal;font-size:5.33333349px;line-height:1.25;font-family:Nunito;-inkscape-font-specification:'Nunito Semi-Bold';letter-spacing:0px;word-spacing:0px;fill:#9d3a9b;fill-opacity:1;stroke:none"
     x="4.7050414"
     y="9.8880005"
     id="text854"><tspan
       sodipodi:role="line"
       id="tspan852"
       x="4.7050414"
       y="9.8880005">24</tspan></text>
</svg>
