<?xml version="1.0" encoding="UTF-8"?>
<svg xmlns="http://www.w3.org/2000/svg" xmlns:xlink="http://www.w3.org/1999/xlink" width="32px" height="32px" viewBox="0 0 32 32" version="1.1">
<g id="surface1">
<path style="fill-rule:nonzero;fill:rgb(95.294118%,71.764708%,85.09804%);fill-opacity:1;stroke-width:1;stroke-linecap:butt;stroke-linejoin:miter;stroke:rgb(90.196079%,0.784314%,70.588237%);stroke-opacity:1;stroke-miterlimit:4;" d="M 8.453125 5.000097 L 13.546875 5.000097 C 13.796875 5.000097 14 5.203222 14 5.453222 L 14 10.545019 C 14 10.796972 13.796875 11.000097 13.546875 11.000097 L 8.453125 11.000097 C 8.203125 11.000097 8 10.796972 8 10.545019 L 8 5.453222 C 8 5.203222 8.203125 5.000097 8.453125 5.000097 Z M 8.453125 5.000097 " transform="matrix(0.000000000000000122,-2,2,0.000000000000000122,0.00761795,34)"/>
<path style=" stroke:none;fill-rule:evenodd;fill:rgb(61.56863%,22.745098%,60.784316%);fill-opacity:1;" d="M 14 24.984375 L 7.996094 19.988281 L 7.003906 20.980469 L 8.957031 23.988281 L 2.007812 24 L 2.007812 26 L 8.957031 25.988281 L 7.007812 28.945312 L 8.003906 29.988281 Z M 14 24.984375 "/>
<path style=" stroke:none;fill-rule:evenodd;fill:rgb(61.56863%,22.745098%,60.784316%);fill-opacity:1;" d="M 17.511719 24.984375 L 23.515625 19.988281 L 24.507812 20.980469 L 22.558594 23.988281 L 30.007812 24 L 30.007812 26 L 22.558594 25.988281 L 24.503906 28.945312 L 23.511719 29.988281 Z M 17.511719 24.984375 "/>
</g>
</svg>
