<?xml version="1.0" encoding="UTF-8"?>
<svg xmlns="http://www.w3.org/2000/svg" xmlns:xlink="http://www.w3.org/1999/xlink" width="32px" height="32px" viewBox="0 0 32 32" version="1.1">
<g id="surface1">
<path style="fill:none;stroke-width:1;stroke-linecap:square;stroke-linejoin:round;stroke:rgb(90.196079%,0.784314%,70.588237%);stroke-opacity:1;stroke-miterlimit:4;" d="M 14.5 8 C 14.5 11.589844 11.589844 14.5 8 14.5 C 4.410156 14.5 1.5 11.589844 1.5 8 C 1.5 4.410156 4.410156 1.5 8 1.5 C 11.589844 1.5 14.5 4.410156 14.5 8 Z M 14.5 8 " transform="matrix(2,0,0,2,0,0)"/>
<path style="fill:none;stroke-width:1;stroke-linecap:square;stroke-linejoin:round;stroke:rgb(90.196079%,0.784314%,70.588237%);stroke-opacity:1;stroke-miterlimit:4;" d="M 14.5 8 C 14.5 11.589844 11.589844 14.5 8 14.5 C 4.410156 14.5 1.5 11.589844 1.5 8 C 1.5 4.410156 4.410156 1.5 8 1.5 C 11.589844 1.5 14.5 4.410156 14.5 8 Z M 14.5 8 " transform="matrix(2,0,0,2,0,0)"/>
<path style="fill:none;stroke-width:1;stroke-linecap:square;stroke-linejoin:round;stroke:rgb(90.196079%,0.784314%,70.588237%);stroke-opacity:1;stroke-miterlimit:4;" d="M 13.294644 -2.124311 C 13.295104 -1.019675 12.399685 -0.124062 11.295049 -0.123602 C 10.190412 -0.123142 9.294799 -1.018561 9.294339 -2.123198 C 9.295519 -3.228896 10.190939 -4.124508 11.293935 -4.123907 C 12.398572 -4.124367 13.294184 -3.228948 13.294644 -2.124311 Z M 13.294644 -2.124311 " transform="matrix(1.679257,1.086322,-1.086322,1.679257,0,0)"/>
<path style="fill:none;stroke-width:1;stroke-linecap:square;stroke-linejoin:round;stroke:rgb(90.196079%,0.784314%,70.588237%);stroke-opacity:1;stroke-miterlimit:4;" d="M 14.795176 -0.624614 C 14.794486 1.308886 13.228322 2.875677 11.294823 2.874987 C 9.362384 2.875936 7.794531 1.308133 7.793582 -0.624306 C 7.794272 -2.557806 9.361496 -4.122957 11.293935 -4.123907 C 13.227435 -4.123217 14.794227 -2.557053 14.795176 -0.624614 Z M 14.795176 -0.624614 " transform="matrix(1.679257,1.086322,-1.086322,1.679257,0,0)"/>
<path style="fill:none;stroke-width:1;stroke-linecap:square;stroke-linejoin:round;stroke:rgb(90.196079%,0.784314%,70.588237%);stroke-opacity:1;stroke-miterlimit:4;" d="M 16.294068 0.876144 C 16.293868 3.637446 14.05696 5.875416 11.294018 5.876276 C 8.532715 5.876076 6.293684 3.637528 6.293885 0.876226 C 6.294085 -1.885077 8.532633 -4.124108 11.293935 -4.123907 C 14.055238 -4.123707 16.294269 -1.885159 16.294068 0.876144 Z M 16.294068 0.876144 " transform="matrix(1.679257,1.086322,-1.086322,1.679257,0,0)"/>
</g>
</svg>
