<?xml version="1.0" encoding="UTF-8"?>
<svg xmlns="http://www.w3.org/2000/svg" xmlns:xlink="http://www.w3.org/1999/xlink" width="32px" height="32px" viewBox="0 0 32 32" version="1.1">
<g id="surface1">
<path style="fill-rule:nonzero;fill:rgb(94.117647%,89.019608%,92.54902%);fill-opacity:1;stroke-width:1;stroke-linecap:butt;stroke-linejoin:miter;stroke:rgb(90.196079%,0.784314%,70.588237%);stroke-opacity:1;stroke-miterlimit:4;" d="M 5.324219 1.492188 C 4.404297 1.494141 3.525391 2.089844 3.138672 2.919922 C 2.939453 3.009766 2.75 3.117188 2.582031 3.255859 C 2.582031 3.257812 2.580078 3.257812 2.580078 3.257812 C 1.726562 3.972656 1.521484 5.316406 2.042969 6.285156 C 1.865234 6.652344 1.769531 7.060547 1.792969 7.46875 C 1.857422 8.580078 2.810547 9.546875 3.900391 9.707031 C 4.087891 10.068359 4.359375 10.388672 4.699219 10.613281 C 5.630859 11.224609 6.974609 11.039062 7.753906 10.261719 C 8.15625 10.326172 8.574219 10.300781 8.958984 10.160156 C 10.005859 9.779297 10.658203 8.587891 10.5 7.5 C 10.792969 7.214844 11.021484 6.865234 11.138672 6.474609 L 11.138672 6.472656 C 11.458984 5.40625 10.892578 4.171875 9.925781 3.648438 C 9.871094 3.244141 9.726562 2.851562 9.484375 2.523438 L 9.482422 2.523438 C 8.818359 1.630859 7.490234 1.345703 6.492188 1.810547 C 6.136719 1.611328 5.734375 1.492188 5.326172 1.492188 Z M 6.445312 4.359375 C 7.486328 4.359375 8.330078 5.203125 8.330078 6.246094 C 8.330078 7.287109 7.486328 8.130859 6.445312 8.130859 C 5.404297 8.130859 4.560547 7.287109 4.560547 6.246094 C 4.560547 5.203125 5.404297 4.359375 6.445312 4.359375 Z M 6.445312 4.359375 " transform="matrix(2,0,0,2,0,0)"/>
<path style="fill-rule:evenodd;fill:rgb(94.117647%,89.019608%,92.54902%);fill-opacity:1;stroke-width:1;stroke-linecap:butt;stroke-linejoin:miter;stroke:rgb(90.196079%,0.784314%,70.588237%);stroke-opacity:1;stroke-miterlimit:4;" d="M 8.607422 7.972656 C 8.503906 7.96875 8.404297 7.982422 8.332031 8.009766 C 8.048828 8.201172 7.919922 8.267578 7.660156 8.453125 C 7.494141 8.558594 7.388672 8.734375 7.375 8.929688 C 7.263672 10.404297 7.162109 11.740234 6.966797 13.177734 C 6.927734 13.255859 6.835938 13.429688 6.734375 13.611328 C 6.667969 13.673828 6.597656 13.755859 6.542969 13.908203 C 6.533203 13.935547 6.525391 13.958984 6.515625 13.992188 C 6.505859 14.025391 6.484375 14.035156 6.488281 14.195312 C 6.490234 14.277344 6.460938 14.5 6.765625 14.701172 C 6.773438 14.707031 6.783203 14.707031 6.791016 14.710938 L 7.423828 14.710938 C 7.427734 14.708984 7.439453 14.705078 7.443359 14.703125 C 7.609375 14.595703 7.591797 14.572266 7.611328 14.544922 C 7.634766 14.513672 7.638672 14.5 7.654297 14.476562 C 7.679688 14.478516 7.984375 14.355469 8.287109 14.300781 C 8.617188 14.242188 8.908203 14.214844 8.908203 14.214844 C 9.208984 14.185547 9.443359 13.943359 9.464844 13.642578 C 9.511719 12.919922 9.53125 12.208984 9.5 11.5 C 9.902344 11.939453 10.287109 12.349609 10.501953 12.666016 L 10.482422 12.634766 C 10.585938 12.806641 10.746094 12.888672 10.847656 12.917969 C 10.949219 12.949219 11.015625 12.949219 11.068359 12.949219 C 11.173828 12.947266 11.236328 12.933594 11.302734 12.917969 C 11.433594 12.886719 11.560547 12.841797 11.707031 12.787109 C 12 12.677734 12.351562 12.525391 12.701172 12.369141 C 13.402344 12.054688 14.082031 11.722656 14.082031 11.722656 C 14.625 11.457031 14.501953 10.652344 13.904297 10.560547 C 11.96875 10.265625 10.78125 9.058594 8.904297 8.046875 C 8.818359 8 8.710938 7.978516 8.607422 7.972656 Z M 8.607422 7.972656 " transform="matrix(2,0,0,2,0,0)"/>
</g>
</svg>
