<?xml version="1.0" encoding="UTF-8"?>
<svg xmlns="http://www.w3.org/2000/svg" xmlns:xlink="http://www.w3.org/1999/xlink" width="32px" height="32px" viewBox="0 0 32 32" version="1.1">
<g id="surface1">
<path style="fill-rule:nonzero;fill:rgb(94.117647%,89.019608%,92.54902%);fill-opacity:1;stroke-width:1;stroke-linecap:butt;stroke-linejoin:round;stroke:rgb(90.196079%,0.784314%,70.588237%);stroke-opacity:1;stroke-miterlimit:4;" d="M 4 1 L 12 1 C 13 1 14 2 14 3 L 14 11 C 14 12 11 15 10 15 L 4 15 C 3 15 2 14 2 13 L 2 3 C 2 2 3 1 4 1 Z M 4 1 " transform="matrix(2,0,0,2,0,0)"/>
<path style="fill-rule:nonzero;fill:rgb(90.196079%,0.784314%,70.588237%);fill-opacity:1;stroke-width:1;stroke-linecap:butt;stroke-linejoin:round;stroke:rgb(90.196079%,0.784314%,70.588237%);stroke-opacity:1;stroke-miterlimit:4;" d="M 14 11 L 10 15 L 10 11 L 14 11 " transform="matrix(2,0,0,2,0,0)"/>
<path style="fill:none;stroke-width:1;stroke-linecap:round;stroke-linejoin:round;stroke:rgb(61.56863%,22.745098%,60.784316%);stroke-opacity:1;stroke-miterlimit:4;" d="M 4.5 4.5 L 11.5 4.5 " transform="matrix(2,0,0,2,0,0)"/>
<path style="fill-rule:nonzero;fill:rgb(61.56863%,22.745098%,60.784316%);fill-opacity:1;stroke-width:1;stroke-linecap:square;stroke-linejoin:round;stroke:rgb(61.56863%,22.745098%,60.784316%);stroke-opacity:1;stroke-miterlimit:4;" d="M 7.5 4.5 C 7.5 5.052734 7.052734 5.5 6.5 5.5 C 5.947266 5.5 5.5 5.052734 5.5 4.5 C 5.5 3.947266 5.947266 3.5 6.5 3.5 C 7.052734 3.5 7.5 3.947266 7.5 4.5 Z M 7.5 4.5 " transform="matrix(2,0,0,2,0,0)"/>
<path style="fill:none;stroke-width:1;stroke-linecap:round;stroke-linejoin:round;stroke:rgb(61.56863%,22.745098%,60.784316%);stroke-opacity:1;stroke-miterlimit:4;" d="M 11.5 8.5 L 4.5 8.5 " transform="matrix(2,0,0,2,0,0)"/>
<path style="fill-rule:nonzero;fill:rgb(61.56863%,22.745098%,60.784316%);fill-opacity:1;stroke-width:1;stroke-linecap:square;stroke-linejoin:round;stroke:rgb(61.56863%,22.745098%,60.784316%);stroke-opacity:1;stroke-miterlimit:4;" d="M -8.5 8.5 C -8.5 9.052734 -8.947266 9.5 -9.5 9.5 C -10.052734 9.5 -10.5 9.052734 -10.5 8.5 C -10.5 7.947266 -10.052734 7.5 -9.5 7.5 C -8.947266 7.5 -8.5 7.947266 -8.5 8.5 Z M -8.5 8.5 " transform="matrix(-2,0,0,2,0,0)"/>
</g>
</svg>
